<svg xmlns="http://www.w3.org/2000/svg" version="1.2" id="root" viewBox="404.1801981419258 103.02821593556985 97.21500322076486 61.06567245581334"><g id="counties"><path id="county-38079" class="county feature" d="M465.028 114.852l-8.15-.336-.32-3.244.227-5.15 8.142.329-.183 5.182z" vector-effect="non-scaling-stroke" fill="inherit" stroke="inherit" stroke-width="inherit"><title>Rolette County</title></path><path id="county-38009" class="county feature" d="M456.785 106.123l-.227 5.15.32 3.243-1.631-.061-1.622-.073.07-1.611-8.135-.416-.086 1.605-4.884-.282.184-3.208-.562-.043.288-5.137z" vector-effect="non-scaling-stroke" fill="inherit" stroke="inherit" stroke-width="inherit"><title>Bottineau County</title></path><path id="county-38067" class="county feature" d="M493.411 107.144l.867 4.487.727 1.31-.87 2.656-9.55-.155-.114-8.448z" vector-effect="non-scaling-stroke" fill="inherit" stroke="inherit" stroke-width="inherit"><title>Pembina County</title></path><path id="county-38095" class="county feature" d="M471.553 115.086l-.104 3.195-2.872-.083-3.667-.134.118-3.212-.284-3.219.183-5.182 6.524.214-.164 5.198z" vector-effect="non-scaling-stroke" fill="inherit" stroke="inherit" stroke-width="inherit"><title>Towner County</title></path><path id="county-38019" class="county feature" d="M484.471 106.994l.114 8.448-4.887-.122-8.145-.234-.266-3.223.164-5.198z" vector-effect="non-scaling-stroke" fill="inherit" stroke="inherit" stroke-width="inherit"><title>Cavalier County</title></path><path id="county-38023" class="county feature" d="M422.656 104.123l-.387 5.115.547 1.67-14.45-1.152.566-6.728z" vector-effect="non-scaling-stroke" fill="inherit" stroke="inherit" stroke-width="inherit"><title>Divide County</title></path><path id="county-38013" class="county feature" d="M434.01 104.906l-.228 3.53-1.622-.102-.113 1.597-1.004-.065-.21 3.207-8.125-.563.108-1.602-.547-1.67.387-5.115z" vector-effect="non-scaling-stroke" fill="inherit" stroke="inherit" stroke-width="inherit"><title>Burke County</title></path><path id="county-38075" class="county feature" d="M445.474 113.96l-.086 1.607-9.767-.581.291-4.808-2.227-.145.097-1.596.229-3.531 6.49.384-.29 5.137.563.043-.184 3.208z" vector-effect="non-scaling-stroke" fill="inherit" stroke="inherit" stroke-width="inherit"><title>Renville County</title></path><path id="county-38101" class="county feature" d="M433.782 108.437l-.097 1.596 2.227.145-.291 4.808 9.767.58.485 1.637-.354 6.443.564.032-.182 3.218-11.356-.63.206-3.246-.637-.04.402-6.434-.641-.05.207-3.23-3.25-.193.211-3.207 1.004.065.113-1.597z" vector-effect="non-scaling-stroke" fill="inherit" stroke="inherit" stroke-width="inherit"><title>Ward County</title></path><path id="county-38105" class="county feature" d="M422.816 110.908l-.108 1.602-.232 3.204.718.046-.336 4.6-4.67-.56-1.306 1.68-2.294.696-1.473-2.68-1.78.563-1.159 2.01-2.763-.552.588-7.253.364-4.508z" vector-effect="non-scaling-stroke" fill="inherit" stroke="inherit" stroke-width="inherit"><title>Williams County</title></path><path id="county-38049" class="county feature" d="M455.247 114.455l.345 3.225-.284 6.46.497.021-.147 3.224-4.886-.223-4.87-.266.181-3.218-.564-.032.354-6.443-.485-1.636.086-1.607.086-1.605 8.135.416-.07 1.61z" vector-effect="non-scaling-stroke" fill="inherit" stroke="inherit" stroke-width="inherit"><title>McHenry County</title></path><path id="county-38061" class="county feature" d="M434.545 126.266l-6.473-.42-.117 1.66-3.148-1.438.029-1.446 1.32-1.708-1.288-1.539-2.01-1.015.336-4.6-.718-.046.232-3.204 8.124.563 3.25.194-.207 3.23.64.05-.4 6.433.636.04z" vector-effect="non-scaling-stroke" fill="inherit" stroke="inherit" stroke-width="inherit"><title>Mountrail County</title></path><path id="county-38069" class="county feature" d="M465.028 114.852l-.118 3.212-4.426-.178-.28 6.462.323 3.25-3.243-.135-1.626-.078.147-3.224-.497-.022.284-6.459-.345-3.225 1.63.061z" vector-effect="non-scaling-stroke" fill="inherit" stroke="inherit" stroke-width="inherit"><title>Pierce County</title></path><path id="county-38071" class="county feature" d="M473.855 125.738zm5.843-10.418l.172 6.451-1.632-.032-.09 3.215-1.298-.035-.052 1.964-1.19-.057-2.504-2.777-1.36 1.169-3.296-3.204.129-3.816 2.872.083.104-3.195z" vector-effect="non-scaling-stroke" fill="inherit" stroke="inherit" stroke-width="inherit"><title>Ramsey County</title></path><path id="county-38099" class="county feature" d="M484.585 115.442l9.55.155.536 4.047-.348 2.421-9.571-.18-4.882-.114-.172-6.45z" vector-effect="non-scaling-stroke" fill="inherit" stroke="inherit" stroke-width="inherit"><title>Walsh County</title></path><path id="county-38005" class="county feature" d="M464.91 118.064l3.667.134-.129 3.816 3.295 3.204 1.36-1.169 2.505 2.777 1.19.057-.034 1.275-9.742-.309-6.495-.252-.322-3.249.28-6.462zm8.945 7.674z" vector-effect="non-scaling-stroke" fill="inherit" stroke="inherit" stroke-width="inherit"><title>Benson County</title></path><path id="county-38063" class="county feature" d="M484.752 121.885l.202 3.229-.132 6.459-1.295-.029-6.526-.154-.237-3.232.034-1.275.052-1.964 1.297.035.091-3.215 1.632.032z" vector-effect="non-scaling-stroke" fill="inherit" stroke="inherit" stroke-width="inherit"><title>Nelson County</title></path><path id="county-38035" class="county feature" d="M494.323 122.065l-.063.365 1.514 5.599 1.529 3.678-7.291-.04-5.19-.094.132-6.46-.202-3.228z" vector-effect="non-scaling-stroke" fill="inherit" stroke="inherit" stroke-width="inherit"><title>Grand Forks County</title></path><path id="county-38053" class="county feature" d="M422.858 120.36l2.01 1.015 1.289 1.539-1.321 1.708-.029 1.446-.198 2.771-5.775-.429-.47 6.399-7.206-.574-4.799-.413.106-1.245.948-11.06 2.763.552 1.158-2.01 1.78-.564 1.474 2.68 2.294-.696 1.306-1.678z" vector-effect="non-scaling-stroke" fill="inherit" stroke="inherit" stroke-width="inherit"><title>McKenzie County</title></path><path id="county-38055" class="county feature" d="M450.772 127.162l-.155 3.215-1.094-.059-.339 6.42-.963-.048-.158 3.162-2.755-.13-1.018-2.59-2.59.37-1.137-.63-1-3.16.278-1.826-3.911.325-1.05.599-4.868-1.758-.653-.826.189-3.061-1.593.342.117-1.662 6.473.421 11.356.63z" vector-effect="non-scaling-stroke" fill="inherit" stroke="inherit" stroke-width="inherit"><title>McLean County</title></path><path id="county-38027" class="county feature" d="M476.764 128.158l.237 3.232-.042 1.579-9.703-.304-.234-4.816z" vector-effect="non-scaling-stroke" fill="inherit" stroke="inherit" stroke-width="inherit"><title>Eddy County</title></path><path id="county-38103" class="county feature" d="M460.527 127.597l6.495.252.234 4.816-.17 4.83-2.732-.093-7.027-.282.278-6.42-.321-3.237z" vector-effect="non-scaling-stroke" fill="inherit" stroke="inherit" stroke-width="inherit"><title>Wells County</title></path><path id="county-38083" class="county feature" d="M455.658 127.385l1.626.078.32 3.236-.277 6.421-1.013-.043-7.13-.34.339-6.419 1.094.06.155-3.216z" vector-effect="non-scaling-stroke" fill="inherit" stroke="inherit" stroke-width="inherit"><title>Sheridan County</title></path><path id="county-38025" class="county feature" d="M427.955 127.507l1.593-.342-.189 3.06.653.827-.298 4.564.77.05-.381 5.89-4.861-.323-.037.537-6.471-.449.473-6.45-.843-.062.47-6.399 5.775.43.198-2.772z" vector-effect="non-scaling-stroke" fill="inherit" stroke="inherit" stroke-width="inherit"><title>Dunn County</title></path><path id="county-38091" class="county feature" d="M484.822 131.573l5.19.093-.114 6.448.26 1.591-3.244-.07-3.253-.073-.291-1.596.157-6.422z" vector-effect="non-scaling-stroke" fill="inherit" stroke="inherit" stroke-width="inherit"><title>Steele County</title></path><path id="county-38039" class="county feature" d="M483.527 131.544l-.157 6.422.291 1.596-6.46-.15-.36-1.608.118-4.835.042-1.579z" vector-effect="non-scaling-stroke" fill="inherit" stroke="inherit" stroke-width="inherit"><title>Griggs County</title></path><path id="county-38097" class="county feature" d="M497.855 134.955l.2 4.872-7.898-.122-.259-1.59.114-6.449 7.29.041z" vector-effect="non-scaling-stroke" fill="inherit" stroke="inherit" stroke-width="inherit"><title>Traill County</title></path><path id="county-38031" class="county feature" d="M476.96 132.969l-.119 4.835-9.756-.309.171-4.83z" vector-effect="non-scaling-stroke" fill="inherit" stroke="inherit" stroke-width="inherit"><title>Foster County</title></path><path id="county-38057" class="county feature" d="M441.7 137.502l-.034.45-6.445-.373-.293 4.82-4.255-.26-.57-.583.381-5.89-.77-.05.298-4.564 4.868 1.758 1.05-.6 3.91-.324-.277 1.825 1 3.161z" vector-effect="non-scaling-stroke" fill="inherit" stroke="inherit" stroke-width="inherit"><title>Mercer County</title></path><path id="county-38007" class="county feature" d="M418.364 134.809l.843.063-.473 6.45-2.535-.178-.504 6.492-4.844-.378.516-6.492-.733-.057.524-6.474z" vector-effect="non-scaling-stroke" fill="inherit" stroke="inherit" stroke-width="inherit"><title>Billings County</title></path><path id="county-38033" class="county feature" d="M411.158 134.235l-.524 6.474.733.057-.516 6.492-2.459-.196-.135 1.647-3.138-.265.158-1.864 1.082-12.758z" vector-effect="non-scaling-stroke" fill="inherit" stroke="inherit" stroke-width="inherit"><title>Golden Valley County</title></path><path id="county-38043" class="county feature" d="M464.354 137.402l-.24 6.43.446.012-.277 6.49-5.994-.255-2.127-.097.356-6.467-.505-.025.3-6.413 1.014.043z" vector-effect="non-scaling-stroke" fill="inherit" stroke="inherit" stroke-width="inherit"><title>Kidder County</title></path><path id="county-38093" class="county feature" d="M476.841 137.804l.36 1.608-.125 4.846.363.008-.162 6.481-7.691-.211-5.303-.202.277-6.49-.446-.012.24-6.43 2.731.093z" vector-effect="non-scaling-stroke" fill="inherit" stroke="inherit" stroke-width="inherit"><title>Stutsman County</title></path><path id="county-38015" class="county feature" d="M456.314 137.077l-.3 6.413.504.025-.356 6.467-7.46-.363-1.49-1.048-.333-2.203-1.364-3.4.73-.582-.937-2.664 2.755.13.158-3.162.963.047z" vector-effect="non-scaling-stroke" fill="inherit" stroke="inherit" stroke-width="inherit"><title>Burleigh County</title></path><path id="county-38065" class="county feature" d="M445.308 139.722l.936 2.664-.729.582-10.587-.568.293-4.821 6.445.372.034-.449 2.59-.37z" vector-effect="non-scaling-stroke" fill="inherit" stroke="inherit" stroke-width="inherit"><title>Oliver County</title></path><path id="county-38003" class="county feature" d="M483.661 139.562l3.253.072.225 4.865-.12 6.48-4.53-.102-5.212-.13.162-6.481-.363-.008.126-4.846z" vector-effect="non-scaling-stroke" fill="inherit" stroke="inherit" stroke-width="inherit"><title>Barnes County</title></path><path id="county-38017" class="county feature" d="M490.157 139.705l7.897.122-.124 1.61.004 2.649.963 1.376-.527 2.542.024 3.115-6.202-.045-5.172-.096.119-6.479-.225-4.865z" vector-effect="non-scaling-stroke" fill="inherit" stroke="inherit" stroke-width="inherit"><title>Cass County</title></path><path id="county-38089" class="county feature" d="M430.103 141.556l.57.582-.305 4.888-.103 1.61-10.673-.714-3.897-.286.504-6.492 2.535.177 6.47.45.038-.538z" vector-effect="non-scaling-stroke" fill="inherit" stroke="inherit" stroke-width="inherit"><title>Stark County</title></path><path id="county-38059" class="county feature" d="M445.515 142.968l1.364 3.4.332 2.203 1.492 1.048 1.168.809-.436 3.077-1.751.797-2.524-.385-1.775 1.95.086-1.613-3.236-.177.268-4.81-5.37-.327.087-1.616-4.852-.298.305-4.888 4.255.262z" vector-effect="non-scaling-stroke" fill="inherit" stroke="inherit" stroke-width="inherit"><title>Morton County</title></path><path id="county-38037" class="county feature" d="M443.385 155.868l-1.98 2.452-2.101 1.23-4.349.942-2.154-1.286-1.957.25.188-2.827-.538-1.496.356-6.457-.585-.04.103-1.61 4.852.298-.088 1.616 5.371.327-.268 4.81 3.236.177z" vector-effect="non-scaling-stroke" fill="inherit" stroke="inherit" stroke-width="inherit"><title>Grant County</title></path><path id="county-38029" class="county feature" d="M456.162 149.982l2.127.097-.278 6.508.492.026-.283 6.358-8.204-.406-1.342-3.809 1.009-1.91-.248-3.341.436-3.077-1.168-.809z" vector-effect="non-scaling-stroke" fill="inherit" stroke="inherit" stroke-width="inherit"><title>Emmons County</title></path><path id="county-38047" class="county feature" d="M464.283 150.334l5.303.202-.212 6.464-10.871-.387-.492-.026.278-6.508z" vector-effect="non-scaling-stroke" fill="inherit" stroke="inherit" stroke-width="inherit"><title>Logan County</title></path><path id="county-38087" class="county feature" d="M419.592 147.922l-.431 6.476-.913-.052-13.55-1.064.42-4.838 3.139.265.135-1.647 2.46.196 4.843.378z" vector-effect="non-scaling-stroke" fill="inherit" stroke="inherit" stroke-width="inherit"><title>Slope County</title></path><path id="county-38045" class="county feature" d="M482.49 150.877l-.148 6.478-12.522-.333-.446-.022.212-6.464 7.691.211z" vector-effect="non-scaling-stroke" fill="inherit" stroke="inherit" stroke-width="inherit"><title>LaMoure County</title></path><path id="county-38041" class="county feature" d="M430.265 148.637l.585.04-.356 6.456.538 1.496-6.456-.438.099-1.434-5.514-.359.43-6.476z" vector-effect="non-scaling-stroke" fill="inherit" stroke="inherit" stroke-width="inherit"><title>Hettinger County</title></path><path id="county-38073" class="county feature" d="M487.02 150.978l5.172.096-.097 6.46-9.391-.167-.362-.012.148-6.478z" vector-effect="non-scaling-stroke" fill="inherit" stroke="inherit" stroke-width="inherit"><title>Ransom County</title></path><path id="county-38077" class="county feature" d="M498.584 151.121l.566 2.65 1.74 2.94.505 4.002-.22 1.766.154 1.615-8.64-.08-.395-1.162-.199-5.319.097-6.459 6.202.045z" vector-effect="non-scaling-stroke" fill="inherit" stroke="inherit" stroke-width="inherit"><title>Richland County</title></path><path id="county-38085" class="county feature" d="M449.435 153.505l.248 3.34-1.01 1.911 1.343 3.81-19.3-1.086.128-2.025 1.957-.249 2.154 1.286 4.349-.942 2.101-1.23 1.98-2.452 1.775-1.951 2.524.385z" vector-effect="non-scaling-stroke" fill="inherit" stroke="inherit" stroke-width="inherit"><title>Sioux County</title></path><path id="county-38001" class="county feature" d="M431.032 156.629l-.188 2.826-.128 2.025h-.023l-12.212-.841-.703-.054.47-6.239.913.052 5.514.359-.099 1.434z" vector-effect="non-scaling-stroke" fill="inherit" stroke="inherit" stroke-width="inherit"><title>Adams County</title></path><path id="county-38081" class="county feature" d="M492.095 157.533l.2 5.32.394 1.16-9.762-.176-.378-.01.155-6.46z" vector-effect="non-scaling-stroke" fill="inherit" stroke="inherit" stroke-width="inherit"><title>Sargent County</title></path><path id="county-38051" class="county feature" d="M469.374 157l.446.022-.235 6.392-9.258-.35-2.107-.093.283-6.358z" vector-effect="non-scaling-stroke" fill="inherit" stroke="inherit" stroke-width="inherit"><title>McIntosh County</title></path><path id="county-38021" class="county feature" d="M482.342 157.355l.362.012-.155 6.46-9.307-.282-3.657-.131.235-6.392z" vector-effect="non-scaling-stroke" fill="inherit" stroke="inherit" stroke-width="inherit"><title>Dickey County</title></path><path id="county-38011" class="county feature" d="M418.248 154.346l-.47 6.239-13.598-1.081.519-6.222z" vector-effect="non-scaling-stroke" fill="inherit" stroke="inherit" stroke-width="inherit"><title>Bowman County</title></path></g><path id="counties-mesh" class="counties mesh" d="M464.927 106.451l6.524.214-.164 5.198.266 3.223-.104 3.195-2.872-.083-3.667-.134.118-3.212-8.15-.336-1.631-.061-1.622-.073.07-1.611-8.135-.416-.086 1.605-4.884-.282.184-3.208-.562-.043.288-5.137 16.285.833m36.626 1.02l.867 4.488.727 1.31-.87 2.656-9.55-.155-.114-8.448 8.94.15m-8.826 8.298l-4.887-.122-8.145-.234m-.102-8.42l13.02.328m-61.815-2.87l-.387 5.114.547 1.67-14.45-1.152.566-6.728 13.724 1.095 11.355.783-.229 3.53-1.622-.102-.113 1.597-1.004-.065-.21 3.207-8.125-.563.108-1.602m22.658 3.052l-.086 1.607-9.767-.581.291-4.808-2.227-.145.097-1.596m.229-3.531l6.49.384m-17.793 7.22l-.232 3.204.718.046-.336 4.6-4.67-.56-1.306 1.68-2.294.696-1.473-2.68-1.78.563-1.159 2.01-2.763-.552.588-7.253.364-4.508m37.023 5.81l.485 1.637-.354 6.443.564.032-.182 3.218-11.356-.63.206-3.246-.637-.04.402-6.434-.641-.05.207-3.23-3.25-.193m24.415 1.382l.345 3.225-.284 6.46.497.021-.147 3.224-4.886-.223-4.87-.266m-11.357-.63l-6.473-.42-.117 1.66-3.148-1.438.029-1.446 1.32-1.708-1.288-1.539-2.01-1.015m42.052-2.296l-4.426-.178-.28 6.462.323 3.25-3.243-.135-1.626-.078m24.04-12.065l.172 6.451-1.632-.032-.09 3.215-1.298-.035-.052 1.964-1.19-.057-2.504-2.777-1.36 1.169-3.296-3.204.129-3.816m25.746 3.867l-9.571-.18-4.882-.114m-3.072 5.112l-.034 1.275-9.742-.309-6.495-.252m24.225-5.712l.202 3.229-.132 6.459-1.295-.029-6.526-.154-.237-3.232m17.372-12.561l.535 4.047-.348 2.421-.063.365 1.514 5.599 1.529 3.678-7.291-.04-5.19-.094m-60.015-5.505l-.198 2.771-5.775-.429-.47 6.399-7.206-.574-4.799-.413.106-1.245.948-11.06m43.359 5.645l-.155 3.215-1.094-.059-.339 6.42-.963-.048-.158 3.162-2.755-.13-1.018-2.59-2.59.37-1.137-.63-1-3.16.278-1.826-3.911.325-1.05.599-4.868-1.758-.653-.826.189-3.061-1.593.342m49.046 3.883l-.042 1.579-9.703-.304-.234-4.816m.234 4.816l-.17 4.83-2.732-.093-7.027-.282.278-6.42-.321-3.237m.043 9.657l-1.013-.043-7.13-.34m-19.172-5.685l-.298 4.564.77.05-.381 5.89-4.861-.323-.037.537-6.471-.449.473-6.45-.843-.062m71.648-3.143l-.114 6.448.26 1.591-3.244-.07-3.253-.073-.291-1.596.157-6.422m.134 8.018l-6.46-.15-.36-1.608.118-4.835m20.344-1.262l.552 3.248.2 4.872-7.898-.122m-13.316-1.9l-9.756-.31m-25.385.007l-.034.45-6.445-.373-.293 4.82-4.255-.26-.57-.583m-19.252 5.702l-2.459-.196-.135 1.647-3.138-.265.158-1.864 1.082-12.758m12.375 7.5l-2.535-.178-.504 6.492-4.844-.378.516-6.492-.733-.057.524-6.474m53.196 3.167l-.24 6.43.446.012-.277 6.49-5.994-.255-2.127-.097.356-6.467-.505-.025.3-6.413m20.889 2.335l-.126 4.846.363.008-.162 6.481-7.691-.211-5.303-.202m-8.121-.352l-7.46-.363-1.49-1.048-.333-2.203-1.364-3.4.73-.582-.937-2.664m.207 3.246l-10.587-.568m51.986-2.766l.225 4.865-.12 6.48-4.53-.102-5.212-.13m20.777-10.92l-.124 1.61.004 2.649.963 1.376-.527 2.542.024 3.115-6.202-.045-5.172-.096m-56.347-8.84l-.305 4.888-.103 1.61-10.673-.714-3.897-.286m33.008 1.983l1.168.809-.436 3.077-1.751.797-2.524-.385-1.775 1.95.086-1.613-3.236-.177.268-4.81-5.37-.327.087-1.616-4.852-.298m13.017 8.842l-1.98 2.452-2.101 1.23-4.349.942-2.154-1.286-1.957.25.188-2.827-.538-1.496.356-6.457-.585-.04m-12.487 11.949l-13.598-1.081.519-6.222.42-4.838m53.17 1.635l-.278 6.508.492.026-.283 6.358-8.204-.406-1.342-3.809 1.009-1.91-.248-3.341m20.15-2.97l-.21 6.465-10.872-.387m-38.911-8.69l-.431 6.475-.913-.052-13.55-1.064m77.792-2.405l-.148 6.478-12.522-.333-.446-.022m-38.342-.371l-6.456-.438.099-1.434-5.514-.359m73.03-3.324l-.096 6.46-9.391-.167-.362-.012m16.052-6.236l.19.002.566 2.65 1.74 2.94.505 4.002-.22 1.766.154 1.615-8.64-.08-.395-1.162-.199-5.319m-42.08 5.032l-19.299-1.085.128-2.025m-.128 2.025h-.023l-12.212-.841-.703-.054.47-6.239m74.441 9.667l-9.762-.176-.378-.01.155-6.46m-12.884-.345l-.235 6.392-9.258-.35-2.107-.093m24.329.857l-9.307-.283-3.657-.131m-12.707-48.898l-.32-3.244.227-5.15m0 0l8.142.329m0 0l-.183 5.182.284 3.219" vector-effect="non-scaling-stroke" fill="inherit" stroke="inherit" stroke-width="inherit"/></svg>