<svg xmlns="http://www.w3.org/2000/svg" version="1.2" id="root" viewBox="167.31287340595657 196.42455346316615 94.20150192616791 145.71736269566532"><g id="counties"><path id="county-32013" class="county feature" d="M217.257 224.323l-1.48 6.563-3.13-.697-1.225 1.968.536-2.917-4.574-1.067.738-3.185-15.575-3.67.47-1.92-7.103-1.748-.273-.068 4.804-18.848 15.102 3.627 15.716 3.583.118.04z" vector-effect="non-scaling-stroke" fill="inherit" stroke="inherit" stroke-width="inherit"><title>Humboldt County</title></path><path id="county-32007" class="county feature" d="M258.257 213.813l3.257.64-3.533 18.364-3.209 16.321-16.869-3.461-7.89-1.749-2.302-.48-.032-10.394 1.317-6.14-5.851-1.284-5.888-1.307 4.124-18.34 11.724 2.6 14.932 3.163z" vector-effect="non-scaling-stroke" fill="inherit" stroke="inherit" stroke-width="inherit"><title>Elko County</title></path><path id="county-32031" class="county feature" d="M185.914 217.65l-2.07 8.065-.35-.078-2.384 9.49 1.573.377-.636 3.52.421.527-.961 2.785-1.356-.123-2.686.066-2.5.764-.973-.438-.37 3.599-1.128 1.282-2.731.963-1.714-.444.663-2.757.677-2.395 1.327-5 6.894-26.656 3.822-14.772 8.53 2.18.483.129-4.804 18.848z" vector-effect="non-scaling-stroke" fill="inherit" stroke="inherit" stroke-width="inherit"><title>Washoe County</title></path><path id="county-32011" class="county feature" d="M230.013 243.928l-.52 5.184-.959 2.07-.307 2.663-1.823 2.1-1.176 5.582-9.732-2.098 3.832-16.714 3.461-16.124.356-.961 5.85 1.284-1.316 6.14.032 10.394z" vector-effect="non-scaling-stroke" fill="inherit" stroke="inherit" stroke-width="inherit"><title>Eureka County</title></path><path id="county-32015" class="county feature" d="M223.145 225.63l-.356.961-3.461 16.124-3.832 16.714-10.224-2.33-6.5-.145 1.284-2.014.008-2.709 3.111-2.473 1.396.013.85-1.715.05-2.242 1.1-3.078-.676-1.695 5.527-8.884 1.224-1.968 3.13.697 1.481-6.563z" vector-effect="non-scaling-stroke" fill="inherit" stroke="inherit" stroke-width="inherit"><title>Lander County</title></path><path id="county-32027" class="county feature" d="M211.422 232.157l-5.527 8.884-13.248-3.078-9.964-2.46-1.573-.377 2.383-9.49.35.079 2.071-8.065 7.102 1.747-.47 1.92 15.576 3.671-.738 3.185 4.574 1.067z" vector-effect="non-scaling-stroke" fill="inherit" stroke="inherit" stroke-width="inherit"><title>Pershing County</title></path><path id="county-32033" class="county feature" d="M254.772 249.138l-.75 3.904-1.303 6.724-3.11 16.017-13.468-2.659-10.913-11.597 1.176-5.582 1.823-2.1.307-2.663.96-2.07.52-5.184 7.89 1.749z" vector-effect="non-scaling-stroke" fill="inherit" stroke="inherit" stroke-width="inherit"><title>White Pine County</title></path><path id="county-32001" class="county feature" d="M205.895 241.041l.676 1.695-1.1 3.078-.05 2.242-.85 1.715-1.396-.013-3.111 2.473-.008 2.71-1.283 2.013-1.33.072-12.407-2.987.162-.686-3.817-6.307 2.072-5.972-1.946 1.262.961-2.785-.42-.527.635-3.52 9.964 2.459z" vector-effect="non-scaling-stroke" fill="inherit" stroke="inherit" stroke-width="inherit"><title>Churchill County</title></path><path id="county-32019" class="county feature" d="M185.036 254.04l-2.463-.58-1.78 2.087-.406 1.687 1.58.373-2.039 7.993-3.519-.87-1.872-2.823.636-3.733-.806-.148.818-4.1 1.702-.272.41-1.701-3.318-.879.347-2.043-1.832-1.545 3.65-.763 4.007-4.51 1.356.123 1.946-1.262-2.072 5.972 3.817 6.307z" vector-effect="non-scaling-stroke" fill="inherit" stroke="inherit" stroke-width="inherit"><title>Lyon County</title></path><path id="county-32029" class="county feature" d="M172.494 247.486l1.127-1.282.37-3.599.973.438 2.501-.764 2.686-.066-4.007 4.51z" vector-effect="non-scaling-stroke" fill="inherit" stroke="inherit" stroke-width="inherit"><title>Storey County</title></path><path id="county-32510" class="county feature" d="M173.979 251.074l-2.8-1.26-3.37-.839.24-.97 1.714.444 2.731-.963 1.832 1.545z" vector-effect="non-scaling-stroke" fill="inherit" stroke="inherit" stroke-width="inherit"><title>Carson City</title></path><path id="county-32023" class="county feature" d="M215.496 259.429l9.732 2.098 10.913 11.597-2.345 11.574-12.74-2.634-4.783 22.282-3.248 15.522-14.555-21.919 4.298-18.954-5.45-10.385-5.176-9.834.35-1.491 4.951-.259 1.33-.072 6.499.145z" vector-effect="non-scaling-stroke" fill="inherit" stroke="inherit" stroke-width="inherit"><title>Nye County</title></path><path id="county-32005" class="county feature" d="M173.979 251.074l3.318.879-.41 1.701-1.702.273-.818 4.1.806.147-.636 3.733-2.719-4.068-3.474-5.234-1.031-1.563.298-1.237.198-.83 3.37.839z" vector-effect="non-scaling-stroke" fill="inherit" stroke="inherit" stroke-width="inherit"><title>Douglas County</title></path><path id="county-32021" class="county feature" d="M197.443 257.026l-4.951.259-.35 1.491 5.177 9.834-11.856 8.443-1.079-.307-7.975-12.017 3.52.871 2.038-7.993-1.58-.373.406-1.687 1.78-2.087 2.463.58z" vector-effect="non-scaling-stroke" fill="inherit" stroke="inherit" stroke-width="inherit"><title>Mineral County</title></path><path id="county-32017" class="county feature" d="M249.609 275.783l-.372 1.934-1.51 7.857-1.972 10.063-2.126 11.198-.554 2.913-10.342-2.042.036-.178-14.187-2.906-2.309-.276 4.782-22.282 12.74 2.634 2.346-11.574z" vector-effect="non-scaling-stroke" fill="inherit" stroke="inherit" stroke-width="inherit"><title>Lincoln County</title></path><path id="county-32009" class="county feature" d="M198.47 297.95l-7.488-11.281-6.598-9.923 1.08.307 11.855-8.443 5.449 10.385z" vector-effect="non-scaling-stroke" fill="inherit" stroke="inherit" stroke-width="inherit"><title>Esmeralda County</title></path><path id="county-32003" class="county feature" d="M243.075 309.748l-2.218 12.048-2.214 2.84-1.213-.036-1.545-2.794-3.816-.745-2.044.68-.106 4.483-.844 6.334.521 3.683-.212 3.113-1.378.887-.173 1.9-11.984-18.02-2.824-4.253 3.248-15.522 2.31.276 14.186 2.906-.036.178z" vector-effect="non-scaling-stroke" fill="inherit" stroke="inherit" stroke-width="inherit"><title>Clark County</title></path></g><path id="counties-mesh" class="counties mesh" d="M221.38 205.983l-4.123 18.34-1.48 6.563-3.13-.697-1.225 1.968.536-2.917-4.574-1.067.738-3.185-15.575-3.67.47-1.92-7.103-1.748-.273-.068 4.804-18.848m-4.53 18.916l-2.072 8.065-.35-.078-2.383 9.49 1.573.377-.636 3.52.421.527-.961 2.785-1.356-.123-2.686.066-2.5.764-.973-.438-.37 3.599-1.128 1.282-2.731.963-1.714-.444.663-2.757.677-2.395 1.327-5 6.894-26.656 3.822-14.772 8.53 2.18.483.129 15.102 3.627 15.716 3.583.118.04 11.724 2.598 14.932 3.164 10.22 2.067 3.257.64-3.533 18.364-3.209 16.321-16.869-3.461-7.89-1.749-2.302-.48-.032-10.394 1.317-6.14-5.851-1.284-5.888-1.307m12.756 19.605l-.52 5.184-.959 2.07-.307 2.663-1.823 2.1-1.176 5.582-9.732-2.098 3.832-16.714 3.461-16.124.356-.961m-7.649 33.799l-10.224-2.33-6.5-.145 1.284-2.014.008-2.709 3.111-2.473 1.396.013.85-1.715.05-2.242 1.1-3.078-.676-1.695 5.527-8.884m-5.527 8.884l-13.248-3.078-9.964-2.46m72.09 13.635l-.751 3.904-1.303 6.724-3.11 16.017-13.468-2.659-10.913-11.597m-26.455-4.573l-1.33.072-12.407-2.987.162-.686-3.817-6.307 2.072-5.972-1.946 1.262m3.53 11.703l-2.464-.58-1.78 2.088-.406 1.687 1.58.373-2.039 7.993-3.519-.87-1.872-2.823.636-3.733-.806-.148.818-4.1 1.702-.272.41-1.701-3.318-.879.347-2.043-1.832-1.545 3.65-.763 4.007-4.51m-5.614 19.694l-2.719-4.068-3.474-5.234-1.031-1.563.298-1.237.198-.83.24-.97m5.93 3.07l-2.8-1.261-3.37-.839m68.332 24.149l-2.345 11.574-12.74-2.634-4.783 22.282-3.248 15.522-14.555-21.919 4.298-18.954-5.45-10.385-5.176-9.834.35-1.491 4.951-.259m-.124 11.584l-11.856 8.443-1.079-.307-7.975-12.017m22.061 33.22l-7.488-11.28-6.598-9.923m65.225-.963l-.372 1.934-1.51 7.857-1.972 10.063-2.126 11.198-.554 2.913-10.342-2.042.036-.178-14.187-2.906-2.309-.276m26.802 5.402l-2.218 12.048-2.214 2.84-1.213-.036-1.545-2.794-3.816-.745-2.044.68-.106 4.483-.844 6.334.521 3.683-.212 3.113-1.378.887-.173 1.9-11.984-18.02-2.824-4.253" vector-effect="non-scaling-stroke" fill="inherit" stroke="inherit" stroke-width="inherit"/></svg>