<svg xmlns="http://www.w3.org/2000/svg" version="1.2" id="root" viewBox="663.2269044558229 220.94763286036505 61.973108811882526 70.65583945843912"><g id="counties"><path id="county-39007" class="county feature" d="M721.5 223.324l1.067 6.496-6.636 1.03-.636-3.965-.394-2.571 6.208-3.366z" vector-effect="non-scaling-stroke" fill="inherit" stroke="inherit" stroke-width="inherit"><title>Ashtabula County</title></path><path id="county-39085" class="county feature" d="M715.295 226.885l-1.346.229.228 1.351-2.645.427.19 1.322-1.302.206-1.514-.94 2.419-2.882 3.576-2.284z" vector-effect="non-scaling-stroke" fill="inherit" stroke="inherit" stroke-width="inherit"><title>Lake County</title></path><path id="county-39095" class="county feature" d="M685.937 232.961l-3.425.543-2.115.313-1.648 2.524-2.172 1.82-.17-1.366-.522-4.344 1.602-.273 3.824-.664.03-.005.146-.026.079-.011.127-.023z" vector-effect="non-scaling-stroke" fill="inherit" stroke="inherit" stroke-width="inherit"><title>Lucas County</title></path><path id="county-39123" class="county feature" d="M685.937 232.961l2.956 1.56 1.704-1.518 1.67 1.378-4.167 1.432-.246.038-.074.011-3.8.51-1.158-.655-.31-2.213z" vector-effect="non-scaling-stroke" fill="inherit" stroke="inherit" stroke-width="inherit"><title>Ottawa County</title></path><path id="county-39051" class="county feature" d="M676.407 236.795l-6.318.833-.6-.465-.696-3.552.535-.081 6.557-1.079z" vector-effect="non-scaling-stroke" fill="inherit" stroke="inherit" stroke-width="inherit"><title>Fulton County</title></path><path id="county-39055" class="county feature" d="M715.931 230.85l.455 2.86-5.333.829-.633-4.119 1.303-.206-.191-1.322 2.645-.427-.228-1.351 1.346-.229z" vector-effect="non-scaling-stroke" fill="inherit" stroke="inherit" stroke-width="inherit"><title>Geauga County</title></path><path id="county-39171" class="county feature" d="M670.089 237.628l.138 1.082-6.373.799-.24-1.944-.387-3.1 5.566-.854.696 3.552z" vector-effect="non-scaling-stroke" fill="inherit" stroke="inherit" stroke-width="inherit"><title>Williams County</title></path><path id="county-39035" class="county feature" d="M710.42 230.42l.633 4.119h-.005l-2.814.385.568 1.303-1.584.255-2.653.44-.196-1.409-1.3.18-.386-2.865 3.119-.13 3.104-3.218z" vector-effect="non-scaling-stroke" fill="inherit" stroke="inherit" stroke-width="inherit"><title>Cuyahoga County</title></path><path id="county-39043" class="county feature" d="M697.684 235.045l.465 2.66-6.898.856-.452-2.595-.743.092 2.683-1.009 2.938 1.143z" vector-effect="non-scaling-stroke" fill="inherit" stroke="inherit" stroke-width="inherit"><title>Erie County</title></path><path id="county-39173" class="county feature" d="M682.512 233.504l.31 2.213.538 4.604.202 1.629-6.365.812-.62-4.601 2.172-1.82 1.648-2.524z" vector-effect="non-scaling-stroke" fill="inherit" stroke="inherit" stroke-width="inherit"><title>Wood County</title></path><path id="county-39093" class="county feature" d="M702.683 232.828l.386 2.865 1.3-.18.196 1.408-1.3.188.178 1.41-1.35.202-1.17 1.366.176 1.374-2.283.29-.667-4.047-.465-2.66 4.373-2.328z" vector-effect="non-scaling-stroke" fill="inherit" stroke="inherit" stroke-width="inherit"><title>Lorain County</title></path><path id="county-39155" class="county feature" d="M722.567 229.82l.031.194 1.091 6.607-6.621 1.054-.682-3.965-.455-2.86z" vector-effect="non-scaling-stroke" fill="inherit" stroke="inherit" stroke-width="inherit"><title>Trumbull County</title></path><path id="county-39143" class="county feature" d="M687.854 235.851l.246-.038-.246.038zm-.074.011l2.276.196.743-.092.452 2.595.105.644-7.996 1.116-.538-4.604 1.159.655z" vector-effect="non-scaling-stroke" fill="inherit" stroke="inherit" stroke-width="inherit"><title>Sandusky County</title></path><path id="county-39069" class="county feature" d="M676.407 236.795l.17 1.366.62 4.601-4.798.643-.614-4.892-1.558.197-.138-1.082z" vector-effect="non-scaling-stroke" fill="inherit" stroke="inherit" stroke-width="inherit"><title>Henry County</title></path><path id="county-39039" class="county feature" d="M672.4 243.405l-1.57.2-1.815-1.445-4.772.591-.042-.35-.347-2.892 6.373-.799 1.558-.197z" vector-effect="non-scaling-stroke" fill="inherit" stroke="inherit" stroke-width="inherit"><title>Defiance County</title></path><path id="county-39153" class="county feature" d="M711.048 234.54l1.013 6.696-.132 1.58-3.17.34-.776-1.296-.765-5.378 1.584-.255-.568-1.303z" vector-effect="non-scaling-stroke" fill="inherit" stroke="inherit" stroke-width="inherit"><title>Summit County</title></path><path id="county-39133" class="county feature" d="M716.386 233.71l.682 3.965.43 2.71-1.203.196-4.234.655-1.013-6.696.005-.001z" vector-effect="non-scaling-stroke" fill="inherit" stroke="inherit" stroke-width="inherit"><title>Portage County</title></path><path id="county-39077" class="county feature" d="M698.15 237.704l.666 4.046-1.378.206.238 1.344-4.045.524-1.454.184-.821-4.803-.105-.644z" vector-effect="non-scaling-stroke" fill="inherit" stroke="inherit" stroke-width="inherit"><title>Huron County</title></path><path id="county-39103" class="county feature" d="M707.218 236.482l.765 5.378-6.103.85-.781-1.25-.176-1.373 1.17-1.366 1.35-.202-.179-1.41 1.301-.188z" vector-effect="non-scaling-stroke" fill="inherit" stroke="inherit" stroke-width="inherit"><title>Medina County</title></path><path id="county-39147" class="county feature" d="M691.356 239.205l.821 4.803-3.913.601-4.258.604-.444-3.263-.202-1.629z" vector-effect="non-scaling-stroke" fill="inherit" stroke="inherit" stroke-width="inherit"><title>Seneca County</title></path><path id="county-39125" class="county feature" d="M670.83 243.606l.398 3.268-.796.105-5.602.693-.587-4.92 4.772-.592z" vector-effect="non-scaling-stroke" fill="inherit" stroke="inherit" stroke-width="inherit"><title>Paulding County</title></path><path id="county-39063" class="county feature" d="M683.562 241.95l.444 3.263-.894 3.419-5.067.626-.246-1.877-.602-4.619z" vector-effect="non-scaling-stroke" fill="inherit" stroke="inherit" stroke-width="inherit"><title>Hancock County</title></path><path id="county-39137" class="county feature" d="M677.197 242.762l.602 4.619-3.142.698.103.816-3.208.437-1.12-2.353.796-.105-.398-3.268 1.57-.2z" vector-effect="non-scaling-stroke" fill="inherit" stroke="inherit" stroke-width="inherit"><title>Putnam County</title></path><path id="county-39099" class="county feature" d="M723.69 236.621l.021.162.687 4.181-7.843 1.225-.26-1.608 1.204-.197-.431-2.71z" vector-effect="non-scaling-stroke" fill="inherit" stroke="inherit" stroke-width="inherit"><title>Mahoning County</title></path><path id="county-39005" class="county feature" d="M701.099 241.46l.781 1.25.926 6.024-1.31.204.28 1.851-1.592.483-.493-3.196-1.34-1.712-.675-3.064-.238-1.344 1.378-.206z" vector-effect="non-scaling-stroke" fill="inherit" stroke="inherit" stroke-width="inherit"><title>Ashland County</title></path><path id="county-39033" class="county feature" d="M693.63 243.824l.711 5.31-1.804.37-3.514.524-.76-5.419 3.914-.6z" vector-effect="non-scaling-stroke" fill="inherit" stroke="inherit" stroke-width="inherit"><title>Crawford County</title></path><path id="county-39139" class="county feature" d="M697.676 243.3l.674 3.064 1.34 1.712.494 3.196-3.975.666-.471-2.967-1.397.162-.71-5.309z" vector-effect="non-scaling-stroke" fill="inherit" stroke="inherit" stroke-width="inherit"><title>Richland County</title></path><path id="county-39175" class="county feature" d="M688.264 244.61l.76 5.418-4.255.879-1.09-.136-.567-2.14.894-3.418z" vector-effect="non-scaling-stroke" fill="inherit" stroke="inherit" stroke-width="inherit"><title>Wyandot County</title></path><path id="county-39169" class="county feature" d="M707.983 241.86l.776 1.297.663 4.59-6.616.987-.926-6.023z" vector-effect="non-scaling-stroke" fill="inherit" stroke="inherit" stroke-width="inherit"><title>Wayne County</title></path><path id="county-39161" class="county feature" d="M670.432 246.979l1.12 2.353-.69.902.306 2.449-.826.102-.099-.81-4.82.58-.44-3.635-.153-1.248z" vector-effect="non-scaling-stroke" fill="inherit" stroke="inherit" stroke-width="inherit"><title>Van Wert County</title></path><path id="county-39151" class="county feature" d="M716.295 240.58l.26 1.61.501 3.233-2.067.409-.906 1.512-4.551 1.025-.11-.622-.663-4.59 3.17-.34.132-1.58z" vector-effect="non-scaling-stroke" fill="inherit" stroke="inherit" stroke-width="inherit"><title>Stark County</title></path><path id="county-39029" class="county feature" d="M724.398 240.964l.157.892.645 3.957-1.895 1.382-2.741.12-1.147-2.25-2.36.358-.502-3.234z" vector-effect="non-scaling-stroke" fill="inherit" stroke="inherit" stroke-width="inherit"><title>Columbiana County</title></path><path id="county-39003" class="county feature" d="M677.799 247.38l.246 1.878.42 3.274-3.168.433-1.706-.601-2.423.319-.306-2.449.69-.902 3.208-.437-.103-.816z" vector-effect="non-scaling-stroke" fill="inherit" stroke="inherit" stroke-width="inherit"><title>Allen County</title></path><path id="county-39065" class="county feature" d="M683.112 248.632l.567 2.14 1.09.135.472 3.389-1.415.21-5.108.006-.254-1.98-.42-3.274z" vector-effect="non-scaling-stroke" fill="inherit" stroke="inherit" stroke-width="inherit"><title>Hardin County</title></path><path id="county-39019" class="county feature" d="M717.056 245.423l2.36-.358 1.148 2.25-.694.933.107 2.494-4.597.56-.308-2.462-.989-1.496.906-1.512z" vector-effect="non-scaling-stroke" fill="inherit" stroke="inherit" stroke-width="inherit"><title>Carroll County</title></path><path id="county-39107" class="county feature" d="M670.342 252.785l.755 6.096.306.045-.004.005-5.17.65-.465-4.107-.34-2.918 4.82-.582z" vector-effect="non-scaling-stroke" fill="inherit" stroke="inherit" stroke-width="inherit"><title>Mercer County</title></path><path id="county-39117" class="county feature" d="M694.341 249.133l1.397-.162.471 2.967.22 3.866-1.385.11-2.605.2-1.468-1.236.726-1.181-.388-2.884 1.228-1.31z" vector-effect="non-scaling-stroke" fill="inherit" stroke="inherit" stroke-width="inherit"><title>Morrow County</title></path><path id="county-39101" class="county feature" d="M692.537 249.503l-1.228 1.31.388 2.884-.726 1.181-3.207.244-.15-1.18-2.373.354-.472-3.389 4.254-.879z" vector-effect="non-scaling-stroke" fill="inherit" stroke="inherit" stroke-width="inherit"><title>Marion County</title></path><path id="county-39011" class="county feature" d="M678.464 252.532l.254 1.98-1.576 1.256-4.699.63.241 1.911-1.281.617-.306-.045-.755-6.096.826-.102 2.423-.32 1.706.602z" vector-effect="non-scaling-stroke" fill="inherit" stroke="inherit" stroke-width="inherit"><title>Auglaize County</title></path><path id="county-39075" class="county feature" d="M709.422 247.747l.11.622.25 3.597-.552.065-6.653.772-.8-2.014-.28-1.85 1.31-.205z" vector-effect="non-scaling-stroke" fill="inherit" stroke="inherit" stroke-width="inherit"><title>Holmes County</title></path><path id="county-39157" class="county feature" d="M714.083 247.344l.99 1.496.307 2.461.303 2.433-.618 1.797-3.996.48-.322-2.75-1.348.154-.17-1.384.554-.065-.251-3.597z" vector-effect="non-scaling-stroke" fill="inherit" stroke="inherit" stroke-width="inherit"><title>Tuscarawas County</title></path><path id="county-39081" class="county feature" d="M723.305 247.195l1.356 2.071-.246 1.318.636 1.32-.74 2.703-.206.575-2.523.363-.541-4.94-1.064.137-.107-2.494.694-.933z" vector-effect="non-scaling-stroke" fill="inherit" stroke="inherit" stroke-width="inherit"><title>Jefferson County</title></path><path id="county-39083" class="county feature" d="M702.577 252.803l.432 4.074-3.953.443-3.907-.04-.105-1.365 1.386-.11-.22-3.867 3.974-.666 1.593-.483z" vector-effect="non-scaling-stroke" fill="inherit" stroke="inherit" stroke-width="inherit"><title>Knox County</title></path><path id="county-39091" class="county feature" d="M678.718 254.512l5.108-.006.24 5.188-6.598.015-.326-3.941z" vector-effect="non-scaling-stroke" fill="inherit" stroke="inherit" stroke-width="inherit"><title>Logan County</title></path><path id="county-39159" class="county feature" d="M689.624 260.59l-.419.73-4.178.488-.156-2.146-.804.032-.24-5.188 1.414-.21 2.374-.353.149 1.18.508 3.724 1.065-.14z" vector-effect="non-scaling-stroke" fill="inherit" stroke="inherit" stroke-width="inherit"><title>Union County</title></path><path id="county-39149" class="county feature" d="M677.142 255.768l.326 3.941.097 1.689-5.777.469-.39-2.936.005-.005 1.281-.617-.24-1.911z" vector-effect="non-scaling-stroke" fill="inherit" stroke="inherit" stroke-width="inherit"><title>Shelby County</title></path><path id="county-39031" class="county feature" d="M709.23 252.031l.169 1.384 1.348-.154.322 2.75-1.109 1.486-6.629.707-.322-1.327-.432-4.074z" vector-effect="non-scaling-stroke" fill="inherit" stroke="inherit" stroke-width="inherit"><title>Coshocton County</title></path><path id="county-39041" class="county feature" d="M695.044 255.915l.105 1.366.245 2.84-5.77.47-.287-1.885-1.065.14-.508-3.724 3.207-.244 1.468 1.236z" vector-effect="non-scaling-stroke" fill="inherit" stroke="inherit" stroke-width="inherit"><title>Delaware County</title></path><path id="county-39067" class="county feature" d="M719.977 250.742l1.064-.137.541 4.94-4.82.562-1.697-.576.618-1.797-.303-2.433z" vector-effect="non-scaling-stroke" fill="inherit" stroke="inherit" stroke-width="inherit"><title>Harrison County</title></path><path id="county-39037" class="county feature" d="M671.399 258.931l.39 2.936.72 5.18-.827.123-4.609.581-.17-1.653-.574-5.719-.1-.798z" vector-effect="non-scaling-stroke" fill="inherit" stroke="inherit" stroke-width="inherit"><title>Darke County</title></path><path id="county-39089" class="county feature" d="M703.01 256.877l.321 1.327.425 4.064-.393.762-3.257.145-4.518.463-.194-3.516-.245-2.841 3.907.039z" vector-effect="non-scaling-stroke" fill="inherit" stroke="inherit" stroke-width="inherit"><title>Licking County</title></path><path id="county-39021" class="county feature" d="M684.067 259.694l.804-.032.156 2.146.073 1.916-7.382.384-.153-2.71-.097-1.689z" vector-effect="non-scaling-stroke" fill="inherit" stroke="inherit" stroke-width="inherit"><title>Champaign County</title></path><path id="county-39059" class="county feature" d="M717.286 260.2l-2.127.341-.936 1.216-1.615.188.142 1.097-1.609.176-.735-1.59-.446-4.13 1.11-1.488 3.995-.479 1.698.576z" vector-effect="non-scaling-stroke" fill="inherit" stroke="inherit" stroke-width="inherit"><title>Guernsey County</title></path><path id="county-39109" class="county feature" d="M677.565 261.398l.153 2.71.173 3.025-1.609-.621-3.773.534-.72-5.179z" vector-effect="non-scaling-stroke" fill="inherit" stroke="inherit" stroke-width="inherit"><title>Miami County</title></path><path id="county-39013" class="county feature" d="M721.582 255.545l2.523-.363-.063 2.372.097 2.285-.783 1.353-5.872.568-.198-1.56-.523-4.093z" vector-effect="non-scaling-stroke" fill="inherit" stroke="inherit" stroke-width="inherit"><title>Belmont County</title></path><path id="county-39119" class="county feature" d="M709.96 257.497l.446 4.13.735 1.591.201 1.63-5.375.51-1.454-.735-.13-1.666-1.02.073.393-.762-.425-4.064z" vector-effect="non-scaling-stroke" fill="inherit" stroke="inherit" stroke-width="inherit"><title>Muskingum County</title></path><path id="county-39049" class="county feature" d="M695.394 260.122l.194 3.516-.208 2.782-5.954.484-.701-3.561.48-2.023.42-.73z" vector-effect="non-scaling-stroke" fill="inherit" stroke="inherit" stroke-width="inherit"><title>Franklin County</title></path><path id="county-39097" class="county feature" d="M689.426 266.904l.174 2.203-5.71.35-.051-1.059.83-.026.431-4.648-.073-1.916 4.178-.488-.48 2.023z" vector-effect="non-scaling-stroke" fill="inherit" stroke="inherit" stroke-width="inherit"><title>Madison County</title></path><path id="county-39023" class="county feature" d="M685.1 263.724l-.43 4.648-.831.026-2.661-.599-3.259-.113-.028-.553-.173-3.025z" vector-effect="non-scaling-stroke" fill="inherit" stroke="inherit" stroke-width="inherit"><title>Clark County</title></path><path id="county-39121" class="county feature" d="M717.286 260.2l.198 1.56-1.078.137.395 3.03.8 1.814-4.245 1.015-2.014-2.909-.2-1.629 1.608-.176-.142-1.097 1.615-.188.936-1.216z" vector-effect="non-scaling-stroke" fill="inherit" stroke="inherit" stroke-width="inherit"><title>Noble County</title></path><path id="county-39045" class="county feature" d="M695.588 263.638l4.518-.463.123 1.756 1.056-.072.803 3.275-1.627.11.05 1.11-1.727.136-1.47 1.237-1.59.079-.344-4.386z" vector-effect="non-scaling-stroke" fill="inherit" stroke="inherit" stroke-width="inherit"><title>Fairfield County</title></path><path id="county-39127" class="county feature" d="M705.967 265.358l.866.754.15 3.29-1.59.127-3.225-.298-.08-1.097-.803-3.275-1.056.072-.123-1.756 3.257-.145 1.02-.073.13 1.666z" vector-effect="non-scaling-stroke" fill="inherit" stroke="inherit" stroke-width="inherit"><title>Perry County</title></path><path id="county-39113" class="county feature" d="M677.89 267.133l.03.553-.523.298.313 4.907-3.582.226-1.613.168-.833-6.115.827-.124 3.773-.534z" vector-effect="non-scaling-stroke" fill="inherit" stroke="inherit" stroke-width="inherit"><title>Montgomery County</title></path><path id="county-39135" class="county feature" d="M671.682 267.17l.833 6.115.055.416-4.754.593-.347-2.977-.396-3.566z" vector-effect="non-scaling-stroke" fill="inherit" stroke="inherit" stroke-width="inherit"><title>Preble County</title></path><path id="county-39111" class="county feature" d="M723.356 261.192l.238 2.409-1.22 2.367-1.137 1.457-.065-.604-3.571-.08-.8-1.813-.395-3.031 1.078-.137z" vector-effect="non-scaling-stroke" fill="inherit" stroke="inherit" stroke-width="inherit"><title>Monroe County</title></path><path id="county-39057" class="county feature" d="M683.839 268.398l.05 1.06.169 3.145-4.387.206-1.96.082-.314-4.907.522-.298 3.259.113z" vector-effect="non-scaling-stroke" fill="inherit" stroke="inherit" stroke-width="inherit"><title>Greene County</title></path><path id="county-39129" class="county feature" d="M695.38 266.42l.343 4.386 1.592-.079.094 1.627-3.67.287.134-.525-4.025.366-.248-3.375-.174-2.203z" vector-effect="non-scaling-stroke" fill="inherit" stroke="inherit" stroke-width="inherit"><title>Pickaway County</title></path><path id="county-39115" class="county feature" d="M711.342 264.847l2.014 2.909-1.765.374.365 1.863-1.835.86-3.004.259-.133-1.71-.151-3.29-.866-.754z" vector-effect="non-scaling-stroke" fill="inherit" stroke="inherit" stroke-width="inherit"><title>Morgan County</title></path><path id="county-39047" class="county feature" d="M689.6 269.107l.248 3.375-1.155 2.797-3.092.384-.204-3.127-1.34.067-.168-3.145z" vector-effect="non-scaling-stroke" fill="inherit" stroke="inherit" stroke-width="inherit"><title>Fayette County</title></path><path id="county-39073" class="county feature" d="M705.393 269.529l.13 1.699-1.616.11.108 1.675-3.21.241.024.498-3.27.488-.15-1.886-.094-1.627 1.469-1.237 1.727-.136-.05-1.11 1.627-.11.08 1.097z" vector-effect="non-scaling-stroke" fill="inherit" stroke="inherit" stroke-width="inherit"><title>Hocking County</title></path><path id="county-39167" class="county feature" d="M717.6 266.74l3.572.081.065.604-.923 1.707-3.185 2.712-1.182-1.096-1.405 1.469-.058 1.49-1.506.112-.508 1.146-.1-1.007-2.001-.624-.248-2.481 1.835-.86-.365-1.863 1.765-.374z" vector-effect="non-scaling-stroke" fill="inherit" stroke="inherit" stroke-width="inherit"><title>Washington County</title></path><path id="county-39017" class="county feature" d="M674.128 273.117l.56.656.298 4.883-6.656.558-.423-4.065-.091-.855 4.754-.593-.055-.416z" vector-effect="non-scaling-stroke" fill="inherit" stroke="inherit" stroke-width="inherit"><title>Butler County</title></path><path id="county-39165" class="county feature" d="M677.71 272.89l1.96-.08.325 5.927-3.628.157-1.381-.238-.297-4.883-.56-.656z" vector-effect="non-scaling-stroke" fill="inherit" stroke="inherit" stroke-width="inherit"><title>Warren County</title></path><path id="county-39027" class="county feature" d="M682.017 278.626l-1.78.1-.242.011-.324-5.928 4.387-.206 1.339-.067.204 3.127-2.473 2.53z" vector-effect="non-scaling-stroke" fill="inherit" stroke="inherit" stroke-width="inherit"><title>Clinton County</title></path><path id="county-39009" class="county feature" d="M710.121 270.853l.248 2.48 2 .625.101 1.007-.342.73-7.323.641-.79-3.323-.108-1.674 1.616-.111-.13-1.7 1.59-.125.134 1.709z" vector-effect="non-scaling-stroke" fill="inherit" stroke="inherit" stroke-width="inherit"><title>Athens County</title></path><path id="county-39141" class="county feature" d="M697.409 272.354l.15 1.886.222 3.02-.224.776-8.14.567-.724-3.324 1.155-2.797 4.025-.366-.135.525z" vector-effect="non-scaling-stroke" fill="inherit" stroke="inherit" stroke-width="inherit"><title>Ross County</title></path><path id="county-39163" class="county feature" d="M704.015 273.013l.79 3.323-.544.046.251 3.351-1.623.092-.122-1.937-1.7-.576-3.286-.052-.221-3.02 3.27-.488-.025-.498z" vector-effect="non-scaling-stroke" fill="inherit" stroke="inherit" stroke-width="inherit"><title>Vinton County</title></path><path id="county-39071" class="county feature" d="M688.693 275.28l.724 3.323-.099 2.72-4.009 1.19-2.841.352-.45-4.239 1.11-.433 2.473-2.53z" vector-effect="non-scaling-stroke" fill="inherit" stroke="inherit" stroke-width="inherit"><title>Highland County</title></path><path id="county-39061" class="county feature" d="M674.986 278.656l1.38.238-.275 4.768-2.83-1.048-1.625.59-1.883-1.163-.99.914-.433-3.741z" vector-effect="non-scaling-stroke" fill="inherit" stroke="inherit" stroke-width="inherit"><title>Hamilton County</title></path><path id="county-39025" class="county feature" d="M680.485 287.87l-2.672-.731-.131-.884-1.591-2.593.276-4.768 3.628-.157.242-.012z" vector-effect="non-scaling-stroke" fill="inherit" stroke="inherit" stroke-width="inherit"><title>Clermont County</title></path><path id="county-39015" class="county feature" d="M685.31 282.514l.47 7.22-3.161-2.073-2.134.208-.248-9.144 1.78-.099.451 4.24z" vector-effect="non-scaling-stroke" fill="inherit" stroke="inherit" stroke-width="inherit"><title>Brown County</title></path><path id="county-39079" class="county feature" d="M702.89 279.825l.229 3.597-1.72.247-1.071.064-1.593.114-.908-1.646-.27-4.165.224-.776 3.286.052 1.7.576z" vector-effect="non-scaling-stroke" fill="inherit" stroke="inherit" stroke-width="inherit"><title>Jackson County</title></path><path id="county-39105" class="county feature" d="M710.816 281.648l-.06-1.104-1.689-1.49-1.19 1.438-.066-.766-3.299.007-.251-3.351.544-.046 7.323-.641.357 1.537-.013 3.299z" vector-effect="non-scaling-stroke" fill="inherit" stroke="inherit" stroke-width="inherit"><title>Meigs County</title></path><path id="county-39131" class="county feature" d="M697.827 282.2l-5.8.568-.98-.927-1.729-.517.1-2.721 8.139-.567z" vector-effect="non-scaling-stroke" fill="inherit" stroke="inherit" stroke-width="inherit"><title>Pike County</title></path><path id="county-39001" class="county feature" d="M691.047 281.841l1.052 7.42-3.744-1.056-1.709 1.434-.866.095-.47-7.22 4.008-1.19z" vector-effect="non-scaling-stroke" fill="inherit" stroke="inherit" stroke-width="inherit"><title>Adams County</title></path><path id="county-39053" class="county feature" d="M707.877 280.492l-.303 2.412-.94 1.081 1.137 3.335-.54.325-1.007.317-1.075.11-.143-1.712-1.7.123-.398-1.653-1.432.074-.077-1.235 1.72-.247-.23-3.597 1.623-.092 3.3-.007z" vector-effect="non-scaling-stroke" fill="inherit" stroke="inherit" stroke-width="inherit"><title>Gallia County</title></path><path id="county-39145" class="county feature" d="M697.827 282.2l.908 1.647 1.593-.114-.63 4.887-1.01.643-1.509-3.281-1.968.815-1.524 2.245-1.588.218-1.052-7.419.98.927z" vector-effect="non-scaling-stroke" fill="inherit" stroke="inherit" stroke-width="inherit"><title>Scioto County</title></path><path id="county-39087" class="county feature" d="M706.224 287.962l-.128 2.552-2.533 1.09-1.33-.001-1.22-1.428-2.325-.912 1.01-.643.63-4.887 1.071-.064.077 1.235 1.432-.074.399 1.653 1.7-.123.142 1.711z" vector-effect="non-scaling-stroke" fill="inherit" stroke="inherit" stroke-width="inherit"><title>Lawrence County</title></path></g><path id="counties-mesh" class="counties mesh" d="M721.109 220.948l.39 2.376 1.068 6.496-6.636 1.03-.636-3.965-.394-2.571 6.208-3.366m-5.814 5.937l-1.346.229.228 1.351-2.645.427.19 1.322-1.302.206-1.514-.94 2.419-2.882 3.576-2.284m-44.812 13.314l.138 1.082-6.373.799-.24-1.944-.387-3.1 5.566-.854.535-.081 6.557-1.079 1.602-.273 3.824-.664.03-.005.146-.026.079-.011.127-.023 4.244 1.512-3.425.543-2.115.313-1.648 2.524-2.172 1.82-.17-1.366-.522-4.344m10.052.51l2.956 1.56 1.704-1.518 1.67 1.378-4.167 1.432-.246.038-.074.011-3.8.51-1.158-.655-.31-2.213m-6.105 3.291l-6.318.833-.6-.465-.696-3.552m47.138-2.76l.455 2.859-5.333.829-.633-4.119m.633 4.119h-.005l-2.814.385.568 1.303-1.584.255-2.653.44-.196-1.409-1.3.18-.386-2.865 3.119-.13 3.104-3.218m-26.084 6.237l.538 4.604.202 1.629-6.365.812-.62-4.601m-4.178 5.244l-1.569.2-1.815-1.445-4.772.591-.042-.35-.347-2.892m40.711-2.588l-1.3.188.178 1.41-1.35.202-1.17 1.366.176 1.374-2.283.29-.667-4.047m-.465-2.66l.465 2.66-6.898.857-.452-2.595-.743.092 2.683-1.009 2.938 1.143 2.007-1.147 4.373-2.329.626.112m19.884-3.008l.031.194 1.091 6.607-6.621 1.054-.682-3.965m-28.286 2.103l-.246.038m-.074.011l2.276.196m1.195 2.503l.105.644-7.996 1.116m.646 4.892l-.894 3.419-5.067.626-.246-1.877-.602-4.619-4.798.643-.614-4.892-1.558.197m40.821-4.17l1.013 6.696-.132 1.58-3.17.34-.776-1.296-.765-5.378m9.85 1.193l.43 2.71-1.203.196-4.234.655m-13.245.514l-1.378.206.238 1.344-4.045.524-1.454.184-.821-4.803m16.627 2.655l-6.103.85-.781-1.25m-29.547 7.872l-.69.902.306 2.449-.826.102-.099-.81-4.82.58-.44-3.635-.153-1.248-.587-4.92m27.934 1.256l-3.913.601-4.258.604-.444-3.263m-12.732 1.656l.398 3.268-.796.105-5.602.693m12.969-.291l-3.142.698.103.816-3.208.437-1.12-2.353m53.257-10.358l.022.162.687 4.181-7.843 1.225-.26-1.608m-14.415 2.13l.926 6.023-1.31.204.28 1.851-1.592.483-.493-3.196-1.34-1.712-.675-3.064m-4.045.524l.71 5.31-1.804.37-3.514.524-.76-5.419m11.921 6.663l-3.975.666-.471-2.967-1.397.162m-5.318.895l-4.254.879-1.09-.136-.567-2.14m25.647-5.474l.663 4.59-6.616.987m13.749-6.545l.501 3.234-2.067.409-.906 1.512-4.551 1.025-.11-.622m14.976-6.783l.157.892.645 3.957-1.895 1.382-2.741.12-1.147-2.25-2.36.358m-46.715 7.362l.755 6.096.306.045-.004.005-5.17.65-.465-4.107-.34-2.918m12.62-3.298l.42 3.274-3.167.433-1.706-.601-2.423.319m13.601-1.776l.472 3.389-1.415.21-5.108.006-.254-1.98m42.1-5.217l-.694.933.107 2.494-4.597.56-.308-2.462-.989-1.496m-17.874 4.594l.22 3.866-1.385.11-2.605.2-1.468-1.236.726-1.181-.388-2.884 1.228-1.31m-1.566 5.375l-3.207.244-.15-1.18-2.373.354m-6.523.216l-1.576 1.256-4.699.63.241 1.911-1.281.617m38.129-10.557l.25 3.597-.552.065-6.653.772-.8-2.014m13.603.512l.303 2.433-.618 1.797-3.996.48-.322-2.75-1.348.154-.17-1.384m14.076-4.836l1.356 2.071-.246 1.318.636 1.32-.74 2.703-.206.575-2.523.363-.541-4.94-1.064.137m-17.4 2.061l.432 4.074-3.953.443-3.907-.04-.105-1.365m-23.256 5.952l.721 5.18-.827.123-4.609.581-.17-1.653-.574-5.719-.1-.798m17.597-5.075l.24 5.188-6.598.015-.326-3.941m10.622-.646l.508 3.725 1.065-.14.287 1.884-.419.729-4.178.488-.156-2.146-.804.032m-6.599.015l.097 1.689-5.777.469-.39-2.936m39.671-2.92l-1.109 1.486-6.629.707-.322-1.327m-7.86.404l.245 2.84-5.77.47m31.958-5.046l-4.82.562-1.697-.576m-11.734 2.673l.425 4.064-.393.762-3.257.145-4.518.463-.194-3.516m-10.367 1.686l.073 1.916-7.382.384-.153-2.71m39.198-5.29l.523 4.092-2.127.341-.936 1.216-1.615.188.142 1.097-1.609.176-.735-1.59-.446-4.13m-32.242 6.61l.173 3.025-1.609-.621-3.773.534m51.596-11.864l-.063 2.372.097 2.285-.783 1.353-5.872.568-.198-1.56m-6.145 3.018l.201 1.63-5.375.51-1.454-.735-.13-1.666-1.02.073m-7.775.608l-.208 2.782-5.954.484-.701-3.561.48-2.023m.221 5.584l.174 2.203-5.71.35-.051-1.059.83-.026.431-4.648m-1.261 4.674l-2.661-.599-3.259-.113-.028-.553m-5.376 6.152l.055.416-4.754.593-.347-2.977-.396-3.566m50.41-5.99l-1.077.136.395 3.03.8 1.814-4.245 1.015-2.014-2.909m-11.236-1.672l.123 1.756 1.056-.072.803 3.275-1.627.11.05 1.11-1.727.136-1.47 1.237-1.59.079-.344-4.386m10.587-1.062l.866.754.15 3.29-1.59.127-3.225-.298-.08-1.097m-24.169-.448l-.522.298.313 4.907-3.582.226-1.613.168-.833-6.115m51.674-5.978l.238 2.409-1.22 2.367-1.137 1.457-.065-.604-3.571-.08m-33.712 2.717l.169 3.145-4.387.206-1.96.082m19.604-2.164l.094 1.627-3.67.287.134-.525-4.025.366-.248-3.375m23.756-1.351l-1.765.374.365 1.863-1.835.86-3.004.259-.133-1.71m-32.856 3.715l.56.656.298 4.883-6.656.558-.423-4.065-.091-.855m22.032-1.812l-1.155 2.797-3.092.384-.204-3.127-1.34.067m21.336-3.074l.13 1.699-1.616.11.108 1.675-3.21.241.024.498-3.27.488-.15-1.886m23.828-4.93l-.923 1.708-3.185 2.712-1.182-1.096-1.405 1.469-.058 1.49-1.506.112-.508 1.146-.1-1.007-2.001-.624-.248-2.481m-30.45 1.956l.324 5.928-3.628.157-1.381-.238m10.615-2.993l-2.473 2.53-1.11.433-1.781.1-.242.011m32.475-3.772l-.342.73-7.323.641-.79-3.323m-6.455 1.227l.22 3.02-.223.776-8.14.567-.724-3.324m16.112 1.057l-.544.046.251 3.351-1.623.092-.122-1.937-1.7-.576-3.286-.052m-8.364 1.343l-.099 2.72-4.009 1.19-2.841.352-.45-4.239m-5.651.268l-.276 4.768-2.83-1.048-1.625.59-1.883-1.163-.99.914-.433-3.741m11.907-.489l.248 9.144-2.672-.73-.131-.884-1.591-2.593m9.218-1.148l.471 7.22-3.161-2.073-2.134.208m22.404-8.044l.23 3.597-1.72.247-1.071.064-1.593.114-.908-1.646-.27-4.165m14.57-2.341l.358 1.537-.013 3.299-1.656 1.117-.06-1.104-1.689-1.49-1.19 1.438-.066-.766-3.299.007m-6.685 2.468l-5.8.567-.98-.927-1.729-.517m1.73.517l1.051 7.42-3.744-1.056-1.709 1.434-.866.095m22.097-9.242l-.303 2.412-.94 1.081 1.137 3.335-.54.325-1.007.317-1.075.11-.143-1.712-1.7.123-.398-1.653-1.432.074-.077-1.235m-1.071.064l-.63 4.887-1.01.643-1.509-3.281-1.968.815-1.524 2.245-1.588.218m14.125-1.298l-.128 2.552-2.533 1.09-1.33-.001-1.22-1.428-2.325-.912" vector-effect="non-scaling-stroke" fill="inherit" stroke="inherit" stroke-width="inherit"/></svg>