<?xml version="1.0" encoding="utf-8"?>
<svg version="1.1" id="Layer_1" xmlns="http://www.w3.org/2000/svg" xmlns:xlink="http://www.w3.org/1999/xlink" x="0px" y="0px"
	 viewBox="0 0 11 24.1" style="enable-background:new 0 0 11 24.1;" xml:space="preserve">
<style type="text/css">
	.st0{fill:#1478A6;}
</style>
<title>icon-chevron-bk</title>
<path class="st0" d="M10.7,5c0,0.2-0.1,0.3-0.2,0.4l-7,7l7,7c0.1,0.1,0.2,0.3,0.2,0.4s-0.1,0.3-0.2,0.4l-0.9,0.9
	c-0.1,0.1-0.3,0.2-0.4,0.2s-0.3-0.1-0.4-0.2l-8.3-8.3c-0.1-0.1-0.2-0.3-0.2-0.4c0-0.2,0.1-0.3,0.2-0.4l8.3-8.3
	c0.1-0.1,0.3-0.2,0.4-0.2s0.3,0.1,0.4,0.2l0.9,0.9C10.6,4.7,10.7,4.8,10.7,5L10.7,5z"/>
</svg>
