<?xml version="1.0" encoding="utf-8"?>
<svg version="1.1" id="Layer_1" xmlns:sketch="http://www.bohemiancoding.com/sketch/ns"
	 xmlns="http://www.w3.org/2000/svg" xmlns:xlink="http://www.w3.org/1999/xlink" x="0px" y="0px" viewBox="0 0 66 49"
	 style="enable-background:new 0 0 66 49;" xml:space="preserve">
<style type="text/css">
	.st0{fill:#1478A6;}
</style>
<title>Icon: Coal</title>
<desc>Created with Sketch.</desc>
<g id="Resources-to-Revenue" sketch:type="MSPage">
	<g id="_x31_.0-Resources-to-Revenue-Landing" transform="translate(-270.000000, -731.000000)" sketch:type="MSArtboardGroup">
		<g id="panel-6-copy" transform="translate(100.000000, 618.000000)" sketch:type="MSLayerGroup">
			<g id="Icon:-Coal" transform="translate(170.000000, 113.000000)" sketch:type="MSShapeGroup">
				<path id="Fill-1" class="st0" d="M24.1,40.2c-2.4,0-4.4,2-4.4,4.4s2,4.4,4.4,4.4c2.4,0,4.4-2,4.4-4.4S26.5,40.2,24.1,40.2
					L24.1,40.2z M24.1,46.4c-1,0-1.8-0.8-1.8-1.9c0-1,0.8-1.9,1.8-1.9c1,0,1.8,0.8,1.8,1.9C25.9,45.6,25.1,46.4,24.1,46.4L24.1,46.4
					z"/>
				<path id="Fill-2" class="st0" d="M42,40.2c-2.4,0-4.4,2-4.4,4.4s2,4.4,4.4,4.4c2.4,0,4.4-2,4.4-4.4S44.4,40.2,42,40.2L42,40.2z
					 M42,46.4c-1,0-1.8-0.8-1.8-1.9c0-1,0.8-1.9,1.8-1.9c1,0,1.8,0.8,1.8,1.9C43.9,45.6,43,46.4,42,46.4L42,46.4z"/>
				<path id="Fill-3" class="st0" d="M64.8,12c-0.8-1.2-2.3-1.8-4-1.8H57c-1.5-1.3-2.6-2.2-4.1-3.9c-1.1-1.3-4.2-1-5.7-1.8
					C42.1,2,38.8-0.9,33,0.7c-2.3,0.6-3.8,1.2-6.2,0.9c-3-0.3-6.4,0.3-8.6,2.8c-0.5,0.6-7.8,4.5-7.5,5.8H5.2c-1.7,0-3.2,0.6-4,1.8
					c-0.8,1.2-0.9,2.6-0.4,4.1L10,40.7c1,2.7,4.2,4.8,7.2,4.8h0.1l0-3.3h0c-1.6,0-3.5-1.3-4-2.7L3.9,14.8c-0.1-0.3-0.2-0.6,0-1
					c0.2-0.3,0.7-0.4,1.3-0.4h55.6c0.6,0,1.1,0.1,1.3,0.4c0.2,0.3,0.1,0.7,0,1l-9.2,24.6c-0.5,1.4-2.4,2.7-4.1,2.7l0,3.4h0.1
					c3,0,6.2-2.2,7.2-4.9l9.2-24.6C65.7,14.6,65.6,13.1,64.8,12"/>
				<path id="Fill-4" class="st0" d="M34,42.9h-2.5c-0.9,0-1.7,0.7-1.7,1.6c0,0.9,0.7,1.6,1.7,1.6H34c0.9,0,1.7-0.7,1.7-1.6
					C35.7,43.6,35,42.9,34,42.9"/>
			</g>
		</g>
	</g>
</g>
</svg>
