<?xml version="1.0" encoding="utf-8"?>
<!-- Generator: Adobe Illustrator 21.0.2, SVG Export Plug-In . SVG Version: 6.00 Build 0)  -->
<svg version="1.1" id="Layer_1" xmlns="http://www.w3.org/2000/svg" xmlns:xlink="http://www.w3.org/1999/xlink" x="0px" y="0px"
	 viewBox="0 0 65.1 51.6" style="enable-background:new 0 0 65.1 51.6;" xml:space="preserve">
<style type="text/css">
	.st0{fill:#1478A6;}
</style>
<title>coal-f</title>
<g id="Resources-to-Revenue">
	<g id="_1.0-Resources-to-Revenue-Landing">
		<g id="panel-6-copy">
			<g id="Icon:-Coal">
				<path id="Fill-1" class="st0" d="M23.6,42.6c-2.4,0-4.4,1.9-4.4,4.4s1.9,4.4,4.4,4.4c2.4,0,4.4-1.9,4.4-4.4c0,0,0,0,0,0
					C27.9,44.5,26,42.6,23.6,42.6C23.6,42.6,23.6,42.6,23.6,42.6z M23.6,48.8c-1,0-1.9-0.8-1.9-1.8c0-1,0.8-1.9,1.8-1.9
					c1,0,1.9,0.8,1.9,1.8c0,0,0,0,0,0C25.4,48,24.6,48.8,23.6,48.8C23.6,48.8,23.6,48.8,23.6,48.8z"/>
				<path id="Fill-2" class="st0" d="M41.5,42.6c-2.4,0-4.4,1.9-4.4,4.4c0,2.4,1.9,4.4,4.4,4.4c2.4,0,4.4-1.9,4.4-4.4c0,0,0,0,0,0
					C45.9,44.5,43.9,42.6,41.5,42.6C41.5,42.6,41.5,42.6,41.5,42.6z M41.5,48.8c-1,0-1.9-0.8-1.9-1.8s0.8-1.9,1.8-1.9
					c1,0,1.9,0.8,1.9,1.8c0,0,0,0,0,0C43.4,48,42.5,48.8,41.5,48.8z"/>
				<path id="Fill-3" class="st0" d="M64.3,14.4c-0.9-1.2-2.5-1.9-4-1.8h-3.8c-1.5-1.2-2.8-2.5-4.1-3.9c-1.1-1.3-4.2-1-5.7-1.8
					c-5.1-2.6-8.4-5.4-14.2-3.9c-2.3,0.6-3.8,1.2-6.1,0.9c-3-0.3-6.4,0.3-8.6,2.8c-0.5,0.6-7.8,4.5-7.5,5.8H4.7
					c-1.5-0.1-3.1,0.6-4,1.8c-0.8,1.2-0.9,2.7-0.4,4l9.2,24.7c1.2,2.9,4,4.8,7.2,4.8h0.1v-3.3l0,0c-1.7-0.1-3.3-1.2-4-2.7L3.5,17.2
					c-0.2-0.3-0.2-0.7,0-1c0.2-0.3,0.7-0.4,1.3-0.4h55.6c0.6,0,1.1,0.1,1.3,0.4c0.2,0.3,0.2,0.7,0,1l-9.2,24.7
					c-0.7,1.6-2.3,2.6-4.1,2.7v3.4h0.1c3.1-0.1,5.9-2,7.2-4.9l9.2-24.6C65.3,17.1,65.1,15.6,64.3,14.4"/>
				<path id="Fill-4" class="st0" d="M33.5,45.3h-2.5c-0.9-0.1-1.7,0.6-1.8,1.5s0.6,1.7,1.5,1.8c0.1,0,0.2,0,0.3,0h2.5
					c0.9,0.1,1.7-0.6,1.8-1.5s-0.6-1.7-1.5-1.8C33.7,45.3,33.6,45.3,33.5,45.3"/>
			</g>
		</g>
	</g>
</g>
</svg>
