<?xml version="1.0" encoding="UTF-8" standalone="no"?>
<svg width="66px" height="49px" viewBox="0 0 66 49" version="1.1" xmlns="http://www.w3.org/2000/svg" xmlns:xlink="http://www.w3.org/1999/xlink" xmlns:sketch="http://www.bohemiancoding.com/sketch/ns">
    <!-- Generator: Sketch 3.3.2 (12043) - http://www.bohemiancoding.com/sketch -->
    <title>Icon: Coal</title>
    <desc>Created with Sketch.</desc>
    <defs></defs>
    <g id="Resources-to-Revenue" stroke="none" stroke-width="1" fill="none" fill-rule="evenodd" sketch:type="MSPage">
        <g id="1.0-Resources-to-Revenue-Landing" sketch:type="MSArtboardGroup" transform="translate(-270.000000, -731.000000)" fill="#ACB625">
            <g id="panel-6-copy" sketch:type="MSLayerGroup" transform="translate(100.000000, 618.000000)">
                <g id="Icon:-Coal" transform="translate(170.000000, 113.000000)" sketch:type="MSShapeGroup">
                    <path d="M24.0534082,40.1757097 C21.6457551,40.1757097 19.6949388,42.1379677 19.6949388,44.5597419 C19.6949388,46.9815161 21.6457551,48.9437742 24.0534082,48.9437742 C26.4585918,48.9437742 28.4118776,46.9815161 28.4118776,44.5597419 C28.4118776,42.1379677 26.4585918,40.1757097 24.0534082,40.1757097 L24.0534082,40.1757097 Z M24.0534082,46.4201613 C23.0310816,46.4201613 22.2038367,45.5880645 22.2038367,44.5597419 C22.2038367,43.5339032 23.0310816,42.7018065 24.0534082,42.7018065 C25.0732653,42.7018065 25.9005102,43.5339032 25.9005102,44.5597419 C25.9005102,45.5880645 25.0732653,46.4201613 24.0534082,46.4201613 L24.0534082,46.4201613 Z" id="Fill-1"></path>
                    <path d="M42.0058571,40.1757097 C39.5982041,40.1757097 37.6449184,42.1379677 37.6449184,44.5597419 C37.6449184,46.9815161 39.5982041,48.9437742 42.0058571,48.9437742 C44.4110408,48.9437742 46.3643265,46.9815161 46.3643265,44.5597419 C46.3643265,42.1379677 44.4135102,40.1757097 42.0058571,40.1757097 L42.0058571,40.1757097 Z M42.0058571,46.4201613 C40.986,46.4201613 40.1562857,45.5880645 40.1562857,44.5597419 C40.1562857,43.5339032 40.9835306,42.7018065 42.0058571,42.7018065 C43.0257143,42.7018065 43.8554286,43.5339032 43.8554286,44.5597419 C43.8529592,45.5880645 43.0257143,46.4201613 42.0058571,46.4201613 L42.0058571,46.4201613 Z" id="Fill-2"></path>
                    <path d="M64.8131224,11.9713548 C63.9834082,10.7517742 62.524,10.1904194 60.7904898,10.1904194 L56.9530612,10.1904194 C55.4763673,8.88141935 54.3058776,8.02945161 52.8859796,6.28577419 C51.8167347,4.97429032 48.7349388,5.31706452 47.1446531,4.51229032 C42.1392041,1.97625806 38.7684898,-0.870258065 33.032102,0.664774194 C30.7207551,1.28325806 29.2736939,1.84212903 26.8783878,1.59125806 C23.9052449,1.28077419 20.4851429,1.90174194 18.2947959,4.3856129 C17.7688163,4.98174194 10.4915306,8.88141935 10.7878571,10.1904194 L5.19222449,10.1904194 C3.476,10.1904194 2.01659184,10.7517742 1.18687755,11.9713548 C0.399142857,13.1288387 0.263326531,14.5520968 0.814,16.0250323 L10.0346939,40.6873871 C11.0496122,43.3972903 14.1882041,45.5185161 17.2033265,45.5185161 L17.27,45.5185161 L17.2354286,42.2472581 L17.2008571,42.2472581 C15.5710612,42.2472581 13.6918571,40.9183871 13.1634082,39.5075484 L3.94271429,14.8104194 C3.84887755,14.5570645 3.72293878,14.1795161 3.94765306,13.8491613 C4.14767347,13.5535806 4.62920408,13.4616774 5.21197959,13.4616774 L60.7707347,13.4616774 C61.3732653,13.4616774 61.8523265,13.5287419 62.0548163,13.8243226 C62.2770612,14.1521935 62.1511224,14.5645161 62.0572857,14.817871 L52.8341224,39.4330323 C52.3032041,40.8538065 50.4314082,42.1205806 48.7645714,42.1106452 L48.73,45.5185161 L48.7966735,45.5185161 C51.8117959,45.5185161 54.9503878,43.3550645 55.9628367,40.6476452 L65.186,16.0548387 C65.7366735,14.5843871 65.6008571,13.1288387 64.8131224,11.9713548" id="Fill-3"></path>
                    <path d="M34.0396122,42.9005161 L31.5331837,42.9005161 C30.6096327,42.9005161 29.8614082,43.6084194 29.8614082,44.5373871 C29.8614082,45.4663548 30.6096327,46.1717742 31.5331837,46.1717742 L34.0396122,46.1717742 C34.9631633,46.1717742 35.7113878,45.4663548 35.7113878,44.5373871 C35.7113878,43.6084194 34.9631633,42.9005161 34.0396122,42.9005161" id="Fill-4"></path>
                </g>
            </g>
        </g>
    </g>
</svg>