<svg id="Layer_1" data-name="Layer 1" xmlns="http://www.w3.org/2000/svg" viewBox="0 0 32 28.57"><defs><style>.cls-1{fill:#fff;}</style></defs><title>download</title><path class="cls-1" d="M15.44,30.28a1,1,0,0,1-1.07-1.07V14.56a1.07,1.07,0,1,1,2.14,0V29.21a1.07,1.07,0,0,1-1.07,1.07h0m0,0a1,1,0,0,1-.75-.32l-4-4.06a1.06,1.06,0,0,1,1.5-1.5l3.21,3.32,3.21-3.32a1.06,1.06,0,0,1,1.5,1.5l-4,4.06a.83.83,0,0,1-.75.32h0m9.41-9h-4a1.07,1.07,0,1,1,0-2.14h4a4.88,4.88,0,0,0,5-4.6,4.34,4.34,0,0,0-1.5-3.21,5.07,5.07,0,0,0-4.06-1.28,1,1,0,0,1-1.18-.75A5,5,0,0,0,17.37,5.9a1.15,1.15,0,0,1-.86-.21A6.94,6.94,0,0,0,9.66,4.4,7,7,0,0,0,5.07,10c0,.32-.21.53-.53.75a4.43,4.43,0,0,0-2.25,5,4.6,4.6,0,0,0,4.6,3.42H10a1.07,1.07,0,0,1,0,2.14H6.88A6.9,6.9,0,0,1,.25,16.38,6.52,6.52,0,0,1,3,9.21a9.7,9.7,0,0,1,5.88-7,9.09,9.09,0,0,1,8.56,1.28,7.14,7.14,0,0,1,7.38,4.28,7,7,0,0,1,4.92,1.92A6.61,6.61,0,0,1,32,14.56a7,7,0,0,1-7.17,6.74h0" transform="translate(-0.02 -1.71)"/></svg>