<?xml version="1.0" encoding="utf-8"?>
<svg version="1.1" id="Layer_1" xmlns="http://www.w3.org/2000/svg" xmlns:xlink="http://www.w3.org/1999/xlink" x="0px" y="0px"
	 viewBox="0 0 1792 1792" style="enable-background:new 0 0 1792 1792;" xml:space="preserve">
<style type="text/css">
	.st0{fill:#1478A6;}
	.st1{fill:#FFFFFF;}
</style>
<g>
	<circle class="st0" cx="897.1" cy="896.1" r="886.6"/>
	<path class="st1" d="M1391.5,758.2v438.1c0,24.3-8.6,45.1-25.9,62.3c-17.3,17.3-38.1,25.9-62.3,25.9H491
		c-24.3,0-45.1-8.6-62.3-25.9c-17.3-17.3-25.9-38.1-25.9-62.3V758.2c16.2,18,34.8,34,55.7,48c133.2,90.5,224.6,153.9,274.2,190.3
		c21,15.4,38,27.5,51,36.1c13.1,8.6,30.4,17.5,52.1,26.5s41.9,13.5,60.7,13.5h1.1c18.8,0,39-4.5,60.7-13.5s39.1-17.8,52.1-26.5
		c13.1-8.6,30.1-20.7,51-36.1c62.5-45.2,154.1-108.7,274.8-190.3C1357.3,791.8,1375.7,775.8,1391.5,758.2z M1391.5,596
		c0,29.1-9,56.8-27,83.3c-18,26.5-40.5,49.1-67.3,67.9c-138.3,96-224.4,155.8-258.2,179.3c-3.7,2.6-11.5,8.2-23.4,16.8
		s-21.9,15.6-29.8,21c-7.9,5.3-17.5,11.3-28.7,17.9c-11.2,6.6-21.8,11.6-31.7,14.9c-9.9,3.3-19.1,5-27.6,5h-1.1
		c-8.5,0-17.7-1.7-27.6-5c-9.9-3.3-20.5-8.3-31.7-14.9c-11.2-6.6-20.8-12.6-28.7-17.9s-17.8-12.3-29.8-21S759,929,755.3,926.5
		c-33.5-23.5-81.7-57.1-144.6-100.7c-62.9-43.6-100.6-69.8-113.1-78.6c-22.8-15.4-44.3-36.7-64.6-63.7c-20.2-27-30.3-52.1-30.3-75.3
		c0-28.7,7.6-52.6,22.9-71.7s37.1-28.7,65.4-28.7h812.2c23.9,0,44.6,8.6,62.1,25.9C1382.7,550.9,1391.5,571.7,1391.5,596z"/>
</g>
</svg>
