<svg id="Layer_1" data-name="Layer 1" xmlns="http://www.w3.org/2000/svg" viewBox="0 0 1773.2 1773.2"><defs><style>.cls-1{fill:#1478a6;}.cls-2{fill:#fff;}</style></defs><title>envelope</title><circle class="cls-1" cx="886.6" cy="886.6" r="886.6"/><path class="cls-2" d="M1391.5,758.2v438.1q0,36.45-25.9,62.3t-62.3,25.9H491q-36.45,0-62.3-25.9t-25.9-62.3V758.2a296.64,296.64,0,0,0,55.7,48Q658.3,942,732.7,996.5c21,15.4,38,27.5,51,36.1s30.4,17.5,52.1,26.5,41.9,13.5,60.7,13.5h1.1q28.2,0,60.7-13.5t52.1-26.5c13.1-8.6,30.1-20.7,51-36.1q93.75-67.8,274.8-190.3A304.41,304.41,0,0,0,1391.5,758.2Zm0-162.2c0,29.1-9,56.8-27,83.3a263.23,263.23,0,0,1-67.3,67.9q-207.45,144-258.2,179.3-5.55,3.9-23.4,16.8c-11.9,8.6-21.9,15.6-29.8,21s-17.5,11.3-28.7,17.9a168,168,0,0,1-31.7,14.9c-9.9,3.3-19.1,5-27.6,5h-1.1c-8.5,0-17.7-1.7-27.6-5a168,168,0,0,1-31.7-14.9c-11.2-6.6-20.8-12.6-28.7-17.9s-17.8-12.3-29.8-21S759,929,755.3,926.5Q705,891.25,610.7,825.8T497.6,747.2q-34.2-23.1-64.6-63.7t-30.3-75.3q0-43.05,22.9-71.7T491,507.8h812.2q35.85,0,62.1,25.9C1382.7,550.9,1391.5,571.7,1391.5,596Z" transform="translate(-10.5 -9.5)"/></svg>