<?xml version="1.0" encoding="utf-8"?>
<svg version="1.1" id="Layer_1" xmlns="http://www.w3.org/2000/svg" xmlns:xlink="http://www.w3.org/1999/xlink" x="0px" y="0px"
	 viewBox="0 0 1792 1792" style="enable-background:new 0 0 1792 1792;" xml:space="preserve">
<style type="text/css">
	.st0{fill:#1478A6;}
	.st1{fill:#FFFFFF;}
</style>
<g>
	<circle class="st0" cx="896" cy="895" r="886.6"/>
	<path class="st1" d="M1211,392c52.1,0,96.6,18.5,133.5,55.5S1400,528.9,1400,581v630c0,52.1-18.5,96.6-55.5,133.5
		c-37,36.9-81.4,55.5-133.5,55.5H581c-52.1,0-96.6-18.5-133.5-55.5s-55.5-81.4-55.5-133.5V581c0-52.1,18.5-96.6,55.5-133.5
		S528.9,392,581,392L1211,392L1211,392z M850.1,896c0-38.5-13.5-71.3-40.7-98.5c-27.2-27.2-59.9-40.7-98.5-40.7
		c-38.5,0-71.3,13.5-98.5,40.7s-40.7,59.9-40.7,98.5c0,38.5,13.5,71.3,40.7,98.5c27.1,27.1,59.9,40.7,98.5,40.7
		c38.5,0,71.3-13.5,98.5-40.7C836.5,967.3,850.1,934.5,850.1,896z M1220.2,896c0-38.5-13.5-71.3-40.7-98.5
		c-27.1-27.1-59.9-40.7-98.5-40.7c-38.5,0-71.3,13.5-98.5,40.7c-27.1,27.1-40.7,59.9-40.7,98.5c0,38.5,13.5,71.3,40.7,98.5
		c27.1,27.1,59.9,40.7,98.5,40.7c38.5,0,71.3-13.5,98.5-40.7C1206.6,967.3,1220.2,934.5,1220.2,896z"/>
</g>
</svg>
