<?xml version="1.0" encoding="utf-8"?>
<svg version="1.1" id="Layer_1" xmlns="http://www.w3.org/2000/svg" xmlns:xlink="http://www.w3.org/1999/xlink" x="0px" y="0px"
	 viewBox="0 0 1792 1792" style="enable-background:new 0 0 1792 1792;" xml:space="preserve">
<style type="text/css">
	.st0{fill:#1478A6;}
	.st1{fill:#FFFFFF;}
</style>
<g>
	<circle class="st0" cx="896" cy="895" r="886.6"/>
	<path class="st1" d="M1187.4,447.8c48.2,0,89.4,16.5,123.5,49.4c34.1,32.9,51.3,72.4,51.3,118.7v560.3c0,46.3-17.1,85.9-51.3,118.7
		c-34.2,32.8-75.3,49.4-123.5,49.4H604.6c-48.2,0-89.4-16.5-123.5-49.4c-34.1-32.9-51.3-72.4-51.3-118.7V615.9
		c0-46.3,17.1-85.9,51.3-118.7s75.3-49.4,123.5-49.4H1187.4L1187.4,447.8z M853.5,896c0-34.2-12.5-63.4-37.6-87.6
		c-25.2-24.2-55.4-36.2-91.1-36.2c-35.6,0-66,12-91.1,36.2C608.5,832.6,596,861.7,596,896c0,34.2,12.5,63.4,37.6,87.6
		c25.1,24.1,55.4,36.2,91.1,36.2c35.6,0,66-12,91.1-36.2C841,959.4,853.5,930.2,853.5,896z M1195.9,896c0-34.2-12.5-63.4-37.6-87.6
		c-25.1-24.1-55.4-36.2-91.1-36.2c-35.6,0-66,12-91.1,36.2c-25.1,24.1-37.6,53.3-37.6,87.6c0,34.2,12.5,63.4,37.6,87.6
		c25.1,24.1,55.4,36.2,91.1,36.2c35.6,0,66-12,91.1-36.2C1183.3,959.4,1195.9,930.2,1195.9,896z"/>
</g>
</svg>
