<?xml version="1.0" encoding="UTF-8" standalone="no"?>
<svg width="73px" height="42px" viewBox="0 0 73 42" version="1.1" xmlns="http://www.w3.org/2000/svg" xmlns:xlink="http://www.w3.org/1999/xlink" xmlns:sketch="http://www.bohemiancoding.com/sketch/ns">
    <!-- Generator: Sketch 3.3.2 (12043) - http://www.bohemiancoding.com/sketch -->
    <title>Icon: hard mins</title>
    <desc>Created with Sketch.</desc>
    <defs></defs>
    <g id="Resources-to-Revenue" stroke="none" stroke-width="1" fill="none" fill-rule="evenodd" sketch:type="MSPage">
        <g id="1.0-Resources-to-Revenue-Landing" sketch:type="MSArtboardGroup" transform="translate(-815.000000, -738.000000)" fill="#ACB626">
            <g id="panel-6-copy-3" sketch:type="MSLayerGroup" transform="translate(651.000000, 618.000000)">
                <g id="Icon:-hard-mins" transform="translate(164.000000, 120.000000)" sketch:type="MSShapeGroup">
                    <path d="M59.5136339,41.2119981 L20.4921136,41.2119981 C19.1569883,41.2119981 18.0714418,40.6546863 17.5068607,39.6806022 C16.9471258,38.706518 17.0077031,37.4877013 17.6740542,36.3343081 L37.1848144,2.53940346 C37.8511655,1.38358719 38.8785577,0.722082281 40.0028738,0.722082281 C41.1247667,0.722082281 42.152159,1.38358719 42.8185101,2.53940346 L62.3292702,36.3343081 C62.9956213,37.4901244 63.0561987,38.7089411 62.4964638,39.6806022 C61.9343058,40.6522632 60.8487592,41.2119981 59.5136339,41.2119981 L59.5136339,41.2119981 Z M20.5429986,37.9262814 L59.4627489,37.9262814 L40.0028738,4.22103132 L20.5429986,37.9262814 L20.5429986,37.9262814 Z" id="Fill-1"></path>
                    <path d="M24.9215311,41.2119981 L3.97629874,41.2119981 C2.63875035,41.2119981 1.55320383,40.6546863 0.991045816,39.6806022 C0.431310893,38.706518 0.489465171,37.4877013 1.15581627,36.3343081 L13.8455643,14.3544142 C14.5119154,13.1985979 15.5417307,12.537093 16.6636237,12.537093 C17.7855166,12.537093 18.8129088,13.1985979 19.4792599,14.3544142 L26.3414647,26.2421178 L23.4991744,27.88013 L16.6636237,16.0408883 L4.02476064,37.9287045 L24.9215311,37.9287045 L24.9215311,41.2119981" id="Fill-2"></path>
                    <path d="M69.5161697,41.2119981 L55.8935302,41.2119981 L55.8935302,37.9287045 L69.4652847,37.9287045 L61.6023417,24.3133343 L58.3457022,29.9542992 L55.505835,28.3114409 L58.7867055,22.6268602 C59.4530566,21.4710439 60.4804488,20.809539 61.6023417,20.809539 C62.7266578,20.809539 63.75405,21.4710439 64.417978,22.6268602 L72.3342291,36.3343081 C73.0005802,37.4901244 73.0611576,38.7089411 72.4989995,39.6806022 C71.9368415,40.6522632 70.851295,41.2119981 69.5161697,41.2119981" id="Fill-3"></path>
                    <path d="M34.5266793,24.7252604 C34.0226755,24.7252604 33.5186718,24.5919902 33.0776685,24.306065 L28.3090178,21.2117728 L30.0948387,18.459137 L34.41764,21.2626578 L38.476324,16.3486213 C39.3777153,15.2606517 40.9987658,15.1007274 42.0940047,15.9948495 L46.0484956,19.2272581 L48.7066307,16.3268135 L51.1273025,18.5415222 L48.0499719,21.9023548 C47.1098111,22.9249009 45.5299532,23.0412094 44.451676,22.161626 L40.5626087,18.9825255 L36.6105409,23.7632917 C36.0895755,24.3908733 35.3093389,24.7252604 34.5266793,24.7252604" id="Fill-4"></path>
                </g>
            </g>
        </g>
    </g>
</svg>