<svg id="Layer_1" data-name="Layer 1" xmlns="http://www.w3.org/2000/svg" viewBox="0 0 31.86 32.04"><defs><style>.cls-1{fill:#fff;}</style></defs><title>icon-search</title><path class="cls-1" d="M27.73,32l-8-8a1.62,1.62,0,0,1-.36-2l-1.78-1.78a12,12,0,0,1-6.4,2.14,10.74,10.74,0,0,1-7.83-3.2,11.2,11.2,0,1,1,16.9-1.42l1.6,1.6a1.62,1.62,0,0,1,2,.36l8,8L27.73,32h0M11.19,3.54A7,7,0,0,0,5.85,5.85a7.56,7.56,0,0,0,5.52,12.81,7.53,7.53,0,0,0,5.34-2.14h0a7.57,7.57,0,0,0-.18-10.67,7.29,7.29,0,0,0-5.34-2.31h0" transform="translate(0 0.04)"/></svg>