<?xml version="1.0" encoding="UTF-8"?>
<svg width="24px" height="24px" viewBox="0 0 24 24" version="1.1" xmlns="http://www.w3.org/2000/svg" xmlns:xlink="http://www.w3.org/1999/xlink">
    <!-- Generator: Sketch 43.2 (39069) - http://www.bohemiancoding.com/sketch -->
    <title>icon-filter</title>
    <desc>Created with Sketch.</desc>
    <defs></defs>
    <g id="Symbols" stroke="none" stroke-width="1" fill="none" fill-rule="evenodd">
        <g id="icon-filter" fill="#FFFFFF">
            <path d="M24.2706763,0.531782444 C24.097685,0.133902505 23.699805,-0.142883539 23.2500277,-0.142883539 L1.10714418,-0.142883539 C0.657366855,-0.142883539 0.259486916,0.133902505 0.0864956388,0.531782444 C-0.0864956388,0.94696151 4.30103002e-16,1.43133709 0.328683428,1.74272139 L8.85715342,10.2711914 L8.85715342,18.6785675 C8.85715342,18.9726526 8.97824731,19.2494387 9.18583684,19.4570282 L13.6144136,23.8856049 C13.8220031,24.1104936 14.0987891,24.2142884 14.3928743,24.2142884 C14.5312673,24.2142884 14.6869595,24.1796901 14.8253525,24.1277927 C15.2232324,23.9548014 15.5000185,23.5569215 15.5000185,23.1071442 L15.5000185,10.2711914 L24.0284885,1.74272139 C24.3571719,1.43133709 24.4436675,0.94696151 24.2706763,0.531782444 Z"></path>
        </g>
    </g>
</svg>