<?xml version="1.0" encoding="UTF-8" standalone="no"?>
<svg width="10px" height="17px" viewBox="0 0 10 17" version="1.1" xmlns="http://www.w3.org/2000/svg" xmlns:xlink="http://www.w3.org/1999/xlink">
    <!-- Generator: Sketch 40 (33762) - http://www.bohemiancoding.com/sketch -->
    <title>icon-withheld</title>
    <desc>Created with Sketch.</desc>
    <defs></defs>
    <g id="Page-1" stroke="none" stroke-width="1" fill="none" fill-rule="evenodd">
        <g id="Artboard">
            <g id="icon-withheld">
                <path d="M0.171673072,5.493 L1.18867307,5.493 C1.2936736,5.493 1.38142272,5.51774975 1.45192307,5.56725 C1.52242342,5.61675025 1.56967295,5.68349958 1.59367307,5.7675 L2.70067307,9.66 C2.72767321,9.75600048 2.75242296,9.86024944 2.77492307,9.97275 C2.79742318,10.0852506 2.81917297,10.2044994 2.84017307,10.3305 C2.86417319,10.2044994 2.89042293,10.0852506 2.91892307,9.97275 C2.94742321,9.86024944 2.97817291,9.75600048 3.01117307,9.66 L4.28917307,5.7675 C4.31317319,5.69849965 4.36042272,5.63550028 4.43092307,5.5785 C4.50142342,5.52149971 4.58767256,5.493 4.68967307,5.493 L5.04517307,5.493 C5.1501736,5.493 5.23717273,5.51774975 5.30617307,5.56725 C5.37517342,5.61675025 5.42317294,5.68349958 5.45017307,5.7675 L6.71917307,9.66 C6.7851734,9.85200096 6.84217283,10.0649988 6.89017307,10.299 C6.91117318,10.1819994 6.93292296,10.0695005 6.95542307,9.9615 C6.97792318,9.85349946 7.00117295,9.75300046 7.02517307,9.66 L8.13217307,5.7675 C8.15317318,5.69249962 8.19967271,5.62800027 8.27167307,5.574 C8.34367343,5.51999973 8.43067256,5.493 8.53267307,5.493 L9.48217307,5.493 L7.46167307,12 L6.36817307,12 L4.94617307,7.554 C4.92817298,7.49699971 4.90942317,7.43550033 4.88992307,7.3695 C4.87042297,7.30349967 4.85167316,7.23300037 4.83367307,7.158 C4.81567298,7.23300037 4.79692317,7.30349967 4.77742307,7.3695 C4.75792297,7.43550033 4.73917316,7.49699971 4.72117307,7.554 L3.28567307,12 L2.19217307,12 L0.171673072,5.493 Z" id="W" fill="#5C737F"></path>
                <circle id="Oval" fill="#D3DFE6" cx="4.84999847" cy="1.5" r="1.5"></circle>
                <circle id="Oval-Copy" fill="#D3DFE6" cx="4.84999847" cy="15.5" r="1.5"></circle>
            </g>
        </g>
    </g>
</svg>