<?xml version="1.0" encoding="utf-8"?>
<!-- Generator: Adobe Illustrator 21.0.2, SVG Export Plug-In . SVG Version: 6.00 Build 0)  -->
<svg version="1.1" id="Layer_1" xmlns="http://www.w3.org/2000/svg" xmlns:xlink="http://www.w3.org/1999/xlink" x="0px" y="0px"
	 viewBox="0 0 1792 1792" style="enable-background:new 0 0 1792 1792;" xml:space="preserve">
<style type="text/css">
	.st0{fill:#1478A6;}
	.st1{fill:#FFFFFF;}
</style>
<g>
	<circle class="st0" cx="897.3" cy="899.3" r="886.6"/>
	<path class="st1" d="M1112.7,1244v86.2c0,11.7-4.3,21.8-12.8,30.3c-8.5,8.5-18.6,12.8-30.3,12.8H724.9c-11.7,0-21.8-4.3-30.3-12.8
		s-12.8-18.6-12.8-30.3V1244c0-11.7,4.3-21.8,12.8-30.3c8.5-8.5,18.6-12.8,30.3-12.8H768V942.3h-43.1c-11.7,0-21.8-4.3-30.3-12.8
		s-12.8-18.6-12.8-30.3v-86.2c0-11.7,4.3-21.8,12.8-30.3c8.5-8.5,18.6-12.8,30.3-12.8h258.5c11.7,0,21.8,4.3,30.3,12.8
		c8.5,8.5,12.8,18.6,12.8,30.3v387.8h43.1c11.7,0,21.8,4.3,30.3,12.8C1108.4,1222.2,1112.7,1232.3,1112.7,1244z M1026.5,468.3v129.3
		c0,11.7-4.3,21.8-12.8,30.3c-8.5,8.5-18.6,12.8-30.3,12.8H811.1c-11.7,0-21.8-4.3-30.3-12.8c-8.5-8.5-12.8-18.6-12.8-30.3V468.3
		c0-11.7,4.3-21.8,12.8-30.3c8.5-8.5,18.6-12.8,30.3-12.8h172.4c11.7,0,21.8,4.3,30.3,12.8C1022.3,446.6,1026.5,456.7,1026.5,468.3z
		"/>
</g>
</svg>
