<?xml version="1.0" encoding="utf-8"?>
<svg version="1.1" id="Layer_1" xmlns="http://www.w3.org/2000/svg" xmlns:xlink="http://www.w3.org/1999/xlink" x="0px" y="0px"
	 viewBox="0 0 1792 1792" style="enable-background:new 0 0 1792 1792;" xml:space="preserve">
<style type="text/css">
	.st0{fill:#1478A6;}
	.st1{fill:#FFFFFF;}
</style>
<g>
	<circle class="st0" cx="896.3" cy="895.3" r="886.6"/>
	<path class="st1" d="M1068.4,896c0-47.6-16.8-88.2-50.5-121.9s-74.3-50.5-121.9-50.5s-88.2,16.8-121.9,50.5s-50.5,74.3-50.5,121.9
		s16.8,88.2,50.5,121.9s74.3,50.5,121.9,50.5s88.2-16.8,121.9-50.5S1068.4,943.6,1068.4,896z M1161.4,896
		c0,73.6-25.8,136.3-77.5,187.9s-114.3,77.5-187.9,77.5s-136.3-25.8-187.9-77.5S630.6,969.6,630.6,896s25.8-136.3,77.5-187.9
		s114.3-77.5,187.9-77.5s136.3,25.8,187.9,77.5S1161.4,822.4,1161.4,896z M1234.1,619.9c0,17.1-6.1,31.7-18.2,43.8
		c-12.1,12.1-26.7,18.2-43.8,18.2s-31.7-6.1-43.8-18.2c-12.1-12.1-18.2-26.7-18.2-43.8c0-17.1,6.1-31.7,18.2-43.8
		c12.1-12.1,26.7-18.2,43.8-18.2s31.7,6.1,43.8,18.2C1228,588.2,1234.1,602.8,1234.1,619.9z M896,471.7c-3.1,0-20.3-0.1-51.5-0.3
		c-31.2-0.2-54.9-0.2-71.1,0c-16.2,0.2-37.8,0.9-65,2c-27.2,1.1-50.3,3.4-69.4,6.7c-19.1,3.4-35.1,7.5-48.2,12.5
		c-22.4,9-42.2,22-59.3,39.1s-30.1,36.8-39.1,59.3c-4.9,13-9.1,29.1-12.5,48.2c-3.4,19.1-5.6,42.2-6.7,69.4c-1.1,27.2-1.8,48.8-2,65
		c-0.2,16.2-0.2,39.8,0,71.1c0.2,31.2,0.3,48.4,0.3,51.5s-0.1,20.3-0.3,51.5c-0.2,31.2-0.2,54.9,0,71.1c0.2,16.2,0.9,37.8,2,65
		c1.1,27.2,3.4,50.3,6.7,69.4c3.4,19.1,7.5,35.1,12.5,48.2c9,22.4,22,42.2,39.1,59.3c17.1,17.1,36.8,30.1,59.3,39.1
		c13,4.9,29.1,9.1,48.2,12.5c19.1,3.4,42.2,5.6,69.4,6.7c27.2,1.1,48.8,1.8,65,2c16.2,0.2,39.8,0.2,71.1,0
		c31.2-0.2,48.4-0.3,51.5-0.3s20.3,0.1,51.5,0.3c31.2,0.2,54.9,0.2,71.1,0s37.8-0.9,65-2c27.2-1.1,50.3-3.4,69.4-6.7
		c19.1-3.4,35.1-7.5,48.2-12.5c22.4-9,42.2-22,59.3-39.1c17.1-17.1,30.1-36.8,39.1-59.3c4.9-13,9.1-29.1,12.5-48.2
		c3.4-19.1,5.6-42.2,6.7-69.4c1.1-27.2,1.8-48.8,2-65s0.2-39.8,0-71.1c-0.2-31.2-0.3-48.4-0.3-51.5s0.1-20.3,0.3-51.5
		c0.2-31.2,0.2-54.9,0-71.1c-0.2-16.2-0.9-37.8-2-65c-1.1-27.2-3.4-50.3-6.7-69.4c-3.4-19.1-7.5-35.1-12.5-48.2
		c-9-22.4-22-42.2-39.1-59.3c-17.1-17.1-36.8-30.1-59.3-39.1c-13-4.9-29.1-9.1-48.2-12.5c-19.1-3.4-42.2-5.6-69.4-6.7
		c-27.2-1.1-48.8-1.8-65-2c-16.2-0.2-39.8-0.2-71.1,0C916.3,471.6,899.1,471.7,896,471.7z M1413.2,896c0,102.8-1.1,174-3.4,213.5
		c-4.5,93.4-32.3,165.7-83.5,216.9s-123.5,79-216.9,83.5c-39.5,2.2-110.7,3.4-213.5,3.4s-174-1.1-213.5-3.4
		c-93.4-4.5-165.7-32.3-216.9-83.5c-51.2-51.2-79-123.5-83.5-216.9c-2.2-39.5-3.4-110.7-3.4-213.5s1.1-174,3.4-213.5
		c4.5-93.4,32.3-165.7,83.5-216.9c51.2-51.2,123.5-79,216.9-83.5c39.5-2.2,110.7-3.4,213.5-3.4s174,1.1,213.5,3.4
		c93.4,4.5,165.7,32.3,216.9,83.5c51.2,51.2,79,123.5,83.5,216.9C1412.1,722,1413.2,793.2,1413.2,896z"/>
</g>
</svg>
