<?xml version="1.0" encoding="utf-8"?>
<svg version="1.1" id="Layer_1" xmlns="http://www.w3.org/2000/svg" xmlns:xlink="http://www.w3.org/1999/xlink" x="0px" y="0px"
	 viewBox="0 0 41.8 35.3" style="enable-background:new 0 0 41.8 35.3;" xml:space="preserve">
<style type="text/css">
	.st0{fill:#1478A6;}
</style>
<title>icon-mountain</title>
<path class="st0" d="M41.4,32.1l-4.5-7.9c-0.4-0.7-1-1.1-1.6-1.1c-0.7,0-1.2,0.4-1.6,1.1l-1.2,2.2l-8-13.8c-0.3-0.7-1-1.1-1.6-1.1
	s-1.2,0.4-1.6,1.1L14,24.8l-3-5.5c-0.4-0.7-1.1-1.1-1.6-1.1c-0.7,0-1.2,0.4-1.6,1.1L0.3,32.1c-0.4,0.7-0.4,1.4-0.1,1.9
	c0.3,0.5,1,0.8,1.8,0.8h9.5h2.6H32h2h5.7c0.8,0,1.4-0.3,1.8-0.8C41.9,33.4,41.8,32.7,41.4,32.1L41.4,32.1 M22.7,13.5l4.4,7.6l-1,1
	l-2.3-1.9c-0.7-0.5-1.6-0.4-2,0.1l-2.3,2.9l-1.6-1L22.7,13.5L22.7,13.5 M9.3,20.3l3.7,6.4l-3.1,5.3c-0.1,0.3-0.3,0.7-0.3,1H2
	L9.3,20.3L9.3,20.3 M11.5,33l5.3-9.1l1.9,1.2c0.3,0.1,0.5,0.3,0.8,0.3c0.4,0,1-0.1,1.2-0.5l2.3-2.7l2.2,1.8c0.7,0.5,1.6,0.4,2.2-0.1
	l0.8-0.8L34.1,33H11.5L11.5,33 M35.9,33c0-0.3-0.1-0.7-0.3-1l-2.2-3.8l1.8-3.1l4.5,7.9L35.9,33L35.9,33"/>
</svg>
