<?xml version="1.0" encoding="utf-8"?>
<svg version="1.1" id="Layer_1" xmlns="http://www.w3.org/2000/svg" xmlns:xlink="http://www.w3.org/1999/xlink" x="0px" y="0px"
	 viewBox="0 0 32 32" style="enable-background:new 0 0 32 32;" xml:space="preserve">
<style type="text/css">
	.st0{fill:#1478A6;}
</style>
<title>icon-oil</title>
<path class="st0" d="M31.9,14l-1.1-4.5c-0.1-0.6-0.6-1.1-1.2-1.2l-0.6-0.2c-0.7-0.2-1.4,0.1-1.7,0.8l-1.9,5.7L5.3,7.9
	c-0.5-0.2-0.9,0-1.1,0.5c-0.1,0.4,0,0.7,0.4,0.9v15.1c-0.2,0.1-0.4,0.4-0.4,0.7v5.4H0.4c-0.2,0-0.4,0.4-0.4,0.7S0.1,32,0.4,32h9.5
	c0.2,0,0.4-0.4,0.4-0.7s-0.1-0.7-0.4-0.7h-4v-5.4c0-0.2-0.1-0.6-0.4-0.7V9.5l8.5,2.8l-0.9,11h-0.5c-0.4,0-0.7,0.4-0.8,0.7l-0.6,6.9
	c0,0.2,0,0.5,0.2,0.6c0.1,0.1,0.4,0.2,0.6,0.2h9.5l0,0c0.5,0,0.8-0.4,0.8-0.8c0-0.1,0-0.1,0-0.2L21.6,24c0-0.4-0.4-0.7-0.8-0.7h-0.5
	L19.6,14l5.6,2l-1.9,5.7c-0.1,0.4-0.1,0.7,0.1,0.9c0.1,0.4,0.5,0.6,0.7,0.6l0.6,0.2c0.1,0,0.4,0.1,0.5,0.1c0.5,0,0.8-0.1,1.2-0.4
	l3.5-3c0.4-0.2,0.7-0.7,0.8-1.2l1.2-3.7C32,15,32,14.4,31.9,14L31.9,14 M19.6,25h0.5l0.5,5.3h-7.7l0.5-5.3h0.5
	c0.4,0,0.7-0.4,0.8-0.7l0.9-11.2l2.4,0.8l0.8,10.5C18.8,24.7,19.2,25,19.6,25L19.6,25 M30.4,15l-1.2,3.7c0,0.1-0.2,0.4-0.4,0.5
	l-3.5,3h-0.1l0,0L25,22l2-6.1l0,0l0,0l2-6.1l0.4,0.1l0.1,0.1l1.1,4.5C30.4,14.5,30.4,14.9,30.4,15L30.4,15"/>
</svg>
