<svg id="Layer_1" data-name="Layer 1" xmlns="http://www.w3.org/2000/svg" viewBox="0 0 31.98 24.22"><defs><style>.cls-1{fill:#1478a6;}</style></defs><title>oil-f</title><path class="cls-1" d="M31.9,10.1,30.8,5.6a1.49,1.49,0,0,0-1.2-1.2L29,4.2a1.31,1.31,0,0,0-1.6.8l-1.9,5.7L5.3,4a.65.65,0,0,0-1,.5.7.7,0,0,0,.4.9V20.5a.84.84,0,0,0-.4.7v5.4H.4c-.3.1-.4.4-.4.8s.1.7.4.7H9.9c.2,0,.4-.4.4-.7s-.1-.7-.4-.7h-4V21.3c0-.2-.1-.6-.4-.7V5.6L14,8.5l-.9,11h-.5a1,1,0,0,0-.8.7L11.1,27c0,.2,0,.5.2.6a1.07,1.07,0,0,0,.6.2h9.5a.79.79,0,0,0,.8-.8v-.2l-.6-6.7a.77.77,0,0,0-.8-.7h-.5l-.7-9.2,5.6,2-1.9,5.7c-.1.4-.1.7.1.9a.82.82,0,0,0,.7.6l.6.2c.1,0,.4.1.5.1a1.75,1.75,0,0,0,1.2-.4l3.5-3a1.74,1.74,0,0,0,.8-1.2l1.2-3.7a2.85,2.85,0,0,0,0-1.3h0m-12.3,11h.5l.5,5.3H12.9l.5-5.3h.5a1,1,0,0,0,.8-.7l.9-11.2L18,10l.8,10.5c0,.3.4.6.8.6h0m10.8-10-1.2,3.7a.89.89,0,0,1-.4.5l-3.5,3h-.1L25,18l2-6.1h0l2-6.1.4.1V6l1.1,4.5c-.1.1-.1.5-.1.6h0" transform="translate(0 -3.88)"/></svg>