<?xml version="1.0" encoding="UTF-8" standalone="no"?>
<svg width="65px" height="49px" viewBox="0 0 65 49" version="1.1" xmlns="http://www.w3.org/2000/svg" xmlns:xlink="http://www.w3.org/1999/xlink" xmlns:sketch="http://www.bohemiancoding.com/sketch/ns">
    <!-- Generator: Sketch 3.3.2 (12043) - http://www.bohemiancoding.com/sketch -->
    <title>Icon: Oil</title>
    <desc>Created with Sketch.</desc>
    <defs></defs>
    <g id="Resources-to-Revenue" stroke="none" stroke-width="1" fill="none" fill-rule="evenodd" sketch:type="MSPage">
        <g id="1.0-Resources-to-Revenue-Landing" sketch:type="MSArtboardGroup" transform="translate(-548.000000, -731.000000)" fill="#ACB625">
            <g id="panel-6-copy-2" sketch:type="MSLayerGroup" transform="translate(375.000000, 618.000000)">
                <g id="Icon:-Oil" transform="translate(173.000000, 113.000000)" sketch:type="MSShapeGroup">
                    <path d="M26.2281935,45.4569677 L27.1266452,34.9906452 L28.1358065,34.9906452 C28.9554839,34.9906452 29.6410323,34.3604516 29.7049032,33.5429032 L31.5273548,11.1454839 L36.3283226,12.7230968 L38.0102581,33.5407742 C38.074129,34.3604516 38.7596774,34.9906452 39.5814839,34.9906452 L40.5863871,34.9906452 L41.4869677,45.4569677 L26.2281935,45.4569677 M50.7546452,29.1634839 L50.1329677,28.9590968 L54.1568387,16.7214194 L54.1610968,16.7107742 L54.1632258,16.7022581 L58.1530323,4.56677419 L58.7427742,4.76051613 L58.930129,4.9436129 L61.0527742,13.9366452 C61.1145161,14.192129 61.0889677,14.781871 61.0080645,15.0288387 L58.6363226,22.2292258 C58.5532903,22.4825806 58.2275484,22.968 58.0210323,23.1404516 L51.005871,29.0996129 L50.7567742,29.1549677 L50.7546452,29.1634839 M10.6585806,0.830322581 C9.99432258,0.830322581 9.37903226,1.24974194 9.15974194,1.91187097 C8.92554839,2.62935484 9.24916129,3.366 9.87083871,3.73858065 L9.87083871,33.8899355 C9.40458065,34.1624516 9.08309677,34.6457419 9.08309677,35.2227097 L9.08309677,47.0367097 L9.08522581,47.0665161 L1.61232258,47.0665161 C1.17587097,47.0665161 0.824580645,47.4156774 0.824580645,47.8542581 C0.824580645,48.2907097 1.178,48.642 1.61445161,48.642 L19.853871,48.642 C20.2903226,48.642 20.6437419,48.2907097 20.6437419,47.8542581 C20.6437419,47.4178065 20.2903226,47.0665161 19.853871,47.0665161 L12.2298065,47.0665161 L12.2340645,47.0367097 L12.2340645,35.2227097 C12.2340645,34.647871 11.9104516,34.1624516 11.4484516,33.8899355 L11.4484516,4.32406452 L28.4615484,9.91916129 L26.6795484,31.8375484 L25.6789032,31.8375484 C24.8613548,31.8375484 24.1779355,32.4656129 24.1076774,33.2810323 L22.9409677,46.9004516 C22.9026452,47.3411613 23.0495484,47.7754839 23.351871,48.1033548 C23.6478065,48.4269677 24.0693548,48.6143226 24.5143226,48.6143226 L43.2327742,48.6143226 C44.1056774,48.6143226 44.8103871,47.9074839 44.8103871,47.0367097 L44.7465161,46.5896129 L43.6053548,33.2810323 C43.5350968,32.4656129 42.8516774,31.8375484 42.032,31.8375484 L41.0356129,31.8375484 L39.5623226,13.5704516 L50.6737419,17.223871 L46.9607097,28.509871 C46.7456774,29.1656129 46.8010323,29.8681935 47.111871,30.4856129 C47.4248387,31.1051613 47.9570968,31.5650323 48.6170968,31.7779355 L49.7710323,32.1569032 C50.0776129,32.2569677 50.4054839,32.3080645 50.7567742,32.3080645 C51.5934839,32.3080645 52.4387097,32.0142581 53.0199355,31.5245806 L60.0606452,25.5483871 C60.7036129,25.0012258 61.3636129,24.021871 61.631871,23.2149677 L64.0057419,16.0060645 C64.2676129,15.1949032 64.3123226,14.0196774 64.1207097,13.2063871 L61.9980645,4.22187097 C61.7468387,3.14883871 60.8036774,2.12264516 59.7561935,1.7756129 L58.6086452,1.40303226 C58.3510323,1.31574194 58.0849032,1.27316129 57.8209032,1.27316129 C56.7329677,1.27316129 55.6812258,1.98212903 55.3299355,3.05303226 L51.6573548,14.2261935 L11.1525161,0.909096774 C10.9885806,0.855870968 10.8225161,0.830322581 10.6585806,0.830322581" id="Fill-1"></path>
                    <path d="M64.1207097,13.2063871 L61.9980645,4.22187097 C61.7468387,3.14883871 60.8058065,2.12264516 59.7561935,1.7756129 L58.6086452,1.40303226 C57.2822581,0.953806452 55.7663871,1.7223871 55.3299355,3.05303226 L51.6573548,14.2261935 L11.1525161,0.909096774 C10.3221935,0.638709677 9.43225806,1.08580645 9.15974194,1.91187097 C8.92554839,2.62935484 9.24916129,3.366 9.87083871,3.73858065 L9.87083871,33.8899355 C9.40458065,34.1624516 9.08309677,34.6457419 9.08309677,35.2227097 L9.08309677,47.0367097 L9.08522581,47.0665161 L1.61232258,47.0665161 C1.178,47.0665161 0.824580645,47.4156774 0.824580645,47.8542581 C0.824580645,48.2907097 1.178,48.642 1.61445161,48.642 L19.853871,48.642 C20.2903226,48.642 20.6437419,48.2907097 20.6437419,47.8542581 C20.6437419,47.4178065 20.2903226,47.0665161 19.853871,47.0665161 L12.2298065,47.0665161 L12.2340645,47.0367097 L12.2340645,35.2227097 C12.2340645,34.647871 11.9104516,34.1624516 11.4484516,33.8899355 L11.4484516,4.32406452 L28.4636774,9.91916129 L26.6795484,31.8375484 L25.6789032,31.8375484 C24.8613548,31.8375484 24.1779355,32.4656129 24.1076774,33.2810323 L22.9409677,46.9004516 C22.9026452,47.3411613 23.0495484,47.7754839 23.3497419,48.1033548 C23.6478065,48.4269677 24.0693548,48.6143226 24.5143226,48.6143226 L43.2327742,48.6143226 C44.1056774,48.6143226 44.8103871,47.9074839 44.8103871,47.0367097 L44.7465161,46.5896129 L43.6053548,33.2810323 C43.5350968,32.4656129 42.8516774,31.8375484 42.032,31.8375484 L41.0356129,31.8375484 L39.5623226,13.5704516 L50.6737419,17.223871 L46.9607097,28.509871 C46.7456774,29.1656129 46.8010323,29.8681935 47.111871,30.4856129 C47.4248387,31.1051613 47.9570968,31.5650323 48.6170968,31.7779355 L49.7710323,32.1569032 C50.0776129,32.2569677 50.4054839,32.3080645 50.7567742,32.3080645 C51.5934839,32.3080645 52.4387097,32.0142581 53.0199355,31.5245806 L60.0606452,25.5483871 C60.7036129,25.0012258 61.3636129,24.021871 61.631871,23.2149677 L64.0057419,16.0060645 C64.2676129,15.1949032 64.3123226,14.0196774 64.1207097,13.2063871 L64.1207097,13.2063871 Z M40.5863871,34.9906452 L41.4869677,45.4569677 L26.2281935,45.4569677 L27.1266452,34.9906452 L28.1358065,34.9906452 C28.9554839,34.9906452 29.6410323,34.3604516 29.7049032,33.5429032 L31.5273548,11.1454839 L36.3283226,12.7230968 L38.0102581,33.5407742 C38.074129,34.3604516 38.7596774,34.9906452 39.5814839,34.9906452 L40.5863871,34.9906452 L40.5863871,34.9906452 Z M61.0080645,15.0288387 L58.6363226,22.2292258 C58.5532903,22.4804516 58.2275484,22.968 58.0210323,23.1404516 L51.005871,29.0996129 L50.7567742,29.1549677 L50.7546452,29.1634839 L50.1329677,28.9590968 L54.1568387,16.7214194 L54.1610968,16.7107742 L54.1632258,16.7022581 L58.1530323,4.56677419 L58.7427742,4.76051613 L58.930129,4.9436129 L61.0527742,13.9366452 C61.1145161,14.192129 61.0889677,14.781871 61.0080645,15.0288387 L61.0080645,15.0288387 Z" id="Fill-2"></path>
                </g>
            </g>
        </g>
    </g>
</svg>