<?xml version="1.0" encoding="utf-8"?>
<svg version="1.1" id="Layer_1" xmlns="http://www.w3.org/2000/svg" xmlns:xlink="http://www.w3.org/1999/xlink" x="0px" y="0px"
	 viewBox="0 0 1792 1792" style="enable-background:new 0 0 1792 1792;" xml:space="preserve">
<style type="text/css">
	.st0{fill:#1478A6;}
	.st1{fill:#FFFFFF;}
</style>
<g>
	<circle class="st0" cx="896" cy="895" r="886.6"/>
	<path class="st1" d="M1458.9,896c0,102.1-25.2,196.3-75.5,282.5c-50.3,86.2-118.6,154.5-204.8,204.8
		c-86.2,50.3-180.4,75.5-282.5,75.5c-54.2,0-107.5-7.8-159.8-23.5c28.8-45.4,47.9-85.5,57.2-120.2c4.4-16.6,17.6-68.2,39.6-154.6
		c9.8,19.1,27.6,35.5,53.5,49.5s53.7,20.9,83.6,20.9c59.1,0,111.9-16.7,158.3-50.2s82.3-79.5,107.7-138.2
		c25.4-58.6,38.1-124.6,38.1-197.9c0-55.7-14.5-108-43.6-156.8c-29.1-48.9-71.2-88.7-126.4-119.5c-55.2-30.8-117.5-46.2-186.9-46.2
		c-51.3,0-99.2,7.1-143.7,21.3s-82.2,33-113.2,56.4c-31,23.5-57.7,50.4-79.9,81c-22.2,30.5-38.6,62.2-49.1,94.9
		s-15.8,65.5-15.8,98.2c0,50.8,9.8,95.5,29.3,134.1c19.5,38.6,48.1,65.7,85.8,81.4c14.7,5.9,23.9,1,27.9-14.7c1-3.4,2.9-11,5.9-22.7
		s4.9-19.1,5.9-22c2.9-11.2,0.2-21.7-8.1-31.5c-24.9-29.8-37.4-66.7-37.4-110.7c0-73.8,25.5-137.2,76.6-190.2
		c51.1-53,117.9-79.5,200.5-79.5c73.8,0,131.3,20,172.6,60.1s61.9,92.1,61.9,156.1c0,83.1-16.7,153.7-50.2,211.8
		c-33.5,58.1-76.3,87.2-128.6,87.2c-29.8,0-53.7-10.6-71.8-31.9c-18.1-21.3-23.7-46.8-16.9-76.6c3.9-17.1,10.4-39.9,19.4-68.5
		c9-28.6,16.4-53.7,22-75.5c5.6-21.7,8.4-40.2,8.4-55.3c0-24.4-6.6-44.7-19.8-60.8s-32-24.2-56.4-24.2c-30.3,0-55.9,13.9-77,41.8
		c-21,27.9-31.5,62.5-31.5,104.1c0,35.7,6.1,65.5,18.3,89.4l-72.6,306.4c-8.3,34.2-11.5,77.4-9.5,129.7
		c-100.7-44.5-182-113.1-244.1-205.9s-93.1-196.2-93.1-310c0-102.1,25.2-196.3,75.5-282.5s118.6-154.5,204.8-204.8
		s180.4-75.5,282.5-75.5s196.3,25.2,282.5,75.5s154.5,118.6,204.8,204.8C1433.7,699.7,1458.9,793.9,1458.9,896z"/>
</g>
</svg>
