<?xml version="1.0" encoding="UTF-8" standalone="no"?>
<svg width="61px" height="57px" viewBox="0 0 61 57" version="1.1" xmlns="http://www.w3.org/2000/svg" xmlns:xlink="http://www.w3.org/1999/xlink" xmlns:sketch="http://www.bohemiancoding.com/sketch/ns">
    <!-- Generator: Sketch 3.3.2 (12043) - http://www.bohemiancoding.com/sketch -->
    <title>Icon: Renewables</title>
    <desc>Created with Sketch.</desc>
    <defs></defs>
    <g id="Resources-to-Revenue" stroke="none" stroke-width="1" fill="none" fill-rule="evenodd" sketch:type="MSPage">
        <g id="1.0-Resources-to-Revenue-Landing" sketch:type="MSArtboardGroup" transform="translate(-1102.000000, -721.000000)" fill="#ACB625">
            <g id="panel-6-copy-4" sketch:type="MSLayerGroup" transform="translate(926.000000, 618.000000)">
                <g id="Icon:-Renewables" transform="translate(176.000000, 103.000000)" sketch:type="MSShapeGroup">
                    <path d="M29.4569,55.5933667 C28.7371,55.5933667 28.1535333,55.0077667 28.1535333,54.29 L28.1535333,28.2226667 C28.1535333,27.5069333 28.7371,26.9193 29.4569,26.9193 C30.1746667,26.9193 30.7602667,27.5069333 30.7602667,28.2226667 L30.7602667,54.29 C30.7602667,55.0077667 30.1746667,55.5933667 29.4569,55.5933667" id="Fill-1"></path>
                    <path d="M29.4569,29.5260333 C27.2995333,29.5260333 25.5468,27.7733 25.5468,25.6179667 C25.5468,23.4606 27.2995333,21.7078667 29.4569,21.7078667 C31.6122333,21.7078667 33.367,23.4606 33.367,25.6179667 C33.367,27.7733 31.6122333,29.5260333 29.4569,29.5260333 L29.4569,29.5260333 Z M29.4569,24.3146 C28.7371,24.3146 28.1535333,24.9002 28.1535333,25.6179667 C28.1535333,26.3337 28.7371,26.9193 29.4569,26.9193 C30.1746667,26.9193 30.7602667,26.3337 30.7602667,25.6179667 C30.7602667,24.9002 30.1746667,24.3146 29.4569,24.3146 L29.4569,24.3146 Z" id="Fill-2"></path>
                    <path d="M29.4569,19.1011333 C26.0856333,19.1011333 25.5468,4.90643333 25.5468,4.7641 C25.5468,2.60673333 27.2995333,0.854 29.4569,0.854 C31.6122333,0.854 33.367,2.60673333 33.367,4.7641 C33.367,4.90643333 32.8261333,19.1011333 29.4569,19.1011333 L29.4569,19.1011333 Z M29.4569,3.46073333 C28.7371,3.46073333 28.1535333,4.04633333 28.1535333,4.7641 C28.1535333,6.1427 28.7676,11.5981333 29.4569,14.7030333 C30.1441667,11.6042333 30.7602667,6.1427 30.7602667,4.7641 C30.7602667,4.04633333 30.1746667,3.46073333 29.4569,3.46073333 L29.4569,3.46073333 Z" id="Fill-3"></path>
                    <path d="M11.2423,39.6805 C9.82506667,39.6805 8.51356667,38.9119 7.82223333,37.6736 C6.77506667,35.7887 7.45013333,33.4015667 9.33503333,32.3523667 C10.4147333,31.7525333 19.1092667,27.9034333 21.9844,27.9034333 C23.0458,27.9034333 23.5378667,28.3833 23.7635667,28.7859 C25.3983667,31.7220333 13.2715667,39.1152333 13.1434667,39.1803 C12.5599,39.5056333 11.9051667,39.6805 11.2423,39.6805 L11.2423,39.6805 Z M19.8941333,30.9493667 C16.6957,31.8887667 11.6347333,34.0522333 10.6038333,34.6276667 C9.9796,34.9774 9.75186667,35.7724333 10.1016,36.4068333 C10.4411667,37.0107333 11.2585667,37.2567667 11.8767,36.9029667 C13.0763667,36.234 17.5090333,33.0599667 19.8941333,30.9493667 L19.8941333,30.9493667 Z" id="Fill-4"></path>
                    <path d="M48.7268,39.6805 L48.7268,39.6805 C48.0659667,39.6805 47.4092,39.5158 46.8276667,39.1904667 C46.6995667,39.1254 34.5707333,31.7322 36.2055333,28.7940333 C36.4292,28.3955 36.9212667,27.9136 37.9826667,27.9136 C40.8598333,27.9136 49.5543667,31.7667667 50.6340667,32.3584667 C52.521,33.4056333 53.1960667,35.7927667 52.1468667,37.6837667 C51.4535,38.9119 50.142,39.6805 48.7268,39.6805 L48.7268,39.6805 Z M40.0546333,30.9351333 C42.4316,33.0518333 46.8866333,36.2319667 48.0883333,36.9070333 C48.7003667,37.2445667 49.5279333,37.0107333 49.8634333,36.4068333 C50.2152,35.7744667 49.9895,34.9794333 49.3612,34.6256333 C48.3262333,34.0522333 43.2164667,31.8684333 40.0546333,30.9351333 L40.0546333,30.9351333 Z" id="Fill-5"></path>
                    <path d="M59.4323,56.8967333 L2.0862,56.8967333 C1.3664,56.8967333 0.782833333,56.3111333 0.782833333,55.5933667 C0.782833333,54.8776333 1.3664,54.29 2.0862,54.29 L59.4323,54.29 C60.1500667,54.29 60.7377,54.8776333 60.7377,55.5933667 C60.7377,56.3111333 60.1500667,56.8967333 59.4323,56.8967333" id="Fill-6"></path>
                </g>
            </g>
        </g>
    </g>
</svg>