<svg id="Layer_1" data-name="Layer 1" xmlns="http://www.w3.org/2000/svg" viewBox="0 0 1773.2 1773.2"><defs><style>.cls-1{fill:#1478a6;}.cls-2{fill:#fff;}</style></defs><title>tumblr</title><circle class="cls-1" cx="886.6" cy="886.6" r="886.6"/><path class="cls-2" d="M1112.66,1168.85l45.46,134.52q-13.11,19.91-63,37.51a311.28,311.28,0,0,1-100.55,18.2q-59,1.19-108.13-14.79t-80.91-42a264,264,0,0,1-54-60.16Q729.32,1208,720,1174a250.85,250.85,0,0,1-9.38-67V798H615.18V675.91a272.71,272.71,0,0,0,73.28-39.5q32.39-24.72,51.66-51.11a296.59,296.59,0,0,0,32.94-57.94c9.07-21.06,15.5-39.74,19.31-56.19a438.75,438.75,0,0,0,8.51-50.23,9.26,9.26,0,0,1,2.54-4.85,6,6,0,0,1,4.29-2H946.22V654.92h189.17V798H945.66v294.16a130.66,130.66,0,0,0,3.66,31.79,109.25,109.25,0,0,0,12.8,29.84q9.07,15,28.13,23.61t46.25,7.95Q1080.87,1184.23,1112.66,1168.85Z"/></svg>