<?xml version="1.0" encoding="utf-8"?>
<!-- Generator: Adobe Illustrator 21.0.2, SVG Export Plug-In . SVG Version: 6.00 Build 0)  -->
<svg version="1.1" id="Layer_1" xmlns="http://www.w3.org/2000/svg" xmlns:xlink="http://www.w3.org/1999/xlink" x="0px" y="0px"
	 viewBox="0 0 1792 1792" style="enable-background:new 0 0 1792 1792;" xml:space="preserve">
<style type="text/css">
	.st0{fill:#1478A6;}
	.st1{fill:#FFFFFF;}
</style>
<circle class="st0" cx="896" cy="898.5" r="886.6"/>
<path class="st1" d="M1180.4,1253.6l57.2,169.3c-11,16.7-37.4,32.4-79.3,47.2s-84.1,22.4-126.5,22.9c-49.5,1-94.9-5.2-136.1-18.6
	c-41.2-13.3-75.1-31-101.8-52.9c-26.7-21.9-49.3-47.2-67.9-75.7c-18.6-28.6-31.8-57.2-39.7-85.7c-7.9-28.6-11.8-56.7-11.8-84.3V787
	h-120V633.4c34.3-12.4,65-28.9,92.2-49.7c27.2-20.7,48.8-42.2,65-64.3c16.2-22.2,30-46.4,41.4-72.9s19.5-50,24.3-70.7
	s8.3-41.8,10.7-63.2c0.5-2.4,1.5-4.4,3.2-6.1c1.7-1.7,3.5-2.5,5.4-2.5H971v303H1209V787H970.3v370.1c0,14.3,1.5,27.6,4.6,40
	s8.5,24.9,16.1,37.5c7.6,12.6,19.4,22.5,35.4,29.7s35.4,10.5,58.2,10C1121.8,1273.4,1153.7,1266.5,1180.4,1253.6z"/>
</svg>
