<?xml version="1.0" encoding="utf-8"?>
<svg version="1.1" id="Layer_1" xmlns="http://www.w3.org/2000/svg" xmlns:xlink="http://www.w3.org/1999/xlink" x="0px" y="0px"
	 viewBox="0 0 1792 1792" style="enable-background:new 0 0 1792 1792;" xml:space="preserve">
<style type="text/css">
	.st0{fill:#1478A6;}
	.st1{fill:#FFFFFF;}
</style>
<circle class="st0" cx="896.1" cy="895.5" r="886.6"/>
<path class="st1" d="M1360.1,608.1c-26.3,38.5-58.1,71.3-95.4,98.4c0.4,5.5,0.6,13.7,0.6,24.8c0,51-7.4,102-22.4,152.8
	c-15,50.9-37.6,99.6-68,146.4c-30.4,46.7-66.7,88.1-108.7,124c-42,35.9-92.7,64.6-151.9,86c-59.3,21.4-122.8,32.1-190.3,32.1
	c-106.5,0-203.8-28.5-292.1-85.4c13.7,1.5,29,2.3,45.9,2.3c88.4,0,167.1-27,236.2-81.3c-41.2-0.8-78.2-13.4-110.8-38
	c-32.6-24.5-55-55.9-67.1-93.9c13,2,24.9,3,35.9,3c16.9,0,33.6-2.1,50-6.5c-44-9-80.4-30.9-109.2-65.6c-28.9-34.7-43.2-75-43.2-121
	v-2.3c26.8,15,55.3,23,86,24.2c-25.9-17.3-46.6-39.8-61.9-67.7c-15.3-27.8-23-58.1-23-90.8c0-34.6,8.7-66.6,25.9-96
	C544.1,612,602,658.8,670.1,693.9c68.1,35.1,141,54.7,218.8,58.6c-3.1-15-4.7-29.5-4.7-43.6c0-52.6,18.6-97.5,55.7-134.7
	c37.1-37.1,82-55.7,134.7-55.7c55,0,101.3,20.1,138.9,60.1c42.8-8.2,83-23.5,120.8-45.9c-14.6,45.1-42.4,80.1-83.6,104.8
	C1287.1,633.5,1323.5,623.8,1360.1,608.1z"/>
</svg>
