<?xml version="1.0" encoding="utf-8"?>
<!-- Generator: Adobe Illustrator 21.0.2, SVG Export Plug-In . SVG Version: 6.00 Build 0)  -->
<svg version="1.1" id="Layer_1" xmlns="http://www.w3.org/2000/svg" xmlns:xlink="http://www.w3.org/1999/xlink" x="0px" y="0px"
	 viewBox="0 0 1792 1792" style="enable-background:new 0 0 1792 1792;" xml:space="preserve">
<style type="text/css">
	.st0{fill:#1478A6;}
	.st1{fill:#FFFFFF;}
</style>
<g>
	<circle class="st0" cx="896" cy="895.5" r="886.6"/>
	<path class="st1" d="M1437.7,560.1c-30.7,44.9-67.8,83.2-111.4,114.8c0.5,6.4,0.7,16,0.7,28.9c0,59.6-8.7,119-26.1,178.4
		c-17.4,59.3-43.9,116.3-79.4,170.8c-35.5,54.5-77.8,102.8-126.8,144.7c-49,41.9-108.1,75.4-177.3,100.4s-143.2,37.5-222,37.5
		c-124.2,0-237.8-33.2-340.9-99.7c16,1.8,33.9,2.7,53.6,2.7c103.1,0,195-31.6,275.6-94.9c-48.1-0.9-91.2-15.7-129.2-44.3
		c-38-28.6-64.2-65.2-78.4-109.6c15.1,2.3,29.1,3.4,41.9,3.4c19.7,0,39.2-2.5,58.4-7.6c-51.3-10.5-93.8-36.1-127.5-76.6
		s-50.5-87.6-50.5-141.3v-2.7c31.2,17.4,64.6,26.8,100.4,28.2c-30.2-20.2-54.3-46.5-72.2-79c-17.9-32.5-26.8-67.8-26.8-105.9
		c0-40.3,10.1-77.7,30.2-112c55.4,68.3,122.9,122.9,202.4,163.9s164.6,63.8,255.4,68.4c-3.7-17.4-5.5-34.4-5.5-50.9
		c0-61.4,21.7-113.8,65-157.1c43.3-43.3,95.7-65,157.1-65c64.2,0,118.2,23.4,162.2,70.1c49.9-9.6,96.9-27.5,140.9-53.6
		c-17,52.7-49.5,93.5-97.6,122.4C1352.4,589.8,1395,578.4,1437.7,560.1z"/>
</g>
</svg>
