<?xml version="1.0" encoding="utf-8"?>
<svg version="1.1" id="Layer_1" xmlns="http://www.w3.org/2000/svg" xmlns:xlink="http://www.w3.org/1999/xlink" x="0px" y="0px"
	 viewBox="0 0 37.3 32" style="enable-background:new 0 0 37.3 32;" xml:space="preserve">
<style type="text/css">
	.st0{fill:#1478A6;}
</style>
<title>wind-f</title>
<path class="st0" d="M18.6,10.4c1.9,0,2.3-8.1,2.3-8.2c0-1.2-1-2.3-2.3-2.3c-1.2,0-2.3,1-2.3,2.3C16.4,2.4,16.6,10.4,18.6,10.4
	L18.6,10.4 M18.6,1.6c0.4,0,0.8,0.4,0.8,0.8c-0.1,1.9-0.4,3.8-0.8,5.7c-0.4-1.9-0.7-3.9-0.8-5.8C17.9,1.9,18.2,1.6,18.6,1.6
	L18.6,1.6 M15.3,16c-0.2-0.4-0.6-0.6-1.1-0.5c-1.6,0-6.6,2.3-7.1,2.5c-1,0.6-1.4,2-0.8,3c0.4,0.7,1.2,1.2,2,1.2c0.4,0,0.7,0,1-0.2
	C9.4,21.9,16.2,17.6,15.3,16L15.3,16 M8.6,20.6c-0.4,0.3-0.8,0-1.1-0.3c-0.2-0.3-0.2-0.8,0.2-1c0,0,0.1,0,0.1-0.1
	c1.7-0.8,3.5-1.5,5.3-2.1C11.6,18.4,10.1,19.6,8.6,20.6L8.6,20.6 M30,18c-0.7-0.4-5.5-2.5-7.1-2.5c-0.4-0.1-0.9,0.1-1.1,0.5
	c-0.9,1.7,5.9,5.8,6.1,6c0.3,0.1,0.7,0.2,1.1,0.3c0.8,0,1.6-0.4,2-1.2C31.4,20,31,18.7,30,18L30,18 M29.6,20.2
	c-0.2,0.3-0.6,0.5-0.9,0.3c0,0-0.1,0-0.1,0c-1.6-1.1-3.1-2.2-4.5-3.4c1.8,0.5,3.6,1.2,5.3,2.1C29.6,19.5,29.7,19.9,29.6,20.2
	L29.6,20.2 M25.8,30.4h-6.4v-14c0.9-0.3,1.5-1.2,1.5-2.1c0-1.3-1.1-2.4-2.4-2.4c-1.3,0-2.4,1.1-2.4,2.4c0,0.9,0.6,1.8,1.5,2.1v14
	h-6.2c-0.3,0-0.4,0.4-0.4,0.8s0.1,0.8,0.4,0.8h14.4c0.3,0,0.4-0.4,0.4-0.8S26,30.4,25.8,30.4L25.8,30.4 M18.6,15.2
	c-0.5,0-0.9-0.4-0.9-0.9c0,0,0,0,0-0.1c0-0.5,0.4-1,0.9-1.1c0.5,0,0.9,0.4,0.9,0.9c0,0,0,0,0,0.1c0.1,0.5-0.3,1-0.8,1.1
	C18.7,15.2,18.7,15.2,18.6,15.2L18.6,15.2"/>
</svg>
