<?xml version="1.0" encoding="utf-8"?>
<svg version="1.1" id="Layer_1" xmlns="http://www.w3.org/2000/svg" xmlns:xlink="http://www.w3.org/1999/xlink" x="0px" y="0px"
	 viewBox="0 0 32 32" style="enable-background:new 0 0 32 32;" xml:space="preserve">
<style type="text/css">
	.st0{fill:#1478A6;}
</style>
<title>icon-wind-small-base</title>
<path class="st0" d="M16.1,10.4c1.9,0,2.2-8.1,2.2-8.2c0-1.2-1.1-2.2-2.2-2.2s-2.2,1.1-2.2,2.2C13.8,2.4,14.1,10.4,16.1,10.4
	L16.1,10.4 M16.1,1.6c0.4,0,0.8,0.4,0.8,0.8c0,0.8-0.4,3.8-0.8,5.7c-0.4-1.9-0.8-5-0.8-5.8C15.3,1.9,15.7,1.6,16.1,1.6L16.1,1.6
	 M12.8,16c-0.1-0.3-0.4-0.5-1.1-0.5c-1.6,0-6.6,2.2-7.1,2.5c-1.1,0.7-1.5,2-0.8,3c0.4,0.7,1.2,1.2,2,1.2c0.4,0,0.8-0.1,1.1-0.3
	C6.8,21.8,13.7,17.6,12.8,16L12.8,16 M6,20.6c-0.4,0.3-0.8,0-1.1-0.3c-0.3-0.4-0.1-0.8,0.3-1.1c0.5-0.3,3.4-1.6,5.3-2.1
	C9.2,18.4,6.7,20.2,6,20.6L6,20.6 M27.4,18c-0.7-0.4-5.6-2.5-7.1-2.5c-0.7,0-0.9,0.3-1.1,0.5c-0.9,1.7,5.9,5.8,6.1,6
	c0.4,0.1,0.7,0.3,1.1,0.3c0.8,0,1.6-0.4,2-1.2C28.9,20,28.5,18.6,27.4,18L27.4,18 M27,20.2c-0.1,0.4-0.7,0.5-1.1,0.3
	c-0.7-0.4-3.2-2.2-4.5-3.4c1.9,0.5,4.8,1.7,5.3,2.1C27,19.4,27.2,20,27,20.2L27,20.2 M23.2,30.4h-6.3v-14c0.9-0.4,1.5-1.2,1.5-2.1
	c0-1.3-1.1-2.4-2.4-2.4s-2.4,1.1-2.4,2.4c0,1.1,0.7,1.9,1.5,2.1v14H8.8c-0.3,0-0.4,0.4-0.4,0.8S8.5,32,8.8,32h14.4
	c0.3,0,0.4-0.4,0.4-0.8S23.5,30.4,23.2,30.4L23.2,30.4 M16.1,15.2c-0.5,0-0.9-0.4-0.9-0.9s0.4-1.1,0.9-1.1s0.9,0.4,0.9,0.9
	C17,14.8,16.6,15.2,16.1,15.2L16.1,15.2"/>
</svg>
