<?xml version="1.0" encoding="utf-8"?>
<svg version="1.1" id="Layer_1" xmlns="http://www.w3.org/2000/svg" xmlns:xlink="http://www.w3.org/1999/xlink" x="0px" y="0px"
	 viewBox="0 0 1792 1792" style="enable-background:new 0 0 1792 1792;" xml:space="preserve">
<style type="text/css">
	.st0{fill:#1478A6;}
	.st1{fill:#FFFFFF;}
</style>
<g>
	<circle class="st0" cx="896" cy="896" r="886.6"/>
	<path class="st1" d="M782.8,1032.2l296.2-150.4L782.8,729.6V1032.2z M896,513.8c68.6,0,134.7,0.9,198.5,2.7s110.7,3.7,140.4,5.7
		l44.7,2.4c0.4,0,3.9,0.3,10.4,0.9c6.5,0.6,11.2,1.2,14.1,1.8s7.6,1.5,14.4,2.7c6.8,1.2,12.5,2.8,17.4,4.8s10.6,4.6,17.1,7.8
		c6.5,3.2,12.9,7.1,19,11.8c6.1,4.6,12,10,17.8,15.9c2.4,2.4,5.6,6.1,9.5,11.1c3.9,5,9.8,16.7,17.8,35.2c8,18.4,13.4,38.7,16.2,60.8
		c3.3,25.7,5.8,53,7.6,82.1c1.9,29.1,2.9,51.8,3.4,68.3v105.8c0.4,58.1-3.3,116.2-11,174.4c-2.8,22-8,42-15.3,59.8
		c-7.3,17.9-13.8,30.2-19.6,37l-8.6,10.3c-5.7,6-11.7,11.3-17.8,15.9s-12.4,8.5-19,11.4c-6.5,3-12.2,5.5-17.1,7.5
		s-10.7,3.6-17.4,4.8c-6.8,1.2-11.7,2.1-14.7,2.7c-3.1,0.6-7.7,1.2-14.1,1.8c-6.3,0.6-9.7,0.9-10.1,0.9
		c-102.4,7.6-230.3,11.4-383.6,11.4c-84.5-0.8-157.8-2.1-220-3.9c-62.2-1.9-103.1-3.3-122.7-4.5l-30-2.4l-22-2.4
		c-14.7-2-25.8-4-33.4-6c-7.5-2-18-6.2-31.2-12.6c-13.3-6.4-24.8-14.7-34.6-24.6c-2.4-2.4-5.6-6.1-9.5-11.1
		c-3.9-5-9.8-16.7-17.8-35.2s-13.4-38.7-16.2-60.8c-3.3-25.7-5.8-53-7.6-82.1c-1.9-29.1-2.9-51.8-3.4-68.3V851.8
		c-0.4-58.1,3.3-116.2,11-174.4c2.8-22,8-42,15.3-59.8c7.3-17.8,13.8-30.2,19.6-37l8.6-10.3c5.7-6,11.7-11.3,17.8-15.9
		c6.1-4.6,12.4-8.6,19-11.8c6.5-3.2,12.2-5.8,17.1-7.8c4.9-2,10.7-3.6,17.4-4.8c6.8-1.2,11.6-2.1,14.4-2.7c2.8-0.6,7.5-1.2,14.1-1.8
		c6.5-0.6,10-0.9,10.4-0.9C614.7,517.4,742.6,513.8,896,513.8z"/>
</g>
</svg>
