<?xml version="1.0" encoding="UTF-8" standalone="no"?>
<svg width="502px" height="257px" viewBox="0 0 502 257" version="1.1" xmlns="http://www.w3.org/2000/svg" xmlns:xlink="http://www.w3.org/1999/xlink">
    <!-- Generator: Sketch 39.1 (31720) - http://www.bohemiancoding.com/sketch -->
    <title>chart-alaska-tax</title>
    <desc>Created with Sketch.</desc>
    <defs></defs>
    <g id="Charts" stroke="none" stroke-width="1" fill="none" fill-rule="evenodd">
        <g id="22-Bar-Chart---Alaska-quarterly-severance-tax" transform="translate(-128.000000, -81.000000)">
            <g id="chart-alaska-tax" transform="translate(128.000000, 81.000000)">
                <rect id="Rectangle" fill="#FFFFFF" fill-rule="evenodd" x="0" y="0" width="502" height="257"></rect>
                <rect id="Rectangle-188-Copy" fill="#ECECEC" fill-rule="evenodd" x="86" y="226.992692" width="415.257812" height="1"></rect>
                <rect id="Rectangle-188-Copy-2" fill="#ECECEC" fill-rule="evenodd" x="86" y="206" width="415.257812" height="1"></rect>
                <rect id="Rectangle-188-Copy-3" fill="#ECECEC" fill-rule="evenodd" x="86" y="185" width="415.257812" height="1"></rect>
                <rect id="Rectangle-188-Copy-4" fill="#ECECEC" fill-rule="evenodd" x="86" y="164" width="415.257812" height="1"></rect>
                <rect id="Rectangle-188-Copy-5" fill="#ECECEC" fill-rule="evenodd" x="86" y="143" width="415.257812" height="1"></rect>
                <rect id="Rectangle-188-Copy-6" fill="#ECECEC" fill-rule="evenodd" x="86" y="122" width="415.257812" height="1"></rect>
                <rect id="Rectangle-188-Copy-7" fill="#ECECEC" fill-rule="evenodd" x="86" y="101" width="415.257812" height="1"></rect>
                <rect id="Rectangle-188-Copy-8" fill="#ECECEC" fill-rule="evenodd" x="86" y="16.992692" width="415.257812" height="1"></rect>
                <rect id="Rectangle-188-Copy-9" fill="#ECECEC" fill-rule="evenodd" x="86" y="80" width="415.257812" height="1"></rect>
                <rect id="Rectangle-188-Copy-10" fill="#ECECEC" fill-rule="evenodd" x="86" y="59" width="415.257812" height="1"></rect>
                <rect id="Rectangle-188-Copy-11" fill="#ECECEC" fill-rule="evenodd" x="86" y="38" width="415.257812" height="1"></rect>
                <text id="$2,000-1,800-1,600-1" font-family="Lato-Light, Lato" font-size="14" font-weight="300" line-spacing="21.1000004" fill="#4A4A4A">
                    <tspan x="23.635" y="18.8999996">$2,000</tspan>
                    <tspan x="31.755" y="40">1,800</tspan>
                    <tspan x="31.755" y="61.1000004">1,600</tspan>
                    <tspan x="31.755" y="82.2000008">1,400</tspan>
                    <tspan x="31.755" y="103.300001">1,200</tspan>
                    <tspan x="31.755" y="124.400002">1,000</tspan>
                    <tspan x="42.64" y="145.500002">800</tspan>
                    <tspan x="42.64" y="166.600002">600</tspan>
                    <tspan x="42.64" y="187.700003">400</tspan>
                    <tspan x="42.64" y="208.800003">200</tspan>
                    <tspan x="58.88" y="229.900003">0</tspan>
                </text>
                <text id="2011" font-family="Lato-Light, Lato" font-size="14" font-weight="300" line-spacing="25" fill="#4A4A4A">
                    <tspan x="118.26" y="246">2011</tspan>
                </text>
                <text id="2012" font-family="Lato-Light, Lato" font-size="14" font-weight="300" line-spacing="25" fill="#4A4A4A">
                    <tspan x="195.74291" y="246">2012</tspan>
                </text>
                <text id="2013" font-family="Lato-Light, Lato" font-size="14" font-weight="300" line-spacing="25" fill="#4A4A4A">
                    <tspan x="276.76" y="246">2013</tspan>
                </text>
                <text id="2014" font-family="Lato-Light, Lato" font-size="14" font-weight="300" line-spacing="25" fill="#4A4A4A">
                    <tspan x="357.77709" y="246">2014</tspan>
                </text>
                <text id="2015" font-family="Lato-Light, Lato" font-size="14" font-weight="300" line-spacing="25" fill="#4A4A4A">
                    <tspan x="435.26" y="246">2015</tspan>
                </text>
                <path d="M111,227 L111,117.775461" id="Line-Copy-11" stroke="#96BC7F" stroke-width="10"></path>
                <path d="M127,227 L127,38.6174105" id="Line-Copy-12" stroke="#96BC7F" stroke-width="10"></path>
                <path d="M143,227 L143,93.9398632" id="Line-Copy-13" stroke="#96BC7F" stroke-width="10"></path>
                <path d="M159,227 L159,100.996032" id="Line-Copy-14" stroke="#96BC7F" stroke-width="10"></path>
                <path d="M191,227 L191,58.7591013" id="Line-Copy-15" stroke="#96BC7F" stroke-width="10"></path>
                <path d="M207,227 L207,44.9972528" id="Line-Copy-16" stroke="#96BC7F" stroke-width="10"></path>
                <path d="M223,227 L223,148.769571" id="Line-Copy-17" stroke="#96BC7F" stroke-width="10"></path>
                <path d="M239,227 L239,82.777949" id="Line-Copy-18" stroke="#96BC7F" stroke-width="10"></path>
                <path d="M271,227 L271,132.808705" id="Line-Copy-19" stroke="#96BC7F" stroke-width="10"></path>
                <path d="M287,227 L287,116.959099" id="Line-Copy-20" stroke="#96BC7F" stroke-width="10"></path>
                <path d="M303,227 L303,152.891971" id="Line-Copy-21" stroke="#96BC7F" stroke-width="10"></path>
                <path d="M319,227 L319,156" id="Line-Copy-22" stroke="#96BC7F" stroke-width="10"></path>
                <path d="M351,227 L351,199.833845" id="Line-Copy-23" stroke="#96BC7F" stroke-width="10"></path>
                <path d="M367,227 L367,138.909138" id="Line-Copy-24" stroke="#96BC7F" stroke-width="10"></path>
                <path d="M382,227 L382,226" id="Line-Copy-25" stroke="#96BC7F" stroke-width="8"></path>
                <path d="M397,227 L397,209.882757" id="Line-Copy-26" stroke="#96BC7F" stroke-width="10"></path>
                <path d="M444,227 L444,226" id="Line-Copy-27" stroke="#96BC7F" stroke-width="8"></path>
                <path d="M458,221 L458,227" id="Line-Copy-28" stroke="#96BC7F" stroke-width="8"></path>
                <path d="M473,217 L473,227" id="Line-Copy-29" stroke="#96BC7F" stroke-width="10"></path>
                <text id="Millions-of-dollars" transform="translate(10.000000, 114.000000) rotate(-90.000000) translate(-10.000000, -114.000000) " font-family="Lato-Light, Lato" font-size="13" font-weight="300" line-spacing="20" fill="#4A4A4A">
                    <tspan x="-38.72075" y="117">Millions of dollars</tspan>
                </text>
            </g>
        </g>
    </g>
</svg>