<svg id="Layer_1" data-name="Layer 1" xmlns="http://www.w3.org/2000/svg" viewBox="0 0 1773.2 1773.2"><defs><style>.cls-1{fill:#1478a6;}.cls-2{fill:#fff;}</style></defs><title>pinterest</title><circle class="cls-1" cx="886.6" cy="886.6" r="886.6"/><path class="cls-2" d="M1420.1,896q0,142.59-70.3,263t-190.68,190.68q-120.39,70.25-263,70.3a514.9,514.9,0,0,1-148.78-21.88q40.22-63.41,53.26-111.91,6.15-23.18,36.87-143.94c9.12,17.78,25.7,33.05,49.81,46.09a160.91,160.91,0,0,0,77.84,19.46q82.54,0,147.39-46.74t100.28-128.67q35.47-81.84,35.47-184.26,0-77.79-40.59-146T1089.94,590.89q-77.09-43-174-43-71.65,0-133.79,19.83t-105.4,52.51a359,359,0,0,0-74.39,75.42q-31,42.6-45.72,88.36a297.93,297.93,0,0,0-14.71,91.43q0,70.95,27.28,124.86t79.89,75.79c13.69,5.49,22.25.93,26-13.69.93-3.17,2.7-10.24,5.49-21.14s4.56-17.78,5.49-20.48q4.05-15.64-7.54-29.33-34.78-41.62-34.82-103.07,0-103.07,71.32-177.09t186.68-74q103.07,0,160.7,56T1120,838.55q0,116.06-46.74,197.2t-119.73,81.19q-41.62,0-66.85-29.7T871,1015.92Q876.4,992,889,952.14c8.38-26.63,15.27-50,20.48-70.3s7.82-37.43,7.82-51.49q0-34.08-18.44-56.61t-52.51-22.53c-28.21,0-52,12.94-71.69,38.92s-29.33,58.19-29.33,96.92q0,49.86,17,83.24l-67.6,285.28q-11.59,47.76-8.85,120.76-140.64-62.15-227.27-191.71T372,896q0-142.59,70.3-263T633,442.29Q753.36,372,896,372t263,70.3Q1279.42,512.54,1349.71,633T1420.1,896Z" transform="translate(-9.4 -8.4)"/></svg>