<svg id="Layer_1" data-name="Layer 1" xmlns="http://www.w3.org/2000/svg" viewBox="0 0 1773.2 1773.2"><defs><style>.cls-1{fill:#1478a6;}.cls-2{fill:#fff;}</style></defs><title>youtube-play</title><circle class="cls-1" cx="886.6" cy="886.6" r="886.6"/><path class="cls-2" d="M798.53,1012.74l255-129.46-255-131.05ZM896,566.51q88.62,0,170.85,2.35,82.41,2.26,120.89,4.89l38.48,2.07c.38,0,3.39.28,8.94.75s9.6,1,12.14,1.51,6.59,1.32,12.42,2.35a75.53,75.53,0,0,1,15,4.14c4.23,1.69,9.13,4,14.68,6.68a97.8,97.8,0,0,1,16.37,10.16,146.29,146.29,0,0,1,15.34,13.64,111.9,111.9,0,0,1,8.18,9.6c3.39,4.33,8.47,14.39,15.34,30.29a189.15,189.15,0,0,1,13.92,52.31q4.23,33.16,6.59,70.65t2.92,58.8v91.07a1073.71,1073.71,0,0,1-9.5,150.15,204.07,204.07,0,0,1-13.17,51.46c-6.3,15.43-11.85,26-16.84,31.89l-7.43,8.84a120.8,120.8,0,0,1-15.34,13.64,79.34,79.34,0,0,1-16.37,9.78c-5.55,2.54-10.54,4.7-14.68,6.49a77.39,77.39,0,0,1-15,4.14c-5.83,1-10.07,1.79-12.7,2.35s-6.59,1-12.14,1.51-8.37.75-8.66.75Q1094,1218.68,896,1218.59q-109.09-1-189.38-3.39c-53.53-1.6-88.72-2.82-105.65-3.86l-25.87-2.07-18.91-2.07a257.56,257.56,0,0,1-28.79-5.17c-6.49-1.69-15.52-5.36-26.81-10.82A108.94,108.94,0,0,1,470.75,1170a111.89,111.89,0,0,1-8.19-9.6c-3.39-4.33-8.47-14.39-15.34-30.29a190,190,0,0,1-13.92-52.31q-4.23-33.16-6.59-70.65t-2.92-58.8V857.32a1073.71,1073.71,0,0,1,9.5-150.15,204.07,204.07,0,0,1,13.17-51.46c6.3-15.34,11.85-26,16.84-31.89l7.43-8.84a120.82,120.82,0,0,1,15.34-13.64,96.36,96.36,0,0,1,16.37-10.16c5.55-2.73,10.54-5,14.68-6.68a77.4,77.4,0,0,1,15-4.14c5.83-1,10-1.79,12.42-2.35a98.6,98.6,0,0,1,12.14-1.51c5.55-.47,8.66-.75,8.94-.75Q698,566.56,896,566.51Z" transform="translate(-9.4 -9.4)"/></svg>