<?xml version="1.0" encoding="utf-8"?>
<!-- Generator: Adobe Illustrator 15.1.0, SVG Export Plug-In . SVG Version: 6.00 Build 0)  -->
<!DOCTYPE svg PUBLIC "-//W3C//DTD SVG 1.1//EN" "http://www.w3.org/Graphics/SVG/1.1/DTD/svg11.dtd">
<svg version="1.1" id="Layer_1" xmlns="http://www.w3.org/2000/svg" xmlns:xlink="http://www.w3.org/1999/xlink" x="0px" y="0px"
	 width="74px" height="100px" viewBox="0 0 74 100" enable-background="new 0 0 74 100" xml:space="preserve">
<path d="M71,94V84H3v10c-1.656,0-3,1.343-3,3s1.344,3,3,3h68c1.657,0,3-1.343,3-3S72.657,94,71,94z" fill='white'/>
<path d="M3,6v10h68V6c1.657,0,3-1.343,3-3s-1.343-3-3-3H3C1.344,0,0,1.343,0,3S1.344,6,3,6z" fill='white'/>
<path d="M3,22v56h68V22H3z M37,65c-5.523,0-10-4.477-10-10c0-5.523,10-20,10-20s10,14.477,10,20C47,60.523,42.523,65,37,65z" fill='white'/>
</svg>
