<svg xmlns="http://www.w3.org/2000/svg" xmlns:xlink="http://www.w3.org/1999/xlink" version="1.1" id="Calque_1" x="0px" y="0px" width="100px" height="100px" viewBox="0 0 100 100" enable-background="new 0 0 100 100" xml:space="preserve">
<path d="M93.074,6.553H82.165H71.257c-1.58,0-2.864,1.293-2.864,2.887s1.284,2.887,2.864,2.887h2.064V86.45h-0.018v3.901  c0,4.739,3.828,8.595,8.537,8.595c4.705,0,8.533-3.855,8.533-8.595v-2.798v-1.472V12.327h2.7c1.58,0,2.864-1.293,2.864-2.887  S94.654,6.553,93.074,6.553z M80.343,12.327h3.646h0.657v38.244h-5.591V12.327H80.343z"/>
<path d="M61.189,79.048v-0.037c1.582,0,2.854-1.278,2.875-2.863h0.007v-56.34c0-1.601-1.288-2.901-2.882-2.901H50.285V2.901  c0-0.984-0.494-1.9-1.316-2.437c-0.822-0.535-1.854-0.612-2.745-0.21L7.204,17.886c-0.818,0.37-1.341,1.083-1.562,1.887H5.5v53.439  v2.9c0,0.019,0.002,0.035,0.002,0.051c0,0.012,0.002,0.021,0.002,0.032c0.042,7.687,6.133,13.941,13.709,14.217v9.162l5.76-6.955  l5.5,6.955v-9.136h30.716c1.594,0,2.882-1.3,2.882-2.901c0-1.601-1.288-2.898-2.882-2.898v-0.002c-1.531,0-2.773-1.254-2.773-2.798  C58.416,80.3,59.658,79.048,61.189,79.048z M11.768,79.011h7.446v5.587C15.782,84.386,12.894,82.134,11.768,79.011z M53.16,84.639  H30.474v-5.628H53.17c-0.311,0.892-0.514,1.832-0.514,2.828C52.656,82.825,52.854,83.758,53.16,84.639z M58.312,73.212H21.837  l26.744-12.085c1.037-0.468,1.704-1.503,1.704-2.646V22.708h8.026V73.212z"/>
</svg>