<svg xmlns="http://www.w3.org/2000/svg" xmlns:xlink="http://www.w3.org/1999/xlink" version="1.1" id="Layer_1" x="0px" y="0px" width="100px" height="58.333px" viewBox="0 0 100 58.333" enable-background="new 0 0 100 58.333" xml:space="preserve">
<g>
	<path d="M62.364,18.543c-2.176-0.811-4.226-1.877-6.808-1.877c-4.167,0-6.944,2.778-11.111,2.778   c-4.167,0-6.944-2.778-11.111-2.778c-4.167,0-6.945,2.778-11.111,2.778s-6.944-2.778-11.111-2.778   c-4.167,0-6.945,2.778-11.111,2.778v4.167c4.167,0,6.944-2.778,11.111-2.778c4.167,0,6.944,2.778,11.111,2.778   s6.944-2.778,11.111-2.778c4.167,0,6.944,2.778,11.111,2.778c4.167,0,6.944-2.778,11.111-2.778c1.879,0,3.474,0.568,5.043,1.188   c0.6-0.933,0.874-1.498,0.879-1.508L62.364,18.543z"/>
	<path d="M58.111,25.355C57.304,25.147,56.467,25,55.556,25c-4.167,0-6.944,2.778-11.111,2.778C40.278,27.778,37.5,25,33.333,25   c-4.167,0-6.945,2.778-11.111,2.778S15.278,25,11.111,25C6.944,25,4.167,27.778,0,27.778v4.167c4.167,0,6.944-2.778,11.111-2.778   c4.167,0,6.944,2.778,11.111,2.778s6.944-2.778,11.111-2.778c4.167,0,6.944,2.778,11.111,2.778c3.731,0,6.356-2.212,9.855-2.677   C55.844,27.87,57.109,26.538,58.111,25.355z"/>
	<path d="M44.444,36.111c-4.167,0-6.944-2.778-11.111-2.778c-4.167,0-6.945,2.778-11.111,2.778s-6.944-2.778-11.111-2.778   c-4.167,0-6.945,2.778-11.111,2.778v4.167c4.167,0,6.944-2.778,11.111-2.778c4.167,0,6.944,2.778,11.111,2.778   S29.167,37.5,33.333,37.5c2.075,0,3.806,0.689,5.535,1.38c2.112-0.9,4.02-1.836,5.737-2.783C44.55,36.1,44.5,36.111,44.444,36.111z   "/>
	<path d="M11.111,41.667c-4.167,0-6.945,2.778-11.111,2.778v1.389c7.624,0,14.317-0.617,20.208-1.622   C17.078,43.559,14.567,41.667,11.111,41.667z"/>
	<path d="M94.444,16.858V9.722h2.778L84.722,0l-12.5,9.722H75v9.181c-4.152,0.793-7.748,1.868-9.722,3.319   C65.278,22.222,52.778,50,0,50v8.333h100V16.667C100,16.667,97.782,16.696,94.444,16.858z"/>
</g>
</svg>