<?xml version="1.0" encoding="utf-8"?>
<!-- Generator: Adobe Illustrator 16.0.0, SVG Export Plug-In . SVG Version: 6.00 Build 0)  -->
<!DOCTYPE svg PUBLIC "-//W3C//DTD SVG 1.1//EN" "http://www.w3.org/Graphics/SVG/1.1/DTD/svg11.dtd">
<svg version="1.1" id="Layer_1" xmlns="http://www.w3.org/2000/svg" xmlns:xlink="http://www.w3.org/1999/xlink" x="0px" y="0px"
	 width="97.797px" height="100px" viewBox="0 0 97.797 100" enable-background="new 0 0 97.797 100" xml:space="preserve">
<g id="Your_Icon">
	<path fill="#010101" d="M92.949,28.574c-0.589-1.233-1.232-2.436-1.917-3.612c-31.763,6.55-70.245,23.78-87.199,49.308
		c4.169,7.551,10.231,13.907,17.545,18.437C36.124,64.16,74.268,35.392,92.949,28.574z"/>
	<path fill="#010101" d="M88.161,20.564C79.049,8.101,64.326,0,47.705,0C26.224,0,7.908,13.525,0.79,32.522
		C26.45,19.774,66.517,17.275,88.161,20.564z"/>
	<path fill="#010101" d="M51.853,100c25.723-2.111,45.944-23.641,45.944-49.908c0-6.846-1.377-13.369-3.861-19.312
		C76.481,48.621,58.938,74.629,51.853,100z"/>
	<rect x="10.784" y="47.083" fill="#010101" width="1.575" height="14.367"/>
	<path fill="#010101" d="M8.768,35.951c2.803,2.63,3.716,8.27,3.552,11.111c5.571-4.525-0.565-13.208-5.431-14.315
		c0.33,2.208,0.107,4.251-0.223,6.076c-0.72,4.025,1.159,7.949,4.2,8.27C10.946,45.055,11.571,42.173,8.768,35.951z"/>
	<path fill="#010101" d="M2.507,48.42c1.666-0.761,5.88-0.401,7.699,0.08C7.021,43.682,1.279,46.665,0,48.998
		c1.53,0.238,2.834,0.812,3.973,1.406c2.511,1.313,5.496,0.885,6.342-1.062C8.983,48.871,4.428,48.385,2.507,48.42z"/>
	<path fill="#010101" d="M18.505,46.233c-0.396,1.782-3.227,4.932-4.702,6.089c5.761,0.368,6.845-6.013,5.754-8.439
		c-1.114,1.077-2.359,1.771-3.519,2.32c-2.565,1.211-4.021,3.854-2.98,5.699C14.244,51.126,17.379,47.783,18.505,46.233z"/>
	<rect x="45.054" y="83.666" fill="#010101" width="1.575" height="14.367"/>
	<path fill="#010101" d="M43.039,72.534c2.803,2.63,3.716,8.27,3.552,11.109c5.572-4.523-0.565-13.208-5.431-14.313
		c0.33,2.208,0.106,4.253-0.223,6.075c-0.72,4.024,1.159,7.951,4.2,8.271C45.216,81.638,45.841,78.755,43.039,72.534z"/>
	<path fill="#010101" d="M36.778,85.003c1.666-0.763,5.88-0.401,7.698,0.079c-3.186-4.818-8.927-1.836-10.207,0.497
		c1.53,0.238,2.835,0.812,3.973,1.406c2.511,1.313,5.496,0.885,6.342-1.059C43.255,85.452,38.7,84.968,36.778,85.003z"/>
	<path fill="#010101" d="M52.779,82.815c-0.396,1.783-3.226,4.933-4.701,6.09c5.761,0.366,6.846-6.015,5.754-8.439
		c-1.114,1.075-2.359,1.77-3.519,2.319c-2.562,1.21-4.021,3.854-2.978,5.698C48.516,87.707,51.651,84.363,52.779,82.815z"/>
	<rect x="31.124" y="35.936" fill="#010101" width="1.145" height="10.435"/>
	<path fill="#010101" d="M29.66,27.853c2.035,1.909,2.698,6.005,2.578,8.067c4.048-3.285-0.411-9.592-3.942-10.393
		c0.24,1.603,0.077,3.088-0.164,4.412c-0.521,2.921,0.842,5.773,3.05,6.007C31.241,34.464,31.695,32.37,29.66,27.853z"/>
	<path fill="#010101" d="M25.113,36.907c1.208-0.552,4.27-0.291,5.592,0.058c-2.316-3.499-6.483-1.333-7.412,0.361
		c1.111,0.173,2.059,0.589,2.885,1.021c1.825,0.955,3.991,0.643,4.605-0.769C29.816,37.232,26.509,36.882,25.113,36.907z"/>
	<path fill="#010101" d="M36.733,35.32c-0.289,1.293-2.343,3.581-3.414,4.421c4.183,0.266,4.971-4.368,4.18-6.13
		c-0.811,0.78-1.713,1.286-2.556,1.685c-1.863,0.878-2.92,2.8-2.164,4.138C33.638,38.873,35.916,36.444,36.733,35.32z"/>
	<rect x="58.464" y="65.586" fill="#010101" width="1.146" height="10.438"/>
	<path fill="#010101" d="M57,57.504c2.035,1.909,2.697,6.006,2.58,8.067c4.047-3.285-0.411-9.593-3.943-10.395
		c0.241,1.604,0.078,3.09-0.165,4.414c-0.52,2.922,0.843,5.773,3.051,6.008C58.582,64.114,59.036,62.021,57,57.504z"/>
	<path fill="#010101" d="M52.453,66.561c1.209-0.555,4.27-0.294,5.593,0.057c-2.315-3.5-6.482-1.333-7.411,0.36
		c1.108,0.174,2.059,0.591,2.886,1.021c1.827,0.953,3.991,0.644,4.606-0.771C57.159,66.885,53.849,66.534,52.453,66.561z"/>
	<path fill="#010101" d="M64.073,64.97c-0.288,1.292-2.342,3.582-3.414,4.423c4.183,0.264,4.97-4.367,4.18-6.131
		c-0.81,0.781-1.713,1.288-2.555,1.686c-1.862,0.878-2.922,2.799-2.164,4.136C60.978,68.522,63.254,66.094,64.073,64.97z"/>
	<rect x="50.152" y="28.824" fill="#010101" width="0.818" height="7.002"/>
	<path fill="#010101" d="M49.015,23.401c1.548,1.282,2.05,4.028,1.962,5.413c3.078-2.204-0.314-6.436-3.002-6.975
		c0.184,1.078,0.059,2.072-0.124,2.96c-0.395,1.961,0.642,3.873,2.322,4.029C50.214,27.838,50.559,26.432,49.015,23.401z"/>
	<path fill="#010101" d="M45.555,29.477c0.92-0.371,3.245-0.196,4.252,0.038c-1.76-2.347-4.929-0.895-5.635,0.242
		c0.845,0.116,1.565,0.396,2.194,0.686c1.388,0.64,3.034,0.43,3.5-0.518C49.132,29.695,46.618,29.462,45.555,29.477z"/>
	<path fill="#010101" d="M54.392,28.412c-0.219,0.869-1.779,2.403-2.598,2.967c3.18,0.177,3.78-2.932,3.178-4.114
		c-0.617,0.524-1.304,0.865-1.944,1.13c-1.416,0.59-2.219,1.878-1.644,2.778C52.036,30.797,53.77,29.167,54.392,28.412z"/>
	<rect x="70.946" y="49.618" fill="#010101" width="0.816" height="7.002"/>
	<path fill="#010101" d="M69.807,44.197c1.548,1.281,2.053,4.028,1.962,5.411c3.079-2.202-0.313-6.436-2.999-6.975
		c0.183,1.078,0.059,2.073-0.123,2.962c-0.396,1.96,0.64,3.872,2.32,4.029C71.009,48.632,71.355,47.228,69.807,44.197z"/>
	<path fill="#010101" d="M66.349,50.271c0.919-0.37,3.246-0.195,4.253,0.038c-1.76-2.347-4.93-0.894-5.637,0.242
		c0.845,0.116,1.566,0.396,2.195,0.686c1.385,0.641,3.032,0.431,3.5-0.517C69.925,50.489,67.412,50.256,66.349,50.271z"/>
	<path fill="#010101" d="M75.187,49.207c-0.222,0.869-1.781,2.402-2.601,2.965c3.183,0.178,3.782-2.931,3.18-4.112
		c-0.618,0.524-1.303,0.862-1.944,1.129c-1.414,0.59-2.22,1.878-1.646,2.777C72.831,51.589,74.563,49.96,75.187,49.207z"/>
	<rect x="65.704" y="25.275" fill="#010101" width="0.551" height="4.727"/>
	<path fill="#010101" d="M64.935,21.616c1.042,0.865,1.383,2.718,1.322,3.653c2.078-1.489-0.208-4.345-2.025-4.707
		c0.124,0.727,0.039,1.398-0.083,1.999c-0.269,1.323,0.434,2.615,1.567,2.72C65.745,24.61,65.977,23.661,64.935,21.616z"/>
	<path fill="#010101" d="M62.598,25.716c0.619-0.25,2.189-0.132,2.871,0.027c-1.188-1.585-3.327-0.603-3.804,0.163
		c0.57,0.079,1.06,0.268,1.483,0.463c0.936,0.432,2.047,0.29,2.359-0.35C65.013,25.863,63.315,25.707,62.598,25.716z"/>
	<path fill="#010101" d="M68.565,24.997c-0.149,0.587-1.206,1.622-1.753,2.003c2.146,0.12,2.548-1.978,2.143-2.777
		c-0.416,0.354-0.878,0.583-1.312,0.764c-0.955,0.397-1.496,1.266-1.108,1.874C66.971,26.606,68.145,25.508,68.565,24.997z"/>
</g>
</svg>
