<svg xmlns="http://www.w3.org/2000/svg" xmlns:xlink="http://www.w3.org/1999/xlink" version="1.1" id="Your_Icon" x="0px" y="0px" width="100px" height="100px" viewBox="0 0 100 100" enable-background="new 0 0 100 100" xml:space="preserve">
<g>
	<path d="M49.999,72.58c1.788,0,3.47-0.695,4.732-1.959c1.265-1.263,1.962-2.944,1.964-4.733c0-1.79-0.697-3.472-1.963-4.734   c-1.264-1.266-2.945-1.962-4.733-1.962c-1.789,0-3.471,0.696-4.732,1.961c-1.266,1.264-1.963,2.945-1.963,4.735   c0,1.789,0.697,3.47,1.962,4.731C46.528,71.885,48.21,72.58,49.999,72.58z"/>
	<path d="M50,5.371C22.43,5.371,0,27.8,0,55.37v1.024l50.14,38.234L100,56.391V55.37C100,27.8,77.57,5.371,50,5.371z M45.551,43.347   l3.312,2.174c0.346,0.226,0.741,0.339,1.137,0.339s0.791-0.113,1.137-0.339l3.312-2.176L75.729,62.29l-2.209,2.027   c-0.423,0.388-0.665,0.935-0.67,1.509s0.229,1.124,0.647,1.52l2.305,2.181L60.47,81.491l-5.374,4.121l-3.72-3.31   c-0.786-0.698-1.966-0.698-2.752,0l-3.61,3.211L30.668,74.575l-6.472-5.05l2.305-2.18c0.417-0.396,0.652-0.945,0.647-1.52   s-0.247-1.121-0.67-1.509l-2.208-2.026L45.551,43.347z M83.264,64.009L50,34.397L16.771,63.978L4.15,54.354   C4.693,29.535,25.052,9.511,50,9.511c24.949,0,45.31,20.025,45.85,44.847L83.264,64.009z"/>
</g>
</svg>