<svg xmlns="http://www.w3.org/2000/svg" xmlns:xlink="http://www.w3.org/1999/xlink" version="1.1" id="Your_Icon" x="0px" y="0px" width="100px" height="100px" viewBox="0 0 100 100" enable-background="new 0 0 100 100" xml:space="preserve">
<path d="M20,88.582C20,89.365,19.365,90,18.583,90H3.417C2.635,90,2,89.365,2,88.582v-4.164C2,83.635,2.635,83,3.417,83h15.165  C19.365,83,20,83.635,20,84.418V88.582z"/>
<path d="M59,44.527C59,44.789,58.708,45,58.349,45H42.651C42.292,45,42,44.789,42,44.527v-4.055C42,40.211,42.292,40,42.651,40  h15.698C58.708,40,59,40.211,59,40.473V44.527z"/>
<path d="M59,51.527C59,51.789,58.708,52,58.349,52H42.651C42.292,52,42,51.789,42,51.527v-4.055C42,47.211,42.292,47,42.651,47  h15.698C58.708,47,59,47.211,59,47.473V51.527z"/>
<path d="M59,58.527C59,58.789,58.708,59,58.349,59H42.651C42.292,59,42,58.789,42,58.527v-4.055C42,54.211,42.292,54,42.651,54  h15.698C58.708,54,59,54.211,59,54.473V58.527z"/>
<path d="M59,66.527C59,66.789,58.708,67,58.349,67H42.651C42.292,67,42,66.789,42,66.527v-4.055C42,62.211,42.292,62,42.651,62  h15.698C58.708,62,59,62.211,59,62.473V66.527z"/>
<path d="M59,74.527C59,74.789,58.708,75,58.349,75H42.651C42.292,75,42,74.789,42,74.527v-4.055C42,70.211,42.292,70,42.651,70  h15.698C58.708,70,59,70.211,59,70.473V74.527z"/>
<path d="M59,82.527C59,82.789,58.708,83,58.349,83H42.651C42.292,83,42,82.789,42,82.527v-4.055C42,78.211,42.292,78,42.651,78  h15.698C58.708,78,59,78.211,59,78.473V82.527z"/>
<path d="M59,89.527C59,89.789,58.708,90,58.349,90H42.651C42.292,90,42,89.789,42,89.527v-4.055C42,85.211,42.292,85,42.651,85  h15.698C58.708,85,59,85.211,59,85.473V89.527z"/>
<path d="M30.951,40L15.015,83.789c-0.853,2.34-0.946,4.453-0.209,4.72l3.913,1.424c0.736,0.268,2.023-1.41,2.875-3.75l16.492-45.311  c0.108-0.298,0.193-0.585,0.276-0.872H30.951z"/>
<rect x="39" y="16" width="2" height="74"/>
<rect x="60" y="16" width="2" height="74"/>
<rect x="79" y="16" width="2" height="61"/>
<path d="M98.947,50.105c0,2.396,0.471,5.044-0.505,7.324c-1.557,3.64-4.881,2.651-7.717,1.696c-3.153-1.061-6.285-2.2-9.322-3.563  c-1.528-0.686-3.034-1.425-4.5-2.238c-1.479-0.823-2.781-1.826-4.441-2.286c-1.161-0.321-2.644-0.574-3.813-0.865  C68.26,50.078,63,49.063,63,48.842V40l9.132,1.263C72.132,41.263,91.368,50.105,98.947,50.105z"/>
<path d="M92.105,60.211c0,0-10.105,2.526-10.105,3.789s0-7.579,0-7.579S85.79,58.947,92.105,60.211z"/>
<path d="M77.952,57.038c0.05,0.06,0.097,0.126,0.139,0.199c0.514,0.896,0.309,1.96,0.227,2.938c-0.114,1.362-0.036,2.726-0.037,4.09  c-0.002,1.421-0.107,2.839-0.18,4.258c-0.046,0.898-0.086,1.798-0.096,2.697c-0.009,0.81-0.091,1.653,0.324,2.393  c0.403,0.716,1.303,1.058,2.027,1.349c3.809,1.531,9.681,5.337,7.597,10.219c-0.854,2.002-3.122,2.541-5.021,1.935  c-2.378-0.758-3.225-3.026-3.995-5.194c-1.123-3.151-4.474-3.159-6.947-4.491c-2.969-1.599-5.547-4.436-6.119-7.835  c-0.506-3.005,0.119-6.322,2.334-8.512c1.643-1.624,3.949-2.232,5.948-3.275c0.646-0.338,1.286-0.688,1.952-0.988  C76.749,56.528,77.499,56.501,77.952,57.038z"/>
<path d="M134,71"/>
<path d="M63.579,67.263c0,0,0,10.105,10.104,12.632c5.194,1.299,4.724,8.871,10.106,10.105  C83.78,89.997,58.526,84.945,63.579,67.263z"/>
<path d="M91.987,28C91.764,13.608,78.24,2,61.581,2C44.922,2,31.399,13.608,31.175,28H91.987z"/>
</svg>