<svg xmlns="http://www.w3.org/2000/svg" xmlns:xlink="http://www.w3.org/1999/xlink" version="1.1" id="Layer_1" x="0px" y="0px" width="100px" height="100px" viewBox="0 0 100 100" enable-background="new 0 0 100 100" xml:space="preserve">
<g>
	<path d="M60.099,76.566c0.877,1.519,2.82,2.04,4.34,1.163s2.039-2.82,1.163-4.34c-0.442-0.767-1.155-1.279-1.949-1.486   c0.023,0.035,0.046,0.072,0.066,0.108c0.104,0.184,0.169,0.383,0.195,0.597c0.027,0.217,0.012,0.428-0.044,0.633   c-0.058,0.204-0.153,0.392-0.286,0.561c-0.135,0.173-0.295,0.311-0.477,0.414c-0.185,0.104-0.384,0.169-0.599,0.195   s-0.424,0.012-0.628-0.045c-0.203-0.056-0.391-0.151-0.562-0.286c-0.17-0.133-0.307-0.291-0.41-0.475   c-0.105-0.185-0.172-0.385-0.198-0.6c-0.016-0.126-0.018-0.252-0.003-0.374C59.628,73.616,59.339,75.25,60.099,76.566   L60.099,76.566z M47.366,62.924c0.067,0.188,0.099,0.382,0.096,0.585c-0.005,0.218-0.049,0.424-0.133,0.616   c-0.084,0.194-0.204,0.366-0.36,0.517c-0.155,0.15-0.331,0.265-0.527,0.342c-0.197,0.077-0.404,0.114-0.622,0.11   c-0.216-0.004-0.42-0.048-0.614-0.132c-0.195-0.085-0.368-0.204-0.518-0.359c-0.151-0.156-0.265-0.332-0.342-0.527   c-0.077-0.197-0.115-0.405-0.113-0.625c0.002-0.103,0.013-0.202,0.031-0.299c-1.005,0.666-1.584,1.878-1.383,3.147   c0.273,1.733,1.901,2.914,3.635,2.641c1.732-0.274,2.914-1.901,2.641-3.635C48.984,64.224,48.287,63.357,47.366,62.924   L47.366,62.924z M60.75,67.772c0.2-0.083,0.406-0.127,0.617-0.129c0.21-0.002,0.416,0.037,0.62,0.119   c0.199,0.081,0.376,0.195,0.529,0.345c0.085,0.084,0.16,0.177,0.224,0.277c3.011-1.352,6.615-0.23,8.301,2.689l9.003,15.593   c1.798,3.115,0.731,7.098-2.385,8.896l-4.231,2.443c-3.116,1.799-7.1,0.731-8.898-2.383l-6.576-11.392   c-0.153,3.01-2.392,5.604-5.487,6.095l-4.825,0.766c-3.554,0.562-6.89-1.862-7.452-5.415l-2.817-17.783   c-0.486-3.074,1.263-5.986,4.045-7.08l0.02-0.092c0.049-0.205,0.137-0.395,0.264-0.57c0.128-0.175,0.282-0.318,0.462-0.428   c0.179-0.109,0.377-0.183,0.593-0.218c0.213-0.033,0.424-0.025,0.631,0.023c0.205,0.05,0.396,0.138,0.569,0.264   c0.156,0.113,0.286,0.247,0.392,0.4l3.267-0.517c1.605-0.254,3.166,0.102,4.447,0.896c-0.012-0.044-0.022-0.09-0.032-0.136   c-0.042-0.215-0.042-0.427,0-0.635c0.043-0.207,0.126-0.4,0.246-0.579c0.124-0.181,0.272-0.329,0.447-0.445   c0.177-0.117,0.371-0.195,0.584-0.237c0.212-0.041,0.421-0.041,0.629,0.001c0.207,0.043,0.4,0.124,0.581,0.246   c0.179,0.12,0.326,0.269,0.442,0.445c0.119,0.177,0.198,0.371,0.239,0.584c0.042,0.213,0.042,0.422-0.001,0.628   c-0.042,0.207-0.124,0.402-0.245,0.586c-0.121,0.181-0.271,0.329-0.447,0.445s-0.369,0.195-0.582,0.236   c-0.156,0.03-0.311,0.038-0.463,0.023c0.551,0.607,0.992,1.324,1.286,2.121c0.045-0.081,0.097-0.156,0.156-0.229   c0.134-0.162,0.297-0.295,0.489-0.398c0.191-0.102,0.393-0.162,0.604-0.184c0.21-0.02,0.418,0.001,0.625,0.064   c0.209,0.063,0.396,0.163,0.561,0.299c0.162,0.135,0.294,0.299,0.396,0.489c0.102,0.192,0.163,0.394,0.184,0.604   s-0.002,0.419-0.065,0.626c-0.062,0.206-0.161,0.392-0.296,0.554c-0.135,0.164-0.298,0.297-0.49,0.398   c-0.19,0.102-0.391,0.162-0.602,0.183s-0.42,0-0.626-0.062c-0.176-0.054-0.335-0.133-0.478-0.236l1.037,6.548   c0.464-0.536,1.023-1.006,1.672-1.38l2.021-1.166l-0.034-0.074c-0.085-0.199-0.128-0.404-0.129-0.613   c-0.002-0.212,0.036-0.42,0.117-0.625c0.082-0.202,0.197-0.379,0.345-0.529C60.379,67.975,60.552,67.857,60.75,67.772L60.75,67.772   z M53.224,58.048c-0.217,0.011-0.424-0.018-0.623-0.089c-0.198-0.069-0.379-0.178-0.542-0.323c-0.16-0.145-0.287-0.313-0.379-0.505   c-0.091-0.19-0.143-0.394-0.153-0.61c-0.012-0.218,0.019-0.427,0.089-0.627c0.071-0.199,0.18-0.38,0.324-0.54   c0.147-0.161,0.315-0.288,0.505-0.379c0.19-0.091,0.395-0.143,0.61-0.153c0.215-0.011,0.422,0.019,0.621,0.089   c0.199,0.069,0.381,0.179,0.542,0.324c0.161,0.144,0.287,0.312,0.378,0.503c0.093,0.192,0.144,0.396,0.155,0.611   c0.011,0.216-0.019,0.423-0.089,0.621c-0.07,0.199-0.178,0.381-0.324,0.546c-0.146,0.163-0.314,0.288-0.504,0.38   C53.643,57.986,53.44,58.037,53.224,58.048L53.224,58.048z M53.012,54.338c-0.215-0.027-0.415-0.092-0.599-0.195   c-0.183-0.104-0.342-0.242-0.478-0.414c-0.132-0.17-0.228-0.358-0.285-0.562c-0.057-0.204-0.071-0.412-0.045-0.627   c0.026-0.217,0.092-0.418,0.196-0.604c0.105-0.184,0.243-0.343,0.412-0.475c0.174-0.134,0.361-0.229,0.563-0.286   c0.203-0.057,0.413-0.07,0.628-0.045c0.215,0.027,0.414,0.092,0.598,0.195s0.343,0.242,0.478,0.414   c0.132,0.17,0.227,0.357,0.283,0.561c0.057,0.205,0.073,0.414,0.047,0.628c-0.026,0.217-0.092,0.416-0.195,0.597   c-0.104,0.185-0.242,0.345-0.413,0.482c-0.172,0.135-0.36,0.229-0.563,0.286C53.436,54.349,53.226,54.363,53.012,54.338   L53.012,54.338z M53.447,50.666c-0.199-0.089-0.371-0.209-0.517-0.361c-0.144-0.153-0.256-0.331-0.335-0.536   c-0.078-0.201-0.114-0.408-0.108-0.622c0.006-0.211,0.053-0.415,0.14-0.611c0.089-0.2,0.211-0.373,0.364-0.521   c0.154-0.145,0.332-0.257,0.533-0.333c0.206-0.078,0.413-0.113,0.622-0.108c0.211,0.005,0.416,0.053,0.614,0.141   c0.197,0.088,0.369,0.208,0.515,0.361c0.145,0.153,0.257,0.332,0.334,0.535c0.078,0.201,0.114,0.407,0.107,0.618   c-0.005,0.213-0.051,0.418-0.138,0.615c-0.089,0.198-0.21,0.37-0.362,0.514c-0.153,0.146-0.331,0.259-0.536,0.339   c-0.203,0.078-0.411,0.114-0.622,0.109C53.848,50.801,53.645,50.754,53.447,50.666L53.447,50.666z M54.938,47.329   c-0.146-0.161-0.254-0.342-0.324-0.541c-0.069-0.198-0.1-0.406-0.09-0.625c0.013-0.216,0.063-0.42,0.155-0.612   c0.09-0.19,0.216-0.357,0.376-0.502c0.162-0.146,0.345-0.256,0.544-0.326c0.2-0.07,0.408-0.1,0.624-0.088   c0.218,0.012,0.422,0.063,0.612,0.153c0.19,0.091,0.358,0.217,0.503,0.378s0.252,0.341,0.322,0.54   c0.071,0.198,0.101,0.406,0.089,0.625c-0.011,0.215-0.062,0.418-0.153,0.608c-0.091,0.193-0.217,0.361-0.376,0.506   c-0.162,0.146-0.341,0.253-0.54,0.322c-0.199,0.071-0.408,0.102-0.628,0.093c-0.217-0.013-0.421-0.063-0.612-0.155   C55.25,47.615,55.083,47.489,54.938,47.329L54.938,47.329z M57.758,45.002c-0.061-0.209-0.078-0.418-0.055-0.628   c0.025-0.209,0.089-0.409,0.194-0.602c0.104-0.188,0.241-0.35,0.406-0.482c0.166-0.131,0.353-0.227,0.561-0.286   c0.21-0.06,0.42-0.079,0.631-0.056c0.21,0.025,0.409,0.091,0.599,0.195c0.191,0.106,0.352,0.242,0.483,0.406   c0.132,0.165,0.228,0.353,0.287,0.562c0.06,0.207,0.076,0.416,0.053,0.626c-0.024,0.209-0.088,0.409-0.193,0.601   c-0.104,0.188-0.24,0.349-0.405,0.48c-0.167,0.133-0.354,0.229-0.561,0.288c-0.209,0.061-0.418,0.078-0.626,0.054   c-0.21-0.023-0.411-0.088-0.604-0.192c-0.191-0.106-0.352-0.241-0.483-0.407C57.912,45.396,57.817,45.209,57.758,45.002   L57.758,45.002z M61.329,44.067c0-0.218,0.041-0.424,0.121-0.618s0.199-0.368,0.353-0.524c0.153-0.152,0.327-0.27,0.523-0.353   c0.195-0.08,0.4-0.12,0.616-0.12c0.219,0,0.427,0.04,0.623,0.12c0.195,0.083,0.369,0.2,0.521,0.353   c0.154,0.156,0.271,0.33,0.353,0.524c0.08,0.194,0.121,0.4,0.121,0.618c0,0.216-0.041,0.421-0.121,0.616   c-0.081,0.195-0.198,0.37-0.353,0.523c-0.152,0.153-0.326,0.27-0.521,0.351c-0.196,0.082-0.402,0.123-0.618,0.123   c-0.218,0-0.423-0.04-0.617-0.121c-0.195-0.08-0.37-0.198-0.527-0.353c-0.155-0.153-0.272-0.328-0.353-0.523   S61.329,44.283,61.329,44.067L61.329,44.067z M65.082,44.205c-0.003-0.217,0.033-0.424,0.111-0.62   c0.077-0.195,0.191-0.372,0.343-0.53c0.149-0.155,0.322-0.276,0.518-0.361c0.193-0.084,0.398-0.128,0.614-0.132   c0.219-0.004,0.427,0.033,0.625,0.11c0.196,0.079,0.372,0.193,0.527,0.343c0.157,0.153,0.277,0.326,0.361,0.519   c0.084,0.193,0.128,0.398,0.132,0.615c0.003,0.216-0.033,0.422-0.11,0.618c-0.077,0.197-0.191,0.374-0.343,0.53   c-0.15,0.155-0.322,0.275-0.516,0.359c-0.195,0.086-0.4,0.13-0.615,0.134c-0.219,0.004-0.425-0.033-0.619-0.11   c-0.197-0.077-0.374-0.191-0.535-0.343c-0.156-0.151-0.276-0.324-0.36-0.518C65.13,44.625,65.087,44.42,65.082,44.205   L65.082,44.205z M68.836,44.161c-0.023-0.216-0.003-0.425,0.057-0.627c0.06-0.201,0.158-0.388,0.295-0.559   c0.136-0.167,0.297-0.303,0.484-0.405c0.185-0.101,0.385-0.162,0.601-0.184c0.217-0.023,0.428-0.005,0.632,0.055   c0.202,0.062,0.388,0.16,0.555,0.296c0.171,0.138,0.306,0.3,0.406,0.483c0.1,0.187,0.162,0.387,0.184,0.603   c0.023,0.215,0.004,0.424-0.056,0.626s-0.158,0.389-0.296,0.558c-0.135,0.168-0.296,0.302-0.481,0.402   c-0.187,0.103-0.388,0.165-0.602,0.188c-0.217,0.023-0.425,0.004-0.626-0.056c-0.203-0.06-0.391-0.158-0.562-0.295   c-0.17-0.138-0.305-0.299-0.405-0.484S68.858,44.375,68.836,44.161L68.836,44.161z M72.57,43.772   c-0.048-0.211-0.056-0.421-0.021-0.629c0.035-0.207,0.111-0.403,0.226-0.59c0.114-0.184,0.258-0.337,0.432-0.461   c0.172-0.123,0.363-0.208,0.573-0.257c0.213-0.049,0.425-0.057,0.635-0.022c0.208,0.036,0.403,0.111,0.587,0.227   c0.185,0.116,0.338,0.26,0.461,0.431c0.122,0.172,0.208,0.364,0.257,0.575s0.056,0.42,0.021,0.628   c-0.034,0.209-0.109,0.405-0.225,0.59c-0.114,0.183-0.258,0.336-0.431,0.459c-0.172,0.123-0.364,0.21-0.574,0.259   c-0.212,0.049-0.421,0.056-0.628,0.021c-0.208-0.035-0.406-0.109-0.594-0.224c-0.184-0.116-0.339-0.261-0.461-0.432   C72.704,44.174,72.619,43.983,72.57,43.772L72.57,43.772z M76.255,42.989c-0.096-0.195-0.149-0.397-0.162-0.609   c-0.014-0.209,0.016-0.417,0.086-0.625c0.07-0.203,0.177-0.386,0.316-0.546c0.14-0.158,0.308-0.284,0.502-0.379   c0.195-0.096,0.4-0.15,0.612-0.164c0.211-0.012,0.419,0.018,0.622,0.088c0.208,0.072,0.39,0.178,0.546,0.316   c0.16,0.14,0.286,0.308,0.381,0.503c0.095,0.193,0.148,0.396,0.161,0.606c0.014,0.212-0.016,0.42-0.086,0.626   c-0.071,0.204-0.176,0.385-0.316,0.543c-0.141,0.16-0.308,0.287-0.502,0.382c-0.195,0.096-0.397,0.149-0.606,0.161   c-0.21,0.014-0.42-0.015-0.629-0.085c-0.207-0.07-0.388-0.176-0.547-0.316C76.475,43.35,76.35,43.183,76.255,42.989L76.255,42.989z    M79.611,41.341c-0.127-0.176-0.216-0.366-0.265-0.572c-0.049-0.204-0.056-0.414-0.023-0.631c0.034-0.213,0.106-0.41,0.217-0.592   c0.11-0.181,0.254-0.334,0.428-0.461c0.177-0.128,0.369-0.218,0.575-0.269c0.206-0.048,0.415-0.055,0.63-0.021   s0.413,0.107,0.592,0.216c0.181,0.11,0.334,0.254,0.462,0.429c0.126,0.176,0.215,0.365,0.265,0.57   c0.049,0.206,0.056,0.416,0.021,0.632c-0.033,0.213-0.105,0.409-0.216,0.589c-0.11,0.183-0.253,0.337-0.427,0.464   c-0.176,0.127-0.367,0.215-0.57,0.264c-0.206,0.05-0.417,0.058-0.635,0.026c-0.215-0.034-0.413-0.107-0.593-0.218   S79.739,41.515,79.611,41.341L79.611,41.341z M82.617,39.071c-0.187-0.112-0.343-0.253-0.469-0.423   c-0.124-0.169-0.214-0.359-0.268-0.571c-0.052-0.21-0.063-0.42-0.032-0.631c0.032-0.209,0.103-0.405,0.214-0.59   c0.113-0.188,0.253-0.345,0.425-0.473c0.171-0.124,0.36-0.213,0.569-0.266c0.214-0.052,0.424-0.062,0.632-0.032   c0.208,0.032,0.405,0.104,0.592,0.215c0.186,0.111,0.341,0.251,0.466,0.422c0.126,0.169,0.216,0.359,0.269,0.571   c0.052,0.21,0.062,0.419,0.03,0.627c-0.03,0.211-0.102,0.409-0.213,0.594c-0.111,0.187-0.252,0.342-0.42,0.466   c-0.171,0.126-0.362,0.217-0.574,0.272c-0.212,0.053-0.422,0.062-0.631,0.031S82.802,39.181,82.617,39.071L82.617,39.071z    M84.547,35.863c-0.21-0.053-0.4-0.142-0.569-0.268c-0.169-0.125-0.31-0.281-0.424-0.468c-0.111-0.186-0.183-0.384-0.215-0.594   c-0.031-0.209-0.021-0.418,0.032-0.628c0.053-0.212,0.143-0.403,0.268-0.575c0.128-0.17,0.283-0.31,0.467-0.421   c0.189-0.111,0.387-0.183,0.595-0.215c0.209-0.031,0.419-0.02,0.629,0.032c0.21,0.053,0.399,0.142,0.568,0.267   c0.171,0.126,0.312,0.282,0.424,0.468c0.11,0.186,0.183,0.383,0.213,0.592c0.033,0.211,0.022,0.421-0.029,0.63   c-0.053,0.21-0.142,0.4-0.267,0.568c-0.125,0.17-0.282,0.312-0.47,0.428c-0.187,0.112-0.385,0.184-0.594,0.215   S84.757,35.915,84.547,35.863L84.547,35.863z M85.343,32.197c-0.218,0.004-0.424-0.033-0.62-0.11   c-0.195-0.077-0.373-0.191-0.53-0.343c-0.155-0.15-0.275-0.323-0.361-0.518c-0.085-0.194-0.129-0.398-0.133-0.614   c-0.004-0.219,0.034-0.427,0.11-0.625c0.079-0.196,0.193-0.373,0.344-0.527c0.152-0.157,0.325-0.278,0.518-0.361   c0.194-0.085,0.399-0.129,0.616-0.132c0.215-0.004,0.422,0.033,0.619,0.109c0.195,0.078,0.372,0.192,0.529,0.344   c0.155,0.149,0.275,0.321,0.358,0.516c0.086,0.195,0.131,0.4,0.135,0.616c0.004,0.217-0.034,0.423-0.11,0.618   c-0.078,0.196-0.191,0.374-0.343,0.534c-0.151,0.156-0.324,0.277-0.518,0.361C85.763,32.149,85.559,32.193,85.343,32.197   L85.343,32.197z M85.138,28.442c-0.211,0.052-0.42,0.062-0.63,0.031c-0.207-0.031-0.405-0.103-0.593-0.215   c-0.185-0.111-0.341-0.252-0.469-0.423c-0.125-0.17-0.214-0.359-0.266-0.568c-0.054-0.212-0.063-0.424-0.034-0.634   c0.033-0.21,0.104-0.406,0.216-0.592c0.114-0.187,0.255-0.343,0.423-0.468c0.17-0.126,0.36-0.215,0.57-0.268   c0.211-0.052,0.419-0.063,0.628-0.031c0.209,0.031,0.406,0.103,0.594,0.215c0.186,0.111,0.341,0.251,0.465,0.421   c0.128,0.171,0.219,0.361,0.271,0.57c0.052,0.212,0.062,0.42,0.031,0.628c-0.031,0.209-0.103,0.408-0.214,0.598   c-0.112,0.187-0.254,0.343-0.423,0.468C85.537,28.3,85.347,28.389,85.138,28.442L85.138,28.442z M84.088,24.824   c-0.199,0.089-0.403,0.136-0.614,0.142c-0.211,0.005-0.418-0.031-0.622-0.109c-0.201-0.077-0.38-0.188-0.536-0.335   c-0.152-0.146-0.272-0.316-0.36-0.514c-0.089-0.199-0.137-0.406-0.143-0.618c-0.005-0.212,0.032-0.419,0.109-0.62   c0.079-0.204,0.19-0.382,0.335-0.535c0.146-0.152,0.318-0.274,0.517-0.361c0.197-0.088,0.401-0.135,0.612-0.141   s0.418,0.031,0.621,0.108c0.201,0.078,0.379,0.189,0.532,0.335c0.155,0.146,0.276,0.317,0.363,0.515   c0.089,0.198,0.136,0.402,0.141,0.611c0.006,0.212-0.029,0.421-0.106,0.626c-0.078,0.204-0.19,0.383-0.336,0.535   C84.455,24.616,84.284,24.736,84.088,24.824L84.088,24.824z M82.489,21.433c-0.183,0.118-0.377,0.196-0.585,0.235   c-0.206,0.037-0.417,0.034-0.631-0.011c-0.212-0.044-0.405-0.127-0.58-0.247s-0.32-0.271-0.438-0.451   c-0.119-0.183-0.199-0.379-0.238-0.588c-0.036-0.209-0.033-0.419,0.012-0.63c0.046-0.213,0.129-0.407,0.247-0.58   c0.119-0.174,0.271-0.32,0.454-0.439c0.18-0.117,0.374-0.194,0.581-0.233c0.207-0.038,0.419-0.035,0.632,0.01   c0.211,0.045,0.403,0.128,0.578,0.247c0.175,0.12,0.322,0.271,0.439,0.452c0.118,0.182,0.196,0.376,0.234,0.582   c0.039,0.208,0.036,0.42-0.008,0.635c-0.045,0.214-0.128,0.407-0.247,0.581C82.821,21.17,82.671,21.316,82.489,21.433   L82.489,21.433z M80.4,18.309c-0.166,0.14-0.351,0.241-0.552,0.305c-0.2,0.062-0.409,0.085-0.628,0.067   c-0.215-0.02-0.417-0.078-0.606-0.176c-0.188-0.098-0.351-0.229-0.489-0.395c-0.14-0.167-0.243-0.353-0.308-0.555   c-0.062-0.202-0.084-0.411-0.064-0.625c0.02-0.219,0.077-0.421,0.174-0.607c0.098-0.187,0.229-0.351,0.396-0.49   c0.166-0.139,0.349-0.239,0.55-0.304c0.201-0.063,0.411-0.085,0.628-0.066c0.215,0.019,0.416,0.077,0.604,0.175   c0.189,0.098,0.353,0.229,0.492,0.394c0.14,0.167,0.24,0.35,0.303,0.551c0.063,0.201,0.088,0.412,0.069,0.631   c-0.019,0.218-0.076,0.42-0.175,0.606C80.697,18.007,80.565,18.169,80.4,18.309L80.4,18.309z M77.96,15.455   c-0.153,0.153-0.328,0.271-0.522,0.352c-0.193,0.08-0.401,0.12-0.62,0.121c-0.215,0-0.422-0.04-0.618-0.121   c-0.195-0.081-0.37-0.197-0.522-0.35c-0.154-0.155-0.272-0.33-0.354-0.526c-0.08-0.196-0.119-0.402-0.119-0.618   c0.001-0.219,0.04-0.426,0.12-0.62c0.081-0.194,0.198-0.368,0.352-0.522c0.153-0.152,0.327-0.269,0.522-0.35   s0.401-0.121,0.619-0.121c0.216,0,0.422,0.04,0.616,0.121c0.197,0.081,0.372,0.197,0.524,0.35c0.153,0.154,0.271,0.328,0.351,0.521   c0.081,0.195,0.122,0.403,0.124,0.623c0,0.218-0.04,0.424-0.121,0.619S78.112,15.302,77.96,15.455L77.96,15.455z M75.281,12.818   c-0.134,0.171-0.293,0.309-0.476,0.412c-0.184,0.104-0.384,0.169-0.601,0.196c-0.215,0.026-0.424,0.011-0.63-0.045   c-0.204-0.057-0.391-0.151-0.561-0.283c-0.172-0.136-0.312-0.295-0.416-0.479c-0.104-0.186-0.168-0.385-0.194-0.599   c-0.025-0.217-0.011-0.428,0.045-0.63c0.058-0.204,0.151-0.392,0.285-0.562c0.134-0.169,0.292-0.307,0.476-0.41   c0.184-0.104,0.383-0.17,0.6-0.196c0.214-0.026,0.423-0.011,0.626,0.046c0.206,0.056,0.394,0.15,0.564,0.283   c0.171,0.134,0.308,0.292,0.411,0.475c0.104,0.185,0.17,0.385,0.199,0.603c0.025,0.216,0.012,0.427-0.045,0.63   S75.414,12.648,75.281,12.818L75.281,12.818z M72.295,10.523c-0.121,0.18-0.271,0.328-0.446,0.445   c-0.175,0.115-0.37,0.194-0.585,0.237c-0.212,0.041-0.423,0.041-0.631,0c-0.207-0.043-0.4-0.125-0.579-0.245   c-0.181-0.122-0.33-0.272-0.448-0.448c-0.116-0.178-0.195-0.372-0.235-0.584c-0.041-0.215-0.041-0.426,0.001-0.632   c0.041-0.206,0.123-0.4,0.245-0.58c0.121-0.179,0.269-0.326,0.444-0.443c0.177-0.117,0.371-0.195,0.585-0.237   c0.212-0.041,0.422-0.041,0.629,0.002c0.209,0.042,0.403,0.122,0.581,0.243c0.181,0.121,0.328,0.27,0.443,0.445   c0.117,0.176,0.197,0.372,0.241,0.588c0.042,0.213,0.041,0.424-0.001,0.631C72.497,10.151,72.416,10.344,72.295,10.523   L72.295,10.523z M69.166,8.466c-0.105,0.189-0.24,0.351-0.405,0.481c-0.164,0.131-0.352,0.227-0.562,0.287   c-0.208,0.06-0.417,0.078-0.63,0.055c-0.209-0.024-0.408-0.089-0.598-0.193c-0.19-0.105-0.353-0.242-0.485-0.407   C66.354,8.522,66.26,8.335,66.2,8.127c-0.059-0.21-0.077-0.42-0.053-0.629c0.023-0.21,0.088-0.409,0.193-0.6   c0.104-0.188,0.239-0.349,0.404-0.48c0.165-0.131,0.353-0.227,0.562-0.287c0.208-0.06,0.416-0.077,0.627-0.053   c0.211,0.023,0.411,0.087,0.601,0.191c0.19,0.105,0.35,0.24,0.479,0.405c0.132,0.165,0.229,0.354,0.292,0.563   c0.06,0.21,0.078,0.419,0.054,0.63C69.335,8.078,69.271,8.277,69.166,8.466L69.166,8.466z M65.881,6.657   c-0.08,0.201-0.195,0.377-0.343,0.528c-0.147,0.149-0.322,0.267-0.523,0.354c-0.198,0.085-0.404,0.127-0.617,0.131   C64.186,7.67,63.979,7.631,63.78,7.55c-0.203-0.082-0.38-0.197-0.531-0.346c-0.15-0.149-0.269-0.323-0.353-0.521   c-0.084-0.202-0.128-0.408-0.13-0.618c-0.002-0.211,0.038-0.417,0.118-0.619c0.082-0.199,0.196-0.375,0.344-0.526   c0.148-0.15,0.322-0.268,0.523-0.354c0.198-0.084,0.403-0.127,0.614-0.128c0.213-0.003,0.419,0.036,0.62,0.117   s0.376,0.195,0.525,0.343c0.151,0.147,0.27,0.322,0.358,0.524c0.085,0.2,0.129,0.406,0.13,0.617   C66.002,6.251,65.962,6.457,65.881,6.657L65.881,6.657z M62.394,5.251c-0.066,0.207-0.169,0.391-0.307,0.551   c-0.135,0.159-0.302,0.289-0.496,0.39c-0.193,0.098-0.396,0.156-0.607,0.173c-0.21,0.017-0.418-0.009-0.623-0.075   c-0.208-0.068-0.393-0.171-0.556-0.308c-0.16-0.139-0.288-0.304-0.387-0.496c-0.098-0.195-0.155-0.397-0.173-0.606   c-0.017-0.211,0.009-0.42,0.076-0.626c0.066-0.205,0.168-0.389,0.306-0.549c0.138-0.161,0.302-0.291,0.496-0.39   c0.193-0.098,0.395-0.155,0.605-0.171c0.211-0.019,0.42,0.007,0.626,0.073c0.206,0.067,0.389,0.169,0.549,0.306   s0.291,0.303,0.394,0.498c0.098,0.194,0.156,0.396,0.173,0.606C62.485,4.838,62.461,5.046,62.394,5.251L62.394,5.251z M58.82,4.115   c-0.05,0.211-0.136,0.403-0.258,0.575c-0.122,0.171-0.276,0.314-0.461,0.431c-0.183,0.115-0.38,0.19-0.59,0.226   c-0.209,0.035-0.417,0.027-0.628-0.02c-0.213-0.05-0.406-0.136-0.58-0.259c-0.171-0.124-0.313-0.277-0.428-0.461   c-0.116-0.187-0.191-0.383-0.227-0.59c-0.034-0.208-0.026-0.418,0.021-0.629c0.049-0.211,0.134-0.401,0.257-0.573   s0.276-0.316,0.461-0.432c0.184-0.114,0.38-0.188,0.587-0.224c0.21-0.036,0.42-0.029,0.63,0.019   c0.213,0.049,0.402,0.135,0.574,0.257c0.171,0.123,0.317,0.276,0.436,0.462c0.115,0.185,0.189,0.381,0.225,0.59   S58.868,3.905,58.82,4.115L58.82,4.115z M55.146,3.309c-0.031,0.215-0.099,0.413-0.206,0.596c-0.106,0.181-0.247,0.337-0.422,0.47   c-0.172,0.13-0.361,0.222-0.567,0.275c-0.205,0.053-0.413,0.064-0.628,0.035c-0.216-0.031-0.416-0.1-0.6-0.208   c-0.182-0.108-0.337-0.248-0.468-0.421c-0.131-0.176-0.223-0.364-0.276-0.567c-0.052-0.204-0.063-0.415-0.032-0.63   c0.029-0.213,0.099-0.411,0.205-0.593c0.106-0.183,0.248-0.339,0.421-0.47c0.173-0.13,0.361-0.222,0.566-0.274   c0.206-0.054,0.415-0.065,0.629-0.036c0.216,0.03,0.413,0.099,0.594,0.206c0.182,0.107,0.34,0.248,0.475,0.422   c0.131,0.175,0.223,0.363,0.274,0.567C55.164,2.887,55.176,3.095,55.146,3.309L55.146,3.309z M51.425,2.79   c-0.008,0.217-0.055,0.422-0.143,0.614c-0.087,0.19-0.211,0.36-0.37,0.511c-0.157,0.147-0.336,0.258-0.535,0.334   c-0.199,0.073-0.405,0.106-0.62,0.1c-0.22-0.008-0.425-0.056-0.619-0.144c-0.192-0.089-0.361-0.212-0.509-0.369   c-0.148-0.162-0.26-0.34-0.334-0.536c-0.073-0.198-0.106-0.405-0.099-0.623c0.008-0.215,0.055-0.419,0.143-0.611   c0.087-0.192,0.211-0.362,0.37-0.511c0.158-0.147,0.335-0.258,0.533-0.332c0.199-0.075,0.407-0.109,0.623-0.102   c0.217,0.008,0.42,0.055,0.611,0.143c0.192,0.088,0.363,0.211,0.516,0.37c0.148,0.16,0.26,0.338,0.333,0.536   C51.4,2.368,51.433,2.574,51.425,2.79L51.425,2.79z M47.67,2.674c0.011,0.218-0.019,0.426-0.089,0.625   c-0.07,0.197-0.179,0.377-0.324,0.541C47.112,4,46.944,4.126,46.752,4.219c-0.19,0.091-0.394,0.142-0.609,0.153   c-0.218,0.012-0.427-0.018-0.628-0.088c-0.199-0.072-0.379-0.181-0.539-0.325c-0.163-0.146-0.289-0.314-0.38-0.504   c-0.091-0.191-0.142-0.395-0.152-0.611c-0.012-0.216,0.018-0.423,0.088-0.622s0.179-0.379,0.324-0.542   C45,1.52,45.168,1.395,45.358,1.304c0.191-0.093,0.396-0.145,0.611-0.155c0.217-0.013,0.424,0.018,0.622,0.088   s0.381,0.179,0.546,0.324c0.161,0.146,0.288,0.313,0.379,0.505C47.607,2.256,47.658,2.459,47.67,2.674L47.67,2.674z M43.915,2.904   c0.03,0.215,0.019,0.425-0.034,0.63c-0.053,0.203-0.145,0.392-0.275,0.567c-0.13,0.172-0.287,0.312-0.47,0.421   s-0.38,0.176-0.594,0.206c-0.216,0.03-0.428,0.02-0.634-0.033c-0.204-0.054-0.394-0.146-0.565-0.276   c-0.175-0.132-0.315-0.289-0.422-0.47c-0.106-0.182-0.176-0.381-0.206-0.596c-0.029-0.213-0.019-0.423,0.034-0.627   s0.146-0.394,0.275-0.567c0.131-0.173,0.286-0.312,0.469-0.42c0.184-0.108,0.381-0.178,0.596-0.208   c0.215-0.029,0.424-0.019,0.626,0.034c0.205,0.053,0.396,0.145,0.573,0.276c0.173,0.13,0.314,0.287,0.421,0.469   C43.815,2.493,43.885,2.691,43.915,2.904L43.915,2.904z M40.189,3.405c0.053,0.211,0.063,0.421,0.032,0.63   c-0.031,0.207-0.104,0.405-0.215,0.593c-0.111,0.186-0.253,0.342-0.424,0.469c-0.17,0.125-0.359,0.215-0.568,0.267   c-0.212,0.053-0.423,0.064-0.634,0.033c-0.209-0.032-0.406-0.104-0.592-0.215c-0.187-0.114-0.343-0.256-0.468-0.424   c-0.125-0.169-0.215-0.359-0.267-0.57c-0.053-0.21-0.063-0.419-0.032-0.627c0.031-0.209,0.103-0.407,0.215-0.594   c0.111-0.186,0.251-0.341,0.422-0.466c0.171-0.128,0.36-0.218,0.57-0.27c0.211-0.053,0.42-0.063,0.627-0.031   c0.209,0.03,0.408,0.103,0.598,0.214c0.188,0.111,0.343,0.253,0.469,0.423C40.048,3.006,40.138,3.196,40.189,3.405L40.189,3.405z    M36.542,4.272c0.071,0.205,0.1,0.414,0.088,0.625c-0.014,0.209-0.067,0.412-0.163,0.609c-0.095,0.194-0.222,0.361-0.381,0.504   c-0.158,0.14-0.339,0.244-0.543,0.315c-0.207,0.07-0.416,0.101-0.628,0.088C34.704,6.4,34.5,6.345,34.308,6.25   c-0.197-0.097-0.365-0.224-0.505-0.381c-0.14-0.158-0.244-0.34-0.315-0.546c-0.07-0.204-0.099-0.411-0.086-0.621   c0.013-0.211,0.066-0.414,0.162-0.61c0.096-0.194,0.222-0.361,0.379-0.501c0.159-0.142,0.342-0.247,0.545-0.318   c0.205-0.07,0.413-0.099,0.623-0.085c0.21,0.013,0.415,0.065,0.613,0.16c0.196,0.096,0.363,0.223,0.504,0.381   C36.367,3.887,36.473,4.068,36.542,4.272L36.542,4.272z M33,5.481c0.081,0.201,0.121,0.407,0.12,0.618   c-0.003,0.21-0.046,0.415-0.131,0.617c-0.085,0.199-0.202,0.373-0.354,0.523c-0.151,0.147-0.326,0.262-0.526,0.343   c-0.203,0.081-0.41,0.122-0.623,0.121c-0.211-0.003-0.416-0.047-0.615-0.131c-0.201-0.087-0.375-0.204-0.522-0.354   c-0.148-0.151-0.263-0.327-0.345-0.528c-0.08-0.2-0.12-0.405-0.118-0.617c0.002-0.211,0.045-0.417,0.13-0.617   c0.085-0.199,0.202-0.372,0.353-0.52c0.152-0.15,0.328-0.266,0.527-0.347c0.202-0.081,0.407-0.121,0.617-0.119   c0.211,0.002,0.418,0.045,0.621,0.129c0.201,0.086,0.375,0.203,0.523,0.354C32.805,5.105,32.92,5.281,33,5.481L33,5.481z    M29.534,6.922c0.099,0.193,0.156,0.396,0.173,0.606c0.017,0.209-0.009,0.418-0.075,0.626c-0.067,0.205-0.17,0.39-0.307,0.552   c-0.138,0.161-0.303,0.29-0.495,0.388c-0.194,0.1-0.397,0.157-0.61,0.175c-0.211,0.016-0.419-0.011-0.624-0.077   c-0.208-0.068-0.392-0.17-0.552-0.307c-0.161-0.137-0.29-0.303-0.389-0.496c-0.098-0.192-0.155-0.394-0.172-0.604   c-0.017-0.211,0.009-0.42,0.076-0.627c0.066-0.205,0.168-0.388,0.306-0.549c0.138-0.162,0.303-0.293,0.495-0.391   c0.193-0.099,0.395-0.156,0.604-0.172c0.21-0.017,0.421,0.008,0.63,0.074c0.208,0.067,0.392,0.17,0.552,0.307   C29.308,6.565,29.437,6.731,29.534,6.922L29.534,6.922z M26.192,8.646c0.111,0.187,0.184,0.384,0.215,0.593   c0.031,0.207,0.02,0.417-0.032,0.63c-0.052,0.21-0.142,0.4-0.268,0.572c-0.126,0.17-0.281,0.31-0.466,0.421   c-0.188,0.112-0.386,0.185-0.596,0.217c-0.211,0.03-0.42,0.019-0.629-0.033c-0.212-0.054-0.403-0.144-0.572-0.268   c-0.17-0.126-0.311-0.281-0.422-0.468c-0.111-0.185-0.183-0.382-0.214-0.591c-0.031-0.208-0.021-0.419,0.032-0.63   c0.052-0.21,0.141-0.399,0.267-0.568c0.126-0.172,0.282-0.313,0.467-0.425c0.187-0.111,0.383-0.184,0.591-0.214   c0.209-0.031,0.42-0.021,0.635,0.029c0.211,0.053,0.401,0.143,0.571,0.269C25.941,8.305,26.081,8.46,26.192,8.646L26.192,8.646z    M23.006,10.625c0.137,0.168,0.234,0.354,0.296,0.557c0.059,0.201,0.077,0.41,0.056,0.629c-0.023,0.215-0.085,0.415-0.186,0.604   c-0.102,0.186-0.235,0.346-0.403,0.481c-0.17,0.138-0.356,0.237-0.56,0.298c-0.203,0.06-0.413,0.077-0.627,0.055   c-0.218-0.023-0.419-0.086-0.604-0.186c-0.186-0.101-0.347-0.235-0.483-0.404c-0.137-0.168-0.233-0.353-0.294-0.555   s-0.079-0.413-0.057-0.629c0.023-0.215,0.085-0.415,0.186-0.601c0.102-0.188,0.236-0.35,0.403-0.485   c0.168-0.137,0.354-0.234,0.555-0.294c0.203-0.06,0.413-0.079,0.633-0.059c0.217,0.023,0.417,0.085,0.604,0.186   C22.71,10.324,22.87,10.458,23.006,10.625L23.006,10.625z M20.099,13.002c0.156,0.15,0.277,0.322,0.361,0.516   c0.083,0.193,0.127,0.398,0.132,0.617c0.004,0.217-0.032,0.424-0.11,0.622c-0.078,0.196-0.191,0.372-0.341,0.527   c-0.151,0.157-0.325,0.278-0.52,0.364c-0.194,0.083-0.4,0.126-0.616,0.13c-0.219,0.003-0.426-0.033-0.621-0.11   c-0.196-0.077-0.373-0.191-0.529-0.343c-0.155-0.149-0.274-0.321-0.359-0.515c-0.084-0.193-0.128-0.399-0.132-0.617   c-0.004-0.216,0.033-0.422,0.111-0.618c0.076-0.199,0.19-0.375,0.34-0.531c0.15-0.156,0.323-0.275,0.516-0.359   c0.193-0.084,0.4-0.129,0.62-0.135c0.218-0.004,0.425,0.033,0.622,0.11C19.769,12.738,19.944,12.852,20.099,13.002L20.099,13.002z    M17.494,15.721c0.18,0.122,0.328,0.271,0.444,0.446c0.115,0.176,0.195,0.37,0.238,0.585c0.04,0.212,0.04,0.422-0.001,0.632   c-0.043,0.206-0.124,0.399-0.245,0.578c-0.122,0.181-0.271,0.331-0.448,0.448c-0.178,0.116-0.372,0.194-0.584,0.235   c-0.215,0.041-0.426,0.041-0.631-0.001c-0.207-0.042-0.4-0.124-0.58-0.245c-0.18-0.12-0.327-0.269-0.443-0.445   c-0.117-0.175-0.196-0.37-0.238-0.585c-0.041-0.211-0.04-0.421,0.002-0.628c0.042-0.208,0.124-0.402,0.243-0.581   c0.122-0.181,0.271-0.328,0.445-0.443c0.176-0.117,0.372-0.197,0.588-0.241c0.214-0.042,0.424-0.042,0.631,0.001   C17.122,15.519,17.314,15.601,17.494,15.721L17.494,15.721z M15.424,18.858c0.197,0.092,0.367,0.216,0.51,0.372   c0.142,0.154,0.25,0.334,0.326,0.54c0.074,0.203,0.106,0.411,0.098,0.623c-0.01,0.211-0.06,0.414-0.15,0.61   c-0.093,0.198-0.217,0.369-0.373,0.514c-0.157,0.142-0.337,0.25-0.54,0.323c-0.206,0.074-0.414,0.106-0.624,0.098   s-0.414-0.06-0.611-0.151c-0.195-0.091-0.364-0.214-0.507-0.37c-0.144-0.156-0.252-0.336-0.326-0.541   c-0.074-0.202-0.106-0.41-0.097-0.62c0.008-0.213,0.058-0.417,0.149-0.613s0.216-0.365,0.37-0.507   c0.156-0.143,0.337-0.253,0.543-0.33c0.204-0.074,0.412-0.107,0.623-0.098C15.025,18.716,15.229,18.767,15.424,18.858   L15.424,18.858z M13.872,22.291c0.21,0.056,0.398,0.148,0.566,0.277c0.166,0.127,0.305,0.286,0.415,0.475   c0.107,0.188,0.176,0.387,0.204,0.598c0.028,0.209,0.014,0.419-0.042,0.627c-0.057,0.211-0.149,0.401-0.278,0.57   c-0.13,0.167-0.288,0.305-0.476,0.413c-0.19,0.108-0.389,0.176-0.597,0.204c-0.21,0.027-0.419,0.013-0.629-0.043   c-0.209-0.056-0.396-0.148-0.564-0.276c-0.167-0.129-0.306-0.288-0.414-0.476s-0.176-0.386-0.203-0.595   c-0.029-0.211-0.016-0.421,0.041-0.63c0.057-0.21,0.148-0.397,0.276-0.563c0.129-0.168,0.287-0.308,0.477-0.42   c0.188-0.108,0.388-0.177,0.598-0.204C13.455,22.22,13.664,22.234,13.872,22.291L13.872,22.291z M12.936,25.932   c0.217,0.02,0.418,0.078,0.605,0.175c0.186,0.098,0.351,0.229,0.491,0.397c0.139,0.165,0.24,0.349,0.306,0.552   c0.063,0.202,0.085,0.41,0.066,0.624c-0.019,0.219-0.077,0.422-0.175,0.61c-0.1,0.188-0.23,0.351-0.396,0.489   c-0.168,0.14-0.353,0.241-0.553,0.306c-0.201,0.062-0.41,0.085-0.626,0.066s-0.417-0.077-0.604-0.175   c-0.188-0.098-0.351-0.229-0.491-0.396c-0.139-0.165-0.24-0.349-0.303-0.55c-0.065-0.203-0.088-0.412-0.069-0.627   c0.019-0.217,0.077-0.418,0.174-0.604c0.098-0.188,0.229-0.353,0.397-0.495c0.167-0.141,0.351-0.242,0.552-0.306   C12.513,25.936,12.721,25.915,12.936,25.932L12.936,25.932z M12.615,29.689c0.216-0.023,0.426-0.004,0.628,0.056   c0.201,0.06,0.387,0.158,0.558,0.295c0.168,0.136,0.303,0.298,0.405,0.483c0.101,0.187,0.162,0.387,0.186,0.601   c0.022,0.218,0.004,0.429-0.056,0.633c-0.062,0.202-0.16,0.388-0.296,0.555c-0.139,0.17-0.3,0.305-0.484,0.405   c-0.186,0.101-0.387,0.163-0.603,0.186c-0.215,0.022-0.423,0.004-0.626-0.056c-0.202-0.061-0.388-0.158-0.558-0.296   c-0.167-0.136-0.302-0.297-0.402-0.482c-0.102-0.187-0.164-0.387-0.188-0.603c-0.022-0.215-0.004-0.424,0.057-0.625   c0.061-0.202,0.157-0.39,0.295-0.562c0.137-0.17,0.299-0.306,0.484-0.406S12.401,29.71,12.615,29.689L12.615,29.689z    M12.984,33.421c0.212-0.053,0.422-0.064,0.63-0.033c0.208,0.032,0.405,0.104,0.594,0.215c0.186,0.112,0.342,0.253,0.468,0.424   c0.126,0.17,0.215,0.359,0.268,0.568c0.053,0.212,0.063,0.424,0.032,0.634c-0.031,0.209-0.104,0.406-0.215,0.592   c-0.113,0.188-0.255,0.343-0.423,0.468c-0.17,0.126-0.36,0.214-0.571,0.268c-0.209,0.052-0.418,0.062-0.627,0.031   c-0.209-0.03-0.407-0.103-0.594-0.215c-0.185-0.111-0.34-0.252-0.466-0.422c-0.127-0.171-0.217-0.36-0.269-0.57   c-0.053-0.21-0.063-0.419-0.032-0.627c0.031-0.209,0.103-0.408,0.215-0.598c0.111-0.187,0.253-0.344,0.422-0.469   C12.586,33.561,12.775,33.473,12.984,33.421L12.984,33.421z M13.936,37.054c0.203-0.078,0.409-0.114,0.62-0.109   c0.21,0.006,0.415,0.053,0.615,0.142c0.197,0.088,0.37,0.208,0.518,0.362c0.145,0.154,0.256,0.331,0.333,0.532   c0.078,0.204,0.115,0.412,0.11,0.625c-0.007,0.212-0.054,0.416-0.142,0.613c-0.09,0.2-0.211,0.371-0.363,0.517   c-0.153,0.146-0.331,0.257-0.533,0.335c-0.202,0.077-0.408,0.112-0.619,0.107c-0.211-0.006-0.416-0.053-0.615-0.142   c-0.197-0.087-0.368-0.208-0.514-0.361c-0.147-0.153-0.26-0.331-0.337-0.533c-0.078-0.203-0.113-0.409-0.107-0.618   c0.005-0.211,0.052-0.418,0.14-0.619c0.088-0.199,0.209-0.372,0.362-0.518C13.557,37.243,13.733,37.131,13.936,37.054   L13.936,37.054z M15.301,40.559c0.188-0.108,0.388-0.177,0.597-0.204c0.208-0.027,0.418-0.012,0.63,0.044   c0.208,0.056,0.397,0.147,0.566,0.276c0.167,0.13,0.306,0.287,0.413,0.474c0.109,0.189,0.179,0.39,0.206,0.601   c0.027,0.21,0.013,0.419-0.044,0.627c-0.058,0.212-0.15,0.4-0.277,0.567c-0.129,0.167-0.287,0.306-0.476,0.414   c-0.186,0.107-0.384,0.176-0.594,0.203c-0.209,0.028-0.419,0.014-0.63-0.043c-0.208-0.056-0.396-0.148-0.564-0.276   c-0.169-0.13-0.308-0.287-0.415-0.475c-0.108-0.188-0.176-0.386-0.203-0.595c-0.028-0.209-0.015-0.42,0.04-0.633   c0.057-0.211,0.149-0.399,0.277-0.567C14.957,40.805,15.114,40.667,15.301,40.559L15.301,40.559z M17.155,43.818   c0.174-0.13,0.362-0.222,0.567-0.275c0.203-0.052,0.413-0.062,0.63-0.033c0.214,0.029,0.412,0.099,0.597,0.206   c0.182,0.106,0.338,0.247,0.468,0.42c0.131,0.174,0.224,0.364,0.277,0.569c0.053,0.205,0.063,0.416,0.033,0.629   c-0.031,0.217-0.101,0.415-0.206,0.597c-0.107,0.182-0.248,0.338-0.422,0.469c-0.172,0.13-0.36,0.222-0.564,0.274   s-0.414,0.064-0.631,0.033c-0.213-0.029-0.411-0.099-0.593-0.205c-0.184-0.107-0.342-0.248-0.471-0.42   c-0.131-0.174-0.223-0.361-0.274-0.565c-0.053-0.204-0.065-0.415-0.036-0.634c0.029-0.216,0.099-0.415,0.206-0.596   C16.844,44.104,16.983,43.949,17.155,43.818L17.155,43.818z M19.457,46.788c0.159-0.148,0.337-0.259,0.535-0.334   c0.196-0.072,0.404-0.105,0.623-0.1c0.216,0.008,0.421,0.056,0.615,0.144c0.192,0.088,0.361,0.21,0.509,0.368   c0.149,0.16,0.261,0.339,0.336,0.538c0.073,0.198,0.106,0.406,0.099,0.622c-0.009,0.219-0.057,0.423-0.144,0.614   c-0.087,0.192-0.21,0.362-0.369,0.51c-0.158,0.147-0.336,0.259-0.533,0.332c-0.198,0.075-0.405,0.107-0.624,0.1   c-0.215-0.007-0.419-0.055-0.611-0.143c-0.194-0.088-0.364-0.21-0.512-0.368c-0.148-0.158-0.259-0.336-0.332-0.533   c-0.074-0.197-0.108-0.406-0.103-0.626c0.007-0.218,0.055-0.423,0.143-0.615S19.3,46.935,19.457,46.788L19.457,46.788z    M22.043,49.518c0.134-0.172,0.293-0.309,0.477-0.412s0.384-0.169,0.601-0.196c0.214-0.026,0.424-0.012,0.63,0.044   c0.203,0.058,0.39,0.152,0.56,0.285c0.172,0.134,0.312,0.294,0.416,0.479c0.104,0.186,0.169,0.384,0.194,0.599   c0.026,0.217,0.011,0.426-0.045,0.629c-0.057,0.205-0.151,0.392-0.285,0.563c-0.133,0.169-0.291,0.307-0.475,0.41   c-0.185,0.104-0.384,0.169-0.601,0.196c-0.214,0.026-0.423,0.011-0.627-0.045c-0.205-0.057-0.393-0.151-0.562-0.284   c-0.171-0.134-0.309-0.292-0.411-0.475c-0.104-0.184-0.171-0.386-0.199-0.604c-0.027-0.217-0.013-0.427,0.045-0.63   C21.816,49.875,21.911,49.688,22.043,49.518L22.043,49.518z M25.012,51.796c0.111-0.187,0.252-0.343,0.422-0.469   c0.169-0.124,0.36-0.213,0.572-0.268c0.209-0.052,0.419-0.064,0.63-0.032c0.209,0.031,0.406,0.103,0.591,0.214   c0.188,0.113,0.345,0.254,0.472,0.425c0.125,0.171,0.213,0.36,0.266,0.57c0.052,0.213,0.062,0.423,0.032,0.631   c-0.031,0.208-0.103,0.406-0.215,0.592c-0.111,0.186-0.252,0.341-0.421,0.466c-0.17,0.126-0.36,0.216-0.572,0.269   c-0.209,0.052-0.418,0.062-0.627,0.03c-0.211-0.029-0.409-0.102-0.594-0.213c-0.187-0.111-0.342-0.252-0.466-0.42   c-0.126-0.17-0.217-0.361-0.271-0.574c-0.053-0.212-0.063-0.422-0.032-0.632C24.829,52.177,24.9,51.979,25.012,51.796   L25.012,51.796z M28.267,53.68c0.081-0.201,0.195-0.378,0.344-0.527c0.147-0.149,0.322-0.269,0.522-0.354   c0.199-0.084,0.405-0.128,0.618-0.13c0.211-0.002,0.416,0.038,0.616,0.118c0.203,0.082,0.381,0.196,0.532,0.345   c0.15,0.15,0.269,0.324,0.352,0.523c0.085,0.201,0.129,0.407,0.131,0.616c0.002,0.212-0.038,0.418-0.12,0.62   c-0.08,0.2-0.195,0.375-0.342,0.525c-0.148,0.15-0.323,0.269-0.523,0.354c-0.198,0.085-0.403,0.128-0.614,0.13   c-0.214,0.002-0.42-0.037-0.62-0.117c-0.201-0.082-0.377-0.196-0.526-0.344c-0.15-0.147-0.271-0.323-0.358-0.524   c-0.084-0.2-0.128-0.406-0.13-0.617C28.146,54.085,28.186,53.879,28.267,53.68L28.267,53.68z M31.731,55.074   c0.089-0.198,0.21-0.37,0.362-0.516c0.152-0.145,0.331-0.256,0.535-0.336c0.201-0.076,0.409-0.112,0.621-0.108   c0.212,0.006,0.416,0.053,0.613,0.141c0.199,0.089,0.373,0.21,0.52,0.363c0.145,0.154,0.256,0.333,0.333,0.534   c0.077,0.205,0.114,0.412,0.108,0.622c-0.005,0.211-0.053,0.416-0.141,0.614c-0.088,0.197-0.208,0.368-0.361,0.514   s-0.331,0.257-0.535,0.336c-0.201,0.076-0.407,0.112-0.618,0.107c-0.214-0.005-0.418-0.052-0.615-0.14   c-0.199-0.088-0.37-0.208-0.514-0.361c-0.146-0.152-0.259-0.332-0.34-0.536c-0.077-0.203-0.114-0.411-0.108-0.621   C31.598,55.476,31.645,55.271,31.731,55.074L31.731,55.074z M35.153,56.58c0.099-0.194,0.228-0.359,0.388-0.497   c0.161-0.136,0.344-0.237,0.552-0.308c0.206-0.065,0.415-0.091,0.627-0.075c0.211,0.017,0.412,0.074,0.604,0.172   c0.194,0.099,0.361,0.23,0.5,0.391c0.137,0.162,0.238,0.346,0.305,0.551c0.067,0.209,0.092,0.418,0.076,0.627   c-0.018,0.21-0.075,0.412-0.174,0.606c-0.098,0.191-0.227,0.356-0.387,0.494c-0.161,0.137-0.345,0.239-0.553,0.307   c-0.205,0.066-0.412,0.092-0.623,0.075c-0.212-0.017-0.414-0.073-0.606-0.171c-0.194-0.1-0.358-0.228-0.494-0.389   c-0.138-0.16-0.241-0.345-0.311-0.554c-0.068-0.207-0.093-0.416-0.076-0.626C34.997,56.973,35.056,56.771,35.153,56.58   L35.153,56.58z M38.469,58.289c0.108-0.188,0.247-0.347,0.414-0.476c0.167-0.127,0.356-0.22,0.567-0.276   c0.208-0.057,0.418-0.071,0.629-0.044c0.21,0.027,0.408,0.096,0.595,0.203c0.189,0.109,0.349,0.248,0.479,0.416   c0.129,0.17,0.22,0.358,0.276,0.566c0.056,0.212,0.07,0.421,0.043,0.629c-0.027,0.21-0.097,0.409-0.205,0.597   c-0.107,0.187-0.245,0.345-0.412,0.474c-0.167,0.128-0.356,0.221-0.567,0.277c-0.209,0.057-0.417,0.07-0.627,0.042   c-0.211-0.026-0.41-0.095-0.597-0.202c-0.188-0.108-0.346-0.246-0.473-0.413c-0.13-0.167-0.223-0.357-0.282-0.569   c-0.056-0.211-0.071-0.42-0.043-0.629C38.294,58.674,38.361,58.477,38.469,58.289L38.469,58.289z M58.099,65.259   c0.142-0.164,0.308-0.294,0.497-0.388c0.188-0.094,0.391-0.148,0.608-0.164c0.216-0.016,0.425,0.011,0.627,0.077   c0.2,0.068,0.382,0.172,0.545,0.313c0.165,0.143,0.295,0.311,0.391,0.5c0.094,0.189,0.147,0.394,0.162,0.608   c0.015,0.218-0.011,0.427-0.078,0.626c-0.066,0.199-0.172,0.382-0.313,0.546c-0.143,0.163-0.307,0.291-0.496,0.386   s-0.393,0.149-0.609,0.164c-0.215,0.016-0.424-0.011-0.624-0.078c-0.202-0.066-0.384-0.171-0.547-0.312   c-0.164-0.144-0.292-0.309-0.385-0.496c-0.096-0.189-0.151-0.393-0.169-0.613c-0.015-0.217,0.012-0.425,0.078-0.626   C57.852,65.603,57.956,65.421,58.099,65.259L58.099,65.259z"/>
</g>
</svg>