<?xml version="1.0" encoding="utf-8"?>
<!-- Generator: Adobe Illustrator 17.1.0, SVG Export Plug-In . SVG Version: 6.00 Build 0)  -->
<!DOCTYPE svg PUBLIC "-//W3C//DTD SVG 1.1//EN" "http://www.w3.org/Graphics/SVG/1.1/DTD/svg11.dtd">
<svg version="1.1" id="Layer_1" xmlns="http://www.w3.org/2000/svg" xmlns:xlink="http://www.w3.org/1999/xlink" x="0px" y="0px"
	 viewBox="10.9 21.8 78.2 56.5" enable-background="new 10.9 21.8 78.2 56.5" xml:space="preserve">
<path d="M88.9,48.6l-3.1-6.1l-1.4-6.2l-0.5-0.8l-3-2.6l-0.1-0.2l-1.5-1.2l-2.1-1.8l-0.4-0.2l-0.7-0.5l-7.9-1.3l-0.5-1.9l-1.6-1.1
	l-9.4,0.2l-0.4,0.1l-0.8,0.2L52,22.6l-0.6,0.1L50.4,22l-1.2-0.3l-18.4,3l-0.9,1.8l-2.4,1l-6.1,1.2l-0.8,1.6L19.1,31l-0.4,7.2
	l2.5,6.9l-7.1,2.9l-1,1.3l-0.6,4.9l0.1,0.9l1,2.1l-2.8,3.4l3.8,8.3l0.9,7.2l23,2.3l24.5-3.9l19.7-11l6.2-7L88.9,48.6z M56.8,26.2
	l9.4-0.2l2.2,7.3l-13.8,2.3l-9.2-6L56.8,26.2z M49.5,23.3l4.1,2.8l-4.2,0.2l-14.3,8.4l-4.1-8.4L49.5,23.3z M29.8,28.7l4.9,7.2
	l-2.1,2.6l-7.1-1.4l-3.8-6.9L29.8,28.7z M37.1,67.8l-6-1.7l-11.3,0.2l-5.7-12l0.6-4.9l10.8-4.3l15.8,18.1L37.1,67.8z M45.3,51.4
	l-8.7-10.6l8.7-4.7l7.1,3.4l5.2,7.7L45.3,51.4z M63.1,50.2l-8.5-10.5L70.4,37l-1.1-7.4l6.9,1.1l6.7,5.9l1.8,7.9L63.1,50.2z"/>
</svg>
