<?xml version="1.0" encoding="utf-8"?>
<!-- Generator: Adobe Illustrator 17.1.0, SVG Export Plug-In . SVG Version: 6.00 Build 0)  -->
<!DOCTYPE svg PUBLIC "-//W3C//DTD SVG 1.1//EN" "http://www.w3.org/Graphics/SVG/1.1/DTD/svg11.dtd">
<svg version="1.1" id="Layer_1" xmlns="http://www.w3.org/2000/svg" xmlns:xlink="http://www.w3.org/1999/xlink" x="0px" y="0px"
	 viewBox="0 0 100 100" enable-background="new 0 0 100 100" xml:space="preserve">
<g>
	<path d="M67.8,40L65.6,7.9h-4.9l-1.6,23.7h-3.3v-8.5H29.2v17.3C19.1,41.9,9.3,44.3,0,47.8V100h22.2c0-6.9,6.9-11.1,6.9-19.4
		c0-8.3-5.6-12.5-5.6-19.4h-4.2L27.8,50l8.3,11.1h-4.2c0,6.9,5.6,11.1,5.6,19.4s-6.9,12.5-6.9,19.4h13.9c0-6.9,6.9-11.1,6.9-19.4
		s-5.6-12.5-5.6-19.4h-4.2L50,50l8.3,11.1h-4.2c0,6.9,5.6,11.1,5.6,19.4s-6.9,12.5-6.9,19.4h13.9c0-6.9,6.9-11.1,6.9-19.4
		s-5.6-12.5-5.6-19.4h-4.2L72.2,50l8.3,11.1h-4.2c0,6.9,5.6,11.1,5.6,19.4S75,93.1,75,100h25V47.8C89.8,44,79,41.4,67.8,40z" fill='white'/>
	<path d="M40.7,4.9h12.2c2.1,0,8.5,0,8.5,1.2H65c0-4.9-6.7-4.9-12.2-4.9H40.7c-2.2,0-6.6-0.7-7.9-1.2C33,0.1,34.6,4.9,40.7,4.9z" fill='white'/>
</g>
</svg>
