<svg xmlns:x="http://ns.adobe.com/Extensibility/1.0/" xmlns:i="http://ns.adobe.com/AdobeIllustrator/10.0/" xmlns:graph="http://ns.adobe.com/Graphs/1.0/" xmlns="http://www.w3.org/2000/svg" xmlns:xlink="http://www.w3.org/1999/xlink" version="1.1" id="Calque_1" x="0px" y="0px" width="100px" height="100px" viewBox="0 0 100 100" enable-background="new 0 0 100 100" xml:space="preserve">
<metadata>
	<sfw xmlns="http://ns.adobe.com/SaveForWeb/1.0/">
		<slices/>
		<sliceSourceBounds height="100.229" width="67.549" y="247.268" x="387.215" bottomLeftOrigin="true"/>
	</sfw>
</metadata>
<rect x="53.171" y="6.942" fill="#000000" width="19.729" height="2.902"/>
<path fill="#000000" d="M62.768,0.003c-2.746,0-4.973,2.226-4.973,4.972h9.939C67.734,2.229,65.512,0.003,62.768,0.003z"/>
<path fill="#000000" d="M76.622,55.557v-4.768v-1.714h-1.59l-5.536-29.112l3.402-8.151h-4.953h-3.271L66.93,22.94h-7.457  L61.4,11.812h-2.297h-0.976H53.17l3.898,6.509l-5,30.754h-1.88v-6.024v-1.715h-1.715H38.462v-3.292h-1.716h-6.584h-1.713v-0.001  l-0.002,3.293H18.43h-1.715v1.715v24.507v3.348h3.316h0.113h1.884l13.393,20.728v8.599h4.589V70.906h7.559v25.675v0.231l4.594,3.418  V70.906h8.813v20.677l-0.031,0.052h0.031v8.596h4.578v-8.646l13.395-20.678h1.965h3.35v-3.348v-8.57v-2.942v-0.489H76.622z   M35.421,84.355l-8.4-13.449h8.4V84.355z M46.326,66.764H20.822V45.311h25.504V66.764z M68.102,29.836l2.395,12.875H58.631  L68.102,29.836z M59,26.576h7.49l-9.652,12.931L59,26.576z M55.784,46.346h15.457l0.519,2.729H55.34L55.784,46.346z M65.555,84.508  V70.906h8.348L65.555,84.508z M80.794,66.749L80.794,66.749H50.488V53.184h22.411v5.469l7.896-0.02V66.749z"/>
</svg>