<svg xmlns="http://www.w3.org/2000/svg" xmlns:xlink="http://www.w3.org/1999/xlink" version="1.1" x="0px" y="0px" width="100px" height="100px" viewBox="0 0 100 100" enable-background="new 0 0 100 100" xml:space="preserve">
<g id="Captions">
</g>
<g id="Your_Icon">
	<g>
		<path d="M41.286,33.143c0,6.857-5.452,12.062-12.144,12.062C22.286,45.204,17,40,17,33.143C17,26.452,22.286,21,29.143,21    C35.834,21,41.286,26.452,41.286,33.143z M85.896,72.961c0,0.992-0.33,1.818-0.991,2.479c-0.578,0.579-1.321,0.826-1.982,0.826    c-0.165,0-2.892,0-5.534,0c-0.744,0-1.239-0.579-1.818-0.991l-7.765-6.195v6.69c0,2.148-2.147,4.131-4.214,4.131H21.129    C19.065,79.9,17,77.835,17,75.77V51.979c0-2.147,1.733-4.213,4.129-4.213h42.462c2.396,0,4.214,2.065,4.214,4.213v6.36    l7.765-6.195c0.579-0.413,1.074-0.991,1.818-0.991c2.643,0,5.369,0,5.534,0c0.661,0,1.404,0.248,1.982,0.826    c0.661,0.66,0.991,1.486,0.991,2.479V72.961z M23.691,33.143c0,2.975,2.478,5.453,5.451,5.453s5.453-2.479,5.453-5.453    c0-3.057-2.479-5.452-5.453-5.452S23.691,30.086,23.691,33.143z M59.461,56.109H25.343v15.448h34.118V56.109z M67.969,33.143    c0,6.857-5.534,12.062-12.391,12.062c-6.609,0-12.144-5.204-12.144-12.062c0-6.69,5.534-12.143,12.144-12.143    C62.435,21,67.969,26.452,67.969,33.143z M50.126,33.143c0,2.975,2.561,5.453,5.452,5.453c3.222,0,5.7-2.479,5.7-5.453    c0-3.057-2.479-5.452-5.7-5.452C52.687,27.69,50.126,30.086,50.126,33.143z M79.287,57.844h-0.413l-7.104,5.948l6.94,5.781h0.577    V57.844z"/>
	</g>
</g>
</svg>