<?xml version="1.0" encoding="utf-8"?>
<!-- Generator: Adobe Illustrator 16.0.0, SVG Export Plug-In . SVG Version: 6.00 Build 0)  -->
<!DOCTYPE svg PUBLIC "-//W3C//DTD SVG 1.1//EN" "http://www.w3.org/Graphics/SVG/1.1/DTD/svg11.dtd">
<svg version="1.1" id="Layer_1" xmlns="http://www.w3.org/2000/svg" xmlns:xlink="http://www.w3.org/1999/xlink" x="0px" y="0px"
	 width="100px" height="99.993px" viewBox="0 0.004 100 99.993" enable-background="new 0 0.004 100 99.993" xml:space="preserve">
<path d="M25.087,58.823c-0.018,0.019-0.034,0.036-0.052,0.055c0.021,0.021,0.037,0.047,0.059,0.067L25.087,58.823z"/>
<path d="M76.827,93.759V57.982l19.571,3.602l-8.043-12.486l7.203,1.804L87.514,36.62l4.442,0.84L71.428,0.004L50.898,37.459
	l4.441-0.846l-8.044,14.29l7.204-1.805l-8.044,12.486l19.567-3.603v35.775H50.059V78.635h9.724v-5.4H44.419l-0.059-0.039
	c0.195-0.272,0.296-0.598,0.296-0.924c0-0.932-0.805-1.68-1.801-1.68c-0.544,0-1.062,0.227-1.403,0.625l-0.036-0.027
	c-2.882-0.598-5.165-1.08-8.405-1.205c0-3.235-1.201-7.194-2.641-10.082l-0.117-0.117l0.104,0.098
	c1.826-0.768,3.016-2.559,3.016-4.539c0-2.715-2.205-4.924-4.924-4.924c-2.717,0-4.921,2.209-4.921,4.924
	c0,1.339,0.548,2.607,1.507,3.534c0.018-0.019,0.034-0.036,0.052-0.055l0.007,0.122c-0.022-0.021-0.038-0.047-0.059-0.067
	c-5.606,5.744-8.711,11.253-8.711,17.953c0,5.405,2.042,6.129,3.363,7.086h-8.884v3.603h7.92v6.239H0v6.238h100v-6.238H76.827z
	 M32.171,93.758h-8.04v-6.24h7.083v-3.602c0.478,0.234,0.957,0.359,0.957,1.799V93.758z M42.857,93.757h-3.602
	c1.081-0.118,1.205-1.323,0.358-1.557c-1.198-0.482-3-1.205-3-1.205v-7.804c0-0.957-0.479-1.562-1.918-2.161
	c-1.804-0.718-5.646-2.162-7.327-2.88c-1.68-0.721-1.68-1.196-1.68-2.278s1.088-2.162,2.882-4.44
	c0.843,1.079,2.644,1.803,4.441,1.803h0.001v5.4h9.845V93.757z"/>
</svg>
