<svg xmlns="http://www.w3.org/2000/svg" xmlns:xlink="http://www.w3.org/1999/xlink" version="1.1" id="Layer_1" x="0px" y="0px" width="100px" height="94.165px" viewBox="0 0 100 94.165" enable-background="new 0 0 100 94.165" xml:space="preserve">
<path id="sharethis-circle-outline-icon" d="M49.921,9.134c10.124,0,19.643,3.943,26.803,11.102  c7.16,7.16,11.102,16.679,11.102,26.805c0,10.125-3.942,19.645-11.102,26.804c-7.16,7.159-16.68,11.102-26.803,11.102  c-10.125,0-19.644-3.942-26.803-11.102c-7.16-7.159-11.103-16.679-11.103-26.804c0-10.126,3.943-19.646,11.103-26.805  C30.278,13.077,39.796,9.134,49.921,9.134 M49.921,0C23.942,0,2.881,21.061,2.881,47.042c0,25.979,21.061,47.041,47.041,47.041  c25.979,0,47.04-21.062,47.04-47.041C96.961,21.061,75.9,0,49.921,0L49.921,0z M62.636,53.896c-2.7,0-5.128,1.164-6.808,3.017  l-16.445-8.12c0.098-0.535,0.151-1.086,0.151-1.65c0-0.113-0.005-0.225-0.009-0.339l17.012-8.936  c1.623,1.442,3.758,2.318,6.099,2.318c5.076,0,9.19-4.115,9.19-9.19c0-5.077-4.114-9.191-9.19-9.191s-9.19,4.114-9.19,9.191  c0,0.378,0.025,0.751,0.07,1.119l-16.529,8.682c-1.673-1.752-4.03-2.845-6.644-2.845c-5.076,0-9.191,4.116-9.191,9.191  c0,5.076,4.115,9.19,9.191,9.19c2.138,0,4.104-0.731,5.665-1.955l17.44,8.61c-0.001,0.033-0.003,0.066-0.003,0.1  c0,5.076,4.114,9.191,9.19,9.191s9.19-4.116,9.19-9.191C71.826,58.01,67.712,53.896,62.636,53.896z"/>
</svg>