<?xml version="1.0" encoding="utf-8"?>
<!-- Generator: Adobe Illustrator 17.1.0, SVG Export Plug-In . SVG Version: 6.00 Build 0)  -->
<!DOCTYPE svg PUBLIC "-//W3C//DTD SVG 1.1//EN" "http://www.w3.org/Graphics/SVG/1.1/DTD/svg11.dtd">
<svg version="1.1" id="Layer_1" xmlns="http://www.w3.org/2000/svg" xmlns:xlink="http://www.w3.org/1999/xlink" x="0px" y="0px"
	 viewBox="4.5 0 46.2 99" enable-background="new 4.5 0 46.2 99" xml:space="preserve">
<path d="M27.4,0.1V0C27.4,0,27.4,0,27.4,0.1c0-0.1,0-0.1,0-0.1L27.4,0.1C25.9,20.7,5.1,50.8,4.5,66.7C3.8,82.4,27.3,98.8,27.6,99v0
	c0,0,0,0,0,0c0,0,0,0,0,0v0c0.3-0.2,23.7-16.6,23.1-32.3C50,50.8,28.8,20.7,27.4,0.1z M27.5,96c0,0-20.6-17.9,1.1-38.2
	C28.6,57.7,48.6,75.4,27.5,96z" fill="white"/>
</svg>
