<?xml version="1.0" encoding="utf-8"?>
<!-- Generator: Adobe Illustrator 17.1.0, SVG Export Plug-In . SVG Version: 6.00 Build 0)  -->
<!DOCTYPE svg PUBLIC "-//W3C//DTD SVG 1.1//EN" "http://www.w3.org/Graphics/SVG/1.1/DTD/svg11.dtd">
<svg version="1.1" id="Layer_1" xmlns="http://www.w3.org/2000/svg" xmlns:xlink="http://www.w3.org/1999/xlink" x="0px" y="0px"
	 viewBox="5.2 21.9 89.6 58.8" enable-background="new 5.2 21.9 89.6 58.8" xml:space="preserve">
<path d="M67.4,32.6C67.8,32.7,67.3,32.5,67.4,32.6C67.4,32.6,67.4,32.6,67.4,32.6z"/>
<path d="M84.6,46.4c-0.2,0-0.4,0-0.4,0s-0.2,1.5-0.1,1.9C84.4,47.9,84.6,47,84.6,46.4z"/>
<path d="M86.9,40c-0.2,0.2-0.2,0.3-0.3,0.5c0.9,0.1,2-0.7,2.5-1.6c-0.3,0.1-0.7,0.5-1,0.5c0.1-0.1,0.2-0.2,0.2-0.3
	C87.8,39.3,87.3,39.7,86.9,40z"/>
<path d="M27.2,39.9c-0.1,0.5-0.2,1.1-0.2,1.6c3.4,0.5,6.8,0.8,10.2,1.1c0.1-1.9,0.3-3.8,0.4-5.7c0-0.6,0.1-1.1,0.1-1.7
	c0-0.4-0.8-0.3-1.1-0.3c-1.1-0.1-2.1-0.2-3.2-0.3c-0.9-0.1-1.9-0.2-2.8-0.3c-0.6-0.1-2.5-0.6-2.5-0.1C27.7,36.2,27.4,38,27.2,39.9z"
	/>
<path d="M73.5,47.9c0.3,0.4,0.7,0.7,1.1,1c0.7,0.4,1.3-0.2,1.9-0.4c0-0.8,0.4-1.5,0.6-2.2c0.1-0.3,0.3-0.4,0.6-0.4
	c0.4,0,1-0.7,1.1-1.2c-0.3,0.2-0.5,0.5-0.7,0.7c-0.6,0.6-1-0.4-1-0.9c-0.4,0.1-0.9,0.2-1.3,0.2c-0.3,0-1.2,1.1-1.4,1.4
	c-0.3,0.4-0.4,0.6-0.5,1.1C73.9,47.4,73.6,47.7,73.5,47.9C73.5,47.9,73.5,47.9,73.5,47.9z"/>
<path d="M58.5,37.8c0.2,0.4,0,1.3,0.4,1.4c0.1,0,0.2,0.1,0.3,0.2c0.5,0.4,2.9-0.1,3.7-0.2c-0.1-0.6-0.3-1.1-0.1-1.7
	c0.1-0.3,0.2-1.4,0.2-1.7c-1.4,0.3-0.3-1.5-0.4-1.7c-0.1-0.3-0.3-0.5-0.3-0.9c-0.2,0-0.4-0.2-0.5-0.4c-0.3,0-0.5,0-0.8,0
	c-0.9-0.2-1.6-0.5-2.4-0.9c-0.4-0.2-0.7,0.1-1-0.2c-0.3-0.3,0.1-0.3-0.5-0.1c-0.2,0.1-0.7,0-0.6,0.3c0,0.5,0,1-0.4,1.3
	c-0.3,0.2-0.5,0.2-0.2,0.5c0.3,0.4,0,1.1,0.1,1.6c0,0.1,0.8,0.4,0.9,0.5c0.4,0.3,0.8,0.6,1.1,0.9C58.3,37,58.2,37.5,58.5,37.8z"/>
<path d="M81.2,45.1c-0.2,0-1.1-0.1-1.3-0.3c-0.1,0.7-0.7,1-0.9,1.6c0,0.2-0.1,0.3-0.2,0.4c-0.1,0-0.1,0.1-0.2,0.1
	c-0.5,0.2-0.4-0.2-0.6,0.4c-0.1,0.3-0.4,0.7-0.4,1.1c0,1.1-1.5,1.7-2.4,1.7c-0.8,0-1.2-0.2-1.7,0.8c3.4-0.5,6.8-1.1,10.2-1.8
	c-0.6-0.8-0.4-1.7-1-2.2c-0.4,0-1.4-0.2-1.6-0.6C81,46,81.2,45.1,81.2,45.1C81.1,45.1,81.2,45.1,81.2,45.1z"/>
<path d="M26.2,42.5c-0.7-0.1-0.4-1.2-0.3-1.7c0.1-0.8-0.1-0.6-0.8-0.7c-0.9-0.1-1.8-0.3-2.8-0.5c-0.6,3.1-1.1,6.2-1.7,9.3
	c-0.1,0.5,0.5,0.4,1,0.5c0.8,0.1,1.5,0.2,2.3,0.4c1.3,0.2,2.7,0.4,4.1,0.6c0.2-1.9,0.5-3.8,0.7-5.8c0-0.1,0.3-1.8,0.2-1.8
	C28,42.8,27.1,42.6,26.2,42.5z"/>
<path d="M53.2,60.1c-0.3-0.3-0.9-0.5-1.3-0.5c-0.9-0.1-1.6,0.7-2.3,0.1c-0.4-0.4-0.9,0.7-1.4,0c-0.4-0.1-0.3,0-0.8,0
	c-0.2,0-0.4-0.1-0.6-0.3c-0.3-0.3-0.3-0.1-0.7-0.2c-0.7-0.3-3-0.8-3-1.8c0.1-0.9,0.1-1.9,0.1-2.8c-0.4,0-4.2-0.2-4.2-0.2
	c-0.1,1.6-0.2,3.3-0.4,4.9c-0.1,0.8-0.1,1.6-0.2,2.4c0,0.3,0.1,0.9-0.1,1.2c0,0.7-0.9,0.5-1.3,0.5c-1.5-0.1-3-0.2-4.5-0.4
	c0.7,0.7,1.5,1.5,2,2.4c0.6,1.1,0.6,1.9,1.6,2.7c0.3,0.2,0.6,0.4,0.9,0.6c0.3-0.5,0.7-1.1,1.3-1.4c1-0.5,2.2-0.2,3,0.6
	c1.3,1.2,1.8,3.1,3,4.4c0.3,0.3,0.2,0.7,0.3,1c0,0.4,0.5,1.2,0.8,1.6c0.2,0.2,0.6,0.1,0.8,0.2c0.5,0.2,0.9,0.3,1.3,0.4
	c-0.5-2,0-3.8,1.8-4.9c0.1-0.5,0.6-0.7,1-0.7c0.5,0,0.9-0.3,1.3-0.7c0.4-0.3,0.7-2.3,1.6-1.3c1.3-0.4,0.9-0.9,1.1-2
	c0.1-0.6,0.3-0.8,0-1.4c-0.2-0.4-0.6-0.9-0.7-1.3c-0.1-0.5,0-1.1-0.1-1.6c0-0.4,0-0.8,0-1.2C53.7,60.1,53.5,60.4,53.2,60.1z"/>
<path d="M70.6,54.7c0.2-0.7,0.8-1.1,1.4-1.4c0.4-0.2,0.7-0.6,1-0.9c0.2-0.2,0.8-0.4,1.1-0.5c-2.6,0.4-5.2,0.7-7.9,0.9
	c-0.6,0.1-1.2,0-1.6,0.4c-0.2,0.2-0.5,0.1-0.8,0.2c-0.2,0-1.6,0-1.6,0.2c-0.2,0.7-0.6,1.5-0.7,2.2c1.4-0.1,2.8-0.2,4.2-0.4
	C66.1,55.2,70.5,55.1,70.6,54.7z"/>
<path d="M38.5,38.4c1.7,0.1,3.4,0.2,5.1,0.3c1,0,1.9,0.1,2.9,0.1c0.4,0,0.6,0.2,0.9,0.4c0.6-0.4,1.3,0,1.8,0.1
	c0.1-0.5-0.3-1.1,0-1.4c0.2-0.3,0.1-0.7,0.1-1.1c0-0.7,0-1.4,0-2.1c0-0.4-0.8-0.6-0.6-1.2c-2.5,0-5.1-0.1-7.6-0.2
	c-0.7,0-1.3-0.1-2-0.1c-0.3,0-0.2,1.3-0.3,1.6C38.4,35.9,38.5,37.2,38.5,38.4z"/>
<path d="M73.5,55.3c0,0,2.9,2.6,3.4,3c0.8,0.7,0.5,1.2,1.7,0.6c1.2-0.6,1.3-1.7,1.9-2.7c0.3-0.5-0.9-1-1.3-1.3
	c-0.5-0.3-1.3,0.3-1.8,0.2c-0.6,0.1-0.4-0.6-0.9-0.6c-0.5,0-1,0-1.6,0.1C74.6,54.8,73.7,55.1,73.5,55.3z"/>
<path d="M76.7,43.1c1.2-0.2,2.5-0.4,3.7-0.7c1.3-0.3,2.8-0.4,3.7-1.4c-0.4-0.3-0.9-0.8-0.7-1.3c-0.2-0.3,0.2-1,0.2-1
	c-0.3-0.2-0.3-0.4-0.5-0.6c-0.5-0.5-3.3,0.5-3.9,0.6c-0.6,0.1-2.9,1-3.4,0.4c-0.2-0.2,0,1.6,0.1,1.7c0.1,0.8,0.3,1.6,0.4,2.4
	C76.4,43.2,76.6,43.2,76.7,43.1z"/>
<path d="M19,30.5c-0.4-0.5-1.2-0.5-1.8-0.6c-1.7-0.4-3.3,0-5-0.6c-0.7-0.2-1.5,0.3-2-0.6c-0.1-0.2,0-0.9-0.2-1
	c-0.5-0.2-0.5-0.3-0.7,0.4c-0.5,2-1.3,4-2.5,5.6c0.1,0.3-0.2,1.3-0.1,1.4c0.6,0.2,1.2,0.3,1.8,0.5c1,0.3,1.9,0.5,2.9,0.8
	c1.8,0.5,3.7,0.9,5.5,1.3c0.2-1.1,0.5-2.2,0.7-3.3c0.1-0.4,0.3-0.3,0.1-0.7c-0.3-0.5,0-1,0.4-1.4C18.3,31.8,19.3,30.8,19,30.5z"/>
<path d="M39,53.2c1.2,0.2,2.4,0.1,3.6,0.2c0.4,0,1.7-0.1,1.7,0.4c0,0.8-0.1,1.6-0.1,2.4c0,0.3,0,0.6,0,0.9c0,0.4,0.5,0.1,0.7,0.2
	c0.5,0.1,0.5,0.6,1.1,0.7c0.4,0,1.1-0.1,1.4,0.2c0.4,0.3-0.1,0.3,0.4,0.3c0.2,0,0.3,0.1,0.4,0.2c0.4,0.1,0.6-0.1,1-0.1
	c0.4,0,0.7,0.1,0.9,0.4c0.3-0.2,0.7-0.3,1-0.3c0.6-0.1,1.1-0.1,1.7,0.2c0-0.9,0-1.8,0-2.7c0-1-0.4-1.9-0.4-2.9
	c0-0.5-1.2-0.2-1.6-0.2c-1,0-2,0-3,0c-1.6,0-3.3-0.1-4.9-0.2c-0.7,0-1.4-0.1-2.2-0.1c-0.5,0-0.9,0-1.4-0.1
	C39,52.5,39.1,52.9,39,53.2z"/>
<path d="M69.5,45.9c0.8,0.1,0.9,0.7,1.7,0.6c0.7-0.1,1.1-0.3,1.7,0.2c0.1-0.7,0.6-1.3,1-1.9c0.4-0.5,0.8-0.2,0.9-1
	c0.1-0.5,0.1-0.9,0-1.4c-0.1-0.8-0.1-1.5-0.2-2.3c-0.8,0.5-1.7,1.6-2.8,1.4c-0.9-0.2-1.4-0.4-2.4-0.2c-0.4,0.1-0.5,0-0.4,0.4
	c0.1,0.6,0.1,1.1,0.2,1.7C69.3,44.2,69.4,45,69.5,45.9z"/>
<path d="M85.1,38.4c0.2-0.6,0.6-0.1,0.4-0.9c0-0.2-0.1-0.4-0.1-0.6c-0.2-0.5,0.1-1.1,0-1.6c0-0.4-0.2-1.1-0.4-1.3
	c-0.5-0.4-0.7-2.2-0.8-2.8c-0.5,0.1-0.9,0.3-1.4,0.3c-0.8,0.1-0.9,1.1-1.3,1.7c-0.4,0.5,0.1,0.6,0,1.1c0,0.6-0.6,1.3-1.2,1.6
	c-0.9,0.4-1.8,0.1-2.7,0.4c0.5,0.8-0.2,1.5-0.7,2.1c1.5-0.3,3.1-0.6,4.6-0.9c1-0.2,1.7-0.6,2.5,0.3C84.4,38.1,84.6,38.3,85.1,38.4z"
	/>
<path d="M18.4,50.9c0.3-0.1,0.6-0.1,0.9,0.1c0.3-1.2,0.4-2.7,0.7-4c0.4-2,0.7-4,1.1-5.9c0.1-0.5,0.2-1,0.3-1.5
	c0-0.2-1.4-0.3-1.6-0.4c-1.4-0.3-2.8-0.6-4.2-0.9c-0.6-0.1-1.2-0.3-1.9-0.4c-0.9-0.2-0.7,0-0.9,0.8c-0.4,1.5-0.7,3-1.1,4.5
	c-0.1,0.2,0.5,0.8,0.6,0.9c0.6,0.8,1.1,1.6,1.7,2.5c0.9,1.3,1.7,2.5,2.6,3.8c0.5,0.7,0.9,1.3,1.4,2C17.9,51.9,17.8,51.2,18.4,50.9
	C18.6,50.9,17.8,51.2,18.4,50.9z"/>
<path d="M30.9,62c0.3-0.6,1.6-0.2,2.1-0.1c1.5,0.1,2.9,0.2,4.4,0.3c0.2-2.8,0.4-5.6,0.6-8.4c0-0.3,0-0.7,0.1-1
	c0.3-0.6-0.9-0.4-1.3-0.4c-1.3-0.1-2.6-0.2-3.9-0.3c-0.6-0.1-1.2-0.1-1.8-0.2c-0.4,0-1.9-0.5-2.2-0.3c-0.1,0.1-0.1,0.9-0.1,1
	c-0.1,0.8-0.2,1.6-0.3,2.4c-0.2,1.9-0.5,3.9-0.7,5.8c-0.1,0.6-0.1,1.1-0.2,1.7c-0.1,0.4,0.8,0.3,1.1,0.4
	C28.7,61.2,30.5,62.8,30.9,62z"/>
<path d="M47.4,40.3c-0.4,0-0.6-0.4-1-0.5c-0.4-0.1-0.9,0-1.3,0c-0.8,0-1.6-0.1-2.4-0.1c-1.4,0-2.8-0.1-4.2-0.2
	c-0.1,0.8-0.1,1.5-0.2,2.3c-0.1,1-0.2,1,0.8,1.1c0.6,0,1.5-0.1,2,0.1c0.6,0.3,0.2,1.7,0.2,2.1c3.1,0.2,6.3,0.2,9.4,0.2
	c-0.5-0.7-0.3-1.6-0.5-2.3c-0.7-0.3-0.4-1.8-1-2.3C48.6,40.2,48.1,40.1,47.4,40.3z"/>
<path d="M44.1,32.3c1.7,0,3.3,0.1,5,0.1c-0.1-0.4-0.3-0.7-0.3-1.1c0-0.7,0-1.7-0.3-2.3c-0.2-0.5-0.4-1.3-0.2-1.9
	c0.1-0.3-0.7-0.2-0.8-0.2c-1.5,0-3-0.1-4.4-0.1c-0.7,0-1.4,0-2.1-0.1c-0.6,0-1.5-0.5-1.6,0.3c-0.1,1.7-0.2,3.4-0.4,5.1
	C40.7,32.2,42.4,32.3,44.1,32.3z"/>
<path d="M75.5,51.8c-0.3,0.6-0.8,0.9-1.3,1.2c-0.3,0.2-0.5,0.2-0.7,0.4c-0.4,0.4-1.3,0.7-1.5,1.1c1-0.1,1.8-0.8,2.8-0.9
	c0.7-0.1,1.6-0.3,2.2-0.1c0.2,0.1,0.6,0.5,0.7,0.5c0.3-0.1,0.7-0.1,1-0.2c0.9-0.1,1.1,0.2,1.8,0.7c0.6,0.5,0.9,0.8,1.6,0.7
	c0-0.5,0.3-0.9,0.6-1.3c0.2-0.2,0.5-0.5,0.7-0.6c-0.2-0.3-0.1-0.6,0.2-0.7c-0.5-0.1-0.9-0.8-0.3-1.1c0.4-0.2,1.4,0.3,1.6-0.3
	c-0.4,0-2.6,0.1-1.7-1c-1.4,0.3-2.7,0.5-4.1,0.8C78.4,51.2,75.7,51.3,75.5,51.8z"/>
<path d="M26.4,33.7c0.2-0.3,0.5-0.1,0.6-0.4c0-0.1,0.1-0.1,0.1-0.2c0.1-0.1,0.3-0.2,0.4-0.2c1,0.2,2,0.3,3,0.4
	c2.4,0.3,4.7,0.5,7.1,0.7c0.2-2.5,0.3-4.9,0.5-7.4c0,0-6.4-0.7-7.1-0.8c-2.4-0.3-4.9-0.7-7.3-1.1c-0.5-0.1-1.1-0.2-1.6-0.3
	c-0.1,0-0.4,1.4-0.3,1.7c0.2,0.4,0.2,0.9,0.5,1.3c0.3,0.4,0.5,0.7,0.7,1.2c0.1,0.2,0.5,0.1,0.6,0.4c0.2,0.5-0.4,1.4-0.5,1.9
	c0.8-0.5,1.1,1.1,1.1,1.6C24.4,33,25,33,25,33.6C25.5,33.5,26,33.6,26.4,33.7C26.5,33.5,26,33.6,26.4,33.7z"/>
<path d="M61,56.8c-0.3,0.6-0.6,1.3-0.9,1.9c-0.2,0.7-0.3,1.3-0.2,2.1c0,0.3,0.1,0.4,0.2,0.7c0.7,1.1-0.5,2-0.7,3.1
	c0.8-0.1,2.1-0.4,2.8-0.2c0.6,0,0.7,0.6,0.5,1c-0.3,0.8,1.1,0.1,1.5,0.2c-0.4-3-0.3-5.9-0.3-8.9C63,56.6,62,56.7,61,56.8z"/>
<path d="M50.1,33c0,0.3-0.1,0.5-0.3,0.7c0.9,0.5,0.5,3.1,0.5,4c2.3,0,4.6-0.1,7-0.2c-0.1-0.3-0.7-0.4-0.9-0.8
	c-0.4-0.6-1.2-0.4-1.4-1.2c-0.1-0.4-0.1-0.8-0.1-1.1c0.1-0.6-0.5-0.9-0.1-1.5c0.5-0.7,0.6-0.5,0.6-1.4c0-0.2,0.1-0.5,0.2-0.7
	c0.1-0.2,0.4-0.4,0.6-0.6c0.6-0.5,1-1.3,1.7-1.7c-0.4-0.1-0.7,0.4-1.3,0.2c-0.2-0.1-0.3-0.2-0.5-0.3c-0.2-0.1-0.3,0.1-0.5,0
	c-0.5-0.1-0.7-0.7-1.1-0.7c-0.4,0-0.7,0.5-1.1,0.2c-0.3-0.2-0.7-0.2-1-0.3c-0.5-0.1-0.4-0.6-0.9-0.6c-0.7,0-1.4,0-2.1,0
	c0.1,0.4-0.1,0.9,0,1.3c0.3,1,0.4,2,0.5,3.1C49.8,31.9,50.1,32.4,50.1,33z"/>
<path d="M61.5,52.6c0.1-0.1,0.2-0.3,0.3-0.3c-0.6-0.4-0.5-1.2-0.8-1.7c-1.1,0.3-1.6-1.4-1.3-2.2c-0.9,0.2-0.7-0.9-1.2-1.2
	c-0.4-0.3-0.8-0.7-1-1.1c-0.4-0.9,0.1-1.2-1.1-1.1c-1.5,0.2-3,0.2-4.6,0.2c0.3,0.4,0.2,0.3,0.7,0.6c0.6,0.4,0.1,1,0.3,1.4
	c0.2,0.4,0.5,0.4,0.5,0.9c0,1.6,0.1,3.2,0.1,4.8c1.5,0,3-0.1,4.5-0.2c0.8-0.1,2.6-0.6,3.2,0.3C61.3,52.8,61.4,52.7,61.5,52.6z"/>
<path d="M59.2,62c-0.5-0.7-0.1-0.8-1-0.7c-0.5,0-1,0.1-1.5,0.1c-0.3,0-2,0-1.9,0.1c0,0.4,0,0.9,0,1.3c0,0.4,0.6,1.2,0.8,1.6
	c0.3,0.7-0.1,1.2-0.1,1.8c0,0.3,0.1,0.7,0,1c0.7-0.1,1.3,0.4,2,0.4c0.2-0.7,1.1-0.5,1.6-0.3c0.4,0.2,1.1,0.5,1.3,0.9
	c0.4,0.2,0.8-0.8,1.2-0.9c-0.6,0-1.2-0.6-0.8-1.3c0.3-0.5,0.8-0.2,0.9-0.8c-0.8,0.1-2,0.4-2.8,0.2C57.2,65.7,59.4,62.5,59.2,62
	C59.1,61.8,59.3,62,59.2,62z"/>
<path d="M69.6,47.2c-0.1,0.3-0.4,0.6-0.7,0.6c-0.3,0-0.5,0.5-0.7,0.8C68,49,68,49.2,67.8,49.5c-0.4,0.3-0.7,0.1-1,0.4
	c-0.2,0.2-1.1,0.4-1.4,0.3c-0.4-0.1-0.5,0-0.9,0.1c-0.1,0-0.5,1.2-0.5,1.3c-0.1,0.5-0.7,0.5-1.1,0.4c0,0.1,0,0.2,0,0.4
	c0.9-0.1,1.4-0.5,2.3-0.5c1.6-0.1,3.3-0.3,4.9-0.5c0.8-0.1,1.9-0.1,2.4-0.9c0.2-0.5,0.5-0.7,0.9-1c-0.4-0.3-1.1-1-1-1.6
	c0.1-0.4-0.6-0.1-0.7-0.1c-0.3,0-0.6,0-0.9,0C70.5,47.6,69.6,47.1,69.6,47.2z"/>
<path d="M48.9,46.3c-2.6,0-5.2-0.1-7.7-0.2c-0.1,1.8-0.2,3.6-0.3,5.4c3.8,0.2,7.7,0.2,11.5,0.2c0-1,0.4-3.2-0.3-4
	c-0.2-0.3-0.5-0.6-0.6-1c-0.1-0.5,0.1-0.5-0.3-0.4C50.5,46.3,49.7,46.3,48.9,46.3z"/>
<path d="M65.1,49c0.4,0,0.6-0.2,1-0.1c0.3-0.6,0.8-0.3,1.2-0.7c0.3-0.5,0.5-1.4,1.2-1.3c-0.2-0.5-0.1-1.3-0.2-1.9
	c-0.1-1.2-0.3-2.4-0.4-3.6c-0.8,0.1-1.5,0.2-2.3,0.3c-1.2,0.1-0.9,0.9-0.8,1.8c0.1,1,0.2,1.9,0.3,2.9c0.1,0.9,0.2,1.9-0.4,2.8
	C64.8,49,64.9,49,65.1,49z"/>
<path d="M60.3,40.6c0.3,0.5,0.1,1.2-0.3,1.6c-0.2,0.3-0.5,0.5-0.9,0.6c0.2,0.2,0.2,0.5,0.1,0.8c-0.4,0.9-1.2,1.7-0.2,2.5
	c0.4,0.3,0.8,0.6,0.9,1.1c0.8-0.1,1.2,0.7,0.9,1.4c-0.2,0.6-0.1,0.7,0.6,0.9c0.6,0.2,0.7,0.9,0.8,1.4c0.3-0.2,0.6,0,0.8-0.3
	c0.3-0.4,0.4-0.2,0.5-0.7c0.1-0.1,0-0.7,0-0.8c0.1-0.5,0.8-1.2,0.6-1.7c-0.3-0.5-0.1-1.4-0.2-2c-0.1-1.3,0-3-0.5-4.2
	c-0.2-0.3-0.2-0.9-0.5-0.9c-0.4,0-0.7,0.1-1.1,0.1c-0.5,0-1,0.1-1.5,0.1C60.2,40.5,60.2,40.6,60.3,40.6z"/>
<path d="M21.1,25.8c0.1-0.4,0.2-0.8,0.2-1.2c0.1-0.5-0.1-0.4-0.6-0.5c-0.2,1.1-0.5,2.3-0.7,3.4c-0.1,0.6-0.6,1.9-0.1,2.5
	c0.6,0.8,0.1,1.2-0.3,1.9c-0.1,0.2-0.9,1.1-0.8,1.2c0.3,0.4,0.1,1.1-0.2,1.5c-0.3,1-0.4,2.1-0.7,3.2c2.7,0.6,5.5,1.1,8.3,1.5
	c0.2-1.5,0.4-2.9,0.6-4.4c-0.1,0-0.3,0-0.4-0.1c-0.3-0.1-0.7-0.1-1.1-0.1c-0.4,0-0.7,0.5-1.1,0.1c-0.2-0.2-0.3-0.4-0.4-0.7
	c-0.1-0.4-0.4-0.4-0.5-0.8c-0.1-0.3-0.1-0.7-0.2-1c-0.1-0.5-0.7-0.1-1-0.6c-0.4-0.6,0.1-1.6,0.3-2.2c0-0.1-0.6-1-0.7-1.2
	C21.1,27.3,21.1,27,21.1,25.8z"/>
<path d="M56.3,38.6c-2,0.1-4.1,0.2-6.1,0.2c0.1,0.4-0.2,0.7-0.1,1.1c0.4,1.4,1,2.6,1.1,4.1c0.2,0.2,1.3,0,1.7,0c0.7,0,1.3,0,2-0.1
	c0.6,0,2.4-0.5,2.9,0c0.3-0.6-0.3-1.2,0.3-1.7c0.6-0.6,1.8-0.5,0.6-1.5c-0.7-0.6-1.3-1.1-1.2-2.1C57.2,38.5,56.8,38.6,56.3,38.6z"/>
<path d="M71.1,55.7c-0.5,0.1-1.1,0.1-1.6,0.2c0.3,1.2,0.7,2.3,1,3.5c0.2,0.6,0.6,1,0.8,1.6c0.1,0.4-0.2,0.7-0.2,1.1
	c0.1,0.3,0.2,0.6,0.2,1c0.1,0.6,0.2,0.9,0.9,0.8c1.3-0.1,2.5-0.2,3.8-0.3c0.1,0,0.4-0.6,0.8-0.6c0.2,0,0.4-1.4,0.4-1.5
	c0.2-0.7,0.2-0.5-0.1-1c-0.2-0.4-0.5-0.9-0.8-1.3c-0.8-0.8-1.7-1.4-2.5-2.2c-0.4-0.4-0.4-0.5-0.8-0.7c-0.3-0.1-0.6-0.4-0.7-0.7
	C72.3,55.4,71.4,55.7,71.1,55.7z"/>
<path d="M81.7,72.9c-0.2-1.2-0.4-2-1.1-3.1c-0.4-0.7-1-1.4-1.2-2.2c0.7,0.4,0.4,1,0.9,1.5c-0.2-0.3-0.2-0.7-0.3-1
	c-0.1-0.4-0.6-0.8-0.9-1.2c-0.4-0.6-0.8-1.2-1.1-1.8c-0.3-0.6-0.3-1-0.9-1.1c0,0.4-0.1,0.9-0.6,0.9c-0.5,0.1-0.7-0.3-1.2-0.3
	c-0.7,0.1-1.4,0.1-2.1,0.1c-0.6,0-1.2,0.1-1.8,0.1c-0.6,0-0.6-0.5-1.1-0.5c-1.1,0.1-2.2,0.3-3.3,0.4c0.1,0.2,0.2,0.6,0.1,0.8
	c1-0.3,2-0.3,2.9,0.2c0.4,0.2,0.6,0.8,1,0.7c0.4-0.1,0.7-0.3,1-0.5c0.4-0.2,0.2-0.4,0.5-0.5c1.1-0.3,1.6,1,2.3,1.5
	c0.7,0.5,1.1,0.5,1.1,1.4c0,0.4-0.1,0.9-0.1,1.3c0,0.2,0.2,0.7,0.4,0.4c0.5-0.8,0.5-0.1,0.1,0.4c-0.3,0.3,0.8,1.3,1.1,1.4
	c-0.1-0.1-0.1-0.2-0.1-0.3c0.3,0.3,0.8,1,0.9,1.5c0.3,0.7,1.1,0.7,1.5,1.3c0.1,0.2,0.2,0.7,0.3,0.7c0.5,0,0.7-0.1,0.8-0.6
	c0-0.4,0.4-0.6,0.6-0.9C81.7,73.5,81.8,73.3,81.7,72.9z M81,74.5c0-0.2,0-0.4,0-0.6C81,73.7,80.9,74.7,81,74.5
	C80.9,74.3,81,74.5,81,74.5z"/>
<path d="M33.8,51.1c2,0.2,4,0.3,6.1,0.4c0.1-2.5,0.2-5.1,0.4-7.6c-3-0.1-5.9-0.4-8.8-0.7c-0.3,0-1.4-0.3-1.4-0.1
	c-0.1,0.8-0.2,1.6-0.3,2.4c-0.2,1.7-0.4,3.4-0.6,5C30.6,50.8,32.2,50.9,33.8,51.1z"/>
<path d="M18,54.9c-0.1-1.6-1.8-3.2-2.7-4.5c-1.5-2.2-3-4.4-4.5-6.6c-0.4-0.6,0.1-1.6,0.3-2.3c0.3-1.3,0.6-2.7,1-4
	c0,0-5.4-1.6-5.8-1.7c-0.2,0.9-0.4,1.6-0.8,2.4C5,39,5.6,39.8,5.5,40.6c-0.2,1-0.3,1.6,0.2,2.6c0.4,0.7,0.2,1.1,0.8,1.6
	c0.1-1.1,1.5-0.6,1.8,0.1c-0.3-0.3-1-0.5-1.4-0.5c-0.5,0.1,0.1,1.1,0.1,1.3c-0.3-0.3-0.4-0.5-0.4-0.9C6,45.4,6.6,46.4,6.8,47
	c0.2,0.6-0.1,0.8-0.1,1.4c0,0.7,0.6,1.3,0.9,1.9c0.1,0.2,0.5,0.9,0.5,1.1c-0.1,0.4-0.3,0.5-0.1,0.9c0.4,0.7,1.2,1,1.9,1.4
	c0.3,0.2,0.6,0.3,0.9,0.5c0.5,0.3,0.3,0.6,0.5,1c0.4,0.5,1,0.6,1.3,1.3c0.1,0.4-0.1,1.7,0.4,1.7c1,0.1,2,0.2,3,0.3
	c0.7,0.1,0.8-0.2,0.8-0.6c0-0.2,0-0.5,0.1-0.8c0.1-0.2,0.2-0.4,0.4-0.5c0.2-0.2,0.2-0.5,0.3-0.8C18,55.2,17.9,55.6,18,54.9
	C18,54.9,17.9,55.1,18,54.9z M7.6,45.2c-0.1,0-0.1,0-0.1-0.1C7.5,45.1,7.5,45.1,7.6,45.2C7.5,45.2,7.5,45.1,7.6,45.2z M7.3,46.3
	c-0.1,0-0.1,0.1-0.2,0.1C7.1,46.3,7.2,46.2,7.3,46.3C7.3,46.3,7.3,46.3,7.3,46.3z"/>
<path d="M27.3,51.4c-2.3-0.3-4.6-0.6-6.8-1.1c-0.1,0.6-0.4,2.5-1.5,1.8c0,0.5-0.4,1.6-0.2,2c0.2,0.4,0.7,1.2,0.4,1.7
	c-0.1,0.2-0.3,0.3-0.4,0.3c-0.3,0.1-0.2,0.5-0.3,0.8c-0.2,0.4-0.7,0.5-0.3,0.9c0.4,0.4,0.2,0.9-0.2,1.1c1.5,0.9,3,1.8,4.6,2.6
	c0.9,0.5,1.5,0.6,2.6,0.8c0.6,0.1,1.4,0.5,1.5-0.2c0.3-2.1,0.5-4.3,0.8-6.4c0.1-0.7,0.2-1.5,0.3-2.2C27.7,52.9,28.3,51.4,27.3,51.4z
	"/>
<path d="M60.1,56c0.2-0.5,0.4-0.9,0.6-1.4c-0.6,0.2-1-0.5-0.7-1.1c-2.1,0.1-4.3,0.3-6.4,0.3c0.3,1.1,0.3,2.2,0.3,3.3
	c0,0.6,0,1.3,0,1.9c0,0,0.8,0.1,0.8,0.6c0.1,0.2,0,0.4,0,0.6c0.5,0,4.1,0,4.1-0.4C58.3,58.8,59.7,57.1,60.1,56z"/>
<path d="M66.3,63.9c1.3-0.1,2.6-0.3,3.9-0.4c-0.1-0.4-0.3-0.9-0.3-1.4c0-0.3,0.1-0.6,0.2-0.9c-0.1-0.2-0.3-0.4-0.4-0.6
	c-0.4-0.8-0.6-1.7-0.8-2.5c0-0.2-0.5-2-0.6-2c-0.9,0.1-1.9,0.2-2.8,0.3c-0.7,0.1-0.5,0.2-0.5,0.8c0,1.1,0,2.2-0.1,3.3
	c0,1.5,0,2.7,0.2,4.2c0.6-0.3,0.3,0.1,0.5-0.3C65.8,64.2,66,64,66.3,63.9z"/>
<path id="wa_1_" d="M10.8,27c-0.3-0.1-0.4-0.3-0.7-0.4c-0.5-0.1-0.3-0.3-0.2-0.7c-0.1,0.6,0.2,0.3,0.2,0c0-0.2-0.2-0.4-0.1-0.6
	c0.1,0.1,0.3,0,0.4,0c-0.1-0.1-0.3-0.4-0.4-0.1c-0.1-0.9,0.1-2,0-2.8c0.7,0.5,1.5,0.9,2.2,1.4c0-0.1,0.1-0.2,0.1-0.2
	c0,0.3,0.4,0.7,0,0.8c0,0.1,0,0.8,0.1,0.8c0.3,0.1,0.4-2,0.5-2.3c0.2-0.1-0.3-1,0-0.9c0.4,0.1,0.8,0.2,1.2,0.3
	c1.3,0.3,2.6,0.7,3.9,1c0.6,0.1,1.3,0.3,1.9,0.4c0.4,0.1,0,1-0.1,1.3c-0.3,1.4-0.9,3-0.7,4.5c-0.9-0.2-1.9-0.5-2.8-0.6
	c-1.2,0.1-2.3,0.1-3.4-0.3c-0.5-0.2-1.2,0.2-1.6-0.3C10.9,27.8,11.4,27.4,10.8,27"/>
<path id="nj_2_" d="M84.5,41.7c-0.2,0.4-0.3,0.7-0.2,1.1c0,0.2,0.4,0.4,0.5,0.6c0.6-0.3,0.2,0.5,0.4,0.5c0.2,0,1.9-3.9,0.3-3.5
	c0-0.4,0.6-1.2,0.1-1.3c-0.4-0.1-1.3-0.7-1.4-0.1c-0.1,0.5-0.4,0.9-0.2,1.4C84.4,41,85.3,41.1,84.5,41.7"/>
<path id="vt_1_" d="M87.1,30.1c0,0.2,0,0.5,0.1,0.6c0,0.3-0.4,0.7-0.3,1.1c-0.1,0.5-0.4,2.1,0.1,2.4c-0.4,0.1-0.9,0.4-1,0
	c0-0.1-0.3-1.4-0.4-1.1c-0.1-0.7-0.2-1.7-0.5-2.4C85.7,30.5,86.4,30.3,87.1,30.1"/>
<path id="nh_1_" d="M89.5,33.6c-0.2,0.1-0.4,0.4-0.6,0.5c-0.4,0.1-0.8,0.2-1.2,0.3c-0.6,0.1-0.4-1.5-0.3-1.9
	c0.1-0.7,0.3-1.2,0.3-1.8c0.1-0.5-0.1-0.7,0.4-1c0.3,0.8,0.5,1.5,0.8,2.3C89,32.6,89.4,33,89.5,33.6z"/>
<path id="mi_upper_2_" d="M59,30.8c0.5-0.2,0.8-0.5,1.4-0.7c0.5-0.1,1.4-1.6,1.5-0.2c0,0,0-0.1-0.1-0.1c0,0.1,0,0.2,0,0.4
	c0.7-1,1.2,0.1,1.8,0.4c1.1,0.4,2.2-1,3.3-0.9c-0.2,0.8,0.4,0.6,0.9,0.5c0.1,0,0.9,0.8,0.9,1c-0.3,0.1-1.4-0.1-1.2,0.5
	c-0.3-0.2-1-0.7-1.2-0.3c-0.4,0.5-1,0.2-1.3,0.8c-0.3-0.3-0.4-0.1-0.7,0.2c-0.1-0.1-0.1-0.3-0.1-0.4c-0.3,0.6-0.5,1.2-0.8,1.8
	c-0.2-0.1-0.3-0.3-0.1-0.6c-0.5,0.2-0.2-0.3-0.3-0.6c0-0.2-0.8-0.7-1-0.7c-0.6-0.1-1.1-0.1-1.7-0.3C59.8,31.3,59.6,31.1,59,30.8"/>
<path id="mi_lower_1_" d="M68.7,40.5c0.6-0.1,1.2-0.2,1.8-0.3c0.9-0.2,0.5-1.8,1.3-2.2c0.1,0,0.1,0.1,0.1,0.2
	c0.7-0.4-0.2-2.4-0.5-2.9c-0.8-1.1-1.5,1.6-1.9,0.5c-0.2-0.5,0.8-1,0.8-1.4c0-0.3-0.5-1.4-0.3-1.5c0.4-0.3-3.7-2-2.5-0.3
	c-1.3-0.1-1.9,2.4-1.9,3.3c0,1.4,1.6,3.6-0.1,4.8c1.1-0.1,2.2-0.2,3.2-0.4"/>
<path id="ma_2_" d="M89.5,36.5c0.2,0.1,0.4,0.2,0.4,0.5c0.2-0.1,0.4-0.6,0.6-0.6c0,0.1,0,0.2,0.1,0.4c0.3-0.2,0.6-0.3,0.9-0.5
	c0.5-0.3-0.1-0.8-0.5-0.8c0.5,0.2,0.7,0.9,0,0.8c-0.2,0-0.7-0.6-0.5-0.5c-0.2-0.4-0.7-0.2-0.8-0.5c0.1-0.1,0.6-0.7,0.5-0.8
	c-0.3,0-0.4-0.1-0.4-0.4c-0.4,0.1-0.5,0.5-1,0.6c-0.5,0.1-0.9,0.2-1.4,0.3c-0.4,0.1-0.7,0.1-1.1,0.2c-0.4,0.1-0.2,0.8-0.2,1.1
	c0,0.8,0.8,0.3,1.4,0.2c0.4-0.1,0.8-0.2,1.2-0.3C89.3,36.1,89,36.1,89.5,36.5"/>
<path id="me_1_" d="M88.6,28.6c0.4-0.1,0.7-1.3,0.8-1.7c0-0.9,0-1.7,0.3-2.6c0-0.1,0.2-0.9,0.3-0.9c0.3-0.1,0.4,0.6,0.7,0.3
	c0.3,0,0.4-0.4,0.6-0.5c0.2-0.1,0.9,0.2,1,0.5c0.2,0.7,0.7,1.5,0.7,2.3c0,0.6,0.4,0.3,0.7,0.5c0.1,0.1,0.1,0.7,0.2,0.7
	c0.2,0.2,0.8,0,0.7,0.4c0,0-0.2,0.3,0,0.3c0,0,0.2-0.2,0.2,0c-0.1,0.9-2,0.9-1.9,1.8c-0.1,0-0.2-0.1-0.4-0.1c0-0.2,0.1-0.2-0.1-0.4
	c-0.3,0.5,0.1,1.3-0.5,1.4c-0.1,0-0.5,1.3-0.9,0.7c-0.4,0.6-0.2,1.4-0.5,1.9C89.4,32.1,89.1,30,88.6,28.6"/>
<path d="M25.5,69.5c0.6-0.1,0.4-1.5-0.3-1.1C24.4,68.9,24.7,69.2,25.5,69.5C25.6,69.5,25.3,69.4,25.5,69.5z"/>
<path d="M33.8,73.2c0.7-0.1,1.5-0.8,0.3-1c-0.2,0-0.9-0.3-1-0.2C32.7,72.1,33.6,73,33.8,73.2C33.9,73.1,33.6,73,33.8,73.2z"/>
<path d="M35.7,77.7c0.3,0.2,0.6-0.5,0.8-0.6c0.4-0.3,0.9-0.3,1.4-0.6c0.7-0.5-1.5-1.9-1.9-2.1c-0.1,0-1.2-0.6-0.7,0.1
	c0.3,0.5-0.3,0.6-0.4,1c-0.1,0.4,0.2,0.7,0.4,1.1C35.5,77.2,35,77.2,35.7,77.7"/>
<path d="M29.9,71.2c0.8-0.2-0.2-1.5-0.8-1c-0.1,0.1-0.5,0-0.2,0.4C29.1,71.1,29.4,71.1,29.9,71.2C30,71.2,29.7,71.2,29.9,71.2z"/>
<path d="M32.4,71.8c0.2-0.1,0.4-0.1,0.3-0.4c-0.3,0-0.6,0-0.9,0c-0.3-0.2-0.5-0.1-0.6,0.3C31.7,71.7,32,71.8,32.4,71.8
	C32.6,71.8,32.2,71.8,32.4,71.8z"/>
<path d="M32.3,72.7c0.6-0.2-0.1-0.6-0.4-0.5C32.1,72.4,32.2,72.6,32.3,72.7C32.4,72.7,32.2,72.6,32.3,72.7z"/>
<path d="M15.3,75.7c0.2-0.3,0.2-0.3,0.5-0.2C16.1,75.5,15.2,76,15.3,75.7C15.4,75.6,15.3,75.9,15.3,75.7z"/>
<path d="M6.9,70.3c-0.3,0.2-0.3-0.2-0.2-0.3c0.2,0.2,0.6,0.2,0.9,0.4c0.5,0.3,0.2,0.1-0.1,0.4C7.4,70.6,7.1,70.2,6.9,70.3
	C6.7,70.5,7.1,70.2,6.9,70.3z"/>
<path d="M8.3,73.9c-0.2-0.3,0.2-0.3,0.5-0.3C9.2,73.6,8.9,74.4,8.3,73.9C8.2,73.8,8.4,74,8.3,73.9z"/>
<path d="M9,79.3c0.1-0.1,0.8-0.8,0.9-0.2C9.8,79.3,8.9,79.6,9,79.3C9.1,79.2,8.9,79.4,9,79.3z"/>
<path d="M15.3,76.7c-0.4,0.3,0,0.5-0.6,0.2c-0.4-0.2,0-0.6,0.2-0.7c0.1-0.1,0.3-0.1,0.4-0.3c0.1-0.3,0.6,0.3,0.6,0.3
	C15.7,76.5,15.4,76.5,15.3,76.7C15.2,76.8,15.4,76.6,15.3,76.7z"/>
<path d="M7.2,80.2c-0.1,0.2-0.6,0.4-0.8,0.5C6.6,80.6,7,79.9,7.2,80.2C7.2,80.4,7,80,7.2,80.2z"/>
<path d="M7.3,80.5c0,0.1,0.5-0.7,0.6-0.7C8.8,79.7,7.3,80.4,7.3,80.5z"/>
<path d="M24.1,74.2c-1.2-0.4,0.9-1,0.6-0.1c-0.1,0.3-0.3-0.4-0.4,0.2C24.2,74.3,24.1,74.2,24.1,74.2C23.9,74.1,24.1,74.2,24.1,74.2z
	"/>
<path d="M24.8,74c-0.2-0.1-0.5-0.5-0.5-0.7c0.2,0.1,1.5,0.7,0.6,1.1C25,74.3,24.9,74.1,24.8,74C24.7,73.9,25,74.1,24.8,74z"/>
<path d="M24.9,74.9c-0.2-0.1-0.6-0.6-0.5-0.8c0.4,0.1,0.9,0.6,0.9,1.1C25.1,75.1,25,75.1,24.9,74.9C24.7,74.8,25,75,24.9,74.9z"/>
<path d="M25.5,75.1c0,0-0.4-0.6-0.2-0.6C25.6,74.5,25.5,75.1,25.5,75.1C25.3,74.9,25.5,75.1,25.5,75.1z"/>
<path d="M25.7,74.8c0,0-0.4-0.5-0.3-0.5c0-0.1,0.3-0.1,0.4-0.1C26.1,74.3,25.7,74.7,25.7,74.8"/>
<path d="M25.9,75c-0.1,0-0.2,0-0.2-0.1c0.2,0,0.7,0.1,0.8,0.3c0,0.1,1,0.8,0.5,0.8c-0.1,0-0.4-0.3-0.7-0.3
	C26.1,75.7,26.1,75.1,25.9,75"/>
<path d="M26.3,74.6c0.1,0.1,0.2,0.2,0.3,0.3C26.4,75.2,26.1,74.6,26.3,74.6C26.4,74.7,26.2,74.6,26.3,74.6z"/>
<path d="M27.1,75.3c-0.1,0-0.2-0.5-0.1-0.6c0.2-0.2,0.4,0.5,0.4,0.6C27.3,75.4,27.2,75.3,27.1,75.3C26.9,75.3,27.2,75.3,27.1,75.3z"
	/>
<path d="M20.8,72.4c0.2,0.5,0.9-0.4,0.9-0.1c0,0.3,1,0.6,1.2,0.9c0.4-0.7,0.4-1.4,1.2-0.7c1.1,0.1,1.7,1.8,2.8,1.7
	c0.2,0,0.7,0.1,0.7,0.4c0,0.2,0.6,0.8,0.2,1.1c-0.3,0.1-0.3-0.5-0.4-0.7c-0.6-0.8-0.4,0.2-0.6,0.3c-0.2,0.1-0.2-0.7-0.4-0.8
	c-0.1-0.1-0.9-0.4-1-0.4c-0.3-0.3-0.8-1.3-1.2-0.6c0-0.1-0.6,0.2-0.7,0.2c-0.1,0.1-0.7-0.3-0.9-0.4c-0.3-0.1-0.9-0.1-1-0.4
	c-0.1-0.4-0.5,0.1-0.8,0.1c-0.5-0.1-0.7-0.1-1.1,0.1c-0.4,0.2-0.4-0.1-0.8-0.2c-0.4-0.1-1.5-0.1-1.7-0.4c0,0.3,0.2,0.6,0.1,1
	c-0.1,0.2-0.4,0.1-0.6,0.4c-0.2,0.3-0.6,0.9-1,0.9c-0.2,0,0.2-0.5,0.2-0.6c-0.8,0.6,0.3-1.9,0.4-1.4c-0.2-0.5-0.9,0.5-1,0.6
	c-0.1,0.3-0.1,0.7-0.3,0.9c-0.2,0.2-0.5,0.4-0.6,0.7c0.1,0.1,0.5,0,0.5,0.2c0,0.1-0.4,0.7-0.4,0.7c-0.3,0.1-0.6,0.4-0.9,0.7
	c-0.2,0.2-0.1,0.7-0.6,0.7c-0.1,0-1.1,1.3-1.3,1c0,0.1-1.2,0.4-1.2,0.4c-0.4,0.3-1.3,0.6-0.5,0c0.3-0.2,0.3-0.5,0.7-0.6
	c0.3-0.1,0.3,0.3,0.5,0c0.4-0.6,0.8-0.7,1.2-1.3c0.1-0.2,0.7-1.4,0.6-1.5c-0.1-0.2-0.6,0.4-0.8-0.1c-0.1,0.1,0.1,0.4-0.1,0.5
	c-0.1,0.1-0.4-0.4-0.4-0.5c-0.2,0.3-0.3-0.2-0.6,0c-0.1,0-0.3,0.3-0.5,0.3c-0.2,0,0.3-1.6-0.5-1.4c-0.1,0.1-0.8,0.3-0.7-0.1
	c-0.4-0.7-0.4-0.4-0.2-1.1c-0.5,0-0.2-0.4-0.6-0.4c0-0.3,0.6-1.3,0.8-1.5c0.3-0.4,0.5,0.4,0.9-0.2c0.2-0.3,0.6,0.2,0.7-0.3
	c0-0.2,0-0.4-0.1-0.6c-0.1-0.3,0.2-0.3,0.1-0.6c-0.1-0.3-0.7,0.3-0.8,0.4c-0.1-0.2-0.5-0.2-0.8-0.1c-0.4,0.1-1.2-0.7-0.6-0.8
	c-1-0.7-0.2-0.5,0.3-1c0.1-0.1,0.8-0.5,0.7,0c-0.2,0.7,0.8,0.3,1.1,0.2c-0.5-0.2-0.4-0.6-0.8-0.8c-0.2-0.1-0.5-0.7-0.5-0.7
	c-0.4-0.4-0.6-0.4-0.5-0.9c0.1-0.3,0.3-0.2,0.6-0.2c0.5,0,0.6-0.6,0.8-0.9c0.1-0.3,2.3-1.6,2.3-1.2c-0.1,0-0.1,0.1-0.2,0.1
	c0-0.2,1-0.1,1.2,0c0.9,0.2,2,0.5,2.9,0.2c1.3-0.4,1.4,0.9,1.6,1.8C19.4,67.7,20.1,70,20.8,72.4z"/>
<path id="ri_2_" d="M88.8,38.4c0.4-0.1,0.6-0.3,0.5-0.7c0-0.1-0.2-0.5,0.1-0.5c-0.1-0.1-0.2-0.4-0.4-0.5c-0.1,0-0.5,0.1-0.5,0.2
	C88.7,37.5,88.7,37.9,88.8,38.4"/>
<path id="ct_2_" d="M87.7,37.2c-0.3,0.1-1.7,0.3-1.7,0.4c0.1,0.6,0.5,1.5,0.1,2c-0.2,0.3,0.4,0,0.5,0c0.5-0.5,0.5-0.6,1.1-0.7
	c0.4-0.2,0.6-0.2,0.4-0.6C88.1,37.8,88.1,37.2,87.7,37.2z"/>
<path id="md_2_" d="M81.5,44.6c0.7,0.2-0.2,0.9,0.1,1.1c0,0,1.4,0.3,1.5,0.4c-0.1-0.4-0.4-0.7-0.5-1.1c-0.1-0.3-0.2-0.6-0.2-1
	c0-0.1,0.5-1.2,0.6-0.9c0.3,0.6-0.3,1.2,0.1,1.9c0.1,0.2-0.1,0.4,0.2,0.4c0.2,0,0.6,0.1,0.7,0.3c0.2,0.4-0.1,0.5,0.4,0.5
	c0.6,0,0.8-0.7,0.8-1.2c-0.3,0-1.1,0.4-1.3,0.3c-0.2-0.1-0.3-1.1-0.4-1.3c-0.1-0.5-0.3-1-0.4-1.5c0-0.1-1.2,0.2-1.3,0.3
	c-0.9,0.2-1.7,0.4-2.6,0.5c-0.6,0.1-1.1,0.2-1.7,0.3c-0.2,0,0,0.9,0.1,1.1c0.3-0.4,0.7-0.7,1-1.1c0-0.1,0.6,0.5,0.5,0.3
	c0.3,0,0.3-0.3,0.7-0.3c0.4,0,0.6,0.2,0.9,0.3c0.3,0.1,0.1,0.2,0.2,0.4C81,44.5,81.4,44.5,81.5,44.6"/>
<path id="de_2_" d="M83.5,42.5c0.1-0.4,0.3-0.5,0.3-0.1c0,0.3,0.1,0.8,0.3,1c0.1,0.1,0.9,0.9,0.9,1.2c-0.4,0.1-0.8,0.4-0.9-0.1
	c-0.2-0.6-0.3-1.2-0.5-1.7"/>
</svg>
