<?xml version="1.0" encoding="UTF-8" standalone="no"?>
<svg width="14px" height="22px" viewBox="0 0 14 22" version="1.1" xmlns="http://www.w3.org/2000/svg" xmlns:xlink="http://www.w3.org/1999/xlink" xmlns:sketch="http://www.bohemiancoding.com/sketch/ns">
    <!-- Generator: Sketch 3.3.3 (12081) - http://www.bohemiancoding.com/sketch -->
    <title>close X Copy 2</title>
    <desc>Created with Sketch.</desc>
    <defs></defs>
    <g id="Glossary" stroke="none" stroke-width="1" fill="none" fill-rule="evenodd" sketch:type="MSPage">
        <g id="close-X-Copy-2" sketch:type="MSArtboardGroup" fill="#323232">
            <path d="M13.7196549,2.03738451 C13.4969332,1.90375151 13.2296672,1.85920718 12.9624012,1.99284018 L3.83081272,6.0909189 L2.13812803,5.20003222 L2.6281157,4.88822188 L9.8442978,1.45830817 C10.2451968,1.28013083 10.3788298,0.790143161 10.2006525,0.433788489 C10.0224751,0.0328894838 9.53248746,-0.100743518 9.17613279,0.0774338177 L0.445443339,4.22005687 C0.178177336,4.35368988 0,4.62095588 0,4.93276622 L0,19.6323964 C0,19.9442068 0.178177336,20.2114728 0.445443339,20.3451058 L3.69717972,21.8596131 C3.78626838,21.9041574 3.91990139,21.9487018 4.00899005,21.9487018 C4.09807872,21.9487018 4.23171172,21.9041574 4.32080039,21.9041574 L13.5860219,17.8506231 C13.8532879,17.7169901 14.0314652,17.4497241 14.0314652,17.1379137 L14.0314652,2.70554952 C14.0760095,2.39373918 13.9423765,2.17101751 13.7196549,2.03738451 L13.7196549,2.03738451 Z" id="Shape" sketch:type="MSShapeGroup"></path>
        </g>
    </g>
</svg>