<?xml version="1.0" encoding="UTF-8" standalone="no"?>
<svg width="16px" height="25px" viewBox="0 0 16 25" version="1.1" xmlns="http://www.w3.org/2000/svg" xmlns:xlink="http://www.w3.org/1999/xlink" xmlns:sketch="http://www.bohemiancoding.com/sketch/ns">
    <!-- Generator: Sketch 3.3.3 (12081) - http://www.bohemiancoding.com/sketch -->
    <title>close X Copy</title>
    <desc>Created with Sketch.</desc>
    <defs></defs>
    <g id="Glossary" stroke="none" stroke-width="1" fill="none" fill-rule="evenodd" sketch:type="MSPage">
        <g id="close-X-Copy" sketch:type="MSArtboardGroup" fill="#ECECEC">
            <path d="M15.6740226,2.32761036 C15.4195742,2.17494131 15.1142361,2.12405163 14.808898,2.27672068 L4.3765128,6.95857158 L2.44270482,5.94077791 L3.00249134,5.58455012 L11.2466201,1.66604448 C11.7046273,1.46248574 11.8572963,0.902699221 11.6537376,0.495581751 C11.4501788,0.0375745977 10.8903923,-0.115094453 10.4832748,0.0884642814 L0.508896837,4.82120487 C0.203558735,4.97387392 0,5.27921202 0,5.6354398 L0,22.4290354 C0,22.7852632 0.203558735,23.0906013 0.508896837,23.2432704 L4.22384375,24.9735196 C4.32562311,25.0244093 4.47829217,25.075299 4.58007153,25.075299 C4.6818509,25.075299 4.83451995,25.0244093 4.93629932,25.0244093 L15.5213535,20.3934481 C15.8266916,20.240779 16.0302504,19.9354409 16.0302504,19.5792131 L16.0302504,3.09095562 C16.08114,2.73472783 15.928471,2.48027942 15.6740226,2.32761036 L15.6740226,2.32761036 Z" id="Shape" sketch:type="MSShapeGroup"></path>
        </g>
    </g>
</svg>