<?xml version="1.0" encoding="utf-8"?>
<!-- Generator: Adobe Illustrator 19.0.0, SVG Export Plug-In . SVG Version: 6.00 Build 0)  -->
<svg version="1.1" id="Layer_1" xmlns="http://www.w3.org/2000/svg" xmlns:xlink="http://www.w3.org/1999/xlink" x="0px" y="0px"
	 viewBox="0 0 22.8 20" enable-background="new 0 0 22.8 20" xml:space="preserve">
<path id="XMLID_7_" fill="#4A4A4A" d="M21.5,2.7c-0.2-0.2-0.6-0.4-1.3-0.2l-0.5-0.6c0,0,0,0,0,0c-0.1-0.1-0.1-0.2-0.2-0.2
	c-0.1-0.1-0.2-0.1-0.3-0.1c0,0,0,0,0,0c-2.9-0.9-6,0.7-7.7,2.9C9.8,2.2,6.7,0.6,3.8,1.5C3.6,1.6,3.4,1.7,3.3,1.9c0,0,0,0,0,0
	L2.8,2.5C2.2,2.3,1.7,2.6,1.5,2.7C1.2,3,1,3.4,1,3.8V14c0,0.1,0,0.2,0,0.2c0.2,0.8,0.8,1.5,1.6,1.7l8.5,3.3c0,0,0,0,0,0
	c0.1,0,0.2,0.1,0.3,0.1s0.2,0,0.3-0.1c0,0,0,0,0,0l8.5-3.3c0.8-0.3,1.4-0.9,1.6-1.7c0-0.1,0-0.2,0-0.2V3.8C22,3.4,21.8,3,21.5,2.7z
	 M4.2,13.2L4.4,2.8c2.6-0.7,5.6,1.3,6.7,3.6l0,10C9.2,14.8,6.6,13.5,4.2,13.2z M11.9,16.4l0-10c1.1-2.3,4-4.3,6.7-3.6l0.2,10.4
	C16.4,13.5,13.8,14.8,11.9,16.4z"/>
</svg>
