<?xml version="1.0" encoding="UTF-8" standalone="no"?>
<svg width="9px" height="14px" viewBox="0 0 9 14" version="1.1" xmlns="http://www.w3.org/2000/svg" xmlns:xlink="http://www.w3.org/1999/xlink" xmlns:sketch="http://www.bohemiancoding.com/sketch/ns">
    <!-- Generator: Sketch 3.3.3 (12081) - http://www.bohemiancoding.com/sketch -->
    <title>close X Copy 3</title>
    <desc>Created with Sketch.</desc>
    <defs></defs>
    <g id="Glossary" stroke="none" stroke-width="1" fill="none" fill-rule="evenodd" sketch:type="MSPage">
        <g id="close-X-Copy-3" sketch:type="MSArtboardGroup" fill="#4A4A4A">
            <path d="M8.83373787,1.31182022 C8.69033303,1.22577732 8.51824723,1.19709636 8.34616143,1.28313926 L2.46656317,3.92178823 L1.37668642,3.34816889 L1.69217706,3.14740212 L6.33849373,0.938967652 C6.59662244,0.824243784 6.68266534,0.508753146 6.56794147,0.279305409 C6.4532176,0.0211767046 6.13772696,-0.0648661967 5.90827922,0.0498576717 L0.286809671,2.71718761 C0.114723868,2.80323051 0,2.97531632 0,3.17608309 L0,12.6408022 C0,12.841569 0.114723868,13.0136548 0.286809671,13.0996977 L2.38052027,14.0748506 C2.4378822,14.1035316 2.52392511,14.1322125 2.58128704,14.1322125 C2.63864897,14.1322125 2.72469188,14.1035316 2.78205381,14.1035316 L8.74769497,11.4935635 C8.91978077,11.4075206 9.03450464,11.2354348 9.03450464,11.0346681 L9.03450464,1.74203473 C9.06318561,1.54126796 8.97714271,1.39786313 8.83373787,1.31182022 L8.83373787,1.31182022 Z" id="Shape-Copy" sketch:type="MSShapeGroup"></path>
        </g>
    </g>
</svg>