<?xml version="1.0" encoding="UTF-8" standalone="no"?>
<!-- Generator: Adobe Illustrator 12.0.1, SVG Export Plug-In . SVG Version: 6.00 Build 51448)  -->

<svg
   xmlns:dc="http://purl.org/dc/elements/1.1/"
   xmlns:cc="http://creativecommons.org/ns#"
   xmlns:rdf="http://www.w3.org/1999/02/22-rdf-syntax-ns#"
   xmlns:svg="http://www.w3.org/2000/svg"
   xmlns="http://www.w3.org/2000/svg"
   xmlns:sodipodi="http://sodipodi.sourceforge.net/DTD/sodipodi-0.dtd"
   xmlns:inkscape="http://www.inkscape.org/namespaces/inkscape"
   version="1.1"
   id="Layer_1"
   width="574.23999"
   height="493.75998"
   viewBox="0 0 574.24 493.75997"
   style="overflow:visible"
   xml:space="preserve"
   inkscape:version="0.48.4 r9939"
   sodipodi:docname="Blm.svg"><metadata
   id="metadata3367"><rdf:RDF><cc:Work
       rdf:about=""><dc:format>image/svg+xml</dc:format><dc:type
         rdf:resource="http://purl.org/dc/dcmitype/StillImage" /></cc:Work></rdf:RDF></metadata><defs
   id="defs3365" /><sodipodi:namedview
   pagecolor="#ffffff"
   bordercolor="#666666"
   borderopacity="1"
   objecttolerance="10"
   gridtolerance="10"
   guidetolerance="10"
   inkscape:pageopacity="0"
   inkscape:pageshadow="2"
   inkscape:window-width="1340"
   inkscape:window-height="834"
   id="namedview3363"
   showgrid="false"
   fit-margin-top="0"
   fit-margin-left="0"
   fit-margin-right="0"
   fit-margin-bottom="0"
   inkscape:zoom="0.67526078"
   inkscape:cx="428.14976"
   inkscape:cy="211.01044"
   inkscape:window-x="87"
   inkscape:window-y="7"
   inkscape:window-maximized="0"
   inkscape:current-layer="Layer_1" />
<style
   type="text/css"
   id="style3178">

	.st0{fill:#AFCF7C;}
	.st1{fill:#4BAAE3;}
	.st2{fill:#93CDE0;}
	.st3{fill:#99C89D;}
	.st4{fill:#FFFFFF;}
	.st5{fill:#0C582D;}

</style>
<path
   class="st2"
   d="m 96.74,35.259991 c 0,7 0,14 0,21 2.67,0 5.34,0 8,0 13.12,0.87 13.61,-20.65 1.26,-21 -3.09,0 -6.17,0 -9.26,0 z m -16.74,32.5 c -2.34,0 -4.67,0 -7,0 0,6.16 0,12.33 0,18.5 4.49,0.49 10.88,0.71 13.24,-1.76 2.05,-2.89 0.7,-7.89 -2.74,-8.24 2.81,-0.94 2.28,-6.38 0.24,-7.76 -1.24,-0.25 -2.13,-0.86 -3.74,-0.74 z m 155.5,14.5 c -0.09,0 -0.17,0 -0.26,0 0,-4.84 0,-9.67 0,-14.5 -1.58,0 -3.16,0 -4.74,0 0,6.24 0,12.5 0,18.74 5.24,0 10.5,0 15.74,0 0.42,-1.16 0.61,-2.55 1.5,-3.24 2.17,0 4.34,0 6.5,0 0.13,1.28 0.83,2 1,3.24 1.76,0 3.5,0 5.26,0 -2.25,-6.33 -4.64,-12.52 -7,-18.74 -1.84,0 -3.67,0 -5.5,0 -2.16,6.18 -4.37,12.3 -7,18 0,-1.17 0,-2.34 0,-3.5 -1.84,0 -3.67,0 -5.5,0 z m 326.74,-33.5 c 1.18,10.68 -1.66,19.18 -6.24,27.24 -5.33,8.68 -10.38,17.630001 -15.5,26.499999 -10.51,17.58 -20.57,35.6 -31.26,53 -35.74,-6.51 -70.82,-13.67 -106.5,-20.24 -0.44,-2.47 -0.95,-4.88 -1,-7.76 4.149,-0.29 6,2.99 8.5,3.5 -0.84,-5.74 -6.3,-9.02 -9.24,-13.5 -2.37,-5.36 0.04,-14.47 -2.76,-18.999998 -4.39,0.03 -3.39,7.599998 -4.24,11.999998 -3.33,5.02 -8.689,7.99 -10,15 3.021,-0.06 5.36,-4.3 8.24,-4.5 -0.14,4.28 -0.521,8.32 -1.5,11.76 -7.99,-1.01 -15.79,-3.54 -23.5,-4 -0.05,-0.2 0,-0.5 -0.24,-0.5 -27.76,-5.25 -55.43,-10.58 -83,-16 -23.89,4.86 -48.12,9.38 -72.26,14 0,0.08 0,0.16 0,0.24 -49.36,8.97 -97.7,18.96 -147,28 0,-0.08 0,-0.16 0,-0.24 -13.7,-23.03 -27.96,-47.45 -41.74,-71.259999 -3.47,-5.98 -7.48,-11.57 -9.5,-18.74 -2.18,-7.69 -2.12,-16.92 0,-24.76 3.91,-14.53 12.45,-24.41 28.74,-27.5 0.84,0 1.67,0 2.5,0 13.5,0 27,0 40.5,0 136,0 274.25,0 411,0 12.13,0 24.05,-0.91 33.5,0.76 17.85,3.15 30.39,16.74 32.5,36 z m -22.5,7.5 c 2.09,0 4.17,0 6.26,0 -1.3,-2.72 -4.51,-5.66 -6.26,-8.76 6.53,-0.64 5.58,-12.72 -1.24,-12.24 -3.26,0 -6.5,0 -9.76,0 0,7 0,14 0,21 1.76,0 3.5,0 5.26,0 0.74,-2.09 -0.25,-5.92 0.5,-8 1.58,2.83 3.11,5.72 5.24,8 z m -25.24,0.74 c 15.48,0 15.65,-25 -2.26,-22.5 -0.05,0.2 -0.2,0.3 -0.5,0.26 -5.42,1.56 -8.55,4.57 -9,9.5 -0.79,8.73 5.75,12.74 11.76,12.74 z m -13,14.76 c 0,-1.34 0,-2.67 0,-4 -4.26,0 -8.5,0 -12.76,0 0,1.33 0,2.66 0,4 1.3,0.12 3.11,-0.27 4,0.24 0,4.84 0,9.67 0,14.5 1.59,0 3.17,0 4.76,0 0,-0.08 0,-0.16 0,-0.24 0.16,-4.76 -0.33,-10.17 0.24,-14.5 1.26,0 2.5,0 3.76,0 z m -1.26,-15.5 c 0,-7 0,-14 0,-21 -1.83,0 -3.66,0 -5.5,0 0,7 0,14 0,21 1.84,0 3.67,0 5.5,0 z m -13.5,0 c 2.09,0 4.17,0 6.26,0 -1.25,-2.76 -4.479,-5.69 -6.26,-8.76 6.58,-0.55 5.61,-12.82 -1.24,-12.24 -2.67,-0.42 -7.09,-0.42 -9.76,0 0,7 0,14 0,21 1.84,0 3.67,0 5.5,0 0.17,-2.59 -0.33,-5.84 0.26,-8 1.63,2.78 3.15,5.67 5.24,8 z m 0.26,30 c 0,-6.17 0,-12.34 0,-18.5 -1.67,0 -3.34,0 -5,0 0,3.74 0,7.5 0,11.24 -3.27,-3.56 -5.7,-7.97 -9.26,-11.24 -1.5,0 -3,0 -4.5,0 0,6.24 0,12.5 0,18.74 1.59,0 3.17,0 4.76,0 0.16,-3.66 -0.34,-7.99 0.24,-11.24 0.229,0.11 0.45,0.21 0.5,0.5 2.979,3.52 5.39,7.61 8.76,10.74 1.45,-0.12 3.44,0.29 4.5,-0.24 z m -14.76,-30 c 0,-1.5 0,-3 0,-4.5 -2.101,-0.15 -4.8,0.3 -6.5,-0.26 0.17,-1.08 -0.32,-2.82 0.26,-3.5 2,0 4,0 6,0 0,-1.58 0,-3.16 0,-4.74 -2,0 -4,0 -6,0 -0.09,0 -0.17,0 -0.26,0 0.11,-1.15 -0.25,-2.76 0.26,-3.5 2.08,0 4.16,0 6.24,0 0,-1.5 0,-3 0,-4.5 -4,0 -8,0 -12,0 0,7 0,14 0,21 0.09,0 0.17,0 0.26,0 3.91,0 7.83,0 11.74,0 z m -7,30.24 c 0,-1.41 0,-2.83 0,-4.24 -1.83,0 -3.66,0 -5.5,0 -0.08,0 -0.16,0 -0.24,0 0.101,-1.07 -0.25,-2.58 0.24,-3.26 1.76,0 3.5,0 5.26,0 0,-1.33 0,-2.66 0,-4 -1.84,0 -3.67,0 -5.5,0 0.101,-1.06 -0.25,-2.57 0.24,-3.24 1.84,0 3.67,0 5.5,0 0,-1.34 0,-2.67 0,-4 -3.5,0 -7,0 -10.5,0 0,6.24 0,12.5 0,18.74 3.5,0 7,0 10.5,0 z m -7,-46.74 c 0,-1.5 0,-3 0,-4.5 -4.83,0 -9.66,0 -14.5,0 0,1.5 0,3 0,4.5 1.42,0.16 3.5,-0.33 4.5,0.24 0,5.42 0,10.84 0,16.26 0.09,0 0.17,0 0.26,0 1.74,0 3.5,0 5.24,0 0.17,-5.42 -0.32,-11.5 0.26,-16.5 1.41,0 2.83,0 4.24,0 z m -10.5,46.74 c 1.59,0 3.17,0 4.76,0 -0.71,-6.46 -1.8,-12.53 -2.76,-18.74 -1.66,0 -3.33,0 -5,0 -1.17,3.4 -2.34,6.81 -4,9.74 -0.99,-3.42 -2.46,-6.37 -3.5,-9.74 -1.66,0 -3.33,0 -5,0 -0.79,6.45 -2.17,12.32 -3,18.74 1.59,0 3.17,0 4.76,0 0.63,-3.44 0.83,-7.33 1.74,-10.5 1.71,3.38 2.39,7.78 4.76,10.5 0.24,0 0.5,0 0.74,0 2.63,-2.62 2.97,-7.53 5.26,-10.5 0.25,3.67 0.8,7.03 1.24,10.5 z m -6,-30.24 c 0,-7 0,-14 0,-21 -1.83,0 -3.66,0 -5.5,0 0,4.16 0,8.33 0,12.5 -3.53,-3.98 -6.49,-8.51 -10,-12.5 -1.83,0 -3.66,0 -5.5,0 0,7 0,14 0,21 1.84,0 3.67,0 5.5,0 0,-4.26 0,-8.5 0,-12.76 3.6,4.08 6.63,8.72 10.26,12.76 1.74,0 3.5,0 5.24,0 z m -14.5,30.24 c 0,-1.41 0,-2.83 0,-4.24 -1.83,0 -3.66,0 -5.5,0 -0.08,0 -0.16,0 -0.24,0 0.101,-1.07 -0.25,-2.58 0.24,-3.26 1.76,0 3.5,0 5.26,0 0,-1.33 0,-2.66 0,-4 -1.84,0 -3.67,0 -5.5,0 0.101,-1.06 -0.25,-2.57 0.24,-3.24 1.84,0 3.67,0 5.5,0 0,-1.34 0,-2.67 0,-4 -3.5,0 -7,0 -10.5,0 0,6.24 0,12.5 0,18.74 3.5,0 7,0 10.5,0 z m -10.24,-30.24 c 0.58,-6.5 0.08,-14.09 0.24,-21 -1.83,0 -3.66,0 -5.5,0 0,7 0,14 0,21 1.76,0 3.5,0 5.26,0 z m -22,23.24 c 1.26,10.850001 21.82,9.66 19.5,-3.5 -3.17,0 -6.34,0 -9.5,0 -0.09,0 -0.17,0 -0.26,0 0,1.26 0,2.5 0,3.76 1.26,0.16 3.17,-0.33 4,0.24 -0.59,2.01 -1.48,2.77 -3,3 -7.08,1.09 -7.91,-12.07 -0.74,-11.74 2.22,0.1 2.71,1.74 4.24,3 1.06,-1.03 3.33,-0.85 4,-2.26 -3.88,-8.66 -21.52,-4.96 -18.24,7.5 z m 3.74,-23.24 c 0,-1.5 0,-3 0,-4.5 -2.16,0 -4.33,0 -6.5,0 0.17,-1.18 -0.32,-3 0.26,-3.76 1.91,0 3.83,0 5.74,0 0,-1.58 0,-3.16 0,-4.74 -2,0 -4,0 -6,0 0.17,-1.09 -0.32,-2.83 0.26,-3.5 2.08,0 4.16,0 6.24,0 0,-1.5 0,-3 0,-4.5 -4,0 -8,0 -12,0 0,7 0,14 0,21 4,0 8,0 12,0 z m -9.5,30.24 c 1.67,0 3.34,0 5,0 -2.16,-6.41 -4.62,-12.54 -7,-18.74 -1.74,0 -3.5,0 -5.24,0 -2.37,6.22 -4.99,12.18 -7,18.74 1.66,0 3.33,0 5,0 0.47,-1.1 0.66,-2.5 1.5,-3.24 2.16,0 4.33,0 6.5,0 0.29,1.2 0.771,2.22 1.24,3.24 z m -6.24,-30.24 c 0,-7 0,-14 0,-21 -1.84,0 -3.67,0 -5.5,0 -0.17,2.58 0.33,5.83 -0.26,8 -2.5,0 -5,0 -7.5,0 0,-2.67 0,-5.34 0,-8 -1.83,0 -3.66,0 -5.5,0 0,7 0,14 0,21 1.84,0 3.67,0 5.5,0 0.17,-2.76 -0.33,-6.17 0.26,-8.5 2.5,0 5,0 7.5,0 0,2.83 0,5.66 0,8.5 0.08,0 0.16,0 0.24,0 1.76,0 3.5,0 5.26,0 z m -9.76,30.24 c 0,-6.24 0,-12.5 0,-18.74 -1.58,0 -3.16,0 -4.74,0 0,3.74 0,7.5 0,11.24 -0.22,0.05 -0.24,-0.09 -0.26,-0.24 -3.09,-3.49 -5.75,-7.41 -8.74,-11 -1.59,0 -3.17,0 -4.76,0 0,6.24 0,12.5 0,18.74 1.59,0 3.17,0 4.76,0 0,-0.08 0,-0.16 0,-0.24 0.58,-3.09 0.08,-7.25 0.24,-10.76 3.38,3.38 5.56,7.95 9.26,11 1.41,0 2.83,0 4.24,0 z m -11,-46.74 c 0,-1.5 0,-3 0,-4.5 -4.83,0 -9.66,0 -14.5,0 0,1.5 0,3 0,4.5 1.42,0.16 3.5,-0.33 4.5,0.24 0,5.42 0,10.84 0,16.26 1.76,0 3.5,0 5.26,0 0.58,-5.01 0.08,-11.09 0.24,-16.5 1.5,0 3,0 4.5,0 z m -14.24,46.74 c 1.66,0 3.33,0 5,0 -1.939,-6.56 -4.7,-12.3 -6.76,-18.74 -1.83,0 -3.66,0 -5.5,0 -2.22,6.35 -4.91,12.25 -7,18.74 1.67,0 3.34,0 5,0 0.649,-0.93 0.68,-2.49 1.5,-3.24 2.17,0 4.34,0 6.5,0 0.43,1.07 0.8,2.2 1.26,3.24 z m -11.5,-46.74 c 0,-1.5 0,-3 0,-4.5 -4,0 -8,0 -12,0 0,7 0,14 0,21 1.83,0 3.66,0 5.5,0 0.16,-2.67 -0.34,-6 0.24,-8.26 1.92,0 3.84,0 5.76,0 0,-1.58 0,-3.16 0,-4.74 -2,0 -4,0 -6,0 0,-1.09 0,-2.17 0,-3.26 1.66,-0.58 4.41,-0.08 6.5,-0.24 z m -8,46.74 c 1.58,0 3.16,0 4.74,0 -0.82,-6.33 -1.91,-12.41 -2.74,-18.74 -1.67,0 -3.34,0 -5,0 -1.27,3.31 -2.49,6.68 -4,9.74 -1.06,-3.36 -2.6,-6.24 -3.5,-9.74 -1.67,0 -3.34,0 -5,0 -0.93,6.32 -2.26,12.24 -3,18.74 1.58,0 3.16,0 4.74,0 0.58,-3.5 0.66,-7.51 1.76,-10.5 1.45,3.55 2.45,7.55 4.5,10.5 0.41,0 0.83,0 1.24,0 1.96,-3.13 2.95,-7.21 4.76,-10.5 0.7,3.3 0.79,7.21 1.5,10.5 z m -30,-41.24 c -1.189,15.48 25.46,15.31 23.5,-0.76 -1.229,-6.77 -5.54,-10.46 -14,-10 -0.06,0.2 -0.21,0.3 -0.5,0.26 -5.16,1.34 -8.479,4.52 -9,10.5 z m 1.24,35.24 c 2.36,-9.97 -5.08,-14.15 -15.74,-12.74 -0.59,5.66 -0.09,12.41 -0.26,18.5 7.48,1.21 14.16,-0.51 16,-5.76 z m -11.74,-40.74 c 0,-1.5 0,-3 0,-4.5 -4.84,0 -9.67,0 -14.5,0 0,1.5 0,3 0,4.5 1.41,0.16 3.49,-0.33 4.5,0.24 0,5.42 0,10.84 0,16.26 1.83,0 3.66,0 5.5,0 0,-5.5 0,-11 0,-16.5 1.5,0 3,0 4.5,0 z m -7.26,46.5 c 0,-6.17 0,-12.34 0,-18.5 -1.66,0 -3.33,0 -5,0 0,3.74 0,7.5 0,11.24 -3.29,-3.54 -5.64,-8.01 -9.24,-11.24 -1.5,0 -3,0 -4.5,0 0,6.24 0,12.5 0,18.74 1.61,-0.13 3.79,0.3 5,-0.24 0,-3.67 0,-7.34 0,-11 3.29,3.53 5.72,7.94 9.24,11.24 1.46,-0.12 3.45,0.29 4.5,-0.24 z m -9.24,-30 c 0,-7 0,-14 0,-21 -1.84,0 -3.67,0 -5.5,0 0,4.16 0,8.33 0,12.5 -3.55,-3.96 -6.58,-8.43 -10,-12.5 -1.36,-0.44 -4.39,-0.39 -5.76,0 0.17,7 -0.33,14.66 0.26,21.24 1.75,-0.16 4.16,0.34 5.5,-0.24 0,-4.26 0,-8.5 0,-12.76 3.38,4.03 6.53,8.3 9.74,12.5 1.46,0.55 3.9,0.11 5.76,0.26 z m -24.5,0 c 0,-1.5 0,-3 0,-4.5 -2.11,-0.15 -4.81,0.3 -6.5,-0.26 0.16,-1.08 -0.33,-2.82 0.24,-3.5 2,0 4,0 6,0 0,-1.58 0,-3.16 0,-4.74 -2,0 -4,0 -6,0 -0.08,0 -0.16,0 -0.24,0 0.16,-1.09 -0.33,-2.83 0.24,-3.5 2.09,0 4.17,0 6.26,0 0,-1.5 0,-3 0,-4.5 -4,0 -8,0 -12,0 0,7 0,14 0,21 0.08,0 0.16,0 0.24,0 3.92,0 7.84,0 11.76,0 z m -19.76,0 c 1.84,0 3.67,0 5.5,0 -1.09,-6.99 -2.02,-14.15 -3.24,-21 -1.84,0 -3.67,0 -5.5,0 -1.53,3.64 -2.86,7.47 -4.5,11 -1.28,-3.73 -2.89,-7.12 -4,-11 -1.92,0 -3.84,0 -5.76,0 -1.01,7.15 -2.32,14 -3.5,21 1.84,0 3.67,0 5.5,0 0.78,-3.9 0.87,-8.48 2,-12 1.25,4.25 3.26,7.74 4.5,12 0.84,0 1.67,0 2.5,0 1.53,-4.15 3.19,-8.15 5,-12 0.42,4.08 1.02,7.98 1.5,12 z m -8,15.5 c 0,-1.34 0,-2.67 0,-4 -3,-0.42 -7.74,-0.42 -10.74,0 0,6.24 0,12.5 0,18.74 1.61,-0.13 3.79,0.3 5,-0.24 0.16,-2.34 -0.34,-5.34 0.24,-7.26 1.67,0 3.34,0 5,0 0,-1.33 0,-2.66 0,-4 -1.74,0 -3.5,0 -5.24,0 0.16,-1 -0.33,-2.65 0.24,-3.24 1.84,0 3.67,0 5.5,0 z m -13.74,-32 c 0,-1.5 0,-3 0,-4.5 -4.84,0 -9.67,0 -14.5,0 0,1.5 0,3 0,4.5 1.41,0.16 3.49,-0.33 4.5,0.24 0,5.42 0,10.84 0,16.26 1.83,0 3.66,0 5.5,0 0,-5.5 0,-11 0,-16.5 1.5,0 3,0 4.5,0 z m -2,44.5 c 5.98,-6.84 1.39,-19.29 -10,-17 -0.06,0.19 -0.21,0.29 -0.5,0.24 -1.97,0.45 -3.26,1.59 -4.76,2.5 -9.13,9.45 5.92,23.320001 15.26,14.26 z m -19.5,-28.26 c 0.96,0.82 7.78,0.94 6.74,-0.24 -1.9,-2.85 -4.34,-5.16 -6,-8.26 6.39,-0.63 5.34,-13.03 -1.5,-12.24 -3.24,0 -6.5,0 -9.74,0 0,7 0,14 0,21 0.08,0 0.16,0 0.24,0 1.26,0.58 3.59,0.08 5.26,0.24 0.73,-2.01 -0.24,-5.73 0.5,-7.74 1.49,2.42 3.14,4.68 4.5,7.24 z m -9,11.76 c -1.59,0 -3.17,0 -4.76,0 -0.16,3.41 0.34,7.49 -0.24,10.5 1.26,5.17 -6.39,5.93 -6.26,1.24 -0.58,-3.41 -0.08,-7.91 -0.24,-11.74 -1.59,0 -3.17,0 -4.76,0 0,4.16 0,8.33 0,12.5 -0.09,2.09 0.95,3.05 1.5,4.5 2.39,2.32 7.93,2.82 11.5,1.24 4.77,-2.4 2.88,-11.45 3.26,-18.24 z m -9,-11.5 c 1.91,0 3.83,0 5.74,0 -2.34,-7.25 -5.22,-13.94 -7.74,-21 -2.09,0 -4.17,0 -6.26,0 -2.52,7.14 -5.31,14.01 -8,21 2,0 4,0 6,0 0.4,-1.28 0.76,-2.59 1.5,-3.5 1.92,-0.59 4.92,-0.09 7.26,-0.26 0,0.09 0,0.17 0,0.26 0.75,0.9 0.96,2.37 1.5,3.5 z m -14,30.24 c 1.74,0 3.5,0 5.24,0 -2.24,-6.33 -4.63,-12.52 -7,-18.74 -1.83,0 -3.66,0 -5.5,0 -2.08,6.49 -4.77,12.39 -7,18.74 1.76,0 3.5,0 5.26,0 0.41,-1.16 0.6,-2.55 1.5,-3.24 2.16,0 4.33,0 6.5,0 0.12,1.28 0.82,2 1,3.24 z m -13,-37.24 c 11.55,3.68 13.76,-13.54 4.24,-14 -3.33,0 -6.66,0 -10,0 0,7 0,14 0,21 1.84,0 3.67,0 5.5,0 0.17,-2.26 -0.33,-5.17 0.26,-7 z m -2.5,37.24 c 0,-1.41 0,-2.83 0,-4.24 -1.92,0 -3.84,0 -5.76,0 0.17,-1.01 -0.32,-2.66 0.26,-3.26 1.74,0 3.5,0 5.24,0 0,-1.33 0,-2.66 0,-4 -1.83,0 -3.66,0 -5.5,0 0.17,-1 -0.32,-2.65 0.26,-3.24 1.83,0 3.66,0 5.5,0 0,-1.34 0,-2.67 0,-4 -3.5,0 -7,0 -10.5,0 -0.42,5.66 -0.42,13.07 0,18.74 3.5,0 7,0 10.5,0 z m -6.76,-30.24 c 0,-1.5 0,-3 0,-4.5 -2.1,-0.15 -4.8,0.3 -6.5,-0.26 0.17,-1.08 -0.32,-2.82 0.26,-3.5 2,0 4,0 6,0 0,-1.58 0,-3.16 0,-4.74 -2,0 -4,0 -6,0 -0.09,0 -0.17,0 -0.26,0 0.17,-1.09 -0.32,-2.83 0.26,-3.5 2.08,0 4.16,0 6.24,0 0,-1.5 0,-3 0,-4.5 -4,0 -8,0 -12,0 0,7 0,14 0,21 4,0 8,0 12,0 z m -11.24,30.24 c 1.91,0 3.83,0 5.74,0 -1,-2.4 -3.86,-5.13 -5.5,-7.74 6.2,-0.93 4.8,-12.44 -2.5,-11 -2.41,0 -4.83,0 -7.24,0 0,6.16 0,12.33 0,18.5 1.08,0.57 3.24,0.08 4.74,0.24 0,-2.33 0,-4.66 0,-7 1.94,1.99 3.1,4.75 4.76,7 z m -12.5,-18.74 c -1.67,0 -3.34,0 -5,0 -0.7,5.68 2.49,16.43 -4.76,14.74 -3.16,-2.33 -1.2,-9.79 -1.74,-14.74 -1.59,0 -3.17,0 -4.76,0 -0.3,5.3 -0.95,13.12 1.26,16.74 2.7,3.22 10.79,3.22 13.5,0 2.4,-3.68 1.21,-10.95 1.5,-16.74 z m -28.76,-14.26 c -0.22,4.6 8.07,4.3 6.5,-1.24 -1.03,-2.9 -6.71,-2.51 -6.5,1.24 z m -17.74,1 c 7.65,7.25 21.09,-2.63 13.24,-10 -2.04,-1.37 -5.89,-0.94 -6.74,-3.5 -0.08,-1.15 0.81,-1.34 1.5,-1.74 2.25,-0.34 3.12,0.71 4.5,1.24 0.63,-1.44 1.5,-2.66 2,-4.24 -6.4,-4.52 -17.15,0.2 -13,9 1.78,2.63 7.35,1.47 8.24,5 -1.05,3.97 -6.4,0.65 -7.74,0 -0.55,1.54 -1.66,2.51 -2,4.24 z m -4.5,2.26 c 3.1,-1.28 2.46,-7.51 -2.26,-6.5 -3.5,0.97 -2.82,7.83 2.26,6.5 z m -7.76,-21.5 c -1.83,0 -3.66,0 -5.5,0 -0.78,6.39 2.85,18.48 -5.5,16.5 -1.08,-0.75 -1.89,-1.78 -1.74,-3.76 -0.59,-3.75 -0.09,-8.58 -0.26,-12.74 -1.83,0 -3.66,0 -5.5,0 0.58,6.05 -1.07,13.05 0.76,17.24 2.45,5.65 13.46,5.95 17,0.26 1.37,-4.71 0.5,-11.67 0.74,-17.5 z"
   id="path3183"
   inkscape:connector-curvature="0"
   style="fill:#93cde0" /><path
   class="st5"
   d="m 354.74,67.759991 c 1.59,0 3.17,0 4.76,0 2.99,3.59 5.65,7.51 8.74,11 0.02,0.15 0.04,0.29 0.26,0.24 0,-3.74 0,-7.5 0,-11.24 1.58,0 3.16,0 4.74,0 0,6.24 0,12.5 0,18.74 -1.41,0 -2.83,0 -4.24,0 -3.7,-3.05 -5.88,-7.62 -9.26,-11 0.05,-0.21 -0.09,-0.23 -0.24,-0.24 0,3.66 0,7.33 0,11 0,0.08 0,0.16 0,0.24 -1.59,0 -3.17,0 -4.76,0 0,-6.24 0,-12.5 0,-18.74 z"
   id="path3185"
   inkscape:connector-curvature="0"
   style="fill:#0c582d" /><path
   class="st5"
   d="m 528.74,35.259991 c 3.26,0 6.5,0 9.76,0 6.82,-0.48 7.771,11.6 1.24,12.24 1.75,3.1 4.96,6.04 6.26,8.76 -2.09,0 -4.17,0 -6.26,0 -2.13,-2.28 -3.66,-5.17 -5.24,-8 -0.75,2.08 0.24,5.91 -0.5,8 -1.76,0 -3.5,0 -5.26,0 0,-7 0,-14 0,-21 z m 5.5,9.24 c 5.77,1.4 5.25,-6.48 0,-5.24 0,1.74 0,3.5 0,5.24 z"
   id="path3187"
   inkscape:connector-curvature="0"
   style="fill:#0c582d" /><path
   class="st5"
   d="m 454,39.759991 c -0.58,5 -0.09,11.08 -0.26,16.5 -1.74,0 -3.5,0 -5.24,0 -0.09,0 -0.17,0 -0.26,0 0,-5.42 0,-10.84 0,-16.26 -1,-0.57 -3.08,-0.08 -4.5,-0.24 0,-1.5 0,-3 0,-4.5 4.84,0 9.67,0 14.5,0 0,1.5 0,3 0,4.5 -1.41,0 -2.83,0 -4.24,0 z"
   id="path3189"
   inkscape:connector-curvature="0"
   style="fill:#0c582d" /><path
   class="st5"
   d="m 436.5,56.259991 c -3.63,-4.04 -6.66,-8.68 -10.26,-12.76 0,4.26 0,8.5 0,12.76 -1.83,0 -3.66,0 -5.5,0 0,-7 0,-14 0,-21 1.84,0 3.67,0 5.5,0 3.51,3.99 6.47,8.52 10,12.5 0,-4.17 0,-8.34 0,-12.5 1.84,0 3.67,0 5.5,0 0,7 0,14 0,21 -1.74,0 -3.5,0 -5.24,0 z"
   id="path3191"
   inkscape:connector-curvature="0"
   style="fill:#0c582d" /><path
   class="st5"
   d="m 383,56.259991 c -1.76,0 -3.5,0 -5.26,0 -0.08,0 -0.16,0 -0.24,0 0,-2.84 0,-5.67 0,-8.5 -2.5,0 -5,0 -7.5,0 -0.59,2.33 -0.09,5.74 -0.26,8.5 -1.83,0 -3.66,0 -5.5,0 0,-7 0,-14 0,-21 1.84,0 3.67,0 5.5,0 0,2.66 0,5.33 0,8 2.5,0 5,0 7.5,0 0.59,-2.17 0.09,-5.42 0.26,-8 1.83,0 3.66,0 5.5,0 0,7 0,14 0,21 z"
   id="path3193"
   inkscape:connector-curvature="0"
   style="fill:#0c582d" /><path
   class="st5"
   d="m 352.24,56.259991 c 0,-5.42 0,-10.84 0,-16.26 -1,-0.57 -3.08,-0.08 -4.5,-0.24 0,-1.5 0,-3 0,-4.5 4.84,0 9.67,0 14.5,0 0,1.5 0,3 0,4.5 -1.5,0 -3,0 -4.5,0 -0.16,5.41 0.34,11.49 -0.24,16.5 -1.76,0 -3.5,0 -5.26,0 z"
   id="path3195"
   inkscape:connector-curvature="0"
   style="fill:#0c582d" /><path
   class="st5"
   d="m 283.5,56.259991 c -1.84,0 -3.67,0 -5.5,0 0,-5.42 0,-10.84 0,-16.26 -1.01,-0.57 -3.09,-0.08 -4.5,-0.24 0,-1.5 0,-3 0,-4.5 4.83,0 9.66,0 14.5,0 0,1.5 0,3 0,4.5 -1.5,0 -3,0 -4.5,0 0,5.5 0,11 0,16.5 z"
   id="path3197"
   inkscape:connector-curvature="0"
   style="fill:#0c582d" /><path
   class="st5"
   d="m 256,56.259991 c -1.34,0.58 -3.75,0.08 -5.5,0.24 -0.59,-6.58 -0.09,-14.24 -0.26,-21.24 1.37,-0.39 4.4,-0.44 5.76,0 3.42,4.07 6.45,8.54 10,12.5 0,-4.17 0,-8.34 0,-12.5 1.83,0 3.66,0 5.5,0 0,7 0,14 0,21 -1.86,-0.15 -4.3,0.29 -5.76,-0.26 -3.21,-4.2 -6.36,-8.47 -9.74,-12.5 0,4.26 0,8.5 0,12.76 z"
   id="path3199"
   inkscape:connector-curvature="0"
   style="fill:#0c582d" /><path
   class="st5"
   d="m 240.74,39.759991 c -0.57,0.67 -0.08,2.41 -0.24,3.5 0.08,0 0.16,0 0.24,0 2,0 4,0 6,0 0,1.58 0,3.16 0,4.74 -2,0 -4,0 -6,0 -0.57,0.68 -0.08,2.42 -0.24,3.5 1.69,0.56 4.39,0.11 6.5,0.26 0,1.5 0,3 0,4.5 -3.92,0 -7.84,0 -11.76,0 -0.08,0 -0.16,0 -0.24,0 0,-7 0,-14 0,-21 4,0 8,0 12,0 0,1.5 0,3 0,4.5 -2.09,0 -4.17,0 -6.26,0 z"
   id="path3201"
   inkscape:connector-curvature="0"
   style="fill:#0c582d" /><path
   class="st5"
   d="m 170.24,67.759991 c 1.59,0 3.17,0 4.76,0 -0.38,6.79 1.51,15.84 -3.26,18.24 -3.57,1.58 -9.11,1.08 -11.5,-1.24 -0.55,-1.45 -1.59,-2.41 -1.5,-4.5 0,-4.17 0,-8.34 0,-12.5 1.59,0 3.17,0 4.76,0 0.16,3.83 -0.34,8.33 0.24,11.74 -0.13,4.69 7.52,3.93 6.26,-1.24 0.58,-3.01 0.08,-7.09 0.24,-10.5 z"
   id="path3203"
   inkscape:connector-curvature="0"
   style="fill:#0c582d" /><path
   class="st5"
   d="m 574.24,50.259991 c 0,2.16 0,4.33 0,6.5 -3.39,26.68 -19.57,40.580001 -29,61.239999 -11.38,18.7 -22.17,38 -33.5,56.76 -22.21,38.03 -44.7,75.79 -67.24,113.5 -33.82,56.43 -67.71,112.79 -102.26,168.5 -9.84,20.32 -25.05,35.271 -53.5,37 -2.5,0 -5,0 -7.5,0 -28.06,-1.86 -42.05,-17.78 -52.24,-37.5 -55.67,-94.25 -111.63,-188.21 -166.76,-283 -11.23,-18.77 -22.37,-37.63 -33.24,-56.76 C 19,96.499992 3.27,82.229991 0,55.499991 c 0,-2.41 0,-4.83 0,-7.24 3.37,-27.13 16.35,-44.6500001 43.24,-48.2600000818921 43,0 86,0 129,0 C 289.08,0.58999092 407,0.08999092 524.24,0.25999092 554.8,3.0299909 570.37,20.789991 574.24,50.259991 z m -18.24,25.74 c 4.58,-8.06 7.42,-16.56 6.24,-27.24 -2.11,-19.26 -14.65,-32.85 -32.5,-36 -9.45,-1.67 -21.37,-0.76 -33.5,-0.76 -136.75,0 -275,0 -411,0 -12.91,-0.41 -27.58,-0.41 -40.5,0 -0.83,0 -1.66,0 -2.5,0 -16.29,3.09 -24.83,12.97 -28.74,27.5 -2.12,7.84 -2.18,17.07 0,24.76 2.02,7.17 6.03,12.76 9.5,18.74 13.78,23.809999 28.04,48.229999 41.74,71.259999 0,0.08 0,0.16 0,0.24 3.86,6.56 7.84,13.01 11.5,19.76 30.88,-9.37 68.43,-12.97 106,-9.26 37.73,3.73 69.88,15.23 95.76,30 30.061,-15.68 64.63,-26.86 108.24,-29 0.75,-2.67 1.41,-5.43 2.26,-8 -2.6,1 -6.6,4.9 -13,3.76 -1.97,-0.79 -4.22,-1.29 -5.5,-2.76 9.851,-5.81 18.7,-12.63 20.74,-26.24 0.979,-3.44 1.36,-7.48 1.5,-11.76 -2.88,0.2 -5.22,4.44 -8.24,4.5 1.311,-7.01 6.67,-9.98 10,-15 0.851,-4.4 -0.149,-11.969998 4.24,-11.999998 2.8,4.529998 0.39,13.639998 2.76,18.999998 2.94,4.48 8.4,7.76 9.24,13.5 -2.5,-0.51 -4.351,-3.79 -8.5,-3.5 0.05,2.88 0.56,5.29 1,7.76 2.82,10.09 4.13,21.7 8,30.74 31.6,1.33 58.6,7.24 83.5,15.26 5,-8.59 10.22,-16.96 15,-25.76 10.689,-17.4 20.75,-35.42 31.26,-53 5.12,-8.869998 10.17,-17.819999 15.5,-26.499999 z M 463.24,233.49999 c 9.76,-15.99 19.25,-32.25 28.76,-48.5 -23.6,-7.32 -48.71,-13.12 -78.26,-14.5 5.7,8.06 14.39,13.12 24,17.26 -4.42,4.53 -15.13,4.1 -20.24,0.5 -2.56,-1.21 -5.229,-4.93 -7.26,-5 0.45,20.05 5.24,35.76 11.26,50.24 13.91,0 27.83,0 41.74,0 z m -2.5,4.26 c -12,0 -24,0 -36,0 3.84,5.33 10.93,9.57 21.26,9.24 -2.32,10.36 -19.01,12.149 -27.5,6 -0.56,16.56 3.271,28.729 11.74,36.26 10.04,-17.3 20.52,-34.16 30.5,-51.5 z m -76.24,-67.26 c -0.36,-0.17 -2.38,0.12 -3.5,0 -0.3,0.04 -0.71,-0.04 -0.76,0.26 -32.55,2.15 -60.74,9.85 -85.24,20.74 -24.23,10.78 -46.59,25.13 -63.26,42 47.09,0 94.17,0 141.26,0 4.11,-6.79 7.22,-14.6 7.74,-25 -4.78,3.06 -12.4,5.44 -19.74,6.76 1.101,-1.9 2.41,-3.59 2.5,-6.5 -6.57,2.3 -16.229,0.4 -18.5,-3.76 22.521,-1.14 33.45,-16.04 39.5,-34.5 z m -14.76,67.26 c -49.74,0 -99.5,0 -149.24,0 1.68,-2.15 3.92,-3.74 5.74,-5.76 1.72,-1.69 3.68,-3.16 5.26,-5 1.16,-1.03 4.16,-2.79 3.74,-3.74 -43.24,0 -86.5,0 -129.74,0 27.74,48.41 57.02,97.47 85.74,145.74 0,0.09 0,0.17 0,0.26 10,16.84 19.93,33.74 30,50.5 7.33,12.17 15.46,26.38 23.5,39.74 8.21,13.63 21.32,22.57 40.5,22.5 16.6,-0.05 28.04,-5.97 36.76,-15 9.851,-13.47 17.24,-29.42 22,-48 -11.51,3.86 -21.56,13.01 -37.76,12 -10.13,-0.62 -18.37,-5.39 -23.24,-11.24 24.69,-4.47 41.41,-16.93 55.74,-31.76 13.32,-15.851 20.71,-37.62 24.76,-62.74 -10.52,7.061 -25.38,12.94 -43.26,10.24 -0.37,-1.28 3.28,-3.15 2.5,-4 -12.39,-0.01 -20.521,-4.3 -23.24,-14 12.19,3.979 26.04,-1.17 35.74,-5.24 21.689,-9.11 38.1,-25.42 41,-51.26 -6.88,5.13 -15.15,11.13 -25.74,13.26 -11.88,2.37 -23.96,-1.29 -30,-7.26 12.07,-1.17 19.41,-7.08 28.5,-11.24 7.75,-4.7 17.05,-10.94 20.74,-18 z m -129.24,-18.76 c 10.16,-7.99 21.63,-14.69 32.5,-22 -34.59,-18.75 -76.18,-30.49 -130.76,-29.24 -23.53,1.04 -44.1,5.06 -63.5,10.24 7.94,13.82 15.77,27.74 24.26,41 45.83,0 91.66,0 137.5,0 z"
   id="path3207"
   inkscape:connector-curvature="0"
   style="fill:#0c582d" /><path
   class="st2"
   d="m 534.24,39.259991 c 5.25,-1.24 5.77,6.64 0,5.24 0,-1.74 0,-3.5 0,-5.24 z"
   id="path3211"
   inkscape:connector-curvature="0"
   style="fill:#93cde0" /><path
   class="st3"
   d="m 524.24,-9.0818921e-6 c 0,0.090000001892 0,0.1700000018921 0,0.2600000018921 -117.24,-0.17 -235.16,0.33 -352,-0.2600000018921 117.34,0 234.67,0 352,0 z"
   id="path3213"
   inkscape:connector-curvature="0"
   style="fill:#99c89d" /><path
   class="st2"
   d="m 520.5,45.259991 c 0.34,7.77 -12.99,9.07 -12,-1 0.811,-2.02 2.2,-3.46 4.24,-4.26 4.31,-0.84 7.6,1.69 7.76,5.26 z"
   id="path3215"
   inkscape:connector-curvature="0"
   style="fill:#93cde0" /><path
   class="st5"
   d="m 512.24,34.499991 c 17.91,-2.5 17.74,22.5 2.26,22.5 -6.01,0 -12.55,-4.01 -11.76,-12.74 0.45,-4.93 3.58,-7.94 9,-9.5 0.3,0.04 0.45,-0.06 0.5,-0.26 z m -3.74,9.76 c -0.99,10.07 12.34,8.77 12,1 -0.16,-3.57 -3.45,-6.1 -7.76,-5.26 -2.04,0.8 -3.429,2.24 -4.24,4.26 z"
   id="path3217"
   inkscape:connector-curvature="0"
   style="fill:#0c582d" /><path
   class="st5"
   d="m 501.5,67.759991 c 0,1.33 0,2.66 0,4 -1.26,0 -2.5,0 -3.76,0 -0.57,4.33 -0.08,9.74 -0.24,14.5 0,0.08 0,0.16 0,0.24 -1.59,0 -3.17,0 -4.76,0 0,-4.83 0,-9.66 0,-14.5 -0.89,-0.51 -2.7,-0.12 -4,-0.24 0,-1.34 0,-2.67 0,-4 4.26,0 8.5,0 12.76,0 z"
   id="path3219"
   inkscape:connector-curvature="0"
   style="fill:#0c582d" /><path
   class="st5"
   d="m 500.24,35.259991 c 0,7 0,14 0,21 -1.83,0 -3.66,0 -5.5,0 0,-7 0,-14 0,-21 1.84,0 3.67,0 5.5,0 z"
   id="path3221"
   inkscape:connector-curvature="0"
   style="fill:#0c582d" /><path
   class="st1"
   d="m 509.24,155.49999 c -4.78,8.8 -10,17.17 -15,25.76 -24.9,-8.02 -51.9,-13.93 -83.5,-15.26 -3.87,-9.04 -5.18,-20.65 -8,-30.74 35.68,6.57 70.76,13.73 106.5,20.24 z"
   id="path3223"
   inkscape:connector-curvature="0"
   style="fill:#4baae3" /><path
   class="st5"
   d="m 493,56.259991 c -2.09,0 -4.17,0 -6.26,0 -2.09,-2.33 -3.61,-5.22 -5.24,-8 -0.59,2.16 -0.09,5.41 -0.26,8 -1.83,0 -3.66,0 -5.5,0 0,-7 0,-14 0,-21 3.26,0 6.5,0 9.76,0 6.851,-0.58 7.82,11.69 1.24,12.24 1.781,3.07 5.01,6 6.26,8.76 z m -11.76,-11.76 c 5.77,1.4 5.25,-6.48 0,-5.24 0,1.74 0,3.5 0,5.24 z"
   id="path3225"
   inkscape:connector-curvature="0"
   style="fill:#0c582d" /><path
   class="st5"
   d="m 487,67.759991 c 0,6.16 0,12.33 0,18.5 -1.06,0.53 -3.05,0.12 -4.5,0.24 -3.37,-3.13 -5.78,-7.22 -8.76,-10.74 -0.05,-0.29 -0.271,-0.39 -0.5,-0.5 -0.58,3.25 -0.08,7.58 -0.24,11.24 -1.59,0 -3.17,0 -4.76,0 0,-6.24 0,-12.5 0,-18.74 1.5,0 3,0 4.5,0 3.56,3.27 5.99,7.68 9.26,11.24 0,-3.74 0,-7.5 0,-11.24 1.66,0 3.33,0 5,0 z"
   id="path3227"
   inkscape:connector-curvature="0"
   style="fill:#0c582d" /><path
   class="st1"
   d="m 485.5,35.259991 c -3.26,0 -6.5,0 -9.76,0 2.67,-0.42 7.09,-0.42 9.76,0 z"
   id="path3229"
   inkscape:connector-curvature="0"
   style="fill:#4baae3" /><path
   class="st2"
   d="m 481.24,39.259991 c 5.25,-1.24 5.77,6.64 0,5.24 0,-1.74 0,-3.5 0,-5.24 z"
   id="path3231"
   inkscape:connector-curvature="0"
   style="fill:#93cde0" /><path
   class="st5"
   d="m 472.24,51.759991 c 0,1.5 0,3 0,4.5 -3.91,0 -7.83,0 -11.74,0 -0.09,0 -0.17,0 -0.26,0 0,-7 0,-14 0,-21 4,0 8,0 12,0 0,1.5 0,3 0,4.5 -2.08,0 -4.16,0 -6.24,0 -0.51,0.74 -0.149,2.35 -0.26,3.5 0.09,0 0.17,0 0.26,0 2,0 4,0 6,0 0,1.58 0,3.16 0,4.74 -2,0 -4,0 -6,0 -0.58,0.68 -0.09,2.42 -0.26,3.5 1.7,0.56 4.4,0.11 6.5,0.26 z"
   id="path3233"
   inkscape:connector-curvature="0"
   style="fill:#0c582d" /><path
   class="st3"
   d="m 492,184.99999 c -9.51,16.25 -19,32.51 -28.76,48.5 -13.91,0 -27.83,0 -41.74,0 -6.02,-14.48 -10.81,-30.19 -11.26,-50.24 2.03,0.07 4.7,3.79 7.26,5 5.11,3.6 15.82,4.03 20.24,-0.5 -9.61,-4.14 -18.3,-9.2 -24,-17.26 29.55,1.38 54.66,7.18 78.26,14.5 z"
   id="path3235"
   inkscape:connector-curvature="0"
   style="fill:#99c89d" /><path
   class="st5"
   d="m 465.24,82.259991 c 0,1.41 0,2.83 0,4.24 -3.5,0 -7,0 -10.5,0 0,-6.24 0,-12.5 0,-18.74 3.5,0 7,0 10.5,0 0,1.33 0,2.66 0,4 -1.83,0 -3.66,0 -5.5,0 -0.49,0.67 -0.14,2.18 -0.24,3.24 1.83,0 3.66,0 5.5,0 0,1.34 0,2.67 0,4 -1.76,0 -3.5,0 -5.26,0 -0.49,0.68 -0.14,2.19 -0.24,3.26 0.08,0 0.16,0 0.24,0 1.84,0 3.67,0 5.5,0 z"
   id="path3237"
   inkscape:connector-curvature="0"
   style="fill:#0c582d" /><path
   class="st0"
   d="m 424.74,237.75999 c 12,0 24,0 36,0 -9.98,17.34 -20.46,34.2 -30.5,51.5 -8.47,-7.53 -12.3,-19.7 -11.74,-36.26 8.49,6.149 25.18,4.36 27.5,-6 -10.33,0.33 -17.42,-3.91 -21.26,-9.24 z"
   id="path3239"
   inkscape:connector-curvature="0"
   style="fill:#afcf7c" /><path
   class="st5"
   d="m 452.5,86.499991 c -1.59,0 -3.17,0 -4.76,0 -0.44,-3.47 -0.99,-6.83 -1.24,-10.5 -2.29,2.97 -2.63,7.88 -5.26,10.5 -0.24,0 -0.5,0 -0.74,0 -2.37,-2.72 -3.05,-7.12 -4.76,-10.5 -0.91,3.17 -1.11,7.06 -1.74,10.5 -1.59,0 -3.17,0 -4.76,0 0.83,-6.42 2.21,-12.29 3,-18.74 1.67,0 3.34,0 5,0 1.04,3.37 2.51,6.32 3.5,9.74 1.66,-2.93 2.83,-6.34 4,-9.74 1.67,0 3.34,0 5,0 0.96,6.21 2.05,12.28 2.76,18.74 z"
   id="path3241"
   inkscape:connector-curvature="0"
   style="fill:#0c582d" /><path
   class="st5"
   d="m 427.24,82.259991 c 0,1.41 0,2.83 0,4.24 -3.5,0 -7,0 -10.5,0 0,-6.24 0,-12.5 0,-18.74 3.5,0 7,0 10.5,0 0,1.33 0,2.66 0,4 -1.83,0 -3.66,0 -5.5,0 -0.49,0.67 -0.14,2.18 -0.24,3.24 1.83,0 3.66,0 5.5,0 0,1.34 0,2.67 0,4 -1.76,0 -3.5,0 -5.26,0 -0.49,0.68 -0.14,2.19 -0.24,3.26 0.08,0 0.16,0 0.24,0 1.84,0 3.67,0 5.5,0 z"
   id="path3243"
   inkscape:connector-curvature="0"
   style="fill:#0c582d" /><path
   class="st5"
   d="m 417.24,35.259991 c -0.16,6.91 0.34,14.5 -0.24,21 -1.76,0 -3.5,0 -5.26,0 0,-7 0,-14 0,-21 1.84,0 3.67,0 5.5,0 z"
   id="path3245"
   inkscape:connector-curvature="0"
   style="fill:#0c582d" /><path
   class="st5"
   d="m 414.5,75.999991 c 2.32,13.16 -18.24,14.350001 -19.5,3.5 -3.28,-12.46 14.36,-16.16 18.24,-7.5 -0.67,1.41 -2.94,1.23 -4,2.26 -1.53,-1.26 -2.021,-2.9 -4.24,-3 -7.17,-0.33 -6.34,12.83 0.74,11.74 1.52,-0.23 2.41,-0.99 3,-3 -0.83,-0.57 -2.74,-0.08 -4,-0.24 0,-1.26 0,-2.5 0,-3.76 0.09,0 0.17,0 0.26,0 3.16,0 6.33,0 9.5,0 z"
   id="path3247"
   inkscape:connector-curvature="0"
   style="fill:#0c582d" /><path
   class="st5"
   d="m 398.74,51.759991 c 0,1.5 0,3 0,4.5 -4,0 -8,0 -12,0 0,-7 0,-14 0,-21 4,0 8,0 12,0 0,1.5 0,3 0,4.5 -2.08,0 -4.16,0 -6.24,0 -0.58,0.67 -0.09,2.41 -0.26,3.5 2,0 4,0 6,0 0,1.58 0,3.16 0,4.74 -1.91,0 -3.83,0 -5.74,0 -0.58,0.76 -0.09,2.58 -0.26,3.76 2.17,0 4.34,0 6.5,0 z"
   id="path3249"
   inkscape:connector-curvature="0"
   style="fill:#0c582d" /><path
   class="st5"
   d="m 394.24,86.499991 c -1.66,0 -3.33,0 -5,0 -0.47,-1.02 -0.95,-2.04 -1.24,-3.24 -2.17,0 -4.34,0 -6.5,0 -0.84,0.74 -1.03,2.14 -1.5,3.24 -1.67,0 -3.34,0 -5,0 2.01,-6.56 4.63,-12.52 7,-18.74 1.74,0 3.5,0 5.24,0 2.38,6.2 4.84,12.33 7,18.74 z m -11.5,-7 c 1.26,0 2.5,0 3.76,0 -0.47,-1.64 -1.34,-5.46 -2,-5.24 -0.75,1.59 -1.33,3.34 -1.76,5.24 z"
   id="path3251"
   inkscape:connector-curvature="0"
   style="fill:#0c582d" /><path
   class="st1"
   d="m 388.5,157.99999 c -0.85,2.57 -1.51,5.33 -2.26,8 -43.61,2.14 -78.18,13.32 -108.24,29 -25.88,-14.77 -58.03,-26.27 -95.76,-30 -37.57,-3.71 -75.12,-0.11 -106,9.26 -3.66,-6.75 -7.64,-13.2 -11.5,-19.76 49.3,-9.04 97.64,-19.03 147,-28 3.15,8.24 16.65,2.6 24.76,4.26 -1.43,5.6 -12.64,11.3 -4,16.5 10.59,0.72 14.21,-8.92 25.74,-7.26 0.84,0.5 1.51,1.16 2.26,1.76 3.93,6.74 -3.87,17.01 1.74,22.74 3.3,2.73 10.5,2.77 13.76,0 6.87,-8.28 6.93,-23.39 18.5,-27 15.05,0.29 20.32,15.45 36.5,10.76 1.13,-4.52 -2.75,-8.15 -1,-12.5 7.83,-9.68 30.78,5.24 37.24,-7 7.71,0.46 15.51,2.99 23.5,4 -2.04,13.61 -10.89,20.43 -20.74,26.24 1.28,1.47 3.53,1.97 5.5,2.76 6.4,1.14 10.4,-2.76 13,-3.76 z"
   id="path3253"
   inkscape:connector-curvature="0"
   style="fill:#4baae3" /><path
   class="st2"
   d="m 386.5,79.499991 c -1.26,0 -2.5,0 -3.76,0 0.43,-1.9 1.01,-3.65 1.76,-5.24 0.66,-0.22 1.53,3.6 2,5.24 z"
   id="path3255"
   inkscape:connector-curvature="0"
   style="fill:#93cde0" /><path
   class="st3"
   d="m 381,170.49999 c 1.12,0.12 3.14,-0.17 3.5,0 -6.05,18.46 -16.979,33.36 -39.5,34.5 2.271,4.16 11.93,6.06 18.5,3.76 -0.09,2.91 -1.399,4.6 -2.5,6.5 7.34,-1.32 14.96,-3.7 19.74,-6.76 -0.521,10.4 -3.63,18.21 -7.74,25 -47.09,0 -94.17,0 -141.26,0 16.67,-16.87 39.03,-31.22 63.26,-42 24.5,-10.89 52.69,-18.59 85.24,-20.74 0.05,-0.3 0.46,-0.22 0.76,-0.26 z"
   id="path3257"
   inkscape:connector-curvature="0"
   style="fill:#99c89d" /><path
   class="st0"
   d="m 220.5,237.75999 c 49.74,0 99.5,0 149.24,0 -3.69,7.06 -12.99,13.3 -20.74,18 -9.09,4.16 -16.43,10.07 -28.5,11.24 6.04,5.97 18.12,9.63 30,7.26 10.59,-2.13 18.86,-8.13 25.74,-13.26 -2.9,25.84 -19.311,42.149 -41,51.26 -9.7,4.07 -23.55,9.22 -35.74,5.24 2.72,9.7 10.851,13.99 23.24,14 0.78,0.85 -2.87,2.72 -2.5,4 17.88,2.7 32.74,-3.18 43.26,-10.24 -4.05,25.12 -11.439,46.89 -24.76,62.74 -14.33,14.83 -31.05,27.29 -55.74,31.76 4.87,5.851 13.11,10.62 23.24,11.24 16.2,1.01 26.25,-8.14 37.76,-12 -4.76,18.58 -12.149,34.53 -22,48 -8.72,9.03 -20.16,14.95 -36.76,15 -19.18,0.07 -32.29,-8.87 -40.5,-22.5 -8.04,-13.36 -16.17,-27.57 -23.5,-39.74 0.09,0 0.17,0 0.26,0 19.68,-7.399 37.29,-16.88 55,-26.26 3.58,-3.24 7.29,-6.37 11,-9.5 2.68,-2.47 5.271,-5.061 7.74,-7.74 4.8,-5.96 10.05,-11.46 11.76,-20.5 0.41,-7.39 -2.93,-11.47 -7.26,-14.76 -15.37,-11.7 -41.88,-16.9 -62,-23.5 7.78,-11.28 23.92,-14.63 38.76,-19.5 4.46,-1.46 9.92,-2.87 12,-7.24 -1.51,-5 -6.79,-6.22 -10.76,-8.76 -24.38,-14.46 -55.51,-23.69 -89,-29.5 -4.47,-0.771 -9.81,-0.19 -13.24,-3.5 5.92,-5.32 14.88,-7.61 22.74,-11 8.62,-2.71 16.96,-5.71 28,-6 -1.82,2.02 -4.06,3.61 -5.74,5.76 z"
   id="path3259"
   inkscape:connector-curvature="0"
   style="fill:#afcf7c" /><path
   class="st4"
   d="m 367,128.25999 c 0.24,0 0.19,0.3 0.24,0.5 -6.46,12.24 -29.41,-2.68 -37.24,7 -1.75,4.35 2.13,7.98 1,12.5 -16.18,4.69 -21.45,-10.47 -36.5,-10.76 -11.57,3.61 -11.63,18.72 -18.5,27 -3.26,2.77 -10.46,2.73 -13.76,0 -5.61,-5.73 2.19,-16 -1.74,-22.74 -0.75,-0.6 -1.42,-1.26 -2.26,-1.76 -11.53,-1.66 -15.15,7.98 -25.74,7.26 -8.64,-5.2 2.57,-10.9 4,-16.5 -8.11,-1.66 -21.61,3.98 -24.76,-4.26 0,-0.08 0,-0.16 0,-0.24 24.14,-4.62 48.37,-9.14 72.26,-14 27.57,5.42 55.24,10.75 83,16 z"
   id="path3261"
   inkscape:connector-curvature="0"
   style="fill:#ffffff" /><path
   class="st1"
   d="m 359.5,75.259991 c 0.15,0.01 0.29,0.03 0.24,0.24 -0.16,3.51 0.34,7.67 -0.24,10.76 0,-3.67 0,-7.34 0,-11 z"
   id="path3263"
   inkscape:connector-curvature="0"
   style="fill:#4baae3" /><path
   class="st5"
   d="m 353,86.499991 c -1.67,0 -3.34,0 -5,0 -0.46,-1.04 -0.83,-2.17 -1.26,-3.24 -2.16,0 -4.33,0 -6.5,0 -0.82,0.75 -0.851,2.31 -1.5,3.24 -1.66,0 -3.33,0 -5,0 2.09,-6.49 4.78,-12.39 7,-18.74 1.84,0 3.67,0 5.5,0 2.06,6.44 4.821,12.18 6.76,18.74 z m -11.5,-7 c 1.24,0 2.5,0 3.74,0 -0.42,-2.15 -0.94,-4.21 -2,-5.74 -0.38,2.11 -1.26,3.73 -1.74,5.74 z"
   id="path3265"
   inkscape:connector-curvature="0"
   style="fill:#0c582d" /><path
   class="st2"
   d="m 345.24,79.499991 c -1.24,0 -2.5,0 -3.74,0 0.48,-2.01 1.36,-3.63 1.74,-5.74 1.06,1.53 1.58,3.59 2,5.74 z"
   id="path3267"
   inkscape:connector-curvature="0"
   style="fill:#93cde0" /><path
   class="st5"
   d="m 336.5,35.259991 c 0,1.5 0,3 0,4.5 -2.09,0.16 -4.84,-0.34 -6.5,0.24 0,1.09 0,2.17 0,3.26 2,0 4,0 6,0 0,1.58 0,3.16 0,4.74 -1.92,0 -3.84,0 -5.76,0 -0.58,2.26 -0.08,5.59 -0.24,8.26 -1.84,0 -3.67,0 -5.5,0 0,-7 0,-14 0,-21 4,0 8,0 12,0 z"
   id="path3269"
   inkscape:connector-curvature="0"
   style="fill:#0c582d" /><path
   class="st5"
   d="m 333.24,86.499991 c -1.58,0 -3.16,0 -4.74,0 -0.71,-3.29 -0.8,-7.2 -1.5,-10.5 -1.81,3.29 -2.8,7.37 -4.76,10.5 -0.41,0 -0.83,0 -1.24,0 -2.05,-2.95 -3.05,-6.95 -4.5,-10.5 -1.1,2.99 -1.18,7 -1.76,10.5 -1.58,0 -3.16,0 -4.74,0 0.74,-6.5 2.07,-12.42 3,-18.74 1.66,0 3.33,0 5,0 0.9,3.5 2.44,6.38 3.5,9.74 1.51,-3.06 2.73,-6.43 4,-9.74 1.66,0 3.33,0 5,0 0.83,6.33 1.92,12.41 2.74,18.74 z"
   id="path3271"
   inkscape:connector-curvature="0"
   style="fill:#0c582d" /><path
   class="st5"
   d="m 322,44.499991 c 1.96,16.07 -24.689,16.24 -23.5,0.76 0.521,-5.98 3.84,-9.16 9,-10.5 0.29,0.04 0.44,-0.06 0.5,-0.26 8.46,-0.46 12.771,3.23 14,10 z m -13.5,7 c 9.7,2.48 10.04,-14.13 0,-11.5 -5.57,1.15 -5.08,10.18 0,11.5 z"
   id="path3273"
   inkscape:connector-curvature="0"
   style="fill:#0c582d" /><path
   class="st2"
   d="m 308.5,39.999991 c 10.04,-2.63 9.7,13.98 0,11.5 -5.08,-1.32 -5.57,-10.35 0,-11.5 z"
   id="path3275"
   inkscape:connector-curvature="0"
   style="fill:#93cde0" /><path
   class="st1"
   d="m 299.74,340.99999 c 4.33,3.29 7.67,7.37 7.26,14.76 -1.71,9.04 -6.96,14.54 -11.76,20.5 -2.68,2.47 -5.271,5.061 -7.74,7.74 -3.71,3.13 -7.42,6.26 -11,9.5 -17.71,9.38 -35.32,18.86 -55,26.26 -0.09,0 -0.17,0 -0.26,0 -10.07,-16.76 -20,-33.66 -30,-50.5 5.7,-0.06 11.7,-0.85 17.26,-1.5 11.43,-1.36 20.54,-3.33 30.24,-6.76 3.2,-1.12 11.34,-3.36 11.5,-7 0.12,-2.45 -3.71,-4.78 -5.74,-6 -8.06,-4.8 -17.04,-6.84 -26,-9.74 -11.15,-4.7 -25.46,-6.21 -29.5,-18 1.98,-9.8 11.24,-14.229 19,-18.26 8.26,-4.29 17.91,-7.34 27,-10.24 -4.97,-8.8 -16.13,-11.38 -25,-16.26 -9.23,-4.601 -19.23,-8.44 -30.76,-10.74 -4.91,-2.229 -11.15,-3.63 -17.5,-5.26 -5.8,-1.48 -13.87,-1.271 -15.74,-7.24 1.83,-7.13 9.79,-9.3 16,-11.5 20.08,-7.14 44.12,-12.56 69.5,-13.76 -1.58,1.84 -3.54,3.31 -5.26,5 -11.04,0.29 -19.38,3.29 -28,6 -7.86,3.39 -16.82,5.68 -22.74,11 3.43,3.31 8.77,2.729 13.24,3.5 33.49,5.81 64.62,15.04 89,29.5 3.97,2.54 9.25,3.76 10.76,8.76 -2.08,4.37 -7.54,5.78 -12,7.24 -14.84,4.87 -30.98,8.22 -38.76,19.5 20.12,6.6 46.63,11.8 62,23.5 z"
   id="path3277"
   inkscape:connector-curvature="0"
   style="fill:#4baae3" /><path
   class="st5"
   d="m 284,67.759991 c 10.66,-1.41 18.101,2.77 15.74,12.74 -1.84,5.25 -8.521,6.97 -16,5.76 0.17,-6.09 -0.33,-12.84 0.26,-18.5 z m 4.74,14.5 c 8.63,1.55 8.229,-11.95 0,-10.5 0,3.5 0,7 0,10.5 z"
   id="path3279"
   inkscape:connector-curvature="0"
   style="fill:#0c582d" /><path
   class="st2"
   d="m 288.74,71.759991 c 8.229,-1.45 8.63,12.05 0,10.5 0,-3.5 0,-7 0,-10.5 z"
   id="path3281"
   inkscape:connector-curvature="0"
   style="fill:#93cde0" /><path
   class="st3"
   d="m 295.24,376.25999 c -2.47,2.68 -5.061,5.271 -7.74,7.74 2.47,-2.68 5.061,-5.271 7.74,-7.74 z"
   id="path3283"
   inkscape:connector-curvature="0"
   style="fill:#99c89d" /><path
   class="st5"
   d="m 280.74,67.759991 c 0,6.16 0,12.33 0,18.5 -1.05,0.53 -3.04,0.12 -4.5,0.24 -3.52,-3.3 -5.95,-7.71 -9.24,-11.24 0,3.66 0,7.33 0,11 -1.21,0.54 -3.39,0.11 -5,0.24 0,-6.24 0,-12.5 0,-18.74 1.5,0 3,0 4.5,0 3.6,3.23 5.95,7.7 9.24,11.24 0,-3.74 0,-7.5 0,-11.24 1.67,0 3.34,0 5,0 z"
   id="path3287"
   inkscape:connector-curvature="0"
   style="fill:#0c582d" /><path
   class="st3"
   d="m 273,196.99999 c -10.87,7.31 -22.34,14.01 -32.5,22 -45.84,0 -91.67,0 -137.5,0 -8.49,-13.26 -16.32,-27.18 -24.26,-41 19.4,-5.18 39.97,-9.2 63.5,-10.24 54.58,-1.25 96.17,10.49 130.76,29.24 z"
   id="path3289"
   inkscape:connector-curvature="0"
   style="fill:#99c89d" /><path
   class="st5"
   d="m 260.5,86.499991 c -1.76,0 -3.5,0 -5.26,0 -0.17,-1.24 -0.87,-1.96 -1,-3.24 -2.16,0 -4.33,0 -6.5,0 -0.89,0.69 -1.08,2.08 -1.5,3.24 -5.24,0 -10.5,0 -15.74,0 0,-6.24 0,-12.5 0,-18.74 1.58,0 3.16,0 4.74,0 0,4.83 0,9.66 0,14.5 0.09,0 0.17,0 0.26,0 1.83,0 3.66,0 5.5,0 0,1.16 0,2.33 0,3.5 2.63,-5.7 4.84,-11.82 7,-18 1.83,0 3.66,0 5.5,0 2.36,6.22 4.75,12.41 7,18.74 z m -11.5,-7 c 1.24,0 2.5,0 3.74,0 -0.63,-1.94 -1.15,-4.01 -2,-5.74 -0.59,1.9 -1.46,3.53 -1.74,5.74 z"
   id="path3291"
   inkscape:connector-curvature="0"
   style="fill:#0c582d" /><path
   class="st2"
   d="m 252.74,79.499991 c -1.24,0 -2.5,0 -3.74,0 0.28,-2.21 1.15,-3.84 1.74,-5.74 0.85,1.73 1.37,3.8 2,5.74 z"
   id="path3293"
   inkscape:connector-curvature="0"
   style="fill:#93cde0" /><path
   class="st0"
   d="m 244.5,347.99999 c 2.03,1.22 5.86,3.55 5.74,6 -0.16,3.64 -8.3,5.88 -11.5,7 -9.7,3.43 -18.81,5.399 -30.24,6.76 -5.56,0.65 -11.56,1.44 -17.26,1.5 0,-0.09 0,-0.17 0,-0.26 -28.72,-48.271 -58,-97.33 -85.74,-145.74 43.24,0 86.5,0 129.74,0 0.42,0.95 -2.58,2.71 -3.74,3.74 -25.38,1.2 -49.42,6.62 -69.5,13.76 -6.21,2.2 -14.17,4.37 -16,11.5 1.87,5.97 9.94,5.76 15.74,7.24 6.35,1.63 12.59,3.03 17.5,5.26 11.53,2.3 21.53,6.14 30.76,10.74 8.87,4.88 20.03,7.46 25,16.26 -9.09,2.9 -18.74,5.95 -27,10.24 -7.76,4.03 -17.02,8.46 -19,18.26 4.04,11.79 18.35,13.3 29.5,18 8.96,2.9 17.94,4.94 26,9.74 z"
   id="path3295"
   inkscape:connector-curvature="0"
   style="fill:#afcf7c" /><path
   class="st5"
   d="m 232.74,56.259991 c -1.83,0 -3.66,0 -5.5,0 -0.48,-4.02 -1.08,-7.92 -1.5,-12 -1.81,3.85 -3.47,7.85 -5,12 -0.83,0 -1.66,0 -2.5,0 -1.24,-4.26 -3.25,-7.75 -4.5,-12 -1.13,3.52 -1.22,8.1 -2,12 -1.83,0 -3.66,0 -5.5,0 1.18,-7 2.49,-13.85 3.5,-21 1.92,0 3.84,0 5.76,0 1.11,3.88 2.72,7.27 4,11 1.64,-3.53 2.97,-7.36 4.5,-11 1.83,0 3.66,0 5.5,0 1.22,6.85 2.15,14.01 3.24,21 z"
   id="path3297"
   inkscape:connector-curvature="0"
   style="fill:#0c582d" /><path
   class="st5"
   d="m 219.24,67.759991 c 0,1.33 0,2.66 0,4 -1.83,0 -3.66,0 -5.5,0 -0.57,0.59 -0.08,2.24 -0.24,3.24 1.74,0 3.5,0 5.24,0 0,1.34 0,2.67 0,4 -1.66,0 -3.33,0 -5,0 -0.58,1.92 -0.08,4.92 -0.24,7.26 -1.21,0.54 -3.39,0.11 -5,0.24 0,-6.24 0,-12.5 0,-18.74 3.58,0 7.16,0 10.74,0 z"
   id="path3299"
   inkscape:connector-curvature="0"
   style="fill:#0c582d" /><path
   class="st1"
   d="m 219.24,67.759991 c -3.58,0 -7.16,0 -10.74,0 3,-0.42 7.74,-0.42 10.74,0 z"
   id="path3301"
   inkscape:connector-curvature="0"
   style="fill:#4baae3" /><path
   class="st5"
   d="m 205.5,35.259991 c 0,1.5 0,3 0,4.5 -1.5,0 -3,0 -4.5,0 0,5.5 0,11 0,16.5 -1.84,0 -3.67,0 -5.5,0 0,-5.42 0,-10.84 0,-16.26 -1.01,-0.57 -3.09,-0.08 -4.5,-0.24 0,-1.5 0,-3 0,-4.5 4.83,0 9.66,0 14.5,0 z"
   id="path3303"
   inkscape:connector-curvature="0"
   style="fill:#0c582d" /><path
   class="st5"
   d="m 193.5,67.259991 c 11.39,-2.29 15.98,10.16 10,17 -9.34,9.060001 -24.39,-4.81 -15.26,-14.26 1.5,-0.91 2.79,-2.05 4.76,-2.5 0.29,0.05 0.44,-0.05 0.5,-0.24 z m -2.76,11.24 c 1.85,5.95 10.99,4.16 10.5,-2 -0.22,-2.94 -3.08,-5.18 -6.74,-4.5 -2.44,0.98 -4.23,2.62 -3.76,6.5 z"
   id="path3305"
   inkscape:connector-curvature="0"
   style="fill:#0c582d" /><path
   class="st2"
   d="m 201.24,76.499991 c 0.49,6.16 -8.65,7.95 -10.5,2 -0.47,-3.88 1.32,-5.52 3.76,-6.5 3.66,-0.68 6.52,1.56 6.74,4.5 z"
   id="path3307"
   inkscape:connector-curvature="0"
   style="fill:#93cde0" /><path
   class="st1"
   d="m 190.74,55.759991 c 1.04,1.18 -5.78,1.06 -6.74,0.24 1.5,0.27 6.47,0.72 6.74,-0.24 z"
   id="path3309"
   inkscape:connector-curvature="0"
   style="fill:#4baae3" /><path
   class="st5"
   d="m 190.74,55.759991 c -0.27,0.96 -5.24,0.51 -6.74,0.24 -1.36,-2.56 -3.01,-4.82 -4.5,-7.24 -0.02,-0.16 -0.04,-0.3 -0.26,-0.26 -0.58,2.09 -0.08,5.25 -0.24,7.76 -1.76,0 -3.5,0 -5.26,0 -0.08,0 -0.16,0 -0.24,0 0,-7 0,-14 0,-21 3.24,0 6.5,0 9.74,0 6.84,-0.79 7.89,11.61 1.5,12.24 1.66,3.1 4.1,5.41 6,8.26 z m -7.5,-12.5 c 0.82,-2.76 -1.23,-4.08 -4,-4 -0.54,1.28 -0.11,3.55 -0.24,5.24 2.05,0.22 3.41,-0.25 4.24,-1.24 z"
   id="path3311"
   inkscape:connector-curvature="0"
   style="fill:#0c582d" /><path
   class="st2"
   d="m 179.24,39.259991 c 2.77,-0.08 4.82,1.24 4,4 -0.83,0.99 -2.19,1.46 -4.24,1.24 0.13,-1.69 -0.3,-3.96 0.24,-5.24 z"
   id="path3313"
   inkscape:connector-curvature="0"
   style="fill:#93cde0" /><path
   class="st1"
   d="m 179.24,48.499991 c 0.22,-0.04 0.24,0.1 0.26,0.26 -0.74,2.01 0.23,5.73 -0.5,7.74 -1.67,-0.16 -4,0.34 -5.26,-0.24 1.76,0 3.5,0 5.26,0 0.16,-2.51 -0.34,-5.67 0.24,-7.76 z"
   id="path3315"
   inkscape:connector-curvature="0"
   style="fill:#4baae3" /><path
   class="st5"
   d="m 171.74,56.259991 c -1.91,0 -3.83,0 -5.74,0 -0.54,-1.13 -0.75,-2.6 -1.5,-3.5 0,-0.09 0,-0.17 0,-0.26 -2.34,0.17 -5.34,-0.33 -7.26,0.26 -0.74,0.91 -1.1,2.22 -1.5,3.5 -2,0 -4,0 -6,0 2.69,-6.99 5.48,-13.86 8,-21 2.09,0 4.17,0 6.26,0 2.52,7.06 5.4,13.75 7.74,21 z m -13,-7.76 c 1.42,0 2.84,0 4.26,0 -0.5,-2.5 -1.25,-4.75 -2.26,-6.74 -0.44,2.47 -1.55,4.27 -2,6.74 z"
   id="path3317"
   inkscape:connector-curvature="0"
   style="fill:#0c582d" /><path
   class="st2"
   d="m 163,48.499991 c -1.42,0 -2.84,0 -4.26,0 0.45,-2.47 1.56,-4.27 2,-6.74 1.01,1.99 1.76,4.24 2.26,6.74 z"
   id="path3319"
   inkscape:connector-curvature="0"
   style="fill:#93cde0" /><path
   class="st5"
   d="m 157.24,86.499991 c -1.74,0 -3.5,0 -5.24,0 -0.18,-1.24 -0.88,-1.96 -1,-3.24 -2.17,0 -4.34,0 -6.5,0 -0.9,0.69 -1.09,2.08 -1.5,3.24 -1.76,0 -3.5,0 -5.26,0 2.23,-6.35 4.92,-12.25 7,-18.74 1.84,0 3.67,0 5.5,0 2.37,6.22 4.76,12.41 7,18.74 z m -11.5,-7 c 1.26,0 2.5,0 3.76,0 -0.64,-1.94 -1.16,-4.01 -2,-5.74 -0.6,1.9 -1.47,3.53 -1.76,5.74 z"
   id="path3321"
   inkscape:connector-curvature="0"
   style="fill:#0c582d" /><path
   class="st2"
   d="m 149.5,79.499991 c -1.26,0 -2.5,0 -3.76,0 0.29,-2.21 1.16,-3.84 1.76,-5.74 0.84,1.73 1.36,3.8 2,5.74 z"
   id="path3323"
   inkscape:connector-curvature="0"
   style="fill:#93cde0" /><path
   class="st5"
   d="m 143.24,35.259991 c 9.52,0.46 7.31,17.68 -4.24,14 -0.59,1.83 -0.09,4.74 -0.26,7 -1.83,0 -3.66,0 -5.5,0 0,-7 0,-14 0,-21 3.34,0 6.67,0 10,0 z m -4.5,9.5 c 6.34,1.85 6.09,-7.04 0,-5.26 0,1.76 0,3.5 0,5.26 z"
   id="path3325"
   inkscape:connector-curvature="0"
   style="fill:#0c582d" /><path
   class="st2"
   d="m 138.74,39.499991 c 6.09,-1.78 6.34,7.11 0,5.26 0,-1.76 0,-3.5 0,-5.26 z"
   id="path3327"
   inkscape:connector-curvature="0"
   style="fill:#93cde0" /><path
   class="st5"
   d="m 136.5,82.259991 c 0,1.41 0,2.83 0,4.24 -3.5,0 -7,0 -10.5,0 -0.42,-5.67 -0.42,-13.08 0,-18.74 3.5,0 7,0 10.5,0 0,1.33 0,2.66 0,4 -1.84,0 -3.67,0 -5.5,0 -0.58,0.59 -0.09,2.24 -0.26,3.24 1.84,0 3.67,0 5.5,0 0,1.34 0,2.67 0,4 -1.74,0 -3.5,0 -5.24,0 -0.58,0.6 -0.09,2.25 -0.26,3.26 1.92,0 3.84,0 5.76,0 z"
   id="path3329"
   inkscape:connector-curvature="0"
   style="fill:#0c582d" /><path
   class="st5"
   d="m 129.74,51.759991 c 0,1.5 0,3 0,4.5 -4,0 -8,0 -12,0 0,-7 0,-14 0,-21 4,0 8,0 12,0 0,1.5 0,3 0,4.5 -2.08,0 -4.16,0 -6.24,0 -0.58,0.67 -0.09,2.41 -0.26,3.5 0.09,0 0.17,0 0.26,0 2,0 4,0 6,0 0,1.58 0,3.16 0,4.74 -2,0 -4,0 -6,0 -0.58,0.68 -0.09,2.42 -0.26,3.5 1.7,0.56 4.4,0.11 6.5,0.26 z"
   id="path3331"
   inkscape:connector-curvature="0"
   style="fill:#0c582d" /><path
   class="st5"
   d="m 124.24,86.499991 c -1.91,0 -3.83,0 -5.74,0 -1.66,-2.25 -2.82,-5.01 -4.76,-7 0,2.34 0,4.67 0,7 -1.5,-0.16 -3.66,0.33 -4.74,-0.24 0,-6.17 0,-12.34 0,-18.5 2.41,0 4.83,0 7.24,0 7.3,-1.44 8.7,10.07 2.5,11 1.64,2.61 4.5,5.34 5.5,7.74 z m -6.74,-11.5 c 0.85,-2.47 -0.96,-3.9 -3.76,-3.5 0.14,1.54 -0.28,3.62 0.26,4.76 1.41,-0.18 2.8,-0.37 3.5,-1.26 z"
   id="path3333"
   inkscape:connector-curvature="0"
   style="fill:#0c582d" /><path
   class="st2"
   d="m 113.74,71.499991 c 2.8,-0.4 4.61,1.03 3.76,3.5 -0.7,0.89 -2.09,1.08 -3.5,1.26 -0.54,-1.14 -0.12,-3.22 -0.26,-4.76 z"
   id="path3335"
   inkscape:connector-curvature="0"
   style="fill:#93cde0" /><path
   class="st5"
   d="m 106,35.259991 c 12.35,0.35 11.86,21.87 -1.26,21 -2.66,0 -5.33,0 -8,0 0,-7 0,-14 0,-21 3.09,0 6.17,0 9.26,0 z m -3.76,16.5 c 9.43,1.77 9.62,-13.83 0,-12 0,4 0,8 0,12 z"
   id="path3337"
   inkscape:connector-curvature="0"
   style="fill:#0c582d" /><path
   class="st5"
   d="m 101,67.759991 c 1.66,0 3.33,0 5,0 -0.29,5.79 0.9,13.06 -1.5,16.74 -2.71,3.22 -10.8,3.22 -13.5,0 -2.21,-3.62 -1.56,-11.44 -1.26,-16.74 1.59,0 3.17,0 4.76,0 0.54,4.95 -1.42,12.41 1.74,14.74 7.25,1.69 4.06,-9.06 4.76,-14.74 z"
   id="path3339"
   inkscape:connector-curvature="0"
   style="fill:#0c582d" /><path
   class="st2"
   d="m 102.24,39.759991 c 9.62,-1.83 9.43,13.77 0,12 0,-4 0,-8 0,-12 z"
   id="path3341"
   inkscape:connector-curvature="0"
   style="fill:#93cde0" /><path
   class="st5"
   d="m 83.5,76.259991 c 3.44,0.35 4.79,5.35 2.74,8.24 -2.36,2.47 -8.75,2.25 -13.24,1.76 0,-6.17 0,-12.34 0,-18.5 2.33,0 4.66,0 7,0 1.61,-0.12 2.5,0.49 3.74,0.74 2.04,1.38 2.57,6.82 -0.24,7.76 z m -5.76,6.5 c 5.48,1.34 5.87,-5.48 0,-4 0,1.33 0,2.66 0,4 z m 3.26,-9.76 c -0.34,-1.25 -1.48,-1.69 -3.26,-1.5 0,1.17 0,2.34 0,3.5 1.93,0.18 3.24,-0.26 3.26,-2 z"
   id="path3343"
   inkscape:connector-curvature="0"
   style="fill:#0c582d" /><path
   class="st1"
   d="m 85.24,11.999991 c -13.5,0 -27,0 -40.5,0 12.92,-0.41 27.59,-0.41 40.5,0 z"
   id="path3345"
   inkscape:connector-curvature="0"
   style="fill:#4baae3" /><path
   class="st5"
   d="m 83.74,52.259991 c 1.57,5.54 -6.72,5.84 -6.5,1.24 -0.21,-3.75 5.47,-4.14 6.5,-1.24 z"
   id="path3347"
   inkscape:connector-curvature="0"
   style="fill:#0c582d" /><path
   class="st2"
   d="m 77.74,78.759991 c 5.87,-1.48 5.48,5.34 0,4 0,-1.34 0,-2.67 0,-4 z"
   id="path3349"
   inkscape:connector-curvature="0"
   style="fill:#93cde0" /><path
   class="st2"
   d="m 77.74,71.499991 c 1.78,-0.19 2.92,0.25 3.26,1.5 -0.02,1.74 -1.33,2.18 -3.26,2 0,-1.16 0,-2.33 0,-3.5 z"
   id="path3351"
   inkscape:connector-curvature="0"
   style="fill:#93cde0" /><path
   class="st5"
   d="m 72.74,44.499991 c 7.85,7.37 -5.59,17.25 -13.24,10 0.34,-1.73 1.45,-2.7 2,-4.24 1.34,0.65 6.69,3.97 7.74,0 -0.89,-3.53 -6.46,-2.37 -8.24,-5 -4.15,-8.8 6.6,-13.52 13,-9 -0.5,1.58 -1.37,2.8 -2,4.24 -1.38,-0.53 -2.25,-1.58 -4.5,-1.24 -0.69,0.4 -1.58,0.59 -1.5,1.74 0.85,2.56 4.7,2.13 6.74,3.5 z"
   id="path3353"
   inkscape:connector-curvature="0"
   style="fill:#0c582d" /><path
   class="st5"
   d="m 52.74,50.259991 c 4.72,-1.01 5.36,5.22 2.26,6.5 -5.08,1.33 -5.76,-5.53 -2.26,-6.5 z"
   id="path3355"
   inkscape:connector-curvature="0"
   style="fill:#0c582d" /><path
   class="st5"
   d="m 41.74,35.259991 c 1.84,0 3.67,0 5.5,0 -0.24,5.83 0.63,12.79 -0.74,17.5 -3.54,5.69 -14.55,5.39 -17,-0.26 -1.83,-4.19 -0.18,-11.19 -0.76,-17.24 1.84,0 3.67,0 5.5,0 0.17,4.16 -0.33,8.99 0.26,12.74 -0.15,1.98 0.66,3.01 1.74,3.76 8.35,1.98 4.72,-10.11 5.5,-16.5 z"
   id="path3357"
   inkscape:connector-curvature="0"
   style="fill:#0c582d" /><g
   id="g3361"
   transform="translate(710.48125,189.30639)">
	</g>
</svg>