<?xml version="1.0" encoding="UTF-8" standalone="no"?>
<svg
   xmlns:dc="http://purl.org/dc/elements/1.1/"
   xmlns:cc="http://web.resource.org/cc/"
   xmlns:rdf="http://www.w3.org/1999/02/22-rdf-syntax-ns#"
   xmlns:svg="http://www.w3.org/2000/svg"
   xmlns="http://www.w3.org/2000/svg"
   xmlns:sodipodi="http://sodipodi.sourceforge.net/DTD/sodipodi-0.dtd"
   xmlns:inkscape="http://www.inkscape.org/namespaces/inkscape"
   version="1.0"
   id="Layer_1"
   x="0px"
   y="0px"
   width="720"
   height="325"
   viewBox="0 0 72.045 32.436"
   enable-background="new 0 0 72.045 32.436"
   xml:space="preserve"
   sodipodi:version="0.32"
   inkscape:version="0.45.1"
   sodipodi:docname="BOR.svg"
   inkscape:output_extension="org.inkscape.output.svg.inkscape"><metadata
   id="metadata186"><rdf:RDF><cc:Work
       rdf:about=""><dc:format>image/svg+xml</dc:format><dc:type
         rdf:resource="http://purl.org/dc/dcmitype/StillImage" /></cc:Work></rdf:RDF></metadata><defs
   id="defs184" /><sodipodi:namedview
   inkscape:window-height="581"
   inkscape:window-width="697"
   inkscape:pageshadow="2"
   inkscape:pageopacity="0.0"
   guidetolerance="10.0"
   gridtolerance="10.0"
   objecttolerance="10.0"
   borderopacity="1.0"
   bordercolor="#666666"
   pagecolor="#ffffff"
   id="base"
   width="720px"
   height="325px"
   inkscape:showpageshadow="false"
   inkscape:zoom="0.53005068"
   inkscape:cx="512.20338"
   inkscape:cy="135.12062"
   inkscape:window-x="57"
   inkscape:window-y="22"
   inkscape:current-layer="Layer_1" />
<g
   id="g3"
   transform="matrix(1.0000077,0,0,1.0000077,0,-2.4483187e-4)"
   style="fill:#204a9f;fill-opacity:1">
	<g
   id="g5"
   style="fill:#204a9f;fill-opacity:1">
		<polygon
   clip-rule="evenodd"
   points="22.535,29.245 24.037,29.493 24.125,28.958 23.031,28.778 23.151,28.037 24.108,28.194 24.189,27.701 23.232,27.544 23.333,26.931 24.378,27.103 24.461,26.602 23.009,26.363 22.535,29.245 "
   id="polygon7"
   style="fill-rule:evenodd;fill:#204a9f;fill-opacity:1" />
		<polygon
   clip-rule="evenodd"
   points="32.087,30.332 32.497,30.354 32.566,29.086 33.442,29.132 33.469,28.611 32.593,28.565 32.629,27.891 33.631,27.944 33.66,27.424 32.249,27.351 32.087,30.332 "
   id="polygon9"
   style="fill-rule:evenodd;fill:#204a9f;fill-opacity:1" />
		<polygon
   clip-rule="evenodd"
   points="37.612,30.489 39.136,30.46 39.124,29.905 38.014,29.927 38,29.161 38.969,29.142 38.959,28.629 37.99,28.648 37.977,28.013 39.038,27.993 39.028,27.473 37.555,27.502 37.612,30.489 "
   id="polygon11"
   style="fill-rule:evenodd;fill:#204a9f;fill-opacity:1" />
		<polygon
   clip-rule="evenodd"
   points="41.065,29.378 40.674,29.385 40.655,29.513 40.623,29.625 40.584,29.719 40.532,29.797 40.503,29.832 40.473,29.861 40.441,29.886 40.405,29.907 40.368,29.925 40.326,29.938 40.287,29.944 40.24,29.944 40.182,29.944 40.125,29.932 40.071,29.912 40.02,29.883 39.975,29.847 39.931,29.805 39.892,29.751 39.855,29.691 39.823,29.625 39.796,29.547 39.769,29.464 39.747,29.375 39.73,29.276 39.717,29.171 39.712,29.117 39.708,29.059 39.705,28.938 39.708,28.703 39.73,28.494 39.769,28.314 39.796,28.238 39.825,28.17 39.86,28.106 39.899,28.055 39.941,28.008 39.99,27.972 40.039,27.939 40.095,27.917 40.123,27.91 40.154,27.902 40.216,27.897 40.304,27.905 40.385,27.93 40.451,27.972 40.51,28.025 40.562,28.102 40.601,28.189 40.618,28.238 40.633,28.293 40.643,28.35 40.652,28.41 41.041,28.405 41.03,28.283 41.013,28.165 40.989,28.058 40.962,27.954 40.927,27.86 40.888,27.772 40.844,27.693 40.792,27.62 40.736,27.559 40.677,27.5 40.608,27.456 40.537,27.417 40.5,27.399 40.463,27.385 40.422,27.375 40.383,27.365 40.338,27.357 40.294,27.353 40.204,27.351 40.095,27.36 39.992,27.382 39.896,27.414 39.806,27.461 39.722,27.52 39.649,27.591 39.58,27.677 39.548,27.721 39.519,27.77 39.492,27.821 39.467,27.878 39.442,27.935 39.418,27.998 39.381,28.126 39.364,28.197 39.349,28.269 39.337,28.342 39.325,28.42 39.312,28.585 39.305,28.671 39.303,28.759 39.303,28.943 39.31,29.125 39.322,29.299 39.347,29.461 39.376,29.613 39.413,29.751 39.455,29.881 39.506,29.998 39.563,30.104 39.624,30.197 39.695,30.278 39.73,30.315 39.769,30.35 39.808,30.376 39.85,30.403 39.938,30.45 39.985,30.465 40.032,30.479 40.081,30.489 40.13,30.497 40.182,30.502 40.233,30.502 40.324,30.494 40.41,30.477 40.491,30.452 40.569,30.418 40.64,30.371 40.707,30.32 40.771,30.256 40.827,30.188 40.878,30.111 40.922,30.028 40.964,29.935 40.996,29.837 41.023,29.731 41.045,29.62 41.058,29.503 41.065,29.378 "
   id="polygon13"
   style="fill-rule:evenodd;fill:#204a9f;fill-opacity:1" />
		<polygon
   clip-rule="evenodd"
   points="41.391,30.315 42.842,30.217 42.805,29.662 41.784,29.733 41.622,27.304 41.195,27.333 41.391,30.315 "
   id="polygon15"
   style="fill-rule:evenodd;fill:#204a9f;fill-opacity:1" />
		<polygon
   clip-rule="evenodd"
   points="43.379,27.137 42.957,30.188 43.404,30.141 43.475,29.513 44.277,29.427 44.483,30.025 44.93,29.977 44.083,27.667 43.688,27.709 44.111,28.94 43.534,29.002 43.688,27.709 44.083,27.667 43.873,27.085 43.379,27.137 "
   id="polygon17"
   style="fill-rule:evenodd;fill:#204a9f;fill-opacity:1" />
		<polygon
   clip-rule="evenodd"
   points="47.758,26.519 47.517,29.586 47.961,29.513 47.993,28.884 48.791,28.749 49.031,29.333 49.476,29.26 48.492,27.002 48.102,27.068 48.595,28.273 48.023,28.369 48.102,27.068 48.492,27.002 48.246,26.435 47.758,26.519 "
   id="polygon19"
   style="fill-rule:evenodd;fill:#204a9f;fill-opacity:1" />
		<polygon
   clip-rule="evenodd"
   points="51.733,27.271 51.775,27.443 51.827,27.604 51.883,27.753 51.945,27.896 52.013,28.021 52.084,28.138 52.161,28.241 52.242,28.332 52.325,28.413 52.372,28.447 52.418,28.479 52.462,28.509 52.509,28.533 52.556,28.556 52.605,28.572 52.703,28.6 52.806,28.611 52.907,28.609 53.012,28.592 53.115,28.561 53.208,28.516 53.297,28.46 53.373,28.394 53.442,28.314 53.5,28.224 53.552,28.126 53.594,28.016 53.628,27.897 53.653,27.772 53.66,27.704 53.665,27.635 53.67,27.487 53.665,27.338 53.65,27.179 53.624,27.009 53.589,26.837 53.545,26.668 53.494,26.506 53.437,26.356 53.375,26.217 53.307,26.089 53.272,26.032 52.546,26.032 52.607,26.042 52.664,26.057 52.718,26.084 52.774,26.118 52.826,26.162 52.877,26.214 52.924,26.275 52.971,26.347 53.015,26.423 53.057,26.509 53.096,26.602 53.113,26.653 53.13,26.702 53.165,26.812 53.194,26.931 53.218,27.051 53.236,27.164 53.25,27.271 53.258,27.372 53.258,27.468 53.253,27.557 53.241,27.638 53.223,27.714 53.174,27.844 53.14,27.897 53.101,27.949 53.059,27.991 53.032,28.006 53.007,28.022 52.954,28.047 52.895,28.066 52.831,28.077 52.772,28.077 52.713,28.069 52.656,28.052 52.603,28.025 52.546,27.991 52.497,27.946 52.445,27.896 52.399,27.834 52.352,27.765 52.311,27.688 52.269,27.601 52.229,27.507 52.195,27.404 52.161,27.294 52.146,27.237 52.139,27.208 52.131,27.179 52.106,27.061 52.089,26.945 52.075,26.84 52.067,26.739 52.072,26.555 52.082,26.472 52.099,26.396 52.122,26.327 52.148,26.266 52.18,26.211 52.22,26.16 52.261,26.121 52.313,26.086 52.364,26.062 52.423,26.045 52.487,26.035 52.546,26.032 53.272,26.032 53.236,25.974 53.157,25.868 53.076,25.777 52.99,25.698 52.902,25.633 52.855,25.603 52.809,25.576 52.76,25.554 52.71,25.539 52.612,25.512 52.512,25.5 52.409,25.502 52.303,25.52 52.2,25.549 52.106,25.593 52.021,25.649 51.942,25.718 51.874,25.797 51.817,25.885 51.788,25.935 51.775,25.959 51.763,25.983 51.741,26.04 51.724,26.094 51.707,26.152 51.689,26.211 51.667,26.342 51.653,26.474 51.65,26.548 51.648,26.621 51.655,26.771 51.67,26.933 51.697,27.098 51.733,27.271 "
   id="polygon21"
   style="fill-rule:evenodd;fill:#204a9f;fill-opacity:1" />
		
			<rect
   x="51.084"
   y="25.836"
   transform="matrix(-0.9825,0.1863,-0.1863,-0.9825,106.7329,44.631)"
   clip-rule="evenodd"
   width="0.37200001"
   height="2.9879999"
   id="rect23"
   style="fill-rule:evenodd;fill:#204a9f;fill-opacity:1" />
		<polygon
   clip-rule="evenodd"
   points="50.042,29.142 50.453,29.073 50.05,26.648 50.639,26.55 50.551,26.025 48.958,26.295 49.046,26.817 49.64,26.72 50.042,29.142 "
   id="polygon25"
   style="fill-rule:evenodd;fill:#204a9f;fill-opacity:1" />
		<polygon
   clip-rule="evenodd"
   points="20.599,28.906 21.008,28.978 21.207,27.834 21.637,27.907 21.715,27.927 21.774,27.956 21.799,27.977 21.821,27.998 21.835,28.022 21.85,28.052 21.86,28.084 21.862,28.102 21.868,28.118 21.873,28.16 21.873,28.204 21.868,28.308 21.853,28.425 21.804,28.737 21.789,28.85 21.779,28.95 21.776,29.036 21.784,29.112 22.23,29.191 22.248,29.101 22.226,29.073 22.218,29.056 22.213,29.041 22.206,29.007 22.204,28.968 22.211,28.872 22.226,28.757 22.28,28.408 22.297,28.28 22.307,28.168 22.307,28.069 22.297,27.981 22.277,27.9 22.246,27.834 22.204,27.774 22.145,27.721 22.218,27.693 22.29,27.649 22.351,27.591 22.38,27.554 22.41,27.515 22.457,27.427 22.479,27.377 22.5,27.323 22.518,27.267 22.535,27.208 22.562,27.078 22.579,26.978 22.589,26.877 22.591,26.786 22.589,26.7 22.579,26.621 22.564,26.548 22.562,26.543 21.433,26.543 21.926,26.626 21.995,26.646 22.047,26.673 22.093,26.712 22.11,26.736 22.123,26.764 22.145,26.825 22.152,26.859 22.155,26.894 22.155,26.978 22.142,27.068 22.12,27.161 22.096,27.24 22.059,27.301 22.02,27.351 21.968,27.385 21.941,27.395 21.912,27.404 21.845,27.412 21.774,27.404 21.295,27.32 21.433,26.543 22.562,26.543 22.542,26.479 22.515,26.418 22.483,26.363 22.442,26.312 22.397,26.268 22.344,26.229 22.287,26.197 22.255,26.182 22.221,26.167 22.149,26.147 22.074,26.131 21.114,25.961 20.599,28.906 "
   id="polygon27"
   style="fill-rule:evenodd;fill:#204a9f;fill-opacity:1" />
		<polygon
   clip-rule="evenodd"
   points="25.284,26.72 24.14,29.51 24.587,29.574 24.805,28.997 25.605,29.11 25.659,29.726 26.106,29.79 25.841,27.392 25.448,27.336 25.561,28.606 24.987,28.525 25.448,27.336 25.841,27.392 25.775,26.791 25.284,26.72 "
   id="polygon29"
   style="fill-rule:evenodd;fill:#204a9f;fill-opacity:1" />
		<polygon
   clip-rule="evenodd"
   points="35.678,30.467 36.092,30.467 36.092,29.331 36.524,29.331 36.601,29.333 36.667,29.354 36.691,29.367 36.716,29.385 36.738,29.407 36.757,29.432 36.772,29.461 36.785,29.495 36.794,29.534 36.804,29.576 36.816,29.675 36.824,29.792 36.829,30.102 36.843,30.312 36.856,30.396 36.873,30.465 37.33,30.465 37.33,30.376 37.302,30.354 37.292,30.342 37.283,30.327 37.271,30.293 37.263,30.254 37.256,30.212 37.253,30.163 37.251,30.048 37.244,29.704 37.226,29.469 37.209,29.373 37.185,29.289 37.153,29.218 37.108,29.156 37.057,29.107 37.025,29.086 36.991,29.065 37.062,29.024 37.121,28.97 37.17,28.903 37.214,28.818 37.231,28.773 37.249,28.725 37.261,28.676 37.271,28.619 37.278,28.562 37.285,28.504 37.288,28.438 37.29,28.374 37.28,28.175 37.268,28.087 37.261,28.047 36.586,28.047 36.655,28.052 36.713,28.072 36.765,28.102 36.804,28.146 36.836,28.202 36.858,28.269 36.873,28.347 36.875,28.436 36.873,28.528 36.858,28.609 36.833,28.676 36.802,28.728 36.78,28.752 36.76,28.771 36.733,28.786 36.706,28.801 36.677,28.811 36.642,28.818 36.608,28.818 36.571,28.82 36.09,28.82 36.09,28.047 36.586,28.047 37.261,28.047 37.251,28.003 37.202,27.86 37.167,27.8 37.131,27.745 37.086,27.696 37.04,27.657 36.986,27.62 36.929,27.591 36.868,27.571 36.831,27.562 36.797,27.554 36.723,27.544 36.645,27.542 35.675,27.544 35.678,30.467 "
   id="polygon31"
   style="fill-rule:evenodd;fill:#204a9f;fill-opacity:1" />
		<polygon
   clip-rule="evenodd"
   points="45.262,29.949 45.625,29.9 45.306,27.549 46.01,29.849 46.403,29.795 46.467,27.39 46.786,29.74 47.146,29.691 46.754,26.776 46.18,26.854 46.111,29.125 45.438,26.955 44.869,27.033 45.262,29.949 "
   id="polygon33"
   style="fill-rule:evenodd;fill:#204a9f;fill-opacity:1" />
		<polygon
   clip-rule="evenodd"
   points="19.188,25.526 18.771,27.38 18.755,27.443 18.743,27.507 18.733,27.571 18.726,27.63 18.721,27.691 18.716,27.748 18.716,27.858 18.721,27.961 18.738,28.06 18.76,28.147 18.792,28.231 18.827,28.308 18.873,28.379 18.927,28.44 18.989,28.494 19.057,28.541 19.131,28.582 19.214,28.614 19.261,28.627 19.305,28.639 19.352,28.648 19.376,28.653 19.396,28.656 19.442,28.661 19.484,28.663 19.573,28.658 19.654,28.646 19.732,28.622 19.806,28.59 19.877,28.546 19.946,28.494 20.007,28.43 20.066,28.359 20.123,28.278 20.171,28.188 20.196,28.138 20.218,28.089 20.24,28.032 20.26,27.979 20.297,27.858 20.329,27.73 20.748,25.878 20.348,25.787 19.943,27.578 19.902,27.729 19.857,27.855 19.806,27.959 19.774,28.001 19.747,28.037 19.712,28.069 19.676,28.094 19.642,28.111 19.602,28.126 19.561,28.136 19.516,28.138 19.47,28.136 19.42,28.126 19.374,28.111 19.33,28.097 19.291,28.074 19.258,28.047 19.229,28.018 19.205,27.986 19.183,27.946 19.177,27.925 19.17,27.902 19.158,27.858 19.15,27.805 19.146,27.75 19.148,27.691 19.16,27.559 19.188,27.406 19.592,25.617 19.188,25.526 "
   id="polygon35"
   style="fill-rule:evenodd;fill:#204a9f;fill-opacity:1" />
		<polygon
   clip-rule="evenodd"
   points="26.521,26.921 26.319,28.811 26.31,28.94 26.305,29.065 26.31,29.184 26.319,29.292 26.336,29.395 26.364,29.488 26.398,29.576 26.435,29.655 26.484,29.729 26.536,29.79 26.597,29.844 26.663,29.893 26.7,29.915 26.737,29.932 26.779,29.947 26.818,29.962 26.862,29.977 26.906,29.986 26.95,29.993 27,30.001 27.092,30.006 27.181,30.004 27.264,29.988 27.343,29.964 27.419,29.935 27.49,29.891 27.554,29.842 27.615,29.78 27.672,29.711 27.721,29.635 27.743,29.591 27.765,29.545 27.804,29.448 27.822,29.399 27.839,29.346 27.868,29.23 27.89,29.11 27.907,28.979 28.108,27.09 27.701,27.046 27.507,28.872 27.488,29.024 27.456,29.156 27.414,29.265 27.365,29.351 27.335,29.385 27.304,29.414 27.27,29.437 27.232,29.456 27.22,29.461 27.21,29.464 27.193,29.469 27.146,29.476 27.051,29.476 27.004,29.469 26.958,29.456 26.916,29.438 26.881,29.419 26.847,29.393 26.818,29.36 26.795,29.326 26.776,29.287 26.759,29.24 26.744,29.191 26.734,29.137 26.732,29.107 26.727,29.078 26.725,29.015 26.725,28.943 26.737,28.791 26.933,26.965 26.521,26.921 "
   id="polygon37"
   style="fill-rule:evenodd;fill:#204a9f;fill-opacity:1" />
		<polygon
   clip-rule="evenodd"
   points="29.886,28.71 29.881,28.796 29.875,28.882 29.875,29.046 29.886,29.203 29.905,29.351 29.93,29.49 29.964,29.62 30.008,29.738 30.057,29.849 30.116,29.949 30.18,30.038 30.254,30.116 30.333,30.18 30.376,30.21 30.42,30.234 30.465,30.254 30.514,30.273 30.614,30.303 30.666,30.312 30.72,30.317 30.774,30.32 30.826,30.317 30.929,30.305 31.027,30.278 31.12,30.239 31.208,30.185 31.294,30.121 31.333,30.082 31.373,30.043 31.444,29.952 31.508,29.852 31.54,29.797 31.572,29.738 31.624,29.618 31.648,29.549 31.67,29.483 31.709,29.338 31.726,29.262 31.744,29.187 31.768,29.024 31.785,28.85 31.795,28.678 31.792,28.511 31.783,28.356 31.766,28.207 31.739,28.069 31.702,27.939 31.66,27.819 31.636,27.768 30.909,27.768 30.97,27.777 31.027,27.795 31.083,27.816 31.132,27.851 31.179,27.893 31.218,27.939 31.258,27.998 31.29,28.06 31.316,28.131 31.341,28.207 31.361,28.295 31.368,28.337 31.375,28.386 31.383,28.484 31.388,28.59 31.38,28.818 31.353,29.049 31.333,29.151 31.309,29.25 31.25,29.422 31.216,29.495 31.179,29.56 31.135,29.618 31.091,29.667 31.042,29.709 30.993,29.74 30.965,29.756 30.936,29.768 30.909,29.777 30.879,29.785 30.818,29.792 30.757,29.792 30.698,29.782 30.639,29.766 30.585,29.74 30.536,29.709 30.492,29.667 30.45,29.62 30.416,29.564 30.381,29.5 30.367,29.466 30.354,29.432 30.33,29.351 30.312,29.268 30.3,29.176 30.295,29.125 30.291,29.075 30.288,28.97 30.295,28.739 30.322,28.511 30.34,28.408 30.364,28.31 30.423,28.141 30.455,28.066 30.494,28.001 30.534,27.941 30.58,27.893 30.626,27.851 30.678,27.816 30.73,27.792 30.759,27.782 30.789,27.774 30.845,27.768 30.909,27.768 31.636,27.768 31.608,27.709 31.552,27.61 31.486,27.522 31.412,27.446 31.373,27.409 31.331,27.38 31.292,27.353 31.245,27.326 31.201,27.304 31.152,27.284 31.051,27.257 30.946,27.242 30.838,27.242 30.735,27.255 30.637,27.281 30.543,27.32 30.455,27.375 30.374,27.438 30.295,27.518 30.259,27.562 30.224,27.605 30.19,27.657 30.158,27.706 30.099,27.819 30.07,27.88 30.045,27.944 29.999,28.077 29.959,28.219 29.927,28.374 29.915,28.455 29.903,28.536 29.893,28.622 29.886,28.71 "
   id="polygon39"
   style="fill-rule:evenodd;fill:#204a9f;fill-opacity:1" />
		<polygon
   clip-rule="evenodd"
   points="54.271,28.18 54.652,28.079 54.136,26.094 55.413,27.88 55.81,27.777 55.062,24.884 54.681,24.984 55.197,26.973 53.923,25.181 53.521,25.286 54.271,28.18 "
   id="polygon41"
   style="fill-rule:evenodd;fill:#204a9f;fill-opacity:1" />
		<polygon
   clip-rule="evenodd"
   points="16.625,27.907 17.528,28.123 17.572,28.133 17.617,28.141 17.698,28.147 17.776,28.147 17.852,28.138 17.923,28.121 17.995,28.099 18.059,28.064 18.117,28.021 18.176,27.974 18.228,27.917 18.279,27.854 18.321,27.785 18.363,27.704 18.382,27.664 18.39,27.643 18.399,27.62 18.429,27.529 18.456,27.432 18.48,27.311 18.488,27.255 18.493,27.198 18.493,27.093 18.48,26.997 18.456,26.908 18.417,26.827 18.37,26.754 18.36,26.744 17.317,26.744 17.796,26.859 17.872,26.882 17.936,26.913 17.987,26.953 18.009,26.978 18.024,27.002 18.036,27.031 18.046,27.063 18.054,27.095 18.056,27.134 18.054,27.218 18.034,27.313 18.009,27.404 17.975,27.478 17.933,27.534 17.914,27.559 17.889,27.578 17.859,27.591 17.833,27.604 17.803,27.613 17.769,27.618 17.698,27.618 17.619,27.604 17.138,27.487 17.317,26.744 18.36,26.744 18.309,26.686 18.377,26.655 18.437,26.614 18.493,26.564 18.542,26.501 18.564,26.467 18.586,26.433 18.623,26.352 18.657,26.258 18.687,26.157 18.713,25.99 18.719,25.912 18.719,25.841 18.711,25.77 18.699,25.703 18.687,25.652 17.575,25.652 18.036,25.76 18.105,25.782 18.162,25.809 18.206,25.841 18.24,25.88 18.252,25.902 18.265,25.93 18.274,25.985 18.274,26.052 18.26,26.128 18.237,26.202 18.208,26.263 18.174,26.312 18.132,26.349 18.107,26.361 18.083,26.368 18.071,26.373 18.056,26.376 18.026,26.378 17.965,26.378 17.896,26.366 17.43,26.258 17.575,25.652 18.687,25.652 18.682,25.642 18.655,25.583 18.623,25.531 18.588,25.482 18.544,25.438 18.495,25.399 18.439,25.362 18.377,25.333 18.309,25.309 18.235,25.286 17.302,25.062 16.625,27.907 "
   id="polygon43"
   style="fill-rule:evenodd;fill:#204a9f;fill-opacity:1" />
		<polygon
   clip-rule="evenodd"
   points="7.407,16.784 8.334,17.332 24.106,17.329 23.342,16.782 7.407,16.784 "
   id="polygon45"
   style="fill-rule:evenodd;fill:#204a9f;fill-opacity:1" />
		<polygon
   clip-rule="evenodd"
   points="9.52,18.021 10.364,18.539 25.797,18.542 25.065,18.026 9.52,18.021 "
   id="polygon47"
   style="fill-rule:evenodd;fill:#204a9f;fill-opacity:1" />
		<polygon
   clip-rule="evenodd"
   points="11.56,19.234 12.394,19.752 27.463,19.747 26.742,19.234 11.56,19.234 "
   id="polygon49"
   style="fill-rule:evenodd;fill:#204a9f;fill-opacity:1" />
		<polygon
   clip-rule="evenodd"
   points="13.594,20.446 14.485,20.994 17.609,20.991 18.79,20.741 19.153,20.991 29.174,20.996 28.455,20.449 13.594,20.446 "
   id="polygon51"
   style="fill-rule:evenodd;fill:#204a9f;fill-opacity:1" />
		<polygon
   clip-rule="evenodd"
   points="20.123,21.695 20.841,22.23 28.7,22.23 29.638,21.693 20.123,21.695 "
   id="polygon53"
   style="fill-rule:evenodd;fill:#204a9f;fill-opacity:1" />
		<polygon
   clip-rule="evenodd"
   points="21.811,22.923 22.508,23.443 26.641,23.436 27.495,22.928 21.811,22.923 "
   id="polygon55"
   style="fill-rule:evenodd;fill:#204a9f;fill-opacity:1" />
		<polygon
   clip-rule="evenodd"
   points="23.404,24.138 25.37,24.138 24.472,24.675 24.14,24.675 23.404,24.138 "
   id="polygon57"
   style="fill-rule:evenodd;fill:#204a9f;fill-opacity:1" />
		<polygon
   clip-rule="evenodd"
   points="24.305,16.787 25.065,17.329 55.398,17.329 56.279,16.782 24.305,16.787 "
   id="polygon59"
   style="fill-rule:evenodd;fill:#204a9f;fill-opacity:1" />
		<polygon
   clip-rule="evenodd"
   points="26.049,18.024 26.771,18.537 53.444,18.542 54.276,18.021 26.049,18.024 "
   id="polygon61"
   style="fill-rule:evenodd;fill:#204a9f;fill-opacity:1" />
		<polygon
   clip-rule="evenodd"
   points="27.721,19.231 28.474,19.742 51.469,19.747 52.303,19.231 27.721,19.231 "
   id="polygon63"
   style="fill-rule:evenodd;fill:#204a9f;fill-opacity:1" />
		<polygon
   clip-rule="evenodd"
   points="29.454,20.439 30.219,20.991 41.482,20.991 41.885,20.731 42.272,20.991 49.466,20.986 50.337,20.443 29.454,20.439 "
   id="polygon65"
   style="fill-rule:evenodd;fill:#204a9f;fill-opacity:1" />
		<polygon
   clip-rule="evenodd"
   points="31.204,21.688 31.957,22.229 39.587,22.23 40.412,21.688 31.204,21.688 "
   id="polygon67"
   style="fill-rule:evenodd;fill:#204a9f;fill-opacity:1" />
		<polygon
   clip-rule="evenodd"
   points="32.954,22.925 33.621,23.434 37.72,23.436 38.522,22.925 32.954,22.925 "
   id="polygon69"
   style="fill-rule:evenodd;fill:#204a9f;fill-opacity:1" />
		<polygon
   clip-rule="evenodd"
   points="34.654,24.128 35.386,24.673 35.852,24.673 36.669,24.13 34.654,24.128 "
   id="polygon71"
   style="fill-rule:evenodd;fill:#204a9f;fill-opacity:1" />
		<polygon
   clip-rule="evenodd"
   points="43.301,21.686 44.071,22.23 47.409,22.23 48.322,21.684 43.301,21.686 "
   id="polygon73"
   style="fill-rule:evenodd;fill:#204a9f;fill-opacity:1" />
		<polygon
   clip-rule="evenodd"
   points="45.109,22.933 45.681,23.312 46.3,22.933 45.109,22.933 "
   id="polygon75"
   style="fill-rule:evenodd;fill:#204a9f;fill-opacity:1" />
		<polygon
   clip-rule="evenodd"
   points="57.452,16.784 56.559,17.329 64.294,17.327 65.073,16.777 57.452,16.784 "
   id="polygon77"
   style="fill-rule:evenodd;fill:#204a9f;fill-opacity:1" />
		<polygon
   clip-rule="evenodd"
   points="55.405,18.026 54.551,18.539 62.582,18.539 63.311,18.026 55.405,18.026 "
   id="polygon79"
   style="fill-rule:evenodd;fill:#204a9f;fill-opacity:1" />
		<polygon
   clip-rule="evenodd"
   points="53.41,19.231 52.686,19.663 52.845,19.747 60.881,19.747 61.605,19.234 53.41,19.231 "
   id="polygon81"
   style="fill-rule:evenodd;fill:#204a9f;fill-opacity:1" />
		<polygon
   clip-rule="evenodd"
   points="54.045,20.441 54.971,20.988 59.138,20.991 59.896,20.441 54.045,20.441 "
   id="polygon83"
   style="fill-rule:evenodd;fill:#204a9f;fill-opacity:1" />
		<polygon
   clip-rule="evenodd"
   points="56.191,21.684 57.106,22.23 57.374,22.233 58.159,21.684 56.191,21.684 "
   id="polygon85"
   style="fill-rule:evenodd;fill:#204a9f;fill-opacity:1" />
		<polygon
   clip-rule="evenodd"
   points="64.695,26.153 64.53,26.243 64.364,26.335 64.027,26.512 63.686,26.686 63.343,26.857 62.992,27.031 62.638,27.198 61.917,27.53 61.548,27.691 61.178,27.854 60.802,28.009 60.422,28.165 59.651,28.468 59.259,28.614 58.861,28.762 58.461,28.904 58.059,29.044 57.649,29.184 57.236,29.316 56.404,29.581 55.98,29.712 55.555,29.834 55.126,29.957 54.691,30.077 54.257,30.195 53.815,30.311 53.371,30.421 53.147,30.475 52.924,30.531 52.475,30.637 52.021,30.74 51.105,30.938 50.642,31.034 50.178,31.125 49.235,31.3 48.762,31.383 48.283,31.464 47.802,31.543 47.321,31.616 46.835,31.688 46.347,31.756 45.854,31.819 45.36,31.881 44.864,31.94 44.366,31.997 43.863,32.048 43.36,32.097 42.854,32.144 42.346,32.186 41.836,32.225 41.323,32.262 40.292,32.323 39.771,32.35 39.251,32.375 38.729,32.392 38.204,32.406 37.676,32.419 37.148,32.429 36.615,32.434 36.085,32.436 35.027,32.429 33.97,32.406 32.924,32.375 31.884,32.323 30.851,32.262 29.83,32.186 28.816,32.097 27.81,31.997 26.815,31.881 25.832,31.756 24.857,31.616 23.893,31.464 22.94,31.3 22,31.125 21.07,30.938 20.157,30.74 19.251,30.531 18.36,30.311 17.484,30.077 16.623,29.834 15.773,29.581 14.939,29.316 14.12,29.044 13.317,28.762 12.529,28.468 11.756,28.165 11,27.854 10.261,27.53 9.54,27.198 8.838,26.857 8.492,26.686 8.153,26.512 7.814,26.335 7.483,26.153 7.566,25.983 7.655,25.812 7.839,25.463 8.166,25.64 8.497,25.816 8.664,25.902 8.835,25.988 9.174,26.158 9.869,26.494 10.581,26.82 11.309,27.137 11.68,27.292 12.056,27.446 12.434,27.596 12.816,27.743 13.204,27.888 13.594,28.033 14.39,28.312 14.792,28.447 15.194,28.583 15.604,28.713 16.019,28.84 16.856,29.091 17.71,29.329 18.14,29.444 18.574,29.557 19.453,29.775 20.346,29.981 20.795,30.082 21.249,30.178 21.475,30.228 21.706,30.271 22.165,30.362 22.626,30.448 23.095,30.536 23.561,30.617 23.794,30.656 24.032,30.695 24.506,30.771 24.982,30.846 25.461,30.914 25.947,30.98 26.918,31.108 27.407,31.165 27.9,31.219 28.89,31.319 29.388,31.363 29.891,31.407 30.394,31.446 30.899,31.481 31.918,31.543 32.944,31.589 33.977,31.624 34.498,31.636 35.02,31.646 35.543,31.65 36.063,31.653 37.111,31.646 38.154,31.624 39.188,31.589 40.213,31.543 41.232,31.481 42.243,31.407 43.245,31.319 44.233,31.219 45.218,31.108 46.189,30.98 47.152,30.846 48.102,30.695 49.042,30.536 49.972,30.362 50.887,30.178 51.791,29.981 52.684,29.775 53.562,29.557 54.426,29.329 55.278,29.091 56.117,28.84 56.939,28.583 57.747,28.312 58.542,28.033 59.32,27.743 60.081,27.446 60.827,27.137 61.556,26.82 62.268,26.494 62.962,26.158 63.64,25.816 64.297,25.463 64.403,25.638 64.501,25.812 64.695,26.153 "
   id="polygon87"
   style="fill-rule:evenodd;fill:#204a9f;fill-opacity:1" />
		<polygon
   clip-rule="evenodd"
   points="71.277,16.218 71.277,16.19 71.265,15.793 71.25,15.597 71.231,15.4 71.174,15.011 71.096,14.623 70.995,14.237 70.934,14.046 70.873,13.854 70.725,13.472 70.561,13.096 70.374,12.723 70.273,12.536 70.168,12.35 70.055,12.168 69.94,11.984 69.82,11.803 69.694,11.621 69.427,11.263 69.14,10.907 68.835,10.556 68.509,10.207 68.339,10.035 68.168,9.866 67.986,9.694 67.802,9.527 67.424,9.191 67.228,9.029 67.024,8.862 66.82,8.7 66.609,8.541 66.177,8.22 65.954,8.06 65.728,7.905 65.498,7.748 65.262,7.596 65.024,7.441 64.901,7.365 64.778,7.292 64.533,7.14 64.278,6.992 63.765,6.7 63.235,6.41 62.965,6.271 62.69,6.128 62.408,5.988 62.125,5.854 61.841,5.716 61.551,5.581 60.959,5.318 60.356,5.061 60.049,4.936 59.737,4.808 59.423,4.686 59.104,4.562 58.785,4.444 58.461,4.327 58.132,4.209 57.801,4.094 57.467,3.98 57.128,3.868 56.787,3.758 56.444,3.649 55.749,3.438 55.396,3.335 55.04,3.234 54.318,3.038 53.587,2.85 52.843,2.67 52.468,2.582 52.09,2.496 51.327,2.329 50.551,2.172 50.158,2.096 49.766,2.02 48.97,1.88 48.166,1.747 47.351,1.62 46.528,1.505 46.114,1.45 45.696,1.396 44.857,1.296 44.433,1.252 44.01,1.205 43.151,1.124 42.722,1.087 42.288,1.053 41.855,1.021 41.418,0.989 40.54,0.938 40.098,0.913 39.654,0.891 38.763,0.859 37.867,0.832 36.964,0.817 36.507,0.814 36.054,0.812 35.148,0.817 34.247,0.832 33.349,0.859 32.458,0.891 31.572,0.938 30.693,0.989 29.824,1.053 28.96,1.124 28.102,1.205 27.255,1.296 26.416,1.396 25.583,1.505 24.761,1.62 23.946,1.747 23.142,1.88 22.346,2.02 21.561,2.172 20.785,2.329 20.022,2.496 19.269,2.67 18.525,2.85 17.793,3.038 17.072,3.234 16.365,3.438 15.668,3.649 14.983,3.868 14.313,4.094 13.651,4.327 13.008,4.562 12.375,4.808 11.756,5.061 11.152,5.318 10.561,5.581 9.986,5.854 9.424,6.128 8.877,6.41 8.35,6.7 7.834,6.992 7.333,7.292 6.85,7.596 6.386,7.905 5.935,8.22 5.502,8.541 5.088,8.862 4.884,9.029 4.688,9.191 4.31,9.527 3.946,9.866 3.772,10.035 3.603,10.207 3.276,10.556 2.972,10.907 2.685,11.263 2.417,11.621 2.292,11.803 2.172,11.984 2.057,12.168 1.944,12.35 1.838,12.536 1.738,12.723 1.551,13.096 1.465,13.282 1.387,13.472 1.311,13.663 1.239,13.854 1.178,14.046 1.146,14.142 1.117,14.237 1.065,14.429 1.019,14.623 0.974,14.816 0.938,15.011 0.908,15.207 0.881,15.4 0.861,15.597 0.847,15.793 0.837,15.992 0.834,16.19 0.834,16.218 0.407,16.211 0,16.195 0,16.166 0.012,15.749 0.046,15.339 0.105,14.927 0.187,14.518 0.29,14.112 0.415,13.71 0.562,13.31 0.731,12.912 0.92,12.52 1.134,12.129 1.367,11.744 1.617,11.363 1.895,10.985 2.037,10.796 2.187,10.61 2.499,10.241 2.83,9.876 3.004,9.694 3.181,9.516 3.362,9.339 3.554,9.159 3.745,8.985 3.941,8.811 4.143,8.637 4.347,8.462 4.558,8.293 4.771,8.124 4.992,7.952 5.215,7.787 5.441,7.62 5.674,7.456 5.91,7.292 6.15,7.13 6.646,6.809 6.896,6.653 7.157,6.496 7.417,6.342 7.682,6.189 8.227,5.886 8.784,5.589 9.068,5.443 9.355,5.299 9.65,5.156 9.945,5.014 10.247,4.874 10.551,4.736 10.858,4.6 11.169,4.464 11.481,4.334 11.8,4.201 12.122,4.071 12.448,3.941 13.108,3.693 13.442,3.571 13.781,3.448 14.122,3.328 14.468,3.213 15.17,2.984 15.879,2.761 16.605,2.548 17.344,2.342 18.09,2.143 18.851,1.951 19.622,1.77 20.402,1.593 20.797,1.51 21.195,1.429 21.598,1.35 22,1.271 22.405,1.195 22.812,1.122 23.223,1.051 23.635,0.979 24.469,0.852 24.886,0.785 25.309,0.727 25.733,0.668 26.158,0.613 27.019,0.508 27.886,0.415 28.762,0.329 29.201,0.29 29.646,0.253 30.536,0.187 31.432,0.13 32.338,0.083 33.248,0.049 34.166,0.022 34.627,0.013 35.091,0.005 35.555,0.002 36.014,0 36.944,0.005 37.867,0.022 38.788,0.049 39.698,0.083 40.604,0.13 41.5,0.187 42.39,0.253 43.274,0.329 44.15,0.415 45.017,0.508 45.878,0.613 46.727,0.727 47.569,0.852 48.401,0.979 49.223,1.122 50.038,1.271 50.841,1.429 51.633,1.593 52.416,1.77 53.187,1.951 53.945,2.143 54.694,2.342 55.433,2.548 56.157,2.761 56.868,2.984 57.568,3.213 58.255,3.448 58.93,3.693 59.59,3.941 60.238,4.201 60.869,4.464 61.487,4.736 62.091,5.014 62.68,5.299 63.254,5.589 63.812,5.886 64.356,6.189 64.881,6.496 65.392,6.809 65.885,7.13 66.364,7.456 66.823,7.787 67.267,8.124 67.48,8.293 67.689,8.462 68.097,8.811 68.484,9.159 68.857,9.516 69.034,9.694 69.208,9.876 69.54,10.241 69.852,10.61 70.001,10.796 70.144,10.985 70.286,11.175 70.421,11.363 70.546,11.553 70.671,11.744 70.792,11.936 70.904,12.129 71.012,12.325 71.115,12.52 71.214,12.716 71.304,12.912 71.395,13.111 71.476,13.31 71.552,13.509 71.624,13.71 71.69,13.908 71.749,14.112 71.803,14.313 71.827,14.416 71.852,14.518 71.894,14.721 71.933,14.927 71.989,15.339 72.026,15.749 72.036,15.958 72.038,16.166 72.038,16.195 71.844,16.211 71.749,16.216 71.655,16.216 71.277,16.218 "
   id="polygon89"
   style="fill-rule:evenodd;fill:#204a9f;fill-opacity:1" />
		<polygon
   clip-rule="evenodd"
   points="11.461,8.71 11.508,8.813 11.562,8.909 11.614,8.995 11.672,9.073 11.734,9.145 11.798,9.206 11.866,9.26 11.935,9.304 12.006,9.339 12.08,9.365 12.159,9.383 12.237,9.39 12.318,9.39 12.399,9.378 12.485,9.36 12.571,9.331 12.657,9.292 12.735,9.25 12.804,9.201 12.863,9.147 12.919,9.088 12.961,9.024 12.981,8.99 13,8.956 13.015,8.919 13.03,8.88 13.047,8.804 13.062,8.723 13.064,8.637 13.062,8.546 13.049,8.45 13.03,8.352 12.963,8.148 12.922,8.048 12.875,7.959 12.824,7.878 12.767,7.81 12.708,7.748 12.674,7.724 12.645,7.699 12.573,7.657 12.502,7.625 12.446,7.61 12.387,7.601 12.325,7.591 12.262,7.586 12.131,7.584 11.987,7.586 11.763,7.594 11.672,7.594 11.599,7.586 11.538,7.564 11.483,7.527 11.461,7.503 11.439,7.471 11.417,7.432 11.397,7.388 11.39,7.368 11.383,7.349 11.375,7.312 11.368,7.274 11.366,7.24 11.368,7.174 11.38,7.112 11.41,7.059 11.432,7.034 11.454,7.012 11.479,6.99 11.508,6.97 11.542,6.953 11.577,6.936 11.621,6.921 11.663,6.911 11.739,6.904 11.812,6.911 11.881,6.936 11.945,6.979 12.001,7.036 12.031,7.07 12.056,7.11 12.102,7.201 12.465,7.059 12.424,6.96 12.375,6.872 12.325,6.788 12.269,6.713 12.215,6.646 12.156,6.59 12.092,6.538 12.028,6.496 11.962,6.462 11.889,6.436 11.817,6.418 11.746,6.408 11.67,6.41 11.592,6.418 11.513,6.438 11.432,6.465 11.349,6.499 11.275,6.543 11.206,6.59 11.147,6.639 11.096,6.695 11.054,6.754 11.017,6.818 10.988,6.887 10.968,6.958 10.956,7.034 10.951,7.112 10.956,7.198 10.966,7.284 10.985,7.375 11.012,7.469 11.047,7.566 11.088,7.667 11.138,7.761 11.187,7.842 11.241,7.915 11.297,7.979 11.358,8.033 11.42,8.074 11.452,8.092 11.469,8.1 11.483,8.106 11.516,8.119 11.547,8.129 11.606,8.141 11.667,8.15 11.727,8.155 11.847,8.155 11.97,8.148 12.22,8.139 12.318,8.144 12.401,8.155 12.473,8.183 12.504,8.202 12.534,8.227 12.556,8.251 12.581,8.286 12.623,8.366 12.649,8.447 12.654,8.486 12.659,8.523 12.657,8.593 12.64,8.653 12.607,8.713 12.559,8.759 12.5,8.804 12.424,8.84 12.375,8.855 12.331,8.867 12.286,8.875 12.245,8.88 12.161,8.872 12.087,8.851 12.016,8.806 11.95,8.747 11.889,8.666 11.861,8.619 11.832,8.565 11.461,8.71 "
   id="polygon91"
   style="fill-rule:evenodd;fill:#204a9f;fill-opacity:1" />
		<polygon
   clip-rule="evenodd"
   points="16.036,7.636 16.674,7.454 16.863,7.393 16.949,7.353 17.028,7.309 17.097,7.255 17.16,7.188 17.19,7.149 17.217,7.11 17.266,7.015 17.288,6.96 17.31,6.901 17.327,6.838 17.339,6.773 17.349,6.702 17.356,6.634 17.359,6.561 17.362,6.484 17.352,6.32 17.332,6.15 17.295,5.969 17.246,5.777 17.195,5.603 17.141,5.446 17.079,5.301 17.018,5.169 16.971,5.088 16.24,5.088 16.292,5.09 16.348,5.103 16.397,5.122 16.449,5.149 16.493,5.184 16.542,5.228 16.583,5.279 16.628,5.343 16.667,5.412 16.706,5.488 16.746,5.578 16.78,5.672 16.851,5.888 16.88,6.003 16.905,6.111 16.925,6.209 16.937,6.303 16.942,6.391 16.942,6.47 16.937,6.541 16.922,6.606 16.903,6.668 16.878,6.72 16.846,6.769 16.807,6.811 16.763,6.85 16.711,6.882 16.655,6.909 16.623,6.919 16.588,6.929 16.274,7.017 15.764,5.208 16.122,5.107 16.181,5.093 16.24,5.088 16.971,5.088 16.952,5.054 16.883,4.948 16.81,4.857 16.733,4.776 16.652,4.71 16.611,4.683 16.566,4.658 16.478,4.619 16.387,4.592 16.292,4.577 16.243,4.575 16.193,4.577 16.09,4.59 15.982,4.614 15.239,4.825 16.036,7.636 "
   id="polygon93"
   style="fill-rule:evenodd;fill:#204a9f;fill-opacity:1" />
		<polygon
   clip-rule="evenodd"
   points="18.223,6.987 19.688,6.57 19.539,6.05 18.471,6.354 18.267,5.633 19.197,5.367 19.062,4.887 18.13,5.151 17.96,4.553 18.979,4.263 18.839,3.774 17.425,4.177 18.223,6.987 "
   id="polygon95"
   style="fill-rule:evenodd;fill:#204a9f;fill-opacity:1" />
		<polygon
   clip-rule="evenodd"
   points="30.863,4.943 32.382,4.848 32.348,4.295 31.241,4.363 31.194,3.598 32.161,3.536 32.129,3.026 31.162,3.088 31.123,2.452 32.181,2.388 32.148,1.867 30.679,1.961 30.863,4.943 "
   id="polygon97"
   style="fill-rule:evenodd;fill:#204a9f;fill-opacity:1" />
		<polygon
   clip-rule="evenodd"
   points="32.814,4.812 33.207,4.801 33.147,2.751 33.994,4.778 34.407,4.767 34.321,1.779 33.928,1.789 33.987,3.844 33.145,1.813 32.728,1.826 32.814,4.812 "
   id="polygon99"
   style="fill-rule:evenodd;fill:#204a9f;fill-opacity:1" />
		<polygon
   clip-rule="evenodd"
   points="35.484,4.769 35.899,4.757 35.83,2.3 36.424,2.282 36.409,1.75 34.797,1.799 34.812,2.332 35.413,2.312 35.484,4.769 "
   id="polygon101"
   style="fill-rule:evenodd;fill:#204a9f;fill-opacity:1" />
		<polygon
   clip-rule="evenodd"
   points="43.752,5.179 44.167,5.221 44.422,2.778 45.017,2.84 45.07,2.31 43.463,2.146 43.409,2.673 44.008,2.736 43.752,5.179 "
   id="polygon103"
   style="fill-rule:evenodd;fill:#204a9f;fill-opacity:1" />
		<polygon
   clip-rule="evenodd"
   points="38.284,3.22 38.282,3.309 38.282,3.396 38.289,3.563 38.304,3.726 38.326,3.875 38.355,4.018 38.397,4.146 38.444,4.268 38.498,4.379 38.56,4.477 38.628,4.565 38.704,4.641 38.743,4.673 38.785,4.705 38.874,4.757 38.967,4.793 39.067,4.817 39.121,4.825 39.175,4.83 39.283,4.827 39.384,4.808 39.482,4.778 39.529,4.759 39.575,4.734 39.661,4.676 39.742,4.606 39.818,4.523 39.887,4.43 39.919,4.376 39.948,4.324 40.007,4.207 40.054,4.079 40.098,3.941 40.115,3.865 40.13,3.792 40.157,3.635 40.177,3.466 40.189,3.289 40.191,3.112 40.184,2.942 40.169,2.785 40.145,2.634 40.115,2.493 40.074,2.363 40.027,2.24 40.017,2.216 39.273,2.216 39.335,2.224 39.394,2.238 39.448,2.263 39.502,2.295 39.546,2.334 39.59,2.383 39.629,2.438 39.666,2.501 39.681,2.535 39.696,2.572 39.723,2.65 39.745,2.736 39.762,2.83 39.774,2.931 39.784,3.038 39.787,3.151 39.784,3.274 39.764,3.51 39.728,3.716 39.676,3.893 39.644,3.969 39.61,4.04 39.568,4.099 39.526,4.15 39.477,4.197 39.428,4.233 39.401,4.248 39.374,4.258 39.318,4.28 39.256,4.29 39.195,4.293 39.133,4.285 39.075,4.271 39.021,4.248 38.969,4.217 38.925,4.175 38.881,4.131 38.844,4.071 38.81,4.011 38.778,3.939 38.753,3.858 38.733,3.772 38.716,3.679 38.702,3.581 38.694,3.473 38.692,3.357 38.694,3.234 38.711,3.002 38.748,2.795 38.8,2.616 38.866,2.472 38.905,2.41 38.947,2.358 38.994,2.312 39.043,2.277 39.097,2.248 39.126,2.238 39.153,2.229 39.212,2.219 39.273,2.216 40.017,2.216 39.973,2.13 39.912,2.032 39.84,1.946 39.764,1.87 39.683,1.804 39.595,1.755 39.499,1.716 39.398,1.691 39.293,1.682 39.185,1.684 39.084,1.701 38.986,1.732 38.896,1.777 38.81,1.833 38.729,1.902 38.652,1.988 38.584,2.081 38.552,2.133 38.522,2.187 38.466,2.305 38.417,2.433 38.375,2.569 38.343,2.717 38.314,2.876 38.296,3.043 38.289,3.129 38.284,3.22 "
   id="polygon105"
   style="fill-rule:evenodd;fill:#204a9f;fill-opacity:1" />
		<polygon
   clip-rule="evenodd"
   points="45.171,5.402 45.566,5.456 45.743,4.141 46.531,4.246 46.354,5.562 46.749,5.613 47.149,2.653 46.754,2.599 46.604,3.703 45.816,3.598 45.966,2.493 45.571,2.442 45.171,5.402 "
   id="polygon107"
   style="fill-rule:evenodd;fill:#204a9f;fill-opacity:1" />
		<polygon
   clip-rule="evenodd"
   points="47.22,5.73 48.725,5.961 48.811,5.414 47.711,5.245 47.829,4.486 48.786,4.636 48.865,4.128 47.908,3.98 48.006,3.354 49.054,3.515 49.132,3.002 47.677,2.778 47.22,5.73 "
   id="polygon109"
   style="fill-rule:evenodd;fill:#204a9f;fill-opacity:1" />
		<polygon
   clip-rule="evenodd"
   points="55.462,7.596 56.905,8.084 57.082,7.56 56.031,7.203 56.277,6.477 57.195,6.786 57.359,6.303 56.441,5.991 56.645,5.39 57.649,5.73 57.815,5.237 56.422,4.767 55.462,7.596 "
   id="polygon111"
   style="fill-rule:evenodd;fill:#204a9f;fill-opacity:1" />
		<polygon
   clip-rule="evenodd"
   points="57.354,8.229 57.742,8.379 58.164,7.297 58.574,7.456 58.643,7.49 58.694,7.529 58.716,7.552 58.731,7.579 58.75,7.636 58.755,7.672 58.755,7.709 58.743,7.792 58.716,7.891 58.68,8.006 58.569,8.301 58.53,8.408 58.5,8.507 58.493,8.548 58.483,8.59 58.476,8.664 58.898,8.83 58.932,8.747 58.917,8.715 58.91,8.681 58.915,8.604 58.94,8.517 58.981,8.406 59.102,8.072 59.144,7.952 59.175,7.844 59.195,7.746 59.202,7.657 59.2,7.579 59.183,7.505 59.153,7.437 59.106,7.375 59.185,7.36 59.264,7.331 59.335,7.284 59.404,7.221 59.438,7.187 59.472,7.145 59.501,7.103 59.534,7.054 59.563,7.002 59.59,6.945 59.617,6.89 59.644,6.825 59.679,6.728 59.708,6.634 59.72,6.59 59.73,6.546 59.745,6.46 59.752,6.381 59.752,6.305 59.745,6.236 59.73,6.17 59.708,6.108 59.691,6.077 58.643,6.077 59.109,6.259 59.173,6.29 59.22,6.327 59.239,6.352 59.254,6.376 59.266,6.4 59.276,6.431 59.281,6.462 59.283,6.496 59.278,6.567 59.264,6.646 59.234,6.732 59.195,6.82 59.153,6.892 59.104,6.945 59.055,6.984 59.028,7 58.999,7.01 58.984,7.012 58.972,7.012 58.94,7.015 58.876,7.012 58.805,6.99 58.353,6.811 58.643,6.077 59.691,6.077 59.679,6.053 59.642,5.998 59.598,5.952 59.548,5.907 59.519,5.886 59.489,5.868 59.458,5.849 59.423,5.831 59.352,5.8 58.444,5.446 57.354,8.229 "
   id="polygon113"
   style="fill-rule:evenodd;fill:#204a9f;fill-opacity:1" />
		<polygon
   clip-rule="evenodd"
   points="62.375,10.575 62.734,10.784 63.315,9.775 63.693,9.994 63.76,10.04 63.804,10.087 63.814,10.1 63.816,10.106 63.821,10.114 63.833,10.141 63.841,10.171 63.843,10.202 63.836,10.273 63.812,10.354 63.774,10.448 63.718,10.556 63.563,10.831 63.51,10.932 63.468,11.022 63.451,11.066 63.436,11.104 63.424,11.143 63.417,11.177 63.809,11.405 63.855,11.324 63.846,11.292 63.843,11.258 63.86,11.187 63.897,11.101 63.956,10.998 64.125,10.686 64.185,10.573 64.231,10.47 64.266,10.377 64.288,10.288 64.297,10.21 64.29,10.136 64.271,10.067 64.236,9.996 64.314,9.994 64.396,9.977 64.474,9.942 64.555,9.891 64.592,9.861 64.631,9.824 64.705,9.743 64.778,9.646 64.85,9.535 64.899,9.444 64.943,9.355 64.975,9.27 65.004,9.188 65.021,9.112 65.034,9.039 65.039,8.968 65.034,8.901 65.019,8.838 65,8.776 64.97,8.72 64.936,8.664 64.914,8.642 63.971,8.642 64.408,8.895 64.462,8.934 64.503,8.98 64.521,9.005 64.533,9.031 64.541,9.059 64.545,9.091 64.545,9.154 64.528,9.226 64.499,9.299 64.459,9.38 64.405,9.464 64.354,9.525 64.3,9.571 64.271,9.589 64.244,9.604 64.214,9.613 64.185,9.618 64.125,9.618 64.062,9.602 63.996,9.569 63.576,9.326 63.971,8.642 64.914,8.642 64.891,8.614 64.842,8.565 64.781,8.521 64.715,8.478 63.873,7.988 62.375,10.575 "
   id="polygon115"
   style="fill-rule:evenodd;fill:#204a9f;fill-opacity:1" />
		<polygon
   clip-rule="evenodd"
   points="60.95,8.104 60.874,8.261 60.839,8.342 60.808,8.418 60.792,8.455 60.778,8.494 60.751,8.567 60.709,8.715 60.692,8.786 60.677,8.855 60.658,8.99 60.648,9.12 60.65,9.243 60.663,9.36 60.687,9.466 60.724,9.569 60.771,9.66 60.83,9.743 60.898,9.819 60.938,9.854 60.979,9.884 61.001,9.898 61.023,9.913 61.07,9.939 61.119,9.965 61.168,9.981 61.269,10.011 61.37,10.023 61.473,10.023 61.576,10.009 61.679,9.979 61.782,9.938 61.885,9.881 61.988,9.812 62.088,9.731 62.187,9.638 62.285,9.53 62.332,9.471 62.378,9.41 62.471,9.277 62.513,9.208 62.56,9.137 62.643,8.98 62.719,8.823 62.788,8.666 62.842,8.517 62.886,8.369 62.901,8.301 62.916,8.229 62.938,8.094 62.945,7.964 62.942,7.842 62.93,7.727 62.903,7.618 62.891,7.574 62.104,7.574 62.16,7.579 62.216,7.596 62.275,7.62 62.327,7.652 62.375,7.691 62.413,7.733 62.432,7.761 62.447,7.785 62.474,7.842 62.494,7.905 62.503,7.972 62.506,8.043 62.496,8.205 62.454,8.384 62.422,8.479 62.385,8.58 62.285,8.794 62.167,9 62.108,9.088 62.044,9.169 61.985,9.243 61.922,9.307 61.86,9.363 61.799,9.41 61.767,9.43 61.735,9.449 61.706,9.464 61.676,9.476 61.645,9.488 61.615,9.496 61.583,9.503 61.553,9.508 61.524,9.511 61.492,9.511 61.433,9.503 61.375,9.485 61.318,9.464 61.264,9.432 61.22,9.393 61.18,9.349 61.146,9.297 61.124,9.243 61.104,9.182 61.095,9.115 61.089,9.044 61.092,8.963 61.104,8.882 61.144,8.703 61.217,8.507 61.318,8.293 61.433,8.089 61.492,7.998 61.553,7.917 61.615,7.844 61.674,7.78 61.735,7.727 61.799,7.677 61.858,7.638 61.919,7.608 61.98,7.589 62.042,7.576 62.104,7.574 62.891,7.574 62.869,7.518 62.82,7.422 62.763,7.338 62.695,7.263 62.656,7.228 62.611,7.198 62.592,7.184 62.57,7.169 62.521,7.142 62.474,7.117 62.422,7.101 62.322,7.07 62.221,7.059 62.121,7.059 62.018,7.073 61.917,7.105 61.813,7.145 61.71,7.203 61.607,7.27 61.507,7.353 61.409,7.446 61.313,7.555 61.217,7.675 61.126,7.807 61.038,7.947 60.95,8.104 "
   id="polygon117"
   style="fill-rule:evenodd;fill:#204a9f;fill-opacity:1" />
		<polygon
   clip-rule="evenodd"
   points="51.606,6.536 51.992,6.617 52.423,4.611 52.76,6.783 53.162,6.869 53.793,3.949 53.41,3.865 52.976,5.873 52.645,3.701 52.237,3.615 51.606,6.536 "
   id="polygon119"
   style="fill-rule:evenodd;fill:#204a9f;fill-opacity:1" />
		<polygon
   clip-rule="evenodd"
   points="54.061,7.145 54.458,7.268 55.175,4.918 55.747,5.09 55.904,4.582 54.357,4.111 54.203,4.621 54.777,4.796 54.061,7.145 "
   id="polygon121"
   style="fill-rule:evenodd;fill:#204a9f;fill-opacity:1" />
		
			<rect
   x="50.854"
   y="3.3729999"
   transform="matrix(-0.9818,-0.1901,0.1901,-0.9818,100.2278,19.3498)"
   clip-rule="evenodd"
   width="0.375"
   height="2.9879999"
   id="rect123"
   style="fill-rule:evenodd;fill:#204a9f;fill-opacity:1" />
		
			<rect
   x="60.039001"
   y="6.3559999"
   transform="matrix(-0.9162,-0.4008,0.4008,-0.9162,112.258,39.1822)"
   clip-rule="evenodd"
   width="0.375"
   height="2.9890001"
   id="rect125"
   style="fill-rule:evenodd;fill:#204a9f;fill-opacity:1" />
		<polygon
   clip-rule="evenodd"
   points="40.464,4.791 40.874,4.82 40.972,3.552 41.848,3.62 41.887,3.103 41.014,3.033 41.065,2.361 42.064,2.438 42.105,1.919 40.697,1.812 40.464,4.791 "
   id="polygon127"
   style="fill-rule:evenodd;fill:#204a9f;fill-opacity:1" />
		<polygon
   clip-rule="evenodd"
   points="20.356,5.299 20.839,5.174 20.906,5.154 20.967,5.124 21.026,5.09 21.075,5.051 21.119,5.002 21.156,4.95 21.188,4.892 21.2,4.859 21.215,4.827 21.234,4.757 21.247,4.678 21.254,4.597 21.254,4.511 21.249,4.42 21.237,4.322 21.193,4.113 21.129,3.907 21.107,3.855 20.483,3.855 20.545,3.86 20.601,3.883 20.653,3.92 20.675,3.941 20.697,3.969 20.717,4 20.736,4.035 20.768,4.113 20.797,4.207 20.82,4.31 20.83,4.398 20.825,4.474 20.808,4.538 20.775,4.592 20.734,4.634 20.675,4.666 20.643,4.678 20.606,4.69 20.226,4.788 20.015,3.969 20.417,3.865 20.483,3.855 21.107,3.855 21.053,3.73 20.962,3.586 20.916,3.526 20.861,3.476 20.808,3.431 20.751,3.396 20.736,3.39 20.722,3.382 20.689,3.37 20.628,3.35 20.562,3.34 20.491,3.338 20.346,3.36 19.492,3.581 20.216,6.408 20.613,6.308 20.356,5.299 "
   id="polygon129"
   style="fill-rule:evenodd;fill:#204a9f;fill-opacity:1" />
		<polygon
   clip-rule="evenodd"
   points="21.988,3.051 21.757,6.06 22.199,5.983 22.231,5.365 23.026,5.228 23.269,5.797 23.713,5.721 22.724,3.52 22.332,3.588 22.83,4.764 22.258,4.862 22.332,3.588 22.724,3.52 22.477,2.967 21.988,3.051 "
   id="polygon131"
   style="fill-rule:evenodd;fill:#204a9f;fill-opacity:1" />
		<polygon
   clip-rule="evenodd"
   points="24.163,5.657 24.572,5.586 24.383,4.464 24.818,4.394 24.896,4.386 24.962,4.396 25.017,4.418 25.063,4.457 25.083,4.484 25.1,4.516 25.134,4.592 25.164,4.688 25.188,4.803 25.242,5.107 25.289,5.311 25.316,5.393 25.348,5.461 25.797,5.385 25.782,5.296 25.753,5.276 25.73,5.255 25.711,5.226 25.696,5.188 25.682,5.146 25.672,5.098 25.652,4.984 25.586,4.646 25.532,4.418 25.5,4.324 25.461,4.248 25.419,4.18 25.395,4.152 25.365,4.128 25.338,4.106 25.306,4.086 25.235,4.057 25.296,4.008 25.323,3.976 25.348,3.941 25.385,3.865 25.402,3.826 25.414,3.779 25.434,3.682 25.438,3.63 25.441,3.573 25.436,3.453 25.419,3.328 25.375,3.132 25.368,3.114 24.742,3.114 24.801,3.122 24.857,3.144 24.901,3.181 24.943,3.228 24.96,3.26 24.972,3.291 25,3.367 25.019,3.453 25.031,3.547 25.031,3.63 25.017,3.698 24.995,3.755 24.96,3.804 24.911,3.841 24.881,3.855 24.852,3.868 24.818,3.878 24.781,3.885 24.302,3.964 24.177,3.2 24.673,3.119 24.742,3.114 25.368,3.114 25.318,2.97 25.284,2.901 25.247,2.835 25.206,2.78 25.159,2.731 25.11,2.692 25.056,2.658 24.997,2.634 24.936,2.613 24.869,2.604 24.798,2.599 24.646,2.611 23.687,2.771 24.163,5.657 "
   id="polygon133"
   style="fill-rule:evenodd;fill:#204a9f;fill-opacity:1" />
		<polygon
   clip-rule="evenodd"
   points="26.708,5.232 27.12,5.179 26.806,2.795 27.399,2.717 27.331,2.199 25.729,2.412 25.797,2.928 26.394,2.85 26.708,5.232 "
   id="polygon135"
   style="fill-rule:evenodd;fill:#204a9f;fill-opacity:1" />
		<polygon
   clip-rule="evenodd"
   points="28.305,5.11 28.668,5.07 28.418,2.71 29.056,5.029 29.451,4.987 29.584,2.584 29.834,4.945 30.198,4.906 29.888,1.979 29.312,2.039 29.177,4.31 28.568,2.12 27.996,2.182 28.305,5.11 "
   id="polygon137"
   style="fill-rule:evenodd;fill:#204a9f;fill-opacity:1" />
		<polygon
   clip-rule="evenodd"
   points="7.267,8.45 8.075,10.173 8.136,10.288 8.197,10.396 8.259,10.494 8.327,10.583 8.396,10.661 8.467,10.728 8.541,10.784 8.578,10.809 8.615,10.831 8.69,10.867 8.769,10.895 8.85,10.909 8.892,10.912 8.934,10.914 9.017,10.909 9.101,10.897 9.187,10.87 9.275,10.833 9.355,10.791 9.429,10.74 9.496,10.686 9.552,10.622 9.599,10.559 9.635,10.484 9.653,10.448 9.667,10.406 9.677,10.367 9.687,10.325 9.699,10.236 9.702,10.144 9.694,10.048 9.677,9.944 9.653,9.837 9.621,9.727 9.522,9.488 8.71,7.771 8.34,7.944 9.123,9.604 9.184,9.748 9.226,9.876 9.245,9.989 9.25,10.04 9.248,10.087 9.228,10.176 9.213,10.212 9.191,10.249 9.162,10.281 9.13,10.308 9.091,10.335 9.046,10.359 9.024,10.369 9.002,10.379 8.956,10.389 8.914,10.396 8.87,10.396 8.789,10.382 8.713,10.34 8.637,10.276 8.6,10.232 8.563,10.186 8.492,10.072 8.458,10.006 8.44,9.972 8.423,9.935 7.64,8.275 7.267,8.45 "
   id="polygon139"
   style="fill-rule:evenodd;fill:#204a9f;fill-opacity:1" />
		<polygon
   clip-rule="evenodd"
   points="10.313,9.537 10.863,9.324 11.115,9.874 10.565,10.126 10.313,9.537 "
   id="polygon141"
   style="fill-rule:evenodd;fill:#204a9f;fill-opacity:1" />
		<polygon
   clip-rule="evenodd"
   points="13.398,8.055 13.906,7.844 14.159,8.436 13.567,8.646 13.398,8.055 "
   id="polygon143"
   style="fill-rule:evenodd;fill:#204a9f;fill-opacity:1" />
		<polygon
   clip-rule="evenodd"
   points="0.071,16.878 0.847,16.878 0.918,17.406 0.12,17.406 0.071,16.878 "
   id="polygon145"
   style="fill-rule:evenodd;fill:#204a9f;fill-opacity:1" />
		<polygon
   clip-rule="evenodd"
   points="0.287,18.12 1.065,18.12 1.269,18.626 0.424,18.626 0.287,18.12 "
   id="polygon147"
   style="fill-rule:evenodd;fill:#204a9f;fill-opacity:1" />
		<polygon
   clip-rule="evenodd"
   points="0.699,19.33 1.544,19.33 1.787,19.821 0.918,19.821 0.699,19.33 "
   id="polygon149"
   style="fill-rule:evenodd;fill:#204a9f;fill-opacity:1" />
		<polygon
   clip-rule="evenodd"
   points="1.313,20.54 2.238,20.54 2.628,21.087 1.669,21.087 1.313,20.54 "
   id="polygon151"
   style="fill-rule:evenodd;fill:#204a9f;fill-opacity:1" />
		<polygon
   clip-rule="evenodd"
   points="2.179,21.779 3.203,21.779 3.696,22.312 2.641,22.312 2.179,21.779 "
   id="polygon153"
   style="fill-rule:evenodd;fill:#204a9f;fill-opacity:1" />
		<polygon
   clip-rule="evenodd"
   points="3.328,23.021 4.452,23.021 5.048,23.515 3.846,23.515 3.328,23.021 "
   id="polygon155"
   style="fill-rule:evenodd;fill:#204a9f;fill-opacity:1" />
		<polygon
   clip-rule="evenodd"
   points="4.697,24.224 5.961,24.224 6.729,24.757 5.37,24.754 4.697,24.224 "
   id="polygon157"
   style="fill-rule:evenodd;fill:#204a9f;fill-opacity:1" />
		<polygon
   clip-rule="evenodd"
   points="71.233,16.881 72.045,16.881 71.994,17.416 71.201,17.416 71.233,16.881 "
   id="polygon159"
   style="fill-rule:evenodd;fill:#204a9f;fill-opacity:1" />
		<polygon
   clip-rule="evenodd"
   points="71.035,18.122 71.82,18.122 71.682,18.631 70.865,18.631 71.035,18.122 "
   id="polygon161"
   style="fill-rule:evenodd;fill:#204a9f;fill-opacity:1" />
		<polygon
   clip-rule="evenodd"
   points="70.578,19.332 71.413,19.332 71.184,19.828 70.323,19.828 70.578,19.332 "
   id="polygon163"
   style="fill-rule:evenodd;fill:#204a9f;fill-opacity:1" />
		<polygon
   clip-rule="evenodd"
   points="69.852,20.535 70.792,20.535 70.495,21.07 69.493,21.058 69.852,20.535 "
   id="polygon165"
   style="fill-rule:evenodd;fill:#204a9f;fill-opacity:1" />
		<polygon
   clip-rule="evenodd"
   points="68.892,21.774 69.908,21.774 69.476,22.31 68.408,22.31 68.892,21.774 "
   id="polygon167"
   style="fill-rule:evenodd;fill:#204a9f;fill-opacity:1" />
		<polygon
   clip-rule="evenodd"
   points="67.633,23.026 68.786,23.026 68.271,23.52 67.066,23.52 67.633,23.026 "
   id="polygon169"
   style="fill-rule:evenodd;fill:#204a9f;fill-opacity:1" />
		<polygon
   clip-rule="evenodd"
   points="66.101,24.229 67.412,24.229 66.737,24.767 65.333,24.764 66.101,24.229 "
   id="polygon171"
   style="fill-rule:evenodd;fill:#204a9f;fill-opacity:1" />
		<polygon
   clip-rule="evenodd"
   points="7.979,25.537 7.841,25.458 6.416,25.458 6.715,25.667 7.054,25.891 7.581,26.199 7.979,25.537 "
   id="polygon173"
   style="fill-rule:evenodd;fill:#204a9f;fill-opacity:1" />
		<polygon
   clip-rule="evenodd"
   points="64.147,25.547 64.297,25.463 65.684,25.463 65.34,25.73 64.984,25.967 64.589,26.219 64.147,25.547 "
   id="polygon175"
   style="fill-rule:evenodd;fill:#204a9f;fill-opacity:1" />
		<polygon
   clip-rule="evenodd"
   points="57.521,16.088 53.358,13.603 57.753,11.178 65.116,16.088 57.521,16.088 "
   id="polygon177"
   style="fill-rule:evenodd;fill:#204a9f;fill-opacity:1" />
		<path
   d="M 24.527,9.428 L 23.144,10.415 L 23.144,9.644 L 22.464,9.655 L 24.479,8.278 L 26.602,9.578 L 25.432,10.388 L 24.527,9.428 z M 24.466,8.014 L 22.04,9.685 L 18.757,12.074 L 15.267,11.352 L 7.369,16.086 L 23.192,16.086 L 29.878,11.293 L 24.466,8.014 z "
   id="path179"
   style="fill:#204a9f;fill-opacity:1" />
		<path
   d="M 35.557,8.385 L 38.508,10.254 L 37.233,10.191 L 36.171,11.254 L 35.268,10.191 L 34.193,10.978 L 34.179,9.755 L 33.529,9.756 L 35.557,8.385 z M 56.33,16.091 L 45.644,9.66 L 41.628,12.012 L 35.545,8.121 L 33.297,9.66 L 33.297,9.66 L 33.282,9.671 L 33.108,9.79 L 33.112,9.791 L 24.2,16.091 L 56.33,16.091 L 56.33,16.091 z "
   id="path181"
   style="fill:#204a9f;fill-opacity:1" />
	</g>
</g>
</svg>