<svg xmlns="http://www.w3.org/2000/svg" version="1.2" id="root" viewBox="64.07852088438251 441.03318502466226 214.5471378320039 114.79698790128174"><g id="counties"><path id="county-02016" class="county feature" d="M82.917 547.043l.938.85-.002.343.604 1.26-.673-.747-.237-.752-.94-1.068zm9.86 2.716l-.074.587-.303-.35zm9.67 3.39l-.294.74-.43-.124.15-.725zm.413.01l.509.446-.354.237-.43-.292zm.8.078l-.032.442-.496-.447zm-7.982-2.936l.478.191.011.43.952.628-.716-.054-.354.594-.68.05-.25-.577.738-.125-.793-.942zm2.89 2.529l-.322.104-.328-.506-1.218-.31 1.683.151.436-.114.254-.629.525.377-.455.278-.181.593zm-15.573-8.2l.304.432-.445.13zm18.612 7.264l-.538.98.765.251-.385.602-.935-.074-.472.245-.005-.637-.669.667-.064-.462.666-.367-.054-.457.746.398-.1-.992zm-14.171-5.63l.316.5-.69.418-.42-.34.07-.577zm16.104 5.553l.399.449-.337.31-.501-.132zm-23.354-9.478l.008.45-.626.326-.191.43-.755-.312-.369.414-.224-.591.865-.202.41.141zm33.46 12.484l-.187.179.705.43.736.06.804.338-1.991-.282-.872-.436-.612.037-.592-.592.555-.103.261.346zm4.632-.232l.388.495-.525.209-.795-.064.292-.567zm-6.525-2.161l.416.815-.464.483-.581.024.296.476-1.254-.088-1.49.117-.5-.407-1.367-.198 1.625-.13.93.25 1.19-.13.572-.408-.393-.416.511-.439zM67.36 533.283l-.547.857-.267-.432-.893-.538 1.167-.092zm58.25 21.192l.346.252-.274.416-.813.204.043-.634zm3.769-.355l.232.535-.3.22-.861-.748zm-63.713-25.355l.927.561.148 1.03.541.383-1.075-.125-.268-.453-.81.203-.442-.589.486-.4-.7-.248.289-.297-.684-.35.946-.095zm66.235 26.34l1.614-1.291-.017-.533.894-.583 1.03.204-.312-.366.249-.592.836-.54.886-.04.76.508-.387.768-1.835.563-.974 1.029zm12.782-4.077l-.691.751-.177-.538zm-1.915-1.489l.071 1.187.853-.813.517.14-.021.645-.453.054-.884.795.878-.298.144.596-.978.125-.315.489-.342-.276-.062.657-.532-.198-2.776.723-.741.34-.807-.614 1.622-.541 1.587-.11-.187-.666.663.012-.104-.554 1.31.092-1.155-.414-.326-.792.594-.49zm-7.604-19.057l.924.317-.459.321zm-.335-4.278l-.712.544-.383-.508z" vector-effect="non-scaling-stroke" fill="inherit" stroke="inherit" stroke-width="inherit"><title>Aleutians West Census Area</title></path><path id="county-02013" class="county feature" d="M149.183 549.87l.105.414-.747-.115-.139-.288zm-3.42-1.149l.884.751-.894.474-.64-.17.01-.847zm1.782-.172l-.317.473.478.105-.634.552-.32-.831.316-.377zm10.311.298l.862.64-.875-.102zm2.27-2.968l.14.687-.352.319-.325-.656zm-5.4-1.188l.845.118.274.596.248 1.485.52-.082.218.554-.654-.11-.12-.347-.426.55-.648.183-.796-.274-1.13-.043-.949.416-.151.42-1.158.303-.74-.295-.25-.805.174-.45.84-.235.766-1.293.533-.293.676.289 1.438-.666zm7.348.154l.616.536-.414.295-.529-.774zm8.584.542l-.005.597-.622.516zm-1.25-.32l-.17 1.066-.989.635.125-1.142.5.313.192-.852zm-1.775-.842l-.047.776-.649-.553zm-1.325-.394l.057.666.368-.04.374.853-.284.358-1.18-.617.143-.858zm1.712-.213l.26.426-.63-.184zm5.713-8.837l-.004.058-.033.446-.506.28-.042.553-.88-.084-.047.593-1.138-.094-.049.564-1.101-.079-.113 1.104.34.036-.178 2.212-.283.593 1.106.096-.136 1.633-.185-1.28-.595-.222-.338.44-.28-.217-.227.611-1.301.568-.751.83-.199-.712-.286.764-.429.013-.466-.52-.338.512-1.241.406-.695-.109.219-.737.495-.698-.816-.27-.478.515-.046.82-.848 1.115-.55-.17.223.781-.465.281-.37-.577-.371.836-.795-.304.001-1.325-.468-.398-.301.302.335.565-.003 1.448-.352-.659-.192.56-.782-.068-.19-.872-.694-.437-.154.662.642.61-1.345.73.476-1.404-.032-.531.436-.285 1.256.059.401-.798.558-.373.52.105-.085-.65 1.299-1.328 1.777-1.07 1.616-.239 1 .064.856-.16-.633.61.762 1.21.394.24-.231-1.27.859.186.155.521.79.258.148-.455-.986-.774-.15-.433.94-1.718 2.061-1.549 1.87-.673z" vector-effect="non-scaling-stroke" fill="inherit" stroke="inherit" stroke-width="inherit"><title>Aleutians East Borough</title></path><path id="county-02130" class="county feature" d="M271.852 531.383l.81.392.087 1.305-.824-.994zm.88-4.006l.858.553.92 1.129.336 1.356.027 1.007-.37.601-1.14-.313.278-1.257-.476 1.314-1.375-.542.354-1.207-.42-.12-.216-.55.502-.641-.406-.567z" vector-effect="non-scaling-stroke" fill="inherit" stroke="inherit" stroke-width="inherit"><title>Ketchikan Gateway Borough</title></path><path id="county-02060" class="county feature" d="M180.07 523.81l.741-.724.298-1.058 2.249.048-.065 1.87z" vector-effect="non-scaling-stroke" fill="inherit" stroke="inherit" stroke-width="inherit"><title>Bristol Bay Borough</title></path><path id="county-02070" class="county feature" d="M168.604 521.687l-.784 1.407-.668.121.167-.977zm-1.248-.265l-.955.467-.038-.583zm6.666.5l.578.541.373 1.334.195.542-.716.568-.509-.353-.977-2.21-.812-.594.138-.61-.377.116-.292.694-.392.147-.278-.709-.788-.157-.021-.85-.322-.25-1.673 1.072-.658.117.112-1.068.537.055.239-.51.112-1.154.566.053.056-.568.565.032.236-.525.112-1.146.57.056.115-1.131.747.054.116-1.123.522.015.112-1.075.26-.536.552.039.096-1.132.567.05.259-.53.1-1.133.58.045.05-.565.532.035.31-1.106 3.352.222-.021.517.58.041.022-.575.565.03.029-.584 1.113.059-.023.576 3.817.178-.23 8.07-.539-.004-.02.57-1.125-.046-.023.566-.558-.028-.361 1.136-1.14-.068-.03.571-.566-.038-.047 1.161.27.02-.056 1.361-1.358.626-2.046.798-.577-.282-.09-.502-.686-.539.329-1.266-.454.531-.547.157-.156.979z" vector-effect="non-scaling-stroke" fill="inherit" stroke="inherit" stroke-width="inherit"><title>Dillingham Census Area</title></path><path id="county-02164" class="county feature" d="M179.516 537.103l.873.233-1.203.02zm-5.787-2.264l.004-.058-.004.058zm19.212-25.845l.135.558.023 2.3-.428.009.007 2.293-.407.01.016 2.207-.42.001v.58l-.565.005.006 1.155-.562.002.01.58-.972.013.008 1.142h-1.125l-.005 1.155.177.009-.024 2.239.182.577 1.122.008.002 1.223-.556.646-.908.364-.954.077-.174.356-.946.265-.035 2.078-.41.314-.864.17-.28.843-.455-.011.26.457-.465.273-.415-.2-.226.483-.833-.111-.913 1.195-.521 1.112 1.402.068-.72 1.11-.62-.373-.399.914-.193-.449-1.18 1.26-.624-.68-.15.606-.562.486.357.45-.617.062-.35-.445-1.106.441-.333.436 1.085-.118-.155.524-.978-.371.036.376-.749-.164-1.398 1.334.979-.431.828.425-1.289 1.913-.409-.901-.053.838-.73-.251-.307.563-1.557.201-.32.555-.102-.71-.28.035.06.82-.323.797.136-1.633-1.106-.096.283-.593.178-2.212-.34-.036.113-1.104 1.101.08.05-.565 1.137.094.047-.593.88.084.042-.553.506-.28.96.355-.156-1.428.306-.555 1.174-1.402.842-.485.565-.665.77-.542.527.685-.096-1.032-.315.055-.001-.726.49-2.344.271-.51.42-.04-.457-1.057.309-.976.766-.808 3.222.137.065-1.871-2.25-.048-.126-.447-.459.606.055-1.36-.27-.02.048-1.162.565.038.03-.57 1.14.067.362-1.136.558.028.023-.566 1.125.047.02-.57.539.002.23-8.069 4.873.092z" vector-effect="non-scaling-stroke" fill="inherit" stroke="inherit" stroke-width="inherit"><title>Lake and Peninsula Borough</title></path><path id="county-02150" class="county feature" d="M185.403 542.672l-.658-.278.72-.452zm6.189-5.195l-.263.383-.655.006zm-2.17-.24l-.326.706-.68.589.261-.808zm1.462.129l-.565.6-.467-.339.483-.458zm3.063-4.075l.828.086.234.395-.949.225-.462.679-.276-.75zm-.899-4.979l.585.386.28.69-.893-.532zm.66-.217l.941.555.173-.285.505.307-.386.563.619-.003.32-.666 1.09.61-.79.688.32.002.006.783 1.097-.148-.625 1.303-.615-.06-.803-.46-.25.228.657.416-.257.854-.388.071-.678-.47-.316.196.546.323-.462.325-.675-.071-.8 1.04-.572-.119.414.588-1.264 1.483-.888.153.27-.626.776-.798-.411.044.184-.694-.553.586-.236-.154.569-.802-.879-.28-.852.234.15.5.44-.396.73-.073-.669 1.375-.854-.535-.036-1.31-.75-.654.115-.853.33-.584.955-.85 1.219-.032.081.655.792 1.57-.187-.726.097-.984-.259-.547.886.084-1.162-.627.007-.518.732-.55.525.407.093.86.21-.874.98.31-.119-.698.66.496-.782-.918zm.206-.7l.37.082.487.697-.964-.437-.649-.053.533-.568zm3.004-2.14l.263.519.49-.226-.167.694.62-.432-.057.765-.311.395-.858-.58.226.725-.586-.014-.403.369-.066-.874-.188.928-.518.09.006.465-1.326-.736-.15-.643.729.082-.38-.399.186-.336.885.154-.102-.802.498-.51.608.103.44.878zm-1.186-.954l1.044-.442-.435 1.079-.51-.155zm-2.059-1.846l-.309.061-.33.906-.783.646-.748.034-.211.78-.42.015.128.847-.474.228.264.299-.746.78-.062.488-.435-.63.063.556-.403-.1-.596.617-.982-.097-.15.794-1.033.69-.17.362-.742-.327.066.828-.5.191-.005.53-.968-.162-.069.854-.645-.25-1.171.917-.042.37.733-.26-.273.66.168.357-1.402-.068.521-1.112.913-1.195.833.11.226-.482.415.2.464-.273-.259-.457.455.011.28-.843.864-.17.41-.314.035-2.078.946-.265.174-.356.954-.077.908-.364.556-.646-.002-1.223 1.663-.001-.006-.57 1.232-.011-.015-.793h.488z" vector-effect="non-scaling-stroke" fill="inherit" stroke="inherit" stroke-width="inherit"><title>Kodiak Island Borough</title></path><path id="county-02110" class="county feature" d="M260.901 517.814l-.072.217.072-.217zm-2.612-.873l-.438.332.438-.332zm-.457.346l-.586.401-.336.578-.43-.342-.105-.602.04-.263.151.392.931-.323zm-1.069-1.148l1.144.59-1.274.106-.29-.267zm-.531-4.098l.445.583 1.603.407.66.598 1.431.795-.187.355 1.415 1.162-.661 1.763-.218.661-.238.354-.706-.808-.998-.701-.393-1.123.282-.35-.301-.47-.29 1.432-1.28-.65-.728.094-.547-.876-.694-.727-.582-1.94zm-2.723.757l.705-.194.23.387-.01 1.175-.577-.554z" vector-effect="non-scaling-stroke" fill="inherit" stroke="inherit" stroke-width="inherit"><title>Juneau City and Borough</title></path><path id="county-02280" class="county feature" d="M262.293 531.116l.529-.183-.424.611zm-1.867-1.187l-.16-.542.16.542zm7.459-3.545l.365.643 1.193.454-.345.35.552.592-.675.528-.513-.288.181-.327-.752-.236-.272.346-.543-.96.356-.27.009-.64zm-1.267-.361l.434.276.098.77-.64.504-.874-.41.026-.677zm2.352 1.066l-.812-.407-.157-.765-.366-.505.55.102.604.552.377-.203.678.792-.36.703zm-3.771-3.057l1.724.975-.76.87-.473.057-.184-.813-.52-.977zm-3.13 1.423l-.197-.345.606.016-.044 1.838.161 1.703.217-.213.195 1.266-.309-.13-.517-1.184.431 2.003-.477-.317-.543-1.172-.121-1.037.646-.217-.456-.633-.763.109.024-.362-.635-.622-.284-.807.493.129v-.804l.796.14zm-.753-2.166l1.724.044 1.105-.314.577.352.7 1.586-.12.459-.82-.445-.796-.92.732 1.405.507-.023.224.479-.212.693-.922-.084.112.295-.727.345-.728-1.44-.014-.814-.382.077-.34-.514-1.03-.581zm4.59-3.222l.694.717-.154.88 1.185-.082.099 1.154.991.127.57 1.236.835-.382 2.197.67.533.651-.14.639-.56.178-.495.64.538.677-.457.14-.825-.238-.5.662.135.6-.38.573.462.241.133.667-.353.5-.637-.445.42-.654-.241-.919.246-.1-.461-1.302.635-.453-.633.024-.478-.65-.703-.026-.232-.396-.69-.282.016-.977-.605.228-.292-.41-1.14-.26-.885-.798.498.06-.374-.79-.051.494-1.496-.082-.9-.185.61-.608.683.133.18-1.055.942-.97z" vector-effect="non-scaling-stroke" fill="inherit" stroke="inherit" stroke-width="inherit"><title>Wrangell-Petersburg Census Area</title></path><path id="county-02232" class="county feature" d="M260.482 518.72l.238-.355-.238.354zm-7.729 2.051l-1.088.327-.135.04-.08.023-.08-1.123zm-2.02-1.222l.667.401-.104 1.148-.448-.324zm15.173.518l-1.08-.173-.943.97-.179 1.055-.682-.133-.612.608-.21-.609 1.218-.63-1.01.095-.647-.803-.01-.573-.761-.156.099-.706 1.672.488-1.136-.637-.589-.079-.207-.753.072-.217.037-.11.66-1.763.644.843.99.784 1.75 1.789zm-9.427-2.143l.43.342.337-.578.586-.4.02-.015.437-.332-.103.281 1.687 1.645.265.75-.264.048-1.695-2.08.288.613-.358-.079 1.218 1.466.837.555.285.702-.649.121 1.016.531-.22.612-.815-.362.418 1.13-.417.391-.088.56-.534.63-.446-.64-.192-.867.358-.417-.165-.526-1.428-1.762-.124-.722-.762-1.31zm-2.971 1.2l-.224.467.443-.005.48-1.002.34-.256 1.348.1.314.393-.123.627-.855-.183 1.176.671-.877.438-.675-.3-1.966-.467-.13 1.131-1.732-1.127-.008-.815.483.147.233-.452.546-.08.362-.653 1.283.407zm.272-1.973l.012.042-.012-.042zm2.636-.092l-.041.263.054.597-.58-.48-.587-1.302zm-4.244-.59l-.766-1.264-.571-.57.926-.724-.97.072-.732-.868.635 1.236-.033.752-1.18-.255-.345-.805-.189.6-.924-.245-.353.507.929-.077.912.273-.359.276 1.052.293-.389.751.556-.46.447.065.94 1.311-.646.615-.099-.305-.63.583-.452-.268.289.878-1.093-.68-.805.094-2.098-.946-1.422-1.005 1.201-1.003 1.846-2.196.78-.248.145-.677 2.072.023.732.262.589.638-.122 1.696.759.084.625.382.48.65-.571.17.279.76-.571-.189-.887.57zm1.117-6.152l-1.021.335-.125-.045-1.743-2.069.64-.655.961.42.891.644.023.924z" vector-effect="non-scaling-stroke" fill="inherit" stroke="inherit" stroke-width="inherit"><title>Skagway-Hoonah-Angoon Census Area</title></path><path id="county-02100" class="county feature" d="M253.792 517.193l-.012-.042.012.042zm2.44-5.152l-1.987.559-.031.004-.705.194-1.241-2.146 1.02-.335.347.345.887-.044.174.336.742.192zm-4.09-1.434l.061.831-.442.016.85.732.183.858 1.481 1.97.019.367.747 1.236.092.744-.6.195-.543-.458-.652-1.015.572-.169-.48-.65-.626-.382-.759-.084.122-1.696-.589-.638-.732-.262-2.072-.023-.314-1.315.552-.141.045-.658-.433-.156 1.165-.746.61-.625z" vector-effect="non-scaling-stroke" fill="inherit" stroke="inherit" stroke-width="inherit"><title>Haines Borough</title></path><path id="county-02220" class="county feature" d="M254.52 523.634l.687.616.4.783-.061.551-.707.339-.595-2.177zm3.514 3.14l-.524.207-.048-.513-.655.1-.304-.773.385-.726-.708-.244-.153-.982-.548.225-.754-.567.707-.223-.478-.172-.014-.724.705-.409.025.431.45-.224.838.37.594-.179.14.837 1.256 2.154.769 1.571.548 2.454.161.542-.629-.312-1.402-1.555.181-.657-.516.286zm-6.584-5.613l.08-.024-.08.024zm.43.158l-.215-.221 1.088-.327.007-.033.13-1.131 2.094.763.653.483.32-.466.6-.183.824 1.646-.797.359-.423-.264-2.609-.954 1.18.873.288.864-.38.703-.485-.023-.793-.725.803.357-1.511-.94.029-.296z" vector-effect="non-scaling-stroke" fill="inherit" stroke="inherit" stroke-width="inherit"><title>Sitka City and Borough</title></path><path id="county-02270" class="county feature" d="M159.207 494.068l.785.318-1.069.817.065-1.208zm1.197-1.392l.808.919-.021.678.352.827-.133.6-.619-.957-1.79-.834.2-.618.597-.723zm1.384-1.323l.89.48.503.665-.833.527-.475.742-.594-.09-.617-.95-.605-.386.087-.449.775-.504zm4.273.521l.593.076-.06.563.553.07-.054.587.55.071-.068.54 3.35.377-.496.704-.262 2.254-.134-.005-.247 2.254.414.045-.184 1.663 1.155.13.149.529.654.139-1.676.62-1.177.794-1.017.09-1.407.406-1.34-.4-.514-.317-2.142.424-.697-.329-.902.85-1.008-.388-.093.839-.549.688-.207.66-1.254.348-.79-.406-1.116.228-.125-.418.79-.164-1.068-1.325-.143.753-.568-.164-.104-.937.18-.272-.643-.319-.095-.777.533-.33-.442-.578-.673.302.065-.935 1.224-.062-.538-.312-.328-.749 1.537.07-.29-1.134.427-.837 1.507-1.628.784-.617.6.142 1.215-1.222.822.449.812 1.56.017-1.63-.386-.696.074-.415.928-.088.171-.589.852-.51.48.566.84-.048.766-.845z" vector-effect="non-scaling-stroke" fill="inherit" stroke="inherit" stroke-width="inherit"><title>Wade Hampton Census Area</title></path><path id="county-02050" class="county feature" d="M164.332 511.867l.244.487-.34.193zm-12.022-3.286l.08.714.684-.005.582.444-.416 1.505.369.925-1.533.141-.698.634-.66-.841-.578-.064-1.033-1.16-.377-.043-.625-.691-.083-.807.371-.233 1.42.508.15-.431 1.288-.51 1.015.258zm-20.859-6.153l-.033.632.677.988.668.258.367.604-1.14-.349-.805-1.364-.318-.231zm25.326 3.62l.088.409.753-.087-.195.497.73.103.547.374.058.682-.647.553-.513.11.17.493-.46.13-.523.932-.473-.126-.744-.986.612-.605-.738.153-.664-.472 1.588-.794-.144-.51.484-.129zm9.19 13.325l-.859-.156-.285.288-.333-1.07.354-.985.902-.677-.415-.93-.193-1.118-.34-.563-.32-1.363.207-.378-.747-1.2.508-.384.492-1.285-.123-.22-.645 1.407-.54.286.242.932-.217 1.051-.517.318-2.007.6-1.812.042-1.132-.452-.188-.773.333-.101-.771-.818-.627-1.202-.034-.425.526-.486-.052-.469.473-.06-.126-.54.414.048.401-.499.481-.047.354-.57.784.159-.184 1.13.494-.012.815-.772-.357-.608-1.14-.468.717.054.499-.284-.66-.192-.61.388.042-1.237-.61.56.15.49-1.429-.021-.156-.568-.64.12-.141-.354-.86.02 1.116-.229.79.406 1.254-.347.207-.661.55-.688.092-.839 1.008.389.902-.851.697.329 2.142-.424.514.317 1.34.4 1.407-.406 1.017-.09 1.177-.793 1.676-.621-.654-.14-.149-.527 3.873.356.057-.565 2.224.167.035-.57 4.459.185-.029.647 6.459.206 3.715.017-.017-.604 1.05-.028v-.553l.983-.008.2-.572.085 5.704h-1.457l-.002 1.911.142.006-.007 1.491-3.12.014-4.873-.092-3.817-.178.023-.576-1.113-.059-.029.585-.565-.03-.023.574-.58-.04.022-.518-3.353-.222-.309 1.106-.532-.035-.05.565-.58-.045-.1 1.132-.259.532-.567-.051-.096 1.132-.552-.039-.26.536-.112 1.075-.522-.015-.116 1.123-.747-.054-.114 1.13-.571-.055-.112 1.146-.236.525-.565-.032-.056.568-.566-.053-.112 1.153-.24.511-.536-.055-.112 1.068-.135.102-.993-.116.038.583-.224.496-1.36.52-.063-.467-1.232-.307 1.089-.295.812-.49-.364-.1.004-1.127z" vector-effect="non-scaling-stroke" fill="inherit" stroke="inherit" stroke-width="inherit"><title>Bethel Census Area</title></path><path id="county-02170" class="county feature" d="M213.223 492.896l.168 1.394.226.61.467 4.012-1.677.175.123.57.527 4.468-.808.08.034.325-3.89.351-2.258.188-.183-.338-.463-.18-.81.217-.702.759-.26.935-1.503.04-.406-.742.008.535-1.16.633-.021-.405-1.127.04-.05-1.114-5.193.137-.084-5.704-.043-2.832 3.311-.049-.003-.474 6.85-3.863 4.291-.33-.071-.907 3.058-.366 1.406-.175z" vector-effect="non-scaling-stroke" fill="inherit" stroke="inherit" stroke-width="inherit"><title>Matanuska-Susitna Borough</title></path><path id="county-02068" class="county feature" d="M207.969 485.74l.816.478 2.173-.222.32 2.202.296 2.863-3.058.366.071.908-4.291.33-6.85 3.862.003.474-3.311.049 1.625-2.931-.021-.892-.563.041-.548-.315-.173-.853.018-1.113 1.77-.071-.006-1.094.513-.013-.012-1.158.634-.052.083-.507.602-.041.168.34.645.122 1.461-2.392 4.603-.14z" vector-effect="non-scaling-stroke" fill="inherit" stroke="inherit" stroke-width="inherit"><title>Denali Borough</title></path><path id="county-02020" class="county feature" d="M205.952 504.73l.183.339 2.258-.188.271 3.772-.859.1.06.733-.943.067-.043-.7-.543-.641-.515.145-1.239-.506-1.07-.807.727-1.12 1.197-1.05z" vector-effect="non-scaling-stroke" fill="inherit" stroke="inherit" stroke-width="inherit"><title>Anchorage Municipality</title></path><path id="county-02261" class="county feature" d="M222.822 512.748l-.95 1.363.023-.358zm-11.682.85l-.152.641-.48.189zm-.668.224l.188-.795.302.312zm-.063-.994l-.329 1.132-.42-.376zm2.824-1.263l.415-.039-.224.563.556-.284-.831 1.04-.808 1.472.227.417-.738.564-.804.164.103-.533 1.31-1.65.689-1.116zm-2.806.011l-.024.66-.398-.253zm4.62-1.144l.6.061-.012.454.742-.264.171.232-1.033.607-.556.583-.286-.261.624-.626-.733.216-.062-.31zm-4.256 1.936l.162-1.216.7.038-.31 1.798zm-2.261 2.415l.264-.136-.182-3.172-.346-.205.622-.625.625.308.542-.714.369.444.095.671-1.057 1.109.731.3-.764.85-.172.962zm8.793-5.317l.013.192-1.221.882-.305-.392zm-5.29-.073l.455.158-.555.329zm-3.857.406l-.005-.05.005.05zm1.42-.634l.38.618-.497-.168zm-1.323 1.84l-.09-1.104.733-.805.047 1.057.368-.916.36.913-.4.559-.503-.246zm1.728-2.965l.433.71-.699.164zm.967.555l-.333.08-.732-.668.285-.943.5-.784.077-.624-.749 1.317-.17.563-.346-.406-.333 1.59-1.014.787-.287-.02-.06-.735.858-.1-.27-3.77 3.889-.352-.034-.325.808-.08-.527-4.467-.123-.57 1.677-.176-.467-4.012-.226-.61-.168-1.394 1.014-.2.04-.235 2.804-.362.078.576 1.683-.13 4.226-.637.497.728-.307 1.112.533.364-.12 1.034.792-.025.2-.73 1.26-.1.082.553.574-.08.085.54.497-.082.365 2.237.488.16.274 1.46 2.492-.484 1.926 9.719-.724-.153-1.81.356-.101-.559-4.355.776-1.813 3.454.061.295-1.32-.768.012-.278-1.152.18-.4-.531-.805-.04.272-1.155-.108-.92-.62.642-.137.517-.662.807-.59-.458-.865-.27-.64.206.91-1.463-1.235.425.223-.628-.987.671.518-.807-1.11.446-.774.065-.137-.269 1.113-.465.458-.45-1.158.384-.656-.577.232-1.165 1.182-.155-.236-.293-.824.195-1.125 1.324-.459-.457-.163.537-.624.458-.44-.1-.112-1.22-.269.501.14 1.03z" vector-effect="non-scaling-stroke" fill="inherit" stroke="inherit" stroke-width="inherit"><title>Valdez-Cordova Census Area</title></path><path id="county-02122" class="county feature" d="M193.481 522.463l.192-.008-.192.008zm-.413-3.67l.283.389-.688.15zm9.281-.174l-.295.747.066-.845zm-4.406-6.647l-.377.448.231-.936zm10.233-2.173l-.005-.05.005.05zm-1.297-.945l.043.699.944-.067.287.021.03.394.09 1.104-.007.265.346.205.182 3.172-.264.136-1.476-.172.243-.539-.428.09-.4.75-.33-1.285.026.845-.523.624-.161.622-.276-.907-.11 1.888-1.07-1.12-.012.547.509.252-.412.414-.047.557-.735.345.17-1.365-.695 1.877-.456-.496.062.733-.46.03-.835 1.455-.121-.74-.381.804-.801-.297-.196.31-.943.348-.036-.369-.752-.228.216-.973.633-.445.853-.04v-.464l.858-.374-.089-.293.854-1.07-.437.01-1.401 1.104-.46-.07-.77-.776.483-1.737.87-1.224.093-.961.259-.178.075-1.07-.518-1.118 1.085-.487 1.084-1.039.924-.694.622.663.516.094.88-.425.41.26 1.71.195zm-13.398 13.609h-.488l.015.792-1.232.01.006.571-1.663.001-1.122-.008-.182-.577.024-2.239-.177-.009.005-1.155h1.125l-.008-1.142.971-.014-.01-.579.563-.002-.006-1.155.565-.005v-.58h.42l-.016-2.209.407-.009-.007-2.293.428-.008-.023-2.3-.135-.559.007-1.49-.142-.007.002-1.91 1.457-.001 5.194-.137.049 1.115 1.127-.041.022.405-.557.961-.994.29-.975 1.067.334.785h-.46l-.614.492-.163.464-.653.584-.232 1.347-.539.533-1.202-.122.831.496.372.617-.427 1.035-.33.246-1.347.117-.182.35.936-.012-.182.786-.53.383-.667-.097.266-.466-.402-.493.044.699-.464.91-.793.074.331.692-1.254.6-.074.974-.314.171.195 1.008.332-.369 1.233-.015.499.59.732.404z" vector-effect="non-scaling-stroke" fill="inherit" stroke="inherit" stroke-width="inherit"><title>Kenai Peninsula Borough</title></path><path id="county-02282" class="county feature" d="M239.142 513.546l-.618-.069-1.054-.476.466-.425.14.14.425-1.033-.755-1.134.257-.64.8.735.175-.104-.753-.782-.473-.198-.056.688-.364.888-1.517 1.191-1.834.111-2.058-.576.468-.84-.635-1.008-.373.378.609.463-.633.577-3.316-.223-3.063.763-1.016.511-.06-.295 1.812-3.454 4.355-.776.1.559 1.81-.356.725.153.108.549 1.638.249.08-.608 1.68.492.695-1.18 1.92-.545-.007 1.779.596.493 1.231.311.465.819 4.087 2.547.764 1.556.04.524-1.2 1.003-.24-.602-1.026-.67-1.073-.212.072-.55-.613.373z" vector-effect="non-scaling-stroke" fill="inherit" stroke="inherit" stroke-width="inherit"><title>Yakutat City and Borough</title></path><path id="county-02290" class="county feature" d="M222.407 456.358l3.355 16.925-.714 1.017-.017.576-1.044 1.395-.896.014-.65.718-.457-.065-.136 1.224-.23.555-.612.258-.995 1.212.266 1.306-.57.797-.85-.102-.314-.717.178-1.208-.348-.202.459-.37-.214-.351-.932.194-.285.361-1.285-.312-.812.533-.578-.002-.583.412-.335-.383.33-.343-1.34-.501-.213-.4.313-.674-.535-.243-.581.286-.392.54-.982.574-1.049.112-.549.463-3.04.268.37 3.974.265-.134.928.794.636.88-3.032.241-4.603.14-1.46 2.393-.646-.122-.168-.34-.602.04-.083.508-.634.052.012 1.158-.513.013.005 1.094-1.769.071-.018 1.113.173.853.548.315.563-.041.02.892-1.624 2.93.043 2.833-.201.572-.984.008.001.553-1.05.028.017.604-3.715-.017-6.459-.206.029-.647-4.46-.184-.034.569-2.224-.167-.057.565-3.873-.356-1.155-.131.184-1.663-.414-.045.247-2.254.134.005.262-2.254.496-.704.184-1.671.516.042.113-1.739.57.053.054-.498 1.141.104.036-.574.503.037.049-.59.664.068.056-1.703-.642-.048.349-4.55.568.038.088-1.126.554.043.18-2.208.528.05.134-1.702-.559-.043.234-2.833 1.672.139.084-1.08 2.834.177.14-2.287 2.197.102-.051 1.151 1.118.029.05-1.132 1.12.036-.02.552.567-.004-.016.57 1.103.037.166-1.69 1.69.04.02-.97 1.714.015.157-.574-.004-2.323-.401.006-.006-.588-1.124-.03.02-1.678.16-.58-.562-.004.023-.56-.57.001.017-.573-.554-.014.163-1.465 5.687.014 7.36-.267 6.445-.522 3.421-.38-.39-3.141 4.001-.644 4.125-.554z" vector-effect="non-scaling-stroke" fill="inherit" stroke="inherit" stroke-width="inherit"><title>Yukon-Koyukuk Census Area</title></path><path id="county-02090" class="county feature" d="M218.857 482.188l-1.055.816-1.422.272-.21.418-.781.276-.419.511-.613-.204-.674.589-.437.036-.487.802-1.801.292-2.173.222-.816-.478-.636-.881-.928-.794-.265.134-.37-3.974 3.04-.268.549-.463 1.049-.112.982-.574.392-.54.58-.286.536.243-.313.674.212.4 1.341.5-.33.344.335.383.583-.412.578.002.812-.533 1.285.312.285-.36.932-.195.214.35-.459.37.348.203-.178 1.208z" vector-effect="non-scaling-stroke" fill="inherit" stroke="inherit" stroke-width="inherit"><title>Fairbanks North Star Borough</title></path><path id="county-02240" class="county feature" d="M230.78 498.595l-2.492.484-.274-1.46-.488-.16-.365-2.237-.497.082-.085-.54-.574.08-.081-.554-1.262.1-.199.731-.792.025.12-1.034-.533-.364.307-1.112-.497-.728-4.226.638-1.683.129-.078-.576-2.804.362-.04.234-1.014.201-.243-2.01-1.406.175-.295-2.863-.321-2.202 1.8-.292.488-.802.437-.036.674-.589.613.204.419-.51.782-.277.21-.418 1.421-.272 1.055-.816.85.102.57-.797-.266-1.306.995-1.212.612-.258.23-.555.136-1.224.458.065.649-.718.896-.014 1.044-1.395.017-.576.714-1.017z" vector-effect="non-scaling-stroke" fill="inherit" stroke="inherit" stroke-width="inherit"><title>Southeast Fairbanks Census Area</title></path><path id="county-02185" class="county feature" d="M198.818 446.338l-.122.509-.339-.456zm-25.842 1.3l.485.106.58-.533.667.066 1.388-.688 1.287-1.082.715-.117-.354 1.25.283.933.056-1.193.33-.306-.318-.87-.427-.053 1.095-1.033 1.109-.326-.439.312.303.318 2.628-.301 1.154-.663.583-.635 1.095-1.526.327-.264.465.495.7.185.078.463 1.004.06.107.543-.476.614-1 .406.471.149-.329.443 1.026.047.363-.2-.065-.575.56-.458.232-.578.186.45.554-.31.525.608-.22.676 1.079.759.547-.72.95-.034.772-.246.767.274.236.88.217-.926.787.349-.422.876.017.528.808.158-1.176.265 1.97-.114-.373.798 1.249.085.277.362.168-.562 1.019-.14-.112.865.697-.579.664-.218.502-.536 1.573.04.753.532.548-.061.268.502.853-.234.77.667 1.722.376 1.128-.395 1.244.214.322-.26 1.462.94 1.453-.066.246-.352 2.635-1.056 1.197.27 1.016.582.404.456 1.09.17 1.108.831.308-.36.52.12 1.44 7.267-3.806.759-4.125.554-4 .644.39 3.141-3.422.38-6.445.522-7.36.267-5.687-.014.003-.183-2.309-.053.015-.661-2.24-.026.013-.582-2.733-.163-3.514-.296.022-.436-.984-.109-.018.436-2.362-.243.032-.44-1.03-.115-.04.443-1.158-.151.05-.444-1.75-.28-.058.44-4.31-.594-.193 1.302-2.101-.374-1.346-.984-.19-.582-.964-1.117.505-.189.542-.995.392-1.924 2.018.509 2.522-.045.82-.25 1.174-.848 1.198-1.353.72-1.964-.24-.26 1.163-1.055.4-.78.772-.62.636-.818.353.592z" vector-effect="non-scaling-stroke" fill="inherit" stroke="inherit" stroke-width="inherit"><title>North Slope Borough</title></path><path id="county-02188" class="county feature" d="M187.952 462.61l-.163 1.466.554.014-.016.573h.57l-.024.559.563.004-.16.58-.021 1.678 1.124.03.006.588.401-.006.004 2.323-.157.574-1.714-.016-.02.971-1.69-.04-.166 1.69-1.103-.036.016-.57-.567.003.02-.552-1.12-.036-.05 1.132-1.118-.029.05-1.15-2.197-.103-.139 2.287-2.834-.177-.084 1.08-1.672-.139-.234 2.833-.56-.049-.06.565-6.041-.648-4.634-.611.161-1.11-.566-.088.17-1.126-.732-.11.353-2.234-.19-.039.343-2.224-.103-.71 1.47.153.056.912-.352.382v.771l-.3.319.11.64.495.497.382-.135 1.052.305.944-.12.25.45.625.136.963-.162.435.76.264-.69.905-1.134.713.417.595-.122-.397-.712-1.36-.512-.703.365.316-1.103-.633-1.298-.738-.37-.279-.887.424-.502.409.042.672 1.173-.246.85.334.715.79.777 1.11-.521.89 1.2 1.427.025.183-.605-.239-.783-.873-.029-.384-.475-.83.005-.306.622-.678.024-.88-1.34.34-1.036.86-.435-.822-.699-1.068.249-.945-.066-.299-.48-.507.13-1.947-.918-.077-1.95-.418-1.326-.859-.869-1.74-2.315 2.102.374.194-1.302 4.31.594.057-.44 1.75.28-.05.444 1.157.151.042-.443 1.029.114-.032.441 2.362.243.018-.436.984.11-.022.435 3.514.296 2.733.163-.012.582 2.24.026-.016.66 2.31.054z" vector-effect="non-scaling-stroke" fill="inherit" stroke="inherit" stroke-width="inherit"><title>Northwest Arctic Borough</title></path><path id="county-02180" class="county feature" d="M166.82 489.572l.068.549-.924-.254zm-25.98-6.146l-.022.692 1.58 1.211 1.624-.495.51.213.386.631-.034.805 1.022.627.201.521 1.49.467.865.465-.678.875-1.247-.528-1.018.821.054.348-.652-.012.25-.486-.427-.84-.954-.514.233-.518-.806-1.021-.685-.6-1.328.197-.528.32-.764-.604-.102-.842zm22.408-13.528l-.397.223-1.673.322zm8.526 11.713l-.436-.025-.681.952-.889-.13-.651.421-.724.053-.245.381-.91.458-.373.885-.503.357-.013-1.127-.813-1.117-.514.333.604.622-.077.625-1.225-1.193-2.011-.283-2.138.454-.752-.449-2.376-1.063-.497-1.09.37-.462-.01-.518-.615-.747-.399-1.095.609.308.639-.326.409-.576.795.426.402 1.108.466.199.705-.356-.321-.352-.791-.21-.206.216-.483-1.008-1.765-.911-1.436-.46-1.154-1.25-.406-.253.922-.68.548.108.114-.547.919-.435.243.374 1.102-.668.52-.573 1.084-.39.536.466 1.145.171.346-.217-.877-.71.583-.551.741-.294h1.05l.061.251.951-.848.805-.108.103.71-.343 2.224.19.04-.353 2.233.732.11-.17 1.126.566.087-.161 1.11 4.634.612 6.04.648.061-.565.56.049.56.043-.135 1.702-.528-.05-.18 2.208-.554-.043-.088 1.126-.568-.039-.35 4.55.643.049-.056 1.703-.664-.067-.049.59-.503-.038-.036.574-1.14-.104-.055.498-.57-.053-.113 1.739-.516-.042-.184 1.67-3.35-.375.067-.54-.55-.072.055-.588-.554-.069.061-.563-.593-.076.818-1.096.202-.548.822.471-.449.285 1.826.09 1.159-.225 1.244-1.626-.314-2.082.028-.99-.685-1.05-.727-.153.22-.71 1.085.207.849-.68.124-.69-.248-.72-.631-.66z" vector-effect="non-scaling-stroke" fill="inherit" stroke="inherit" stroke-width="inherit"><title>Nome Census Area</title></path><path id="county-02201" class="county feature" d="M269.706 535.502l.459.221.036.712-.811-.79zm5.101-2.27l.373.47-.418.565-.698-.275zm-6.003.762l.825.847-.167.301-.582-.128.182-.452zm-1.1-.004l.572.608.083.57 1.72 1.349.314.46-.622.132-1.284-1.095-.957-.99-.216-.89zm5.713-1.973l.598.367.279.922-.98.232.156-.849-.4-.33zm-6.786 1.606l.59.344-.022.361-.61.241-.22-.742zm-.887-.178l.425.085-.568.799zm.3-.6l-.566.44.168-.584zm-1.143-.099l.54-.048-.113.705-.477-.223zm1.268-.506l.381.35-.167.403-.484-.406zm-1.286-1.411l.974.135-.76.193.223.497-.764-.361zm.8-.79l.43.819-.502-.329zm6.41-2.414l-.596.357.485-.651zm-7.358 1.001l.506-.066.252.84-.335-.028-.745.7-.173.501-.396-.137.32-1.234zm-1.004-1.01l.62.017.92-.317.78.778-.079.569.676.452.513-.267.812.383.862.682.418 1.045.251-.357.434.58.661.413-1.3-.318-.534.71.796-.484.464.712.321-.29.878.737-.484.507.617-.08.09-.58.472 1.006-.453.463.563-.003.413.787-.501.193.672.212.052.903-.866.036-1.064-1.248-.714.253.037-.99-.341.377-.034-.663-.327.294-1.168-.447-.95.213-.174-.663.653-.205-.637-.408-.01-1.038-.458.472-.652-.085.43-1.442-.457-.39-.744-1.666-1.043.22-.433-.555zm6.046 2.256l.637.445.353-.5-.133-.667-.462-.241.38-.573-.134-.6.5-.662.824.239.457-.141-.538-.678.494-.639.56-.178.141-.639-.533-.651 1.053-.126.765.417.583-.049.373.57.717.049.423-.343.608.573.232.616-.185 1.057.51 1.103 1.224 1.63-.242.714.002.906-.226 1.097-.77 1.294-.503-.538-.117.812-.42-.094-.763-1.29.418-.78-.621.402-.43-.572.474-.981-.988-2.43-1.705-1.286-.545.37-.19-.257-.892 1.218-.48.21.618.4-.073 1.99-.928-.3z" vector-effect="non-scaling-stroke" fill="inherit" stroke="inherit" stroke-width="inherit"><title>Prince of Wales-Outer Ketchikan Census Area</title></path></g><path id="counties-mesh" class="counties mesh" d="M82.917 547.043l.938.85-.002.343.604 1.26-.673-.747-.237-.752-.94-1.068.31.114m9.86 2.716l-.074.587-.303-.35.376-.237m9.671 3.39l-.294.74-.43-.124.15-.725.574.11m.413.01l.509.445-.354.237-.43-.292.275-.39m.8.077l-.032.442-.496-.447.528.005m-7.982-2.936l.478.191.011.43.952.628-.716-.054-.354.594-.68.05-.25-.577.738-.125-.793-.942.614-.195m2.89 2.529l-.322.104-.328-.506-1.218-.31 1.683.151.436-.114.254-.629.525.377-.455.278-.181.593-.393.056m-15.574-8.2l.304.432-.445.13.141-.562m18.612 7.264l-.538.98.765.251-.385.602-.935-.074-.472.245-.005-.637-.669.667-.064-.462.666-.367-.054-.457.746.398-.1-.992 1.045-.154m-14.171-5.63l.316.5-.69.418-.42-.34.07-.577.724-.002m16.104 5.554l.399.449-.337.31-.501-.132.44-.627m-23.355-9.478l.008.45-.626.326-.191.43-.755-.312-.369.414-.224-.591.865-.202.41.141.882-.656m33.46 12.484l-.187.179.705.43.736.06.804.338-1.991-.282-.872-.436-.612.037-.592-.592.555-.103.261.346 1.193.023m4.632-.232l.388.495-.525.209-.795-.064.292-.567.64-.073m-6.525-2.161l.416.815-.464.483-.581.024.296.476-1.254-.088-1.49.117-.5-.407-1.367-.198 1.625-.13.93.25 1.19-.13.572-.408-.393-.416.511-.439.509.05M67.36 533.284l-.547.857-.267-.432-.893-.538 1.167-.092.54.205m58.25 21.192l.346.252-.274.416-.813.204.043-.634.698-.238m3.769-.355l.232.535-.3.22-.861-.748.929-.007m-63.713-25.355l.927.561.148 1.03.541.383-1.075-.125-.268-.453-.81.203-.442-.589.486-.4-.7-.248.289-.297-.684-.35.946-.095.642.38m66.235 26.34l1.614-1.291-.017-.533.894-.583 1.03.204-.312-.366.249-.592.836-.54.886-.04.76.508-.387.768-1.835.563-.974 1.029-2.744.873m12.782-4.077l-.691.751-.177-.538.868-.213m-1.915-1.489l.071 1.187.853-.813.517.14-.021.645-.453.054-.884.795.878-.298.144.596-.978.125-.315.489-.342-.276-.062.657-.532-.198-2.776.723-.741.34-.807-.614 1.622-.541 1.587-.11-.187-.666.663.012-.104-.554 1.31.092-1.155-.414-.326-.792.594-.49 1.444-.089m-7.604-19.057l.924.317-.459.321-.465-.638m-.335-4.278l-.712.544-.383-.508 1.095-.036m14.353 23.667l.105.413-.747-.115-.139-.288.78-.01m-3.42-1.15l.885.751-.894.474-.64-.17.01-.847.64-.208m1.782-.172l-.317.473.478.105-.634.552-.32-.831.316-.377.477.078m10.311.298l.862.64-.875-.102.013-.538m2.27-2.968l.14.687-.352.319-.325-.656.537-.35m-5.4-1.188l.845.118.274.596.248 1.485.52-.082.218.554-.654-.11-.12-.347-.426.55-.648.183-.796-.274-1.13-.043-.949.416-.151.42-1.158.303-.74-.295-.25-.805.174-.45.84-.235.766-1.293.533-.293.676.289 1.438-.666.49-.021m7.348.154l.616.536-.414.295-.529-.774.327-.057m8.584.542l-.005.597-.622.516.627-1.113m-1.25-.32l-.17 1.066-.989.635.125-1.142.5.313.192-.852.342-.02m-1.775-.842l-.047.776-.649-.553.696-.223m-1.325-.394l.057.666.368-.04.374.853-.284.358-1.18-.617.143-.858.522-.362m1.712-.213l.26.426-.63-.184.37-.242m103.832-12.235l.81.392.087 1.305-.824-.994-.073-.703m.88-4.006l.858.553.92 1.129.336 1.356.027 1.007-.37.601-1.14-.313.278-1.257-.476 1.314-1.375-.542.354-1.207-.42-.12-.216-.55.502-.641-.406-.567 1.127-.763m-99.035 7.908l.96.355-.156-1.428.306-.555 1.174-1.402.842-.485.565-.665.77-.542.527.685-.096-1.032-.315.055-.001-.726.49-2.344.271-.51.42-.04-.457-1.057.309-.976.766-.808.74-.724.298-1.058 2.249.048-.065 1.87-3.222-.136m-11.467-2.123l-.784 1.407-.668.121.167-.977 1.285-.551m-1.113-.367l-.135.102-.955.467-.038-.583.993.116m6.666.5l.578.541.373 1.334.195.542-.716.568-.509-.353-.977-2.21-.812-.594.138-.61-.377.116-.292.694-.392.147-.278-.709-.788-.157-.021-.85-.322-.25-1.673 1.072-.658.117.112-1.068.537.055.239-.51.112-1.154.566.053.056-.568.565.032.236-.525.112-1.146.57.056.115-1.131.747.054.116-1.123.522.015.112-1.075.26-.536.552.039.096-1.132.567.05.259-.53.1-1.133.58.045.05-.565.532.035.31-1.106 3.352.222-.021.517.58.041.022-.575.565.03.029-.584 1.113.059-.023.576 3.817.178-.23 8.07-.539-.004-.02.57-1.125-.046-.023.566-.558-.028-.361 1.136-1.14-.068-.03.571-.566-.038-.047 1.161.27.02-.056 1.361-1.358.626-2.046.798-.577-.282-.09-.502-.686-.539.329-1.266-.454.531-.547.157-.156.979-.916-.767m5.494 15.181l.873.233-1.203.02.33-.253m-5.783-2.322l-.004.058-.033.446-.506.28-.042.553-.88-.084-.047.593-1.138-.094-.049.564-1.101-.079-.113 1.104.34.036-.178 2.212-.283.593 1.106.096-.136 1.633-.185-1.28-.595-.222-.338.44-.28-.217-.227.611-1.301.568-.751.83-.199-.712-.286.764-.429.013-.466-.52-.338.512-1.241.406-.695-.109.219-.737.495-.698-.816-.27-.478.515-.046.82-.848 1.115-.55-.17.223.781-.465.281-.37-.577-.371.836-.795-.304.001-1.325-.468-.398-.301.302.335.565-.003 1.448-.352-.659-.192.56-.782-.068-.19-.872-.694-.437-.154.662.642.61-1.345.73.476-1.404-.032-.531.436-.285 1.256.059.401-.798.558-.373.52.105-.085-.65 1.299-1.328 1.777-1.07 1.616-.239 1 .064.856-.16-.633.61.762 1.21.394.24-.231-1.27.859.186.155.521.79.258.148-.455-.986-.774-.15-.433.94-1.718 2.061-1.549 1.87-.673 1.643-1.248-.004.058m11.219-25.923l4.873.092 3.12-.014.135.558.023 2.3-.428.009.007 2.293-.407.01.016 2.207-.42.001v.58l-.565.005.006 1.155-.562.002.01.58-.972.013.008 1.142h-1.125l-.005 1.155.177.009-.024 2.239.182.577 1.122.008.002 1.223-.556.646-.908.364-.954.077-.174.356-.946.265-.035 2.078-.41.314-.864.17-.28.843-.455-.011.26.457-.465.273-.415-.2-.226.483-.833-.111-.913 1.195-.521 1.112 1.402.068-.72 1.11-.62-.373-.399.914-.193-.449-1.18 1.26-.624-.68-.15.606-.562.486.357.45-.617.062-.35-.445-1.106.441-.333.436 1.085-.118-.155.524-.978-.371.036.376-.749-.164-1.398 1.334.979-.431.828.425-1.289 1.913-.409-.901-.053.838-.73-.251-.307.563-1.557.201-.32.555-.102-.71-.28.035.06.82-.323.797m10.44-20.664l-.127-.447-.459.606m4.88 20.485l-.658-.278.72-.452-.062.73m6.189-5.195l-.263.383-.655.006.918-.39m-2.17-.239l-.326.706-.68.589.261-.808.745-.487m1.462.129l-.565.6-.467-.339.483-.458.549.197m3.063-4.075l.828.086.234.395-.949.225-.462.679-.276-.75.625-.635m-.899-4.979l.585.386.28.69-.893-.532.028-.544m.66-.217l.941.555.173-.285.505.307-.386.563.619-.003.32-.666 1.09.61-.79.688.32.002.006.783 1.097-.148-.625 1.303-.615-.06-.803-.46-.25.228.657.416-.257.854-.388.071-.678-.47-.316.196.546.323-.462.325-.675-.071-.8 1.04-.572-.119.414.588-1.264 1.483-.888.153.27-.626.776-.798-.411.044.184-.694-.553.586-.236-.154.569-.802-.879-.28-.852.234.15.5.44-.396.73-.073-.669 1.375-.854-.535-.036-1.31-.75-.654.115-.853.33-.584.955-.85 1.219-.032.081.655.792 1.57-.187-.726.097-.984-.259-.547.886.084-1.162-.627.007-.518.732-.55.525.407.093.86.21-.874.98.31-.119-.698.66.496-.782-.918.028-.244m.207-.7l.37.082.487.697-.964-.437-.649-.053.533-.568.223.28m3.004-2.142l.263.52.49-.226-.167.694.62-.432-.057.765-.311.395-.858-.58.226.725-.586-.014-.403.369-.066-.874-.188.928-.518.09.006.465-1.326-.736-.15-.643.729.082-.38-.399.186-.336.885.154-.102-.802.498-.51.608.103.44.878.161-.616m-1.186-.953l1.044-.442-.435 1.079-.51-.155-.1-.482m-5.612-.464l1.663-.001-.006-.57 1.232-.011-.015-.793h.488l.192-.007-.309.061-.33.906-.783.646-.748.034-.211.78-.42.015.128.847-.474.228.264.299-.746.78-.062.488-.435-.63.063.556-.403-.1-.596.617-.982-.097-.15.794-1.033.69-.17.362-.742-.327.066.828-.5.191-.005.53-.968-.162-.069.854-.645-.25-1.171.917-.042.37.733-.26-.273.66.168.357m73.935-17.3l1.144.59-1.274.106-.29-.267.42-.429m-3.474-5.822l-1.021.335-.125-.045-1.743-2.069.64-.655.961.42.891.644.023.924.374.446.346.345.887-.044.174.336.742.192.794.895.445.583 1.603.407.66.598 1.431.795-.187.355 1.415 1.162-.661 1.763-.218.661-.238.354-.706-.808-.998-.701-.393-1.123.282-.35-.301-.47-.29 1.432-1.28-.65-.728.094-.547-.876-.694-.727-.582-1.94 1.987-.56m6.06 19.076l.53-.183-.424.611-.105-.428m5.592-4.732l.365.643 1.193.454-.345.35.552.592-.675.528-.513-.288.181-.327-.752-.236-.272.346-.543-.96.356-.27.009-.64.444-.192m-1.267-.361l.434.276.098.77-.64.504-.874-.41.026-.677.956-.463m2.352 1.066l-.812-.407-.157-.765-.366-.505.55.102.604.552.377-.203.678.792-.36.703-.514-.269m-3.771-3.057l1.724.975-.76.87-.473.057-.184-.813-.52-.977.213-.112m-3.13 1.423l-.197-.345.606.016-.044 1.838.161 1.703.217-.213.195 1.266-.309-.13-.517-1.184.431 2.003-.477-.317-.543-1.172-.121-1.037.646-.217-.456-.633-.763.109.024-.362-.635-.622-.284-.807.493.129v-.804l.796.14.777.64m-.753-2.167l1.724.044 1.105-.314.577.352.7 1.586-.12.459-.82-.445-.796-.92.732 1.405.507-.023.224.479-.212.693-.922-.084.112.295-.727.345-.728-1.44-.014-.814-.382.077-.34-.514-1.03-.581.41-.6m.283-7.348l.643.843.99.784 1.75 1.789.924.71.694.717-.154.88 1.185-.082.099 1.154.991.127.57 1.236.835-.382 2.197.67.533.651-.14.639-.56.178-.495.64.538.677-.457.14-.825-.238-.5.662.135.6-.38.573.462.241.133.667-.353.5-.637-.445.42-.654-.241-.919.246-.1-.461-1.302.635-.453-.633.024-.478-.65-.703-.026-.232-.396-.69-.282.016-.977-.605.228-.292-.41-1.14-.26-.885-.798.498.06-.374-.79-.051.494-1.496-.082-.9-.185.61-.608.683.133.18-1.055.942-.97 1.08.173m-5.186-1.702l-.238.354m-9.75.83l.668.401-.104 1.148-.448-.324-.116-1.225m11.678 2.845l-.21-.609 1.218-.63-1.01.095-.647-.803-.01-.573-.761-.156.099-.706 1.672.488-1.136-.637-.589-.079-.207-.753m.072-.217l-.072.217.072-.217.037-.11m-3.106-.417l-.586.401-.336.578-.43-.342-.105-.602.04-.263.151.392.931-.323.335.16.02-.015m.437-.332l-.438.332.438-.332-.103.281 1.687 1.645.265.75-.264.048-1.695-2.08.288.613-.358-.079 1.218 1.466.837.555.285.702-.649.121 1.016.531-.22.612-.815-.362.418 1.13-.417.391-.088.56-.534.63-.446-.64-.192-.867.358-.417-.165-.526-1.428-1.762-.124-.722-.762-1.31.078-.287m-2.971 1.2l-.224.467.443-.005.48-1.002.34-.256 1.348.1.314.393-.123.627-.855-.183 1.176.671-.877.438-.675-.3-1.966-.467-.13 1.131-1.732-1.127-.008-.815.483.147.233-.452.546-.08.362-.653 1.283.407-.418.96m2.867-1.803l.054.597-.58-.48-.587-1.302 1.154.922m-4.244-.59l-.766-1.264-.571-.57.926-.724-.97.072-.732-.868.635 1.236-.033.752-1.18-.255-.345-.805-.189.6-.924-.245-.353.507.929-.077.912.273-.359.276 1.052.293-.389.751.556-.46.447.065.94 1.311-.646.615-.099-.305-.63.583-.452-.268.289.878-1.093-.68-.805.094-2.098-.946-1.422-1.005 1.201-1.003 1.846-2.196.78-.248.145-.677 2.072.023.732.262.589.638-.122 1.696.759.084.625.382.48.65-.571.17.279.76-.571-.189-.887.57.013-.757m1.608.683l.012.042-.012-.042.012.042m.453-4.593l-.031.004m-.705.194l.705-.194.23.387-.01 1.175-.577-.554-.348-.814-1.241-2.146m-.125-.045l.06.831-.442.016.85.732.183.858 1.481 1.97.019.367.747 1.236.092.744-.6.195-.543-.458-.652-1.015m-4.564-3.904l-.314-1.315.552-.141.045-.658-.433-.156 1.165-.746.61-.625m4.12 15.096l.688.616.4.783-.061.551-.707.339-.595-2.177.276-.112m5.906 6.295l-.16-.542.16.542-.629-.312-1.402-1.555.181-.657-.516.286-.026-.917-.524.207-.048-.513-.655.1-.304-.773.385-.726-.708-.244-.153-.982-.548.225-.754-.567.707-.223-.478-.172-.014-.724.705-.409.025.431.45-.224.838.37.594-.179.14.837 1.256 2.154.769 1.571.548 2.454m-8.735-8.25l-.08.024m1.44-1.554l2.094.763.653.483.32-.466.6-.183.824 1.646-.797.359-.423-.264-2.609-.954 1.18.873.288.864-.38.703-.485-.023-.793-.725.803.357-1.511-.94.029-.296-.804-.485-.214-.221m1.088-.327l-1.088.327-.135.04-.08.023-.08-1.123 1.383.733.007-.033m-93.553-26.67l.785.318-1.069.817.065-1.208.22.073m1.196-1.392l.808.919-.021.678.352.827-.133.6-.619-.957-1.79-.834.2-.618.597-.723.606.108m1.384-1.323l.89.48.503.665-.833.527-.475.742-.594-.09-.617-.95-.605-.386.087-.449.775-.504.87-.035m2.543 20.514l.244.487-.34.193.096-.68m-12.022-3.286l.08.714.684-.005.582.444-.416 1.505.369.925-1.533.141-.698.634-.66-.841-.578-.064-1.033-1.16-.377-.043-.625-.691-.083-.807.371-.233 1.42.508.15-.431 1.288-.51 1.015.258.044-.344m-20.859-6.153l-.033.632.677.988.668.258.367.604-1.14-.349-.805-1.364-.318-.231.584-.538m25.326 3.62l.088.409.753-.087-.195.497.73.103.547.374.058.682-.647.553-.513.11.17.493-.46.13-.523.932-.473-.126-.744-.986.612-.605-.738.153-.664-.472 1.588-.794-.144-.51.484-.129.071-.728m9.624 15.842l-.224.496-1.36.52-.063-.467-1.232-.307 1.089-.295.812-.49-.364-.1.004-1.127.903-.746-.858-.156-.285.288-.333-1.07.354-.985.902-.677-.415-.93-.193-1.118-.34-.563-.32-1.363.207-.378-.747-1.2.508-.384.492-1.285-.123-.22-.645 1.407-.54.286.242.932-.217 1.051-.517.318-2.007.6-1.812.042-1.132-.452-.188-.773.333-.101-.771-.818-.627-1.202-.034-.425.526-.486-.052-.469.473-.06-.126-.54.414.048.401-.499.481-.047.354-.57.784.159-.184 1.13.494-.012.815-.772-.357-.608-1.14-.468.717.054.499-.284-.66-.192-.61.388.042-1.237-.61.56.15.49-1.429-.021-.156-.568-.64.12-.141-.354-.86.02m15.086-4.775l3.873.356.057-.565 2.224.167.035-.57 4.459.185-.029.647 6.459.206 3.715.017-.017-.604 1.05-.028v-.553l.983-.008.2-.572.085 5.704h-1.457l-.002 1.911.142.006-.007 1.491m1.24-9.112l-.043-2.832 3.311-.049-.003-.474 6.85-3.863 4.291-.33-.071-.907 3.058-.366 1.406-.175.243 2.01.168 1.394.226.61.467 4.012-1.677.175.123.57.527 4.468-.808.08.034.325-3.89.351-2.258.188-.183-.338-.463-.18-.81.217-.702.759-.26.935-1.503.04-.406-.742.008.535-1.16.633-.021-.405-1.127.04-.05-1.114-5.193.137m-.127-8.536l1.625-2.931-.021-.892-.563.041-.548-.315-.173-.853.018-1.113 1.77-.071-.006-1.094.513-.013-.012-1.158.634-.052.083-.507.602-.041.168.34.645.122 1.461-2.392 4.603-.14 3.032-.241.816.478 2.173-.222.32 2.202.296 2.863m-3.18 13.82l.27 3.772-.859.1.06.733-.943.067-.043-.7-.543-.641-.515.145-1.239-.506-1.07-.807.727-1.12 1.197-1.05.516-.143m16.87 8.017l-.95 1.363.023-.358.927-1.005m-11.682.85l-.152.641-.48.189.632-.83m-.668.224l.188-.795.302.312-.49.483m-.063-.994l-.329 1.132-.42-.376.749-.756m2.824-1.263l.415-.039-.224.563.556-.284-.831 1.04-.808 1.472.227.417-.738.564-.804.164.103-.533 1.31-1.65.689-1.116.105-.598m-2.806.011l-.024.66-.398-.253.422-.407m4.62-1.144l.6.061-.012.454.742-.264.171.232-1.033.607-.556.583-.286-.261.624-.626-.733.216-.062-.31.545-.692m-4.256 1.936l.162-1.216.7.038-.31 1.798-.552-.62m6.532-2.902l.013.192-1.221.882-.305-.392 1.513-.682m-5.29-.073l.455.158-.555.329.1-.487m-2.436-.228l.38.618-.498-.168.118-.45m.404-1.125l.433.71-.699.164.266-.874m3.222-15.144l1.014-.2.04-.235 2.804-.362.078.576 1.683-.13 4.226-.637.497.728-.307 1.112.533.364-.12 1.034.792-.025.2-.73 1.26-.1.082.553.574-.08.085.54.497-.082.365 2.237.488.16.274 1.46 2.492-.484 1.926 9.719-.724-.153-1.81.356-.101-.559-4.355.776-1.813 3.454.061.295-1.32-.768.012-.278-1.152.18-.4-.531-.805-.04.272-1.155-.108-.92-.62.642-.137.517-.662.807-.59-.458-.865-.27-.64.206.91-1.463-1.235.425.223-.628-.987.671.518-.807-1.11.446-.774.065-.137-.269 1.113-.465.458-.45-1.158.384-.656-.577.232-1.165 1.182-.155-.236-.293-.824.195-1.125 1.324-.459-.457-.163.537-.624.458-.44-.1-.112-1.22-.269.501.14 1.03-.448.193-.333.08-.732-.668.285-.943.5-.784.077-.624-.749 1.317-.17.563-.346-.406-.333 1.59-1.014.787-.287-.02m-7.21-2.559l-.556.961-.994.29-.975 1.067.334.785h-.46l-.614.492-.163.464-.653.584-.232 1.347-.539.533-1.202-.122.831.496.372.617-.427 1.035-.33.246-1.347.117-.182.35.936-.012-.182.786-.53.383-.667-.097.266-.466-.402-.493.044.699-.464.91-.793.074.331.692-1.254.6-.074.974-.314.171.195 1.008.332-.369 1.233-.015.499.59.732.404.074.434.192-.008m-.605-3.662l.283.389-.688.15.405-.539m9.281-.174l-.295.747.066-.845.23.098m-4.407-6.647l-.377.448.231-.936.146.488m10.233-2.173l-.005-.05.005.05-.005-.05m-.018-.242l.03.394m.09 1.104l-.09-1.104.733-.805.047 1.057.368-.916.36.913-.4.559-.503-.246-.515.542-.007.265m.264 3.513l.264-.136-.182-3.172-.346-.205.622-.625.625.308.542-.714.369.444.095.671-1.057 1.109.731.3-.764.85-.172.962-.727.208-1.476-.172.243-.539-.428.09-.4.75-.33-1.285.026.845-.523.624-.161.622-.276-.907-.11 1.888-1.07-1.12-.012.547.509.252-.412.414-.047.557-.735.345.17-1.365-.695 1.877-.456-.496.062.733-.46.03-.835 1.455-.121-.74-.381.804-.801-.297-.196.31-.943.348-.036-.369-.752-.228.216-.973.633-.445.853-.04v-.464l.858-.374-.089-.293.854-1.07-.437.01-1.401 1.104-.46-.07-.77-.776.483-1.737.87-1.224.093-.961.259-.178.075-1.07-.518-1.118 1.085-.487 1.084-1.039.924-.694.622.663.516.094.88-.425.41.26 1.71.195.245.21m37.923 7.45l-.24-.603-1.025-.67-1.073-.212.072-.55-.613.373-2.78-1.096-.619-.069-1.054-.476.466-.425.14.14.425-1.033-.755-1.134.257-.64.8.735.175-.104-.753-.782-.473-.198-.056.688-.364.888-1.517 1.191-1.834.111-2.058-.576.468-.84-.635-1.008-.373.378.609.463-.633.577-3.316-.223-3.063.763-1.016.511m8.742-4.169l.108.549 1.638.249.08-.608 1.68.492.695-1.18 1.92-.545-.007 1.779.596.493 1.231.311.465.819 4.087 2.547.764 1.556.04.524m-75.078-21.142l.184-1.671.516.042.113-1.739.57.053.054-.498 1.141.104.036-.574.503.037.049-.59.664.068.056-1.703-.642-.048.349-4.55.568.038.088-1.126.554.043.18-2.208.528.05.134-1.702-.559-.043.234-2.833 1.672.139.084-1.08 2.834.177.14-2.287 2.197.102-.051 1.151 1.118.029.05-1.132 1.12.036-.02.552.567-.004-.016.57 1.103.037.166-1.69 1.69.04.02-.97 1.714.015.157-.574-.004-2.323-.401.006-.006-.588-1.124-.03.02-1.678.16-.58-.562-.004.023-.56-.57.001.017-.573-.554-.014.163-1.465 5.687.014 7.36-.267 6.445-.522 3.421-.38-.39-3.141 4.001-.644 4.125-.554 3.806-.76 3.355 16.926-.714 1.017-.017.576-1.044 1.395-.896.014-.65.718-.457-.065-.136 1.224-.23.555-.612.258-.995 1.212.266 1.306-.57.797-.85-.102-.314-.717.178-1.208-.348-.202.459-.37-.214-.351-.932.194-.285.361-1.285-.312-.812.533-.578-.002-.583.412-.335-.383.33-.343-1.34-.501-.213-.4.313-.674-.535-.243-.581.286-.392.54-.982.574-1.049.112-.549.463-3.04.268.37 3.974.265-.134.928.794.636.88m10.888-3.551l-1.055.816-1.422.272-.21.418-.781.276-.419.511-.613-.204-.674.589-.437.036-.487.802-1.801.292m14.804-12.713l5.018 25.312m-31.962-52.257l-.122.509-.339-.456.46-.053m-10.865 16.273l.003-.183-2.309-.053.015-.661-2.24-.026.013-.582-2.733-.163-3.514-.296.022-.436-.984-.109-.018.436-2.362-.243.032-.44-1.03-.115-.04.443-1.158-.151.05-.444-1.75-.28-.058.44-4.31-.594-.193 1.302-2.101-.374-1.346-.984-.19-.582-.964-1.117.505-.189.542-.995.392-1.924 2.018.509 2.522-.045.82-.25 1.174-.848 1.198-1.353.72-1.964-.24-.26 1.163-1.055.4-.78.772-.62.636-.818.353.592-.786.24.485.105.58-.533.667.066 1.388-.688 1.287-1.082.715-.117-.354 1.25.283.933.056-1.193.33-.306-.318-.87-.427-.053 1.095-1.033 1.109-.326-.439.312.303.318 2.628-.301 1.154-.663.583-.635 1.095-1.526.327-.264.465.495.7.185.078.463 1.004.06.107.543-.476.614-1 .406.471.149-.329.443 1.026.047.363-.2-.065-.575.56-.458.232-.578.186.45.554-.31.525.608-.22.676 1.079.759.547-.72.95-.034.772-.246.767.274.236.88.217-.926.787.349-.422.876.017.528.808.158-1.176.265 1.97-.114-.373.798 1.249.085.277.362.168-.562 1.019-.14-.112.865.697-.579.664-.218.502-.536 1.573.04.753.532.548-.061.268.502.853-.234.77.667 1.722.376 1.128-.395 1.244.214.322-.26 1.462.94 1.453-.066.246-.352 2.635-1.056 1.197.27 1.016.582.404.456 1.09.17 1.108.831.308-.36.52.12 1.44 7.267M176.01 478.14l-.56-.049-.06.565-6.041-.648-4.634-.611.161-1.11-.566-.088.17-1.126-.732-.11.353-2.234-.19-.039.343-2.224-.103-.71 1.47.153.056.912-.352.382v.771l-.3.319.11.64.495.497.382-.135 1.052.305.944-.12.25.45.625.136.963-.162.435.76.264-.69.905-1.134.713.417.595-.122-.397-.712-1.36-.512-.703.365.316-1.103-.633-1.298-.738-.37-.279-.887.424-.502.409.042.672 1.173-.246.85.334.715.79.777 1.11-.521.89 1.2 1.427.025.183-.605-.239-.783-.873-.029-.384-.475-.83.005-.306.622-.678.024-.88-1.34.34-1.036.86-.435-.822-.699-1.068.249-.945-.066-.299-.48-.507.13-1.947-.918-.077-1.95-.418-1.326-.859-.869-1.74-2.315m3.534 29.49l.068.549-.924-.254.856-.295m-25.98-6.146l-.022.692 1.58 1.211 1.624-.495.51.213.386.631-.034.805 1.022.627.201.521 1.49.467.865.465-.678.875-1.247-.528-1.018.821.054.348-.652-.012.25-.486-.427-.84-.954-.514.233-.518-.806-1.021-.685-.6-1.328.197-.528.32-.764-.604-.102-.842 1.03-1.733m22.408-13.528l-.397.223-1.673.322 2.07-.545m2.813 21.976l.593.076-.06.563.553.07-.054.587.55.071-.068.54 3.35.377-.496.704-.262 2.254-.134-.005-.247 2.254.414.045-.184 1.663 1.155.13.149.529.654.139-1.676.62-1.177.794-1.017.09-1.407.406-1.34-.4-.514-.317-2.142.424-.697-.329-.902.85-1.008-.388-.093.839-.549.688-.207.66-1.254.348-.79-.406-1.116.228-.125-.418.79-.164-1.068-1.325-.143.753-.568-.164-.104-.937.18-.272-.643-.319-.095-.777.533-.33-.442-.578-.673.302.065-.935 1.224-.062-.538-.312-.328-.749 1.537.07-.29-1.134.427-.837 1.507-1.628.784-.617.6.142 1.215-1.222.822.449.812 1.56.017-1.63-.386-.696.074-.415.928-.088.171-.589.852-.51.48.566.84-.048.766-.845.755-.345.818-1.096.202-.548.822.471-.449.285 1.826.09 1.159-.225 1.244-1.626-.314-2.082.028-.99-.685-1.05-.727-.153.22-.71 1.085.207.849-.68.124-.69-.248-.72-.631-.66.39-.086-.436-.025-.681.952-.889-.13-.651.421-.724.053-.245.381-.91.458-.373.885-.503.357-.013-1.127-.813-1.117-.514.333.604.622-.077.625-1.225-1.193-2.011-.283-2.138.454-.752-.449-2.376-1.063-.497-1.09.37-.462-.01-.518-.615-.747-.399-1.095.609.308.639-.326.409-.576.795.426.402 1.108.466.199.705-.356-.321-.352-.791-.21-.206.216-.483-1.008-1.765-.911-1.436-.46-1.154-1.25-.406-.253.922-.68.548.108.114-.547.919-.435.243.374 1.102-.668.52-.573 1.084-.39.536.466 1.145.171.346-.217-.877-.71.583-.551.741-.294h1.05l.061.251.951-.848.805-.108m105.554 65.745l.459.221.036.712-.811-.79.316-.143m5.101-2.27l.373.47-.418.565-.698-.275.743-.76m-6.003.762l.825.847-.167.301-.582-.128.182-.452-.258-.568m-1.1-.004l.572.608.083.57 1.72 1.349.314.46-.622.132-1.284-1.095-.957-.99-.216-.89.39-.144m5.713-1.973l.598.367.279.922-.98.232.156-.849-.4-.33.347-.342m-6.786 1.606l.59.344-.022.361-.61.241-.22-.742.262-.204m-.887-.178l.425.085-.568.799.143-.884m.3-.6l-.566.44.168-.584.397.143m-1.142-.098l.54-.048-.113.705-.477-.223.05-.434m1.268-.506l.381.35-.167.403-.484-.406.27-.347m-1.286-1.411l.974.135-.76.193.223.497-.764-.361.327-.464m.8-.79l.43.819-.502-.329.073-.49m6.409-2.414l-.596.357.485-.651.11.294m-7.357 1.001l.506-.066.252.84-.335-.028-.745.7-.173.501-.396-.137.32-1.234.571-.576m-1.004-1.01l.62.017.92-.317.78.778-.079.569.676.452.513-.267.812.383.862.682.418 1.045.251-.357.434.58.661.413-1.3-.318-.534.71.796-.484.464.712.321-.29.878.737-.484.507.617-.08.09-.58.472 1.006-.453.463.563-.003.413.787-.501.193.672.212.052.903-.866.036-1.064-1.248-.714.253.037-.99-.341.377-.034-.663-.327.294-1.168-.447-.95.213-.174-.663.653-.205-.637-.408-.01-1.038-.458.472-.652-.085.43-1.442-.457-.39-.744-1.666-1.043.22-.433-.555.018-.517m8.592-3.23l1.053-.126.765.417.583-.049.373.57.717.049.423-.343.608.573.232.616-.185 1.057.51 1.103 1.224 1.63-.242.714.002.906-.226 1.097-.77 1.294-.503-.538-.117.812-.42-.094-.763-1.29.418-.78-.621.402-.43-.572.474-.981-.988-2.43-1.705-1.286-.545.37-.19-.257-.892 1.218-.48.21.618.4-.073 1.99-.928-.3-.468-.897" vector-effect="non-scaling-stroke" fill="inherit" stroke="inherit" stroke-width="inherit"/></svg>