<svg xmlns="http://www.w3.org/2000/svg" version="1.2" id="root" viewBox="113.96788464417733 180.61436534891607 118.75092485500244 203.38265492944458"><g id="counties"><path id="county-06093" class="county feature" d="M151.03 187.935l11.128 3.307-4.038 14.776-14.127-3.942.96-2.426-.972-1.211-3.949 2.095-1.129-.363-1.642 1.342.124 2.352-1.554-.656-.994-1.76-1.336-.326-1.7-2.547.109-3.652-2.403-1.004.803-.753-.38-3.242 1.24-1.625.2-2.59 2.238-.804 1.14-1.571 3.814 1.07z" vector-effect="non-scaling-stroke" fill="inherit" stroke="inherit" stroke-width="inherit"><title>Siskiyou County</title></path><path id="county-06015" class="county feature" d="M134.748 183.335l-1.14 1.571-2.237.804-.202 2.59-1.24 1.625.381 3.242-.803.753-1.454-.418.444-1.526-3.912-1.165.222-5.304-1.003-1.165 1.778-3.728 5.128 1.617z" vector-effect="non-scaling-stroke" fill="inherit" stroke="inherit" stroke-width="inherit"><title>Del Norte County</title></path><path id="county-06049" class="county feature" d="M169.693 193.356l11.739 3.069-3.822 14.772-17.939-4.761-1.55-.418 4.037-14.776z" vector-effect="non-scaling-stroke" fill="inherit" stroke="inherit" stroke-width="inherit"><title>Modoc County</title></path><path id="county-06023" class="county feature" d="M129.507 193.92l2.403 1.004-.11 3.652-1.261 1.819.466.895-1.612 1.778-1.767-.858-.02 3.916-3.965 13.173-6.503-1.944-.623-2.199-2.547-3.866.396-3.49 3.28-4.04.553.465 3.366-5.704-.38-1.04 3.402-6.67 3.912 1.165-.444 1.526z" vector-effect="non-scaling-stroke" fill="inherit" stroke="inherit" stroke-width="inherit"><title>Humboldt County</title></path><path id="county-06105" class="county feature" d="M143.993 202.076l.577.623-3.406 4.095-3.16 3.314.098 2.294-4.845 1.557-1.598 2.11.879 1.005-.725 5.101-8.31-2.428.138-.448 3.965-13.173.02-3.916 1.767.858 1.612-1.778-.466-.895 1.261-1.82 1.701 2.548 1.336.326.994 1.76 1.554.656-.124-2.352 1.642-1.342 1.13.363 3.948-2.095.972 1.211z" vector-effect="non-scaling-stroke" fill="inherit" stroke="inherit" stroke-width="inherit"><title>Trinity County</title></path><path id="county-06035" class="county feature" d="M177.61 211.197l-6.894 26.656-2.082-.251.779-.93.842-3.165-.917-1.676.232-1.354-1.665-1.004-1.677-3.044-3.144-2.143-2.838 1.662-1.5-1.663.938-3.458-3.632-.962 2.391-8.34 1.228-5.09z" vector-effect="non-scaling-stroke" fill="inherit" stroke="inherit" stroke-width="inherit"><title>Lassen County</title></path><path id="county-06089" class="county feature" d="M158.12 206.018l1.551.418-1.228 5.09-2.39 8.339-2.306-.636-7.053-1.592-4.325-.137-2.58-1.087-2.298.538-1.125-1.051-4.707.168 1.598-2.109 4.845-1.557-.098-2.294 3.16-3.314 3.406-4.095-.577-.623z" vector-effect="non-scaling-stroke" fill="inherit" stroke="inherit" stroke-width="inherit"><title>Shasta County</title></path><path id="county-06103" class="county feature" d="M153.747 219.229l-.084 1.85 1.484 1.12-.792 1.746-1.356.838-2.174.396-1.41 1.9-2.253 1.202-3.648-.92-.52 1.552-12.184-3.496 1.003-3.242.725-5.1-.879-1.007 4.707-.168 1.125 1.05 2.298-.537 2.58 1.087 4.325.137z" vector-effect="non-scaling-stroke" fill="inherit" stroke="inherit" stroke-width="inherit"><title>Tehama County</title></path><path id="county-06063" class="county feature" d="M156.052 219.865l3.632.962-.939 3.458 1.501 1.663 2.838-1.662 3.144 2.143 1.677 3.044 1.665 1.004-.232 1.354.917 1.676-.842 3.165-.78.93-6.988-1.789-.504.424-2.151-2.52-2.564 2.022-1.114.477-3.214-6.24.553-2.637 1.055-1.522-.707-1.034 1.356-.838.792-1.746-1.484-1.12.084-1.85z" vector-effect="non-scaling-stroke" fill="inherit" stroke="inherit" stroke-width="inherit"><title>Plumas County</title></path><path id="county-06007" class="county feature" d="M155.312 236.216l-1.342 1.001-2.18-.436-2.284 2.853-3.243.013-3.882-1.266.655-1.353 1.298-2.649-1.966-.5.64-2.433.915-.366-.93-2.167.521-1.552 3.648.92 2.252-1.203 1.411-1.9 2.174-.395.707 1.034-1.055 1.522-.553 2.637z" vector-effect="non-scaling-stroke" fill="inherit" stroke="inherit" stroke-width="inherit"><title>Butte County</title></path><path id="county-06045" class="county feature" d="M123.641 219.3l-.139.447 8.31 2.428-1.002 3.242-.467 4.093-.268.938-2.52-.194-.686 1.668.197 3.424-1.502.776-.719 1.794 1.066 1.793.034 1.912 1.526 1.433-3.602-1.092-1.044.546-3.218-.883-2.457.005-1.867-3.521 1.148-1.869-.179-6.32 1.742-3.1.479-2.213.04-3.55-1.375-3.702z" vector-effect="non-scaling-stroke" fill="inherit" stroke="inherit" stroke-width="inherit"><title>Mendocino County</title></path><path id="county-06021" class="county feature" d="M142.993 228.913l.93 2.167-.915.366-.64 2.434 1.966.5-1.298 2.648-3.265-1.526-.136.522-8.276-2.308 1.088-3.578-2.104-.628.467-4.093z" vector-effect="non-scaling-stroke" fill="inherit" stroke="inherit" stroke-width="inherit"><title>Glenn County</title></path><path id="county-06091" class="county feature" d="M168.634 237.602l2.082.251-1.327 5-6.95-1.798-.421-1.456-1.308-.524-1.466.849-4.151.193 1.333-4.378 2.564-2.021 2.15 2.519.505-.424z" vector-effect="non-scaling-stroke" fill="inherit" stroke="inherit" stroke-width="inherit"><title>Sierra County</title></path><path id="county-06115" class="county feature" d="M156.426 235.74l-1.333 4.377-1.56-.129-2.84 2.148-.972 3.564-2.064.177-1.932-.058-.707.836 1.245-7.008 3.243-.013 2.284-2.853 2.18.436 1.342-1.001z" vector-effect="non-scaling-stroke" fill="inherit" stroke="inherit" stroke-width="inherit"><title>Yuba County</title></path><path id="county-06033" class="county feature" d="M131.36 233.716l-.872 1.11 1.052 2.213 2.33 1.507-.83 2.113 1.432 2.954-1.07.872-1.784 2.61-2.457.036-1.69-4.077-1.526-1.433-.034-1.912-1.066-1.793.719-1.794 1.502-.776-.197-3.424.686-1.668 2.52.194.268-.938 2.104.628z" vector-effect="non-scaling-stroke" fill="inherit" stroke="inherit" stroke-width="inherit"><title>Lake County</title></path><path id="county-06057" class="county feature" d="M169.389 242.853l-.677 2.395-8.844-2.298-1.275.195-4.302 2.283-1.311 1.52-3.259-1.248.971-3.564 2.84-2.148 1.56.129 4.152-.193 1.466-.849 1.308.524.421 1.456z" vector-effect="non-scaling-stroke" fill="inherit" stroke="inherit" stroke-width="inherit"><title>Nevada County</title></path><path id="county-06011" class="county feature" d="M143.036 237.028l-.655 1.353-1.142 2.116.88 2.552-.65 2.53-6.997-1.966-1.432-2.954.83-2.113-2.33-1.507-1.052-2.213.871-1.11 8.276 2.308.136-.522z" vector-effect="non-scaling-stroke" fill="inherit" stroke="inherit" stroke-width="inherit"><title>Colusa County</title></path><path id="county-06061" class="county feature" d="M168.712 245.248l-.663 2.757-.24.97-.198.83-1.939-.513-1.568.46-2.453-.71-2.694 1.49-2.263-2.46-4.498.928-2.194 3.08-4.627-1.714 1.182-3.404 1.1-1.085 2.064-.177 3.259 1.247 1.311-1.519 4.302-2.283 1.275-.195z" vector-effect="non-scaling-stroke" fill="inherit" stroke="inherit" stroke-width="inherit"><title>Placer County</title></path><path id="county-06101" class="county feature" d="M146.263 239.647l-1.245 7.008.707-.836 1.932.058-1.1 1.085-1.182 3.404-1.64-.46-1.083-.922-.034-1.678-1.15-1.728.652-2.529-.881-2.552 1.142-2.116z" vector-effect="non-scaling-stroke" fill="inherit" stroke="inherit" stroke-width="inherit"><title>Sutter County</title></path><path id="county-06017" class="county feature" d="M167.611 249.805l-.298 1.237 1.031 1.563.014 1.338-3.448 2.267-4.174 2.015-4.544-.408-1.611-1.438-3.912-.147-.265-4.113-.402-.04 2.194-3.08 4.498-.927 2.263 2.46 2.694-1.49 2.453.71 1.568-.46z" vector-effect="non-scaling-stroke" fill="inherit" stroke="inherit" stroke-width="inherit"><title>El Dorado County</title></path><path id="county-06003" class="county feature" d="M171.818 257.839l-1.003 1.639.555 2.353-2.148 2.801-1.18-2.05-2.037.59-1.603-1.93-.403-1.514.91-3.518 3.45-2.267-.015-1.338z" vector-effect="non-scaling-stroke" fill="inherit" stroke="inherit" stroke-width="inherit"><title>Alpine County</title></path><path id="county-06113" class="county feature" d="M141.468 245.578l1.15 1.728.034 1.678 1.082.923-.676.93 1.279 1.877-1.025 1.435.46.969-.767 1.89-1.328.586-1.329-.414 1.057-3.814-3.373-1.09-2.382-.276-.897-6.654-1.351-.861 1.07-.872z" vector-effect="non-scaling-stroke" fill="inherit" stroke="inherit" stroke-width="inherit"><title>Yolo County</title></path><path id="county-06055" class="county feature" d="M135.65 252l-.767 1.514.294 2.221-2.01-.57-.79 2.448-1.204.117-.12-.04-1.466-.395-.008-.048.84-.264.094-2.366-1.34-5.166-.012-2.32 2.457-.036 1.784-2.61 1.351.861z" vector-effect="non-scaling-stroke" fill="inherit" stroke="inherit" stroke-width="inherit"><title>Napa County</title></path><path id="county-06097" class="county feature" d="M127.471 243.054l1.69 4.077.013 2.32 1.34 5.166-.095 2.366-.84.264-1.422.491-.523-1.055-2.448-1.66-1.622-2.55-1.563-.13-.953-3.299-2.22-2.925-1.678-4.49 2.457-.004 3.218.883 1.044-.546z" vector-effect="non-scaling-stroke" fill="inherit" stroke="inherit" stroke-width="inherit"><title>Sonoma County</title></path><path id="county-06067" class="county feature" d="M150.669 256.232l-1.004 3.845-5.582-.15-.892-.865-2.174 2.356-1.683-.01.869-1.652 1.474-2.162 1.328-.586.768-1.89-.46-.97 1.024-1.434-1.28-1.876.677-.931 1.64.459 4.628 1.714.402.04z" vector-effect="non-scaling-stroke" fill="inherit" stroke="inherit" stroke-width="inherit"><title>Sacramento County</title></path><path id="county-06051" class="county feature" d="M174.537 261.907l1.872 2.822 7.975 12.017 6.598 9.923-13.454-3.18-2.97-3.112-.707-2.984-2.11-.698 1.637-2.488-1.214-1.428.026-2.705-1.533-.61-1.925-2.48.49-2.352 2.148-2.8-.555-2.354 1.003-1.64z" vector-effect="non-scaling-stroke" fill="inherit" stroke="inherit" stroke-width="inherit"><title>Mono County</title></path><path id="county-06005" class="county feature" d="M164.91 256.21l-.911 3.518-3.828-.125-1.273-.47-2.949.678-.582.957-5.644.738-.058-1.429 1.004-3.845 3.912.147 1.611 1.438 4.544.408z" vector-effect="non-scaling-stroke" fill="inherit" stroke="inherit" stroke-width="inherit"><title>Amador County</title></path><path id="county-06095" class="county feature" d="M131.054 257.69l.324 1.633-1.791-2.028zm10.623-.096l-1.474 2.162-2.655 1.601-1.834-.314-1.35-1.977-1.547 1.35-1.29-.892-.354-1.794 1.204-.117.79-2.448 2.01.57-.294-2.221.767-1.514 2.382.277 3.373 1.09-1.057 3.813z" vector-effect="non-scaling-stroke" fill="inherit" stroke="inherit" stroke-width="inherit"><title>Solano County</title></path><path id="county-06009" class="county feature" d="M164.402 261.241l-2.491.594-6.813 6.443-2.51 1.681-2.641-5.507-.224-2.946 5.644-.738.582-.957 2.949-.679 1.273.471 3.828.125z" vector-effect="non-scaling-stroke" fill="inherit" stroke="inherit" stroke-width="inherit"><title>Calaveras County</title></path><path id="county-06109" class="county feature" d="M169.222 264.632l-.49 2.352 1.925 2.48 1.533.61-.026 2.705 1.214 1.428-1.636 2.488-.383-.85-2.618-3.088-2.12 1.262-2.374.373-1.96-.596-1.625-1.657-5.256 2.408-2.817-4.588 2.509-1.681 6.813-6.443 2.49-.594 1.604 1.93 2.037-.59z" vector-effect="non-scaling-stroke" fill="inherit" stroke="inherit" stroke-width="inherit"><title>Tuolumne County</title></path><path id="county-06041" class="county feature" d="M127.634 256.683l.542 1.179-1.13 3.153.668 1.092-1.595.79-1.38-2.219-.667.16-1.723-3.044-1.963-.273 1.642-2.55 1.178 1.878-1.205-4.505 1.563.13 1.622 2.548z" vector-effect="non-scaling-stroke" fill="inherit" stroke="inherit" stroke-width="inherit"><title>Marin County</title></path><path id="county-06077" class="county feature" d="M149.665 260.077l.058 1.43.224 2.945-1.646 6.191-.846-.671-3.353.39-4.801 2.847-.914-1.422 1.38-5.011.77-4.169.48-1.189 2.174-2.356.892.866z" vector-effect="non-scaling-stroke" fill="inherit" stroke="inherit" stroke-width="inherit"><title>San Joaquin County</title></path><path id="county-06013" class="county feature" d="M140.537 262.607l-.77 4.169-6.182.22-.78-1.785-1.276-.48-1.957-2.38-.709-1.507 2.214-1.113 1.427 1.006 2.06-.124 3.75 1.791 2.206-.972z" vector-effect="non-scaling-stroke" fill="inherit" stroke="inherit" stroke-width="inherit"><title>Contra Costa County</title></path><path id="county-06099" class="county feature" d="M155.406 274.547l-9.56 2.026-.06 1.1-4.72 2.76-.56-1.068-1.837.14-.164-2.642.873-.285-.085-3.38.008.011 4.801-2.847 3.353-.39.846.671 1.646-6.191 2.642 5.507z" vector-effect="non-scaling-stroke" fill="inherit" stroke="inherit" stroke-width="inherit"><title>Stanislaus County</title></path><path id="county-06001" class="county feature" d="M139.768 266.776l-1.381 5.011.914 1.422-.008-.01-5.547-1.584-1.82-.083-1.527-1.223.1-3.242-1.674-3.007.747-1.71 1.957 2.38 1.276.481.78 1.785z" vector-effect="non-scaling-stroke" fill="inherit" stroke="inherit" stroke-width="inherit"><title>Alameda County</title></path><path id="county-06043" class="county feature" d="M171.36 275.845l-4.906 2.998-1.622 2.386-1.598-.411-5.134 3.197-1.12-1.35-1.081-3.805-.493-4.313 5.256-2.408 1.625 1.657 1.96.596 2.374-.373 2.12-1.262z" vector-effect="non-scaling-stroke" fill="inherit" stroke="inherit" stroke-width="inherit"><title>Mariposa County</title></path><path id="county-06075" class="county feature" d="M127.44 265.455l-1.53-.436.207-1.354 1.602-.125z" vector-effect="non-scaling-stroke" fill="inherit" stroke="inherit" stroke-width="inherit"><title>San Francisco County</title></path><path id="county-06039" class="county feature" d="M171.742 276.695l2.109.698.707 2.984-5.183 3.223-.933 2.615-1.083.84-2.48-.51.026.935-2.645 1.03-2.36 2.42-8.31-.81-.868-1.758-.356-3.624 1.19-.708 2.94-.324 3.604.31 5.134-3.198 1.598.411 1.622-2.386 4.905-2.998z" vector-effect="non-scaling-stroke" fill="inherit" stroke="inherit" stroke-width="inherit"><title>Madera County</title></path><path id="county-06081" class="county feature" d="M127.44 265.455l-.113 2.237 1.268.753 1.526 2.517-1.237.33-.206 2.785-.38 1.266-2.507-.15-.02 1.56-1.142-2.072.906-2.946-.789-3.36 1.164-3.356z" vector-effect="non-scaling-stroke" fill="inherit" stroke="inherit" stroke-width="inherit"><title>San Mateo County</title></path><path id="county-06047" class="county feature" d="M158.1 284.015l-3.603-.31-2.942.325-1.189.708-6.845 4.083-2.726-2.595-.435-2.553.705-3.24 4.72-2.76.062-1.1 9.56-2.026.492 4.313 1.082 3.805z" vector-effect="non-scaling-stroke" fill="inherit" stroke="inherit" stroke-width="inherit"><title>Merced County</title></path><path id="county-06019" class="county feature" d="M177.528 283.489l-.705 2.15.956.56.033 3.595 2.756 2.256.327 3.452-.723 2.517-8.895-2.079-.38 1.535-4.593-1.169-.408 1.565-2.369-.616-1.948 1.2-1.596.948-4.309-.71-1.037 3.964-6.45 3.668-3.864-4.945.765-1.674-.433-1.333 1.487-.804.763-2.905-3.384-5.843 6.845-4.083.356 3.624.868 1.758 8.31.81 2.36-2.42 2.645-1.03-.026-.936 2.48.512 1.083-.84.933-2.616 5.183-3.223z" vector-effect="non-scaling-stroke" fill="inherit" stroke="inherit" stroke-width="inherit"><title>Fresno County</title></path><path id="county-06085" class="county feature" d="M139.293 273.199l.085 3.379-.873.285.164 2.642 1.837-.14.56 1.068-.706 3.24-3.794-1.465-1.728 1.139-1.737-3.388-2.871-2.673-1.552-3.21.206-2.784 1.237-.33 1.805.57 1.82.083z" vector-effect="non-scaling-stroke" fill="inherit" stroke="inherit" stroke-width="inherit"><title>Santa Clara County</title></path><path id="county-06027" class="county feature" d="M190.982 286.669l7.488 11.28 14.555 21.92 2.824 4.252-1.31.029-11.22-2.406-16.627-3.763-5.473-1.107.734-1.402-.23-8.43.548-.46-1.533-3.28.13-2.222-.696-3.06.723-2.518-.327-3.452-2.756-2.256-.033-3.596-.956-.558.705-2.151z" vector-effect="non-scaling-stroke" fill="inherit" stroke="inherit" stroke-width="inherit"><title>Inyo County</title></path><path id="county-06087" class="county feature" d="M134.838 283.347l-.918-.146-1.367-.657-1.104.742-1.324-2.758-2.486-.271-1.867-3.504.02-1.56 2.507.15.38-1.266 1.551 3.209 2.87 2.673z" vector-effect="non-scaling-stroke" fill="inherit" stroke="inherit" stroke-width="inherit"><title>Santa Cruz County</title></path><path id="county-06069" class="county feature" d="M140.36 283.673l.435 2.553 2.726 2.595 3.384 5.843-.763 2.905-1.487.804-1.5.848-1.848-2.562-1.588.545-.003-1.243-2.047-4.133-.963-.2.435-1.96-1.77-1.97.44-.696-1.891-3.801.918.146 1.728-1.139z" vector-effect="non-scaling-stroke" fill="inherit" stroke="inherit" stroke-width="inherit"><title>San Benito County</title></path><path id="county-06053" class="county feature" d="M133.92 283.2l1.89 3.802-.439.697 1.77 1.969-.435 1.96.963.2 2.047 4.133.003 1.243 1.588-.545 1.848 2.562 1.5-.848.433 1.333-.765 1.674 3.864 4.945.873 2.539-16.366-4.496-1.226-2.168.066-1.804-.985-1.098-1.195-3.65-2.042-2.727.256-5.298 2.742-1.061 1.139-3.276 1.104-.742z" vector-effect="non-scaling-stroke" fill="inherit" stroke="inherit" stroke-width="inherit"><title>Monterey County</title></path><path id="county-06107" class="county feature" d="M181.219 316.874l-22.315-5.513 2.364-8.715.738.204.639-2.422-1.066-1.973 1.948-1.2 2.37.616.407-1.565 4.594 1.169.379-1.535 8.895 2.08.696 3.06-.13 2.222 1.533 3.28-.548.46.23 8.43z" vector-effect="non-scaling-stroke" fill="inherit" stroke="inherit" stroke-width="inherit"><title>Tulare County</title></path><path id="county-06031" class="county feature" d="M158.904 311.361l-9.53-2.42-.314-.077-.873-2.54 6.45-3.667 1.037-3.963 4.309.71 1.596-.949 1.066 1.973-.639 2.422-.738-.204z" vector-effect="non-scaling-stroke" fill="inherit" stroke="inherit" stroke-width="inherit"><title>Kings County</title></path><path id="county-06071" class="county feature" d="M227.833 342.142l-.467 2.435 1.81 3.343.132 2.274.904 2.965 2.507 3.33-2.225 2.057-2.978 1.058-13.311-2.55-.159.797-24.261-5.148-.111.548-4.462-.998-4.869-1.662-2.383 2.587-1.357-1.768 1.101-1.204 2.41-4.586 1.937-9.9.522.117 4.12-17.856 16.625 3.763 11.22 2.406 1.311-.029z" vector-effect="non-scaling-stroke" fill="inherit" stroke="inherit" stroke-width="inherit"><title>San Bernardino County</title></path><path id="county-06079" class="county feature" d="M149.06 308.864l.314.076-.835 3.166 1.557.427-.407 1.573.868 1.938 1.695.472-.39 1.605 1.016.248-.383 1.587 2.076.577-.387 1.587 1.672.342-.535 1.63 1.245.534-.817 3.238-3.645-2.361-4.277-3.84-1.848.994-2.402.13.091 1.804-1.906-2.222-2.939-.347.816-3.158-1.497-.63-1.598-2.283 1.434-1.224-.395-1.982-1.57-.954-1.478-3.753-1.62-1.058-.221-2.612z" vector-effect="non-scaling-stroke" fill="inherit" stroke="inherit" stroke-width="inherit"><title>San Luis Obispo County</title></path><path id="county-06029" class="county feature" d="M186.692 317.981l-4.12 17.856-.521-.116-18.12-4.235.057.589-1.312-.788-3.958-1.022-.171-1.297-2.35-.981-.448-.123.817-3.238-1.245-.534.535-1.63-1.672-.342.387-1.587-2.076-.577.383-1.587-1.016-.248.39-1.605-1.695-.472-.868-1.938.407-1.573-1.557-.427.835-3.166 9.53 2.421 22.315 5.513z" vector-effect="non-scaling-stroke" fill="inherit" stroke="inherit" stroke-width="inherit"><title>Kern County</title></path><path id="county-06083" class="county feature" d="M143.16 341.403l.785 2.055-2.456.282-1.186-2.523zm2.391-.114l4.849 2.738-2.64.064-1.886-.62zm10.198-13.425l.447.123-1.978 7.813-.926 1.651-1.136-1.079-4.649-1.02-1.65-1.462-4.216-1.306-2.705-.276-.255-1.527-1.702-1.553 1.277-2.17.513-2.448-.603-1.364.657-1.224 2.939.347 1.906 2.222-.091-1.803 2.402-.131 1.848-.995 4.277 3.84z" vector-effect="non-scaling-stroke" fill="inherit" stroke="inherit" stroke-width="inherit"><title>Santa Barbara County</title></path><path id="county-06111" class="county feature" d="M147.417 357.108l1.246 1.32-1.624-.393zm12.271-11.679l-3.517-2.822-.425-2.456-2.454-2.7.926-1.651 1.978-7.813 2.35.981.172 1.297 3.958 1.022 1.312.788 1.415 10.164-1.06 1.938-1.752-.433z" vector-effect="non-scaling-stroke" fill="inherit" stroke="inherit" stroke-width="inherit"><title>Ventura County</title></path><path id="county-06037" class="county feature" d="M160.505 365.28l2.492 4.289-1.908-.71zm1.758-8.248l3.264 2.175.169 2.114-1.881-.888-.316-2.202zm19.788-21.311l-1.936 9.899-2.41 4.586-1.102 1.204-2.862-.68-2.926 3.18-1.5-.842-1.305.962-1.679-1.095.726-1.72-.438-2.547-.946-1.654-2.875-.587-1.221.329-1.889-1.327 2.903-1.685 1.752.433 1.06-1.938-1.415-10.164-.057-.589z" vector-effect="non-scaling-stroke" fill="inherit" stroke="inherit" stroke-width="inherit"><title>Los Angeles County</title></path><path id="county-06065" class="county feature" d="M222.218 371.042l-22.116-4.38-14.337-3.145-3.156-.806-1.714-1.553-2.027-.72 2.086-2.494-1.61-1.378-1.384-3.388 2.383-2.587 4.869 1.662 4.462.998.111-.548 24.261 5.148.159-.798 13.311 2.551-.272 1.1-1.86 1.59-.259 4.339-.945 2.586z" vector-effect="non-scaling-stroke" fill="inherit" stroke="inherit" stroke-width="inherit"><title>Riverside County</title></path><path id="county-06059" class="county feature" d="M176.603 351.41l1.357 1.768 1.385 3.388 1.61 1.378-2.087 2.495-1.798 1.86-2.194-3.49-2.791-2.86-1.27-2.039 2.926-3.18z" vector-effect="non-scaling-stroke" fill="inherit" stroke="inherit" stroke-width="inherit"><title>Orange County</title></path><path id="county-06073" class="county feature" d="M200.102 366.663l-1.342 6.47-.352-.062-1.856 8.376-15.91-1.892.666-2.518-1.57-1.218-.273-2.08.665-.854-.116-4.674-1.933-4.803-1.01-1.109 1.797-1.86 2.027.719 1.714 1.553 3.156.806z" vector-effect="non-scaling-stroke" fill="inherit" stroke="inherit" stroke-width="inherit"><title>San Diego County</title></path><path id="county-06025" class="county feature" d="M222.409 378.942l.37 2.345-1.531 2.586-3.088.124-21.608-2.55 1.856-8.376.352.062 1.342-6.47 22.116 4.379-1.593.264-.498 1.896.706.759-1.117 3.266.34.981z" vector-effect="non-scaling-stroke" fill="inherit" stroke="inherit" stroke-width="inherit"><title>Imperial County</title></path></g><path id="counties-mesh" class="counties mesh" d="M162.158 191.242l-4.038 14.776-14.127-3.942.96-2.426-.972-1.211-3.949 2.095-1.129-.363-1.642 1.342.124 2.352-1.554-.656-.994-1.76-1.336-.326-1.7-2.547.109-3.652-2.403-1.004.803-.753-.38-3.242 1.24-1.625.2-2.59 2.238-.804 1.14-1.571m-5.241 10.585l-1.454-.418.444-1.526-3.912-1.165.222-5.304-1.003-1.165 1.778-3.728 5.128 1.617 4.038 1.104 3.814 1.07 12.468 3.53 11.128 3.307 7.535 2.114 11.739 3.069-3.822 14.772-17.939-4.761-1.55-.418m-26.32-7.442l-1.262 1.819.466.895-1.612 1.778-1.767-.858-.02 3.916-3.965 13.173-6.503-1.944-.623-2.199-2.547-3.866.396-3.49 3.28-4.04.553.465 3.366-5.704-.38-1.04 3.402-6.67m19.408 11.265l.577.623-3.406 4.095-3.16 3.314.098 2.294-4.845 1.557-1.598 2.11.879 1.005-.725 5.101-8.31-2.428.138-.448m47.075 18.554l-2.082-.251.779-.93.842-3.165-.917-1.676.232-1.354-1.665-1.004-1.677-3.044-3.144-2.143-2.838 1.662-1.5-1.663.938-3.458-3.632-.962 2.391-8.34 1.228-5.09m-3.619 13.43l-2.305-.636-7.053-1.592-4.325-.137-2.58-1.087-2.298.538-1.125-1.051-4.707.168m22.088 3.16l-.084 1.85 1.484 1.121-.792 1.746-1.356.838-2.174.396-1.41 1.9-2.253 1.202-3.648-.92-.52 1.552-12.184-3.496 1.003-3.242m36.82 15.427l-6.988-1.789-.504.424-2.151-2.52-2.564 2.022-1.114.477-3.214-6.24.553-2.637 1.055-1.522-.707-1.034m2.313 11.433l-1.342 1.001-2.18-.436-2.284 2.853-3.243.013-3.882-1.266.655-1.353 1.298-2.649-1.966-.5.64-2.433.915-.366-.93-2.167m-12.183-3.496l-.467 4.093-.268.938-2.52-.194-.686 1.668.197 3.424-1.502.776-.719 1.794 1.066 1.793.034 1.912 1.526 1.433-3.602-1.092-1.044.546-3.218-.883-2.457.005-1.867-3.521 1.148-1.869-.179-6.32 1.742-3.1.479-2.213.04-3.55-1.375-3.702m25.898 19.673l-3.265-1.526-.136.522-8.276-2.308 1.088-3.578-2.104-.628m39.046 13.343l-6.95-1.798-.421-1.456-1.308-.524-1.466.849-4.151.193 1.333-4.378m-1.333 4.378l-1.56-.129-2.84 2.148-.972 3.564-2.064.177-1.932-.058-.707.836 1.245-7.008m-14.904-5.93l-.871 1.11 1.052 2.212 2.33 1.507-.83 2.113 1.432 2.954-1.07.872-1.784 2.61-2.457.036-1.69-4.077m41.241 2.194l-8.844-2.298-1.275.195-4.302 2.283-1.311 1.52-3.259-1.248m-7.34-7.319l-1.142 2.116.88 2.552-.65 2.53-6.997-1.966m43.138-32.416l-6.894 26.656-1.327 5-.677 2.395-.663 2.757-.24.97-.198.83-1.939-.513-1.568.46-2.453-.71-2.694 1.49-2.263-2.46-4.498.928-2.194 3.08-4.627-1.714 1.182-3.404 1.1-1.085m-2.282 4.489l-1.64-.46-1.083-.922-.034-1.678-1.15-1.728m26.876 7.027l.014 1.338-3.448 2.267-4.174 2.015-4.544-.408-1.611-1.438-3.912-.147-.265-4.113-.402-.04m21.816 5.76l-1.003 1.639.555 2.353-2.148 2.801-1.18-2.05-2.037.59-1.603-1.93-.403-1.514.91-3.518m-21.175-6.303l-.676.93 1.279 1.877-1.025 1.435.46.969-.767 1.89-1.328.586-1.329-.414 1.057-3.814-3.373-1.09-2.382-.276-.897-6.654-1.351-.861M135.65 252l-.767 1.514.294 2.221-2.01-.57-.79 2.448-1.204.117-.12-.04-1.466-.395-.008-.048.84-.264.094-2.366-1.34-5.166-.012-2.32m.418 10.116l-1.422.491-.523-1.055-2.448-1.66-1.622-2.55-1.563-.13-.953-3.299-2.22-2.925-1.678-4.49m33.519 14.603l-1.004 3.845-5.582-.15-.892-.865-2.174 2.356-1.683-.01.869-1.652 1.474-2.162m25.934-7.79l-.298 1.238 1.031 1.563 3.474 5.234 2.72 4.068 1.871 2.822 7.975 12.017 6.598 9.923-13.454-3.18-2.97-3.112-.707-2.984-2.11-.698 1.637-2.488-1.214-1.428.026-2.705-1.533-.61-1.925-2.48.49-2.352m-5.223-4.904l-3.828-.125-1.273-.47-2.949.678-.582.957-5.644.738-.058-1.429m-18.611-2.386l.324 1.632-1.791-2.028m10.616 2.461l-2.655 1.601-1.834-.314-1.35-1.977-1.547 1.35-1.29-.892-.354-1.794m33.229 3.511l-2.491.594-6.813 6.443-2.51 1.681-2.641-5.507-.224-2.946m22.019 15.189l-.383-.85-2.618-3.088-2.12 1.262-2.374.373-1.96-.596-1.625-1.657-5.256 2.408-2.817-4.588m-24.955-13.276l.542 1.179-1.13 3.153.668 1.092-1.595.79-1.38-2.219-.667.16-1.723-3.044-1.963-.273 1.642-2.55 1.178 1.878-1.205-4.505m27.946 12.108l-1.646 6.191-.846-.671-3.353.39-4.801 2.847-.914-1.422 1.38-5.011.77-4.169.48-1.189m-1.25 5.358l-6.182.22-.78-1.785-1.276-.48-1.957-2.38-.709-1.507 2.214-1.113 1.427 1.006 2.06-.124 3.75 1.791 2.206-.972.017 1.175m30.822 13.238l-4.905 2.998-1.622 2.386-1.598-.411-5.134 3.197-1.12-1.35-1.081-3.805-.493-4.313-9.56 2.026-.06 1.1-4.72 2.76-.56-1.068-1.837.14-.164-2.642.873-.285-.085-3.38.008.011m-.008-.01l-5.547-1.584-1.82-.083-1.527-1.223.1-3.242-1.674-3.007.747-1.71m44.986 18.027l-5.183 3.223-.933 2.615-1.083.84-2.48-.51.026.935-2.645 1.03-2.36 2.42-8.31-.81-.868-1.758-.356-3.624 1.19-.708 2.94-.324 3.604.31m-30.66-18.561l-1.53-.436.207-1.354 1.602-.125-.279 1.915-.113 2.237 1.268.753 1.526 2.517-1.237.33-.206 2.785-.38 1.266-2.507-.15-.02 1.56-1.142-2.072.906-2.946-.789-3.36 1.164-3.356m24.456 19.72l-6.845 4.082-2.726-2.595-.435-2.553.705-3.24m36.463 3.056l-.705 2.15.956.56.033 3.595 2.756 2.256.327 3.452-.723 2.517-8.895-2.079-.38 1.535-4.593-1.169-.408 1.565-2.369-.616-1.948 1.2-1.596.948-4.309-.71-1.037 3.964-6.45 3.668-3.864-4.945.765-1.674-.433-1.333 1.487-.804.763-2.905-3.384-5.843m-3.16-5.148l-3.795-1.465-1.728 1.139-1.737-3.388-2.871-2.673-1.552-3.21m1.443-3.114l1.805.57m59.056 15.137l7.488 11.28 14.555 21.92 2.824 4.252-1.31.029-11.22-2.406-16.627-3.763-5.473-1.107.734-1.402-.23-8.43.548-.46-1.533-3.28.13-2.222-.696-3.06m-45.334-14.673l-.918-.146-1.367-.657-1.104.742-1.324-2.758-2.486-.271-1.867-3.504m18.883 21.62l-1.5.848-1.848-2.562-1.588.545-.003-1.243-2.047-4.133-.963-.2.435-1.96-1.77-1.97.44-.696-1.891-3.801m14.267 23.124l.873 2.539-16.366-4.496-1.226-2.168.066-1.804-.985-1.098-1.195-3.65-2.042-2.727.256-5.298 2.742-1.061 1.139-3.276m49.77 33.588l-22.315-5.513 2.364-8.715.738.204.639-2.422-1.066-1.973m-2.675 12.906l-9.53-2.42-.314-.077m66.79 15.257l11.983 18.02-.467 2.436 1.81 3.343.132 2.274.904 2.965 2.507 3.33-2.225 2.057-2.978 1.058-13.311-2.55-.159.797-24.261-5.148-.111.548-4.462-.998-4.869-1.662-2.383 2.587-1.357-1.768 1.101-1.204 2.41-4.586 1.937-9.9.522.117 4.12-17.856m-37.32-9.04l-.834 3.165 1.557.427-.407 1.573.868 1.938 1.695.472-.39 1.605 1.016.248-.383 1.587 2.076.577-.387 1.587 1.672.342-.535 1.63 1.245.534-.817 3.238-3.645-2.361-4.277-3.84-1.848.994-2.402.13.091 1.804-1.906-2.222-2.939-.347.816-3.158-1.497-.63-1.598-2.283 1.434-1.224-.395-1.982-1.57-.954-1.478-3.753-1.62-1.058-.221-2.612m49.357 31.353l-18.12-4.235.057.589-1.312-.788-3.958-1.022-.171-1.297-2.35-.981-.448-.123m-12.59 13.54l.786 2.054-2.456.282-1.186-2.523 2.857.186m2.391-.114l4.849 2.738-2.64.064-1.886-.62-.323-2.182m10.645-13.302l-1.978 7.813-.926 1.651-1.136-1.079-4.649-1.02-1.65-1.462-4.216-1.306-2.705-.276-.255-1.527-1.702-1.553 1.277-2.17.513-2.448-.603-1.364.657-1.224m8.594 35.086l1.246 1.32-1.624-.393.378-.927m16.571-25.033l1.415 10.164-1.06 1.938-1.752-.433-2.903 1.685-3.517-2.822-.425-2.456-2.454-2.7m7.213 27.828l2.492 4.29-1.908-.71-.584-3.58m1.758-8.247l3.264 2.175.169 2.114-1.881-.888-.316-2.202-1.236-1.199m14.34-5.622l-2.862-.68-2.926 3.18-1.5-.842-1.305.962-1.679-1.095.726-1.72-.438-2.547-.946-1.654-2.875-.587-1.221.329-1.889-1.327m62.53 25.613l-22.116-4.38-14.337-3.145-3.156-.806-1.714-1.553-2.027-.72 2.086-2.494-1.61-1.378-1.384-3.388m.908 7.26l-1.798 1.861-2.194-3.49-2.791-2.86-1.27-2.039m29.287 12.753l-1.342 6.47-.352-.062-1.856 8.376-15.91-1.892.666-2.518-1.57-1.218-.273-2.08.665-.854-.116-4.674-1.933-4.803-1.01-1.109m50.445-2.695l-.272 1.1-1.86 1.59-.259 4.339-.945 2.586-1.962 1.823-1.593.264-.498 1.896.706.759-1.117 3.266.34.981 2.353.734.37 2.345-1.531 2.586-3.088.124-21.608-2.55" vector-effect="non-scaling-stroke" fill="inherit" stroke="inherit" stroke-width="inherit"/></svg>