<svg xmlns="http://www.w3.org/2000/svg" version="1.2" id="root" viewBox="572.1733059162248 223.76805916941703 59.00292098699674 105.01623244810139"><g id="counties"><path id="county-17085" class="county feature" d="M584.86 226.093l6.833-.394.46 5.799-5.456.385-1.071-.565-1.276-2.83-2.568-1.68.15-.57z" vector-effect="non-scaling-stroke" fill="inherit" stroke="inherit" stroke-width="inherit"><title>Jo Daviess County</title></path><path id="county-17177" class="county feature" d="M595.314 231.239l-3.161.259-.46-5.8 1.205-.076 5.964-.302.458 5.588z" vector-effect="non-scaling-stroke" fill="inherit" stroke="inherit" stroke-width="inherit"><title>Stephenson County</title></path><path id="county-17201" class="county feature" d="M605.164 224.968l.483 6.425-3.197.273-.063-1.014-3.067.256-.458-5.588.48-.03z" vector-effect="non-scaling-stroke" fill="inherit" stroke="inherit" stroke-width="inherit"><title>Winnebago County</title></path><path id="county-17111" class="county feature" d="M615.303 224.173l.486 6.389-.531.043-4.8.397-1.6.124-.514-6.37 5.491-.454z" vector-effect="non-scaling-stroke" fill="inherit" stroke="inherit" stroke-width="inherit"><title>McHenry County</title></path><path id="county-17007" class="county feature" d="M607.4 224.856l.944-.1.514 6.37-3.211.267-.483-6.425z" vector-effect="non-scaling-stroke" fill="inherit" stroke="inherit" stroke-width="inherit"><title>Boone County</title></path><path id="county-17097" class="county feature" d="M621.82 230.087l-6.031.475-.486-6.39 5.347-.404-.095 3.588z" vector-effect="non-scaling-stroke" fill="inherit" stroke="inherit" stroke-width="inherit"><title>Lake County</title></path><path id="county-17141" class="county feature" d="M605.647 231.393l.344 4.888-5.766.486-3.724-.003-.822-.489-.365-5.036 4.006-.33 3.067-.257.063 1.014z" vector-effect="non-scaling-stroke" fill="inherit" stroke="inherit" stroke-width="inherit"><title>Ogle County</title></path><path id="county-17015" class="county feature" d="M595.314 231.239l.365 5.036-6.402.442-.143-1.935-.222-1.581-2.215-1.318 5.456-.385z" vector-effect="non-scaling-stroke" fill="inherit" stroke="inherit" stroke-width="inherit"><title>Carroll County</title></path><path id="county-17031" class="county feature" d="M615.789 230.562l6.032-.475 1.2 1.362 1.382 4.247 1.393 2.442.379 4.517-3.67.257-.188-1.657-1.594.173-.174-1.632-1.686-.643 1.53-.719-.527-5.19-4.686.538.078-3.177z" vector-effect="non-scaling-stroke" fill="inherit" stroke="inherit" stroke-width="inherit"><title>Cook County</title></path><path id="county-17037" class="county feature" d="M610.457 231.002l.458 8.154.124 1.653-4.65.412-.398-4.94-.344-4.888 3.211-.267z" vector-effect="non-scaling-stroke" fill="inherit" stroke="inherit" stroke-width="inherit"><title>DeKalb County</title></path><path id="county-17089" class="county feature" d="M615.258 230.605l-.078 3.177.415 4.904-4.68.47-.458-8.154z" vector-effect="non-scaling-stroke" fill="inherit" stroke="inherit" stroke-width="inherit"><title>Kane County</title></path><path id="county-17043" class="county feature" d="M618.863 239.153l-.088-.812-3.175.347-.005-.002-.415-4.904 4.686-.538.527 5.19z" vector-effect="non-scaling-stroke" fill="inherit" stroke="inherit" stroke-width="inherit"><title>DuPage County</title></path><path id="county-17195" class="county feature" d="M595.679 236.275l.822.49.374 5.948-3.196.227-4.475.272-1.006-3.678 1.08-2.817z" vector-effect="non-scaling-stroke" fill="inherit" stroke="inherit" stroke-width="inherit"><title>Whiteside County</title></path><path id="county-17103" class="county feature" d="M605.99 236.281l.398 4.94-3.15.224.065.82-6.428.448-.374-5.949 3.724.003z" vector-effect="non-scaling-stroke" fill="inherit" stroke="inherit" stroke-width="inherit"><title>Lee County</title></path><path id="county-17161" class="county feature" d="M589.204 243.212l-.088.84-3.173 1.764.118 2.441-8.872.37v-.004l.36-1.62 3.486-.834 1.797-.274 4.193-2.612.219-2.67.954-1.08z" vector-effect="non-scaling-stroke" fill="inherit" stroke="inherit" stroke-width="inherit"><title>Rock Island County</title></path><path id="county-17197" class="county feature" d="M618.863 239.153l1.686.643.174 1.632 1.594-.173.188 1.657 3.67-.257.267 3.158-6.745.697.167 1.624-3.224.348-.515-4.896-.525-4.898 3.175-.347z" vector-effect="non-scaling-stroke" fill="inherit" stroke="inherit" stroke-width="inherit"><title>Will County</title></path><path id="county-17093" class="county feature" d="M615.6 238.688l.525 4.898-4.741.487-.345-3.264-.124-1.653 4.68-.47z" vector-effect="non-scaling-stroke" fill="inherit" stroke="inherit" stroke-width="inherit"><title>Kendall County</title></path><path id="county-17099" class="county feature" d="M611.04 240.81l.344 3.263.641 6.543-4.792.405.24 3.344-1.616.154-.246-3.358-1.593.13-.304-3.869-.411-5.157-.064-.82 3.15-.224z" vector-effect="non-scaling-stroke" fill="inherit" stroke="inherit" stroke-width="inherit"><title>La Salle County</title></path><path id="county-17011" class="county feature" d="M603.303 242.265l.411 5.157-2.38.346-.194 1.288-1.528.094.11 1.603-2.392.161-.112-1.6-3.045.189-.494-6.563 3.196-.227z" vector-effect="non-scaling-stroke" fill="inherit" stroke="inherit" stroke-width="inherit"><title>Bureau County</title></path><path id="county-17073" class="county feature" d="M593.679 242.94l.494 6.563-.05 1.616-1.615.096-6.313.349-.134-3.307-.118-2.44 3.173-1.764.088-.841z" vector-effect="non-scaling-stroke" fill="inherit" stroke="inherit" stroke-width="inherit"><title>Henry County</title></path><path id="county-17063" class="county feature" d="M616.64 248.482l.03 1.65-4.645.484-.641-6.543 4.741-.487z" vector-effect="non-scaling-stroke" fill="inherit" stroke="inherit" stroke-width="inherit"><title>Grundy County</title></path><path id="county-17131" class="county feature" d="M586.06 248.257l.135 3.307.076 1.642-4.83.184-2.284.088-.002-.04-.653-1.53-1.796-1.494.483-1.787z" vector-effect="non-scaling-stroke" fill="inherit" stroke="inherit" stroke-width="inherit"><title>Mercer County</title></path><path id="county-17155" class="county feature" d="M603.714 247.422l.304 3.868-2.738.202-1.557-.74-.11-1.602 1.527-.094.195-1.288z" vector-effect="non-scaling-stroke" fill="inherit" stroke="inherit" stroke-width="inherit"><title>Putnam County</title></path><path id="county-17091" class="county feature" d="M626.442 245.813l.222 2.478.27 2.919-8.416.963-1.6.19-.248-2.232-.03-1.65 3.224-.347-.167-1.624z" vector-effect="non-scaling-stroke" fill="inherit" stroke="inherit" stroke-width="inherit"><title>Kankakee County</title></path><path id="county-17175" class="county feature" d="M594.173 249.503l3.045-.19.112 1.601.215 3.286-4.839.298-.198-3.283 1.614-.096z" vector-effect="non-scaling-stroke" fill="inherit" stroke="inherit" stroke-width="inherit"><title>Stark County</title></path><path id="county-17095" class="county feature" d="M592.508 251.215l.198 3.283.303 4.933-6.424.347-.314-6.572-.076-1.642z" vector-effect="non-scaling-stroke" fill="inherit" stroke="inherit" stroke-width="inherit"><title>Knox County</title></path><path id="county-17123" class="county feature" d="M599.723 250.753l1.557.739 2.738-.202 1.593-.129.246 3.358-5.92.51.273-1-2.665.171-.215-3.286z" vector-effect="non-scaling-stroke" fill="inherit" stroke="inherit" stroke-width="inherit"><title>Marshall County</title></path><path id="county-17105" class="county feature" d="M616.67 250.131l.248 2.232.748 7.055-3.14.268-1.614.144-.343-2.64-4.823.45-.274-3.275-.239-3.344 4.792-.405z" vector-effect="non-scaling-stroke" fill="inherit" stroke="inherit" stroke-width="inherit"><title>Livingston County</title></path><path id="county-17071" class="county feature" d="M581.441 253.39l.387 8.145-1.61.024-3.941.23.965-1.153.188-2.429 1.687-1.997.04-2.732z" vector-effect="non-scaling-stroke" fill="inherit" stroke="inherit" stroke-width="inherit"><title>Henderson County</title></path><path id="county-17187" class="county feature" d="M586.27 253.206l.315 6.572.08 1.632-4.837.125-.387-8.145z" vector-effect="non-scaling-stroke" fill="inherit" stroke="inherit" stroke-width="inherit"><title>Warren County</title></path><path id="county-17075" class="county feature" d="M626.935 251.21l.458 5.129.402 4.61-5.725.6-2.562.175-.99-9.551z" vector-effect="non-scaling-stroke" fill="inherit" stroke="inherit" stroke-width="inherit"><title>Iroquois County</title></path><path id="county-17053" class="county feature" d="M622.07 261.55l.178 1.618-7.412.623-.31-4.105 3.14-.268-.748-7.055 1.6-.19.99 9.55z" vector-effect="non-scaling-stroke" fill="inherit" stroke="inherit" stroke-width="inherit"><title>Ford County</title></path><path id="county-17143" class="county feature" d="M597.545 254.2l2.665-.172-.274 1-.936 3.342-1.544 3.79-2.612.912-.15-2.078-1.623.064-.062-1.627-.303-4.933z" vector-effect="non-scaling-stroke" fill="inherit" stroke="inherit" stroke-width="inherit"><title>Peoria County</title></path><path id="county-17203" class="county feature" d="M607.746 257.64l-.65 1.716-1.994 1.435-1.899.183-.843-.34-.221-2.495-3.139.23.936-3.34 5.92-.51 1.616-.154z" vector-effect="non-scaling-stroke" fill="inherit" stroke="inherit" stroke-width="inherit"><title>Woodford County</title></path><path id="county-17113" class="county feature" d="M614.525 259.686l.311 4.105.185 2.2-1.626.13-8.077.6-1.675-.696-.44-5.05 1.9-.184 1.993-1.435.65-1.716 4.823-.45.343 2.64z" vector-effect="non-scaling-stroke" fill="inherit" stroke="inherit" stroke-width="inherit"><title>McLean County</title></path><path id="county-17179" class="county feature" d="M603.203 260.974l.44 5.05-4.774.427-1.57.123-.175-2.18-2.928.177.648-1.499 2.612-.912 1.544-3.79 3.139-.231.22 2.495z" vector-effect="non-scaling-stroke" fill="inherit" stroke="inherit" stroke-width="inherit"><title>Tazewell County</title></path><path id="county-17057" class="county feature" d="M593.009 259.431l.062 1.627 1.624-.064.149 2.078-.648 1.499-1.583 1.345-.28 1.443-1.709 2.193-3.562.12-.076-1.647-.32-6.615-.081-1.632z" vector-effect="non-scaling-stroke" fill="inherit" stroke="inherit" stroke-width="inherit"><title>Fulton County</title></path><path id="county-17067" class="county feature" d="M580.218 261.559l.283 6.678.056 1.718-8.384.284.074-.913.981-2.49.743-.462-.719-2.815.686-1.064 2.339-.705z" vector-effect="non-scaling-stroke" fill="inherit" stroke="inherit" stroke-width="inherit"><title>Hancock County</title></path><path id="county-17109" class="county feature" d="M586.665 261.41l.321 6.615-6.485.212-.283-6.678 1.61-.024z" vector-effect="non-scaling-stroke" fill="inherit" stroke="inherit" stroke-width="inherit"><title>McDonough County</title></path><path id="county-17183" class="county feature" d="M627.795 260.95l.024.264.486 6.183.42 4.978-5.723.557-.754-9.764-.178-1.619z" vector-effect="non-scaling-stroke" fill="inherit" stroke="inherit" stroke-width="inherit"><title>Vermilion County</title></path><path id="county-17125" class="county feature" d="M598.869 266.45l.27 3.716-5.133-.055-.4.683-1.923.994-2.129.258-1.057-1.239 2.127-1.255 1.709-2.193.28-1.443 1.583-1.345 2.928-.177.174 2.18z" vector-effect="non-scaling-stroke" fill="inherit" stroke="inherit" stroke-width="inherit"><title>Mason County</title></path><path id="county-17019" class="county feature" d="M622.248 263.168l.754 9.764-7.42.625-.56-7.565-.186-2.2z" vector-effect="non-scaling-stroke" fill="inherit" stroke="inherit" stroke-width="inherit"><title>Champaign County</title></path><path id="county-17107" class="county feature" d="M605.318 266.72l.367 4.38.198 2.459-1.05.093-3.782-.04-1.396-.718-.515-2.728-.271-3.715 4.774-.426z" vector-effect="non-scaling-stroke" fill="inherit" stroke="inherit" stroke-width="inherit"><title>Logan County</title></path><path id="county-17039" class="county feature" d="M613.395 266.121l-2.07 4.438-5.64.54-.367-4.378z" vector-effect="non-scaling-stroke" fill="inherit" stroke="inherit" stroke-width="inherit"><title>De Witt County</title></path><path id="county-17169" class="county feature" d="M586.986 268.025l.076 1.647 3.562-.12-2.127 1.255-2.093 2.696-1.325.185-1.372-2.217-3.08.154-.07-1.67-.056-1.718z" vector-effect="non-scaling-stroke" fill="inherit" stroke="inherit" stroke-width="inherit"><title>Schuyler County</title></path><path id="county-17147" class="county feature" d="M615.021 265.992l.561 7.565-.027 1.652-3.862.296-.368-4.946 2.07-4.438z" vector-effect="non-scaling-stroke" fill="inherit" stroke="inherit" stroke-width="inherit"><title>Piatt County</title></path><path id="county-17001" class="county feature" d="M580.557 269.955l.07 1.67.22 4.884.094 1.654-6.39.298-1.061-1.551-.097-1.913-.922-1.695-.298-3.063z" vector-effect="non-scaling-stroke" fill="inherit" stroke="inherit" stroke-width="inherit"><title>Adams County</title></path><path id="county-17129" class="county feature" d="M599.14 270.166l.515 2.728-1.695.128.022 1.104-4.125.546-.25-3.878.399-.683z" vector-effect="non-scaling-stroke" fill="inherit" stroke="inherit" stroke-width="inherit"><title>Menard County</title></path><path id="county-17017" class="county feature" d="M588.497 270.807l1.057 1.24 2.129-.259 1.923-.994.25 3.878.036.55-8.354.43.866-2.149z" vector-effect="non-scaling-stroke" fill="inherit" stroke="inherit" stroke-width="inherit"><title>Cass County</title></path><path id="county-17009" class="county feature" d="M586.404 273.503l-.866 2.15.203.693-4.894.163-.22-4.884 3.08-.154 1.372 2.217z" vector-effect="non-scaling-stroke" fill="inherit" stroke="inherit" stroke-width="inherit"><title>Brown County</title></path><path id="county-17115" class="county feature" d="M611.325 270.56l.368 4.945-.723 2.682-3.05.208-1.614.097-.238-2.733-1.093-.194-.142-1.913 1.05-.093-.198-2.46z" vector-effect="non-scaling-stroke" fill="inherit" stroke="inherit" stroke-width="inherit"><title>Macon County</title></path><path id="county-17167" class="county feature" d="M604.833 273.652l.142 1.913-2.44 1.548-1.836 2.039.17 2.19-2.39.185-3.199.232-1.072-3.633-.316-2.903-.035-.55 4.125-.547-.022-1.104 1.695-.128 1.396.718z" vector-effect="non-scaling-stroke" fill="inherit" stroke="inherit" stroke-width="inherit"><title>Sangamon County</title></path><path id="county-17045" class="county feature" d="M629.202 277.548l.223 2.444-6.108.453-.408-3.838.093-3.675 5.722-.557z" vector-effect="non-scaling-stroke" fill="inherit" stroke="inherit" stroke-width="inherit"><title>Edgar County</title></path><path id="county-17041" class="county feature" d="M623.002 272.932l-.093 3.675-1.327.744-5.798.492-.23-2.634.028-1.652z" vector-effect="non-scaling-stroke" fill="inherit" stroke="inherit" stroke-width="inherit"><title>Douglas County</title></path><path id="county-17137" class="county feature" d="M593.892 275.223l.316 2.903 1.072 3.633-3.239.237-2.106.13-.116-2.189-1.065-.5-.071-1.638-3.276-.504.334-.949-.203-.694z" vector-effect="non-scaling-stroke" fill="inherit" stroke="inherit" stroke-width="inherit"><title>Morgan County</title></path><path id="county-17149" class="county feature" d="M585.741 276.346l-.334.95-.57 1.782 1.118 3.252-.33 2.397-4.621.18-1.337-.712-2.296-2.844-1.889-1.525-.931-1.365 6.39-.298-.094-1.654z" vector-effect="non-scaling-stroke" fill="inherit" stroke="inherit" stroke-width="inherit"><title>Pike County</title></path><path id="county-17021" class="county feature" d="M604.975 275.565l1.093.194.238 2.733 1.613-.097.426 5.791-1.632.067-5.583.389-.261-3.3-.17-2.19 1.837-2.039z" vector-effect="non-scaling-stroke" fill="inherit" stroke="inherit" stroke-width="inherit"><title>Christian County</title></path><path id="county-17139" class="county feature" d="M615.555 275.21l.23 2.633.33 3.84-1.621.12-2.097-2.33-1.298.082-.13-1.368.724-2.682z" vector-effect="non-scaling-stroke" fill="inherit" stroke="inherit" stroke-width="inherit"><title>Moultrie County</title></path><path id="county-17171" class="county feature" d="M589.935 282.126l-3.98.204-1.117-3.252.569-1.783 3.276.504.071 1.638 1.065.5z" vector-effect="non-scaling-stroke" fill="inherit" stroke="inherit" stroke-width="inherit"><title>Scott County</title></path><path id="county-17029" class="county feature" d="M622.91 276.607l.407 3.838-.569 1.983-6.53.62-.103-1.364-.33-3.84 5.797-.493z" vector-effect="non-scaling-stroke" fill="inherit" stroke="inherit" stroke-width="inherit"><title>Coles County</title></path><path id="county-17173" class="county feature" d="M610.97 278.187l.13 1.368 1.297-.081 2.097 2.329 1.62-.12.104 1.364.238 2.997-4.792.35-4.778.322-.173-2.463 1.632-.067-.426-5.791z" vector-effect="non-scaling-stroke" fill="inherit" stroke="inherit" stroke-width="inherit"><title>Shelby County</title></path><path id="county-17135" class="county feature" d="M600.869 281.342l.26 3.3 5.584-.389.173 2.463-1.575.121.253 3.561-4.81.332-.74.599-.84.059-.695-9.86z" vector-effect="non-scaling-stroke" fill="inherit" stroke="inherit" stroke-width="inherit"><title>Montgomery County</title></path><path id="county-17117" class="county feature" d="M598.479 281.527l.695 9.861-6.422.391-.33-4.927-.38-4.856 3.238-.237z" vector-effect="non-scaling-stroke" fill="inherit" stroke="inherit" stroke-width="inherit"><title>Macoupin County</title></path><path id="county-17061" class="county feature" d="M589.935 282.126l2.106-.13.382 4.856-2.334.839.062.955-3.834.024-.252 1.286-.44-5.229.33-2.397z" vector-effect="non-scaling-stroke" fill="inherit" stroke="inherit" stroke-width="inherit"><title>Greene County</title></path><path id="county-17023" class="county feature" d="M629.425 279.992l.217 2.425-.886 1.754-.184 1.947-4.618.07-.825.088-.38-3.848.568-1.983z" vector-effect="non-scaling-stroke" fill="inherit" stroke="inherit" stroke-width="inherit"><title>Clark County</title></path><path id="county-17013" class="county feature" d="M585.624 284.727l.441 5.23.675 2.42 1.66.281-1.283 1.866-1.753-1.065-1.113-5.413-.743-1.343-2.504-1.796z" vector-effect="non-scaling-stroke" fill="inherit" stroke="inherit" stroke-width="inherit"><title>Calhoun County</title></path><path id="county-17035" class="county feature" d="M622.748 282.428l.381 3.848-5.033.467-1.64-.699-.238-2.997z" vector-effect="non-scaling-stroke" fill="inherit" stroke="inherit" stroke-width="inherit"><title>Cumberland County</title></path><path id="county-17083" class="county feature" d="M592.423 286.852l.33 4.927-1.828.125.055 1.43-2.58-.676-1.66-.28-.675-2.422.252-1.286 3.834-.024-.062-.955z" vector-effect="non-scaling-stroke" fill="inherit" stroke="inherit" stroke-width="inherit"><title>Jersey County</title></path><path id="county-17051" class="county feature" d="M606.886 286.716l4.778-.322.424 5.727 1.613-.18.107 1.662-6.355.53.113 1.638-1.676.012-.326-5.385-.253-3.56z" vector-effect="non-scaling-stroke" fill="inherit" stroke="inherit" stroke-width="inherit"><title>Fayette County</title></path><path id="county-17049" class="county feature" d="M616.456 286.044l1.64.7.379 4.893-4.774.304-1.613.18-.424-5.727z" vector-effect="non-scaling-stroke" fill="inherit" stroke="inherit" stroke-width="inherit"><title>Effingham County</title></path><path id="county-17033" class="county feature" d="M628.572 286.118l1.946 4.654-.034.95-5.404.516-.552.047-.574-6.097z" vector-effect="non-scaling-stroke" fill="inherit" stroke="inherit" stroke-width="inherit"><title>Crawford County</title></path><path id="county-17079" class="county feature" d="M623.954 286.188l.574 6.097-4.478.423-1.486.035-.089-1.106-.379-4.894 5.033-.467z" vector-effect="non-scaling-stroke" fill="inherit" stroke="inherit" stroke-width="inherit"><title>Jasper County</title></path><path id="county-17005" class="county feature" d="M605.564 290.398l.326 5.385-4.94.32-.937-4.774.74-.599z" vector-effect="non-scaling-stroke" fill="inherit" stroke="inherit" stroke-width="inherit"><title>Bond County</title></path><path id="county-17119" class="county feature" d="M592.752 291.779l6.422-.391.84-.059.937 4.774.142 1.641-1.608.121-6.846.333.088-2.12.659-.667-.018-.873-2.388-1.204-.055-1.43z" vector-effect="non-scaling-stroke" fill="inherit" stroke="inherit" stroke-width="inherit"><title>Madison County</title></path><path id="county-17025" class="county feature" d="M618.475 291.637l.09 1.106 1.485-.035-.232 4.043.742.607-6.475.385-.277-4.14-.107-1.662z" vector-effect="non-scaling-stroke" fill="inherit" stroke="inherit" stroke-width="inherit"><title>Clay County</title></path><path id="county-17101" class="county feature" d="M629.224 297.216l-3.758.289-.386-5.267 5.404-.516.692 2.05z" vector-effect="non-scaling-stroke" fill="inherit" stroke="inherit" stroke-width="inherit"><title>Lawrence County</title></path><path id="county-17159" class="county feature" d="M624.528 292.285l.552-.047.386 5.267-.615.049-2.776.254-1.515-.45-.742-.607.232-4.043z" vector-effect="non-scaling-stroke" fill="inherit" stroke="inherit" stroke-width="inherit"><title>Richland County</title></path><path id="county-17121" class="county feature" d="M613.808 293.603l.277 4.14.18 2.471-6.43.498-.03-.548-.239-4.393-.113-1.637z" vector-effect="non-scaling-stroke" fill="inherit" stroke="inherit" stroke-width="inherit"><title>Marion County</title></path><path id="county-17027" class="county feature" d="M605.89 295.783l1.676-.012.24 4.393-3.046.003-1.807.986-1.917.07-1.225 1.094-.326-4.452 1.608-.12-.142-1.642z" vector-effect="non-scaling-stroke" fill="inherit" stroke="inherit" stroke-width="inherit"><title>Clinton County</title></path><path id="county-17163" class="county feature" d="M599.485 297.865l.326 4.452.27 3.746-2.838.158-.313-1.625-1.785.093-3.575-3.82.12-.18.95-2.49z" vector-effect="non-scaling-stroke" fill="inherit" stroke="inherit" stroke-width="inherit"><title>Saint Clair County</title></path><path id="county-17191" class="county feature" d="M620.56 297.358l1.515.45.44 5.886-3.178.274-4.803.353-.269-4.107-.18-2.47z" vector-effect="non-scaling-stroke" fill="inherit" stroke="inherit" stroke-width="inherit"><title>Wayne County</title></path><path id="county-17047" class="county feature" d="M624.85 297.554l.36 2.01-.389 3.87-2.305.26-.44-5.886z" vector-effect="non-scaling-stroke" fill="inherit" stroke="inherit" stroke-width="inherit"><title>Edwards County</title></path><path id="county-17185" class="county feature" d="M624.85 297.554l.616-.05 3.758-.288.177 1.004-1.51 1.103.26.897-2.17 2.957-1.113.31-.047-.053.388-3.87z" vector-effect="non-scaling-stroke" fill="inherit" stroke="inherit" stroke-width="inherit"><title>Wabash County</title></path><path id="county-17133" class="county feature" d="M597.243 306.22l-1.996.093.103 1.637-2.426 1.046-.707-.704-1.693-1.82.1-2.982.946-2.622 3.575 3.821 1.785-.093z" vector-effect="non-scaling-stroke" fill="inherit" stroke="inherit" stroke-width="inherit"><title>Monroe County</title></path><path id="county-17189" class="county feature" d="M607.806 300.164l.029.548.313 4.914-6.465.33-1.602.107-.27-3.746 1.225-1.094 1.917-.07 1.807-.986z" vector-effect="non-scaling-stroke" fill="inherit" stroke="inherit" stroke-width="inherit"><title>Washington County</title></path><path id="county-17081" class="county feature" d="M614.265 300.214l.27 4.107.153 2.475-6.165.469-.375-1.639-.313-4.914z" vector-effect="non-scaling-stroke" fill="inherit" stroke="inherit" stroke-width="inherit"><title>Jefferson County</title></path><path id="county-17193" class="county feature" d="M624.821 303.434l.047.053.093.49 1.179 1.177-2.2 5.332-4.135.008-.468-6.526 3.179-.274z" vector-effect="non-scaling-stroke" fill="inherit" stroke="inherit" stroke-width="inherit"><title>White County</title></path><path id="county-17065" class="county feature" d="M619.337 303.968l.468 6.526v.015l-4.827.396-.29-4.11-.154-2.474z" vector-effect="non-scaling-stroke" fill="inherit" stroke="inherit" stroke-width="inherit"><title>Hamilton County</title></path><path id="county-17157" class="county feature" d="M597.243 306.22l2.838-.157 1.602-.107.304 4.969-.963 2.94-2.6-1.761-1.333.66-.968-1.605-3.199-2.163 2.426-1.046-.103-1.637z" vector-effect="non-scaling-stroke" fill="inherit" stroke="inherit" stroke-width="inherit"><title>Randolph County</title></path><path id="county-17145" class="county feature" d="M601.683 305.956l6.465-.33.375 1.639-.457 3.33-6.079.33z" vector-effect="non-scaling-stroke" fill="inherit" stroke="inherit" stroke-width="inherit"><title>Perry County</title></path><path id="county-17055" class="county feature" d="M614.688 306.796l.29 4.11.057.816-6.468.508-.5-1.634.456-3.331z" vector-effect="non-scaling-stroke" fill="inherit" stroke="inherit" stroke-width="inherit"><title>Franklin County</title></path><path id="county-17077" class="county feature" d="M608.066 310.596l.501 1.634.319 4.921-4.338.315-1.003.596-.004-2.143-2.367-1.222-.15-.831.963-2.941z" vector-effect="non-scaling-stroke" fill="inherit" stroke="inherit" stroke-width="inherit"><title>Jackson County</title></path><path id="county-17059" class="county feature" d="M623.94 310.486l1.074 1.646-1.697 2.71.516 1.646-3.572-.187-.455-5.792-.001-.015z" vector-effect="non-scaling-stroke" fill="inherit" stroke="inherit" stroke-width="inherit"><title>Gallatin County</title></path><path id="county-17165" class="county feature" d="M619.806 310.51l.455 5.79-.54.037-4.33.352-.356-4.967-.057-.817z" vector-effect="non-scaling-stroke" fill="inherit" stroke="inherit" stroke-width="inherit"><title>Saline County</title></path><path id="county-17199" class="county feature" d="M615.035 311.722l.356 4.967-4.858.417-1.647.045-.319-4.92z" vector-effect="non-scaling-stroke" fill="inherit" stroke="inherit" stroke-width="inherit"><title>Williamson County</title></path><path id="county-17069" class="county feature" d="M620.26 316.3l3.573.188 1.163 1.21-.28.63-2.821.609-1.087 1.009-.864-.288-.224-3.32z" vector-effect="non-scaling-stroke" fill="inherit" stroke="inherit" stroke-width="inherit"><title>Hardin County</title></path><path id="county-17151" class="county feature" d="M619.72 316.337l.224 3.321-.835.744-.327 2.42 1.43 1.976-.843 1.63-.136-1.718-3.49-3.088-.352-4.933z" vector-effect="non-scaling-stroke" fill="inherit" stroke="inherit" stroke-width="inherit"><title>Pope County</title></path><path id="county-17087" class="county feature" d="M615.39 316.689l.353 4.933-2.876.245-.28.645-1.734-.387-.32-5.02z" vector-effect="non-scaling-stroke" fill="inherit" stroke="inherit" stroke-width="inherit"><title>Johnson County</title></path><path id="county-17181" class="county feature" d="M608.886 317.151l1.647-.045.32 5.019-2.997.117-3.46.232.818-1.26-1.662-3.04-.007-.112 1.003-.596z" vector-effect="non-scaling-stroke" fill="inherit" stroke="inherit" stroke-width="inherit"><title>Union County</title></path><path id="county-17127" class="county feature" d="M619.37 326.428l-1.133-.144-5.528-2.341-.122-1.431.28-.645 2.876-.245 3.49 3.088z" vector-effect="non-scaling-stroke" fill="inherit" stroke="inherit" stroke-width="inherit"><title>Massac County</title></path><path id="county-17003" class="county feature" d="M607.856 322.242l.047 4.242 1.504.755.605 1.545-1.947-1.441-.747 1.074-.974-.48-1.902-3.874-.046-1.59z" vector-effect="non-scaling-stroke" fill="inherit" stroke="inherit" stroke-width="inherit"><title>Alexander County</title></path><path id="county-17153" class="county feature" d="M610.853 322.125l1.734.387.122 1.43-.072.034-2.162 1.378-1.068 1.885-1.504-.755-.047-4.242z" vector-effect="non-scaling-stroke" fill="inherit" stroke="inherit" stroke-width="inherit"><title>Pulaski County</title></path></g><path id="counties-mesh" class="counties mesh" d="M598.862 225.32l.458 5.588-4.006.33-3.161.26m13.01-6.53l.484 6.425-3.197.273-.063-1.014-3.067.256m15.983-6.735l.486 6.389-.531.043-4.8.397-1.6.124-.514-6.37m-16.651.943l.46 5.799-5.456.385-1.071-.565-1.276-2.83-2.568-1.68.15-.57 2.928-.145 6.833-.394 1.205-.077 5.964-.302.48-.03 5.822-.322 2.237-.112.943-.1 5.491-.454 1.468-.13 5.347-.404-.095 3.588 1.266 2.73-6.032.476m-20.11 5.713l-6.402.442-.143-1.935-.222-1.581-2.215-1.318m22.161-.757l-3.211.267.344 4.888-5.766.486-3.724-.003-.822-.489-.365-5.036m26.507-1.152l1.2 1.362 1.382 4.247 1.393 2.442.379 4.517-3.67.257-.188-1.657-1.594.173-.174-1.632-1.686-.643 1.53-.719-.527-5.19-4.686.538.078-3.177m-4.8.397l.457 8.154.124 1.653-4.65.412-.398-4.94m9.19-2.5l.414 4.905-4.68.47m-21.711 4.056l-.088.84-3.173 1.764.118 2.441-8.872.37v-.004l.36-1.62 3.486-.834 1.797-.274 4.193-2.612.219-2.67.954-1.08 1.08-2.816m29.585 2.436l-.088-.812-3.175.347-.005-.002m-19.094-1.922l.374 5.95-3.196.226-4.475.272-1.006-3.678m18.19 1.687l-3.15.224.065.82-6.428.448m29.3-.058l.267 3.158-6.745.697.167 1.624-3.224.348-.515-4.896-.525-4.898m.525 4.898l-4.741.487-.345-3.264m.345 3.264l.641 6.543-4.792.405.24 3.344-1.616.154-.246-3.358-1.593.13-.304-3.869-.411-5.157m.411 5.157l-2.38.346-.194 1.288-1.528.094.11 1.603-2.392.161-.112-1.6-3.045.189-.494-6.563m.494 6.563l-.05 1.616-1.615.096-6.313.349-.134-3.307m30.58.225l.029 1.65-4.645.484m-25.83.948l.076 1.642-4.83.184-2.284.088-.002-.04-.653-1.53-1.796-1.494.483-1.787m26.829 2.663l-2.738.202-1.557-.74m26.72-4.94l.22 2.479.272 2.919-8.417.963-1.6.19-.248-2.232m-19.34.783l.215 3.286-4.839.298-.198-3.283m.198 3.283l.303 4.933-6.424.347-.314-6.572m19.586 1.313l-5.92.51.273-1-2.665.171m19.373-1.837l.748 7.055-3.14.268-1.614.144-.343-2.64-4.823.45-.274-3.275m-26.03-.975l.386 8.145-1.61.024-3.941.23.965-1.153.188-2.429 1.687-1.997.04-2.732m7.428 6.3l.08 1.632-4.837.125m45.107-10.325l.458 5.129.402 4.61-5.725.6-2.562.175-.99-9.551m3.552 9.376l.178 1.62-7.412.622-.31-4.105m-14.59-4.658L599 258.37l-1.544 3.79-2.612.912-.15-2.078-1.623.064-.062-1.627m14.737-1.79l-.65 1.715-1.994 1.435-1.899.183-.843-.34-.221-2.495-3.139.23m-18.782 3.19l.283 6.678.056 1.718-8.384.284.074-.913.981-2.49.743-.462-.719-2.815.686-1.064 2.339-.705m38.56 2.001l.184 2.2-1.626.13-8.077.6-1.675-.696-.44-5.05m.44 5.05l-4.774.426-1.57.123-.175-2.18-2.928.177.648-1.499m-.648 1.499l-1.583 1.345-.28 1.443-1.709 2.193-3.562.12-.076-1.647-.32-6.615m.32 6.615l-6.485.212m47.294-7.288l.024.265.486 6.183.42 4.978-5.723.557-.754-9.764m-23.379 3.283l.27 3.715-5.133-.055-.4.683-1.923.994-2.129.258-1.057-1.239 2.127-1.255m38.1 2.823l.478 5.173.223 2.444-6.108.453-.408-3.838.093-3.675-7.42.625-.56-7.565m-9.704.729l.367 4.379.198 2.459-1.05.093-3.782-.04-1.396-.718-.515-2.728m14.255-4.045l-2.07 4.438-5.64.54m-17.188-.292l-2.093 2.696-1.325.185-1.372-2.217-3.08.154-.07-1.67m35.025 3.602l-.027 1.652-3.862.296-.368-4.946m-30.699 1.066l.221 4.884.094 1.654-6.39.298-1.061-1.551-.097-1.913-.922-1.695-.298-3.063m27.482 2.655l-1.695.128.022 1.104-4.125.546-.25-3.878m.25 3.878l.035.55-8.354.43.866-2.149m-.866 2.15l.203.693-4.894.163m30.846-1.004l-.723 2.682-3.05.208-1.614.097-.238-2.733-1.093-.194-.142-1.913m.142 1.913l-2.44 1.548-1.836 2.039.17 2.19-2.39.185-3.199.232-1.072-3.633-.316-2.903m-8.485 2.072l-.57 1.783 1.118 3.252-.33 2.397-4.621.18-1.337-.712-2.296-2.844-1.889-1.525-.931-1.365m48.358-1.854l-1.327.744-5.798.492-.23-2.634m-20.274 6.55l-3.239.237-2.106.13-.116-2.189-1.065-.5-.071-1.638-3.276-.504.334-.949m22.178 2.049l.426 5.791-1.632.067-5.583.389-.261-3.3m14.915-3.499l.33 3.84-1.62.12-2.097-2.33-1.298.082-.13-1.368m-21.034 3.94l-3.98.203m37.362-1.885l-.569 1.983-6.53.62-.103-1.364m.103 1.363l.238 2.997-4.792.35-4.778.322-.173-2.463m-20.648 5.703l.675 2.422 1.66.28-1.283 1.866-1.753-1.065-1.113-5.413-.743-1.343-2.504-1.796m25.882 1.81l-1.575.12.253 3.561-4.81.332-.74.599-.84.059-.695-9.86m.695 9.86l-6.422.391-.33-4.927-.38-4.856m.38 4.856l-2.333.839.062.955-3.834.024-.252 1.286-.44-5.229m43.8-4.735l.217 2.425-.886 1.754-.184 1.947-4.618.07-.825.088-.38-3.848m.38 3.848l-5.033.467-1.64-.699m-23.704 5.735l-1.827.125.055 1.43-2.58-.676m23.264-6.264l.424 5.727 1.613-.18.107 1.662-6.355.53.113 1.638-1.676.012-.326-5.385m12.532-3.655l.379 4.894-4.774.304m14.87-5.823l1.947 4.654-.034.95-5.404.516-.552.047-.574-6.097m.574 6.097l-4.478.423-1.486.035-.089-1.106m-12.585 4.146l-4.94.32-.937-4.774m.938 4.774l.142 1.641-1.608.121-6.846.333.088-2.12.659-.667-.018-.873-2.388-1.204m29.07-.626l-.232 4.043.742.607-6.475.385-.277-4.14m15.416 3.613l-3.758.289-.386-5.267m.386 5.267l-.615.049-2.776.254-1.515-.45m-6.475.385l.18 2.471-6.43.498-.03-.548-.239-4.393m-10.323 10.45l-1.996.092.103 1.637-2.426 1.046-.707-.704-1.693-1.82.1-2.982.946-2.622.12-.178.95-2.492m15.166 1.966l-3.046.003-1.807.986-1.917.07-1.225 1.094-.326-4.452m.326 4.452l.27 3.746-2.838.158-.313-1.625-1.785.093-3.575-3.82m30.505-3.061l.44 5.886-3.178.274-4.803.353-.269-4.107m10.586-2.66l.358 2.01-.388 3.87-2.305.26m7.968-11.972l.692 2.05-1.952 3.444.177 1.004-1.51 1.103.26.897-2.17 2.957-1.113.31-.047-.053m-16.986-2.722l.313 4.914-6.465.33-1.602.107m14.453-1.742l.154 2.475-6.165.469-.375-1.639m16.72-2.139l.093.49 1.179 1.177-2.2 5.332-4.135.008-.468-6.526m.468 6.526v.015l-4.827.396-.29-4.11m-13.005-.839l.304 4.969-.963 2.94-2.6-1.761-1.333.66-.968-1.605-3.199-2.163m15.6-1.731l-.458 3.33-6.079.33m12.99-.02l.058.817-6.468.508-.5-1.634m.5 1.634l.319 4.921-4.338.315-1.003.596-.004-2.143-2.367-1.222-.15-.831m22.916-3.38l1.074 1.646-1.697 2.71.516 1.646-3.572-.187-.455-5.792m.455 5.792l-.54.036-4.33.352-.356-4.967m-7.179 10.52l.047 4.242 1.504.755.605 1.545-1.947-1.441-.747 1.074-.974-.48-1.902-3.874-.046-1.59.818-1.259-1.662-3.04-.007-.112m16.399 1.596l-.835.744-.327 2.42 1.43 1.976-.843 1.63-.136-1.718-3.49-3.088-.352-4.933-4.858.417-1.647.045m14.947-.663l1.163 1.21-.28.63-2.821.609-1.087 1.009-.864-.288-.224-3.32m-3.977 5.284l-2.876.245-.28.645-1.734-.387-.32-5.02m.32 5.02l-2.997.117-3.46.232m14.973 3.954l-1.132-.144-5.528-2.341-.122-1.431m.122 1.43l-.072.034-2.162 1.378-1.068 1.885" vector-effect="non-scaling-stroke" fill="inherit" stroke="inherit" stroke-width="inherit"/></svg>