<svg xmlns="http://www.w3.org/2000/svg" version="1.2" id="root" viewBox="742.632609726813 250.28665511635404 67.01158201989881 33.49566117020572"><g id="counties"><path id="county-24043" class="county feature" d="M761.903 256.839l8.813-1.67-1.045 2.127-.429 5.76-.565.186-2.122-2.907-1.047-.909.466-1.147-2.624.25-2.482-1.007-.93 1.601-1.017-.09-.421-1.553z" vector-effect="non-scaling-stroke" fill="inherit" stroke="inherit" stroke-width="inherit"><title>Washington County</title></path><path id="county-24001" class="county feature" d="M757.971 257.573l.529-.093.421 1.552-1.34.568-.123 2.017-2.712.15-2.195-1.013-1.819 3.594-1.566-.509 1.1-4.848 1.718-.314z" vector-effect="non-scaling-stroke" fill="inherit" stroke="inherit" stroke-width="inherit"><title>Allegany County</title></path><path id="county-24023" class="county feature" d="M750.265 258.99l-1.1 4.85-2.362 3.337-2.638 2.798-1.532-9.588 1.175-.216z" vector-effect="non-scaling-stroke" fill="inherit" stroke="inherit" stroke-width="inherit"><title>Garrett County</title></path><path id="county-24015" class="county feature" d="M794.133 250.287l1.677 6.285-.918.27-2.963.33.327-3.327-1.422.595-2.887-2.816 1.36-.284z" vector-effect="non-scaling-stroke" fill="inherit" stroke="inherit" stroke-width="inherit"><title>Cecil County</title></path><path id="county-24025" class="county feature" d="M787.852 251.644l.095-.02 2.887 2.816.053 2.074-1.838 1.7.024-1.95-1.614 1.771-1.374-1.712-1.648-.576-1.174-3.14z" vector-effect="non-scaling-stroke" fill="inherit" stroke="inherit" stroke-width="inherit"><title>Harford County</title></path><path id="county-24005" class="county feature" d="M783.263 252.607l1.174 3.14 1.648.576 1.374 1.712.562.95-.754 2.698-1.607-.326-.501-2.413-2.545.52.369 1.74 1.441.475-1.022.67-3.1-1.994-.49-1.712.42-5.404z" vector-effect="non-scaling-stroke" fill="inherit" stroke="inherit" stroke-width="inherit"><title>Baltimore County</title></path><path id="county-24013" class="county feature" d="M780.233 253.239l-.421 5.404.49 1.712-4.025.743.349-2.717-3.274-1.798.897-2.113 3.023-.615z" vector-effect="non-scaling-stroke" fill="inherit" stroke="inherit" stroke-width="inherit"><title>Carroll County</title></path><path id="county-24021" class="county feature" d="M774.249 254.47l-.897 2.113 3.274 1.798-.349 2.717-.008.01-3.578 3.212-1.817-1.219-1.632-.046.429-5.759 1.045-2.127.14-.028z" vector-effect="non-scaling-stroke" fill="inherit" stroke="inherit" stroke-width="inherit"><title>Frederick County</title></path><path id="county-24029" class="county feature" d="M795.81 256.572l.413 1.471.257.92-3.211.695-1.339 2.908-.942-.398-.362 1.752-1.06-1.584 1.447-4.613 3.879-.881z" vector-effect="non-scaling-stroke" fill="inherit" stroke="inherit" stroke-width="inherit"><title>Kent County</title></path><path id="county-24510" class="county feature" d="M785.737 261.981l-.612.165.612-.165zm-.077-.624l-.627.773-.609-.45-1.441-.476-.37-1.74 2.546-.52z" vector-effect="non-scaling-stroke" fill="inherit" stroke="inherit" stroke-width="inherit"><title>Baltimore City</title></path><path id="county-24027" class="county feature" d="M780.302 260.355l3.1 1.993-1.583 2.453-.782-.377-.837.197-3.93-3.512.007-.011z" vector-effect="non-scaling-stroke" fill="inherit" stroke="inherit" stroke-width="inherit"><title>Howard County</title></path><path id="county-24031" class="county feature" d="M781.037 264.424l-.982 3.376-1.537.917-3.363-1.686-1.967.043-1.195-1.135.698-1.619 3.578-3.211 3.93 3.512z" vector-effect="non-scaling-stroke" fill="inherit" stroke="inherit" stroke-width="inherit"><title>Montgomery County</title></path><path id="county-24035" class="county feature" d="M790.182 265.388l-.858 2.702.197-3.589zm6.298-6.426l.526 1.873-1.086.902-.85 3.851-2.309.368-1.027 1.06-.436-1.615.376-2.356 1.595-3.387z" vector-effect="non-scaling-stroke" fill="inherit" stroke="inherit" stroke-width="inherit"><title>Queen Anne&apos;s County</title></path><path id="county-24003" class="county feature" d="M787.785 267.268l-.673 2.86.582.968-2.355-.188-.325-2.6-.883-1.831-2.312-1.676 1.583-2.453 1.022-.669.609.451.092.016.612-.165 1.976 1.86-1.323.574 2.053.774-1.036.798z" vector-effect="non-scaling-stroke" fill="inherit" stroke="inherit" stroke-width="inherit"><title>Anne Arundel County</title></path><path id="county-24011" class="county feature" d="M798.613 266.552l.99 3.516-.964-.752-2.455.686-1.143-1.234.745-.972-.716-2.208.85-3.851 1.086-.902z" vector-effect="non-scaling-stroke" fill="inherit" stroke="inherit" stroke-width="inherit"><title>Caroline County</title></path><path id="county-24033" class="county feature" d="M781.819 264.8l2.312 1.677.883 1.83.325 2.601.16 1.576.43 2.267-.967-1.25-3.243-.176-1 1.068-.687-1.283.412-2.377 1.196-1.85-1.585-1.083.982-3.376z" vector-effect="non-scaling-stroke" fill="inherit" stroke="inherit" stroke-width="inherit"><title>Prince George&apos;s County</title></path><path id="county-24041" class="county feature" d="M795.07 265.588l.716 2.208-.886 1.553 1.044.743-.612 1.977-2.456-1.529-2.678-.65.693-2.111 1.68 1.544-.71-1.655.9-1.712z" vector-effect="non-scaling-stroke" fill="inherit" stroke="inherit" stroke-width="inherit"><title>Talbot County</title></path><path id="county-24009" class="county feature" d="M787.694 271.096l.857 3.282 2.487 2.326-.304 1.344-3.653-2.062-1.581-3.502-.16-1.576z" vector-effect="non-scaling-stroke" fill="inherit" stroke="inherit" stroke-width="inherit"><title>Calvert County</title></path><path id="county-24019" class="county feature" d="M794.313 277.25l-1.062-.266-1.837-2.06.852-1.45-.536-1.186 1.476-.566 1.93.724 1.048-2.444 2.455-.686.964.752.38 1.358-1.409 1.843.157 1.073-1.172 3.594z" vector-effect="non-scaling-stroke" fill="inherit" stroke="inherit" stroke-width="inherit"><title>Dorchester County</title></path><path id="county-24017" class="county feature" d="M780.032 273.11l.687 1.283 1-1.068 3.243.176.967 1.25.183.835-1.119.001-.89 2.475.878 2.188-1.283-.188-2.255-2.507-2.028 2.028-1.406-2.073z" vector-effect="non-scaling-stroke" fill="inherit" stroke="inherit" stroke-width="inherit"><title>Charles County</title></path><path id="county-24045" class="county feature" d="M805.516 272.315l.88 1.69-.554 1.358-3.475.986-2.527.786-1.294 1.001-.41-1.118.595-2.676-.157-1.073 1.409-1.843.513 1.83z" vector-effect="non-scaling-stroke" fill="inherit" stroke="inherit" stroke-width="inherit"><title>Wicomico County</title></path><path id="county-24037" class="county feature" d="M789.852 278.203l2.97 2.865.293 1.651-2.176-1.624-4.108-1.576-.353 1.178-2.374-2.635.89-2.475h1.118z" vector-effect="non-scaling-stroke" fill="inherit" stroke="inherit" stroke-width="inherit"><title>Saint Mary&apos;s County</title></path><path id="county-24047" class="county feature" d="M808.656 279.817l-.263.093.263-.093zm.699-8.342l.29-.065-.29.065zm-.314 1.073l-.015 2.947-1.375 1.144-.88 3.834-3.375 1.137-.038-.024-.731-.706 1.526-1.267-1.786-3.264 3.475-.986.554-1.358-.88-1.69 3.616-.79z" vector-effect="non-scaling-stroke" fill="inherit" stroke="inherit" stroke-width="inherit"><title>Worcester County</title></path><path id="county-24039" class="county feature" d="M797.613 283.64l-.106.028.106-.028zm.327-.577l.29.454-.16.032-.29-.33zm-.16.156l.054.377-.097.021zm1.98-2.268l-.404-1.85-1.178 1.076 1.662-3.042 2.527-.786 1.786 3.264-1.526 1.267.731.706-3.594 2.196z" vector-effect="non-scaling-stroke" fill="inherit" stroke="inherit" stroke-width="inherit"><title>Somerset County</title></path></g><path id="counties-mesh" class="counties mesh" d="M770.716 255.169l-1.045 2.127-.429 5.76-.565.186-2.122-2.907-1.047-.909.466-1.147-2.624.25-2.482-1.007-.93 1.601-1.017-.09-.421-1.553m.421 1.552l-1.34.568-.123 2.017-2.712.15-2.195-1.013-1.819 3.594-1.566-.509 1.1-4.848m45.544-2.42l-.918.27-2.963.331.327-3.327-1.422.595-2.887-2.816m2.887 2.816l.053 2.074-1.838 1.7.024-1.95-1.614 1.771-1.374-1.712-1.648-.576-1.174-3.14m4.196 5.428l.562.95-.754 2.698-1.607-.326-.501-2.413-2.545.52.369 1.74 1.441.475-1.022.67-3.1-1.994-.49-1.712.42-5.404m.07 7.116l-4.025.743.349-2.717-3.274-1.798.897-2.113m2.028 6.628l-.008.01-3.578 3.212-1.817-1.219-1.632-.046m-20.076.784l-2.363 3.338-2.638 2.798-1.532-9.588 1.175-.216 6.457-1.18 1.719-.314 5.987-1.104.529-.093 3.403-.641 8.813-1.67.14-.028 3.393-.671 3.023-.615 2.96-.616 3.03-.632 4.59-.963.095-.02 1.36-.284 4.826-1.053 1.677 6.285.413 1.471.257.92-3.211.695-1.339 2.908-.942-.398-.362 1.752-1.06-1.584 1.447-4.613 3.879-.881m-9.232 4.515l-.627.773-.609-.45m-1.022.668l-1.583 2.453-.782-.377-.837.197-3.93-3.512m4.767 3.315l-.982 3.376-1.537.917-3.363-1.686-1.967.043-1.195-1.135.698-1.619m17.49 1.068l-.857 2.702.197-3.589.66.887m6.825-4.553l-1.086.902-.85 3.851-2.309.368-1.027 1.06-.436-1.615.376-2.356 1.595-3.387m-7.532 2.323l-.612.165.612-.165 1.976 1.86-1.323.574 2.053.774-1.036.798.378 1.281-.673 2.86.582.968-2.355-.188-.325-2.6-.883-1.831-2.312-1.676m3.214-2.67l.092.015m11.355-3.184l.526 1.873 1.607 5.717.99 3.516-.964-.752-2.455.686-1.143-1.234.745-.972-.716-2.208m-9.73 5.32l.16 1.576.43 2.267-.968-1.25-3.243-.176-1 1.068-.687-1.283.412-2.377 1.196-1.85-1.585-1.083m15.73-.004l-.885 1.553 1.044.743-.612 1.977-2.456-1.529-2.678-.65.693-2.111 1.68 1.544-.71-1.655.9-1.712m-5.067 5.14l.857 3.282 2.487 2.326-.304 1.344-3.653-2.062-1.581-3.502m14.483-1.058l-1.409 1.843.157 1.073-1.172 3.594-3.246-.687-1.062-.265-1.837-2.06.852-1.45-.536-1.186 1.476-.566 1.93.724 1.048-2.444m-10.255 4.749l.183.835-1.119.001-.89 2.475.878 2.188-1.283-.188-2.255-2.507-2.028 2.028-1.406-2.073 2.023-4.4m25.484-.795l.88 1.69-.554 1.358-3.475.986-2.527.786-1.294 1.001-.41-1.118.595-2.676m-12.62 1.244l3.74 2.617 2.97 2.865.294 1.651-2.176-1.624-4.108-1.576-.353 1.178-2.374-2.635m24.552 1.755l-.263.093.263-.093m.699-8.342l.29-.065-.29.065m-9.752-1.407l.38 1.358.513 1.83 5.02-.941 3.616-.79-.091 1.023-.015 2.947-1.375 1.144-.88 3.834-3.375 1.137-.038-.024-.731-.706 1.526-1.267-1.786-3.264m-4.754 7.29l-.106.03.106-.03m.327-.576l.29.454-.16.032-.29-.33.16-.156m-.16.156l.054.377-.097.021.043-.398m5.578-1.633l-3.594 2.196-.004-2.83-.404-1.851-1.178 1.076 1.662-3.042" vector-effect="non-scaling-stroke" fill="inherit" stroke="inherit" stroke-width="inherit"/></svg>