<svg xmlns="http://www.w3.org/2000/svg" version="1.2" id="root" viewBox="580.5282054551132 118.42226844662218 112.03757626209256 117.8299434886111"><g id="counties"><path id="county-26131" class="county feature" d="M599.055 151.752l.128 1.606-4.835.353-.224-3.21-4.824.335-.102-1.613-1.597.093-.516-3.195 1.228-1.075 4.724-.772 2.18-1.344 1.42-1.72 2.317-.86.376 4.922.994 1.538-1.603.105z" vector-effect="non-scaling-stroke" fill="inherit" stroke="inherit" stroke-width="inherit"><title>Ontonagon County</title></path><path id="county-26013" class="county feature" d="M610.47 141.665l.228 2.714.815 1.543-1.59.147.39 4.801-7.248.57-.609-8.01 1.625-.126-.136-1.607 1.292-.11.065 3.49 2.64-3.568z" vector-effect="non-scaling-stroke" fill="inherit" stroke="inherit" stroke-width="inherit"><title>Baraga County</title></path><path id="county-26053" class="county feature" d="M599.183 153.358l.32 4.385-1.361-.67-11.022-2.258.018.217-2.53-.753-1.622-3.127-2.458-.89 4.91-2.36 1.647-1.781.516 3.195 1.597-.093.102 1.613 4.824-.334.224 3.21z" vector-effect="non-scaling-stroke" fill="inherit" stroke="inherit" stroke-width="inherit"><title>Gogebic County</title></path><path id="county-26095" class="county feature" d="M646.586 141.017l1.073 9.438-8.066.905-.515-4.817-.362-3.428 4.909-.361z" vector-effect="non-scaling-stroke" fill="inherit" stroke="inherit" stroke-width="inherit"><title>Luce County</title></path><path id="county-26153" class="county feature" d="M639.078 146.543l.515 4.817.544 5.123-.521.963-2.004-.618-3.15 1.16-.477 2.554-1.147.66-.645-2.545-.488-4.858-1.617.15-.32-3.237 3.224-.298-.327-3.223z" vector-effect="non-scaling-stroke" fill="inherit" stroke="inherit" stroke-width="inherit"><title>Schoolcraft County</title></path><path id="county-26071" class="county feature" d="M603.065 151.44l7.247-.57.253 3.212.512 6.038-3.97-.681-1.578-.732-1.928.284-3.313-.864-.785-.384-.32-4.385-.128-1.606z" vector-effect="non-scaling-stroke" fill="inherit" stroke="inherit" stroke-width="inherit"><title>Iron County</title></path><path id="county-26043" class="county feature" d="M617.446 158.368l.143 1.62-1.033.091.282 3.27-1.94.177-2.834-.848-1.064-.71.077-1.848-.512-6.038 6.477-.547z" vector-effect="non-scaling-stroke" fill="inherit" stroke="inherit" stroke-width="inherit"><title>Dickinson County</title></path><path id="county-26109" class="county feature" d="M620.675 158.092l.691 1.56.569 6.473.819-.069-1.814 4.972-2.04 3.797-1.794-1.653 1.003-2.761-3.146.028.996-2.856-.643-1.06.51-2.16-.928-.837 1.94-.177-.282-3.27 1.033-.09-.143-1.62z" vector-effect="non-scaling-stroke" fill="inherit" stroke="inherit" stroke-width="inherit"><title>Menominee County</title></path><path id="county-26031" class="county feature" d="M662.364 160.332l-.609.08 1.055 7.912-1.57.193-4.804.523-.17-1.626-1.1-9.24 3.797 2.076z" vector-effect="non-scaling-stroke" fill="inherit" stroke="inherit" stroke-width="inherit"><title>Cheboygan County</title></path><path id="county-26141" class="county feature" d="M673.976 166.728l-6.408.934-4.758.662-1.055-7.912.61-.08 1.492 2.063 2.674.054 1.945 1.226 2.735.776.995-.305 1.705 1.417z" vector-effect="non-scaling-stroke" fill="inherit" stroke="inherit" stroke-width="inherit"><title>Presque Isle County</title></path><path id="county-26009" class="county feature" d="M655.015 170.813l.697 4.787-5.84.648-.44.937-1.532-.722.506-4.8-.524-1.744 2.152-.203.186 1.63z" vector-effect="non-scaling-stroke" fill="inherit" stroke="inherit" stroke-width="inherit"><title>Antrim County</title></path><path id="county-26137" class="county feature" d="M661.24 168.517l.72 6.387-6.248.696-.697-4.787 1.609-.158-.188-1.615z" vector-effect="non-scaling-stroke" fill="inherit" stroke="inherit" stroke-width="inherit"><title>Otsego County</title></path><path id="county-26119" class="county feature" d="M667.568 167.662l.728 6.418-6.337.824-.718-6.387 1.569-.193z" vector-effect="non-scaling-stroke" fill="inherit" stroke="inherit" stroke-width="inherit"><title>Montmorency County</title></path><path id="county-26001" class="county feature" d="M675.722 173.07l1.012 2.606-.116 3.822-7.472 1.032-.85-6.45z" vector-effect="non-scaling-stroke" fill="inherit" stroke="inherit" stroke-width="inherit"><title>Alcona County</title></path><path id="county-26079" class="county feature" d="M655.712 175.6l.713 6.455-6.382.713-.61-5.583.438-.937z" vector-effect="non-scaling-stroke" fill="inherit" stroke="inherit" stroke-width="inherit"><title>Kalkaska County</title></path><path id="county-26039" class="county feature" d="M661.96 174.904l.808 6.46-6.343.69-.713-6.454z" vector-effect="non-scaling-stroke" fill="inherit" stroke="inherit" stroke-width="inherit"><title>Crawford County</title></path><path id="county-26135" class="county feature" d="M668.296 174.08l.85 6.45-6.378.834-.809-6.46z" vector-effect="non-scaling-stroke" fill="inherit" stroke="inherit" stroke-width="inherit"><title>Oscoda County</title></path><path id="county-26019" class="county feature" d="M643.172 178.586l.485 4.871-5.515.48-.413-3.448 2.02-1.612z" vector-effect="non-scaling-stroke" fill="inherit" stroke="inherit" stroke-width="inherit"><title>Benzie County</title></path><path id="county-26101" class="county feature" d="M643.657 183.457l.656 6.5-2.937.258-4.617.259 1.37-3.736.013-2.8z" vector-effect="non-scaling-stroke" fill="inherit" stroke="inherit" stroke-width="inherit"><title>Manistee County</title></path><path id="county-26165" class="county feature" d="M650.043 182.768l.718 6.461-3.043.344-3.405.384-.656-6.5z" vector-effect="non-scaling-stroke" fill="inherit" stroke="inherit" stroke-width="inherit"><title>Wexford County</title></path><path id="county-26143" class="county feature" d="M662.768 181.364l.83 6.439-3.182.388-3.234.37-.757-6.506z" vector-effect="non-scaling-stroke" fill="inherit" stroke="inherit" stroke-width="inherit"><title>Roscommon County</title></path><path id="county-26113" class="county feature" d="M656.425 182.055l.757 6.506-3.129.31-3.292.358-.718-6.46z" vector-effect="non-scaling-stroke" fill="inherit" stroke="inherit" stroke-width="inherit"><title>Missaukee County</title></path><path id="county-26069" class="county feature" d="M676.618 179.498l.158 3.405-2.086 1.36-.477 2.133-4.207.58-.86-6.446z" vector-effect="non-scaling-stroke" fill="inherit" stroke="inherit" stroke-width="inherit"><title>Iosco County</title></path><path id="county-26129" class="county feature" d="M669.146 180.53l.86 6.446-3.737.473-2.67.354-.831-6.44z" vector-effect="non-scaling-stroke" fill="inherit" stroke="inherit" stroke-width="inherit"><title>Ogemaw County</title></path><path id="county-26105" class="county feature" d="M641.376 190.215l.742 6.546-5.254.47-1.5-4.005 1.395-2.752z" vector-effect="non-scaling-stroke" fill="inherit" stroke="inherit" stroke-width="inherit"><title>Mason County</title></path><path id="county-26085" class="county feature" d="M641.376 190.215l2.937-.258 3.405-.384.746 6.503-6.346.685z" vector-effect="non-scaling-stroke" fill="inherit" stroke="inherit" stroke-width="inherit"><title>Lake County</title></path><path id="county-26133" class="county feature" d="M650.761 189.23l3.292-.359.724 6.53-6.313.675-.746-6.503z" vector-effect="non-scaling-stroke" fill="inherit" stroke="inherit" stroke-width="inherit"><title>Osceola County</title></path><path id="county-26035" class="county feature" d="M657.182 188.561l3.234-.37.797 6.423-6.436.788-.724-6.53z" vector-effect="non-scaling-stroke" fill="inherit" stroke="inherit" stroke-width="inherit"><title>Clare County</title></path><path id="county-26051" class="county feature" d="M666.269 187.45l.379 3.066.388 3.182-5.823.916-.797-6.423 3.182-.388z" vector-effect="non-scaling-stroke" fill="inherit" stroke="inherit" stroke-width="inherit"><title>Gladwin County</title></path><path id="county-26017" class="county feature" d="M670.285 191.688l.496 4.369 3.052 1.239.278 2.058-1.688-.602-3.13.36-1.673-.63-.584-4.784-.388-3.182 1.606-.204.21 1.58z" vector-effect="non-scaling-stroke" fill="inherit" stroke="inherit" stroke-width="inherit"><title>Bay County</title></path><path id="county-26111" class="county feature" d="M667.036 193.698l.584 4.784.174 1.621-2.634.63-3.182.387-.765-6.506z" vector-effect="non-scaling-stroke" fill="inherit" stroke="inherit" stroke-width="inherit"><title>Midland County</title></path><path id="county-26127" class="county feature" d="M642.118 196.761l.664 6.497-5.664.49-1.4-3.296 1.146-3.221z" vector-effect="non-scaling-stroke" fill="inherit" stroke="inherit" stroke-width="inherit"><title>Oceana County</title></path><path id="county-26073" class="county feature" d="M661.213 194.614l.765 6.506-3.193.378-3.203.373-.805-6.47z" vector-effect="non-scaling-stroke" fill="inherit" stroke="inherit" stroke-width="inherit"><title>Isabella County</title></path><path id="county-26107" class="county feature" d="M654.777 195.402l.805 6.469-6.404.683-.714-6.478z" vector-effect="non-scaling-stroke" fill="inherit" stroke="inherit" stroke-width="inherit"><title>Mecosta County</title></path><path id="county-26123" class="county feature" d="M648.464 196.076l.714 6.478.358 3.245-3.062.357-3.346.348-.346-3.246-.664-6.497z" vector-effect="non-scaling-stroke" fill="inherit" stroke="inherit" stroke-width="inherit"><title>Newaygo County</title></path><path id="county-26157" class="county feature" d="M676.593 194.32l.157 1.113 4.632-.768.85 6.483-3.123.513.25 1.614-1.434.42-3.147.448-.667-4.79-.278-2.057 2.083-3.02z" vector-effect="non-scaling-stroke" fill="inherit" stroke="inherit" stroke-width="inherit"><title>Tuscola County</title></path><path id="county-26151" class="county feature" d="M690.912 202.933l-6.58 1.204-.387-2.425-1.714-.564-.85-6.483 6.765-1.223 1.574 4.58z" vector-effect="non-scaling-stroke" fill="inherit" stroke="inherit" stroke-width="inherit"><title>Sanilac County</title></path><path id="county-26145" class="county feature" d="M674.11 199.354l.668 4.789-3.168.427.241 1.627-5.89.82-.801-6.284 2.634-.63-.174-1.621 1.674.63 3.129-.36z" vector-effect="non-scaling-stroke" fill="inherit" stroke="inherit" stroke-width="inherit"><title>Saginaw County</title></path><path id="county-26121" class="county feature" d="M642.782 203.258l.346 3.246 3.346-.348.167 1.64-1.581.157.187 1.622-4.921.525-3.208-6.351z" vector-effect="non-scaling-stroke" fill="inherit" stroke="inherit" stroke-width="inherit"><title>Muskegon County</title></path><path id="county-26117" class="county feature" d="M655.582 201.87l3.203-.372.884 6.458-6.406.74-.364-3.271-3.363.374-.358-3.245z" vector-effect="non-scaling-stroke" fill="inherit" stroke="inherit" stroke-width="inherit"><title>Montcalm County</title></path><path id="county-26057" class="county feature" d="M661.978 201.12l3.182-.387.802 6.284.024.195-6.317.744-.884-6.458z" vector-effect="non-scaling-stroke" fill="inherit" stroke="inherit" stroke-width="inherit"><title>Gratiot County</title></path><path id="county-26087" class="county feature" d="M684.333 204.137l.84 4.82-1.597.315-4.703.79-.948-6.367 1.434-.42-.25-1.614 3.122-.513 1.714.564z" vector-effect="non-scaling-stroke" fill="inherit" stroke="inherit" stroke-width="inherit"><title>Lapeer County</title></path><path id="county-26081" class="county feature" d="M653.263 208.697l.775 6.507-3.19.39-3.21.349-.997-8.147-.167-1.64 3.062-.357 3.363-.374z" vector-effect="non-scaling-stroke" fill="inherit" stroke="inherit" stroke-width="inherit"><title>Kent County</title></path><path id="county-26049" class="county feature" d="M677.925 203.695l.948 6.367-3.163.59.252 1.633-3.181.457-.93-6.545-.241-1.627 3.168-.427z" vector-effect="non-scaling-stroke" fill="inherit" stroke="inherit" stroke-width="inherit"><title>Genesee County</title></path><path id="county-26139" class="county feature" d="M646.641 207.796l.997 8.147-5.773.623-.668-4.095-.871-2.371 4.921-.525-.187-1.622z" vector-effect="non-scaling-stroke" fill="inherit" stroke="inherit" stroke-width="inherit"><title>Ottawa County</title></path><path id="county-26155" class="county feature" d="M671.851 206.197l.93 6.545-3.178.48-2.774.362-.843-6.372-.024-.195z" vector-effect="non-scaling-stroke" fill="inherit" stroke="inherit" stroke-width="inherit"><title>Shiawassee County</title></path><path id="county-26067" class="county feature" d="M659.669 207.956l.767 6.5-3.212.368-3.186.38-.775-6.507z" vector-effect="non-scaling-stroke" fill="inherit" stroke="inherit" stroke-width="inherit"><title>Ionia County</title></path><path id="county-26037" class="county feature" d="M665.986 207.212l.843 6.372-3.22.503-3.173.368-.767-6.499z" vector-effect="non-scaling-stroke" fill="inherit" stroke="inherit" stroke-width="inherit"><title>Clinton County</title></path><path id="county-26099" class="county feature" d="M689.455 212.295l-1.35 1.518-.262 3.174-2.877.468-1.39-8.183 1.598-.316 3.283-.529z" vector-effect="non-scaling-stroke" fill="inherit" stroke="inherit" stroke-width="inherit"><title>Macomb County</title></path><path id="county-26125" class="county feature" d="M684.966 217.455l-6.332 1.078-1.52.274-1.152-6.522-.252-1.633 3.163-.59 4.703-.79z" vector-effect="non-scaling-stroke" fill="inherit" stroke="inherit" stroke-width="inherit"><title>Oakland County</title></path><path id="county-26093" class="county feature" d="M675.962 212.285l1.152 6.522-6.318.934-.132.016-1.061-6.534 3.178-.48z" vector-effect="non-scaling-stroke" fill="inherit" stroke="inherit" stroke-width="inherit"><title>Livingston County</title></path><path id="county-26065" class="county feature" d="M669.603 213.223l1.061 6.534-6.244.818-.812-6.488 3.22-.503z" vector-effect="non-scaling-stroke" fill="inherit" stroke="inherit" stroke-width="inherit"><title>Ingham County</title></path><path id="county-26045" class="county feature" d="M660.436 214.455l3.172-.368.812 6.488-1.605.2-4.804.566-.787-6.517z" vector-effect="non-scaling-stroke" fill="inherit" stroke="inherit" stroke-width="inherit"><title>Eaton County</title></path><path id="county-26015" class="county feature" d="M657.224 214.824l.787 6.517-3.088.385-3.331.34-.745-6.473 3.19-.389z" vector-effect="non-scaling-stroke" fill="inherit" stroke="inherit" stroke-width="inherit"><title>Barry County</title></path><path id="county-26005" class="county feature" d="M647.638 215.943l3.21-.35.744 6.473-3.009.346-6.935.755.217-6.601z" vector-effect="non-scaling-stroke" fill="inherit" stroke="inherit" stroke-width="inherit"><title>Allegan County</title></path><path id="county-26161" class="county feature" d="M679.664 225.026l-3.191.476-4.865.826-.812-6.587 6.318-.934 1.52-.274z" vector-effect="non-scaling-stroke" fill="inherit" stroke="inherit" stroke-width="inherit"><title>Washtenaw County</title></path><path id="county-26075" class="county feature" d="M670.664 219.757l.132-.016.812 6.587-3.162.357-4.726.633-.905-6.543 1.605-.2z" vector-effect="non-scaling-stroke" fill="inherit" stroke="inherit" stroke-width="inherit"><title>Jackson County</title></path><path id="county-26025" class="county feature" d="M662.815 220.775l.905 6.543-1.605.15-6.383.755-.81-6.497 3.089-.385z" vector-effect="non-scaling-stroke" fill="inherit" stroke="inherit" stroke-width="inherit"><title>Calhoun County</title></path><path id="county-26159" class="county feature" d="M648.583 222.412l.73 6.563-6.299.625-.341-3.213-1.922.2.897-3.42z" vector-effect="non-scaling-stroke" fill="inherit" stroke="inherit" stroke-width="inherit"><title>Van Buren County</title></path><path id="county-26077" class="county feature" d="M654.923 221.726l.809 6.497-6.42.752-.729-6.563 3.009-.346z" vector-effect="non-scaling-stroke" fill="inherit" stroke="inherit" stroke-width="inherit"><title>Kalamazoo County</title></path><path id="county-26021" class="county feature" d="M643.014 229.6l.552 5.826-4.097.43-4.14.396 2.612-2.835 1.364-4.16 1.446-2.67 1.922-.2z" vector-effect="non-scaling-stroke" fill="inherit" stroke="inherit" stroke-width="inherit"><title>Berrien County</title></path><path id="county-26091" class="county feature" d="M676.473 225.502l1.014 6.676-1.602.273-6.557 1.079-.882-6.845 3.162-.357z" vector-effect="non-scaling-stroke" fill="inherit" stroke="inherit" stroke-width="inherit"><title>Lenawee County</title></path><path id="county-26023" class="county feature" d="M662.115 227.468l.71 5.835-5.102.6-1.312.144-.68-5.824z" vector-effect="non-scaling-stroke" fill="inherit" stroke="inherit" stroke-width="inherit"><title>Branch County</title></path><path id="county-26059" class="county feature" d="M668.446 226.685l.882 6.845-.535.081-5.566.854-.402-1.162-.71-5.835 1.605-.15z" vector-effect="non-scaling-stroke" fill="inherit" stroke="inherit" stroke-width="inherit"><title>Hillsdale County</title></path><path id="county-26149" class="county feature" d="M655.732 228.223l.679 5.824-5.05.576-1.722.187.26-.78-.586-5.055z" vector-effect="non-scaling-stroke" fill="inherit" stroke="inherit" stroke-width="inherit"><title>Saint Joseph County</title></path><path id="county-26027" class="county feature" d="M649.313 228.975l.586 5.054-.26.78-3.822.381-2.251.236-.552-5.826z" vector-effect="non-scaling-stroke" fill="inherit" stroke="inherit" stroke-width="inherit"><title>Cass County</title></path><path id="county-26083" class="county feature" d="M612.05 131.045l1.874 1.181-3.078.54.297.746-3.448 3.01-1.033-1.522-2.716.22.994-1.627 2.5-1.69zm-11.08-11.33l2.785-1.293-3.076 3.684-3.802 2.068.682.5-2.556 1.221-.866-1.562z" vector-effect="non-scaling-stroke" fill="inherit" stroke="inherit" stroke-width="inherit"><title>Keweenaw County</title></path><path id="county-26061" class="county feature" d="M605.237 141.586l-1.292.111.136 1.607-1.625.126.61 8.01-4.01.312-.335-4.837 1.603-.105-.994-1.538-.376-4.922.488-1.346 3.101-2.593.19 1.802 1.48.275zm2.458-5.065l-2.003 4.294-.46-2.126-2.366-.426-.27-1.833 1.35-1.21 2.716-.22z" vector-effect="non-scaling-stroke" fill="inherit" stroke="inherit" stroke-width="inherit"><title>Houghton County</title></path><path id="county-26103" class="county feature" d="M623.035 148.339l.594 6.228-1.617.152.275 3.229-1.612.144-3.23.276-.403-4.833-6.477.547-.253-3.212-.39-4.801 1.59-.147-.814-1.543-.228-2.714 2.939.142 2.46 1.246.937 1.642 3.478 3.89z" vector-effect="non-scaling-stroke" fill="inherit" stroke="inherit" stroke-width="inherit"><title>Marquette County</title></path><path id="county-26003" class="county feature" d="M639.078 146.543l-6.413.648.327 3.223-3.224.298.32 3.237-6.46.618-.593-6.228 1.158-.837 2.81 1.524.765-.846 1.574 1.101 1.991-2.839 3.914-2.64 3.469-.687z" vector-effect="non-scaling-stroke" fill="inherit" stroke="inherit" stroke-width="inherit"><title>Alger County</title></path><path id="county-26041" class="county feature" d="M623.629 154.567l6.46-.618 1.616-.15.488 4.858.645 2.545-3.013 2.312 1.92-3.93-3.266.115-.894 2.903-2.238-.432-1.542 1.658-1.051 2.228-.82.069-.568-6.473-.69-1.56 1.611-.144-.275-3.23z" vector-effect="non-scaling-stroke" fill="inherit" stroke="inherit" stroke-width="inherit"><title>Delta County</title></path><path id="county-26033" class="county feature" d="M669.891 153.802l-3.714-.293 2.094-1.62-.718-1.154 1.755-.01 1.657 1.727zm-9.549-10.28l.896.008-.51 2.23-1.38-1.228zm2.371 10.072l-1.307.112-.222.03-.287-1.592-1.6.196-.201-1.601-9.64 1.146-.196-1.618-1.601.188-1.073-9.438 3.58-.657-.777 1.584.371 3.723 2.707.504 2.473-1.044.63 1.242 3.028-2.023 1.201 1.186 1.405 3.209-.305 1.68 1.252-.445.844 1.496 2.465 1.763z" vector-effect="non-scaling-stroke" fill="inherit" stroke="inherit" stroke-width="inherit"><title>Chippewa County</title></path><path id="county-26097" class="county feature" d="M657.284 157.382l2.792.515-1.716.895zm5.43-3.788l-1.308.112 1.307-.112zm-1.53.142l-5.624-.6-.825 2.132.07 1.975-3.648-2.723-5.625-1.136-1.157.297-1.505 2.518-2.733.284-.544-5.123 8.066-.905 1.6-.188.196 1.618 9.64-1.146.202 1.601 1.6-.196z" vector-effect="non-scaling-stroke" fill="inherit" stroke="inherit" stroke-width="inherit"><title>Mackinac County</title></path><path id="county-26047" class="county feature" d="M655.166 158.174l1.1 9.24-3.493.724-1.412-1.588 2.14-1.308-1.503-.066-1.371-2.332 1.977-3.218z" vector-effect="non-scaling-stroke" fill="inherit" stroke="inherit" stroke-width="inherit"><title>Emmet County</title></path><path id="county-26029" class="county feature" d="M651.36 166.55l1.413 1.588 3.493-.724.17 1.626.188 1.615-1.61.158-4.794.533-.186-1.63-2.152.203.148-1.309 1.964-1.828zm-6.523-6.489l.869 2.57-1.616.67z" vector-effect="non-scaling-stroke" fill="inherit" stroke="inherit" stroke-width="inherit"><title>Charlevoix County</title></path><path id="county-26089" class="county feature" d="M640.652 173.422l-1.324-.565.788-1.037zm4.804 4.905l-2.284.26-3.422.29-.185-2.172 1.615-1.493 1.789.026 1.946-4.59.94 2.279-.682 3.429z" vector-effect="non-scaling-stroke" fill="inherit" stroke="inherit" stroke-width="inherit"><title>Leelanau County</title></path><path id="county-26055" class="county feature" d="M647.9 176.463l1.533.722.61 5.583-6.386.69-.485-4.872 2.284-.259.616.086 1.157-4.294-.21 4.552z" vector-effect="non-scaling-stroke" fill="inherit" stroke="inherit" stroke-width="inherit"><title>Grand Traverse County</title></path><path id="county-26007" class="county feature" d="M673.976 166.728l1.352 2.693-1.48.071.3 2.47 1.574 1.108-7.426 1.01-.728-6.418z" vector-effect="non-scaling-stroke" fill="inherit" stroke="inherit" stroke-width="inherit"><title>Alpena County</title></path><path id="county-26011" class="county feature" d="M674.213 186.396l.112 2.143-1.174 1.243-2.197.244-.669 1.662-1.822.204-.21-1.58-1.605.204-.38-3.067 3.738-.473z" vector-effect="non-scaling-stroke" fill="inherit" stroke="inherit" stroke-width="inherit"><title>Arenac County</title></path><path id="county-26063" class="county feature" d="M688.146 193.442l-6.764 1.223-4.632.768-.157-1.113 2.116-4.957 2.677-.995 1.495-1.356 2.69 1.079 1.833 2.76z" vector-effect="non-scaling-stroke" fill="inherit" stroke="inherit" stroke-width="inherit"><title>Huron County</title></path><path id="county-26147" class="county feature" d="M689.455 212.295l-.998-3.868-3.283.53-.841-4.82 6.579-1.204 1.654 3.438-.528 1.711.107 4.964-1.725.162z" vector-effect="non-scaling-stroke" fill="inherit" stroke="inherit" stroke-width="inherit"><title>Saint Clair County</title></path><path id="county-26163" class="county feature" d="M687.843 216.987l-.218 1.288-2.245 1.664-.847 2.836-.083 2.582-1.498-.934-3.288.603-1.03-6.493 6.332-1.078z" vector-effect="non-scaling-stroke" fill="inherit" stroke="inherit" stroke-width="inherit"><title>Wayne County</title></path><path id="county-26115" class="county feature" d="M681.693 231.449l-.127.023.127-.023zm-.353.06l.147-.026-.147.026zm3.11-6.152l-2.994 5.098-.145 1.059-3.824.664-1.014-6.676 3.191-.476 3.288-.603z" vector-effect="non-scaling-stroke" fill="inherit" stroke="inherit" stroke-width="inherit"><title>Monroe County</title></path></g><path id="counties-mesh" class="counties mesh" d="M599.183 153.358l.32 4.385-1.361-.67-11.022-2.258.018.217-2.53-.753-1.622-3.127-2.458-.89 4.91-2.36 1.647-1.781m52.508 5.239l.544 5.123-.521.963-2.004-.618-3.15 1.16-.477 2.554-1.147.66-.645-2.545-.488-4.858-1.617.15-.32-3.237 3.224-.298-.327-3.223 6.413-.648m-28.766 4.327l.253 3.212.512 6.038-3.97-.681-1.578-.732-1.928.284-3.313-.864-.785-.384m-.448-5.991l.128 1.606-4.835.353-.224-3.21-4.824.335-.102-1.613-1.597.093-.516-3.195 1.228-1.075 4.724-.772 2.18-1.344 1.42-1.72 2.317-.86.376 4.922.994 1.538-1.603.105.334 4.837 4.01-.311m7.5 2.641l6.477-.547.404 4.833.143 1.62-1.033.091.282 3.27-1.94.177-2.834-.848-1.064-.71.077-1.848m6.369-1.752l3.23-.276.69 1.56.569 6.473.819-.069-1.814 4.972-2.04 3.797-1.794-1.653 1.003-2.761-3.146.028.996-2.856-.643-1.06.51-2.16-.928-.837m47.466-3.194l-.609.08 1.055 7.912-1.57.193-4.804.523-.17-1.626-1.1-9.24 3.797 2.076 3.401.082 1.493 2.063 2.674.054 1.945 1.226 2.735.776.995-.305 1.705 1.417.065 1.165-6.408.934-4.758.662m-7.795 2.49l.697 4.786-5.84.648-.44.937-1.532-.722.506-4.8-.524-1.744 2.152-.203.186 1.63 4.795-.533 1.609-.158-.188-1.615m17.54-2.312l1.352 2.693-1.48.071.3 2.47 1.574 1.108 1.012 2.606-.116 3.822-7.472 1.032-.85-6.45 7.426-1.01m-14.481-4.553l.718 6.387-6.247.696.713 6.455-6.382.713-.61-5.583m27.185 2.313l.158 3.405-2.086 1.36-.477 2.133-4.207.58-.86-6.446-6.378.834.83 6.439-3.182.388-3.234.37-.757-6.506m-16.675-3.178l-.185-2.172 1.615-1.493 1.789.026 1.946-4.59.94 2.279-.682 3.429.283 1.971-2.284.26.485 4.87-5.515.48-.413-3.448 2.02-1.612 3.423-.29m.485 4.87l.656 6.5-2.937.258-4.617.259 1.37-3.736.013-2.8m5.515-.48l6.386-.69.718 6.461-3.043.344-3.405.384m12.87-1.396l-3.13.31-3.292.358m19.245-2.253l-3.737.473-2.67.354m-22.223 2.412l.742 6.546-5.254.47-1.5-4.005 1.395-2.752m18.823 11.397l-6.404.683-.714-6.478m13.514 5.044l-3.193.378-3.203.373-.805-6.47m12.843 3.08l.174 1.622-2.634.63-3.182.387-.765-6.506m5.435-4.098l1.606-.204.21 1.58 1.821-.204.496 4.369 3.052 1.239.278 2.058-1.688-.602-3.13.36-1.673-.63-.584-4.784m-19.318-4.125l.746 6.503-6.346.685.664 6.497-5.664.49-1.4-3.296 1.146-3.221m12.314 5.323l.358 3.245-3.062.357-3.346.348-.346-3.246m31.051-5.962l2.083-3.02.677.044.157 1.113 4.632-.768.85 6.483-3.123.513.25 1.614-1.434.42-3.147.448-.667-4.79m7.27-4.688l6.765-1.223 1.574 4.58 1.192 4.91-6.58 1.205-.387-2.425-1.714-.564m-7.453 2.995l-3.168.427.241 1.627-5.89.82-.801-6.284m-18.686 5.423l.167 1.64-1.581.157.187 1.622-4.921.525-3.208-6.351m21.667-2.25l.884 6.457-6.406.74-.364-3.271-3.363.374m34.797-1.662l.84 4.82-1.597.315-4.703.79-.948-6.367m-24.662 5.002l.775 6.507-3.19.39-3.21.349-.997-8.147m32.232 2.266l-3.163.59.252 1.633-3.181.457-.93-6.545m-24.213 9.746l-5.773.623-.668-4.095-.871-2.371m32.455 2.642l-3.178.48-2.774.362-.843-6.372m-.024-.195l.024.195-6.317.744.767 6.5-3.212.368-3.186.38m12.79-1.62l-3.22.503-3.172.368m24.738-5.499l3.283-.529.998 3.868-1.35 1.518-.262 3.174-2.877.468-1.39-8.183m1.39 8.183l-6.332 1.078-1.52.274-1.152-6.522m1.152 6.522l-6.318.934-.132.016-1.061-6.534m1.061 6.534l-6.244.818-.812-6.488m.812 6.488l-1.605.2-4.804.566-.787-6.517m.787 6.517l-3.088.385-3.331.34-.745-6.473m.745 6.473l-3.009.346-6.935.755.217-6.601m36.77 1.967l1.03 6.493-3.192.476-4.865.826-.812-6.587m.812 6.587l-3.162.357-4.726.633-.905-6.543m.905 6.543l-1.605.15-6.383.755-.81-6.497m-6.339.686l.73 6.563-6.299.625-.341-3.213-1.922.2.897-3.42m14.763 10.88l-5.05.576-1.722.187.26-.78-.586-5.055m-6.299.625l.552 5.826-4.097.43-4.14.396 2.612-2.835 1.364-4.16 1.446-2.67m35.722-1.085l1.014 6.676-1.602.273-6.557 1.079-.882-6.845m.882 6.845l-.535.081-5.566.854-.402-1.162m-13.186 1.507l-3.822.38-2.251.236m40.884-10.07l-2.994 5.099-.145 1.059-3.824.664M612.05 131.045l1.874 1.181-3.078.54.297.746-3.448 3.01-1.033-1.522-2.716.22.994-1.627 2.5-1.69 4.61-.858m-11.08-11.33l2.785-1.293-3.076 3.684-3.802 2.068.682.5-2.556 1.221-.866-1.562 6.833-4.619m-2.016 20.636l.488-1.346 3.101-2.593.19 1.802 1.48.275 1.024 3.098m2.458-5.065l-2.003 4.294-.46-2.126-2.366-.426-.27-1.833 1.35-1.21m6.524 6.445l.228 2.714.815 1.543-1.59.147.39 4.801-7.248.57-.609-8.01 1.625-.126-.136-1.607 1.292-.11.065 3.49 2.64-3.568 2.528.156 2.939.142 2.46 1.246.937 1.642 3.478 3.89 2.751-.246.594 6.228-1.617.152.275 3.229-1.612.144m9.413-4.143l-6.46.618m-.593-6.228l1.158-.837 2.81 1.524.765-.846 1.574 1.101 1.991-2.839 3.914-2.64 3.469-.687m-5.878 18.087l-3.013 2.312 1.92-3.93-3.266.115-.894 2.903-2.238-.432-1.542 1.658-1.051 2.228m47.137-12.254l-3.714-.293 2.094-1.62-.718-1.154 1.755-.01 1.657 1.727-1.074 1.35m-9.549-10.28l.896.008-.51 2.23-1.38-1.228.994-1.01m-13.756-2.505l1.073 9.438-8.066.905-.515-4.817-.362-3.428 4.909-.361 2.96-1.737 3.581-.657-.777 1.584.371 3.723 2.707.504 2.473-1.044.63 1.242 3.028-2.023 1.201 1.186 1.405 3.209-.305 1.68 1.252-.445.844 1.496 2.465 1.763-2.747.359-1.307.112-.222.03-.287-1.592-1.6.196-.201-1.601-9.64 1.146-.196-1.618-1.601.188m9.625 6.927l2.792.515-1.716.895-1.076-1.41m5.43-3.788l-1.308.112m-.222.03l-5.624-.6-.825 2.132.07 1.975-3.648-2.723-5.625-1.136-1.157.297-1.505 2.518-2.733.284m16.13 10.93l-3.494.725-1.412-1.588 2.14-1.308-1.503-.066-1.371-2.332 1.977-3.218 2.562-1.452m-7.284 11.745l.148-1.309 1.964-1.828 1.367-.232m-6.524-6.489l.869 2.57-1.616.67.747-3.24m-4.185 13.361l-1.324-.565.788-1.037.536 1.602m4.804 4.905l.616.086 1.157-4.294-.21 4.552.881-2.208m26.313 9.933l.112 2.143-1.174 1.243-2.197.244-.669 1.662m6.308 2.632l2.116-4.957 2.677-.995 1.495-1.356 2.69 1.079 1.833 2.76.742 2.59m2.766 9.492l1.654 3.438-.528 1.711.107 4.964-1.725.162-.965-.913m-1.612 4.692l-.218 1.288-2.245 1.664-.847 2.836-.083 2.582-1.498-.934-3.288.603m2.029 6.423l-.127.023.127-.023m-.206.034l-.147.026.147-.026m-13.919-63.821l.728 6.418-6.337.824.809 6.46-6.343.69m-2.372 6.817l.724 6.53-6.313.675m11.952-7.885l.797 6.423-6.436.788m11.492-7.953l.379 3.067.388 3.182-5.823.916m.902 32.854l.71 5.835-5.102.6-1.312.144-.68-5.824-6.418.752" vector-effect="non-scaling-stroke" fill="inherit" stroke="inherit" stroke-width="inherit"/></svg>