<svg xmlns="http://www.w3.org/2000/svg" version="1.2" id="root" viewBox="511.9566392212373 262.8870376133274 98.59925016174577 85.64488381248157"><g id="counties"><path id="county-29045" class="county feature" d="M573.228 266.835l-.981 2.491-6.41.129-.02-.822-.148-5.745 3.181-.001z" vector-effect="non-scaling-stroke" fill="inherit" stroke="inherit" stroke-width="inherit"><title>Clark County</title></path><path id="county-29199" class="county feature" d="M565.669 262.888l.149 5.745-5.616.191-.062-.822-.192-4.721 2.398-.156z" vector-effect="non-scaling-stroke" fill="inherit" stroke="inherit" stroke-width="inherit"><title>Scotland County</title></path><path id="county-29197" class="county feature" d="M560.14 268.002l-4.71.23.009-2.953-.594-1.663 1.074-.065 4.03-.27z" vector-effect="non-scaling-stroke" fill="inherit" stroke="inherit" stroke-width="inherit"><title>Schuyler County</title></path><path id="county-29171" class="county feature" d="M554.845 263.616l.594 1.663-.008 2.953-2.419.096-.022-.814-7.206.274-.21-3.713 3.893-.181z" vector-effect="non-scaling-stroke" fill="inherit" stroke="inherit" stroke-width="inherit"><title>Putnam County</title></path><path id="county-29005" class="county feature" d="M517.463 264.552l2.413.022.359 5.964-5.288-.023-.835-.927-1.37-3.943-.785-1.156z" vector-effect="non-scaling-stroke" fill="inherit" stroke="inherit" stroke-width="inherit"><title>Atchison County</title></path><path id="county-29129" class="county feature" d="M545.575 264.075l.209 3.713.055 2.198-5.593.188-.29-5.903 3.056-.126z" vector-effect="non-scaling-stroke" fill="inherit" stroke="inherit" stroke-width="inherit"><title>Mercer County</title></path><path id="county-29147" class="county feature" d="M523.919 264.597l3.978.018.525 3.472-.034 4.91-6.187.002-.425-2.454-1.541-.007-.36-5.964z" vector-effect="non-scaling-stroke" fill="inherit" stroke="inherit" stroke-width="inherit"><title>Nodaway County</title></path><path id="county-29081" class="county feature" d="M539.955 264.27l.29 5.904.049 2.469-6.41.065-.046-4.664-.32-3.532 3.048-.096z" vector-effect="non-scaling-stroke" fill="inherit" stroke="inherit" stroke-width="inherit"><title>Harrison County</title></path><path id="county-29227" class="county feature" d="M533.519 264.512l.319 3.532-5.416.043-.525-3.472 2.26-.024z" vector-effect="non-scaling-stroke" fill="inherit" stroke="inherit" stroke-width="inherit"><title>Worth County</title></path><path id="county-29211" class="county feature" d="M553.012 268.328l.185 5.753-7.16.297-.198-4.392-.055-2.198 7.206-.274z" vector-effect="non-scaling-stroke" fill="inherit" stroke="inherit" stroke-width="inherit"><title>Sullivan County</title></path><path id="county-29075" class="county feature" d="M533.838 268.044l.047 4.664.01 1.918-5.478.01-.029-1.638.034-4.911z" vector-effect="non-scaling-stroke" fill="inherit" stroke="inherit" stroke-width="inherit"><title>Gentry County</title></path><path id="county-29001" class="county feature" d="M560.14 268.002l.062.822.233 4.999-7.116.253-.122.005-.185-5.753 2.419-.096z" vector-effect="non-scaling-stroke" fill="inherit" stroke="inherit" stroke-width="inherit"><title>Adair County</title></path><path id="county-29103" class="county feature" d="M565.818 268.633l.02.822.221 5.795-4.759.141-.865-1.568-.233-4.999z" vector-effect="non-scaling-stroke" fill="inherit" stroke="inherit" stroke-width="inherit"><title>Knox County</title></path><path id="county-29079" class="county feature" d="M545.84 269.986l.197 4.392.035 1.232-5.67.298-.108-3.265-.048-2.469z" vector-effect="non-scaling-stroke" fill="inherit" stroke="inherit" stroke-width="inherit"><title>Grundy County</title></path><path id="county-29087" class="county feature" d="M520.235 270.538l1.541.007.425 2.454.748 4.369-1.293.692-3.19-2.577-1.604-1.052.332-1.294-2.211-2.567-.036-.055z" vector-effect="non-scaling-stroke" fill="inherit" stroke="inherit" stroke-width="inherit"><title>Holt County</title></path><path id="county-29111" class="county feature" d="M572.247 269.326l-.074.913.298 3.063.922 1.695-5.74.208-1.594.045-.222-5.795z" vector-effect="non-scaling-stroke" fill="inherit" stroke="inherit" stroke-width="inherit"><title>Lewis County</title></path><path id="county-29061" class="county feature" d="M533.885 272.708l6.409-.065.107 3.265.119 3.294-6.35.055-.275-4.631z" vector-effect="non-scaling-stroke" fill="inherit" stroke="inherit" stroke-width="inherit"><title>Daviess County</title></path><path id="county-29003" class="county feature" d="M528.388 272.998l.03 1.638.096 4.138-3.887.032-1.678-1.438-.748-4.369z" vector-effect="non-scaling-stroke" fill="inherit" stroke="inherit" stroke-width="inherit"><title>Andrew County</title></path><path id="county-29121" class="county feature" d="M560.435 273.823l.865 1.568.097 6.54-.02.001-5.577.112-.016-1.645-2.402.036-.063-6.36z" vector-effect="non-scaling-stroke" fill="inherit" stroke="inherit" stroke-width="inherit"><title>Macon County</title></path><path id="county-29115" class="county feature" d="M553.32 274.076l.062 6.36-5.824.112-1.394.036-.092-4.974-.035-1.232 7.16-.297z" vector-effect="non-scaling-stroke" fill="inherit" stroke="inherit" stroke-width="inherit"><title>Linn County</title></path><path id="county-29063" class="county feature" d="M533.895 274.626l.276 4.631.01.812-5.637.07-.03-1.365-.097-4.138z" vector-effect="non-scaling-stroke" fill="inherit" stroke="inherit" stroke-width="inherit"><title>DeKalb County</title></path><path id="county-29117" class="county feature" d="M547.558 280.548l-.116 1.66-6.835.26-.087-3.266-.119-3.294 5.67-.298.093 4.974z" vector-effect="non-scaling-stroke" fill="inherit" stroke="inherit" stroke-width="inherit"><title>Livingston County</title></path><path id="county-29205" class="county feature" d="M566.059 275.25l1.593-.045.147 5.46-4.815.119.02 1.107-1.607.04-.097-6.54z" vector-effect="non-scaling-stroke" fill="inherit" stroke="inherit" stroke-width="inherit"><title>Shelby County</title></path><path id="county-29127" class="county feature" d="M573.393 274.997l.097 1.913 1.06 1.551.932 1.365-5.842.228.034.543-1.875.068-.147-5.46z" vector-effect="non-scaling-stroke" fill="inherit" stroke="inherit" stroke-width="inherit"><title>Marion County</title></path><path id="county-29021" class="county feature" d="M528.514 278.774l.03 1.364.076 4.086-7.16.032.669-1.707 1.386-2.315 1.026.342.086-1.77z" vector-effect="non-scaling-stroke" fill="inherit" stroke="inherit" stroke-width="inherit"><title>Buchanan County</title></path><path id="county-29025" class="county feature" d="M540.52 279.202l.087 3.265.028 1.636-6.417.087-.037-4.121-.01-.812z" vector-effect="non-scaling-stroke" fill="inherit" stroke="inherit" stroke-width="inherit"><title>Caldwell County</title></path><path id="county-29049" class="county feature" d="M534.181 280.069l.037 4.12v1.368l-5.573.066-.025-1.399-.076-4.086z" vector-effect="non-scaling-stroke" fill="inherit" stroke="inherit" stroke-width="inherit"><title>Clinton County</title></path><path id="county-29041" class="county feature" d="M553.382 280.435l2.402-.036.016 1.645-.031 5.447-1.2-.372-.768 2.238-3.75-2.849-1.8-.94-.809-3.36.116-1.66z" vector-effect="non-scaling-stroke" fill="inherit" stroke="inherit" stroke-width="inherit"><title>Chariton County</title></path><path id="county-29173" class="county feature" d="M575.482 279.826l1.889 1.525-3.884 2.972.431 2.473-4.014-.199-.23-6-.034-.543z" vector-effect="non-scaling-stroke" fill="inherit" stroke="inherit" stroke-width="inherit"><title>Ralls County</title></path><path id="county-29137" class="county feature" d="M567.8 280.665l1.874-.068.23 6-8.472.192-.056-4.857h.02l1.607-.04-.019-1.108z" vector-effect="non-scaling-stroke" fill="inherit" stroke="inherit" stroke-width="inherit"><title>Monroe County</title></path><path id="county-29033" class="county feature" d="M547.442 282.209l.81 3.359 1.798.94-1.052-.5-.713 1.604-1.523.453-.957 1.488-1.034-1.181-.117 1.207-2.338-.304-1.53.813-.15-5.985-.03-1.636z" vector-effect="non-scaling-stroke" fill="inherit" stroke="inherit" stroke-width="inherit"><title>Carroll County</title></path><path id="county-29175" class="county feature" d="M561.376 281.932l.056 4.857.012 1.911-1.656.02-4.02-1.229.032-5.447z" vector-effect="non-scaling-stroke" fill="inherit" stroke="inherit" stroke-width="inherit"><title>Randolph County</title></path><path id="county-29163" class="county feature" d="M584.251 288.046l-6.592.291.048 1.66-1.076.042-2.131.055-.582-3.298-.431-2.473 3.884-2.972 2.296 2.844 1.337.712 2.504 1.796z" vector-effect="non-scaling-stroke" fill="inherit" stroke="inherit" stroke-width="inherit"><title>Pike County</title></path><path id="county-29165" class="county feature" d="M521.46 284.256l7.16-.032.025 1.4.072 5.59-2.49-.707-1.813-1.878.276-1.436-1.297-.799z" vector-effect="non-scaling-stroke" fill="inherit" stroke="inherit" stroke-width="inherit"><title>Platte County</title></path><path id="county-29177" class="county feature" d="M540.635 284.103l.152 5.985-.945-.126-4 1.433-1.562-1.17-.062-4.668v-1.367z" vector-effect="non-scaling-stroke" fill="inherit" stroke="inherit" stroke-width="inherit"><title>Ray County</title></path><path id="county-29047" class="county feature" d="M528.645 285.623l5.573-.066.062 4.668-1.33-.434-2.213 2.131-2.09.164.07-.872z" vector-effect="non-scaling-stroke" fill="inherit" stroke="inherit" stroke-width="inherit"><title>Clay County</title></path><path id="county-29195" class="county feature" d="M550.05 286.508l3.75 2.85-1.3 1.98.176 1.106-1.58 2.622-6.424-.091.099-6.603 1.034 1.181.957-1.488 1.523-.453.713-1.603z" vector-effect="non-scaling-stroke" fill="inherit" stroke="inherit" stroke-width="inherit"><title>Saline County</title></path><path id="county-29007" class="county feature" d="M569.904 286.597l4.014.2.582 3.297-3.173.05.02 1.673-6.844.2-.053-3.312-3.006-.005-.012-1.91z" vector-effect="non-scaling-stroke" fill="inherit" stroke="inherit" stroke-width="inherit"><title>Audrain County</title></path><path id="county-29089" class="county feature" d="M558.149 294.022l-4.086-.025-1.387-1.553-.175-1.107 1.3-1.98.768-2.238 1.2.372 4.02 1.229z" vector-effect="non-scaling-stroke" fill="inherit" stroke="inherit" stroke-width="inherit"><title>Howard County</title></path><path id="county-29107" class="county feature" d="M544.672 294.975l-.003.272-4.857-.06-.014.548-4-.073.044-4.267 4-1.433.945.126 1.529-.813 2.338.304.117-1.207z" vector-effect="non-scaling-stroke" fill="inherit" stroke="inherit" stroke-width="inherit"><title>Lafayette County</title></path><path id="county-29019" class="county feature" d="M561.444 288.7l3.006.005.053 3.312-.521 2.287.264 2.554-1.014 3.157-2.07-.67-.506-1.041-1.617-3.392-.89-.89 1.64-5.302z" vector-effect="non-scaling-stroke" fill="inherit" stroke="inherit" stroke-width="inherit"><title>Boone County</title></path><path id="county-29095" class="county feature" d="M534.28 290.225l1.562 1.17-.044 4.267-.041 1.587-7.046-.144-.044-3.713-.02-1.306 2.09-.164 2.213-2.131z" vector-effect="non-scaling-stroke" fill="inherit" stroke="inherit" stroke-width="inherit"><title>Jackson County</title></path><path id="county-29113" class="county feature" d="M584.251 288.046l1.113 5.413-2.303 1.192-1.836.23-2.2.078-2.312-2.147-.082-2.773 1.076-.043-.048-1.659z" vector-effect="non-scaling-stroke" fill="inherit" stroke="inherit" stroke-width="inherit"><title>Lincoln County</title></path><path id="county-29139" class="county feature" d="M574.5 290.094l2.131-.055.082 2.773.13 2.805-2.171.078.082 2.555-1.812.722-1.38-.459-.099.013-.116-6.709-.02-1.674z" vector-effect="non-scaling-stroke" fill="inherit" stroke="inherit" stroke-width="inherit"><title>Montgomery County</title></path><path id="county-29027" class="county feature" d="M564.503 292.017l6.844-.2.116 6.709-3.08.82-1.17 1.421-1.531.75-2.45-1.502 1.014-3.157-.264-2.554z" vector-effect="non-scaling-stroke" fill="inherit" stroke="inherit" stroke-width="inherit"><title>Callaway County</title></path><path id="county-29053" class="county feature" d="M558.149 294.022l.89.89-1.546 4.623-3.219.037-3.18-.07.002-4.436 1.58-2.622 1.387 1.553z" vector-effect="non-scaling-stroke" fill="inherit" stroke="inherit" stroke-width="inherit"><title>Cooper County</title></path><path id="county-29219" class="county feature" d="M581.225 294.88l.235 6.094-1.61-1.09-2.272-.237-2.1-1.235-.724-.162-.082-2.555 2.17-.078-.13-2.805 2.312 2.147z" vector-effect="non-scaling-stroke" fill="inherit" stroke="inherit" stroke-width="inherit"><title>Warren County</title></path><path id="county-29183" class="county feature" d="M590.98 293.334l2.388 1.204.018.873-2.644-1.388-2.029 1.24-1.19 2.643-2.805 1.155-2.555 2.116-.703-.203-.235-6.094 1.836-.23 2.303-1.19 1.753 1.064 1.284-1.866z" vector-effect="non-scaling-stroke" fill="inherit" stroke="inherit" stroke-width="inherit"><title>Saint Charles County</title></path><path id="county-29159" class="county feature" d="M551.096 295.066l-.002 4.437-.009 3.073-3.231-.003-.005.548-3.197-.028v-.825l.017-7.02.003-.273z" vector-effect="non-scaling-stroke" fill="inherit" stroke="inherit" stroke-width="inherit"><title>Pettis County</title></path><path id="county-29101" class="county feature" d="M544.67 295.247l-.019 7.02-8-.023-.79-.01-.104-4.985.04-1.587 4.001.073.014-.548z" vector-effect="non-scaling-stroke" fill="inherit" stroke="inherit" stroke-width="inherit"><title>Johnson County</title></path><path id="county-29135" class="county feature" d="M560.656 298.304l-1.227 5.92-1.888.012-3.238-3.02-.029-1.644 3.219-.037 1.546-4.623z" vector-effect="non-scaling-stroke" fill="inherit" stroke="inherit" stroke-width="inherit"><title>Moniteau County</title></path><path id="county-29189" class="county feature" d="M593.386 295.411l-.659.667-1.168 1.084-.852 2.41.982 1.118-.12.178-.946 2.622-1.04-2.095-2.651.144-2.09.778-.124-3.256 2.806-1.155 1.19-2.642 2.028-1.24z" vector-effect="non-scaling-stroke" fill="inherit" stroke="inherit" stroke-width="inherit"><title>Saint Louis County</title></path><path id="county-29037" class="county feature" d="M535.757 297.25l.104 4.984.79.01.02 2.27-7.93-.438-.016-4.913-.014-2.058z" vector-effect="non-scaling-stroke" fill="inherit" stroke="inherit" stroke-width="inherit"><title>Cass County</title></path><path id="county-29510" class="county feature" d="M591.69 300.69l-.983-1.118.852-2.41 1.168-1.084-.088 2.12z" vector-effect="non-scaling-stroke" fill="inherit" stroke="inherit" stroke-width="inherit"><title>Saint Louis City</title></path><path id="county-29051" class="county feature" d="M563.232 300.015l2.45 1.502 1.532-.75-1.279 2.472-1.794.013.72 1.45-1.013 1.093-3.105.011.013-1.584-1.327.002 1.227-5.92.506 1.04z" vector-effect="non-scaling-stroke" fill="inherit" stroke="inherit" stroke-width="inherit"><title>Cole County</title></path><path id="county-29073" class="county feature" d="M574.754 298.25l.723.162.471 9.22-2.434.093.062 1.1-1.393.047-.33-2.533-.292-7.826 1.38.459z" vector-effect="non-scaling-stroke" fill="inherit" stroke="inherit" stroke-width="inherit"><title>Gasconade County</title></path><path id="county-29071" class="county feature" d="M581.46 300.974l.703.203 2.555-2.116.124 3.256-.362 4.98-4.583.244-3.949.091-.47-9.22 2.1 1.235 2.271.237z" vector-effect="non-scaling-stroke" fill="inherit" stroke="inherit" stroke-width="inherit"><title>Franklin County</title></path><path id="county-29151" class="county feature" d="M571.463 298.526l.098-.013.292 7.826-7.988.274-.017-.818 1.013-1.093-.72-1.45 1.794-.013 1.279-2.472 1.169-1.422z" vector-effect="non-scaling-stroke" fill="inherit" stroke="inherit" stroke-width="inherit"><title>Osage County</title></path><path id="county-29141" class="county feature" d="M554.274 299.572l.029 1.644 3.238 3.02-.882 1.585-.005 2.387-.98.646-2.846-.049-1.742-1.143v-5.086l.008-3.073z" vector-effect="non-scaling-stroke" fill="inherit" stroke="inherit" stroke-width="inherit"><title>Morgan County</title></path><path id="county-29083" class="county feature" d="M544.651 302.268l.001.825-.007 5.704-7.656.105-.365-.002.046-4.386-.02-2.27z" vector-effect="non-scaling-stroke" fill="inherit" stroke="inherit" stroke-width="inherit"><title>Henry County</title></path><path id="county-29015" class="county feature" d="M551.085 302.576v5.086l.293 3.73-6.383.007-.35-2.602.007-5.704 3.197.028.005-.548z" vector-effect="non-scaling-stroke" fill="inherit" stroke="inherit" stroke-width="inherit"><title>Benton County</title></path><path id="county-29099" class="county feature" d="M590.623 303.49l-.099 2.983 1.693 1.82-2.277 1.75-2.39.87-.903-1.327-2.167-2.29.362-4.979 2.09-.778 2.65-.144z" vector-effect="non-scaling-stroke" fill="inherit" stroke="inherit" stroke-width="inherit"><title>Jefferson County</title></path><path id="county-29013" class="county feature" d="M536.67 304.514l-.046 4.386.365.002-.051 3.346-8.099-.3-.074-6.198-.025-1.674z" vector-effect="non-scaling-stroke" fill="inherit" stroke="inherit" stroke-width="inherit"><title>Bates County</title></path><path id="county-29131" class="county feature" d="M559.43 304.224l1.326-.002-.013 1.584 3.105-.011.017.818.36 5.192-3.223.034-1.594.038-1.935-3.528-.82-.14.006-2.388.882-1.585z" vector-effect="non-scaling-stroke" fill="inherit" stroke="inherit" stroke-width="inherit"><title>Miller County</title></path><path id="county-29125" class="county feature" d="M571.853 306.34l.33 2.532.058 1.934-3.823.166-1.8.842-2.393-.01-.36-5.19z" vector-effect="non-scaling-stroke" fill="inherit" stroke="inherit" stroke-width="inherit"><title>Maries County</title></path><path id="county-29029" class="county feature" d="M556.654 308.208l.819.14 1.935 3.53 1.594-.039.074 3.055-1.862 1.147-1.24-1.662-3.43.056-3.172-.027.006-3.017-.292-3.73 1.742 1.144 2.846.049z" vector-effect="non-scaling-stroke" fill="inherit" stroke="inherit" stroke-width="inherit"><title>Camden County</title></path><path id="county-29185" class="county feature" d="M544.645 308.797l.35 2.602-.038 2.94-.853 1.679-.807-.006-2.67-.032.011-1.089-3.758-.083.058-2.56.051-3.346z" vector-effect="non-scaling-stroke" fill="inherit" stroke="inherit" stroke-width="inherit"><title>Saint Clair County</title></path><path id="county-29055" class="county feature" d="M575.948 307.632l3.949-.09.393 8.742-.74.845-2.3.063-.054-1.641-3.214.12-.406-6.845-.062-1.1z" vector-effect="non-scaling-stroke" fill="inherit" stroke="inherit" stroke-width="inherit"><title>Crawford County</title></path><path id="county-29221" class="county feature" d="M584.48 307.296l2.167 2.29.29 6.437-6.647.26-.393-8.742z" vector-effect="non-scaling-stroke" fill="inherit" stroke="inherit" stroke-width="inherit"><title>Washington County</title></path><path id="county-29161" class="county feature" d="M573.576 308.826l.406 6.844-4.042.142.107 3.627-3.223.07-.207-7.695 1.801-.842 3.823-.166-.058-1.934z" vector-effect="non-scaling-stroke" fill="inherit" stroke="inherit" stroke-width="inherit"><title>Phelps County</title></path><path id="county-29186" class="county feature" d="M592.924 308.996l3.2 2.163.967 1.605-2.277 3.992-1.304.113-4.017-3.715 1.872-2.051-1.425-1.06 2.277-1.75z" vector-effect="non-scaling-stroke" fill="inherit" stroke="inherit" stroke-width="inherit"><title>Sainte Genevieve County</title></path><path id="county-29187" class="county feature" d="M589.94 310.042l1.425 1.06-1.872 2.052 4.017 3.715 1.304-.113-.495.593-5.674.299-1.652.11-.056-1.735-.29-6.437.903 1.328z" vector-effect="non-scaling-stroke" fill="inherit" stroke="inherit" stroke-width="inherit"><title>Saint Francois County</title></path><path id="county-29085" class="county feature" d="M551.378 311.391l-.006 3.017-1.613.017-.012 1.916-5.643-.323.853-1.679.038-2.94z" vector-effect="non-scaling-stroke" fill="inherit" stroke="inherit" stroke-width="inherit"><title>Hickory County</title></path><path id="county-29217" class="county feature" d="M536.938 312.248l-.058 2.56-.01 4.928-7.977-.122-.005-.368-.042-6.863-.007-.435z" vector-effect="non-scaling-stroke" fill="inherit" stroke="inherit" stroke-width="inherit"><title>Vernon County</title></path><path id="county-29169" class="county feature" d="M564.225 311.805l2.392.01.207 7.694-3.228.093-.022-.828-2.457-1.142-.04-2.738-.075-3.055z" vector-effect="non-scaling-stroke" fill="inherit" stroke="inherit" stroke-width="inherit"><title>Pulaski County</title></path><path id="county-29059" class="county feature" d="M551.372 314.408l3.171.027.283 7.758-3.202.057.02 1.35-1.603.005-.294-7.264.012-1.916z" vector-effect="non-scaling-stroke" fill="inherit" stroke="inherit" stroke-width="inherit"><title>Dallas County</title></path><path id="county-29157" class="county feature" d="M601.024 313.866l.15.831 2.367 1.222.004 2.143.007.112-5.006-.293-4.176.3-.051-.832.495-.593 2.277-3.992 1.333-.66z" vector-effect="non-scaling-stroke" fill="inherit" stroke="inherit" stroke-width="inherit"><title>Perry County</title></path><path id="county-29039" class="county feature" d="M543.297 316.012l.3 4.836-6.731-.013.004-1.099.01-4.928 3.758.083-.012 1.089z" vector-effect="non-scaling-stroke" fill="inherit" stroke="inherit" stroke-width="inherit"><title>Cedar County</title></path><path id="county-29105" class="county feature" d="M561.076 314.894l.04 2.738 2.458 1.142.022.828.05 2.481-6.37.076-2.45.034-.283-7.758 3.431-.056 1.24 1.662z" vector-effect="non-scaling-stroke" fill="inherit" stroke="inherit" stroke-width="inherit"><title>Laclede County</title></path><path id="county-29167" class="county feature" d="M544.104 316.018l5.643.323.294 7.264-6.445-.015v-2.742l-.3-4.836z" vector-effect="non-scaling-stroke" fill="inherit" stroke="inherit" stroke-width="inherit"><title>Polk County</title></path><path id="county-29065" class="county feature" d="M573.982 315.67l3.214-.12.054 1.642 2.3-.063.074 2.058-2.305.026.06 1.654 1.513-.003.071 1.62-6.383.166-1.592.046-.147-3.29-.794.033-.107-3.627z" vector-effect="non-scaling-stroke" fill="inherit" stroke="inherit" stroke-width="inherit"><title>Dent County</title></path><path id="county-29093" class="county feature" d="M586.937 316.023l.056 1.735 1.652-.11.137 6.15.033.85-2.715.182-.655-1.902-.18-4.322-5.641.58-.074-2.057.74-.845z" vector-effect="non-scaling-stroke" fill="inherit" stroke="inherit" stroke-width="inherit"><title>Iron County</title></path><path id="county-29011" class="county feature" d="M536.87 319.736l-.004 1.099-.017 4.38-7.876-.144-.08-5.457z" vector-effect="non-scaling-stroke" fill="inherit" stroke="inherit" stroke-width="inherit"><title>Barton County</title></path><path id="county-29123" class="county feature" d="M594.319 317.35l.051.831.342 5.37-1.052.01-4.878.238-.137-6.151z" vector-effect="non-scaling-stroke" fill="inherit" stroke="inherit" stroke-width="inherit"><title>Madison County</title></path><path id="county-29179" class="county feature" d="M586.1 324.83l-.42 4.191-2.728.086-.824-.751-.316-1.375-1.926-1.518-.385-2.998-.538.019-.07-1.62-1.514.003-.06-1.654 2.305-.026 5.641-.58.18 4.321z" vector-effect="non-scaling-stroke" fill="inherit" stroke="inherit" stroke-width="inherit"><title>Reynolds County</title></path><path id="county-29031" class="county feature" d="M603.552 318.174l1.662 3.04-.818 1.26.046 1.59-1.912.477-1.993 2.154-1.495.094-.496-8.908z" vector-effect="non-scaling-stroke" fill="inherit" stroke="inherit" stroke-width="inherit"><title>Cape Girardeau County</title></path><path id="county-29215" class="county feature" d="M566.824 319.509l3.223-.07.794-.033.147 3.29 1.592-.046.19 7.048-6.395.14-2.4.032-.329-7.787-.05-2.481z" vector-effect="non-scaling-stroke" fill="inherit" stroke="inherit" stroke-width="inherit"><title>Texas County</title></path><path id="county-29017" class="county feature" d="M598.546 317.881l.496 8.908-1.369.069.093 1.37-2.227.39-1.702-.752-.177-4.305 1.052-.01-.342-5.37z" vector-effect="non-scaling-stroke" fill="inherit" stroke="inherit" stroke-width="inherit"><title>Bollinger County</title></path><path id="county-29057" class="county feature" d="M543.596 320.848v2.742l-.005 2.742-6.276-.01-.466-1.107.017-4.38z" vector-effect="non-scaling-stroke" fill="inherit" stroke="inherit" stroke-width="inherit"><title>Dade County</title></path><path id="county-29225" class="county feature" d="M554.826 322.193l2.45-.034.283 7.811-3.205.04-2.409-.265-.3-6.146-.02-1.349z" vector-effect="non-scaling-stroke" fill="inherit" stroke="inherit" stroke-width="inherit"><title>Webster County</title></path><path id="county-29229" class="county feature" d="M563.646 322.083l.329 7.787-6.416.1-.283-7.811z" vector-effect="non-scaling-stroke" fill="inherit" stroke="inherit" stroke-width="inherit"><title>Wright County</title></path><path id="county-29077" class="county feature" d="M550.041 323.605l1.604-.006.3 6.146-8.013.047-.341-3.46.005-2.742z" vector-effect="non-scaling-stroke" fill="inherit" stroke="inherit" stroke-width="inherit"><title>Greene County</title></path><path id="county-29203" class="county feature" d="M578.963 322.484l.538-.02.385 2.999 1.926 1.518.316 1.375-2.932.33.107 3.814-6.432.21-.101-3.012-.19-7.048z" vector-effect="non-scaling-stroke" fill="inherit" stroke="inherit" stroke-width="inherit"><title>Shannon County</title></path><path id="county-29097" class="county feature" d="M536.849 325.215l.466 1.108-.007 4.563-8.251-.019-.077-5.31-.007-.486z" vector-effect="non-scaling-stroke" fill="inherit" stroke="inherit" stroke-width="inherit"><title>Jasper County</title></path><path id="county-29223" class="county feature" d="M593.66 323.56l.177 4.306 1.702.752-2.033 2.375-6.203.277-1.623-2.249.42-4.191 2.715-.183-.033-.848z" vector-effect="non-scaling-stroke" fill="inherit" stroke="inherit" stroke-width="inherit"><title>Wayne County</title></path><path id="county-29109" class="county feature" d="M543.591 326.332l.34 3.46.028 1.93.024 1.374-6.684-.015.009-2.195.007-4.563z" vector-effect="non-scaling-stroke" fill="inherit" stroke="inherit" stroke-width="inherit"><title>Lawrence County</title></path><path id="county-29201" class="county feature" d="M607.318 328.417l-2.844 2.86-2.52.36-.038-1.284-1.638-2.835.26-.823 1.992-2.154 1.912-.478 1.902 3.874z" vector-effect="non-scaling-stroke" fill="inherit" stroke="inherit" stroke-width="inherit"><title>Scott County</title></path><path id="county-29207" class="county feature" d="M599.042 326.79l1.495-.095-.259.823 1.638 2.835.037 1.284.152 4.375-3.825.214-2.81.15-.146-1.595-1.818-3.788 2.033-2.375 2.227-.39-.093-1.37z" vector-effect="non-scaling-stroke" fill="inherit" stroke="inherit" stroke-width="inherit"><title>Stoddard County</title></path><path id="county-29035" class="county feature" d="M585.68 329.021l1.623 2.25.354 2.152-6.72.13-1.605.044-.029-1.097-.107-3.814 2.932-.33.824.75z" vector-effect="non-scaling-stroke" fill="inherit" stroke="inherit" stroke-width="inherit"><title>Carter County</title></path><path id="county-29043" class="county feature" d="M551.945 329.745l2.409.265.07 4.93-5.853.034-.559.006-.028-3.303-4.025.044-.027-1.93z" vector-effect="non-scaling-stroke" fill="inherit" stroke="inherit" stroke-width="inherit"><title>Christian County</title></path><path id="county-29067" class="county feature" d="M557.559 329.97l6.416-.1 2.4-.031-.147 4.95-9.666.139-2.138.011-.07-4.93z" vector-effect="non-scaling-stroke" fill="inherit" stroke="inherit" stroke-width="inherit"><title>Douglas County</title></path><path id="county-29133" class="county feature" d="M610.012 328.784l.544.676-.107 2.998-1.05 1.352.428 1.19-.96 1.742-1.239-1.19-3.154-4.274 2.844-2.86.747-1.075z" vector-effect="non-scaling-stroke" fill="inherit" stroke="inherit" stroke-width="inherit"><title>Mississippi County</title></path><path id="county-29091" class="county feature" d="M572.77 329.698l.1 3.011.123 7.35-6.655.298-.11-5.568.147-4.95z" vector-effect="non-scaling-stroke" fill="inherit" stroke="inherit" stroke-width="inherit"><title>Howell County</title></path><path id="county-29145" class="county feature" d="M537.308 330.886l-.009 2.195-.02 3.47-8.153-.211-.053-4.382-.016-1.09z" vector-effect="non-scaling-stroke" fill="inherit" stroke="inherit" stroke-width="inherit"><title>Newton County</title></path><path id="county-29209" class="county feature" d="M548.57 334.974l.01 6.01-4.007.094.006-6.058-.596-1.924-.024-1.375 4.025-.044.028 3.303z" vector-effect="non-scaling-stroke" fill="inherit" stroke="inherit" stroke-width="inherit"><title>Stone County</title></path><path id="county-29009" class="county feature" d="M543.983 333.096l.596 1.924-.006 6.058-4.194.103-3.127.067.028-4.698.02-3.469z" vector-effect="non-scaling-stroke" fill="inherit" stroke="inherit" stroke-width="inherit"><title>Barry County</title></path><path id="county-29023" class="county feature" d="M593.506 330.993l1.818 3.788.147 1.596-.922 2.564-5.276.298-.429-3.39-1.187-2.426-.354-2.153z" vector-effect="non-scaling-stroke" fill="inherit" stroke="inherit" stroke-width="inherit"><title>Butler County</title></path><path id="county-29149" class="county feature" d="M579.303 332.5l.029 1.097 1.605-.043.166 6.145-4.173.22-.63.019-3.307.12-.122-7.349z" vector-effect="non-scaling-stroke" fill="inherit" stroke="inherit" stroke-width="inherit"><title>Oregon County</title></path><path id="county-29143" class="county feature" d="M604.474 331.278l3.154 4.274-1.171 2.592-.984.089-.81.05.116 3.041-.772-1.194-1.987-.314-.376.782-3.113.155-.251-4.527 3.825-.214-.152-4.375z" vector-effect="non-scaling-stroke" fill="inherit" stroke="inherit" stroke-width="inherit"><title>New Madrid County</title></path><path id="county-29181" class="county feature" d="M587.657 333.423l1.187 2.427.429 3.39-3.096.174-5.074.285-.166-6.145z" vector-effect="non-scaling-stroke" fill="inherit" stroke="inherit" stroke-width="inherit"><title>Ripley County</title></path><path id="county-29213" class="county feature" d="M554.424 334.94l2.138-.012.086 5.815-1.211.036-6.579.195-.277.01-.01-6.01z" vector-effect="non-scaling-stroke" fill="inherit" stroke="inherit" stroke-width="inherit"><title>Taney County</title></path><path id="county-29153" class="county feature" d="M566.228 334.789l.11 5.568-.448.023-5.632.217-3.61.146-.086-5.815z" vector-effect="non-scaling-stroke" fill="inherit" stroke="inherit" stroke-width="inherit"><title>Ozark County</title></path><path id="county-29119" class="county feature" d="M537.28 336.55l-.028 4.698-8.042.128-.046-3.177-.038-1.859z" vector-effect="non-scaling-stroke" fill="inherit" stroke="inherit" stroke-width="inherit"><title>McDonald County</title></path><path id="county-29069" class="county feature" d="M598.28 336.226l.25 4.527.5 7.33-4.926.356-1.324.093 2.563-4.038 1.763-2.03-.344-1.816-1.239-1.768-.974.061.922-2.564z" vector-effect="non-scaling-stroke" fill="inherit" stroke="inherit" stroke-width="inherit"><title>Dunklin County</title></path><path id="county-29155" class="county feature" d="M604.779 341.324l-.97.564 1.235.97-2.396.198 1.073 1.202.608 1.04-1.22.903-.314 1.585-3.766.296-.498-7.329 3.113-.155.376-.782 1.987.314z" vector-effect="non-scaling-stroke" fill="inherit" stroke="inherit" stroke-width="inherit"><title>Pemiscot County</title></path></g><path id="counties-mesh" class="counties mesh" d="M572.247 269.326l-6.41.129-.02-.822-.148-5.745m.149 5.745l-5.616.191-.062-.822-.192-4.721m.192 4.721l-4.71.23.009-2.953-.594-1.663m.586 4.616l-2.419.096-.022-.814-7.206.274-.21-3.713m.21 3.713l.055 2.198-5.593.188-.29-5.903m-12.06.344l.526 3.472-.034 4.91-6.187.002-.425-2.454-1.541-.007m20.01-.364l.049 2.469-6.41.065-.046-4.664-.32-3.532m.32 3.532l-5.416.043m-6.22 4.912l.747 4.369-1.293.692-3.19-2.577-1.604-1.052.332-1.294-2.211-2.567-.036-.055m38.065-2.187l.185 5.753-7.16.297-.198-4.392m-11.954 2.722l.01 1.918-5.478.01-.029-1.638m31.814-4.174l.233 4.999-7.116.253-.122.005m12.64-4.626l.222 5.795-4.759.141-.865-1.568m-14.398.555l.035 1.232-5.67.298-.108-3.265m-20.418-8.07l.359 5.965-5.288-.023-.835-.927-1.37-3.943-.785-1.156 5.506.063 2.413.022 4.043.023 3.978.018 2.26-.024 3.362-.079 3.047-.096 3.39-.145 3.056-.126 2.563-.07 3.892-.181 5.378-.278 1.074-.065 4.03-.27 2.397-.156 3.323-.237 3.181-.001 4.378 3.948-.981 2.491-.074.913.298 3.063.922 1.695-5.74.208-1.594.045m-25.658.658l.119 3.294-6.35.055-.275-4.631m-5.478.01l.097 4.138-3.887.032-1.678-1.438m38.351-1.977l.097 6.54-.02.001-5.577.112-.016-1.645-2.402.036-.063-6.36m.063 6.36l-5.824.113-1.394.036-.092-4.974m-11.901 3.647l.01.812-5.637.07-.03-1.365m.03 1.364l.076 4.086-7.16.032.669-1.707 1.386-2.315 1.026.342.086-1.77m22.931 1.742l-.116 1.66-6.835.26-.087-3.266m27.132-3.997l.147 5.46-4.815.119.02 1.107-1.607.04m11.996-6.934l.097 1.913 1.06 1.551.932 1.365-5.842.228.034.543-1.875.068m-27.192 1.802l.028 1.636-6.417.087-.037-4.121m.037 4.12v1.368l-5.573.066-.025-1.399m27.18-2.18l-.031 5.447-1.2-.372-.768 2.238-3.75-2.849-1.8-.94-.809-3.36m29.929-.857l-3.884 2.972.431 2.473-4.014-.199-.23-6m.23 6l-8.472.192-.056-4.857m-32.73 3.691l.071 5.59-2.49-.706-1.813-1.878.276-1.436-1.297-.799-1.934-2.138m28.591 2.252l-1.052-.5-.713 1.604-1.523.453-.957 1.488-1.034-1.181-.117 1.207-2.338-.304-1.53.813-.15-5.985m20.796 2.686l.012 1.911-1.656.02-4.02-1.229m19.714-7.665l1.889 1.525 2.296 2.844 1.337.712 2.504 1.796.743 1.343-6.592.291.048 1.66-1.076.042-2.131.055-.582-3.298m-33.131 3.292l-.945-.126-4 1.433-1.562-1.17-.062-4.668m.062 4.668l-1.33-.434-2.213 2.131-2.09.164.07-.872m25.084-1.857l-1.3 1.98.175 1.107-1.58 2.622-6.424-.091.099-6.603m29.729 1.722l-3.173.05.02 1.673-6.844.2-.053-3.312-3.006-.005m-1.656.02l-1.64 5.302-4.085-.025-1.387-1.553m-8.004 2.53l-.003.273-4.857-.06-.014.548-4-.073.044-4.267m28.661.622l-.521 2.287.264 2.554-1.014 3.157-2.07-.67-.506-1.041-1.617-3.392-.89-.89m-22.351 1.64l-.041 1.587-7.046-.144-.044-3.713-.02-1.306m56.717 1.373l-2.303 1.192-1.836.23-2.2.078-2.312-2.147-.082-2.773m.082 2.773l.13 2.805-2.171.078.082 2.555-1.812.722-1.38-.459-.099.013-.116-6.709m.116 6.709l-3.08.82-1.17 1.421-1.531.75-2.45-1.502m-4.193-5.103l-1.546 4.623-3.219.037-3.18-.07.002-4.436m-14.446 7.178l.02 2.27-7.93-.438-.015-4.913-.014-2.058m52.514-2.225l.235 6.094-1.61-1.09-2.272-.237-2.1-1.235-.724-.162m18.632-2.839l-2.644-1.388-2.029 1.24-1.19 2.643-2.805 1.155-2.555 2.116-.703-.203m-30.366-1.471l-.009 3.073-3.231-.003-.005.548-3.197-.028v-.825l.017-7.02m-.018 7.02l-8-.024-.79-.01-.104-4.985m24.9 1.055l-1.228 5.92-1.888.012-3.238-3.02-.029-1.644m38.453-3.494l-1.168 1.084-.852 2.41.982 1.118-.12.178-.946 2.622-1.04-2.095-2.651.144-2.09.778-.124-3.256m-.467-11.015l1.113 5.413 1.753 1.065 1.284-1.866 2.58.676 2.387 1.204.018.873-.659.667-.088 2.12-.95 2.492m-24.475.077l-1.279 2.472-1.794.013.72 1.45-1.013 1.093-3.105.011.013-1.584-1.327.002m-22.44 4.678l-.051 3.346-8.099-.3-.074-6.198-.025-1.674m46.737-5.664l.471 9.22-2.434.093.062 1.1-1.393.047-.33-2.533-.292-7.826m13.28 3.804l-.36 4.98-4.584.244-3.949.091m-4.095-1.293l-7.988.274-.017-.818m-6.307-1.559l-.882 1.585-.005 2.387-.98.646-2.846-.049-1.742-1.143v-5.086m-6.434.517l-.007 5.704-7.656.105-.365-.002.046-4.386m14.416 3.148l.292 3.73-6.383.007-.35-2.602m47.572-.505l-2.277 1.75-2.39.872-.903-1.328-2.167-2.29m-20.615-.683l.36 5.192-3.223.034-1.594.038-1.935-3.528-.82-.14m-19.773 6.599l-.01 4.928-7.977-.122-.005-.368-.042-6.863-.007-.435m43.344-3.076l.058 1.934-3.823.166-1.8.842-2.393-.01m-3.223.035l.074 3.055-1.862 1.147-1.24-1.662-3.43.056-3.172-.027.006-3.017m-6.383.008l-.038 2.94-.853 1.679-.807-.006-2.67-.032.011-1.089-3.758-.083.058-2.56m42.959-4.707l.393 8.743-.74.845-2.3.063-.054-1.641-3.214.12-.406-6.845m13.071.76l.29 6.437-6.647.26m-6.308-.613l-4.042.142.107 3.627-3.223.07-.207-7.695m30.474.95l-2.277 3.992-1.304.113-4.017-3.715 1.872-2.051-1.425-1.06m4.874 6.713l-.495.593-5.674.299-1.652.11-.056-1.735m-35.565-1.615l-1.613.017-.012 1.916-5.643-.323m22.72 3.49l-3.228.094-.022-.828-2.457-1.142-.04-2.738m-6.534-.459l.283 7.758-3.202.057.02 1.35-1.603.005-.294-7.264m40.876-12.85l-.099 2.982 1.693 1.82.707.703 3.2 2.163.967 1.605 1.333-.66 2.6 1.762.15.831 2.367 1.222.004 2.143.007.112-5.006-.293-4.176.3-.051-.832m-51.022-1.337l.3 4.836-6.731-.013.004-1.099m26.726-.134l.05 2.481-6.37.076-2.45.034m-4.785 1.412l-6.445-.015v-2.742m35.954-3.719l.074 2.058-2.305.026.06 1.654 1.513-.003.071 1.62-6.383.166-1.592.046-.147-3.29-.794.033m18.598-1.791l.137 6.15.033.85-2.715.182-.655-1.902-.18-4.322-5.641.58m-42.31 7.137l-.006 4.563-8.251-.019-.077-5.31-.007-.486-.08-5.457m7.973 1.22l-.017 4.38-7.876-.143m65.397-6.89l.342 5.37-1.052.01-4.878.238m-2.682 1.03l-.42 4.192-2.728.086-.824-.751-.316-1.375-1.926-1.518-.385-2.998-.538.019m24.59-4.31l1.66 3.04-.817 1.26.046 1.59-1.912.477-1.993 2.154-1.495.094-.496-8.908m-25.966 4.77l.19 7.047-6.395.14-2.4.032-.329-7.787m35.396 4.706l-1.369.069.093 1.37-2.227.39-1.702-.752-.177-4.305m-50.064.029l-.005 2.742-6.276-.01-.466-1.107m20.427-3.056l.283 7.811-3.205.04-2.409-.265-.3-6.146m12.33 6.27l-6.416.101m-5.614-.225l-8.013.047-.341-3.46m38.537 2.024l-2.932.33.107 3.814-6.432.21-.101-3.012m-35.47 3.383l-.02 3.47-8.154-.211-.053-4.382-.016-1.09m66.482-2.25l-2.033 2.375-6.203.277-1.623-2.249m-41.748.77l.027 1.93.024 1.375-6.684-.015.009-2.195m70.01-2.469l-2.844 2.86-2.52.36-.038-1.284-1.638-2.835.26-.823m1.415 4.942l.152 4.375-3.825.214-2.81.15-.146-1.595-1.818-3.788m-6.203.277l.354 2.153-6.72.13-1.605.044-.029-1.097m-24.95-2.49l.071 4.93-5.853.034-.559.006-.028-3.303-4.025.044m22.416-1.882l-.147 4.95-9.666.139-2.138.011m50.018-10.876l1.902 3.874.974.48.747-1.074 1.947 1.441.544.676-.107 2.998-1.05 1.352.428 1.19-.96 1.742-1.239-1.19-3.154-4.274m-31.603 1.431l.122 7.35-6.655.298-.11-5.568m-28.976 6.459l-8.042.128-.046-3.177-.038-1.859m19.445-1.366l.01 6.01-4.008.094.006-6.058-.596-1.924m.59 7.982l-4.194.103-3.127.067.028-4.698m58.19-.173l-.921 2.564-5.276.298-.429-3.39-1.187-2.426m-6.72.13l.166 6.146-4.173.22-.63.019-3.307.12m34.635-4.506l-1.171 2.592-.984.089-.81.05.116 3.041-.772-1.194-1.987-.314-.376.782-3.113.155-.251-4.527m-9.007 3.013l-3.096.175-5.074.285m-24.541-4.771l.086 5.815-1.211.036-6.579.195-.277.01m17.757-.627l-.448.023-5.632.217-3.61.146m41.883.01l.498 7.33-4.925.356-1.324.093 2.563-4.038 1.763-2.03-.344-1.816-1.239-1.768-.974.061m10.23 2.383l-.97.564 1.235.97-2.396.198 1.073 1.202.608 1.04-1.22.903-.314 1.585-3.766.296" vector-effect="non-scaling-stroke" fill="inherit" stroke="inherit" stroke-width="inherit"/></svg>