<svg xmlns="http://www.w3.org/2000/svg" version="1.2" id="root" viewBox="685.3120704213582 308.9871974379614 130.53201904426192 57.66239483475056"><g id="counties"><path id="county-37009" class="county feature" d="M725.388 323.373l2.07 3.673-2.929 2.837-4.131-2.246.193-3.785z" vector-effect="non-scaling-stroke" fill="inherit" stroke="inherit" stroke-width="inherit"><title>Ashe County</title></path><path id="county-37005" class="county feature" d="M732.052 322.567l-.482 3.14-.8.655-1.194-1.084-2.118 1.768-2.07-3.673z" vector-effect="non-scaling-stroke" fill="inherit" stroke="inherit" stroke-width="inherit"><title>Alleghany County</title></path><path id="county-37171" class="county feature" d="M736.313 321.953l2.543-.28.714 5.405.057.378-1.431-.548-4.755 1.654-.207-1.694-1.664-1.162.482-3.139.946-.101z" vector-effect="non-scaling-stroke" fill="inherit" stroke="inherit" stroke-width="inherit"><title>Surry County</title></path><path id="county-37073" class="county feature" d="M795.802 311.063l.886.59 1.063 2.326-1.45.805-1.557 1.315-1.635-.883-2.524-.286-.207-2.624-.025-.152z" vector-effect="non-scaling-stroke" fill="inherit" stroke="inherit" stroke-width="inherit"><title>Gates County</title></path><path id="county-37053" class="county feature" d="M805.533 314.476l-1.278-1.194-1.48.033-3.646-2.944 2.776-.588 1.262-.27 1.134 2.447 2.175 1.983 2.04 3.647zm-.28-5.411l.36-.078 2.632 5.59-.035.016-.886-.956zm-1.768.381l1.346-.289-.615.135-.261.054z" vector-effect="non-scaling-stroke" fill="inherit" stroke="inherit" stroke-width="inherit"><title>Currituck County</title></path><path id="county-37169" class="county feature" d="M744.547 320.877l.384-.065.783 5.32-6.144.946-.714-5.404z" vector-effect="non-scaling-stroke" fill="inherit" stroke="inherit" stroke-width="inherit"><title>Stokes County</title></path><path id="county-37029" class="county feature" d="M795.802 311.063l.731-.152 2.596-.54 3.646 2.944 1.48-.033 2.243 2.957-1.64-.082-3.838-2.74-4.332-1.765z" vector-effect="non-scaling-stroke" fill="inherit" stroke="inherit" stroke-width="inherit"><title>Camden County</title></path><path id="county-37185" class="county feature" d="M776.038 315.134l.162.696.235 2.35-.745 3.584-4.627-.334.29-.829-1.505-4.271 4.055-.777z" vector-effect="non-scaling-stroke" fill="inherit" stroke="inherit" stroke-width="inherit"><title>Warren County</title></path><path id="county-37131" class="county feature" d="M787.217 318.658l-.93 1.691-1.553-.558-1.209-1.884-1.456.69-.555-2.101-1.538-.904-3.776.238-.162-.696 1.93-.389 6.859-1.338 1.93-.412.913 1.21z" vector-effect="non-scaling-stroke" fill="inherit" stroke="inherit" stroke-width="inherit"><title>Northampton County</title></path><path id="county-37091" class="county feature" d="M790.378 312.306l.207 2.624 2.411.372 1.333 1.97-7.112 1.386.453-4.453-.913-1.21z" vector-effect="non-scaling-stroke" fill="inherit" stroke="inherit" stroke-width="inherit"><title>Hertford County</title></path><path id="county-37145" class="county feature" d="M762.953 317.65l.953 5.685-2.197.339-2.989.48-.77-5.599z" vector-effect="non-scaling-stroke" fill="inherit" stroke="inherit" stroke-width="inherit"><title>Person County</title></path><path id="county-37181" class="county feature" d="M769.848 316.33l1.506 4.271-.29.829-1.342 2.206-1.129-.001-1.173-5.134.488-1.78z" vector-effect="non-scaling-stroke" fill="inherit" stroke="inherit" stroke-width="inherit"><title>Vance County</title></path><path id="county-37077" class="county feature" d="M768.593 323.635l-.2 2.97-3.147-.36-.899-.29-.44-2.62-.954-5.685.907-.172 4.048-.757-.488 1.78z" vector-effect="non-scaling-stroke" fill="inherit" stroke="inherit" stroke-width="inherit"><title>Granville County</title></path><path id="county-37157" class="county feature" d="M749.512 320.037l2.995-.498.634 5.48.018.135-7.445.978-.783-5.32z" vector-effect="non-scaling-stroke" fill="inherit" stroke="inherit" stroke-width="inherit"><title>Rockingham County</title></path><path id="county-37033" class="county feature" d="M757.95 318.555l.77 5.599-1.524.24-4.055.625-.634-5.48.588-.104 1.868-.34 1.812-.327z" vector-effect="non-scaling-stroke" fill="inherit" stroke="inherit" stroke-width="inherit"><title>Caswell County</title></path><path id="county-37083" class="county feature" d="M786.287 320.35l.987 1.187-1.158.642-.854 1.518-1.926-.242-.304-.963-2.643-.682-2.737.704-1.962-.75.745-3.585-.235-2.35 3.776-.237 1.538.904.555 2.1 1.456-.689 1.209 1.884z" vector-effect="non-scaling-stroke" fill="inherit" stroke="inherit" stroke-width="inherit"><title>Halifax County</title></path><path id="county-37139" class="county feature" d="M801.02 313.417l.482 1.326 2.883 2.205-1.44.833-2.13-1.337-1.457-.503-1.607-1.962-1.063-2.327z" vector-effect="non-scaling-stroke" fill="inherit" stroke="inherit" stroke-width="inherit"><title>Pasquotank County</title></path><path id="county-37193" class="county feature" d="M731.57 325.706l1.664 1.162.207 1.694.412 3.379-2.144.533-4.28 1.616-3.554-1.763.654-2.444 2.929-2.837 2.118-1.768 1.195 1.084z" vector-effect="non-scaling-stroke" fill="inherit" stroke="inherit" stroke-width="inherit"><title>Wilkes County</title></path><path id="county-37189" class="county feature" d="M724.53 329.883l-.655 2.444-3.898.706-1.744-1.727-.336-1.304 2.5-2.365z" vector-effect="non-scaling-stroke" fill="inherit" stroke="inherit" stroke-width="inherit"><title>Watauga County</title></path><path id="county-37143" class="county feature" d="M800.816 316.444l1.794 1.753-.86.24-3.327-1.156 2.596 1.487-2.677.724-1.31-.215-.73-4.493 1.45-.805 1.606 1.962z" vector-effect="non-scaling-stroke" fill="inherit" stroke="inherit" stroke-width="inherit"><title>Perquimans County</title></path><path id="county-37041" class="county feature" d="M798.342 319.492l1.25.077-1.29 1.443-2.84-.573-.748-1.428.03-2.912 1.558-1.315.73 4.493z" vector-effect="non-scaling-stroke" fill="inherit" stroke="inherit" stroke-width="inherit"><title>Chowan County</title></path><path id="county-37197" class="county feature" d="M739.627 327.456l.52 1.903-.58 1.824-2.906.396-2.808.362-.412-3.379 4.755-1.654z" vector-effect="non-scaling-stroke" fill="inherit" stroke="inherit" stroke-width="inherit"><title>Yadkin County</title></path><path id="county-37011" class="county feature" d="M719.977 333.033l1.216.686-.754 2.093-2.008.348-.436.98-.862-.457-1.13-2.902 1.737-3.348.157-.431.336 1.304z" vector-effect="non-scaling-stroke" fill="inherit" stroke="inherit" stroke-width="inherit"><title>Avery County</title></path><path id="county-37069" class="county feature" d="M775.69 321.764l-2.296 7.818-.998-1.252-4.004-1.725.201-2.97 1.13.001 1.34-2.206z" vector-effect="non-scaling-stroke" fill="inherit" stroke="inherit" stroke-width="inherit"><title>Franklin County</title></path><path id="county-37067" class="county feature" d="M745.714 326.132l.661 4.604-5.077 1.567-1.731-1.12.58-1.824-.52-1.903-.057-.378z" vector-effect="non-scaling-stroke" fill="inherit" stroke="inherit" stroke-width="inherit"><title>Forsyth County</title></path><path id="county-37081" class="county feature" d="M753.16 325.154l.966 6.37-7.52.894-.23-1.682-.662-4.604z" vector-effect="non-scaling-stroke" fill="inherit" stroke="inherit" stroke-width="inherit"><title>Guilford County</title></path><path id="county-37001" class="county feature" d="M757.196 324.394l1.33 6.791.281.57-4.503.813-.178-1.044-.967-6.37-.018-.135z" vector-effect="non-scaling-stroke" fill="inherit" stroke="inherit" stroke-width="inherit"><title>Alamance County</title></path><path id="county-37015" class="county feature" d="M794.33 317.272l-.122 1.804 1.666 2.774-.033 1.277-.626 1.256-1.166-.138-.78 1.321-.8-1.315-.823.977-1.065-1.356-2.074.432-.36-1.196-2.031-.929 1.158-.642-.987-1.188.93-1.69z" vector-effect="non-scaling-stroke" fill="inherit" stroke="inherit" stroke-width="inherit"><title>Bertie County</title></path><path id="county-37135" class="county feature" d="M758.72 324.154l2.989-.48.294 7.146-3.478.365-1.329-6.79z" vector-effect="non-scaling-stroke" fill="inherit" stroke="inherit" stroke-width="inherit"><title>Orange County</title></path><path id="county-37063" class="county feature" d="M763.906 323.335l.441 2.62.9.29.945 1.016-1.475 2.988-1.098.189-1.616.382-.294-7.146z" vector-effect="non-scaling-stroke" fill="inherit" stroke="inherit" stroke-width="inherit"><title>Durham County</title></path><path id="county-37055" class="county feature" d="M814.74 323.963l.653 1.39.451 7.043-3.099 1.335-.048-.09 3.102-2.16-.463-5.882zm-5.82 1.891l-1.961-.161-.475-4.134 2.426-1.206 1.078.557 1.246 4.716-1.618 1.128zm-.71-11.261l.035-.017 4.456 6.148-3.182-2.767z" vector-effect="non-scaling-stroke" fill="inherit" stroke="inherit" stroke-width="inherit"><title>Dare County</title></path><path id="county-37127" class="county feature" d="M775.69 321.764l1.962.75 2.737-.704-.881 5.66-4.88 3.562-1.234-1.45z" vector-effect="non-scaling-stroke" fill="inherit" stroke="inherit" stroke-width="inherit"><title>Nash County</title></path><path id="county-37121" class="county feature" d="M716.004 333.781l1.129 2.902.862.456-2.007 1.957-1.491-3.382-3.386-.637 2.65-1.989z" vector-effect="non-scaling-stroke" fill="inherit" stroke="inherit" stroke-width="inherit"><title>Mitchell County</title></path><path id="county-37065" class="county feature" d="M785.262 323.697l1.25 1.659.202 1.622-.64-.125-3.43 3.65-1.864-2.523-1.272-.51.881-5.66 2.643.682.304.963z" vector-effect="non-scaling-stroke" fill="inherit" stroke="inherit" stroke-width="inherit"><title>Edgecombe County</title></path><path id="county-37027" class="county feature" d="M723.875 332.327l3.553 1.763.494 3.734-.36.601-2.876.263-4.247-2.876.754-2.093-1.216-.686z" vector-effect="non-scaling-stroke" fill="inherit" stroke="inherit" stroke-width="inherit"><title>Caldwell County</title></path><path id="county-37199" class="county feature" d="M715.988 339.096l-1.785 2.546-1.364-1.818-.927-.014-1.86-2.771 1.059-1.962 3.386.637z" vector-effect="non-scaling-stroke" fill="inherit" stroke="inherit" stroke-width="inherit"><title>Yancey County</title></path><path id="county-37183" class="county feature" d="M768.392 326.605l4.004 1.725.998 1.252-2.717 2.619-2.957 4.17-3.251-.626-1.3-.295.45-5.012 1.098-.19 1.475-2.987-.946-1.015z" vector-effect="non-scaling-stroke" fill="inherit" stroke="inherit" stroke-width="inherit"><title>Wake County</title></path><path id="county-37117" class="county feature" d="M795.215 324.383l-.638 3.198-1.896 1.289-3.05-.822-2.917-1.07-.202-1.622-1.25-1.66.854-1.517 2.03.93.36 1.195 2.075-.432 1.065 1.356.823-.977.8 1.315.78-1.321z" vector-effect="non-scaling-stroke" fill="inherit" stroke="inherit" stroke-width="inherit"><title>Martin County</title></path><path id="county-37115" class="county feature" d="M708.44 336.084l.075 1.368 1.537-.413 1.86 2.771-1.523.499-4.03 2.804-1.15.312-1.44-1.951.54-3.007 1.205.273.353-1.319 2-1.749z" vector-effect="non-scaling-stroke" fill="inherit" stroke="inherit" stroke-width="inherit"><title>Madison County</title></path><path id="county-37059" class="county feature" d="M741.298 332.303l.68 1.375-1.352 1.585.412 1.44-2.859-1.453-1.138.044-.38-3.715 2.906-.396z" vector-effect="non-scaling-stroke" fill="inherit" stroke="inherit" stroke-width="inherit"><title>Davie County</title></path><path id="county-37097" class="county feature" d="M733.853 331.94l2.808-.361.38 3.715-.41 3.47 1.016 3.03-.717.142-2.349.723-.37-1.085.291-1.462-3.248-2.496 1.066-3.592-.611-1.55z" vector-effect="non-scaling-stroke" fill="inherit" stroke="inherit" stroke-width="inherit"><title>Iredell County</title></path><path id="county-37003" class="county feature" d="M731.254 337.616l-.56-.816-2.772 1.024-.494-3.734 4.28-1.616.612 1.55z" vector-effect="non-scaling-stroke" fill="inherit" stroke="inherit" stroke-width="inherit"><title>Alexander County</title></path><path id="county-37057" class="county feature" d="M746.375 330.736l.23 1.682 1.009 7.761-1.719.314-.606-1.324-2.354-2.33-1.897-.137-.412-1.439 1.353-1.585-.68-1.375z" vector-effect="non-scaling-stroke" fill="inherit" stroke="inherit" stroke-width="inherit"><title>Davidson County</title></path><path id="county-37023" class="county feature" d="M720.439 335.812l4.247 2.876 2.877-.263-1.962 4.097-.04.09-2.34.07-1.948.382-1.077-2.594-1.983-1.382.97-1.599-.752-1.329z" vector-effect="non-scaling-stroke" fill="inherit" stroke="inherit" stroke-width="inherit"><title>Burke County</title></path><path id="county-37177" class="county feature" d="M804.664 325.667l-.384 1.966-1.275.055.104-1.58-1.883.25-.493-4.403 2.66-1.772 1.61-.259 1.45 5.523z" vector-effect="non-scaling-stroke" fill="inherit" stroke="inherit" stroke-width="inherit"><title>Tyrrell County</title></path><path id="county-37187" class="county feature" d="M800.733 321.955l.493 4.404-3.6.6-3.049.622.638-3.198.626-1.256 4.232-2.017z" vector-effect="non-scaling-stroke" fill="inherit" stroke="inherit" stroke-width="inherit"><title>Washington County</title></path><path id="county-37111" class="county feature" d="M721.273 343.064l-2.084 1.27-2.93.37-1.98-.922-.076-2.14 1.785-2.546 2.007-1.957.436-.979.753 1.33-.97 1.598 1.982 1.382z" vector-effect="non-scaling-stroke" fill="inherit" stroke="inherit" stroke-width="inherit"><title>McDowell County</title></path><path id="county-37151" class="county feature" d="M754.126 331.524l.178 1.044.869 6.132-3.159.616-4.4.863-1.008-7.76z" vector-effect="non-scaling-stroke" fill="inherit" stroke="inherit" stroke-width="inherit"><title>Randolph County</title></path><path id="county-37037" class="county feature" d="M762.003 330.82l1.616-.382-.45 5.012 1.3.295-.63 1.287-2.541-1.582-3.083 2.66-3.042.59-.87-6.132 4.504-.813-.282-.57z" vector-effect="non-scaling-stroke" fill="inherit" stroke="inherit" stroke-width="inherit"><title>Chatham County</title></path><path id="county-37195" class="county feature" d="M782.645 330.502l-.481.579-1.533 1.824-3.61.45-.96-.158-1.433-2.165 4.88-3.561 1.272.509z" vector-effect="non-scaling-stroke" fill="inherit" stroke="inherit" stroke-width="inherit"><title>Wilson County</title></path><path id="county-37159" class="county feature" d="M741.038 336.702l1.897.138 2.354 2.329.606 1.324-1.665.305-6.583.996-1.016-3.03.41-3.47 1.138-.044z" vector-effect="non-scaling-stroke" fill="inherit" stroke="inherit" stroke-width="inherit"><title>Rowan County</title></path><path id="county-37147" class="county feature" d="M786.714 326.978l2.917 1.07.362 1.804 1.53 1.163-.103.176-1.026.82.158 1.892-.803 1.45-1.876.597-1.576-1.352-.736-1.607-3.397-1.91.48-.579 3.43-3.65z" vector-effect="non-scaling-stroke" fill="inherit" stroke="inherit" stroke-width="inherit"><title>Pitt County</title></path><path id="county-37035" class="county feature" d="M731.254 337.616l3.248 2.496-.291 1.462-8.61.948 1.962-4.097.359-.6 2.773-1.025z" vector-effect="non-scaling-stroke" fill="inherit" stroke="inherit" stroke-width="inherit"><title>Catawba County</title></path><path id="county-37021" class="county feature" d="M714.203 341.642l.076 2.14 1.98.921-1.275 1.334-7.034 1.853-.944-.77.257-1.866-2.054-1.83 1.15-.31 4.03-2.805 1.523-.499.927.014z" vector-effect="non-scaling-stroke" fill="inherit" stroke="inherit" stroke-width="inherit"><title>Buncombe County</title></path><path id="county-37101" class="county feature" d="M774.628 331.032l1.433 2.165.96.159-.743 3.359.258 1.241-2.018 1.613-2.706.932-.912-.812-2.389-3.026-.79-.292 2.956-4.17 2.717-2.619z" vector-effect="non-scaling-stroke" fill="inherit" stroke="inherit" stroke-width="inherit"><title>Johnston County</title></path><path id="county-37087" class="county feature" d="M705.209 343.425l2.054 1.829-.257 1.867.944.769-1.025 2.135-1.263.681-4.53-3.614.339-.8-1.814-2.449-.067-.377 2.442-1.727 1.736-.265z" vector-effect="non-scaling-stroke" fill="inherit" stroke="inherit" stroke-width="inherit"><title>Haywood County</title></path><path id="county-37013" class="county feature" d="M791.42 331.19l2.403 1.76 5.419.677.385 1.167-.13.82-3.08 1.001-.885-.539-4.98-2.173-.158-1.892zm3.157-3.61l3.05-.621.994 1.45 1.626.576-1.881 1.527 1.398 2.084-6.32-.53-1.922-1.05-1.529-1.164-.362-1.804 3.05.822z" vector-effect="non-scaling-stroke" fill="inherit" stroke="inherit" stroke-width="inherit"><title>Beaufort County</title></path><path id="county-37095" class="county feature" d="M812.697 333.64l.048.091-.048-.09zm-11.47-7.281l1.882-.25-.104 1.58 1.275-.056.384-1.966 2.295.026 1.96.161.356 1.142-1.566 3.508-1.472 1.754-1.572.111-2.329-1.075-.954 1.283-2.246-2.16 1.433-.15-.322-1.282-1.626-.575-.995-1.451z" vector-effect="non-scaling-stroke" fill="inherit" stroke="inherit" stroke-width="inherit"><title>Hyde County</title></path><path id="county-37173" class="county feature" d="M701.132 347.092l-2.354 1.2.52 2.537-4.97 1.635 1.034-3.086-5.558.23 2.46-2.233 1.611-.356 2.475-.207 3.307-2.969 1.814 2.448z" vector-effect="non-scaling-stroke" fill="inherit" stroke="inherit" stroke-width="inherit"><title>Swain County</title></path><path id="county-37079" class="county feature" d="M786.297 334.598l-2.756 2.045-1.917-.036-.993-3.702 1.533-1.824 3.397 1.91z" vector-effect="non-scaling-stroke" fill="inherit" stroke="inherit" stroke-width="inherit"><title>Greene County</title></path><path id="county-37105" class="county feature" d="M763.84 337.032l-2.456 4.546-1.491-.614-1.678-2.854 3.083-2.66z" vector-effect="non-scaling-stroke" fill="inherit" stroke="inherit" stroke-width="inherit"><title>Lee County</title></path><path id="county-37161" class="county feature" d="M723.22 342.682l.473 4.165-.478 3.44-1.6.171-1.427.153-.189-1.31-3.154-2.393-1.588.516-.273-1.387 1.276-1.334 2.93-.37 2.083-1.27z" vector-effect="non-scaling-stroke" fill="inherit" stroke="inherit" stroke-width="inherit"><title>Rutherford County</title></path><path id="county-37191" class="county feature" d="M780.63 332.905l.994 3.702.261 3.632-.772.73-2.4-.403-1.76.398-2.435-1.395 2.018-1.613-.258-1.241.742-3.36z" vector-effect="non-scaling-stroke" fill="inherit" stroke="inherit" stroke-width="inherit"><title>Wayne County</title></path><path id="county-37085" class="county feature" d="M767.72 336.37l.791.293 2.389 3.026-.887 1.496-3.147.315-3.802 1.976-2.138-1.07.458-.828 2.456-4.546.629-1.287z" vector-effect="non-scaling-stroke" fill="inherit" stroke="inherit" stroke-width="inherit"><title>Harnett County</title></path><path id="county-37045" class="county feature" d="M725.56 342.613l1.629 2.51 2.506 2.65.151 1.823-.578.063-6.053.628.478-3.44-.472-4.165z" vector-effect="non-scaling-stroke" fill="inherit" stroke="inherit" stroke-width="inherit"><title>Cleveland County</title></path><path id="county-37109" class="county feature" d="M734.21 341.574l.371 1.085.13 1.64-7.522.824-1.629-2.51.041-.09z" vector-effect="non-scaling-stroke" fill="inherit" stroke="inherit" stroke-width="inherit"><title>Lincoln County</title></path><path id="county-37099" class="county feature" d="M701.132 347.092l4.53 3.614-.528 3.125-.894 1.6.789.385-1.425.708-.005.004-4.301-5.7-.52-2.536z" vector-effect="non-scaling-stroke" fill="inherit" stroke="inherit" stroke-width="inherit"><title>Jackson County</title></path><path id="county-37119" class="county feature" d="M736.93 341.936l2.494 4.148 1.916.818-3.698 4.566-1.219-1.239-1.933.897-.187-1.939.408-4.887-.13-1.64z" vector-effect="non-scaling-stroke" fill="inherit" stroke="inherit" stroke-width="inherit"><title>Mecklenburg County</title></path><path id="county-37125" class="county feature" d="M758.215 338.11l1.678 2.854 1.491.614-.458.828 2.138 1.07.034.342-2.083-.327-1.41 1.188-1.46 2.526-1.746-.132-.959-1.7-1.53-1.414-1.896-4.643 3.159-.616z" vector-effect="non-scaling-stroke" fill="inherit" stroke="inherit" stroke-width="inherit"><title>Moore County</title></path><path id="county-37123" class="county feature" d="M752.014 339.316l1.897 4.643 1.53 1.413-3.608.246-3.208 1.317-.613-1.734.257-2.578-2.374-2.13 1.719-.314z" vector-effect="non-scaling-stroke" fill="inherit" stroke="inherit" stroke-width="inherit"><title>Montgomery County</title></path><path id="county-37025" class="county feature" d="M744.23 340.798l-2.152 6.447-.738-.343-1.916-.818-2.494-4.148.717-.142z" vector-effect="non-scaling-stroke" fill="inherit" stroke="inherit" stroke-width="inherit"><title>Cabarrus County</title></path><path id="county-37167" class="county feature" d="M745.895 340.493l2.374 2.13-.257 2.578.613 1.734-3.177-.48-1.127.769-2.243.02 2.152-6.446z" vector-effect="non-scaling-stroke" fill="inherit" stroke="inherit" stroke-width="inherit"><title>Stanly County</title></path><path id="county-37089" class="county feature" d="M714.984 346.037l.273 1.387-.97 2.292.137 1.674-3.206 1.331-1.077-2.872-2.191-1.959z" vector-effect="non-scaling-stroke" fill="inherit" stroke="inherit" stroke-width="inherit"><title>Henderson County</title></path><path id="county-37075" class="county feature" d="M694.329 352.464l-.27.623-2.147.149-1.604.93-1.244-1.264-.152-2.108.766-1.231.126.045 5.558-.23z" vector-effect="non-scaling-stroke" fill="inherit" stroke="inherit" stroke-width="inherit"><title>Graham County</title></path><path id="county-37107" class="county feature" d="M787.873 335.95l-.822 2.301-1.325 3.286-1.683 1.545-1.07-2.43-1.088-.413-.261-3.632 1.917.036 2.756-2.045z" vector-effect="non-scaling-stroke" fill="inherit" stroke="inherit" stroke-width="inherit"><title>Lenoir County</title></path><path id="county-37175" class="county feature" d="M711.218 352.721l-2.619 1.83-1.968.501-1.602.764-.79-.386.895-1.599.528-3.125 1.263-.68 1.025-2.136 2.191 1.959z" vector-effect="non-scaling-stroke" fill="inherit" stroke="inherit" stroke-width="inherit"><title>Transylvania County</title></path><path id="county-37071" class="county feature" d="M734.711 344.3l-.408 4.887-4.457.409-.151-1.822-2.506-2.651z" vector-effect="non-scaling-stroke" fill="inherit" stroke="inherit" stroke-width="inherit"><title>Gaston County</title></path><path id="county-37049" class="county feature" d="M800.006 342.006l-.892 1.161-4.786 1.817-1.344-4.902.987-.719 2.676 2.294zm-9.454-8.103l4.98 2.173-.808 2.435.81.76-1.554-.576-1.27 1.455-5.659-1.899.822-2.301 1.876-.597z" vector-effect="non-scaling-stroke" fill="inherit" stroke="inherit" stroke-width="inherit"><title>Craven County</title></path><path id="county-37149" class="county feature" d="M720.188 350.61l-3.72.382-2.044.398-.138-1.674.971-2.292 1.588-.516 3.154 2.394z" vector-effect="non-scaling-stroke" fill="inherit" stroke="inherit" stroke-width="inherit"><title>Polk County</title></path><path id="county-37113" class="county feature" d="M703.599 356.528l-5.61.893-3.048-2.78-1.19.247.309-1.8.269-.624 4.969-1.635z" vector-effect="non-scaling-stroke" fill="inherit" stroke="inherit" stroke-width="inherit"><title>Macon County</title></path><path id="county-37137" class="county feature" d="M795.534 339.272l-.81-.761.808-2.435.885.54 3.08-1.001.13-.82 1.493-1.082.528 1.74-2.2 1.482 1.642.02-.45 1.525-2.652 2.639-2.412-1.035z" vector-effect="non-scaling-stroke" fill="inherit" stroke="inherit" stroke-width="inherit"><title>Pamlico County</title></path><path id="county-37163" class="county feature" d="M774.518 339.569l2.435 1.395 1.255 5.263-.219 3.21 1.358.033-1.527 3.515-1.506-1.965-3.138-2.96-2.71-2.088-.725-1.803.272-2.984.887-1.496.912.812z" vector-effect="non-scaling-stroke" fill="inherit" stroke="inherit" stroke-width="inherit"><title>Sampson County</title></path><path id="county-37039" class="county feature" d="M694.06 353.087l-.308 1.8-1.74.579-1.87 3.088-1.886.232-2.882.342-.062-4.134 1.041-1.262 1.367.306 1.344-1.136 1.244 1.263 1.604-.93z" vector-effect="non-scaling-stroke" fill="inherit" stroke="inherit" stroke-width="inherit"><title>Cherokee County</title></path><path id="county-37051" class="county feature" d="M770.013 341.185l-.272 2.984.726 1.803 2.709 2.087-6 1.517-2.394-1.841-1.126-1.491-.558-2.426-.034-.342 3.802-1.976z" vector-effect="non-scaling-stroke" fill="inherit" stroke="inherit" stroke-width="inherit"><title>Cumberland County</title></path><path id="county-37103" class="county feature" d="M792.71 340.15l.274-.068 1.344 4.902-1.063.556-1.483-1.899-1.971.147-2.242-.662-2.584.434-.942-.478 1.683-1.545 1.325-3.286z" vector-effect="non-scaling-stroke" fill="inherit" stroke="inherit" stroke-width="inherit"><title>Jones County</title></path><path id="county-37007" class="county feature" d="M748.625 346.935l1.398.865.895-.767 1.02 1.219.839 2.607-.873 1.946-.033.006-5.883.851-.54-7.207z" vector-effect="non-scaling-stroke" fill="inherit" stroke="inherit" stroke-width="inherit"><title>Anson County</title></path><path id="county-37093" class="county feature" d="M763.098 343.818l.558 2.426 1.126 1.49-1.945 2.65-2.36.32-.42-1.942-1.912-1.557 1.46-2.526 1.41-1.188z" vector-effect="non-scaling-stroke" fill="inherit" stroke="inherit" stroke-width="inherit"><title>Hoke County</title></path><path id="county-37179" class="county feature" d="M745.448 346.455l.54 7.207-3.667.539-3.513.528-.113-2.166-1.053-1.095 3.698-4.566.738.343 2.243-.021z" vector-effect="non-scaling-stroke" fill="inherit" stroke="inherit" stroke-width="inherit"><title>Union County</title></path><path id="county-37061" class="county feature" d="M781.885 340.24l1.087.412 1.071 2.43.942.478.55.937.282 3.752-6.47 1.221-1.358-.033.219-3.21-1.255-5.263 1.76-.398 2.4.403z" vector-effect="non-scaling-stroke" fill="inherit" stroke="inherit" stroke-width="inherit"><title>Duplin County</title></path><path id="county-37153" class="county feature" d="M755.44 345.372l.959 1.701 1.746.132-1.529 1.24.432 1.492-1.545 2.284-3.6.584.874-1.946-.84-2.607-1.019-1.219-.895.767-1.398-.865 3.208-1.317z" vector-effect="non-scaling-stroke" fill="inherit" stroke="inherit" stroke-width="inherit"><title>Richmond County</title></path><path id="county-37043" class="county feature" d="M693.752 354.888l1.19-.247 3.047 2.78-1.002.146-5.814.85-1.03.137 1.87-3.088z" vector-effect="non-scaling-stroke" fill="inherit" stroke="inherit" stroke-width="inherit"><title>Clay County</title></path><path id="county-37031" class="county feature" d="M793.493 345.87l-.228-.33 1.063-.556 4.786-1.817.892-1.161-.122-1.375 3.59-1.323-.347 1.188 2.711-.9-2.03 3.182-.527 1.884-.965.245-1.045-1.522-.728 1.985-2.982.445-2.889 1.569z" vector-effect="non-scaling-stroke" fill="inherit" stroke="inherit" stroke-width="inherit"><title>Carteret County</title></path><path id="county-37165" class="county feature" d="M760.478 350.704l.45 1.195-1.475 2.967-3.95-2.645 1.545-2.284-.432-1.493 1.53-1.24 1.91 1.558z" vector-effect="non-scaling-stroke" fill="inherit" stroke="inherit" stroke-width="inherit"><title>Scotland County</title></path><path id="county-37133" class="county feature" d="M793.265 345.54l.228.33.854.953-2.767 4.017-2.316 2.102-.984-.484-2.463-4.21-.283-3.75-.55-.938 2.585-.434 2.242.662 1.971-.147z" vector-effect="non-scaling-stroke" fill="inherit" stroke="inherit" stroke-width="inherit"><title>Onslow County</title></path><path id="county-37155" class="county feature" d="M767.176 349.576l1.92 2.434-.287 4.003-1.093.85-1.298 3.096-.026-.021-6.736-4.929-.203-.143 1.475-2.967-.45-1.195 2.359-.32 1.945-2.65z" vector-effect="non-scaling-stroke" fill="inherit" stroke="inherit" stroke-width="inherit"><title>Robeson County</title></path><path id="county-37017" class="county feature" d="M777.82 352.985l1.477 1.412-.966 1.443-2.768.957-3.651-1.097-3.103.313.288-4.003-1.92-2.434 5.999-1.517 3.138 2.961z" vector-effect="non-scaling-stroke" fill="inherit" stroke="inherit" stroke-width="inherit"><title>Bladen County</title></path><path id="county-37141" class="county feature" d="M786.864 356.284l-.066-.053.066.053zm-1.047-8.035l2.463 4.21.984.483-2.79 3.375-1.595-1.53-2.069.52-.832 1.14-2.084-.086-1.563-.521.966-1.443-1.477-1.412 1.527-3.515z" vector-effect="non-scaling-stroke" fill="inherit" stroke="inherit" stroke-width="inherit"><title>Pender County</title></path><path id="county-37047" class="county feature" d="M778.331 355.84l1.563.521-.89 2.862-1.766.55-.502 1.354-1.86.21.046 1.753-.964 2.274-7.54-5.405 1.298-3.095 1.093-.851 3.103-.313 3.651 1.097z" vector-effect="non-scaling-stroke" fill="inherit" stroke="inherit" stroke-width="inherit"><title>Columbus County</title></path><path id="county-37129" class="county feature" d="M784.804 363.634l-.032-.078.032.078zm1.67-7.317l.324-.086.066.053-1.68 3.03-.545 1.978-1.088-2.482-1.573-2.364.832-1.14 2.069-.519z" vector-effect="non-scaling-stroke" fill="inherit" stroke="inherit" stroke-width="inherit"><title>New Hanover County</title></path><path id="county-37019" class="county feature" d="M775.751 366.65l-.116-.084.116.084zm9.02-3.094l.033.078-.032-.078zm-2.793-7.11l1.573 2.364.818 4.026-.702 1.79-2.191-.08-3.946 1.035-1.917.962-.211-.141-.072-.057-1.372-.981.964-2.274-.045-1.752 1.859-.211.502-1.354 1.766-.55.89-2.862z" vector-effect="non-scaling-stroke" fill="inherit" stroke="inherit" stroke-width="inherit"><title>Brunswick County</title></path></g><path id="counties-mesh" class="counties mesh" d="M725.388 323.373l2.07 3.673-2.929 2.837-4.131-2.246m11.654-5.07l-.482 3.14-.8.655-1.194-1.084-2.118 1.768m11.398-5.372l.714 5.404.057.378-1.431-.548-4.755 1.654-.207-1.694-1.664-1.162m64.232-14.643l.886.59 1.063 2.326-1.45.805-1.557 1.315-1.635-.883-2.524-.286-.207-2.624m-96.626 42.582l-1.74.578-1.87 3.088-1.886.232-2.882.342-.062-4.134 1.041-1.262 1.367.306 1.344-1.136-.152-2.108.766-1.231.126.045 2.46-2.233 1.611-.356 2.475-.207 3.307-2.969-.067-.377 2.442-1.727 1.736-.265.54-3.007 1.206.273.353-1.319 2-1.749.573.412.075 1.368 1.537-.413 1.059-1.962 2.65-1.989 2.243.693 1.736-3.348.157-.431 2.5-2.365.194-3.785 4.797-.48 6.664-.805.946-.101 3.315-.513 2.543-.28 5.691-.796.384-.065 4.581-.775 2.995-.498.588-.104 1.868-.34 1.812-.327 1.175-.213 5.003-.905.907-.172 4.048-.757 1.94-.391 4.055-.777 2.135-.42 1.93-.388 6.859-1.338 1.93-.412 3.621-.689-.025-.152 5.45-1.091.73-.152 2.596-.54 2.776-.588 1.262-.27 1.134 2.447 2.175 1.983 2.04 3.647-2.983-3.114-1.278-1.194-1.48.033-3.646-2.944m6.124-1.306l.36-.078 2.632 5.59-.035.016-.886-.956-2.071-4.572m-1.298.28l-.47.101 1.346-.289-.615.135-.261.054m-59.024 11.466l.783 5.32-6.144.946m64.685-13.796l2.243 2.957-1.64-.082-3.838-2.74-4.332-1.765m-20.65 3.482l.162.696.235 2.35-.745 3.584-4.627-.334.29-.829-1.505-4.271m16.909-3.335l.913 1.21-.453 4.453-.93 1.691-1.553-.558-1.209-1.884-1.456.69-.555-2.101-1.538-.904-3.776.238m14.385-.9l2.411.372 1.333 1.97-7.112 1.386m-24.264-1.008l.953 5.685-2.197.339-2.989.48-.77-5.599m13.113 2.875l-1.34 2.206-1.13-.001-1.173-5.134.488-1.78m.685 6.914l-.2 2.97-3.147-.36-.899-.29-.44-2.62m-5.187.819l-1.524.24-4.055.625m47.879-11.602l.482 1.326 2.883 2.205-1.44.833-2.13-1.337-1.457-.503-1.607-1.962m-64.31 14.583l.412 3.379-2.144.533-4.28 1.616-3.554-1.763.654-2.444m-.654 2.444l-3.898.706-1.744-1.727-.336-1.304m82.919-13.558l1.794 1.753-.86.24-3.327-1.156 2.596 1.487-2.677.724-1.31-.215-.73-4.493m2.04 4.708l1.25.077-1.29 1.443-2.84-.573-.748-1.428.03-2.912m-55.117 11.357l.52 1.903-.58 1.824-2.906.396-2.808.362m-13.876 1.092l1.216.686-.754 2.093-2.008.348-.436.98-.862-.457-1.13-2.902m70.284-13.432l.987 1.188-1.158.642-.854 1.518-1.926-.242-.304-.963-2.643-.682-2.737.704-1.962-.75-2.296 7.818-.998-1.252-4.004-1.725m-15.885-7.066l.634 5.48.018.135-7.445.978.661 4.604-5.077 1.567-1.731-1.12m13.592-6.029l.967 6.37-7.52.894-.23-1.682m10.82-6.342l1.33 6.791.281.57-4.503.813-.178-1.044m40.203-14.252l-.121 1.804 1.666 2.774-.033 1.277-.626 1.256-1.166-.138-.78 1.321-.8-1.315-.823.977-1.065-1.356-2.074.432-.36-1.196-2.031-.929m-24.407 1.495l.294 7.146-3.478.365m6.721-4.94l.946 1.016-1.475 2.988-1.098.189-1.616.382m52.736-6.857l.654 1.39.451 7.043-3.099 1.335-.048-.09 3.102-2.16-.463-5.882-.597-1.636m-6.494-9.387l4.456 6.148-3.182-2.767-1.31-3.364m-90.214 22.546l-2.007 1.957-1.491-3.382-3.386-.637m74.15-11.38l1.251 1.659.202 1.622-.64-.125-3.43 3.65-1.864-2.523-1.272-.51m-52.08 6.62l.494 3.734-.36.601-2.876.263-4.247-2.876m-4.451 3.284l-1.785 2.546-1.364-1.818-.927-.014-1.86-2.771m70.337-15.23l-.881 5.662-4.88 3.561-1.234-1.45-2.717 2.619-2.957 4.17-3.251-.626-1.3-.295.45-5.012m31.596-6.055l-.638 3.198-1.896 1.289-3.05-.822-2.917-1.07m-74.802 12.832l-1.523.499-4.03 2.804-1.15.312-1.44-1.951m37.53-9.171l.68 1.375-1.353 1.585.412 1.44-2.859-1.453-1.138.044-.38-3.715m.38 3.715l-.41 3.47 1.016 3.03-.717.142-2.349.723-.37-1.085.291-1.462-3.248-2.496 1.066-3.592-.611-1.55m-.455 5.142l-.56-.816-2.772 1.024m18.684-5.406l1.008 7.761-1.719.314-.606-1.324-2.354-2.33-1.897-.137m-13.475 1.723l-1.962 4.097-.04.09-2.34.07-1.948.382-1.077-2.594-1.983-1.382.97-1.599-.752-1.329m82.795-9.801l-3.6.6-3.049.622m1.264-4.454l4.232-2.017.66.845m-79.46 21.109l-2.084 1.27-2.93.37-1.98-.922-.076-2.14m40.1-9.074l.87 6.132-3.159.616-4.4.863m16.855-4.434l-.63 1.287-2.541-1.582-3.083 2.66-3.042.59m27.472-8.198l-.481.579-1.533 1.824-3.61.45-.96-.158-1.433-2.165m-19.188 14.34l-3.607.246-3.208 1.317-.613-1.734.257-2.578-2.374-2.13-1.665.305-6.583.996m51.984-13.746l.362 1.804 1.53 1.163-.103.176-1.026.82.158 1.892-.803 1.45-1.876.597-1.576-1.352-.736-1.607-3.397-1.91m-47.953 10.493l-8.61.948m-9.341 2.181l-1.276 1.334-7.034 1.853-.944-.77.257-1.866-2.054-1.83m71.811-10.068l-.742 3.359.258 1.241-2.018 1.613-2.706.932-.912-.812-2.389-3.026-.79-.292m-52.464 11.053l-.97 2.292.137 1.674-3.206 1.331-1.077-2.872-2.191-1.959-1.025 2.135-1.263.681-4.53-3.614.339-.8-1.814-2.449m91.763-12.652l2.403 1.76 5.419.676.385 1.167-.13.82-3.08 1.001-.885-.539-4.98-2.173m7.074-6.944l.995 1.45 1.626.576-1.881 1.527 1.398 2.084-6.32-.53-1.922-1.05m21.223 2.715l-.048-.09m-8.033-7.974l-.384 1.966-1.275.055.104-1.58-1.883.25-.493-4.403 2.66-1.772 1.61-.259 1.45 5.523-1.789.22 2.295.026m1.96.161l-1.96-.161-.475-4.134 2.426-1.206 1.078.557 1.246 4.716-1.618 1.128-.696-.9.355 1.142-1.566 3.508-1.472 1.754-1.572.111-2.329-1.075-.954 1.283-2.246-2.16 1.433-.15-.322-1.282m-99.115 18.107l-2.354 1.2.52 2.537-4.97 1.635 1.034-3.086-5.558.23m96.493-15.01l-2.756 2.045-1.917-.036-.993-3.702m-16.791 4.127l-2.456 4.546-1.491-.614-1.678-2.854m-34.994 4.572l.472 4.165-.478 3.44-1.6.171-1.427.153-.189-1.31-3.154-2.393-1.588.516-.273-1.387m66.64-9.43l.261 3.632-.772.73-2.4-.403-1.76.398-2.435-1.395m-3.618.12l-.887 1.496-3.147.315-3.802 1.976-2.138-1.07.458-.828m-35.824 1.035l1.629 2.51 2.506 2.65.151 1.823-.578.063-6.053.628m11.366-7.628l.13 1.64-7.522.824m-21.527 5.583l-.528 3.125-.894 1.6.789.385-1.425.708-.005.004-4.301-5.7m37.632-8.892l2.494 4.148 1.916.818-3.698 4.566-1.219-1.239-1.933.897-.187-1.939.408-4.887m28.353-.824l.034.342-2.083-.327-1.41 1.188-1.46 2.526-1.746-.132-.959-1.7-1.53-1.414-1.896-4.643m-7.784 1.482l-2.152 6.447-.738-.343m7.285.033l-3.177-.48-1.127.769-2.243.02m-47.75 5.22l-.268.623-2.148.149-1.604.93-1.244-1.264m98.809-16.952l-.822 2.301-1.325 3.286-1.683 1.545-1.07-2.43-1.088-.413m-70.667 12.482l-2.619 1.83-1.968.501-1.602.764m29.274-6.629l-4.457.409m65.686-13.52l-.808 2.435.81.76-1.554-.576-1.27 1.455-5.659-1.899m-66.863 12.36l-3.72.381-2.044.398m-10.825 5.138l-5.61.893-3.048-2.78-1.19.247.309-1.8m105.567-18.294l1.493-1.081.528 1.74-2.2 1.482 1.642.02-.45 1.525-2.652 2.639-2.412-1.035-.042-.812m-18.581 1.692l1.255 5.263-.219 3.21 1.358.033-1.527 3.515-1.506-1.965-3.138-2.96-2.71-2.088-.725-1.803.272-2.984m3.163 6.874l-6 1.517-2.394-1.841-1.126-1.491-.558-2.426m29.611-3.668l.275-.068m1.344 4.902l-1.063.556-1.483-1.899-1.971.147-2.242-.662-2.584.434-.942-.478m-35.418 3.853l1.398.865.895-.767 1.02 1.219.839 2.607-.873 1.946-.033.006-5.883.851-.54-7.207m.54 7.207l-3.667.539-3.513.528-.113-2.166-1.053-1.095m47.343-7.908l.55.937.282 3.752-6.47 1.221m-14.565-1.735l-1.945 2.65-2.36.32-.42-1.943-1.912-1.557-1.529 1.24.432 1.492-1.545 2.284-3.6.584m-53.914 4.616l-1.002.146-5.814.85-1.03.137m109.863-16.548l-.892 1.161-4.786 1.817-1.344-4.902.987-.719 2.676 2.294 3.359.349-.122-1.375 3.59-1.323-.347 1.188 2.711-.9-2.03 3.182-.527 1.884-.965.245-1.045-1.522-.728 1.985-2.982.445-2.889 1.569-1.18-1.513-.227-.331m-32.787 5.164l.45 1.195-1.475 2.967-3.95-2.645m37.99-6.35l.854.952-2.767 4.017-2.316 2.102-.984-.484-2.463-4.21m-18.64 1.328l1.92 2.434-.288 4.003-1.093.85-1.298 3.096-.026-.021-6.736-4.929-.203-.143m18.367-1.881l1.477 1.412-.966 1.443-2.768.957-3.651-1.097-3.103.313m20.455-3.071l-2.79 3.375-1.595-1.53-2.069.52-.832 1.14-2.084-.086-1.563-.521m1.563.521l-.89 2.862-1.766.55-.502 1.354-1.86.21.046 1.753-.964 2.274-7.54-5.405m20.055-3.642l.325-.086m.066.053l-.066-.053.066.053-1.68 3.03-.545 1.978-1.088-2.482-1.573-2.364m-6.227 10.204l-.116-.084.116.084m9.053-3.016l-.032-.078.032.078-.032-.078m-1.221-4.746l.818 4.026-.702 1.79-2.191-.08-3.946 1.035-1.917.962-.211-.141-.072-.057-1.372-.981" vector-effect="non-scaling-stroke" fill="inherit" stroke="inherit" stroke-width="inherit"/></svg>