<svg xmlns="http://www.w3.org/2000/svg" version="1.2" id="root" viewBox="124.2990092126671 105.5476643018958 119.01395706569457 100.39665860226262"><g id="counties"><path id="county-41007" class="county feature" d="M158.808 109.561l-1.88 6.476-7.55-2.327.579-3.005 1.164-.884.026-4.273 1.114 1.259 1.872.121 2.09.993 1.416-.519z" vector-effect="non-scaling-stroke" fill="inherit" stroke="inherit" stroke-width="inherit"><title>Clatsop County</title></path><path id="county-41009" class="county feature" d="M164.494 116.875l-.347 2.277-2.118-.5-.983-1.394-4.117-1.22 1.879-6.477 2.049-.008 1.222.113 2.148 2.605z" vector-effect="non-scaling-stroke" fill="inherit" stroke="inherit" stroke-width="inherit"><title>Columbia County</title></path><path id="county-41059" class="county feature" d="M225.437 129.971l.245.06-.54 2.557-2.569 2.694-.937 3.955-1.218.549-2.933-.737-.313 1.342-3.486-.65-.115 2.824 1.395.337-.529 3.737-8.266-2.025.622-1.523 1.965-7.85-1.308-.327.388-1.554-2.362-.607 1.473-5.702 3.92.7 2.062-.778z" vector-effect="non-scaling-stroke" fill="inherit" stroke="inherit" stroke-width="inherit"><title>Umatilla County</title></path><path id="county-41063" class="county feature" d="M230.415 131.17l1.55.378 7.125 1.66.978 2.886 2.715 2.582.53 2.745-1.612 1.72-2.627 3.983-2.008 3.166-6.197-1.427.348-1.551-2.695-.606-.629-3.464-.785-.159.238-3.358-.577-3.477 1.236-2.997-2.863-.663.54-2.558z" vector-effect="non-scaling-stroke" fill="inherit" stroke="inherit" stroke-width="inherit"><title>Wallowa County</title></path><path id="county-41049" class="county feature" d="M206.95 127.05l-1.474 5.703 2.362.607-.388 1.554 1.308.327-1.965 7.85-.622 1.523-6.498-1.606-1.522-.392.347-1.321.847-1.71-1.56-.44.416-1.56-1.578-.433 2.68-10.013 1.767.002 2.596.26 1.555-.925z" vector-effect="non-scaling-stroke" fill="inherit" stroke="inherit" stroke-width="inherit"><title>Morrow County</title></path><path id="county-41061" class="county feature" d="M230.87 148.863l-3.812-.85-.375 1.58-2.75-.627-1.104-1.538-1.676.843-1.527-1.334-1.835 1.23-3.354-1.528.529-3.737-1.395-.337.115-2.824 3.486.65.313-1.342 2.933.737 1.218-.55.937-3.954 2.569-2.694 2.863.663-1.236 2.997.577 3.477-.238 3.358.785.16.63 3.463 2.694.606z" vector-effect="non-scaling-stroke" fill="inherit" stroke="inherit" stroke-width="inherit"><title>Union County</title></path><path id="county-41021" class="county feature" d="M198.498 141.295l-8.99-2.35-.031-.288.104-2.47 1.88-4.449 1.86-.308-.229-1.719-2.391-3.371 1.958 1.333 3.518.356 3.126-.89-2.68 10.013 1.578.434-.415 1.559 1.559.44z" vector-effect="non-scaling-stroke" fill="inherit" stroke="inherit" stroke-width="inherit"><title>Gilliam County</title></path><path id="county-41057" class="county feature" d="M156.929 116.037l-.376 1.271-1.547-.467.38 1.533 1.398.977-2.639 1.47-.357 1.02-1.136 3.903-4.046-1.206-.762 2.499.768.235-.19.569-3.464-1.064 2.816-6.202 1.603-6.865z" vector-effect="non-scaling-stroke" fill="inherit" stroke="inherit" stroke-width="inherit"><title>Tillamook County</title></path><path id="county-41067" class="county feature" d="M162.03 118.652l-.462 1.584 1.725 2.727-.436 1.542-.536 1.823-1.637-.192-2.759-3.062-4.137-1.233.357-1.02 2.64-1.47-1.399-.977-.38-1.533 1.547.467.376-1.27 4.117 1.22z" vector-effect="non-scaling-stroke" fill="inherit" stroke="inherit" stroke-width="inherit"><title>Washington County</title></path><path id="county-41055" class="county feature" d="M189.477 138.657l-2.875-.779.304-.828-1.405-1.623-1.99-.997.539-1.526 2.283-.986 1.092-2.063-.494-2.67 3.77-.845 2.391 3.371.229 1.719-1.86.308-1.88 4.45z" vector-effect="non-scaling-stroke" fill="inherit" stroke="inherit" stroke-width="inherit"><title>Sherman County</title></path><path id="county-41051" class="county feature" d="M164.147 119.152l-.266 1.492 1.269 1.167 4.515 2.425 4.626-.664-.514 1.84.852 1.89-10.341-2.921-1.43.124.435-1.542-1.725-2.727.461-1.584z" vector-effect="non-scaling-stroke" fill="inherit" stroke="inherit" stroke-width="inherit"><title>Multnomah County</title></path><path id="county-41027" class="county feature" d="M180.587 124.385l-.874 3.204-.528-.151-1.28 4.71-2.733-.747.594-2.076-1.137-2.022-.852-1.89.514-1.841 1.726-.623 3.676.658z" vector-effect="non-scaling-stroke" fill="inherit" stroke="inherit" stroke-width="inherit"><title>Hood River County</title></path><path id="county-41065" class="county feature" d="M186.93 127.185l.495 2.67-1.092 2.063-2.283.986-.538 1.526 1.99.997 1.404 1.623-.304.828 2.875.78.032.286-.418 3.837.82 1.045-17.69-4.856.625-1.041-.264-2.482 2.112-.465-.386-2.832.864-.75 2.733.749 1.28-4.711.528.15.874-3.203 2.72 1.332-.036.955z" vector-effect="non-scaling-stroke" fill="inherit" stroke="inherit" stroke-width="inherit"><title>Wasco County</title></path><path id="county-41005" class="county feature" d="M174.63 127.303l1.136 2.022-.594 2.076-.864.749.386 2.832-2.112.465.264 2.482-8.432-2.315-1.5-1.44-.343-1.707-1.848-2.685 1.25-2.135-1.358-.41.07-1.1 1.636.191.536-1.823 1.431-.124z" vector-effect="non-scaling-stroke" fill="inherit" stroke="inherit" stroke-width="inherit"><title>Clackamas County</title></path><path id="county-41071" class="county feature" d="M160.684 126.136l-.07 1.102-2.592-.022-.026 2.076-1.125.447-8.259-2.467-.768-.235.762-2.5 4.046 1.207 1.136-3.903 4.137 1.233z" vector-effect="non-scaling-stroke" fill="inherit" stroke="inherit" stroke-width="inherit"><title>Yamhill County</title></path><path id="county-41047" class="county feature" d="M160.615 127.238l1.359.409-1.251 2.135 1.848 2.685.342 1.708 1.501 1.44 8.432 2.314-.624 1.041-.94.437-.215 1.994-5.223-1.68-.77-1.342-2.885-.833-3.365-1.721-3.187 1.124-1.411-1.642-.01-1.634 2.393-1.608.262-2.326 1.125-.447.026-2.076z" vector-effect="non-scaling-stroke" fill="inherit" stroke="inherit" stroke-width="inherit"><title>Marion County</title></path><path id="county-41001" class="county feature" d="M237.066 150.29l-1.06.863-.158 1.647-1.246 1.512-2.166 1.283-2.204 3.39-1.277.89-.716 3.348-3.455-.79.362-1.576-1.124-1.35-4.932-1.128-4.185 2.614-3.438-.807 1.655-1.87.23-1.554 2.036-2.07-2.223-2.015 3.204-.858.359-2.076 1.063-1.575 1.835-1.231 1.527 1.334 1.676-.843 1.103 1.538 2.751.627.375-1.58 3.811.85z" vector-effect="non-scaling-stroke" fill="inherit" stroke="inherit" stroke-width="inherit"><title>Baker County</title></path><path id="county-41053" class="county feature" d="M156.87 129.74l-.26 2.325-2.394 1.608.01 1.634-.228.507-5.751-1.722-1.457-.786 1.632-5.465.19-.57z" vector-effect="non-scaling-stroke" fill="inherit" stroke="inherit" stroke-width="inherit"><title>Polk County</title></path><path id="county-41069" class="county feature" d="M198.498 141.295l-.347 1.32 1.522.393-.537 3.168-2.431 9.354-3.13-.794.378-1.506-1.353-1.296-4.688-1.202.6-2.289 1.398-4.617-.82-1.045.419-3.837z" vector-effect="non-scaling-stroke" fill="inherit" stroke="inherit" stroke-width="inherit"><title>Wheeler County</title></path><path id="county-41041" class="county feature" d="M148.422 127.84l-1.632 5.466 1.457.786-1.477 5.19-1.572-.473-.322 1.32-1.385-.108.2 1.259-4.375-1.182 1.178-2.408 2.429-7.263 1.23-1.275.805-2.375z" vector-effect="non-scaling-stroke" fill="inherit" stroke="inherit" stroke-width="inherit"><title>Lincoln County</title></path><path id="county-41023" class="county feature" d="M214.437 146.64l3.354 1.528-1.063 1.575-.36 2.076-3.203.858 2.223 2.016-2.035 2.07-.23 1.552-1.656 1.871 3.438.807-.877 3.952-7.61-1.987-.41 1.593-10.927-2.709 1.624-6.312 2.431-9.354.537-3.168 6.498 1.606z" vector-effect="non-scaling-stroke" fill="inherit" stroke="inherit" stroke-width="inherit"><title>Grant County</title></path><path id="county-41031" class="county feature" d="M189.91 143.826l-1.398 4.617-5.67-1.48-.417 1.56-2.074-.553-.42 1.562-1.524-.421-9.424-2.625 2.084-5.085.215-1.994.94-.437z" vector-effect="non-scaling-stroke" fill="inherit" stroke="inherit" stroke-width="inherit"><title>Jefferson County</title></path><path id="county-41043" class="county feature" d="M171.067 141.401l-2.084 5.085-.122 2.577-6.788-1.816-.95.435-2.392-.899-1.58-1.625-2.444-.141-.331 1.051-3.32-.966.193-1.576-.248-1.256 1.053-2.833-.345-1.07 2.886-1.025-.597-1.528.228-.507 1.41 1.642 3.188-1.124 3.365 1.721 2.884.833.771 1.342z" vector-effect="non-scaling-stroke" fill="inherit" stroke="inherit" stroke-width="inherit"><title>Linn County</title></path><path id="county-41003" class="county feature" d="M153.998 135.814l.597 1.528-2.886 1.025.345 1.07-1.053 2.833.248 1.256-7.557-2.246-.2-1.259 1.384.108.322-1.32 1.572.474 1.477-5.191z" vector-effect="non-scaling-stroke" fill="inherit" stroke="inherit" stroke-width="inherit"><title>Benton County</title></path><path id="county-41013" class="county feature" d="M188.512 148.443l-.6 2.29 4.688 1.2 1.353 1.297-.377 1.506 3.129.794-1.624 6.312-1.533-.39-1.235 4.735-1.574-.408-4.679-1.22.41-1.57-1.568-.405.409-1.577-4.792-1.253.417-1.564-3.067-.886.833-3.133-1.466-.477 1.17-4.583 1.525.421.42-1.562 2.074.554.417-1.56z" vector-effect="non-scaling-stroke" fill="inherit" stroke="inherit" stroke-width="inherit"><title>Crook County</title></path><path id="county-41045" class="county feature" d="M228.239 163.223l2.933 1.786.644 1.88-1.272.96.11 1.947-1.075 1.826-.715.592-.67 2.935-6.931 30.795-15.716-3.583.98-5.161 2.75-11.68-.161-.039 4.912-20.536.877-3.952 4.185-2.614 4.932 1.129 1.124 1.35-.362 1.576z" vector-effect="non-scaling-stroke" fill="inherit" stroke="inherit" stroke-width="inherit"><title>Malheur County</title></path><path id="county-41017" class="county feature" d="M178.407 149.11l-1.17 4.584 1.465.477-.833 3.133 3.067.886-.417 1.564 4.792 1.253-.409 1.577 1.568.406-.41 1.569 4.68 1.22-.425 1.633-18.634-5.074-8.685-2.4 1.58-4.28 1.655-.608 2.323-3.276.307-2.711.122-2.577z" vector-effect="non-scaling-stroke" fill="inherit" stroke="inherit" stroke-width="inherit"><title>Deschutes County</title></path><path id="county-41039" class="county feature" d="M168.861 149.063l-.307 2.71-2.323 3.277-1.654.608-1.581 4.28-1.956.581-.609 2.104-7.921-2.198.55-1.939-4.787-1.256.908-4.467-2.702-.806-2.074-1.58-.676-1.976-2.532-1.248-1.688 1.046-3-.871 2.807-7.23 4.376 1.182 7.557 2.246-.194 1.576 3.32.966.332-1.051 2.445.14 1.579 1.626 2.392.9.95-.436z" vector-effect="non-scaling-stroke" fill="inherit" stroke="inherit" stroke-width="inherit"><title>Lane County</title></path><path id="county-41025" class="county feature" d="M214.028 164.945l-4.912 20.536.16.04-2.75 11.679-.98 5.16-15.101-3.626-.483-.13 3.386-13.778-7.653-1.79 2.06-7.891.548.118 2.012-7.851.424-1.633 1.574.408 1.235-4.735 1.533.39 10.927 2.709.41-1.593z" vector-effect="non-scaling-stroke" fill="inherit" stroke="inherit" stroke-width="inherit"><title>Harney County</title></path><path id="county-41019" class="county feature" d="M160.431 162.623l.704.843.442 2.967-2.479 2.87-2.53-.5-.392 1.31-1.542-.442-2.349.441-3.918 1.97-4.806-.904-1.252.527-2.875-.722-3.3-1.731.225-.797-1.22-.477 1.01-3.724 2.04-1.2.894-3.085-.797-.214.952-3.15-.985-1.933.501-1.66-4.404-1.378 2.158-4.306 3 .87 1.689-1.045 2.532 1.248.676 1.977 2.074 1.58 2.702.805-.908 4.467 4.787 1.256-.55 1.94z" vector-effect="non-scaling-stroke" fill="inherit" stroke="inherit" stroke-width="inherit"><title>Douglas County</title></path><path id="county-41035" class="county feature" d="M171.68 162.338l-4.519 15.697 6.129 1.688-3.597 13.633-7.535-2.114-11.128-3.307 5.146-17.822.391-1.31 2.531.5 2.479-2.87-.442-2.967-.704-.843.609-2.104 1.956-.582z" vector-effect="non-scaling-stroke" fill="inherit" stroke="inherit" stroke-width="inherit"><title>Klamath County</title></path><path id="county-41037" class="county feature" d="M189.962 198.604l-8.53-2.18-11.74-3.068 3.598-13.633-6.129-1.688 4.52-15.697 18.634 5.074-2.012 7.85-.547-.117-2.061 7.89 7.653 1.791z" vector-effect="non-scaling-stroke" fill="inherit" stroke="inherit" stroke-width="inherit"><title>Lake County</title></path><path id="county-41011" class="county feature" d="M135.139 167.978l-1.558-.186-1.42 1.323-1.936-.298.876-3.89-.854-1.681-2.885-.892 3.001-5.289 3.987-5.431 4.404 1.379-.501 1.659.985 1.933-.952 3.15.797.214-.894 3.084-2.04 1.2z" vector-effect="non-scaling-stroke" fill="inherit" stroke="inherit" stroke-width="inherit"><title>Coos County</title></path><path id="county-41029" class="county feature" d="M156.176 170.113l-5.146 17.822-12.468-3.53 3.747-12.7 1.252-.527 4.806.905 3.918-1.97 2.349-.442z" vector-effect="non-scaling-stroke" fill="inherit" stroke="inherit" stroke-width="inherit"><title>Jackson County</title></path><path id="county-41015" class="county feature" d="M135.139 167.978l1.22.477-2.328 2.266-1.49 2.148-1.563-.391-.974 2.393 1.717.645.694 2.51-1.387 1.439-.318 2.766-5.128-1.617-1.283-2.457.299-4.454 1.822-4.164.147-1.642-.835-1.692.077-2.12 1.553-1.731 2.885.892.854 1.68-.876 3.891 1.937.298 1.419-1.323z" vector-effect="non-scaling-stroke" fill="inherit" stroke="inherit" stroke-width="inherit"><title>Curry County</title></path><path id="county-41033" class="county feature" d="M136.359 168.455l-.224.797 3.299 1.73 2.875.723-3.747 12.7-3.814-1.07-4.038-1.104.318-2.766 1.387-1.439-.694-2.51-1.717-.645.974-2.393 1.564.391 1.489-2.148z" vector-effect="non-scaling-stroke" fill="inherit" stroke="inherit" stroke-width="inherit"><title>Josephine County</title></path></g><path id="counties-mesh" class="counties mesh" d="M225.682 130.03l-.54 2.558-2.569 2.694-.937 3.955-1.218.549-2.933-.737-.313 1.342-3.486-.65-.115 2.824 1.395.337-.529 3.737-8.266-2.025.622-1.523 1.965-7.85-1.308-.327.388-1.554-2.362-.607 1.473-5.702m-42.802-7.9l-.266 1.493 1.269 1.167 4.515 2.425 4.626-.664 1.726-.623 3.676.658.894.778 2.72 1.332-.036.955 3.66.513 3.77-.845 1.958 1.333 3.518.356 3.126-.89 1.767.002 2.596.26 1.555-.925 1.728.575 3.92.7 2.062-.778 12.506 2.998.245.06 4.733 1.139 1.55.378 7.125 1.66.978 2.886 2.715 2.582.53 2.745-1.612 1.72-2.627 3.983-2.008 3.166-6.197-1.427.348-1.551-2.695-.606-.629-3.464-.785-.159.238-3.358-.577-3.477 1.236-2.997-2.863-.663m-18.971 12.026l-6.498-1.606-1.522-.392.347-1.321.847-1.71-1.56-.44.416-1.56-1.578-.433 2.68-10.013m31.566 21.724l-3.811-.85-.375 1.58-2.75-.627-1.104-1.538-1.676.843-1.527-1.334-1.835 1.23-3.354-1.528m-15.939-5.344l-8.99-2.35-.031-.288.104-2.47 1.88-4.449 1.86-.308-.229-1.719-2.391-3.371m-31.893-16.779l-1.88 6.476-7.55-2.327.579-3.005 1.164-.884.026-4.273 1.114 1.259 1.872.121 2.09.993 1.416-.519 1.169 2.16 2.049-.009 1.222.113 2.148 2.605.267 4.604-.347 2.277-2.118-.5-.983-1.394-4.117-1.22-.376 1.27-1.547-.467.38 1.533 1.398.977-2.639 1.47-.357 1.02-1.136 3.903-4.046-1.206-.762 2.499.768.235-.19.569-3.464-1.064 2.816-6.202 1.603-6.865m12.652 4.942l-.461 1.584 1.725 2.727-.436 1.542-.536 1.823-1.637-.192-2.759-3.062-4.137-1.233m35.689 16.816l-2.875-.779.304-.828-1.405-1.623-1.99-.997.539-1.526 2.283-.986 1.092-2.063-.494-2.67m-12.64-3.613l-.514 1.84.852 1.89-10.341-2.921-1.43.124m17.729-.12l-.874 3.204-.528-.151-1.28 4.71-2.733-.747.594-2.076-1.137-2.022m14.88 11.641l-.418 3.837.82 1.045-17.69-4.856.625-1.041-.264-2.482 2.112-.465-.386-2.832.864-.75m-2.326 6.529l-8.432-2.315-1.5-1.44-.343-1.707-1.848-2.685 1.25-2.135-1.358-.41.07-1.1m-.07 1.1l-2.593-.02-.026 2.075-1.125.447-8.259-2.467m23.61 11.698l-.94.437-.215 1.994-5.223-1.68-.77-1.342-2.885-.833-3.365-1.721-3.187 1.124-1.411-1.642-.01-1.634 2.393-1.608.262-2.326m80.195 20.551l-1.06.863-.158 1.647-1.246 1.512-2.166 1.283-2.204 3.39-1.277.89-.716 3.348-3.455-.79.362-1.576-1.124-1.35-4.932-1.128-4.185 2.614-3.438-.807 1.655-1.87.23-1.554 2.036-2.07-2.223-2.015 3.204-.858.359-2.076 1.063-1.575m-63.565-12.86l-.228.506-5.751-1.722-1.457-.786 1.632-5.465m51.25 15.167l-.536 3.168-2.431 9.354-3.13-.794.378-1.506-1.353-1.296-4.688-1.202.6-2.289 1.398-4.617m-41.663-9.734l-1.477 5.19-1.572-.473-.322 1.32-1.385-.108.2 1.259-4.375-1.182 1.178-2.408 2.429-7.263 1.23-1.275.805-2.375m69.947 34.216l-.877 3.952-7.61-1.987-.41 1.593-10.927-2.709 1.624-6.312m-8.193-7.087l-5.67-1.48-.417 1.56-2.074-.553-.42 1.562-1.524-.421-9.424-2.625 2.084-5.085m-2.084 5.085l-.122 2.577-6.788-1.816-.95.435-2.392-.899-1.58-1.625-2.444-.141-.331 1.051-3.32-.966.193-1.576-.248-1.256 1.053-2.833-.345-1.07 2.886-1.025-.597-1.528m-2.749 7.712l-7.557-2.246m51.389 20.562l-1.533-.39-1.235 4.735-1.574-.408-4.679-1.22.41-1.57-1.568-.405.409-1.577-4.792-1.253.417-1.564-3.067-.886.833-3.133-1.466-.477 1.17-4.583m49.833 14.112l2.933 1.786.644 1.88-1.272.96.11 1.947-1.075 1.826-.715.592-.67 2.935-6.931 30.795-15.716-3.583.98-5.161 2.75-11.68-.161-.039 4.912-20.536m-23.289.834l-.424 1.633-18.634-5.074-8.685-2.4 1.58-4.28 1.655-.608 2.323-3.276.307-2.711m-5.865 10.874l-1.956.582-.609 2.104-7.921-2.198.55-1.939-4.787-1.256.908-4.467-2.702-.806-2.074-1.58-.676-1.976-2.532-1.248-1.688 1.046-3-.871 2.807-7.23m66.23 62.263l-15.101-3.627-.483-.13 3.386-13.778-7.653-1.79 2.06-7.891.548.118 2.012-7.851m-29.884-4.789l.704.843.442 2.967-2.479 2.87-2.53-.5-.392 1.31-1.542-.442-2.349.441-3.918 1.97-4.806-.904-1.252.527-2.875-.722-3.3-1.731.225-.797-1.22-.477 1.01-3.724 2.04-1.2.894-3.085-.797-.214.952-3.15-.985-1.933.501-1.66-4.404-1.378 2.158-4.306m35.173 15.01l-4.52 15.697 6.129 1.688-3.597 13.633-7.535-2.114-11.128-3.307 5.146-17.822m33.786 28.491l-8.53-2.18-11.74-3.068m-34.553-25.378l-1.558-.186-1.42 1.323-1.936-.298.876-3.89-.854-1.681-2.885-.892 3.001-5.289 3.987-5.431m16.68 36.301l-12.468-3.53 3.747-12.7m-5.95-3.25l-2.328 2.266-1.49 2.148-1.563-.391-.974 2.393 1.717.645.694 2.51-1.387 1.439-.318 2.766-5.128-1.617-1.283-2.457.299-4.454 1.822-4.164.147-1.642-.835-1.692.077-2.12 1.553-1.731m11.2 22.052l-3.814-1.071-4.038-1.104" vector-effect="non-scaling-stroke" fill="inherit" stroke="inherit" stroke-width="inherit"/></svg>