<svg xmlns="http://www.w3.org/2000/svg" version="1.2" id="root" viewBox="399.4137638550875 159.5036139122335 103.29778502662998 69.13367443825473"><g id="counties"><path id="county-46105" class="county feature" d="M430.693 161.48l-.547 8.796-.517 8.102-12.59-.889.237-3.23 1.205-13.62z" vector-effect="non-scaling-stroke" fill="inherit" stroke="inherit" stroke-width="inherit"><title>Perkins County</title></path><path id="county-46031" class="county feature" d="M450.016 162.565l1.879 1.706.56 2.815-1.68 2.033-.698 1.27 1.747 1.058-14.758-.753-6.92-.418.547-8.796h.023z" vector-effect="non-scaling-stroke" fill="inherit" stroke="inherit" stroke-width="inherit"><title>Corson County</title></path><path id="county-46063" class="county feature" d="M417.778 160.585l.703.054-1.205 13.62-14.182-1.123.996-12.454.09-1.178z" vector-effect="non-scaling-stroke" fill="inherit" stroke="inherit" stroke-width="inherit"><title>Harding County</title></path><path id="county-46021" class="county feature" d="M458.22 162.97l2.107.095-.244 6.48-9.308-.426 1.68-2.033-.56-2.815-1.88-1.706z" vector-effect="non-scaling-stroke" fill="inherit" stroke="inherit" stroke-width="inherit"><title>Campbell County</title></path><path id="county-46089" class="county feature" d="M469.585 163.414l3.657.13-.196 6.48-12.837-.474-.126-.005.244-6.48z" vector-effect="non-scaling-stroke" fill="inherit" stroke="inherit" stroke-width="inherit"><title>McPherson County</title></path><path id="county-46013" class="county feature" d="M482.549 163.828l.378.009-.145 6.48-.159 6.5-9.668-.301-.062-.003.153-6.489.196-6.48z" vector-effect="non-scaling-stroke" fill="inherit" stroke="inherit" stroke-width="inherit"><title>Brown County</title></path><path id="county-46109" class="county feature" d="M501.329 164.094l-1.196 3.529-2.417 1.799.017 1.16 1.808 3.111 2.945 1.77-6.858-.057-.195.559-2.874-.05.054-4.865.076-7.037z" vector-effect="non-scaling-stroke" fill="inherit" stroke="inherit" stroke-width="inherit"><title>Roberts County</title></path><path id="county-46091" class="county feature" d="M492.69 164.013l-.077 7.037-1.907-.577-7.924-.155.145-6.481z" vector-effect="non-scaling-stroke" fill="inherit" stroke="inherit" stroke-width="inherit"><title>Marshall County</title></path><path id="county-46129" class="county feature" d="M460.083 169.545l.126.005-.272 6.486-7.236-.321-.679-1.386.608-1.13-.806-1.752-1.747-1.057.698-1.27z" vector-effect="non-scaling-stroke" fill="inherit" stroke="inherit" stroke-width="inherit"><title>Walworth County</title></path><path id="county-46045" class="county feature" d="M473.046 170.024l-.153 6.49-11.175-.401-1.78-.077.271-6.486z" vector-effect="non-scaling-stroke" fill="inherit" stroke="inherit" stroke-width="inherit"><title>Edmunds County</title></path><path id="county-46037" class="county feature" d="M482.782 170.318l7.924.155 1.907.577-.054 4.866-.035 2.724-3.523-.046-6.416-.15.038-1.627z" vector-effect="non-scaling-stroke" fill="inherit" stroke="inherit" stroke-width="inherit"><title>Day County</title></path><path id="county-46041" class="county feature" d="M451.824 171.447l.806 1.751-.608 1.13.679 1.387-.962 2.673.51 1.58-1.463-.21-.282 2.391-1.954 2.465-1.703-1.245-.59.95-2.762-.197-1.03.784-1.772-.43.26-4.612-4.798-.264.911-8.906z" vector-effect="non-scaling-stroke" fill="inherit" stroke="inherit" stroke-width="inherit"><title>Dewey County</title></path><path id="county-46137" class="county feature" d="M437.066 170.694l-.911 8.906 4.797.264-.259 4.613-1.333.965-3.002.853-1.075 1.182-2.381-.317-1.319.962-2.58.085.626-9.83.517-8.101z" vector-effect="non-scaling-stroke" fill="inherit" stroke="inherit" stroke-width="inherit"><title>Ziebach County</title></path><path id="county-46051" class="county feature" d="M502.486 175.464l.226 1.078-.012 5.45-5.682-.03.011-3.242-4.505-.08.035-2.724 2.874.049.195-.56z" vector-effect="non-scaling-stroke" fill="inherit" stroke="inherit" stroke-width="inherit"><title>Grant County</title></path><path id="county-46107" class="county feature" d="M459.937 176.036l1.781.077-.244 6.502-1.317-.051-9.653-.415.282-2.39 1.463.208-.51-1.579.962-2.673z" vector-effect="non-scaling-stroke" fill="inherit" stroke="inherit" stroke-width="inherit"><title>Potter County</title></path><path id="county-46049" class="county feature" d="M472.893 176.513l.062.003-.171 6.48-7.857-.252-3.453-.129.244-6.502z" vector-effect="non-scaling-stroke" fill="inherit" stroke="inherit" stroke-width="inherit"><title>Faulk County</title></path><path id="county-46115" class="county feature" d="M482.623 176.817l-.038 1.627-.147 9.76-9.652-.29-.002-4.918.17-6.48z" vector-effect="non-scaling-stroke" fill="inherit" stroke="inherit" stroke-width="inherit"><title>Spink County</title></path><path id="county-46019" class="county feature" d="M417.276 174.258l-.237 3.231-.685 8.113-7.977-.607-3.325-.283-3.186.37.652-7.952.576-3.994z" vector-effect="non-scaling-stroke" fill="inherit" stroke="inherit" stroke-width="inherit"><title>Butte County</title></path><path id="county-46025" class="county feature" d="M489.001 178.594l-.064 6.5-.09 4.867-4.794-.094-.006-1.622-1.609-.042.147-9.759z" vector-effect="non-scaling-stroke" fill="inherit" stroke="inherit" stroke-width="inherit"><title>Clark County</title></path><path id="county-46029" class="county feature" d="M492.524 178.64l4.505.08-.011 3.242-.059 3.224-8.022-.091.064-6.501z" vector-effect="non-scaling-stroke" fill="inherit" stroke="inherit" stroke-width="inherit"><title>Codington County</title></path><path id="county-46093" class="county feature" d="M429.63 178.378l-.627 9.829-.01.01-1.575 1.318-2.238-.388-1.248 2.715-.54 2.949-14.175-1.046.16-2.162-1.609-.118.61-6.49 7.976.607.685-8.113z" vector-effect="non-scaling-stroke" fill="inherit" stroke="inherit" stroke-width="inherit"><title>Meade County</title></path><path id="county-46039" class="county feature" d="M502.7 181.991l-.01 3.2-.016 3.275-.013 1.643-5.757-.045.055-4.878.059-3.224z" vector-effect="non-scaling-stroke" fill="inherit" stroke="inherit" stroke-width="inherit"><title>Deuel County</title></path><path id="county-46119" class="county feature" d="M460.157 182.564l-.295 6.53-11.275-.473-1.476-.753.475-2.207-1.328-1.342.589-.95 1.703 1.245 1.954-2.465z" vector-effect="non-scaling-stroke" fill="inherit" stroke="inherit" stroke-width="inherit"><title>Sully County</title></path><path id="county-46069" class="county feature" d="M461.474 182.615l3.453.13-.304 13.144-3.683-.088-1.146-.514.068-6.193.295-6.53z" vector-effect="non-scaling-stroke" fill="inherit" stroke="inherit" stroke-width="inherit"><title>Hyde County</title></path><path id="county-46059" class="county feature" d="M472.784 182.996l.002 4.918-.162 8.194-3.007-.086-4.994-.133.304-13.145z" vector-effect="non-scaling-stroke" fill="inherit" stroke="inherit" stroke-width="inherit"><title>Hand County</title></path><path id="county-46057" class="county feature" d="M496.96 185.186l-.056 4.878-3.221-.022-4.837-.08.091-4.867z" vector-effect="non-scaling-stroke" fill="inherit" stroke="inherit" stroke-width="inherit"><title>Hamlin County</title></path><path id="county-46117" class="county feature" d="M446.258 184.319l1.328 1.342-.475 2.207 1.476.753-.72 1.688 2.484.407.204 1.593 3.686 1.047 2.524 1.355-.648.847-5.725-.24-.022.486-9.06-.443-1.604-.08.697-9.75.29-1.054 1.772.43 1.03-.785z" vector-effect="non-scaling-stroke" fill="inherit" stroke="inherit" stroke-width="inherit"><title>Stanley County</title></path><path id="county-46055" class="county feature" d="M441.31 195.361l-.404 3.234-12.605-.728.692-9.65.01-.01 2.58-.085 1.319-.962 2.381.317 1.075-1.182 3.002-.853 1.333-.965-.29 1.055-.697 9.748z" vector-effect="non-scaling-stroke" fill="inherit" stroke="inherit" stroke-width="inherit"><title>Haakon County</title></path><path id="county-46005" class="county feature" d="M482.438 188.203l1.609.042.006 1.622-.132 6.536-6.379-.163-4.918-.132.162-8.194z" vector-effect="non-scaling-stroke" fill="inherit" stroke="inherit" stroke-width="inherit"><title>Beadle County</title></path><path id="county-46081" class="county feature" d="M408.377 184.995l-.609 6.49 1.609.118-.16 2.162-8.013-.659.062-.735.6-7.29 3.186-.369z" vector-effect="non-scaling-stroke" fill="inherit" stroke="inherit" stroke-width="inherit"><title>Lawrence County</title></path><path id="county-46065" class="county feature" d="M459.862 189.094l-.068 6.193.794 1.824-3.582-.188-.89-1.365.649-.847-2.524-1.355-3.686-1.047-.204-1.593-2.485-.407.721-1.688z" vector-effect="non-scaling-stroke" fill="inherit" stroke="inherit" stroke-width="inherit"><title>Hughes County</title></path><path id="county-46077" class="county feature" d="M488.846 189.961l4.837.081-.096 6.502-3.21-.023-6.399-.115-.057-.003.132-6.536z" vector-effect="non-scaling-stroke" fill="inherit" stroke="inherit" stroke-width="inherit"><title>Kingsbury County</title></path><path id="county-46011" class="county feature" d="M502.661 190.109l-.04 6.495v.002l-5.83-.022-3.204-.04.096-6.502 3.221.022z" vector-effect="non-scaling-stroke" fill="inherit" stroke="inherit" stroke-width="inherit"><title>Brookings County</title></path><path id="county-46103" class="county feature" d="M428.993 188.217l-.692 9.65-.493 5.34-1.622.044-.517.213-8.502-.591 1.871-3.014-18.3-1.384.466-5.369 8.013.66 14.176 1.045.539-2.949 1.248-2.715 2.238.388z" vector-effect="non-scaling-stroke" fill="inherit" stroke="inherit" stroke-width="inherit"><title>Pennington County</title></path><path id="county-46085" class="county feature" d="M463.708 200.743l.62 1.433-1.382 1.434-.84 2.273 1.153.05.94 2.981-3.172-.115-1.214-.048.169-4.552-.977-.327-1.98 1.221-3.31-.068-1.915-.622-1.438-.125-.255-2.449.263-6.025.022-.485 5.725.239.889 1.365 3.582.188-.794-1.824 1.146.514.118 1.71 2.72 2.09z" vector-effect="non-scaling-stroke" fill="inherit" stroke="inherit" stroke-width="inherit"><title>Lyman County</title></path><path id="county-46073" class="county feature" d="M472.624 196.108l4.918.132-.114 4.85-6.38-.127-1.596-.046.165-4.895z" vector-effect="non-scaling-stroke" fill="inherit" stroke="inherit" stroke-width="inherit"><title>Jerauld County</title></path><path id="county-46101" class="county feature" d="M502.62 196.606l-.04 6.503-5.84-.017.051-6.508z" vector-effect="non-scaling-stroke" fill="inherit" stroke="inherit" stroke-width="inherit"><title>Moody County</title></path><path id="county-46017" class="county feature" d="M469.617 196.022l-.165 4.895-5.744-.174.07-1.142-2.72-2.09-.118-1.71 3.683.088z" vector-effect="non-scaling-stroke" fill="inherit" stroke="inherit" stroke-width="inherit"><title>Buffalo County</title></path><path id="county-46111" class="county feature" d="M483.92 196.403l.058.003-.15 6.471-1.554-.046-4.8-.115-.046-1.626.114-4.85z" vector-effect="non-scaling-stroke" fill="inherit" stroke="inherit" stroke-width="inherit"><title>Sanborn County</title></path><path id="county-46079" class="county feature" d="M493.587 196.544l3.204.04-.051 6.508-3.226-.028-3.226-.054.089-6.489z" vector-effect="non-scaling-stroke" fill="inherit" stroke="inherit" stroke-width="inherit"><title>Lake County</title></path><path id="county-46097" class="county feature" d="M490.377 196.521l-.089 6.489-3.21-.059-3.25-.074.15-6.471z" vector-effect="non-scaling-stroke" fill="inherit" stroke="inherit" stroke-width="inherit"><title>Miner County</title></path><path id="county-46075" class="county feature" d="M450.37 195.804l-.263 6.025.255 2.449-3.278-1.124-1.305 1.013-1.338-.302-1.896-2.088-1.797-.302.158-2.88.403-3.234z" vector-effect="non-scaling-stroke" fill="inherit" stroke="inherit" stroke-width="inherit"><title>Jones County</title></path><path id="county-46071" class="county feature" d="M440.906 198.595l-.158 2.88-2.25.732-.409 7.614-11.897-.726-.277-1.648.271-4.196 1.622-.044.493-5.34z" vector-effect="non-scaling-stroke" fill="inherit" stroke="inherit" stroke-width="inherit"><title>Jackson County</title></path><path id="county-46003" class="county feature" d="M477.428 201.09l.047 1.626-.1 6.609-5.195-.15-1.195-.032.063-8.18z" vector-effect="non-scaling-stroke" fill="inherit" stroke="inherit" stroke-width="inherit"><title>Aurora County</title></path><path id="county-46015" class="county feature" d="M471.048 200.963l-.063 8.18-6.786-.229-.94-2.981-1.153-.05.84-2.273 1.381-1.434-.619-1.433 5.744.174z" vector-effect="non-scaling-stroke" fill="inherit" stroke="inherit" stroke-width="inherit"><title>Brule County</title></path><path id="county-46095" class="county feature" d="M450.362 204.278l1.438.125-.033 6.074-13.678-.656.41-7.614 2.249-.732 1.797.302 1.896 2.088 1.338.302 1.305-1.013z" vector-effect="non-scaling-stroke" fill="inherit" stroke="inherit" stroke-width="inherit"><title>Mellette County</title></path><path id="county-46033" class="county feature" d="M417.167 202.873l-2.675 1.36-.173 2.407-14.173-1.143.046-.475.546-6.547 18.3 1.384z" vector-effect="non-scaling-stroke" fill="inherit" stroke="inherit" stroke-width="inherit"><title>Custer County</title></path><path id="county-46035" class="county feature" d="M482.274 202.83l-.108 6.595-2.018-.03-2.772-.07.099-6.609z" vector-effect="non-scaling-stroke" fill="inherit" stroke="inherit" stroke-width="inherit"><title>Davison County</title></path><path id="county-46061" class="county feature" d="M483.828 202.877l3.25.074-.083 6.55-4.829-.076.108-6.594z" vector-effect="non-scaling-stroke" fill="inherit" stroke="inherit" stroke-width="inherit"><title>Hanson County</title></path><path id="county-46099" class="county feature" d="M502.554 209.66l-1.97-.012-4.394-.027-2.759-.025.083-6.532 3.226.028 5.84.017z" vector-effect="non-scaling-stroke" fill="inherit" stroke="inherit" stroke-width="inherit"><title>Minnehaha County</title></path><path id="county-46087" class="county feature" d="M490.288 203.01l3.226.054-.083 6.532-3.668-.05-2.768-.044.082-6.55z" vector-effect="non-scaling-stroke" fill="inherit" stroke="inherit" stroke-width="inherit"><title>McCook County</title></path><path id="county-46123" class="county feature" d="M461.027 208.8l-.36 9.412-9.011-.38.111-7.355.033-6.074 1.915.622 3.31.068 1.98-1.22.977.326-.17 4.552z" vector-effect="non-scaling-stroke" fill="inherit" stroke="inherit" stroke-width="inherit"><title>Tripp County</title></path><path id="county-46113" class="county feature" d="M426.192 209.095l-.29 4.871.198 2.47-9.615-.664-2.824-.219.658-8.913.173-2.406 2.675-1.361 8.502.59.517-.212-.271 4.196z" vector-effect="non-scaling-stroke" fill="inherit" stroke="inherit" stroke-width="inherit"><title>Shannon County</title></path><path id="county-46083" class="county feature" d="M500.584 209.648l1 2.012-.436 2.507 1.08.758.274 2.562-4.772-.038-1.606-.016.066-7.812z" vector-effect="non-scaling-stroke" fill="inherit" stroke="inherit" stroke-width="inherit"><title>Lincoln County</title></path><path id="county-46023" class="county feature" d="M470.985 209.143l1.195.031.373 2.424 7.542 3.455.426.545-.307 3.554-.869 2.606-2.11-.869-2.505-2.244-4.937-3.207-.33-1.605-2.24-1.406-1.11-2.08-1.914-1.433z" vector-effect="non-scaling-stroke" fill="inherit" stroke="inherit" stroke-width="inherit"><title>Charles Mix County</title></path><path id="county-46125" class="county feature" d="M493.431 209.596l2.759.025-.066 7.812-3.21-.024.02-1.63-3.228-.033.057-6.2z" vector-effect="non-scaling-stroke" fill="inherit" stroke="inherit" stroke-width="inherit"><title>Turner County</title></path><path id="county-46067" class="county feature" d="M486.995 209.502l2.768.044-.057 6.2-3.229-.04-5.956-.108-.426-.545.053-5.657 2.018.029z" vector-effect="non-scaling-stroke" fill="inherit" stroke="inherit" stroke-width="inherit"><title>Hutchinson County</title></path><path id="county-46043" class="county feature" d="M477.376 209.325l2.772.07-.053 5.658-7.542-3.455-.373-2.424z" vector-effect="non-scaling-stroke" fill="inherit" stroke="inherit" stroke-width="inherit"><title>Douglas County</title></path><path id="county-46053" class="county feature" d="M464.2 208.914l1.913 1.433 1.11 2.08 2.24 1.406.33 1.605 4.937 3.207-10.278-.3-3.785-.133.36-9.413z" vector-effect="non-scaling-stroke" fill="inherit" stroke="inherit" stroke-width="inherit"><title>Gregory County</title></path><path id="county-46047" class="county feature" d="M414.319 206.64l-.658 8.913-6.81-.52-7.437-.681.732-8.855z" vector-effect="non-scaling-stroke" fill="inherit" stroke="inherit" stroke-width="inherit"><title>Fall River County</title></path><path id="county-46007" class="county feature" d="M438.09 209.82l-.404 7.334-11.586-.718-.198-2.47.29-4.871z" vector-effect="non-scaling-stroke" fill="inherit" stroke="inherit" stroke-width="inherit"><title>Bennett County</title></path><path id="county-46121" class="county feature" d="M451.767 210.477l-.111 7.356-13.97-.68.403-7.332z" vector-effect="non-scaling-stroke" fill="inherit" stroke="inherit" stroke-width="inherit"><title>Todd County</title></path><path id="county-46135" class="county feature" d="M492.915 217.41l-.06 5.322-1.997-1.3-2.408.289-2.051-.056.078-5.958 3.229.04 3.229.032z" vector-effect="non-scaling-stroke" fill="inherit" stroke="inherit" stroke-width="inherit"><title>Yankton County</title></path><path id="county-46009" class="county feature" d="M486.477 215.707l-.078 5.958-3.157-.212-1.203 1.68-1.107.07-1.587-1.445.869-2.606.307-3.554z" vector-effect="non-scaling-stroke" fill="inherit" stroke="inherit" stroke-width="inherit"><title>Bon Homme County</title></path><path id="county-46127" class="county feature" d="M502.502 217.487l-.768.622-.395 2.65-1.272 2.673.08 1.108 1.555 1.447.14 1.313.7 1.337-2.515-.663-.896-2.374-1.466-1.022.065-7.13z" vector-effect="non-scaling-stroke" fill="inherit" stroke="inherit" stroke-width="inherit"><title>Union County</title></path><path id="county-46027" class="county feature" d="M497.73 217.449l-.065 7.129-2.857-1.108-1.953-.738.06-5.323 3.209.024z" vector-effect="non-scaling-stroke" fill="inherit" stroke="inherit" stroke-width="inherit"><title>Clay County</title></path></g><path id="counties-mesh" class="counties mesh" d="M430.693 161.48l-.547 8.796-.517 8.102-12.59-.889.237-3.23 1.205-13.62m31.535 1.926l1.879 1.706.56 2.815-1.68 2.033-.698 1.27 1.747 1.058-14.758-.753-6.92-.418m-12.87 3.982l-14.182-1.122m57.233-10.071l-.244 6.48-9.308-.426m22.467-5.574l-.196 6.48-12.837-.475-.126-.005m22.844-5.708l-.145 6.48-.159 6.5-9.668-.301-.062-.003.153-6.489m-56.007 7.465l-.685 8.113-7.977-.607-3.325-.283-3.186.37.652-7.952.576-3.994.996-12.454.09-1.178 13.598 1.08.703.055 12.212.841h.023l19.3 1.085 8.204.406 2.107.094 9.258.349 3.657.13 9.307.284.378.009 9.762.176 8.64.08-1.196 3.53-2.417 1.799.017 1.16 1.808 3.111 2.945 1.77-6.858-.057-.195.559-2.874-.05.054-4.865.076-7.037m-.076 7.037l-1.907-.577-7.924-.155m-22.573-.768l-.272 6.486-7.236-.321-.679-1.386.608-1.13-.806-1.752m21.07 5.066l-11.176-.4-1.78-.077m32.621-.12l-.035 2.724-3.523-.046-6.416-.15.038-1.627m-29.922-1.102l-.962 2.673.51 1.58-1.463-.21-.282 2.391-1.954 2.465-1.703-1.245-.59.95-2.762-.197-1.03.784-1.772-.43.26-4.612-4.798-.264.911-8.906m11.521 17.927l-.72 1.688 2.484.407.204 1.593 3.686 1.047 2.524 1.355-.648.847-5.725-.24-.022.486-9.06-.443-1.604-.08.697-9.75.29-1.054-1.333.965-3.002.853-1.075 1.182-2.381-.317-1.319.962-2.58.085.626-9.83m72.857-2.913l.226 1.078-.012 5.45-5.682-.03.011-3.242-4.505-.08m-30.806-2.527l-.244 6.502-1.317-.051-9.653-.415m22.45-5.633l-.17 6.48-7.857-.252-3.453-.129m21.11-4.17l-.146 9.758-9.652-.289-.002-4.918M489 178.594l-.064 6.5-.09 4.867-4.794-.094-.006-1.622-1.609-.042m14.58-6.24l-.059 3.223-8.022-.091m-59.934 3.112l-.01.01-1.575 1.318-2.238-.388-1.248 2.715-.54 2.949-14.175-1.046.16-2.162-1.609-.118.61-6.49m.839 8.77l-8.013-.659.062-.735.6-7.29m100.834-3.09l-.01 3.2-.016 3.275-.013 1.643-5.757-.045.055-4.878m-36.802-2.622l-.295 6.53-11.275-.473-1.476-.753.475-2.207-1.328-1.342m18.67-1.575l-.305 13.145-3.683-.088-1.146-.514.068-6.193m12.924-1.18l-.162 8.194-3.007-.086-4.994-.133m32.281-5.825l-3.221-.022-4.837-.08m-47.537 5.4l-.403 3.233-12.605-.728.692-9.65m55.06 1.65l-.132 6.536-6.379-.163-4.918-.132m-12.83-.82l.794 1.823-3.582-.188-.89-1.365m37.567-5.516l-.096 6.502-3.21-.023-6.399-.115-.057-.003m18.74-6.294l-.04 6.495v.002l-5.83-.022-3.204-.04m-65.286 1.323l-.493 5.34-1.622.044-.517.213-8.502-.591 1.871-3.014-18.3-1.384.466-5.369m59.736 2.695l.118 1.71 2.72 2.09-.07 1.142.62 1.433-1.382 1.434-.84 2.273 1.153.05.94 2.981-3.172-.115-1.214-.048.169-4.552-.977-.327-1.98 1.221-3.31-.068-1.915-.622-1.438-.125-.255-2.449.263-6.025m27.172.436l-.114 4.85-6.38-.127-1.596-.046.165-4.895m33.004.584l-.04 6.503-5.841-.017.051-6.508m-27.339 4.333l-5.744-.174m20.27-4.337l-.15 6.471-1.554-.046-4.8-.115-.046-1.626m19.312 2.002l-3.226-.028-3.226-.054.089-6.489m-.089 6.489l-3.21-.059-3.25-.074m-66.661-.004l-2.675 1.36-.173 2.407-14.173-1.143.046-.475.546-6.547m49.624 5.803l-3.278-1.124-1.305 1.013-1.338-.302-1.896-2.088-1.797-.302.158-2.88m-.158 2.88l-2.25.732-.409 7.614-11.897-.726-.277-1.648.271-4.196m51.289-.535l-.1 6.609-5.195-.15-1.195-.032.063-8.18m1.132 8.211l.373 2.424 7.542 3.455.426.545-.307 3.554-.869 2.606-2.11-.869-2.505-2.244-4.937-3.207-.33-1.605-2.24-1.406-1.11-2.08-1.914-1.433m18.075-6.083l-.108 6.594-2.018-.03-2.772-.07m9.701-6.374l-.082 6.55-4.829-.076m20.414-6.316l-.026 6.55-1.97-.01-4.394-.028-2.759-.025.083-6.532m-.083 6.532l-3.668-.05-2.768-.044m-25.968-.703l-.36 9.413-9.011-.38.111-7.355m-25.575-1.382l-.29 4.871.198 2.47-9.615-.664-2.824-.219.658-8.913m-.658 8.913l-6.81-.52-7.437-.681.732-8.855m100.438 4.151l1 2.012-.436 2.507 1.08.758.274 2.562-4.772-.038-1.606-.016.066-7.812m-.066 7.812l-3.21-.024.02-1.63-3.228-.033.057-6.2m-.057 6.2l-3.229-.04-5.956-.108m-.426-.545l.053-5.657m-5.418 9.249l-10.278-.3-3.785-.133m-8.867-13.809l-.033 6.074-13.678-.656-.403 7.333-11.586-.718m25.556 1.397l-13.97-.68m55.229.256l-.06 5.323-1.997-1.3-2.408.289-2.051-.056.078-5.958m-.078 5.958l-3.157-.212-1.203 1.68-1.107.07-1.587-1.445m23.157-4.271l-.768.622-.395 2.65-1.272 2.673.08 1.108 1.555 1.447.14 1.313.7 1.337-2.515-.663-.896-2.374-1.466-1.022.065-7.13m-.065 7.13l-2.857-1.108-1.953-.738m-21.87-13.59l-6.786-.228" vector-effect="non-scaling-stroke" fill="inherit" stroke="inherit" stroke-width="inherit"/></svg>