<svg xmlns="http://www.w3.org/2000/svg" xmlns:xlink="http://www.w3.org/1999/xlink" viewBox="0 0 644.18 316.86"><defs><clipPath id="a" transform="translate(-763.59 -479.96)"><polyline points="833.81 490.36 833.81 489.36 1402.23 489.36 1402.23 490.36 833.81 490.36" style="fill:none"/></clipPath><clipPath id="b" transform="translate(-763.59 -479.96)"><rect width="1509.01" height="2186" style="fill:none"/></clipPath><clipPath id="c" transform="translate(-763.59 -479.96)"><polyline points="833.81 541.56 833.81 540.56 1402.23 540.56 1402.23 541.56 833.81 541.56" style="fill:none"/></clipPath><clipPath id="e" transform="translate(-763.59 -479.96)"><polyline points="833.81 592.76 833.81 591.76 1402.23 591.76 1402.23 592.76 833.81 592.76" style="fill:none"/></clipPath><clipPath id="g" transform="translate(-763.59 -479.96)"><polyline points="833.81 643.96 833.81 642.96 1402.23 642.96 1402.23 643.96 833.81 643.96" style="fill:none"/></clipPath><clipPath id="i" transform="translate(-763.59 -479.96)"><polyline points="833.81 695.16 833.81 694.16 1402.23 694.16 1402.23 695.16 833.81 695.16" style="fill:none"/></clipPath><clipPath id="k" transform="translate(-763.59 -479.96)"><polyline points="833.81 746.36 833.81 745.36 1402.23 745.36 1402.23 746.36 833.81 746.36" style="fill:none"/></clipPath><clipPath id="m" transform="translate(-763.59 -479.96)"><path d="M772.67,599.39l.1.15-.09.2a3.07,3.07,0,0,0-.2.32,2.63,2.63,0,0,0-.2.49,2.52,2.52,0,0,0-.09.71,2.09,2.09,0,0,0,.11.69,1.72,1.72,0,0,0,.29.53,1.33,1.33,0,0,0,.42.34,1.12,1.12,0,0,0,.51.12.87.87,0,0,0,.55-.17,1.45,1.45,0,0,0,.37-.44,3.33,3.33,0,0,0,.27-.62l.22-.71q.11-.36.25-.71a2.67,2.67,0,0,1,.34-.62,1.59,1.59,0,0,1,.5-.44,1.41,1.41,0,0,1,.71-.17,2.16,2.16,0,0,1,.85.17,1.91,1.91,0,0,1,.68.48,2.26,2.26,0,0,1,.46.77,3,3,0,0,1,.17,1,3.13,3.13,0,0,1-.23,1.27,3.55,3.55,0,0,1-.61,1l-.24-.16-.08-.08,0-.12.11-.22a2.69,2.69,0,0,0,.24-.35,2.89,2.89,0,0,0,.24-.53,2.41,2.41,0,0,0,.11-.79,2.26,2.26,0,0,0-.12-.78,1.62,1.62,0,0,0-.33-.56,1.39,1.39,0,0,0-.49-.34,1.57,1.57,0,0,0-.6-.12,1,1,0,0,0-.58.17,1.45,1.45,0,0,0-.39.44,3.11,3.11,0,0,0-.27.62l-.22.71q-.11.37-.25.71a2.54,2.54,0,0,1-.34.62,1.62,1.62,0,0,1-.49.44,1.43,1.43,0,0,1-.72.17,1.65,1.65,0,0,1-.71-.16,1.81,1.81,0,0,1-.6-.46,2.3,2.3,0,0,1-.41-.72,2.82,2.82,0,0,1-.15-1,3.26,3.26,0,0,1,.18-1.13,2.74,2.74,0,0,1,.56-.91Zm6.1,11.41h-7v-.36a.19.19,0,0,1,.18-.21l1-.06a3.91,3.91,0,0,1-1-1.11,2.76,2.76,0,0,1-.37-1.41,2.62,2.62,0,0,1,.18-1,1.86,1.86,0,0,1,.53-.72,2.33,2.33,0,0,1,.83-.43,3.77,3.77,0,0,1,1.09-.15h4.45V606h-4.45a2.39,2.39,0,0,0-1.54.45,1.66,1.66,0,0,0-.56,1.37,2.42,2.42,0,0,0,.35,1.27,3.69,3.69,0,0,0,1,1h5.22Zm-.43,4.92a2.58,2.58,0,0,0-.21-1.09,2,2,0,0,0-.61-.78,2.71,2.71,0,0,0-1-.47,5.25,5.25,0,0,0-2.52,0,2.75,2.75,0,0,0-1,.47,2.08,2.08,0,0,0-.62.78,2.84,2.84,0,0,0,0,2.18,2.09,2.09,0,0,0,.62.78,2.79,2.79,0,0,0,1,.47,5.14,5.14,0,0,0,2.52,0,2.75,2.75,0,0,0,1-.47,2.05,2.05,0,0,0,.61-.78A2.59,2.59,0,0,0,778.34,615.72Zm-6.64,0a3.35,3.35,0,0,1,.25-1.34,2.74,2.74,0,0,1,.72-1,3.22,3.22,0,0,1,1.13-.62,5.22,5.22,0,0,1,3,0,3.22,3.22,0,0,1,1.13.62,2.69,2.69,0,0,1,.72,1,3.69,3.69,0,0,1,0,2.68,2.72,2.72,0,0,1-.72,1,3.19,3.19,0,0,1-1.13.62,5.24,5.24,0,0,1-3,0,3.19,3.19,0,0,1-1.13-.62,2.78,2.78,0,0,1-.72-1A3.36,3.36,0,0,1,771.7,615.72Zm-2.29,4.82.23.05.19.14.13.2,0,.24,0,.24-.13.2-.19.13-.23,0-.24,0-.2-.13-.13-.2,0-.24,0-.24.13-.2.2-.14Zm2.4.29h7v.67h-7Zm-3.22,3.33h10.19v.67H768.59Zm0,3.32h10.19v.67H768.59Zm.82,3,.23.05.19.14.13.2,0,.24,0,.24-.13.2-.19.13-.23,0-.24,0-.2-.13-.13-.2,0-.24,0-.24.13-.2.2-.14Zm2.4.29h7v.67h-7Zm1.69,8.78v-2.15a3.49,3.49,0,0,0-.17-1.17,2.32,2.32,0,0,0-.46-.8,1.79,1.79,0,0,0-.65-.46,2,2,0,0,0-.75-.15,1.84,1.84,0,0,0-1.52.63,3.07,3.07,0,0,0-.51,2v2.13Zm.53,0h4.17v-2.48a3,3,0,0,0-.56-2,2,2,0,0,0-1.59-.66,1.94,1.94,0,0,0-.84.18,1.76,1.76,0,0,0-.64.51,2.41,2.41,0,0,0-.4.83,4.08,4.08,0,0,0-.14,1.11Zm4.75.71h-9.91v-2.85A5.63,5.63,0,0,1,769,636a2.8,2.8,0,0,1,.49-1,2,2,0,0,1,.79-.6,2.69,2.69,0,0,1,1.06-.2,2.14,2.14,0,0,1,.76.14,2.31,2.31,0,0,1,.67.4,2.54,2.54,0,0,1,.54.63,3,3,0,0,1,.35.86,3.23,3.23,0,0,1,.78-1.8,2.1,2.1,0,0,1,1.59-.63,2.77,2.77,0,0,1,1.13.22,2.31,2.31,0,0,1,.85.65,3,3,0,0,1,.54,1.05,5,5,0,0,1,.19,1.41Z" style="fill:none"/></clipPath><clipPath id="n" transform="translate(-763.59 -479.96)"><rect x="81.23" width="1362" height="2186" style="fill:none"/></clipPath><clipPath id="o" transform="translate(-763.59 -479.96)"><path d="M822.65,486.74a.32.32,0,0,1-.09.23.41.41,0,0,1-.3.1h-3.58l-.6,3.3a7.2,7.2,0,0,1,.89-.17,6.45,6.45,0,0,1,.8-.05,3.86,3.86,0,0,1,1.36.22,2.73,2.73,0,0,1,1,.62,2.59,2.59,0,0,1,.6.94,3.4,3.4,0,0,1,.2,1.19,3.45,3.45,0,0,1-.27,1.4,3.18,3.18,0,0,1-.74,1.05,3.23,3.23,0,0,1-1.09.67,3.78,3.78,0,0,1-1.32.23,4,4,0,0,1-.78-.07,4.44,4.44,0,0,1-.7-.2,3.77,3.77,0,0,1-.6-.28,4.16,4.16,0,0,1-.48-.33l.2-.27.2-.1a.58.58,0,0,1,.26.1,4.61,4.61,0,0,0,.44.23,4.29,4.29,0,0,0,.64.23,3.14,3.14,0,0,0,.86.1,3,3,0,0,0,1.07-.19,2.51,2.51,0,0,0,.86-.54,2.42,2.42,0,0,0,.57-.87,3.1,3.1,0,0,0,.21-1.17,2.94,2.94,0,0,0-.16-1,2,2,0,0,0-.48-.77,2.18,2.18,0,0,0-.8-.5,3.32,3.32,0,0,0-1.14-.18,6.1,6.1,0,0,0-.85.06,7.29,7.29,0,0,0-1,.2l-.43-.13.78-4.39h4.45Zm-8.79,9.08,0-.25.14-.21.2-.14a.61.61,0,0,1,.26-.05l.25.05.21.14.14.21.05.25a.61.61,0,0,1-.05.25l-.14.2-.21.14-.25,0a.63.63,0,0,1-.64-.64Zm-4.64-9.48a3.55,3.55,0,0,1,1.08.16,2.64,2.64,0,0,1,.91.5,2.38,2.38,0,0,1,.62.83,2.77,2.77,0,0,1,.23,1.17,3.06,3.06,0,0,1-.17,1,4.23,4.23,0,0,1-.46.92,6.73,6.73,0,0,1-.68.86l-.82.85-3.1,3.16a3.51,3.51,0,0,1,.47-.08l.49,0h4.28l.18.07.07.17v.39h-6.39v-.24l0-.16.09-.14,3.38-3.42q.42-.43.78-.83a6.64,6.64,0,0,0,.62-.81,3.94,3.94,0,0,0,.41-.83,2.71,2.71,0,0,0,.15-.91,2.29,2.29,0,0,0-.18-.95,1.85,1.85,0,0,0-.49-.66,2,2,0,0,0-.7-.38,2.72,2.72,0,0,0-.83-.13,2.54,2.54,0,0,0-.86.14,2.32,2.32,0,0,0-.7.4,2.21,2.21,0,0,0-.5.61,2.46,2.46,0,0,0-.28.77.28.28,0,0,1-.28.25h-.07l-.34-.06a3.34,3.34,0,0,1,.35-1.13,2.83,2.83,0,0,1,.66-.84,2.77,2.77,0,0,1,.92-.52A3.5,3.5,0,0,1,809.22,486.34ZM799,488.86a1.65,1.65,0,0,0,.15.74,1.62,1.62,0,0,0,.42.53,2.73,2.73,0,0,0,.61.38q.35.16.74.29l.2-3.86a2.73,2.73,0,0,0-.93.2,2.1,2.1,0,0,0-.66.43,1.72,1.72,0,0,0-.4.6A1.9,1.9,0,0,0,799,488.86Zm4.46,4.72a1.63,1.63,0,0,0-.17-.78,1.68,1.68,0,0,0-.47-.55,2.78,2.78,0,0,0-.68-.37c-.25-.1-.52-.2-.8-.28l-.22,4.32a2.92,2.92,0,0,0,1-.23,2.25,2.25,0,0,0,.73-.5,2.11,2.11,0,0,0,.45-.72A2.48,2.48,0,0,0,803.49,493.58Zm-2.81,2.89a3.76,3.76,0,0,1-1.56-.38,4.08,4.08,0,0,1-1.17-.9l.19-.27.2-.11.16.08.23.19.31.25a2.82,2.82,0,0,0,.42.26,3.24,3.24,0,0,0,.55.21,3.09,3.09,0,0,0,.7.11l.22-4.45q-.48-.15-.93-.33a3.19,3.19,0,0,1-.8-.47,2.17,2.17,0,0,1-.57-.7,2.25,2.25,0,0,1-.22-1,2.47,2.47,0,0,1,.18-.94,2.4,2.4,0,0,1,.54-.81,2.68,2.68,0,0,1,.87-.57,3.3,3.3,0,0,1,1.18-.24l.06-1.18.06-.16.15-.06h.25l-.08,1.41a3.28,3.28,0,0,1,1.24.31,3.67,3.67,0,0,1,1,.7l-.15.24-.18.12a.39.39,0,0,1-.22-.12,3.16,3.16,0,0,0-.36-.25,3.3,3.3,0,0,0-.55-.27,2.67,2.67,0,0,0-.78-.16l-.2,4,.66.22a6.06,6.06,0,0,1,.64.25,3.51,3.51,0,0,1,.56.32,2.1,2.1,0,0,1,.45.43,2,2,0,0,1,.3.57,2.3,2.3,0,0,1,.11.74,3.17,3.17,0,0,1-.2,1.13,2.81,2.81,0,0,1-.58.93,2.87,2.87,0,0,1-.94.65,3.58,3.58,0,0,1-1.27.28l-.08,1.48-.06.15-.14.06h-.25Z" style="fill:none"/></clipPath><clipPath id="q" transform="translate(-763.59 -479.96)"><path d="M822.8,542.41a8,8,0,0,0-.23-2.06A4.33,4.33,0,0,0,822,539a2.42,2.42,0,0,0-.91-.79,2.49,2.49,0,0,0-1.1-.25,2.4,2.4,0,0,0-2,1,4.27,4.27,0,0,0-.62,1.4,9.28,9.28,0,0,0,0,4.12,4.27,4.27,0,0,0,.62,1.39,2.41,2.41,0,0,0,.91.79,2.49,2.49,0,0,0,1.09.25,2.51,2.51,0,0,0,1.1-.25,2.39,2.39,0,0,0,.91-.79,4.33,4.33,0,0,0,.62-1.39A7.94,7.94,0,0,0,822.8,542.41Zm.7,0a8,8,0,0,1-.28,2.25,4.74,4.74,0,0,1-.76,1.57,3.09,3.09,0,0,1-1.13.93,3.28,3.28,0,0,1-2.76,0,3.1,3.1,0,0,1-1.13-.93,4.69,4.69,0,0,1-.76-1.57,9.33,9.33,0,0,1,0-4.51,4.67,4.67,0,0,1,.76-1.57,3.1,3.1,0,0,1,1.13-.93,3.29,3.29,0,0,1,2.76,0,3.08,3.08,0,0,1,1.13.93,4.73,4.73,0,0,1,.76,1.57A8,8,0,0,1,823.5,542.41Zm-9.64,4.42,0-.25.14-.21.2-.14a.61.61,0,0,1,.26-.05l.25.05.21.14.14.21.05.25a.61.61,0,0,1-.05.25l-.14.2-.21.14-.25,0a.63.63,0,0,1-.64-.64Zm-4.64-9.48a3.55,3.55,0,0,1,1.08.16,2.64,2.64,0,0,1,.91.5,2.38,2.38,0,0,1,.62.83,2.77,2.77,0,0,1,.23,1.17,3.06,3.06,0,0,1-.17,1,4.23,4.23,0,0,1-.46.92,6.73,6.73,0,0,1-.68.86l-.82.85-3.1,3.16a3.51,3.51,0,0,1,.47-.08l.49,0h4.28l.18.07.07.17v.39h-6.39v-.24l0-.16.09-.14,3.38-3.42q.42-.43.78-.83a6.64,6.64,0,0,0,.62-.81,3.94,3.94,0,0,0,.41-.83,2.71,2.71,0,0,0,.15-.91,2.29,2.29,0,0,0-.18-.95,1.85,1.85,0,0,0-.49-.66,2,2,0,0,0-.7-.38,2.72,2.72,0,0,0-.83-.13,2.54,2.54,0,0,0-.86.14,2.32,2.32,0,0,0-.7.4,2.21,2.21,0,0,0-.5.61,2.46,2.46,0,0,0-.28.77.28.28,0,0,1-.28.25h-.07l-.34-.06a3.34,3.34,0,0,1,.35-1.13,2.83,2.83,0,0,1,.66-.84,2.77,2.77,0,0,1,.92-.52A3.5,3.5,0,0,1,809.22,537.34ZM799,539.86a1.65,1.65,0,0,0,.15.74,1.62,1.62,0,0,0,.42.53,2.73,2.73,0,0,0,.61.38q.35.16.74.29l.2-3.86a2.73,2.73,0,0,0-.93.2,2.1,2.1,0,0,0-.66.43,1.72,1.72,0,0,0-.4.6A1.9,1.9,0,0,0,799,539.86Zm4.46,4.72a1.63,1.63,0,0,0-.17-.78,1.68,1.68,0,0,0-.47-.55,2.78,2.78,0,0,0-.68-.37c-.25-.1-.52-.2-.8-.28l-.22,4.32a2.92,2.92,0,0,0,1-.23,2.25,2.25,0,0,0,.73-.5,2.11,2.11,0,0,0,.45-.72A2.48,2.48,0,0,0,803.49,544.58Zm-2.81,2.89a3.76,3.76,0,0,1-1.56-.38,4.08,4.08,0,0,1-1.17-.9l.19-.27.2-.11.16.08.23.19.31.25a2.82,2.82,0,0,0,.42.26,3.24,3.24,0,0,0,.55.21,3.09,3.09,0,0,0,.7.11l.22-4.45q-.48-.15-.93-.33a3.19,3.19,0,0,1-.8-.47,2.17,2.17,0,0,1-.57-.7,2.25,2.25,0,0,1-.22-1,2.47,2.47,0,0,1,.18-.94,2.4,2.4,0,0,1,.54-.81,2.68,2.68,0,0,1,.87-.57,3.3,3.3,0,0,1,1.18-.24l.06-1.18.06-.16.15-.06h.25l-.08,1.41a3.28,3.28,0,0,1,1.24.31,3.67,3.67,0,0,1,1,.7l-.15.24-.18.12a.39.39,0,0,1-.22-.12,3.16,3.16,0,0,0-.36-.25,3.3,3.3,0,0,0-.55-.27,2.67,2.67,0,0,0-.78-.16l-.2,4,.66.22a6.06,6.06,0,0,1,.64.25,3.51,3.51,0,0,1,.56.32,2.1,2.1,0,0,1,.45.43,2,2,0,0,1,.3.57,2.3,2.3,0,0,1,.11.74,3.17,3.17,0,0,1-.2,1.13,2.81,2.81,0,0,1-.58.93,2.87,2.87,0,0,1-.94.65,3.58,3.58,0,0,1-1.27.28l-.08,1.48-.06.15-.14.06h-.25Z" style="fill:none"/></clipPath><clipPath id="s" transform="translate(-763.59 -479.96)"><path d="M822.65,588.74a.32.32,0,0,1-.09.23.41.41,0,0,1-.3.1h-3.58l-.6,3.3a7.2,7.2,0,0,1,.89-.17,6.45,6.45,0,0,1,.8-.05,3.86,3.86,0,0,1,1.36.22,2.73,2.73,0,0,1,1,.62,2.59,2.59,0,0,1,.6.94,3.4,3.4,0,0,1,.2,1.19,3.45,3.45,0,0,1-.27,1.4,3.18,3.18,0,0,1-.74,1.05,3.23,3.23,0,0,1-1.09.67,3.78,3.78,0,0,1-1.32.23,4,4,0,0,1-.78-.07,4.44,4.44,0,0,1-.7-.2,3.77,3.77,0,0,1-.6-.28,4.16,4.16,0,0,1-.48-.33l.2-.27.2-.1a.58.58,0,0,1,.26.1,4.61,4.61,0,0,0,.44.23,4.29,4.29,0,0,0,.64.23,3.14,3.14,0,0,0,.86.1,3,3,0,0,0,1.07-.19,2.51,2.51,0,0,0,.86-.54,2.42,2.42,0,0,0,.57-.87,3.1,3.1,0,0,0,.21-1.17,2.94,2.94,0,0,0-.16-1,2,2,0,0,0-.48-.77,2.18,2.18,0,0,0-.8-.5,3.32,3.32,0,0,0-1.14-.18,6.1,6.1,0,0,0-.85.06,7.29,7.29,0,0,0-1,.2l-.43-.13.78-4.39h4.45Zm-8.79,9.08,0-.25.14-.21.2-.14a.61.61,0,0,1,.26-.05l.25.05.21.14.14.21.05.25a.61.61,0,0,1-.05.25l-.14.2-.21.14-.25,0a.63.63,0,0,1-.64-.64Zm-6.69,0h2.28v-8c0-.16,0-.33,0-.5l-2.18,1.94-.17.06-.18-.08-.2-.28,2.86-2.53h.52v9.43h2.16v.52h-5.1Zm-8.13-7a1.65,1.65,0,0,0,.15.74,1.62,1.62,0,0,0,.42.53,2.73,2.73,0,0,0,.61.38q.35.16.74.29l.2-3.86a2.73,2.73,0,0,0-.93.2,2.1,2.1,0,0,0-.66.43,1.72,1.72,0,0,0-.4.6A1.9,1.9,0,0,0,799,590.86Zm4.46,4.72a1.63,1.63,0,0,0-.17-.78,1.68,1.68,0,0,0-.47-.55,2.78,2.78,0,0,0-.68-.37c-.25-.1-.52-.2-.8-.28l-.22,4.32a2.92,2.92,0,0,0,1-.23,2.25,2.25,0,0,0,.73-.5,2.11,2.11,0,0,0,.45-.72A2.48,2.48,0,0,0,803.49,595.58Zm-2.81,2.89a3.76,3.76,0,0,1-1.56-.38,4.08,4.08,0,0,1-1.17-.9l.19-.27.2-.11.16.08.23.19.31.25a2.82,2.82,0,0,0,.42.26,3.24,3.24,0,0,0,.55.21,3.09,3.09,0,0,0,.7.11l.22-4.45q-.48-.15-.93-.33a3.19,3.19,0,0,1-.8-.47,2.17,2.17,0,0,1-.57-.7,2.25,2.25,0,0,1-.22-1,2.47,2.47,0,0,1,.18-.94,2.4,2.4,0,0,1,.54-.81,2.68,2.68,0,0,1,.87-.57,3.3,3.3,0,0,1,1.18-.24l.06-1.18.06-.16.15-.06h.25l-.08,1.41a3.28,3.28,0,0,1,1.24.31,3.67,3.67,0,0,1,1,.7l-.15.24-.18.12a.39.39,0,0,1-.22-.12,3.16,3.16,0,0,0-.36-.25,3.3,3.3,0,0,0-.55-.27,2.67,2.67,0,0,0-.78-.16l-.2,4,.66.22a6.06,6.06,0,0,1,.64.25,3.51,3.51,0,0,1,.56.32,2.1,2.1,0,0,1,.45.43,2,2,0,0,1,.3.57,2.3,2.3,0,0,1,.11.74,3.17,3.17,0,0,1-.2,1.13,2.81,2.81,0,0,1-.58.93,2.87,2.87,0,0,1-.94.65,3.58,3.58,0,0,1-1.27.28l-.08,1.48-.06.15-.14.06h-.25Z" style="fill:none"/></clipPath><clipPath id="u" transform="translate(-763.59 -479.96)"><path d="M822.8,644.41a8,8,0,0,0-.23-2.06A4.33,4.33,0,0,0,822,641a2.42,2.42,0,0,0-.91-.79,2.49,2.49,0,0,0-1.1-.25,2.4,2.4,0,0,0-2,1,4.27,4.27,0,0,0-.62,1.4,9.28,9.28,0,0,0,0,4.12,4.27,4.27,0,0,0,.62,1.39,2.41,2.41,0,0,0,.91.79,2.49,2.49,0,0,0,1.09.25,2.51,2.51,0,0,0,1.1-.25,2.39,2.39,0,0,0,.91-.79,4.33,4.33,0,0,0,.62-1.39A7.94,7.94,0,0,0,822.8,644.41Zm.7,0a8,8,0,0,1-.28,2.25,4.74,4.74,0,0,1-.76,1.57,3.09,3.09,0,0,1-1.13.93,3.28,3.28,0,0,1-2.76,0,3.1,3.1,0,0,1-1.13-.93,4.69,4.69,0,0,1-.76-1.57,9.33,9.33,0,0,1,0-4.51,4.67,4.67,0,0,1,.76-1.57,3.1,3.1,0,0,1,1.13-.93,3.29,3.29,0,0,1,2.76,0,3.08,3.08,0,0,1,1.13.93,4.73,4.73,0,0,1,.76,1.57A8,8,0,0,1,823.5,644.41Zm-9.64,4.42,0-.25.14-.21.2-.14a.61.61,0,0,1,.26-.05l.25.05.21.14.14.21.05.25a.61.61,0,0,1-.05.25l-.14.2-.21.14-.25,0a.63.63,0,0,1-.64-.64Zm-6.69,0h2.28v-8c0-.16,0-.33,0-.5l-2.18,1.94-.17.06-.18-.08-.2-.28,2.86-2.53h.52v9.43h2.16v.52h-5.1Zm-8.13-7a1.65,1.65,0,0,0,.15.74,1.62,1.62,0,0,0,.42.53,2.73,2.73,0,0,0,.61.38q.35.16.74.29l.2-3.86a2.73,2.73,0,0,0-.93.2,2.1,2.1,0,0,0-.66.43,1.72,1.72,0,0,0-.4.6A1.9,1.9,0,0,0,799,641.86Zm4.46,4.72a1.63,1.63,0,0,0-.17-.78,1.68,1.68,0,0,0-.47-.55,2.78,2.78,0,0,0-.68-.37c-.25-.1-.52-.2-.8-.28l-.22,4.32a2.92,2.92,0,0,0,1-.23,2.25,2.25,0,0,0,.73-.5,2.11,2.11,0,0,0,.45-.72A2.48,2.48,0,0,0,803.49,646.58Zm-2.81,2.89a3.76,3.76,0,0,1-1.56-.38,4.08,4.08,0,0,1-1.17-.9l.19-.27.2-.11.16.08.23.19.31.25a2.82,2.82,0,0,0,.42.26,3.24,3.24,0,0,0,.55.21,3.09,3.09,0,0,0,.7.11l.22-4.45q-.48-.15-.93-.33a3.19,3.19,0,0,1-.8-.47,2.17,2.17,0,0,1-.57-.7,2.25,2.25,0,0,1-.22-1,2.47,2.47,0,0,1,.18-.94,2.4,2.4,0,0,1,.54-.81,2.68,2.68,0,0,1,.87-.57,3.3,3.3,0,0,1,1.18-.24l.06-1.18.06-.16.15-.06h.25l-.08,1.41a3.28,3.28,0,0,1,1.24.31,3.67,3.67,0,0,1,1,.7l-.15.24-.18.12a.39.39,0,0,1-.22-.12,3.16,3.16,0,0,0-.36-.25,3.3,3.3,0,0,0-.55-.27,2.67,2.67,0,0,0-.78-.16l-.2,4,.66.22a6.06,6.06,0,0,1,.64.25,3.51,3.51,0,0,1,.56.32,2.1,2.1,0,0,1,.45.43,2,2,0,0,1,.3.57,2.3,2.3,0,0,1,.11.74,3.17,3.17,0,0,1-.2,1.13,2.81,2.81,0,0,1-.58.93,2.87,2.87,0,0,1-.94.65,3.58,3.58,0,0,1-1.27.28l-.08,1.48-.06.15-.14.06h-.25Z" style="fill:none"/></clipPath><clipPath id="w" transform="translate(-763.59 -479.96)"><path d="M822.65,690.74a.32.32,0,0,1-.09.23.41.41,0,0,1-.3.1h-3.58l-.6,3.3a7.2,7.2,0,0,1,.89-.17,6.45,6.45,0,0,1,.8-.05,3.86,3.86,0,0,1,1.36.22,2.73,2.73,0,0,1,1,.62,2.59,2.59,0,0,1,.6.94,3.4,3.4,0,0,1,.2,1.19,3.45,3.45,0,0,1-.27,1.4,3.18,3.18,0,0,1-.74,1.05,3.23,3.23,0,0,1-1.09.67,3.78,3.78,0,0,1-1.32.23,4,4,0,0,1-.78-.07,4.44,4.44,0,0,1-.7-.2,3.77,3.77,0,0,1-.6-.28,4.16,4.16,0,0,1-.48-.33l.2-.27.2-.1a.58.58,0,0,1,.26.1,4.61,4.61,0,0,0,.44.23,4.29,4.29,0,0,0,.64.23,3.14,3.14,0,0,0,.86.1,3,3,0,0,0,1.07-.19,2.51,2.51,0,0,0,.86-.54,2.42,2.42,0,0,0,.57-.87,3.1,3.1,0,0,0,.21-1.17,2.94,2.94,0,0,0-.16-1,2,2,0,0,0-.48-.77,2.18,2.18,0,0,0-.8-.5,3.32,3.32,0,0,0-1.14-.18,6.1,6.1,0,0,0-.85.06,7.29,7.29,0,0,0-1,.2l-.43-.13.78-4.39h4.45Zm-8.79,9.08,0-.25.14-.21.2-.14a.61.61,0,0,1,.26-.05l.25.05.21.14.14.21.05.25a.61.61,0,0,1-.05.25l-.14.2-.21.14-.25,0a.63.63,0,0,1-.64-.64Zm-1.95-4.42a8,8,0,0,0-.23-2.06,4.31,4.31,0,0,0-.62-1.4,2.42,2.42,0,0,0-.91-.79,2.49,2.49,0,0,0-1.1-.25,2.4,2.4,0,0,0-2,1,4.25,4.25,0,0,0-.62,1.4,9.28,9.28,0,0,0,0,4.12,4.25,4.25,0,0,0,.62,1.39,2.41,2.41,0,0,0,.91.79,2.49,2.49,0,0,0,1.09.25,2.51,2.51,0,0,0,1.1-.25,2.38,2.38,0,0,0,.91-.79,4.31,4.31,0,0,0,.62-1.39A8,8,0,0,0,811.92,695.41Zm.7,0a8,8,0,0,1-.28,2.25,4.73,4.73,0,0,1-.76,1.57,3.1,3.1,0,0,1-1.13.93,3.28,3.28,0,0,1-2.76,0,3.09,3.09,0,0,1-1.13-.93,4.69,4.69,0,0,1-.76-1.57,9.33,9.33,0,0,1,0-4.51,4.67,4.67,0,0,1,.76-1.57,3.09,3.09,0,0,1,1.13-.93,3.28,3.28,0,0,1,2.76,0,3.09,3.09,0,0,1,1.13.93,4.71,4.71,0,0,1,.76,1.57A8,8,0,0,1,812.62,695.41ZM799,692.86a1.65,1.65,0,0,0,.15.74,1.62,1.62,0,0,0,.42.53,2.73,2.73,0,0,0,.61.38q.35.16.74.29l.2-3.86a2.73,2.73,0,0,0-.93.2,2.1,2.1,0,0,0-.66.43,1.72,1.72,0,0,0-.4.6A1.9,1.9,0,0,0,799,692.86Zm4.46,4.72a1.63,1.63,0,0,0-.17-.78,1.68,1.68,0,0,0-.47-.55,2.78,2.78,0,0,0-.68-.37c-.25-.1-.52-.2-.8-.28l-.22,4.32a2.92,2.92,0,0,0,1-.23,2.25,2.25,0,0,0,.73-.5,2.11,2.11,0,0,0,.45-.72A2.48,2.48,0,0,0,803.49,697.58Zm-2.81,2.89a3.76,3.76,0,0,1-1.56-.38,4.08,4.08,0,0,1-1.17-.9l.19-.27.2-.11.16.08.23.19.31.25a2.82,2.82,0,0,0,.42.26,3.24,3.24,0,0,0,.55.21,3.09,3.09,0,0,0,.7.11l.22-4.45q-.48-.15-.93-.33a3.19,3.19,0,0,1-.8-.47,2.17,2.17,0,0,1-.57-.7,2.25,2.25,0,0,1-.22-1,2.47,2.47,0,0,1,.18-.94,2.4,2.4,0,0,1,.54-.81,2.68,2.68,0,0,1,.87-.57,3.3,3.3,0,0,1,1.18-.24l.06-1.18.06-.16.15-.06h.25l-.08,1.41a3.28,3.28,0,0,1,1.24.31,3.67,3.67,0,0,1,1,.7l-.15.24-.18.12a.39.39,0,0,1-.22-.12,3.16,3.16,0,0,0-.36-.25,3.3,3.3,0,0,0-.55-.27,2.67,2.67,0,0,0-.78-.16l-.2,4,.66.22a6.06,6.06,0,0,1,.64.25,3.51,3.51,0,0,1,.56.32,2.1,2.1,0,0,1,.45.43,2,2,0,0,1,.3.57,2.3,2.3,0,0,1,.11.74,3.17,3.17,0,0,1-.2,1.13,2.81,2.81,0,0,1-.58.93,2.87,2.87,0,0,1-.94.65,3.58,3.58,0,0,1-1.27.28l-.08,1.48-.06.15-.14.06h-.25Z" style="fill:none"/></clipPath><clipPath id="y" transform="translate(-763.59 -479.96)"><path d="M822.8,746.41a8,8,0,0,0-.23-2.06A4.33,4.33,0,0,0,822,743a2.42,2.42,0,0,0-.91-.79,2.49,2.49,0,0,0-1.1-.25,2.4,2.4,0,0,0-2,1,4.27,4.27,0,0,0-.62,1.4,9.28,9.28,0,0,0,0,4.12,4.27,4.27,0,0,0,.62,1.39,2.41,2.41,0,0,0,.91.79,2.49,2.49,0,0,0,1.09.25,2.51,2.51,0,0,0,1.1-.25,2.39,2.39,0,0,0,.91-.79,4.33,4.33,0,0,0,.62-1.39A7.94,7.94,0,0,0,822.8,746.41Zm.7,0a8,8,0,0,1-.28,2.25,4.74,4.74,0,0,1-.76,1.57,3.09,3.09,0,0,1-1.13.93,3.28,3.28,0,0,1-2.76,0,3.1,3.1,0,0,1-1.13-.93,4.69,4.69,0,0,1-.76-1.57,9.33,9.33,0,0,1,0-4.51,4.67,4.67,0,0,1,.76-1.57,3.1,3.1,0,0,1,1.13-.93,3.29,3.29,0,0,1,2.76,0,3.08,3.08,0,0,1,1.13.93,4.73,4.73,0,0,1,.76,1.57A8,8,0,0,1,823.5,746.41Zm-13.58-2.55a1.65,1.65,0,0,0,.15.74,1.63,1.63,0,0,0,.42.53,2.73,2.73,0,0,0,.61.38q.35.16.74.29l.2-3.86a2.71,2.71,0,0,0-.93.2,2.1,2.1,0,0,0-.66.43,1.72,1.72,0,0,0-.4.6A1.88,1.88,0,0,0,809.92,743.86Zm4.46,4.72a1.61,1.61,0,0,0-.17-.78,1.68,1.68,0,0,0-.47-.55,2.78,2.78,0,0,0-.68-.37c-.25-.1-.52-.2-.8-.28l-.22,4.32a2.91,2.91,0,0,0,1-.23,2.25,2.25,0,0,0,.73-.5,2.09,2.09,0,0,0,.45-.72A2.48,2.48,0,0,0,814.38,748.58Zm-2.81,2.89a3.76,3.76,0,0,1-1.56-.38,4.1,4.1,0,0,1-1.17-.9l.19-.27.2-.11.16.08.23.19.31.25a2.87,2.87,0,0,0,.42.26,3.24,3.24,0,0,0,.55.21,3.09,3.09,0,0,0,.7.11l.22-4.45q-.48-.15-.93-.33a3.19,3.19,0,0,1-.8-.47,2.17,2.17,0,0,1-.57-.7,2.25,2.25,0,0,1-.22-1,2.49,2.49,0,0,1,.18-.94,2.4,2.4,0,0,1,.54-.81,2.68,2.68,0,0,1,.87-.57,3.29,3.29,0,0,1,1.18-.24l.06-1.18.06-.16.15-.06h.25l-.08,1.41a3.28,3.28,0,0,1,1.24.31,3.65,3.65,0,0,1,1,.7l-.15.24-.18.12a.39.39,0,0,1-.22-.12,3.16,3.16,0,0,0-.36-.25,3.27,3.27,0,0,0-.55-.27,2.67,2.67,0,0,0-.78-.16l-.2,4,.66.22a6,6,0,0,1,.64.25,3.51,3.51,0,0,1,.56.32,2.07,2.07,0,0,1,.45.43,1.93,1.93,0,0,1,.3.57,2.3,2.3,0,0,1,.11.74,3.17,3.17,0,0,1-.2,1.13,2.79,2.79,0,0,1-.58.93,2.86,2.86,0,0,1-.94.65,3.59,3.59,0,0,1-1.27.28l-.08,1.48-.06.15-.14.06h-.25Z" style="fill:none"/></clipPath><clipPath id="aa" transform="translate(-763.59 -479.96)"><path d="M1150.77,789.36v-7h.35l.17,0,.06.17.06,1.47a3.32,3.32,0,0,1,.9-1.33,2.05,2.05,0,0,1,1.38-.48,2.42,2.42,0,0,1,.58.07,2.24,2.24,0,0,1,.5.19l-.09.46-.14.11-.12,0-.19-.06-.28-.06a2.32,2.32,0,0,0-.38,0,1.79,1.79,0,0,0-1.3.49,3.49,3.49,0,0,0-.82,1.41v4.53Zm-5.17-.37a3,3,0,0,0,.75-.09,2.8,2.8,0,0,0,.63-.24,3.17,3.17,0,0,0,.54-.37c.17-.15.33-.3.5-.47V786a12.41,12.41,0,0,0-1.71.15,4.94,4.94,0,0,0-1.18.33,1.74,1.74,0,0,0-.69.5,1.06,1.06,0,0,0-.22.66,1.47,1.47,0,0,0,.12.6,1.17,1.17,0,0,0,.75.66A1.8,1.8,0,0,0,1145.6,789Zm2.8.37a.24.24,0,0,1-.26-.2l-.1-.89a7.6,7.6,0,0,1-.57.5,3.49,3.49,0,0,1-.59.38,3,3,0,0,1-.67.23,3.53,3.53,0,0,1-.78.08,2.32,2.32,0,0,1-.69-.1,1.73,1.73,0,0,1-.59-.32,1.6,1.6,0,0,1-.42-.56,1.92,1.92,0,0,1-.16-.82,1.45,1.45,0,0,1,.25-.82,2.07,2.07,0,0,1,.79-.66,5.16,5.16,0,0,1,1.38-.45,12,12,0,0,1,2-.2v-.73a2.34,2.34,0,0,0-.42-1.49,1.49,1.49,0,0,0-1.24-.52,2.31,2.31,0,0,0-.86.14,3,3,0,0,0-.6.31,3.63,3.63,0,0,0-.4.31.44.44,0,0,1-.26.14.23.23,0,0,1-.21-.13l-.12-.2a4.06,4.06,0,0,1,1.15-.83,3.2,3.2,0,0,1,1.37-.28,2.48,2.48,0,0,1,1,.18,1.82,1.82,0,0,1,.7.51,2.23,2.23,0,0,1,.42.81,3.69,3.69,0,0,1,.14,1.05v4.54Zm-9-6.58a2.61,2.61,0,0,0-1,.17,2.11,2.11,0,0,0-.74.48,2.45,2.45,0,0,0-.5.76,3.42,3.42,0,0,0-.26,1h4.59a3,3,0,0,0-.15-1,2.13,2.13,0,0,0-.43-.75,1.87,1.87,0,0,0-.67-.47A2.23,2.23,0,0,0,1139.43,782.78Zm0-.5a2.86,2.86,0,0,1,1.09.2,2.44,2.44,0,0,1,.87.59,2.73,2.73,0,0,1,.57,1,3.79,3.79,0,0,1,.21,1.3.35.35,0,0,1,0,.21l-.14.06h-5v.13a4.74,4.74,0,0,0,.18,1.38,2.85,2.85,0,0,0,.52,1,2.14,2.14,0,0,0,.81.61,2.69,2.69,0,0,0,1.06.2,3.18,3.18,0,0,0,.91-.12,3.37,3.37,0,0,0,1.06-.52.48.48,0,0,1,.22-.12l.14.07.18.22a1.91,1.91,0,0,1-.44.39,3.22,3.22,0,0,1-.62.31,4.49,4.49,0,0,1-.73.21,4,4,0,0,1-.78.08,3.31,3.31,0,0,1-1.3-.25,2.76,2.76,0,0,1-1-.72,3.29,3.29,0,0,1-.65-1.17,5,5,0,0,1-.23-1.58,4.3,4.3,0,0,1,.21-1.38,3.18,3.18,0,0,1,.62-1.09,2.81,2.81,0,0,1,1-.72A3.24,3.24,0,0,1,1139.43,782.28Zm-7.92,9.32-.11.16-.19.06h-.48l1.22-2.72L1129,782.4h.55l.17.05.09.12,2.34,5.42.07.21.06.22.07-.22.08-.21,2.32-5.42.1-.12.14,0h.51Zm-6.68-12.43v10.19h-.67V779.18Zm-6,9.81a3,3,0,0,0,.75-.09,2.76,2.76,0,0,0,.63-.24,3.21,3.21,0,0,0,.54-.37c.17-.15.33-.3.5-.47V786a12.42,12.42,0,0,0-1.71.15,4.93,4.93,0,0,0-1.18.33,1.75,1.75,0,0,0-.69.5,1.07,1.07,0,0,0-.22.66,1.46,1.46,0,0,0,.12.6,1.19,1.19,0,0,0,.3.42,1.21,1.21,0,0,0,.44.24A1.8,1.8,0,0,0,1118.79,789Zm2.8.37a.24.24,0,0,1-.26-.2l-.1-.89a7.42,7.42,0,0,1-.57.5,3.45,3.45,0,0,1-.59.38,2.94,2.94,0,0,1-.67.23,3.53,3.53,0,0,1-.78.08,2.31,2.31,0,0,1-.69-.1,1.73,1.73,0,0,1-.59-.32,1.59,1.59,0,0,1-.42-.56,1.93,1.93,0,0,1-.16-.82,1.45,1.45,0,0,1,.25-.82,2.06,2.06,0,0,1,.79-.66,5.16,5.16,0,0,1,1.38-.45,11.94,11.94,0,0,1,2-.2v-.73a2.34,2.34,0,0,0-.42-1.49,1.49,1.49,0,0,0-1.24-.52,2.32,2.32,0,0,0-.86.14,3,3,0,0,0-.6.31,3.75,3.75,0,0,0-.4.31.43.43,0,0,1-.26.14.23.23,0,0,1-.21-.13l-.12-.2a4,4,0,0,1,1.15-.83,3.19,3.19,0,0,1,1.36-.28,2.49,2.49,0,0,1,1,.18,1.83,1.83,0,0,1,.7.51,2.26,2.26,0,0,1,.42.81,3.69,3.69,0,0,1,.14,1.05v4.54Zm-6.23-6-.07.06-.09,0-.19-.1a2.48,2.48,0,0,0-.33-.21,2.74,2.74,0,0,0-.51-.21,2.85,2.85,0,0,0-1.81.12,2.14,2.14,0,0,0-.78.61,2.82,2.82,0,0,0-.49,1,5,5,0,0,0,0,2.58,2.76,2.76,0,0,0,.49,1,2.08,2.08,0,0,0,.76.59,2.39,2.39,0,0,0,1,.2,2.6,2.6,0,0,0,.84-.12,2.77,2.77,0,0,0,.56-.26,2.6,2.6,0,0,0,.35-.26l.21-.12.14.07.18.22a2.06,2.06,0,0,1-.41.39,2.77,2.77,0,0,1-.55.31,3.43,3.43,0,0,1-.67.21,3.77,3.77,0,0,1-.75.07,3,3,0,0,1-1.21-.24,2.63,2.63,0,0,1-.95-.7,3.25,3.25,0,0,1-.62-1.12,5.22,5.22,0,0,1,0-3,3.26,3.26,0,0,1,.61-1.13,2.74,2.74,0,0,1,1-.74,3.24,3.24,0,0,1,1.34-.26,3.15,3.15,0,0,1,1.21.22,2.92,2.92,0,0,1,.92.59Zm-6.77-.07-.15.1-.2-.09-.32-.2a2.64,2.64,0,0,0-.49-.2,2.49,2.49,0,0,0-.71-.09,2.1,2.1,0,0,0-.69.11,1.71,1.71,0,0,0-.53.29,1.32,1.32,0,0,0-.34.42,1.1,1.1,0,0,0-.12.51.87.87,0,0,0,.17.55,1.47,1.47,0,0,0,.44.37,3.45,3.45,0,0,0,.62.27l.71.22c.24.07.48.16.71.25a2.66,2.66,0,0,1,.62.34,1.59,1.59,0,0,1,.44.5,1.42,1.42,0,0,1,.17.71,2.17,2.17,0,0,1-.16.85,1.94,1.94,0,0,1-.48.68,2.3,2.3,0,0,1-.77.46,3,3,0,0,1-1,.17,3.12,3.12,0,0,1-1.27-.23,3.54,3.54,0,0,1-1-.61l.16-.24.08-.08.12,0,.22.11a2.79,2.79,0,0,0,.35.24,2.89,2.89,0,0,0,.53.24,2.42,2.42,0,0,0,.79.11,2.25,2.25,0,0,0,.78-.12,1.6,1.6,0,0,0,.56-.33,1.39,1.39,0,0,0,.34-.49,1.57,1.57,0,0,0,.12-.6,1,1,0,0,0-.17-.58,1.43,1.43,0,0,0-.44-.39,3,3,0,0,0-.62-.27l-.71-.22-.71-.25a2.59,2.59,0,0,1-.62-.34,1.63,1.63,0,0,1-.44-.49,1.43,1.43,0,0,1-.17-.72,1.66,1.66,0,0,1,.16-.71,1.81,1.81,0,0,1,.46-.6,2.23,2.23,0,0,1,.72-.41,2.81,2.81,0,0,1,1-.15,3.24,3.24,0,0,1,1.13.18,2.74,2.74,0,0,1,.91.56Zm-6-3.26-.05.23-.14.19-.2.13-.24,0-.24,0-.2-.13-.13-.19,0-.23,0-.24.13-.2.2-.13.24,0,.24,0,.2.13.14.2Zm-.29,2.4v7h-.67v-7Zm-2.6-2.94v.59h-5.21v4.17H1099v.6h-4.52v4.55h-.72v-9.9Z" style="fill:none"/></clipPath><clipPath id="ab" transform="translate(-763.59 -479.96)"><rect x="118.23" y="2" width="1362" height="2186" style="fill:none"/></clipPath><clipPath id="ac" transform="translate(-763.59 -479.96)"><path d="M873.45,697.53,893,692.82l19.23-6.28,16.41-8.16,18.71-8.6,15.22-9.9,16.37-12.23,16.23-12.12,17.26-14.67,15.72-9,17.54-10,15.74-8.19-2.1.25,17.07,4.17,20.71-2.72,16.09-8.68,19.61-11.83,17-11.18,14.24-12,19.34-16.47,31-22.63,32.75-14.22-1.64.22,18.31,2.7,16.51,2.73,1.6-.17,15.47-6.17-1.4.2,17.32,1.7a3,3,0,1,0,.58-6l-17.32-1.7-1.4.2-15.47,6.17,1.6-.17-16.56-2.73-18.36-2.7-1.64.22-33.32,14.55-31.71,23.1-19.5,16.6-13.94,11.8-16.66,10.9-19.42,11.71-15,8.28-18.55,2.44-15.93-4.11-2.1.25-15.84,8.25-17.65,10.09L1009,616l-17.55,14.86-16.08,12L959.14,655l-14.67,9.57L926.06,673,910,681l-18.6,6-19.68,4.76-11.43,4.28a3,3,0,0,0,2.11,5.62Z" style="fill:none"/></clipPath></defs><title>AML unappropriated balance</title><g style="clip-path:url(#a)"><g style="clip-path:url(#b)"><rect x="64.68" y="4.4" width="579.5" height="11" style="fill:#e2e2e2"/></g></g><g style="clip-path:url(#c)"><g style="clip-path:url(#b)"><rect x="64.68" y="55.6" width="579.5" height="11" style="fill:#e2e2e2"/></g></g><g style="clip-path:url(#e)"><g style="clip-path:url(#b)"><rect x="64.68" y="106.8" width="579.5" height="11" style="fill:#e2e2e2"/></g></g><g style="clip-path:url(#g)"><g style="clip-path:url(#b)"><rect x="64.68" y="158" width="579.5" height="11" style="fill:#e2e2e2"/></g></g><g style="clip-path:url(#i)"><g style="clip-path:url(#b)"><rect x="64.68" y="209.2" width="579.5" height="11" style="fill:#e2e2e2"/></g></g><g style="clip-path:url(#k)"><g style="clip-path:url(#b)"><rect x="64.68" y="260.4" width="579.5" height="11" style="fill:#e2e2e2"/></g></g><g style="clip-path:url(#m)"><g style="clip-path:url(#n)"><rect y="114.11" width="20.3" height="51.24" style="fill:#4a4a4a"/></g></g><g style="clip-path:url(#o)"><g style="clip-path:url(#n)"><rect x="29.36" width="34.97" height="23.2" style="fill:#4a4a4a"/></g></g><g style="clip-path:url(#q)"><g style="clip-path:url(#n)"><rect x="29.36" y="51" width="35.55" height="23.2" style="fill:#4a4a4a"/></g></g><g style="clip-path:url(#s)"><g style="clip-path:url(#n)"><rect x="29.36" y="102" width="34.97" height="23.2" style="fill:#4a4a4a"/></g></g><g style="clip-path:url(#u)"><g style="clip-path:url(#n)"><rect x="29.36" y="153" width="35.55" height="23.2" style="fill:#4a4a4a"/></g></g><g style="clip-path:url(#w)"><g style="clip-path:url(#n)"><rect x="29.36" y="204" width="34.97" height="23.2" style="fill:#4a4a4a"/></g></g><g style="clip-path:url(#y)"><g style="clip-path:url(#n)"><rect x="40.25" y="255" width="24.67" height="23.2" style="fill:#4a4a4a"/></g></g><g style="clip-path:url(#aa)"><g style="clip-path:url(#ab)"><rect x="325.17" y="294.21" width="71" height="22.65" style="fill:#4a4a4a"/></g></g><g style="clip-path:url(#ac)"><g style="clip-path:url(#n)"><rect x="89.73" y="6.86" width="468.29" height="220.07" style="fill:#96bc7f"/></g></g><path d="M1322.25,754.95H1318l-.75,4.23.42.13a7.25,7.25,0,0,1,.92-.2,6,6,0,0,1,.82-.06,3.2,3.2,0,0,1,1.1.17,2.11,2.11,0,0,1,.78.48,1.94,1.94,0,0,1,.46.74,2.82,2.82,0,0,1,.15.94,3,3,0,0,1-.2,1.12,2.34,2.34,0,0,1-.55.83,2.41,2.41,0,0,1-.83.52,2.92,2.92,0,0,1-1,.18,3,3,0,0,1-.83-.1,4.11,4.11,0,0,1-.61-.22,4.42,4.42,0,0,1-.43-.22.55.55,0,0,0-.25-.1l-.2.1-.19.26a4.08,4.08,0,0,0,.47.32,3.66,3.66,0,0,0,.58.27,4.39,4.39,0,0,0,.68.19,3.87,3.87,0,0,0,.76.07,3.64,3.64,0,0,0,1.28-.22,3.1,3.1,0,0,0,1-.64,3,3,0,0,0,.71-1,3.54,3.54,0,0,0,.07-2.5,2.51,2.51,0,0,0-.58-.91,2.62,2.62,0,0,0-.95-.59,3.71,3.71,0,0,0-1.31-.21,6.25,6.25,0,0,0-.78.05,7,7,0,0,0-.86.17l.57-3.19h3.46a.39.39,0,0,0,.29-.09l.09-.23ZM1310,764.5h4.92V764h-2.09v-9.1h-.5l-2.76,2.44.2.27.18.08.16-.06,2.11-1.87c0,.17,0,.33,0,.49V764H1310Zm-3.54-9.79-.1.14,0,.11a1.6,1.6,0,0,1,.24.8,1.59,1.59,0,0,1-.17.71,4.37,4.37,0,0,1-.43.68l0,.09,0,.09.19.12a3.45,3.45,0,0,0,.67-.88,2.13,2.13,0,0,0,.26-1,2,2,0,0,0-.07-.51,2.07,2.07,0,0,0-.22-.51Z" transform="translate(-763.59 -479.96)" style="fill:#4a4a4a"/><path d="M1283.87,755a2.62,2.62,0,0,0-1.53,1.31,3.35,3.35,0,0,0-.34,1.09l.33.05h.07c.13,0,.21-.08.25-.24a2.69,2.69,0,0,1,.29-.76,2.12,2.12,0,0,1,.48-.58,2.2,2.2,0,0,1,.67-.38,2.45,2.45,0,0,1,.83-.13,2.7,2.7,0,0,1,.79.11,1.82,1.82,0,0,1,.66.36,1.73,1.73,0,0,1,.45.61,2.09,2.09,0,0,1,.17.88,2,2,0,0,1-.16.8,1.71,1.71,0,0,1-.48.63,2.34,2.34,0,0,1-.79.42,3.83,3.83,0,0,1-1.09.17v.47a4.61,4.61,0,0,1,1.31.16,2.36,2.36,0,0,1,.85.43,1.52,1.52,0,0,1,.46.65,2.37,2.37,0,0,1,.14.82,2.05,2.05,0,0,1-.15.75,2.08,2.08,0,0,1-.46.7,2.44,2.44,0,0,1-.76.52,2.6,2.6,0,0,1-1.06.2,3,3,0,0,1-.79-.09,2.41,2.41,0,0,1-.59-.25,1.9,1.9,0,0,1-.43-.34,2.54,2.54,0,0,1-.49-.76l-.12-.3,0-.14-.1-.13-.14,0-.16,0-.26.11a6,6,0,0,0,.32.87,2.63,2.63,0,0,0,.55.79,2.66,2.66,0,0,0,.89.57,3.67,3.67,0,0,0,1.36.22,3.51,3.51,0,0,0,1.22-.21,3,3,0,0,0,1-.57,2.64,2.64,0,0,0,.65-.87,2.52,2.52,0,0,0,.24-1.09,2.27,2.27,0,0,0-.54-1.54,2.67,2.67,0,0,0-1.59-.81,3,3,0,0,0,.75-.29,2.34,2.34,0,0,0,.6-.48,2.17,2.17,0,0,0,.4-.66,2.33,2.33,0,0,0,.14-.84,2.42,2.42,0,0,0-.21-1,2.16,2.16,0,0,0-.58-.76,2.5,2.5,0,0,0-.86-.46,3.45,3.45,0,0,0-1-.15A3.37,3.37,0,0,0,1283.87,755Zm-8.79,9.49H1280V764h-2.09v-9.1h-.5l-2.76,2.44.2.27.18.08.16-.06,2.11-1.87c0,.17,0,.33,0,.49V764h-2.19Zm-3.54-9.79-.1.14,0,.11a1.6,1.6,0,0,1,.24.8,1.59,1.59,0,0,1-.17.71,4.37,4.37,0,0,1-.43.68l0,.09,0,.09.19.12a3.45,3.45,0,0,0,.67-.88,2.13,2.13,0,0,0,.26-1,2,2,0,0,0-.07-.51,2.07,2.07,0,0,0-.22-.51Zm-25.19,9.79h4.92V764h-2.09v-9.1h-.5l-2.76,2.44.2.27.18.08.16-.06,2.11-1.87c0,.17,0,.33,0,.49V764h-2.19Zm-7.83,0h4.92V764h-2.09v-9.1h-.5l-2.76,2.44.2.27.18.08.16-.06,2.11-1.87c0,.17,0,.33,0,.49V764h-2.19Zm-3.54-9.79-.1.14,0,.11a1.6,1.6,0,0,1,.24.8,1.59,1.59,0,0,1-.17.71,4.37,4.37,0,0,1-.43.68l0,.09,0,.09.19.12a3.45,3.45,0,0,0,.67-.88,2.13,2.13,0,0,0,.26-1,2,2,0,0,0-.07-.51,2.07,2.07,0,0,0-.22-.51Zm-18.37,3.81a2.16,2.16,0,0,1-.47.71,2.38,2.38,0,0,1-.76.51,2.54,2.54,0,0,1-1,.2,2.62,2.62,0,0,1-.92-.16,2,2,0,0,1-.71-.45,2,2,0,0,1-.46-.72,2.6,2.6,0,0,1-.16-.95,2.39,2.39,0,0,1,.18-.93,2.12,2.12,0,0,1,.49-.73,2.2,2.2,0,0,1,.76-.47,2.69,2.69,0,0,1,1-.17,2.35,2.35,0,0,1,.91.17,2.12,2.12,0,0,1,1.19,1.22,2.58,2.58,0,0,1,.17,1A2.13,2.13,0,0,1,1216.6,758.52Zm-1.24,1.68a2.68,2.68,0,0,0,.95-.67c-.1.16-.2.32-.31.49l-.37.54-2.82,3.94h.58a.36.36,0,0,0,.33-.16l2.5-3.67q.28-.41.49-.76a6.61,6.61,0,0,0,.37-.69,3.68,3.68,0,0,0,.23-.68,3.21,3.21,0,0,0,.08-.71,3.36,3.36,0,0,0-.21-1.23,2.78,2.78,0,0,0-.59-.95,2.62,2.62,0,0,0-.91-.61,3.06,3.06,0,0,0-1.16-.22,3.3,3.3,0,0,0-1.22.22,3,3,0,0,0-1,.6,2.74,2.74,0,0,0-.63.91,2.84,2.84,0,0,0-.23,1.14,3,3,0,0,0,.2,1.12,2.5,2.5,0,0,0,.56.86,2.46,2.46,0,0,0,.86.55,3,3,0,0,0,1.08.19A3,3,0,0,0,1215.36,760.2Zm-6.45,1.51a4.17,4.17,0,0,1-.6,1.34,2.3,2.3,0,0,1-.88.76,2.43,2.43,0,0,1-1.06.24,2.4,2.4,0,0,1-1.05-.24,2.33,2.33,0,0,1-.88-.76,4.13,4.13,0,0,1-.6-1.34,9,9,0,0,1,0-4,4.13,4.13,0,0,1,.6-1.35,2.31,2.31,0,0,1,1.93-1,2.41,2.41,0,0,1,1.06.24,2.33,2.33,0,0,1,.88.77,4.17,4.17,0,0,1,.6,1.35,9,9,0,0,1,0,4Zm.63-4.16a4.54,4.54,0,0,0-.73-1.52,3,3,0,0,0-1.09-.89,3.17,3.17,0,0,0-2.66,0,3,3,0,0,0-1.09.89,4.5,4.5,0,0,0-.73,1.52,9,9,0,0,0,0,4.35,4.5,4.5,0,0,0,.73,1.52,3,3,0,0,0,1.09.89,3.17,3.17,0,0,0,2.66,0,3,3,0,0,0,1.09-.89,4.54,4.54,0,0,0,.73-1.52,8.84,8.84,0,0,0,0-4.35Zm-8.52-2.84-.1.14,0,.11a1.6,1.6,0,0,1,.24.8,1.59,1.59,0,0,1-.17.71,4.37,4.37,0,0,1-.43.68l0,.09,0,.09.19.12a3.45,3.45,0,0,0,.67-.88,2.13,2.13,0,0,0,.26-1,2,2,0,0,0-.07-.51,2.07,2.07,0,0,0-.22-.51Zm-26.4.24v.41l.05.13.13.05h5.51a1.59,1.59,0,0,0-.21.32l-4.41,8.64h.44a.39.39,0,0,0,.24-.07l.14-.18,4.38-8.67.06-.15,0-.2v-.29Zm-2.27,6.76a4.17,4.17,0,0,1-.6,1.34,2.3,2.3,0,0,1-.88.76,2.43,2.43,0,0,1-1.06.24,2.4,2.4,0,0,1-1.05-.24,2.33,2.33,0,0,1-.88-.76,4.13,4.13,0,0,1-.6-1.34,9,9,0,0,1,0-4,4.13,4.13,0,0,1,.6-1.35,2.31,2.31,0,0,1,1.93-1,2.41,2.41,0,0,1,1.06.24,2.33,2.33,0,0,1,.88.77,4.17,4.17,0,0,1,.6,1.35,9,9,0,0,1,0,4Zm.63-4.16a4.54,4.54,0,0,0-.73-1.52,3,3,0,0,0-1.09-.89,3.17,3.17,0,0,0-2.66,0,3,3,0,0,0-1.09.89,4.5,4.5,0,0,0-.73,1.52,9,9,0,0,0,0,4.35,4.5,4.5,0,0,0,.73,1.52,3,3,0,0,0,1.09.89,3.17,3.17,0,0,0,2.66,0,3,3,0,0,0,1.09-.89,4.54,4.54,0,0,0,.73-1.52,8.84,8.84,0,0,0,0-4.35Zm-8.52-2.84-.1.14,0,.11a1.6,1.6,0,0,1,.24.8,1.59,1.59,0,0,1-.17.71,4.37,4.37,0,0,1-.43.68l0,.09,0,.09.19.12a3.45,3.45,0,0,0,.67-.88,2.13,2.13,0,0,0,.26-1,2,2,0,0,0-.07-.51,2.07,2.07,0,0,0-.22-.51Zm-18.15.24H1142l-.75,4.23.42.13a7.25,7.25,0,0,1,.92-.2,6,6,0,0,1,.82-.06,3.2,3.2,0,0,1,1.1.17,2.11,2.11,0,0,1,.78.48,1.94,1.94,0,0,1,.46.74,2.82,2.82,0,0,1,.15.94,3,3,0,0,1-.2,1.12,2.34,2.34,0,0,1-.55.83,2.41,2.41,0,0,1-.83.52,2.92,2.92,0,0,1-1,.18,3,3,0,0,1-.83-.1,4.11,4.11,0,0,1-.61-.22,4.42,4.42,0,0,1-.43-.22.55.55,0,0,0-.25-.1l-.2.1-.19.26a4.08,4.08,0,0,0,.47.32,3.66,3.66,0,0,0,.58.27,4.39,4.39,0,0,0,.68.19,3.87,3.87,0,0,0,.76.07,3.64,3.64,0,0,0,1.28-.22,3.1,3.1,0,0,0,1-.64,3,3,0,0,0,.71-1,3.54,3.54,0,0,0,.07-2.5,2.51,2.51,0,0,0-.58-.91,2.62,2.62,0,0,0-.95-.59,3.71,3.71,0,0,0-1.31-.21,6.25,6.25,0,0,0-.78.05,7,7,0,0,0-.86.17l.57-3.19h3.46a.39.39,0,0,0,.29-.09l.09-.23Zm-7.91,6.76a4.17,4.17,0,0,1-.6,1.34,2.3,2.3,0,0,1-.88.76,2.43,2.43,0,0,1-1.06.24,2.4,2.4,0,0,1-1.05-.24,2.33,2.33,0,0,1-.88-.76,4.13,4.13,0,0,1-.6-1.34,9,9,0,0,1,0-4,4.13,4.13,0,0,1,.6-1.35,2.31,2.31,0,0,1,1.93-1,2.41,2.41,0,0,1,1.06.24,2.33,2.33,0,0,1,.88.77,4.17,4.17,0,0,1,.6,1.35,9,9,0,0,1,0,4Zm.63-4.16a4.54,4.54,0,0,0-.73-1.52,3,3,0,0,0-1.09-.89,3.17,3.17,0,0,0-2.66,0,3,3,0,0,0-1.09.89,4.5,4.5,0,0,0-.73,1.52,9,9,0,0,0,0,4.35,4.5,4.5,0,0,0,.73,1.52,3,3,0,0,0,1.09.89,3.17,3.17,0,0,0,2.66,0,3,3,0,0,0,1.09-.89,4.54,4.54,0,0,0,.73-1.52,8.84,8.84,0,0,0,0-4.35Zm-8.52-2.84-.1.14,0,.11a1.6,1.6,0,0,1,.24.8,1.59,1.59,0,0,1-.17.71,4.37,4.37,0,0,1-.43.68l0,.09,0,.09.19.12a3.45,3.45,0,0,0,.67-.88,2.13,2.13,0,0,0,.26-1,2,2,0,0,0-.07-.51,2.07,2.07,0,0,0-.22-.51Zm-21.63.31a2.62,2.62,0,0,0-1.53,1.31,3.35,3.35,0,0,0-.34,1.09l.33.05h.07c.13,0,.21-.08.25-.24a2.69,2.69,0,0,1,.29-.76,2.12,2.12,0,0,1,.48-.58,2.2,2.2,0,0,1,.67-.38,2.45,2.45,0,0,1,.83-.13,2.7,2.7,0,0,1,.79.11,1.82,1.82,0,0,1,.66.36,1.73,1.73,0,0,1,.45.61,2.09,2.09,0,0,1,.17.88,2,2,0,0,1-.16.8,1.71,1.71,0,0,1-.48.63,2.34,2.34,0,0,1-.79.42,3.83,3.83,0,0,1-1.09.17v.47a4.61,4.61,0,0,1,1.31.16,2.36,2.36,0,0,1,.85.43,1.52,1.52,0,0,1,.46.65,2.37,2.37,0,0,1,.14.82,2.05,2.05,0,0,1-.15.75,2.08,2.08,0,0,1-.46.7,2.44,2.44,0,0,1-.76.52,2.6,2.6,0,0,1-1.06.2,3,3,0,0,1-.79-.09,2.41,2.41,0,0,1-.59-.25,1.9,1.9,0,0,1-.43-.34,2.54,2.54,0,0,1-.49-.76l-.12-.3,0-.14-.1-.13-.14,0-.16,0-.26.11a6,6,0,0,0,.32.87,2.63,2.63,0,0,0,.55.79,2.66,2.66,0,0,0,.89.57,3.67,3.67,0,0,0,1.36.22,3.51,3.51,0,0,0,1.22-.21,3,3,0,0,0,1-.57,2.64,2.64,0,0,0,.65-.87,2.52,2.52,0,0,0,.24-1.09,2.27,2.27,0,0,0-.54-1.54,2.67,2.67,0,0,0-1.59-.81,3,3,0,0,0,.75-.29,2.34,2.34,0,0,0,.6-.48,2.17,2.17,0,0,0,.4-.66,2.33,2.33,0,0,0,.14-.84,2.42,2.42,0,0,0-.21-1,2.16,2.16,0,0,0-.58-.76,2.5,2.5,0,0,0-.86-.46,3.45,3.45,0,0,0-1-.15A3.37,3.37,0,0,0,1108.87,755Zm-4.44,6.7a4.17,4.17,0,0,1-.6,1.34,2.3,2.3,0,0,1-.88.76,2.43,2.43,0,0,1-1.06.24,2.4,2.4,0,0,1-1.05-.24,2.33,2.33,0,0,1-.88-.76,4.13,4.13,0,0,1-.6-1.34,9,9,0,0,1,0-4,4.13,4.13,0,0,1,.6-1.35,2.31,2.31,0,0,1,1.93-1,2.41,2.41,0,0,1,1.06.24,2.33,2.33,0,0,1,.88.77,4.17,4.17,0,0,1,.6,1.35,9,9,0,0,1,0,4Zm.63-4.16a4.54,4.54,0,0,0-.73-1.52,3,3,0,0,0-1.09-.89,3.17,3.17,0,0,0-2.66,0,3,3,0,0,0-1.09.89,4.5,4.5,0,0,0-.73,1.52,9,9,0,0,0,0,4.35,4.5,4.5,0,0,0,.73,1.52,3,3,0,0,0,1.09.89,3.17,3.17,0,0,0,2.66,0,3,3,0,0,0,1.09-.89,4.54,4.54,0,0,0,.73-1.52,8.84,8.84,0,0,0,0-4.35Zm-8.52-2.84-.1.14,0,.11a1.6,1.6,0,0,1,.24.8,1.59,1.59,0,0,1-.17.71,4.37,4.37,0,0,1-.43.68l0,.09,0,.09.19.12a3.45,3.45,0,0,0,.67-.88,2.13,2.13,0,0,0,.26-1,2,2,0,0,0-.07-.51,2.07,2.07,0,0,0-.22-.51Zm-22.59,9.79h4.92V764h-2.09v-9.1h-.5l-2.76,2.44.2.27.18.08.16-.06,2.11-1.87c0,.17,0,.33,0,.49V764h-2.19Zm-3.47-2.79a4.17,4.17,0,0,1-.6,1.34,2.3,2.3,0,0,1-.88.76,2.43,2.43,0,0,1-1.06.24,2.4,2.4,0,0,1-1.05-.24,2.33,2.33,0,0,1-.88-.76,4.13,4.13,0,0,1-.6-1.34,9,9,0,0,1,0-4,4.13,4.13,0,0,1,.6-1.35,2.31,2.31,0,0,1,1.93-1,2.41,2.41,0,0,1,1.06.24,2.33,2.33,0,0,1,.88.77,4.17,4.17,0,0,1,.6,1.35,9,9,0,0,1,0,4Zm.63-4.16a4.54,4.54,0,0,0-.73-1.52,3,3,0,0,0-1.09-.89,3.17,3.17,0,0,0-2.66,0,3,3,0,0,0-1.09.89,4.5,4.5,0,0,0-.73,1.52,9,9,0,0,0,0,4.35,4.5,4.5,0,0,0,.73,1.52,3,3,0,0,0,1.09.89,3.17,3.17,0,0,0,2.66,0,3,3,0,0,0,1.09-.89,4.54,4.54,0,0,0,.73-1.52,8.84,8.84,0,0,0,0-4.35Zm-8.53-2.84-.1.14,0,.11a1.6,1.6,0,0,1,.24.8,1.59,1.59,0,0,1-.17.71,4.37,4.37,0,0,1-.43.68l0,.09,0,.09.19.12a3.45,3.45,0,0,0,.67-.88,2.13,2.13,0,0,0,.26-1,2,2,0,0,0-.07-.51,2.07,2.07,0,0,0-.22-.51Zm-21,3.81a2.16,2.16,0,0,1-.47.71,2.38,2.38,0,0,1-.76.51,2.54,2.54,0,0,1-1,.2,2.62,2.62,0,0,1-.92-.16,2,2,0,0,1-.71-.45,2,2,0,0,1-.46-.72,2.6,2.6,0,0,1-.16-.95,2.39,2.39,0,0,1,.18-.93,2.12,2.12,0,0,1,.49-.73,2.2,2.2,0,0,1,.76-.47,2.69,2.69,0,0,1,1-.17,2.35,2.35,0,0,1,.91.17,2.12,2.12,0,0,1,1.19,1.22,2.58,2.58,0,0,1,.17,1A2.13,2.13,0,0,1,1041.6,758.52Zm-1.24,1.68a2.68,2.68,0,0,0,.95-.67c-.1.16-.2.32-.31.49l-.37.54-2.82,3.94h.58a.36.36,0,0,0,.33-.16l2.5-3.67q.28-.41.49-.76a6.61,6.61,0,0,0,.37-.69,3.68,3.68,0,0,0,.23-.68,3.21,3.21,0,0,0,.08-.71,3.36,3.36,0,0,0-.21-1.23,2.78,2.78,0,0,0-.59-.95,2.62,2.62,0,0,0-.91-.61,3.06,3.06,0,0,0-1.16-.22,3.3,3.3,0,0,0-1.22.22,3,3,0,0,0-1,.6,2.74,2.74,0,0,0-.63.91,2.84,2.84,0,0,0-.23,1.14,3,3,0,0,0,.2,1.12,2.5,2.5,0,0,0,.56.86,2.46,2.46,0,0,0,.86.55,3,3,0,0,0,1.08.19A3,3,0,0,0,1040.36,760.2Zm-6.59-1.68a2.16,2.16,0,0,1-.47.71,2.38,2.38,0,0,1-.76.51,2.54,2.54,0,0,1-1,.2,2.62,2.62,0,0,1-.92-.16,2,2,0,0,1-.71-.45,2,2,0,0,1-.46-.72,2.6,2.6,0,0,1-.16-.95,2.39,2.39,0,0,1,.18-.93,2.12,2.12,0,0,1,.49-.73,2.2,2.2,0,0,1,.76-.47,2.69,2.69,0,0,1,1-.17,2.35,2.35,0,0,1,.91.17,2.12,2.12,0,0,1,1.19,1.22,2.58,2.58,0,0,1,.17,1A2.13,2.13,0,0,1,1033.77,758.52Zm-1.24,1.68a2.68,2.68,0,0,0,.95-.67c-.1.16-.2.32-.31.49l-.37.54L1030,764.5h.58a.36.36,0,0,0,.33-.16l2.5-3.67q.28-.41.49-.76a6.61,6.61,0,0,0,.37-.69,3.68,3.68,0,0,0,.23-.68,3.21,3.21,0,0,0,.08-.71,3.36,3.36,0,0,0-.21-1.23,2.78,2.78,0,0,0-.59-.95,2.62,2.62,0,0,0-.91-.61,3.06,3.06,0,0,0-1.16-.22,3.3,3.3,0,0,0-1.22.22,3,3,0,0,0-1,.6,2.74,2.74,0,0,0-.63.91,2.84,2.84,0,0,0-.23,1.14,3,3,0,0,0,.2,1.12,2.5,2.5,0,0,0,.56.86,2.46,2.46,0,0,0,.86.55,3,3,0,0,0,1.08.19A3,3,0,0,0,1032.53,760.2Zm-6.52-5.49-.1.14,0,.11a1.6,1.6,0,0,1,.24.8,1.59,1.59,0,0,1-.17.71,4.37,4.37,0,0,1-.43.68l0,.09,0,.09.19.12a3.45,3.45,0,0,0,.67-.88,2.13,2.13,0,0,0,.26-1,2,2,0,0,0-.07-.51,2.07,2.07,0,0,0-.22-.51Zm-23.79.24v.41l.05.13.13.05h5.51a1.59,1.59,0,0,0-.21.32l-4.41,8.64h.44a.39.39,0,0,0,.24-.07l.14-.18,4.38-8.67.06-.15,0-.2v-.29Zm-2.41,3.57a2.16,2.16,0,0,1-.47.71,2.38,2.38,0,0,1-.76.51,2.54,2.54,0,0,1-1,.2,2.62,2.62,0,0,1-.92-.16,2,2,0,0,1-.71-.45,2,2,0,0,1-.46-.72,2.6,2.6,0,0,1-.16-.95,2.39,2.39,0,0,1,.18-.93A2.12,2.12,0,0,1,996,756a2.2,2.2,0,0,1,.76-.47,2.69,2.69,0,0,1,1-.17,2.35,2.35,0,0,1,.91.17,2.12,2.12,0,0,1,1.19,1.22,2.58,2.58,0,0,1,.17,1A2.13,2.13,0,0,1,999.81,758.52Zm-1.24,1.68a2.68,2.68,0,0,0,.95-.67c-.1.16-.2.32-.31.49l-.37.54L996,764.5h.58a.36.36,0,0,0,.33-.16l2.5-3.67q.28-.41.49-.76a6.61,6.61,0,0,0,.37-.69,3.68,3.68,0,0,0,.23-.68,3.21,3.21,0,0,0,.08-.71,3.36,3.36,0,0,0-.21-1.23,2.78,2.78,0,0,0-.59-.95,2.62,2.62,0,0,0-.91-.61,3.06,3.06,0,0,0-1.16-.22,3.3,3.3,0,0,0-1.22.22,3,3,0,0,0-1,.6,2.74,2.74,0,0,0-.63.91,2.84,2.84,0,0,0-.23,1.14,3,3,0,0,0,.2,1.12,2.5,2.5,0,0,0,.56.86,2.46,2.46,0,0,0,.86.55,3,3,0,0,0,1.08.19A3,3,0,0,0,998.57,760.2Zm-6.52-5.49-.1.14,0,.11a1.6,1.6,0,0,1,.24.8,1.59,1.59,0,0,1-.17.71,4.37,4.37,0,0,1-.43.68l0,.09,0,.09.19.12a3.45,3.45,0,0,0,.67-.88,2.13,2.13,0,0,0,.26-1,2,2,0,0,0-.07-.51,2.07,2.07,0,0,0-.22-.51Zm-18.15.24h-4.29l-.75,4.23.42.13a7.25,7.25,0,0,1,.92-.2,6,6,0,0,1,.82-.06,3.2,3.2,0,0,1,1.1.17,2.11,2.11,0,0,1,.78.48,1.94,1.94,0,0,1,.46.74,2.82,2.82,0,0,1,.15.94,3,3,0,0,1-.2,1.12,2.34,2.34,0,0,1-.55.83,2.41,2.41,0,0,1-.83.52,2.92,2.92,0,0,1-1,.18,3,3,0,0,1-.83-.1,4.11,4.11,0,0,1-.61-.22,4.42,4.42,0,0,1-.43-.22.55.55,0,0,0-.25-.1l-.2.1-.19.26a4.08,4.08,0,0,0,.47.32,3.66,3.66,0,0,0,.58.27,4.39,4.39,0,0,0,.68.19,3.87,3.87,0,0,0,.76.07,3.64,3.64,0,0,0,1.28-.22,3.1,3.1,0,0,0,1-.64,3,3,0,0,0,.71-1,3.54,3.54,0,0,0,.07-2.5,2.51,2.51,0,0,0-.58-.91,2.62,2.62,0,0,0-.95-.59,3.71,3.71,0,0,0-1.31-.21,6.25,6.25,0,0,0-.78.05,7,7,0,0,0-.86.17l.57-3.19h3.46a.39.39,0,0,0,.29-.09l.09-.23Zm-8,3.57a2.16,2.16,0,0,1-.47.71,2.38,2.38,0,0,1-.76.51,2.54,2.54,0,0,1-1,.2,2.62,2.62,0,0,1-.92-.16,2,2,0,0,1-.71-.45,2,2,0,0,1-.46-.72,2.6,2.6,0,0,1-.16-.95,2.39,2.39,0,0,1,.18-.93A2.12,2.12,0,0,1,962,756a2.2,2.2,0,0,1,.76-.47,2.69,2.69,0,0,1,1-.17,2.35,2.35,0,0,1,.91.17,2.12,2.12,0,0,1,1.19,1.22,2.58,2.58,0,0,1,.17,1A2.13,2.13,0,0,1,965.86,758.52Zm-1.24,1.68a2.68,2.68,0,0,0,.95-.67c-.1.16-.2.32-.31.49l-.37.54-2.82,3.94h.58a.36.36,0,0,0,.33-.16l2.5-3.67q.28-.41.49-.76a6.61,6.61,0,0,0,.37-.69,3.68,3.68,0,0,0,.23-.68,3.21,3.21,0,0,0,.08-.71,3.36,3.36,0,0,0-.21-1.23,2.78,2.78,0,0,0-.59-.95,2.62,2.62,0,0,0-.91-.61,3.06,3.06,0,0,0-1.16-.22,3.3,3.3,0,0,0-1.22.22,3,3,0,0,0-1,.6,2.74,2.74,0,0,0-.63.91,2.84,2.84,0,0,0-.23,1.14,3,3,0,0,0,.2,1.12,2.5,2.5,0,0,0,.56.86,2.46,2.46,0,0,0,.86.55,3,3,0,0,0,1.08.19A3,3,0,0,0,964.61,760.2Zm-6.52-5.49-.1.14,0,.11a1.6,1.6,0,0,1,.24.8,1.59,1.59,0,0,1-.17.71,4.37,4.37,0,0,1-.43.68l0,.09,0,.09.19.12a3.45,3.45,0,0,0,.67-.88,2.13,2.13,0,0,0,.26-1,2,2,0,0,0-.07-.51,2.07,2.07,0,0,0-.22-.51Zm-24.23.31a2.62,2.62,0,0,0-1.53,1.31,3.35,3.35,0,0,0-.34,1.09l.33.05h.07c.13,0,.21-.08.25-.24a2.69,2.69,0,0,1,.29-.76,2.12,2.12,0,0,1,.48-.58,2.2,2.2,0,0,1,.67-.38,2.45,2.45,0,0,1,.83-.13,2.7,2.7,0,0,1,.79.11,1.82,1.82,0,0,1,.66.36,1.73,1.73,0,0,1,.45.61,2.09,2.09,0,0,1,.17.88,2,2,0,0,1-.16.8,1.71,1.71,0,0,1-.48.63,2.34,2.34,0,0,1-.79.42,3.83,3.83,0,0,1-1.09.17v.47a4.61,4.61,0,0,1,1.31.16,2.36,2.36,0,0,1,.85.43,1.52,1.52,0,0,1,.46.65,2.37,2.37,0,0,1,.14.82,2.05,2.05,0,0,1-.15.75,2.08,2.08,0,0,1-.46.7,2.44,2.44,0,0,1-.76.52,2.6,2.6,0,0,1-1.06.2A3,3,0,0,1,934,764a2.41,2.41,0,0,1-.59-.25,1.9,1.9,0,0,1-.43-.34,2.54,2.54,0,0,1-.49-.76l-.12-.3,0-.14-.1-.13-.14,0-.16,0-.26.11a6,6,0,0,0,.32.87,2.63,2.63,0,0,0,.55.79,2.66,2.66,0,0,0,.89.57,3.67,3.67,0,0,0,1.36.22,3.51,3.51,0,0,0,1.22-.21,3,3,0,0,0,1-.57,2.64,2.64,0,0,0,.65-.87,2.52,2.52,0,0,0,.24-1.09,2.27,2.27,0,0,0-.54-1.54,2.67,2.67,0,0,0-1.59-.81,3,3,0,0,0,.75-.29,2.34,2.34,0,0,0,.6-.48,2.17,2.17,0,0,0,.4-.66,2.33,2.33,0,0,0,.14-.84,2.42,2.42,0,0,0-.21-1,2.16,2.16,0,0,0-.58-.76A2.5,2.5,0,0,0,936,755a3.45,3.45,0,0,0-1-.15A3.37,3.37,0,0,0,933.87,755Zm-4.57,3.5a2.16,2.16,0,0,1-.47.71,2.38,2.38,0,0,1-.76.51,2.54,2.54,0,0,1-1,.2,2.62,2.62,0,0,1-.92-.16,2,2,0,0,1-.71-.45,2,2,0,0,1-.46-.72,2.6,2.6,0,0,1-.16-.95,2.39,2.39,0,0,1,.18-.93,2.12,2.12,0,0,1,.49-.73,2.2,2.2,0,0,1,.76-.47,2.69,2.69,0,0,1,1-.17,2.35,2.35,0,0,1,.91.17,2.12,2.12,0,0,1,1.19,1.22,2.58,2.58,0,0,1,.17,1A2.13,2.13,0,0,1,929.29,758.52ZM928,760.2a2.68,2.68,0,0,0,.95-.67c-.1.16-.2.32-.31.49l-.37.54-2.82,3.94h.58a.36.36,0,0,0,.33-.16l2.5-3.67q.28-.41.49-.76a6.61,6.61,0,0,0,.37-.69,3.68,3.68,0,0,0,.23-.68,3.21,3.21,0,0,0,.08-.71,3.36,3.36,0,0,0-.21-1.23,2.78,2.78,0,0,0-.59-.95,2.62,2.62,0,0,0-.91-.61,3.06,3.06,0,0,0-1.16-.22,3.3,3.3,0,0,0-1.22.22,3,3,0,0,0-1,.6,2.74,2.74,0,0,0-.63.91,2.84,2.84,0,0,0-.23,1.14,3,3,0,0,0,.2,1.12,2.5,2.5,0,0,0,.56.86,2.46,2.46,0,0,0,.86.55,3,3,0,0,0,1.08.19A3,3,0,0,0,928,760.2Zm-6.52-5.49-.1.14,0,.11a1.6,1.6,0,0,1,.24.8,1.59,1.59,0,0,1-.17.71,4.37,4.37,0,0,1-.43.68l0,.09,0,.09.19.12a3.45,3.45,0,0,0,.67-.88,2.13,2.13,0,0,0,.26-1,2,2,0,0,0-.07-.51,2.07,2.07,0,0,0-.22-.51Zm-22.59,9.79h4.92V764h-2.09v-9.1h-.5l-2.76,2.44.2.27.18.08.16-.06,2.11-1.87c0,.17,0,.33,0,.49V764h-2.19Zm-3.62-6a2.16,2.16,0,0,1-.47.71,2.38,2.38,0,0,1-.76.51,2.54,2.54,0,0,1-1,.2,2.62,2.62,0,0,1-.92-.16,2,2,0,0,1-.71-.45,2,2,0,0,1-.46-.72,2.6,2.6,0,0,1-.16-.95,2.39,2.39,0,0,1,.18-.93,2.12,2.12,0,0,1,.49-.73,2.2,2.2,0,0,1,.76-.47,2.69,2.69,0,0,1,1-.17,2.35,2.35,0,0,1,.91.17,2.12,2.12,0,0,1,1.19,1.22,2.58,2.58,0,0,1,.17,1A2.13,2.13,0,0,1,895.33,758.52Zm-1.24,1.68a2.68,2.68,0,0,0,.95-.67c-.1.16-.2.32-.31.49l-.37.54-2.82,3.94h.58a.36.36,0,0,0,.33-.16l2.5-3.67q.28-.41.49-.76a6.61,6.61,0,0,0,.37-.69,3.68,3.68,0,0,0,.23-.68,3.21,3.21,0,0,0,.08-.71,3.36,3.36,0,0,0-.21-1.23,2.78,2.78,0,0,0-.59-.95,2.62,2.62,0,0,0-.91-.61,3.06,3.06,0,0,0-1.16-.22,3.3,3.3,0,0,0-1.22.22,3,3,0,0,0-1,.6,2.74,2.74,0,0,0-.63.91,2.84,2.84,0,0,0-.23,1.14,3,3,0,0,0,.2,1.12,2.5,2.5,0,0,0,.56.86,2.46,2.46,0,0,0,.86.55,3,3,0,0,0,1.08.19A3,3,0,0,0,894.09,760.2Zm-6.52-5.49-.1.14,0,.11a1.6,1.6,0,0,1,.24.8,1.59,1.59,0,0,1-.17.71,4.37,4.37,0,0,1-.43.68l0,.09,0,.09.19.12a3.45,3.45,0,0,0,.67-.88,2.13,2.13,0,0,0,.26-1,2,2,0,0,0-.07-.51,2.07,2.07,0,0,0-.22-.51ZM877,758.52a2.16,2.16,0,0,1-.47.71,2.38,2.38,0,0,1-.76.51,2.54,2.54,0,0,1-1,.2,2.62,2.62,0,0,1-.92-.16,2,2,0,0,1-.71-.45,2,2,0,0,1-.46-.72,2.6,2.6,0,0,1-.16-.95,2.39,2.39,0,0,1,.18-.93,2.12,2.12,0,0,1,.49-.73,2.2,2.2,0,0,1,.76-.47,2.69,2.69,0,0,1,1-.17,2.35,2.35,0,0,1,.91.17,2.12,2.12,0,0,1,1.19,1.22,2.58,2.58,0,0,1,.17,1A2.13,2.13,0,0,1,877,758.52Zm-1.24,1.68a2.68,2.68,0,0,0,.95-.67c-.1.16-.2.32-.31.49l-.37.54-2.82,3.94h.58a.36.36,0,0,0,.33-.16l2.5-3.67q.28-.41.49-.76a6.61,6.61,0,0,0,.37-.69,3.68,3.68,0,0,0,.23-.68,3.21,3.21,0,0,0,.08-.71,3.36,3.36,0,0,0-.21-1.23,2.78,2.78,0,0,0-.59-.95,2.62,2.62,0,0,0-.91-.61,3.06,3.06,0,0,0-1.16-.22,3.3,3.3,0,0,0-1.22.22,3,3,0,0,0-1,.6,2.74,2.74,0,0,0-.63.91,2.84,2.84,0,0,0-.23,1.14,3,3,0,0,0,.2,1.12,2.5,2.5,0,0,0,.56.86,2.46,2.46,0,0,0,.86.55,3,3,0,0,0,1.08.19A3,3,0,0,0,875.78,760.2Zm-9.93-1.09a1.88,1.88,0,0,1-.66-.45,1.78,1.78,0,0,1-.39-.64,2.27,2.27,0,0,1-.12-.74,2.06,2.06,0,0,1,.14-.77,1.73,1.73,0,0,1,.42-.62,1.91,1.91,0,0,1,.67-.41,2.58,2.58,0,0,1,.9-.15,2.55,2.55,0,0,1,.9.15,1.92,1.92,0,0,1,.67.41,1.78,1.78,0,0,1,.42.62,2.06,2.06,0,0,1,.14.77,2.22,2.22,0,0,1-.12.74,1.76,1.76,0,0,1-.39.64,1.86,1.86,0,0,1-.66.45,2.49,2.49,0,0,1-.95.17A2.52,2.52,0,0,1,865.85,759.11Zm0,4.83a2.27,2.27,0,0,1-.77-.43,1.94,1.94,0,0,1-.5-.67,2.1,2.1,0,0,1-.18-.87,2.16,2.16,0,0,1,.23-1,1.91,1.91,0,0,1,.59-.67,2.31,2.31,0,0,1,.79-.35,3.4,3.4,0,0,1,1.67,0,2.33,2.33,0,0,1,.79.35,1.93,1.93,0,0,1,.59.67,2.16,2.16,0,0,1,.23,1,2.1,2.1,0,0,1-.18.87,1.91,1.91,0,0,1-.5.67,2.31,2.31,0,0,1-.77.43,3.35,3.35,0,0,1-2,0Zm2.26.48a2.83,2.83,0,0,0,1-.53,2.43,2.43,0,0,0,.64-.83,2.54,2.54,0,0,0,.23-1.09,2.65,2.65,0,0,0-.15-.94,2.22,2.22,0,0,0-.43-.72,2.43,2.43,0,0,0-.66-.51,3.33,3.33,0,0,0-.84-.3,2.79,2.79,0,0,0,.74-.33,2.15,2.15,0,0,0,.55-.5,2.12,2.12,0,0,0,.34-.64,2.46,2.46,0,0,0,.12-.76,2.36,2.36,0,0,0-.19-1,2.24,2.24,0,0,0-.55-.78,2.62,2.62,0,0,0-.87-.52,3.58,3.58,0,0,0-2.29,0,2.58,2.58,0,0,0-.87.52,2.29,2.29,0,0,0-.55.78,2.4,2.4,0,0,0-.19,1,2.46,2.46,0,0,0,.12.76,2.16,2.16,0,0,0,.33.64,2.1,2.1,0,0,0,.54.5,2.81,2.81,0,0,0,.74.33,3.28,3.28,0,0,0-.84.3,2.41,2.41,0,0,0-.66.51,2.15,2.15,0,0,0-.43.72,2.74,2.74,0,0,0-.15.94,2.54,2.54,0,0,0,.23,1.09,2.43,2.43,0,0,0,.64.83,2.83,2.83,0,0,0,1,.53,4.44,4.44,0,0,0,2.52,0Zm-6.7-5.91a2.16,2.16,0,0,1-.47.71,2.38,2.38,0,0,1-.76.51,2.54,2.54,0,0,1-1,.2,2.62,2.62,0,0,1-.92-.16,2,2,0,0,1-.71-.45,2,2,0,0,1-.46-.72,2.6,2.6,0,0,1-.16-.95,2.39,2.39,0,0,1,.18-.93,2.12,2.12,0,0,1,.49-.73,2.2,2.2,0,0,1,.76-.47,2.69,2.69,0,0,1,1-.17,2.35,2.35,0,0,1,.91.17,2.12,2.12,0,0,1,1.19,1.22,2.58,2.58,0,0,1,.17,1A2.13,2.13,0,0,1,861.36,758.52Zm-1.24,1.68a2.68,2.68,0,0,0,.95-.67c-.1.16-.2.32-.31.49l-.37.54-2.82,3.94h.58a.36.36,0,0,0,.33-.16l2.5-3.67q.28-.41.49-.76a6.61,6.61,0,0,0,.37-.69,3.68,3.68,0,0,0,.23-.68,3.21,3.21,0,0,0,.08-.71,3.36,3.36,0,0,0-.21-1.23,2.78,2.78,0,0,0-.59-.95,2.62,2.62,0,0,0-.91-.61,3.06,3.06,0,0,0-1.16-.22,3.3,3.3,0,0,0-1.22.22,3,3,0,0,0-1,.6,2.74,2.74,0,0,0-.63.91,2.84,2.84,0,0,0-.23,1.14,3,3,0,0,0,.2,1.12,2.5,2.5,0,0,0,.56.86,2.46,2.46,0,0,0,.86.55,3,3,0,0,0,1.08.19A3,3,0,0,0,860.12,760.2Zm-10.8,4.3h4.92V764h-2.09v-9.1h-.5l-2.76,2.44.2.27.18.08.16-.06,2.11-1.87c0,.17,0,.33,0,.49V764h-2.19Z" transform="translate(-763.59 -479.96)" style="fill:#4a4a4a"/><path d="M1351.44,760.77a2.24,2.24,0,0,1,.49-.75,2.54,2.54,0,0,1,.79-.53,2.62,2.62,0,0,1,1.06-.21,2.65,2.65,0,0,1,1,.17,2.14,2.14,0,0,1,.75.47,2.11,2.11,0,0,1,.49.75,2.69,2.69,0,0,1,.17,1,2.58,2.58,0,0,1-.18,1,2.17,2.17,0,0,1-.5.76,2.34,2.34,0,0,1-.79.5,2.85,2.85,0,0,1-1,.18,2.55,2.55,0,0,1-1-.18,2.11,2.11,0,0,1-.74-.51,2.32,2.32,0,0,1-.47-.78,2.87,2.87,0,0,1-.17-1A2.23,2.23,0,0,1,1351.44,760.77Zm1.33-1.75a2.85,2.85,0,0,0-.95.64c.09-.16.2-.32.32-.48l.38-.52,2.85-3.72h-.57a.4.4,0,0,0-.34.16l-2.61,3.51a7.45,7.45,0,0,0-.93,1.58,3.43,3.43,0,0,0-.28,1.27,3.77,3.77,0,0,0,.22,1.32,2.77,2.77,0,0,0,.61,1,2.66,2.66,0,0,0,.95.62,3.33,3.33,0,0,0,1.22.22,3.54,3.54,0,0,0,1.28-.22,2.92,2.92,0,0,0,1-.62,2.81,2.81,0,0,0,.65-.94,3,3,0,0,0,.23-1.19,3.1,3.1,0,0,0-.21-1.17,2.55,2.55,0,0,0-1.48-1.46,3.09,3.09,0,0,0-1.13-.2A3,3,0,0,0,1352.77,759ZM1344,764.5h4.92V764h-2.09v-9.1h-.5l-2.76,2.44.2.27.18.08.16-.06,2.11-1.87c0,.17,0,.33,0,.49V764H1344Zm-3.54-9.79-.1.14,0,.11a1.6,1.6,0,0,1,.24.8,1.59,1.59,0,0,1-.17.71,4.37,4.37,0,0,1-.43.68l0,.09,0,.09.19.12a3.45,3.45,0,0,0,.67-.88,2.13,2.13,0,0,0,.26-1,2,2,0,0,0-.07-.51,2.07,2.07,0,0,0-.22-.51Z" transform="translate(-763.59 -479.96)" style="fill:#4a4a4a"/><path d="M1394.6,754.95v.41l.05.13.13.05h5.51a1.59,1.59,0,0,0-.21.32l-4.41,8.64h.44a.39.39,0,0,0,.24-.07l.14-.18,4.38-8.67.06-.15,0-.2v-.29ZM1388,764.5h4.92V764h-2.09v-9.1h-.5l-2.76,2.44.2.27.18.08.16-.06,2.11-1.87c0,.17,0,.33,0,.49V764H1388Zm-3.48-2.79a4.17,4.17,0,0,1-.6,1.34,2.3,2.3,0,0,1-.88.76,2.43,2.43,0,0,1-1.06.24,2.4,2.4,0,0,1-1.05-.24,2.33,2.33,0,0,1-.88-.76,4.13,4.13,0,0,1-.6-1.34,9,9,0,0,1,0-4,4.13,4.13,0,0,1,.6-1.35,2.31,2.31,0,0,1,1.93-1,2.41,2.41,0,0,1,1.06.24,2.33,2.33,0,0,1,.88.77,4.17,4.17,0,0,1,.6,1.35,9,9,0,0,1,0,4Zm.63-4.16a4.54,4.54,0,0,0-.73-1.52,3,3,0,0,0-1.09-.89,3.17,3.17,0,0,0-2.66,0,3,3,0,0,0-1.09.89,4.5,4.5,0,0,0-.73,1.52,9,9,0,0,0,0,4.35,4.5,4.5,0,0,0,.73,1.52,3,3,0,0,0,1.09.89,3.17,3.17,0,0,0,2.66,0,3,3,0,0,0,1.09-.89,4.54,4.54,0,0,0,.73-1.52,8.84,8.84,0,0,0,0-4.35ZM1373.2,755a2.69,2.69,0,0,0-.89.5,2.74,2.74,0,0,0-.64.81,3.17,3.17,0,0,0-.33,1.09l.32.05h.07q.2,0,.27-.24a2.39,2.39,0,0,1,.27-.75,2.13,2.13,0,0,1,.49-.59,2.21,2.21,0,0,1,.67-.38,2.44,2.44,0,0,1,.83-.14,2.64,2.64,0,0,1,.8.12,1.93,1.93,0,0,1,.67.37,1.78,1.78,0,0,1,.47.64,2.23,2.23,0,0,1,.17.91,2.6,2.6,0,0,1-.14.88,3.69,3.69,0,0,1-.4.8,6.1,6.1,0,0,1-.6.78q-.34.39-.75.8l-3.26,3.3-.09.13,0,.15v.23h6.16v-.38l-.06-.17-.17-.06h-4.12l-.47,0a3.47,3.47,0,0,0-.45.08l3-3.05.79-.82a6.53,6.53,0,0,0,.66-.83,4.1,4.1,0,0,0,.45-.89,3,3,0,0,0,.17-1,2.68,2.68,0,0,0-.22-1.13,2.3,2.3,0,0,0-.6-.8,2.52,2.52,0,0,0-.87-.48,3.53,3.53,0,0,0-2.13,0Z" transform="translate(-763.59 -479.96)" style="fill:#4a4a4a"/><path d="M1314.36,499.5l34.42-1.48,33.45,11.81a3,3,0,0,0,2-5.66L1349.68,492l-35.58,1.53a3,3,0,1,0,.26,6Z" transform="translate(-763.59 -479.96)" style="fill:#96bc7f"/></svg>