<?xml version="1.0" encoding="UTF-8"?>
<svg width="224px" height="91px" viewBox="0 0 224 91" version="1.1" xmlns="http://www.w3.org/2000/svg" xmlns:xlink="http://www.w3.org/1999/xlink">
    <!-- Generator: Sketch 42 (36781) - http://www.bohemiancoding.com/sketch -->
    <title>home-card / download</title>
    <desc>Created with Sketch.</desc>
    <defs>
        <path d="M0,7.99588761 C0,3.57988082 3.58644863,0 8.00526927,0 L215.994731,0 C220.415919,0 224,3.58130964 224,7.99588761 L224,91 L0,91 L0,7.99588761 Z" id="path-1"></path>
    </defs>
    <g id="Home,-Level-2,-etc" stroke="none" stroke-width="1" fill="none" fill-rule="evenodd">
        <g id="Home-Card-Art-Alt-03-2017" transform="translate(-631.000000, -341.000000)">
            <g id="home-card-/-download-copy" transform="translate(631.000000, 341.000000)">
                <g id="home-card-download">
                    <g id="Rectangle-100-+-Bitmap">
                        <mask id="mask-2" fill="white">
                            <use xlink:href="#path-1"></use>
                        </mask>
                        <use id="Rectangle-103" fill="#96BC7F" xlink:href="#path-1"></use>
                        <g id="Group-7" mask="url(#mask-2)" opacity="0.5">
                            <g transform="translate(153.593261, 31.124850) rotate(-20.000000) translate(-153.593261, -31.124850) translate(-47.406739, -70.375150)">
                                <g id="Group-4-Copy-2" transform="translate(0.256354, 143.254144)">
                                    <g id="icon-/-doc-green-no-shadow" transform="translate(0.000000, 0.862718)">
                                        <path d="M45.8886,49.1980546 C45.8886,50.1709832 45.0846,50.9817571 44.0916,50.9817571 L8.6406,50.9817571 C7.6486,50.9817571 6.8526,50.1709832 6.8526,49.1980546 L6.8526,1.96923534 C6.8526,0.996306741 7.6486,0.173595134 8.6406,0.173595134 L36.8066,0.173595134 C37.2776,0.173595134 37.4966,0.372558037 37.8316,0.696867571 L45.3526,7.98587355 C45.6936,8.31615197 45.8886,8.7767511 45.8886,9.24829318 L45.8886,49.1980546 Z"  fill="#69995A" fill-rule="evenodd"></path>
                                        <path d="M37.0455,24.4770133 L16.5015,24.4770133" id="Stroke-5" stroke="#44663A" stroke-width="1.955" stroke-linecap="round" stroke-linejoin="round"></path>
                                        <path d="M37.0455,32.6524985 L16.5015,32.6524985" id="Stroke-7" stroke="#44663A" stroke-width="1.955" stroke-linecap="round" stroke-linejoin="round"></path>
                                        <path d="M37.0455,40.8279837 L16.5015,40.8279837" id="Stroke-9" stroke="#44663A" stroke-width="1.955" stroke-linecap="round" stroke-linejoin="round"></path>
                                        <path d="M29.0785,16.2735738 L16.2385,16.2735738" id="Stroke-11" stroke="#44663A" stroke-width="1.955" stroke-linecap="round" stroke-linejoin="round"></path>
                                        <path d="M36.8062,9.2481937 L36.8062,0.173495652 C37.2782,0.173495652 37.4972,0.372458556 37.8322,0.696768089 L45.3532,7.98577407 C45.6942,8.31605249 45.8882,8.77665162 45.8882,9.2481937 L36.8062,9.2481937 Z" id="Fill-13" fill="#44653A" fill-rule="evenodd"></path>
                                    </g>
                                    <g id="icon-/-doc-green-no-shadow" transform="translate(64.494476, 0.862718)">
                                        <path d="M45.8886,49.1980546 C45.8886,50.1709832 45.0846,50.9817571 44.0916,50.9817571 L8.6406,50.9817571 C7.6486,50.9817571 6.8526,50.1709832 6.8526,49.1980546 L6.8526,1.96923534 C6.8526,0.996306741 7.6486,0.173595134 8.6406,0.173595134 L36.8066,0.173595134 C37.2776,0.173595134 37.4966,0.372558037 37.8316,0.696867571 L45.3526,7.98587355 C45.6936,8.31615197 45.8886,8.7767511 45.8886,9.24829318 L45.8886,49.1980546 Z"  fill="#69995A" fill-rule="evenodd"></path>
                                        <path d="M37.0455,24.4770133 L16.5015,24.4770133" id="Stroke-5" stroke="#44663A" stroke-width="1.955" stroke-linecap="round" stroke-linejoin="round"></path>
                                        <path d="M37.0455,32.6524985 L16.5015,32.6524985" id="Stroke-7" stroke="#44663A" stroke-width="1.955" stroke-linecap="round" stroke-linejoin="round"></path>
                                        <path d="M37.0455,40.8279837 L16.5015,40.8279837" id="Stroke-9" stroke="#44663A" stroke-width="1.955" stroke-linecap="round" stroke-linejoin="round"></path>
                                        <path d="M29.0785,16.2735738 L16.2385,16.2735738" id="Stroke-11" stroke="#44663A" stroke-width="1.955" stroke-linecap="round" stroke-linejoin="round"></path>
                                        <path d="M36.8062,9.2481937 L36.8062,0.173495652 C37.2782,0.173495652 37.4972,0.372458556 37.8322,0.696768089 L45.3532,7.98577407 C45.6942,8.31605249 45.8882,8.77665162 45.8882,9.2481937 L36.8062,9.2481937 Z" id="Fill-13" fill="#44653A" fill-rule="evenodd"></path>
                                    </g>
                                    <g id="icon-/-doc-green-no-shadow" transform="translate(128.988952, 0.862718)">
                                        <path d="M45.8886,49.1980546 C45.8886,50.1709832 45.0846,50.9817571 44.0916,50.9817571 L8.6406,50.9817571 C7.6486,50.9817571 6.8526,50.1709832 6.8526,49.1980546 L6.8526,1.96923534 C6.8526,0.996306741 7.6486,0.173595134 8.6406,0.173595134 L36.8066,0.173595134 C37.2776,0.173595134 37.4966,0.372558037 37.8316,0.696867571 L45.3526,7.98587355 C45.6936,8.31615197 45.8886,8.7767511 45.8886,9.24829318 L45.8886,49.1980546 Z"  fill="#69995A" fill-rule="evenodd"></path>
                                        <path d="M37.0455,24.4770133 L16.5015,24.4770133" id="Stroke-5" stroke="#44663A" stroke-width="1.955" stroke-linecap="round" stroke-linejoin="round"></path>
                                        <path d="M37.0455,32.6524985 L16.5015,32.6524985" id="Stroke-7" stroke="#44663A" stroke-width="1.955" stroke-linecap="round" stroke-linejoin="round"></path>
                                        <path d="M37.0455,40.8279837 L16.5015,40.8279837" id="Stroke-9" stroke="#44663A" stroke-width="1.955" stroke-linecap="round" stroke-linejoin="round"></path>
                                        <path d="M29.0785,16.2735738 L16.2385,16.2735738" id="Stroke-11" stroke="#44663A" stroke-width="1.955" stroke-linecap="round" stroke-linejoin="round"></path>
                                        <path d="M36.8062,9.2481937 L36.8062,0.173495652 C37.2782,0.173495652 37.4972,0.372458556 37.8322,0.696768089 L45.3532,7.98577407 C45.6942,8.31605249 45.8882,8.77665162 45.8882,9.2481937 L36.8062,9.2481937 Z" id="Fill-13" fill="#44653A" fill-rule="evenodd"></path>
                                    </g>
                                    <g id="icon-/-doc-green-no-shadow" transform="translate(193.483428, 0.862718)">
                                        <path d="M45.8886,49.1980546 C45.8886,50.1709832 45.0846,50.9817571 44.0916,50.9817571 L8.6406,50.9817571 C7.6486,50.9817571 6.8526,50.1709832 6.8526,49.1980546 L6.8526,1.96923534 C6.8526,0.996306741 7.6486,0.173595134 8.6406,0.173595134 L36.8066,0.173595134 C37.2776,0.173595134 37.4966,0.372558037 37.8316,0.696867571 L45.3526,7.98587355 C45.6936,8.31615197 45.8886,8.7767511 45.8886,9.24829318 L45.8886,49.1980546 Z"  fill="#69995A" fill-rule="evenodd"></path>
                                        <path d="M37.0455,24.4770133 L16.5015,24.4770133" id="Stroke-5" stroke="#44663A" stroke-width="1.955" stroke-linecap="round" stroke-linejoin="round"></path>
                                        <path d="M37.0455,32.6524985 L16.5015,32.6524985" id="Stroke-7" stroke="#44663A" stroke-width="1.955" stroke-linecap="round" stroke-linejoin="round"></path>
                                        <path d="M37.0455,40.8279837 L16.5015,40.8279837" id="Stroke-9" stroke="#44663A" stroke-width="1.955" stroke-linecap="round" stroke-linejoin="round"></path>
                                        <path d="M29.0785,16.2735738 L16.2385,16.2735738" id="Stroke-11" stroke="#44663A" stroke-width="1.955" stroke-linecap="round" stroke-linejoin="round"></path>
                                        <path d="M36.8062,9.2481937 L36.8062,0.173495652 C37.2782,0.173495652 37.4972,0.372458556 37.8322,0.696768089 L45.3532,7.98577407 C45.6942,8.31605249 45.8882,8.77665162 45.8882,9.2481937 L36.8062,9.2481937 Z" id="Fill-13" fill="#44653A" fill-rule="evenodd"></path>
                                    </g>
                                    <g id="icon-/-doc-green-no-shadow" transform="translate(257.977904, 0.862718)">
                                        <path d="M45.8886,49.1980546 C45.8886,50.1709832 45.0846,50.9817571 44.0916,50.9817571 L8.6406,50.9817571 C7.6486,50.9817571 6.8526,50.1709832 6.8526,49.1980546 L6.8526,1.96923534 C6.8526,0.996306741 7.6486,0.173595134 8.6406,0.173595134 L36.8066,0.173595134 C37.2776,0.173595134 37.4966,0.372558037 37.8316,0.696867571 L45.3526,7.98587355 C45.6936,8.31615197 45.8886,8.7767511 45.8886,9.24829318 L45.8886,49.1980546 Z"  fill="#69995A" fill-rule="evenodd"></path>
                                        <path d="M37.0455,24.4770133 L16.5015,24.4770133" id="Stroke-5" stroke="#44663A" stroke-width="1.955" stroke-linecap="round" stroke-linejoin="round"></path>
                                        <path d="M37.0455,32.6524985 L16.5015,32.6524985" id="Stroke-7" stroke="#44663A" stroke-width="1.955" stroke-linecap="round" stroke-linejoin="round"></path>
                                        <path d="M37.0455,40.8279837 L16.5015,40.8279837" id="Stroke-9" stroke="#44663A" stroke-width="1.955" stroke-linecap="round" stroke-linejoin="round"></path>
                                        <path d="M29.0785,16.2735738 L16.2385,16.2735738" id="Stroke-11" stroke="#44663A" stroke-width="1.955" stroke-linecap="round" stroke-linejoin="round"></path>
                                        <path d="M36.8062,9.2481937 L36.8062,0.173495652 C37.2782,0.173495652 37.4972,0.372458556 37.8322,0.696768089 L45.3532,7.98577407 C45.6942,8.31605249 45.8882,8.77665162 45.8882,9.2481937 L36.8062,9.2481937 Z" id="Fill-13" fill="#44653A" fill-rule="evenodd"></path>
                                    </g>
                                    <g id="icon-/-doc-green-no-shadow" transform="translate(322.472380, 0.862718)">
                                        <path d="M45.8886,49.1980546 C45.8886,50.1709832 45.0846,50.9817571 44.0916,50.9817571 L8.6406,50.9817571 C7.6486,50.9817571 6.8526,50.1709832 6.8526,49.1980546 L6.8526,1.96923534 C6.8526,0.996306741 7.6486,0.173595134 8.6406,0.173595134 L36.8066,0.173595134 C37.2776,0.173595134 37.4966,0.372558037 37.8316,0.696867571 L45.3526,7.98587355 C45.6936,8.31615197 45.8886,8.7767511 45.8886,9.24829318 L45.8886,49.1980546 Z"  fill="#69995A" fill-rule="evenodd"></path>
                                        <path d="M37.0455,24.4770133 L16.5015,24.4770133" id="Stroke-5" stroke="#44663A" stroke-width="1.955" stroke-linecap="round" stroke-linejoin="round"></path>
                                        <path d="M37.0455,32.6524985 L16.5015,32.6524985" id="Stroke-7" stroke="#44663A" stroke-width="1.955" stroke-linecap="round" stroke-linejoin="round"></path>
                                        <path d="M37.0455,40.8279837 L16.5015,40.8279837" id="Stroke-9" stroke="#44663A" stroke-width="1.955" stroke-linecap="round" stroke-linejoin="round"></path>
                                        <path d="M29.0785,16.2735738 L16.2385,16.2735738" id="Stroke-11" stroke="#44663A" stroke-width="1.955" stroke-linecap="round" stroke-linejoin="round"></path>
                                        <path d="M36.8062,9.2481937 L36.8062,0.173495652 C37.2782,0.173495652 37.4972,0.372458556 37.8322,0.696768089 L45.3532,7.98577407 C45.6942,8.31605249 45.8882,8.77665162 45.8882,9.2481937 L36.8062,9.2481937 Z" id="Fill-13" fill="#44653A" fill-rule="evenodd"></path>
                                    </g>
                                </g>
                                <g id="Group-4-Copy-3" transform="translate(32.460774, 71.071823)">
                                    <g id="icon-/-doc-green-no-shadow" transform="translate(0.000000, 0.862718)">
                                        <path d="M45.8886,49.1980546 C45.8886,50.1709832 45.0846,50.9817571 44.0916,50.9817571 L8.6406,50.9817571 C7.6486,50.9817571 6.8526,50.1709832 6.8526,49.1980546 L6.8526,1.96923534 C6.8526,0.996306741 7.6486,0.173595134 8.6406,0.173595134 L36.8066,0.173595134 C37.2776,0.173595134 37.4966,0.372558037 37.8316,0.696867571 L45.3526,7.98587355 C45.6936,8.31615197 45.8886,8.7767511 45.8886,9.24829318 L45.8886,49.1980546 Z"  fill="#69995A" fill-rule="evenodd"></path>
                                        <path d="M37.0455,24.4770133 L16.5015,24.4770133" id="Stroke-5" stroke="#44663A" stroke-width="1.955" stroke-linecap="round" stroke-linejoin="round"></path>
                                        <path d="M37.0455,32.6524985 L16.5015,32.6524985" id="Stroke-7" stroke="#44663A" stroke-width="1.955" stroke-linecap="round" stroke-linejoin="round"></path>
                                        <path d="M37.0455,40.8279837 L16.5015,40.8279837" id="Stroke-9" stroke="#44663A" stroke-width="1.955" stroke-linecap="round" stroke-linejoin="round"></path>
                                        <path d="M29.0785,16.2735738 L16.2385,16.2735738" id="Stroke-11" stroke="#44663A" stroke-width="1.955" stroke-linecap="round" stroke-linejoin="round"></path>
                                        <path d="M36.8062,9.2481937 L36.8062,0.173495652 C37.2782,0.173495652 37.4972,0.372458556 37.8322,0.696768089 L45.3532,7.98577407 C45.6942,8.31605249 45.8882,8.77665162 45.8882,9.2481937 L36.8062,9.2481937 Z" id="Fill-13" fill="#44653A" fill-rule="evenodd"></path>
                                    </g>
                                    <g id="icon-/-doc-green-no-shadow" transform="translate(128.988952, 0.862718)">
                                        <path d="M45.8886,49.1980546 C45.8886,50.1709832 45.0846,50.9817571 44.0916,50.9817571 L8.6406,50.9817571 C7.6486,50.9817571 6.8526,50.1709832 6.8526,49.1980546 L6.8526,1.96923534 C6.8526,0.996306741 7.6486,0.173595134 8.6406,0.173595134 L36.8066,0.173595134 C37.2776,0.173595134 37.4966,0.372558037 37.8316,0.696867571 L45.3526,7.98587355 C45.6936,8.31615197 45.8886,8.7767511 45.8886,9.24829318 L45.8886,49.1980546 Z"  fill="#69995A" fill-rule="evenodd"></path>
                                        <path d="M37.0455,24.4770133 L16.5015,24.4770133" id="Stroke-5" stroke="#44663A" stroke-width="1.955" stroke-linecap="round" stroke-linejoin="round"></path>
                                        <path d="M37.0455,32.6524985 L16.5015,32.6524985" id="Stroke-7" stroke="#44663A" stroke-width="1.955" stroke-linecap="round" stroke-linejoin="round"></path>
                                        <path d="M37.0455,40.8279837 L16.5015,40.8279837" id="Stroke-9" stroke="#44663A" stroke-width="1.955" stroke-linecap="round" stroke-linejoin="round"></path>
                                        <path d="M29.0785,16.2735738 L16.2385,16.2735738" id="Stroke-11" stroke="#44663A" stroke-width="1.955" stroke-linecap="round" stroke-linejoin="round"></path>
                                        <path d="M36.8062,9.2481937 L36.8062,0.173495652 C37.2782,0.173495652 37.4972,0.372458556 37.8322,0.696768089 L45.3532,7.98577407 C45.6942,8.31605249 45.8882,8.77665162 45.8882,9.2481937 L36.8062,9.2481937 Z" id="Fill-13" fill="#44653A" fill-rule="evenodd"></path>
                                    </g>
                                    <g id="icon-/-doc-green-no-shadow" transform="translate(193.483428, 0.862718)">
                                        <path d="M45.8886,49.1980546 C45.8886,50.1709832 45.0846,50.9817571 44.0916,50.9817571 L8.6406,50.9817571 C7.6486,50.9817571 6.8526,50.1709832 6.8526,49.1980546 L6.8526,1.96923534 C6.8526,0.996306741 7.6486,0.173595134 8.6406,0.173595134 L36.8066,0.173595134 C37.2776,0.173595134 37.4966,0.372558037 37.8316,0.696867571 L45.3526,7.98587355 C45.6936,8.31615197 45.8886,8.7767511 45.8886,9.24829318 L45.8886,49.1980546 Z"  fill="#69995A" fill-rule="evenodd"></path>
                                        <path d="M37.0455,24.4770133 L16.5015,24.4770133" id="Stroke-5" stroke="#44663A" stroke-width="1.955" stroke-linecap="round" stroke-linejoin="round"></path>
                                        <path d="M37.0455,32.6524985 L16.5015,32.6524985" id="Stroke-7" stroke="#44663A" stroke-width="1.955" stroke-linecap="round" stroke-linejoin="round"></path>
                                        <path d="M37.0455,40.8279837 L16.5015,40.8279837" id="Stroke-9" stroke="#44663A" stroke-width="1.955" stroke-linecap="round" stroke-linejoin="round"></path>
                                        <path d="M29.0785,16.2735738 L16.2385,16.2735738" id="Stroke-11" stroke="#44663A" stroke-width="1.955" stroke-linecap="round" stroke-linejoin="round"></path>
                                        <path d="M36.8062,9.2481937 L36.8062,0.173495652 C37.2782,0.173495652 37.4972,0.372458556 37.8322,0.696768089 L45.3532,7.98577407 C45.6942,8.31605249 45.8882,8.77665162 45.8882,9.2481937 L36.8062,9.2481937 Z" id="Fill-13" fill="#44653A" fill-rule="evenodd"></path>
                                    </g>
                                    <g id="icon-/-doc-green-no-shadow" transform="translate(257.977904, 0.862718)">
                                        <path d="M45.8886,49.1980546 C45.8886,50.1709832 45.0846,50.9817571 44.0916,50.9817571 L8.6406,50.9817571 C7.6486,50.9817571 6.8526,50.1709832 6.8526,49.1980546 L6.8526,1.96923534 C6.8526,0.996306741 7.6486,0.173595134 8.6406,0.173595134 L36.8066,0.173595134 C37.2776,0.173595134 37.4966,0.372558037 37.8316,0.696867571 L45.3526,7.98587355 C45.6936,8.31615197 45.8886,8.7767511 45.8886,9.24829318 L45.8886,49.1980546 Z"  fill="#69995A" fill-rule="evenodd"></path>
                                        <path d="M37.0455,24.4770133 L16.5015,24.4770133" id="Stroke-5" stroke="#44663A" stroke-width="1.955" stroke-linecap="round" stroke-linejoin="round"></path>
                                        <path d="M37.0455,32.6524985 L16.5015,32.6524985" id="Stroke-7" stroke="#44663A" stroke-width="1.955" stroke-linecap="round" stroke-linejoin="round"></path>
                                        <path d="M37.0455,40.8279837 L16.5015,40.8279837" id="Stroke-9" stroke="#44663A" stroke-width="1.955" stroke-linecap="round" stroke-linejoin="round"></path>
                                        <path d="M29.0785,16.2735738 L16.2385,16.2735738" id="Stroke-11" stroke="#44663A" stroke-width="1.955" stroke-linecap="round" stroke-linejoin="round"></path>
                                        <path d="M36.8062,9.2481937 L36.8062,0.173495652 C37.2782,0.173495652 37.4972,0.372458556 37.8322,0.696768089 L45.3532,7.98577407 C45.6942,8.31605249 45.8882,8.77665162 45.8882,9.2481937 L36.8062,9.2481937 Z" id="Fill-13" fill="#44653A" fill-rule="evenodd"></path>
                                    </g>
                                    <g id="icon-/-doc-green-no-shadow" transform="translate(322.472380, 0.862718)">
                                        <path d="M45.8886,49.1980546 C45.8886,50.1709832 45.0846,50.9817571 44.0916,50.9817571 L8.6406,50.9817571 C7.6486,50.9817571 6.8526,50.1709832 6.8526,49.1980546 L6.8526,1.96923534 C6.8526,0.996306741 7.6486,0.173595134 8.6406,0.173595134 L36.8066,0.173595134 C37.2776,0.173595134 37.4966,0.372558037 37.8316,0.696867571 L45.3526,7.98587355 C45.6936,8.31615197 45.8886,8.7767511 45.8886,9.24829318 L45.8886,49.1980546 Z"  fill="#69995A" fill-rule="evenodd"></path>
                                        <path d="M37.0455,24.4770133 L16.5015,24.4770133" id="Stroke-5" stroke="#44663A" stroke-width="1.955" stroke-linecap="round" stroke-linejoin="round"></path>
                                        <path d="M37.0455,32.6524985 L16.5015,32.6524985" id="Stroke-7" stroke="#44663A" stroke-width="1.955" stroke-linecap="round" stroke-linejoin="round"></path>
                                        <path d="M37.0455,40.8279837 L16.5015,40.8279837" id="Stroke-9" stroke="#44663A" stroke-width="1.955" stroke-linecap="round" stroke-linejoin="round"></path>
                                        <path d="M29.0785,16.2735738 L16.2385,16.2735738" id="Stroke-11" stroke="#44663A" stroke-width="1.955" stroke-linecap="round" stroke-linejoin="round"></path>
                                        <path d="M36.8062,9.2481937 L36.8062,0.173495652 C37.2782,0.173495652 37.4972,0.372458556 37.8322,0.696768089 L45.3532,7.98577407 C45.6942,8.31605249 45.8882,8.77665162 45.8882,9.2481937 L36.8062,9.2481937 Z" id="Fill-13" fill="#44653A" fill-rule="evenodd"></path>
                                    </g>
                                </g>
                                <g id="Group-4-Copy-4" transform="translate(0.256354, -0.000000)">
                                    <g id="icon-/-doc-green-no-shadow" transform="translate(-0.000000, 0.862718)">
                                        <path d="M45.8886,49.1980546 C45.8886,50.1709832 45.0846,50.9817571 44.0916,50.9817571 L8.6406,50.9817571 C7.6486,50.9817571 6.8526,50.1709832 6.8526,49.1980546 L6.8526,1.96923534 C6.8526,0.996306741 7.6486,0.173595134 8.6406,0.173595134 L36.8066,0.173595134 C37.2776,0.173595134 37.4966,0.372558037 37.8316,0.696867571 L45.3526,7.98587355 C45.6936,8.31615197 45.8886,8.7767511 45.8886,9.24829318 L45.8886,49.1980546 Z"  fill="#69995A" fill-rule="evenodd"></path>
                                        <path d="M37.0455,24.4770133 L16.5015,24.4770133" id="Stroke-5" stroke="#44663A" stroke-width="1.955" stroke-linecap="round" stroke-linejoin="round"></path>
                                        <path d="M37.0455,32.6524985 L16.5015,32.6524985" id="Stroke-7" stroke="#44663A" stroke-width="1.955" stroke-linecap="round" stroke-linejoin="round"></path>
                                        <path d="M37.0455,40.8279837 L16.5015,40.8279837" id="Stroke-9" stroke="#44663A" stroke-width="1.955" stroke-linecap="round" stroke-linejoin="round"></path>
                                        <path d="M29.0785,16.2735738 L16.2385,16.2735738" id="Stroke-11" stroke="#44663A" stroke-width="1.955" stroke-linecap="round" stroke-linejoin="round"></path>
                                        <path d="M36.8062,9.2481937 L36.8062,0.173495652 C37.2782,0.173495652 37.4972,0.372458556 37.8322,0.696768089 L45.3532,7.98577407 C45.6942,8.31605249 45.8882,8.77665162 45.8882,9.2481937 L36.8062,9.2481937 Z" id="Fill-13" fill="#44653A" fill-rule="evenodd"></path>
                                    </g>
                                    <g id="icon-/-doc-green-no-shadow" transform="translate(64.494476, 0.862718)">
                                        <path d="M45.8886,49.1980546 C45.8886,50.1709832 45.0846,50.9817571 44.0916,50.9817571 L8.6406,50.9817571 C7.6486,50.9817571 6.8526,50.1709832 6.8526,49.1980546 L6.8526,1.96923534 C6.8526,0.996306741 7.6486,0.173595134 8.6406,0.173595134 L36.8066,0.173595134 C37.2776,0.173595134 37.4966,0.372558037 37.8316,0.696867571 L45.3526,7.98587355 C45.6936,8.31615197 45.8886,8.7767511 45.8886,9.24829318 L45.8886,49.1980546 Z"  fill="#69995A" fill-rule="evenodd"></path>
                                        <path d="M37.0455,24.4770133 L16.5015,24.4770133" id="Stroke-5" stroke="#44663A" stroke-width="1.955" stroke-linecap="round" stroke-linejoin="round"></path>
                                        <path d="M37.0455,32.6524985 L16.5015,32.6524985" id="Stroke-7" stroke="#44663A" stroke-width="1.955" stroke-linecap="round" stroke-linejoin="round"></path>
                                        <path d="M37.0455,40.8279837 L16.5015,40.8279837" id="Stroke-9" stroke="#44663A" stroke-width="1.955" stroke-linecap="round" stroke-linejoin="round"></path>
                                        <path d="M29.0785,16.2735738 L16.2385,16.2735738" id="Stroke-11" stroke="#44663A" stroke-width="1.955" stroke-linecap="round" stroke-linejoin="round"></path>
                                        <path d="M36.8062,9.2481937 L36.8062,0.173495652 C37.2782,0.173495652 37.4972,0.372458556 37.8322,0.696768089 L45.3532,7.98577407 C45.6942,8.31605249 45.8882,8.77665162 45.8882,9.2481937 L36.8062,9.2481937 Z" id="Fill-13" fill="#44653A" fill-rule="evenodd"></path>
                                    </g>
                                    <g id="icon-/-doc-green-no-shadow" transform="translate(128.988952, 0.862718)">
                                        <path d="M45.8886,49.1980546 C45.8886,50.1709832 45.0846,50.9817571 44.0916,50.9817571 L8.6406,50.9817571 C7.6486,50.9817571 6.8526,50.1709832 6.8526,49.1980546 L6.8526,1.96923534 C6.8526,0.996306741 7.6486,0.173595134 8.6406,0.173595134 L36.8066,0.173595134 C37.2776,0.173595134 37.4966,0.372558037 37.8316,0.696867571 L45.3526,7.98587355 C45.6936,8.31615197 45.8886,8.7767511 45.8886,9.24829318 L45.8886,49.1980546 Z"  fill="#69995A" fill-rule="evenodd"></path>
                                        <path d="M37.0455,24.4770133 L16.5015,24.4770133" id="Stroke-5" stroke="#44663A" stroke-width="1.955" stroke-linecap="round" stroke-linejoin="round"></path>
                                        <path d="M37.0455,32.6524985 L16.5015,32.6524985" id="Stroke-7" stroke="#44663A" stroke-width="1.955" stroke-linecap="round" stroke-linejoin="round"></path>
                                        <path d="M37.0455,40.8279837 L16.5015,40.8279837" id="Stroke-9" stroke="#44663A" stroke-width="1.955" stroke-linecap="round" stroke-linejoin="round"></path>
                                        <path d="M29.0785,16.2735738 L16.2385,16.2735738" id="Stroke-11" stroke="#44663A" stroke-width="1.955" stroke-linecap="round" stroke-linejoin="round"></path>
                                        <path d="M36.8062,9.2481937 L36.8062,0.173495652 C37.2782,0.173495652 37.4972,0.372458556 37.8322,0.696768089 L45.3532,7.98577407 C45.6942,8.31605249 45.8882,8.77665162 45.8882,9.2481937 L36.8062,9.2481937 Z" id="Fill-13" fill="#44653A" fill-rule="evenodd"></path>
                                    </g>
                                    <g id="icon-/-doc-green-no-shadow" transform="translate(193.483428, 0.862718)">
                                        <path d="M45.8886,49.1980546 C45.8886,50.1709832 45.0846,50.9817571 44.0916,50.9817571 L8.6406,50.9817571 C7.6486,50.9817571 6.8526,50.1709832 6.8526,49.1980546 L6.8526,1.96923534 C6.8526,0.996306741 7.6486,0.173595134 8.6406,0.173595134 L36.8066,0.173595134 C37.2776,0.173595134 37.4966,0.372558037 37.8316,0.696867571 L45.3526,7.98587355 C45.6936,8.31615197 45.8886,8.7767511 45.8886,9.24829318 L45.8886,49.1980546 Z"  fill="#69995A" fill-rule="evenodd"></path>
                                        <path d="M37.0455,24.4770133 L16.5015,24.4770133" id="Stroke-5" stroke="#44663A" stroke-width="1.955" stroke-linecap="round" stroke-linejoin="round"></path>
                                        <path d="M37.0455,32.6524985 L16.5015,32.6524985" id="Stroke-7" stroke="#44663A" stroke-width="1.955" stroke-linecap="round" stroke-linejoin="round"></path>
                                        <path d="M37.0455,40.8279837 L16.5015,40.8279837" id="Stroke-9" stroke="#44663A" stroke-width="1.955" stroke-linecap="round" stroke-linejoin="round"></path>
                                        <path d="M29.0785,16.2735738 L16.2385,16.2735738" id="Stroke-11" stroke="#44663A" stroke-width="1.955" stroke-linecap="round" stroke-linejoin="round"></path>
                                        <path d="M36.8062,9.2481937 L36.8062,0.173495652 C37.2782,0.173495652 37.4972,0.372458556 37.8322,0.696768089 L45.3532,7.98577407 C45.6942,8.31605249 45.8882,8.77665162 45.8882,9.2481937 L36.8062,9.2481937 Z" id="Fill-13" fill="#44653A" fill-rule="evenodd"></path>
                                    </g>
                                    <g id="icon-/-doc-green-no-shadow" transform="translate(257.977904, 0.862718)">
                                        <path d="M45.8886,49.1980546 C45.8886,50.1709832 45.0846,50.9817571 44.0916,50.9817571 L8.6406,50.9817571 C7.6486,50.9817571 6.8526,50.1709832 6.8526,49.1980546 L6.8526,1.96923534 C6.8526,0.996306741 7.6486,0.173595134 8.6406,0.173595134 L36.8066,0.173595134 C37.2776,0.173595134 37.4966,0.372558037 37.8316,0.696867571 L45.3526,7.98587355 C45.6936,8.31615197 45.8886,8.7767511 45.8886,9.24829318 L45.8886,49.1980546 Z"  fill="#69995A" fill-rule="evenodd"></path>
                                        <path d="M37.0455,24.4770133 L16.5015,24.4770133" id="Stroke-5" stroke="#44663A" stroke-width="1.955" stroke-linecap="round" stroke-linejoin="round"></path>
                                        <path d="M37.0455,32.6524985 L16.5015,32.6524985" id="Stroke-7" stroke="#44663A" stroke-width="1.955" stroke-linecap="round" stroke-linejoin="round"></path>
                                        <path d="M37.0455,40.8279837 L16.5015,40.8279837" id="Stroke-9" stroke="#44663A" stroke-width="1.955" stroke-linecap="round" stroke-linejoin="round"></path>
                                        <path d="M29.0785,16.2735738 L16.2385,16.2735738" id="Stroke-11" stroke="#44663A" stroke-width="1.955" stroke-linecap="round" stroke-linejoin="round"></path>
                                        <path d="M36.8062,9.2481937 L36.8062,0.173495652 C37.2782,0.173495652 37.4972,0.372458556 37.8322,0.696768089 L45.3532,7.98577407 C45.6942,8.31605249 45.8882,8.77665162 45.8882,9.2481937 L36.8062,9.2481937 Z" id="Fill-13" fill="#44653A" fill-rule="evenodd"></path>
                                    </g>
                                </g>
                            </g>
                        </g>
                        <path d="M97.2458823,80.4906913 C97.2458823,81.6138251 96.3225699,82.5497699 95.1822102,82.5497699 L54.4703339,82.5497699 C53.3311226,82.5497699 52.4169974,81.6138251 52.4169974,80.4906913 L52.4169974,25.9704712 C52.4169974,24.8473374 53.3311226,23.8976119 54.4703339,23.8976119 L86.8161269,23.8976119 C87.3570226,23.8976119 87.6085219,24.1272916 87.9932354,24.5016695 L96.6303407,32.9159855 C97.0219446,33.2972538 97.2458823,33.8289623 97.2458823,34.3733032 L97.2458823,80.4906913 Z"  fill="#7DA36A" mask="url(#mask-2)" transform="translate(74.831440, 53.223691) rotate(-20.000000) translate(-74.831440, -53.223691) "></path>
                        <g id="icon-/-doc-whte-no-shadow" mask="url(#mask-2)">
                            <g transform="translate(76.558581, 51.697707) rotate(-20.000000) translate(-76.558581, -51.697707) translate(50.663581, 18.877299)">
                                <path d="M51.8740696,55.9839932 C51.8740696,57.0911189 50.9652,58.0137236 49.8426783,58.0137236 L9.76763478,58.0137236 C8.64624348,58.0137236 7.74641739,57.0911189 7.74641739,55.9839932 L7.74641739,2.24085401 C7.74641739,1.13372836 8.64624348,0.19753929 9.76763478,0.19753929 L41.6074609,0.19753929 C42.1398957,0.19753929 42.3874609,0.423945353 42.7661565,0.792987236 L51.2681565,9.08737335 C51.6536348,9.46320742 51.8740696,9.98733746 51.8740696,10.5239198 L51.8740696,55.9839932 Z"  stroke="none" fill="#FFFFFF" fill-rule="evenodd"></path>
                                <path d="M41.8775217,27.8531531 L18.6538696,27.8531531" id="Stroke-5" stroke="#587F4C" stroke-width="1.955" stroke-linecap="round" stroke-linejoin="round" fill="none"></path>
                                <path d="M41.8775217,37.1562914 L18.6538696,37.1562914" id="Stroke-7" stroke="#587F4C" stroke-width="1.955" stroke-linecap="round" stroke-linejoin="round" fill="none"></path>
                                <path d="M41.8775217,46.4594298 L18.6538696,46.4594298" id="Stroke-9" stroke="#587F4C" stroke-width="1.955" stroke-linecap="round" stroke-linejoin="round" fill="none"></path>
                                <path d="M32.8713478,18.5182047 L18.3565652,18.5182047" id="Stroke-11" stroke="#587F4C" stroke-width="1.955" stroke-linecap="round" stroke-linejoin="round" fill="none"></path>
                                <path d="M41.6070087,10.5238066 L41.6070087,0.197426087 C42.1405739,0.197426087 42.3881391,0.42383215 42.7668348,0.792874033 L51.2688348,9.08726015 C51.654313,9.46309422 51.8736174,9.98722425 51.8736174,10.5238066 L41.6070087,10.5238066 Z" id="Fill-13" stroke="none" fill="#587F4C" fill-rule="evenodd"></path>
                            </g>
                        </g>
                    </g>
                </g>
            </g>
        </g>
    </g>
</svg>