<svg xmlns="http://www.w3.org/2000/svg" version="1.2" id="root" viewBox="815.3333446816546 176.343020725492 51.41318904237096 27.630571817300506"><g id="counties"><path id="county-25009" class="county feature" d="M847.33 176.343l1.405 2.768 2.724.606-.57 1.114-2.838 1.828.284 1.425-1.032.834-.61-.091-1.206-2.786-2.855-.242-.4-1.443.105-.155 2.068-1.791.186-1.079z" vector-effect="non-scaling-stroke" fill="inherit" stroke="inherit" stroke-width="inherit"><title>Essex County</title></path><path id="county-25003" class="county feature" d="M818.873 186.248l1.408 1.596.054 1.628.768 4.526.518 5.15-5.85 1.238-.125.029-.313-.645.202-8.233.113-4.591z" vector-effect="non-scaling-stroke" fill="inherit" stroke="inherit" stroke-width="inherit"><title>Berkshire County</title></path><path id="county-25011" class="county feature" d="M830.08 191.143l-1.16-1.195-4.3 1.372-.173-.876-2.402-.007-1.71-.965-.054-1.628-1.408-1.596 1.238-.27 6.295-1.337 2.345-.49.974.889.49 2.772z" vector-effect="non-scaling-stroke" fill="inherit" stroke="inherit" stroke-width="inherit"><title>Franklin County</title></path><path id="county-25017" class="county feature" d="M846.693 184.827l-.079 1.033-.307.126.237.352-.008.006-1.028 1.034.024.507-.25.476-1.976-.052.349 2.083-1.568 1.269-1.586-.327-.36-1.158 1.002-1.632-1.942.127.582-1.367-.355-2.45-1.791.714-.202-1.526-2.666.267-.898-1.278 8.043-1.831.318-.844.4 1.443 2.855.242z" vector-effect="non-scaling-stroke" fill="inherit" stroke="inherit" stroke-width="inherit"><title>Middlesex County</title></path><path id="county-25027" class="county feature" d="M833.469 183.12l.402-.09.898 1.279 2.666-.267.202 1.526 1.79-.715.356 2.45-.582 1.368 1.942-.127-1.002 1.632.36 1.158 1.586.327.402 2.607-3.975 1.219-4.138.667-.452.089-.605-2.4-1.82.036.284-1.261-.178-1.234-1.524-.241.135-3.331-.49-2.772-.975-.89z" vector-effect="non-scaling-stroke" fill="inherit" stroke="inherit" stroke-width="inherit"><title>Worcester County</title></path><path id="county-25015" class="county feature" d="M830.08 191.143l1.525.241.178 1.234-2.046 1.674-.328-.811-2.407.998-.85-.995-.323 1.832-3.224-.274-.06-1.793-1.442.749-.768-4.526 1.71.965 2.402.007.173.876 4.3-1.372z" vector-effect="non-scaling-stroke" fill="inherit" stroke="inherit" stroke-width="inherit"><title>Hampshire County</title></path><path id="county-25025" class="county feature" d="M846.536 186.344l.751 1.488-.94 1.31-1.065-.781.25-.476-.024-.507zm.008-.006l-.237-.352.237.352zm.759-1.42l-.689.942.079-1.033z" vector-effect="non-scaling-stroke" fill="inherit" stroke="inherit" stroke-width="inherit"><title>Suffolk County</title></path><path id="county-25021" class="county feature" d="M850.213 187.386l.67.285-.67-.285zm-4.931.975l1.066.781.939-1.31 1.616.241.527 1.611-1.762 1.679-3.47 3.08-1.71-.175-.4-2.607 1.567-1.269-.35-2.083zm.25-.476l-.024-.507.024.507z" vector-effect="non-scaling-stroke" fill="inherit" stroke="inherit" stroke-width="inherit"><title>Norfolk County</title></path><path id="county-25013" class="county feature" d="M831.783 192.618l-.283 1.26 1.819-.034.605 2.399-5.006 1.196-6.693 1.579-.604.13-.518-5.15 1.443-.75.059 1.794 3.224.274.323-1.832.85.995 2.407-.998.328.81z" vector-effect="non-scaling-stroke" fill="inherit" stroke="inherit" stroke-width="inherit"><title>Hampden County</title></path><path id="county-25023" class="county feature" d="M850.213 187.386l.67.285 2.674 2.25-.536 1.716 2.671.857.6 2.09-.803 1.465-1.286.566-.06 1.614-1.036.756-1.84-2.654-1.337.587.3-1.67-1.533-1.617-1.029-2.268 1.762-1.679-.527-1.61z" vector-effect="non-scaling-stroke" fill="inherit" stroke="inherit" stroke-width="inherit"><title>Plymouth County</title></path><path id="county-25005" class="county feature" d="M853.107 198.985l-.691 1.941-2.36 1.45-.966-2.916-.917-.043-.602-.58-1.518-.822-1.855-3.572 3.47-3.08 1.03 2.268 1.532 1.617-.3 1.67 1.337-.587z" vector-effect="non-scaling-stroke" fill="inherit" stroke="inherit" stroke-width="inherit"><title>Bristol County</title></path><path id="county-25001" class="county feature" d="M859.108 197.46l-.934 1.65-2.302 1.056-.383-4.117.803-1.465 1.854.735 2.052-.18 3.242-2.49-2.87-3.99 2.492 1.544 1.396 3.009-.521 2.002z" vector-effect="non-scaling-stroke" fill="inherit" stroke="inherit" stroke-width="inherit"><title>Barnstable County</title></path><path id="county-25007" class="county feature" d="M857.266 201.297l2.309 1.4-3.652 1.277.055-1.945z" vector-effect="non-scaling-stroke" fill="inherit" stroke="inherit" stroke-width="inherit"><title>Dukes County</title></path><path id="county-25019" class="county feature" d="M865.66 200.933l1.087 1.634-1.988.765z" vector-effect="non-scaling-stroke" fill="inherit" stroke="inherit" stroke-width="inherit"><title>Nantucket County</title></path></g><path id="counties-mesh" class="counties mesh" d="M818.873 186.248l1.408 1.596.054 1.628.768 4.526.518 5.15-5.85 1.238-.125.029-.313-.645.202-8.233.113-4.591 3.225-.698 1.238-.27 6.295-1.337 2.345-.49 4.718-1.032.402-.088 8.043-1.831.318-.844.105-.155 2.068-1.791.186-1.079 2.738-.988 1.406 2.768 2.724.606-.57 1.114-2.838 1.828.284 1.425-1.032.834-.61-.091-1.206-2.786-2.855-.242-.4-1.443m-13.481 3.795l.974.889.49 2.772-.134 3.33-1.162-1.194-4.299 1.372-.173-.876-2.402-.007-1.71-.965m26.358-4.645l-.079 1.033-.307.126.237.352-.008.006-1.028 1.034.024.507-.25.476-1.976-.052.349 2.083-1.568 1.269-1.586-.327-.36-1.158 1.002-1.632-1.942.127.582-1.367-.355-2.45-1.791.714-.202-1.526-2.666.267-.898-1.278m8.216 8.63l.402 2.607-3.975 1.219-4.138.667-.452.089-.605-2.4-1.82.036.284-1.261-.178-1.234-1.524-.241m1.702 1.475l-2.046 1.674-.328-.811-2.407.998-.85-.995-.323 1.832-3.224-.274-.06-1.793-1.442.749m25.433-7.654l.751 1.488-.94 1.31-1.065-.781m.25-.476l-.024-.507m.799-1.392l.237.352m.759-1.42l-.689.942m2.29 2.213l1.31-.687.669.285-.67-.285m-2.926.446l1.616.241.527 1.611-1.762 1.679-3.47 3.08-1.71-.175m-8.564 1.975l-5.006 1.196-6.693 1.579-.604.13m29.262-11.477l2.674 2.25-.536 1.716 2.671.857.6 2.09-.803 1.465-1.286.566-.06 1.614-1.036.756-1.84-2.654-1.337.587.3-1.67-1.533-1.617-1.029-2.268m5.439 7.622l-.691 1.941-2.36 1.45-.966-2.916-.917-.043-.602-.58-1.518-.822-1.855-3.572m12.094.141l1.854.735 2.052-.18 3.242-2.49-2.87-3.99 2.492 1.544 1.396 3.009-.521 2.002-4.83 2.246-.933 1.65-2.302 1.056-.383-4.117m1.777 5.248l2.309 1.4-3.652 1.277.055-1.945 1.288-.732m8.394-.364l1.087 1.634-1.988.765.9-2.4" vector-effect="non-scaling-stroke" fill="inherit" stroke="inherit" stroke-width="inherit"/></svg>