<svg id="Layer_1" data-name="Layer 1" xmlns="http://www.w3.org/2000/svg" viewBox="0 0 1773.2 1773.2"><defs><style>.cls-1{fill:#1478a6;}.cls-2{fill:#fff;}</style></defs><title>envelope</title><circle class="cls-1" cx="886.6" cy="886.6" r="886.6"/><path class="cls-2" d="M1334.55,761.66V1158.6q0,33-23.47,56.45t-56.45,23.47h-736q-33,0-56.45-23.47t-23.47-56.45V761.66a268.77,268.77,0,0,0,50.47,43.49q181,123,248.44,172.42c19,14,34.43,24.92,46.21,32.71s27.54,15.86,47.21,24,38,12.23,55,12.23h1q25.55,0,55-12.23t47.21-24c11.87-7.79,27.27-18.76,46.21-32.71q84.94-61.43,249-172.42A275.81,275.81,0,0,0,1334.55,761.66Zm0-147c0,26.37-8.15,51.46-24.46,75.47a238.5,238.5,0,0,1-61,61.52q-188,130.47-233.94,162.46-5,3.53-21.2,15.22c-10.78,7.79-19.84,14.13-27,19s-15.86,10.24-26,16.22a152.22,152.22,0,0,1-28.72,13.5,79.56,79.56,0,0,1-25,4.53h-1a79.56,79.56,0,0,1-25-4.53,152.22,152.22,0,0,1-28.72-13.5c-10.15-6-18.85-11.42-26-16.22s-16.13-11.14-27-19-18-13-21.38-15.22q-45.57-31.94-131-91.24T524.63,751.69q-31-20.93-58.53-57.72t-27.45-68.23q0-39,20.75-65t59.26-26h735.9q32.48,0,56.27,23.47C1326.58,573.83,1334.55,592.68,1334.55,614.7Z"/></svg>