<?xml version="1.0" encoding="UTF-8"?>
<svg width="44px" height="44px" viewBox="0 0 44 44" version="1.1" xmlns="http://www.w3.org/2000/svg" xmlns:xlink="http://www.w3.org/1999/xlink">
    <!-- Generator: Sketch 48.1 (47250) - http://www.bohemiancoding.com/sketch -->
    <title>Artboard</title>
    <desc>Created with Sketch.</desc>
    <defs></defs>
    <g id="Page-1" stroke="none" stroke-width="1" fill="none" fill-rule="evenodd">
        <g id="Artboard" fill="#587F4C">
            <path d="M36.5424107,17.2466518 C36.5424107,16.7153991 36.3716535,16.2790196 36.0301339,15.9375 L33.4402902,13.3761161 C33.0797973,13.0156232 32.6529043,12.8353795 32.1595982,12.8353795 C31.6662922,12.8353795 31.2393991,13.0156232 30.8789062,13.3761161 L19.2672991,24.9592634 L12.8353795,18.5273438 C12.4748866,18.1668509 12.0479935,17.9866071 11.5546875,17.9866071 C11.0613815,17.9866071 10.6344884,18.1668509 10.2739955,18.5273438 L7.68415179,21.0887277 C7.34263222,21.4302472 7.171875,21.8666268 7.171875,22.3978795 C7.171875,22.9101588 7.34263222,23.3370519 7.68415179,23.6785714 L17.9866071,33.9810268 C18.3471,34.3415197 18.7739931,34.5217634 19.2672991,34.5217634 C19.7795785,34.5217634 20.215958,34.3415197 20.5764509,33.9810268 L36.0301339,18.5273438 C36.3716535,18.1858242 36.5424107,17.7589311 36.5424107,17.2466518 Z M43.7142857,21.8571429 C43.7142857,25.8225645 42.7371749,29.479615 40.7829241,32.828404 C38.8286733,36.1771931 36.1771931,38.8286733 32.828404,40.7829241 C29.479615,42.7371749 25.8225645,43.7142857 21.8571429,43.7142857 C17.8917212,43.7142857 14.2346708,42.7371749 10.8858817,40.7829241 C7.53709263,38.8286733 4.88561245,36.1771931 2.93136161,32.828404 C0.977110765,29.479615 0,25.8225645 0,21.8571429 C0,17.8917212 0.977110765,14.2346708 2.93136161,10.8858817 C4.88561245,7.53709263 7.53709263,4.88561245 10.8858817,2.93136161 C14.2346708,0.977110765 17.8917212,0 21.8571429,0 C25.8225645,0 29.479615,0.977110765 32.828404,2.93136161 C36.1771931,4.88561245 38.8286733,7.53709263 40.7829241,10.8858817 C42.7371749,14.2346708 43.7142857,17.8917212 43.7142857,21.8571429 Z" id="ï˜"></path>
        </g>
    </g>
</svg>