<?xml version="1.0" encoding="UTF-8" standalone="no"?>
<svg width="43px" height="26px" viewBox="0 0 43 26" version="1.1" xmlns="http://www.w3.org/2000/svg" xmlns:xlink="http://www.w3.org/1999/xlink" xmlns:sketch="http://www.bohemiancoding.com/sketch/ns">
    <!-- Generator: Sketch 3.3.3 (12081) - http://www.bohemiancoding.com/sketch -->
    <title>Imported Layers</title>
    <desc>Created with Sketch.</desc>
    <defs></defs>
    <g id="Maps" stroke="none" stroke-width="1" fill="none" fill-rule="evenodd" sketch:type="MSPage">
        <g id="A---Commod-US" sketch:type="MSArtboardGroup" transform="translate(-1026.000000, -227.000000)" fill="#8C8C8C">
            <g id="MAP-/-Charts-buttons" sketch:type="MSLayerGroup" transform="translate(1026.000000, 217.000000)">
                <path d="M42.7151766,13.2821883 C42.6756272,13.2421983 42.5139791,13.2570965 42.4760223,13.2947342 C42.4319606,12.9620069 42.1694482,13.022384 41.9884235,12.7683299 C41.7569667,12.4434438 41.926047,11.8733903 41.6282322,11.5709822 C41.2316766,11.1687299 41.144084,11.5299467 40.7815038,11.6582807 C40.6302075,11.711862 40.7135532,11.4335003 40.3921149,11.6763154 C40.0035223,11.9698367 40.225689,12.8190361 40.1526951,13.2084812 C40.1067754,13.4544328 39.9278741,13.7652048 39.8469174,13.890925 C39.539547,14.368714 38.5038309,14.4675128 37.8450285,14.6523032 C37.3314174,14.7963195 36.7939174,15.0720675 36.5648495,15.595074 C36.371084,16.0378391 36.6707569,16.1580705 36.5643186,16.5080483 C36.3461334,17.2265614 34.9361581,16.6455303 34.6019791,17.2487781 C34.4923556,17.4468985 34.7766334,17.5728801 34.7288556,17.7283967 C34.6683371,17.9246875 34.4626272,18.0679197 34.3155778,18.1996514 C34.1242013,18.3711118 33.8664667,18.5119916 33.658368,18.6735199 C33.3114482,18.9427336 32.9568309,19.3376675 32.4917939,19.3773961 C32.1892013,19.4035334 31.856084,19.2148224 31.5420778,19.2221409 C31.8661704,18.783035 32.1584112,18.2958365 32.0665717,17.7733528 C32.0118927,17.4620581 31.8685593,16.777262 31.4481149,16.823525 C31.3164606,16.8381618 31.0210346,17.3841691 30.9716643,17.352543 C30.8227569,17.2566193 31.2339112,16.6141656 31.2511643,16.4254546 C31.2647013,16.2809156 31.1691457,15.8457303 31.0751828,15.7252375 C30.9201704,15.5265944 30.3863865,15.2963252 30.120689,15.3088711 C29.717763,15.3276899 29.6134482,15.5989946 29.5346149,15.9366879 C29.471442,15.7498065 29.250868,16.0381005 29.2139729,16.0822724 C28.9469482,16.4029765 28.8511272,16.7351811 28.8243186,17.1523316 C28.7799914,17.8475826 29.5813309,18.9003912 28.8471457,19.4707061 C27.5271519,20.4958093 28.4341334,15.8661173 28.4482013,15.8713448 C28.2915964,15.8138428 27.9091087,16.4981161 27.8093062,16.6094609 C27.900084,15.9973263 28.4779297,15.4502736 28.9705717,15.3107007 C29.4191519,15.1836736 30.2611025,15.3841463 30.6350964,15.1447291 C31.1057075,14.8431052 30.523084,14.8695038 30.5265346,14.9622911 C30.3988618,14.8812656 30.3646211,14.6125746 30.208547,14.4899909 C30.2887075,14.5529816 29.7243988,14.4811042 29.7711149,14.4912977 C29.7689914,14.490775 29.7270532,14.2824611 29.6092013,14.2686083 C29.4183556,14.2461303 29.1436334,14.370805 28.963405,14.4293524 C28.693726,14.5171736 28.4511211,14.7560681 28.1509174,14.6988275 C27.8536334,14.6421097 27.6115593,14.1204101 27.2526951,14.359566 C27.3169297,14.2314934 27.769226,13.9750869 27.7020717,13.7850691 C27.6195223,13.5516634 27.0828186,13.9481656 27.0368988,13.980053 C26.7141334,14.2032652 26.0869174,15.0208385 25.609405,14.759466 C25.801047,14.2218226 25.2924791,14.6052561 24.8845099,14.6590989 C25.3508741,14.3509407 25.6269235,13.9429381 26.1508865,13.715544 C26.3337692,13.6363481 27.2779112,13.4361367 27.1791704,13.1428767 C27.1332507,13.0064403 26.4972754,13.3266216 26.3080223,13.3415199 C26.0770964,13.3595546 25.7198248,13.1488883 25.5669359,13.1548999 C25.369189,13.1630024 25.2229359,13.3383834 25.015368,13.3219169 C24.8624791,13.3096324 24.8441643,13.0553169 24.7382569,13.0247363 C24.4239853,12.9340401 23.8578186,12.953643 23.6343248,12.9230624 C23.2162692,12.8655605 23.1183248,12.738272 22.9012013,12.4928432 C22.3398124,11.8577079 22.7708741,12.2774722 22.2129359,12.4826497 C21.7362198,12.6577693 20.892942,12.4465803 20.3806581,12.4350799 C19.8304174,12.4222726 19.2777877,12.4248863 18.7262198,12.4034538 C15.6166828,12.2837452 12.4628186,11.8773109 9.39521982,11.2476644 C8.6764297,11.0999889 7.96586797,10.9575409 7.24734328,10.8161383 C6.31116427,10.632132 5.37339266,10.4235567 4.46269513,10.1397061 C3.69214575,9.89976615 3.80575069,9.92799438 3.82380007,10.5503224 C3.84397291,10.5615614 3.38557167,10.6927705 3.27754081,10.6833611 C2.97547908,10.6564397 2.67421365,10.1812644 2.42842353,10.2126291 C2.04142353,10.2620285 2.32410871,11.8681628 2.2768618,12.1690026 C2.06557785,13.5145485 0.722225995,14.9413812 0.604905007,16.4034993 C0.586855625,16.6280183 0.669405007,16.8852089 0.588979081,17.1583432 C0.476701304,17.5396858 0.0599729085,17.8305934 0.0060901925,18.1988673 C-0.0374406717,18.4960479 0.16641118,19.0640105 0.173577847,19.3839305 C0.184725995,19.8779246 0.301250686,20.3418609 0.42812723,20.8251387 C0.453874143,20.9234148 0.6709976,21.0060085 0.69382476,21.1082052 C0.72912723,21.2658128 0.560843279,21.4312616 0.605701304,21.6170975 C0.690639575,21.9694277 0.862639575,22.0946252 0.887855625,22.3915444 C0.891837106,22.4396369 0.755405007,22.6228591 0.755139575,22.7159077 C0.755139575,22.9859056 0.970935872,23.303996 1.09011488,23.5337424 C1.14638649,23.6424734 1.23371365,23.7593069 1.27830624,23.8732654 C1.38554081,24.1477065 1.33351612,24.3617707 1.39615809,24.5943922 C1.5102939,25.0183385 2.54972599,25.5693118 2.9707013,25.8732881 C2.98981241,25.8871409 2.91416427,26.0013607 2.91655316,26.0029289 C2.94521982,26.0183499 3.30408402,26.1404109 3.30965809,26.1445928 C3.59128155,26.3617934 3.52412723,26.3999538 3.65445439,26.8042971 C3.95917044,27.7504658 5.14697908,27.2512442 5.70412106,27.6270979 C6.58641735,28.2222432 7.57090501,28.9695073 8.59865809,29.4080905 C9.15978155,29.6475077 10.2753927,29.9384154 10.873942,29.7980583 C11.5738865,29.6339163 11.0838988,29.233755 12.0471519,29.3714983 C12.7709853,29.4750018 13.4154544,30.1286946 13.8494359,30.7175669 C14.2210408,31.2214932 14.2998741,32.617484 15.302942,32.5968356 C15.8335408,32.5858579 15.7831087,31.897664 16.3020285,31.7745575 C16.7633495,31.6647811 17.3637569,32.1349903 17.589905,32.4674561 C17.8797569,32.8937548 18.0305223,33.426432 18.3206396,33.8744246 C18.4361025,34.0526807 18.5728001,34.0471918 18.6508371,34.2372097 C18.6991457,34.354566 18.6662322,34.6554058 18.7110902,34.7970697 C18.9088371,35.4222728 19.5915285,35.7411473 20.242368,35.8621628 C20.9316951,35.9904967 20.7628803,35.8381165 20.7395223,35.2359142 C20.7281087,34.9405632 20.9595655,34.1580138 20.7973865,33.9776667 C21.9031766,33.6125293 22.6978803,32.3054052 23.8262322,32.0644197 C23.9470038,32.0385438 26.2180408,32.2748246 26.0561272,32.0717381 C26.5477075,32.253392 26.3595161,32.686225 27.2256211,32.5116281 C27.0796334,32.6292458 27.8491211,32.6545989 27.6057198,32.2795293 C27.6057198,32.2792679 29.317226,32.7790122 28.0086457,32.0029971 C28.0558927,31.9922809 28.244084,31.7000663 28.2032075,31.6454395 C27.9478618,31.3040869 28.1591457,31.4692744 27.7893988,31.6213932 C27.5693556,31.2293344 29.1250532,31.1995379 29.2158309,30.8644583 C29.4796704,30.8741291 29.1247877,31.2126065 29.2869667,31.2925865 C29.4011025,31.3487816 29.944442,31.1172056 30.0328309,31.1015232 C30.3839976,31.0387938 30.6523495,30.9914854 30.9987383,31.1067507 C31.2140038,31.1783667 31.4276766,31.4826044 31.5617198,31.5254695 C32.0108309,31.6700085 32.4103062,31.0798293 32.7667816,31.1051824 C32.9480717,31.1179897 33.8683248,31.7962514 33.9978556,31.9721552 C34.2476272,32.3111554 34.1536643,33.0356801 34.3020408,33.3733734 C34.4350223,33.6765656 34.5690655,34.0466691 34.821226,34.3171897 C34.9605778,34.4664334 35.1973433,34.7688414 35.3746519,34.8911638 C35.2477754,34.803604 35.6132754,35.087716 35.5479791,35.0179295 C35.6514976,34.908153 35.7396211,34.9314152 35.8126149,35.087716 C35.8816272,35.2432326 35.9567445,35.3958742 36.0382322,35.5456407 C36.6158124,35.8883001 36.853905,35.3937832 36.9542383,34.9617344 C37.1307507,34.2011403 36.9197322,33.6261207 36.5279544,32.9632799 C36.2853495,32.552925 36.2203186,32.1822987 36.0013371,31.7936377 C35.6326519,31.1396836 34.9921643,30.6514397 35.0118062,29.8092973 C35.0224235,29.3503271 35.2963495,28.5625503 35.5840778,28.2651083 C35.8296025,28.0115769 36.1316643,27.8897773 36.3525038,27.5703801 C36.5669729,27.2603922 36.6195285,26.8346163 36.9046025,26.5735052 C36.982905,26.5018891 37.0505902,26.6474736 37.1949853,26.5086848 C37.3664544,26.3434973 37.424584,26.1618434 37.5931334,25.9828032 C37.6828495,25.8874022 38.8725161,25.1087734 38.6758309,24.9757348 C38.5601025,24.8975844 38.2930778,25.3165646 38.3498803,24.9054256 C38.3968618,24.5664254 38.8664112,24.6586899 38.9187013,24.1895261 C39.0822075,24.5146736 38.5611643,24.8053199 38.6495532,24.9493361 C38.7936828,25.1832646 39.1950161,24.5784485 39.1995285,24.4610922 C39.2096149,24.1955377 38.937547,23.9406995 38.7918248,23.7276809 C38.5460346,23.3682936 38.5662075,23.1680822 38.1285099,23.0951593 C38.4857816,22.6602354 39.1010532,21.6395756 38.6330964,21.0478281 C39.1496272,21.1837418 39.2799544,19.4450916 39.0994606,19.2067199 C39.1068927,19.9861328 39.0224853,19.4173861 39.1716581,18.756375 C39.0747754,18.3332128 40.887942,17.9205056 41.048263,17.8316389 C41.1485964,17.7762279 41.5223248,17.527924 41.5634667,17.4644105 C41.9640038,16.8454803 41.2483988,16.9719846 41.2489297,16.9753824 C41.2667136,17.0932614 41.4761396,17.0399414 41.4652569,17.1923216 C41.4538433,17.3507134 40.8629914,16.8757995 40.8417569,16.8381618 C40.8128248,16.7866714 40.7878741,16.3211669 40.7955717,16.2296865 C40.819726,15.9421767 40.9097075,15.5255489 41.0541025,15.3504293 C41.2502569,15.1117961 41.6115099,15.2866544 41.687689,14.7626024 C41.7176828,14.7981491 41.7190099,14.9113234 41.7880223,14.9113234 C41.8174853,14.9113234 42.1792692,14.4669901 42.2408495,14.4188975 C42.5978556,14.1381834 43.1910964,13.7659889 42.7151766,13.2821883 C42.6989853,13.2659832 42.9612322,13.5323218 42.7151766,13.2821883" id="Imported-Layers" sketch:type="MSShapeGroup"></path>
            </g>
        </g>
    </g>
</svg>