<?xml version="1.0" encoding="UTF-8" standalone="no"?>
<svg width="40px" height="41px" viewBox="1 1 30 31" version="1.1" xmlns="http://www.w3.org/2000/svg" xmlns:xlink="http://www.w3.org/1999/xlink">
    <!-- Generator: Sketch 39.1 (31720) - http://www.bohemiancoding.com/sketch -->
    <title>{{ include.caption }}</title>
    <desc>Created with Sketch.</desc>
    <defs>
        <circle id="path-1" cx="17" cy="17.1810539" r="17"></circle>
        <mask id="mask-2" maskContentUnits="userSpaceOnUse" maskUnits="objectBoundingBox" x="0" y="0" width="40" height="41" fill="white">
            <use xlink:href="#path-1"></use>
        </mask>
    </defs>
    <g id="Page-1" stroke="none" stroke-width="1" fill="none" fill-rule="evenodd">
        <g id="Artboard" transform="translate(-412.000000, -501.000000)">
            <g id="Group-5-Copy" transform="translate(412.000000, 501.000000)">
                <use id="Oval" stroke="#323C42" mask="url(#mask-2)" stroke-width="3" fill="#323C42" xlink:href="#path-1"></use>
                <path d="M16.8821055,23.3431739 L16.8821055,19.1565587 C17.5814734,19.1565587 18.8630278,17.5154055 18.8630278,14.8359717 C18.8630278,12.1528165 17.5814734,10.5116634 16.8821055,10.5116634 L16.8821055,6.32504814 C20.3398843,6.32504814 23.0480748,10.0632304 23.0480748,14.8359717 C23.0480748,19.6049917 20.3398843,23.3431739 16.8821055,23.3431739" id="Fill-1" fill="#FFFFFF" transform="translate(19.965090, 14.834111) rotate(-90.000000) translate(-19.965090, -14.834111) "></path>
                <path d="M17.4642924,22.7605514 L17.4642924,20.8998335 C19.1680715,20.8998335 20.6077277,18.3878644 20.6077277,15.4162979 C20.6077277,12.4428707 19.1680715,9.92904086 17.4642924,9.92904086 L17.4642924,8.0701837 C20.2692039,8.0701837 22.4677486,11.2966685 22.4677486,15.4162979 C22.4677486,19.5359273 20.2692039,22.7605514 17.4642924,22.7605514" id="Fill-2" fill="#323C42" transform="translate(19.966020, 15.415368) rotate(-90.000000) translate(-19.966020, -15.415368) "></path>
                <path d="M13.6851673,25.6821502 C10.2273884,25.6821502 7.51919803,21.9439679 7.51919803,17.174948 C7.51919803,12.4022066 10.2273884,8.6640244 13.6851673,8.6640244 C17.1429461,8.6640244 19.8511365,12.4022066 19.8511365,17.174948 C19.8511365,21.9439679 17.1429461,25.6821502 13.6851673,25.6821502 L13.6851673,25.6821502 Z M13.6851673,12.8506396 C12.9857994,12.8506396 11.704245,14.4917928 11.704245,17.174948 C11.704245,19.8543818 12.9857994,21.4955349 13.6851673,21.4955349 C14.3845351,21.4955349 15.6660895,19.8543818 15.6660895,17.174948 C15.6660895,14.4917928 14.3845351,12.8506396 13.6851673,12.8506396 L13.6851673,12.8506396 Z" id="Fill-3" fill="#FFFFFF" transform="translate(13.685167, 17.173087) rotate(-90.000000) translate(-13.685167, -17.173087) "></path>
                <path d="M13.6860976,24.5182711 C10.8793261,24.5182711 8.68264145,21.293647 8.68264145,17.1740176 C8.68264145,13.0543882 10.8793261,9.82790344 13.6860976,9.82790344 C16.4928692,9.82790344 18.6895538,13.0543882 18.6895538,17.1740176 C18.6895538,21.293647 16.4928692,24.5182711 13.6860976,24.5182711 L13.6860976,24.5182711 Z M13.6860976,11.6867606 C11.9823185,11.6867606 10.5426623,14.2005905 10.5426623,17.1740176 C10.5426623,20.1455841 11.9823185,22.6575532 13.6860976,22.6575532 C15.3898768,22.6575532 16.8295329,20.1455841 16.8295329,17.1740176 C16.8295329,14.2005905 15.3898768,11.6867606 13.6860976,11.6867606 L13.6860976,11.6867606 Z" id="Fill-4" fill="#323C42" transform="translate(13.686098, 17.173087) rotate(-90.000000) translate(-13.686098, -17.173087) "></path>
                <path d="M23.0490048,29.5100731 C19.5893659,29.5100731 16.8811755,25.7718909 16.8811755,21.002871 C16.8811755,16.2301296 19.5893659,12.4919474 23.0490048,12.4919474 L23.0490048,16.6785626 C22.3496369,16.6785626 21.0662225,18.3197158 21.0662225,21.002871 C21.0662225,23.6823047 22.3496369,25.3234579 23.0490048,25.3234579 L23.0490048,29.5100731" id="Fill-5" fill="#FFFFFF" transform="translate(19.965090, 21.001010) rotate(-90.000000) translate(-19.965090, -21.001010) "></path>
                <path d="M22.0036734,27.2999324 C19.1969019,27.2999324 16.9983572,24.0753083 16.9983572,19.9556789 C16.9983572,15.8360495 19.1969019,12.6095647 22.0036734,12.6095647 C22.5170391,12.6095647 22.9336838,13.0245048 22.9336838,13.5380629 C22.9336838,14.0534818 22.5170391,14.4684218 22.0036734,14.4684218 C20.2998942,14.4684218 18.8583781,16.9822517 18.8583781,19.9556789 C18.8583781,22.9272453 20.2998942,25.4392145 22.0036734,25.4392145 C22.5170391,25.4392145 22.9336838,25.8560153 22.9336838,26.3695734 C22.9336838,26.8831316 22.5170391,27.2999324 22.0036734,27.2999324" id="Fill-6" fill="#323C42" transform="translate(19.966020, 19.954749) rotate(-90.000000) translate(-19.966020, -19.954749) "></path>
            </g>
        </g>
    </g>
</svg>