<?xml version="1.0" encoding="UTF-8" standalone="no"?>
<svg x="{{ include.x }}" y="{{ include.y }}" width="39px" height="39px" viewBox="1 1 30 30" version="1.1" xmlns="http://www.w3.org/2000/svg" xmlns:xlink="http://www.w3.org/1999/xlink">
    <!-- Generator: Sketch 39.1 (31720) - http://www.bohemiancoding.com/sketch -->
    <title>{{ include.caption }}</title>
    <desc>Created with Sketch.</desc>
    <defs>
        <circle id="path-1" cx="17" cy="17" r="17"></circle>
    </defs>
    <g id="Home,-Level-2,-etc" stroke="none" stroke-width="1" fill="none" fill-rule="evenodd">
        <g id="Artboard" transform="translate(-31.000000, -22.000000)">
            <g id="gold" transform="translate(31.000000, 22.000000)">
                <mask id="mask-2" fill="white">
                    <use xlink:href="#path-1"></use>
                </mask>
                <g id="path-1"></g>
                <circle id="path-1" stroke="#1C2326" stroke-width="3" fill="#FFFFFF" mask="url(#mask-2)" cx="17" cy="17" r="17"></circle>
                <path d="M14.9255861,24.1209087 L7.84923768,24.1209087 C7.29120116,24.1209087 6.77212979,23.8731089 6.4214435,23.4415474 C6.07075721,23.0085938 5.93716243,22.4489561 6.05266625,21.9032396 L7.37052306,17.5221948 C7.52638364,16.7801875 8.22636461,16.2135891 9.02236682,16.2135891 L13.7496737,16.2135891 C14.5470675,16.2135891 15.2470485,16.7801875 15.4126503,17.5597824 L16.709633,21.8642599 C16.8362697,22.4475639 16.7012833,23.0072017 16.3519886,23.4401553 C16.0013023,23.8731089 15.482231,24.1209087 14.9255861,24.1209087 L14.9255861,24.1209087 Z M9.02236682,17.1880827 C8.68281343,17.1880827 8.38500841,17.4289218 8.31264457,17.764426 L6.99617936,22.1440788 C6.95164777,22.3612516 7.01427032,22.625757 7.17848057,22.8276164 C7.34408243,23.030868 7.58761458,23.1478072 7.84923768,23.1478072 L14.9255861,23.1478072 C15.1858175,23.1478072 15.4307413,23.030868 15.5949516,22.8276164 C15.7577702,22.6243649 15.8217844,22.3612516 15.7675115,22.1064912 L14.4719205,17.8020136 C14.3898153,17.4289218 14.0906187,17.1880827 13.7496737,17.1880827 L9.02236682,17.1880827 L9.02236682,17.1880827 Z"  stroke="#1C2326" stroke-width="0.3" fill="#1C2326" mask="url(#mask-2)"></path>
                <path d="M20.4976016,15.9504758 L13.4212532,15.9504758 C12.8646083,15.9504758 12.3441453,15.702676 11.993459,15.2711145 C11.6441643,14.8367688 11.5091779,14.277131 11.6246818,13.7328067 L12.9425386,9.35176186 C13.0983992,8.60836244 13.7983801,8.04315615 14.5957739,8.04315615 L19.3216892,8.04315615 C20.119083,8.04315615 20.819064,8.60836244 20.9860575,9.38934947 L22.2830401,13.693827 C22.4096768,14.277131 22.2732988,14.8367688 21.9240041,15.2711145 C21.5733179,15.702676 21.0528549,15.9504758 20.4976016,15.9504758 L20.4976016,15.9504758 Z M14.5957739,9.01625763 C14.2492625,9.01625763 13.9570239,9.25292036 13.8860517,9.592601 L12.5668033,13.9736459 C12.5236633,14.1894266 12.5862858,14.453932 12.7504961,14.6557914 C12.9147063,14.8604351 13.1596301,14.9773743 13.4212532,14.9773743 L20.4976016,14.9773743 C20.7578331,14.9773743 21.0027568,14.8604351 21.1669671,14.6557914 C21.3311773,14.453932 21.3937999,14.1894266 21.339527,13.9346661 L20.043936,9.63158074 C19.9604392,9.25292036 19.6682007,9.01625763 19.3216892,9.01625763 L14.5957739,9.01625763 L14.5957739,9.01625763 Z" id="Fill-2" stroke="#1C2326" stroke-width="0.3" fill="#1C2326" mask="url(#mask-2)"></path>
                <path d="M26.0682255,24.1209087 L18.9932687,24.1209087 C18.4366238,24.1209087 17.9161608,23.8731089 17.5654745,23.4415474 C17.2161798,23.0085938 17.0811935,22.4475639 17.1966973,21.9032396 L18.5145541,17.5221948 C18.6704147,16.7801875 19.3703956,16.2135891 20.1677895,16.2135891 L24.8937047,16.2135891 C25.6910985,16.2135891 26.3910795,16.7801875 26.5566814,17.5597824 L27.8550556,21.8642599 C27.9816923,22.4475639 27.8453143,23.0085938 27.4960197,23.4415474 C27.1453334,23.8731089 26.6248704,24.1209087 26.0682255,24.1209087 L26.0682255,24.1209087 Z M20.1677895,17.1880827 C19.8268445,17.1880827 19.5276478,17.4289218 19.4566756,17.764426 L18.1388188,22.1440788 C18.0956788,22.3612516 18.1583013,22.6243649 18.3225116,22.8276164 C18.4867218,23.030868 18.7316456,23.1478072 18.9932687,23.1478072 L26.0682255,23.1478072 C26.3298486,23.1478072 26.5747723,23.030868 26.7389826,22.8276164 C26.9031928,22.6243649 26.9658154,22.3612516 26.9115425,22.105099 L25.6145599,17.8020136 C25.5338464,17.4289218 25.2346497,17.1880827 24.8937047,17.1880827 L20.1677895,17.1880827 L20.1677895,17.1880827 Z"  stroke="#1C2326" stroke-width="0.3" fill="#1C2326" mask="url(#mask-2)"></path>
            </g>
        </g>
    </g>
</svg>