<?xml version="1.0" encoding="UTF-8" standalone="no"?>
<svg width="268px" height="103px" viewBox="0 0 268 103" version="1.1" xmlns="http://www.w3.org/2000/svg" xmlns:xlink="http://www.w3.org/1999/xlink">
    <!-- Generator: Sketch 39.1 (31720) - http://www.bohemiancoding.com/sketch -->
    <title>The U.S. ranks at or near the top worldwide in production of many natural resources. We are first in natural gas and oil, and second in coal and renewables.</title>
    <desc>Created with Sketch.</desc>
    <defs></defs>
    <g id="Symbols" stroke="none" stroke-width="1" fill="none" fill-rule="evenodd">
        <g id="how-it-works-ribbon-graphic-copy">
            <path d="M5.24,92.402 C5.34400052,92.402 5.42099975,92.4149999 5.471,92.441 C5.52100025,92.4670001 5.57799968,92.5199996 5.642,92.6 L10.622,99.08 C10.6099999,98.9759995 10.602,98.8750005 10.598,98.777 C10.594,98.6789995 10.592,98.5840005 10.592,98.492 L10.592,92.402 L11.612,92.402 L11.612,101 L11.024,101 C10.9319995,101 10.8550003,100.984 10.793,100.952 C10.7309997,100.92 10.6700003,100.866 10.61,100.79 L5.636,94.316 C5.64400004,94.4160005 5.64999998,94.5139995 5.654,94.61 C5.65800002,94.7060005 5.66,94.7939996 5.66,94.874 L5.66,101 L4.64,101 L4.64,92.402 L5.24,92.402 Z M18.008,101 L17.534,101 C17.4299995,101 17.3460003,100.984 17.282,100.952 C17.2179997,100.92 17.1760001,100.852001 17.156,100.748 L17.036,100.184 C16.8759992,100.328001 16.7200008,100.456999 16.568,100.571 C16.4159992,100.685001 16.2560008,100.781 16.088,100.859 C15.9199992,100.937 15.741001,100.996 15.551,101.036 C15.3609991,101.076 15.1500012,101.096 14.918,101.096 C14.6819988,101.096 14.461001,101.063 14.255,100.997 C14.048999,100.931 13.8700008,100.832001 13.718,100.7 C13.5659992,100.567999 13.4450005,100.401001 13.355,100.199 C13.2649996,99.996999 13.22,99.7580014 13.22,99.482 C13.22,99.2419988 13.2859993,99.0110011 13.418,98.789 C13.5500007,98.5669989 13.7629985,98.3700009 14.057,98.198 C14.3510015,98.0259991 14.7359976,97.8850006 15.212,97.775 C15.6880024,97.6649994 16.2699966,97.6020001 16.958,97.586 L16.958,97.112 C16.958,96.6399976 16.857001,96.2830012 16.655,96.041 C16.452999,95.7989988 16.154002,95.678 15.758,95.678 C15.4979987,95.678 15.2790009,95.7109997 15.101,95.777 C14.9229991,95.8430003 14.7690007,95.9169996 14.639,95.999 C14.5089994,96.0810004 14.3970005,96.1549997 14.303,96.221 C14.2089995,96.2870003 14.1160005,96.32 14.024,96.32 C13.9519996,96.32 13.8890003,96.3010002 13.835,96.263 C13.7809997,96.2249998 13.7380002,96.1780003 13.706,96.122 L13.514,95.78 C13.8500017,95.4559984 14.2119981,95.2140008 14.6,95.054 C14.9880019,94.8939992 15.4179976,94.814 15.89,94.814 C16.2300017,94.814 16.5319987,94.8699994 16.796,94.982 C17.0600013,95.0940006 17.2819991,95.249999 17.462,95.45 C17.6420009,95.650001 17.7779995,95.8919986 17.87,96.176 C17.9620005,96.4600014 18.008,96.7719983 18.008,97.112 L18.008,101 Z M15.236,100.346 C15.4240009,100.346 15.5959992,100.327 15.752,100.289 C15.9080008,100.251 16.0549993,100.197 16.193,100.127 C16.3310007,100.057 16.4629994,99.9720005 16.589,99.872 C16.7150006,99.7719995 16.8379994,99.6580006 16.958,99.53 L16.958,98.264 C16.4659975,98.2800001 16.0480017,98.3189997 15.704,98.381 C15.3599983,98.4430003 15.0800011,98.5239995 14.864,98.624 C14.6479989,98.7240005 14.4910005,98.8419993 14.393,98.978 C14.2949995,99.1140007 14.246,99.2659992 14.246,99.434 C14.246,99.5940008 14.2719997,99.7319994 14.324,99.848 C14.3760003,99.9640006 14.4459996,100.059 14.534,100.133 C14.6220004,100.207 14.7259994,100.261 14.846,100.295 C14.9660006,100.329 15.0959993,100.346 15.236,100.346 L15.236,100.346 Z M21.47,101.096 C20.9899976,101.096 20.6210013,100.962001 20.363,100.694 C20.1049987,100.425999 19.976,100.040003 19.976,99.536 L19.976,95.816 L19.244,95.816 C19.1799997,95.816 19.1260002,95.7970002 19.082,95.759 C19.0379998,95.7209998 19.016,95.6620004 19.016,95.582 L19.016,95.156 L20.012,95.03 L20.258,93.152 C20.266,93.0919997 20.2919998,93.0430002 20.336,93.005 C20.3800002,92.9669998 20.4359997,92.948 20.504,92.948 L21.044,92.948 L21.044,95.042 L22.784,95.042 L22.784,95.816 L21.044,95.816 L21.044,99.464 C21.044,99.7200013 21.1059994,99.9099994 21.23,100.034 C21.3540006,100.158001 21.513999,100.22 21.71,100.22 C21.8220006,100.22 21.9189996,100.205 22.001,100.175 C22.0830004,100.145 22.1539997,100.112 22.214,100.076 C22.2740003,100.04 22.3249998,100.007 22.367,99.977 C22.4090002,99.9469998 22.4459998,99.932 22.478,99.932 C22.5340003,99.932 22.5839998,99.9659997 22.628,100.034 L22.94,100.544 C22.7559991,100.716001 22.5340013,100.851 22.274,100.949 C22.0139987,101.047 21.7460014,101.096 21.47,101.096 L21.47,101.096 Z M25.028,94.922 L25.028,98.798 C25.028,99.2580023 25.1339989,99.6139987 25.346,99.866 C25.5580011,100.118001 25.8779979,100.244 26.306,100.244 C26.6180016,100.244 26.9119986,100.170001 27.188,100.022 C27.4640014,99.8739993 27.7179988,99.6680013 27.95,99.404 L27.95,94.922 L29.018,94.922 L29.018,101 L28.382,101 C28.2299992,101 28.1340002,100.926001 28.094,100.778 L28.01,100.124 C27.7459987,100.416001 27.4500016,100.650999 27.122,100.829 C26.7939984,101.007001 26.4180021,101.096 25.994,101.096 C25.6619983,101.096 25.3690013,101.041001 25.115,100.931 C24.8609987,100.820999 24.6480009,100.666001 24.476,100.466 C24.3039991,100.265999 24.1750004,100.024001 24.089,99.74 C24.0029996,99.4559986 23.96,99.1420017 23.96,98.798 L23.96,94.922 L25.028,94.922 Z M30.776,101 L30.776,94.922 L31.388,94.922 C31.5040006,94.922 31.5839998,94.9439998 31.628,94.988 C31.6720002,95.0320002 31.7019999,95.1079995 31.718,95.216 L31.79,96.164 C31.998001,95.7399979 32.2549985,95.4090012 32.561,95.171 C32.8670015,94.9329988 33.2259979,94.814 33.638,94.814 C33.8060008,94.814 33.9579993,94.8329998 34.094,94.871 C34.2300007,94.9090002 34.3559994,94.9619997 34.472,95.03 L34.334,95.828 C34.3059999,95.9280005 34.2440005,95.978 34.148,95.978 C34.0919997,95.978 34.0060006,95.9590002 33.89,95.921 C33.7739994,95.8829998 33.612001,95.864 33.404,95.864 C33.0319981,95.864 32.7210013,95.9719989 32.471,96.188 C32.2209988,96.4040011 32.0120008,96.7179979 31.844,97.13 L31.844,101 L30.776,101 Z M39.848,101 L39.374,101 C39.2699995,101 39.1860003,100.984 39.122,100.952 C39.0579997,100.92 39.0160001,100.852001 38.996,100.748 L38.876,100.184 C38.7159992,100.328001 38.5600008,100.456999 38.408,100.571 C38.2559992,100.685001 38.0960008,100.781 37.928,100.859 C37.7599992,100.937 37.581001,100.996 37.391,101.036 C37.2009991,101.076 36.9900012,101.096 36.758,101.096 C36.5219988,101.096 36.301001,101.063 36.095,100.997 C35.888999,100.931 35.7100008,100.832001 35.558,100.7 C35.4059992,100.567999 35.2850005,100.401001 35.195,100.199 C35.1049996,99.996999 35.06,99.7580014 35.06,99.482 C35.06,99.2419988 35.1259993,99.0110011 35.258,98.789 C35.3900007,98.5669989 35.6029985,98.3700009 35.897,98.198 C36.1910015,98.0259991 36.5759976,97.8850006 37.052,97.775 C37.5280024,97.6649994 38.1099966,97.6020001 38.798,97.586 L38.798,97.112 C38.798,96.6399976 38.697001,96.2830012 38.495,96.041 C38.292999,95.7989988 37.994002,95.678 37.598,95.678 C37.3379987,95.678 37.1190009,95.7109997 36.941,95.777 C36.7629991,95.8430003 36.6090006,95.9169996 36.479,95.999 C36.3489993,96.0810004 36.2370005,96.1549997 36.143,96.221 C36.0489995,96.2870003 35.9560005,96.32 35.864,96.32 C35.7919996,96.32 35.7290003,96.3010002 35.675,96.263 C35.6209997,96.2249998 35.5780002,96.1780003 35.546,96.122 L35.354,95.78 C35.6900017,95.4559984 36.0519981,95.2140008 36.44,95.054 C36.8280019,94.8939992 37.2579976,94.814 37.73,94.814 C38.0700017,94.814 38.3719987,94.8699994 38.636,94.982 C38.9000013,95.0940006 39.1219991,95.249999 39.302,95.45 C39.4820009,95.650001 39.6179995,95.8919986 39.71,96.176 C39.8020005,96.4600014 39.848,96.7719983 39.848,97.112 L39.848,101 Z M37.076,100.346 C37.2640009,100.346 37.4359992,100.327 37.592,100.289 C37.7480008,100.251 37.8949993,100.197 38.033,100.127 C38.1710007,100.057 38.3029994,99.9720005 38.429,99.872 C38.5550006,99.7719995 38.6779994,99.6580006 38.798,99.53 L38.798,98.264 C38.3059975,98.2800001 37.8880017,98.3189997 37.544,98.381 C37.1999983,98.4430003 36.9200011,98.5239995 36.704,98.624 C36.4879989,98.7240005 36.3310005,98.8419993 36.233,98.978 C36.1349995,99.1140007 36.086,99.2659992 36.086,99.434 C36.086,99.5940008 36.1119997,99.7319994 36.164,99.848 C36.2160003,99.9640006 36.2859996,100.059 36.374,100.133 C36.4620004,100.207 36.5659994,100.261 36.686,100.295 C36.8060006,100.329 36.9359993,100.346 37.076,100.346 L37.076,100.346 Z M42.656,92.162 L42.656,101 L41.588,101 L41.588,92.162 L42.656,92.162 Z M48.902,94.82 C49.1660013,94.82 49.4129989,94.8489997 49.643,94.907 C49.8730012,94.9650003 50.0819991,95.0499994 50.27,95.162 L51.92,95.162 L51.92,95.558 C51.92,95.6900007 51.8360008,95.7739998 51.668,95.81 L50.978,95.906 C51.1140007,96.1660013 51.182,96.4559984 51.182,96.776 C51.182,97.0720015 51.1250006,97.3409988 51.011,97.583 C50.8969994,97.8250012 50.739001,98.0319991 50.537,98.204 C50.334999,98.3760009 50.0950014,98.5079995 49.817,98.6 C49.5389986,98.6920005 49.2340017,98.738 48.902,98.738 C48.6179986,98.738 48.3500013,98.7040003 48.098,98.636 C47.9699994,98.7160004 47.8730003,98.8019995 47.807,98.894 C47.7409997,98.9860005 47.708,99.0759996 47.708,99.164 C47.708,99.3080007 47.7659994,99.4169996 47.882,99.491 C47.9980006,99.5650004 48.151999,99.6179998 48.344,99.65 C48.536001,99.6820002 48.7539988,99.702 48.998,99.71 C49.2420012,99.718 49.4909987,99.7309999 49.745,99.749 C49.9990013,99.7670001 50.2479988,99.7979998 50.492,99.842 C50.7360012,99.8860002 50.953999,99.9579995 51.146,100.058 C51.338001,100.158 51.4919994,100.295999 51.608,100.472 C51.7240006,100.648001 51.782,100.875999 51.782,101.156 C51.782,101.416001 51.7170007,101.667999 51.587,101.912 C51.4569994,102.156001 51.2700012,102.372999 51.026,102.563 C50.7819988,102.753001 50.4840018,102.904999 50.132,103.019 C49.7799982,103.133001 49.3820022,103.19 48.938,103.19 C48.4939978,103.19 48.1050017,103.146 47.771,103.058 C47.4369983,102.97 47.1600011,102.852001 46.94,102.704 C46.7199989,102.555999 46.5550006,102.385001 46.445,102.191 C46.3349995,101.996999 46.28,101.794001 46.28,101.582 C46.28,101.281999 46.3749991,101.027001 46.565,100.817 C46.755001,100.606999 47.0159983,100.440001 47.348,100.316 C47.1759991,100.236 47.0390005,100.129001 46.937,99.995 C46.8349995,99.8609993 46.784,99.6820011 46.784,99.458 C46.784,99.3699996 46.7999998,99.2790005 46.832,99.185 C46.8640002,99.0909995 46.9129997,98.9980005 46.979,98.906 C47.0450003,98.8139995 47.1259995,98.7260004 47.222,98.642 C47.3180005,98.5579996 47.4299994,98.4840003 47.558,98.42 C47.2579985,98.2519992 47.0230009,98.0290014 46.853,97.751 C46.6829992,97.4729986 46.598,97.1480019 46.598,96.776 C46.598,96.4799985 46.6549994,96.2110012 46.769,95.969 C46.8830006,95.7269988 47.041999,95.5210009 47.246,95.351 C47.450001,95.1809992 47.6929986,95.0500005 47.975,94.958 C48.2570014,94.8659995 48.5659983,94.82 48.902,94.82 L48.902,94.82 Z M50.798,101.33 C50.798,101.177999 50.7560004,101.056 50.672,100.964 C50.5879996,100.872 50.4740007,100.801 50.33,100.751 C50.1859993,100.701 50.0200009,100.664 49.832,100.64 C49.6439991,100.616 49.446001,100.599 49.238,100.589 C49.029999,100.579 48.8180011,100.568 48.602,100.556 C48.3859989,100.544 48.180001,100.522 47.984,100.49 C47.7559989,100.598001 47.5710007,100.729999 47.429,100.886 C47.2869993,101.042001 47.216,101.227999 47.216,101.444 C47.216,101.580001 47.2509997,101.706999 47.321,101.825 C47.3910004,101.943001 47.4979993,102.045 47.642,102.131 C47.7860007,102.217 47.9669989,102.285 48.185,102.335 C48.4030011,102.385 48.6599985,102.41 48.956,102.41 C49.2440014,102.41 49.5019989,102.384 49.73,102.332 C49.9580011,102.28 50.1509992,102.206 50.309,102.11 C50.4670008,102.014 50.5879996,101.900001 50.672,101.768 C50.7560004,101.635999 50.798,101.490001 50.798,101.33 L50.798,101.33 Z M48.902,98.03 C49.1180011,98.03 49.3089992,98.0000003 49.475,97.94 C49.6410008,97.8799997 49.7799994,97.7960005 49.892,97.688 C50.0040006,97.5799995 50.0879997,97.4510007 50.144,97.301 C50.2000003,97.1509992 50.228,96.9860009 50.228,96.806 C50.228,96.4339981 50.1150011,96.1380011 49.889,95.918 C49.6629989,95.6979989 49.3340022,95.588 48.902,95.588 C48.4739979,95.588 48.1470011,95.6979989 47.921,95.918 C47.6949989,96.1380011 47.582,96.4339981 47.582,96.806 C47.582,96.9860009 47.6109997,97.1509992 47.669,97.301 C47.7270003,97.4510007 47.8119994,97.5799995 47.924,97.688 C48.0360006,97.7960005 48.1739992,97.8799997 48.338,97.94 C48.5020008,98.0000003 48.6899989,98.03 48.902,98.03 L48.902,98.03 Z M57.452,101 L56.978,101 C56.8739995,101 56.7900003,100.984 56.726,100.952 C56.6619997,100.92 56.6200001,100.852001 56.6,100.748 L56.48,100.184 C56.3199992,100.328001 56.1640008,100.456999 56.012,100.571 C55.8599992,100.685001 55.7000008,100.781 55.532,100.859 C55.3639992,100.937 55.185001,100.996 54.995,101.036 C54.8049991,101.076 54.5940012,101.096 54.362,101.096 C54.1259988,101.096 53.905001,101.063 53.699,100.997 C53.492999,100.931 53.3140008,100.832001 53.162,100.7 C53.0099992,100.567999 52.8890005,100.401001 52.799,100.199 C52.7089996,99.996999 52.664,99.7580014 52.664,99.482 C52.664,99.2419988 52.7299993,99.0110011 52.862,98.789 C52.9940007,98.5669989 53.2069985,98.3700009 53.501,98.198 C53.7950015,98.0259991 54.1799976,97.8850006 54.656,97.775 C55.1320024,97.6649994 55.7139966,97.6020001 56.402,97.586 L56.402,97.112 C56.402,96.6399976 56.301001,96.2830012 56.099,96.041 C55.896999,95.7989988 55.598002,95.678 55.202,95.678 C54.9419987,95.678 54.7230009,95.7109997 54.545,95.777 C54.3669991,95.8430003 54.2130007,95.9169996 54.083,95.999 C53.9529994,96.0810004 53.8410005,96.1549997 53.747,96.221 C53.6529995,96.2870003 53.5600005,96.32 53.468,96.32 C53.3959996,96.32 53.3330003,96.3010002 53.279,96.263 C53.2249997,96.2249998 53.1820002,96.1780003 53.15,96.122 L52.958,95.78 C53.2940017,95.4559984 53.6559981,95.2140008 54.044,95.054 C54.4320019,94.8939992 54.8619976,94.814 55.334,94.814 C55.6740017,94.814 55.9759987,94.8699994 56.24,94.982 C56.5040013,95.0940006 56.7259991,95.249999 56.906,95.45 C57.0860009,95.650001 57.2219995,95.8919986 57.314,96.176 C57.4060005,96.4600014 57.452,96.7719983 57.452,97.112 L57.452,101 Z M54.68,100.346 C54.8680009,100.346 55.0399992,100.327 55.196,100.289 C55.3520008,100.251 55.4989993,100.197 55.637,100.127 C55.7750007,100.057 55.9069994,99.9720005 56.033,99.872 C56.1590006,99.7719995 56.2819994,99.6580006 56.402,99.53 L56.402,98.264 C55.9099975,98.2800001 55.4920017,98.3189997 55.148,98.381 C54.8039983,98.4430003 54.5240011,98.5239995 54.308,98.624 C54.0919989,98.7240005 53.9350005,98.8419993 53.837,98.978 C53.7389995,99.1140007 53.69,99.2659992 53.69,99.434 C53.69,99.5940008 53.7159997,99.7319994 53.768,99.848 C53.8200003,99.9640006 53.8899996,100.059 53.978,100.133 C54.0660004,100.207 54.1699994,100.261 54.29,100.295 C54.4100006,100.329 54.5399993,100.346 54.68,100.346 L54.68,100.346 Z M62.552,95.924 C62.5039998,96.0120004 62.4300005,96.056 62.33,96.056 C62.2699997,96.056 62.2020004,96.0340002 62.126,95.99 C62.0499996,95.9459998 61.9570006,95.8970003 61.847,95.843 C61.7369995,95.7889997 61.6060008,95.7390002 61.454,95.693 C61.3019992,95.6469998 61.122001,95.624 60.914,95.624 C60.7339991,95.624 60.5720007,95.6469998 60.428,95.693 C60.2839993,95.7390002 60.1610005,95.8019996 60.059,95.882 C59.9569995,95.9620004 59.8790003,96.0549995 59.825,96.161 C59.7709997,96.2670005 59.744,96.3819994 59.744,96.506 C59.744,96.6620008 59.7889996,96.7919995 59.879,96.896 C59.9690005,97.0000005 60.0879993,97.0899996 60.236,97.166 C60.3840007,97.2420004 60.5519991,97.3089997 60.74,97.367 C60.9280009,97.4250003 61.120999,97.4869997 61.319,97.553 C61.517001,97.6190003 61.7099991,97.6919996 61.898,97.772 C62.0860009,97.8520004 62.2539993,97.9519994 62.402,98.072 C62.5500007,98.1920006 62.6689996,98.3389991 62.759,98.513 C62.8490005,98.6870009 62.894,98.8959988 62.894,99.14 C62.894,99.4200014 62.8440005,99.6789988 62.744,99.917 C62.6439995,100.155001 62.496001,100.360999 62.3,100.535 C62.103999,100.709001 61.8640014,100.846 61.58,100.946 C61.2959986,101.046001 60.9680019,101.096 60.596,101.096 C60.1719979,101.096 59.7880017,101.027001 59.444,100.889 C59.0999983,100.750999 58.8080012,100.574001 58.568,100.358 L58.82,99.95 C58.8520002,99.8979997 58.8899998,99.8580001 58.934,99.83 C58.9780002,99.8019999 59.0359996,99.788 59.108,99.788 C59.1800004,99.788 59.2559996,99.8159997 59.336,99.872 C59.4160004,99.9280003 59.5129994,99.9899997 59.627,100.058 C59.7410006,100.126 59.8789992,100.188 60.041,100.244 C60.2030008,100.3 60.4059988,100.328 60.65,100.328 C60.858001,100.328 61.0399992,100.301 61.196,100.247 C61.3520008,100.193 61.4819995,100.12 61.586,100.028 C61.6900005,99.9359995 61.7669998,99.8300006 61.817,99.71 C61.8670003,99.5899994 61.892,99.4620007 61.892,99.326 C61.892,99.1579992 61.8470005,99.0190006 61.757,98.909 C61.6669996,98.7989994 61.5480007,98.7050004 61.4,98.627 C61.2519993,98.5489996 61.083001,98.4810003 60.893,98.423 C60.7029991,98.3649997 60.509001,98.3040003 60.311,98.24 C60.112999,98.1759997 59.919001,98.1030004 59.729,98.021 C59.5389991,97.9389996 59.3700007,97.8360006 59.222,97.712 C59.0739993,97.5879994 58.9550005,97.4350009 58.865,97.253 C58.7749996,97.0709991 58.73,96.8500013 58.73,96.59 C58.73,96.3579988 58.7779995,96.1350011 58.874,95.921 C58.9700005,95.7069989 59.1099991,95.5190008 59.294,95.357 C59.4780009,95.1949992 59.7039987,95.0660005 59.972,94.97 C60.2400013,94.8739995 60.5459983,94.826 60.89,94.826 C61.290002,94.826 61.6489984,94.8889994 61.967,95.015 C62.2850016,95.1410006 62.5599988,95.3139989 62.792,95.534 L62.552,95.924 Z" id="Natural-gas" fill="#5C737F"></path>
            <path d="M93.67,96.704 C93.67,97.3480032 93.568001,97.9389973 93.364,98.477 C93.159999,99.0150027 92.8720019,99.4779981 92.5,99.866 C92.1279981,100.254002 91.6810026,100.554999 91.159,100.769 C90.6369974,100.983001 90.0600032,101.09 89.428,101.09 C88.7959968,101.09 88.2200026,100.983001 87.7,100.769 C87.1799974,100.554999 86.7340019,100.254002 86.362,99.866 C85.9899981,99.4779981 85.702001,99.0150027 85.498,98.477 C85.293999,97.9389973 85.192,97.3480032 85.192,96.704 C85.192,96.0599968 85.293999,95.4690027 85.498,94.931 C85.702001,94.3929973 85.9899981,93.9290019 86.362,93.539 C86.7340019,93.1489981 87.1799974,92.8460011 87.7,92.63 C88.2200026,92.4139989 88.7959968,92.306 89.428,92.306 C90.0600032,92.306 90.6369974,92.4139989 91.159,92.63 C91.6810026,92.8460011 92.1279981,93.1489981 92.5,93.539 C92.8720019,93.9290019 93.159999,94.3929973 93.364,94.931 C93.568001,95.4690027 93.67,96.0599968 93.67,96.704 L93.67,96.704 Z M92.476,96.704 C92.476,96.1759974 92.4040007,95.7020021 92.26,95.282 C92.1159993,94.8619979 91.9120013,94.5070015 91.648,94.217 C91.3839987,93.9269986 91.0640019,93.7040008 90.688,93.548 C90.3119981,93.3919992 89.8920023,93.314 89.428,93.314 C88.9679977,93.314 88.5500019,93.3919992 88.174,93.548 C87.7979981,93.7040008 87.4770013,93.9269986 87.211,94.217 C86.9449987,94.5070015 86.7400007,94.8619979 86.596,95.282 C86.4519993,95.7020021 86.38,96.1759974 86.38,96.704 C86.38,97.2320026 86.4519993,97.7049979 86.596,98.123 C86.7400007,98.5410021 86.9449987,98.8949985 87.211,99.185 C87.4770013,99.4750015 87.7979981,99.6969992 88.174,99.851 C88.5500019,100.005001 88.9679977,100.082 89.428,100.082 C89.8920023,100.082 90.3119981,100.005001 90.688,99.851 C91.0640019,99.6969992 91.3839987,99.4750015 91.648,99.185 C91.9120013,98.8949985 92.1159993,98.5410021 92.26,98.123 C92.4040007,97.7049979 92.476,97.2320026 92.476,96.704 L92.476,96.704 Z M96.28,94.922 L96.28,101 L95.212,101 L95.212,94.922 L96.28,94.922 Z M96.52,93.014 C96.52,93.1180005 96.4990002,93.2149996 96.457,93.305 C96.4149998,93.3950004 96.3590004,93.4749997 96.289,93.545 C96.2189997,93.6150004 96.1380005,93.6699998 96.046,93.71 C95.9539995,93.7500002 95.8560005,93.77 95.752,93.77 C95.6479995,93.77 95.5510005,93.7500002 95.461,93.71 C95.3709995,93.6699998 95.2910004,93.6150004 95.221,93.545 C95.1509997,93.4749997 95.0960002,93.3950004 95.056,93.305 C95.0159998,93.2149996 94.996,93.1180005 94.996,93.014 C94.996,92.9099995 95.0159998,92.8110005 95.056,92.717 C95.0960002,92.6229995 95.1509997,92.5410004 95.221,92.471 C95.2910004,92.4009997 95.3709995,92.3460002 95.461,92.306 C95.5510005,92.2659998 95.6479995,92.246 95.752,92.246 C95.8560005,92.246 95.9539995,92.2659998 96.046,92.306 C96.1380005,92.3460002 96.2189997,92.4009997 96.289,92.471 C96.3590004,92.5410004 96.4149998,92.6229995 96.457,92.717 C96.4990002,92.8110005 96.52,92.9099995 96.52,93.014 L96.52,93.014 Z M99.352,92.162 L99.352,101 L98.284,101 L98.284,92.162 L99.352,92.162 Z" id="Oil" fill="#5C737F"></path>
            <polygon id="Line-Copy-4" fill="#D3DFE6" points="2.48964572 37.9940479 1.98964572 37.9940479 1.98964572 38.9940479 2.48964572 38.9940479 123.003609 38.9940479 123.503609 38.9940479 123.503609 37.9940479 123.003609 37.9940479"></polygon>
            <polygon id="Line-Copy-5" fill="#D3DFE6" points="145.489646 37.9940479 144.989646 37.9940479 144.989646 38.9940479 145.489646 38.9940479 266.003609 38.9940479 266.503609 38.9940479 266.503609 37.9940479 266.003609 37.9940479"></polygon>
            <path d="M48.959,19.965 L52.182,19.965 L52.182,10.692 C52.182,10.3326649 52.1929999,9.95500198 52.215,9.559 L49.927,11.473 C49.8316662,11.5536671 49.7345005,11.6086665 49.6355,11.638 C49.5364995,11.6673335 49.4393338,11.682 49.344,11.682 C49.1973326,11.682 49.0635006,11.6508336 48.9425,11.5885 C48.8214994,11.5261664 48.731667,11.4546671 48.673,11.374 L47.815,10.197 L52.666,6.072 L54.899,6.072 L54.899,19.965 L57.759,19.965 L57.759,22 L48.959,22 L48.959,19.965 Z M66.57,12.408 C66.5186664,12.5106672 66.4380005,12.562 66.328,12.562 C66.2473329,12.562 66.142834,12.5161671 66.0145,12.4245 C65.886166,12.3328329 65.717501,12.2301672 65.5085,12.1165 C65.299499,12.0028328 65.0428349,11.9001671 64.7385,11.8085 C64.4341651,11.7168329 64.0620022,11.671 63.622,11.671 C63.225998,11.671 62.864835,11.7278328 62.5385,11.8415 C62.212165,11.9551672 61.9335012,12.1073324 61.7025,12.298 C61.4714988,12.4886676 61.291834,12.7104987 61.1635,12.9635 C61.035166,13.2165013 60.971,13.4823319 60.971,13.761 C60.971,14.1056684 61.0589991,14.3916655 61.235,14.619 C61.4110009,14.8463345 61.6419986,15.0406659 61.928,15.202 C62.2140014,15.3633341 62.5384982,15.5026661 62.9015,15.62 C63.2645018,15.7373339 63.6366648,15.8546661 64.018,15.972 C64.3993352,16.0893339 64.7714982,16.2194993 65.1345,16.3625 C65.4975018,16.5055007 65.8219986,16.6833323 66.108,16.896 C66.3940014,17.1086677 66.6249991,17.3689985 66.801,17.677 C66.9770009,17.9850015 67.065,18.3589978 67.065,18.799 C67.065,19.275669 66.9788342,19.7193313 66.8065,20.13 C66.6341658,20.5406687 66.384835,20.8963318 66.0585,21.197 C65.732165,21.4976682 65.330669,21.7359991 64.854,21.912 C64.377331,22.0880009 63.8346697,22.176 63.226,22.176 C62.4559961,22.176 61.7923361,22.0531679 61.235,21.8075 C60.6776639,21.5618321 60.1790022,21.241002 59.739,20.845 L59.992,20.471 C60.0286669,20.412333 60.0689998,20.3683335 60.113,20.339 C60.1570002,20.3096665 60.2193329,20.295 60.3,20.295 C60.3953338,20.295 60.512666,20.3536661 60.652,20.471 C60.791334,20.5883339 60.9728322,20.7148327 61.1965,20.8505 C61.4201678,20.9861673 61.6988317,21.1126661 62.0325,21.23 C62.3661683,21.3473339 62.7786642,21.406 63.27,21.406 C63.7320023,21.406 64.1389982,21.341834 64.491,21.2135 C64.8430018,21.085166 65.1363322,20.9110011 65.371,20.691 C65.6056678,20.4709989 65.7834994,20.2125015 65.9045,19.9155 C66.0255006,19.6184985 66.086,19.3050017 66.086,18.975 C66.086,18.6083315 65.9980009,18.3040012 65.822,18.062 C65.6459991,17.8199988 65.4150014,17.6146675 65.129,17.446 C64.8429986,17.2773325 64.5185018,17.1343339 64.1555,17.017 C63.7924982,16.8996661 63.4185019,16.7823339 63.0335,16.665 C62.6484981,16.5476661 62.2745018,16.419334 61.9115,16.28 C61.5484982,16.140666 61.2240014,15.9646677 60.938,15.752 C60.6519986,15.5393323 60.4210009,15.2808349 60.245,14.9765 C60.0689991,14.6721651 59.981,14.2926689 59.981,13.838 C59.981,13.4493314 60.0653325,13.0753351 60.234,12.716 C60.4026675,12.3566649 60.6428318,12.0413347 60.9545,11.77 C61.2661682,11.4986653 61.6456644,11.2823341 62.093,11.121 C62.5403356,10.9596659 63.0426639,10.879 63.6,10.879 C64.2673367,10.879 64.8594974,10.9743324 65.3765,11.165 C65.8935026,11.3556676 66.3683312,11.648998 66.801,12.045 L66.57,12.408 Z M72.994,22.176 C72.2533296,22.176 71.6758354,21.9706687 71.2615,21.56 C70.8471646,21.1493313 70.64,20.5150043 70.64,19.657 L70.64,12.177 L69.067,12.177 C68.9863329,12.177 68.9203336,12.1550002 68.869,12.111 C68.8176664,12.0669998 68.792,12.0046671 68.792,11.924 L68.792,11.517 L70.662,11.385 L70.926,7.469 C70.9333334,7.40299967 70.9608331,7.34433359 71.0085,7.293 C71.0561669,7.24166641 71.1203329,7.216 71.201,7.216 L71.696,7.216 L71.696,11.396 L75.139,11.396 L75.139,12.177 L71.696,12.177 L71.696,19.602 C71.696,19.9026682 71.7344996,20.1611656 71.8115,20.3775 C71.8885004,20.5938344 71.9948327,20.771666 72.1305,20.911 C72.2661673,21.050334 72.4256658,21.1529997 72.609,21.219 C72.7923343,21.2850003 72.9903323,21.318 73.203,21.318 C73.4670013,21.318 73.6943324,21.2795004 73.885,21.2025 C74.0756676,21.1254996 74.240666,21.0411671 74.38,20.9495 C74.519334,20.8578329 74.6329996,20.7735004 74.721,20.6965 C74.8090004,20.6194996 74.8786664,20.581 74.93,20.581 C74.988667,20.581 75.047333,20.6176663 75.106,20.691 L75.392,21.153 C75.1133319,21.4610015 74.7595021,21.7084991 74.3305,21.8955 C73.9014979,22.0825009 73.4560023,22.176 72.994,22.176 L72.994,22.176 Z" id="1st" fill="#5C737F"></path>
            <path d="M192.622,5.918 C193.355337,5.918 194.02633,6.02616559 194.635,6.2425 C195.24367,6.45883441 195.764331,6.76499802 196.197,7.161 C196.629669,7.55700198 196.966999,8.03366388 197.209,8.591 C197.451001,9.14833612 197.572,9.76799659 197.572,10.45 C197.572,11.0366696 197.485834,11.5793308 197.3135,12.078 C197.141166,12.5766692 196.910168,13.0533311 196.6205,13.508 C196.330832,13.9626689 195.991669,14.4026645 195.603,14.828 C195.214331,15.2533355 194.807335,15.6859978 194.382,16.126 L190.796,19.789 C191.148002,19.6863328 191.492665,19.6075003 191.83,19.5525 C192.167335,19.4974997 192.489998,19.47 192.798,19.47 L196.879,19.47 C197.172335,19.47 197.405166,19.5524992 197.5775,19.7175 C197.749834,19.8825008 197.836,20.1006653 197.836,20.372 L197.836,22 L186.924,22 L186.924,21.098 C186.924,20.9146658 186.9625,20.724001 187.0395,20.526 C187.1165,20.327999 187.239332,20.1446675 187.408,19.976 L192.237,15.136 C192.640335,14.7253313 193.001498,14.3330019 193.3205,13.959 C193.639502,13.5849981 193.907166,13.2146685 194.1235,12.848 C194.339834,12.4813315 194.504833,12.1091686 194.6185,11.7315 C194.732167,11.3538314 194.789,10.9560021 194.789,10.538 C194.789,10.1566648 194.734001,9.82116811 194.624,9.5315 C194.513999,9.24183189 194.356334,8.99800099 194.151,8.8 C193.945666,8.60199901 193.701835,8.4535005 193.4195,8.3545 C193.137165,8.25549951 192.820002,8.206 192.468,8.206 C191.81533,8.206 191.278169,8.37099835 190.8565,8.701 C190.434831,9.03100165 190.139668,9.47466388 189.971,10.032 C189.890333,10.3106681 189.769334,10.5104994 189.608,10.6315 C189.446666,10.7525006 189.241335,10.813 188.992,10.813 C188.881999,10.813 188.761001,10.8020001 188.629,10.78 L187.199,10.527 C187.309001,9.76432952 187.521665,9.09516955 187.837,8.5195 C188.152335,7.94383046 188.546498,7.46350193 189.0195,7.0785 C189.492502,6.69349808 190.035164,6.40383431 190.6475,6.2095 C191.259836,6.0151657 191.917996,5.918 192.622,5.918 L192.622,5.918 Z M200.542,22 L200.542,11.055 L201.114,11.055 C201.304668,11.055 201.414667,11.1466658 201.444,11.33 L201.543,12.98 C202.041669,12.3493302 202.62283,11.8415019 203.2865,11.4565 C203.95017,11.0714981 204.688996,10.879 205.503,10.879 C206.104336,10.879 206.634164,10.9743324 207.0925,11.165 C207.550836,11.3556676 207.930332,11.6306649 208.231,11.99 C208.531668,12.3493351 208.758999,12.7819975 208.913,13.288 C209.067001,13.7940025 209.144,14.3659968 209.144,15.004 L209.144,22 L208.099,22 L208.099,15.004 C208.099,13.9773282 207.864336,13.1725029 207.395,12.5895 C206.925664,12.0064971 206.207005,11.715 205.239,11.715 C204.52033,11.715 203.853003,11.9001648 203.237,12.2705 C202.620997,12.6408352 202.071002,13.1486634 201.587,13.794 L201.587,22 L200.542,22 Z M220.199,22 C220.015666,22 219.909333,21.9046676 219.88,21.714 L219.77,19.987 C219.285998,20.6470033 218.719503,21.1713314 218.0705,21.56 C217.421497,21.9486686 216.693671,22.143 215.887,22.143 C214.544993,22.143 213.49817,21.677338 212.7465,20.746 C211.99483,19.814662 211.619,18.417676 211.619,16.555 C211.619,15.7556627 211.723499,15.0095035 211.9325,14.3165 C212.141501,13.6234965 212.449498,13.0221692 212.8565,12.5125 C213.263502,12.0028308 213.762164,11.6013348 214.3525,11.308 C214.942836,11.0146652 215.622996,10.868 216.393,10.868 C217.13367,10.868 217.775331,11.0054986 218.318,11.2805 C218.860669,11.5555014 219.329998,11.9569974 219.726,12.485 L219.726,5.995 L220.782,5.995 L220.782,22 L220.199,22 Z M216.184,21.296 C216.910004,21.296 217.56633,21.1090019 218.153,20.735 C218.73967,20.3609981 219.263998,19.8403367 219.726,19.173 L219.726,13.398 C219.300665,12.7746635 218.833169,12.334668 218.3235,12.078 C217.813831,11.8213321 217.236337,11.693 216.591,11.693 C215.945663,11.693 215.381002,11.8103322 214.897,12.045 C214.412998,12.2796678 214.007835,12.6114979 213.6815,13.0405 C213.355165,13.4695021 213.109501,13.9828303 212.9445,14.5805 C212.779499,15.1781697 212.697,15.8363297 212.697,16.555 C212.697,18.1830081 212.997664,19.3801628 213.599,20.1465 C214.200336,20.9128372 215.061994,21.296 216.184,21.296 L216.184,21.296 Z" id="2nd" fill="#5C737F"></path>
            <path d="M163.58,99.224 C163.644,99.224 163.702,99.2499997 163.754,99.302 L164.21,99.8 C163.857998,100.208002 163.431003,100.525999 162.929,100.754 C162.426997,100.982001 161.822004,101.096 161.114,101.096 C160.493997,101.096 159.932003,100.989001 159.428,100.775 C158.923997,100.560999 158.494002,100.261002 158.138,99.875 C157.781998,99.4889981 157.506001,99.0260027 157.31,98.486 C157.113999,97.9459973 157.016,97.3520032 157.016,96.704 C157.016,96.0559968 157.120999,95.4620027 157.331,94.922 C157.541001,94.3819973 157.835998,93.9180019 158.216,93.53 C158.596002,93.1419981 159.050997,92.8410011 159.581,92.627 C160.111003,92.4129989 160.695997,92.306 161.336,92.306 C161.968003,92.306 162.512998,92.403999 162.971,92.6 C163.429002,92.796001 163.835998,93.0619983 164.192,93.398 L163.814,93.932 C163.786,93.9720002 163.754,94.0049999 163.718,94.031 C163.682,94.0570001 163.63,94.07 163.562,94.07 C163.51,94.07 163.455,94.0510002 163.397,94.013 C163.339,93.9749998 163.27,93.9280003 163.19,93.872 C163.11,93.8159997 163.016001,93.7560003 162.908,93.692 C162.799999,93.6279997 162.672001,93.5680003 162.524,93.512 C162.375999,93.4559997 162.204001,93.4090002 162.008,93.371 C161.811999,93.3329998 161.586001,93.314 161.33,93.314 C160.869998,93.314 160.449002,93.3929992 160.067,93.551 C159.684998,93.7090008 159.356001,93.9339985 159.08,94.226 C158.803999,94.5180015 158.589001,94.8739979 158.435,95.294 C158.280999,95.7140021 158.204,96.1839974 158.204,96.704 C158.204,97.2400027 158.280999,97.7179979 158.435,98.138 C158.589001,98.5580021 158.798999,98.9129985 159.065,99.203 C159.331001,99.4930014 159.645998,99.7139992 160.01,99.866 C160.374002,100.018001 160.765998,100.094 161.186,100.094 C161.442001,100.094 161.671999,100.079 161.876,100.049 C162.080001,100.019 162.268999,99.9720003 162.443,99.908 C162.617001,99.8439997 162.778999,99.7630005 162.929,99.665 C163.079001,99.5669995 163.229999,99.4500007 163.382,99.314 C163.45,99.2539997 163.516,99.224 163.58,99.224 L163.58,99.224 Z M168.032,94.826 C168.476002,94.826 168.876998,94.8999993 169.235,95.048 C169.593002,95.1960007 169.896999,95.4059986 170.147,95.678 C170.397001,95.9500014 170.588999,96.2789981 170.723,96.665 C170.857001,97.0510019 170.924,97.4819976 170.924,97.958 C170.924,98.4380024 170.857001,98.8699981 170.723,99.254 C170.588999,99.6380019 170.397001,99.9659986 170.147,100.238 C169.896999,100.510001 169.593002,100.718999 169.235,100.865 C168.876998,101.011001 168.476002,101.084 168.032,101.084 C167.587998,101.084 167.187002,101.011001 166.829,100.865 C166.470998,100.718999 166.166001,100.510001 165.914,100.238 C165.661999,99.9659986 165.468001,99.6380019 165.332,99.254 C165.195999,98.8699981 165.128,98.4380024 165.128,97.958 C165.128,97.4819976 165.195999,97.0510019 165.332,96.665 C165.468001,96.2789981 165.661999,95.9500014 165.914,95.678 C166.166001,95.4059986 166.470998,95.1960007 166.829,95.048 C167.187002,94.8999993 167.587998,94.826 168.032,94.826 L168.032,94.826 Z M168.032,100.25 C168.632003,100.25 169.079999,100.049002 169.376,99.647 C169.672001,99.244998 169.82,98.6840036 169.82,97.964 C169.82,97.2399964 169.672001,96.676002 169.376,96.272 C169.079999,95.867998 168.632003,95.666 168.032,95.666 C167.727998,95.666 167.464001,95.7179995 167.24,95.822 C167.015999,95.9260005 166.829001,96.075999 166.679,96.272 C166.528999,96.468001 166.417,96.7089986 166.343,96.995 C166.269,97.2810014 166.232,97.6039982 166.232,97.964 C166.232,98.3240018 166.269,98.6459986 166.343,98.93 C166.417,99.2140014 166.528999,99.452999 166.679,99.647 C166.829001,99.841001 167.015999,99.9899995 167.24,100.094 C167.464001,100.198001 167.727998,100.25 168.032,100.25 L168.032,100.25 Z M176.708,101 L176.234,101 C176.129999,101 176.046,100.984 175.982,100.952 C175.918,100.92 175.876,100.852001 175.856,100.748 L175.736,100.184 C175.575999,100.328001 175.420001,100.456999 175.268,100.571 C175.115999,100.685001 174.956001,100.781 174.788,100.859 C174.619999,100.937 174.441001,100.996 174.251,101.036 C174.060999,101.076 173.850001,101.096 173.618,101.096 C173.381999,101.096 173.161001,101.063 172.955,100.997 C172.748999,100.931 172.570001,100.832001 172.418,100.7 C172.265999,100.567999 172.145,100.401001 172.055,100.199 C171.965,99.996999 171.92,99.7580014 171.92,99.482 C171.92,99.2419988 171.985999,99.0110011 172.118,98.789 C172.250001,98.5669989 172.462999,98.3700009 172.757,98.198 C173.051001,98.0259991 173.435998,97.8850006 173.912,97.775 C174.388002,97.6649994 174.969997,97.6020001 175.658,97.586 L175.658,97.112 C175.658,96.6399976 175.557001,96.2830012 175.355,96.041 C175.152999,95.7989988 174.854002,95.678 174.458,95.678 C174.197999,95.678 173.979001,95.7109997 173.801,95.777 C173.622999,95.8430003 173.469001,95.9169996 173.339,95.999 C173.208999,96.0810004 173.097,96.1549997 173.003,96.221 C172.909,96.2870003 172.816,96.32 172.724,96.32 C172.652,96.32 172.589,96.3010002 172.535,96.263 C172.481,96.2249998 172.438,96.1780003 172.406,96.122 L172.214,95.78 C172.550002,95.4559984 172.911998,95.2140008 173.3,95.054 C173.688002,94.8939992 174.117998,94.814 174.59,94.814 C174.930002,94.814 175.231999,94.8699994 175.496,94.982 C175.760001,95.0940006 175.981999,95.249999 176.162,95.45 C176.342001,95.650001 176.478,95.8919986 176.57,96.176 C176.662,96.4600014 176.708,96.7719983 176.708,97.112 L176.708,101 Z M173.936,100.346 C174.124001,100.346 174.295999,100.327 174.452,100.289 C174.608001,100.251 174.754999,100.197 174.893,100.127 C175.031001,100.057 175.162999,99.9720005 175.289,99.872 C175.415001,99.7719995 175.537999,99.6580006 175.658,99.53 L175.658,98.264 C175.165998,98.2800001 174.748002,98.3189997 174.404,98.381 C174.059998,98.4430003 173.780001,98.5239995 173.564,98.624 C173.347999,98.7240005 173.191,98.8419993 173.093,98.978 C172.995,99.1140007 172.946,99.2659992 172.946,99.434 C172.946,99.5940008 172.972,99.7319994 173.024,99.848 C173.076,99.9640006 173.146,100.059 173.234,100.133 C173.322,100.207 173.425999,100.261 173.546,100.295 C173.666001,100.329 173.795999,100.346 173.936,100.346 L173.936,100.346 Z M179.516,92.162 L179.516,101 L178.448,101 L178.448,92.162 L179.516,92.162 Z" id="Coal" fill="#5C737F"></path>
            <path d="M206.058,97.412 L206.058,101 L204.9,101 L204.9,92.402 L207.33,92.402 C207.874003,92.402 208.343998,92.4569994 208.74,92.567 C209.136002,92.6770006 209.462999,92.835999 209.721,93.044 C209.979001,93.252001 210.169999,93.5029985 210.294,93.797 C210.418001,94.0910015 210.48,94.4199982 210.48,94.784 C210.48,95.0880015 210.432,95.3719987 210.336,95.636 C210.24,95.9000013 210.101001,96.136999 209.919,96.347 C209.736999,96.557001 209.515001,96.7359993 209.253,96.884 C208.990999,97.0320007 208.694002,97.1439996 208.362,97.22 C208.506001,97.3040004 208.633999,97.4259992 208.746,97.586 L211.254,101 L210.222,101 C210.009999,101 209.854001,100.918001 209.754,100.754 L207.522,97.682 C207.454,97.5859995 207.38,97.5170002 207.3,97.475 C207.22,97.4329998 207.100001,97.412 206.94,97.412 L206.058,97.412 Z M206.058,96.566 L207.276,96.566 C207.616002,96.566 207.914999,96.5250004 208.173,96.443 C208.431001,96.3609996 208.646999,96.2450008 208.821,96.095 C208.995001,95.9449992 209.126,95.766001 209.214,95.558 C209.302,95.349999 209.346,95.1200013 209.346,94.868 C209.346,94.3559974 209.177002,93.9700013 208.839,93.71 C208.500998,93.4499987 207.998003,93.32 207.33,93.32 L206.058,93.32 L206.058,96.566 Z M214.746,94.826 C215.110002,94.826 215.445998,94.8869994 215.754,95.009 C216.062002,95.1310006 216.327999,95.3069988 216.552,95.537 C216.776001,95.7670011 216.950999,96.0509983 217.077,96.389 C217.203001,96.7270017 217.266,97.1119978 217.266,97.544 C217.266,97.7120008 217.248,97.8239997 217.212,97.88 C217.176,97.9360003 217.108001,97.964 217.008,97.964 L212.964,97.964 C212.972,98.3480019 213.024,98.6819986 213.12,98.966 C213.216,99.2500014 213.347999,99.486999 213.516,99.677 C213.684001,99.867001 213.883999,100.009 214.116,100.103 C214.348001,100.197 214.607999,100.244 214.896,100.244 C215.164001,100.244 215.394999,100.213 215.589,100.151 C215.783001,100.089 215.949999,100.022 216.09,99.95 C216.230001,99.8779996 216.347,99.8110003 216.441,99.749 C216.535,99.6869997 216.616,99.656 216.684,99.656 C216.772,99.656 216.84,99.6899997 216.888,99.758 L217.188,100.148 C217.055999,100.308001 216.898001,100.446999 216.714,100.565 C216.529999,100.683001 216.333001,100.78 216.123,100.856 C215.912999,100.932 215.696001,100.989 215.472,101.027 C215.247999,101.065 215.026001,101.084 214.806,101.084 C214.385998,101.084 213.999002,101.013001 213.645,100.871 C213.290998,100.728999 212.985001,100.521001 212.727,100.247 C212.468999,99.9729986 212.268001,99.634002 212.124,99.23 C211.979999,98.825998 211.908,98.3620026 211.908,97.838 C211.908,97.4139979 211.972999,97.0180018 212.103,96.65 C212.233001,96.2819982 212.419999,95.9630013 212.664,95.693 C212.908001,95.4229986 213.205998,95.2110008 213.558,95.057 C213.910002,94.9029992 214.305998,94.826 214.746,94.826 L214.746,94.826 Z M214.77,95.612 C214.253997,95.612 213.848001,95.7609985 213.552,96.059 C213.255999,96.3570015 213.072,96.7699974 213,97.298 L216.306,97.298 C216.306,97.0499988 216.272,96.823001 216.204,96.617 C216.136,96.410999 216.036001,96.2330008 215.904,96.083 C215.771999,95.9329992 215.611001,95.8170004 215.421,95.735 C215.230999,95.6529996 215.014001,95.612 214.77,95.612 L214.77,95.612 Z M218.628,101 L218.628,94.922 L219.264,94.922 C219.416001,94.922 219.512,94.9959993 219.552,95.144 L219.636,95.804 C219.900001,95.5119985 220.194998,95.2760009 220.521,95.096 C220.847002,94.9159991 221.223998,94.826 221.652,94.826 C221.984002,94.826 222.276999,94.8809995 222.531,94.991 C222.785001,95.1010005 222.996999,95.256999 223.167,95.459 C223.337001,95.661001 223.466,95.9039986 223.554,96.188 C223.642,96.4720014 223.686,96.7859983 223.686,97.13 L223.686,101 L222.618,101 L222.618,97.13 C222.618,96.6699977 222.513001,96.3130013 222.303,96.059 C222.092999,95.8049987 221.772002,95.678 221.34,95.678 C221.023998,95.678 220.729001,95.7539992 220.455,95.906 C220.180999,96.0580008 219.928001,96.2639987 219.696,96.524 L219.696,101 L218.628,101 Z M227.706,94.826 C228.070002,94.826 228.405998,94.8869994 228.714,95.009 C229.022002,95.1310006 229.287999,95.3069988 229.512,95.537 C229.736001,95.7670011 229.910999,96.0509983 230.037,96.389 C230.163001,96.7270017 230.226,97.1119978 230.226,97.544 C230.226,97.7120008 230.208,97.8239997 230.172,97.88 C230.136,97.9360003 230.068001,97.964 229.968,97.964 L225.924,97.964 C225.932,98.3480019 225.984,98.6819986 226.08,98.966 C226.176,99.2500014 226.307999,99.486999 226.476,99.677 C226.644001,99.867001 226.843999,100.009 227.076,100.103 C227.308001,100.197 227.567999,100.244 227.856,100.244 C228.124001,100.244 228.354999,100.213 228.549,100.151 C228.743001,100.089 228.909999,100.022 229.05,99.95 C229.190001,99.8779996 229.307,99.8110003 229.401,99.749 C229.495,99.6869997 229.576,99.656 229.644,99.656 C229.732,99.656 229.8,99.6899997 229.848,99.758 L230.148,100.148 C230.015999,100.308001 229.858001,100.446999 229.674,100.565 C229.489999,100.683001 229.293001,100.78 229.083,100.856 C228.872999,100.932 228.656001,100.989 228.432,101.027 C228.207999,101.065 227.986001,101.084 227.766,101.084 C227.345998,101.084 226.959002,101.013001 226.605,100.871 C226.250998,100.728999 225.945001,100.521001 225.687,100.247 C225.428999,99.9729986 225.228001,99.634002 225.084,99.23 C224.939999,98.825998 224.868,98.3620026 224.868,97.838 C224.868,97.4139979 224.932999,97.0180018 225.063,96.65 C225.193001,96.2819982 225.379999,95.9630013 225.624,95.693 C225.868001,95.4229986 226.165998,95.2110008 226.518,95.057 C226.870002,94.9029992 227.265998,94.826 227.706,94.826 L227.706,94.826 Z M227.73,95.612 C227.213997,95.612 226.808001,95.7609985 226.512,96.059 C226.215999,96.3570015 226.032,96.7699974 225.96,97.298 L229.266,97.298 C229.266,97.0499988 229.232,96.823001 229.164,96.617 C229.096,96.410999 228.996001,96.2330008 228.864,96.083 C228.731999,95.9329992 228.571001,95.8170004 228.381,95.735 C228.190999,95.6529996 227.974001,95.612 227.73,95.612 L227.73,95.612 Z M230.796,94.922 L231.636,94.922 C231.724,94.922 231.796,94.9439998 231.852,94.988 C231.908,95.0320002 231.946,95.0839997 231.966,95.144 L233.13,99.056 C233.162,99.2000007 233.192,99.3389993 233.22,99.473 C233.248,99.6070007 233.272,99.7419993 233.292,99.878 C233.324,99.7419993 233.36,99.6070007 233.4,99.473 C233.44,99.3389993 233.482,99.2000007 233.526,99.056 L234.81,95.12 C234.83,95.0599997 234.865,95.0100002 234.915,94.97 C234.965,94.9299998 235.028,94.91 235.104,94.91 L235.566,94.91 C235.646,94.91 235.712,94.9299998 235.764,94.97 C235.816,95.0100002 235.852,95.0599997 235.872,95.12 L237.126,99.056 C237.17,99.1960007 237.209,99.3339993 237.243,99.47 C237.277,99.6060007 237.31,99.7399993 237.342,99.872 C237.362,99.7399993 237.388,99.6020007 237.42,99.458 C237.452,99.3139993 237.486,99.1800006 237.522,99.056 L238.71,95.144 C238.73,95.0799997 238.768,95.0270002 238.824,94.985 C238.88,94.9429998 238.946,94.922 239.022,94.922 L239.826,94.922 L237.858,101 L237.012,101 C236.907999,101 236.836,100.932001 236.796,100.796 L235.452,96.674 C235.42,96.5819995 235.394,96.4890005 235.374,96.395 C235.354,96.3009995 235.334,96.2080005 235.314,96.116 C235.294,96.2080005 235.274,96.3019995 235.254,96.398 C235.234,96.4940005 235.208,96.5879995 235.176,96.68 L233.814,100.796 C233.77,100.932001 233.688001,101 233.568,101 L232.764,101 L230.796,94.922 Z M245.244,101 L244.77,101 C244.665999,101 244.582,100.984 244.518,100.952 C244.454,100.92 244.412,100.852001 244.392,100.748 L244.272,100.184 C244.111999,100.328001 243.956001,100.456999 243.804,100.571 C243.651999,100.685001 243.492001,100.781 243.324,100.859 C243.155999,100.937 242.977001,100.996 242.787,101.036 C242.596999,101.076 242.386001,101.096 242.154,101.096 C241.917999,101.096 241.697001,101.063 241.491,100.997 C241.284999,100.931 241.106001,100.832001 240.954,100.7 C240.801999,100.567999 240.681,100.401001 240.591,100.199 C240.501,99.996999 240.456,99.7580014 240.456,99.482 C240.456,99.2419988 240.521999,99.0110011 240.654,98.789 C240.786001,98.5669989 240.998999,98.3700009 241.293,98.198 C241.587001,98.0259991 241.971998,97.8850006 242.448,97.775 C242.924002,97.6649994 243.505997,97.6020001 244.194,97.586 L244.194,97.112 C244.194,96.6399976 244.093001,96.2830012 243.891,96.041 C243.688999,95.7989988 243.390002,95.678 242.994,95.678 C242.733999,95.678 242.515001,95.7109997 242.337,95.777 C242.158999,95.8430003 242.005001,95.9169996 241.875,95.999 C241.744999,96.0810004 241.633,96.1549997 241.539,96.221 C241.445,96.2870003 241.352,96.32 241.26,96.32 C241.188,96.32 241.125,96.3010002 241.071,96.263 C241.017,96.2249998 240.974,96.1780003 240.942,96.122 L240.75,95.78 C241.086002,95.4559984 241.447998,95.2140008 241.836,95.054 C242.224002,94.8939992 242.653998,94.814 243.126,94.814 C243.466002,94.814 243.767999,94.8699994 244.032,94.982 C244.296001,95.0940006 244.517999,95.249999 244.698,95.45 C244.878001,95.650001 245.014,95.8919986 245.106,96.176 C245.198,96.4600014 245.244,96.7719983 245.244,97.112 L245.244,101 Z M242.472,100.346 C242.660001,100.346 242.831999,100.327 242.988,100.289 C243.144001,100.251 243.290999,100.197 243.429,100.127 C243.567001,100.057 243.698999,99.9720005 243.825,99.872 C243.951001,99.7719995 244.073999,99.6580006 244.194,99.53 L244.194,98.264 C243.701998,98.2800001 243.284002,98.3189997 242.94,98.381 C242.595998,98.4430003 242.316001,98.5239995 242.1,98.624 C241.883999,98.7240005 241.727,98.8419993 241.629,98.978 C241.531,99.1140007 241.482,99.2659992 241.482,99.434 C241.482,99.5940008 241.508,99.7319994 241.56,99.848 C241.612,99.9640006 241.682,100.059 241.77,100.133 C241.858,100.207 241.961999,100.261 242.082,100.295 C242.202001,100.329 242.331999,100.346 242.472,100.346 L242.472,100.346 Z M246.9,101 L246.9,92.162 L247.974,92.162 L247.974,95.798 C248.226001,95.5059985 248.514998,95.2710009 248.841,95.093 C249.167002,94.9149991 249.539998,94.826 249.96,94.826 C250.312002,94.826 250.629999,94.8919993 250.914,95.024 C251.198001,95.1560007 251.439999,95.3529987 251.64,95.615 C251.840001,95.8770013 251.993999,96.2009981 252.102,96.587 C252.210001,96.9730019 252.264,97.4179975 252.264,97.922 C252.264,98.3700022 252.204001,98.7869981 252.084,99.173 C251.963999,99.5590019 251.791001,99.8929986 251.565,100.175 C251.338999,100.457001 251.063002,100.678999 250.737,100.841 C250.410998,101.003001 250.044002,101.084 249.636,101.084 C249.243998,101.084 248.911001,101.008001 248.637,100.856 C248.362999,100.703999 248.124001,100.492001 247.92,100.22 L247.866,100.772 C247.834,100.924001 247.742001,101 247.59,101 L246.9,101 Z M249.612,95.678 C249.263998,95.678 248.959001,95.7579992 248.697,95.918 C248.434999,96.0780008 248.194001,96.3039985 247.974,96.596 L247.974,99.536 C248.166001,99.8000013 248.378999,99.9859995 248.613,100.094 C248.847001,100.202001 249.107999,100.256 249.396,100.256 C249.964003,100.256 250.399998,100.054002 250.704,99.65 C251.008002,99.245998 251.16,98.6700037 251.16,97.922 C251.16,97.525998 251.125,97.1860014 251.055,96.902 C250.985,96.6179986 250.884001,96.3850009 250.752,96.203 C250.619999,96.0209991 250.458001,95.8880004 250.266,95.804 C250.073999,95.7199996 249.856001,95.678 249.612,95.678 L249.612,95.678 Z M254.76,92.162 L254.76,101 L253.692,101 L253.692,92.162 L254.76,92.162 Z M259.05,94.826 C259.414002,94.826 259.749998,94.8869994 260.058,95.009 C260.366002,95.1310006 260.631999,95.3069988 260.856,95.537 C261.080001,95.7670011 261.254999,96.0509983 261.381,96.389 C261.507001,96.7270017 261.57,97.1119978 261.57,97.544 C261.57,97.7120008 261.552,97.8239997 261.516,97.88 C261.48,97.9360003 261.412001,97.964 261.312,97.964 L257.268,97.964 C257.276,98.3480019 257.328,98.6819986 257.424,98.966 C257.52,99.2500014 257.651999,99.486999 257.82,99.677 C257.988001,99.867001 258.187999,100.009 258.42,100.103 C258.652001,100.197 258.911999,100.244 259.2,100.244 C259.468001,100.244 259.698999,100.213 259.893,100.151 C260.087001,100.089 260.253999,100.022 260.394,99.95 C260.534001,99.8779996 260.651,99.8110003 260.745,99.749 C260.839,99.6869997 260.92,99.656 260.988,99.656 C261.076,99.656 261.144,99.6899997 261.192,99.758 L261.492,100.148 C261.359999,100.308001 261.202001,100.446999 261.018,100.565 C260.833999,100.683001 260.637001,100.78 260.427,100.856 C260.216999,100.932 260.000001,100.989 259.776,101.027 C259.551999,101.065 259.330001,101.084 259.11,101.084 C258.689998,101.084 258.303002,101.013001 257.949,100.871 C257.594998,100.728999 257.289001,100.521001 257.031,100.247 C256.772999,99.9729986 256.572001,99.634002 256.428,99.23 C256.283999,98.825998 256.212,98.3620026 256.212,97.838 C256.212,97.4139979 256.276999,97.0180018 256.407,96.65 C256.537001,96.2819982 256.723999,95.9630013 256.968,95.693 C257.212001,95.4229986 257.509998,95.2110008 257.862,95.057 C258.214002,94.9029992 258.609998,94.826 259.05,94.826 L259.05,94.826 Z M259.074,95.612 C258.557997,95.612 258.152001,95.7609985 257.856,96.059 C257.559999,96.3570015 257.376,96.7699974 257.304,97.298 L260.61,97.298 C260.61,97.0499988 260.576,96.823001 260.508,96.617 C260.44,96.410999 260.340001,96.2330008 260.208,96.083 C260.075999,95.9329992 259.915001,95.8170004 259.725,95.735 C259.534999,95.6529996 259.318001,95.612 259.074,95.612 L259.074,95.612 Z M266.412,95.924 C266.364,96.0120004 266.290001,96.056 266.19,96.056 C266.13,96.056 266.062,96.0340002 265.986,95.99 C265.91,95.9459998 265.817001,95.8970003 265.707,95.843 C265.596999,95.7889997 265.466001,95.7390002 265.314,95.693 C265.161999,95.6469998 264.982001,95.624 264.774,95.624 C264.593999,95.624 264.432001,95.6469998 264.288,95.693 C264.143999,95.7390002 264.021001,95.8019996 263.919,95.882 C263.816999,95.9620004 263.739,96.0549995 263.685,96.161 C263.631,96.2670005 263.604,96.3819994 263.604,96.506 C263.604,96.6620008 263.649,96.7919995 263.739,96.896 C263.829,97.0000005 263.947999,97.0899996 264.096,97.166 C264.244001,97.2420004 264.411999,97.3089997 264.6,97.367 C264.788001,97.4250003 264.980999,97.4869997 265.179,97.553 C265.377001,97.6190003 265.569999,97.6919996 265.758,97.772 C265.946001,97.8520004 266.113999,97.9519994 266.262,98.072 C266.410001,98.1920006 266.529,98.3389991 266.619,98.513 C266.709,98.6870009 266.754,98.8959988 266.754,99.14 C266.754,99.4200014 266.704001,99.6789988 266.604,99.917 C266.504,100.155001 266.356001,100.360999 266.16,100.535 C265.963999,100.709001 265.724001,100.846 265.44,100.946 C265.155999,101.046001 264.828002,101.096 264.456,101.096 C264.031998,101.096 263.648002,101.027001 263.304,100.889 C262.959998,100.750999 262.668001,100.574001 262.428,100.358 L262.68,99.95 C262.712,99.8979997 262.75,99.8580001 262.794,99.83 C262.838,99.8019999 262.896,99.788 262.968,99.788 C263.04,99.788 263.116,99.8159997 263.196,99.872 C263.276,99.9280003 263.372999,99.9899997 263.487,100.058 C263.601001,100.126 263.738999,100.188 263.901,100.244 C264.063001,100.3 264.265999,100.328 264.51,100.328 C264.718001,100.328 264.899999,100.301 265.056,100.247 C265.212001,100.193 265.341999,100.12 265.446,100.028 C265.550001,99.9359995 265.627,99.8300006 265.677,99.71 C265.727,99.5899994 265.752,99.4620007 265.752,99.326 C265.752,99.1579992 265.707,99.0190006 265.617,98.909 C265.527,98.7989994 265.408001,98.7050004 265.26,98.627 C265.111999,98.5489996 264.943001,98.4810003 264.753,98.423 C264.562999,98.3649997 264.369001,98.3040003 264.171,98.24 C263.972999,98.1759997 263.779001,98.1030004 263.589,98.021 C263.398999,97.9389996 263.230001,97.8360006 263.082,97.712 C262.933999,97.5879994 262.815,97.4350009 262.725,97.253 C262.635,97.0709991 262.59,96.8500013 262.59,96.59 C262.59,96.3579988 262.638,96.1350011 262.734,95.921 C262.83,95.7069989 262.969999,95.5190008 263.154,95.357 C263.338001,95.1949992 263.563999,95.0660005 263.832,94.97 C264.100001,94.8739995 264.405998,94.826 264.75,94.826 C265.150002,94.826 265.508998,94.8889994 265.827,95.015 C266.145002,95.1410006 266.419999,95.3139989 266.652,95.534 L266.412,95.924 Z" id="Renewables" fill="#5C737F"></path>
            <path d="M111.612199,64.7159172 L110.350008,59.4495689 C110.200622,58.8206021 109.641055,58.2190903 109.016922,58.0156745 L108.334555,57.7972833 C107.545844,57.5339658 106.64446,57.9844757 106.384932,58.7644444 L104.201102,65.3136852 L80.1156695,57.5077589 C79.621934,57.3492693 79.0927507,57.6113387 78.9307042,58.0955433 C78.7914455,58.5161024 78.9838757,58.947893 79.3535444,59.1662842 L79.3535444,76.8397499 C79.0762929,76.9994875 78.8851286,77.2827721 78.8851286,77.6209665 L78.8851286,84.5458402 L78.8863946,84.5633115 L74.4427747,84.5633115 C74.1845131,84.5633115 73.974359,84.7679753 73.974359,85.0250529 C73.974359,85.2808827 74.1845131,85.4867944 74.4440407,85.4867944 L85.2897648,85.4867944 C85.5492924,85.4867944 85.7594465,85.2808827 85.7594465,85.0250529 C85.7594465,84.7692232 85.5492924,84.5633115 85.2897648,84.5633115 L80.7562597,84.5633115 L80.7587917,84.5458402 L80.7587917,77.6209665 C80.7587917,77.2840201 80.5663614,76.9994875 80.2916419,76.8397499 L80.2916419,59.5094704 L90.4094225,62.7890826 L89.3485241,75.6367263 L88.7535095,75.6367263 C88.2673699,75.6367263 87.8609876,76.0048715 87.8192099,76.4828363 L87.1254482,84.4659714 C87.1026604,84.724297 87.1900136,84.9788788 87.368518,85.1710631 C87.5457564,85.3607514 87.7964221,85.470571 88.0610138,85.470571 L99.1915852,85.470571 C99.7106405,85.470571 100.129683,85.0562517 100.129683,84.5458402 L100.091703,84.2837707 L99.4131332,76.4828363 C99.3713556,76.0048715 98.9649733,75.6367263 98.4775677,75.6367263 L97.885085,75.6367263 L97.0090209,64.9293166 L103.616215,67.0707985 L101.408331,73.6861807 C101.280466,74.0705492 101.313382,74.4823727 101.498216,74.8442781 C101.684317,75.2074315 102.000814,75.4769887 102.39327,75.6017837 L103.079436,75.8239187 C103.261738,75.8825724 103.456701,75.9125232 103.665589,75.9125232 C104.163122,75.9125232 104.66572,75.7403061 105.011335,75.4532776 L109.197959,71.9502824 C109.580287,71.6295593 109.972744,71.0555024 110.132258,70.5825294 L111.543836,66.3569712 C111.699552,65.8815023 111.726138,65.192634 111.612199,64.7159172 L111.612199,64.7159172 Z M97.6179614,77.48494 L98.1534746,83.6198614 L89.0801346,83.6198614 L89.6143817,77.48494 L90.2144603,77.48494 C90.7018659,77.48494 91.1095142,77.1155468 91.1474939,76.6363341 L92.2311801,63.5079017 L95.0859843,64.4326326 L96.0861153,76.6350861 C96.1240949,77.1155468 96.5317433,77.48494 97.0204148,77.48494 L97.6179614,77.48494 L97.6179614,77.48494 Z M109.761324,65.7841623 L108.351013,70.0047286 C108.301639,70.1519867 108.107943,70.4377672 107.985142,70.5388512 L103.813709,74.0318628 L103.665589,74.0643095 L103.664323,74.0693013 L103.294654,73.9494981 L105.687373,66.7762824 L105.689905,66.7700426 L105.691171,66.7650508 L108.063633,59.6517367 L108.414312,59.7653002 L108.525719,59.8726238 L109.78791,65.143964 C109.824623,65.293718 109.809431,65.6394001 109.761324,65.7841623 L109.761324,65.7841623 Z" id="Fill-2" fill="#5C737F"></path>
            <path d="M44.2166874,71.9295185 C45.2715466,64.3128496 38.2067335,56.0099504 35.2017565,52.4692944 C34.8900369,52.0872443 34.4212106,51.8974359 33.9922845,51.8974359 C33.7578713,51.8974359 33.5234582,51.9363709 33.3289452,52.0507427 C32.6656058,52.3549227 32.3139861,53.0387195 32.4311927,53.7638848 C33.4461517,59.0201164 32.9374253,61.9134772 32.1194731,62.9038875 C32.0022665,63.0182592 31.88506,63.1715659 31.7279533,63.1715659 C31.6107467,63.1715659 31.3389272,63.0571942 31.1045141,62.7505807 C30.6356878,62.1811556 30.4411748,61.266182 30.6356878,60.3512084 C30.6730941,60.2392701 30.6730941,60.1248984 30.6730941,59.9715916 C30.6730941,59.1344881 29.9723485,58.4482578 29.1519025,58.4093228 L29.074596,58.4093228 L28.9573895,58.4093228 C28.6830762,58.4093228 28.4112567,58.5236945 28.1768436,58.6770013 C28.059637,58.7524379 27.9823305,58.8278746 27.865124,58.9422463 L27.8252239,58.9811813 C24.1569076,63.3224393 22.4786092,68.2355557 23.1419486,72.501377 C23.5309746,75.0540561 24.7803468,77.2246851 26.6930583,78.8623906 C24.9748598,78.9378272 23.6107748,80.3467893 23.6107748,82.0234298 C23.6107748,83.775507 25.05466,85.1844691 26.8501649,85.1844691 L40.7428842,85.1844691 C42.5383891,85.1844691 43.984768,83.775507 43.984768,82.0234298 C43.984768,80.2713527 42.5383891,78.8623906 40.7428842,78.8623906 L40.3937582,78.8623906 C42.5782892,76.88157 43.8675615,74.5576343 44.2166874,71.9295185 L44.2166874,71.9295185 Z M29.0346959,59.9326566 C28.4885632,62.5997074 30.089555,64.6559647 31.6905469,64.6559647 C33.6007647,64.6559647 35.5932763,61.7236688 33.9922845,53.4207697 C38.4810467,58.7524379 48.7852499,71.2822233 37.934914,78.7090838 C37.934914,78.7090838 41.95485,74.3288908 36.1394091,68.6541075 C36.8800549,74.4067609 34.3439042,77.7576086 32.079573,77.7576086 C30.6356878,77.7576086 29.3090092,76.3851481 28.9947958,73.4163506 C27.9823305,76.6138915 28.3713566,77.2611867 28.8002828,78.4803404 C22.9075354,74.7498761 23.2591551,66.7876586 29.0346959,59.9326566 L29.0346959,59.9326566 Z M42.3438761,81.9844948 C42.3438761,82.8605334 41.6032303,83.5856987 40.7054778,83.5856987 L26.8102648,83.5856987 C25.9125124,83.5856987 25.1718666,82.8605334 25.1718666,81.9844948 C25.1718666,81.1084562 25.9125124,80.3857244 26.8102648,80.3857244 L40.7054778,80.3857244 C41.6032303,80.3857244 42.3438761,81.1084562 42.3438761,81.9844948 L42.3438761,81.9844948 Z M34.0695909,78.8234555 C34.6157237,78.5192755 35.1244501,78.1372253 35.5932763,77.6043018 C36.5284352,76.5773899 37.1917745,75.2049294 37.5433942,73.645094 C38.2067335,76.0444664 36.8401548,77.5678002 36.7628483,77.6432369 C36.4511287,77.986352 36.3339221,78.4049038 36.3738222,78.8234555 L34.0695909,78.8234555 L34.0695909,78.8234555 Z" id="Fill-1" fill="#5C737F"></path>
            <g id="Icon:-Coal-Copy" transform="translate(150.461538, 59.974359)" fill="#5C737F">
                <path d="M12.5767313,20.9589154 C11.3178492,20.9589154 10.2978319,21.9825887 10.2978319,23.245983 C10.2978319,24.5093772 11.3178492,25.5330505 12.5767313,25.5330505 C13.8343223,25.5330505 14.8556307,24.5093772 14.8556307,23.245983 C14.8556307,21.9825887 13.8343223,20.9589154 12.5767313,20.9589154 L12.5767313,20.9589154 Z M12.5767313,24.2165289 C12.0421906,24.2165289 11.6096516,23.7824396 11.6096516,23.245983 C11.6096516,22.7108221 12.0421906,22.2767328 12.5767313,22.2767328 C13.1099809,22.2767328 13.5425198,22.7108221 13.5425198,23.245983 C13.5425198,23.7824396 13.1099809,24.2165289 12.5767313,24.2165289 L12.5767313,24.2165289 Z" id="Fill-1"></path>
                <path d="M21.9634729,20.9589154 C20.7045908,20.9589154 19.6832823,21.9825887 19.6832823,23.245983 C19.6832823,24.5093772 20.7045908,25.5330505 21.9634729,25.5330505 C23.2210639,25.5330505 24.2423723,24.5093772 24.2423723,23.245983 C24.2423723,21.9825887 23.222355,20.9589154 21.9634729,20.9589154 L21.9634729,20.9589154 Z M21.9634729,24.2165289 C21.4302233,24.2165289 20.9963932,23.7824396 20.9963932,23.245983 C20.9963932,22.7108221 21.4289322,22.2767328 21.9634729,22.2767328 C22.4967224,22.2767328 22.9305526,22.7108221 22.9305526,23.245983 C22.9292614,23.7824396 22.4967224,24.2165289 21.9634729,24.2165289 L21.9634729,24.2165289 Z" id="Fill-2"></path>
                <path d="M33.8886373,6.24523165 C33.4548072,5.60899927 32.6917309,5.31615096 31.7853358,5.31615096 L29.7788714,5.31615096 C29.006757,4.63327017 28.3947466,4.18881455 27.6523289,3.27917069 C27.0932562,2.59499412 25.481887,2.77381299 24.6503793,2.35397737 C22.0331956,1.03097683 20.2707606,-0.453997336 17.2713933,0.346800249 C16.0628664,0.669451703 15.306246,0.961004221 14.0538197,0.830129535 C12.4992616,0.668155914 10.7110034,0.992103157 9.56574348,2.28789213 C9.29072616,2.59888148 5.48567423,4.63327017 5.64061357,5.31615096 L2.71484239,5.31615096 C1.81748539,5.31615096 1.05440915,5.60899927 0.620579002,6.24523165 C0.208698594,6.84906931 0.13768473,7.59155639 0.425613668,8.35995925 L5.24680942,21.225848 C5.77747665,22.6395537 7.41854248,23.7461575 8.99505025,23.7461575 L9.0299116,23.7461575 L9.01183535,22.0396034 L8.99375909,22.0396034 C8.14159273,22.0396034 7.15901909,21.3463563 6.8827106,20.6103482 L2.06151485,7.72631845 C2.01245073,7.59414797 1.94660151,7.39718805 2.06409717,7.22484811 C2.16868123,7.07064923 2.42045765,7.02270503 2.72517168,7.02270503 L31.7750065,7.02270503 C32.0900498,7.02270503 32.3405351,7.05769134 32.4464103,7.21189022 C32.5626148,7.38293437 32.4967656,7.59803534 32.4477015,7.73020581 L27.6252146,20.5714745 C27.3476149,21.3126658 26.3689147,21.9735182 25.497381,21.968335 L25.4793047,23.7461575 L25.5141661,23.7461575 C27.0906738,23.7461575 28.7317397,22.6175253 29.2611157,21.2051153 L34.0836026,8.37550872 C34.3715316,7.60840165 34.3005177,6.84906931 33.8886373,6.24523165" id="Fill-3"></path>
                <path d="M17.798187,22.3803959 L16.4876584,22.3803959 C16.0047642,22.3803959 15.6135423,22.7496958 15.6135423,23.2343209 C15.6135423,23.7189459 16.0047642,24.08695 16.4876584,24.08695 L17.798187,24.08695 C18.2810813,24.08695 18.6723031,23.7189459 18.6723031,23.2343209 C18.6723031,22.7496958 18.2810813,22.3803959 17.798187,22.3803959" id="Fill-4"></path>
            </g>
            <g id="Icon:-Renewables-Copy" transform="translate(214.307692, 51.000000)" fill="#5C737F">
                <path d="M17.8924322,34.052816 C17.4552181,34.052816 17.1007536,33.6941162 17.1007536,33.2544599 L17.1007536,17.2873372 C17.1007536,16.8489263 17.4552181,16.4889811 17.8924322,16.4889811 C18.3284113,16.4889811 18.6841109,16.8489263 18.6841109,17.2873372 L18.6841109,33.2544599 C18.6841109,33.6941162 18.3284113,34.052816 17.8924322,34.052816" id="Fill-1"></path>
                <path d="M17.8924322,18.0856933 C16.5820249,18.0856933 15.5173962,17.0120849 15.5173962,15.6918704 C15.5173962,14.3704104 16.5820249,13.296802 17.8924322,13.296802 C19.2016045,13.296802 20.2674683,14.3704104 20.2674683,15.6918704 C20.2674683,17.0120849 19.2016045,18.0856933 17.8924322,18.0856933 L17.8924322,18.0856933 Z M17.8924322,14.8935143 C17.4552181,14.8935143 17.1007536,15.2522141 17.1007536,15.6918704 C17.1007536,16.1302813 17.4552181,16.4889811 17.8924322,16.4889811 C18.3284113,16.4889811 18.6841109,16.1302813 18.6841109,15.6918704 C18.6841109,15.2522141 18.3284113,14.8935143 17.8924322,14.8935143 L17.8924322,14.8935143 Z" id="Fill-2"></path>
                <path d="M17.8924322,11.7000897 C15.8446893,11.7000897 15.5173962,3.00535624 15.5173962,2.91817227 C15.5173962,1.59671227 16.5820249,0.523103863 17.8924322,0.523103863 C19.2016045,0.523103863 20.2674683,1.59671227 20.2674683,2.91817227 C20.2674683,3.00535624 19.9389402,11.7000897 17.8924322,11.7000897 L17.8924322,11.7000897 Z M17.8924322,2.11981613 C17.4552181,2.11981613 17.1007536,2.47851592 17.1007536,2.91817227 C17.1007536,3.76261136 17.4737441,7.10424866 17.8924322,9.00610484 C18.3098853,7.10798511 18.6841109,3.76261136 18.6841109,2.91817227 C18.6841109,2.47851592 18.3284113,2.11981613 17.8924322,2.11981613 L17.8924322,2.11981613 Z" id="Fill-3"></path>
                <path d="M6.82869179,24.3056474 C5.96784929,24.3056474 5.17123033,23.8348539 4.75130716,23.0763533 C4.11524707,21.9217883 4.52528969,20.4595885 5.67019786,19.816918 C6.32601905,19.4494998 11.6071704,17.091796 13.3535568,17.091796 C13.9982624,17.091796 14.2971489,17.3857305 14.4342414,17.6323366 C15.4272362,19.4308175 8.0612898,23.9594024 7.9834805,23.999258 C7.62901594,24.1985356 7.231324,24.3056474 6.82869179,24.3056474 L6.82869179,24.3056474 Z M12.0839068,18.9575331 C10.1411446,19.5329473 7.06705994,20.8581438 6.44088039,21.2106162 C6.06171447,21.4248397 5.92338683,21.9118244 6.13581855,22.3004159 C6.34207494,22.670325 6.83857233,22.8210288 7.21403305,22.6043143 C7.94272325,22.1945496 10.6351718,20.2503469 12.0839068,18.9575331 L12.0839068,18.9575331 Z" id="Fill-4"></path>
                <path d="M29.5971731,24.3056474 L29.5971731,24.3056474 C29.1957759,24.3056474 28.7968489,24.204763 28.4436194,24.0054854 C28.3658101,23.9656298 20.9986286,19.437045 21.9916234,17.6373186 C22.1274809,17.3932035 22.4263674,17.0980234 23.071073,17.0980234 C24.8186944,17.0980234 30.0998458,19.4582182 30.755667,19.8206545 C31.9018102,20.4620794 32.3118529,21.9242793 31.6745577,23.0825807 C31.2533995,23.8348539 30.4567805,24.3056474 29.5971731,24.3056474 L29.5971731,24.3056474 Z M24.3296074,18.9488147 C25.7734021,20.245365 28.4794364,22.1933041 29.2093617,22.6068053 C29.5811172,22.8135559 30.0837899,22.670325 30.2875762,22.3004159 C30.501243,21.9130699 30.3641504,21.4260851 29.9825143,21.2093707 C29.3538647,20.8581438 26.2501384,19.5204925 24.3296074,18.9488147 L24.3296074,18.9488147 Z" id="Fill-5"></path>
                <path d="M36.0998069,34.8511721 L1.26717992,34.8511721 C0.829965795,34.8511721 0.475501237,34.4924723 0.475501237,34.052816 C0.475501237,33.6144052 0.829965795,33.2544599 1.26717992,33.2544599 L36.0998069,33.2544599 C36.5357859,33.2544599 36.8927206,33.6144052 36.8927206,34.052816 C36.8927206,34.4924723 36.5357859,34.8511721 36.0998069,34.8511721" id="Fill-6"></path>
            </g>
        </g>
    </g>
</svg>
