<svg width="17px" height="22px" class="icon" xmlns="http://www.w3.org/2000/svg" viewBox="0 0 23.62 29.32"><path d="M10.21,23.89c-.48-.87-.58-1.36.1-2.13a.48.48,0,0,0-.68-.68,2.51,2.51,0,0,0-.19,3.29l.1.19c.39.77.87,1.45-.39,3.29-.19.19-.1.48.1.68a.36.36,0,0,0,.29.1.5.5,0,0,0,.39-.19c1.55-2.32.87-3.49.39-4.26l-.1-.29h0m2.81.35c-.48-.87-.58-1.36.1-2.13a.48.48,0,0,0-.68-.68,2.51,2.51,0,0,0-.19,3.29l.1.19c.39.77.87,1.45-.39,3.29-.19.19-.1.48.1.68a.34.34,0,0,0,.19.1.5.5,0,0,0,.39-.19c1.55-2.32.87-3.49.39-4.26v-.29h0m2.81.32c-.48-.87-.58-1.36.1-2.13a.48.48,0,0,0-.68-.68C14.08,23,14.56,24.08,15,25l.1.19c.39.77.87,1.45-.39,3.29-.19.19-.1.48.1.68a.36.36,0,0,0,.29.1.5.5,0,0,0,.39-.19c1.55-2.32.87-3.49.39-4.26l-.1-.29h0M26.47,12.62H24.34V8.26a.54.54,0,0,0-.58-.48H20c-.29,0-.58.1-.58.48v4.36h-.87V8.26A.54.54,0,0,0,18,7.78H14.18a.46.46,0,0,0-.48.48v4.36H5.46c-.87,0-1.26.19-1.26,1.07V27c0,1,.39,1.35,1.26,1.35H7.59c.19,0,.39-.29.39-.68s-.1-.68-.39-.68H5.66V14.07H26.28V26.95H18a.21.21,0,0,0-.19.19.72.72,0,0,0-.1.48c0,.29.1.68.29.68h8.52c.77,0,1.26-.48,1.26-1.55V13.49c-.1-.87-.39-.87-1.36-.87h0m-5.71,0V9.23A.21.21,0,0,1,21,9h1.94a.21.21,0,0,1,.19.19v3.39H20.76m-5.81,0V9.23A.21.21,0,0,1,15.14,9h1.94a.21.21,0,0,1,.19.19v3.39H15m1.26-8.13c.39.58.48.87-.29,1.94-.19.19-.1.48.1.68a.36.36,0,0,0,.29.1A.5.5,0,0,0,16.69,7c1.16-1.55.87-2.23.39-3.1L17,3.71a2.11,2.11,0,0,1,.19-2.9.47.47,0,0,0,0-.68.47.47,0,0,0-.68,0,3,3,0,0,0-.29,4.07v.29h0m5.52,0c.39.58.48.87-.29,1.94-.19.19-.1.48.1.68a.36.36,0,0,0,.29.1A.5.5,0,0,0,22.21,7c1.16-1.55.87-2.23.39-3.1l-.1-.19A2,2,0,0,1,22.7.81a.47.47,0,0,0,0-.68.47.47,0,0,0-.68,0,3.13,3.13,0,0,0-.39,4.16l.1.19h0" transform="translate(-4.2 0.02)"/></svg>
