<?xml version="1.0" encoding="UTF-8"?>
<svg width="54px" height="41px" viewBox="0 0 54 41" version="1.1" xmlns="http://www.w3.org/2000/svg" xmlns:xlink="http://www.w3.org/1999/xlink">
    <!-- Generator: Sketch 43.2 (39069) - http://www.bohemiancoding.com/sketch -->
    <title>Icon: Oil</title>
    <desc>Created with Sketch.</desc>
    <defs></defs>
    <g id="working" stroke="none" stroke-width="1" fill="none" fill-rule="evenodd">
        <g id="icons-&amp;-widgets" transform="translate(-652.000000, -229.000000)">
            <g id="Icon:-Oil" transform="translate(652.000000, 229.000000)">
                <path d="M21.7895762,38.035422 L22.5359821,29.2778868 L23.3743623,29.2778868 C24.0553251,29.2778868 24.6248576,28.750582 24.6779196,28.0665109 L26.1919563,9.32581303 L30.1804526,10.6458565 L31.5777529,28.0647294 C31.6308149,28.750582 32.2003474,29.2778868 32.8830789,29.2778868 L33.7179216,29.2778868 L34.4660963,38.035422 L21.7895762,38.035422 M42.1653975,24.4020987 L41.648927,24.231081 L44.9918352,13.9913917 L44.9953727,13.9824845 L44.9971414,13.9753588 L48.3117499,3.82117841 L48.8016893,3.98328901 L48.957338,4.13649243 L50.7207663,11.6612745 C50.7720596,11.8750467 50.7508347,12.3685043 50.6836228,12.5751508 L48.7132526,18.5999645 C48.644272,18.8119552 48.3736556,19.2181224 48.2020883,19.3624187 L42.3741082,24.3486557 L42.1671663,24.394973 L42.1653975,24.4020987 M8.85482084,0.69475971 C8.30297568,0.69475971 7.79181141,1.04570244 7.60963176,1.59972877 C7.41507097,2.20007242 7.68391861,2.81644898 8.20038908,3.12820013 L8.20038908,28.3568848 C7.81303623,28.5849085 7.54595732,28.9892943 7.54595732,29.4720632 L7.54595732,39.3572469 L7.54772605,39.382187 L1.33946799,39.382187 C0.976877419,39.382187 0.685036228,39.6743423 0.685036228,40.041318 C0.685036228,40.4065122 0.978646154,40.700449 1.34123672,40.700449 L16.4939851,40.700449 C16.8565757,40.700449 17.1501856,40.4065122 17.1501856,40.041318 C17.1501856,39.6761238 16.8565757,39.382187 16.4939851,39.382187 L10.1601469,39.382187 L10.1636844,39.3572469 L10.1636844,29.4720632 C10.1636844,28.9910757 9.89483672,28.5849085 9.51102134,28.3568848 L9.51102134,3.6180948 L23.6449787,8.29970639 L22.1645479,26.6395813 L21.3332427,26.6395813 C20.6540486,26.6395813 20.0862849,27.1651047 20.0279166,27.8473943 L19.0586501,39.243235 C19.0268129,39.6119921 19.1488556,39.9754049 19.4000159,40.2497459 C19.64587,40.520524 19.9960794,40.6772903 20.3657449,40.6772903 L35.9164586,40.6772903 C36.6416397,40.6772903 37.2270908,40.0858539 37.2270908,39.3572469 L37.1740288,38.9831455 L36.2259871,27.8473943 C36.1676189,27.1651047 35.5998551,26.6395813 34.9188923,26.6395813 L34.0911246,26.6395813 L32.8671603,11.3548677 L42.0981856,14.4118104 L39.0135127,23.8551982 C38.8348705,24.4038802 38.8808576,24.9917538 39.1390928,25.50837 C39.3990968,26.0267676 39.8412804,26.4115576 40.3895881,26.5897011 L41.3482422,26.9067966 C41.60294,26.990524 41.8753251,27.0332785 42.1671663,27.0332785 C42.8622789,27.0332785 43.5644665,26.7874404 44.047331,26.3777103 L49.896536,21.3772219 C50.4306938,20.919393 50.9790015,20.0999329 51.201862,19.4247689 L53.174001,13.3928295 C53.3915553,12.7141027 53.4286988,11.7307505 53.2695127,11.0502423 L51.5060844,3.53258591 C51.2973737,2.63474259 50.5138243,1.77609085 49.6436069,1.48571692 L48.6902591,1.17396577 C48.4762422,1.10092693 48.2551504,1.06529822 48.0358273,1.06529822 C47.132004,1.06529822 46.2582491,1.65851613 45.9664079,2.55457801 L42.9153409,11.9035497 L9.26516725,0.760672811 C9.12897469,0.716136932 8.9910134,0.69475971 8.85482084,0.69475971" id="Fill-1" fill="#4A4A4A"></path>
                <path d="M53.2695127,11.0502423 L51.5060844,3.53258591 C51.2973737,2.63474259 50.5155931,1.77609085 49.6436069,1.48571692 L48.6902591,1.17396577 C47.5883375,0.798082949 46.3289985,1.44118104 45.9664079,2.55457801 L42.9153409,11.9035497 L9.26516725,0.760672811 C8.57536079,0.534430546 7.83602978,0.908531929 7.60963176,1.59972877 C7.41507097,2.20007242 7.68391861,2.81644898 8.20038908,3.12820013 L8.20038908,28.3568848 C7.81303623,28.5849085 7.54595732,28.9892943 7.54595732,29.4720632 L7.54595732,39.3572469 L7.54772605,39.382187 L1.33946799,39.382187 C0.978646154,39.382187 0.685036228,39.6743423 0.685036228,40.041318 C0.685036228,40.4065122 0.978646154,40.700449 1.34123672,40.700449 L16.4939851,40.700449 C16.8565757,40.700449 17.1501856,40.4065122 17.1501856,40.041318 C17.1501856,39.6761238 16.8565757,39.382187 16.4939851,39.382187 L10.1601469,39.382187 L10.1636844,39.3572469 L10.1636844,29.4720632 C10.1636844,28.9910757 9.89483672,28.5849085 9.51102134,28.3568848 L9.51102134,3.6180948 L23.6467474,8.29970639 L22.1645479,26.6395813 L21.3332427,26.6395813 C20.6540486,26.6395813 20.0862849,27.1651047 20.0279166,27.8473943 L19.0586501,39.243235 C19.0268129,39.6119921 19.1488556,39.9754049 19.3982471,40.2497459 C19.64587,40.520524 19.9960794,40.6772903 20.3657449,40.6772903 L35.9164586,40.6772903 C36.6416397,40.6772903 37.2270908,40.0858539 37.2270908,39.3572469 L37.1740288,38.9831455 L36.2259871,27.8473943 C36.1676189,27.1651047 35.5998551,26.6395813 34.9188923,26.6395813 L34.0911246,26.6395813 L32.8671603,11.3548677 L42.0981856,14.4118104 L39.0135127,23.8551982 C38.8348705,24.4038802 38.8808576,24.9917538 39.1390928,25.50837 C39.3990968,26.0267676 39.8412804,26.4115576 40.3895881,26.5897011 L41.3482422,26.9067966 C41.60294,26.990524 41.8753251,27.0332785 42.1671663,27.0332785 C42.8622789,27.0332785 43.5644665,26.7874404 44.047331,26.3777103 L49.896536,21.3772219 C50.4306938,20.919393 50.9790015,20.0999329 51.201862,19.4247689 L53.174001,13.3928295 C53.3915553,12.7141027 53.4286988,11.7307505 53.2695127,11.0502423 L53.2695127,11.0502423 Z M33.7179216,29.2778868 L34.4660963,38.035422 L21.7895762,38.035422 L22.5359821,29.2778868 L23.3743623,29.2778868 C24.0553251,29.2778868 24.6248576,28.750582 24.6779196,28.0665109 L26.1919563,9.32581303 L30.1804526,10.6458565 L31.5777529,28.0647294 C31.6308149,28.750582 32.2003474,29.2778868 32.8830789,29.2778868 L33.7179216,29.2778868 L33.7179216,29.2778868 Z M50.6836228,12.5751508 L48.7132526,18.5999645 C48.644272,18.8101738 48.3736556,19.2181224 48.2020883,19.3624187 L42.3741082,24.3486557 L42.1671663,24.394973 L42.1653975,24.4020987 L41.648927,24.231081 L44.9918352,13.9913917 L44.9953727,13.9824845 L44.9971414,13.9753588 L48.3117499,3.82117841 L48.8016893,3.98328901 L48.957338,4.13649243 L50.7207663,11.6612745 C50.7720596,11.8750467 50.7508347,12.3685043 50.6836228,12.5751508 L50.6836228,12.5751508 Z" id="Fill-2" fill="#5C737F"></path>
            </g>
        </g>
    </g>
</svg>