<?xml version="1.0" encoding="UTF-8"?>
<svg width="54px" height="40px" viewBox="0 0 54 40" version="1.1" xmlns="http://www.w3.org/2000/svg" xmlns:xlink="http://www.w3.org/1999/xlink">
    <!-- Generator: Sketch 43.2 (39069) - http://www.bohemiancoding.com/sketch -->
    <title>Icon: Coal</title>
    <desc>Created with Sketch.</desc>
    <defs></defs>
    <g id="working" stroke="none" stroke-width="1" fill="none" fill-rule="evenodd">
        <g id="icons-&amp;-widgets" transform="translate(-548.000000, -230.000000)" fill="#5C737F">
            <g id="Icon:-Coal" transform="translate(548.000000, 230.000000)">
                <path d="M19.6800612,32.7964977 C17.7101633,32.7964977 16.1140408,34.398341 16.1140408,36.3752995 C16.1140408,38.3522581 17.7101633,39.9541014 19.6800612,39.9541014 C21.6479388,39.9541014 23.2460816,38.3522581 23.2460816,36.3752995 C23.2460816,34.398341 21.6479388,32.7964977 19.6800612,32.7964977 L19.6800612,32.7964977 Z M19.6800612,37.8940092 C18.8436122,37.8940092 18.1667755,37.2147465 18.1667755,36.3752995 C18.1667755,35.5378802 18.8436122,34.8586175 19.6800612,34.8586175 C20.5144898,34.8586175 21.1913265,35.5378802 21.1913265,36.3752995 C21.1913265,37.2147465 20.5144898,37.8940092 19.6800612,37.8940092 L19.6800612,37.8940092 Z" id="Fill-1"></path>
                <path d="M34.3684286,32.7964977 C32.3985306,32.7964977 30.8003878,34.398341 30.8003878,36.3752995 C30.8003878,38.3522581 32.3985306,39.9541014 34.3684286,39.9541014 C36.3363061,39.9541014 37.934449,38.3522581 37.934449,36.3752995 C37.934449,34.398341 36.3383265,32.7964977 34.3684286,32.7964977 L34.3684286,32.7964977 Z M34.3684286,37.8940092 C33.534,37.8940092 32.8551429,37.2147465 32.8551429,36.3752995 C32.8551429,35.5378802 33.5319796,34.8586175 34.3684286,34.8586175 C35.2028571,34.8586175 35.8817143,35.5378802 35.8817143,36.3752995 C35.8796939,37.2147465 35.2028571,37.8940092 34.3684286,37.8940092 L34.3684286,37.8940092 Z" id="Fill-2"></path>
                <path d="M53.0289184,9.77253456 C52.3500612,8.77695853 51.156,8.31870968 49.7376735,8.31870968 L46.5979592,8.31870968 C45.3897551,7.25013825 44.4320816,6.55465438 43.2703469,5.13124424 C42.3955102,4.06064516 39.8740408,4.34046083 38.572898,3.6835023 C34.4775306,1.61327189 31.7196735,-0.710414747 27.0262653,0.542672811 C25.1351633,1.0475576 23.9512041,1.5037788 21.9914082,1.29898618 C19.5588367,1.04552995 16.7605714,1.5524424 14.9684694,3.58009217 C14.5381224,4.06672811 8.58397959,7.25013825 8.82642857,8.31870968 L4.24818367,8.31870968 C2.844,8.31870968 1.64993878,8.77695853 0.971081633,9.77253456 C0.326571429,10.7174194 0.21544898,11.8792627 0.666,13.081659 L8.21020408,33.2141935 C9.04059184,35.4263594 11.6085306,37.1579724 14.075449,37.1579724 L14.13,37.1579724 L14.1017143,34.4875576 L14.0734286,34.4875576 C12.7399592,34.4875576 11.2024286,33.402765 10.7700612,32.2510599 L3.22585714,12.0901382 C3.14908163,11.883318 3.04604082,11.5751152 3.22989796,11.3054378 C3.39355102,11.0641475 3.78753061,10.9891244 4.26434694,10.9891244 L49.7215102,10.9891244 C50.2144898,10.9891244 50.606449,11.043871 50.7721224,11.2851613 C50.9539592,11.5528111 50.8509184,11.8894009 50.7741429,12.0962212 L43.2279184,32.1902304 C42.7935306,33.3500461 41.2620612,34.3841475 39.8982857,34.3760369 L39.87,37.1579724 L39.924551,37.1579724 C42.3914694,37.1579724 44.9594082,35.3918894 45.7877755,33.1817512 L53.334,13.1059908 C53.784551,11.9056221 53.6734286,10.7174194 53.0289184,9.77253456" id="Fill-3"></path>
                <path d="M27.8505918,35.0208295 L25.7998776,35.0208295 C25.0442449,35.0208295 24.4320612,35.5987097 24.4320612,36.3570507 C24.4320612,37.1153917 25.0442449,37.6912442 25.7998776,37.6912442 L27.8505918,37.6912442 C28.6062245,37.6912442 29.2184082,37.1153917 29.2184082,36.3570507 C29.2184082,35.5987097 28.6062245,35.0208295 27.8505918,35.0208295" id="Fill-4"></path>
            </g>
        </g>
    </g>
</svg>