<?xml version="1.0" encoding="UTF-8"?>
<svg width="63px" height="36px" viewBox="0 0 63 36" version="1.1" xmlns="http://www.w3.org/2000/svg" xmlns:xlink="http://www.w3.org/1999/xlink">
    <!-- Generator: Sketch 43.2 (39069) - http://www.bohemiancoding.com/sketch -->
    <title>Icon: hard mins</title>
    <desc>Created with Sketch.</desc>
    <defs></defs>
    <g id="working" stroke="none" stroke-width="1" fill="none" fill-rule="evenodd">
        <g id="icons-&amp;-widgets" transform="translate(-754.000000, -235.000000)" fill="#5C737F">
            <g id="Icon:-hard-mins" transform="translate(754.000000, 235.000000)">
                <path d="M51.3610813,35.3245698 L17.6849748,35.3245698 C16.5327433,35.3245698 15.5959018,34.846874 15.1086606,34.0119447 C14.6256017,33.1770154 14.6778808,32.1323154 15.2529509,31.1436926 L32.0910042,2.17663154 C32.6660743,1.18593188 33.5527279,0.61892767 34.5230281,0.61892767 C35.491237,0.61892767 36.3778906,1.18593188 36.9529607,2.17663154 L53.791014,31.1436926 C54.3660842,32.1343923 54.4183633,33.1790924 53.9353043,34.0119447 C53.4501543,34.844797 52.5133128,35.3245698 51.3610813,35.3245698 L51.3610813,35.3245698 Z M17.7288892,32.5082412 L51.3171669,32.5082412 L34.5230281,3.61802685 L17.7288892,32.5082412 L17.7288892,32.5082412 Z" id="Fill-1"></path>
                <path d="M21.5076227,35.3245698 L3.43160028,35.3245698 C2.2772777,35.3245698 1.34043619,34.846874 0.855286115,34.0119447 C0.372227209,33.1770154 0.422415147,32.1323154 0.997485273,31.1436926 L11.9489116,12.3037836 C12.5239818,11.313084 13.4127265,10.7460797 14.3809355,10.7460797 C15.3491445,10.7460797 16.235798,11.313084 16.8108682,12.3037836 L22.7330449,22.4932438 L20.2801094,23.8972543 L14.3809355,13.7493328 L3.47342356,32.5103182 L21.5076227,32.5103182 L21.5076227,35.3245698" id="Fill-2"></path>
                <path d="M59.9934067,35.3245698 L48.2368822,35.3245698 L48.2368822,32.5103182 L59.9494923,32.5103182 L53.1636648,20.8400008 L50.3531403,25.6751136 L47.9022959,24.2669493 L50.7337321,19.3944516 C51.3088022,18.403752 52.1954558,17.8367477 53.1636648,17.8367477 C54.1339649,17.8367477 55.0206185,18.403752 55.5935975,19.3944516 L62.4254306,31.1436926 C63.0005007,32.1343923 63.0527798,33.1790924 62.5676297,34.0119447 C62.0824797,34.844797 61.1456381,35.3245698 59.9934067,35.3245698" id="Fill-3"></path>
                <path d="M29.7969972,21.1930803 C29.3620351,21.1930803 28.9270729,21.0788487 28.5464811,20.83377 L24.4310701,18.1815195 L25.9722581,15.8221174 L29.7028948,18.2251352 L33.2055947,14.013104 C33.9835077,13.0805586 35.3824965,12.9434807 36.3277027,13.709871 L39.7404825,16.4805069 L42.0344895,13.9944115 L44.1235624,15.8927333 L41.467784,18.773447 C40.6564123,19.649915 39.2929734,19.7496081 38.3624053,18.9956794 L35.006087,16.2707361 L31.5953983,20.3685358 C31.145798,20.9064628 30.4724432,21.1930803 29.7969972,21.1930803" id="Fill-4"></path>
            </g>
        </g>
    </g>
</svg>