<?xml version="1.0" encoding="UTF-8"?>
<svg width="57px" height="41px" viewBox="0 0 57 41" version="1.1" xmlns="http://www.w3.org/2000/svg" xmlns:xlink="http://www.w3.org/1999/xlink">
    <!-- Generator: Sketch 43.2 (39069) - http://www.bohemiancoding.com/sketch -->
    <title>Imported Layers Copy 4</title>
    <desc>Created with Sketch.</desc>
    <defs></defs>
    <g id="working" stroke="none" stroke-width="1" fill="none" fill-rule="evenodd">
        <g id="icons-&amp;-widgets" transform="translate(-630.000000, -370.000000)" fill="#5C737F">
            <g id="Group" transform="translate(554.000000, 359.000000)">
                <g id="Imported-Layers-Copy-4" transform="translate(76.000000, 11.000000)">
                    <path d="M23.1487062,40.8803765 L5.20916332,40.8803765 C3.79446191,40.8803765 2.47854263,40.2519907 1.58950334,39.157611 C0.700464046,38.0597011 0.36178241,36.6405378 0.654600908,35.256677 L3.99555413,24.1469581 C4.3906827,22.2653311 6.16523336,20.8285165 8.18321143,20.8285165 L20.1676022,20.8285165 C22.1891082,20.8285165 23.9636589,22.2653311 24.383483,24.2422751 L27.6715172,35.1578298 C27.9925592,36.6370075 27.6503496,38.0561708 26.7648383,39.1540808 C25.875799,40.2519907 24.5598797,40.8803765 23.1487062,40.8803765 L23.1487062,40.8803765 Z M8.18321143,23.2996964 C7.32239561,23.2996964 6.5674178,23.9104309 6.38396525,24.7612228 L3.04653996,35.8674115 C2.93364608,36.4181316 3.0924031,37.0888804 3.50869928,37.6007677 C3.92852339,38.1161852 4.54591178,38.4127268 5.20916332,38.4127268 L23.1487062,38.4127268 C23.8084298,38.4127268 24.4293461,38.1161852 24.8456423,37.6007677 C25.2584106,37.0853501 25.4206955,36.4181316 25.2831061,35.7720945 L21.9985998,24.8565398 C21.7904517,23.9104309 21.031946,23.2996964 20.1676022,23.2996964 L8.18321143,23.2996964 L8.18321143,23.2996964 Z" ></path>
                    <path d="M37.2745528,20.1612979 L19.3350099,20.1612979 C17.9238364,20.1612979 16.6043892,19.5329122 15.7153499,18.4385325 C14.8298385,17.3370923 14.487629,15.917929 14.7804475,14.5375985 L18.1214007,3.42787958 C18.5165293,1.54272232 20.2910799,0.109437968 22.3125859,0.109437968 L34.2934488,0.109437968 C36.3149548,0.109437968 38.0895055,1.54272232 38.5128575,3.52319652 L41.8008917,14.4387513 C42.1219337,15.917929 41.7761962,17.3370923 40.8906848,18.4385325 C40.0016455,19.5329122 38.6821983,20.1612979 37.2745528,20.1612979 L37.2745528,20.1612979 Z M22.3125859,2.57708763 C21.4341304,2.57708763 20.6932644,3.17723133 20.5133397,4.03861405 L17.1688586,15.1483329 C17.0594926,15.6955228 17.2182497,16.3662716 17.6345458,16.8781589 C18.050842,17.3971067 18.6717583,17.6936483 19.3350099,17.6936483 L37.2745528,17.6936483 C37.9342764,17.6936483 38.5551927,17.3971067 38.9714889,16.8781589 C39.3877851,16.3662716 39.5465421,15.6955228 39.4089527,15.0494857 L36.1244464,4.13746124 C35.9127704,3.17723133 35.1719043,2.57708763 34.2934488,2.57708763 L22.3125859,2.57708763 L22.3125859,2.57708763 Z" id="Fill-2"></path>
                    <path d="M51.3968714,40.8803765 L33.4608564,40.8803765 C32.049683,40.8803765 30.7302357,40.2519907 29.8411965,39.157611 C28.9556851,38.0597011 28.6134755,36.6370075 28.906294,35.256677 L32.2472472,24.1469581 C32.6423758,22.2653311 34.4169265,20.8285165 36.4384325,20.8285165 L48.4192953,20.8285165 C50.4408014,20.8285165 52.215352,22.2653311 52.6351761,24.2422751 L55.9267383,35.1578298 C56.2477802,36.6370075 55.9020427,38.0597011 55.0165314,39.157611 C54.1274921,40.2519907 52.8080449,40.8803765 51.3968714,40.8803765 L51.3968714,40.8803765 Z M36.4384325,23.2996964 C35.5740887,23.2996964 34.815583,23.9104309 34.6356584,24.7612228 L31.2947051,35.8674115 C31.1853392,36.4181316 31.3440962,37.0853501 31.7603924,37.6007677 C32.1766886,38.1161852 32.7976049,38.4127268 33.4608564,38.4127268 L51.3968714,38.4127268 C52.0601229,38.4127268 52.6810393,38.1161852 53.0973354,37.6007677 C53.5136316,37.0853501 53.6723886,36.4181316 53.5347992,35.7685643 L50.246765,24.8565398 C50.0421448,23.9104309 49.2836391,23.2996964 48.4192953,23.2996964 L36.4384325,23.2996964 L36.4384325,23.2996964 Z" ></path>
                </g>
            </g>
        </g>
    </g>
</svg>