<?xml version="1.0" encoding="UTF-8"?>
<svg width="52px" height="49px" viewBox="0 0 52 49" version="1.1" xmlns="http://www.w3.org/2000/svg" xmlns:xlink="http://www.w3.org/1999/xlink">
    <!-- Generator: Sketch 43.2 (39069) - http://www.bohemiancoding.com/sketch -->
    <title>Icon: Renewables</title>
    <desc>Created with Sketch.</desc>
    <defs></defs>
    <g id="working" stroke="none" stroke-width="1" fill="none" fill-rule="evenodd">
        <g id="icons-&amp;-widgets" transform="translate(-857.000000, -221.000000)" fill="#5C737F">
            <g id="Icon:-Renewables" transform="translate(857.000000, 221.000000)">
                <path d="M25.1108,47.7907889 C24.4972,47.7907889 23.9997333,47.2873784 23.9997333,46.6703509 L23.9997333,24.2615906 C23.9997333,23.6463111 24.4972,23.1411526 25.1108,23.1411526 C25.7226667,23.1411526 26.2218667,23.6463111 26.2218667,24.2615906 L26.2218667,46.6703509 C26.2218667,47.2873784 25.7226667,47.7907889 25.1108,47.7907889" id="Fill-1"></path>
                <path d="M25.1108,25.3820287 C23.2717333,25.3820287 21.7776,23.875293 21.7776,22.0224626 C21.7776,20.1678842 23.2717333,18.6611485 25.1108,18.6611485 C26.9481333,18.6611485 28.444,20.1678842 28.444,22.0224626 C28.444,23.875293 26.9481333,25.3820287 25.1108,25.3820287 L25.1108,25.3820287 Z M25.1108,20.9020246 C24.4972,20.9020246 23.9997333,21.4054351 23.9997333,22.0224626 C23.9997333,22.6377421 24.4972,23.1411526 25.1108,23.1411526 C25.7226667,23.1411526 26.2218667,22.6377421 26.2218667,22.0224626 C26.2218667,21.4054351 25.7226667,20.9020246 25.1108,20.9020246 L25.1108,20.9020246 Z" id="Fill-2"></path>
                <path d="M25.1108,16.4202725 C22.2369333,16.4202725 21.7776,4.21781111 21.7776,4.09545439 C21.7776,2.24087602 23.2717333,0.734140351 25.1108,0.734140351 C26.9481333,0.734140351 28.444,2.24087602 28.444,4.09545439 C28.444,4.21781111 27.9829333,16.4202725 25.1108,16.4202725 L25.1108,16.4202725 Z M25.1108,2.97501637 C24.4972,2.97501637 23.9997333,3.4784269 23.9997333,4.09545439 C23.9997333,5.28056667 24.5232,9.97032515 25.1108,12.6394497 C25.6966667,9.97556901 26.2218667,5.28056667 26.2218667,4.09545439 C26.2218667,3.4784269 25.7226667,2.97501637 25.1108,2.97501637 L25.1108,2.97501637 Z" id="Fill-3"></path>
                <path d="M9.5836,34.111307 C8.37546667,34.111307 7.25746667,33.4505807 6.66813333,32.3860772 C5.77546667,30.7657246 6.35093333,28.7136275 7.95773333,27.8116836 C8.87813333,27.2960374 16.2898667,23.987162 18.7408,23.987162 C19.6456,23.987162 20.0650667,24.3996789 20.2574667,24.7457737 C21.6510667,27.2698181 11.3134667,33.625376 11.2042667,33.6813105 C10.7068,33.960983 10.1486667,34.111307 9.5836,34.111307 L9.5836,34.111307 Z M16.9589333,26.6055959 C14.2324,27.4131503 9.91813333,29.2729725 9.03933333,29.7676433 C8.5072,30.0682912 8.31306667,30.7517409 8.6112,31.2971023 C8.90066667,31.8162444 9.59746667,32.0277468 10.1244,31.7236029 C11.1470667,31.1485263 14.9257333,28.4199713 16.9589333,26.6055959 L16.9589333,26.6055959 Z" id="Fill-4"></path>
                <path d="M41.5376,34.111307 L41.5376,34.111307 C40.9742667,34.111307 40.4144,33.9697228 39.9186667,33.6900503 C39.8094667,33.6341158 29.4701333,27.2785579 30.8637333,24.7527655 C31.0544,24.4101667 31.4738667,23.9959018 32.3786667,23.9959018 C34.8313333,23.9959018 42.2430667,27.3082731 43.1634667,27.8169275 C44.772,28.7171234 45.3474667,30.7692205 44.4530667,32.394817 C43.862,33.4505807 42.744,34.111307 41.5376,34.111307 L41.5376,34.111307 Z M34.1449333,26.5933602 C36.1712,28.4129795 39.9689333,31.1467784 40.9933333,31.7270988 C41.5150667,32.0172591 42.2205333,31.8162444 42.5065333,31.2971023 C42.8064,30.7534889 42.614,30.0700392 42.0784,29.7658953 C41.1961333,29.2729725 36.8402667,27.3956708 34.1449333,26.5933602 L34.1449333,26.5933602 Z" id="Fill-5"></path>
                <path d="M50.6636,48.9112269 L1.7784,48.9112269 C1.1648,48.9112269 0.667333333,48.4078164 0.667333333,47.7907889 C0.667333333,47.1755094 1.1648,46.6703509 1.7784,46.6703509 L50.6636,46.6703509 C51.2754667,46.6703509 51.7764,47.1755094 51.7764,47.7907889 C51.7764,48.4078164 51.2754667,48.9112269 50.6636,48.9112269" id="Fill-6"></path>
            </g>
        </g>
    </g>
</svg>