<?xml version="1.0" encoding="UTF-8" standalone="no"?>
<svg width="13px" height="13px" viewBox="0 0 13 13" version="1.1" xmlns="http://www.w3.org/2000/svg" xmlns:xlink="http://www.w3.org/1999/xlink">
    <!-- Generator: Sketch 39.1 (31720) - http://www.bohemiancoding.com/sketch -->
    <title>Fill 1</title>
    <desc>Created with Sketch.</desc>
    <defs></defs>
    <g  stroke="none" stroke-width="1" fill="none" fill-rule="evenodd">
        <g  fill="#768D99">
            <path d="M9.454,7.5 L7.5,7.5 L7.5,9.454 L5.5,9.454 L5.5,7.5 L3.545,7.5 L3.545,5.5 L5.5,5.5 L5.5,3.545 L7.5,3.545 L7.5,5.5 L9.454,5.5 L9.454,7.5 Z M6.411,-1.77635684e-15 C2.878,-1.77635684e-15 -1.11199938e-12,2.87 -1.11199938e-12,6.411 C-1.11199938e-12,9.945 2.87,12.823 6.411,12.823 C9.945,12.823 12.823,9.952 12.823,6.411 C12.823,2.878 9.952,-1.77635684e-15 6.411,-1.77635684e-15 L6.411,-1.77635684e-15 Z" ></path>
        </g>
    </g>
</svg>
