<svg xmlns="http://www.w3.org/2000/svg" version="1.2" id="root" viewBox="666.0472995461677 356.5239132694469 79.33840089990417 84.26146163638191"><g id="counties"><path id="county-13241" class="county feature" d="M700.641 362.334l-3.091-.245-1.693-1.152-.2-1.032 1.33-2.338 1.002-.146 5.61-.893.005-.004-.128 1.2-1.59 1.372z" vector-effect="non-scaling-stroke" fill="inherit" stroke="inherit" stroke-width="inherit"><title>Rabun County</title></path><path id="county-13281" class="county feature" d="M696.987 357.567l-1.33 2.338.2 1.032-.389.48-1.47.333-.864-2.174-1.96-1.16z" vector-effect="non-scaling-stroke" fill="inherit" stroke="inherit" stroke-width="inherit"><title>Towns County</title></path><path id="county-13213" class="county feature" d="M681.203 362.16l.62.532-.911 1.937.36 2.686-1.022-.626-3.014.139.898-4.708-.142-2.084.545-.07 2.324-.285z" vector-effect="non-scaling-stroke" fill="inherit" stroke="inherit" stroke-width="inherit"><title>Murray County</title></path><path id="county-13111" class="county feature" d="M685.374 359.128l2.882-.342-.643.779 1.643 2.629-.616 2.984-.362.904-.154-.264-2.224-3.319-1.695-.688-3.002.35-.342-2.48z" vector-effect="non-scaling-stroke" fill="inherit" stroke="inherit" stroke-width="inherit"><title>Fannin County</title></path><path id="county-13313" class="county feature" d="M677.236 366.828l-2.045.459-.216-1.822-1.525-.73 1.147-1.113.87-3.29 2.525-.296.142 2.084z" vector-effect="non-scaling-stroke" fill="inherit" stroke="inherit" stroke-width="inherit"><title>Whitfield County</title></path><path id="county-13047" class="county feature" d="M673.45 364.735l-1.996-1.414-.288-2.446 4.3-.544-.87 3.29z" vector-effect="non-scaling-stroke" fill="inherit" stroke="inherit" stroke-width="inherit"><title>Catoosa County</title></path><path id="county-13291" class="county feature" d="M690.142 358.554l1.031-.138 1.961 1.16.864 2.174-.978 1.47-1.297-.191-1.235 2.03-1.848.12.616-2.985-1.643-2.63.643-.778z" vector-effect="non-scaling-stroke" fill="inherit" stroke="inherit" stroke-width="inherit"><title>Union County</title></path><path id="county-13083" class="county feature" d="M666.047 361.455l1.98-.188 1.649-.19-.977 2.98.151 1.358-.984 2.674-1.232-4.344z" vector-effect="non-scaling-stroke" fill="inherit" stroke="inherit" stroke-width="inherit"><title>Dade County</title></path><path id="county-13295" class="county feature" d="M673.45 364.735l1.525.73.216 1.822-.206.692-.582.063-6.361.694-.176-.647.984-2.674-.151-1.359.977-2.98 1.49-.2.288 2.445z" vector-effect="non-scaling-stroke" fill="inherit" stroke="inherit" stroke-width="inherit"><title>Walker County</title></path><path id="county-13123" class="county feature" d="M688.124 365.818l-2.126 1.31-4.643.827-.083-.64-.36-2.686.91-1.937-.619-.531 3.002-.35 1.695.688z" vector-effect="non-scaling-stroke" fill="inherit" stroke="inherit" stroke-width="inherit"><title>Gilmer County</title></path><path id="county-13137" class="county feature" d="M700.641 362.334l.29.512-1.328 4.088-2.232 1.233-.947-1.24.648-.915-.993-1.9.43-1.554-1.04-1.141.388-.48 1.693 1.152z" vector-effect="non-scaling-stroke" fill="inherit" stroke="inherit" stroke-width="inherit"><title>Habersham County</title></path><path id="county-13311" class="county feature" d="M696.424 366.927l-2.689.311-.811-2.231.096-1.787.978-1.47 1.47-.333 1.042 1.141-.431 1.555.993 1.899z" vector-effect="non-scaling-stroke" fill="inherit" stroke="inherit" stroke-width="inherit"><title>White County</title></path><path id="county-13187" class="county feature" d="M693.02 363.22l-.096 1.787.811 2.231-1.854 1.886-3.486-1.847-.117-1.195.362-.904 1.848-.118 1.235-2.031z" vector-effect="non-scaling-stroke" fill="inherit" stroke="inherit" stroke-width="inherit"><title>Lumpkin County</title></path><path id="county-13257" class="county feature" d="M704.851 365.178l-.97 1.247-3.298.76-.98-.251 1.327-4.088z" vector-effect="non-scaling-stroke" fill="inherit" stroke="inherit" stroke-width="inherit"><title>Stephens County</title></path><path id="county-13129" class="county feature" d="M681.272 367.315l.083.64.322 2.546-5.307 1.008-1.513-.044.128-3.486.206-.692 2.045-.46 3.014-.138z" vector-effect="non-scaling-stroke" fill="inherit" stroke="inherit" stroke-width="inherit"><title>Gordon County</title></path><path id="county-13085" class="county feature" d="M688.278 366.082l.117 1.195 3.486 1.847.54 1.539-4.57.554-.1-.86-1.753-3.229 2.126-1.31z" vector-effect="non-scaling-stroke" fill="inherit" stroke="inherit" stroke-width="inherit"><title>Dawson County</title></path><path id="county-13055" class="county feature" d="M674.403 368.042l-.78 2.96-2.2 1.496-.625 1.662-1.142.123-1.28-4.363-.334-1.184z" vector-effect="non-scaling-stroke" fill="inherit" stroke="inherit" stroke-width="inherit"><title>Chattooga County</title></path><path id="county-13115" class="county feature" d="M674.985 367.98l-.128 3.485 1.513.044.014 5.607-5.687.943-1.041-3.776 1.142-.123.625-1.662 2.2-1.497.78-2.959z" vector-effect="non-scaling-stroke" fill="inherit" stroke="inherit" stroke-width="inherit"><title>Floyd County</title></path><path id="county-13227" class="county feature" d="M685.998 367.128l1.753 3.23-4.92.594-1.154-.451-.322-2.546z" vector-effect="non-scaling-stroke" fill="inherit" stroke="inherit" stroke-width="inherit"><title>Pickens County</title></path><path id="county-13119" class="county feature" d="M705.747 365.868l-.373 4.235-.81.773-1.961-.225-.765.873-1.255-4.338 3.299-.761.97-1.247z" vector-effect="non-scaling-stroke" fill="inherit" stroke="inherit" stroke-width="inherit"><title>Franklin County</title></path><path id="county-13139" class="county feature" d="M696.424 366.927l.947 1.24-.663 1.32.921 1.24-2.593 3.52-.712.638-3.114-.917 1.793-2.341-.583-.964-.539-1.54 1.854-1.885z" vector-effect="non-scaling-stroke" fill="inherit" stroke="inherit" stroke-width="inherit"><title>Hall County</title></path><path id="county-13147" class="county feature" d="M706.722 365.957l1.953.196 1.802 2.942-2.934 1.89-1.502-.023-.667-.859.373-4.235z" vector-effect="non-scaling-stroke" fill="inherit" stroke="inherit" stroke-width="inherit"><title>Hart County</title></path><path id="county-13011" class="county feature" d="M701.838 371.524l-.66.59-1.342-1.049-2.207-.338-.92-1.24.662-1.32 2.232-1.233.98.252z" vector-effect="non-scaling-stroke" fill="inherit" stroke="inherit" stroke-width="inherit"><title>Banks County</title></path><path id="county-13015" class="county feature" d="M682.334 376.765l-1.202.118-2.824.273-1.924-.04-.014-5.607 5.307-1.008z" vector-effect="non-scaling-stroke" fill="inherit" stroke="inherit" stroke-width="inherit"><title>Bartow County</title></path><path id="county-13057" class="county feature" d="M687.75 370.357l.102.86.335 2.787-1.433.385-.745 2.02-3.675.356-.657-6.264 1.154.45z" vector-effect="non-scaling-stroke" fill="inherit" stroke="inherit" stroke-width="inherit"><title>Cherokee County</title></path><path id="county-13117" class="county feature" d="M692.42 370.663l.583.964-1.793 2.341-.254 2.254-2.592-.788-.177-1.43-.335-2.787z" vector-effect="non-scaling-stroke" fill="inherit" stroke="inherit" stroke-width="inherit"><title>Forsyth County</title></path><path id="county-13157" class="county feature" d="M701.179 372.114l1.035 2.84-2.516 1.75-.556-1.176-3.206-.246-.9-1.036 2.593-3.52 2.207.34z" vector-effect="non-scaling-stroke" fill="inherit" stroke="inherit" stroke-width="inherit"><title>Jackson County</title></path><path id="county-13105" class="county feature" d="M711.194 370.527l2.732 3.318.613 1.018-1.304-.354-2.009.532-3.18-.93-2.005-3.149 1.502.023 2.934-1.89z" vector-effect="non-scaling-stroke" fill="inherit" stroke="inherit" stroke-width="inherit"><title>Elbert County</title></path><path id="county-13195" class="county feature" d="M706.04 370.962l2.006 3.148-2.29.256-1.892 1.156-1.65-.569-1.035-2.84.659-.59.765-.872 1.96.225.81-.773z" vector-effect="non-scaling-stroke" fill="inherit" stroke="inherit" stroke-width="inherit"><title>Madison County</title></path><path id="county-13121" class="county feature" d="M688.187 374.004l.177 1.43 2.592.788-2.514 2.078-1.097.03.687 5.893-1.646.184.206 1.83-2.204 1.184-3.723.273.5-1.243 2.1-1.83 1.06-1.758 1.448-1.74 1.029-2.733-.793-1.981.745-2.02z" vector-effect="non-scaling-stroke" fill="inherit" stroke="inherit" stroke-width="inherit"><title>Fulton County</title></path><path id="county-13135" class="county feature" d="M695.036 374.246l-.487 2.388 1.247 1.265-2.451 3.04-.558.701-4.004-2.657-.34-.683 2.513-2.078.254-2.254 3.114.917z" vector-effect="non-scaling-stroke" fill="inherit" stroke="inherit" stroke-width="inherit"><title>Gwinnett County</title></path><path id="county-13013" class="county feature" d="M699.698 376.705l-1.523 1.332-2.379-.138-1.247-1.265.487-2.388.9 1.036 3.206.246z" vector-effect="non-scaling-stroke" fill="inherit" stroke="inherit" stroke-width="inherit"><title>Barrow County</title></path><path id="county-13233" class="county feature" d="M676.384 377.116l1.924.04-.569 2.55-.994 1.005-5.13.635-.317-1.144-.6-2.143z" vector-effect="non-scaling-stroke" fill="inherit" stroke="inherit" stroke-width="inherit"><title>Polk County</title></path><path id="county-13067" class="county feature" d="M686.01 376.409l.792 1.98-1.029 2.733-1.449 1.741-.834-1.05-1.541.15-.817-5.08 1.202-.118z" vector-effect="non-scaling-stroke" fill="inherit" stroke="inherit" stroke-width="inherit"><title>Cobb County</title></path><path id="county-13223" class="county feature" d="M681.132 376.883l.817 5.08-2.657.795-2.155-.34-.392-1.707.994-1.005.569-2.55z" vector-effect="non-scaling-stroke" fill="inherit" stroke="inherit" stroke-width="inherit"><title>Paulding County</title></path><path id="county-13221" class="county feature" d="M708.046 374.11l3.18.93-.963.727-1.707 3.258.703.806-.61.837-1.896.16-2.627-.838-.15-1.617-.112-2.851 1.891-1.156z" vector-effect="non-scaling-stroke" fill="inherit" stroke="inherit" stroke-width="inherit"><title>Oglethorpe County</title></path><path id="county-13059" class="county feature" d="M703.864 375.522l.112 2.851-4.278-1.668 2.516-1.752z" vector-effect="non-scaling-stroke" fill="inherit" stroke="inherit" stroke-width="inherit"><title>Clarke County</title></path><path id="county-13317" class="county feature" d="M713.235 374.509l1.165 2.753 2.277 3.306-2.501.948-.455.228-2.183-.759-1.126.588-1.153-1.742-.703-.806 1.707-3.258.963-.726z" vector-effect="non-scaling-stroke" fill="inherit" stroke="inherit" stroke-width="inherit"><title>Wilkes County</title></path><path id="county-13181" class="county feature" d="M714.539 374.863l3.64 1.764 2.13 2.39-2.833 1.226-.799.325-2.277-3.306-1.165-2.753z" vector-effect="non-scaling-stroke" fill="inherit" stroke="inherit" stroke-width="inherit"><title>Lincoln County</title></path><path id="county-13089" class="county feature" d="M688.442 378.3l.34.683 4.005 2.657-1.087 2.758-1.118-.457-1.493.163-1.057.119-.687-5.893z" vector-effect="non-scaling-stroke" fill="inherit" stroke="inherit" stroke-width="inherit"><title>DeKalb County</title></path><path id="county-13219" class="county feature" d="M703.976 378.373l.15 1.617-1.767 1.44-1.814-2.026-2.37-1.367 1.523-1.332z" vector-effect="non-scaling-stroke" fill="inherit" stroke="inherit" stroke-width="inherit"><title>Oconee County</title></path><path id="county-13297" class="county feature" d="M698.175 378.037l2.37 1.367-2.138 4.47-3.936-2.283-1.126-.653 2.451-3.04z" vector-effect="non-scaling-stroke" fill="inherit" stroke="inherit" stroke-width="inherit"><title>Walton County</title></path><path id="county-13143" class="county feature" d="M677.137 382.418l.013 1.842-4.276 1.652-1.26-4.566 5.13-.635z" vector-effect="non-scaling-stroke" fill="inherit" stroke="inherit" stroke-width="inherit"><title>Haralson County</title></path><path id="county-13211" class="county feature" d="M702.36 381.43l2.51 2.788-.04.956-3.77 1.434-2.503-1.412-.15-1.322 2.138-4.47z" vector-effect="non-scaling-stroke" fill="inherit" stroke="inherit" stroke-width="inherit"><title>Morgan County</title></path><path id="county-13045" class="county feature" d="M681.166 386.451l-.501 1.243-2.344 1.904-4.289.441-.276-1.005-.882-3.122 4.276-1.652-.013-1.842 2.155.34.388 3.881z" vector-effect="non-scaling-stroke" fill="inherit" stroke="inherit" stroke-width="inherit"><title>Carroll County</title></path><path id="county-13097" class="county feature" d="M684.324 382.863l-1.06 1.758-2.098 1.83-1.486.188-.388-3.88 2.657-.796 1.541-.15z" vector-effect="non-scaling-stroke" fill="inherit" stroke="inherit" stroke-width="inherit"><title>Douglas County</title></path><path id="county-13247" class="county feature" d="M693.004 385.913l-2.422-1.972 1.118.457 1.087-2.758.558-.702 1.126.653-.031 1.77z" vector-effect="non-scaling-stroke" fill="inherit" stroke="inherit" stroke-width="inherit"><title>Rockdale County</title></path><path id="county-13133" class="county feature" d="M708.648 380.668l.772.569-.762 1.578.302 2.07-2.027 2.446-2.103-2.157.04-.956-2.51-2.789 1.766-1.44 2.627.84z" vector-effect="non-scaling-stroke" fill="inherit" stroke="inherit" stroke-width="inherit"><title>Greene County</title></path><path id="county-13217" class="county feature" d="M698.407 383.874l.15 1.322.21.714-2.187 1.225-.413 1.365-1.119-1.297-2.044-1.29 1.436-2.553.03-1.769z" vector-effect="non-scaling-stroke" fill="inherit" stroke="inherit" stroke-width="inherit"><title>Newton County</title></path><path id="county-13265" class="county feature" d="M713.72 381.744l-2.23 3.279-2.53-.137-.302-2.07.762-1.58-.772-.568.611-.837 1.153 1.742 1.126-.588z" vector-effect="non-scaling-stroke" fill="inherit" stroke="inherit" stroke-width="inherit"><title>Taliaferro County</title></path><path id="county-13073" class="county feature" d="M720.31 379.018l2.05 1.54 1.47.765-3.553 4.138-2.695-3.309-.106-1.91z" vector-effect="non-scaling-stroke" fill="inherit" stroke="inherit" stroke-width="inherit"><title>Columbia County</title></path><path id="county-13189" class="county feature" d="M716.677 380.568l.799-.325.106 1.91 2.695 3.308-.794.919-.462.072-2.456-.511-2.39-4.425z" vector-effect="non-scaling-stroke" fill="inherit" stroke="inherit" stroke-width="inherit"><title>McDuffie County</title></path><path id="county-13063" class="county feature" d="M688.032 384.223l1.057-.12.586 1.164-1.024 4.476-.525.064-.149-2.076-1.385-1.494-.206-1.83z" vector-effect="non-scaling-stroke" fill="inherit" stroke="inherit" stroke-width="inherit"><title>Clayton County</title></path><path id="county-13151" class="county feature" d="M690.582 383.941l2.422 1.972 2.044 1.29-.458 1.368-1.943 1.705-.828-.606-3.168.073 1.024-4.476-.586-1.163z" vector-effect="non-scaling-stroke" fill="inherit" stroke="inherit" stroke-width="inherit"><title>Henry County</title></path><path id="county-13301" class="county feature" d="M719.02 386.452l-.638.799-2.1-.696-2.821 1.798-1.97-3.33 2.23-3.279.455-.228 2.389 4.425z" vector-effect="non-scaling-stroke" fill="inherit" stroke="inherit" stroke-width="inherit"><title>Warren County</title></path><path id="county-13113" class="county feature" d="M688.126 389.807l-.47 1.878-.992.102-1.58-1.707-.696-2.66 2.204-1.183 1.385 1.494z" vector-effect="non-scaling-stroke" fill="inherit" stroke="inherit" stroke-width="inherit"><title>Fayette County</title></path><path id="county-13245" class="county feature" d="M727.353 386.452l-3.637.867-1.444-1.05-1.352.755-1.437-.644.794-.92 3.553-4.137.277.203 1.465 1.062.021 1.76z" vector-effect="non-scaling-stroke" fill="inherit" stroke="inherit" stroke-width="inherit"><title>Richmond County</title></path><path id="county-13159" class="county feature" d="M701.06 386.608l.458 4.919-4.066 1.291-.21-.892-1.075-3.426.413-1.365 2.187-1.225-.21-.714z" vector-effect="non-scaling-stroke" fill="inherit" stroke="inherit" stroke-width="inherit"><title>Jasper County</title></path><path id="county-13077" class="county feature" d="M684.388 387.42l.696 2.66 1.58 1.707.005.687-5.398.6-.084.626-1.252-.49-1.614-3.612 2.344-1.904z" vector-effect="non-scaling-stroke" fill="inherit" stroke="inherit" stroke-width="inherit"><title>Coweta County</title></path><path id="county-13237" class="county feature" d="M706.933 387.331l.361.802-1.509 1.174-.123 1.376-2.376.353-1.768.49-.458-4.918 3.77-1.434z" vector-effect="non-scaling-stroke" fill="inherit" stroke="inherit" stroke-width="inherit"><title>Putnam County</title></path><path id="county-13141" class="county feature" d="M711.49 385.023l1.971 3.33.156.268-1.9 2.158-2.365 1.424-.88-1.212-2.81-.308.123-1.376 1.51-1.174-.362-.802 2.027-2.445z" vector-effect="non-scaling-stroke" fill="inherit" stroke="inherit" stroke-width="inherit"><title>Hancock County</title></path><path id="county-13035" class="county feature" d="M696.167 388.5l1.075 3.426-3.431.014-1.267.155.103-1.82 1.943-1.704.458-1.368z" vector-effect="non-scaling-stroke" fill="inherit" stroke="inherit" stroke-width="inherit"><title>Butts County</title></path><path id="county-13149" class="county feature" d="M678.321 389.598l1.614 3.612-4.385 2.307-1.518-5.478z" vector-effect="non-scaling-stroke" fill="inherit" stroke="inherit" stroke-width="inherit"><title>Heard County</title></path><path id="county-13255" class="county feature" d="M692.647 390.276l-.103 1.82-1.88.497-3.182.016-.64.55-.173-.685-.005-.687.991-.102.471-1.878.525-.064 3.168-.073z" vector-effect="non-scaling-stroke" fill="inherit" stroke="inherit" stroke-width="inherit"><title>Spalding County</title></path><path id="county-13125" class="county feature" d="M718.382 387.25l-3.142 3.267-1.623-1.896-.156-.268 2.82-1.798z" vector-effect="non-scaling-stroke" fill="inherit" stroke="inherit" stroke-width="inherit"><title>Glascock County</title></path><path id="county-13163" class="county feature" d="M720.92 387.024l.64.6-.445 3.256.625 2.283-.4 1.996-1.626 1.632-1.502-.926-.97-3.598-2.002-1.75 3.142-3.266.639-.8.462-.071z" vector-effect="non-scaling-stroke" fill="inherit" stroke="inherit" stroke-width="inherit"><title>Jefferson County</title></path><path id="county-13033" class="county feature" d="M727.353 386.452l1.598.698.35 1.012 2.134.566 1.256.752-3.095 3.062-1.512-.618-3.316 1.194-.722 2.086-2.706-.045.4-1.996-.625-2.283.444-3.256-.639-.6 1.352-.755 1.444 1.05z" vector-effect="non-scaling-stroke" fill="inherit" stroke="inherit" stroke-width="inherit"><title>Burke County</title></path><path id="county-13303" class="county feature" d="M713.617 388.621l1.623 1.896 2.001 1.75.971 3.598-3.68 1.532-.633-.682-2.1 1.246-2.437-3.215-.01-2.543 2.366-1.424z" vector-effect="non-scaling-stroke" fill="inherit" stroke="inherit" stroke-width="inherit"><title>Washington County</title></path><path id="county-13199" class="county feature" d="M686.669 392.474l.173.684.018 4.038.506 1.619-2.91 1.053-2.558-.223-.71-5.945.083-.625z" vector-effect="non-scaling-stroke" fill="inherit" stroke="inherit" stroke-width="inherit"><title>Meriwether County</title></path><path id="county-13285" class="county feature" d="M681.187 393.7l.711 5.945-4.987.616-1.26-4.35-.101-.394 4.385-2.307z" vector-effect="non-scaling-stroke" fill="inherit" stroke="inherit" stroke-width="inherit"><title>Troup County</title></path><path id="county-13231" class="county feature" d="M690.663 392.593l.116 3.734-3.92.869-.017-4.038.64-.549z" vector-effect="non-scaling-stroke" fill="inherit" stroke="inherit" stroke-width="inherit"><title>Pike County</title></path><path id="county-13171" class="county feature" d="M693.81 391.94l.563 4.754-1.19.448-.123-1.072-2.281.257-.116-3.734 1.881-.498z" vector-effect="non-scaling-stroke" fill="inherit" stroke="inherit" stroke-width="inherit"><title>Lamar County</title></path><path id="county-13207" class="county feature" d="M697.242 391.926l.21.892 1.724 1.797.336 1.327-2.556 2.31-3.59.432-.182-1.542 1.189-.448-.562-4.754z" vector-effect="non-scaling-stroke" fill="inherit" stroke="inherit" stroke-width="inherit"><title>Monroe County</title></path><path id="county-13009" class="county feature" d="M705.662 390.683l2.81.308.88 1.212.01 2.543-1.293-1.005-3.043 1.98-1.74-4.685z" vector-effect="non-scaling-stroke" fill="inherit" stroke="inherit" stroke-width="inherit"><title>Baldwin County</title></path><path id="county-13169" class="county feature" d="M703.286 391.036l1.74 4.684-.69.622-1.516 1.212-2.341-.507-.967-1.105-.336-1.327-1.724-1.797 4.066-1.291z" vector-effect="non-scaling-stroke" fill="inherit" stroke="inherit" stroke-width="inherit"><title>Jones County</title></path><path id="county-13251" class="county feature" d="M735.657 394.74l.674 2.738-2.15 2.35-4.988-2.28-.473-.698.876-4.308 3.095-3.062z" vector-effect="non-scaling-stroke" fill="inherit" stroke="inherit" stroke-width="inherit"><title>Screven County</title></path><path id="county-13319" class="county feature" d="M709.362 394.746l2.436 3.215-.03.973-3.853 2.88-3.58-5.472.69-.622 3.044-1.98z" vector-effect="non-scaling-stroke" fill="inherit" stroke="inherit" stroke-width="inherit"><title>Wilkinson County</title></path><path id="county-13293" class="county feature" d="M690.779 396.327l2.281-.257.124 1.072.182 1.542-.845 3.123-1.443-.929-1.54-.4-2.172-1.663-.506-1.62z" vector-effect="non-scaling-stroke" fill="inherit" stroke="inherit" stroke-width="inherit"><title>Upson County</title></path><path id="county-13165" class="county feature" d="M729.596 392.542l-.876 4.308.473.697-2.364 1.154-1.41-.859-1.373-2.638.722-2.086 3.316-1.194z" vector-effect="non-scaling-stroke" fill="inherit" stroke="inherit" stroke-width="inherit"><title>Jenkins County</title></path><path id="county-13021" class="county feature" d="M702.82 397.554l-.863 3.535-1.67-.308-2.038-.684-1.293-1.845 2.556-2.31.967 1.105z" vector-effect="non-scaling-stroke" fill="inherit" stroke="inherit" stroke-width="inherit"><title>Bibb County</title></path><path id="county-13289" class="county feature" d="M707.915 401.814l-3.884 3.018-1.103-3.032-.97-.71.862-3.536 1.516-1.212z" vector-effect="non-scaling-stroke" fill="inherit" stroke="inherit" stroke-width="inherit"><title>Twiggs County</title></path><path id="county-13263" class="county feature" d="M691.078 400.878l-.726.621-.733 3.095-.552.064-2.94.87-.85.41-.146-1.218-.676-4.852 2.911-1.053 2.172 1.662z" vector-effect="non-scaling-stroke" fill="inherit" stroke="inherit" stroke-width="inherit"><title>Talbot County</title></path><path id="county-13145" class="county feature" d="M684.455 399.868l.676 4.852-6.059.256-1.139-2.487-1.022-2.228 4.987-.616z" vector-effect="non-scaling-stroke" fill="inherit" stroke="inherit" stroke-width="inherit"><title>Harris County</title></path><path id="county-13079" class="county feature" d="M696.956 398.252l1.293 1.845 2.039.684.009.026-1.028.099-3.281 3.498-1.922-2.49-1.545-.107.845-3.123z" vector-effect="non-scaling-stroke" fill="inherit" stroke="inherit" stroke-width="inherit"><title>Crawford County</title></path><path id="county-13107" class="county feature" d="M721.34 395.16l2.706.044 1.374 2.638 1.409.859-.257 1.333-1.779.609-1.166 3.343.4.596v.005l-1.813.762-1.018-1.02.18-1.664-1.829-.83-2.471.07 2.463-2.899.175-2.215z" vector-effect="non-scaling-stroke" fill="inherit" stroke="inherit" stroke-width="inherit"><title>Emanuel County</title></path><path id="county-13167" class="county feature" d="M719.714 396.79l-.175 2.216-2.463 2.9-.59-1.808-3.281-1.504-1.436.34.03-.973 2.1-1.246.632.682 3.681-1.532z" vector-effect="non-scaling-stroke" fill="inherit" stroke="inherit" stroke-width="inherit"><title>Johnson County</title></path><path id="county-13269" class="county feature" d="M692.52 401.807l1.546.107 1.922 2.49-.173.468-1.463.04-1.896 2.923-2.242-.516-1.147-2.66.552-.065.733-3.095.726-.62z" vector-effect="non-scaling-stroke" fill="inherit" stroke="inherit" stroke-width="inherit"><title>Taylor County</title></path><path id="county-13175" class="county feature" d="M716.455 405.849l-2.241 2.458-1.53 1.135-3.003-4.814-1.766-2.814 3.854-2.88 1.436-.34 3.28 1.504.591 1.808-1.048 3.574z" vector-effect="non-scaling-stroke" fill="inherit" stroke="inherit" stroke-width="inherit"><title>Laurens County</title></path><path id="county-13225" class="county feature" d="M698.571 405.238l-2.756-.366.173-.468 3.281-3.498 1.028-.1.09 2.999z" vector-effect="non-scaling-stroke" fill="inherit" stroke="inherit" stroke-width="inherit"><title>Peach County</title></path><path id="county-13153" class="county feature" d="M701.957 401.09l.971.71 1.103 3.032.125.942-1.554 2.348-3.634.426-.397-3.31 1.816-1.433-.09-2.998-.01-.026z" vector-effect="non-scaling-stroke" fill="inherit" stroke="inherit" stroke-width="inherit"><title>Houston County</title></path><path id="county-13031" class="county feature" d="M734.18 399.827l.477 1.735 1.968 2.6-5.111 2.455-.782-1.478-2.47-.233.377-2.826-2.067-2.046.257-1.333 2.364-1.154z" vector-effect="non-scaling-stroke" fill="inherit" stroke="inherit" stroke-width="inherit"><title>Bulloch County</title></path><path id="county-13215" class="county feature" d="M685.13 404.72l.146 1.217-.965 1.93-3.043 1.208-.74-2.423-1.456-1.676z" vector-effect="non-scaling-stroke" fill="inherit" stroke="inherit" stroke-width="inherit"><title>Muscogee County</title></path><path id="county-13103" class="county feature" d="M738.115 397.944l2.996 3.675.083 2.114-.824-.083-2.642 3.102-1.103-2.59-1.968-2.6-.477-1.735 2.151-2.349z" vector-effect="non-scaling-stroke" fill="inherit" stroke="inherit" stroke-width="inherit"><title>Effingham County</title></path><path id="county-13023" class="county feature" d="M709.68 404.628l-.609-.475-2.238 3.712-2.677-2.09-.125-.943 3.884-3.018z" vector-effect="non-scaling-stroke" fill="inherit" stroke="inherit" stroke-width="inherit"><title>Bleckley County</title></path><path id="county-13197" class="county feature" d="M690.214 407.32l-.027 4.69.056.6-1.498.173-2.126-1.603-.151.02-.34-5.672 2.939-.87z" vector-effect="non-scaling-stroke" fill="inherit" stroke="inherit" stroke-width="inherit"><title>Marion County</title></path><path id="county-13043" class="county feature" d="M728.262 404.906l-.903-.056-3.332-.268-.4-.596 1.166-3.343 1.779-.609 2.067 2.046z" vector-effect="non-scaling-stroke" fill="inherit" stroke="inherit" stroke-width="inherit"><title>Candler County</title></path><path id="county-13053" class="county feature" d="M686.127 405.528l.34 5.671-4.118.526.48-.653-1.99-1.011.43-.986 3.042-1.209.965-1.929z" vector-effect="non-scaling-stroke" fill="inherit" stroke="inherit" stroke-width="inherit"><title>Chattahoochee County</title></path><path id="county-13193" class="county feature" d="M695.815 404.872l2.756.366.397 3.31-1.67.982-.837 1.607-2.545-.79-1.307-1.094-.153-1.418 1.896-2.923z" vector-effect="non-scaling-stroke" fill="inherit" stroke="inherit" stroke-width="inherit"><title>Macon County</title></path><path id="county-13283" class="county feature" d="M721.196 404.329l-3.678 1.589-1.063-.07-.427-.368 1.048-3.574 2.471-.072 1.83.831z" vector-effect="non-scaling-stroke" fill="inherit" stroke="inherit" stroke-width="inherit"><title>Treutlen County</title></path><path id="county-13091" class="county feature" d="M714.214 408.307l-.515 1.223-3.74 4.959-1.434-1.237-1.132-2.309.535-1.45-1.095-1.628 2.238-3.712.61.475 3.003 4.814z" vector-effect="non-scaling-stroke" fill="inherit" stroke="inherit" stroke-width="inherit"><title>Dodge County</title></path><path id="county-13249" class="county feature" d="M692.456 407.835l.153 1.418 1.307 1.094.138 1.33-3.867.332.027-4.69z" vector-effect="non-scaling-stroke" fill="inherit" stroke="inherit" stroke-width="inherit"><title>Schley County</title></path><path id="county-13235" class="county feature" d="M704.156 405.774l2.677 2.09 1.095 1.63-.535 1.45-4.264.33-.527-3.152z" vector-effect="non-scaling-stroke" fill="inherit" stroke="inherit" stroke-width="inherit"><title>Pulaski County</title></path><path id="county-13209" class="county feature" d="M721.07 411.644l-.914.32-.999-.916-1.639-5.13 3.678-1.59z" vector-effect="non-scaling-stroke" fill="inherit" stroke="inherit" stroke-width="inherit"><title>Montgomery County</title></path><path id="county-13279" class="county feature" d="M721.196 404.329l1.018 1.02 1.814-.762 1.212 2.72.01 4.791-3.365-.515-.814.06z" vector-effect="non-scaling-stroke" fill="inherit" stroke="inherit" stroke-width="inherit"><title>Toombs County</title></path><path id="county-13267" class="county feature" d="M727.36 404.85l1.252 3.56 3.492.113-.886.76-1.632 4.524-1.344-.517-1.194-1.22-1.799.028-.009-4.791-1.212-2.72v-.005z" vector-effect="non-scaling-stroke" fill="inherit" stroke="inherit" stroke-width="inherit"><title>Tattnall County</title></path><path id="county-13309" class="county feature" d="M717.518 405.918l1.64 5.13.998.917-1.492.97-1.537-1.455-2.665-1.019-.763-.931.515-1.223 2.241-2.458z" vector-effect="non-scaling-stroke" fill="inherit" stroke="inherit" stroke-width="inherit"><title>Wheeler County</title></path><path id="county-13093" class="county feature" d="M702.602 408.122l.527 3.153.198 1.687-5.497.657-1.37-2.482.838-1.607 1.67-.982z" vector-effect="non-scaling-stroke" fill="inherit" stroke="inherit" stroke-width="inherit"><title>Dooly County</title></path><path id="county-13109" class="county feature" d="M728.262 404.906l2.47.233.782 1.478 1.145 1.036-.555.87-3.492-.114-1.253-3.559z" vector-effect="non-scaling-stroke" fill="inherit" stroke="inherit" stroke-width="inherit"><title>Evans County</title></path><path id="county-13029" class="county feature" d="M737.728 406.752l3.073 3.407 1.5.488.085 2.37-2.715-1.13-1.754-2.287-2.975-.06-2.283-1.887-1.145-1.036 5.111-2.454z" vector-effect="non-scaling-stroke" fill="inherit" stroke="inherit" stroke-width="inherit"><title>Bryan County</title></path><path id="county-13051" class="county feature" d="M742.616 410.644l1.446.403-1.184 1.988-.967-1.62zm1.185-4.308l1.457.913-1.025 1.152zm-1.866-.654l1.279.524.794 2.115 1.378.766-.733 1.09-2.674-1.022-1.178 1.004-3.073-3.407 2.642-3.102.824.083z" vector-effect="non-scaling-stroke" fill="inherit" stroke="inherit" stroke-width="inherit"><title>Chatham County</title></path><path id="county-13307" class="county feature" d="M690.243 412.61l.191 3.148-.044.896-2.296.26-.877.104-.598-5.838 2.126 1.603z" vector-effect="non-scaling-stroke" fill="inherit" stroke="inherit" stroke-width="inherit"><title>Webster County</title></path><path id="county-13259" class="county feature" d="M686.619 411.18l.598 5.838-3.946.388-2.67-.96.037-1.35-.238-1.27 1.95-2.101 4.118-.526z" vector-effect="non-scaling-stroke" fill="inherit" stroke="inherit" stroke-width="inherit"><title>Stewart County</title></path><path id="county-13261" class="county feature" d="M696.46 411.137l1.37 2.482.888 2.174-6.517.697.098.795-1.865-1.527-.19-3.148-.057-.6 3.867-.333-.138-1.33z" vector-effect="non-scaling-stroke" fill="inherit" stroke="inherit" stroke-width="inherit"><title>Sumter County</title></path><path id="county-13271" class="county feature" d="M718.664 412.935l-2.698 2.425-2.417.902-3.019-.856-.57-.917 3.74-4.96.762.932 2.665 1.02z" vector-effect="non-scaling-stroke" fill="inherit" stroke="inherit" stroke-width="inherit"><title>Telfair County</title></path><path id="county-13315" class="county feature" d="M707.393 410.943l1.132 2.309 1.435 1.237.57.917-4.728.646-2.09.147-.385-3.237-.198-1.687z" vector-effect="non-scaling-stroke" fill="inherit" stroke="inherit" stroke-width="inherit"><title>Wilcox County</title></path><path id="county-13179" class="county feature" d="M742.951 413.535l-.343 2.684-.53-1.982zm-1.566-.495l.39 1.028-2.155.778-2.32-.504-2.532-.865-2.228-1.723-.047-1.87-1.275-.6.886-.76.555-.87 2.283 1.886 2.975.06 1.754 2.287z" vector-effect="non-scaling-stroke" fill="inherit" stroke="inherit" stroke-width="inherit"><title>Liberty County</title></path><path id="county-13081" class="county feature" d="M703.327 412.962l.385 3.237.116.93-2.968.399-2.254-.55.112-1.185-.888-2.174z" vector-effect="non-scaling-stroke" fill="inherit" stroke="inherit" stroke-width="inherit"><title>Crisp County</title></path><path id="county-13183" class="county feature" d="M737.3 414.342l-.812 2.459-1.417.935-5.485-3.929 1.632-4.523 1.275.6.047 1.87 2.228 1.723z" vector-effect="non-scaling-stroke" fill="inherit" stroke="inherit" stroke-width="inherit"><title>Long County</title></path><path id="county-13239" class="county feature" d="M683.271 417.406l.272 2.757-.763.07-2.868.283-.16-1.445.849-2.624z" vector-effect="non-scaling-stroke" fill="inherit" stroke="inherit" stroke-width="inherit"><title>Quitman County</title></path><path id="county-13161" class="county feature" d="M721.885 411.583l.342 2.377-1.387.192.316 2.373-1.558.943-3.276.483-.356-2.59 2.698-2.426 1.492-.97.915-.321z" vector-effect="non-scaling-stroke" fill="inherit" stroke="inherit" stroke-width="inherit"><title>Jeff Davis County</title></path><path id="county-13273" class="county feature" d="M692.3 417.285l1.296.693-.088 3.91-2.396.308-1.518.185-1.218-2.7-.282-2.767 2.296-.26.044-.896z" vector-effect="non-scaling-stroke" fill="inherit" stroke="inherit" stroke-width="inherit"><title>Terrell County</title></path><path id="county-13001" class="county feature" d="M725.25 412.098l1.798-.028 1.194 1.22-1.177 1.192.829 5.602-1.637-.884-5.101-2.675-.316-2.373 1.387-.192-.342-2.377z" vector-effect="non-scaling-stroke" fill="inherit" stroke="inherit" stroke-width="inherit"><title>Appling County</title></path><path id="county-13243" class="county feature" d="M687.217 417.018l.877-.104.282 2.767 1.218 2.7-4.252.537-1.962.252-.6-2.936.763-.071-.272-2.757z" vector-effect="non-scaling-stroke" fill="inherit" stroke="inherit" stroke-width="inherit"><title>Randolph County</title></path><path id="county-13177" class="county feature" d="M698.718 415.793l-.112 1.185-.915.941.144 2.893-.326.547-4 .53.087-3.91-1.297-.694-.098-.795z" vector-effect="non-scaling-stroke" fill="inherit" stroke="inherit" stroke-width="inherit"><title>Lee County</title></path><path id="county-13287" class="county feature" d="M705.802 416.052l.63 1.608-.333 3.146-2.27.79-2.45-.72-.519-3.348 2.968-.4-.116-.93z" vector-effect="non-scaling-stroke" fill="inherit" stroke="inherit" stroke-width="inherit"><title>Turner County</title></path><path id="county-13017" class="county feature" d="M710.53 415.406l3.019.856.236 2.008-5.152.559-.189-1.412-2.011.243-.631-1.608z" vector-effect="non-scaling-stroke" fill="inherit" stroke="inherit" stroke-width="inherit"><title>Ben Hill County</title></path><path id="county-13321" class="county feature" d="M698.606 416.978l2.254.55.518 3.347 2.45.72.503 4.423-5.453.62-.234-2.023-.809-3.803-.144-2.893z" vector-effect="non-scaling-stroke" fill="inherit" stroke="inherit" stroke-width="inherit"><title>Worth County</title></path><path id="county-13305" class="county feature" d="M728.242 413.29l1.344.517 5.485 3.929.855 1.495-1.339 2.534-4.976-.075-.377-1.418-1.34-.188-.829-5.602z" vector-effect="non-scaling-stroke" fill="inherit" stroke="inherit" stroke-width="inherit"><title>Wayne County</title></path><path id="county-13069" class="county feature" d="M719.598 417.468l1.008 3.706-.219 2.029-2.966.405-.44-.64-4.785.303-.216-.952 1.805-4.049-.236-2.008 2.417-.902.356 2.591z" vector-effect="non-scaling-stroke" fill="inherit" stroke="inherit" stroke-width="inherit"><title>Coffee County</title></path><path id="county-13061" class="county feature" d="M682.78 420.234l.6 2.936 1.962-.252.227 2.213-3.269.668-.321-.55-1.815-4.426-.252-.307z" vector-effect="non-scaling-stroke" fill="inherit" stroke="inherit" stroke-width="inherit"><title>Clay County</title></path><path id="county-13155" class="county feature" d="M713.785 418.27l-1.805 4.05-3.045.34-2.836-1.854.334-3.146 2.011-.243.19 1.412z" vector-effect="non-scaling-stroke" fill="inherit" stroke="inherit" stroke-width="inherit"><title>Irwin County</title></path><path id="county-13005" class="county feature" d="M726.257 419.2l-1.577 2.134-1.11.407-2.964-.567-1.008-3.706 1.558-.943z" vector-effect="non-scaling-stroke" fill="inherit" stroke="inherit" stroke-width="inherit"><title>Bacon County</title></path><path id="county-13191" class="county feature" d="M741.018 421.201l-.11.036.11-.036zm-1.934-.11l-.477-.06.477.06zm3.28-4.45l-.784 3.129-1.074-1.706zm-2.744-1.795l2.093.18.537.89-2.007.86.453 3.433.915.61-3.034.164-2.65-1.752-.856-1.495 1.417-.935.813-2.459z" vector-effect="non-scaling-stroke" fill="inherit" stroke="inherit" stroke-width="inherit"><title>McIntosh County</title></path><path id="county-13095" class="county feature" d="M697.835 420.812l.81 3.803-2.248.35-4.543.625-.742-3.394 2.396-.308 4.001-.53z" vector-effect="non-scaling-stroke" fill="inherit" stroke="inherit" stroke-width="inherit"><title>Dougherty County</title></path><path id="county-13037" class="county feature" d="M689.594 422.38l1.518-.184.742 3.394-3.263.45-2.398.24-.624-1.15-.227-2.212z" vector-effect="non-scaling-stroke" fill="inherit" stroke="inherit" stroke-width="inherit"><title>Calhoun County</title></path><path id="county-13277" class="county feature" d="M706.099 420.806l2.836 1.855-1.197 2.534-1.17.59-2.237.233-.503-4.423z" vector-effect="non-scaling-stroke" fill="inherit" stroke="inherit" stroke-width="inherit"><title>Tift County</title></path><path id="county-13229" class="county feature" d="M727.894 420.084l1.34.188.377 1.418.941 1.098-2.869 2.424-1.528-.184-1.79-1.126-.795-2.16 1.11-.408 1.577-2.134z" vector-effect="non-scaling-stroke" fill="inherit" stroke="inherit" stroke-width="inherit"><title>Pierce County</title></path><path id="county-13099" class="county feature" d="M685.57 425.13l.623 1.15 2.398-.24.323 3.264-4.347.578.32 3.416-1.69.14-1.334-1.533-.098-2.698.214-3.959.321.551z" vector-effect="non-scaling-stroke" fill="inherit" stroke="inherit" stroke-width="inherit"><title>Early County</title></path><path id="county-13019" class="county feature" d="M711.98 422.32l.216.95 1.988 2.376.083 1.82-1.771.932-.21 2.33-1.537.171-1.186-3.941-1.825-1.763 1.197-2.534z" vector-effect="non-scaling-stroke" fill="inherit" stroke="inherit" stroke-width="inherit"><title>Berrien County</title></path><path id="county-13299" class="county feature" d="M723.57 421.741l.795 2.161 1.79 1.126 1.365.805.239 1.595 1.407 1.195-4.49.599.497 4.06 4.326-.423-.445 4.15-3.278.223-.902-4.377-.942.144-.308-2.673-1.75-.797-1.686-2.882-.688-1.691 1.104-.143-.217-1.61.22-2.029z" vector-effect="non-scaling-stroke" fill="inherit" stroke="inherit" stroke-width="inherit"><title>Ware County</title></path><path id="county-13127" class="county feature" d="M740.908 421.237l.11-.036.821 1.602-1.348 1.784-.812-1.177.382-2.158zm-2.331-.254l.03.047.477.061 1.004.705-.845 2.165.8 2.523-1.96-.515-3.594-1.149.098-3.055 1.34-2.534z" vector-effect="non-scaling-stroke" fill="inherit" stroke="inherit" stroke-width="inherit"><title>Glynn County</title></path><path id="county-13007" class="county feature" d="M691.854 425.59l4.543-.626-.749 1.679-2.096 1.223-.243 1.248-1.668 1.8-.21 1.492-.547.056-.313-3.3-1.657.142-.323-3.265z" vector-effect="non-scaling-stroke" fill="inherit" stroke="inherit" stroke-width="inherit"><title>Baker County</title></path><path id="county-13205" class="county feature" d="M698.644 424.615l.234 2.023.54 4.799-1.79.215-4.113.492-2.084.262.21-1.493 1.668-1.8.243-1.247 2.096-1.223.75-1.679z" vector-effect="non-scaling-stroke" fill="inherit" stroke="inherit" stroke-width="inherit"><title>Mitchell County</title></path><path id="county-13003" class="county feature" d="M720.387 423.203l.217 1.61-1.104.143.688 1.69-4.716.649-1.205.172-.083-1.82-1.988-2.376 4.785-.304.44.641z" vector-effect="non-scaling-stroke" fill="inherit" stroke="inherit" stroke-width="inherit"><title>Atkinson County</title></path><path id="county-13025" class="county feature" d="M734.587 421.765l-.098 3.055-2.333 2.648-2.05-.207-.94 1.362-1.407-1.195-.24-1.595-1.364-.805 1.528.184 2.87-2.424-.942-1.098z" vector-effect="non-scaling-stroke" fill="inherit" stroke="inherit" stroke-width="inherit"><title>Brantley County</title></path><path id="county-13075" class="county feature" d="M710.75 430.899l-2.872.297-1.685-.647.712-2.515-.337-2.25 1.17-.589 1.825 1.763z" vector-effect="non-scaling-stroke" fill="inherit" stroke="inherit" stroke-width="inherit"><title>Cook County</title></path><path id="county-13071" class="county feature" d="M704.331 426.018l2.237-.234.337 2.25-.712 2.515.125.817-2.576.264-4.245.472-.079-.665-.54-4.799z" vector-effect="non-scaling-stroke" fill="inherit" stroke="inherit" stroke-width="inherit"><title>Colquitt County</title></path><path id="county-13201" class="county feature" d="M688.914 429.304l1.657-.142.313 3.3-2.955.541-3.043.295-.319-3.416z" vector-effect="non-scaling-stroke" fill="inherit" stroke="inherit" stroke-width="inherit"><title>Miller County</title></path><path id="county-13065" class="county feature" d="M720.188 426.647l1.685 2.882 1.751.797.308 2.673.942-.144.902 4.377-.656.048-1.992.146-.404-2.112-2.875-.094-1.528-1.723-2.055-.363-.794-5.839z" vector-effect="non-scaling-stroke" fill="inherit" stroke="inherit" stroke-width="inherit"><title>Clinch County</title></path><path id="county-13173" class="county feature" d="M715.472 427.295l.794 5.839-.711.474-.624-1.763-2.165.242-.48-1.359.21-2.33 1.77-.931z" vector-effect="non-scaling-stroke" fill="inherit" stroke="inherit" stroke-width="inherit"><title>Lanier County</title></path><path id="county-13039" class="county feature" d="M740.787 428.333l-.582 3.867-.879-2.657zm-2.705-2.364l2.111 2.199-.284 4.188-1.628.456-5.03-1.341-.579-3.877-.516-.126 2.333-2.648z" vector-effect="non-scaling-stroke" fill="inherit" stroke="inherit" stroke-width="inherit"><title>Camden County</title></path><path id="county-13087" class="county feature" d="M690.884 432.462l.547-.056 2.084-.262.82 7.237-7.726.522 1.327-3.445-.007-3.455z" vector-effect="non-scaling-stroke" fill="inherit" stroke="inherit" stroke-width="inherit"><title>Decatur County</title></path><path id="county-13131" class="county feature" d="M697.628 431.652l1.037 3.004.427 4.4-3.183.221-1.574.104-.82-7.237z" vector-effect="non-scaling-stroke" fill="inherit" stroke="inherit" stroke-width="inherit"><title>Grady County</title></path><path id="county-13027" class="county feature" d="M711.496 438.224l-.506.031.506-.031zm-3.618-7.028l.87 2.288 1.572.98-1.5.651-.402 1.292 2.313 1.865-4.078.276-2.117.14-.794-7.058 2.576-.264-.125-.817z" vector-effect="non-scaling-stroke" fill="inherit" stroke="inherit" stroke-width="inherit"><title>Brooks County</title></path><path id="county-13275" class="county feature" d="M699.418 431.437l.079.665 4.245-.472.794 7.057-4.225.286-1.219.084-.427-4.4-1.037-3.005z" vector-effect="non-scaling-stroke" fill="inherit" stroke="inherit" stroke-width="inherit"><title>Thomas County</title></path><path id="county-13253" class="county feature" d="M687.929 433.003l.007 3.455-1.327 3.445-.017.002-2.817-5.12-.578-1.347 1.69-.14z" vector-effect="non-scaling-stroke" fill="inherit" stroke="inherit" stroke-width="inherit"><title>Seminole County</title></path><path id="county-13049" class="county feature" d="M733.251 431.471l-1.876 1.671.062 1.875.952 1.595-.156 3.83-1.904.343-.76-.926-.515-2.85.445-4.15-4.326.424-.498-4.061 4.491-.599.94-1.362 2.05.207.516.126z" vector-effect="non-scaling-stroke" fill="inherit" stroke="inherit" stroke-width="inherit"><title>Charlton County</title></path><path id="county-13185" class="county feature" d="M710.75 430.899l1.536-.171.48 1.359 2.165-.242.624 1.763-1.67 1.6.38 2.838-2.769.178-.506.031-.26.017-2.312-1.865.402-1.292 1.5-.651-1.572-.98-.87-2.288z" vector-effect="non-scaling-stroke" fill="inherit" stroke="inherit" stroke-width="inherit"><title>Lowndes County</title></path><path id="county-13101" class="county feature" d="M723.128 437.426l-1.686.124-7.177.496-.38-2.838 1.67-1.6.71-.474 2.056.363 1.528 1.723 2.875.094z" vector-effect="non-scaling-stroke" fill="inherit" stroke="inherit" stroke-width="inherit"><title>Echols County</title></path></g><path id="counties-mesh" class="counties mesh" d="M700.641 362.334l-3.091-.245-1.693-1.152-.2-1.032 1.33-2.338m-1.13 3.37l-.389.48-1.47.333-.864-2.174-1.96-1.16m-10.313 1.265l.342 2.48.62.53-.911 1.938.36 2.686-1.022-.626-3.014.139.898-4.708-.142-2.084m10.264-1.25l-.643.779 1.643 2.629-.616 2.984-.362.904-.154-.264-2.224-3.319-1.695-.688-3.002.35m-3.967 4.667l-2.045.459-.216-1.822-1.525-.73 1.147-1.113.87-3.29m-2.017 4.403l-1.996-1.414-.288-2.446m22.832.875l-.978 1.47-1.297-.191-1.235 2.03-1.848.12m-13.449 2.108l-.206.692-.582.063-6.361.694-.176-.647m6.537-.047l-.78 2.96-2.2 1.496-.625 1.662-1.142.123-1.28-4.363-.334-1.184m20.082-2.918l-2.126 1.31-4.643.827-.083-.64m19.658-4.47l-1.327 4.089-2.232 1.233-.947-1.24.648-.915-.993-1.9.43-1.554-1.04-1.141m.955 5.51l-2.689.311-.811-2.231.096-1.787m.715 4.018l-1.854 1.886-3.486-1.847-.117-1.195m16.573-.904l-.97 1.247-3.298.76-.98-.251m-18.248 1.02l.322 2.547-5.307 1.008-1.513-.044.128-3.486m16.896 1.145l.54 1.539-4.57.554-.1-.86-1.753-3.229m-9.628 4.381l.014 5.607-5.687.943-1.041-3.776m36.091-8.415l-.373 4.235-.81.773-1.961-.225-.765.873-1.255-4.338m-22.275 9.97l-.569 2.55-.994 1.005-5.13.635-.317-1.144-.6-2.143m26.673-9.892l-.663 1.32.921 1.24-2.593 3.52-.712.638-3.114-.917 1.793-2.341-.583-.964m18.057-1.568l-2.934 1.89-1.502-.023-.667-.859m-3.536 1.42l-.66.59-1.342-1.048-2.207-.338m-9.878-.37l-4.92.595-1.154-.451.657 6.264-1.202.118-2.824.273-1.924-.04m11.468-5.9l.335 2.788-1.433.385-.745 2.02-3.675.356m8.876-2.797l-.254 2.254-2.592-.788-.177-1.43m-18.511-12.928l-.977 2.98.151 1.36-.984 2.673-1.232-4.344-.587-2.29 1.98-.188 1.649-.19 1.49-.202 4.3-.544 2.526-.295.545-.07 2.324-.285 4.513-.553 2.882-.342 1.886-.232 1.031-.138 5.814-.849 1.002-.146 5.61-.893.005-.004-.128 1.2-1.59 1.372-1.245 3.238.29.512 3.92 2.332.896.69.975.089 1.953.196 1.802 2.942.717 1.432 2.732 3.318.613 1.018-1.304-.354-2.009.532-3.18-.93-2.005-3.149m2.005 3.148l-2.29.256-1.892 1.156-1.65-.569m-11.258 1.27l-2.514 2.077-1.097.03.687 5.893-1.646.184.206 1.83-2.204 1.184-3.723.273.5-1.243 2.1-1.83 1.06-1.758 1.448-1.74 1.029-2.733-.793-1.981m15.17-4.295l1.035 2.84-2.516 1.75-.556-1.176-3.206-.246-.9-1.036-.487 2.388 1.247 1.265-2.451 3.04-.558.701-4.004-2.657-.34-.683m15.533.073l-4.278-1.668-1.523 1.332-2.379-.138m-11.472 4.964l-.834-1.05-1.541.15-.817-5.08m.817 5.08l-2.657.795-2.155-.34-.392-1.707m34.481-5.67l-.963.726-1.707 3.258.703.806-.61.837-1.896.16-2.627-.838-.15-1.617-.112-2.851m9.37-1.013l1.166 2.753 2.277 3.306-2.501.948-.455.228-2.183-.759-1.126.588-1.153-1.742m11.05-.813l-2.833 1.225-.799.325m-23.89 1.072l-1.087 2.758-1.118-.457-1.493.163-1.057.119m16.094-4.233l-1.767 1.44-1.814-2.026-2.37-1.367m-17.51 9.657l-2.344 1.904-4.289.441-.276-1.005-.882-3.122-1.26-4.566m28.93-1.942l-2.137 4.47-3.936-2.283-1.126-.653m-16.208 1.48l.013 1.842-4.276 1.652m29.485-4.483l2.51 2.79-.039.955-3.77 1.434-2.503-1.412-.15-1.322m-19.115-1.116l.388 3.881 1.486-.188m13.305-4.86l-.031 1.77-1.436 2.552-2.422-1.972m18.066-3.273l.772.569-.762 1.578.302 2.07-2.027 2.446-2.103-2.157m-6.273.022l.21.714-2.187 1.225-.413 1.365-1.119-1.297-2.044-1.29m20.717-4.169l-2.23 3.279-2.531-.137m14.87-3.563l-3.553 4.138-2.695-3.309-.106-1.91m2.8 5.219l-.793.919-.462.072-2.456-.511-2.39-4.425m-25.086 2.588l.586 1.163-1.024 4.476-.525.064-.149-2.076-1.385-1.494m8.456.966l-.458 1.368-1.943 1.705-.828-.606-3.168.073m30.37-3.291l-.639.799-2.1-.696-2.821 1.798-1.97-3.33m-23.365 4.784l-.47 1.878-.992.102-1.58-1.707-.696-2.66m42.965-.968l-3.637.867-1.444-1.05-1.352.755-1.437-.644m-18.423.228l.458 4.919-4.066 1.291-.21-.892-1.075-3.426m-9.503 3.287l.005.687-5.398.6-.084.626-1.252-.49-1.614-3.612m3.577 10.047l-4.987.616-1.26-4.35-.101-.394-1.518-5.478m32.9-2.708l.362.802-1.509 1.174-.123 1.376-2.376.353-1.768.49m11.943-3.173l.156.268-1.9 2.158-2.365 1.424-.88-1.212-2.81-.308m-8.42 1.243l-3.431.014-1.267.155.103-1.82m-12.712 2.935l-4.385 2.307m16.994-3.422l-1.88.498-3.182.016-.64.55-.173-.685m31.713-5.223l-3.142 3.266-1.623-1.896m7.303-1.597l.64.6-.445 3.256.625 2.283-.4 1.996-1.626 1.632-1.502-.926-.97-3.598-2.002-1.75m-.701-15.654l3.64 1.764 2.13 2.39 2.051 1.54 1.47.766.277.203 1.465 1.062.021 1.76 1.76 2.104 1.598.698.35 1.012 2.134.566 1.256.752-3.095 3.062-1.512-.618-3.316 1.194-.722 2.086-2.706-.045m-3.128.706l-3.68 1.532-.633-.682-2.1 1.246-2.437-3.215-.01-2.543m-22.51.955l.018 4.038.506 1.619-2.91 1.053-2.558-.223-.71-5.945m9.475-1.107l.116 3.734-3.92.869m6.952-5.256l.562 4.754-1.19.448-.123-1.072-2.281.257m6.673-3.509l1.724 1.797.336 1.327-2.556 2.31-3.59.432-.182-1.542m16.178-2.396l-1.293-1.005-3.043 1.98-1.74-4.685m1.74 4.684l-.69.622-1.516 1.212-2.341-.507-.967-1.105m-14.381 8.778l-6.059.256-1.139-2.487-1.022-2.228m55.78-10.781l2.966 5.26.674 2.738-2.15 2.35-4.988-2.28-.473-.698.876-4.308m-17.798 5.419l-.03.973-3.853 2.88-3.58-5.472m-10.969 2.342l-.845 3.123-1.443-.929-1.54-.4-2.172-1.663m41.827-1.268l-2.364 1.154-1.41-.859-1.373-2.638m-21.226 2.35l-.863 3.535-1.67-.308-2.038-.684-1.293-1.845m20.12 3.654l-1.048 3.574.427.369-2.241 2.458-1.53 1.135-3.003-4.814-1.766-2.814-3.884 3.018-1.103-3.032-.97-.71m-10.88-.212l-.726.621-.733 3.095-.552.064-2.94.87-.85.41-.146-1.218-.676-4.852m15.833.913l.009.026-1.028.099-3.281 3.498-1.922-2.49-1.545-.107m34.308-3.106l-.257 1.333-1.779.609-1.166 3.343.4.596v.005l-1.813.762-1.018-1.02.18-1.664-1.829-.83-2.471.07 2.463-2.899.175-2.215m-2.638 5.115l-.59-1.808-3.281-1.504-1.436.34m-15.781 5.47l-.173.468-1.463.04-1.896 2.923-2.242-.516-1.147-2.66m-3.79 1.278l-.966 1.93-3.043 1.208-.74-2.423-1.456-1.676m21.225-4.17l.09 2.999-1.816 1.433-2.756-.366m8.216-.04l.125.942-1.554 2.348-3.634.426-.397-3.31m35.61-5.41l.476 1.734 1.968 2.6-5.111 2.455-.782-1.478-2.47-.233.377-2.826-2.067-2.046m14.622 3.7l-.824-.084-2.642 3.102-1.103-2.59m-26.944.466l-.61-.475-2.238 3.712-2.677-2.09m-13.942 1.544l-.027 4.69.056.6-1.498.174-2.126-1.603-.151.02-.34-5.672m42.134-.622l-.903-.056-3.332-.268m-37.56 6.617l-4.118.526.48-.653-1.99-1.011.43-.986m17.7-.527l-1.671.982-.837 1.607-2.545-.79-1.307-1.094-.153-1.418m28.74-3.506l-3.678 1.589-1.063-.07m-29.238 11.17l-3.946.388-2.67-.96.037-1.35-.238-1.27 1.95-2.101m31.864-3.418l-.515 1.223-3.74 4.959-1.434-1.237-1.132-2.309.535-1.45-1.095-1.628m-12.917 2.482l.138 1.33-3.867.332m17.206-1.066l-4.264.332-.527-3.153m18.594-3.793l-.125 7.315-.915.32-.999-.916-1.639-5.13m6.51-1.331l1.212 2.72.01 4.791-3.365-.515-.814.06m6.288-6.793l1.253 3.56 3.492.113-.886.76-1.632 4.524-1.344-.517-1.194-1.22-1.799.028m-5.093-.133l-1.492.97-1.537-1.455-2.665-1.019-.763-.931m-10.57 1.745l.198 1.687-5.497.657-1.37-2.482m35.054-4.52l1.145 1.036-.555.87m5.624-1.771l3.073 3.407 1.5.488.085 2.37-2.715-1.13-1.754-2.287-2.975-.06-2.283-1.887m9.957 2.991l1.446.403-1.184 1.988-.967-1.62.705-.77m1.185-4.31l1.457.914-1.025 1.152-.432-2.065m-7.47-8.858l1.784.466 2.996 3.675.083 2.114.741 1.95 1.279.523.794 2.115 1.378.766-.733 1.09-2.674-1.022-1.178 1.004m-50.558 2.45l.191 3.149-.044.896-2.296.26-.877.104-.598-5.838m11.21 2.44l.889 2.173-6.517.697.098.795-1.865-1.527m28.23-2.823l-2.698 2.425-2.417.902-3.019-.856-.57-.917m-24.618 8.429l.227 2.213-3.269.668-.321-.55-1.815-4.426-.252-.307-.16-1.445.849-2.624m29.93-1.041l-4.73.646-2.09.147-.384-3.237m39.624.573l-.343 2.684-.53-1.982.873-.702m-3.28-1.648l1.714 1.153.39 1.028-2.155.778-2.32-.504-2.532-.865-2.228-1.723-.047-1.87-1.275-.6m-27.506 6.915l.116.93-2.968.399-2.254-.55.112-1.185m38.583-1.45l-.813 2.458-1.417.935-5.485-3.929m-46.315 3.6l.272 2.756-.763.07-2.868.283m41.973-8.933l.342 2.377-1.387.192.316 2.373-1.558.943-3.276.483-.356-2.59m-23.667 1.924l1.297.693-.088 3.91-2.396.308-1.518.185-1.218-2.7-.282-2.767m40.148-3.624l-1.177 1.192.829 5.602-1.637-.884-5.101-2.675m-31.562 5.856l-4.252.537-1.962.252-.6-2.936m15.826-3.256l-.915.941.144 2.893-.326.547-4 .53m12.293-5.837l.63 1.608-.333 3.146-2.27.79-2.45-.72-.519-3.348m12.689-1.266l.236 2.008-5.152.559-.189-1.412-2.011.243m-2.605 3.935l.503 4.423-5.453.62-.234-2.023-.809-3.803m37.236-3.076l.855 1.495-1.339 2.534-4.976-.075-.377-1.418-1.34-.188m-8.296-2.616l1.008 3.706-.219 2.029-2.966.405-.44-.64-4.785.303-.216-.952 1.805-4.049m-25.194 7.77l.323 3.264-4.347.578.32 3.416-1.69.14-1.334-1.533-.098-2.698.214-3.959m30.001-2.929l-3.045.342-2.836-1.855m20.158-1.606l-1.577 2.134-1.11.407-2.964-.567m21.758-4.532l-.784 3.128-1.074-1.706 1.858-1.422m-2.744-1.796l2.093.18.537.89-2.007.86.453 3.433.915.61-3.034.164-2.65-1.752m-37.283 5.384l-2.247.35-4.543.625-.742-3.394m.742 3.394l-3.263.45-2.398.24-.624-1.15m23.366-2.47l-1.197 2.535-1.17.59-2.237.233m25.28-4.328l.941 1.098-2.869 2.424-1.528-.184-1.79-1.126-.795-2.16m-11.374 1.529l1.988 2.375.083 1.82-1.771.932-.21 2.33-1.537.171-1.186-3.941-1.825-1.763m18.417-.167l1.365.805.239 1.595 1.407 1.195-4.49.599.497 4.06 4.326-.423-.445 4.15-3.278.223-.902-4.377-.942.144-.308-2.673-1.75-.797-1.686-2.882-.688-1.691 1.104-.143-.217-1.61m20.63-2.002l-.11.036.11-.036.822 1.602-1.348 1.784-.812-1.177.382-2.158.847-.015m-2.331-.254l.03.047m.477.061l-.477-.06.477.06 1.004.705-.845 2.165.8 2.523-1.96-.515-3.594-1.149.098-3.055m-38.19 3.2l-.749 1.678-2.096 1.223-.243 1.248-1.668 1.8-.21 1.492-.547.056-.313-3.3-1.657.142m9.964-2.666l.54 4.799-1.79.215-4.113.492-2.084.262m28.757-5.76l-4.716.649-1.205.172m20.222-2.647l-2.333 2.648-2.05-.207-.94 1.362M710.75 430.9l-2.871.297-1.685-.647.712-2.515-.337-2.25m-.375 4.765l.125.817-2.576.264-4.245.472-.079-.665m-12.809 8.466l-.017.002-2.817-5.12-.578-1.347m7.687-.976l-2.955.541-3.043.295m40.89 3.934l-.656.048-1.992.146-.404-2.112-2.875-.094-1.528-1.723-2.055-.363-.794-5.839m.794 5.839l-.711.474-.624-1.763-2.165.242-.48-1.359m28.501-2.395l-.582 3.867-.879-2.657 1.461-1.21m-2.705-2.364l2.111 2.199-.284 4.188-1.628.456-5.03-1.341-.579-3.877-.516-.126m-38.641 4.676l.82 7.237-7.726.522 1.327-3.445-.007-3.455m9.7-1.351l1.036 3.004.427 4.4-3.183.221-1.574.104m21.22-5.773l-1.67 1.6.38 2.838-2.769.178-.506.031.506-.031m-3.618-7.028l.87 2.288 1.572.98-1.5.651-.402 1.292 2.313 1.865-4.078.276-2.117.14-.794-7.058m.794 7.057l-4.225.286-1.219.084m34.16-7.586l-1.877 1.671.062 1.875.952 1.595-.156 3.83-1.904.343-.76-.926-.515-2.85m-18.064 1.246l-.26.017m12.398-.846l-1.686.124-7.177.496" vector-effect="non-scaling-stroke" fill="inherit" stroke="inherit" stroke-width="inherit"/></svg>