<svg xmlns="http://www.w3.org/2000/svg" version="1.2" id="root" viewBox="623.9398361994337 233.3034471110709 45.72555629028716 78.82861688094908"><g id="counties"><path id="county-18039" class="county feature" d="M651.361 234.623l.551 4.402.192 1.617-5.605.62-.085-.81-.597-5.262 3.822-.38z" vector-effect="non-scaling-stroke" fill="inherit" stroke="inherit" stroke-width="inherit"><title>Elkhart County</title></path><path id="county-18141" class="county feature" d="M646.414 240.452l-5.626.627.092.814-.809.083.11-4.104-.712-2.015 4.097-.43 2.25-.237z" vector-effect="non-scaling-stroke" fill="inherit" stroke="inherit" stroke-width="inherit"><title>Saint Joseph County</title></path><path id="county-18091" class="county feature" d="M640.071 241.976l-2.375.813-.934 2.3-1.942 1.106-.883-8.86 1.392-1.083 4.14-.395.711 2.015z" vector-effect="non-scaling-stroke" fill="inherit" stroke="inherit" stroke-width="inherit"><title>LaPorte County</title></path><path id="county-18151" class="county feature" d="M663.614 237.565l-5.359.692-.532-4.355 5.102-.599.402 1.162z" vector-effect="non-scaling-stroke" fill="inherit" stroke="inherit" stroke-width="inherit"><title>Steuben County</title></path><path id="county-18087" class="county feature" d="M658.255 238.257l-6.343.768-.55-4.402 5.049-.576 1.312-.145z" vector-effect="non-scaling-stroke" fill="inherit" stroke="inherit" stroke-width="inherit"><title>LaGrange County</title></path><path id="county-18089" class="county feature" d="M630.091 239.328l.713 7.15-.742.51-1.827 1.234-1.571.069-.222-2.478-.267-3.158-.379-4.517 1.32.912z" vector-effect="non-scaling-stroke" fill="inherit" stroke="inherit" stroke-width="inherit"><title>Lake County</title></path><path id="county-18127" class="county feature" d="M634.82 246.195l-2.87-.66-1.146.943-.713-7.15 3.846-1.993z" vector-effect="non-scaling-stroke" fill="inherit" stroke="inherit" stroke-width="inherit"><title>Porter County</title></path><path id="county-18033" class="county feature" d="M663.854 239.509l.347 2.892-5.36.759-.586-4.903 5.359-.692z" vector-effect="non-scaling-stroke" fill="inherit" stroke="inherit" stroke-width="inherit"><title>DeKalb County</title></path><path id="county-18113" class="county feature" d="M658.255 238.257l.585 4.903-1.599.182-3.178.317-1.649-.36-.31-2.657-.192-1.617z" vector-effect="non-scaling-stroke" fill="inherit" stroke="inherit" stroke-width="inherit"><title>Noble County</title></path><path id="county-18099" class="county feature" d="M646.414 240.452l.085.81.59 4.909-.322.039-5.404.582-.483-4.9-.092-.813z" vector-effect="non-scaling-stroke" fill="inherit" stroke="inherit" stroke-width="inherit"><title>Marshall County</title></path><path id="county-18085" class="county feature" d="M652.104 240.642l.31 2.657.064 4.69-3.626.462-1.893-.595-.192-1.646.323-.039-.591-4.91z" vector-effect="non-scaling-stroke" fill="inherit" stroke="inherit" stroke-width="inherit"><title>Kosciusko County</title></path><path id="county-18149" class="county feature" d="M640.88 241.893l.483 4.9-6.427.613-.116-1.21 1.942-1.108.934-2.299 2.375-.813z" vector-effect="non-scaling-stroke" fill="inherit" stroke="inherit" stroke-width="inherit"><title>Starke County</title></path><path id="county-18183" class="county feature" d="M657.241 243.342l.163 4.886-4.277.531-.649-.77-.064-4.69 1.649.36z" vector-effect="non-scaling-stroke" fill="inherit" stroke="inherit" stroke-width="inherit"><title>Whitley County</title></path><path id="county-18073" class="county feature" d="M634.82 246.195l.116 1.211.461 4.874-.647 1.47-1.577.154.193 1.894-2.356.22-.948-9.03.742-.51 1.147-.944z" vector-effect="non-scaling-stroke" fill="inherit" stroke="inherit" stroke-width="inherit"><title>Jasper County</title></path><path id="county-18003" class="county feature" d="M664.243 242.751l.587 4.921.153 1.248-3.761.53-3.637.428-.18-1.65-.164-4.886 1.6-.182 5.36-.76z" vector-effect="non-scaling-stroke" fill="inherit" stroke="inherit" stroke-width="inherit"><title>Allen County</title></path><path id="county-18111" class="county feature" d="M631.01 256.018l-3.617.32-.458-5.128-.271-2.92 1.571-.068 1.827-1.234z" vector-effect="non-scaling-stroke" fill="inherit" stroke="inherit" stroke-width="inherit"><title>Newton County</title></path><path id="county-18049" class="county feature" d="M648.852 248.451l.077.82-3.083.381.163 1.622-4.173.421-.473-4.903 5.404-.582.192 1.646z" vector-effect="non-scaling-stroke" fill="inherit" stroke="inherit" stroke-width="inherit"><title>Fulton County</title></path><path id="county-18131" class="county feature" d="M641.363 246.792l.473 4.903-1.572.137-4.867.448-.461-4.874z" vector-effect="non-scaling-stroke" fill="inherit" stroke="inherit" stroke-width="inherit"><title>Pulaski County</title></path><path id="county-18169" class="county feature" d="M652.478 247.989l.65.77.79 6.529-3.16.37-1.042.124-.787-6.511-.077-.82z" vector-effect="non-scaling-stroke" fill="inherit" stroke="inherit" stroke-width="inherit"><title>Wabash County</title></path><path id="county-18069" class="county feature" d="M657.404 248.228l.181 1.65.564 4.916-1.586.193-2.645.3-.79-6.528z" vector-effect="non-scaling-stroke" fill="inherit" stroke="inherit" stroke-width="inherit"><title>Huntington County</title></path><path id="county-18103" class="county feature" d="M648.929 249.27l.787 6.512 1.042-.125.187 1.611-4.206.499-.73-6.493-.163-1.622z" vector-effect="non-scaling-stroke" fill="inherit" stroke="inherit" stroke-width="inherit"><title>Miami County</title></path><path id="county-18001" class="county feature" d="M665.423 252.556l.34 2.918-3.706.508-.835-6.533 3.76-.529z" vector-effect="non-scaling-stroke" fill="inherit" stroke="inherit" stroke-width="inherit"><title>Adams County</title></path><path id="county-18179" class="county feature" d="M661.222 249.45l.835 6.532-1.853.232-3.435.393-.206-1.62 1.586-.193-.564-4.916z" vector-effect="non-scaling-stroke" fill="inherit" stroke="inherit" stroke-width="inherit"><title>Wells County</title></path><path id="county-18181" class="county feature" d="M640.264 251.832l.322 3.283-2.324.196-.005 3.32-4.54.42-.35-3.253-.194-1.894 1.577-.154.647-1.47z" vector-effect="non-scaling-stroke" fill="inherit" stroke="inherit" stroke-width="inherit"><title>White County</title></path><path id="county-18017" class="county feature" d="M641.836 251.695l4.173-.421.73 6.493-2.925.325-.24-2.457-2.115.214-.873-.734-.322-3.283z" vector-effect="non-scaling-stroke" fill="inherit" stroke="inherit" stroke-width="inherit"><title>Cass County</title></path><path id="county-18007" class="county feature" d="M631.01 256.018l2.356-.22.351 3.253.18 1.633-6.078.53-.024-.265-.402-4.61z" vector-effect="non-scaling-stroke" fill="inherit" stroke="inherit" stroke-width="inherit"><title>Benton County</title></path><path id="county-18015" class="county feature" d="M640.586 255.115l.873.734 2.115-.214.24 2.457.221 2.43-4.469.443-.249-2.433-1.06.1.005-3.321z" vector-effect="non-scaling-stroke" fill="inherit" stroke="inherit" stroke-width="inherit"><title>Carroll County</title></path><path id="county-18053" class="county feature" d="M656.563 254.987l.206 1.62.432 3.512-1.887.202-3.973.453-.057-.534-.339-2.972-.187-1.61 3.16-.37z" vector-effect="non-scaling-stroke" fill="inherit" stroke="inherit" stroke-width="inherit"><title>Grant County</title></path><path id="county-18075" class="county feature" d="M666.23 259.58l.099.8-5.815.739-.17-1.355-.14-3.55 1.853-.232 3.707-.508z" vector-effect="non-scaling-stroke" fill="inherit" stroke="inherit" stroke-width="inherit"><title>Jay County</title></path><path id="county-18009" class="county feature" d="M660.204 256.214l.14 3.55-3.143.355-.432-3.512z" vector-effect="non-scaling-stroke" fill="inherit" stroke="inherit" stroke-width="inherit"><title>Blackford County</title></path><path id="county-18067" class="county feature" d="M651.284 260.24l-5.326.633.056.546-1.979-.896-.221-2.431 2.925-.325 4.206-.499z" vector-effect="non-scaling-stroke" fill="inherit" stroke="inherit" stroke-width="inherit"><title>Howard County</title></path><path id="county-18157" class="county feature" d="M638.257 258.632l1.06-.1.25 2.433.385 4.085-5.586.527-.257-2.845-.213-2.048-.179-1.633z" vector-effect="non-scaling-stroke" fill="inherit" stroke="inherit" stroke-width="inherit"><title>Tippecanoe County</title></path><path id="county-18171" class="county feature" d="M633.896 260.684l.213 2.048-1.875 1.217-2.64 2.925.506.75-1.795-.227-.486-6.183z" vector-effect="non-scaling-stroke" fill="inherit" stroke="inherit" stroke-width="inherit"><title>Warren County</title></path><path id="county-18023" class="county feature" d="M644.035 260.523l1.98.896.304 2.96.073.658-6.374.682-.066-.67-.386-4.084z" vector-effect="non-scaling-stroke" fill="inherit" stroke="inherit" stroke-width="inherit"><title>Clinton County</title></path><path id="county-18159" class="county feature" d="M651.284 260.24l.057.534.32 2.987-5.342.619-.305-2.961-.056-.546z" vector-effect="non-scaling-stroke" fill="inherit" stroke="inherit" stroke-width="inherit"><title>Tipton County</title></path><path id="county-18095" class="county feature" d="M655.314 260.321l.663 5.658.266 2.462-4.03.479-.552-5.16-.32-2.986z" vector-effect="non-scaling-stroke" fill="inherit" stroke="inherit" stroke-width="inherit"><title>Madison County</title></path><path id="county-18035" class="county feature" d="M657.2 260.12l3.144-.356.17 1.355.556 4.295-5.093.565-.663-5.658z" vector-effect="non-scaling-stroke" fill="inherit" stroke="inherit" stroke-width="inherit"><title>Delaware County</title></path><path id="county-18045" class="county feature" d="M634.11 262.732l.256 2.845.487 4.91-4.648.44-.105-3.304-.506-.749 2.64-2.925z" vector-effect="non-scaling-stroke" fill="inherit" stroke="inherit" stroke-width="inherit"><title>Fountain County</title></path><path id="county-18135" class="county feature" d="M666.329 260.38l.574 5.718-5.502.65-.331-1.334-.556-4.295z" vector-effect="non-scaling-stroke" fill="inherit" stroke="inherit" stroke-width="inherit"><title>Randolph County</title></path><path id="county-18057" class="county feature" d="M652.213 268.92l-1.025.42-4.264.467-.532-4.77-.073-.657 5.342-.62z" vector-effect="non-scaling-stroke" fill="inherit" stroke="inherit" stroke-width="inherit"><title>Hamilton County</title></path><path id="county-18107" class="county feature" d="M639.952 265.05l.066.669.481 4.796.107 1.088-4.448.395-1.158.098-.147-1.609-.487-4.91z" vector-effect="non-scaling-stroke" fill="inherit" stroke="inherit" stroke-width="inherit"><title>Montgomery County</title></path><path id="county-18011" class="county feature" d="M646.392 265.037l.532 4.77-1.217.164-5.208.544-.481-4.796z" vector-effect="non-scaling-stroke" fill="inherit" stroke="inherit" stroke-width="inherit"><title>Boone County</title></path><path id="county-18165" class="county feature" d="M630.1 267.623l.105 3.303 1.08 1.584.04 4.835-2.123.203-.478-5.173-.419-4.978z" vector-effect="non-scaling-stroke" fill="inherit" stroke="inherit" stroke-width="inherit"><title>Vermillion County</title></path><path id="county-18065" class="county feature" d="M661.07 265.414l.33 1.334.189 4.078-1.134.146-4.172.483-.04-3.014-.266-2.462z" vector-effect="non-scaling-stroke" fill="inherit" stroke="inherit" stroke-width="inherit"><title>Henry County</title></path><path id="county-18177" class="county feature" d="M666.903 266.098l.17 1.653.396 3.566-3.084.589-2.128.227-.668-1.307-.188-4.078z" vector-effect="non-scaling-stroke" fill="inherit" stroke="inherit" stroke-width="inherit"><title>Wayne County</title></path><path id="county-18121" class="county feature" d="M634.853 270.487l.147 1.61 1.158-.099.415 4.919-2.643.203-2.604.225-.04-4.835-1.08-1.584z" vector-effect="non-scaling-stroke" fill="inherit" stroke="inherit" stroke-width="inherit"><title>Parke County</title></path><path id="county-18059" class="county feature" d="M656.243 268.44l.04 3.015-.332 1.708-4.508.51-.255-4.332 1.025-.421z" vector-effect="non-scaling-stroke" fill="inherit" stroke="inherit" stroke-width="inherit"><title>Hancock County</title></path><path id="county-18097" class="county feature" d="M651.188 269.34l.255 4.333.111 1.103-4.207.53-1.08.137-.56-5.472 1.217-.164z" vector-effect="non-scaling-stroke" fill="inherit" stroke="inherit" stroke-width="inherit"><title>Marion County</title></path><path id="county-18063" class="county feature" d="M645.707 269.971l.56 5.472-1.921.79-2.71.262-.491-.503-.539-4.389-.107-1.088z" vector-effect="non-scaling-stroke" fill="inherit" stroke="inherit" stroke-width="inherit"><title>Hendricks County</title></path><path id="county-18133" class="county feature" d="M640.606 271.603l.539 4.389.492.503-.186 2.502-3.603.288-1.072.094-.203-2.462-.415-4.919z" vector-effect="non-scaling-stroke" fill="inherit" stroke="inherit" stroke-width="inherit"><title>Putnam County</title></path><path id="county-18041" class="county feature" d="M664.385 271.906l.384 3.53-3.708.438-.606-4.902 1.134-.146.668 1.307z" vector-effect="non-scaling-stroke" fill="inherit" stroke="inherit" stroke-width="inherit"><title>Fayette County</title></path><path id="county-18139" class="county feature" d="M660.455 270.972l.606 4.902.158 1.353-4.713.534-.555-4.598.332-1.708z" vector-effect="non-scaling-stroke" fill="inherit" stroke="inherit" stroke-width="inherit"><title>Rush County</title></path><path id="county-18161" class="county feature" d="M667.47 271.317l.346 2.977.09.855-3.137.287-.384-3.53z" vector-effect="non-scaling-stroke" fill="inherit" stroke="inherit" stroke-width="inherit"><title>Union County</title></path><path id="county-18145" class="county feature" d="M655.951 273.163l.555 4.598-.57 2.01-3.803.46-.579-5.455-.111-1.103z" vector-effect="non-scaling-stroke" fill="inherit" stroke="inherit" stroke-width="inherit"><title>Shelby County</title></path><path id="county-18081" class="county feature" d="M651.554 274.776l.58 5.454-1.894.26-2.355.292-.538-5.476z" vector-effect="non-scaling-stroke" fill="inherit" stroke="inherit" stroke-width="inherit"><title>Johnson County</title></path><path id="county-18109" class="county feature" d="M647.347 275.306l.538 5.476-1.846.225-3.565.207-.248-2.296-.775.079.186-2.502 2.709-.262 1.92-.79z" vector-effect="non-scaling-stroke" fill="inherit" stroke="inherit" stroke-width="inherit"><title>Morgan County</title></path><path id="county-18167" class="county feature" d="M633.93 277.12l-.405 1.678.423 4.911-5.192.462.886-1.754-.217-2.425-.223-2.444 2.124-.203z" vector-effect="non-scaling-stroke" fill="inherit" stroke="inherit" stroke-width="inherit"><title>Vigo County</title></path><path id="county-18021" class="county feature" d="M636.573 276.917l.203 2.462 1.072-.094.2 2.464-1.586.144.3 3.277-2.667.177-.147-1.638-.423-4.911.405-1.678z" vector-effect="non-scaling-stroke" fill="inherit" stroke="inherit" stroke-width="inherit"><title>Clay County</title></path><path id="county-18047" class="county feature" d="M664.769 275.436l3.138-.287.423 4.065-3.51.372-2.166.228-1.028.876-.407-3.463-.158-1.353z" vector-effect="non-scaling-stroke" fill="inherit" stroke="inherit" stroke-width="inherit"><title>Franklin County</title></path><path id="county-18119" class="county feature" d="M641.45 278.997l.776-.08.248 2.297-.756.296.35 3.192-5.307.468-.299-3.277 1.586-.144-.2-2.464z" vector-effect="non-scaling-stroke" fill="inherit" stroke="inherit" stroke-width="inherit"><title>Owen County</title></path><path id="county-18031" class="county feature" d="M661.219 277.227l.407 3.463-1.892 1.59-1.641 1.354-1.745.253-.412-4.117.57-2.009z" vector-effect="non-scaling-stroke" fill="inherit" stroke="inherit" stroke-width="inherit"><title>Decatur County</title></path><path id="county-18105" class="county feature" d="M646.04 281.007l.719 5.45.737-.084.122 1.085-5.22.496-.33-3.252-.35-3.192.756-.296z" vector-effect="non-scaling-stroke" fill="inherit" stroke="inherit" stroke-width="inherit"><title>Monroe County</title></path><path id="county-18005" class="county feature" d="M655.936 279.77l.412 4.117-1.609.208.133 1.135-.827.609-3.151.154-.654-5.502 1.893-.26z" vector-effect="non-scaling-stroke" fill="inherit" stroke="inherit" stroke-width="inherit"><title>Bartholomew County</title></path><path id="county-18013" class="county feature" d="M650.24 280.49l.654 5.503-3.398.38-.737.085-.72-5.45 1.846-.226z" vector-effect="non-scaling-stroke" fill="inherit" stroke="inherit" stroke-width="inherit"><title>Brown County</title></path><path id="county-18137" class="county feature" d="M664.82 279.586l-.171 6.837-.012.351-.926.406-3.457.406-.52-5.305 1.892-1.59 1.028-.877z" vector-effect="non-scaling-stroke" fill="inherit" stroke="inherit" stroke-width="inherit"><title>Ripley County</title></path><path id="county-18029" class="county feature" d="M664.82 279.586l3.51-.372.432 3.741-.66 1.492-3.453 1.976z" vector-effect="non-scaling-stroke" fill="inherit" stroke="inherit" stroke-width="inherit"><title>Dearborn County</title></path><path id="county-18153" class="county feature" d="M633.948 283.71l.147 1.637.458 4.957-4.035.468-1.946-4.654.184-1.947z" vector-effect="non-scaling-stroke" fill="inherit" stroke="inherit" stroke-width="inherit"><title>Sullivan County</title></path><path id="county-18079" class="county feature" d="M660.254 287.586l-3.216 2.205-1.583.322-.583-4.883-.133-1.135 1.61-.208 1.744-.253 1.641-1.353z" vector-effect="non-scaling-stroke" fill="inherit" stroke="inherit" stroke-width="inherit"><title>Jennings County</title></path><path id="county-18055" class="county feature" d="M636.761 285.17l5.307-.468.33 3.252.152 1.645-3.177.32-2.782.267-2.038.118-.458-4.957z" vector-effect="non-scaling-stroke" fill="inherit" stroke="inherit" stroke-width="inherit"><title>Greene County</title></path><path id="county-18071" class="county feature" d="M654.872 285.23l.583 4.883-1.19 1.513-1.437-.484-4.167.514-.525-4.254-.518.056-.122-1.085 3.398-.38 3.151-.154z" vector-effect="non-scaling-stroke" fill="inherit" stroke="inherit" stroke-width="inherit"><title>Jackson County</title></path><path id="county-18115" class="county feature" d="M668.491 286.87l-3.859.406.005-.502.012-.351 3.453-1.976z" vector-effect="non-scaling-stroke" fill="inherit" stroke="inherit" stroke-width="inherit"><title>Ohio County</title></path><path id="county-18093" class="county feature" d="M647.618 287.458l.518-.056.525 4.254-.334 1.47-5.374.567-.403-4.094-.151-1.645z" vector-effect="non-scaling-stroke" fill="inherit" stroke="inherit" stroke-width="inherit"><title>Lawrence County</title></path><path id="county-18155" class="county feature" d="M668.491 286.87l1.174.69-.135 1.408-2.922.768-2.4 1.61-.497-4.166.926-.406-.005.502z" vector-effect="non-scaling-stroke" fill="inherit" stroke="inherit" stroke-width="inherit"><title>Switzerland County</title></path><path id="county-18077" class="county feature" d="M663.711 287.18l.497 4.167-1.98-.63-1.648.684.593 2.28-2.073-.147-.17-1.357-1.726-.913-.166-1.473 3.216-2.205z" vector-effect="non-scaling-stroke" fill="inherit" stroke="inherit" stroke-width="inherit"><title>Jefferson County</title></path><path id="county-18083" class="county feature" d="M636.591 290.186l-1.94 2.024-.281 2.193.786 2.71-3.153.525-1.796 1.675-2.056.907-.26-.897 1.51-1.103-.177-1.004 1.952-3.443-.692-2.051.034-.95 4.035-.468z" vector-effect="non-scaling-stroke" fill="inherit" stroke="inherit" stroke-width="inherit"><title>Knox County</title></path><path id="county-18101" class="county feature" d="M642.55 289.6l.403 4.093.306 3.006-3.446.733-.44-7.514z" vector-effect="non-scaling-stroke" fill="inherit" stroke="inherit" stroke-width="inherit"><title>Martin County</title></path><path id="county-18027" class="county feature" d="M639.813 297.432l-2.152.03-2.505-.349-.786-2.71.281-2.193 1.94-2.024 2.782-.268z" vector-effect="non-scaling-stroke" fill="inherit" stroke="inherit" stroke-width="inherit"><title>Daviess County</title></path><path id="county-18143" class="county feature" d="M657.038 289.79l.166 1.474 1.726.913.17 1.357-3.21.375-.696.901-.57-.207-.36-2.977 1.191-1.513z" vector-effect="non-scaling-stroke" fill="inherit" stroke="inherit" stroke-width="inherit"><title>Scott County</title></path><path id="county-18175" class="county feature" d="M654.264 291.626l.36 2.977.57.207-1.946 1.587.123 1.318-.552.067-3.206.243-.777.076-.509-4.975.334-1.47 4.167-.514z" vector-effect="non-scaling-stroke" fill="inherit" stroke="inherit" stroke-width="inherit"><title>Washington County</title></path><path id="county-18117" class="county feature" d="M648.327 293.126l.51 4.975.05.54-5.375.527-.253-2.47-.306-3.005z" vector-effect="non-scaling-stroke" fill="inherit" stroke="inherit" stroke-width="inherit"><title>Orange County</title></path><path id="county-18019" class="county feature" d="M661.173 293.68l.064 1.177-2.658 3.015-1.252 2.265-.771-.3-.473-2.148-2.712.026-.123-1.318 1.946-1.587.696-.9 3.21-.376z" vector-effect="non-scaling-stroke" fill="inherit" stroke="inherit" stroke-width="inherit"><title>Clark County</title></path><path id="county-18125" class="county feature" d="M637.66 297.462l.49 5.295-3.55.074-.215-2.52-1.318.213-1.064-2.886 3.153-.525z" vector-effect="non-scaling-stroke" fill="inherit" stroke="inherit" stroke-width="inherit"><title>Pike County</title></path><path id="county-18051" class="county feature" d="M634.6 302.83l.072.833-2.11.88-3.208.226-1.704-.989-2.689.196-.093-.489 1.114-.31 2.17-2.957 2.055-.907 1.796-1.675 1.064 2.886 1.318-.214z" vector-effect="non-scaling-stroke" fill="inherit" stroke="inherit" stroke-width="inherit"><title>Gibson County</title></path><path id="county-18037" class="county feature" d="M643.259 296.699l.253 2.469.274 2.468-1.513 1.246-3.268.343-.856-.468-.488-5.295 2.152-.03z" vector-effect="non-scaling-stroke" fill="inherit" stroke="inherit" stroke-width="inherit"><title>Dubois County</title></path><path id="county-18025" class="county feature" d="M649.613 298.025l.056 3.7-.676.934-1.786 1.325-.15-1.606-1.6.147-.1-1.106-1.57.217-.275-2.468 5.374-.526-.05-.541z" vector-effect="non-scaling-stroke" fill="inherit" stroke="inherit" stroke-width="inherit"><title>Crawford County</title></path><path id="county-18061" class="county feature" d="M652.819 297.782l.177 1.636 2.21 2.653-.359 3.292-.709.209-2.634.057-1.362-.727-1.149-2.243.676-.934-.056-3.7z" vector-effect="non-scaling-stroke" fill="inherit" stroke="inherit" stroke-width="inherit"><title>Harrison County</title></path><path id="county-18043" class="county feature" d="M653.371 297.715l2.712-.026.473 2.147-1.35 2.235-2.21-2.653-.177-1.636z" vector-effect="non-scaling-stroke" fill="inherit" stroke="inherit" stroke-width="inherit"><title>Floyd County</title></path><path id="county-18123" class="county feature" d="M647.207 303.984l-.289 1.458-.061 2.27-1.95 1.776.061-1.027-1.554-.127-1.086-1.538.589-.054-.644-3.86 1.513-1.246 1.57-.217.1 1.106 1.6-.147z" vector-effect="non-scaling-stroke" fill="inherit" stroke="inherit" stroke-width="inherit"><title>Perry County</title></path><path id="county-18173" class="county feature" d="M638.15 302.757l.855.468-.643 1.68-2.502 3.872.077.884-.525-.327-2.236-.597-.614-4.195 2.11-.879-.071-.832z" vector-effect="non-scaling-stroke" fill="inherit" stroke="inherit" stroke-width="inherit"><title>Warrick County</title></path><path id="county-18129" class="county feature" d="M629.354 304.77l.259 5.103-3.289.21.439 1.753-1.749.296-1.074-1.646 2.2-5.332-1.179-1.178 2.69-.196z" vector-effect="non-scaling-stroke" fill="inherit" stroke="inherit" stroke-width="inherit"><title>Posey County</title></path><path id="county-18147" class="county feature" d="M642.273 302.882l.644 3.86-.589.054-2.279 1.508-1.219 2.693-2.893-1.336-.077-.884 2.502-3.872.643-1.68z" vector-effect="non-scaling-stroke" fill="inherit" stroke="inherit" stroke-width="inherit"><title>Spencer County</title></path><path id="county-18163" class="county feature" d="M632.562 304.542l.614 4.195-.823.726-1.386-1.153.007 2.687-1.361-1.124-.259-5.104z" vector-effect="non-scaling-stroke" fill="inherit" stroke="inherit" stroke-width="inherit"><title>Vanderburgh County</title></path></g><path id="counties-mesh" class="counties mesh" d="M651.361 234.623l.551 4.402.192 1.617-5.605.62-.085-.81-.597-5.262m.597 5.262l-5.626.627.092.814-.809.083.11-4.104-.712-2.015m.602 6.119l-2.375.813-.934 2.3-1.942 1.106-.883-8.86 1.392-1.083 4.14-.395 4.097-.43 2.25-.237 3.823-.38 1.722-.187 5.05-.576 1.312-.145 5.102-.599.402 1.162.387 3.1-5.359.692-.532-4.355m5.89 3.663l.24 1.944.348 2.892-5.36.759-.586-4.903-6.343.768m-3.06 9.426l.077.82-3.083.381.163 1.622-4.173.421-.473-4.903-6.427.614-.116-1.21-2.87-.662-1.146.944m-.713-7.15l.713 7.15-.742.51-1.827 1.234-1.571.069-.222-2.478-.267-3.158-.379-4.517 1.32.912 2.975.278 3.846-1.993m24.903 5.825l-1.599.182-3.178.317-1.649-.36-.31-2.657m-5.605.62l.59 4.909-.322.039-5.404.582-.483-4.9m11.534 1.407l.064 4.69-3.626.462-1.893-.595-.192-1.646m-15.757 9.808l-3.617.32-.458-5.128-.271-2.92m30.577-4.948l.163 4.886-4.277.531-.649-.77m-17.542-.583l.461 4.874-.647 1.47-1.577.154.193 1.894-2.356.22-.948-9.03m34.14-4.587l.04.35.588 4.921.153 1.248-3.761.53-3.637.428-.18-1.65m-15.57 3.467l-1.57.137-4.868.448m17.73-3.52l.79 6.528-3.16.37-1.04.124-.788-6.511m-15.212 9.78l.18 1.633-6.078.53-.024-.265-.402-4.61m30.192-6.46l.564 4.915-1.586.193-2.645.3m-3.16.37l.187 1.611-4.206.499-.73-6.493m18.974-2.354l.44 3.636.34 2.918-3.706.508-.835-6.533m.835 6.533l-1.853.232-3.435.393-.206-1.62m-16.299-3.155l.322 3.283-2.324.196-.005 3.32-4.54.42-.35-3.253m13.372 1.969l-2.925.325-.24-2.457-2.115.214-.873-.734m3.228 2.977l.221 2.43-4.469.443-.249-2.433-1.06.1m18.512-2.025l.432 3.512-1.887.202-3.973.453-.057-.534-.339-2.972m14.819-1.794l.465 4.107.1.798-5.815.74-.17-1.355-.14-3.55m.14 3.55l-3.143.355m-5.917.12l-5.326.634.056.546-1.979-.896m-4.469.442l.386 4.085-5.586.527-.257-2.845-.213-2.048m-3.69 10.242l1.08 1.584.04 4.835-2.124.203-.478-5.173-.419-4.978-.486-6.183m6.29 1.518l-1.875 1.217-2.64 2.925.506.75-1.795-.227m17.71-5.978l.304 2.96.073.658-6.374.682-.066-.67m11.389-4.275l.32 2.987-5.342.619m8.995-4.059l.663 5.658.266 2.462-4.03.479-.552-5.16m8.853-2.641l.556 4.295-5.093.565m-21.61-.402l.486 4.91-4.648.44-.105-3.304m36.803-1.525l-5.502.65-.331-1.334m-8.857 3.506l-1.025.42-4.264.467-.532-4.77m-6.374.682l.481 4.796.107 1.088-4.448.395-1.158.098-.147-1.609m12.071-.68l-1.217.164-5.208.544m20.902-3.767l.188 4.078-1.134.146-4.172.483-.04-3.014m10.086-8.062l.574 5.72.17 1.652.396 3.566-3.084.589-2.128.227-.668-1.307m-25.431 1.172l.415 4.919-2.643.203-2.604.225m24.957-5.89l-.332 1.708-4.508.51-.255-4.332m.255 4.332l.111 1.103-4.207.53-1.08.137-.56-5.472m.56 5.472l-1.921.79-2.71.262-.491-.503-.539-4.389m-6.676 5.517l-.405 1.678.423 4.911-5.192.462.886-1.754-.217-2.425-.223-2.444m12.435-1.053l-.186 2.502-3.603.288-1.072.094-.203-2.462m27.812-5.011l.384 3.53-3.708.438-.606-4.902m.606 4.902l.158 1.353-4.713.534-.555-4.598m11.518-1.846l.347 2.977.09.855-3.137.287m-8.263 2.325l-.57 2.01-3.803.46-.579-5.455m.58 5.454l-1.894.26-2.355.292-.538-5.476m.538 5.476l-1.846.225-3.565.207-.248-2.296-.775.079m-3.603.288l.2 2.464-1.586.144.3 3.277-2.667.177-.147-1.638m33.959-8.56l.423 4.065-3.51.372-2.166.228-1.028.876-.407-3.463m-27.124 8.12l.458 4.957-4.035.468-1.946-4.654.184-1.947m13.718-2.957l-.756.296.35 3.192-5.307.468m24.865-4.48l-1.892 1.59-1.641 1.354-1.745.253-.412-4.117m-9.897 1.237l.72 5.45.737-.084.122 1.085-5.22.496-.33-3.252m14.28-.815l-1.609.208.133 1.135-.827.609-3.151.154-.654-5.502m.654 5.502l-3.398.38m17.324-6.787l-.171 6.837-.012.351-.926.406-3.457.406-.52-5.305m8.596-3.067l.432 3.741-.66 1.492-3.453 1.976m-4.395 1.163l-3.216 2.205-1.583.322-.583-4.883m-18.28 4.956l-1.941 2.024-.281 2.193.786 2.71-3.153.525-1.796 1.675-2.056.907-.26-.897 1.51-1.103-.177-1.004 1.952-3.443-.692-2.051.034-.95m11.88-2.818l.152 1.645-3.177.32-2.782.267-2.038.118m20.902-.19l-1.19 1.512-1.437-.484-4.167.514-.525-4.254-.518.056m20.873-.587l-3.859.405.005-.502m-15.976 4.882l-.334 1.47-5.374.567-.403-4.094m25.552-5.152l.39 2.424 1.173.688-.135 1.41-2.922.767-2.4 1.61-.497-4.166m.497 4.167l-1.98-.63-1.648.684.593 2.28-2.073-.147-.17-1.357-1.726-.913-.166-1.473m-14.085 3.902l.306 3.006-3.446.733-.44-7.514m.44 7.514l-2.152.03-2.505-.349m23.944-3.58l-3.21.376-.696.901-.57-.207-.36-2.977m.93 3.184l-1.946 1.587.123 1.318-.552.067-3.206.243-.777.076-.509-4.975m.51 4.975l.05.54-5.375.527-.253-2.47m17.914-3.017l.064 1.176-2.658 3.015-1.252 2.265-.771-.3-.473-2.148-2.712.026m-18.77 5.116l.07.832-2.11.88-3.207.226-1.704-.989-2.689.196-.093-.489 1.114-.31 2.17-2.957m9.509-2.758l.488 5.295-3.548.074-.216-2.52-1.318.213-1.064-2.886m11.509 1.53l.274 2.468-1.513 1.246-3.268.343-.856-.468m11.464-4.732l.056 3.7-.676.934-1.786 1.325-.15-1.606-1.6.147-.1-1.106-1.57.217m9.032-3.854l.177 1.636 2.21 2.653-.359 3.292-.709.209-2.634.057-1.362-.727-1.149-2.243m7.563-2.823l-1.35 2.235m-7.999 1.913l-.289 1.458-.061 2.27-1.95 1.776.061-1.027-1.554-.127-1.086-1.538.589-.054-.644-3.86m-12.919 1.887l.259 5.104-3.289.21.439 1.753-1.749.296-1.074-1.646 2.2-5.332-1.179-1.178m14.044-.751l-.643 1.68-2.502 3.872.077.884-.525-.327-2.236-.597-.614-4.195m9.766 2.254l-2.279 1.508-1.219 2.693-2.893-1.336m-2.761-.924l-.823.726-1.386-1.153.007 2.687-1.361-1.124" vector-effect="non-scaling-stroke" fill="inherit" stroke="inherit" stroke-width="inherit"/></svg>