<svg xmlns="http://www.w3.org/2000/svg" version="1.2" id="root" viewBox="594.9319323773258 323.3425665907837 126.03973381046649 43.93654041484808"><g id="counties"><path id="county-47161" class="county feature" d="M631.792 333.545l.778-.087 1.172 5.014-3.34 1.03-2.407-.269-.15-.12-1.153-2.494-.533-3.369z" vector-effect="non-scaling-stroke" fill="inherit" stroke="inherit" stroke-width="inherit"><title>Stewart County</title></path><path id="county-47147" class="county feature" d="M646.094 336.606l-.962 1.16-1.343-.504-1.083.358-2.116-1.435-.25-3.516.795-.09 4.391-.528 2.986-.013-1.56 4.455z" vector-effect="non-scaling-stroke" fill="inherit" stroke="inherit" stroke-width="inherit"><title>Robertson County</title></path><path id="county-47165" class="county feature" d="M653.796 331.391l-.06 2.895-.538 2.707-2.479.478-1.944 1.909-2.681-2.774.858-.113 1.56-4.455 2.205-.54z" vector-effect="non-scaling-stroke" fill="inherit" stroke="inherit" stroke-width="inherit"><title>Sumner County</title></path><path id="county-47125" class="county feature" d="M640.34 332.669l.25 3.516-2.232 2.735-3.389.066-1.227-.514-1.172-5.014 4.51-.47z" vector-effect="non-scaling-stroke" fill="inherit" stroke="inherit" stroke-width="inherit"><title>Montgomery County</title></path><path id="county-47111" class="county feature" d="M659.843 333.414l-.03 1.666-2.26-.029-2.841-.049-.976-.716.06-2.895 3.44-.147 2.737-.163z" vector-effect="non-scaling-stroke" fill="inherit" stroke="inherit" stroke-width="inherit"><title>Macon County</title></path><path id="county-47137" class="county feature" d="M674.813 329.75l.964 1.38-3.26-.686-1.516.723-.716 2.836-2.69-2.048-.064-1.799 4.46-.305z" vector-effect="non-scaling-stroke" fill="inherit" stroke="inherit" stroke-width="inherit"><title>Pickett County</title></path><path id="county-47027" class="county feature" d="M667.596 331.955l-2.232.835-.61 1.913-3.34-1.894-1.57.605.129-2.333 5.198-.507 2.06-.373.3-.045z" vector-effect="non-scaling-stroke" fill="inherit" stroke="inherit" stroke-width="inherit"><title>Clay County</title></path><path id="county-47163" class="county feature" d="M716.31 326.017l-2.726 2.458-1.618.312-2.19-.62-3.516.764.622-3.179 4.63-.694.743-.108 1.432-.192 4.638-1.06z" vector-effect="non-scaling-stroke" fill="inherit" stroke="inherit" stroke-width="inherit"><title>Sullivan County</title></path><path id="county-47091" class="county feature" d="M720.972 323.343l-.381.51-.193 3.784-2.5 2.365-.158.43-2.14-1.62 1.292-2.215-.582-.58 2.015-2.32z" vector-effect="non-scaling-stroke" fill="inherit" stroke="inherit" stroke-width="inherit"><title>Johnson County</title></path><path id="county-47151" class="county feature" d="M682.565 329.027l.205 1.442-1.223 1.07.717 3.362-.482 1.349-.888 1.12-2.764-1.694-1.554-1.72.567-.533-1.366-2.293-.964-1.38.106-.01z" vector-effect="non-scaling-stroke" fill="inherit" stroke="inherit" stroke-width="inherit"><title>Scott County</title></path><path id="county-47025" class="county feature" d="M694.178 327.434l1.245 1.029.467 2.245-.826.845-3.144.987-.972.113-1.29-1.557-1.44.486-1.952-2.986 1.18-.103 3.738-.73z" vector-effect="non-scaling-stroke" fill="inherit" stroke="inherit" stroke-width="inherit"><title>Claiborne County</title></path><path id="county-47067" class="county feature" d="M701.35 326.532l2.276-.315-2.573.929-3.549 3.698-1.614-.136-.467-2.245-1.245-1.029z" vector-effect="non-scaling-stroke" fill="inherit" stroke="inherit" stroke-width="inherit"><title>Hancock County</title></path><path id="county-47013" class="county feature" d="M688.217 331.582l-1.102 2.983-.925.924-2.32-.031-.045 1.284-2.043-.492.482-1.35-.717-3.36 1.223-1.071-.205-1.442.507-.066 3.194-.365z" vector-effect="non-scaling-stroke" fill="inherit" stroke="inherit" stroke-width="inherit"><title>Campbell County</title></path><path id="county-47073" class="county feature" d="M706.882 325.752l-.622 3.18-.267.443-3.319 1.943-1.852 1.974-1.45-1.762-1.226 1.236-.642-1.922 3.549-3.698 2.573-.93z" vector-effect="non-scaling-stroke" fill="inherit" stroke="inherit" stroke-width="inherit"><title>Hawkins County</title></path><path id="county-47049" class="county feature" d="M675.777 331.13l1.366 2.293-.567.532-2.423 2.005-.159 2.372-2.821.666-.301-.083.437-1.025-1.024-3.887.716-2.836 1.516-.723z" vector-effect="non-scaling-stroke" fill="inherit" stroke="inherit" stroke-width="inherit"><title>Fentress County</title></path><path id="county-47133" class="county feature" d="M670.285 334.003l1.024 3.887-.437 1.025-4.648-1.22-1.26-1.101-.21-1.891.61-1.913 2.232-.835z" vector-effect="non-scaling-stroke" fill="inherit" stroke="inherit" stroke-width="inherit"><title>Overton County</title></path><path id="county-47087" class="county feature" d="M664.755 334.703l.21 1.89-1.674 1.921-2.42-.253-1.088-.85.03-2.33.03-1.667 1.572-.605z" vector-effect="non-scaling-stroke" fill="inherit" stroke="inherit" stroke-width="inherit"><title>Jackson County</title></path><path id="county-47019" class="county feature" d="M717.74 330.433l-1.736 3.348-2.243-.693-.711-1.35-1.294-.185.21-2.766 1.618-.312 2.726-2.458.582.58-1.292 2.214z" vector-effect="non-scaling-stroke" fill="inherit" stroke="inherit" stroke-width="inherit"><title>Carter County</title></path><path id="county-47131" class="county feature" d="M615.107 337.447l.117-.013.286 1.727-1.986.171.116 3.516-2.87.553-4.902.193 1.57-3.823.083-1.78z" vector-effect="non-scaling-stroke" fill="inherit" stroke="inherit" stroke-width="inherit"><title>Obion County</title></path><path id="county-47183" class="county feature" d="M619.818 337.104l.32 6.584-2.286 1.868-2.315-1.003-1.897-1.705-.116-3.516 1.986-.171-.286-1.727.15-.007z" vector-effect="non-scaling-stroke" fill="inherit" stroke="inherit" stroke-width="inherit"><title>Weakley County</title></path><path id="county-47095" class="county feature" d="M605.868 343.594l-2.147.664-1.073-1.202 2.396-.197-1.235-.97.97-.565-.116-3.041.81-.05.984-.09 1.064-.153-.084 1.781z" vector-effect="non-scaling-stroke" fill="inherit" stroke="inherit" stroke-width="inherit"><title>Lake County</title></path><path id="county-47079" class="county feature" d="M626.692 336.62l1.154 2.494-1.529.137.31 1.856-1.709 2.796-.023-.48-4.756.265-.32-6.584.41-.023z" vector-effect="non-scaling-stroke" fill="inherit" stroke="inherit" stroke-width="inherit"><title>Henry County</title></path><path id="county-47169" class="county feature" d="M653.736 334.286l.976.716 2.84.05-2.083 2.686-2.271-.745z" vector-effect="non-scaling-stroke" fill="inherit" stroke="inherit" stroke-width="inherit"><title>Trousdale County</title></path><path id="county-47021" class="county feature" d="M643.789 337.262l-.803 4.89-.691 1.636-1.916.099.249-2.473-.604-2.495-1.666.001 2.232-2.735 2.116 1.435zm-3.241 1.973z" vector-effect="non-scaling-stroke" fill="inherit" stroke="inherit" stroke-width="inherit"><title>Cheatham County</title></path><path id="county-47179" class="county feature" d="M711.966 328.787l-.21 2.766-1.168 2.037-2.18 1.427-.914-.827-.512-5.11-.99.295.268-.444 3.517-.763z" vector-effect="non-scaling-stroke" fill="inherit" stroke="inherit" stroke-width="inherit"><title>Washington County</title></path><path id="county-47173" class="county feature" d="M691.92 332.54l-.529 3.487-3.152-.008-1.124-1.454 1.102-2.983 1.44-.486 1.291 1.557z" vector-effect="non-scaling-stroke" fill="inherit" stroke="inherit" stroke-width="inherit"><title>Union County</title></path><path id="county-47159" class="county feature" d="M659.813 335.08l-.03 2.332 1.088.85-.19 2.038-.772.8-2.893.453-1.547-3.815 2.084-2.687z" vector-effect="non-scaling-stroke" fill="inherit" stroke="inherit" stroke-width="inherit"><title>Smith County</title></path><path id="county-47057" class="county feature" d="M695.89 330.708l1.614.136.642 1.922-1.095.003-1.751 2.554-1.362.086-1.38 2.063-1.167-1.445.53-3.487 3.143-.987z" vector-effect="non-scaling-stroke" fill="inherit" stroke="inherit" stroke-width="inherit"><title>Grainger County</title></path><path id="county-47037" class="county feature" d="M646.094 336.606l2.68 2.774 1.44 2.595-1.293 2.634-2.632-1.024-2.142-.11-1.357 1.327-.495-1.014.691-1.635.803-4.89 1.343.502z" vector-effect="non-scaling-stroke" fill="inherit" stroke="inherit" stroke-width="inherit"><title>Davidson County</title></path><path id="county-47059" class="county feature" d="M708.408 335.017l.032 1.067-.574-.412-1.999 1.749-.353 1.319-1.205-.273-4.572-3.858 1.085-1.317 1.852-1.974 3.319-1.943.99-.294.511 5.11z" vector-effect="non-scaling-stroke" fill="inherit" stroke="inherit" stroke-width="inherit"><title>Greene County</title></path><path id="county-47129" class="county feature" d="M676.576 333.955l1.554 1.721 2.764 1.695 1.738 1.961-1.407 1.37-3.31 1.87-.792-1.546-3.129-2.694.159-2.372z" vector-effect="non-scaling-stroke" fill="inherit" stroke="inherit" stroke-width="inherit"><title>Morgan County</title></path><path id="county-47083" class="county feature" d="M633.742 338.472l1.227.514-.526 3.014-3.558-.952-2.244.223-.646-2.038 2.407.268z" vector-effect="non-scaling-stroke" fill="inherit" stroke="inherit" stroke-width="inherit"><title>Houston County</title></path><path id="county-47005" class="county feature" d="M627.995 339.233l.646 2.038.599 2.234-1.07 3.414 1.324.138-.41 1.786-.078.484-3.144-.307-.591.033-.353-5.15 1.71-2.796-.31-1.856 1.528-.137z" vector-effect="non-scaling-stroke" fill="inherit" stroke="inherit" stroke-width="inherit"><title>Benton County</title></path><path id="county-47189" class="county feature" d="M653.198 336.993l2.271.745 1.547 3.815.92 2.272-2.046.34-2.389-.212-3.288-1.978-1.438-2.595 1.944-1.91z" vector-effect="non-scaling-stroke" fill="inherit" stroke="inherit" stroke-width="inherit"><title>Wilson County</title></path><path id="county-47063" class="county feature" d="M700.822 333.292l-1.085 1.317-.773 1.926-1.011-.874-2.653-.338 1.75-2.554 1.096-.003 1.226-1.236z" vector-effect="non-scaling-stroke" fill="inherit" stroke="inherit" stroke-width="inherit"><title>Hamblen County</title></path><path id="county-47043" class="county feature" d="M640.548 339.235zm-2.19-.315l1.666-.001.604 2.495-.25 2.473-.163 1.728-4.993-.193-.78-3.422.527-3.014z" vector-effect="non-scaling-stroke" fill="inherit" stroke="inherit" stroke-width="inherit"><title>Dickson County</title></path><path id="county-47141" class="county feature" d="M670.872 338.915l.3.083-2.093.959-.008 2.305-.784-.906-3.067-.613-1.88 1.476-2.659-1.919.19-2.039 2.42.253 1.674-1.92 1.259 1.1z" vector-effect="non-scaling-stroke" fill="inherit" stroke="inherit" stroke-width="inherit"><title>Putnam County</title></path><path id="county-47001" class="county feature" d="M687.115 334.565l1.124 1.454-1.978 2.482.593.536-1.913 1.061-.948 1.702-1.361-2.468-1.738-1.961.888-1.121 2.043.492.045-1.284 2.32.031z" vector-effect="non-scaling-stroke" fill="inherit" stroke="inherit" stroke-width="inherit"><title>Anderson County</title></path><path id="county-47171" class="county feature" d="M713.76 333.088l-2.649 1.99-1.059 1.96-1.537.414-.075-1.368-.032-1.067 2.18-1.427 1.168-2.037 1.294.186z" vector-effect="non-scaling-stroke" fill="inherit" stroke="inherit" stroke-width="inherit"><title>Unicoi County</title></path><path id="county-47085" class="county feature" d="M634.443 342l.779 3.422-2.42 1.877-.04 1.268-1.971.831-1.707-.555.41-1.786-1.323-.138 1.069-3.414-.6-2.234 2.245-.223z" vector-effect="non-scaling-stroke" fill="inherit" stroke="inherit" stroke-width="inherit"><title>Humphreys County</title></path><path id="county-47053" class="county feature" d="M617.852 345.556l.178 5.122-3.146.12-2.98-1.005-1.371-2.498.236-3.894 2.871-.553 1.897 1.705z" vector-effect="non-scaling-stroke" fill="inherit" stroke="inherit" stroke-width="inherit"><title>Gibson County</title></path><path id="county-47045" class="county feature" d="M610.533 347.295l-1.21 2.225-.927.169-1.058-1.168-3.493 1.036-1.05-1.771.315-1.585 1.219-.904-.608-1.04 2.147-.663 4.901-.193z" vector-effect="non-scaling-stroke" fill="inherit" stroke="inherit" stroke-width="inherit"><title>Dyer County</title></path><path id="county-47089" class="county feature" d="M695.3 335.323l2.653.338 1.01.874-.652 3.689-2.506-.196-3.23-1.758-.016-.798 1.379-2.063z" vector-effect="non-scaling-stroke" fill="inherit" stroke="inherit" stroke-width="inherit"><title>Jefferson County</title></path><path id="county-47093" class="county feature" d="M692.559 337.472l.017.798.44 1.207-1.87 1.855-.77.974-1.456-.48-2.829.752-.283.99-1.662-1.536-.153-.232.948-1.702 1.913-1.061-.593-.536 1.978-2.482 3.152.008z" vector-effect="non-scaling-stroke" fill="inherit" stroke="inherit" stroke-width="inherit"><title>Knox County</title></path><path id="county-47029" class="county feature" d="M704.309 338.467l-.54 3.007-1.737.265-2.442 1.727-1.279-3.242.653-3.69.773-1.925z" vector-effect="non-scaling-stroke" fill="inherit" stroke="inherit" stroke-width="inherit"><title>Cocke County</title></path><path id="county-47035" class="county feature" d="M673.994 338.332l3.13 2.694.79 1.547-1.32 1.742-1.867 1.421-5.047.508.002-.027-.328-.356.042-.111.585-2.286-.91-1.202.008-2.305 2.094-.96z" vector-effect="non-scaling-stroke" fill="inherit" stroke="inherit" stroke-width="inherit"><title>Cumberland County</title></path><path id="county-47017" class="county feature" d="M624.918 343.903l.353 5.15.591-.033.024.546-5.853.32-.502.708-1.5.084-.18-5.122 2.288-1.868 4.756-.265z" vector-effect="non-scaling-stroke" fill="inherit" stroke="inherit" stroke-width="inherit"><title>Carroll County</title></path><path id="county-47041" class="county feature" d="M663.34 342.22l.386 2.482-.576 1.024-3.037.168-2.178-2.069-.92-2.272 2.894-.452.772-.801z" vector-effect="non-scaling-stroke" fill="inherit" stroke="inherit" stroke-width="inherit"><title>DeKalb County</title></path><path id="county-47149" class="county feature" d="M655.89 344.165l-.317 4.78-.43 1.406-1.665-.37-.678.857-1.813-1.134-1.847.232-.743-.385.94-1.615-.416-3.327 1.292-2.634 3.288 1.978z" vector-effect="non-scaling-stroke" fill="inherit" stroke="inherit" stroke-width="inherit"><title>Rutherford County</title></path><path id="county-47185" class="county feature" d="M669.682 346.217l-.328-.356.328.356zm-.611-3.955l.91 1.202-.585 2.286-2.49-.204-2.493.73-1.263-.55.576-1.024-.385-2.483 1.879-1.476 3.067.613z" vector-effect="non-scaling-stroke" fill="inherit" stroke="inherit" stroke-width="inherit"><title>White County</title></path><path id="county-47187" class="county feature" d="M648.921 344.61l.416 3.326-.94 1.615-1.427.2-6.732-2.082-.023-2.054.164-1.728 1.916-.1.495 1.015 1.357-1.328 2.142.11z" vector-effect="non-scaling-stroke" fill="inherit" stroke="inherit" stroke-width="inherit"><title>Williamson County</title></path><path id="county-47145" class="county feature" d="M680.548 346.775l-.606.565-.53.06-.2-1.25-1.597-.589-1.021-1.246 1.32-1.742 3.311-1.87 1.407-1.371 1.361 2.468.153.232z" vector-effect="non-scaling-stroke" fill="inherit" stroke="inherit" stroke-width="inherit"><title>Roane County</title></path><path id="county-47155" class="county feature" d="M698.311 340.224l1.279 3.242.067.377-3.307 2.969-2.475.207-.924-2.54-1.804-3.147 1.868-1.855-.44-1.207 3.23 1.758z" vector-effect="non-scaling-stroke" fill="inherit" stroke="inherit" stroke-width="inherit"><title>Sevier County</title></path><path id="county-47033" class="county feature" d="M614.884 350.797l-1.384 2.483-.761-.347-3.059-.951-1.41-1.087.126-1.206.926-.17 1.21-2.224 1.373 2.498z" vector-effect="non-scaling-stroke" fill="inherit" stroke="inherit" stroke-width="inherit"><title>Crockett County</title></path><path id="county-47081" class="county feature" d="M640.215 345.615l.023 2.054-.065 2.389-1.456 1.375-1.731.99-1.968-.547-.998.92-1.375-.913.117-3.316.04-1.268 2.42-1.877z" vector-effect="non-scaling-stroke" fill="inherit" stroke="inherit" stroke-width="inherit"><title>Hickman County</title></path><path id="county-47015" class="county feature" d="M660.113 345.894l-1.28 2.127.143 1.397-1.526.412-1.877-.885.317-4.78 2.045-.34z" vector-effect="non-scaling-stroke" fill="inherit" stroke="inherit" stroke-width="inherit"><title>Cannon County</title></path><path id="county-47097" class="county feature" d="M608.396 349.689l-.126 1.206-.684-.05-1.198 4.653-1.74-1.068-2.195.02-2.122 2.258-.787-.88 1.46-.952-1.58-1.852 1.94-.507 1.713-1.538-.715-1.354 1.483-.068 3.493-1.036z" vector-effect="non-scaling-stroke" fill="inherit" stroke="inherit" stroke-width="inherit"><title>Lauderdale County</title></path><path id="county-47105" class="county feature" d="M680.947 347.915l-.019-.203.02.203zm-.399-1.14zm0 0l3.598-4.743 1.662 1.537.8 2.568-.677 1.112-1.63-.636-2.51.1-.93.9-.919-.273z" vector-effect="non-scaling-stroke" fill="inherit" stroke="inherit" stroke-width="inherit"><title>Loudon County</title></path><path id="county-47009" class="county feature" d="M693.875 347.02l-1.61.355-2.461 2.233-.126-.045-.881-1.615-1.112.434-1.754-1.133.677-1.112-.8-2.568.283-.991 2.83-.751 1.456.479.77-.974 1.804 3.147z" vector-effect="non-scaling-stroke" fill="inherit" stroke="inherit" stroke-width="inherit"><title>Blount County</title></path><path id="county-47177" class="county feature" d="M663.15 345.726l1.263.55.488 3.302.728 1.53-.739.107-4.027.578-1.887-2.375-.143-1.397 1.28-2.127z" vector-effect="non-scaling-stroke" fill="inherit" stroke="inherit" stroke-width="inherit"><title>Warren County</title></path><path id="county-47119" class="county feature" d="M646.97 349.75l-.555 3.009-1.6 2.686-2.472-.492-1.25.536-1.34-.095-.038-1.84-.998-2.121 1.456-1.375.065-2.389z" vector-effect="non-scaling-stroke" fill="inherit" stroke="inherit" stroke-width="inherit"><title>Maury County</title></path><path id="county-47039" class="county feature" d="M629.006 349.327l-.744 1.694.086 2.118 1.045 1.656-.325 1.944-.199.605-2.562.433-.75-.744-.185-1.98.663-1.573-.15-3.914-.023-.546z" vector-effect="non-scaling-stroke" fill="inherit" stroke="inherit" stroke-width="inherit"><title>Decatur County</title></path><path id="county-47135" class="county feature" d="M632.762 348.567l-.117 3.316 1.375.912-.686 2.444-3.8.77-.466.73.325-1.944-1.045-1.656-.086-2.118.744-1.694.078-.484 1.707.555z" vector-effect="non-scaling-stroke" fill="inherit" stroke="inherit" stroke-width="inherit"><title>Perry County</title></path><path id="county-47143" class="county feature" d="M677.615 345.561l-.605 3.825-.92.13-.689 2.257-1.402.733-1.887-.717.172-2.155 2.443-3.898 1.867-1.421z" vector-effect="non-scaling-stroke" fill="inherit" stroke="inherit" stroke-width="inherit"><title>Rhea County</title></path><path id="county-47175" class="county feature" d="M669.396 345.75l-.042.111.328.356-.002.027-2.119 3.996-1.932.868-.728-1.53-.488-3.303 2.494-.73z" vector-effect="non-scaling-stroke" fill="inherit" stroke="inherit" stroke-width="inherit"><title>Van Buren County</title></path><path id="county-47077" class="county feature" d="M625.886 349.566l.149 3.914-.663 1.572.184 1.981-1.785.227-.155-1.384-2.153-.192-1.74-1.303-.192-3.787.502-.709z" vector-effect="non-scaling-stroke" fill="inherit" stroke="inherit" stroke-width="inherit"><title>Henderson County</title></path><path id="county-47075" class="county feature" d="M612.739 352.933l.218 4.921-1.541.759-4.373.196-.655-3.311 1.198-4.653.684.05 1.41 1.087z" vector-effect="non-scaling-stroke" fill="inherit" stroke="inherit" stroke-width="inherit"><title>Haywood County</title></path><path id="county-47113" class="county feature" d="M618.03 350.678l1.501-.084.193 3.787-.804 1.943-2.39 1.333-3.573.197-.218-4.921.761.347 1.384-2.483z" vector-effect="non-scaling-stroke" fill="inherit" stroke="inherit" stroke-width="inherit"><title>Madison County</title></path><path id="county-47007" class="county feature" d="M674.727 345.736l-2.443 3.898-.172 2.155-1.138 2.108-2.944-2.286-.469-1.37 2.119-3.997z" vector-effect="non-scaling-stroke" fill="inherit" stroke="inherit" stroke-width="inherit"><title>Bledsoe County</title></path><path id="county-47121" class="county feature" d="M679.411 347.4l-2.942 5.941-1.155 1.32-1.315-2.155 1.402-.733.688-2.258.92-.129.606-3.825 1.597.589z" vector-effect="non-scaling-stroke" fill="inherit" stroke="inherit" stroke-width="inherit"><title>Meigs County</title></path><path id="county-47117" class="county feature" d="M649.14 349.936l.032 4.344 1.166 1.614-2.01 2.319-1.246-.083-2.267-2.685 1.6-2.686.555-3.008 1.427-.2z" vector-effect="non-scaling-stroke" fill="inherit" stroke="inherit" stroke-width="inherit"><title>Marshall County</title></path><path id="county-47031" class="county feature" d="M655.573 348.945l1.877.885 1.526-.412 1.887 2.375-.079 4.467-3.811-1-1.502.71-.098-1.486-.23-4.133z" vector-effect="non-scaling-stroke" fill="inherit" stroke="inherit" stroke-width="inherit"><title>Coffee County</title></path><path id="county-47003" class="county feature" d="M655.143 350.351l.23 4.133-2.617 2.005-1.293-.515-1.125-.08-1.166-1.614-.032-4.344 1.847-.232 1.813 1.134.678-.857z" vector-effect="non-scaling-stroke" fill="inherit" stroke="inherit" stroke-width="inherit"><title>Bedford County</title></path><path id="county-47123" class="county feature" d="M685.931 347.25l1.754 1.132 1.112-.434.88 1.615-.765 1.23.152 2.11-1.344 1.135-1.367-.306-1.04 1.262-3.23-1.099 1.318-1.013-.28-1.258-2.174-3.709-.019-.203-.066-.098.929-.902 2.51-.1z" vector-effect="non-scaling-stroke" fill="inherit" stroke="inherit" stroke-width="inherit"><title>Monroe County</title></path><path id="county-47101" class="county feature" d="M638.717 351.433l.998 2.121.038 1.84-2.334-.035-1.81 1.286-2.275-1.406.686-2.444.998-.92 1.968.548z" vector-effect="non-scaling-stroke" fill="inherit" stroke="inherit" stroke-width="inherit"><title>Lewis County</title></path><path id="county-47167" class="county feature" d="M598.327 359.641l-.313.117-1.081-.892 1.115-.56zm8.06-4.143l.656 3.31-2.359.677-6.171.007-.157-2.836 1.975.052 2.122-2.258 2.195-.02z" vector-effect="non-scaling-stroke" fill="inherit" stroke="inherit" stroke-width="inherit"><title>Tipton County</title></path><path id="county-47107" class="county feature" d="M679.942 347.34l.92.274.066.098.02.203 2.173 3.71.28 1.257-1.318 1.013-3.024 1.208-2.59-1.762 2.942-5.94z" vector-effect="non-scaling-stroke" fill="inherit" stroke="inherit" stroke-width="inherit"><title>McMinn County</title></path><path id="county-47023" class="county feature" d="M623.771 357.26l.025.71-3.617.378-1.558 2.556-.937.07-1.153-3.317 2.39-1.333.803-1.943 1.74 1.303 2.152.192z" vector-effect="non-scaling-stroke" fill="inherit" stroke="inherit" stroke-width="inherit"><title>Chester County</title></path><path id="county-47153" class="county feature" d="M670.974 353.897l-1.983 4.147-1.266-2.137-1.665-.796.912-1.753-2.082-2.143.739-.107 1.932-.868.469 1.37z" vector-effect="non-scaling-stroke" fill="inherit" stroke="inherit" stroke-width="inherit"><title>Sequatchie County</title></path><path id="county-47061" class="county feature" d="M666.06 355.11l-2.208.813-.308 1.434-2.019.064-.74-1.161.078-4.467 4.027-.578 2.082 2.143z" vector-effect="non-scaling-stroke" fill="inherit" stroke="inherit" stroke-width="inherit"><title>Grundy County</title></path><path id="county-47181" class="county feature" d="M635.61 356.645l.176 7.454-5.704.447-.411-5.442-.802-1.76.2-.605.465-.73 3.8-.77z" vector-effect="non-scaling-stroke" fill="inherit" stroke="inherit" stroke-width="inherit"><title>Wayne County</title></path><path id="county-47099" class="county feature" d="M639.753 355.394l1.34.095.49 8.162-5.797.448-.176-7.454 1.809-1.286z" vector-effect="non-scaling-stroke" fill="inherit" stroke="inherit" stroke-width="inherit"><title>Lawrence County</title></path><path id="county-47065" class="county feature" d="M673.999 352.506l1.315 2.156-.85 3.132 1.002 2.537-4.3.544-1.49.201-1.65.19 1.215-1.238-.25-1.984 1.983-4.147 1.138-2.108z" vector-effect="non-scaling-stroke" fill="inherit" stroke="inherit" stroke-width="inherit"><title>Hamilton County</title></path><path id="county-47055" class="county feature" d="M644.815 355.445l2.267 2.685.385 5.105-5.683.404-.2.012-.49-8.162 1.249-.536z" vector-effect="non-scaling-stroke" fill="inherit" stroke="inherit" stroke-width="inherit"><title>Giles County</title></path><path id="county-47069" class="county feature" d="M612.957 357.854l3.574-.197 1.153 3.317.29 4.747-.548.041-2.942.225-2.736.207-.332-7.581z" vector-effect="non-scaling-stroke" fill="inherit" stroke="inherit" stroke-width="inherit"><title>Hardeman County</title></path><path id="county-47071" class="county feature" d="M628.87 357.344l.8 1.76.412 5.442-3.24.466-2.463.203-.266.018-.317-7.264-.025-.71 1.785-.226.751.744z" vector-effect="non-scaling-stroke" fill="inherit" stroke="inherit" stroke-width="inherit"><title>Hardin County</title></path><path id="county-47127" class="county feature" d="M655.471 355.97l-.456 3.954-1.32-1.914-2.173-1.221-.06-.815 1.294.515 2.617-2.005z" vector-effect="non-scaling-stroke" fill="inherit" stroke="inherit" stroke-width="inherit"><title>Moore County</title></path><path id="county-47157" class="county feature" d="M604.684 359.485l.311 7.163-1.21.09-8.853.541 1.422-.66.523-1.781 1.559-.495-.2-1.543-1.225-.56 1.003-2.482.313-.117.186-.15z" vector-effect="non-scaling-stroke" fill="inherit" stroke="inherit" stroke-width="inherit"><title>Shelby County</title></path><path id="county-47047" class="county feature" d="M611.416 358.613l.332 7.58-2.335.178-4.418.277-.311-7.163 2.359-.676z" vector-effect="non-scaling-stroke" fill="inherit" stroke="inherit" stroke-width="inherit"><title>Fayette County</title></path><path id="county-47109" class="county feature" d="M623.796 357.97l.317 7.263-6.138.488-.29-4.747.936-.07 1.558-2.556z" vector-effect="non-scaling-stroke" fill="inherit" stroke="inherit" stroke-width="inherit"><title>McNairy County</title></path><path id="county-47103" class="county feature" d="M651.463 355.974l.06.815 2.172 1.221 1.32 1.914.255 2.55-7.023.684-.78.077-.385-5.105 1.245.083 2.011-2.32z" vector-effect="non-scaling-stroke" fill="inherit" stroke="inherit" stroke-width="inherit"><title>Lincoln County</title></path><path id="county-47051" class="county feature" d="M660.784 356.26l.741 1.161.612 4.389-6.737.65-.13.013-.255-2.549.456-3.955 1.502-.71z" vector-effect="non-scaling-stroke" fill="inherit" stroke="inherit" stroke-width="inherit"><title>Franklin County</title></path><path id="county-47011" class="county feature" d="M679.059 355.103l.216 1.303-.738 3.56-.545.07-2.526.295-1.001-2.537.849-3.132 1.155-1.32z" vector-effect="non-scaling-stroke" fill="inherit" stroke="inherit" stroke-width="inherit"><title>Bradley County</title></path><path id="county-47115" class="county feature" d="M668.99 358.044l.25 1.984-1.214 1.239-1.979.188-3.91.355-.612-4.389 2.019-.064.308-1.434 2.208-.812 1.665.796z" vector-effect="non-scaling-stroke" fill="inherit" stroke="inherit" stroke-width="inherit"><title>Marion County</title></path><path id="county-47139" class="county feature" d="M685.312 354.994l.062 4.134-4.513.553-2.324.285.738-3.56-.216-1.303 3.024-1.208z" vector-effect="non-scaling-stroke" fill="inherit" stroke="inherit" stroke-width="inherit"><title>Polk County</title></path></g><path id="counties-mesh" class="counties mesh" d="M632.57 333.458l1.172 5.014-3.34 1.03-2.407-.269-.15-.12-1.153-2.494m21.82-4.58l-1.56 4.454-.858.113-.962 1.16-1.343-.504-1.083.358-2.116-1.435-.25-3.516m13.456-1.278l-.06 2.895-.538 2.707-2.479.478-1.944 1.909-2.681-2.774m-5.504-.421l-2.232 2.735-3.389.066-1.227-.514m26.23-7.391l-.129 2.333-.03 1.666-2.26-.029-2.841-.049-.976-.716m21.077-4.536l.964 1.38-3.26-.686-1.516.723-.716 2.836-2.69-2.048-.064-1.799m.065 1.799l-2.232.835-.61 1.913-3.34-1.894-1.57.605m58.481-9.716l-2.015 2.319-2.726 2.458-1.618.312-2.19-.62-3.516.764.622-3.179m-101.014 17.842l-2.147.664-1.073-1.202 2.396-.197-1.235-.97.97-.565-.116-3.041.81-.05.984-.09 1.064-.153 7.586-.543.117-.013.15-.007 4.444-.323.41-.023 6.464-.462-.533-3.369 5.633.295.778-.087 4.51-.47 3.26-.32.795-.088 4.391-.53 2.986-.012 2.205-.54 3.079-.107 3.44-.147 2.737-.163 5.198-.507 2.06-.373.3-.045 4.46-.305 2.822-.1.106-.011 7.646-.713.507-.066 3.194-.365 1.18-.103 3.738-.73 2.994-.329 7.173-.902 2.275-.315 3.256-.465 4.63-.694.743-.108 1.432-.192 4.638-1.06 2.647-.355-.381.51-.193 3.784-2.5 2.365-.158.43-2.14-1.62 1.292-2.215-.582-.58m-33.745 3.01l.205 1.442-1.223 1.07.717 3.362-.482 1.349-.888 1.12-2.764-1.694-1.554-1.72.567-.533-1.366-2.293m18.401-3.696l1.245 1.029.467 2.245-.826.845-3.144.987-.972.113-1.29-1.557-1.44.486-1.952-2.986m17.36-2.38l-2.573.93-3.549 3.698-1.614-.136m-7.673.874l-1.102 2.983-.925.924-2.32-.031-.045 1.284-2.043-.492m24.478-7.319l-.267.444-3.319 1.943-1.852 1.974-1.45-1.762-1.226 1.236-.642-1.922m-20.928 3.111l-2.423 2.005-.159 2.372-2.821.666-.301-.083.437-1.025-1.024-3.887m.587 4.912l-4.648-1.22-1.26-1.101-.21-1.891m.21 1.89l-1.673 1.921-2.42-.253-1.088-.85.03-2.33m57.927-4.648l-1.736 3.348-2.243-.693-.711-1.35-1.294-.185.21-2.766m-96.742 8.647l.286 1.727-1.986.171.116 3.516-2.87.553-4.902.193 1.57-3.823.083-1.78m12.297-.887l.32 6.584-2.286 1.868-2.315-1.003-1.897-1.705m14.206-3.734l-1.529.137.31 1.856-1.709 2.796-.023-.48-4.756.265m37.414-8.637l-2.084 2.687-2.271-.745m-9.41.27l-.802 4.89-.691 1.635-1.916.099.249-2.473-.604-2.495-1.666.001m73.398-7.367l-1.168 2.037-2.18 1.427-.914-.827-.512-5.11-.99.295m-14.072 3.165l-.529 3.487-3.152-.008-1.124-1.454m-26.244 3.696l-.19 2.039-.772.8-2.893.453-1.547-3.815m-44.936 9.557l-1.21 2.225-.927.169-1.058-1.168-3.493 1.036-1.05-1.771.315-1.585 1.219-.904-.608-1.04m94.425-11.491l-1.095.003-1.751 2.554-1.362.086-1.38 2.063-1.167-1.445m-42.616 3.353l1.438 2.595-1.292 2.634-2.632-1.024-2.142-.11-1.357 1.327-.495-1.014m66.113-8.771l.032 1.067-.574-.412-1.999 1.749-.353 1.319-1.205-.273-4.572-3.858 1.085-1.317m-19.928 4.079l1.738 1.961-1.407 1.37-3.31 1.87-.792-1.546-3.129-2.694m-39.025.654l-.526 3.014-3.558-.952-2.244.223-.646-2.038m.646 2.038l.599 2.234-1.07 3.414 1.324.138-.41 1.786-.078.484-3.144-.307-.591.033-.353-5.15m32.098-2.35l.92 2.272-2.046.34-2.389-.212-3.288-1.978m49.524-7.366l-.773 1.926-1.011-.874-2.653-.338m-54.921 8.564l-.164 1.728-4.993-.193-.78-3.422m36.73-3.002l-2.093.959-.008 2.305-.784-.906-3.067-.613-1.88 1.476-2.659-1.919m27.558-4.28l-1.978 2.481.593.536-1.913 1.061-.948 1.702-1.361-2.468m31.129-6.244l-2.65 1.99-1.059 1.96-1.537.414-.075-1.368m-73.218 9.338l-2.42 1.877-.04 1.268-1.971.831-1.707-.555m-11.232-3.287l.178 5.122-3.146.12-2.98-1.005-1.371-2.498.236-3.894m88.195-6.866l-.653 3.689-2.506-.196-3.23-1.758-.016-.798m.017.798l.44 1.207-1.87 1.855-.77.974-1.456-.48-2.829.752-.283.99-1.662-1.536-.153-.232m20.316-3.333l-.54 3.007-1.737.265-2.442 1.727-1.279-3.242m-20.396 2.349l-1.321 1.742-1.867 1.421-5.047.508.002-.027-.328-.356.042-.111.585-2.286-.91-1.202m-43.209 6.758l.024.546-5.853.32-.502.708-1.5.084m45.31-8.459l.385 2.483-.576 1.024-3.037.168-2.178-2.069m-2.045.34l-.317 4.78-.43 1.406-1.665-.37-.678.857-1.813-1.134-1.847.232-.743-.385.94-1.615-.416-3.327m20.761 1.608l-.328-.356m.042-.111l-2.49-.204-2.493.73-1.263-.55m-14.753 3.825l-1.427.2-6.732-2.082-.023-2.054m43.931-3.583l-3.598 4.743-.606.565-.53.06-.2-1.25-1.597-.589-1.021-1.246m22.996-.849l.067.377-3.307 2.969-2.475.207-.924-2.54-1.804-3.147m-92.82 18.31l-.313.116-1.081-.892 1.115-.56.279 1.335.186-.15-.157-2.835 1.975.052-.787-.88 1.46-.952-1.58-1.852 1.94-.507 1.713-1.538-.715-1.354 1.483-.068m11.039 1.24l-1.384 2.483-.761-.347-3.059-.951-1.41-1.087.126-1.206m31.842-2.02l-.065 2.389-1.456 1.375-1.731.99-1.968-.547-.998.92-1.375-.913.117-3.316m27.351-2.673l-1.28 2.127.143 1.397-1.526.412-1.877-.885m-47.303 1.95l-.684-.05-1.198 4.653-1.74-1.068-2.195.02-2.122 2.258m89.347-7.145l-.766 1.23.152 2.11-1.344 1.135-1.367-.306-1.04 1.262-3.23-1.099 1.318-1.013-.28-1.258-2.174-3.709-.019-.203.02.203m4.86-4.346l.8 2.568-.677 1.112-1.63-.636-2.51.1-.93.9-.919-.273m13.933-.32l-1.61.355-2.461 2.233-.126-.045-.881-1.615-1.112.434-1.754-1.133m-21.518-.974l.488 3.303.728 1.53-.739.107-4.027.578-1.887-2.375m-12.006.333l-.555 3.008-1.6 2.686-2.472-.492-1.25.536-1.34-.095-.038-1.84-.998-2.121m-9.711-2.106l-.744 1.694.086 2.118 1.045 1.656-.325 1.944-.199.605-2.562.433-.75-.744-.185-1.98.663-1.573-.15-3.914m8.135 3.23l-.686 2.443-3.8.77-.466.73m48.547-11.178l-.605 3.825-.92.13-.689 2.257-1.402.733-1.887-.717.172-2.155 2.443-3.898m-5.047.508l-2.119 3.996-1.932.868m-40.073 5.925l-1.785.227-.155-1.384-2.153-.192-1.74-1.303-.192-3.787m-6.792 2.339l.218 4.921-1.541.759-4.373.196-.655-3.311m13.336-1.117l-.804 1.943-2.39 1.333-3.573.197m59.155-6.065l-1.138 2.108-2.944-2.286-.469-1.37m11.85-2.84l-2.942 5.94-1.155 1.32-1.315-2.155m-24.86-2.57l.033 4.344 1.166 1.614-2.01 2.319-1.246-.083-2.267-2.685m16.048-3.652l-.079 4.467-3.811-1-1.502.71-.098-1.486-.23-4.133m.23 4.133l-2.617 2.005-1.293-.515-1.125-.08m30.59-8.182l-.066-.098m-41.109 7.78l-2.334-.035-1.81 1.286-2.275-1.406m-26.291 3.57l-2.359.676-6.171.007m83.57-5.597l-3.024 1.208-2.59-1.762m-52.698 3.919l.025.71-3.617.378-1.558 2.556-.937.07-1.153-3.317m54.443-3.76l-1.983 4.147-1.266-2.137-1.665-.796.912-1.753-2.082-2.143m1.17 3.896l-2.208.812-.308 1.434-2.019.064-.74-1.161m-25.175.385l.176 7.454-5.704.447-.411-5.442-.802-1.76m12.225-1.855l.49 8.162-5.798.448m39.528-9.437l-.85 3.132 1.002 2.537-4.3.544-1.49.201-1.65.19 1.215-1.238-.25-1.984m-21.91.086l.386 5.105-5.683.404-.2.012m-36.9-4.166l.311 7.163-1.21.09-8.853.541 1.422-.66.523-1.781 1.559-.495-.2-1.543-1.225-.56 1.003-2.482m19.67 1.216l.29 4.747-.548.041-2.942.225-2.736.207-.332-7.581m18.666 5.933l-3.24.466-2.463.203-.266.018-.317-7.264m31.675-2l-.456 3.955-1.32-1.914-2.173-1.221-.06-.815m-39.714 10.22l-2.335.177-4.418.277m19.118-1.415l-6.138.488m37.04-5.797l.255 2.55-7.023.684-.78.077m14.058-5.814l.612 4.389-6.737.65-.13.013m23.789-7.37l.216 1.303-.738 3.56-.545.07-2.526.295m-7.44.936l-1.979.188-3.91.355m23.175-6.816l.062 4.134-4.513.553-2.324.285" vector-effect="non-scaling-stroke" fill="inherit" stroke="inherit" stroke-width="inherit"/></svg>