<svg xmlns="http://www.w3.org/2000/svg" version="1.2" id="root" viewBox="243.62918336120197 214.45244088140475 83.1913854992473 104.44733882337744"><g id="counties"><path id="county-49005" class="county feature" d="M295.905 220.476l-.45 2.733.582 3.412-.678 2.691-1.255 1.858-2.112-.458-.985.842-2.028-1.303-.08-2.158-.903-.062-.43-3.229.507-3.028-1.114-2.767.756.13z" vector-effect="non-scaling-stroke" fill="inherit" stroke="inherit" stroke-width="inherit"><title>Cache County</title></path><path id="county-49033" class="county feature" d="M302.185 221.454l-1.236 7.838-.983 6.095-3.325 1.516.799-1.174-1.07-2.923-1.218-.289-1.048-1.347 1.255-1.858.678-2.691-.582-3.412.45-2.733z" vector-effect="non-scaling-stroke" fill="inherit" stroke="inherit" stroke-width="inherit"><title>Rich County</title></path><path id="county-49003" class="county feature" d="M288.98 230.251l-.98-.307-1.262 1.645-2.868-.497-4.348 4.212-4.457.674-17.084-3.16 3.533-18.366 14.107 2.545 11.338 2.01 1.114 2.767-.507 3.028.43 3.23.903.061z" vector-effect="non-scaling-stroke" fill="inherit" stroke="inherit" stroke-width="inherit"><title>Box Elder County</title></path><path id="county-49057" class="county feature" d="M288.98 230.251l2.027 1.303.985-.842 2.112.458 1.048 1.347-1.45 2.33-2.342.393-1.946-.892-.93 1.307-4.536-1.037-4.426.686 4.348-4.212 2.868.497 1.262-1.645z" vector-effect="non-scaling-stroke" fill="inherit" stroke="inherit" stroke-width="inherit"><title>Weber County</title></path><path id="county-49029" class="county feature" d="M296.641 236.903l-3.609.964-1.378 1.112 1.158 2.729-1.199 1.309-1.22-.552-1.152-1.377-.765-1.97.008-3.463.93-1.307 1.946.892 2.342-.394 1.45-2.329 1.217.29 1.07 2.922z" vector-effect="non-scaling-stroke" fill="inherit" stroke="inherit" stroke-width="inherit"><title>Morgan County</title></path><path id="county-49043" class="county feature" d="M299.966 235.387l-.758 4.718 13.794 2.133.655.098-.509 3.427-3.555-.948-1.7.641-4.052.286-1.279-.334-2.293.964-1.99 1.594-1.794.257-2.84-1.975-.156-1.199-1.607 1.479-.85-.335-.638-3.728 1.22.552 1.198-1.309-1.158-2.73 1.378-1.11 3.61-.965z" vector-effect="non-scaling-stroke" fill="inherit" stroke="inherit" stroke-width="inherit"><title>Summit County</title></path><path id="county-49011" class="county feature" d="M288.484 235.655l-.008 3.463.765 1.97-2.923.25-.588-2.002-4.025 2.146-2.183-6.178 4.426-.686z" vector-effect="non-scaling-stroke" fill="inherit" stroke="inherit" stroke-width="inherit"><title>Davis County</title></path><path id="county-49045" class="county feature" d="M281.705 241.482l.589 1.204-.312 4.702-.57.06-.295 2.85.311 2.65-.99 2.88-2.611 1.603-6.381-1.104-17.424-3.285.75-3.904 3.209-16.32 17.084 3.16 4.457-.674z" vector-effect="non-scaling-stroke" fill="inherit" stroke="inherit" stroke-width="inherit"><title>Tooele County</title></path><path id="county-49009" class="county feature" d="M325.95 250.644l-1.489-.781-.138-3.344-2.644-.363-1.56 2.036-1.111-1.795-4.185.563-1.362-1.076-.313-.121.509-3.427 13.164 1.829z" vector-effect="non-scaling-stroke" fill="inherit" stroke="inherit" stroke-width="inherit"><title>Daggett County</title></path><path id="county-49035" class="county feature" d="M289.241 241.088l1.153 1.377.638 3.728-.666.505-2.464.505-3.44 1.61-.555-1.014-1.925-.411.312-4.702-.59-1.204 4.026-2.146.588 2.002z" vector-effect="non-scaling-stroke" fill="inherit" stroke="inherit" stroke-width="inherit"><title>Salt Lake County</title></path><path id="county-49047" class="county feature" d="M325.95 250.644l-1.145 8.037-1.456 10.494-.42 3.04-.88.559-12.97-1.86.02-.136.077-1.836.995-2.454 1.82-1.699-1.16-.176 2.63-18.73 1.362 1.077 4.185-.563 1.11 1.795 1.56-2.036 2.645.363.138 3.344z" vector-effect="non-scaling-stroke" fill="inherit" stroke="inherit" stroke-width="inherit"><title>Uintah County</title></path><path id="county-49013" class="county feature" d="M313.148 245.763l.313.12-2.63 18.73-12.494-2.032-.224-1.689 2.156-14.52 2.293-.964 1.279.334 4.052-.286 1.7-.641z" vector-effect="non-scaling-stroke" fill="inherit" stroke="inherit" stroke-width="inherit"><title>Duchesne County</title></path><path id="county-49051" class="county feature" d="M300.27 246.372l-2.157 14.52-2.664-.444.118-.801-1.948-2.533.626-1.96-.89-2.439-1.552-.24-1.552-1.702-.647-1.763.762-2.312.666-.505.85.335 1.607-1.479.157 1.199 2.84 1.975 1.794-.257z" vector-effect="non-scaling-stroke" fill="inherit" stroke="inherit" stroke-width="inherit"><title>Wasatch County</title></path><path id="county-49049" class="county feature" d="M298.113 260.892l.224 1.689-5.469-.888-5.508-.899-2.192-2.931-2.435 2.267-1.775.182.863-1.967-1.382-2.517.99-2.88-.312-2.65.296-2.85.57-.06 1.924.41.556 1.015 3.439-1.61 2.464-.505-.762 2.312.647 1.763 1.552 1.702 1.553.24.889 2.44-.626 1.959 1.948 2.533-.118.801z" vector-effect="non-scaling-stroke" fill="inherit" stroke="inherit" stroke-width="inherit"><title>Utah County</title></path><path id="county-49023" class="county feature" d="M280.439 255.828l1.382 2.517-.863 1.967 1.775-.182 2.435-2.267 2.192 2.931.546 1.482-2.01.537-.652 4.372-.716 1.359-2.48-.392-1.521 1.023-2.489-.715.38-4.227-25.699-4.467 1.303-6.724 17.424 3.285 6.38 1.104z" vector-effect="non-scaling-stroke" fill="inherit" stroke="inherit" stroke-width="inherit"><title>Juab County</title></path><path id="county-49007" class="county feature" d="M298.337 262.581l12.494 2.032 1.16.176-1.82 1.699-.995 2.454-.077 1.836-14.862-2.304-.343-2.81-1.353-1.949.327-2.022z" vector-effect="non-scaling-stroke" fill="inherit" stroke="inherit" stroke-width="inherit"><title>Carbon County</title></path><path id="county-49039" class="county feature" d="M292.868 261.693l-.327 2.022-.705 4.419-.763-.126-1.29 8.1-7.858-1.313-2.23-.614.832-5.006 1.522-1.023 2.479.392.716-1.36.652-4.371 2.01-.537-.546-1.482z" vector-effect="non-scaling-stroke" fill="inherit" stroke="inherit" stroke-width="inherit"><title>Sanpete County</title></path><path id="county-49015" class="county feature" d="M309.1 270.778l-.021.137.065.853-2.225 4.677-1.469 5.311.86 2.195.088 4.897L288.082 286l.031-.19 1.67-9.702 1.29-8.1.763.126.705-4.419 1.353 1.95.343 2.809z" vector-effect="non-scaling-stroke" fill="inherit" stroke="inherit" stroke-width="inherit"><title>Emery County</title></path><path id="county-49027" class="county feature" d="M280.527 269.175l-.831 5.006-3.56 2.837-.354 2.57-1.462.732-1.945-.434-1.314 1.855-21.824-4.024.372-1.934 3.11-16.017 25.698 4.467-.379 4.227z" vector-effect="non-scaling-stroke" fill="inherit" stroke="inherit" stroke-width="inherit"><title>Millard County</title></path><path id="county-49019" class="county feature" d="M322.93 272.215l-.334 2.448-2.365 16.17-13.833-1.985-.089-4.897-.859-2.195 1.47-5.31 2.224-4.678-.065-.853 12.97 1.859z" vector-effect="non-scaling-stroke" fill="inherit" stroke="inherit" stroke-width="inherit"><title>Grand County</title></path><path id="county-49041" class="county feature" d="M289.783 276.108l-1.67 9.702-6.606-.933-10.696-1.985.25-1.151 1.314-1.855 1.945.434 1.462-.732.353-2.57 3.56-2.837 2.23.614z" vector-effect="non-scaling-stroke" fill="inherit" stroke="inherit" stroke-width="inherit"><title>Sevier County</title></path><path id="county-49001" class="county feature" d="M271.06 281.74l-.249 1.152 2.026 3.758-.645 1.945-1.485 1.17-.507-.039-22.473-4.152 1.51-7.857z" vector-effect="non-scaling-stroke" fill="inherit" stroke="inherit" stroke-width="inherit"><title>Beaver County</title></path><path id="county-49031" class="county feature" d="M281.507 284.877l-1.41 1.238-.773 5.102-8.617-1.452 1.485-1.17.645-1.945-2.026-3.758z" vector-effect="non-scaling-stroke" fill="inherit" stroke="inherit" stroke-width="inherit"><title>Piute County</title></path><path id="county-49055" class="county feature" d="M288.113 285.81l-.03.19 18.315 2.848-.227 2.52 1.319 3.546-.653.636-21.369-3.29-6.144-1.043.774-5.102 1.409-1.238z" vector-effect="non-scaling-stroke" fill="inherit" stroke="inherit" stroke-width="inherit"><title>Wayne County</title></path><path id="county-49037" class="county feature" d="M320.23 290.833l-.642 6.517-.691 5.079-1.05 7.404-1.278 9.067-13.98-1.981-10.933-1.767-9.66-1.512 3.722-1.33 3.219.12 2.324-2.991 1.639-.667.133-1.984 1.704-1.42 2.7-2.118 1.765-3.661 2.763.196 3.562-3.623 1.31-.612.653-.636-1.32-3.546.228-2.52z" vector-effect="non-scaling-stroke" fill="inherit" stroke="inherit" stroke-width="inherit"><title>San Juan County</title></path><path id="county-49017" class="county feature" d="M306.837 295.55l-1.31.612-3.562 3.623-2.763-.196-1.765 3.66-2.7 2.118-24.829-3.998-4.633-.943.782-4.891 1.592.306.131-1.622 1.734.304.686-4.797.507.039 8.617 1.452 6.144 1.042z" vector-effect="non-scaling-stroke" fill="inherit" stroke="inherit" stroke-width="inherit"><title>Garfield County</title></path><path id="county-49021" class="county feature" d="M270.2 289.726l-.686 4.797-1.734-.304-.131 1.622-1.592-.306-.782 4.89-3.14-.564-.145.81-2.049.114-3.099-.712.164-.864-3.188-.591.297-1.659-1.675-.052-6.685-1.27 1.972-10.063z" vector-effect="non-scaling-stroke" fill="inherit" stroke="inherit" stroke-width="inherit"><title>Iron County</title></path><path id="county-49053" class="county feature" d="M261.99 300.672l-1.64 9.273-16.72-3.11 2.125-11.198 6.685 1.27 1.675.052-.297 1.659 3.188.59-.164.865 3.1.712z" vector-effect="non-scaling-stroke" fill="inherit" stroke="inherit" stroke-width="inherit"><title>Washington County</title></path><path id="county-49025" class="county feature" d="M265.275 300.426l4.633.943 24.829 3.998-1.704 1.421-.133 1.984-1.639.667-2.324 2.992-3.22-.12-3.72 1.329-16.43-2.774-5.217-.92 1.64-9.274.146-.81z" vector-effect="non-scaling-stroke" fill="inherit" stroke="inherit" stroke-width="inherit"><title>Kane County</title></path></g><path id="counties-mesh" class="counties mesh" d="M295.905 220.476l-.45 2.733.582 3.412-.678 2.691-1.255 1.858-2.112-.458-.985.842-2.028-1.303-.08-2.158-.903-.062-.43-3.229.507-3.028-1.114-2.767m2.02 11.244l-.98-.307-1.26 1.645-2.869-.497-4.348 4.212-4.457.674-17.084-3.16 3.533-18.366 14.107 2.545 11.338 2.01.756.13 8.19 1.34 6.28.977-1.236 7.838-.983 6.095-3.325 1.516.799-1.174-1.07-2.923-1.218-.289-1.048-1.347m-12.4 10.312l.59 1.204-.312 4.702-.57.06-.295 2.85.311 2.65-.99 2.88-2.611 1.603-6.381-1.104-17.424-3.285.75-3.904 3.209-16.32m31.26 8.27l-2.923.25-.588-2.002-4.025 2.146-2.183-6.178m17.12 1.6l-3.61.963-1.378 1.112 1.158 2.729-1.199 1.309-1.22-.552-1.152-1.377-.765-1.97.008-3.463m25.173 6.68l-.509 3.428-3.555-.948-1.7.641-4.052.286-1.279-.334-2.293.964-1.99 1.594-1.794.257-2.84-1.975-.156-1.199-1.607 1.479-.85-.335-.638-3.728m35.557 8.179l-1.49-.781-.138-3.344-2.644-.363-1.56 2.036-1.111-1.795-4.185.563-1.362-1.076-.313-.121m-22.116.43l-.666.505-2.464.505-3.44 1.61-.555-1.014-1.925-.411m17.984-12l-.758 4.717 13.794 2.133.655.098 13.164 1.829-.87 6.479-1.146 8.037-1.456 10.494-.42 3.04-.88.559-12.97-1.86.02-.136.077-1.836.995-2.454 1.82-1.699-1.16-.176 2.63-18.73m-2.63 18.73l-12.494-2.032-.224-1.689 2.156-14.52m-2.156 14.52l-2.664-.444.118-.801-1.948-2.533.626-1.96-.89-2.439-1.552-.24-1.552-1.702-.647-1.763.762-2.312m7.97 15.883l-5.468-.888-5.508-.899-2.192-2.931-2.435 2.267-1.775.182.863-1.967-1.382-2.517m-.743 18.353l-3.56 2.837-.354 2.57-1.462.732-1.945-.434-1.314 1.855-21.824-4.024.372-1.934 3.11-16.017 1.303-6.724m33.338 7.752l.546 1.482-2.01.537-.652 4.372-.716 1.359-2.48-.392-1.521 1.023-2.489-.715.38-4.227-25.699-4.467m56.38 11.012l-14.862-2.304-.343-2.81-1.353-1.949.327-2.022m-.327 2.022l-.705 4.419-.763-.126-1.29 8.1-7.858-1.313-2.23-.614.832-5.006m28.552 1.74l.065.853-2.225 4.677-1.469 5.311.86 2.195.088 4.897L288.082 286l.031-.19 1.67-9.702m-1.67 9.702l-6.606-.933-10.696-1.985.25-1.151m-9.071 18.93l-1.64 9.274-16.72-3.11 2.125-11.198 1.972-10.063 1.51-7.857m21.574 5.175l2.026 3.758-.645 1.945-1.485 1.17-.507-.039-22.473-4.152m33.78-.697l-1.41 1.238-.773 5.102-8.617-1.452m52.222-17.55l-.333 2.448-2.365 16.17-13.833-1.985-.227 2.52 1.319 3.546-.653.636-21.369-3.29-6.144-1.043m40.907-.384l-.643 6.517-.691 5.079-1.05 7.404-1.278 9.067-13.98-1.981-10.933-1.767-9.66-1.512 3.722-1.33 3.219.12 2.324-2.991 1.639-.667.133-1.984 1.704-1.42 2.7-2.118 1.765-3.661 2.763.196 3.562-3.623 1.31-.612m-12.1 9.817l-24.829-3.998-4.633-.943.782-4.891 1.592.306.131-1.622 1.734.304.686-4.797m-4.925 10.7l-3.14-.565-.145.81-2.049.114-3.099-.712.164-.864-3.188-.591.297-1.659-1.675-.052-6.685-1.27m36.242 18.003l-16.43-2.774-5.217-.92m34.802-77.429l-1.45 2.33-2.342.393-1.946-.892-.93 1.307-4.536-1.037-4.426.686" vector-effect="non-scaling-stroke" fill="inherit" stroke="inherit" stroke-width="inherit"/></svg>