<svg xmlns="http://www.w3.org/2000/svg" version="1.2" id="root" viewBox="702.2332514474759 245.8133302119669 66.44327547836781 66.25304868199862"><g id="counties"><path id="county-54029" class="county feature" d="M725.692 248.81l.255 1.457-1.532.317.246-1.318-1.356-2.071 1.895-1.382z" vector-effect="non-scaling-stroke" fill="inherit" stroke="inherit" stroke-width="inherit"><title>Hancock County</title></path><path id="county-54009" class="county feature" d="M725.947 250.267l.716 4.448-2.353-.108.741-2.703-.636-1.32z" vector-effect="non-scaling-stroke" fill="inherit" stroke="inherit" stroke-width="inherit"><title>Brooke County</title></path><path id="county-54069" class="county feature" d="M726.663 254.715l.443 2.664-3.064.175.063-2.372.205-.575z" vector-effect="non-scaling-stroke" fill="inherit" stroke="inherit" stroke-width="inherit"><title>Ohio County</title></path><path id="county-54051" class="county feature" d="M727.997 262.866l-4.403.735-.238-2.409.783-1.353-.097-2.285 3.064-.175.16 1.005z" vector-effect="non-scaling-stroke" fill="inherit" stroke="inherit" stroke-width="inherit"><title>Marshall County</title></path><path id="county-54061" class="county feature" d="M736.463 261.462l2.145-.368-.932 5.612-.675-.207-3.517-2.424-3.489.068-.616-1.498z" vector-effect="non-scaling-stroke" fill="inherit" stroke="inherit" stroke-width="inherit"><title>Monongalia County</title></path><path id="county-54077" class="county feature" d="M742.633 260.387l1.532 9.588.036.206-3.07-.928-1.601 1.058-1.43-1.074-.424-2.531.932-5.612z" vector-effect="non-scaling-stroke" fill="inherit" stroke="inherit" stroke-width="inherit"><title>Preston County</title></path><path id="county-54103" class="county feature" d="M727.997 262.866l1.382-.221.616 1.498-1.211 1.615.342 1.733-.584.87-1.113-.224-1.523-.329-2.225-1.959-1.308.12 1.22-2.368z" vector-effect="non-scaling-stroke" fill="inherit" stroke="inherit" stroke-width="inherit"><title>Wetzel County</title></path><path id="county-54065" class="county feature" d="M763.35 258.53l-1.542.788-.552 3.993-1.925-1.072-1.873-.622.123-2.017 1.34-.568 1.017.091.93-1.6z" vector-effect="non-scaling-stroke" fill="inherit" stroke="inherit" stroke-width="inherit"><title>Morgan County</title></path><path id="county-54057" class="county feature" d="M754.746 261.766l-2.025 4.28-1.506 2.066-2.43-.995-1.982.06 2.363-3.338 1.566.509 1.819-3.594z" vector-effect="non-scaling-stroke" fill="inherit" stroke="inherit" stroke-width="inherit"><title>Mineral County</title></path><path id="county-54049" class="county feature" d="M729.995 264.143l3.49-.068L737 266.5l-1.052 1.155-2.397.564-4.426-.727-.342-1.733z" vector-effect="non-scaling-stroke" fill="inherit" stroke="inherit" stroke-width="inherit"><title>Marion County</title></path><path id="county-54003" class="county feature" d="M763.35 258.53l2.624-.251-.466 1.147 1.047.91-1.533 2.722-.57 2.075-3.196-1.822.552-3.993z" vector-effect="non-scaling-stroke" fill="inherit" stroke="inherit" stroke-width="inherit"><title>Berkeley County</title></path><path id="county-54095" class="county feature" d="M727.43 268.137l-3.341 3.521-.965-1.607-.887.822-.582-2.06-1.34.32.922-1.708 1.136-1.457 1.308-.119 2.225 1.959z" vector-effect="non-scaling-stroke" fill="inherit" stroke="inherit" stroke-width="inherit"><title>Tyler County</title></path><path id="county-54027" class="county feature" d="M757.458 261.617l1.873.622.493 2.064-.776 1.997.528 1.62-1.2 1.736-5.902-1.035-1.259-.509 1.506-2.065 2.025-4.28z" vector-effect="non-scaling-stroke" fill="inherit" stroke="inherit" stroke-width="inherit"><title>Hampshire County</title></path><path id="county-54037" class="county feature" d="M768.677 263.242l-.869 3.784-3.356-1.893.57-2.075 1.533-2.723z" vector-effect="non-scaling-stroke" fill="inherit" stroke="inherit" stroke-width="inherit"><title>Jefferson County</title></path><path id="county-54073" class="county feature" d="M722.237 270.873l-3.036 2.056-2.072-1.085 3.185-2.712 1.34-.319z" vector-effect="non-scaling-stroke" fill="inherit" stroke="inherit" stroke-width="inherit"><title>Pleasants County</title></path><path id="county-54033" class="county feature" d="M733.552 268.218l.901 2.731-.453 2.553-1.004.336-4.386-.483.86-.955-1.344-1.334.416-2.705.584-.87z" vector-effect="non-scaling-stroke" fill="inherit" stroke="inherit" stroke-width="inherit"><title>Harrison County</title></path><path id="county-54091" class="county feature" d="M738.1 269.237l-1.632 1.262-2.015.45-.901-2.73 2.397-.565 1.052-1.155.675.207z" vector-effect="non-scaling-stroke" fill="inherit" stroke="inherit" stroke-width="inherit"><title>Taylor County</title></path><path id="county-54017" class="county feature" d="M728.542 268.36l-.416 2.706 1.344 1.334-.86.955-1.654 1.633-1.242-.06-1.916-2.815.291-.455 3.34-3.521z" vector-effect="non-scaling-stroke" fill="inherit" stroke="inherit" stroke-width="inherit"><title>Doddridge County</title></path><path id="county-54107" class="county feature" d="M717.13 271.844l2.071 1.085-.582 1.672-1.67 1.225-1.894 2.363-2.57-.957-.357-1.537.342-.73.508-1.146 1.506-.113.058-1.49 1.405-1.468z" vector-effect="non-scaling-stroke" fill="inherit" stroke="inherit" stroke-width="inherit"><title>Wood County</title></path><path id="county-54085" class="county feature" d="M724.089 271.658l-.291.455 1.916 2.815-2.833 2.358-1.891-.102-1.245.119-1.126-2.702.582-1.672 3.036-2.056.887-.822z" vector-effect="non-scaling-stroke" fill="inherit" stroke="inherit" stroke-width="inherit"><title>Ritchie County</title></path><path id="county-54023" class="county feature" d="M751.215 268.112l-.883 3.98.987 1.927-.868 2.36-3.534-2.132-.135-.11.475-2.17-.84-.102.536-2.112-2.752.428-.036-.206 2.638-2.798 1.982-.06z" vector-effect="non-scaling-stroke" fill="inherit" stroke="inherit" stroke-width="inherit"><title>Grant County</title></path><path id="county-54001" class="county feature" d="M739.53 270.31l.148 2.17-.547 2.818-2.6.944.115-1.736-2.646-1.004.453-2.553 2.015-.45 1.631-1.262z" vector-effect="non-scaling-stroke" fill="inherit" stroke="inherit" stroke-width="inherit"><title>Barbour County</title></path><path id="county-54093" class="county feature" d="M746.782 274.137l-2.175.178-4.12-.474-.809-1.362-.148-2.168 1.602-1.058 3.07.928 2.75-.428-.535 2.112.84.101z" vector-effect="non-scaling-stroke" fill="inherit" stroke="inherit" stroke-width="inherit"><title>Tucker County</title></path><path id="county-54031" class="county feature" d="M758.376 269.656l-.396.687-1.93 3.277-.917.496-.754 2.52-2.06-1.294-.606 1.797-1.262-.76.868-2.36-.987-1.926.883-3.98 1.259.508z" vector-effect="non-scaling-stroke" fill="inherit" stroke="inherit" stroke-width="inherit"><title>Hardy County</title></path><path id="county-54105" class="county feature" d="M720.99 277.184l-1.304 2.412-3.203.445-1.428-1.852 1.895-2.363 1.67-1.225 1.125 2.702z" vector-effect="non-scaling-stroke" fill="inherit" stroke="inherit" stroke-width="inherit"><title>Wirt County</title></path><path id="county-54041" class="county feature" d="M732.996 273.838l.2 2.743-.724 1.723.369 2.76-.952-.072-1.274-2.1-1.343-.621-1.89-1.683-.426-1.6 1.654-1.633z" vector-effect="non-scaling-stroke" fill="inherit" stroke="inherit" stroke-width="inherit"><title>Lewis County</title></path><path id="county-54083" class="county feature" d="M746.782 274.137l.135.11-1.405.776-.89 1.862.603 1.046-1.28 2.452-2.367-1.037-.639 3.72-2.08 2.113-1.296-.063-1.569 1.9.452-2.682-1.896-2.935 2.027-1.314-.045-3.843 2.599-.944.547-2.819.81 1.362 4.12.474z" vector-effect="non-scaling-stroke" fill="inherit" stroke="inherit" stroke-width="inherit"><title>Randolph County</title></path><path id="county-54097" class="county feature" d="M734 273.502l2.646 1.004-.114 1.736.045 3.843-2.027 1.314-1.71-.334-.368-2.76.725-1.724-.201-2.743z" vector-effect="non-scaling-stroke" fill="inherit" stroke="inherit" stroke-width="inherit"><title>Upshur County</title></path><path id="county-54021" class="county feature" d="M726.956 274.988l.426 1.6 1.89 1.683-1.29.693-3.543 3.645-1.244-1.231.608-1.117-.922-2.975 2.833-2.358z" vector-effect="non-scaling-stroke" fill="inherit" stroke="inherit" stroke-width="inherit"><title>Gilmer County</title></path><path id="county-54035" class="county feature" d="M715.055 278.19l1.428 1.851.077 4.668.52 1.058-1.414 1.327-1.117-1.203-1.246-.85-2.487-3.393 1.656-1.117.013-3.3z" vector-effect="non-scaling-stroke" fill="inherit" stroke="inherit" stroke-width="inherit"><title>Jackson County</title></path><path id="county-54013" class="county feature" d="M722.88 277.286l.923 2.975-.608 1.117 1.244 1.23-.522 1.04-.578 1.158-1.166-.438-.397-1.558-2.09-3.214 1.304-2.412z" vector-effect="non-scaling-stroke" fill="inherit" stroke="inherit" stroke-width="inherit"><title>Calhoun County</title></path><path id="county-54053" class="county feature" d="M710.816 281.648l2.487 3.394-2.543.83-1.417 1.151.5 2.469-2.612-1.847.54-.325-1.137-3.335.94-1.081.303-2.412 1.19-1.439 1.688 1.49z" vector-effect="non-scaling-stroke" fill="inherit" stroke="inherit" stroke-width="inherit"><title>Mason County</title></path><path id="county-54071" class="county feature" d="M750.451 276.379l1.262.76-1.433 5.7-1.084 1.45-2.446-.43-1.151-1.573-1.719-.489.065-1.414 1.28-2.452-.603-1.046.89-1.862 1.405-.776z" vector-effect="non-scaling-stroke" fill="inherit" stroke="inherit" stroke-width="inherit"><title>Pendleton County</title></path><path id="county-54087" class="county feature" d="M719.686 279.596l2.09 3.214.397 1.558 1.166.438-1.326 1.819-3.938.187-.996-1.045-.519-1.058-.077-4.668z" vector-effect="non-scaling-stroke" fill="inherit" stroke="inherit" stroke-width="inherit"><title>Roane County</title></path><path id="county-54007" class="county feature" d="M729.272 278.27l1.343.622 1.274 2.1-.444 1.864-1.665 2.546-2.02-.263-1.213 1.16-2.63-2.652.522-1.038 3.543-3.645z" vector-effect="non-scaling-stroke" fill="inherit" stroke="inherit" stroke-width="inherit"><title>Braxton County</title></path><path id="county-54075" class="county feature" d="M743.945 280.383l-.065 1.414-.084 3.07-1.316 2.592.343.737-1.53 1.873-.2 2.276-4.313 1.076-1.623-1.026-.298-2.082-.256-2.241 1.391-1.057 1.569-1.899 1.297.063 2.079-2.113.639-3.72z" vector-effect="non-scaling-stroke" fill="inherit" stroke="inherit" stroke-width="inherit"><title>Pocahontas County</title></path><path id="county-54101" class="county feature" d="M732.84 281.065l1.71.334 1.896 2.935-.452 2.681-1.39 1.057.255 2.24-1.223-.588-2.756-1.293-1.1-3.03 1.665-2.545.444-1.864z" vector-effect="non-scaling-stroke" fill="inherit" stroke="inherit" stroke-width="inherit"><title>Webster County</title></path><path id="county-54079" class="county feature" d="M712.263 291.973l-.946 1.217-1.084-1.846-.39-1.852-.5-2.469 1.417-1.152 2.543-.83 1.246.85-.67.773.7 2.27-2.299 1.637z" vector-effect="non-scaling-stroke" fill="inherit" stroke="inherit" stroke-width="inherit"><title>Putnam County</title></path><path id="county-54015" class="county feature" d="M726.547 286.299l.994.386-1.15 1.4-4.141 3.54-1.358-3.763 1.121-1.237 1.326-1.82.578-1.158z" vector-effect="non-scaling-stroke" fill="inherit" stroke="inherit" stroke-width="inherit"><title>Clay County</title></path><path id="county-54039" class="county feature" d="M717.08 285.767l.995 1.045 3.938-.187-1.12 1.237 1.357 3.763-.004.007-1.166 1.729-.121 4.087-1.149-.168-1.211-2.2-2.145-1.734-2.692.614-.06-2.016-1.439.03.017-1.403 2.299-1.637-.7-2.27.67-.773 1.117 1.203z" vector-effect="non-scaling-stroke" fill="inherit" stroke="inherit" stroke-width="inherit"><title>Kanawha County</title></path><path id="county-54011" class="county feature" d="M707.231 287.645l2.613 1.847.39 1.852-1.775.92-.952 2.246-3.944-2.907 2.533-1.089.128-2.552z" vector-effect="non-scaling-stroke" fill="inherit" stroke="inherit" stroke-width="inherit"><title>Cabell County</title></path><path id="county-54067" class="county feature" d="M729.78 285.402l1.1 3.03 2.756 1.292-3.381 4.15-2.513-.06-1.795-2.006-1.231.763-2.47-.94.004-.006 4.141-3.54 1.15-1.4-.994-.386 1.212-1.16z" vector-effect="non-scaling-stroke" fill="inherit" stroke="inherit" stroke-width="inherit"><title>Nicholas County</title></path><path id="county-54099" class="county feature" d="M703.563 291.603l3.944 2.907-.075 1.62 1.614 1.624-1.364 2.172-1.336 1.892-1.436-1.525-1.076-2.208-1.406-1.102.148-2.112-.343-3.268z" vector-effect="non-scaling-stroke" fill="inherit" stroke="inherit" stroke-width="inherit"><title>Wayne County</title></path><path id="county-54043" class="county feature" d="M710.233 291.344l1.084 1.846.946-1.217 1.439-.029.06 2.016-1.197 1.268.286 2.382-3.586 1.493-1.583.823 1.364-2.172-1.614-1.624.075-1.62.952-2.246z" vector-effect="non-scaling-stroke" fill="inherit" stroke="inherit" stroke-width="inherit"><title>Lincoln County</title></path><path id="county-54025" class="county feature" d="M741.093 292.345l-1.02 2.334-1.287 1.686-1.36 3.734-2.204.514-3.213-.386-2.48-2.221.177-2.253-1.964-1.938 2.513.058 3.381-4.15 1.223.59.298 2.082 1.623 1.026z" vector-effect="non-scaling-stroke" fill="inherit" stroke="inherit" stroke-width="inherit"><title>Greenbrier County</title></path><path id="county-54019" class="county feature" d="M722.246 291.632l2.47.939 1.23-.763 1.796 2.007 1.964 1.938-.177 2.253-1.849 1.248-2.016-.763-3.243.253-1.462-1.296.12-4.087z" vector-effect="non-scaling-stroke" fill="inherit" stroke="inherit" stroke-width="inherit"><title>Fayette County</title></path><path id="county-54005" class="county feature" d="M719.81 297.28l-1.476 1.352 1.21 2.43-1.34.253-1.59-.165-1.194-1.968-3.158-.839.589-.733-.286-2.382 1.197-1.268 2.692-.614 2.145 1.734z" vector-effect="non-scaling-stroke" fill="inherit" stroke="inherit" stroke-width="inherit"><title>Boone County</title></path><path id="county-54045" class="county feature" d="M712.851 297.61l-.589.733 3.158.839 1.193 1.968 1.59.165-2.169 1.024 1.057.811-1.35.983-1.863-.136-.84.92-1.463-.945-.85-2.783-1.46-2.086z" vector-effect="non-scaling-stroke" fill="inherit" stroke="inherit" stroke-width="inherit"><title>Logan County</title></path><path id="county-54081" class="county feature" d="M719.81 297.28l1.149.168 1.462 1.296 3.243-.253 2.016.763 1.363 2.306-1.086-.37-1.752 2.702-1.478.489-.144 1.257-1.72-1.436-2.584-3.16-.735.02-1.21-2.43z" vector-effect="non-scaling-stroke" fill="inherit" stroke="inherit" stroke-width="inherit"><title>Raleigh County</title></path><path id="county-54059" class="county feature" d="M715.742 304.133l-.457 2.197-.935.832-.664-.385-2.311.096-3.545-3.112-1.484-1.943 1.336-1.892 1.583-.823 1.46 2.086.85 2.783 1.462.945.84-.92z" vector-effect="non-scaling-stroke" fill="inherit" stroke="inherit" stroke-width="inherit"><title>Mingo County</title></path><path id="county-54089" class="county feature" d="M730.097 306.333l-.024-.017-3.868-2.424 1.752-2.703 1.086.371-1.363-2.306 1.85-1.248 2.479 2.221z" vector-effect="non-scaling-stroke" fill="inherit" stroke="inherit" stroke-width="inherit"><title>Summers County</title></path><path id="county-54109" class="county feature" d="M724.583 305.638l-1.04 1.803-4.448-.67-3.322.156-.488-.597.457-2.197 1.35-.983-1.058-.811 2.17-1.024 1.34-.254.735-.02 2.584 3.161z" vector-effect="non-scaling-stroke" fill="inherit" stroke="inherit" stroke-width="inherit"><title>Wyoming County</title></path><path id="county-54063" class="county feature" d="M737.427 300.1l1.287 1.007-1.36 1.44.59.973-2.284 2.01-.7-1.006-3.414 2.645-1.449-.836 1.912-6.106 3.213.386z" vector-effect="non-scaling-stroke" fill="inherit" stroke="inherit" stroke-width="inherit"><title>Monroe County</title></path><path id="county-54055" class="county feature" d="M726.205 303.892l3.868 2.424.398 1.513-1.759 1.3-3.37 1.653-2.293-1.606.494-1.735 1.04-1.803.144-1.257z" vector-effect="non-scaling-stroke" fill="inherit" stroke="inherit" stroke-width="inherit"><title>Mercer County</title></path><path id="county-54047" class="county feature" d="M723.543 307.44l-.494 1.736-2.52 2.89-2.691-.185-1.791-.682-2.545-3.366.848-.671.935-.832.488.597 3.322-.155z" vector-effect="non-scaling-stroke" fill="inherit" stroke="inherit" stroke-width="inherit"><title>McDowell County</title></path></g><path id="counties-mesh" class="counties mesh" d="M723.305 247.195l1.895-1.382.492 2.997.255 1.457-1.532.317.246-1.318-1.356-2.071m3.8 10.184l-3.063.175.063-2.372.205-.575.741-2.703-.636-1.32m2.248 4.131l-2.353-.108m1.637-4.34l.716 4.448.443 2.664.16 1.005.731 4.482-4.403.735-.238-2.409.783-1.353-.097-2.285m-4.84 15.375l-.583 1.672-1.67 1.225-1.894 2.363-2.57-.957-.357-1.537.342-.73.508-1.146 1.506-.113.058-1.49 1.405-1.468 1.182 1.096 3.185-2.712.923-1.707 1.136-1.457 1.22-2.367m15.015-2.507l-.932 5.612-.675-.207-3.517-2.424-3.489.068-.616-1.498m14.786 7.33l.036.206-3.07-.928-1.601 1.058-1.43-1.074-.424-2.531m-7.681-2.563l-1.211 1.615.342 1.733-.584.87-1.113-.224-1.523-.329-2.225-1.959-1.308.12m40.977-7.44l-1.542.79-.552 3.992-1.925-1.072-1.873-.622m-2.712.15l-2.025 4.28-1.506 2.065-2.43-.995-1.982.06m-9.802-.678l-1.052 1.155-2.397.564-4.426-.727m37.429-7.156l-1.533 2.723-.57 2.075-3.196-1.822m-33.827 4.826l-3.34 3.521-.965-1.607-.887.822-.582-2.06-1.34.32m7.682-6.267l1.382-.221 7.084-1.183 2.145-.368 4.025-.707 1.532 9.588 2.638-2.798 2.363-3.338 1.566.509 1.819-3.594 2.195 1.012 2.712-.149.123-2.017 1.34-.568 1.017.091.93-1.6 2.482 1.006 2.624-.25-.466 1.147 1.047.91 2.122 2.906-.869 3.784-3.356-1.893m-42.215 5.74l-3.036 2.056-2.072-1.085m16.423-3.626l.901 2.731-.453 2.553-1.004.336-4.386-.483.86-.955-1.344-1.334.416-2.705m9.557.876l-1.63 1.262-2.016.45m-5.843 2.406l-1.654 1.633-1.242-.06-1.916-2.815.291-.455m1.625 3.27l-2.833 2.358-1.891-.102-1.245.119-1.126-2.702m40.712-12.362l.493 2.064-.776 1.997.528 1.62-1.2 1.736-5.902-1.035-1.259-.509-.883 3.98.987 1.927-.868 2.36-3.534-2.132-.135-.11.475-2.17-.84-.102.536-2.112-2.752.428m-4.671.13l.148 2.168-.547 2.82-2.6.943.115-1.736-2.646-1.004m12.782.635l-2.175.178-4.12-.474-.809-1.362m18.698-2.823l-.396.687-1.93 3.277-.917.496-.754 2.52-2.06-1.294-.606 1.797-1.262-.76m-42.944 18.131l-.075 1.62 1.614 1.624-1.364 2.172-1.336 1.892-1.436-1.525-1.076-2.208-1.406-1.102.148-2.112-.343-3.268h1.33l2.533-1.089.128-2.552 1.007-.317.54-.325-1.137-3.335.94-1.081.303-2.412 1.19-1.439 1.688 1.49.06 1.105 1.657-1.117.013-3.3m8.505-.047l-1.304 2.412-3.203.445-1.428-1.852m17.94-4.35l.202 2.742-.725 1.723.369 2.76-.952-.072-1.274-2.1-1.343-.621-1.89-1.683-.426-1.6m19.961-.74l-1.405.775-.89 1.862.603 1.046-1.28 2.452-2.367-1.037-.639 3.72-2.08 2.113-1.296-.063-1.569 1.9.452-2.682-1.896-2.935 2.027-1.314-.045-3.843m-1.982 5.157l-1.71-.334m-3.568-2.794l-1.29.693-3.543 3.645-1.244-1.231.608-1.117-.922-2.975m-6.398 2.755l.077 4.668.52 1.058-1.414 1.327-1.117-1.203-1.246-.85-2.487-3.393m13.623.96l-.522 1.04-.578 1.158-1.166-.438-.397-1.558-2.09-3.214m-6.383 5.446l-2.543.83-1.417 1.151.5 2.469-2.612-1.847m44.482-10.506l-1.433 5.7-1.084 1.45-2.446-.43-1.151-1.573-1.719-.489.065-1.414m-20.606 4.423l-1.326 1.819-3.938.187-.996-1.045m14.81-4.775l-.444 1.864-1.665 2.546-2.02-.263-1.213 1.16-2.63-2.652m19.963-1.85l-.084 3.07-1.316 2.592.343.737-1.53 1.873-.2 2.276-4.313 1.076-1.623-1.026-.298-2.082-.256-2.241 1.391-1.057m-1.135 3.298l-1.223-.59-2.756-1.292-1.1-3.03m-15.231.49l-.67.773.7 2.27-2.299 1.637-.017 1.402-.946 1.217-1.084-1.846-.39-1.852m16.704-3.193l.994.386-1.15 1.4-4.141 3.54-1.358-3.763 1.121-1.237m.237 5l-.004.007-1.166 1.729-.121 4.087-1.149-.168-1.211-2.2-2.145-1.734-2.692.614-.06-2.016-1.439.03m-2.03-.63l-1.774.92-.952 2.246-3.944-2.907m30.073-1.88l-3.381 4.15-2.513-.058-1.795-2.007-1.231.763-2.47-.94m-8.484 2.33l-1.197 1.267.286 2.382-3.586 1.493-1.583.823m33.41-7.581l-1.02 2.334-1.286 1.686-1.36 3.734-2.204.514-3.213-.386-2.48-2.221.177-2.253-1.964-1.938m1.787 4.19l-1.849 1.249-2.016-.763-3.243.253-1.462-1.296m-1.149-.168l-1.476 1.352 1.21 2.43-1.34.253-1.59-.165-1.194-1.968-3.158-.839.589-.733m5.352 3.705l-2.169 1.024 1.057.811-1.35.983-1.863-.136-.84.92-1.463-.945-.85-2.783-1.46-2.086m18.415.15l1.363 2.307-1.086-.37-1.752 2.702-1.478.489-.144 1.257-1.72-1.436-2.584-3.16-.735.02m-3.802 3.07l-.457 2.198-.935.832-.664-.385-2.311.096-3.545-3.112-1.484-1.943m25.663-1.591l-1.912 6.106-.024-.017-3.868-2.424m-1.622 1.746l-1.04 1.803-4.448-.67-3.322.156-.488-.597m22.142-6.23l1.287 1.007-1.36 1.44.59.973-2.284 2.01-.7-1.006-3.414 2.645-1.449-.836m-.024-.017l.398 1.513-1.759 1.3-3.37 1.653-2.293-1.606.494-1.735m-.494 1.735l-2.52 2.89-2.691-.185-1.791-.682-2.545-3.366.848-.671" vector-effect="non-scaling-stroke" fill="inherit" stroke="inherit" stroke-width="inherit"/></svg>