<svg xmlns="http://www.w3.org/2000/svg" version="1.2" id="root" viewBox="691.1840024053931 262.2389639818764 117.47191548361957 65.52361802730752"><g id="counties"><path id="county-51069" class="county feature" d="M764.452 265.133l-.868 4.547-2.196.962-.591-1.638-1.455 1.64-1.362-.301.396-.687 1.2-1.736-.528-1.62.776-1.997-.493-2.064 1.925 1.072zm-2.033 1.723z" vector-effect="non-scaling-stroke" fill="inherit" stroke="inherit" stroke-width="inherit"><title>Frederick County</title></path><path id="county-51107" class="county feature" d="M772.69 264.32l-.697 1.62 1.195 1.134 1.967-.043-2.19 4.465-2.034-1.433-4.587-.475 1.464-2.562.869-3.784.565-.187 1.632.046z" vector-effect="non-scaling-stroke" fill="inherit" stroke="inherit" stroke-width="inherit"><title>Loudoun County</title></path><path id="county-51043" class="county feature" d="M767.808 267.026l-1.464 2.562-.472.746-2.288-.654.868-4.547z" vector-effect="non-scaling-stroke" fill="inherit" stroke="inherit" stroke-width="inherit"><title>Clarke County</title></path><path id="county-51840" class="county feature" d="M762.419 266.856z" vector-effect="non-scaling-stroke" fill="inherit" stroke="inherit" stroke-width="inherit"><title>Winchester City</title></path><path id="county-51171" class="county feature" d="M761.388 270.642l.422 1.155-.824 2.329-1.983 2.125-.86 2.728-3.764-2.342.754-2.52.917-.497 1.93-3.277 1.362.301 1.455-1.64z" vector-effect="non-scaling-stroke" fill="inherit" stroke="inherit" stroke-width="inherit"><title>Shenandoah County</title></path><path id="county-51059" class="county feature" d="M778.518 268.717l-.587.907.38.264.672.485 1.042.82.375 1.284-1.326 1.784-1.303-.298-4.806-2.467 2.19-4.465zm-2.346 1.73zm.033.427z" vector-effect="non-scaling-stroke" fill="inherit" stroke="inherit" stroke-width="inherit"><title>Fairfax County</title></path><path id="county-51187" class="county feature" d="M765.872 270.334l-1.38 2.464-.623 1.736-1.192.635-1.69-1.043.823-2.329-.422-1.155 2.196-.962z" vector-effect="non-scaling-stroke" fill="inherit" stroke="inherit" stroke-width="inherit"><title>Warren County</title></path><path id="county-51061" class="county feature" d="M770.93 270.063l-.453 2.21 3.608 4.594-.936 3-1.44.222-3.858-4.69-3.359-2.601 1.38-2.464.472-.746z" vector-effect="non-scaling-stroke" fill="inherit" stroke="inherit" stroke-width="inherit"><title>Fauquier County</title></path><path id="county-51153" class="county feature" d="M772.965 271.496l4.806 2.467-.216 3.208-2.39-.996-1.08.692-3.608-4.595.454-2.209zm1.354 1.17l-.266-.115.266.114z" vector-effect="non-scaling-stroke" fill="inherit" stroke="inherit" stroke-width="inherit"><title>Prince William County</title></path><path id="county-51013" class="county feature" d="M779.878 270.232l-.895.14-.672-.484-.38-.264.587-.907.43.43z" vector-effect="non-scaling-stroke" fill="inherit" stroke="inherit" stroke-width="inherit"><title>Arlington County</title></path><path id="county-51610" class="county feature" d="M778.311 269.888l-.38-.264.38.264z" vector-effect="non-scaling-stroke" fill="inherit" stroke="inherit" stroke-width="inherit"><title>Falls Church City</title></path><path id="county-51600" class="county feature" d="M776.172 270.447zm.033.427z" vector-effect="non-scaling-stroke" fill="inherit" stroke="inherit" stroke-width="inherit"><title>Fairfax City</title></path><path id="county-51157" class="county feature" d="M767.85 275.4l-2.788 3.892-.842-.063-1.84-1.471.297-2.589 1.192-.635.623-1.736z" vector-effect="non-scaling-stroke" fill="inherit" stroke="inherit" stroke-width="inherit"><title>Rappahannock County</title></path><path id="county-51165" class="county feature" d="M754.379 276.637l3.764 2.342-.38 1.886 3.227 1.1-2.03 3.13-.987 1.547-7.693-3.803 1.433-5.7.606-1.797zm.765 5.619z" vector-effect="non-scaling-stroke" fill="inherit" stroke="inherit" stroke-width="inherit"><title>Rockingham County</title></path><path id="county-51510" class="county feature" d="M779.878 270.232l.147.962-1.042-.821z" vector-effect="non-scaling-stroke" fill="inherit" stroke="inherit" stroke-width="inherit"><title>Alexandria City</title></path><path id="county-51139" class="county feature" d="M762.677 275.169l-.298 2.589-1.1 3.117-.289 1.09-3.227-1.1.38-1.886.86-2.728 1.983-2.125z" vector-effect="non-scaling-stroke" fill="inherit" stroke="inherit" stroke-width="inherit"><title>Page County</title></path><path id="county-51685" class="county feature" d="M774.319 272.665l-.266-.114.266.114z" vector-effect="non-scaling-stroke" fill="inherit" stroke="inherit" stroke-width="inherit"><title>Manassas Park City</title></path><path id="county-51683" class="county feature" d="M774.053 272.55l.266.115-.266-.114z" vector-effect="non-scaling-stroke" fill="inherit" stroke="inherit" stroke-width="inherit"><title>Manassas City</title></path><path id="county-51047" class="county feature" d="M773.15 279.868l.381.731-1.18.369-1.092-.409-4.305 2.394-.243-1.473-2.491-2.251.842.063 2.789-3.893 3.858 4.69z" vector-effect="non-scaling-stroke" fill="inherit" stroke="inherit" stroke-width="inherit"><title>Culpeper County</title></path><path id="county-51113" class="county feature" d="M764.22 279.229l2.49 2.25.244 1.474-1.966 1.853-.637-.594-2.36-1.393-.712-1.944 1.1-3.117z" vector-effect="non-scaling-stroke" fill="inherit" stroke="inherit" stroke-width="inherit"><title>Madison County</title></path><path id="county-51091" class="county feature" d="M749.196 284.29l-1.107 3.942-.945.856-4.32-.892-.344-.737 1.316-2.593.084-3.069 1.719.49 1.15 1.572z" vector-effect="non-scaling-stroke" fill="inherit" stroke="inherit" stroke-width="inherit"><title>Highland County</title></path><path id="county-51179" class="county feature" d="M777.555 277.171l.27 3.169.308 1.708-.623.097-1.234-.486-1.275-.222-1.47-.838-.382-.731.936-3.001 1.08-.692z" vector-effect="non-scaling-stroke" fill="inherit" stroke="inherit" stroke-width="inherit"><title>Stafford County</title></path><path id="county-51660" class="county feature" d="M755.144 282.256z" vector-effect="non-scaling-stroke" fill="inherit" stroke="inherit" stroke-width="inherit"><title>Harrisonburg City</title></path><path id="county-51079" class="county feature" d="M764.35 284.212l-.88 1.83-4.51-.946 2.03-3.131.289-1.09.712 1.944z" vector-effect="non-scaling-stroke" fill="inherit" stroke="inherit" stroke-width="inherit"><title>Greene County</title></path><path id="county-51015" class="county feature" d="M757.973 286.642l-.029 2.42-.72.77-.53 1.99-1.3 1.522-2.207.216-5.31-2.795.402-1.547-1.135-.13.945-.856 1.107-3.942 1.084-1.451zm-4.1 1.016zm2.246 1.384z" vector-effect="non-scaling-stroke" fill="inherit" stroke="inherit" stroke-width="inherit"><title>Augusta County</title></path><path id="county-51099" class="county feature" d="M782.296 280.776l-.08 2.026-.035.036-.692.37-2.603-1.383-.753.223-.308-1.708 1.296-.16 2.475-1.814z" vector-effect="non-scaling-stroke" fill="inherit" stroke="inherit" stroke-width="inherit"><title>King George County</title></path><path id="county-51137" class="county feature" d="M772.351 280.968l-2.716 5.197-2.216-.245-1.456.643-2.493-.52.88-1.831.638.594 1.966-1.853 4.305-2.394z" vector-effect="non-scaling-stroke" fill="inherit" stroke="inherit" stroke-width="inherit"><title>Orange County</title></path><path id="county-51177" class="county feature" d="M773.531 280.6l1.47.837 1.275.222 1.234.486-2.953 5.491-.708-.186-2.283-1.257-1.931-.028 2.716-5.197z" vector-effect="non-scaling-stroke" fill="inherit" stroke="inherit" stroke-width="inherit"><title>Spotsylvania County</title></path><path id="county-51630" class="county feature" d="M776.276 281.659l-1.275-.222 1.275.222z" vector-effect="non-scaling-stroke" fill="inherit" stroke="inherit" stroke-width="inherit"><title>Fredericksburg City</title></path><path id="county-51003" class="county feature" d="M763.47 286.042l2.493.52-.968 2.617-1.923 4.384-1.975 1.584-3.873-5.315.72-.77.029-2.42.987-1.546zm-1.093 2.423z" vector-effect="non-scaling-stroke" fill="inherit" stroke="inherit" stroke-width="inherit"><title>Albemarle County</title></path><path id="county-51193" class="county feature" d="M789.662 284.115l-.605 1.077-1.994-.268-2.07-1.934-.673.964-2.104-1.152.08-2.026 3.09 1.378 3.303-.392 1.694 1.658z" vector-effect="non-scaling-stroke" fill="inherit" stroke="inherit" stroke-width="inherit"><title>Westmoreland County</title></path><path id="county-51017" class="county feature" d="M742.823 288.196l4.32.892 1.136.13-.401 1.547-1.721 4.409-3.46.19-.893-1.025-1.731.34 1.02-2.334.2-2.276z" vector-effect="non-scaling-stroke" fill="inherit" stroke="inherit" stroke-width="inherit"><title>Bath County</title></path><path id="county-51033" class="county feature" d="M778.133 282.048l.753-.223 2.603 1.383-.507 1.455 1.852 1.835-1.534.574.215 1.099-1.966 2.359-.814.344-1.521-1.691-2.657-1.547 2.953-5.491z" vector-effect="non-scaling-stroke" fill="inherit" stroke="inherit" stroke-width="inherit"><title>Caroline County</title></path><path id="county-51790" class="county feature" d="M753.873 287.658z" vector-effect="non-scaling-stroke" fill="inherit" stroke="inherit" stroke-width="inherit"><title>Staunton City</title></path><path id="county-51057" class="county feature" d="M789.102 288.962l-.813.971-.986-1.073-1.972.623-1.315-.917-1.182-2.068-1.852-1.835.507-1.455.692-.37.325.98 1.972.337.478 1.719 2.08 1.107z" vector-effect="non-scaling-stroke" fill="inherit" stroke="inherit" stroke-width="inherit"><title>Essex County</title></path><path id="county-51109" class="county feature" d="M769.635 286.165l1.93.028 2.284 1.257-.566 5.457-1.624-.433-.955-1.304-1.855-.77-3.854-1.221.968-2.616 1.456-.643z" vector-effect="non-scaling-stroke" fill="inherit" stroke="inherit" stroke-width="inherit"><title>Louisa County</title></path><path id="county-51159" class="county feature" d="M789.057 285.192l2.294 1.986-1.418.906-1.292-.035-3.436-2.524-.885-1.571.672-.964 2.07 1.934z" vector-effect="non-scaling-stroke" fill="inherit" stroke="inherit" stroke-width="inherit"><title>Richmond County</title></path><path id="county-51820" class="county feature" d="M756.119 289.042z" vector-effect="non-scaling-stroke" fill="inherit" stroke="inherit" stroke-width="inherit"><title>Waynesboro City</title></path><path id="county-51163" class="county feature" d="M753.267 295.23l-1.299.393-.726 2.696-1.177 1.045-.617 1.718-3.085-1.926-.192-1.909-.014-2.073 1.72-4.409 5.31 2.795zm-3.841.866zm1.43.492z" vector-effect="non-scaling-stroke" fill="inherit" stroke="inherit" stroke-width="inherit"><title>Rockbridge County</title></path><path id="county-51540" class="county feature" d="M762.377 288.465z" vector-effect="non-scaling-stroke" fill="inherit" stroke="inherit" stroke-width="inherit"><title>Charlottesville City</title></path><path id="county-51125" class="county feature" d="M761.097 295.147l-.688 1.944-1.263.168-.044 1.719-.596.31-3.617-3.696-1.622-.363-.08-1.669 2.207-.216 1.3-1.522.53-1.99z" vector-effect="non-scaling-stroke" fill="inherit" stroke="inherit" stroke-width="inherit"><title>Nelson County</title></path><path id="county-51001" class="county feature" d="M798.23 283.517l-.16.032.16-.032zm-.396.079l-.097.021.097-.021zm-.327.072l.106-.028-.106.028zm8.535-.785l.668.135-1.91 3.951.242 2.472-2.143 1.793-.863-.855-1.484.18 1.277-4.257 1.225-1.553.342-3.139 3.375-1.137zm2.35-2.973l.264-.093-.263.093z" vector-effect="non-scaling-stroke" fill="inherit" stroke="inherit" stroke-width="inherit"><title>Accomack County</title></path><path id="county-51133" class="county feature" d="M794.131 289.246l-1.458-2.048-1.322-.02-2.294-1.986.605-1.077 1.482-.3 3.823 1.735z" vector-effect="non-scaling-stroke" fill="inherit" stroke="inherit" stroke-width="inherit"><title>Northumberland County</title></path><path id="county-51085" class="county feature" d="M774.557 287.636l2.657 1.547 1.52 1.691.815-.344 1.033 1.236 2.854.5-.109.634-1.17 1.977-2.777-.775-.816-1.278-2.804.032-2.477.051.566-5.457z" vector-effect="non-scaling-stroke" fill="inherit" stroke="inherit" stroke-width="inherit"><title>Hanover County</title></path><path id="county-51065" class="county feature" d="M768.014 293.556l-.957 1.296-3.443-.67-.542-.619 1.923-4.384 3.854 1.22z" vector-effect="non-scaling-stroke" fill="inherit" stroke="inherit" stroke-width="inherit"><title>Fluvanna County</title></path><path id="county-51097" class="county feature" d="M782.834 286.498l1.182 2.068 1.315.917 1.972-.623.986 1.073 1.866 2.03-.126 2.987-1.85-2.31-4.84-2.212-1.824-2.257-.215-1.1z" vector-effect="non-scaling-stroke" fill="inherit" stroke="inherit" stroke-width="inherit"><title>King and Queen County</title></path><path id="county-51005" class="county feature" d="M746.157 295.174l.014 2.073-2.174-.35-2.452 3.357-1.629 1.248-1.202-.395-1.287-1.008 1.359-3.734 1.287-1.686 1.731-.34.892 1.024zm-4.726 1.998z" vector-effect="non-scaling-stroke" fill="inherit" stroke="inherit" stroke-width="inherit"><title>Alleghany County</title></path><path id="county-51101" class="county feature" d="M781.515 288.171l1.823 2.257 4.841 2.212-2.389.607-2.463-.347.109-.635-2.854-.5-1.033-1.235z" vector-effect="non-scaling-stroke" fill="inherit" stroke="inherit" stroke-width="inherit"><title>King William County</title></path><path id="county-51075" class="county feature" d="M775.76 292.856l.178 2.745-4.624-1.339.037 1.03-1.766-.283-1.57-1.453.834-3.157 1.855.771.955 1.304 1.624.433z" vector-effect="non-scaling-stroke" fill="inherit" stroke="inherit" stroke-width="inherit"><title>Goochland County</title></path><path id="county-51103" class="county feature" d="M794.441 290.724l-2.775-.176-1.733-2.464 1.418-.906 1.322.02 1.458 2.048z" vector-effect="non-scaling-stroke" fill="inherit" stroke="inherit" stroke-width="inherit"><title>Lancaster County</title></path><path id="county-51580" class="county feature" d="M741.431 297.172z" vector-effect="non-scaling-stroke" fill="inherit" stroke="inherit" stroke-width="inherit"><title>Covington City</title></path><path id="county-51009" class="county feature" d="M758.506 299.287l-1.779 2.471-.847.827-1.698-1.047-2.482-.664-1.635-1.51 1.177-1.045.726-2.696 1.3-.394 1.62.363z" vector-effect="non-scaling-stroke" fill="inherit" stroke="inherit" stroke-width="inherit"><title>Amherst County</title></path><path id="county-51023" class="county feature" d="M749.448 301.082l-.951 1.712-1.213-.422-1.973 1.891-.19 1.851-3.635-1.546 1.125-2.529-1.066-1.785 2.452-3.357 2.174.35.192 1.909z" vector-effect="non-scaling-stroke" fill="inherit" stroke="inherit" stroke-width="inherit"><title>Botetourt County</title></path><path id="county-51678" class="county feature" d="M749.426 296.096z" vector-effect="non-scaling-stroke" fill="inherit" stroke="inherit" stroke-width="inherit"><title>Lexington City</title></path><path id="county-51029" class="county feature" d="M767.057 294.852l.064 1.043-2.087 6.068-2.073-.732-3.859-2.253.044-1.719 1.263-.168.688-1.944 1.975-1.584.542.619z" vector-effect="non-scaling-stroke" fill="inherit" stroke="inherit" stroke-width="inherit"><title>Buckingham County</title></path><path id="county-51119" class="county feature" d="M791.81 292.3l-1.655-.336-1.866-2.03.813-.972 2.776 2.478 3.561.3-1.609 1.202z" vector-effect="non-scaling-stroke" fill="inherit" stroke="inherit" stroke-width="inherit"><title>Middlesex County</title></path><path id="county-51530" class="county feature" d="M750.855 296.588z" vector-effect="non-scaling-stroke" fill="inherit" stroke="inherit" stroke-width="inherit"><title>Buena Vista City</title></path><path id="county-51049" class="county feature" d="M768.014 293.556l1.57 1.453-.142 3.917-1.183 1.886-1.935 1.56-1.29-.409 2.087-6.068-.064-1.043z" vector-effect="non-scaling-stroke" fill="inherit" stroke="inherit" stroke-width="inherit"><title>Cumberland County</title></path><path id="county-51087" class="county feature" d="M782.158 294.877l.904.684-.625 2.218-.954.124-1.766-.824.19-1.73-.988-1.028-2.138 1.23-.843.05-.178-2.745 2.804-.032.816 1.278z" vector-effect="non-scaling-stroke" fill="inherit" stroke="inherit" stroke-width="inherit"><title>Henrico County</title></path><path id="county-51145" class="county feature" d="M775.938 295.6l-2.376 3.233-2.51-.964-1.61 1.057.143-3.917 1.766.284-.037-1.03z" vector-effect="non-scaling-stroke" fill="inherit" stroke="inherit" stroke-width="inherit"><title>Powhatan County</title></path><path id="county-51045" class="county feature" d="M741.486 304.568l-2.476 1.978-1.033-.325-1.37 1.219-.947-1.91 2.284-2.01-.59-.973 1.36-1.44 1.202.395 1.629-1.248 1.066 1.785z" vector-effect="non-scaling-stroke" fill="inherit" stroke="inherit" stroke-width="inherit"><title>Craig County</title></path><path id="county-51127" class="county feature" d="M785.79 293.247l2.198.192 1.252 1.52-1.879.912.052.996-4.35-1.306-.905-.684 1.17-1.977z" vector-effect="non-scaling-stroke" fill="inherit" stroke="inherit" stroke-width="inherit"><title>New Kent County</title></path><path id="county-51019" class="county feature" d="M754.182 301.538l-1.075.848.416 1.371-1.712 6.043-.401 1.024-1.752-.385-2.377-2.46-1.888-.31-.272-1.555.19-1.85 1.973-1.892 1.213.422.951-1.712.617-1.718 1.635 1.51zm-4.752 3.135z" vector-effect="non-scaling-stroke" fill="inherit" stroke="inherit" stroke-width="inherit"><title>Bedford County</title></path><path id="county-51760" class="county feature" d="M779.717 297.079l-2.936-1.529 2.138-1.23.987 1.029z" vector-effect="non-scaling-stroke" fill="inherit" stroke="inherit" stroke-width="inherit"><title>Richmond City</title></path><path id="county-51073" class="county feature" d="M791.81 292.3l1.804.714.14 1.133 1.508 3.295-1.596.655-3.637-3.147.126-2.986z" vector-effect="non-scaling-stroke" fill="inherit" stroke="inherit" stroke-width="inherit"><title>Gloucester County</title></path><path id="county-51041" class="county feature" d="M776.78 295.55l2.937 1.529 1.766.824.248 1.435-.278-.016-.358 1.367-.36.22-.172.113-.413.283-3.084-.21-1.38.236-2.25-1.451.126-1.047 2.376-3.232z" vector-effect="non-scaling-stroke" fill="inherit" stroke="inherit" stroke-width="inherit"><title>Chesterfield County</title></path><path id="county-51011" class="county feature" d="M762.96 301.23l-.75 3.001-1.916 1.184-1.473-.447-2.094-3.21 1.78-2.47.595-.31z" vector-effect="non-scaling-stroke" fill="inherit" stroke="inherit" stroke-width="inherit"><title>Appomattox County</title></path><path id="county-51131" class="county feature" d="M802.899 291.234l-1.017 3.945-.02 3.696-1.341-2.46.219-5.681 1.296-.355z" vector-effect="non-scaling-stroke" fill="inherit" stroke="inherit" stroke-width="inherit"><title>Northampton County</title></path><path id="county-51027" class="county feature" d="M714.35 307.162l-.848.67 2.545 3.367 1.79.682-2.075 2.128-1.502 1.634-1.834.784-2.11-4.081-.951-.377 4.32-5.192z" vector-effect="non-scaling-stroke" fill="inherit" stroke="inherit" stroke-width="inherit"><title>Buchanan County</title></path><path id="county-51115" class="county feature" d="M793.754 294.147l-.14-1.133 1.022-.438 1.926 1.226.119 2.43z" vector-effect="non-scaling-stroke" fill="inherit" stroke="inherit" stroke-width="inherit"><title>Mathews County</title></path><path id="county-51007" class="county feature" d="M773.562 298.833l-.126 1.047 2.25 1.451 1.38-.235-1.84 1.751-6.663-.712-.304-1.323 1.183-1.886 1.61-1.057z" vector-effect="non-scaling-stroke" fill="inherit" stroke="inherit" stroke-width="inherit"><title>Amelia County</title></path><path id="county-51036" class="county feature" d="M787.413 296.867l.432.082.368 1.993-2.158-.541-3.51.564-.108-1.186.625-2.218z" vector-effect="non-scaling-stroke" fill="inherit" stroke="inherit" stroke-width="inherit"><title>Charles City County</title></path><path id="county-51071" class="county feature" d="M735.66 305.53l.946 1.91-2.308 1.716-3.308 2.397-2.704-2.01.426-.414 1.76-1.3-.399-1.513.024.017 1.45.836 3.414-2.645z" vector-effect="non-scaling-stroke" fill="inherit" stroke="inherit" stroke-width="inherit"><title>Giles County</title></path><path id="county-51680" class="county feature" d="M754.182 301.538l1.698 1.047-2.357 1.172-.416-1.371z" vector-effect="non-scaling-stroke" fill="inherit" stroke="inherit" stroke-width="inherit"><title>Lynchburg City</title></path><path id="county-51095" class="county feature" d="M790.174 298.3l.895-.028 1.473.678-.075.913-.674-.803-3.375.197-.573-2.308-.432-.082-.052-.996 1.88-.912 1.541 1.397-.55 1.335z" vector-effect="non-scaling-stroke" fill="inherit" stroke="inherit" stroke-width="inherit"><title>James City County</title></path><path id="county-51031" class="county feature" d="M756.727 301.758l2.094 3.21 1.473.447-.547 3.61-2.846-.286-1.491.449-1.082-1.273-2.517 1.885 1.712-6.043 2.357-1.172z" vector-effect="non-scaling-stroke" fill="inherit" stroke="inherit" stroke-width="inherit"><title>Campbell County</title></path><path id="county-51161" class="county feature" d="M745.12 306.114l.273 1.555-1.392 1.93-.78-.548-1.587 1.22-.696.297-.569-2.205-1.359-1.817 2.476-1.978zm-2.53.452l-.02.87 1.259.747.842-1.88z" vector-effect="non-scaling-stroke" fill="inherit" stroke="inherit" stroke-width="inherit"><title>Roanoke County</title></path><path id="county-51147" class="county feature" d="M765.034 301.963l1.29.408 1.935-1.559.304 1.323.503 3.284-2.819 1.311-4.04-1.647.004-.852.75-3z" vector-effect="non-scaling-stroke" fill="inherit" stroke="inherit" stroke-width="inherit"><title>Prince Edward County</title></path><path id="county-51199" class="county feature" d="M790.782 296.356l1.035.992 3.717 1.392-.133 1.074.402.548-.553.333-2.708-1.745-1.473-.678-.837-.581z" vector-effect="non-scaling-stroke" fill="inherit" stroke="inherit" stroke-width="inherit"><title>York County</title></path><path id="county-51121" class="county feature" d="M740.938 310.568l-2.185 2.123-2.743 1.158-.848-1.867.619-1.228-1.483-1.598 2.308-1.716 1.371-1.219 1.033.325 1.36 1.817z" vector-effect="non-scaling-stroke" fill="inherit" stroke="inherit" stroke-width="inherit"><title>Montgomery County</title></path><path id="county-51515" class="county feature" d="M749.43 304.673z" vector-effect="non-scaling-stroke" fill="inherit" stroke="inherit" stroke-width="inherit"><title>Bedford City</title></path><path id="county-51770" class="county feature" d="M742.57 307.436l.02-.87 2.081-.263-.842 1.88z" vector-effect="non-scaling-stroke" fill="inherit" stroke="inherit" stroke-width="inherit"><title>Roanoke City</title></path><path id="county-51185" class="county feature" d="M723.05 309.176l2.292 1.606-1.221 2.02.977.732-2.636 1.498.44.418-3.371 1.987-1.494-.263-2.275-3.165 2.076-2.128 2.69.185z" vector-effect="non-scaling-stroke" fill="inherit" stroke="inherit" stroke-width="inherit"><title>Tazewell County</title></path><path id="county-51775" class="county feature" d="M742.59 306.566l-.02.87.02-.87z" vector-effect="non-scaling-stroke" fill="inherit" stroke="inherit" stroke-width="inherit"><title>Salem City</title></path><path id="county-51670" class="county feature" d="M782.692 299.457l-1.239-.135.278.016z" vector-effect="non-scaling-stroke" fill="inherit" stroke="inherit" stroke-width="inherit"><title>Hopewell City</title></path><path id="county-51149" class="county feature" d="M782.692 299.457l2.23-.721 1.513 1.111-1.649 2.663-3.083 2.903-.663-3.288.055-1.436.358-1.367z" vector-effect="non-scaling-stroke" fill="inherit" stroke="inherit" stroke-width="inherit"><title>Prince George County</title></path><path id="county-51830" class="county feature" d="M790.174 298.3l.058-.609.837.58z" vector-effect="non-scaling-stroke" fill="inherit" stroke="inherit" stroke-width="inherit"><title>Williamsburg City</title></path><path id="county-51051" class="county feature" d="M712.426 316.427l-2.43 1.702-2.168-.66-1.75-3.193 3.287-2.307.951.377z" vector-effect="non-scaling-stroke" fill="inherit" stroke="inherit" stroke-width="inherit"><title>Dickenson County</title></path><path id="county-51021" class="county feature" d="M730.99 311.553l-.626 1.516-2.785 1.412-1.695-.207-1.972 2.12-1.01-.944-.44-.418 2.636-1.498-.977-.733 1.22-2.02 3.371-1.652-.426.414z" vector-effect="non-scaling-stroke" fill="inherit" stroke="inherit" stroke-width="inherit"><title>Bland County</title></path><path id="county-51570" class="county feature" d="M780.734 300.909l-.171.113.171-.113z" vector-effect="non-scaling-stroke" fill="inherit" stroke="inherit" stroke-width="inherit"><title>Colonial Heights City</title></path><path id="county-51135" class="county feature" d="M774.594 306.884l-1.771-.312-1.124.334-2.633-1.487-.503-3.284 6.663.712-1.332 1.192z" vector-effect="non-scaling-stroke" fill="inherit" stroke="inherit" stroke-width="inherit"><title>Nottoway County</title></path><path id="county-51053" class="county feature" d="M780.15 301.305l.89.82.663 3.288-2.777 2.76-.628-.197-1.847-1.18-1.857.088-.7-2.845 1.332-1.192 1.84-1.751z" vector-effect="non-scaling-stroke" fill="inherit" stroke="inherit" stroke-width="inherit"><title>Dinwiddie County</title></path><path id="county-51037" class="county feature" d="M766.247 306.73l-.068 3.623-1.6 4.003-.747-2.646-4.085-2.686.547-3.61 1.917-1.183-.005.852z" vector-effect="non-scaling-stroke" fill="inherit" stroke="inherit" stroke-width="inherit"><title>Charlotte County</title></path><path id="county-51155" class="county feature" d="M735.781 310.754l-.62 1.228.849 1.867-1.153 1.2-1.397 1.233-3.096-3.213.626-1.516 3.308-2.397z" vector-effect="non-scaling-stroke" fill="inherit" stroke="inherit" stroke-width="inherit"><title>Pulaski County</title></path><path id="county-51730" class="county feature" d="M781.04 302.125l-.89-.82.413-.283.171-.113.36-.22z" vector-effect="non-scaling-stroke" fill="inherit" stroke="inherit" stroke-width="inherit"><title>Petersburg City</title></path><path id="county-51181" class="county feature" d="M791.622 300.586l-.023 1.543-1.96 1.626-1.308 1.261-.59-2.003-2.955-.503 1.649-2.663 3.112-.11z" vector-effect="non-scaling-stroke" fill="inherit" stroke="inherit" stroke-width="inherit"><title>Surry County</title></path><path id="county-51067" class="county feature" d="M749.658 310.44l-.077 3.574-1.547 1.562-3.608-.19-.494.778-.513-.804-2.565-.163 1.405-3.166-.625-1.76 1.586-1.22.78.548 1.393-1.93 1.888.31z" vector-effect="non-scaling-stroke" fill="inherit" stroke="inherit" stroke-width="inherit"><title>Franklin County</title></path><path id="county-51700" class="county feature" d="M795.25 300.695l1.096 1.798-3.971-1.818.092-.812.075-.913z" vector-effect="non-scaling-stroke" fill="inherit" stroke="inherit" stroke-width="inherit"><title>Newport News City</title></path><path id="county-51195" class="county feature" d="M709.996 318.129l.606 1.15-1.502.781-3.344.436-1.798 1.75-1.809-1.51-.08-1.545 1.952-1.615-.237-1.308 2.143-1.844.15-.148 1.75 3.193zm-4.017.799z" vector-effect="non-scaling-stroke" fill="inherit" stroke="inherit" stroke-width="inherit"><title>Wise County</title></path><path id="county-51735" class="county feature" d="M796.076 299.216l-.109 1.002-.164.144-.402-.548z" vector-effect="non-scaling-stroke" fill="inherit" stroke="inherit" stroke-width="inherit"><title>Poquoson City</title></path><path id="county-51750" class="county feature" d="M735.162 311.982l.619-1.228-.62 1.228z" vector-effect="non-scaling-stroke" fill="inherit" stroke="inherit" stroke-width="inherit"><title>Radford City</title></path><path id="county-51093" class="county feature" d="M794.683 304.42l-4.41 5.982-.193-.04-.443-1.056.815-4.113-.813-1.438 1.96-1.626.023-1.543.689 1.794 2.745 1.042z" vector-effect="non-scaling-stroke" fill="inherit" stroke="inherit" stroke-width="inherit"><title>Isle of Wight County</title></path><path id="county-51167" class="county feature" d="M718.037 317.174l-.74.676-1.439 1.442-1.886.463-.228 1.113-3.1 2.15-1.544-2.958 1.502-.78-.606-1.151 2.43-1.702 1.834-.784 1.502-1.634z" vector-effect="non-scaling-stroke" fill="inherit" stroke="inherit" stroke-width="inherit"><title>Russell County</title></path><path id="county-51143" class="county feature" d="M756.9 308.74l-.125 10.028-1.812.327.423-.858-1.585-.913-1.41.754.704 1.357-.588.104-2.995.498.069-6.023.077-3.575 1.752.385.401-1.024 2.517-1.885 1.082 1.273z" vector-effect="non-scaling-stroke" fill="inherit" stroke="inherit" stroke-width="inherit"><title>Pittsylvania County</title></path><path id="county-51063" class="county feature" d="M741.634 310.27l.625 1.761-1.405 3.166-1.967 1.737-.869 1.857-3.161-3.743 1.153-1.2 2.743-1.157 2.185-2.123z" vector-effect="non-scaling-stroke" fill="inherit" stroke="inherit" stroke-width="inherit"><title>Floyd County</title></path><path id="county-51111" class="county feature" d="M769.066 305.42l2.633 1.486 1.124-.334.524 4.601-3.219.035-3.95-.855.069-3.623z" vector-effect="non-scaling-stroke" fill="inherit" stroke="inherit" stroke-width="inherit"><title>Lunenburg County</title></path><path id="county-51650" class="county feature" d="M796.346 302.493l-1.096-1.798.553-.333.164-.144 1.697.17z" vector-effect="non-scaling-stroke" fill="inherit" stroke="inherit" stroke-width="inherit"><title>Hampton City</title></path><path id="county-51183" class="county feature" d="M788.331 305.016l-6.041 5.765-.922-.077-.059-2.714-2.383.183 2.777-2.76 3.083-2.903 2.954.503z" vector-effect="non-scaling-stroke" fill="inherit" stroke="inherit" stroke-width="inherit"><title>Sussex County</title></path><path id="county-51197" class="county feature" d="M733.46 316.282l-4.195 2.06-.709.825-2.373.486-2.27-3.258 1.97-2.121 1.696.207 2.785-1.412z" vector-effect="non-scaling-stroke" fill="inherit" stroke="inherit" stroke-width="inherit"><title>Wythe County</title></path><path id="county-51083" class="county feature" d="M759.747 309.024l4.085 2.686.748 2.646-.715.557-.005 2.565-.907.172-5.003.905-1.175.213.126-10.029z" vector-effect="non-scaling-stroke" fill="inherit" stroke="inherit" stroke-width="inherit"><title>Halifax County</title></path><path id="county-51025" class="county feature" d="M774.594 306.884l1.857-.088 1.847 1.18.685 3.343-1.015 3.426-1.93.389-2.135.42-.556-4.38-.524-4.602z" vector-effect="non-scaling-stroke" fill="inherit" stroke="inherit" stroke-width="inherit"><title>Brunswick County</title></path><path id="county-51173" class="county feature" d="M722.902 315.45l1.01.945 2.27 3.258-3.694 1.626-.992 1.471-1.802-2.608-2.398-2.292.74-.676 1.495.263z" vector-effect="non-scaling-stroke" fill="inherit" stroke="inherit" stroke-width="inherit"><title>Smyth County</title></path><path id="county-51175" class="county feature" d="M789.637 309.306l.443 1.056.193.04.08 1.752.025.152-3.621.689-1.93.412-1.65-1.52-1.796-.212.909-.894 6.041-5.765 1.308-1.261.813 1.438z" vector-effect="non-scaling-stroke" fill="inherit" stroke="inherit" stroke-width="inherit"><title>Southampton County</title></path><path id="county-51710" class="county feature" d="M799.014 304.942l-.6.348-.1-.163zm.57-1.823l-.063 1.727-1.866-.402-.329-1.645z" vector-effect="non-scaling-stroke" fill="inherit" stroke="inherit" stroke-width="inherit"><title>Norfolk City</title></path><path id="county-51720" class="county feature" d="M705.979 318.928z" vector-effect="non-scaling-stroke" fill="inherit" stroke="inherit" stroke-width="inherit"><title>Norton City</title></path><path id="county-51810" class="county feature" d="M804.135 309.14l.696.017-.615.135zm1.478-.153l-.36.078-1.386-2.93.088 3.21-.47.101-.318.067-1.262.27-.446-2.125.677-.658-2.27-1.01-.577-1.159.232.015.063-1.727 2.79-.41z" vector-effect="non-scaling-stroke" fill="inherit" stroke="inherit" stroke-width="inherit"><title>Virginia Beach City</title></path><path id="county-51035" class="county feature" d="M738.018 318.791l-1.767 1.197.062 1.965-3.315.513-1.394-1.516-.326-.354-2.013-2.254 4.195-2.06 1.397-1.234z" vector-effect="non-scaling-stroke" fill="inherit" stroke="inherit" stroke-width="inherit"><title>Carroll County</title></path><path id="county-51191" class="county feature" d="M713.9 323.748l-1.645 1.202-.744.108-.866-2.04 3.1-2.15.227-1.113 1.886-.463 1.438-1.442 2.398 2.292 1.802 2.608-.524.593-2.647.355-4.638 1.06z" vector-effect="non-scaling-stroke" fill="inherit" stroke="inherit" stroke-width="inherit"><title>Washington County</title></path><path id="county-51740" class="county feature" d="M798.315 305.127l.099.163-1.616.475zm-1.349.121l-.616-.38.07-.597z" vector-effect="non-scaling-stroke" fill="inherit" stroke="inherit" stroke-width="inherit"><title>Portsmouth City</title></path><path id="county-51800" class="county feature" d="M796.42 304.27l-.07.599-.338 1.062.521 4.98-.73.152-5.45 1.091-.08-1.752 4.41-5.981.143 1.262z" vector-effect="non-scaling-stroke" fill="inherit" stroke="inherit" stroke-width="inherit"><title>Suffolk City</title></path><path id="county-51081" class="county feature" d="M778.926 308.173l2.383-.183.06 2.714.92.077-.908.894 1.795.213 1.65 1.519-6.858 1.338 1.015-3.426-.685-3.343zm2.09 2.611z" vector-effect="non-scaling-stroke" fill="inherit" stroke="inherit" stroke-width="inherit"><title>Greensville County</title></path><path id="county-51105" class="county feature" d="M703.958 322.245l-2.265 2.679-.342 1.608-7.173.902-2.994.329 2.99-1.613 4.585-2.097.647-2.216 2.743-1.101z" vector-effect="non-scaling-stroke" fill="inherit" stroke="inherit" stroke-width="inherit"><title>Lee County</title></path><path id="county-51117" class="county feature" d="M773.347 311.173l.556 4.38-4.055.777-1.94.391-4.048.757.005-2.565.715-.557 1.599-4.003 3.95.855z" vector-effect="non-scaling-stroke" fill="inherit" stroke="inherit" stroke-width="inherit"><title>Mecklenburg County</title></path><path id="county-51169" class="county feature" d="M709.1 320.06l1.545 2.958.866 2.04-4.629.694-3.256.465-2.275.315.342-1.608 2.265-2.679 1.798-1.75z" vector-effect="non-scaling-stroke" fill="inherit" stroke="inherit" stroke-width="inherit"><title>Scott County</title></path><path id="county-51141" class="county feature" d="M743.932 316.164l-.729.407 1.344 4.306-5.691.797-2.543.279-.062-1.965 1.767-1.197.869-1.857 1.967-1.737 2.565.163z" vector-effect="non-scaling-stroke" fill="inherit" stroke="inherit" stroke-width="inherit"><title>Patrick County</title></path><path id="county-51550" class="county feature" d="M796.966 305.248l-.168.517 1.616-.475.6-.348.275-.111.577 1.16 2.27 1.01-.677.657.446 2.125-2.776.588-2.596.54-.52-4.98.337-1.062z" vector-effect="non-scaling-stroke" fill="inherit" stroke="inherit" stroke-width="inherit"><title>Chesapeake City</title></path><path id="county-51089" class="county feature" d="M749.512 320.037l-4.58.775-.385.065-1.344-4.306.73-.407.493-.779 3.608.191 1.547-1.562zm-3-1.973z" vector-effect="non-scaling-stroke" fill="inherit" stroke="inherit" stroke-width="inherit"><title>Henry County</title></path><path id="county-51077" class="county feature" d="M729.265 318.342l2.013 2.254.326.354 1.394 1.516-.946.101-6.664.806-4.797.48.38-.51.525-.593.992-1.471 3.695-1.626 2.373-.486z" vector-effect="non-scaling-stroke" fill="inherit" stroke="inherit" stroke-width="inherit"><title>Grayson County</title></path><path id="county-51595" class="county feature" d="M781.015 310.784z" vector-effect="non-scaling-stroke" fill="inherit" stroke="inherit" stroke-width="inherit"><title>Emporia City</title></path><path id="county-51690" class="county feature" d="M746.512 318.064z" vector-effect="non-scaling-stroke" fill="inherit" stroke="inherit" stroke-width="inherit"><title>Martinsville City</title></path><path id="county-51620" class="county feature" d="M790.08 310.362l-.443-1.056.443 1.056z" vector-effect="non-scaling-stroke" fill="inherit" stroke="inherit" stroke-width="inherit"><title>Franklin City</title></path><path id="county-51640" class="county feature" d="M731.604 320.95l-.326-.354.326.354z" vector-effect="non-scaling-stroke" fill="inherit" stroke="inherit" stroke-width="inherit"><title>Galax City</title></path><path id="county-51590" class="county feature" d="M754.963 319.095l-1.868.34-.704-1.357 1.41-.754 1.585.913z" vector-effect="non-scaling-stroke" fill="inherit" stroke="inherit" stroke-width="inherit"><title>Danville City</title></path><path id="county-51520" class="county feature" d="M713.9 323.748zm0 0l-.213 1.01-1.432.192z" vector-effect="non-scaling-stroke" fill="inherit" stroke="inherit" stroke-width="inherit"><title>Bristol City</title></path></g><path id="counties-mesh" class="counties mesh" d="M764.4520000000001 265.13399999999996l-.868 4.546-2.196.962.422 1.155-.824 2.329-1.983 2.125-.86 2.728-3.764-2.342m11.493-6.303l-1.38 2.464-.623 1.736-1.192.635-1.69-1.043m9.944-4.063l-.454 2.21 3.608 4.594-.936 3-1.44.222-3.858-4.69-3.359-2.601m13.28 1.165l-.217 3.208-2.39-.996-1.08.692m1.07-9.836l-2.19 4.465-2.034-1.433-4.587-.475 1.464-2.562.869-3.784.565-.187 1.632.046 1.817 1.22-.698 1.618 1.195 1.135 1.967-.043 3.363 1.686.43.43.93 1.085-.895.14m-.672-.484l-.38-.264m-10.08 5.775l-2.79 3.893-.841-.063-1.84-1.471.297-2.589m-4.534 3.81l-.38 1.886 3.227 1.1-2.03 3.13-.987 1.547-7.693-3.803m29.598-12.607l.147.962m-17.646 6.564l-1.1 3.117-.289 1.09m13.329-9.3l-.266-.114.266.114-.266-.114m-.904 7.317l.382.731-1.18.369-1.092-.409-4.305 2.394-.243-1.473-2.491-2.251m2.734 3.724l-1.966 1.853-.637-.594-2.36-1.393-.712-1.944m-12.083 3.415l-1.107 3.942-.945.856-4.32-.892m34.73-11.025l.271 3.169.308 1.708-.623.097-1.234-.486-1.275-.222-1.47-.838m-9.18 3.613l-.881 1.83-4.51-.946m-.987 1.546l-.029 2.42-.72.77-.53 1.99-1.3 1.522-2.207.216-5.31-2.795.402-1.547-1.135-.13m30.681-8.748l1.296-.16 2.475-1.814.7 2.41-.08 2.026-.035.036-.692.37-2.603-1.383-.753.223m-5.782-1.08l-2.716 5.197-2.216-.245-1.456.643-2.493-.52m11.53-4.606l1.276.222m1.234.486l-2.953 5.491-.708-.186-2.283-1.257-1.931-.028m-3.672.398l-.968 2.616-1.923 4.384-1.975 1.584-3.873-5.315m4.164-19.19l-.591-1.638-1.455 1.64-1.362-.301.396-.687 1.2-1.736-.528-1.62.776-1.997-.493-2.064 1.925 1.072 3.196 1.822 3.356 1.893m14.488 13.75l3.09 1.378 3.303-.392 1.694 1.658-.72.695-.606 1.077-1.994-.268-2.07-1.934-.673.964-2.104-1.152m-36.045 14.445l-2.174-.35-2.452 3.357-1.629 1.248-1.202-.395-1.287-1.008 1.359-3.734 1.287-1.686m41.416-11.471l-.507 1.455 1.852 1.835-1.534.574.215 1.099-1.966 2.359-.814.344-1.521-1.691-2.657-1.547m7.624-4.798l.325.98 1.972.337.478 1.719 2.08 1.107 2.066 1.981-.813.971-.986-1.073-1.972.623-1.315-.917-1.182-2.068m-8.985.952l-.566 5.457-1.624-.433-.955-1.304-1.855-.77-3.854-1.221m24.062-3.987l2.294 1.986-1.418.906-1.292-.035-3.436-2.524-.885-1.571m-31.133 9.606l.08 1.67-1.299.393-.726 2.696-1.177 1.045-.617 1.718-3.085-1.926-.192-1.909-.014-2.073m14.94-.027l-.688 1.944-1.263.168-.044 1.719-.596.31-3.617-3.696-1.622-.363m44.803-11.68l.16-.032-.16.032m-.333.068l.097-.021-.097.021m-.23.051l.106-.028-.106.028m8.535-.785l.668.135-1.91 3.951.242 2.472-2.143 1.793-.863-.855-1.484.18 1.277-4.257 1.225-1.553.342-3.139 3.375-1.137-.729 2.41m2.35-2.973l.264-.093-.263.093m-18.73 4.205l1.48-.3 3.824 1.735-.836 3.696-1.458-2.048-1.322-.02m-11.802 3.352l1.033 1.236 2.854.5-.109.634-1.17 1.977-2.777-.775-.816-1.278-2.804.032-2.477.051m-4.434-2.508l-.835 3.157-.957 1.296-3.443-.67-.542-.619m25.217-3.63l1.866 2.03-.126 2.987-1.85-2.31-4.84-2.212-1.824-2.257m6.664 4.47l-2.389.606-2.463-.347m-7.567-.044l.178 2.745-4.624-1.339.037 1.03-1.766-.283-1.57-1.453m26.116-4.31l.31 1.478-2.775-.176-1.733-2.464m-31.427 11.203l-1.779 2.471-.847.827-1.698-1.047-2.482-.664-1.635-1.51m-.617 1.718l-.951 1.712-1.213-.422-1.973 1.891-.19 1.851-3.635-1.546 1.125-2.529-1.066-1.785m25.512-5.402l.064 1.043-2.087 6.068-2.073-.732-3.859-2.253m30-10.016l2.776 2.478 3.561.3-1.609 1.202-2.02-.642-1.655-.336m-20.57 3.045l-.143 3.917-1.183 1.886-1.935 1.56-1.29-.409m-55.038 16.166l.606 1.15-1.502.781-3.344.436-1.798 1.75-1.809-1.51-.08-1.545 1.952-1.615-.237-1.308 2.143-1.844.15-.148 3.288-2.307 4.32-5.192.665.385-.848.67 2.545 3.367 1.79.682 2.692.185 2.52-2.89 2.293 1.606 3.37-1.653 1.76-1.3-.399-1.513.024.017 1.45.836 3.414-2.645.7 1.006 2.283-2.01-.59-.973 1.36-1.44m43.444-6.23l.904.684-.625 2.218-.954.124-1.766-.824.19-1.73-.988-1.028-2.138 1.23-.843.05-2.376 3.232-2.51-.964-1.61 1.057m-27.956 5.642l-2.476 1.978-1.033-.325-1.37 1.219-.947-1.91m50.13-12.283l2.198.192 1.252 1.52-1.879.912.052.996-4.35-1.306m-28.88 5.977l-1.076.848.416 1.371-1.712 6.043-.401 1.024-1.752-.385-2.377-2.46-1.888-.31-.272-1.555m34.596-9.035l-2.936-1.529m15.029-3.25l1.804.714.14 1.133 1.508 3.295-1.596.655-3.637-3.147m-8.546 2.953l.248 1.435-.278-.016-.358 1.367-.36.22-.172.113-.413.283-3.084-.21-1.38.236-2.25-1.451.126-1.047m-10.601 2.398l-.75 3-1.917 1.184-1.473-.447-2.094-3.21m46.172-10.524l-1.017 3.945-.02 3.696-1.341-2.46.219-5.681 1.296-.355m-84.198 21.502l-2.076 2.128-1.502 1.634-1.834.784-2.11-4.081-.951-.377m84.25-18.955l1.02-.438 1.927 1.226.119 2.43-2.927-2.085m-16.688 6.949l-1.84 1.751-6.663-.712-.304-1.323m19.154-3.945l.432.082.368 1.993-2.158-.541-3.51.564-.108-1.186m-45.83 9.66l-2.31 1.717-3.307 2.397-2.704-2.01.426-.414m27.168-6.544l-2.357 1.172m35.717-8.798l1.542 1.397-.55 1.335-.058.609.895-.028 1.473.678-.075.913-.674-.803-3.375.197-.573-2.308m-27.55 8.466l-.548 3.61-2.846-.286-1.491.449-1.082-1.273-2.517 1.885m-6.418-2.131l-1.392 1.93-.78-.548-1.587 1.22-.696.297-.569-2.205-1.359-1.817m3.56.89l.02-.87-.02.87 1.259.747.842-1.88-2.082.263m25.974-4.431l.503 3.284-2.819 1.311-4.04-1.647.004-.852m28.571-7.875l1.035.992 3.717 1.392-.133 1.074.402.548-.553.333-2.708-1.745m-1.473-.678l-.837-.581m-49.294 12.877l-2.185 2.123-2.743 1.158-.848-1.867.619-1.228-1.483-1.598m-8.956 1.626l-1.221 2.02.977.732-2.636 1.498.44.418-3.371 1.987-1.494-.263-2.275-3.165m65.969-14.67l.96.118-1.238-.135m1.239.135l2.23-.721 1.513 1.111-1.649 2.663-3.083 2.903-.663-3.288.055-1.436m-68.669 15.738l-2.43 1.702-2.168-.66-1.75-3.193m24.912-2.723l-.626 1.516-2.785 1.412-1.695-.207-1.972 2.12-1.01-.944m57.832-14.541l-.171.113m-5.337 1.825l-1.332 1.192.7 2.845-1.771-.312-1.124.334-2.633-1.487m11.084-4.114l.89.82m.663 3.288l-2.777 2.76-.628-.197-1.847-1.18-1.857.088m-8.347-.154l-.068 3.623-1.6 4.003-.747-2.646-4.085-2.686m-23.966 1.73l-.62 1.228m.849 1.867l-1.153 1.2-1.397 1.233-3.096-3.213m56.07-13.222l3.113-.11 2.075.849-.023 1.543-1.96 1.626-1.308 1.261-.59-2.003-2.955-.503m-35.128 7.93l-.077 3.574-1.547 1.562-3.608-.19-.494.778-.513-.804-2.565-.163 1.405-3.166-.625-1.76m53.616-9.576l1.096 1.798-3.971-1.818.092-.812m2.934-.05l.675-.597-.109 1.002-.164.144m-4.181.224l.689 1.794 2.745 1.042-.373.999-4.41 5.98-.193-.04-.443-1.055.815-4.113-.813-1.438m-71.602 13.419l-.74.676-1.439 1.442-1.886.463-.228 1.113-3.1 2.15-1.544-2.958m47.8-11.32l-.125 10.028-1.812.327.423-.858-1.585-.913-1.41.754.704 1.357-.588.104-2.995.498.069-6.023m-8.727 1.183l-1.967 1.737-.869 1.857-3.161-3.743m37.966-8.476l.524 4.601-3.219.035-3.95-.855m29.79-10.135l1.696.17-1.318 2.105m-8.015 2.523l-6.041 5.765-.922-.077-.059-2.714-2.383.183m-45.466 8.109l-4.195 2.06-.709.825-2.373.486-2.27-3.258m40.667-2.04l-.715.558-.005 2.565-.907.172-5.003.905-1.175.213m21.523-10.792l.685 3.343-1.015 3.426-1.93.389-2.135.42-.556-4.38m-69.389 11.071l-2.265 2.679-.342 1.608-7.173.902-2.994.329 2.99-1.613 4.585-2.097.647-2.216 2.743-1.101m24.034-1.083l-3.695 1.626-.992 1.471-1.802-2.608-2.398-2.292m72.341-8.544l.443 1.056m.193.04l.08 1.752.025.152-3.621.689-1.93.412-1.65-1.52-1.796-.212.909-.894m21.845-1.64l.696.016-.615.135-.081-.151m-4.55-6.022l-.064 1.727-1.866-.402-.329-1.645 2.258.32 2.79-.41 3.239 6.278-.36.078-1.386-2.93.088 3.21-.47.101-.318.067-1.262.27-.446-2.125.677-.658-2.27-1.01-.577-1.159.232.015m-61.503 13.945l-1.767 1.197.062 1.965-3.315.513-1.394-1.516-.326-.354-2.013-2.254m-7.77 4.408l-.523.593-2.647.355-4.638 1.06.212-1.01-1.644 1.202-.744.108-.866-2.04m87.769-17.728l-1.616.475 1.517-.638m-1.965-.258l-.338 1.062.521 4.98-.73.152-5.45 1.091m4.33-7.733l.143 1.262 1.594-1.412m-11.593 9.136l-6.859 1.338m-4.065.808l-4.055.777-1.94.391-4.048.757m-52.349 7.58l-4.629.694-3.256.465-2.275.315m42.581-10.368l-.729.407 1.344 4.306-5.691.797-2.543.279m60.653-16.705l-.616-.38.07-.597.546.977-.168.517m2.216-.823l-.6.348-.1-.163.7-.185.275-.111m2.616 4.952l-2.776.588-2.596.54m-47.02 9.126l-4.582.775-.384.065m-13.269-.281l.326.354m1.394 1.516l-.946.101-6.664.806-4.797.48.38-.51m33.992-4.248l-1.868.34m-39.408 5.323l-1.432.192m54.09-55.362l-.473.746-2.288-.654m-15.706 21.085l-1.721 4.409-3.46.19-.893-1.025-1.731.34 1.02-2.334.2-2.276 1.53-1.873-.343-.737 1.316-2.593.084-3.069 1.719.49 1.15 1.572 2.447.43 1.084-1.45 1.433-5.7.606-1.797 2.06 1.295.754-2.52.917-.497 1.93-3.277m20.538-1.626l-.587.907m0 0l.38.264m0 0l.672.485m0 0l1.042.82m0 0l.375 1.284-1.326 1.784-1.303-.298m0 0l-4.806-2.467" vector-effect="non-scaling-stroke" fill="inherit" stroke="inherit" stroke-width="inherit"/></svg>