<svg xmlns="http://www.w3.org/2000/svg" version="1.2" id="root" viewBox="314.52852423162466 511.59001165850447 95.14176932564624 61.53588691622912"><g id="counties"><path id="county-15005" class="county feature" d="M372.473 531.41l-1.717-.271 1.717.272z" vector-effect="non-scaling-stroke" fill="inherit" stroke="inherit" stroke-width="inherit"><title>Kalawao County</title></path><path id="county-15001" class="county feature" d="M391.198 548.08l4.664 2.737 2.29.376 3.1 1.461 3.526 3.17-.142 2.086 1.538-.024.368 1.735 3.128 2.259-2.97 3.245-2.717 1.396-2.858.205-3.829 2.523-2.543 3.877-3.991-2.108-.667-1.501.553-4.224-1.873-5.434-1.253-1.711 2.168-2.272 1.996-3.342-1.196-1.769-.141-2.01z" vector-effect="non-scaling-stroke" fill="inherit" stroke="inherit" stroke-width="inherit"><title>Hawaii County</title></path><path id="county-15007" class="county feature" d="M329.148 511.59l1.44.82-.35 4.11-1.999 1.697-3.329-.885-2.12-1.206-.42-1.62 1.069-1.546 2.457-1.324zm-12.022 4.137l.135 1.785-1.47.661-.81 1.585-.452-1.948z" vector-effect="non-scaling-stroke" fill="inherit" stroke="inherit" stroke-width="inherit"><title>Kauai County</title></path><path id="county-15009" class="county feature" d="M370.756 531.139l1.717.272 3.556.352-2.869 1.895-3.304-1.006-4.337-.015 1.016-2.272zm.51 4.723l1.55.292 1.538 1.953-.523.859-2.206.532-1.632-3.317zm7.266 6.036l.286 1.243-2.214.602.05-.964zm-.58-7.958l2.151 2.468 2.75-.905 1.658.347 2.035 1.903 1.962.593.233 1.553-1.018 1.022-4.486 1.33-2.46-.407-.354-3.212-2.887-.61-1.08-1.32.37-2.289z" vector-effect="non-scaling-stroke" fill="inherit" stroke="inherit" stroke-width="inherit"><title>Maui County</title></path><path id="county-15003" class="county feature" d="M353.812 521.32l2.55 3.423-.117 1.214 1.345-.017 1.972 3.025-2.537.775-1.706-1.418-3.643.688-3.08-5.213 2.739-.156z" vector-effect="non-scaling-stroke" fill="inherit" stroke="inherit" stroke-width="inherit"><title>Honolulu County</title></path></g><path id="counties-mesh" class="counties mesh" d="M391.198 548.08l4.664 2.737 2.29.376 3.1 1.461 3.526 3.17-.142 2.086 1.538-.024.368 1.735 3.128 2.259-2.97 3.245-2.717 1.396-2.858.205-3.829 2.523-2.543 3.877-3.991-2.108-.667-1.501.553-4.224-1.873-5.434-1.253-1.711 2.168-2.272 1.996-3.342-1.196-1.769-.141-2.01.85-.675m-62.05-36.49l1.439.82-.35 4.11-1.999 1.697-3.329-.885-2.12-1.206-.42-1.62 1.069-1.546 2.457-1.324 3.252-.046m-12.022 4.137l.135 1.785-1.47.661-.81 1.585-.452-1.948 2.597-2.083m55.347 15.684l-1.717-.272 1.717.272 3.556.352-2.869 1.895-3.304-1.006-4.337-.015 1.016-2.272 4.22.774m.51 4.723l1.55.292 1.539 1.953-.523.859-2.206.532-1.632-3.317 1.273-.32m7.266 6.037l.286 1.243-2.214.602.05-.964 1.878-.881m-.58-7.958l2.151 2.468 2.75-.905 1.658.347 2.035 1.903 1.962.593.233 1.553-1.018 1.022-4.486 1.33-2.46-.407-.354-3.212-2.887-.61-1.08-1.32.37-2.289 1.126-.473m-24.14-12.62l2.55 3.423-.117 1.214 1.345-.017 1.972 3.025-2.537.775-1.706-1.418-3.643.688-3.08-5.213 2.739-.156 2.477-2.322" vector-effect="non-scaling-stroke" fill="inherit" stroke="inherit" stroke-width="inherit"/></svg>