<svg xmlns="http://www.w3.org/2000/svg" version="1.2" id="root" viewBox="257.8145383960841 81.09809632166412 151.11743292231893 96.0323933994182"><g id="counties"><path id="county-30105" class="county feature" d="M383.45 100.594l-.837 3.167 1.612.172-.501 4.774 2.692.295-.656 6.33-.489-.048-.408 3.841-4.793-.808-2.072-.887-.44 1.9-2.138 2.42-4.15 1.954-4.76-.12-2.018-.805 1.294-9.67.635-1.541 1.353.168-.123-3.294 1.403-.361.72-7.416.513-1.562z" vector-effect="non-scaling-stroke" fill="inherit" stroke="inherit" stroke-width="inherit"><title>Valley County</title></path><path id="county-30029" class="county feature" d="M285.858 86.03l.733 3.544 1.521-.424 1.245 2.79-.947 1.81 3.246 1.855-.465 1.566 1.413.931-.295 2.09 1.26 1.663-.308 1.055 2.563 1.266 1.203 3.155-1.391.17-1.383.423-.22 2.629-1.422.792-.15 2.316-3.998-.804-2.09-.388.734-1.444-.659-2.225.48-1.793-1.835-1.917-.29-1.429-2.484.046.28 1.202-5.608-1.079-.434 3.164-1.577-.306.306-1.564-4.778-.905.263-2.642.66-3.844 2.121.424 1.244-6.301-.17-1.634 2.895.57.825-1.586-.647-1.828.112-2.956z" vector-effect="non-scaling-stroke" fill="inherit" stroke="inherit" stroke-width="inherit"><title>Flathead County</title></path><path id="county-30071" class="county feature" d="M370.287 99.103l-.513 1.562-.72 7.416-1.403.36.123 3.295-1.353-.168-.635 1.542-1.294 9.67-.597 1.228-3.058-.52-3.11 2.962-.005-2.216-1.62-.752-3.146-.126-5.617-1.908-1.277-1.836.503-3.455 3.285.48.392-1.261 2.14.554 1.41-8.555.757.52 1.098-5.819.736.098.893-4.674z" vector-effect="non-scaling-stroke" fill="inherit" stroke="inherit" stroke-width="inherit"><title>Phillips County</title></path><path id="county-30053" class="county feature" d="M277.811 84.422l-.112 2.956.647 1.828-.825 1.585-2.895-.569.17 1.634-1.244 6.301-2.121-.424-.66 3.844-1.763-.403-.901 1.738-1.112.26-2.928-.938.072-1.388-1.65-5.676-3.48 1.216-.278-1.095 1.12-5.187 1.928-9.006z" vector-effect="non-scaling-stroke" fill="inherit" stroke="inherit" stroke-width="inherit"><title>Lincoln County</title></path><path id="county-30035" class="county feature" d="M308.729 90.201l-1.512 9.503-4.82-.948-.6 3.152-9.488-1.717.295-2.089-1.413-.931.465-1.566-3.246-1.855.947-1.81-1.245-2.79-1.521.424-.733-3.544z" vector-effect="non-scaling-stroke" fill="inherit" stroke="inherit" stroke-width="inherit"><title>Glacier County</title></path><path id="county-30041" class="county feature" d="M339.052 111.135l-2.401-.3.236-1.627-1.482-.172.233-1.59-9.665-1.47-.247 1.588-1.616-.253 2.38-14.192 15.382 2.27-1.315 7.806.195 2.252-1.49 2.757z" vector-effect="non-scaling-stroke" fill="inherit" stroke="inherit" stroke-width="inherit"><title>Hill County</title></path><path id="county-30005" class="county feature" d="M357.276 97.5l-.893 4.674-.736-.098-1.098 5.82-.757-.52-1.41 8.554-2.14-.554-.392 1.26-3.285-.48-.503 3.456-.458-1.108-4.194-.639-2.137 1.068-1.308-.538 1.087-7.26.21-2.931 1.49-2.757-.195-2.252 1.315-7.807z" vector-effect="non-scaling-stroke" fill="inherit" stroke="inherit" stroke-width="inherit"><title>Blaine County</title></path><path id="county-30019" class="county feature" d="M396.465 101.914l-.381 6.436.66 1.676-10.328-1.024-2.692-.295.5-4.774-1.611-.172.837-3.167z" vector-effect="non-scaling-stroke" fill="inherit" stroke="inherit" stroke-width="inherit"><title>Daniels County</title></path><path id="county-30051" class="county feature" d="M315.749 107.612l.26-1.592 1.664.271 2.343-14.178 6.473 1.006-2.379 14.192-1.135 1.444z" vector-effect="non-scaling-stroke" fill="inherit" stroke="inherit" stroke-width="inherit"><title>Liberty County</title></path><path id="county-30101" class="county feature" d="M308.729 90.201l11.287 1.912-2.343 14.178-1.664-.27-3.193-.527.404-2.372-1.474-1.057-2.402-.435-.184-1.115-1.943-.811z" vector-effect="non-scaling-stroke" fill="inherit" stroke="inherit" stroke-width="inherit"><title>Toole County</title></path><path id="county-30091" class="county feature" d="M408.932 103.028l-.567 6.728-.364 4.508-7.255-.635.146-1.604-1.613-.152.147-1.594-2.683-.253-.66-1.676.382-6.436z" vector-effect="non-scaling-stroke" fill="inherit" stroke="inherit" stroke-width="inherit"><title>Sheridan County</title></path><path id="county-30085" class="county feature" d="M396.743 110.026l2.683.253-.147 1.594 1.613.152-.146 1.604 7.255.635-.588 7.253-1.064-1.204-2.685-.055-1.261-1.472-4.75-.452-.6-.615-1.443 1.444-2.51-.24-.37-.533-3.369-.436-4.498 1.171.408-3.841.49.048.655-6.33z" vector-effect="non-scaling-stroke" fill="inherit" stroke="inherit" stroke-width="inherit"><title>Roosevelt County</title></path><path id="county-30073" class="county feature" d="M307.217 99.704l1.943.81.184 1.116 2.402.435 1.474 1.057-.404 2.372 3.193.526-.26 1.592-.43 2.654-7.155-1.15-.48-2-1.478-1.08-10.382-1.86-2.563-1.266.308-1.055-1.26-1.664 9.487 1.717.601-3.152z" vector-effect="non-scaling-stroke" fill="inherit" stroke="inherit" stroke-width="inherit"><title>Pondera County</title></path><path id="county-30015" class="county feature" d="M339.052 111.135l-1.087 7.26-3.67-.108-.689 3.134-4.987 1.64-5.35-.81-1.543-.8.231-1.444-1.197-.192-2.116-1.712 1.213-1.69-5.406-.865.868-5.282.43-2.654 7.226 1.143 1.135-1.444 1.616.253.247-1.588 9.665 1.47-.233 1.59 1.482.172-.236 1.627z" vector-effect="non-scaling-stroke" fill="inherit" stroke="inherit" stroke-width="inherit"><title>Chouteau County</title></path><path id="county-30089" class="county feature" d="M270.771 101.577l-.263 2.642 4.778.905-.306 1.564-.418 3.469 2.898.566-.834 2.104 1.117-.037-1.066 1.772 1.745 1-.572 4.008-1.358-.024-.542-1.313-2.256-1.626-3.015-.903-1.973-1.248.14-1.568-3.402-2.4-4.33-.761-1.3-1.634.978-.608-.05-1.906-1.031-1.312-1.896-4.696.916-4.28.278 1.095 3.48-1.216 1.65 5.676-.072 1.388 2.928.938 1.112-.26.9-1.738z" vector-effect="non-scaling-stroke" fill="inherit" stroke="inherit" stroke-width="inherit"><title>Sanders County</title></path><path id="county-30083" class="county feature" d="M407.413 121.517l-.948 11.06-1.165.709-3.658-.329-1.178-.107.294-3.226-1.021-.086.146-1.607-4.856-.458.157-1.607-3.233-.314.157-1.609.64-1.379.353-3.641 2.51.24 1.442-1.444.6.615 4.75.452 1.261 1.472 2.685.055z" vector-effect="non-scaling-stroke" fill="inherit" stroke="inherit" stroke-width="inherit"><title>Richland County</title></path><path id="county-30099" class="county feature" d="M315.32 110.266l-.87 5.282-3.22-.524-.263 1.584-3.198-.54-.328 1.938-1.527-.455-2.923-.315-1.589-2.16-1.75-.82-3.023-.041-.958-1.872.446-2.354-.481-2.488 1.391-.17-1.203-3.155 10.382 1.86 1.478 1.08.48 2z" vector-effect="non-scaling-stroke" fill="inherit" stroke="inherit" stroke-width="inherit"><title>Teton County</title></path><path id="county-30055" class="county feature" d="M393.1 118.923l-.352 3.641-.64 1.38-1.613-.152-.485 4.816-.544-.051-.634 6.424-5.414-.54-.168 1.625-1.62-.166.171-1.63-1.608-.167-1.06-.114.34-3.209-1.613-.168.821-3.17.678-6.256-1.22-.134-.582-1.723.441-1.899 2.072.887 4.793.808 4.498-1.17 3.37.435z" vector-effect="non-scaling-stroke" fill="inherit" stroke="inherit" stroke-width="inherit"><title>McCone County</title></path><path id="county-30047" class="county feature" d="M286.373 112.47l-3.693-.673-.69 2.18.71 1.734-.117 3.943-1.55.527-3.183-.61.572-4.01-1.745-.999 1.066-1.772-1.117.037.834-2.104-2.898-.566.418-3.47 1.577.307.434-3.164 5.608 1.08-.28-1.203 2.484-.046.29 1.43 1.835 1.916-.48 1.793.659 2.225z" vector-effect="non-scaling-stroke" fill="inherit" stroke="inherit" stroke-width="inherit"><title>Lake County</title></path><path id="county-30033" class="county feature" d="M377.557 119.33l.581 1.722 1.221.134-.678 6.256-.821 3.17 1.612.168-.34 3.21 1.061.113-.626 5.927-.029.265-8.082-.875.02-.267-14.93-1.632-.587-.566 1.058-2.034-.632-2.656.482-4.208.86-1.607 3.11-2.961 3.058.519.597-1.229 2.018.805 4.76.12 4.15-1.954z" vector-effect="non-scaling-stroke" fill="inherit" stroke="inherit" stroke-width="inherit"><title>Garfield County</title></path><path id="county-30049" class="county feature" d="M305.914 117.55l-.976 5.916 3.014 1.715-.67 3.941 1.667.29-.058 1.336 1.626 1.767-1.856.15-.452 3.115-1.961-.324-3.063-.52-4.043 2.104.797-3.354-1.179-1.979-1.58-.254.432-2.49-3.286-.533 1.11-6.325-3.287-.633 1.015-5.621-.703-2.19.15-2.316 1.422-.792.22-2.63 1.383-.422.481 2.488-.446 2.354.958 1.872 3.023.04 1.75.82 1.589 2.16z" vector-effect="non-scaling-stroke" fill="inherit" stroke="inherit" stroke-width="inherit"><title>Lewis and Clark County</title></path><path id="county-30027" class="county feature" d="M346.062 119.612l1.277 1.836 5.617 1.908-.675 4.937-3.506-.3-1.707.445-.65 3.14 1.623.222-1.14 6.385-4.817-.676-4.825-.683-.155 1.056-4.534-.654-.781-2.15 1.196-1.595.757-5.324-4.442-2.28.24-1.597-.92-1.22 4.986-1.641.69-3.134 3.669.108 1.308.538 2.137-1.068 4.194.639z" vector-effect="non-scaling-stroke" fill="inherit" stroke="inherit" stroke-width="inherit"><title>Fergus County</title></path><path id="county-30021" class="county feature" d="M392.108 123.943l-.157 1.609 3.233.314-.157 1.607 4.856.458-.146 1.607 1.021.086-.294 3.226 1.178.107.82 2.104.13 3.804-1.585 2.438-2.519.583-5.41-.516-.435-1.118-1.63-.158.114-1.071-1.632-.161.372-3.777-1.035-.104.634-6.424.544.05.485-4.815z" vector-effect="non-scaling-stroke" fill="inherit" stroke="inherit" stroke-width="inherit"><title>Dawson County</title></path><path id="county-30013" class="county feature" d="M323.268 122.25l-.163 1.05-1.606-.252-.82 4.82 1.604.253-.872 4.984-2.843-3.399-1.928-.774.12-1.537-1.203 1.249-4.848-.573-.262 1.588-1.498-.246-1.667-.29.67-3.942-3.014-1.715.976-5.915 1.527.455.328-1.938 3.198.54.264-1.584 3.22.524 5.406.865-1.213 1.69 2.116 1.712 1.197.192-.231 1.445z" vector-effect="non-scaling-stroke" fill="inherit" stroke="inherit" stroke-width="inherit"><title>Cascade County</title></path><path id="county-30063" class="county feature" d="M286.373 112.47l2.09.387-1.424 7.685 2.05.37-1.173 6.349-2.332.124-.196 1.057-2.474.084-.19 1.057-2.018-.432-6.38-1.223-3.412-.163-.627-2.077 1.625.123.564-3.991 1.549-.252-.14-1.432-2.445-2.659-.76-1.773 3.014.903 2.256 1.626.542 1.313 1.358.024 3.182.611 1.55-.527.117-3.943-.71-1.733.69-2.18z" vector-effect="non-scaling-stroke" fill="inherit" stroke="inherit" stroke-width="inherit"><title>Missoula County</title></path><path id="county-30077" class="county feature" d="M292.46 113.661l.704 2.19-1.015 5.621 3.288.633-1.111 6.325 3.286.533-.433 2.49 1.581.254 1.18 1.979-.798 3.354-3.65 2.295-6.096-1.106 1.536-8.602-1.051.236-1.965-2.602 1.174-6.349-2.051-.37 1.424-7.685z" vector-effect="non-scaling-stroke" fill="inherit" stroke="inherit" stroke-width="inherit"><title>Powell County</title></path><path id="county-30069" class="county feature" d="M357.727 126.45l-.86 1.607-.482 4.208.632 2.656-1.058 2.034.587.566.602 1.868-10.248-1.204 1.14-6.385-1.621-.222.65-3.14 1.706-.445 3.506.3.675-4.937 3.145.126 1.621.752z" vector-effect="non-scaling-stroke" fill="inherit" stroke="inherit" stroke-width="inherit"><title>Petroleum County</title></path><path id="county-30061" class="county feature" d="M270.68 115.704l.76 1.773 2.445 2.659.14 1.432-1.549.252-.564 3.991-1.625-.123-2.994-2.922.135-1.37-.998-.902-.689-2.644-1.862-3.435-2.217-1.153-.081-.977-1.821-1.816 1.353-.742 4.33.761 3.403 2.4-.14 1.568z" vector-effect="non-scaling-stroke" fill="inherit" stroke="inherit" stroke-width="inherit"><title>Mineral County</title></path><path id="county-30045" class="county feature" d="M328.62 123.062l.92 1.22-.24 1.598 4.442 2.279-.757 5.324-1.196 1.595.78 2.15-2.679-1.467-3.983.161-2.439.232-2.057-3.049.872-4.984-1.604-.252.82-4.821 1.606.253.163-1.05z" vector-effect="non-scaling-stroke" fill="inherit" stroke="inherit" stroke-width="inherit"><title>Judith Basin County</title></path><path id="county-30109" class="county feature" d="M406.465 132.577l-.106 1.245-1.082 12.758-3.957-.342-.747-.878-2.422-.218.337-3.256 2.52-.583 1.584-2.438-.13-3.804-.82-2.104 3.658.329z" vector-effect="non-scaling-stroke" fill="inherit" stroke="inherit" stroke-width="inherit"><title>Wibaux County</title></path><path id="county-30079" class="county feature" d="M398.488 141.886l-.337 3.256-1.737 1.191-1.61-.146-1.74 1.18-3.269-.321-2.637-.82-.422-1.67-1.034-.102-.21-3.28-2.689-.808-3.236-.336.626-5.927 1.608.167-.171 1.63 1.62.166.168-1.625 5.414.54 1.035.104-.372 3.777 1.632.16-.113 1.072 1.63.158.433 1.118z" vector-effect="non-scaling-stroke" fill="inherit" stroke="inherit" stroke-width="inherit"><title>Prairie County</title></path><path id="county-30059" class="county feature" d="M321.41 133.105l2.058 3.05 2.44-.233-1.476 9.007-.102.67-6.406-1.142-3.562-.573-.58-1.63 1.257-2.135-2.078-.911-1.154-2.398-1.29-4.295-1.626-1.767.058-1.335 1.498.246.262-1.588 4.848.573 1.204-1.249-.12 1.537 1.927.774z" vector-effect="non-scaling-stroke" fill="inherit" stroke="inherit" stroke-width="inherit"><title>Meagher County</title></path><path id="county-30017" class="county feature" d="M396.414 146.333l-.222 2.418-2.222-.206-.343 6.432-.69-.062-.613 6.492-.554-.053-15.686-1.618.7-6.46.496.05.66-6.418.447.046.683-6.435.468-.224.029-.265 3.236.336 2.689.808.21 3.28 1.034.102.422 1.67 2.637.82 3.268.32 1.741-1.179z" vector-effect="non-scaling-stroke" fill="inherit" stroke="inherit" stroke-width="inherit"><title>Custer County</title></path><path id="county-30087" class="county feature" d="M379.538 140.295l-.468.224-.683 6.435-.447-.046-.66 6.417-.496-.049-.7 6.46-.55-.053-.89 8.102-.578-.035-.344 3.165-6.386-.706.361-3.215.503.078.676-5.961-2.355-.478.775-2.684-.716-.804.57-4.938-.883-.054.296-4.868-1.607-.19-.082-1.638-7.22-.863-.514-.331.008-4.874-.602-1.868 14.93 1.632-.02.267z" vector-effect="non-scaling-stroke" fill="inherit" stroke="inherit" stroke-width="inherit"><title>Rosebud County</title></path><path id="county-30039" class="county feature" d="M289.396 138.23l-.145.802-3.142-.568-.524 3.26-3.417 1.373-1.137-.396-.708-1.763-1.474-.327.904-1.247-.589-1.816 1.183-1.076-.78-4.649 1.139-2.672 2.018.432.19-1.057 2.474-.084.196-1.057 2.332-.124 1.965 2.602 1.05-.236z" vector-effect="non-scaling-stroke" fill="inherit" stroke="inherit" stroke-width="inherit"><title>Granite County</title></path><path id="county-30007" class="county feature" d="M310.517 132.515l1.29 4.295 1.154 2.398 2.078.911-1.258 2.135.581 1.63-3.645-.497-1.444 3.27-3.65 2.591.656-3.973-1.584-.275 1.553-9.544 1.961.324.452-3.116z" vector-effect="non-scaling-stroke" fill="inherit" stroke="inherit" stroke-width="inherit"><title>Broadwater County</title></path><path id="county-30065" class="county feature" d="M357.148 139.39l-.008 4.873-.241 1.86-1.877-.236-1.606 2.265-3.735-.486-1.145.376-.251 1.912-4.821-.64.37-2.662-.833-1.77-.025-3.996-1.059-.17.167-3.207 4.816.676z" vector-effect="non-scaling-stroke" fill="inherit" stroke="inherit" stroke-width="inherit"><title>Musselshell County</title></path><path id="county-30037" class="county feature" d="M342.084 137.509l-.167 3.208 1.06.17.024 3.995.833 1.77-.37 2.663-1.854-.248-6.31-.88-.253 1.616-2.41-.36-.168-3.303 3.22.46 1.415-8.718.155-1.056z" vector-effect="non-scaling-stroke" fill="inherit" stroke="inherit" stroke-width="inherit"><title>Golden Valley County</title></path><path id="county-30107" class="county feature" d="M332.57 137.228l4.534.654-1.414 8.718-3.22-.46-8.038-1.211 1.475-9.007 3.983-.16z" vector-effect="non-scaling-stroke" fill="inherit" stroke="inherit" stroke-width="inherit"><title>Wheatland County</title></path><path id="county-30025" class="county feature" d="M405.277 146.58l-.158 1.864-.42 4.838-.519 6.222-.09 1.178-1.169-.101.14-1.615-3.317-.316.148-1.57-1.629-.14.141-1.517-4.777-.446.343-6.432 2.222.206.222-2.418 1.737-1.19 2.422.217.747.878z" vector-effect="non-scaling-stroke" fill="inherit" stroke="inherit" stroke-width="inherit"><title>Fallon County</title></path><path id="county-30081" class="county feature" d="M280.706 129.15l-1.138 2.673.779 4.649-1.183 1.076.589 1.816-.904 1.247 1.474.327.708 1.763 1.137.396.01.026-.353 1.025-2.293.284-3.594 2.126-5.11 3.08-.966.219-1.233-2.232-1.22-.1 1.236-1.875-.49-2.09 1.139-1.224 1.143.19.43-2.314-1.024-1.217.836-1.084.947-3.207 2.07-4.222.63-2.554z" vector-effect="non-scaling-stroke" fill="inherit" stroke="inherit" stroke-width="inherit"><title>Ravalli County</title></path><path id="county-30043" class="county feature" d="M306.248 135.456L304.695 145l1.584.275-.656 3.973-1.969.35-1.43-1.36-2.301-.102-1.372 1.525-2.446-1.998-.22-6.67-.912-.103.52-1.555 3.65-2.295 4.042-2.103z" vector-effect="non-scaling-stroke" fill="inherit" stroke="inherit" stroke-width="inherit"><title>Jefferson County</title></path><path id="county-30111" class="county feature" d="M357.654 144.594l1.217 3.412 1.588 2.642-.884 2.414-2.104-.265-.132 1.072-1.593-.197-1.275 1.47-2.14-.277-1.185 7-3.351.673-4.251-.629-2.197-3.064-.629-1.431.747-5.119.145-3.228 1.854.248 4.82.64.252-1.913 1.145-.376 3.735.486 1.606-2.265 1.877.236.24-1.86z" vector-effect="non-scaling-stroke" fill="inherit" stroke="inherit" stroke-width="inherit"><title>Yellowstone County</title></path><path id="county-30103" class="county feature" d="M366.58 157.145l-2.873-1.963-3.21-.386.193-1.601-1.115-.133.884-2.414-1.588-2.642-1.217-3.412 7.22.863.082 1.638 1.607.19-.296 4.868.884.054z" vector-effect="non-scaling-stroke" fill="inherit" stroke="inherit" stroke-width="inherit"><title>Treasure County</title></path><path id="county-30023" class="county feature" d="M295.492 139.335l-.52 1.555-2.7.337-.286 1.605-2.237.644-.01 1.11-2.318.98-1.754-.484-2.538 1.464-.952-3.423-.009-.026 3.417-1.372.524-3.26 3.142.567.145-.803z" vector-effect="non-scaling-stroke" fill="inherit" stroke="inherit" stroke-width="inherit"><title>Deer Lodge County</title></path><path id="county-30097" class="county feature" d="M332.47 146.14l.167 3.302 2.41.361-.3 1.545-1.074-.133-.779 1.55-.861 4.813-5.013.904-.488 3.212-1.7-.255-.496 3.264-2.14-.335 1.801-11.289-.92-.14 1.253-7.34.102-.67z" vector-effect="non-scaling-stroke" fill="inherit" stroke="inherit" stroke-width="inherit"><title>Sweet Grass County</title></path><path id="county-30031" class="county feature" d="M314.362 143.884l3.562.573-1.879 11.074-1.793.945-.49 3.217-1.562-.249-1.11 6.444-1.134 6.168-.487 3.564-2.012-2.261.226-.83-1.686-2.733 1.86-11.042.301.05.861-5.373-2.391-.395-1.272-2.123-1.702-1.315 1.969-.35 3.65-2.59 1.444-3.271z" vector-effect="non-scaling-stroke" fill="inherit" stroke="inherit" stroke-width="inherit"><title>Gallatin County</title></path><path id="county-30067" class="county feature" d="M324.33 145.598l-1.253 7.34.92.141-1.802 11.289 2.141.335 3.448.599-.456 3.055-11.846-1.604-4.392-.865 1.11-6.444 1.562.249.49-3.217 1.793-.945 1.88-11.074z" vector-effect="non-scaling-stroke" fill="inherit" stroke="inherit" stroke-width="inherit"><title>Park County</title></path><path id="county-30093" class="county feature" d="M298.55 149.661l-3.509-.5-3.273 1.65-.53-2.422-3.817-2.822 2.318-.981.01-1.11 2.237-.644.286-1.605 2.7-.337.913.104.22 6.67z" vector-effect="non-scaling-stroke" fill="inherit" stroke="inherit" stroke-width="inherit"><title>Silver Bow County</title></path><path id="county-30011" class="county feature" d="M404.09 160.682l-.996 12.454-.576 3.994-12.88-1.218.634-6.542.666.064.832-8.08.554.053.613-6.492.69.062 4.777.446-.141 1.518 1.63.139-.149 1.57 3.316.316-.139 1.615z" vector-effect="non-scaling-stroke" fill="inherit" stroke="inherit" stroke-width="inherit"><title>Carter County</title></path><path id="county-30095" class="county feature" d="M341.61 149.067l-.145 3.228-.747 5.119.629 1.43-3.758-.047-1.138 2.139-2.136-.303-2.936 1.497-.877 1.793-1.064-.155-.262 1.74-1.392-.206-3.448-.599.496-3.264 1.7.255.488-3.212 5.013-.904.861-4.813.779-1.55 1.074.133.3-1.545.253-1.617z" vector-effect="non-scaling-stroke" fill="inherit" stroke="inherit" stroke-width="inherit"><title>Stillwater County</title></path><path id="county-30003" class="county feature" d="M366.58 157.145l.716.804-.775 2.684 2.355.478-.676 5.961-.503-.078-.36 3.215 6.385.706-.163 3.482-21.573-2.67-4.422-.53 2.106-3.845-7.452-.98.76-3.953.566-.51 4.25.63 3.352-.675 1.185-7 2.14.278 1.275-1.47 1.593.197.132-1.072 2.104.265 1.115.133-.194 1.601 3.21.386z" vector-effect="non-scaling-stroke" fill="inherit" stroke="inherit" stroke-width="inherit"><title>Big Horn County</title></path><path id="county-30001" class="county feature" d="M287.42 145.567l3.817 2.822.53 2.422-.494 2.709 2.229 1.056.326 1.818-.827 4.815 1.597.28-.29 1.617 1.858.335-.236 3.247 1.184 1.017 3.696.675-.22 1.335 4.036.661-.987 3.124-1.394-.508-2.793.32-.436-1.117-3.122.25-2.365-1.26-1.693 1.974-1.013-.772-4.014-.802-.814 1.921-2.22-1.816.203-1.391-.797-4.856-1.315-1.174-1.351.471-1.228-1.762.716-3.544-1.148-1.246-1.26-3.088-.576-2.867.278-3.638-1.186-.593-.173-1.444 3.594-2.126 2.293-.284.352-1.025.952 3.423 2.538-1.464z" vector-effect="non-scaling-stroke" fill="inherit" stroke="inherit" stroke-width="inherit"><title>Beaverhead County</title></path><path id="county-30057" class="county feature" d="M303.654 149.598l1.702 1.315 1.272 2.123 2.391.395-.86 5.374-.303-.051-1.86 11.042-1.37.58-4.035-.66.219-1.336-3.696-.675-1.184-1.017.236-3.247-1.859-.335.29-1.618-1.596-.28.827-4.814-.326-1.818-2.229-1.056.495-2.709 3.273-1.65 3.51.5 1.372-1.525 2.301.101z" vector-effect="non-scaling-stroke" fill="inherit" stroke="inherit" stroke-width="inherit"><title>Madison County</title></path><path id="county-30075" class="county feature" d="M391.77 161.354l-.832 8.08-.666-.064-.633 6.542-.664-.065-12.287-1.11-3.13-.34.164-3.482.344-3.165.579.035.89-8.102.55.053z" vector-effect="non-scaling-stroke" fill="inherit" stroke="inherit" stroke-width="inherit"><title>Powder River County</title></path><path id="county-30009" class="county feature" d="M343.544 161.91l-.567.51-.759 3.953 7.452.979-2.106 3.845-4.86-.654-15.376-2.186.456-3.055 1.392.205.262-1.739 1.064.155.877-1.793 2.936-1.497 2.136.303 1.138-2.14 3.758.049z" vector-effect="non-scaling-stroke" fill="inherit" stroke="inherit" stroke-width="inherit"><title>Carbon County</title></path></g><path id="counties-mesh" class="counties mesh" d="M364.492 122.78l-.597 1.228-3.058-.52-3.11 2.962-.005-2.216-1.62-.752-3.146-.126-5.617-1.908-1.277-1.836.503-3.455 3.285.48.392-1.261 2.14.554 1.41-8.555.757.52 1.098-5.819.736.098.893-4.674 13.01 1.603m-99.515 2.474l-1.763-.403-.901 1.738-1.112.26-2.928-.938.072-1.388-1.65-5.676-3.48 1.216-.278-1.095 1.12-5.187 1.928-9.006 16.032 3.324m8.047 1.608l.733 3.544 1.521-.424 1.245 2.79-.947 1.81 3.246 1.855-.465 1.566 1.413.931-.295 2.09 1.26 1.663-.308 1.055 2.563 1.266 1.203 3.155-1.391.17-1.383.423-.22 2.629-1.422.792-.15 2.316-3.998-.804-2.09-.388.734-1.444-.659-2.225.48-1.793-1.835-1.917-.29-1.429-2.484.046.28 1.202-5.608-1.079-.434 3.164-1.577-.306.306-1.564-4.778-.905.263-2.642.66-3.844 2.121.424 1.244-6.301-.17-1.634 2.895.57.825-1.586-.647-1.828.112-2.956 8.047 1.608 22.87 4.171-1.511 9.503-4.82-.948-.6 3.152-9.488-1.717m53.753 19.42l-.458-1.107-4.194-.639-2.137 1.068-1.308-.538 1.087-7.26-2.401-.3.236-1.627-1.482-.172.233-1.59-9.665-1.47-.247 1.588-1.616-.253 2.38-14.192 15.382 2.27-1.315 7.806.195 2.252-1.49 2.757-.21 2.931m2.82-15.747l15.404 2.112m26.174 3.094l-.837 3.167 1.612.172-.501 4.774 2.692.295-.656 6.33-.489-.048-.408 3.841-4.793-.808-2.072-.887-.44 1.9-2.138 2.42-4.15 1.954-4.76-.12-2.018-.805 1.294-9.67.635-1.541 1.353.168-.123-3.294 1.403-.361.72-7.416.513-1.562 13.163 1.491 13.015 1.32-.381 6.436.66 1.676-10.328-1.024m-62.306-1.69l-1.135 1.443-7.226-1.143.26-1.592 1.664.271 2.343-14.178 6.473 1.006M308.73 90.2l11.287 1.912m-4.007 13.907l-3.193-.526.404-2.372-1.474-1.057-2.402-.435-.184-1.115-1.943-.811m89.248 2.21l12.467 1.114-.567 6.728-.364 4.508-7.255-.635.146-1.604-1.613-.152.147-1.594-2.683-.253m-121.763-3.338l-.418 3.469 2.898.566-.834 2.104 1.117-.037-1.066 1.772 1.745 1-.572 4.008-1.358-.024-.542-1.313-2.256-1.626-3.015-.903-1.973-1.248.14-1.568-3.402-2.4-4.33-.761-1.3-1.634.978-.608-.05-1.906-1.031-1.312-1.896-4.696.916-4.28m149.27 18.973l-.588 7.253-1.064-1.204-2.685-.055-1.261-1.472-4.75-.452-.6-.615-1.443 1.444-2.51-.24-.37-.533-3.369-.436-4.498 1.171m-69.114-11.513l-.43 2.654-7.155-1.15-.48-2-1.478-1.08-10.382-1.86m42.14 14.219l-3.669-.108-.689 3.134-4.987 1.64-5.35-.81-1.543-.8.231-1.444-1.197-.192-2.116-1.712 1.213-1.69-5.406-.865.868-5.282m92.094 11.25l-.948 11.061-1.165.709-3.658-.329-1.178-.107.294-3.226-1.021-.086.146-1.607-4.856-.458.157-1.607-3.233-.314.157-1.609.64-1.379.353-3.641m-78.65-3.375l-3.22-.524-.264 1.584-3.198-.54-.328 1.938-1.527-.455-2.923-.315-1.589-2.16-1.75-.82-3.023-.041-.958-1.872.446-2.354-.481-2.488m96.472 16.442l-1.613-.151-.485 4.816-.544-.051-.634 6.424-5.414-.54-.168 1.625-1.62-.166.171-1.63-1.608-.167-1.06-.114.34-3.209-1.613-.168.821-3.17.678-6.256-1.22-.134-.582-1.723m-107.27 6.359l-2.994-2.922.135-1.37-.998-.902-.689-2.644-1.862-3.435-2.217-1.153-.081-.977-1.821-1.816 1.353-.742m25.26 2.742l-3.693-.672-.69 2.18.71 1.734-.117 3.943-1.55.527-3.183-.61m102.343 14.532l-.626 5.927-.029.265-8.082-.875.02-.267-14.93-1.632-.587-.566 1.058-2.034-.632-2.656.482-4.208.86-1.607m-51.813-8.9l-.976 5.916 3.014 1.715-.67 3.941 1.667.29-.058 1.336 1.626 1.767-1.856.15-.452 3.115-1.961-.324-3.063-.52-4.043 2.104.797-3.354-1.179-1.979-1.58-.254.432-2.49-3.286-.533 1.11-6.325-3.287-.633 1.015-5.621-.703-2.19m60.495 9.695l-.675 4.937-3.506-.3-1.707.445-.65 3.14 1.623.222-1.14 6.385-4.817-.676-4.825-.683-.155 1.056-4.534-.654-.781-2.15 1.196-1.595.757-5.324-4.442-2.28.24-1.597-.92-1.22m73.022 9.895l.82 2.104.13 3.804-1.585 2.438-2.519.583-5.41-.516-.435-1.118-1.63-.158.114-1.071-1.632-.161.372-3.777-1.035-.104m-65.564-12.73l-.163 1.05-1.606-.253-.82 4.82 1.604.253-.872 4.984-2.843-3.399-1.928-.774.12-1.537-1.203 1.249-4.848-.573-.262 1.588-1.498-.246m-20.486-16.556l-1.424 7.685 2.05.37-1.173 6.349-2.332.124-.196 1.057-2.474.084-.19 1.057-2.018-.432-6.38-1.223-3.412-.163-.627-2.077 1.625.123.564-3.991 1.549-.252-.14-1.432-2.445-2.659-.76-1.773m28.462 21.336l-3.65 2.295-6.096-1.106 1.536-8.602-1.051.236-1.965-2.602m68.63 10.26l.602 1.868-10.248-1.204m-14.33-.957l-2.68-1.467-3.983.161-2.439.232-2.057-3.049m85.054-.528l-.106 1.245-1.082 12.758-3.957-.342-.747-.878-2.422-.218.337-3.256m-.337 3.256l-1.737 1.191-1.61-.146-1.74 1.18-3.269-.321-2.637-.82-.422-1.67-1.034-.102-.21-3.28-2.689-.808-3.236-.336m-53.66-4.108l-1.475 9.007-.102.67-6.406-1.142-3.562-.573-.58-1.63 1.257-2.135-2.078-.911-1.154-2.398-1.29-4.295m85.897 13.818l-.222 2.418-2.222-.206-.343 6.432-.69-.062-.613 6.492-.554-.053-15.686-1.618.7-6.46.496.05.66-6.418.447.046.683-6.435.468-.224m-3.454 19.441l-.55-.053-.89 8.102-.578-.035-.344 3.165-6.386-.706.361-3.215.503.078.676-5.961-2.355-.478.775-2.684-.716-.804.57-4.938-.883-.054.296-4.868-1.607-.19-.082-1.638-7.22-.863-.514-.331.008-4.874m-67.752-1.16l-.145.803-3.142-.568-.524 3.26-3.417 1.373-1.137-.396-.708-1.763-1.474-.327.904-1.247-.589-1.816 1.183-1.076-.78-4.649 1.139-2.672m33.656 14.733l-3.645-.497-1.444 3.27-3.65 2.591.656-3.973-1.584-.275 1.553-9.544m50.892 8.807l-.241 1.86-1.877-.236-1.606 2.265-3.735-.486-1.145.376-.251 1.912-4.821-.64.37-2.662-.833-1.77-.025-3.996-1.059-.17.167-3.207m1.38 11.806l-1.854-.248-6.31-.88-.253 1.616-2.41-.36-.168-3.303 3.22.46 1.415-8.718m-4.635 8.258l-8.037-1.211m80.845 1.65l-.158 1.865-.42 4.838-.519 6.222-.09 1.178-1.169-.101.14-1.615-3.317-.316.148-1.57-1.629-.14.141-1.517-4.777-.446m-111.459-11.88l.01.026-.353 1.025-2.293.284-3.594 2.126-5.11 3.08-.966.219-1.233-2.232-1.22-.1 1.236-1.875-.49-2.09 1.139-1.224 1.143.19.43-2.314-1.024-1.217.836-1.084.947-3.207 2.07-4.222.63-2.554m31.297 21.32l-1.969.35-1.43-1.36-2.301-.102-1.372 1.525-2.446-1.998-.22-6.67-.912-.103.52-1.555m62.16 5.259l1.218 3.412 1.588 2.642-.884 2.414-2.104-.265-.132 1.072-1.593-.197-1.275 1.47-2.14-.277-1.185 7-3.351.673-4.251-.629-2.197-3.064-.629-1.431.747-5.119.145-3.228m24.97 8.078l-2.873-1.963-3.21-.386.193-1.601-1.115-.133m-64.602-12.172l-2.7.337-.287 1.605-2.237.644-.01 1.11-2.318.98-1.754-.484-2.538 1.464-.952-3.423m52.87 6.68l-.3 1.545-1.074-.133-.779 1.55-.861 4.813-5.013.904-.488 3.212-1.7-.255-.496 3.264-2.14-.335 1.801-11.289-.92-.14 1.253-7.34m-6.406-1.142l-1.879 11.074-1.793.945-.49 3.217-1.562-.249-1.11 6.444-1.134 6.168-.487 3.564-2.012-2.261.226-.83-1.686-2.733 1.86-11.042.301.05.861-5.373-2.391-.395-1.272-2.123-1.702-1.315m20.682 15.105l3.448.599-.456 3.055-11.846-1.604-4.392-.865m-12.54-16.227l-3.509-.5-3.273 1.65-.53-2.422-3.817-2.822m116.669 15.115l-.996 12.454-.576 3.994-12.88-1.218.634-6.542.666.064.832-8.08m-50.423-2.51l-3.758-.047-1.138 2.139-2.136-.303-2.936 1.497-.877 1.793-1.064-.155-.262 1.74-1.392-.206m45.938 5.613l-.163 3.482-21.573-2.67-4.422-.53 2.106-3.845-7.452-.98.76-3.953.566-.51m-51.776-11.098l-.495 2.709 2.229 1.056.326 1.818-.827 4.815 1.597.28-.29 1.617 1.858.335-.236 3.247 1.184 1.017 3.696.675-.22 1.335 4.036.661-.987 3.124-1.394-.508-2.793.32-.436-1.117-3.122.25-2.365-1.26-1.693 1.974-1.013-.772-4.014-.802-.814 1.921-2.22-1.816.203-1.391-.797-4.856-1.315-1.174-1.351.471-1.228-1.762.716-3.544-1.148-1.246-1.26-3.088-.576-2.867.278-3.638-1.186-.593-.173-1.444m30.059 23.238l-1.371.58m85.013 5.536l-.664-.065-12.287-1.11-3.13-.34m-25.994-3.2l-4.86-.654-15.376-2.186" vector-effect="non-scaling-stroke" fill="inherit" stroke="inherit" stroke-width="inherit"/></svg>