<?xml version="1.0" encoding="UTF-8"?>
<svg width="438px" height="110px" viewBox="0 0 438 110" version="1.1" xmlns="http://www.w3.org/2000/svg" xmlns:xlink="http://www.w3.org/1999/xlink">
    <!-- Generator: Sketch 43.2 (39069) - http://www.bohemiancoding.com/sketch -->
    <title>NRRD-workmark</title>
    <desc>Created with Sketch.</desc>
    <defs></defs>
    <g id="Page-1" stroke="none" stroke-width="1" fill="none" fill-rule="evenodd">
        <g id="NRRD-workmark" fill="#000000">
            <path d="M6.0249,13.917 C6.6509,13.917 7.2099,13.812 7.7019,13.601 C8.1949,13.39 8.6109,13.094 8.9529,12.714 C9.2939,12.335 9.5539,11.881 9.7329,11.354 C9.9129,10.826 10.0029,10.245 10.0029,9.612 L10.0029,0.423 L12.0389,0.423 L12.0389,9.612 C12.0389,10.484 11.8999,11.294 11.6219,12.039 C11.3439,12.785 10.9469,13.43 10.4299,13.976 C9.9129,14.521 9.2809,14.947 8.5359,15.257 C7.7899,15.566 6.9529,15.722 6.0249,15.722 C5.0959,15.722 4.2589,15.566 3.5139,15.257 C2.7679,14.947 2.1349,14.521 1.6139,13.976 C1.0939,13.43 0.6949,12.785 0.4169,12.039 C0.1389,11.294 -0.0001,10.484 -0.0001,9.612 L-0.0001,0.423 L2.0369,0.423 L2.0369,9.602 C2.0369,10.234 2.1259,10.815 2.3059,11.343 C2.4849,11.87 2.7449,12.324 3.0869,12.704 C3.4269,13.084 3.8459,13.381 4.3419,13.596 C4.8379,13.81 5.3989,13.917 6.0249,13.917" id="Fill-1"></path>
            <path d="M14.1177,14.3818 C14.1177,14.1978 14.1507,14.0268 14.2177,13.8638 C14.2847,13.7028 14.3757,13.5628 14.4927,13.4428 C14.6077,13.3228 14.7467,13.2278 14.9087,13.1568 C15.0707,13.0868 15.2427,13.0518 15.4257,13.0518 C15.6087,13.0518 15.7807,13.0868 15.9427,13.1568 C16.1047,13.2278 16.2447,13.3228 16.3647,13.4428 C16.4847,13.5628 16.5777,13.7028 16.6447,13.8638 C16.7107,14.0268 16.7447,14.1978 16.7447,14.3818 C16.7447,14.5708 16.7107,14.7448 16.6447,14.9028 C16.5777,15.0618 16.4847,15.2008 16.3647,15.3198 C16.2447,15.4408 16.1047,15.5328 15.9427,15.5998 C15.7807,15.6668 15.6087,15.6998 15.4257,15.6998 C15.2427,15.6998 15.0707,15.6668 14.9087,15.5998 C14.7467,15.5328 14.6077,15.4408 14.4927,15.3198 C14.3757,15.2008 14.2847,15.0618 14.2177,14.9028 C14.1507,14.7448 14.1177,14.5708 14.1177,14.3818" id="Fill-4"></path>
            <path d="M27.2422,2.7861 C27.1792,2.8911 27.1122,2.9711 27.0422,3.0231 C26.9712,3.0761 26.8802,3.1021 26.7672,3.1021 C26.6482,3.1021 26.5092,3.0431 26.3512,2.9231 C26.1922,2.8041 25.9922,2.6721 25.7492,2.5271 C25.5072,2.3831 25.2152,2.2511 24.8732,2.1321 C24.5322,2.0121 24.1192,1.9521 23.6342,1.9521 C23.1772,1.9521 22.7722,2.0141 22.4202,2.1371 C22.0692,2.2601 21.7752,2.4271 21.5392,2.6381 C21.3042,2.8491 21.1262,3.0971 21.0072,3.3821 C20.8872,3.6671 20.8272,3.9741 20.8272,4.3061 C20.8272,4.7271 20.9312,5.0771 21.1382,5.3551 C21.3462,5.6331 21.6202,5.8701 21.9612,6.0671 C22.3032,6.2651 22.6892,6.4341 23.1222,6.5791 C23.5542,6.7241 23.9982,6.8731 24.4512,7.0271 C24.9052,7.1821 25.3482,7.3561 25.7812,7.5501 C26.2142,7.7431 26.6002,7.9871 26.9422,8.2831 C27.2832,8.5781 27.5572,8.9401 27.7642,9.3701 C27.9722,9.7991 28.0762,10.3261 28.0762,10.9521 C28.0762,11.6131 27.9632,12.2341 27.7382,12.8141 C27.5132,13.3941 27.1842,13.8991 26.7522,14.3291 C26.3192,14.7581 25.7882,15.0961 25.1592,15.3421 C24.5292,15.5881 23.8132,15.7111 23.0112,15.7111 C22.0342,15.7111 21.1422,15.5331 20.3372,15.1781 C19.5312,14.8231 18.8442,14.3431 18.2742,13.7371 L18.8652,12.7661 C18.9212,12.6891 18.9902,12.6251 19.0712,12.5721 C19.1512,12.5191 19.2412,12.4931 19.3402,12.4931 C19.4872,12.4931 19.6562,12.5721 19.8462,12.7301 C20.0362,12.8891 20.2732,13.0621 20.5582,13.2521 C20.8432,13.4421 21.1882,13.6161 21.5922,13.7741 C21.9962,13.9321 22.4912,14.0121 23.0752,14.0121 C23.5602,14.0121 23.9922,13.9451 24.3722,13.8111 C24.7522,13.6781 25.0742,13.4901 25.3382,13.2471 C25.6012,13.0051 25.8042,12.7141 25.9452,12.3771 C26.0852,12.0391 26.1562,11.6631 26.1562,11.2481 C26.1562,10.7911 26.0522,10.4161 25.8442,10.1241 C25.6372,9.8321 25.3642,9.5881 25.0272,9.3901 C24.6892,9.1941 24.3042,9.0261 23.8712,8.8901 C23.4392,8.7521 22.9952,8.6111 22.5422,8.4681 C22.0882,8.3231 21.6452,8.1561 21.2122,7.9671 C20.7802,7.7761 20.3952,7.5301 20.0572,7.2271 C19.7202,6.9261 19.4472,6.5471 19.2392,6.0941 C19.0322,5.6401 18.9282,5.0791 18.9282,4.4111 C18.9282,3.8761 19.0322,3.3591 19.2392,2.8591 C19.4472,2.3601 19.7472,1.9171 20.1412,1.5301 C20.5352,1.1431 21.0222,0.8341 21.6032,0.6011 C22.1832,0.3701 22.8492,0.2541 23.6022,0.2541 C24.4462,0.2541 25.2172,0.3881 25.9132,0.6541 C26.6092,0.9221 27.2182,1.3081 27.7382,1.8151 L27.2422,2.7861 Z" id="Fill-6"></path>
            <path d="M29.7749,14.3818 C29.7749,14.1978 29.8079,14.0268 29.8749,13.8638 C29.9419,13.7028 30.0329,13.5628 30.1499,13.4428 C30.2649,13.3228 30.4039,13.2278 30.5659,13.1568 C30.7279,13.0868 30.8999,13.0518 31.0829,13.0518 C31.2659,13.0518 31.4379,13.0868 31.5999,13.1568 C31.7619,13.2278 31.9019,13.3228 32.0219,13.4428 C32.1419,13.5628 32.2349,13.7028 32.3019,13.8638 C32.3679,14.0268 32.4019,14.1978 32.4019,14.3818 C32.4019,14.5708 32.3679,14.7448 32.3019,14.9028 C32.2349,15.0618 32.1419,15.2008 32.0219,15.3198 C31.9019,15.4408 31.7619,15.5328 31.5999,15.5998 C31.4379,15.6668 31.2659,15.6998 31.0829,15.6998 C30.8999,15.6998 30.7279,15.6668 30.5659,15.5998 C30.4039,15.5328 30.2649,15.4408 30.1499,15.3198 C30.0329,15.2008 29.9419,15.0618 29.8749,14.9028 C29.8079,14.7448 29.7749,14.5708 29.7749,14.3818" id="Fill-8"></path>
            <path d="M50.2324,7.9873 C50.2324,7.0583 50.1064,6.2293 49.8534,5.4973 C49.5994,4.7653 49.2404,4.1463 48.7764,3.6403 C48.3124,3.1333 47.7494,2.7473 47.0884,2.4793 C46.4274,2.2133 45.6914,2.0793 44.8834,2.0793 L41.2854,2.0793 L41.2854,13.8853 L44.8834,13.8853 C45.6914,13.8853 46.4274,13.7523 47.0884,13.4843 C47.7494,13.2173 48.3124,12.8323 48.7764,12.3293 C49.2404,11.8263 49.5994,11.2093 49.8534,10.4773 C50.1064,9.7463 50.2324,8.9163 50.2324,7.9873 M52.3324,7.9873 C52.3324,9.1203 52.1524,10.1503 51.7944,11.0793 C51.4354,12.0083 50.9294,12.8023 50.2744,13.4643 C49.6204,14.1253 48.8364,14.6363 47.9214,14.9993 C47.0074,15.3613 45.9944,15.5423 44.8834,15.5423 L39.2284,15.5423 L39.2284,0.4233 L44.8834,0.4233 C45.9944,0.4233 47.0074,0.6033 47.9214,0.9663 C48.8364,1.3283 49.6204,1.8413 50.2744,2.5063 C50.9294,3.1713 51.4354,3.9673 51.7944,4.8963 C52.1524,5.8243 52.3324,6.8553 52.3324,7.9873" id="Fill-10"></path>
            <path d="M59.0952,6.0674 C58.1882,6.0674 57.4742,6.3294 56.9532,6.8534 C56.4322,7.3774 56.1092,8.1034 55.9832,9.0324 L61.7962,9.0324 C61.7962,8.5954 61.7362,8.1974 61.6172,7.8354 C61.4972,7.4724 61.3222,7.1594 61.0892,6.8954 C60.8572,6.6314 60.5742,6.4274 60.2402,6.2834 C59.9062,6.1394 59.5242,6.0674 59.0952,6.0674 M59.0532,4.6844 C59.6932,4.6844 60.2842,4.7924 60.8252,5.0064 C61.3672,5.2214 61.8352,5.5314 62.2292,5.9354 C62.6232,6.3394 62.9302,6.8384 63.1522,7.4334 C63.3732,8.0284 63.4842,8.7054 63.4842,9.4644 C63.4842,9.7594 63.4532,9.9574 63.3892,10.0554 C63.3262,10.1544 63.2062,10.2034 63.0312,10.2034 L55.9192,10.2034 C55.9332,10.8794 56.0252,11.4654 56.1942,11.9644 C56.3632,12.4644 56.5952,12.8814 56.8902,13.2154 C57.1852,13.5494 57.5372,13.7994 57.9452,13.9644 C58.3532,14.1304 58.8102,14.2134 59.3172,14.2134 C59.7882,14.2134 60.1942,14.1584 60.5352,14.0484 C60.8762,13.9404 61.1702,13.8224 61.4162,13.6954 C61.6622,13.5694 61.8682,13.4514 62.0332,13.3414 C62.1992,13.2334 62.3412,13.1784 62.4612,13.1784 C62.6162,13.1784 62.7352,13.2384 62.8202,13.3584 L63.3472,14.0444 C63.1152,14.3254 62.8372,14.5694 62.5132,14.7774 C62.1902,14.9844 61.8442,15.1554 61.4742,15.2894 C61.1052,15.4224 60.7232,15.5224 60.3292,15.5894 C59.9352,15.6564 59.5452,15.6894 59.1582,15.6894 C58.4202,15.6894 57.7402,15.5644 57.1172,15.3154 C56.4942,15.0654 55.9562,14.7004 55.5032,14.2174 C55.0492,13.7364 54.6962,13.1394 54.4422,12.4294 C54.1892,11.7184 54.0622,10.9034 54.0622,9.9814 C54.0622,9.2364 54.1772,8.5404 54.4052,7.8924 C54.6342,7.2454 54.9632,6.6844 55.3922,6.2104 C55.8212,5.7344 56.3452,5.3624 56.9642,5.0904 C57.5832,4.8204 58.2792,4.6844 59.0532,4.6844" id="Fill-12"></path>
            <path d="M70.6377,6.1836 C70.0257,6.1836 69.4897,6.3246 69.0287,6.6056 C68.5677,6.8866 68.1437,7.2846 67.7577,7.7976 L67.7577,12.9676 C68.1017,13.4316 68.4797,13.7586 68.8917,13.9496 C69.3037,14.1386 69.7627,14.2336 70.2687,14.2336 C71.2607,14.2336 72.0237,13.8786 72.5577,13.1676 C73.0927,12.4576 73.3597,11.4446 73.3597,10.1286 C73.3597,9.4326 73.2987,8.8346 73.1757,8.3356 C73.0527,7.8356 72.8747,7.4266 72.6427,7.1066 C72.4097,6.7866 72.1257,6.5526 71.7877,6.4056 C71.4497,6.2566 71.0667,6.1836 70.6377,6.1836 L70.6377,6.1836 Z M65.8797,19.1616 L65.8797,4.8536 L66.9977,4.8536 C67.2647,4.8536 67.4337,4.9846 67.5047,5.2446 L67.6627,6.5106 C68.1197,5.9546 68.6417,5.5076 69.2297,5.1696 C69.8167,4.8326 70.4937,4.6636 71.2607,4.6636 C71.8717,4.6636 72.4277,4.7826 72.9277,5.0176 C73.4267,5.2526 73.8517,5.6016 74.2037,6.0616 C74.5557,6.5226 74.8267,7.0946 75.0167,7.7766 C75.2067,8.4586 75.3017,9.2436 75.3017,10.1286 C75.3017,10.9166 75.1957,11.6506 74.9847,12.3296 C74.7737,13.0076 74.4707,13.5956 74.0777,14.0906 C73.6837,14.5866 73.1997,14.9776 72.6267,15.2626 C72.0537,15.5466 71.4087,15.6896 70.6907,15.6896 C70.0297,15.6896 69.4647,15.5806 68.9967,15.3626 C68.5297,15.1446 68.1167,14.8346 67.7577,14.4346 L67.7577,19.1616 L65.8797,19.1616 Z" id="Fill-14"></path>
            <path d="M80.5024,14.3916 C80.8334,14.3916 81.1354,14.3586 81.4104,14.2916 C81.6844,14.2246 81.9424,14.1296 82.1854,14.0066 C82.4284,13.8836 82.6604,13.7346 82.8814,13.5586 C83.1034,13.3826 83.3194,13.1826 83.5304,12.9566 L83.5304,10.7516 C82.6654,10.7516 81.9304,10.8066 81.3254,10.9156 C80.7204,11.0266 80.2284,11.1686 79.8484,11.3456 C79.4684,11.5236 79.1924,11.7316 79.0204,11.9726 C78.8474,12.2126 78.7614,12.4816 78.7614,12.7786 C78.7614,13.0616 78.8074,13.3056 78.8984,13.5106 C78.9904,13.7166 79.1134,13.8846 79.2684,14.0156 C79.4224,14.1466 79.6064,14.2426 79.8164,14.3016 C80.0274,14.3626 80.2564,14.3916 80.5024,14.3916 L80.5024,14.3916 Z M85.3774,15.5416 L84.5434,15.5416 C84.3604,15.5416 84.2124,15.5136 84.1004,15.4576 C83.9874,15.4016 83.9144,15.2826 83.8784,15.0986 L83.6684,14.1076 C83.3864,14.3606 83.1124,14.5866 82.8444,14.7876 C82.5774,14.9886 82.2964,15.1576 82.0014,15.2936 C81.7054,15.4316 81.3904,15.5356 81.0564,15.6056 C80.7224,15.6756 80.3514,15.7106 79.9434,15.7106 C79.5284,15.7106 79.1394,15.6526 78.7774,15.5366 C78.4154,15.4196 78.1004,15.2456 77.8334,15.0116 C77.5654,14.7796 77.3534,14.4846 77.1944,14.1276 C77.0364,13.7716 76.9574,13.3496 76.9574,12.8636 C76.9574,12.4396 77.0734,12.0326 77.3054,11.6396 C77.5374,11.2476 77.9124,10.9006 78.4294,10.5976 C78.9464,10.2936 79.6234,10.0446 80.4604,9.8506 C81.2974,9.6566 82.3204,9.5596 83.5304,9.5596 L83.5304,8.7206 C83.5304,7.8856 83.3534,7.2536 82.9984,6.8266 C82.6424,6.3976 82.1164,6.1836 81.4204,6.1836 C80.9634,6.1836 80.5784,6.2416 80.2654,6.3576 C79.9524,6.4736 79.6814,6.6036 79.4524,6.7476 C79.2244,6.8916 79.0274,7.0226 78.8614,7.1376 C78.6964,7.2536 78.5334,7.3126 78.3714,7.3126 C78.2444,7.3126 78.1334,7.2796 78.0394,7.2116 C77.9434,7.1456 77.8684,7.0626 77.8124,6.9636 L77.4744,6.3626 C78.0654,5.7926 78.7014,5.3676 79.3844,5.0856 C80.0664,4.8046 80.8224,4.6636 81.6524,4.6636 C82.2504,4.6636 82.7814,4.7626 83.2464,4.9586 C83.7104,5.1566 84.1004,5.4306 84.4174,5.7826 C84.7334,6.1336 84.9724,6.5596 85.1344,7.0586 C85.2964,7.5586 85.3774,8.1076 85.3774,8.7046 L85.3774,15.5416 Z" id="Fill-16"></path>
            <path d="M88.2261,15.542 L88.2261,4.854 L89.3021,4.854 C89.5061,4.854 89.6471,4.893 89.7241,4.97 C89.8021,5.048 89.8541,5.181 89.8821,5.371 L90.0091,7.038 C90.3751,6.292 90.8271,5.71 91.3651,5.292 C91.9031,4.873 92.5341,4.664 93.2591,4.664 C93.5541,4.664 93.8211,4.697 94.0601,4.765 C94.3001,4.831 94.5211,4.924 94.7261,5.044 L94.4831,6.447 C94.4341,6.623 94.3241,6.711 94.1561,6.711 C94.0571,6.711 93.9061,6.678 93.7021,6.61 C93.4981,6.544 93.2131,6.511 92.8471,6.511 C92.1931,6.511 91.6461,6.7 91.2061,7.08 C90.7671,7.46 90.3991,8.013 90.1041,8.736 L90.1041,15.542 L88.2261,15.542 Z" id="Fill-18"></path>
            <path d="M99.9692,15.7109 C99.1252,15.7109 98.4762,15.4759 98.0222,15.0039 C97.5692,14.5329 97.3422,13.8539 97.3422,12.9679 L97.3422,6.4259 L96.0542,6.4259 C95.9422,6.4259 95.8472,6.3929 95.7692,6.3259 C95.6922,6.2589 95.6542,6.1549 95.6542,6.0149 L95.6542,5.2659 L97.4052,5.0439 L97.8382,1.7409 C97.8512,1.6359 97.8972,1.5499 97.9752,1.4819 C98.0522,1.4159 98.1512,1.3829 98.2702,1.3829 L99.2192,1.3829 L99.2192,5.0649 L102.2802,5.0649 L102.2802,6.4259 L99.2192,6.4259 L99.2192,12.8409 C99.2192,13.2909 99.3292,13.6249 99.5472,13.8439 C99.7652,14.0619 100.0462,14.1699 100.3912,14.1699 C100.5882,14.1699 100.7592,14.1439 100.9032,14.0909 C101.0472,14.0379 101.1722,13.9809 101.2772,13.9169 C101.3832,13.8539 101.4722,13.7959 101.5462,13.7429 C101.6202,13.6899 101.6852,13.6639 101.7412,13.6639 C101.8402,13.6639 101.9272,13.7239 102.0052,13.8439 L102.5542,14.7399 C102.2302,15.0429 101.8402,15.2799 101.3832,15.4519 C100.9262,15.6249 100.4542,15.7109 99.9692,15.7109" id="Fill-20"></path>
            <path d="M104.6006,15.542 L104.6006,4.854 L105.7186,4.854 C105.9866,4.854 106.1546,4.984 106.2256,5.244 L106.3626,6.342 C106.7566,5.856 107.1976,5.459 107.6866,5.149 C108.1756,4.84 108.7436,4.685 109.3906,4.685 C110.1156,4.685 110.7006,4.886 111.1476,5.286 C111.5936,5.688 111.9156,6.229 112.1126,6.911 C112.2606,6.524 112.4556,6.19 112.6986,5.909 C112.9406,5.628 113.2136,5.396 113.5166,5.213 C113.8186,5.029 114.1406,4.896 114.4816,4.812 C114.8226,4.728 115.1686,4.685 115.5206,4.685 C116.0836,4.685 116.5846,4.774 117.0246,4.954 C117.4636,5.134 117.8366,5.396 118.1426,5.74 C118.4486,6.085 118.6826,6.509 118.8446,7.012 C119.0056,7.515 119.0866,8.09 119.0866,8.736 L119.0866,15.542 L117.2086,15.542 L117.2086,8.736 C117.2086,7.899 117.0256,7.265 116.6606,6.832 C116.2946,6.399 115.7636,6.184 115.0666,6.184 C114.7576,6.184 114.4636,6.238 114.1856,6.347 C113.9086,6.456 113.6636,6.616 113.4526,6.827 C113.2416,7.038 113.0746,7.304 112.9516,7.623 C112.8286,7.943 112.7676,8.314 112.7676,8.736 L112.7676,15.542 L110.8886,15.542 L110.8886,8.736 C110.8886,7.879 110.7166,7.238 110.3716,6.816 C110.0276,6.395 109.5246,6.184 108.8636,6.184 C108.3986,6.184 107.9676,6.309 107.5706,6.558 C107.1736,6.808 106.8086,7.147 106.4786,7.576 L106.4786,15.542 L104.6006,15.542 Z" id="Fill-22"></path>
            <path d="M126.1982,6.0674 C125.2912,6.0674 124.5772,6.3294 124.0562,6.8534 C123.5352,7.3774 123.2122,8.1034 123.0862,9.0324 L128.8992,9.0324 C128.8992,8.5954 128.8392,8.1974 128.7202,7.8354 C128.6002,7.4724 128.4252,7.1594 128.1922,6.8954 C127.9602,6.6314 127.6772,6.4274 127.3432,6.2834 C127.0092,6.1394 126.6272,6.0674 126.1982,6.0674 M126.1562,4.6844 C126.7962,4.6844 127.3872,4.7924 127.9282,5.0064 C128.4702,5.2214 128.9382,5.5314 129.3322,5.9354 C129.7262,6.3394 130.0332,6.8384 130.2552,7.4334 C130.4762,8.0284 130.5872,8.7054 130.5872,9.4644 C130.5872,9.7594 130.5562,9.9574 130.4922,10.0554 C130.4292,10.1544 130.3092,10.2034 130.1342,10.2034 L123.0222,10.2034 C123.0362,10.8794 123.1282,11.4654 123.2972,11.9644 C123.4662,12.4644 123.6982,12.8814 123.9932,13.2154 C124.2882,13.5494 124.6402,13.7994 125.0482,13.9644 C125.4562,14.1304 125.9132,14.2134 126.4202,14.2134 C126.8912,14.2134 127.2972,14.1584 127.6382,14.0484 C127.9792,13.9404 128.2732,13.8224 128.5192,13.6954 C128.7652,13.5694 128.9712,13.4514 129.1362,13.3414 C129.3022,13.2334 129.4442,13.1784 129.5642,13.1784 C129.7192,13.1784 129.8382,13.2384 129.9232,13.3584 L130.4502,14.0444 C130.2182,14.3254 129.9402,14.5694 129.6162,14.7774 C129.2932,14.9844 128.9472,15.1554 128.5772,15.2894 C128.2082,15.4224 127.8262,15.5224 127.4322,15.5894 C127.0382,15.6564 126.6482,15.6894 126.2612,15.6894 C125.5232,15.6894 124.8432,15.5644 124.2202,15.3154 C123.5972,15.0654 123.0592,14.7004 122.6062,14.2174 C122.1522,13.7364 121.7992,13.1394 121.5452,12.4294 C121.2922,11.7184 121.1652,10.9034 121.1652,9.9814 C121.1652,9.2364 121.2802,8.5404 121.5082,7.8924 C121.7372,7.2454 122.0662,6.6844 122.4952,6.2104 C122.9242,5.7344 123.4482,5.3624 124.0672,5.0904 C124.6862,4.8204 125.3822,4.6844 126.1562,4.6844" id="Fill-24"></path>
            <path d="M132.9824,15.542 L132.9824,4.854 L134.1004,4.854 C134.3684,4.854 134.5364,4.984 134.6074,5.244 L134.7544,6.405 C135.2194,5.892 135.7374,5.477 136.3114,5.16 C136.8844,4.844 137.5474,4.685 138.2994,4.685 C138.8834,4.685 139.3994,4.782 139.8454,4.976 C140.2924,5.169 140.6654,5.443 140.9644,5.798 C141.2634,6.153 141.4894,6.581 141.6444,7.08 C141.7994,7.58 141.8774,8.132 141.8774,8.736 L141.8774,15.542 L139.9984,15.542 L139.9984,8.736 C139.9984,7.928 139.8144,7.3 139.4444,6.854 C139.0754,6.406 138.5114,6.184 137.7514,6.184 C137.1954,6.184 136.6764,6.317 136.1954,6.584 C135.7134,6.852 135.2684,7.214 134.8604,7.671 L134.8604,15.542 L132.9824,15.542 Z" id="Fill-26"></path>
            <path d="M147.9546,15.7109 C147.1106,15.7109 146.4616,15.4759 146.0076,15.0039 C145.5546,14.5329 145.3276,13.8539 145.3276,12.9679 L145.3276,6.4259 L144.0396,6.4259 C143.9276,6.4259 143.8326,6.3929 143.7546,6.3259 C143.6776,6.2589 143.6396,6.1549 143.6396,6.0149 L143.6396,5.2659 L145.3906,5.0439 L145.8236,1.7409 C145.8366,1.6359 145.8826,1.5499 145.9606,1.4819 C146.0376,1.4159 146.1366,1.3829 146.2556,1.3829 L147.2046,1.3829 L147.2046,5.0649 L150.2656,5.0649 L150.2656,6.4259 L147.2046,6.4259 L147.2046,12.8409 C147.2046,13.2909 147.3146,13.6249 147.5326,13.8439 C147.7506,14.0619 148.0316,14.1699 148.3766,14.1699 C148.5736,14.1699 148.7446,14.1439 148.8886,14.0909 C149.0326,14.0379 149.1576,13.9809 149.2626,13.9169 C149.3686,13.8539 149.4576,13.7959 149.5316,13.7429 C149.6056,13.6899 149.6706,13.6639 149.7266,13.6639 C149.8256,13.6639 149.9126,13.7239 149.9906,13.8439 L150.5396,14.7399 C150.2156,15.0429 149.8256,15.2799 149.3686,15.4519 C148.9116,15.6249 148.4396,15.7109 147.9546,15.7109" id="Fill-28"></path>
            <path d="M160.9844,14.2226 C162.0394,14.2226 162.8274,13.8696 163.3484,13.1626 C163.8684,12.4556 164.1294,11.4696 164.1294,10.2026 C164.1294,8.9296 163.8684,7.9386 163.3484,7.2276 C162.8274,6.5176 162.0394,6.1616 160.9844,6.1616 C160.4494,6.1616 159.9854,6.2536 159.5914,6.4366 C159.1974,6.6186 158.8694,6.8826 158.6054,7.2276 C158.3414,7.5726 158.1444,7.9956 158.0144,8.4986 C157.8844,9.0016 157.8194,9.5706 157.8194,10.2026 C157.8194,10.8356 157.8844,11.4026 158.0144,11.9026 C158.1444,12.4016 158.3414,12.8216 158.6054,13.1626 C158.8694,13.5036 159.1974,13.7656 159.5914,13.9496 C159.9854,14.1316 160.4494,14.2226 160.9844,14.2226 M160.9844,4.6846 C161.7654,4.6846 162.4704,4.8156 163.1004,5.0756 C163.7294,5.3356 164.2644,5.7046 164.7034,6.1836 C165.1434,6.6616 165.4814,7.2406 165.7164,7.9186 C165.9524,8.5976 166.0704,9.3556 166.0704,10.1926 C166.0704,11.0366 165.9524,11.7966 165.7164,12.4716 C165.4814,13.1466 165.1434,13.7236 164.7034,14.2016 C164.2644,14.6806 163.7294,15.0476 163.1004,15.3046 C162.4704,15.5616 161.7654,15.6896 160.9844,15.6896 C160.2034,15.6896 159.4984,15.5616 158.8694,15.3046 C158.2394,15.0476 157.7034,14.6806 157.2604,14.2016 C156.8174,13.7236 156.4754,13.1466 156.2364,12.4716 C155.9974,11.7966 155.8784,11.0366 155.8784,10.1926 C155.8784,9.3556 155.9974,8.5976 156.2364,7.9186 C156.4754,7.2406 156.8174,6.6616 157.2604,6.1836 C157.7034,5.7046 158.2394,5.3356 158.8694,5.0756 C159.4984,4.8156 160.2034,4.6846 160.9844,4.6846" id="Fill-30"></path>
            <path d="M168.813,15.542 L168.813,6.458 L167.631,6.32 C167.484,6.285 167.362,6.23 167.268,6.157 C167.172,6.083 167.125,5.976 167.125,5.835 L167.125,5.064 L168.813,5.064 L168.813,4.031 C168.813,3.419 168.899,2.876 169.072,2.4 C169.244,1.926 169.49,1.525 169.81,1.198 C170.13,0.871 170.515,0.623 170.965,0.454 C171.416,0.285 171.922,0.201 172.485,0.201 C172.963,0.201 173.406,0.271 173.814,0.412 L173.772,1.351 C173.765,1.492 173.705,1.576 173.593,1.604 C173.48,1.633 173.322,1.646 173.118,1.646 L172.791,1.646 C172.467,1.646 172.173,1.688 171.91,1.773 C171.646,1.857 171.419,1.994 171.229,2.185 C171.04,2.374 170.893,2.624 170.792,2.934 C170.689,3.243 170.638,3.627 170.638,4.084 L170.638,5.064 L173.73,5.064 L173.73,6.426 L170.702,6.426 L170.702,15.542 L168.813,15.542 Z" id="Fill-32"></path>
            <path d="M182.814,15.7109 C181.97,15.7109 181.321,15.4759 180.867,15.0039 C180.414,14.5329 180.187,13.8539 180.187,12.9679 L180.187,6.4259 L178.899,6.4259 C178.787,6.4259 178.692,6.3929 178.614,6.3259 C178.537,6.2589 178.499,6.1549 178.499,6.0149 L178.499,5.2659 L180.25,5.0439 L180.683,1.7409 C180.696,1.6359 180.742,1.5499 180.82,1.4819 C180.897,1.4159 180.996,1.3829 181.115,1.3829 L182.064,1.3829 L182.064,5.0649 L185.125,5.0649 L185.125,6.4259 L182.064,6.4259 L182.064,12.8409 C182.064,13.2909 182.174,13.6249 182.392,13.8439 C182.61,14.0619 182.891,14.1699 183.236,14.1699 C183.433,14.1699 183.604,14.1439 183.748,14.0909 C183.892,14.0379 184.017,13.9809 184.122,13.9169 C184.228,13.8539 184.317,13.7959 184.391,13.7429 C184.465,13.6899 184.53,13.6639 184.586,13.6639 C184.685,13.6639 184.772,13.7239 184.85,13.8439 L185.399,14.7399 C185.075,15.0429 184.685,15.2799 184.228,15.4519 C183.771,15.6249 183.299,15.7109 182.814,15.7109" id="Fill-34"></path>
            <path d="M187.4458,15.542 L187.4458,0 L189.3238,0 L189.3238,6.289 C189.7808,5.804 190.2878,5.415 190.8428,5.123 C191.3988,4.831 192.0388,4.685 192.7628,4.685 C193.3468,4.685 193.8628,4.782 194.3088,4.976 C194.7558,5.169 195.1288,5.443 195.4278,5.798 C195.7268,6.153 195.9528,6.581 196.1078,7.08 C196.2628,7.58 196.3408,8.132 196.3408,8.736 L196.3408,15.542 L194.4618,15.542 L194.4618,8.736 C194.4618,7.928 194.2778,7.3 193.9078,6.854 C193.5388,6.406 192.9748,6.184 192.2148,6.184 C191.6588,6.184 191.1398,6.317 190.6588,6.584 C190.1768,6.852 189.7318,7.214 189.3238,7.671 L189.3238,15.542 L187.4458,15.542 Z" id="Fill-36"></path>
            <path d="M203.4512,6.0674 C202.5442,6.0674 201.8302,6.3294 201.3092,6.8534 C200.7882,7.3774 200.4652,8.1034 200.3392,9.0324 L206.1522,9.0324 C206.1522,8.5954 206.0922,8.1974 205.9732,7.8354 C205.8532,7.4724 205.6782,7.1594 205.4452,6.8954 C205.2132,6.6314 204.9302,6.4274 204.5962,6.2834 C204.2622,6.1394 203.8802,6.0674 203.4512,6.0674 M203.4092,4.6844 C204.0492,4.6844 204.6402,4.7924 205.1812,5.0064 C205.7232,5.2214 206.1912,5.5314 206.5852,5.9354 C206.9792,6.3394 207.2862,6.8384 207.5082,7.4334 C207.7292,8.0284 207.8402,8.7054 207.8402,9.4644 C207.8402,9.7594 207.8092,9.9574 207.7452,10.0554 C207.6822,10.1544 207.5622,10.2034 207.3872,10.2034 L200.2752,10.2034 C200.2892,10.8794 200.3812,11.4654 200.5502,11.9644 C200.7192,12.4644 200.9512,12.8814 201.2462,13.2154 C201.5412,13.5494 201.8932,13.7994 202.3012,13.9644 C202.7092,14.1304 203.1662,14.2134 203.6732,14.2134 C204.1442,14.2134 204.5502,14.1584 204.8912,14.0484 C205.2322,13.9404 205.5262,13.8224 205.7722,13.6954 C206.0182,13.5694 206.2242,13.4514 206.3892,13.3414 C206.5552,13.2334 206.6972,13.1784 206.8172,13.1784 C206.9722,13.1784 207.0912,13.2384 207.1762,13.3584 L207.7032,14.0444 C207.4712,14.3254 207.1932,14.5694 206.8692,14.7774 C206.5462,14.9844 206.2002,15.1554 205.8302,15.2894 C205.4612,15.4224 205.0792,15.5224 204.6852,15.5894 C204.2912,15.6564 203.9012,15.6894 203.5142,15.6894 C202.7762,15.6894 202.0962,15.5644 201.4732,15.3154 C200.8502,15.0654 200.3122,14.7004 199.8592,14.2174 C199.4052,13.7364 199.0522,13.1394 198.7982,12.4294 C198.5452,11.7184 198.4182,10.9034 198.4182,9.9814 C198.4182,9.2364 198.5332,8.5404 198.7612,7.8924 C198.9902,7.2454 199.3192,6.6844 199.7482,6.2104 C200.1772,5.7344 200.7012,5.3624 201.3202,5.0904 C201.9392,4.8204 202.6352,4.6844 203.4092,4.6844" id="Fill-38"></path>
            <polygon id="Fill-40" points="214.983 15.542 217.03 15.542 217.03 0.423 214.983 0.423"></polygon>
            <path d="M220.7861,15.542 L220.7861,4.854 L221.9041,4.854 C222.1721,4.854 222.3401,4.984 222.4111,5.244 L222.5581,6.405 C223.0231,5.892 223.5411,5.477 224.1151,5.16 C224.6881,4.844 225.3511,4.685 226.1031,4.685 C226.6871,4.685 227.2031,4.782 227.6491,4.976 C228.0961,5.169 228.4691,5.443 228.7681,5.798 C229.0671,6.153 229.2931,6.581 229.4481,7.08 C229.6031,7.58 229.6811,8.132 229.6811,8.736 L229.6811,15.542 L227.8021,15.542 L227.8021,8.736 C227.8021,7.928 227.6181,7.3 227.2481,6.854 C226.8791,6.406 226.3151,6.184 225.5551,6.184 C224.9991,6.184 224.4801,6.317 223.9991,6.584 C223.5171,6.852 223.0721,7.214 222.6641,7.671 L222.6641,15.542 L220.7861,15.542 Z" id="Fill-42"></path>
            <path d="M235.7583,15.7109 C234.9143,15.7109 234.2653,15.4759 233.8113,15.0039 C233.3583,14.5329 233.1313,13.8539 233.1313,12.9679 L233.1313,6.4259 L231.8433,6.4259 C231.7313,6.4259 231.6363,6.3929 231.5583,6.3259 C231.4813,6.2589 231.4433,6.1549 231.4433,6.0149 L231.4433,5.2659 L233.1943,5.0439 L233.6273,1.7409 C233.6403,1.6359 233.6863,1.5499 233.7643,1.4819 C233.8413,1.4159 233.9403,1.3829 234.0593,1.3829 L235.0083,1.3829 L235.0083,5.0649 L238.0693,5.0649 L238.0693,6.4259 L235.0083,6.4259 L235.0083,12.8409 C235.0083,13.2909 235.1183,13.6249 235.3363,13.8439 C235.5543,14.0619 235.8353,14.1699 236.1803,14.1699 C236.3773,14.1699 236.5483,14.1439 236.6923,14.0909 C236.8363,14.0379 236.9613,13.9809 237.0663,13.9169 C237.1723,13.8539 237.2613,13.7959 237.3353,13.7429 C237.4093,13.6899 237.4743,13.6639 237.5303,13.6639 C237.6293,13.6639 237.7163,13.7239 237.7943,13.8439 L238.3433,14.7399 C238.0193,15.0429 237.6293,15.2799 237.1723,15.4519 C236.7153,15.6249 236.2433,15.7109 235.7583,15.7109" id="Fill-43"></path>
            <path d="M244.6626,6.0674 C243.7556,6.0674 243.0416,6.3294 242.5206,6.8534 C241.9996,7.3774 241.6766,8.1034 241.5506,9.0324 L247.3636,9.0324 C247.3636,8.5954 247.3036,8.1974 247.1846,7.8354 C247.0646,7.4724 246.8896,7.1594 246.6566,6.8954 C246.4246,6.6314 246.1416,6.4274 245.8076,6.2834 C245.4736,6.1394 245.0916,6.0674 244.6626,6.0674 M244.6206,4.6844 C245.2606,4.6844 245.8516,4.7924 246.3926,5.0064 C246.9346,5.2214 247.4026,5.5314 247.7966,5.9354 C248.1906,6.3394 248.4976,6.8384 248.7196,7.4334 C248.9406,8.0284 249.0516,8.7054 249.0516,9.4644 C249.0516,9.7594 249.0206,9.9574 248.9566,10.0554 C248.8936,10.1544 248.7736,10.2034 248.5986,10.2034 L241.4866,10.2034 C241.5006,10.8794 241.5926,11.4654 241.7616,11.9644 C241.9306,12.4644 242.1626,12.8814 242.4576,13.2154 C242.7526,13.5494 243.1046,13.7994 243.5126,13.9644 C243.9206,14.1304 244.3776,14.2134 244.8846,14.2134 C245.3556,14.2134 245.7616,14.1584 246.1026,14.0484 C246.4436,13.9404 246.7376,13.8224 246.9836,13.6954 C247.2296,13.5694 247.4356,13.4514 247.6006,13.3414 C247.7666,13.2334 247.9086,13.1784 248.0286,13.1784 C248.1836,13.1784 248.3026,13.2384 248.3876,13.3584 L248.9146,14.0444 C248.6826,14.3254 248.4046,14.5694 248.0806,14.7774 C247.7576,14.9844 247.4116,15.1554 247.0416,15.2894 C246.6726,15.4224 246.2906,15.5224 245.8966,15.5894 C245.5026,15.6564 245.1126,15.6894 244.7256,15.6894 C243.9876,15.6894 243.3076,15.5644 242.6846,15.3154 C242.0616,15.0654 241.5236,14.7004 241.0706,14.2174 C240.6166,13.7364 240.2636,13.1394 240.0096,12.4294 C239.7566,11.7184 239.6296,10.9034 239.6296,9.9814 C239.6296,9.2364 239.7446,8.5404 239.9726,7.8924 C240.2016,7.2454 240.5306,6.6844 240.9596,6.2104 C241.3886,5.7344 241.9126,5.3624 242.5316,5.0904 C243.1506,4.8204 243.8466,4.6844 244.6206,4.6844" id="Fill-44"></path>
            <path d="M251.4468,15.542 L251.4468,4.854 L252.5228,4.854 C252.7268,4.854 252.8678,4.893 252.9448,4.97 C253.0228,5.048 253.0748,5.181 253.1028,5.371 L253.2298,7.038 C253.5958,6.292 254.0478,5.71 254.5858,5.292 C255.1238,4.873 255.7548,4.664 256.4798,4.664 C256.7748,4.664 257.0418,4.697 257.2808,4.765 C257.5208,4.831 257.7418,4.924 257.9468,5.044 L257.7038,6.447 C257.6548,6.623 257.5448,6.711 257.3768,6.711 C257.2778,6.711 257.1268,6.678 256.9228,6.61 C256.7188,6.544 256.4338,6.511 256.0678,6.511 C255.4138,6.511 254.8668,6.7 254.4268,7.08 C253.9878,7.46 253.6198,8.013 253.3248,8.736 L253.3248,15.542 L251.4468,15.542 Z" id="Fill-45"></path>
            <path d="M260.162,15.542 L262.04,15.542 L262.04,4.854 L260.162,4.854 L260.162,15.542 Z M262.462,1.499 C262.462,1.682 262.425,1.853 262.351,2.011 C262.277,2.169 262.179,2.31 262.056,2.433 C261.932,2.556 261.79,2.652 261.628,2.723 C261.466,2.793 261.294,2.828 261.111,2.828 C260.928,2.828 260.758,2.793 260.6,2.723 C260.441,2.652 260.3,2.556 260.177,2.433 C260.054,2.31 259.958,2.169 259.887,2.011 C259.817,1.853 259.782,1.682 259.782,1.499 C259.782,1.315 259.817,1.142 259.887,0.977 C259.958,0.812 260.054,0.667 260.177,0.544 C260.3,0.421 260.441,0.324 260.6,0.254 C260.758,0.184 260.928,0.148 261.111,0.148 C261.294,0.148 261.466,0.184 261.628,0.254 C261.79,0.324 261.932,0.421 262.056,0.544 C262.179,0.667 262.277,0.812 262.351,0.977 C262.425,1.142 262.462,1.315 262.462,1.499 L262.462,1.499 Z" id="Fill-46"></path>
            <path d="M269.6787,14.2226 C270.7337,14.2226 271.5217,13.8696 272.0427,13.1626 C272.5627,12.4556 272.8237,11.4696 272.8237,10.2026 C272.8237,8.9296 272.5627,7.9386 272.0427,7.2276 C271.5217,6.5176 270.7337,6.1616 269.6787,6.1616 C269.1437,6.1616 268.6797,6.2536 268.2857,6.4366 C267.8917,6.6186 267.5637,6.8826 267.2997,7.2276 C267.0357,7.5726 266.8387,7.9956 266.7087,8.4986 C266.5787,9.0016 266.5137,9.5706 266.5137,10.2026 C266.5137,10.8356 266.5787,11.4026 266.7087,11.9026 C266.8387,12.4016 267.0357,12.8216 267.2997,13.1626 C267.5637,13.5036 267.8917,13.7656 268.2857,13.9496 C268.6797,14.1316 269.1437,14.2226 269.6787,14.2226 M269.6787,4.6846 C270.4597,4.6846 271.1647,4.8156 271.7947,5.0756 C272.4237,5.3356 272.9587,5.7046 273.3977,6.1836 C273.8377,6.6616 274.1757,7.2406 274.4107,7.9186 C274.6467,8.5976 274.7647,9.3556 274.7647,10.1926 C274.7647,11.0366 274.6467,11.7966 274.4107,12.4716 C274.1757,13.1466 273.8377,13.7236 273.3977,14.2016 C272.9587,14.6806 272.4237,15.0476 271.7947,15.3046 C271.1647,15.5616 270.4597,15.6896 269.6787,15.6896 C268.8977,15.6896 268.1927,15.5616 267.5637,15.3046 C266.9337,15.0476 266.3977,14.6806 265.9547,14.2016 C265.5117,13.7236 265.1697,13.1466 264.9307,12.4716 C264.6917,11.7966 264.5727,11.0366 264.5727,10.1926 C264.5727,9.3556 264.6917,8.5976 264.9307,7.9186 C265.1697,7.2406 265.5117,6.6616 265.9547,6.1836 C266.3977,5.7046 266.9337,5.3356 267.5637,5.0756 C268.1927,4.8156 268.8977,4.6846 269.6787,4.6846" id="Fill-47"></path>
            <path d="M277.0854,15.542 L277.0854,4.854 L278.1614,4.854 C278.3654,4.854 278.5064,4.893 278.5834,4.97 C278.6614,5.048 278.7134,5.181 278.7414,5.371 L278.8684,7.038 C279.2344,6.292 279.6864,5.71 280.2244,5.292 C280.7624,4.873 281.3934,4.664 282.1184,4.664 C282.4134,4.664 282.6804,4.697 282.9194,4.765 C283.1594,4.831 283.3804,4.924 283.5854,5.044 L283.3424,6.447 C283.2934,6.623 283.1834,6.711 283.0154,6.711 C282.9164,6.711 282.7654,6.678 282.5614,6.61 C282.3574,6.544 282.0724,6.511 281.7064,6.511 C281.0524,6.511 280.5054,6.7 280.0654,7.08 C279.6264,7.46 279.2584,8.013 278.9634,8.736 L278.9634,15.542 L277.0854,15.542 Z" id="Fill-48"></path>
            <polygon id="Fill-49" points="22.7197 62.876 9.7147 47.846 9.7147 62.876 0.5797 62.876 0.5797 31.916 9.2647 31.916 22.2697 47.171 22.2697 31.916 31.4057 31.916 31.4057 62.876"></polygon>
            <path d="M46.0791,53.3584 C44.8631,53.9144 44.2561,54.6564 44.2561,55.5864 C44.2561,57.0874 45.2751,57.8364 47.3161,57.8364 C48.4861,57.8364 49.5141,57.5204 50.3981,56.8904 C51.2831,56.2604 51.7261,55.4814 51.7261,54.5504 L51.7261,52.5264 C49.1761,52.5264 47.2941,52.8034 46.0791,53.3584 M57.2611,40.3984 C59.5411,41.6134 60.6821,43.5874 60.6821,46.3164 L60.6821,55.5864 C60.6821,56.0964 60.8011,56.5164 61.0411,56.8454 C61.2811,57.1764 61.6411,57.3404 62.1211,57.3404 L63.7411,57.3404 L63.7411,62.5154 C63.6511,62.5764 63.4181,62.6734 63.0441,62.8084 C62.6681,62.9434 62.1361,63.0784 61.4461,63.2134 C60.7561,63.3484 59.9611,63.4164 59.0611,63.4164 C57.3211,63.4164 55.8891,63.1534 54.7641,62.6294 C53.6391,62.1034 52.8661,61.3764 52.4461,60.4464 C51.3061,61.3454 50.0311,62.0664 48.6211,62.6064 C47.2111,63.1454 45.5611,63.4164 43.6711,63.4164 C38.0911,63.4164 35.3011,61.1964 35.3011,56.7554 C35.3011,54.4464 35.9241,52.6834 37.1691,51.4684 C38.4131,50.2544 40.2061,49.4204 42.5461,48.9704 C44.8861,48.5204 47.9461,48.2964 51.7261,48.2964 L51.7261,47.1264 C51.7261,46.1964 51.4031,45.4914 50.7591,45.0104 C50.1131,44.5314 49.2801,44.2914 48.2611,44.2914 C47.3311,44.2914 46.5281,44.4564 45.8531,44.7864 C45.1791,45.1164 44.8411,45.6404 44.8411,46.3614 L44.8411,46.5414 L36.0211,46.5414 C35.9911,46.3914 35.9761,46.1804 35.9761,45.9114 C35.9761,43.6614 37.0491,41.8764 39.1931,40.5554 C41.3381,39.2364 44.4061,38.5764 48.3961,38.5764 C52.0251,38.5764 54.9801,39.1834 57.2611,40.3984" id="Fill-50"></path>
            <path d="M81.165,39.1162 L81.165,45.1912 L76.125,45.1912 L76.125,54.2362 C76.125,55.3162 76.305,56.1032 76.665,56.5982 C77.025,57.0942 77.685,57.3412 78.644,57.3412 L81.165,57.3412 L81.165,62.6062 C80.445,62.8462 79.515,63.0402 78.375,63.1912 C77.234,63.3412 76.244,63.4162 75.405,63.4162 C72.765,63.4162 70.732,62.9352 69.308,61.9752 C67.882,61.0162 67.17,59.3822 67.17,57.0712 L67.17,45.1912 L63.84,45.1912 L63.84,39.1162 L67.53,39.1162 L69.465,31.9162 L76.125,31.9162 L76.125,39.1162 L81.165,39.1162 Z" id="Fill-51"></path>
            <path d="M101.7197,62.876 L101.1347,59.276 C100.2047,60.566 98.9827,61.579 97.4677,62.314 C95.9517,63.048 94.3547,63.416 92.6747,63.416 C89.9147,63.416 87.8447,62.651 86.4647,61.121 C85.0847,59.591 84.3957,57.386 84.3957,54.506 L84.3957,39.116 L93.3507,39.116 L93.3507,53.426 C93.3507,54.446 93.6127,55.264 94.1377,55.879 C94.6617,56.494 95.4047,56.801 96.3657,56.801 C97.4747,56.801 98.3747,56.441 99.0657,55.721 C99.7547,55.001 100.1007,54.116 100.1007,53.066 L100.1007,39.116 L109.0547,39.116 L109.0547,62.876 L101.7197,62.876 Z" id="Fill-52"></path>
            <path d="M129.751,38.7783 C130.291,38.9433 130.561,39.0413 130.561,39.0713 L130.561,46.5863 L127.681,46.5863 C125.82,46.5863 124.478,47.0663 123.653,48.0263 C122.828,48.9863 122.416,50.4113 122.416,52.3003 L122.416,62.8763 L113.461,62.8763 L113.461,39.1163 L120.796,39.1163 L121.381,42.7163 C121.921,41.3373 122.775,40.2943 123.945,39.5893 C125.116,38.8833 126.436,38.5313 127.905,38.5313 C128.596,38.5313 129.211,38.6143 129.751,38.7783" id="Fill-53"></path>
            <path d="M142.3057,53.3584 C141.0897,53.9144 140.4827,54.6564 140.4827,55.5864 C140.4827,57.0874 141.5017,57.8364 143.5427,57.8364 C144.7127,57.8364 145.7407,57.5204 146.6247,56.8904 C147.5097,56.2604 147.9527,55.4814 147.9527,54.5504 L147.9527,52.5264 C145.4027,52.5264 143.5207,52.8034 142.3057,53.3584 M153.4877,40.3984 C155.7677,41.6134 156.9087,43.5874 156.9087,46.3164 L156.9087,55.5864 C156.9087,56.0964 157.0277,56.5164 157.2677,56.8454 C157.5077,57.1764 157.8677,57.3404 158.3477,57.3404 L159.9677,57.3404 L159.9677,62.5154 C159.8777,62.5764 159.6447,62.6734 159.2707,62.8084 C158.8947,62.9434 158.3627,63.0784 157.6727,63.2134 C156.9827,63.3484 156.1877,63.4164 155.2877,63.4164 C153.5477,63.4164 152.1157,63.1534 150.9907,62.6294 C149.8657,62.1034 149.0927,61.3764 148.6727,60.4464 C147.5327,61.3454 146.2577,62.0664 144.8477,62.6064 C143.4377,63.1454 141.7877,63.4164 139.8977,63.4164 C134.3177,63.4164 131.5277,61.1964 131.5277,56.7554 C131.5277,54.4464 132.1507,52.6834 133.3957,51.4684 C134.6397,50.2544 136.4327,49.4204 138.7727,48.9704 C141.1127,48.5204 144.1727,48.2964 147.9527,48.2964 L147.9527,47.1264 C147.9527,46.1964 147.6297,45.4914 146.9857,45.0104 C146.3397,44.5314 145.5067,44.2914 144.4877,44.2914 C143.5577,44.2914 142.7547,44.4564 142.0797,44.7864 C141.4057,45.1164 141.0677,45.6404 141.0677,46.3614 L141.0677,46.5414 L132.2477,46.5414 C132.2177,46.3914 132.2027,46.1804 132.2027,45.9114 C132.2027,43.6614 133.2757,41.8764 135.4197,40.5554 C137.5647,39.2364 140.6327,38.5764 144.6227,38.5764 C148.2517,38.5764 151.2067,39.1834 153.4877,40.3984" id="Fill-54"></path>
            <polygon id="Fill-55" points="162.474 62.876 171.429 62.876 171.429 30.251 162.474 30.251"></polygon>
            <path d="M209.8574,39.791 C209.3174,39.251 208.6574,38.981 207.8774,38.981 L201.3524,38.981 L201.3524,44.696 L207.8774,44.696 C208.6574,44.696 209.3174,44.419 209.8574,43.863 C210.3974,43.309 210.6674,42.626 210.6674,41.816 C210.6674,41.006 210.3974,40.331 209.8574,39.791 M219.2614,46.541 C218.2424,48.071 216.7564,49.196 214.8074,49.916 L221.6924,62.876 L210.5324,62.876 L205.0424,51.581 L201.3524,51.581 L201.3524,62.876 L191.4074,62.876 L191.4074,31.916 L210.3524,31.916 C212.5724,31.916 214.4694,32.344 216.0444,33.198 C217.6204,34.054 218.8044,35.209 219.5994,36.663 C220.3944,38.119 220.7924,39.701 220.7924,41.411 C220.7924,43.301 220.2814,45.011 219.2614,46.541" id="Fill-56"></path>
            <path d="M232.0557,48.2959 L240.7847,48.2959 C240.7847,47.0669 240.4327,46.0909 239.7287,45.3709 C239.0227,44.6509 238.0407,44.2909 236.7807,44.2909 C233.9597,44.2909 232.3857,45.6259 232.0557,48.2959 M246.3877,41.6359 C248.6827,43.6769 249.8297,46.7959 249.8297,50.9959 L249.8297,52.5259 L232.0107,52.5259 C232.0107,54.2359 232.3927,55.5259 233.1587,56.3959 C233.9227,57.2669 235.1297,57.7009 236.7807,57.7009 C238.2807,57.7009 239.3827,57.3859 240.0877,56.7559 C240.7927,56.1259 241.1457,55.2859 241.1457,54.2359 L249.8297,54.2359 C249.8297,57.1159 248.7357,59.3659 246.5457,60.9859 C244.3557,62.6069 241.1597,63.4159 236.9607,63.4159 C232.5507,63.4159 229.1307,62.3889 226.7007,60.3329 C224.2707,58.2789 223.0557,55.1659 223.0557,50.9959 C223.0557,46.9159 224.2407,43.8259 226.6107,41.7259 C228.9807,39.6259 232.2497,38.5759 236.4207,38.5759 C240.7707,38.5759 244.0927,39.5969 246.3877,41.6359" id="Fill-57"></path>
            <path d="M272.5059,40.4433 C274.7109,41.6883 275.8139,43.6163 275.8139,46.2253 L267.4879,46.2253 C267.4879,45.3563 267.0989,44.7413 266.3189,44.3813 C265.7779,44.0813 265.1039,43.9303 264.2939,43.9303 C262.1339,43.9303 261.0539,44.4413 261.0539,45.4613 C261.0539,46.0313 261.4289,46.4363 262.1789,46.6753 C262.9279,46.9163 264.1579,47.1713 265.8679,47.4413 C267.9679,47.7413 269.7229,48.0933 271.1339,48.4983 C272.5429,48.9033 273.7739,49.6233 274.8229,50.6583 C275.8729,51.6933 276.3989,53.1413 276.3989,55.0013 C276.3989,58.0313 275.2659,60.1913 273.0009,61.4813 C270.7349,62.7713 267.7739,63.4163 264.1129,63.4163 C262.0139,63.4163 260.0329,63.1233 258.1739,62.5383 C256.3139,61.9533 254.7989,61.0473 253.6289,59.8163 C252.4589,58.5863 251.8739,57.0263 251.8739,55.1353 L260.1979,55.1353 L260.1979,55.3163 C260.2289,56.3363 260.6549,57.0483 261.4819,57.4533 C262.3059,57.8583 263.1839,58.0603 264.1129,58.0603 C266.6039,58.0603 267.8489,57.4753 267.8489,56.3053 C267.8489,55.7063 267.4579,55.2703 266.6789,55.0013 C265.8989,54.7313 264.6229,54.4463 262.8539,54.1453 C260.7229,53.7863 258.9759,53.3963 257.6109,52.9753 C256.2459,52.5563 255.0529,51.8433 254.0329,50.8393 C253.0139,49.8343 252.5039,48.4303 252.5039,46.6303 C252.5039,43.7213 253.6069,41.6513 255.8119,40.4213 C258.0159,39.1913 260.8889,38.5763 264.4289,38.5763 C267.6089,38.5763 270.3009,39.1993 272.5059,40.4433" id="Fill-58"></path>
            <path d="M287.3477,49.7363 L287.3477,52.3003 C287.3477,55.6613 288.8177,57.3403 291.7577,57.3403 C294.7277,57.3403 296.2127,55.6613 296.2127,52.3003 L296.2127,49.7363 C296.2127,46.3463 294.7277,44.6513 291.7577,44.6513 C288.8177,44.6513 287.3477,46.3463 287.3477,49.7363 M301.5897,41.7483 C303.9747,43.8633 305.1667,46.9463 305.1667,50.9963 C305.1667,55.0463 303.9747,58.1293 301.5897,60.2433 C299.2047,62.3583 295.9267,63.4163 291.7577,63.4163 C287.5867,63.4163 284.3177,62.3663 281.9477,60.2653 C279.5767,58.1663 278.3927,55.0763 278.3927,50.9963 C278.3927,46.9163 279.5767,43.8263 281.9477,41.7253 C284.3177,39.6263 287.5867,38.5763 291.7577,38.5763 C295.9267,38.5763 299.2047,39.6333 301.5897,41.7483" id="Fill-59"></path>
            <path d="M325.5742,62.876 L324.9892,59.276 C324.0592,60.566 322.8372,61.579 321.3222,62.314 C319.8062,63.048 318.2092,63.416 316.5292,63.416 C313.7692,63.416 311.6992,62.651 310.3192,61.121 C308.9392,59.591 308.2502,57.386 308.2502,54.506 L308.2502,39.116 L317.2052,39.116 L317.2052,53.426 C317.2052,54.446 317.4672,55.264 317.9922,55.879 C318.5162,56.494 319.2592,56.801 320.2202,56.801 C321.3292,56.801 322.2292,56.441 322.9202,55.721 C323.6092,55.001 323.9552,54.116 323.9552,53.066 L323.9552,39.116 L332.9092,39.116 L332.9092,62.876 L325.5742,62.876 Z" id="Fill-60"></path>
            <path d="M353.6045,38.7783 C354.1445,38.9433 354.4145,39.0413 354.4145,39.0713 L354.4145,46.5863 L351.5345,46.5863 C349.6735,46.5863 348.3315,47.0663 347.5065,48.0263 C346.6815,48.9863 346.2695,50.4113 346.2695,52.3003 L346.2695,62.8763 L337.3145,62.8763 L337.3145,39.1163 L344.6495,39.1163 L345.2345,42.7163 C345.7745,41.3373 346.6285,40.2943 347.7985,39.5893 C348.9695,38.8833 350.2895,38.5313 351.7585,38.5313 C352.4495,38.5313 353.0645,38.6143 353.6045,38.7783" id="Fill-61"></path>
            <path d="M378.4883,41.0732 C380.9033,42.7382 382.1113,45.2812 382.1113,48.7012 L373.4263,48.7012 C373.4263,46.0012 371.9563,44.6512 369.0163,44.6512 C366.0763,44.6512 364.6063,46.3462 364.6063,49.7362 L364.6063,52.3012 C364.6063,55.6612 366.1363,57.3412 369.1963,57.3412 C372.2563,57.3412 373.7863,55.9622 373.7863,53.2012 L382.1113,53.2012 C382.1113,56.6512 380.9033,59.2162 378.4883,60.8952 C376.0733,62.5762 372.9163,63.4162 369.0163,63.4162 C364.8453,63.4162 361.5763,62.3662 359.2063,60.2652 C356.8363,58.1662 355.6513,55.0762 355.6513,50.9962 C355.6513,46.9162 356.8363,43.8262 359.2063,41.7252 C361.5763,39.6262 364.8453,38.5762 369.0163,38.5762 C372.9163,38.5762 376.0733,39.4082 378.4883,41.0732" id="Fill-62"></path>
            <path d="M393.3652,48.2959 L402.0942,48.2959 C402.0942,47.0669 401.7422,46.0909 401.0382,45.3709 C400.3322,44.6509 399.3502,44.2909 398.0902,44.2909 C395.2692,44.2909 393.6952,45.6259 393.3652,48.2959 M407.6972,41.6359 C409.9922,43.6769 411.1392,46.7959 411.1392,50.9959 L411.1392,52.5259 L393.3202,52.5259 C393.3202,54.2359 393.7022,55.5259 394.4682,56.3959 C395.2322,57.2669 396.4392,57.7009 398.0902,57.7009 C399.5902,57.7009 400.6922,57.3859 401.3972,56.7559 C402.1022,56.1259 402.4552,55.2859 402.4552,54.2359 L411.1392,54.2359 C411.1392,57.1159 410.0452,59.3659 407.8552,60.9859 C405.6652,62.6069 402.4692,63.4159 398.2702,63.4159 C393.8602,63.4159 390.4402,62.3889 388.0102,60.3329 C385.5802,58.2789 384.3652,55.1659 384.3652,50.9959 C384.3652,46.9159 385.5502,43.8259 387.9202,41.7259 C390.2902,39.6259 393.5592,38.5759 397.7302,38.5759 C402.0802,38.5759 405.4022,39.5969 407.6972,41.6359" id="Fill-63"></path>
            <path d="M433.8154,40.4433 C436.0204,41.6883 437.1234,43.6163 437.1234,46.2253 L428.7974,46.2253 C428.7974,45.3563 428.4084,44.7413 427.6284,44.3813 C427.0874,44.0813 426.4134,43.9303 425.6034,43.9303 C423.4434,43.9303 422.3634,44.4413 422.3634,45.4613 C422.3634,46.0313 422.7384,46.4363 423.4884,46.6753 C424.2374,46.9163 425.4674,47.1713 427.1774,47.4413 C429.2774,47.7413 431.0324,48.0933 432.4434,48.4983 C433.8524,48.9033 435.0834,49.6233 436.1324,50.6583 C437.1824,51.6933 437.7084,53.1413 437.7084,55.0013 C437.7084,58.0313 436.5754,60.1913 434.3104,61.4813 C432.0444,62.7713 429.0834,63.4163 425.4224,63.4163 C423.3234,63.4163 421.3424,63.1233 419.4834,62.5383 C417.6234,61.9533 416.1084,61.0473 414.9384,59.8163 C413.7684,58.5863 413.1834,57.0263 413.1834,55.1353 L421.5074,55.1353 L421.5074,55.3163 C421.5384,56.3363 421.9644,57.0483 422.7914,57.4533 C423.6154,57.8583 424.4934,58.0603 425.4224,58.0603 C427.9134,58.0603 429.1584,57.4753 429.1584,56.3053 C429.1584,55.7063 428.7674,55.2703 427.9884,55.0013 C427.2084,54.7313 425.9324,54.4463 424.1634,54.1453 C422.0324,53.7863 420.2854,53.3963 418.9204,52.9753 C417.5554,52.5563 416.3624,51.8433 415.3424,50.8393 C414.3234,49.8343 413.8134,48.4303 413.8134,46.6303 C413.8134,43.7213 414.9164,41.6513 417.1214,40.4213 C419.3254,39.1913 422.1984,38.5763 425.7384,38.5763 C428.9184,38.5763 431.6104,39.1993 433.8154,40.4433" id="Fill-64"></path>
            <path d="M19.0303,86.791 C18.4903,86.251 17.8303,85.981 17.0503,85.981 L10.5253,85.981 L10.5253,91.696 L17.0503,91.696 C17.8303,91.696 18.4903,91.419 19.0303,90.863 C19.5703,90.309 19.8403,89.626 19.8403,88.816 C19.8403,88.006 19.5703,87.331 19.0303,86.791 M28.4343,93.541 C27.4153,95.071 25.9293,96.196 23.9803,96.916 L30.8653,109.876 L19.7053,109.876 L14.2153,98.581 L10.5253,98.581 L10.5253,109.876 L0.5803,109.876 L0.5803,78.916 L19.5253,78.916 C21.7453,78.916 23.6423,79.344 25.2173,80.198 C26.7933,81.054 27.9773,82.209 28.7723,83.663 C29.5673,85.119 29.9653,86.701 29.9653,88.411 C29.9653,90.301 29.4543,92.011 28.4343,93.541" id="Fill-65"></path>
            <path d="M41.2285,95.2959 L49.9575,95.2959 C49.9575,94.0669 49.6055,93.0909 48.9015,92.3709 C48.1955,91.6509 47.2135,91.2909 45.9535,91.2909 C43.1325,91.2909 41.5585,92.6259 41.2285,95.2959 M55.5605,88.6359 C57.8555,90.6769 59.0025,93.7959 59.0025,97.9959 L59.0025,99.5259 L41.1835,99.5259 C41.1835,101.2359 41.5655,102.5259 42.3315,103.3959 C43.0955,104.2669 44.3025,104.7009 45.9535,104.7009 C47.4535,104.7009 48.5555,104.3859 49.2605,103.7559 C49.9655,103.1259 50.3185,102.2859 50.3185,101.2359 L59.0025,101.2359 C59.0025,104.1159 57.9085,106.3659 55.7185,107.9859 C53.5285,109.6069 50.3325,110.4159 46.1335,110.4159 C41.7235,110.4159 38.3035,109.3889 35.8735,107.3329 C33.4435,105.2789 32.2285,102.1659 32.2285,97.9959 C32.2285,93.9159 33.4135,90.8259 35.7835,88.7259 C38.1535,86.6259 41.4225,85.5759 45.5935,85.5759 C49.9435,85.5759 53.2655,86.5969 55.5605,88.6359" id="Fill-66"></path>
            <polygon id="Fill-67" points="67.5977 109.876 58.5977 86.116 68.2277 86.116 72.5927 100.921 72.9077 100.921 77.2727 86.116 86.0927 86.116 77.0027 109.876"></polygon>
            <path d="M94.8682,95.2959 L103.5972,95.2959 C103.5972,94.0669 103.2452,93.0909 102.5412,92.3709 C101.8352,91.6509 100.8532,91.2909 99.5932,91.2909 C96.7722,91.2909 95.1982,92.6259 94.8682,95.2959 M109.2002,88.6359 C111.4952,90.6769 112.6422,93.7959 112.6422,97.9959 L112.6422,99.5259 L94.8232,99.5259 C94.8232,101.2359 95.2052,102.5259 95.9712,103.3959 C96.7352,104.2669 97.9422,104.7009 99.5932,104.7009 C101.0932,104.7009 102.1952,104.3859 102.9002,103.7559 C103.6052,103.1259 103.9582,102.2859 103.9582,101.2359 L112.6422,101.2359 C112.6422,104.1159 111.5482,106.3659 109.3582,107.9859 C107.1682,109.6069 103.9722,110.4159 99.7732,110.4159 C95.3632,110.4159 91.9432,109.3889 89.5132,107.3329 C87.0832,105.2789 85.8682,102.1659 85.8682,97.9959 C85.8682,93.9159 87.0532,90.8259 89.4232,88.7259 C91.7932,86.6259 95.0622,85.5759 99.2332,85.5759 C103.5832,85.5759 106.9052,86.5969 109.2002,88.6359" id="Fill-68"></path>
            <path d="M138.666,87.8711 C140.046,89.4011 140.736,91.6061 140.736,94.4861 L140.736,109.8761 L131.781,109.8761 L131.781,95.5661 C131.781,94.5471 131.518,93.7281 130.993,93.1131 C130.468,92.4991 129.726,92.1911 128.766,92.1911 C127.655,92.1911 126.756,92.5511 126.066,93.2701 C125.376,93.9911 125.031,94.8761 125.031,95.9261 L125.031,109.8761 L116.076,109.8761 L116.076,86.1161 L123.411,86.1161 L123.996,89.7161 C124.926,88.4561 126.148,87.4511 127.663,86.7011 C129.178,85.9511 130.775,85.5761 132.456,85.5761 C135.216,85.5761 137.286,86.3411 138.666,87.8711" id="Fill-69"></path>
            <path d="M162.25,109.876 L161.665,106.276 C160.735,107.566 159.513,108.579 157.998,109.314 C156.482,110.048 154.885,110.416 153.205,110.416 C150.445,110.416 148.375,109.651 146.995,108.121 C145.615,106.591 144.926,104.386 144.926,101.506 L144.926,86.116 L153.881,86.116 L153.881,100.426 C153.881,101.446 154.143,102.264 154.668,102.879 C155.192,103.494 155.935,103.801 156.896,103.801 C158.005,103.801 158.905,103.441 159.596,102.721 C160.285,102.001 160.631,101.116 160.631,100.066 L160.631,86.116 L169.585,86.116 L169.585,109.876 L162.25,109.876 Z" id="Fill-70"></path>
            <path d="M181.875,95.2959 L190.604,95.2959 C190.604,94.0669 190.252,93.0909 189.548,92.3709 C188.842,91.6509 187.86,91.2909 186.6,91.2909 C183.779,91.2909 182.205,92.6259 181.875,95.2959 M196.207,88.6359 C198.502,90.6769 199.649,93.7959 199.649,97.9959 L199.649,99.5259 L181.83,99.5259 C181.83,101.2359 182.212,102.5259 182.978,103.3959 C183.742,104.2669 184.949,104.7009 186.6,104.7009 C188.1,104.7009 189.202,104.3859 189.907,103.7559 C190.612,103.1259 190.965,102.2859 190.965,101.2359 L199.649,101.2359 C199.649,104.1159 198.555,106.3659 196.365,107.9859 C194.175,109.6069 190.979,110.4159 186.78,110.4159 C182.37,110.4159 178.95,109.3889 176.52,107.3329 C174.09,105.2789 172.875,102.1659 172.875,97.9959 C172.875,93.9159 174.06,90.8259 176.43,88.7259 C178.8,86.6259 182.069,85.5759 186.24,85.5759 C190.59,85.5759 193.912,86.5969 196.207,88.6359" id="Fill-71"></path>
            <path d="M228.1787,102.4512 L231.4627,102.4512 C235.6327,102.4512 237.7187,100.2172 237.7187,95.7462 L237.7187,93.0462 C237.7187,88.5762 235.6327,86.3412 231.4627,86.3412 L228.1787,86.3412 L228.1787,102.4512 Z M247.8887,94.3952 C247.8887,104.7172 242.4727,109.8762 231.6437,109.8762 L218.2337,109.8762 L218.2337,78.9162 L231.6437,78.9162 C242.4727,78.9162 247.8887,84.0762 247.8887,94.3952 L247.8887,94.3952 Z" id="Fill-72"></path>
            <path d="M261.1143,100.3584 C259.8983,100.9144 259.2913,101.6564 259.2913,102.5864 C259.2913,104.0874 260.3103,104.8364 262.3513,104.8364 C263.5213,104.8364 264.5493,104.5204 265.4333,103.8904 C266.3183,103.2604 266.7613,102.4814 266.7613,101.5504 L266.7613,99.5264 C264.2113,99.5264 262.3293,99.8034 261.1143,100.3584 M272.2963,87.3984 C274.5763,88.6134 275.7173,90.5874 275.7173,93.3164 L275.7173,102.5864 C275.7173,103.0964 275.8363,103.5164 276.0763,103.8454 C276.3163,104.1764 276.6763,104.3404 277.1563,104.3404 L278.7763,104.3404 L278.7763,109.5154 C278.6863,109.5764 278.4533,109.6734 278.0793,109.8084 C277.7033,109.9434 277.1713,110.0784 276.4813,110.2134 C275.7913,110.3484 274.9963,110.4164 274.0963,110.4164 C272.3563,110.4164 270.9243,110.1534 269.7993,109.6294 C268.6743,109.1034 267.9013,108.3764 267.4813,107.4464 C266.3413,108.3454 265.0663,109.0664 263.6563,109.6064 C262.2463,110.1454 260.5963,110.4164 258.7063,110.4164 C253.1263,110.4164 250.3363,108.1964 250.3363,103.7554 C250.3363,101.4464 250.9593,99.6834 252.2043,98.4684 C253.4483,97.2544 255.2413,96.4204 257.5813,95.9704 C259.9213,95.5204 262.9813,95.2964 266.7613,95.2964 L266.7613,94.1264 C266.7613,93.1964 266.4383,92.4914 265.7943,92.0104 C265.1483,91.5314 264.3153,91.2914 263.2963,91.2914 C262.3663,91.2914 261.5633,91.4564 260.8883,91.7864 C260.2143,92.1164 259.8763,92.6404 259.8763,93.3614 L259.8763,93.5414 L251.0563,93.5414 C251.0263,93.3914 251.0113,93.1804 251.0113,92.9114 C251.0113,90.6614 252.0843,88.8764 254.2283,87.5554 C256.3733,86.2364 259.4413,85.5764 263.4313,85.5764 C267.0603,85.5764 270.0153,86.1834 272.2963,87.3984" id="Fill-73"></path>
            <path d="M296.2002,86.1162 L296.2002,92.1912 L291.1602,92.1912 L291.1602,101.2362 C291.1602,102.3162 291.3402,103.1032 291.7002,103.5982 C292.0602,104.0942 292.7202,104.3412 293.6792,104.3412 L296.2002,104.3412 L296.2002,109.6062 C295.4802,109.8462 294.5502,110.0402 293.4102,110.1912 C292.2692,110.3412 291.2792,110.4162 290.4402,110.4162 C287.8002,110.4162 285.7672,109.9352 284.3432,108.9752 C282.9172,108.0162 282.2052,106.3822 282.2052,104.0712 L282.2052,92.1912 L278.8752,92.1912 L278.8752,86.1162 L282.5652,86.1162 L284.5002,78.9162 L291.1602,78.9162 L291.1602,86.1162 L296.2002,86.1162 Z" id="Fill-74"></path>
            <path d="M309.002,100.3584 C307.786,100.9144 307.179,101.6564 307.179,102.5864 C307.179,104.0874 308.198,104.8364 310.239,104.8364 C311.409,104.8364 312.437,104.5204 313.321,103.8904 C314.206,103.2604 314.649,102.4814 314.649,101.5504 L314.649,99.5264 C312.099,99.5264 310.217,99.8034 309.002,100.3584 M320.184,87.3984 C322.464,88.6134 323.605,90.5874 323.605,93.3164 L323.605,102.5864 C323.605,103.0964 323.724,103.5164 323.964,103.8454 C324.204,104.1764 324.564,104.3404 325.044,104.3404 L326.664,104.3404 L326.664,109.5154 C326.574,109.5764 326.341,109.6734 325.967,109.8084 C325.591,109.9434 325.059,110.0784 324.369,110.2134 C323.679,110.3484 322.884,110.4164 321.984,110.4164 C320.244,110.4164 318.812,110.1534 317.687,109.6294 C316.562,109.1034 315.789,108.3764 315.369,107.4464 C314.229,108.3454 312.954,109.0664 311.544,109.6064 C310.134,110.1454 308.484,110.4164 306.594,110.4164 C301.014,110.4164 298.224,108.1964 298.224,103.7554 C298.224,101.4464 298.847,99.6834 300.092,98.4684 C301.336,97.2544 303.129,96.4204 305.469,95.9704 C307.809,95.5204 310.869,95.2964 314.649,95.2964 L314.649,94.1264 C314.649,93.1964 314.326,92.4914 313.682,92.0104 C313.036,91.5314 312.203,91.2914 311.184,91.2914 C310.254,91.2914 309.451,91.4564 308.776,91.7864 C308.102,92.1164 307.764,92.6404 307.764,93.3614 L307.764,93.5414 L298.944,93.5414 C298.914,93.3914 298.899,93.1804 298.899,92.9114 C298.899,90.6614 299.972,88.8764 302.116,87.5554 C304.261,86.2364 307.329,85.5764 311.319,85.5764 C314.948,85.5764 317.903,86.1834 320.184,87.3984" id="Fill-75"></path>
        </g>
    </g>
</svg>
