<?xml version="1.0" encoding="UTF-8" standalone="no"?>
<svg width="731px" height="274px" viewBox="0 0 731 274" version="1.1" xmlns="http://www.w3.org/2000/svg" xmlns:xlink="http://www.w3.org/1999/xlink" xmlns:sketch="http://www.bohemiancoding.com/sketch/ns">
    <!-- Generator: Sketch 3.3 (11970) - http://www.bohemiancoding.com/sketch -->
    <title>USEITI identity</title>
    <desc>Created with Sketch.</desc>
    <defs></defs>
    <g id="Page-1" stroke="none" stroke-width="1" fill="none" fill-rule="evenodd" sketch:type="MSPage">
        <g id="USEITI-identity" sketch:type="MSLayerGroup" transform="translate(0.000000, -1.000000)">
            <path d="M490.477538,43.2721983 L558.581692,43.2721983 L561.160115,43.2461207 L561.160115,152.195905 L606.616846,152.195905 L606.616846,43.3053879 L644.253846,43.3053879 L644.249154,43.2603448 L657.551846,43.2603448 L679.898962,3.79073276 L512.822308,3.66034483 L490.477538,43.2721983" id="Fill-1" fill="#0089BD" sketch:type="MSShapeGroup"></path>
            <path d="M409.711192,43.0967672 L432.055962,3.66034483 L265.066115,3.66034483 L265.021538,7.15711207 L265.021538,116.071336 L265.028577,115.784483 L265.115385,151.956466 L396.4085,152.067888 L396.401462,152.020474 L409.711192,152.020474 L432.055962,112.584052 L310.755115,112.584052 L310.755115,98.3741379 L310.933423,98.2674569 L402.102615,98.2674569 L423.142923,57.5627155 L397.827923,57.5627155 L397.842,57.6693966 L311.095308,57.6693966 L311.095308,43.1015086 L409.711192,43.0967672" id="Fill-2" fill="#1A1918" sketch:type="MSShapeGroup"></path>
            <path d="M265.115385,91.0154243 L265.113038,91.0154243 L265.115385,90.956157 L265.115385,91.0154243" id="Fill-3" fill="#1A1918" sketch:type="MSShapeGroup"></path>
            <path d="M439.361885,3.66034483 L484.818615,3.66034483 L484.818615,152.24569 L439.361885,152.24569 L439.361885,3.66034483 Z" id="Fill-4" fill="#1A1918" sketch:type="MSShapeGroup"></path>
            <path d="M685.480462,3.66034483 L730.937192,3.66034483 L730.937192,152.24569 L685.480462,152.24569 L685.480462,3.66034483 Z" id="Fill-5" fill="#1A1918" sketch:type="MSShapeGroup"></path>
            <path d="M0.558384615,181.713362 L0.558384615,179.916379 L26.1783846,179.916379 L26.1783846,181.713362 L14.3748846,181.713362 L14.3748846,213.70819 L12.3149615,213.70819 L12.3149615,181.713362 L0.558384615,181.713362" id="Fill-6" fill="#1A1918" sketch:type="MSShapeGroup"></path>
            <path d="M29.9251923,179.916379 L29.9251923,194.586207 L30.0190385,194.586207 C30.3310769,193.671121 30.7745,192.857974 31.354,192.151509 C31.9311538,191.440302 32.6021538,190.833405 33.367,190.328448 C34.1318462,189.823491 34.9670769,189.444181 35.8726923,189.192888 C36.7783077,188.939224 37.7003462,188.813578 38.6364615,188.813578 C40.0418077,188.813578 41.236,188.986638 42.2190385,189.332759 C43.2044231,189.68125 44.0068077,190.138793 44.6308846,190.705388 C45.2573077,191.274353 45.7476538,191.912069 46.1066154,192.623276 C46.4655769,193.334483 46.7236538,194.050431 46.8785,194.775862 C47.0356923,195.503664 47.1295385,196.205388 47.1623846,196.883405 C47.1905385,197.561422 47.2069615,198.154095 47.2069615,198.656681 L47.2069615,213.70819 L45.4285769,213.70819 L45.4285769,198.324784 C45.4285769,197.727371 45.3816538,196.96875 45.2878077,196.053664 C45.1939615,195.140948 44.9194615,194.263793 44.469,193.42931 C44.0138462,192.592457 43.3264231,191.871767 42.4067308,191.274353 C41.4870385,190.67694 40.2130769,190.375862 38.5895385,190.375862 C37.2146923,190.375862 35.9970385,190.627155 34.9365769,191.132112 C33.8737692,191.637069 32.9705,192.338793 32.2197308,193.239655 C31.4713077,194.138147 30.9011923,195.212069 30.5093846,196.456681 C30.1199231,197.703664 29.9251923,199.069181 29.9251923,200.550862 L29.9251923,213.70819 L28.1468077,213.70819 L28.1468077,179.916379 L29.9251923,179.916379" id="Fill-7" fill="#1A1918" sketch:type="MSShapeGroup"></path>
            <path d="M52.1714231,201.78125 L52.1714231,202.063362 C52.1714231,203.483405 52.3591154,204.84181 52.7345,206.133836 C53.1122308,207.428233 53.6659231,208.566164 54.4026154,209.542888 C55.1369615,210.521983 56.0613462,211.292457 57.1734231,211.861422 C58.2831538,212.428017 59.5758846,212.714871 61.0469231,212.714871 C63.4587692,212.714871 65.3685385,212.074784 66.7762308,210.796983 C68.1862692,209.519181 69.1575769,207.743534 69.6901538,205.472414 L71.4685385,205.472414 C70.9383077,208.3125 69.7910385,210.488793 68.0267308,212.003664 C66.2624231,213.516164 63.928,214.274784 61.0234615,214.274784 C59.2427308,214.274784 57.6895769,213.95 56.364,213.305172 C55.0360769,212.657974 53.9286923,211.773707 53.0371538,210.652371 C52.1479615,209.535776 51.484,208.21056 51.0476154,206.679095 C50.6112308,205.147629 50.3906923,203.502371 50.3906923,201.733836 C50.3906923,200.02931 50.6182692,198.398276 51.0710769,196.833621 C51.5238846,195.273707 52.2019231,193.901078 53.1098846,192.718103 C54.0131538,191.535129 55.1463462,190.586853 56.5047692,189.878017 C57.8631923,189.169181 59.4632692,188.813578 61.305,188.813578 C62.9918846,188.813578 64.4816923,189.128879 65.7791154,189.759483 C67.0741923,190.390086 68.1581154,191.250647 69.0332308,192.338793 C69.906,193.42931 70.5699615,194.690517 71.0227692,196.124784 C71.4755769,197.561422 71.7031538,199.097629 71.7031538,200.740517 C71.7031538,200.896983 71.6961154,201.077155 71.6796923,201.283405 C71.6632692,201.489655 71.6562308,201.655603 71.6562308,201.78125 L52.1714231,201.78125 L52.1714231,201.78125 Z M69.8755,200.218966 C69.8121538,198.89375 69.5939615,197.639655 69.2185769,196.456681 C68.8431923,195.273707 68.2871538,194.232974 67.5504615,193.334483 C66.8161154,192.433621 65.9245769,191.715302 64.8758462,191.181897 C63.8247692,190.64375 62.6282308,190.375862 61.2838846,190.375862 C59.841,190.375862 58.5740769,190.650862 57.4784231,191.203233 C56.3827692,191.755603 55.4583846,192.481034 54.7076154,193.379526 C53.9568462,194.278017 53.3773462,195.328233 52.9714615,196.525431 C52.5632308,197.727371 52.3121923,198.957759 52.2183462,200.218966 L69.8755,200.218966 L69.8755,200.218966 Z" id="Fill-8" fill="#1A1918" sketch:type="MSShapeGroup"></path>
            <path d="M91.2348846,179.916379 L91.2348846,200.171552 C91.2348846,200.835345 91.2630385,201.60819 91.3263846,202.490086 C91.3897308,203.374353 91.5445769,204.282328 91.7956154,205.214009 C92.0443077,206.143319 92.3962308,207.058405 92.8490385,207.956897 C93.3018462,208.857759 93.9188846,209.661422 94.7001538,210.370259 C95.4790769,211.079095 96.4386538,211.64806 97.5788846,212.074784 C98.7191154,212.501509 100.101,212.714871 101.724538,212.714871 C103.786808,212.714871 105.511231,212.420905 106.900154,211.837716 C108.289077,211.254526 109.412885,210.417672 110.271577,209.329526 C111.130269,208.241379 111.747308,206.923276 112.122692,205.377586 C112.498077,203.834267 112.685769,202.096552 112.685769,200.171552 L112.685769,179.916379 L114.745692,179.916379 L114.745692,200.171552 C114.745692,202.191379 114.534538,204.068966 114.114577,205.80194 C113.692269,207.539655 112.981385,209.054526 111.981923,210.346552 C110.982462,211.640948 109.6475,212.657974 107.977038,213.4 C106.306577,214.139655 104.223192,214.511853 101.724538,214.511853 C99.7584615,214.511853 98.0715769,214.25819 96.6662308,213.753233 C95.2608846,213.250647 94.0971923,212.596336 93.1775,211.790302 C92.2554615,210.986638 91.5305,210.062069 91.0002692,209.021336 C90.4676923,207.978233 90.0641538,206.932759 89.7826154,205.875431 C89.5010769,204.818103 89.3298077,203.791595 89.2664615,202.798276 C89.2031154,201.804957 89.1726154,200.930172 89.1726154,200.171552 L89.1726154,179.916379 L91.2348846,179.916379" id="Fill-9" fill="#1A1918" sketch:type="MSShapeGroup"></path>
            <path d="M119.381692,189.382543 L121.162423,189.382543 L121.162423,194.586207 L121.256269,194.586207 C121.565962,193.671121 122.011731,192.857974 122.588885,192.151509 C123.168385,191.440302 123.839385,190.833405 124.604231,190.328448 C125.369077,189.823491 126.204308,189.444181 127.109923,189.192888 C128.015538,188.939224 128.935231,188.813578 129.873692,188.813578 C131.279038,188.813578 132.473231,188.986638 133.456269,189.332759 C134.439308,189.68125 135.241692,190.138793 135.868115,190.705388 C136.492192,191.274353 136.984885,191.912069 137.343846,192.623276 C137.702808,193.334483 137.960885,194.050431 138.115731,194.775862 C138.270577,195.503664 138.366769,196.205388 138.397269,196.883405 C138.427769,197.561422 138.444192,198.154095 138.444192,198.656681 L138.444192,213.70819 L136.663462,213.70819 L136.663462,198.324784 C136.663462,197.727371 136.616538,196.96875 136.522692,196.053664 C136.428846,195.140948 136.156692,194.263793 135.703885,193.42931 C135.251077,192.592457 134.563654,191.871767 133.643962,191.274353 C132.721923,190.67694 131.450308,190.375862 129.826769,190.375862 C128.451923,190.375862 127.234269,190.627155 126.173808,191.132112 C125.111,191.637069 124.205385,192.338793 123.456962,193.239655 C122.706192,194.138147 122.138423,195.212069 121.746615,196.456681 C121.357154,197.703664 121.162423,199.069181 121.162423,200.550862 L121.162423,213.70819 L119.381692,213.70819 L119.381692,189.382543" id="Fill-10" fill="#1A1918" sketch:type="MSShapeGroup"></path>
            <path d="M143.174038,179.916379 L144.954769,179.916379 L144.954769,184.792888 L143.174038,184.792888 L143.174038,179.916379 Z M143.174038,189.382543 L144.954769,189.382543 L144.954769,213.70819 L143.174038,213.70819 L143.174038,189.382543 Z" id="Fill-11" fill="#1A1918" sketch:type="MSShapeGroup"></path>
            <path d="M159.475115,190.942457 L154.229115,190.942457 L154.229115,207.93319 C154.229115,208.912284 154.337038,209.682759 154.555231,210.254095 C154.773423,210.82069 155.108923,211.254526 155.564077,211.553233 C156.014538,211.85431 156.561192,212.034483 157.201692,212.098491 C157.842192,212.160129 158.583577,212.176724 159.428192,212.143534 L159.428192,213.70819 C158.520231,213.769828 157.638077,213.762716 156.781731,213.684483 C155.920692,213.60625 155.165231,213.369181 154.508308,212.973276 C153.853731,212.579741 153.330538,211.987069 152.938731,211.2 C152.549269,210.41056 152.385038,209.322414 152.448385,207.93319 L152.448385,190.942457 L147.997731,190.942457 L147.997731,189.382543 L152.448385,189.382543 L152.448385,181.80819 L154.229115,181.80819 L154.229115,189.382543 L159.475115,189.382543 L159.475115,190.942457" id="Fill-12" fill="#1A1918" sketch:type="MSShapeGroup"></path>
            <path d="M162.471154,201.78125 L162.471154,202.063362 C162.471154,203.483405 162.658846,204.84181 163.034231,206.133836 C163.409615,207.428233 163.965654,208.566164 164.702346,209.542888 C165.436692,210.521983 166.361077,211.292457 167.473154,211.861422 C168.582885,212.428017 169.875615,212.714871 171.346654,212.714871 C173.756154,212.714871 175.665923,212.074784 177.075962,210.796983 C178.486,209.519181 179.454962,207.743534 179.987538,205.472414 L181.768269,205.472414 C181.235692,208.3125 180.088423,210.488793 178.324115,212.003664 C176.559808,213.516164 174.227731,214.274784 171.323192,214.274784 C169.542462,214.274784 167.989308,213.95 166.663731,213.305172 C165.335808,212.657974 164.226077,211.773707 163.336885,210.652371 C162.447692,209.535776 161.783731,208.21056 161.347346,206.679095 C160.908615,205.147629 160.690423,203.502371 160.690423,201.733836 C160.690423,200.02931 160.918,198.398276 161.370808,196.833621 C161.823615,195.273707 162.501654,193.901078 163.407269,192.718103 C164.312885,191.535129 165.446077,190.586853 166.8045,189.878017 C168.160577,189.169181 169.760654,188.813578 171.604731,188.813578 C173.289269,188.813578 174.781423,189.128879 176.0765,189.759483 C177.373923,190.390086 178.457846,191.250647 179.330615,192.338793 C180.205731,193.42931 180.869692,194.690517 181.3225,196.124784 C181.775308,197.561422 182.002885,199.097629 182.002885,200.740517 C182.002885,200.896983 181.9935,201.077155 181.977077,201.283405 C181.963,201.489655 181.955962,201.655603 181.955962,201.78125 L162.471154,201.78125 L162.471154,201.78125 Z M180.175231,200.218966 C180.111885,198.89375 179.893692,197.639655 179.518308,196.456681 C179.140577,195.273707 178.586885,194.232974 177.850192,193.334483 C177.115846,192.433621 176.221962,191.715302 175.175577,191.181897 C174.1245,190.64375 172.925615,190.375862 171.581269,190.375862 C170.140731,190.375862 168.871462,190.650862 167.778154,191.203233 C166.680154,191.755603 165.758115,192.481034 165.007346,193.379526 C164.254231,194.278017 163.677077,195.328233 163.268846,196.525431 C162.862962,197.727371 162.611923,198.957759 162.518077,200.218966 L180.175231,200.218966 L180.175231,200.218966 Z" id="Fill-13" fill="#1A1918" sketch:type="MSShapeGroup"></path>
            <path d="M204.718346,208.499784 L204.6245,208.499784 C203.622692,210.427155 202.374538,211.868534 200.877692,212.831034 C199.3785,213.793534 197.550846,214.274784 195.397077,214.274784 C193.585846,214.274784 192.025654,213.926293 190.714154,213.234052 C189.400308,212.53944 188.323423,211.610129 187.481154,210.441379 C186.638885,209.272629 186.014808,207.926078 185.608923,206.394612 C185.200692,204.865517 184.998923,203.262931 184.998923,201.591595 C184.998923,199.792241 185.217115,198.111422 185.655846,196.551509 C186.092231,194.989224 186.756192,193.642672 187.645385,192.504741 C188.534577,191.369181 189.651346,190.47069 190.995692,189.806897 C192.335346,189.143103 193.914308,188.813578 195.725538,188.813578 C196.692154,188.813578 197.644692,188.948707 198.583154,189.214224 C199.516923,189.484483 200.385,189.870905 201.180346,190.375862 C201.978038,190.880819 202.6725,191.511422 203.266077,192.270043 C203.859654,193.026293 204.310115,193.877371 204.6245,194.825647 L204.718346,194.825647 L204.718346,179.916379 L206.496731,179.916379 L206.496731,213.70819 L204.718346,213.70819 L204.718346,208.499784 L204.718346,208.499784 Z M195.772462,212.714871 C197.302154,212.714871 198.620692,212.399569 199.728077,211.766595 C200.837808,211.133621 201.759846,210.299138 202.494192,209.256034 C203.226192,208.217672 203.772846,207.025216 204.131808,205.685776 C204.490769,204.343966 204.671423,202.980819 204.671423,201.591595 C204.671423,200.171552 204.490769,198.79181 204.131808,197.45 C203.772846,196.11056 203.233231,194.910991 202.515308,193.851293 C201.797385,192.796336 200.868308,191.954741 199.728077,191.321767 C198.587846,190.688793 197.255231,190.375862 195.725538,190.375862 C194.1325,190.375862 192.774077,190.684052 191.650269,191.29806 C190.526462,191.912069 189.595038,192.74181 188.863038,193.782543 C188.128692,194.825647 187.598462,196.022845 187.27,197.378879 C186.943885,198.737284 186.779654,200.140733 186.779654,201.591595 C186.779654,203.011638 186.957962,204.391379 187.316923,205.730819 C187.675885,207.075 188.222538,208.265086 188.956885,209.305819 C189.691231,210.346552 190.620308,211.173922 191.744115,211.790302 C192.867923,212.406681 194.209923,212.714871 195.772462,212.714871 L195.772462,212.714871 Z" id="Fill-14" fill="#1A1918" sketch:type="MSShapeGroup"></path>
            <path d="M247.338577,189.569828 C247.275231,188.121336 246.970231,186.857759 246.425923,185.783836 C245.876923,184.712284 245.135538,183.813793 244.199423,183.085991 C243.263308,182.362931 242.146538,181.815302 240.851462,181.454957 C239.554038,181.092241 238.141654,180.909698 236.611962,180.909698 C235.675846,180.909698 234.669346,181.01875 233.590115,181.241595 C232.513231,181.462069 231.513769,181.848491 230.594077,182.398491 C229.672038,182.953233 228.914231,183.692888 228.323,184.624569 C227.729423,185.55625 227.431462,186.715517 227.431462,188.104741 C227.431462,189.460776 227.759923,190.565517 228.416846,191.416595 C229.071423,192.270043 229.930115,192.955172 230.992923,193.474353 C232.053385,193.995905 233.271038,194.415517 234.645885,194.730819 C236.018385,195.04375 237.407308,195.342457 238.815,195.62931 C240.2485,195.913793 241.646808,196.250431 243.005231,196.646336 C244.363654,197.039871 245.581308,197.578017 246.658192,198.256034 C247.735077,198.934052 248.603154,199.815948 249.257731,200.904095 C249.914654,201.994612 250.243115,203.357759 250.243115,205.000647 C250.243115,206.76681 249.867731,208.248491 249.116962,209.44806 C248.368538,210.645259 247.423038,211.626724 246.285154,212.382974 C245.144923,213.139224 243.880346,213.684483 242.489077,214.014009 C241.100154,214.345905 239.765192,214.511853 238.486538,214.511853 C236.518115,214.511853 234.676385,214.298491 232.959,213.874138 C231.241615,213.447414 229.742423,212.752802 228.461423,211.790302 C227.182769,210.830172 226.173923,209.590302 225.441923,208.075431 C224.707577,206.56056 224.355654,204.713793 224.3885,202.539871 L226.448423,202.539871 C226.354577,204.400862 226.619692,205.970259 227.243769,207.24806 C227.867846,208.525862 228.735923,209.573707 229.845654,210.393966 C230.953038,211.216595 232.2575,211.806897 233.754346,212.169612 C235.253538,212.529957 236.830154,212.714871 238.486538,212.714871 C239.486,212.714871 240.5535,212.586853 241.693731,212.33319 C242.833962,212.081897 243.880346,211.655172 244.832885,211.055388 C245.785423,210.457974 246.580769,209.668534 247.221269,208.68944 C247.859423,207.712716 248.180846,206.482328 248.180846,205.000647 C248.180846,203.578233 247.854731,202.421336 247.197808,201.520474 C246.540885,200.621983 245.675154,199.894181 244.598269,199.344181 C243.521385,198.79181 242.303731,198.350862 240.945308,198.016595 C239.586885,197.687069 238.188577,197.378879 236.752731,197.096767 C235.347385,196.809914 233.958462,196.480388 232.583615,196.101078 C231.211115,195.724138 229.993462,195.212069 228.930654,194.5625 C227.867846,193.917672 227.0115,193.080819 226.354577,192.056681 C225.7,191.030172 225.371538,189.712069 225.371538,188.104741 C225.371538,186.495043 225.707038,185.115302 226.378038,183.963147 C227.049038,182.810991 227.924154,181.881681 229.001038,181.170474 C230.077923,180.459267 231.288538,179.937716 232.630538,179.60819 C233.974885,179.276293 235.300462,179.112716 236.611962,179.112716 C238.359846,179.112716 239.990423,179.309483 241.506038,179.703017 C243.019308,180.098922 244.347231,180.712931 245.487462,181.549784 C246.627692,182.386638 247.540346,183.465302 248.227769,184.790517 C248.915192,186.115733 249.304654,187.711207 249.3985,189.569828 L247.338577,189.569828" id="Fill-15" fill="#1A1918" sketch:type="MSShapeGroup"></path>
            <path d="M262.607346,190.942457 L257.361346,190.942457 L257.361346,207.93319 C257.361346,208.912284 257.471615,209.682759 257.689808,210.254095 C257.908,210.82069 258.2435,211.254526 258.696308,211.553233 C259.149115,211.85431 259.695769,212.034483 260.336269,212.098491 C260.974423,212.160129 261.718154,212.176724 262.560423,212.143534 L262.560423,213.70819 C261.654808,213.769828 260.772654,213.762716 259.913962,213.684483 C259.055269,213.60625 258.297462,213.369181 257.642885,212.973276 C256.988308,212.579741 256.462769,211.987069 256.073308,211.2 C255.6815,210.41056 255.519615,209.322414 255.580615,207.93319 L255.580615,190.942457 L251.132308,190.942457 L251.132308,189.382543 L255.580615,189.382543 L255.580615,181.80819 L257.361346,181.80819 L257.361346,189.382543 L262.607346,189.382543 L262.607346,190.942457" id="Fill-16" fill="#1A1918" sketch:type="MSShapeGroup"></path>
            <path d="M281.855192,208.879095 L281.761346,208.879095 C281.482154,209.606897 281.073923,210.292026 280.543692,210.936853 C280.013462,211.586422 279.365923,212.160129 278.601077,212.665086 C277.833885,213.170043 276.968154,213.565948 276.001538,213.84806 C275.032577,214.132543 273.969769,214.274784 272.815462,214.274784 C270.255808,214.274784 268.273308,213.712931 266.867962,212.596336 C265.462615,211.475 264.761115,209.749138 264.761115,207.411638 C264.761115,205.993966 265.042654,204.832328 265.603385,203.933836 C266.166462,203.032974 266.875,202.326509 267.733692,201.804957 C268.592385,201.283405 269.544923,200.913578 270.591308,200.690733 C271.637692,200.470259 272.644192,200.313793 273.613154,200.218966 L276.376923,199.981897 C277.655577,199.887069 278.662077,199.737716 279.396423,199.533836 C280.130769,199.327586 280.684462,199.043103 281.059846,198.682759 C281.435231,198.317672 281.669846,197.853017 281.761346,197.286422 C281.855192,196.715086 281.902115,196.008621 281.902115,195.155172 C281.902115,194.491379 281.777769,193.877371 281.529077,193.308405 C281.278038,192.74181 280.888577,192.236853 280.358346,191.793534 C279.825769,191.354957 279.138346,191.006466 278.296077,190.755172 C277.453808,190.501509 276.423846,190.375862 275.206192,190.375862 C273.050077,190.375862 271.309231,190.911638 269.983654,191.98319 C268.655731,193.057112 267.928423,194.681034 267.804077,196.859698 L266.025692,196.859698 C266.150038,194.176078 267.001692,192.168103 268.578308,190.823922 C270.152577,189.484483 272.393154,188.813578 275.297692,188.813578 C278.202231,188.813578 280.318462,189.389655 281.644038,190.54181 C282.971962,191.691595 283.635923,193.199353 283.635923,195.060345 L283.635923,209.210991 C283.635923,209.559483 283.642962,209.905603 283.659385,210.254095 C283.675808,210.600216 283.729769,210.915517 283.823615,211.2 C283.917462,211.482112 284.072308,211.712069 284.2905,211.885129 C284.508692,212.05819 284.820731,212.143534 285.228962,212.143534 C285.541,212.143534 285.977385,212.098491 286.540462,212.003664 L286.540462,213.516164 C286.071231,213.644181 285.587923,213.70819 285.088192,213.70819 C284.367923,213.70819 283.800154,213.613362 283.377846,213.421336 C282.957885,213.234052 282.636462,212.982759 282.418269,212.665086 C282.200077,212.349784 282.049923,211.979957 281.9725,211.553233 C281.895077,211.128879 281.855192,210.661853 281.855192,210.156897 L281.855192,208.879095 L281.855192,208.879095 Z M281.855192,199.887069 C281.418808,200.425216 280.754846,200.78556 279.865654,200.975216 C278.976462,201.167241 277.984038,201.307112 276.890731,201.40194 L273.894692,201.686422 C273.019577,201.78125 272.144462,201.916379 271.269346,202.087069 C270.396577,202.260129 269.608269,202.554095 268.906769,202.964224 C268.202923,203.374353 267.632808,203.933836 267.196423,204.642672 C266.757692,205.353879 266.5395,206.278448 266.5395,207.411638 C266.5395,209.210991 267.102577,210.54569 268.226385,211.413362 C269.350192,212.281034 270.896308,212.714871 272.862385,212.714871 C274.891808,212.714871 276.498923,212.342672 277.686077,211.600647 C278.873231,210.858621 279.778846,210.007543 280.405269,209.045043 C281.029346,208.082543 281.425846,207.153233 281.597115,206.252371 C281.770731,205.353879 281.855192,204.746983 281.855192,204.42931 L281.855192,199.887069 L281.855192,199.887069 Z" id="Fill-17" fill="#1A1918" sketch:type="MSShapeGroup"></path>
            <path d="M297.220154,190.942457 L291.974154,190.942457 L291.974154,207.93319 C291.974154,208.912284 292.082077,209.682759 292.300269,210.254095 C292.518462,210.82069 292.853962,211.254526 293.309115,211.553233 C293.759577,211.85431 294.306231,212.034483 294.946731,212.098491 C295.587231,212.160129 296.328615,212.176724 297.173231,212.143534 L297.173231,213.70819 C296.265269,213.769828 295.383115,213.762716 294.526769,213.684483 C293.665731,213.60625 292.910269,213.369181 292.253346,212.973276 C291.598769,212.579741 291.075577,211.987069 290.683769,211.2 C290.294308,210.41056 290.130077,209.322414 290.193423,207.93319 L290.193423,190.942457 L285.742769,190.942457 L285.742769,189.382543 L290.193423,189.382543 L290.193423,181.80819 L291.974154,181.80819 L291.974154,189.382543 L297.220154,189.382543 L297.220154,190.942457" id="Fill-18" fill="#1A1918" sketch:type="MSShapeGroup"></path>
            <path d="M300.213846,201.78125 L300.213846,202.063362 C300.213846,203.483405 300.401538,204.84181 300.779269,206.133836 C301.154654,207.428233 301.708346,208.566164 302.445038,209.542888 C303.181731,210.521983 304.103769,211.292457 305.215846,211.861422 C306.325577,212.428017 307.618308,212.714871 309.091692,212.714871 C311.501192,212.714871 313.410962,212.074784 314.818654,210.796983 C316.228692,209.519181 317.2,207.743534 317.732577,205.472414 L319.510962,205.472414 C318.980731,208.3125 317.833462,210.488793 316.069154,212.003664 C314.304846,213.516164 311.970423,214.274784 309.065885,214.274784 C307.2875,214.274784 305.734346,213.95 304.406423,213.305172 C303.0785,212.657974 301.971115,211.773707 301.081923,210.652371 C300.190385,209.535776 299.526423,208.21056 299.090038,206.679095 C298.653654,205.147629 298.435462,203.502371 298.435462,201.733836 C298.435462,200.02931 298.660692,198.398276 299.1135,196.833621 C299.566308,195.273707 300.246692,193.901078 301.152308,192.718103 C302.057923,191.535129 303.188769,190.586853 304.547192,189.878017 C305.905615,189.169181 307.505692,188.813578 309.347423,188.813578 C311.034308,188.813578 312.524115,189.128879 313.821538,189.759483 C315.116615,190.390086 316.200538,191.250647 317.075654,192.338793 C317.948423,193.42931 318.612385,194.690517 319.067538,196.124784 C319.518,197.561422 319.745577,199.097629 319.745577,200.740517 C319.745577,200.896983 319.738538,201.077155 319.722115,201.283405 C319.705692,201.489655 319.698654,201.655603 319.698654,201.78125 L300.213846,201.78125 L300.213846,201.78125 Z M317.917923,200.218966 C317.854577,198.89375 317.636385,197.639655 317.263346,196.456681 C316.885615,195.273707 316.329577,194.232974 315.595231,193.334483 C314.858538,192.433621 313.967,191.715302 312.918269,191.181897 C311.867192,190.64375 310.670654,190.375862 309.326308,190.375862 C307.883423,190.375862 306.6165,190.650862 305.520846,191.203233 C304.425192,191.755603 303.500808,192.481034 302.750038,193.379526 C301.999269,194.278017 301.419769,195.328233 301.013885,196.525431 C300.605654,197.727371 300.354615,198.957759 300.260769,200.218966 L317.917923,200.218966 L317.917923,200.218966 Z" id="Fill-19" fill="#1A1918" sketch:type="MSShapeGroup"></path>
            <path d="M323.773923,205.612284 C323.837269,206.750216 324.085962,207.753017 324.524692,208.618319 C324.961077,209.485991 325.531192,210.228017 326.232692,210.844397 C326.936538,211.458405 327.755346,211.92306 328.691462,212.238362 C329.629923,212.556034 330.643462,212.714871 331.736769,212.714871 C332.515692,212.714871 333.350923,212.641379 334.242462,212.501509 C335.131654,212.356897 335.959846,212.098491 336.724692,211.719181 C337.489538,211.339871 338.120654,210.813578 338.622731,210.13556 C339.120115,209.457543 339.371154,208.594612 339.371154,207.55625 C339.371154,206.197845 338.965269,205.173707 338.1535,204.479095 C337.341731,203.784483 336.318808,203.246336 335.084731,202.869397 C333.850654,202.490086 332.525077,202.181897 331.103308,201.947198 C329.681538,201.710129 328.355962,201.354526 327.124231,200.880388 C325.890154,200.408621 324.867231,199.737716 324.055462,198.870043 C323.243692,198.004741 322.837808,196.731681 322.837808,195.060345 C322.837808,193.860776 323.102923,192.857974 323.633154,192.056681 C324.163385,191.250647 324.843769,190.61056 325.669615,190.138793 C326.497808,189.664655 327.426885,189.325647 328.456846,189.119397 C329.486808,188.917888 330.519115,188.813578 331.549077,188.813578 C332.797231,188.813578 333.967962,188.955819 335.063615,189.237931 C336.154577,189.522414 337.100077,189.982328 337.895423,190.61056 C338.690769,191.243534 339.314846,192.047198 339.767654,193.026293 C340.220462,194.003017 340.448038,195.185991 340.448038,196.575216 L338.669654,196.575216 C338.669654,195.470474 338.489,194.524569 338.130038,193.735129 C337.771077,192.94806 337.271346,192.307974 336.630846,191.817241 C335.990346,191.328879 335.232538,190.968534 334.359769,190.729095 C333.484654,190.492026 332.548538,190.375862 331.549077,190.375862 C330.737308,190.375862 329.9185,190.454095 329.090308,190.61056 C328.262115,190.771767 327.520731,191.037284 326.866154,191.416595 C326.209231,191.793534 325.669615,192.284267 325.249654,192.881681 C324.827346,193.481466 324.616192,194.209267 324.616192,195.060345 C324.616192,196.037069 324.850808,196.826509 325.320038,197.426293 C325.786923,198.026078 326.403962,198.507328 327.171154,198.870043 C327.933654,199.232759 328.792346,199.524353 329.744885,199.747198 C330.697423,199.967672 331.657,200.188147 332.625962,200.408621 C333.813115,200.629095 334.927538,200.889871 335.976269,201.188578 C337.020308,201.489655 337.925923,201.899784 338.690769,202.421336 C339.455615,202.938147 340.056231,203.611422 340.494962,204.42931 C340.931346,205.25194 341.151885,206.295043 341.151885,207.55625 C341.151885,208.879095 340.853923,209.967241 340.260346,210.82069 C339.666769,211.671767 338.918346,212.356897 338.012731,212.878448 C337.107115,213.4 336.098269,213.762716 334.990885,213.966595 C333.881154,214.172845 332.797231,214.274784 331.736769,214.274784 C330.361923,214.274784 329.090308,214.094612 327.919577,213.729526 C326.748846,213.369181 325.725923,212.81681 324.850808,212.074784 C323.975692,211.332759 323.290615,210.427155 322.790885,209.353233 C322.291154,208.27931 322.026038,207.034698 321.995538,205.612284 L323.773923,205.612284" id="Fill-20" fill="#1A1918" sketch:type="MSShapeGroup"></path>
            <path d="M359.742808,179.916379 L382.223654,179.916379 L382.223654,181.713362 L361.805077,181.713362 L361.805077,195.25 L381.006,195.25 L381.006,197.046983 L361.805077,197.046983 L361.805077,211.908836 L382.460615,211.908836 L382.460615,213.70819 L359.742808,213.70819 L359.742808,179.916379" id="Fill-21" fill="#1A1918" sketch:type="MSShapeGroup"></path>
            <path d="M393.135615,200.930172 L384.332846,189.382543 L386.815077,189.382543 L394.355615,199.557543 L401.943077,189.382543 L404.237615,189.382543 L395.526346,200.930172 L405.035308,213.70819 L402.6,213.70819 L394.355615,202.300431 L385.925885,213.70819 L383.678269,213.70819 L393.135615,200.930172" id="Fill-22" fill="#1A1918" sketch:type="MSShapeGroup"></path>
            <path d="M416.226462,190.942457 L410.982808,190.942457 L410.982808,207.93319 C410.982808,208.912284 411.090731,209.682759 411.311269,210.254095 C411.527115,210.82069 411.864962,211.254526 412.315423,211.553233 C412.770577,211.85431 413.314885,212.034483 413.955385,212.098491 C414.595885,212.160129 415.337269,212.176724 416.181885,212.143534 L416.181885,213.70819 C415.273923,213.769828 414.394115,213.762716 413.535423,213.684483 C412.674385,213.60625 411.918923,213.369181 411.262,212.973276 C410.607423,212.579741 410.084231,211.987069 409.694769,211.2 C409.302962,210.41056 409.141077,209.322414 409.202077,207.93319 L409.202077,190.942457 L404.753769,190.942457 L404.753769,189.382543 L409.202077,189.382543 L409.202077,181.80819 L410.982808,181.80819 L410.982808,189.382543 L416.226462,189.382543 L416.226462,190.942457" id="Fill-23" fill="#1A1918" sketch:type="MSShapeGroup"></path>
            <path d="M421.284769,194.775862 L421.425538,194.775862 C421.643731,193.988793 422.042577,193.246767 422.619731,192.552155 C423.196885,191.859914 423.900731,191.260129 424.726577,190.755172 C425.554769,190.250216 426.474462,189.863793 427.490346,189.595905 C428.506231,189.325647 429.559654,189.209483 430.652962,189.237931 L430.652962,191.037284 C429.7145,190.911638 428.644654,191.006466 427.443423,191.321767 C426.242192,191.637069 425.092577,192.331681 424.001615,193.403233 C423.562885,193.877371 423.180462,194.334914 422.852,194.775862 C422.525885,195.219181 422.253731,195.707543 422.035538,196.243319 C421.815,196.781466 421.643731,197.378879 421.519385,198.042672 C421.392692,198.704095 421.315269,199.493534 421.284769,200.408621 L421.284769,213.70819 L419.506385,213.70819 L419.506385,189.382543 L421.284769,189.382543 L421.284769,194.775862" id="Fill-24" fill="#1A1918" sketch:type="MSShapeGroup"></path>
            <path d="M446.625577,208.879095 L446.531731,208.879095 C446.250192,209.606897 445.844308,210.292026 445.314077,210.936853 C444.7815,211.586422 444.136308,212.160129 443.371462,212.665086 C442.604269,213.170043 441.738538,213.565948 440.769577,213.84806 C439.802962,214.132543 438.740154,214.274784 437.585846,214.274784 C435.026192,214.274784 433.041346,213.712931 431.638346,212.596336 C430.233,211.475 429.529154,209.749138 429.529154,207.411638 C429.529154,205.993966 429.810692,204.832328 430.371423,203.933836 C430.9345,203.032974 431.643038,202.326509 432.504077,201.804957 C433.362769,201.283405 434.312962,200.913578 435.361692,200.690733 C436.408077,200.470259 437.412231,200.313793 438.383538,200.218966 L441.144962,199.981897 C442.423615,199.887069 443.432462,199.737716 444.164462,199.533836 C444.898808,199.327586 445.454846,199.043103 445.827885,198.682759 C446.203269,198.317672 446.437885,197.853017 446.531731,197.286422 C446.625577,196.715086 446.6725,196.008621 446.6725,195.155172 C446.6725,194.491379 446.545808,193.877371 446.297115,193.308405 C446.046077,192.74181 445.656615,192.236853 445.126385,191.793534 C444.596154,191.354957 443.908731,191.006466 443.066462,190.755172 C442.221846,190.501509 441.191885,190.375862 439.974231,190.375862 C437.818115,190.375862 436.079615,190.911638 434.751692,191.98319 C433.423769,193.057112 432.698808,194.681034 432.574462,196.859698 L430.793731,196.859698 C430.918077,194.176078 431.769731,192.168103 433.346346,190.823922 C434.922962,189.484483 437.163538,188.813578 440.068077,188.813578 C442.972615,188.813578 445.0865,189.389655 446.414423,190.54181 C447.742346,191.691595 448.403962,193.199353 448.403962,195.060345 L448.403962,209.210991 C448.403962,209.559483 448.413346,209.905603 448.429769,210.254095 C448.443846,210.600216 448.497808,210.915517 448.591654,211.2 C448.6855,211.482112 448.842692,211.712069 449.060885,211.885129 C449.279077,212.05819 449.591115,212.143534 449.997,212.143534 C450.309038,212.143534 450.745423,212.098491 451.3085,212.003664 L451.3085,213.516164 C450.839269,213.644181 450.355962,213.70819 449.856231,213.70819 C449.135962,213.70819 448.568192,213.613362 448.148231,213.421336 C447.725923,213.234052 447.4045,212.982759 447.186308,212.665086 C446.968115,212.349784 446.820308,211.979957 446.742885,211.553233 C446.663115,211.128879 446.625577,210.661853 446.625577,210.156897 L446.625577,208.879095 L446.625577,208.879095 Z M446.625577,199.887069 C446.189192,200.425216 445.522885,200.78556 444.636038,200.975216 C443.7445,201.167241 442.754423,201.307112 441.661115,201.40194 L438.662731,201.686422 C437.789962,201.78125 436.914846,201.916379 436.039731,202.087069 C435.164615,202.260129 434.378654,202.554095 433.674808,202.964224 C432.973308,203.374353 432.403192,203.933836 431.964462,204.642672 C431.528077,205.353879 431.309885,206.278448 431.309885,207.411638 C431.309885,209.210991 431.870615,210.54569 432.996769,211.413362 C434.118231,212.281034 435.664346,212.714871 437.632769,212.714871 C439.659846,212.714871 441.269308,212.342672 442.456462,211.600647 C443.643615,210.858621 444.546885,210.007543 445.173308,209.045043 C445.797385,208.082543 446.196231,207.153233 446.3675,206.252371 C446.538769,205.353879 446.625577,204.746983 446.625577,204.42931 L446.625577,199.887069 L446.625577,199.887069 Z" id="Fill-25" fill="#1A1918" sketch:type="MSShapeGroup"></path>
            <path d="M472.198654,196.907112 C472.104808,195.83319 471.830308,194.887284 471.3775,194.064655 C470.924692,193.246767 470.3405,192.566379 469.622577,192.030603 C468.902308,191.494828 468.067077,191.084698 467.116885,190.800216 C466.162,190.515733 465.141423,190.375862 464.048115,190.375862 C462.548923,190.375862 461.221,190.684052 460.066692,191.29806 C458.912385,191.912069 457.943423,192.734698 457.162154,193.758836 C456.380885,194.785345 455.789654,195.951724 455.383769,197.260345 C454.977885,198.571336 454.773769,199.920259 454.773769,201.307112 C454.773769,202.947629 454.961462,204.4625 455.336846,205.851724 C455.709885,207.238578 456.287038,208.447629 457.068308,209.469397 C457.849577,210.495905 458.816192,211.292457 459.972846,211.861422 C461.1295,212.428017 462.485577,212.714871 464.048115,212.714871 C465.174269,212.714871 466.208923,212.525216 467.161462,212.143534 C468.114,211.766595 468.958615,211.245043 469.690615,210.583621 C470.424962,209.922198 471.027923,209.125647 471.494808,208.191595 C471.964038,207.264655 472.276077,206.245259 472.430923,205.140517 L474.211654,205.140517 C474.023962,206.59375 473.6345,207.885776 473.040923,209.021336 C472.447346,210.156897 471.698923,211.112284 470.793308,211.885129 C469.885346,212.657974 468.855385,213.250647 467.701077,213.660776 C466.544423,214.070905 465.329115,214.274784 464.048115,214.274784 C462.079692,214.274784 460.402192,213.919181 459.013269,213.207974 C457.624346,212.501509 456.484115,211.546121 455.592577,210.346552 C454.705731,209.149353 454.048808,207.769612 453.628846,206.204957 C453.206538,204.642672 452.995385,203.011638 452.995385,201.307112 C452.995385,199.602586 453.237038,197.995259 453.720346,196.480388 C454.206,194.965517 454.914538,193.642672 455.853,192.504741 C456.786769,191.369181 457.943423,190.47069 459.315923,189.806897 C460.690769,189.143103 462.267385,188.813578 464.048115,188.813578 C465.359615,188.813578 466.584308,188.979526 467.724538,189.309052 C468.864769,189.640948 469.878308,190.138793 470.7675,190.800216 C471.659038,191.464009 472.386346,192.307974 472.947077,193.334483 C473.507808,194.358621 473.852692,195.548707 473.977038,196.907112 L472.198654,196.907112" id="Fill-26" fill="#1A1918" sketch:type="MSShapeGroup"></path>
            <path d="M486.292,190.942457 L481.048346,190.942457 L481.048346,207.93319 C481.048346,208.912284 481.156269,209.682759 481.376808,210.254095 C481.595,210.82069 481.9305,211.254526 482.380962,211.553233 C482.836115,211.85431 483.380423,212.034483 484.023269,212.098491 C484.661423,212.160129 485.405154,212.176724 486.247423,212.143534 L486.247423,213.70819 C485.339462,213.769828 484.459654,213.762716 483.600962,213.684483 C482.742269,213.60625 481.984462,213.369181 481.327538,212.973276 C480.672962,212.579741 480.149769,211.987069 479.760308,211.2 C479.3685,210.41056 479.206615,209.322414 479.267615,207.93319 L479.267615,190.942457 L474.819308,190.942457 L474.819308,189.382543 L479.267615,189.382543 L479.267615,181.80819 L481.048346,181.80819 L481.048346,189.382543 L486.292,189.382543 L486.292,190.942457" id="Fill-27" fill="#1A1918" sketch:type="MSShapeGroup"></path>
            <path d="M489.994231,179.916379 L491.774962,179.916379 L491.774962,184.792888 L489.994231,184.792888 L489.994231,179.916379 Z M489.994231,189.382543 L491.774962,189.382543 L491.774962,213.70819 L489.994231,213.70819 L489.994231,189.382543 Z" id="Fill-28" fill="#1A1918" sketch:type="MSShapeGroup"></path>
            <path d="M505.682962,213.70819 L503.484615,213.70819 L493.787962,189.382543 L495.850231,189.382543 L504.5615,211.626724 L504.655346,211.626724 L512.803538,189.382543 L514.769615,189.382543 L505.682962,213.70819" id="Fill-29" fill="#1A1918" sketch:type="MSShapeGroup"></path>
            <path d="M517.017231,201.78125 L517.017231,202.063362 C517.017231,203.483405 517.204923,204.84181 517.580308,206.133836 C517.958038,207.428233 518.511731,208.566164 519.248423,209.542888 C519.985115,210.521983 520.907154,211.292457 522.019231,211.861422 C523.131308,212.428017 524.419346,212.714871 525.892731,212.714871 C528.304577,212.714871 530.214346,212.074784 531.622038,210.796983 C533.029731,209.519181 534.001038,207.743534 534.533615,205.472414 L536.314346,205.472414 C535.781769,208.3125 534.6345,210.488793 532.872538,212.003664 C531.108231,213.516164 528.773808,214.274784 525.871615,214.274784 C524.090885,214.274784 522.537731,213.95 521.209808,213.305172 C519.881885,212.657974 518.7745,211.773707 517.882962,210.652371 C516.993769,209.535776 516.329808,208.21056 515.893423,206.679095 C515.454692,205.147629 515.2365,203.502371 515.2365,201.733836 C515.2365,200.02931 515.464077,198.398276 515.916885,196.833621 C516.369692,195.273707 517.047731,193.901078 517.955692,192.718103 C518.858962,191.535129 519.992154,190.586853 521.350577,189.878017 C522.709,189.169181 524.309077,188.813578 526.150808,188.813578 C527.835346,188.813578 529.3275,189.128879 530.622577,189.759483 C531.92,190.390086 533.003923,191.250647 533.879038,192.338793 C534.754154,193.42931 535.415769,194.690517 535.868577,196.124784 C536.321385,197.561422 536.546615,199.097629 536.546615,200.740517 C536.546615,200.896983 536.541923,201.077155 536.5255,201.283405 C536.509077,201.489655 536.502038,201.655603 536.502038,201.78125 L517.017231,201.78125 L517.017231,201.78125 Z M534.721308,200.218966 C534.660308,198.89375 534.439769,197.639655 534.064385,196.456681 C533.689,195.273707 533.132962,194.232974 532.398615,193.334483 C531.659577,192.433621 530.768038,191.715302 529.719308,191.181897 C528.670577,190.64375 527.474038,190.375862 526.127346,190.375862 C524.689154,190.375862 523.419885,190.650862 522.324231,191.203233 C521.228577,191.755603 520.304192,192.481034 519.553423,193.379526 C518.802654,194.278017 518.223154,195.328233 517.814923,196.525431 C517.409038,197.727371 517.158,198.957759 517.064154,200.218966 L534.721308,200.218966 L534.721308,200.218966 Z" id="Fill-30" fill="#1A1918" sketch:type="MSShapeGroup"></path>
            <path d="M554.018423,179.916379 L556.078346,179.916379 L556.078346,213.70819 L554.018423,213.70819 L554.018423,179.916379 Z" id="Fill-31" fill="#1A1918" sketch:type="MSShapeGroup"></path>
            <path d="M560.716692,189.382543 L562.497423,189.382543 L562.497423,194.586207 L562.588923,194.586207 C562.903308,193.671121 563.346731,192.857974 563.923885,192.151509 C564.501038,191.440302 565.174385,190.833405 565.939231,190.328448 C566.704077,189.823491 567.536962,189.444181 568.444923,189.192888 C569.350538,188.939224 570.270231,188.813578 571.208692,188.813578 C572.614038,188.813578 573.805885,188.986638 574.791269,189.332759 C575.774308,189.68125 576.579038,190.138793 577.203115,190.705388 C577.827192,191.274353 578.319885,191.912069 578.6765,192.623276 C579.037808,193.334483 579.293538,194.050431 579.450731,194.775862 C579.607923,195.503664 579.701769,196.205388 579.732269,196.883405 C579.762769,197.561422 579.779192,198.154095 579.779192,198.656681 L579.779192,213.70819 L577.998462,213.70819 L577.998462,198.324784 C577.998462,197.727371 577.951538,196.96875 577.860038,196.053664 C577.766192,195.140948 577.491692,194.263793 577.038885,193.42931 C576.586077,192.592457 575.898654,191.871767 574.976615,191.274353 C574.056923,190.67694 572.785308,190.375862 571.159423,190.375862 C569.786923,190.375862 568.569269,190.627155 567.508808,191.132112 C566.443654,191.637069 565.540385,192.338793 564.789615,193.239655 C564.041192,194.138147 563.471077,195.212069 563.081615,196.456681 C562.692154,197.703664 562.497423,199.069181 562.497423,200.550862 L562.497423,213.70819 L560.716692,213.70819 L560.716692,189.382543" id="Fill-32" fill="#1A1918" sketch:type="MSShapeGroup"></path>
            <path d="M603.616115,208.499784 L603.522269,208.499784 C602.525154,210.427155 601.274654,211.868534 599.777808,212.831034 C598.278615,213.793534 596.453308,214.274784 594.297192,214.274784 C592.485962,214.274784 590.923423,213.926293 589.611923,213.234052 C588.302769,212.53944 587.225885,211.610129 586.383615,210.441379 C585.539,209.272629 584.914923,207.926078 584.509038,206.394612 C584.103154,204.865517 583.899038,203.262931 583.899038,201.591595 C583.899038,199.792241 584.117231,198.111422 584.553615,196.551509 C584.992346,194.989224 585.656308,193.642672 586.5455,192.504741 C587.437038,191.369181 588.551462,190.47069 589.895808,189.806897 C591.237808,189.143103 592.814423,188.813578 594.623308,188.813578 C595.592269,188.813578 596.547154,188.948707 597.480923,189.214224 C598.417038,189.484483 599.285115,189.870905 600.080462,190.375862 C600.875808,190.880819 601.572615,191.511422 602.166192,192.270043 C602.757423,193.026293 603.210231,193.877371 603.522269,194.825647 L603.616115,194.825647 L603.616115,179.916379 L605.396846,179.916379 L605.396846,213.70819 L603.616115,213.70819 L603.616115,208.499784 L603.616115,208.499784 Z M594.672577,212.714871 C596.199923,212.714871 597.520808,212.399569 598.628192,211.766595 C599.737923,211.133621 600.659962,210.299138 601.391962,209.256034 C602.126308,208.217672 602.672962,207.025216 603.031923,205.685776 C603.390885,204.343966 603.571538,202.980819 603.571538,201.591595 C603.571538,200.171552 603.390885,198.79181 603.031923,197.45 C602.672962,196.11056 602.133346,194.910991 601.417769,193.851293 C600.6975,192.796336 599.770769,191.954741 598.628192,191.321767 C597.490308,190.688793 596.155346,190.375862 594.623308,190.375862 C593.032615,190.375862 591.674192,190.684052 590.550385,191.29806 C589.424231,191.912069 588.4975,192.74181 587.763154,193.782543 C587.028808,194.825647 586.498577,196.022845 586.172462,197.378879 C585.844,198.737284 585.679769,200.140733 585.679769,201.591595 C585.679769,203.011638 585.858077,204.391379 586.217038,205.730819 C586.578346,207.075 587.122654,208.265086 587.859346,209.305819 C588.591346,210.346552 589.520423,211.173922 590.644231,211.790302 C591.765692,212.406681 593.110038,212.714871 594.672577,212.714871 L594.672577,212.714871 Z" id="Fill-33" fill="#1A1918" sketch:type="MSShapeGroup"></path>
            <path d="M629.191538,213.70819 L627.410808,213.70819 L627.410808,208.499784 L627.316962,208.499784 C627.004923,209.417241 626.559154,210.228017 625.979654,210.936853 C625.4025,211.64806 624.7315,212.254957 623.966654,212.759914 C623.201808,213.264871 622.368923,213.644181 621.463308,213.897845 C620.555346,214.149138 619.635654,214.274784 618.699538,214.274784 C617.291846,214.274784 616.1,214.101724 615.116962,213.753233 C614.133923,213.409483 613.329192,212.949569 612.702769,212.382974 C612.078692,211.814009 611.588346,211.173922 611.227038,210.465086 C610.868077,209.753879 610.612346,209.037931 610.455154,208.3125 C610.300308,207.587069 610.206462,206.885345 610.173615,206.204957 C610.140769,205.52694 610.129038,204.934267 610.129038,204.42931 L610.129038,189.382543 L611.909769,189.382543 L611.909769,204.761207 C611.909769,205.394181 611.954346,206.157543 612.048192,207.058405 C612.142038,207.956897 612.414192,208.824569 612.869346,209.661422 C613.319808,210.495905 613.997846,211.216595 614.905808,211.814009 C615.811423,212.413793 617.090077,212.714871 618.744115,212.714871 C620.088462,212.714871 621.296731,212.461207 622.373615,211.95625 C623.452846,211.451293 624.3655,210.747198 625.113923,209.851078 C625.864692,208.952586 626.434808,207.878664 626.824269,206.631681 C627.216077,205.387069 627.410808,204.021552 627.410808,202.539871 L627.410808,189.382543 L629.191538,189.382543 L629.191538,213.70819" id="Fill-34" fill="#1A1918" sketch:type="MSShapeGroup"></path>
            <path d="M634.343692,205.612284 C634.404692,206.750216 634.655731,207.753017 635.092115,208.618319 C635.5285,209.485991 636.098615,210.228017 636.802462,210.844397 C637.506308,211.458405 638.322769,211.92306 639.261231,212.238362 C640.197346,212.556034 641.213231,212.714871 642.304192,212.714871 C643.085462,212.714871 643.920692,212.641379 644.812231,212.501509 C645.701423,212.356897 646.527269,212.098491 647.294462,211.719181 C648.059308,211.339871 648.690423,210.813578 649.190154,210.13556 C649.689885,209.457543 649.938577,208.594612 649.938577,207.55625 C649.938577,206.197845 649.535038,205.173707 648.720923,204.479095 C647.909154,203.784483 646.888577,203.246336 645.6545,202.869397 C644.420423,202.490086 643.0925,202.181897 641.673077,201.947198 C640.251308,201.710129 638.925731,201.354526 637.691654,200.880388 C636.457577,200.408621 635.437,199.737716 634.622885,198.870043 C633.811115,198.004741 633.407577,196.731681 633.407577,195.060345 C633.407577,193.860776 633.672692,192.857974 634.200577,192.056681 C634.733154,191.250647 635.411192,190.61056 636.241731,190.138793 C637.067577,189.664655 637.996654,189.325647 639.026615,189.119397 C640.056577,188.917888 641.086538,188.813578 642.118846,188.813578 C643.367,188.813578 644.537731,188.955819 645.628692,189.237931 C646.722,189.522414 647.669846,189.982328 648.462846,190.61056 C649.260538,191.243534 649.884615,192.047198 650.337423,193.026293 C650.790231,194.003017 651.015462,195.185991 651.015462,196.575216 L649.237077,196.575216 C649.237077,195.470474 649.056423,194.524569 648.697462,193.735129 C648.3385,192.94806 647.838769,192.307974 647.198269,191.817241 C646.560115,191.328879 645.802308,190.968534 644.929538,190.729095 C644.054423,190.492026 643.115962,190.375862 642.118846,190.375862 C641.307077,190.375862 640.485923,190.454095 639.660077,190.61056 C638.831885,190.771767 638.0905,191.037284 637.433577,191.416595 C636.779,191.793534 636.241731,192.284267 635.819423,192.881681 C635.397115,193.481466 635.185962,194.209267 635.185962,195.060345 C635.185962,196.037069 635.420577,196.826509 635.887462,197.426293 C636.356692,198.026078 636.973731,198.507328 637.738577,198.870043 C638.503423,199.232759 639.362115,199.524353 640.314654,199.747198 C641.267192,199.967672 642.226769,200.188147 643.193385,200.408621 C644.380538,200.629095 645.497308,200.889871 646.543692,201.188578 C647.590077,201.489655 648.493346,201.899784 649.260538,202.421336 C650.025385,202.938147 650.626,203.611422 651.064731,204.42931 C651.501115,205.25194 651.719308,206.295043 651.719308,207.55625 C651.719308,208.879095 651.421346,209.967241 650.827769,210.82069 C650.234192,211.671767 649.485769,212.356897 648.580154,212.878448 C647.676885,213.4 646.668038,213.762716 645.560654,213.966595 C644.453269,214.172845 643.367,214.274784 642.304192,214.274784 C640.931692,214.274784 639.660077,214.094612 638.489346,213.729526 C637.318615,213.369181 636.293346,212.81681 635.420577,212.074784 C634.545462,211.332759 633.858038,210.427155 633.358308,209.353233 C632.858577,208.27931 632.593462,207.034698 632.562962,205.612284 L634.343692,205.612284" id="Fill-35" fill="#1A1918" sketch:type="MSShapeGroup"></path>
            <path d="M664.878885,190.942457 L659.632885,190.942457 L659.632885,207.93319 C659.632885,208.912284 659.740808,209.682759 659.961346,210.254095 C660.179538,210.82069 660.515038,211.254526 660.967846,211.553233 C661.420654,211.85431 661.964962,212.034483 662.607808,212.098491 C663.245962,212.160129 663.989692,212.176724 664.831962,212.143534 L664.831962,213.70819 C663.924,213.769828 663.044192,213.762716 662.1855,213.684483 C661.326808,213.60625 660.571346,213.369181 659.912077,212.973276 C659.2575,212.579741 658.734308,211.987069 658.344846,211.2 C657.955385,210.41056 657.791154,209.322414 657.852154,207.93319 L657.852154,190.942457 L653.403846,190.942457 L653.403846,189.382543 L657.852154,189.382543 L657.852154,181.80819 L659.632885,181.80819 L659.632885,189.382543 L664.878885,189.382543 L664.878885,190.942457" id="Fill-36" fill="#1A1918" sketch:type="MSShapeGroup"></path>
            <path d="M669.937192,194.775862 L670.075615,194.775862 C670.293808,193.988793 670.692654,193.246767 671.269808,192.552155 C671.846962,191.859914 672.550808,191.260129 673.379,190.755172 C674.204846,190.250216 675.126885,189.863793 676.140423,189.595905 C677.156308,189.325647 678.209731,189.209483 679.303038,189.237931 L679.303038,191.037284 C678.366923,190.911638 677.297077,191.006466 676.095846,191.321767 C674.892269,191.637069 673.745,192.331681 672.651692,193.403233 C672.215308,193.877371 671.830538,194.334914 671.504423,194.775862 C671.175962,195.219181 670.903808,195.707543 670.685615,196.243319 C670.465077,196.781466 670.293808,197.378879 670.169462,198.042672 C670.045115,198.704095 669.967692,199.493534 669.937192,200.408621 L669.937192,213.70819 L668.156462,213.70819 L668.156462,189.382543 L669.937192,189.382543 L669.937192,194.775862" id="Fill-37" fill="#1A1918" sketch:type="MSShapeGroup"></path>
            <path d="M682.536038,179.916379 L684.316769,179.916379 L684.316769,184.792888 L682.536038,184.792888 L682.536038,179.916379 Z M682.536038,189.382543 L684.316769,189.382543 L684.316769,213.70819 L682.536038,213.70819 L682.536038,189.382543 Z" id="Fill-38" fill="#1A1918" sketch:type="MSShapeGroup"></path>
            <path d="M688.765077,201.78125 L688.765077,202.063362 C688.765077,203.483405 688.952769,204.84181 689.328154,206.133836 C689.705885,207.428233 690.259577,208.566164 690.996269,209.542888 C691.732962,210.521983 692.655,211.292457 693.767077,211.861422 C694.879154,212.428017 696.167192,212.714871 697.640577,212.714871 C700.052423,212.714871 701.962192,212.074784 703.369885,210.796983 C704.777577,209.519181 705.748885,207.743534 706.281462,205.472414 L708.062192,205.472414 C707.529615,208.3125 706.382346,210.488793 704.620385,212.003664 C702.856077,213.516164 700.521654,214.274784 697.619462,214.274784 C695.838731,214.274784 694.285577,213.95 692.957654,213.305172 C691.629731,212.657974 690.522346,211.773707 689.630808,210.652371 C688.741615,209.535776 688.077654,208.21056 687.641269,206.679095 C687.202538,205.147629 686.984346,203.502371 686.984346,201.733836 C686.984346,200.02931 687.211923,198.398276 687.664731,196.833621 C688.117538,195.273707 688.795577,193.901078 689.703538,192.718103 C690.606808,191.535129 691.74,190.586853 693.098423,189.878017 C694.456846,189.169181 696.056923,188.813578 697.898654,188.813578 C699.585538,188.813578 701.075346,189.128879 702.370423,189.759483 C703.667846,190.390086 704.751769,191.250647 705.626885,192.338793 C706.502,193.42931 707.163615,194.690517 707.616423,196.124784 C708.069231,197.561422 708.296808,199.097629 708.296808,200.740517 C708.296808,200.896983 708.289769,201.077155 708.273346,201.283405 C708.256923,201.489655 708.249885,201.655603 708.249885,201.78125 L688.765077,201.78125 L688.765077,201.78125 Z M706.469154,200.218966 C706.408154,198.89375 706.187615,197.639655 705.812231,196.456681 C705.436846,195.273707 704.880808,194.232974 704.146462,193.334483 C703.409769,192.433621 702.518231,191.715302 701.467154,191.181897 C700.418423,190.64375 699.221885,190.375862 697.875192,190.375862 C696.437,190.375862 695.167731,190.650862 694.072077,191.203233 C692.976423,191.755603 692.052038,192.481034 691.301269,193.379526 C690.5505,194.278017 689.971,195.328233 689.562769,196.525431 C689.156885,197.727371 688.905846,198.957759 688.812,200.218966 L706.469154,200.218966 L706.469154,200.218966 Z" id="Fill-39" fill="#1A1918" sketch:type="MSShapeGroup"></path>
            <path d="M713.261269,205.612284 C713.322269,206.750216 713.570962,207.753017 714.009692,208.618319 C714.446077,209.485991 715.016192,210.228017 715.717692,210.844397 C716.421538,211.458405 717.240346,211.92306 718.176462,212.238362 C719.114923,212.556034 720.128462,212.714871 721.221769,212.714871 C722.000692,212.714871 722.838269,212.641379 723.729808,212.501509 C724.616654,212.356897 725.444846,212.098491 726.209692,211.719181 C726.974538,211.339871 727.608,210.813578 728.107731,210.13556 C728.607462,209.457543 728.856154,208.594612 728.856154,207.55625 C728.856154,206.197845 728.450269,205.173707 727.6385,204.479095 C726.826731,203.784483 725.803808,203.246336 724.572077,202.869397 C723.338,202.490086 722.010077,202.181897 720.590654,201.947198 C719.168885,201.710129 717.843308,201.354526 716.609231,200.880388 C715.375154,200.408621 714.352231,199.737716 713.540462,198.870043 C712.728692,198.004741 712.322808,196.731681 712.322808,195.060345 C712.322808,193.860776 712.590269,192.857974 713.118154,192.056681 C713.650731,191.250647 714.328769,190.61056 715.156962,190.138793 C715.985154,189.664655 716.911885,189.325647 717.944192,189.119397 C718.974154,188.917888 720.004115,188.813578 721.034077,188.813578 C722.282231,188.813578 723.452962,188.955819 724.546269,189.237931 C725.639577,189.522414 726.585077,189.982328 727.380423,190.61056 C728.178115,191.243534 728.802192,192.047198 729.255,193.026293 C729.705462,194.003017 729.933038,195.185991 729.933038,196.575216 L728.152308,196.575216 C728.152308,195.470474 727.974,194.524569 727.615038,193.735129 C727.253731,192.94806 726.756346,192.307974 726.115846,191.817241 C725.477692,191.328879 724.717538,190.968534 723.844769,190.729095 C722.969654,190.492026 722.033538,190.375862 721.034077,190.375862 C720.222308,190.375862 719.4035,190.454095 718.575308,190.61056 C717.749462,190.771767 717.005731,191.037284 716.351154,191.416595 C715.696577,191.793534 715.156962,192.284267 714.737,192.881681 C714.314692,193.481466 714.103538,194.209267 714.103538,195.060345 C714.103538,196.037069 714.338154,196.826509 714.805038,197.426293 C715.274269,198.026078 715.891308,198.507328 716.656154,198.870043 C717.421,199.232759 718.277346,199.524353 719.232231,199.747198 C720.184769,199.967672 721.144346,200.188147 722.110962,200.408621 C723.298115,200.629095 724.414885,200.889871 725.461269,201.188578 C726.505308,201.489655 727.410923,201.899784 728.178115,202.421336 C728.940615,202.938147 729.543577,203.611422 729.982308,204.42931 C730.416346,205.25194 730.636885,206.295043 730.636885,207.55625 C730.636885,208.879095 730.338923,209.967241 729.745346,210.82069 C729.151769,211.671767 728.403346,212.356897 727.497731,212.878448 C726.592115,213.4 725.585615,213.762716 724.478231,213.966595 C723.3685,214.172845 722.282231,214.274784 721.221769,214.274784 C719.846923,214.274784 718.575308,214.094612 717.404577,213.729526 C716.233846,213.369181 715.210923,212.81681 714.338154,212.074784 C713.463038,211.332759 712.775615,210.427155 712.275885,209.353233 C711.776154,208.27931 711.511038,207.034698 711.480538,205.612284 L713.261269,205.612284" id="Fill-40" fill="#1A1918" sketch:type="MSShapeGroup"></path>
            <path d="M0.558384615,233.562716 L0.558384615,231.763362 L26.1783846,231.763362 L26.1783846,233.562716 L14.3748846,233.562716 L14.3748846,265.555172 L12.3149615,265.555172 L12.3149615,233.562716 L0.558384615,233.562716" id="Fill-41" fill="#1A1918" sketch:type="MSShapeGroup"></path>
            <path d="M25.4276154,246.622845 L25.5683846,246.622845 C25.7865769,245.835776 26.1854231,245.09375 26.7625769,244.399138 C27.3397308,243.706897 28.0435769,243.107112 28.8717692,242.602155 C29.6976154,242.097198 30.6196538,241.710776 31.6331923,241.442888 C32.6490769,241.172629 33.7025,241.056466 34.7958077,241.084914 L34.7958077,242.884267 C33.8596923,242.758621 32.7898462,242.853448 31.5862692,243.16875 C30.3850385,243.484052 29.2377692,244.178664 28.1444615,245.250216 C27.7080769,245.724353 27.3256538,246.181897 26.9971923,246.622845 C26.6710769,247.066164 26.3965769,247.554526 26.1783846,248.090302 C25.9578462,248.628448 25.7865769,249.225862 25.6622308,249.889655 C25.5378846,250.551078 25.4604615,251.342888 25.4276154,252.255603 L25.4276154,265.555172 L23.6492308,265.555172 L23.6492308,241.229526 L25.4276154,241.229526 L25.4276154,246.622845" id="Fill-42" fill="#1A1918" sketch:type="MSShapeGroup"></path>
            <path d="M51.7045385,260.726078 L51.6106923,260.726078 C51.3291538,261.453879 50.9232692,262.139009 50.3906923,262.786207 C49.8604615,263.433405 49.2129231,264.007112 48.4480769,264.512069 C47.6832308,265.017026 46.8175,265.412931 45.8485385,265.695043 C44.8795769,265.979526 43.8191154,266.121767 42.6648077,266.121767 C40.1028077,266.121767 38.1203077,265.559914 36.7149615,264.443319 C35.3119615,263.321983 34.6081154,261.596121 34.6081154,259.258621 C34.6081154,257.840948 34.8896538,256.67931 35.4503846,255.780819 C36.0134615,254.882328 36.722,254.173491 37.5830385,253.65194 C38.4417308,253.130388 39.3919231,252.76056 40.4383077,252.537716 C41.4846923,252.319612 42.4911923,252.160776 43.4601538,252.065948 L46.2239231,251.83125 C47.5049231,251.734052 48.5114231,251.584698 49.2457692,251.380819 C49.9777692,251.174569 50.5338077,250.890086 50.9068462,250.529741 C51.2822308,250.164655 51.5168462,249.7 51.6106923,249.133405 C51.7045385,248.56444 51.7514615,247.855603 51.7514615,247.002155 C51.7514615,246.338362 51.6247692,245.724353 51.3760769,245.155388 C51.1250385,244.588793 50.7355769,244.083836 50.2053462,243.640517 C49.6727692,243.20194 48.9876923,242.853448 48.1430769,242.602155 C47.3008077,242.350862 46.2708462,242.222845 45.0531923,242.222845 C42.8994231,242.222845 41.1562308,242.758621 39.8306538,243.832543 C38.5027308,244.904095 37.7777692,246.528017 37.6534231,248.706681 L35.8726923,248.706681 C35.9970385,246.02306 36.8486923,244.015086 38.4253077,242.670905 C40.0019231,241.331466 42.2425,240.66056 45.1470385,240.66056 C48.0492308,240.66056 50.1654615,241.236638 51.4933846,242.388793 C52.8189615,243.538578 53.4829231,245.046336 53.4829231,246.907328 L53.4829231,261.057974 C53.4829231,261.406466 53.4899615,261.752586 53.5063846,262.101078 C53.5228077,262.447198 53.5767692,262.7625 53.6706154,263.046983 C53.7644615,263.329095 53.9193077,263.559052 54.1398462,263.732112 C54.3556923,263.905172 54.6700769,263.990517 55.0759615,263.990517 C55.388,263.990517 55.8243846,263.945474 56.3874615,263.850647 L56.3874615,265.363147 C55.9205769,265.491164 55.4349231,265.555172 54.9351923,265.555172 C54.2172692,265.555172 53.6471538,265.460345 53.2248462,265.27069 C52.8048846,265.081034 52.4834615,264.829741 52.2652692,264.512069 C52.0470769,264.196767 51.8992692,263.82694 51.8195,263.400216 C51.7420769,262.975862 51.7045385,262.508836 51.7045385,262.003879 L51.7045385,260.726078 L51.7045385,260.726078 Z M51.7045385,251.734052 C51.2658077,252.272198 50.6018462,252.632543 49.7126538,252.824569 C48.8234615,253.014224 47.8310385,253.154095 46.7377308,253.248922 L43.7416923,253.533405 C42.8665769,253.628233 41.9914615,253.763362 41.1186923,253.934052 C40.2435769,254.107112 39.4552692,254.401078 38.7537692,254.811207 C38.0499231,255.221336 37.4821538,255.780819 37.0434231,256.489655 C36.6046923,257.200862 36.3888462,258.125431 36.3888462,259.258621 C36.3888462,261.057974 36.9495769,262.392672 38.0733846,263.260345 C39.1971923,264.128017 40.7433077,264.561853 42.7117308,264.561853 C44.7411538,264.561853 46.3482692,264.189655 47.5354231,263.447629 C48.7225769,262.705603 49.6258462,261.854526 50.2522692,260.892026 C50.8763462,259.929526 51.2728462,259.000216 51.4464615,258.099353 C51.6177308,257.200862 51.7045385,256.593966 51.7045385,256.278664 L51.7045385,251.734052 L51.7045385,251.734052 Z" id="Fill-43" fill="#1A1918" sketch:type="MSShapeGroup"></path>
            <path d="M59.1512308,241.229526 L60.9319615,241.229526 L60.9319615,246.43319 L61.0258077,246.43319 C61.3378462,245.518103 61.7812692,244.707328 62.3607692,243.998491 C62.9379231,243.287284 63.6089231,242.680388 64.3737692,242.175431 C65.1386154,241.670474 65.9738462,241.291164 66.8794615,241.039871 C67.7850769,240.786207 68.7071154,240.66056 69.6432308,240.66056 C71.0485769,240.66056 72.2427692,240.833621 73.2258077,241.179741 C74.2088462,241.528233 75.0135769,241.985776 75.6376538,242.552371 C76.2617308,243.121336 76.7544231,243.759052 77.1133846,244.470259 C77.4723462,245.181466 77.7304231,245.899784 77.8852692,246.622845 C78.0424615,247.350647 78.1363077,248.052371 78.1668077,248.730388 C78.1973077,249.408405 78.2137308,250.001078 78.2137308,250.503664 L78.2137308,265.555172 L76.4353462,265.555172 L76.4353462,250.171767 C76.4353462,249.574353 76.3884231,248.815733 76.2945769,247.900647 C76.1983846,246.987931 75.9262308,246.110776 75.4734231,245.276293 C75.0206154,244.43944 74.3331923,243.721121 73.4135,243.121336 C72.4914615,242.523922 71.2198462,242.222845 69.5963077,242.222845 C68.2214615,242.222845 67.0038077,242.474138 65.9433462,242.979095 C64.8805385,243.484052 63.9772692,244.185776 63.2265,245.086638 C62.4757308,245.985129 61.9079615,247.059052 61.5161538,248.303664 C61.1266923,249.550647 60.9319615,250.916164 60.9319615,252.397845 L60.9319615,265.555172 L59.1512308,265.555172 L59.1512308,241.229526" id="Fill-44" fill="#1A1918" sketch:type="MSShapeGroup"></path>
            <path d="M83.3658846,257.461638 C83.4292308,258.597198 83.6779231,259.6 84.1143077,260.465302 C84.5530385,261.332974 85.1231538,262.075 85.8246538,262.691379 C86.5261538,263.305388 87.3473077,263.772414 88.2834231,264.087716 C89.2195385,264.403017 90.2330769,264.561853 91.3287308,264.561853 C92.1076538,264.561853 92.9428846,264.488362 93.8344231,264.348491 C94.7236154,264.203879 95.5518077,263.945474 96.3166538,263.566164 C97.0815,263.189224 97.7126154,262.66056 98.2123462,261.982543 C98.7120769,261.304526 98.9631154,260.441595 98.9631154,259.403233 C98.9631154,258.047198 98.5548846,257.02069 97.7454615,256.326078 C96.9313462,255.631466 95.9084231,255.093319 94.6766923,254.716379 C93.4426154,254.337069 92.1170385,254.028879 90.6952692,253.794181 C89.2735,253.557112 87.9479231,253.203879 86.7138462,252.727371 C85.4821154,252.255603 84.4568462,251.584698 83.6474231,250.717026 C82.8356538,249.851724 82.4297692,248.578664 82.4297692,246.907328 C82.4297692,245.710129 82.6948846,244.707328 83.2251154,243.903664 C83.7553462,243.097629 84.4357308,242.457543 85.2615769,241.985776 C86.0897692,241.511638 87.0188462,241.172629 88.0488077,240.96875 C89.0787692,240.764871 90.1110769,240.66056 91.1410385,240.66056 C92.3891923,240.66056 93.5599231,240.802802 94.6532308,241.084914 C95.7465385,241.369397 96.6896923,241.82931 97.4873846,242.457543 C98.2827308,243.090517 98.9068077,243.894181 99.3596154,244.873276 C99.8124231,245.85 100.04,247.032974 100.04,248.422198 L98.2592692,248.422198 C98.2592692,247.317457 98.0809615,246.371552 97.722,245.582112 C97.3606923,244.795043 96.8633077,244.154957 96.2228077,243.664224 C95.5823077,243.175862 94.8245,242.815517 93.9493846,242.576078 C93.0766154,242.341379 92.1381538,242.222845 91.1410385,242.222845 C90.3269231,242.222845 89.5081154,242.301078 88.6822692,242.457543 C87.8540769,242.61875 87.1126923,242.884267 86.4581154,243.263578 C85.8011923,243.640517 85.2615769,244.133621 84.8416154,244.728664 C84.4193077,245.328448 84.2081538,246.05625 84.2081538,246.907328 C84.2081538,247.884052 84.4427692,248.675862 84.912,249.273276 C85.3788846,249.87306 85.9959231,250.356681 86.7607692,250.717026 C87.5256154,251.079741 88.3843077,251.371336 89.3368462,251.594181 C90.2893846,251.814655 91.2489615,252.0375 92.2179231,252.255603 C93.4027308,252.476078 94.5195,252.736853 95.5658846,253.03556 C96.6122692,253.336638 97.5178846,253.746767 98.2827308,254.268319 C99.0475769,254.7875 99.6481923,255.458405 100.086923,256.278664 C100.523308,257.098922 100.7415,258.142026 100.7415,259.403233 C100.7415,260.726078 100.443538,261.816595 99.8523077,262.667672 C99.2587308,263.51875 98.5103077,264.203879 97.6046923,264.725431 C96.6967308,265.246983 95.6902308,265.609698 94.5828462,265.813578 C93.4731154,266.019828 92.3891923,266.121767 91.3287308,266.121767 C89.9538846,266.121767 88.6822692,265.941595 87.5115385,265.576509 C86.3408077,265.216164 85.3178846,264.663793 84.4427692,263.921767 C83.5676538,263.182112 82.8825769,262.274138 82.3828462,261.200216 C81.8831154,260.128664 81.618,258.881681 81.5851538,257.461638 L83.3658846,257.461638" id="Fill-45" fill="#1A1918" sketch:type="MSShapeGroup"></path>
            <path d="M106.266692,246.8125 L106.407462,246.8125 C106.595154,246.212716 106.907192,245.551293 107.345923,244.825862 C107.782308,244.100431 108.359462,243.429526 109.077385,242.815517 C109.795308,242.199138 110.661038,241.684698 111.676923,241.274569 C112.692808,240.86444 113.854154,240.66056 115.165654,240.66056 C117.009731,240.66056 118.609808,241.009052 119.968231,241.701293 C121.326654,242.395905 122.450462,243.327586 123.339654,244.493966 C124.228846,245.662716 124.892808,247.01875 125.329192,248.56444 C125.767923,250.110129 125.986115,251.734052 125.986115,253.438578 C125.986115,255.299569 125.765577,257.004095 125.329192,258.552155 C124.890462,260.095474 124.2265,261.427802 123.332615,262.549138 C122.441077,263.670474 121.312577,264.545259 119.951808,265.173491 C118.591038,265.806466 116.988615,266.121767 115.142192,266.121767 C113.138577,266.121767 111.353154,265.678448 109.788269,264.796552 C108.223385,263.914655 107.083154,262.478017 106.360538,260.491379 L106.269038,260.491379 L106.266692,274.262716 L104.535231,274.262716 L104.535231,241.229526 L106.266692,241.229526 L106.266692,246.8125 L106.266692,246.8125 Z M115.144538,264.561853 C116.709423,264.561853 118.060808,264.260776 119.205731,263.660991 C120.345962,263.063578 121.286769,262.257543 122.023462,261.247629 C122.757808,260.237716 123.306808,259.061853 123.665769,257.722414 C124.027077,256.382974 124.205385,254.953448 124.205385,253.438578 C124.205385,252.049353 124.034115,250.686207 123.689231,249.346767 C123.344346,248.002586 122.814115,246.805388 122.093846,245.74806 C121.371231,244.690733 120.442154,243.839655 119.299577,243.192457 C118.154654,242.545259 116.770423,242.222845 115.144538,242.222845 C113.546808,242.222845 112.183692,242.538147 111.057538,243.16875 C109.931385,243.801724 109.014038,244.636207 108.310192,245.67694 C107.606346,246.717672 107.097231,247.910129 106.785192,249.25194 C106.470808,250.591379 106.313615,251.987716 106.313615,253.438578 C106.313615,254.89181 106.454385,256.285776 106.738269,257.627586 C107.019808,258.967026 107.496077,260.15 108.169423,261.176509 C108.842769,262.200647 109.750731,263.020905 110.893308,263.637284 C112.035885,264.253664 113.452962,264.561853 115.144538,264.561853 L115.144538,264.561853 Z" id="Fill-46" fill="#1A1918" sketch:type="MSShapeGroup"></path>
            <path d="M146.1255,260.726078 L146.031654,260.726078 C145.750115,261.453879 145.344231,262.139009 144.814,262.786207 C144.283769,263.433405 143.636231,264.007112 142.871385,264.512069 C142.104192,265.017026 141.238462,265.412931 140.271846,265.695043 C139.302885,265.979526 138.240077,266.121767 137.085769,266.121767 C134.526115,266.121767 132.543615,265.559914 131.138269,264.443319 C129.732923,263.321983 129.031423,261.596121 129.031423,259.258621 C129.031423,257.840948 129.312962,256.67931 129.873692,255.780819 C130.436769,254.882328 131.145308,254.173491 132.004,253.65194 C132.862692,253.130388 133.815231,252.76056 134.861615,252.537716 C135.908,252.319612 136.9145,252.160776 137.881115,252.065948 L140.647231,251.83125 C141.925885,251.734052 142.932385,251.584698 143.666731,251.380819 C144.401077,251.174569 144.954769,250.890086 145.330154,250.529741 C145.703192,250.164655 145.940154,249.7 146.031654,249.133405 C146.1255,248.56444 146.172423,247.855603 146.172423,247.002155 C146.172423,246.338362 146.048077,245.724353 145.799385,245.155388 C145.548346,244.588793 145.158885,244.083836 144.626308,243.640517 C144.096077,243.20194 143.408654,242.853448 142.566385,242.602155 C141.724115,242.350862 140.694154,242.222845 139.4765,242.222845 C137.320385,242.222845 135.579538,242.758621 134.253962,243.832543 C132.926038,244.904095 132.198731,246.528017 132.074385,248.706681 L130.296,248.706681 C130.420346,246.02306 131.272,244.015086 132.846269,242.670905 C134.422885,241.331466 136.663462,240.66056 139.568,240.66056 C142.472538,240.66056 144.586423,241.236638 145.914346,242.388793 C147.242269,243.538578 147.906231,245.046336 147.906231,246.907328 L147.906231,261.057974 C147.906231,261.406466 147.913269,261.752586 147.929692,262.101078 C147.946115,262.447198 147.997731,262.7625 148.093923,263.046983 C148.187769,263.329095 148.342615,263.559052 148.560808,263.732112 C148.779,263.905172 149.091038,263.990517 149.499269,263.990517 C149.808962,263.990517 150.247692,263.945474 150.810769,263.850647 L150.810769,265.363147 C150.341538,265.491164 149.855885,265.555172 149.3585,265.555172 C148.638231,265.555172 148.070462,265.460345 147.648154,265.27069 C147.225846,265.081034 146.906769,264.829741 146.688577,264.512069 C146.470385,264.196767 146.320231,263.82694 146.242808,263.400216 C146.165385,262.975862 146.1255,262.508836 146.1255,262.003879 L146.1255,260.726078 L146.1255,260.726078 Z M146.1255,251.734052 C145.689115,252.272198 145.025154,252.632543 144.135962,252.824569 C143.246769,253.014224 142.254346,253.154095 141.161038,253.248922 L138.165,253.533405 C137.289885,253.628233 136.414769,253.763362 135.539654,253.934052 C134.666885,254.107112 133.878577,254.401078 133.177077,254.811207 C132.473231,255.221336 131.903115,255.780819 131.466731,256.489655 C131.028,257.200862 130.809808,258.125431 130.809808,259.258621 C130.809808,261.057974 131.372885,262.392672 132.496692,263.260345 C133.6205,264.128017 135.166615,264.561853 137.132692,264.561853 C139.162115,264.561853 140.769231,264.189655 141.956385,263.447629 C143.143538,262.705603 144.049154,261.854526 144.675577,260.892026 C145.299654,259.929526 145.696154,259.000216 145.867423,258.099353 C146.041038,257.200862 146.1255,256.593966 146.1255,256.278664 L146.1255,251.734052 L146.1255,251.734052 Z" id="Fill-47" fill="#1A1918" sketch:type="MSShapeGroup"></path>
            <path d="M155.352923,246.622845 L155.493692,246.622845 C155.711885,245.835776 156.110731,245.09375 156.687885,244.399138 C157.265038,243.706897 157.968885,243.107112 158.794731,242.602155 C159.622923,242.097198 160.542615,241.710776 161.5585,241.442888 C162.572038,241.172629 163.627808,241.056466 164.718769,241.084914 L164.718769,242.884267 C163.782654,242.758621 162.712808,242.853448 161.511577,243.16875 C160.310346,243.484052 159.160731,244.178664 158.067423,245.250216 C157.631038,245.724353 157.248615,246.181897 156.9225,246.622845 C156.594038,247.066164 156.319538,247.554526 156.101346,248.090302 C155.883154,248.628448 155.711885,249.225862 155.587538,249.889655 C155.460846,250.551078 155.383423,251.342888 155.352923,252.255603 L155.352923,265.555172 L153.572192,265.555172 L153.572192,241.229526 L155.352923,241.229526 L155.352923,246.622845" id="Fill-48" fill="#1A1918" sketch:type="MSShapeGroup"></path>
            <path d="M166.687192,253.628233 L166.687192,253.912716 C166.687192,255.330388 166.874885,256.688793 167.252615,257.980819 C167.628,259.275216 168.181692,260.413147 168.918385,261.389871 C169.652731,262.368966 170.577115,263.13944 171.689192,263.708405 C172.798923,264.277371 174.091654,264.561853 175.565038,264.561853 C177.974538,264.561853 179.884308,263.921767 181.292,262.643966 C182.702038,261.366164 183.673346,259.590517 184.205923,257.319397 L185.984308,257.319397 C185.454077,260.159483 184.306808,262.335776 182.5425,263.850647 C180.778192,265.363147 178.443769,266.121767 175.539231,266.121767 C173.7585,266.121767 172.205346,265.796983 170.879769,265.152155 C169.551846,264.504957 168.444462,263.62069 167.552923,262.501724 C166.663731,261.382759 165.999769,260.057543 165.563385,258.526078 C165.127,256.994612 164.908808,255.349353 164.908808,253.580819 C164.908808,251.876293 165.134038,250.245259 165.586846,248.680603 C166.039654,247.12069 166.717692,245.74806 167.625654,244.565086 C168.528923,243.382112 169.662115,242.436207 171.020538,241.725 C172.378962,241.016164 173.979038,240.66056 175.820769,240.66056 C177.507654,240.66056 178.997462,240.975862 180.294885,241.606466 C181.589962,242.23944 182.673885,243.097629 183.549,244.185776 C184.421769,245.276293 185.085731,246.5375 185.538538,247.974138 C185.991346,249.408405 186.218923,250.944612 186.218923,252.5875 C186.218923,252.743966 186.211885,252.926509 186.195462,253.130388 C186.179038,253.336638 186.172,253.502586 186.172,253.628233 L166.687192,253.628233 L166.687192,253.628233 Z M184.391269,252.065948 C184.327923,250.743103 184.109731,249.486638 183.734346,248.303664 C183.358962,247.12069 182.802923,246.079957 182.066231,245.181466 C181.331885,244.280603 180.440346,243.562284 179.391615,243.028879 C178.340538,242.490733 177.144,242.222845 175.799654,242.222845 C174.356769,242.222845 173.089846,242.497845 171.994192,243.050216 C170.898538,243.602586 169.974154,244.328017 169.223385,245.226509 C168.472615,246.125 167.893115,247.177586 167.487231,248.372414 C167.079,249.574353 166.827962,250.804741 166.734115,252.065948 L184.391269,252.065948 L184.391269,252.065948 Z" id="Fill-49" fill="#1A1918" sketch:type="MSShapeGroup"></path>
            <path d="M190.338769,241.229526 L192.1195,241.229526 L192.1195,246.43319 L192.213346,246.43319 C192.525385,245.518103 192.968808,244.707328 193.548308,243.998491 C194.125462,243.287284 194.796462,242.680388 195.561308,242.175431 C196.326154,241.670474 197.161385,241.291164 198.067,241.039871 C198.972615,240.786207 199.894654,240.66056 200.830769,240.66056 C202.236115,240.66056 203.430308,240.833621 204.413346,241.179741 C205.396385,241.528233 206.201115,241.985776 206.825192,242.552371 C207.449269,243.121336 207.941962,243.759052 208.300923,244.470259 C208.659885,245.181466 208.917962,245.899784 209.072808,246.622845 C209.23,247.350647 209.323846,248.052371 209.354346,248.730388 C209.384846,249.408405 209.401269,250.001078 209.401269,250.503664 L209.401269,265.555172 L207.622885,265.555172 L207.622885,250.171767 C207.622885,249.574353 207.575962,248.815733 207.482115,247.900647 C207.385923,246.987931 207.113769,246.110776 206.660962,245.276293 C206.208154,244.43944 205.520731,243.721121 204.601038,243.121336 C203.679,242.523922 202.407385,242.222845 200.783846,242.222845 C199.409,242.222845 198.191346,242.474138 197.130885,242.979095 C196.068077,243.484052 195.164808,244.185776 194.414038,245.086638 C193.663269,245.985129 193.0955,247.059052 192.703692,248.303664 C192.314231,249.550647 192.1195,250.916164 192.1195,252.397845 L192.1195,265.555172 L190.338769,265.555172 L190.338769,241.229526" id="Fill-50" fill="#1A1918" sketch:type="MSShapeGroup"></path>
            <path d="M231.837538,248.754095 C231.743692,247.682543 231.469192,246.734267 231.016385,245.911638 C230.563577,245.09375 229.979385,244.415733 229.261462,243.877586 C228.543538,243.344181 227.708308,242.934052 226.755769,242.647198 C225.803231,242.362716 224.780308,242.222845 223.687,242.222845 C222.190154,242.222845 220.862231,242.531034 219.705577,243.147414 C218.551269,243.759052 217.582308,244.581681 216.803385,245.60819 C216.022115,246.632328 215.428538,247.798707 215.022654,249.107328 C214.616769,250.418319 214.415,251.767241 214.415,253.154095 C214.415,254.796983 214.600346,256.309483 214.975731,257.698707 C215.351115,259.08556 215.928269,260.294612 216.709538,261.316379 C217.488462,262.342888 218.457423,263.13944 219.611731,263.708405 C220.768385,264.277371 222.126808,264.561853 223.687,264.561853 C224.810808,264.561853 225.850154,264.372198 226.802692,263.990517 C227.755231,263.613578 228.5975,263.094397 229.331846,262.430603 C230.063846,261.769181 230.666808,260.972629 231.136038,260.038578 C231.602923,259.111638 231.914962,258.092241 232.069808,256.9875 L233.850538,256.9875 C233.662846,258.440733 233.273385,259.732759 232.679808,260.868319 C232.086231,262.003879 231.335462,262.959267 230.432192,263.732112 C229.526577,264.504957 228.496615,265.097629 227.339962,265.507759 C226.185654,265.917888 224.968,266.121767 223.687,266.121767 C221.720923,266.121767 220.041077,265.768534 218.652154,265.057328 C217.263231,264.348491 216.123,263.393103 215.233808,262.195905 C214.342269,260.996336 213.687692,259.616595 213.265385,258.05431 C212.845423,256.489655 212.634269,254.858621 212.634269,253.154095 C212.634269,251.449569 212.875923,249.842241 213.359231,248.327371 C213.842538,246.8125 214.553423,245.489655 215.491885,244.351724 C216.428,243.216164 217.582308,242.317672 218.957154,241.65625 C220.332,240.990086 221.906269,240.66056 223.687,240.66056 C224.9985,240.66056 226.223192,240.826509 227.363423,241.158405 C228.503654,241.487931 229.519538,241.985776 230.408731,242.647198 C231.297923,243.310991 232.022885,244.154957 232.585962,245.181466 C233.149038,246.205603 233.491577,247.39569 233.615923,248.754095 L231.837538,248.754095" id="Fill-51" fill="#1A1918" sketch:type="MSShapeGroup"></path>
            <path d="M235.115115,241.229526 L237.221962,241.229526 L246.167846,263.423922 L254.412231,241.229526 L256.425231,241.229526 L246.123269,268.155819 C245.621192,269.355388 245.161346,270.389009 244.739038,271.256681 C244.319077,272.124353 243.842808,272.76444 243.310231,273.172198 C242.686154,273.677155 241.944769,273.985345 241.086077,274.096767 C240.227385,274.205819 239.096538,274.262716 237.691192,274.262716 L237.691192,272.700431 C238.972192,272.700431 239.971654,272.596121 240.689577,272.392241 C241.4075,272.188362 242.0785,271.771121 242.702577,271.138147 C243.047462,270.792026 243.406423,270.15194 243.779462,269.220259 C244.154846,268.290948 244.624077,267.022629 245.184808,265.412931 L235.115115,241.229526" id="Fill-52" fill="#1A1918" sketch:type="MSShapeGroup"></path>
            <path d="M272.163231,231.763362 L274.223154,231.763362 L274.223154,265.555172 L272.163231,265.555172 L272.163231,231.763362 Z" id="Fill-53" fill="#1A1918" sketch:type="MSShapeGroup"></path>
            <path d="M278.859154,241.229526 L280.639885,241.229526 L280.639885,246.43319 L280.733731,246.43319 C281.045769,245.518103 281.489192,244.707328 282.068692,243.998491 C282.645846,243.287284 283.316846,242.680388 284.081692,242.175431 C284.846538,241.670474 285.681769,241.291164 286.587385,241.039871 C287.493,240.786207 288.415038,240.66056 289.351154,240.66056 C290.7565,240.66056 291.950692,240.833621 292.933731,241.179741 C293.916769,241.528233 294.7215,241.985776 295.345577,242.552371 C295.969654,243.121336 296.462346,243.759052 296.821308,244.470259 C297.180269,245.181466 297.438346,245.899784 297.593192,246.622845 C297.750385,247.350647 297.844231,248.052371 297.874731,248.730388 C297.905231,249.408405 297.921654,250.001078 297.921654,250.503664 L297.921654,265.555172 L296.143269,265.555172 L296.143269,250.171767 C296.143269,249.574353 296.096346,248.815733 296.0025,247.900647 C295.908654,246.987931 295.634154,246.110776 295.181346,245.276293 C294.728538,244.43944 294.041115,243.721121 293.121423,243.121336 C292.199385,242.523922 290.927769,242.222845 289.304231,242.222845 C287.929385,242.222845 286.711731,242.474138 285.651269,242.979095 C284.588462,243.484052 283.685192,244.185776 282.934423,245.086638 C282.183654,245.985129 281.615885,247.059052 281.224077,248.303664 C280.834615,249.550647 280.639885,250.916164 280.639885,252.397845 L280.639885,265.555172 L278.859154,265.555172 L278.859154,241.229526" id="Fill-54" fill="#1A1918" sketch:type="MSShapeGroup"></path>
            <path d="M302.6515,231.763362 L304.432231,231.763362 L304.432231,236.639871 L302.6515,236.639871 L302.6515,231.763362 Z M302.6515,241.229526 L304.432231,241.229526 L304.432231,265.555172 L302.6515,265.555172 L302.6515,241.229526 Z" id="Fill-55" fill="#1A1918" sketch:type="MSShapeGroup"></path>
            <path d="M318.952577,242.78944 L313.706577,242.78944 L313.706577,259.780172 C313.706577,260.759267 313.8145,261.529741 314.035038,262.101078 C314.250885,262.667672 314.586385,263.101509 315.041538,263.400216 C315.494346,263.701293 316.041,263.881466 316.679154,263.945474 C317.319654,264.007112 318.061038,264.023707 318.905654,263.990517 L318.905654,265.555172 C317.997692,265.61681 317.117885,265.609698 316.259192,265.531466 C315.4005,265.453233 314.642692,265.216164 313.988115,264.820259 C313.331192,264.426724 312.808,263.834052 312.418538,263.046983 C312.026731,262.257543 311.8625,261.169397 311.925846,259.780172 L311.925846,242.78944 L307.477538,242.78944 L307.477538,241.229526 L311.925846,241.229526 L311.925846,233.655172 L313.706577,233.655172 L313.706577,241.229526 L318.952577,241.229526 L318.952577,242.78944" id="Fill-56" fill="#1A1918" sketch:type="MSShapeGroup"></path>
            <path d="M322.650115,231.763362 L324.430846,231.763362 L324.430846,236.639871 L322.650115,236.639871 L322.650115,231.763362 Z M322.650115,241.229526 L324.430846,241.229526 L324.430846,265.555172 L322.650115,265.555172 L322.650115,241.229526 Z" id="Fill-57" fill="#1A1918" sketch:type="MSShapeGroup"></path>
            <path d="M345.130962,260.726078 L345.037115,260.726078 C344.757923,261.453879 344.349692,262.139009 343.819462,262.786207 C343.289231,263.433405 342.641692,264.007112 341.876846,264.512069 C341.112,265.017026 340.243923,265.412931 339.277308,265.695043 C338.308346,265.979526 337.247885,266.121767 336.091231,266.121767 C333.531577,266.121767 331.549077,265.559914 330.143731,264.443319 C328.740731,263.321983 328.036885,261.596121 328.036885,259.258621 C328.036885,257.840948 328.318423,256.67931 328.879154,255.780819 C329.442231,254.882328 330.150769,254.173491 331.009462,253.65194 C331.8705,253.130388 332.820692,252.76056 333.867077,252.537716 C334.913462,252.319612 335.919962,252.160776 336.888923,252.065948 L339.652692,251.83125 C340.931346,251.734052 341.940192,251.584698 342.674538,251.380819 C343.406538,251.174569 343.960231,250.890086 344.335615,250.529741 C344.711,250.164655 344.945615,249.7 345.037115,249.133405 C345.130962,248.56444 345.177885,247.855603 345.177885,247.002155 C345.177885,246.338362 345.053538,245.724353 344.804846,245.155388 C344.553808,244.588793 344.164346,244.083836 343.634115,243.640517 C343.101538,243.20194 342.416462,242.853448 341.571846,242.602155 C340.729577,242.350862 339.699615,242.222845 338.481962,242.222845 C336.328192,242.222845 334.585,242.758621 333.259423,243.832543 C331.9315,244.904095 331.204192,246.528017 331.082192,248.706681 L329.301462,248.706681 C329.425808,246.02306 330.277462,244.015086 331.854077,242.670905 C333.430692,241.331466 335.671269,240.66056 338.573462,240.66056 C341.478,240.66056 343.594231,241.236638 344.922154,242.388793 C346.247731,243.538578 346.911692,245.046336 346.911692,246.907328 L346.911692,261.057974 C346.911692,261.406466 346.918731,261.752586 346.935154,262.101078 C346.951577,262.447198 347.005538,262.7625 347.099385,263.046983 C347.193231,263.329095 347.348077,263.559052 347.568615,263.732112 C347.784462,263.905172 348.098846,263.990517 348.504731,263.990517 C348.816769,263.990517 349.253154,263.945474 349.816231,263.850647 L349.816231,265.363147 C349.347,265.491164 348.863692,265.555172 348.363962,265.555172 C347.646038,265.555172 347.075923,265.460345 346.653615,265.27069 C346.233654,265.081034 345.912231,264.829741 345.694038,264.512069 C345.475846,264.196767 345.325692,263.82694 345.248269,263.400216 C345.170846,262.975862 345.130962,262.508836 345.130962,262.003879 L345.130962,260.726078 L345.130962,260.726078 Z M345.130962,251.734052 C344.694577,252.272198 344.030615,252.632543 343.141423,252.824569 C342.252231,253.014224 341.259808,253.154095 340.1665,253.248922 L337.170462,253.533405 C336.295346,253.628233 335.420231,253.763362 334.547462,253.934052 C333.672346,254.107112 332.884038,254.401078 332.182538,254.811207 C331.478692,255.221336 330.908577,255.780819 330.472192,256.489655 C330.033462,257.200862 329.817615,258.125431 329.817615,259.258621 C329.817615,261.057974 330.378346,262.392672 331.502154,263.260345 C332.625962,264.128017 334.172077,264.561853 336.138154,264.561853 C338.169923,264.561853 339.777038,264.189655 340.964192,263.447629 C342.149,262.705603 343.054615,261.854526 343.681038,260.892026 C344.305115,259.929526 344.701615,259.000216 344.875231,258.099353 C345.0465,257.200862 345.130962,256.593966 345.130962,256.278664 L345.130962,251.734052 L345.130962,251.734052 Z" id="Fill-58" fill="#1A1918" sketch:type="MSShapeGroup"></path>
            <path d="M360.495923,242.78944 L355.249923,242.78944 L355.249923,259.780172 C355.249923,260.759267 355.357846,261.529741 355.578385,262.101078 C355.794231,262.667672 356.129731,263.101509 356.584885,263.400216 C357.037692,263.701293 357.584346,263.881466 358.2225,263.945474 C358.863,264.007112 359.604385,264.023707 360.449,263.990517 L360.449,265.555172 C359.543385,265.61681 358.661231,265.609698 357.802538,265.531466 C356.943846,265.453233 356.186038,265.216164 355.531462,264.820259 C354.874538,264.426724 354.351346,263.834052 353.961885,263.046983 C353.570077,262.257543 353.405846,261.169397 353.469192,259.780172 L353.469192,242.78944 L349.020885,242.78944 L349.020885,241.229526 L353.469192,241.229526 L353.469192,233.655172 L355.249923,233.655172 L355.249923,241.229526 L360.495923,241.229526 L360.495923,242.78944" id="Fill-59" fill="#1A1918" sketch:type="MSShapeGroup"></path>
            <path d="M364.193462,231.763362 L365.974192,231.763362 L365.974192,236.639871 L364.193462,236.639871 L364.193462,231.763362 Z M364.193462,241.229526 L365.974192,241.229526 L365.974192,265.555172 L364.193462,265.555172 L364.193462,241.229526 Z" id="Fill-60" fill="#1A1918" sketch:type="MSShapeGroup"></path>
            <path d="M380.820654,265.555172 L378.619962,265.555172 L368.925654,241.229526 L370.985577,241.229526 L379.696846,263.473707 L379.790692,263.473707 L387.941231,241.229526 L389.907308,241.229526 L380.820654,265.555172" id="Fill-61" fill="#1A1918" sketch:type="MSShapeGroup"></path>
            <path d="M392.154923,253.628233 L392.154923,253.912716 C392.154923,255.330388 392.342615,256.688793 392.720346,257.980819 C393.095731,259.275216 393.649423,260.413147 394.388462,261.389871 C395.120462,262.368966 396.047192,263.13944 397.154577,263.708405 C398.269,264.277371 399.557038,264.561853 401.032769,264.561853 C403.442269,264.561853 405.352038,263.921767 406.759731,262.643966 C408.167423,261.366164 409.138731,259.590517 409.668962,257.319397 L411.452038,257.319397 C410.919462,260.159483 409.769846,262.335776 408.010231,263.850647 C406.245923,265.363147 403.909154,266.121767 401.009308,266.121767 C399.226231,266.121767 397.673077,265.796983 396.3475,265.152155 C395.019577,264.504957 393.909846,263.62069 393.023,262.501724 C392.131462,261.382759 391.4675,260.057543 391.031115,258.526078 C390.592385,256.994612 390.374192,255.349353 390.374192,253.580819 C390.374192,251.876293 390.601769,250.245259 391.054577,248.680603 C391.507385,247.12069 392.185423,245.74806 393.091038,244.565086 C393.999,243.382112 395.129846,242.436207 396.485923,241.725 C397.846692,241.016164 399.446769,240.66056 401.2885,240.66056 C402.975385,240.66056 404.465192,240.975862 405.760269,241.606466 C407.057692,242.23944 408.139269,243.097629 409.014385,244.185776 C409.8895,245.276293 410.553462,246.5375 411.008615,247.974138 C411.456731,249.408405 411.686654,250.944612 411.686654,252.5875 C411.686654,252.743966 411.677269,252.926509 411.663192,253.130388 C411.644423,253.336638 411.639731,253.502586 411.639731,253.628233 L392.154923,253.628233 L392.154923,253.628233 Z M409.856654,252.065948 C409.798,250.743103 409.577462,249.486638 409.202077,248.303664 C408.826692,247.12069 408.273,246.079957 407.533962,245.181466 C406.797269,244.280603 405.908077,243.562284 404.857,243.028879 C403.808269,242.490733 402.611731,242.222845 401.265038,242.222845 C399.826846,242.222845 398.557577,242.497845 397.461923,243.050216 C396.366269,243.602586 395.441885,244.328017 394.688769,245.226509 C393.938,246.125 393.360846,247.177586 392.952615,248.372414 C392.546731,249.574353 392.295692,250.804741 392.201846,252.065948 L409.856654,252.065948 L409.856654,252.065948 Z" id="Fill-62" fill="#1A1918" sketch:type="MSShapeGroup"></path>
            <path d="M11.8551154,4.88362069 L11.8551154,91.9827586 C11.8551154,94.8299569 11.9865,98.1560345 12.2586538,101.953879 C12.5261154,105.751724 13.1947692,109.653879 14.2716538,113.653233 C15.3438462,117.657328 16.8547692,121.590302 18.8044231,125.456897 C20.7470385,129.323491 23.4005385,132.784698 26.7578846,135.835776 C30.1128846,138.889224 34.2421154,141.328664 39.1432308,143.161207 C44.042,144.99375 49.9848077,145.908836 56.9669615,145.908836 C65.8283846,145.908836 73.2445769,144.654741 79.2225769,142.144181 C85.1935385,139.633621 90.0266154,136.039655 93.7218077,131.357543 C97.4123077,126.677802 100.065808,121.014224 101.675269,114.36681 C103.287077,107.721767 104.094154,100.258836 104.094154,91.9827586 L104.094154,4.88362069 L112.953231,4.88362069 L112.953231,91.9827586 C112.953231,100.664224 112.047615,108.738793 110.236385,116.199353 C108.422808,123.659914 105.368115,130.172198 101.072308,135.733836 C96.7741538,141.300216 91.0331154,145.671767 83.8538846,148.860345 C76.6699615,152.046552 67.7076538,153.642026 56.9669615,153.642026 C48.5090769,153.642026 41.2571154,152.55625 35.2157692,150.384698 C29.1744231,148.217888 24.1724231,145.399138 20.2121154,141.940302 C16.2518077,138.481466 13.1290769,134.512931 10.8486154,130.037069 C8.56346154,125.558836 6.82026923,121.049784 5.612,116.505172 C4.40373077,111.95819 3.66234615,107.548707 3.39723077,103.276724 C3.12507692,99.0023707 2.99369231,95.2377155 2.99369231,91.9827586 L2.99369231,4.88362069 L11.8551154,4.88362069" id="Fill-63" fill="#0089BD" sketch:type="MSShapeGroup"></path>
            <path d="M228.151731,46.3967672 C227.879577,40.1594828 226.570423,34.7306034 224.224269,30.1172414 C221.873423,25.50625 218.685,21.6396552 214.656654,18.5198276 C210.628308,15.4 205.828077,13.0577586 200.258308,11.4978448 C194.683846,9.93793103 188.609654,9.15797414 182.031038,9.15797414 C178.005038,9.15797414 173.674038,9.63448276 169.042731,10.5803879 C164.409077,11.5334052 160.110923,13.1952586 156.152962,15.5659483 C152.190308,17.9413793 148.933846,21.1323276 146.385923,25.131681 C143.833308,29.1334052 142.559346,34.1213362 142.559346,40.0883621 C142.559346,45.925 143.969385,50.6711207 146.787115,54.3338362 C149.607192,57.9965517 153.297692,60.9480603 157.865654,63.1859914 C162.426577,65.4239224 167.663192,67.2232759 173.573154,68.5793103 C179.478423,69.9377155 185.456423,71.225 191.497769,72.4459052 C197.6705,73.6668103 203.681346,75.1247845 209.523269,76.8198276 C215.362846,78.5196121 220.599462,80.8239224 225.230769,83.7398707 C229.862077,86.6605603 233.587769,90.4536638 236.407846,95.1357759 C239.227923,99.8155172 240.637962,105.685345 240.637962,112.738147 C240.637962,120.338578 239.026154,126.713362 235.802538,131.867241 C232.581269,137.025862 228.517731,141.226724 223.618962,144.484052 C218.717846,147.739009 213.279462,150.08125 207.306154,151.503664 C201.3305,152.930819 195.591808,153.642026 190.087731,153.642026 C181.6275,153.642026 173.706885,152.72694 166.323538,150.894397 C158.937846,149.064224 152.492962,146.079526 146.988885,141.940302 C141.482462,137.803448 137.151462,132.478879 134.000577,125.966595 C130.842654,119.45431 129.331731,111.517241 129.467808,102.157759 L138.329231,102.157759 C137.928038,110.163578 139.065923,116.90819 141.752269,122.405819 C144.436269,127.898707 148.161962,132.410129 152.931692,135.937716 C157.694385,139.467672 163.301692,142.009052 169.746577,143.568966 C176.191462,145.13125 182.9695,145.908836 190.087731,145.908836 C194.383538,145.908836 198.979654,145.368319 203.883115,144.280172 C208.781885,143.196767 213.279462,141.364224 217.375846,138.787284 C221.469885,136.210345 224.892923,132.817888 227.647308,128.612284 C230.397,124.409052 231.776538,119.117672 231.776538,112.738147 C231.776538,106.633621 230.3665,101.64806 227.546423,97.7814655 C224.726346,93.9148707 221.000654,90.7950431 216.369346,88.4196121 C211.735692,86.0489224 206.501423,84.1452586 200.6595,82.7228448 C194.819923,81.2980603 188.811423,79.9752155 182.636346,78.7543103 C176.592654,77.5334052 170.619346,76.1086207 164.711731,74.4799569 C158.801769,72.8536638 153.5675,70.6489224 149.004231,67.8657328 C144.436269,65.0872845 140.745769,61.493319 137.928038,57.0814655 C135.107962,52.6743534 133.697923,47.0084052 133.697923,40.0883621 C133.697923,33.1706897 135.138462,27.2368534 138.026577,22.2821121 C140.912346,17.3321121 144.673231,13.3280172 149.304538,10.2769397 C153.938192,7.22349138 159.139615,4.98556034 164.9135,3.56077586 C170.685038,2.13599138 176.393231,1.42478448 182.031038,1.42478448 C189.548115,1.42478448 196.563115,2.27349138 203.078385,3.96853448 C209.586615,5.66594828 215.292462,8.31163793 220.195923,11.9056034 C225.094692,15.5019397 229.022154,20.1461207 231.975962,25.8428879 C234.929769,31.5420259 236.609615,38.393319 237.010808,46.3967672 L228.151731,46.3967672" id="Fill-64" fill="#0089BD" sketch:type="MSShapeGroup"></path>
        </g>
    </g>
</svg>