<?xml version="1.0" encoding="utf-8"?>
<svg version="1.1" id="Layer_1" xmlns="http://www.w3.org/2000/svg" xmlns:xlink="http://www.w3.org/1999/xlink" x="0px" y="0px"
	 viewBox="0 0 1792 1792" style="enable-background:new 0 0 1792 1792;" xml:space="preserve">
<style type="text/css">
	.st0{fill:#1478A6;}
	.st1{fill:#FFFFFF;}
</style>
<g>
	<circle class="st0" cx="896" cy="895" r="886.6"/>
	<path class="st1" d="M1172.4,470.9c45.7,0,84.8,15.7,117.1,46.9s48.7,68.7,48.7,112.6v531.5c0,43.9-16.2,81.5-48.7,112.6
		c-32.4,31.1-71.4,46.9-117.1,46.9H619.6c-45.7,0-84.8-15.7-117.1-46.9c-32.3-31.2-48.7-68.7-48.7-112.6V630.3
		c0-43.9,16.2-81.5,48.7-112.6s71.4-46.9,117.1-46.9L1172.4,470.9L1172.4,470.9z M855.7,896c0-32.4-11.9-60.1-35.7-83.1
		c-23.9-23-52.6-34.3-86.4-34.3c-33.8,0-62.6,11.4-86.4,34.3c-23.9,23-35.8,50.6-35.8,83.1c0,32.4,11.9,60.1,35.7,83.1
		c23.8,22.9,52.6,34.3,86.4,34.3c33.8,0,62.6-11.4,86.4-34.3C843.8,956.1,855.7,928.4,855.7,896z M1180.5,896
		c0-32.4-11.9-60.1-35.7-83.1c-23.8-22.9-52.6-34.3-86.4-34.3c-33.8,0-62.6,11.4-86.4,34.3c-23.8,22.9-35.7,50.6-35.7,83.1
		c0,32.4,11.9,60.1,35.7,83.1c23.8,22.9,52.6,34.3,86.4,34.3c33.8,0,62.6-11.4,86.4-34.3C1168.5,956.1,1180.5,928.4,1180.5,896z"/>
</g>
</svg>
