<?xml version="1.0" encoding="UTF-8"?>
<svg width="44px" height="44px" viewBox="0 0 44 44" version="1.1" xmlns="http://www.w3.org/2000/svg" xmlns:xlink="http://www.w3.org/1999/xlink">
    <!-- Generator: Sketch 48.1 (47250) - http://www.bohemiancoding.com/sketch -->
    <title>Artboard 2</title>
    <desc>Created with Sketch.</desc>
    <defs></defs>
    <g id="Page-1" stroke="none" stroke-width="1" fill="none" fill-rule="evenodd">
        <g id="Artboard-2" fill="#C5403C">
            <path d="M37.3392857,21.9140625 C37.3392857,18.8593597 36.5139591,16.0608386 34.8632812,13.5184152 L13.4045759,34.9486607 C16.0039192,36.6372852 18.8214134,37.4815848 21.8571429,37.4815848 C23.9631802,37.4815848 25.9695775,37.0689215 27.8763951,36.2435826 C29.7832127,35.4182436 31.4291225,34.313065 32.8141741,32.9280134 C34.1992257,31.5429618 35.2996611,29.8875654 36.1155134,27.9617746 C36.9313657,26.0359837 37.3392857,24.0200998 37.3392857,21.9140625 Z M8.90792411,30.4235491 L30.3950893,8.96484375 C27.8336926,7.23827262 24.9877389,6.375 21.8571429,6.375 C19.0490931,6.375 16.4592753,7.0675154 14.0876116,8.45256696 C11.715948,9.83761853 9.83761853,11.7254345 8.45256696,14.1160714 C7.0675154,16.5067084 6.375,19.1060127 6.375,21.9140625 C6.375,24.9877386 7.21929959,27.8242058 8.90792411,30.4235491 Z M43.7142857,21.9140625 C43.7142857,24.892872 43.1356085,27.7388257 41.9782366,30.4520089 C40.8208647,33.1651921 39.26982,35.4988742 37.3250558,37.453125 C35.3802916,39.4073758 33.0560961,40.9631639 30.3523996,42.1205357 C27.648703,43.2779076 24.8169791,43.8565848 21.8571429,43.8565848 C18.8973066,43.8565848 16.0655827,43.2779076 13.3618862,42.1205357 C10.6581896,40.9631639 8.3339941,39.4073758 6.38922991,37.453125 C4.44446572,35.4988742 2.89342097,33.1651921 1.73604911,30.4520089 C0.578677249,27.7388257 0,24.892872 0,21.9140625 C0,18.935253 0.578677249,16.0940425 1.73604911,13.390346 C2.89342097,10.6866494 4.44446572,8.35771066 6.38922991,6.40345982 C8.3339941,4.44920898 10.6581896,2.89342097 13.3618862,1.73604911 C16.0655827,0.578677249 18.8973066,0 21.8571429,0 C24.8169791,0 27.648703,0.578677249 30.3523996,1.73604911 C33.0560961,2.89342097 35.3802916,4.44920898 37.3250558,6.40345982 C39.26982,8.35771066 40.8208647,10.6866494 41.9782366,13.390346 C43.1356085,16.0940425 43.7142857,18.935253 43.7142857,21.9140625 Z" id="ïž"></path>
        </g>
    </g>
</svg>