<svg id="Layer_1" data-name="Layer 1" xmlns="http://www.w3.org/2000/svg" viewBox="0 0 1773.2 1773.2"><defs><style>.cls-1{fill:#1478a6;}.cls-2{fill:#fff;}</style></defs><title>info</title><circle class="cls-1" cx="886.6" cy="886.6" r="886.6"/><path class="cls-2" d="M1082.1,1195v74a37.51,37.51,0,0,1-37,37H749.38a37.51,37.51,0,0,1-37-37v-74a37.51,37.51,0,0,1,37-37h37V936.19h-37a37.51,37.51,0,0,1-37-37v-74a37.51,37.51,0,0,1,37-37H971.16a37.51,37.51,0,0,1,37,37V1158h37a35.55,35.55,0,0,1,26,11C1078.41,1176.33,1082.1,1185,1082.1,1195Zm-74-665.53V640.44a37.51,37.51,0,0,1-37,37H823.34a37.51,37.51,0,0,1-37-37V529.5a37.51,37.51,0,0,1,37-37H971.25a37.36,37.36,0,0,1,36.89,37Z" transform="translate(-10.7 -12.7)"/></svg>