<svg id="Layer_1" data-name="Layer 1" xmlns="http://www.w3.org/2000/svg" viewBox="0 0 1773.2 1773.2"><defs><style>.cls-1{fill:#1478a6;}.cls-2{fill:#fff;}</style></defs><title>instagram</title><circle class="cls-1" cx="886.6" cy="886.6" r="886.6"/><path class="cls-2" d="M1050.34,896q0-63.92-45.21-109.13T896,741.65q-63.92,0-109.13,45.21T741.64,896q0,63.92,45.21,109.13T896,1050.35q63.92,0,109.13-45.21T1050.34,896Zm83.26,0q0,98.84-69.38,168.22T896,1133.61q-98.84,0-168.22-69.38T658.38,896q0-98.84,69.38-168.22T896,658.39q98.84,0,168.22,69.38T1133.6,896Zm65.09-247.19a55.63,55.63,0,1,1-16.29-39.21A53.48,53.48,0,0,1,1198.68,648.81ZM896,516.13c-2.78,0-18.17-.09-46.11-.27s-49.15-.18-63.65,0-33.84.81-58.19,1.79-45,3-62.13,6-31.42,6.71-43.15,11.19a158.12,158.12,0,0,0-88.1,88.1q-6.58,17.46-11.19,43.15t-6,62.13c-1,24.35-1.61,43.69-1.79,58.19s-.18,35.63,0,63.65.27,43.33.27,46.11-.09,18.17-.27,46.11-.18,49.15,0,63.65.81,33.84,1.79,58.19,3,45,6,62.13,6.71,31.42,11.19,43.15a158.12,158.12,0,0,0,88.1,88.1q17.46,6.58,43.15,11.19t62.13,6c24.35,1,43.69,1.61,58.19,1.79s35.63.18,63.65,0,43.33-.27,46.11-.27,18.17.09,46.11.27,49.15.18,63.65,0,33.84-.81,58.19-1.79,45-3,62.13-6,31.42-6.71,43.15-11.19a158.12,158.12,0,0,0,88.1-88.1q6.58-17.46,11.19-43.15t6-62.13c1-24.35,1.61-43.69,1.79-58.19s.18-35.63,0-63.65S1276,899,1276,896.18s.09-18.17.27-46.11.18-49.15,0-63.65-.81-33.84-1.79-58.19-3-45-6-62.13-6.71-31.42-11.19-43.15a158.12,158.12,0,0,0-88.1-88.1q-17.46-6.58-43.15-11.19t-62.13-6c-24.35-1-43.69-1.61-58.19-1.79s-35.63-.18-63.65,0S898.76,516.13,896,516.13ZM1359,896q0,138.05-3,191.14-6,125.43-74.76,194.19T1087,1356.08q-53,3-191.14,3t-191.14-3q-125.43-6-194.19-74.76t-74.76-194.19q-3-53-3-191.14t3-191.14q6-125.43,74.76-194.19t194.19-74.76q53-3,191.14-3t191.14,3q125.43,6,194.19,74.76T1356,704.86Q1359.07,757.9,1359,896Z" transform="translate(-9.7 -8.7)"/></svg>