<?xml version="1.0" encoding="utf-8"?>
<!-- Generator: Adobe Illustrator 19.0.0, SVG Export Plug-In . SVG Version: 6.00 Build 0)  -->
<svg version="1.1" id="Layer_3" xmlns="http://www.w3.org/2000/svg" xmlns:xlink="http://www.w3.org/1999/xlink" x="0px" y="0px"
	 viewBox="-9 -316 1280 1432" enable-background="new -9 -316 1280 1432" xml:space="preserve">
<path id="XMLID_76_" fill="#E1F3FD" d="M535.8,486.6c-1.1-4.5-20-11.7-26-7.3c-3-3.5-12.2-0.7-12.7,2.3c-10-1-13.7,2.9-17.1,3.4
	c-2.8,0.4-4.5,0.8-4.2,1.6C476.6,489.2,536.8,491.1,535.8,486.6z"/>
<path id="XMLID_73_" fill="#9ABFA5" d="M-9,770.1v130.2h1280V735.6c-123,11-322.2,27.3-399.9,37.5C380.6,837.6,101.6,765.6-9,770.1z
	"/>
<g id="XMLID_66_">
	<path id="XMLID_72_" fill="#CDECFC" d="M376.4,816.5c0.1-17.6,1-44.6,1.4-53.2h1.4c0.4,8.6,1.2,36.1,1.4,53.7"/>
	<path id="XMLID_71_" fill="#CDECFC" d="M370.5,764.9c1.1-0.3,8.1-1,8.2-0.8c0.2,0.6-4.3,1.9-9.8,3.6s-10.1,2.8-10.2,2.5
		C358.5,769.5,368.7,765.5,370.5,764.9z"/>
	<circle id="XMLID_70_" fill="#CDECFC" cx="378.3" cy="764.3" r="1.6"/>
	<path id="XMLID_69_" fill="#CDECFC" d="M382.7,770.8c-0.8-0.8-4.9-6.6-4.7-6.7c0.4-0.5,3.8,2.8,8,6.7c4.2,4,7.5,7.3,7.2,7.6
		C392.8,778.8,384.2,772.1,382.7,770.8z"/>
	<path id="XMLID_68_" fill="#CDECFC" d="M381.7,757.3c-0.3,1.1-3.2,7.5-3.4,7.5c-0.6-0.1,0.5-4.7,1.8-10.3c1.3-5.6,2.6-10.1,3-10
		C383.7,744.5,382.2,755.4,381.7,757.3z"/>
</g>
<g id="XMLID_60_">
	<path id="XMLID_65_" fill="#CDECFC" d="M170.3,804.2c0.2-26.1,1.4-66.1,2-79h2.2c0.6,12.8,1.8,53.5,2,79.6"/>
	<path id="XMLID_64_" fill="#CDECFC" d="M161.5,727.7c1.6-0.5,12.1-1.4,12.2-1.1c0.3,0.9-6.4,2.8-14.6,5.3c-8.2,2.5-15,4.1-15.1,3.6
		C143.7,734.6,158.7,728.5,161.5,727.7z"/>
	<circle id="XMLID_63_" fill="#CDECFC" cx="173.1" cy="726.8" r="2.4"/>
	<path id="XMLID_62_" fill="#CDECFC" d="M179.6,736.4c-1.2-1.1-7.3-9.7-7-10c0.7-0.7,5.6,4.1,11.9,10c6.2,5.9,11.1,10.9,10.7,11.3
		C194.5,748.4,181.7,738.4,179.6,736.4z"/>
	<path id="XMLID_61_" fill="#CDECFC" d="M178.1,716.4c-0.4,1.6-4.8,11.2-5.1,11.1c-0.9-0.2,0.8-7,2.7-15.3s3.9-15,4.4-14.9
		C181,697.5,178.8,713.6,178.1,716.4z"/>
</g>
<g id="XMLID_54_">
	<path id="XMLID_59_" fill="#CDECFC" d="M95.8,799.2c0.2-26.1,1.4-66.1,2-79h2.2c0.6,12.8,1.8,53.5,2,79.6"/>
	<path id="XMLID_58_" fill="#CDECFC" d="M91.6,731c0.7-1.5,6.9-10,7.3-9.8c0.9,0.4-2.2,6.7-5.8,14.4c-3.6,7.8-6.9,13.9-7.3,13.7
		C84.9,748.9,90.4,733.7,91.6,731z"/>
	<circle id="XMLID_57_" fill="#CDECFC" cx="98.6" cy="721.8" r="2.4"/>
	<path id="XMLID_56_" fill="#CDECFC" d="M110.1,723.3c-1.6,0.1-12.1-1-12.1-1.4c-0.1-0.9,6.8-1.5,15.4-2.2s15.5-1,15.5-0.5
		C129,720.2,113,723.1,110.1,723.3z"/>
	<path id="XMLID_55_" fill="#CDECFC" d="M94.2,711.2c0.9,1.3,5.2,11,4.9,11.2c-0.8,0.5-4.7-5.2-9.6-12.2s-8.6-12.9-8.2-13.2
		C82,696.4,92.5,708.8,94.2,711.2z"/>
</g>
<g id="XMLID_48_">
	<path id="XMLID_53_" fill="#CDECFC" d="M254.4,801.6c0.2-22.4,1.2-56.8,1.7-67.8h1.8c0.5,11,1.6,45.9,1.7,68.4"/>
	<path id="XMLID_52_" fill="#CDECFC" d="M250.7,743c0.6-1.3,6-8.6,6.2-8.4c0.7,0.3-1.8,5.7-5,12.4c-3.1,6.7-5.9,11.9-6.3,11.8
		C245,758.4,249.7,745.3,250.7,743z"/>
	<circle id="XMLID_51_" fill="#CDECFC" cx="256.8" cy="735.1" r="2.1"/>
	<path id="XMLID_50_" fill="#CDECFC" d="M266.6,736.4c-1.4,0.1-10.4-0.9-10.4-1.2c-0.1-0.8,5.9-1.3,13.2-1.9s13.3-0.9,13.3-0.4
		C282.8,733.7,269.1,736.2,266.6,736.4z"/>
	<path id="XMLID_49_" fill="#CDECFC" d="M253,725.9c0.8,1.2,4.4,9.4,4.2,9.6c-0.7,0.5-4-4.5-8.3-10.5c-4.2-6-7.4-11.1-7-11.3
		C242.5,713.3,251.5,723.9,253,725.9z"/>
</g>
<g id="XMLID_42_">
	<path id="XMLID_47_" fill="#CDECFC" d="M331.1,801.7c0.1-16.7,0.9-42.2,1.3-50.4h1.4c0.4,8.2,1.2,34.2,1.3,50.8"/>
	<path id="XMLID_46_" fill="#CDECFC" d="M328.4,758.2c0.4-0.9,4.4-6.4,4.6-6.3c0.6,0.3-1.4,4.2-3.7,9.2c-2.3,5-4.4,8.9-4.7,8.7
		C324.2,769.6,327.7,759.9,328.4,758.2z"/>
	<circle id="XMLID_45_" fill="#CDECFC" cx="332.9" cy="752.3" r="1.6"/>
	<path id="XMLID_44_" fill="#CDECFC" d="M340.3,753.3c-1,0.1-7.7-0.7-7.7-0.9c-0.1-0.6,4.4-0.9,9.8-1.4s9.9-0.6,9.9-0.3
		C352.3,751.3,342.1,753.1,340.3,753.3z"/>
	<path id="XMLID_43_" fill="#CDECFC" d="M330.1,745.5c0.6,0.9,3.3,7,3.1,7.1c-0.5,0.3-3-3.3-6.1-7.8s-5.5-8.2-5.2-8.4
		C322.3,736.1,329,744,330.1,745.5z"/>
</g>
<path id="XMLID_39_" fill="#7FAE8D" d="M-9,834.6v65.7h1280V735.6c-123,11-335.4-8.8-413.4-1.5S253.1,845.1-9,834.6z"/>
<path id="XMLID_38_" fill="#EDF8FE" d="M412.5,918.1c0.6-84.7,4.7-253.2,6.5-294.7h7c1.9,41.5,5.9,212.2,6.5,296.9"/>
<path id="XMLID_37_" fill="#EDF8FE" d="M439.4,592.7c-1.4,5.1-16.7,35.6-17.7,35.4c-3-0.8,3.2-22.4,10.4-49.2
	c7.2-26.8,14.2-48.2,15.8-47.8C450.8,531.9,441.8,583.6,439.4,592.7z"/>
<circle id="XMLID_36_" fill="#EDF8FE" cx="422" cy="626" r="7.9"/>
<path id="XMLID_35_" fill="#EDF8FE" d="M384.6,627.5c5.1-1.4,39.2-3.4,39.5-2.3c0.8,3-21,8.5-47.9,15.6
	c-26.8,7.1-48.9,11.8-49.3,10.2C326.1,648.1,375.4,630,384.6,627.5z"/>
<path id="XMLID_34_" fill="#EDF8FE" d="M442.1,657.6c-3.8-3.8-22.5-32.3-21.8-33c2.2-2.2,17.8,14,37.4,33.6
	c19.6,19.7,34.7,36.4,33.5,37.6C489.1,698,448.8,664.3,442.1,657.6z"/>
<path id="XMLID_33_" fill="#DAF0FC" d="M131.8,889c0.4-51.4,2.8-153.6,4-178.8h4.2c1.1,25.2,3.6,128.8,4,180.1"/>
<path id="XMLID_32_" fill="#DAF0FC" d="M124,731.7c1.3-3,13.2-19.9,13.8-19.7c1.7,0.7-3.9,13.2-10.6,28.6
	c-6.7,15.4-12.8,27.7-13.7,27.3C111.7,767.2,121.7,737,124,731.7z"/>
<circle id="XMLID_31_" fill="#DAF0FC" cx="137.3" cy="713.3" r="4.8"/>
<path id="XMLID_30_" fill="#DAF0FC" d="M160,715.7c-3.2,0.4-23.8-1.4-23.9-2.1c-0.2-1.9,13.4-3.2,30.1-5.1s30.4-2.8,30.5-1.8
	C196.8,708.5,165.7,715,160,715.7z"/>
<path id="XMLID_29_" fill="#DAF0FC" d="M128.1,692.5c1.9,2.6,10.7,21.4,10.1,21.7c-1.5,1.1-9.5-10-19.5-23.5s-17.6-24.9-16.8-25.5
	C103.5,664.1,124.7,687.9,128.1,692.5z"/>
<path id="XMLID_28_" fill="#E9F6FD" d="M266.5,908.5c0.5-68.9,3.8-205.9,5.3-239.7h5.7c1.5,33.8,4.8,172.7,5.3,241.5"/>
<path id="XMLID_27_" fill="#E9F6FD" d="M246.2,658.9c4.3,0.8,30,11.2,29.8,12.1c-0.5,2.5-18.4-1.1-40.6-5.2s-40-8.4-39.8-9.7
	C196.1,653.6,238.6,657.5,246.2,658.9z"/>
<circle id="XMLID_26_" fill="#E9F6FD" cx="274.3" cy="670.9" r="6.4"/>
<path id="XMLID_25_" fill="#E9F6FD" d="M278,701.1c-1.4-4.1-5.3-31.6-4.5-31.9c2.4-0.8,8.2,16.5,15.8,37.8
	c7.5,21.3,12.8,38.9,11.5,39.3C298.4,747.2,280.6,708.4,278,701.1z"/>
<path id="XMLID_24_" fill="#E9F6FD" d="M298.6,652.5c-2.8,3.3-24.7,20.4-25.4,19.8c-1.9-1.6,10.2-15.4,24.8-32.5
	c14.7-17.2,27.3-30.5,28.3-29.6C328.3,611.8,303.6,646.7,298.6,652.5z"/>
<g id="XMLID_18_">
	<path id="XMLID_23_" fill="#D5EFFC" d="M49.4,875.2c0.3-42.2,2.3-126.1,3.2-146.8h3.5c0.9,20.7,2.9,105.7,3.2,147.9"/>
	<path id="XMLID_22_" fill="#D5EFFC" d="M35.3,732.4c2.5-0.8,19.5-2.3,19.6-1.8c0.4,1.5-10.3,4.6-23.6,8.5
		c-13.2,4-24.1,6.7-24.4,5.9C6.6,743.5,30.8,733.7,35.3,732.4z"/>
	<circle id="XMLID_21_" fill="#D5EFFC" cx="54" cy="731" r="3.9"/>
	<path id="XMLID_20_" fill="#D5EFFC" d="M64.5,746.4c-1.9-1.8-11.7-15.7-11.4-16.1c1.1-1.1,9.1,6.7,19.2,16.2s17.8,17.6,17.3,18.2
		C88.5,765.7,67.9,749.6,64.5,746.4z"/>
	<path id="XMLID_19_" fill="#D5EFFC" d="M62.1,714.2c-0.6,2.6-7.7,18-8.3,17.9c-1.5-0.4,1.2-11.2,4.4-24.7c3.2-13.5,6.3-24.2,7.1-24
		C66.8,683.7,63.2,709.6,62.1,714.2z"/>
</g>
<g id="XMLID_9_">
	<path id="XMLID_10_" fill="#E1F3FD" d="M1271,394.3c-9.7,3.6-18.1,6.9-24.4,9.6c-0.6-0.8-1.2-1.6-2-2.2c-3.9-3.2-9.2-3.6-13.3-1.3
		c-9.7-12.7-24.8-31.1-28.9-34.5c-11-9.2-76.2-54.4-79.2-50.8c-1.6,1.9,23.4,25,55.5,52c19.3,16.1,36.2,30.6,47.4,38.8
		c-2.2,4.8-1,10.6,3.2,14.1c0.5,0.4,0.9,0.7,1.4,1c-6.1,14.8-14.5,37.1-15.4,42.2c-2.5,14.1-9,93.2-4.4,94
		c2.4,0.4,10-32.8,17.2-74.1c2.1-11.9,4.1-23.1,5.8-33.1c-2.3,72.2-5.2,198-7,302.1h27.6c-2-122.4-5.8-274.2-8-334.3
		c1.4-2,2.2-4.3,2.2-6.6c6.7-0.9,14.7-2.1,22.2-3.3L1271,394.3z"/>
</g>
<path id="XMLID_8_" fill="#579469" d="M-9,803.5v312.8h1280V715.5c-123,18-373,82-451,94S286,869.5-9,803.5z"/>
<path id="XMLID_7_" fill="#FFFFFF" d="M313.2,197.4c-14,3.8-106.6,9.7-107.3,6.8c-2.2-8.1,57.1-23.3,129.9-43
	c72.9-19.7,132.7-32.7,133.9-28.4C471.9,141,338.1,190.7,313.2,197.4z"/>
<circle id="XMLID_6_" fill="#FFFFFF" cx="211.3" cy="202.1" r="21.4"/>
<path id="XMLID_5_" fill="#FFFFFF" d="M156.3,116.3c10.3,10.2,61.7,87.5,59.6,89.5c-5.9,5.9-48.7-37.8-102.2-91S19,16.2,22.2,13.1
	C28.1,7.1,138,98.1,156.3,116.3z"/>
<path id="XMLID_4_" fill="#FFFFFF" d="M164.5,292.7c3.7-14,44.9-97.1,47.7-96.4c8.1,2.2-8.4,61.1-27.7,134s-38,131.3-42.3,130.1
	C134.1,458.3,157.9,317.6,164.5,292.7z"/>
<path id="XMLID_3_" fill="#FFFFFF" d="M185.3,996.6c1.7-230.3,12.6-688.4,17.7-801.4h19c5.1,113,16,575.1,17.7,805.4L185.3,996.6z"
	/>
<path id="XMLID_2_" fill="#FFFFFF" d="M330.4,294.5c4.4-18.7,83-48.7,108.1-30.3c12.4-14.6,50.6-3,52.7,9.5
	c41.4-4.3,56.9,12.1,71.1,14.1c11.6,1.7,18.7,3.3,17.6,6.6C576.5,305,326,313.2,330.4,294.5z"/>
<path id="XMLID_1_" fill="#E9F6FD" d="M136.7,529.2c-1.3-4.9-16.3-13.2-23.8-8.3c-4.3-2.8-21.8-2.3-28.5,1.7
	c-12.3-1.1-15.2,3.2-19.5,3.8c-3.4,0.4-2.9,2-2.5,2.9C63.5,531.9,138.1,534.1,136.7,529.2z"/>
<rect id="XMLID_11_" x="-9" y="-316.1" fill="none" width="20" height="41.5"/>
<rect id="XMLID_14_" x="1251" y="-316.1" fill="none" width="20" height="41.5"/>
</svg>
