<?xml version="1.0" encoding="UTF-8"?>
<svg width="224px" height="91px" viewBox="0 0 224 91" version="1.1" xmlns="http://www.w3.org/2000/svg" xmlns:xlink="http://www.w3.org/1999/xlink">
    <!-- Generator: Sketch 42 (36781) - http://www.bohemiancoding.com/sketch -->
    <title>home-card / resources</title>
    <desc>Created with Sketch.</desc>
    <defs>
        <path d="M0,7.99588761 C0,3.57988082 3.58644863,0 8.00526927,0 L215.994731,0 C220.415919,0 224,3.58130964 224,7.99588761 L224,91 L0,91 L0,7.99588761 Z" id="path-1"></path>
        <polygon id="path-3" points="0 0.151350454 74.5564834 0.151350454 74.5564834 55.1526609 0 55.1526609"></polygon>
        <polyline id="path-5" points="0 0.151350454 74.5564834 0.151350454 74.5564834 55.1526609 0 55.1526609"></polyline>
        <polygon id="path-7" points="0 0.152610346 74.7137755 0.152610346 74.7137755 55.6117703 0 55.6117703"></polygon>
        <polyline id="path-9" points="0 0.200753961 74.7137755 0.200753961 74.7137755 55.6599139 0 55.6599139"></polyline>
        <polygon id="path-11" points="0 0.6824 35.9072 0.6824 35.9072 29.6 0 29.6"></polygon>
        <polyline id="path-13" points="0 0.6824 35.9072 0.6824 35.9072 29.6 0 29.6"></polyline>
        <polyline id="path-15" points="0 0.6824 35.9072 0.6824 35.9072 29.6 0 29.6"></polyline>
        <polyline id="path-17" points="0 0.6824 35.9072 0.6824 35.9072 29.6 0 29.6"></polyline>
        <polyline id="path-19" points="0 0.848574635 38.5154545 0.848574635 38.5154545 51.3580247 0 51.3580247"></polyline>
        <polyline id="path-21" points="0 0.848574635 38.5154545 0.848574635 38.5154545 51.3580247 0 51.3580247"></polyline>
        <polygon id="path-23" points="0 0.848574635 38.5154545 0.848574635 38.5154545 51.3580247 0 51.3580247"></polygon>
        <polyline id="path-25" points="0 0.00901515152 25.9693603 0.00901515152 25.9693603 42.0707071 0 42.0707071"></polyline>
        <polyline id="path-27" points="0 0.193142857 43.7772857 0.193142857 43.7772857 44 0 44"></polyline>
    </defs>
    <g id="Home,-Level-2,-etc" stroke="none" stroke-width="1" fill="none" fill-rule="evenodd">
        <g id="Home-Card-Art-Alt-03-2017" transform="translate(-148.000000, -341.000000)">
            <g id="home-card-/-resources" transform="translate(148.000000, 341.000000)">
                <g id="home-card-what-resources">
                    <g id="Rectangle-100-+-Bitmap">
                        <mask id="mask-2" fill="white">
                            <use xlink:href="#path-1"></use>
                        </mask>
                        <use id="Rectangle-103" fill="#96BC7F" xlink:href="#path-1"></use>
                        <g id="Group-Copy-8" mask="url(#mask-2)">
                            <g transform="translate(1.000000, -9.000000)">
                                <g id="Group-4" stroke-width="1" fill-rule="evenodd" transform="translate(56.000000, 32.000000)">
                                    <g id="Group-2" transform="translate(0.000000, 5.197368)">
                                        <mask id="mask-4" fill="white">
                                            <use xlink:href="#path-3"></use>
                                        </mask>
                                        <g id="Clip-2"></g>
                                        <path d="M10.6391871,6.55294702 L10.6391871,38.205048 C10.1046006,38.5196903 9.73191751,39.0756602 9.73191751,39.7400748 L9.73191751,52.1210974 L0.792104404,52.1210974 C0.355270892,52.1210974 -0.000610955959,52.8038407 -0.000610955959,53.6377956 C-0.000610955959,54.4702231 0.355270892,55.1529664 0.792104404,55.1529664 L22.3053912,55.1529664 C22.7406973,55.1529664 23.0965792,54.4702231 23.0965792,53.6377956 C23.0965792,52.8038407 22.7406973,52.1210974 22.3053912,52.1210974 L13.3609959,52.1210974 L13.3609959,39.7400748 C13.3609959,39.0771876 12.9867854,38.5196903 12.4552537,38.205048 L12.4552537,7.22805335 L10.6391871,6.55294702 Z M12.4552537,4.17327355 L57.6064266,19.0225582 L58.7397499,15.570657 L12.1146458,0.241771936 C11.1584997,-0.068288214 10.1351484,0.444914793 9.82050612,1.3964787 C9.55321289,2.22126925 9.92436864,3.06897065 10.6391871,3.49816721 L12.4552537,4.17327355 Z"  fill="#7DA36A" mask="url(#mask-4)"></path>
                                        <mask id="mask-6" fill="white">
                                            <use xlink:href="#path-5"></use>
                                        </mask>
                                        <g id="Clip-5"></g>
                                        <path d="M67.9340262,1.80963767 C67.5888361,1.80963767 67.2405912,1.89211673 66.9198393,2.05249267 C66.3806707,2.32131329 65.9698028,2.78716721 65.7926256,3.32786324 L56.1593774,32.6323659 C55.9745633,33.192918 56.020385,33.7947096 56.2876782,34.3231865 C56.5564988,34.8547182 57.0131884,35.2472574 57.5737405,35.4290168 L58.9056245,35.8673777 C59.8388597,36.1743831 61.1692163,35.9101447 61.9130552,35.28086 L70.017386,28.4014959 C70.6512528,27.8623273 71.329414,26.8542499 71.5936524,26.0584798 L74.3276803,17.7616978 C74.5827545,16.9689825 74.6316309,15.7592897 74.4422346,14.9543552 L71.9984107,4.61239814 C71.7693023,3.636396 70.8757792,2.66192124 69.9211605,2.34727892 L68.603023,1.91808236 C68.3891884,1.84476764 68.1616073,1.80963767 67.9340262,1.80963767"  fill="#7DA36A" mask="url(#mask-6)"></path>
                                        <path d="M33.5672952,13.8581474 L31.5160105,35.8433977 L30.3628311,35.8433977 C29.421959,35.8433977 28.6353532,36.5643257 28.5544015,37.5036705 L27.2118258,53.1808005 C27.1675315,53.687894 27.3385991,54.1888778 27.6837893,54.5661432 C28.0259246,54.9372989 28.5116346,55.1526609 29.0217828,55.1526609 L46.901409,55.1526609 L46.9380664,55.1526609 C47.9400342,55.1526609 48.7526056,54.3385621 48.7526056,53.3381217 C48.7526056,53.1578897 48.7281673,52.9852946 48.6777635,52.8249187 L47.3657356,37.5036705 C47.2847839,36.5643257 46.4981781,35.8433977 45.5542511,35.8433977 L44.4071813,35.8433977 L42.7117785,16.680764 L33.5672952,13.8581474 Z" id="Fill-7" fill="#7DA36A" mask="url(#mask-6)"></path>
                                    </g>
                                    <g id="icon-/-oil-/-white" transform="translate(4.157895, 0.000000)">
                                        <g id="Group-3" stroke-width="1" transform="translate(0.000000, 1.372093)">
                                            <mask id="mask-8" fill="white">
                                                <use xlink:href="#path-7"></use>
                                            </mask>
                                            <g id="Clip-2"></g>
                                            <path d="M10.6616327,6.60749597 L10.6616327,38.5230797 C10.1259184,38.8403412 9.75244898,39.4009393 9.75244898,40.0708847 L9.75244898,52.554971 L0.79377551,52.554971 C0.356020408,52.554971 -0.000612244898,53.2433977 -0.000612244898,54.0842947 C-0.000612244898,54.9236516 0.356020408,55.6120783 0.79377551,55.6120783 L22.352449,55.6120783 C22.7886735,55.6120783 23.1453061,54.9236516 23.1453061,54.0842947 C23.1453061,53.2433977 22.7886735,52.554971 22.352449,52.554971 L13.3891837,52.554971 L13.3891837,40.0708847 C13.3891837,39.4024794 13.0141837,38.8403412 12.4815306,38.5230797 L12.4815306,7.28822212 L10.6616327,6.60749597 Z M12.4815306,4.20801329 L57.7279592,19.1809084 L58.8636735,15.7002724 L12.1402041,0.243784528 C11.1820408,-0.0688566682 10.1565306,0.448618415 9.84122449,1.40810346 C9.57336735,2.23975985 9.94530612,3.0945178 10.6616327,3.52728714 L12.4815306,4.20801329 Z"  fill="#FEFEFE" mask="url(#mask-8)"></path>
                                        </g>
                                        <g id="Group-6" stroke-width="1" transform="translate(0.000000, 1.323949)">
                                            <mask id="mask-10" fill="white">
                                                <use xlink:href="#path-9"></use>
                                            </mask>
                                            <g id="Clip-5"></g>
                                            <path d="M68.0773469,1.87284532 C67.7314286,1.87284532 67.382449,1.95601096 67.0610204,2.11772193 C66.5207143,2.3887803 66.1089796,2.85851215 65.9314286,3.40370911 L56.2778571,32.9521524 C56.0926531,33.5173707 56.1385714,34.1241719 56.4064286,34.657048 C56.6758163,35.1930043 57.1334694,35.5888112 57.6952041,35.7720836 L59.029898,36.2140935 C59.965102,36.5236545 61.2982653,36.2572165 62.0436735,35.6226934 L70.165102,28.6860632 C70.8003061,28.1424063 71.479898,27.1259374 71.7446939,26.323543 L74.4844898,17.9576958 C74.740102,17.1583816 74.7890816,15.9386189 74.5992857,15.1269839 L72.1503061,4.69893692 C71.9207143,3.7148102 71.0253061,2.73222359 70.0686735,2.41496208 L68.7477551,1.98219274 C68.5334694,1.90826772 68.3054082,1.87284532 68.0773469,1.87284532"  fill="#FEFEFE" mask="url(#mask-10)"></path>
                                        </g>
                                        <path d="M33.6381122,15.3456004 L31.5825,37.5138633 L30.4268878,37.5138633 C29.4840306,37.5138633 28.6957653,38.2407926 28.6146429,39.1879568 L27.2692347,54.9955885 C27.2248469,55.5069032 27.3962755,56.0120574 27.7421939,56.3924632 C28.085051,56.7667086 28.5717857,56.9838633 29.0830102,56.9838633 L47.0003571,56.9838633 L47.0370918,56.9838633 C48.0411735,56.9838633 48.8554592,56.1629877 48.8554592,55.1542193 C48.8554592,54.9724869 48.8309694,54.7984551 48.7804592,54.6367442 L47.4656633,39.1879568 C47.3845408,38.2407926 46.5962755,37.5138633 45.6503571,37.5138633 L44.5008673,37.5138633 L42.8018878,18.1917133 L33.6381122,15.3456004 Z" id="Fill-7" fill="#FEFEFE"></path>
                                    </g>
                                </g>
                                <g id="icon-/-coal-green" opacity="0.600000024" transform="translate(135.000000, 16.000000)" stroke-width="1" fill-rule="evenodd">
                                    <g id="Group-3">
                                        <mask id="mask-12" fill="white">
                                            <use xlink:href="#path-11"></use>
                                        </mask>
                                        <g id="Clip-2"></g>
                                        <path d="M31.178,6.15912 C30.3628,5.43912 29.7164,4.97032 28.9324,4.01192 C28.342,3.29032 26.6412,3.47912 25.7628,3.03592 C22.9996,1.64152 21.1388,0.07592 17.9716,0.91992 C16.6956,1.26072 15.8964,1.56792 14.574,1.42952 C12.9324,1.25912 11.0444,1.60072 9.8348,2.96632 C9.5444,3.29432 5.5268,5.43912 5.6908,6.15912 L31.178,6.15912 Z"  fill="#69995A" mask="url(#mask-12)"></path>
                                    </g>
                                    <g id="Group-6">
                                        <mask id="mask-14" fill="white">
                                            <use xlink:href="#path-13"></use>
                                        </mask>
                                        <g id="Clip-5"></g>
                                        <path d="M35.51744,8.73632 C35.05904,8.06592 34.25344,7.75472 33.29664,7.75472 L31.17824,7.75472 L5.69024,7.75472 L2.60144,7.75472 C1.65344,7.75472 0.84784,8.06592 0.39024,8.73632 C-0.04496,9.37312 -0.12016,10.15712 0.18384,10.96672 L5.27504,24.53152 C5.81024,25.95552 7.41584,27.07232 9.01024,27.16992 C9.02064,24.96672 10.81184,23.06032 13.01424,23.06032 C15.22384,23.06032 17.02064,25.35472 17.02064,26.95472 L18.91824,26.95472 C18.91824,25.35472 20.71584,23.06032 22.92544,23.06032 C25.12704,23.06032 26.91744,24.90672 26.92944,27.10832 C28.51344,26.99552 30.10064,25.89392 30.63104,24.48032 L35.72304,10.96832 C36.02704,10.15952 35.95264,9.37312 35.51744,8.73632"  fill="#69995A" mask="url(#mask-14)"></path>
                                    </g>
                                    <g id="Group-9">
                                        <mask id="mask-16" fill="white">
                                            <use xlink:href="#path-15"></use>
                                        </mask>
                                        <g id="Clip-8"></g>
                                        <path d="M13.0144,24.77776 C14.3424,24.77776 15.4208,25.85696 15.4208,27.18896 C15.4208,28.52096 14.3424,29.60016 13.0144,29.60016 C11.6848,29.60016 10.608,28.52096 10.608,27.18896 C10.608,25.85696 11.6848,24.77776 13.0144,24.77776" id="Fill-7" fill="#69995A" mask="url(#mask-16)"></path>
                                    </g>
                                    <g id="Group-12">
                                        <mask id="mask-18" fill="white">
                                            <use xlink:href="#path-17"></use>
                                        </mask>
                                        <g id="Clip-11"></g>
                                        <path d="M22.92584,24.77776 C24.25464,24.77776 25.33224,25.85696 25.33224,27.18896 C25.33224,28.52096 24.25384,29.60016 22.92584,29.60016 C21.59624,29.60016 20.51784,28.52096 20.51784,27.18896 C20.51784,25.85696 21.59624,24.77776 22.92584,24.77776" id="Fill-10" fill="#69995A" mask="url(#mask-18)"></path>
                                    </g>
                                </g>
                                <g id="icon-/-renew-solid-/-green" opacity="0.600000024" transform="translate(188.000000, 18.000000)" fill-rule="evenodd">
                                    <g id="Group-3" stroke-width="1">
                                        <mask id="mask-20" fill="white">
                                            <use xlink:href="#path-19"></use>
                                        </mask>
                                        <g id="Clip-2"></g>
                                        <path d="M19.2576091,16.5333154 C22.1908818,16.5333154 22.6600636,4.33228283 22.6600636,4.20972391 C22.6600636,2.35616611 21.1343364,0.848107744 19.2576091,0.848107744 C17.3808818,0.848107744 15.8551545,2.35616611 15.8551545,4.20972391 C15.8551545,4.33228283 16.3243364,16.5333154 19.2576091,16.5333154"  fill="#69995A" mask="url(#mask-20)"></path>
                                    </g>
                                    <g id="Group-6" stroke-width="1">
                                        <mask id="mask-22" fill="white">
                                            <use xlink:href="#path-21"></use>
                                        </mask>
                                        <g id="Clip-5"></g>
                                        <path d="M14.3027182,24.8599686 C14.1077182,24.5121347 13.6787182,24.1001033 12.7557182,24.1001033 C10.2526273,24.1001033 2.68426364,27.4103614 1.7459,27.9251089 C0.105536364,28.8262088 -0.483009091,30.8781953 0.429354545,32.4983075 C1.0309,33.5628193 2.17135455,34.2234703 3.40635455,34.2234703 C3.9819,34.2234703 4.55153636,34.0740651 5.05971818,33.7939304 C5.17080909,33.7379035 15.7256273,27.3835152 14.3027182,24.8599686"  fill="#69995A" mask="url(#mask-22)"></path>
                                    </g>
                                    <path d="M36.7697909,27.9251089 C35.8302455,27.4091942 28.2618818,24.1001033 25.7599727,24.1001033 C24.8357909,24.1001033 24.4079727,24.5121347 24.2129727,24.8599686 C22.7900636,27.3823479 33.3437,33.7379035 33.4547909,33.7939304 C33.9629727,34.0740651 34.5326091,34.2234703 35.1093364,34.2234703 C36.3431545,34.2234703 37.4847909,33.5628193 38.0851545,32.4983075 C38.9975182,30.8781953 38.4101545,28.8262088 36.7697909,27.9251089" id="Fill-7" fill="#69995A"></path>
                                    <g id="Group-11" stroke-width="1">
                                        <mask id="mask-24" fill="white">
                                            <use xlink:href="#path-23"></use>
                                        </mask>
                                        <g id="Clip-10"></g>
                                        <path d="M8.18893636,49.1172974 C7.86157273,49.1172974 7.59566364,49.6215398 7.59566364,50.2378361 C7.59566364,50.8541324 7.86157273,51.3583749 8.18893636,51.3583749 L30.3255727,51.3583749 C30.6517545,51.3583749 30.9188455,50.8541324 30.9188455,50.2378361 C30.9188455,49.6215398 30.6517545,49.1172974 30.3255727,49.1172974 L8.18893636,49.1172974 Z M20.5294818,46.7828418 L20.5294818,25.5066128 C21.8732091,24.9988687 22.8316636,23.7230887 22.8316636,22.218532 C22.8304818,20.2692615 21.2303,18.6900022 19.2578455,18.6900022 C17.2842091,18.6900022 15.6840273,20.2692615 15.6840273,22.218532 C15.6840273,23.7230887 16.6424818,24.9988687 17.9850273,25.5066128 L17.9850273,46.7828418 L20.5294818,46.7828418 Z" id="Fill-9" fill="#69995A" mask="url(#mask-24)"></path>
                                    </g>
                                </g>
                                <g id="icon-/-hard-mins-/-green" opacity="0.600000024" transform="translate(134.000000, 67.000000)" stroke-width="1" fill-rule="evenodd">
                                    <g id="minerals-solid" fill="#69995A">
                                        <path d="M20.8934998,19.2002913 L17.404342,13.2200603 C16.7894041,12.1632931 15.8423997,11.5594261 14.8068443,11.5594261 C13.7725187,11.5594261 12.8230545,12.1632931 12.2093465,13.2200603 L0.504618059,33.2876799 C-0.110319863,34.3407947 -0.165664276,35.4547831 0.352113454,36.3435389 C0.871121061,37.2322948 1.87224,37.7411988 3.10334572,37.7411988 L10.0853509,37.7411988 L20.8934998,19.2002913 Z" ></path>
                                        <path d="M62.6019104,37.7416858 L66.5325936,37.7416858 C67.7636993,37.7416858 68.7648182,37.2315643 69.2838258,36.3440259 C69.8016035,35.4564876 69.7450293,34.3437166 69.1313212,33.2869494 L61.8307782,20.7725369 C61.2170702,19.7169871 60.2700658,19.1131202 59.2332804,19.1131202 C58.197725,19.1131202 57.2507206,19.7169871 56.6357826,20.7725369 L54.6200161,24.2277273 L62.6019104,37.7416858 Z" ></path>
                                        <path d="M25.7527393,16.0439906 L31.1851009,19.527183 L34.9288429,15.0395748 C35.7590091,14.0448988 37.255768,13.9000194 38.2654961,14.7169443 L41.912078,17.6681006 L45.6619694,13.9718503 L38.9345486,2.42898185 C38.3183808,1.37464959 37.3713764,0.769565148 36.3358209,0.769565148 C35.2990356,0.769565148 34.3520312,1.37464959 33.7370932,2.42898185 L25.7527393,16.0439906 Z" id="Fill-5"></path>
                                        <path d="M47.2287083,16.7402639 L43.7592285,20.1114486 C42.892166,21.045251 41.4347632,21.1511712 40.4397936,20.348856 L36.8522458,17.4439637 L33.2068938,21.811042 C32.7260123,22.3832546 32.0077648,22.6888405 31.2845978,22.6888405 C30.8209346,22.6888405 30.3560416,22.5658757 29.9489527,22.3053363 L24.1685362,18.6675248 L13.0996536,37.7416858 L59.6295464,37.7416858 L47.2287083,16.7402639 Z" id="Fill-7"></path>
                                    </g>
                                </g>
                                <g id="icon-/-gas-green" opacity="0.600000024" transform="translate(8.000000, 50.000000)" fill-rule="evenodd">
                                    <path d="M4.49788328,34.379681 C2.4054523,34.4718359 0.743611672,36.1857163 0.743611672,38.2251439 C0.743611672,40.3567264 2.50268238,42.0706069 4.689367,42.0706069 L21.609385,42.0706069 C23.7960696,42.0706069 25.5581167,40.3567264 25.5581167,38.2251439 C25.5581167,36.0935614 23.7960696,34.379681 21.609385,34.379681 L4.49788328,34.379681 Z"  fill="#69995A"></path>
                                    <g id="Group-5" stroke-width="1">
                                        <mask id="mask-26" fill="white">
                                            <use xlink:href="#path-25"></use>
                                        </mask>
                                        <g id="Clip-4"></g>
                                        <path d="M14.8607246,0.704684343 C14.4807336,0.239903199 13.910251,0.00851430976 13.3873912,0.00851430976 C13.102646,0.00851430976 12.8169086,0.0565951178 12.5797863,0.195829125 C11.7721814,0.565450337 11.3435753,1.39784933 11.486444,2.27933081 C12.722655,8.67407828 12.1025652,12.1939941 11.106453,13.3990194 C10.7740848,13.7566204 10.1559793,13.5853325 9.87024198,13.2127062 C9.29975937,12.5195412 9.06263704,11.4066709 9.29975937,10.2938005 C9.34539798,10.1575715 9.34539798,10.0183375 9.34539798,9.83202441 C9.34539798,8.81331229 8.49215443,7.97790825 7.49207363,7.93082912 L7.39881212,7.93082912 L7.25594343,7.93082912 C6.92159102,7.93082912 6.59021504,8.07006313 6.30546981,8.25637626 C6.16260112,8.34853114 6.06834747,8.44068603 5.92547879,8.57891835 L5.87686375,8.62699916 C1.40924085,13.9078746 -0.634575084,19.88492 0.173029854,25.0746423 C0.582785185,27.7621591 1.7852633,30.0940783 3.60981549,31.9662247 C3.74573917,32.1054588 4.16045522,32.3719066 4.69720494,32.3719066 C5.2349468,32.3719066 5.85503659,32.3538763 5.85503659,32.3538763 C6.22609832,32.3538763 6.88388956,32.1264941 6.59914433,31.4944318 C5.97905455,30.117117 6.18542043,28.9070833 7.30158204,26.1875126 C7.68355735,29.7995833 9.29975937,31.4693897 11.0578379,31.4693897 C13.8159973,31.4693897 16.9045405,27.3925379 16.0026819,20.3937753 C21.3801006,25.635585 19.8016,29.3117635 18.95927,31.2019402 C18.5872162,32.0373443 19.0009401,32.3759133 19.5386819,32.3759133 L21.1092453,32.3759133 C21.6053172,32.3759133 21.977371,32.120484 22.4803879,31.4914268 C24.2414429,29.2917298 25.4905517,27.0108965 25.8397863,24.3784722 C27.1246123,15.1128998 18.5207425,5.0119234 14.8607246,0.704684343"  fill="#69995A" mask="url(#mask-26)"></path>
                                    </g>
                                </g>
                                <g id="icon-/-copper-solid-/-green" opacity="0.600000024" transform="translate(18.000000, 0.000000)">
                                    <mask id="mask-28" fill="white">
                                        <use xlink:href="#path-27"></use>
                                    </mask>
                                    <g id="Clip-2"></g>
                                    <path d="M34.6334143,30.266 C36.0117,30.266 37.2819857,29.5254286 38.0289857,28.2834286 L35.9139857,27.0054286 C35.6169857,27.503 35.1374143,27.8 34.6334143,27.8 C33.7629857,27.8 33.0532714,26.9565714 33.0532714,25.919 C33.0532714,24.884 33.7629857,24.0418571 34.6334143,24.0418571 C35.0847,24.0418571 35.5179857,24.2771429 35.8214143,24.6872857 L37.8039857,23.219 C37.0312714,22.1711429 35.8741286,21.5707143 34.6334143,21.5707143 C32.4014143,21.5707143 30.5885571,23.5185714 30.5885571,25.919 C30.5885571,28.3142857 32.4014143,30.266 34.6334143,30.266 M32.2124143,36.701 C31.4139857,34.5911429 27.4578429,30.6491429 26.4935571,30.0268571 C26.0641286,29.7542857 25.6977,29.5177143 25.4392714,29.2245714 C25.1191286,28.862 24.9134143,28.6022857 24.7797,28.4197143 C24.9237,28.403 25.1062714,28.3927143 25.3389857,28.3927143 C26.5359857,28.3927143 27.5851286,27.854 28.2138429,26.9051429 C28.7949857,26.036 28.9081286,24.9508571 28.5159857,24.0084286 C28.3501286,23.6124286 27.8435571,22.4012857 28.1328429,22.0348571 C28.7924143,21.8677143 29.2681286,21.4614286 29.4802714,20.8828571 C29.9392714,19.6241429 28.9814143,18.143 27.6841286,16.3391429 L27.4347,15.9791429 C27.4809857,15.8492857 27.5517,15.6924286 27.6044143,15.5625714 C28.0608429,14.4941429 28.9081286,12.4974286 27.5607,10.6395714 C26.6092714,9.32171429 24.3811286,8.29314286 22.0192714,8.06942857 C19.2305571,7.82 16.6565571,8.666 14.7472714,10.4762857 C11.5329857,13.5157143 12.2555571,19.5611429 14.0118429,22.7574286 C14.2342714,23.1598571 14.4644143,23.5224286 14.6829857,23.8592857 C15.4248429,25.0074286 15.3759857,25.0768571 15.1329857,25.3905714 C14.8205571,25.7994286 14.4142714,26.1555714 13.9822714,26.5515714 C12.6605571,27.7434286 9.43084286,30.6054286 8.4267,34.2902857 C13.4088429,39.5938571 22.0874143,43.1295714 32.2124143,36.701 M21.8894143,44 C9.81784286,44 0.000128571428,34.1758571 0.000128571428,22.0965714 C0.000128571428,10.0172857 9.81784286,0.193142857 21.8894143,0.193142857 C33.9597,0.193142857 43.7774143,10.0172857 43.7774143,22.0965714 C43.7774143,34.1758571 33.9597,44 21.8894143,44"  fill="#69995A" fill-rule="evenodd" mask="url(#mask-28)"></path>
                                </g>
                            </g>
                        </g>
                    </g>
                </g>
            </g>
        </g>
    </g>
</svg>