<?xml version="1.0" encoding="UTF-8"?>
<svg width="224px" height="91px" viewBox="0 0 224 91" version="1.1" xmlns="http://www.w3.org/2000/svg" xmlns:xlink="http://www.w3.org/1999/xlink">
    <!-- Generator: Sketch 42 (36781) - http://www.bohemiancoding.com/sketch -->
    <title>home-card / ownership</title>
    <desc>Created with Sketch.</desc>
    <defs>
        <path d="M0,7.99588761 C0,3.57988082 3.58644863,0 8.00526927,0 L215.994731,0 C220.415919,0 224,3.58130964 224,7.99588761 L224,91 L0,91 L0,7.99588761 Z" id="path-1"></path>
        <polyline id="path-3" points="0 0.131688312 29.8481494 0.131688312 29.8481494 30 0 30"></polyline>
        <polygon id="path-5" points="0 0.0905315615 44.8282653 0.0905315615 44.8282653 32.9900332 0 32.9900332"></polygon>
        <polyline id="path-7" points="0 0.119091333 44.8282653 0.119091333 44.8282653 33.018593 0 33.018593"></polyline>
        <polygon id="path-9" points="22.9816932 0.0674761905 45.9633243 0.0674761905 45.9633243 59.1060476 6.21621629e-05 59.1060476 6.21621629e-05 0.0674761905"></polygon>
        <polygon id="path-11" points="32.9981622 63.7455619 30.4134595 61.2458476 26.8472162 61.7547048 30.5993243 50.2571333 36.7496486 52.2473714"></polygon>
        <mask id="mask-12" maskContentUnits="userSpaceOnUse" maskUnits="objectBoundingBox" x="-1.5" y="-1.5" width="12.9024324" height="16.4884286">
            <rect x="25.3472162" y="48.7571333" width="12.9024324" height="16.4884286" fill="white"></rect>
            <use xlink:href="#path-11" fill="black"></use>
        </mask>
        <polygon id="path-13" points="35.9842459 63.7449429 38.568327 61.2458476 42.1345703 61.7547048 38.3824622 50.2571333 32.2321378 52.2473714"></polygon>
        <mask id="mask-14" maskContentUnits="userSpaceOnUse" maskUnits="objectBoundingBox" x="-1.5" y="-1.5" width="12.9024324" height="16.4878095">
            <rect x="30.7321378" y="48.7571333" width="12.9024324" height="16.4878095" fill="white"></rect>
            <use xlink:href="#path-13" fill="black"></use>
        </mask>
        <path d="M40.2406135,48.7499381 C40.2406135,51.9120333 37.6664784,54.4761286 34.4906135,54.4761286 C31.3153703,54.4761286 28.7406135,51.9120333 28.7406135,48.7499381 C28.7406135,45.5878429 31.3153703,43.0237476 34.4906135,43.0237476 C37.6664784,43.0237476 40.2406135,45.5878429 40.2406135,48.7499381 Z" id="path-15"></path>
        <mask id="mask-16" maskContentUnits="userSpaceOnUse" maskUnits="objectBoundingBox" x="-1.5" y="-1.5" width="14.5" height="14.452381">
            <rect x="27.2406135" y="41.5237476" width="14.5" height="14.452381" fill="white"></rect>
            <use xlink:href="#path-15" fill="black"></use>
        </mask>
    </defs>
    <g id="Home,-Level-2,-etc" stroke="none" stroke-width="1" fill="none" fill-rule="evenodd">
        <g id="Home-Card-Art-Alt-03-2017" transform="translate(-147.000000, -66.000000)">
            <g id="home-card-/-ownership-copy" transform="translate(147.000000, 66.000000)">
                <mask id="mask-2" fill="white">
                    <use xlink:href="#path-1"></use>
                </mask>
                <use id="Rectangle-103" fill="#5C737F" fill-rule="evenodd" xlink:href="#path-1"></use>
                <g id="icon-/-copper-solid-/-gray" mask="url(#mask-2)">
                    <g transform="translate(22.000000, 31.000000)">
                        <mask id="mask-4" fill="white">
                            <use xlink:href="#path-3"></use>
                        </mask>
                        <g id="Clip-2" stroke="none" fill="none"></g>
                        <path d="M23.6136916,20.6359091 C24.5534318,20.6359091 25.4195357,20.130974 25.9288539,19.2841558 L24.4868084,18.4127922 C24.2843084,18.7520455 23.9573279,18.9545455 23.6136916,18.9545455 C23.0202175,18.9545455 22.5363214,18.3794805 22.5363214,17.6720455 C22.5363214,16.9663636 23.0202175,16.3921753 23.6136916,16.3921753 C23.9213864,16.3921753 24.2168084,16.5525974 24.4236916,16.8322403 L25.7754448,15.8311364 C25.2485942,15.1166883 24.4596331,14.7073052 23.6136916,14.7073052 C22.0918734,14.7073052 20.8558344,16.0353896 20.8558344,17.6720455 C20.8558344,19.3051948 22.0918734,20.6359091 23.6136916,20.6359091 M21.9630097,25.0234091 C21.4186266,23.5848701 18.7212565,20.8971429 18.063789,20.4728571 C17.7709968,20.287013 17.5211591,20.1257143 17.3449578,19.9258442 C17.1266786,19.6786364 16.9864188,19.5015584 16.89525,19.3770779 C16.9934318,19.3656818 17.1179123,19.3586688 17.2765812,19.3586688 C18.0927175,19.3586688 18.8080422,18.9913636 19.236711,18.3444156 C19.6329448,17.7518182 19.7100877,17.0119481 19.4427175,16.3693831 C19.3296331,16.0993831 18.9842435,15.2736039 19.1814838,15.0237662 C19.6311916,14.9098052 19.9555422,14.6327922 20.1001851,14.2383117 C20.4131396,13.3800974 19.7600552,12.3702273 18.8755422,11.1403247 L18.7054773,10.8948701 C18.7370357,10.8063312 18.78525,10.6993831 18.8211916,10.6108442 C19.1323929,9.88237013 19.7100877,8.52097403 18.7913864,7.25425325 C18.1426851,6.35571429 16.6234968,5.65441558 15.0131396,5.50188312 C13.1117435,5.33181818 11.3567435,5.90863636 10.0549578,7.14292208 C7.86339935,9.21525974 8.35606169,13.3371429 9.55352922,15.5164286 C9.70518506,15.7908117 9.86210065,16.0380195 10.0111266,16.2676948 C10.5169383,17.0505195 10.4836266,17.0978571 10.3179448,17.3117532 C10.1049253,17.5905195 9.82791234,17.8333442 9.53336688,18.1033442 C8.63219805,18.915974 6.43012013,20.8673377 5.74547727,23.3797403 C9.14239286,26.9958117 15.0596006,29.406526 21.9630097,25.0234091 M14.9246006,30 C6.69398377,30 8.76623372e-05,23.3017208 8.76623372e-05,15.0658442 C8.76623372e-05,6.82996753 6.69398377,0.131688312 14.9246006,0.131688312 C23.1543409,0.131688312 29.848237,6.82996753 29.848237,15.0658442 C29.848237,23.3017208 23.1543409,30 14.9246006,30"  stroke="none" fill="#758C99" fill-rule="evenodd" mask="url(#mask-4)"></path>
                    </g>
                </g>
                <g id="icon-/-oil-/-gray" mask="url(#mask-2)" fill-rule="evenodd">
                    <g transform="translate(109.000000, 26.000000)">
                        <g id="Group-3" stroke-width="1" fill="none" transform="translate(0.000000, 0.813953)">
                            <mask id="mask-6" fill="white">
                                <use xlink:href="#path-5"></use>
                            </mask>
                            <g id="Clip-2"></g>
                            <path d="M6.39697959,3.919701 L6.39697959,22.8526744 C6.07555102,23.0408804 5.85146939,23.3734385 5.85146939,23.7708638 L5.85146939,31.1766777 L0.476265306,31.1766777 C0.213612245,31.1766777 -0.000367346939,31.5850664 -0.000367346939,32.0839037 C-0.000367346939,32.5818272 0.213612245,32.9902159 0.476265306,32.9902159 L13.4114694,32.9902159 C13.6732041,32.9902159 13.8871837,32.5818272 13.8871837,32.0839037 C13.8871837,31.5850664 13.6732041,31.1766777 13.4114694,31.1766777 L8.0335102,31.1766777 L8.0335102,23.7708638 C8.0335102,23.3743522 7.8085102,23.0408804 7.48891837,22.8526744 L7.48891837,4.32352159 L6.39697959,3.919701 Z M7.48891837,2.49627907 L34.6367755,11.378505 L35.3182041,9.31372093 L7.28412245,0.14461794 C6.70922449,-0.0408471761 6.09391837,0.266129568 5.90473469,0.835315615 C5.74402041,1.3286711 5.96718367,1.8357309 6.39697959,2.09245847 L7.48891837,2.49627907 Z"  fill="#758C99" mask="url(#mask-6)"></path>
                        </g>
                        <g id="Group-6" stroke-width="1" fill="none" transform="translate(0.000000, 0.785394)">
                            <mask id="mask-8" fill="white">
                                <use xlink:href="#path-7"></use>
                            </mask>
                            <g id="Clip-5"></g>
                            <path d="M40.8464082,1.11100994 C40.6388571,1.11100994 40.4294694,1.16034549 40.2366122,1.25627572 C39.9124286,1.41707306 39.6653878,1.69572755 39.5588571,2.01914947 L33.7667143,19.547887 C33.6555918,19.883186 33.6831429,20.2431528 33.8438571,20.5592658 C34.0054898,20.877206 34.2800816,21.1120066 34.6171224,21.2207275 L35.4179388,21.4829368 C35.9790612,21.6665747 36.7789592,21.5085182 37.2262041,21.1321063 L42.0990612,17.0171561 C42.4801837,16.6946478 42.8879388,16.0916578 43.0468163,15.6156611 L44.6906939,10.6528704 C44.8440612,10.178701 44.873449,9.45511293 44.7595714,8.97363452 L43.2901837,2.78750495 C43.1524286,2.20370097 42.6151837,1.6208106 42.0412041,1.43260462 L41.2486531,1.17587705 C41.1200816,1.13202323 40.9832449,1.11100994 40.8464082,1.11100994"  fill="#758C99" mask="url(#mask-8)"></path>
                        </g>
                        <path d="M20.1828673,9.10332226 L18.9495,22.2539867 L18.2561327,22.2539867 C17.6904184,22.2539867 17.2174592,22.6852159 17.1687857,23.247093 L16.3615408,32.6245017 C16.3349082,32.9278239 16.4377653,33.2274917 16.6453163,33.4531561 C16.8510306,33.6751661 17.1430714,33.8039867 17.4498061,33.8039867 L28.2002143,33.8039867 L28.2222551,33.8039867 C28.8247041,33.8039867 29.3132755,33.3170266 29.3132755,32.7186047 C29.3132755,32.6107973 29.2985816,32.5075581 29.2682755,32.4116279 L28.479398,23.247093 C28.4307245,22.6852159 27.9577653,22.2539867 27.3902143,22.2539867 L26.7005204,22.2539867 L25.6811327,10.7916944 L20.1828673,9.10332226 Z" id="Fill-7" fill="#758C99"></path>
                    </g>
                </g>
                <g id="icon-/-gas-gray" mask="url(#mask-2)" fill-rule="evenodd" fill="#758C99">
                    <g transform="translate(5.000000, 44.078431) scale(-1, 1) translate(-5.000000, -44.078431) translate(-5.000000, 28.000000)">
                        <path d="M3.45991021,26.1940426 C1.85034792,26.2642559 0.572008979,27.5700696 0.572008979,29.1239192 C0.572008979,30.747982 1.92514029,32.0537957 3.60720539,32.0537957 L16.6226038,32.0537957 C18.3046689,32.0537957 19.6600898,30.747982 19.6600898,29.1239192 C19.6600898,27.4998563 18.3046689,26.1940426 16.6226038,26.1940426 L3.45991021,26.1940426 Z" ></path>
                        <path d="M11.4313266,0.536902357 C11.1390258,0.182783389 10.700193,0.00648709315 10.2979933,0.00648709315 C10.0789585,0.00648709315 9.85916049,0.0431200898 9.6767587,0.149203143 C9.05552413,0.430819304 8.72582716,1.06502806 8.83572615,1.736633 C9.78665769,6.60882155 9.30966554,9.29066218 8.54342536,10.2087767 C8.28775758,10.4812346 7.81229181,10.3507295 7.59249383,10.0668238 C7.15366105,9.53869809 6.97125926,8.69079686 7.15366105,7.84289562 C7.18876768,7.73910213 7.18876768,7.63301908 7.18876768,7.49106622 C7.18876768,6.7149046 6.53242649,6.07840629 5.76313356,6.04253648 L5.69139394,6.04253648 L5.58149495,6.04253648 C5.32430079,6.04253648 5.06939618,6.14861953 4.85036139,6.29057239 C4.7404624,6.36078563 4.6679596,6.43099888 4.55806061,6.53631874 L4.52066442,6.57295174 C1.08403143,10.5964759 -0.48813468,15.1504153 0.133099888,19.1044893 C0.448296296,21.1521212 1.37327946,22.9288215 2.77678114,24.3552189 C2.88133782,24.4613019 3.20035017,24.6643098 3.61323457,24.6643098 C4.02688215,24.6643098 4.5038743,24.6505724 4.5038743,24.6505724 C4.7893064,24.6505724 5.29529966,24.4773288 5.07626487,23.9957576 C4.59927273,22.9463749 4.75801571,22.0244444 5.61660157,19.9523906 C5.91042873,22.7044444 7.15366105,23.9766779 8.50602918,23.9766779 C10.6276902,23.9766779 13.0034927,20.8705051 12.3097553,15.5381145 C16.4462312,19.5318743 15.232,22.3327722 14.5840539,23.7729068 C14.2978586,24.4094052 14.6161077,24.6673625 15.0297553,24.6673625 L16.237881,24.6673625 C16.6194747,24.6673625 16.90567,24.4727497 17.2926061,23.993468 C18.6472637,22.3175084 19.6081167,20.5797306 19.8767587,18.5740741 C20.8650864,11.5145903 14.246725,3.81860831 11.4313266,0.536902357" ></path>
                    </g>
                </g>
                <g id="icon-/-renew-solid-/-gray" mask="url(#mask-2)" fill-rule="evenodd" fill="#758C99">
                    <g transform="translate(159.000000, 23.000000)">
                        <path d="M13.8259758,11.7640898 C15.9319152,11.7640898 16.2687636,3.08258586 16.2687636,2.99538047 C16.2687636,1.67650281 15.1733697,0.603461279 13.8259758,0.603461279 C12.4785818,0.603461279 11.3831879,1.67650281 11.3831879,2.99538047 C11.3831879,3.08258586 11.7200364,11.7640898 13.8259758,11.7640898" ></path>
                        <path d="M10.2686182,17.6888238 C10.1286182,17.4413266 9.82061818,17.1481504 9.15795152,17.1481504 C7.36086061,17.1481504 1.92716364,19.5035264 1.25346667,19.869789 C0.075769697,20.5109562 -0.346775758,21.9710236 0.308254545,23.1237957 C0.740133333,23.8812368 1.55892121,24.3513154 2.44558788,24.3513154 C2.8588,24.3513154 3.2677697,24.2450079 3.63261818,24.0456813 C3.71237576,24.0058159 11.2901939,19.4844242 10.2686182,17.6888238" ></path>
                        <path d="M26.3988242,19.869789 C25.7242788,19.5026958 20.2905818,17.1481504 18.4943394,17.1481504 C17.8308242,17.1481504 17.5236727,17.4413266 17.3836727,17.6888238 C16.362097,19.4835937 23.9390667,24.0058159 24.0188242,24.0456813 C24.3836727,24.2450079 24.7926424,24.3513154 25.206703,24.3513154 C26.0925212,24.3513154 26.9121576,23.8812368 27.3431879,23.1237957 C27.9982182,21.9710236 27.5765212,20.5109562 26.3988242,19.869789" id="Fill-7"></path>
                        <path d="M5.87923636,34.9488462 C5.64420606,34.9488462 5.45329697,35.3076341 5.45329697,35.7461526 C5.45329697,36.1846712 5.64420606,36.543459 5.87923636,36.543459 L21.7722061,36.543459 C22.0063879,36.543459 22.1981455,36.1846712 22.1981455,35.7461526 C22.1981455,35.3076341 22.0063879,34.9488462 21.7722061,34.9488462 L5.87923636,34.9488462 Z M14.7391152,33.2877912 L14.7391152,18.148936 C15.7038424,17.7876566 16.3919636,16.87989 16.3919636,15.8093401 C16.3911152,14.4223591 15.2422667,13.2986554 13.8261455,13.2986554 C12.4091758,13.2986554 11.2603273,14.4223591 11.2603273,15.8093401 C11.2603273,16.87989 11.9484485,17.7876566 12.9123273,18.148936 L12.9123273,33.2877912 L14.7391152,33.2877912 Z" id="Fill-9"></path>
                    </g>
                </g>
                <g id="icon-/-hard-mins-/-gray" mask="url(#mask-2)" stroke-width="1" fill-rule="evenodd">
                    <g transform="translate(191.000000, 27.000000)" id="minerals-solid">
                        <g>
                            <path d="M17.9087141,16.6739372 L14.9180075,11.4805787 C14.3909178,10.5628598 13.5791998,10.038449 12.6915808,10.038449 C11.805016,10.038449 10.9911896,10.5628598 10.4651541,11.4805787 L0.432529765,28.907722 C-0.0945598828,29.822269 -0.141997951,30.7896801 0.301811532,31.5614943 C0.746675195,32.3333086 1.60477714,32.7752516 2.66001062,32.7752516 L8.64458647,32.7752516 L17.9087141,16.6739372 Z"  fill="#758C99"></path>
                            <path d="M53.6587803,32.7756745 L57.0279373,32.7756745 C58.0831708,32.7756745 58.9412728,32.3326743 59.3861364,31.5619173 C59.8299459,30.7911603 59.7814536,29.8248065 59.2554182,28.9070876 L52.9978099,18.0393083 C52.4717744,17.1226467 51.6600564,16.5982359 50.7713832,16.5982359 C49.8837642,16.5982359 49.0720462,17.1226467 48.5449565,18.0393083 L46.8171567,21.0398685 L53.6587803,32.7756745 Z"  fill="#758C99"></path>
                            <path d="M22.0737765,13.9329392 L26.7300865,16.9578168 L29.9390082,13.0606834 C30.6505793,12.1968858 31.9335155,12.0710695 32.7989967,12.7805042 L35.9246383,15.3433505 L39.1388309,12.133449 L33.3724702,2.10937897 C32.8443264,1.19377465 32.0326083,0.668306576 31.1449894,0.668306576 C30.2563162,0.668306576 29.4445981,1.19377465 28.9175085,2.10937897 L22.0737765,13.9329392 Z" id="Fill-5" fill="#758C99"></path>
                            <path d="M40.4817499,14.5375976 L37.5079102,17.4652054 C36.7647138,18.276139 35.5155113,18.3681224 34.6626802,17.671375 L31.5876392,15.1487053 L28.4630518,18.941168 C28.0508677,19.4380895 27.435227,19.7034668 26.8153696,19.7034668 C26.417944,19.7034668 26.0194642,19.5966815 25.6705309,19.3704236 L20.7158882,16.2112715 L11.2282745,32.7756745 L51.1110398,32.7756745 L40.4817499,14.5375976 Z" id="Fill-7" fill="#758C99"></path>
                        </g>
                    </g>
                </g>
                <path d="M98.027434,79.9056757 L98.9505757,79.9056757 C100.057684,79.9056757 100.963386,78.999973 100.963386,77.8928649 L100.963386,22.6344324 C100.963386,21.5273243 100.057684,20.6216216 98.9505757,20.6216216 L57.012873,20.6216216 C55.9057649,20.6216216 55.0000622,21.5273243 55.0000622,22.6344324 L55.0000622,77.8928649 C55.0000622,78.999973 55.9057649,79.9056757 57.012873,79.9056757 L80.9543525,79.9056757 L79.6764506,83.8378281 L84.8969443,83.0898334 L88.6806296,86.7643214 L89.4912978,84.2693174 L90.3018997,86.7635701 L94.0848388,83.0898329 L99.3053359,83.8378281 L98.027434,79.9056757 Z" id="Combined-Shape" fill="#51636C" fill-rule="evenodd" mask="url(#mask-2)"></path>
                <g id="icon-/-deed-coal" mask="url(#mask-2)" stroke-width="1" fill-rule="evenodd">
                    <g transform="translate(59.000000, 16.000000)" id="Page-1">
                        <g>
                            <g id="Group-3" transform="translate(0.000000, 0.551571)">
                                <mask id="mask-10" fill="white">
                                    <use xlink:href="#path-9"></use>
                                </mask>
                                <g id="Clip-2"></g>
                                <path d="M43.9505757,59.1060476 L2.01287297,59.1060476 C0.905764865,59.1060476 6.21621629e-05,58.2040952 6.21621629e-05,57.1015714 L6.21621629e-05,2.07195238 C6.21621629e-05,0.969428571 0.905764865,0.0674761905 2.01287297,0.0674761905 L43.9505757,0.0674761905 C45.0576838,0.0674761905 45.9633865,0.969428571 45.9633865,2.07195238 L45.9633865,57.1015714 C45.9633865,58.2040952 45.0576838,59.1060476 43.9505757,59.1060476"  fill="#FFFFFF" mask="url(#mask-10)"></path>
                            </g>
                            <polygon  fill="#5C737F" points="32.9981622 63.7455619 30.4134595 61.2458476 26.8472162 61.7547048 30.5993243 50.2571333 36.7496486 52.2473714"></polygon>
                            <use id="Stroke-6" stroke="#FFFFFF" mask="url(#mask-12)" stroke-width="3" xlink:href="#path-11"></use>
                            <polygon id="Fill-8" fill="#5C737F" points="35.9842459 63.7449429 38.568327 61.2458476 42.1345703 61.7547048 38.3824622 50.2571333 32.2321378 52.2473714"></polygon>
                            <use id="Stroke-10" stroke="#FFFFFF" mask="url(#mask-14)" stroke-width="3" xlink:href="#path-13"></use>
                            <path d="M40.2406135,48.7499381 C40.2406135,51.9120333 37.6664784,54.4761286 34.4906135,54.4761286 C31.3153703,54.4761286 28.7406135,51.9120333 28.7406135,48.7499381 C28.7406135,45.5878429 31.3153703,43.0237476 34.4906135,43.0237476 C37.6664784,43.0237476 40.2406135,45.5878429 40.2406135,48.7499381" id="Fill-12" fill="#5C737F"></path>
                            <use id="Stroke-14" stroke="#FFFFFF" mask="url(#mask-16)" stroke-width="3" xlink:href="#path-15"></use>
                            <g id="Group-2" transform="translate(5.283784, 13.619048)" fill="#889FAB">
                                <path d="M30.3108033,5.53806295 C29.5187842,4.84149551 28.8906799,4.38837488 28.1297481,3.46102549 C27.5560465,2.76305085 25.9041815,2.94528415 25.0506944,2.51678963 C22.3665905,1.16798177 20.5592892,-0.34617291 17.4823551,0.470007121 C16.2431031,0.799997151 15.4666277,1.09691782 14.1821579,0.963233158 C12.5882283,0.798589944 10.7540788,1.12857997 9.57912102,2.4492437 C9.29721592,2.76727247 5.39434938,4.84149551 5.55331842,5.53806295 L30.3108033,5.53806295 Z" id="Fill-16"></path>
                                <path d="M34.5258143,8.03093007 C34.080701,7.38291127 33.2978668,7.08106538 32.3687811,7.08106538 L30.310662,7.08106538 L5.55317712,7.08106538 L2.55325472,7.08106538 C1.63194083,7.08106538 0.849106626,7.38291127 0.405406375,8.03093007 C-0.0178045323,8.64728671 -0.0905770257,9.40577126 0.204752122,10.1881783 L5.14974902,23.3103831 C5.66975441,24.6880387 7.22906405,25.7680701 8.77848228,25.8623529 C8.78837369,23.731138 10.5278482,21.8869933 12.6672182,21.8869933 C14.8136535,21.8869933 16.5587803,24.1068623 16.5587803,25.6540863 L18.4021146,25.6540863 C18.4021146,24.1068623 20.1479479,21.8869933 22.2943832,21.8869933 C24.4330467,21.8869933 26.1718147,23.6727389 26.1838257,25.8032502 C27.722646,25.6941917 29.2642924,24.6282324 29.7793521,23.2611309 L34.7257621,10.1902891 C35.0203847,9.40788207 34.9483187,8.64728671 34.5258143,8.03093007" id="Fill-18"></path>
                                <path d="M12.6675715,23.5486936 C13.9576936,23.5486936 15.0047696,24.5921376 15.0047696,25.8804356 C15.0047696,27.1694371 13.9576936,28.2135847 12.6675715,28.2135847 C11.3760364,28.2135847 10.3296668,27.1694371 10.3296668,25.8804356 C10.3296668,24.5921376 11.3760364,23.5486936 12.6675715,23.5486936" id="Fill-20"></path>
                                <path d="M22.2950898,23.5486936 C23.5859184,23.5486936 24.6322879,24.5921376 24.6322879,25.8804356 C24.6322879,27.1694371 23.5852118,28.2135847 22.2950898,28.2135847 C21.0035546,28.2135847 19.955772,27.1694371 19.955772,25.8804356 C19.955772,24.5921376 21.0035546,23.5486936 22.2950898,23.5486936" id="Fill-22"></path>
                            </g>
                        </g>
                    </g>
                </g>
            </g>
        </g>
    </g>
</svg>