<?xml version="1.0" encoding="UTF-8" standalone="no"?>
<!-- Generator: Adobe Illustrator 12.0.0, SVG Export Plug-In . SVG Version: 6.00 Build 51448)  -->
<svg
   xmlns:dc="http://purl.org/dc/elements/1.1/"
   xmlns:cc="http://web.resource.org/cc/"
   xmlns:rdf="http://www.w3.org/1999/02/22-rdf-syntax-ns#"
   xmlns:svg="http://www.w3.org/2000/svg"
   xmlns="http://www.w3.org/2000/svg"
   xmlns:xlink="http://www.w3.org/1999/xlink"
   xmlns:sodipodi="http://inkscape.sourceforge.net/DTD/sodipodi-0.dtd"
   xmlns:inkscape="http://www.inkscape.org/namespaces/inkscape"
   version="1.0"
   id="Layer_1"
   width="300"
   height="270"
   viewBox="0 0 49.850586 16.401367"
   style="overflow:visible;enable-background:new 0 0 49.8505859 16.4013672;"
   xml:space="preserve"
   sodipodi:version="0.32"
   inkscape:version="0.43"
   sodipodi:docname="IRS.svg"
   sodipodi:docbase="C:\Documents and Settings\David Nelson\Archives\Svg"><metadata
   id="metadata4911"><rdf:RDF><cc:Work
       rdf:about=""><dc:format>image/svg+xml</dc:format><dc:type
         rdf:resource="http://purl.org/dc/dcmitype/StillImage" /></cc:Work></rdf:RDF></metadata><defs
   id="defs4909">
	<defs
   id="defs4884">
		<rect
   height="16.401367"
   width="49.691406"
   id="XMLID_1_"
   x="0"
   y="0" />
	</defs>
	<clipPath
   id="XMLID_5_">
		<use
   id="use4888"
   xlink:href="#XMLID_1_"
   x="0"
   y="0"
   width="49.850586"
   height="16.401367" />
	</clipPath>
	
	
	
	
</defs><sodipodi:namedview
   inkscape:window-height="540"
   inkscape:window-width="756"
   inkscape:pageshadow="2"
   inkscape:pageopacity="0.0"
   borderopacity="1.0"
   bordercolor="#666666"
   pagecolor="#ffffff"
   id="base"
   inkscape:zoom="1.3810306"
   inkscape:cx="149.99998"
   inkscape:cy="135.55196"
   inkscape:window-x="88"
   inkscape:window-y="118"
   inkscape:current-layer="Layer_1" />

<g
   style="overflow:visible"
   id="g4896"
   transform="matrix(2.926299,0,0,2.925344,-1.81877e-5,-15.86067)">
		<defs
   id="defs4898">
			<rect
   x="0"
   height="15.336914"
   width="49.850586"
   y="0.55664063"
   id="XMLID_3_" />
		</defs>
		<clipPath
   id="XMLID_6_">
			<use
   height="16.401367"
   width="49.850586"
   y="0"
   x="0"
   id="use4902"
   xlink:href="#XMLID_3_" />
		</clipPath>
		<path
   id="path4904"
   d="M 16.835938,5.3017578 C 16.623047,3.4697265 16.498047,2.9960937 16.253906,2.5859375 C 16.057617,2.25 14.050781,1.3212891 11.148438,0.7197266 C 9.9541016,2.015625 9.9511719,2.53125 9.9257813,2.7451172 C 9.8916016,2.9648438 10.320313,3.5078125 10.75293,4.0732422 C 11.543945,5.1142578 11.758789,5.303711 11.878906,5.6201172 C 12.109375,6.2138672 11.727539,7.5478516 11.453125,8.7841797 C 11.451172,8.78125 10.740234,6.1728516 10.410156,4.4824219 C 10.379883,4.3232422 10.442383,4.2294922 10.44043,4.2324219 C 8.6464844,4.0546875 7.4443359,3.9765625 7.2275391,4.9228516 C 6.4042969,4.9238281 6.0253906,5.1611328 5.9453125,5.3017578 C 5.7304688,5.6542969 5.9882813,6.3916016 6.1240234,6.7578125 C 6.2392578,6.4697266 6.9755859,6.5175781 7.2128906,6.53125 C 7.3173828,6.5361328 7.3173828,6.5996094 7.3466797,6.6601563 L 7.3535156,10.203125 L 5.2441406,10.203125 L 3.4111328,15.164063 C 4.2607422,15.577149 5.1494141,15.892578 5.6992187,15.893555 C 6.2519531,15.893555 7.6123046,15.166016 7.8085937,15.164063 C 7.9941406,15.166016 9.3701171,15.892578 9.9257812,15.893555 C 10.472656,15.893555 11.361328,15.608398 12.213867,15.164063 L 10.379883,10.203125 C 10.379883,10.203125 8.5283202,10.203125 8.2705077,10.203125 L 8.2705077,6.8496094 C 8.2333983,6.6279297 8.1376952,6.5527344 8.0546874,6.538086 L 9.1279296,6.538086 C 8.9726563,5.9042969 8.7578125,5.4619141 8.4570313,5.4306641 C 8.5439453,5.3037109 8.609375,5.2529297 8.7324219,5.1425781 L 7.9052734,5.1425781 C 7.9941406,4.703125 9.0664062,4.8613281 9.5234375,4.8925781 C 9.9970703,7.2734375 10.895508,10.46582 10.931641,10.521484 C 10.969727,10.573242 11.727539,10.861328 11.818359,10.870117 C 12.255859,9.9189453 12.914063,7.1181641 12.952149,6.4394531 C 13.500977,6.6308594 13.28418,7.3740234 13.167969,8.1171875 C 12.547852,11.963867 12.056641,13.121094 11.908203,13.836914 C 12.457031,13.71875 12.798828,13.617187 12.855469,13.555664 C 12.942383,13.46875 13.193359,12.817383 13.414063,12.099609 C 13.730469,11.053711 14.265625,8.4013672 14.234375,7.3574219 C 14.230469,7.1054688 14.023438,6.8525391 13.65332,6.6601563 C 13.65332,6.663086 13.839844,6.3369141 13.928711,6.1289063 C 14.041016,5.8574219 14.174805,5.3984375 14.174805,5.4003907 C 14.389649,5.4619141 14.579102,5.5595704 14.607422,5.779297 C 14.72461,6.7890626 14.663086,6.8837892 14.540039,8.7460939 C 14.503906,9.3398439 14.296875,10.519531 14.084961,11.750977 C 13.69043,14.012696 13.317383,14.979492 13.317383,15.323242 C 13.898438,15.134766 14.345703,14.989258 14.390625,14.914063 C 14.448242,14.805664 14.876953,13.711914 15.180664,12.069336 C 15.311524,11.367188 15.405274,10.670899 15.515625,9.9521485 C 15.671875,9.0019532 15.702149,8.0195313 15.703125,7.1982422 C 15.703125,5.9990234 15.842774,5.9931641 14.97168,5.5214844 C 15.305664,4.5449219 15.234375,3.90625 15.151367,3.7236328 C 15.000977,3.375 14.818359,3.375 14.047852,3.4355469 C 14.327149,3.6914063 14.240234,4.2294922 14.174805,4.5429688 C 14.023438,4.4189454 14.082031,4.1972657 13.257813,4.2324219 C 13.134766,2.8691406 12.885742,2.71875 12.855469,2.6767578 C 12.737305,2.5224609 12.056641,2.5947265 11.848633,2.6767578 C 12.000977,2.7753906 12.308594,3.8496094 12.154297,4.2626953 C 12.0625,4.1337891 10.901367,2.8066406 10.991211,2.5556641 C 11.047852,2.4023438 11.116211,2.2373047 11.513672,1.7666016 C 12.889648,2.015625 15.24707,2.9013672 15.367187,3.1542969 C 15.513672,3.4609375 15.650391,3.8144532 15.732422,4.3535157 C 15.861328,5.1367188 16.094727,7.0078126 15.978516,9.8535157 C 15.858398,12.794922 15.479492,14.463867 15.486328,14.375 C 15.920898,14.240235 16.628906,13.573242 16.686523,13.426758 C 16.871094,12.944336 16.958008,11.214844 17.022461,9.6337891 C 17.082031,8.0537109 16.920898,6.0556641 16.835938,5.3017578 M 5.6992188,14.853516 C 5.2832032,14.849609 4.6308594,14.787109 4.6328125,14.785156 L 5.6992188,11.65918 L 6.6835938,14.785156 C 6.6806641,14.787109 6.0810547,14.849609 5.6992188,14.853516 M 10.991211,14.785156 C 10.991211,14.787109 10.338867,14.849609 9.9257812,14.853516 C 9.5439453,14.849609 8.9443359,14.787109 8.9414062,14.785156 L 9.9257812,11.65918 L 10.991211,14.785156 z M 8.2705078,12.349609 L 8.2705078,11.151367 L 9.1875,11.151367 L 7.8085937,15.042969 L 6.4375,11.151367 L 7.3535156,11.151367 L 7.3535156,12.007813 C 7.3515625,12.004883 7.3544922,12.086914 7.383789,12.099609 C 7.5068359,12.163086 7.5341796,12.163086 7.5322265,12.160156 L 8.2705078,12.349609 z M 8.3896484,6.0302734 L 6.8017578,6.0302734 C 6.6806641,5.6513672 6.7958984,5.5566406 7.1376953,5.5214844 C 7.7802734,5.4619141 8.3330078,5.4619141 8.3896484,6.0302734 M 12.855469,4.3232422 C 13.439453,4.2294922 13.165039,5.272461 13.011719,5.6816406 C 12.798828,5.1767578 12.643555,4.8925781 12.28125,4.421875 C 12.492188,4.3554688 12.646484,4.3554688 12.855469,4.3232422" />
		<path
   id="path4906"
   d="M 7.078125,0.8789063 C 8.0380859,0.4921875 9.0068359,0.5625 9.2773438,0.5605469 C 9.0908203,1.15625 8.3017578,2.3007813 7.4736328,2.7148438 C 7.0224609,2.9365234 6.1337891,3.1162109 5.5800781,3.2832031 C 4.9355469,3.4697266 3.9443359,3.8056641 3.1943359,4.3837891 C 2.6679688,4.7919922 2.4257813,5.3671875 2.4863281,6.1591797 C 2.9472656,5.6513672 3.9257812,5.0195313 4.7226562,4.7626953 C 4.5058594,5.4931641 4.5410156,6.0839844 4.2900391,6.7578125 C 4.1337891,7.1845703 2.9472657,8.2119141 2.6132813,8.7460938 C 2.3730469,9.131836 2.2451172,9.7705079 2.3369141,10.332031 C 2.334961,10.330078 2.6435547,9.928711 2.8515625,9.694336 C 3.3544922,9.1572266 4.3232422,8.4960938 4.3203125,8.4960938 C 4.3232422,8.8564454 4.1708984,10.424805 3.984375,11.09082 C 3.8388672,11.635742 2.8544922,12.668945 2.5830078,12.956055 C 2.5810547,12.953125 2.8662109,13.714844 3.0380859,14.21582 C 3.1923828,14.660156 3.2519531,14.976563 3.2539062,14.97461 C 2.9160156,14.84961 1.3261718,14.186524 0.8310546,13.677735 C 0.2734374,13.098633 0.2421874,12.451172 0.1308593,11.750977 C 0.0996093,11.53125 -0.0410157,10.15918 0.0117187,9.8837892 C 0.008789,9.8867189 0.8417968,10.465821 1.2636718,10.960938 C 1.7236327,11.499024 2.0595702,12.004883 2.0615234,12.007813 C 2.0283203,11.78418 1.984375,11.59082 1.9716796,11.439453 C 1.9228515,11.018555 2.1923827,10.708984 2.1503905,10.612305 C 2.1503905,10.614258 2.1210936,10.519531 2.001953,10.263672 C 1.7636717,9.779297 0.6171874,8.9638673 0.3173827,8.4345704 C 0.1835938,8.2216797 -0.1123047,7.7373047 0.0712891,5.2714844 C 0.0712891,5.2714844 0.9814454,6.2333985 1.4501954,6.8496094 C 1.7421876,7.2441407 2.0595704,7.8642578 2.0615235,7.866211 C 1.96875,7.0107422 2.3046875,6.5683594 2.2773438,6.5615234 C 2.2734375,6.5361328 2.2148438,6.2207031 2.0908203,6 C 1.6621094,5.2402344 0.6425781,4.8164063 0.5039063,3.9140625 C 0.3847657,3.2109375 0.6835938,2.6484375 2.2705079,2.0166016 C 2.5810547,3.1220703 2.3974609,4.0712891 2.3671875,4.953125 C 3.1308594,4.2919922 3.0371094,2.6171875 3.4111328,2.0166016 C 3.5410156,1.7949219 3.7148437,1.5585938 4.2900391,1.319336 C 4.8300782,1.0996094 5.1494141,0.9414063 5.6689454,0.8789063 C 5.6591798,0.9414063 5.3759766,1.9619141 5.147461,2.4570313 C 4.8730469,3.0595703 4.4970703,3.2929688 4.4765625,3.3447266 C 5.0869141,3.1855469 5.546875,2.9013672 5.9453125,2.2978516 C 6.078125,2.1015625 6.2333984,1.8837891 6.4072266,1.6074219 C 6.5654297,1.3427734 6.7363281,1.0175781 7.078125,0.8789063" />
	</g></svg>