<svg width="225" height="91" viewBox="0 0 225 91" xmlns="http://www.w3.org/2000/svg" xmlns:xlink="http://www.w3.org/1999/xlink"><title>home-card / case-studies</title><defs><path d="M0 7.996C0 3.58 3.58 0 8.008 0h208.984C221.415 0 225 3.58 225 7.996V91H0V7.996z" id="a"/><path id="c" d="M352.383 160.49V.12H0v160.37h352.383z"/></defs><g fill="none" fill-rule="evenodd"><mask id="b" fill="#fff"><use xlink:href="#a"/></mask><use fill="#5B7381" xlink:href="#a"/><g mask="url(#b)"><path d="M294.723-29.808c-2.292-.294-1.464 1.65-1.293 3.136-.465.007-1.128.095-1.578-.017l1.23-.15-.997-3.79c-2.58 1.222-3.71.965-6.302 2.197-.576-1.424-.703-3.788-1.778-4.948.404.253.64.572 1.197 1.172 1.027 1.11-.26 2.517 2.273 2.324-.11-1.146.63-1.592 1.87-1.54-.6-.296-1.16-.787-1.786-1.02.96.21 1.92.42 2.88.628-.28-.25-.536-.54-.806-.81.648.48 1.323.493 2.026-.047-.77-.808-1.543-1.615-2.315-2.423 1.25.89 2.21 1.924 3.768 1.936-.524-.643-.944-1.458-1.543-2.03 1.027.938 1.97 1.955 2.932 2.957-1.103-1.967-2.807-4.9-4.548-5.358-1.422-.376-5.012 1.013-6.523 1.342-4.694 1.023-9.737 2.028-14.612 2.975-8.924 1.734-17.883 3.398-26.914 4.457-1.85.222-3.947.18-5.746.667-2.77.75-1.655.98-2.835 3.345-.22.44-.55.9-.922 1.338 1.137-1.505 1.054-3.09 1.882-4.817-9.158.86-18.278 3.07-27.462 3.998-9.336.943-18.71 1.334-28.003 2.4-3.34.32-6.403.575-9.755.4.32.68.056 1.628.367 2.312-3.002.215-6.004.427-9.005.642-1.203.087-4.158-.288-5.255.435-1.14.753-.964 1.43-.633 3.206-.532-.052-1.122.222-1.648.133 1.633 1.177.66 2.24.28 3.55-.046.162-.067.286-.075.39-.192-.25-.503-.466-.955-.626-1.483-.53-4.436.333-6.04.445.71-1.116 2.858-3.447 2.807-4.55-.13-2.77-2.473-1.982-4.39-1.874-3.37.19-6.737.394-10.108.54-7.156.307-14.31.602-21.47.768-3.51.087-7.02.15-10.532.205-.005-1.504.497-5.142-.124-5.993-.667-.914-3.144-.436-4.634-.422-26.844.24-53.73-.505-80.498-2.575l-.166 2.222c.114-2.713-.692-2.287-4.292-2.552-6.01-.443-12.01-.96-18.008-1.523-7.744-.786-15.47-1.64-23.194-2.6-3.652-.453-7.305-.905-10.953-1.39-1.927-.254-3.558-.915-4.536.1-.918.955-.753 5.415-.94 6.756-1 7.21-1.993 14.424-3.002 21.635-2.023 14.462-4.02 28.927-6.05 43.388l9.122 1.2c.145-1.12.125-5.237.888-5.73.998-.642 5.624.7 6.824.85 3.72.46 7.447.88 11.172 1.305-1.11-.736-1.23-1.35-.914-1.82.013.3.13.697.39 1.23.403.832 1.535.78 2.03 1.42.655.847.612 2.232 1.268 3.077.98 1.264 2.656 2.49 3.81 3.783 1.16 1.298 2.29 2.624 3.484 3.88 2.543 2.675 4.847 4.253 6.304 7.71.655 1.552 1.276 2.855 1.58 4.478.376 2.014-.226 3.27 1.152 5.216 1.87 2.64 4.873 4.583 7.672 6.083 2.684 1.44 4.7 4.788 7.752 3.436 3.43-1.518 2.24-6.623 5.365-8.476.647-.383 1.757.21 2.46-.097-.032.014 2.08-1.272 1.46-1.266.855-.008 3.005 1.07 4.28 1.264 1.418.214 4.25-.293 5.394.323 1.294.698 1.508 2.615 2.308 3.49 1.217 1.332 3.004 2.198 4.316 3.618 1.315 1.423 1.163 2.34 1.76 3.924.592 1.57 1.793 3.2 2.35 4.68.558 1.483.837 3.374 1.736 4.745.91 1.39 2.604 1.753 3.49 3.46.91 1.75.59 2.387 2.078 3.935 1.17 1.218 2.323 1.008 2.89 3.1.442 1.628-.388 3.728.138 5.268.486 1.42 1.87 2.7 2.473 4.238.825 2.1.626 2.81 2.374 3.92 1.41.895 3.582 1.416 4.773 2.02 1.317.668 2.904 1.99 4.217 2.48 1.416.528 3.12-.2 4.626.218 1.606.446 2.777 2.53 4.32 2.598 3.655.16 2.896-6.357.107-6.96.69-1.653-.353-3.35-.66-4.843-.52-2.52 1.06-3.426 1.09-6-1.415.7-2.643.062-4.05-.33 1.337.13 2.595-.608 3.578-1.496-.245.516-.258 1.14-.495 1.66 1.85-.67 2.082-3.696 2.988-5.336-.882-.707-1.41-2.033-2.676-1.87 3.608-.578 3.783-.207 5.346-3.422-.412.69-1.29 1.203-1.83 1.805-1.274-1.614.624-2.052 1.928-2.943 1.376 3.528 2.613-2.302 2.663-3.104 1.204 2.472 2.642 1.022 4.398.093-1.24-1.023-2.785-1.842-2.95-3.583.95.545 1.477.866 2.53 1.467l.082-1.276c1.15 1.11 2.802 1.22 4.314 1.587l-3.26 1.872 7.117-3.615c-.965.407-1.932.814-2.9 1.22.256-1.15 4.126-1.938 5.437-2.8 2.028-1.338 3.43-3.112 4.715-4.61.956-1.114 1.697-.992 1.802-2.466.092-1.29-1.33-1.325-.918-2.854.262-.975 1.54-2.482 2.472-2.087 1.125.476.32 2.078.148 3.185 1.003-.146 2.005-.29 3.006-.437l-3.217 2.12c3.007-1.472 6.777-4.034 10.223-3.987-.278-.213-.47-.417-.594-.614.806 1.135 3.464-.286 4.868-.475 4.925-.666 10.666 4.78 15.046 1.453-1.468-1.62 1.403-3.175 3.027-2.86l-.27 1.182c3.46-1.055 1.76 1.154 3.55 2.64.65.537 3.308-.144 3.69-1.05-1.183 2.184 1.38 3.078 2.09 5.01.17-.69.742-1.28.944-1.962.465.193 1.406.838 1.737 1.218-.52.244-.926.783-1.46.994 1.932.773 4.15-.177 3.888-2.114 1.033-.083 2.045.15 2.065 1.058l.515-1.17c1.2 2.517 2.457 3.458 3.22.527.736-2.82-3.032-2.68-1.46-5.433.536 3.39 3.117 1.97 5.56 3.063.725.324.73-.677-.652-2.41.966-.3 1.12-.687 2.105-.714-.47-.31-.784-.88-1.267-1.17 4.413.304 2.462-1.428 2.03-4.122-2.302.797-1.62 4.613-4.542 1.045 1.155-.99 2.105-2.048 3.57-2.498 1.063.09 2.02-1.824 1.847-2.627 1.042 1.93 3.386-.87 4.993-1.06.295-.033 1.805.62 2.28.673 1.207.132 1.335-.81 2.282.375.423-.382.676-1.044.808-1.893.372.71 1.192.892 3.24.804-.245-1.832.332-3.556.715-5.337 1.21 1.388.58 5.08 3.356 6.138-.786.275-1.582.724-2.394.9 2.5-.487 5.493-1.347 6.064-3.428.143.103.347.206.647.31-.446.476-.7 1.255-1.203 1.67 1.817-.125 3.518-1.358 2.838-3.288.68.924 1.69 1.32 2.763.92-.835.518-1.67 1.038-2.504 1.558 2.193-.593 4.63-1.166 6.657-1.666.317-.078 1.003-.922 1.277-.992.068-.017.63.362.927.352 1.214-.042 1.742-.504 2.897.625l-3.227.238c1.91 1.178 5.312 1.56 7.647 2.73l-.058-.785c1.32.493 2.785.994 3.996 1.57l-1.298.09c1.36.954 2.953 2.36 2.667 4.163 1.17-.2 2.33-.46 3.485-.733-.25-.223-.473-.52-.7-.754 2.884 1.38 4.408-2.943 7.49-2.49-2.94-1.06 1.288-2.813 2.593-2.828 1.796-.02 3.76.917 5.256 2.033 2.948 2.2 3.977 5.227 7.296 7.252 1.59.97 2.746.88 4.112 2.71 1.363 1.828 1.928 3.647 1.92 5.838-.008 1.94-.643 3.78-.84 5.707-.306 2.975.08 3.108 2.536 4.635.595-1.43.133-2.506-1.332-2.783l.654-1.157 3.334 2.078c-.492.772-2.397 3.01-2.422 4.05-.032 1.353.61 1.035 1.48 2.35 1.33 2.004 2.438 6.262 5.506 6.115-.544-.81-1.104-1.63-1.602-2.45 1.884.343 2.168 1.444 2.744 2.95.24.626.16 1.834.542 2.38.352.5 1.304.282 1.607.71 1.517 2.148 1.63 5.106 4.52 6.593 1 .515 2.495.388 3.38 1.004 1.37.953 1.735 3.366 3.003 4.46.914.79 1.69.565 2.81 1.29.917.59-1.44.722-2.556-.447-1.787 4.506 5.168 1.114 6.51.532 2.87-1.244 2.314-1.787 2.633-5.312.13-1.428 1.176-2.68 1.394-4.096.236-1.532-.212-3.478-.308-5.04-.117-1.915-.092-7.814-2.06-8.37.08-.067.453-.056.535-.087-.493-1.464-1.683-1.476-2.328-2.417-.547-.797.257-.644-.11-1.232-1.23-1.973-2.45-3.935-3.693-5.9-2.404-3.8-4.67-7.762-6.25-11.968 2.108.476 2.13 3.147 2.603 4.904l.75-2.66c.01.69.328 1.388.39 2.075 1.37-1.78-1.826-3.48-2.786-4.475-1.833-1.898-3.38-4.913-5.017-7.28-.163-.237-.342-.553-.532-.925l.457.775c-.194-.382-.448-.84-.72-1.306-.814-1.698-1.824-4.207-2.93-6.3-.318-.964-.68-1.89-1.37-2.232-.696-.925-1.41-1.524-2.12-1.535.65-.56 1.436-1.452 1.05-1.903.09.01.18.02.265.033.26-1.968-.49-2.332-1.725-2.462.264-.154.465-.36.607-.604.067.124.144.25.232.374.133-.88.318-1.767.4-2.653-.19.093-.344.2-.472.315-.217-.774-.706-1.513-1.388-1.937l1.35.353c-.226-1.263-.27-2.993-1.01-3.775 2.892-.217-.236-3.025 2.527-3.477-.627-.107-1.19-.592-1.81-.735.476-.302.744-.924 1.213-1.238-.392-.264-.785-.528-1.178-.79.522.357 1.29.508 1.868.773-.194-1.412.202-1.347-1.09-1.96.734-.855 1.73-.708 2.65.012-.44-1.21-.97-2.33-1.554-3.387.234.047.558.042 1.01-.025 3.228-.48 1.087-3.78.76-5.935l3.032.42-.257-.78c.56.265 1.284.19 1.848.45l-.284-1.218c1.45 2.998 5.71-1.665 4.306-4.717.15.326.302.65.452.977.332-.515.874-1.01 1.124-1.568-.34.665-.54 1.41-.847 2.09 1.584-.868 1.706-2.142 2.934-3.314 1.075-1.027 2.167-.323 2.99-2.16-.484-.12-.978-.43-1.47-.49 3.16.634 2.173-3.127 3.137-5.266.936-2.077 2.34-3.56 3.916-5.157-.146-.104-.296-.216-.45-.33 1.508.46 2.856-.118 4.53-.855 1.198-.527 1.33.455 2.018-.916.367-.732-.28-2.272-.442-3.07.148.58.533 1.14.75 1.702.452-1.015 1.46-2.878 1.26-3.413 1.1-1.327 5.844-5.3 4.94-7.004.996 1.214 5.025-.275 5.24-1.87l.72 1.044 2.422-3.645c-.563.31-1.288.333-1.865.617l.24-.815c-1.33.298-2.5.516-2.387 1.85-2 .202-3.723-2.213-5.02-1.272 1.346-2.294 2.53.797 3.917.382 1.672-.5 2.51-3.433 1.87-4.8l-1.028.742c-.474-1.81-4.393-.72-5.575-2.593 1.67 1.11 3.728.923 5.67 1.085-1.172-.977-.986-1.9.332-2.478-1.112.935-.437 1.83.78 2.465 1.076-1.624 2.272.19 3.495-.486.933-.517 1.947-3.19 1.69-4.127.512.074 1.08-.23 1.592-.158-.425-1.6-.26-2.912-1.65-3.09" fill="#758C9A"/><g transform="translate(-55 -38.783)"><mask id="d" fill="#fff"><use xlink:href="#c"/></mask><path d="M349.926 11.223c-.205-.03-.413.004-.595.092-.01-.064-.023-.127-.034-.19-.064-.35-.166-.907-.138-1.163.076-.01.214-.014.436.015.265.034.336.043.556 1.215l.002.01c-.095.016-.183.028-.226.02zm-2.328 4.244c-.126.07-.33.016-.74-.11-.53-.167-1.51-.474-2.413.176-.092-.083-.146-.148-.17-.19.023-.036.077-.105.19-.2.385-.324.473-.88.207-1.307-.266-.426-.806-.59-1.266-.39-1.26.554-1.616 1.328-1.695 1.88-.017.125-.024.264-.012.414-1.236-.066-2.39-.195-3.325-.816-.397-.264-.925-.215-1.267.117-.342.333-.404.86-.15 1.262.83 1.317 2.436 1.57 3.725 1.775.66.105 1.657.263 1.728.535.085.323.324.583.638.696.168.06.345.074.516.043-.054.314-.15.646-.293.966-.27.6-.65 1.023-.987 1.13-.137-.014-.498-.286-.714-.45-.578-.434-1.295-.975-2.215-.793-.63.126-1.152.557-1.6 1.32-.242.413-.16.938.194 1.258.354.322.886.35 1.274.07.166-.12.83.244 1.313.51.79.434 1.754.965 2.86.968-.198.244-.653.608-1.387.903-1.005.404-1.728.36-1.927.267-.042-.063-.09-.125-.14-.185-.33-.393-.902-.478-1.332-.196-.428.282-.578.84-.346 1.298.037.072.077.142.12.208.07.582-1.126 2.106-3.55 4.53-.556.556-.994.994-1.275 1.333-.2.238-.274.55-.21.85-.026.17-.14.476-.283.814-.238-.255-.6-.378-.964-.295-.535.122-.875.648-.766 1.185.05.244.13.52.215.814.127.437.39 1.35.314 1.604-.042.083-.076.147-.105.196-.312-.026-.783-.03-1.416.248-1.62.713-2.62 1.108-3.675.847-.934-.713-1.993-1.612-3.105-2.556-3.368-2.862-7.187-6.106-10.507-6.83-1.782-.39-4.233.202-6.395.726-.912.22-1.773.43-2.45.53-.226.033-.452.073-.674.112-.442.078-.96.17-1.307.153-.116-.203-.245-.508-.333-.717-.154-.364-.327-.766-.565-1.123-.19-.414-.477-.79-.98-.97-.446-.16-.89-.1-1.303.057l-.074-.073c-.85-.774-2.394-.848-4.296-.65-1.148.095-2.432.285-3.79.503-.538.087-1 .16-1.275.19-.005 0-.008 0-.012.002-2.636.29-5.182.678-7.93 1.967-4.906 2.3-9.68 3.1-15.688 3.827.006-.19.004-.38 0-.57l-.002-.258c.09-.21.225-.42.423-.715.082-.048.277-.116.41-.164.412-.145.925-.325 1.29-.76.113-.134.193-.278.252-.426.54-.66.653-1.183.718-1.664.025-.18.046-.304.26-.505.504-.285 1.074-.486 1.695-.704.673-.236 1.367-.48 2.046-.863 1.618-.91 4.202-3.114 5.2-4.17.334-.353.61-.863.903-1.402.153-.282.47-.866.76-1.254.218-.176.42-.314.52-.314h.007s.062.008.19.1c.097.075.215.182.354.338.035.04.076.068.116.1.026.023.05.05.077.068.057.038.12.066.185.092.014.006.028.016.043.02.06.023.125.033.19.042.02.003.04.01.06.013.046.004.092-.003.14-.006.04-.002.078.002.118-.005h.006c.033-.007.063-.022.097-.032.05-.014.1-.025.147-.047.032-.014.06-.037.09-.055.043-.026.088-.048.127-.08.03-.023.05-.053.077-.08.034-.034.07-.065.1-.104.023-.033.04-.072.06-.108.02-.04.047-.073.063-.115.065-.162.14-.307.217-.445.345-.584.787-.75 1.444-.983.223-.08.463-.168.708-.277.358.11.793.147 1.2-.16.35-.267.548-.644.74-1.008.1-.19.236-.447.327-.53.355-.32.647-.646.89-.975.4-.478.752-.98.994-1.464.414-.833.576-1.43.694-1.866.16-.59.16-.59 1.498-.953 1.094-.297 2.372-.385 3.608-.47.66-.045 1.343-.092 1.995-.17 9.283-1.09 18.422-2.805 26.986-4.47 5.038-.977 8.99-1.773 12.465-2.51-.173.16-.29.383-.314.633-.05.488.26.94.733 1.074.776.218 1.172.336 1.454.49.37.464.633 1.303.95 2.632.162.686.316 1.335.548 1.908.104.258.31.462.57.563.26.102.55.09.803-.028 1.212-.577 2.072-.8 2.983-1.04.678-.175 1.37-.356 2.205-.678l.405 1.538-.08.01c-.485.06-.858.455-.887.94-.03.486.29.924.764 1.042.478.118 1.004.088 1.47.063.13-.008.256-.015.37-.017.108 0 .214-.02.315-.055-.18.857-.775 2.166-1.164 2.402zm-2.185 7.738l-.205.31c-.153-.143-.345-.233-.55-.262 0-.01 0-.02-.002-.03-.015-.174-.024-.288.278-.42.056.088.126.17.21.24.082.07.173.123.27.162zm-23.58 21.55c-.363.805-.483 1.712-.6 2.59-.107.81-.24 1.82-.58 2.062-.123.088-.358.11-.67.064-.078-.015-.16-.03-.24-.04-.546-.067-1.036.306-1.123.842-.078.485.205.948.655 1.11l-.203.065c-.453.14-1.073.335-1.673.908-.376.358-.66.72-.902 1.066l-.048-.023c-.494-.236-1.09-.037-1.338.45l-.07.138c-.012.024-.027.05-.043.074-.284-.19-.655-.23-.987-.08-.507.233-.73.832-.497 1.34.675 1.467-.59 3.628-1.713 4.156-.397.186-.56.12-.763-.3-.224-.462-.763-.683-1.247-.512-.38.133-.633.472-.67.852-.047-.014-.088-.03-.123-.045-.367-.174-.8-.112-1.104.154-.114.1-.2.222-.26.356l-1.708-.237c-.316-.043-.634.064-.86.29-.223.228-.327.547-.28.862.093.604.3 1.254.498 1.882.284.896.673 2.123.4 2.557-.134.216-.563.31-.807.346-.104.015-.19.025-.265.032-.1-.173-.2-.345-.302-.515-.057-.472-.16-1.063-.493-1.704-.58-1.122-1.47-1.768-2.194-2.286l-.32-.444c-.326-.453-.653-.906-.976-1.362-.22-.31-.408-.624-.588-.943 0-.003 0-.005-.002-.007-.322-.976-.688-2.082-1.495-2.973-.406-.448-.89-.775-1.373-1.05-1.77-1.39-2.53-2.206-4.044-3.827l-.278-.297c-.934-1-2.005-1.823-3.084-2.592-.243-.212-.492-.42-.755-.623-2.102-1.617-3.26-2.945-4.86-4.78-.38-.44-.784-.9-1.225-1.396-.46-.513-.788-.84-1.087-1.068-.346-.326-.73-.635-1.184-.92-.665-.417-1.484-.79-2.277-1.154-.498-.228-1.01-.462-1.477-.704.192-.715.65-1.536 1.094-2.335.01-.016.017-.03.025-.046.975-.692 2.212-1.266 2.964-1.613.194-.09.37-.17.525-.245 3.153-1.514 4.97-2.322 8.608-2.713.365-.04.735-.078 1.112-.118.357-.037.842-.117 1.404-.21.946-.157 1.77-.273 2.466-.35 1.47-.13 2.4-.092 2.77.115v.02c0 .082.01.162.03.24 0 .005.003.01.005.018.022.08.052.16.093.23v.003c.042.074.093.14.152.202l.01.013c.058.058.124.11.197.152.005.003.008.008.013.01l.012.007.014.008.06.028c.02.01.04.02.06.027.025.01.05.016.075.024.023.007.045.015.067.02.025.006.05.01.076.012.022.004.044.008.067.01.026.002.052 0 .078 0 .022 0 .044.002.066 0 .026 0 .053-.005.08-.01.02-.002.04-.004.062-.008.027-.005.054-.014.08-.022.02-.006.04-.01.06-.017.026-.01.05-.023.077-.034.02-.008.038-.015.056-.025.024-.013.048-.03.072-.046l.05-.03c.068-.053.128-.093.186-.132.094-.06.165-.098.217-.12.032.113.064.237.09.337.172.68.41 1.613 1.24 2.096.072.042.145.072.217.104.112.087.23.167.365.23.952.448 2.474.12 4.52-.392.52-.13 1.012-.254 1.293-.295.3-.043.586-.086.86-.128 3.35-.502 4.736-.71 7.6 1.31.863.61 1.87 1.47 2.935 2.377 1.987 1.694 4.206 3.584 6.292 4.523-1.298 1.374-2.37 2.703-3.163 4.464zm-19.68 24.666c-.202.237-.284.553-.223.858-.244.052-.47.195-.62.418-.315.46-.197 1.084.26 1.4l.05.03.158.108c-.078.093-.153.17-.212.21-.344.218-.522.62-.453 1.022.068.394.362.71.75.807-.27.6-.206 1.265-.17 1.657.016.156.038.377.03.498-.063.023-.187.055-.407.072-.39.03-.727.28-.868.642-.14.363-.06.774.208 1.057.27.286.422 1.028.527 1.727-.443-.06-.88.183-1.06.6-.198.46-.03.993.393 1.257.32.198.592.524.777.895-.12.204-.194.403-.24.578-.09.355-.09.73-.01 1.113-.02 0-.038 0-.057-.002-.287-.02-.592-.038-.908-.072-.187-.02-.36-.04-.522-.062-1.098-.434-2.965-1.062-4.032 1.184-.374.786-.046 1.71.32 2.685.022.16.047.322.075.493l.015.105c-.036-.032-.08-.06-.12-.09-.16-.39-.385-.74-.753-.956-.616-.36-1.44-.214-2.235-.072l-.34.058c-4.568-.32-9.463.234-14.2.772-2.333.265-4.54.514-6.7.666l-.694.047h-.003c-.098.007-.203.017-.315.03-.314.025-.61.05-.89.075-3.42.297-3.553.31-5.283-3.163-.716-1.436-.763-2.084-.857-3.374-.03-.422-.065-.9-.128-1.478-.1-.92-.417-1.757-.722-2.565-.11-.29-.212-.57-.304-.846-.018-.094-.038-.187-.056-.285-.28-1.436.102-2.835.47-4.19.29-1.063.565-2.067.55-3.1-.025-1.694-1.037-3.254-2.015-4.762l-.128-.196c-1.158-2.515-2.057-4.99-2.848-7.843-.113-.41-.23-.82-.344-1.23-.05-.182-.097-.366-.148-.546-1.326-4.742-2.696-9.646-4.088-14.503-.17-.59-.292-1.13-.4-1.604-.173-.76-.344-1.427-.608-1.975l-.005-.016c2.768-.256 5.518-.56 8.202-.89.824-.07 1.565-.153 2.21-.28 4.18-.544 8.14-1.138 11.676-1.696-.173.26-.32.53-.423.818-.3.826-.25 1.702.146 2.534l.027.05.003.006c.287.544 1.032 1.145 3.75 2.49.62.308 1.038.458 1.343.568.234.084.387.14.557.257.555.55 1 1.202 1.57 2.045.162.238.33.487.51.747 1.348 1.942 3.22 3.245 5.03 4.506.286.2.567.395.844.59.897.796 1.676 1.673 2.488 2.592.88.996 1.792 2.026 2.867 2.93.518.436 1.097.733 1.658 1.02.168.086.332.172.49.258.85.7 1.304 1.553 1.823 2.538.11.208.224.42.34.632.256.77.535 1.553 1.035 2.223.357.478.807.832 1.26 1.16.76 1.06 1.497 2.11 2.176 3.203.06.51.177 1.094.71 1.504.08.062.164.113.25.158.172.32.338.646.497.98-.616.073-1.185.382-1.653.926zm-.67 17.18c.124-.028.25-.07.375-.123.152.024.284.054.373.094-.304-.006-.574.016-.748.03zm3.65 8.743c.097.178.24.316.408.406.348.74.684 1.493 1.002 2.21-.074.26-.046.545.1.794l1.232 2.088c.207.404.404.75.59 1.02.534.77 1.052 1.603 1.6 2.485.8 1.285 1.618 2.603 2.506 3.742-.225.276-.287.652-.16.988 1.748 4.653 4.307 8.94 6.342 12.153 1.023 1.618 2.03 3.233 3.04 4.854l.496.796c-.178.476-.084.975.286 1.513.372.543.855.86 1.242 1.113.19.124.352.23.49.35-.107.206-.143.447-.093.682.078.366.353.658.714.76.24.068 1.042.743 1.284 6.58.015.342.028.64.042.88.033.54.105 1.118.175 1.68.138 1.106.28 2.25.142 3.146-.083.535-.337 1.09-.606 1.68-.35.765-.713 1.557-.797 2.478-.057.628-.086 1.153-.112 1.616-.112 2.003-.116 2.08-1.916 2.862-.096.04-.218.095-.363.16-.766.344-1.418.614-1.973.825-.024-.287-.166-.67-.666-.993-.645-.417-1.204-.58-1.653-.713-.435-.128-.722-.213-1.045-.492-.444-.384-.787-1.085-1.15-1.828-.492-1.006-1-2.046-1.936-2.698-.66-.46-1.472-.603-2.19-.73-.503-.09-.98-.175-1.305-.343-1.586-.816-2.164-2.16-2.83-3.715-.37-.86-.752-1.747-1.328-2.563-.38-.54-.985-.654-1.383-.73-.078-.016-.182-.035-.255-.055-.066-.195-.114-.594-.145-.847-.052-.422-.105-.86-.25-1.236l-.112-.298c-.528-1.408-1.075-2.863-3.394-3.287-.393-.073-.79.092-1.014.42-.05.07-.088.146-.117.224-.358-.566-.71-1.242-1.082-1.99-.344-.69-.668-1.34-1.027-1.883-.414-.624-.806-.964-1.064-1.19-.085-.073-.2-.172-.22-.205 0 0-.037-.08-.03-.368.038-.504 1.207-2.082 1.648-2.676.265-.356.475-.64.615-.86.145-.227.193-.503.133-.765s-.222-.49-.45-.632l-3.335-2.08c-.233-.145-.517-.19-.785-.12-.252.063-.47.222-.607.442l.006-.057c.076-.746.223-1.48.378-2.257.227-1.135.462-2.31.467-3.548.01-2.445-.665-4.492-2.12-6.443-1.086-1.457-2.108-1.9-3.095-2.327-.436-.19-.848-.367-1.3-.644-1.66-1.013-2.703-2.308-3.808-3.68-.968-1.2-1.968-2.443-3.412-3.52-1.93-1.44-4.065-2.24-5.874-2.234-1.03.012-4.298.99-4.588 2.7-.02.116-.03.255-.016.406-.847.334-1.57.883-2.202 1.365-1.318 1-1.942 1.37-2.826.945-.442-.21-.972-.075-1.258.32-.15.21-.212.46-.186.7-.268.058-.54.116-.82.172-.22-1.007-.835-1.85-1.478-2.5.07-.107.12-.228.144-.36.086-.45-.143-.9-.558-1.098-1.003-.478-2.145-.896-3.248-1.3-.28-.102-.56-.204-.83-.306-.323-.12-.686-.068-.962.138-.058.044-.11.093-.157.146-.86-.317-1.77-.573-2.663-.824l-.163-.046c.075-.09.136-.192.177-.305.137-.373.042-.79-.242-1.068-1.145-1.12-1.993-1.11-2.982-.978-.182.024-.368.05-.568.06-.083-.032-.218-.1-.29-.137-.255-.13-.544-.278-.94-.18-.385.098-.672.367-1.037.708-.1.093-.254.238-.345.31l-1.482.362-1.37.335c-.012-.03-.024-.057-.038-.084-.23-.465-.775-.682-1.262-.5-.76.285-1.285-.153-1.593-.57-.296-.403-.844-.53-1.288-.295-.444.234-.65.756-.482 1.228.08.23.11.436.088.626-.084-.098-.19-.172-.307-.232.03-.85-.21-1.77-.726-2.754-.366-.696-1.044-1.17-1.642-1.59l-.18-.127c-.158-.32-.25-.534-.303-.678.407-.09 1.177-.163 1.874-.228 1.542-.145 3.084-.283 4.626-.42 2.41-.215 4.904-.436 7.356-.685.74-.075 1.49-.172 2.237-.277 3.005-.32 5.997-.66 8.974-1.013h.017c.896-.013 1.246.083 1.36.125.016.054.035.132.05.195.154.622.41 1.663 2.102 2.66.992.583 2.65.39 4.712.075.372-.056.728-.11 1.01-.143l.8-.06c.054-.003.11-.01.163-.013 2.344-.157 4.714-.344 7.013-.527 4.443-.355 9.037-.72 13.54-.872.077-.002.165-.015.25-.024l.465.034c.764.055.857.06 1.116.217l.03.107c.16.604.33 1.222.78 1.59.095.126.22.24.38.334.23.134.47.185.706.185.137 0 .274-.02.408-.05.374-.007.704-.118.986-.337.09-.07.167-.15.237-.233 1.207-.98.614-2.735.18-3.9-.025-.195-.04-.365-.028-.453.07-.604.132-.925.178-1.093.19.01.492.054.767.093l.302.042c.656.262 1.43.553 2.224.44-.372.11-.656.422-.716.816-.07.46.184.906.613 1.083.184.077.378.13.573.172l-.08.08-.078.015c-.295.064-.536.253-.673.503-.188.102-.347.26-.443.445-.225.435-.136.94.222 1.257.112.1.255.19.433.232.402.226.758.145.956.06.194-.08.335-.196.44-.33.15.108.336.274.556.527.02.074.05.145.087.214l1.98 3.63zm-70.18 2.876c-.024-.012-.048-.023-.074-.032-1.156-.44-1.493-1.543-1.876-3.175-.238-1.017-.462-1.977-1.077-2.683-.195-.223-.475-.347-.763-.347-.084 0-.17.01-.253.032-.37.096-.655.392-.736.766-.074.344-.155.685-.236 1.026-.27 1.135-.548 2.3-.56 3.53-.61-.01-.934-.07-1.102-.137.29-2.805-.456-7.013-1.438-11.938-.175-.874-.336-1.686-.464-2.385-.395-4.3-.366-8.493-.288-12.75.098-5.27.2-10.728.317-16.235l.024-1.078c.037-1.678.075-3.356.11-5.034.01-.45.075-1.092.143-1.77.18-1.81.377-3.782.03-5.29l.008-.356c.005-.162-.032-.318-.1-.46 2.04-.18 4.076-.354 6.07-.525 1.818-.157 3.65-.314 5.49-.476.71-.05 1.42-.105 2.127-.17.595-.053 1.192-.114 1.787-.177 2.28-.208 4.566-.425 6.853-.656 1.15-.062 1.642-.02 1.943.427 1.048 4.074 2.225 8.155 3.375 12.116.6 2.07 1.216 4.195 1.81 6.31.155.572.306 1.153.452 1.722.458 1.782.932 3.624 1.594 5.367.304.802.802 1.61 1.31 2.4.2.43.407.865.623 1.3.926 1.872 1.13 2.743.983 4.235-.04.405-.2.957-.37 1.54-.316 1.084-.674 2.312-.562 3.525.047.514.174 1.01.33 1.492.106.51.213.977.318 1.43.228.986.443 1.917.578 3.078.165 1.426.304 2.268.778 3.312-.234.028-.47.054-.704.08-2.397.017-4.845.387-7.215.747-.608.093-1.224.186-1.84.273-3.753.4-7.517.77-11.27 1.11-.3.028-.843.025-1.418.022-2.4-.014-4.024.036-4.775.797-.63.64-.92 1.297-.858 1.957.07.77.568 1.307 1.136 1.753.262.496.688.988 1.1 1.464.267.306.54.623.668.83.057.095.062.114.01.378-.07.373-.094.79.088 1.187-.383.637-1.192 1.116-2.08 1.467zm-8.826-.306c-.44-.173-.87-.117-1.332.038-.203.068-.338.114-.56.09-.144-.023-.634-.194-.926-.296-.834-.292-1.216-.42-1.59-.376-.785.09-1.555.55-2.3.995-.463.277-1.33.793-1.577.736-.012-.007-.054-.05-.107-.147-.24-.443-.77-.65-1.242-.476-.473.173-.747.66-.64 1.15.033.354-.42 1.187-.726 1.388-.2-.12-.387-.334-.563-.603-.068-.192-.14-.43-.223-.74-.11-.417-.226-.848-.413-1.227-.15-.305-.29-.582-.416-.835-1.22-2.44-1.22-2.44-.49-5.74.017-.08.025-.157.023-.235-.003-.234-.09-.46-.245-.642-.05-.058-.106-.11-.166-.153-.023-.017-.048-.028-.072-.043-.04-.024-.08-.05-.122-.068-.03-.014-.06-.02-.09-.03-.04-.015-.082-.03-.126-.037-.03-.006-.06-.007-.092-.01-.033-.003-.065-.01-.098-.01-.023 0-.046 0-.07.002-3.846.264-7.808.51-11.847.737-2.425.135-4.876.264-7.348.386.013-.12.018-.243.015-.365-.003-.1-.012-.202-.026-.303 0-.012-.004-.024-.006-.037-.013-.088-.03-.176-.05-.264-.017-.067-.04-.132-.06-.198l-.03-.1c-.036-.098-.076-.195-.122-.29.103-.076.196-.16.28-.254.157-.173.268-.36.345-.557.233-.59.156-1.252.09-1.81-.032-.275-.064-.556-.06-.802v-.008c0-.04.005-.077.007-.115.003-.042.006-.085.012-.125.195-.445 1.235-2.367 1.525-2.877.19-.333.582-.796 1-1.287 1.1-1.298 2.35-2.77 2.12-4.323-.028-.184-.076-.36-.143-.53.39-.26.712-.616.938-1.05.186-.354.287-.735.313-1.112.002-.03 0-.062.002-.094.002-.07.007-.138.004-.207-.015-.47-.156-.92-.427-1.295-.283-.392-.68-.668-1.155-.815.012-.042.028-.07.06-.117.025-.038.042-.08.063-.12.013-.027.03-.05.04-.078.027-.07.047-.142.058-.216v-.025c.01-.066.013-.133.008-.2 0-.02-.006-.037-.01-.056-.006-.055-.012-.11-.03-.163v-.005s0-.002-.002-.003c-.006-.024-.02-.043-.028-.065-.018-.048-.036-.096-.06-.14-.016-.026-.036-.047-.053-.07-.026-.038-.05-.077-.08-.11-.023-.024-.05-.043-.074-.065-.03-.028-.06-.057-.096-.08-.03-.02-.06-.035-.093-.052-.032-.018-.06-.038-.095-.052-.178-.074-.298-.124-.362-.23l.026-.086c.122-.39.298-.968.187-1.69.16-.907.184-2.067-.816-2.985.017-.28.06-.542.11-.814l.01-.03c.046-.198.075-.367.094-.525.155-.858.26-1.864-.205-3.408-.153-.508-.287-.885-.395-1.188-.217-.61-.292-.82-.204-1.32.056-.04.118-.083.192-.13.42-.278 1.054-.695 1.355-1.66.004-.01.005-.02.008-.03l.007-.02c.004-.013.004-.027.008-.04.266-.973-.096-1.802-.34-2.356l-.02-.043c.01-.047.02-.097.03-.134.07-.037.266-.12.74-.193.022-.004.043-.01.065-.016l.07-.016c.022-.005.043-.015.064-.023.023-.01.046-.016.07-.026.02-.008.038-.02.057-.03.02-.012.043-.023.064-.037.018-.01.034-.026.052-.038l.06-.045.043-.043c.018-.018.038-.036.055-.055.013-.015.024-.032.036-.047.018-.02.035-.042.05-.065l.03-.05c.013-.025.028-.048.04-.073.01-.02.015-.04.023-.06.01-.023.02-.046.027-.07v-.002l.002-.004c.01-.035.014-.073.02-.11.008-.036.02-.072.022-.11.002-.032-.003-.065-.004-.1 0-.04.002-.08-.004-.12-.004-.03-.015-.06-.023-.088-.01-.043-.017-.086-.033-.127-.013-.034-.034-.065-.05-.098-.018-.033-.03-.067-.05-.098.02-.016.035-.033.055-.048.75-.537.79-1.387.81-1.925l.01-.195.028-.027c.85-.835 1.287-1.228 1.504-1.412.314-.076.586-.3.71-.625.24-.64.14-1.273.015-1.815.044-.217.06-.516.08-1.056 0-.04.003-.078.004-.115.103-.12.213-.253.33-.397.372-.458.606-.764.694-.912.125-.208.29-.413.463-.63.1-.125.208-.26.315-.408.14-.13.244-.256.315-.414.035-.073.06-.15.078-.23.16-.322.277-.684.297-1.1l.984-.06c5.85-.354 11.9-.72 17.84-1.265l1.15-.104c.21.04.39.094.53.173.095.112.195.223.302.334.04.078.076.168.108.267-.11 4.296-.21 8.62-.3 12.917-.08 3.576-.16 7.24-.225 10.857-.027 1.49-.084 3.024-.138 4.506-.148 4.02-.3 8.178.09 12.22.045.452.137 1.033.258 1.703.07.736.146 1.476.24 2.22l.024.182c.35 2.75.7 5.503 1.035 8.256.08.647.124 1.212.163 1.71.07.89.146 1.62.35 2.196-.014.074-.032.146-.05.214zm-11.736 8.734c.327-.282.563-.662.77-.997.073-.118.147-.236.22-.348l.1.3c.104.322.24.74.273.974-.166.046-.55.107-1.362.072zm-.95-2.058c-.072.114-.16.254-.234.362-.082-.06-.197-.16-.35-.31.442-.4.857-.764 1.297-1.06-.306.35-.532.713-.714 1.008zm-.64 3.966c-.317.1-.566.35-.664.667-.098.318-.032.664.175.924.114.142.214.275.302.397-.41-.07-.804-.11-1.175-.15-1.502-.15-2.007-.2-2.24-1.686-.068-.423-.396-.76-.82-.836-.42-.078-.847.12-1.06.493-1.206 2.11-.03 3.294.674 4 .634.637.883.926.687 1.68-.123.472-.242.755-.328.92-.197-.207-.54-.66-1-1.627-.17-.352-.525-.575-.915-.575h-.015c-.294.004-.567.135-.752.35-.62-.26-1.336-.28-1.895-.235-.277.022-.532.157-.706.373-.174.217-.252.495-.214.77.05.38-.062.673-.347.894l-.068.05c-.01-.227-.095-.446-.247-.62-.448-.517-1.536-1.25-2.113-1.49-.265-.11-.564-.102-.823.02-.26.124-.453.35-.535.625-.02.063-.047.132-.08.203-.125-.147-.25-.288-.37-.425-.878-.99-1.084-1.323-.778-1.953.036-.062.068-.127.096-.194.21-.495-.007-1.068-.494-1.3-.486-.234-1.07-.045-1.327.428-.01.02-.023.04-.033.062-.296.348-1.686.752-2.182.64-.38-.347-.49-.75-.61-1.215-.148-.553-.33-1.24-1.036-1.632-.336-.186-.73-.266-1.214-.245-.016-.16-.07-.316-.16-.454-.15-.228-.386-.387-.654-.44-1.4-.27-3.557.46-4.34 1.843-.3.53-.37 1.104-.216 1.654-1.992.974-4.34.146-7.013-.796-2.242-.79-4.56-1.61-6.834-1.3-.504.068-1.072.246-1.674.435-.615.19-1.877.586-2.234.446 0-.005-.002-.008-.002-.008-.01-.154.385-.648.597-.913.324-.407.677-.86.937-1.4.19-.28.338-.56.416-.843.27-.984.133-1.99.013-2.876-.047-.334-.09-.65-.108-.94-.073-1.16.08-1.99.345-2.838.163-.447.35-.902.544-1.367.728-1.753 1.48-3.566 1.118-5.55-.223-1.228-.756-1.72-1.184-2.118-.152-.14-.287-.266-.414-.432-.03-.065-.06-.127-.09-.197-.188-.437-.255-.946-.325-1.484-.065-.497-.133-1.01-.295-1.548-.18-.593-.704-.863-1.11-1.036.188-.39.396-.925.147-1.48-.317-.706-.647-1.292-.96-1.812-.007-.013-.01-.024-.018-.037-.326-.648-.62-1.08-.857-1.425l-.052-.078c-.4-.732-.71-1.495-.856-2.613-.017-.58-.078-1.344-.15-2.225l-.014-.178c.01-1.372.126-2.817.252-4.31.08-.944.158-1.896.208-2.843 3.448-.082 6.79-.168 10.045-.257.238.006.458.008.66.003 4.33-.1 8.995-.22 13.756-.416.153-.006.335-.023.533-.046 1.176-.04 2.342-.08 3.5-.122.063.184.138.395.23.648.1.27.22.607.298.847l-.025.122c-.095.43-.225 1.024-.172 1.627-.058.58.095 1.16.787 1.648-.012.096-.02.184-.025.265-.014.18-.023.3-.09.466-.033.083-.054.17-.064.257-.002.03.003.057.002.087-.002.058-.005.116.003.174.004.028.017.055.023.084.014.056.025.113.048.167.01.02.025.038.035.06.03.056.06.114.1.165l.002.002c.017.023.04.038.06.06.04.043.08.088.13.124.057.044.12.076.186.106.014.006.026.017.04.022.064.026.132.04.2.052.02.003.035.01.053.013.05.007.1 0 .148 0 .04 0 .08.004.118 0 .09-.014.168-.017.242-.015.156.004.275.04.322.105.03.044.048.117.052.2-.003.096-.028.21-.086.328-.095.19-.337.51-.9.524-.024 0-.046.005-.07.007-.027.004-.055.005-.082.01-.026.004-.05.012-.077.02-.027.005-.054.01-.08.02l-.07.03c-.026.012-.05.02-.075.034-.022.012-.043.027-.065.04l-.07.046c-.02.015-.036.033-.055.05-.02.017-.043.035-.062.055-.017.018-.032.04-.05.058-.017.022-.035.042-.05.065-.016.022-.028.046-.042.07-.014.022-.028.044-.04.068-.012.027-.022.056-.032.084-.008.02-.018.04-.025.06v.01l-.004.01c-.008.026-.01.055-.016.083l-.014.067c-.004.032-.003.063-.004.094 0 .023-.003.045-.002.068 0 .03.006.06.01.09.003.023.004.046.01.07.005.028.014.055.022.083.007.023.012.047.02.07.01.025.023.05.035.076.01.023.02.046.032.068.012.024.03.046.045.07.015.02.027.042.043.062.018.022.04.042.06.063.016.018.032.038.05.055.024.022.05.04.076.06.018.012.034.028.053.04.383.25.41.433.42.494.094.645-.957 1.883-1.652 2.703-.442.52-.856 1.015-1.143 1.483-.027.044-.06.09-.083.132-.002 0-.01.013-.013.02l-.028.05c-1.462 2.585-1.642 3.06-1.7 3.34v.005c-.03.154-.05.308-.06.46-.03.456.02.895.066 1.293.027.24.067.586.05.757-.067.018-.197.04-.424.04-.017.002-.033 0-.05 0-.425 0-.805.267-.95.668-.037.1-.056.204-.06.308-.01.31.123.616.373.82.384.31.62.695.63 1.03.005.233-.102.446-.328.65-.197.18-.31.424-.33.678-.01.153.015.31.076.456.163.394.558.643.983.622 5.04-.24 10.003-.51 14.826-.808l.604-.04c.6-.036 1.2-.074 1.796-.112.144-.01.285-.02.43-.028l1.932-.127c-.486 2.233-.48 2.98.588 5.353.12.264.245.594.378.943.282.74.6 1.563 1.03 2.278.083.196.18.39.294.572-.606.405-1.137.88-1.656 1.346-.202.183-.408.367-.62.55-.416.356-.47.98-.123 1.403.996 1.217 1.736 1.782 2.466 1.86-.056.083-.102.175-.134.274-.12.38-.004.786.28 1.047-.13.063-.275.123-.455.18zm-21.87 1.654c-.173-.09-.352-.182-.538-.273.253-.05.402-.057.482-.054.034.09.072.234.104.353-.017-.01-.033-.017-.05-.026zm-3.435.05c-.026-.038-.055-.076-.087-.11-.185-.205-.15-.265-.108-.34.164-.29.618-.567 1.107-.73-.013.19.028.378.116.543-.377.17-.72.415-1.028.637zm-20.132-4.388c-.008.02-.02.04-.028.06-.18.243-.428.533-.603.74-.658.77-1.226 1.434-1.238 2.175-.005.292.023.546.073.77-1.638.307-3.27 1.008-4.826 1.79-.17-.074-.36-.103-.553-.074l-1.537.223c.212-1.005.28-2.328-1.076-2.903-.366-.155-.956-.264-1.693.094-1.034.503-1.906 1.748-2.15 2.66-.36 1.338.25 2.078.616 2.52.25.304.28.363.27.526-.04.533-.097.58-.545.932-.28.223-.63.5-1.017.95l-.422.494c-1.12 1.318-2.39 2.813-4.08 3.926-.395.26-1.223.565-2.024.86-1.763.647-3.305 1.214-3.753 2.285-.264-.06-.532-.114-.8-.17-1.114-.226-2.167-.44-2.87-1.118-.284-.274-.7-.358-1.068-.216-.263.1-.466.305-.57.557l-.038-.023c-.35-.205-.698-.408-1.135-.658-.327-.19-.733-.18-1.05.026-.32.204-.497.568-.46.944.15 1.59 1.17 2.583 2.15 3.36-.433.244-.857.445-1.063.384-.065-.02-.3-.133-.62-.79-.2-.414-.654-.638-1.105-.55-.45.09-.785.47-.814.927-.028.48-.368 1.92-.718 2.777-.116-.275-.348-.486-.635-.574-.295-.09-.615-.043-.87.13-.237.163-.517.32-.79.47-.826.46-1.763.983-1.964 1.988-.098.49.005.997.307 1.514-.356.096-.81.162-1.437.254-.34.05-.722.105-1.15.174-.546.088-.92.596-.84 1.142.08.546.583.924 1.13.856.295-.04.507.148 1.042.767.09.105.185.214.285.324-.178.432-.33.893-.48 1.344-.13.398-.265.8-.41 1.174-.354-.144-.768-.078-1.06.187-.69.622-1.737 1.343-2.802 1.24-.522-.05-.997.303-1.094.817-.096.515.217 1.018.723 1.158.24.067.473.14.703.214.74.234 1.54.49 2.41.465-.103.364-.237.703-.374 1.05-.396 1.005-.844 2.143-.497 3.832.097.476.254.95.406 1.41.34 1.028.662 2 .31 2.843-.116.277-.102.59.037.856.14.265.39.456.683.52.96.207 1.74 1.978 1.54 3.51-.193 1.505-1.094 1.465-1.388 1.453-.48-.022-1.06-.52-1.676-1.047-.684-.586-1.458-1.25-2.418-1.516-.473-.132-.95-.173-1.412-.173-.41 0-.81.033-1.184.063-.73.06-1.42.116-1.947-.08-.65-.244-1.46-.778-2.242-1.294-.62-.41-1.263-.833-1.87-1.142-.535-.27-1.205-.51-1.915-.767-.95-.342-2.025-.73-2.773-1.204-1.026-.653-1.136-.987-1.5-2.095-.125-.382-.268-.816-.475-1.342-.34-.866-.86-1.612-1.366-2.333-.458-.655-.89-1.274-1.092-1.862-.2-.59-.124-1.403-.044-2.265.092-.97.187-1.975-.075-2.94-.475-1.75-1.362-2.3-2.145-2.787-.347-.215-.674-.418-.993-.75-.796-.828-.95-1.273-1.204-2.01-.153-.442-.343-.992-.705-1.69-.594-1.144-1.458-1.776-2.22-2.334-.543-.396-1.01-.738-1.322-1.214-.508-.777-.81-1.83-1.1-2.85-.163-.568-.33-1.154-.534-1.696-.303-.804-.764-1.623-1.21-2.416-.427-.76-.868-1.543-1.14-2.266-.163-.428-.266-.812-.366-1.183-.25-.93-.51-1.89-1.598-3.07-.73-.788-1.56-1.398-2.36-1.988-.73-.536-1.418-1.04-1.952-1.626-.203-.223-.402-.67-.595-1.104-.397-.894-.89-2.007-1.98-2.594-.943-.507-2.398-.458-3.806-.412-.72.024-1.46.048-1.918-.02-.512-.078-1.306-.368-2.006-.623-.96-.35-1.79-.652-2.417-.652h-.018c-.46.004-.845.313-.964.733-.175.13-.46.33-.923.623-.135.015-.435-.026-.622-.053-.57-.078-1.278-.178-1.92.203-1.84 1.092-2.435 3.034-2.96 4.748-.505 1.65-.942 3.074-2.297 3.674-1.472.652-2.62-.192-4.37-1.62-.778-.637-1.583-1.295-2.493-1.783-2.238-1.198-5.43-3.102-7.324-5.775-.752-1.062-.777-1.824-.81-2.88-.018-.563-.04-1.203-.176-1.94-.282-1.507-.813-2.746-1.375-4.058l-.267-.625c-1.183-2.807-2.906-4.477-4.73-6.245-.575-.558-1.17-1.134-1.773-1.77-.82-.86-1.627-1.778-2.41-2.666-.348-.396-.7-.793-1.05-1.188-.553-.617-1.2-1.207-1.827-1.777-.746-.68-1.452-1.323-1.94-1.952-.207-.265-.33-.714-.46-1.19-.17-.61-.36-1.305-.808-1.886-.383-.495-.907-.717-1.328-.896-.275-.116-.536-.227-.594-.347-.087-.18-.146-.322-.19-.44.107-.062.24-.13.413-.195.29.008.613.03.873.047l.39.026c.942.06 1.892.14 2.843.227.438.085.85.158 1.207.195l2.95.305c2.808.29 5.71.59 8.57.866 5.15.494 10.572.96 16.842 1.444.036.003.073.005.11.01l1.42.107.203.016 1.605.12c.27.02.533-.066.736-.24.14-.12.24-.28.298-.452.005-.014.013-.028.017-.042.02-.064.03-.13.035-.196.412-5.506.885-11.1 1.342-16.51.196-2.32.396-4.686.592-7.06.697-8.007 1.287-16.092 1.86-23.946l.382-5.247c.118-1.593.31-2.898.498-4.153.45.03.908.063 1.363.094l.607.042c.572.04 1.15.078 1.726.117.346.024.69.048 1.04.07.505.035 1.014.07 1.523.103l1.207.08c.502.034 1.007.066 1.51.098l1.222.08 1.552.097 1.195.075 1.66.1c.364.02.727.044 1.09.065l1.868.106c.297.018.595.036.892.052.92.05 1.837.1 2.754.147 1.956.1 3.91.192 5.866.278.123.005.238.01.348.013.1.004.19.006.28.008h.008c.205.005.386.007.542.008.124 0 .252.003.363.006l.056.295.074.387c.026.13.054.27.088.423v.005c.43 1.975.124 4.73-.146 7.162-.136 1.22-.264 2.37-.31 3.418-.043 1.047-.147 2.144-.257 3.306-.23 2.415-.466 4.91-.172 7.195.002.008.002.018.003.027l.045.416c.17 1.595.236 1.92 1.323 2.728.2.148.446.33.76.588l.085.07c1.467 1.186 2.11 1.245 3.102 1.088.36-.056.733-.115 1.424-.02.62.087.638.15.796.747.138.52.346 1.308 1.144 1.903.444.332 1.313.53 3.7.956.622.112 1.266.227 1.475.288.07.02.186.046 1.364.302.474.102.95.205 1.184.258l.113.025c.088.025.18.038.274.04h.013c.677 0 1.13-.365 1.4-.583l.057-.046c.11.03.217.055.318.08.616.155.998.25 1.383.44.01.04.018.094.024.137.016.095.035.185.057.272l.022.065c.018.06.036.123.057.18.01.027.023.05.034.077.02.048.04.097.065.142.013.027.03.05.046.076.024.04.047.08.074.118.018.025.04.047.06.07.027.034.053.068.082.098.023.022.05.042.074.063.03.026.06.054.092.078.027.02.057.036.085.054.034.02.066.044.103.063.03.016.065.03.098.044.034.014.067.03.103.044 0 .253.052.507.185.747.007.014.016.023.023.035.003.004.004.01.007.015.432.788 1.385.926 1.843.993.644.094 1.194-.26 1.725-.605.146-.094.373-.24.55-.335.1-.043.187-.076.248-.086l.02.003c.373.056.722.305 1.124.595.58.418 1.418 1.024 2.487.808.012.02.03.04.043.06.02.03.04.058.064.086.023.025.048.05.074.073.027.025.052.05.08.07.03.023.06.04.09.06.032.018.062.037.095.052s.068.027.103.04c.025.007.048.02.074.026.02.006.037.008.056.013.004 0 .007.002.01.003.006 0 .01 0 .015.002 1.803.417 2.52-.868 2.867-1.492.08-.146.2-.36.274-.44.063.012.145.09.382.39.01.014.022.03.033.042.275.39.688.947 1.46 1.058.294.042.594.014.913-.09 1.99 1.143 3.145 1.282 4.257.968 1.216-.138 2.318-.595 3.4-1.046l.25-.104c.278.14.65.263 1.117.185.468-.08.84-.34 1.14-.55.1-.068.24-.167.317-.205.56-.013 1.07.058 1.707.145.522.072 1.112.153 1.838.2.008.002.015.002.023.002h.019c.932.058 1.466-.12 1.856-.254.362-.122.526-.178 1.527.334.515.265 1.022.658 1.558 1.075.542.42 1.1.855 1.723 1.196l.186.1c2.03 1.118 2.93 1.544 3.447 1.63 1.068.18 1.795-.012 2.23-.13.066.13.158.345.283.69.088.243.16.495.23.75-.004 1.072-.076 2.364-.113 3.018-.038.675-.068 1.207-.06 1.51.003.22.08.427.214.597-.543 1.64-.414 4.304-.15 7.616-.003 1.2.07 2.376.297 3.487.26 1.275.616 1.884 1 2.456.194.346.4.677.607 1.013l.278.45c.288.61.325 1.094.364 1.648.015.21.033.436.064.672-.055.246-.063.513.04.793.1.283.28.484.483.64.2.225.437.384.63.513.095.062.232.153.284.205.064.197.076.484.09.787.02.466.044.995.26 1.516.14.336.29.607.44.835.226.464.448.836.634 1.145.57.945.805 1.337.285 3.294-.217.817-.465 1.49-.705 2.14-.15.412-.298.818-.43 1.236-.323.896-.572 1.816-.6 2.77-.02.696.07 1.31.157 1.906.126.86.234 1.606-.044 2.402zm-10.755 7.607l.06.055-.11.073-.042.03c-.152-.44-.41-.755-.608-.994-.278-.337-.314-.38-.225-.713.145-.537.747-1.208 1.074-1.368.004.268-.136.8-.216 1.106-.08.312-.165.634-.214.946-.05.316.056.637.282.865zm-17.428 12.307c-.123-.098-.248-.194-.374-.29.184-.102.33-.256.42-.44.247.107.498.196.75.273l-.796.457zM27.37 74.677c-.164.243-.245.506-.272.776-.064.145-.112.3-.138.467-.02.125-.026.25-.02.37-2.948-.335-5.985-.683-8.968-1.054-.276-.034-.86-.163-1.48-.3-3.412-.756-5.09-.992-6.02-.393-.863.557-1.077 1.992-1.255 5.21l-.012.227-7.05-.928c1.1-7.832 2.19-15.665 3.278-23.498.875-6.294 1.75-12.59 2.63-18.883.614-4.38 1.22-8.76 1.826-13.14l1.177-8.495c.06-.425.085-1.07.114-1.814.048-1.16.155-3.878.554-4.38.358-.37 1.126-.25 2.35-.02.42.08.855.16 1.32.222 3.458.458 6.974.895 10.374 1.318l.59.073c7.218.897 14.812 1.748 23.216 2.6.002.002.005.002.007.002 6.57.616 12.466 1.115 18.03 1.524.538.04 1.016.064 1.437.085.78.04 1.664.085 1.83.215.1.142.11.65.088 1.203l-.11 1.49c-.088.924-.2 1.747-.32 2.573-1.06 1.67-1.17 5.294-1.194 10.08-.005 1.296-.01 2.417-.066 3.137-.154 2.008-.304 4.015-.455 6.023-.23 3.064-.46 6.13-.7 9.193-.158 1.997-.322 4.01-.488 6.016-.11 1.253-.22 2.506-.335 3.754-.59 6.395-1.085 12.95-1.525 18.822l-1.56-.12h-.025c-7.74-.595-14.183-1.16-20.107-1.76-1.47-.148-2.972-.322-4.424-.49-1.852-.214-3.745-.43-5.64-.605-.116-.022-.232-.046-.35-.07-1.457-.29-3.108-.617-4.306-.272l-.09.027c-.803.023-1.493.2-1.91.815zm45.51-56.955c.056-.597.098-1.114.118-1.57l.088-1.184c25.1 1.908 51.863 2.747 79.573 2.5.385-.004.807-.034 1.253-.067.717-.05 2.193-.156 2.55.08.22.537.08 2.647.014 3.672-.037.56-.068 1.045-.078 1.45-.04.134-.05.276-.03.416l.045.313c.146 1.672.4 3.34.677 4.98.843 6.617 1.353 12.732 1.296 19.344-.005.59-.1 1.607-.208 2.785-.284 3.06-.486 5.707-.298 7.63-.383-.236-.76-.495-1.147-.762-1.01-.697-2.053-1.417-3.326-1.745-.378-.097-.698-.134-.975-.134-.51 0-.875.123-1.19.23-.288.1-.498.17-.868.156h-.015c-.286-.026-1.344-.363-1.8-.508-.792-.253-.934-.298-1.196-.27-1.18.127-2.212.452-3.146.81-.29-.08-.644-.103-1.05.035-.893.302-1.568.636-2.11.904-.368.18-.667.328-.95.424-.663.052-1.35-.04-2.118-.357.002-.006 0-.012.003-.02.016-.077.024-.156.022-.235 0-.008 0-.016-.002-.025-.004-.08-.016-.16-.04-.238 0-.006-.004-.01-.006-.017-.026-.08-.06-.156-.105-.228l-.005-.007c-.047-.073-.103-.14-.17-.202l-.002-.002h-.002v-.003c-.02-.016-.04-.027-.058-.042-.03-.023-.057-.047-.088-.066-.024-.015-.05-.025-.073-.037-.03-.015-.057-.03-.087-.043-.03-.012-.06-.02-.09-.028-.027-.008-.052-.018-.078-.024-.035-.007-.07-.01-.105-.012-.023-.002-.046-.007-.068-.008-.04 0-.076.003-.114.006-.02.002-.04 0-.062.004-.037.005-.074.015-.11.025l-.06.015c-.036.012-.068.028-.102.043-.02.01-.043.017-.064.028-.028.015-.054.035-.08.053-.024.014-.048.027-.07.044-.17.135-.305.228-.417.3-.144.088-.24.127-.29.142-.05-.05-.125-.137-.19-.22-.312-.44-.872-1.224-1.99-1.24-.07 0-.14 0-.212.006-.016 0-.03.006-.046.007-.88.08-1.37.66-1.68 1.14-.024-.042-.06-.077-.092-.116-.026-.032-.047-.067-.076-.096-.043-.042-.097-.074-.148-.108-.03-.02-.054-.047-.086-.063l-.01-.005-.004-.003c-.02-.012-.043-.018-.064-.027-.026-.01-.052-.023-.078-.032-.024-.007-.05-.01-.074-.018-.027-.006-.053-.014-.08-.018-.024-.004-.05-.005-.073-.007l-.084-.006c-.023 0-.046.004-.07.006-.028.002-.057.003-.086.007-.022.003-.044.01-.066.014l-.085.02-.063.025c-.027.01-.055.02-.082.034-.02.01-.04.024-.06.035-.026.016-.05.03-.075.047-.02.015-.04.03-.058.047-.018.015-.037.028-.054.044-.747.706-.892.605-1.7.05-.53-.368-1.192-.822-2.092-.928-.01 0-.02-.004-.03-.005h-.015c-.433-.044-.835.07-1.203.237-.3.127-.59.285-.862.437-.11.06-.26.143-.368.197-.054-.01-.107-.016-.16-.023l.04-.088c.018-.042.025-.087.04-.13.01-.042.03-.08.035-.123.008-.047.004-.095.005-.142 0-.04.008-.08.004-.12-.005-.05-.022-.098-.034-.146-.01-.038-.013-.076-.027-.113-.018-.048-.05-.092-.075-.138-.018-.032-.03-.066-.05-.096h-.003v-.004c-.027-.035-.06-.06-.09-.092-.033-.034-.06-.072-.098-.1-.017-.014-.038-.02-.056-.034-.2-.14-.445-.21-.696-.18-.095.013-.173.02-.235.022-.072-.396-.247-1.063-1.022-1.464-.607-.316-1.137-.448-1.87-.63l-.494-.126c-.795-.206-1.347.24-1.644.478-.04.032-.095.076-.14.108-.07-.018-.14-.033-.205-.047l-.938-.204-1.228-.267c-.297-.087-.835-.184-1.686-.337-.873-.157-2.478-.444-2.882-.616-.144-.12-.215-.27-.286-.5 0-.003 0-.004-.002-.006l-.005-.018c-.02-.074-.043-.155-.067-.248-.146-.55-.365-1.377-1.29-1.87-.308-.165-.695-.293-1.183-.36-.99-.138-1.585-.044-2.02.024-.464.074-.59.093-1.577-.717l-.008-.007c-.3-.246-.54-.43-.736-.582-.192-.146-.408-.312-.447-.365-.046-.092-.098-.502-.153-.936l-.065-.51c-.23-2.117-.02-4.497.185-6.8.102-1.135.206-2.31.253-3.423.04-.97.167-2.085.3-3.267.29-2.593.62-5.53.113-7.81l-.003-.016c-.03-.145-.058-.277-.082-.4-.042-.225-.073-.418-.098-.58-.243-1.557-.84-1.716-2.25-1.725-.04-.002-.083-.002-.125-.002h-.014c-.21-.003-.458-.006-.75-.015l-.328-.012c-1.95-.084-3.9-.178-5.85-.278-.905-.046-1.81-.094-2.717-.144l-.94-.053-1.784-.102c-.362-.02-.724-.043-1.086-.065-.548-.033-1.096-.065-1.643-.1-.373-.02-.745-.045-1.117-.068l-1.606-.1-1.127-.074-1.583-.103-1.12-.074c-.527-.036-1.055-.07-1.58-.107l-1.145-.077-1.493-.102-1.318-.09-.7-.05.124-1.672zm95.084 5.956c7.228-.167 14.58-.472 21.49-.77 2.72-.117 5.48-.274 8.152-.427l1.967-.11c.334-.02.67-.057.997-.092.768-.084 1.724-.188 2.05.09.156.133.255.46.276.904-.027.49-1.17 1.98-1.718 2.697-.378.492-.704.918-.93 1.275-.206.32-.21.73-.016 1.058.195.327.562.517.94.49.55-.04 1.213-.153 1.913-.272 1.243-.212 2.945-.504 3.715-.23.03.01.18.066.312.146l.005.03c.013.08.026.165-.18.625-.076.168-.182.31-.362.434-.167.096-.363.18-.58.245-.045.01-.086.022-.134.034-.053.013-.11.022-.165.033-.06.012-.118.024-.186.036-.022.003-.043.01-.064.015-.024.005-.048.01-.072.017-.025.008-.05.018-.075.028-.023.01-.045.017-.067.027-.024.012-.047.026-.07.04-.02.01-.04.022-.06.035-.022.015-.043.032-.063.05-.018.013-.037.027-.054.043-.02.018-.037.038-.055.057l-.046.052c-.017.02-.03.043-.046.065l-.04.058c-.013.023-.023.048-.035.072-.01.02-.022.042-.03.064-.01.025-.017.05-.025.075-.006.023-.015.043-.02.066 0 .003 0 .005-.002.008 0 .002 0 .004-.002.007-.005.023-.006.046-.01.068-.003.026-.01.052-.01.078-.002.026 0 .05 0 .075 0 .027-.002.052 0 .078.002.025.007.05.01.076l.012.072.023.075c.006.023.012.046.02.068.01.025.024.05.035.073l.03.062c.014.025.032.048.048.07.012.02.023.037.037.054.02.026.043.048.065.072.013.013.024.027.038.04.037.034.077.067.12.096.4.27.51.517.525.608-.066.034-.246.084-.573.046-.34-.04-.667.09-.886.345-.22.256-.298.603-.208.927.015.056.02.14.02.238-.237-.003-.465.078-.65.225-.017.013-.036.022-.052.036-.033.03-.06.067-.09.102-.026.032-.057.06-.08.095l-.003.005-.003.003c-.018.03-.03.06-.046.09-.012.024-.027.047-.037.07-.012.032-.02.064-.03.096-.006.027-.017.053-.022.08-.007.03-.008.06-.012.09-.003.03-.01.058-.01.087 0 .028.004.055.005.083.003.03.002.063.007.094.004.03.013.058.02.088.01.042.023.084.038.126.016.04.032.082.053.12.007.014.017.026.025.04.024.037.047.076.076.112.007.01.017.018.026.028.03.035.06.07.097.1.133.236.217.823.254 1.434.007.255-.003.484-.034.63-.206.945-.227 1.044-1.58 2.176-.014.01-.024.023-.036.033l-.04.04c-.047.05-.092.102-.128.16l-.005.004v.002c-.04.06-.068.126-.093.193l-.015.046c-.02.067-.037.136-.043.206v.01c-.006.066-.002.134.006.203l.007.048c.006.035.014.07.024.103-.075.275-.085.59-.095.954 0 .042-.002.093-.004.142l-.074.062c-.364.3-.596.498-.744.733-.115.183-.52.76-.844 1.224-.76 1.09-.76 1.09-.813 1.305-.12.502-.043.99.06 1.436-.064.245-.13.557-.214.97l-.025.13-.172.078c-.474.21-.922.41-1.185.786-.323.463-.463.93-.53 1.347-.18.434-.2.84-.212 1.124l-.002.06c-.085.018-.202.036-.372.047-.02.002-.04.006-.06.01-.025.002-.05.004-.076.01-.023.004-.046.01-.068.017-.025.007-.05.012-.072.02-.023.01-.044.02-.066.028l-.067.03-.06.037c-.02.013-.042.025-.062.04-.018.013-.035.03-.052.043-.02.016-.04.032-.057.05l-.046.05c-.017.02-.034.037-.05.057l-.04.056c-.013.022-.028.043-.04.065l-.03.063c-.01.018-.02.036-.028.055l-.003.013-.008.018c-.01.028-.013.057-.02.085-.013.045-.026.09-.03.134-.006.034-.004.07-.005.103 0 .044-.003.088.002.13.003.036.012.07.02.104.01.042.017.084.03.125.013.033.03.064.044.097.013.026.022.055.038.08-.402.18-.743.436-.95.81-.23.422-.225.836-.134 1.214-.286.633.027 1.248.28 1.71-.433.196-.96.474-1.123 1.09-.036.137-.068.266-.098.39-.293.395-.522.953-.555 1.792-.01.267.06.453.356 1.236.21.548.64 1.69.68 2.048.038.353.074.625.104.85.05.362.072.534.06.704l-.045.24-.03.16-.004.01c-.01.017-.02.03-.03.043-.113.165-.188.325-.235.49-.703.004-1.56.11-2.575.25-.257.036-.505.07-.72.096-4.756.162-9.666.313-14.793.454-.655-.02-1.488-.08-2.358-.143-3.167-.23-5.83-.364-7.647.07-.025-1.168-.137-2.31-.396-3.393-.017-1.36-.173-2.14-.56-2.58-.634-.726-1.34-.92-1.987-.92-.438 0-.848.09-1.188.163-.79.173-1.013.18-1.294-.157.024-2.286.107-4.647.188-6.937.2-5.662.41-11.516-.235-17.104-.218-1.887-.552-3.782-.876-5.614-.104-.59-.21-1.185-.31-1.784-.18-1.408-.368-2.796-.562-4.163 2.893-.047 6.172-.106 9.43-.187zM207.7 31.2c.913-.56 1.545-1.393 1.64-2.295.044-.398-.022-.772-.176-1.11.063-.205.143-.412.23-.63.234-.586.563-1.412.344-2.284.207-.04.4-.147.546-.307.214-.234.306-.554.248-.866l-.036-.193c-.306-1.63-.276-1.65.233-1.986.518-.343 2.332-.295 3.305-.27.575.015 1.072.028 1.463 0l5.24-.374 3.763-.268c.33-.023.628-.206.798-.49.17-.283.19-.63.052-.933-.07-.155-.08-.464-.09-.763l-.002-.078c2.923.067 5.67-.164 8.655-.45h.02c5.104-.587 10.33-.976 15.387-1.352 4.13-.307 8.4-.625 12.6-1.05 4.52-.455 9.08-1.23 13.49-1.978 4.055-.688 8.233-1.397 12.364-1.854-.064.222-.122.437-.178.643-.24.892-.442 1.642-.964 2.355-.57.67-1.254 1.29-1.723 1.653-.385-.118-.85-.16-1.293.135-.847.565-1.578 1.096-2.15 1.895-.44-.24-.886-.338-1.337-.287-.663.078-1.182.45-1.61.94-.176.147-.348.3-.518.455-.55.497-.747.987-.89 1.345-.088.22-.134.328-.228.432l-.33.365c-.38.424-.656.73-1.25 1.305-1.045 1.014-2.308 1.62-3.646 2.263-.986.473-2.006.962-2.99 1.64-.196.134-.364.263-.513.388-.42.256-.83.568-1.205.97-.475.506-.466 1.183-.46 1.678.002.05.003.108.003.166-.156.09-.39.2-.565.28-.592.275-1.263.585-1.632 1.176-.234.376-.307.813-.328 1.248-.13.426-.177.86-.188 1.418-.2.098-.497.18-.847.252-.718.093-1.44.185-2.17.275-.455.038-.874.065-1.183.085-.64.042-1.242.082-1.725.14-3.01.37-6.042.702-9.077 1.01h-.026c-1.814.103-3.647.306-5.42.5-.473.053-.957.106-1.44.158-1.295.117-2.585.23-3.87.344-1.118.08-2.237.15-3.335.216-3.284.198-6.676.406-9.983.94-.313.027-.625.056-.938.084-1.346-.17-2.952.072-4.346.282-.55.083-1.068.16-1.444.19-4.346.333-8.684.62-12.594.863l.01-.023c.22-.598.207-1.92.17-2.535 0-.016-.003-.03-.004-.044-.007-.202-.02-.415-.048-.632.002 0 .004-.003.006-.004.32-.234.474-.624.394-1.01-.01-.088.018-.356.037-.533.013-.12.026-.246.037-.373.84-.195 1.34-.735 1.546-1.282.072-.19.11-.387.122-.585 0-.012.003-.024.004-.037.002-.05 0-.102-.002-.153V32.2c-.004-.045-.01-.09-.016-.134-.004-.026-.005-.052-.01-.078-.006-.042-.017-.084-.026-.125-.006-.03-.01-.057-.02-.085-.01-.04-.023-.078-.036-.118-.01-.03-.018-.06-.03-.09-.013-.04-.03-.077-.046-.114-.013-.03-.024-.06-.038-.09.09-.05.18-.107.27-.166zM338.647 3.522c.464-.1 1.06-.28 1.753-.487 1.327-.398 3.55-1.063 4.296-.867.356.094.738.37 1.12.753-.114.13-.19.278-.228.434-.213-.163-.43-.328-.655-.488-.425-.303-1.01-.234-1.352.16-.34.393-.327.98.033 1.357l.377.395c-.197.042-.383.144-.53.302-.102.11-.174.24-.218.374l-.466-.102c-.518-.113-1.037.192-1.187.7-.128.426.04.872.39 1.115-.1.116-.202.26-.29.436-.066-.457-.187-1.11-.745-1.712l-.33-.36c-.357-.398-.626-.675-.945-.9-.48-.494-1.104-.84-1.94-.91l.916-.198zm13.704 8.285c-.09-.336-.15-.667-.21-.986-.208-1.104-.49-2.616-2.288-2.846-.694-.09-1.266-.015-1.71.217l-.08-.294c-.076-.29-.278-.533-.55-.66-.19-.087-.4-.113-.6-.078.122-.072.245-.155.366-.248.112-.086.204-.194.27-.316.18.024.364.037.558.04.026 0 .05-.002.074-.004l.086.09.506.53c.352.365.923.414 1.332.112.41-.303.53-.86.28-1.304-1.425-2.543-3.118-5.3-5.172-5.842-1.2-.316-3.073.19-5.395.886-.624.186-1.214.363-1.602.447-3.992.87-8.492 1.785-14.59 2.97-8.528 1.657-17.625 3.364-26.84 4.445h-.002c-.6.072-1.23.115-1.893.16-1.333.093-2.71.188-3.997.535-.3.082-.563.16-.8.24-.21-.282-.553-.44-.906-.406-4.724.444-9.5 1.255-14.117 2.038-4.376.743-8.902 1.51-13.353 1.96-4.174.422-8.43.74-12.548 1.045-5.073.377-10.318.767-15.458 1.357-3.32.318-6.335.566-9.598.396-.357-.014-.694.15-.892.445-.198.294-.227.67-.076.992.072.154.082.465.092.767l.006.188-2.65.19c-1.748.123-3.495.247-5.242.373-.29.02-.764.008-1.264-.005-1.606-.042-3.424-.09-4.476.604-1.353.894-1.44 1.924-1.258 3.167-.122.02-.232.033-.298.02-.462-.076-.92.175-1.1.608-.182.433-.04.933.34 1.208.654.47.6.618.223 1.56l-.04-.017c-1.11-.396-2.656-.205-4.113.035.96-1.3 1.592-2.336 1.55-3.236-.048-1.05-.38-1.842-.982-2.357-.99-.846-2.37-.695-3.585-.562-.314.035-.61.067-.89.084l-1.97.112c-2.664.152-5.418.31-8.124.426-6.9.297-14.24.6-21.45.768-3.267.08-6.556.14-9.455.187l.037-.564c.16-2.47.22-4.15-.395-4.997-.84-1.15-2.696-1.016-4.335-.898-.413.03-.805.058-1.127.06-28.023.253-55.076-.612-80.41-2.57-.2-.015-.396.028-.568.124-.627-.27-1.438-.32-2.5-.373-.41-.022-.872-.045-1.394-.084-5.55-.408-11.43-.906-17.983-1.52-8.387-.852-15.966-1.7-23.168-2.596l-.59-.073c-3.395-.422-6.907-.86-10.355-1.316-.413-.054-.82-.13-1.216-.204-1.5-.28-3.048-.57-4.18.606-.862.894-1.006 2.926-1.116 5.7-.027.662-.052 1.29-.097 1.615-.394 2.832-.786 5.665-1.178 8.497-.606 4.38-1.213 8.76-1.825 13.138-.88 6.294-1.756 12.59-2.63 18.885C2.292 63.445 1.156 71.613.01 79.78c-.038.266.033.536.196.75.164.215.406.355.673.39L10 82.122c.044.005.088.008.132.008.222 0 .44-.073.617-.21.214-.163.353-.404.388-.67.04-.32.067-.79.1-1.385.05-.914.164-2.968.415-3.63.81-.124 3.3.428 4.402.67.724.162 1.296.29 1.666.335 3.145.39 6.342.755 9.434 1.108l1.642.187c.143.07.282.13.41.183.192.082.457.195.517.272.205.265.328.713.458 1.187.17.615.36 1.31.812 1.892.597.767 1.4 1.498 2.178 2.206.588.536 1.196 1.09 1.678 1.63.35.39.697.784 1.043 1.178.796.9 1.617 1.834 2.46 2.722.634.666 1.243 1.257 1.833 1.828 1.745 1.692 3.25 3.153 4.275 5.58.09.217.182.428.27.636.54 1.26 1.005 2.347 1.246 3.636.11.584.127 1.118.143 1.634.038 1.19.077 2.423 1.18 3.98 2.14 3.02 5.6 5.093 8.018 6.39.738.395 1.466.99 2.17 1.565 1.774 1.45 3.786 3.093 6.47 1.904 2.2-.975 2.845-3.075 3.413-4.93.456-1.486.887-2.892 2.04-3.59.113-.023.42.02.624.05.51.07 1.143.16 1.742-.1.06-.027.115-.058.168-.093l.038-.025c.567-.36 1.033-.662 1.37-.953.372.11.85.285 1.21.417.83.302 1.686.614 2.4.722.64.096 1.44.07 2.286.04.978-.03 2.317-.075 2.777.173.482.26.792.958 1.092 1.634.258.58.525 1.182.95 1.646.668.733 1.47 1.322 2.246 1.892.76.558 1.477 1.084 2.074 1.73.752.814.903 1.376 1.132 2.226.107.4.228.85.425 1.37.328.868.807 1.72 1.27 2.544.43.76.833 1.48 1.082 2.138.175.465.323.986.48 1.538.334 1.165.678 2.37 1.355 3.402.513.783 1.207 1.29 1.82 1.738.666.488 1.243.91 1.62 1.635.293.566.443 1 .588 1.42.284.822.552 1.6 1.657 2.75.494.513.988.82 1.384 1.066.64.398.994.617 1.26 1.6.166.612.092 1.395.014 2.223-.098 1.036-.2 2.108.143 3.107.293.858.83 1.624 1.347 2.365.457.654.89 1.27 1.14 1.915.187.473.32.877.437 1.233.406 1.236.7 2.13 2.336 3.17.937.594 2.125 1.022 3.174 1.4.648.233 1.262.453 1.684.668.505.257 1.072.63 1.67 1.027.88.578 1.785 1.177 2.652 1.5.95.354 1.944.273 2.82.202.69-.056 1.344-.11 1.89.04.525.148 1.067.612 1.64 1.104.81.694 1.728 1.48 2.907 1.532.06.002.117.004.176.004 1.79 0 3.05-1.218 3.308-3.216.254-1.958-.557-4.34-2.134-5.335.17-1.194-.206-2.332-.522-3.286-.14-.423-.273-.823-.347-1.183-.226-1.1.036-1.765.4-2.685.325-.828.695-1.765.71-3.1.002-.142-.027-.28-.08-.407.624-.83.982-1.91 1.312-2.907.216-.652.42-1.267.665-1.712.238-.43.13-.967-.253-1.274-.167-.134-.336-.32-.513-.524 1.534-.362 2.17-.98 3.205-3.024.18.045.37.052.57.02 1.11-.172 1.77-1.716 2.14-3.07.11.053.225.098.343.133 1.134.338 2.163-.272 3.158-.86.194-.116.393-.235.592-.345.27.12.59.124.874-.02l7.118-3.615c.284-.144.47-.405.532-.694.823-.305 1.583-.602 2.102-.945 1.932-1.27 3.302-2.883 4.51-4.306l.416-.487c.26-.3.502-.493.737-.678.464-.368.98-.774 1.204-1.695.294.207.69.25 1.03.082.676-.33 1.37-.704 2.105-1.1 2.45-1.32 5.242-2.813 7.66-2.783.214.002.42-.065.59-.183.804-.027 1.68-.3 2.493-.555.518-.162 1.007-.316 1.34-.36 1.788-.242 3.78.46 5.886 1.202 2.935 1.035 6.24 2.2 9.13.4.05.072.107.138.174.196.948.83 1.943 1.218 2.885 1.128.548-.052 1.34-.3 2.048-1.175.13.15.277.296.45.438.74.615 2 .427 2.683.26.127-.03.29-.074.472-.133.043.13.096.26.155.38l-.59.658c-.357.398-.34 1.005.036 1.384.277.28.987.956 1.586 1.226.358.16.776.1 1.074-.154.024-.02.046-.042.068-.064.16.403.565.66.995.636.14-.007.275-.044.397-.105.104.123.238.22.394.284.573.23 1.175.34 1.76.34.892 0 1.747-.26 2.4-.768.527-.41.884-.952 1.042-1.564.05.014.09.03.117.044 0 .027.003.054.006.08v.01c0 .018 0 .038.002.057l.005.092c.032.557.516.98 1.068.95.213-.012.406-.09.562-.21.545.707 1.217 1.233 2.028 1.15 1.422-.133 1.9-1.962 2.055-2.562.244-.936.118-1.66-.153-2.237.26.038.512.064.75.088.71.07 1.44.145 2.11.445.757.337 1.353.037 1.633-.323.46-.593.348-1.46-.335-2.584.15-.07.273-.108.466-.123l.003.002c.08.062.17.11.26.14v.002h.003s.002 0 .003.002c.152.054.313.07.47.05h.002c.152-.02.3-.075.43-.162.09-.06.172-.134.24-.224.074-.095.127-.2.162-.306v-.002c.032-.1.048-.204.048-.307 0-.04-.003-.078-.007-.117-.017-.155-.07-.306-.16-.44l-.015-.023c.347-.13.644-.327.866-.61.65-.83.316-1.855-.007-2.846-.16-.493-.342-1.05-.435-1.63-.047-.293-.222-.552-.48-.705-.034-.02-.07-.038-.107-.054.158-.12.31-.26.454-.42.254-.29.498-.67.686-1.08 1.002.162 1.987-.424 2.94-.993.49-.29 1.038-.62 1.4-.704.178.047.533.17.78.258.638.224 1.05.363 1.37.398.672.073 1.15-.088 1.434-.184h.004c.04.04.093.1.16.183.174.218.43.355.71.378.28.02.554-.07.76-.258.297-.268.533-.61.72-1.017.642.178 1.51.24 2.693.188.284-.012.55-.143.733-.36.182-.217.265-.5.227-.782-.057-.426-.06-.85-.03-1.278.224.685.538 1.376 1.036 1.963-.187.07-.368.126-.544.164-.542.116-.89.647-.777 1.19.098.476.52.806.99.806.064 0 .13-.006.194-.02 1.337-.26 2.818-.62 4.073-1.226l.006.005.046.03c.037.03.074.057.115.08.02.01.04.015.06.025.04.018.078.038.12.05.036.013.076.018.114.026.027.006.053.015.08.017.067.008.136.01.206.003.074-.007.145-.023.213-.045.022-.007.042-.016.062-.025.046-.017.09-.038.132-.06l.063-.04c.04-.027.075-.055.11-.086.017-.016.035-.03.052-.048.036-.038.07-.08.1-.122.007-.01.018-.02.025-.03.918-.096 1.752-.41 2.397-.89.213.1.46.128.702.063.71-.192 1.44-.38 2.174-.565.19.073.403.09.614.038l1.297-.327c.206-.05.38-.16.51-.307l.44-.108 1.6-.39c.253-.063.473-.2.692-.377.08.195.218.364.406.48 1.127.695 2.593 1.107 4.146 1.543 1.26.354 2.56.72 3.578 1.23.325.164.713.127 1.015-.075.092-.06.17-.136.237-.222.278.102.557.206.834.31.01.31.166.604.43.788 1.666 1.167 2.402 2.206 2.247 3.177-.05.322.056.648.288.877.232.228.56.332.88.277 1.265-.214 2.506-.497 3.552-.746.275-.065.506-.24.643-.48 1.14-.157 2.09-.88 2.913-1.506.98-.746 1.83-1.39 2.853-1.24.517.078 1.002-.248 1.13-.75.126-.503-.15-1.02-.638-1.197l-.075-.027c.586-.386 1.766-.837 2.335-.843h.045c1.34 0 3.052.682 4.593 1.83 1.24.926 2.117 2.016 3.047 3.17 1.165 1.446 2.37 2.94 4.328 4.136.574.35 1.093.577 1.552.775.878.38 1.513.655 2.277 1.68 1.197 1.603 1.727 3.216 1.72 5.23-.005 1.042-.21 2.07-.43 3.16l-.12.606-.056.01-.035.004c-.5.077-.857.506-.857.995 0 .05.003.103.01.156.06.372.313.664.64.79-.318 3.265.33 3.812 2.79 5.337l.23.144c.037.022.075.043.113.06-.216.45-.344.867-.353 1.25-.017.7.118 1.15.343 1.498-.035.102-.053.212-.053.324 0 .04.002.082.008.124.07.553.574.945 1.13.876l.044-.005.09-.015c.027.04.056.08.085.125.29.438.588 1.035.904 1.668.716 1.437 1.612 3.233 3.036 4.203 0 .05.004.1.013.15.087.55.605.925 1.158.836l.045-.007c.23-.037.428-.147.576-.304.21.025.432.032.663.02.062-.002.123-.01.182-.024.04.167.07.414.096.638.076.616.16 1.313.53 1.837.417.596 1.066.72 1.496.803l.2.04c.41.615.712 1.322 1.033 2.067.716 1.67 1.53 3.566 3.762 4.714.57.292 1.188.41 1.79.52.16.45.63.736 1.118.655l.054-.01c.148-.024.283-.08.4-.158.456.378.807 1.096 1.177 1.853.418.852.847 1.732 1.545 2.38-.464 1.284-.362 2.256.305 2.89.433.414 1.015.597 1.73.597 1.388 0 3.28-.69 5.557-1.71.135-.06.25-.113.34-.15 2.8-1.216 2.99-2.13 3.13-4.6.023-.448.052-.956.106-1.548.052-.578.33-1.183.62-1.824.316-.687.64-1.398.766-2.21.18-1.173.02-2.458-.135-3.702-.07-.554-.134-1.078-.163-1.553-.014-.228-.026-.514-.04-.84-.122-2.97-.35-5.914-1.428-7.446.004-.038.006-.076.007-.114 0-.06-.005-.123-.016-.185-.034-.185-.118-.35-.235-.483-.43-.96-1.117-1.41-1.632-1.747-.16-.104-.3-.197-.42-.292.203-.187.327-.454.327-.74 0-.054-.004-.11-.013-.163-.07-.438-.415-.764-.83-.835l-.48-.772c-.26-.415-.52-.83-.778-1.245.073-.14.113-.298.113-.46 0-.06-.005-.12-.016-.18-.088-.496-.527-.837-1.015-.832l-1.352-2.147c-1.11-1.754-2.38-3.835-3.58-6.113l.005-.01c.38.08.776-.063 1.015-.373 1.67-2.17-.756-4.086-2.06-5.114-.325-.258-.633-.5-.8-.674-1.146-1.188-2.22-2.916-3.26-4.587-.528-.85-1.073-1.726-1.625-2.527-.01-.025-.02-.05-.033-.074-.2-.394-.458-.86-.735-1.338-.29-.608-.61-1.327-.938-2.066-.64-1.44-1.284-2.895-1.96-4.186-.336-1-.754-2.018-1.596-2.56-.356-.454-.722-.837-1.104-1.13.192-.284.345-.588.415-.902.102-.137.17-.3.193-.472.1-.762.16-1.868-.5-2.668-.103-.126-.217-.23-.336-.323l.09-.547c.102-.6.208-1.218.266-1.847.034-.364-.132-.717-.433-.924-.045-.032-.092-.06-.14-.082.063-.167.082-.352.05-.534-.02-.11-.038-.222-.055-.337.903-.696 1.13-1.43 1.162-1.926.024-.36-.04-.86-.394-1.394.16-.134.277-.317.33-.527.052-.212.118-.43.185-.65.16-.53.325-1.077.38-1.647.016-.172-.013-.343-.08-.496.004-.03.005-.063.005-.094.002-.48-.335-.893-.802-.99.006-.002.01-.003.016-.003.337.07.69-.036.934-.287.5-.518.933-1.476 1.015-1.663.024-.055.043-.113.057-.17l.014-.012c.366-.264.513-.738.36-1.16-.275-.754-.586-1.467-.917-2.157.26-.062.5-.143.715-.246.027.024.056.046.087.067.352.243.82.238 1.167-.013.6-.436 1.4-1.122 1.462-2.085.142-.052.272-.137.38-.25.616-.645 1.127-1.555 1.538-2.285l.06-.11c.147-.26.17-.57.067-.848-.022-.06-.05-.116-.08-.168l.048-.037c.018-.016.036-.03.053-.048.49.073 1.02-.012 1.56-.265 1.267-.595 2.556-2.21 2.946-3.998l.04-.02c1.168-.642 1.706-1.478 2.18-2.216.287-.444.556-.864.966-1.255.257-.245.518-.327.878-.44.696-.217 1.65-.514 2.33-2.023.025-.042.048-.088.067-.135.05-.125.075-.254.075-.38 0-.018 0-.037-.002-.055.776-.782.937-1.994 1.093-3.17.097-.734.197-1.492.44-2.028.753-1.672 1.857-2.953 3.217-4.356.008 0 .015-.002.022 0l.042.002c.038 0 .074-.01.11-.013.033-.004.065-.005.097-.01.05-.012.1-.03.15-.05.026-.01.054-.016.08-.028.052-.025.1-.058.147-.09.02-.016.044-.027.064-.044.056-.046.105-.1.15-.16 1.16-.1 2.26-.582 3.4-1.084.237-.105.338-.094.522-.075.63.064 1.08-.087 1.47-.52.014.002.026.004.04.004.127 0 .257-.025.383-.077.39-.16.628-.537.628-.935 0-.127-.025-.257-.077-.383l-.022-.053c-.05-.123-.124-.23-.212-.32 0-.082.002-.164-.003-.248.043-.06.08-.124.112-.193.092-.204.207-.446.33-.704.606-1.272.97-2.11 1.034-2.752.234-.25.55-.565.9-.915 1.568-1.57 3.39-3.392 3.967-5.012.344.025.72.005 1.124-.063 1.003-.168 2.305-.685 3.187-1.472.186.174.433.274.693.274h.008c.336-.003.65-.172.835-.452l2.422-3.644c.258-.387.217-.9-.1-1.242-.315-.342-.824-.423-1.233-.198-.083.046-.185.084-.3.12-.028-.044-.062-.086-.1-.125-.244-.26-.608-.373-.958-.294l-.12.028-.357.08c.374-1.117.41-2.29.09-3.166.004-.006.01-.013.013-.02.2-.3.2-.303.816-.11.57.178 1.43.448 2.326-.05 1.066-.59 1.995-2.593 2.202-4.1h.008c.152-.034.36-.078.44-.068.337.048.673-.075.898-.328.225-.254.308-.602.222-.93z" fill="#5B7382" mask="url(#d)"/></g></g><ellipse fill="#5D7381" cx="68" cy="43" rx="25.924" ry="25.924"/><g transform="translate(45 13)"><ellipse fill="#FFF" cx="26" cy="26" rx="25.924" ry="25.924"/><path d="M19.236 37.396c-1.82.08-3.264 1.555-3.264 3.31 0 1.837 1.53 3.313 3.43 3.313h14.71c1.902 0 3.434-1.477 3.434-3.313 0-1.835-1.532-3.31-3.433-3.31H19.236zM28.246 8.398c-.33-.4-.827-.6-1.28-.6-.25 0-.497.04-.703.16-.703.32-1.075 1.036-.95 1.795 1.074 5.507.535 8.538-.33 9.576-.29.307-.828.16-1.076-.16-.496-.598-.702-1.557-.496-2.515.04-.117.04-.237.04-.398 0-.877-.74-1.596-1.61-1.637H21.633c-.29 0-.58.12-.826.28-.125.08-.207.16-.33.278l-.043.042c-3.884 4.547-5.66 9.694-4.96 14.163.357 2.315 1.403 4.323 2.99 5.935.117.12.478.35.944.35.467 0 1.006-.016 1.006-.016.323 0 .895-.196.647-.74-.54-1.187-.36-2.23.61-4.57.333 3.11 1.738 4.548 3.266 4.548 2.397 0 5.083-3.51 4.298-9.538 4.676 4.514 3.303 7.68 2.57 9.308-.323.72.037 1.01.505 1.01h1.365c.43 0 .755-.22 1.192-.76 1.53-1.895 2.617-3.86 2.92-6.126 1.118-7.98-6.362-16.677-9.544-20.386" fill="#5A7382"/></g></g></svg>
