<?xml version="1.0" encoding="UTF-8"?>
<svg width="224px" height="91px" viewBox="0 0 224 91" version="1.1" xmlns="http://www.w3.org/2000/svg" xmlns:xlink="http://www.w3.org/1999/xlink">
    <!-- Generator: Sketch 42 (36781) - http://www.bohemiancoding.com/sketch -->
    <title>home-card / disbursements</title>
    <desc>Created with Sketch.</desc>
    <defs>
        <path d="M0,7.99588761 C0,3.57988082 3.58644863,0 8.00526927,0 L215.994731,0 C220.415919,0 224,3.58130964 224,7.99588761 L224,91 L0,91 L0,7.99588761 Z" id="path-1"></path>
        <rect id="path-3" x="0" y="0" width="51" height="39.6052632"></rect>
        <polygon id="path-5" points="0.0841258166 0.282712644 29.0994927 0.282712644 29.0994927 38.8466058 0.0841258166 38.8466058"></polygon>
        <polygon id="path-7" points="47.7292208 2.0030248 0 2.0030248 0 0.120496249 47.7292208 0.120496249 47.7292208 2.0030248"></polygon>
        <polygon id="path-9" points="0.0917066667 9.63402992 0.0917066667 0.156738618 9.47960667 0.156738618 9.47960667 9.63402992 0.0917066667 9.63402992"></polygon>
        <polygon id="path-11" points="0.024548 0.156738618 9.37282667 0.156738618 9.37282667 9.6227028 0.024548 9.6227028 0.024548 0.156738618"></polygon>
        <polygon id="path-13" points="0.0917066667 0.14837752 0.0917066667 9.62191016 9.47960667 9.62191016 9.47960667 0.14837752 0.0917066667 0.14837752"></polygon>
        <polygon id="path-15" points="9.37282667 0.14837752 9.37282667 9.62191016 0.00620666667 9.62191016 0.00620666667 0.14837752 9.37282667 0.14837752"></polygon>
        <polygon id="path-17" points="23.3966458 48.5775862 0 48.5775862 0 0.0789913793 46.7932917 0.0789913793 46.7932917 48.5775862 23.3966458 48.5775862"></polygon>
    </defs>
    <g id="Home,-Level-2,-etc" stroke="none" stroke-width="1" fill="none" fill-rule="evenodd">
        <g id="Home-Card-Art-Alt-03-2017" transform="translate(-389.000000, -66.000000)">
            <g id="home-card-/-disbursements" transform="translate(389.000000, 66.000000)">
                <g id="home-card-disbursements">
                    <g id="Rectangle-100-+-Bitmap">
                        <mask id="mask-2" fill="white">
                            <use xlink:href="#path-1"></use>
                        </mask>
                        <use id="Rectangle-103" fill="#96BC7F" xlink:href="#path-1"></use>
                        <g id="icon-/-trees" mask="url(#mask-2)">
                            <g transform="translate(156.000000, -3.000000)">
                                <mask id="mask-4" fill="white">
                                    <use xlink:href="#path-3"></use>
                                </mask>
                                <g  stroke="none" fill="none"></g>
                                <g id="Page-1" stroke="none" stroke-width="1" fill="none" fill-rule="evenodd" mask="url(#mask-4)">
                                    <g id="Group-3" transform="translate(20.634483, 0.003434)">
                                        <mask id="mask-6" fill="white">
                                            <use xlink:href="#path-5"></use>
                                        </mask>
                                        <g id="Clip-2"></g>
                                        <path d="M18.8626398,38.0021878 L18.8626398,32.353944 L28.1513096,32.353944 C28.5198644,32.353944 28.8571808,32.1404788 29.0130858,31.8079766 C29.1666981,31.4749022 29.1128192,31.083454 28.8738031,30.8044612 L23.679072,24.7255671 L26.9800161,24.7255671 C26.9929126,24.7261394 27.0075287,24.7255671 27.0166996,24.7255671 C27.541446,24.7255671 27.9655992,24.3046457 27.9655992,23.7841454 C27.9655992,23.4728181 27.8137065,23.1961146 27.5784161,23.0247129 L21.2439165,15.4014866 L24.6245326,15.4014866 C24.6391487,15.4032035 24.6540513,15.4023451 24.6612161,15.4014866 C25.1859625,15.4014866 25.6101157,14.9802791 25.6101157,14.460065 C25.6101157,14.1624727 25.4714061,13.8966427 25.2524513,13.7238103 L15.3524851,0.658365638 C15.1747992,0.420864126 14.8930812,0.282655414 14.5944544,0.282655414 C14.2961142,0.282655414 14.0146828,0.420864126 13.8364238,0.658365638 L3.80491264,13.8949258 C3.58825057,14.1793554 3.553,14.5613608 3.7140636,14.8801279 C3.87541379,15.1997534 4.2032728,15.4014866 4.5629433,15.4014866 L7.94155326,15.4014866 L1.47378927,23.1855272 C1.2399318,23.4665229 1.19006513,23.8562543 1.34768966,24.185895 C1.50330805,24.5149633 1.83861839,24.7255671 2.20574023,24.7255671 L5.5063977,24.7255671 L0.309947126,30.8044612 C0.0706444444,31.083454 0.0170521073,31.4749022 0.170664368,31.8079766 C0.326569349,32.1404788 0.663885824,32.353944 1.03244061,32.353944 L11.2717295,32.353944 L11.2717295,38.0021878 C11.2717295,38.8466058 11.6918705,38.8466058 12.3384176,38.8466058 L18.1576284,38.8466058 C18.6425387,38.8466058 18.8626398,38.4488623 18.8626398,38.0021878"  fill="#7BA768" mask="url(#mask-6)"></path>
                                    </g>
                                    <g id="Group-6" transform="translate(0.000000, 40.063930)">
                                        <mask id="mask-8" fill="white">
                                            <use xlink:href="#path-7"></use>
                                        </mask>
                                        <g id="Clip-5"></g>
                                        <path d="M0.948842299,0.120496249 C0.424382529,0.120496249 -5.7318007e-05,0.541703751 -5.7318007e-05,1.06220405 C-5.7318007e-05,1.58213206 0.424382529,2.00305342 0.948842299,2.00305342 L46.7803212,2.00305342 C47.304781,2.00305342 47.7292208,1.58213206 47.7292208,1.06220405 C47.7292208,0.541703751 47.304781,0.120496249 46.7803212,0.120496249 L0.948842299,0.120496249 Z"  fill="#69995A" mask="url(#mask-8)"></path>
                                    </g>
                                </g>
                                <path d="M14.0276087,31.1908277 L14.0276087,27.7491768 L19.6874845,27.7491768 C19.9120564,27.7491768 20.1175938,27.6191058 20.2125916,27.4165019 C20.3061923,27.2135493 20.2733622,26.9750277 20.1277223,26.8050287 L16.9624109,23.1009692 L18.9737789,23.1009692 C18.9816372,23.1013179 18.9905432,23.1009692 18.9961313,23.1009692 C19.3158756,23.1009692 19.5743254,22.8444887 19.5743254,22.5273316 C19.5743254,22.3376302 19.4817724,22.1690261 19.3384026,22.0645857 L15.4785947,17.4195166 L17.5385094,17.4195166 C17.5474154,17.4205627 17.5564961,17.4200396 17.5608618,17.4195166 C17.8806061,17.4195166 18.1390559,17.1628617 18.1390559,16.845879 C18.1390559,16.6645468 18.0545358,16.5025683 17.9211199,16.3972561 L11.8887621,8.43607374 C11.7804926,8.29135668 11.608833,8.2071418 11.4268704,8.2071418 C11.2450824,8.2071418 11.0735975,8.29135668 10.9649787,8.43607374 L4.85246654,16.5015221 C4.7204476,16.6748339 4.69896832,16.9076017 4.79710939,17.1018364 C4.89542509,17.2965942 5.09519979,17.4195166 5.31435823,17.4195166 L7.37305051,17.4195166 L3.43204047,22.1625749 C3.28954383,22.3337944 3.25915851,22.5712698 3.35520404,22.7721302 C3.45002718,22.9726418 3.65434221,23.1009692 3.87804098,23.1009692 L5.88923438,23.1009692 L2.7228752,26.8050287 C2.57706062,26.9750277 2.54440514,27.2135493 2.63800588,27.4165019 C2.73300364,27.6191058 2.93854107,27.7491768 3.16311298,27.7491768 L9.40223062,27.7491768 L9.40223062,31.1908277 C9.40223062,31.7053579 9.65823561,31.7053579 10.0521969,31.7053579 L13.5980233,31.7053579 C13.8934942,31.7053579 14.0276087,31.4630004 14.0276087,31.1908277" id="Fill-1-Copy" stroke="none" fill="#7BA768" fill-rule="evenodd" mask="url(#mask-4)"></path>
                            </g>
                        </g>
                        <rect id="Rectangle-4" fill="#769D65" mask="url(#mask-2)" transform="translate(49.635186, 38.817574) rotate(-10.000000) translate(-49.635186, -38.817574) " x="11.6351859" y="20.3175742" width="76" height="37"></rect>
                        <g id="icon-/-dollar" mask="url(#mask-2)">
                            <g transform="translate(52.778450, 35.174678) rotate(-10.000000) translate(-52.778450, -35.174678) translate(14.778450, 16.649678)" id="dollar">
                                <g>
                                    <polygon  fill="#FFFFFF" points="2.87837333 33.0907695 73.2128267 33.0907695 73.2128267 2.91462236 2.87837333 2.91462236"></polygon>
                                    <polygon id="Fill-2" fill="#FFFFFF" points="0.09348 35.9013256 75.9972133 35.9013256 75.9972133 0.104321951 0.09348 0.104321951"></polygon>
                                    <g id="Group-17" transform="translate(2.786667, 2.757884)">
                                        <g id="Group-5">
                                            <mask id="mask-10" fill="white">
                                                <use xlink:href="#path-9"></use>
                                            </mask>
                                            <g id="Clip-4"></g>
                                            <path d="M9.47960667,0.119765691 C9.47960667,5.37421691 5.25932667,9.63402992 0.0530733333,9.63402992 C-5.15292667,9.63402992 -9.37346,5.37421691 -9.37346,0.119765691 C-9.37346,-5.13468553 -5.15292667,-9.39449854 0.0530733333,-9.39449854 C5.25932667,-9.39449854 9.47960667,-5.13468553 9.47960667,0.119765691"  fill="#587F4C" mask="url(#mask-10)"></path>
                                        </g>
                                        <path d="M45.687628,15.278768 C45.687628,21.9200875 41.0232547,27.3039184 35.269548,27.3039184 C29.5158413,27.3039184 24.851468,21.9200875 24.851468,15.278768 C24.851468,8.63744846 29.5158413,3.25361756 35.269548,3.25361756 C41.0232547,3.25361756 45.687628,8.63744846 45.687628,15.278768" id="Fill-6" fill="#587F4C"></path>
                                        <g id="Group-10" transform="translate(61.053333, 0.000000)">
                                            <mask id="mask-12" fill="white">
                                                <use xlink:href="#path-11"></use>
                                            </mask>
                                            <g id="Clip-9"></g>
                                            <path d="M18.8773613,0.108438577 C18.8773613,5.3628898 14.6570813,9.6227028 9.450828,9.6227028 C4.244828,9.6227028 0.024548,5.3628898 0.024548,0.108438577 C0.024548,-5.14601264 4.244828,-9.40582565 9.450828,-9.40582565 C14.6570813,-9.40582565 18.8773613,-5.14601264 18.8773613,0.108438577" id="Fill-8" fill="#587F4C" mask="url(#mask-12)"></path>
                                        </g>
                                        <g id="Group-13" transform="translate(0.000000, 20.710976)">
                                            <mask id="mask-14" fill="white">
                                                <use xlink:href="#path-13"></use>
                                            </mask>
                                            <g id="Clip-12"></g>
                                            <path d="M9.47960667,9.66264175 C9.47960667,14.917093 5.25932667,19.176906 0.0530733333,19.176906 C-5.15292667,19.176906 -9.37320667,14.917093 -9.37320667,9.66264175 C-9.37320667,4.40819053 -5.15292667,0.14837752 0.0530733333,0.14837752 C5.25932667,0.14837752 9.47960667,4.40819053 9.47960667,9.66264175" id="Fill-11" fill="#587F4C" mask="url(#mask-14)"></path>
                                        </g>
                                        <g id="Group-16" transform="translate(61.053333, 20.710976)">
                                            <mask id="mask-16" fill="white">
                                                <use xlink:href="#path-15"></use>
                                            </mask>
                                            <g id="Clip-15"></g>
                                            <path d="M18.85902,9.66264175 C18.85902,14.917093 14.63874,19.176906 9.43248667,19.176906 C4.22648667,19.176906 0.00620666667,14.917093 0.00620666667,9.66264175 C0.00620666667,4.40819053 4.22648667,0.14837752 9.43248667,0.14837752 C14.63874,0.14837752 18.85902,4.40819053 18.85902,9.66264175" id="Fill-14" fill="#587F4C" mask="url(#mask-16)"></path>
                                        </g>
                                    </g>
                                    <path d="M40.5579827,20.7804469 C40.5579827,20.5426542 40.5159293,20.334266 40.4323293,20.1560493 C40.348476,19.977577 40.230676,19.8195599 40.0789293,19.6819981 C39.926676,19.5441806 39.7485827,19.4252843 39.5438893,19.3250534 C39.339196,19.2250782 39.1160093,19.1343078 38.874076,19.0527424 L38.557916,22.8648404 C39.2150627,22.7771383 39.7128627,22.5534087 40.0508093,22.1933957 C40.3890093,21.8336383 40.5579827,21.3623997 40.5579827,20.7804469 L40.5579827,20.7804469 Z M36.0367427,14.6372135 C36.0367427,14.8755176 36.077276,15.0851843 36.157836,15.2667249 C36.238396,15.4485213 36.351636,15.6098623 36.4973027,15.7507481 C36.6429693,15.8916339 36.815236,16.0169225 37.013596,16.1266139 C37.2122093,16.2360497 37.4290627,16.3347465 37.664916,16.4224485 L37.9532093,12.9463286 C37.6119693,12.9903074 37.320636,13.0636908 37.0787027,13.16699 C36.8370227,13.2705448 36.6384093,13.3973676 36.4833693,13.5477139 C36.3283293,13.6980603 36.2150893,13.8655379 36.1439027,14.0501469 C36.0724627,14.2350115 36.0367427,14.4308709 36.0367427,14.6372135 L36.0367427,14.6372135 Z M36.9766093,24.7613009 C36.2508093,24.6613257 35.5701027,24.4608639 34.9344893,24.160427 C34.298876,23.85999 33.757756,23.4877038 33.3111293,23.043057 L34.0181827,21.9809164 C34.0802493,21.8870778 34.1625827,21.8103704 34.264676,21.7507944 C34.367276,21.6912184 34.4741827,21.6615583 34.5856493,21.6615583 C34.722196,21.6615583 34.8678627,21.7101396 35.0229027,21.8070465 C35.1779427,21.9042091 35.354516,22.0182473 35.5531293,22.1496725 C35.7514893,22.2810977 35.9779693,22.4125229 36.232316,22.5442038 C36.4864093,22.675629 36.787116,22.7727916 37.1346893,22.8351802 L37.4880893,18.6288066 C37.047796,18.5032623 36.6120627,18.3557286 36.1811427,18.1862054 C35.7499693,18.0164265 35.3626227,17.7919298 35.0183427,17.5122038 C34.6740627,17.2327335 34.3964093,16.8796241 34.1858893,16.4523643 C33.9748627,16.0253603 33.869476,15.4914774 33.869476,14.8507156 C33.869476,14.3733404 33.963716,13.9069599 34.1532093,13.4515741 C34.342196,12.9961883 34.616556,12.5893839 34.9762893,12.2314164 C35.3360227,11.8734489 35.7796093,11.5781257 36.306796,11.3457026 C36.8337293,11.1132794 37.438436,10.99694 38.1206627,10.99694 L38.2230093,9.80132858 C38.2354227,9.64970378 38.2974893,9.51367614 38.4092093,9.39350134 C38.520676,9.27332654 38.6663427,9.21298346 38.8462093,9.21298346 L39.6928493,9.21298346 L39.5347693,11.0590729 C40.191916,11.1656961 40.7593827,11.3533733 41.236916,11.6223603 C41.7144493,11.891603 42.129916,12.1951083 42.4835693,12.5331318 L41.925476,13.3876513 C41.8383293,13.51294 41.7516893,13.6067786 41.664796,13.6691672 C41.578156,13.7318115 41.472516,13.7630058 41.348636,13.7630058 C41.2556627,13.7630058 41.1454627,13.7336013 41.0182893,13.6740253 C40.891116,13.6144493 40.7454493,13.5423444 40.581036,13.4579664 C40.416876,13.3735883 40.235236,13.2874204 40.036876,13.1997184 C39.838516,13.1122721 39.6183693,13.0401672 39.376436,12.9839152 L39.0509027,16.8729761 C39.497276,17.0107936 39.9393427,17.1626741 40.376596,17.3286176 C40.813596,17.4945611 41.2075293,17.7090859 41.5578893,17.9719363 C41.9082493,18.2347867 42.1919827,18.5620713 42.4090893,18.9532786 C42.626196,19.3444859 42.7346227,19.83439 42.7346227,20.4227351 C42.7346227,21.0049436 42.6386093,21.5510997 42.4463293,22.0612034 C42.2540493,22.5715627 41.973356,23.0223461 41.6045027,23.4135534 C41.235396,23.8050164 40.7811693,24.1225847 40.2415693,24.3667696 C39.7019693,24.6106989 39.0851027,24.757977 38.3904627,24.8080924 L38.2787427,26.1883127 C38.2663293,26.3325225 38.2042627,26.4654818 38.092796,26.5874465 C37.981076,26.7096668 37.835156,26.7705213 37.6555427,26.7705213 L36.809156,26.7705213 L36.9766093,24.7613009 Z" id="Fill-18" fill="#FFFFFF"></path>
                                </g>
                            </g>
                        </g>
                        <g id="icon-/-dam" mask="url(#mask-2)">
                            <g transform="translate(152.000000, 41.000000)" id="Page-1">
                                <g>
                                    <path d="M1.24351942,52.8654958 L11.8127718,52.8654958 C12.4965971,52.8654958 13.0562913,52.1136975 13.0562913,51.194437 L13.0562913,2.47140336 C13.0562913,2.02602521 13.0333204,1.13526891 12.1864903,1.02392437 C11.4063641,0.921487395 8.98293689,0.448495798 7.43770388,0.0592352941 C6.4071068,-0.200865546 6.11246117,0.430235294 6.00202427,1.3209916 C5.4516068,5.76141176 0,51.194437 0,51.194437 C0,52.1136975 0.559694175,52.8654958 1.24351942,52.8654958"  fill="#7BA768"></path>
                                    <path d="M15.3126053,51.1356916 L15.3126053,3.51140588 C15.3126053,2.56007815 15.5365714,1.76641429 16.5141587,1.78155714 C16.5141587,1.78155714 33.7065325,2.91682605 45.2648578,2.91682605 C56.8227413,2.91682605 73.6705519,1.8456916 74.4210811,1.78155714 C75.4671393,1.69203613 75.6221927,2.32313697 75.6221927,2.80548151 L75.6221927,51.1356916 C75.6221927,52.0870193 75.0819354,52.8655403 74.4210811,52.8655403 L16.5141587,52.8655403 C15.8533044,52.8655403 15.3126053,52.0870193 15.3126053,51.1356916"  fill="#7BA768"></path>
                                    <path d="M63.355216,28.4520034 C63.355216,31.9776168 61.0921432,34.8356084 58.2570073,34.8356084 C55.4218714,34.8356084 53.1587985,31.9776168 53.1587985,28.4520034 L53.1587985,16.2784824 C53.1587985,12.7528689 55.4218714,9.89443193 58.2570073,9.89443193 C61.0921432,9.89443193 63.3728859,12.7528689 63.3728859,16.2784824 L63.355216,28.4520034 Z" id="Fill-6" fill="#96BB7C"></path>
                                    <path d="M50.4149718,28.4520034 C50.4149718,31.9776168 48.2168359,34.8356084 45.3817,34.8356084 C42.5461223,34.8356084 40.3479864,31.9776168 40.3479864,28.4520034 L40.3479864,16.2784824 C40.3479864,12.7528689 42.5461223,9.89443193 45.3817,9.89443193 C48.2168359,9.89443193 50.4653311,12.7528689 50.4653311,16.2784824 L50.4149718,28.4520034 Z" id="Fill-8" fill="#96BB7C"></path>
                                    <path d="M37.4747277,28.4520034 C37.4747277,31.9776168 35.1206549,34.8356084 32.2850772,34.8356084 C29.4499413,34.8356084 27.0954267,31.9776168 27.0954267,28.4520034 L27.0954267,16.2784824 C27.0954267,12.7528689 29.4499413,9.89443193 32.2850772,9.89443193 C35.1206549,9.89443193 37.4468976,12.7528689 37.4468976,16.2784824 L37.4747277,28.4520034 Z" id="Fill-10" fill="#96BB7C"></path>
                                    <path d="M17.5309291,50.5724218 L17.455832,40.3933042 C18.4510893,39.3261782 20.9544728,38.5472118 23.7874,39.9390185 C26.5116573,29.8623378 27.0638417,22.5135983 27.9106718,15.3875479 L63.0243029,15.3875479 C63.871133,22.5135983 64.4233175,29.8623378 67.1475748,39.9390185 C69.9805019,38.5472118 72.4838854,39.3261782 73.4791427,40.3933042 L73.4040456,50.5724218 L17.5309291,50.5724218 Z" id="Fill-12" fill="#96BB7C"></path>
                                    <path d="M53.1706374,18.8530798 C53.1706374,18.8530798 52.6688121,34.5388529 51.7959189,34.5388529 C50.9230257,34.5388529 50.4304772,18.8530798 50.4304772,18.8530798 L50.4304772,15.0673655 L53.1706374,15.0673655 L53.1706374,18.8530798 Z" id="Fill-14" fill="#7BA768"></path>
                                    <path d="M40.403249,18.8530798 C40.403249,18.8530798 39.778618,34.5388529 38.8553655,34.5388529 C37.9321131,34.5388529 37.4112927,18.8530798 37.4112927,18.8530798 L37.4112927,15.0673655 L40.403249,15.0673655 L40.403249,18.8530798 Z" id="Fill-16" fill="#7BA768"></path>
                                    <polygon id="Stroke-18" fill="#7BA768" fill-rule="nonzero" points="68.1781277 18.9505731 22.6781277 18.9505731 22.6781277 21.1774639 68.1781277 21.1774639"></polygon>
                                    <path d="M69.9408185,37.7370096 C68.9797029,37.8972038 68.8270234,37.9442553 66.3027457,38.788147 C64.005079,39.5562803 62.5078693,39.8849941 60.662632,39.8849941 C59.0613682,39.8849941 58.1119569,39.723482 56.6867948,39.3101019 C56.6504294,39.2995537 56.3446981,39.2103705 56.2542891,39.1842958 C55.0195926,38.8281984 54.1900018,38.6829185 52.9656223,38.6829185 C51.6585784,38.6829185 50.8085529,38.8156869 49.3563173,39.1685653 C49.2631273,39.1912358 49.2631273,39.1912358 49.1703498,39.2138292 C47.6692562,39.5791427 46.8464438,39.7072882 45.4802097,39.7072882 C44.1139756,39.7072882 43.2911632,39.5791427 41.7900697,39.2138292 C41.6972921,39.1912358 41.6972921,39.1912358 41.6041021,39.1685653 C40.1518666,38.8156869 39.301841,38.6829185 37.9947971,38.6829185 C36.7704176,38.6829185 35.9408268,38.8281984 34.7061303,39.1842958 C34.6157213,39.2103705 34.3099901,39.2995537 34.2736246,39.3101019 C32.8484625,39.723482 31.8990512,39.8849941 30.2977874,39.8849941 C28.4525501,39.8849941 26.9553404,39.5562803 24.6576737,38.788147 C22.1333961,37.9442553 21.9807165,37.8972038 21.0196009,37.7370096 C20.6571015,37.6765899 20.3146571,37.923889 20.25473,38.2893677 C20.1948028,38.6548464 20.4400861,39.0001052 20.8025855,39.0605249 C21.6613962,39.2036674 21.810732,39.2496886 24.2389066,40.061452 C26.6602198,40.8709216 28.2796686,41.2264731 30.2977874,41.2264731 C32.0375893,41.2264731 33.1056261,41.0447806 34.6414926,40.5992897 C34.6796268,40.5882286 34.9839891,40.4994447 35.0720651,40.4740428 C36.1975604,40.1494401 36.91159,40.0243975 37.9947971,40.0243975 C39.17735,40.0243975 39.9333602,40.1424813 41.2923552,40.4727032 C41.3847856,40.495189 41.3847856,40.495189 41.477868,40.5178565 C43.0723284,40.9058923 43.9897174,41.0487672 45.4802097,41.0487672 C46.970702,41.0487672 47.888091,40.9058923 49.4825515,40.5178565 C49.5756338,40.495189 49.5756338,40.495189 49.6680642,40.4727032 C51.0270592,40.1424813 51.7830694,40.0243975 52.9656223,40.0243975 C54.0488294,40.0243975 54.762859,40.1494401 55.8883543,40.4740428 C55.9764303,40.4994447 56.2807927,40.5882286 56.3189268,40.5992897 C57.8547933,41.0447806 58.9228301,41.2264731 60.662632,41.2264731 C62.6807508,41.2264731 64.3001996,40.8709216 66.7215128,40.061452 C69.1496874,39.2496886 69.2990233,39.2036674 70.1578339,39.0605249 C70.5203333,39.0001052 70.7656166,38.6548464 70.7056895,38.2893677 C70.6457623,37.923889 70.3033179,37.6765899 69.9408185,37.7370096 Z" id="Stroke-20" fill="#7BA768" fill-rule="nonzero"></path>
                                    <path d="M89.6914553,52.8654958 L79.1222029,52.8654958 C78.4383777,52.8654958 77.8786835,52.1136975 77.8786835,51.194437 L77.8786835,2.47140336 C77.8786835,2.02602521 77.9016544,1.13526891 78.7484845,1.02392437 C79.5286107,0.921487395 81.9520379,0.448495798 83.4972709,0.0592352941 C84.527868,-0.200865546 84.8225136,0.430235294 84.9329505,1.3209916 C85.483368,5.76141176 90.9349748,51.194437 90.9349748,51.194437 C90.9349748,52.1136975 90.3752806,52.8654958 89.6914553,52.8654958" id="Fill-22" fill="#7BA768"></path>
                                </g>
                            </g>
                        </g>
                        <g id="icon-/-schoolhouse" mask="url(#mask-2)">
                            <g transform="translate(77.000000, 46.785714)" id="Page-1">
                                <g>
                                    <g id="Group-3" transform="translate(0.000000, 0.343422)">
                                        <mask id="mask-18" fill="white">
                                            <use xlink:href="#path-17"></use>
                                        </mask>
                                        <g id="Clip-2"></g>
                                        <path d="M18.8284098,10.7715517 C18.8284098,8.29958621 20.857383,6.3362069 23.313133,6.3362069 L23.2447313,6.3362069 C25.7000616,6.3362069 27.6409098,8.29958621 27.6409098,10.7715517 L27.6409098,16.297569 C27.6409098,16.775319 27.409267,17.3189655 26.9342313,17.3189655 L19.7319009,17.3189655 C19.2572848,17.3189655 18.8284098,16.775319 18.8284098,16.297569 L18.8284098,10.7715517 Z M45.563017,26.4515517 L30.9980527,13.5387845 L30.9980527,9.56936207 C30.9980527,9.59597414 32.0580705,9.43376724 32.1810259,9.28212069 C32.6573205,8.69707759 32.5868205,7.81718966 32.0240795,7.32169828 L24.176758,0.402560345 C24.1511598,0.379327586 24.1184277,0.360741379 24.084017,0.345534483 C23.5947134,-0.0295689655 22.8687313,-0.00760344828 22.4033473,0.402560345 L14.5560259,7.32169828 C13.9932848,7.81718966 13.8678116,8.69707759 14.343267,9.28212069 C14.466642,9.43376724 15.471267,9.59555172 15.471267,9.56936207 L15.471267,13.7314052 L1.18410625,26.4118448 C-0.244358036,27.6693707 -0.395429464,29.9208362 0.812302679,31.4060431 C1.12451696,31.7904397 1.67760625,32.2572069 2.75902589,32.2572069 C3.10397232,32.2572069 3.72126696,32.2204569 3.72126696,32.1549828 L3.72126696,45.9590431 C3.72126696,47.3846897 4.96508839,48.5775862 6.34655268,48.5775862 L16.6622134,48.5775862 C17.2035527,48.5775862 17.5694813,48.0981466 17.5694813,47.5481638 L17.5694813,32.9482759 L29.3194813,32.9482759 L29.3194813,47.5481638 C29.3194813,48.0981466 29.6002223,48.5775862 30.141142,48.5775862 L40.456383,48.5775862 C41.8386866,48.5775862 43.1676955,47.3846897 43.1676955,45.9590431 L43.1676955,32.1549828 C43.1676955,32.2213017 43.7270795,32.2673448 44.0724455,32.2673448 C45.1538652,32.2673448 45.7014991,31.8102931 46.014133,31.4258966 C47.2214455,29.9406897 46.9910616,27.7090776 45.563017,26.4515517 L45.563017,26.4515517 Z"  fill="#7BA768" mask="url(#mask-18)"></path>
                                    </g>
                                    <path d="M26.2571795,14.2183216 L26.2571795,13.8618043 C26.2571795,13.2239595 20.1962777,13.2239595 20.1962777,13.8618043 L20.1962777,14.2183216 C20.1962777,14.5211922 20.442608,14.7691491 20.7430723,14.7691491 L25.7103848,14.7691491 C26.0112688,14.7691491 26.2571795,14.5211922 26.2571795,14.2183216"  fill="#69995A"></path>
                                    <path d="M23.2268545,8.45634397 L23.2432205,8.45634397 C21.7908366,8.45634397 20.6187741,9.65219741 20.6187741,11.1141716 L20.6187741,14.2696026 C20.6187741,14.5521974 20.7597741,14.7663612 21.0409348,14.7663612 L22.3342741,14.7663612 C22.3279795,14.7663612 22.3216848,14.8571802 22.3216848,14.9006888 C22.3216848,15.3492922 22.683417,15.7172147 23.1290777,15.7172147 C23.575158,15.7172147 23.9360509,15.3471802 23.9360509,14.8985767 C23.9360509,14.8550681 23.9301759,14.7663612 23.9238812,14.7663612 L25.3007295,14.7663612 C25.5814705,14.7663612 25.9234795,14.5521974 25.9234795,14.2696026 L25.9234795,11.1141716 C25.9234795,9.65219741 24.6788187,8.45634397 23.2268545,8.45634397" id="Fill-6" fill="#7BA768"></path>
                                </g>
                            </g>
                        </g>
                        <g id="icon-/-capital-green" mask="url(#mask-2)">
                            <g transform="translate(112.000000, 6.000000)" id="capitol-bldg">
                                <g>
                                    <path d="M19.700704,39.253128 L17.2650833,39.253128 C16.9852769,39.253128 16.7564069,39.0239148 16.7564069,38.7439072 L16.7564069,27.7339094 C16.7564069,27.4538036 16.9852769,27.2245903 17.2650833,27.2245903 L19.700704,27.2245903 C19.9805103,27.2245903 20.2093804,27.4538036 20.2093804,27.7339094 L20.2093804,38.7439072 C20.2093804,39.0239148 19.9805103,39.253128 19.700704,39.253128"  fill="#7BA768"></path>
                                    <path d="M19.3813263,8.90271935 L19.3813263,3.54779474 L23.525817,3.54779474 L23.525817,0.0981991622 L17.5829496,0.0981991622 L17.5829496,8.90271935 C13.1765146,9.32518698 9.71657294,12.7307673 9.71657294,16.9063195 C9.71657294,17.3989364 10.1188621,17.7977262 10.6158594,17.7977262 L26.3499867,17.7977262 C26.8469841,17.7977262 27.2491751,17.3989364 27.2491751,16.9063195 C27.2491751,12.7307673 23.788939,9.32489223 19.3813263,8.90271935"  fill="#7BA768"></path>
                                    <path d="M33.512804,39.253128 L31.0771833,39.253128 C30.7973769,39.253128 30.5685069,39.0239148 30.5685069,38.7439072 L30.5685069,27.7339094 C30.5685069,27.4538036 30.7973769,27.2245903 31.0771833,27.2245903 L33.512804,27.2245903 C33.7926103,27.2245903 34.0214804,27.4538036 34.0214804,27.7339094 L34.0214804,38.7439072 C34.0214804,39.0239148 33.7926103,39.253128 33.512804,39.253128" id="Fill-6" fill="#7BA768"></path>
                                    <path d="M26.6067491,39.253128 L24.1711284,39.253128 C23.891322,39.253128 23.662452,39.0239148 23.662452,38.7439072 L23.662452,27.7339094 C23.662452,27.4538036 23.891322,27.2245903 24.1711284,27.2245903 L26.6067491,27.2245903 C26.8865554,27.2245903 27.1154255,27.4538036 27.1154255,27.7339094 L27.1154255,38.7439072 C27.1154255,39.0239148 26.8865554,39.253128 26.6067491,39.253128" id="Fill-8" fill="#7BA768"></path>
                                    <path d="M12.7946589,39.253128 L10.3590382,39.253128 C10.0792318,39.253128 9.8503618,39.0239148 9.8503618,38.7439072 L9.8503618,27.7339094 C9.8503618,27.4538036 10.0792318,27.2245903 10.3590382,27.2245903 L12.7946589,27.2245903 C13.0744653,27.2245903 13.3033353,27.4538036 13.3033353,27.7339094 L13.3033353,38.7439072 C13.3033353,39.0239148 13.0744653,39.253128 12.7946589,39.253128" id="Fill-10" fill="#7BA768"></path>
                                    <path d="M5.88861379,39.253128 L3.4529931,39.253128 C3.17318674,39.253128 2.94431671,39.0239148 2.94431671,38.7439072 L2.94431671,27.7339094 C2.94431671,27.4538036 3.17318674,27.2245903 3.4529931,27.2245903 L5.88861379,27.2245903 C6.16842016,27.2245903 6.39729019,27.4538036 6.39729019,27.7339094 L6.39729019,38.7439072 C6.39729019,39.0239148 6.16842016,39.253128 5.88861379,39.253128" id="Fill-12" fill="#7BA768"></path>
                                    <path d="M0,25.0007305 L0,19.9817168 C0,19.701611 0.22896817,19.4723977 0.508676393,19.4723977 L36.4570716,19.4723977 C36.736878,19.4723977 36.9658462,19.701611 36.9658462,19.9817168 L36.9658462,25.0007305 C36.9658462,25.2808364 36.736878,25.5099514 36.4570716,25.5099514 L0.508676393,25.5099514 C0.22896817,25.5099514 0,25.2808364 0,25.0007305" id="Fill-14" fill="#7BA768"></path>
                                    <path d="M0,42.1731359 L0,41.4770468 C0,41.1969409 0.22896817,40.9677276 0.508676393,40.9677276 L36.4570716,40.9677276 C36.736878,40.9677276 36.9658462,41.1969409 36.9658462,41.4770468 L36.9658462,42.1731359 C36.9658462,42.4532417 36.736878,42.6823567 36.4570716,42.6823567 L0.508676393,42.6823567 C0.22896817,42.6823567 0,42.4532417 0,42.1731359" id="Fill-16" fill="#7BA768"></path>
                                </g>
                            </g>
                        </g>
                    </g>
                </g>
            </g>
        </g>
    </g>
</svg>