<?xml version="1.0" encoding="UTF-8"?>
<svg width="224px" height="91px" viewBox="0 0 224 91" version="1.1" xmlns="http://www.w3.org/2000/svg" xmlns:xlink="http://www.w3.org/1999/xlink">
    <!-- Generator: Sketch 42 (36781) - http://www.bohemiancoding.com/sketch -->
    <title>home-card / res-to-revenue</title>
    <desc>Created with Sketch.</desc>
    <defs>
        <path d="M0,7.99588761 C0,3.57988082 3.58644863,0 8.00526927,0 L215.994731,0 C220.415919,0 224,3.58130964 224,7.99588761 L224,91 L0,91 L0,7.99588761 Z" id="path-1"></path>
        <polygon id="path-3" points="102 0 136.342773 3.8203125 135.863281 12.6630859 102 13"></polygon>
    </defs>
    <g id="Home,-Level-2,-etc" stroke="none" stroke-width="1" fill="none" fill-rule="evenodd">
        <g id="Home-Card-Art-Alt-03-2017" transform="translate(-389.000000, -341.000000)">
            <g id="home-card-/-res-to-revenue-copy" transform="translate(389.000000, 341.000000)">
                <g id="home-card-res-to-revenue">
                    <g id="panel-top" transform="translate(112.000000, 45.500000) scale(-1, 1) translate(-112.000000, -45.500000) ">
                        <mask id="mask-2" fill="white">
                            <use xlink:href="#path-1"></use>
                        </mask>
                        <use id="Rectangle-103" fill="#5C7380" transform="translate(112.000000, 45.500000) scale(-1, 1) translate(-112.000000, -45.500000) " xlink:href="#path-1"></use>
                        <g id="icon-/-govBldg-or-bank-gray" mask="url(#mask-2)">
                            <g transform="translate(-17.000000, -3.000000)" id="Page-1">
                                <g>
                                    <path d="M50.7675716,27.3020846 C46.1644103,27.3020846 42.4206813,23.6025209 42.4206813,19.0538019 C42.4206813,14.5024599 46.1644103,10.7996177 50.7675716,10.7996177 C55.3648103,10.7996177 59.1085394,14.5024599 59.1085394,19.0538019 C59.1085394,23.6025209 55.3648103,27.3020846 50.7675716,27.3020846 M100.207959,29.8685667 L51.9356361,0.315990733 C51.251249,-0.104980528 50.374049,-0.104980528 49.6890039,0.315990733 L1.01526194,30.0574136 C0.201236129,30.5531368 -0.178467097,31.2416412 0.0808103226,32.1511227 C0.343378065,33.0606042 1.18306839,33.4055121 2.13857806,33.4055121 L99.394591,33.4055121 C99.4274942,33.4055121 99.4610555,33.6881268 99.4781652,33.6881268 C100.659391,33.6881268 101.615559,32.8835602 101.615559,31.7150699 C101.615559,30.8003426 101.031197,30.1629843 100.207959,29.8685667"  fill="#758C99"></path>
                                    <path d="M78.6547665,38.6543418 C77.4728826,38.6543418 76.5167148,39.5998879 76.5167148,40.7690339 L76.5167148,72.5148509 C76.5167148,73.6833412 77.4728826,74.629543 78.6547665,74.629543 L87.0266632,74.629543 C88.207889,74.629543 89.1640568,73.6833412 89.1640568,72.5148509 L89.1640568,40.7690339 C89.1640568,39.5998879 88.207889,38.6543418 87.0266632,38.6543418 L78.6547665,38.6543418 Z"  fill="#758C99"></path>
                                    <path d="M57.2759613,38.6543418 C56.0940774,38.6543418 55.1379097,39.5998879 55.1379097,40.7690339 L55.1379097,72.5148509 C55.1379097,73.6833412 56.0940774,74.629543 57.2759613,74.629543 L65.6478581,74.629543 C66.8297419,74.629543 67.7859097,73.6833412 67.7859097,72.5148509 L67.7859097,40.7690339 C67.7859097,39.5998879 66.8297419,38.6543418 65.6478581,38.6543418 L57.2759613,38.6543418 Z" id="Fill-5" fill="#758C99"></path>
                                    <path d="M35.8930761,38.6543418 C34.7118503,38.6543418 33.7556826,39.5998879 33.7556826,40.7690339 L33.7556826,72.5148509 C33.7556826,73.6833412 34.7118503,74.629543 35.8930761,74.629543 L44.2649729,74.629543 C45.4468568,74.629543 46.4030245,73.6833412 46.4030245,72.5148509 L46.4030245,40.7690339 C46.4030245,39.5998879 45.4468568,38.6543418 44.2649729,38.6543418 L35.8930761,38.6543418 Z" id="Fill-7" fill="#758C99"></path>
                                    <path d="M14.5148632,38.6543418 C13.3329794,38.6543418 12.3768116,39.5998879 12.3768116,40.7690339 L12.3768116,72.5148509 C12.3768116,73.6833412 13.3329794,74.629543 14.5148632,74.629543 L22.88676,74.629543 C24.0686439,74.629543 25.0241535,73.6833412 25.0241535,72.5148509 L25.0241535,40.7690339 C25.0241535,39.5998879 24.0686439,38.6543418 22.88676,38.6543418 L14.5148632,38.6543418 Z" id="Fill-9" fill="#758C99"></path>
                                    <path d="M99.3944594,78.9818088 L2.13910452,78.9818088 C0.956562581,78.9818088 0.00105290323,79.9273548 0.00105290323,81.0965009 C0.00105290323,82.2649912 0.956562581,83.2105372 2.13910452,83.2105372 L99.3944594,83.2105372 C100.576343,83.2105372 101.532511,82.2649912 101.532511,81.0965009 C101.532511,79.9273548 100.576343,78.9818088 99.3944594,78.9818088" id="Fill-11" fill="#758C99"></path>
                                </g>
                            </g>
                        </g>
                        <g id="road" mask="url(#mask-2)">
                            <g transform="translate(156.500000, 76.500000) scale(-1, 1) translate(-156.500000, -76.500000) translate(88.000000, 70.000000)">
                                <polygon id="Page-1" stroke="none" fill="#758C99" fill-rule="evenodd" points="0.861218373 4.07614832 0 7.08657333 5.78872084 8.73917019 12.5911519 7.60416129 17.8388127 8.69336154 28.4343858 9.84007156 36.7072565 8.7160169 45.6152197 9.84131636 54.5251731 8.6898761 61.8067222 7.61237697 69.1034458 9.85700084 78.5258515 8.7185065 85.2534048 9.84629556 93.677026 8.68788442 102.757133 7.58872576 113.161656 8.88406494 113.548981 5.77704343 102.762357 4.43390392 93.2750246 5.58285459 85.3001723 6.67927468 80.1540069 5.81637912 68.7161215 6.46168359 62.0505102 4.4109996 54.0943151 5.58858067 45.6112395 6.6847518 42.9982303 6.35463076 38.0202289 5.43148687 32.0469257 6.18932128 28.3915985 6.68574764 18.2532523 5.58907859 12.6560791 4.41871736 5.96982049 5.53505426"></polygon>
                                <mask id="mask-4" fill="white">
                                    <use xlink:href="#path-3"></use>
                                </mask>
                                <g  stroke="none" fill="none"></g>
                                <polygon id="Fill-6" stroke="none" fill="#758C99" fill-rule="evenodd" mask="url(#mask-4)" points="168.454688 7.13171676 162.701443 5.36001504 155.834264 6.37727033 148.512322 7.32441459 146.256972 7.039239 141.960342 6.24177967 136.804644 6.89643614 133.649645 7.32548991 124.899001 6.37791553 120.067734 5.3668971 109.896484 5.24177967 107.922852 5.38001604 107.922852 7.71239103 114.140571 9.09912721 120.011694 8.11864795 124.541288 9.0597704 133.686576 10.0501426 140.827085 9.07912621 148.515757 10.0512179 156.205933 9.05632936 162.491238 8.12574508 168.788997 10.064767 176.921482 9.08127685 182.728406 10.0555192 189.999031 9.05482391 197.836285 8.10552901 206.816888 9.22429477 207.151197 6.54028926 197.840794 5.38001604 189.652054 6.37253891 182.768772 7.31968317 178.327211 6.57426946"></polygon>
                            </g>
                        </g>
                        <path d="M110.736077,33.3505801 L174.232446,33.3505801 C174.232446,33.3505801 175.439942,32.853476 176.43415,34.1319264 C177.428571,35.4103768 189.076746,48.0527593 189.644804,48.7629385 C190.213075,49.4733308 189.786925,50.60966 188.792504,50.8936891 C187.798295,51.1779312 138.506789,57.5701831 137.654489,57.712091 C136.802189,57.8542121 135.66586,57.1440329 135.239709,56.1496116 C134.813559,55.1551903 130.765133,41.1278199 130.481104,40.7016697 C130.196862,40.2755196 129.628804,40.1689821 128.776504,40.1689821 L110.736077,40.1689821 C110.736077,40.1689821 109.457627,39.813786 109.457627,39.1036068 L109.457627,34.2028804 C109.457627,34.2028804 110.096852,33.3505801 110.736077,33.3505801 Z M127.071839,42.7258828 C127.657796,42.7258828 128.208169,43.2053017 128.208169,43.7912581 L128.208169,54.0141734 C128.208169,54.6001298 127.782018,55.0842363 127.071839,55.0842363 C123.200905,55.0842363 120.497195,56.8516939 117.915152,59.1678199 C115.104052,61.6895632 114.35829,67.3004688 114.35829,67.3004688 C114.35829,67.8864252 113.950038,68.2948901 113.364081,68.2948901 L103.136478,68.2948901 C102.550522,68.2948901 101.999936,67.8864252 101.999936,67.3004688 L101.999936,53.6636649 C101.999936,53.0777085 102.550522,52.5982896 103.136478,52.5982896 C103.136478,52.5982896 111.244198,49.9717133 112.440614,49.5442847 C113.932139,49.0115971 114.145215,48.0527593 114.145215,47.4135341 L114.145215,43.7912581 C114.145215,43.2053017 114.553679,42.7258828 115.139636,42.7258828 L127.071839,42.7258828 Z M137.725507,68.2949327 C137.725507,73.8649278 133.21002,78.3804145 127.640025,78.3804145 C122.07003,78.3804145 117.554543,73.8649278 117.554543,68.2949327 C117.554543,62.7247245 122.07003,58.2092378 127.640025,58.2092378 C133.21002,58.2092378 137.725507,62.7247245 137.725507,68.2949327 Z M168.195241,68.2949327 C168.195241,73.8649278 163.679754,78.3804145 158.109759,78.3804145 C152.539764,78.3804145 148.024277,73.8649278 148.024277,68.2949327 C148.024277,62.7247245 152.539764,58.2092378 158.109759,58.2092378 C163.679754,58.2092378 168.195241,62.7247245 168.195241,68.2949327 Z M174.445521,31.4329046 C173.59322,32.4982799 169.118644,32.0721298 167.414044,32.0721298 C165.709443,32.0721298 164.430993,32.0721298 164.004843,31.2198295 C163.578692,30.3675293 163.578692,29.0890789 165.496368,26.3191031 C167.414044,23.5491274 170.610169,25.679878 172.527845,27.1714034 C174.445521,28.6629288 175.67262,29.8989772 174.445521,31.4329046 Z M146.252046,21.6581714 C146.459582,23.0111981 144.44517,24.3782877 143.284337,24.3152174 C142.123291,24.2521472 140.830352,22.6344814 142.28331,21.2767671 C143.736269,19.9190528 146.06518,20.4400213 146.252046,21.6581714 Z M162.087167,31.0067545 C161.177123,32.0231225 148.814082,31.7627448 147.112039,31.6681395 C145.410208,31.5735341 144.133676,31.5025801 143.755467,30.627907 C143.377259,29.7532339 143.75291,27.3273743 145.82123,24.6679845 C147.889763,22.0088077 158.482576,19.0692242 160.314596,20.6647303 C162.146615,22.2604494 163.397579,29.543355 162.087167,31.0067545 Z M132.398716,31.2908475 C129.822212,30.9354383 127.568943,28.4499177 131.688537,24.1884165 C134.018512,21.7778983 138.364817,23.2649492 140.495568,23.9041743 C141.938725,24.3371429 143.407665,26.177046 142.981515,27.0293462 C142.194842,28.6024794 142.301166,30.8301792 140.048963,31.3445424 C137.796546,31.8591186 134.458512,31.5748765 132.398716,31.2908475 Z" id="Combined-Shape" fill="#35434B" opacity="0.400000006" mask="url(#mask-2)"></path>
                        <g id="icon-/-truck-white" mask="url(#mask-2)">
                            <g transform="translate(106.000000, 17.000000)" id="truck-simple-we-drew">
                                <g>
                                    <path d="M8.73607748,13.3505801 L72.2324455,13.3505801 C72.2324455,13.3505801 73.4399419,12.853476 74.4341501,14.1319264 C75.4285714,15.4103768 87.0767458,28.0527593 87.6448039,28.7629385 C88.2130751,29.4733308 87.7869249,30.60966 86.7925036,30.8936891 C85.7982954,31.1779312 36.5067893,37.5701831 35.6544891,37.712091 C34.8021889,37.8542121 33.6658596,37.1440329 33.2397094,36.1496116 C32.8135593,35.1551903 28.7651332,21.1278199 28.4811041,20.7016697 C28.196862,20.2755196 27.6288039,20.1689821 26.7765036,20.1689821 L8.73607748,20.1689821 C8.73607748,20.1689821 7.45762712,19.813786 7.45762712,19.1036068 L7.45762712,14.2028804 C7.45762712,14.2028804 8.0968523,13.3505801 8.73607748,13.3505801"  fill="#FFFFFF"></path>
                                    <path d="M25.0718392,22.7258828 L13.1396358,22.7258828 C12.5536794,22.7258828 12.1452145,23.2053017 12.1452145,23.7912581 L12.1452145,27.4135341 C12.1452145,28.0527593 11.9321395,29.0115971 10.440614,29.5442847 C9.24419758,29.9717133 1.13647845,32.5982896 1.13647845,32.5982896 C0.550522034,32.5982896 -6.39225182e-05,33.0777085 -6.39225182e-05,33.6636649 L-6.39225182e-05,47.3004688 C-6.39225182e-05,47.8864252 0.550522034,48.2948901 1.13647845,48.2948901 L11.3640814,48.2948901 C11.9500378,48.2948901 12.3582896,47.8864252 12.3582896,47.3004688 C12.3582896,47.3004688 13.1040523,41.6895632 15.9151516,39.1678199 C18.4971952,36.8516939 21.2009046,35.0842363 25.0718392,35.0842363 C25.7820184,35.0842363 26.2081685,34.6001298 26.2081685,34.0141734 L26.2081685,23.7912581 C26.2081685,23.2053017 25.6577956,22.7258828 25.0718392,22.7258828"  fill="#FFFFFF"></path>
                                    <path d="M25.6400252,45.1991651 C23.9303109,45.1991651 22.5442576,46.5852184 22.5442576,48.2949327 C22.5442576,50.004647 23.9303109,51.3904872 25.6400252,51.3904872 C27.3497395,51.3904872 28.7357927,50.004647 28.7357927,48.2949327 C28.7357927,46.5852184 27.3497395,45.1991651 25.6400252,45.1991651 M35.725507,48.2949327 C35.725507,53.8649278 31.2100203,58.3804145 25.6400252,58.3804145 C20.07003,58.3804145 15.5545433,53.8649278 15.5545433,48.2949327 C15.5545433,42.7247245 20.07003,38.2092378 25.6400252,38.2092378 C31.2100203,38.2092378 35.725507,42.7247245 35.725507,48.2949327" id="Fill-6" fill="#FFFFFF"></path>
                                    <path d="M56.1097588,45.1991651 C54.4000446,45.1991651 53.0139913,46.5852184 53.0139913,48.2949327 C53.0139913,50.004647 54.4000446,51.3907002 56.1097588,51.3907002 C57.8194731,51.3907002 59.2055264,50.004647 59.2055264,48.2949327 C59.2055264,46.5852184 57.8194731,45.1991651 56.1097588,45.1991651 M66.1952407,48.2949327 C66.1952407,53.8649278 61.679754,58.3804145 56.1097588,58.3804145 C50.5397637,58.3804145 46.024277,53.8649278 46.024277,48.2949327 C46.024277,42.7247245 50.5397637,38.2092378 56.1097588,38.2092378 C61.679754,38.2092378 66.1952407,42.7247245 66.1952407,48.2949327" id="Fill-8" fill="#FFFFFF"></path>
                                    <path d="M72.4455206,11.4329046 C73.6726199,9.89897724 72.4455206,8.66292881 70.527845,7.17140339 C68.6101695,5.67987797 65.4140436,3.54912736 63.496368,6.31910315 C61.5786925,9.08907893 61.5786925,10.3675293 62.0048426,11.2198295 C62.4309927,12.0721298 63.7094431,12.0721298 65.4140436,12.0721298 C67.1186441,12.0721298 71.5932203,12.4982799 72.4455206,11.4329046" id="Fill-10" fill="#FFFFFF"></path>
                                    <path d="M44.2520465,1.65817143 C44.0651797,0.440021308 41.7362692,-0.0809472155 40.2833104,1.27676707 C38.8303516,2.63448136 40.123291,4.25214722 41.284337,4.31521743 C42.44517,4.37828765 44.4595816,3.01119806 44.2520465,1.65817143" id="Fill-12" fill="#FFFFFF"></path>
                                    <path d="M60.0871671,11.0067545 C61.3975787,9.54335496 60.146615,2.26044939 58.3145956,0.664730266 C56.4825763,-0.930775787 45.8897627,2.00880775 43.82123,4.6679845 C41.7529104,7.32737433 41.3772591,9.7532339 41.7554673,10.627907 C42.1336755,11.5025801 43.4102082,11.5735341 45.1120387,11.6681395 C46.8140823,11.7627448 59.1771235,12.0231225 60.0871671,11.0067545" id="Fill-14" fill="#FFFFFF"></path>
                                    <path d="M30.3987157,11.2908475 C27.8222121,10.9354383 25.5689433,8.44991768 29.6885366,4.18841646 C32.0185123,1.77789831 36.3648174,3.26494915 38.495568,3.90417433 C39.9387254,4.33714286 41.4076649,6.177046 40.9815148,7.02934625 C40.1948416,8.60247942 40.3011661,10.8301792 38.0489627,11.3445424 C35.7965462,11.8591186 32.4585123,11.5748765 30.3987157,11.2908475" id="Fill-17" fill="#FFFFFF"></path>
                                </g>
                            </g>
                        </g>
                    </g>
                </g>
            </g>
        </g>
    </g>
</svg>