<svg xmlns="http://www.w3.org/2000/svg" xmlns:xlink="http://www.w3.org/1999/xlink" viewBox="0 0 1853.87 522.58"><defs><clipPath id="a" transform="translate(11.36 11.36)"><path d="M113.56,246.44H347.42v24.24H113.56Zm-2.39-57.88-7.29-30.26L131,177.57H118.53a4.39,4.39,0,0,0-4.39,4.4v9.35ZM72.68,152.88l21.07.85,5.8,24ZM60.19,127.25l24.35,17.31-20.23-.82Zm-21.61-6,11.2.52L53,134.64ZM28,104.35l11.52,8.18-9.58-.44ZM10.4,95.17l1.71-2.09L17,96.52l1.54,6.15ZM197,218.1l62.1-45.83,7.09,65.37H194.9Zm9.69-89.36,48.19,35.73L198.3,206.23Zm7.61-70.16,31.94,24-37.6,28.23Zm5.4-49.78h21.68l1.23,11.38L216.33,39.91Zm28.66,64.36L217.53,50l26.19-19.66Zm1.89,17.4,7,64.74-46.92-34.78ZM351.81,237.64H275L250.21,8.79h4.18a4.4,4.4,0,0,0,0-8.79H206.7a4.4,4.4,0,0,0,0,8.79h4.17L186.07,237.64h-3.35V182a4.4,4.4,0,0,0-4.39-4.4H146.15l-132.3-94a4.38,4.38,0,0,0-5.94.81L1,92.79a4.41,4.41,0,0,0,.41,6L114.14,203.29v34.35h-5a4.39,4.39,0,0,0-4.39,4.4v33a4.4,4.4,0,0,0,4.39,4.4h13.6v82.71h27.61V279.48H316.6v82.71h27.61V279.48h7.6a4.4,4.4,0,0,0,4.39-4.4V242A4.4,4.4,0,0,0,351.81,237.64Z" style="fill:none;clip-rule:evenodd"/></clipPath><clipPath id="b" transform="translate(11.36 11.36)"><rect width="356.72" height="511.22" style="fill:none"/></clipPath><clipPath id="c" transform="translate(11.36 11.36)"><rect x="224.97" y="7.3" width="10.08" height="323.55"/></clipPath><clipPath id="d" transform="translate(11.36 11.36)"><rect width="356.72" height="511.22"/></clipPath><clipPath id="e" transform="translate(11.36 11.36)"><path d="M257.46,385.81a5.74,5.74,0,0,1-1.4,1.67,3.11,3.11,0,0,1-1.92.56,5.1,5.1,0,0,1-2.92-1.26A46.44,46.44,0,0,0,247,384a34.08,34.08,0,0,0-6.13-2.78,26.28,26.28,0,0,0-8.67-1.26,25.57,25.57,0,0,0-8.49,1.3,18,18,0,0,0-6.16,3.52,14.43,14.43,0,0,0-3.73,5.22,16.61,16.61,0,0,0-1.25,6.48,12,12,0,0,0,2.18,7.37,18.78,18.78,0,0,0,5.76,5,44,44,0,0,0,8.12,3.59q4.54,1.52,9.3,3.15t9.3,3.66a32.69,32.69,0,0,1,8.12,5.15,23.45,23.45,0,0,1,5.76,7.63,25.45,25.45,0,0,1,2.18,11.11,35.92,35.92,0,0,1-2.36,13.07,30.14,30.14,0,0,1-6.9,10.62,32.27,32.27,0,0,1-11.14,7.11,40.88,40.88,0,0,1-15,2.59,45.74,45.74,0,0,1-18.71-3.74,43.89,43.89,0,0,1-14.43-10.11l4.13-6.81a5.44,5.44,0,0,1,1.44-1.37,3.37,3.37,0,0,1,1.88-.56,5.86,5.86,0,0,1,3.54,1.67,59,59,0,0,0,5,3.66,38,38,0,0,0,7.23,3.66,28.46,28.46,0,0,0,10.37,1.67,27.19,27.19,0,0,0,9.08-1.41,19.27,19.27,0,0,0,6.75-4,17.16,17.16,0,0,0,4.24-6.11,20.47,20.47,0,0,0,1.48-7.92,13.32,13.32,0,0,0-2.18-7.88,18.07,18.07,0,0,0-5.72-5.15,39.92,39.92,0,0,0-8.08-3.52l-9.3-3a93.59,93.59,0,0,1-9.3-3.52A30.21,30.21,0,0,1,207.2,417a23.81,23.81,0,0,1-5.72-8,30.61,30.61,0,0,1,0-22.69,28.06,28.06,0,0,1,6.31-9.33A30.57,30.57,0,0,1,218,370.49,37.34,37.34,0,0,1,232,368a44.64,44.64,0,0,1,16.16,2.81A37.21,37.21,0,0,1,260.93,379Z" style="fill:#587f4c;clip-rule:evenodd"/></clipPath><clipPath id="f" transform="translate(11.36 11.36)"><rect width="356.72" height="511.22" style="fill:#587f4c"/></clipPath></defs><title>NRRD-logo-rig-v2</title><g style="isolation:isolate"><g style="clip-path:url(#a)"><g style="clip-path:url(#b)"><rect width="378.93" height="384.91"/></g></g><rect x="236.33" y="18.66" width="10.08" height="323.55"/><g style="clip-path:url(#c)"><rect x="11.36" y="11.36" width="356.72" height="511.22"/><g style="clip-path:url(#d)"><rect x="224.97" y="7.3" width="32.8" height="346.27"/></g></g><path d="M257.46,385.81a5.74,5.74,0,0,1-1.4,1.67,3.11,3.11,0,0,1-1.92.56,5.1,5.1,0,0,1-2.92-1.26A46.44,46.44,0,0,0,247,384a34.08,34.08,0,0,0-6.13-2.78,26.28,26.28,0,0,0-8.67-1.26,25.57,25.57,0,0,0-8.49,1.3,18,18,0,0,0-6.16,3.52,14.43,14.43,0,0,0-3.73,5.22,16.61,16.61,0,0,0-1.25,6.48,12,12,0,0,0,2.18,7.37,18.78,18.78,0,0,0,5.76,5,44,44,0,0,0,8.12,3.59q4.54,1.52,9.3,3.15t9.3,3.66a32.69,32.69,0,0,1,8.12,5.15,23.45,23.45,0,0,1,5.76,7.63,25.45,25.45,0,0,1,2.18,11.11,35.92,35.92,0,0,1-2.36,13.07,30.14,30.14,0,0,1-6.9,10.62,32.27,32.27,0,0,1-11.14,7.11,40.88,40.88,0,0,1-15,2.59,45.74,45.74,0,0,1-18.71-3.74,43.89,43.89,0,0,1-14.43-10.11l4.13-6.81a5.44,5.44,0,0,1,1.44-1.37,3.37,3.37,0,0,1,1.88-.56,5.86,5.86,0,0,1,3.54,1.67,59,59,0,0,0,5,3.66,38,38,0,0,0,7.23,3.66,28.46,28.46,0,0,0,10.37,1.67,27.19,27.19,0,0,0,9.08-1.41,19.27,19.27,0,0,0,6.75-4,17.16,17.16,0,0,0,4.24-6.11,20.47,20.47,0,0,0,1.48-7.92,13.32,13.32,0,0,0-2.18-7.88,18.07,18.07,0,0,0-5.72-5.15,39.92,39.92,0,0,0-8.08-3.52l-9.3-3a93.59,93.59,0,0,1-9.3-3.52A30.21,30.21,0,0,1,207.2,417a23.81,23.81,0,0,1-5.72-8,30.61,30.61,0,0,1,0-22.69,28.06,28.06,0,0,1,6.31-9.33A30.57,30.57,0,0,1,218,370.49,37.34,37.34,0,0,1,232,368a44.64,44.64,0,0,1,16.16,2.81A37.21,37.21,0,0,1,260.93,379Z" transform="translate(11.36 11.36)" style="fill:#587f4c;fill-rule:evenodd"/><g style="clip-path:url(#e)"><rect x="11.36" y="11.36" width="356.72" height="511.22" style="fill:#587f4c"/><g style="clip-path:url(#f)"><rect x="194.73" y="368.04" width="91.29" height="131.18" style="fill:#587f4c"/></g></g><line x1="241.37" y1="342.21" x2="241.37" y2="519.21" style="fill:#587f4c;stroke:#587f4c;stroke-miterlimit:10;stroke-width:10.1999998092651px"/></g><path d="M443.82,49.28a15.13,15.13,0,0,0,5.51-1,12.33,12.33,0,0,0,4.21-2.92,15.78,15.78,0,0,0,3.56-10V5.56h6.48v29.8a19.6,19.6,0,0,1-1.3,7.77,19.92,19.92,0,0,1-3.89,6.15,17.28,17.28,0,0,1-6.15,4.21,21.05,21.05,0,0,1-16.2,0,16.09,16.09,0,0,1-6.15-4.21A19.92,19.92,0,0,1,426,43.13a20.65,20.65,0,0,1-1.3-7.77V5.56h6.48v29.8a15.13,15.13,0,0,0,1,5.51,12.71,12.71,0,0,0,2.59,4.53,12.43,12.43,0,0,0,9.07,3.89" transform="translate(11.36 11.36)"/><path d="M470.06,50.9a2.43,2.43,0,0,1,.32-1.62,4.47,4.47,0,0,1,1-1.3c.32-.32,1-.65,1.3-1a2.92,2.92,0,0,1,1.62-.32,2.43,2.43,0,0,1,1.62.32,4.47,4.47,0,0,1,1.3,1c.32.32.65,1,1,1.3a2.92,2.92,0,0,1,.32,1.62,2.43,2.43,0,0,1-.32,1.62,4.47,4.47,0,0,1-1,1.3c-.32.32-1,.65-1.3,1a2.92,2.92,0,0,1-1.62.32,2.43,2.43,0,0,1-1.62-.32,4.47,4.47,0,0,1-1.3-1c-.32-.32-.65-1-1-1.3a2.92,2.92,0,0,1-.32-1.62" transform="translate(11.36 11.36)"/><path d="M512.49,13.33c-.32.32-.32.65-.65.65a1.19,1.19,0,0,1-1,.32,2.46,2.46,0,0,1-1.3-.65c-.65-.32-1.3-1-1.94-1.3a12.7,12.7,0,0,0-2.92-1.3,13.92,13.92,0,0,0-3.89-.65,12.08,12.08,0,0,0-3.89.65A8.49,8.49,0,0,0,494,12.68a9.84,9.84,0,0,0-1.62,2.27,9.46,9.46,0,0,0-.65,2.92,4.84,4.84,0,0,0,1,3.24,8.73,8.73,0,0,0,2.59,2.27A10.81,10.81,0,0,0,499.21,25c1.3.32,2.92,1,4.21,1.3,1.62.65,2.92,1,4.21,1.62a24.16,24.16,0,0,1,3.89,2.27,14.38,14.38,0,0,1,2.59,3.56,12.33,12.33,0,0,1,1,5.18,18.86,18.86,0,0,1-1,6.15,12.81,12.81,0,0,1-3.24,4.86,14.11,14.11,0,0,1-5.18,3.24,21.17,21.17,0,0,1-6.8,1.3,24.73,24.73,0,0,1-8.75-1.62,25,25,0,0,1-6.8-4.53l1.94-3.24.65-.65a1.19,1.19,0,0,1,1-.32,5.47,5.47,0,0,1,1.62.65,13.71,13.71,0,0,0,2.27,1.62A10.13,10.13,0,0,0,494,48c1.3.65,2.92.65,4.86.65A16.41,16.41,0,0,0,503.1,48,6.72,6.72,0,0,0,506.34,46a4.72,4.72,0,0,0,1.94-2.92,11.64,11.64,0,0,0,.65-3.56A5.82,5.82,0,0,0,508,36a8.73,8.73,0,0,0-2.59-2.27,10.81,10.81,0,0,0-3.89-1.62c-1.3-.32-2.92-1-4.21-1.3a16.27,16.27,0,0,1-4.21-1.62,24.16,24.16,0,0,1-3.89-2.27,14.38,14.38,0,0,1-2.59-3.56,14,14,0,0,1-1-5.51,14.67,14.67,0,0,1,1-5.18,12.33,12.33,0,0,1,2.92-4.21,12.2,12.2,0,0,1,4.86-2.92,19.48,19.48,0,0,1,6.48-1,19,19,0,0,1,7.45,1.3,18.38,18.38,0,0,1,5.83,3.89Z" transform="translate(11.36 11.36)"/><path d="M520.59,50.9a2.43,2.43,0,0,1,.32-1.62,4.47,4.47,0,0,1,1-1.3c.32-.32,1-.65,1.3-1a2.92,2.92,0,0,1,1.62-.32,2.43,2.43,0,0,1,1.62.32,4.47,4.47,0,0,1,1.3,1c.32.32.65,1,1,1.3A2.92,2.92,0,0,1,529,50.9a2.43,2.43,0,0,1-.32,1.62,4.47,4.47,0,0,1-1,1.3c-.32.32-1,.65-1.3,1a2.92,2.92,0,0,1-1.62.32,2.43,2.43,0,0,1-1.62-.32,4.47,4.47,0,0,1-1.3-1c-.32-.32-.65-1-1-1.3,0-.65-.32-1-.32-1.62" transform="translate(11.36 11.36)"/><path d="M587,30.17a21.27,21.27,0,0,0-1.3-8.1,19.2,19.2,0,0,0-3.56-6.15A16.94,16.94,0,0,0,576.63,12a17.43,17.43,0,0,0-7.13-1.3H557.84V49H569.5a17.43,17.43,0,0,0,7.13-1.3,16.94,16.94,0,0,0,5.51-3.89,16.24,16.24,0,0,0,3.56-6.15,17.07,17.07,0,0,0,1.3-7.45m6.8,0a32.61,32.61,0,0,1-1.62,10A31.54,31.54,0,0,1,587.32,48a17.66,17.66,0,0,1-7.77,4.86,23.6,23.6,0,0,1-9.72,1.62H551.36V5.56h18.46a30.54,30.54,0,0,1,9.72,1.62A31.54,31.54,0,0,1,587.32,12a19.69,19.69,0,0,1,4.86,7.77,36.5,36.5,0,0,1,1.62,10.37" transform="translate(11.36 11.36)"/><path d="M615.82,24a9.28,9.28,0,0,0-6.8,2.59c-1.62,1.62-2.59,4.21-3.24,7.13h18.79a16.26,16.26,0,0,0-.65-3.89,6.26,6.26,0,0,0-1.62-2.92A5,5,0,0,0,619.71,25a5.84,5.84,0,0,0-3.89-1m-.32-4.53a18.34,18.34,0,0,1,5.83,1,13.59,13.59,0,0,1,4.53,2.92,12.2,12.2,0,0,1,2.92,4.86,20.89,20.89,0,0,1,1,6.48c0,1,0,1.62-.32,1.94s-.65.32-1.3.32h-23a15.69,15.69,0,0,0,1,5.83A17.45,17.45,0,0,0,608.37,47a6.81,6.81,0,0,0,3.56,2.27,10.29,10.29,0,0,0,4.53.65,12.08,12.08,0,0,0,3.89-.65,11.51,11.51,0,0,0,2.92-1.3c.65-.32,1.62-.65,1.94-1.3.65-.32,1-.65,1.3-.65a1.68,1.68,0,0,1,1.3.65L629.43,49a8.73,8.73,0,0,1-2.59,2.27,15.13,15.13,0,0,1-3.24,1.62c-1.3.32-2.59.65-3.56,1a15.77,15.77,0,0,1-3.89.32,14.5,14.5,0,0,1-6.48-1.3,14.8,14.8,0,0,1-5.18-3.56,17.63,17.63,0,0,1-3.56-5.83,19.6,19.6,0,0,1-1.3-7.77,24.66,24.66,0,0,1,1-6.8,19,19,0,0,1,3.24-5.51A14.8,14.8,0,0,1,609,19.81c1.94,0,4.21-.32,6.48-.32" transform="translate(11.36 11.36)"/><path d="M653.07,24.34a9.51,9.51,0,0,0-5.18,1.3,15.85,15.85,0,0,0-4.21,3.89V46.37a8.39,8.39,0,0,0,3.56,3.24,10.35,10.35,0,0,0,4.53,1A8.78,8.78,0,0,0,659.23,47c1.62-2.27,2.59-5.51,2.59-9.72a29.06,29.06,0,0,0-.65-5.83,10.81,10.81,0,0,0-1.62-3.89,5.17,5.17,0,0,0-2.92-2.27,6.53,6.53,0,0,0-3.56-1ZM637.85,66.45V20.13h3.56c1,0,1.3.32,1.62,1.3l.65,4.21a15.66,15.66,0,0,1,5.18-4.21,14.74,14.74,0,0,1,6.48-1.62,10.65,10.65,0,0,1,5.51,1.3,13.36,13.36,0,0,1,4.21,3.24,14.46,14.46,0,0,1,2.59,5.51,28.35,28.35,0,0,1,1,7.77,25.26,25.26,0,0,1-1,7.13,16.44,16.44,0,0,1-2.92,5.83,14.34,14.34,0,0,1-4.86,3.89,13.15,13.15,0,0,1-6.15,1.3,14,14,0,0,1-5.51-1,8.84,8.84,0,0,1-3.89-2.92V67.1h-6.48Z" transform="translate(11.36 11.36)"/><path d="M685.14,50.9a9,9,0,0,0,2.92-.32c1-.32,1.62-.65,2.59-1,.65-.32,1.62-1,2.27-1.3l1.94-1.94V39.24a41.25,41.25,0,0,0-7.13.65,50.08,50.08,0,0,0-4.86,1.3,5.92,5.92,0,0,0-2.59,1.94,3.68,3.68,0,0,0-1,2.59,4.8,4.8,0,0,0,.32,2.27,3.23,3.23,0,0,0,1.3,1.62c.65.32,1,.65,1.62,1a7.13,7.13,0,0,0,2.59.32Zm15.55,3.56H698.1c-.65,0-1,0-1.3-.32a1.68,1.68,0,0,1-.65-1.3l-.65-3.24c-1,1-1.94,1.62-2.59,2.27a11.36,11.36,0,0,1-2.59,1.62l-2.92,1a12.15,12.15,0,0,1-3.56.32,16.26,16.26,0,0,1-3.89-.65A6.26,6.26,0,0,1,677,52.52a4.72,4.72,0,0,1-1.94-2.92,8.89,8.89,0,0,1-.65-4.21,8.63,8.63,0,0,1,1-3.89A8.77,8.77,0,0,1,679,38.27,16.92,16.92,0,0,1,685.47,36a43.86,43.86,0,0,1,10-1V32.44a10.73,10.73,0,0,0-1.62-6.15,6.84,6.84,0,0,0-5.18-1.94,13.92,13.92,0,0,0-3.89.65,6.51,6.51,0,0,0-2.59,1.3c-.65.32-1.3,1-1.94,1.3s-1,.65-1.62.65a1.19,1.19,0,0,1-1-.32c-.32-.32-.65-.32-.65-.65l-1-1.94a19,19,0,0,1,6.15-4.21,18,18,0,0,1,7.45-1.3,13.43,13.43,0,0,1,5.18,1,11.65,11.65,0,0,1,3.89,2.59A10.67,10.67,0,0,1,701,27.58a13.43,13.43,0,0,1,.65,5.18v21.7Z" transform="translate(11.36 11.36)"/><path d="M710.08,54.47V20.13h3.56c.65,0,1,0,1.3.32s.32.65.65,1.3l.32,5.51a15.37,15.37,0,0,1,4.53-5.51,10,10,0,0,1,6.15-1.94,6.31,6.31,0,0,1,2.59.32c.65.32,1.62.65,2.27,1l-.65,4.53a1,1,0,0,1-1,1,3.52,3.52,0,0,1-1.62-.32,7.19,7.19,0,0,0-2.92-.32,6.84,6.84,0,0,0-5.18,1.94,14.72,14.72,0,0,0-3.56,5.51v22h-6.48Z" transform="translate(11.36 11.36)"/><path d="M748,55.12c-2.59,0-4.86-.65-6.15-2.27-1.62-1.62-2.27-3.56-2.27-6.48V25.31h-4.21a1.15,1.15,0,0,1-1.3-1.3V21.75l5.83-.65,1.3-10.69c0-.32.32-.65.32-1a1.19,1.19,0,0,1,1-.32h2.92v12h10v4.53h-10V46.37a4.3,4.3,0,0,0,1,3.24,3.68,3.68,0,0,0,2.59,1,2.43,2.43,0,0,0,1.62-.32c.32-.32,1-.32,1.3-.65s.65-.32,1-.65.32-.32.65-.32.65.32,1,.65l1.62,2.92a11.2,11.2,0,0,1-3.89,2.27,14.38,14.38,0,0,1-4.21.65" transform="translate(11.36 11.36)"/><path d="M763.21,54.47V20.13h3.56c1,0,1.3.32,1.62,1.3l.32,3.56a15.85,15.85,0,0,1,4.21-3.89,10.92,10.92,0,0,1,5.51-1.62,9,9,0,0,1,5.83,1.94,11.86,11.86,0,0,1,3.24,5.18,6.72,6.72,0,0,1,1.94-3.24A8.73,8.73,0,0,1,792,21.1a9.7,9.7,0,0,1,3.24-1.3,12.15,12.15,0,0,1,3.24-.32,10.82,10.82,0,0,1,4.86,1A9.19,9.19,0,0,1,806.94,23a12.93,12.93,0,0,1,2.27,4.21,15.15,15.15,0,0,1,.65,5.51v22H803.7v-22a10.73,10.73,0,0,0-1.62-6.15,6.84,6.84,0,0,0-5.18-1.94,9.46,9.46,0,0,0-2.92.65,5.81,5.81,0,0,0-2.27,1.62,7.05,7.05,0,0,0-1.62,2.59,11.64,11.64,0,0,0-.65,3.56v22h-6.15v-22a10,10,0,0,0-1.62-6.15Q780.21,25,776.81,25a6.51,6.51,0,0,0-4.21,1.3A17,17,0,0,0,769,29.53V55.44h-5.83Z" transform="translate(11.36 11.36)"/><path d="M833.17,24a9.28,9.28,0,0,0-6.8,2.59c-1.62,1.62-2.59,4.21-3.24,7.13h18.79a16.26,16.26,0,0,0-.65-3.89,6.26,6.26,0,0,0-1.62-2.92A5,5,0,0,0,837.06,25a5.84,5.84,0,0,0-3.89-1m-.32-4.53a18.34,18.34,0,0,1,5.83,1,13.59,13.59,0,0,1,4.53,2.92,12.2,12.2,0,0,1,2.92,4.86,20.88,20.88,0,0,1,1,6.48c0,1,0,1.62-.32,1.94s-.65.32-1.3.32h-23a15.69,15.69,0,0,0,1,5.83A17.45,17.45,0,0,0,825.72,47a6.81,6.81,0,0,0,3.56,2.27,10.29,10.29,0,0,0,4.53.65,12.08,12.08,0,0,0,3.89-.65,11.51,11.51,0,0,0,2.92-1.3c.65-.32,1.62-.65,1.94-1.3.65-.32,1-.65,1.3-.65a1.68,1.68,0,0,1,1.3.65L846.78,49a8.73,8.73,0,0,1-2.59,2.27,15.13,15.13,0,0,1-3.24,1.62c-1.3.32-2.59.65-3.56,1a15.77,15.77,0,0,1-3.89.32,14.5,14.5,0,0,1-6.48-1.3,14.8,14.8,0,0,1-5.18-3.56,17.63,17.63,0,0,1-3.56-5.83,19.6,19.6,0,0,1-1.3-7.77,24.66,24.66,0,0,1,1-6.8,19,19,0,0,1,3.24-5.51,14.8,14.8,0,0,1,5.18-3.56c1.94,0,4.21-.32,6.48-.32" transform="translate(11.36 11.36)"/><path d="M855.2,54.47V20.13h3.56c1,0,1.3.32,1.62,1.3l.32,3.89a19.76,19.76,0,0,1,5.18-3.89,13.7,13.7,0,0,1,6.48-1.62,10.82,10.82,0,0,1,4.86,1,14.38,14.38,0,0,1,3.56,2.59,17.45,17.45,0,0,1,2.27,4.21,15.15,15.15,0,0,1,.65,5.51v22h-6.15v-22a9.34,9.34,0,0,0-1.94-6.15,7.26,7.26,0,0,0-5.51-2.27,9.51,9.51,0,0,0-5.18,1.3,14.54,14.54,0,0,0-4.21,3.56V55.12H855.2Z" transform="translate(11.36 11.36)"/><path d="M903.46,55.12c-2.59,0-4.86-.65-6.15-2.27-1.62-1.62-2.27-3.56-2.27-6.48V25.31h-4.21a1.15,1.15,0,0,1-1.3-1.3V21.75l5.83-.65,1.3-10.69c0-.32.32-.65.32-1a1.19,1.19,0,0,1,1-.32h2.92v12h10v4.53h-10V46.37a4.3,4.3,0,0,0,1,3.24,3.68,3.68,0,0,0,2.59,1,2.43,2.43,0,0,0,1.62-.32c.32-.32,1-.32,1.3-.65s.65-.32,1-.65.32-.32.65-.32.65.32,1,.65l1.62,2.92a11.2,11.2,0,0,1-3.89,2.27,14.37,14.37,0,0,1-4.21.65" transform="translate(11.36 11.36)"/><path d="M945.9,50.26a9.41,9.41,0,0,0,7.77-3.56c1.62-2.27,2.59-5.51,2.59-9.72s-1-7.45-2.59-9.72-4.21-3.56-7.77-3.56a10.35,10.35,0,0,0-4.53,1,8.23,8.23,0,0,0-3.24,2.59,8.48,8.48,0,0,0-1.94,4.21,28.53,28.53,0,0,0-.65,5.51,28.53,28.53,0,0,0,.65,5.51,10,10,0,0,0,1.94,4.21,12.68,12.68,0,0,0,3.24,2.59,9.41,9.41,0,0,0,4.53,1m0-30.77a15,15,0,0,1,6.8,1.3,14.8,14.8,0,0,1,5.18,3.56,19,19,0,0,1,3.24,5.51,25.51,25.51,0,0,1,1.3,7.45,19,19,0,0,1-1.3,7.45,13.1,13.1,0,0,1-3.24,5.51,14.8,14.8,0,0,1-5.18,3.56,18.5,18.5,0,0,1-13.6,0,14.8,14.8,0,0,1-5.18-3.56,19,19,0,0,1-3.24-5.51,25.51,25.51,0,0,1-1.3-7.45,19,19,0,0,1,1.3-7.45,13.1,13.1,0,0,1,3.24-5.51,14.8,14.8,0,0,1,5.18-3.56,15,15,0,0,1,6.8-1.3" transform="translate(11.36 11.36)"/><path d="M971.16,54.47V25l-3.89-.32A2.46,2.46,0,0,1,966,24a1.19,1.19,0,0,1-.32-1V20.46h5.51V17.22a12.34,12.34,0,0,1,1-5.18,11.2,11.2,0,0,1,2.27-3.89,7.77,7.77,0,0,1,3.89-2.27,13,13,0,0,1,4.86-1,16.41,16.41,0,0,1,4.21.65V8.47c0,.32-.32.65-.65,1h-2.59a9,9,0,0,0-2.92.32,5,5,0,0,0-3.56,3.56,11.64,11.64,0,0,0-.65,3.56v3.24h10v4.53h-9.72V54.14h-6.15Z" transform="translate(11.36 11.36)"/><path d="M1016.51,55.12c-2.59,0-4.86-.65-6.15-2.27-1.62-1.62-2.27-3.56-2.27-6.48V25.31h-4.21a1.15,1.15,0,0,1-1.3-1.3V21.75l5.83-.65,1.3-10.69c0-.32.32-.65.32-1a1.19,1.19,0,0,1,1-.32h2.92v12h10v4.53h-10V46.37a4.3,4.3,0,0,0,1,3.24,3.68,3.68,0,0,0,2.59,1,2.43,2.43,0,0,0,1.62-.32c.32-.32,1-.32,1.3-.65s.65-.32,1-.65.32-.32.65-.32.65.32,1,.65l1.62,2.92a11.2,11.2,0,0,1-3.89,2.27,16.41,16.41,0,0,1-4.21.65" transform="translate(11.36 11.36)"/><path d="M1031.41,54.47V4.26h6.15V24.67a25.55,25.55,0,0,1,4.86-3.89,13.15,13.15,0,0,1,6.15-1.3,10.82,10.82,0,0,1,4.86,1A14.38,14.38,0,0,1,1057,23a17.45,17.45,0,0,1,2.27,4.21,15.15,15.15,0,0,1,.65,5.51v22h-6.15v-22a9.34,9.34,0,0,0-1.94-6.15,7.26,7.26,0,0,0-5.51-2.27,9.51,9.51,0,0,0-5.18,1.3,14.54,14.54,0,0,0-4.21,3.56V54.79h-5.51Z" transform="translate(11.36 11.36)"/><path d="M1083.24,24a9.28,9.28,0,0,0-6.8,2.59c-1.62,1.62-2.59,4.21-3.24,7.13H1092a16.26,16.26,0,0,0-.65-3.89,6.26,6.26,0,0,0-1.62-2.92,5,5,0,0,0-2.59-1.94c-1.3-1-2.27-1-3.89-1m0-4.53a18.34,18.34,0,0,1,5.83,1,13.59,13.59,0,0,1,4.53,2.92,12.2,12.2,0,0,1,2.92,4.86,20.88,20.88,0,0,1,1,6.48c0,1,0,1.62-.32,1.94s-.65.32-1.3.32h-23a15.69,15.69,0,0,0,1,5.83,17.45,17.45,0,0,0,2.27,4.21,6.81,6.81,0,0,0,3.56,2.27,10.29,10.29,0,0,0,4.53.65,12.08,12.08,0,0,0,3.89-.65A11.51,11.51,0,0,0,1091,48c.65-.32,1.62-.65,1.94-1.3.65-.32,1-.65,1.3-.65a1.68,1.68,0,0,1,1.3.65l1.62,2.27a8.73,8.73,0,0,1-2.59,2.27,15.13,15.13,0,0,1-3.24,1.62c-1.3.32-2.59.65-3.56,1a15.77,15.77,0,0,1-3.89.32,14.5,14.5,0,0,1-6.48-1.3,14.8,14.8,0,0,1-5.18-3.56,17.63,17.63,0,0,1-3.56-5.83,19.6,19.6,0,0,1-1.3-7.77,24.66,24.66,0,0,1,1-6.8,19,19,0,0,1,3.24-5.51,14.8,14.8,0,0,1,5.18-3.56c1.62,0,3.89-.32,6.48-.32" transform="translate(11.36 11.36)"/><polygon points="1132.17 65.83 1138.65 65.83 1138.65 16.92 1132.17 16.92 1132.17 65.83"/><path d="M1139.6,54.47V20.13h3.56c1,0,1.3.32,1.62,1.3l.32,3.89a19.76,19.76,0,0,1,5.18-3.89,13.7,13.7,0,0,1,6.48-1.62,10.82,10.82,0,0,1,4.86,1,14.38,14.38,0,0,1,3.56,2.59,17.45,17.45,0,0,1,2.27,4.21,15.15,15.15,0,0,1,.65,5.51v22H1162v-22a9.34,9.34,0,0,0-1.94-6.15,7.26,7.26,0,0,0-5.51-2.27,9.51,9.51,0,0,0-5.18,1.3,14.54,14.54,0,0,0-4.21,3.56V55.12h-5.51Z" transform="translate(11.36 11.36)"/><path d="M1187.86,55.12c-2.59,0-4.86-.65-6.15-2.27-1.62-1.62-2.27-3.56-2.27-6.48V25.31h-4.21a1.15,1.15,0,0,1-1.3-1.3V21.75l5.83-.65,1.3-10.69c0-.32.32-.65.32-1a1.19,1.19,0,0,1,1-.32h2.92v12h10v4.53h-10V46.37a4.3,4.3,0,0,0,1,3.24,3.68,3.68,0,0,0,2.59,1,2.43,2.43,0,0,0,1.62-.32c.32-.32,1-.32,1.3-.65s.65-.32,1-.65.32-.32.65-.32.65.32,1,.65L1196,52.2a11.2,11.2,0,0,1-3.89,2.27,14.37,14.37,0,0,1-4.21.65" transform="translate(11.36 11.36)"/><path d="M1216.69,24a9.28,9.28,0,0,0-6.8,2.59c-1.62,1.62-2.59,4.21-3.24,7.13h18.79a16.26,16.26,0,0,0-.65-3.89,6.26,6.26,0,0,0-1.62-2.92,5,5,0,0,0-2.59-1.94c-1.3-1-2.27-1-3.89-1m0-4.53a18.34,18.34,0,0,1,5.83,1,13.59,13.59,0,0,1,4.53,2.92,12.2,12.2,0,0,1,2.92,4.86,20.88,20.88,0,0,1,1,6.48c0,1,0,1.62-.32,1.94s-.65.32-1.3.32h-23a15.69,15.69,0,0,0,1,5.83,17.45,17.45,0,0,0,2.27,4.21,6.81,6.81,0,0,0,3.56,2.27,10.29,10.29,0,0,0,4.53.65,12.08,12.08,0,0,0,3.89-.65,11.51,11.51,0,0,0,2.92-1.3c.65-.32,1.62-.65,1.94-1.3.65-.32,1-.65,1.3-.65a1.68,1.68,0,0,1,1.3.65l1.62,2.27a8.73,8.73,0,0,1-2.59,2.27,15.13,15.13,0,0,1-3.24,1.62c-1.3.32-2.59.65-3.56,1a15.77,15.77,0,0,1-3.89.32,14.5,14.5,0,0,1-6.48-1.3,14.8,14.8,0,0,1-5.18-3.56,17.63,17.63,0,0,1-3.56-5.83,19.6,19.6,0,0,1-1.3-7.77,24.66,24.66,0,0,1,1-6.8,19,19,0,0,1,3.24-5.51,14.8,14.8,0,0,1,5.18-3.56c1.62,0,3.89-.32,6.48-.32" transform="translate(11.36 11.36)"/><path d="M1238.72,54.47V20.13h3.56c.65,0,1,0,1.3.32s.32.65.65,1.3l.32,5.51a15.37,15.37,0,0,1,4.53-5.51,10,10,0,0,1,6.15-1.94,6.31,6.31,0,0,1,2.59.32c.65.32,1.62.65,2.27,1l-.65,4.53a1,1,0,0,1-1,1,3.52,3.52,0,0,1-1.62-.32,7.19,7.19,0,0,0-2.92-.32,6.84,6.84,0,0,0-5.18,1.94,14.72,14.72,0,0,0-3.56,5.51v22h-6.48Z" transform="translate(11.36 11.36)"/><path d="M1266.9,54.47h6.15V20.13h-6.15Zm7.45-45.35a2.43,2.43,0,0,1-.32,1.62,4.47,4.47,0,0,1-1,1.3c-.32.32-1,.65-1.3,1a2.92,2.92,0,0,1-1.62.32,2.43,2.43,0,0,1-1.62-.32,4.47,4.47,0,0,1-1.3-1c-.32-.32-.65-1-1-1.3a2.92,2.92,0,0,1-.32-1.62,2.43,2.43,0,0,1,.32-1.62,4.47,4.47,0,0,1,1-1.3c.32-.32,1-.65,1.3-1a2.92,2.92,0,0,1,1.62-.32,2.43,2.43,0,0,1,1.62.32,4.47,4.47,0,0,1,1.3,1c.32.32.65,1,1,1.3a2.43,2.43,0,0,1,.32,1.62Z" transform="translate(11.36 11.36)"/><path d="M1297.67,50.26a9.41,9.41,0,0,0,7.77-3.56c1.62-2.27,2.59-5.51,2.59-9.72s-1-7.45-2.59-9.72-4.21-3.56-7.77-3.56a10.35,10.35,0,0,0-4.53,1,8.23,8.23,0,0,0-3.24,2.59,8.48,8.48,0,0,0-1.94,4.21,28.53,28.53,0,0,0-.65,5.51,28.53,28.53,0,0,0,.65,5.51,10,10,0,0,0,1.94,4.21,12.68,12.68,0,0,0,3.24,2.59,11.43,11.43,0,0,0,4.53,1m0-30.77a15,15,0,0,1,6.8,1.3,14.8,14.8,0,0,1,5.18,3.56,19,19,0,0,1,3.24,5.51,25.51,25.51,0,0,1,1.3,7.45,19,19,0,0,1-1.3,7.45,13.1,13.1,0,0,1-3.24,5.51,14.8,14.8,0,0,1-5.18,3.56,18.5,18.5,0,0,1-13.6,0,14.8,14.8,0,0,1-5.18-3.56,19,19,0,0,1-3.24-5.51,25.51,25.51,0,0,1-1.3-7.45,19,19,0,0,1,1.3-7.45,13.1,13.1,0,0,1,3.24-5.51,14.8,14.8,0,0,1,5.18-3.56,16.92,16.92,0,0,1,6.8-1.3" transform="translate(11.36 11.36)"/><path d="M1322,54.47V20.13h3.56c.65,0,1,0,1.3.32s.32.65.65,1.3l.32,5.51a15.37,15.37,0,0,1,4.53-5.51,10,10,0,0,1,6.15-1.94,6.31,6.31,0,0,1,2.59.32c.65.32,1.62.65,2.27,1l-.65,4.53a1,1,0,0,1-1,1,3.52,3.52,0,0,1-1.62-.32,7.19,7.19,0,0,0-2.92-.32,6.84,6.84,0,0,0-5.18,1.94,14.72,14.72,0,0,0-3.56,5.51v22H1322Z" transform="translate(11.36 11.36)"/><polygon points="509.28 219.37 467.17 170.45 467.17 219.37 437.69 219.37 437.69 118.95 465.55 118.95 507.66 168.51 507.66 118.95 537.46 118.95 537.46 219.37 509.28 219.37"/><path d="M573.71,177.23c-3.89,1.94-5.83,4.21-5.83,7.13,0,4.86,3.24,7.45,10,7.45a17.44,17.44,0,0,0,10-2.92,8.64,8.64,0,0,0,4.21-7.45V175c-8.75-.65-14.58.32-18.46,2.27m36-42.11c7.45,3.89,11,10.37,11,19.11v30.12a6.51,6.51,0,0,0,1.3,4.21,4.18,4.18,0,0,0,3.56,1.62h5.18V207a5,5,0,0,1-2.27,1,39.7,39.7,0,0,1-5.18,1.3,53.75,53.75,0,0,1-7.77.65,34.47,34.47,0,0,1-13.93-2.59,14.58,14.58,0,0,1-7.45-7.13,51,51,0,0,1-12.31,7.13,47.94,47.94,0,0,1-15.87,2.59c-18.14,0-27.21-7.13-27.21-21.7,0-7.45,1.94-13.28,6.15-17.17,3.89-3.89,9.72-6.48,17.49-8.1,7.45-1.62,17.49-2.27,29.8-2.27v-3.89a7.75,7.75,0,0,0-3.24-6.8c-1.94-1.62-4.86-2.27-8.1-2.27a19.57,19.57,0,0,0-7.77,1.62,5.26,5.26,0,0,0-3.24,5.18v.65h-28.5v-1.94c0-7.45,3.56-13,10.37-17.49,6.8-4.21,16.84-6.48,29.8-6.48,11.34,0,21.05,1.94,28.18,5.83" transform="translate(11.36 11.36)"/><path d="M687.09,130.91v19.76h-16.2v29.15c0,3.56.65,6.15,1.62,7.77,1.3,1.62,3.24,2.27,6.48,2.27h8.1V207c-2.27.65-5.51,1.3-9.07,1.94a52.37,52.37,0,0,1-9.72.65c-8.42,0-15.22-1.62-19.76-4.53-4.53-3.24-6.8-8.42-6.8-15.87V150.67H631V130.91h12l6.15-23.32h21.7v23.32Z" transform="translate(11.36 11.36)"/><path d="M753.81,208l-1.94-11.66a29.54,29.54,0,0,1-12,9.72,36.46,36.46,0,0,1-15.55,3.56c-9.07,0-15.55-2.59-20.08-7.45s-6.8-12-6.8-21.38V130.91H726.6v46.32a13.43,13.43,0,0,0,2.59,8.1,9,9,0,0,0,7.13,2.92,12,12,0,0,0,8.75-3.56,11.72,11.72,0,0,0,3.24-8.75V130.59h29.15v77.09H753.81Z" transform="translate(11.36 11.36)"/><path d="M844.51,129.94c1.62.65,2.59,1,2.59,1v24.29h-9.39c-6.15,0-10.37,1.62-13,4.53-2.59,3.24-3.89,7.77-3.89,13.93V208H791.71V130.91h23.65l1.94,11.66a18.52,18.52,0,0,1,8.42-10,25.08,25.08,0,0,1,13-3.56,15.69,15.69,0,0,1,5.83,1" transform="translate(11.36 11.36)"/><path d="M885.32,177.23c-3.89,1.94-5.83,4.21-5.83,7.13,0,4.86,3.24,7.45,10,7.45a17.44,17.44,0,0,0,10-2.92,8.64,8.64,0,0,0,4.21-7.45V175c-8.42-.65-14.58.32-18.46,2.27m36.28-42.11c7.45,3.89,11,10.37,11,19.11v30.12a6.51,6.51,0,0,0,1.3,4.21,4.18,4.18,0,0,0,3.56,1.62h5.18V207a5,5,0,0,1-2.27,1,39.7,39.7,0,0,1-5.18,1.3,53.75,53.75,0,0,1-7.77.65,34.47,34.47,0,0,1-13.93-2.59,14.58,14.58,0,0,1-7.45-7.13,51,51,0,0,1-12.31,7.13,48.51,48.51,0,0,1-16.2,2.59c-18.14,0-27.21-7.13-27.21-21.7,0-7.45,1.94-13.28,6.15-17.17,3.89-3.89,9.72-6.48,17.49-8.1,7.45-1.62,17.49-2.27,29.8-2.27v-3.89a7.75,7.75,0,0,0-3.24-6.8c-1.94-1.62-4.86-2.27-8.1-2.27a19.57,19.57,0,0,0-7.77,1.62,5.26,5.26,0,0,0-3.24,5.18v.65h-28.5v-1.94c0-7.45,3.56-13,10.37-17.49,6.8-4.21,16.84-6.48,29.8-6.48,11.34,0,21.05,1.94,28.5,5.83" transform="translate(11.36 11.36)"/><polygon points="961.79 219.37 990.95 219.37 990.95 113.77 961.79 113.77 961.79 219.37"/><path d="M1104,133.18a9,9,0,0,0-6.48-2.59h-21.05v18.46h21.05a8.86,8.86,0,0,0,9.07-9.07c0-2.92-.65-5.18-2.59-6.8m30.45,21.7a28.38,28.38,0,0,1-14.58,11L1142.19,208h-36.28l-17.82-36.6h-12V208H1044V107.59h61.22c7.13,0,13.28,1.3,18.46,4.21s9.07,6.48,11.66,11.34a31.31,31.31,0,0,1,3.89,15.22,24.9,24.9,0,0,1-4.86,16.52" transform="translate(11.36 11.36)"/><path d="M1175.88,160.71h28.18a12.24,12.24,0,0,0-13-13c-9.07,0-13.93,4.21-15.22,13m46.64-21.7c7.45,6.48,11,16.84,11,30.45v4.86h-57.66c0,5.51,1.3,9.72,3.56,12.63,2.59,2.92,6.48,4.21,11.66,4.21q7.29,0,10.69-2.92a10.53,10.53,0,0,0,3.56-8.1h28.18c0,9.39-3.56,16.52-10.69,22q-10.69,7.77-31.1,7.77c-14.25,0-25.27-3.24-33.36-10q-11.66-10.2-11.66-30.12t11.66-30.12c7.77-6.8,18.14-10,31.74-10,13.93-.32,24.94,2.92,32.39,9.39" transform="translate(11.36 11.36)"/><path d="M1307.07,135.12c7.13,3.89,10.69,10.37,10.69,18.79h-26.89a5.67,5.67,0,0,0-3.89-5.83,12.76,12.76,0,0,0-6.48-1.62c-7.13,0-10.37,1.62-10.37,4.86,0,1.94,1.3,3.24,3.56,3.89s6.48,1.62,12,2.59a130.76,130.76,0,0,1,17.17,3.56,27,27,0,0,1,12,7.13c3.24,3.24,5.18,8.1,5.18,13.93,0,9.72-3.56,16.84-11,21.05s-16.84,6.15-28.83,6.15a60.59,60.59,0,0,1-19.11-2.92q-9.23-2.92-14.58-8.75c-3.89-3.89-5.83-9.07-5.83-15.22h26.89v.65a7.21,7.21,0,0,0,4.21,6.8,18.9,18.9,0,0,0,8.42,1.94c8.1,0,12-1.94,12-5.83,0-1.94-1.3-3.24-3.89-4.21a77.27,77.27,0,0,0-12.31-2.92c-6.8-1.3-12.63-2.27-16.84-3.89a26.49,26.49,0,0,1-11.66-6.8q-4.86-4.86-4.86-13.6c0-9.39,3.56-16.2,10.69-20.08s16.52-5.83,27.86-5.83c10,.32,18.79,2.27,25.91,6.15" transform="translate(11.36 11.36)"/><path d="M1355,165.25v8.42c0,11,4.86,16.2,14.25,16.2,9.72,0,14.58-5.51,14.58-16.2v-8.42q0-16.52-14.58-16.52c-9.39.32-14.25,5.51-14.25,16.52m46.32-25.91c7.77,6.8,11.66,16.84,11.66,29.8s-3.89,23-11.66,29.8-18.46,10.37-31.74,10.37c-13.6,0-24-3.56-31.74-10.37s-11.66-16.84-11.66-30.12,3.89-23.32,11.66-30.12,18.14-10,31.74-10c13.28.65,24,3.89,31.74,10.69" transform="translate(11.36 11.36)"/><path d="M1478.74,208l-1.94-11.66a29.54,29.54,0,0,1-12,9.72,36.46,36.46,0,0,1-15.55,3.56c-9.07,0-15.55-2.59-20.08-7.45s-6.8-12-6.8-21.38V130.91h29.15v46.32a13.43,13.43,0,0,0,2.59,8.1,9,9,0,0,0,7.13,2.92,12,12,0,0,0,8.75-3.56,11.72,11.72,0,0,0,3.24-8.75V130.59h29.15v77.09h-23.65Z" transform="translate(11.36 11.36)"/><path d="M1569.77,129.94c1.62.65,2.59,1,2.59,1v24.29H1563c-6.15,0-10.37,1.62-13,4.53-2.59,3.24-3.89,7.77-3.89,13.93V208H1517V130.91h23.65l1.94,11.66a18.52,18.52,0,0,1,8.42-10,25.08,25.08,0,0,1,13-3.56,18.34,18.34,0,0,1,5.83,1" transform="translate(11.36 11.36)"/><path d="M1650.42,137.39c7.77,5.51,11.66,13.6,11.66,24.62H1633.9c0-8.75-4.86-13-14.25-13s-14.25,5.51-14.25,16.52V174c0,11,4.86,16.2,14.9,16.2s14.9-4.53,14.9-13.28h26.89c0,11-3.89,19.44-11.66,24.94s-18.14,8.1-30.77,8.1c-13.6,0-24-3.56-31.74-10.37s-11.66-16.84-11.66-30.12,3.89-23.32,11.66-30.12,18.14-10,31.74-10c12.63,0,22.67,2.59,30.77,8.1" transform="translate(11.36 11.36)"/><path d="M1698.36,160.71h28.18a12.24,12.24,0,0,0-13-13c-9.07,0-13.93,4.21-15.22,13M1745,139c7.45,6.48,11,16.84,11,30.45v4.86h-57.66c0,5.51,1.3,9.72,3.56,12.63,2.59,2.92,6.48,4.21,11.66,4.21q7.29,0,10.69-2.92a10.53,10.53,0,0,0,3.56-8.1H1756c0,9.39-3.56,16.52-10.69,22q-10.69,7.77-31.1,7.77c-14.25,0-25.27-3.24-33.36-10q-11.66-10.2-11.66-30.12t11.66-30.12c7.77-6.8,18.14-10,31.74-10,14.25-.32,24.94,2.92,32.39,9.39" transform="translate(11.36 11.36)"/><path d="M1829.55,135.12c7.13,3.89,10.69,10.37,10.69,18.79h-26.89a5.67,5.67,0,0,0-3.89-5.83,12.76,12.76,0,0,0-6.48-1.62c-7.13,0-10.37,1.62-10.37,4.86,0,1.94,1.3,3.24,3.56,3.89s6.48,1.62,12,2.59a130.76,130.76,0,0,1,17.17,3.56,27,27,0,0,1,12,7.13c3.24,3.24,5.18,8.1,5.18,13.93,0,9.72-3.56,16.84-11,21.05s-16.84,6.15-28.83,6.15a60.6,60.6,0,0,1-19.11-2.92q-9.23-2.92-14.58-8.75c-3.89-3.89-5.83-9.07-5.83-15.22H1790v.65a7.21,7.21,0,0,0,4.21,6.8,18.9,18.9,0,0,0,8.42,1.94c8.1,0,12-1.94,12-5.83,0-1.94-1.3-3.24-3.89-4.21a77.27,77.27,0,0,0-12.31-2.92c-6.8-1.3-12.63-2.27-16.84-3.89a26.49,26.49,0,0,1-11.66-6.8q-4.86-4.86-4.86-13.6c0-9.39,3.56-16.2,10.69-20.08s16.52-5.83,27.86-5.83c10,.32,18.79,2.27,25.91,6.15" transform="translate(11.36 11.36)"/><path d="M485.93,285.42a9,9,0,0,0-6.48-2.59H458.4v18.46h21.05a8.86,8.86,0,0,0,9.07-9.07,9.28,9.28,0,0,0-2.59-6.8m30.45,21.7a28.38,28.38,0,0,1-14.58,11l22.35,42.11H487.88l-17.82-36.6h-12v36.6H426V259.83h61.22c7.13,0,13.28,1.3,18.46,4.21s9.07,6.48,11.66,11.34a31.31,31.31,0,0,1,3.89,15.22,29.1,29.1,0,0,1-4.86,16.52" transform="translate(11.36 11.36)"/><path d="M557.84,313H586a12.24,12.24,0,0,0-13-13c-9.07,0-14.25,4.21-15.22,13m46.32-21.7c7.45,6.48,11,16.84,11,30.45v4.86H557.52c0,5.51,1.3,9.72,3.56,12.63,2.59,2.92,6.48,4.21,11.66,4.21q7.29,0,10.69-2.92a10.53,10.53,0,0,0,3.56-8.1h28.18c0,9.39-3.56,16.52-10.69,22q-10.69,7.77-31.1,7.77c-14.25,0-25.27-3.24-33.36-10q-11.66-10.2-11.66-30.12T540,291.9c7.77-6.8,18.14-10.37,31.74-10.37,14.25,0,24.94,3.24,32.39,9.72" transform="translate(11.36 11.36)"/><polygon points="654.72 371.61 625.56 294.51 656.66 294.51 670.91 342.45 671.88 342.45 685.81 294.51 714.64 294.51 685.16 371.61 654.72 371.61"/><path d="M731.46,313h28.18a12.24,12.24,0,0,0-13-13c-9.07,0-13.93,4.21-15.22,13m46.64-21.7c7.45,6.48,11,16.84,11,30.45v4.86H731.46c0,5.51,1.3,9.72,3.56,12.63,2.59,2.92,6.48,4.21,11.66,4.21q7.29,0,10.69-2.92a10.53,10.53,0,0,0,3.56-8.1h28.18c0,9.39-3.56,16.52-10.69,22q-10.69,7.77-31.1,7.77c-14.25,0-25.27-3.24-33.36-10q-11.66-10.2-11.66-30.12T714,291.9c7.77-6.8,18.14-10.37,31.74-10.37,14.25,0,24.94,3.24,32.39,9.72" transform="translate(11.36 11.36)"/><path d="M873.34,289q6.8,7.29,6.8,21.38v49.88H851V313.93a13.43,13.43,0,0,0-2.59-8.1,9,9,0,0,0-7.13-2.92,12,12,0,0,0-8.75,3.56,11.72,11.72,0,0,0-3.24,8.75v45H800.13V283.15h23.65l1.94,11.66a29.54,29.54,0,0,1,12-9.72,32.26,32.26,0,0,1,15.55-3.56c9.07,0,15.87,2.27,20.08,7.45" transform="translate(11.36 11.36)"/><path d="M949.78,360.25l-1.94-11.66a29.54,29.54,0,0,1-12,9.72,36.46,36.46,0,0,1-15.55,3.56c-9.07,0-15.55-2.59-20.08-7.45s-6.8-12-6.8-21.38V283.15h29.15v46.32a13.43,13.43,0,0,0,2.59,8.1,9,9,0,0,0,7.13,2.92,12,12,0,0,0,8.75-3.56,11.72,11.72,0,0,0,3.24-8.75V282.83h29.15v77.09H949.78Z" transform="translate(11.36 11.36)"/><path d="M1013.27,313h28.18a12.24,12.24,0,0,0-13-13c-8.75,0-13.93,4.21-15.22,13m46.64-21.7c7.45,6.48,11,16.84,11,30.45v4.86h-57.66c0,5.51,1.3,9.72,3.56,12.63,2.59,2.92,6.48,4.21,11.66,4.21q7.29,0,10.69-2.92a10.53,10.53,0,0,0,3.56-8.1h28.18c0,9.39-3.56,16.52-10.69,22q-10.69,7.77-31.1,7.77c-14.25,0-25.27-3.24-33.36-10q-11.66-10.2-11.66-30.12t11.66-30.12c7.77-6.8,18.14-10.37,31.74-10.37,14.25,0,24.94,3.24,32.39,9.72" transform="translate(11.36 11.36)"/><path d="M1163.25,336.28h10.69c13.6,0,20.41-7.13,20.41-21.7V305.5c0-14.58-6.8-21.7-20.41-21.7h-10.69ZM1227.38,310c0,33.36-17.49,50.21-52.47,50.21H1131.5V259.83h43.41c34.66,0,52.47,16.84,52.47,50.21Z" transform="translate(11.36 11.36)"/><path d="M1270.14,329.47c-3.89,1.94-5.83,4.21-5.83,7.13,0,4.86,3.24,7.45,10,7.45a17.44,17.44,0,0,0,10-2.92,8.64,8.64,0,0,0,4.21-7.45v-6.48c-8.42-.65-14.58.32-18.46,2.27m36.28-42.11c7.45,3.89,11,10.37,11,19.11V336.6a6.51,6.51,0,0,0,1.3,4.21,4.18,4.18,0,0,0,3.56,1.62h5.18v16.84a5,5,0,0,1-2.27,1,39.7,39.7,0,0,1-5.18,1.3,53.75,53.75,0,0,1-7.77.65,34.47,34.47,0,0,1-13.93-2.59,14.58,14.58,0,0,1-7.45-7.13,51,51,0,0,1-12.31,7.13,48.51,48.51,0,0,1-16.2,2.59c-18.14,0-27.21-7.13-27.21-21.7,0-7.45,1.94-13.28,6.15-17.17,3.89-3.89,9.72-6.48,17.49-8.1a177.07,177.07,0,0,1,29.8-2.27v-3.89a7.75,7.75,0,0,0-3.24-6.8c-1.94-1.62-4.86-2.27-8.1-2.27a19.57,19.57,0,0,0-7.77,1.62,5.26,5.26,0,0,0-3.24,5.18v.65h-28.5V305.5c0-7.45,3.56-13,10.37-17.49,6.8-4.21,16.84-6.48,29.8-6.48,11.34,0,21.05,1.94,28.5,5.83" transform="translate(11.36 11.36)"/><path d="M1383.84,283.15v19.76h-16.2v29.15c0,3.56.65,6.15,1.62,7.77,1.3,1.62,3.24,2.27,6.48,2.27h8.1v17.17a83.2,83.2,0,0,1-9.07,1.94,52.37,52.37,0,0,1-9.72.65c-8.42,0-15.22-1.62-19.76-4.53-4.53-3.24-6.8-8.42-6.8-15.87V302.91H1327.8V283.15h12l6.15-23.32h21.7v23.32Z" transform="translate(11.36 11.36)"/><path d="M1425.3,329.47c-3.89,1.94-5.83,4.21-5.83,7.13,0,4.86,3.24,7.45,10,7.45a17.44,17.44,0,0,0,10-2.92,8.64,8.64,0,0,0,4.21-7.45v-6.48c-8.42-.65-14.58.32-18.46,2.27m36.28-42.11c7.45,3.89,11,10.37,11,19.11V336.6a6.51,6.51,0,0,0,1.3,4.21,4.18,4.18,0,0,0,3.56,1.62h5.18v16.84a5,5,0,0,1-2.27,1,39.7,39.7,0,0,1-5.18,1.3,53.75,53.75,0,0,1-7.77.65,34.47,34.47,0,0,1-13.93-2.59,14.58,14.58,0,0,1-7.45-7.13,51,51,0,0,1-12.31,7.13,48.51,48.51,0,0,1-16.2,2.59c-18.14,0-27.21-7.13-27.21-21.7,0-7.45,1.94-13.28,6.15-17.17,3.89-3.89,9.72-6.48,17.49-8.1a177.07,177.07,0,0,1,29.8-2.27v-3.89a7.75,7.75,0,0,0-3.24-6.8c-1.94-1.62-4.86-2.27-8.1-2.27a19.57,19.57,0,0,0-7.77,1.62,5.26,5.26,0,0,0-3.24,5.18v.65h-28.5V305.5c0-7.45,3.56-13,10.37-17.49,6.8-4.21,16.84-6.48,29.8-6.48,11.34,0,21.05,1.94,28.5,5.83" transform="translate(11.36 11.36)"/></svg>