<svg xmlns="http://www.w3.org/2000/svg" xmlns:xlink="http://www.w3.org/1999/xlink" viewBox="0 0 1856.95 642.14"><defs><clipPath id="a" transform="translate(14.44 11.55)"><path d="M112.51,250.45H350.18v24.63H112.51Zm-2.43-58.82-7.41-30.75,27.56,19.59H117.56a4.46,4.46,0,0,0-4.46,4.47v9.5ZM71,155.37l21.41.87,5.89,24.44ZM58.28,129.32,83,146.91l-20.56-.83Zm-22-6.05,11.38.53,3.26,13ZM25.52,106l11.7,8.32-9.74-.45ZM7.67,96.71l1.74-2.12,4.93,3.5,1.57,6.25ZM197.32,221.65l63.11-46.57,7.21,66.43H195.17Zm9.85-90.81,49,36.31-57.51,42.44Zm7.73-71.3,32.46,24.37-38.21,28.69Zm5.48-50.59h22l1.25,11.57L217,40.56ZM249.5,74.34,218.18,50.82l26.61-20ZM251.42,92l7.13,65.79-47.68-35.35ZM354.64,241.51h-78L251.39,8.94h4.25a4.47,4.47,0,0,0,0-8.94H207.17a4.47,4.47,0,0,0,0,8.94h4.24L186.2,241.51h-3.41V184.92a4.47,4.47,0,0,0-4.46-4.47h-32.7L11.17,84.88a4.46,4.46,0,0,0-6,.82l-7,8.6a4.49,4.49,0,0,0,.42,6.12L113.1,206.6v34.91H108a4.47,4.47,0,0,0-4.46,4.47v33.58A4.47,4.47,0,0,0,108,284h13.82v84.06h28.06V284H318.86v84.06h28.06V284h7.72a4.47,4.47,0,0,0,4.47-4.47V246A4.47,4.47,0,0,0,354.64,241.51Z" style="fill:none;clip-rule:evenodd"/></clipPath><clipPath id="b" transform="translate(14.44 11.55)"><rect x="-2.9" width="362.52" height="519.53" style="fill:none"/></clipPath><clipPath id="c" transform="translate(14.44 11.55)"><rect x="225.74" y="7.41" width="10.24" height="347.48"/></clipPath><clipPath id="d" transform="translate(14.44 11.55)"><rect x="-2.9" y="-0.42" width="362.52" height="549.03"/></clipPath><clipPath id="e" transform="translate(14.44 11.55)"><path d="M258.75,406.28a5.83,5.83,0,0,1-1.43,1.69,3.16,3.16,0,0,1-2,.56,5.19,5.19,0,0,1-3-1.28,47.2,47.2,0,0,0-4.28-2.82,34.64,34.64,0,0,0-6.23-2.82,26.71,26.71,0,0,0-8.81-1.28,26,26,0,0,0-8.63,1.32,18.32,18.32,0,0,0-6.26,3.57,14.67,14.67,0,0,0-3.79,5.3,16.88,16.88,0,0,0-1.28,6.58,12.19,12.19,0,0,0,2.21,7.49,19.08,19.08,0,0,0,5.85,5.08,44.75,44.75,0,0,0,8.25,3.65q4.61,1.54,9.45,3.2t9.45,3.72a33.22,33.22,0,0,1,8.25,5.23,23.83,23.83,0,0,1,5.85,7.75,25.86,25.86,0,0,1,2.21,11.29,36.5,36.5,0,0,1-2.4,13.28,30.63,30.63,0,0,1-7,10.8,32.79,32.79,0,0,1-11.33,7.22,41.54,41.54,0,0,1-15.26,2.63,46.48,46.48,0,0,1-19-3.8A44.6,44.6,0,0,1,195,484.38l4.2-6.92a5.53,5.53,0,0,1,1.46-1.39,3.42,3.42,0,0,1,1.91-.56,6,6,0,0,1,3.6,1.69,60,60,0,0,0,5.06,3.72,38.62,38.62,0,0,0,7.35,3.72,28.93,28.93,0,0,0,10.54,1.69,27.63,27.63,0,0,0,9.23-1.43,19.58,19.58,0,0,0,6.86-4,17.44,17.44,0,0,0,4.31-6.21,20.8,20.8,0,0,0,1.5-8.05,13.54,13.54,0,0,0-2.21-8,18.36,18.36,0,0,0-5.81-5.23,40.57,40.57,0,0,0-8.21-3.57l-9.45-3a95.12,95.12,0,0,1-9.45-3.57,30.7,30.7,0,0,1-8.21-5.27,24.2,24.2,0,0,1-5.81-8.09,31.1,31.1,0,0,1,0-23.06,28.51,28.51,0,0,1,6.41-9.48,31.07,31.07,0,0,1,10.39-6.62,38,38,0,0,1,14.21-2.48,45.37,45.37,0,0,1,16.43,2.86,37.81,37.81,0,0,1,13,8.28Z" style="fill:#587f4c;clip-rule:evenodd"/></clipPath><clipPath id="f" transform="translate(14.44 11.55)"><rect x="-2.9" y="14.19" width="362.52" height="519.53" style="fill:#587f4c"/></clipPath><clipPath id="g" transform="translate(14.44 11.55)"><rect x="225.74" y="354.79" width="10.24" height="177.08" style="fill:#587f4c"/></clipPath><clipPath id="h" transform="translate(14.44 11.55)"><rect x="-2.9" y="350.8" width="362.52" height="279.8" style="fill:#587f4c"/></clipPath></defs><title>NRRD-logo</title><g style="isolation:isolate"><g style="clip-path:url(#a)"><g style="clip-path:url(#b)"><rect width="385.09" height="391.17"/></g></g><rect x="240.18" y="18.96" width="10.24" height="347.48"/><g style="clip-path:url(#c)"><rect x="11.55" y="11.12" width="362.52" height="549.03"/><g style="clip-path:url(#d)"><rect x="228.63" y="6.76" width="33.34" height="371.88"/></g></g><path d="M258.75,406.28a5.83,5.83,0,0,1-1.43,1.69,3.16,3.16,0,0,1-2,.56,5.19,5.19,0,0,1-3-1.28,47.2,47.2,0,0,0-4.28-2.82,34.64,34.64,0,0,0-6.23-2.82,26.71,26.71,0,0,0-8.81-1.28,26,26,0,0,0-8.63,1.32,18.32,18.32,0,0,0-6.26,3.57,14.67,14.67,0,0,0-3.79,5.3,16.88,16.88,0,0,0-1.28,6.58,12.19,12.19,0,0,0,2.21,7.49,19.08,19.08,0,0,0,5.85,5.08,44.75,44.75,0,0,0,8.25,3.65q4.61,1.54,9.45,3.2t9.45,3.72a33.22,33.22,0,0,1,8.25,5.23,23.83,23.83,0,0,1,5.85,7.75,25.86,25.86,0,0,1,2.21,11.29,36.5,36.5,0,0,1-2.4,13.28,30.63,30.63,0,0,1-7,10.8,32.79,32.79,0,0,1-11.33,7.22,41.54,41.54,0,0,1-15.26,2.63,46.48,46.48,0,0,1-19-3.8A44.6,44.6,0,0,1,195,484.38l4.2-6.92a5.53,5.53,0,0,1,1.46-1.39,3.42,3.42,0,0,1,1.91-.56,6,6,0,0,1,3.6,1.69,60,60,0,0,0,5.06,3.72,38.62,38.62,0,0,0,7.35,3.72,28.93,28.93,0,0,0,10.54,1.69,27.63,27.63,0,0,0,9.23-1.43,19.58,19.58,0,0,0,6.86-4,17.44,17.44,0,0,0,4.31-6.21,20.8,20.8,0,0,0,1.5-8.05,13.54,13.54,0,0,0-2.21-8,18.36,18.36,0,0,0-5.81-5.23,40.57,40.57,0,0,0-8.21-3.57l-9.45-3a95.12,95.12,0,0,1-9.45-3.57,30.7,30.7,0,0,1-8.21-5.27,24.2,24.2,0,0,1-5.81-8.09,31.1,31.1,0,0,1,0-23.06,28.51,28.51,0,0,1,6.41-9.48,31.07,31.07,0,0,1,10.39-6.62,38,38,0,0,1,14.21-2.48,45.37,45.37,0,0,1,16.43,2.86,37.81,37.81,0,0,1,13,8.28Z" transform="translate(14.44 11.55)" style="fill:#587f4c;fill-rule:evenodd"/><g style="clip-path:url(#e)"><rect x="11.55" y="25.73" width="362.52" height="519.53" style="fill:#587f4c"/><g style="clip-path:url(#f)"><rect x="197.9" y="388.22" width="92.77" height="133.32" style="fill:#587f4c"/></g></g><rect x="240.18" y="366.34" width="10.24" height="177.08" style="fill:#587f4c"/><g style="clip-path:url(#g)"><rect x="11.55" y="362.35" width="362.52" height="279.8" style="fill:#587f4c"/><g style="clip-path:url(#h)"><rect x="228.63" y="360.12" width="33.34" height="189.52" style="fill:#587f4c"/></g></g></g><path d="M443.82,53.42a15.13,15.13,0,0,0,5.51-1,12.33,12.33,0,0,0,4.21-2.92,15.78,15.78,0,0,0,3.56-10V9.69h6.48v29.8a19.6,19.6,0,0,1-1.3,7.77,19.92,19.92,0,0,1-3.89,6.15,17.28,17.28,0,0,1-6.15,4.21,21.05,21.05,0,0,1-16.2,0,16.09,16.09,0,0,1-6.15-4.21A19.92,19.92,0,0,1,426,47.26a20.65,20.65,0,0,1-1.3-7.77V9.69h6.48v29.8a15.13,15.13,0,0,0,1,5.51,12.71,12.71,0,0,0,2.59,4.53,12.43,12.43,0,0,0,9.07,3.89" transform="translate(14.44 11.55)"/><path d="M470.06,55a2.43,2.43,0,0,1,.32-1.62,4.47,4.47,0,0,1,1-1.3c.32-.32,1-.65,1.3-1a2.92,2.92,0,0,1,1.62-.32,2.43,2.43,0,0,1,1.62.32,4.47,4.47,0,0,1,1.3,1c.32.32.65,1,1,1.3a2.92,2.92,0,0,1,.32,1.62,2.43,2.43,0,0,1-.32,1.62,4.47,4.47,0,0,1-1,1.3c-.32.32-1,.65-1.3,1a2.92,2.92,0,0,1-1.62.32,2.43,2.43,0,0,1-1.62-.32,4.47,4.47,0,0,1-1.3-1c-.32-.32-.65-1-1-1.3a2.92,2.92,0,0,1-.32-1.62" transform="translate(14.44 11.55)"/><path d="M512.49,17.46c-.32.32-.32.65-.65.65a1.19,1.19,0,0,1-1,.32,2.46,2.46,0,0,1-1.3-.65c-.65-.32-1.3-1-1.94-1.3a12.7,12.7,0,0,0-2.92-1.3,13.92,13.92,0,0,0-3.89-.65,12.08,12.08,0,0,0-3.89.65A8.49,8.49,0,0,0,494,16.81a9.84,9.84,0,0,0-1.62,2.27,9.46,9.46,0,0,0-.65,2.92,4.84,4.84,0,0,0,1,3.24,8.73,8.73,0,0,0,2.59,2.27,10.81,10.81,0,0,0,3.89,1.62c1.3.32,2.92,1,4.21,1.3,1.62.65,2.92,1,4.21,1.62a24.16,24.16,0,0,1,3.89,2.27,14.38,14.38,0,0,1,2.59,3.56,12.33,12.33,0,0,1,1,5.18,18.86,18.86,0,0,1-1,6.15,12.81,12.81,0,0,1-3.24,4.86,14.11,14.11,0,0,1-5.18,3.24,21.17,21.17,0,0,1-6.8,1.3A24.73,24.73,0,0,1,490.14,57a25,25,0,0,1-6.8-4.53l1.94-3.24.65-.65a1.19,1.19,0,0,1,1-.32,5.47,5.47,0,0,1,1.62.65,13.71,13.71,0,0,0,2.27,1.62A10.13,10.13,0,0,0,494,52.12c1.3.65,2.92.65,4.86.65a16.41,16.41,0,0,0,4.21-.65,6.72,6.72,0,0,0,3.24-1.94,4.72,4.72,0,0,0,1.94-2.92,11.64,11.64,0,0,0,.65-3.56,5.82,5.82,0,0,0-1-3.56,8.73,8.73,0,0,0-2.59-2.27,10.81,10.81,0,0,0-3.89-1.62c-1.3-.32-2.92-1-4.21-1.3a16.27,16.27,0,0,1-4.21-1.62,24.16,24.16,0,0,1-3.89-2.27,14.38,14.38,0,0,1-2.59-3.56,14,14,0,0,1-1-5.51,14.67,14.67,0,0,1,1-5.18,12.33,12.33,0,0,1,2.92-4.21,12.2,12.2,0,0,1,4.86-2.92,19.48,19.48,0,0,1,6.48-1,19,19,0,0,1,7.45,1.3,18.38,18.38,0,0,1,5.83,3.89Z" transform="translate(14.44 11.55)"/><path d="M520.59,55a2.43,2.43,0,0,1,.32-1.62,4.47,4.47,0,0,1,1-1.3c.32-.32,1-.65,1.3-1a2.92,2.92,0,0,1,1.62-.32,2.43,2.43,0,0,1,1.62.32,4.47,4.47,0,0,1,1.3,1c.32.32.65,1,1,1.3A2.92,2.92,0,0,1,529,55a2.43,2.43,0,0,1-.32,1.62,4.47,4.47,0,0,1-1,1.3c-.32.32-1,.65-1.3,1a2.92,2.92,0,0,1-1.62.32,2.43,2.43,0,0,1-1.62-.32,4.47,4.47,0,0,1-1.3-1c-.32-.32-.65-1-1-1.3,0-.65-.32-1-.32-1.62" transform="translate(14.44 11.55)"/><path d="M587,34.3a21.27,21.27,0,0,0-1.3-8.1,19.2,19.2,0,0,0-3.56-6.15,16.94,16.94,0,0,0-5.51-3.89,17.43,17.43,0,0,0-7.13-1.3H557.84V53.09H569.5a17.43,17.43,0,0,0,7.13-1.3,16.94,16.94,0,0,0,5.51-3.89,16.24,16.24,0,0,0,3.56-6.15A17.07,17.07,0,0,0,587,34.3m6.8,0a32.61,32.61,0,0,1-1.62,10,31.54,31.54,0,0,1-4.86,7.77A17.66,17.66,0,0,1,579.54,57a23.6,23.6,0,0,1-9.72,1.62H551.36V9.69h18.46a30.54,30.54,0,0,1,9.72,1.62,31.54,31.54,0,0,1,7.77,4.86,19.69,19.69,0,0,1,4.86,7.77A36.5,36.5,0,0,1,593.8,34.3" transform="translate(14.44 11.55)"/><path d="M615.82,28.15a9.28,9.28,0,0,0-6.8,2.59c-1.62,1.62-2.59,4.21-3.24,7.13h18.79a16.26,16.26,0,0,0-.65-3.89,6.26,6.26,0,0,0-1.62-2.92,5,5,0,0,0-2.59-1.94,5.84,5.84,0,0,0-3.89-1m-.32-4.53a18.34,18.34,0,0,1,5.83,1,13.59,13.59,0,0,1,4.53,2.92,12.2,12.2,0,0,1,2.92,4.86,20.89,20.89,0,0,1,1,6.48c0,1,0,1.62-.32,1.94s-.65.32-1.3.32h-23a15.69,15.69,0,0,0,1,5.83,17.45,17.45,0,0,0,2.27,4.21,6.81,6.81,0,0,0,3.56,2.27,10.29,10.29,0,0,0,4.53.65,12.08,12.08,0,0,0,3.89-.65,11.51,11.51,0,0,0,2.92-1.3c.65-.32,1.62-.65,1.94-1.3.65-.32,1-.65,1.3-.65a1.68,1.68,0,0,1,1.3.65l1.62,2.27a8.73,8.73,0,0,1-2.59,2.27A15.13,15.13,0,0,1,623.6,57c-1.3.32-2.59.65-3.56,1a15.77,15.77,0,0,1-3.89.32,14.5,14.5,0,0,1-6.48-1.3,14.8,14.8,0,0,1-5.18-3.56,17.63,17.63,0,0,1-3.56-5.83,19.6,19.6,0,0,1-1.3-7.77,24.66,24.66,0,0,1,1-6.8,19,19,0,0,1,3.24-5.51A14.8,14.8,0,0,1,609,23.94c1.94,0,4.21-.32,6.48-.32" transform="translate(14.44 11.55)"/><path d="M653.07,28.47a9.51,9.51,0,0,0-5.18,1.3,15.85,15.85,0,0,0-4.21,3.89V50.5a8.39,8.39,0,0,0,3.56,3.24,10.35,10.35,0,0,0,4.53,1,8.78,8.78,0,0,0,7.45-3.56c1.62-2.27,2.59-5.51,2.59-9.72a29.06,29.06,0,0,0-.65-5.83,10.81,10.81,0,0,0-1.62-3.89,5.17,5.17,0,0,0-2.92-2.27,6.53,6.53,0,0,0-3.56-1ZM637.85,70.58V24.26h3.56c1,0,1.3.32,1.62,1.3l.65,4.21a15.66,15.66,0,0,1,5.18-4.21,14.74,14.74,0,0,1,6.48-1.62,10.65,10.65,0,0,1,5.51,1.3,13.36,13.36,0,0,1,4.21,3.24A14.46,14.46,0,0,1,667.65,34a28.35,28.35,0,0,1,1,7.77,25.26,25.26,0,0,1-1,7.13,16.44,16.44,0,0,1-2.92,5.83,14.34,14.34,0,0,1-4.86,3.89,13.15,13.15,0,0,1-6.15,1.3,14,14,0,0,1-5.51-1A8.84,8.84,0,0,1,644.33,56V71.23h-6.48Z" transform="translate(14.44 11.55)"/><path d="M685.14,55a9,9,0,0,0,2.92-.32c1-.32,1.62-.65,2.59-1,.65-.32,1.62-1,2.27-1.3l1.94-1.94V43.37a41.25,41.25,0,0,0-7.13.65,50.08,50.08,0,0,0-4.86,1.3,5.92,5.92,0,0,0-2.59,1.94,3.68,3.68,0,0,0-1,2.59,4.8,4.8,0,0,0,.32,2.27,3.23,3.23,0,0,0,1.3,1.62c.65.32,1,.65,1.62,1a7.13,7.13,0,0,0,2.59.32Zm15.55,3.56H698.1c-.65,0-1,0-1.3-.32a1.68,1.68,0,0,1-.65-1.3l-.65-3.24c-1,1-1.94,1.62-2.59,2.27a11.36,11.36,0,0,1-2.59,1.62l-2.92,1a12.15,12.15,0,0,1-3.56.32,16.26,16.26,0,0,1-3.89-.65A6.26,6.26,0,0,1,677,56.65a4.72,4.72,0,0,1-1.94-2.92,8.89,8.89,0,0,1-.65-4.21,8.63,8.63,0,0,1,1-3.89A8.77,8.77,0,0,1,679,42.4a16.92,16.92,0,0,1,6.48-2.27,43.86,43.86,0,0,1,10-1V36.57a10.73,10.73,0,0,0-1.62-6.15,6.84,6.84,0,0,0-5.18-1.94,13.92,13.92,0,0,0-3.89.65,6.51,6.51,0,0,0-2.59,1.3c-.65.32-1.3,1-1.94,1.3s-1,.65-1.62.65a1.19,1.19,0,0,1-1-.32c-.32-.32-.65-.32-.65-.65l-1-1.94a19,19,0,0,1,6.15-4.21,18,18,0,0,1,7.45-1.3,13.43,13.43,0,0,1,5.18,1,11.65,11.65,0,0,1,3.89,2.59A10.67,10.67,0,0,1,701,31.71a13.43,13.43,0,0,1,.65,5.18V58.6Z" transform="translate(14.44 11.55)"/><path d="M710.08,58.6V24.26h3.56c.65,0,1,0,1.3.32s.32.65.65,1.3l.32,5.51a15.37,15.37,0,0,1,4.53-5.51,10,10,0,0,1,6.15-1.94,6.31,6.31,0,0,1,2.59.32c.65.32,1.62.65,2.27,1l-.65,4.53a1,1,0,0,1-1,1,3.52,3.52,0,0,1-1.62-.32,7.19,7.19,0,0,0-2.92-.32A6.84,6.84,0,0,0,720.13,32a14.72,14.72,0,0,0-3.56,5.51v22h-6.48Z" transform="translate(14.44 11.55)"/><path d="M748,59.25c-2.59,0-4.86-.65-6.15-2.27-1.62-1.62-2.27-3.56-2.27-6.48V29.45h-4.21a1.15,1.15,0,0,1-1.3-1.3V25.88l5.83-.65,1.3-10.69c0-.32.32-.65.32-1a1.19,1.19,0,0,1,1-.32h2.92v12h10v4.53h-10V50.5a4.3,4.3,0,0,0,1,3.24,3.68,3.68,0,0,0,2.59,1,2.43,2.43,0,0,0,1.62-.32c.32-.32,1-.32,1.3-.65s.65-.32,1-.65.32-.32.65-.32.65.32,1,.65l1.62,2.92a11.2,11.2,0,0,1-3.89,2.27,14.38,14.38,0,0,1-4.21.65" transform="translate(14.44 11.55)"/><path d="M763.21,58.6V24.26h3.56c1,0,1.3.32,1.62,1.3l.32,3.56a15.85,15.85,0,0,1,4.21-3.89,10.92,10.92,0,0,1,5.51-1.62,9,9,0,0,1,5.83,1.94,11.86,11.86,0,0,1,3.24,5.18,6.72,6.72,0,0,1,1.94-3.24A8.73,8.73,0,0,1,792,25.23a9.7,9.7,0,0,1,3.24-1.3,12.15,12.15,0,0,1,3.24-.32,10.82,10.82,0,0,1,4.86,1,9.19,9.19,0,0,1,3.56,2.59,12.93,12.93,0,0,1,2.27,4.21,15.15,15.15,0,0,1,.65,5.51v22H803.7v-22a10.73,10.73,0,0,0-1.62-6.15,6.84,6.84,0,0,0-5.18-1.94,9.46,9.46,0,0,0-2.92.65,5.81,5.81,0,0,0-2.27,1.62,7.05,7.05,0,0,0-1.62,2.59,11.64,11.64,0,0,0-.65,3.56v22h-6.15v-22a10,10,0,0,0-1.62-6.15q-1.46-1.94-4.86-1.94a6.51,6.51,0,0,0-4.21,1.3A17,17,0,0,0,769,33.66V59.57h-5.83Z" transform="translate(14.44 11.55)"/><path d="M833.17,28.15a9.28,9.28,0,0,0-6.8,2.59c-1.62,1.62-2.59,4.21-3.24,7.13h18.79a16.26,16.26,0,0,0-.65-3.89,6.26,6.26,0,0,0-1.62-2.92,5,5,0,0,0-2.59-1.94,5.84,5.84,0,0,0-3.89-1m-.32-4.53a18.34,18.34,0,0,1,5.83,1,13.59,13.59,0,0,1,4.53,2.92,12.2,12.2,0,0,1,2.92,4.86,20.88,20.88,0,0,1,1,6.48c0,1,0,1.62-.32,1.94s-.65.32-1.3.32h-23a15.69,15.69,0,0,0,1,5.83,17.45,17.45,0,0,0,2.27,4.21,6.81,6.81,0,0,0,3.56,2.27,10.29,10.29,0,0,0,4.53.65,12.08,12.08,0,0,0,3.89-.65,11.51,11.51,0,0,0,2.92-1.3c.65-.32,1.62-.65,1.94-1.3.65-.32,1-.65,1.3-.65a1.68,1.68,0,0,1,1.3.65l1.62,2.27a8.73,8.73,0,0,1-2.59,2.27A15.13,15.13,0,0,1,840.95,57c-1.3.32-2.59.65-3.56,1a15.77,15.77,0,0,1-3.89.32A14.5,14.5,0,0,1,827,57a14.8,14.8,0,0,1-5.18-3.56,17.63,17.63,0,0,1-3.56-5.83,19.6,19.6,0,0,1-1.3-7.77,24.66,24.66,0,0,1,1-6.8,19,19,0,0,1,3.24-5.51,14.8,14.8,0,0,1,5.18-3.56c1.94,0,4.21-.32,6.48-.32" transform="translate(14.44 11.55)"/><path d="M855.2,58.6V24.26h3.56c1,0,1.3.32,1.62,1.3l.32,3.89a19.76,19.76,0,0,1,5.18-3.89,13.7,13.7,0,0,1,6.48-1.62,10.82,10.82,0,0,1,4.86,1,14.38,14.38,0,0,1,3.56,2.59,17.45,17.45,0,0,1,2.27,4.21,15.15,15.15,0,0,1,.65,5.51v22h-6.15v-22a9.34,9.34,0,0,0-1.94-6.15,7.26,7.26,0,0,0-5.51-2.27,9.51,9.51,0,0,0-5.18,1.3,14.54,14.54,0,0,0-4.21,3.56V59.25H855.2Z" transform="translate(14.44 11.55)"/><path d="M903.46,59.25c-2.59,0-4.86-.65-6.15-2.27-1.62-1.62-2.27-3.56-2.27-6.48V29.45h-4.21a1.15,1.15,0,0,1-1.3-1.3V25.88l5.83-.65,1.3-10.69c0-.32.32-.65.32-1a1.19,1.19,0,0,1,1-.32h2.92v12h10v4.53h-10V50.5a4.3,4.3,0,0,0,1,3.24,3.68,3.68,0,0,0,2.59,1,2.43,2.43,0,0,0,1.62-.32c.32-.32,1-.32,1.3-.65s.65-.32,1-.65.32-.32.65-.32.65.32,1,.65l1.62,2.92a11.2,11.2,0,0,1-3.89,2.27,14.37,14.37,0,0,1-4.21.65" transform="translate(14.44 11.55)"/><path d="M945.9,54.39a9.41,9.41,0,0,0,7.77-3.56c1.62-2.27,2.59-5.51,2.59-9.72s-1-7.45-2.59-9.72-4.21-3.56-7.77-3.56a10.35,10.35,0,0,0-4.53,1,8.23,8.23,0,0,0-3.24,2.59,8.48,8.48,0,0,0-1.94,4.21,28.53,28.53,0,0,0-.65,5.51,28.53,28.53,0,0,0,.65,5.51,10,10,0,0,0,1.94,4.21,12.68,12.68,0,0,0,3.24,2.59,9.41,9.41,0,0,0,4.53,1m0-30.77a15,15,0,0,1,6.8,1.3,14.8,14.8,0,0,1,5.18,3.56A19,19,0,0,1,961.12,34a25.51,25.51,0,0,1,1.3,7.45,19,19,0,0,1-1.3,7.45,13.1,13.1,0,0,1-3.24,5.51A14.8,14.8,0,0,1,952.7,58a18.5,18.5,0,0,1-13.6,0,14.8,14.8,0,0,1-5.18-3.56,19,19,0,0,1-3.24-5.51,25.51,25.51,0,0,1-1.3-7.45,19,19,0,0,1,1.3-7.45,13.1,13.1,0,0,1,3.24-5.51,14.8,14.8,0,0,1,5.18-3.56,15,15,0,0,1,6.8-1.3" transform="translate(14.44 11.55)"/><path d="M971.16,58.6V29.12l-3.89-.32a2.46,2.46,0,0,1-1.3-.65,1.19,1.19,0,0,1-.32-1V24.59h5.51V21.35a12.34,12.34,0,0,1,1-5.18,11.2,11.2,0,0,1,2.27-3.89A7.77,7.77,0,0,1,978.29,10a13,13,0,0,1,4.86-1,16.41,16.41,0,0,1,4.21.65V12.6c0,.32-.32.65-.65,1h-2.59a9,9,0,0,0-2.92.32,5,5,0,0,0-3.56,3.56A11.64,11.64,0,0,0,977,21v3.24h10V28.8h-9.72V58.27h-6.15Z" transform="translate(14.44 11.55)"/><path d="M1016.51,59.25c-2.59,0-4.86-.65-6.15-2.27-1.62-1.62-2.27-3.56-2.27-6.48V29.45h-4.21a1.15,1.15,0,0,1-1.3-1.3V25.88l5.83-.65,1.3-10.69c0-.32.32-.65.32-1a1.19,1.19,0,0,1,1-.32h2.92v12h10v4.53h-10V50.5a4.3,4.3,0,0,0,1,3.24,3.68,3.68,0,0,0,2.59,1,2.43,2.43,0,0,0,1.62-.32c.32-.32,1-.32,1.3-.65s.65-.32,1-.65.32-.32.65-.32.65.32,1,.65l1.62,2.92a11.2,11.2,0,0,1-3.89,2.27,16.41,16.41,0,0,1-4.21.65" transform="translate(14.44 11.55)"/><path d="M1031.41,58.6V8.39h6.15V28.8a25.55,25.55,0,0,1,4.86-3.89,13.15,13.15,0,0,1,6.15-1.3,10.82,10.82,0,0,1,4.86,1,14.38,14.38,0,0,1,3.56,2.59,17.45,17.45,0,0,1,2.27,4.21,15.15,15.15,0,0,1,.65,5.51v22h-6.15v-22a9.34,9.34,0,0,0-1.94-6.15,7.26,7.26,0,0,0-5.51-2.27,9.51,9.51,0,0,0-5.18,1.3,14.54,14.54,0,0,0-4.21,3.56V58.92h-5.51Z" transform="translate(14.44 11.55)"/><path d="M1083.24,28.15a9.28,9.28,0,0,0-6.8,2.59c-1.62,1.62-2.59,4.21-3.24,7.13H1092a16.26,16.26,0,0,0-.65-3.89,6.26,6.26,0,0,0-1.62-2.92,5,5,0,0,0-2.59-1.94c-1.3-1-2.27-1-3.89-1m0-4.53a18.34,18.34,0,0,1,5.83,1,13.59,13.59,0,0,1,4.53,2.92,12.2,12.2,0,0,1,2.92,4.86,20.88,20.88,0,0,1,1,6.48c0,1,0,1.62-.32,1.94s-.65.32-1.3.32h-23a15.69,15.69,0,0,0,1,5.83,17.45,17.45,0,0,0,2.27,4.21,6.81,6.81,0,0,0,3.56,2.27,10.29,10.29,0,0,0,4.53.65,12.08,12.08,0,0,0,3.89-.65,11.51,11.51,0,0,0,2.92-1.3c.65-.32,1.62-.65,1.94-1.3.65-.32,1-.65,1.3-.65a1.68,1.68,0,0,1,1.3.65l1.62,2.27a8.73,8.73,0,0,1-2.59,2.27,15.13,15.13,0,0,1-3.24,1.62c-1.3.32-2.59.65-3.56,1a15.77,15.77,0,0,1-3.89.32,14.5,14.5,0,0,1-6.48-1.3,14.8,14.8,0,0,1-5.18-3.56,17.63,17.63,0,0,1-3.56-5.83,19.6,19.6,0,0,1-1.3-7.77,24.66,24.66,0,0,1,1-6.8,19,19,0,0,1,3.24-5.51,14.8,14.8,0,0,1,5.18-3.56c1.62,0,3.89-.32,6.48-.32" transform="translate(14.44 11.55)"/><polygon points="1135.26 70.14 1141.73 70.14 1141.73 21.23 1135.26 21.23 1135.26 70.14"/><path d="M1139.6,58.6V24.26h3.56c1,0,1.3.32,1.62,1.3l.32,3.89a19.76,19.76,0,0,1,5.18-3.89,13.7,13.7,0,0,1,6.48-1.62,10.82,10.82,0,0,1,4.86,1,14.38,14.38,0,0,1,3.56,2.59,17.45,17.45,0,0,1,2.27,4.21,15.15,15.15,0,0,1,.65,5.51v22H1162v-22a9.34,9.34,0,0,0-1.94-6.15,7.26,7.26,0,0,0-5.51-2.27,9.51,9.51,0,0,0-5.18,1.3,14.54,14.54,0,0,0-4.21,3.56V59.25h-5.51Z" transform="translate(14.44 11.55)"/><path d="M1187.86,59.25c-2.59,0-4.86-.65-6.15-2.27-1.62-1.62-2.27-3.56-2.27-6.48V29.45h-4.21a1.15,1.15,0,0,1-1.3-1.3V25.88l5.83-.65,1.3-10.69c0-.32.32-.65.32-1a1.19,1.19,0,0,1,1-.32h2.92v12h10v4.53h-10V50.5a4.3,4.3,0,0,0,1,3.24,3.68,3.68,0,0,0,2.59,1,2.43,2.43,0,0,0,1.62-.32c.32-.32,1-.32,1.3-.65s.65-.32,1-.65.32-.32.65-.32.65.32,1,.65l1.62,2.92a11.2,11.2,0,0,1-3.89,2.27,14.37,14.37,0,0,1-4.21.65" transform="translate(14.44 11.55)"/><path d="M1216.69,28.15a9.28,9.28,0,0,0-6.8,2.59c-1.62,1.62-2.59,4.21-3.24,7.13h18.79a16.26,16.26,0,0,0-.65-3.89,6.26,6.26,0,0,0-1.62-2.92,5,5,0,0,0-2.59-1.94c-1.3-1-2.27-1-3.89-1m0-4.53a18.34,18.34,0,0,1,5.83,1,13.59,13.59,0,0,1,4.53,2.92,12.2,12.2,0,0,1,2.92,4.86,20.88,20.88,0,0,1,1,6.48c0,1,0,1.62-.32,1.94s-.65.32-1.3.32h-23a15.69,15.69,0,0,0,1,5.83,17.45,17.45,0,0,0,2.27,4.21,6.81,6.81,0,0,0,3.56,2.27,10.29,10.29,0,0,0,4.53.65,12.08,12.08,0,0,0,3.89-.65,11.51,11.51,0,0,0,2.92-1.3c.65-.32,1.62-.65,1.94-1.3.65-.32,1-.65,1.3-.65a1.68,1.68,0,0,1,1.3.65l1.62,2.27a8.73,8.73,0,0,1-2.59,2.27,15.13,15.13,0,0,1-3.24,1.62c-1.3.32-2.59.65-3.56,1a15.77,15.77,0,0,1-3.89.32,14.5,14.5,0,0,1-6.48-1.3,14.8,14.8,0,0,1-5.18-3.56,17.63,17.63,0,0,1-3.56-5.83,19.6,19.6,0,0,1-1.3-7.77,24.66,24.66,0,0,1,1-6.8A19,19,0,0,1,1205,27.5a14.8,14.8,0,0,1,5.18-3.56c1.62,0,3.89-.32,6.48-.32" transform="translate(14.44 11.55)"/><path d="M1238.72,58.6V24.26h3.56c.65,0,1,0,1.3.32s.32.65.65,1.3l.32,5.51a15.37,15.37,0,0,1,4.53-5.51,10,10,0,0,1,6.15-1.94,6.31,6.31,0,0,1,2.59.32c.65.32,1.62.65,2.27,1l-.65,4.53a1,1,0,0,1-1,1,3.52,3.52,0,0,1-1.62-.32,7.19,7.19,0,0,0-2.92-.32,6.84,6.84,0,0,0-5.18,1.94,14.72,14.72,0,0,0-3.56,5.51v22h-6.48Z" transform="translate(14.44 11.55)"/><path d="M1266.9,58.6h6.15V24.26h-6.15Zm7.45-45.35a2.43,2.43,0,0,1-.32,1.62,4.47,4.47,0,0,1-1,1.3c-.32.32-1,.65-1.3,1a2.92,2.92,0,0,1-1.62.32,2.43,2.43,0,0,1-1.62-.32,4.47,4.47,0,0,1-1.3-1c-.32-.32-.65-1-1-1.3a2.92,2.92,0,0,1-.32-1.62,2.43,2.43,0,0,1,.32-1.62,4.47,4.47,0,0,1,1-1.3c.32-.32,1-.65,1.3-1a2.92,2.92,0,0,1,1.62-.32,2.43,2.43,0,0,1,1.62.32,4.47,4.47,0,0,1,1.3,1c.32.32.65,1,1,1.3a2.43,2.43,0,0,1,.32,1.62Z" transform="translate(14.44 11.55)"/><path d="M1297.67,54.39a9.41,9.41,0,0,0,7.77-3.56c1.62-2.27,2.59-5.51,2.59-9.72s-1-7.45-2.59-9.72-4.21-3.56-7.77-3.56a10.35,10.35,0,0,0-4.53,1,8.23,8.23,0,0,0-3.24,2.59A8.48,8.48,0,0,0,1288,35.6a28.53,28.53,0,0,0-.65,5.51,28.53,28.53,0,0,0,.65,5.51,10,10,0,0,0,1.94,4.21,12.68,12.68,0,0,0,3.24,2.59,11.43,11.43,0,0,0,4.53,1m0-30.77a15,15,0,0,1,6.8,1.3,14.8,14.8,0,0,1,5.18,3.56A19,19,0,0,1,1312.9,34a25.51,25.51,0,0,1,1.3,7.45,19,19,0,0,1-1.3,7.45,13.1,13.1,0,0,1-3.24,5.51,14.8,14.8,0,0,1-5.18,3.56,18.5,18.5,0,0,1-13.6,0,14.8,14.8,0,0,1-5.18-3.56,19,19,0,0,1-3.24-5.51,25.51,25.51,0,0,1-1.3-7.45,19,19,0,0,1,1.3-7.45,13.1,13.1,0,0,1,3.24-5.51,14.8,14.8,0,0,1,5.18-3.56,16.92,16.92,0,0,1,6.8-1.3" transform="translate(14.44 11.55)"/><path d="M1322,58.6V24.26h3.56c.65,0,1,0,1.3.32s.32.65.65,1.3l.32,5.51a15.37,15.37,0,0,1,4.53-5.51,10,10,0,0,1,6.15-1.94,6.31,6.31,0,0,1,2.59.32c.65.32,1.62.65,2.27,1l-.65,4.53a1,1,0,0,1-1,1,3.52,3.52,0,0,1-1.62-.32,7.19,7.19,0,0,0-2.92-.32A6.84,6.84,0,0,0,1332,32a14.72,14.72,0,0,0-3.56,5.51v22H1322Z" transform="translate(14.44 11.55)"/><polygon points="512.36 223.68 470.25 174.77 470.25 223.68 440.77 223.68 440.77 123.27 468.63 123.27 510.74 172.83 510.74 123.27 540.54 123.27 540.54 223.68 512.36 223.68"/><path d="M573.71,181.36c-3.89,1.94-5.83,4.21-5.83,7.13,0,4.86,3.24,7.45,10,7.45A17.44,17.44,0,0,0,588,193a8.64,8.64,0,0,0,4.21-7.45V179.1c-8.75-.65-14.58.32-18.46,2.27m36-42.11c7.45,3.89,11,10.37,11,19.11v30.12a6.51,6.51,0,0,0,1.3,4.21,4.18,4.18,0,0,0,3.56,1.62h5.18v16.84a5,5,0,0,1-2.27,1,39.7,39.7,0,0,1-5.18,1.3,53.75,53.75,0,0,1-7.77.65,34.47,34.47,0,0,1-13.93-2.59,14.58,14.58,0,0,1-7.45-7.13,51,51,0,0,1-12.31,7.13,47.94,47.94,0,0,1-15.87,2.59c-18.14,0-27.21-7.13-27.21-21.7,0-7.45,1.94-13.28,6.15-17.17,3.89-3.89,9.72-6.48,17.49-8.1,7.45-1.62,17.49-2.27,29.8-2.27V161a7.75,7.75,0,0,0-3.24-6.8c-1.94-1.62-4.86-2.27-8.1-2.27a19.57,19.57,0,0,0-7.77,1.62,5.26,5.26,0,0,0-3.24,5.18v.65h-28.5v-1.94c0-7.45,3.56-13,10.37-17.49,6.8-4.21,16.84-6.48,29.8-6.48,11.34,0,21.05,1.94,28.18,5.83" transform="translate(14.44 11.55)"/><path d="M687.09,135V154.8h-16.2V184c0,3.56.65,6.15,1.62,7.77,1.3,1.62,3.24,2.27,6.48,2.27h8.1v17.17c-2.27.65-5.51,1.3-9.07,1.94a52.37,52.37,0,0,1-9.72.65c-8.42,0-15.22-1.62-19.76-4.53-4.53-3.24-6.8-8.42-6.8-15.87V154.8H631V135h12l6.15-23.32h21.7V135Z" transform="translate(14.44 11.55)"/><path d="M753.81,212.14l-1.94-11.66a29.54,29.54,0,0,1-12,9.72,36.46,36.46,0,0,1-15.55,3.56c-9.07,0-15.55-2.59-20.08-7.45s-6.8-12-6.8-21.38V135H726.6v46.32a13.43,13.43,0,0,0,2.59,8.1,9,9,0,0,0,7.13,2.92,12,12,0,0,0,8.75-3.56,11.72,11.72,0,0,0,3.24-8.75V134.72h29.15v77.09H753.81Z" transform="translate(14.44 11.55)"/><path d="M844.51,134.07c1.62.65,2.59,1,2.59,1v24.29h-9.39c-6.15,0-10.37,1.62-13,4.53-2.59,3.24-3.89,7.77-3.89,13.93v34.34H791.71V135h23.65l1.94,11.66a18.52,18.52,0,0,1,8.42-10,25.08,25.08,0,0,1,13-3.56,15.69,15.69,0,0,1,5.83,1" transform="translate(14.44 11.55)"/><path d="M885.32,181.36c-3.89,1.94-5.83,4.21-5.83,7.13,0,4.86,3.24,7.45,10,7.45a17.44,17.44,0,0,0,10-2.92,8.64,8.64,0,0,0,4.21-7.45V179.1c-8.42-.65-14.58.32-18.46,2.27m36.28-42.11c7.45,3.89,11,10.37,11,19.11v30.12a6.51,6.51,0,0,0,1.3,4.21,4.18,4.18,0,0,0,3.56,1.62h5.18v16.84a5,5,0,0,1-2.27,1,39.7,39.7,0,0,1-5.18,1.3,53.75,53.75,0,0,1-7.77.65,34.47,34.47,0,0,1-13.93-2.59,14.58,14.58,0,0,1-7.45-7.13,51,51,0,0,1-12.31,7.13,48.51,48.51,0,0,1-16.2,2.59c-18.14,0-27.21-7.13-27.21-21.7,0-7.45,1.94-13.28,6.15-17.17,3.89-3.89,9.72-6.48,17.49-8.1,7.45-1.62,17.49-2.27,29.8-2.27V161a7.75,7.75,0,0,0-3.24-6.8c-1.94-1.62-4.86-2.27-8.1-2.27a19.57,19.57,0,0,0-7.77,1.62,5.26,5.26,0,0,0-3.24,5.18v.65h-28.5v-1.94c0-7.45,3.56-13,10.37-17.49,6.8-4.21,16.84-6.48,29.8-6.48,11.34,0,21.05,1.94,28.5,5.83" transform="translate(14.44 11.55)"/><polygon points="964.88 223.68 994.03 223.68 994.03 118.08 964.88 118.08 964.88 223.68"/><path d="M1104,137.31a9,9,0,0,0-6.48-2.59h-21.05v18.46h21.05a8.86,8.86,0,0,0,9.07-9.07c0-2.92-.65-5.18-2.59-6.8m30.45,21.7a28.38,28.38,0,0,1-14.58,11l22.35,42.11h-36.28l-17.82-36.6h-12v36.6H1044V111.72h61.22c7.13,0,13.28,1.3,18.46,4.21s9.07,6.48,11.66,11.34a31.31,31.31,0,0,1,3.89,15.22,24.9,24.9,0,0,1-4.86,16.52" transform="translate(14.44 11.55)"/><path d="M1175.88,164.84h28.18a12.24,12.24,0,0,0-13-13c-9.07,0-13.93,4.21-15.22,13m46.64-21.7c7.45,6.48,11,16.84,11,30.45v4.86h-57.66c0,5.51,1.3,9.72,3.56,12.63,2.59,2.92,6.48,4.21,11.66,4.21q7.29,0,10.69-2.92a10.53,10.53,0,0,0,3.56-8.1h28.18c0,9.39-3.56,16.52-10.69,22q-10.69,7.77-31.1,7.77c-14.25,0-25.27-3.24-33.36-10q-11.66-10.2-11.66-30.12t11.66-30.12c7.77-6.8,18.14-10,31.74-10,13.93-.32,24.94,2.92,32.39,9.39" transform="translate(14.44 11.55)"/><path d="M1307.07,139.25c7.13,3.89,10.69,10.37,10.69,18.79h-26.89a5.67,5.67,0,0,0-3.89-5.83,12.76,12.76,0,0,0-6.48-1.62c-7.13,0-10.37,1.62-10.37,4.86,0,1.94,1.3,3.24,3.56,3.89s6.48,1.62,12,2.59a130.76,130.76,0,0,1,17.17,3.56,27,27,0,0,1,12,7.13c3.24,3.24,5.18,8.1,5.18,13.93,0,9.72-3.56,16.84-11,21.05s-16.84,6.15-28.83,6.15a60.59,60.59,0,0,1-19.11-2.92q-9.23-2.92-14.58-8.75c-3.89-3.89-5.83-9.07-5.83-15.22h26.89v.65a7.21,7.21,0,0,0,4.21,6.8,18.9,18.9,0,0,0,8.42,1.94c8.1,0,12-1.94,12-5.83,0-1.94-1.3-3.24-3.89-4.21a77.27,77.27,0,0,0-12.31-2.92c-6.8-1.3-12.63-2.27-16.84-3.89a26.49,26.49,0,0,1-11.66-6.8q-4.86-4.86-4.86-13.6c0-9.39,3.56-16.2,10.69-20.08s16.52-5.83,27.86-5.83c10,.32,18.79,2.27,25.91,6.15" transform="translate(14.44 11.55)"/><path d="M1355,169.38v8.42c0,11,4.86,16.2,14.25,16.2,9.72,0,14.58-5.51,14.58-16.2v-8.42q0-16.52-14.58-16.52c-9.39.32-14.25,5.51-14.25,16.52m46.32-25.91c7.77,6.8,11.66,16.84,11.66,29.8s-3.89,23-11.66,29.8-18.46,10.37-31.74,10.37c-13.6,0-24-3.56-31.74-10.37s-11.66-16.84-11.66-30.12,3.89-23.32,11.66-30.12,18.14-10,31.74-10c13.28.65,24,3.89,31.74,10.69" transform="translate(14.44 11.55)"/><path d="M1478.74,212.14l-1.94-11.66a29.54,29.54,0,0,1-12,9.72,36.46,36.46,0,0,1-15.55,3.56c-9.07,0-15.55-2.59-20.08-7.45s-6.8-12-6.8-21.38V135h29.15v46.32a13.43,13.43,0,0,0,2.59,8.1,9,9,0,0,0,7.13,2.92,12,12,0,0,0,8.75-3.56,11.72,11.72,0,0,0,3.24-8.75V134.72h29.15v77.09h-23.65Z" transform="translate(14.44 11.55)"/><path d="M1569.77,134.07c1.62.65,2.59,1,2.59,1v24.29H1563c-6.15,0-10.37,1.62-13,4.53-2.59,3.24-3.89,7.77-3.89,13.93v34.34H1517V135h23.65l1.94,11.66a18.52,18.52,0,0,1,8.42-10,25.08,25.08,0,0,1,13-3.56,18.34,18.34,0,0,1,5.83,1" transform="translate(14.44 11.55)"/><path d="M1650.42,141.52c7.77,5.51,11.66,13.6,11.66,24.62H1633.9c0-8.75-4.86-13-14.25-13s-14.25,5.51-14.25,16.52v8.42c0,11,4.86,16.2,14.9,16.2s14.9-4.53,14.9-13.28h26.89c0,11-3.89,19.44-11.66,24.94s-18.14,8.1-30.77,8.1c-13.6,0-24-3.56-31.74-10.37s-11.66-16.84-11.66-30.12,3.89-23.32,11.66-30.12,18.14-10,31.74-10c12.63,0,22.67,2.59,30.77,8.1" transform="translate(14.44 11.55)"/><path d="M1698.36,164.84h28.18a12.24,12.24,0,0,0-13-13c-9.07,0-13.93,4.21-15.22,13m46.64-21.7c7.45,6.48,11,16.84,11,30.45v4.86h-57.66c0,5.51,1.3,9.72,3.56,12.63,2.59,2.92,6.48,4.21,11.66,4.21q7.29,0,10.69-2.92a10.53,10.53,0,0,0,3.56-8.1H1756c0,9.39-3.56,16.52-10.69,22q-10.69,7.77-31.1,7.77c-14.25,0-25.27-3.24-33.36-10q-11.66-10.2-11.66-30.12t11.66-30.12c7.77-6.8,18.14-10,31.74-10,14.25-.32,24.94,2.92,32.39,9.39" transform="translate(14.44 11.55)"/><path d="M1829.55,139.25c7.13,3.89,10.69,10.37,10.69,18.79h-26.89a5.67,5.67,0,0,0-3.89-5.83,12.76,12.76,0,0,0-6.48-1.62c-7.13,0-10.37,1.62-10.37,4.86,0,1.94,1.3,3.24,3.56,3.89s6.48,1.62,12,2.59a130.76,130.76,0,0,1,17.17,3.56,27,27,0,0,1,12,7.13c3.24,3.24,5.18,8.1,5.18,13.93,0,9.72-3.56,16.84-11,21.05s-16.84,6.15-28.83,6.15a60.6,60.6,0,0,1-19.11-2.92q-9.23-2.92-14.58-8.75c-3.89-3.89-5.83-9.07-5.83-15.22H1790v.65a7.21,7.21,0,0,0,4.21,6.8,18.9,18.9,0,0,0,8.42,1.94c8.1,0,12-1.94,12-5.83,0-1.94-1.3-3.24-3.89-4.21a77.27,77.27,0,0,0-12.31-2.92c-6.8-1.3-12.63-2.27-16.84-3.89a26.49,26.49,0,0,1-11.66-6.8q-4.86-4.86-4.86-13.6c0-9.39,3.56-16.2,10.69-20.08s16.52-5.83,27.86-5.83c10,.32,18.79,2.27,25.91,6.15" transform="translate(14.44 11.55)"/><path d="M485.93,289.55a9,9,0,0,0-6.48-2.59H458.4v18.46h21.05a8.86,8.86,0,0,0,9.07-9.07,9.28,9.28,0,0,0-2.59-6.8m30.45,21.7a28.38,28.38,0,0,1-14.58,11l22.35,42.11H487.88l-17.82-36.6h-12v36.6H426V264h61.22c7.13,0,13.28,1.3,18.46,4.21s9.07,6.48,11.66,11.34a31.31,31.31,0,0,1,3.89,15.22,29.1,29.1,0,0,1-4.86,16.52" transform="translate(14.44 11.55)"/><path d="M557.84,317.09H586a12.24,12.24,0,0,0-13-13c-9.07,0-14.25,4.21-15.22,13m46.32-21.7c7.45,6.48,11,16.84,11,30.45v4.86H557.52c0,5.51,1.3,9.72,3.56,12.63,2.59,2.92,6.48,4.21,11.66,4.21q7.29,0,10.69-2.92a10.53,10.53,0,0,0,3.56-8.1h28.18c0,9.39-3.56,16.52-10.69,22q-10.69,7.77-31.1,7.77c-14.25,0-25.27-3.24-33.36-10q-11.66-10.2-11.66-30.12T540,296c7.77-6.8,18.14-10.37,31.74-10.37,14.25,0,24.94,3.24,32.39,9.72" transform="translate(14.44 11.55)"/><polygon points="657.8 375.92 628.65 298.83 659.74 298.83 674 346.77 674.97 346.77 688.89 298.83 717.72 298.83 688.25 375.92 657.8 375.92"/><path d="M731.46,317.09h28.18a12.24,12.24,0,0,0-13-13c-9.07,0-13.93,4.21-15.22,13m46.64-21.7c7.45,6.48,11,16.84,11,30.45v4.86H731.46c0,5.51,1.3,9.72,3.56,12.63,2.59,2.92,6.48,4.21,11.66,4.21q7.29,0,10.69-2.92a10.53,10.53,0,0,0,3.56-8.1h28.18c0,9.39-3.56,16.52-10.69,22q-10.69,7.77-31.1,7.77c-14.25,0-25.27-3.24-33.36-10q-11.66-10.2-11.66-30.12T714,296c7.77-6.8,18.14-10.37,31.74-10.37,14.25,0,24.94,3.24,32.39,9.72" transform="translate(14.44 11.55)"/><path d="M873.34,293.12q6.8,7.29,6.8,21.38v49.88H851V318.06a13.43,13.43,0,0,0-2.59-8.1,9,9,0,0,0-7.13-2.92,12,12,0,0,0-8.75,3.56,11.72,11.72,0,0,0-3.24,8.75v45H800.13V287.29h23.65l1.94,11.66a29.54,29.54,0,0,1,12-9.72,32.26,32.26,0,0,1,15.55-3.56c9.07,0,15.87,2.27,20.08,7.45" transform="translate(14.44 11.55)"/><path d="M949.78,364.38l-1.94-11.66a29.54,29.54,0,0,1-12,9.72A36.46,36.46,0,0,1,920.31,366c-9.07,0-15.55-2.59-20.08-7.45s-6.8-12-6.8-21.38V287.29h29.15v46.32a13.43,13.43,0,0,0,2.59,8.1,9,9,0,0,0,7.13,2.92,12,12,0,0,0,8.75-3.56,11.72,11.72,0,0,0,3.24-8.75V287h29.15v77.09H949.78Z" transform="translate(14.44 11.55)"/><path d="M1013.27,317.09h28.18a12.24,12.24,0,0,0-13-13c-8.75,0-13.93,4.21-15.22,13m46.64-21.7c7.45,6.48,11,16.84,11,30.45v4.86h-57.66c0,5.51,1.3,9.72,3.56,12.63,2.59,2.92,6.48,4.21,11.66,4.21q7.29,0,10.69-2.92a10.53,10.53,0,0,0,3.56-8.1h28.18c0,9.39-3.56,16.52-10.69,22q-10.69,7.77-31.1,7.77c-14.25,0-25.27-3.24-33.36-10q-11.66-10.2-11.66-30.12T995.78,296c7.77-6.8,18.14-10.37,31.74-10.37,14.25,0,24.94,3.24,32.39,9.72" transform="translate(14.44 11.55)"/><path d="M1163.25,340.41h10.69c13.6,0,20.41-7.13,20.41-21.7v-9.07c0-14.58-6.8-21.7-20.41-21.7h-10.69Zm64.14-26.24c0,33.36-17.49,50.21-52.47,50.21H1131.5V264h43.41c34.66,0,52.47,16.84,52.47,50.21Z" transform="translate(14.44 11.55)"/><path d="M1270.14,333.61c-3.89,1.94-5.83,4.21-5.83,7.13,0,4.86,3.24,7.45,10,7.45a17.44,17.44,0,0,0,10-2.92,8.64,8.64,0,0,0,4.21-7.45v-6.48c-8.42-.65-14.58.32-18.46,2.27m36.28-42.11c7.45,3.89,11,10.37,11,19.11v30.12a6.51,6.51,0,0,0,1.3,4.21,4.18,4.18,0,0,0,3.56,1.62h5.18v16.84a5,5,0,0,1-2.27,1,39.7,39.7,0,0,1-5.18,1.3,53.75,53.75,0,0,1-7.77.65,34.47,34.47,0,0,1-13.93-2.59,14.58,14.58,0,0,1-7.45-7.13,51,51,0,0,1-12.31,7.13,48.51,48.51,0,0,1-16.2,2.59c-18.14,0-27.21-7.13-27.21-21.7,0-7.45,1.94-13.28,6.15-17.17,3.89-3.89,9.72-6.48,17.49-8.1a177.07,177.07,0,0,1,29.8-2.27V313.2a7.75,7.75,0,0,0-3.24-6.8c-1.94-1.62-4.86-2.27-8.1-2.27a19.57,19.57,0,0,0-7.77,1.62,5.26,5.26,0,0,0-3.24,5.18v.65h-28.5v-1.94c0-7.45,3.56-13,10.37-17.49,6.8-4.21,16.84-6.48,29.8-6.48,11.34,0,21.05,1.94,28.5,5.83" transform="translate(14.44 11.55)"/><path d="M1383.84,287.29V307h-16.2V336.2c0,3.56.65,6.15,1.62,7.77,1.3,1.62,3.24,2.27,6.48,2.27h8.1v17.17a83.2,83.2,0,0,1-9.07,1.94,52.37,52.37,0,0,1-9.72.65c-8.42,0-15.22-1.62-19.76-4.53-4.53-3.24-6.8-8.42-6.8-15.87V307H1327.8V287.29h12l6.15-23.32h21.7v23.32Z" transform="translate(14.44 11.55)"/><path d="M1425.3,333.61c-3.89,1.94-5.83,4.21-5.83,7.13,0,4.86,3.24,7.45,10,7.45a17.44,17.44,0,0,0,10-2.92,8.64,8.64,0,0,0,4.21-7.45v-6.48c-8.42-.65-14.58.32-18.46,2.27m36.28-42.11c7.45,3.89,11,10.37,11,19.11v30.12a6.51,6.51,0,0,0,1.3,4.21,4.18,4.18,0,0,0,3.56,1.62h5.18v16.84a5,5,0,0,1-2.27,1,39.7,39.7,0,0,1-5.18,1.3,53.75,53.75,0,0,1-7.77.65,34.47,34.47,0,0,1-13.93-2.59,14.58,14.58,0,0,1-7.45-7.13,51,51,0,0,1-12.31,7.13,48.51,48.51,0,0,1-16.2,2.59c-18.14,0-27.21-7.13-27.21-21.7,0-7.45,1.94-13.28,6.15-17.17,3.89-3.89,9.72-6.48,17.49-8.1a177.07,177.07,0,0,1,29.8-2.27V313.2a7.75,7.75,0,0,0-3.24-6.8c-1.94-1.62-4.86-2.27-8.1-2.27a19.57,19.57,0,0,0-7.77,1.62,5.26,5.26,0,0,0-3.24,5.18v.65h-28.5v-1.94c0-7.45,3.56-13,10.37-17.49,6.8-4.21,16.84-6.48,29.8-6.48,11.34,0,21.05,1.94,28.5,5.83" transform="translate(14.44 11.55)"/></svg>