<svg xmlns="http://www.w3.org/2000/svg" xmlns:xlink="http://www.w3.org/1999/xlink" width="100" height="100" viewBox="0 0 100 100"><g><g transform="translate(50 50) scale(0.69 0.69) rotate(0) translate(-50 -50)" style="fill:#323c42"><svg fill="#323c42" xmlns="http://www.w3.org/2000/svg" xmlns:xlink="http://www.w3.org/1999/xlink" version="1.1" x="0px" y="0px" viewBox="0 0 100 100" enable-background="new 0 0 100 100" xml:space="preserve"><path d="M57.8,31.7c3.2,3.2,15.8,15.8,16,16c3.1,3,7.9,3,11,0c3.1-3,3.1-8,0-11C84.6,36.5,55.5,7.3,55.5,7.3c-3.1-3.1-8.1-3.1-11,0  c0,0-28.8,28.7-29.4,29.4c-3,3-3,7.9,0,11c3.1,3,8.1,3,11.1,0c0.6-0.6,16-16.1,16-16.1v55.5c0,4.3,3.5,7.8,7.8,7.8  c4.3,0,7.8-3.5,7.8-7.8V31.7z"></path></svg></g></g></svg>