<?xml version="1.0" encoding="UTF-8" standalone="no"?>
<svg x="{{ include.x }}" y="{{ include.y }}" width="40px" height="41px" viewBox="2 2 30 31" xmlns="http://www.w3.org/2000/svg" xmlns:xlink="http://www.w3.org/1999/xlink">
    <!-- Generator: Sketch 39.1 (31720) - http://www.bohemiancoding.com/sketch -->
    <title>{{ include.caption }}</title>
    <desc>Created with Sketch.</desc>
    <defs>
        <circle id="path-1" cx="21" cy="21" r="17"></circle>
        <mask id="mask-2" maskContentUnits="userSpaceOnUse" maskUnits="objectBoundingBox" x="0" y="0" width="34" height="34" fill="white">
            <use xlink:href="#path-1"></use>
        </mask>
    </defs>
    <g id="Page-1" stroke="none" stroke-width="1" fill="none" fill-rule="evenodd">
        <g id="Artboard" transform="translate(-199.000000, -290.000000)">
            <g id="btn-icon-iron" transform="translate(196.000000, 287.000000)">
                <use id="Oval" stroke="#323C42" mask="url(#mask-2)" stroke-width="3" fill="#FFFFFF" xlink:href="#path-1"></use>
                <path d="M23.8910004,26.6149998 C23.0600004,26.6149998 22.2680004,26.5219998 21.5290004,26.3559998 C20.8260004,26.1979998 20.1760004,25.9719998 19.5900004,25.6869998 C18.6860004,25.2479998 17.9380004,24.6759998 17.4110004,24.0029998 C17.1180004,23.6289998 16.9000004,23.2229998 16.7530004,22.7959998 C16.6220004,22.4159998 16.5450004,22.0209998 16.5450004,21.6099998 C16.5450004,20.5989998 16.9690004,19.6689998 17.6980004,18.8899998 C18.6680004,18.8999998 19.5020004,19.0749998 20.1630004,19.3309998 C19.0890004,19.9089998 18.4040004,20.7219998 18.4040004,21.6099998 C18.4040004,22.0089998 18.5460004,22.3929998 18.7960004,22.7479998 C19.0480004,23.1069998 19.4140004,23.4339998 19.8660004,23.7169998 C20.5630004,24.1529998 21.4640004,24.4789998 22.4720004,24.6399998 C22.9270004,24.7129998 23.4020004,24.7549998 23.8910004,24.7549998 C24.0170004,24.7549998 24.1420004,24.7489998 24.2660004,24.7439998 C27.0700004,24.6279998 29.3750004,23.2409998 29.3750004,21.6099998 C29.3750004,20.2349998 27.7390004,19.0339998 25.5470004,18.6199998 C25.1500004,17.8629998 24.5560004,17.1829998 23.8070004,16.6089998 C23.8350004,16.6089998 23.8630004,16.6059998 23.8910004,16.6059998 C28.0110004,16.6059998 31.2350004,18.8049998 31.2350004,21.6099998 C31.2350004,24.4159998 28.0110004,26.6149998 23.8910004,26.6149998 M15.4820004,22.5349998 C14.0950004,22.1119998 13.2870004,21.3519998 13.2870004,20.8659998 C13.2870004,20.3069998 14.3480004,19.3859998 16.1390004,19.0349998 C15.6550004,19.8159998 15.3800004,20.6839998 15.3800004,21.6099998 C15.3800004,21.9259998 15.4210004,22.2329998 15.4820004,22.5349998 M20.0940004,22.4229998 C19.7600004,22.1329998 19.5670004,21.8399998 19.5670004,21.6099998 C19.5670004,21.1649998 20.2330004,20.4889998 21.4040004,20.0519998 C21.7380004,20.3419998 21.9320004,20.6349998 21.9320004,20.8659998 C21.9320004,21.3099998 21.2650004,21.9869998 20.0940004,22.4229998 M28.2120004,21.6099998 C28.2120004,22.1689998 27.1490004,23.0909998 25.3580004,23.4429998 C25.8430004,22.6619998 26.1180004,21.7919998 26.1180004,20.8659998 L26.1180004,20.8659998 C26.1180004,20.5489998 26.0770004,20.2419998 26.0160004,19.9399998 C27.4030004,20.3619998 28.2120004,21.1229998 28.2120004,21.6099998 M17.6110004,25.8689998 C13.4910004,25.8689998 10.2650004,23.6719998 10.2650004,20.8659998 C10.2650004,18.0589998 13.4910004,15.8619998 17.6110004,15.8619998 C18.4400004,15.8619998 19.2310004,15.9549998 19.9680004,16.1199998 C20.6720004,16.2779998 21.3240004,16.5039998 21.9100004,16.7889998 C22.8140004,17.2269998 23.5630004,17.7999998 24.0890004,18.4719998 C24.2580004,18.4759998 24.2580004,18.4759998 24.0890004,18.4719998 C24.3820004,18.8459998 24.6010004,19.2519998 24.7480004,19.6789998 C24.8790004,20.0589998 24.9550004,20.4549998 24.9550004,20.8659998 C24.9550004,21.8779998 24.5310004,22.8079998 23.8020004,23.5869998 C22.8310004,23.5759998 21.9970004,23.4019998 21.3350004,23.1449998 C22.4090004,22.5669998 23.0950004,21.7529998 23.0950004,20.8659998 C23.0950004,20.4659998 22.9520004,20.0829998 22.7020004,19.7269998 C22.4500004,19.3689998 22.0850004,19.0419998 21.6320004,18.7589998 C20.9350004,18.3239998 20.0360004,17.9979998 19.0270004,17.8369998 C18.5730004,17.7649998 18.0990004,17.7219998 17.6110004,17.7219998 C17.4830004,17.7219998 17.3570004,17.7279998 17.2300004,17.7339998 C14.4270004,17.8499998 12.1240004,19.2349998 12.1240004,20.8659998 C12.1240004,22.2389998 13.7590004,23.4399998 15.9500004,23.8539998 C16.3480004,24.6119998 16.9410004,25.2919998 17.6900004,25.8659998 C17.6630004,25.8669998 17.6380004,25.8689998 17.6110004,25.8689998 M23.8910004,15.4439998 C23.2560004,15.4439998 22.6410004,15.4949998 22.0480004,15.5859998 L22.0480004,15.5859998 C21.4140004,15.3099998 20.7270004,15.0909998 19.9930004,14.9409998 C19.9580004,14.9329998 19.9220004,14.9279998 19.8860004,14.9209998 C19.5840004,14.8619998 19.2750004,14.8159998 18.9600004,14.7809998 C18.8760004,14.7719998 18.7920004,14.7619998 18.7070004,14.7539998 C18.3480004,14.7219998 17.9840004,14.6999998 17.6110004,14.6999998 C12.8380004,14.6999998 9.10000038,17.4079998 9.10000038,20.8659998 C9.10000038,24.3229998 12.8380004,27.0319998 17.6110004,27.0319998 C18.2450004,27.0319998 18.8580004,26.9809998 19.4490004,26.8899998 C20.7360004,27.4509998 22.2490004,27.7769998 23.8910004,27.7769998 C28.6600004,27.7769998 32.3980004,25.0689998 32.3980004,21.6099998 C32.3980004,18.1519998 28.6600004,15.4439998 23.8910004,15.4439998"  fill="#323C42"></path>
            </g>
        </g>
    </g>
</svg>