<?xml version="1.0" encoding="UTF-8" standalone="no"?>
<svg width="40px" height="40px" viewBox="1 1 30 30" version="1.1" xmlns="http://www.w3.org/2000/svg" xmlns:xlink="http://www.w3.org/1999/xlink">
    <!-- Generator: Sketch 39.1 (31720) - http://www.bohemiancoding.com/sketch -->
    <title>{{ include.caption }}</title>
    <desc>Created with Sketch.</desc>
    <defs>
        <circle id="path-1" cx="21" cy="21" r="21"></circle>
        <mask id="mask-2" maskContentUnits="userSpaceOnUse" maskUnits="objectBoundingBox" x="0" y="0" width="40" height="40" fill="white">
            <use xlink:href="#path-1"></use>
        </mask>
    </defs>
    <g id="Page-1" stroke="none" stroke-width="1" fill="none" fill-rule="evenodd">
        <g id="Artboard" transform="translate(-306.000000, -528.000000)">
            <g id="Group-4-Copy" transform="translate(306.000000, 528.000000)">
                <use id="Oval" stroke="#323C42" mask="url(#mask-2)" stroke-width="3" fill="#323C42" xlink:href="#path-1"></use>
                <path d="M14.0802366,22.1994955 C13.3017033,22.1994955 12.6708917,22.8342446 12.6708917,23.6176375 C12.6708917,24.4010304 13.3017033,25.0357796 14.0802366,25.0357796 C14.8579714,25.0357796 15.4895815,24.4010304 15.4895815,23.6176375 C15.4895815,22.8342446 14.8579714,22.1994955 14.0802366,22.1994955 L14.0802366,22.1994955 Z M14.0802366,24.219444 C13.7496594,24.219444 13.4821633,23.9502782 13.4821633,23.6176375 C13.4821633,23.2858003 13.7496594,23.0166346 14.0802366,23.0166346 C14.4100153,23.0166346 14.6775114,23.2858003 14.6775114,23.6176375 C14.6775114,23.9502782 14.4100153,24.219444 14.0802366,24.219444 L14.0802366,24.219444 Z"  fill="#FFFFFF"></path>
                <path d="M19.8853002,22.1994955 C19.1067669,22.1994955 18.4751568,22.8342446 18.4751568,23.6176375 C18.4751568,24.4010304 19.1067669,25.0357796 19.8853002,25.0357796 C20.663035,25.0357796 21.294645,24.4010304 21.294645,23.6176375 C21.294645,22.8342446 20.6638335,22.1994955 19.8853002,22.1994955 L19.8853002,22.1994955 Z M19.8853002,24.219444 C19.5555215,24.219444 19.2872269,23.9502782 19.2872269,23.6176375 C19.2872269,23.2858003 19.554723,23.0166346 19.8853002,23.0166346 C20.2150789,23.0166346 20.4833734,23.2858003 20.4833734,23.6176375 C20.4825749,23.9502782 20.2150789,24.219444 19.8853002,24.219444 L19.8853002,24.219444 Z" id="Fill-2" fill="#FFFFFF"></path>
                <path d="M27.2602062,13.0759812 C26.9919117,12.6814725 26.5200007,12.4998861 25.9594568,12.4998861 L24.7185945,12.4998861 C24.2410941,12.0764522 23.8626071,11.8008586 23.4034721,11.2368157 C23.0577235,10.8125783 22.0612009,10.9234585 21.5469697,10.663131 C19.9284189,9.84277802 18.8384723,8.92199005 16.9835669,9.41854063 C16.2361749,9.61860713 15.7682565,9.79939011 14.9937157,9.71823864 C14.0323269,9.61780365 12.9264104,9.81867362 12.2181447,10.6221535 C12.0480651,10.8149887 9.69489836,12.0764522 9.79071784,12.4998861 L7.98132664,12.4998861 C7.42637214,12.4998861 6.9544612,12.6814725 6.68616665,13.0759812 C6.43144653,13.4504028 6.38752927,13.9107968 6.5655938,14.3872604 L9.54717666,22.3650124 C9.87535838,23.2416089 10.8902464,23.9277808 11.8652096,23.9277808 L11.886769,23.9277808 L11.87559,22.8695977 L11.8644111,22.8695977 C11.337404,22.8695977 10.7297488,22.439736 10.5588707,21.9833594 L7.57728782,13.9943587 C7.54694499,13.9124037 7.50622171,13.7902748 7.57888482,13.683412 C7.64356297,13.5877979 7.79926962,13.5580691 7.9877146,13.5580691 L25.9530688,13.5580691 C26.1479018,13.5580691 26.3028099,13.5797631 26.3682866,13.6753772 C26.4401512,13.7814365 26.3994279,13.9148142 26.3690851,13.9967691 L23.3867037,21.959255 C23.2150271,22.4188455 22.6097674,22.8286203 22.0707828,22.8254063 L22.0596039,23.9277808 L22.0811633,23.9277808 C23.0561265,23.9277808 24.0710145,23.2279498 24.3983977,22.3521567 L27.3807791,14.3969021 C27.5588436,13.921242 27.5149264,13.4504028 27.2602062,13.0759812"  fill="#FFFFFF"></path>
                <path d="M17.3093531,23.080913 L16.49888,23.080913 C16.2002426,23.080913 15.9582984,23.3099047 15.9582984,23.6104062 C15.9582984,23.9109077 16.2002426,24.139096 16.49888,24.139096 L17.3093531,24.139096 C17.6079905,24.139096 17.8499347,23.9109077 17.8499347,23.6104062 C17.8499347,23.3099047 17.6079905,23.080913 17.3093531,23.080913"  fill="#FFFFFF"></path>
            </g>
        </g>
    </g>
</svg>