<?xml version="1.0" encoding="UTF-8" standalone="no"?>
<svg width="40px" height="41px" viewBox="2 2 30 31" version="1.1" xmlns="http://www.w3.org/2000/svg" xmlns:xlink="http://www.w3.org/1999/xlink">
    <!-- Generator: Sketch 39.1 (31720) - http://www.bohemiancoding.com/sketch -->
    <title>{{ include.caption }}</title>
    <desc>Created with Sketch.</desc>
    <defs>
        <circle id="path-1" cx="17" cy="17" r="17"></circle>
    </defs>
    <g id="Home,-Level-2,-etc" stroke="none" stroke-width="1" fill="none" fill-rule="evenodd">
        <g id="Artboard" transform="translate(-256.000000, -19.000000)">
            <g id="btn-icon-iron" transform="translate(256.000000, 19.000000)">
                <mask id="mask-2" fill="white">
                    <use xlink:href="#path-1"></use>
                </mask>
                <g id="path-1"></g>
                <circle id="path-1" stroke="#1C2326" stroke-width="3" fill="#1C2326" mask="url(#mask-2)" cx="17" cy="17" r="17"></circle>
                <path d="M19.8910004,22.6149998 C19.0600004,22.6149998 18.2680004,22.5219998 17.5290004,22.3559998 C16.8260004,22.1979998 16.1760004,21.9719998 15.5900004,21.6869998 C14.6860004,21.2479998 13.9380004,20.6759998 13.4110004,20.0029998 C13.1180004,19.6289998 12.9000004,19.2229998 12.7530004,18.7959998 C12.6220004,18.4159998 12.5450004,18.0209998 12.5450004,17.6099998 C12.5450004,16.5989998 12.9690004,15.6689998 13.6980004,14.8899998 C14.6680004,14.8999998 15.5020004,15.0749998 16.1630004,15.3309998 C15.0890004,15.9089998 14.4040004,16.7219998 14.4040004,17.6099998 C14.4040004,18.0089998 14.5460004,18.3929998 14.7960004,18.7479998 C15.0480004,19.1069998 15.4140004,19.4339998 15.8660004,19.7169998 C16.5630004,20.1529998 17.4640004,20.4789998 18.4720004,20.6399998 C18.9270004,20.7129998 19.4020004,20.7549998 19.8910004,20.7549998 C20.0170004,20.7549998 20.1420004,20.7489998 20.2660004,20.7439998 C23.0700004,20.6279998 25.3750004,19.2409998 25.3750004,17.6099998 C25.3750004,16.2349998 23.7390004,15.0339998 21.5470004,14.6199998 C21.1500004,13.8629998 20.5560004,13.1829998 19.8070004,12.6089998 C19.8350004,12.6089998 19.8630004,12.6059998 19.8910004,12.6059998 C24.0110004,12.6059998 27.2350004,14.8049998 27.2350004,17.6099998 C27.2350004,20.4159998 24.0110004,22.6149998 19.8910004,22.6149998 M11.4820004,18.5349998 C10.0950004,18.1119998 9.2870004,17.3519998 9.2870004,16.8659998 C9.2870004,16.3069998 10.3480004,15.3859998 12.1390004,15.0349998 C11.6550004,15.8159998 11.3800004,16.6839998 11.3800004,17.6099998 C11.3800004,17.9259998 11.4210004,18.2329998 11.4820004,18.5349998 M16.0940004,18.4229998 C15.7600004,18.1329998 15.5670004,17.8399998 15.5670004,17.6099998 C15.5670004,17.1649998 16.2330004,16.4889998 17.4040004,16.0519998 C17.7380004,16.3419998 17.9320004,16.6349998 17.9320004,16.8659998 C17.9320004,17.3099998 17.2650004,17.9869998 16.0940004,18.4229998 M24.2120004,17.6099998 C24.2120004,18.1689998 23.1490004,19.0909998 21.3580004,19.4429998 C21.8430004,18.6619998 22.1180004,17.7919998 22.1180004,16.8659998 L22.1180004,16.8659998 C22.1180004,16.5489998 22.0770004,16.2419998 22.0160004,15.9399998 C23.4030004,16.3619998 24.2120004,17.1229998 24.2120004,17.6099998 M13.6110004,21.8689998 C9.4910004,21.8689998 6.2650004,19.6719998 6.2650004,16.8659998 C6.2650004,14.0589998 9.4910004,11.8619998 13.6110004,11.8619998 C14.4400004,11.8619998 15.2310004,11.9549998 15.9680004,12.1199998 C16.6720004,12.2779998 17.3240004,12.5039998 17.9100004,12.7889998 C18.8140004,13.2269998 19.5630004,13.7999998 20.0890004,14.4719998 C20.2580004,14.4759998 20.2580004,14.4759998 20.0890004,14.4719998 C20.3820004,14.8459998 20.6010004,15.2519998 20.7480004,15.6789998 C20.8790004,16.0589998 20.9550004,16.4549998 20.9550004,16.8659998 C20.9550004,17.8779998 20.5310004,18.8079998 19.8020004,19.5869998 C18.8310004,19.5759998 17.9970004,19.4019998 17.3350004,19.1449998 C18.4090004,18.5669998 19.0950004,17.7529998 19.0950004,16.8659998 C19.0950004,16.4659998 18.9520004,16.0829998 18.7020004,15.7269998 C18.4500004,15.3689998 18.0850004,15.0419998 17.6320004,14.7589998 C16.9350004,14.3239998 16.0360004,13.9979998 15.0270004,13.8369998 C14.5730004,13.7649998 14.0990004,13.7219998 13.6110004,13.7219998 C13.4830004,13.7219998 13.3570004,13.7279998 13.2300004,13.7339998 C10.4270004,13.8499998 8.1240004,15.2349998 8.1240004,16.8659998 C8.1240004,18.2389998 9.7590004,19.4399998 11.9500004,19.8539998 C12.3480004,20.6119998 12.9410004,21.2919998 13.6900004,21.8659998 C13.6630004,21.8669998 13.6380004,21.8689998 13.6110004,21.8689998 M19.8910004,11.4439998 C19.2560004,11.4439998 18.6410004,11.4949998 18.0480004,11.5859998 L18.0480004,11.5859998 C17.4140004,11.3099998 16.7270004,11.0909998 15.9930004,10.9409998 C15.9580004,10.9329998 15.9220004,10.9279998 15.8860004,10.9209998 C15.5840004,10.8619998 15.2750004,10.8159998 14.9600004,10.7809998 C14.8760004,10.7719998 14.7920004,10.7619998 14.7070004,10.7539998 C14.3480004,10.7219998 13.9840004,10.6999998 13.6110004,10.6999998 C8.8380004,10.6999998 5.10000038,13.4079998 5.10000038,16.8659998 C5.10000038,20.3229998 8.8380004,23.0319998 13.6110004,23.0319998 C14.2450004,23.0319998 14.8580004,22.9809998 15.4490004,22.8899998 C16.7360004,23.4509998 18.2490004,23.7769998 19.8910004,23.7769998 C24.6600004,23.7769998 28.3980004,21.0689998 28.3980004,17.6099998 C28.3980004,14.1519998 24.6600004,11.4439998 19.8910004,11.4439998"  fill="#FFFFFF" mask="url(#mask-2)"></path>
            </g>
        </g>
    </g>
</svg>