<?xml version="1.0" encoding="UTF-8" standalone="no"?>
<svg x="{{ include.x }}" y="{{ include.y }}" width="40px" height="40px" viewBox="1 1 30 30" version="1.1" xmlns="http://www.w3.org/2000/svg" xmlns:xlink="http://www.w3.org/1999/xlink">
    <!-- Generator: Sketch 39.1 (31720) - http://www.bohemiancoding.com/sketch -->
    <title>{{ include.caption }}</title>
    <desc>Created with Sketch.</desc>
    <defs>
        <circle id="path-1" cx="17" cy="17" r="17"></circle>
        <mask id="mask-2" maskContentUnits="userSpaceOnUse" maskUnits="objectBoundingBox" x="0" y="0" width="40" height="40" fill="white">
            <use xlink:href="#path-1"></use>
        </mask>
    </defs>
    <g id="Page-1" stroke="none" stroke-width="1" fill="none" fill-rule="evenodd">
        <g id="Artboard" transform="translate(-408.000000, -419.000000)">
            <g id="Group-3" transform="translate(408.000000, 419.000000)">
                <use id="Oval" stroke="#323C42" mask="url(#mask-2)" stroke-width="3" fill="#FFFFFF" xlink:href="#path-1"></use>
                <path d="M17.1319298,27.8370172 C11.1765415,27.8370172 6.33289529,22.9915559 6.33289529,17.033936 C6.33289529,11.076316 11.1765415,6.23085477 17.1319298,6.23085477 C23.0873181,6.23085477 27.9309644,11.076316 27.9309644,17.033936 C27.9309644,22.9915559 23.0873181,27.8370172 17.1319298,27.8370172 L17.1319298,27.8370172 Z M17.1319298,7.44744148 C11.8481103,7.44744148 7.54902629,11.7481364 7.54902629,17.033936 C7.54902629,22.3197355 11.8481103,26.6204304 17.1319298,26.6204304 C22.4157494,26.6204304 26.7148334,22.3197355 26.7148334,17.033936 C26.7148334,11.7481364 22.4157494,7.44744148 17.1319298,7.44744148 L17.1319298,7.44744148 Z"  fill="#323C42"></path>
                <path d="M20.0826568,23.5241389 C19.8042864,22.7966236 19.4058686,22.5407748 18.9448175,22.2431549 C18.6699267,22.0656272 18.3880766,21.8846186 18.1410228,21.6078843 C17.7704421,21.1866912 17.1458483,20.4852828 17.4503161,19.808241 C17.7478245,19.1468634 18.657748,19.1468634 19.0004916,19.1468634 C19.2927806,19.1468634 19.4319659,18.9989237 19.4911196,18.9119003 C19.5676715,18.795289 19.5850696,18.6560516 19.5363548,18.5411807 C19.2945204,17.9598646 18.9656953,17.164471 19.2927806,16.5135362 C19.3902103,16.3168634 19.5850696,16.0679766 19.9643494,15.9200368 C19.8303836,15.5945694 19.4284862,15.0358794 19.2371065,14.7713283 C19.137937,14.6320909 19.0474666,14.5067773 18.9761342,14.3988683 C18.7134221,14.0055227 18.8926231,13.5843296 19.0648648,13.1788007 C19.3049593,12.6114083 19.4545835,12.1815128 19.1779528,11.7951291 C18.9656953,11.504471 18.1984367,11.050209 17.149328,10.9527428 C16.5125555,10.893567 15.2981643,10.9353382 14.2960306,11.880412 C13.1268746,12.9908302 13.4191636,15.5127675 14.1446667,16.8320417 C14.2438362,17.0147908 14.3517047,17.1783948 14.4491344,17.3315559 C14.8092762,17.8902459 15.3068634,18.6543111 14.6283354,19.5349876 C14.4230372,19.8030196 14.1620648,20.0432041 13.8767351,20.3042742 C13.2347432,20.8855903 12.5075003,21.543487 12.0760261,23.1273124 L10.8999109,22.8070664 C11.4253351,20.8803689 12.3700549,20.024059 13.0607617,19.4009716 C13.2869377,19.193856 13.4991952,19.007626 13.6627378,18.7935485 C13.7897443,18.6299446 13.8158416,18.5933948 13.4278627,17.9929335 C13.3130349,17.8171463 13.1929876,17.6274354 13.07642,17.4168388 C12.1577974,15.7459901 11.7802575,12.5853013 13.4609192,10.9962545 C14.4595733,10.0494403 15.8061904,9.60736154 17.2641558,9.73789659 C18.4994248,9.85450791 19.6651011,10.3923123 20.1626883,11.0815374 C20.8673136,12.0527182 20.4236607,13.0969987 20.1853059,13.6556887 C20.1574689,13.723567 20.1209328,13.8053689 20.0965754,13.8732472 L20.2270615,14.0612176 C20.9055895,15.004551 21.4066564,15.779059 21.1665619,16.4369556 C21.0552137,16.739797 20.8064201,16.952134 20.4619366,17.0391574 C20.3105727,17.2306088 20.5750246,17.8641389 20.6620154,18.0712545 C20.8673136,18.5638068 20.8081599,19.1311992 20.5036922,19.5854612 C20.1748671,20.0814944 19.6268252,20.3634501 19.0004916,20.3634501 C18.8787045,20.3634501 18.7830147,20.3686715 18.7082026,20.3773739 C18.7777952,20.4730996 18.8856638,20.608856 19.0526861,20.798567 C19.1883917,20.9517281 19.3797714,21.0753013 19.6042076,21.2180196 C20.1087541,21.543487 20.8029404,21.9890467 21.2204961,23.092503 L20.0826568,23.5241389" id="Fill-2" fill="#323C42"></path>
                <path d="M23.4196229,21.063118 C22.3183197,21.063118 21.4240546,20.1006395 21.4240546,18.9188622 C21.4240546,17.7353443 22.3183197,16.7746063 23.4196229,16.7746063 C24.0320379,16.7746063 24.6026974,17.0704858 24.983717,17.5874046 L24.0059407,18.311439 C23.8563166,18.1095448 23.6423193,17.9929335 23.4196229,17.9929335 C22.9898885,17.9929335 22.6401856,18.4089052 22.6401856,18.9188622 C22.6401856,19.4305596 22.9898885,19.8465313 23.4196229,19.8465313 C23.6684165,19.8465313 23.9050314,19.700332 24.0511759,19.4549261 L25.0950652,20.0849753 C24.7262243,20.6976199 24.0998907,21.063118 23.4196229,21.063118"  fill="#323C42"></path>
            </g>
        </g>
    </g>
</svg>
