<?xml version="1.0" encoding="UTF-8" standalone="no"?>
<svg width="129px" height="70px" viewBox="0 0 129 70" version="1.1" xmlns="http://www.w3.org/2000/svg" xmlns:xlink="http://www.w3.org/1999/xlink">
    <!-- Generator: Sketch 39.1 (31720) - http://www.bohemiancoding.com/sketch -->
    <title>Coal Icon</title>
    <desc>Coal Icon</desc>
    <defs></defs>
    <g id="how-main-icon-coal" stroke="none" stroke-width="1" fill="none" fill-rule="evenodd">
        <g transform="translate(-743.000000, -478.000000)" fill="#231F1F">
            <g transform="translate(743.000000, 478.000000)">
                <path d="M100.453922,51.5288257 L106.714591,51.5288257 L106.714591,45.2793394 L100.453922,45.2793394 L100.453922,51.5288257 Z M99.0293584,54.3728624 L108.139155,54.3728624 C108.925798,54.3728624 109.563718,53.736367 109.563718,52.950844 L109.563718,43.8573211 C109.563718,43.0720826 108.925798,42.4353028 108.139155,42.4353028 L99.0293584,42.4353028 C98.2424298,42.4353028 97.6047953,43.0720826 97.6047953,43.8573211 L97.6047953,52.950844 C97.6047953,53.736367 98.2424298,54.3728624 99.0293584,54.3728624 L99.0293584,54.3728624 Z" ></path>
                <path d="M119.704214,66.6841284 L64.1844311,66.6841284 L64.1844311,39.5716422 L91.9443223,21.311789 L119.704214,39.5716422 L119.704214,66.6841284 Z M61.3353049,38.8057431 L61.3353049,66.6841284 L41.693144,66.6841284 L31.6260415,17.4436147 L31.6260415,13.4571284 L71.7018506,31.2209817 L61.9760734,37.6183578 C61.5760561,37.8814312 61.3353049,38.3273761 61.3353049,38.8057431 L61.3353049,38.8057431 Z M8.45979644,66.6841284 L10.5197147,56.6091284 L33.4611637,49.6696789 L35.4282004,50.2646514 L38.7850409,66.6841284 L8.45979644,66.6841284 Z M13.1919101,43.5385046 L28.5489852,48.1839541 L11.1673211,53.4414404 L13.1919101,43.5385046 Z M32.674235,36.7947248 L34.6267412,46.3452844 L33.4611637,46.697945 L16.6980448,41.6273119 L32.674235,36.7947248 Z M15.7854697,30.8518257 L29.1407487,34.8917798 L14.0249946,39.4638532 L15.7854697,30.8518257 Z M18.2066571,19.0098257 L29.0381802,19.0098257 L31.8448544,32.7379908 L16.3578592,28.0532936 L18.2066571,19.0098257 Z M18.467922,16.165789 L28.7772002,16.165789 L28.7772002,2.8440367 L18.467922,2.8440367 L18.467922,16.165789 Z M31.6260415,5.60076147 L78.8372022,26.5274679 L74.5278988,29.3621193 L31.6260415,10.3454679 L31.6260415,5.60076147 Z M122.55334,66.6841284 L122.55334,38.8057431 C122.55334,38.3273761 122.312589,37.8814312 121.912571,37.6183578 L92.728117,18.4213945 C92.2528827,18.1085505 91.635762,18.1085505 91.1605277,18.4213945 L81.6632505,24.6683211 L31.6260415,2.48881651 L31.6260415,1.42201835 C31.6260415,0.636779817 30.9884071,0 30.2014784,0 L17.0433589,0 C16.2564303,0 15.6187958,0.636779817 15.6187958,1.42201835 L15.6187958,17.4436147 L5.55197825,66.6841284 L-0.000113965045,66.6841284 L-0.000113965045,69.5281651 L128.339345,69.5281651 L128.339345,66.6841284 L122.55334,66.6841284 Z" ></path>
                <path d="M77.1739963,51.5288257 L83.4346662,51.5288257 L83.4346662,45.2793394 L77.1739963,45.2793394 L77.1739963,51.5288257 Z M84.8592293,42.4353028 L75.7494332,42.4353028 C74.9625045,42.4353028 74.3248701,43.0720826 74.3248701,43.8573211 L74.3248701,52.950844 C74.3248701,53.736367 74.9625045,54.3728624 75.7494332,54.3728624 L84.8592293,54.3728624 C85.645873,54.3728624 86.2837924,53.736367 86.2837924,52.950844 L86.2837924,43.8573211 C86.2837924,43.0720826 85.645873,42.4353028 84.8592293,42.4353028 L84.8592293,42.4353028 Z" ></path>
            </g>
        </g>
    </g>
</svg>