<?xml version="1.0" encoding="utf-8"?>
<!-- Generator: Adobe Illustrator 21.0.2, SVG Export Plug-In . SVG Version: 6.00 Build 0)  -->
<svg version="1.1" id="Layer_1" xmlns="http://www.w3.org/2000/svg" xmlns:xlink="http://www.w3.org/1999/xlink" x="0px" y="0px"
	 viewBox="0 0 268 103" style="enable-background:new 0 0 268 103;" xml:space="preserve">
<style type="text/css">
	.st0{fill:#5C737F;}
	.st1{fill:none;}
	.st2{enable-background:new    ;}
</style>
<title>
	The U.S. ranks at or near the top worldwide in production of many natural resources. We are first in natural gas and oil, and second in coal and renewables.
	</title>
<desc>Created with Sketch.</desc>
<g id="Symbols">
	<g id="how-it-works-ribbon-graphic-copy">
		<g>
			<path id="Oil" class="st0" d="M102,96.7c0,0.6-0.1,1.2-0.3,1.8s-0.5,1-0.9,1.4s-0.8,0.7-1.3,0.9c-0.5,0.2-1.1,0.3-1.7,0.3
				s-1.2-0.1-1.7-0.3c-0.5-0.2-1-0.5-1.3-0.9c-0.4-0.4-0.7-0.9-0.9-1.4s-0.3-1.1-0.3-1.8c0-0.6,0.1-1.2,0.3-1.8s0.5-1,0.9-1.4
				s0.8-0.7,1.3-0.9c0.5-0.2,1.1-0.3,1.7-0.3s1.2,0.1,1.7,0.3c0.5,0.2,1,0.5,1.3,0.9c0.4,0.4,0.7,0.9,0.9,1.4S102,96.1,102,96.7
				L102,96.7z M100.8,96.7c0-0.5-0.1-1-0.2-1.4s-0.3-0.8-0.6-1.1c-0.3-0.3-0.6-0.5-1-0.7s-0.8-0.2-1.3-0.2s-0.9,0.1-1.3,0.2
				c-0.4,0.2-0.7,0.4-1,0.7c-0.3,0.3-0.5,0.6-0.6,1.1c-0.1,0.4-0.2,0.9-0.2,1.4s0.1,1,0.2,1.4s0.3,0.8,0.6,1.1
				c0.3,0.3,0.6,0.5,1,0.7s0.8,0.2,1.3,0.2s0.9-0.1,1.3-0.2c0.4-0.2,0.7-0.4,1-0.7c0.3-0.3,0.5-0.6,0.6-1.1
				C100.7,97.7,100.8,97.2,100.8,96.7L100.8,96.7z M104.6,94.9v6.1h-1.1v-6.1H104.6z M104.8,93c0,0.1,0,0.2-0.1,0.3
				c0,0.1-0.1,0.2-0.2,0.2s-0.2,0.1-0.2,0.2c-0.1,0-0.2,0.1-0.3,0.1c-0.1,0-0.2,0-0.3-0.1c-0.1,0-0.2-0.1-0.2-0.2s-0.1-0.2-0.2-0.2
				c0-0.1-0.1-0.2-0.1-0.3s0-0.2,0.1-0.3c0-0.1,0.1-0.2,0.2-0.2s0.2-0.1,0.2-0.2c0.1,0,0.2-0.1,0.3-0.1c0.1,0,0.2,0,0.3,0.1
				c0.1,0,0.2,0.1,0.2,0.2s0.1,0.2,0.2,0.2C104.8,92.8,104.8,92.9,104.8,93L104.8,93z M107.6,92.2v8.8h-1.1v-8.8H107.6z"/>
			<path id="Fill-2" class="st0" d="M119.9,64.7l-1.3-5.3c-0.1-0.6-0.7-1.2-1.3-1.4l-0.7-0.2c-0.8-0.3-1.7,0.2-1.9,1l-2.2,6.5
				l-24.1-7.8c-0.5-0.2-1,0.1-1.2,0.6c-0.1,0.4,0.1,0.9,0.4,1.1v17.7c-0.3,0.2-0.5,0.4-0.5,0.8v6.9l0,0h-4.4c-0.3,0-0.5,0.2-0.5,0.5
				s0.2,0.5,0.5,0.5h10.8c0.3,0,0.5-0.2,0.5-0.5s-0.2-0.5-0.5-0.5H89l0,0v-6.9c0-0.3-0.2-0.6-0.5-0.8V59.5l10.1,3.3l-1.1,12.8H97
				c-0.5,0-0.9,0.4-0.9,0.8l-0.7,8c0,0.3,0.1,0.5,0.2,0.7c0.2,0.2,0.4,0.3,0.7,0.3h11.1c0.5,0,0.9-0.4,0.9-0.9v-0.3l-0.7-7.8
				c0-0.5-0.4-0.8-0.9-0.8h-0.6l-0.9-10.7l6.6,2.1l-2.2,6.6c-0.1,0.4-0.1,0.8,0.1,1.2c0.2,0.4,0.5,0.6,0.9,0.8l0.7,0.2
				c0.2,0.1,0.4,0.1,0.6,0.1c0.5,0,1-0.2,1.3-0.5l4.2-3.5c0.4-0.3,0.8-0.9,0.9-1.4l1.4-4.2C120,65.9,120,65.2,119.9,64.7L119.9,64.7
				z M105.9,77.5l0.5,6.1h-9.1l0.5-6.1h0.6c0.5,0,0.9-0.4,0.9-0.8l1.1-13.1l2.9,0.9l1,12.2c0,0.5,0.4,0.8,0.9,0.8H105.9L105.9,77.5z
				 M118.1,65.8l-1.4,4.2c0,0.1-0.2,0.4-0.4,0.5l-4.2,3.5H112l0,0l-0.4-0.1l2.4-7.2l0,0l0,0l2.4-7.1l0.4,0.1l0.1,0.1l1.3,5.3
				C118.1,65.3,118.1,65.6,118.1,65.8L118.1,65.8z"/>
		</g>
		<g>
			<path id="Natural-gas" class="st0" d="M5.2,92.4c0.1,0,0.2,0,0.2,0c0.1,0,0.1,0.1,0.2,0.2l5,6.5c0-0.1,0-0.2,0-0.3
				c0-0.1,0-0.2,0-0.3v-6.1h1v8.6H11c-0.1,0-0.2,0-0.2,0c-0.1,0-0.1-0.1-0.2-0.2l-5-6.5c0,0.1,0,0.2,0,0.3c0,0.1,0,0.2,0,0.3v6.1h-1
				v-8.6H5.2z M18,101h-0.5c-0.1,0-0.2,0-0.3,0c-0.1,0-0.1-0.1-0.1-0.2l-0.1-0.6c-0.2,0.1-0.3,0.3-0.5,0.4s-0.3,0.2-0.5,0.3
				c-0.2,0.1-0.3,0.1-0.5,0.2c-0.2,0-0.4,0.1-0.6,0.1c-0.2,0-0.5,0-0.7-0.1s-0.4-0.2-0.5-0.3c-0.2-0.1-0.3-0.3-0.4-0.5
				c-0.1-0.2-0.1-0.4-0.1-0.7c0-0.2,0.1-0.5,0.2-0.7s0.3-0.4,0.6-0.6s0.7-0.3,1.2-0.4s1.1-0.2,1.7-0.2v-0.5c0-0.5-0.1-0.8-0.3-1.1
				c-0.2-0.2-0.5-0.4-0.9-0.4c-0.3,0-0.5,0-0.7,0.1s-0.3,0.1-0.5,0.2c-0.1,0.1-0.2,0.2-0.3,0.2c-0.1,0.1-0.2,0.1-0.3,0.1
				s-0.1,0-0.2-0.1s-0.1-0.1-0.1-0.1l-0.2-0.3c0.3-0.3,0.7-0.6,1.1-0.7c0.4-0.2,0.8-0.2,1.3-0.2c0.3,0,0.6,0.1,0.9,0.2
				s0.5,0.3,0.7,0.5s0.3,0.4,0.4,0.7c0.1,0.3,0.1,0.6,0.1,0.9L18,101L18,101z M15.2,100.3c0.2,0,0.4,0,0.5-0.1s0.3-0.1,0.4-0.2
				s0.3-0.2,0.4-0.3c0.1-0.1,0.2-0.2,0.4-0.3v-1.3c-0.5,0-0.9,0.1-1.3,0.1c-0.3,0.1-0.6,0.1-0.8,0.2s-0.4,0.2-0.5,0.4
				c-0.1,0.1-0.1,0.3-0.1,0.5s0,0.3,0.1,0.4s0.1,0.2,0.2,0.3c0.1,0.1,0.2,0.1,0.3,0.2C15,100.3,15.1,100.3,15.2,100.3L15.2,100.3z
				 M21.5,101.1c-0.5,0-0.8-0.1-1.1-0.4S20,100,20,99.5v-3.7h-0.7c-0.1,0-0.1,0-0.2-0.1c0,0-0.1-0.1-0.1-0.2v-0.4l1-0.1l0.2-1.9
				c0-0.1,0-0.1,0.1-0.1c0,0,0.1-0.1,0.2-0.1H21V95h1.7v0.8H21v3.6c0,0.3,0.1,0.4,0.2,0.6c0.1,0.1,0.3,0.2,0.5,0.2
				c0.1,0,0.2,0,0.3,0c0.1,0,0.2-0.1,0.2-0.1c0.1,0,0.1-0.1,0.2-0.1h0.1c0.1,0,0.1,0,0.1,0.1l0.3,0.5c-0.2,0.2-0.4,0.3-0.7,0.4
				C22,101,21.7,101.1,21.5,101.1L21.5,101.1z M25,94.9v3.9c0,0.5,0.1,0.8,0.3,1.1c0.2,0.3,0.5,0.4,1,0.4c0.3,0,0.6-0.1,0.9-0.2
				s0.5-0.4,0.8-0.6V95h1v6.1h-0.6c-0.2,0-0.2-0.1-0.3-0.2l-0.1-0.7c-0.3,0.3-0.6,0.5-0.9,0.7s-0.7,0.3-1.1,0.3
				c-0.3,0-0.6-0.1-0.9-0.2s-0.5-0.3-0.6-0.5c-0.2-0.2-0.3-0.4-0.4-0.7c-0.1-0.3-0.1-0.7-0.1-1v-3.9C24,94.9,25,94.9,25,94.9z
				 M30.8,101v-6.1h0.6c0.1,0,0.2,0,0.2,0.1s0.1,0.1,0.1,0.2l0.1,0.9c0.2-0.4,0.5-0.8,0.8-1s0.7-0.4,1.1-0.4c0.2,0,0.3,0,0.5,0.1
				c0.1,0,0.3,0.1,0.4,0.2l-0.1,0.8c0,0.1-0.1,0.1-0.2,0.1c-0.1,0-0.1,0-0.3-0.1c-0.1,0-0.3-0.1-0.5-0.1c-0.4,0-0.7,0.1-0.9,0.3
				c-0.3,0.2-0.5,0.5-0.6,0.9v3.9h-1.2C30.8,100.8,30.8,101,30.8,101z M39.8,101h-0.5c-0.1,0-0.2,0-0.3,0s-0.1-0.1-0.1-0.2l-0.1-0.6
				c-0.2,0.1-0.3,0.3-0.5,0.4s-0.3,0.2-0.5,0.3c-0.2,0.1-0.3,0.1-0.5,0.2c-0.2,0-0.4,0.1-0.6,0.1c-0.2,0-0.5,0-0.7-0.1
				s-0.4-0.2-0.5-0.3c-0.2-0.1-0.3-0.3-0.4-0.5c-0.1-0.2-0.1-0.4-0.1-0.7c0-0.2,0.1-0.5,0.2-0.7s0.3-0.4,0.6-0.6s0.7-0.3,1.2-0.4
				s1.1-0.2,1.7-0.2v-0.5c0-0.5-0.1-0.8-0.3-1.1c-0.2-0.2-0.5-0.4-0.9-0.4c-0.3,0-0.5,0-0.7,0.1s-0.3,0.1-0.5,0.2s-0.2,0.2-0.3,0.2
				c-0.1,0.1-0.2,0.1-0.3,0.1s-0.1,0-0.2-0.1s-0.1-0.1-0.1-0.1l-0.2-0.3c0.3-0.3,0.7-0.6,1.1-0.7c0.4-0.2,0.8-0.2,1.3-0.2
				c0.3,0,0.6,0.1,0.9,0.2c0.3,0.1,0.5,0.3,0.7,0.5s0.3,0.4,0.4,0.7c0.1,0.3,0.1,0.6,0.1,0.9L39.8,101L39.8,101z M37.1,100.3
				c0.2,0,0.4,0,0.5-0.1c0.2,0,0.3-0.1,0.4-0.2s0.3-0.2,0.4-0.3c0.1-0.1,0.2-0.2,0.4-0.3v-1.3c-0.5,0-0.9,0.1-1.3,0.1
				c-0.3,0.1-0.6,0.1-0.8,0.2s-0.4,0.2-0.5,0.4c-0.1,0.1-0.1,0.3-0.1,0.5s0,0.3,0.1,0.4s0.1,0.2,0.2,0.3c0.1,0.1,0.2,0.1,0.3,0.2
				C36.8,100.3,36.9,100.3,37.1,100.3L37.1,100.3z M42.7,92.2v8.8h-1.1v-8.8H42.7z M48.9,94.8c0.3,0,0.5,0,0.7,0.1s0.4,0.1,0.6,0.3
				h1.6v0.4c0,0.1-0.1,0.2-0.3,0.3H51c0.1,0.3,0.2,0.6,0.2,0.9s-0.1,0.6-0.2,0.8c-0.1,0.2-0.3,0.4-0.5,0.6s-0.4,0.3-0.7,0.4
				s-0.6,0.1-0.9,0.1c-0.3,0-0.6,0-0.8-0.1c-0.1,0.1-0.2,0.2-0.3,0.3c-0.1,0.1-0.1,0.2-0.1,0.3c0,0.1,0.1,0.3,0.2,0.3
				c0.1,0.1,0.3,0.1,0.5,0.2c0.2,0,0.4,0.1,0.7,0.1c0.2,0,0.5,0,0.7,0s0.5,0,0.7,0.1c0.2,0,0.5,0.1,0.7,0.2s0.3,0.2,0.5,0.4
				c0.1,0.2,0.2,0.4,0.2,0.7c0,0.3-0.1,0.5-0.2,0.8c-0.1,0.2-0.3,0.5-0.6,0.7c-0.2,0.2-0.5,0.3-0.9,0.5c-0.4,0.1-0.7,0.2-1.2,0.2
				c-0.4,0-0.8,0-1.2-0.1c-0.3-0.1-0.6-0.2-0.8-0.4c-0.2-0.1-0.4-0.3-0.5-0.5s-0.2-0.4-0.2-0.6c0-0.3,0.1-0.6,0.3-0.8
				c0.2-0.2,0.5-0.4,0.8-0.5c-0.2-0.1-0.3-0.2-0.4-0.3c-0.1-0.1-0.2-0.3-0.2-0.5c0-0.1,0-0.2,0-0.3c0-0.1,0.1-0.2,0.1-0.3
				c0.1-0.1,0.1-0.2,0.2-0.3s0.2-0.2,0.3-0.2c-0.3-0.2-0.5-0.4-0.7-0.7s-0.3-0.6-0.3-1c0-0.3,0.1-0.6,0.2-0.8
				c0.1-0.2,0.3-0.4,0.5-0.6s0.4-0.3,0.7-0.4S48.6,94.8,48.9,94.8L48.9,94.8z M50.8,101.3c0-0.2,0-0.3-0.1-0.4s-0.2-0.2-0.3-0.2
				c-0.1-0.1-0.3-0.1-0.5-0.1s-0.4,0-0.6-0.1c-0.2,0-0.4,0-0.6,0c-0.2,0-0.4,0-0.6-0.1c-0.2,0.1-0.4,0.2-0.6,0.4
				c-0.1,0.2-0.2,0.3-0.2,0.6c0,0.1,0,0.3,0.1,0.4s0.2,0.2,0.3,0.3c0.1,0.1,0.3,0.2,0.5,0.2c0.2,0.1,0.5,0.1,0.8,0.1s0.5,0,0.8-0.1
				s0.4-0.1,0.6-0.2c0.2-0.1,0.3-0.2,0.4-0.3C50.8,101.6,50.8,101.5,50.8,101.3L50.8,101.3z M48.9,98c0.2,0,0.4,0,0.6-0.1
				c0.2-0.1,0.3-0.1,0.4-0.3c0.1-0.1,0.2-0.2,0.3-0.4s0.1-0.3,0.1-0.5c0-0.4-0.1-0.7-0.3-0.9s-0.6-0.3-1-0.3s-0.8,0.1-1,0.3
				c-0.2,0.2-0.3,0.5-0.3,0.9c0,0.2,0,0.3,0.1,0.5s0.1,0.3,0.3,0.4c0.1,0.1,0.3,0.2,0.4,0.3C48.5,98,48.7,98,48.9,98L48.9,98z
				 M57.5,101H57c-0.1,0-0.2,0-0.3,0s-0.1-0.1-0.1-0.2l-0.1-0.6c-0.2,0.1-0.3,0.3-0.5,0.4s-0.3,0.2-0.5,0.3
				c-0.2,0.1-0.3,0.1-0.5,0.2c-0.2,0-0.4,0.1-0.6,0.1c-0.2,0-0.5,0-0.7-0.1s-0.4-0.2-0.5-0.3c-0.2-0.1-0.3-0.3-0.4-0.5
				c-0.1-0.2-0.1-0.4-0.1-0.7c0-0.2,0.1-0.5,0.2-0.7s0.3-0.4,0.6-0.6s0.7-0.3,1.2-0.4s1.1-0.2,1.7-0.2v-0.5c0-0.5-0.1-0.8-0.3-1.1
				c-0.2-0.2-0.5-0.4-0.9-0.4c-0.3,0-0.5,0-0.7,0.1S54.2,95.9,54,96s-0.2,0.2-0.3,0.2c-0.1,0.1-0.2,0.1-0.3,0.1s-0.1,0-0.2-0.1
				s-0.1-0.1-0.1-0.1L53,95.8c0.3-0.3,0.7-0.6,1.1-0.7c0.4-0.2,0.8-0.2,1.3-0.2c0.3,0,0.6,0.1,0.9,0.2c0.3,0.1,0.5,0.3,0.7,0.5
				s0.3,0.4,0.4,0.7c0.1,0.3,0.1,0.6,0.1,0.9V101z M54.7,100.3c0.2,0,0.4,0,0.5-0.1c0.2,0,0.3-0.1,0.4-0.2s0.3-0.2,0.4-0.3
				c0.1-0.1,0.2-0.2,0.4-0.3v-1.3c-0.5,0-0.9,0.1-1.3,0.1c-0.3,0.1-0.6,0.1-0.8,0.2s-0.4,0.2-0.5,0.4c-0.1,0.1-0.1,0.3-0.1,0.5
				s0,0.3,0.1,0.4s0.1,0.2,0.2,0.3c0.1,0.1,0.2,0.1,0.3,0.2C54.4,100.3,54.5,100.3,54.7,100.3L54.7,100.3z M62.6,95.9
				c0,0.1-0.1,0.1-0.2,0.1c-0.1,0-0.1,0-0.2-0.1s-0.2-0.1-0.3-0.1s-0.2-0.1-0.4-0.2s-0.3-0.1-0.5-0.1s-0.3,0-0.5,0.1
				s-0.3,0.1-0.4,0.2c-0.1,0.1-0.2,0.2-0.2,0.3c-0.1,0.1-0.1,0.2-0.1,0.3c0,0.2,0,0.3,0.1,0.4s0.2,0.2,0.4,0.3
				c0.1,0.1,0.3,0.1,0.5,0.2s0.4,0.1,0.6,0.2s0.4,0.1,0.6,0.2c0.2,0.1,0.4,0.2,0.5,0.3c0.1,0.1,0.3,0.3,0.4,0.4S63,98.8,63,99
				c0,0.3,0,0.5-0.2,0.8c-0.1,0.2-0.2,0.4-0.4,0.6s-0.4,0.3-0.7,0.4s-0.6,0.2-1,0.2s-0.8-0.1-1.2-0.2s-0.6-0.3-0.9-0.5l0.3-0.4
				c0-0.1,0.1-0.1,0.1-0.1s0.1,0,0.2,0c0.1,0,0.1,0,0.2,0.1c0.1,0.1,0.2,0.1,0.3,0.2s0.3,0.1,0.4,0.2c0.2,0.1,0.4,0.1,0.6,0.1
				c0.2,0,0.4,0,0.5-0.1c0.2-0.1,0.3-0.1,0.4-0.2s0.2-0.2,0.2-0.3c0-0.1,0.1-0.2,0.1-0.4c0-0.2,0-0.3-0.1-0.4s-0.2-0.2-0.4-0.3
				c-0.1-0.1-0.3-0.1-0.5-0.2s-0.4-0.1-0.6-0.2c-0.2-0.1-0.4-0.1-0.6-0.2c-0.2-0.1-0.4-0.2-0.5-0.3c-0.1-0.1-0.3-0.3-0.4-0.5
				c-0.1-0.2-0.1-0.4-0.1-0.7c0-0.2,0-0.5,0.1-0.7s0.2-0.4,0.4-0.6s0.4-0.3,0.7-0.4s0.6-0.1,0.9-0.1c0.4,0,0.8,0.1,1.1,0.2
				s0.6,0.3,0.8,0.5L62.6,95.9z"/>
			<path class="st0" d="M44.2,71.9c1.1-7.6-6-15.9-9-19.5c-0.3-0.4-0.8-0.6-1.2-0.6c-0.2,0-0.5,0-0.7,0.2c-0.7,0.3-1,1-0.9,1.7
				c1,5.3,0.5,8.1-0.3,9.1c-0.1,0.1-0.2,0.3-0.4,0.3c-0.1,0-0.4-0.1-0.6-0.4c-0.5-0.6-0.7-1.5-0.5-2.4c0-0.1,0-0.2,0-0.4
				c0-0.8-0.7-1.5-1.5-1.6H29l0,0c-0.3,0-0.5,0.1-0.8,0.3c-0.1,0.1-0.2,0.2-0.3,0.3l0,0c-3.7,4.3-5.3,9.3-4.7,13.5
				c0.4,2.6,1.6,4.7,3.6,6.4c-1.7,0.1-3.1,1.5-3.1,3.2c0,1.8,1.4,3.2,3.2,3.2h13.9c1.8,0,3.2-1.4,3.2-3.2s-1.4-3.2-3.2-3.2h-0.3
				C42.6,76.9,43.9,74.6,44.2,71.9L44.2,71.9z M29,59.9c-0.5,2.7,1.1,4.7,2.7,4.7c1.9,0,3.9-2.9,2.3-11.2
				c4.5,5.3,14.8,17.9,3.9,25.3c0,0,4-4.4-1.8-10.1c0.7,5.8-1.8,9.1-4.1,9.1c-1.4,0-2.8-1.4-3.1-4.3c-1,3.2-0.6,3.8-0.2,5.1
				C22.9,74.7,23.3,66.8,29,59.9L29,59.9z M42.3,82c0,0.9-0.7,1.6-1.6,1.6H26.8c-0.9,0-1.6-0.7-1.6-1.6s0.7-1.6,1.6-1.6h13.9
				C41.6,80.4,42.3,81.1,42.3,82L42.3,82z M34.1,78.8c0.5-0.3,1.1-0.7,1.5-1.2c0.9-1,1.6-2.4,2-4c0.7,2.4-0.7,3.9-0.8,4
				c-0.3,0.3-0.4,0.8-0.4,1.2H34.1L34.1,78.8z"/>
		</g>
		<g>
			<path id="Coal" class="st0" d="M164.3,99.2c0.1,0,0.1,0,0.2,0.1l0.5,0.5c-0.4,0.4-0.8,0.7-1.3,1c-0.5,0.2-1.1,0.3-1.8,0.3
				c-0.6,0-1.2-0.1-1.7-0.3c-0.5-0.2-0.9-0.5-1.3-0.9s-0.6-0.8-0.8-1.4s-0.3-1.1-0.3-1.8s0.1-1.2,0.3-1.8c0.2-0.5,0.5-1,0.9-1.4
				s0.8-0.7,1.4-0.9c0.5-0.2,1.1-0.3,1.8-0.3c0.6,0,1.2,0.1,1.6,0.3c0.5,0.2,0.9,0.5,1.2,0.8l-0.4,0.5l-0.1,0.1c0,0-0.1,0-0.2,0
				c-0.1,0-0.1,0-0.2-0.1s-0.1-0.1-0.2-0.1s-0.2-0.1-0.3-0.2s-0.2-0.1-0.4-0.2c-0.1-0.1-0.3-0.1-0.5-0.1s-0.4-0.1-0.7-0.1
				c-0.5,0-0.9,0.1-1.3,0.2c-0.4,0.2-0.7,0.4-1,0.7s-0.5,0.6-0.6,1.1c-0.2,0.4-0.2,0.9-0.2,1.4s0.1,1,0.2,1.4
				c0.2,0.4,0.4,0.8,0.6,1.1c0.3,0.3,0.6,0.5,0.9,0.7c0.4,0.2,0.8,0.2,1.2,0.2c0.3,0,0.5,0,0.7,0s0.4-0.1,0.6-0.1
				c0.2-0.1,0.3-0.1,0.5-0.2c0.1-0.1,0.3-0.2,0.5-0.4C164.2,99.3,164.3,99.2,164.3,99.2L164.3,99.2z M168.8,94.8
				c0.4,0,0.8,0.1,1.2,0.2s0.7,0.4,0.9,0.6s0.4,0.6,0.6,1c0.1,0.4,0.2,0.8,0.2,1.3s-0.1,0.9-0.2,1.3c-0.1,0.4-0.3,0.7-0.6,1
				s-0.6,0.5-0.9,0.6c-0.4,0.1-0.8,0.2-1.2,0.2s-0.8-0.1-1.2-0.2s-0.7-0.4-0.9-0.6s-0.4-0.6-0.6-1s-0.2-0.8-0.2-1.3s0.1-0.9,0.2-1.3
				s0.3-0.7,0.6-1s0.6-0.5,0.9-0.6S168.3,94.8,168.8,94.8L168.8,94.8z M168.8,100.3c0.6,0,1-0.2,1.3-0.6s0.4-1,0.4-1.7
				s-0.1-1.3-0.4-1.7c-0.3-0.4-0.7-0.6-1.3-0.6c-0.3,0-0.6,0.1-0.8,0.2s-0.4,0.3-0.6,0.5c-0.2,0.2-0.3,0.4-0.3,0.7
				c-0.1,0.3-0.1,0.6-0.1,1s0,0.7,0.1,1s0.2,0.5,0.3,0.7s0.3,0.3,0.6,0.4C168.2,100.2,168.5,100.3,168.8,100.3L168.8,100.3z
				 M177.5,101H177c-0.1,0-0.2,0-0.3,0s-0.1-0.1-0.1-0.2l-0.1-0.6c-0.2,0.1-0.3,0.3-0.5,0.4s-0.3,0.2-0.5,0.3
				c-0.2,0.1-0.3,0.1-0.5,0.2c-0.2,0-0.4,0.1-0.6,0.1c-0.2,0-0.5,0-0.7-0.1s-0.4-0.2-0.5-0.3c-0.2-0.1-0.3-0.3-0.4-0.5
				c-0.1-0.2-0.1-0.4-0.1-0.7c0-0.2,0.1-0.5,0.2-0.7s0.3-0.4,0.6-0.6s0.7-0.3,1.2-0.4s1.1-0.2,1.7-0.2v-0.5c0-0.5-0.1-0.8-0.3-1.1
				c-0.2-0.2-0.5-0.4-0.9-0.4c-0.3,0-0.5,0-0.7,0.1s-0.3,0.1-0.5,0.2c-0.1,0.1-0.2,0.2-0.3,0.2c-0.1,0.1-0.2,0.1-0.3,0.1
				s-0.1,0-0.2-0.1s-0.1-0.1-0.1-0.1l-0.2-0.3c0.3-0.3,0.7-0.6,1.1-0.7s0.8-0.2,1.3-0.2c0.3,0,0.6,0.1,0.9,0.2
				c0.3,0.1,0.5,0.3,0.7,0.5s0.3,0.4,0.4,0.7c0.1,0.3,0.1,0.6,0.1,0.9v3.8C177.4,101,177.5,101,177.5,101z M174.7,100.3
				c0.2,0,0.4,0,0.5-0.1c0.2,0,0.3-0.1,0.4-0.2s0.3-0.2,0.4-0.3s0.2-0.2,0.4-0.3v-1.3c-0.5,0-0.9,0.1-1.3,0.1
				c-0.3,0.1-0.6,0.1-0.8,0.2s-0.4,0.2-0.5,0.4c-0.1,0.1-0.1,0.3-0.1,0.5s0,0.3,0.1,0.4s0.1,0.2,0.2,0.3c0.1,0.1,0.2,0.1,0.3,0.2
				C174.4,100.3,174.6,100.3,174.7,100.3L174.7,100.3z M180.3,92.2v8.8h-1.1v-8.8H180.3z"/>
			<g id="Icon:-Coal-Copy" transform="translate(150.461538, 59.974359)">
				<path class="st0" d="M13.3,21C12,21,11,22,11,23.3s1,2.3,2.3,2.3s2.3-1,2.3-2.3S14.6,21,13.3,21L13.3,21z M13.3,24.2
					c-0.5,0-1-0.4-1-1c0-0.5,0.4-1,1-1c0.5,0,1,0.4,1,1C14.3,23.8,13.9,24.2,13.3,24.2L13.3,24.2z"/>
				<path id="Fill-2_1_" class="st0" d="M22.7,21c-1.3,0-2.3,1-2.3,2.3s1,2.3,2.3,2.3s2.3-1,2.3-2.3S24,21,22.7,21L22.7,21z
					 M22.7,24.2c-0.5,0-1-0.4-1-1c0-0.5,0.4-1,1-1c0.5,0,1,0.4,1,1C23.7,23.8,23.3,24.2,22.7,24.2L22.7,24.2z"/>
				<path class="st0" d="M34.6,6.2c-0.4-0.6-1.2-0.9-2.1-0.9h-2c-0.8-0.7-1.4-1.1-2.1-2c-0.6-0.7-2.2-0.5-3-0.9
					C22.8,1,21-0.5,18,0.3c-1.2,0.3-2,0.6-3.2,0.5c-1.6-0.2-3.3,0.2-4.5,1.5c-0.3,0.3-4.1,2.3-3.9,3H3.5c-0.9,0-1.7,0.3-2.1,0.9
					S0.9,7.6,1.2,8.4L6,21.2c0.5,1.4,2.2,2.5,3.7,2.5l0,0V22l0,0c-0.9,0-1.8-0.7-2.1-1.4L2.8,7.7c0-0.1-0.1-0.3,0-0.5
					C2.9,7.1,3.2,7,3.5,7h29c0.3,0,0.6,0,0.7,0.2c0.1,0.2,0.1,0.4,0,0.5l-4.8,12.8c-0.3,0.7-1.3,1.4-2.1,1.4v1.8l0,0
					c1.6,0,3.2-1.1,3.7-2.5l4.8-12.8C35.1,7.6,35.1,6.8,34.6,6.2"/>
				<path class="st0" d="M18.6,22.4h-1.3c-0.5,0-0.9,0.4-0.9,0.9s0.4,0.9,0.9,0.9h1.3c0.5,0,0.9-0.4,0.9-0.9S19,22.4,18.6,22.4"/>
			</g>
		</g>
		<g>
			<path id="Renewables" class="st0" d="M206.1,97.4v3.6h-1.2v-8.6h2.4c0.5,0,1,0.1,1.4,0.2s0.7,0.3,1,0.5s0.4,0.5,0.6,0.8
				c0.1,0.3,0.2,0.6,0.2,1c0,0.3,0,0.6-0.1,0.9s-0.2,0.5-0.4,0.7s-0.4,0.4-0.7,0.5s-0.6,0.3-0.9,0.3c0.1,0.1,0.3,0.2,0.4,0.4
				l2.5,3.4h-1c-0.2,0-0.4-0.1-0.5-0.2l-2.2-3.1c-0.1-0.1-0.1-0.2-0.2-0.2s-0.2-0.1-0.4-0.1h-0.9L206.1,97.4L206.1,97.4z
				 M206.1,96.6h1.2c0.3,0,0.6,0,0.9-0.1c0.3-0.1,0.5-0.2,0.6-0.3s0.3-0.3,0.4-0.5s0.1-0.4,0.1-0.7c0-0.5-0.2-0.9-0.5-1.2
				c-0.3-0.3-0.8-0.4-1.5-0.4H206v3.2H206.1z M214.7,94.8c0.4,0,0.7,0.1,1,0.2s0.6,0.3,0.8,0.5s0.4,0.5,0.5,0.9
				c0.1,0.3,0.2,0.7,0.2,1.2c0,0.2,0,0.3-0.1,0.3c0,0.1-0.1,0.1-0.2,0.1h-4c0,0.4,0.1,0.7,0.2,1c0.1,0.3,0.2,0.5,0.4,0.7
				s0.4,0.3,0.6,0.4c0.2,0.1,0.5,0.1,0.8,0.1s0.5,0,0.7-0.1s0.4-0.1,0.5-0.2s0.3-0.1,0.4-0.2c0.1-0.1,0.2-0.1,0.2-0.1
				c0.1,0,0.2,0,0.2,0.1l0.3,0.4c-0.1,0.2-0.3,0.3-0.5,0.4s-0.4,0.2-0.6,0.3c-0.2,0.1-0.4,0.1-0.7,0.2s-0.4,0.1-0.7,0.1
				c-0.4,0-0.8-0.1-1.2-0.2s-0.7-0.3-0.9-0.6c-0.3-0.3-0.5-0.6-0.6-1s-0.2-0.9-0.2-1.4c0-0.4,0.1-0.8,0.2-1.2s0.3-0.7,0.6-1
				s0.5-0.5,0.9-0.6S214.3,94.8,214.7,94.8L214.7,94.8z M214.8,95.6c-0.5,0-0.9,0.1-1.2,0.4s-0.5,0.7-0.6,1.2h3.3
				c0-0.2,0-0.5-0.1-0.7s-0.2-0.4-0.3-0.5c-0.1-0.2-0.3-0.3-0.5-0.3S215,95.6,214.8,95.6L214.8,95.6z M218.6,101v-6.1h0.6
				c0.2,0,0.2,0.1,0.3,0.2l0.1,0.7c0.3-0.3,0.6-0.5,0.9-0.7s0.7-0.3,1.1-0.3c0.3,0,0.6,0.1,0.9,0.2c0.3,0.1,0.5,0.3,0.6,0.5
				c0.2,0.2,0.3,0.4,0.4,0.7c0.1,0.3,0.1,0.6,0.1,0.9v3.9h-1.1v-3.9c0-0.5-0.1-0.8-0.3-1.1c-0.2-0.3-0.5-0.4-1-0.4
				c-0.3,0-0.6,0.1-0.9,0.2s-0.5,0.4-0.8,0.6v4.5h-0.9L218.6,101L218.6,101z M227.7,94.8c0.4,0,0.7,0.1,1,0.2s0.6,0.3,0.8,0.5
				s0.4,0.5,0.5,0.9c0.1,0.3,0.2,0.7,0.2,1.2c0,0.2,0,0.3-0.1,0.3s0,0.1-0.1,0.1h-4c0,0.4,0.1,0.7,0.2,1c0.1,0.3,0.2,0.5,0.4,0.7
				s0.4,0.3,0.6,0.4c0.2,0.1,0.5,0.1,0.8,0.1s0.5,0,0.7-0.1s0.4-0.1,0.5-0.2s0.3-0.1,0.4-0.2c0.1-0.1,0.2-0.1,0.2-0.1
				c0.1,0,0.2,0,0.2,0.1l0.3,0.4c-0.1,0.2-0.3,0.3-0.5,0.4s-0.4,0.2-0.6,0.3c-0.2,0.1-0.4,0.1-0.7,0.2c-0.2,0-0.4,0.1-0.7,0.1
				c-0.4,0-0.8-0.1-1.2-0.2s-0.7-0.3-0.9-0.6c-0.3-0.3-0.5-0.6-0.6-1s-0.2-0.9-0.2-1.4c0-0.4,0.1-0.8,0.2-1.2s0.3-0.7,0.6-1
				c0.2-0.3,0.5-0.5,0.9-0.6C226.9,94.9,227.3,94.8,227.7,94.8L227.7,94.8z M227.7,95.6c-0.5,0-0.9,0.1-1.2,0.4s-0.5,0.7-0.6,1.2
				h3.3c0-0.2,0-0.5-0.1-0.7s-0.2-0.4-0.3-0.5s-0.3-0.3-0.5-0.3S228,95.6,227.7,95.6L227.7,95.6z M230.8,94.9h0.8
				c0.1,0,0.2,0,0.2,0.1s0.1,0.1,0.1,0.2l1.2,3.9c0,0.1,0.1,0.3,0.1,0.4s0.1,0.3,0.1,0.4c0-0.1,0.1-0.3,0.1-0.4s0.1-0.3,0.1-0.4
				l1.3-3.9c0-0.1,0.1-0.1,0.1-0.2c0.1,0,0.1-0.1,0.2-0.1h0.5c0.1,0,0.1,0,0.2,0.1c0.1,0,0.1,0.1,0.1,0.2l1.3,3.9
				c0,0.1,0.1,0.3,0.1,0.4s0.1,0.3,0.1,0.4c0-0.1,0-0.3,0.1-0.4s0.1-0.3,0.1-0.4l1.2-3.9c0-0.1,0.1-0.1,0.1-0.2s0.1-0.1,0.2-0.1h0.8
				l-2,6.1H237c-0.1,0-0.2-0.1-0.2-0.2l-1.3-4.1c0-0.1-0.1-0.2-0.1-0.3c0-0.1,0-0.2-0.1-0.3c0,0.1,0,0.2-0.1,0.3s0,0.2-0.1,0.3
				l-1.4,4.1c0,0.1-0.1,0.2-0.2,0.2h-0.8L230.8,94.9z M245.2,101h-0.5c-0.1,0-0.2,0-0.3,0s-0.1-0.1-0.1-0.2l-0.1-0.6
				c-0.2,0.1-0.3,0.3-0.5,0.4s-0.3,0.2-0.5,0.3c-0.2,0.1-0.3,0.1-0.5,0.2c-0.2,0-0.4,0.1-0.6,0.1c-0.2,0-0.5,0-0.7-0.1
				s-0.4-0.2-0.5-0.3c-0.2-0.1-0.3-0.3-0.4-0.5c-0.1-0.2-0.1-0.4-0.1-0.7c0-0.2,0.1-0.5,0.2-0.7c0.1-0.2,0.3-0.4,0.6-0.6
				s0.7-0.3,1.2-0.4s1.1-0.2,1.7-0.2v-0.5c0-0.5-0.1-0.8-0.3-1.1c-0.2-0.2-0.5-0.4-0.9-0.4c-0.3,0-0.5,0-0.7,0.1s-0.3,0.1-0.5,0.2
				s-0.2,0.2-0.3,0.2s-0.2,0.1-0.3,0.1s-0.1,0-0.2-0.1s-0.1-0.1-0.1-0.1l-0.2-0.3c0.3-0.3,0.7-0.6,1.1-0.7s0.8-0.2,1.3-0.2
				c0.3,0,0.6,0.1,0.9,0.2c0.3,0.1,0.5,0.3,0.7,0.5s0.3,0.4,0.4,0.7c0.1,0.3,0.1,0.6,0.1,0.9v3.8C245.1,101,245.2,101,245.2,101z
				 M242.5,100.3c0.2,0,0.4,0,0.5-0.1c0.2,0,0.3-0.1,0.4-0.2s0.3-0.2,0.4-0.3c0.1-0.1,0.2-0.2,0.4-0.3v-1.3c-0.5,0-0.9,0.1-1.3,0.1
				c-0.3,0.1-0.6,0.1-0.8,0.2s-0.4,0.2-0.5,0.4c-0.1,0.1-0.1,0.3-0.1,0.5s0,0.3,0.1,0.4s0.1,0.2,0.2,0.3c0.1,0.1,0.2,0.1,0.3,0.2
				C242.2,100.3,242.3,100.3,242.5,100.3L242.5,100.3z M246.9,101v-8.8h1.1v3.6c0.3-0.3,0.5-0.5,0.9-0.7s0.7-0.3,1.1-0.3
				c0.4,0,0.7,0.1,1,0.2s0.5,0.3,0.7,0.6s0.4,0.6,0.5,1s0.2,0.8,0.2,1.3c0,0.4-0.1,0.9-0.2,1.3s-0.3,0.7-0.5,1s-0.5,0.5-0.8,0.7
				s-0.7,0.2-1.1,0.2c-0.4,0-0.7-0.1-1-0.2c-0.3-0.2-0.5-0.4-0.7-0.6l-0.1,0.6c0,0.2-0.1,0.2-0.3,0.2L246.9,101L246.9,101z
				 M249.6,95.7c-0.3,0-0.7,0.1-0.9,0.2c-0.3,0.2-0.5,0.4-0.7,0.7v2.9c0.2,0.3,0.4,0.4,0.6,0.6c0.2,0.1,0.5,0.2,0.8,0.2
				c0.6,0,1-0.2,1.3-0.6s0.5-1,0.5-1.7c0-0.4,0-0.7-0.1-1s-0.2-0.5-0.3-0.7s-0.3-0.3-0.5-0.4S249.9,95.7,249.6,95.7L249.6,95.7z
				 M254.8,92.2v8.8h-1.1v-8.8H254.8z M259,94.8c0.4,0,0.7,0.1,1,0.2s0.6,0.3,0.8,0.5c0.2,0.2,0.4,0.5,0.5,0.9
				c0.1,0.3,0.2,0.7,0.2,1.2c0,0.2,0,0.3-0.1,0.3c0,0.1-0.1,0.1-0.2,0.1h-4c0,0.4,0.1,0.7,0.2,1s0.2,0.5,0.4,0.7s0.4,0.3,0.6,0.4
				s0.5,0.1,0.8,0.1s0.5,0,0.7-0.1s0.4-0.1,0.5-0.2s0.3-0.1,0.4-0.2s0.2-0.1,0.2-0.1c0.1,0,0.2,0,0.2,0.1l0.3,0.4
				c-0.1,0.2-0.3,0.3-0.5,0.4s-0.4,0.2-0.6,0.3c-0.2,0.1-0.4,0.1-0.7,0.2s-0.4,0.1-0.7,0.1c-0.4,0-0.8-0.1-1.2-0.2
				c-0.4-0.1-0.7-0.3-0.9-0.6s-0.5-0.6-0.6-1s-0.2-0.9-0.2-1.4c0-0.4,0.1-0.8,0.2-1.2c0.1-0.4,0.3-0.7,0.6-1
				c0.2-0.3,0.5-0.5,0.9-0.6S258.6,94.8,259,94.8L259,94.8z M259.1,95.6c-0.5,0-0.9,0.1-1.2,0.4c-0.3,0.3-0.5,0.7-0.6,1.2h3.3
				c0-0.2,0-0.5-0.1-0.7s-0.2-0.4-0.3-0.5c-0.1-0.2-0.3-0.3-0.5-0.3S259.3,95.6,259.1,95.6L259.1,95.6z M266.4,95.9
				c0,0.1-0.1,0.1-0.2,0.1s-0.1,0-0.2-0.1c-0.1,0-0.2-0.1-0.3-0.1c-0.1-0.1-0.2-0.1-0.4-0.2s-0.3-0.1-0.5-0.1s-0.3,0-0.5,0.1
				c-0.1,0-0.3,0.1-0.4,0.2s-0.2,0.2-0.2,0.3c-0.1,0.1-0.1,0.2-0.1,0.3c0,0.2,0,0.3,0.1,0.4s0.2,0.2,0.4,0.3
				c0.1,0.1,0.3,0.1,0.5,0.2s0.4,0.1,0.6,0.2s0.4,0.1,0.6,0.2s0.4,0.2,0.5,0.3c0.1,0.1,0.3,0.3,0.4,0.4c0.1,0.2,0.1,0.4,0.1,0.6
				c0,0.3,0,0.5-0.1,0.8s-0.2,0.4-0.4,0.6c-0.2,0.2-0.4,0.3-0.7,0.4s-0.6,0.2-1,0.2s-0.8-0.1-1.2-0.2c-0.3-0.1-0.6-0.3-0.9-0.5
				l0.3-0.4c0-0.1,0.1-0.1,0.1-0.1s0.1,0,0.2,0s0.1,0,0.2,0.1s0.2,0.1,0.3,0.2s0.3,0.1,0.4,0.2s0.4,0.1,0.6,0.1s0.4,0,0.5-0.1
				s0.3-0.1,0.4-0.2s0.2-0.2,0.2-0.3s0.1-0.2,0.1-0.4c0-0.2,0-0.3-0.1-0.4s-0.2-0.2-0.4-0.3c-0.1-0.1-0.3-0.1-0.5-0.2
				s-0.4-0.1-0.6-0.2s-0.4-0.1-0.6-0.2s-0.4-0.2-0.5-0.3s-0.3-0.3-0.4-0.5s-0.1-0.4-0.1-0.7c0-0.2,0-0.5,0.1-0.7s0.2-0.4,0.4-0.6
				c0.2-0.2,0.4-0.3,0.7-0.4s0.6-0.1,0.9-0.1c0.4,0,0.8,0.1,1.1,0.2s0.6,0.3,0.8,0.5L266.4,95.9z"/>
			<g id="Icon:-Renewables-Copy" transform="translate(214.307692, 51.000000)">
				<path class="st0" d="M17.9,34.1c-0.4,0-0.8-0.4-0.8-0.8v-16c0-0.4,0.4-0.8,0.8-0.8s0.8,0.4,0.8,0.8v16
					C18.7,33.7,18.3,34.1,17.9,34.1"/>
				<path id="Fill-2_2_" class="st0" d="M17.9,18.1c-1.3,0-2.4-1.1-2.4-2.4s1.1-2.4,2.4-2.4s2.4,1.1,2.4,2.4S19.2,18.1,17.9,18.1
					L17.9,18.1z M17.9,14.9c-0.4,0-0.8,0.4-0.8,0.8s0.4,0.8,0.8,0.8s0.8-0.4,0.8-0.8C18.7,15.3,18.3,14.9,17.9,14.9L17.9,14.9z"/>
				<path class="st0" d="M17.9,11.7c-2,0-2.4-8.7-2.4-8.8c0-1.3,1.1-2.4,2.4-2.4s2.4,1.1,2.4,2.4C20.3,3,19.9,11.7,17.9,11.7
					L17.9,11.7z M17.9,2.1c-0.4,0-0.8,0.4-0.8,0.8c0,0.8,0.4,4.2,0.8,6.1c0.4-1.9,0.8-5.2,0.8-6.1C18.7,2.5,18.3,2.1,17.9,2.1
					L17.9,2.1z"/>
				<path class="st0" d="M6.8,24.3c-0.9,0-1.7-0.5-2.1-1.2c-0.6-1.2-0.2-2.6,0.9-3.3c0.7-0.4,5.9-2.7,7.7-2.7c0.6,0,0.9,0.3,1.1,0.5
					c1,1.8-6.4,6.3-6.5,6.4C7.6,24.2,7.2,24.3,6.8,24.3L6.8,24.3z M12.1,19c-1.9,0.6-5,1.9-5.6,2.3C6.1,21.5,6,22,6.2,22.4
					s0.7,0.5,1.1,0.3C7.9,22.2,10.6,20.3,12.1,19L12.1,19z"/>
				<path id="Fill-5" class="st0" d="M29.6,24.3L29.6,24.3c-0.4,0-0.8-0.1-1.2-0.3c-0.1,0-7.4-4.6-6.5-6.4c0.1-0.2,0.4-0.5,1.1-0.5
					c1.7,0,7,2.4,7.7,2.7c1.1,0.6,1.6,2.1,0.9,3.3C31.3,23.8,30.5,24.3,29.6,24.3L29.6,24.3z M24.3,18.9c1.4,1.3,4.1,3.2,4.9,3.7
					c0.4,0.2,0.9,0.1,1.1-0.3s0.1-0.9-0.3-1.1C29.4,20.9,26.3,19.5,24.3,18.9L24.3,18.9z"/>
				<path id="Fill-6" class="st0" d="M36.1,34.9H1.3c-0.4,0-0.8-0.4-0.8-0.8c0-0.4,0.4-0.8,0.8-0.8h34.8c0.4,0,0.8,0.4,0.8,0.8
					C36.9,34.5,36.5,34.9,36.1,34.9"/>
			</g>
		</g>
	</g>
</g>
<rect y="14" class="st1" width="268" height="28"/>
<g class="st2">
	<path class="st0" d="M16.2,24.5c0-0.1,0.1-0.2,0.1-0.3c0-0.1,0.1-0.2,0.1-0.3l5.6-9.3c0.1-0.1,0.1-0.1,0.2-0.2s0.1,0,0.2,0h0.7
		v13.4h-0.9V16.4c0-0.2,0-0.3,0-0.5l-5.6,9.4c-0.1,0.2-0.2,0.2-0.4,0.2h-0.2c-0.2,0-0.3-0.1-0.4-0.2L10,15.9c0,0.2,0,0.4,0,0.5v11.5
		H9.1V14.4h0.7c0.1,0,0.2,0,0.2,0s0.1,0.1,0.2,0.2l5.7,9.3C16.1,24.1,16.2,24.3,16.2,24.5z"/>
	<path class="st0" d="M33.3,27.8c-0.2,0-0.3-0.1-0.4-0.3l-0.1-1.2c-0.3,0.3-0.5,0.5-0.8,0.7c-0.3,0.2-0.6,0.4-0.9,0.5
		c-0.3,0.1-0.6,0.2-1,0.3C29.9,28,29.5,28,29.1,28c-0.3,0-0.7,0-1-0.1c-0.3-0.1-0.6-0.2-0.9-0.4c-0.2-0.2-0.4-0.4-0.6-0.8
		c-0.2-0.3-0.2-0.7-0.2-1.1c0-0.4,0.1-0.8,0.4-1.1c0.2-0.3,0.6-0.6,1.1-0.9s1.2-0.5,2-0.6c0.8-0.2,1.8-0.2,2.9-0.3v-1
		c0-0.9-0.2-1.5-0.6-2c-0.4-0.5-1-0.7-1.8-0.7c-0.5,0-0.9,0.1-1.2,0.2c-0.3,0.1-0.6,0.3-0.9,0.4c-0.2,0.2-0.4,0.3-0.6,0.4
		c-0.1,0.1-0.3,0.2-0.4,0.2c-0.1,0-0.2-0.1-0.3-0.2l-0.2-0.3c0.5-0.5,1.1-0.9,1.6-1.1c0.6-0.3,1.2-0.4,2-0.4c0.5,0,1,0.1,1.4,0.2
		c0.4,0.2,0.7,0.4,1,0.7c0.3,0.3,0.5,0.7,0.6,1.1c0.1,0.4,0.2,0.9,0.2,1.4v6.2H33.3z M29.3,27.3c0.4,0,0.7,0,1.1-0.1
		s0.6-0.2,0.9-0.3c0.3-0.1,0.5-0.3,0.8-0.5c0.2-0.2,0.5-0.4,0.7-0.6v-2.5c-1,0-1.8,0.1-2.5,0.2c-0.7,0.1-1.3,0.3-1.7,0.5
		c-0.4,0.2-0.8,0.4-1,0.7c-0.2,0.3-0.3,0.6-0.3,0.9c0,0.3,0.1,0.6,0.2,0.8c0.1,0.2,0.3,0.4,0.4,0.6c0.2,0.1,0.4,0.3,0.6,0.3
		C28.8,27.3,29,27.3,29.3,27.3z"/>
	<path class="st0" d="M38,18.4V29c0,0.3-0.1,0.6-0.2,0.9c-0.1,0.3-0.3,0.5-0.4,0.7c-0.2,0.2-0.4,0.4-0.7,0.5
		c-0.3,0.1-0.6,0.2-1.1,0.2c-0.2,0-0.4,0-0.5,0s-0.3-0.1-0.5-0.2l0.1-0.5c0-0.1,0.1-0.1,0.1-0.1c0.1,0,0.1,0,0.2,0s0.2,0,0.4,0
		c0.5,0,0.9-0.1,1.2-0.4C36.9,30,37,29.6,37,29V18.4H38z M38.4,15.1c0,0.1,0,0.2-0.1,0.3s-0.1,0.2-0.2,0.3c-0.1,0.1-0.2,0.1-0.3,0.2
		c-0.1,0-0.2,0.1-0.3,0.1s-0.2,0-0.3-0.1c-0.1,0-0.2-0.1-0.3-0.2c-0.1-0.1-0.1-0.2-0.2-0.3s-0.1-0.2-0.1-0.3c0-0.1,0-0.2,0.1-0.3
		s0.1-0.2,0.2-0.3c0.1-0.1,0.2-0.1,0.3-0.2c0.1,0,0.2-0.1,0.3-0.1s0.2,0,0.3,0.1c0.1,0,0.2,0.1,0.3,0.2s0.1,0.2,0.2,0.3
		S38.4,15,38.4,15.1z"/>
	<path class="st0" d="M45.3,18.2c0.7,0,1.4,0.1,1.9,0.3c0.6,0.2,1,0.6,1.4,1s0.7,0.9,0.9,1.5s0.3,1.3,0.3,2c0,0.7-0.1,1.4-0.3,2
		s-0.5,1.1-0.9,1.5s-0.9,0.8-1.4,1C46.6,27.9,46,28,45.3,28s-1.4-0.1-1.9-0.3c-0.6-0.2-1-0.6-1.4-1s-0.7-0.9-0.9-1.5s-0.3-1.3-0.3-2
		c0-0.7,0.1-1.4,0.3-2s0.5-1.1,0.9-1.5s0.9-0.8,1.4-1C43.9,18.4,44.6,18.2,45.3,18.2z M45.3,27.3c0.6,0,1.1-0.1,1.6-0.3
		c0.4-0.2,0.8-0.5,1.1-0.8s0.5-0.8,0.7-1.3c0.1-0.5,0.2-1.1,0.2-1.7c0-0.6-0.1-1.2-0.2-1.7c-0.1-0.5-0.4-1-0.7-1.3s-0.7-0.6-1.1-0.8
		c-0.4-0.2-1-0.3-1.6-0.3c-0.6,0-1.1,0.1-1.6,0.3c-0.4,0.2-0.8,0.5-1.1,0.8s-0.5,0.8-0.7,1.3c-0.2,0.5-0.2,1.1-0.2,1.7
		c0,0.6,0.1,1.2,0.2,1.7s0.4,0.9,0.7,1.3s0.7,0.6,1.1,0.8C44.2,27.2,44.7,27.3,45.3,27.3z"/>
	<path class="st0" d="M52.4,27.8v-9.5h0.5c0.1,0,0.2,0,0.2,0.1c0.1,0,0.1,0.1,0.1,0.2l0.1,2c0.3-0.8,0.8-1.4,1.3-1.8
		c0.5-0.4,1.2-0.7,2-0.7c0.3,0,0.6,0,0.8,0.1c0.3,0.1,0.5,0.1,0.7,0.3L58,19.2c0,0.1-0.1,0.2-0.2,0.2c0,0-0.1,0-0.2,0
		c-0.1,0-0.2-0.1-0.3-0.1s-0.2-0.1-0.4-0.1c-0.2,0-0.3,0-0.6,0c-0.8,0-1.4,0.2-1.9,0.7s-0.9,1.1-1.2,1.9v6.1H52.4z"/>
	<path class="st0" d="M70.8,19.7C70.8,19.7,70.8,19.7,70.8,19.7c-0.1,0.1-0.2,0.1-0.2,0.1c-0.1,0-0.2,0-0.3-0.1
		c-0.1-0.1-0.3-0.2-0.5-0.3c-0.2-0.1-0.4-0.2-0.7-0.3c-0.3-0.1-0.6-0.1-1.1-0.1c-0.6,0-1.1,0.1-1.5,0.3c-0.4,0.2-0.8,0.5-1.1,0.8
		c-0.3,0.4-0.5,0.8-0.7,1.3c-0.2,0.5-0.2,1.1-0.2,1.7c0,0.7,0.1,1.3,0.2,1.8c0.2,0.5,0.4,0.9,0.7,1.3c0.3,0.4,0.7,0.6,1.1,0.8
		c0.4,0.2,0.9,0.3,1.4,0.3c0.5,0,0.9-0.1,1.2-0.2c0.3-0.1,0.6-0.2,0.8-0.4c0.2-0.1,0.4-0.2,0.5-0.4c0.1-0.1,0.2-0.2,0.3-0.2
		c0.1,0,0.2,0,0.2,0.1l0.3,0.3c-0.2,0.2-0.3,0.4-0.6,0.5c-0.2,0.2-0.5,0.3-0.8,0.4c-0.3,0.1-0.6,0.2-1,0.3c-0.3,0.1-0.7,0.1-1.1,0.1
		c-0.6,0-1.2-0.1-1.7-0.3c-0.5-0.2-1-0.5-1.4-1c-0.4-0.4-0.7-0.9-0.9-1.5c-0.2-0.6-0.3-1.3-0.3-2.1c0-0.7,0.1-1.4,0.3-2
		c0.2-0.6,0.5-1.1,0.9-1.5c0.4-0.4,0.9-0.8,1.4-1c0.6-0.2,1.2-0.4,1.9-0.4c0.7,0,1.2,0.1,1.7,0.3c0.5,0.2,0.9,0.5,1.3,0.8L70.8,19.7
		z"/>
	<path class="st0" d="M77.2,18.2c0.7,0,1.4,0.1,1.9,0.3c0.6,0.2,1,0.6,1.4,1s0.7,0.9,0.9,1.5s0.3,1.3,0.3,2c0,0.7-0.1,1.4-0.3,2
		s-0.5,1.1-0.9,1.5s-0.9,0.8-1.4,1c-0.6,0.2-1.2,0.3-1.9,0.3s-1.4-0.1-1.9-0.3c-0.6-0.2-1-0.6-1.4-1s-0.7-0.9-0.9-1.5
		s-0.3-1.3-0.3-2c0-0.7,0.1-1.4,0.3-2s0.5-1.1,0.9-1.5s0.9-0.8,1.4-1C75.8,18.4,76.5,18.2,77.2,18.2z M77.2,27.3
		c0.6,0,1.1-0.1,1.6-0.3c0.4-0.2,0.8-0.5,1.1-0.8s0.5-0.8,0.7-1.3c0.1-0.5,0.2-1.1,0.2-1.7c0-0.6-0.1-1.2-0.2-1.7
		c-0.1-0.5-0.4-1-0.7-1.3s-0.7-0.6-1.1-0.8c-0.4-0.2-1-0.3-1.6-0.3c-0.6,0-1.1,0.1-1.6,0.3c-0.4,0.2-0.8,0.5-1.1,0.8
		s-0.5,0.8-0.7,1.3c-0.2,0.5-0.2,1.1-0.2,1.7c0,0.6,0.1,1.2,0.2,1.7s0.4,0.9,0.7,1.3s0.7,0.6,1.1,0.8C76.1,27.2,76.6,27.3,77.2,27.3
		z"/>
	<path class="st0" d="M84.3,27.8v-9.5h0.5c0.2,0,0.3,0.1,0.3,0.2l0.1,1.4c0.2-0.3,0.4-0.5,0.6-0.7s0.5-0.4,0.7-0.6
		c0.3-0.2,0.5-0.3,0.8-0.4s0.6-0.1,0.9-0.1c0.7,0,1.3,0.2,1.8,0.6c0.4,0.4,0.7,1,0.9,1.7c0.1-0.4,0.3-0.7,0.5-1
		c0.2-0.3,0.5-0.5,0.7-0.7c0.3-0.2,0.6-0.3,0.9-0.4s0.7-0.1,1-0.1c0.5,0,0.9,0.1,1.3,0.2c0.4,0.2,0.7,0.4,1,0.7
		c0.3,0.3,0.5,0.7,0.6,1.1c0.1,0.4,0.2,1,0.2,1.5v6h-1v-6c0-0.9-0.2-1.6-0.6-2.1c-0.4-0.5-1-0.7-1.8-0.7c-0.3,0-0.7,0.1-1,0.2
		c-0.3,0.1-0.6,0.3-0.8,0.5c-0.2,0.2-0.4,0.5-0.6,0.9c-0.1,0.4-0.2,0.8-0.2,1.2v6h-1v-6c0-0.9-0.2-1.6-0.6-2.1
		c-0.4-0.5-1-0.7-1.7-0.7c-0.5,0-1,0.2-1.5,0.5c-0.5,0.3-0.9,0.7-1.2,1.3v7.1H84.3z"/>
	<path class="st0" d="M100.3,27.8v-9.5h0.5c0.2,0,0.3,0.1,0.3,0.2l0.1,1.4c0.2-0.3,0.4-0.5,0.6-0.7s0.5-0.4,0.7-0.6
		c0.3-0.2,0.5-0.3,0.8-0.4s0.6-0.1,0.9-0.1c0.7,0,1.3,0.2,1.8,0.6c0.4,0.4,0.7,1,0.9,1.7c0.1-0.4,0.3-0.7,0.5-1
		c0.2-0.3,0.5-0.5,0.7-0.7c0.3-0.2,0.6-0.3,0.9-0.4s0.7-0.1,1-0.1c0.5,0,0.9,0.1,1.3,0.2c0.4,0.2,0.7,0.4,1,0.7
		c0.3,0.3,0.5,0.7,0.6,1.1c0.1,0.4,0.2,1,0.2,1.5v6h-1v-6c0-0.9-0.2-1.6-0.6-2.1c-0.4-0.5-1-0.7-1.8-0.7c-0.3,0-0.7,0.1-1,0.2
		c-0.3,0.1-0.6,0.3-0.8,0.5c-0.2,0.2-0.4,0.5-0.6,0.9c-0.1,0.4-0.2,0.8-0.2,1.2v6h-1v-6c0-0.9-0.2-1.6-0.6-2.1
		c-0.4-0.5-1-0.7-1.7-0.7c-0.5,0-1,0.2-1.5,0.5c-0.5,0.3-0.9,0.7-1.2,1.3v7.1H100.3z"/>
	<path class="st0" d="M120.1,18.2c0.7,0,1.4,0.1,1.9,0.3c0.6,0.2,1,0.6,1.4,1s0.7,0.9,0.9,1.5s0.3,1.3,0.3,2c0,0.7-0.1,1.4-0.3,2
		s-0.5,1.1-0.9,1.5s-0.9,0.8-1.4,1c-0.6,0.2-1.2,0.3-1.9,0.3s-1.4-0.1-1.9-0.3c-0.6-0.2-1-0.6-1.4-1s-0.7-0.9-0.9-1.5
		s-0.3-1.3-0.3-2c0-0.7,0.1-1.4,0.3-2s0.5-1.1,0.9-1.5s0.9-0.8,1.4-1C118.7,18.4,119.4,18.2,120.1,18.2z M120.1,27.3
		c0.6,0,1.1-0.1,1.6-0.3c0.4-0.2,0.8-0.5,1.1-0.8s0.5-0.8,0.7-1.3c0.1-0.5,0.2-1.1,0.2-1.7c0-0.6-0.1-1.2-0.2-1.7
		c-0.1-0.5-0.4-1-0.7-1.3s-0.7-0.6-1.1-0.8c-0.4-0.2-1-0.3-1.6-0.3c-0.6,0-1.1,0.1-1.6,0.3c-0.4,0.2-0.8,0.5-1.1,0.8
		s-0.5,0.8-0.7,1.3c-0.2,0.5-0.2,1.1-0.2,1.7c0,0.6,0.1,1.2,0.2,1.7s0.4,0.9,0.7,1.3s0.7,0.6,1.1,0.8
		C119,27.2,119.5,27.3,120.1,27.3z"/>
	<path class="st0" d="M134.3,27.8c-0.2,0-0.3-0.1-0.3-0.2l-0.1-1.5c-0.4,0.6-1,1-1.6,1.4c-0.6,0.3-1.3,0.5-2,0.5
		c-1.2,0-2.2-0.4-2.9-1.2s-1-2-1-3.6c0-0.7,0.1-1.3,0.3-1.9c0.2-0.6,0.5-1.1,0.8-1.6c0.4-0.4,0.8-0.8,1.4-1c0.5-0.3,1.2-0.4,1.9-0.4
		c0.7,0,1.3,0.1,1.8,0.4c0.5,0.2,0.9,0.6,1.3,1V14h1v13.8H134.3z M130.6,27.2c0.7,0,1.3-0.2,1.8-0.5c0.5-0.3,1-0.8,1.4-1.3v-5
		c-0.4-0.5-0.8-0.9-1.3-1.1c-0.5-0.2-1-0.3-1.6-0.3c-0.6,0-1.1,0.1-1.6,0.3c-0.4,0.2-0.8,0.5-1.1,0.9s-0.5,0.8-0.7,1.3
		c-0.2,0.5-0.2,1.1-0.2,1.7c0,1.4,0.3,2.4,0.8,3.1C128.8,26.9,129.6,27.2,130.6,27.2z"/>
	<path class="st0" d="M139.8,15.1c0,0.1,0,0.2-0.1,0.3c-0.1,0.1-0.1,0.2-0.2,0.3c-0.1,0.1-0.2,0.1-0.3,0.2c-0.1,0-0.2,0.1-0.3,0.1
		c-0.1,0-0.2,0-0.3-0.1c-0.1,0-0.2-0.1-0.3-0.2c-0.1-0.1-0.1-0.2-0.2-0.3s-0.1-0.2-0.1-0.3c0-0.1,0-0.2,0.1-0.3s0.1-0.2,0.2-0.3
		s0.2-0.1,0.3-0.2c0.1,0,0.2-0.1,0.3-0.1c0.1,0,0.2,0,0.3,0.1c0.1,0,0.2,0.1,0.3,0.2c0.1,0.1,0.1,0.2,0.2,0.3
		C139.8,14.9,139.8,15,139.8,15.1z M139.4,18.4v9.5h-1v-9.5H139.4z"/>
	<path class="st0" d="M145.7,28c-0.7,0-1.2-0.2-1.6-0.5c-0.4-0.4-0.6-0.9-0.6-1.6v-6.5h-1.4c-0.1,0-0.1,0-0.2-0.1s-0.1-0.1-0.1-0.2
		v-0.4l1.7-0.1l0.2-3.4c0-0.1,0-0.1,0.1-0.2c0,0,0.1-0.1,0.2-0.1h0.4v3.6h3.1v0.7h-3.1v6.4c0,0.3,0,0.5,0.1,0.7
		c0.1,0.2,0.2,0.3,0.3,0.5c0.1,0.1,0.3,0.2,0.4,0.3c0.2,0.1,0.3,0.1,0.5,0.1c0.2,0,0.4,0,0.6-0.1c0.2-0.1,0.3-0.1,0.5-0.2
		c0.1-0.1,0.2-0.2,0.3-0.2c0.1-0.1,0.1-0.1,0.2-0.1c0.1,0,0.1,0,0.2,0.1l0.3,0.4c-0.3,0.3-0.6,0.5-1,0.6S146.1,28,145.7,28z"/>
	<path class="st0" d="M151.8,15.1c0,0.1,0,0.2-0.1,0.3c0,0.1-0.1,0.2-0.2,0.3c-0.1,0.1-0.2,0.1-0.3,0.2c-0.1,0-0.2,0.1-0.3,0.1
		c-0.1,0-0.2,0-0.3-0.1c-0.1,0-0.2-0.1-0.3-0.2c-0.1-0.1-0.1-0.2-0.2-0.3s-0.1-0.2-0.1-0.3c0-0.1,0-0.2,0.1-0.3s0.1-0.2,0.2-0.3
		c0.1-0.1,0.2-0.1,0.3-0.2c0.1,0,0.2-0.1,0.3-0.1c0.1,0,0.2,0,0.3,0.1c0.1,0,0.2,0.1,0.3,0.2c0.1,0.1,0.1,0.2,0.2,0.3
		C151.8,14.9,151.8,15,151.8,15.1z M151.4,18.4v9.5h-1v-9.5H151.4z"/>
	<path class="st0" d="M158.7,18.2c0.6,0,1.1,0.1,1.6,0.3c0.5,0.2,0.9,0.5,1.2,0.8s0.6,0.8,0.8,1.3c0.2,0.5,0.3,1.1,0.3,1.8
		c0,0.1,0,0.2-0.1,0.3c0,0.1-0.1,0.1-0.2,0.1h-7.2v0.2c0,0.7,0.1,1.3,0.3,1.9c0.2,0.5,0.4,1,0.7,1.4c0.3,0.4,0.7,0.6,1.2,0.8
		c0.5,0.2,1,0.3,1.5,0.3c0.5,0,0.9-0.1,1.3-0.2s0.7-0.2,0.9-0.4c0.3-0.1,0.5-0.2,0.6-0.4c0.1-0.1,0.3-0.2,0.3-0.2
		c0.1,0,0.2,0,0.2,0.1l0.3,0.3c-0.2,0.2-0.4,0.4-0.6,0.5c-0.3,0.2-0.6,0.3-0.9,0.4s-0.7,0.2-1,0.3c-0.4,0.1-0.7,0.1-1.1,0.1
		c-0.7,0-1.3-0.1-1.9-0.3s-1-0.6-1.5-1s-0.7-1-0.9-1.6c-0.2-0.6-0.3-1.3-0.3-2.1c0-0.7,0.1-1.3,0.3-1.9c0.2-0.6,0.5-1.1,0.9-1.5
		c0.4-0.4,0.9-0.7,1.4-1C157.3,18.4,158,18.2,158.7,18.2z M158.7,18.9c-0.5,0-1,0.1-1.4,0.2c-0.4,0.2-0.8,0.4-1.1,0.7
		c-0.3,0.3-0.5,0.6-0.7,1c-0.2,0.4-0.3,0.8-0.4,1.3h6.6c0-0.5-0.1-1-0.2-1.4c-0.1-0.4-0.4-0.7-0.6-1c-0.3-0.3-0.6-0.5-1-0.6
		C159.6,19,159.1,18.9,158.7,18.9z"/>
	<path class="st0" d="M170.7,19.6c0,0.1-0.1,0.1-0.2,0.1c-0.1,0-0.2,0-0.3-0.1s-0.3-0.2-0.5-0.3s-0.4-0.2-0.7-0.3
		c-0.3-0.1-0.6-0.1-1-0.1c-0.4,0-0.7,0-1,0.1c-0.3,0.1-0.6,0.2-0.8,0.4c-0.2,0.2-0.4,0.4-0.5,0.6c-0.1,0.2-0.2,0.4-0.2,0.7
		c0,0.3,0.1,0.5,0.2,0.7c0.2,0.2,0.4,0.4,0.6,0.5c0.3,0.1,0.6,0.3,0.9,0.4s0.7,0.2,1,0.3c0.3,0.1,0.7,0.2,1,0.3s0.6,0.3,0.9,0.5
		c0.3,0.2,0.5,0.4,0.6,0.7s0.2,0.6,0.2,1c0,0.4-0.1,0.8-0.2,1.1c-0.2,0.4-0.4,0.7-0.7,0.9c-0.3,0.3-0.7,0.5-1.1,0.6
		c-0.4,0.2-0.9,0.2-1.5,0.2c-0.7,0-1.3-0.1-1.8-0.3c-0.5-0.2-1-0.5-1.4-0.8l0.2-0.3c0-0.1,0.1-0.1,0.1-0.1c0,0,0.1,0,0.2,0
		c0.1,0,0.2,0.1,0.3,0.2c0.1,0.1,0.3,0.2,0.5,0.3c0.2,0.1,0.5,0.2,0.8,0.3c0.3,0.1,0.7,0.2,1.1,0.2c0.4,0,0.8-0.1,1.1-0.2
		s0.6-0.3,0.8-0.5s0.4-0.4,0.5-0.7s0.2-0.5,0.2-0.8c0-0.3-0.1-0.6-0.2-0.8s-0.4-0.4-0.6-0.5c-0.3-0.1-0.6-0.3-0.9-0.4
		c-0.3-0.1-0.7-0.2-1-0.3s-0.7-0.2-1-0.3s-0.6-0.3-0.9-0.5s-0.5-0.4-0.6-0.7c-0.2-0.3-0.2-0.6-0.2-1c0-0.3,0.1-0.7,0.2-1
		c0.2-0.3,0.4-0.6,0.7-0.8s0.6-0.4,1-0.6s0.9-0.2,1.4-0.2c0.6,0,1.2,0.1,1.6,0.3c0.5,0.2,0.9,0.4,1.3,0.8L170.7,19.6z"/>
	<path class="st0" d="M179.4,15.1c0,0.1,0,0.2-0.1,0.3c0,0.1-0.1,0.2-0.2,0.3c-0.1,0.1-0.2,0.1-0.3,0.2c-0.1,0-0.2,0.1-0.3,0.1
		c-0.1,0-0.2,0-0.3-0.1c-0.1,0-0.2-0.1-0.3-0.2c-0.1-0.1-0.1-0.2-0.2-0.3s-0.1-0.2-0.1-0.3c0-0.1,0-0.2,0.1-0.3s0.1-0.2,0.2-0.3
		c0.1-0.1,0.2-0.1,0.3-0.2c0.1,0,0.2-0.1,0.3-0.1c0.1,0,0.2,0,0.3,0.1c0.1,0,0.2,0.1,0.3,0.2c0.1,0.1,0.1,0.2,0.2,0.3
		C179.3,14.9,179.4,15,179.4,15.1z M179,18.4v9.5h-1v-9.5H179z"/>
	<path class="st0" d="M182.5,27.8v-9.5h0.5c0.2,0,0.3,0.1,0.3,0.2l0.1,1.4c0.5-0.5,1-1,1.6-1.3c0.6-0.3,1.3-0.5,2-0.5
		c0.6,0,1,0.1,1.5,0.2s0.8,0.4,1,0.7c0.3,0.3,0.5,0.7,0.6,1.1c0.1,0.4,0.2,0.9,0.2,1.5v6h-1v-6c0-0.9-0.2-1.6-0.6-2.1
		c-0.4-0.5-1.1-0.8-2-0.8c-0.7,0-1.3,0.2-1.8,0.5s-1.1,0.8-1.5,1.3v7.1H182.5z"/>
	<path class="st0" d="M200,28c-0.7,0-1.2-0.2-1.6-0.5c-0.4-0.4-0.6-0.9-0.6-1.6v-6.5h-1.4c-0.1,0-0.1,0-0.2-0.1s-0.1-0.1-0.1-0.2
		v-0.4l1.7-0.1l0.2-3.4c0-0.1,0-0.1,0.1-0.2c0,0,0.1-0.1,0.2-0.1h0.4v3.6h3.1v0.7h-3.1v6.4c0,0.3,0,0.5,0.1,0.7
		c0.1,0.2,0.2,0.3,0.3,0.5c0.1,0.1,0.3,0.2,0.4,0.3c0.2,0.1,0.3,0.1,0.5,0.1c0.2,0,0.4,0,0.6-0.1c0.2-0.1,0.3-0.1,0.5-0.2
		c0.1-0.1,0.2-0.2,0.3-0.2c0.1-0.1,0.1-0.1,0.2-0.1c0.1,0,0.1,0,0.2,0.1l0.3,0.4c-0.3,0.3-0.6,0.5-1,0.6S200.4,28,200,28z"/>
	<path class="st0" d="M204.4,27.8V14h1v6c0.5-0.5,1-1,1.6-1.3s1.3-0.5,2-0.5c0.6,0,1,0.1,1.5,0.2s0.8,0.4,1,0.7
		c0.3,0.3,0.5,0.7,0.6,1.1c0.1,0.4,0.2,0.9,0.2,1.5v6h-1v-6c0-0.9-0.2-1.6-0.6-2.1c-0.4-0.5-1.1-0.8-2-0.8c-0.7,0-1.3,0.2-1.8,0.5
		s-1.1,0.8-1.5,1.3v7.1H204.4z"/>
	<path class="st0" d="M219.1,18.2c0.6,0,1.1,0.1,1.6,0.3c0.5,0.2,0.9,0.5,1.2,0.8c0.4,0.4,0.6,0.8,0.8,1.3c0.2,0.5,0.3,1.1,0.3,1.8
		c0,0.1,0,0.2-0.1,0.3c0,0.1-0.1,0.1-0.2,0.1h-7.2v0.2c0,0.7,0.1,1.3,0.3,1.9c0.2,0.5,0.4,1,0.7,1.4s0.7,0.6,1.2,0.8s1,0.3,1.5,0.3
		c0.5,0,0.9-0.1,1.3-0.2c0.4-0.1,0.7-0.2,0.9-0.4c0.3-0.1,0.5-0.2,0.6-0.4c0.1-0.1,0.3-0.2,0.3-0.2c0.1,0,0.2,0,0.2,0.1l0.3,0.3
		c-0.2,0.2-0.4,0.4-0.6,0.5c-0.3,0.2-0.6,0.3-0.9,0.4s-0.7,0.2-1,0.3c-0.4,0.1-0.7,0.1-1.1,0.1c-0.7,0-1.3-0.1-1.9-0.3s-1-0.6-1.5-1
		c-0.4-0.4-0.7-1-0.9-1.6c-0.2-0.6-0.3-1.3-0.3-2.1c0-0.7,0.1-1.3,0.3-1.9c0.2-0.6,0.5-1.1,0.9-1.5c0.4-0.4,0.9-0.7,1.4-1
		C217.7,18.4,218.4,18.2,219.1,18.2z M219.1,18.9c-0.5,0-1,0.1-1.4,0.2c-0.4,0.2-0.8,0.4-1.1,0.7c-0.3,0.3-0.5,0.6-0.7,1
		c-0.2,0.4-0.3,0.8-0.4,1.3h6.6c0-0.5-0.1-1-0.2-1.4c-0.1-0.4-0.4-0.7-0.6-1s-0.6-0.5-1-0.6C220,19,219.6,18.9,219.1,18.9z"/>
	<path class="st0" d="M235.2,27.1c0.7,0,1.3-0.1,1.8-0.3c0.5-0.2,1-0.5,1.4-0.9c0.4-0.4,0.7-0.9,0.9-1.4c0.2-0.5,0.3-1.1,0.3-1.8
		v-8.3h1v8.3c0,0.7-0.1,1.4-0.4,2.1c-0.2,0.6-0.6,1.2-1.1,1.7c-0.5,0.5-1,0.9-1.7,1.1c-0.7,0.3-1.4,0.4-2.2,0.4
		c-0.8,0-1.6-0.1-2.2-0.4c-0.7-0.3-1.2-0.6-1.7-1.1c-0.5-0.5-0.8-1-1.1-1.7c-0.2-0.6-0.4-1.3-0.4-2.1v-8.3h1v8.3
		c0,0.6,0.1,1.2,0.3,1.8s0.5,1,0.9,1.4s0.8,0.7,1.4,0.9S234.5,27.1,235.2,27.1z"/>
	<path class="st0" d="M243.2,27.1c0-0.1,0-0.2,0.1-0.3c0-0.1,0.1-0.2,0.2-0.3c0.1-0.1,0.2-0.1,0.3-0.2c0.1,0,0.2-0.1,0.4-0.1
		c0.1,0,0.2,0,0.4,0.1c0.1,0,0.2,0.1,0.3,0.2c0.1,0.1,0.2,0.2,0.2,0.3c0,0.1,0.1,0.2,0.1,0.3c0,0.1,0,0.2-0.1,0.3
		c-0.1,0.1-0.1,0.2-0.2,0.3c-0.1,0.1-0.2,0.1-0.3,0.2c-0.1,0-0.2,0.1-0.4,0.1c-0.3,0-0.5-0.1-0.7-0.3
		C243.3,27.6,243.2,27.4,243.2,27.1z"/>
	<path class="st0" d="M255.1,16c-0.1,0.1-0.1,0.2-0.3,0.2c-0.1,0-0.2-0.1-0.3-0.2s-0.3-0.2-0.6-0.4c-0.2-0.1-0.5-0.3-0.9-0.4
		s-0.8-0.2-1.3-0.2c-0.5,0-1,0.1-1.4,0.2c-0.4,0.1-0.7,0.3-1,0.6s-0.5,0.5-0.6,0.8c-0.1,0.3-0.2,0.6-0.2,1c0,0.5,0.1,0.8,0.3,1.1
		c0.2,0.3,0.5,0.6,0.8,0.8s0.7,0.4,1.1,0.5c0.4,0.1,0.9,0.3,1.3,0.4c0.4,0.1,0.9,0.3,1.3,0.5c0.4,0.2,0.8,0.4,1.1,0.6
		c0.3,0.3,0.6,0.6,0.8,0.9c0.2,0.4,0.3,0.8,0.3,1.4c0,0.6-0.1,1.1-0.3,1.6c-0.2,0.5-0.5,0.9-0.9,1.3c-0.4,0.4-0.9,0.7-1.4,0.9
		c-0.6,0.2-1.2,0.3-1.9,0.3c-0.9,0-1.7-0.2-2.4-0.5s-1.3-0.7-1.8-1.3l0.3-0.4c0.1-0.1,0.2-0.1,0.3-0.1c0.1,0,0.1,0,0.2,0.1
		c0.1,0.1,0.2,0.2,0.3,0.3c0.1,0.1,0.3,0.2,0.5,0.4c0.2,0.1,0.4,0.3,0.7,0.4c0.2,0.1,0.5,0.2,0.9,0.3c0.3,0.1,0.7,0.1,1.1,0.1
		c0.6,0,1.1-0.1,1.5-0.2c0.4-0.2,0.8-0.4,1.1-0.7c0.3-0.3,0.5-0.6,0.7-1s0.2-0.8,0.2-1.2c0-0.5-0.1-0.9-0.3-1.2s-0.5-0.6-0.8-0.8
		c-0.3-0.2-0.7-0.4-1.1-0.5c-0.4-0.1-0.9-0.3-1.3-0.4c-0.5-0.1-0.9-0.3-1.3-0.4c-0.4-0.2-0.8-0.4-1.1-0.6c-0.3-0.3-0.6-0.6-0.8-1
		c-0.2-0.4-0.3-0.9-0.3-1.4c0-0.4,0.1-0.9,0.3-1.3s0.4-0.8,0.8-1.1s0.8-0.6,1.3-0.8c0.5-0.2,1.1-0.3,1.8-0.3c0.7,0,1.4,0.1,2,0.3
		c0.6,0.2,1.1,0.6,1.6,1L255.1,16z"/>
	<path class="st0" d="M257.7,27.1c0-0.1,0-0.2,0.1-0.3c0-0.1,0.1-0.2,0.2-0.3c0.1-0.1,0.2-0.1,0.3-0.2c0.1,0,0.2-0.1,0.4-0.1
		c0.1,0,0.2,0,0.4,0.1c0.1,0,0.2,0.1,0.3,0.2c0.1,0.1,0.2,0.2,0.2,0.3c0,0.1,0.1,0.2,0.1,0.3c0,0.1,0,0.2-0.1,0.3
		c-0.1,0.1-0.1,0.2-0.2,0.3c-0.1,0.1-0.2,0.1-0.3,0.2c-0.1,0-0.2,0.1-0.4,0.1c-0.3,0-0.5-0.1-0.7-0.3
		C257.7,27.6,257.7,27.4,257.7,27.1z"/>
</g>
</svg>
