<?xml version="1.0" encoding="UTF-8" standalone="no"?>
<svg width="104px" height="68px" viewBox="0 0 104 68" version="1.1" xmlns="http://www.w3.org/2000/svg" xmlns:xlink="http://www.w3.org/1999/xlink">
    <!-- Generator: Sketch 39.1 (31720) - http://www.bohemiancoding.com/sketch -->
    <title>Hardrock Icon</title>
    <desc>Hardrock Icon</desc>
    <defs></defs>
    <g id="how-main-icon-hardrock" stroke="none" stroke-width="1" fill="none" fill-rule="evenodd">
        <g transform="translate(-386.000000, -693.000000)" fill="#231F1F">
            <path d="M454.94515,751.079208 C452.284351,751.079208 450.119585,748.918024 450.119585,746.262263 C450.119585,743.605932 452.284351,741.444749 454.94515,741.444749 C457.605949,741.444749 459.770715,743.605932 459.770715,746.262263 C459.770715,748.918024 457.605949,751.079208 454.94515,751.079208 L454.94515,751.079208 Z M447.759654,758.003868 L440.047924,757.008171 L432.815417,755.938529 L426.755895,757.801373 C431.358944,755.981189 434.624327,751.496712 434.624327,746.262263 C434.624327,745.113841 434.463921,744.002675 434.170177,742.9464 L442.967708,742.9464 C442.673964,744.002675 442.513558,745.113841 442.513558,746.262263 C442.513558,751.403143 445.661842,755.823345 450.13497,757.704107 L447.759654,758.003868 Z M422.192735,751.079208 C419.531936,751.079208 417.366885,748.918024 417.366885,746.262263 C417.366885,743.605932 419.531936,741.444749 422.192735,741.444749 C424.853819,741.444749 427.018585,743.605932 427.018585,746.262263 C427.018585,748.918024 424.853819,751.079208 422.192735,751.079208 L422.192735,751.079208 Z M411.28514,740.315097 L407.858496,740.315097 C409.663418,735.064437 415.31238,731.11151 421.791293,731.11151 C422.51896,731.11151 423.109299,730.52251 423.109299,729.795859 L423.109299,727.531721 L428.756552,727.531721 L432.217385,736.020318 C432.422238,736.522575 432.910008,736.840253 433.437666,736.840253 C433.519721,736.840253 433.602631,736.83229 433.685825,736.816648 L467.732028,730.31973 L467.732028,740.315097 L465.852745,740.315097 C463.738978,736.467685 459.642504,733.852877 454.94515,733.852877 C450.247511,733.852877 446.151037,736.467685 444.03727,740.315097 L433.100615,740.315097 C430.986848,736.467685 426.890374,733.852877 422.192735,733.852877 C417.495381,733.852877 413.398907,736.467685 411.28514,740.315097 L411.28514,740.315097 Z M404.681436,742.559896 L398.169758,742.559896 L398.169758,730.755721 L409.924682,726.992208 C410.470005,726.817299 410.840107,726.311061 410.840107,725.739125 L410.840107,720.530841 L420.473287,720.530841 L420.473287,728.525997 C416.448042,728.806134 412.674089,730.366657 409.729802,732.990565 C406.790074,735.610492 405.028174,738.96873 404.681436,742.559896 L404.681436,742.559896 Z M406.058988,712.72396 L406.058988,710.73029 L472.289776,710.73029 L484.670653,724.4084 L470.36804,727.137538 L434.251662,734.029492 L425.900018,713.543611 C425.69773,713.047896 425.215088,712.72396 424.679167,712.72396 L406.058988,712.72396 Z M421.154798,707.604125 C421.121748,707.564593 421.097816,707.519373 421.076162,707.47273 C421.138843,707.236675 421.234004,706.996923 421.332014,706.784474 C421.918079,705.517455 425.692602,703.386419 426.903195,703.386419 C426.945647,703.386419 426.984395,703.388694 427.020009,703.394097 C427.471596,703.55507 427.989852,703.618776 428.537739,703.685896 C429.467979,703.800226 430.522155,703.929345 430.846671,704.496162 C430.952373,704.68074 431.035283,704.920208 431.07916,705.190675 C431.047249,705.390042 430.992261,705.593107 430.908497,705.79418 C430.502781,706.767125 429.521257,707.488088 428.069343,707.87829 C427.747106,707.964749 427.4243,708.036419 427.102919,708.098987 L422.081904,708.098987 C421.645988,707.971575 421.323467,707.803492 421.154798,707.604125 L421.154798,707.604125 Z M432.870975,699.942575 L432.870975,699.942859 C432.900321,699.469896 433.725143,698.76173 434.906391,698.461969 C436.025812,698.177565 437.464621,698.258336 438.141289,699.338501 C438.973518,700.665813 439.624259,701.778969 440.114024,702.825006 C439.586935,704.514364 439.373536,706.291886 439.524824,707.728409 C439.538215,707.855822 439.554455,707.978685 439.57269,708.098419 C439.568701,708.098703 439.564997,708.098703 439.561293,708.098987 L433.133949,708.098987 C433.21344,707.948253 433.282959,707.800648 433.34222,707.658446 C433.671295,706.868657 433.798366,706.008052 433.731696,705.180153 C433.812041,704.176492 433.611463,703.169419 433.135374,702.337538 C432.976963,702.060529 432.79006,701.825327 432.586062,701.619419 C432.729658,701.063978 432.836785,700.501143 432.870975,699.942575 L432.870975,699.942575 Z M445.442175,699.724437 C447.716632,699.282189 449.443202,698.31351 450.966915,697.458877 C452.931957,696.356529 454.627472,695.404345 457.200803,695.68107 C458.111384,695.779189 458.849023,696.220584 459.455887,697.031419 C461.220635,699.389694 461.46794,704.365052 460.802384,708.098987 L442.256567,708.098987 C442.211265,707.9164 442.172802,707.705941 442.146305,707.453107 C441.824924,704.402593 443.673152,700.06885 445.442175,699.724437 L445.442175,699.724437 Z M463.658348,706.632602 C463.811061,706.334831 463.966908,706.02796 464.097398,705.706584 C464.868941,703.810464 465.899185,702.431675 466.665316,702.274969 C466.962764,702.283501 467.788726,703.270951 468.185894,703.74562 C468.815836,704.499006 469.529257,705.352501 470.407928,705.931547 C470.533004,706.045308 470.676315,706.71707 470.389408,707.517951 C470.346956,707.636263 470.25208,707.868336 470.097088,708.098987 L463.651225,708.098987 C463.595952,708.075097 463.540394,708.052345 463.484551,708.027033 C463.55464,707.573694 463.612192,707.107841 463.658348,706.632602 L463.658348,706.632602 Z M488.440047,755.634501 L483.795972,756.959538 L477.717931,755.945639 L472.629676,757.00874 L463.413323,758.005006 L460.090387,757.553941 C464.383735,755.596675 467.376457,751.273171 467.376457,746.262263 C467.376457,745.113841 467.216052,744.002675 466.922307,742.9464 L469.050034,742.9464 C469.777986,742.9464 470.36804,742.3574 470.36804,741.630749 L470.36804,729.81662 L487.466786,726.553941 C487.934327,726.464639 488.317535,726.130464 488.468824,725.679685 C488.620397,725.229189 488.516404,724.732052 488.197302,724.379391 L473.853091,708.532419 C473.794114,708.467575 473.729154,708.409841 473.659635,708.359217 C473.607211,708.320538 473.550229,708.290107 473.492962,708.259675 C473.476722,708.251428 473.462191,708.240336 473.445951,708.232657 C473.296372,708.160703 473.133972,708.120318 472.965873,708.108657 C472.973851,708.081923 472.983538,708.056327 472.990946,708.029593 C473.493531,706.237281 473.03995,704.512373 471.862122,703.736804 C471.305972,703.370776 470.748683,702.704134 470.209344,702.059391 C469.139782,700.780428 467.931182,699.3294 466.131674,699.697987 C465.145022,699.899914 464.309943,700.523611 463.612762,701.332455 C463.334117,699.070308 462.693634,696.960886 461.567659,695.456391 C460.528013,694.067364 459.115701,693.240318 457.482867,693.064841 C454.070468,692.698244 451.837038,693.95218 449.675691,695.164877 C448.19443,695.99562 446.795509,696.780575 444.938164,697.141767 C443.550925,697.411666 442.389336,698.433529 441.498699,699.803786 C441.161077,699.214786 440.788127,698.59962 440.376143,697.942648 C439.198314,696.064162 436.796786,695.266978 434.25679,695.911721 C431.960394,696.494749 430.346079,698.049868 430.240092,699.781886 L430.240092,699.782171 C430.227556,699.988364 430.19593,700.203088 430.154903,700.422079 C430.156043,700.496877 430.149205,700.866033 429.997916,701.243153 C429.592485,701.164941 429.202725,701.116308 428.85912,701.074217 C428.491868,701.029281 428.075611,700.978088 427.905518,700.915519 C425.579206,700.05918 420.036801,703.30707 418.938748,705.681841 C418.499413,706.632033 418.350118,707.430354 418.370062,708.098987 L404.740982,708.098987 C404.013031,708.098987 403.422976,708.687987 403.422976,709.414639 L403.422976,714.039611 C403.422976,714.765978 404.013031,715.355263 404.740982,715.355263 L423.792234,715.355263 L427.683856,724.900419 L423.109299,724.900419 L423.109299,719.215189 C423.109299,718.488538 422.51896,717.899538 421.791293,717.899538 L409.522101,717.899538 C408.794434,717.899538 408.204095,718.488538 408.204095,719.215189 L408.204095,724.779263 L396.44917,728.543061 C395.903563,728.717685 395.533746,729.223923 395.533746,729.795859 L395.533746,743.875547 C395.533746,744.602198 396.1238,745.191198 396.851752,745.191198 L405.936191,745.191198 C406.664142,745.191198 407.254196,744.602198 407.254196,743.875547 C407.254196,743.563272 407.272431,743.254125 407.299213,742.9464 L410.215578,742.9464 C409.921833,744.002675 409.761428,745.113841 409.761428,746.262263 C409.761428,751.000428 412.436757,755.125419 416.358009,757.215217 L411.680029,757.999033 L404.430428,757.003052 L395.805838,755.959575 L386,757.179382 L386.352152,760.001804 L395.810681,758.825226 L404.064885,759.823483 L411.722481,760.875776 L417.838415,759.851354 L426.403743,760.885446 L433.036794,758.846556 L439.656454,759.825189 L447.75595,760.871226 L455.853736,759.849079 L463.37429,760.870088 L473.006331,759.828602 L477.776908,758.839162 L483.960651,759.870125 L489.222987,758.369042 L488.440047,755.634501 Z" ></path>
        </g>
    </g>
</svg>