<?xml version="1.0" encoding="UTF-8" standalone="no"?>
<svg width="90px" height="116px" viewBox="0 0 90 116" version="1.1" xmlns="http://www.w3.org/2000/svg" xmlns:xlink="http://www.w3.org/1999/xlink">
    <!-- Generator: Sketch 39.1 (31720) - http://www.bohemiancoding.com/sketch -->
    <title>Windmill Icon</title>
    <desc>Windmill Icon</desc>
    <defs></defs>
    <g id="how-main-icon-wind" stroke="none" stroke-width="1" fill="none" fill-rule="evenodd">
        <g transform="translate(-766.000000, -649.000000)" fill="#231F1F">
            <path d="M813.877889,758.049472 C814.124908,737.513252 815.230369,716.225068 816.166022,700.92216 C816.409908,703.696234 816.682854,706.038298 816.931868,706.95749 C817.34727,708.491564 818.49034,711.828472 819.896668,715.676454 C820.622911,728.835812 821.298153,744.204986 821.518106,759.032087 C819.083813,758.683977 816.533275,758.345821 813.877889,758.049472 L813.877889,758.049472 Z M815.21299,685.333995 C815.880825,684.429591 817.014492,684.030857 818.100864,684.318958 C818.315403,684.375839 818.524244,684.462298 818.739068,684.582885 L819.526282,685.025986 L819.89097,685.854738 C820.141123,686.422977 820.188989,687.038711 820.029722,687.635674 C819.845669,688.327344 819.402345,688.908949 818.782375,689.273839 L818.004564,689.73116 L817.10196,689.629628 C816.9407,689.611426 816.813629,689.589243 816.701943,689.559665 C815.525254,689.247674 814.695873,688.180591 814.685332,686.964766 L814.677354,686.059224 L815.21299,685.333995 Z M832.726283,671.704234 C833.571334,670.859555 834.434904,669.996674 835.311296,669.119004 C841.165965,663.256591 845.76531,658.908628 848.978554,656.032454 C844.051845,662.600472 835.62356,672.700215 832.99809,675.329243 C831.98722,676.341435 826.076993,680.470124 821.021788,683.705784 C823.749827,680.675747 827.930919,676.497004 832.726283,671.704234 L832.726283,671.704234 Z M822.973725,707.818949 C823.28257,708.963958 823.597683,710.133711 823.91935,711.321949 C826.082406,719.310848 827.558253,725.459371 828.44889,729.672812 C825.209149,722.133555 820.652826,709.798968 819.682414,706.215197 C819.487819,705.496224 819.22342,703.202509 818.975261,700.324344 C818.768984,697.13049 818.573249,694.233839 818.398598,691.704637 C818.398028,691.696105 818.397743,691.687573 818.397458,691.679325 C819.666459,695.555179 821.206696,701.267142 822.973725,707.818949 L822.973725,707.818949 Z M796.504772,681.316793 C795.350022,681.009353 794.171053,680.695371 792.972426,680.377692 C784.959828,678.252913 778.887201,676.454628 774.783319,675.117362 C782.950054,676.089169 795.928394,678.319179 799.523991,679.2725 C800.908097,679.63938 807.443992,682.679087 812.780406,685.426711 C808.784506,684.585445 803.064316,683.062747 796.504772,681.316793 L796.504772,681.316793 Z M827.800999,759.970335 C826.693544,759.80083 825.548195,759.625637 824.373785,759.449591 C824.205972,747.659068 823.748402,735.511619 823.203649,724.385463 C824.689753,728.148408 826.022005,731.30472 827.060226,733.521078 C828.619268,736.850591 829.489391,738.223692 830.672064,738.223692 C830.824492,738.223692 830.982333,738.20094 831.147583,738.156289 C832.658474,737.749591 832.414589,735.915757 832.218284,734.441977 C832.03822,733.087931 831.684643,731.175316 831.168096,728.757885 C830.144405,723.967958 828.5469,717.511995 826.670181,710.579656 C826.348799,709.392555 826.033401,708.22394 825.724841,707.079784 C823.981745,700.616142 822.457748,694.964472 821.17906,691.021784 C821.951458,690.313619 822.507607,689.400399 822.783118,688.36716 C822.997942,687.56116 823.025009,686.715628 822.869447,685.901096 C827.34172,683.0235 833.659087,678.696013 835.015841,677.337133 C836.936722,675.413711 842.362598,669.027142 846.864502,663.390546 C849.455783,660.146068 851.58294,657.350665 853.015766,655.306656 C855.399915,651.905472 856.057493,650.510472 854.996193,649.455619 L854.995909,649.455335 C853.888168,648.354692 852.418589,649.481784 851.237911,650.38761 C850.152394,651.220344 848.668569,652.481674 846.828034,654.136619 C843.180867,657.415793 838.374106,662.023702 833.293545,667.111114 C832.417723,667.988215 831.555008,668.850527 830.710242,669.694353 C825.976704,674.425692 821.837208,678.562913 819.056176,681.635041 C818.981529,681.61172 818.906882,681.590105 818.83195,681.570197 C817.015347,681.088133 815.135778,681.542894 813.763069,682.733408 C809.028391,680.309151 802.113562,677.016325 800.255647,676.523738 C797.625049,675.82638 789.367141,674.332692 782.222388,673.262197 C778.109674,672.646179 774.618925,672.20649 772.127934,671.990913 C767.985019,671.631995 766.444497,671.761399 766.05958,673.205316 C765.657568,674.714646 767.371602,675.420536 768.748585,675.987922 C770.014452,676.509234 771.851568,677.160234 774.20865,677.922435 C778.878938,679.433188 785.283204,681.281527 792.241055,683.126454 C793.438828,683.444133 794.616941,683.757546 795.770553,684.064702 C802.249181,685.789325 807.914383,687.297234 811.973248,688.163243 C812.253317,689.39727 812.951068,690.491656 813.925185,691.272628 C812.939387,706.243353 811.346725,732.502344 811.032752,757.700509 C799.500059,755.957683 792.233362,755.414472 781.816102,761.399463 L783.237246,763.864105 C793.148787,758.16949 799.781267,758.851206 811.606566,760.665133 L811.678649,760.674234 C817.388867,761.253279 822.691091,762.064968 827.369356,762.78138 C834.262817,763.837087 840.179313,764.742913 845.613451,764.742913 C848.237211,764.742913 850.748716,764.531601 853.203523,764.024224 L852.625151,761.239059 C845.590088,762.694922 837.739891,761.491894 827.800999,759.970335 L827.800999,759.970335 Z" ></path>
        </g>
    </g>
</svg>