<?xml version="1.0" encoding="UTF-8" standalone="no"?>
<svg width="104px" height="102px" viewBox="0 0 104 102" version="1.1" xmlns="http://www.w3.org/2000/svg" xmlns:xlink="http://www.w3.org/1999/xlink">
    <!-- Generator: Sketch 39.1 (31720) - http://www.bohemiancoding.com/sketch -->
    <title>Oil Icon</title>
    <desc>Oil Icon</desc>
    <defs></defs>
    <g id="how-main-icon-oil" stroke="none" stroke-width="1" fill="none" fill-rule="evenodd">
        <g transform="translate(-386.000000, -447.000000)" fill="#231F1F">
            <path d="M464.690301,542.973725 C464.389434,543.046532 464.087141,543.120193 463.78143,543.19556 C454.298968,545.532505 447.793558,546.019688 438.923944,544.684697 L438.923944,533.136486 L464.690301,533.136486 L464.690301,542.973725 Z M436.074817,544.209743 C434.676466,543.955202 433.215719,543.661982 431.670638,543.326954 C423.711889,541.602046 417.446945,541.593514 412.218799,542.104303 L412.218799,533.136486 L436.074817,533.136486 L436.074817,544.209743 Z M401.475314,530.29245 L473.581854,530.29245 L473.581854,522.969055 L401.475314,522.969055 L401.475314,530.29245 Z M427.251643,514.218523 L436.074817,507.732982 L436.074817,520.125018 L426.608881,520.125018 L427.251643,514.218523 Z M430.234679,486.809404 L436.074817,491.122101 L436.074817,504.200972 L427.669325,510.379358 L430.234679,486.809404 Z M436.074817,480.669413 L436.074817,487.584404 L431.422764,484.149376 L436.074817,480.669413 Z M432.584353,465.219468 L436.074817,467.830578 L436.074817,477.11522 L430.865475,481.011835 L432.584353,465.219468 Z M436.074817,460.634881 L436.074817,464.276385 L433.640809,462.455633 L436.074817,460.634881 Z M434.257645,449.844037 L436.074817,449.844037 L436.074817,457.080688 L433.239082,459.202055 L434.257645,449.844037 Z M438.923944,505.638917 L446.314292,500.206807 L448.481907,520.125018 L438.923944,520.125018 L438.923944,505.638917 Z M438.923944,493.225835 L444.951555,497.676468 L438.923944,502.106908 L438.923944,493.225835 Z M438.923944,478.538092 L443.577137,475.05756 L445.715121,494.703028 L438.923944,489.688422 L438.923944,478.538092 Z M438.923944,469.961615 L442.281354,472.472899 L438.923944,474.984183 L438.923944,469.961615 Z M438.923944,458.50356 L441.56081,456.53122 L442.964574,469.430064 L438.923944,466.407706 L438.923944,458.50356 Z M438.923944,449.844037 L440.833143,449.844037 L441.203245,453.244936 L438.923944,454.949651 L438.923944,449.844037 Z M472.098029,541.400119 L472.098029,533.136486 L475.006417,533.136486 C475.793346,533.136486 476.43098,532.499991 476.43098,531.714468 L476.43098,521.547037 C476.43098,520.761798 475.793346,520.125018 475.006417,520.125018 L451.347843,520.125018 L443.699079,449.844037 L445.860711,449.844037 L445.860711,447 L442.111261,447 L432.979527,447 L429.229792,447 L429.229792,449.844037 L431.391709,449.844037 L423.742945,520.125018 L400.050751,520.125018 C399.264107,520.125018 398.626188,520.761798 398.626188,521.547037 L398.626188,531.714468 C398.626188,532.499991 399.264107,533.136486 400.050751,533.136486 L404.811071,533.136486 L404.811071,543.154037 C404.765485,543.161716 404.719044,543.169394 404.673743,543.177073 C398.366632,544.237615 393.38522,545.074899 387.271565,542.031211 L386,544.576339 C392.94389,548.032982 398.599121,547.082789 405.146983,545.981578 C411.836731,544.856761 419.419965,543.582064 431.066054,546.106147 C437.72959,547.550633 442.927536,548.275578 447.965361,548.275578 C453.159318,548.275294 458.183182,547.50456 464.464081,545.956835 C474.610674,543.456073 481.810416,542.441321 488.583643,544.655119 L489.470291,541.952431 C484.131314,540.207615 478.692617,540.258239 472.098029,541.400119 L472.098029,541.400119 Z" ></path>
        </g>
    </g>
</svg>