<svg xmlns="http://www.w3.org/2000/svg" xmlns:xlink="http://www.w3.org/1999/xlink" version="1.1" x="0px" y="0px" viewBox="0 0 100 125" enable-background="new 0 0 100 100" xml:space="preserve"><g><path d="M53.559,94.397l11.918-16.069c0.605-0.802,0.28-1.453-0.726-1.453h-4.949c-0.3,0-0.539-0.243-0.539-0.54v-10.64   c0-1.005-0.817-1.823-1.823-1.823h-9.962c-1.008,0-1.824,0.818-1.824,1.823v10.64c0,0.297-0.242,0.54-0.539,0.54h-4.95   c-1.005,0-1.33,0.651-0.725,1.453l11.918,16.069C51.966,95.201,52.95,95.201,53.559,94.397z"/><path d="M81.263,18.055L68.687,5.516C68.403,5.231,67.864,5,67.46,5H24.518c-0.806,0-1.455,0.654-1.452,1.458v26.788   c0,0.403,0.327,0.73,0.73,0.73h2.287c0.4,0,0.728-0.327,0.728-0.73V9.194c0-0.297,0.242-0.539,0.54-0.539h37.084   c0.3,0,0.541,0.242,0.541,0.539l0.005,11.041c-0.008,0.807,0.641,1.458,1.447,1.458h11.139c0.297,0,0.54,0.242,0.54,0.539v59.499   c0,0.297-0.243,0.54-0.54,0.54L65.76,82.264c-0.297-0.003-0.685,0.193-0.861,0.433L62.86,85.46   c-0.178,0.24-0.076,0.436,0.221,0.436l17.194,0.027c0.805,0,1.458-0.651,1.461-1.458L81.774,19.3   C81.777,18.897,81.546,18.341,81.263,18.055z"/><path d="M26.083,63.766h-2.287c-0.403,0-0.73,0.325-0.733,0.728l0.003,19.972c-0.003,0.807,0.646,1.458,1.452,1.458l17.223-0.027   c0.3,0,0.397-0.195,0.22-0.436l-2.038-2.764c-0.177-0.239-0.564-0.436-0.861-0.433L27.35,82.271c-0.297,0-0.54-0.243-0.54-0.54   V64.493C26.811,64.091,26.483,63.766,26.083,63.766z"/><path d="M18.226,38.518l0.008,20.708c0.005,0.814,0.662,1.458,1.472,1.458h47.019c0.804,0,1.461-0.644,1.461-1.458V38.518   c0-0.815-0.657-1.461-1.461-1.461H19.678C18.871,37.057,18.223,37.702,18.226,38.518z M56.749,50.613   c-2.452-0.96-3.694-2.506-3.694-4.593c0-2.782,2.134-4.727,5.188-4.727c1.401,0,2.965,0.423,3.789,0.84l0.525,0.268l-0.995,3.597   l-0.795-0.43c-0.391-0.21-1.383-0.545-2.398-0.545c-0.84,0-0.908,0.566-0.908,0.74c0,0.289,0,0.5,1.668,1.211   c2.388,0.995,3.503,2.467,3.503,4.628c0,2.234-1.438,4.843-5.489,4.843c-1.505,0-3.41-0.531-4.173-1.006l-0.409-0.253l0.61-3.724   l0.902,0.523c0.603,0.346,2.001,0.73,3.05,0.73c0.723,0,1.152-0.335,1.152-0.899C58.275,51.569,58.275,51.229,56.749,50.613z    M40.148,41.475h4.326v10.874h6.088v3.9l-10.414,0.017V41.475z M24.172,41.475h4.968l1.837,3.208l1.802-3.208h4.941l-4.236,7.2   l4.631,7.591h-5.072l-2.107-3.576l-2.112,3.576H23.78l4.62-7.681L24.172,41.475z"/></g><text x="0" y="115" fill="#000000" font-size="5px" font-weight="bold" font-family="'Helvetica Neue', Helvetica, Arial-Unicode, Arial, Sans-serif">Created by Milinda Courey</text><text x="0" y="120" fill="#000000" font-size="5px" font-weight="bold" font-family="'Helvetica Neue', Helvetica, Arial-Unicode, Arial, Sans-serif">from the Noun Project</text></svg>