<svg xmlns="http://www.w3.org/2000/svg" xmlns:xlink="http://www.w3.org/1999/xlink" version="1.1" x="0px" y="0px" viewBox="0 0 100 125" enable-background="new 0 0 100 100" xml:space="preserve"><g><path d="M53.558,94.399l11.916-16.07c0.607-0.801,0.283-1.452-0.722-1.452h-4.95c-0.3,0-0.542-0.242-0.542-0.542V65.697   c0-1.006-0.815-1.823-1.821-1.823h-9.962c-1.008,0-1.822,0.817-1.822,1.823v10.638c0,0.3-0.243,0.542-0.54,0.542h-4.949   c-1.006,0-1.331,0.651-0.726,1.452l11.918,16.07C51.966,95.2,52.95,95.2,53.558,94.399z"/><path d="M68.688,5.515C68.404,5.232,67.863,5,67.461,5H24.518c-0.807,0-1.458,0.654-1.452,1.458v26.788   c0,0.404,0.327,0.731,0.729,0.731h2.284c0.403,0,0.73-0.327,0.73-0.731V9.194c0-0.3,0.243-0.54,0.54-0.54h37.086   c0.297,0,0.539,0.24,0.539,0.54l0.006,11.041c-0.009,0.807,0.641,1.458,1.444,1.458h11.142c0.297,0,0.54,0.242,0.54,0.54v59.5   c0,0.298-0.243,0.54-0.54,0.54L65.76,82.263c-0.298,0-0.684,0.193-0.861,0.437l-2.039,2.761c-0.177,0.242-0.076,0.438,0.221,0.438   l17.195,0.027c0.804,0,1.458-0.651,1.461-1.458l0.038-65.17c0.003-0.401-0.229-0.96-0.512-1.243L68.688,5.515z"/><path d="M26.079,63.765h-2.284c-0.402,0-0.729,0.327-0.732,0.73l0.003,19.973c-0.003,0.807,0.646,1.458,1.452,1.458l17.223-0.027   c0.3,0,0.397-0.196,0.221-0.438l-2.038-2.761c-0.178-0.243-0.565-0.437-0.862-0.437L27.35,82.273c-0.297,0-0.54-0.242-0.54-0.54   V64.495C26.81,64.092,26.482,63.765,26.079,63.765z"/><path d="M19.696,60.685h47.025c0.808,0,1.464-0.644,1.464-1.458V38.519c0-0.816-0.656-1.461-1.464-1.461H19.686   c-0.81,0-1.458,0.646-1.453,1.461l-0.008,20.708C18.229,60.041,18.887,60.685,19.696,60.685z M54.204,41.437l1.595,6.332   c0.127,0.504,0.261,1.039,0.395,1.594c0.123-0.507,0.253-1.025,0.39-1.54l1.67-6.387h4.414l-4.462,15.1h-4.524l-4.246-15.1H54.204z    M41.691,50.635c-2.48-0.973-3.74-2.537-3.74-4.649c0-2.816,2.162-4.781,5.253-4.781c1.417,0,3.001,0.425,3.832,0.848l0.533,0.27   l-1.009,3.642l-0.806-0.436c-0.394-0.212-1.398-0.55-2.424-0.55c-0.853,0-0.918,0.574-0.918,0.75c0,0.294,0,0.506,1.685,1.226   c2.418,1.006,3.546,2.494,3.546,4.683c0,2.259-1.452,4.899-5.555,4.899c-1.524,0-3.447-0.536-4.225-1.019l-0.411-0.257l0.618-3.764   l0.913,0.526c0.608,0.349,2.025,0.741,3.085,0.741c0.73,0,1.167-0.341,1.167-0.91C43.236,51.604,43.236,51.261,41.691,50.635z    M31.22,41.205c1.603,0,2.807,0.357,3.401,0.693l0.475,0.267l-0.896,3.805l-0.803-0.365c-0.632-0.289-1.318-0.434-2.049-0.434   c-2.047,0-3.219,1.358-3.219,3.729c0,2.334,1.18,3.671,3.237,3.671c0.77,0,1.608-0.19,2.042-0.378l0.843-0.365l0.672,3.794   l-0.457,0.247c-0.594,0.322-1.829,0.668-3.521,0.668c-4.375,0-7.2-2.927-7.2-7.455C23.744,44.37,26.75,41.205,31.22,41.205z"/></g><text x="0" y="115" fill="#000000" font-size="5px" font-weight="bold" font-family="'Helvetica Neue', Helvetica, Arial-Unicode, Arial, Sans-serif">Created by Milinda Courey</text><text x="0" y="120" fill="#000000" font-size="5px" font-weight="bold" font-family="'Helvetica Neue', Helvetica, Arial-Unicode, Arial, Sans-serif">from the Noun Project</text></svg>