<svg width="20px" height="17px" class="icon" xmlns="http://www.w3.org/2000/svg" viewBox="0 0 65.04 48.71"><g id="icon-coal"><g id="coal-icon-resources" data-name="1.0-Resources-to-Revenue-Landing"><g><g><path d="M24.05,40.18a4.38,4.38,0,1,0,4.36,4.38,4.37,4.37,0,0,0-4.36-4.38Zm0,6.24a1.86,1.86,0,1,1,1.85-1.86,1.85,1.85,0,0,1-1.85,1.86Z" transform="translate(-0.48 -0.23)"/><path d="M42,40.18a4.38,4.38,0,1,0,4.36,4.38A4.37,4.37,0,0,0,42,40.18Zm0,6.24a1.86,1.86,0,1,1,1.85-1.86A1.86,1.86,0,0,1,42,46.42Z" transform="translate(-0.48 -0.23)"/><path d="M64.81,12a4.62,4.62,0,0,0-4-1.78H57a30.06,30.06,0,0,1-4.07-3.9c-1.07-1.31-4.15-1-5.74-1.77C42.14,2,38.77-.87,33,.66c-2.31.62-3.76,1.18-6.15.93-3-.31-6.39.31-8.58,2.79-.53.6-7.8,4.5-7.51,5.8H5.19a4.61,4.61,0,0,0-4,1.78A4.31,4.31,0,0,0,.81,16L10,40.69a8,8,0,0,0,7.17,4.83h.07l0-3.27h0a4.78,4.78,0,0,1-4-2.74L3.94,14.81a1,1,0,0,1,0-1c.2-.3.68-.39,1.26-.39H60.77c.6,0,1.08.07,1.28.36a1.1,1.1,0,0,1,0,1L52.83,39.43a4.69,4.69,0,0,1-4.07,2.68l0,3.41h.07A8.07,8.07,0,0,0,56,40.65l9.22-24.59A4.37,4.37,0,0,0,64.81,12" transform="translate(-0.48 -0.23)"/><path class="cls-1" d="M34,42.9H31.53a1.64,1.64,0,1,0,0,3.27H34a1.64,1.64,0,1,0,0-3.27" transform="translate(-0.48 -0.23)"/></g></g></g></g></svg>
