<svg width="32px" height="32px" class="icon icon-middle" style="margin-top: 3px;"
  viewBox="0 0 20 20"><path d="M8,0.2c-4.3,0-7.8,3.5-7.8,7.8c0,4.3,3.5,7.8,7.8,7.8s7.8-3.5,7.8-7.8C15.8,3.7,12.3,0.2,8,0.2L8,0.2z M11.5,5.4H9.6V3.6
	L11.5,5.4z M11.7,12.6c0,0.1-0.1,0.2-0.2,0.2H4.4c-0.1,0-0.2-0.1-0.2-0.2V3.5c0-0.1,0.1-0.2,0.2-0.2h4.4v2.7c0,0.1,0.1,0.2,0.2,0.2
	h2.7L11.7,12.6L11.7,12.6z M8.4,9.7v-3c0-0.2-0.2-0.4-0.4-0.4c-0.2,0-0.4,0.2-0.4,0.4v3c0,0-0.6-0.6-0.6-0.6C6.8,9,6.5,9,6.4,9.2
	c-0.2,0.2-0.2,0.4,0,0.6c0,0,1.3,1.3,1.3,1.3c0.2,0.2,0.4,0.2,0.6,0c0,0,1.3-1.3,1.3-1.3c0.2-0.2,0.2-0.4,0-0.6C9.4,9,9.1,9,9,9.2
	L8.4,9.7z"/>
</svg>
