<?xml version="1.0" encoding="utf-8"?>
<svg version="1.1" width="45px" height="20px" xmlns="http://www.w3.org/2000/svg" xmlns:xlink="http://www.w3.org/1999/xlink" x="0px" y="0px"
	 viewBox="0 0 42 18" style="enable-background:new 0 0 42 14.4;" xml:space="preserve">
<path d="M15.8,13.7h24.8c0.4,0,0.8-0.3,0.8-0.8v-11c0-0.4-0.3-0.8-0.8-0.8H15.8c-0.4,0-0.8,0.3-0.7,0.8v10.9
	C15.1,13.3,15.4,13.7,15.8,13.7z M34,3.6l0.8,3.3C34.9,7.1,35,7.5,35,7.7c0.1-0.2,0.2-0.6,0.2-0.8l0.9-3.4h2.3l-2.3,7.9h-2.3
	l-2.3-7.9L34,3.6L34,3.6z M27.4,8.3c-1.3-0.5-1.9-1.4-1.9-2.4c0-1.5,1.1-2.5,2.7-2.5c0.7,0,1.6,0.2,2,0.5L30.4,4l-0.6,1.9l-0.4-0.2
	c-0.2-0.1-0.7-0.3-1.3-0.3c-0.5,0-0.5,0.3-0.5,0.4c0,0.2,0,0.2,0.9,0.6c1.3,0.6,1.9,1.3,1.9,2.5s-0.7,2.6-2.9,2.6
	c-0.8,0-1.8-0.2-2.3-0.6L25,10.7l0.3-2l0.5,0.2c0.3,0.2,1,0.4,1.6,0.4c0.4,0,0.6-0.2,0.6-0.5C28.2,8.9,28.2,8.7,27.4,8.3z M21.9,3.4
	c0.8,0,1.5,0.2,1.8,0.4L23.9,4l-0.5,2L23,5.8c-0.3-0.2-0.7-0.2-1-0.2c-1,0-1.7,0.7-1.7,1.9s0.6,1.9,1.7,1.9c0.4,0,0.8-0.1,1-0.2
	L23.4,9l0.3,2h-0.2c-0.3,0.2-1,0.3-1.9,0.3c-2.3,0-3.8-1.5-3.8-4S19.5,3.4,21.9,3.4z"/>
<g>
	<path d="M6.3,14.1l4.8-6.4c0.2-0.3,0.1-0.6-0.3-0.6h-2C8.7,7.1,8.6,7,8.6,6.9V2.6c0-0.4-0.3-0.7-0.7-0.7h-4c-0.4,0-0.7,0.3-0.7,0.7
		v4.3C3.2,7,3.1,7.1,3,7.1H0.9c-0.4,0-0.6,0.2-0.3,0.6l4.8,6.4C5.6,14.5,6,14.5,6.3,14.1z"/>
</g>
</svg>
