<?xml version="1.0" encoding="UTF-8"?>
<svg width="35px" height="54px" viewBox="0 0 35 54" version="1.1" xmlns="http://www.w3.org/2000/svg" xmlns:xlink="http://www.w3.org/1999/xlink">
    <!-- Generator: Sketch 43.2 (39069) - http://www.bohemiancoding.com/sketch -->
    <title>Imported Layers Copy 9</title>
    <desc>Created with Sketch.</desc>
    <defs></defs>
    <g id="working" stroke="none" stroke-width="1" fill="none" fill-rule="evenodd">
        <g id="icons-&amp;-widgets" transform="translate(-554.000000, -359.000000)" fill="#5C737F">
            <g id="Group" transform="translate(554.000000, 359.000000)">
                <g id="Imported-Layers-Copy-9">
                    <path d="M34.4851158,32.2721376 C36.1705193,20.2320511 24.8826984,7.10720278 20.0814897,1.51029355 C19.583439,0.906365888 18.8343708,0.606325393 18.1490531,0.606325393 C17.7745189,0.606325393 17.3999848,0.667872161 17.0892012,0.848665793 C16.0293493,1.32949992 15.4675481,2.41041503 15.6548152,3.55672359 C17.2764682,11.8655373 16.4636495,16.4392315 15.1567645,18.0048274 C14.9694974,18.185621 14.7822304,18.4279614 14.5312128,18.4279614 C14.3439458,18.4279614 13.9096456,18.2471678 13.5351114,17.762487 C12.7860432,16.8623655 12.4752596,15.4160165 12.7860432,13.9696674 C12.8458093,13.7927205 12.8458093,13.6119268 12.8458093,13.3695864 C12.8458093,12.0463309 11.7261913,10.9615691 10.4153219,10.9000224 L10.2918053,10.9000224 L10.1045383,10.9000224 C9.66625364,10.9000224 9.23195344,11.080816 8.85741932,11.3231564 C8.67015226,11.4424033 8.54663569,11.5616501 8.35936863,11.7424438 L8.29561814,11.8039905 C2.43455758,18.6664552 -0.246947352,26.432888 0.812904523,33.1761058 C1.43447179,37.2112657 3.43065897,40.6424981 6.48669802,43.231309 C3.7414426,43.3505559 1.56197277,45.5777795 1.56197277,48.2281372 C1.56197277,50.9977418 3.86894358,53.2249655 6.73771557,53.2249655 L28.9348389,53.2249655 C31.8036109,53.2249655 34.1145661,50.9977418 34.1145661,48.2281372 C34.1145661,45.4585327 31.8036109,43.231309 28.9348389,43.231309 L28.3770221,43.231309 C31.8673613,40.1001172 33.927299,36.4265444 34.4851158,32.2721376 L34.4851158,32.2721376 Z M10.2280548,13.3080397 C9.35547001,17.5239933 11.9134584,20.774432 14.4714467,20.774432 C17.5235014,20.774432 20.7070414,16.139191 18.1490531,3.0143427 C25.320983,11.4424033 41.7845467,31.2489226 24.4483982,42.9889686 C24.4483982,42.9889686 30.87126,36.0649572 21.5796262,27.0945157 C22.7629947,36.1880507 18.7108542,41.4849194 15.093014,41.4849194 C12.7860432,41.4849194 10.6663394,39.3153959 10.1643043,34.6224548 C8.54663569,39.6769831 9.16820295,40.7001982 9.85352071,42.6273813 C0.438370402,36.7304316 1.00017158,24.1441175 10.2280548,13.3080397 L10.2280548,13.3080397 Z M31.4928272,48.1665905 C31.4928272,49.5513927 30.3094588,50.6977013 28.8750728,50.6977013 L6.67396508,50.6977013 C5.23957908,50.6977013 4.05621064,49.5513927 4.05621064,48.1665905 C4.05621064,46.7817882 5.23957908,45.6393263 6.67396508,45.6393263 L28.8750728,45.6393263 C30.3094588,45.6393263 31.4928272,46.7817882 31.4928272,48.1665905 L31.4928272,48.1665905 Z M18.2725696,43.1697622 C19.1451544,42.6889281 19.9579732,42.0850004 20.7070414,41.242579 C22.2011935,39.619283 23.2610454,37.4497595 23.8228465,34.9840421 C24.8826984,38.7768617 22.6992442,41.184879 22.5757276,41.3041258 C22.0776769,41.8465067 21.8904099,42.5081345 21.9541603,43.1697622 L18.2725696,43.1697622 L18.2725696,43.1697622 Z" ></path>
                </g>
            </g>
        </g>
    </g>
</svg>