<?xml version="1.0" encoding="utf-8"?>
<svg version="1.1" width="42px" height="20px" xmlns="http://www.w3.org/2000/svg" xmlns:xlink="http://www.w3.org/1999/xlink" x="0px" y="0px"
	 viewBox="0 0 42 51" style="enable-background:new 0 0 42 50;" xml:space="preserve">
<path d="M15.8,31.1h24.8c0.4,0,0.8-0.3,0.8-0.8V19.3c0-0.4-0.3-0.8-0.8-0.8H15.8c-0.4,0-0.8,0.3-0.7,0.8v10.9
	C15.1,30.7,15.4,31.1,15.8,31.1z M34,21l0.8,3.3c0.1,0.2,0.2,0.6,0.2,0.8c0.1-0.2,0.2-0.6,0.2-0.8l0.9-3.4h2.3l-2.3,7.9h-2.3
	l-2.3-7.9L34,21L34,21z M27.4,25.7c-1.3-0.5-1.9-1.4-1.9-2.4c0-1.5,1.1-2.5,2.7-2.5c0.7,0,1.6,0.2,2,0.5l0.2,0.1l-0.6,1.9l-0.4-0.2
	c-0.2-0.1-0.7-0.3-1.3-0.3c-0.5,0-0.5,0.3-0.5,0.4c0,0.2,0,0.2,0.9,0.6c1.3,0.6,1.9,1.3,1.9,2.5c0,1.2-0.7,2.6-2.9,2.6
	c-0.8,0-1.8-0.2-2.3-0.6l-0.2-0.2l0.3-2l0.5,0.2c0.3,0.2,1,0.4,1.6,0.4c0.4,0,0.6-0.2,0.6-0.5C28.2,26.3,28.2,26.1,27.4,25.7z
	 M21.9,20.8c0.8,0,1.5,0.2,1.8,0.4l0.2,0.2l-0.5,2L23,23.2c-0.3-0.2-0.7-0.2-1-0.2c-1,0-1.7,0.7-1.7,1.9s0.6,1.9,1.7,1.9
	c0.4,0,0.8-0.1,1-0.2l0.4-0.2l0.3,2h-0.2c-0.3,0.2-1,0.3-1.9,0.3c-2.3,0-3.8-1.5-3.8-4S19.5,20.8,21.9,20.8z"/>
<g>
	<path d="M6.3,31.5l4.8-6.4c0.2-0.3,0.1-0.6-0.3-0.6H8.8c-0.1,0-0.2-0.1-0.2-0.2v-4.3c0-0.4-0.3-0.7-0.7-0.7h-4
		c-0.4,0-0.7,0.3-0.7,0.7v4.3c0,0.1-0.1,0.2-0.2,0.2H0.9c-0.4,0-0.6,0.2-0.3,0.6l4.8,6.4C5.6,31.9,6,31.9,6.3,31.5z"/>
</g>
</svg>
