<svg width="16px" height="20px" class="icon" xmlns="http://www.w3.org/2000/svg" viewBox="0 0 25.15 32"><path d="M16.06,10.45c1.85,0,2.25-8.07,2.25-8.2a2.25,2.25,0,1,0-4.5,0c0,.13.26,8.2,2.25,8.2h0m0-8.86a.85.85,0,0,1,.79.79,43.77,43.77,0,0,1-.79,5.69,45,45,0,0,1-.79-5.82.74.74,0,0,1,.79-.66h0M12.75,16a1,1,0,0,0-1.06-.53c-1.59,0-6.61,2.25-7.14,2.51a2.2,2.2,0,0,0-.79,3,2.46,2.46,0,0,0,2,1.19A2.5,2.5,0,0,0,6.8,22c0-.13,6.88-4.36,5.95-6h0M6,20.63c-.4.26-.79,0-1.06-.26a.72.72,0,0,1,.26-1.06,42.85,42.85,0,0,1,5.29-2.12A46,46,0,0,1,6,20.63H6M27.43,18c-.66-.4-5.55-2.51-7.14-2.51a1,1,0,0,0-1.06.53c-.93,1.72,5.95,5.82,6.08,6a3.12,3.12,0,0,0,1.06.26,2.18,2.18,0,0,0,2-1.19,2.37,2.37,0,0,0-.93-3h0M27,20.23A.69.69,0,0,1,26,20.5a46,46,0,0,1-4.5-3.44,28.6,28.6,0,0,1,5.29,2.12A1.1,1.1,0,0,1,27,20.23h0M23.2,30.41H16.85v-14a2.27,2.27,0,0,0,1.45-2.12,2.38,2.38,0,0,0-4.76,0A2.19,2.19,0,0,0,15,16.4v14H8.79c-.26,0-.4.4-.4.79s.13.79.4.79H23.2c.26,0,.4-.4.4-.79s-.13-.79-.4-.79h0M16.06,15.21a.9.9,0,0,1-.93-.93,1,1,0,0,1,.93-1.06.9.9,0,0,1,.93.93.94.94,0,0,1-.93,1.06h0" transform="translate(-3.44 0)"/></svg>
