<svg width="20px" class="icon" xmlns="http://www.w3.org/2000/svg" viewBox="0 0 32 32">
  <path d="M31.417 4.388c-0.307-0.306-0.92-0.613-1.992-0.306 0 0-0.766-0.92-0.766-0.92s0 0 0 0c-0.153-0.153-0.153-0.307-0.306-0.307-0.153-0.153-0.306-0.153-0.46-0.153 0 0 0 0 0 0-4.444-1.379-9.195 1.073-11.8 4.444-2.605-3.525-7.356-5.977-11.8-4.598-0.307 0.153-0.613 0.306-0.766 0.613 0 0 0 0 0 0s-0.766 0.92-0.766 0.92c-0.92-0.306-1.686 0.153-1.992 0.306-0.46 0.46-0.766 1.073-0.766 1.686 0 0 0 15.632 0 15.632 0 0.153 0 0.306 0 0.306 0.306 1.226 1.226 2.299 2.452 2.605 0 0 13.027 5.057 13.027 5.057s0 0 0 0c0.153 0 0.306 0.153 0.46 0.153s0.306 0 0.46-0.153c0 0 0 0 0 0s13.026-5.057 13.026-5.057c1.226-0.46 2.146-1.379 2.452-2.605 0-0.153 0-0.306 0-0.306s0-15.632 0-15.632c0.307-0.613 0-1.226-0.46-1.686 0 0 0 0 0 0M4.904 20.48c0 0 0.306-15.938 0.306-15.938 3.985-1.073 8.582 1.992 10.268 5.517 0 0 0 15.325 0 15.325-2.912-2.452-6.896-4.444-10.574-4.904 0 0 0 0 0 0M16.705 25.384c0 0 0-15.325 0-15.325 1.686-3.525 6.13-6.59 10.268-5.517 0 0 0.306 15.938 0.306 15.938-3.678 0.46-7.663 2.452-10.574 4.904 0 0 0 0 0 0"></path>
</svg>
