<svg width="18px" height="16px" class="icon icon-bottom" xmlns="http://www.w3.org/2000/svg" viewBox="0 0 33 29.57"><path d="M19.44,33.28a1,1,0,0,1-1.07-1.07V17.56a1.07,1.07,0,1,1,2.14,0V32.21a1.07,1.07,0,0,1-1.07,1.07h0m0,0a1,1,0,0,1-.75-.32l-4-4.06a1.06,1.06,0,0,1,1.5-1.5l3.21,3.32,3.21-3.32a1.06,1.06,0,0,1,1.5,1.5l-4,4.06a.83.83,0,0,1-.75.32h0m9.41-9h-4a1.07,1.07,0,1,1,0-2.14h4a4.88,4.88,0,0,0,5-4.6,4.34,4.34,0,0,0-1.5-3.21,5.07,5.07,0,0,0-4.06-1.28,1,1,0,0,1-1.18-.75A5,5,0,0,0,21.37,8.9a1.15,1.15,0,0,1-.86-.21A6.94,6.94,0,0,0,13.66,7.4,7,7,0,0,0,9.07,13c0,.32-.21.53-.53.75a4.43,4.43,0,0,0-2.25,5,4.6,4.6,0,0,0,4.6,3.42H14a1.07,1.07,0,0,1,0,2.14h-3.1a6.9,6.9,0,0,1-6.63-4.92A6.52,6.52,0,0,1,7,12.21a9.7,9.7,0,0,1,5.88-7,9.09,9.09,0,0,1,8.56,1.28,7.14,7.14,0,0,1,7.38,4.28,7,7,0,0,1,4.92,1.92A6.61,6.61,0,0,1,36,17.56a7,7,0,0,1-7.17,6.74h0" transform="translate(-3.52 -4.21)"/></svg>
