<?xml version="1.0" encoding="utf-8"?>
<svg version="1.1" width="45px" height="20px" xmlns="http://www.w3.org/2000/svg" xmlns:xlink="http://www.w3.org/1999/xlink" x="0px" y="0px"
	 viewBox="0 0 42 18" style="enable-background:new 0 0 42 16.8;" xml:space="preserve">
<g>
	<path d="M6.3,15.2L11,8.8c0.2-0.3,0.1-0.6-0.3-0.6H8.8C8.7,8.2,8.5,8.1,8.5,8V3.7C8.5,3.3,8.2,3,7.8,3h-4C3.4,3,3.1,3.3,3.1,3.7V8
		c0,0.1-0.1,0.2-0.2,0.2H0.9c-0.4,0-0.6,0.2-0.3,0.6l4.8,6.4C5.6,15.5,6,15.5,6.3,15.2z"/>
</g>
<path d="M14.9,3v10.9c0,0.4,0.3,0.7,0.8,0.7h24.7c0.4,0,0.8-0.3,0.8-0.7V3c0-0.4-0.3-0.8-0.8-0.8H15.6C15.2,2.3,14.9,2.6,14.9,3z
	 M35.1,9.4c-1.3-0.5-1.9-1.3-1.9-2.4c0-1.5,1.1-2.5,2.7-2.5c0.7,0,1.5,0.2,2,0.4l0.2,0.2L37.7,7l-0.4-0.2C37,6.6,36.5,6.4,36,6.4
	c-0.4,0-0.5,0.3-0.5,0.4c0,0.2,0,0.2,0.9,0.6c1.3,0.5,1.9,1.3,1.9,2.4c0,1.2-0.7,2.6-2.9,2.6c-0.8,0-1.8-0.2-2.2-0.6l-0.2-0.2
	l0.3-1.9l0.5,0.2c0.3,0.2,1,0.4,1.6,0.4c0.4,0,0.6-0.2,0.6-0.5C35.9,9.9,35.9,9.7,35.1,9.4z M26.4,4.6h2.3v5.7h3.2v2h-5.5
	C26.4,12.4,26.4,4.6,26.4,4.6z M18,4.6h2.6l1,1.6l0.9-1.6h2.6l-2.3,3.8l2.4,4h-2.7l-1.1-1.9l-1.1,1.9h-2.7l2.4-4L18,4.6z"/>
</svg>
