<?xml version="1.0" encoding="UTF-8"?>
<svg width="51px" height="29px" viewBox="0 0 51 29" version="1.1" xmlns="http://www.w3.org/2000/svg" xmlns:xlink="http://www.w3.org/1999/xlink">
    <!-- Generator: Sketch 43.2 (39069) - http://www.bohemiancoding.com/sketch -->
    <title>Imported Layers Copy 8</title>
    <desc>Created with Sketch.</desc>
    <defs></defs>
    <g id="working" stroke="none" stroke-width="1" fill="none" fill-rule="evenodd">
        <g id="icons-&amp;-widgets" transform="translate(-812.000000, -378.000000)">
            <g id="Group" transform="translate(554.000000, 359.000000)">
                <g id="Imported-Layers-Copy-8" transform="translate(284.000000, 33.487436) rotate(-90.000000) translate(-284.000000, -33.487436) translate(269.500000, 7.487436)">
                    <path d="M13.3899712,51.0122141 L13.3899712,42.0100587 C14.8937948,42.0100587 17.6494717,38.4812138 17.6494717,32.7198343 C17.6494717,26.9504529 14.8937948,23.421608 13.3899712,23.421608 L13.3899712,14.4194525 C20.8250993,14.4194525 26.6484164,22.4573771 26.6484164,32.7198343 C26.6484164,42.9742896 20.8250993,51.0122141 13.3899712,51.0122141"  fill="#5C7380"></path>
                    <path d="M13.3939695,48.5116154 L13.3939695,44.5106574 C17.0564351,44.5106574 20.1511385,39.1093642 20.1511385,32.7198343 C20.1511385,26.3263035 17.0564351,20.9210092 13.3939695,20.9210092 L13.3939695,16.9240522 C19.4234434,16.9240522 24.1494634,23.8617133 24.1494634,32.7198343 C24.1494634,41.5779552 19.4234434,48.5116154 13.3939695,48.5116154" id="Fill-2" fill="#FFFFFF"></path>
                    <path d="M14.9932995,37.508981 C7.56041354,37.508981 1.73885253,29.4710564 1.73885253,19.2166011 C1.73885253,8.95414394 7.56041354,0.916219376 14.9932995,0.916219376 C22.4261854,0.916219376 28.2477464,8.95414394 28.2477464,19.2166011 C28.2477464,29.4710564 22.4261854,37.508981 14.9932995,37.508981 L14.9932995,37.508981 Z M14.9932995,9.91837481 C13.4899293,9.91837481 10.7350835,13.4472197 10.7350835,19.2166011 C10.7350835,24.9779806 13.4899293,28.5068255 14.9932995,28.5068255 C16.4966696,28.5068255 19.2515154,24.9779806 19.2515154,19.2166011 C19.2515154,13.4472197 16.4966696,9.91837481 14.9932995,9.91837481 L14.9932995,9.91837481 Z"  fill="#5C7380"></path>
                    <path d="M14.9932995,35.0083823 C8.95982724,35.0083823 4.23780557,28.0747221 4.23780557,19.2166011 C4.23780557,10.3584802 8.95982724,3.42081907 14.9932995,3.42081907 C21.0267717,3.42081907 25.7487934,10.3584802 25.7487934,19.2166011 C25.7487934,28.0747221 21.0267717,35.0083823 14.9932995,35.0083823 L14.9932995,35.0083823 Z M14.9932995,7.41777608 C11.3308339,7.41777608 8.23613044,12.8230703 8.23613044,19.2166011 C8.23613044,25.606131 11.3308339,31.0074243 14.9932995,31.0074243 C18.655765,31.0074243 21.7504685,25.606131 21.7504685,19.2166011 C21.7504685,12.8230703 18.655765,7.41777608 14.9932995,7.41777608 L14.9932995,7.41777608 Z"  fill="#FFFFFF"></path>
                    <path d="M13.3939695,51.0122141 C5.95708527,51.0122141 0.135524262,42.9742896 0.135524262,32.7198343 C0.135524262,22.4573771 5.95708527,14.4194525 13.3939695,14.4194525 L13.3939695,23.421608 C11.8905994,23.421608 9.13175521,26.9504529 9.13175521,32.7198343 C9.13175521,38.4812138 11.8905994,42.0100587 13.3939695,42.0100587 L13.3939695,51.0122141" id="Fill-5" fill="#5C7380"></path>
                    <path d="M13.3939695,48.5116154 C7.36049729,48.5116154 2.6344773,41.5779552 2.6344773,32.7198343 C2.6344773,23.8617133 7.36049729,16.9240522 13.3939695,16.9240522 C14.4975072,16.9240522 15.393132,17.8162658 15.393132,18.9205302 C15.393132,20.0287956 14.4975072,20.9210092 13.3939695,20.9210092 C9.73150394,20.9210092 6.63280217,26.3263035 6.63280217,32.7198343 C6.63280217,39.1093642 9.73150394,44.5106574 13.3939695,44.5106574 C14.4975072,44.5106574 15.393132,45.406872 15.393132,46.5111364 C15.393132,47.6154008 14.4975072,48.5116154 13.3939695,48.5116154" id="Fill-6" fill="#FFFFFF"></path>
                </g>
            </g>
        </g>
    </g>
</svg>