<?xml version="1.0" encoding="utf-8"?>
<!-- Generator: Adobe Illustrator 21.0.2, SVG Export Plug-In . SVG Version: 6.00 Build 0)  -->
<svg version="1.1" xmlns="http://www.w3.org/2000/svg" xmlns:xlink="http://www.w3.org/1999/xlink" x="0px" y="0px"
	 viewBox="0 0 100 100" style="enable-background:new 0 0 100 100;" xml:space="preserve">
<style type="text/css">
	.bullhorn{fill:#FFFFFF;}
</style>
<path class="bullhorn" d="M93.5,19c-1-0.8-2.2-1-3.4-0.7L19.1,36H9c-2.2,0-4,1.7-4,3.9v15.9c0.1,2.2,1.8,4,4,4h10.2l7.9,2l-2.4,10
	c-0.5,1.9,0.6,3.9,2.6,4.3l22.3,5.6c0.3,0.1,0.6,0.1,1,0.1c0.6,0,1.3-0.2,1.9-0.5c0.7-0.5,1.3-1.3,1.5-2.2l2.5-10l33.7,8.4
	c0.3,0.1,0.6,0.1,1,0.1c0.9,0,1.8-0.3,2.4-0.9c1-0.7,1.5-1.9,1.5-3.1V22C95,20.9,94.4,19.7,93.5,19L93.5,19z M47.8,73.9L32.4,70
	l1.6-6.5l15.4,3.9L47.8,73.9z"/>
</svg>
