<!-- Generated by IcoMoon.io -->
<svg version="1.1" xmlns="http://www.w3.org/2000/svg" width="32" height="32" viewBox="0 0 32 32">
<title>icon-us-map</title>
<path d="M31.868 8.779c-0.030-0.030-0.15-0.019-0.178 0.010-0.033-0.248-0.229-0.204-0.364-0.393-0.172-0.242-0.046-0.668-0.269-0.893-0.296-0.3-0.361-0.031-0.632 0.065-0.113 0.040-0.051-0.168-0.29 0.013-0.29 0.219-0.124 0.853-0.178 1.143-0.034 0.184-0.168 0.416-0.228 0.51-0.23 0.357-1.002 0.43-1.494 0.568-0.383 0.107-0.784 0.313-0.955 0.704-0.145 0.331 0.079 0.42-0.001 0.681-0.163 0.536-1.215 0.102-1.464 0.553-0.082 0.148 0.13 0.242 0.095 0.357-0.046 0.146-0.199 0.254-0.309 0.351-0.142 0.128-0.335 0.234-0.49 0.354-0.259 0.201-0.523 0.495-0.87 0.525-0.226 0.019-0.474-0.121-0.709-0.116 0.242-0.328 0.46-0.691 0.391-1.081-0.040-0.232-0.148-0.743-0.461-0.709-0.099 0.011-0.319 0.419-0.356 0.395-0.11-0.072 0.196-0.551 0.209-0.692 0.010-0.107-0.061-0.432-0.131-0.522-0.116-0.148-0.514-0.32-0.712-0.31-0.301 0.014-0.379 0.216-0.438 0.468-0.047-0.139-0.211 0.076-0.239 0.109-0.199 0.239-0.271 0.487-0.291 0.798-0.033 0.518 0.565 1.304 0.017 1.73-0.985 0.765-0.308-2.689-0.298-2.686-0.117-0.043-0.402 0.468-0.477 0.551 0.068-0.457 0.499-0.865 0.866-0.968 0.335-0.095 0.963 0.054 1.242-0.124 0.351-0.225-0.084-0.206-0.081-0.137-0.095-0.060-0.121-0.261-0.237-0.352 0.060 0.047-0.361-0.007-0.326 0.001-0.002 0-0.033-0.156-0.121-0.166-0.142-0.016-0.348 0.077-0.482 0.12-0.201 0.066-0.382 0.244-0.606 0.201-0.222-0.043-0.403-0.432-0.67-0.254 0.048-0.095 0.385-0.286 0.335-0.428-0.062-0.175-0.462 0.122-0.496 0.145-0.241 0.166-0.709 0.777-1.065 0.581 0.143-0.401-0.236-0.115-0.541-0.075 0.348-0.23 0.554-0.534 0.945-0.704 0.137-0.059 0.841-0.208 0.767-0.427-0.034-0.102-0.509 0.137-0.65 0.148-0.172 0.013-0.439-0.143-0.553-0.139-0.148 0.006-0.257 0.137-0.412 0.125-0.114-0.010-0.128-0.199-0.207-0.222-0.234-0.068-0.657-0.054-0.824-0.076-0.312-0.043-0.385-0.138-0.547-0.321-0.419-0.474-0.097-0.161-0.513-0.008-0.356 0.131-0.985-0.027-1.368-0.035-0.41-0.010-0.822-0.007-1.234-0.024-2.319-0.089-4.673-0.392-6.961-0.862-0.536-0.11-1.066-0.216-1.603-0.322-0.698-0.137-1.398-0.293-2.077-0.504-0.575-0.179-0.49-0.158-0.477 0.306 0.015 0.008-0.328 0.107-0.408 0.099-0.225-0.020-0.45-0.375-0.633-0.351-0.289 0.037-0.078 1.235-0.113 1.46-0.158 1.003-1.16 2.068-1.247 3.159-0.013 0.168 0.048 0.36-0.012 0.563-0.084 0.284-0.395 0.501-0.435 0.777-0.033 0.222 0.119 0.645 0.125 0.884 0.009 0.369 0.096 0.715 0.19 1.075 0.019 0.073 0.181 0.135 0.198 0.211 0.026 0.118-0.099 0.241-0.066 0.38 0.063 0.263 0.191 0.356 0.21 0.577 0.003 0.036-0.099 0.173-0.099 0.242 0 0.201 0.161 0.439 0.25 0.61 0.042 0.081 0.107 0.168 0.14 0.253 0.080 0.205 0.041 0.365 0.088 0.538 0.085 0.316 0.861 0.727 1.175 0.954 0.014 0.010-0.043 0.096-0.041 0.097 0.022 0.011 0.289 0.102 0.293 0.105 0.21 0.163 0.16 0.191 0.257 0.492 0.228 0.706 1.114 0.333 1.529 0.614 0.658 0.444 1.393 1.001 2.159 1.329 0.419 0.178 1.251 0.395 1.698 0.291 0.522-0.122 0.157-0.421 0.875-0.319 0.54 0.078 1.021 0.566 1.344 1.004 0.278 0.376 0.336 1.418 1.085 1.403 0.395-0.008 0.358-0.522 0.745-0.614 0.344-0.081 0.792 0.269 0.961 0.517 0.216 0.319 0.328 0.715 0.545 1.050 0.087 0.133 0.189 0.129 0.247 0.271 0.036 0.087 0.011 0.312 0.045 0.418 0.148 0.466 0.656 0.704 1.142 0.795 0.515 0.096 0.389-0.018 0.371-0.467-0.008-0.221 0.164-0.804 0.043-0.939 0.825-0.272 1.418-1.247 2.26-1.427 0.090-0.019 1.785 0.157 1.664 0.006 0.367 0.135 0.226 0.458 0.872 0.328-0.109 0.088 0.466 0.107 0.284-0.173 0 0 1.276 0.373 0.3-0.206 0.036-0.008 0.176-0.226 0.145-0.267-0.19-0.254-0.033-0.131-0.309-0.018-0.164-0.292 0.997-0.315 1.065-0.565 0.196 0.007-0.068 0.26 0.053 0.319 0.085 0.043 0.49-0.131 0.557-0.142 0.262-0.046 0.462-0.082 0.721 0.005 0.16 0.053 0.319 0.28 0.42 0.312 0.335 0.108 0.633-0.332 0.899-0.313 0.135 0.010 0.821 0.516 0.918 0.647 0.186 0.253 0.116 0.793 0.227 1.045 0.099 0.226 0.199 0.502 0.387 0.704 0.104 0.111 0.28 0.337 0.413 0.428-0.094-0.066 0.178 0.147 0.13 0.095 0.077-0.082 0.142-0.065 0.197 0.052 0.051 0.116 0.108 0.23 0.169 0.341 0.431 0.256 0.609-0.113 0.683-0.435 0.132-0.568-0.025-0.997-0.318-1.491-0.181-0.306-0.23-0.583-0.393-0.873-0.275-0.488-0.753-0.852-0.738-1.48 0.007-0.342 0.212-0.93 0.427-1.152 0.183-0.189 0.408-0.28 0.573-0.518 0.16-0.231 0.199-0.549 0.412-0.744 0.059-0.053 0.109 0.055 0.217-0.049 0.128-0.123 0.171-0.258 0.297-0.392 0.067-0.072 0.954-0.652 0.808-0.751-0.087-0.059-0.286 0.254-0.243-0.053 0.035-0.253 0.385-0.184 0.424-0.534 0.122 0.242-0.267 0.46-0.201 0.567 0.108 0.175 0.407-0.277 0.41-0.364 0.007-0.198-0.195-0.388-0.304-0.548-0.184-0.268-0.169-0.417-0.495-0.471 0.267-0.325 0.726-1.086 0.377-1.527 0.385 0.101 0.483-1.196 0.348-1.373 0.006 0.581-0.057 0.157 0.054-0.336-0.072-0.316 1.281-0.624 1.4-0.69 0.075-0.041 0.354-0.226 0.384-0.274 0.299-0.462-0.235-0.367-0.234-0.365 0.013 0.088 0.169 0.049 0.161 0.162-0.008 0.119-0.449-0.236-0.465-0.264-0.022-0.039-0.040-0.386-0.035-0.454 0.019-0.214 0.086-0.525 0.193-0.656 0.146-0.178 0.416-0.048 0.473-0.439 0.022 0.027 0.023 0.111 0.075 0.111 0.022 0 0.292-0.331 0.338-0.367 0.266-0.21 0.709-0.487 0.354-0.848-0.012-0.012 0.183 0.187 0 0"></path>
</svg>
