<svg width="20px" height="16px" class="icon" xmlns="http://www.w3.org/2000/svg" viewBox="0 0 32 24.2"><path d="M31.93,10.13,30.86,5.64a1.52,1.52,0,0,0-1.18-1.18l-.59-.24A1.28,1.28,0,0,0,27.44,5l-1.89,5.67L5.33,4a.72.72,0,0,0-1.06.47.79.79,0,0,0,.36.95V20.53a.72.72,0,0,0-.36.71v5.44H.37c-.24,0-.35.35-.35.71s.12.71.35.71H9.82c.24,0,.35-.35.35-.71s-.12-.71-.35-.71h-4V21.24a.84.84,0,0,0-.36-.71V5.64L14,8.47l-.95,11h-.47a1,1,0,0,0-.83.71L11.12,27c0,.24,0,.47.24.59a.9.9,0,0,0,.59.24h9.45a.81.81,0,0,0,.83-.83v-.24l-.59-6.74a.79.79,0,0,0-.83-.71h-.47l-.71-9.22,5.56,2L23.3,17.81a.89.89,0,0,0,.12.95.87.87,0,0,0,.71.59l.59.24c.12,0,.35.12.47.12a2,2,0,0,0,1.18-.35l3.55-3a2.16,2.16,0,0,0,.83-1.18l1.18-3.66a2.87,2.87,0,0,0,0-1.42h0m-12.29,11h.47l.47,5.32H12.9l.47-5.32h.47a1,1,0,0,0,.83-.71l.95-11.23L18,10l.83,10.52a.81.81,0,0,0,.83.59h0m10.75-10-1.18,3.66c0,.12-.24.35-.35.47l-3.55,3h-.12L25,18l2-6.15h0l2-6.15.35.12.12.12,1.06,4.49c-.12.12-.12.47-.12.59h0" transform="translate(-0.01 -3.89)"/></svg>
