<svg xmlns="http://www.w3.org/2000/svg" xmlns:xlink="http://www.w3.org/1999/xlink" width="194px" height="245px" viewBox="0 0 378.93 522.58"><defs><clipPath id="a" transform="translate(11.36 11.36)"><path d="M113.56,246.44H347.42v24.24H113.56Zm-2.39-57.88-7.29-30.26L131,177.57H118.53a4.39,4.39,0,0,0-4.39,4.4v9.35ZM72.68,152.88l21.07.85,5.8,24ZM60.19,127.25l24.35,17.31-20.23-.82Zm-21.61-6,11.2.52L53,134.64ZM28,104.35l11.52,8.18-9.58-.44ZM10.4,95.17l1.71-2.09L17,96.52l1.54,6.15ZM197,218.1l62.1-45.83,7.09,65.37H194.9Zm9.69-89.36,48.19,35.73L198.3,206.23Zm7.61-70.16,31.94,24-37.6,28.23Zm5.4-49.78h21.68l1.23,11.38L216.33,39.91Zm28.66,64.36L217.53,50l26.19-19.66Zm1.89,17.4,7,64.74-46.92-34.78ZM351.81,237.64H275L250.21,8.79h4.18a4.4,4.4,0,0,0,0-8.79H206.7a4.4,4.4,0,0,0,0,8.79h4.17L186.07,237.64h-3.35V182a4.4,4.4,0,0,0-4.39-4.4H146.15l-132.3-94a4.38,4.38,0,0,0-5.94.81L1,92.79a4.41,4.41,0,0,0,.41,6L114.14,203.29v34.35h-5a4.39,4.39,0,0,0-4.39,4.4v33a4.4,4.4,0,0,0,4.39,4.4h13.6v82.71h27.61V279.48H316.6v82.71h27.61V279.48h7.6a4.4,4.4,0,0,0,4.39-4.4V242A4.4,4.4,0,0,0,351.81,237.64Z" style="fill:none;clip-rule:evenodd"/></clipPath><clipPath id="b" transform="translate(11.36 11.36)"><rect width="356.72" height="511.22" style="fill:none"/></clipPath><clipPath id="c" transform="translate(11.36 11.36)"><rect x="224.97" y="7.3" width="10.08" height="323.55"/></clipPath><clipPath id="d" transform="translate(11.36 11.36)"><rect width="356.72" height="511.22"/></clipPath></defs><title>rig-404</title><g style="isolation:isolate"><g style="clip-path:url(#a)"><g style="clip-path:url(#b)"><rect width="378.93" height="384.91"/></g></g><rect x="236.33" y="18.66" width="10.08" height="323.55"/><g style="clip-path:url(#c)"><rect x="11.36" y="11.36" width="356.72" height="511.22"/><g style="clip-path:url(#d)"><rect x="224.97" y="7.3" width="32.8" height="346.27"/></g></g><path d="M186.83,368.57q1.55-17.81,13.38-28.26t30-10.45q19.26,0,31.14,10.27a33.07,33.07,0,0,1,11.87,26.16,35,35,0,0,1-4.06,16.62q-4.06,7.67-15.29,17t-13.79,14.84q-2.56,5.53-2.56,18.4H221.43q0-17,3.93-24.88t14.47-16.85q10.55-8.95,13.1-13.74a21.34,21.34,0,0,0,2.56-10.18q0-10.5-6.94-17.3t-18.17-6.8q-21.91,0-25.75,25.2ZM239.42,466H220.7V447.28h18.72Z" transform="translate(11.36 11.36)"/></g></svg>