<?xml version="1.0" encoding="UTF-8" standalone="no"?>
<svg width="14px" height="14px" viewBox="0 0 14 14" version="1.1" xmlns="http://www.w3.org/2000/svg" xmlns:xlink="http://www.w3.org/1999/xlink" xmlns:sketch="http://www.bohemiancoding.com/sketch/ns">
    <!-- Generator: Sketch 3.3.3 (12081) - http://www.bohemiancoding.com/sketch -->
    <title>i-term--neutral</title>
    <desc>Created with Sketch.</desc>
    <defs></defs>
    <g id="Page-1" stroke="none" stroke-width="1" fill="none" fill-rule="evenodd" sketch:type="MSPage">
        <g id="Simple-Copy" sketch:type="MSArtboardGroup" transform="translate(-283.000000, -868.000000)">
            <g id="i-term--neutral" sketch:type="MSLayerGroup" transform="translate(284.000000, 869.000000)">
                <circle id="Oval-48" stroke="#EFDECD" sketch:type="MSShapeGroup" cx="6" cy="6" r="6"></circle>
                <path d="M9.41873077,8.22461538 L6.07926923,9.60646154 C6.03726923,9.62457692 5.991,9.63461538 5.94230769,9.63461538 C5.89361538,9.63461538 5.84734615,9.62457692 5.80534615,9.60646154 L2.46588462,8.22461538 C2.33930769,8.17303846 2.25,8.049 2.25,7.90384615 L2.25,2.59615385 C2.25,2.40496154 2.40496154,2.25 2.59615385,2.25 C2.643,2.25 2.68776923,2.25946154 2.7285,2.27630769 L2.72907692,2.27653846 C2.73011538,2.277 2.73115385,2.27734615 2.73219231,2.27780769 L5.94230769,3.60611538 L9.15242308,2.27780769 C9.15346154,2.27734615 9.1545,2.277 9.15553846,2.27653846 L9.15611538,2.27630769 C9.19696154,2.25946154 9.24161538,2.25 9.28846154,2.25 C9.47965385,2.25 9.63461538,2.40496154 9.63461538,2.59615385 L9.63461538,7.90384615 C9.63461538,8.049 9.54530769,8.17303846 9.41873077,8.22461538 L9.41873077,8.22461538 Z M5.59615385,8.77061538 L5.59615385,4.21211538 L2.94230769,3.114 L2.94230769,7.6725 L5.59615385,8.77061538 L5.59615385,8.77061538 Z M8.94230769,3.114 L6.28846154,4.21211538 L6.28846154,8.77061538 L8.94230769,7.6725 L8.94230769,3.114 L8.94230769,3.114 Z" id="Imported-Layers-Copy-3" fill="#EFDECD" sketch:type="MSShapeGroup"></path>
            </g>
        </g>
    </g>
</svg>