<?xml version="1.0" encoding="UTF-8" standalone="no"?>
<svg width="10px" height="11px" viewBox="0 0 10 11" version="1.1" xmlns="http://www.w3.org/2000/svg" xmlns:xlink="http://www.w3.org/1999/xlink" xmlns:sketch="http://www.bohemiancoding.com/sketch/ns">
    <!-- Generator: Sketch 3.3.3 (12081) - http://www.bohemiancoding.com/sketch -->
    <title>i-term--secondary</title>
    <desc>Created with Sketch.</desc>
    <defs></defs>
    <g id="Page-1" stroke="none" stroke-width="1" fill="none" fill-rule="evenodd" sketch:type="MSPage">
        <g id="Simple-Copy" sketch:type="MSArtboardGroup" transform="translate(-627.000000, -847.000000)" fill="#631010">
            <path d="M636.558308,855.466154 L632.105692,857.308615 C632.049692,857.332769 631.988,857.346154 631.923077,857.346154 C631.858154,857.346154 631.796462,857.332769 631.740462,857.308615 L627.287846,855.466154 C627.119077,855.397385 627,855.232 627,855.038462 L627,847.961538 C627,847.706615 627.206615,847.5 627.461538,847.5 C627.524,847.5 627.583692,847.512615 627.638,847.535077 L627.638769,847.535385 C627.640154,847.536 627.641538,847.536462 627.642923,847.537077 L631.923077,849.308154 L636.203231,847.537077 C636.204615,847.536462 636.206,847.536 636.207385,847.535385 L636.208154,847.535077 C636.262615,847.512615 636.322154,847.5 636.384615,847.5 C636.639538,847.5 636.846154,847.706615 636.846154,847.961538 L636.846154,855.038462 C636.846154,855.232 636.727077,855.397385 636.558308,855.466154 L636.558308,855.466154 Z M631.461538,856.194154 L631.461538,850.116154 L627.923077,848.652 L627.923077,854.73 L631.461538,856.194154 L631.461538,856.194154 Z M635.923077,848.652 L632.384615,850.116154 L632.384615,856.194154 L635.923077,854.73 L635.923077,848.652 L635.923077,848.652 Z" id="i-term--secondary" sketch:type="MSShapeGroup"></path>
        </g>
    </g>
</svg>