<?xml version="1.0" encoding="UTF-8" standalone="no"?>
<svg width="10px" height="11px" viewBox="0 0 10 11" version="1.1" xmlns="http://www.w3.org/2000/svg" xmlns:xlink="http://www.w3.org/1999/xlink" xmlns:sketch="http://www.bohemiancoding.com/sketch/ns">
    <!-- Generator: Sketch 3.3.3 (12081) - http://www.bohemiancoding.com/sketch -->
    <title>i-term--primary</title>
    <desc>Created with Sketch.</desc>
    <defs></defs>
    <g id="Page-1" stroke="none" stroke-width="1" fill="none" fill-rule="evenodd" sketch:type="MSPage">
        <g id="Simple-Copy" sketch:type="MSArtboardGroup" transform="translate(-377.000000, -847.000000)" fill="#022C53">
            <path d="M386.558308,855.466154 L382.105692,857.308615 C382.049692,857.332769 381.988,857.346154 381.923077,857.346154 C381.858154,857.346154 381.796462,857.332769 381.740462,857.308615 L377.287846,855.466154 C377.119077,855.397385 377,855.232 377,855.038462 L377,847.961538 C377,847.706615 377.206615,847.5 377.461538,847.5 C377.524,847.5 377.583692,847.512615 377.638,847.535077 L377.638769,847.535385 C377.640154,847.536 377.641538,847.536462 377.642923,847.537077 L381.923077,849.308154 L386.203231,847.537077 C386.204615,847.536462 386.206,847.536 386.207385,847.535385 L386.208154,847.535077 C386.262615,847.512615 386.322154,847.5 386.384615,847.5 C386.639538,847.5 386.846154,847.706615 386.846154,847.961538 L386.846154,855.038462 C386.846154,855.232 386.727077,855.397385 386.558308,855.466154 L386.558308,855.466154 Z M381.461538,856.194154 L381.461538,850.116154 L377.923077,848.652 L377.923077,854.73 L381.461538,856.194154 L381.461538,856.194154 Z M385.923077,848.652 L382.384615,850.116154 L382.384615,856.194154 L385.923077,854.73 L385.923077,848.652 L385.923077,848.652 Z" id="i-term--primary" sketch:type="MSShapeGroup"></path>
        </g>
    </g>
</svg>