<svg xmlns="http://www.w3.org/2000/svg" style="display: none;">
  
    <symbol id="eiti-coal" viewBox="0 0 512 512">
      <path d="m202 389c-15 0-27 12-27 27 0 15 12 27 27 27 15 0 27-12 27-27-2-15-12-27-27-27z m0 37c-6 0-11-4-11-10 0-6 5-11 11-11 6 0 10 5 10 11 0 6-4 10-10 10z m108-37c-15 0-27 12-27 27 0 15 12 27 27 27 15 0 27-12 27-27 0-15-12-27-27-27z m0 37c-6 0-10-4-10-10 0-6 4-11 10-11 6 0 11 5 11 11 1 6-3 10-11 10z m140-208c-4-7-13-10-24-10l-24 0c-9-8-16-14-24-24-6-8-26-6-35-11-30-15-51-33-85-22-14 3-23 7-38 6-18-2-39 1-53 16-3 3-48 27-45 35l-36 0c-11 0-20 3-24 10-5 8-6 15-3 24l57 150c6 16 26 28 44 28l0-19c-11 0-21-8-24-17l-56-149c0-2-2-5 0-6 1-2 4-3 7-3l339 0c3 0 6 0 8 1 1 2 0 5 0 6l-58 151c-3 9-15 17-24 17l0 21c18 0 38-14 44-30l56-150c4-9 3-18-2-24z m-188 187l-15 0c-6 0-11 5-11 11 0 6 5 10 11 10l15 0c6 0 11-4 11-10 0-6-5-11-11-11z"/>
    </symbol>
  
    <symbol id="eiti-gas" viewBox="0 0 512 512">
      <path d="m384 289c12-93-71-194-107-236-3-5-9-8-15-8-3 0-6 0-8 2-7 3-12 12-10 21 12 65 6 99-3 111-2 2-3 3-5 3-1 0-4-1-7-4-6-8-8-18-6-29 0-1 0-3 0-4 0-11-9-19-18-20 0 0 0 0-2 0 0 0-1 0-1 0-3 0-6 1-9 3-2 2-3 2-3 3-44 53-64 113-56 164 5 32 20 57 42 77-21 1-36 18-36 39 0 21 17 39 39 39l166 0c21 0 39-16 39-39 0-21-17-39-39-39l-5 0c24-23 41-51 44-83z m-179-146c-6 33 12 57 31 57 23 0 47-36 28-137 52 65 176 217 46 309 0 0 48-53-21-122 9 71-21 111-48 111-17 0-33-16-36-52-12 39-8 46-3 61-71-48-66-144 3-227z m158 268c0 11-9 20-20 20l-165 0c-11 0-20-9-20-20 0-10 9-19 20-19l165 0c11 0 20 9 20 19z m-99-39c6-3 12-9 18-15 10-12 19-29 22-48 8 28-9 48-9 48-3 4-4 9-4 15z m-67 39c0 8-6 15-15 15-8 0-15-7-15-15 0-8 7-15 15-15 9 0 15 7 15 15z m53 0c0 8-7 15-15 15-8 0-15-7-15-15 0-8 7-15 15-15 8 0 15 7 15 15z m51 0c0 8-7 15-15 15-8 0-15-7-15-15 0-8 7-15 15-15 8 0 15 7 15 15z m51 0c0 8-6 15-15 15-8 0-15-7-15-15 0-8 7-15 15-15 9 0 15 7 15 15z"/>
    </symbol>
  
    <symbol id="eiti-geo" viewBox="0 0 512 512">
      <path d="m414 206l-328 0c-14 0-20 3-20 17l0 206c0 14 6 23 20 23l34 0 0-23-30 0 0-199 320 0 0 199-128 0 0 23 132 0c14 0 20-11 20-24l0-207c0-15-6-15-20-15z m-42-73l-59 0c-4 0-9 3-9 7l0 74c0 6 5 10 11 10l60 0c4 0 7-3 7-7l0-77c-1-6-6-7-10-7z m-15 76l-30 0c-2 0-3-1-3-3l0-51c0-1 1-3 3-3l30 0c1 0 3 2 3 3l0 51c0 2-2 3-3 3z m-194 208c-8-13-12-25 1-42l-10-11c-23 26-11 49-3 59l1 3c6 11 11 20-6 44l12 9c21-32 14-47 6-59z m43 21c-7-13-12-25 2-42l-11-10c-22 25-10 48-3 58l2 3c6 11 10 20-6 44l12 9c21-32 13-47 6-59z m44-10c-8-14-12-26 1-42l-10-11c-23 26-9 48-3 59l1 3c6 10 11 19-6 43l12 9c22-31 14-46 6-58z m12-359c-8-13-12-25 2-42l-11-10c-23 25-11 48-3 58l1 3c7 11 11 20-6 44l13 9c21-32 13-47 6-59z m89 2l-2-3c-7-14-12-26 2-42l-11-11c-24 27-10 50-4 60l1 3c6 11 11 20-6 44l12 9c23-33 14-48 8-60z m-69 62l-59 0c-5 0-9 3-9 7l0 74c0 6 4 10 10 10l61 0c4 0 7-3 7-7l0-77c-1-6-6-7-10-7z m-15 76l-31 0c-1 0-3-1-3-3l0-51c0-1 2-3 3-3l31 0c1 0 3 2 3 3l0 51c0 2-2 3-3 3z"/>
    </symbol>
  
    <symbol id="eiti-oil" viewBox="0 0 512 512">
      <path d="m479 199l-15-63c-2-8-9-16-17-17l-7-3c-9-3-20 3-23 12l-25 78-287-95c-6-1-12 2-15 8-1 4 0 11 5 14l0 213c-3 0-5 5-5 8l0 83-52 0c-3 0-6 3-6 6 0 3 3 6 6 6l128 0c3 0 6-3 6-6 0-3-3-6-6-6l-53 0 0-83c0-5-3-8-6-9l0-209 120 39-12 156-7 0c-6 0-11 5-11 11l-9 95c0 3 2 6 3 9 2 3 5 3 8 3l132 0c6 0 11-5 11-11 0-1 0-1 0-3l-8-95c0-6-6-10-10-10l-8 0-10-130 78 26-26 80c-1 4-1 9 2 13 1 5 6 8 10 9l8 3c1 0 4 2 8 2 6 0 12-2 16-6l50-42c4-5 9-11 10-17l17-51c1-5 1-12 0-18z m-166 153l6 74-108 0 6-74 7 0c6 0 11-4 11-10l13-158 35 10 12 148c0 6 6 10 11 10z m145-140l-17 52c0 1-3 4-4 6l-50 42c0 0-1 0-1 0l-5-2 29-86 27-87 4 2c0 0 2 1 2 1l15 63c0 3 0 6 0 9z m21-13l-15-63c-2-8-9-16-17-17l-7-3c-9-3-20 3-23 12l-25 78-287-95c-6-1-12 2-15 8-1 4 0 11 5 14l0 213c-3 0-5 5-5 8l0 83-52 0c-3 0-6 3-6 6 0 3 3 6 6 6l128 0c3 0 6-3 6-6 0-3-3-6-6-6l-53 0 0-83c0-5-3-8-6-9l0-209 120 39-12 156-7 0c-6 0-11 5-11 11l-9 95c0 3 2 6 3 9 2 3 5 3 8 3l132 0c6 0 11-5 11-11 0-1 0-1 0-3l-8-95c0-6-6-10-10-10l-8 0-10-130 78 26-26 80c-1 4-1 9 2 13 1 5 6 8 10 9l8 3c1 0 4 2 8 2 6 0 12-2 16-6l50-42c4-5 9-11 10-17l17-51c1-5 1-12 0-18z m-166 153l6 74-108 0 6-74 7 0c6 0 11-4 11-10l13-158 35 10 12 148c0 6 6 10 11 10z m145-140l-17 52c0 1-3 4-4 6l-50 42c0 0-1 0-1 0l-5-2 29-86 27-87 4 2c0 0 2 1 2 1l15 63c0 3 0 6 0 9z"/>
    </symbol>
  
    <symbol id="eiti-other" viewBox="0 0 512 512">
      <path d="m123 215c-27 0-48 21-48 49 0 27 21 48 48 48 28 0 49-21 49-48 0-28-21-49-49-49z m0 79c-16 0-28-14-28-29 0-15 13-29 28-29 17 0 29 14 29 29 0 15-13 29-29 29z m136-79c-27 0-48 21-48 49 0 27 21 48 48 48 27 0 48-21 48-48 0-28-21-49-48-49z m0 79c-17 0-29-14-29-29 0-15 14-29 29-29 17 0 29 14 29 29 0 15-12 29-29 29z m136-79c-28 0-49 21-49 49 0 27 21 48 49 48 27 0 48-21 48-48 0-28-21-49-48-49z m0 79c-17 0-29-14-29-29 0-15 13-29 29-29 15 0 28 14 28 29 0 15-12 29-28 29z"/>
    </symbol>
  
    <symbol id="eiti-wind" viewBox="0 0 512 512">
      <path d="m248 441c-6 0-9-4-9-9l0-193c0-6 5-9 9-9 6 0 10 5 10 9l0 193c0 6-5 9-10 9z m0-193c-16 0-28-13-28-28 0-15 13-29 28-29 17 0 29 14 29 29 0 15-13 28-29 28z m0-37c-6 0-9 4-9 9 0 6 5 9 9 9 6 0 10-5 10-9 0-6-5-9-10-9z m0-39c-25 0-28-106-28-107 0-17 13-29 28-29 17 0 29 14 29 29 0 1-4 107-29 107z m0-116c-6 0-9 4-9 9 0 10 5 51 9 74 5-23 10-64 10-74 0-5-5-9-10-9z m-135 268c-11 0-20-6-26-15-7-14-3-32 11-39 7-5 72-34 93-34 8 0 12 3 14 6 12 22-79 77-79 77-3 3-7 5-13 5z m65-65c-24 8-62 23-70 27-4 3-6 9-3 14 3 4 9 6 14 3 7-5 41-27 59-44z m214 65c-5 0-10-2-14-3-2 0-90-56-78-77 1-3 6-6 13-6 21 0 86 29 94 33 13 8 19 26 10 39-6 8-15 14-25 14z m-65-65c18 15 51 39 60 44 5 3 11 1 14-3 3-5 1-11-3-14-9-4-47-19-71-27z m143 193l-425 0c-6 0-9-5-9-9 0-6 5-9 9-9l425 0c6 0 9 4 9 9 1 4-3 9-9 9z"/>
    </symbol>
  
</svg>
