<svg xmlns="http://www.w3.org/2000/svg" style="display: none;">
  
    <symbol id="eiti-coal" viewBox="0 0 512 512">
      <path d="m202 389c-15 0-27 12-27 27 0 15 12 27 27 27 15 0 27-12 27-27-2-15-12-27-27-27z m0 37c-6 0-11-4-11-10 0-6 5-11 11-11 6 0 10 5 10 11 0 6-4 10-10 10z m108-37c-15 0-27 12-27 27 0 15 12 27 27 27 15 0 27-12 27-27 0-15-12-27-27-27z m0 37c-6 0-10-4-10-10 0-6 4-11 10-11 6 0 11 5 11 11 1 6-3 10-11 10z m140-208c-4-7-13-10-24-10l-24 0c-9-8-16-14-24-24-6-8-26-6-35-11-30-15-51-33-85-22-14 3-23 7-38 6-18-2-39 1-53 16-3 3-48 27-45 35l-36 0c-11 0-20 3-24 10-5 8-6 15-3 24l57 150c6 16 26 28 44 28l0-19c-11 0-21-8-24-17l-56-149c0-2-2-5 0-6 1-2 4-3 7-3l339 0c3 0 6 0 8 1 1 2 0 5 0 6l-58 151c-3 9-15 17-24 17l0 21c18 0 38-14 44-30l56-150c4-9 3-18-2-24z m-188 187l-15 0c-6 0-11 5-11 11 0 6 5 10 11 10l15 0c6 0 11-4 11-10 0-6-5-11-11-11z"/>
    </symbol>
  
    <symbol id="eiti-gas" viewBox="0 0 512 512">
      <path d="m384 289c12-93-71-194-107-236-3-5-9-8-15-8-3 0-6 0-8 2-7 3-12 12-10 21 12 65 6 99-3 111-2 2-3 3-5 3-1 0-4-1-7-4-6-8-8-18-6-29 0-1 0-3 0-4 0-11-9-19-18-20 0 0 0 0-2 0 0 0-1 0-1 0-3 0-6 1-9 3-2 2-3 2-3 3-44 53-64 113-56 164 5 32 20 57 42 77-21 1-36 18-36 39 0 21 17 39 39 39l166 0c21 0 39-16 39-39 0-21-17-39-39-39l-5 0c24-23 41-51 44-83z m-179-146c-6 33 12 57 31 57 23 0 47-36 28-137 52 65 176 217 46 309 0 0 48-53-21-122 9 71-21 111-48 111-17 0-33-16-36-52-12 39-8 46-3 61-71-48-66-144 3-227z m158 268c0 11-9 20-20 20l-165 0c-11 0-20-9-20-20 0-10 9-19 20-19l165 0c11 0 20 9 20 19z m-99-39c6-3 12-9 18-15 10-12 19-29 22-48 8 28-9 48-9 48-3 4-4 9-4 15z m-67 39c0 8-6 15-15 15-8 0-15-7-15-15 0-8 7-15 15-15 9 0 15 7 15 15z m53 0c0 8-7 15-15 15-8 0-15-7-15-15 0-8 7-15 15-15 8 0 15 7 15 15z m51 0c0 8-7 15-15 15-8 0-15-7-15-15 0-8 7-15 15-15 8 0 15 7 15 15z m51 0c0 8-6 15-15 15-8 0-15-7-15-15 0-8 7-15 15-15 9 0 15 7 15 15z"/>
    </symbol>
  
    <symbol id="eiti-geo" viewBox="0 0 512 512">
      <path d="m414 206l-328 0c-14 0-20 3-20 17l0 206c0 14 6 23 20 23l34 0 0-23-30 0 0-199 320 0 0 199-128 0 0 23 132 0c14 0 20-11 20-24l0-207c0-15-6-15-20-15z m-42-73l-59 0c-4 0-9 3-9 7l0 74c0 6 5 10 11 10l60 0c4 0 7-3 7-7l0-77c-1-6-6-7-10-7z m-15 76l-30 0c-2 0-3-1-3-3l0-51c0-1 1-3 3-3l30 0c1 0 3 2 3 3l0 51c0 2-2 3-3 3z m-194 208c-8-13-12-25 1-42l-10-11c-23 26-11 49-3 59l1 3c6 11 11 20-6 44l12 9c21-32 14-47 6-59z m43 21c-7-13-12-25 2-42l-11-10c-22 25-10 48-3 58l2 3c6 11 10 20-6 44l12 9c21-32 13-47 6-59z m44-10c-8-14-12-26 1-42l-10-11c-23 26-9 48-3 59l1 3c6 10 11 19-6 43l12 9c22-31 14-46 6-58z m12-359c-8-13-12-25 2-42l-11-10c-23 25-11 48-3 58l1 3c7 11 11 20-6 44l13 9c21-32 13-47 6-59z m89 2l-2-3c-7-14-12-26 2-42l-11-11c-24 27-10 50-4 60l1 3c6 11 11 20-6 44l12 9c23-33 14-48 8-60z m-69 62l-59 0c-5 0-9 3-9 7l0 74c0 6 4 10 10 10l61 0c4 0 7-3 7-7l0-77c-1-6-6-7-10-7z m-15 76l-31 0c-1 0-3-1-3-3l0-51c0-1 2-3 3-3l31 0c1 0 3 2 3 3l0 51c0 2-2 3-3 3z"/>
    </symbol>
  
    <symbol id="eiti-oil" viewBox="0 0 512 512">
      <path d="m479 199l-15-63c-2-8-9-16-17-17l-7-3c-9-3-20 3-23 12l-25 78-287-95c-6-1-12 2-15 8-1 4 0 11 5 14l0 213c-3 0-5 5-5 8l0 83-52 0c-3 0-6 3-6 6 0 3 3 6 6 6l128 0c3 0 6-3 6-6 0-3-3-6-6-6l-53 0 0-83c0-5-3-8-6-9l0-209 120 39-12 156-7 0c-6 0-11 5-11 11l-9 95c0 3 2 6 3 9 2 3 5 3 8 3l132 0c6 0 11-5 11-11 0-1 0-1 0-3l-8-95c0-6-6-10-10-10l-8 0-10-130 78 26-26 80c-1 4-1 9 2 13 1 5 6 8 10 9l8 3c1 0 4 2 8 2 6 0 12-2 16-6l50-42c4-5 9-11 10-17l17-51c1-5 1-12 0-18z m-166 153l6 74-108 0 6-74 7 0c6 0 11-4 11-10l13-158 35 10 12 148c0 6 6 10 11 10z m145-140l-17 52c0 1-3 4-4 6l-50 42c0 0-1 0-1 0l-5-2 29-86 27-87 4 2c0 0 2 1 2 1l15 63c0 3 0 6 0 9z m21-13l-15-63c-2-8-9-16-17-17l-7-3c-9-3-20 3-23 12l-25 78-287-95c-6-1-12 2-15 8-1 4 0 11 5 14l0 213c-3 0-5 5-5 8l0 83-52 0c-3 0-6 3-6 6 0 3 3 6 6 6l128 0c3 0 6-3 6-6 0-3-3-6-6-6l-53 0 0-83c0-5-3-8-6-9l0-209 120 39-12 156-7 0c-6 0-11 5-11 11l-9 95c0 3 2 6 3 9 2 3 5 3 8 3l132 0c6 0 11-5 11-11 0-1 0-1 0-3l-8-95c0-6-6-10-10-10l-8 0-10-130 78 26-26 80c-1 4-1 9 2 13 1 5 6 8 10 9l8 3c1 0 4 2 8 2 6 0 12-2 16-6l50-42c4-5 9-11 10-17l17-51c1-5 1-12 0-18z m-166 153l6 74-108 0 6-74 7 0c6 0 11-4 11-10l13-158 35 10 12 148c0 6 6 10 11 10z m145-140l-17 52c0 1-3 4-4 6l-50 42c0 0-1 0-1 0l-5-2 29-86 27-87 4 2c0 0 2 1 2 1l15 63c0 3 0 6 0 9z"/>
    </symbol>
  
    <symbol id="eiti-other" viewBox="0 0 512 512">
      <path d="m123 215c-27 0-48 21-48 49 0 27 21 48 48 48 28 0 49-21 49-48 0-28-21-49-49-49z m0 79c-16 0-28-14-28-29 0-15 13-29 28-29 17 0 29 14 29 29 0 15-13 29-29 29z m136-79c-27 0-48 21-48 49 0 27 21 48 48 48 27 0 48-21 48-48 0-28-21-49-48-49z m0 79c-17 0-29-14-29-29 0-15 14-29 29-29 17 0 29 14 29 29 0 15-12 29-29 29z m136-79c-28 0-49 21-49 49 0 27 21 48 49 48 27 0 48-21 48-48 0-28-21-49-48-49z m0 79c-17 0-29-14-29-29 0-15 13-29 29-29 15 0 28 14 28 29 0 15-12 29-28 29z"/>
    </symbol>
  
    <symbol id="eiti-wind" viewBox="0 0 512 512">
      <path d="m248 441c-6 0-9-4-9-9l0-193c0-6 5-9 9-9 6 0 10 5 10 9l0 193c0 6-5 9-10 9z m0-193c-16 0-28-13-28-28 0-15 13-29 28-29 17 0 29 14 29 29 0 15-13 28-29 28z m0-37c-6 0-9 4-9 9 0 6 5 9 9 9 6 0 10-5 10-9 0-6-5-9-10-9z m0-39c-25 0-28-106-28-107 0-17 13-29 28-29 17 0 29 14 29 29 0 1-4 107-29 107z m0-116c-6 0-9 4-9 9 0 10 5 51 9 74 5-23 10-64 10-74 0-5-5-9-10-9z m-135 268c-11 0-20-6-26-15-7-14-3-32 11-39 7-5 72-34 93-34 8 0 12 3 14 6 12 22-79 77-79 77-3 3-7 5-13 5z m65-65c-24 8-62 23-70 27-4 3-6 9-3 14 3 4 9 6 14 3 7-5 41-27 59-44z m214 65c-5 0-10-2-14-3-2 0-90-56-78-77 1-3 6-6 13-6 21 0 86 29 94 33 13 8 19 26 10 39-6 8-15 14-25 14z m-65-65c18 15 51 39 60 44 5 3 11 1 14-3 3-5 1-11-3-14-9-4-47-19-71-27z m143 193l-425 0c-6 0-9-5-9-9 0-6 5-9 9-9l425 0c6 0 9 4 9 9 1 4-3 9-9 9z"/>
    </symbol>
  
    <symbol id="eiti-wheat" viewBox="0 0 512 512">
      <path d="m208 270c0 0-6-8-9-19-5-10-5-22-2-36 3-12 9-22 18-30 8-7 17-12 17-12 0 0 6 8 9 18 4 11 4 24 1 36-3 12-9 23-18 31-7 9-16 12-16 12z m-57 60c0 0-8-8-12-18-5-11-6-26-5-38 2-13 6-27 14-36 6-9 15-15 15-15 0 0 7 7 12 18 4 10 7 24 6 38-2 13-6 27-14 36-7 9-16 15-16 15z m117-116c0 0-4-8-7-18-3-11-2-23 3-33 4-11 12-20 21-26 9-6 18-7 18-7 0 0 4 7 7 18 3 10 2 22-3 33-4 10-12 19-21 25-7 5-18 8-18 8z m59-51c0 0-5-9-5-18-1-11 2-22 8-31 6-9 15-16 24-19 9-5 18-5 18-5 0 0 4 8 4 17 2 10-1 21-7 30-6 9-15 17-24 20-9 6-18 6-18 6z m-80 147c0 0 7 6 18 9 11 5 23 5 36 2 12-3 23-9 30-18 8-8 12-17 12-17 0 0-7-6-18-9-10-4-24-4-36-1-12 3-22 9-30 18-8 7-12 16-12 16z m-59 56c0 0 8 7 18 12 11 4 24 8 38 6 14-2 27-6 36-14 9-6 15-15 15-15 0 0-7-7-18-12-10-4-24-7-38-6-13 2-27 6-36 14-9 7-15 15-15 15z m116-118c0 0 8 5 18 8 11 3 23 2 33-3 11-5 20-12 26-21 6-9 8-18 8-18 0 0-8-5-19-8-10-3-22-1-33 3-10 5-19 12-25 21-5 9-8 18-8 18z m51-57c0 0 9 5 18 5 11 1 22-2 31-8 9-6 16-15 19-24 5-9 5-18 5-18 0 0-9-4-18-4-11-2-21 1-31 7-9 6-16 15-19 24-5 8-5 18-5 18z m-275 256c-3 0-5-1-6-3-3-3-3-9 0-13l260-261c3-3 9-3 14 0 3 3 3 9 0 14l-262 260c-2 3-5 3-6 3z m309-317c0 0-3-10-2-19 0-9 5-18 11-25 6-6 15-11 25-11 9-1 18 2 18 2 0 0 3 9 2 18 0 9-5 18-11 25-6 6-15 11-25 11-9 0-18-1-18-1z"/>
    </symbol>
  
    <symbol id="eiti-swings" viewBox="0 0 512 512">
      <path d="m301 167l59 0 0 182-59 0z m-132 0l57 0 0 182-59 0 0-182z m-67 237l0-237 59 0 0 182c-7 0-12 6-12 12 0 8 6 12 12 12l75 0c8 0 12-6 12-12 0-7-6-12-12-12l0-182 59 0 0 182c-7 0-12 6-12 12 0 8 6 12 12 12l75 0c8 0 12-6 12-12 0-7-6-12-12-12l0-182 59 0 0 237c0 7 6 12 12 12 8 0 12-6 12-12l0-249c0-7-6-12-12-12l-352 0c-8 0-12 6-12 12l0 249c0 7 6 12 12 12 7 0 13-5 13-12z"/>
    </symbol>
  
    <symbol id="eiti-swamp" viewBox="0 0 512 512">
      <path d="m194 413l-13 0c-2-24-6-43-14-56 0 0 0-2-1-2 0-1 0-1 0-3 1-6 1-12 3-16 3 4 7 10 10 16 8 14 14 34 15 61z m-25-79c-9-12-17-16-18-16-2-2-5-2-8 0-1 1-3 3-3 6l0 95c0 4 3 7 8 7 4 0 7-3 7-7l0-80c3 4 8 9 12 16 0-1 0-1 0-3 0-6 0-12 2-18z m25 79l-13 0c0 3 0 4 0 7 0 5 3 8 7 8 5 0 8-3 8-8-2-3-2-6-2-7z m208 6l0-95c0-3-1-5-3-6-1-2-4-2-7 0-2 1-43 25-43 101 0 4 3 7 8 7 4 0 7-3 7-7 0-44 15-68 26-80l0 80c0 4 3 7 8 7 1 0 4-3 4-7z m-193-155c-3-2-6 0-7 1-2 2-21 20-33 71 3 4 7 10 10 16 5-28 14-48 20-60l0 128c0 5 3 8 7 8 5 0 8-3 8-8l0-149c0-4-2-7-5-7z m61 155c0-71-38-100-40-101-1-2-4-2-7 0-3 1-5 3-5 6l0 95c0 4 3 7 8 7 4 0 7-3 7-7l0-79c11 14 23 38 23 79 0 4 3 7 8 7 4 0 6-3 6-7z m1 0c0-56 20-91 33-107l0 107c0 4 3 7 8 7 4 0 7-3 7-7l0-124c0-3-1-4-4-6-3-1-5-1-8 0-1 2-49 39-49 130 0 4 3 7 7 7 2 0 6-3 6-7z m66 0c0-73 15-116 27-140l0 70c0 5 3 8 8 8 4 0 7-3 7-8l0-93c0-3-1-6-4-6-3-2-6 0-8 1-1 2-43 49-43 168 0 4 3 7 7 7 5 0 6-3 6-7z m-206 3c2-3 0-8-5-9-7-3-12-9-12-18 0-11 9-19 19-19 3 0 7 2 10 3 3 2 8 2 9-1 2-3 2-8-1-9-5-3-12-5-18-5-19 0-34 15-34 34 0 13 8 25 21 30 2 0 2 0 3 0 5-2 7-3 8-6z m-14-36c3-2 3-7 0-10l-19-19c-3-3-8-3-11 0-3 3-3 7 0 10l20 20c1 2 3 2 4 2 2 0 5-2 6-3z m160-20l0-176c0-5-3-8-7-8-5 0-8 3-8 8l0 177c0 5 3 8 8 8 4-2 7-5 7-9z m0-244l0-27c0-5-3-8-7-8-5 0-8 3-8 8l0 25c0 5 3 8 8 8 4 0 7-3 7-6z m12 56l0-45c0-11-9-20-19-20-11 0-20 9-20 20l0 45c0 10 9 19 20 19 10 0 19-9 19-19z m-13-44l0 45c0 3-3 6-6 6-3 0-6-3-6-6l0-45c0-3 3-6 6-6 3 0 6 3 6 6z m73 176l0-138c0-5-3-8-7-8-5 0-8 3-8 8l0 138c0 5 3 8 8 8 4 0 7-3 7-8z m0-214l0-25c0-5-3-8-7-8-5 0-8 3-8 8l0 25c0 5 3 8 8 8 4 0 7-3 7-8z m14 58l0-46c0-10-9-19-20-19-10 0-19 9-19 19l0 46c0 10 9 19 19 19 11 0 20-9 20-19z m-14-46l0 46c0 3-3 6-6 6-3 0-6-3-6-6l0-46c0-3 3-6 6-6 3 0 6 3 6 6z m-1 136c3-3 3-8 0-11l-32-34c-3-3-7-3-10 0-3 3-3 7 0 10l31 35c2 1 3 1 5 1 3 0 4 0 6-1z m111 169l-411 0c-4 0-7 3-7 7 0 5 3 8 7 8l411 0c5 0 8-3 8-8 0-4-5-7-8-7z m8 37c0-4-3-7-8-7l-217 0c-4 0-7 3-7 7 0 5 3 8 7 8l217 0c3 0 8-3 8-8z m-292 0c0-4-3-7-8-7l-119 0c-4 0-7 3-7 7 0 5 3 8 7 8l119 0c5 0 8-3 8-8z"/>
    </symbol>
  
    <symbol id="eiti-book" viewBox="0 0 512 512">
      <path d="m395 116c-8 0-16 0-23 0 0-15 0-32 0-47 0-4-3-9-8-9-73 0-147 0-222 0-35 0-35 33-35 62 0 48 0 96 0 145 0 45 0 90 0 134 0 13 0 22 6 36 6 13 23 24 36 24 77 0 154 0 230 0 5 0 10 0 16 0 4 0 7-5 7-9 0-110 0-220 0-330 0-2-3-6-7-6z m-8 330c-72 0-145 0-217 0-22 0-48-2-48-36 0-41 0-82 0-122 0-50 0-98 0-148 0-23-8-62 23-62 70 0 141 0 212 0 0 12 0 26 0 38-3 0-6 0-9 0-3-9-8-18-11-29-1-3-4-4-6-4-34 0-70 0-105 0-21 0-41 0-62 0-10 0-24-2-27 12-4 18 15 36 30 36 12 0 26 0 38 0 46 0 93 0 141 0 14 0 27 0 43 0-2 105-2 211-2 315z m-54-330c-53 0-106 0-157 0-3 0-6 0-9 0-3-2-4-2-7-3-3-2-9-8-6-12 13 0 28 0 42 0 43 0 86 0 129 0 2 0 2 0 3 0 0 4 2 10 5 15z m-182-15c0 0-2 0 0 0z m3 51c0 92 0 182 0 274 0 8 12 8 12 0 0-92 0-182 0-274 0-7-12-7-12 0z"/>
    </symbol>
  
    <symbol id="eiti-buildings" viewBox="0 0 512 512">
      <path d="m411 309l-45 0 0-55c0-4-5-9-9-9l-45 0 0-171c0-5-5-9-9-9l-190 0c-5 0-9 4-9 9l0 370c0 5 4 9 9 9l298 0c5 0 9-4 9-9l0-126c0-5-4-9-9-9z m-289-226l173 0 0 352-173 0z m280 352l-90 0 0-171 36 0 0 54c0 4 4 9 9 9l45 0z m-146-322l-95 0c-4 0-9 4-9 9l0 60c0 5 5 9 9 9l95 0c5 0 9-4 9-9l0-62c0-4-3-7-9-7z m-8 59l-78 0 0-42 78 0z m8 48l-95 0c-4 0-9 4-9 9l0 60c0 5 5 9 9 9l95 0c5 0 9-4 9-9l0-60c0-6-3-9-9-9z m-8 59l-78 0 0-43 78 0z m8 48l-95 0c-4 0-9 4-9 9l0 60c0 5 5 9 9 9l95 0c5 0 9-4 9-9l0-60c0-5-3-9-9-9z m-8 59l-78 0 0-43 78 0z"/>
    </symbol>
  
    <symbol id="eiti-dam" viewBox="0 0 512 512">
      <path d="m480 414l-222 0c-7 0-11-4-11-10l0-317c0-6 4-10 11-10l99 0c6 0 10 4 10 10l0 189c0 66 50 119 113 119 6 0 11 4 11 10 0 6-5 9-11 9z m-212-19l143 0c-39-25-63-68-63-119l0-178-80 0z m-50-256c-16 0-30-8-39-20-9 12-24 20-39 20-15 0-30-8-39-20-11 11-24 20-41 20-6 0-10-5-10-11 0-6 4-11 10-11 17 0 30-13 30-30 0-6 5-10 11-10 6 0 10 4 10 10 0 17 14 30 31 30 16 0 30-13 30-30 0-6 4-10 10-10 6 0 11 4 11 10 0 17 13 30 30 30 16 0 30-13 30-30 0-6 5-10 11-10 6 0 10 4 10 10-6 29-29 52-56 52z m0 78c-16 0-30-8-39-20-9 12-24 20-39 20-15 0-30-8-39-20-11 12-24 20-41 20-6 0-10-5-10-11 0-6 4-10 10-10 17 0 30-14 30-30 0-6 5-11 11-11 6 0 10 5 10 11 0 16 14 30 31 30 16 0 30-14 30-30 0-6 4-11 10-11 6 0 11 5 11 11 0 16 13 30 30 30 16 0 30-14 30-30 0-6 5-11 11-11 6 0 10 5 10 11-6 28-29 51-56 51z m0 80c-16 0-30-8-39-20-9 12-24 20-39 20-15 0-30-8-39-20-11 11-24 20-41 20-6 0-10-5-10-11 0-6 4-10 10-10 17 0 30-14 30-31 0-6 5-10 11-10 6 0 10 4 10 10 0 17 14 31 31 31 16 0 30-14 30-31 0-6 4-10 10-10 6 0 11 4 11 10 0 17 13 31 30 31 16 0 30-14 30-31 0-6 5-10 11-10 6 0 10 4 10 10-6 29-29 52-56 52z m30 39l-177 0c-6 0-11-5-11-11 0-4 5-9 11-9l177 0c6 0 11 5 11 11-1 4-6 9-11 9z m40 78l-217 0c-6 0-11-4-11-10 0-6 5-11 11-11l217 0c6 0 10 5 10 11 0 6-4 10-10 10z"/>
    </symbol>
  
    <symbol id="eiti-hospital" viewBox="0 0 512 512">
      <path d="m345 455l-184 0c-4 0-7-3-7-8l0-375c0-4 3-7 7-7l184 0c4 0 7 3 7 7l0 375c0 5-3 8-7 8z m-176-15l168 0 0-360-168 0z m129 7c-4 0-7-3-7-7l0-65-77 0 0 65c0 4-3 7-8 7-4 0-7-3-7-7l0-74c0-5 3-8 7-8l92 0c5 0 8 3 8 8l0 74c0 4-3 7-8 7z m-60-122l-47 0c-4 0-7-3-7-7l0-82c0-4 3-7 7-7l47 0c4 0 7 3 7 7l0 80c0 5-4 9-7 9z m-39-16l30 0 0-65-30 0z m116 16l-47 0c-4 0-7-3-7-7l0-82c0-4 3-7 7-7l47 0c4 0 7 3 7 7l0 80c0 5-4 9-7 9z m-39-16l30 0 0-65-30 0z m-8-98l-30 0c-5 0-8-3-8-8l0-24-22 0c-5 0-8-3-8-7l0-35c0-4 3-7 8-7l22 0 0-25c0-4 3-7 8-7l30 0c5 0 8 3 8 7l0 25 22 0c5 0 8 3 8 7l0 33c0 5-3 8-8 8l-22 0 0 24c0 6-3 9-8 9z m-23-17l16 0 0-24c0-4 3-7 7-7l23 0 0-17-23 0c-4 0-7-3-7-7l0-26-16 0 0 24c0 5-3 8-7 8l-23 0 0 16 23 0c4 0 7 3 7 8z"/>
    </symbol>
  
    <symbol id="eiti-microphone" viewBox="0 0 512 512">
      <path d="m101 93c-18 17-29 41-29 65 0 23 9 45 26 62 9 9 19 16 30 19l57 37 194 176c14 13 44-14 47-17 8-7 23-24 23-36 0-4-2-7-3-9l-164-203-35-59c-3-12-9-23-18-32-17-18-39-27-63-28-24 0-47 9-65 25z m325 308c-1 4-7 12-15 19-7 8-16 12-21 14l-178-160c12-6 24-15 36-26 13-10 22-22 28-34z m-164-207c-4 12-15 26-27 38-14 12-27 21-39 26l-26-17c2 0 3-2 5-2 0 0 0 0 1 0 2 0 3-1 5-1 0 0 0 0 1 0 2 0 3-2 5-2 1-1 3-1 4-3 2-1 3-1 5-3 1-1 3-1 4-3 0 0 0 0 2 0 1-1 3-1 4-3 0 0 0 0 2 0 1-1 3-3 4-3 2-1 3-3 5-4 1-2 3-3 3-3 0 0 0 0 1-2 2-1 2-1 3-3 2-1 2-3 3-3 0 0 0 0 0-1 2-2 2-2 3-3 2-2 2-3 3-3 0 0 0 0 0-2 0-1 2-1 2-3 0 0 0 0 0-1 1-2 1-3 1-5 0-1 2-1 2-3 0 0 0 0 0-1 0-2 1-3 1-5 0-1 2-3 2-3 0 0 0 0 0-1 0-2 1-3 1-5z m-96-105c18 0 36 7 48 21 7 7 12 15 13 24 0 2 0 3 0 3 0 0 0 0 0 2 2 15-3 31-16 48-2 1-2 1-3 3 0 0 0 0-2 1-1 2-1 2-3 3 0 0 0 0-1 2-2 1-3 3-3 3-21 21-45 28-66 22-10-3-17-7-23-15-12-13-20-30-20-48 0-19 8-38 21-51 17-12 35-18 55-18z m102 191c-1 2-1 3 0 5l30 31c0 0 2 2 3 2 2 0 2 0 3-2l12-12c0 0 2-1 2-3 0-1 0-1-2-3l-30-31c0 0-1-2-3-2-1 0-1 0-3 2z"/>
    </symbol>
  
    <symbol id="eiti-mountains" viewBox="0 0 512 512">
      <path d="m396 414l-242 0c-9 0-15-3-18-9-5-6-3-13 0-21l122-209c4-8 10-12 18-12 7 0 13 4 18 12l122 209c4 8 4 15 1 21-6 6-12 9-21 9z m-242-19l242 0-120-210z m27 19l-130 0c-9 0-15-3-18-9-4-6-3-13 0-21l78-137c5-8 11-12 19-12 7 0 13 4 18 12l42 74-18 10-42-73-79 135 130 0z m277 0l-85 0 0-21 85 0-48-84-20 34-18-10 21-35c5-7 11-12 18-12 8 0 14 5 18 12l50 86c4 8 4 15 1 21-7 6-13 9-22 9z m-217-102c-3 0-6-2-9-3l-30-20 10-16 27 18 26-30c6-7 15-8 23-2l24 20 16-18 15 13-19 21c-6 6-15 8-23 2l-24-20-24 30c-3 3-8 5-12 5z"/>
    </symbol>
  
    <symbol id="eiti-plane" viewBox="0 0 512 512">
      <path d="m399 247l-56 0c-4 0-7 3-7 7 0 5 3 8 7 8l56 0c5 0 8-3 8-8 0-4-3-7-8-7z m-101 71c-4 0-7-3-7-8l0 76-53-80c1 1 1 3 1 4 0 5-3 8-7 8l-6 0 65 98c1 3 4 3 6 3 0 0 1 0 3 0 3-2 6-5 6-8l0-93z m0-71l-102 0c-3 0-6 1-8 4-1 3-1 7 0 8l27 42 15 0c3 0 5 2 6 3l-27-42 80 0 0 47c0-5 3-8 8-8l7 0 0-47c2-4-3-7-6-7z m-74-102c-28 0-51 21-55 48l16 0c3-18 20-32 39-32 20 0 35 14 40 32l16 0c-4-27-29-48-56-48z m-171 42c-5 0-8 3-8 7l0 121c0 4 3 7 8 7 4 0 7-3 7-7l0-121c0-4-3-7-7-7z m31 67c0-7 5-15 12-16 2-6 5-12 8-17 0 0-2 0-2 0-18 0-33 15-33 33 0 19 15 34 33 34 0 0 2 0 2 0-3-5-6-11-8-17-7-1-12-9-12-17z m315-7l-56 0c-4 0-7 3-7 7 0 5 3 8 7 8l56 0c5 0 8-3 8-8 0-4-3-7-8-7z m-101 0l-102 0c-3 0-6 1-8 4-1 3-1 7 0 8l27 42 15 0c3 0 5 2 6 3l-27-42 80 0 0 47c0-5 3-8 8-8l7 0 0-47c2-4-3-7-6-7z m154-93l0 93c0 39-32 71-71 71l-84 0c-5 0-8-3-8-8 0-4 3-7 8-7l84 0c30 0 56-24 56-55l0-93c0-7-6-13-14-13-7 0-13 6-13 13l0 6c0 27-23 50-50 50l-203 0c-26 0-47 21-47 47 0 25 21 46 47 46l73 0c3 0 5 2 6 3 2 2 2 3 2 5 0 4-3 7-8 7l-73 0c-23 0-41-12-53-28-3-5-6-11-8-17-1-6-3-10-3-16 0-7 2-13 3-17 2-6 5-12 8-17 10-16 30-28 53-28l203 0c18 0 33-15 33-33l0-6c0-17 14-31 30-31 15-3 29 11 29 28z"/>
    </symbol>
  
    <symbol id="eiti-school" viewBox="0 0 512 512">
      <path d="m381 322l17 0 0 20-17 0z m27 0l17 0 0 20-17 0z m27 0l17 0 0 20-17 0z m-372 0l17 0 0 20-17 0z m27 0l17 0 0 20-17 0z m27 0l17 0 0 20-17 0z m238-36l0-45 26 26 108 0 0-17-100 0-122-122 0-63-17 0 0 65-120 120-103 0 0 17 109 0 24-25 0 44-137 0 0 119 137 0 0 9 75 0 0-16-59 0 0-174 72-72 0 29-57 57 12 12 45-45 0 233-34 0 0 17 84 0 0-17-34 0 0-233 45 45 12-12-54-57 0-30 72 72 0 173-60 0 0 17 76 0 0-9 137 0 0-118z m-195 103l-121 0 0-86 121 0z m316 0l-121 0 0-86 121 0z m-205-302l50 0 0 17-50 0z m0 21l50 0 0 17-50 0z"/>
    </symbol>
  
</svg>
