<svg xmlns="http://www.w3.org/2000/svg" style="display: none;">
  
    <symbol id="eiti-icon-oil" viewBox="0 0 512 512">
      <path d="m430 481l0-51-348 0 0 51c-9 0-15 7-15 16 0 8 6 15 15 15l348 0c9 0 15-7 15-15 0-9-6-16-15-16z m-348-450l0 51 348 0 0-51c9 0 15-7 15-16 0-8-6-15-15-15l-348 0c-9 0-15 7-15 15 0 9 6 16 15 16z m0 82l0 286 348 0 0-286z m174 220c-28 0-51-23-51-51 0-29 51-103 51-103 0 0 51 74 51 103 0 28-23 51-51 51z"/>
    </symbol>
  
    <symbol id="eiti-icon-geo" viewBox="0 0 512 512">
      <path d="m347 205l-11-165-25 0-8 122-17 0 0-44-136 0 0 89c-52 8-102 20-150 38l0 267 114 0c0-35 35-57 35-99 0-43-29-64-29-100l-21 0 43-57 43 57-22 0c0 35 29 57 29 99 0 43-35 64-35 99l71 0c0-35 35-56 35-99 0-42-29-64-29-99l-21 0 43-57 42 57-21 0c0 35 29 57 29 99 0 43-36 64-36 99l72 0c0-35 35-56 35-99 0-42-29-64-29-99l-21 0 43-57 42 57-21 0c0 35 28 57 28 99 0 43-35 65-35 100l128 0 0-267c-52-20-108-33-165-40z m-139-180l63 0c11 0 43 0 43 6l19 0c0-25-35-25-63-25l-62 0c-11 0-33-3-40-6 1 1 9 25 40 25z"/>
    </symbol>
  
    <symbol id="eiti-icon-coal" viewBox="0 0 512 512">
      <path d="m511 247l-21-40-9-41-3-5-20-17 0-2-10-7-14-12-3-2-4-3-52-8-3-13-11-7-61 1-3 1-5 1-23-17-4 1-6-5-8-2-121 20-6 12-15 6-40 8-5 11-10 4-3 47 16 46-46 19-7 8-4 32 1 6 7 14-19 22 25 54 6 48 151 15 160-26 129-72 41-46z m-210-147l61-1 14 47-90 15-60-39z m-48-19l27 18-28 2-94 55-26-55z m-129 35l32 47-14 17-46-9-25-45z m48 256l-40-11-74 1-37-78 4-32 71-28 103 118z m53-107l-57-70 57-30 47 22 34 50z m117-8l-56-69 104-17-8-49 46 7 43 39 12 52z"/>
    </symbol>
  
    <symbol id="eiti-icon-gas" viewBox="0 0 512 512">
      <path d="m255 2l0-1c0 0 0 0 0 1 0-1 0-1 0-1l0 1c-8 106-115 261-118 343-4 80 117 165 119 166 2-1 122-86 119-166-4-82-113-237-120-343z m0 493c0 0-106-92 6-196 0-1 103 90-6 196z"/>
    </symbol>
  
    <symbol id="eiti-icon-wind" viewBox="0 0 512 512">
      <path d="m465 510c-8-4-19-6-30-6-10 0-20 2-29 6-9 4-19 6-29 6-10 0-20-2-29-6-9-4-19-6-30-6-10 0-20 2-29 6-9 4-19 6-29 6-11 0-21-2-29-6-9-4-20-6-30-6-10 0-21 2-30 6-8 4-18 6-29 6-10 0-20-2-29-6-9-4-19-6-29-6-11 0-21 2-30 6-9 4-19 6-29 6l0-41c10 0 20-2 29-5 9-5 19-7 30-7 10 0 20 2 29 7 9 3 19 5 29 5 11 0 21-2 29-5 9-5 20-7 30-7 10 0 21 2 30 7 8 3 18 5 29 5 10 0 20-2 29-5 9-5 19-7 29-7 11 0 21 2 30 7 9 3 19 5 29 5 10 0 20-2 29-5 9-5 19-7 29-7 11 0 22 2 30 7 9 3 19 5 29 5l0 41c-10 0-20-2-29-6z m0-104c-8-4-19-6-30-6-10 0-20 2-29 6-6 2-12 4-18 5l0-82 40 25 2 1 1 0 2-1 1-1c1-1 1-4-1-5l-29-28c-1 0-2-1-4-2-3-1-9-2-12-2l0-3-2 0 0-56c0-2-1-4-4-5-2 0-3 2-4 4l-7 39c0 1-1 2 0 5 1 3 5 12 5 13l0 0 0 0 0 0-1 0 0 1-47 32c-2 1-3 3-2 5l2 3 1 0 39-17c0 0 2-1 4-3 0 0 2-2 3-4l0 81c-10 0-19-2-27-5-9-4-19-6-30-6-10 0-20 2-29 6-5 2-11 3-16 4l0-185 54 79c1 0 3 2 5 2 1 0 2 0 3 0 3-2 2-6 1-7l-62-138c3-4 4-9 3-13 0-3-1-6-3-8 8-5 23-15 27-20 5-4 5-8 5-8l40-104c1-2 1-6-2-7l-2-1c-3 0-5 4-5 4l-79 128c-6 0-12 2-15 7-2 1-2 3-3 5-9-4-24-11-31-12-4-1-10-1-10-1l-113 21c-2 1-5 3-5 6 1 3 3 4 6 4 0 0 0 0 0 0l156 0c1 1 2 3 3 3l0 0 0 245c-6-1-11-2-15-4-9-4-20-6-30-6-10 0-21 2-30 6-2 1-3 1-5 2l0-136c1-1 1-2 2-3l72-27c3 0 4-2 4-5-1-2-2-3-6-4l-56 10c-1 0-3 0-6 2-3 2-8 7-12 11-2-2-3-3-5-3-1 0-2 0-3 0l-53-55c0-1-1-2-4-2l-1 0-1 1c-2 1-2 4-1 6l31 48c0 1 1 3 4 5 3 1 10 4 14 6 0 0 0 1 0 1-1 4 0 7 2 9l-21 79c-1 2 0 5 2 6l2 1c2 0 4-3 5-3l16-36 0 92c-3 0-6 1-9 1-10 0-20-2-29-6-9-4-19-6-29-6-11 0-21 2-30 6-9 4-19 6-29 6l0 40c10 0 20-2 29-5 9-5 19-7 30-7 10 0 20 2 29 7 9 3 19 5 29 5 11 0 21-2 29-5 9-5 20-7 30-7 10 0 21 2 30 7 8 3 18 5 29 5 10 0 20-2 29-5 9-5 19-7 29-7 11 0 21 2 30 7 9 3 19 5 29 5 10 0 20-2 29-5 9-5 19-7 29-7 11 0 22 2 30 7 9 3 19 5 30 5l0-40c-11 0-21-2-30-6z"/>
    </symbol>
  
    <symbol id="eiti-icon-other" viewBox="0 0 512 512">
      <path d="m171 55l114 0 0 114-114 0z m0 171l114 0 0 114-114 0z m0 171l114 0 0 114-114 0z"/>
    </symbol>
  
</svg>
