<?xml version="1.0" standalone="no"?><svg class="case_studies-map" viewBox="205.883785372776 296.834545538061 120.68508112787902 137.66508056590112" version="1.1" xmlns="http://www.w3.org/2000/svg" xmlns:xlink="http://www.w3.org/1999/xlink" style="height:471px;text-align:center;width:412.578px;perspective-origin:206.281px 235.5px;transform-origin:206.281px 235.5px;fill:rgba(0, 0, 0, 0);stroke:rgb(235, 235, 235);stroke-width:0.5px;">
	<g data-url="us-topology.json" data-object="states" data-mesh="true" data-filter="id === 'AZ'" class="js-loaded topology" data-type="Topology" style="height:auto;overflow-x:visible;overflow-y:visible;text-align:center;width:auto;perspective-origin:0px 0px;transform-origin:0px 0px;fill:rgba(0, 0, 0, 0);stroke:rgb(235, 235, 235);stroke-width:2px;"><path d="M316.568866500655,318.8997797047822L313.9871783517865,337.51254543794596L311.2986689576045,356.97614430438205L310.30791806162125,364.0687227446788L308.23416816036604,379.0000627083117L306.7685190316613,389.60952085169333L305.6598118508173,397.63516778045494L304.75103140543985,404.17247720323246L301.9025378375336,424.4996261039621L279.7310881619969,421.2591415743491L270.0756386084212,419.7559053799431L265.7799039732437,417.28324216966166L237.10247232542912,400.6303906751815L215.883785372776,387.84855701883214L216.40415404685825,385.59671001944L218.15932723455978,384.00097850359293L221.24751032642706,383.8732328144781L222.7786561247906,381.2865735457649L222.4089510805602,378.94209049363667L220.05540306729733,378.2081098148608L219.7157889436295,377.22738340991293L220.83264865562506,373.96075035297906L220.12688386348236,373.2022029711667L220.6245766937733,371.30567786971426L222.21803256694585,371.04203450610873L224.1796799787366,369.2226559925382L225.12546348076927,366.633027386339L225.3842311350109,362.2942928807031L227.24391861641442,360.7034073345419L227.51600223187438,359.6041722481734L230.4941283788787,358.546473306616L232.71880949917977,356.4886730092194L230.21242738736572,353.1588020734316L229.30841427510995,350.19418945537814L229.17599031899852,347.9200440587682L227.3662502366762,344.57715913705556L227.83322951095653,342.14191615883146L228.00566563363589,340.2410311623312L229.38392156414835,339.353911015755L229.59647175053755,336.24149004787625L229.0751679413437,332.5575483640333L229.91800940517612,326.22828586237574L230.02380585323357,321.7451096655475L232.06919458182654,321.0614332751617L235.88541486054766,321.80554632593476L237.42957209618066,324.5998385040739L238.64276359979635,324.63591294976584L240.85671139851263,321.7960812693111L243.07456037997355,309.7477879689043L243.62918336120197,306.834545538061L260.3503546278894,309.9450959026227L265.5661459957736,310.86606466423905L281.9962613896421,313.6439733739461L291.6555957481746,315.1517747060069L302.5895663413187,316.91872760778085Z" id="AZ" class="feature zoomed" style="height:auto;overflow-x:visible;overflow-y:visible;text-align:center;width:auto;perspective-origin:0px 0px;transform-origin:0px 0px;fill:rgba(0, 0, 0, 0);stroke:rgb(235, 235, 235);stroke-width:2px;vector-effect:non-scaling-stroke;"><title style="height:auto;overflow-x:visible;overflow-y:visible;text-align:center;width:auto;perspective-origin:50% 50%;transform-origin:0px 0px;fill:rgba(0, 0, 0, 0);stroke:rgb(235, 235, 235);stroke-width:2px;"/></path><path d="M243.07456037997355,309.7477879689043L243.62918336120197,306.834545538061M302.5895663413187,316.91872760778085L316.568866500655,318.8997797047822M291.6555957481746,315.1517747060069L302.5895663413187,316.91872760778085M281.9962613896421,313.6439733739461L291.6555957481746,315.1517747060069M243.62918336120197,306.834545538061L260.3503546278894,309.9450959026227M265.5661459957736,310.86606466423905L281.9962613896421,313.6439733739461M260.3503546278894,309.9450959026227L265.5661459957736,310.86606466423905M316.568866500655,318.8997797047822L313.9871783517865,337.51254543794596L311.2986689576045,356.97614430438205M311.2986689576045,356.97614430438205L310.30791806162125,364.0687227446788M227.83322951095653,342.14191615883146L228.00566563363589,340.2410311623312L229.38392156414835,339.353911015755L229.59647175053755,336.24149004787625L229.0751679413437,332.5575483640333L229.91800940517612,326.22828586237574L230.02380585323357,321.7451096655475L232.06919458182654,321.0614332751617L235.88541486054766,321.80554632593476L237.42957209618066,324.5998385040739L238.64276359979635,324.63591294976584L240.85671139851263,321.7960812693111L243.07456037997355,309.7477879689043M232.71880949917977,356.4886730092194L230.21242738736572,353.1588020734316L229.30841427510995,350.19418945537814L229.17599031899852,347.9200440587682L227.3662502366762,344.57715913705556L227.83322951095653,342.14191615883146M222.21803256694585,371.04203450610873L224.1796799787366,369.2226559925382L225.12546348076927,366.633027386339L225.3842311350109,362.2942928807031L227.24391861641442,360.7034073345419L227.51600223187438,359.6041722481734L230.4941283788787,358.546473306616L232.71880949917977,356.4886730092194M222.4089510805602,378.94209049363667L220.05540306729733,378.2081098148608L219.7157889436295,377.22738340991293L220.83264865562506,373.96075035297906L220.12688386348236,373.2022029711667L220.6245766937733,371.30567786971426L222.21803256694585,371.04203450610873M310.30791806162125,364.0687227446788L308.23416816036604,379.0000627083117L306.7685190316613,389.60952085169333L305.6598118508173,397.63516778045494M237.10247232542912,400.6303906751815L215.883785372776,387.84855701883214L216.40415404685825,385.59671001944L218.15932723455978,384.00097850359293M218.15932723455978,384.00097850359293L221.24751032642706,383.8732328144781L222.7786561247906,381.2865735457649L222.4089510805602,378.94209049363667M265.7799039732437,417.28324216966166L237.10247232542912,400.6303906751815M305.6598118508173,397.63516778045494L304.75103140543985,404.17247720323246L301.9025378375336,424.4996261039621L279.7310881619969,421.2591415743491M279.7310881619969,421.2591415743491L270.0756386084212,419.7559053799431L265.7799039732437,417.28324216966166" class="mesh" style="height:auto;overflow-x:visible;overflow-y:visible;text-align:center;width:auto;perspective-origin:0px 0px;transform-origin:0px 0px;fill:rgba(0, 0, 0, 0);stroke:rgb(235, 235, 235);stroke-width:2px;vector-effect:non-scaling-stroke;"><title style="height:auto;overflow-x:visible;overflow-y:visible;text-align:center;width:auto;perspective-origin:50% 50%;transform-origin:0px 0px;fill:rgba(0, 0, 0, 0);stroke:rgb(235, 235, 235);stroke-width:2px;"/></path></g>
				<g data-url="us-topology.json" data-object="counties" data-filter="properties.state === 'AZ'" data-mesh="true" class="js-loaded topology" data-type="Topology" style="height:auto;overflow-x:visible;overflow-y:visible;text-align:center;width:auto;perspective-origin:0px 0px;transform-origin:0px 0px;fill:rgba(0, 0, 0, 0);stroke:rgb(235, 235, 235);stroke-width:0.5px;"><path d="M302.5895663413187,316.91872760778085L298.8949172035543,341.81771011190517L301.47869261949046,342.20176153864475L300.8375799235088,344.8616406054832L298.92408367278915,357.7928586847413L297.89576722686337,362.6520495035363L297.911935725923,364.31432578251895L295.8428433145684,377.23324470454077L295.34902302800083,377.1698259007078L294.7739682005937,381.07611847830685L293.13117378866696,380.6607344680374L294.29856577512044,372.79344543399725L282.90871995941546,371.0574134537676L283.6754705834877,366.15672840527384L291.6555957481746,315.1517747060069Z" id="4017" class="feature" style="height:auto;overflow-x:visible;overflow-y:visible;text-align:center;width:auto;perspective-origin:0px 0px;transform-origin:0px 0px;fill:rgba(0, 0, 0, 0);stroke:rgb(235, 235, 235);stroke-width:0.5px;vector-effect:non-scaling-stroke;"><title style="height:auto;overflow-x:visible;overflow-y:visible;text-align:center;width:auto;perspective-origin:50% 50%;transform-origin:0px 0px;fill:rgba(0, 0, 0, 0);stroke:rgb(235, 235, 235);stroke-width:0.5px;"/></path><path d="M291.6555957481746,315.1517747060069L283.6754705834877,366.15672840527384L282.23634185283413,365.8612317488671L279.58934186164413,363.3009910708738L276.63340150775946,361.43503359763815L273.1327734033666,361.6038063633607L272.1492414767115,360.32064272578964L273.2110073738272,354.19278382031973L269.8268276263831,353.6145151835625L270.37544352453904,350.3072156067519L262.02828248013066,349.0425656748255L262.57146907707056,345.7861168801219L260.99062881566437,345.489215457808L261.3711683067561,343.437605824534L259.28565538587816,343.39220422925246L258.6741603795738,342.2063549744919L254.06219510434056,340.31075916878774L251.28802450044105,336.9220919585616L248.9947487551592,336.0874637322529L249.9398349039667,330.9928561701928L250.5984225119131,329.4095780849674L250.45131282837502,326.53183852911206L252.54713340028093,325.93937079906743L253.12036311214143,324.89354372331184L256.14480653041335,323.7786603013277L259.54074893865516,323.4991327385362L262.4233988837615,321.6128052766277L262.29528761813424,319.60846167859165L263.0300506015502,318.24105302430246L263.83116851035436,314.4405925292722L265.5758587573511,311.79124660845093L265.5661459957736,310.86606466423905L281.9960978610086,313.6449729379582Z" id="4005" class="feature" style="height:auto;overflow-x:visible;overflow-y:visible;text-align:center;width:auto;perspective-origin:0px 0px;transform-origin:0px 0px;fill:rgba(0, 0, 0, 0);stroke:rgb(235, 235, 235);stroke-width:0.5px;vector-effect:non-scaling-stroke;"><title style="height:auto;overflow-x:visible;overflow-y:visible;text-align:center;width:auto;perspective-origin:50% 50%;transform-origin:0px 0px;fill:rgba(0, 0, 0, 0);stroke:rgb(235, 235, 235);stroke-width:0.5px;"/></path><path d="M316.568866500655,318.8997797047822L313.9871783517865,337.51254543794596L311.2986689576045,356.97614430438205L310.30791806162125,364.0687227446788L308.23416816036604,379.0000627083117L303.6471454972009,378.37430080578997L303.43174800345594,379.26534084777086L301.05944037608447,380.37307403882073L295.7640615164253,382.8131566210184L294.7739682005937,381.07611847830685L295.34902302800083,377.1698259007078L295.8428433145684,377.23324470454077L297.911935725923,364.31432578251895L297.89576722686337,362.6520495035363L298.92408367278915,357.7928586847413L300.8375799235088,344.8616406054832L301.47869261949046,342.20176153864475L298.8949172035543,341.81771011190517L302.5895663413187,316.91872760778085Z" id="4001" class="feature" style="height:auto;overflow-x:visible;overflow-y:visible;text-align:center;width:auto;perspective-origin:0px 0px;transform-origin:0px 0px;fill:rgba(0, 0, 0, 0);stroke:rgb(235, 235, 235);stroke-width:0.5px;vector-effect:non-scaling-stroke;"><title style="height:auto;overflow-x:visible;overflow-y:visible;text-align:center;width:auto;perspective-origin:50% 50%;transform-origin:0px 0px;fill:rgba(0, 0, 0, 0);stroke:rgb(235, 235, 235);stroke-width:0.5px;"/></path><path d="M272.1492414767115,360.32064272578964L270.3160724844463,361.65374371011626L268.78650190426754,365.886159974282L272.337605396634,366.4772051751695L271.61917765956366,369.2508940666612L268.1261728431326,368.6709622706628L261.6248858705394,366.64321108064803L259.40409273448904,369.4254148962334L252.68008505264635,366.00548572806304L243.77761398934797,364.40546354737955L244.8715330798484,358.50433311201937L248.9947487551592,336.0874637322529L251.28802450044105,336.9220919585616L254.06219510434056,340.31075916878774L258.6741603795738,342.2063549744919L259.28565538587816,343.39220422925246L261.3711683067561,343.437605824534L260.99062881566437,345.489215457808L262.57146907707056,345.7861168801219L262.02828248013066,349.0425656748255L270.37544352453904,350.3072156067519L269.8268276263831,353.6145151835625L273.2110073738272,354.19278382031973Z" id="4025" class="feature" style="height:auto;overflow-x:visible;overflow-y:visible;text-align:center;width:auto;perspective-origin:0px 0px;transform-origin:0px 0px;fill:rgba(0, 0, 0, 0);stroke:rgb(235, 235, 235);stroke-width:0.5px;vector-effect:non-scaling-stroke;"><title style="height:auto;overflow-x:visible;overflow-y:visible;text-align:center;width:auto;perspective-origin:50% 50%;transform-origin:0px 0px;fill:rgba(0, 0, 0, 0);stroke:rgb(235, 235, 235);stroke-width:0.5px;"/></path><path d="M283.6754705834877,366.15672840527384L282.90871995941546,371.0574134537676L294.29856577512044,372.79344543399725L293.13117378866696,380.6607344680374L292.8247032412942,382.72610103263696L290.23925763319573,382.3676873476569L285.8113151307866,383.3275488126104L285.19807464120396,386.7429063441791L282.1939466658494,387.2777784240144L279.46687619664056,389.83895031882014L277.72055297940926,384.51236227166214L276.9360006022356,380.2765420561849L275.83487402383685,376.0712180112572L274.52959097361185,377.2750775830283L272.5009628853152,374.1511523933548L272.9384261265962,372.9130667645694L271.61917765956366,369.2508940666612L272.337605396634,366.4772051751695L268.78650190426754,365.886159974282L270.3160724844463,361.65374371011626L272.1492414767115,360.32064272578964L273.1327734033666,361.6038063633607L276.63340150775946,361.43503359763815L279.58934186164413,363.3009910708738L282.23634185283413,365.8612317488671Z" id="4007" class="feature" style="height:auto;overflow-x:visible;overflow-y:visible;text-align:center;width:auto;perspective-origin:0px 0px;transform-origin:0px 0px;fill:rgba(0, 0, 0, 0);stroke:rgb(235, 235, 235);stroke-width:0.5px;vector-effect:non-scaling-stroke;"><title style="height:auto;overflow-x:visible;overflow-y:visible;text-align:center;width:auto;perspective-origin:50% 50%;transform-origin:0px 0px;fill:rgba(0, 0, 0, 0);stroke:rgb(235, 235, 235);stroke-width:0.5px;"/></path><path d="M244.8715330798484,358.50433311201937L243.77761398934797,364.40546354737955L241.65763389387456,375.9003553337909L232.15643164248462,374.1127054705943L232.46261761151112,372.5115401173663L227.7487233750727,371.61654425247445L226.18010441693838,379.6183491271712L222.4089510805602,378.94209049363667L220.05540306729733,378.2081098148608L219.7157889436295,377.22738340991293L220.83264865562506,373.96075035297906L220.12688386348236,373.2022029711667L220.6245766937733,371.30567786971426L222.21803256694585,371.04203450610873L224.1796799787366,369.2226559925382L225.12546348076927,366.633027386339L225.3842311350109,362.2942928807031L227.24391861641442,360.7034073345419L227.51600223187438,359.6041722481734L230.4941283788787,358.546473306616L232.71880949917977,356.4886730092194L234.08939743473002,357.56609814549734L240.45960630437804,359.3839604921874L242.10543897712523,358.1467317866063Z" id="4012" class="feature" style="height:auto;overflow-x:visible;overflow-y:visible;text-align:center;width:auto;perspective-origin:0px 0px;transform-origin:0px 0px;fill:rgba(0, 0, 0, 0);stroke:rgb(235, 235, 235);stroke-width:0.5px;vector-effect:non-scaling-stroke;"><title style="height:auto;overflow-x:visible;overflow-y:visible;text-align:center;width:auto;perspective-origin:50% 50%;transform-origin:0px 0px;fill:rgba(0, 0, 0, 0);stroke:rgb(235, 235, 235);stroke-width:0.5px;"/></path><path d="M271.61917765956366,369.2508940666612L272.9384261265962,372.9130667645694L272.5009628853152,374.1511523933548L274.52959097361185,377.2750775830283L275.83487402383685,376.0712180112572L276.9360006022356,380.2765420561849L268.68068798559955,378.93816448387565L267.8485165451679,383.7641247070583L260.2838838087115,382.51701639717487L258.6369310145611,380.58922493037016L256.11656250796216,395.09787673709366L238.68385318801762,392.02469889877636L241.65763389387456,375.9003553337909L243.77761398934797,364.40546354737955L252.68008505264635,366.00548572806304L259.40409273448904,369.4254148962334L261.6248858705394,366.64321108064803L268.1261728431326,368.6709622706628Z" id="4013" class="feature" style="height:auto;overflow-x:visible;overflow-y:visible;text-align:center;width:auto;perspective-origin:0px 0px;transform-origin:0px 0px;fill:rgba(0, 0, 0, 0);stroke:rgb(235, 235, 235);stroke-width:0.5px;vector-effect:non-scaling-stroke;"><title style="height:auto;overflow-x:visible;overflow-y:visible;text-align:center;width:auto;perspective-origin:50% 50%;transform-origin:0px 0px;fill:rgba(0, 0, 0, 0);stroke:rgb(235, 235, 235);stroke-width:0.5px;"/></path><path d="M308.23416816036604,379.0000627083117L306.7683808519124,389.6105210994566L305.6598118508173,397.63516778045494L304.75103140543985,404.17247720323246L303.7198826583316,404.0296575596534L302.2802677460875,401.6106339034126L303.0134617935547,398.07314914090284L302.00177590144006,397.3381722428346L299.53100336809496,391.06477345212124L301.05944037608447,380.37307403882073L303.43174800345594,379.26534084777086L303.6471454972009,378.37430080578997Z" id="4011" class="feature" style="height:auto;overflow-x:visible;overflow-y:visible;text-align:center;width:auto;perspective-origin:0px 0px;transform-origin:0px 0px;fill:rgba(0, 0, 0, 0);stroke:rgb(235, 235, 235);stroke-width:0.5px;vector-effect:non-scaling-stroke;"><title style="height:auto;overflow-x:visible;overflow-y:visible;text-align:center;width:auto;perspective-origin:50% 50%;transform-origin:0px 0px;fill:rgba(0, 0, 0, 0);stroke:rgb(235, 235, 235);stroke-width:0.5px;"/></path><path d="M301.05944037608447,380.37307403882073L299.53100336809496,391.06477345212124L302.00177590144006,397.3381722428346L303.0134617935547,398.07314914090284L302.2802677460875,401.6106339034126L303.7198826583316,404.0296575596534L282.9773295138898,400.97799639699906L283.22239187096454,399.3787148148623L285.19807464120396,386.7429063441791L285.8113151307866,383.3275488126104L290.23925763319573,382.3676873476569L292.8247032412942,382.72610103263696L293.13117378866696,380.6607344680374L294.7739682005937,381.07611847830685L295.7640615164253,382.8131566210184Z" id="4009" class="feature" style="height:auto;overflow-x:visible;overflow-y:visible;text-align:center;width:auto;perspective-origin:0px 0px;transform-origin:0px 0px;fill:rgba(0, 0, 0, 0);stroke:rgb(235, 235, 235);stroke-width:0.5px;vector-effect:non-scaling-stroke;"><title style="height:auto;overflow-x:visible;overflow-y:visible;text-align:center;width:auto;perspective-origin:50% 50%;transform-origin:0px 0px;fill:rgba(0, 0, 0, 0);stroke:rgb(235, 235, 235);stroke-width:0.5px;"/></path><path d="M241.65763389387456,375.9003553337909L238.68385318801762,392.02469889877636L237.10247232542912,400.6303906751815L215.8835869969522,387.8495460517697L216.40415404685825,385.59671001944L218.15912977596616,384.0019680597094L221.24751032642706,383.8732328144781L222.7786561247906,381.2865735457649L222.4089510805602,378.94209049363667L226.18010441693838,379.6183491271712L227.7487233750727,371.61654425247445L232.46261761151112,372.5115401173663L232.15643164248462,374.1127054705943Z" id="4027" class="feature" style="height:auto;overflow-x:visible;overflow-y:visible;text-align:center;width:auto;perspective-origin:0px 0px;transform-origin:0px 0px;fill:rgba(0, 0, 0, 0);stroke:rgb(235, 235, 235);stroke-width:0.5px;vector-effect:non-scaling-stroke;"><title style="height:auto;overflow-x:visible;overflow-y:visible;text-align:center;width:auto;perspective-origin:50% 50%;transform-origin:0px 0px;fill:rgba(0, 0, 0, 0);stroke:rgb(235, 235, 235);stroke-width:0.5px;"/></path><path d="M276.9360006022356,380.2765420561849L277.72055297940926,384.51236227166214L279.46687619664056,389.83895031882014L282.1939466658494,387.2777784240144L285.19807464120396,386.7429063441791L283.22239187096454,399.3787148148623L272.3010759051987,397.69330529464787L272.26935846676463,397.89050352835716L256.11656250796216,395.09787673709366L258.6369310145611,380.58922493037016L260.2838838087115,382.51701639717487L267.8485165451679,383.7641247070583L268.68068798559955,378.93816448387565Z" id="4021" class="feature" style="height:auto;overflow-x:visible;overflow-y:visible;text-align:center;width:auto;perspective-origin:0px 0px;transform-origin:0px 0px;fill:rgba(0, 0, 0, 0);stroke:rgb(235, 235, 235);stroke-width:0.5px;vector-effect:non-scaling-stroke;"><title style="height:auto;overflow-x:visible;overflow-y:visible;text-align:center;width:auto;perspective-origin:50% 50%;transform-origin:0px 0px;fill:rgba(0, 0, 0, 0);stroke:rgb(235, 235, 235);stroke-width:0.5px;"/></path><path d="M283.22239187096454,399.3787148148623L282.9773295138898,400.97799639699906L280.99211234278044,413.8960854953822L269.8455542637,412.2451851177643L269.24383100991906,416.02032561309375L266.06814127900606,415.51603919402373L265.77974187360064,417.2842360138512L237.10247232542912,400.6303906751815L238.68385318801762,392.02469889877636L256.11656250796216,395.09787673709366L272.26935846676463,397.89050352835716L272.3010759051987,397.69330529464787Z" id="4019" class="feature" style="height:auto;overflow-x:visible;overflow-y:visible;text-align:center;width:auto;perspective-origin:0px 0px;transform-origin:0px 0px;fill:rgba(0, 0, 0, 0);stroke:rgb(235, 235, 235);stroke-width:0.5px;vector-effect:non-scaling-stroke;"><title style="height:auto;overflow-x:visible;overflow-y:visible;text-align:center;width:auto;perspective-origin:50% 50%;transform-origin:0px 0px;fill:rgba(0, 0, 0, 0);stroke:rgb(235, 235, 235);stroke-width:0.5px;"/></path><path d="M303.7198826583316,404.0296575596534L304.75103140543985,404.17247720323246L301.9025378375336,424.4996261039621L279.7310881619969,421.2591415743491L280.99211234278044,413.8960854953822L282.9773295138898,400.97799639699906Z" id="4003" class="feature" style="height:auto;overflow-x:visible;overflow-y:visible;text-align:center;width:auto;perspective-origin:0px 0px;transform-origin:0px 0px;fill:rgba(0, 0, 0, 0);stroke:rgb(235, 235, 235);stroke-width:0.5px;vector-effect:non-scaling-stroke;"><title style="height:auto;overflow-x:visible;overflow-y:visible;text-align:center;width:auto;perspective-origin:50% 50%;transform-origin:0px 0px;fill:rgba(0, 0, 0, 0);stroke:rgb(235, 235, 235);stroke-width:0.5px;"/></path><path d="M280.99211234278044,413.8960854953822L279.7310881619969,421.2591415743491L270.0756386084212,419.7559053799431L265.77974187360064,417.2842360138512L266.06814127900606,415.51603919402373L269.24383100991906,416.02032561309375L269.8455542637,412.2451851177643Z" id="4023" class="feature" style="height:auto;overflow-x:visible;overflow-y:visible;text-align:center;width:auto;perspective-origin:0px 0px;transform-origin:0px 0px;fill:rgba(0, 0, 0, 0);stroke:rgb(235, 235, 235);stroke-width:0.5px;vector-effect:non-scaling-stroke;"><title style="height:auto;overflow-x:visible;overflow-y:visible;text-align:center;width:auto;perspective-origin:50% 50%;transform-origin:0px 0px;fill:rgba(0, 0, 0, 0);stroke:rgb(235, 235, 235);stroke-width:0.5px;"/></path><path d="M265.5661459957736,310.86606466423905L265.5758587573511,311.79124660845093L263.83116851035436,314.4405925292722L263.0300506015502,318.24105302430246L262.29528761813424,319.60846167859165L262.4233988837615,321.6128052766277L259.54074893865516,323.4991327385362L256.14480653041335,323.7786603013277L253.12036311214143,324.89354372331184L252.54713340028093,325.93937079906743L250.45131282837502,326.53183852911206L250.5984225119131,329.4095780849674L249.9398349039667,330.9928561701928L248.9947487551592,336.0874637322529L244.8715330798484,358.50433311201937L242.10543897712523,358.1467317866063L240.45960630437804,359.3839604921874L234.08939743473002,357.56609814549734L232.71880949917977,356.4886730092194L230.21242738736572,353.1588020734316L229.30841427510995,350.19418945537814L229.17599031899852,347.9200440587682L227.3662502366762,344.57715913705556L227.83322951095653,342.14191615883146L228.00566563363589,340.2410311623312L229.38392156414835,339.353911015755L229.59647175053755,336.24149004787625L229.0751679413437,332.5575483640333L229.91781146423938,326.2292786562731L230.02360734565087,321.7461024856284L232.06919458182654,321.0614332751617L235.88541486054766,321.80554632593476L237.42957209618066,324.5998385040739L238.64276359979635,324.63591294976584L240.85671139851263,321.7960812693111L243.07456037997355,309.7477879689043L243.62918336120197,306.834545538061L260.3503546278894,309.9450959026227Z" id="4015" class="feature" style="height:auto;overflow-x:visible;overflow-y:visible;text-align:center;width:auto;perspective-origin:0px 0px;transform-origin:0px 0px;fill:rgba(0, 0, 0, 0);stroke:rgb(235, 235, 235);stroke-width:0.5px;vector-effect:non-scaling-stroke;"><title style="height:auto;overflow-x:visible;overflow-y:visible;text-align:center;width:auto;perspective-origin:50% 50%;transform-origin:0px 0px;fill:rgba(0, 0, 0, 0);stroke:rgb(235, 235, 235);stroke-width:0.5px;"/></path><path d="M243.07456037997355,309.7477879689043L243.62918336120197,306.834545538061M302.5895663413187,316.91872760778085L316.568866500655,318.8997797047822M281.9960978610086,313.6449729379582L291.6555957481746,315.1517747060069M243.62918336120197,306.834545538061L260.3503546278894,309.9450959026227M248.9947487551592,336.0874637322529L249.9398349039667,330.9928561701928L250.5984225119131,329.4095780849674L250.45131282837502,326.53183852911206L252.54713340028093,325.93937079906743L253.12036311214143,324.89354372331184L256.14480653041335,323.7786603013277L259.54074893865516,323.4991327385362L262.4233988837615,321.6128052766277L262.29528761813424,319.60846167859165L263.0300506015502,318.24105302430246L263.83116851035436,314.4405925292722L265.5758587573511,311.79124660845093L265.5661459957736,310.86606466423905L281.9960978610086,313.6449729379582M260.3503546278894,309.9450959026227L265.5661459957736,310.86606466423905M301.05944037608447,380.37307403882073L295.7640615164253,382.8131566210184L294.7739682005937,381.07611847830685M294.7739682005937,381.07611847830685L293.13117378866696,380.6607344680374M293.13117378866696,380.6607344680374L294.29856577512044,372.79344543399725L282.90871995941546,371.0574134537676L283.6754705834877,366.15672840527384M283.6754705834877,366.15672840527384L282.23634185283413,365.8612317488671L279.58934186164413,363.3009910708738L276.63340150775946,361.43503359763815L273.1327734033666,361.6038063633607L272.1492414767115,360.32064272578964M244.8715330798484,358.50433311201937L248.9947487551592,336.0874637322529M316.568866500655,318.8997797047822L313.9871783517865,337.51254543794596L311.2986689576045,356.97614430438205M311.2986689576045,356.97614430438205L310.30791806162125,364.0687227446788M303.7198826583316,404.0296575596534L302.2802677460875,401.6106339034126L303.0134617935547,398.07314914090284L302.00177590144006,397.3381722428346L299.53100336809496,391.06477345212124L301.05944037608447,380.37307403882073M227.83322951095653,342.14191615883146L228.00566563363589,340.2410311623312L229.38392156414835,339.353911015755L229.59647175053755,336.24149004787625L229.0751679413437,332.5575483640333L229.91781146423938,326.2292786562731L230.02360734565087,321.7461024856284L232.06919458182654,321.0614332751617L235.88541486054766,321.80554632593476L237.42957209618066,324.5998385040739L238.64276359979635,324.63591294976584L240.85671139851263,321.7960812693111L243.07456037997355,309.7477879689043M232.71880949917977,356.4886730092194L230.21242738736572,353.1588020734316L229.30841427510995,350.19418945537814L229.17599031899852,347.9200440587682L227.3662502366762,344.57715913705556L227.83322951095653,342.14191615883146M276.9360006022356,380.2765420561849L275.83487402383685,376.0712180112572L274.52959097361185,377.2750775830283L272.5009628853152,374.1511523933548L272.9384261265962,372.9130667645694L271.61917765956366,369.2508940666612M271.61917765956366,369.2508940666612L268.1261728431326,368.6709622706628L261.6248858705394,366.64321108064803L259.40409273448904,369.4254148962334L252.68008505264635,366.00548572806304L243.77761398934797,364.40546354737955M222.21803256694585,371.04203450610873L224.1796799787366,369.2226559925382L225.12546348076927,366.633027386339L225.3842311350109,362.2942928807031L227.24391861641442,360.7034073345419L227.51600223187438,359.6041722481734L230.4941283788787,358.546473306616L232.71880949917977,356.4886730092194L234.08939743473002,357.56609814549734L240.45960630437804,359.3839604921874L242.10543897712523,358.1467317866063L244.8715330798484,358.50433311201937M283.22239187096454,399.3787148148623L285.19807464120396,386.7429063441791M285.19807464120396,386.7429063441791L282.1939466658494,387.2777784240144L279.46687619664056,389.83895031882014L277.72055297940926,384.51236227166214L276.9360006022356,380.2765420561849M238.68385318801762,392.02469889877636L241.65763389387456,375.9003553337909M218.15912977596616,384.0019680597094L221.24751032642706,383.8732328144781L222.7786561247906,381.2865735457649L222.4089510805602,378.94209049363667M222.4089510805602,378.94209049363667L220.05540306729733,378.2081098148608L219.7157889436295,377.22738340991293L220.83264865562506,373.96075035297906L220.12688386348236,373.2022029711667L220.6245766937733,371.30567786971426L222.21803256694585,371.04203450610873M283.22239187096454,399.3787148148623L272.3010759051987,397.69330529464787L272.26935846676463,397.89050352835716L256.11656250796216,395.09787673709366M256.11656250796216,395.09787673709366L238.68385318801762,392.02469889877636M310.30791806162125,364.0687227446788L308.23416816036604,379.0000627083117L306.7683808519124,389.6105210994566L305.6598118508173,397.63516778045494M304.75103140543985,404.17247720323246L303.7198826583316,404.0296575596534M303.7198826583316,404.0296575596534L282.9773295138898,400.97799639699906M282.9773295138898,400.97799639699906L283.22239187096454,399.3787148148623M265.77974187360064,417.2842360138512L237.10247232542912,400.6303906751815M237.10247232542912,400.6303906751815L215.8835869969522,387.8495460517697L216.40415404685825,385.59671001944L218.15912977596616,384.0019680597094M279.7310881619969,421.2591415743491L280.99211234278044,413.8960854953822M279.7310881619969,421.2591415743491L270.0756386084212,419.7559053799431L265.77974187360064,417.2842360138512M305.6598118508173,397.63516778045494L304.75103140543985,404.17247720323246L301.9025378375336,424.4996261039621L279.7310881619969,421.2591415743491M272.1492414767115,360.32064272578964L270.3160724844463,361.65374371011626L268.78650190426754,365.886159974282L272.337605396634,366.4772051751695L271.61917765956366,369.2508940666612M308.23416816036604,379.0000627083117L303.6471454972009,378.37430080578997L303.43174800345594,379.26534084777086L301.05944037608447,380.37307403882073M243.77761398934797,364.40546354737955L241.65763389387456,375.9003553337909M241.65763389387456,375.9003553337909L232.15643164248462,374.1127054705943L232.46261761151112,372.5115401173663L227.7487233750727,371.61654425247445L226.18010441693838,379.6183491271712L222.4089510805602,378.94209049363667M280.99211234278044,413.8960854953822L269.8455542637,412.2451851177643L269.24383100991906,416.02032561309375L266.06814127900606,415.51603919402373L265.77974187360064,417.2842360138512M291.6555957481746,315.1517747060069L302.5895663413187,316.91872760778085M302.5895663413187,316.91872760778085L298.8949172035543,341.81771011190517L301.47869261949046,342.20176153864475L300.8375799235088,344.8616406054832L298.92408367278915,357.7928586847413L297.89576722686337,362.6520495035363L297.911935725923,364.31432578251895L295.8428433145684,377.23324470454077L295.34902302800083,377.1698259007078L294.7739682005937,381.07611847830685M283.6754705834877,366.15672840527384L291.6555957481746,315.1517747060069M272.1492414767115,360.32064272578964L273.2110073738272,354.19278382031973L269.8268276263831,353.6145151835625L270.37544352453904,350.3072156067519L262.02828248013066,349.0425656748255L262.57146907707056,345.7861168801219L260.99062881566437,345.489215457808L261.3711683067561,343.437605824534L259.28565538587816,343.39220422925246L258.6741603795738,342.2063549744919L254.06219510434056,340.31075916878774L251.28802450044105,336.9220919585616L248.9947487551592,336.0874637322529M243.77761398934797,364.40546354737955L244.8715330798484,358.50433311201937M293.13117378866696,380.6607344680374L292.8247032412942,382.72610103263696L290.23925763319573,382.3676873476569L285.8113151307866,383.3275488126104L285.19807464120396,386.7429063441791M276.9360006022356,380.2765420561849L268.68068798559955,378.93816448387565L267.8485165451679,383.7641247070583L260.2838838087115,382.51701639717487L258.6369310145611,380.58922493037016L256.11656250796216,395.09787673709366M238.68385318801762,392.02469889877636L237.10247232542912,400.6303906751815M282.9773295138898,400.97799639699906L280.99211234278044,413.8960854953822" class="mesh" style="height:auto;overflow-x:visible;overflow-y:visible;text-align:center;width:auto;perspective-origin:0px 0px;transform-origin:0px 0px;fill:rgba(0, 0, 0, 0);stroke:rgb(235, 235, 235);stroke-width:0.5px;vector-effect:non-scaling-stroke;"><title style="height:auto;overflow-x:visible;overflow-y:visible;text-align:center;width:auto;perspective-origin:50% 50%;transform-origin:0px 0px;fill:rgba(0, 0, 0, 0);stroke:rgb(235, 235, 235);stroke-width:0.5px;"/></path></g>
				<g data-url="us-topology.json" data-object="counties" data-filter="properties.state === 'AZ' &amp;&amp; properties.name.match(/Pima/)" class="case_studies-selected_counties js-loaded topology" data-type="Topology" style="height:auto;overflow-x:visible;overflow-y:visible;text-align:center;width:auto;perspective-origin:0px 0px;transform-origin:0px 0px;fill:rgba(0, 0, 0, 0);stroke:rgb(235, 235, 235);stroke-width:0.5px;"><path d="M283.22223907907915,399.3797119375994L282.9773295138898,400.97799639699906L280.99195973714075,413.89708137755633L269.8455542637,412.2451851177643L269.24383100991906,416.02032561309375L266.06814127900606,415.51603919402373L265.7795797739729,417.2852298579469L237.10247232542912,400.6303906751815L238.68385318801762,392.02469889877636L256.11656250796216,395.09787673709366L272.26919827896165,397.8914994710743L272.3010759051987,397.69330529464787Z" id="4019" class="feature" style="height:auto;overflow-x:visible;overflow-y:visible;text-align:center;width:auto;perspective-origin:0px 0px;transform-origin:0px 0px;fill:rgb(159, 166, 59);stroke:rgb(255, 255, 255);stroke-width:0.5px;vector-effect:non-scaling-stroke;"><title style="height:auto;overflow-x:visible;overflow-y:visible;text-align:center;width:auto;perspective-origin:50% 50%;transform-origin:0px 0px;fill:rgb(159, 166, 59);stroke:rgb(255, 255, 255);stroke-width:0.5px;"/></path></g>
			</svg>
