<?xml version="1.0" standalone="no"?><!DOCTYPE svg PUBLIC "-//W3C//DTD SVG 1.1//EN" "http://www.w3.org/Graphics/SVG/1.1/DTD/svg11.dtd"><svg class="case_studies-map" viewBox="157.31287340595657 186.42846647478257 114.20150192616791 165.7134496840489" version="1.1" xmlns="http://www.w3.org/2000/svg" xmlns:xlink="http://www.w3.org/1999/xlink" style="height:599px;text-align:center;width:412.578px;perspective-origin:206.281px 299.5px;transform-origin:206.281px 299.5px;fill:rgba(0, 0, 0, 0);stroke:rgb(235, 235, 235);stroke-width:0.5px;">
	<g data-url="us-topology.json" data-object="states" data-mesh="true" data-filter="id === 'NV'" class="js-loaded topology" data-type="Topology" style="height:auto;overflow-x:visible;overflow-y:visible;text-align:center;width:auto;perspective-origin:0px 0px;transform-origin:0px 0px;fill:rgba(0, 0, 0, 0);stroke:rgb(235, 235, 235);stroke-width:2px;"><path d="M190.4447499609508,198.73365908597646L205.54673908533988,202.3606428058938L221.26175508992196,205.94826554094504L221.3806201826095,205.9832788685461L233.1050436771887,208.58241564320917L248.0374605294827,211.7463417760199L258.25747411672734,213.81312146165897L261.5143753321245,214.45244088140475L257.9798749855104,232.82137162910567L254.7722670669392,249.13831805773611L254.02195609661814,253.04216327817323L252.719310941375,259.76552504524057L249.60825060995205,275.78688081346866L249.23653799953814,277.7205750642694L247.72686805553434,285.5740618966804L245.75496360063693,295.63714653618604L243.62918336120197,306.834545538061L243.07456037997355,309.7477879689043L240.85671139851263,321.7960812693111L238.64276359979635,324.63591294976584L237.42957209618066,324.5998385040739L235.88541486054766,321.80554632593476L232.06919458182654,321.0614332751617L230.02380585323357,321.7451096655475L229.91800940517612,326.22828586237574L229.0751679413437,332.5575483640333L229.59647175053755,336.24149004787625L229.38392156414835,339.353911015755L228.00566563363589,340.2410311623312L227.83322951095653,342.14191615883146L215.84837214593568,324.1251270863231L213.0237708965799,319.87233300463663L198.46975193239444,297.9523771243481L190.9824514832169,286.66903154150214L184.38417389083054,276.7455713376096L176.40922377696097,264.7293191659717L174.5372668153026,261.90690059454084L171.81835564835836,257.83863075027216L168.3433501924365,252.6087772933596L167.31287340595657,251.04239369548225L167.6107366447888,249.8055159978253L167.80808778777407,248.97888878370566L168.04865237130264,248.00549277284802L168.71245815169647,245.24829201287116L169.38787386473518,242.85717111987992L170.71615055150988,237.85315330636877L177.6095347923095,211.19825081791282L181.43068484299266,196.42846647478257L189.96211953356777,198.6043533554589Z" id="NV" class="feature zoomed" style="height:auto;overflow-x:visible;overflow-y:visible;text-align:center;width:auto;perspective-origin:0px 0px;transform-origin:0px 0px;fill:rgba(0, 0, 0, 0);stroke:rgb(235, 235, 235);stroke-width:2px;vector-effect:non-scaling-stroke;"><title style="height:auto;overflow-x:visible;overflow-y:visible;text-align:center;width:auto;perspective-origin:50% 50%;transform-origin:0px 0px;fill:rgba(0, 0, 0, 0);stroke:rgb(235, 235, 235);stroke-width:2px;"/></path><path d="M205.54673908533988,202.3606428058938L221.26175508992196,205.94826554094504M190.4447499609508,198.73365908597646L205.54673908533988,202.3606428058938M189.96211953356777,198.6043533554589L190.4447499609508,198.73365908597646M221.3806201826095,205.9832788685461L233.1050436771887,208.58241564320917L248.0374605294827,211.7463417760199M221.26175508992196,205.94826554094504L221.3806201826095,205.9832788685461M181.43068484299266,196.42846647478257L189.96211953356777,198.6043533554589M248.0374605294827,211.7463417760199L258.25747411672734,213.81312146165897M258.25747411672734,213.81312146165897L261.5143753321245,214.45244088140475M170.71615055150988,237.85315330636877L177.6095347923095,211.19825081791282L181.43068484299266,196.42846647478257M167.80808778777407,248.97888878370566L168.04865237130264,248.00549277284802L168.71245815169647,245.24829201287116M168.71245815169647,245.24829201287116L169.38787386473518,242.85717111987992M169.38787386473518,242.85717111987992L170.71615055150988,237.85315330636877M261.5143753321245,214.45244088140475L257.9798749855104,232.82137162910567L254.7722670669392,249.13831805773611L254.02195609661814,253.04216327817323L252.719310941375,259.76552504524057M176.40922377696097,264.7293191659717L174.5372668153026,261.90690059454084M168.3433501924365,252.6087772933596L167.31287340595657,251.04239369548225L167.6107366447888,249.8055159978253L167.80808778777407,248.97888878370566M227.83322951095653,342.14191615883146L215.84837214593568,324.1251270863231L213.0237708965799,319.87233300463663L198.46975193239444,297.9523771243481M174.5372668153026,261.90690059454084L171.81835564835836,257.83863075027216M171.81835564835836,257.83863075027216L168.3433501924365,252.6087772933596M198.46975193239444,297.9523771243481L190.9824514832169,286.66903154150214L184.38417389083054,276.7455713376096L176.40922377696097,264.7293191659717M252.719310941375,259.76552504524057L249.60825060995205,275.78688081346866L249.23653799953814,277.7205750642694L247.72686805553434,285.5740618966804M247.72686805553434,285.5740618966804L245.75496360063693,295.63714653618604M245.75496360063693,295.63714653618604L243.62918336120197,306.834545538061M243.62918336120197,306.834545538061L243.07456037997355,309.7477879689043M243.07456037997355,309.7477879689043L240.85671139851263,321.7960812693111L238.64276359979635,324.63591294976584L237.42957209618066,324.5998385040739L235.88541486054766,321.80554632593476L232.06919458182654,321.0614332751617L230.02380585323357,321.7451096655475L229.91800940517612,326.22828586237574L229.0751679413437,332.5575483640333L229.59647175053755,336.24149004787625L229.38392156414835,339.353911015755L228.00566563363589,340.2410311623312L227.83322951095653,342.14191615883146" class="mesh" style="height:auto;overflow-x:visible;overflow-y:visible;text-align:center;width:auto;perspective-origin:0px 0px;transform-origin:0px 0px;fill:rgba(0, 0, 0, 0);stroke:rgb(235, 235, 235);stroke-width:2px;vector-effect:non-scaling-stroke;"><title style="height:auto;overflow-x:visible;overflow-y:visible;text-align:center;width:auto;perspective-origin:50% 50%;transform-origin:0px 0px;fill:rgba(0, 0, 0, 0);stroke:rgb(235, 235, 235);stroke-width:2px;"/></path></g>
				<g data-url="us-topology.json" data-object="counties" data-filter="properties.state === 'NV'" data-mesh="true" class="js-loaded topology" data-type="Topology" style="height:auto;overflow-x:visible;overflow-y:visible;text-align:center;width:auto;perspective-origin:0px 0px;transform-origin:0px 0px;fill:rgba(0, 0, 0, 0);stroke:rgb(235, 235, 235);stroke-width:0.5px;"><path d="M217.2574005155351,224.32331290005902L215.7768490603442,230.8858003199482L212.64633840160246,230.18944448458956L211.42196893008992,232.15744298492086L211.95779417905266,229.23987177320078L207.3826142316983,228.1776722938963L208.12173686566427,224.9883632197177L192.5468520646245,221.31754325456404L193.01621338212215,219.39748869333312L185.9141132424923,217.65002313632817L185.6414197314208,217.581739748048L190.4447499609508,198.73365908597646L205.54673908533988,202.3606428058938L221.26153339550825,205.94925120032065L221.3806201826095,205.9832788685461Z" id="32013" class="feature" style="height:auto;overflow-x:visible;overflow-y:visible;text-align:center;width:auto;perspective-origin:0px 0px;transform-origin:0px 0px;fill:rgba(0, 0, 0, 0);stroke:rgb(235, 235, 235);stroke-width:0.5px;vector-effect:non-scaling-stroke;"><title style="height:auto;overflow-x:visible;overflow-y:visible;text-align:center;width:auto;perspective-origin:50% 50%;transform-origin:0px 0px;fill:rgba(0, 0, 0, 0);stroke:rgb(235, 235, 235);stroke-width:0.5px;"/></path><path d="M258.25747411672734,213.81312146165897L261.5143753321245,214.45244088140475L257.97968412958056,232.82236493004905L254.7722670669392,249.13831805773611L237.903474606546,245.67673456532088L230.01315516025915,243.92813569770783L227.71108155533227,243.44782153345784L227.6786441109674,233.0544004641372L228.9946920458185,226.9187979871674L223.14465294596187,225.62975049312138L217.2574005155351,224.32331290005902L221.3806201826095,205.9832788685461L233.1050436771887,208.58241564320917L248.0374605294827,211.7463417760199Z" id="32007" class="feature" style="height:auto;overflow-x:visible;overflow-y:visible;text-align:center;width:auto;perspective-origin:0px 0px;transform-origin:0px 0px;fill:rgba(0, 0, 0, 0);stroke:rgb(235, 235, 235);stroke-width:0.5px;vector-effect:non-scaling-stroke;"><title style="height:auto;overflow-x:visible;overflow-y:visible;text-align:center;width:auto;perspective-origin:50% 50%;transform-origin:0px 0px;fill:rgba(0, 0, 0, 0);stroke:rgb(235, 235, 235);stroke-width:0.5px;"/></path><path d="M185.9141132424923,217.65002313632817L183.84343990208924,225.71504175155678L183.4933296090241,225.6367369283564L181.1086528675748,235.1310620888172L182.6833306554351,235.5038341497085L182.04742338414997,239.02415576687713L182.4670406208965,239.55638653494748L181.50688699410347,242.33590660794812L180.1512228747285,242.21268245901967L177.46416052435285,242.2835782759944L174.96414524216033,243.04251997612755L173.99177935331585,242.60519499006307L173.62144901627443,246.20361787120714L172.49433138138448,247.48632191676495L169.763031978642,248.4488277268499L168.04865237130264,248.00549277284802L168.71245815169647,245.24829201287116L169.38762083421443,242.85815162061385L170.71615055150988,237.85315330636877L177.6095347923095,211.19825081791282L181.4304324397903,196.4294447278644L189.96211953356777,198.6043533554589L190.4447499609508,198.73365908597646L185.6414197314208,217.581739748048Z" id="32031" class="feature" style="height:auto;overflow-x:visible;overflow-y:visible;text-align:center;width:auto;perspective-origin:0px 0px;transform-origin:0px 0px;fill:rgba(0, 0, 0, 0);stroke:rgb(235, 235, 235);stroke-width:0.5px;vector-effect:non-scaling-stroke;"><title style="height:auto;overflow-x:visible;overflow-y:visible;text-align:center;width:auto;perspective-origin:50% 50%;transform-origin:0px 0px;fill:rgba(0, 0, 0, 0);stroke:rgb(235, 235, 235);stroke-width:0.5px;"/></path><path d="M230.01315516025915,243.92813569770783L229.49323328088389,249.11486246858817L228.5342865043482,251.18245104477796L228.2256907453418,253.8504118009531L226.40447274663472,255.94534141008057L225.2284102119071,261.5272520087784L215.4961540536629,259.4285485583505L219.3275997421083,242.71534046934653L222.78910040098418,226.59134216504117L223.14465294596187,225.62975049312138L228.9946920458185,226.9187979871674L227.6786441109674,233.0544004641372L227.71108155533227,243.44782153345784Z" id="32011" class="feature" style="height:auto;overflow-x:visible;overflow-y:visible;text-align:center;width:auto;perspective-origin:0px 0px;transform-origin:0px 0px;fill:rgba(0, 0, 0, 0);stroke:rgb(235, 235, 235);stroke-width:0.5px;vector-effect:non-scaling-stroke;"><title style="height:auto;overflow-x:visible;overflow-y:visible;text-align:center;width:auto;perspective-origin:50% 50%;transform-origin:0px 0px;fill:rgba(0, 0, 0, 0);stroke:rgb(235, 235, 235);stroke-width:0.5px;"/></path><path d="M223.14465294596187,225.62975049312138L222.78910040098418,226.59134216504117L219.3275997421083,242.71534046934653L215.4961540536629,259.4285485583505L205.27081658826495,257.1043647200481L198.77138004210775,256.9589105228881L200.0544925537502,254.94511222417088L200.06254631959945,252.23626598827911L203.17422764907354,249.7629419073728L204.56940358128605,249.77606620909114L205.4217126999307,248.0561608837612L205.47056436302682,245.81398860184788L206.57071647094733,242.73646964680017L205.89520350166998,241.04144558880535L211.42196893008992,232.15744298492086L212.64633840160246,230.18944448458956L215.7768490603442,230.8858003199482L217.2574005155351,224.32331290005902Z" id="32015" class="feature" style="height:auto;overflow-x:visible;overflow-y:visible;text-align:center;width:auto;perspective-origin:0px 0px;transform-origin:0px 0px;fill:rgba(0, 0, 0, 0);stroke:rgb(235, 235, 235);stroke-width:0.5px;vector-effect:non-scaling-stroke;"><title style="height:auto;overflow-x:visible;overflow-y:visible;text-align:center;width:auto;perspective-origin:50% 50%;transform-origin:0px 0px;fill:rgba(0, 0, 0, 0);stroke:rgb(235, 235, 235);stroke-width:0.5px;"/></path><path d="M211.42196893008992,232.15744298492086L205.89520350166998,241.04144558880535L192.64626958928807,237.96757377186907L182.6833306554351,235.5038341497085L181.1086528675748,235.1310620888172L183.4933296090241,225.6367369283564L183.84343990208924,225.71504175155678L185.9141132424923,217.65002313632817L193.01621338212215,219.39748869333312L192.5468520646245,221.31754325456404L208.12173686566427,224.9883632197177L207.3826142316983,228.1776722938963L211.95779417905266,229.23987177320078Z" id="32027" class="feature" style="height:auto;overflow-x:visible;overflow-y:visible;text-align:center;width:auto;perspective-origin:0px 0px;transform-origin:0px 0px;fill:rgba(0, 0, 0, 0);stroke:rgb(235, 235, 235);stroke-width:0.5px;vector-effect:non-scaling-stroke;"><title style="height:auto;overflow-x:visible;overflow-y:visible;text-align:center;width:auto;perspective-origin:50% 50%;transform-origin:0px 0px;fill:rgba(0, 0, 0, 0);stroke:rgb(235, 235, 235);stroke-width:0.5px;"/></path><path d="M254.7722670669392,249.13831805773611L254.02195609661814,253.04216327817323L252.719310941375,259.76552504524057L249.60825060995205,275.78688081346866L236.14013065001507,273.1279908879184L225.2284102119071,261.5272520087784L226.40447274663472,255.94534141008057L228.2256907453418,253.8504118009531L228.5342865043482,251.18245104477796L229.49323328088389,249.11486246858817L230.01315516025915,243.92813569770783L237.903474606546,245.67673456532088Z" id="32033" class="feature" style="height:auto;overflow-x:visible;overflow-y:visible;text-align:center;width:auto;perspective-origin:0px 0px;transform-origin:0px 0px;fill:rgba(0, 0, 0, 0);stroke:rgb(235, 235, 235);stroke-width:0.5px;vector-effect:non-scaling-stroke;"><title style="height:auto;overflow-x:visible;overflow-y:visible;text-align:center;width:auto;perspective-origin:50% 50%;transform-origin:0px 0px;fill:rgba(0, 0, 0, 0);stroke:rgb(235, 235, 235);stroke-width:0.5px;"/></path><path d="M205.89520350166998,241.04144558880535L206.57071647094733,242.73646964680017L205.47056436302682,245.81398860184788L205.4217126999307,248.0561608837612L204.56940358128605,249.77606620909114L203.17422764907354,249.7629419073728L200.06254631959945,252.23626598827911L200.0544925537502,254.94511222417088L198.77138004210775,256.9589105228881L197.4420397439394,257.03098224961025L185.03609131879375,254.039284612017L185.19823228585813,253.35327621899467L181.38023117409773,247.05085114579265L183.45287960104224,241.07377463825117L181.50688699410347,242.33590660794812L182.4670406208965,239.55638653494748L182.04742338414997,239.02415576687713L182.6833306554351,235.5038341497085L192.64626958928807,237.96757377186907Z" id="32001" class="feature" style="height:auto;overflow-x:visible;overflow-y:visible;text-align:center;width:auto;perspective-origin:0px 0px;transform-origin:0px 0px;fill:rgba(0, 0, 0, 0);stroke:rgb(235, 235, 235);stroke-width:0.5px;vector-effect:non-scaling-stroke;"><title style="height:auto;overflow-x:visible;overflow-y:visible;text-align:center;width:auto;perspective-origin:50% 50%;transform-origin:0px 0px;fill:rgba(0, 0, 0, 0);stroke:rgb(235, 235, 235);stroke-width:0.5px;"/></path><path d="M185.03609131879375,254.039284612017L182.57139855255667,253.46446801106276L180.79214006187317,255.55228598962515L180.38734782524403,257.2342213455853L181.96745648736896,257.6068160700381L179.92820014084492,265.60021571493667L176.40922377696097,264.7293191659717L174.5372668153026,261.90690059454084L175.17336363254492,258.1744590467598L174.36576230787443,258.0312306476103L175.18454837609545,253.92694181039383L176.88658392566015,253.65439284613024L177.29530440025178,251.95781853359438L173.97855195719075,251.07406688570256L174.3256458089936,249.03075450722918L172.49433138138448,247.48632191676495L176.14350218680687,246.72517401870334L180.1512228747285,242.21268245901967L181.50688699410347,242.33590660794812L183.45287960104224,241.07377463825117L181.38023117409773,247.05085114579265L185.19823228585813,253.35327621899467Z" id="32019" class="feature" style="height:auto;overflow-x:visible;overflow-y:visible;text-align:center;width:auto;perspective-origin:0px 0px;transform-origin:0px 0px;fill:rgba(0, 0, 0, 0);stroke:rgb(235, 235, 235);stroke-width:0.5px;vector-effect:non-scaling-stroke;"><title style="height:auto;overflow-x:visible;overflow-y:visible;text-align:center;width:auto;perspective-origin:50% 50%;transform-origin:0px 0px;fill:rgba(0, 0, 0, 0);stroke:rgb(235, 235, 235);stroke-width:0.5px;"/></path><path d="M172.49433138138448,247.48632191676495L173.62144901627443,246.20361787120714L173.99177935331585,242.60519499006307L174.96414524216033,243.04251997612755L177.46416052435285,242.2835782759944L180.1512228747285,242.21268245901967L176.14350218680687,246.72517401870334Z" id="32029" class="feature" style="height:auto;overflow-x:visible;overflow-y:visible;text-align:center;width:auto;perspective-origin:0px 0px;transform-origin:0px 0px;fill:rgba(0, 0, 0, 0);stroke:rgb(235, 235, 235);stroke-width:0.5px;vector-effect:non-scaling-stroke;"><title style="height:auto;overflow-x:visible;overflow-y:visible;text-align:center;width:auto;perspective-origin:50% 50%;transform-origin:0px 0px;fill:rgba(0, 0, 0, 0);stroke:rgb(235, 235, 235);stroke-width:0.5px;"/></path><path d="M173.97855195719075,251.07406688570256L171.17834484961026,249.81373010433026L167.8078347214422,248.9798694232087L168.04865237130264,248.00549277284802L169.763031978642,248.4488277268499L172.49433138138448,247.48632191676495L174.3256458089936,249.03075450722918Z" id="32510" class="feature" style="height:auto;overflow-x:visible;overflow-y:visible;text-align:center;width:auto;perspective-origin:0px 0px;transform-origin:0px 0px;fill:rgba(0, 0, 0, 0);stroke:rgb(235, 235, 235);stroke-width:0.5px;vector-effect:non-scaling-stroke;"><title style="height:auto;overflow-x:visible;overflow-y:visible;text-align:center;width:auto;perspective-origin:50% 50%;transform-origin:0px 0px;fill:rgba(0, 0, 0, 0);stroke:rgb(235, 235, 235);stroke-width:0.5px;"/></path><path d="M215.4961540536629,259.4285485583505L225.2284102119071,261.5272520087784L236.14013065001507,273.1279908879184L233.79582025573563,284.69780258300545L221.0552525674288,282.064219521321L216.2721016157302,304.3507268418193L213.02356052430656,319.87332332984784L198.46975193239444,297.9523771243481L202.76777460390332,278.99620785462287L197.3188561607443,268.61028693005244L192.14220974751453,258.77602601318847L192.49157910985082,257.2850183851251L197.4420397439394,257.03098224961025L198.77138004210775,256.9589105228881L205.27081658826495,257.1043647200481Z" id="32023" class="feature" style="height:auto;overflow-x:visible;overflow-y:visible;text-align:center;width:auto;perspective-origin:0px 0px;transform-origin:0px 0px;fill:rgba(0, 0, 0, 0);stroke:rgb(235, 235, 235);stroke-width:0.5px;vector-effect:non-scaling-stroke;"><title style="height:auto;overflow-x:visible;overflow-y:visible;text-align:center;width:auto;perspective-origin:50% 50%;transform-origin:0px 0px;fill:rgba(0, 0, 0, 0);stroke:rgb(235, 235, 235);stroke-width:0.5px;"/></path><path d="M173.97855195719075,251.07406688570256L177.29530440025178,251.95781853359438L176.88658392566015,253.65439284613024L175.18454837609545,253.92694181039383L174.36576230787443,258.0312306476103L175.17336363254492,258.1744590467598L174.5372668153026,261.90690059454084L171.81835564835836,257.83863075027216L168.3430981330132,252.60975825582534L167.31287340595657,251.04239369548225L167.6107366447888,249.8055159978253L167.8078347214422,248.9798694232087L171.17834484961026,249.81373010433026Z" id="32005" class="feature" style="height:auto;overflow-x:visible;overflow-y:visible;text-align:center;width:auto;perspective-origin:0px 0px;transform-origin:0px 0px;fill:rgba(0, 0, 0, 0);stroke:rgb(235, 235, 235);stroke-width:0.5px;vector-effect:non-scaling-stroke;"><title style="height:auto;overflow-x:visible;overflow-y:visible;text-align:center;width:auto;perspective-origin:50% 50%;transform-origin:0px 0px;fill:rgba(0, 0, 0, 0);stroke:rgb(235, 235, 235);stroke-width:0.5px;"/></path><path d="M197.4420397439394,257.03098224961025L192.49157910985082,257.2850183851251L192.14220974751453,258.77602601318847L197.3188561607443,268.61028693005244L185.46305099465303,277.0534970415358L184.38417389083054,276.7455713376096L176.40922377696097,264.7293191659717L179.92820014084492,265.60021571493667L181.96745648736896,257.6068160700381L180.38734782524403,257.2342213455853L180.79214006187317,255.55228598962515L182.57139855255667,253.46446801106276L185.03609131879375,254.039284612017Z" id="32021" class="feature" style="height:auto;overflow-x:visible;overflow-y:visible;text-align:center;width:auto;perspective-origin:0px 0px;transform-origin:0px 0px;fill:rgba(0, 0, 0, 0);stroke:rgb(235, 235, 235);stroke-width:0.5px;vector-effect:non-scaling-stroke;"><title style="height:auto;overflow-x:visible;overflow-y:visible;text-align:center;width:auto;perspective-origin:50% 50%;transform-origin:0px 0px;fill:rgba(0, 0, 0, 0);stroke:rgb(235, 235, 235);stroke-width:0.5px;"/></path><path d="M249.60825060995205,275.78688081346866L249.2363467872678,277.7215697737777L247.72686805553434,285.5740618966804L245.75496360063693,295.63714653618604L243.62918336120197,306.834545538061L243.07456037997355,309.7477879689043L232.73325854408472,307.70622789763024L232.76881524548776,307.52845670363524L218.58228128559853,304.6221685448053L216.2721016157302,304.3507268418193L221.0552525674288,282.064219521321L233.79582025573563,284.69780258300545L236.14013065001507,273.1279908879184Z" id="32017" class="feature" style="height:auto;overflow-x:visible;overflow-y:visible;text-align:center;width:auto;perspective-origin:0px 0px;transform-origin:0px 0px;fill:rgba(0, 0, 0, 0);stroke:rgb(235, 235, 235);stroke-width:0.5px;vector-effect:non-scaling-stroke;"><title style="height:auto;overflow-x:visible;overflow-y:visible;text-align:center;width:auto;perspective-origin:50% 50%;transform-origin:0px 0px;fill:rgba(0, 0, 0, 0);stroke:rgb(235, 235, 235);stroke-width:0.5px;"/></path><path d="M198.46975193239444,297.9523771243481L190.9824514832169,286.66903154150214L184.38417389083054,276.7455713376096L185.46305099465303,277.0534970415358L197.3188561607443,268.61028693005244L202.76777460390332,278.99620785462287Z" id="32009" class="feature" style="height:auto;overflow-x:visible;overflow-y:visible;text-align:center;width:auto;perspective-origin:0px 0px;transform-origin:0px 0px;fill:rgba(0, 0, 0, 0);stroke:rgb(235, 235, 235);stroke-width:0.5px;vector-effect:non-scaling-stroke;"><title style="height:auto;overflow-x:visible;overflow-y:visible;text-align:center;width:auto;perspective-origin:50% 50%;transform-origin:0px 0px;fill:rgba(0, 0, 0, 0);stroke:rgb(235, 235, 235);stroke-width:0.5px;"/></path><path d="M243.07456037997355,309.7477879689043L240.85671139851263,321.7960812693111L238.64276359979635,324.63591294976584L237.42957209618066,324.5998385040739L235.88541486054766,321.80554632593476L232.06919458182654,321.0614332751617L230.02360734565087,321.7461024856284L229.91781146423938,326.2292786562731L229.0751679413437,332.5575483640333L229.59647175053755,336.24149004787625L229.38392156414835,339.353911015755L228.00566563363589,340.2410311623312L227.83322951095653,342.14191615883146L215.84816432967398,324.1261178345253L213.02356052430656,319.87332332984784L216.2721016157302,304.3507268418193L218.58228128559853,304.6221685448053L232.76881524548776,307.52845670363524L232.73325854408472,307.70622789763024Z" id="32003" class="feature" style="height:auto;overflow-x:visible;overflow-y:visible;text-align:center;width:auto;perspective-origin:0px 0px;transform-origin:0px 0px;fill:rgba(0, 0, 0, 0);stroke:rgb(235, 235, 235);stroke-width:0.5px;vector-effect:non-scaling-stroke;"><title style="height:auto;overflow-x:visible;overflow-y:visible;text-align:center;width:auto;perspective-origin:50% 50%;transform-origin:0px 0px;fill:rgba(0, 0, 0, 0);stroke:rgb(235, 235, 235);stroke-width:0.5px;"/></path><path d="M205.54673908533988,202.3606428058938L221.26153339550825,205.94925120032065M185.9141132424923,217.65002313632817L185.6414197314208,217.581739748048L190.4447499609508,198.73365908597646L205.54673908533988,202.3606428058938M189.96211953356777,198.6043533554589L190.4447499609508,198.73365908597646M221.3806201826095,205.9832788685461L233.1050436771887,208.58241564320917L248.0374605294827,211.7463417760199M181.4304324397903,196.4294447278644L189.96211953356777,198.6043533554589M248.0374605294827,211.7463417760199L258.25747411672734,213.81312146165897M258.25747411672734,213.81312146165897L261.5143753321245,214.45244088140475M205.89520350166998,241.04144558880535L211.42196893008992,232.15744298492086M211.42196893008992,232.15744298492086L211.95779417905266,229.23987177320078L207.3826142316983,228.1776722938963L208.12173686566427,224.9883632197177L192.5468520646245,221.31754325456404L193.01621338212215,219.39748869333312L185.9141132424923,217.65002313632817M223.14465294596187,225.62975049312138L217.2574005155351,224.32331290005902M254.7722670669392,249.13831805773611L237.903474606546,245.67673456532088L230.01315516025915,243.92813569770783M215.4961540536629,259.4285485583505L219.3275997421083,242.71534046934653L222.78910040098418,226.59134216504117L223.14465294596187,225.62975049312138M170.71615055150988,237.85315330636877L177.6095347923095,211.19825081791282L181.4304324397903,196.4294447278644M205.89520350166998,241.04144558880535L192.64626958928807,237.96757377186907L182.6833306554351,235.5038341497085M185.03609131879375,254.039284612017L185.19823228585813,253.35327621899467L181.38023117409773,247.05085114579265L183.45287960104224,241.07377463825117L181.50688699410347,242.33590660794812M172.49433138138448,247.48632191676495L176.14350218680687,246.72517401870334L180.1512228747285,242.21268245901967M173.97855195719075,251.07406688570256L174.3256458089936,249.03075450722918L172.49433138138448,247.48632191676495M172.49433138138448,247.48632191676495L169.763031978642,248.4488277268499L168.04865237130264,248.00549277284802M173.97855195719075,251.07406688570256L171.17834484961026,249.81373010433026L167.8078347214422,248.9798694232087L168.04865237130264,248.00549277284802L168.71245815169647,245.24829201287116M168.71245815169647,245.24829201287116L169.38762083421443,242.85815162061385M169.38762083421443,242.85815162061385L170.71615055150988,237.85315330636877M236.14013065001507,273.1279908879184L225.2284102119071,261.5272520087784M225.2284102119071,261.5272520087784L215.4961540536629,259.4285485583505M215.4961540536629,259.4285485583505L205.27081658826495,257.1043647200481L198.77138004210775,256.9589105228881M198.77138004210775,256.9589105228881L200.0544925537502,254.94511222417088L200.06254631959945,252.23626598827911L203.17422764907354,249.7629419073728L204.56940358128605,249.77606620909114L205.4217126999307,248.0561608837612L205.47056436302682,245.81398860184788L206.57071647094733,242.73646964680017L205.89520350166998,241.04144558880535M261.5143753321245,214.45244088140475L257.97968412958056,232.82236493004905L254.7722670669392,249.13831805773611L254.02195609661814,253.04216327817323L252.719310941375,259.76552504524057M249.60825060995205,275.78688081346866L236.14013065001507,273.1279908879184M197.3188561607443,268.61028693005244L192.14220974751453,258.77602601318847L192.49157910985082,257.2850183851251L197.4420397439394,257.03098224961025M197.4420397439394,257.03098224961025L185.03609131879375,254.039284612017M198.46975193239444,297.9523771243481L190.9824514832169,286.66903154150214L184.38417389083054,276.7455713376096L176.40922377696097,264.7293191659717M176.40922377696097,264.7293191659717L174.5372668153026,261.90690059454084M174.5372668153026,261.90690059454084L175.17336363254492,258.1744590467598L174.36576230787443,258.0312306476103L175.18454837609545,253.92694181039383L176.88658392566015,253.65439284613024L177.29530440025178,251.95781853359438L173.97855195719075,251.07406688570256M168.3430981330132,252.60975825582534L167.31287340595657,251.04239369548225L167.6107366447888,249.8055159978253L167.8078347214422,248.9798694232087M243.07456037997355,309.7477879689043L232.73325854408472,307.70622789763024L232.76881524548776,307.52845670363524L218.58228128559853,304.6221685448053L216.2721016157302,304.3507268418193M216.2721016157302,304.3507268418193L213.02356052430656,319.87332332984784M227.83322951095653,342.14191615883146L215.84816432967398,324.1261178345253L213.02356052430656,319.87332332984784L198.46975193239444,297.9523771243481M198.46975193239444,297.9523771243481L202.76777460390332,278.99620785462287L197.3188561607443,268.61028693005244M174.5372668153026,261.90690059454084L171.81835564835836,257.83863075027216M171.81835564835836,257.83863075027216L168.3430981330132,252.60975825582534M197.3188561607443,268.61028693005244L185.46305099465303,277.0534970415358L184.38417389083054,276.7455713376096M252.719310941375,259.76552504524057L249.60825060995205,275.78688081346866L249.2363467872678,277.7215697737777L247.72686805553434,285.5740618966804M247.72686805553434,285.5740618966804L245.75496360063693,295.63714653618604M245.75496360063693,295.63714653618604L243.62918336120197,306.834545538061M243.62918336120197,306.834545538061L243.07456037997355,309.7477879689043M243.07456037997355,309.7477879689043L240.85671139851263,321.7960812693111L238.64276359979635,324.63591294976584L237.42957209618066,324.5998385040739L235.88541486054766,321.80554632593476L232.06919458182654,321.0614332751617L230.02360734565087,321.7461024856284L229.91781146423938,326.2292786562731L229.0751679413437,332.5575483640333L229.59647175053755,336.24149004787625L229.38392156414835,339.353911015755L228.00566563363589,340.2410311623312L227.83322951095653,342.14191615883146M221.26153339550825,205.94925120032065L221.3806201826095,205.9832788685461L217.2574005155351,224.32331290005902M217.2574005155351,224.32331290005902L215.7768490603442,230.8858003199482L212.64633840160246,230.18944448458956L211.42196893008992,232.15744298492086M230.01315516025915,243.92813569770783L229.49323328088389,249.11486246858817L228.5342865043482,251.18245104477796L228.2256907453418,253.8504118009531L226.40447274663472,255.94534141008057L225.2284102119071,261.5272520087784M182.6833306554351,235.5038341497085L182.04742338414997,239.02415576687713L182.4670406208965,239.55638653494748L181.50688699410347,242.33590660794812M181.50688699410347,242.33590660794812L180.1512228747285,242.21268245901967M180.1512228747285,242.21268245901967L177.46416052435285,242.2835782759944L174.96414524216033,243.04251997612755L173.99177935331585,242.60519499006307L173.62144901627443,246.20361787120714L172.49433138138448,247.48632191676495M230.01315516025915,243.92813569770783L227.71108155533227,243.44782153345784L227.6786441109674,233.0544004641372L228.9946920458185,226.9187979871674L223.14465294596187,225.62975049312138M185.9141132424923,217.65002313632817L183.84343990208924,225.71504175155678L183.4933296090241,225.6367369283564L181.1086528675748,235.1310620888172L182.6833306554351,235.5038341497085M198.77138004210775,256.9589105228881L197.4420397439394,257.03098224961025M185.03609131879375,254.039284612017L182.57139855255667,253.46446801106276L180.79214006187317,255.55228598962515L180.38734782524403,257.2342213455853L181.96745648736896,257.6068160700381L179.92820014084492,265.60021571493667L176.40922377696097,264.7293191659717M236.14013065001507,273.1279908879184L233.79582025573563,284.69780258300545L221.0552525674288,282.064219521321L216.2721016157302,304.3507268418193" class="mesh" style="height:auto;overflow-x:visible;overflow-y:visible;text-align:center;width:auto;perspective-origin:0px 0px;transform-origin:0px 0px;fill:rgba(0, 0, 0, 0);stroke:rgb(235, 235, 235);stroke-width:0.5px;vector-effect:non-scaling-stroke;"><title style="height:auto;overflow-x:visible;overflow-y:visible;text-align:center;width:auto;perspective-origin:50% 50%;transform-origin:0px 0px;fill:rgba(0, 0, 0, 0);stroke:rgb(235, 235, 235);stroke-width:0.5px;"/></path></g>
				<g data-url="us-topology.json" data-object="counties" data-filter="properties.state === 'NV' &amp;&amp; properties.name.match(/Elko|Eureka/)" class="case_studies-selected_counties js-loaded topology" data-type="Topology" style="height:auto;overflow-x:visible;overflow-y:visible;text-align:center;width:auto;perspective-origin:0px 0px;transform-origin:0px 0px;fill:rgba(0, 0, 0, 0);stroke:rgb(235, 235, 235);stroke-width:0.5px;"><path d="M258.25747411672734,213.81312146165897L261.5143753321245,214.45244088140475L257.9794932736405,232.82335823104586L254.7722670669392,249.13831805773611L237.903474606546,245.67673456532088L230.01315516025915,243.92813569770783L227.71108155533227,243.44782153345784L227.6786441109674,233.0544004641372L228.99447912228118,226.9197867927785L223.14465294596187,225.62975049312138L217.2574005155351,224.32331290005902L221.3806201826095,205.9832788685461L233.1050436771887,208.58241564320917L248.0374605294827,211.7463417760199Z" id="32007" class="feature" style="height:auto;overflow-x:visible;overflow-y:visible;text-align:center;width:auto;perspective-origin:0px 0px;transform-origin:0px 0px;fill:rgb(159, 166, 59);stroke:rgb(255, 255, 255);stroke-width:0.5px;vector-effect:non-scaling-stroke;"><title style="height:auto;overflow-x:visible;overflow-y:visible;text-align:center;width:auto;perspective-origin:50% 50%;transform-origin:0px 0px;fill:rgb(159, 166, 59);stroke:rgb(255, 255, 255);stroke-width:0.5px;"/></path><path d="M230.01315516025915,243.92813569770783L229.49323328088389,249.11486246858817L228.5342865043482,251.18245104477796L228.22548118839956,253.85140242852162L226.40447274663472,255.94534141008057L225.2284102119071,261.5272520087784L215.4961540536629,259.4285485583505L219.3275997421083,242.71534046934653L222.78910040098418,226.59134216504117L223.14465294596187,225.62975049312138L228.99447912228118,226.9197867927785L227.6786441109674,233.0544004641372L227.71108155533227,243.44782153345784Z" id="32011" class="feature" style="height:auto;overflow-x:visible;overflow-y:visible;text-align:center;width:auto;perspective-origin:0px 0px;transform-origin:0px 0px;fill:rgb(159, 166, 59);stroke:rgb(255, 255, 255);stroke-width:0.5px;vector-effect:non-scaling-stroke;"><title style="height:auto;overflow-x:visible;overflow-y:visible;text-align:center;width:auto;perspective-origin:50% 50%;transform-origin:0px 0px;fill:rgb(159, 166, 59);stroke:rgb(255, 255, 255);stroke-width:0.5px;"/></path></g>
			</svg>