<?xml version="1.0" standalone="no"?><svg class="case_studies-map" viewBox="289.2076735858449 155.88793193239917 123.31025425644162 106.00063394466224" version="1.1" xmlns="http://www.w3.org/2000/svg" xmlns:xlink="http://www.w3.org/1999/xlink" style="height:355px;text-align:center;width:412.578px;perspective-origin:206.281px 177.5px;transform-origin:206.281px 177.5px;fill:rgba(0, 0, 0, 0);stroke:rgb(235, 235, 235);stroke-width:0.5px;">
	<g data-url="us-topology.json" data-object="states" data-mesh="true" data-filter="id === 'WY'" class="js-loaded topology" data-type="Topology" style="height:auto;overflow-x:visible;overflow-y:visible;text-align:center;width:auto;perspective-origin:0px 0px;transform-origin:0px 0px;fill:rgba(0, 0, 0, 0);stroke:rgb(235, 235, 235);stroke-width:2px;"><path d="M351.9861529847625,171.72753712686483L373.55857284827596,174.39717696805656L376.6882715225785,174.7365276721465L388.9747358505289,175.84694661151514L389.6389242958944,175.91249949176722L402.5179278422865,177.13449312692273L401.8664673020143,185.08145366452345L401.26633352600953,192.3711358210826L401.20371863192764,193.108216437186L400.7381108603349,198.4754300649371L400.1916204028302,205.02228252639486L400.1464461858335,205.4968641833732L399.4137638550875,214.3517069982944L398.799003976755,221.70527086322966L397.82861806359557,233.13087211319078L397.34504041548473,238.82465363431675L397.1318822954097,241.33443829848102L396.8696821671446,244.53956665540306L396.2254413381485,251.8885658770614L383.8325312316831,250.83739469845L379.1880722668505,250.38982526322627L366.48067215588253,249.08991097629712L364.6868483168223,248.8783007422786L357.2110195526866,247.96963670734567L350.83369486412096,247.21711675398012L342.50598845655776,246.21133875669716L326.82056886044927,244.16458121615244L313.6566089341822,242.33570507513184L313.0015330486691,242.23833440601516L299.2076735858449,240.10525532134147L299.9659764360922,235.38721877092337L300.9485490108257,229.2957005592948L302.1854206343752,221.45368051541288L303.70181057893126,211.95553979865736L305.24166918470894,202.5577038120423L306.10632968781425,197.07914707980376L306.645263150254,193.64156102396498L308.04814566057416,184.7011241381732L309.46898684560904,175.62012859285926L309.9562597753676,172.05566967520497L311.09011438618825,165.88793193239917L315.48168398125597,166.7568203260803L327.3274696614706,168.36065718819304L342.70349440392346,170.5430688080379L347.56360749819794,171.1967924637445Z" id="WY" class="feature zoomed" style="height:auto;overflow-x:visible;overflow-y:visible;text-align:center;width:auto;perspective-origin:0px 0px;transform-origin:0px 0px;fill:rgba(0, 0, 0, 0);stroke:rgb(235, 235, 235);stroke-width:2px;vector-effect:non-scaling-stroke;"><title style="height:auto;overflow-x:visible;overflow-y:visible;text-align:center;width:auto;perspective-origin:50% 50%;transform-origin:0px 0px;fill:rgba(0, 0, 0, 0);stroke:rgb(235, 235, 235);stroke-width:2px;"/></path><path d="M309.9562597753676,172.05566967520497L311.09011438618825,165.88793193239917M309.46898684560904,175.62012859285926L309.9562597753676,172.05566967520497M311.09011438618825,165.88793193239917L315.48168398125597,166.7568203260803L327.3274696614706,168.36065718819304M389.6389242958944,175.91249949176722L402.5179278422865,177.13449312692273M351.9861529847625,171.72753712686483L373.55857284827596,174.39717696805656M347.56360749819794,171.1967924637445L351.9861529847625,171.72753712686483M388.9747358505289,175.84694661151514L389.6389242958944,175.91249949176722M376.6882715225785,174.7365276721465L388.9747358505289,175.84694661151514M373.55857284827596,174.39717696805656L376.6882715225785,174.7365276721465M342.70349440392346,170.5430688080379L347.56360749819794,171.1967924637445M327.3274696614706,168.36065718819304L342.70349440392346,170.5430688080379M306.645263150254,193.64156102396498L308.04814566057416,184.7011241381732L309.46898684560904,175.62012859285926M303.70181057893126,211.95553979865736L305.24166918470894,202.5577038120423L306.10632968781425,197.07914707980376L306.645263150254,193.64156102396498M402.5179278422865,177.13449312692273L401.8664673020143,185.08145366452345L401.26633352600953,192.3711358210826L401.20371863192764,193.108216437186M401.20371863192764,193.108216437186L400.7381108603349,198.4754300649371L400.1916204028302,205.02228252639486L400.1464461858335,205.4968641833732L399.4137638550875,214.3517069982944M313.0015330486691,242.23833440601516L299.2076735858449,240.10525532134147L299.9659764360922,235.38721877092337L300.9485490108257,229.2957005592948L302.1854206343752,221.45368051541288M302.1854206343752,221.45368051541288L303.70181057893126,211.95553979865736M399.4137638550875,214.3517069982944L398.799003976755,221.70527086322966L397.82861806359557,233.13087211319078L397.34504041548473,238.82465363431675M364.6868483168223,248.8783007422786L357.2110195526866,247.96963670734567M357.2110195526866,247.96963670734567L350.83369486412096,247.21711675398012M350.83369486412096,247.21711675398012L342.50598845655776,246.21133875669716M379.1880722668505,250.38982526322627L366.48067215588253,249.08991097629712M366.48067215588253,249.08991097629712L364.6868483168223,248.8783007422786M342.50598845655776,246.21133875669716L326.82056886044927,244.16458121615244M326.82056886044927,244.16458121615244L313.6566089341822,242.33570507513184M313.6566089341822,242.33570507513184L313.0015330486691,242.23833440601516M397.34504041548473,238.82465363431675L397.1318822954097,241.33443829848102L396.8696821671446,244.53956665540306L396.2254413381485,251.8885658770614M396.2254413381485,251.8885658770614L383.8325312316831,250.83739469845M383.8325312316831,250.83739469845L379.1880722668505,250.38982526322627" class="mesh" style="height:auto;overflow-x:visible;overflow-y:visible;text-align:center;width:auto;perspective-origin:0px 0px;transform-origin:0px 0px;fill:rgba(0, 0, 0, 0);stroke:rgb(235, 235, 235);stroke-width:2px;vector-effect:non-scaling-stroke;"><title style="height:auto;overflow-x:visible;overflow-y:visible;text-align:center;width:auto;perspective-origin:50% 50%;transform-origin:0px 0px;fill:rgba(0, 0, 0, 0);stroke:rgb(235, 235, 235);stroke-width:2px;"/></path></g>
				<g data-url="us-topology.json" data-object="counties" data-filter="properties.state === 'WY'" data-mesh="true" class="js-loaded topology" data-type="Topology" style="height:auto;overflow-x:visible;overflow-y:visible;text-align:center;width:auto;perspective-origin:0px 0px;transform-origin:0px 0px;fill:rgba(0, 0, 0, 0);stroke:rgb(235, 235, 235);stroke-width:0.5px;"><path d="M342.70349440392346,170.5430688080379L342.76516233914856,172.98272420696492L341.8941256463886,179.48257439666827L342.1443161896291,179.517921473363L341.26904414146657,186.0591740621486L341.5778222566484,186.1002254584772L341.35333821225913,187.75388033327454L338.15312623782125,187.32060462508844L337.92968655368725,188.97065220422087L336.2919266736329,188.74779304256947L336.1164306251113,190.35084572781L333.7183328454082,190.02679792191725L333.5045945547914,191.67373316438545L330.56353059423765,191.3133906678355L329.15155149929024,188.89295573207414L327.9094345062415,188.13667997718517L326.48896475884317,188.6564628997089L325.9684608886174,190.03621934110208L324.2262341562554,190.63673812208037L323.70405632506413,187.59339197300653L321.89406965881835,187.47690277772028L321.2661911058188,186.27509315872896L321.6102516738843,183.96517262927875L320.76580587953777,180.83526655385072L319.2372400050464,177.9921976547597L319.72340179617095,176.3752389151556L318.62362372957074,174.98463593727297L314.7911638101645,174.39854312083514L315.0311677512516,172.8557469278752L309.9562597753676,172.05566967520497L311.09011438618825,165.88793193239917L315.48152918857954,166.75781279973603L327.3273243430458,168.3616510679857Z" id="56029" class="feature" style="height:auto;overflow-x:visible;overflow-y:visible;text-align:center;width:auto;perspective-origin:0px 0px;transform-origin:0px 0px;fill:rgba(0, 0, 0, 0);stroke:rgb(235, 235, 235);stroke-width:0.5px;vector-effect:non-scaling-stroke;"><title style="height:auto;overflow-x:visible;overflow-y:visible;text-align:center;width:auto;perspective-origin:50% 50%;transform-origin:0px 0px;fill:rgba(0, 0, 0, 0);stroke:rgb(235, 235, 235);stroke-width:0.5px;"/></path><path d="M351.9861529847625,171.72753712686483L352.533528340605,175.77782642313684L354.41473711892206,178.09603943689297L355.18138443716805,177.78428634451006L358.094211975196,180.80177684821717L358.7550986468378,182.70004459914014L360.0672426144104,183.26430023145315L360.53459339242056,185.53883306436353L360.168491359974,188.48265919010998L341.5778222566484,186.1002254584772L341.26904414146657,186.0591740621486L342.1443161896291,179.517921473363L341.8941256463886,179.48257439666827L342.76516233914856,172.98272420696492L342.70349440392346,170.5430688080379L347.56360749819794,171.1967924637445Z" id="56003" class="feature" style="height:auto;overflow-x:visible;overflow-y:visible;text-align:center;width:auto;perspective-origin:0px 0px;transform-origin:0px 0px;fill:rgba(0, 0, 0, 0);stroke:rgb(235, 235, 235);stroke-width:0.5px;vector-effect:non-scaling-stroke;"><title style="height:auto;overflow-x:visible;overflow-y:visible;text-align:center;width:auto;perspective-origin:50% 50%;transform-origin:0px 0px;fill:rgba(0, 0, 0, 0);stroke:rgb(235, 235, 235);stroke-width:0.5px;"/></path><path d="M388.9747358505289,175.84694661151514L387.63455469693906,191.22293691386494L386.41819606324464,203.8664316093599L373.8338765592124,202.6637299201543L376.0410204830927,182.7509129540739L376.6882715225785,174.7365276721465Z" id="56005" class="feature" style="height:auto;overflow-x:visible;overflow-y:visible;text-align:center;width:auto;perspective-origin:0px 0px;transform-origin:0px 0px;fill:rgba(0, 0, 0, 0);stroke:rgb(235, 235, 235);stroke-width:0.5px;vector-effect:non-scaling-stroke;"><title style="height:auto;overflow-x:visible;overflow-y:visible;text-align:center;width:auto;perspective-origin:50% 50%;transform-origin:0px 0px;fill:rgba(0, 0, 0, 0);stroke:rgb(235, 235, 235);stroke-width:0.5px;"/></path><path d="M373.55857284827596,174.39717696805656L376.6882715225785,174.7365276721465L376.0410204830927,182.7509129540739L370.49309038836196,182.29367013733315L358.094211975196,180.80177684821717L355.18138443716805,177.78428634451006L354.41473711892206,178.09603943689297L352.533528340605,175.77782642313684L351.9861529847625,171.72753712686483Z" id="56033" class="feature" style="height:auto;overflow-x:visible;overflow-y:visible;text-align:center;width:auto;perspective-origin:0px 0px;transform-origin:0px 0px;fill:rgba(0, 0, 0, 0);stroke:rgb(235, 235, 235);stroke-width:0.5px;vector-effect:non-scaling-stroke;"><title style="height:auto;overflow-x:visible;overflow-y:visible;text-align:center;width:auto;perspective-origin:50% 50%;transform-origin:0px 0px;fill:rgba(0, 0, 0, 0);stroke:rgb(235, 235, 235);stroke-width:0.5px;"/></path><path d="M389.6389242958944,175.91249949176722L402.51784278580516,177.13549397872305L401.8664673020143,185.08145366452345L401.26633352600953,192.3711358210826L387.63455469693906,191.22293691386494L388.9747358505289,175.84694661151514Z" id="56011" class="feature" style="height:auto;overflow-x:visible;overflow-y:visible;text-align:center;width:auto;perspective-origin:0px 0px;transform-origin:0px 0px;fill:rgba(0, 0, 0, 0);stroke:rgb(235, 235, 235);stroke-width:0.5px;vector-effect:non-scaling-stroke;"><title style="height:auto;overflow-x:visible;overflow-y:visible;text-align:center;width:auto;perspective-origin:50% 50%;transform-origin:0px 0px;fill:rgba(0, 0, 0, 0);stroke:rgb(235, 235, 235);stroke-width:0.5px;"/></path><path d="M321.2661911058188,186.27509315872896L319.7893232459588,196.35467942577725L319.47206441763285,197.9583323731831L315.6419482791964,197.37871116240694L315.3962531630894,198.99430470201742L312.264196264543,198.50587810900436L312.09856925437487,199.54539690565161L308.95417566728594,199.0562952186732L309.1884743457256,197.56526550906585L306.1061707692829,197.08014263526547L306.6451042797703,193.64255623014094L308.04814566057416,184.7011241381732L309.46898684560904,175.62012859285926L309.9562597753676,172.05566967520497L315.0311677512516,172.8557469278752L314.7911638101645,174.39854312083514L318.62362372957074,174.98463593727297L319.72340179617095,176.3752389151556L319.2372400050464,177.9921976547597L320.76580587953777,180.83526655385072L321.6102516738843,183.96517262927875Z" id="56039" class="feature" style="height:auto;overflow-x:visible;overflow-y:visible;text-align:center;width:auto;perspective-origin:0px 0px;transform-origin:0px 0px;fill:rgba(0, 0, 0, 0);stroke:rgb(235, 235, 235);stroke-width:0.5px;vector-effect:non-scaling-stroke;"><title style="height:auto;overflow-x:visible;overflow-y:visible;text-align:center;width:auto;perspective-origin:50% 50%;transform-origin:0px 0px;fill:rgba(0, 0, 0, 0);stroke:rgb(235, 235, 235);stroke-width:0.5px;"/></path><path d="M376.0410204830927,182.7509129540739L373.8338765592124,202.6637299201543L373.01472401353044,202.5859288416774L359.1719690261225,201.07701291269052L359.1893661740632,200.92887420737827L360.40658693856676,188.50967570139346L360.168491359974,188.48265919010998L360.53459339242056,185.53883306436353L360.0672426144104,183.26430023145315L358.7550986468378,182.70004459914014L358.094211975196,180.80177684821717L370.49309038836196,182.29367013733315Z" id="56019" class="feature" style="height:auto;overflow-x:visible;overflow-y:visible;text-align:center;width:auto;perspective-origin:0px 0px;transform-origin:0px 0px;fill:rgba(0, 0, 0, 0);stroke:rgb(235, 235, 235);stroke-width:0.5px;vector-effect:non-scaling-stroke;"><title style="height:auto;overflow-x:visible;overflow-y:visible;text-align:center;width:auto;perspective-origin:50% 50%;transform-origin:0px 0px;fill:rgba(0, 0, 0, 0);stroke:rgb(235, 235, 235);stroke-width:0.5px;"/></path><path d="M401.26633352600953,192.3711358210826L401.20371863192764,193.108216437186L400.7381108603349,198.4754300649371L400.1916204028302,205.02228252639486L388.834105661068,204.07335513047303L386.41819606324464,203.8664316093599L387.63455469693906,191.22293691386494Z" id="56045" class="feature" style="height:auto;overflow-x:visible;overflow-y:visible;text-align:center;width:auto;perspective-origin:0px 0px;transform-origin:0px 0px;fill:rgba(0, 0, 0, 0);stroke:rgb(235, 235, 235);stroke-width:0.5px;vector-effect:non-scaling-stroke;"><title style="height:auto;overflow-x:visible;overflow-y:visible;text-align:center;width:auto;perspective-origin:50% 50%;transform-origin:0px 0px;fill:rgba(0, 0, 0, 0);stroke:rgb(235, 235, 235);stroke-width:0.5px;"/></path><path d="M360.168491359974,188.48265919010998L360.40658693856676,188.50967570139346L359.1893661740632,200.92887420737827L353.51609199345444,200.2355757259645L352.7090695313617,200.13688973478054L353.04016394778915,197.43641593982102L351.41890998279854,197.24674151054126L351.6262333644163,195.61267848867703L348.41517066800384,195.20968740310218L348.61574057298867,193.62380029708777L343.9860329491595,192.5076225994119L344.1288031315131,191.4487075477573L342.54055042260995,191.23880459195527L342.7803533911557,189.599725102035L341.35333821225913,187.75388033327454L341.5778222566484,186.1002254584772Z" id="56043" class="feature" style="height:auto;overflow-x:visible;overflow-y:visible;text-align:center;width:auto;perspective-origin:0px 0px;transform-origin:0px 0px;fill:rgba(0, 0, 0, 0);stroke:rgb(235, 235, 235);stroke-width:0.5px;vector-effect:non-scaling-stroke;"><title style="height:auto;overflow-x:visible;overflow-y:visible;text-align:center;width:auto;perspective-origin:50% 50%;transform-origin:0px 0px;fill:rgba(0, 0, 0, 0);stroke:rgb(235, 235, 235);stroke-width:0.5px;"/></path><path d="M341.35333821225913,187.75388033327454L342.7803533911557,189.599725102035L342.54055042260995,191.23880459195527L344.1288031315131,191.4487075477573L343.9860329491595,192.5076225994119L348.61574057298867,193.62380029708777L348.41517066800384,195.20968740310218L351.6262333644163,195.61267848867703L351.41890998279854,197.24674151054126L353.04016394778915,197.43641593982102L352.7090695313617,200.13688973478054L352.64333008921665,200.67307407374813L342.6703239822013,199.6474440864016L341.18752669998565,198.6316089138394L338.075036849462,197.66631942570018L336.6675762153417,196.09444376969145L331.94207117556164,195.16978103335998L332.14791168553126,193.69398216846412L330.56353059423765,191.3133906678355L333.5045945547914,191.67373316438545L333.7183328454082,190.02679792191725L336.1164306251113,190.35084572781L336.2919266736329,188.74779304256947L337.92968655368725,188.97065220422087L338.15312623782125,187.32060462508844Z" id="56017" class="feature" style="height:auto;overflow-x:visible;overflow-y:visible;text-align:center;width:auto;perspective-origin:0px 0px;transform-origin:0px 0px;fill:rgba(0, 0, 0, 0);stroke:rgb(235, 235, 235);stroke-width:0.5px;vector-effect:non-scaling-stroke;"><title style="height:auto;overflow-x:visible;overflow-y:visible;text-align:center;width:auto;perspective-origin:50% 50%;transform-origin:0px 0px;fill:rgba(0, 0, 0, 0);stroke:rgb(235, 235, 235);stroke-width:0.5px;"/></path><path d="M330.56353059423765,191.3133906678355L332.14791168553126,193.69398216846412L331.94207117556164,195.16978103335998L336.6675762153417,196.09444376969145L338.075036849462,197.66631942570018L341.18752669998565,198.6316089138394L342.6703239822013,199.6474440864016L352.64333008921665,200.67307407374813L352.7090695313617,200.13688973478054L353.51609199345444,200.2355757259645L353.68703812063825,200.79349742441445L352.33204922084576,213.70065781257085L351.7640597593318,213.63145971609526L350.9933275996755,220.1084121613958L351.2519145683236,220.13994353389785L350.86429733580667,223.36216201225136L330.16134323491326,220.63492484965786L330.8736766000104,212.57787908564558L329.95444660250485,211.79410442956907L327.511769791283,207.33167685622868L325.2424265347528,205.73233972179526L324.0519901821966,200.7654596443448L323.7465750001993,196.96827975755207L319.7893232459588,196.35467942577725L321.2661911058188,186.27509315872896L321.89406965881835,187.47690277772028L323.70405632506413,187.59339197300653L324.2262341562554,190.63673812208037L325.9684608886174,190.03621934110208L326.48896475884317,188.6564628997089L327.9094345062415,188.13667997718517L329.15155149929024,188.89295573207414Z" id="56013" class="feature" style="height:auto;overflow-x:visible;overflow-y:visible;text-align:center;width:auto;perspective-origin:0px 0px;transform-origin:0px 0px;fill:rgba(0, 0, 0, 0);stroke:rgb(235, 235, 235);stroke-width:0.5px;vector-effect:non-scaling-stroke;"><title style="height:auto;overflow-x:visible;overflow-y:visible;text-align:center;width:auto;perspective-origin:50% 50%;transform-origin:0px 0px;fill:rgba(0, 0, 0, 0);stroke:rgb(235, 235, 235);stroke-width:0.5px;"/></path><path d="M400.1916204028302,205.02228252639486L400.1464461858335,205.4968641833732L399.4137638550875,214.3517069982944L398.799003976755,221.70527086322966L390.5908480213344,221.02244374444376L387.3727778788802,220.73465367517372L388.834105661068,204.07335513047303Z" id="56027" class="feature" style="height:auto;overflow-x:visible;overflow-y:visible;text-align:center;width:auto;perspective-origin:0px 0px;transform-origin:0px 0px;fill:rgba(0, 0, 0, 0);stroke:rgb(235, 235, 235);stroke-width:0.5px;vector-effect:non-scaling-stroke;"><title style="height:auto;overflow-x:visible;overflow-y:visible;text-align:center;width:auto;perspective-origin:50% 50%;transform-origin:0px 0px;fill:rgba(0, 0, 0, 0);stroke:rgb(235, 235, 235);stroke-width:0.5px;"/></path><path d="M388.834105661068,204.07335513047303L387.3727778788802,220.73465367517372L382.0078613415871,220.28491305434045L381.7229285720823,223.54452893782968L381.0668342355106,223.4861560891843L380.21341068221,226.07048989512919L376.9820894894245,225.47054676145444L378.013151719161,223.19795900258828L370.9688494338999,222.41108147089608L370.9394168200551,222.4089652249885L373.01472401353044,202.5859288416774L373.8338765592124,202.6637299201543L386.41819606324464,203.8664316093599Z" id="56009" class="feature" style="height:auto;overflow-x:visible;overflow-y:visible;text-align:center;width:auto;perspective-origin:0px 0px;transform-origin:0px 0px;fill:rgba(0, 0, 0, 0);stroke:rgb(235, 235, 235);stroke-width:0.5px;vector-effect:non-scaling-stroke;"><title style="height:auto;overflow-x:visible;overflow-y:visible;text-align:center;width:auto;perspective-origin:50% 50%;transform-origin:0px 0px;fill:rgba(0, 0, 0, 0);stroke:rgb(235, 235, 235);stroke-width:0.5px;"/></path><path d="M359.1893661740632,200.92887420737827L359.1719690261225,201.07701291269052L373.01472401353044,202.5859288416774L370.9394168200551,222.4089652249885L363.4573793370437,221.64780885585935L351.2519145683236,220.13994353389785L350.9933275996755,220.1084121613958L351.7640597593318,213.63145971609526L352.33204922084576,213.70065781257085L353.68703812063825,200.79349742441445L353.51609199345444,200.2355757259645Z" id="56025" class="feature" style="height:auto;overflow-x:visible;overflow-y:visible;text-align:center;width:auto;perspective-origin:0px 0px;transform-origin:0px 0px;fill:rgba(0, 0, 0, 0);stroke:rgb(235, 235, 235);stroke-width:0.5px;vector-effect:non-scaling-stroke;"><title style="height:auto;overflow-x:visible;overflow-y:visible;text-align:center;width:auto;perspective-origin:50% 50%;transform-origin:0px 0px;fill:rgba(0, 0, 0, 0);stroke:rgb(235, 235, 235);stroke-width:0.5px;"/></path><path d="M330.16134323491326,220.63492484965786L316.4554958682677,218.5392312473325L309.8557924229313,217.40506123470993L310.321338823299,214.22479033012974L309.6851327060043,214.12651198223512L312.09856925437487,199.54539690565161L312.264196264543,198.50587810900436L315.3962531630894,198.99430470201742L315.6419482791964,197.37871116240694L319.47206441763285,197.9583323731831L319.7893232459588,196.35467942577725L323.7465750001993,196.96827975755207L324.0519901821966,200.7654596443448L325.2424265347528,205.73233972179526L327.511769791283,207.33167685622868L329.95444660250485,211.79410442956907L330.8736766000104,212.57787908564558Z" id="56035" class="feature" style="height:auto;overflow-x:visible;overflow-y:visible;text-align:center;width:auto;perspective-origin:0px 0px;transform-origin:0px 0px;fill:rgba(0, 0, 0, 0);stroke:rgb(235, 235, 235);stroke-width:0.5px;vector-effect:non-scaling-stroke;"><title style="height:auto;overflow-x:visible;overflow-y:visible;text-align:center;width:auto;perspective-origin:50% 50%;transform-origin:0px 0px;fill:rgba(0, 0, 0, 0);stroke:rgb(235, 235, 235);stroke-width:0.5px;"/></path><path d="M312.09856925437487,199.54539690565161L309.6851327060043,214.12651198223512L310.321338823299,214.22479033012974L309.8557924229313,217.40506123470993L316.4554958682677,218.5392312473325L314.6087741082383,231.44387848080305L300.94838966069653,229.29669874587955L302.1854206343752,221.45368051541288L303.70181057893126,211.95553979865736L305.24166918470894,202.5577038120423L306.1061707692829,197.08014263526547L309.1884743457256,197.56526550906585L308.95417566728594,199.0562952186732Z" id="56023" class="feature" style="height:auto;overflow-x:visible;overflow-y:visible;text-align:center;width:auto;perspective-origin:0px 0px;transform-origin:0px 0px;fill:rgba(0, 0, 0, 0);stroke:rgb(235, 235, 235);stroke-width:0.5px;vector-effect:non-scaling-stroke;"><title style="height:auto;overflow-x:visible;overflow-y:visible;text-align:center;width:auto;perspective-origin:50% 50%;transform-origin:0px 0px;fill:rgba(0, 0, 0, 0);stroke:rgb(235, 235, 235);stroke-width:0.5px;"/></path><path d="M398.799003976755,221.70527086322966L397.82861806359557,233.13087211319078L397.34504041548473,238.82465363431675L397.1318822954097,241.33443829848102L388.84355866347823,240.592978705091L388.98455340626384,238.93923120666034L390.5908480213344,221.02244374444376Z" id="56015" class="feature" style="height:auto;overflow-x:visible;overflow-y:visible;text-align:center;width:auto;perspective-origin:0px 0px;transform-origin:0px 0px;fill:rgba(0, 0, 0, 0);stroke:rgb(235, 235, 235);stroke-width:0.5px;vector-effect:non-scaling-stroke;"><title style="height:auto;overflow-x:visible;overflow-y:visible;text-align:center;width:auto;perspective-origin:50% 50%;transform-origin:0px 0px;fill:rgba(0, 0, 0, 0);stroke:rgb(235, 235, 235);stroke-width:0.5px;"/></path><path d="M390.5908480213344,221.02244374444376L388.98455340626384,238.93923120666034L380.381002154041,238.05413411260088L381.7229285720823,223.54452893782968L382.0078613415871,220.28491305434045L387.3727778788802,220.73465367517372Z" id="56031" class="feature" style="height:auto;overflow-x:visible;overflow-y:visible;text-align:center;width:auto;perspective-origin:0px 0px;transform-origin:0px 0px;fill:rgba(0, 0, 0, 0);stroke:rgb(235, 235, 235);stroke-width:0.5px;vector-effect:non-scaling-stroke;"><title style="height:auto;overflow-x:visible;overflow-y:visible;text-align:center;width:auto;perspective-origin:50% 50%;transform-origin:0px 0px;fill:rgba(0, 0, 0, 0);stroke:rgb(235, 235, 235);stroke-width:0.5px;"/></path><path d="M370.9394168200551,222.4089652249885L370.9688494338999,222.41108147089608L368.97171309138594,241.84358776960414L365.4550730237929,241.46285356338853L364.68673870363494,248.87930625680042L357.2110195526866,247.96963670734567L350.83369486412096,247.21711675398012L342.50598845655776,246.21133875669716L343.90050043707424,233.91725483743755L349.66731164705425,234.66660018516518L350.72412107662603,226.63669020505472L350.86429733580667,223.36216201225136L351.2519145683236,220.13994353389785L363.4573793370437,221.64780885585935Z" id="56007" class="feature" style="height:auto;overflow-x:visible;overflow-y:visible;text-align:center;width:auto;perspective-origin:0px 0px;transform-origin:0px 0px;fill:rgba(0, 0, 0, 0);stroke:rgb(235, 235, 235);stroke-width:0.5px;vector-effect:non-scaling-stroke;"><title style="height:auto;overflow-x:visible;overflow-y:visible;text-align:center;width:auto;perspective-origin:50% 50%;transform-origin:0px 0px;fill:rgba(0, 0, 0, 0);stroke:rgb(235, 235, 235);stroke-width:0.5px;"/></path><path d="M381.7229285720823,223.54452893782968L380.381002154041,238.05413411260088L379.1880722668505,250.38982526322627L366.48067215588253,249.08991097629712L364.68673870363494,248.87930625680042L365.4550730237929,241.46285356338853L368.97171309138594,241.84358776960414L370.9688494338999,222.41108147089608L378.013151719161,223.19795900258828L376.9820894894245,225.47054676145444L380.21341068221,226.07048989512919L381.0668342355106,223.4861560891843Z" id="56001" class="feature" style="height:auto;overflow-x:visible;overflow-y:visible;text-align:center;width:auto;perspective-origin:0px 0px;transform-origin:0px 0px;fill:rgba(0, 0, 0, 0);stroke:rgb(235, 235, 235);stroke-width:0.5px;vector-effect:non-scaling-stroke;"><title style="height:auto;overflow-x:visible;overflow-y:visible;text-align:center;width:auto;perspective-origin:50% 50%;transform-origin:0px 0px;fill:rgba(0, 0, 0, 0);stroke:rgb(235, 235, 235);stroke-width:0.5px;"/></path><path d="M330.16134323491326,220.63492484965786L350.86429733580667,223.36216201225136L350.72412107662603,226.63669020505472L349.66731164705425,234.66660018516518L343.90050043707424,233.91725483743755L342.50598845655776,246.21133875669716L326.82056886044927,244.16458121615244L313.6566089341822,242.33570507513184L313.0015330486691,242.23833440601516L314.6087741082383,231.44387848080305L316.4554958682677,218.5392312473325Z" id="56037" class="feature" style="height:auto;overflow-x:visible;overflow-y:visible;text-align:center;width:auto;perspective-origin:0px 0px;transform-origin:0px 0px;fill:rgba(0, 0, 0, 0);stroke:rgb(235, 235, 235);stroke-width:0.5px;vector-effect:non-scaling-stroke;"><title style="height:auto;overflow-x:visible;overflow-y:visible;text-align:center;width:auto;perspective-origin:50% 50%;transform-origin:0px 0px;fill:rgba(0, 0, 0, 0);stroke:rgb(235, 235, 235);stroke-width:0.5px;"/></path><path d="M388.98455340626384,238.93923120666034L388.84355866347823,240.592978705091L397.1318822954097,241.33443829848102L396.8696821671446,244.53956665540306L396.2254413381485,251.8885658770614L383.8325312316831,250.83739469845L379.1880722668505,250.38982526322627L380.381002154041,238.05413411260088Z" id="56021" class="feature" style="height:auto;overflow-x:visible;overflow-y:visible;text-align:center;width:auto;perspective-origin:0px 0px;transform-origin:0px 0px;fill:rgba(0, 0, 0, 0);stroke:rgb(235, 235, 235);stroke-width:0.5px;vector-effect:non-scaling-stroke;"><title style="height:auto;overflow-x:visible;overflow-y:visible;text-align:center;width:auto;perspective-origin:50% 50%;transform-origin:0px 0px;fill:rgba(0, 0, 0, 0);stroke:rgb(235, 235, 235);stroke-width:0.5px;"/></path><path d="M314.6087741082383,231.44387848080305L313.0015330486691,242.23833440601516L299.2076735858449,240.10525532134147L299.9659764360922,235.38721877092337L300.94838966069653,229.29669874587955Z" id="56041" class="feature" style="height:auto;overflow-x:visible;overflow-y:visible;text-align:center;width:auto;perspective-origin:0px 0px;transform-origin:0px 0px;fill:rgba(0, 0, 0, 0);stroke:rgb(235, 235, 235);stroke-width:0.5px;vector-effect:non-scaling-stroke;"><title style="height:auto;overflow-x:visible;overflow-y:visible;text-align:center;width:auto;perspective-origin:50% 50%;transform-origin:0px 0px;fill:rgba(0, 0, 0, 0);stroke:rgb(235, 235, 235);stroke-width:0.5px;"/></path><path d="M321.2661911058188,186.27509315872896L321.6102516738843,183.96517262927875L320.76580587953777,180.83526655385072L319.2372400050464,177.9921976547597L319.72340179617095,176.3752389151556L318.62362372957074,174.98463593727297L314.7911638101645,174.39854312083514L315.0311677512516,172.8557469278752L309.9562597753676,172.05566967520497L311.09011438618825,165.88793193239917M309.46898684560904,175.62012859285926L309.9562597753676,172.05566967520497M311.09011438618825,165.88793193239917L315.48152918857954,166.75781279973603L327.3273243430458,168.3616510679857M389.6389242958944,175.91249949176722L402.51784278580516,177.13549397872305M351.9861529847625,171.72753712686483L373.55857284827596,174.39717696805656M388.9747358505289,175.84694661151514L389.6389242958944,175.91249949176722M373.55857284827596,174.39717696805656L376.6882715225785,174.7365276721465M342.70349440392346,170.5430688080379L347.56360749819794,171.1967924637445M360.168491359974,188.48265919010998L341.5778222566484,186.1002254584772M352.7090695313617,200.13688973478054L353.04016394778915,197.43641593982102L351.41890998279854,197.24674151054126L351.6262333644163,195.61267848867703L348.41517066800384,195.20968740310218L348.61574057298867,193.62380029708777L343.9860329491595,192.5076225994119L344.1288031315131,191.4487075477573L342.54055042260995,191.23880459195527L342.7803533911557,189.599725102035L341.35333821225913,187.75388033327454M352.7090695313617,200.13688973478054L352.64333008921665,200.67307407374813L342.6703239822013,199.6474440864016L341.18752669998565,198.6316089138394L338.075036849462,197.66631942570018L336.6675762153417,196.09444376969145L331.94207117556164,195.16978103335998L332.14791168553126,193.69398216846412L330.56353059423765,191.3133906678355M330.56353059423765,191.3133906678355L329.15155149929024,188.89295573207414L327.9094345062415,188.13667997718517L326.48896475884317,188.6564628997089L325.9684608886174,190.03621934110208L324.2262341562554,190.63673812208037L323.70405632506413,187.59339197300653L321.89406965881835,187.47690277772028L321.2661911058188,186.27509315872896M376.0410204830927,182.7509129540739L370.49309038836196,182.29367013733315L358.094211975196,180.80177684821717M359.1893661740632,200.92887420737827L360.40658693856676,188.50967570139346L360.168491359974,188.48265919010998M401.26633352600953,192.3711358210826L387.63455469693906,191.22293691386494M388.834105661068,204.07335513047303L386.41819606324464,203.8664316093599M386.41819606324464,203.8664316093599L373.8338765592124,202.6637299201543M373.8338765592124,202.6637299201543L376.0410204830927,182.7509129540739M306.6451042797703,193.64255623014094L308.04814566057416,184.7011241381732L309.46898684560904,175.62012859285926M330.16134323491326,220.63492484965786L330.8736766000104,212.57787908564558L329.95444660250485,211.79410442956907L327.511769791283,207.33167685622868L325.2424265347528,205.73233972179526L324.0519901821966,200.7654596443448L323.7465750001993,196.96827975755207L319.7893232459588,196.35467942577725M316.4554958682677,218.5392312473325L309.8557924229313,217.40506123470993L310.321338823299,214.22479033012974L309.6851327060043,214.12651198223512L312.09856925437487,199.54539690565161M312.09856925437487,199.54539690565161L308.95417566728594,199.0562952186732L309.1884743457256,197.56526550906585L306.1061707692829,197.08014263526547M303.70181057893126,211.95553979865736L305.24166918470894,202.5577038120423L306.1061707692829,197.08014263526547L306.6451042797703,193.64255623014094M402.51784278580516,177.13549397872305L401.8664673020143,185.08145366452345L401.26633352600953,192.3711358210826L401.20371863192764,193.108216437186M370.9394168200551,222.4089652249885L373.01472401353044,202.5859288416774M373.01472401353044,202.5859288416774L359.1719690261225,201.07701291269052L359.1893661740632,200.92887420737827M387.3727778788802,220.73465367517372L388.834105661068,204.07335513047303M359.1893661740632,200.92887420737827L353.51609199345444,200.2355757259645M353.51609199345444,200.2355757259645L352.7090695313617,200.13688973478054M370.9394168200551,222.4089652249885L363.4573793370437,221.64780885585935L351.2519145683236,220.13994353389785M342.50598845655776,246.21133875669716L343.90050043707424,233.91725483743755L349.66731164705425,234.66660018516518L350.72412107662603,226.63669020505472L350.86429733580667,223.36216201225136M350.86429733580667,223.36216201225136L330.16134323491326,220.63492484965786M401.20371863192764,193.108216437186L400.7381108603349,198.4754300649371L400.1916204028302,205.02228252639486L400.1464461858335,205.4968641833732L399.4137638550875,214.3517069982944M388.98455340626384,238.93923120666034L390.5908480213344,221.02244374444376M390.5908480213344,221.02244374444376L387.3727778788802,220.73465367517372M380.381002154041,238.05413411260088L381.7229285720823,223.54452893782968M381.7229285720823,223.54452893782968L381.0668342355106,223.4861560891843L380.21341068221,226.07048989512919L376.9820894894245,225.47054676145444L378.013151719161,223.19795900258828L370.9688494338999,222.41108147089608M370.9688494338999,222.41108147089608L370.9394168200551,222.4089652249885M330.16134323491326,220.63492484965786L316.4554958682677,218.5392312473325M313.0015330486691,242.23833440601516L314.6087741082383,231.44387848080305M314.6087741082383,231.44387848080305L300.94838966069653,229.29669874587955M313.0015330486691,242.23833440601516L299.2076735858449,240.10525532134147L299.9659764360922,235.38721877092337L300.94838966069653,229.29669874587955L302.1854206343752,221.45368051541288M302.1854206343752,221.45368051541288L303.70181057893126,211.95553979865736M399.4137638550875,214.3517069982944L398.799003976755,221.70527086322966L397.82861806359557,233.13087211319078L397.34504041548473,238.82465363431675M397.1318822954097,241.33443829848102L388.84355866347823,240.592978705091L388.98455340626384,238.93923120666034M388.98455340626384,238.93923120666034L380.381002154041,238.05413411260088M366.48067215588253,249.08991097629712L364.68673870363494,248.87930625680042M364.68673870363494,248.87930625680042L357.2110195526866,247.96963670734567M357.2110195526866,247.96963670734567L350.83369486412096,247.21711675398012M350.83369486412096,247.21711675398012L342.50598845655776,246.21133875669716M383.8325312316831,250.83739469845L379.1880722668505,250.38982526322627M379.1880722668505,250.38982526322627L366.48067215588253,249.08991097629712M342.50598845655776,246.21133875669716L326.82056886044927,244.16458121615244M326.82056886044927,244.16458121615244L313.6566089341822,242.33570507513184M313.6566089341822,242.33570507513184L313.0015330486691,242.23833440601516M397.34504041548473,238.82465363431675L397.1318822954097,241.33443829848102L396.8696821671446,244.53956665540306L396.2254413381485,251.8885658770614M396.2254413381485,251.8885658770614L383.8325312316831,250.83739469845M347.56360749819794,171.1967924637445L351.9861529847625,171.72753712686483L352.533528340605,175.77782642313684L354.41473711892206,178.09603943689297L355.18138443716805,177.78428634451006L358.094211975196,180.80177684821717M327.3273243430458,168.3616510679857L342.70349440392346,170.5430688080379L342.76516233914856,172.98272420696492L341.8941256463886,179.48257439666827L342.1443161896291,179.517921473363L341.26904414146657,186.0591740621486L341.5778222566484,186.1002254584772M341.5778222566484,186.1002254584772L341.35333821225913,187.75388033327454M341.35333821225913,187.75388033327454L338.15312623782125,187.32060462508844L337.92968655368725,188.97065220422087L336.2919266736329,188.74779304256947L336.1164306251113,190.35084572781L333.7183328454082,190.02679792191725L333.5045945547914,191.67373316438545L330.56353059423765,191.3133906678355M358.094211975196,180.80177684821717L358.7550986468378,182.70004459914014L360.0672426144104,183.26430023145315L360.53459339242056,185.53883306436353L360.168491359974,188.48265919010998M387.63455469693906,191.22293691386494L386.41819606324464,203.8664316093599M319.7893232459588,196.35467942577725L319.47206441763285,197.9583323731831L315.6419482791964,197.37871116240694L315.3962531630894,198.99430470201742L312.264196264543,198.50587810900436L312.09856925437487,199.54539690565161M400.1916204028302,205.02228252639486L388.834105661068,204.07335513047303M351.2519145683236,220.13994353389785L350.86429733580667,223.36216201225136M398.799003976755,221.70527086322966L390.5908480213344,221.02244374444376M376.6882715225785,174.7365276721465L388.9747358505289,175.84694661151514M388.9747358505289,175.84694661151514L387.63455469693906,191.22293691386494M376.0410204830927,182.7509129540739L376.6882715225785,174.7365276721465M321.2661911058188,186.27509315872896L319.7893232459588,196.35467942577725M373.8338765592124,202.6637299201543L373.01472401353044,202.5859288416774M353.51609199345444,200.2355757259645L353.68703812063825,200.79349742441445L352.33204922084576,213.70065781257085L351.7640597593318,213.63145971609526L350.9933275996755,220.1084121613958L351.2519145683236,220.13994353389785M387.3727778788802,220.73465367517372L382.0078613415871,220.28491305434045L381.7229285720823,223.54452893782968M316.4554958682677,218.5392312473325L314.6087741082383,231.44387848080305M370.9688494338999,222.41108147089608L368.97171309138594,241.84358776960414L365.4550730237929,241.46285356338853L364.68673870363494,248.87930625680042M380.381002154041,238.05413411260088L379.1880722668505,250.38982526322627" class="mesh" style="height:auto;overflow-x:visible;overflow-y:visible;text-align:center;width:auto;perspective-origin:0px 0px;transform-origin:0px 0px;fill:rgba(0, 0, 0, 0);stroke:rgb(235, 235, 235);stroke-width:0.5px;vector-effect:non-scaling-stroke;"><title style="height:auto;overflow-x:visible;overflow-y:visible;text-align:center;width:auto;perspective-origin:50% 50%;transform-origin:0px 0px;fill:rgba(0, 0, 0, 0);stroke:rgb(235, 235, 235);stroke-width:0.5px;"/></path></g>
				<g data-url="us-topology.json" data-object="counties" data-filter="properties.state === 'WY' &amp;&amp; properties.name.match(/Campbell/)" class="case_studies-selected_counties js-loaded topology" data-type="Topology" style="height:auto;overflow-x:visible;overflow-y:visible;text-align:center;width:auto;perspective-origin:0px 0px;transform-origin:0px 0px;fill:rgba(0, 0, 0, 0);stroke:rgb(235, 235, 235);stroke-width:0.5px;"><path d="M388.9747358505289,175.84694661151514L387.63455469693906,191.22293691386494L386.41819606324464,203.8664316093599L373.8338765592124,202.6637299201543L376.0410204830927,182.7509129540739L376.6882715225785,174.7365276721465Z" id="56005" class="feature" style="height:auto;overflow-x:visible;overflow-y:visible;text-align:center;width:auto;perspective-origin:0px 0px;transform-origin:0px 0px;fill:rgb(159, 166, 59);stroke:rgb(255, 255, 255);stroke-width:0.5px;vector-effect:non-scaling-stroke;"><title style="height:auto;overflow-x:visible;overflow-y:visible;text-align:center;width:auto;perspective-origin:50% 50%;transform-origin:0px 0px;fill:rgb(159, 166, 59);stroke:rgb(255, 255, 255);stroke-width:0.5px;"/></path></g>
			</svg>
