<?xml version="1.0" standalone="yes"?>
<svg xmlns="http://www.w3.org/2000/svg" version="1.2" id="root" viewBox="626.8425749862996 361.4547777102771 56.93198800498942 92.34908897911362"><g id="counties"><path id="county-01077" class="county feature" d="M641.4465427685259,368.2167526593555L638.8637029523643,367.67053659470673L637.4925019123598,367.22923603586L633.773791553708,369.43768841146994L631.4638643881118,368.326777743701L630.4511136268604,366.84634988200025L628.5506065267796,366.8232513389048L626.8425749862996,365.0115722887532L630.0815162539492,364.5455335032975L635.7856910256812,364.0986533419782L641.5831852845752,363.65081144474425L641.7844156505141,363.6392760523222L642.0429114495712,367.07670600859024Z" style="fill: inherit; stroke: inherit; stroke-width: inherit;" vector-effect="non-scaling-stroke"><title>Lauderdale County</title></path><path id="county-01083" class="county feature" d="M647.4665595293932,363.2351420396326L648.2468416927554,363.15843909819375L648.9584846356577,371.4358990248903L647.0962936948281,371.06302885815796L643.9342692800562,369.35768809659385L641.4465427685259,368.2167526593555L642.0429114495712,367.07670600859024L641.7844156505141,363.6392760523222Z" style="fill: inherit; stroke: inherit; stroke-width: inherit;" vector-effect="non-scaling-stroke"><title>Limestone County</title></path><path id="county-01089" class="county feature" d="M655.2699156602505,362.4731787986136L655.4000157444078,362.4608914669791L655.3361117614328,369.2534946309785L655.8888852309121,369.82031506428007L655.90321931792,371.5246306296116L653.518805411742,372.2923379680569L652.6080490622128,371.16895573080865L650.1961117985041,370.59052632314877L648.9584846356577,371.4358990248903L648.2468416927554,363.15843909819375Z" style="fill: inherit; stroke: inherit; stroke-width: inherit;" vector-effect="non-scaling-stroke"><title>Madison County</title></path><path id="county-01071" class="county feature" d="M666.6335259889479,363.7453741387419L664.0613835846818,368.4801170979083L661.0298903541665,371.5517096437893L660.2201567353052,371.71321746592525L658.9165455461032,370.9964698527399L658.6011491374024,369.5529489832852L655.8888852309121,369.82031506428007L655.3361117614328,369.2534946309785L655.4000157444078,362.4608914669791L662.1368227931629,361.8095947780323L666.0472995461677,361.4547777102771Z" style="fill: inherit; stroke: inherit; stroke-width: inherit;" vector-effect="non-scaling-stroke"><title>Jackson County</title></path><path id="county-01033" class="county feature" d="M638.8637029523643,367.67053659470673L639.0785532336831,368.2879043857223L637.6939426814783,372.18095176828285L628.397878156097,372.70241434468494L628.5506065267796,366.8232513389048L630.4511136268604,366.84634988200025L631.4638643881118,368.326777743701L633.773791553708,369.43768841146994L637.4925019123598,367.22923603586Z" style="fill: inherit; stroke: inherit; stroke-width: inherit;" vector-effect="non-scaling-stroke"><title>Colbert County</title></path><path id="county-01049" class="county feature" d="M667.8655454766676,368.0890083859249L668.0417086373541,368.7359983645573L668.3766153763322,369.9198982087837L666.8476171335943,373.0679737690649L664.0229127612033,376.5337442827255L660.022421019145,376.9420331310864L659.5129783588186,372.6992708261024L660.2201567353052,371.71321746592525L661.0298903541665,371.5517096437893L664.0613835846818,368.4801170979083L666.6335259889479,363.7453741387419Z" style="fill: inherit; stroke: inherit; stroke-width: inherit;" vector-effect="non-scaling-stroke"><title>DeKalb County</title></path><path id="county-01079" class="county feature" d="M641.4465427685259,368.2167526593555L643.9342692800562,369.35768809659385L644.5126077488917,376.34213323409574L644.5381986135467,376.61493012629387L638.133673479536,377.1019784351374L637.6939426814783,372.18095176828285L639.0785532336831,368.2879043857223L638.8637029523643,367.67053659470673Z" style="fill: inherit; stroke: inherit; stroke-width: inherit;" vector-effect="non-scaling-stroke"><title>Lawrence County</title></path><path id="county-01103" class="county feature" d="M648.9584846356577,371.4358990248903L650.1961117985041,370.59052632314877L652.6080490622128,371.16895573080865L652.5723948271586,375.73715566771523L644.5126077488917,376.34213323409574L643.9342692800562,369.35768809659385L647.0962936948281,371.06302885815796Z" style="fill: inherit; stroke: inherit; stroke-width: inherit;" vector-effect="non-scaling-stroke"><title>Morgan County</title></path><path id="county-01095" class="county feature" d="M660.2201567353052,371.71321746592525L659.5129783588186,372.6992708261024L660.022421019145,376.9420331310864L657.2024427003503,379.15851222622837L654.6259315109029,376.39017611828604L652.5723948271586,375.73715566771523L652.6080490622128,371.16895573080865L653.518805411742,372.2923379680569L655.90321931792,371.5246306296116L655.8888852309121,369.82031506428007L658.6011491374024,369.5529489832852L658.9165455461032,370.9964698527399Z" style="fill: inherit; stroke: inherit; stroke-width: inherit;" vector-effect="non-scaling-stroke"><title>Marshall County</title></path><path id="county-01059" class="county feature" d="M637.6939426814783,372.18095176828285L638.133673479536,377.1019784351374L636.5262642340671,377.1980249339466L628.2887246010254,377.63554147913953L628.330917992992,374.9474670095292L628.397878156097,372.70241434468494Z" style="fill: inherit; stroke: inherit; stroke-width: inherit;" vector-effect="non-scaling-stroke"><title>Franklin County</title></path><path id="county-01019" class="county feature" d="M669.6560319339469,374.2827156919577L670.6973611980155,378.0593442880852L671.2977354214161,380.2022218613621L669.3374988932285,380.8495437146987L666.0893932521094,380.69277426627525L664.0229127612033,376.5337442827255L666.8476171335943,373.0679737690649L668.3766153763322,369.9198982087837Z" style="fill: inherit; stroke: inherit; stroke-width: inherit;" vector-effect="non-scaling-stroke"><title>Cherokee County</title></path><path id="county-01093" class="county feature" d="M636.5262642340671,377.1980249339466L637.0084682671021,382.9135390534484L637.1577735517826,384.5429995677446L632.3097094633765,384.8743783777944L631.5611282308829,382.4415366870994L628.1791218844719,382.60574448197553L628.1905664966613,382.0723448194732L628.2887246010254,377.63554147913953Z" style="fill: inherit; stroke: inherit; stroke-width: inherit;" vector-effect="non-scaling-stroke"><title>Marion County</title></path><path id="county-01043" class="county feature" d="M652.5723948271586,375.73715566771523L654.6259315109029,376.39017611828604L653.622933920038,376.63519553277945L652.6465288757947,379.21035158098607L651.1200786015622,380.1197271450478L650.4226376872485,382.1642462138559L648.1750506009507,383.52078822954047L647.5629167815381,384.66253447412885L645.5378559990219,384.25537263499734L644.4500236206745,382.4073260778657L645.05013402328,382.3674082338423L644.5381986135467,376.61493012629387L644.5126077488917,376.34213323409574Z" style="fill: inherit; stroke: inherit; stroke-width: inherit;" vector-effect="non-scaling-stroke"><title>Cullman County</title></path><path id="county-01133" class="county feature" d="M638.133673479536,377.1019784351374L644.5381986135467,376.61493012629387L645.05013402328,382.3674082338423L644.4500236206745,382.4073260778657L637.0084682671021,382.9135390534484L636.5262642340671,377.1980249339466Z" style="fill: inherit; stroke: inherit; stroke-width: inherit;" vector-effect="non-scaling-stroke"><title>Winston County</title></path><path id="county-01009" class="county feature" d="M654.6259315109029,376.39017611828604L657.2024427003503,379.15851222622837L657.1721839923302,382.16899732888544L656.1098848056154,384.27918093582764L653.5796718544752,385.142474743403L653.6977241109671,385.8263184484705L650.724774226594,384.6936102028799L647.7884494790385,385.4551416149402L647.5629167815381,384.66253447412885L648.1750506009507,383.52078822954047L650.4226376872485,382.1642462138559L651.1200786015622,380.1197271450478L652.6465288757947,379.21035158098607L653.622933920038,376.63519553277945Z" style="fill: inherit; stroke: inherit; stroke-width: inherit;" vector-effect="non-scaling-stroke"><title>Blount County</title></path><path id="county-01055" class="county feature" d="M664.0229127612033,376.5337442827255L666.0893932521094,380.69277426627525L663.6825337270634,381.4333950047744L661.3501704147619,383.58761160574454L659.0101973386377,381.0554632411156L657.1721839923302,382.16899732888544L657.2024427003503,379.15851222622837L660.022421019145,376.9420331310864Z" style="fill: inherit; stroke: inherit; stroke-width: inherit;" vector-effect="non-scaling-stroke"><title>Etowah County</title></path><path id="county-01075" class="county feature" d="M632.3097094633765,384.8743783777944L633.0225557094095,392.2882634841793L627.9474629938024,392.5229854498788L628.0223433647661,388.53524549561155L628.1791218844719,382.60574448197553L631.5611282308829,382.4415366870994Z" style="fill: inherit; stroke: inherit; stroke-width: inherit;" vector-effect="non-scaling-stroke"><title>Lamar County</title></path><path id="county-01127" class="county feature" d="M644.4500236206745,382.4073260778657L645.5378559990219,384.25537263499734L647.5629167815381,384.66253447412885L647.7884494790385,385.4551416149402L646.4732783499231,388.58322141028236L644.677674433169,389.55516123086977L643.4995679567262,391.56954039963136L642.5816468666127,390.2488690827872L640.938832342367,390.1204775158735L640.7913460228287,388.4904448086654L639.181416069557,388.5784120592526L638.8379365879483,385.29375025853335L637.1577735517826,384.5429995677446L637.0084682671021,382.9135390534484Z" style="fill: inherit; stroke: inherit; stroke-width: inherit;" vector-effect="non-scaling-stroke"><title>Walker County</title></path><path id="county-01115" class="county feature" d="M661.3501704147619,383.58761160574454L661.797096270872,384.87881840107093L660.4311416455866,386.7700635405291L659.446157881774,388.6079886214827L659.9243779767304,389.4583597366284L657.4087843799357,392.526886020324L657.2025002736888,390.44118843205376L654.9891714545712,389.841005282506L653.6977241109671,385.8263184484705L653.5796718544752,385.142474743403L656.1098848056154,384.27918093582764L657.1721839923302,382.16899732888544L659.0101973386377,381.0554632411156Z" style="fill: inherit; stroke: inherit; stroke-width: inherit;" vector-effect="non-scaling-stroke"><title>Saint Clair County</title></path><path id="county-01015" class="county feature" d="M666.0481914445517,388.49753141345036L666.0056257377893,387.9473490048272L662.9328606573115,388.25801245804087L661.8830101794197,386.70258290539095L660.4311416455866,386.7700635405291L661.797096270872,384.87881840107093L661.3501704147619,383.58761160574454L663.6825337270634,381.4333950047744L666.0893932521094,380.69277426627525L669.3374988932285,380.8495437146987L667.8476185583094,382.2528675039914L668.2803737457957,386.5113001627145Z" style="fill: inherit; stroke: inherit; stroke-width: inherit;" vector-effect="non-scaling-stroke"><title>Calhoun County</title></path><path id="county-01029" class="county feature" d="M671.2977354214161,380.2022218613621L671.61481768413,381.3463703224447L672.8737629451347,385.9117479034936L673.7562386388187,389.03384009828164L668.5151665548868,389.37072259796525L665.303250012616,389.66672150313116L666.0481914445517,388.49753141345036L668.2803737457957,386.5113001627145L667.8476185583094,382.2528675039914L669.3374988932285,380.8495437146987Z" style="fill: inherit; stroke: inherit; stroke-width: inherit;" vector-effect="non-scaling-stroke"><title>Cleburne County</title></path><path id="county-01057" class="county feature" d="M637.1577735517826,384.5429995677446L638.8379365879483,385.29375025853335L639.181416069557,388.5784120592526L640.7913460228287,388.4904448086654L640.938832342367,390.1204775158735L637.7290788483318,390.2613038191132L637.3330355861871,391.9593437398239L634.6467544849388,392.13418860539946L633.0225557094095,392.2882634841793L632.3097094633765,384.8743783777944Z" style="fill: inherit; stroke: inherit; stroke-width: inherit;" vector-effect="non-scaling-stroke"><title>Fayette County</title></path><path id="county-01073" class="county feature" d="M653.6977241109671,385.8263184484705L654.9891714545712,389.841005282506L652.7065529101678,391.56893096005786L650.5515941839321,394.3213269801488L647.6741987232239,396.2118317000835L647.0691345038236,396.2608871257711L645.4789573190002,395.28212935074885L642.5518030818272,392.05316729019216L643.4995679567262,391.56954039963136L644.677674433169,389.55516123086977L646.4732783499231,388.58322141028236L647.7884494790385,385.4551416149402L650.724774226594,384.6936102028799Z" style="fill: inherit; stroke: inherit; stroke-width: inherit;" vector-effect="non-scaling-stroke"><title>Jefferson County</title></path><path id="county-01121" class="county feature" d="M660.4311416455866,386.7700635405291L661.8830101794197,386.70258290539095L662.9328606573115,388.25801245804087L666.0056257377893,387.9473490048272L666.0481914445517,388.49753141345036L665.303250012616,389.66672150313116L664.4918937615921,389.75345447802476L663.7318034722812,393.70085425139575L661.6077357238273,393.88343652295043L661.1109952190764,397.56238490883027L656.2185893880469,398.08914145818414L655.89004819048,396.76947683120227L656.8508220339072,394.6349035579369L657.9183641581798,394.23936731438414L657.4087843799357,392.526886020324L659.9243779767304,389.4583597366284L659.446157881774,388.6079886214827Z" style="fill: inherit; stroke: inherit; stroke-width: inherit;" vector-effect="non-scaling-stroke"><title>Talladega County</title></path><path id="county-01125" class="county feature" d="M640.938832342367,390.1204775158735L642.5816468666127,390.2488690827872L643.4995679567262,391.56954039963136L642.5518030818272,392.05316729019216L645.4789573190002,395.28212935074885L647.0691345038236,396.2608871257711L643.9216198588856,398.70287085882194L643.5782256072698,401.12899433359337L641.9808620948276,401.32714054197777L637.4239164508634,401.66859960922704L635.5984321055219,401.6294044471872L635.2951822376931,399.0837192787702L634.6467544849388,392.13418860539946L637.3330355861871,391.9593437398239L637.7290788483318,390.2613038191132Z" style="fill: inherit; stroke: inherit; stroke-width: inherit;" vector-effect="non-scaling-stroke"><title>Tuscaloosa County</title></path><path id="county-01117" class="county feature" d="M657.4087843799357,392.526886020324L657.9183641581798,394.23936731438414L656.8508220339072,394.6349035579369L655.89004819048,396.76947683120227L656.2185893880469,398.08914145818414L655.9616550232926,399.667248924443L654.436759694667,398.8908568885489L650.2282340569529,399.265409785922L650.2732466725787,399.6748764132615L647.8338231136383,397.7201357305545L647.6741987232239,396.2118317000835L650.5515941839321,394.3213269801488L652.7065529101678,391.56893096005786L654.9891714545712,389.841005282506L657.2025002736888,390.44118843205376Z" style="fill: inherit; stroke: inherit; stroke-width: inherit;" vector-effect="non-scaling-stroke"><title>Shelby County</title></path><path id="county-01107" class="county feature" d="M633.0225557094095,392.2882634841793L634.6467544849388,392.13418860539946L635.2951822376931,399.0837192787702L630.3667247843766,402.4738966288743L627.756817419509,402.77513157638214L627.8620251562032,397.16394946933735L627.9474629938024,392.5229854498788Z" style="fill: inherit; stroke: inherit; stroke-width: inherit;" vector-effect="non-scaling-stroke"><title>Pickens County</title></path><path id="county-01111" class="county feature" d="M673.7562386388187,389.03384009828164L674.0320356652393,390.0394899161713L675.5496976289387,395.51703446709166L675.6506499063117,395.9109897278141L670.0859886497301,396.5476392055242L669.1557798976411,396.66280606535656L668.5151665548868,389.37072259796525Z" style="fill: inherit; stroke: inherit; stroke-width: inherit;" vector-effect="non-scaling-stroke"><title>Randolph County</title></path><path id="county-01027" class="county feature" d="M668.5151665548868,389.37072259796525L669.1557798976411,396.66280606535656L663.6912024253803,397.5593950066468L661.1109952190764,397.56238490883027L661.6077357238273,393.88343652295043L663.7318034722812,393.70085425139575L664.4918937615921,389.75345447802476L665.303250012616,389.66672150313116Z" style="fill: inherit; stroke: inherit; stroke-width: inherit;" vector-effect="non-scaling-stroke"><title>Clay County</title></path><path id="county-01007" class="county feature" d="M650.2732466725787,399.6748764132615L650.741376533577,403.662691264778L648.5166065855112,403.8610374409968L643.8665708192059,404.3997454682343L642.2102598270847,403.7377763294711L641.9808620948276,401.32714054197777L643.5782256072698,401.12899433359337L643.9216198588856,398.70287085882194L647.0691345038236,396.2608871257711L647.6741987232239,396.2118317000835L647.8338231136383,397.7201357305545Z" style="fill: inherit; stroke: inherit; stroke-width: inherit;" vector-effect="non-scaling-stroke"><title>Bibb County</title></path><path id="county-01063" class="county feature" d="M637.4239164508634,401.66859960922704L635.8551112730279,404.47847574748357L636.8769086843172,408.36374119239656L637.7693984185154,409.4923485939796L636.7008299553632,410.82449843730467L636.0504224122467,410.73877304527434L634.8642855038664,408.997436943366L632.8362985884255,409.8664488694036L632.1997637156371,406.4973312602908L629.921221095644,403.87385261596046L630.3667247843766,402.4738966288743L635.2951822376931,399.0837192787702L635.5984321055219,401.6294044471872Z" style="fill: inherit; stroke: inherit; stroke-width: inherit;" vector-effect="non-scaling-stroke"><title>Greene County</title></path><path id="county-01017" class="county feature" d="M675.6506499063117,395.9109897278141L676.911451761034,400.26094275580465L677.933287748289,402.4893567002763L670.863917521842,403.6239394803879L670.0859886497301,396.5476392055242Z" style="fill: inherit; stroke: inherit; stroke-width: inherit;" vector-effect="non-scaling-stroke"><title>Chambers County</title></path><path id="county-01123" class="county feature" d="M670.0859886497301,396.5476392055242L670.863917521842,403.6239394803879L669.3166213067261,404.37989934759196L669.5396805481877,406.2738166109133L667.9731861800933,406.7255667478855L668.1700801536686,408.3429893054523L666.7806147261375,408.51539675161905L666.1696099107071,403.639242856813L664.3855976291544,403.8204807581874L663.6912024253803,397.5593950066468L669.1557798976411,396.66280606535656Z" style="fill: inherit; stroke: inherit; stroke-width: inherit;" vector-effect="non-scaling-stroke"><title>Tallapoosa County</title></path><path id="county-01037" class="county feature" d="M663.6912024253803,397.5593950066468L664.3855976291544,403.8204807581874L658.6696915992693,404.4408900165604L657.2709513943527,403.4149342947826L655.9616550232926,399.667248924443L656.2185893880469,398.08914145818414L661.1109952190764,397.56238490883027Z" style="fill: inherit; stroke: inherit; stroke-width: inherit;" vector-effect="non-scaling-stroke"><title>Coosa County</title></path><path id="county-01021" class="county feature" d="M655.9616550232926,399.667248924443L657.2709513943527,403.4149342947826L658.6696915992693,404.4408900165604L658.171583998557,405.36265203163475L653.4879162434568,405.8606308524012L653.5574544031689,406.6851711576272L650.4147546392561,406.94316312663693L648.847046494701,407.10983348541686L648.7303095595261,405.87828050211124L648.5166065855112,403.8610374409968L650.741376533577,403.662691264778L650.2732466725787,399.6748764132615L650.2282340569529,399.265409785922L654.436759694667,398.8908568885489Z" style="fill: inherit; stroke: inherit; stroke-width: inherit;" vector-effect="non-scaling-stroke"><title>Chilton County</title></path><path id="county-01065" class="county feature" d="M641.9808620948276,401.32714054197777L642.2102598270847,403.7377763294711L641.4872681618065,404.630928894013L641.7591304394921,407.90334432181396L640.9602771850565,407.9780208651846L641.2619169585471,411.22565442401185L638.07666614312,411.52826650429074L636.7008299553632,410.82449843730467L637.7693984185154,409.4923485939796L636.8769086843172,408.36374119239656L635.8551112730279,404.47847574748357L637.4239164508634,401.66859960922704Z" style="fill: inherit; stroke: inherit; stroke-width: inherit;" vector-effect="non-scaling-stroke"><title>Hale County</title></path><path id="county-01119" class="county feature" d="M636.0504224122467,410.73877304527434L633.4169686160035,412.8202201755731L633.2818923038756,413.9024095822148L635.1993616322466,414.9862860777756L627.5194373742855,415.65635267221603L627.6258095620074,410.5712169741745L627.73379847254,403.9486746940605L627.756817419509,402.77513157638214L630.3667247843766,402.4738966288743L629.921221095644,403.87385261596046L632.1997637156371,406.4973312602908L632.8362985884255,409.8664488694036L634.8642855038664,408.997436943366Z" style="fill: inherit; stroke: inherit; stroke-width: inherit;" vector-effect="non-scaling-stroke"><title>Sumter County</title></path><path id="county-01105" class="county feature" d="M648.5166065855112,403.8610374409968L648.7303095595261,405.87828050211124L648.5823443934086,408.4229759888426L647.699251125658,410.49213214290194L642.845288642811,411.0660135769216L643.1636871254625,414.33456049179756L642.3618139027019,414.41501482971L641.5597133863497,414.493027627527L641.2619169585471,411.22565442401185L640.9602771850565,407.9780208651846L641.7591304394921,407.90334432181396L641.4872681618065,404.630928894013L642.2102598270847,403.7377763294711L643.8665708192059,404.3997454682343Z" style="fill: inherit; stroke: inherit; stroke-width: inherit;" vector-effect="non-scaling-stroke"><title>Perry County</title></path><path id="county-01051" class="county feature" d="M666.7806147261375,408.51539675161905L666.9692731103124,409.2753436427229L664.7997162202624,410.10402565302866L662.0786698064412,409.9967804582333L661.3135465480319,409.0485802431042L658.762070692912,410.9173058188577L658.171583998557,405.36265203163475L658.6696915992693,404.4408900165604L664.3855976291544,403.8204807581874L666.1696099107071,403.639242856813Z" style="fill: inherit; stroke: inherit; stroke-width: inherit;" vector-effect="non-scaling-stroke"><title>Elmore County</title></path><path id="county-01081" class="county feature" d="M677.933287748289,402.4893567002763L679.0720457833521,404.975654178745L680.5273313002394,406.65240186325457L679.7037743926312,407.45770494798273L675.438467162038,408.0258593751863L675.6158238953429,409.09703264458676L674.001800583495,409.2994142011753L672.9541254679618,407.7688711591102L669.5396805481877,406.2738166109133L669.3166213067261,404.37989934759196L670.863917521842,403.6239394803879Z" style="fill: inherit; stroke: inherit; stroke-width: inherit;" vector-effect="non-scaling-stroke"><title>Lee County</title></path><path id="county-01047" class="county feature" d="M650.4147546392561,406.94316312663693L650.7941392759919,409.1932886526638L652.5865210406805,412.83357680016263L651.3363508797675,415.13836481763224L651.6763402814245,418.44496256216894L647.4273198087524,418.8536990750215L646.097880478948,417.1839163646364L642.4392586393187,415.2129732752368L642.3618139027019,414.41501482971L643.1636871254625,414.33456049179756L642.845288642811,411.0660135769216L647.699251125658,410.49213214290194L648.5823443934086,408.4229759888426L648.7303095595261,405.87828050211124L648.847046494701,407.10983348541686Z" style="fill: inherit; stroke: inherit; stroke-width: inherit;" vector-effect="non-scaling-stroke"><title>Dallas County</title></path><path id="county-01001" class="county feature" d="M658.171583998557,405.36265203163475L658.762070692912,410.9173058188577L657.5521505978768,412.2759067394029L653.8981413445288,411.4887883485991L652.5865210406805,412.83357680016263L650.7941392759919,409.1932886526638L650.4147546392561,406.94316312663693L653.5574544031689,406.6851711576272L653.4879162434568,405.8606308524012Z" style="fill: inherit; stroke: inherit; stroke-width: inherit;" vector-effect="non-scaling-stroke"><title>Autauga County</title></path><path id="county-01087" class="county feature" d="M674.001800583495,409.2994142011753L674.3723656630502,412.568103913776L667.794439900396,413.3333198133058L666.706442845407,412.6514320765816L664.7997162202624,410.10402565302866L666.9692731103124,409.2753436427229L666.7806147261375,408.51539675161905L668.1700801536686,408.3429893054523L667.9731861800933,406.7255667478855L669.5396805481877,406.2738166109133L672.9541254679618,407.7688711591102Z" style="fill: inherit; stroke: inherit; stroke-width: inherit;" vector-effect="non-scaling-stroke"><title>Macon County</title></path><path id="county-01091" class="county feature" d="M636.7008299553632,410.82449843730467L638.07666614312,411.52826650429074L641.2619169585471,411.22565442401185L641.5597133863497,414.493027627527L642.3618139027019,414.41501482971L642.4392586393187,415.2129732752368L641.6586890719675,415.47331931861356L641.8852231758964,417.7529849274681L640.2882623159892,417.90304704278014L640.5147320089752,420.2733671016165L639.8335710289912,420.599516821885L633.4654703667175,421.1677891280416L632.6582740483481,420.06276050846236L633.7822448082029,419.3943239800327L633.8471570646448,415.58347161496897L635.1993616322466,414.9862860777756L633.2818923038756,413.9024095822148L633.4169686160035,412.8202201755731L636.0504224122467,410.73877304527434Z" style="fill: inherit; stroke: inherit; stroke-width: inherit;" vector-effect="non-scaling-stroke"><title>Marengo County</title></path><path id="county-01113" class="county feature" d="M680.5273313002394,406.65240186325457L681.2681272892986,409.0753895655581L680.838429161106,410.0605058348518L682.8291675756194,411.0716719350862L682.3492903506886,411.7249166066856L680.4003624884033,413.8264405897089L680.6381557008671,415.09589718818256L678.6135063492029,415.35200705313275L677.2967138914416,413.8755078477403L674.9201447689126,414.1666699998376L674.3723656630502,412.568103913776L674.001800583495,409.2994142011753L675.6158238953429,409.09703264458676L675.438467162038,408.0258593751863L679.7037743926312,407.45770494798273Z" style="fill: inherit; stroke: inherit; stroke-width: inherit;" vector-effect="non-scaling-stroke"><title>Russell County</title></path><path id="county-01101" class="county feature" d="M664.7997162202624,410.10402565302866L666.706442845407,412.6514320765816L665.5032577349285,413.22924582582664L665.9303749497287,416.9504229007357L666.1229619257476,418.5041658821277L663.0517256691606,418.84572599246644L661.3147873516835,419.0509423929758L661.121263729033,417.4384298542765L659.5199198243295,417.61770513953354L659.1140855571057,414.00263789522194L657.5521505978768,412.2759067394029L658.762070692912,410.9173058188577L661.3135465480319,409.0485802431042L662.0786698064412,409.9967804582333Z" style="fill: inherit; stroke: inherit; stroke-width: inherit;" vector-effect="non-scaling-stroke"><title>Montgomery County</title></path><path id="county-01085" class="county feature" d="M657.5521505978768,412.2759067394029L659.1140855571057,414.00263789522194L659.5199198243295,417.61770513953354L659.0239116533337,419.29183521564596L652.6018534135269,419.97204336515995L651.6763402814245,418.44496256216894L651.3363508797675,415.13836481763224L652.5865210406805,412.83357680016263L653.8981413445288,411.4887883485991Z" style="fill: inherit; stroke: inherit; stroke-width: inherit;" vector-effect="non-scaling-stroke"><title>Lowndes County</title></path><path id="county-01023" class="county feature" d="M633.4654703667175,421.1677891280416L632.0850922160168,424.66810219008585L633.6823581331753,426.6253547322375L627.7587469717666,427.13508443768967L627.3207100699717,423.48150213295537L627.4887341531191,417.18428837660076L627.5194373742855,415.65635267221603L635.1993616322466,414.9862860777756L633.8471570646448,415.58347161496897L633.7822448082029,419.3943239800327L632.6582740483481,420.06276050846236Z" style="fill: inherit; stroke: inherit; stroke-width: inherit;" vector-effect="non-scaling-stroke"><title>Choctaw County</title></path><path id="county-01011" class="county feature" d="M674.3723656630502,412.568103913776L674.9201447689126,414.1666699998376L674.9083105243296,416.6552162167055L672.4709115988661,417.25803434227646L671.5902951010389,419.56384534517395L669.5003843474861,419.7886519904421L669.3425532292772,418.1665630821668L667.862601028736,418.3254182371096L667.5510506482722,416.84625021318425L665.9303749497287,416.9504229007357L665.5032577349285,413.22924582582664L666.706442845407,412.6514320765816L667.794439900396,413.3333198133058Z" style="fill: inherit; stroke: inherit; stroke-width: inherit;" vector-effect="non-scaling-stroke"><title>Bullock County</title></path><path id="county-01131" class="county feature" d="M642.4392586393187,415.2129732752368L646.097880478948,417.1839163646364L647.4273198087524,418.8536990750215L651.6763402814245,418.44496256216894L652.6018534135269,419.97204336515995L651.7970778939889,420.05858822876917L652.0657824734773,422.50309212740854L642.725768776259,423.39627961812687L640.854438585304,423.602339069561L639.8335710289912,420.599516821885L640.5147320089752,420.2733671016165L640.2882623159892,417.90304704278014L641.8852231758964,417.7529849274681L641.6586890719675,415.47331931861356Z" style="fill: inherit; stroke: inherit; stroke-width: inherit;" vector-effect="non-scaling-stroke"><title>Wilcox County</title></path><path id="county-01005" class="county feature" d="M680.6381557008671,415.09589718818256L680.6007472059961,416.4467439562701L679.751480643648,419.07061189454635L679.9116184377066,420.51582517621205L680.1638447316773,420.82256212452796L678.8937955099976,422.10568755569534L675.7477535690946,422.38073671606764L675.9238020663613,424.00623626670813L670.7004437338035,424.608433633035L671.7120007160374,421.3569132496634L671.5902951010389,419.56384534517395L672.4709115988661,417.25803434227646L674.9083105243296,416.6552162167055L674.9201447689126,414.1666699998376L677.2967138914416,413.8755078477403L678.6135063492029,415.35200705313275Z" style="fill: inherit; stroke: inherit; stroke-width: inherit;" vector-effect="non-scaling-stroke"><title>Barbour County</title></path><path id="county-01109" class="county feature" d="M671.5902951010389,419.56384534517395L671.7120007160374,421.3569132496634L670.7004437338035,424.608433633035L670.0562974863881,424.6790569824685L664.438011212018,425.27836443072954L664.062472453766,422.0528619017904L663.2621768523354,422.14400019130346L663.0517256691606,418.84572599246644L666.1229619257476,418.5041658821277L665.9303749497287,416.9504229007357L667.5510506482722,416.84625021318425L667.862601028736,418.3254182371096L669.3425532292772,418.1665630821668L669.5003843474861,419.7886519904421Z" style="fill: inherit; stroke: inherit; stroke-width: inherit;" vector-effect="non-scaling-stroke"><title>Pike County</title></path><path id="county-01041" class="county feature" d="M663.0517256691606,418.84572599246644L663.2621768523354,422.14400019130346L664.062472453766,422.0528619017904L664.438011212018,425.27836443072954L664.0236220253676,428.6719674222152L662.6848656381766,428.5174226628062L662.4885912550014,427.16274972099166L660.7705727107598,428.77850024757674L660.6059400181014,427.3800622794157L659.0466491039849,427.57169260120077L658.7978340204762,425.1478487770503L659.5998676580109,425.06010561122196L659.0239116533337,419.29183521564596L659.5199198243295,417.61770513953354L661.121263729033,417.4384298542765L661.3147873516835,419.0509423929758Z" style="fill: inherit; stroke: inherit; stroke-width: inherit;" vector-effect="non-scaling-stroke"><title>Crenshaw County</title></path><path id="county-01025" class="county feature" d="M639.8335710289912,420.599516821885L640.854438585304,423.602339069561L642.725768776259,423.39627961812687L642.7083076348806,425.87220909788255L641.900730715581,425.9584295306814L642.1621591440309,428.6404101420304L641.3495419865291,429.46171055210857L642.2296870475833,430.8779722236899L640.2111485170938,431.6655444037351L639.4322928631509,433.69816687565685L636.7209564381551,435.89722534683654L636.2528235386087,434.70343716702814L637.3511998822463,432.1363826640984L636.5397254660618,432.4834943389899L636.8933662419373,430.25826257849155L633.9756851086715,428.43155957409556L633.6823581331753,426.6253547322375L632.0850922160168,424.66810219008585L633.4654703667175,421.1677891280416Z" style="fill: inherit; stroke: inherit; stroke-width: inherit;" vector-effect="non-scaling-stroke"><title>Clarke County</title></path><path id="county-01013" class="county feature" d="M659.0239116533337,419.29183521564596L659.5998676580109,425.06010561122196L658.7978340204762,425.1478487770503L659.0466491039849,427.57169260120077L655.8552677128223,427.91466148673624L653.6778270308719,428.1014776028861L652.4204425128763,426.19877898636946L652.2218157235983,423.9508032753056L652.0657824734773,422.50309212740854L651.7970778939889,420.05858822876917L652.6018534135269,419.97204336515995Z" style="fill: inherit; stroke: inherit; stroke-width: inherit;" vector-effect="non-scaling-stroke"><title>Butler County</title></path><path id="county-01099" class="county feature" d="M652.0657824734773,422.50309212740854L652.2218157235983,423.9508032753056L649.9950056488781,424.81559354919204L648.804959386995,426.35720262697293L648.5121303637374,428.72646560895134L644.8440352064712,433.9147531777538L641.8847673375678,434.4796127184377L639.4322928631509,433.69816687565685L640.2111485170938,431.6655444037351L642.2296870475833,430.8779722236899L641.3495419865291,429.46171055210857L642.1621591440309,428.6404101420304L641.900730715581,425.9584295306814L642.7083076348806,425.87220909788255L642.725768776259,423.39627961812687Z" style="fill: inherit; stroke: inherit; stroke-width: inherit;" vector-effect="non-scaling-stroke"><title>Monroe County</title></path><path id="county-01067" class="county feature" d="M680.1638447316773,420.82256212452796L681.9785404003663,425.2483880508398L681.7647610141007,429.2070782842011L676.5410961150634,429.6807406473255L675.9238020663613,424.00623626670813L675.7477535690946,422.38073671606764L678.8937955099976,422.10568755569534Z" style="fill: inherit; stroke: inherit; stroke-width: inherit;" vector-effect="non-scaling-stroke"><title>Henry County</title></path><path id="county-01035" class="county feature" d="M655.8552677128223,427.91466148673624L656.6830071717832,430.7444209519855L656.1642044134268,431.237549187685L656.4849134778384,434.09602288108897L655.3473781130588,432.91065328260925L644.8440352064712,433.9147531777538L648.5121303637374,428.72646560895134L648.804959386995,426.35720262697293L649.9950056488781,424.81559354919204L652.2218157235983,423.9508032753056L652.4204425128763,426.19877898636946L653.6778270308719,428.1014776028861Z" style="fill: inherit; stroke: inherit; stroke-width: inherit;" vector-effect="non-scaling-stroke"><title>Conecuh County</title></path><path id="county-01129" class="county feature" d="M633.6823581331753,426.6253547322375L633.9756851086715,428.43155957409556L636.8933662419373,430.25826257849155L636.5397254660618,432.4834943389899L637.3511998822463,432.1363826640984L636.2528235386087,434.70343716702814L636.7209564381551,435.89722534683654L636.3530182672266,436.4961253574869L635.5844844705495,436.9074351372408L630.7186734425733,437.3169539296754L629.1383571857313,437.9992376181125L628.3808229516228,432.01537282230106L627.7587469717666,427.13508443768967Z" style="fill: inherit; stroke: inherit; stroke-width: inherit;" vector-effect="non-scaling-stroke"><title>Washington County</title></path><path id="county-01045" class="county feature" d="M675.9238020663613,424.00623626670813L676.5410961150634,429.6807406473255L675.6006030789273,431.0851650976301L672.7972309397198,430.9270727685446L672.1445899558713,432.4249155618455L670.8639907040686,432.54126807294335L670.0562974863881,424.6790569824685L670.7004437338035,424.608433633035Z" style="fill: inherit; stroke: inherit; stroke-width: inherit;" vector-effect="non-scaling-stroke"><title>Dale County</title></path><path id="county-01031" class="county feature" d="M670.8639907040686,432.54126807294335L664.5134080412392,433.29137359139565L664.0236220253676,428.6719674222152L664.438011212018,425.27836443072954L670.0562974863881,424.6790569824685Z" style="fill: inherit; stroke: inherit; stroke-width: inherit;" vector-effect="non-scaling-stroke"><title>Coffee County</title></path><path id="county-01039" class="county feature" d="M664.0236220253676,428.6719674222152L664.5134080412392,433.29137359139565L664.9926525524317,436.97410757083367L661.7954663618123,437.2989209001147L657.0353351001376,437.7682938496754L656.4849134778384,434.09602288108897L656.1642044134268,431.237549187685L656.6830071717832,430.7444209519855L655.8552677128223,427.91466148673624L659.0466491039849,427.57169260120077L660.6059400181014,427.3800622794157L660.7705727107598,428.77850024757674L662.4885912550014,427.16274972099166L662.6848656381766,428.5174226628062Z" style="fill: inherit; stroke: inherit; stroke-width: inherit;" vector-effect="non-scaling-stroke"><title>Covington County</title></path><path id="county-01003" class="county feature" d="M645.0364998896281,452.33867511620576L645.0290675155645,452.25560912677975L645.0364998896281,452.33867511620576ZM639.4322928631509,433.69816687565685L641.8847673375678,434.4796127184377L642.5606298064332,439.0654178304827L642.2066144782837,441.57020905106515L644.0864712130762,443.71972847342454L646.1579835546531,444.8034897628811L646.067068809941,448.39747135327525L646.808969120853,449.0458287768241L644.3869400107296,452.536872448948L639.9911254031518,453.76393127392873L637.8820931647294,453.8038666893907L641.3606901745858,452.49365879302525L638.5991639249874,450.44307607241274L638.4637281876235,447.9759111201588L637.6158124160073,444.8027994342576L636.2743723059015,444.35411405903085L636.2216030645384,443.9326338920828L636.4832704446286,443.54924365724503L637.0448296167197,438.560485894939L636.3530182672266,436.4961253574869L636.7209564381551,435.89722534683654Z" style="fill: inherit; stroke: inherit; stroke-width: inherit;" vector-effect="non-scaling-stroke"><title>Baldwin County</title></path><path id="county-01069" class="county feature" d="M681.7647610141007,429.2070782842011L681.8630244261703,431.90532041615506L683.1974135474039,433.4379594129949L683.774562991289,434.7851474232381L676.0758464260593,435.72686207969105L675.6962846214726,431.9465607109313L672.1445899558713,432.4249155618455L672.7972309397198,430.9270727685446L675.6006030789273,431.0851650976301L676.5410961150634,429.6807406473255Z" style="fill: inherit; stroke: inherit; stroke-width: inherit;" vector-effect="non-scaling-stroke"><title>Houston County</title></path><path id="county-01053" class="county feature" d="M656.4849134778384,434.09602288108897L657.0353351001376,437.7682938496754L655.4801270422797,437.87383937686946L649.4776483430309,438.4071410016104L642.5606298064332,439.0654178304827L641.8847673375678,434.4796127184377L644.8440352064712,433.9147531777538L655.3473781130588,432.91065328260925Z" style="fill: inherit; stroke: inherit; stroke-width: inherit;" vector-effect="non-scaling-stroke"><title>Escambia County</title></path><path id="county-01061" class="county feature" d="M676.0758464260593,435.72686207969105L675.9224617570924,435.7469247444351L667.4098433279247,436.7358619489047L664.9926525524317,436.97410757083367L664.5134080412392,433.29137359139565L670.8639907040686,432.54126807294335L672.1445899558713,432.4249155618455L675.6962846214726,431.9465607109313Z" style="fill: inherit; stroke: inherit; stroke-width: inherit;" vector-effect="non-scaling-stroke"><title>Geneva County</title></path><path id="county-01097" class="county feature" d="M636.2216030645384,443.9326338920828L636.2743723059015,444.35411405903085L636.2216030645384,443.9326338920828ZM636.4832704446286,443.54924365724503L635.3080853119109,449.0218975971304L635.4419090641263,451.3244600441784L630.7967432997024,451.52652738965594L630.011946748778,445.0457574353467L629.4140321127262,440.1577652207119L629.1383571857313,437.9992376181125L630.7186734425733,437.3169539296754L635.5844844705495,436.9074351372408L636.3530182672266,436.4961253574869L637.0448296167197,438.560485894939Z" style="fill: inherit; stroke: inherit; stroke-width: inherit;" vector-effect="non-scaling-stroke"><title>Mobile County</title></path></g><path id="counties-mesh" class="counties mesh" d="M648.2468416927554,363.15843909819375L648.9584846356577,371.4358990248903L647.0962936948281,371.06302885815796L643.9342692800562,369.35768809659385L641.4465427685259,368.2167526593555M638.133673479536,377.1019784351374L636.5262642340671,377.1980249339466L628.2887246010254,377.63554147913953L628.330917992992,374.9474670095292L628.397878156097,372.70241434468494L628.5506065267796,366.8232513389048M655.4000157444078,362.4608914669791L655.3361117614328,369.2534946309785L655.8888852309121,369.82031506428007L655.90321931792,371.5246306296116L653.518805411742,372.2923379680569L652.6080490622128,371.16895573080865L650.1961117985041,370.59052632314877L648.9584846356577,371.4358990248903M641.7844156505141,363.6392760523222L642.0429114495712,367.07670600859024L641.4465427685259,368.2167526593555L638.8637029523643,367.67053659470673L637.4925019123598,367.22923603586L633.773791553708,369.43768841146994L631.4638643881118,368.326777743701L630.4511136268604,366.84634988200025L628.5506065267796,366.8232513389048L626.8425749862996,365.0115722887532L630.0815162539492,364.5455335032975L635.7856910256812,364.0986533419782L641.5831852845752,363.65081144474425L641.7844156505141,363.6392760523222L647.4665595293932,363.2351420396326L648.2468416927554,363.15843909819375L655.2699156602505,362.4731787986136L655.4000157444078,362.4608914669791L662.1368227931629,361.8095947780323L666.0472995461677,361.4547777102771L666.6335259889479,363.7453741387419L664.0613835846818,368.4801170979083L661.0298903541665,371.5517096437893L660.2201567353052,371.71321746592525L658.9165455461032,370.9964698527399L658.6011491374024,369.5529489832852L655.8888852309121,369.82031506428007M638.8637029523643,367.67053659470673L639.0785532336831,368.2879043857223L637.6939426814783,372.18095176828285L628.397878156097,372.70241434468494M666.6335259889479,363.7453741387419L667.8655454766676,368.0890083859249L668.0417086373541,368.7359983645573L668.3766153763322,369.9198982087837L666.8476171335943,373.0679737690649L664.0229127612033,376.5337442827255L660.022421019145,376.9420331310864L659.5129783588186,372.6992708261024L660.2201567353052,371.71321746592525M643.9342692800562,369.35768809659385L644.5126077488917,376.34213323409574L644.5381986135467,376.61493012629387L638.133673479536,377.1019784351374L637.6939426814783,372.18095176828285M652.6080490622128,371.16895573080865L652.5723948271586,375.73715566771523L644.5126077488917,376.34213323409574M660.022421019145,376.9420331310864L657.2024427003503,379.15851222622837L654.6259315109029,376.39017611828604L652.5723948271586,375.73715566771523M668.3766153763322,369.9198982087837L669.6560319339469,374.2827156919577L670.6973611980155,378.0593442880852L671.2977354214161,380.2022218613621L669.3374988932285,380.8495437146987L666.0893932521094,380.69277426627525L664.0229127612033,376.5337442827255M636.5262642340671,377.1980249339466L637.0084682671021,382.9135390534484L637.1577735517826,384.5429995677446L632.3097094633765,384.8743783777944L631.5611282308829,382.4415366870994L628.1791218844719,382.60574448197553L628.1905664966613,382.0723448194732L628.2887246010254,377.63554147913953M654.6259315109029,376.39017611828604L653.622933920038,376.63519553277945L652.6465288757947,379.21035158098607L651.1200786015622,380.1197271450478L650.4226376872485,382.1642462138559L648.1750506009507,383.52078822954047L647.5629167815381,384.66253447412885L645.5378559990219,384.25537263499734L644.4500236206745,382.4073260778657L645.05013402328,382.3674082338423L644.5381986135467,376.61493012629387M644.4500236206745,382.4073260778657L637.0084682671021,382.9135390534484M657.2024427003503,379.15851222622837L657.1721839923302,382.16899732888544L656.1098848056154,384.27918093582764L653.5796718544752,385.142474743403L653.6977241109671,385.8263184484705L650.724774226594,384.6936102028799L647.7884494790385,385.4551416149402L647.5629167815381,384.66253447412885M666.0893932521094,380.69277426627525L663.6825337270634,381.4333950047744L661.3501704147619,383.58761160574454L659.0101973386377,381.0554632411156L657.1721839923302,382.16899732888544M632.3097094633765,384.8743783777944L633.0225557094095,392.2882634841793L627.9474629938024,392.5229854498788L628.0223433647661,388.53524549561155L628.1791218844719,382.60574448197553M647.7884494790385,385.4551416149402L646.4732783499231,388.58322141028236L644.677674433169,389.55516123086977L643.4995679567262,391.56954039963136L642.5816468666127,390.2488690827872L640.938832342367,390.1204775158735L640.7913460228287,388.4904448086654L639.181416069557,388.5784120592526L638.8379365879483,385.29375025853335L637.1577735517826,384.5429995677446M661.3501704147619,383.58761160574454L661.797096270872,384.87881840107093L660.4311416455866,386.7700635405291L659.446157881774,388.6079886214827L659.9243779767304,389.4583597366284L657.4087843799357,392.526886020324L657.2025002736888,390.44118843205376L654.9891714545712,389.841005282506L653.6977241109671,385.8263184484705M669.3374988932285,380.8495437146987L667.8476185583094,382.2528675039914L668.2803737457957,386.5113001627145L666.0481914445517,388.49753141345036L666.0056257377893,387.9473490048272L662.9328606573115,388.25801245804087L661.8830101794197,386.70258290539095L660.4311416455866,386.7700635405291M671.2977354214161,380.2022218613621L671.61481768413,381.3463703224447L672.8737629451347,385.9117479034936L673.7562386388187,389.03384009828164L668.5151665548868,389.37072259796525L665.303250012616,389.66672150313116L666.0481914445517,388.49753141345036M640.938832342367,390.1204775158735L637.7290788483318,390.2613038191132L637.3330355861871,391.9593437398239L634.6467544849388,392.13418860539946L633.0225557094095,392.2882634841793M654.9891714545712,389.841005282506L652.7065529101678,391.56893096005786L650.5515941839321,394.3213269801488L647.6741987232239,396.2118317000835L647.0691345038236,396.2608871257711L645.4789573190002,395.28212935074885L642.5518030818272,392.05316729019216L643.4995679567262,391.56954039963136M635.2951822376931,399.0837192787702L630.3667247843766,402.4738966288743L627.756817419509,402.77513157638214L627.8620251562032,397.16394946933735L627.9474629938024,392.5229854498788M665.303250012616,389.66672150313116L664.4918937615921,389.75345447802476L663.7318034722812,393.70085425139575L661.6077357238273,393.88343652295043L661.1109952190764,397.56238490883027L656.2185893880469,398.08914145818414L655.89004819048,396.76947683120227L656.8508220339072,394.6349035579369L657.9183641581798,394.23936731438414L657.4087843799357,392.526886020324M647.0691345038236,396.2608871257711L643.9216198588856,398.70287085882194L643.5782256072698,401.12899433359337L641.9808620948276,401.32714054197777L637.4239164508634,401.66859960922704L635.5984321055219,401.6294044471872L635.2951822376931,399.0837192787702L634.6467544849388,392.13418860539946M656.2185893880469,398.08914145818414L655.9616550232926,399.667248924443L654.436759694667,398.8908568885489L650.2282340569529,399.265409785922L650.2732466725787,399.6748764132615L647.8338231136383,397.7201357305545L647.6741987232239,396.2118317000835M673.7562386388187,389.03384009828164L674.0320356652393,390.0394899161713L675.5496976289387,395.51703446709166L675.6506499063117,395.9109897278141L670.0859886497301,396.5476392055242L669.1557798976411,396.66280606535656L668.5151665548868,389.37072259796525M669.1557798976411,396.66280606535656L663.6912024253803,397.5593950066468L661.1109952190764,397.56238490883027M636.0504224122467,410.73877304527434L633.4169686160035,412.8202201755731L633.2818923038756,413.9024095822148L635.1993616322466,414.9862860777756L627.5194373742855,415.65635267221603L627.6258095620074,410.5712169741745L627.73379847254,403.9486746940605L627.756817419509,402.77513157638214M650.2732466725787,399.6748764132615L650.741376533577,403.662691264778L648.5166065855112,403.8610374409968L643.8665708192059,404.3997454682343L642.2102598270847,403.7377763294711L641.9808620948276,401.32714054197777M637.4239164508634,401.66859960922704L635.8551112730279,404.47847574748357L636.8769086843172,408.36374119239656L637.7693984185154,409.4923485939796L636.7008299553632,410.82449843730467L636.0504224122467,410.73877304527434L634.8642855038664,408.997436943366L632.8362985884255,409.8664488694036L632.1997637156371,406.4973312602908L629.921221095644,403.87385261596046L630.3667247843766,402.4738966288743M675.6506499063117,395.9109897278141L676.911451761034,400.26094275580465L677.933287748289,402.4893567002763L670.863917521842,403.6239394803879L670.0859886497301,396.5476392055242M670.863917521842,403.6239394803879L669.3166213067261,404.37989934759196L669.5396805481877,406.2738166109133L667.9731861800933,406.7255667478855L668.1700801536686,408.3429893054523L666.7806147261375,408.51539675161905L666.1696099107071,403.639242856813L664.3855976291544,403.8204807581874L663.6912024253803,397.5593950066468M664.3855976291544,403.8204807581874L658.6696915992693,404.4408900165604L657.2709513943527,403.4149342947826L655.9616550232926,399.667248924443M658.6696915992693,404.4408900165604L658.171583998557,405.36265203163475L653.4879162434568,405.8606308524012L653.5574544031689,406.6851711576272L650.4147546392561,406.94316312663693L648.847046494701,407.10983348541686L648.7303095595261,405.87828050211124L648.5166065855112,403.8610374409968M642.2102598270847,403.7377763294711L641.4872681618065,404.630928894013L641.7591304394921,407.90334432181396L640.9602771850565,407.9780208651846L641.2619169585471,411.22565442401185L638.07666614312,411.52826650429074L636.7008299553632,410.82449843730467M648.7303095595261,405.87828050211124L648.5823443934086,408.4229759888426L647.699251125658,410.49213214290194L642.845288642811,411.0660135769216L643.1636871254625,414.33456049179756L642.3618139027019,414.41501482971L641.5597133863497,414.493027627527L641.2619169585471,411.22565442401185M666.7806147261375,408.51539675161905L666.9692731103124,409.2753436427229L664.7997162202624,410.10402565302866L662.0786698064412,409.9967804582333L661.3135465480319,409.0485802431042L658.762070692912,410.9173058188577L658.171583998557,405.36265203163475M677.933287748289,402.4893567002763L679.0720457833521,404.975654178745L680.5273313002394,406.65240186325457L679.7037743926312,407.45770494798273L675.438467162038,408.0258593751863L675.6158238953429,409.09703264458676L674.001800583495,409.2994142011753L672.9541254679618,407.7688711591102L669.5396805481877,406.2738166109133M650.4147546392561,406.94316312663693L650.7941392759919,409.1932886526638L652.5865210406805,412.83357680016263L651.3363508797675,415.13836481763224L651.6763402814245,418.44496256216894L647.4273198087524,418.8536990750215L646.097880478948,417.1839163646364L642.4392586393187,415.2129732752368L642.3618139027019,414.41501482971M658.762070692912,410.9173058188577L657.5521505978768,412.2759067394029L653.8981413445288,411.4887883485991L652.5865210406805,412.83357680016263M674.001800583495,409.2994142011753L674.3723656630502,412.568103913776L667.794439900396,413.3333198133058L666.706442845407,412.6514320765816L664.7997162202624,410.10402565302866M633.4654703667175,421.1677891280416L632.0850922160168,424.66810219008585L633.6823581331753,426.6253547322375L627.7587469717666,427.13508443768967L627.3207100699717,423.48150213295537L627.4887341531191,417.18428837660076L627.5194373742855,415.65635267221603M642.4392586393187,415.2129732752368L641.6586890719675,415.47331931861356L641.8852231758964,417.7529849274681L640.2882623159892,417.90304704278014L640.5147320089752,420.2733671016165L639.8335710289912,420.599516821885L633.4654703667175,421.1677891280416L632.6582740483481,420.06276050846236L633.7822448082029,419.3943239800327L633.8471570646448,415.58347161496897L635.1993616322466,414.9862860777756M680.5273313002394,406.65240186325457L681.2681272892986,409.0753895655581L680.838429161106,410.0605058348518L682.8291675756194,411.0716719350862L682.3492903506886,411.7249166066856L680.4003624884033,413.8264405897089L680.6381557008671,415.09589718818256L678.6135063492029,415.35200705313275L677.2967138914416,413.8755078477403L674.9201447689126,414.1666699998376L674.3723656630502,412.568103913776M666.706442845407,412.6514320765816L665.5032577349285,413.22924582582664L665.9303749497287,416.9504229007357L666.1229619257476,418.5041658821277L663.0517256691606,418.84572599246644L661.3147873516835,419.0509423929758L661.121263729033,417.4384298542765L659.5199198243295,417.61770513953354L659.1140855571057,414.00263789522194L657.5521505978768,412.2759067394029M659.5199198243295,417.61770513953354L659.0239116533337,419.29183521564596L652.6018534135269,419.97204336515995L651.6763402814245,418.44496256216894M674.9201447689126,414.1666699998376L674.9083105243296,416.6552162167055L672.4709115988661,417.25803434227646L671.5902951010389,419.56384534517395L669.5003843474861,419.7886519904421L669.3425532292772,418.1665630821668L667.862601028736,418.3254182371096L667.5510506482722,416.84625021318425L665.9303749497287,416.9504229007357M652.6018534135269,419.97204336515995L651.7970778939889,420.05858822876917L652.0657824734773,422.50309212740854L642.725768776259,423.39627961812687L640.854438585304,423.602339069561L639.8335710289912,420.599516821885M680.6381557008671,415.09589718818256L680.6007472059961,416.4467439562701L679.751480643648,419.07061189454635L679.9116184377066,420.51582517621205L680.1638447316773,420.82256212452796L678.8937955099976,422.10568755569534L675.7477535690946,422.38073671606764L675.9238020663613,424.00623626670813L670.7004437338035,424.608433633035L671.7120007160374,421.3569132496634L671.5902951010389,419.56384534517395M670.7004437338035,424.608433633035L670.0562974863881,424.6790569824685L664.438011212018,425.27836443072954L664.062472453766,422.0528619017904L663.2621768523354,422.14400019130346L663.0517256691606,418.84572599246644M664.438011212018,425.27836443072954L664.0236220253676,428.6719674222152L662.6848656381766,428.5174226628062L662.4885912550014,427.16274972099166L660.7705727107598,428.77850024757674L660.6059400181014,427.3800622794157L659.0466491039849,427.57169260120077L658.7978340204762,425.1478487770503L659.5998676580109,425.06010561122196L659.0239116533337,419.29183521564596M642.725768776259,423.39627961812687L642.7083076348806,425.87220909788255L641.900730715581,425.9584295306814L642.1621591440309,428.6404101420304L641.3495419865291,429.46171055210857L642.2296870475833,430.8779722236899L640.2111485170938,431.6655444037351L639.4322928631509,433.69816687565685L636.7209564381551,435.89722534683654L636.2528235386087,434.70343716702814L637.3511998822463,432.1363826640984L636.5397254660618,432.4834943389899L636.8933662419373,430.25826257849155L633.9756851086715,428.43155957409556L633.6823581331753,426.6253547322375M659.0466491039849,427.57169260120077L655.8552677128223,427.91466148673624L653.6778270308719,428.1014776028861L652.4204425128763,426.19877898636946L652.2218157235983,423.9508032753056L652.0657824734773,422.50309212740854M636.7209564381551,435.89722534683654L636.3530182672266,436.4961253574869L635.5844844705495,436.9074351372408L630.7186734425733,437.3169539296754L629.1383571857313,437.9992376181125L628.3808229516228,432.01537282230106L627.7587469717666,427.13508443768967M652.2218157235983,423.9508032753056L649.9950056488781,424.81559354919204L648.804959386995,426.35720262697293L648.5121303637374,428.72646560895134L644.8440352064712,433.9147531777538L641.8847673375678,434.4796127184377L639.4322928631509,433.69816687565685M680.1638447316773,420.82256212452796L681.9785404003663,425.2483880508398L681.7647610141007,429.2070782842011L676.5410961150634,429.6807406473255L675.9238020663613,424.00623626670813M655.8552677128223,427.91466148673624L656.6830071717832,430.7444209519855L656.1642044134268,431.237549187685L656.4849134778384,434.09602288108897L655.3473781130588,432.91065328260925L644.8440352064712,433.9147531777538M676.5410961150634,429.6807406473255L675.6006030789273,431.0851650976301L672.7972309397198,430.9270727685446L672.1445899558713,432.4249155618455L670.8639907040686,432.54126807294335L670.0562974863881,424.6790569824685M670.8639907040686,432.54126807294335L664.5134080412392,433.29137359139565L664.0236220253676,428.6719674222152M664.5134080412392,433.29137359139565L664.9926525524317,436.97410757083367L661.7954663618123,437.2989209001147L657.0353351001376,437.7682938496754L656.4849134778384,434.09602288108897M636.4832704446286,443.54924365724503L635.3080853119109,449.0218975971304L635.4419090641263,451.3244600441784L630.7967432997024,451.52652738965594L630.011946748778,445.0457574353467L629.4140321127262,440.1577652207119L629.1383571857313,437.9992376181125M645.0364998896281,452.33867511620576L645.0290675155645,452.25560912677975L645.0364998896281,452.33867511620576M641.8847673375678,434.4796127184377L642.5606298064332,439.0654178304827L642.2066144782837,441.57020905106515L644.0864712130762,443.71972847342454L646.1579835546531,444.8034897628811L646.067068809941,448.39747135327525L646.808969120853,449.0458287768241L644.3869400107296,452.536872448948L639.9911254031518,453.76393127392873L637.8820931647294,453.8038666893907L641.3606901745858,452.49365879302525L638.5991639249874,450.44307607241274L638.4637281876235,447.9759111201588L637.6158124160073,444.8027994342576L636.2743723059015,444.35411405903085L636.2216030645384,443.9326338920828L636.4832704446286,443.54924365724503L637.0448296167197,438.560485894939L636.3530182672266,436.4961253574869M681.7647610141007,429.2070782842011L681.8630244261703,431.90532041615506L683.1974135474039,433.4379594129949L683.774562991289,434.7851474232381L676.0758464260593,435.72686207969105L675.6962846214726,431.9465607109313L672.1445899558713,432.4249155618455M657.0353351001376,437.7682938496754L655.4801270422797,437.87383937686946L649.4776483430309,438.4071410016104L642.5606298064332,439.0654178304827M676.0758464260593,435.72686207969105L675.9224617570924,435.7469247444351L667.4098433279247,436.7358619489047L664.9926525524317,436.97410757083367M636.2743723059015,444.35411405903085L636.2216030645384,443.9326338920828" style="fill: inherit; stroke: inherit; stroke-width: inherit;" vector-effect="non-scaling-stroke"></path></svg>