<svg xmlns="http://www.w3.org/2000/svg" version="1.2" id="root" viewBox="626.8425749862996 361.4547777102771 56.93198800498942 92.34908897911362"><g id="counties"><path id="county-01077" class="county feature" d="M641.447 368.217l-2.583-.546-1.371-.442-3.72 2.209-2.31-1.111-1.012-1.48-1.9-.024-1.708-1.811 3.239-.466 5.704-.447 5.797-.448.201-.012.259 3.438z" vector-effect="non-scaling-stroke" fill="inherit" stroke="inherit" stroke-width="inherit"><title>Lauderdale County</title></path><path id="county-01083" class="county feature" d="M647.467 363.235l.78-.077.711 8.278-1.862-.373-3.162-1.705-2.487-1.141.596-1.14-.259-3.438z" vector-effect="non-scaling-stroke" fill="inherit" stroke="inherit" stroke-width="inherit"><title>Limestone County</title></path><path id="county-01089" class="county feature" d="M655.27 362.473l.13-.012-.064 6.792.553.567.014 1.705-2.384.767-.911-1.123-2.412-.578-1.238.845-.711-8.278z" vector-effect="non-scaling-stroke" fill="inherit" stroke="inherit" stroke-width="inherit"><title>Madison County</title></path><path id="county-01071" class="county feature" d="M666.634 363.745l-2.573 4.735-3.031 3.072-.81.161-1.303-.717-.316-1.443-2.712.267-.553-.567.064-6.792 6.737-.651 3.91-.355z" vector-effect="non-scaling-stroke" fill="inherit" stroke="inherit" stroke-width="inherit"><title>Jackson County</title></path><path id="county-01033" class="county feature" d="M638.864 367.67l.215.618-1.385 3.893-9.296.521.153-5.879 1.9.023 1.013 1.48 2.31 1.112 3.719-2.209z" vector-effect="non-scaling-stroke" fill="inherit" stroke="inherit" stroke-width="inherit"><title>Colbert County</title></path><path id="county-01049" class="county feature" d="M667.866 368.089l.176.647.335 1.184-1.53 3.148-2.824 3.466-4 .408-.51-4.243.707-.986.81-.161 3.031-3.072 2.573-4.735z" vector-effect="non-scaling-stroke" fill="inherit" stroke="inherit" stroke-width="inherit"><title>DeKalb County</title></path><path id="county-01079" class="county feature" d="M641.447 368.217l2.487 1.14.579 6.985.025.273-6.404.487-.44-4.921 1.385-3.893-.215-.617z" vector-effect="non-scaling-stroke" fill="inherit" stroke="inherit" stroke-width="inherit"><title>Lawrence County</title></path><path id="county-01103" class="county feature" d="M648.958 371.436l1.238-.845 2.412.578-.036 4.568-8.06.605-.578-6.984 3.162 1.705z" vector-effect="non-scaling-stroke" fill="inherit" stroke="inherit" stroke-width="inherit"><title>Morgan County</title></path><path id="county-01095" class="county feature" d="M660.22 371.713l-.707.986.51 4.243-2.82 2.217-2.577-2.769-2.054-.653.036-4.568.91 1.123 2.385-.767-.014-1.705 2.712-.267.316 1.443z" vector-effect="non-scaling-stroke" fill="inherit" stroke="inherit" stroke-width="inherit"><title>Marshall County</title></path><path id="county-01059" class="county feature" d="M637.694 372.181l.44 4.921-1.608.096-8.237.438.042-2.689.067-2.245z" vector-effect="non-scaling-stroke" fill="inherit" stroke="inherit" stroke-width="inherit"><title>Franklin County</title></path><path id="county-01019" class="county feature" d="M669.656 374.283l1.041 3.776.6 2.143-1.96.648-3.248-.157-2.066-4.16 2.825-3.465 1.529-3.148z" vector-effect="non-scaling-stroke" fill="inherit" stroke="inherit" stroke-width="inherit"><title>Cherokee County</title></path><path id="county-01093" class="county feature" d="M636.526 377.198l.482 5.716.15 1.629-4.848.331-.749-2.432-3.382.164.012-.534.098-4.436z" vector-effect="non-scaling-stroke" fill="inherit" stroke="inherit" stroke-width="inherit"><title>Marion County</title></path><path id="county-01043" class="county feature" d="M652.572 375.737l2.054.653-1.003.245-.976 2.575-1.527.91-.697 2.044-2.248 1.357-.612 1.142-2.025-.408-1.088-1.848.6-.04-.512-5.752-.025-.273z" vector-effect="non-scaling-stroke" fill="inherit" stroke="inherit" stroke-width="inherit"><title>Cullman County</title></path><path id="county-01133" class="county feature" d="M638.134 377.102l6.404-.487.512 5.752-.6.04-7.442.507-.482-5.716z" vector-effect="non-scaling-stroke" fill="inherit" stroke="inherit" stroke-width="inherit"><title>Winston County</title></path><path id="county-01009" class="county feature" d="M654.626 376.39l2.576 2.769-.03 3.01-1.062 2.11-2.53.863.118.684-2.973-1.132-2.937.761-.225-.792.612-1.142 2.248-1.357.697-2.044 1.527-.91.976-2.575z" vector-effect="non-scaling-stroke" fill="inherit" stroke="inherit" stroke-width="inherit"><title>Blount County</title></path><path id="county-01055" class="county feature" d="M664.023 376.534l2.066 4.159-2.406.74-2.333 2.155-2.34-2.533-1.838 1.114.03-3.01 2.82-2.217z" vector-effect="non-scaling-stroke" fill="inherit" stroke="inherit" stroke-width="inherit"><title>Etowah County</title></path><path id="county-01075" class="county feature" d="M632.31 384.874l.713 7.414-5.076.235.075-3.988.157-5.93 3.382-.163z" vector-effect="non-scaling-stroke" fill="inherit" stroke="inherit" stroke-width="inherit"><title>Lamar County</title></path><path id="county-01127" class="county feature" d="M644.45 382.407l1.088 1.848 2.025.408.225.792-1.315 3.128-1.795.972-1.178 2.015-.918-1.321-1.643-.129-.148-1.63-1.61.088-.343-3.284-1.68-.751-.15-1.63z" vector-effect="non-scaling-stroke" fill="inherit" stroke="inherit" stroke-width="inherit"><title>Walker County</title></path><path id="county-01115" class="county feature" d="M661.35 383.588l.447 1.29-1.366 1.892-.985 1.838.478.85-2.515 3.069-.206-2.086-2.214-.6-1.291-4.015-.118-.684 2.53-.863 1.062-2.11 1.838-1.114z" vector-effect="non-scaling-stroke" fill="inherit" stroke="inherit" stroke-width="inherit"><title>Saint Clair County</title></path><path id="county-01015" class="county feature" d="M666.048 388.498l-.042-.55-3.073.31-1.05-1.555-1.452.067 1.366-1.891-.447-1.291 2.333-2.155 2.406-.74 3.248.157-1.49 1.403.433 4.258z" vector-effect="non-scaling-stroke" fill="inherit" stroke="inherit" stroke-width="inherit"><title>Calhoun County</title></path><path id="county-01029" class="county feature" d="M671.298 380.202l.317 1.144 1.259 4.566.882 3.122-5.24.337-3.213.296.745-1.17 2.232-1.986-.432-4.258 1.49-1.403z" vector-effect="non-scaling-stroke" fill="inherit" stroke="inherit" stroke-width="inherit"><title>Cleburne County</title></path><path id="county-01057" class="county feature" d="M637.158 384.543l1.68.75.343 3.285 1.61-.088.148 1.63-3.21.141-.396 1.698-2.686.175-1.624.154-.713-7.414z" vector-effect="non-scaling-stroke" fill="inherit" stroke="inherit" stroke-width="inherit"><title>Fayette County</title></path><path id="county-01073" class="county feature" d="M653.698 385.826l1.291 4.015-2.282 1.728-2.155 2.752-2.878 1.89-.605.05-1.59-.979-2.927-3.229.948-.483 1.178-2.015 1.795-.972 1.315-3.128 2.937-.761z" vector-effect="non-scaling-stroke" fill="inherit" stroke="inherit" stroke-width="inherit"><title>Jefferson County</title></path><path id="county-01121" class="county feature" d="M660.431 386.77l1.452-.067 1.05 1.555 3.073-.31.042.55-.745 1.169-.811.086-.76 3.948-2.124.182-.497 3.68-4.892.526-.329-1.32.96-2.134 1.068-.396-.51-1.712 2.516-3.069-.478-.85z" vector-effect="non-scaling-stroke" fill="inherit" stroke="inherit" stroke-width="inherit"><title>Talladega County</title></path><path id="county-01125" class="county feature" d="M640.939 390.12l1.643.129.918 1.32-.948.484 2.927 3.23 1.59.978-3.147 2.442-.344 2.426-1.597.198-4.557.342-1.826-.04-.303-2.545-.648-6.95 2.686-.175.396-1.698z" vector-effect="non-scaling-stroke" fill="inherit" stroke="inherit" stroke-width="inherit"><title>Tuscaloosa County</title></path><path id="county-01117" class="county feature" d="M657.409 392.527l.51 1.712-1.068.396-.961 2.134.329 1.32-.257 1.578-1.525-.776-4.209.374.045.41-2.44-1.955-.159-1.508 2.878-1.89 2.155-2.753 2.282-1.728 2.214.6z" vector-effect="non-scaling-stroke" fill="inherit" stroke="inherit" stroke-width="inherit"><title>Shelby County</title></path><path id="county-01107" class="county feature" d="M633.023 392.288l1.624-.154.648 6.95-4.928 3.39-2.61.301.105-5.611.085-4.641z" vector-effect="non-scaling-stroke" fill="inherit" stroke="inherit" stroke-width="inherit"><title>Pickens County</title></path><path id="county-01111" class="county feature" d="M673.756 389.034l.276 1.005 1.518 5.478.1.394-5.564.637-.93.115-.64-7.292z" vector-effect="non-scaling-stroke" fill="inherit" stroke="inherit" stroke-width="inherit"><title>Randolph County</title></path><path id="county-01027" class="county feature" d="M668.515 389.37l.64 7.293-5.464.896-2.58.003.497-3.679 2.124-.182.76-3.948.811-.086z" vector-effect="non-scaling-stroke" fill="inherit" stroke="inherit" stroke-width="inherit"><title>Clay County</title></path><path id="county-01007" class="county feature" d="M650.273 399.675l.468 3.988-2.224.198-4.65.539-1.657-.662-.23-2.41 1.598-.199.344-2.426 3.147-2.442.605-.05.16 1.51z" vector-effect="non-scaling-stroke" fill="inherit" stroke="inherit" stroke-width="inherit"><title>Bibb County</title></path><path id="county-01063" class="county feature" d="M637.424 401.669l-1.569 2.81 1.022 3.885.892 1.128-1.068 1.332-.65-.085-1.187-1.742-2.028.87-.636-3.37-2.279-2.623.446-1.4 4.928-3.39.303 2.545z" vector-effect="non-scaling-stroke" fill="inherit" stroke="inherit" stroke-width="inherit"><title>Greene County</title></path><path id="county-01017" class="county feature" d="M675.65 395.911l1.261 4.35 1.022 2.228-7.07 1.135-.777-7.076z" vector-effect="non-scaling-stroke" fill="inherit" stroke="inherit" stroke-width="inherit"><title>Chambers County</title></path><path id="county-01123" class="county feature" d="M670.086 396.548l.778 7.076-1.547.756.223 1.894-1.567.452.197 1.617-1.39.172-.61-4.876-1.784.181-.695-6.26 5.465-.897z" vector-effect="non-scaling-stroke" fill="inherit" stroke="inherit" stroke-width="inherit"><title>Tallapoosa County</title></path><path id="county-01037" class="county feature" d="M663.691 397.56l.695 6.26-5.716.62-1.399-1.025-1.31-3.748.258-1.578 4.892-.527z" vector-effect="non-scaling-stroke" fill="inherit" stroke="inherit" stroke-width="inherit"><title>Coosa County</title></path><path id="county-01021" class="county feature" d="M655.962 399.667l1.309 3.748 1.399 1.026-.498.922-4.684.498.07.824-3.143.258-1.568.167-.117-1.232-.213-2.017 2.224-.198-.468-3.988-.045-.41 4.209-.374z" vector-effect="non-scaling-stroke" fill="inherit" stroke="inherit" stroke-width="inherit"><title>Chilton County</title></path><path id="county-01065" class="county feature" d="M641.98 401.327l.23 2.41-.723.894.272 3.272-.799.075.302 3.248-3.185.302-1.376-.704 1.068-1.332-.892-1.128-1.022-3.886 1.569-2.81z" vector-effect="non-scaling-stroke" fill="inherit" stroke="inherit" stroke-width="inherit"><title>Hale County</title></path><path id="county-01119" class="county feature" d="M636.05 410.739l-2.633 2.081-.135 1.082 1.917 1.084-7.68.67.107-5.085.108-6.622.023-1.174 2.61-.301-.446 1.4 2.279 2.623.636 3.37 2.028-.87z" vector-effect="non-scaling-stroke" fill="inherit" stroke="inherit" stroke-width="inherit"><title>Sumter County</title></path><path id="county-01105" class="county feature" d="M648.517 403.861l.213 2.017-.148 2.545-.883 2.07-4.854.573.319 3.269-.802.08-.802.078-.298-3.267-.302-3.248.8-.075-.273-3.272.723-.893 1.657.662z" vector-effect="non-scaling-stroke" fill="inherit" stroke="inherit" stroke-width="inherit"><title>Perry County</title></path><path id="county-01051" class="county feature" d="M666.78 408.515l.19.76-2.17.829-2.721-.107-.765-.948-2.552 1.868-.59-5.554.498-.922 5.716-.62 1.784-.182z" vector-effect="non-scaling-stroke" fill="inherit" stroke="inherit" stroke-width="inherit"><title>Elmore County</title></path><path id="county-01081" class="county feature" d="M677.933 402.49l1.139 2.486 1.455 1.676-.823.806-4.266.568.178 1.071-1.614.202-1.048-1.53-3.414-1.495-.223-1.894 1.547-.756z" vector-effect="non-scaling-stroke" fill="inherit" stroke="inherit" stroke-width="inherit"><title>Lee County</title></path><path id="county-01047" class="county feature" d="M650.415 406.943l.38 2.25 1.792 3.64-1.25 2.305.34 3.307-4.25.409-1.33-1.67-3.658-1.971-.077-.798.802-.08-.319-3.269 4.854-.574.883-2.069.148-2.545.117 1.232z" vector-effect="non-scaling-stroke" fill="inherit" stroke="inherit" stroke-width="inherit"><title>Dallas County</title></path><path id="county-01001" class="county feature" d="M658.172 405.363l.59 5.554-1.21 1.359-3.654-.787-1.311 1.345-1.793-3.64-.38-2.25 3.143-.259-.07-.824z" vector-effect="non-scaling-stroke" fill="inherit" stroke="inherit" stroke-width="inherit"><title>Autauga County</title></path><path id="county-01087" class="county feature" d="M674.002 409.3l.37 3.268-6.578.765-1.088-.682-1.906-2.547 2.17-.829-.19-.76 1.39-.172-.197-1.617 1.567-.452 3.414 1.495z" vector-effect="non-scaling-stroke" fill="inherit" stroke="inherit" stroke-width="inherit"><title>Macon County</title></path><path id="county-01091" class="county feature" d="M636.7 410.824l1.377.704 3.185-.302.298 3.267.802-.078.077.798-.78.26.226 2.28-1.597.15.227 2.37-.681.327-6.369.568-.807-1.105 1.124-.669.065-3.81 1.352-.598-1.917-1.084.135-1.082 2.633-2.081z" vector-effect="non-scaling-stroke" fill="inherit" stroke="inherit" stroke-width="inherit"><title>Marengo County</title></path><path id="county-01113" class="county feature" d="M680.527 406.652l.741 2.423-.43.986 1.991 1.01-.48.654-1.949 2.101.238 1.27-2.024.256-1.317-1.476-2.377.29-.548-1.598-.37-3.269 1.614-.202-.178-1.071 4.266-.568z" vector-effect="non-scaling-stroke" fill="inherit" stroke="inherit" stroke-width="inherit"><title>Russell County</title></path><path id="county-01101" class="county feature" d="M664.8 410.104l1.906 2.547-1.203.578.427 3.721.193 1.554-3.071.342-1.737.205-.194-1.613-1.601.18-.406-3.615-1.562-1.727 1.21-1.359 2.552-1.868.765.948z" vector-effect="non-scaling-stroke" fill="inherit" stroke="inherit" stroke-width="inherit"><title>Montgomery County</title></path><path id="county-01085" class="county feature" d="M657.552 412.276l1.562 1.727.406 3.615-.496 1.674-6.422.68-.926-1.527-.34-3.307 1.25-2.304 1.312-1.345z" vector-effect="non-scaling-stroke" fill="inherit" stroke="inherit" stroke-width="inherit"><title>Lowndes County</title></path><path id="county-01023" class="county feature" d="M633.465 421.168l-1.38 3.5 1.597 1.957-5.923.51-.438-3.653.168-6.298.03-1.528 7.68-.67-1.352.597-.065 3.811-1.124.669z" vector-effect="non-scaling-stroke" fill="inherit" stroke="inherit" stroke-width="inherit"><title>Choctaw County</title></path><path id="county-01011" class="county feature" d="M674.372 412.568l.548 1.599-.012 2.488-2.437.603-.88 2.306-2.09.225-.158-1.622-1.48.158-.312-1.479-1.62.104-.428-3.72 1.203-.579 1.088.682z" vector-effect="non-scaling-stroke" fill="inherit" stroke="inherit" stroke-width="inherit"><title>Bullock County</title></path><path id="county-01131" class="county feature" d="M642.44 415.213l3.658 1.97 1.33 1.67 4.248-.408.926 1.527-.805.087.269 2.444-9.34.893-1.872.206-1.02-3.002.68-.327-.226-2.37 1.597-.15-.226-2.28z" vector-effect="non-scaling-stroke" fill="inherit" stroke="inherit" stroke-width="inherit"><title>Wilcox County</title></path><path id="county-01005" class="county feature" d="M680.638 415.096l-.037 1.35-.85 2.625.16 1.445.253.307-1.27 1.283-3.146.275.176 1.625-5.224.602 1.012-3.251-.122-1.793.88-2.306 2.438-.603.012-2.488 2.377-.291 1.317 1.476z" vector-effect="non-scaling-stroke" fill="inherit" stroke="inherit" stroke-width="inherit"><title>Barbour County</title></path><path id="county-01109" class="county feature" d="M671.59 419.564l.122 1.793-1.012 3.251-.644.071-5.618.6-.376-3.226-.8.091-.21-3.298 3.071-.342-.193-1.554 1.621-.104.312 1.48 1.48-.16.157 1.623z" vector-effect="non-scaling-stroke" fill="inherit" stroke="inherit" stroke-width="inherit"><title>Pike County</title></path><path id="county-01041" class="county feature" d="M663.052 418.846l.21 3.298.8-.091.376 3.225-.414 3.394-1.34-.155-.195-1.354-1.718 1.616-.165-1.399-1.56.192-.248-2.424.802-.088-.576-5.768.496-1.674 1.601-.18.194 1.613z" vector-effect="non-scaling-stroke" fill="inherit" stroke="inherit" stroke-width="inherit"><title>Crenshaw County</title></path><path id="county-01025" class="county feature" d="M639.834 420.6l1.02 3.002 1.872-.206-.018 2.476-.807.086.261 2.682-.812.822.88 1.416-2.019.788-.779 2.032-2.711 2.2-.468-1.195 1.098-2.567-.811.347.353-2.225-2.917-1.826-.294-1.807-1.597-1.957 1.38-3.5z" vector-effect="non-scaling-stroke" fill="inherit" stroke="inherit" stroke-width="inherit"><title>Clarke County</title></path><path id="county-01013" class="county feature" d="M659.024 419.292l.576 5.768-.802.088.249 2.424-3.192.343-2.177.186-1.258-1.902-.198-2.248-.156-1.448-.269-2.444.805-.087z" vector-effect="non-scaling-stroke" fill="inherit" stroke="inherit" stroke-width="inherit"><title>Butler County</title></path><path id="county-01099" class="county feature" d="M652.066 422.503l.156 1.448-2.227.865-1.19 1.541-.293 2.37-3.668 5.188-2.96.565-2.452-.782.78-2.032 2.018-.788-.88-1.416.812-.822-.261-2.682.807-.086.018-2.476z" vector-effect="non-scaling-stroke" fill="inherit" stroke="inherit" stroke-width="inherit"><title>Monroe County</title></path><path id="county-01067" class="county feature" d="M680.164 420.823l1.815 4.425-.214 3.96-5.224.473-.617-5.675-.176-1.625 3.146-.275z" vector-effect="non-scaling-stroke" fill="inherit" stroke="inherit" stroke-width="inherit"><title>Henry County</title></path><path id="county-01035" class="county feature" d="M655.855 427.915l.828 2.83-.519.493.32 2.858-1.137-1.185-10.503 1.004 3.668-5.189.293-2.369 1.19-1.541 2.227-.865.198 2.248 1.258 1.902z" vector-effect="non-scaling-stroke" fill="inherit" stroke="inherit" stroke-width="inherit"><title>Conecuh County</title></path><path id="county-01129" class="county feature" d="M633.682 426.625l.294 1.807 2.917 1.826-.353 2.225.811-.347-1.098 2.567.468 1.194-.368.6-.769.41-4.865.41-1.58.682-.758-5.984-.622-4.88z" vector-effect="non-scaling-stroke" fill="inherit" stroke="inherit" stroke-width="inherit"><title>Washington County</title></path><path id="county-01045" class="county feature" d="M675.924 424.006l.617 5.675-.94 1.404-2.804-.158-.652 1.498-1.281.116-.808-7.862.644-.07z" vector-effect="non-scaling-stroke" fill="inherit" stroke="inherit" stroke-width="inherit"><title>Dale County</title></path><path id="county-01031" class="county feature" d="M670.864 432.541l-6.35.75-.49-4.619.414-3.394 5.618-.599z" vector-effect="non-scaling-stroke" fill="inherit" stroke="inherit" stroke-width="inherit"><title>Coffee County</title></path><path id="county-01039" class="county feature" d="M664.024 428.672l.49 4.62.479 3.682-3.198.325-4.76.47-.55-3.673-.32-2.858.518-.494-.828-2.83 3.192-.342 1.559-.192.165 1.399 1.718-1.616.196 1.354z" vector-effect="non-scaling-stroke" fill="inherit" stroke="inherit" stroke-width="inherit"><title>Covington County</title></path><path id="county-01003" class="county feature" d="M645.036 452.339l-.007-.083.007.083zm-5.604-18.64l2.453.78.676 4.586-.354 2.505 1.88 2.15 2.071 1.083-.09 3.594.741.649-2.422 3.49-4.396 1.228-2.109.04 3.479-1.31-2.762-2.05-.135-2.468-.848-3.173-1.342-.449-.052-.421.261-.384.562-4.989-.692-2.064.368-.599z" vector-effect="non-scaling-stroke" fill="inherit" stroke="inherit" stroke-width="inherit"><title>Baldwin County</title></path><path id="county-01069" class="county feature" d="M681.765 429.207l.098 2.698 1.334 1.533.578 1.347-7.7.942-.379-3.78-3.551.478.652-1.498 2.804.158.94-1.404z" vector-effect="non-scaling-stroke" fill="inherit" stroke="inherit" stroke-width="inherit"><title>Houston County</title></path><path id="county-01053" class="county feature" d="M656.485 434.096l.55 3.672-1.555.106-6.002.533-6.917.658-.676-4.585 2.959-.565 10.503-1.004z" vector-effect="non-scaling-stroke" fill="inherit" stroke="inherit" stroke-width="inherit"><title>Escambia County</title></path><path id="county-01061" class="county feature" d="M676.076 435.727l-.154.02-8.512.989-2.417.238-.48-3.683 6.351-.75 1.28-.116 3.552-.478z" vector-effect="non-scaling-stroke" fill="inherit" stroke="inherit" stroke-width="inherit"><title>Geneva County</title></path><path id="county-01097" class="county feature" d="M636.222 443.933l.052.421-.052-.421zm.261-.384l-1.175 5.473.134 2.302-4.645.203-.785-6.481-.598-4.888-.276-2.159 1.58-.682 4.866-.41.769-.41.692 2.063z" vector-effect="non-scaling-stroke" fill="inherit" stroke="inherit" stroke-width="inherit"><title>Mobile County</title></path></g><path id="counties-mesh" class="counties mesh" d="M648.247 363.158l.711 8.278-1.862-.373-3.162-1.705-2.487-1.141m-3.313 8.885l-1.608.096-8.237.438.042-2.689.067-2.245.153-5.879m26.849-4.362l-.064 6.792.553.567.014 1.705-2.384.767-.911-1.123-2.412-.578-1.238.845m-7.174-7.797l.259 3.438-.596 1.14-2.583-.546-1.371-.442-3.72 2.209-2.31-1.111-1.012-1.48-1.9-.024-1.708-1.811 3.239-.466 5.704-.447 5.797-.448.201-.012 5.683-.404.78-.077 7.023-.685.13-.012 6.737-.651 3.91-.355.587 2.29-2.573 4.735-3.031 3.072-.81.161-1.303-.717-.316-1.443-2.712.267m-17.025-2.15l.215.618-1.385 3.893-9.296.521m38.236-8.957l1.232 4.344.176.647.335 1.184-1.53 3.148-2.824 3.466-4 .408-.51-4.243.707-.986m-16.286-2.355l.579 6.984.025.273-6.404.487-.44-4.921m14.914-1.012l-.036 4.568-8.06.605m15.51.6l-2.82 2.217-2.576-2.769-2.054-.653m15.805-5.817l1.279 4.363 1.041 3.776.6 2.143-1.96.648-3.248-.157-2.066-4.16m-27.497.665l.482 5.716.15 1.629-4.848.331-.749-2.432-3.382.164.012-.534.098-4.436m26.337-1.246l-1.003.245-.976 2.575-1.527.91-.697 2.044-2.248 1.357-.612 1.142-2.025-.408-1.088-1.848.6-.04-.512-5.752m-.088 5.792l-7.442.507m20.194-3.755l-.03 3.01-1.062 2.11-2.53.863.118.684-2.973-1.132-2.937.761-.225-.792m18.526-3.97l-2.406.74-2.333 2.155-2.34-2.533-1.838 1.114m-24.862 2.705l.713 7.414-5.076.235.075-3.988.157-5.93m19.61 2.85l-1.316 3.128-1.795.972-1.178 2.015-.918-1.321-1.643-.129-.148-1.63-1.61.088-.343-3.284-1.68-.751m24.192-.955l.447 1.29-1.366 1.892-.985 1.838.478.85-2.515 3.069-.206-2.086-2.214-.6-1.291-4.015m15.64-4.976l-1.49 1.403.432 4.258-2.232 1.987-.042-.55-3.073.31-1.05-1.555-1.452.067m10.867-6.568l.317 1.144 1.259 4.566.882 3.122-5.24.337-3.213.296.745-1.17m-25.11 1.623l-3.209.141-.396 1.698-2.686.175-1.624.154m21.966-2.447l-2.282 1.728-2.155 2.752-2.878 1.89-.605.05-1.59-.979-2.927-3.229.948-.483m-8.205 7.514l-4.928 3.39-2.61.301.105-5.611.085-4.641m37.356-2.856l-.811.086-.76 3.948-2.124.182-.497 3.68-4.892.526-.329-1.32.96-2.134 1.068-.396-.51-1.712m-10.339 3.734l-3.147 2.442-.344 2.426-1.597.198-4.557.342-1.826-.04-.303-2.545-.648-6.95m21.572 5.955l-.257 1.578-1.525-.776-4.209.374.045.41-2.44-1.955-.159-1.508m26.082-7.178l.276 1.005 1.518 5.478.1.394-5.564.637-.93.115-.64-7.292m.64 7.292l-5.465.896-2.58.003m-25.06 13.177l-2.634 2.081-.135 1.082 1.917 1.084-7.68.67.107-5.085.108-6.622.023-1.174m22.516-3.1l.468 3.988-2.224.198-4.65.539-1.657-.662-.23-2.41m-4.556.34l-1.569 2.81 1.022 3.886.892 1.128-1.068 1.332-.65-.085-1.187-1.742-2.028.87-.636-3.37-2.279-2.623.446-1.4m45.284-6.563l1.26 4.35 1.022 2.228-7.07 1.135-.777-7.076m.778 7.076l-1.547.756.223 1.894-1.567.452.197 1.617-1.39.172-.61-4.876-1.784.181-.695-6.26m.695 6.26l-5.716.62-1.399-1.025-1.31-3.748m2.709 4.774l-.498.922-4.684.498.07.824-3.143.258-1.568.167-.117-1.232-.213-2.017m-6.307-.123l-.723.893.272 3.272-.799.075.302 3.248-3.185.302-1.376-.704m12.03-4.946l-.149 2.545-.883 2.07-4.854.573.319 3.269-.802.08-.802.078-.298-3.267m25.519-2.71l.188.76-2.17.828-2.72-.107-.765-.948-2.552 1.868-.59-5.554m19.761-2.874l1.139 2.487 1.455 1.676-.823.806-4.266.568.178 1.071-1.614.202-1.048-1.53-3.414-1.495m-19.125.67l.38 2.25 1.792 3.64-1.25 2.304.34 3.307-4.25.409-1.33-1.67-3.658-1.971-.077-.798m16.4-3.498l-1.21 1.359-3.654-.787-1.311 1.345m21.415-3.535l.37 3.27-6.578.764-1.088-.682-1.906-2.547m-31.335 11.064l-1.38 3.5 1.597 1.957-5.923.51-.438-3.653.168-6.298.03-1.528m14.92-.443l-.78.26.226 2.28-1.597.15.227 2.37-.681.327-6.369.568-.807-1.105 1.124-.669.065-3.81 1.352-.598m45.328-8.334l.741 2.423-.43.986 1.991 1.01-.48.654-1.949 2.101.238 1.27-2.024.256-1.317-1.476-2.377.29-.548-1.598m-7.666.083l-1.203.578.427 3.721.193 1.554-3.071.342-1.737.205-.194-1.613-1.601.18-.406-3.615-1.562-1.727m1.968 5.342l-.496 1.674-6.422.68-.926-1.527m23.244-4.278l-.012 2.488-2.437.603-.88 2.306-2.09.225-.158-1.622-1.48.158-.312-1.479-1.62.104m-13.33 3.022l-.804.087.269 2.444-9.34.893-1.872.206-1.02-3.002m40.804-5.504l-.037 1.35-.85 2.625.16 1.445.253.307-1.27 1.283-3.146.275.176 1.625-5.224.602 1.012-3.251-.122-1.793m-.89 5.044l-.644.071-5.618.6-.376-3.226-.8.091-.21-3.298m1.386 6.432l-.414 3.394-1.34-.155-.195-1.354-1.718 1.616-.165-1.399-1.56.192-.248-2.424.802-.088-.576-5.768m-16.298 4.104l-.018 2.476-.807.086.261 2.682-.812.822.88 1.416-2.019.788-.779 2.032-2.711 2.2-.468-1.195 1.098-2.567-.811.347.353-2.225-2.917-1.826-.294-1.807m25.365.947l-3.192.343-2.177.186-1.258-1.902-.198-2.248-.156-1.448m-15.345 13.394l-.368.6-.769.41-4.865.41-1.58.682-.758-5.984-.622-4.88m24.463-3.184l-2.227.865-1.19 1.541-.293 2.37-3.668 5.188-2.96.565-2.452-.782m40.732-12.875l1.815 4.425-.214 3.96-5.224.473-.617-5.675m-20.069 3.909l.828 2.83-.519.493.32 2.858-1.137-1.185-10.503 1.004m31.697-4.234l-.94 1.404-2.804-.158-.652 1.498-1.281.116-.808-7.862m.808 7.862l-6.35.75-.49-4.619m.49 4.62l.479 3.682-3.198.325-4.76.47-.55-3.673m-20.002 9.453l-1.175 5.473.134 2.302-4.645.203-.785-6.481-.598-4.888-.276-2.159m15.898 14.34l-.007-.083.007.083m-3.151-17.86l.676 4.586-.354 2.505 1.88 2.15 2.071 1.083-.09 3.594.741.649-2.422 3.49-4.396 1.228-2.109.04 3.479-1.31-2.762-2.05-.135-2.468-.848-3.173-1.342-.449-.052-.421.261-.384.562-4.989-.692-2.064m45.412-7.289l.098 2.698 1.334 1.533.578 1.347-7.7.942-.379-3.78-3.551.478m-15.11 5.343l-1.555.106-6.002.533-6.917.658m33.515-3.338l-.154.02-8.512.989-2.417.238m-28.719 7.38l-.052-.421" vector-effect="non-scaling-stroke" fill="inherit" stroke="inherit" stroke-width="inherit"/></svg>