<?xml version="1.0" standalone="yes"?>
<svg xmlns="http://www.w3.org/2000/svg" version="1.2" baseProfile="tiny" id="root" viewBox="518.0701564083914 327.7399391889307 96.91486721088145 90.13712710967323"><style>
@import url("../../css/svg.css");</style><rect id="bbox" class="bbox" x="518.0701564083914" y="327.7399391889307" width="96.91486721088145" height="90.13712710967323"></rect><g id="counties"><path id="county-05007" class="county feature" d="M537.2523709308686,341.24788264153176L540.3794379097479,341.1811486001751L540.0809844949833,343.60964793813923L541.225772959079,344.78604685236473L540.1804092303723,346.15775259747636L538.9232359786936,346.7462163488967L533.5360117067137,346.67672690326503L532.7102693075444,348.8610855506747L530.3058239997844,348.84608582013254L530.1225004019883,347.72385557202574L529.2097963176882,341.3755670122745Z" vector-effect="non-scaling-stroke"><title>Benton County</title></path><path id="county-05049" class="county feature" d="M576.3000037470439,339.9379502076798L576.3715054818958,342.9951791770345L574.7134250905312,343.03706486638464L574.7903003728828,344.6837497562011L572.9151115894049,344.7072057452772L565.9700772259889,344.85621013422804L565.8904951788244,340.3799873922676L566.3382692579037,340.35670259747417L572.9927435479163,340.0580560325311Z" vector-effect="non-scaling-stroke"><title>Fulton County</title></path><path id="county-05015" class="county feature" d="M544.5734394015631,341.0777357521358L548.5808555967568,340.9843720051705L548.8582390869959,340.9744808572756L549.0067563476996,348.08046484561635L546.3236438230942,348.08124264863L545.2559512507647,348.0858664678476L543.5812259272436,344.7947651683396L541.225772959079,344.78604685236473L540.0809844949833,343.60964793813923L540.3794379097479,341.1811486001751Z" vector-effect="non-scaling-stroke"><title>Carroll County</title></path><path id="county-05135" class="county feature" d="M576.3000037470439,339.9379502076798L576.9296483683207,339.9187948716401L578.4670925861074,341.291445712817L579.35620512886,344.3131698056577L578.0333893862761,344.88851247874584L578.2342728139407,351.30127679078635L576.6071466887792,350.5062316799376L572.9018840398917,350.58617850558176L573.2706214835562,349.4617754860891L572.9151115894049,344.7072057452772L574.7903003728828,344.6837497562011L574.7134250905312,343.03706486638464L576.3715054818958,342.9951791770345Z" vector-effect="non-scaling-stroke"><title>Sharp County</title></path><path id="county-05121" class="county feature" d="M586.0899600326228,343.79160814482213L586.162544647355,346.0023209964985L581.2030811620732,345.9331947455887L579.35620512886,344.3131698056577L578.4670925861074,341.291445712817L576.9296483683207,339.9187948716401L581.1032043461752,339.6986182287593L586.176589933253,339.4138850607304L586.8915139724126,343.4504027147451Z" vector-effect="non-scaling-stroke"><title>Randolph County</title></path><path id="county-05009" class="county feature" d="M555.4365415255501,340.7790750768952L554.9821069142567,340.92678094649295L555.1290588670074,348.0280234266005L554.3187354472477,348.0340517164042L549.0067563476996,348.08046484561635L548.8582390869959,340.9744808572756Z" vector-effect="non-scaling-stroke"><title>Boone County</title></path><path id="county-05089" class="county feature" d="M560.258261245859,340.59698638960253L560.149738622354,344.9591132878073L561.3061043258577,345.2236338533113L562.2416598462336,346.86652255238755L562.3232346751544,348.74192789532697L555.9448188260191,348.8297538561353L555.1290588670074,348.0280234266005L554.9821069142567,340.92678094649295L555.4365415255501,340.7790750768952L556.6476261743328,340.74250543134247Z" vector-effect="non-scaling-stroke"><title>Marion County</title></path><path id="county-05005" class="county feature" d="M565.8904951788244,340.3799873922676L565.9700772259889,344.85621013422804L565.4943341647736,347.29422559130217L565.5177347607301,348.6835194177156L563.9178200256194,348.7142318252189L563.9386047228393,350.3548039632657L562.3421421742584,350.3815122190264L562.3232346751544,348.74192789532697L562.2416598462336,346.86652255238755L561.3061043258577,345.2236338533113L560.149738622354,344.9591132878073L560.258261245859,340.59698638960253Z" vector-effect="non-scaling-stroke"><title>Baxter County</title></path><path id="county-05021" class="county feature" d="M589.2727765762269,339.23939801602035L594.5485432683251,338.94129382094127L595.5233682070059,338.8795790982274L596.762107413873,340.6483565246293L597.1058697554026,342.4632760409662L595.3429119803124,344.4938012366731L593.3967600004866,344.62576910003406L593.3466460723898,343.519060060779L586.0899600326228,343.79160814482213L586.8915139724126,343.4504027147451L586.176589933253,339.4138850607304Z" vector-effect="non-scaling-stroke"><title>Clay County</title></path><path id="county-05087" class="county feature" d="M546.3236438230942,348.08124264863L546.8322824777207,351.03925533799156L545.7836445386475,352.6863443447961L545.911654788583,354.9088332246906L543.252974121072,354.8795759338889L540.0292102108705,355.12116286859816L539.247372942558,355.11687306668637L539.3983921642421,348.890101903517L540.1804092303723,346.15775259747636L541.225772959079,344.78604685236473L543.5812259272436,344.7947651683396L545.2559512507647,348.0858664678476Z" vector-effect="non-scaling-stroke"><title>Madison County</title></path><path id="county-05055" class="county feature" d="M595.3429119803124,344.4938012366731L592.7799338843867,348.53192142580895L592.6319012673657,349.1238332614788L585.7160344056059,349.45480935854357L586.162544647355,346.0023209964985L586.0899600326228,343.79160814482213L593.3466460723898,343.519060060779L593.3967600004866,344.62576910003406Z" vector-effect="non-scaling-stroke"><title>Greene County</title></path><path id="county-05065" class="county feature" d="M572.9151115894049,344.7072057452772L573.2706214835562,349.4617754860891L572.9018840398917,350.58617850558176L570.8787674862958,352.0785616879617L569.2397070450597,350.90898058832374L566.8830248182362,350.92732580652614L567.6459069252438,349.0790817246095L565.4943341647736,347.29422559130217L565.9700772259889,344.85621013422804Z" vector-effect="non-scaling-stroke"><title>Izard County</title></path><path id="county-05075" class="county feature" d="M586.162544647355,346.0023209964985L585.7160344056059,349.45480935854357L585.4609624562551,351.11207202673654L583.1030669972749,351.1583039892088L580.610162673745,351.1932731626657L578.2342728139407,351.30127679078635L578.0333893862761,344.88851247874584L579.35620512886,344.3131698056577L581.2030811620732,345.9331947455887Z" vector-effect="non-scaling-stroke"><title>Lawrence County</title></path><path id="county-05143" class="county feature" d="M539.247372942558,355.11687306668637L531.2882076505489,355.29767173968787L530.3058239997844,348.84608582013254L532.7102693075444,348.8610855506747L533.5360117067137,346.67672690326503L538.9232359786936,346.7462163488967L540.1804092303723,346.15775259747636L539.3983921642421,348.890101903517Z" vector-effect="non-scaling-stroke"><title>Washington County</title></path><path id="county-05137" class="county feature" d="M570.8787674862958,352.0785616879617L571.2010533158071,355.1295756325551L565.1380491898369,355.24564119062086L562.4568113358991,355.2783229423436L562.4375247380679,353.9084731411L562.3421421742584,350.3815122190264L563.9386047228393,350.3548039632657L563.9178200256194,348.7142318252189L565.5177347607301,348.6835194177156L565.4943341647736,347.29422559130217L567.6459069252438,349.0790817246095L566.8830248182362,350.92732580652614L569.2397070450597,350.90898058832374Z" vector-effect="non-scaling-stroke"><title>Stone County</title></path><path id="county-05101" class="county feature" d="M549.0067563476996,348.08046484561635L554.3187354472477,348.0340517164042L554.4582688644753,355.3933251293696L551.2542692682058,355.4145592758347L545.9205847226423,355.45743721047916L545.911654788583,354.9088332246906L545.7836445386475,352.6863443447961L546.8322824777207,351.03925533799156L546.3236438230942,348.08124264863Z" vector-effect="non-scaling-stroke"><title>Newton County</title></path><path id="county-05129" class="county feature" d="M562.3232346751544,348.74192789532697L562.3421421742584,350.3815122190264L562.4375247380679,353.9084731411L559.2323409958076,353.98524369375264L559.269929896784,355.34931280694764L556.5832391366056,355.3660924945343L554.4582688644753,355.3933251293696L554.3187354472477,348.0340517164042L555.1290588670074,348.0280234266005L555.9448188260191,348.8297538561353Z" vector-effect="non-scaling-stroke"><title>Searcy County</title></path><path id="county-05093" class="county feature" d="M603.8453837099762,349.5572214285787L602.3618230714427,349.62535515250977L603.0770779436045,350.9791516259678L601.3639923047374,352.5170864309616L599.4248403074489,353.02436903804994L601.003487739857,354.8755502998397L599.5438430645304,355.82731172528906L600.3311821315423,356.708033517673L598.3562891560864,356.6559219713316L598.5126366323555,359.4915936851352L598.3266490445756,359.6411618215642L598.0478812773722,358.3069091132011L596.9329779141107,358.8659133633266L594.7676249399227,358.92993826145425L594.4717534454016,354.0137193922026L594.1039349967533,348.4386901317416L599.0292529868522,348.0820721747748L602.7951576008618,347.7856335164756Z" vector-effect="non-scaling-stroke"><title>Mississippi County</title></path><path id="county-05031" class="county feature" d="M594.1039349967533,348.4386901317416L594.4717534454016,354.0137193922026L583.2014387630481,354.48412193383786L583.1030669972749,351.1583039892088L585.4609624562551,351.11207202673654L585.7160344056059,349.45480935854357L592.6319012673657,349.1238332614788L592.7799338843867,348.53192142580895Z" vector-effect="non-scaling-stroke"><title>Craighead County</title></path><path id="county-05063" class="county feature" d="M578.2342728139407,351.30127679078635L580.610162673745,351.1932731626657L580.183428572392,352.6733710349216L578.449782824913,354.71539296528806L578.3803794110728,358.165317158118L575.1851018422398,358.2415347713297L571.9901000087093,358.3166796458697L571.9066793600244,354.9697936557219L571.2010533158071,355.1295756325551L570.8787674862958,352.0785616879617L572.9018840398917,350.58617850558176L576.6071466887792,350.5062316799376Z" vector-effect="non-scaling-stroke"><title>Independence County</title></path><path id="county-05067" class="county feature" d="M580.610162673745,351.1932731626657L583.1030669972749,351.1583039892088L583.2014387630481,354.48412193383786L583.4356282142924,359.4838090582358L583.5119226533096,361.1519437530204L580.315772762915,361.2524979495661L580.2166210443994,359.5946419268697L578.8010772658458,359.7913615901433L575.2188350713711,359.8985486971536L575.1851018422398,358.2415347713297L578.3803794110728,358.165317158118L578.449782824913,354.71539296528806L580.183428572392,352.6733710349216Z" vector-effect="non-scaling-stroke"><title>Jackson County</title></path><path id="county-05141" class="county feature" d="M562.4375247380679,353.9084731411L562.4568113358991,355.2783229423436L565.1380491898369,355.24564119062086L565.2136084197854,361.8134390799223L561.7614203039664,361.8573509498352L561.7114793310291,360.21655241051485L556.1307651548452,360.2726632376074L556.6388690415323,358.633428637202L556.5832391366056,355.3660924945343L559.269929896784,355.34931280694764L559.2323409958076,353.98524369375264Z" vector-effect="non-scaling-stroke"><title>Van Buren County</title></path><path id="county-05047" class="county feature" d="M543.2214638236592,362.2964963429473L541.7299225825589,361.29912051788335L541.7373595029642,363.50165937426493L540.1195816146011,363.425673578502L540.107730697428,365.1142398515467L538.4750007987335,365.4435673252765L537.6604194357654,365.4399921268314L537.6864593566087,361.0961972735414L538.420622079016,358.65358045045616L537.6252921555722,357.01059745291286L538.9694699036844,357.01106462255177L540.0292102108705,355.12116286859816L543.252974121072,354.8795759338889Z" vector-effect="non-scaling-stroke"><title>Franklin County</title></path><path id="county-05071" class="county feature" d="M543.252974121072,354.8795759338889L545.911654788583,354.9088332246906L545.9205847226423,355.45743721047916L551.2542692682058,355.4145592758347L551.2739512393562,357.8848705533684L550.4741759318056,357.88519458492544L550.5081266464088,360.34167668486884L549.4203107338329,360.3487491836503L549.4478953539141,363.0329433387094L547.8426998098082,362.8336965455612L547.2958736660844,361.2540255425007L543.2214638236592,362.2964963429473Z" vector-effect="non-scaling-stroke"><title>Johnson County</title></path><path id="county-05033" class="county feature" d="M537.6864593566087,361.0961972735414L536.8205274238854,362.2107386107283L533.9868150052048,362.8030670340589L533.0044621543104,361.1236660410167L532.3277740425124,362.10366064112316L531.6319390959065,357.5659582918006L531.2882076505489,355.29767173968787L539.247372942558,355.11687306668637L540.0292102108705,355.12116286859816L538.9694699036844,357.01106462255177L537.6252921555722,357.01059745291286L538.420622079016,358.65358045045616Z" vector-effect="non-scaling-stroke"><title>Crawford County</title></path><path id="county-05115" class="county feature" d="M554.4582688644753,355.3933251293696L556.5832391366056,355.3660924945343L556.6388690415323,358.633428637202L556.1307651548452,360.2726632376074L556.2467227938423,365.7384522155178L555.6291451098792,365.79925802353887L552.6667400939053,366.49126271431726L551.5998271975993,364.62845438042746L549.7621483435412,363.21227934861804L549.4478953539141,363.0329433387094L549.4203107338329,360.3487491836503L550.5081266464088,360.34167668486884L550.4741759318056,357.88519458492544L551.2739512393562,357.8848705533684L551.2542692682058,355.4145592758347Z" vector-effect="non-scaling-stroke"><title>Pope County</title></path><path id="county-05023" class="county feature" d="M571.2010533158071,355.1295756325551L571.9066793600244,354.9697936557219L571.9901000087093,358.3166796458697L571.2650744884658,361.664241652638L567.3474791008108,361.7469175137361L565.2136084197854,361.8134390799223L565.1380491898369,355.24564119062086Z" vector-effect="non-scaling-stroke"><title>Cleburne County</title></path><path id="county-05111" class="county feature" d="M594.4717534454016,354.0137193922026L594.7676249399227,358.92993826145425L591.5220401520888,359.0617610127873L583.4356282142924,359.4838090582358L583.2014387630481,354.48412193383786Z" vector-effect="non-scaling-stroke"><title>Poinsett County</title></path><path id="county-05145" class="county feature" d="M575.1851018422398,358.2415347713297L575.2188350713711,359.8985486971536L578.8010772658458,359.7913615901433L577.7107645122913,361.006514610366L578.3997328695012,363.4655104716777L577.3364455726845,366.4565108781037L575.5368362693362,366.5048474629815L575.5786552323366,367.75579850589077L573.5465047841143,367.15001139893377L572.2740031200659,367.80332755147833L569.0571030307678,367.0760627884307L567.4507795995635,367.32890902365193L567.3474791008108,361.7469175137361L571.2650744884658,361.664241652638L571.9901000087093,358.3166796458697Z" vector-effect="non-scaling-stroke"><title>White County</title></path><path id="county-05029" class="county feature" d="M561.7614203039664,361.8573509498352L560.831101007101,366.70122415445485L558.424483423745,367.57514041415186L553.4906513034175,367.63298808279046L555.6291451098792,365.79925802353887L556.2467227938423,365.7384522155178L556.1307651548452,360.2726632376074L561.7114793310291,360.21655241051485Z" vector-effect="non-scaling-stroke"><title>Conway County</title></path><path id="county-05131" class="county feature" d="M537.6864593566087,361.0961972735414L537.6604194357654,365.4399921268314L538.4750007987335,365.4435673252765L538.4654888594098,366.8191707773469L536.8235900724397,367.6284550614354L535.5859527910105,368.03870604273914L535.5105273469412,370.1226121833679L532.2211503353269,370.8317092958397L532.3166189124838,362.4125525478993L532.3277740425124,362.10366064112316L533.0044621543104,361.1236660410167L533.9868150052048,362.8030670340589L536.8205274238854,362.2107386107283Z" vector-effect="non-scaling-stroke"><title>Sebastian County</title></path><path id="county-05037" class="county feature" d="M591.5220401520888,359.0617610127873L591.8352369312142,364.6581789882216L583.6711016820245,365.03264616163165L583.5119226533096,361.1519437530204L583.4356282142924,359.4838090582358Z" vector-effect="non-scaling-stroke"><title>Cross County</title></path><path id="county-05147" class="county feature" d="M583.5119226533096,361.1519437530204L583.6711016820245,365.03264616163165L583.7722931579477,367.8064284523384L582.1940020459799,367.85650305679303L580.0408730111399,368.29406924164925L578.9650862095494,369.71030774406586L578.9087290569947,367.1028250467191L577.3364455726845,366.4565108781037L578.3997328695012,363.4655104716777L577.7107645122913,361.006514610366L578.8010772658458,359.7913615901433L580.2166210443994,359.5946419268697L580.315772762915,361.2524979495661Z" vector-effect="non-scaling-stroke"><title>Woodruff County</title></path><path id="county-05035" class="county feature" d="M594.7676249399227,358.92993826145425L596.9329779141107,358.8659133633266L598.0137522069683,359.7580698137567L597.0107140096723,362.2404745987252L598.2362581556271,362.8001456518001L598.4360349308488,364.342880930565L596.8766507065109,364.83790132140257L596.3535481788668,366.61948504022564L594.9319323773258,367.2791070056318L596.0221468147529,368.52687796684495L595.1611307108833,369.82638200861265L593.6174666686736,370.4258508539016L593.5277654727716,369.08845032302145L593.3768544639057,364.49308162183115L591.8352369312142,364.6581789882216L591.5220401520888,359.0617610127873Z" vector-effect="non-scaling-stroke"><title>Crittenden County</title></path><path id="county-05083" class="county feature" d="M543.2214638236592,362.2964963429473L547.2958736660844,361.2540255425007L547.8426998098082,362.8336965455612L549.4478953539141,363.0329433387094L549.7621483435412,363.21227934861804L549.7967030961955,365.17725290987994L547.119902629958,365.2017847509179L546.0526824811145,366.55593190574234L543.379408403626,366.82030381794425L543.4589737959858,368.9892681700147L537.8569640556314,368.9760483013823L536.8235900724397,367.6284550614354L538.4654888594098,366.8191707773469L538.4750007987335,365.4435673252765L540.107730697428,365.1142398515467L540.1195816146011,363.425673578502L541.7373595029642,363.50165937426493L541.7299225825589,361.29912051788335Z" vector-effect="non-scaling-stroke"><title>Logan County</title></path><path id="county-05045" class="county feature" d="M565.2136084197854,361.8134390799223L567.3474791008108,361.7469175137361L567.4507795995635,367.32890902365193L567.4652530741417,368.35001580401365L565.84821722179,368.3726068747775L565.8859392045251,370.00930167216313L561.0927645324659,369.70766885829255L560.2500823312602,368.85632814304597L560.831101007101,366.70122415445485L561.7614203039664,361.8573509498352Z" vector-effect="non-scaling-stroke"><title>Faulkner County</title></path><path id="county-05149" class="county feature" d="M555.6291451098792,365.79925802353887L553.4906513034175,367.63298808279046L549.861168100537,371.8130968098377L549.9137499710581,373.4641248005738L548.3134953748238,374.06949265569494L543.5018509885596,374.1580260381314L543.4589737959858,368.9892681700147L543.379408403626,366.82030381794425L546.0526824811145,366.55593190574234L547.119902629958,365.2017847509179L549.7967030961955,365.17725290987994L549.7621483435412,363.21227934861804L551.5998271975993,364.62845438042746L552.6667400939053,366.49126271431726Z" vector-effect="non-scaling-stroke"><title>Yell County</title></path><path id="county-05123" class="county feature" d="M591.8352369312142,364.6581789882216L593.3768544639057,364.49308162183115L593.5277654727716,369.08845032302145L583.0486639396072,369.5235849778595L583.0809951054232,370.3616586449898L582.1940020459799,367.85650305679303L583.7722931579477,367.8064284523384L583.6711016820245,365.03264616163165Z" vector-effect="non-scaling-stroke"><title>Saint Francis County</title></path><path id="county-05105" class="county feature" d="M561.0927645324659,369.70766885829255L557.9462803100522,370.62239436774985L558.1956399946952,371.6908345522802L553.117399089202,371.76810569375095L553.1510000823502,373.3913703973027L549.9137499710581,373.4641248005738L549.861168100537,371.8130968098377L553.4906513034175,367.63298808279046L558.424483423745,367.57514041415186L560.831101007101,366.70122415445485L560.2500823312602,368.85632814304597Z" vector-effect="non-scaling-stroke"><title>Perry County</title></path><path id="county-05127" class="county feature" d="M543.4589737959858,368.9892681700147L543.5018509885596,374.1580260381314L540.187034535824,375.7354354860663L538.8316611663122,375.2574881000934L534.2776516743188,375.2522024996766L532.1858541980546,374.6929084222619L532.2211503353269,370.8317092958397L535.5105273469412,370.1226121833679L535.5859527910105,368.03870604273914L536.8235900724397,367.6284550614354L537.8569640556314,368.9760483013823Z" vector-effect="non-scaling-stroke"><title>Scott County</title></path><path id="county-05117" class="county feature" d="M577.3364455726845,366.4565108781037L578.9087290569947,367.1028250467191L578.9650862095494,369.71030774406586L579.0767104384522,374.3562982060731L577.9886034521917,374.38254205512976L579.1432623259651,376.2860280412781L575.8361702194288,376.36120184272784L575.895748766263,378.0004827626751L574.6353681171856,378.035101021228L575.0270354946941,375.0904751989111L574.1279819031752,374.46221496574606L574.0265979113944,369.81204700245337L572.3535510136803,369.850478020375L572.2740031200659,367.80332755147833L573.5465047841143,367.15001139893377L575.5786552323366,367.75579850589077L575.5368362693362,366.5048474629815Z" vector-effect="non-scaling-stroke"><title>Prairie County</title></path><path id="county-05085" class="county feature" d="M572.2740031200659,367.80332755147833L572.3535510136803,369.850478020375L574.0265979113944,369.81204700245337L574.1279819031752,374.46221496574606L575.0270354946941,375.0904751989111L574.6353681171856,378.035101021228L574.2241210979162,378.04059660008056L569.263309742213,378.1309208015722L569.1649284991876,375.6460726289165L567.8845875610966,375.66966944490605L568.3338447518701,373.55377531114175L568.2215677420003,368.3270360617538L567.4652530741417,368.35001580401365L567.4507795995635,367.32890902365193L569.0571030307678,367.0760627884307Z" vector-effect="non-scaling-stroke"><title>Lonoke County</title></path><path id="county-05119" class="county feature" d="M567.4652530741417,368.35001580401365L568.2215677420003,368.3270360617538L568.3338447518701,373.55377531114175L567.8845875610966,375.66966944490605L569.1649284991876,375.6460726289165L569.263309742213,378.1309208015722L566.5446752318454,378.1772255891069L565.9636686002937,378.1861343314912L565.9205752428202,376.54119495705004L564.3331244572994,376.5717078757185L562.8260279677362,374.94272904811373L561.1586545054931,374.6772874179219L561.1420217066072,373.3155650357303L559.5520017138377,373.3198014720317L559.5432854586744,371.67736241855664L558.1956399946952,371.6908345522802L557.9462803100522,370.62239436774985L561.0927645324659,369.70766885829255L565.8859392045251,370.00930167216313L565.84821722179,368.3726068747775Z" vector-effect="non-scaling-stroke"><title>Pulaski County</title></path><path id="county-05095" class="county feature" d="M582.1940020459799,367.85650305679303L583.0809951054232,370.3616586449898L583.171248303096,372.8527327649907L584.0278735278717,374.48955170451643L584.1553806214183,377.7791663411115L584.983434278943,377.76314530022137L585.0823267486684,380.2680486645794L584.2594332055248,380.3050478314327L583.6820575520759,380.1983126721407L580.3340175378266,376.7530854758535L579.1432623259651,376.2860280412781L577.9886034521917,374.38254205512976L579.0767104384522,374.3562982060731L578.9650862095494,369.71030774406586L580.0408730111399,368.29406924164925Z" vector-effect="non-scaling-stroke"><title>Monroe County</title></path><path id="county-05077" class="county feature" d="M593.5277654727716,369.08845032302145L593.6174666686736,370.4258508539016L592.418835533942,369.9254805447972L593.0259990324304,372.08886149092984L591.3116028865745,372.62871940150444L592.9041670020063,373.47185575054766L591.1645565275824,374.17597845923433L584.0278735278717,374.48955170451643L583.171248303096,372.8527327649907L583.0809951054232,370.3616586449898L583.0486639396072,369.5235849778595Z" vector-effect="non-scaling-stroke"><title>Lee County</title></path><path id="county-05125" class="county feature" d="M558.1956399946952,371.6908345522802L559.5432854586744,371.67736241855664L559.5520017138377,373.3198014720317L561.1420217066072,373.3155650357303L561.1586545054931,374.6772874179219L562.8260279677362,374.94272904811373L564.3331244572994,376.5717078757185L565.9205752428202,376.54119495705004L565.9636686002937,378.1861343314912L563.5634972374341,378.23548269290586L563.5728386767108,379.0618881498856L560.7539155302462,379.0960168367475L559.5648377789564,379.91933337739033L559.2739999555839,378.8205636527466L557.6055876463524,378.30209405187327L557.32621555395,376.6773380967994L554.677854997176,375.88053101391415L554.7553408355462,373.3340059392534L553.1510000823502,373.3913703973027L553.117399089202,371.76810569375095Z" vector-effect="non-scaling-stroke"><title>Saline County</title></path><path id="county-05051" class="county feature" d="M553.1510000823502,373.3913703973027L554.7553408355462,373.3340059392534L554.677854997176,375.88053101391415L557.32621555395,376.6773380967994L557.6055876463524,378.30209405187327L555.7420470095756,378.31624001713317L555.3143692885999,380.5325695563771L548.2948849758425,380.59642999787206L548.3134953748238,374.06949265569494L549.9137499710581,373.4641248005738Z" vector-effect="non-scaling-stroke"><title>Garland County</title></path><path id="county-05097" class="county feature" d="M548.3134953748238,374.06949265569494L548.2948849758425,380.59642999787206L548.3078746775539,381.6763470111829L547.2313315108667,381.6800269873153L540.2395264276386,381.675800776619L540.187034535824,375.7354354860663L543.5018509885596,374.1580260381314Z" vector-effect="non-scaling-stroke"><title>Montgomery County</title></path><path id="county-05113" class="county feature" d="M540.2395264276386,381.675800776619L535.3521743448138,381.67061471136435L535.5790329734002,384.73538904559166L532.108867338889,384.8459387710325L532.1441082438105,378.864988929887L532.1858541980546,374.6929084222619L534.2776516743188,375.2522024996766L538.8316611663122,375.2574881000934L540.187034535824,375.7354354860663Z" vector-effect="non-scaling-stroke"><title>Polk County</title></path><path id="county-05107" class="county feature" d="M591.1645565275824,374.17597845923433L591.4977375149712,376.361182374991L591.5123484516325,378.4417893557858L588.8382755039281,379.46501231622165L589.1106804053863,380.61142767594606L587.5979200312747,382.4389516541494L586.1870451268469,382.11292456526724L587.984672331962,383.7745437630048L586.0110599008851,384.29376902586375L586.0232913227732,384.3164015832307L583.5318969947014,384.4425795095601L584.0163736863055,384.00156993566543L584.2594332055248,380.3050478314327L585.0823267486684,380.2680486645794L584.983434278943,377.76314530022137L584.1553806214183,377.7791663411115L584.0278735278717,374.48955170451643Z" vector-effect="non-scaling-stroke"><title>Phillips County</title></path><path id="county-05001" class="county feature" d="M579.1432623259651,376.2860280412781L580.3340175378266,376.7530854758535L583.6820575520759,380.1983126721407L584.2594332055248,380.3050478314327L584.0163736863055,384.00156993566543L583.5318969947014,384.4425795095601L582.3853916265583,385.7581089105985L583.458714936892,387.5332116761251L581.6540695732915,387.5760155043092L578.9682229702632,386.6413565152842L578.5454886676334,385.42408124457825L577.1304829698673,382.899520964349L574.3312320733722,382.7219403325788L574.2241210979162,378.04059660008056L574.6353681171856,378.035101021228L575.895748766263,378.0004827626751L575.8361702194288,376.36120184272784Z" vector-effect="non-scaling-stroke"><title>Arkansas County</title></path><path id="county-05059" class="county feature" d="M557.6055876463524,378.30209405187327L559.2739999555839,378.8205636527466L559.5648377789564,379.91933337739033L559.5908264941146,384.90177735995564L556.4015636654203,384.89043671459206L554.2591627381328,384.8832185134064L554.0822240431995,383.4484737424631L549.1238187911296,382.76948507244276L548.3078746775539,381.6763470111829L548.2948849758425,380.59642999787206L555.3143692885999,380.5325695563771L555.7420470095756,378.31624001713317Z" vector-effect="non-scaling-stroke"><title>Hot Spring County</title></path><path id="county-05053" class="county feature" d="M565.9636686002937,378.1861343314912L566.5446752318454,378.1772255891069L566.4768607046263,386.2876180805541L564.8929396721913,386.40114952480405L562.3282912524802,384.89655866574094L559.5908264941146,384.90177735995564L559.5648377789564,379.91933337739033L560.7539155302462,379.0960168367475L563.5728386767108,379.0618881498856L563.5634972374341,378.23548269290586Z" vector-effect="non-scaling-stroke"><title>Grant County</title></path><path id="county-05069" class="county feature" d="M569.263309742213,378.1309208015722L574.2241210979162,378.04059660008056L574.3312320733722,382.7219403325788L577.1304829698673,382.899520964349L578.5454886676334,385.42408124457825L574.1459597300037,383.8647059129389L573.9437721251193,385.3764308749113L570.7413067926745,385.5275056342076L570.7647524125593,386.077895678573L566.4768607046263,386.2876180805541L566.5446752318454,378.1772255891069Z" vector-effect="non-scaling-stroke"><title>Jefferson County</title></path><path id="county-05061" class="county feature" d="M540.2395264276386,381.675800776619L540.4548921517107,384.74935416786957L542.0677353357372,384.7638147587487L542.1046549761516,388.05710099811984L542.0899330021448,392.9711448835776L540.1469587060147,392.9535582251973L540.1248102871997,392.95302348973007L538.6800425831393,390.50910195975314L537.8293906231914,384.7234065179481L535.5790329734002,384.73538904559166L535.3521743448138,381.67061471136435Z" vector-effect="non-scaling-stroke"><title>Howard County</title></path><path id="county-05109" class="county feature" d="M547.2313315108667,381.6800269873153L546.9316954115121,384.07275646722803L547.7222075586644,384.2115488496854L548.0548707531016,387.1573942777802L549.0337419803413,388.8586181374827L547.759535289535,388.89530296630574L546.6517098412207,389.17425352533985L542.1046549761516,388.05710099811984L542.0677353357372,384.7638147587487L540.4548921517107,384.74935416786957L540.2395264276386,381.675800776619Z" vector-effect="non-scaling-stroke"><title>Pike County</title></path><path id="county-05019" class="county feature" d="M548.3078746775539,381.6763470111829L549.1238187911296,382.76948507244276L554.0822240431995,383.4484737424631L554.2591627381328,384.8832185134064L556.4015636654203,384.89043671459206L556.5043150789124,391.40147481557835L553.2793540154655,392.1210555645878L550.4130848183536,390.9581418866245L549.0337419803413,388.8586181374827L548.0548707531016,387.1573942777802L547.7222075586644,384.2115488496854L546.9316954115121,384.07275646722803L547.2313315108667,381.6800269873153Z" vector-effect="non-scaling-stroke"><title>Clark County</title></path><path id="county-05133" class="county feature" d="M540.1248102871997,392.95302348973007L536.5434367889845,392.324192409508L532.0738658429459,389.5300966593694L532.108867338889,384.8459387710325L535.5790329734002,384.73538904559166L537.8293906231914,384.7234065179481L538.6800425831393,390.50910195975314Z" vector-effect="non-scaling-stroke"><title>Sevier County</title></path><path id="county-05079" class="county feature" d="M578.5454886676334,385.42408124457825L578.9682229702632,386.6413565152842L577.0570174675801,387.44051019621577L577.0837567762554,391.0823477659053L570.6402699418192,391.21172828503484L570.7647524125593,386.077895678573L570.7413067926745,385.5275056342076L573.9437721251193,385.3764308749113L574.1459597300037,383.8647059129389Z" vector-effect="non-scaling-stroke"><title>Lincoln County</title></path><path id="county-05039" class="county feature" d="M559.5908264941146,384.90177735995564L562.3282912524802,384.89655866574094L564.8929396721913,386.40114952480405L562.8240396371641,386.5270004537598L562.8223250045127,388.11602203076893L565.1234541727962,391.37434829539836L561.2890775232806,391.3817876097186L556.5043150789124,391.40147481557835L556.4015636654203,384.89043671459206Z" vector-effect="non-scaling-stroke"><title>Dallas County</title></path><path id="county-05041" class="county feature" d="M586.0232913227732,384.3164015832307L587.1307351191224,385.9364916795482L584.1129544489619,387.36189728378724L585.3288755679613,391.0579160435028L583.6351871457146,390.7602079584135L583.9315561189817,392.2160819796652L582.4082877788368,393.11909292839994L583.7847601680953,394.32782333464513L582.3257058235197,395.0087519174083L582.1402090892065,395.8514812282747L578.8889769324912,395.1338215343212L578.7382311371288,391.0596665722654L577.0837567762554,391.0823477659053L577.0570174675801,387.44051019621577L578.9682229702632,386.6413565152842L581.6540695732915,387.5760155043092L583.458714936892,387.5332116761251L582.3853916265583,385.7581089105985L583.5318969947014,384.4425795095601Z" vector-effect="non-scaling-stroke"><title>Desha County</title></path><path id="county-05025" class="county feature" d="M570.7647524125593,386.077895678573L570.6402699418192,391.21172828503484L570.7098518222995,392.8542193251218L565.2364767130083,393.01113557952226L565.1234541727962,391.37434829539836L562.8223250045127,388.11602203076893L562.8240396371641,386.5270004537598L564.8929396721913,386.40114952480405L566.4768607046263,386.2876180805541Z" vector-effect="non-scaling-stroke"><title>Cleveland County</title></path><path id="county-05057" class="county feature" d="M547.759535289535,388.89530296630574L547.5907626902452,397.945961361268L543.8802495224413,397.9294237703076L542.2322533899257,395.56313213312023L540.0583121351461,394.4996776637994L540.1469587060147,392.9535582251973L542.0899330021448,392.9711448835776L542.1046549761516,388.05710099811984L546.6517098412207,389.17425352533985Z" vector-effect="non-scaling-stroke"><title>Hempstead County</title></path><path id="county-05099" class="county feature" d="M549.0337419803413,388.8586181374827L550.4130848183536,390.9581418866245L553.2793540154655,392.1210555645878L553.2763093324685,398.21990586004404L549.4278242555928,398.4923262440212L547.5907626902452,397.945961361268L547.759535289535,388.89530296630574Z" vector-effect="non-scaling-stroke"><title>Nevada County</title></path><path id="county-05081" class="county feature" d="M540.1248102871997,392.95302348973007L540.1469587060147,392.9535582251973L540.0583121351461,394.4996776637994L542.2322533899257,395.56313213312023L538.8962912052395,396.7188504476055L537.1134039297375,396.04618392992904L533.5909779234618,396.9538789883271L532.0322285657359,395.2325879014338L532.0738658429459,389.5300966593694L536.5434367889845,392.324192409508Z" vector-effect="non-scaling-stroke"><title>Little River County</title></path><path id="county-05103" class="county feature" d="M556.5043150789124,391.40147481557835L561.2890775232806,391.3817876097186L561.276181585566,392.7169052052752L558.5468577746855,396.97613212968224L559.6634961011653,398.42855615360884L561.8276607218235,399.5495132557327L555.4532654314952,399.57504433825943L553.2732805758841,399.5861702442886L553.2763093324685,398.21990586004404L553.2793540154655,392.1210555645878Z" vector-effect="non-scaling-stroke"><title>Ouachita County</title></path><path id="county-05013" class="county feature" d="M565.2364767130083,393.01113557952226L565.6850812086848,396.8598686176291L564.7676556901888,399.3119794780914L565.2329760492655,400.7070626581575L563.968150460564,401.2826232307574L561.8276607218235,399.5495132557327L559.6634961011653,398.42855615360884L558.5468577746855,396.97613212968224L561.276181585566,392.7169052052752L561.2890775232806,391.3817876097186L565.1234541727962,391.37434829539836Z" vector-effect="non-scaling-stroke"><title>Calhoun County</title></path><path id="county-05043" class="county feature" d="M577.0837567762554,391.0823477659053L578.7382311371288,391.0596665722654L578.8889769324912,395.1338215343212L578.985073617802,398.41982819904297L570.7369968719208,398.6162814265019L570.7098518222995,392.8542193251218L570.6402699418192,391.21172828503484Z" vector-effect="non-scaling-stroke"><title>Drew County</title></path><path id="county-05011" class="county feature" d="M570.7098518222995,392.8542193251218L570.7369968719208,398.6162814265019L570.9438551029943,400.48162168173235L568.950600909631,401.9966976685665L568.6342735026248,403.12930516402196L567.2249973121507,401.5013598005071L565.2329760492655,400.7070626581575L564.7676556901888,399.3119794780914L565.6850812086848,396.8598686176291L565.2364767130083,393.01113557952226Z" vector-effect="non-scaling-stroke"><title>Bradley County</title></path><path id="county-05091" class="county feature" d="M543.8802495224413,397.9294237703076L544.2833590195354,402.2001426598298L543.2092645230457,404.3790468043387L542.0477266424173,404.3189211290231L542.8155988307159,406.65429503946825L542.6536562743828,406.657017518937L539.1025630255856,406.7374263893072L539.0050470685546,402.0010982791348L538.8962912052395,396.7188504476055L542.2322533899257,395.56313213312023Z" vector-effect="non-scaling-stroke"><title>Miller County</title></path><path id="county-05017" class="county feature" d="M582.3257058235197,395.0087519174083L582.6055847661173,395.60356982587143L582.3632949164121,397.30778980238983L583.9286512600789,396.48504686680667L583.9632290796607,399.8772170702822L584.9504273289111,402.8020822624293L583.2155128371691,403.49534642371566L584.5200521371631,404.42357847006565L583.8484746376557,405.28579504313075L583.8610326118958,405.4226221086715L582.3426130031196,405.47993210387665L579.6580809930647,405.59217831728745L579.2844029944214,405.6131199297025L578.985073617802,398.41982819904297L578.8889769324912,395.1338215343212L582.1402090892065,395.8514812282747Z" vector-effect="non-scaling-stroke"><title>Chicot County</title></path><path id="county-05073" class="county feature" d="M547.5907626902452,397.945961361268L549.4278242555928,398.4923262440212L548.3281531699399,402.0230960710943L547.7206074182014,402.0069970288214L547.7013213878953,406.5495076722889L547.2322928271318,406.5597996027809L542.8155988307159,406.65429503946825L542.0477266424173,404.3189211290231L543.2092645230457,404.3790468043387L544.2833590195354,402.2001426598298L543.8802495224413,397.9294237703076Z" vector-effect="non-scaling-stroke"><title>Lafayette County</title></path><path id="county-05027" class="county feature" d="M553.2763093324685,398.21990586004404L553.2732805758841,399.5861702442886L555.4532654314952,399.57504433825943L555.5119972242193,406.3417838984933L551.6207257885301,406.4498943077002L547.7013213878953,406.5495076722889L547.7206074182014,402.0069970288214L548.3281531699399,402.0230960710943L549.4278242555928,398.4923262440212Z" vector-effect="non-scaling-stroke"><title>Columbia County</title></path><path id="county-05003" class="county feature" d="M578.985073617802,398.41982819904297L579.2844029944214,405.6131199297025L569.8184561605582,405.9927870977799L568.6342735026248,403.12930516402196L568.950600909631,401.9966976685665L570.9438551029943,400.48162168173235L570.7369968719208,398.6162814265019Z" vector-effect="non-scaling-stroke"><title>Ashley County</title></path><path id="county-05139" class="county feature" d="M561.8276607218235,399.5495132557327L563.968150460564,401.2826232307574L565.2329760492655,400.7070626581575L567.2249973121507,401.5013598005071L568.6342735026248,403.12930516402196L569.8184561605582,405.9927870977799L559.6111922588877,406.2647524126303L555.5119972242193,406.3417838984933L555.4532654314952,399.57504433825943Z" vector-effect="non-scaling-stroke"><title>Union County</title></path></g><path id="counties-mesh" class="counties mesh" d="M576.3000037470439,339.9379502076798L576.3715054818958,342.9951791770345L574.7134250905312,343.03706486638464L574.7903003728828,344.6837497562011L572.9151115894049,344.7072057452772L565.9700772259889,344.85621013422804L565.8904951788244,340.3799873922676M548.8582390869959,340.9744808572756L549.0067563476996,348.08046484561635L546.3236438230942,348.08124264863L545.2559512507647,348.0858664678476L543.5812259272436,344.7947651683396L541.225772959079,344.78604685236473M576.9296483683207,339.9187948716401L578.4670925861074,341.291445712817L579.35620512886,344.3131698056577L578.0333893862761,344.88851247874584L578.2342728139407,351.30127679078635L576.6071466887792,350.5062316799376L572.9018840398917,350.58617850558176L573.2706214835562,349.4617754860891L572.9151115894049,344.7072057452772M586.176589933253,339.4138850607304L586.8915139724126,343.4504027147451L586.0899600326228,343.79160814482213L586.162544647355,346.0023209964985L581.2030811620732,345.9331947455887L579.35620512886,344.3131698056577M555.4365415255501,340.7790750768952L554.9821069142567,340.92678094649295L555.1290588670074,348.0280234266005L554.3187354472477,348.0340517164042L549.0067563476996,348.08046484561635M560.258261245859,340.59698638960253L560.149738622354,344.9591132878073L561.3061043258577,345.2236338533113L562.2416598462336,346.86652255238755L562.3232346751544,348.74192789532697L555.9448188260191,348.8297538561353L555.1290588670074,348.0280234266005M565.9700772259889,344.85621013422804L565.4943341647736,347.29422559130217L565.5177347607301,348.6835194177156L563.9178200256194,348.7142318252189L563.9386047228393,350.3548039632657L562.3421421742584,350.3815122190264L562.3232346751544,348.74192789532697M595.3429119803124,344.4938012366731L593.3967600004866,344.62576910003406L593.3466460723898,343.519060060779L586.0899600326228,343.79160814482213M546.3236438230942,348.08124264863L546.8322824777207,351.03925533799156L545.7836445386475,352.6863443447961L545.911654788583,354.9088332246906L543.252974121072,354.8795759338889L540.0292102108705,355.12116286859816L539.247372942558,355.11687306668637L539.3983921642421,348.890101903517L540.1804092303723,346.15775259747636M592.7799338843867,348.53192142580895L592.6319012673657,349.1238332614788L585.7160344056059,349.45480935854357L586.162544647355,346.0023209964985M572.9018840398917,350.58617850558176L570.8787674862958,352.0785616879617L569.2397070450597,350.90898058832374L566.8830248182362,350.92732580652614L567.6459069252438,349.0790817246095L565.4943341647736,347.29422559130217M585.7160344056059,349.45480935854357L585.4609624562551,351.11207202673654L583.1030669972749,351.1583039892088L580.610162673745,351.1932731626657L578.2342728139407,351.30127679078635M539.247372942558,355.11687306668637L531.2882076505489,355.29767173968787L530.3058239997844,348.84608582013254M537.6864593566087,361.0961972735414L536.8205274238854,362.2107386107283L533.9868150052048,362.8030670340589L533.0044621543104,361.1236660410167L532.3277740425124,362.10366064112316L531.6319390959065,357.5659582918006L531.2882076505489,355.29767173968787M570.8787674862958,352.0785616879617L571.2010533158071,355.1295756325551L565.1380491898369,355.24564119062086L562.4568113358991,355.2783229423436L562.4375247380679,353.9084731411L562.3421421742584,350.3815122190264M554.3187354472477,348.0340517164042L554.4582688644753,355.3933251293696L551.2542692682058,355.4145592758347L545.9205847226423,355.45743721047916L545.911654788583,354.9088332246906M562.4375247380679,353.9084731411L559.2323409958076,353.98524369375264L559.269929896784,355.34931280694764L556.5832391366056,355.3660924945343L554.4582688644753,355.3933251293696M540.3794379097479,341.1811486001751L540.0809844949833,343.60964793813923L541.225772959079,344.78604685236473L540.1804092303723,346.15775259747636L538.9232359786936,346.7462163488967L533.5360117067137,346.67672690326503L532.7102693075444,348.8610855506747L530.3058239997844,348.84608582013254L530.1225004019883,347.72385557202574L529.2097963176882,341.3755670122745L537.2523709308686,341.24788264153176L540.3794379097479,341.1811486001751L544.5734394015631,341.0777357521358L548.5808555967568,340.9843720051705L548.8582390869959,340.9744808572756L555.4365415255501,340.7790750768952L556.6476261743328,340.74250543134247L560.258261245859,340.59698638960253L565.8904951788244,340.3799873922676L566.3382692579037,340.35670259747417L572.9927435479163,340.0580560325311L576.3000037470439,339.9379502076798L576.9296483683207,339.9187948716401L581.1032043461752,339.6986182287593L586.176589933253,339.4138850607304L589.2727765762269,339.23939801602035L594.5485432683251,338.94129382094127L595.5233682070059,338.8795790982274L596.762107413873,340.6483565246293L597.1058697554026,342.4632760409662L595.3429119803124,344.4938012366731L592.7799338843867,348.53192142580895L594.1039349967533,348.4386901317416L599.0292529868522,348.0820721747748L602.7951576008618,347.7856335164756L603.8453837099762,349.5572214285787L602.3618230714427,349.62535515250977L603.0770779436045,350.9791516259678L601.3639923047374,352.5170864309616L599.4248403074489,353.02436903804994L601.003487739857,354.8755502998397L599.5438430645304,355.82731172528906L600.3311821315423,356.708033517673L598.3562891560864,356.6559219713316L598.5126366323555,359.4915936851352L598.3266490445756,359.6411618215642L598.0478812773722,358.3069091132011L596.9329779141107,358.8659133633266L594.7676249399227,358.92993826145425L594.4717534454016,354.0137193922026L594.1039349967533,348.4386901317416M594.4717534454016,354.0137193922026L583.2014387630481,354.48412193383786L583.1030669972749,351.1583039892088M580.610162673745,351.1932731626657L580.183428572392,352.6733710349216L578.449782824913,354.71539296528806L578.3803794110728,358.165317158118L575.1851018422398,358.2415347713297L571.9901000087093,358.3166796458697L571.9066793600244,354.9697936557219L571.2010533158071,355.1295756325551M583.2014387630481,354.48412193383786L583.4356282142924,359.4838090582358L583.5119226533096,361.1519437530204L580.315772762915,361.2524979495661L580.2166210443994,359.5946419268697L578.8010772658458,359.7913615901433L575.2188350713711,359.8985486971536L575.1851018422398,358.2415347713297M565.1380491898369,355.24564119062086L565.2136084197854,361.8134390799223L561.7614203039664,361.8573509498352L561.7114793310291,360.21655241051485L556.1307651548452,360.2726632376074L556.6388690415323,358.633428637202L556.5832391366056,355.3660924945343M543.252974121072,354.8795759338889L543.2214638236592,362.2964963429473L541.7299225825589,361.29912051788335L541.7373595029642,363.50165937426493L540.1195816146011,363.425673578502L540.107730697428,365.1142398515467L538.4750007987335,365.4435673252765L537.6604194357654,365.4399921268314L537.6864593566087,361.0961972735414L538.420622079016,358.65358045045616L537.6252921555722,357.01059745291286L538.9694699036844,357.01106462255177L540.0292102108705,355.12116286859816M551.2542692682058,355.4145592758347L551.2739512393562,357.8848705533684L550.4741759318056,357.88519458492544L550.5081266464088,360.34167668486884L549.4203107338329,360.3487491836503L549.4478953539141,363.0329433387094L547.8426998098082,362.8336965455612L547.2958736660844,361.2540255425007L543.2214638236592,362.2964963429473M556.1307651548452,360.2726632376074L556.2467227938423,365.7384522155178L555.6291451098792,365.79925802353887L552.6667400939053,366.49126271431726L551.5998271975993,364.62845438042746L549.7621483435412,363.21227934861804L549.4478953539141,363.0329433387094M571.9901000087093,358.3166796458697L571.2650744884658,361.664241652638L567.3474791008108,361.7469175137361L565.2136084197854,361.8134390799223M594.7676249399227,358.92993826145425L591.5220401520888,359.0617610127873L583.4356282142924,359.4838090582358M538.4750007987335,365.4435673252765L538.4654888594098,366.8191707773469L536.8235900724397,367.6284550614354L535.5859527910105,368.03870604273914L535.5105273469412,370.1226121833679L532.2211503353269,370.8317092958397L532.3166189124838,362.4125525478993L532.3277740425124,362.10366064112316M578.8010772658458,359.7913615901433L577.7107645122913,361.006514610366L578.3997328695012,363.4655104716777L577.3364455726845,366.4565108781037L575.5368362693362,366.5048474629815L575.5786552323366,367.75579850589077L573.5465047841143,367.15001139893377L572.2740031200659,367.80332755147833L569.0571030307678,367.0760627884307L567.4507795995635,367.32890902365193L567.3474791008108,361.7469175137361M561.7614203039664,361.8573509498352L560.831101007101,366.70122415445485L558.424483423745,367.57514041415186L553.4906513034175,367.63298808279046L555.6291451098792,365.79925802353887M591.5220401520888,359.0617610127873L591.8352369312142,364.6581789882216L583.6711016820245,365.03264616163165L583.5119226533096,361.1519437530204M583.6711016820245,365.03264616163165L583.7722931579477,367.8064284523384L582.1940020459799,367.85650305679303L580.0408730111399,368.29406924164925L578.9650862095494,369.71030774406586L578.9087290569947,367.1028250467191L577.3364455726845,366.4565108781037M596.9329779141107,358.8659133633266L598.0137522069683,359.7580698137567L597.0107140096723,362.2404745987252L598.2362581556271,362.8001456518001L598.4360349308488,364.342880930565L596.8766507065109,364.83790132140257L596.3535481788668,366.61948504022564L594.9319323773258,367.2791070056318L596.0221468147529,368.52687796684495L595.1611307108833,369.82638200861265L593.6174666686736,370.4258508539016L593.5277654727716,369.08845032302145L593.3768544639057,364.49308162183115L591.8352369312142,364.6581789882216M549.7621483435412,363.21227934861804L549.7967030961955,365.17725290987994L547.119902629958,365.2017847509179L546.0526824811145,366.55593190574234L543.379408403626,366.82030381794425L543.4589737959858,368.9892681700147L537.8569640556314,368.9760483013823L536.8235900724397,367.6284550614354M540.2395264276386,381.675800776619L535.3521743448138,381.67061471136435L535.5790329734002,384.73538904559166L532.108867338889,384.8459387710325L532.1441082438105,378.864988929887L532.1858541980546,374.6929084222619L532.2211503353269,370.8317092958397M567.4507795995635,367.32890902365193L567.4652530741417,368.35001580401365L565.84821722179,368.3726068747775L565.8859392045251,370.00930167216313L561.0927645324659,369.70766885829255L560.2500823312602,368.85632814304597L560.831101007101,366.70122415445485M553.4906513034175,367.63298808279046L549.861168100537,371.8130968098377L549.9137499710581,373.4641248005738L548.3134953748238,374.06949265569494L543.5018509885596,374.1580260381314L543.4589737959858,368.9892681700147M593.5277654727716,369.08845032302145L583.0486639396072,369.5235849778595L583.0809951054232,370.3616586449898L582.1940020459799,367.85650305679303M561.0927645324659,369.70766885829255L557.9462803100522,370.62239436774985L558.1956399946952,371.6908345522802L553.117399089202,371.76810569375095L553.1510000823502,373.3913703973027L549.9137499710581,373.4641248005738M543.5018509885596,374.1580260381314L540.187034535824,375.7354354860663L538.8316611663122,375.2574881000934L534.2776516743188,375.2522024996766L532.1858541980546,374.6929084222619M578.9650862095494,369.71030774406586L579.0767104384522,374.3562982060731L577.9886034521917,374.38254205512976L579.1432623259651,376.2860280412781L575.8361702194288,376.36120184272784L575.895748766263,378.0004827626751L574.6353681171856,378.035101021228L575.0270354946941,375.0904751989111L574.1279819031752,374.46221496574606L574.0265979113944,369.81204700245337L572.3535510136803,369.850478020375L572.2740031200659,367.80332755147833M574.6353681171856,378.035101021228L574.2241210979162,378.04059660008056L569.263309742213,378.1309208015722L569.1649284991876,375.6460726289165L567.8845875610966,375.66966944490605L568.3338447518701,373.55377531114175L568.2215677420003,368.3270360617538L567.4652530741417,368.35001580401365M569.263309742213,378.1309208015722L566.5446752318454,378.1772255891069L565.9636686002937,378.1861343314912L565.9205752428202,376.54119495705004L564.3331244572994,376.5717078757185L562.8260279677362,374.94272904811373L561.1586545054931,374.6772874179219L561.1420217066072,373.3155650357303L559.5520017138377,373.3198014720317L559.5432854586744,371.67736241855664L558.1956399946952,371.6908345522802M583.0809951054232,370.3616586449898L583.171248303096,372.8527327649907L584.0278735278717,374.48955170451643L584.1553806214183,377.7791663411115L584.983434278943,377.76314530022137L585.0823267486684,380.2680486645794L584.2594332055248,380.3050478314327L583.6820575520759,380.1983126721407L580.3340175378266,376.7530854758535L579.1432623259651,376.2860280412781M593.6174666686736,370.4258508539016L592.418835533942,369.9254805447972L593.0259990324304,372.08886149092984L591.3116028865745,372.62871940150444L592.9041670020063,373.47185575054766L591.1645565275824,374.17597845923433L584.0278735278717,374.48955170451643M565.9636686002937,378.1861343314912L563.5634972374341,378.23548269290586L563.5728386767108,379.0618881498856L560.7539155302462,379.0960168367475L559.5648377789564,379.91933337739033L559.2739999555839,378.8205636527466L557.6055876463524,378.30209405187327L557.32621555395,376.6773380967994L554.677854997176,375.88053101391415L554.7553408355462,373.3340059392534L553.1510000823502,373.3913703973027M557.6055876463524,378.30209405187327L555.7420470095756,378.31624001713317L555.3143692885999,380.5325695563771L548.2948849758425,380.59642999787206L548.3134953748238,374.06949265569494M548.2948849758425,380.59642999787206L548.3078746775539,381.6763470111829L547.2313315108667,381.6800269873153L540.2395264276386,381.675800776619L540.187034535824,375.7354354860663M591.1645565275824,374.17597845923433L591.4977375149712,376.361182374991L591.5123484516325,378.4417893557858L588.8382755039281,379.46501231622165L589.1106804053863,380.61142767594606L587.5979200312747,382.4389516541494L586.1870451268469,382.11292456526724L587.984672331962,383.7745437630048L586.0110599008851,384.29376902586375L586.0232913227732,384.3164015832307L583.5318969947014,384.4425795095601L584.0163736863055,384.00156993566543L584.2594332055248,380.3050478314327M583.5318969947014,384.4425795095601L582.3853916265583,385.7581089105985L583.458714936892,387.5332116761251L581.6540695732915,387.5760155043092L578.9682229702632,386.6413565152842L578.5454886676334,385.42408124457825L577.1304829698673,382.899520964349L574.3312320733722,382.7219403325788L574.2241210979162,378.04059660008056M542.2322533899257,395.56313213312023L538.8962912052395,396.7188504476055L537.1134039297375,396.04618392992904L533.5909779234618,396.9538789883271L532.0322285657359,395.2325879014338L532.0738658429459,389.5300966593694L532.108867338889,384.8459387710325M559.5648377789564,379.91933337739033L559.5908264941146,384.90177735995564L556.4015636654203,384.89043671459206L554.2591627381328,384.8832185134064L554.0822240431995,383.4484737424631L549.1238187911296,382.76948507244276L548.3078746775539,381.6763470111829M566.5446752318454,378.1772255891069L566.4768607046263,386.2876180805541L564.8929396721913,386.40114952480405L562.3282912524802,384.89655866574094L559.5908264941146,384.90177735995564M578.5454886676334,385.42408124457825L574.1459597300037,383.8647059129389L573.9437721251193,385.3764308749113L570.7413067926745,385.5275056342076L570.7647524125593,386.077895678573L566.4768607046263,386.2876180805541M540.2395264276386,381.675800776619L540.4548921517107,384.74935416786957L542.0677353357372,384.7638147587487L542.1046549761516,388.05710099811984L542.0899330021448,392.9711448835776L540.1469587060147,392.9535582251973L540.1248102871997,392.95302348973007L538.6800425831393,390.50910195975314L537.8293906231914,384.7234065179481L535.5790329734002,384.73538904559166M547.2313315108667,381.6800269873153L546.9316954115121,384.07275646722803L547.7222075586644,384.2115488496854L548.0548707531016,387.1573942777802L549.0337419803413,388.8586181374827L547.759535289535,388.89530296630574L546.6517098412207,389.17425352533985L542.1046549761516,388.05710099811984M556.4015636654203,384.89043671459206L556.5043150789124,391.40147481557835L553.2793540154655,392.1210555645878L550.4130848183536,390.9581418866245L549.0337419803413,388.8586181374827M540.1248102871997,392.95302348973007L536.5434367889845,392.324192409508L532.0738658429459,389.5300966593694M578.9682229702632,386.6413565152842L577.0570174675801,387.44051019621577L577.0837567762554,391.0823477659053L570.6402699418192,391.21172828503484L570.7647524125593,386.077895678573M564.8929396721913,386.40114952480405L562.8240396371641,386.5270004537598L562.8223250045127,388.11602203076893L565.1234541727962,391.37434829539836L561.2890775232806,391.3817876097186L556.5043150789124,391.40147481557835M582.3257058235197,395.0087519174083L582.1402090892065,395.8514812282747L578.8889769324912,395.1338215343212L578.7382311371288,391.0596665722654L577.0837567762554,391.0823477659053M570.6402699418192,391.21172828503484L570.7098518222995,392.8542193251218L565.2364767130083,393.01113557952226L565.1234541727962,391.37434829539836M547.759535289535,388.89530296630574L547.5907626902452,397.945961361268L543.8802495224413,397.9294237703076L542.2322533899257,395.56313213312023L540.0583121351461,394.4996776637994L540.1469587060147,392.9535582251973M553.2793540154655,392.1210555645878L553.2763093324685,398.21990586004404L549.4278242555928,398.4923262440212L547.5907626902452,397.945961361268M561.2890775232806,391.3817876097186L561.276181585566,392.7169052052752L558.5468577746855,396.97613212968224L559.6634961011653,398.42855615360884L561.8276607218235,399.5495132557327L555.4532654314952,399.57504433825943L553.2732805758841,399.5861702442886L553.2763093324685,398.21990586004404M565.2364767130083,393.01113557952226L565.6850812086848,396.8598686176291L564.7676556901888,399.3119794780914L565.2329760492655,400.7070626581575L563.968150460564,401.2826232307574L561.8276607218235,399.5495132557327M578.8889769324912,395.1338215343212L578.985073617802,398.41982819904297L570.7369968719208,398.6162814265019L570.7098518222995,392.8542193251218M543.8802495224413,397.9294237703076L544.2833590195354,402.2001426598298L543.2092645230457,404.3790468043387L542.0477266424173,404.3189211290231L542.8155988307159,406.65429503946825L542.6536562743828,406.657017518937L539.1025630255856,406.7374263893072L539.0050470685546,402.0010982791348L538.8962912052395,396.7188504476055M570.7369968719208,398.6162814265019L570.9438551029943,400.48162168173235L568.950600909631,401.9966976685665L568.6342735026248,403.12930516402196L567.2249973121507,401.5013598005071L565.2329760492655,400.7070626581575M586.0232913227732,384.3164015832307L587.1307351191224,385.9364916795482L584.1129544489619,387.36189728378724L585.3288755679613,391.0579160435028L583.6351871457146,390.7602079584135L583.9315561189817,392.2160819796652L582.4082877788368,393.11909292839994L583.7847601680953,394.32782333464513L582.3257058235197,395.0087519174083L582.6055847661173,395.60356982587143L582.3632949164121,397.30778980238983L583.9286512600789,396.48504686680667L583.9632290796607,399.8772170702822L584.9504273289111,402.8020822624293L583.2155128371691,403.49534642371566L584.5200521371631,404.42357847006565L583.8484746376557,405.28579504313075L583.8610326118958,405.4226221086715L582.3426130031196,405.47993210387665L579.6580809930647,405.59217831728745L579.2844029944214,405.6131199297025L578.985073617802,398.41982819904297M549.4278242555928,398.4923262440212L548.3281531699399,402.0230960710943L547.7206074182014,402.0069970288214L547.7013213878953,406.5495076722889L547.2322928271318,406.5597996027809L542.8155988307159,406.65429503946825M555.4532654314952,399.57504433825943L555.5119972242193,406.3417838984933L551.6207257885301,406.4498943077002L547.7013213878953,406.5495076722889M579.2844029944214,405.6131199297025L569.8184561605582,405.9927870977799L568.6342735026248,403.12930516402196M569.8184561605582,405.9927870977799L559.6111922588877,406.2647524126303L555.5119972242193,406.3417838984933" vector-effect="non-scaling-stroke"></path></svg>