<svg xmlns="http://www.w3.org/2000/svg" version="1.2" id="root" viewBox="529.2097963176882 338.8795790982274 74.63558739228802 67.85784729107979"><g id="counties"><path id="county-05007" class="county feature" d="M537.252 341.248l3.127-.067-.298 2.429 1.145 1.176-1.046 1.372-1.257.588-5.387-.07-.826 2.185-2.404-.015-.183-1.122-.913-6.348z" vector-effect="non-scaling-stroke" fill="inherit" stroke="inherit" stroke-width="inherit"><title>Benton County</title></path><path id="county-05049" class="county feature" d="M576.3 339.938l.072 3.057-1.659.042.077 1.647-1.875.023-6.945.15-.08-4.477.448-.023 6.655-.299z" vector-effect="non-scaling-stroke" fill="inherit" stroke="inherit" stroke-width="inherit"><title>Fulton County</title></path><path id="county-05015" class="county feature" d="M544.573 341.078l4.008-.094.277-.01.149 7.106-2.683.001-1.068.005-1.675-3.291-2.355-.009-1.145-1.176.298-2.429z" vector-effect="non-scaling-stroke" fill="inherit" stroke="inherit" stroke-width="inherit"><title>Carroll County</title></path><path id="county-05135" class="county feature" d="M576.3 339.938l.63-.02 1.537 1.373.89 3.022-1.324.576.201 6.412-1.627-.795-3.705.08.369-1.124-.356-4.755 1.875-.023-.077-1.647 1.659-.042z" vector-effect="non-scaling-stroke" fill="inherit" stroke="inherit" stroke-width="inherit"><title>Sharp County</title></path><path id="county-05121" class="county feature" d="M586.09 343.792l.073 2.21-4.96-.069-1.847-1.62-.889-3.022-1.537-1.372 4.173-.22 5.074-.285.715 4.036z" vector-effect="non-scaling-stroke" fill="inherit" stroke="inherit" stroke-width="inherit"><title>Randolph County</title></path><path id="county-05009" class="county feature" d="M555.437 340.78l-.455.147.147 7.101-.81.006-5.312.046-.149-7.106z" vector-effect="non-scaling-stroke" fill="inherit" stroke="inherit" stroke-width="inherit"><title>Boone County</title></path><path id="county-05089" class="county feature" d="M560.258 340.597l-.108 4.362 1.156.265.936 1.643.081 1.875-6.378.088-.816-.802-.147-7.101.455-.148 1.21-.036z" vector-effect="non-scaling-stroke" fill="inherit" stroke="inherit" stroke-width="inherit"><title>Marion County</title></path><path id="county-05005" class="county feature" d="M565.89 340.38l.08 4.476-.476 2.438.024 1.39-1.6.03.02 1.64-1.596.028-.019-1.64-.081-1.875-.936-1.643-1.156-.265.108-4.362z" vector-effect="non-scaling-stroke" fill="inherit" stroke="inherit" stroke-width="inherit"><title>Baxter County</title></path><path id="county-05021" class="county feature" d="M589.273 339.24l5.276-.299.974-.061 1.24 1.768.343 1.815-1.763 2.03-1.946.133-.05-1.107-7.257.273.802-.342-.715-4.036z" vector-effect="non-scaling-stroke" fill="inherit" stroke="inherit" stroke-width="inherit"><title>Clay County</title></path><path id="county-05087" class="county feature" d="M546.324 348.081l.508 2.958-1.048 1.647.128 2.223-2.659-.03-3.224.242-.782-.004.151-6.227.782-2.732 1.046-1.372 2.355.009 1.675 3.29z" vector-effect="non-scaling-stroke" fill="inherit" stroke="inherit" stroke-width="inherit"><title>Madison County</title></path><path id="county-05055" class="county feature" d="M595.343 344.494l-2.563 4.038-.148.592-6.916.33.447-3.452-.073-2.21 7.257-.273.05 1.107z" vector-effect="non-scaling-stroke" fill="inherit" stroke="inherit" stroke-width="inherit"><title>Greene County</title></path><path id="county-05065" class="county feature" d="M572.915 344.707l.356 4.755-.37 1.124-2.022 1.493-1.64-1.17-2.356.018.763-1.848-2.152-1.785.476-2.438z" vector-effect="non-scaling-stroke" fill="inherit" stroke="inherit" stroke-width="inherit"><title>Izard County</title></path><path id="county-05075" class="county feature" d="M586.163 346.002l-.447 3.453-.255 1.657-2.358.046-2.493.035-2.376.108-.2-6.412 1.322-.576 1.847 1.62z" vector-effect="non-scaling-stroke" fill="inherit" stroke="inherit" stroke-width="inherit"><title>Lawrence County</title></path><path id="county-05143" class="county feature" d="M539.247 355.117l-7.959.18-.982-6.45 2.404.014.826-2.184 5.387.07 1.257-.59-.782 2.733z" vector-effect="non-scaling-stroke" fill="inherit" stroke="inherit" stroke-width="inherit"><title>Washington County</title></path><path id="county-05137" class="county feature" d="M570.879 352.079l.322 3.05-6.063.117-2.681.032-.02-1.37-.095-3.526 1.597-.027-.021-1.64 1.6-.031-.024-1.39 2.152 1.785-.763 1.848 2.357-.018z" vector-effect="non-scaling-stroke" fill="inherit" stroke="inherit" stroke-width="inherit"><title>Stone County</title></path><path id="county-05101" class="county feature" d="M549.007 348.08l5.312-.046.14 7.36-3.205.02-5.333.043-.01-.548-.127-2.223 1.048-1.647-.508-2.958z" vector-effect="non-scaling-stroke" fill="inherit" stroke="inherit" stroke-width="inherit"><title>Newton County</title></path><path id="county-05129" class="county feature" d="M562.323 348.742l.02 1.64.095 3.526-3.206.077.038 1.364-2.687.017-2.125.027-.14-7.359.811-.006.816.802z" vector-effect="non-scaling-stroke" fill="inherit" stroke="inherit" stroke-width="inherit"><title>Searcy County</title></path><path id="county-05093" class="county feature" d="M603.845 349.557l-1.483.068.715 1.354-1.713 1.538-1.94.507 1.58 1.852-1.46.951.787.881-1.975-.052.157 2.836-.186.15-.28-1.335-1.114.559-2.165.064-.296-4.916-.368-5.575 4.925-.357 3.766-.296z" vector-effect="non-scaling-stroke" fill="inherit" stroke="inherit" stroke-width="inherit"><title>Mississippi County</title></path><path id="county-05031" class="county feature" d="M594.104 348.439l.368 5.575-11.27.47-.099-3.326 2.358-.046.255-1.657 6.916-.331.148-.592z" vector-effect="non-scaling-stroke" fill="inherit" stroke="inherit" stroke-width="inherit"><title>Craighead County</title></path><path id="county-05063" class="county feature" d="M578.234 351.301l2.376-.108-.427 1.48-1.733 2.042-.07 3.45-3.195.077-3.195.075-.083-3.347-.706.16-.322-3.051 2.023-1.493 3.705-.08z" vector-effect="non-scaling-stroke" fill="inherit" stroke="inherit" stroke-width="inherit"><title>Independence County</title></path><path id="county-05067" class="county feature" d="M580.61 351.193l2.493-.035.098 3.326.235 5 .076 1.668-3.196.1-.1-1.657-1.415.196-3.582.108-.034-1.657 3.195-.077.07-3.45 1.733-2.042z" vector-effect="non-scaling-stroke" fill="inherit" stroke="inherit" stroke-width="inherit"><title>Jackson County</title></path><path id="county-05141" class="county feature" d="M562.438 353.908l.019 1.37 2.681-.032.076 6.567-3.453.044-.05-1.64-5.58.056.508-1.64-.056-3.267 2.687-.017-.038-1.364z" vector-effect="non-scaling-stroke" fill="inherit" stroke="inherit" stroke-width="inherit"><title>Van Buren County</title></path><path id="county-05047" class="county feature" d="M543.221 362.296l-1.491-.997.007 2.203-1.617-.076-.012 1.688-1.633.33-.815-.004.026-4.344.735-2.442-.796-1.643h1.344l1.06-1.89 3.224-.241z" vector-effect="non-scaling-stroke" fill="inherit" stroke="inherit" stroke-width="inherit"><title>Franklin County</title></path><path id="county-05071" class="county feature" d="M543.253 354.88l2.659.029.009.548 5.333-.042.02 2.47h-.8l.034 2.457-1.088.007.028 2.684-1.605-.2-.547-1.579-4.075 1.042z" vector-effect="non-scaling-stroke" fill="inherit" stroke="inherit" stroke-width="inherit"><title>Johnson County</title></path><path id="county-05033" class="county feature" d="M537.686 361.096l-.865 1.115-2.834.592-.983-1.68-.676.98-.696-4.537-.344-2.268 7.96-.181.781.004-1.06 1.89h-1.344l.796 1.643z" vector-effect="non-scaling-stroke" fill="inherit" stroke="inherit" stroke-width="inherit"><title>Crawford County</title></path><path id="county-05115" class="county feature" d="M554.458 355.393l2.125-.027.056 3.267-.508 1.64.116 5.465-.618.061-2.962.692-1.067-1.863-1.838-1.416-.314-.18-.028-2.683 1.088-.007-.034-2.457h.8l-.02-2.47z" vector-effect="non-scaling-stroke" fill="inherit" stroke="inherit" stroke-width="inherit"><title>Pope County</title></path><path id="county-05023" class="county feature" d="M571.201 355.13l.706-.16.083 3.347-.725 3.347-3.918.083-2.133.066-.076-6.567z" vector-effect="non-scaling-stroke" fill="inherit" stroke="inherit" stroke-width="inherit"><title>Cleburne County</title></path><path id="county-05111" class="county feature" d="M594.472 354.014l.296 4.916-3.246.132-8.086.422-.235-5z" vector-effect="non-scaling-stroke" fill="inherit" stroke="inherit" stroke-width="inherit"><title>Poinsett County</title></path><path id="county-05145" class="county feature" d="M575.185 358.242l.034 1.657 3.582-.108-1.09 1.216.689 2.459-1.064 2.99-1.8.049.043 1.25-2.032-.605-1.273.653-3.217-.727-1.606.253-.104-5.582 3.918-.083.725-3.347z" vector-effect="non-scaling-stroke" fill="inherit" stroke="inherit" stroke-width="inherit"><title>White County</title></path><path id="county-05029" class="county feature" d="M561.761 361.857l-.93 4.844-2.407.874-4.933.058 2.138-1.834.618-.06-.116-5.466 5.58-.056z" vector-effect="non-scaling-stroke" fill="inherit" stroke="inherit" stroke-width="inherit"><title>Conway County</title></path><path id="county-05131" class="county feature" d="M537.686 361.096l-.026 4.344.815.004-.01 1.375-1.641.81-1.238.41-.075 2.084-3.29.709.096-8.42.01-.308.677-.98.983 1.68 2.834-.593z" vector-effect="non-scaling-stroke" fill="inherit" stroke="inherit" stroke-width="inherit"><title>Sebastian County</title></path><path id="county-05037" class="county feature" d="M591.522 359.062l.313 5.596-8.164.375-.16-3.881-.075-1.668z" vector-effect="non-scaling-stroke" fill="inherit" stroke="inherit" stroke-width="inherit"><title>Cross County</title></path><path id="county-05147" class="county feature" d="M583.512 361.152l.16 3.88.1 2.774-1.578.05-2.153.438-1.076 1.416-.056-2.607-1.573-.646 1.064-2.991-.69-2.46 1.091-1.215 1.416-.196.099 1.657z" vector-effect="non-scaling-stroke" fill="inherit" stroke="inherit" stroke-width="inherit"><title>Woodruff County</title></path><path id="county-05035" class="county feature" d="M594.768 358.93l2.165-.064 1.08.892-1.002 2.482 1.225.56.2 1.543-1.56.495-.522 1.781-1.422.66 1.09 1.248-.86 1.3-1.545.599-.09-1.338-.15-4.595-1.542.165-.313-5.596z" vector-effect="non-scaling-stroke" fill="inherit" stroke="inherit" stroke-width="inherit"><title>Crittenden County</title></path><path id="county-05083" class="county feature" d="M543.221 362.296l4.075-1.042.547 1.58 1.605.199.314.18.035 1.964-2.677.025-1.067 1.354-2.674.264.08 2.17-5.602-.014-1.033-1.348 1.641-.809.01-1.375 1.633-.33.012-1.688 1.617.076-.007-2.203z" vector-effect="non-scaling-stroke" fill="inherit" stroke="inherit" stroke-width="inherit"><title>Logan County</title></path><path id="county-05045" class="county feature" d="M565.214 361.813l2.133-.066.104 5.582.014 1.021-1.617.023.038 1.636-4.793-.301-.843-.852.581-2.155.93-4.844z" vector-effect="non-scaling-stroke" fill="inherit" stroke="inherit" stroke-width="inherit"><title>Faulkner County</title></path><path id="county-05149" class="county feature" d="M555.63 365.8l-2.14 1.833-3.629 4.18.053 1.651-1.6.605-4.812.089-.043-5.169-.08-2.169 2.674-.264 1.067-1.354 2.677-.025-.035-1.965 1.838 1.416 1.067 1.863z" vector-effect="non-scaling-stroke" fill="inherit" stroke="inherit" stroke-width="inherit"><title>Yell County</title></path><path id="county-05123" class="county feature" d="M591.835 364.658l1.542-.165.15 4.595-10.478.436.032.838-.887-2.505 1.578-.05-.1-2.774z" vector-effect="non-scaling-stroke" fill="inherit" stroke="inherit" stroke-width="inherit"><title>Saint Francis County</title></path><path id="county-05105" class="county feature" d="M561.093 369.708l-3.147.914.25 1.069-5.079.077.034 1.623-3.237.073-.053-1.65 3.63-4.181 4.933-.058 2.407-.874-.58 2.155z" vector-effect="non-scaling-stroke" fill="inherit" stroke="inherit" stroke-width="inherit"><title>Perry County</title></path><path id="county-05127" class="county feature" d="M543.459 368.99l.043 5.168-3.315 1.577-1.355-.478-4.554-.005-2.092-.56.035-3.86 3.29-.71.075-2.083 1.238-.41 1.033 1.347z" vector-effect="non-scaling-stroke" fill="inherit" stroke="inherit" stroke-width="inherit"><title>Scott County</title></path><path id="county-05117" class="county feature" d="M577.336 366.457l1.573.646.056 2.607.112 4.646-1.088.027 1.154 1.903-3.307.075.06 1.64-1.26.034.391-2.945-.899-.628-.101-4.65-1.673.038-.08-2.047 1.273-.653 2.032.606-.042-1.251z" vector-effect="non-scaling-stroke" fill="inherit" stroke="inherit" stroke-width="inherit"><title>Prairie County</title></path><path id="county-05085" class="county feature" d="M572.274 367.803l.08 2.047 1.673-.038.101 4.65.899.628-.392 2.945-.41.006-4.962.09-.098-2.485-1.28.024.449-2.116-.112-5.227-.757.023-.014-1.021 1.606-.253z" vector-effect="non-scaling-stroke" fill="inherit" stroke="inherit" stroke-width="inherit"><title>Lonoke County</title></path><path id="county-05119" class="county feature" d="M567.465 368.35l.757-.023.112 5.227-.45 2.116 1.28-.024.1 2.485-2.72.046-.58.01-.043-1.646-1.588.03-1.507-1.628-1.667-.266-.017-1.361-1.59.004-.009-1.643-1.347.014-.25-1.069 3.147-.914 4.793.301-.038-1.636z" vector-effect="non-scaling-stroke" fill="inherit" stroke="inherit" stroke-width="inherit"><title>Pulaski County</title></path><path id="county-05095" class="county feature" d="M582.194 367.857l.887 2.505.09 2.49.857 1.638.127 3.29.828-.017.1 2.505-.824.037-.577-.107-3.348-3.445-1.19-.467-1.155-1.903 1.088-.027-.112-4.646 1.076-1.416z" vector-effect="non-scaling-stroke" fill="inherit" stroke="inherit" stroke-width="inherit"><title>Monroe County</title></path><path id="county-05077" class="county feature" d="M593.528 369.088l.09 1.338-1.2-.5.608 2.163-1.714.54 1.592.843-1.74.704-7.136.314-.857-1.637-.09-2.491-.032-.838z" vector-effect="non-scaling-stroke" fill="inherit" stroke="inherit" stroke-width="inherit"><title>Lee County</title></path><path id="county-05125" class="county feature" d="M558.196 371.69l1.347-.013.009 1.643 1.59-.004.017 1.361 1.667.266 1.507 1.629 1.588-.03.043 1.644-2.4.05.009.826-2.82.034-1.188.823-.291-1.098-1.668-.519-.28-1.625-2.648-.796.077-2.547-1.604.057-.034-1.623z" vector-effect="non-scaling-stroke" fill="inherit" stroke="inherit" stroke-width="inherit"><title>Saline County</title></path><path id="county-05051" class="county feature" d="M553.151 373.391l1.604-.057-.077 2.547 2.648.796.28 1.625-1.864.014-.428 2.217-7.02.063.02-6.527 1.6-.605z" vector-effect="non-scaling-stroke" fill="inherit" stroke="inherit" stroke-width="inherit"><title>Garland County</title></path><path id="county-05097" class="county feature" d="M548.313 374.07l-.018 6.526.013 1.08-1.077.004-6.991-.004-.053-5.94 3.315-1.578z" vector-effect="non-scaling-stroke" fill="inherit" stroke="inherit" stroke-width="inherit"><title>Montgomery County</title></path><path id="county-05113" class="county feature" d="M540.24 381.676l-4.888-.005.227 3.064-3.47.11.035-5.98.042-4.172 2.092.56 4.554.004 1.355.478z" vector-effect="non-scaling-stroke" fill="inherit" stroke="inherit" stroke-width="inherit"><title>Polk County</title></path><path id="county-05107" class="county feature" d="M591.165 374.176l.333 2.185.014 2.08-2.674 1.024.273 1.146-1.513 1.828-1.411-.326 1.798 1.662-1.974.519.012.022-2.491.127.484-.441.243-3.697.823-.037-.099-2.505-.828.016-.127-3.29z" vector-effect="non-scaling-stroke" fill="inherit" stroke="inherit" stroke-width="inherit"><title>Phillips County</title></path><path id="county-05001" class="county feature" d="M579.143 376.286l1.191.467 3.348 3.445.577.107-.243 3.697-.484.44-1.147 1.316 1.074 1.775-1.805.043-2.686-.935-.423-1.217-1.415-2.524-2.799-.178-.107-4.681.411-.006 1.26-.035-.059-1.639z" vector-effect="non-scaling-stroke" fill="inherit" stroke="inherit" stroke-width="inherit"><title>Arkansas County</title></path><path id="county-05059" class="county feature" d="M557.606 378.302l1.668.519.29 1.098.027 4.983-3.19-.012-2.142-.007-.177-1.435-4.958-.679-.816-1.093-.013-1.08 7.02-.063.427-2.217z" vector-effect="non-scaling-stroke" fill="inherit" stroke="inherit" stroke-width="inherit"><title>Hot Spring County</title></path><path id="county-05053" class="county feature" d="M565.964 378.186l.58-.009-.067 8.11-1.584.114-2.565-1.504-2.737.005-.026-4.983 1.189-.823 2.819-.034-.01-.827z" vector-effect="non-scaling-stroke" fill="inherit" stroke="inherit" stroke-width="inherit"><title>Grant County</title></path><path id="county-05069" class="county feature" d="M569.263 378.13l4.961-.09.107 4.682 2.8.178 1.414 2.524-4.399-1.56-.202 1.512-3.203.152.024.55-4.288.21.068-8.11z" vector-effect="non-scaling-stroke" fill="inherit" stroke="inherit" stroke-width="inherit"><title>Jefferson County</title></path><path id="county-05061" class="county feature" d="M540.24 381.676l.215 3.073 1.613.015.037 3.293-.015 4.914-1.943-.017-.022-.001-1.445-2.444-.85-5.786-2.251.012-.227-3.064z" vector-effect="non-scaling-stroke" fill="inherit" stroke="inherit" stroke-width="inherit"><title>Howard County</title></path><path id="county-05109" class="county feature" d="M547.231 381.68l-.3 2.393.791.139.333 2.945.979 1.702-1.274.036-1.108.28-4.547-1.118-.037-3.293-1.613-.015-.215-3.073z" vector-effect="non-scaling-stroke" fill="inherit" stroke="inherit" stroke-width="inherit"><title>Pike County</title></path><path id="county-05019" class="county feature" d="M548.308 381.676l.816 1.093 4.958.68.177 1.434 2.143.007.102 6.511-3.225.72-2.866-1.163-1.38-2.1-.978-1.7-.333-2.946-.79-.14.3-2.392z" vector-effect="non-scaling-stroke" fill="inherit" stroke="inherit" stroke-width="inherit"><title>Clark County</title></path><path id="county-05133" class="county feature" d="M540.125 392.953l-3.582-.629-4.47-2.794.036-4.684 3.47-.11 2.25-.013.851 5.786z" vector-effect="non-scaling-stroke" fill="inherit" stroke="inherit" stroke-width="inherit"><title>Sevier County</title></path><path id="county-05079" class="county feature" d="M578.545 385.424l.423 1.217-1.911.8.027 3.641-6.444.13.125-5.134-.024-.55 3.203-.152.202-1.511z" vector-effect="non-scaling-stroke" fill="inherit" stroke="inherit" stroke-width="inherit"><title>Lincoln County</title></path><path id="county-05039" class="county feature" d="M559.59 384.902l2.738-.005 2.565 1.504-2.069.126-.002 1.589 2.301 3.258-3.834.008-4.785.02-.102-6.512z" vector-effect="non-scaling-stroke" fill="inherit" stroke="inherit" stroke-width="inherit"><title>Dallas County</title></path><path id="county-05041" class="county feature" d="M586.023 384.316l1.108 1.62-3.018 1.426 1.216 3.696-1.694-.298.297 1.456-1.524.903 1.377 1.209-1.46.68-.185.843-3.251-.717-.15-4.074-1.655.022-.027-3.641 1.911-.8 2.686.935 1.805-.043-1.074-1.775 1.147-1.315z" vector-effect="non-scaling-stroke" fill="inherit" stroke="inherit" stroke-width="inherit"><title>Desha County</title></path><path id="county-05025" class="county feature" d="M570.765 386.078l-.125 5.134.07 1.642-5.474.157-.113-1.637-2.3-3.258.001-1.589 2.069-.126 1.584-.113z" vector-effect="non-scaling-stroke" fill="inherit" stroke="inherit" stroke-width="inherit"><title>Cleveland County</title></path><path id="county-05057" class="county feature" d="M547.76 388.895l-.17 9.051-3.71-.017-1.648-2.366-2.174-1.063.089-1.546 1.943.017.015-4.914 4.547 1.117z" vector-effect="non-scaling-stroke" fill="inherit" stroke="inherit" stroke-width="inherit"><title>Hempstead County</title></path><path id="county-05099" class="county feature" d="M549.034 388.859l1.38 2.1 2.865 1.162-.003 6.099-3.848.272-1.837-.546.169-9.05z" vector-effect="non-scaling-stroke" fill="inherit" stroke="inherit" stroke-width="inherit"><title>Nevada County</title></path><path id="county-05081" class="county feature" d="M540.125 392.953h.022l-.089 1.547 2.174 1.063-3.336 1.156-1.783-.673-3.522.908-1.559-1.721.042-5.703 4.47 2.794z" vector-effect="non-scaling-stroke" fill="inherit" stroke="inherit" stroke-width="inherit"><title>Little River County</title></path><path id="county-05103" class="county feature" d="M556.504 391.401l4.785-.02-.013 1.336-2.73 4.26 1.117 1.452 2.165 1.12-6.375.026-2.18.011.003-1.366.003-6.099z" vector-effect="non-scaling-stroke" fill="inherit" stroke="inherit" stroke-width="inherit"><title>Ouachita County</title></path><path id="county-05013" class="county feature" d="M565.236 393.011l.45 3.849-.918 2.452.465 1.395-1.265.576-2.14-1.733-2.165-1.121-1.116-1.453 2.73-4.26.012-1.334 3.834-.008z" vector-effect="non-scaling-stroke" fill="inherit" stroke="inherit" stroke-width="inherit"><title>Calhoun County</title></path><path id="county-05043" class="county feature" d="M577.084 391.082l1.654-.022.151 4.074.096 3.286-8.248.196-.027-5.762-.07-1.642z" vector-effect="non-scaling-stroke" fill="inherit" stroke="inherit" stroke-width="inherit"><title>Drew County</title></path><path id="county-05011" class="county feature" d="M570.71 392.854l.027 5.762.207 1.866-1.993 1.515-.317 1.132-1.409-1.628-1.992-.794-.465-1.395.917-2.452-.449-3.849z" vector-effect="non-scaling-stroke" fill="inherit" stroke="inherit" stroke-width="inherit"><title>Bradley County</title></path><path id="county-05091" class="county feature" d="M543.88 397.93l.403 4.27-1.074 2.179-1.161-.06.768 2.335-.162.003-3.551.08-.098-4.736-.109-5.282 3.336-1.156z" vector-effect="non-scaling-stroke" fill="inherit" stroke="inherit" stroke-width="inherit"><title>Miller County</title></path><path id="county-05017" class="county feature" d="M582.326 395.009l.28.595-.243 1.704 1.566-.823.034 3.392.987 2.925-1.734.693 1.304.929-.672.862.013.137-1.518.057-2.685.112-.374.021-.299-7.193-.096-3.286 3.251.717z" vector-effect="non-scaling-stroke" fill="inherit" stroke="inherit" stroke-width="inherit"><title>Chicot County</title></path><path id="county-05073" class="county feature" d="M547.59 397.946l1.838.546-1.1 3.531-.607-.016-.02 4.543-.469.01-4.416.094-.768-2.335 1.161.06 1.074-2.179-.403-4.27z" vector-effect="non-scaling-stroke" fill="inherit" stroke="inherit" stroke-width="inherit"><title>Lafayette County</title></path><path id="county-05027" class="county feature" d="M553.276 398.22l-.003 1.366 2.18-.011.059 6.767-3.891.108-3.92.1.02-4.543.607.016 1.1-3.53z" vector-effect="non-scaling-stroke" fill="inherit" stroke="inherit" stroke-width="inherit"><title>Columbia County</title></path><path id="county-05003" class="county feature" d="M578.985 398.42l.3 7.193-9.467.38-1.184-2.864.317-1.132 1.993-1.515-.207-1.866z" vector-effect="non-scaling-stroke" fill="inherit" stroke="inherit" stroke-width="inherit"><title>Ashley County</title></path><path id="county-05139" class="county feature" d="M561.828 399.55l2.14 1.733 1.265-.576 1.992.794 1.41 1.628 1.183 2.864-10.207.272-4.099.077-.059-6.767z" vector-effect="non-scaling-stroke" fill="inherit" stroke="inherit" stroke-width="inherit"><title>Union County</title></path></g><path id="counties-mesh" class="counties mesh" d="M576.3 339.938l.072 3.057-1.659.042.077 1.647-1.875.023-6.945.15-.08-4.477m-17.032.594l.149 7.106-2.683.001-1.068.005-1.675-3.291-2.355-.009m35.704-4.867l1.537 1.372.89 3.022-1.324.576.201 6.412-1.627-.795-3.705.08.369-1.124-.356-4.755m13.262-5.293l.715 4.036-.802.342.073 2.21-4.96-.069-1.847-1.62m-23.92-3.534l-.454.148.147 7.101-.81.006-5.312.046m11.251-7.483l-.108 4.362 1.156.265.936 1.643.081 1.875-6.378.088-.816-.802m10.841-3.172l-.476 2.438.024 1.39-1.6.03.02 1.64-1.596.028-.019-1.64m33.02-4.248l-1.946.132-.05-1.107-7.257.273m-39.766 4.29l.508 2.957-1.048 1.647.128 2.223-2.659-.03-3.224.242-.782-.004.151-6.227.782-2.732m52.6 2.374l-.148.592-6.916.33.447-3.452m-13.261 4.584l-2.023 1.493-1.64-1.17-2.356.018.763-1.848-2.152-1.785m20.222 2.16l-.255 1.658-2.358.046-2.493.035-2.376.108m-38.987 3.816l-7.959.18-.982-6.45m7.38 12.25l-.865 1.114-2.834.592-.983-1.68-.676.98-.696-4.537-.344-2.268m39.59-3.22l.323 3.052-6.063.116-2.681.032-.02-1.37-.095-3.526m-8.023-2.348l.14 7.36-3.205.02-5.333.043-.01-.548m16.527-1l-3.206.076.038 1.364-2.687.017-2.125.027m-14.079-14.212l-.298 2.429 1.145 1.176-1.046 1.372-1.257.588-5.387-.07-.826 2.185-2.404-.015-.183-1.122-.913-6.348 8.042-.128 3.127-.067 4.194-.103 4.008-.094.277-.01 6.579-.195 1.21-.036 3.611-.146 5.632-.217.448-.023 6.655-.299 3.307-.12.63-.02 4.173-.22 5.074-.284 3.096-.175 5.276-.298.974-.061 1.24 1.768.343 1.815-1.763 2.03-2.563 4.039 1.324-.093 4.925-.357 3.766-.296 1.05 1.771-1.483.068.715 1.354-1.713 1.538-1.94.507 1.58 1.852-1.46.951.787.881-1.975-.052.157 2.836-.186.15-.28-1.335-1.114.559-2.165.064-.296-4.916-.368-5.575m.368 5.575l-11.27.47-.099-3.326m-2.493.035l-.427 1.48-1.733 2.042-.07 3.45-3.195.077-3.195.075-.083-3.347-.706.16m12-.646l.235 5 .076 1.668-3.196.1-.1-1.657-1.415.196-3.582.108-.034-1.657m-10.047-2.996l.076 6.567-3.453.044-.05-1.64-5.58.056.508-1.64-.056-3.267m-13.33-.486l-.032 7.416-1.491-.997.007 2.203-1.617-.076-.012 1.688-1.633.33-.815-.004.026-4.344.735-2.442-.796-1.643h1.344l1.06-1.89m11.225.294l.02 2.47h-.8l.034 2.457-1.088.007.028 2.684-1.605-.2-.547-1.579-4.075 1.042m12.91-2.023l.116 5.465-.618.061-2.962.692-1.067-1.863-1.838-1.416-.314-.18m22.542-4.715l-.725 3.347-3.918.083-2.133.066m29.554-2.883l-3.246.132-8.086.422m-44.961 5.96l-.01 1.375-1.641.81-1.238.41-.075 2.084-3.29.709.096-8.42.01-.308m46.474-2.313l-1.09 1.216.689 2.459-1.064 2.99-1.8.049.043 1.25-2.032-.605-1.273.653-3.217-.727-1.606.253-.104-5.582m-5.586.11l-.93 4.844-2.407.874-4.933.058 2.138-1.834m35.893-6.737l.313 5.596-8.164.375-.16-3.881m.16 3.88l.101 2.774-1.578.05-2.153.438-1.076 1.416-.056-2.607-1.573-.646m19.597-7.591l1.08.892-1.002 2.482 1.225.56.2 1.543-1.56.495-.522 1.781-1.422.66 1.09 1.248-.86 1.3-1.545.599-.09-1.338-.15-4.595-1.542.165m-42.073-1.446l.035 1.965-2.677.025-1.067 1.354-2.674.264.08 2.17-5.602-.014-1.033-1.348m3.416 14.048l-4.888-.005.227 3.064-3.47.11.035-5.98.042-4.172.035-3.861m35.23-3.503l.014 1.021-1.617.023.038 1.636-4.793-.301-.843-.852.581-2.155m-7.34.932l-3.63 4.18.053 1.651-1.6.605-4.812.089-.043-5.169m50.069.1l-10.48.435.033.838-.887-2.505m-21.101 1.85l-3.147.915.25 1.069-5.079.077.034 1.623-3.237.073m-6.412.694l-3.315 1.577-1.355-.478-4.554-.005-2.092-.56m46.78-4.982l.11 4.646-1.087.027 1.154 1.903-3.307.075.06 1.64-1.26.034.391-2.945-.899-.628-.101-4.65-1.673.038-.08-2.047m2.361 10.232l-.41.006-4.962.09-.098-2.485-1.28.024.449-2.116-.112-5.227-.757.023m1.798 9.78l-2.718.047-.581.01-.043-1.646-1.588.03-1.507-1.628-1.667-.266-.017-1.361-1.59.004-.009-1.643-1.347.014m24.885-1.33l.09 2.492.857 1.637.127 3.29.828-.017.1 2.505-.824.037-.577-.107-3.348-3.445-1.19-.467m14.473-5.86l-1.198-.5.607 2.163-1.714.54 1.592.843-1.74.704-7.136.314m-18.064 3.696l-2.4.05.009.826-2.82.034-1.188.823-.291-1.098-1.668-.519-.28-1.625-2.648-.796.077-2.547-1.604.057m4.455 4.911l-1.864.014-.428 2.217-7.02.063.02-6.527m-.02 6.527l.014 1.08-1.077.004-6.991-.004-.053-5.94m50.978-1.56l.333 2.185.014 2.08-2.674 1.024.273 1.146-1.513 1.828-1.411-.326 1.798 1.662-1.974.519.012.022-2.491.127.484-.441.243-3.697m-.727 4.138l-1.147 1.315 1.074 1.775-1.805.043-2.686-.935-.423-1.217-1.415-2.524-2.799-.178-.107-4.681m-31.992 17.522l-3.336 1.156-1.783-.673-3.522.908-1.559-1.721.042-5.703.035-4.684m27.456-4.927l.026 4.983-3.19-.012-2.142-.007-.177-1.435-4.958-.679-.816-1.093m18.237-3.499l-.068 8.11-1.584.114-2.565-1.504-2.737.005m18.954.522l-4.399-1.56-.202 1.512-3.203.152.024.55-4.288.21m-26.237-4.612l.215 3.073 1.613.015.037 3.293-.015 4.914-1.943-.017-.022-.001-1.445-2.444-.85-5.786-2.251.012m11.652-3.055l-.3 2.393.791.139.333 2.945.979 1.702-1.274.036-1.108.28-4.547-1.118m14.297-3.167l.102 6.511-3.225.72-2.866-1.163-1.38-2.1m-8.908 4.095l-3.582-.629-4.47-2.794m46.895-2.889l-1.911.8.027 3.641-6.444.13.125-5.134m-5.872.323l-2.069.126-.002 1.589 2.301 3.258-3.834.008-4.785.02m25.822 3.607l-.186.842-3.251-.717-.15-4.074-1.655.022m-6.444.13l.07 1.642-5.474.157-.113-1.637m-17.363-2.479l-.17 9.051-3.71-.017-1.648-2.366-2.174-1.063.089-1.546m13.132-.833l-.003 6.099-3.848.272-1.837-.546m13.698-6.564l-.013 1.335-2.73 4.26 1.117 1.452 2.165 1.12-6.375.026-2.18.011.003-1.366m11.96-5.209l.45 3.849-.918 2.452.465 1.395-1.265.576-2.14-1.733m17.061-4.416l.096 3.286-8.248.196-.027-5.762m-26.83 5.075l.403 4.271-1.074 2.179-1.161-.06.768 2.335-.162.003-3.551.08-.098-4.736-.109-5.282m31.841 1.897l.207 1.866-1.993 1.515-.317 1.132-1.409-1.628-1.992-.794m20.79-16.39l1.108 1.62-3.018 1.425 1.216 3.696-1.694-.298.297 1.456-1.524.903 1.377 1.209-1.46.68.28.596-.242 1.704 1.566-.823.034 3.392.987 2.925-1.734.693 1.304.929-.672.862.013.137-1.518.057-2.685.112-.374.021-.299-7.193m-29.557.072l-1.1 3.531-.607-.016-.02 4.543-.469.01-4.416.094m12.637-7.079l.059 6.767-3.891.108-3.92.1m31.583-.937l-9.466.38-1.184-2.864m1.184 2.864l-10.207.272-4.099.077" vector-effect="non-scaling-stroke" fill="inherit" stroke="inherit" stroke-width="inherit"/></svg>