<?xml version="1.0" standalone="yes"?>
<svg xmlns="http://www.w3.org/2000/svg" version="1.2" id="root" viewBox="215.88457887623065 306.834545538061 100.68428762442437 117.66508056590112"><style>
@import url("../../css/svg.css");</style><rect id="bbox" class="bbox" x="215.88457887623065" y="306.834545538061" width="100.68428762442437" height="117.66508056590112"></rect><g id="counties"><path id="county-04017" class="county feature" d="M302.5895663413187,316.91872760778085L298.8949172035543,341.81771011190517L301.47869261949046,342.20176153864475L300.8375799235088,344.8616406054832L298.92408367278915,357.7928586847413L297.89576722686337,362.6520495035363L297.911935725923,364.31432578251895L295.8428433145684,377.23324470454077L295.34902302800083,377.1698259007078L294.7739682005937,381.07611847830685L293.13117378866696,380.6607344680374L294.2993075332464,372.7884465770255L282.9095011299323,371.05242060400394L283.6754705834877,366.15672840527384L291.6555957481746,315.1517747060069Z" style="fill: inherit; stroke: inherit; stroke-width: inherit;" vector-effect="non-scaling-stroke"><title>Navajo County</title></path><path id="county-04005" class="county feature" d="M291.6555957481746,315.1517747060069L283.6754705834877,366.15672840527384L282.23634185283413,365.8612317488671L279.590138735272,363.2959986409153L276.63340150775946,361.43503359763815L273.1327734033666,361.6038063633607L272.1492414767115,360.32064272578964L273.2110073738272,354.19278382031973L269.8268276263831,353.6145151835625L270.37544352453904,350.3072156067519L262.02828248013066,349.0425656748255L262.57146907707056,345.7861168801219L260.99062881566437,345.489215457808L261.3720391732559,343.43262173126845L259.28565538587816,343.39220422925246L258.67468888860446,342.2033654776477L254.06309290125475,340.3057794826018L251.28802450044105,336.9220919585616L248.9947487551592,336.0874637322529L249.9398349039667,330.9928561701928L250.5984225119131,329.4095780849674L250.4522320329686,326.5268604539144L252.54713340028093,325.93937079906743L253.12036311214143,324.89354372331184L256.14480653041335,323.7786603013277L259.54074893865516,323.4991327385362L262.4233988837615,321.6128052766277L262.29528761813424,319.60846167859165L263.0300506015502,318.24105302430246L263.83116851035436,314.4405925292722L265.5758587573511,311.79124660845093L265.5661459957736,310.86606466423905L281.9969155042004,313.63997511774744Z" style="fill: inherit; stroke: inherit; stroke-width: inherit;" vector-effect="non-scaling-stroke"><title>Coconino County</title></path><path id="county-04001" class="county feature" d="M316.568866500655,318.8997797047822L313.9871783517865,337.51254543794596L311.2990842421439,356.9731378310894L310.30791806162125,364.0687227446788L308.23416816036604,379.0000627083117L303.6472869379328,378.37330029230316L303.43245546911004,379.2603386078431L301.05944037608447,380.37307403882073L295.76479289856695,382.8081593394013L294.7739682005937,381.07611847830685L295.34902302800083,377.1698259007078L295.8428433145684,377.23324470454077L297.911935725923,364.31432578251895L297.89576722686337,362.6520495035363L298.92408367278915,357.7928586847413L300.8375799235088,344.8616406054832L301.47869261949046,342.20176153864475L298.8949172035543,341.81771011190517L302.5895663413187,316.91872760778085Z" style="fill: inherit; stroke: inherit; stroke-width: inherit;" vector-effect="non-scaling-stroke"><title>Apache County</title></path><path id="county-04025" class="county feature" d="M272.1492414767115,360.32064272578964L270.3160724844463,361.65374371011626L268.78650190426754,365.886159974282L272.337605396634,366.4772051751695L271.6199978923071,369.2459074867576L268.1270051633337,368.665977693748L261.6248858705394,366.64321108064803L259.40409273448904,369.4254148962334L252.680970821596,366.0005103707538L243.77853055457496,364.40049377519995L244.87171645167103,358.50333881783104L248.9947487551592,336.0874637322529L251.28802450044105,336.9220919585616L254.06309290125475,340.3057794826018L258.67468888860446,342.2033654776477L259.28565538587816,343.39220422925246L261.3720391732559,343.43262173126845L260.99062881566437,345.489215457808L262.57146907707056,345.7861168801219L262.02828248013066,349.0425656748255L270.37544352453904,350.3072156067519L269.8268276263831,353.6145151835625L273.2110073738272,354.19278382031973Z" style="fill: inherit; stroke: inherit; stroke-width: inherit;" vector-effect="non-scaling-stroke"><title>Yavapai County</title></path><path id="county-04007" class="county feature" d="M283.6754705834877,366.15672840527384L282.9095011299323,371.05242060400394L294.2993075332464,372.7884465770255L293.13117378866696,380.6607344680374L292.8247032412942,382.72610103263696L290.2400077881439,382.36269297495187L285.8120795718728,383.3225571597551L285.1988392009189,386.73791593186763L282.1939466658494,387.2777784240144L279.46687619664056,389.83895031882014L277.72055297940926,384.51236227166214L276.9360006022356,380.2765420561849L275.83487402383685,376.0712180112572L274.52959097361185,377.2750775830283L272.5009628853152,374.1511523933548L272.9390770112574,372.9090774729701L271.6199978923071,369.2459074867576L272.337605396634,366.4772051751695L268.78650190426754,365.886159974282L270.3160724844463,361.65374371011626L272.1492414767115,360.32064272578964L273.1327734033666,361.6038063633607L276.63340150775946,361.43503359763815L279.590138735272,363.2959986409153L282.23634185283413,365.8612317488671Z" style="fill: inherit; stroke: inherit; stroke-width: inherit;" vector-effect="non-scaling-stroke"><title>Gila County</title></path><path id="county-04012" class="county feature" d="M244.87171645167103,358.50333881783104L243.77853055457496,364.40049377519995L241.65763389387456,375.9003553337909L232.15643164248462,374.1127054705943L232.46356619492587,372.5065796062653L227.7487233750727,371.61654425247445L226.18010441693838,379.6183491271712L222.4089510805602,378.94209049363667L220.05540306729733,378.2081098148608L219.7157889436295,377.22738340991293L220.83264865562506,373.96075035297906L220.12688386348236,373.2022029711667L220.6245766937733,371.30567786971426L222.21803256694585,371.04203450610873L224.1804625655015,369.2186917456388L225.12546348076927,366.633027386339L225.3842311350109,362.2942928807031L227.24391861641442,360.7034073345419L227.51600223187438,359.6041722481734L230.4941283788787,358.546473306616L232.71880949917977,356.4886730092194L234.08939743473002,357.56609814549734L240.46053734245515,359.37899213118396L242.1063653455733,358.14176212116035Z" style="fill: inherit; stroke: inherit; stroke-width: inherit;" vector-effect="non-scaling-stroke"><title>La Paz County</title></path><path id="county-04013" class="county feature" d="M271.6199978923071,369.2459074867576L272.9390770112574,372.9090774729701L272.5009628853152,374.1511523933548L274.52959097361185,377.2750775830283L275.83487402383685,376.0712180112572L276.9360006022356,380.2765420561849L268.68068798559955,378.93816448387565L267.8485165451679,383.7641247070583L260.2847337298705,382.5120397444264L258.6369310145611,380.58922493037016L256.11656250796216,395.09787673709366L238.68385318801762,392.02469889877636L241.65763389387456,375.9003553337909L243.77853055457496,364.40049377519995L252.680970821596,366.0005103707538L259.40409273448904,369.4254148962334L261.6248858705394,366.64321108064803L268.1270051633337,368.665977693748Z" style="fill: inherit; stroke: inherit; stroke-width: inherit;" vector-effect="non-scaling-stroke"><title>Maricopa County</title></path><path id="county-04011" class="county feature" d="M308.23416816036604,379.0000627083117L306.76907175075496,389.6055198599323L305.6598118508173,397.63516778045494L304.75144549691925,404.1694797847198L303.7198826583316,404.0296575596534L302.2802677460875,401.6106339034126L303.0134617935547,398.07314914090284L302.00177590144006,397.3381722428346L299.53100336809496,391.06477345212124L301.05944037608447,380.37307403882073L303.43245546911004,379.2603386078431L303.6472869379328,378.37330029230316Z" style="fill: inherit; stroke: inherit; stroke-width: inherit;" vector-effect="non-scaling-stroke"><title>Greenlee County</title></path><path id="county-04009" class="county feature" d="M301.05944037608447,380.37307403882073L299.53100336809496,391.06477345212124L302.00177590144006,397.3381722428346L303.0134617935547,398.07314914090284L302.2802677460875,401.6106339034126L303.7198826583316,404.0296575596534L282.9773295138898,400.97799639699906L283.22315583057525,399.37372919997836L285.1988392009189,386.73791593186763L285.8120795718728,383.3225571597551L290.2400077881439,382.36269297495187L292.8247032412942,382.72610103263696L293.13117378866696,380.6607344680374L294.7739682005937,381.07611847830685L295.76479289856695,382.8081593394013Z" style="fill: inherit; stroke: inherit; stroke-width: inherit;" vector-effect="non-scaling-stroke"><title>Graham County</title></path><path id="county-04027" class="county feature" d="M241.65763389387456,375.9003553337909L238.68385318801762,392.02469889877636L237.10247232542912,400.6303906751815L215.88457887623065,387.84460088628555L216.40415404685825,385.59671001944L218.16011706908762,383.99702027836065L221.24751032642706,383.8732328144781L222.7786561247906,381.2865735457649L222.4089510805602,378.94209049363667L226.18010441693838,379.6183491271712L227.7487233750727,371.61654425247445L232.46356619492587,372.5065796062653L232.15643164248462,374.1127054705943Z" style="fill: inherit; stroke: inherit; stroke-width: inherit;" vector-effect="non-scaling-stroke"><title>Yuma County</title></path><path id="county-04021" class="county feature" d="M276.9360006022356,380.2765420561849L277.72055297940926,384.51236227166214L279.46687619664056,389.83895031882014L282.1939466658494,387.2777784240144L285.1988392009189,386.73791593186763L283.22315583057525,399.37372919997836L272.3010759051987,397.69330529464787L272.2701594059727,397.88552381357135L256.11656250796216,395.09787673709366L258.6369310145611,380.58922493037016L260.2847337298705,382.5120397444264L267.8485165451679,383.7641247070583L268.68068798559955,378.93816448387565Z" style="fill: inherit; stroke: inherit; stroke-width: inherit;" vector-effect="non-scaling-stroke"><title>Pinal County</title></path><path id="county-04019" class="county feature" d="M283.22315583057525,399.37372919997836L282.9773295138898,400.97799639699906L280.99287537118624,413.8911060831589L269.8463545900308,412.24021160939697L269.24383100991906,416.02032561309375L266.06814127900606,415.51603919402373L265.7805523719693,417.2792667919632L237.10247232542912,400.6303906751815L238.68385318801762,392.02469889877636L256.11656250796216,395.09787673709366L272.2701594059727,397.88552381357135L272.3010759051987,397.69330529464787Z" style="fill: inherit; stroke: inherit; stroke-width: inherit;" vector-effect="non-scaling-stroke"><title>Pima County</title></path><path id="county-04003" class="county feature" d="M303.7198826583316,404.0296575596534L304.75144549691925,404.1694797847198L301.9025378375336,424.4996261039621L279.7310881619969,421.2591415743491L280.99287537118624,413.8911060831589L282.9773295138898,400.97799639699906Z" style="fill: inherit; stroke: inherit; stroke-width: inherit;" vector-effect="non-scaling-stroke"><title>Cochise County</title></path><path id="county-04023" class="county feature" d="M280.99287537118624,413.8911060831589L279.7310881619969,421.2591415743491L270.0756386084212,419.7559053799431L265.7805523719693,417.2792667919632L266.06814127900606,415.51603919402373L269.24383100991906,416.02032561309375L269.8463545900308,412.24021160939697Z" style="fill: inherit; stroke: inherit; stroke-width: inherit;" vector-effect="non-scaling-stroke"><title>Santa Cruz County</title></path><path id="county-04015" class="county feature" d="M265.5661459957736,310.86606466423905L265.5758587573511,311.79124660845093L263.83116851035436,314.4405925292722L263.0300506015502,318.24105302430246L262.29528761813424,319.60846167859165L262.4233988837615,321.6128052766277L259.54074893865516,323.4991327385362L256.14480653041335,323.7786603013277L253.12036311214143,324.89354372331184L252.54713340028093,325.93937079906743L250.4522320329686,326.5268604539144L250.5984225119131,329.4095780849674L249.9398349039667,330.9928561701928L248.9947487551592,336.0874637322529L244.87171645167103,358.50333881783104L242.1063653455733,358.14176212116035L240.46053734245515,359.37899213118396L234.08939743473002,357.56609814549734L232.71880949917977,356.4886730092194L230.21242738736572,353.1588020734316L229.30841427510995,350.19418945537814L229.17599031899852,347.9200440587682L227.3662502366762,344.57715913705556L227.83322951095653,342.14191615883146L228.00566563363589,340.2410311623312L229.38392156414835,339.353911015755L229.59647175053755,336.24149004787625L229.0751679413437,332.5575483640333L229.91880116898807,326.22431468646005L230.024599883622,321.74113838493395L232.06919458182654,321.0614332751617L235.88541486054766,321.80554632593476L237.42957209618066,324.5998385040739L238.64276359979635,324.63591294976584L240.85671139851263,321.7960812693111L243.07456037997355,309.7477879689043L243.62918336120197,306.834545538061L260.3503546278894,309.9450959026227Z" style="fill: inherit; stroke: inherit; stroke-width: inherit;" vector-effect="non-scaling-stroke"><title>Mohave County</title></path></g><path id="counties-mesh" class="counties mesh" d="M302.5895663413187,316.91872760778085L298.8949172035543,341.81771011190517L301.47869261949046,342.20176153864475L300.8375799235088,344.8616406054832L298.92408367278915,357.7928586847413L297.89576722686337,362.6520495035363L297.911935725923,364.31432578251895L295.8428433145684,377.23324470454077L295.34902302800083,377.1698259007078L294.7739682005937,381.07611847830685L293.13117378866696,380.6607344680374L294.2993075332464,372.7884465770255L282.9095011299323,371.05242060400394L283.6754705834877,366.15672840527384L291.6555957481746,315.1517747060069M283.6754705834877,366.15672840527384L282.23634185283413,365.8612317488671L279.590138735272,363.2959986409153L276.63340150775946,361.43503359763815L273.1327734033666,361.6038063633607L272.1492414767115,360.32064272578964L273.2110073738272,354.19278382031973L269.8268276263831,353.6145151835625L270.37544352453904,350.3072156067519L262.02828248013066,349.0425656748255L262.57146907707056,345.7861168801219L260.99062881566437,345.489215457808L261.3720391732559,343.43262173126845L259.28565538587816,343.39220422925246L258.67468888860446,342.2033654776477L254.06309290125475,340.3057794826018L251.28802450044105,336.9220919585616L248.9947487551592,336.0874637322529L249.9398349039667,330.9928561701928L250.5984225119131,329.4095780849674L250.4522320329686,326.5268604539144L252.54713340028093,325.93937079906743L253.12036311214143,324.89354372331184L256.14480653041335,323.7786603013277L259.54074893865516,323.4991327385362L262.4233988837615,321.6128052766277L262.29528761813424,319.60846167859165L263.0300506015502,318.24105302430246L263.83116851035436,314.4405925292722L265.5758587573511,311.79124660845093L265.5661459957736,310.86606466423905M243.77853055457496,364.40049377519995L241.65763389387456,375.9003553337909L232.15643164248462,374.1127054705943L232.46356619492587,372.5065796062653L227.7487233750727,371.61654425247445L226.18010441693838,379.6183491271712L222.4089510805602,378.94209049363667L220.05540306729733,378.2081098148608L219.7157889436295,377.22738340991293L220.83264865562506,373.96075035297906L220.12688386348236,373.2022029711667L220.6245766937733,371.30567786971426L222.21803256694585,371.04203450610873L224.1804625655015,369.2186917456388L225.12546348076927,366.633027386339L225.3842311350109,362.2942928807031L227.24391861641442,360.7034073345419L227.51600223187438,359.6041722481734L230.4941283788787,358.546473306616L232.71880949917977,356.4886730092194L230.21242738736572,353.1588020734316L229.30841427510995,350.19418945537814L229.17599031899852,347.9200440587682L227.3662502366762,344.57715913705556L227.83322951095653,342.14191615883146L228.00566563363589,340.2410311623312L229.38392156414835,339.353911015755L229.59647175053755,336.24149004787625L229.0751679413437,332.5575483640333L229.91880116898807,326.22431468646005L230.024599883622,321.74113838493395L232.06919458182654,321.0614332751617L235.88541486054766,321.80554632593476L237.42957209618066,324.5998385040739L238.64276359979635,324.63591294976584L240.85671139851263,321.7960812693111L243.07456037997355,309.7477879689043L243.62918336120197,306.834545538061L260.3503546278894,309.9450959026227L265.5661459957736,310.86606466423905L281.9969155042004,313.63997511774744L291.6555957481746,315.1517747060069L302.5895663413187,316.91872760778085L316.568866500655,318.8997797047822L313.9871783517865,337.51254543794596L311.2990842421439,356.9731378310894L310.30791806162125,364.0687227446788L308.23416816036604,379.0000627083117L303.6472869379328,378.37330029230316L303.43245546911004,379.2603386078431L301.05944037608447,380.37307403882073L295.76479289856695,382.8081593394013L294.7739682005937,381.07611847830685M272.1492414767115,360.32064272578964L270.3160724844463,361.65374371011626L268.78650190426754,365.886159974282L272.337605396634,366.4772051751695L271.6199978923071,369.2459074867576L268.1270051633337,368.665977693748L261.6248858705394,366.64321108064803L259.40409273448904,369.4254148962334L252.680970821596,366.0005103707538L243.77853055457496,364.40049377519995L244.87171645167103,358.50333881783104L248.9947487551592,336.0874637322529M293.13117378866696,380.6607344680374L292.8247032412942,382.72610103263696L290.2400077881439,382.36269297495187L285.8120795718728,383.3225571597551L285.1988392009189,386.73791593186763L282.1939466658494,387.2777784240144L279.46687619664056,389.83895031882014L277.72055297940926,384.51236227166214L276.9360006022356,380.2765420561849L275.83487402383685,376.0712180112572L274.52959097361185,377.2750775830283L272.5009628853152,374.1511523933548L272.9390770112574,372.9090774729701L271.6199978923071,369.2459074867576M232.71880949917977,356.4886730092194L234.08939743473002,357.56609814549734L240.46053734245515,359.37899213118396L242.1063653455733,358.14176212116035L244.87171645167103,358.50333881783104M276.9360006022356,380.2765420561849L268.68068798559955,378.93816448387565L267.8485165451679,383.7641247070583L260.2847337298705,382.5120397444264L258.6369310145611,380.58922493037016L256.11656250796216,395.09787673709366L238.68385318801762,392.02469889877636L241.65763389387456,375.9003553337909M308.23416816036604,379.0000627083117L306.76907175075496,389.6055198599323L305.6598118508173,397.63516778045494L304.75144549691925,404.1694797847198L303.7198826583316,404.0296575596534L302.2802677460875,401.6106339034126L303.0134617935547,398.07314914090284L302.00177590144006,397.3381722428346L299.53100336809496,391.06477345212124L301.05944037608447,380.37307403882073M303.7198826583316,404.0296575596534L282.9773295138898,400.97799639699906L283.22315583057525,399.37372919997836L285.1988392009189,386.73791593186763M238.68385318801762,392.02469889877636L237.10247232542912,400.6303906751815L215.88457887623065,387.84460088628555L216.40415404685825,385.59671001944L218.16011706908762,383.99702027836065L221.24751032642706,383.8732328144781L222.7786561247906,381.2865735457649L222.4089510805602,378.94209049363667M283.22315583057525,399.37372919997836L272.3010759051987,397.69330529464787L272.2701594059727,397.88552381357135L256.11656250796216,395.09787673709366M282.9773295138898,400.97799639699906L280.99287537118624,413.8911060831589L269.8463545900308,412.24021160939697L269.24383100991906,416.02032561309375L266.06814127900606,415.51603919402373L265.7805523719693,417.2792667919632L237.10247232542912,400.6303906751815M304.75144549691925,404.1694797847198L301.9025378375336,424.4996261039621L279.7310881619969,421.2591415743491L280.99287537118624,413.8911060831589M279.7310881619969,421.2591415743491L270.0756386084212,419.7559053799431L265.7805523719693,417.2792667919632" style="fill: inherit; stroke: inherit; stroke-width: inherit;" vector-effect="non-scaling-stroke"></path></svg>