<svg xmlns="http://www.w3.org/2000/svg" version="1.2" id="root" viewBox="215.88457887623065 306.834545538061 100.68428762442437 117.66508056590112"><g id="counties"><path id="county-04017" class="county feature" d="M302.59 316.919l-3.695 24.899 2.584.384-.641 2.66-1.914 12.93-1.028 4.86.016 1.662-2.07 12.92-.493-.064-.575 3.906-1.643-.415 1.168-7.873-11.39-1.736.766-4.895 7.98-51.005z" vector-effect="non-scaling-stroke" fill="inherit" stroke="inherit" stroke-width="inherit"><title>Navajo County</title></path><path id="county-04005" class="county feature" d="M291.656 315.152l-7.98 51.005-1.44-.296-2.646-2.565-2.957-1.861-3.5.169-.984-1.283 1.062-6.128-3.384-.578.548-3.308-8.347-1.264.543-3.257-1.58-.297.381-2.056-2.086-.04-.611-1.19-4.612-1.897-2.775-3.384-2.293-.835.945-5.094.658-1.583-.146-2.883 2.095-.588.573-1.045 3.025-1.115 3.396-.28 2.882-1.886-.128-2.005.735-1.367.801-3.8 1.745-2.65-.01-.925 16.43 2.774z" vector-effect="non-scaling-stroke" fill="inherit" stroke="inherit" stroke-width="inherit"><title>Coconino County</title></path><path id="county-04001" class="county feature" d="M316.569 318.9l-2.582 18.613-2.688 19.46-.991 7.096L308.234 379l-4.587-.627-.215.887-2.373 1.113-5.294 2.435-.991-1.732.575-3.906.494.063 2.069-12.919-.016-1.662 1.028-4.86 1.914-12.93.64-2.66-2.583-.384 3.695-24.9z" vector-effect="non-scaling-stroke" fill="inherit" stroke="inherit" stroke-width="inherit"><title>Apache County</title></path><path id="county-04025" class="county feature" d="M272.15 360.32l-1.834 1.334-1.53 4.232 3.552.591-.718 2.769-3.493-.58-6.502-2.023-2.22 2.782-6.724-3.424-8.902-1.6 1.093-5.898 4.123-22.416 2.293.835 2.775 3.384 4.612 1.897.61 1.19 2.087.04-.381 2.056 1.58.297-.543 3.257 8.347 1.264-.548 3.308 3.384.578z" vector-effect="non-scaling-stroke" fill="inherit" stroke="inherit" stroke-width="inherit"><title>Yavapai County</title></path><path id="county-04007" class="county feature" d="M283.675 366.157l-.765 4.895 11.39 1.736-1.169 7.873-.306 2.065-2.585-.363-4.428.96-.613 3.415-3.005.54-2.727 2.561-1.746-5.327-.785-4.235-1.101-4.206-1.305 1.204-2.029-3.124.438-1.242-1.319-3.663.718-2.769-3.551-.59 1.53-4.233 1.832-1.333.984 1.283 3.5-.169 2.957 1.861 2.646 2.565z" vector-effect="non-scaling-stroke" fill="inherit" stroke="inherit" stroke-width="inherit"><title>Gila County</title></path><path id="county-04012" class="county feature" d="M244.872 358.503l-1.093 5.897-2.121 11.5-9.502-1.787.308-1.606-4.715-.89-1.569 8.001-3.771-.676-2.354-.734-.34-.98 1.118-3.267-.706-.759.498-1.896 1.593-.264 1.962-1.823.945-2.586.26-4.339 1.859-1.59.272-1.1 2.978-1.058 2.225-2.057 1.37 1.077 6.372 1.813 1.645-1.237z" vector-effect="non-scaling-stroke" fill="inherit" stroke="inherit" stroke-width="inherit"><title>La Paz County</title></path><path id="county-04013" class="county feature" d="M271.62 369.246l1.32 3.663-.439 1.242 2.029 3.124 1.305-1.204 1.101 4.206-8.255-1.339-.832 4.826-7.564-1.252-1.648-1.923-2.52 14.509-17.433-3.073 2.974-16.125 2.12-11.5 8.903 1.6 6.723 3.425 2.22-2.782 6.503 2.023z" vector-effect="non-scaling-stroke" fill="inherit" stroke="inherit" stroke-width="inherit"><title>Maricopa County</title></path><path id="county-04011" class="county feature" d="M308.234 379l-1.465 10.606-1.11 8.03-.908 6.533-1.031-.14-1.44-2.418.733-3.538-1.011-.735-2.471-6.273 1.528-10.692 2.373-1.113.215-.887z" vector-effect="non-scaling-stroke" fill="inherit" stroke="inherit" stroke-width="inherit"><title>Greenlee County</title></path><path id="county-04009" class="county feature" d="M301.06 380.373l-1.529 10.692 2.47 6.273 1.012.735-.733 3.538 1.44 2.419-20.743-3.052.246-1.604 1.976-12.636.613-3.415 4.428-.96 2.585.363.306-2.065 1.643.415.99 1.732z" vector-effect="non-scaling-stroke" fill="inherit" stroke="inherit" stroke-width="inherit"><title>Graham County</title></path><path id="county-04027" class="county feature" d="M241.658 375.9l-2.974 16.125-1.582 8.605-21.217-12.785.52-2.248 1.755-1.6 3.088-.124 1.53-2.586-.369-2.345 3.771.676 1.569-8.001 4.715.89-.308 1.606z" vector-effect="non-scaling-stroke" fill="inherit" stroke="inherit" stroke-width="inherit"><title>Yuma County</title></path><path id="county-04021" class="county feature" d="M276.936 380.277l.785 4.235 1.746 5.327 2.727-2.561 3.005-.54-1.976 12.636-10.922-1.68-.03.192-16.154-2.788 2.52-14.509 1.648 1.923 7.564 1.252.832-4.826z" vector-effect="non-scaling-stroke" fill="inherit" stroke="inherit" stroke-width="inherit"><title>Pinal County</title></path><path id="county-04019" class="county feature" d="M283.223 399.374l-.246 1.604-1.984 12.913-11.147-1.65-.602 3.78-3.176-.505-.287 1.763-28.679-16.649 1.582-8.605 17.433 3.073 16.153 2.788.031-.193z" vector-effect="non-scaling-stroke" fill="inherit" stroke="inherit" stroke-width="inherit"><title>Pima County</title></path><path id="county-04003" class="county feature" d="M303.72 404.03l1.031.14-2.848 20.33-22.172-3.24 1.262-7.369 1.984-12.913z" vector-effect="non-scaling-stroke" fill="inherit" stroke="inherit" stroke-width="inherit"><title>Cochise County</title></path><path id="county-04023" class="county feature" d="M280.993 413.891l-1.262 7.368-9.655-1.503-4.295-2.477.287-1.763 3.176.504.602-3.78z" vector-effect="non-scaling-stroke" fill="inherit" stroke="inherit" stroke-width="inherit"><title>Santa Cruz County</title></path><path id="county-04015" class="county feature" d="M265.566 310.866l.01.925-1.745 2.65-.8 3.8-.736 1.367.128 2.005-2.882 1.886-3.396.28-3.025 1.115-.573 1.045-2.095.588.146 2.883-.658 1.583-.945 5.094-4.123 22.416-2.766-.361-1.645 1.237-6.372-1.813-1.37-1.077-2.507-3.33-.904-2.965-.132-2.274-1.81-3.343.467-2.435.173-1.901 1.378-.887.212-3.113-.52-3.683.843-6.334.106-4.483 2.044-.68 3.816.745 1.545 2.794 1.213.036 2.214-2.84 2.218-12.048.554-2.913 16.721 3.11z" vector-effect="non-scaling-stroke" fill="inherit" stroke="inherit" stroke-width="inherit"><title>Mohave County</title></path></g><path id="counties-mesh" class="counties mesh" d="M302.59 316.919l-3.695 24.899 2.584.384-.641 2.66-1.914 12.93-1.028 4.86.016 1.662-2.07 12.92-.493-.064-.575 3.906-1.643-.415 1.168-7.873-11.39-1.736.766-4.895 7.98-51.005m-7.98 51.005l-1.439-.296-2.646-2.565-2.957-1.861-3.5.169-.984-1.283 1.062-6.128-3.384-.578.548-3.308-8.347-1.264.543-3.257-1.58-.297.381-2.056-2.086-.04-.611-1.19-4.612-1.897-2.775-3.384-2.293-.835.945-5.094.658-1.583-.146-2.883 2.095-.588.573-1.045 3.025-1.115 3.396-.28 2.882-1.886-.128-2.005.735-1.367.801-3.8 1.745-2.65-.01-.925M243.78 364.4l-2.121 11.5-9.502-1.787.308-1.606-4.715-.89-1.569 8.001-3.771-.676-2.354-.734-.34-.98 1.118-3.267-.706-.759.498-1.896 1.593-.264 1.962-1.823.945-2.586.26-4.339 1.859-1.59.272-1.1 2.978-1.058 2.225-2.057-2.507-3.33-.904-2.965-.132-2.274-1.81-3.343.467-2.435.173-1.901 1.378-.887.212-3.113-.52-3.683.843-6.334.106-4.483 2.044-.68 3.816.745 1.545 2.794 1.213.036 2.214-2.84 2.218-12.048.554-2.913 16.721 3.11 5.216.921 16.43 2.774 9.66 1.512 10.934 1.767 13.979 1.98-2.582 18.614-2.688 19.46-.991 7.096L308.234 379l-4.587-.627-.215.887-2.373 1.113-5.294 2.435-.991-1.732m-22.625-20.755l-1.833 1.333-1.53 4.232 3.552.591-.718 2.769-3.493-.58-6.502-2.023-2.22 2.782-6.724-3.424-8.902-1.6 1.093-5.898 4.123-22.416m44.136 44.574l-.306 2.065-2.585-.363-4.428.96-.613 3.415-3.005.54-2.727 2.561-1.746-5.327-.785-4.235-1.101-4.206-1.305 1.204-2.029-3.124.438-1.242-1.319-3.663m-38.901-12.757l1.37 1.077 6.372 1.813 1.645-1.237 2.766.361m32.064 21.774l-8.255-1.339-.832 4.826-7.564-1.252-1.648-1.923-2.52 14.509-17.433-3.073 2.974-16.125m66.576 3.1l-1.465 10.606-1.11 8.03-.908 6.533-1.031-.14-1.44-2.418.733-3.538-1.011-.735-2.471-6.273 1.528-10.692m2.66 23.657l-20.742-3.052.246-1.604 1.976-12.636m-46.515 5.287l-1.582 8.605-21.217-12.785.52-2.248 1.755-1.6 3.088-.124 1.53-2.586-.369-2.345m60.814 20.432l-10.922-1.68-.03.192-16.154-2.788m26.86 5.88l-1.984 12.913-11.147-1.65-.602 3.78-3.176-.505-.287 1.763-28.679-16.649m67.65 3.54l-2.85 20.33-22.17-3.24 1.26-7.369m-1.26 7.368l-9.656-1.503-4.295-2.477" vector-effect="non-scaling-stroke" fill="inherit" stroke="inherit" stroke-width="inherit"/></svg>