<?xml version="1.0" standalone="yes"?>
<svg xmlns="http://www.w3.org/2000/svg" version="1.2" id="root" viewBox="113.96788464417733 180.61436534891607 118.75092485500244 203.38265492944458"><style>
@import url("../../css/svg.css");</style><rect id="bbox" class="bbox" x="113.96788464417733" y="180.61436534891607" width="118.75092485500244" height="203.38265492944458"></rect><g id="counties"><path id="county-06093" class="county feature" d="M151.0298718158034,187.9351810796394L162.15843383035968,191.24153201410002L158.12023056247614,206.01840944467642L143.99332566477807,202.07572796991792L144.9525704389494,199.65027159367355L143.9805883530289,198.43878593133127L140.03244001858542,200.534090806295L138.90339579752617,200.17063728742642L137.2613549190442,201.5126200676233L137.38526021567105,203.86530061224983L135.83126543014436,203.2086172425702L134.83681174094949,201.44909480168576L133.5014776510257,201.12272011963L131.80007368713672,198.57579563269155L131.90990282024603,194.92384861413973L129.50673361693464,193.91955097695802L130.3099678464979,193.1668916509252L129.92949151426177,189.9249563531722L131.1692398468697,188.3002490485677L131.37055988931365,185.71035218446502L133.6077685502342,184.9063277073734L134.7477605107099,183.33478297475165L138.56224690877815,184.40582758589494Z" style="fill: inherit; stroke: inherit; stroke-width: inherit;" vector-effect="non-scaling-stroke"><title>Siskiyou County</title></path><path id="county-06015" class="county feature" d="M134.7477605107099,183.33478297475165L133.6077685502342,184.9063277073734L131.37055988931365,185.71035218446502L131.1692398468697,188.3002490485677L129.92949151426177,189.9249563531722L130.3099678464979,193.1668916509252L129.50673361693464,193.91955097695802L128.05338808823984,193.5022995107347L128.49686488439875,191.97604359488423L124.5848468590221,190.81063431324242L124.807330157806,185.50727799342553L123.80385368905581,184.34225728321496L125.5822539835043,180.61436534891607L130.7101350489056,182.23147645533106Z" style="fill: inherit; stroke: inherit; stroke-width: inherit;" vector-effect="non-scaling-stroke"><title>Del Norte County</title></path><path id="county-06049" class="county feature" d="M169.6925550773899,193.35642899581353L181.43169445561847,196.42455346316615L177.6097874498509,211.1972716096475L159.67141145553933,206.43557902792486L158.12023056247614,206.01840944467642L162.15843383035968,191.24153201410002Z" style="fill: inherit; stroke: inherit; stroke-width: inherit;" vector-effect="non-scaling-stroke"><title>Modoc County</title></path><path id="county-06023" class="county feature" d="M129.50673361693464,193.91955097695802L131.90990282024603,194.92384861413973L131.80007368713672,198.57579563269155L130.53903826164617,200.39466975874768L131.0054849670134,201.28965005385646L129.39344910107297,203.06781571861472L127.62614293744923,202.2102635505637L127.60607677651518,206.12648740353086L123.6411220853953,219.29930259156617L117.1380756467276,217.35491248411074L116.51547736233988,215.15624268172292L113.96788464417733,211.28955981152671L114.3642305200757,207.79957879390622L117.64424886748958,203.7592753920277L118.19727580496829,204.2249302372511L121.56313998262323,198.52136775682368L121.18322300137555,197.48131644376383L124.5848468590221,190.81063431324242L128.49686488439875,191.97604359488423L128.05338808823984,193.5022995107347Z" style="fill: inherit; stroke: inherit; stroke-width: inherit;" vector-effect="non-scaling-stroke"><title>Humboldt County</title></path><path id="county-06105" class="county feature" d="M143.99332566477807,202.07572796991792L144.5698401428529,202.69918665363298L141.16388060907747,206.79351464946103L138.0038228196844,210.10770888663285L138.1024693107821,212.40160140929265L133.25691892855497,213.95922497936704L131.65925080493975,216.0680838229357L132.5375339710044,217.07449979522016L131.8126107704922,222.17504830358837L123.5023050438898,219.7470039818338L123.6411220853953,219.29930259156617L127.60607677651518,206.12648740353086L127.62614293744923,202.2102635505637L129.39344910107297,203.06781571861472L131.0054849670134,201.28965005385646L130.53903826164617,200.39466975874768L131.80007368713672,198.57579563269155L133.5014776510257,201.12272011963L134.83681174094949,201.44909480168576L135.83126543014436,203.2086172425702L137.38526021567105,203.86530061224983L137.2613549190442,201.5126200676233L138.90339579752617,200.17063728742642L140.03244001858542,200.534090806295L143.9805883530289,198.43878593133127L144.9525704389494,199.65027159367355Z" style="fill: inherit; stroke: inherit; stroke-width: inherit;" vector-effect="non-scaling-stroke"><title>Trinity County</title></path><path id="county-06035" class="county feature" d="M177.6097874498509,211.1972716096475L170.71615055150988,237.85315330636877L168.63356725202476,237.60167757946112L169.41291385654347,236.67212502776727L170.25457395290846,233.50693790420405L169.3384593176816,231.83082451257064L169.5700774438282,230.4769128372766L167.90495260051267,229.47300204263672L166.22821000102164,226.4285216906195L163.084178530697,224.28588803937032L160.24622207321676,225.94789504838946L158.7451284345123,224.28489776560377L159.68379602300558,220.82738555146318L156.0522418959872,219.8645847211303L158.4431037619333,211.52590274263287L159.67141145553933,206.43557902792486Z" style="fill: inherit; stroke: inherit; stroke-width: inherit;" vector-effect="non-scaling-stroke"><title>Lassen County</title></path><path id="county-06089" class="county feature" d="M158.12023056247614,206.01840944467642L159.67141145553933,206.43557902792486L158.4431037619333,211.52590274263287L156.0522418959872,219.8645847211303L153.74657561231407,219.22877309117644L146.6936619277149,217.63706004880328L142.36853651174016,217.49983269463394L139.78924327247762,216.41268363124254L137.49089539628477,216.95092794592574L136.36607552470304,215.8995477819543L131.65925080493975,216.0680838229357L133.25691892855497,213.95922497936704L138.1024693107821,212.40160140929265L138.0038228196844,210.10770888663285L141.16388060907747,206.79351464946103L144.5698401428529,202.69918665363298L143.99332566477807,202.07572796991792Z" style="fill: inherit; stroke: inherit; stroke-width: inherit;" vector-effect="non-scaling-stroke"><title>Shasta County</title></path><path id="county-06103" class="county feature" d="M153.74657561231407,219.22877309117644L153.66348804563552,221.07827825158608L155.14711957171227,222.19921357337682L154.3547304751479,223.94472634942258L152.9989367047569,224.78343933860685L150.82519326621951,225.17858469931866L149.41413486021713,227.07821640995178L147.1622530756987,228.28065278822498L143.51420539470934,227.36069410547202L142.99321335182356,228.91265334320133L130.81015283040136,225.4165208996577L131.8126107704922,222.17504830358837L132.5375339710044,217.07449979522016L131.65925080493975,216.0680838229357L136.36607552470304,215.8995477819543L137.49089539628477,216.95092794592574L139.78924327247762,216.41268363124254L142.36853651174016,217.49983269463394L146.6936619277149,217.63706004880328Z" style="fill: inherit; stroke: inherit; stroke-width: inherit;" vector-effect="non-scaling-stroke"><title>Tehama County</title></path><path id="county-06063" class="county feature" d="M156.0522418959872,219.8645847211303L159.68379602300558,220.82738555146318L158.7451284345123,224.28489776560377L160.24622207321676,225.94789504838946L163.084178530697,224.28588803937032L166.22821000102164,226.4285216906195L167.90495260051267,229.47300204263672L169.5700774438282,230.4769128372766L169.3384593176816,231.83082451257064L170.25457395290846,233.50693790420405L169.41291385654347,236.67212502776727L168.63356725202476,237.60167757946112L161.64466472829366,235.8129937965374L161.14094134003665,236.23655604813223L158.98993680518078,233.71790550231913L156.42613811928226,235.73930389194948L155.31209771245227,236.21589295714978L152.0979722924485,229.97570057125586L152.65125981824474,227.33941855005946L153.70593234930624,225.81670179037758L152.9989367047569,224.78343933860685L154.3547304751479,223.94472634942258L155.14711957171227,222.19921357337682L153.66348804563552,221.07827825158608L153.74657561231407,219.22877309117644Z" style="fill: inherit; stroke: inherit; stroke-width: inherit;" vector-effect="non-scaling-stroke"><title>Plumas County</title></path><path id="county-06007" class="county feature" d="M155.31209771245227,236.21589295714978L153.9698511960512,237.21746477538102L151.79007335380066,236.78128547591575L149.5058658350477,239.63386779722714L146.26308645897734,239.64716629143413L142.38078833383054,238.38102397639022L143.0361441734256,237.02796712631687L144.33432988462908,234.37933489423392L142.3682080427845,233.87983324424954L143.00846087134386,231.44613540902935L143.9231344379345,231.079979999516L142.99321335182356,228.91265334320133L143.51420539470934,227.36069410547202L147.1622530756987,228.28065278822498L149.41413486021713,227.07821640995178L150.82519326621951,225.17858469931866L152.9989367047569,224.78343933860685L153.70593234930624,225.81670179037758L152.65125981824474,227.33941855005946L152.0979722924485,229.97570057125586Z" style="fill: inherit; stroke: inherit; stroke-width: inherit;" vector-effect="non-scaling-stroke"><title>Butte County</title></path><path id="county-06045" class="county feature" d="M123.6411220853953,219.29930259156617L123.5023050438898,219.7470039818338L131.8126107704922,222.17504830358837L130.81015283040136,225.4165208996577L130.3427784223283,229.510086940355L130.0754903901879,230.44785593526979L127.5548166318207,230.2536864539469L126.868599180302,231.92246557922738L127.06635687561652,235.3459863089995L125.56369218493671,236.12211231881645L124.84502707398497,237.91563841173502L125.91098109726562,239.7088830712412L125.94498809242373,241.62097716906112L127.47143869012274,243.0539891607591L123.86932014923451,241.96215793709314L122.82548110095598,242.50787329263437L119.6070292987456,241.62534040621063L117.14962946516727,241.62951304320234L115.28322286640179,238.1087907373443L116.43132124994878,236.24010342146096L116.25214538855289,229.91939812880946L117.99421001651996,226.81979413825127L118.4730190927607,224.60693546276138L118.51333999666775,221.05761794626892L117.1380756467276,217.35491248411074Z" style="fill: inherit; stroke: inherit; stroke-width: inherit;" vector-effect="non-scaling-stroke"><title>Mendocino County</title></path><path id="county-06021" class="county feature" d="M142.99321335182356,228.91265334320133L143.9231344379345,231.079979999516L143.00846087134386,231.44613540902935L142.3682080427845,233.87983324424954L144.33432988462908,234.37933489423392L143.0361441734256,237.02796712631687L139.77123959776566,235.50233278769565L139.63481827881606,236.0236023092025L131.35938910972845,233.71615443541134L132.4467923104367,230.13782506744087L130.3427784223283,229.510086940355L130.81015283040136,225.4165208996577Z" style="fill: inherit; stroke: inherit; stroke-width: inherit;" vector-effect="non-scaling-stroke"><title>Glenn County</title></path><path id="county-06091" class="county feature" d="M168.63356725202476,237.60167757946112L170.71615055150988,237.85315330636877L169.38888598675362,242.85324911719317L162.4392770884184,241.05485826619008L162.01797059060283,239.5988881489517L160.71001202663308,239.07541407556914L159.24363747363168,239.9239888272282L155.0927571293709,240.1170192655087L156.42613811928226,235.73930389194948L158.98993680518078,233.71790550231913L161.14094134003665,236.23655604813223L161.64466472829366,235.8129937965374Z" style="fill: inherit; stroke: inherit; stroke-width: inherit;" vector-effect="non-scaling-stroke"><title>Sierra County</title></path><path id="county-06115" class="county feature" d="M156.42613811928226,235.73930389194948L155.0927571293709,240.1170192655087L153.5328068576497,239.98832305587064L150.69222588939232,242.13623967803392L149.72137143066078,245.6998909512779L147.65700888931087,245.87715398172918L145.72496491340752,245.8190672253611L145.01794951375336,246.65482804056717L146.26308645897734,239.64716629143413L149.5058658350477,239.63386779722714L151.79007335380066,236.78128547591575L153.9698511960512,237.21746477538102L155.31209771245227,236.21589295714978Z" style="fill: inherit; stroke: inherit; stroke-width: inherit;" vector-effect="non-scaling-stroke"><title>Yuba County</title></path><path id="county-06033" class="county feature" d="M131.35938910972845,233.71615443541134L130.48785437131102,234.82608648543703L131.53966152584354,237.03876727458317L133.86922026003003,238.54621287952307L133.0397051591014,240.65902301233757L134.47199230702665,243.61334177468518L133.4018284861445,244.48491260261187L131.61819129009666,247.09465380768108L129.16054812712542,247.13057953114378L127.47143869012274,243.0539891607591L125.94498809242373,241.62097716906112L125.91098109726562,239.7088830712412L124.84502707398497,237.91563841173502L125.56369218493671,236.12211231881645L127.06635687561652,235.3459863089995L126.868599180302,231.92246557922738L127.5548166318207,230.2536864539469L130.0754903901879,230.44785593526979L130.3427784223283,229.510086940355L132.4467923104367,230.13782506744087Z" style="fill: inherit; stroke: inherit; stroke-width: inherit;" vector-effect="non-scaling-stroke"><title>Lake County</title></path><path id="county-06057" class="county feature" d="M169.38888598675362,242.85324911719317L168.71245815169647,245.24829201287116L159.86751097390095,242.95038055870657L158.59304175434687,243.14504069961856L154.29096423638907,245.4281914950983L152.97958037328027,246.94721008940462L149.72137143066078,245.6998909512779L150.69222588939232,242.13623967803392L153.5328068576497,239.98832305587064L155.0927571293709,240.1170192655087L159.24363747363168,239.9239888272282L160.71001202663308,239.07541407556914L162.01797059060283,239.5988881489517L162.4392770884184,241.05485826619008Z" style="fill: inherit; stroke: inherit; stroke-width: inherit;" vector-effect="non-scaling-stroke"><title>Nevada County</title></path><path id="county-06011" class="county feature" d="M143.0361441734256,237.02796712631687L142.38078833383054,238.38102397639022L141.2388243193783,240.4970478941915L142.11953478677526,243.04912346877995L141.46816187004896,245.5781156429548L134.47199230702665,243.61334177468518L133.0397051591014,240.65902301233757L133.86922026003003,238.54621287952307L131.53966152584354,237.03876727458317L130.48785437131102,234.82608648543703L131.35938910972845,233.71615443541134L139.63481827881606,236.0236023092025L139.77123959776566,235.50233278769565Z" style="fill: inherit; stroke: inherit; stroke-width: inherit;" vector-effect="non-scaling-stroke"><title>Colusa County</title></path><path id="county-06061" class="county feature" d="M168.71245815169647,245.24829201287116L168.04865237130264,248.00549277284802L167.8091000530515,248.97496622588596L167.6109897041216,249.80453533952436L165.672371167905,249.2922932769966L164.1036868044597,249.7517277873319L161.65052889845174,249.04165523298525L158.95729836285642,250.53132459811138L156.6940938862129,248.07235072670562L152.19594299213992,248.9996049536719L150.00191610090565,252.0797396708465L145.37492782060974,250.3658884002217L146.55664889824016,246.96165455653636L147.65700888931087,245.87715398172918L149.72137143066078,245.6998909512779L152.97958037328027,246.94721008940462L154.29096423638907,245.4281914950983L158.59304175434687,243.14504069961856L159.86751097390095,242.95038055870657Z" style="fill: inherit; stroke: inherit; stroke-width: inherit;" vector-effect="non-scaling-stroke"><title>Placer County</title></path><path id="county-06101" class="county feature" d="M146.26308645897734,239.64716629143413L145.01794951375336,246.65482804056717L145.72496491340752,245.8190672253611L147.65700888931087,245.87715398172918L146.55664889824016,246.96165455653636L145.37492782060974,250.3658884002217L143.7343310482148,249.90667016811335L142.65201304534065,248.98410838430743L142.6182185280163,247.3056147159549L141.46816187004896,245.5781156429548L142.11953478677526,243.04912346877995L141.2388243193783,240.4970478941915L142.38078833383054,238.38102397639022Z" style="fill: inherit; stroke: inherit; stroke-width: inherit;" vector-effect="non-scaling-stroke"><title>Sutter County</title></path><path id="county-06017" class="county feature" d="M167.6109897041216,249.80453533952436L167.31287340595657,251.04239369548225L168.34435843008777,252.60485344366066L168.35816615891667,253.9427206501224L164.90953046192476,256.20951336911423L160.73574034255353,258.22463542115725L156.19235308184358,257.81694618693234L154.58104497309944,256.3792784715605L150.66899177000602,256.23244847560693L150.40436795864065,252.1194465153601L150.00191610090565,252.0797396708465L152.19594299213992,248.9996049536719L156.6940938862129,248.07235072670562L158.95729836285642,250.53132459811138L161.65052889845174,249.04165523298525L164.1036868044597,249.7517277873319L165.672371167905,249.2922932769966Z" style="fill: inherit; stroke: inherit; stroke-width: inherit;" vector-effect="non-scaling-stroke"><title>El Dorado County</title></path><path id="county-06003" class="county feature" d="M171.81835564835836,257.83863075027216L170.81457512779411,259.4775788122656L171.36960909406173,261.83133711483345L169.2218165729467,264.63195741926654L168.0415242098556,262.5816425381421L166.0053202263661,263.17193166152754L164.40194987111443,261.24141194968934L163.9988320668117,259.727895699339L164.90953046192476,256.20951336911423L168.35816615891667,253.9427206501224L168.34435843008777,252.60485344366066Z" style="fill: inherit; stroke: inherit; stroke-width: inherit;" vector-effect="non-scaling-stroke"><title>Alpine County</title></path><path id="county-06113" class="county feature" d="M141.46816187004896,245.5781156429548L142.6182185280163,247.3056147159549L142.65201304534065,248.98410838430743L143.7343310482148,249.90667016811335L143.0578851561973,250.83788345836342L144.33698986043322,252.71409984420086L143.31213105764374,254.14865400064673L143.77279654598414,255.1180431318354L143.00480316991417,257.00793259981106L141.67676915859806,257.5938752561766L140.34838528127807,257.180215175277L141.4053210670143,253.36637667103355L138.03249258952002,252.27661807890274L135.6503837737937,252.00007608679937L134.75315490229372,245.34635844609454L133.4018284861445,244.48491260261187L134.47199230702665,243.61334177468518Z" style="fill: inherit; stroke: inherit; stroke-width: inherit;" vector-effect="non-scaling-stroke"><title>Yolo County</title></path><path id="county-06055" class="county feature" d="M135.6503837737937,252.00007608679937L134.88342202957494,253.51404783350722L135.17693802164996,255.7351445658195L133.1677881573127,255.16511318646178L132.3774250829926,257.61332439123555L131.17275579174628,257.7298349830065L131.05363676721606,257.6907439265509L129.5869583502947,257.29542950104565L129.57910592654105,257.24684150429357L130.41942573687652,256.98280180304494L130.5134771746092,254.61656941123545L129.17360135360195,249.45088182709276L129.16054812712542,247.13057953114378L131.61819129009666,247.09465380768108L133.4018284861445,244.48491260261187L134.75315490229372,245.34635844609454Z" style="fill: inherit; stroke: inherit; stroke-width: inherit;" vector-effect="non-scaling-stroke"><title>Napa County</title></path><path id="county-06097" class="county feature" d="M127.47143869012274,243.0539891607591L129.16054812712542,247.13057953114378L129.17360135360195,249.45088182709276L130.5134771746092,254.61656941123545L130.41942573687652,256.98280180304494L129.57910592654105,257.24684150429357L128.1572666300782,257.73820888823707L127.63402239594905,256.6831470315743L125.18571047816289,255.02217086072153L123.56402459932724,252.47327924797446L122.00118682230237,252.3438997728449L121.04760805328272,249.04403327241073L118.82820898281125,246.1187467717698L117.14962946516727,241.62951304320234L119.6070292987456,241.62534040621063L122.82548110095598,242.50787329263437L123.86932014923451,241.96215793709314Z" style="fill: inherit; stroke: inherit; stroke-width: inherit;" vector-effect="non-scaling-stroke"><title>Sonoma County</title></path><path id="county-06067" class="county feature" d="M150.66899177000602,256.23244847560693L149.66491580859855,260.07743343781044L144.0833593469926,259.9279149961769L143.19087344262869,259.0624539335589L141.01652776584064,261.41848791494044L139.3340899868321,261.407506703693L140.20301854743008,259.756125473108L141.67676915859806,257.5938752561766L143.00480316991417,257.00793259981106L143.77279654598414,255.1180431318354L143.31213105764374,254.14865400064673L144.33698986043322,252.71409984420086L143.0578851561973,250.83788345836342L143.7343310482148,249.90667016811335L145.37492782060974,250.3658884002217L150.00191610090565,252.0797396708465L150.40436795864065,252.1194465153601Z" style="fill: inherit; stroke: inherit; stroke-width: inherit;" vector-effect="non-scaling-stroke"><title>Sacramento County</title></path><path id="county-06051" class="county feature" d="M174.5372668153026,261.90690059454084L176.40922377696097,264.7293191659717L184.38417389083054,276.7455713376096L190.9824514832169,286.66903154150214L177.52794225207555,283.48883501909256L174.55751700839312,280.37659781608465L173.85076179231584,277.39336251274426L171.74174181688,276.69493787848137L173.37842825158526,274.2071030929436L172.16426462410698,272.77948760318134L172.18970125536498,270.07385968553115L170.65698703029142,269.46401696242094L168.73195459864974,266.9844924077863L169.2218165729467,264.63195741926654L171.36960909406173,261.83133711483345L170.81457512779411,259.4775788122656L171.81835564835836,257.83863075027216Z" style="fill: inherit; stroke: inherit; stroke-width: inherit;" vector-effect="non-scaling-stroke"><title>Mono County</title></path><path id="county-06005" class="county feature" d="M164.90953046192476,256.20951336911423L163.9988320668117,259.727895699339L160.1709198163303,259.60342190786037L158.89751024332872,259.13226968386857L155.9491204863494,259.81057166496L155.36695160404503,260.76814151142946L149.722693194597,261.50610009098443L149.66491580859855,260.07743343781044L150.66899177000602,256.23244847560693L154.58104497309944,256.3792784715605L156.19235308184358,257.81694618693234L160.73574034255353,258.22463542115725Z" style="fill: inherit; stroke: inherit; stroke-width: inherit;" vector-effect="non-scaling-stroke"><title>Amador County</title></path><path id="county-06095" class="county feature" d="M131.05363676721606,257.6907439265509L131.37760450816933,259.32314271712175L129.5869583502947,257.29542950104565ZM141.67676915859806,257.5938752561766L140.20301854743008,259.756125473108L137.54761334756017,261.3571782993597L135.71434161311487,261.043258415932L134.36448208025587,259.06648281799926L132.81726210134002,260.41659295205284L131.52694692217568,259.52444042304717L131.17275579174628,257.7298349830065L132.3774250829926,257.61332439123555L133.1677881573127,255.16511318646178L135.17693802164996,255.7351445658195L134.88342202957494,253.51404783350722L135.6503837737937,252.00007608679937L138.03249258952002,252.27661807890274L141.4053210670143,253.36637667103355L140.34838528127807,257.180215175277Z" style="fill: inherit; stroke: inherit; stroke-width: inherit;" vector-effect="non-scaling-stroke"><title>Solano County</title></path><path id="county-06009" class="county feature" d="M164.40194987111443,261.24141194968934L161.91071594737758,261.8348248683866L155.09792883351844,268.2778511566527L152.5886284836211,269.9589674725762L149.94693034310762,264.45201353144125L149.722693194597,261.50610009098443L155.36695160404503,260.76814151142946L155.9491204863494,259.81057166496L158.89751024332872,259.13226968386857L160.1709198163303,259.60342190786037L163.9988320668117,259.727895699339Z" style="fill: inherit; stroke: inherit; stroke-width: inherit;" vector-effect="non-scaling-stroke"><title>Calaveras County</title></path><path id="county-06109" class="county feature" d="M169.2218165729467,264.63195741926654L168.73195459864974,266.9844924077863L170.65698703029142,269.46401696242094L172.18970125536498,270.07385968553115L172.16426462410698,272.77948760318134L173.37842825158526,274.2071030929436L171.74174181688,276.69493787848137L171.3591536531626,275.84537541597956L168.74143518645332,272.7573082974575L166.62115061046228,274.0193936520957L164.2468356173777,274.3924572568801L162.28694711143322,273.7964321616656L160.66172973238452,272.13920187764586L155.40641029053597,274.54737161702724L152.5886284836211,269.9589674725762L155.09792883351844,268.2778511566527L161.91071594737758,261.8348248683866L164.40194987111443,261.24141194968934L166.0053202263661,263.17193166152754L168.0415242098556,262.5816425381421Z" style="fill: inherit; stroke: inherit; stroke-width: inherit;" vector-effect="non-scaling-stroke"><title>Tuolumne County</title></path><path id="county-06041" class="county feature" d="M127.63402239594905,256.6831470315743L128.17626591150957,257.8616535198539L127.04523123614774,261.015002371166L127.71350200559783,262.1069078370879L126.11908583106623,262.89719428679757L124.73936344623371,260.6783859379343L124.07192339397875,260.83805047569024L122.34887277222748,257.79437752668275L120.3859158437458,257.52114083614197L122.02796045604885,254.9706850250534L123.2056663557733,256.84907928750545L122.00118682230237,252.3438997728449L123.56402459932724,252.47327924797446L125.18571047816289,255.02217086072153Z" style="fill: inherit; stroke: inherit; stroke-width: inherit;" vector-effect="non-scaling-stroke"><title>Marin County</title></path><path id="county-06077" class="county feature" d="M149.66491580859855,260.07743343781044L149.722693194597,261.50610009098443L149.94693034310762,264.45201353144125L148.30128072414863,270.64315791021204L147.45456581741183,269.9718499756423L144.10215975880027,270.36235476107095L139.30063982861736,273.2092629119044L138.38659391374648,271.78746109945075L139.76772906974406,266.77570325037914L140.53693768094013,262.607074233597L141.01652776584064,261.41848791494044L143.19087344262869,259.0624539335589L144.0833593469926,259.9279149961769Z" style="fill: inherit; stroke: inherit; stroke-width: inherit;" vector-effect="non-scaling-stroke"><title>San Joaquin County</title></path><path id="county-06013" class="county feature" d="M140.53693768094013,262.607074233597L139.76772906974406,266.77570325037914L133.5854208793432,266.9955127419895L132.8053160436695,265.21104970759404L131.52937078191053,264.73067204613665L129.57216307084468,262.35092171286885L128.8632303762642,260.84427263874534L131.07735716884991,259.73078229576686L132.50421532201693,260.7366400129655L134.56484494816175,260.6127174922284L138.31463448169143,262.40413703130207L140.51981465352014,261.4316972732305Z" style="fill: inherit; stroke: inherit; stroke-width: inherit;" vector-effect="non-scaling-stroke"><title>Contra Costa County</title></path><path id="county-06099" class="county feature" d="M155.40641029053597,274.54737161702724L145.84692664189186,276.57278269952144L145.7857684191177,277.6734533828717L141.06530425863502,280.43272703824107L140.50600944680315,279.3651466965524L138.6691688672778,279.5049975578571L138.50548030366718,276.86279897383884L139.37756829034004,276.57779016971153L139.29262683652956,273.19865881742726L139.30063982861736,273.2092629119044L144.10215975880027,270.36235476107095L147.45456581741183,269.9718499756423L148.30128072414863,270.64315791021204L149.94693034310762,264.45201353144125L152.5886284836211,269.9589674725762Z" style="fill: inherit; stroke: inherit; stroke-width: inherit;" vector-effect="non-scaling-stroke"><title>Stanislaus County</title></path><path id="county-06001" class="county feature" d="M139.76772906974406,266.77570325037914L138.38659391374648,271.78746109945075L139.30063982861736,273.2092629119044L139.29262683652956,273.19865881742726L133.74634768716413,271.61487279966866L131.92612293236107,271.5316536039917L130.3986094533355,270.3088362758797L130.4989180266101,267.06698563792384L128.82472252995717,264.0603956535142L129.57216307084468,262.35092171286885L131.52937078191053,264.73067204613665L132.8053160436695,265.21104970759404L133.5854208793432,266.9955127419895Z" style="fill: inherit; stroke: inherit; stroke-width: inherit;" vector-effect="non-scaling-stroke"><title>Alameda County</title></path><path id="county-06043" class="county feature" d="M171.3591536531626,275.84537541597956L166.45399058633035,278.84286059936187L164.83239420706803,281.229012134143L163.23428303704037,280.81772787752936L158.1001266575887,284.0153813260789L156.98081028588194,282.665417039467L155.89896979869349,278.86048063496753L155.40641029053597,274.54737161702724L160.66172973238452,272.13920187764586L162.28694711143322,273.7964321616656L164.2468356173777,274.3924572568801L166.62115061046228,274.0193936520957L168.74143518645332,272.7573082974575Z" style="fill: inherit; stroke: inherit; stroke-width: inherit;" vector-effect="non-scaling-stroke"><title>Mariposa County</title></path><path id="county-06075" class="county feature" d="M127.44013534124844,265.45459301091125L125.90962097256437,265.01944995636507L126.11736210862091,263.6648788183402L127.71872193554066,263.5400202429747Z" style="fill: inherit; stroke: inherit; stroke-width: inherit;" vector-effect="non-scaling-stroke"><title>San Francisco County</title></path><path id="county-06039" class="county feature" d="M171.74174181688,276.69493787848137L173.85076179231584,277.39336251274426L174.55751700839312,280.37659781608465L169.37477767405915,283.60003945242204L168.44223337469123,286.2150803746855L167.3589454907306,287.0555033493856L164.87943343144627,286.54422426116025L164.90465761827943,287.4804724471736L162.26032161377287,288.50959797759504L159.9007103379838,290.9302784020964L151.59000481238803,290.11972865770645L150.72203269909693,288.36185457844397L150.36612257702518,284.7381361640199L151.55524036403307,284.03044317366073L154.49682555356014,283.70572179038356L158.1001266575887,284.0153813260789L163.23428303704037,280.81772787752936L164.83239420706803,281.229012134143L166.45399058633035,278.84286059936187L171.3591536531626,275.84537541597956Z" style="fill: inherit; stroke: inherit; stroke-width: inherit;" vector-effect="non-scaling-stroke"><title>Madera County</title></path><path id="county-06081" class="county feature" d="M127.44013534124844,265.45459301091125L127.3272869461419,267.6922495825655L128.59529781009917,268.4453135507216L130.12142939448307,270.9621428247623L128.8839421330768,271.29165553413907L128.6782678402763,274.07658528044703L128.29876672661857,275.3429654394297L125.79113385524522,275.19371002695766L125.77175310020476,276.75291354831484L124.62865117153649,274.68053377546096L125.53463846134832,271.7347557697343L124.74621146629437,268.37523634126524L125.90962097256437,265.01944995636507Z" style="fill: inherit; stroke: inherit; stroke-width: inherit;" vector-effect="non-scaling-stroke"><title>San Mateo County</title></path><path id="county-06047" class="county feature" d="M158.1001266575887,284.0153813260789L154.49682555356014,283.70572179038356L151.55524036403307,284.03044317366073L150.36612257702518,284.7381361640199L143.52105953206365,288.82071783060167L140.7954512921404,286.2260642402084L140.36029713793693,283.67333055789516L141.06530425863502,280.43272703824107L145.7857684191177,277.6734533828717L145.84692664189186,276.57278269952144L155.40641029053597,274.54737161702724L155.89896979869349,278.86048063496753L156.98081028588194,282.665417039467Z" style="fill: inherit; stroke: inherit; stroke-width: inherit;" vector-effect="non-scaling-stroke"><title>Merced County</title></path><path id="county-06019" class="county feature" d="M177.52794225207555,283.48883501909256L176.82313328827394,285.6398400237156L177.77882581336945,286.1983862339158L177.8124126465221,289.7936679203831L180.56788430179637,292.05003749055913L180.89519042008834,295.5024970072715L180.17156036023664,298.0191902636999L171.27655732969345,295.9400863793031L170.897948240936,297.4749899284078L166.3039687029218,296.30648460087457L165.89609284000954,297.87056043771133L163.52733477373056,297.25472082706847L161.57857678281795,298.4554526923499L159.98254815848298,299.4033626137914L155.67402587397993,298.69375978258086L154.63662729465386,302.65715849208107L148.18674851680322,306.3249028407282L144.32264678909604,301.3797746968145L145.08834915222826,299.70570196055746L144.6549973569946,298.3733964868103L146.1417168600987,297.5692293824038L146.905180482964,294.6644094198955L143.52105953206365,288.82071783060167L150.36612257702518,284.7381361640199L150.72203269909693,288.36185457844397L151.59000481238803,290.11972865770645L159.9007103379838,290.9302784020964L162.26032161377287,288.50959797759504L164.90465761827943,287.4804724471736L164.87943343144627,286.54422426116025L167.3589454907306,287.0555033493856L168.44223337469123,286.2150803746855L169.37477767405915,283.60003945242204L174.55751700839312,280.37659781608465Z" style="fill: inherit; stroke: inherit; stroke-width: inherit;" vector-effect="non-scaling-stroke"><title>Fresno County</title></path><path id="county-06085" class="county feature" d="M139.29262683652956,273.19865881742726L139.37756829034004,276.57779016971153L138.50548030366718,276.86279897383884L138.6691688672778,279.5049975578571L140.50600944680315,279.3651466965524L141.06530425863502,280.43272703824107L140.36029713793693,283.67333055789516L136.56554337031127,282.20800820565216L134.83760267321156,283.34691528898213L133.1009297306805,279.95924725536986L130.22995661110792,277.28592518422636L128.6782678402763,274.07658528044703L128.8839421330768,271.29165553413907L130.12142939448307,270.9621428247623L131.92612293236107,271.5316536039917L133.74634768716413,271.61487279966866Z" style="fill: inherit; stroke: inherit; stroke-width: inherit;" vector-effect="non-scaling-stroke"><title>Santa Clara County</title></path><path id="county-06027" class="county feature" d="M190.9824514832169,286.66903154150214L198.470423021611,297.949413628166L213.02461238573704,319.8683717034904L215.84920341105197,324.121164093183L214.5385606792595,324.14975815797993L203.3180825771783,321.7437050397589L186.6923319999022,317.9810912911473L181.21874752261743,316.87434936947375L181.9531562962565,315.47173864701256L181.72254516986953,307.04242055127145L182.27142898256113,306.58244064376925L180.73849034146923,303.30177422757856L180.8683268789651,301.07977051011403L180.17156036023664,298.0191902636999L180.89519042008834,295.5024970072715L180.56788430179637,292.05003749055913L177.8124126465221,289.7936679203831L177.77882581336945,286.1983862339158L176.82313328827394,285.6398400237156L177.52794225207555,283.48883501909256Z" style="fill: inherit; stroke: inherit; stroke-width: inherit;" vector-effect="non-scaling-stroke"><title>Inyo County</title></path><path id="county-06087" class="county feature" d="M134.83760267321156,283.34691528898213L133.91965727393676,283.2005539616547L132.55347909557258,282.54448821337655L131.44879156597563,283.28648435887715L130.12478622723347,280.5278012368601L127.63902826141549,280.25678999382274L125.77175310020476,276.75291354831484L125.79113385524522,275.19371002695766L128.29876672661857,275.3429654394297L128.6782678402763,274.07658528044703L130.22995661110792,277.28592518422636L133.1009297306805,279.95924725536986Z" style="fill: inherit; stroke: inherit; stroke-width: inherit;" vector-effect="non-scaling-stroke"><title>Santa Cruz County</title></path><path id="county-06069" class="county feature" d="M140.36029713793693,283.67333055789516L140.7954512921404,286.2260642402084L143.52105953206365,288.82071783060167L146.905180482964,294.6644094198955L146.1417168600987,297.5692293824038L144.6549973569946,298.3733964868103L143.15461890979122,299.2209842272848L141.30689519449123,296.6586675860258L139.71914098804427,297.20363574443854L139.71600165006708,295.96108715232594L137.66900908779388,291.8279725349299L136.70554718720717,291.62847303612637L137.14098505719045,289.66779401613417L135.3714044826093,287.69873672037295L135.81093991826742,287.00231418967167L133.91965727393676,283.2005539616547L134.83760267321156,283.34691528898213L136.56554337031127,282.20800820565216Z" style="fill: inherit; stroke: inherit; stroke-width: inherit;" vector-effect="non-scaling-stroke"><title>San Benito County</title></path><path id="county-06053" class="county feature" d="M133.91965727393676,283.2005539616547L135.81093991826742,287.00231418967167L135.3714044826093,287.69873672037295L137.14098505719045,289.66779401613417L136.70554718720717,291.62847303612637L137.66900908779388,291.8279725349299L139.71600165006708,295.96108715232594L139.71914098804427,297.20363574443854L141.30689519449123,296.6586675860258L143.15461890979122,299.2209842272848L144.6549973569946,298.3733964868103L145.08834915222826,299.70570196055746L144.32264678909604,301.3797746968145L148.18674851680322,306.3249028407282L149.05977163959693,308.86392282143345L132.69393880421825,304.36849303465624L131.4678573437456,302.2001220291197L131.53406457677352,300.395715583417L130.54895168625558,299.2980974184204L129.3540511351353,295.64806581420896L127.31168651487815,292.9205836890378L127.56845519828698,287.62318026612115L130.31043488818807,286.5618235408207L131.44879156597563,283.28648435887715L132.55347909557258,282.54448821337655Z" style="fill: inherit; stroke: inherit; stroke-width: inherit;" vector-effect="non-scaling-stroke"><title>Monterey County</title></path><path id="county-06107" class="county feature" d="M181.21874752261743,316.87434936947375L158.90436370076526,311.3612868728429L161.2682848133977,302.6459335732518L162.00638762784524,302.85002664179785L162.64460375079761,300.42841703128545L161.57857678281795,298.4554526923499L163.52733477373056,297.25472082706847L165.89609284000954,297.87056043771133L166.3039687029218,296.30648460087457L170.897948240936,297.4749899284078L171.27655732969345,295.9400863793031L180.17156036023664,298.0191902636999L180.8683268789651,301.07977051011403L180.73849034146923,303.30177422757856L182.27142898256113,306.58244064376925L181.72254516986953,307.04242055127145L181.9531562962565,315.47173864701256Z" style="fill: inherit; stroke: inherit; stroke-width: inherit;" vector-effect="non-scaling-stroke"><title>Tulare County</title></path><path id="county-06031" class="county feature" d="M158.90436370076526,311.3612868728429L149.3739026286499,308.94046958159606L149.05977163959693,308.86392282143345L148.18674851680322,306.3249028407282L154.63662729465386,302.65715849208107L155.67402587397993,298.69375978258086L159.98254815848298,299.4033626137914L161.57857678281795,298.4554526923499L162.64460375079761,300.42841703128545L162.00638762784524,302.85002664179785L161.2682848133977,302.6459335732518Z" style="fill: inherit; stroke: inherit; stroke-width: inherit;" vector-effect="non-scaling-stroke"><title>Kings County</title></path><path id="county-06071" class="county feature" d="M227.83322951095653,342.14191615883146L227.3662502366762,344.57715913705556L229.17599031899852,347.9200440587682L229.30841427510995,350.19418945537814L230.21242738736572,353.1588020734316L232.71880949917977,356.4886730092194L230.4941283788787,358.546473306616L227.51600223187438,359.6041722481734L214.20491465221562,357.0533596213851L214.04608651440861,357.8514084180215L189.78501531532459,352.7028749652029L189.67368450394974,353.25072557784097L185.21199866479407,352.25298730960424L180.34325717573188,350.590710113049L177.96005034575506,353.1782427454301L176.60272967216133,351.4097516004557L177.70446852820032,350.20632912434417L180.11465282183008,345.6196908220976L182.05064877104485,335.7205225113861L182.57250735655816,335.83735958759337L186.6923319999022,317.9810912911473L203.3180825771783,321.7437050397589L214.5385606792595,324.14975815797993L215.84920341105197,324.121164093183Z" style="fill: inherit; stroke: inherit; stroke-width: inherit;" vector-effect="non-scaling-stroke"><title>San Bernardino County</title></path><path id="county-06079" class="county feature" d="M149.05977163959693,308.86392282143345L149.3739026286499,308.94046958159606L148.5390935292918,312.10583455087783L150.09642177766864,312.5331415964929L149.68910179357334,314.1057489600488L150.55687428430178,316.0444731682452L152.251989372288,316.5162725401033L151.8623082988213,318.1214113072656L152.87848623930086,318.36933055978625L152.49481664151693,319.9560344441551L154.5706283472377,320.53258165876855L154.1836513210534,322.1203848249662L155.8564618765771,322.4622495670144L155.32077525434954,324.09160861992996L156.5655541752795,324.62626660465094L155.7493244229869,327.86355432781977L152.10410737096055,325.5028266714535L147.8273349912348,321.66234350265154L145.9791813147039,322.6565813801726L143.5768115253382,322.78778885842985L143.66808256526258,324.59145569594625L141.76174326501592,322.3689168397997L138.82348946286982,322.0215255553005L139.63877145048508,318.8641114662373L138.1420377246958,318.23466902582857L136.54376899667096,315.9513654797779L137.9775071749164,314.7271797311495L137.5828064023858,312.745197492486L136.0122110785814,311.79087003799L134.5348169769274,308.03768658474155L132.91492994486805,306.9795449010355L132.69393880421825,304.36849303465624Z" style="fill: inherit; stroke: inherit; stroke-width: inherit;" vector-effect="non-scaling-stroke"><title>San Luis Obispo County</title></path><path id="county-06029" class="county feature" d="M186.6923319999022,317.9810912911473L182.57250735655816,335.83735958759337L182.05064877104485,335.7205225113861L163.93051467649912,331.4863740519138L163.98841233567998,332.0745091166957L162.67572270479286,331.28692947615014L158.71762002067118,330.2653875314553L158.54676280490713,328.96840875599435L156.19617150407754,327.9865757002723L155.7493244229869,327.86355432781977L156.5655541752795,324.62626660465094L155.32077525434954,324.09160861992996L155.8564618765771,322.4622495670144L154.1836513210534,322.1203848249662L154.5706283472377,320.53258165876855L152.49481664151693,319.9560344441551L152.87848623930086,318.36933055978625L151.8623082988213,318.1214113072656L152.251989372288,316.5162725401033L150.55687428430178,316.0444731682452L149.68910179357334,314.1057489600488L150.09642177766864,312.5331415964929L148.5390935292918,312.10583455087783L149.3739026286499,308.94046958159606L158.90436370076526,311.3612868728429L181.21874752261743,316.87434936947375Z" style="fill: inherit; stroke: inherit; stroke-width: inherit;" vector-effect="non-scaling-stroke"><title>Kern County</title></path><path id="county-06083" class="county feature" d="M143.15975701797709,341.403310929044L143.94531371751975,343.4578898880927L141.48862161509163,343.74029055765504L140.30292522480937,341.217069009175ZM145.55114855151066,341.2891107250931L150.39996690420026,344.0265491975664L147.7595958356011,344.0911582976463L145.87367712056397,343.47035878799625ZM155.7493244229869,327.86355432781977L156.19617150407754,327.9865757002723L154.21751166236635,335.7999714636528L153.29234532560923,337.4511450355137L152.15565421344672,336.3723730628375L147.50714843332202,335.3523168571329L145.85619240065853,333.88954279046254L141.64138138288155,332.58387055455296L138.93634410371442,332.30813271720206L138.68132653869657,330.7810422743121L136.97927052997932,329.2282236579068L138.25592824782672,327.05858822169955L138.76886593502132,324.6098740732443L138.16575967164061,323.2463561418932L138.82348946286982,322.0215255553005L141.76174326501592,322.3689168397997L143.66808256526258,324.59145569594625L143.5768115253382,322.78778885842985L145.9791813147039,322.6565813801726L147.8273349912348,321.66234350265154L152.10410737096055,325.5028266714535Z" style="fill: inherit; stroke: inherit; stroke-width: inherit;" vector-effect="non-scaling-stroke"><title>Santa Barbara County</title></path><path id="county-06111" class="county feature" d="M147.41714324917865,357.10816262452977L148.6634679090336,358.427545759512L147.03910231522457,358.03541838302544ZM159.68802728794253,345.4294177469436L156.17077730496953,342.6065931288257L155.7461410045617,340.15101047754183L153.29234532560923,337.4511450355137L154.21751166236635,335.7999714636528L156.19617150407754,327.9865757002723L158.54676280490713,328.96840875599435L158.71762002067118,330.2653875314553L162.67572270479286,331.28692947615014L163.98841233567998,332.0745091166957L165.4028283197497,342.2393333459779L164.34347183972267,344.1771473888664L162.59120412371107,343.7436736769587Z" style="fill: inherit; stroke: inherit; stroke-width: inherit;" vector-effect="non-scaling-stroke"><title>Ventura County</title></path><path id="county-06037" class="county feature" d="M160.505366833395,365.2791215000219L162.9968299328561,369.56865656227967L161.08937588564055,368.8586499962397ZM162.26329440818068,357.0323176491364L165.52729543732045,359.2073719880011L165.69587278841595,361.3206142655913L163.81461392821984,360.43284192765145L163.4989795431863,358.23116781669694ZM182.05064877104485,335.7205225113861L180.11465282183008,345.6196908220976L177.70446852820032,350.20632912434417L176.60272967216133,351.4097516004557L173.74072502144134,350.7296356257891L170.81463355063318,353.9104972709209L169.31451841711225,353.0680884828396L168.00973473247223,354.0303789132869L166.33128443385186,352.93523337255147L167.05743887400132,351.21411114312957L166.61881559646253,348.6681382876211L165.67341361955658,347.0135525214454L162.79792778739426,346.42667831017775L161.5766304087266,346.75575014547644L159.68802728794253,345.4294177469436L162.59120412371107,343.7436736769587L164.34347183972267,344.1771473888664L165.4028283197497,342.2393333459779L163.98841233567998,332.0745091166957L163.93051467649912,331.4863740519138Z" style="fill: inherit; stroke: inherit; stroke-width: inherit;" vector-effect="non-scaling-stroke"><title>Los Angeles County</title></path><path id="county-06065" class="county feature" d="M222.21803256694585,371.04203450610873L200.10221522564296,366.6628514007093L185.7645405444141,363.51665265321117L182.60883690577015,362.71091498100964L180.89529506301756,361.15782637928726L178.86770578170064,360.43859577407807L180.9541471221056,357.94407901709656L179.34462208649387,356.5664153881122L177.96005034575506,353.1782427454301L180.34325717573188,350.590710113049L185.21199866479407,352.25298730960424L189.67368450394974,353.25072557784097L189.78501531532459,352.7028749652029L214.04608651440861,357.8514084180215L214.20491465221562,357.0533596213851L227.51600223187438,359.6041722481734L227.24391861641442,360.7034073345419L225.3842311350109,362.2942928807031L225.12546348076927,366.633027386339L224.1804625655015,369.2186917456388Z" style="fill: inherit; stroke: inherit; stroke-width: inherit;" vector-effect="non-scaling-stroke"><title>Riverside County</title></path><path id="county-06059" class="county feature" d="M176.60272967216133,351.4097516004557L177.96005034575506,353.1782427454301L179.34462208649387,356.5664153881122L180.9541471221056,357.94407901709656L178.86770578170064,360.43859577407807L177.07026867370342,362.29918643916517L174.87631871625598,358.8093801798468L172.08490218019682,355.9497160902115L170.81463355063318,353.9104972709209L173.74072502144134,350.7296356257891Z" style="fill: inherit; stroke: inherit; stroke-width: inherit;" vector-effect="non-scaling-stroke"><title>Orange County</title></path><path id="county-06073" class="county feature" d="M200.10221522564296,366.6628514007093L198.7599445232862,373.1333911723998L198.40796121874325,373.0712803994512L196.55211752644334,381.44691715672354L180.64167923199727,379.5552985129974L181.30849897915368,377.03739978586214L179.7388176024033,375.8188910977469L179.46486576895308,373.7395219821159L180.1300544723877,372.88482244952957L180.01448148630277,368.21094480076204L178.0811679239941,363.40831125211275L177.07026867370342,362.29918643916517L178.86770578170064,360.43859577407807L180.89529506301756,361.15782637928726L182.60883690577015,362.71091498100964L185.7645405444141,363.51665265321117Z" style="fill: inherit; stroke: inherit; stroke-width: inherit;" vector-effect="non-scaling-stroke"><title>San Diego County</title></path><path id="county-06025" class="county feature" d="M222.4089510805602,378.94209049363667L222.7786561247906,381.2865735457649L221.24751032642706,383.8732328144781L218.16011706908762,383.99702027836065L196.55211752644334,381.44691715672354L198.40796121874325,373.0712803994512L198.7599445232862,373.1333911723998L200.10221522564296,366.6628514007093L222.21803256694585,371.04203450610873L220.6245766937733,371.30567786971426L220.12688386348236,373.2022029711667L220.83264865562506,373.96075035297906L219.7157889436295,377.22738340991293L220.05540306729733,378.2081098148608Z" style="fill: inherit; stroke: inherit; stroke-width: inherit;" vector-effect="non-scaling-stroke"><title>Imperial County</title></path></g><path id="counties-mesh" class="counties mesh" d="M162.15843383035968,191.24153201410002L158.12023056247614,206.01840944467642L143.99332566477807,202.07572796991792L144.9525704389494,199.65027159367355L143.9805883530289,198.43878593133127L140.03244001858542,200.534090806295L138.90339579752617,200.17063728742642L137.2613549190442,201.5126200676233L137.38526021567105,203.86530061224983L135.83126543014436,203.2086172425702L134.83681174094949,201.44909480168576L133.5014776510257,201.12272011963L131.80007368713672,198.57579563269155L131.90990282024603,194.92384861413973L129.50673361693464,193.91955097695802L130.3099678464979,193.1668916509252L129.92949151426177,189.9249563531722L131.1692398468697,188.3002490485677L131.37055988931365,185.71035218446502L133.6077685502342,184.9063277073734L134.7477605107099,183.33478297475165M129.50673361693464,193.91955097695802L128.05338808823984,193.5022995107347L128.49686488439875,191.97604359488423L124.5848468590221,190.81063431324242L124.807330157806,185.50727799342553L123.80385368905581,184.34225728321496L125.5822539835043,180.61436534891607L130.7101350489056,182.23147645533106L134.7477605107099,183.33478297475165L138.56224690877815,184.40582758589494L151.0298718158034,187.9351810796394L162.15843383035968,191.24153201410002L169.6925550773899,193.35642899581353L181.43169445561847,196.42455346316615L177.6097874498509,211.1972716096475L159.67141145553933,206.43557902792486L158.12023056247614,206.01840944467642M131.80007368713672,198.57579563269155L130.53903826164617,200.39466975874768L131.0054849670134,201.28965005385646L129.39344910107297,203.06781571861472L127.62614293744923,202.2102635505637L127.60607677651518,206.12648740353086L123.6411220853953,219.29930259156617L117.1380756467276,217.35491248411074L116.51547736233988,215.15624268172292L113.96788464417733,211.28955981152671L114.3642305200757,207.79957879390622L117.64424886748958,203.7592753920277L118.19727580496829,204.2249302372511L121.56313998262323,198.52136775682368L121.18322300137555,197.48131644376383L124.5848468590221,190.81063431324242M143.99332566477807,202.07572796991792L144.5698401428529,202.69918665363298L141.16388060907747,206.79351464946103L138.0038228196844,210.10770888663285L138.1024693107821,212.40160140929265L133.25691892855497,213.95922497936704L131.65925080493975,216.0680838229357L132.5375339710044,217.07449979522016L131.8126107704922,222.17504830358837L123.5023050438898,219.7470039818338L123.6411220853953,219.29930259156617M170.71615055150988,237.85315330636877L168.63356725202476,237.60167757946112L169.41291385654347,236.67212502776727L170.25457395290846,233.50693790420405L169.3384593176816,231.83082451257064L169.5700774438282,230.4769128372766L167.90495260051267,229.47300204263672L166.22821000102164,226.4285216906195L163.084178530697,224.28588803937032L160.24622207321676,225.94789504838946L158.7451284345123,224.28489776560377L159.68379602300558,220.82738555146318L156.0522418959872,219.8645847211303L158.4431037619333,211.52590274263287L159.67141145553933,206.43557902792486M156.0522418959872,219.8645847211303L153.74657561231407,219.22877309117644L146.6936619277149,217.63706004880328L142.36853651174016,217.49983269463394L139.78924327247762,216.41268363124254L137.49089539628477,216.95092794592574L136.36607552470304,215.8995477819543L131.65925080493975,216.0680838229357M153.74657561231407,219.22877309117644L153.66348804563552,221.07827825158608L155.14711957171227,222.19921357337682L154.3547304751479,223.94472634942258L152.9989367047569,224.78343933860685L150.82519326621951,225.17858469931866L149.41413486021713,227.07821640995178L147.1622530756987,228.28065278822498L143.51420539470934,227.36069410547202L142.99321335182356,228.91265334320133L130.81015283040136,225.4165208996577L131.8126107704922,222.17504830358837M168.63356725202476,237.60167757946112L161.64466472829366,235.8129937965374L161.14094134003665,236.23655604813223L158.98993680518078,233.71790550231913L156.42613811928226,235.73930389194948L155.31209771245227,236.21589295714978L152.0979722924485,229.97570057125586L152.65125981824474,227.33941855005946L153.70593234930624,225.81670179037758L152.9989367047569,224.78343933860685M155.31209771245227,236.21589295714978L153.9698511960512,237.21746477538102L151.79007335380066,236.78128547591575L149.5058658350477,239.63386779722714L146.26308645897734,239.64716629143413L142.38078833383054,238.38102397639022L143.0361441734256,237.02796712631687L144.33432988462908,234.37933489423392L142.3682080427845,233.87983324424954L143.00846087134386,231.44613540902935L143.9231344379345,231.079979999516L142.99321335182356,228.91265334320133M130.81015283040136,225.4165208996577L130.3427784223283,229.510086940355L130.0754903901879,230.44785593526979L127.5548166318207,230.2536864539469L126.868599180302,231.92246557922738L127.06635687561652,235.3459863089995L125.56369218493671,236.12211231881645L124.84502707398497,237.91563841173502L125.91098109726562,239.7088830712412L125.94498809242373,241.62097716906112L127.47143869012274,243.0539891607591L123.86932014923451,241.96215793709314L122.82548110095598,242.50787329263437L119.6070292987456,241.62534040621063L117.14962946516727,241.62951304320234L115.28322286640179,238.1087907373443L116.43132124994878,236.24010342146096L116.25214538855289,229.91939812880946L117.99421001651996,226.81979413825127L118.4730190927607,224.60693546276138L118.51333999666775,221.05761794626892L117.1380756467276,217.35491248411074M143.0361441734256,237.02796712631687L139.77123959776566,235.50233278769565L139.63481827881606,236.0236023092025L131.35938910972845,233.71615443541134L132.4467923104367,230.13782506744087L130.3427784223283,229.510086940355M169.38888598675362,242.85324911719317L162.4392770884184,241.05485826619008L162.01797059060283,239.5988881489517L160.71001202663308,239.07541407556914L159.24363747363168,239.9239888272282L155.0927571293709,240.1170192655087L156.42613811928226,235.73930389194948M155.0927571293709,240.1170192655087L153.5328068576497,239.98832305587064L150.69222588939232,242.13623967803392L149.72137143066078,245.6998909512779L147.65700888931087,245.87715398172918L145.72496491340752,245.8190672253611L145.01794951375336,246.65482804056717L146.26308645897734,239.64716629143413M131.35938910972845,233.71615443541134L130.48785437131102,234.82608648543703L131.53966152584354,237.03876727458317L133.86922026003003,238.54621287952307L133.0397051591014,240.65902301233757L134.47199230702665,243.61334177468518L133.4018284861445,244.48491260261187L131.61819129009666,247.09465380768108L129.16054812712542,247.13057953114378L127.47143869012274,243.0539891607591M168.71245815169647,245.24829201287116L159.86751097390095,242.95038055870657L158.59304175434687,243.14504069961856L154.29096423638907,245.4281914950983L152.97958037328027,246.94721008940462L149.72137143066078,245.6998909512779M142.38078833383054,238.38102397639022L141.2388243193783,240.4970478941915L142.11953478677526,243.04912346877995L141.46816187004896,245.5781156429548L134.47199230702665,243.61334177468518M177.6097874498509,211.1972716096475L170.71615055150988,237.85315330636877L169.38888598675362,242.85324911719317L168.71245815169647,245.24829201287116L168.04865237130264,248.00549277284802L167.8091000530515,248.97496622588596L167.6109897041216,249.80453533952436L165.672371167905,249.2922932769966L164.1036868044597,249.7517277873319L161.65052889845174,249.04165523298525L158.95729836285642,250.53132459811138L156.6940938862129,248.07235072670562L152.19594299213992,248.9996049536719L150.00191610090565,252.0797396708465L145.37492782060974,250.3658884002217L146.55664889824016,246.96165455653636L147.65700888931087,245.87715398172918M145.37492782060974,250.3658884002217L143.7343310482148,249.90667016811335L142.65201304534065,248.98410838430743L142.6182185280163,247.3056147159549L141.46816187004896,245.5781156429548M168.34435843008777,252.60485344366066L168.35816615891667,253.9427206501224L164.90953046192476,256.20951336911423L160.73574034255353,258.22463542115725L156.19235308184358,257.81694618693234L154.58104497309944,256.3792784715605L150.66899177000602,256.23244847560693L150.40436795864065,252.1194465153601L150.00191610090565,252.0797396708465M171.81835564835836,257.83863075027216L170.81457512779411,259.4775788122656L171.36960909406173,261.83133711483345L169.2218165729467,264.63195741926654L168.0415242098556,262.5816425381421L166.0053202263661,263.17193166152754L164.40194987111443,261.24141194968934L163.9988320668117,259.727895699339L164.90953046192476,256.20951336911423M143.7343310482148,249.90667016811335L143.0578851561973,250.83788345836342L144.33698986043322,252.71409984420086L143.31213105764374,254.14865400064673L143.77279654598414,255.1180431318354L143.00480316991417,257.00793259981106L141.67676915859806,257.5938752561766L140.34838528127807,257.180215175277L141.4053210670143,253.36637667103355L138.03249258952002,252.27661807890274L135.6503837737937,252.00007608679937L134.75315490229372,245.34635844609454L133.4018284861445,244.48491260261187M135.6503837737937,252.00007608679937L134.88342202957494,253.51404783350722L135.17693802164996,255.7351445658195L133.1677881573127,255.16511318646178L132.3774250829926,257.61332439123555L131.17275579174628,257.7298349830065L131.05363676721606,257.6907439265509L129.5869583502947,257.29542950104565L129.57910592654105,257.24684150429357L130.41942573687652,256.98280180304494L130.5134771746092,254.61656941123545L129.17360135360195,249.45088182709276L129.16054812712542,247.13057953114378M129.57910592654105,257.24684150429357L128.1572666300782,257.73820888823707L127.63402239594905,256.6831470315743L125.18571047816289,255.02217086072153L123.56402459932724,252.47327924797446L122.00118682230237,252.3438997728449L121.04760805328272,249.04403327241073L118.82820898281125,246.1187467717698L117.14962946516727,241.62951304320234M150.66899177000602,256.23244847560693L149.66491580859855,260.07743343781044L144.0833593469926,259.9279149961769L143.19087344262869,259.0624539335589L141.01652776584064,261.41848791494044L139.3340899868321,261.407506703693L140.20301854743008,259.756125473108L141.67676915859806,257.5938752561766M167.6109897041216,249.80453533952436L167.31287340595657,251.04239369548225L168.34435843008777,252.60485344366066L171.81835564835836,257.83863075027216L174.5372668153026,261.90690059454084L176.40922377696097,264.7293191659717L184.38417389083054,276.7455713376096L190.9824514832169,286.66903154150214L177.52794225207555,283.48883501909256L174.55751700839312,280.37659781608465L173.85076179231584,277.39336251274426L171.74174181688,276.69493787848137L173.37842825158526,274.2071030929436L172.16426462410698,272.77948760318134L172.18970125536498,270.07385968553115L170.65698703029142,269.46401696242094L168.73195459864974,266.9844924077863L169.2218165729467,264.63195741926654M163.9988320668117,259.727895699339L160.1709198163303,259.60342190786037L158.89751024332872,259.13226968386857L155.9491204863494,259.81057166496L155.36695160404503,260.76814151142946L149.722693194597,261.50610009098443L149.66491580859855,260.07743343781044M131.05363676721606,257.6907439265509L131.37760450816933,259.32314271712175L129.5869583502947,257.29542950104565M140.20301854743008,259.756125473108L137.54761334756017,261.3571782993597L135.71434161311487,261.043258415932L134.36448208025587,259.06648281799926L132.81726210134002,260.41659295205284L131.52694692217568,259.52444042304717L131.17275579174628,257.7298349830065M164.40194987111443,261.24141194968934L161.91071594737758,261.8348248683866L155.09792883351844,268.2778511566527L152.5886284836211,269.9589674725762L149.94693034310762,264.45201353144125L149.722693194597,261.50610009098443M171.74174181688,276.69493787848137L171.3591536531626,275.84537541597956L168.74143518645332,272.7573082974575L166.62115061046228,274.0193936520957L164.2468356173777,274.3924572568801L162.28694711143322,273.7964321616656L160.66172973238452,272.13920187764586L155.40641029053597,274.54737161702724L152.5886284836211,269.9589674725762M127.63402239594905,256.6831470315743L128.17626591150957,257.8616535198539L127.04523123614774,261.015002371166L127.71350200559783,262.1069078370879L126.11908583106623,262.89719428679757L124.73936344623371,260.6783859379343L124.07192339397875,260.83805047569024L122.34887277222748,257.79437752668275L120.3859158437458,257.52114083614197L122.02796045604885,254.9706850250534L123.2056663557733,256.84907928750545L122.00118682230237,252.3438997728449M149.94693034310762,264.45201353144125L148.30128072414863,270.64315791021204L147.45456581741183,269.9718499756423L144.10215975880027,270.36235476107095L139.30063982861736,273.2092629119044L138.38659391374648,271.78746109945075L139.76772906974406,266.77570325037914L140.53693768094013,262.607074233597L141.01652776584064,261.41848791494044M139.76772906974406,266.77570325037914L133.5854208793432,266.9955127419895L132.8053160436695,265.21104970759404L131.52937078191053,264.73067204613665L129.57216307084468,262.35092171286885L128.8632303762642,260.84427263874534L131.07735716884991,259.73078229576686L132.50421532201693,260.7366400129655L134.56484494816175,260.6127174922284L138.31463448169143,262.40413703130207L140.51981465352014,261.4316972732305L140.53693768094013,262.607074233597M171.3591536531626,275.84537541597956L166.45399058633035,278.84286059936187L164.83239420706803,281.229012134143L163.23428303704037,280.81772787752936L158.1001266575887,284.0153813260789L156.98081028588194,282.665417039467L155.89896979869349,278.86048063496753L155.40641029053597,274.54737161702724L145.84692664189186,276.57278269952144L145.7857684191177,277.6734533828717L141.06530425863502,280.43272703824107L140.50600944680315,279.3651466965524L138.6691688672778,279.5049975578571L138.50548030366718,276.86279897383884L139.37756829034004,276.57779016971153L139.29262683652956,273.19865881742726L139.30063982861736,273.2092629119044M139.29262683652956,273.19865881742726L133.74634768716413,271.61487279966866L131.92612293236107,271.5316536039917L130.3986094533355,270.3088362758797L130.4989180266101,267.06698563792384L128.82472252995717,264.0603956535142L129.57216307084468,262.35092171286885M174.55751700839312,280.37659781608465L169.37477767405915,283.60003945242204L168.44223337469123,286.2150803746855L167.3589454907306,287.0555033493856L164.87943343144627,286.54422426116025L164.90465761827943,287.4804724471736L162.26032161377287,288.50959797759504L159.9007103379838,290.9302784020964L151.59000481238803,290.11972865770645L150.72203269909693,288.36185457844397L150.36612257702518,284.7381361640199L151.55524036403307,284.03044317366073L154.49682555356014,283.70572179038356L158.1001266575887,284.0153813260789M127.44013534124844,265.45459301091125L125.90962097256437,265.01944995636507L126.11736210862091,263.6648788183402L127.71872193554066,263.5400202429747L127.44013534124844,265.45459301091125L127.3272869461419,267.6922495825655L128.59529781009917,268.4453135507216L130.12142939448307,270.9621428247623L128.8839421330768,271.29165553413907L128.6782678402763,274.07658528044703L128.29876672661857,275.3429654394297L125.79113385524522,275.19371002695766L125.77175310020476,276.75291354831484L124.62865117153649,274.68053377546096L125.53463846134832,271.7347557697343L124.74621146629437,268.37523634126524L125.90962097256437,265.01944995636507M150.36612257702518,284.7381361640199L143.52105953206365,288.82071783060167L140.7954512921404,286.2260642402084L140.36029713793693,283.67333055789516L141.06530425863502,280.43272703824107M177.52794225207555,283.48883501909256L176.82313328827394,285.6398400237156L177.77882581336945,286.1983862339158L177.8124126465221,289.7936679203831L180.56788430179637,292.05003749055913L180.89519042008834,295.5024970072715L180.17156036023664,298.0191902636999L171.27655732969345,295.9400863793031L170.897948240936,297.4749899284078L166.3039687029218,296.30648460087457L165.89609284000954,297.87056043771133L163.52733477373056,297.25472082706847L161.57857678281795,298.4554526923499L159.98254815848298,299.4033626137914L155.67402587397993,298.69375978258086L154.63662729465386,302.65715849208107L148.18674851680322,306.3249028407282L144.32264678909604,301.3797746968145L145.08834915222826,299.70570196055746L144.6549973569946,298.3733964868103L146.1417168600987,297.5692293824038L146.905180482964,294.6644094198955L143.52105953206365,288.82071783060167M140.36029713793693,283.67333055789516L136.56554337031127,282.20800820565216L134.83760267321156,283.34691528898213L133.1009297306805,279.95924725536986L130.22995661110792,277.28592518422636L128.6782678402763,274.07658528044703M130.12142939448307,270.9621428247623L131.92612293236107,271.5316536039917M190.9824514832169,286.66903154150214L198.470423021611,297.949413628166L213.02461238573704,319.8683717034904L215.84920341105197,324.121164093183L214.5385606792595,324.14975815797993L203.3180825771783,321.7437050397589L186.6923319999022,317.9810912911473L181.21874752261743,316.87434936947375L181.9531562962565,315.47173864701256L181.72254516986953,307.04242055127145L182.27142898256113,306.58244064376925L180.73849034146923,303.30177422757856L180.8683268789651,301.07977051011403L180.17156036023664,298.0191902636999M134.83760267321156,283.34691528898213L133.91965727393676,283.2005539616547L132.55347909557258,282.54448821337655L131.44879156597563,283.28648435887715L130.12478622723347,280.5278012368601L127.63902826141549,280.25678999382274L125.77175310020476,276.75291354831484M144.6549973569946,298.3733964868103L143.15461890979122,299.2209842272848L141.30689519449123,296.6586675860258L139.71914098804427,297.20363574443854L139.71600165006708,295.96108715232594L137.66900908779388,291.8279725349299L136.70554718720717,291.62847303612637L137.14098505719045,289.66779401613417L135.3714044826093,287.69873672037295L135.81093991826742,287.00231418967167L133.91965727393676,283.2005539616547M148.18674851680322,306.3249028407282L149.05977163959693,308.86392282143345L132.69393880421825,304.36849303465624L131.4678573437456,302.2001220291197L131.53406457677352,300.395715583417L130.54895168625558,299.2980974184204L129.3540511351353,295.64806581420896L127.31168651487815,292.9205836890378L127.56845519828698,287.62318026612115L130.31043488818807,286.5618235408207L131.44879156597563,283.28648435887715M181.21874752261743,316.87434936947375L158.90436370076526,311.3612868728429L161.2682848133977,302.6459335732518L162.00638762784524,302.85002664179785L162.64460375079761,300.42841703128545L161.57857678281795,298.4554526923499M158.90436370076526,311.3612868728429L149.3739026286499,308.94046958159606L149.05977163959693,308.86392282143345M215.84920341105197,324.121164093183L227.83322951095653,342.14191615883146L227.3662502366762,344.57715913705556L229.17599031899852,347.9200440587682L229.30841427510995,350.19418945537814L230.21242738736572,353.1588020734316L232.71880949917977,356.4886730092194L230.4941283788787,358.546473306616L227.51600223187438,359.6041722481734L214.20491465221562,357.0533596213851L214.04608651440861,357.8514084180215L189.78501531532459,352.7028749652029L189.67368450394974,353.25072557784097L185.21199866479407,352.25298730960424L180.34325717573188,350.590710113049L177.96005034575506,353.1782427454301L176.60272967216133,351.4097516004557L177.70446852820032,350.20632912434417L180.11465282183008,345.6196908220976L182.05064877104485,335.7205225113861L182.57250735655816,335.83735958759337L186.6923319999022,317.9810912911473M149.3739026286499,308.94046958159606L148.5390935292918,312.10583455087783L150.09642177766864,312.5331415964929L149.68910179357334,314.1057489600488L150.55687428430178,316.0444731682452L152.251989372288,316.5162725401033L151.8623082988213,318.1214113072656L152.87848623930086,318.36933055978625L152.49481664151693,319.9560344441551L154.5706283472377,320.53258165876855L154.1836513210534,322.1203848249662L155.8564618765771,322.4622495670144L155.32077525434954,324.09160861992996L156.5655541752795,324.62626660465094L155.7493244229869,327.86355432781977L152.10410737096055,325.5028266714535L147.8273349912348,321.66234350265154L145.9791813147039,322.6565813801726L143.5768115253382,322.78778885842985L143.66808256526258,324.59145569594625L141.76174326501592,322.3689168397997L138.82348946286982,322.0215255553005L139.63877145048508,318.8641114662373L138.1420377246958,318.23466902582857L136.54376899667096,315.9513654797779L137.9775071749164,314.7271797311495L137.5828064023858,312.745197492486L136.0122110785814,311.79087003799L134.5348169769274,308.03768658474155L132.91492994486805,306.9795449010355L132.69393880421825,304.36849303465624M182.05064877104485,335.7205225113861L163.93051467649912,331.4863740519138L163.98841233567998,332.0745091166957L162.67572270479286,331.28692947615014L158.71762002067118,330.2653875314553L158.54676280490713,328.96840875599435L156.19617150407754,327.9865757002723L155.7493244229869,327.86355432781977M143.15975701797709,341.403310929044L143.94531371751975,343.4578898880927L141.48862161509163,343.74029055765504L140.30292522480937,341.217069009175L143.15975701797709,341.403310929044M145.55114855151066,341.2891107250931L150.39996690420026,344.0265491975664L147.7595958356011,344.0911582976463L145.87367712056397,343.47035878799625L145.55114855151066,341.2891107250931M156.19617150407754,327.9865757002723L154.21751166236635,335.7999714636528L153.29234532560923,337.4511450355137L152.15565421344672,336.3723730628375L147.50714843332202,335.3523168571329L145.85619240065853,333.88954279046254L141.64138138288155,332.58387055455296L138.93634410371442,332.30813271720206L138.68132653869657,330.7810422743121L136.97927052997932,329.2282236579068L138.25592824782672,327.05858822169955L138.76886593502132,324.6098740732443L138.16575967164061,323.2463561418932L138.82348946286982,322.0215255553005M147.41714324917865,357.10816262452977L148.6634679090336,358.427545759512L147.03910231522457,358.03541838302544L147.41714324917865,357.10816262452977M163.98841233567998,332.0745091166957L165.4028283197497,342.2393333459779L164.34347183972267,344.1771473888664L162.59120412371107,343.7436736769587L159.68802728794253,345.4294177469436L156.17077730496953,342.6065931288257L155.7461410045617,340.15101047754183L153.29234532560923,337.4511450355137M160.505366833395,365.2791215000219L162.9968299328561,369.56865656227967L161.08937588564055,368.8586499962397L160.505366833395,365.2791215000219M162.26329440818068,357.0323176491364L165.52729543732045,359.2073719880011L165.69587278841595,361.3206142655913L163.81461392821984,360.43284192765145L163.4989795431863,358.23116781669694L162.26329440818068,357.0323176491364M176.60272967216133,351.4097516004557L173.74072502144134,350.7296356257891L170.81463355063318,353.9104972709209L169.31451841711225,353.0680884828396L168.00973473247223,354.0303789132869L166.33128443385186,352.93523337255147L167.05743887400132,351.21411114312957L166.61881559646253,348.6681382876211L165.67341361955658,347.0135525214454L162.79792778739426,346.42667831017775L161.5766304087266,346.75575014547644L159.68802728794253,345.4294177469436M222.21803256694585,371.04203450610873L200.10221522564296,366.6628514007093L185.7645405444141,363.51665265321117L182.60883690577015,362.71091498100964L180.89529506301756,361.15782637928726L178.86770578170064,360.43859577407807L180.9541471221056,357.94407901709656L179.34462208649387,356.5664153881122L177.96005034575506,353.1782427454301M178.86770578170064,360.43859577407807L177.07026867370342,362.29918643916517L174.87631871625598,358.8093801798468L172.08490218019682,355.9497160902115L170.81463355063318,353.9104972709209M200.10221522564296,366.6628514007093L198.7599445232862,373.1333911723998L198.40796121874325,373.0712803994512L196.55211752644334,381.44691715672354L180.64167923199727,379.5552985129974L181.30849897915368,377.03739978586214L179.7388176024033,375.8188910977469L179.46486576895308,373.7395219821159L180.1300544723877,372.88482244952957L180.01448148630277,368.21094480076204L178.0811679239941,363.40831125211275L177.07026867370342,362.29918643916517M227.51600223187438,359.6041722481734L227.24391861641442,360.7034073345419L225.3842311350109,362.2942928807031L225.12546348076927,366.633027386339L224.1804625655015,369.2186917456388L222.21803256694585,371.04203450610873L220.6245766937733,371.30567786971426L220.12688386348236,373.2022029711667L220.83264865562506,373.96075035297906L219.7157889436295,377.22738340991293L220.05540306729733,378.2081098148608L222.4089510805602,378.94209049363667L222.7786561247906,381.2865735457649L221.24751032642706,383.8732328144781L218.16011706908762,383.99702027836065L196.55211752644334,381.44691715672354" style="fill: inherit; stroke: inherit; stroke-width: inherit;" vector-effect="non-scaling-stroke"></path></svg>