<?xml version="1.0" standalone="yes"?>
<svg xmlns="http://www.w3.org/2000/svg" version="1.2" id="root" viewBox="310.14798469871863 237.74369941421602 120.39153378630778 98.04816375672925"><style>
@import url("../../css/svg.css");</style><rect id="bbox" class="bbox" x="310.14798469871863" y="237.74369941421602" width="120.39153378630778" height="98.04816375672925"></rect><g id="counties"><path id="county-08123" class="county feature" d="M381.63812170458135,268.8929063677381L381.63812170458135,268.8929063677381L381.63812170458135,268.8929063677381ZM402.0779858927933,261.40465483818457L394.13633792596335,260.72869839982513L393.26146199269283,270.5519240985026L381.8129896118774,269.5287016739834L380.52123135648355,269.4069344790811L380.9546267158427,264.49742123287047L381.09111423853193,262.85629630547146L382.6534320878051,263.0077491682056L383.8325312316831,250.83739469845L396.2254413381485,251.8885658770614L402.90101139810776,252.43152877435807Z" style="fill: inherit; stroke: inherit; stroke-width: inherit;" vector-effect="non-scaling-stroke"><title>Weld County</title></path><path id="county-08107" class="county feature" d="M358.90646570007607,258.74289411429015L358.96625768101904,260.70188292491196L358.17048658978604,268.51564320894454L352.44426291819,267.97244412415307L352.7454655189711,264.7309601851906L353.0262462702236,262.2364439680773L347.3918471785097,261.5945895819931L348.25852121765206,255.64823968721498L349.9928701060951,254.75401335404558L350.83369486412096,247.21711675398012L357.2110195526866,247.96963670734567L357.1772668574333,249.4532661120644L359.27703162992657,250.373353673716L359.86456086158006,252.25470017872442L358.4863667011805,256.1577952322525Z" style="fill: inherit; stroke: inherit; stroke-width: inherit;" vector-effect="non-scaling-stroke"><title>Routt County</title></path><path id="county-08057" class="county feature" d="M370.1531572714192,259.17006319265977L368.4133636849907,261.6040963078343L367.6373788833563,261.0459727450608L364.5718642497118,261.6647586856169L364.15385251078374,260.9150774087516L361.51884568966204,260.7927008623527L361.1045537457553,259.61259645755626L359.3320333489273,260.0300546849511L358.90646570007607,258.74289411429015L358.4863667011805,256.1577952322525L359.86456086158006,252.25470017872442L359.27703162992657,250.373353673716L357.1772668574333,249.4532661120644L357.2110195526866,247.96963670734567L364.6872867695131,248.8742786847297L366.48067215588253,249.08991097629712L366.43152551723995,250.29729616497912L368.67922346404134,254.35802417703428Z" style="fill: inherit; stroke: inherit; stroke-width: inherit;" vector-effect="non-scaling-stroke"><title>Jackson County</title></path><path id="county-08081" class="county feature" d="M350.83369486412096,247.21711675398012L349.9928701060951,254.75401335404558L348.25852121765206,255.64823968721498L347.3918471785097,261.5945895819931L337.9351187873589,260.44844600660883L324.8045626695129,258.68056522835116L325.9507550076046,250.64370798854543L326.82056886044927,244.16458121615244L342.50598845655776,246.21133875669716Z" style="fill: inherit; stroke: inherit; stroke-width: inherit;" vector-effect="non-scaling-stroke"><title>Moffat County</title></path><path id="county-08075" class="county feature" d="M414.8296839710809,263.9675811732709L413.2154900605533,263.85321517304624L403.5857742109841,263.1687652111872L403.6840347295088,261.534103008418L402.0779858927933,261.40465483818457L402.90101139810776,252.43152877435807L405.57254678805646,252.63202793113464L415.7391359852725,253.38308238839102L415.43607738592425,258.13711438006953Z" style="fill: inherit; stroke: inherit; stroke-width: inherit;" vector-effect="non-scaling-stroke"><title>Logan County</title></path><path id="county-08115" class="county feature" d="M423.83075686655195,258.6958860092186L415.43607738592425,258.13711438006953L415.7391359852725,253.38308238839102L416.1896961177676,253.41256982941923L424.11863668308996,253.94402312802322Z" style="fill: inherit; stroke: inherit; stroke-width: inherit;" vector-effect="non-scaling-stroke"><title>Sedgwick County</title></path><path id="county-08069" class="county feature" d="M380.9546267158427,264.49742123287047L372.54705486331545,263.6926843615822L370.1531572714192,259.17006319265977L368.67922346404134,254.35802417703428L366.43152551723995,250.29729616497912L366.48067215588253,249.08991097629712L379.1880722668505,250.38982526322627L383.8325312316831,250.83739469845L382.6534320878051,263.0077491682056L381.09111423853193,262.85629630547146Z" style="fill: inherit; stroke: inherit; stroke-width: inherit;" vector-effect="non-scaling-stroke"><title>Larimer County</title></path><path id="county-08095" class="county feature" d="M423.83075686655195,258.6958860092186L423.7684430273883,259.6732619222298L423.4597290871345,264.5153575668653L414.8296839710809,263.9675811732709L415.43607738592425,258.13711438006953Z" style="fill: inherit; stroke: inherit; stroke-width: inherit;" vector-effect="non-scaling-stroke"><title>Phillips County</title></path><path id="county-08087" class="county feature" d="M402.0779858927933,261.40465483818457L403.6840347295088,261.534103008418L403.5857742109841,263.1687652111872L402.8465093788238,271.32927020320824L399.5394007928347,271.06768701019803L393.26146199269283,270.5519240985026L394.13633792596335,260.72869839982513Z" style="fill: inherit; stroke: inherit; stroke-width: inherit;" vector-effect="non-scaling-stroke"><title>Morgan County</title></path><path id="county-08049" class="county feature" d="M372.54705486331545,263.6926843615822L372.35953493626187,267.739257914061L371.6010727441403,269.8100018241631L371.2440569004081,271.2979470638577L368.52878613630526,272.01899728540957L367.6315374950823,273.8247506675266L366.24372207705414,273.8781374695527L365.53823426017664,271.52764839672875L363.5157253498263,269.35244072272917L360.87915918836313,268.81393748463097L358.17048658978604,268.51564320894454L358.96625768101904,260.70188292491196L358.90646570007607,258.74289411429015L359.3320333489273,260.0300546849511L361.1045537457553,259.61259645755626L361.51884568966204,260.7927008623527L364.15385251078374,260.9150774087516L364.5718642497118,261.6647586856169L367.6373788833563,261.0459727450608L368.4133636849907,261.6040963078343L370.1531572714192,259.17006319265977Z" style="fill: inherit; stroke: inherit; stroke-width: inherit;" vector-effect="non-scaling-stroke"><title>Grand County</title></path><path id="county-08125" class="county feature" d="M423.4597290871345,264.5153575668653L423.3508426957093,266.22321151491496L422.9307571612555,272.7321751955095L422.44175741201155,280.8037536206716L411.7193448406721,280.19434537284246L412.29518038084245,272.0209274104931L413.2154900605533,263.85321517304624L414.8296839710809,263.9675811732709Z" style="fill: inherit; stroke: inherit; stroke-width: inherit;" vector-effect="non-scaling-stroke"><title>Yuma County</title></path><path id="county-08121" class="county feature" d="M413.2154900605533,263.85321517304624L412.29518038084245,272.0209274104931L411.7193448406721,280.19434537284246L406.713240376576,279.8667049342647L398.85990866188837,279.2402670447842L399.1300738554374,275.9789791481653L399.5394007928347,271.06768701019803L402.8465093788238,271.32927020320824L403.5857742109841,263.1687652111872Z" style="fill: inherit; stroke: inherit; stroke-width: inherit;" vector-effect="non-scaling-stroke"><title>Washington County</title></path><path id="county-08013" class="county feature" d="M380.9546267158427,264.49742123287047L380.52123135648355,269.4069344790811L379.032551501378,270.901321311797L375.4919192197575,270.57209005603636L375.52285724989434,270.1570384023679L371.6010727441403,269.8100018241631L372.35953493626187,267.739257914061L372.54705486331545,263.6926843615822Z" style="fill: inherit; stroke: inherit; stroke-width: inherit;" vector-effect="non-scaling-stroke"><title>Boulder County</title></path><path id="county-08103" class="county feature" d="M352.7454655189711,264.7309601851906L348.8123754227945,264.2815758677626L348.3885654689082,267.56675172101257L346.80661031737077,267.32450212921106L346.60447498319354,268.9969453027985L339.44919599146147,268.1760267175399L339.14097052232455,270.61691258339226L330.43768392361756,269.50657351808377L330.334998508554,270.3182253630156L323.3491984838075,269.1752909022557L324.8045626695129,258.68056522835116L337.9351187873589,260.44844600660883L347.3918471785097,261.5945895819931L353.0262462702236,262.2364439680773Z" style="fill: inherit; stroke: inherit; stroke-width: inherit;" vector-effect="non-scaling-stroke"><title>Rio Blanco County</title></path><path id="county-08045" class="county feature" d="M352.7454655189711,264.7309601851906L352.44426291819,267.97244412415307L351.29118284568443,267.8334192867268L350.07506301832694,278.1861187474585L345.56933029038464,277.64716961321153L322.59608444295304,274.6627203048863L322.9290839464751,272.2154606488406L323.3491984838075,269.1752909022557L330.334998508554,270.3182253630156L330.43768392361756,269.50657351808377L339.14097052232455,270.61691258339226L339.44919599146147,268.1760267175399L346.60447498319354,268.9969453027985L346.80661031737077,267.32450212921106L348.3885654689082,267.56675172101257L348.8123754227945,264.2815758677626Z" style="fill: inherit; stroke: inherit; stroke-width: inherit;" vector-effect="non-scaling-stroke"><title>Garfield County</title></path><path id="county-08014" class="county feature" d="M381.8129896118774,269.5287016739834L380.3661278042124,271.03041355613175L379.032551501378,270.901321311797L380.52123135648355,269.4069344790811ZM381.63812170458135,268.8929063677381L381.63812170458135,268.8929063677381L381.63812170458135,268.8929063677381Z" style="fill: inherit; stroke: inherit; stroke-width: inherit;" vector-effect="non-scaling-stroke"><title>Broomfield County</title></path><path id="county-08001" class="county feature" d="M399.5394007928347,271.06768701019803L399.1300738554374,275.9789791481653L382.4343258678838,274.511894843709L384.59505540105613,274.1596123252293L384.3446937032694,273.1522999111529L386.3349074561424,273.23310880755673L386.7329882067094,271.8938609634977L384.8742577161044,271.74119008786977L383.8674888006368,273.54735359510437L380.1411349709841,273.33177097678913L380.3661278042124,271.03041355613175L381.8129896118774,269.5287016739834L393.26146199269283,270.5519240985026Z" style="fill: inherit; stroke: inherit; stroke-width: inherit;" vector-effect="non-scaling-stroke"><title>Adams County</title></path><path id="county-08047" class="county feature" d="M375.4919192197575,270.57209005603636L375.1783160480925,273.68164431404307L373.1605437490669,272.97725788901414L371.2440569004081,271.2979470638577L371.6010727441403,269.8100018241631L375.52285724989434,270.1570384023679Z" style="fill: inherit; stroke: inherit; stroke-width: inherit;" vector-effect="non-scaling-stroke"><title>Gilpin County</title></path><path id="county-08037" class="county feature" d="M360.87915918836313,268.81393748463097L361.2485300182221,271.8459149272818L363.8677223579608,274.3211162882534L362.48545454602976,277.1579646492903L362.9927608244727,279.3842921673436L359.8336580428012,279.3761884514621L350.07506301832694,278.1861187474585L351.29118284568443,267.8334192867268L352.44426291819,267.97244412415307L358.17048658978604,268.51564320894454Z" style="fill: inherit; stroke: inherit; stroke-width: inherit;" vector-effect="non-scaling-stroke"><title>Eagle County</title></path><path id="county-08117" class="county feature" d="M367.6315374950823,273.8247506675266L369.374951802939,275.1962636748874L368.71748145050594,276.4779732969331L365.64845548019525,279.94187464559207L363.9979431904788,279.49329575410695L362.9927608244727,279.3842921673436L362.48545454602976,277.1579646492903L363.8677223579608,274.3211162882534L361.2485300182221,271.8459149272818L360.87915918836313,268.81393748463097L363.5157253498263,269.35244072272917L365.53823426017664,271.52764839672875L366.24372207705414,273.8781374695527Z" style="fill: inherit; stroke: inherit; stroke-width: inherit;" vector-effect="non-scaling-stroke"><title>Summit County</title></path><path id="county-08059" class="county feature" d="M380.3661278042124,271.03041355613175L380.1411349709841,273.33177097678913L379.819420264438,276.64525822085113L379.7987988508694,277.5607669324686L376.58430800187443,283.31196756816223L375.01845903688957,285.3616404960643L374.9928322374551,285.35911680214724L374.03422428720216,285.26639881296785L374.8314759859205,277.0741262810502L375.1783160480925,273.68164431404307L375.4919192197575,270.57209005603636L379.032551501378,270.901321311797Z" style="fill: inherit; stroke: inherit; stroke-width: inherit;" vector-effect="non-scaling-stroke"><title>Jefferson County</title></path><path id="county-08031" class="county feature" d="M382.4343258678838,274.511894843709L381.81739938293947,276.65363558487763L381.0496771329218,275.75434050929755L379.819420264438,276.64525822085113L380.1411349709841,273.33177097678913L383.8674888006368,273.54735359510437L384.8742577161044,271.74119008786977L386.7329882067094,271.8938609634977L386.3349074561424,273.23310880755673L384.3446937032694,273.1522999111529L384.59505540105613,274.1596123252293Z" style="fill: inherit; stroke: inherit; stroke-width: inherit;" vector-effect="non-scaling-stroke"><title>Denver County</title></path><path id="county-08019" class="county feature" d="M375.1783160480925,273.68164431404307L374.8314759859205,277.0741262810502L368.71748145050594,276.4779732969331L369.374951802939,275.1962636748874L367.6315374950823,273.8247506675266L368.52878613630526,272.01899728540957L371.2440569004081,271.2979470638577L373.1605437490669,272.97725788901414Z" style="fill: inherit; stroke: inherit; stroke-width: inherit;" vector-effect="non-scaling-stroke"><title>Clear Creek County</title></path><path id="county-08005" class="county feature" d="M399.1300738554374,275.9789791481653L398.85990866188837,279.2402670447842L398.75794611781123,279.2309608681895L385.3134443374065,278.0780593152973L379.7987988508694,277.5607669324686L379.819420264438,276.64525822085113L381.0496771329218,275.75434050929755L381.81739938293947,276.65363558487763L382.4343258678838,274.511894843709Z" style="fill: inherit; stroke: inherit; stroke-width: inherit;" vector-effect="non-scaling-stroke"><title>Arapahoe County</title></path><path id="county-08063" class="county feature" d="M422.44175741201155,280.8037536206716L422.43473660626455,280.913899285237L421.9541333521497,289.1014915094686L421.8612008196241,290.72234032546226L405.84614838404866,289.7863154718317L406.713240376576,279.8667049342647L411.7193448406721,280.19434537284246Z" style="fill: inherit; stroke: inherit; stroke-width: inherit;" vector-effect="non-scaling-stroke"><title>Kit Carson County</title></path><path id="county-08035" class="county feature" d="M385.3134443374065,278.0780593152973L384.5290275053034,286.26654917603116L379.23756116348966,285.76742039671296L375.01845903688957,285.3616404960643L376.58430800187443,283.31196756816223L379.7987988508694,277.5607669324686Z" style="fill: inherit; stroke: inherit; stroke-width: inherit;" vector-effect="non-scaling-stroke"><title>Douglas County</title></path><path id="county-08039" class="county feature" d="M398.75794611781123,279.2309608681895L397.6114516726361,292.36888948750084L392.7931320804595,291.9315064912L393.2688395423092,287.06244403278686L384.5290275053034,286.26654917603116L385.3134443374065,278.0780593152973Z" style="fill: inherit; stroke: inherit; stroke-width: inherit;" vector-effect="non-scaling-stroke"><title>Elbert County</title></path><path id="county-08073" class="county feature" d="M406.713240376576,279.8667049342647L405.84614838404866,289.7863154718317L405.09770760801155,297.76938758109293L404.97908354800876,299.4070512840867L400.1764368553327,299.20412839963444L392.26593316189076,298.44340871414045L392.7931320804595,291.9315064912L397.6114516726361,292.36888948750084L398.75794611781123,279.2309608681895L398.85990866188837,279.2402670447842Z" style="fill: inherit; stroke: inherit; stroke-width: inherit;" vector-effect="non-scaling-stroke"><title>Lincoln County</title></path><path id="county-08093" class="county feature" d="M374.8314759859205,277.0741262810502L374.03422428720216,285.26639881296785L374.9928322374551,285.35911680214724L374.2141202954774,293.47720344218976L365.0066564725796,292.60738687696096L366.1359291173985,290.5769868584407L364.6668815068027,287.84570344924987L363.4522347303897,287.7440224372276L362.56451210513154,285.4730858508997L363.17953048080545,280.719320334573L363.9979431904788,279.49329575410695L365.64845548019525,279.94187464559207L368.71748145050594,276.4779732969331Z" style="fill: inherit; stroke: inherit; stroke-width: inherit;" vector-effect="non-scaling-stroke"><title>Park County</title></path><path id="county-08065" class="county feature" d="M362.9927608244727,279.3842921673436L363.9979431904788,279.49329575410695L363.17953048080545,280.719320334573L362.56451210513154,285.4730858508997L357.03872984859646,284.8332961151399L358.5152372477923,282.36961326819824L358.8768246784439,280.2271798097171L359.8336580428012,279.3761884514621Z" style="fill: inherit; stroke: inherit; stroke-width: inherit;" vector-effect="non-scaling-stroke"><title>Lake County</title></path><path id="county-08077" class="county feature" d="M345.56933029038464,277.64716961321153L345.8413538028069,279.7669752193525L344.2380910153256,280.3023051633612L340.06888097352436,283.1067287591869L338.76589592368487,282.267227043347L337.0182227137205,282.4071797162252L334.40515131706445,284.9469366983915L330.80355928165,285.9923686455428L330.4140487230526,289.00594679273956L329.99212363554443,292.14717602826124L320.23051031631996,290.8329359390259L322.59608444295304,274.6627203048863Z" style="fill: inherit; stroke: inherit; stroke-width: inherit;" vector-effect="non-scaling-stroke"><title>Mesa County</title></path><path id="county-08097" class="county feature" d="M359.8336580428012,279.3761884514621L358.8768246784439,280.2271798097171L358.5152372477923,282.36961326819824L357.03872984859646,284.8332961151399L356.61579292005734,285.9233139290641L354.58053315601205,284.8692373481596L353.6770731602081,285.9641051004079L351.01993089461735,284.59675606451174L350.19628501111333,282.8937704564037L347.1267076669846,282.5342521155312L345.8413538028069,279.7669752193525L345.56933029038464,277.64716961321153L350.07506301832694,278.1861187474585Z" style="fill: inherit; stroke: inherit; stroke-width: inherit;" vector-effect="non-scaling-stroke"><title>Pitkin County</title></path><path id="county-08051" class="county feature" d="M345.8413538028069,279.7669752193525L347.1267076669846,282.5342521155312L350.19628501111333,282.8937704564037L351.01993089461735,284.59675606451174L353.6770731602081,285.9641051004079L354.58053315601205,284.8692373481596L356.61579292005734,285.9233139290641L358.43894859700526,287.7922881590722L360.3816819494258,288.2755234536129L359.00662740780314,289.388420094916L358.09405357762853,291.7630390203093L359.01043622704833,293.0072040231172L359.1608656657276,295.0178096012793L360.4798154757813,297.26028396824483L349.63327776634196,295.9877611759223L349.0213051786883,301.2062494432814L340.8266426936453,300.2266387233136L340.22434692632976,297.2135232516938L342.1634334081995,297.4496778689455L342.98773468119913,290.5846828412783L344.2380910153256,280.3023051633612Z" style="fill: inherit; stroke: inherit; stroke-width: inherit;" vector-effect="non-scaling-stroke"><title>Gunnison County</title></path><path id="county-08029" class="county feature" d="M344.2380910153256,280.3023051633612L342.98773468119913,290.5846828412783L330.4140487230526,289.00594679273956L330.80355928165,285.9923686455428L334.40515131706445,284.9469366983915L337.0182227137205,282.4071797162252L338.76589592368487,282.267227043347L340.06888097352436,283.1067287591869Z" style="fill: inherit; stroke: inherit; stroke-width: inherit;" vector-effect="non-scaling-stroke"><title>Delta County</title></path><path id="county-08119" class="county feature" d="M379.23756116348966,285.76742039671296L378.8375150295084,290.67179978470347L378.0900190886279,291.917007011406L379.99637064880733,292.145999554358L379.6844996142671,294.9001410303724L375.3968634226345,294.53351755826907L374.2141202954774,293.47720344218976L374.9928322374551,285.35911680214724L375.01845903688957,285.3616404960643Z" style="fill: inherit; stroke: inherit; stroke-width: inherit;" vector-effect="non-scaling-stroke"><title>Teller County</title></path><path id="county-08041" class="county feature" d="M384.5290275053034,286.26654917603116L393.2688395423092,287.06244403278686L392.7931320804595,291.9315064912L392.26593316189076,298.44340871414045L379.4691430764175,297.3480757174524L379.6844996142671,294.9001410303724L379.99637064880733,292.145999554358L378.0900190886279,291.917007011406L378.8375150295084,290.67179978470347L379.23756116348966,285.76742039671296Z" style="fill: inherit; stroke: inherit; stroke-width: inherit;" vector-effect="non-scaling-stroke"><title>El Paso County</title></path><path id="county-08015" class="county feature" d="M362.56451210513154,285.4730858508997L363.4522347303897,287.7440224372276L364.6668815068027,287.84570344924987L366.1359291173985,290.5769868584407L365.0066564725796,292.60738687696096L366.0600547529972,294.0937580938662L365.5138175302189,296.2242767624638L363.9293968053927,297.17902924892223L360.4798154757813,297.26028396824483L359.1608656657276,295.0178096012793L359.01043622704833,293.0072040231172L358.09405357762853,291.7630390203093L359.00662740780314,289.388420094916L360.3816819494258,288.2755234536129L358.43894859700526,287.7922881590722L356.61579292005734,285.9233139290641L357.03872984859646,284.8332961151399Z" style="fill: inherit; stroke: inherit; stroke-width: inherit;" vector-effect="non-scaling-stroke"><title>Chaffee County</title></path><path id="county-08017" class="county feature" d="M421.8612008196241,290.72234032546226L421.45772027139907,297.30058064084926L421.36419716900804,298.85055087964554L405.09770760801155,297.76938758109293L405.84614838404866,289.7863154718317Z" style="fill: inherit; stroke: inherit; stroke-width: inherit;" vector-effect="non-scaling-stroke"><title>Cheyenne County</title></path><path id="county-08043" class="county feature" d="M379.6844996142671,294.9001410303724L379.4691430764175,297.3480757174524L379.021777010131,302.25576197696296L377.4489676521911,302.11257237259736L366.65899417450123,300.9049210208175L363.9293968053927,297.17902924892223L365.5138175302189,296.2242767624638L366.0600547529972,294.0937580938662L365.0066564725796,292.60738687696096L374.2141202954774,293.47720344218976L375.3968634226345,294.53351755826907Z" style="fill: inherit; stroke: inherit; stroke-width: inherit;" vector-effect="non-scaling-stroke"><title>Fremont County</title></path><path id="county-08085" class="county feature" d="M342.98773468119913,290.5846828412783L342.1634334081995,297.4496778689455L340.22434692632976,297.2135232516938L340.28377417510893,296.6452164918536L333.13233767451095,295.7565406946726L333.6107468177054,297.27003262884693L335.67112329007927,298.2200565957513L335.1044147010232,299.4165433144791L319.5875308598718,297.34998316527685L320.23051031631996,290.8329359390259L329.99212363554443,292.14717602826124L330.4140487230526,289.00594679273956Z" style="fill: inherit; stroke: inherit; stroke-width: inherit;" vector-effect="non-scaling-stroke"><title>Montrose County</title></path><path id="county-08061" class="county feature" d="M421.36419716900804,298.85055087964554L420.95419931756703,305.37014289852186L410.83841474673704,304.7231350941081L401.32028105794177,304.04109422549254L399.8440666720575,303.93325829748005L400.1764368553327,299.20412839963444L404.97908354800876,299.4070512840867L405.09770760801155,297.76938758109293Z" style="fill: inherit; stroke: inherit; stroke-width: inherit;" vector-effect="non-scaling-stroke"><title>Kiowa County</title></path><path id="county-08101" class="county feature" d="M392.26593316189076,298.44340871414045L391.60363393318414,305.5003399999399L390.90418399340007,313.23441303857874L386.81528758609824,311.3146763585013L382.6594127241085,309.3686954384658L377.2900309019301,309.23262919694366L376.8245263709232,308.54108168571054L377.4489676521911,302.11257237259736L379.021777010131,302.25576197696296L379.4691430764175,297.3480757174524Z" style="fill: inherit; stroke: inherit; stroke-width: inherit;" vector-effect="non-scaling-stroke"><title>Pueblo County</title></path><path id="county-08025" class="county feature" d="M400.1764368553327,299.20412839963444L399.8440666720575,303.93325829748005L399.59200279564425,305.66411819184793L397.99871171695645,305.556344882124L397.9109368303865,306.6488666516907L394.81304453748356,306.4056209831864L391.60363393318414,305.5003399999399L392.26593316189076,298.44340871414045Z" style="fill: inherit; stroke: inherit; stroke-width: inherit;" vector-effect="non-scaling-stroke"><title>Crowley County</title></path><path id="county-08109" class="county feature" d="M363.9293968053927,297.17902924892223L366.65899417450123,300.9049210208175L368.17312249745453,303.3141008090421L369.1586560426336,306.74485383614035L370.6380422047368,308.30577994048735L370.59656627345885,311.04114636395775L362.13814092193843,310.2285932462868L354.1748811960902,309.3713307761964L354.3460822440719,307.7463515769532L352.800545613742,307.5573059623391L352.87754425788626,306.875852305663L350.1281156553805,304.7361814335012L348.6106109034249,304.78390900909415L349.0213051786883,301.2062494432814L349.63327776634196,295.9877611759223L360.4798154757813,297.26028396824483Z" style="fill: inherit; stroke: inherit; stroke-width: inherit;" vector-effect="non-scaling-stroke"><title>Saguache County</title></path><path id="county-08091" class="county feature" d="M340.22434692632976,297.2135232516938L340.8266426936453,300.2266387233136L341.4474395483587,301.9525256648518L340.40449989598335,303.63460573857355L337.8146332755314,304.4473514162004L337.7695007527947,303.5363260181118L335.7631831702467,301.8735546440628L336.0909520303108,300.23121759794265L335.1044147010232,299.4165433144791L335.67112329007927,298.2200565957513L333.6107468177054,297.27003262884693L333.13233767451095,295.7565406946726L340.28377417510893,296.6452164918536Z" style="fill: inherit; stroke: inherit; stroke-width: inherit;" vector-effect="non-scaling-stroke"><title>Ouray County</title></path><path id="county-08099" class="county feature" d="M420.95419931756703,305.37014289852186L420.9413367618361,305.4901110857262L420.35013165011406,315.35105775893066L420.2477396883336,317.12489524818363L409.9318737311234,316.44195445165235L410.83841474673704,304.7231350941081Z" style="fill: inherit; stroke: inherit; stroke-width: inherit;" vector-effect="non-scaling-stroke"><title>Prowers County</title></path><path id="county-08027" class="county feature" d="M377.4489676521911,302.11257237259736L376.8245263709232,308.54108168571054L375.2871763007346,306.4322633315627L373.38635166191267,308.5106870893053L373.0188591042818,307.751938117327L370.6380422047368,308.30577994048735L369.1586560426336,306.74485383614035L368.17312249745453,303.3141008090421L366.65899417450123,300.9049210208175Z" style="fill: inherit; stroke: inherit; stroke-width: inherit;" vector-effect="non-scaling-stroke"><title>Custer County</title></path><path id="county-08011" class="county feature" d="M410.83841474673704,304.7231350941081L409.9318737311234,316.44195445165235L405.14030787937077,316.09694823035136L400.34533807453636,315.7269159204428L401.32028105794177,304.04109422549254Z" style="fill: inherit; stroke: inherit; stroke-width: inherit;" vector-effect="non-scaling-stroke"><title>Bent County</title></path><path id="county-08089" class="county feature" d="M401.32028105794177,304.04109422549254L400.34533807453636,315.7269159204428L390.8012300199539,314.94173053778786L390.90418399340007,313.23441303857874L391.60363393318414,305.5003399999399L394.81304453748356,306.4056209831864L397.9109368303865,306.6488666516907L397.99871171695645,305.556344882124L399.59200279564425,305.66411819184793L399.8440666720575,303.93325829748005Z" style="fill: inherit; stroke: inherit; stroke-width: inherit;" vector-effect="non-scaling-stroke"><title>Otero County</title></path><path id="county-08113" class="county feature" d="M335.1044147010232,299.4165433144791L336.0909520303108,300.23121759794265L335.7631831702467,301.8735546440628L337.7695007527947,303.5363260181118L337.8146332755314,304.4473514162004L335.7374507453904,306.657552022148L334.05610516071164,304.90273291834364L330.77811882144397,305.16124948227446L330.2803367138905,303.69950008685544L322.17727453102725,302.6049796808238L318.89674898141925,302.4289251044761L319.5875308598718,297.34998316527685Z" style="fill: inherit; stroke: inherit; stroke-width: inherit;" vector-effect="non-scaling-stroke"><title>San Miguel County</title></path><path id="county-08053" class="county feature" d="M349.0213051786883,301.2062494432814L348.6106109034249,304.78390900909415L346.58177167496206,304.8729088064042L345.89670963601577,309.7932014647546L345.58029588483146,314.55178535195637L340.42899349258425,313.9412344128684L340.9165952832361,309.88108877660204L341.2086144623021,307.4757103673006L340.40449989598335,303.63460573857355L341.4474395483587,301.9525256648518L340.8266426936453,300.2266387233136Z" style="fill: inherit; stroke: inherit; stroke-width: inherit;" vector-effect="non-scaling-stroke"><title>Hinsdale County</title></path><path id="county-08055" class="county feature" d="M376.8245263709232,308.54108168571054L377.2900309019301,309.23262919694366L382.6594127241085,309.3686954384658L386.81528758609824,311.3146763585013L385.17224674683064,312.6192048688805L383.531526082239,315.6177477792212L380.29221061018563,318.54349471584624L377.6088509229263,318.4671194272993L374.18425630652905,320.07767055780005L374.62149464886147,318.0744189841124L374.3061569927862,313.9497971460936L372.75969974508257,313.01933310397817L369.8632254885712,314.2560398863534L370.59656627345885,311.04114636395775L370.6380422047368,308.30577994048735L373.0188591042818,307.751938117327L373.38635166191267,308.5106870893053L375.2871763007346,306.4322633315627Z" style="fill: inherit; stroke: inherit; stroke-width: inherit;" vector-effect="non-scaling-stroke"><title>Huerfano County</title></path><path id="county-08111" class="county feature" d="M340.40449989598335,303.63460573857355L341.2086144623021,307.4757103673006L340.9165952832361,309.88108877660204L333.8016808378899,308.9976983570473L333.9758434506723,307.95682536344646L335.7374507453904,306.657552022148L337.8146332755314,304.4473514162004Z" style="fill: inherit; stroke: inherit; stroke-width: inherit;" vector-effect="non-scaling-stroke"><title>San Juan County</title></path><path id="county-08079" class="county feature" d="M352.800545613742,307.5573059623391L351.64168744340975,315.60611291755004L345.51296259338324,315.1242029628809L345.58029588483146,314.55178535195637L345.89670963601577,309.7932014647546L346.58177167496206,304.8729088064042L348.6106109034249,304.78390900909415L350.1281156553805,304.7361814335012L352.87754425788626,306.875852305663Z" style="fill: inherit; stroke: inherit; stroke-width: inherit;" vector-effect="non-scaling-stroke"><title>Mineral County</title></path><path id="county-08033" class="county feature" d="M335.7374507453904,306.657552022148L333.9758434506723,307.95682536344646L333.8016808378899,308.9976983570473L320.0606808630582,307.3353054786261L317.8478058885994,309.83280310491887L318.89674898141925,302.4289251044761L322.17727453102725,302.6049796808238L330.2803367138905,303.69950008685544L330.77811882144397,305.16124948227446L334.05610516071164,304.90273291834364Z" style="fill: inherit; stroke: inherit; stroke-width: inherit;" vector-effect="non-scaling-stroke"><title>Dolores County</title></path><path id="county-08105" class="county feature" d="M352.800545613742,307.5573059623391L354.3460822440719,307.7463515769532L354.1748811960902,309.3713307761964L362.13814092193843,310.2285932462868L361.4365959838515,316.7458379575578L352.111895994145,315.67147886295106L351.64168744340975,315.60611291755004Z" style="fill: inherit; stroke: inherit; stroke-width: inherit;" vector-effect="non-scaling-stroke"><title>Rio Grande County</title></path><path id="county-08071" class="county feature" d="M400.34533807453636,315.7269159204428L405.14030787937077,316.09694823035136L404.08485580466606,328.180639183524L390.5063176368027,327.17736206358813L373.6283172334229,325.6665778293774L374.18425630652905,320.07767055780005L377.6088509229263,318.4671194272993L380.29221061018563,318.54349471584624L383.531526082239,315.6177477792212L385.17224674683064,312.6192048688805L386.81528758609824,311.3146763585013L390.90418399340007,313.23441303857874L390.8012300199539,314.94173053778786Z" style="fill: inherit; stroke: inherit; stroke-width: inherit;" vector-effect="non-scaling-stroke"><title>Las Animas County</title></path><path id="county-08003" class="county feature" d="M370.59656627345885,311.04114636395775L369.8632254885712,314.2560398863534L365.678612002181,318.02302313800385L361.359836143804,317.5699079471043L361.4365959838515,316.7458379575578L362.13814092193843,310.2285932462868Z" style="fill: inherit; stroke: inherit; stroke-width: inherit;" vector-effect="non-scaling-stroke"><title>Alamosa County</title></path><path id="county-08023" class="county feature" d="M374.18425630652905,320.07767055780005L373.6283172334229,325.6665778293774L372.66235733968267,325.57494123456195L365.3460856235341,324.83033008688005L364.66816758906964,323.8065192856171L365.8837973401975,319.3831186479656L365.678612002181,318.02302313800385L369.8632254885712,314.2560398863534L372.75969974508257,313.01933310397817L374.3061569927862,313.9497971460936L374.62149464886147,318.0744189841124Z" style="fill: inherit; stroke: inherit; stroke-width: inherit;" vector-effect="non-scaling-stroke"><title>Costilla County</title></path><path id="county-08009" class="county feature" d="M420.2477396883336,317.12489524818363L419.94214896436256,321.9257130698645L419.45760267121017,329.37098136900886L405.3218467189446,328.2755348152516L404.08485580466606,328.180639183524L405.14030787937077,316.09694823035136L409.9318737311234,316.44195445165235Z" style="fill: inherit; stroke: inherit; stroke-width: inherit;" vector-effect="non-scaling-stroke"><title>Baca County</title></path><path id="county-08083" class="county feature" d="M333.8016808378899,308.9976983570473L332.9518123430248,309.8057677534366L332.4932956771928,312.1583065617358L329.7047196804716,314.0883532923607L328.14729923941593,316.2020218818461L327.97165055654625,317.63471445514347L326.31704848851086,320.20326735507035L316.568866500655,318.8997797047822L317.8478058885994,309.83280310491887L320.0606808630582,307.3353054786261Z" style="fill: inherit; stroke: inherit; stroke-width: inherit;" vector-effect="non-scaling-stroke"><title>Montezuma County</title></path><path id="county-08067" class="county feature" d="M340.9165952832361,309.88108877660204L340.42899349258425,313.9412344128684L339.47369622691957,321.85431350846466L326.31704848851086,320.20326735507035L327.97165055654625,317.63471445514347L328.14729923941593,316.2020218818461L329.7047196804716,314.0883532923607L332.4932956771928,312.1583065617358L332.9518123430248,309.8057677534366L333.8016808378899,308.9976983570473Z" style="fill: inherit; stroke: inherit; stroke-width: inherit;" vector-effect="non-scaling-stroke"><title>La Plata County</title></path><path id="county-08007" class="county feature" d="M345.58029588483146,314.55178535195637L345.51296259338324,315.1242029628809L351.64168744340975,315.60611291755004L352.111895994145,315.67147886295106L351.7417871726258,318.9517916111174L354.2121207714081,323.68271206474265L340.3579439511177,321.96137207458753L339.47369622691957,321.85431350846466L340.42899349258425,313.9412344128684Z" style="fill: inherit; stroke: inherit; stroke-width: inherit;" vector-effect="non-scaling-stroke"><title>Archuleta County</title></path><path id="county-08021" class="county feature" d="M352.111895994145,315.67147886295106L361.4365959838515,316.7458379575578L361.359836143804,317.5699079471043L365.678612002181,318.02302313800385L365.8837973401975,319.3831186479656L364.66816758906964,323.8065192856171L365.3460856235341,324.83033008688005L361.1103308142375,324.39938369660877L354.2121207714081,323.68271206474265L351.7417871726258,318.9517916111174Z" style="fill: inherit; stroke: inherit; stroke-width: inherit;" vector-effect="non-scaling-stroke"><title>Conejos County</title></path></g><path id="counties-mesh" class="counties mesh" d="M381.63812170458135,268.8929063677381L381.63812170458135,268.8929063677381M402.90101139810776,252.43152877435807L402.0779858927933,261.40465483818457L394.13633792596335,260.72869839982513L393.26146199269283,270.5519240985026L381.8129896118774,269.5287016739834L380.52123135648355,269.4069344790811L380.9546267158427,264.49742123287047L381.09111423853193,262.85629630547146L382.6534320878051,263.0077491682056L383.8325312316831,250.83739469845M357.2110195526866,247.96963670734567L357.1772668574333,249.4532661120644L359.27703162992657,250.373353673716L359.86456086158006,252.25470017872442L358.4863667011805,256.1577952322525L358.90646570007607,258.74289411429015L358.96625768101904,260.70188292491196L358.17048658978604,268.51564320894454L352.44426291819,267.97244412415307L352.7454655189711,264.7309601851906L353.0262462702236,262.2364439680773L347.3918471785097,261.5945895819931L348.25852121765206,255.64823968721498L349.9928701060951,254.75401335404558L350.83369486412096,247.21711675398012M366.48067215588253,249.08991097629712L366.43152551723995,250.29729616497912L368.67922346404134,254.35802417703428L370.1531572714192,259.17006319265977L368.4133636849907,261.6040963078343L367.6373788833563,261.0459727450608L364.5718642497118,261.6647586856169L364.15385251078374,260.9150774087516L361.51884568966204,260.7927008623527L361.1045537457553,259.61259645755626L359.3320333489273,260.0300546849511L358.90646570007607,258.74289411429015M415.7391359852725,253.38308238839102L415.43607738592425,258.13711438006953L414.8296839710809,263.9675811732709L413.2154900605533,263.85321517304624L403.5857742109841,263.1687652111872L403.6840347295088,261.534103008418L402.0779858927933,261.40465483818457M423.83075686655195,258.6958860092186L415.43607738592425,258.13711438006953M380.9546267158427,264.49742123287047L372.54705486331545,263.6926843615822L370.1531572714192,259.17006319265977M352.44426291819,267.97244412415307L351.29118284568443,267.8334192867268L350.07506301832694,278.1861187474585L345.56933029038464,277.64716961321153L322.59608444295304,274.6627203048863L322.9290839464751,272.2154606488406L323.3491984838075,269.1752909022557L324.8045626695129,258.68056522835116M347.3918471785097,261.5945895819931L337.9351187873589,260.44844600660883L324.8045626695129,258.68056522835116L325.9507550076046,250.64370798854543L326.82056886044927,244.16458121615244L342.50598845655776,246.21133875669716L350.83369486412096,247.21711675398012L357.2110195526866,247.96963670734567L364.6872867695131,248.8742786847297L366.48067215588253,249.08991097629712L379.1880722668505,250.38982526322627L383.8325312316831,250.83739469845L396.2254413381485,251.8885658770614L402.90101139810776,252.43152877435807L405.57254678805646,252.63202793113464L415.7391359852725,253.38308238839102L416.1896961177676,253.41256982941923L424.11863668308996,253.94402312802322L423.83075686655195,258.6958860092186L423.7684430273883,259.6732619222298L423.4597290871345,264.5153575668653L414.8296839710809,263.9675811732709M403.5857742109841,263.1687652111872L402.8465093788238,271.32927020320824L399.5394007928347,271.06768701019803L393.26146199269283,270.5519240985026M372.54705486331545,263.6926843615822L372.35953493626187,267.739257914061L371.6010727441403,269.8100018241631L371.2440569004081,271.2979470638577L368.52878613630526,272.01899728540957L367.6315374950823,273.8247506675266L366.24372207705414,273.8781374695527L365.53823426017664,271.52764839672875L363.5157253498263,269.35244072272917L360.87915918836313,268.81393748463097L358.17048658978604,268.51564320894454M423.4597290871345,264.5153575668653L423.3508426957093,266.22321151491496L422.9307571612555,272.7321751955095L422.44175741201155,280.8037536206716L411.7193448406721,280.19434537284246L412.29518038084245,272.0209274104931L413.2154900605533,263.85321517304624M411.7193448406721,280.19434537284246L406.713240376576,279.8667049342647L398.85990866188837,279.2402670447842L399.1300738554374,275.9789791481653L399.5394007928347,271.06768701019803M380.52123135648355,269.4069344790811L379.032551501378,270.901321311797L375.4919192197575,270.57209005603636L375.52285724989434,270.1570384023679L371.6010727441403,269.8100018241631M352.7454655189711,264.7309601851906L348.8123754227945,264.2815758677626L348.3885654689082,267.56675172101257L346.80661031737077,267.32450212921106L346.60447498319354,268.9969453027985L339.44919599146147,268.1760267175399L339.14097052232455,270.61691258339226L330.43768392361756,269.50657351808377L330.334998508554,270.3182253630156L323.3491984838075,269.1752909022557M381.8129896118774,269.5287016739834L380.3661278042124,271.03041355613175L379.032551501378,270.901321311797M399.1300738554374,275.9789791481653L382.4343258678838,274.511894843709L384.59505540105613,274.1596123252293L384.3446937032694,273.1522999111529L386.3349074561424,273.23310880755673L386.7329882067094,271.8938609634977L384.8742577161044,271.74119008786977L383.8674888006368,273.54735359510437L380.1411349709841,273.33177097678913L380.3661278042124,271.03041355613175M375.4919192197575,270.57209005603636L375.1783160480925,273.68164431404307L373.1605437490669,272.97725788901414L371.2440569004081,271.2979470638577M360.87915918836313,268.81393748463097L361.2485300182221,271.8459149272818L363.8677223579608,274.3211162882534L362.48545454602976,277.1579646492903L362.9927608244727,279.3842921673436L359.8336580428012,279.3761884514621L350.07506301832694,278.1861187474585M367.6315374950823,273.8247506675266L369.374951802939,275.1962636748874L368.71748145050594,276.4779732969331L365.64845548019525,279.94187464559207L363.9979431904788,279.49329575410695L362.9927608244727,279.3842921673436M380.1411349709841,273.33177097678913L379.819420264438,276.64525822085113L379.7987988508694,277.5607669324686L376.58430800187443,283.31196756816223L375.01845903688957,285.3616404960643L374.9928322374551,285.35911680214724L374.03422428720216,285.26639881296785L374.8314759859205,277.0741262810502L375.1783160480925,273.68164431404307M382.4343258678838,274.511894843709L381.81739938293947,276.65363558487763L381.0496771329218,275.75434050929755L379.819420264438,276.64525822085113M374.8314759859205,277.0741262810502L368.71748145050594,276.4779732969331M398.85990866188837,279.2402670447842L398.75794611781123,279.2309608681895L385.3134443374065,278.0780593152973L379.7987988508694,277.5607669324686M422.44175741201155,280.8037536206716L422.43473660626455,280.913899285237L421.9541333521497,289.1014915094686L421.8612008196241,290.72234032546226L405.84614838404866,289.7863154718317L406.713240376576,279.8667049342647M385.3134443374065,278.0780593152973L384.5290275053034,286.26654917603116L379.23756116348966,285.76742039671296L375.01845903688957,285.3616404960643M398.75794611781123,279.2309608681895L397.6114516726361,292.36888948750084L392.7931320804595,291.9315064912L393.2688395423092,287.06244403278686L384.5290275053034,286.26654917603116M405.84614838404866,289.7863154718317L405.09770760801155,297.76938758109293L404.97908354800876,299.4070512840867L400.1764368553327,299.20412839963444L392.26593316189076,298.44340871414045L392.7931320804595,291.9315064912M374.9928322374551,285.35911680214724L374.2141202954774,293.47720344218976L365.0066564725796,292.60738687696096L366.1359291173985,290.5769868584407L364.6668815068027,287.84570344924987L363.4522347303897,287.7440224372276L362.56451210513154,285.4730858508997L363.17953048080545,280.719320334573L363.9979431904788,279.49329575410695M345.56933029038464,277.64716961321153L345.8413538028069,279.7669752193525L344.2380910153256,280.3023051633612L340.06888097352436,283.1067287591869L338.76589592368487,282.267227043347L337.0182227137205,282.4071797162252L334.40515131706445,284.9469366983915L330.80355928165,285.9923686455428L330.4140487230526,289.00594679273956L329.99212363554443,292.14717602826124L320.23051031631996,290.8329359390259L322.59608444295304,274.6627203048863M362.56451210513154,285.4730858508997L357.03872984859646,284.8332961151399L358.5152372477923,282.36961326819824L358.8768246784439,280.2271798097171L359.8336580428012,279.3761884514621M357.03872984859646,284.8332961151399L356.61579292005734,285.9233139290641L354.58053315601205,284.8692373481596L353.6770731602081,285.9641051004079L351.01993089461735,284.59675606451174L350.19628501111333,282.8937704564037L347.1267076669846,282.5342521155312L345.8413538028069,279.7669752193525M356.61579292005734,285.9233139290641L358.43894859700526,287.7922881590722L360.3816819494258,288.2755234536129L359.00662740780314,289.388420094916L358.09405357762853,291.7630390203093L359.01043622704833,293.0072040231172L359.1608656657276,295.0178096012793L360.4798154757813,297.26028396824483L349.63327776634196,295.9877611759223L349.0213051786883,301.2062494432814L340.8266426936453,300.2266387233136L340.22434692632976,297.2135232516938L342.1634334081995,297.4496778689455L342.98773468119913,290.5846828412783L344.2380910153256,280.3023051633612M342.98773468119913,290.5846828412783L330.4140487230526,289.00594679273956M379.23756116348966,285.76742039671296L378.8375150295084,290.67179978470347L378.0900190886279,291.917007011406L379.99637064880733,292.145999554358L379.6844996142671,294.9001410303724L375.3968634226345,294.53351755826907L374.2141202954774,293.47720344218976M392.26593316189076,298.44340871414045L379.4691430764175,297.3480757174524L379.6844996142671,294.9001410303724M365.0066564725796,292.60738687696096L366.0600547529972,294.0937580938662L365.5138175302189,296.2242767624638L363.9293968053927,297.17902924892223L360.4798154757813,297.26028396824483M421.8612008196241,290.72234032546226L421.45772027139907,297.30058064084926L421.36419716900804,298.85055087964554L405.09770760801155,297.76938758109293M379.4691430764175,297.3480757174524L379.021777010131,302.25576197696296L377.4489676521911,302.11257237259736L366.65899417450123,300.9049210208175L363.9293968053927,297.17902924892223M340.22434692632976,297.2135232516938L340.28377417510893,296.6452164918536L333.13233767451095,295.7565406946726L333.6107468177054,297.27003262884693L335.67112329007927,298.2200565957513L335.1044147010232,299.4165433144791L319.5875308598718,297.34998316527685L320.23051031631996,290.8329359390259M420.95419931756703,305.37014289852186L410.83841474673704,304.7231350941081L401.32028105794177,304.04109422549254L399.8440666720575,303.93325829748005L400.1764368553327,299.20412839963444M392.26593316189076,298.44340871414045L391.60363393318414,305.5003399999399L390.90418399340007,313.23441303857874L386.81528758609824,311.3146763585013L382.6594127241085,309.3686954384658L377.2900309019301,309.23262919694366L376.8245263709232,308.54108168571054L377.4489676521911,302.11257237259736M399.8440666720575,303.93325829748005L399.59200279564425,305.66411819184793L397.99871171695645,305.556344882124L397.9109368303865,306.6488666516907L394.81304453748356,306.4056209831864L391.60363393318414,305.5003399999399M333.8016808378899,308.9976983570473L332.9518123430248,309.8057677534366L332.4932956771928,312.1583065617358L329.7047196804716,314.0883532923607L328.14729923941593,316.2020218818461L327.97165055654625,317.63471445514347L326.31704848851086,320.20326735507035L316.568866500655,318.8997797047822L317.8478058885994,309.83280310491887L318.89674898141925,302.4289251044761L319.5875308598718,297.34998316527685M366.65899417450123,300.9049210208175L368.17312249745453,303.3141008090421L369.1586560426336,306.74485383614035L370.6380422047368,308.30577994048735L370.59656627345885,311.04114636395775L362.13814092193843,310.2285932462868L354.1748811960902,309.3713307761964L354.3460822440719,307.7463515769532L352.800545613742,307.5573059623391L352.87754425788626,306.875852305663L350.1281156553805,304.7361814335012L348.6106109034249,304.78390900909415L349.0213051786883,301.2062494432814M340.8266426936453,300.2266387233136L341.4474395483587,301.9525256648518L340.40449989598335,303.63460573857355L337.8146332755314,304.4473514162004L337.7695007527947,303.5363260181118L335.7631831702467,301.8735546440628L336.0909520303108,300.23121759794265L335.1044147010232,299.4165433144791M421.36419716900804,298.85055087964554L420.95419931756703,305.37014289852186L420.9413367618361,305.4901110857262L420.35013165011406,315.35105775893066L420.2477396883336,317.12489524818363L409.9318737311234,316.44195445165235L410.83841474673704,304.7231350941081M376.8245263709232,308.54108168571054L375.2871763007346,306.4322633315627L373.38635166191267,308.5106870893053L373.0188591042818,307.751938117327L370.6380422047368,308.30577994048735M409.9318737311234,316.44195445165235L405.14030787937077,316.09694823035136L400.34533807453636,315.7269159204428L401.32028105794177,304.04109422549254M400.34533807453636,315.7269159204428L390.8012300199539,314.94173053778786L390.90418399340007,313.23441303857874M337.8146332755314,304.4473514162004L335.7374507453904,306.657552022148L334.05610516071164,304.90273291834364L330.77811882144397,305.16124948227446L330.2803367138905,303.69950008685544L322.17727453102725,302.6049796808238L318.89674898141925,302.4289251044761M348.6106109034249,304.78390900909415L346.58177167496206,304.8729088064042L345.89670963601577,309.7932014647546L345.58029588483146,314.55178535195637L340.42899349258425,313.9412344128684L340.9165952832361,309.88108877660204L341.2086144623021,307.4757103673006L340.40449989598335,303.63460573857355M386.81528758609824,311.3146763585013L385.17224674683064,312.6192048688805L383.531526082239,315.6177477792212L380.29221061018563,318.54349471584624L377.6088509229263,318.4671194272993L374.18425630652905,320.07767055780005L374.62149464886147,318.0744189841124L374.3061569927862,313.9497971460936L372.75969974508257,313.01933310397817L369.8632254885712,314.2560398863534L370.59656627345885,311.04114636395775M340.9165952832361,309.88108877660204L333.8016808378899,308.9976983570473L333.9758434506723,307.95682536344646L335.7374507453904,306.657552022148M352.800545613742,307.5573059623391L351.64168744340975,315.60611291755004L345.51296259338324,315.1242029628809L345.58029588483146,314.55178535195637M333.8016808378899,308.9976983570473L320.0606808630582,307.3353054786261L317.8478058885994,309.83280310491887M362.13814092193843,310.2285932462868L361.4365959838515,316.7458379575578L352.111895994145,315.67147886295106L351.64168744340975,315.60611291755004M405.14030787937077,316.09694823035136L404.08485580466606,328.180639183524L390.5063176368027,327.17736206358813L373.6283172334229,325.6665778293774L374.18425630652905,320.07767055780005M369.8632254885712,314.2560398863534L365.678612002181,318.02302313800385L361.359836143804,317.5699079471043L361.4365959838515,316.7458379575578M373.6283172334229,325.6665778293774L372.66235733968267,325.57494123456195L365.3460856235341,324.83033008688005L364.66816758906964,323.8065192856171L365.8837973401975,319.3831186479656L365.678612002181,318.02302313800385M420.2477396883336,317.12489524818363L419.94214896436256,321.9257130698645L419.45760267121017,329.37098136900886L405.3218467189446,328.2755348152516L404.08485580466606,328.180639183524M340.42899349258425,313.9412344128684L339.47369622691957,321.85431350846466L326.31704848851086,320.20326735507035M352.111895994145,315.67147886295106L351.7417871726258,318.9517916111174L354.2121207714081,323.68271206474265L340.3579439511177,321.96137207458753L339.47369622691957,321.85431350846466M365.3460856235341,324.83033008688005L361.1103308142375,324.39938369660877L354.2121207714081,323.68271206474265" style="fill: inherit; stroke: inherit; stroke-width: inherit;" vector-effect="non-scaling-stroke"></path></svg>