<svg xmlns="http://www.w3.org/2000/svg" version="1.2" id="root" viewBox="316.568866500655 244.16458121615244 107.54977018243494 85.20640015285642"><g id="counties"><path id="county-08123" class="county feature" d="M381.638 268.893zm20.44-7.488l-7.942-.676-.875 9.823-11.448-1.023-1.292-.122.434-4.91.136-1.64 1.562.15 1.18-12.17 12.392 1.052 6.676.543z" vector-effect="non-scaling-stroke" fill="inherit" stroke="inherit" stroke-width="inherit"><title>Weld County</title></path><path id="county-08107" class="county feature" d="M358.906 258.743l.06 1.959-.796 7.814-5.726-.544.301-3.241.281-2.495-5.634-.641.867-5.947 1.734-.894.84-7.537 6.378.753-.034 1.483 2.1.92.588 1.882-1.379 3.903z" vector-effect="non-scaling-stroke" fill="inherit" stroke="inherit" stroke-width="inherit"><title>Routt County</title></path><path id="county-08057" class="county feature" d="M370.153 259.17l-1.74 2.434-.776-.558-3.065.619-.418-.75-2.635-.122-.414-1.18-1.773.417-.426-1.287-.42-2.585 1.379-3.903-.588-1.882-2.1-.92.034-1.483 7.476.904 1.794.216-.05 1.207 2.248 4.061z" vector-effect="non-scaling-stroke" fill="inherit" stroke="inherit" stroke-width="inherit"><title>Jackson County</title></path><path id="county-08081" class="county feature" d="M350.834 247.217l-.841 7.537-1.734.894-.867 5.947-9.457-1.147-13.13-1.767 1.146-8.037.87-6.48 15.685 2.047z" vector-effect="non-scaling-stroke" fill="inherit" stroke="inherit" stroke-width="inherit"><title>Moffat County</title></path><path id="county-08075" class="county feature" d="M414.83 263.968l-1.615-.115-9.63-.684.099-1.635-1.606-.13.823-8.972 2.672.2 10.166.751-.303 4.754z" vector-effect="non-scaling-stroke" fill="inherit" stroke="inherit" stroke-width="inherit"><title>Logan County</title></path><path id="county-08115" class="county feature" d="M423.83 258.696l-8.394-.559.303-4.754.45.03 7.93.531z" vector-effect="non-scaling-stroke" fill="inherit" stroke="inherit" stroke-width="inherit"><title>Sedgwick County</title></path><path id="county-08069" class="county feature" d="M380.955 264.497l-8.408-.804-2.394-4.523-1.474-4.812-2.247-4.06.049-1.208 12.707 1.3 4.645.447-1.18 12.17-1.562-.15z" vector-effect="non-scaling-stroke" fill="inherit" stroke="inherit" stroke-width="inherit"><title>Larimer County</title></path><path id="county-08095" class="county feature" d="M423.83 258.696l-.062.977-.308 4.842-8.63-.547.606-5.83z" vector-effect="non-scaling-stroke" fill="inherit" stroke="inherit" stroke-width="inherit"><title>Phillips County</title></path><path id="county-08087" class="county feature" d="M402.078 261.405l1.606.13-.098 1.634-.74 8.16-3.307-.261-6.278-.516.875-9.823z" vector-effect="non-scaling-stroke" fill="inherit" stroke="inherit" stroke-width="inherit"><title>Morgan County</title></path><path id="county-08049" class="county feature" d="M372.547 263.693l-.187 4.046-.759 2.071-.357 1.488-2.715.721-.897 1.806-1.388.053-.706-2.35-2.022-2.176-2.637-.538-2.709-.298.796-7.814-.06-1.96.426 1.288 1.773-.417.414 1.18 2.635.122.418.75 3.065-.619.776.558 1.74-2.434z" vector-effect="non-scaling-stroke" fill="inherit" stroke="inherit" stroke-width="inherit"><title>Grand County</title></path><path id="county-08125" class="county feature" d="M423.46 264.515l-.11 1.708-.42 6.51-.488 8.07-10.723-.609.576-8.173.92-8.168 1.615.115z" vector-effect="non-scaling-stroke" fill="inherit" stroke="inherit" stroke-width="inherit"><title>Yuma County</title></path><path id="county-08121" class="county feature" d="M413.215 263.853l-.92 8.168-.576 8.173-5.006-.327-7.853-.627.27-3.261.41-4.911 3.307.261.739-8.16z" vector-effect="non-scaling-stroke" fill="inherit" stroke="inherit" stroke-width="inherit"><title>Washington County</title></path><path id="county-08013" class="county feature" d="M380.955 264.497l-.434 4.91-1.488 1.494-3.541-.329.03-.415-3.92-.347.758-2.07.187-4.047z" vector-effect="non-scaling-stroke" fill="inherit" stroke="inherit" stroke-width="inherit"><title>Boulder County</title></path><path id="county-08103" class="county feature" d="M352.745 264.731l-3.933-.45-.423 3.286-1.582-.242-.203 1.672-7.155-.821-.308 2.44-8.703-1.11-.103.812-6.986-1.143 1.456-10.494 13.13 1.767 9.457 1.147 5.634.641z" vector-effect="non-scaling-stroke" fill="inherit" stroke="inherit" stroke-width="inherit"><title>Rio Blanco County</title></path><path id="county-08045" class="county feature" d="M352.745 264.731l-.3 3.241-1.154-.139-1.216 10.353-4.506-.539-22.973-2.984.333-2.448.42-3.04 6.986 1.143.103-.811 8.703 1.11.308-2.441 7.155.82.203-1.671 1.582.242.423-3.285z" vector-effect="non-scaling-stroke" fill="inherit" stroke="inherit" stroke-width="inherit"><title>Garfield County</title></path><path id="county-08014" class="county feature" d="M381.813 269.529l-1.447 1.501-1.333-.129 1.488-1.494zm-.175-.636z" vector-effect="non-scaling-stroke" fill="inherit" stroke="inherit" stroke-width="inherit"><title>Broomfield County</title></path><path id="county-08001" class="county feature" d="M399.54 271.068l-.41 4.911-16.696-1.467 2.161-.352-.25-1.008 1.99.081.398-1.34-1.859-.152-1.007 1.806-3.726-.215.225-2.302 1.447-1.501 11.448 1.023z" vector-effect="non-scaling-stroke" fill="inherit" stroke="inherit" stroke-width="inherit"><title>Adams County</title></path><path id="county-08047" class="county feature" d="M375.492 270.572l-.314 3.11-2.017-.705-1.917-1.68.357-1.487 3.922.347z" vector-effect="non-scaling-stroke" fill="inherit" stroke="inherit" stroke-width="inherit"><title>Gilpin County</title></path><path id="county-08037" class="county feature" d="M360.88 268.814l.369 3.032 2.619 2.475-1.383 2.837.508 2.226-3.16-.008-9.758-1.19 1.216-10.353 1.153.14 5.726.543z" vector-effect="non-scaling-stroke" fill="inherit" stroke="inherit" stroke-width="inherit"><title>Eagle County</title></path><path id="county-08117" class="county feature" d="M367.632 273.825l1.743 1.371-.658 1.282-3.069 3.464-1.65-.449-1.005-.109-.508-2.226 1.383-2.837-2.62-2.475-.369-3.032 2.637.538 2.022 2.176.706 2.35z" vector-effect="non-scaling-stroke" fill="inherit" stroke="inherit" stroke-width="inherit"><title>Summit County</title></path><path id="county-08059" class="county feature" d="M380.366 271.03l-.225 2.302-.322 3.313-.02.916-3.215 5.751-1.566 2.05-.025-.003-.959-.093.797-8.192.347-3.392.314-3.11 3.54.33z" vector-effect="non-scaling-stroke" fill="inherit" stroke="inherit" stroke-width="inherit"><title>Jefferson County</title></path><path id="county-08031" class="county feature" d="M382.434 274.512l-.617 2.142-.767-.9-1.23.891.321-3.313 3.726.215 1.007-1.806 1.859.153-.398 1.34-1.99-.082.25 1.008z" vector-effect="non-scaling-stroke" fill="inherit" stroke="inherit" stroke-width="inherit"><title>Denver County</title></path><path id="county-08019" class="county feature" d="M375.178 273.682l-.347 3.392-6.114-.596.658-1.282-1.743-1.371.897-1.806 2.715-.721 1.917 1.68z" vector-effect="non-scaling-stroke" fill="inherit" stroke="inherit" stroke-width="inherit"><title>Clear Creek County</title></path><path id="county-08005" class="county feature" d="M399.13 275.979l-.27 3.261-.102-.009-13.445-1.153-5.514-.517.02-.916 1.23-.89.768.899.617-2.142z" vector-effect="non-scaling-stroke" fill="inherit" stroke="inherit" stroke-width="inherit"><title>Arapahoe County</title></path><path id="county-08063" class="county feature" d="M422.442 280.804l-.007.11-.48 8.187-.094 1.621-16.015-.936.867-9.92 5.006.328z" vector-effect="non-scaling-stroke" fill="inherit" stroke="inherit" stroke-width="inherit"><title>Kit Carson County</title></path><path id="county-08035" class="county feature" d="M385.313 278.078l-.784 8.189-5.291-.5-4.22-.405 1.566-2.05 3.215-5.751z" vector-effect="non-scaling-stroke" fill="inherit" stroke="inherit" stroke-width="inherit"><title>Douglas County</title></path><path id="county-08039" class="county feature" d="M398.758 279.231l-1.147 13.138-4.818-.437.476-4.87-8.74-.795.784-8.189z" vector-effect="non-scaling-stroke" fill="inherit" stroke="inherit" stroke-width="inherit"><title>Elbert County</title></path><path id="county-08073" class="county feature" d="M406.713 279.867l-.867 9.92-.748 7.982-.119 1.638-4.803-.203-7.91-.76.527-6.512 4.818.437 1.147-13.138.102.01z" vector-effect="non-scaling-stroke" fill="inherit" stroke="inherit" stroke-width="inherit"><title>Lincoln County</title></path><path id="county-08093" class="county feature" d="M374.831 277.074l-.797 8.192.959.093-.779 8.118-9.207-.87 1.129-2.03-1.47-2.731-1.214-.102-.887-2.27.615-4.755.818-1.226 1.65.449 3.07-3.464z" vector-effect="non-scaling-stroke" fill="inherit" stroke="inherit" stroke-width="inherit"><title>Park County</title></path><path id="county-08065" class="county feature" d="M362.993 279.384l1.005.11-.818 1.225-.615 4.754-5.526-.64 1.476-2.463.362-2.143.957-.85z" vector-effect="non-scaling-stroke" fill="inherit" stroke="inherit" stroke-width="inherit"><title>Lake County</title></path><path id="county-08077" class="county feature" d="M345.57 277.647l.271 2.12-1.603.535-4.17 2.805-1.302-.84-1.748.14-2.613 2.54-3.601 1.045-.39 3.014-.422 3.141-9.761-1.314 2.365-16.17z" vector-effect="non-scaling-stroke" fill="inherit" stroke="inherit" stroke-width="inherit"><title>Mesa County</title></path><path id="county-08097" class="county feature" d="M359.834 279.376l-.957.851-.362 2.143-1.476 2.463-.423 1.09-2.035-1.054-.904 1.095-2.657-1.367-.824-1.703-3.07-.36-1.285-2.767-.272-2.12 4.506.54z" vector-effect="non-scaling-stroke" fill="inherit" stroke="inherit" stroke-width="inherit"><title>Pitkin County</title></path><path id="county-08051" class="county feature" d="M345.841 279.767l1.286 2.767 3.07.36.823 1.703 2.657 1.367.904-1.095 2.035 1.054 1.823 1.87 1.943.483-1.375 1.112-.913 2.375.916 1.244.15 2.01 1.32 2.243-10.847-1.272-.612 5.218-8.194-.98-.603-3.012 1.94.236.824-6.865 1.25-10.283z" vector-effect="non-scaling-stroke" fill="inherit" stroke="inherit" stroke-width="inherit"><title>Gunnison County</title></path><path id="county-08029" class="county feature" d="M344.238 280.302l-1.25 10.283-12.574-1.58.39-3.013 3.601-1.045 2.613-2.54 1.748-.14 1.303.84z" vector-effect="non-scaling-stroke" fill="inherit" stroke="inherit" stroke-width="inherit"><title>Delta County</title></path><path id="county-08119" class="county feature" d="M379.238 285.767l-.4 4.905-.748 1.245 1.906.229-.312 2.754-4.287-.366-1.183-1.057.779-8.118.025.003z" vector-effect="non-scaling-stroke" fill="inherit" stroke="inherit" stroke-width="inherit"><title>Teller County</title></path><path id="county-08041" class="county feature" d="M384.529 286.267l8.74.795-.476 4.87-.527 6.511-12.797-1.095.215-2.448.312-2.754-1.906-.229.748-1.245.4-4.905z" vector-effect="non-scaling-stroke" fill="inherit" stroke="inherit" stroke-width="inherit"><title>El Paso County</title></path><path id="county-08015" class="county feature" d="M362.565 285.473l.887 2.271 1.215.102 1.469 2.731-1.13 2.03 1.054 1.487-.546 2.13-1.585.955-3.45.081-1.318-2.242-.15-2.01-.917-1.245.913-2.375 1.375-1.112-1.943-.484-1.823-1.869.423-1.09z" vector-effect="non-scaling-stroke" fill="inherit" stroke="inherit" stroke-width="inherit"><title>Chaffee County</title></path><path id="county-08017" class="county feature" d="M421.861 290.722l-.403 6.579-.094 1.55-16.266-1.082.748-7.983z" vector-effect="non-scaling-stroke" fill="inherit" stroke="inherit" stroke-width="inherit"><title>Cheyenne County</title></path><path id="county-08043" class="county feature" d="M379.684 294.9l-.215 2.448-.447 4.908-1.573-.143-10.79-1.208-2.73-3.726 1.585-.955.546-2.13-1.053-1.487 9.207.87 1.183 1.057z" vector-effect="non-scaling-stroke" fill="inherit" stroke="inherit" stroke-width="inherit"><title>Fremont County</title></path><path id="county-08085" class="county feature" d="M342.988 290.585l-.825 6.865-1.939-.236.06-.569-7.152-.888.479 1.513 2.06.95-.567 1.197-15.516-2.067.643-6.517 9.761 1.314.422-3.141z" vector-effect="non-scaling-stroke" fill="inherit" stroke="inherit" stroke-width="inherit"><title>Montrose County</title></path><path id="county-08061" class="county feature" d="M421.364 298.85l-.41 6.52-10.116-.647-9.518-.682-1.476-.108.332-4.729 4.803.203.119-1.638z" vector-effect="non-scaling-stroke" fill="inherit" stroke="inherit" stroke-width="inherit"><title>Kiowa County</title></path><path id="county-08101" class="county feature" d="M392.266 298.443l-.662 7.057-.7 7.734-4.089-1.92-4.156-1.945-5.369-.136-.465-.692.624-6.428 1.573.143.447-4.908z" vector-effect="non-scaling-stroke" fill="inherit" stroke="inherit" stroke-width="inherit"><title>Pueblo County</title></path><path id="county-08025" class="county feature" d="M400.176 299.204l-.332 4.73-.252 1.73-1.593-.108-.088 1.093-3.098-.243-3.21-.906.663-7.057z" vector-effect="non-scaling-stroke" fill="inherit" stroke="inherit" stroke-width="inherit"><title>Crowley County</title></path><path id="county-08109" class="county feature" d="M363.93 297.179l2.729 3.726 1.514 2.41.986 3.43 1.479 1.56-.041 2.736-8.459-.812-7.963-.858.171-1.625-1.545-.189.077-.681-2.75-2.14-1.517.048.41-3.578.612-5.218 10.847 1.272z" vector-effect="non-scaling-stroke" fill="inherit" stroke="inherit" stroke-width="inherit"><title>Saguache County</title></path><path id="county-08091" class="county feature" d="M340.224 297.214l.603 3.013.62 1.726-1.043 1.682-2.59.812-.044-.91-2.007-1.663.328-1.643-.987-.814.567-1.197-2.06-.95-.479-1.513 7.152.888z" vector-effect="non-scaling-stroke" fill="inherit" stroke="inherit" stroke-width="inherit"><title>Ouray County</title></path><path id="county-08099" class="county feature" d="M420.954 305.37l-.013.12-.59 9.861-.103 1.774-10.316-.683.906-11.719z" vector-effect="non-scaling-stroke" fill="inherit" stroke="inherit" stroke-width="inherit"><title>Prowers County</title></path><path id="county-08027" class="county feature" d="M377.449 302.113l-.624 6.428-1.538-2.109-1.9 2.079-.368-.76-2.381.555-1.48-1.561-.985-3.43-1.514-2.41z" vector-effect="non-scaling-stroke" fill="inherit" stroke="inherit" stroke-width="inherit"><title>Custer County</title></path><path id="county-08011" class="county feature" d="M410.838 304.723l-.906 11.719-4.792-.345-4.795-.37.975-11.686z" vector-effect="non-scaling-stroke" fill="inherit" stroke="inherit" stroke-width="inherit"><title>Bent County</title></path><path id="county-08089" class="county feature" d="M401.32 304.041l-.975 11.686-9.544-.785.103-1.708.7-7.734 3.209.906 3.098.243.088-1.093 1.593.108.252-1.73z" vector-effect="non-scaling-stroke" fill="inherit" stroke="inherit" stroke-width="inherit"><title>Otero County</title></path><path id="county-08113" class="county feature" d="M335.104 299.417l.987.814-.328 1.643 2.007 1.662.045.911-2.078 2.21-1.68-1.754-3.279.258-.498-1.461-8.103-1.095-3.28-.176.69-5.079z" vector-effect="non-scaling-stroke" fill="inherit" stroke="inherit" stroke-width="inherit"><title>San Miguel County</title></path><path id="county-08053" class="county feature" d="M349.021 301.206l-.41 3.578-2.03.089-.684 4.92-.317 4.759-5.151-.61.488-4.06.292-2.406-.805-3.841 1.043-1.682-.62-1.726z" vector-effect="non-scaling-stroke" fill="inherit" stroke="inherit" stroke-width="inherit"><title>Hinsdale County</title></path><path id="county-08055" class="county feature" d="M376.825 308.541l.465.692 5.37.136 4.155 1.946-1.643 1.304-1.64 2.999-3.24 2.925-2.683-.076-3.425 1.61.437-2.003-.315-4.124-1.546-.93-2.897 1.236.734-3.215.041-2.735 2.38-.554.368.759 1.901-2.079z" vector-effect="non-scaling-stroke" fill="inherit" stroke="inherit" stroke-width="inherit"><title>Huerfano County</title></path><path id="county-08111" class="county feature" d="M340.404 303.635l.805 3.84-.292 2.406-7.115-.883.174-1.041 1.761-1.3 2.078-2.21z" vector-effect="non-scaling-stroke" fill="inherit" stroke="inherit" stroke-width="inherit"><title>San Juan County</title></path><path id="county-08079" class="county feature" d="M352.8 307.557l-1.158 8.05-6.129-.483.067-.572.317-4.759.685-4.92 2.029-.09 1.517-.047 2.75 2.14z" vector-effect="non-scaling-stroke" fill="inherit" stroke="inherit" stroke-width="inherit"><title>Mineral County</title></path><path id="county-08033" class="county feature" d="M335.737 306.658l-1.761 1.299-.174 1.04-13.741-1.662-2.213 2.498 1.049-7.404 3.28.176 8.103 1.095.498 1.461 3.278-.258z" vector-effect="non-scaling-stroke" fill="inherit" stroke="inherit" stroke-width="inherit"><title>Dolores County</title></path><path id="county-08105" class="county feature" d="M352.8 307.557l1.546.19-.171 1.624 7.963.858-.701 6.517-9.325-1.075-.47-.065z" vector-effect="non-scaling-stroke" fill="inherit" stroke="inherit" stroke-width="inherit"><title>Rio Grande County</title></path><path id="county-08071" class="county feature" d="M400.345 315.727l4.795.37-1.055 12.084-13.579-1.004-16.878-1.51.556-5.59 3.425-1.61 2.683.076 3.24-2.925 1.64-2.999 1.643-1.304 4.09 1.92-.104 1.707z" vector-effect="non-scaling-stroke" fill="inherit" stroke="inherit" stroke-width="inherit"><title>Las Animas County</title></path><path id="county-08003" class="county feature" d="M370.597 311.041l-.734 3.215-4.184 3.767-4.32-.453.078-.824.701-6.517z" vector-effect="non-scaling-stroke" fill="inherit" stroke="inherit" stroke-width="inherit"><title>Alamosa County</title></path><path id="county-08023" class="county feature" d="M374.184 320.078l-.556 5.589-.966-.092-7.316-.745-.678-1.023 1.216-4.424-.205-1.36 4.184-3.767 2.897-1.237 1.546.93.315 4.125z" vector-effect="non-scaling-stroke" fill="inherit" stroke="inherit" stroke-width="inherit"><title>Costilla County</title></path><path id="county-08009" class="county feature" d="M420.248 317.125l-.306 4.8-.484 7.446-14.136-1.095-1.237-.095 1.055-12.084 4.792.345z" vector-effect="non-scaling-stroke" fill="inherit" stroke="inherit" stroke-width="inherit"><title>Baca County</title></path><path id="county-08083" class="county feature" d="M333.802 308.998l-.85.808-.459 2.352-2.788 1.93-1.558 2.114-.175 1.433-1.655 2.568-9.748-1.303 1.279-9.067 2.213-2.498z" vector-effect="non-scaling-stroke" fill="inherit" stroke="inherit" stroke-width="inherit"><title>Montezuma County</title></path><path id="county-08067" class="county feature" d="M340.917 309.881l-.488 4.06-.955 7.913-13.157-1.65 1.655-2.57.175-1.432 1.558-2.114 2.788-1.93.459-2.352.85-.808z" vector-effect="non-scaling-stroke" fill="inherit" stroke="inherit" stroke-width="inherit"><title>La Plata County</title></path><path id="county-08007" class="county feature" d="M345.58 314.552l-.067.572 6.129.482.47.065-.37 3.28 2.47 4.732-13.854-1.722-.884-.107.955-7.913z" vector-effect="non-scaling-stroke" fill="inherit" stroke="inherit" stroke-width="inherit"><title>Archuleta County</title></path><path id="county-08021" class="county feature" d="M352.112 315.671l9.325 1.075-.077.824 4.319.453.205 1.36-1.216 4.424.678 1.023-4.236-.43-6.898-.717-2.47-4.731z" vector-effect="non-scaling-stroke" fill="inherit" stroke="inherit" stroke-width="inherit"><title>Conejos County</title></path></g><path id="counties-mesh" class="counties mesh" d="M402.90099999999995 252.43199999999996l-.823 8.973-7.942-.676-.875 9.823-11.448-1.023-1.292-.122.434-4.91.136-1.64 1.562.15 1.18-12.17m-26.622-2.867l-.034 1.483 2.1.92.588 1.882-1.379 3.903.42 2.585.06 1.959-.796 7.814-5.726-.544.301-3.241.281-2.495-5.634-.641.867-5.947 1.734-.894.84-7.537m15.648 1.873l-.05 1.207 2.248 4.061 1.474 4.812-1.74 2.434-.776-.558-3.065.619-.418-.75-2.635-.122-.414-1.18-1.773.417-.426-1.287m56.833-5.36l-.303 4.754-.606 5.83-1.615-.114-9.63-.684.099-1.635-1.606-.13m21.753-2.708l-8.395-.559m-34.481 6.36l-8.408-.804-2.394-4.523m-17.709 8.802l-1.153-.139-1.216 10.353-4.506-.539-22.973-2.984.333-2.448.42-3.04 1.456-10.494m22.587 2.914l-9.457-1.147-13.13-1.767 1.146-8.037.87-6.48 15.685 2.047 8.328 1.006 6.377.753 7.476.904 1.794.216 12.707 1.3 4.645.447 12.392 1.052 6.676.543 2.672.2 10.166.751.45.03 7.93.531-.288 4.752-.063.977-.308 4.842-8.63-.547m-11.244-.8l-.74 8.161-3.307-.261-6.278-.516m-20.714-6.86l-.187 4.047-.759 2.071-.357 1.488-2.715.721-.897 1.806-1.388.053-.706-2.35-2.022-2.176-2.637-.538-2.709-.298m65.29-4l-.11 1.707-.42 6.51-.488 8.07-10.723-.609.576-8.173.92-8.168m-1.496 16.341l-5.006-.327-7.853-.627.27-3.261.41-4.911m-19.019-1.661l-1.488 1.494-3.541-.329.03-.415-3.92-.347m-18.857-5.079l-3.933-.45-.423 3.286-1.582-.242-.203 1.672-7.155-.821-.308 2.44-8.703-1.11-.103.812-6.986-1.143m58.464.354l-1.447 1.501-1.333-.129m20.097 5.078l-16.696-1.467 2.161-.352-.25-1.008 1.99.081.398-1.34-1.859-.152-1.007 1.806-3.726-.215.225-2.302m-4.874-.458l-.314 3.11-2.017-.705-1.917-1.68m-10.365-2.483l.37 3.032 2.619 2.475-1.383 2.837.508 2.226-3.16-.008-9.758-1.19m17.557-4.361l1.743 1.371-.658 1.282-3.069 3.464-1.65-.449-1.005-.109m17.148-6.052l-.322 3.313-.02.916-3.215 5.751-1.566 2.05-.025-.003-.959-.093.797-8.192.347-3.392m7.256.83l-.617 2.142-.767-.9-1.23.891m-4.989.43l-6.114-.597m30.143 2.762l-.102-.009-13.445-1.153-5.514-.517m42.643 3.243l-.007.11-.48 8.187-.094 1.621-16.015-.936.867-9.92m-21.4-1.788l-.784 8.189-5.291-.5-4.22-.405m23.74-6.131l-1.147 13.138-4.818-.437.476-4.87-8.74-.795m21.317 3.52l-.748 7.982-.119 1.638-4.803-.203-7.91-.76.527-6.512m-17.8-6.573l-.779 8.118-9.207-.87 1.129-2.03-1.47-2.731-1.214-.102-.887-2.27.615-4.755.818-1.226m-18.429-1.846l.272 2.12-1.603.535-4.17 2.805-1.302-.84-1.748.14-2.613 2.54-3.601 1.045-.39 3.014-.422 3.141-9.761-1.314 2.365-16.17m39.969 10.81l-5.526-.64 1.476-2.463.362-2.143.957-.85m-2.795 5.456l-.423 1.09-2.035-1.054-.904 1.095-2.657-1.367-.824-1.703-3.07-.36-1.285-2.767m10.775 6.156l1.823 1.87 1.943.483-1.375 1.112-.913 2.375.916 1.244.15 2.01 1.32 2.243-10.847-1.272-.612 5.218-8.194-.98-.603-3.012 1.94.236.824-6.865 1.25-10.283m-1.25 10.283l-12.574-1.58m48.824-3.238l-.4 4.905-.748 1.245 1.906.229-.312 2.754-4.287-.366-1.183-1.057m18.052 4.966l-12.797-1.095.215-2.448m-14.677-2.293l1.053 1.487-.546 2.13-1.585.955-3.45.081m61.382-6.538l-.403 6.579-.094 1.55-16.266-1.082m-25.629-.42l-.447 4.907-1.573-.143-10.79-1.208-2.73-3.726m-23.705.035l.06-.569-7.152-.888.479 1.513 2.06.95-.567 1.197-15.516-2.067.643-6.517m100.723 14.537l-10.116-.647-9.518-.682-1.476-.108.332-4.729m-7.91-.76l-.662 7.056-.7 7.734-4.089-1.92-4.156-1.945-5.369-.136-.465-.692.624-6.428m22.395 1.82l-.252 1.731-1.593-.108-.088 1.093-3.098-.243-3.21-.906m-57.801 3.498l-.85.808-.459 2.352-2.788 1.93-1.558 2.114-.175 1.433-1.655 2.568-9.748-1.303 1.279-9.067 1.049-7.404.69-5.079m47.072 3.555l1.514 2.41.986 3.43 1.479 1.56-.041 2.736-8.459-.812-7.963-.858.171-1.625-1.545-.189.077-.681-2.75-2.14-1.517.048.41-3.578m-8.194-.98l.62 1.727-1.043 1.682-2.59.812-.044-.91-2.007-1.663.328-1.643-.987-.814m86.26-.566l-.41 6.52-.013.12-.59 9.86-.103 1.774-10.316-.683.906-11.719m-34.013 3.818l-1.538-2.109-1.9 2.079-.368-.76-2.381.555m39.294 8.136l-4.792-.345-4.795-.37.975-11.686m-.975 11.686l-9.544-.785.103-1.708m-53.09-8.787l-2.077 2.21-1.68-1.754-3.279.258-.498-1.461-8.103-1.095-3.28-.176m29.714 2.355l-2.03.089-.684 4.92-.317 4.759-5.151-.61.488-4.06.292-2.406-.805-3.841m46.411 7.68l-1.643 1.304-1.64 2.999-3.24 2.925-2.683-.076-3.425 1.61.437-2.003-.315-4.124-1.546-.93-2.897 1.236.734-3.215m-29.68-1.16l-7.115-.883.174-1.041 1.761-1.3m17.064.9l-1.16 8.05-6.128-.483.067-.572m-11.778-5.554l-13.741-1.663-2.213 2.498m44.29.396l-.701 6.517-9.325-1.075-.47-.065m53.498.49l-1.055 12.085-13.579-1.004-16.878-1.51.556-5.59m-4.32-5.821l-4.185 3.767-4.32-.453.078-.824m12.191 8.92l-.966-.091-7.316-.745-.678-1.023 1.216-4.424-.205-1.36m54.569-.898l-.306 4.8-.484 7.446-14.136-1.095-1.237-.095m-63.656-14.24l-.955 7.913-13.157-1.65m25.795-4.533l-.37 3.28 2.47 4.732-13.854-1.722-.884-.107m25.872 2.976l-4.236-.43-6.898-.717" vector-effect="non-scaling-stroke" fill="inherit" stroke="inherit" stroke-width="inherit"/></svg>