<?xml version="1.0" standalone="yes"?>
<svg xmlns="http://www.w3.org/2000/svg" version="1.2" baseProfile="tiny" id="root" viewBox="811.9551701513789 191.6701160167876 33.20268642866931 32.43657693259654"><style>
@import url("../../css/svg.css");</style><rect id="bbox" class="bbox" x="811.9551701513789" y="191.6701160167876" width="33.20268642866931" height="32.43657693259654"></rect><g id="counties"><path id="county-09005" class="county feature" d="M821.6208991622028,199.14870586913503L822.2249516584172,199.01750358366792L822.2718053201645,200.405486581393L824.1494147971764,199.8152240610558L824.0715400258516,203.0646743196072L823.1987719575654,203.44056942897396L824.3671646782075,206.22620131487417L822.6069534911455,209.0899985403222L820.7234094597806,210.42832341634607L818.8560468149934,210.44554234781253L817.0455411563978,207.48441660244578L815.7715708903064,200.38561543899334Z" vector-effect="non-scaling-stroke"><title>Litchfield County</title></path><path id="county-09003" class="county feature" d="M828.9181582932212,197.4390131148475L829.9754561032014,201.528025149188L830.3830133983832,201.3594497134494L832.2342382946338,204.99019459451642L831.5644693532306,205.5069321961738L830.7531103294792,204.4879385780945L828.039962154593,205.54359762837873L827.7460382533436,206.56303220905465L825.2335709513817,207.61654754250128L824.3671646782075,206.22620131487417L823.1987719575654,203.44056942897396L824.0715400258516,203.0646743196072L824.1494147971764,199.8152240610558L822.2718053201645,200.405486581393L822.2249516584172,199.01750358366792Z" vector-effect="non-scaling-stroke"><title>Hartford County</title></path><path id="county-09013" class="county feature" d="M833.9241016460314,196.24260092247857L834.3759761209913,196.15372759983427L834.7410890100639,197.41595637398018L833.1724083153047,197.83357265461086L833.7357798880574,200.07782948075157L834.9323307598956,201.35194010075827L834.0106167408228,202.3565358754256L832.2342382946338,204.99019459451642L830.3830133983832,201.3594497134494L829.9754561032014,201.528025149188L828.9181582932212,197.4390131148475Z" vector-effect="non-scaling-stroke"><title>Tolland County</title></path><path id="county-09015" class="county feature" d="M838.5140136694833,195.48651675571512L839.987367642271,200.61497540211053L840.4173540534615,202.1479431947181L838.234616793902,202.82188480408752L835.3919318667408,202.94520899145084L834.0106167408228,202.3565358754256L834.9323307598956,201.35194010075827L833.7357798880574,200.07782948075157L833.1724083153047,197.83357265461086L834.7410890100639,197.41595637398018L834.3759761209913,196.15372759983427Z" vector-effect="non-scaling-stroke"><title>Windham County</title></path><path id="county-09011" class="county feature" d="M840.4173540534615,202.1479431947181L840.5973153773532,202.93771440538512L841.3414558411207,206.2507397108651L841.0771916194573,208.0108020914696L839.0755258278036,208.96761243809885L836.6713804428343,209.28481920798754L834.8674712736519,210.62071859633193L832.7821630970082,208.30943765561835L834.4152940516847,207.64966960690754L833.719575301614,205.9260839536413L832.3212414594824,206.46870483729026L831.5644693532306,205.5069321961738L832.2342382946338,204.99019459451642L834.0106167408228,202.3565358754256L835.3919318667408,202.94520899145084L838.234616793902,202.82188480408752Z" vector-effect="non-scaling-stroke"><title>New London County</title></path><path id="county-09001" class="county feature" d="M820.7234094597806,210.42832341634607L822.6854213871023,211.14935693767927L824.8045933021965,212.74683752564147L824.5140094317848,214.09804604006194L823.8281170325081,215.50217388858744L820.8967902505856,218.39113914458585L818.1246901686677,220.29029221045664L816.6977431887517,218.52666350469678L819.5298192704727,215.67718946806883L818.011677443702,213.06842593759075L817.5016606788197,210.07782496458765L817.0455411563978,207.48441660244578L818.8560468149934,210.44554234781253Z" vector-effect="non-scaling-stroke"><title>Fairfield County</title></path><path id="county-09007" class="county feature" d="M832.1367477851284,211.74811286221552L832.0154367364369,211.69629785409563L832.1367477851284,211.74811286221552ZM831.5644693532306,205.5069321961738L832.3212414594824,206.46870483729026L833.719575301614,205.9260839536413L834.4152940516847,207.64966960690754L832.7821630970082,208.30943765561835L834.5009647124991,210.88290270626692L831.9560043292043,211.64453109678004L829.7074165537904,208.80051106517635L828.5375162950932,209.3839599533119L827.7460382533436,206.56303220905465L828.039962154593,205.54359762837873L830.7531103294792,204.4879385780945Z" vector-effect="non-scaling-stroke"><title>Middlesex County</title></path><path id="county-09009" class="county feature" d="M827.7460382533436,206.56303220905465L828.5375162950932,209.3839599533119L829.7074165537904,208.80051106517635L831.9560043292043,211.64453109678004L832.0154367364369,211.69629785409563L832.1367477851284,211.74811286221552L826.7293022551079,213.03728483080647L824.8196792584774,215.17466306299207L824.5140094317848,214.09804604006194L824.8045933021965,212.74683752564147L822.6854213871023,211.14935693767927L820.7234094597806,210.42832341634607L822.6069534911455,209.0899985403222L824.3671646782075,206.22620131487417L825.2335709513817,207.61654754250128Z" vector-effect="non-scaling-stroke"><title>New Haven County</title></path></g><path id="counties-mesh" class="counties mesh" d="M822.2249516584172,199.01750358366792L822.2718053201645,200.405486581393L824.1494147971764,199.8152240610558L824.0715400258516,203.0646743196072L823.1987719575654,203.44056942897396L824.3671646782075,206.22620131487417L822.6069534911455,209.0899985403222L820.7234094597806,210.42832341634607L818.8560468149934,210.44554234781253L817.0455411563978,207.48441660244578M828.9181582932212,197.4390131148475L829.9754561032014,201.528025149188L830.3830133983832,201.3594497134494L832.2342382946338,204.99019459451642L831.5644693532306,205.5069321961738L830.7531103294792,204.4879385780945L828.039962154593,205.54359762837873L827.7460382533436,206.56303220905465L825.2335709513817,207.61654754250128L824.3671646782075,206.22620131487417M834.3759761209913,196.15372759983427L834.7410890100639,197.41595637398018L833.1724083153047,197.83357265461086L833.7357798880574,200.07782948075157L834.9323307598956,201.35194010075827L834.0106167408228,202.3565358754256L832.2342382946338,204.99019459451642M820.7234094597806,210.42832341634607L822.6854213871023,211.14935693767927L824.8045933021965,212.74683752564147L824.5140094317848,214.09804604006194L823.8281170325081,215.50217388858744L820.8967902505856,218.39113914458585L818.1246901686677,220.29029221045664L816.6977431887517,218.52666350469678L819.5298192704727,215.67718946806883L818.011677443702,213.06842593759075L817.5016606788197,210.07782496458765L817.0455411563978,207.48441660244578L815.7715708903064,200.38561543899334L821.6208991622028,199.14870586913503L822.2249516584172,199.01750358366792L828.9181582932212,197.4390131148475L833.9241016460314,196.24260092247857L834.3759761209913,196.15372759983427L838.5140136694833,195.48651675571512L839.987367642271,200.61497540211053L840.4173540534615,202.1479431947181L838.234616793902,202.82188480408752L835.3919318667408,202.94520899145084L834.0106167408228,202.3565358754256M840.4173540534615,202.1479431947181L840.5973153773532,202.93771440538512L841.3414558411207,206.2507397108651L841.0771916194573,208.0108020914696L839.0755258278036,208.96761243809885L836.6713804428343,209.28481920798754L834.8674712736519,210.62071859633193L832.7821630970082,208.30943765561835L834.4152940516847,207.64966960690754L833.719575301614,205.9260839536413L832.3212414594824,206.46870483729026L831.5644693532306,205.5069321961738M832.7821630970082,208.30943765561835L834.5009647124991,210.88290270626692L831.9560043292043,211.64453109678004L829.7074165537904,208.80051106517635L828.5375162950932,209.3839599533119L827.7460382533436,206.56303220905465M831.9560043292043,211.64453109678004L832.0154367364369,211.69629785409563M832.1367477851284,211.74811286221552L832.0154367364369,211.69629785409563L832.1367477851284,211.74811286221552L826.7293022551079,213.03728483080647L824.8196792584774,215.17466306299207L824.5140094317848,214.09804604006194" vector-effect="non-scaling-stroke"></path></svg>