<svg xmlns="http://www.w3.org/2000/svg" version="1.2" id="root" viewBox="794.133055557167 247.51260080657255 15.5111361895448 25.743390331414275"><g id="counties"><path id="county-10003" class="county feature" d="M798.46 253.7l.06-.02-.06.02zm-.638-1.986l-.133-.418.133.418zm1.033-4.095l-1.895 4.104.955.845.04 1.94 1.413 1.561-1.6 1.73-1.545.244-.413-1.471-1.677-6.285 2.238-2.707.01-.003.184-.064z" vector-effect="non-scaling-stroke" fill="inherit" stroke="inherit" stroke-width="inherit"><title>New Castle County</title></path><path id="county-10001" class="county feature" d="M803.871 263.05l-2.228 1.406-.689 1.447-2.34.65-1.608-5.718-.526-1.873-.257-.919 1.546-.244 1.599-1.73 1.993 1.63.91 3.632z" vector-effect="non-scaling-stroke" fill="inherit" stroke="inherit" stroke-width="inherit"><title>Kent County</title></path><path id="county-10005" class="county feature" d="M803.871 263.05l2.371 2.311 1.375-.251.654 3.302 1.373 2.998-.289.065-.223.05-3.616.79-5.02.941-.513-1.83-.38-1.358-.99-3.516 2.341-.649.689-1.447z" vector-effect="non-scaling-stroke" fill="inherit" stroke="inherit" stroke-width="inherit"><title>Sussex County</title></path></g><path id="counties-mesh" class="counties mesh" d="M798.46 253.7l.06-.02-.06.02m-.638-1.986l-.133-.418.133.418m-3.689-1.427l2.238-2.707.01-.003.184-.064 2.29.106-1.895 4.104.955.845.04 1.94 1.413 1.561-1.6 1.73-1.545.244-.413-1.471-1.677-6.285m5.235 5.782l1.993 1.63.91 3.632 1.6 1.719-2.228 1.406-.689 1.447-2.34.65-1.608-5.718-.526-1.873-.257-.919m7.648 5.007l2.371 2.311 1.375-.251.654 3.302 1.373 2.998-.289.065-.223.05-3.616.79-5.02.941-.513-1.83-.38-1.358-.99-3.516" vector-effect="non-scaling-stroke" fill="inherit" stroke="inherit" stroke-width="inherit"/></svg>