<?xml version="1.0" standalone="yes"?>
<svg xmlns="http://www.w3.org/2000/svg" version="1.2" id="root" viewBox="792.596136731411 245.97568198081646 18.584973841056954 28.81722798292643"><style>
@import url("../../css/svg.css");</style><rect id="bbox" class="bbox" x="792.596136731411" y="245.97568198081646" width="18.584973841056954" height="28.81722798292643"></rect><g id="counties"><path id="county-10003" class="county feature" d="M798.4607574129285,253.699281328883L798.5193123980683,253.67922244319652L798.4607574129285,253.699281328883ZM797.8224746530203,251.71401170217086L797.6893549171427,251.29639757118673L797.8224746530203,251.71401170217086ZM798.8549148856002,247.61937821778338L796.9604180447316,251.72277911698882L797.9146372552759,252.5675906807112L797.9551971210774,254.50722661835653L799.3678074240463,256.06949127900236L797.7685693898964,257.7990296931067L796.2230765383815,258.04295645093066L795.8104531705903,256.57184119875706L794.133055557167,250.28665511635404L796.3711496164428,247.57981593910358L796.3808992714295,247.57665369280323L796.5652733736183,247.51260080657255Z" style="fill: inherit; stroke: inherit; stroke-width: inherit;" vector-effect="non-scaling-stroke"><title>New Castle County</title></path><path id="county-10001" class="county feature" d="M803.8714922321178,263.0497333611785L801.6428108158008,264.4562451217806L800.9541727174935,265.90300131871516L798.6133349976235,266.55223469290206L797.0059110062118,260.834929405284L796.4797641449234,258.96242875278915L796.2230765383815,258.04295645093066L797.7685693898964,257.7990296931067L799.3678074240463,256.06949127900236L801.3611324469796,257.69823049757895L802.2716482224241,261.3305305716848Z" style="fill: inherit; stroke: inherit; stroke-width: inherit;" vector-effect="non-scaling-stroke"><title>Kent County</title></path><path id="county-10005" class="county feature" d="M803.8714922321178,263.0497333611785L806.242410172712,265.3612330001488L807.6174251563865,265.10950000515004L808.2709464628053,268.41231853292186L809.6441917467118,271.4099223470622L809.3550421954985,271.4746801008747L809.1318295037407,271.5246259744383L805.5158535704145,272.3148254591259L800.4964534415283,273.2559911379868L799.982584251881,271.4261134502981L799.6030877970534,270.06773041945587L798.6133349976235,266.55223469290206L800.9541727174935,265.90300131871516L801.6428108158008,264.4562451217806Z" style="fill: inherit; stroke: inherit; stroke-width: inherit;" vector-effect="non-scaling-stroke"><title>Sussex County</title></path></g><path id="counties-mesh" class="counties mesh" d="M798.4607574129285,253.699281328883L798.5193123980683,253.67922244319652L798.4607574129285,253.699281328883M797.8224746530203,251.71401170217086L797.6893549171427,251.29639757118673L797.8224746530203,251.71401170217086M794.133055557167,250.28665511635404L796.3711496164428,247.57981593910358L796.3808992714295,247.57665369280323L796.5652733736183,247.51260080657255L798.8549148856002,247.61937821778338L796.9604180447316,251.72277911698882L797.9146372552759,252.5675906807112L797.9551971210774,254.50722661835653L799.3678074240463,256.06949127900236L797.7685693898964,257.7990296931067L796.2230765383815,258.04295645093066L795.8104531705903,256.57184119875706L794.133055557167,250.28665511635404M799.3678074240463,256.06949127900236L801.3611324469796,257.69823049757895L802.2716482224241,261.3305305716848L803.8714922321178,263.0497333611785L801.6428108158008,264.4562451217806L800.9541727174935,265.90300131871516L798.6133349976235,266.55223469290206L797.0059110062118,260.834929405284L796.4797641449234,258.96242875278915L796.2230765383815,258.04295645093066M803.8714922321178,263.0497333611785L806.242410172712,265.3612330001488L807.6174251563865,265.10950000515004L808.2709464628053,268.41231853292186L809.6441917467118,271.4099223470622L809.3550421954985,271.4746801008747L809.1318295037407,271.5246259744383L805.5158535704145,272.3148254591259L800.4964534415283,273.2559911379868L799.982584251881,271.4261134502981L799.6030877970534,270.06773041945587L798.6133349976235,266.55223469290206" style="fill: inherit; stroke: inherit; stroke-width: inherit;" vector-effect="non-scaling-stroke"></path></svg>