<?xml version="1.0" standalone="yes"?>
<svg xmlns="http://www.w3.org/2000/svg" version="1.2" id="root" viewBox="634.1812020904292 423.44554682389554 150.47648227227134 119.58477522523091"><style>
@import url("../../css/svg.css");</style><rect id="bbox" class="bbox" x="634.1812020904292" y="423.44554682389554" width="150.47648227227134" height="119.58477522523091"></rect><g id="counties"><path id="county-12063" class="county feature" d="M683.774562991289,434.7851474232381L686.591934723432,439.905408331873L685.7417577796956,441.9885479241508L681.9818116831409,442.3932804761747L682.0174363385707,443.21092066117797L678.6303500686417,443.5471006245699L677.8163579414941,443.62603992127777L677.403863359238,439.5681159472932L674.6518668757097,439.02588447574135L675.9224617570924,435.7469247444351L676.0758464260593,435.72686207969105Z" style="fill: inherit; stroke: inherit; stroke-width: inherit;" vector-effect="non-scaling-stroke"><title>Jackson County</title></path><path id="county-12033" class="county feature" d="M645.0364998896281,452.33867511620576L645.0290675155645,452.25560912677975L645.0364998896281,452.33867511620576ZM654.464592244803,449.67485766246307L654.4708235781338,449.7398833936247L654.464592244803,449.67485766246307ZM650.015423111914,446.9046709996463L650.3066374830278,448.97541968366374L648.9531587395104,450.75708961660405L645.889318627532,451.6931165201977L646.3486292939483,449.91006341124273L647.6393795733401,449.2608479804717L646.067068809941,448.39747135327525L646.1579835546531,444.8034897628811L644.0864712130762,443.71972847342454L642.2066144782837,441.57020905106515L642.5606298064332,439.0654178304827L649.4776483430309,438.4071410016104L647.7059530924888,439.97066355796665L647.5682608420204,443.556059971785Z" style="fill: inherit; stroke: inherit; stroke-width: inherit;" vector-effect="non-scaling-stroke"><title>Escambia County</title></path><path id="county-12113" class="county feature" d="M656.3559051071126,449.2642323306104L654.4708235781338,449.7398833936247L654.464592244803,449.67485766246307L656.3516448767322,449.16064287151755ZM655.4801270422797,437.87383937686946L656.3381674902993,448.90244347642215L650.3920266194303,450.51482393654453L654.031949679325,448.24318681129716L652.643312855789,447.4040235688152L651.9623450959709,448.5315632557173L650.2980897450171,446.2139387338185L650.015423111914,446.9046709996463L647.5682608420204,443.556059971785L647.7059530924888,439.97066355796665L649.4776483430309,438.4071410016104Z" style="fill: inherit; stroke: inherit; stroke-width: inherit;" vector-effect="non-scaling-stroke"><title>Santa Rosa County</title></path><path id="county-12091" class="county feature" d="M656.3559051071126,449.2642323306104L656.3516448767322,449.16064287151755L656.3559051071126,449.2642323306104ZM662.7898966501039,448.41362775980645L662.820242906572,448.7701688608505L662.7898966501039,448.41362775980645ZM657.0353351001376,437.7682938496754L661.7954663618123,437.2989209001147L662.7188841240984,447.37017932851404L661.6590425073136,446.4003161012538L659.5108524251002,448.6788722831768L656.3381674902993,448.90244347642215L655.4801270422797,437.87383937686946Z" style="fill: inherit; stroke: inherit; stroke-width: inherit;" vector-effect="non-scaling-stroke"><title>Okaloosa County</title></path><path id="county-12059" class="county feature" d="M675.9224617570924,435.7469247444351L674.6518668757097,439.02588447574135L674.5141234467479,440.6660127670167L671.2102617852665,440.1456109682806L671.0086566981265,441.82005078084705L667.9348216812117,442.10916758988446L667.4098433279247,436.7358619489047Z" style="fill: inherit; stroke: inherit; stroke-width: inherit;" vector-effect="non-scaling-stroke"><title>Holmes County</title></path><path id="county-12131" class="county feature" d="M664.9926525524317,436.97410757083367L667.4098433279247,436.7358619489047L667.9348216812117,442.10916758988446L671.0086566981265,441.82005078084705L670.020077686838,443.17769566392406L670.8491197526619,445.5744738703804L669.270096529013,447.9063966879921L669.4490829785751,450.1499585245143L662.820242906572,448.7701688608505L662.7898966501039,448.41362775980645L667.4821688369931,448.0659921990492L664.8537299551494,446.53982569281936L662.7188841240984,447.37017932851404L661.7954663618123,437.2989209001147Z" style="fill: inherit; stroke: inherit; stroke-width: inherit;" vector-effect="non-scaling-stroke"><title>Walton County</title></path><path id="county-12133" class="county feature" d="M677.8163579414941,443.62603992127777L676.9979385370076,443.7171683704547L677.2396054592122,446.1541434944154L671.3947816544934,446.7180574418784L669.270096529013,447.9063966879921L670.8491197526619,445.5744738703804L670.020077686838,443.17769566392406L671.0086566981265,441.82005078084705L671.2102617852665,440.1456109682806L674.5141234467479,440.6660127670167L674.6518668757097,439.02588447574135L677.403863359238,439.5681159472932Z" style="fill: inherit; stroke: inherit; stroke-width: inherit;" vector-effect="non-scaling-stroke"><title>Washington County</title></path><path id="county-12089" class="county feature" d="M733.2514601386813,431.47095921175L738.2813735870138,432.8118826747458L741.1580055353653,432.6834868104488L741.491225782726,436.12262136151185L740.466992702669,435.33854653384014L738.8041709884567,435.7031904894394L736.9401115774069,435.77915084459744L732.4880274580155,442.0845809337833L732.2333724749424,440.4410984192865L732.3890930471798,436.61165595067484L731.4372315835842,435.01657282961276L731.3749868242876,433.14205980314034Z" style="fill: inherit; stroke: inherit; stroke-width: inherit;" vector-effect="non-scaling-stroke"><title>Nassau County</title></path><path id="county-12039" class="county feature" d="M694.3346127907728,439.38128444365225L695.9092399769272,439.2771694898539L694.6397173317299,441.5340226999823L694.5394465420352,443.27018746155784L690.7835357457581,445.49985077233544L688.4771341952794,444.4287891114425L688.3358267070403,443.33510200997193L686.6964178459112,443.2573413488201L685.7417577796956,441.9885479241508L686.591934723432,439.905408331873L686.609061681032,439.9033923919128Z" style="fill: inherit; stroke: inherit; stroke-width: inherit;" vector-effect="non-scaling-stroke"><title>Gadsden County</title></path><path id="county-12073" class="county feature" d="M699.0922998813645,439.056707280369L700.3105967501765,438.97259550397393L701.150090105961,441.6987086065219L700.1327672225186,441.82875673455885L700.15967465843,446.5085200687198L697.3437829718835,446.2970371973462L689.9131833578961,447.26586074315594L690.7835357457581,445.49985077233544L694.5394465420352,443.27018746155784L694.6397173317299,441.5340226999823L695.9092399769272,439.2771694898539Z" style="fill: inherit; stroke: inherit; stroke-width: inherit;" vector-effect="non-scaling-stroke"><title>Leon County</title></path><path id="county-12065" class="county feature" d="M704.5360873875904,438.6871103339663L706.6527565677859,438.5480337973489L706.941354627264,439.81935705700437L705.0079811831574,441.4747365883708L705.4251512979681,442.8071964577408L704.1701344453852,445.4340324108458L702.786423523982,446.7289858621409L701.9162447277066,449.6510850177292L700.5633587986417,449.7554984085119L700.15967465843,446.5085200687198L700.1327672225186,441.82875673455885L701.150090105961,441.6987086065219L700.3105967501765,438.97259550397393Z" style="fill: inherit; stroke: inherit; stroke-width: inherit;" vector-effect="non-scaling-stroke"><title>Jefferson County</title></path><path id="county-12079" class="county feature" d="M710.7307554467097,438.27162208928576L710.9897829457689,438.25519926506354L711.4964334119553,438.2237522709763L712.1133188475892,438.277729787423L712.9435496978033,441.07211073317137L714.3249961116028,442.54742037617825L713.4183931574577,445.0207320001459L711.5056418935287,445.28277228999104L709.7764769997015,444.686893127173L704.1701344453852,445.4340324108458L705.4251512979681,442.8071964577408L705.0079811831574,441.4747365883708L706.941354627264,439.81935705700437L706.6527565677859,438.5480337973489Z" style="fill: inherit; stroke: inherit; stroke-width: inherit;" vector-effect="non-scaling-stroke"><title>Madison County</title></path><path id="county-12047" class="county feature" d="M714.2653863170915,438.04609729279L721.4423480989046,437.5499635450881L720.9494488762939,438.3442758994082L722.6351211661737,440.9682761210755L722.2254099781375,442.23597954897684L720.4421085180197,442.6173450224136L716.8486227189783,441.327025926376L714.3249961116028,442.54742037617825L712.9435496978033,441.07211073317137L712.1133188475892,438.277729787423L711.4964334119553,438.2237522709763Z" style="fill: inherit; stroke: inherit; stroke-width: inherit;" vector-effect="non-scaling-stroke"><title>Hamilton County</title></path><path id="county-12013" class="county feature" d="M685.7417577796956,441.9885479241508L683.6891325515325,449.88276276575084L679.2958289769007,450.36245215170334L678.6303500686417,443.5471006245699L682.0174363385707,443.21092066117797L681.9818116831409,442.3932804761747Z" style="fill: inherit; stroke: inherit; stroke-width: inherit;" vector-effect="non-scaling-stroke"><title>Calhoun County</title></path><path id="county-12077" class="county feature" d="M690.7835357457581,445.49985077233544L689.9131833578961,447.26586074315594L690.979597153753,450.388301498298L693.2480898896756,452.3133163587488L685.8259143514424,453.1372659813236L685.6295942504184,453.96071627068284L683.7057733524573,452.81700970512145L683.6891325515325,449.88276276575084L685.7417577796956,441.9885479241508L686.6964178459112,443.2573413488201L688.3358267070403,443.33510200997193L688.4771341952794,444.4287891114425Z" style="fill: inherit; stroke: inherit; stroke-width: inherit;" vector-effect="non-scaling-stroke"><title>Liberty County</title></path><path id="county-12023" class="county feature" d="M723.1283291179404,437.4260796563534L725.1196302127939,437.2799074895887L726.3319705640661,445.56902532749723L724.9857707164897,448.80693031690066L725.7080709680263,449.35213516654073L723.9353172068408,451.695807031665L721.4038459038287,450.12329282978976L720.4421085180197,442.6173450224136L722.2254099781375,442.23597954897684L722.6351211661737,440.9682761210755L720.9494488762939,438.3442758994082L721.4423480989046,437.5499635450881Z" style="fill: inherit; stroke: inherit; stroke-width: inherit;" vector-effect="non-scaling-stroke"><title>Columbia County</title></path><path id="county-12031" class="county feature" d="M742.4003009176623,440.98748174261664L742.7661759553899,443.69685347729524L740.2259649529485,443.71212079555914L739.1464110122854,443.776089705815L739.3803855114705,441.8148343065427L738.6006685466865,441.033059300692L739.1559534371729,438.8870650694769L741.9397778883706,439.1033940600179ZM743.1979436733704,440.8497914978127L742.4287128206693,440.9820750024661L742.007113615706,438.32930091388994ZM738.8041709884567,435.7031904894394L741.113613944178,436.05576774388044L741.5478332002419,438.00156026825425L738.8259680720535,438.8285973109199L739.0478311194488,440.2464180935748L737.678685251595,441.4289915137234L738.417041590691,442.75090826650467L732.7187344318054,443.6845861786478L732.4880274580155,442.0845809337833L736.9401115774069,435.77915084459744Z" style="fill: inherit; stroke: inherit; stroke-width: inherit;" vector-effect="non-scaling-stroke"><title>Duval County</title></path><path id="county-12003" class="county feature" d="M732.2333724749424,440.4410984192865L732.4880274580155,442.0845809337833L732.7187344318054,443.6845861786478L732.8386203005989,444.4954874673226L731.3553954337365,444.71403032590297L726.3319705640661,445.56902532749723L725.1196302127939,437.2799074895887L725.7758907599341,437.23235585452187L729.0539504422568,437.00805785884666L729.569430647032,439.85850176038673L730.3291849294616,440.7853749058288Z" style="fill: inherit; stroke: inherit; stroke-width: inherit;" vector-effect="non-scaling-stroke"><title>Baker County</title></path><path id="county-12005" class="county feature" d="M679.6341538565443,453.5366634214713L679.8914109104264,455.46709144812667L674.6978940831245,452.38153021629705L675.7301873112033,452.1808134953378L677.7475933993144,453.6691378694719ZM678.6303500686417,443.5471006245699L679.2958289769007,450.36245215170334L679.62050622208,453.41490384443523L678.1452053127138,453.62602443905985L677.3112613623551,452.04506130347477L676.1793901911668,452.29318456369583L673.8236483830159,451.24784839041024L673.9071387290071,452.39370652866967L669.4490829785751,450.1499585245143L669.270096529013,447.9063966879921L671.3947816544934,446.7180574418784L677.2396054592122,446.1541434944154L676.9979385370076,443.7171683704547L677.8163579414941,443.62603992127777Z" style="fill: inherit; stroke: inherit; stroke-width: inherit;" vector-effect="non-scaling-stroke"><title>Bay County</title></path><path id="county-12121" class="county feature" d="M720.4421085180197,442.6173450224136L721.4038459038287,450.12329282978976L720.2444157124431,451.14044473643946L716.7290978598649,447.9810908165981L714.1223694458916,447.681946363459L713.4183931574577,445.0207320001459L714.3249961116028,442.54742037617825L716.8486227189783,441.327025926376Z" style="fill: inherit; stroke: inherit; stroke-width: inherit;" vector-effect="non-scaling-stroke"><title>Suwannee County</title></path><path id="county-12123" class="county feature" d="M711.5056418935287,445.28277228999104L712.3711599869879,452.19428784259344L713.368058222877,453.29240444965353L712.5898302449897,456.24707922406196L710.1642357789724,455.6213628508589L708.1436261460674,452.86983956358904L705.5611664129442,451.23735697816926L701.9162447277066,449.6510850177292L702.786423523982,446.7289858621409L704.1701344453852,445.4340324108458L709.7764769997015,444.686893127173Z" style="fill: inherit; stroke: inherit; stroke-width: inherit;" vector-effect="non-scaling-stroke"><title>Taylor County</title></path><path id="county-12129" class="county feature" d="M700.15967465843,446.5085200687198L700.5633587986417,449.7554984085119L696.0800224823494,450.9740278851532L696.3390393198481,452.6986710391625L694.8641451711733,452.82387626796526L693.2480898896756,452.3133163587488L690.979597153753,450.388301498298L689.9131833578961,447.26586074315594L697.3437829718835,446.2970371973462Z" style="fill: inherit; stroke: inherit; stroke-width: inherit;" vector-effect="non-scaling-stroke"><title>Wakulla County</title></path><path id="county-12067" class="county feature" d="M713.4183931574577,445.0207320001459L714.1223694458916,447.681946363459L716.7290978598649,447.9810908165981L720.2444157124431,451.14044473643946L719.7495860287092,452.39286550646943L713.368058222877,453.29240444965353L712.3711599869879,452.19428784259344L711.5056418935287,445.28277228999104Z" style="fill: inherit; stroke: inherit; stroke-width: inherit;" vector-effect="non-scaling-stroke"><title>Lafayette County</title></path><path id="county-12109" class="county feature" d="M747.4772563712911,451.19876961932846L747.5520273820987,451.18704337884174L747.4772563712911,451.19876961932846ZM747.4486535714188,451.20427012560435L747.3681300099156,451.2168927671339L747.0330587347444,451.48571548545215L745.8926000185255,452.29844478839027L742.700232689662,452.8477492707458L742.2897330502549,450.3268214114876L740.9042241436595,448.07429152078134L741.2532218426322,446.556200383696L739.1532374749424,445.1699431084156L740.2259649529485,443.71212079555914L742.7661759553899,443.69685347729524L742.4003009176623,440.98748174261664L745.3946900494618,447.0612761097906L745.4526054289338,448.14960086948327ZM742.4287128206693,440.9820750024661L743.1979436733704,440.8497914978127L745.306779974316,446.2711804004633Z" style="fill: inherit; stroke: inherit; stroke-width: inherit;" vector-effect="non-scaling-stroke"><title>Saint Johns County</title></path><path id="county-12045" class="county feature" d="M683.6891325515325,449.88276276575084L683.7057733524573,452.81700970512145L685.6295942504184,453.96071627068284L685.673118281541,457.56575093975925L685.6709199467297,457.5973289126882L683.1273631242832,459.4643818832527L681.6230943215239,459.732983893687L681.5719398792775,457.67422676027957L679.8914109104264,455.46709144812667L679.6341538565443,453.5366634214713L679.62050622208,453.41490384443523L679.2958289769007,450.36245215170334Z" style="fill: inherit; stroke: inherit; stroke-width: inherit;" vector-effect="non-scaling-stroke"><title>Gulf County</title></path><path id="county-12019" class="county feature" d="M738.417041590691,442.75090826650467L737.4264259529402,444.289602209167L738.631581003277,444.087964801569L738.5018189981412,445.589759362055L740.3233839475611,446.7694478798734L740.7701721482327,449.0432948620727L737.4756258846797,449.600308104609L735.6752820725332,451.55262093155613L734.0047605765825,452.34341085513427L732.8386203005989,444.4954874673226L732.7187344318054,443.6845861786478Z" style="fill: inherit; stroke: inherit; stroke-width: inherit;" vector-effect="non-scaling-stroke"><title>Clay County</title></path><path id="county-12007" class="county feature" d="M732.8386203005989,444.4954874673226L734.0047605765825,452.34341085513427L733.9023264912132,452.36666791306016L732.3392229621313,450.3740791730013L730.0837344944808,450.5698977297966L727.536097679852,449.4259539641388L729.2332446072446,448.55176060735823L731.3553954337365,444.71403032590297Z" style="fill: inherit; stroke: inherit; stroke-width: inherit;" vector-effect="non-scaling-stroke"><title>Bradford County</title></path><path id="county-12125" class="county feature" d="M731.3553954337365,444.71403032590297L729.2332446072446,448.55176060735823L727.536097679852,449.4259539641388L725.7080709680263,449.35213516654073L724.9857707164897,448.80693031690066L726.3319705640661,445.56902532749723Z" style="fill: inherit; stroke: inherit; stroke-width: inherit;" vector-effect="non-scaling-stroke"><title>Union County</title></path><path id="county-12037" class="county feature" d="M684.8102019058568,459.374749392381L685.1941530641136,460.36792833356753L683.084775556727,459.7591104620933ZM683.1273631242832,459.4643818832527L685.6709199467297,457.5973289126882L686.6906166307576,458.66421371669765ZM693.2480898896756,452.3133163587488L694.8641451711733,452.82387626796526L696.562271095583,453.9418262385461L693.6570508723032,454.14509768654875L688.108756060915,458.1176293323439L685.673118281541,457.56575093975925L685.6295942504184,453.96071627068284L685.8259143514424,453.1372659813236Z" style="fill: inherit; stroke: inherit; stroke-width: inherit;" vector-effect="non-scaling-stroke"><title>Franklin County</title></path><path id="county-12001" class="county feature" d="M727.536097679852,449.4259539641388L730.0837344944808,450.5698977297966L732.3392229621313,450.3740791730013L733.9023264912132,452.36666791306016L734.5709744622229,456.93129366822336L732.489689843937,458.1862173957252L732.0304085020093,457.0622848543966L728.8922041176427,457.4992427180546L726.4909511759377,457.93733996277695L726.3279487865218,456.8753438204441L724.6696198012529,456.60090746849346L723.9353172068408,451.695807031665L725.7080709680263,449.35213516654073Z" style="fill: inherit; stroke: inherit; stroke-width: inherit;" vector-effect="non-scaling-stroke"><title>Alachua County</title></path><path id="county-12041" class="county feature" d="M723.9353172068408,451.695807031665L724.6696198012529,456.60090746849346L720.0809951773388,456.74000996455584L719.4506810119005,453.71099665464396L719.7495860287092,452.39286550646943L720.2444157124431,451.14044473643946L721.4038459038287,450.12329282978976Z" style="fill: inherit; stroke: inherit; stroke-width: inherit;" vector-effect="non-scaling-stroke"><title>Gilchrist County</title></path><path id="county-12107" class="county feature" d="M742.2897330502549,450.3268214114876L742.700232689662,452.8477492707458L743.1095405433257,455.16816032824624L744.7786378961356,456.7631880190571L742.66776200252,458.02922703562035L740.746866709364,456.7079564342414L740.2909915602421,453.8996370882162L741.6393621628184,453.2325068772136L740.8629017668909,451.65681146475845ZM740.7701721482327,449.0432948620727L741.751172150472,450.1524863568545L740.4943064255897,452.17481076165154L740.4714623826034,456.6442438886213L741.0835565211476,457.83556401811813L739.9068390802896,458.0260662748476L739.0281345587912,455.9606626931916L737.8648620813722,455.5219240677035L734.5709744622229,456.93129366822336L733.9023264912132,452.36666791306016L734.0047605765825,452.34341085513427L735.6752820725332,451.55262093155613L737.4756258846797,449.600308104609Z" style="fill: inherit; stroke: inherit; stroke-width: inherit;" vector-effect="non-scaling-stroke"><title>Putnam County</title></path><path id="county-12035" class="county feature" d="M747.0330587347444,451.48571548545215L749.9302502662479,455.4214115012609L749.2152331373084,455.83574150732863L749.728686991488,458.49469708227537L745.4416604050177,459.25416098252106L744.7786378961356,456.7631880190571L743.1095405433257,455.16816032824624L742.700232689662,452.8477492707458L745.8926000185255,452.29844478839027ZM747.3681300099156,451.2168927671339L747.4486535714188,451.20427012560435L747.3681300099156,451.2168927671339ZM747.5520273820987,451.18704337884174L750.0395206091337,455.4021145596614L749.9590881477527,455.41685552452407L747.4772563712911,451.19876961932846Z" style="fill: inherit; stroke: inherit; stroke-width: inherit;" vector-effect="non-scaling-stroke"><title>Flagler County</title></path><path id="county-12075" class="county feature" d="M724.6696198012529,456.60090746849346L726.3279487865218,456.8753438204441L726.4909511759377,457.93733996277695L728.8922041176427,457.4992427180546L729.6670963756537,462.4695389936877L727.5254328673634,462.79372141668534L727.9787016865854,465.9303821536205L724.5573437408926,467.29881930519775L724.53799077907,467.32986394665295L724.4373666830014,466.1479553507662L722.8625584560803,464.57900382459036L719.1431034763215,464.66399713838837L718.0156331669461,462.03342592666866L719.6240449526679,458.75969808124773L720.0809951773388,456.74000996455584Z" style="fill: inherit; stroke: inherit; stroke-width: inherit;" vector-effect="non-scaling-stroke"><title>Levy County</title></path><path id="county-12083" class="county feature" d="M741.0835565211476,457.83556401811813L741.7772229833869,459.51922677512016L742.3931051000329,465.398808264839L737.615284363832,466.1247627463764L731.827898412295,466.96811649397694L728.8525267727975,465.6597276921085L727.9787016865854,465.9303821536205L727.5254328673634,462.79372141668534L729.6670963756537,462.4695389936877L728.8922041176427,457.4992427180546L732.0304085020093,457.0622848543966L732.489689843937,458.1862173957252L734.5709744622229,456.93129366822336L737.8648620813722,455.5219240677035L739.0281345587912,455.9606626931916L739.9068390802896,458.0260662748476Z" style="fill: inherit; stroke: inherit; stroke-width: inherit;" vector-effect="non-scaling-stroke"><title>Marion County</title></path><path id="county-12127" class="county feature" d="M757.8641975499083,466.16428215197186L757.7538419693376,466.18215914905386L757.8641975499083,466.16428215197186ZM756.9698592436878,466.30994059991644L756.197111108992,466.4334753017099L755.9707097123396,466.47090490179687L754.0619370184893,466.79380072066147L754.2677666920706,470.1059181929786L752.3535013187108,466.614080852313L750.6245817637376,467.4719212082149L747.3453479313202,466.1796605637227L747.2308836919922,464.17889362853657L744.5340964295483,462.47640120005076L743.4141436528232,460.894955119629L743.5289181213789,458.8244870022464L742.66776200252,458.02922703562035L744.7786378961356,456.7631880190571L745.4416604050177,459.25416098252106L749.728686991488,458.49469708227537L749.2152331373084,455.83574150732863L749.9302502662479,455.4214115012609L750.5651545740195,456.7810766689271ZM750.0395206091337,455.4021145596614L749.9590881477527,455.41685552452407L750.0395206091337,455.4021145596614Z" style="fill: inherit; stroke: inherit; stroke-width: inherit;" vector-effect="non-scaling-stroke"><title>Volusia County</title></path><path id="county-12069" class="county feature" d="M743.4141436528232,460.894955119629L744.5340964295483,462.47640120005076L747.2308836919922,464.17889362853657L747.3453479313202,466.1796605637227L746.8401413193578,468.027578904661L742.9021919771465,468.7470121684348L744.1348488894887,476.69664865234597L739.244265435479,477.4688405801538L737.615284363832,466.1247627463764L742.3931051000329,465.398808264839L741.7772229833869,459.51922677512016Z" style="fill: inherit; stroke: inherit; stroke-width: inherit;" vector-effect="non-scaling-stroke"><title>Lake County</title></path><path id="county-12017" class="county feature" d="M724.5573437408926,467.29881930519775L724.53799077907,467.32986394665295L724.5573437408926,467.29881930519775ZM724.5573437408926,467.29881930519775L727.9787016865854,465.9303821536205L728.8525267727975,465.6597276921085L731.827898412295,466.96811649397694L734.5602158177887,469.7787337880869L733.398703214124,472.25666402353625L730.8012189819915,472.11963989929177L727.3150527650054,472.62529642598474L726.3485259264708,472.0570095228371L725.8531336047575,468.7960822125784Z" style="fill: inherit; stroke: inherit; stroke-width: inherit;" vector-effect="non-scaling-stroke"><title>Citrus County</title></path><path id="county-12119" class="county feature" d="M737.615284363832,466.1247627463764L739.244265435479,477.4688405801538L737.7316794741961,478.32017413502524L737.2899453662707,475.25010477331193L737.1896982209319,474.49099889782997L734.5485035719108,473.88975688259654L733.398703214124,472.25666402353625L734.5602158177887,469.7787337880869L731.827898412295,466.96811649397694Z" style="fill: inherit; stroke: inherit; stroke-width: inherit;" vector-effect="non-scaling-stroke"><title>Sumter County</title></path><path id="county-12117" class="county feature" d="M754.2677666920706,470.1059181929786L748.7479864371218,471.02667892335774L746.5247543486646,470.8088271479904L746.8401413193578,468.027578904661L747.3453479313202,466.1796605637227L750.6245817637376,467.4719212082149L752.3535013187108,466.614080852313Z" style="fill: inherit; stroke: inherit; stroke-width: inherit;" vector-effect="non-scaling-stroke"><title>Seminole County</title></path><path id="county-12009" class="county feature" d="M755.9707097123396,466.47090490179687L757.560860719275,470.71137083388203L760.87540205547,476.96783882173827L764.5602802324621,482.5696845361862L764.5255834182385,483.12827574060174L758.5164745142587,484.3307966493054L757.0668325118403,474.6677588418795L756.2342316996469,471.7550406893937L754.2677666920706,470.1059181929786L754.0619370184893,466.79380072066147ZM756.9698592436878,466.30994059991644L759.7476502803814,468.3192934084865L757.7538419693376,466.18215914905386L757.8641975499083,466.16428215197186L761.0156387618977,469.49877514901596L762.2508100525416,471.77799212170805L761.4123470330231,472.76316381276104L760.8463320601339,469.7425314029434L759.754685676911,473.6173738321236L759.3182842603288,473.5858424971701L758.6447494704189,469.83843022778L757.5351165183921,469.40447047937016L758.1843745450481,467.7720447437971L756.197111108992,466.4334753017099Z" style="fill: inherit; stroke: inherit; stroke-width: inherit;" vector-effect="non-scaling-stroke"><title>Brevard County</title></path><path id="county-12095" class="county feature" d="M746.8401413193578,468.027578904661L746.5247543486646,470.8088271479904L748.7479864371218,471.02667892335774L754.2677666920706,470.1059181929786L756.2342316996469,471.7550406893937L757.0668325118403,474.6677588418795L744.1348488894887,476.69664865234597L742.9021919771465,468.7470121684348Z" style="fill: inherit; stroke: inherit; stroke-width: inherit;" vector-effect="non-scaling-stroke"><title>Orange County</title></path><path id="county-12053" class="county feature" d="M733.398703214124,472.25666402353625L734.5485035719108,473.88975688259654L737.1896982209319,474.49099889782997L737.2899453662707,475.25010477331193L734.0642650641715,475.7223525561618L734.1813797356442,476.5264269877114L727.3647756505877,477.5292261128684L727.3150527650054,472.62529642598474L730.8012189819915,472.11963989929177Z" style="fill: inherit; stroke: inherit; stroke-width: inherit;" vector-effect="non-scaling-stroke"><title>Hernando County</title></path><path id="county-12101" class="county feature" d="M725.2225995360104,482.7518161460304L725.1699001792942,482.7601661753573L725.2225995360104,482.7518161460304ZM737.2899453662707,475.25010477331193L737.7316794741961,478.32017413502524L737.298327988303,481.02375914193647L728.382588403639,482.2800596090618L726.1890214487978,482.6007264422295L727.3647756505877,477.5292261128684L734.1813797356442,476.5264269877114L734.0642650641715,475.7223525561618Z" style="fill: inherit; stroke: inherit; stroke-width: inherit;" vector-effect="non-scaling-stroke"><title>Pasco County</title></path><path id="county-12105" class="county feature" d="M744.1348488894887,476.69664865234597L744.3808730185737,478.31455566455554L746.0020098815071,478.06514924785006L746.8814363604467,480.12579408140795L748.1695904622158,481.0089906483584L749.9481327371017,480.74576791299074L748.5582925686409,481.9322139544736L752.5391061995031,484.9015334796889L754.5624908605469,488.33693644495474L747.639245038516,489.34773721881595L739.5713506130721,490.5654549899488L738.1077124240638,480.90538317469577L737.298327988303,481.02375914193647L737.7316794741961,478.32017413502524L739.244265435479,477.4688405801538Z" style="fill: inherit; stroke: inherit; stroke-width: inherit;" vector-effect="non-scaling-stroke"><title>Polk County</title></path><path id="county-12097" class="county feature" d="M757.0668325118403,474.6677588418795L758.5164745142587,484.3307966493054L758.9829472008314,487.6499797631649L754.5624908605469,488.33693644495474L752.5391061995031,484.9015334796889L748.5582925686409,481.9322139544736L749.9481327371017,480.74576791299074L748.1695904622158,481.0089906483584L746.8814363604467,480.12579408140795L746.0020098815071,478.06514924785006L744.3808730185737,478.31455566455554L744.1348488894887,476.69664865234597Z" style="fill: inherit; stroke: inherit; stroke-width: inherit;" vector-effect="non-scaling-stroke"><title>Osceola County</title></path><path id="county-12103" class="county feature" d="M725.1699001792942,482.7601661753573L725.2225995360104,482.7518161460304L725.1699001792942,482.7601661753573ZM728.382588403639,482.2800596090618L728.8276695470261,485.13121836857977L727.8775057371852,486.81763874948103L730.0776105547454,487.8520401353326L729.8143003203779,490.8739146632289L728.0005873351296,490.25906251819123L725.9461517049068,488.4632383458934L726.4908891764853,486.00084548487575L726.1890214487978,482.6007264422295Z" style="fill: inherit; stroke: inherit; stroke-width: inherit;" vector-effect="non-scaling-stroke"><title>Pinellas County</title></path><path id="county-12057" class="county feature" d="M737.298327988303,481.02375914193647L738.1077124240638,480.90538317469577L739.5713506130721,490.5654549899488L731.3812693349965,491.77313545049026L733.6744743478218,488.16092778382296L731.682143439051,486.59176488494L732.223659128106,488.3170220355596L731.1490942891445,488.1597852274644L731.0073640381434,486.3661569873678L728.8276695470261,485.13121836857977L728.382588403639,482.2800596090618Z" style="fill: inherit; stroke: inherit; stroke-width: inherit;" vector-effect="non-scaling-stroke"><title>Hillsborough County</title></path><path id="county-12061" class="county feature" d="M767.7191095331052,487.8269006381091L762.4011854853574,488.67762906617816L760.8030471017806,488.9305801970521L760.5352074014322,487.384850594263L758.9829472008314,487.6499797631649L758.5164745142587,484.3307966493054L764.5255834182385,483.12827574060174L767.0642511917093,486.0316664374793ZM768.295652253094,487.726979158688L768.1134010245892,487.7593335912727L768.295652253094,487.726979158688Z" style="fill: inherit; stroke: inherit; stroke-width: inherit;" vector-effect="non-scaling-stroke"><title>Indian River County</title></path><path id="county-12055" class="county feature" d="M754.5624908605469,488.33693644495474L753.9659937257858,491.30718097912376L756.623577152307,492.9594179604224L759.0941483555059,495.7566804959932L755.3782253076484,496.36196662636127L755.6380462640793,497.97483430370534L753.9976238815279,498.24415537302787L754.2634909402897,499.8677924907546L749.3680423867626,500.6017793933688L748.4936791712933,494.96907296773804L747.639245038516,489.34773721881595Z" style="fill: inherit; stroke: inherit; stroke-width: inherit;" vector-effect="non-scaling-stroke"><title>Highlands County</title></path><path id="county-12049" class="county feature" d="M747.639245038516,489.34773721881595L748.4936791712933,494.96907296773804L740.3850940981981,496.235209933451L739.5713506130721,490.5654549899488Z" style="fill: inherit; stroke: inherit; stroke-width: inherit;" vector-effect="non-scaling-stroke"><title>Hardee County</title></path><path id="county-12081" class="county feature" d="M730.6416868801724,496.6776609018244L730.5763896372622,496.68589272596904L730.6416868801724,496.6776609018244ZM739.5713506130721,490.5654549899488L740.3850940981981,496.235209933451L740.7274872733617,498.6341855089937L737.4678323903544,499.09023147883795L737.0107669389143,495.8276307485933L731.8278472168108,496.52042173404334L729.5549821402344,495.1831145276108L730.872076872597,494.2558360136212L731.3812693349965,491.77313545049026Z" style="fill: inherit; stroke: inherit; stroke-width: inherit;" vector-effect="non-scaling-stroke"><title>Manatee County</title></path><path id="county-12093" class="county feature" d="M758.9829472008314,487.6499797631649L760.5352074014322,487.384850594263L760.8030471017806,488.9305801970521L762.4011854853574,488.67762906617816L763.4875062771572,495.134391688867L763.7434881184912,496.6710732575696L760.7869752694993,500.21669885988024L760.4652989217741,496.6199151663102L759.0941483555059,495.7566804959932L756.623577152307,492.9594179604224L753.9659937257858,491.30718097912376L754.5624908605469,488.33693644495474Z" style="fill: inherit; stroke: inherit; stroke-width: inherit;" vector-effect="non-scaling-stroke"><title>Okeechobee County</title></path><path id="county-12111" class="county feature" d="M771.1853889714678,492.7899389425261L771.0197787933048,492.8167057914781L771.1853889714678,492.7899389425261ZM768.295652253094,487.726979158688L768.1134010245892,487.7593335912727L768.295652253094,487.726979158688ZM767.7191095331052,487.8269006381091L770.6417722919803,492.88105419323415L769.8808088185388,493.5989096486965L769.9422091775297,494.0032911824707L763.4875062771572,495.134391688867L762.4011854853574,488.67762906617816Z" style="fill: inherit; stroke: inherit; stroke-width: inherit;" vector-effect="non-scaling-stroke"><title>Saint Lucie County</title></path><path id="county-12115" class="county feature" d="M736.2249576065485,504.2003331182597L736.1834373753178,504.2073347672536L736.2249576065485,504.2003331182597ZM731.8278472168108,496.52042173404334L737.0107669389143,495.8276307485933L737.4678323903544,499.09023147883795L740.7274872733617,498.6341855089937L741.186198625543,501.86171065801483L737.9089693697701,502.32734868501893L737.981523499332,502.8255496723531L738.0001999187849,502.95379338043006L738.1373272266018,503.9371217116285L736.5109252934061,504.1610297759555L734.7025297072573,502.3135443090531ZM730.5763896372622,496.68589272596904L730.6416868801724,496.6776609018244L730.5763896372622,496.68589272596904Z" style="fill: inherit; stroke: inherit; stroke-width: inherit;" vector-effect="non-scaling-stroke"><title>Sarasota County</title></path><path id="county-12027" class="county feature" d="M748.4936791712933,494.96907296773804L749.3680423867626,500.6017793933688L741.186198625543,501.86171065801483L740.7274872733617,498.6341855089937L740.3850940981981,496.235209933451Z" style="fill: inherit; stroke: inherit; stroke-width: inherit;" vector-effect="non-scaling-stroke"><title>DeSoto County</title></path><path id="county-12085" class="county feature" d="M774.058175997883,497.8133646675504L774.034465265589,497.81737352254896L774.058175997883,497.8133646675504ZM773.9685959307617,497.8244645558933L773.5948104411139,497.885575289842L773.5412928942148,497.8935960474619L773.3216236594246,497.9286261918862L773.191204308954,497.9506092676457L773.0811039857193,498.2380393646452L760.7869752694993,500.21669885988024L763.7434881184912,496.6710732575696L763.4875062771572,495.134391688867L769.9422091775297,494.0032911824707L772.4161898160892,495.15713573466087ZM771.1853889714678,492.7899389425261L771.0197787933048,492.8167057914781L771.1853889714678,492.7899389425261ZM770.6417722919803,492.88105419323415L769.8808088185388,493.5989096486965L770.6417722919803,492.88105419323415Z" style="fill: inherit; stroke: inherit; stroke-width: inherit;" vector-effect="non-scaling-stroke"><title>Martin County</title></path><path id="county-12043" class="county feature" d="M760.7869752694993,500.21669885988024L760.3511336788067,503.8539659080176L750.0559415486678,505.4539230733457L749.3680423867626,500.6017793933688L754.2634909402897,499.8677924907546L753.9976238815279,498.24415537302787L755.6380462640793,497.97483430370534L755.3782253076484,496.36196662636127L759.0941483555059,495.7566804959932L760.4652989217741,496.6199151663102Z" style="fill: inherit; stroke: inherit; stroke-width: inherit;" vector-effect="non-scaling-stroke"><title>Glades County</title></path><path id="county-12015" class="county feature" d="M738.2796940675152,506.83776841846975L738.345129735662,506.827242556473L738.2796940675152,506.83776841846975ZM736.1834373753178,504.2073347672536L736.2249576065485,504.2003331182597L736.1834373753178,504.2073347672536ZM736.5109252934061,504.1610297759555L738.1373272266018,503.9371217116285L738.0001999187849,502.95379338043006L739.3389102579991,503.92486012565155L740.3095087752022,506.3961906285256L737.6324482251919,505.85951648504033ZM749.3680423867626,500.6017793933688L750.0559415486678,505.4539230733457L741.8662728906118,506.67046062115514L740.8563158994464,504.1563346028737L742.5143581991143,502.87126558281165L740.3249941017816,503.189807640735L739.882205499805,504.0648372236313L737.981523499332,502.8255496723531L737.9089693697701,502.32734868501893L741.186198625543,501.86171065801483Z" style="fill: inherit; stroke: inherit; stroke-width: inherit;" vector-effect="non-scaling-stroke"><title>Charlotte County</title></path><path id="county-12099" class="county feature" d="M774.034465265589,497.81737352254896L774.058175997883,497.8133646675504L774.034465265589,497.81737352254896ZM773.9685959307617,497.8244645558933L773.5948104411139,497.885575289842L773.9685959307617,497.8244645558933ZM773.5412928942148,497.8935960474619L773.3216236594246,497.9286261918862L773.5412928942148,497.8935960474619ZM773.191204308954,497.9506092676457L774.3026904408687,498.2855598951903L775.8373213151124,505.25595948636567L776.161046089931,509.6690763996845L773.5869657418486,509.8480815753387L762.7018558358459,511.69733436318137L760.7869752694993,500.21669885988024L773.0811039857193,498.2380393646452Z" style="fill: inherit; stroke: inherit; stroke-width: inherit;" vector-effect="non-scaling-stroke"><title>Palm Beach County</title></path><path id="county-12051" class="county feature" d="M762.7018558358459,511.69733436318137L762.9363401505283,513.0058897239012L756.4705447607635,514.1485677053524L755.661718777904,509.324423435655L750.8104397021998,510.14413947167833L750.0559415486678,505.4539230733457L760.3511336788067,503.8539659080176L760.7869752694993,500.21669885988024Z" style="fill: inherit; stroke: inherit; stroke-width: inherit;" vector-effect="non-scaling-stroke"><title>Hendry County</title></path><path id="county-12071" class="county feature" d="M740.4193752892486,508.0997938049751L742.6365743216911,511.67760711020145L742.0546340762277,511.91642896269207ZM750.0559415486678,505.4539230733457L750.8104397021998,510.14413947167833L751.0948705237088,511.80240709646205L749.4783655925175,512.0782233900312L749.790406154817,513.9693833908393L746.6287080204579,514.2074585643842L745.8748015470702,511.83188028550035L742.8609800436728,511.0466582756437L741.714958625125,508.4115999472821L741.8662728906118,506.67046062115514ZM738.2796940675152,506.83776841846975L738.345129735662,506.827242556473L738.2796940675152,506.83776841846975Z" style="fill: inherit; stroke: inherit; stroke-width: inherit;" vector-effect="non-scaling-stroke"><title>Lee County</title></path><path id="county-12021" class="county feature" d="M754.9798906968197,522.8046790793221L755.058025393992,522.7916026320681L754.9798906968197,522.8046790793221ZM762.9363401505283,513.0058897239012L763.8716066703821,518.1058194789157L764.3814021669701,521.2817923664941L756.4908575245437,522.5675349288609L753.4329999068044,521.1630611820764L752.0902589213472,521.5628159053819L749.4255319473324,520.0226648460091L748.0087069668198,518.4116060909271L746.6287080204579,514.2074585643842L749.790406154817,513.9693833908393L749.4783655925175,512.0782233900312L751.0948705237088,511.80240709646205L750.8104397021998,510.14413947167833L755.661718777904,509.324423435655L756.4705447607635,514.1485677053524Z" style="fill: inherit; stroke: inherit; stroke-width: inherit;" vector-effect="non-scaling-stroke"><title>Collier County</title></path><path id="county-12011" class="county feature" d="M776.161046089931,509.6690763996845L776.4913881103298,516.1073223571361L773.6027595715829,516.9384662556419L767.1683939434831,517.9960595160856L763.8716066703821,518.1058194789157L762.9363401505283,513.0058897239012L762.7018558358459,511.69733436318137L773.5869657418486,509.8480815753387Z" style="fill: inherit; stroke: inherit; stroke-width: inherit;" vector-effect="non-scaling-stroke"><title>Broward County</title></path><path id="county-12086" class="county feature" d="M776.632271974846,517.4915642379297L775.9791773295647,520.2551615397364L774.5464801311427,522.9688479673538L774.317375197698,525.9464860267265L775.1085621410094,527.6807977211892L773.5257957279243,530.4591464690183L773.4288182013593,530.4741690773092L772.5969406459515,531.0465840526699L772.6275068821685,531.1189340879114L771.3263963606673,530.7287108837508L769.211130545664,532.5477234189107L766.4716361762863,532.7160667576043L765.6687131141084,529.3402466972336L764.3814021669701,521.2817923664941L763.8716066703821,518.1058194789157L767.1683939434831,517.9960595160856L773.6027595715829,516.9384662556419L776.4913881103298,516.1073223571361Z" style="fill: inherit; stroke: inherit; stroke-width: inherit;" vector-effect="non-scaling-stroke"><title>Miami-Dade County</title></path><path id="county-12087" class="county feature" d="M772.6275068821685,531.1189340879114L772.5969406459515,531.0465840526699L772.6275068821685,531.1189340879114ZM773.4288182013593,530.4741690773092L773.5257957279243,530.4591464690183L773.4288182013593,530.4741690773092ZM775.9356775550737,527.9491559947862L774.2278387474128,532.672568138011L772.3575429783014,535.004909661272L774.9228788637595,530.8226858676662ZM755.058025393992,522.7916026320681L754.9798906968197,522.8046790793221L755.058025393992,522.7916026320681ZM764.3814021669701,521.2817923664941L765.6687131141084,529.3402466972336L766.4716361762863,532.7160667576043L765.8640334785218,533.5013912789495L762.8274450742236,534.4245851362869L761.044522817905,532.7334814746162L761.3140452601189,530.4258464054425L762.6821437413354,531.8585427081448L764.6263431145056,532.5244848405056L765.4877411125085,531.4628495349866L763.7219217482725,529.9659494791883L761.5878228358661,530.1566747608528L759.5851032305903,527.6260562354062L757.9257608414688,524.4499877621853L759.2438214084851,523.6404186156665L757.8452011917441,522.9858390988056L757.558978710948,524.3946466441737L756.4908575245437,522.5675349288609Z" style="fill: inherit; stroke: inherit; stroke-width: inherit;" vector-effect="non-scaling-stroke"><title>Monroe County</title></path><path id="county-12029" class="county feature" d="M719.7495860287092,452.39286550646943L719.4506810119005,453.71099665464396L720.0809951773388,456.74000996455584L719.6240449526679,458.75969808124773L718.0156331669461,462.03342592666866L716.9556632040167,462.0917115034332L715.6710042117313,460.31150962826723L712.6958483850971,458.6724558847851L712.5898302449897,456.24707922406196L713.368058222877,453.29240444965353Z" style="fill: inherit; stroke: inherit; stroke-width: inherit;" vector-effect="non-scaling-stroke"><title>Dixie County</title></path></g><path id="counties-mesh" class="counties mesh" d="M686.591934723432,439.905408331873L685.7417577796956,441.9885479241508L681.9818116831409,442.3932804761747L682.0174363385707,443.21092066117797L678.6303500686417,443.5471006245699L677.8163579414941,443.62603992127777L677.403863359238,439.5681159472932L674.6518668757097,439.02588447574135L675.9224617570924,435.7469247444351M645.0364998896281,452.33867511620576L645.0290675155645,452.25560912677975L645.0364998896281,452.33867511620576M654.464592244803,449.67485766246307L654.4708235781338,449.7398833936247L654.464592244803,449.67485766246307L656.3516448767322,449.16064287151755L656.3559051071126,449.2642323306104L654.4708235781338,449.7398833936247M655.4801270422797,437.87383937686946L656.3381674902993,448.90244347642215L650.3920266194303,450.51482393654453L654.031949679325,448.24318681129716L652.643312855789,447.4040235688152L651.9623450959709,448.5315632557173L650.2980897450171,446.2139387338185L650.015423111914,446.9046709996463M656.3516448767322,449.16064287151755L656.3559051071126,449.2642323306104M661.7954663618123,437.2989209001147L662.7188841240984,447.37017932851404L661.6590425073136,446.4003161012538L659.5108524251002,448.6788722831768L656.3381674902993,448.90244347642215M674.6518668757097,439.02588447574135L674.5141234467479,440.6660127670167L671.2102617852665,440.1456109682806L671.0086566981265,441.82005078084705L667.9348216812117,442.10916758988446L667.4098433279247,436.7358619489047M671.0086566981265,441.82005078084705L670.020077686838,443.17769566392406L670.8491197526619,445.5744738703804L669.270096529013,447.9063966879921L669.4490829785751,450.1499585245143L662.820242906572,448.7701688608505M662.7898966501039,448.41362775980645L662.820242906572,448.7701688608505L662.7898966501039,448.41362775980645L667.4821688369931,448.0659921990492L664.8537299551494,446.53982569281936L662.7188841240984,447.37017932851404M677.8163579414941,443.62603992127777L676.9979385370076,443.7171683704547L677.2396054592122,446.1541434944154L671.3947816544934,446.7180574418784L669.270096529013,447.9063966879921M649.4776483430309,438.4071410016104L647.7059530924888,439.97066355796665L647.5682608420204,443.556059971785L650.015423111914,446.9046709996463L650.3066374830278,448.97541968366374L648.9531587395104,450.75708961660405L645.889318627532,451.6931165201977L646.3486292939483,449.91006341124273L647.6393795733401,449.2608479804717L646.067068809941,448.39747135327525L646.1579835546531,444.8034897628811L644.0864712130762,443.71972847342454L642.2066144782837,441.57020905106515L642.5606298064332,439.0654178304827L649.4776483430309,438.4071410016104L655.4801270422797,437.87383937686946L657.0353351001376,437.7682938496754L661.7954663618123,437.2989209001147L664.9926525524317,436.97410757083367L667.4098433279247,436.7358619489047L675.9224617570924,435.7469247444351L676.0758464260593,435.72686207969105L683.774562991289,434.7851474232381L686.591934723432,439.905408331873L686.609061681032,439.9033923919128L694.3346127907728,439.38128444365225L695.9092399769272,439.2771694898539L699.0922998813645,439.056707280369L700.3105967501765,438.97259550397393L704.5360873875904,438.6871103339663L706.6527565677859,438.5480337973489L710.7307554467097,438.27162208928576L710.9897829457689,438.25519926506354L711.4964334119553,438.2237522709763L714.2653863170915,438.04609729279L721.4423480989046,437.5499635450881L723.1283291179404,437.4260796563534L725.1196302127939,437.2799074895887L725.7758907599341,437.23235585452187L729.0539504422568,437.00805785884666L729.569430647032,439.85850176038673L730.3291849294616,440.7853749058288L732.2333724749424,440.4410984192865L732.3890930471798,436.61165595067484L731.4372315835842,435.01657282961276L731.3749868242876,433.14205980314034L733.2514601386813,431.47095921175L738.2813735870138,432.8118826747458L741.1580055353653,432.6834868104488L741.491225782726,436.12262136151185L740.466992702669,435.33854653384014L738.8041709884567,435.7031904894394L736.9401115774069,435.77915084459744L732.4880274580155,442.0845809337833L732.2333724749424,440.4410984192865M700.3105967501765,438.97259550397393L701.150090105961,441.6987086065219L700.1327672225186,441.82875673455885L700.15967465843,446.5085200687198L697.3437829718835,446.2970371973462L689.9131833578961,447.26586074315594L690.7835357457581,445.49985077233544M706.6527565677859,438.5480337973489L706.941354627264,439.81935705700437L705.0079811831574,441.4747365883708L705.4251512979681,442.8071964577408L704.1701344453852,445.4340324108458L702.786423523982,446.7289858621409L701.9162447277066,449.6510850177292L700.5633587986417,449.7554984085119L700.15967465843,446.5085200687198M711.4964334119553,438.2237522709763L712.1133188475892,438.277729787423L712.9435496978033,441.07211073317137L714.3249961116028,442.54742037617825L713.4183931574577,445.0207320001459L711.5056418935287,445.28277228999104L709.7764769997015,444.686893127173L704.1701344453852,445.4340324108458M721.4423480989046,437.5499635450881L720.9494488762939,438.3442758994082L722.6351211661737,440.9682761210755L722.2254099781375,442.23597954897684L720.4421085180197,442.6173450224136L716.8486227189783,441.327025926376L714.3249961116028,442.54742037617825M695.9092399769272,439.2771694898539L694.6397173317299,441.5340226999823L694.5394465420352,443.27018746155784L690.7835357457581,445.49985077233544L688.4771341952794,444.4287891114425L688.3358267070403,443.33510200997193L686.6964178459112,443.2573413488201L685.7417577796956,441.9885479241508L683.6891325515325,449.88276276575084L679.2958289769007,450.36245215170334L678.6303500686417,443.5471006245699M689.9131833578961,447.26586074315594L690.979597153753,450.388301498298L693.2480898896756,452.3133163587488L685.8259143514424,453.1372659813236L685.6295942504184,453.96071627068284L683.7057733524573,452.81700970512145L683.6891325515325,449.88276276575084M725.1196302127939,437.2799074895887L726.3319705640661,445.56902532749723L724.9857707164897,448.80693031690066L725.7080709680263,449.35213516654073L723.9353172068408,451.695807031665L721.4038459038287,450.12329282978976L720.4421085180197,442.6173450224136M738.8041709884567,435.7031904894394L741.113613944178,436.05576774388044L741.5478332002419,438.00156026825425L738.8259680720535,438.8285973109199L739.0478311194488,440.2464180935748L737.678685251595,441.4289915137234L738.417041590691,442.75090826650467L732.7187344318054,443.6845861786478L732.4880274580155,442.0845809337833M732.7187344318054,443.6845861786478L732.8386203005989,444.4954874673226L731.3553954337365,444.71403032590297L726.3319705640661,445.56902532749723M679.2958289769007,450.36245215170334L679.62050622208,453.41490384443523L678.1452053127138,453.62602443905985L677.3112613623551,452.04506130347477L676.1793901911668,452.29318456369583L673.8236483830159,451.24784839041024L673.9071387290071,452.39370652866967L669.4490829785751,450.1499585245143M721.4038459038287,450.12329282978976L720.2444157124431,451.14044473643946L716.7290978598649,447.9810908165981L714.1223694458916,447.681946363459L713.4183931574577,445.0207320001459M711.5056418935287,445.28277228999104L712.3711599869879,452.19428784259344L713.368058222877,453.29240444965353L712.5898302449897,456.24707922406196L710.1642357789724,455.6213628508589L708.1436261460674,452.86983956358904L705.5611664129442,451.23735697816926L701.9162447277066,449.6510850177292M700.5633587986417,449.7554984085119L696.0800224823494,450.9740278851532L696.3390393198481,452.6986710391625L694.8641451711733,452.82387626796526L693.2480898896756,452.3133163587488M720.2444157124431,451.14044473643946L719.7495860287092,452.39286550646943L713.368058222877,453.29240444965353M747.5520273820987,451.18704337884174L750.0395206091337,455.4021145596614L749.9590881477527,455.41685552452407L747.4772563712911,451.19876961932846L747.5520273820987,451.18704337884174L747.4772563712911,451.19876961932846M742.4003009176623,440.98748174261664L742.7661759553899,443.69685347729524L740.2259649529485,443.71212079555914L739.1464110122854,443.776089705815L739.3803855114705,441.8148343065427L738.6006685466865,441.033059300692L739.1559534371729,438.8870650694769L741.9397778883706,439.1033940600179L742.4003009176623,440.98748174261664L745.3946900494618,447.0612761097906L745.4526054289338,448.14960086948327L747.4486535714188,451.20427012560435L747.3681300099156,451.2168927671339L747.0330587347444,451.48571548545215L745.8926000185255,452.29844478839027L742.700232689662,452.8477492707458L742.2897330502549,450.3268214114876L740.9042241436595,448.07429152078134L741.2532218426322,446.556200383696L739.1532374749424,445.1699431084156L740.2259649529485,443.71212079555914M743.1979436733704,440.8497914978127L742.4287128206693,440.9820750024661L742.007113615706,438.32930091388994L743.1979436733704,440.8497914978127L745.306779974316,446.2711804004633L742.4287128206693,440.9820750024661M685.6295942504184,453.96071627068284L685.673118281541,457.56575093975925L685.6709199467297,457.5973289126882L683.1273631242832,459.4643818832527L681.6230943215239,459.732983893687L681.5719398792775,457.67422676027957L679.8914109104264,455.46709144812667M679.6341538565443,453.5366634214713L679.8914109104264,455.46709144812667L674.6978940831245,452.38153021629705L675.7301873112033,452.1808134953378L677.7475933993144,453.6691378694719L679.6341538565443,453.5366634214713L679.62050622208,453.41490384443523M738.417041590691,442.75090826650467L737.4264259529402,444.289602209167L738.631581003277,444.087964801569L738.5018189981412,445.589759362055L740.3233839475611,446.7694478798734L740.7701721482327,449.0432948620727L737.4756258846797,449.600308104609L735.6752820725332,451.55262093155613L734.0047605765825,452.34341085513427L732.8386203005989,444.4954874673226M734.0047605765825,452.34341085513427L733.9023264912132,452.36666791306016L732.3392229621313,450.3740791730013L730.0837344944808,450.5698977297966L727.536097679852,449.4259539641388L729.2332446072446,448.55176060735823L731.3553954337365,444.71403032590297M727.536097679852,449.4259539641388L725.7080709680263,449.35213516654073M684.8102019058568,459.374749392381L685.1941530641136,460.36792833356753L683.084775556727,459.7591104620933L684.8102019058568,459.374749392381M685.6709199467297,457.5973289126882L686.6906166307576,458.66421371669765L683.1273631242832,459.4643818832527M694.8641451711733,452.82387626796526L696.562271095583,453.9418262385461L693.6570508723032,454.14509768654875L688.108756060915,458.1176293323439L685.673118281541,457.56575093975925M733.9023264912132,452.36666791306016L734.5709744622229,456.93129366822336L732.489689843937,458.1862173957252L732.0304085020093,457.0622848543966L728.8922041176427,457.4992427180546L726.4909511759377,457.93733996277695L726.3279487865218,456.8753438204441L724.6696198012529,456.60090746849346L723.9353172068408,451.695807031665M724.6696198012529,456.60090746849346L720.0809951773388,456.74000996455584L719.4506810119005,453.71099665464396L719.7495860287092,452.39286550646943M742.700232689662,452.8477492707458L743.1095405433257,455.16816032824624L744.7786378961356,456.7631880190571L742.66776200252,458.02922703562035L740.746866709364,456.7079564342414L740.2909915602421,453.8996370882162L741.6393621628184,453.2325068772136L740.8629017668909,451.65681146475845L742.2897330502549,450.3268214114876M740.7701721482327,449.0432948620727L741.751172150472,450.1524863568545L740.4943064255897,452.17481076165154L740.4714623826034,456.6442438886213L741.0835565211476,457.83556401811813L739.9068390802896,458.0260662748476L739.0281345587912,455.9606626931916L737.8648620813722,455.5219240677035L734.5709744622229,456.93129366822336M747.0330587347444,451.48571548545215L749.9302502662479,455.4214115012609L749.2152331373084,455.83574150732863L749.728686991488,458.49469708227537L745.4416604050177,459.25416098252106L744.7786378961356,456.7631880190571M747.4486535714188,451.20427012560435L747.3681300099156,451.2168927671339M728.8922041176427,457.4992427180546L729.6670963756537,462.4695389936877L727.5254328673634,462.79372141668534L727.9787016865854,465.9303821536205L724.5573437408926,467.29881930519775L724.53799077907,467.32986394665295L724.4373666830014,466.1479553507662L722.8625584560803,464.57900382459036L719.1431034763215,464.66399713838837L718.0156331669461,462.03342592666866L719.6240449526679,458.75969808124773L720.0809951773388,456.74000996455584M741.0835565211476,457.83556401811813L741.7772229833869,459.51922677512016L742.3931051000329,465.398808264839L737.615284363832,466.1247627463764L731.827898412295,466.96811649397694L728.8525267727975,465.6597276921085L727.9787016865854,465.9303821536205M749.9302502662479,455.4214115012609L750.5651545740195,456.7810766689271L756.9698592436878,466.30994059991644L756.197111108992,466.4334753017099L755.9707097123396,466.47090490179687L754.0619370184893,466.79380072066147L754.2677666920706,470.1059181929786L752.3535013187108,466.614080852313L750.6245817637376,467.4719212082149L747.3453479313202,466.1796605637227L747.2308836919922,464.17889362853657L744.5340964295483,462.47640120005076L743.4141436528232,460.894955119629L743.5289181213789,458.8244870022464L742.66776200252,458.02922703562035M750.0395206091337,455.4021145596614L749.9590881477527,455.41685552452407M747.3453479313202,466.1796605637227L746.8401413193578,468.027578904661L742.9021919771465,468.7470121684348L744.1348488894887,476.69664865234597L739.244265435479,477.4688405801538L737.615284363832,466.1247627463764M741.7772229833869,459.51922677512016L743.4141436528232,460.894955119629M731.827898412295,466.96811649397694L734.5602158177887,469.7787337880869L733.398703214124,472.25666402353625L730.8012189819915,472.11963989929177L727.3150527650054,472.62529642598474L726.3485259264708,472.0570095228371L725.8531336047575,468.7960822125784L724.5573437408926,467.29881930519775L724.53799077907,467.32986394665295M739.244265435479,477.4688405801538L737.7316794741961,478.32017413502524L737.2899453662707,475.25010477331193L737.1896982209319,474.49099889782997L734.5485035719108,473.88975688259654L733.398703214124,472.25666402353625M755.9707097123396,466.47090490179687L757.560860719275,470.71137083388203L760.87540205547,476.96783882173827L764.5602802324621,482.5696845361862L764.5255834182385,483.12827574060174L758.5164745142587,484.3307966493054L757.0668325118403,474.6677588418795L756.2342316996469,471.7550406893937L754.2677666920706,470.1059181929786L748.7479864371218,471.02667892335774L746.5247543486646,470.8088271479904L746.8401413193578,468.027578904661M756.9698592436878,466.30994059991644L759.7476502803814,468.3192934084865L757.7538419693376,466.18215914905386M757.8641975499083,466.16428215197186L757.7538419693376,466.18215914905386L757.8641975499083,466.16428215197186L761.0156387618977,469.49877514901596L762.2508100525416,471.77799212170805L761.4123470330231,472.76316381276104L760.8463320601339,469.7425314029434L759.754685676911,473.6173738321236L759.3182842603288,473.5858424971701L758.6447494704189,469.83843022778L757.5351165183921,469.40447047937016L758.1843745450481,467.7720447437971L756.197111108992,466.4334753017099M737.2899453662707,475.25010477331193L734.0642650641715,475.7223525561618L734.1813797356442,476.5264269877114L727.3647756505877,477.5292261128684L727.3150527650054,472.62529642598474M737.7316794741961,478.32017413502524L737.298327988303,481.02375914193647L728.382588403639,482.2800596090618L726.1890214487978,482.6007264422295L727.3647756505877,477.5292261128684M757.0668325118403,474.6677588418795L744.1348488894887,476.69664865234597L744.3808730185737,478.31455566455554L746.0020098815071,478.06514924785006L746.8814363604467,480.12579408140795L748.1695904622158,481.0089906483584L749.9481327371017,480.74576791299074L748.5582925686409,481.9322139544736L752.5391061995031,484.9015334796889L754.5624908605469,488.33693644495474L747.639245038516,489.34773721881595L739.5713506130721,490.5654549899488L738.1077124240638,480.90538317469577L737.298327988303,481.02375914193647M725.2225995360104,482.7518161460304L725.1699001792942,482.7601661753573L725.2225995360104,482.7518161460304L725.1699001792942,482.7601661753573M728.382588403639,482.2800596090618L728.8276695470261,485.13121836857977L727.8775057371852,486.81763874948103L730.0776105547454,487.8520401353326L729.8143003203779,490.8739146632289L728.0005873351296,490.25906251819123L725.9461517049068,488.4632383458934L726.4908891764853,486.00084548487575L726.1890214487978,482.6007264422295M748.4936791712933,494.96907296773804L740.3850940981981,496.235209933451L739.5713506130721,490.5654549899488L731.3812693349965,491.77313545049026L733.6744743478218,488.16092778382296L731.682143439051,486.59176488494L732.223659128106,488.3170220355596L731.1490942891445,488.1597852274644L731.0073640381434,486.3661569873678L728.8276695470261,485.13121836857977M764.5255834182385,483.12827574060174L767.0642511917093,486.0316664374793L767.7191095331052,487.8269006381091L762.4011854853574,488.67762906617816L760.8030471017806,488.9305801970521L760.5352074014322,487.384850594263L758.9829472008314,487.6499797631649M758.5164745142587,484.3307966493054L758.9829472008314,487.6499797631649L754.5624908605469,488.33693644495474L753.9659937257858,491.30718097912376L756.623577152307,492.9594179604224L759.0941483555059,495.7566804959932L755.3782253076484,496.36196662636127L755.6380462640793,497.97483430370534L753.9976238815279,498.24415537302787L754.2634909402897,499.8677924907546L749.3680423867626,500.6017793933688L748.4936791712933,494.96907296773804L747.639245038516,489.34773721881595M740.3850940981981,496.235209933451L740.7274872733617,498.6341855089937L737.4678323903544,499.09023147883795L737.0107669389143,495.8276307485933L731.8278472168108,496.52042173404334L729.5549821402344,495.1831145276108L730.872076872597,494.2558360136212L731.3812693349965,491.77313545049026M762.4011854853574,488.67762906617816L763.4875062771572,495.134391688867L763.7434881184912,496.6710732575696L760.7869752694993,500.21669885988024L760.4652989217741,496.6199151663102L759.0941483555059,495.7566804959932M768.295652253094,487.726979158688L768.1134010245892,487.7593335912727L768.295652253094,487.726979158688L768.1134010245892,487.7593335912727M767.7191095331052,487.8269006381091L770.6417722919803,492.88105419323415L769.8808088185388,493.5989096486965L769.9422091775297,494.0032911824707L763.4875062771572,495.134391688867M740.7274872733617,498.6341855089937L741.186198625543,501.86171065801483L737.9089693697701,502.32734868501893L737.981523499332,502.8255496723531L738.0001999187849,502.95379338043006L738.1373272266018,503.9371217116285L736.5109252934061,504.1610297759555L734.7025297072573,502.3135443090531L731.8278472168108,496.52042173404334M730.6416868801724,496.6776609018244L730.5763896372622,496.68589272596904L730.6416868801724,496.6776609018244L730.5763896372622,496.68589272596904M769.9422091775297,494.0032911824707L772.4161898160892,495.15713573466087L773.9685959307617,497.8244645558933L773.5948104411139,497.885575289842L773.5412928942148,497.8935960474619L773.3216236594246,497.9286261918862L773.191204308954,497.9506092676457L773.0811039857193,498.2380393646452L760.7869752694993,500.21669885988024L760.3511336788067,503.8539659080176L750.0559415486678,505.4539230733457L749.3680423867626,500.6017793933688L741.186198625543,501.86171065801483M771.1853889714678,492.7899389425261L771.0197787933048,492.8167057914781L771.1853889714678,492.7899389425261L771.0197787933048,492.8167057914781M770.6417722919803,492.88105419323415L769.8808088185388,493.5989096486965M738.345129735662,506.827242556473L738.2796940675152,506.83776841846975L738.345129735662,506.827242556473L738.2796940675152,506.83776841846975M736.2249576065485,504.2003331182597L736.1834373753178,504.2073347672536L736.2249576065485,504.2003331182597L736.1834373753178,504.2073347672536M738.0001999187849,502.95379338043006L739.3389102579991,503.92486012565155L740.3095087752022,506.3961906285256L737.6324482251919,505.85951648504033L736.5109252934061,504.1610297759555M762.7018558358459,511.69733436318137L762.9363401505283,513.0058897239012L756.4705447607635,514.1485677053524L755.661718777904,509.324423435655L750.8104397021998,510.14413947167833L750.0559415486678,505.4539230733457L741.8662728906118,506.67046062115514L740.8563158994464,504.1563346028737L742.5143581991143,502.87126558281165L740.3249941017816,503.189807640735L739.882205499805,504.0648372236313L737.981523499332,502.8255496723531M774.058175997883,497.8133646675504L774.034465265589,497.81737352254896L774.058175997883,497.8133646675504L774.034465265589,497.81737352254896M773.9685959307617,497.8244645558933L773.5948104411139,497.885575289842M773.5412928942148,497.8935960474619L773.3216236594246,497.9286261918862M773.191204308954,497.9506092676457L774.3026904408687,498.2855598951903L775.8373213151124,505.25595948636567L776.161046089931,509.6690763996845L773.5869657418486,509.8480815753387L762.7018558358459,511.69733436318137L760.7869752694993,500.21669885988024M740.4193752892486,508.0997938049751L742.6365743216911,511.67760711020145L742.0546340762277,511.91642896269207L740.4193752892486,508.0997938049751M750.8104397021998,510.14413947167833L751.0948705237088,511.80240709646205L749.4783655925175,512.0782233900312L749.790406154817,513.9693833908393L746.6287080204579,514.2074585643842L745.8748015470702,511.83188028550035L742.8609800436728,511.0466582756437L741.714958625125,508.4115999472821L741.8662728906118,506.67046062115514M755.058025393992,522.7916026320681L754.9798906968197,522.8046790793221L755.058025393992,522.7916026320681L754.9798906968197,522.8046790793221M762.9363401505283,513.0058897239012L763.8716066703821,518.1058194789157L764.3814021669701,521.2817923664941L756.4908575245437,522.5675349288609L753.4329999068044,521.1630611820764L752.0902589213472,521.5628159053819L749.4255319473324,520.0226648460091L748.0087069668198,518.4116060909271L746.6287080204579,514.2074585643842M776.161046089931,509.6690763996845L776.4913881103298,516.1073223571361L773.6027595715829,516.9384662556419L767.1683939434831,517.9960595160856L763.8716066703821,518.1058194789157M776.4913881103298,516.1073223571361L776.632271974846,517.4915642379297L775.9791773295647,520.2551615397364L774.5464801311427,522.9688479673538L774.317375197698,525.9464860267265L775.1085621410094,527.6807977211892L773.5257957279243,530.4591464690183L773.4288182013593,530.4741690773092L772.5969406459515,531.0465840526699L772.6275068821685,531.1189340879114L771.3263963606673,530.7287108837508L769.211130545664,532.5477234189107L766.4716361762863,532.7160667576043L765.6687131141084,529.3402466972336L764.3814021669701,521.2817923664941M772.5969406459515,531.0465840526699L772.6275068821685,531.1189340879114M773.5257957279243,530.4591464690183L773.4288182013593,530.4741690773092M775.9356775550737,527.9491559947862L774.2278387474128,532.672568138011L772.3575429783014,535.004909661272L774.9228788637595,530.8226858676662L775.9356775550737,527.9491559947862M766.4716361762863,532.7160667576043L765.8640334785218,533.5013912789495L762.8274450742236,534.4245851362869L761.044522817905,532.7334814746162L761.3140452601189,530.4258464054425L762.6821437413354,531.8585427081448L764.6263431145056,532.5244848405056L765.4877411125085,531.4628495349866L763.7219217482725,529.9659494791883L761.5878228358661,530.1566747608528L759.5851032305903,527.6260562354062L757.9257608414688,524.4499877621853L759.2438214084851,523.6404186156665L757.8452011917441,522.9858390988056L757.558978710948,524.3946466441737L756.4908575245437,522.5675349288609M718.0156331669461,462.03342592666866L716.9556632040167,462.0917115034332L715.6710042117313,460.31150962826723L712.6958483850971,458.6724558847851L712.5898302449897,456.24707922406196" style="fill: inherit; stroke: inherit; stroke-width: inherit;" vector-effect="non-scaling-stroke"></path></svg>