<svg xmlns="http://www.w3.org/2000/svg" version="1.2" id="root" viewBox="642.2066144782837 431.47095921175 134.4256574965624 103.53395044952197"><g id="counties"><path id="county-12063" class="county feature" d="M683.775 434.785l2.817 5.12-.85 2.084-3.76.404.035.818-3.387.336-.814.079-.412-4.058-2.752-.542 1.27-3.28.154-.02z" vector-effect="non-scaling-stroke" fill="inherit" stroke="inherit" stroke-width="inherit"><title>Jackson County</title></path><path id="county-12033" class="county feature" d="M645.036 452.339l-.007-.083.007.083zm9.429-2.664l.006.065-.006-.065zm-4.45-2.77l.292 2.07-1.354 1.782-3.064.936.46-1.783 1.29-.65-1.572-.863.091-3.594-2.072-1.083-1.88-2.15.355-2.505 6.917-.658-1.772 1.564-.138 3.585z" vector-effect="non-scaling-stroke" fill="inherit" stroke="inherit" stroke-width="inherit"><title>Escambia County</title></path><path id="county-12113" class="county feature" d="M656.356 449.264l-1.885.476-.006-.065 1.887-.514zm-.876-11.39l.858 11.028-5.946 1.613 3.64-2.272-1.389-.839-.68 1.128-1.665-2.318-.283.69-2.447-3.348.138-3.585 1.772-1.564z" vector-effect="non-scaling-stroke" fill="inherit" stroke="inherit" stroke-width="inherit"><title>Santa Rosa County</title></path><path id="county-12091" class="county feature" d="M656.356 449.264l-.004-.103.004.103zm6.434-.85l.03.356-.03-.356zm-5.755-10.646l4.76-.47.924 10.072-1.06-.97-2.148 2.279-3.173.223-.858-11.028z" vector-effect="non-scaling-stroke" fill="inherit" stroke="inherit" stroke-width="inherit"><title>Okaloosa County</title></path><path id="county-12059" class="county feature" d="M675.922 435.747l-1.27 3.279-.138 1.64-3.304-.52-.201 1.674-3.074.29-.525-5.374z" vector-effect="non-scaling-stroke" fill="inherit" stroke="inherit" stroke-width="inherit"><title>Holmes County</title></path><path id="county-12131" class="county feature" d="M664.993 436.974l2.417-.238.525 5.373 3.074-.289-.989 1.358.83 2.396-1.58 2.332.18 2.244-6.63-1.38-.03-.356 4.692-.348-2.628-1.526-2.135.83-.924-10.071z" vector-effect="non-scaling-stroke" fill="inherit" stroke="inherit" stroke-width="inherit"><title>Walton County</title></path><path id="county-12133" class="county feature" d="M677.816 443.626l-.818.091.242 2.437-5.845.564-2.125 1.188 1.58-2.332-.83-2.396.989-1.358.201-1.674 3.304.52.138-1.64 2.752.542z" vector-effect="non-scaling-stroke" fill="inherit" stroke="inherit" stroke-width="inherit"><title>Washington County</title></path><path id="county-12089" class="county feature" d="M733.251 431.471l5.03 1.34 2.877-.128.333 3.44-1.024-.784-1.663.364-1.864.076-4.452 6.306-.255-1.644.156-3.83-.952-1.594-.062-1.875z" vector-effect="non-scaling-stroke" fill="inherit" stroke="inherit" stroke-width="inherit"><title>Nassau County</title></path><path id="county-12039" class="county feature" d="M694.335 439.381l1.574-.104-1.27 2.257-.1 1.736-3.755 2.23-2.307-1.071-.141-1.094-1.64-.078-.954-1.268.85-2.084.017-.002z" vector-effect="non-scaling-stroke" fill="inherit" stroke="inherit" stroke-width="inherit"><title>Gadsden County</title></path><path id="county-12073" class="county feature" d="M699.092 439.057l1.219-.084.84 2.726-1.018.13.027 4.68-2.816-.212-7.43.969.87-1.766 3.755-2.23.1-1.736 1.27-2.257z" vector-effect="non-scaling-stroke" fill="inherit" stroke="inherit" stroke-width="inherit"><title>Leon County</title></path><path id="county-12065" class="county feature" d="M704.536 438.687l2.117-.139.288 1.271-1.933 1.656.417 1.332-1.255 2.627-1.384 1.295-.87 2.922-1.353.104-.403-3.246-.027-4.68 1.017-.13-.84-2.726z" vector-effect="non-scaling-stroke" fill="inherit" stroke="inherit" stroke-width="inherit"><title>Jefferson County</title></path><path id="county-12079" class="county feature" d="M710.73 438.272l.26-.017.506-.031.617.054.83 2.794 1.382 1.475-.907 2.474-1.912.262-1.73-.596-5.606.747 1.255-2.627-.417-1.332 1.933-1.656-.288-1.271z" vector-effect="non-scaling-stroke" fill="inherit" stroke="inherit" stroke-width="inherit"><title>Madison County</title></path><path id="county-12047" class="county feature" d="M714.265 438.046l7.177-.496-.493.794 1.686 2.624-.41 1.268-1.783.381-3.593-1.29-2.524 1.22-1.381-1.475-.83-2.794-.618-.054z" vector-effect="non-scaling-stroke" fill="inherit" stroke="inherit" stroke-width="inherit"><title>Hamilton County</title></path><path id="county-12013" class="county feature" d="M685.742 441.989l-2.053 7.894-4.393.48-.666-6.816 3.387-.336-.035-.818z" vector-effect="non-scaling-stroke" fill="inherit" stroke="inherit" stroke-width="inherit"><title>Calhoun County</title></path><path id="county-12077" class="county feature" d="M690.784 445.5l-.87 1.766 1.066 3.122 2.268 1.925-7.422.824-.196.824-1.924-1.144-.017-2.934 2.053-7.894.954 1.268 1.64.078.141 1.094z" vector-effect="non-scaling-stroke" fill="inherit" stroke="inherit" stroke-width="inherit"><title>Liberty County</title></path><path id="county-12023" class="county feature" d="M723.128 437.426l1.992-.146 1.212 8.289-1.346 3.238.722.545-1.773 2.344-2.531-1.573-.962-7.506 1.783-.381.41-1.268-1.686-2.624.493-.794z" vector-effect="non-scaling-stroke" fill="inherit" stroke="inherit" stroke-width="inherit"><title>Columbia County</title></path><path id="county-12031" class="county feature" d="M742.4 440.987l.366 2.71-2.54.015-1.08.064.234-1.961-.78-.782.556-2.146 2.784.216zm.798-.137l-.77.132-.42-2.653zm-4.394-5.147l2.31.353.434 1.946-2.722.827.222 1.417-1.37 1.183.739 1.322-5.698.934-.231-1.6 4.452-6.306z" vector-effect="non-scaling-stroke" fill="inherit" stroke="inherit" stroke-width="inherit"><title>Duval County</title></path><path id="county-12003" class="county feature" d="M732.233 440.441l.255 1.644.23 1.6.12.81-1.483.219-5.023.855-1.212-8.29.656-.047 3.278-.224.515 2.85.76.927z" vector-effect="non-scaling-stroke" fill="inherit" stroke="inherit" stroke-width="inherit"><title>Baker County</title></path><path id="county-12005" class="county feature" d="M679.634 453.537l.257 1.93-5.193-3.085 1.032-.201 2.018 1.488zm-1.004-9.99l.666 6.815.325 3.053-1.476.211-.834-1.58-1.132.247-2.355-1.045.083 1.146-4.458-2.244-.179-2.244 2.125-1.188 5.845-.564-.242-2.437.818-.091z" vector-effect="non-scaling-stroke" fill="inherit" stroke="inherit" stroke-width="inherit"><title>Bay County</title></path><path id="county-12121" class="county feature" d="M720.442 442.617l.962 7.506-1.16 1.017-3.515-3.159-2.607-.3-.704-2.66.907-2.474 2.524-1.22z" vector-effect="non-scaling-stroke" fill="inherit" stroke="inherit" stroke-width="inherit"><title>Suwannee County</title></path><path id="county-12123" class="county feature" d="M711.506 445.283l.865 6.911.997 1.098-.778 2.955-2.426-.626-2.02-2.751-2.583-1.633-3.645-1.586.87-2.922 1.384-1.295 5.606-.747z" vector-effect="non-scaling-stroke" fill="inherit" stroke="inherit" stroke-width="inherit"><title>Taylor County</title></path><path id="county-12129" class="county feature" d="M700.16 446.509l.403 3.246-4.483 1.219.259 1.725-1.475.125-1.616-.51-2.268-1.926-1.067-3.122 7.43-.969z" vector-effect="non-scaling-stroke" fill="inherit" stroke="inherit" stroke-width="inherit"><title>Wakulla County</title></path><path id="county-12067" class="county feature" d="M713.418 445.02l.704 2.662 2.607.3 3.515 3.158-.494 1.253-6.382.9-.997-1.099-.865-6.911z" vector-effect="non-scaling-stroke" fill="inherit" stroke="inherit" stroke-width="inherit"><title>Lafayette County</title></path><path id="county-12109" class="county feature" d="M747.477 451.199l.075-.012-.075.012zm-.028.005l-.08.013-.336.269-1.14.812-3.193.55-.41-2.521-1.386-2.253.35-1.518-2.1-1.386 1.072-1.458 2.54-.015-.366-2.71 2.995 6.074.058 1.089zm-5.02-10.222l.769-.132 2.109 5.421z" vector-effect="non-scaling-stroke" fill="inherit" stroke="inherit" stroke-width="inherit"><title>Saint Johns County</title></path><path id="county-12045" class="county feature" d="M683.69 449.883l.016 2.934 1.924 1.144.043 3.605-.002.031-2.544 1.867-1.504.269-.051-2.059-1.68-2.207-.258-1.93-.013-.122-.325-3.053z" vector-effect="non-scaling-stroke" fill="inherit" stroke="inherit" stroke-width="inherit"><title>Gulf County</title></path><path id="county-12019" class="county feature" d="M738.417 442.75l-.99 1.54 1.205-.202-.13 1.502 1.821 1.18.447 2.273-3.294.557-1.8 1.953-1.671.79-1.166-7.848-.12-.81z" vector-effect="non-scaling-stroke" fill="inherit" stroke="inherit" stroke-width="inherit"><title>Clay County</title></path><path id="county-12007" class="county feature" d="M732.839 444.495l1.166 7.848-.103.024-1.563-1.993-2.255.196-2.548-1.144 1.697-.874 2.122-3.838z" vector-effect="non-scaling-stroke" fill="inherit" stroke="inherit" stroke-width="inherit"><title>Bradford County</title></path><path id="county-12125" class="county feature" d="M731.355 444.714l-2.122 3.838-1.697.874-1.828-.074-.722-.545 1.346-3.238z" vector-effect="non-scaling-stroke" fill="inherit" stroke="inherit" stroke-width="inherit"><title>Union County</title></path><path id="county-12037" class="county feature" d="M684.81 459.375l.384.993-2.11-.609zm-1.683.09l2.544-1.868 1.02 1.067zm10.121-7.152l1.616.51 1.698 1.119-2.905.203-5.548 3.973-2.436-.552-.043-3.605.196-.824z" vector-effect="non-scaling-stroke" fill="inherit" stroke="inherit" stroke-width="inherit"><title>Franklin County</title></path><path id="county-12001" class="county feature" d="M727.536 449.426l2.548 1.144 2.255-.196 1.563 1.993.669 4.564-2.081 1.255-.46-1.124-3.138.437-2.401.438-.163-1.062-1.658-.274-.735-4.905 1.773-2.344z" vector-effect="non-scaling-stroke" fill="inherit" stroke="inherit" stroke-width="inherit"><title>Alachua County</title></path><path id="county-12041" class="county feature" d="M723.935 451.696l.735 4.905-4.589.139-.63-3.029.299-1.318.494-1.253 1.16-1.017z" vector-effect="non-scaling-stroke" fill="inherit" stroke="inherit" stroke-width="inherit"><title>Gilchrist County</title></path><path id="county-12107" class="county feature" d="M742.29 450.327l.41 2.52.41 2.321 1.669 1.595-2.111 1.266-1.921-1.321-.456-2.808 1.348-.667-.776-1.576zm-1.52-1.284l.981 1.11-1.257 2.022-.023 4.47.613 1.19-1.177.191-.879-2.065-1.163-.44-3.294 1.41-.669-4.564.103-.024 1.67-.79 1.8-1.953z" vector-effect="non-scaling-stroke" fill="inherit" stroke="inherit" stroke-width="inherit"><title>Putnam County</title></path><path id="county-12035" class="county feature" d="M747.033 451.486l2.897 3.935-.715.415.514 2.659-4.287.76-.663-2.492-1.67-1.595-.409-2.32 3.193-.55zm.335-.27l.08-.012-.08.013zm.184-.029l2.488 4.215-.08.015-2.483-4.218z" vector-effect="non-scaling-stroke" fill="inherit" stroke="inherit" stroke-width="inherit"><title>Flagler County</title></path><path id="county-12075" class="county feature" d="M724.67 456.6l1.658.275.163 1.062 2.401-.438.775 4.97-2.142.325.454 3.136-3.422 1.369-.019.03-.1-1.181-1.575-1.569-3.72.085-1.127-2.63 1.608-3.274.457-2.02z" vector-effect="non-scaling-stroke" fill="inherit" stroke="inherit" stroke-width="inherit"><title>Levy County</title></path><path id="county-12083" class="county feature" d="M741.084 457.836l.693 1.683.616 5.88-4.778.726-5.787.843-2.975-1.308-.874.27-.454-3.136 2.142-.324-.775-4.97 3.138-.438.46 1.124 2.081-1.255 3.294-1.41 1.163.44.879 2.065z" vector-effect="non-scaling-stroke" fill="inherit" stroke="inherit" stroke-width="inherit"><title>Marion County</title></path><path id="county-12127" class="county feature" d="M757.864 466.164l-.11.018.11-.018zm-.894.146l-.773.123-.226.038-1.91.323.207 3.312-1.914-3.492-1.73.858-3.279-1.292-.114-2.001-2.697-1.703-1.12-1.581.115-2.07-.861-.796 2.11-1.266.664 2.491 4.287-.76-.514-2.658.715-.415.635 1.36zm-6.93-10.908l-.08.015.08-.015z" vector-effect="non-scaling-stroke" fill="inherit" stroke="inherit" stroke-width="inherit"><title>Volusia County</title></path><path id="county-12069" class="county feature" d="M743.414 460.895l1.12 1.581 2.697 1.703.114 2-.505 1.849-3.938.719 1.233 7.95-4.89.772-1.63-11.344 4.778-.726-.616-5.88z" vector-effect="non-scaling-stroke" fill="inherit" stroke="inherit" stroke-width="inherit"><title>Lake County</title></path><path id="county-12017" class="county feature" d="M724.557 467.299l-.019.03.02-.03zm0 0l3.422-1.369.874-.27 2.975 1.308 2.732 2.81-1.161 2.479-2.598-.137-3.486.505-.966-.568-.496-3.26z" vector-effect="non-scaling-stroke" fill="inherit" stroke="inherit" stroke-width="inherit"><title>Citrus County</title></path><path id="county-12119" class="county feature" d="M737.615 466.125l1.63 11.344-1.513.851-.442-3.07-.1-.759-2.641-.601-1.15-1.633 1.161-2.478-2.732-2.81z" vector-effect="non-scaling-stroke" fill="inherit" stroke="inherit" stroke-width="inherit"><title>Sumter County</title></path><path id="county-12117" class="county feature" d="M754.268 470.106l-5.52.92-2.223-.217.315-2.781.505-1.848 3.28 1.292 1.729-.858z" vector-effect="non-scaling-stroke" fill="inherit" stroke="inherit" stroke-width="inherit"><title>Seminole County</title></path><path id="county-12009" class="county feature" d="M755.97 466.47l1.59 4.241 3.315 6.257 3.685 5.602-.034.558-6.01 1.203-1.45-9.663-.832-2.913-1.966-1.65-.206-3.311zm1-.16l2.778 2.01-1.994-2.138.11-.018 3.152 3.335 1.235 2.279-.839.985-.566-3.02-1.091 3.874-.437-.031-.673-3.748-1.11-.434.65-1.632-1.988-1.339z" vector-effect="non-scaling-stroke" fill="inherit" stroke="inherit" stroke-width="inherit"><title>Brevard County</title></path><path id="county-12095" class="county feature" d="M746.84 468.028l-.315 2.78 2.223.219 5.52-.921 1.966 1.649.833 2.913-12.932 2.029-1.233-7.95z" vector-effect="non-scaling-stroke" fill="inherit" stroke="inherit" stroke-width="inherit"><title>Orange County</title></path><path id="county-12053" class="county feature" d="M733.399 472.257l1.15 1.633 2.64.601.1.76-3.225.471.117.804-6.816 1.003-.05-4.904 3.486-.505z" vector-effect="non-scaling-stroke" fill="inherit" stroke="inherit" stroke-width="inherit"><title>Hernando County</title></path><path id="county-12101" class="county feature" d="M725.223 482.752l-.053.008.053-.008zm12.067-7.502l.442 3.07-.434 2.704-8.915 1.256-2.194.32 1.176-5.07 6.816-1.004-.117-.804z" vector-effect="non-scaling-stroke" fill="inherit" stroke="inherit" stroke-width="inherit"><title>Pasco County</title></path><path id="county-12105" class="county feature" d="M744.135 476.697l.246 1.618 1.621-.25.88 2.06 1.288.884 1.778-.263-1.39 1.186 3.981 2.97 2.023 3.435-6.923 1.01-8.068 1.218-1.463-9.66-.81.119.434-2.704 1.512-.851z" vector-effect="non-scaling-stroke" fill="inherit" stroke="inherit" stroke-width="inherit"><title>Polk County</title></path><path id="county-12097" class="county feature" d="M757.067 474.668l1.45 9.663.466 3.319-4.42.687-2.024-3.435-3.98-2.97 1.39-1.186-1.78.263-1.288-.883-.879-2.06-1.621.249-.246-1.618z" vector-effect="non-scaling-stroke" fill="inherit" stroke="inherit" stroke-width="inherit"><title>Osceola County</title></path><path id="county-12103" class="county feature" d="M725.17 482.76l.053-.008-.053.008zm3.213-.48l.445 2.851-.95 1.687 2.2 1.034-.264 3.022-1.813-.615-2.055-1.796.545-2.462-.302-3.4z" vector-effect="non-scaling-stroke" fill="inherit" stroke="inherit" stroke-width="inherit"><title>Pinellas County</title></path><path id="county-12057" class="county feature" d="M737.298 481.024l.81-.119 1.463 9.66-8.19 1.208 2.293-3.612-1.992-1.57.542 1.726-1.075-.157-.142-1.794-2.18-1.235-.444-2.85z" vector-effect="non-scaling-stroke" fill="inherit" stroke="inherit" stroke-width="inherit"><title>Hillsborough County</title></path><path id="county-12061" class="county feature" d="M767.72 487.827l-5.319.85-1.598.254-.268-1.546-1.552.265-.467-3.32 6.01-1.202 2.538 2.904zm.576-.1l-.183.032.183-.032z" vector-effect="non-scaling-stroke" fill="inherit" stroke="inherit" stroke-width="inherit"><title>Indian River County</title></path><path id="county-12055" class="county feature" d="M754.562 488.337l-.596 2.97 2.658 1.652 2.47 2.798-3.716.605.26 1.613-1.64.27.265 1.623-4.895.734-.874-5.633-.855-5.621z" vector-effect="non-scaling-stroke" fill="inherit" stroke="inherit" stroke-width="inherit"><title>Highlands County</title></path><path id="county-12049" class="county feature" d="M747.64 489.348l.854 5.621-8.109 1.266-.814-5.67z" vector-effect="non-scaling-stroke" fill="inherit" stroke="inherit" stroke-width="inherit"><title>Hardee County</title></path><path id="county-12081" class="county feature" d="M730.642 496.678l-.066.008.066-.008zm8.93-6.113l.813 5.67.342 2.4-3.26.455-.456-3.262-5.183.692-2.273-1.337 1.317-.927.51-2.483z" vector-effect="non-scaling-stroke" fill="inherit" stroke="inherit" stroke-width="inherit"><title>Manatee County</title></path><path id="county-12093" class="county feature" d="M758.983 487.65l1.552-.265.268 1.546 1.598-.253 1.087 6.456.255 1.537-2.956 3.546-.322-3.597-1.37-.863-2.471-2.798-2.658-1.652.596-2.97z" vector-effect="non-scaling-stroke" fill="inherit" stroke="inherit" stroke-width="inherit"><title>Okeechobee County</title></path><path id="county-12111" class="county feature" d="M771.185 492.79l-.165.027.165-.027zm-2.89-5.063l-.182.032.183-.032zm-.576.1l2.923 5.054-.761.718.061.404-6.454 1.131-1.087-6.456z" vector-effect="non-scaling-stroke" fill="inherit" stroke="inherit" stroke-width="inherit"><title>Saint Lucie County</title></path><path id="county-12115" class="county feature" d="M736.225 504.2l-.042.007.042-.007zm-4.397-7.68l5.183-.692.457 3.262 3.26-.456.458 3.228-3.277.465.073.499.018.128.137.983-1.626.224-1.808-1.847zm-1.252.166l.066-.008-.066.008z" vector-effect="non-scaling-stroke" fill="inherit" stroke="inherit" stroke-width="inherit"><title>Sarasota County</title></path><path id="county-12027" class="county feature" d="M748.494 494.97l.874 5.632-8.182 1.26-.459-3.228-.342-2.399z" vector-effect="non-scaling-stroke" fill="inherit" stroke="inherit" stroke-width="inherit"><title>DeSoto County</title></path><path id="county-12085" class="county feature" d="M774.058 497.813l-.024.004.024-.004zm-.09.011l-.373.062-.054.008-.22.035-.13.022-.11.287-12.294 1.979 2.956-3.546-.255-1.537 6.454-1.13 2.474 1.153zm-2.783-5.034l-.165.027.165-.027zm-.543.091l-.761.718.76-.718z" vector-effect="non-scaling-stroke" fill="inherit" stroke="inherit" stroke-width="inherit"><title>Martin County</title></path><path id="county-12043" class="county feature" d="M760.787 500.217l-.436 3.637-10.295 1.6-.688-4.852 4.895-.734-.265-1.624 1.64-.27-.26-1.612 3.716-.605 1.371.863z" vector-effect="non-scaling-stroke" fill="inherit" stroke="inherit" stroke-width="inherit"><title>Glades County</title></path><path id="county-12015" class="county feature" d="M738.28 506.838l.065-.01-.065.01zm-2.097-2.63l.042-.008-.042.007zm.328-.047l1.626-.224-.137-.983 1.339.97.97 2.472-2.677-.536zm12.857-3.56l.688 4.853-8.19 1.216-1.01-2.514 1.658-1.285-2.189.319-.443.875-1.9-1.24-.073-.498 3.277-.465z" vector-effect="non-scaling-stroke" fill="inherit" stroke="inherit" stroke-width="inherit"><title>Charlotte County</title></path><path id="county-12099" class="county feature" d="M774.034 497.817l.024-.004-.024.004zm-.065.007l-.374.062.374-.062zm-.428.07l-.22.035.22-.035zm-.35.057l1.112.335 1.534 6.97.324 4.413-2.574.18-10.885 1.848-1.915-11.48 12.294-1.979z" vector-effect="non-scaling-stroke" fill="inherit" stroke="inherit" stroke-width="inherit"><title>Palm Beach County</title></path><path id="county-12051" class="county feature" d="M762.702 511.697l.234 1.309-6.465 1.143-.81-4.825-4.85.82-.755-4.69 10.295-1.6.436-3.637z" vector-effect="non-scaling-stroke" fill="inherit" stroke="inherit" stroke-width="inherit"><title>Hendry County</title></path><path id="county-12071" class="county feature" d="M740.42 508.1l2.217 3.578-.582.238zm9.636-2.646l.754 4.69.285 1.658-1.617.276.312 1.891-3.161.238-.754-2.375-3.014-.785-1.146-2.635.151-1.742zm-11.776 1.384l.065-.01-.065.01z" vector-effect="non-scaling-stroke" fill="inherit" stroke="inherit" stroke-width="inherit"><title>Lee County</title></path><path id="county-12021" class="county feature" d="M754.98 522.805l.078-.013-.078.013zm7.956-9.8l.936 5.1.51 3.177-7.891 1.286-3.058-1.405-1.343.4-2.664-1.54-1.417-1.611-1.38-4.205 3.161-.238-.312-1.89 1.617-.277-.285-1.658 4.852-.82.809 4.825z" vector-effect="non-scaling-stroke" fill="inherit" stroke="inherit" stroke-width="inherit"><title>Collier County</title></path><path id="county-12011" class="county feature" d="M776.161 509.67l.33 6.437-2.888.831-6.435 1.058-3.296.11-.936-5.1-.234-1.309 10.885-1.849z" vector-effect="non-scaling-stroke" fill="inherit" stroke="inherit" stroke-width="inherit"><title>Broward County</title></path><path id="county-12086" class="county feature" d="M776.632 517.492l-.653 2.763-1.433 2.714-.229 2.977.792 1.735-1.583 2.778-.097.015-.832.573.03.072-1.3-.39-2.116 1.819-2.74.168-.802-3.376-1.288-8.058-.51-3.176 3.297-.11 6.435-1.058 2.888-.83z" vector-effect="non-scaling-stroke" fill="inherit" stroke="inherit" stroke-width="inherit"><title>Miami-Dade County</title></path><path id="county-12087" class="county feature" d="M772.628 531.119l-.031-.072.03.072zm.8-.645l.098-.015-.097.015zm2.508-2.525l-1.708 4.724-1.87 2.332 2.565-4.182zm-20.878-5.157l-.078.013.078-.013zm9.323-1.51l1.288 8.058.803 3.376-.608.785-3.037.924-1.782-1.692.269-2.307 1.368 1.433 1.944.665.862-1.061-1.766-1.497-2.134.19-2.003-2.53-1.66-3.176 1.319-.81-1.399-.654-.286 1.409-1.068-1.827z" vector-effect="non-scaling-stroke" fill="inherit" stroke="inherit" stroke-width="inherit"><title>Monroe County</title></path><path id="county-12029" class="county feature" d="M719.75 452.393l-.3 1.318.631 3.029-.457 2.02-1.608 3.273-1.06.059-1.285-1.78-2.975-1.64-.106-2.425.778-2.955z" vector-effect="non-scaling-stroke" fill="inherit" stroke="inherit" stroke-width="inherit"><title>Dixie County</title></path></g><path id="counties-mesh" class="counties mesh" d="M686.592 439.905l-.85 2.084-3.76.404.035.818-3.387.336-.814.079-.412-4.058-2.752-.542 1.27-3.28m-30.886 16.593l-.007-.083.007.083m9.429-2.664l.006.065-.006-.065 1.887-.514.004.103-1.885.476m1.01-11.866l.857 11.028-5.946 1.613 3.64-2.272-1.389-.839-.68 1.128-1.665-2.318-.283.69m6.337 2.257l.004.103m5.44-11.965l.923 10.071-1.06-.97-2.148 2.279-3.173.223m18.314-9.876l-.138 1.64-3.304-.52-.201 1.674-3.074.29-.525-5.374m3.599 5.084l-.989 1.358.83 2.396-1.58 2.332.18 2.244-6.63-1.38m-.03-.356l.03.356-.03-.356 4.692-.348-2.628-1.526-2.135.83m15.097-3.744l-.818.091.242 2.437-5.845.564-2.125 1.188m-19.792-9.499l-1.772 1.564-.138 3.585 2.447 3.349.292 2.07-1.354 1.782-3.064.936.46-1.783 1.29-.65-1.572-.863.091-3.594-2.072-1.083-1.88-2.15.355-2.505 6.917-.658 6.002-.533 1.555-.106 4.76-.47 3.198-.324 2.417-.238 8.512-.99.154-.02 7.699-.94 2.817 5.12.017-.003 7.726-.522 1.574-.104 3.183-.22 1.219-.084 4.225-.286 2.117-.139 4.078-.276.259-.017.506-.031 2.77-.178 7.176-.496 1.686-.124 1.992-.146.656-.048 3.278-.224.515 2.85.76.927 1.904-.344.156-3.83-.952-1.594-.062-1.875 1.876-1.671 5.03 1.34 2.877-.128.333 3.44-1.024-.784-1.663.364-1.864.076-4.452 6.306-.255-1.644m-31.922-1.468l.84 2.726-1.018.13.027 4.68-2.816-.212-7.43.969.87-1.766m15.869-6.952l.288 1.271-1.933 1.656.417 1.332-1.255 2.627-1.384 1.295-.87 2.922-1.353.104-.403-3.246m11.336-8.285l.617.054.83 2.794 1.382 1.475-.907 2.474-1.912.262-1.73-.596-5.606.747m17.272-7.884l-.493.794 1.686 2.624-.41 1.268-1.783.381-3.593-1.29-2.524 1.22m-18.416-3.27l-1.27 2.257-.1 1.736-3.755 2.23-2.307-1.071-.141-1.094-1.64-.078-.954-1.268-2.053 7.894-4.393.48-.666-6.816m11.283 3.719l1.067 3.122 2.268 1.925-7.422.824-.196.824-1.924-1.144-.017-2.934m41.43-12.603l1.213 8.289-1.346 3.238.722.545-1.773 2.344-2.531-1.573-.962-7.506m18.362-6.914l2.31.353.434 1.946-2.722.827.222 1.417-1.37 1.183.739 1.322-5.698.934-.231-1.6m.23 1.6l.12.81-1.483.219-5.023.855m-47.036 4.793l.325 3.053-1.476.211-.834-1.58-1.132.247-2.355-1.045.083 1.146-4.458-2.244m51.955-.027l-1.16 1.017-3.515-3.159-2.607-.3-.704-2.66m-1.912.262l.865 6.911.997 1.098-.778 2.955-2.426-.626-2.02-2.751-2.583-1.633-3.645-1.586m-1.353.104l-4.483 1.219.259 1.725-1.475.125-1.616-.51m26.996-1.174l-.494 1.253-6.382.9m34.184-2.106l2.488 4.215-.08.015-2.483-4.218.075-.012-.075.012m-5.077-10.212l.366 2.71-2.54.015-1.08.064.234-1.961-.78-.782.556-2.146 2.784.216.46 1.884 2.995 6.074.058 1.089 1.996 3.054-.08.013-.336.269-1.14.812-3.193.55-.41-2.521-1.386-2.253.35-1.518-2.1-1.386 1.072-1.458m2.972-2.862l-.77.132-.42-2.653 1.19 2.52 2.109 5.422-2.878-5.289m-56.8 12.979l.044 3.605-.002.031-2.544 1.867-1.504.269-.051-2.059-1.68-2.207m-.258-1.93l.257 1.93-5.193-3.085 1.032-.201 2.018 1.488 1.886-.132-.013-.122m58.796-10.664l-.99 1.539 1.205-.202-.13 1.502 1.821 1.18.447 2.273-3.294.557-1.8 1.953-1.671.79-1.166-7.848m1.166 7.848l-.103.024-1.563-1.993-2.255.196-2.548-1.144 1.697-.874 2.122-3.838m-3.819 4.712l-1.828-.074m-40.898 10.023l.384.993-2.11-.609 1.726-.384m.86-1.778l1.02 1.067-3.563.8m11.737-6.64l1.698 1.118-2.905.203-5.548 3.973-2.436-.552m48.23-5.2l.668 4.565-2.081 1.255-.46-1.124-3.138.437-2.401.438-.163-1.062-1.658-.274-.735-4.905m.735 4.905l-4.589.139-.63-3.029.299-1.318m22.95.455l.41 2.32 1.669 1.595-2.111 1.266-1.921-1.321-.456-2.808 1.348-.667-.776-1.576 1.427-1.33m-1.52-1.284l.981 1.11-1.257 2.022-.023 4.47.613 1.19-1.177.191-.879-2.065-1.163-.44-3.294 1.41m12.462-5.445l2.897 3.935-.715.415.514 2.659-4.287.76-.663-2.492m2.67-5.559l-.08.013m-18.477 6.282l.775 4.97-2.142.325.454 3.136-3.422 1.369-.019.03-.1-1.181-1.575-1.569-3.72.085-1.127-2.63 1.608-3.274.457-2.02m21.003 1.096l.693 1.683.616 5.88-4.778.726-5.787.843-2.975-1.308-.874.27m21.951-10.509l.635 1.36 6.405 9.529-.773.123-.226.038-1.91.323.207 3.312-1.914-3.492-1.73.858-3.279-1.292-.114-2.001-2.697-1.703-1.12-1.581.115-2.07-.861-.796m7.372-2.627l-.08.015m-2.615 10.763l-.505 1.848-3.938.719 1.233 7.95-4.89.772-1.63-11.344m4.162-6.606l1.637 1.376m-11.586 6.073l2.732 2.81-1.161 2.479-2.598-.137-3.486.505-.966-.568-.496-3.26-1.296-1.498-.019.03m14.706 10.14l-1.512.851-.442-3.07-.1-.759-2.641-.601-1.15-1.633m22.572-5.786l1.59 4.24 3.314 6.257 3.685 5.602-.034.558-6.01 1.203-1.45-9.663-.832-2.913-1.966-1.65-5.52.922-2.223-.218.315-2.781m10.13-1.718l2.778 2.01-1.994-2.138m.11-.018l-.11.018.11-.018 3.152 3.335 1.235 2.279-.839.985-.566-3.02-1.091 3.874-.437-.031-.673-3.748-1.11-.434.65-1.632-1.988-1.339m-18.907 8.817l-3.226.472.117.804-6.816 1.003-.05-4.904m10.417 5.695l-.434 2.704-8.915 1.256-2.194.32 1.176-5.07m29.702-2.862l-12.932 2.029.246 1.618 1.621-.25.88 2.06 1.288.884 1.778-.263-1.39 1.186 3.981 2.97 2.023 3.435-6.923 1.01-8.068 1.218-1.463-9.66-.81.119m-12.075 1.728l-.053.008.053-.008-.053.008m3.213-.48l.445 2.851-.95 1.687 2.2 1.034-.264 3.022-1.813-.615-2.055-1.796.545-2.462-.302-3.4m22.305 12.368l-8.109 1.266-.814-5.67-8.19 1.208 2.293-3.612-1.992-1.57.542 1.726-1.075-.157-.142-1.794-2.18-1.235m35.699-2.003l2.538 2.904.655 1.795-5.318.85-1.598.254-.268-1.546-1.552.265m-.467-3.32l.467 3.32-4.42.687-.597 2.97 2.658 1.652 2.47 2.798-3.716.605.26 1.613-1.64.27.265 1.623-4.895.734-.874-5.633-.855-5.621m-7.254 6.887l.342 2.4-3.26.455-.456-3.262-5.183.692-2.273-1.337 1.317-.927.51-2.483m31.02-3.095l1.086 6.456.255 1.537-2.956 3.546-.322-3.597-1.37-.863m9.2-8.03l-.182.032.183-.032-.183.032m-.394.068l2.923 5.054-.761.718.061.404-6.454 1.131m-22.76 3.5l.458 3.228-3.277.465.073.499.018.128.137.983-1.626.224-1.808-1.847-2.875-5.794m-1.186.158l-.066.008.066-.008-.066.008m39.366-2.683l2.474 1.154 1.553 2.667-.374.062-.054.008-.22.035-.13.022-.11.287-12.294 1.979-.436 3.637-10.295 1.6-.688-4.852-8.182 1.26m30-9.072l-.166.027.165-.027-.165.027m-.378.064l-.761.718m-31.536 13.228l-.065.01.065-.01-.065.01m-2.055-2.637l-.042.007.042-.007-.042.007m1.817-1.253l1.339.97.97 2.472-2.677-.536-1.121-1.699m26.19 7.536l.235 1.309-6.465 1.143-.81-4.825-4.85.82-.755-4.69-8.19 1.216-1.01-2.514 1.658-1.285-2.189.319-.443.875-1.9-1.24m36.076-5.012l-.024.004.024-.004-.024.004m-.065.007l-.374.062m-.054.008l-.22.035m-.13.022l1.112.335 1.534 6.97.324 4.413-2.574.18-10.885 1.848-1.915-11.48m-20.368 7.883l2.218 3.578-.582.238-1.636-3.816m10.391 2.044l.285 1.658-1.617.276.312 1.891-3.161.238-.754-2.375-3.014-.785-1.146-2.635.151-1.742m13.192 16.122l-.078.013.078-.013-.078.013m7.956-9.8l.936 5.1.51 3.177-7.891 1.286-3.058-1.405-1.343.4-2.664-1.54-1.417-1.611-1.38-4.205m29.532-4.538l.33 6.438-2.888.831-6.435 1.058-3.296.11m12.62-1.999l.14 1.385-.653 2.763-1.433 2.714-.229 2.977.792 1.735-1.583 2.778-.097.015-.832.573.03.072-1.3-.39-2.116 1.819-2.74.168-.802-3.376-1.288-8.058m8.216 9.765l.03.072m.899-.66l-.097.015m2.507-2.525l-1.708 4.724-1.87 2.332 2.565-4.182 1.013-2.874m-9.464 4.767l-.608.785-3.037.924-1.782-1.692.269-2.307 1.368 1.433 1.944.665.862-1.061-1.766-1.497-2.134.19-2.003-2.53-1.66-3.176 1.319-.81-1.399-.654-.286 1.409-1.068-1.827m-38.475-60.535l-1.06.059-1.285-1.78-2.975-1.64-.106-2.425" vector-effect="non-scaling-stroke" fill="inherit" stroke="inherit" stroke-width="inherit"/></svg>