<?xml version="1.0" standalone="yes"?>
<svg xmlns="http://www.w3.org/2000/svg" version="1.2" id="root" viewBox="314.52852423162466 511.59001165850447 95.14176932564624 61.53588691622912"><style>
@import url("../../css/svg.css");</style><rect id="bbox" class="bbox" x="314.52852423162466" y="511.59001165850447" width="95.14176932564624" height="61.53588691622912"></rect><g id="counties"><path id="county-15005" class="county feature" d="M372.4734668722948,531.4106604433784L370.7557397807616,531.1388628291262L372.4734668722948,531.4106604433784Z" style="fill: inherit; stroke: inherit; stroke-width: inherit;" vector-effect="non-scaling-stroke"><title>Kalawao County</title></path><path id="county-15001" class="county feature" d="M391.1983163200625,548.0801204065116L395.8617679916934,550.8167571111821L398.15171509751514,551.1931665789612L401.2520779692051,552.6542455026972L404.77838058033853,555.8246175068737L404.6357885904673,557.9103290228077L406.1737021305937,557.8855823659785L406.54184881450203,559.6207795631224L409.6702935572709,561.879663582103L406.69938117869987,565.1250367805975L403.9834764270568,566.520844098565L401.1247456002614,566.7260018239468L397.2962414862628,569.2485337057358L394.75308768597324,573.1258985747336L390.76191043297945,571.0180464239914L390.0953862333232,569.5170174229352L390.64808775469334,565.2925725156387L388.77542350293874,559.8589399330662L387.5217131464337,558.1476435600534L389.6896964394536,555.8755785261212L391.68616305518555,552.5335402197702L390.4899830227254,550.765332258463L390.34861630365754,548.7550479394245Z" style="fill: inherit; stroke: inherit; stroke-width: inherit;" vector-effect="non-scaling-stroke"><title>Hawaii County</title></path><path id="county-15007" class="county feature" d="M329.14820306425605,511.59001165850447L330.58795059995714,512.4101369022022L330.2371793838981,516.5203976077846L328.23908844019184,518.2172912378248L324.9103488536889,517.3318527946221L322.79052612220556,516.1261059382318L322.3691638882261,514.5059166562492L323.43883155932417,512.959866065075L325.89627959519703,511.63585427544905ZM317.125943525554,515.7273199560866L317.2612671039244,517.5120097088877L315.7913735402581,518.1734472506689L314.98094474421794,519.7580761878841L314.52852423162466,517.8095389953828Z" style="fill: inherit; stroke: inherit; stroke-width: inherit;" vector-effect="non-scaling-stroke"><title>Kauai County</title></path><path id="county-15009" class="county feature" d="M370.7557397807616,531.1388628291262L372.4734668722948,531.4106604433784L376.02889597266443,531.7628266261489L373.16040409680653,533.6578958030275L369.85565116776746,532.6515584747367L365.51921738390666,532.6374234893619L366.53476873088886,530.3654379956315ZM371.2656832450504,535.8617717233938L372.8151941991759,536.1535690027968L374.3535630573024,538.1074063450124L373.83108692333536,538.9656225713077L371.62522214452514,539.4982065052627L369.99335024180726,536.1807684864923ZM378.531537307278,541.8975544275261L378.8175163467894,543.1406079682656L376.6039642677189,543.7428186631672L376.65321915605716,542.7785689292368ZM377.95152820702805,533.9400876243546L380.1033730731604,536.4079073428309L382.8536982657333,535.5030232242339L384.5110899133996,535.8503097832906L386.54577631506135,537.7534934029826L388.50772557967,538.3457213648574L388.7407431153306,539.8990544518828L387.7232909335518,540.9206839990759L383.2374039518446,542.2504277945802L380.77665348497743,541.8443133627379L380.4230154598487,538.6323761753849L377.53569380480474,538.0220869242594L376.45654153703106,536.701055883324L376.82522477960487,534.4132398880828Z" style="fill: inherit; stroke: inherit; stroke-width: inherit;" vector-effect="non-scaling-stroke"><title>Maui County</title></path><path id="county-15003" class="county feature" d="M353.81200845523335,521.3194323040752L356.36225950183433,524.7434309753153L356.2451792737335,525.9567604750616L357.5901105912249,525.940070384838L359.5620125651307,528.9652961792689L357.02525351046586,529.7401689295932L355.319379420115,528.3219290353599L351.6757529766937,529.0100037226512L348.59512053322123,523.7974644049037L351.33455721726114,523.6410990145253Z" style="fill: inherit; stroke: inherit; stroke-width: inherit;" vector-effect="non-scaling-stroke"><title>Honolulu County</title></path></g><path id="counties-mesh" class="counties mesh" d="M391.1983163200625,548.0801204065116L395.8617679916934,550.8167571111821L398.15171509751514,551.1931665789612L401.2520779692051,552.6542455026972L404.77838058033853,555.8246175068737L404.6357885904673,557.9103290228077L406.1737021305937,557.8855823659785L406.54184881450203,559.6207795631224L409.6702935572709,561.879663582103L406.69938117869987,565.1250367805975L403.9834764270568,566.520844098565L401.1247456002614,566.7260018239468L397.2962414862628,569.2485337057358L394.75308768597324,573.1258985747336L390.76191043297945,571.0180464239914L390.0953862333232,569.5170174229352L390.64808775469334,565.2925725156387L388.77542350293874,559.8589399330662L387.5217131464337,558.1476435600534L389.6896964394536,555.8755785261212L391.68616305518555,552.5335402197702L390.4899830227254,550.765332258463L390.34861630365754,548.7550479394245L391.1983163200625,548.0801204065116M329.14820306425605,511.59001165850447L330.58795059995714,512.4101369022022L330.2371793838981,516.5203976077846L328.23908844019184,518.2172912378248L324.9103488536889,517.3318527946221L322.79052612220556,516.1261059382318L322.3691638882261,514.5059166562492L323.43883155932417,512.959866065075L325.89627959519703,511.63585427544905L329.14820306425605,511.59001165850447M317.125943525554,515.7273199560866L317.2612671039244,517.5120097088877L315.7913735402581,518.1734472506689L314.98094474421794,519.7580761878841L314.52852423162466,517.8095389953828L317.125943525554,515.7273199560866M372.4734668722948,531.4106604433784L370.7557397807616,531.1388628291262L372.4734668722948,531.4106604433784L376.02889597266443,531.7628266261489L373.16040409680653,533.6578958030275L369.85565116776746,532.6515584747367L365.51921738390666,532.6374234893619L366.53476873088886,530.3654379956315L370.7557397807616,531.1388628291262M371.2656832450504,535.8617717233938L372.8151941991759,536.1535690027968L374.3535630573024,538.1074063450124L373.83108692333536,538.9656225713077L371.62522214452514,539.4982065052627L369.99335024180726,536.1807684864923L371.2656832450504,535.8617717233938M378.531537307278,541.8975544275261L378.8175163467894,543.1406079682656L376.6039642677189,543.7428186631672L376.65321915605716,542.7785689292368L378.531537307278,541.8975544275261M377.95152820702805,533.9400876243546L380.1033730731604,536.4079073428309L382.8536982657333,535.5030232242339L384.5110899133996,535.8503097832906L386.54577631506135,537.7534934029826L388.50772557967,538.3457213648574L388.7407431153306,539.8990544518828L387.7232909335518,540.9206839990759L383.2374039518446,542.2504277945802L380.77665348497743,541.8443133627379L380.4230154598487,538.6323761753849L377.53569380480474,538.0220869242594L376.45654153703106,536.701055883324L376.82522477960487,534.4132398880828L377.95152820702805,533.9400876243546M353.81200845523335,521.3194323040752L356.36225950183433,524.7434309753153L356.2451792737335,525.9567604750616L357.5901105912249,525.940070384838L359.5620125651307,528.9652961792689L357.02525351046586,529.7401689295932L355.319379420115,528.3219290353599L351.6757529766937,529.0100037226512L348.59512053322123,523.7974644049037L351.33455721726114,523.6410990145253L353.81200845523335,521.3194323040752" style="fill: inherit; stroke: inherit; stroke-width: inherit;" vector-effect="non-scaling-stroke"></path></svg>