<?xml version="1.0" standalone="yes"?>
<svg xmlns="http://www.w3.org/2000/svg" version="1.2" id="root" viewBox="500.06673691929194 208.04961718506866 89.21073141096878 58.785572737870666"><g id="counties"><path id="county-19189" class="county feature" d="M542.4038221652999,209.24641899337848L542.5195759876526,213.82550265025816L536.1200555380219,213.98012167285071L536.0124931774125,209.39679731382023L540.3621030604635,209.2955451713309Z" style="fill: inherit; stroke: inherit; stroke-width: inherit;" vector-effect="non-scaling-stroke"><title>Winnebago County</title></path><path id="county-19109" class="county feature" d="M536.2496214821883,220.5043762095272L529.8363171213967,220.61931657065963L529.7247405362526,214.10583134445062L529.6541614986645,209.501635156975L532.2817224191687,209.46092935110096L536.0124931774125,209.39679731382023L536.1200555380219,213.98012167285071Z" style="fill: inherit; stroke: inherit; stroke-width: inherit;" vector-effect="non-scaling-stroke"><title>Kossuth County</title></path><path id="county-19059" class="county feature" d="M523.3579364791118,214.1943586723512L516.9421844679567,214.24865248987066L516.912571480986,209.65006150853276L523.2956240156853,209.58902763130288Z" style="fill: inherit; stroke: inherit; stroke-width: inherit;" vector-effect="non-scaling-stroke"><title>Dickinson County</title></path><path id="county-19063" class="county feature" d="M529.7247405362526,214.10583134445062L523.3579364791118,214.1943586723512L523.2956240156853,209.58902763130288L524.0891673260571,209.57266358175002L529.6541614986645,209.501635156975Z" style="fill: inherit; stroke: inherit; stroke-width: inherit;" vector-effect="non-scaling-stroke"><title>Emmet County</title></path><path id="county-19195" class="county feature" d="M548.9182691057866,213.6400411142538L542.5195759876526,213.82550265025816L542.4038221652999,209.24641899337848L548.4506988339297,209.06882914456412L548.7747932765471,209.05872033598132Z" style="fill: inherit; stroke: inherit; stroke-width: inherit;" vector-effect="non-scaling-stroke"><title>Worth County</title></path><path id="county-19143" class="county feature" d="M516.9421844679567,214.24865248987066L510.5310532908957,214.2295935660983L510.5341135920409,209.6792930089382L516.0075644799285,209.6505306710111L516.912571480986,209.65006150853276Z" style="fill: inherit; stroke: inherit; stroke-width: inherit;" vector-effect="non-scaling-stroke"><title>Osceola County</title></path><path id="county-19131" class="county feature" d="M555.3061807368748,214.22522219205098L548.9433296040642,214.44024684982207L548.9182691057866,213.6400411142538L548.7747932765471,209.05872033598132L555.1251672412607,208.83399750263152Z" style="fill: inherit; stroke: inherit; stroke-width: inherit;" vector-effect="non-scaling-stroke"><title>Mitchell County</title></path><path id="county-19119" class="county feature" d="M510.5310532908957,214.2295935660983L501.1481146446363,214.1666655951792L501.5844639532869,211.65984611536487L500.5840766143548,209.64815889657882L502.5537363807228,209.65905853109155L507.9449507680173,209.67844755503404L510.5341135920409,209.6792930089382Z" style="fill: inherit; stroke: inherit; stroke-width: inherit;" vector-effect="non-scaling-stroke"><title>Lyon County</title></path><path id="county-19089" class="county feature" d="M561.5034359595514,208.5796152389962L561.7115092120108,213.97490507154032L555.3061807368748,214.22522219205098L555.1251672412607,208.83399750263152L556.5275337096692,208.77831434889436Z" style="fill: inherit; stroke: inherit; stroke-width: inherit;" vector-effect="non-scaling-stroke"><title>Howard County</title></path><path id="county-19005" class="county feature" d="M573.1158397794858,208.04961718506866L573.3535624237752,209.49486151478425L573.437273676602,210.86430609849083L575.4937787192493,212.49118158862268L574.0621707500688,215.90103142132546L568.25864812097,216.15541293837816L567.817802750917,208.30341978214676Z" style="fill: inherit; stroke: inherit; stroke-width: inherit;" vector-effect="non-scaling-stroke"><title>Allamakee County</title></path><path id="county-19191" class="county feature" d="M568.25864812097,216.15541293837816L561.8073754155698,216.41654275571568L561.7115092120108,213.97490507154032L561.5034359595514,208.5796152389962L566.2030349524373,208.37601173885923L567.817802750917,208.30341978214676Z" style="fill: inherit; stroke: inherit; stroke-width: inherit;" vector-effect="non-scaling-stroke"><title>Winneshiek County</title></path><path id="county-19167" class="county feature" d="M510.5310532908957,214.2295935660983L510.5747403046391,220.77219529695583L501.33903878682537,220.75893222628804L501.7340279148238,218.10903012756387L502.50182896831365,217.48656943714525L502.22735650406185,214.92471804097545L501.1481146446363,214.1666655951792Z" style="fill: inherit; stroke: inherit; stroke-width: inherit;" vector-effect="non-scaling-stroke"><title>Sioux County</title></path><path id="county-19141" class="county feature" d="M516.9421844679567,214.24865248987066L516.9839324301346,220.73167976945138L510.5747403046391,220.77219529695583L510.5310532908957,214.2295935660983Z" style="fill: inherit; stroke: inherit; stroke-width: inherit;" vector-effect="non-scaling-stroke"><title>O'Brien County</title></path><path id="county-19033" class="county feature" d="M548.9182691057866,213.6400411142538L548.9433296040642,214.44024684982207L549.1128691831626,220.1657059528918L542.6715354004516,220.33718471507893L542.5195759876526,213.82550265025816Z" style="fill: inherit; stroke: inherit; stroke-width: inherit;" vector-effect="non-scaling-stroke"><title>Cerro Gordo County</title></path><path id="county-19081" class="county feature" d="M542.5195759876526,213.82550265025816L542.6715354004516,220.33718471507893L536.2496214821883,220.5043762095272L536.1200555380219,213.98012167285071Z" style="fill: inherit; stroke: inherit; stroke-width: inherit;" vector-effect="non-scaling-stroke"><title>Hancock County</title></path><path id="county-19147" class="county feature" d="M529.7247405362526,214.10583134445062L529.8363171213967,220.61931657065963L523.4320370551451,220.67810767161154L523.3579364791118,214.1943586723512Z" style="fill: inherit; stroke: inherit; stroke-width: inherit;" vector-effect="non-scaling-stroke"><title>Palo Alto County</title></path><path id="county-19041" class="county feature" d="M523.3579364791118,214.1943586723512L523.4320370551451,220.67810767161154L516.9839324301346,220.73167976945138L516.9421844679567,214.24865248987066Z" style="fill: inherit; stroke: inherit; stroke-width: inherit;" vector-effect="non-scaling-stroke"><title>Clay County</title></path><path id="county-19037" class="county feature" d="M561.7115092120108,213.97490507154032L561.8073754155698,216.41654275571568L561.9385486226577,219.7145262103512L555.5142382455642,219.96151736318393L555.3061807368748,214.22522219205098Z" style="fill: inherit; stroke: inherit; stroke-width: inherit;" vector-effect="non-scaling-stroke"><title>Chickasaw County</title></path><path id="county-19067" class="county feature" d="M555.3061807368748,214.22522219205098L555.5142382455642,219.96151736318393L549.1128691831626,220.1657059528918L548.9433296040642,214.44024684982207Z" style="fill: inherit; stroke: inherit; stroke-width: inherit;" vector-effect="non-scaling-stroke"><title>Floyd County</title></path><path id="county-19065" class="county feature" d="M568.25864812097,216.15541293837816L568.6141721246947,224.36877313909054L562.1437213414351,224.68823968485788L561.9385486226577,219.7145262103512L561.8073754155698,216.41654275571568Z" style="fill: inherit; stroke: inherit; stroke-width: inherit;" vector-effect="non-scaling-stroke"><title>Fayette County</title></path><path id="county-19043" class="county feature" d="M574.0621707500688,215.90103142132546L574.4225065859346,217.61277808100942L575.8942735503024,221.97620767925252L578.2634157902354,223.3012295146957L578.2882043048745,223.85379110599092L575.0779758004827,224.0192830708702L568.6141721246947,224.36877313909054L568.25864812097,216.15541293837816Z" style="fill: inherit; stroke: inherit; stroke-width: inherit;" vector-effect="non-scaling-stroke"><title>Clayton County</title></path><path id="county-19149" class="county feature" d="M510.5747403046391,220.77219529695583L510.5746265030678,227.32074215848377L501.84167555718454,227.3002203782405L501.7015285711892,225.98723563132546L500.14751422925286,224.53971091455298L500.06673691929194,223.4320892886567L501.33903878682537,220.75893222628804Z" style="fill: inherit; stroke: inherit; stroke-width: inherit;" vector-effect="non-scaling-stroke"><title>Plymouth County</title></path><path id="county-19021" class="county feature" d="M523.4320370551451,220.67810767161154L523.4972574836578,227.24348505590103L517.026055831718,227.27300891050288L516.9839324301346,220.73167976945138Z" style="fill: inherit; stroke: inherit; stroke-width: inherit;" vector-effect="non-scaling-stroke"><title>Buena Vista County</title></path><path id="county-19035" class="county feature" d="M516.9839324301346,220.73167976945138L517.026055831718,227.27300891050288L512.1936244971154,227.30321535699738L510.5746265030678,227.32074215848377L510.5747403046391,220.77219529695583Z" style="fill: inherit; stroke: inherit; stroke-width: inherit;" vector-effect="non-scaling-stroke"><title>Cherokee County</title></path><path id="county-19151" class="county feature" d="M529.8363171213967,220.61931657065963L529.9172544491526,225.55924327160892L529.9438112348762,227.18010942231217L523.4972574836578,227.24348505590103L523.4320370551451,220.67810767161154Z" style="fill: inherit; stroke: inherit; stroke-width: inherit;" vector-effect="non-scaling-stroke"><title>Pocahontas County</title></path><path id="county-19197" class="county feature" d="M542.6715354004516,220.33718471507893L542.835145922205,226.92610416158357L536.3800107863075,227.07183233486978L536.3452942274196,225.44506130898696L536.2496214821883,220.5043762095272Z" style="fill: inherit; stroke: inherit; stroke-width: inherit;" vector-effect="non-scaling-stroke"><title>Wright County</title></path><path id="county-19091" class="county feature" d="M536.2496214821883,220.5043762095272L536.3452942274196,225.44506130898696L529.9172544491526,225.55924327160892L529.8363171213967,220.61931657065963Z" style="fill: inherit; stroke: inherit; stroke-width: inherit;" vector-effect="non-scaling-stroke"><title>Humboldt County</title></path><path id="county-19069" class="county feature" d="M549.1128691831626,220.1657059528918L549.2946738121053,226.7562143979186L542.835145922205,226.92610416158357L542.6715354004516,220.33718471507893Z" style="fill: inherit; stroke: inherit; stroke-width: inherit;" vector-effect="non-scaling-stroke"><title>Franklin County</title></path><path id="county-19023" class="county feature" d="M555.5142382455642,219.96151736318393L555.6896644733464,224.93334049971463L555.7535034979061,226.55823247466253L549.2946738121053,226.7562143979186L549.1128691831626,220.1657059528918Z" style="fill: inherit; stroke: inherit; stroke-width: inherit;" vector-effect="non-scaling-stroke"><title>Butler County</title></path><path id="county-19017" class="county feature" d="M561.9385486226577,219.7145262103512L562.1437213414351,224.68823968485788L555.6896644733464,224.93334049971463L555.5142382455642,219.96151736318393Z" style="fill: inherit; stroke: inherit; stroke-width: inherit;" vector-effect="non-scaling-stroke"><title>Bremer County</title></path><path id="county-19061" class="county feature" d="M581.9319647671488,226.23807654546385L581.7820857480558,226.80772325913347L584.3498414403706,228.4871327887995L581.7364679412151,228.62245952661658L581.814061909096,230.2666674949885L578.6318105715214,230.43143699096925L575.4541610224585,230.58918564875012L575.0779758004827,224.0192830708702L578.2882043048745,223.85379110599092L578.2634157902354,223.3012295146957L580.9606321447934,223.98844694975662Z" style="fill: inherit; stroke: inherit; stroke-width: inherit;" vector-effect="non-scaling-stroke"><title>Dubuque County</title></path><path id="county-19055" class="county feature" d="M575.0779758004827,224.0192830708702L575.4541610224585,230.58918564875012L572.2562356511182,230.735098131874L569.0537783132758,230.88851838484345L568.6141721246947,224.36877313909054Z" style="fill: inherit; stroke: inherit; stroke-width: inherit;" vector-effect="non-scaling-stroke"><title>Delaware County</title></path><path id="county-19187" class="county feature" d="M536.3452942274196,225.44506130898696L536.3800107863075,227.07183233486978L536.959695200745,228.67799051474174L537.0766932668107,233.60137433921864L533.8722375010364,233.67022388829923L530.6727326235404,233.74223261664815L530.5890136048,228.77677430997517L529.9438112348762,227.18010942231217L529.9172544491526,225.55924327160892Z" style="fill: inherit; stroke: inherit; stroke-width: inherit;" vector-effect="non-scaling-stroke"><title>Webster County</title></path><path id="county-19019" class="county feature" d="M568.6141721246947,224.36877313909054L569.0537783132758,230.88851838484345L565.8437724004467,230.98282786376637L562.6420999020962,231.15377957445412L562.1437213414351,224.68823968485788Z" style="fill: inherit; stroke: inherit; stroke-width: inherit;" vector-effect="non-scaling-stroke"><title>Buchanan County</title></path><path id="county-19013" class="county feature" d="M562.1437213414351,224.68823968485788L562.6420999020962,231.15377957445412L559.4334778155644,231.27770010820188L556.2152820143539,231.40921644677837L555.7535034979061,226.55823247466253L555.6896644733464,224.93334049971463Z" style="fill: inherit; stroke: inherit; stroke-width: inherit;" vector-effect="non-scaling-stroke"><title>Black Hawk County</title></path><path id="county-19193" class="county feature" d="M510.5746265030678,227.32074215848377L512.1936244971154,227.30321535699738L512.1931079826837,228.91947057103437L513.1854162872287,228.92851219660838L513.1829088376436,233.87753510348136L503.7601003324395,233.80951289950212L503.76937043896567,232.65215350484914L503.01597646846324,231.43526888075053L503.2192314442764,228.73318021345392L502.5418807104705,228.63728835048823L501.84167555718454,227.3002203782405Z" style="fill: inherit; stroke: inherit; stroke-width: inherit;" vector-effect="non-scaling-stroke"><title>Woodbury County</title></path><path id="county-19161" class="county feature" d="M523.4972574836578,227.24348505590103L524.3066036906162,228.85540520499774L524.3417210425647,233.8245312961934L521.1464335437652,233.84586695644657L517.9560807807076,233.86136784063888L517.9355845679238,228.9124003292692L517.026055831718,227.27300891050288Z" style="fill: inherit; stroke: inherit; stroke-width: inherit;" vector-effect="non-scaling-stroke"><title>Sac County</title></path><path id="county-19093" class="county feature" d="M517.026055831718,227.27300891050288L517.9355845679238,228.9124003292692L517.9560807807076,233.86136784063888L513.1829088376436,233.87753510348136L513.1854162872287,228.92851219660838L512.1931079826837,228.91947057103437L512.1936244971154,227.30321535699738Z" style="fill: inherit; stroke: inherit; stroke-width: inherit;" vector-effect="non-scaling-stroke"><title>Ida County</title></path><path id="county-19025" class="county feature" d="M529.9438112348762,227.18010942231217L530.5890136048,228.77677430997517L530.6727326235404,233.74223261664815L527.4974027271103,233.7868567490376L524.3417210425647,233.8245312961934L524.3066036906162,228.85540520499774L523.4972574836578,227.24348505590103Z" style="fill: inherit; stroke: inherit; stroke-width: inherit;" vector-effect="non-scaling-stroke"><title>Calhoun County</title></path><path id="county-19079" class="county feature" d="M542.835145922205,226.92610416158357L543.3839540760654,228.5465600224219L543.5102127537925,233.45961387042985L540.2764490623308,233.54194340937784L537.0766932668107,233.60137433921864L536.959695200745,228.67799051474174L536.3800107863075,227.07183233486978Z" style="fill: inherit; stroke: inherit; stroke-width: inherit;" vector-effect="non-scaling-stroke"><title>Hamilton County</title></path><path id="county-19083" class="county feature" d="M542.835145922205,226.92610416158357L549.2946738121053,226.7562143979186L549.8440368114918,233.27613821127784L546.6897786464145,233.37893082049482L543.5102127537925,233.45961387042985L543.3839540760654,228.5465600224219Z" style="fill: inherit; stroke: inherit; stroke-width: inherit;" vector-effect="non-scaling-stroke"><title>Hardin County</title></path><path id="county-19075" class="county feature" d="M555.7535034979061,226.55823247466253L556.2152820143539,231.40921644677837L552.9966089556381,231.52874790030683L553.0618126859456,233.15546938094747L549.8440368114918,233.27613821127784L549.2946738121053,226.7562143979186Z" style="fill: inherit; stroke: inherit; stroke-width: inherit;" vector-effect="non-scaling-stroke"><title>Grundy County</title></path><path id="county-19097" class="county feature" d="M584.3498414403706,228.4871327887995L585.62569049015,231.3175913253856L586.6966685657057,231.88323334794302L588.9124398941098,233.20090008988313L589.133516018747,234.78235025279412L578.8908457558973,235.34457846481314L578.6318105715214,230.43143699096925L581.814061909096,230.2666674949885L581.7364679412151,228.62245952661658Z" style="fill: inherit; stroke: inherit; stroke-width: inherit;" vector-effect="non-scaling-stroke"><title>Jackson County</title></path><path id="county-19011" class="county feature" d="M565.8437724004467,230.98282786376637L566.1993893692252,239.19790855667782L559.7567223707647,239.44660701590067L559.4334778155644,231.27770010820188L562.6420999020962,231.15377957445412Z" style="fill: inherit; stroke: inherit; stroke-width: inherit;" vector-effect="non-scaling-stroke"><title>Benton County</title></path><path id="county-19113" class="county feature" d="M569.0537783132758,230.88851838484345L572.2562356511182,230.735098131874L572.5417101132996,237.29268217113952L572.6168840470377,238.93491151597675L566.1993893692252,239.19790855667782L565.8437724004467,230.98282786376637Z" style="fill: inherit; stroke: inherit; stroke-width: inherit;" vector-effect="non-scaling-stroke"><title>Linn County</title></path><path id="county-19171" class="county feature" d="M559.4334778155644,231.27770010820188L559.7567223707647,239.44660701590067L553.3039543662719,239.68922986096777L553.0618126859456,233.15546938094747L552.9966089556381,231.52874790030683L556.2152820143539,231.40921644677837Z" style="fill: inherit; stroke: inherit; stroke-width: inherit;" vector-effect="non-scaling-stroke"><title>Tama County</title></path><path id="county-19105" class="county feature" d="M575.4541610224585,230.58918564875012L578.6318105715214,230.43143699096925L578.8908457558973,235.34457846481314L578.979140519663,236.98798148054584L572.5417101132996,237.29268217113952L572.2562356511182,230.735098131874Z" style="fill: inherit; stroke: inherit; stroke-width: inherit;" vector-effect="non-scaling-stroke"><title>Jones County</title></path><path id="county-19133" class="county feature" d="M513.1829088376436,233.87753510348136L513.180821985329,240.42892138299806L506.74345495063517,240.37467938098087L506.8404314034172,238.34292017655707L504.9048326699775,236.96685217207641L504.98232743659986,235.77405255208748L503.7601003324395,233.80951289950212Z" style="fill: inherit; stroke: inherit; stroke-width: inherit;" vector-effect="non-scaling-stroke"><title>Monona County</title></path><path id="county-19127" class="county feature" d="M553.0618126859456,233.15546938094747L553.3039543662719,239.68922986096777L546.8744511255328,239.88725705994182L546.6897786464145,233.37893082049482L549.8440368114918,233.27613821127784Z" style="fill: inherit; stroke: inherit; stroke-width: inherit;" vector-effect="non-scaling-stroke"><title>Marshall County</title></path><path id="county-19027" class="county feature" d="M524.3417210425647,233.8245312961934L527.4974027271103,233.7868567490376L527.5914617453581,240.30621153603283L525.9860515070742,240.3354654320542L521.1840520272347,240.37088279518616L521.1464335437652,233.84586695644657Z" style="fill: inherit; stroke: inherit; stroke-width: inherit;" vector-effect="non-scaling-stroke"><title>Carroll County</title></path><path id="county-19047" class="county feature" d="M513.1829088376436,233.87753510348136L517.9560807807076,233.86136784063888L521.1464335437652,233.84586695644657L521.1840520272347,240.37088279518616L514.7715582949097,240.41540412456231L513.180821985329,240.42892138299806Z" style="fill: inherit; stroke: inherit; stroke-width: inherit;" vector-effect="non-scaling-stroke"><title>Crawford County</title></path><path id="county-19015" class="county feature" d="M537.0766932668107,233.60137433921864L540.2764490623308,233.54194340937784L540.4389291727578,240.04580375653143L538.8188482066513,240.08303647329626L534.0080383184977,240.1888459522902L533.8722375010364,233.67022388829923Z" style="fill: inherit; stroke: inherit; stroke-width: inherit;" vector-effect="non-scaling-stroke"><title>Boone County</title></path><path id="county-19073" class="county feature" d="M533.8722375010364,233.67022388829923L534.0080383184977,240.1888459522902L532.4027466230541,240.22291958916185L527.5914617453581,240.30621153603283L527.4974027271103,233.7868567490376L530.6727326235404,233.74223261664815Z" style="fill: inherit; stroke: inherit; stroke-width: inherit;" vector-effect="non-scaling-stroke"><title>Greene County</title></path><path id="county-19169" class="county feature" d="M543.5102127537925,233.45961387042985L546.6897786464145,233.37893082049482L546.8744511255328,239.88725705994182L545.2742021386028,239.92582384297737L540.4389291727578,240.04580375653143L540.2764490623308,233.54194340937784Z" style="fill: inherit; stroke: inherit; stroke-width: inherit;" vector-effect="non-scaling-stroke"><title>Story County</title></path><path id="county-19045" class="county feature" d="M589.133516018747,234.78235025279412L589.2774683302607,236.71695349343247L588.198347779107,239.53350785196017L587.2440492722833,240.61256914892647L585.019231017202,239.90163782067577L581.7404669852018,240.81715582906725L579.1554354330849,240.26930395109332L578.979140519663,236.98798148054584L578.8908457558973,235.34457846481314Z" style="fill: inherit; stroke: inherit; stroke-width: inherit;" vector-effect="non-scaling-stroke"><title>Clinton County</title></path><path id="county-19031" class="county feature" d="M572.5417101132996,237.29268217113952L578.979140519663,236.98798148054584L579.1554354330849,240.26930395109332L579.3114658999818,243.54434779651365L572.8518300094322,243.85212644111937L572.6168840470377,238.93491151597675Z" style="fill: inherit; stroke: inherit; stroke-width: inherit;" vector-effect="non-scaling-stroke"><title>Cedar County</title></path><path id="county-19085" class="county feature" d="M513.180821985329,240.42892138299806L514.7715582949097,240.41540412456231L514.7944413813422,245.32905450181693L515.6247398280722,247.1353951834442L508.711039431182,247.13760603381684L507.4313326855383,246.69324950963005L506.96199892302207,243.8240975367097L507.75843809237654,241.67124061735262L506.74345495063517,240.37467938098087Z" style="fill: inherit; stroke: inherit; stroke-width: inherit;" vector-effect="non-scaling-stroke"><title>Harrison County</title></path><path id="county-19095" class="county feature" d="M566.1993893692252,239.19790855667782L566.5183111887876,245.7830000326685L564.9016614528556,245.8661489847102L560.0253473341038,246.0844611211029L559.7567223707647,239.44660701590067Z" style="fill: inherit; stroke: inherit; stroke-width: inherit;" vector-effect="non-scaling-stroke"><title>Iowa County</title></path><path id="county-19049" class="county feature" d="M538.8188482066513,240.08303647329626L539.3144241376941,246.68730492936527L533.0629652711042,246.97352476363574L532.4918311817677,245.1459279433608L532.4027466230541,240.22291958916185L534.0080383184977,240.1888459522902Z" style="fill: inherit; stroke: inherit; stroke-width: inherit;" vector-effect="non-scaling-stroke"><title>Dallas County</title></path><path id="county-19165" class="county feature" d="M521.1840520272347,240.37088279518616L521.2359010531916,245.28229402742443L521.970711300046,247.11391633408925L520.3866782257943,247.118840999113L515.6247398280722,247.1353951834442L514.7944413813422,245.32905450181693L514.7715582949097,240.41540412456231Z" style="fill: inherit; stroke: inherit; stroke-width: inherit;" vector-effect="non-scaling-stroke"><title>Shelby County</title></path><path id="county-19009" class="county feature" d="M525.9860515070742,240.3354654320542L526.0600189599816,245.183930682094L526.6926705212786,247.06792036417517L521.970711300046,247.11391633408925L521.2359010531916,245.28229402742443L521.1840520272347,240.37088279518616Z" style="fill: inherit; stroke: inherit; stroke-width: inherit;" vector-effect="non-scaling-stroke"><title>Audubon County</title></path><path id="county-19157" class="county feature" d="M559.7567223707647,239.44660701590067L560.0253473341038,246.0844611211029L558.4377883167891,246.14942411742004L553.6597291878239,246.33435868612492L553.3039543662719,239.68922986096777Z" style="fill: inherit; stroke: inherit; stroke-width: inherit;" vector-effect="non-scaling-stroke"><title>Poweshiek County</title></path><path id="county-19153" class="county feature" d="M540.4389291727578,240.04580375653143L545.2742021386028,239.92582384297737L545.7295795872927,246.60041439289785L545.7385009421816,246.91771855198942L539.3144241376941,246.68730492936527L538.8188482066513,240.08303647329626Z" style="fill: inherit; stroke: inherit; stroke-width: inherit;" vector-effect="non-scaling-stroke"><title>Polk County</title></path><path id="county-19099" class="county feature" d="M546.8744511255328,239.88725705994182L553.3039543662719,239.68922986096777L553.6597291878239,246.33435868612492L552.0669425647102,246.3938382986048L545.7295795872927,246.60041439289785L545.2742021386028,239.92582384297737Z" style="fill: inherit; stroke: inherit; stroke-width: inherit;" vector-effect="non-scaling-stroke"><title>Jasper County</title></path><path id="county-19077" class="county feature" d="M532.4027466230541,240.22291958916185L532.4918311817677,245.1459279433608L533.0629652711042,246.97352476363574L526.6926705212786,247.06792036417517L526.0600189599816,245.183930682094L525.9860515070742,240.3354654320542L527.5914617453581,240.30621153603283Z" style="fill: inherit; stroke: inherit; stroke-width: inherit;" vector-effect="non-scaling-stroke"><title>Guthrie County</title></path><path id="county-19103" class="county feature" d="M572.6168840470377,238.93491151597675L572.8518300094322,243.85212644111937L572.9876205702898,247.14700589951678L571.3830512143546,247.21112518968926L570.78770174248,245.5966915319134L566.5183111887876,245.7830000326685L566.1993893692252,239.19790855667782Z" style="fill: inherit; stroke: inherit; stroke-width: inherit;" vector-effect="non-scaling-stroke"><title>Johnson County</title></path><path id="county-19163" class="county feature" d="M587.2440492722833,240.61256914892647L587.0251175688162,243.28252547717068L582.8318553207874,245.8949216157231L581.0349158409961,246.1689867386914L580.9214744766136,243.46801899475258L579.3114658999818,243.54434779651365L579.1554354330849,240.26930395109332L581.7404669852018,240.81715582906725L585.019231017202,239.90163782067577Z" style="fill: inherit; stroke: inherit; stroke-width: inherit;" vector-effect="non-scaling-stroke"><title>Scott County</title></path><path id="county-19139" class="county feature" d="M572.8518300094322,243.85212644111937L579.3114658999818,243.54434779651365L580.9214744766136,243.46801899475258L581.0349158409961,246.1689867386914L577.549423178835,247.00368175945323L577.1890007421151,248.6231075054642L573.0475081147961,248.7849637838318L572.9876205702898,247.14700589951678Z" style="fill: inherit; stroke: inherit; stroke-width: inherit;" vector-effect="non-scaling-stroke"><title>Muscatine County</title></path><path id="county-19183" class="county feature" d="M571.3830512143546,247.21112518968926L571.5918038380512,252.12806635633365L568.3863476963544,252.26844292480507L565.1853228240427,252.39478305836576L564.9016614528556,245.8661489847102L566.5183111887876,245.7830000326685L570.78770174248,245.5966915319134Z" style="fill: inherit; stroke: inherit; stroke-width: inherit;" vector-effect="non-scaling-stroke"><title>Washington County</title></path><path id="county-19181" class="county feature" d="M545.7385009421816,246.91771855198942L545.9232477637206,253.13236476048291L542.7204924250692,253.2064245943825L539.4875246201968,253.271419489629L539.3144241376941,246.68730492936527Z" style="fill: inherit; stroke: inherit; stroke-width: inherit;" vector-effect="non-scaling-stroke"><title>Warren County</title></path><path id="county-19107" class="county feature" d="M564.9016614528556,245.8661489847102L565.1853228240427,252.39478305836576L561.9202787086434,252.54732605778884L558.704731291702,252.68689792550663L558.4377883167891,246.14942411742004L560.0253473341038,246.0844611211029Z" style="fill: inherit; stroke: inherit; stroke-width: inherit;" vector-effect="non-scaling-stroke"><title>Keokuk County</title></path><path id="county-19121" class="county feature" d="M539.4875246201968,253.271419489629L536.3518919886869,253.43978440320632L533.1836378283132,253.49511603056135L533.0629652711042,246.97352476363574L539.3144241376941,246.68730492936527Z" style="fill: inherit; stroke: inherit; stroke-width: inherit;" vector-effect="non-scaling-stroke"><title>Madison County</title></path><path id="county-19123" class="county feature" d="M558.4377883167891,246.14942411742004L558.704731291702,252.68689792550663L555.5037560043011,252.81611054240454L552.3073181682796,252.93337945452015L552.0669425647102,246.3938382986048L553.6597291878239,246.33435868612492Z" style="fill: inherit; stroke: inherit; stroke-width: inherit;" vector-effect="non-scaling-stroke"><title>Mahaska County</title></path><path id="county-19125" class="county feature" d="M552.0669425647102,246.3938382986048L552.3073181682796,252.93337945452015L549.1104019668558,253.03687019470078L545.9232477637206,253.13236476048291L545.7385009421816,246.91771855198942L545.7295795872927,246.60041439289785Z" style="fill: inherit; stroke: inherit; stroke-width: inherit;" vector-effect="non-scaling-stroke"><title>Marion County</title></path><path id="county-19155" class="county feature" d="M515.6247398280722,247.1353951834442L520.3866782257943,247.118840999113L520.4345658494152,253.63125621540462L517.24591620279,253.6415870100676L510.32312175138935,253.67037222157785L509.7269753913374,253.08747270132665L510.16450778772906,250.6480310220353L509.5243747475093,249.3240773063461L508.711039431182,247.13760603381684Z" style="fill: inherit; stroke: inherit; stroke-width: inherit;" vector-effect="non-scaling-stroke"><title>Pottawattamie County</title></path><path id="county-19029" class="county feature" d="M521.970711300046,247.11391633408925L526.6926705212786,247.06792036417517L526.781717613081,253.58091438166514L523.6181985947024,253.61229979335167L520.4345658494152,253.63125621540462L520.3866782257943,247.118840999113Z" style="fill: inherit; stroke: inherit; stroke-width: inherit;" vector-effect="non-scaling-stroke"><title>Cass County</title></path><path id="county-19001" class="county feature" d="M526.6926705212786,247.06792036417517L533.0629652711042,246.97352476363574L533.1836378283132,253.49511603056135L529.9902350787836,253.54226536682052L526.781717613081,253.58091438166514Z" style="fill: inherit; stroke: inherit; stroke-width: inherit;" vector-effect="non-scaling-stroke"><title>Adair County</title></path><path id="county-19115" class="county feature" d="M572.9876205702898,247.14700589951678L573.0475081147961,248.7849637838318L577.1890007421151,248.6231075054642L577.1892103579066,248.6271465259814L576.7061649162121,250.41388763318196L578.5023839401476,251.908096322069L579.1552653097549,253.4382395486174L573.2727102957912,253.7127446262931L573.2032384327488,252.0818752341578L571.5918038380512,252.12806635633365L571.3830512143546,247.21112518968926Z" style="fill: inherit; stroke: inherit; stroke-width: inherit;" vector-effect="non-scaling-stroke"><title>Louisa County</title></path><path id="county-19101" class="county feature" d="M565.1853228240427,252.39478305836576L568.3863476963544,252.26844292480507L568.5735359779245,257.1988051127048L562.1293025206452,257.4949213265144L561.9202787086434,252.54732605778884Z" style="fill: inherit; stroke: inherit; stroke-width: inherit;" vector-effect="non-scaling-stroke"><title>Jefferson County</title></path><path id="county-19087" class="county feature" d="M571.5918038380512,252.12806635633365L573.2032384327488,252.0818752341578L573.2727102957912,253.7127446262931L573.4973235865712,258.63073766833384L572.9747303816505,258.65508927338294L568.6425416128684,258.8412312809779L568.5735359779245,257.1988051127048L568.3863476963544,252.26844292480507Z" style="fill: inherit; stroke: inherit; stroke-width: inherit;" vector-effect="non-scaling-stroke"><title>Henry County</title></path><path id="county-19179" class="county feature" d="M561.9202787086434,252.54732605778884L562.1293025206452,257.4949213265144L555.693469493733,257.75438045817725L555.5037560043011,252.81611054240454L558.704731291702,252.68689792550663Z" style="fill: inherit; stroke: inherit; stroke-width: inherit;" vector-effect="non-scaling-stroke"><title>Wapello County</title></path><path id="county-19039" class="county feature" d="M542.7204924250692,253.2064245943825L542.8628094961729,258.1564074814818L536.4490506187717,258.3301554957368L536.3518919886869,253.43978440320632L539.4875246201968,253.271419489629Z" style="fill: inherit; stroke: inherit; stroke-width: inherit;" vector-effect="non-scaling-stroke"><title>Clarke County</title></path><path id="county-19117" class="county feature" d="M545.9232477637206,253.13236476048291L549.1104019668558,253.03687019470078L549.2812093090022,257.97281418594946L542.8628094961729,258.1564074814818L542.7204924250692,253.2064245943825Z" style="fill: inherit; stroke: inherit; stroke-width: inherit;" vector-effect="non-scaling-stroke"><title>Lucas County</title></path><path id="county-19135" class="county feature" d="M555.5037560043011,252.81611054240454L555.693469493733,257.75438045817725L549.2812093090022,257.97281418594946L549.1104019668558,253.03687019470078L552.3073181682796,252.93337945452015Z" style="fill: inherit; stroke: inherit; stroke-width: inherit;" vector-effect="non-scaling-stroke"><title>Monroe County</title></path><path id="county-19129" class="county feature" d="M517.24591620279,253.6415870100676L517.2673800370158,258.5065671612508L511.2737388786501,258.52981967897244L510.3456905969208,255.6758732700746L510.32312175138935,253.67037222157785Z" style="fill: inherit; stroke: inherit; stroke-width: inherit;" vector-effect="non-scaling-stroke"><title>Mills County</title></path><path id="county-19137" class="county feature" d="M520.4345658494152,253.63125621540462L523.6181985947024,253.61229979335167L523.6579120279165,258.46706925838566L517.2673800370158,258.5065671612508L517.24591620279,253.6415870100676Z" style="fill: inherit; stroke: inherit; stroke-width: inherit;" vector-effect="non-scaling-stroke"><title>Montgomery County</title></path><path id="county-19003" class="county feature" d="M526.781717613081,253.58091438166514L529.9902350787836,253.54226536682052L530.0634313975111,258.40269930373495L523.6579120279165,258.46706925838566L523.6181985947024,253.61229979335167Z" style="fill: inherit; stroke: inherit; stroke-width: inherit;" vector-effect="non-scaling-stroke"><title>Adams County</title></path><path id="county-19175" class="county feature" d="M533.1836378283132,253.49511603056135L536.3518919886869,253.43978440320632L536.4490506187717,258.3301554957368L530.0634313975111,258.40269930373495L529.9902350787836,253.54226536682052Z" style="fill: inherit; stroke: inherit; stroke-width: inherit;" vector-effect="non-scaling-stroke"><title>Union County</title></path><path id="county-19057" class="county feature" d="M579.1552653097549,253.4382395486174L579.1573605097602,253.4776283475312L579.1165904629249,256.2095540998637L577.4295514306782,258.2073857801148L577.2423185841046,260.6362009755683L572.9747303816505,258.65508927338294L573.4973235865712,258.63073766833384L573.2727102957912,253.7127446262931Z" style="fill: inherit; stroke: inherit; stroke-width: inherit;" vector-effect="non-scaling-stroke"><title>Des Moines County</title></path><path id="county-19071" class="county feature" d="M517.2673800370158,258.5065671612508L517.4629525527541,264.5524603026091L511.9566392212373,264.4893534111261L510.29257421463393,261.4287285040257L510.98622213372073,260.7518842122404L511.2737388786501,258.52981967897244Z" style="fill: inherit; stroke: inherit; stroke-width: inherit;" vector-effect="non-scaling-stroke"><title>Fremont County</title></path><path id="county-19145" class="county feature" d="M523.6579120279165,258.46706925838566L523.9188232342913,264.59654649788445L519.8756289351788,264.5738543949569L517.4629525527541,264.5524603026091L517.2673800370158,258.5065671612508Z" style="fill: inherit; stroke: inherit; stroke-width: inherit;" vector-effect="non-scaling-stroke"><title>Page County</title></path><path id="county-19173" class="county feature" d="M530.0634313975111,258.40269930373495L530.1579460066866,264.59069397568044L527.8967485340602,264.6150342240835L523.9188232342913,264.59654649788445L523.6579120279165,258.46706925838566Z" style="fill: inherit; stroke: inherit; stroke-width: inherit;" vector-effect="non-scaling-stroke"><title>Taylor County</title></path><path id="county-19177" class="county feature" d="M568.5735359779245,257.1988051127048L568.6425416128684,258.8412312809779L568.8501661352944,262.8870376133274L565.6685742276857,262.88796453487555L562.3456589449022,263.1249891961544L562.1293025206452,257.4949213265144Z" style="fill: inherit; stroke: inherit; stroke-width: inherit;" vector-effect="non-scaling-stroke"><title>Van Buren County</title></path><path id="county-19051" class="county feature" d="M562.1293025206452,257.4949213265144L562.3456589449022,263.1249891961544L559.9482414933167,263.2810133672963L555.9187251088101,263.55121472454414L555.693469493733,257.75438045817725Z" style="fill: inherit; stroke: inherit; stroke-width: inherit;" vector-effect="non-scaling-stroke"><title>Davis County</title></path><path id="county-19159" class="county feature" d="M536.4490506187717,258.3301554957368L536.5660851338519,264.41556748858125L533.5187497668454,264.51216440349583L530.1579460066866,264.59069397568044L530.0634313975111,258.40269930373495Z" style="fill: inherit; stroke: inherit; stroke-width: inherit;" vector-effect="non-scaling-stroke"><title>Ringgold County</title></path><path id="county-19053" class="county feature" d="M542.8628094961729,258.1564074814818L543.0117642543828,264.14495201763066L539.9554455424772,264.2706467566019L536.5660851338519,264.41556748858125L536.4490506187717,258.3301554957368Z" style="fill: inherit; stroke: inherit; stroke-width: inherit;" vector-effect="non-scaling-stroke"><title>Decatur County</title></path><path id="county-19185" class="county feature" d="M549.2812093090022,257.97281418594946L549.4671144561868,263.89350930005344L545.5746260666759,264.0745698564526L543.0117642543828,264.14495201763066L542.8628094961729,258.1564074814818Z" style="fill: inherit; stroke: inherit; stroke-width: inherit;" vector-effect="non-scaling-stroke"><title>Wayne County</title></path><path id="county-19007" class="county feature" d="M555.693469493733,257.75438045817725L555.9187251088101,263.55121472454414L554.8454954372371,263.6161002087821L549.4671144561868,263.89350930005344L549.2812093090022,257.97281418594946Z" style="fill: inherit; stroke: inherit; stroke-width: inherit;" vector-effect="non-scaling-stroke"><title>Appanoose County</title></path><path id="county-19111" class="county feature" d="M572.9747303816505,258.65508927338294L577.2423185841046,260.6362009755683L576.2766484051201,261.7898184935433L573.9381853945393,262.49490073172933L573.2521970258173,263.5585535285984L573.9709015668083,266.3736091678311L573.2282662554521,266.8351899229393L568.8501661352944,262.8870376133274L568.6425416128684,258.8412312809779Z" style="fill: inherit; stroke: inherit; stroke-width: inherit;" vector-effect="non-scaling-stroke"><title>Lee County</title></path></g><path id="counties-mesh" class="counties mesh" d="M542.4038221652999,209.24641899337848L542.5195759876526,213.82550265025816L536.1200555380219,213.98012167285071L536.0124931774125,209.39679731382023M536.1200555380219,213.98012167285071L536.2496214821883,220.5043762095272L529.8363171213967,220.61931657065963L529.7247405362526,214.10583134445062L529.6541614986645,209.501635156975M523.2956240156853,209.58902763130288L523.3579364791118,214.1943586723512L516.9421844679567,214.24865248987066L516.912571480986,209.65006150853276M529.8363171213967,220.61931657065963L523.4320370551451,220.67810767161154L523.3579364791118,214.1943586723512M548.9433296040642,214.44024684982207L549.1128691831626,220.1657059528918L542.6715354004516,220.33718471507893L542.5195759876526,213.82550265025816M516.9421844679567,214.24865248987066L510.5310532908957,214.2295935660983L510.5341135920409,209.6792930089382M555.1251672412607,208.83399750263152L555.3061807368748,214.22522219205098L548.9433296040642,214.44024684982207L548.9182691057866,213.6400411142538M561.8073754155698,216.41654275571568L561.9385486226577,219.7145262103512L555.5142382455642,219.96151736318393L555.3061807368748,214.22522219205098M510.5310532908957,214.2295935660983L501.1481146446363,214.1666655951792L501.5844639532869,211.65984611536487L500.5840766143548,209.64815889657882L502.5537363807228,209.65905853109155L507.9449507680173,209.67844755503404L510.5341135920409,209.6792930089382L516.0075644799285,209.6505306710111L516.912571480986,209.65006150853276L523.2956240156853,209.58902763130288L524.0891673260571,209.57266358175002L529.6541614986645,209.501635156975L532.2817224191687,209.46092935110096L536.0124931774125,209.39679731382023L540.3621030604635,209.2955451713309L542.4038221652999,209.24641899337848L548.4506988339297,209.06882914456412L548.7747932765471,209.05872033598132L555.1251672412607,208.83399750263152L556.5275337096692,208.77831434889436L561.5034359595514,208.5796152389962L566.2030349524373,208.37601173885923L567.817802750917,208.30341978214676L573.1158397794858,208.04961718506866L573.3535624237752,209.49486151478425L573.437273676602,210.86430609849083L575.4937787192493,212.49118158862268L574.0621707500688,215.90103142132546L568.25864812097,216.15541293837816L567.817802750917,208.30341978214676M568.25864812097,216.15541293837816L561.8073754155698,216.41654275571568L561.7115092120108,213.97490507154032M510.5310532908957,214.2295935660983L510.5747403046391,220.77219529695583L501.33903878682537,220.75893222628804L501.7340279148238,218.10903012756387L502.50182896831365,217.48656943714525L502.22735650406185,214.92471804097545L501.1481146446363,214.1666655951792M542.6715354004516,220.33718471507893L542.835145922205,226.92610416158357L536.3800107863075,227.07183233486978L536.3452942274196,225.44506130898696L536.2496214821883,220.5043762095272M523.4320370551451,220.67810767161154L523.4972574836578,227.24348505590103L517.026055831718,227.27300891050288L516.9839324301346,220.73167976945138M512.1936244971154,227.30321535699738L512.1931079826837,228.91947057103437L513.1854162872287,228.92851219660838L513.1829088376436,233.87753510348136L503.7601003324395,233.80951289950212L503.76937043896567,232.65215350484914L503.01597646846324,231.43526888075053L503.2192314442764,228.73318021345392L502.5418807104705,228.63728835048823L501.84167555718454,227.3002203782405L501.7015285711892,225.98723563132546L500.14751422925286,224.53971091455298L500.06673691929194,223.4320892886567L501.33903878682537,220.75893222628804M568.25864812097,216.15541293837816L568.6141721246947,224.36877313909054L562.1437213414351,224.68823968485788L561.9385486226577,219.7145262103512M575.4541610224585,230.58918564875012L572.2562356511182,230.735098131874L569.0537783132758,230.88851838484345L568.6141721246947,224.36877313909054M516.9421844679567,214.24865248987066L516.9839324301346,220.73167976945138L510.5747403046391,220.77219529695583L510.5746265030678,227.32074215848377L501.84167555718454,227.3002203782405M529.8363171213967,220.61931657065963L529.9172544491526,225.55924327160892L529.9438112348762,227.18010942231217L523.4972574836578,227.24348505590103L524.3066036906162,228.85540520499774L524.3417210425647,233.8245312961934L521.1464335437652,233.84586695644657L517.9560807807076,233.86136784063888L517.9355845679238,228.9124003292692L517.026055831718,227.27300891050288L512.1936244971154,227.30321535699738L510.5746265030678,227.32074215848377M536.3452942274196,225.44506130898696L529.9172544491526,225.55924327160892M569.0537783132758,230.88851838484345L565.8437724004467,230.98282786376637L562.6420999020962,231.15377957445412L562.1437213414351,224.68823968485788L555.6896644733464,224.93334049971463M574.0621707500688,215.90103142132546L574.4225065859346,217.61277808100942L575.8942735503024,221.97620767925252L578.2634157902354,223.3012295146957L580.9606321447934,223.98844694975662L581.9319647671488,226.23807654546385L581.7820857480558,226.80772325913347L584.3498414403706,228.4871327887995L581.7364679412151,228.62245952661658L581.814061909096,230.2666674949885L578.6318105715214,230.43143699096925L575.4541610224585,230.58918564875012L575.0779758004827,224.0192830708702M536.3800107863075,227.07183233486978L536.959695200745,228.67799051474174L537.0766932668107,233.60137433921864L533.8722375010364,233.67022388829923L530.6727326235404,233.74223261664815L530.5890136048,228.77677430997517L529.9438112348762,227.18010942231217M562.6420999020962,231.15377957445412L559.4334778155644,231.27770010820188L556.2152820143539,231.40921644677837L555.7535034979061,226.55823247466253M530.6727326235404,233.74223261664815L527.4974027271103,233.7868567490376L524.3417210425647,233.8245312961934M555.5142382455642,219.96151736318393L549.1128691831626,220.1657059528918L549.2946738121053,226.7562143979186L542.835145922205,226.92610416158357L543.3839540760654,228.5465600224219L543.5102127537925,233.45961387042985L540.2764490623308,233.54194340937784L537.0766932668107,233.60137433921864M555.5142382455642,219.96151736318393L555.6896644733464,224.93334049971463L555.7535034979061,226.55823247466253L549.2946738121053,226.7562143979186L549.8440368114918,233.27613821127784L546.6897786464145,233.37893082049482L543.5102127537925,233.45961387042985M556.2152820143539,231.40921644677837L552.9966089556381,231.52874790030683L553.0618126859456,233.15546938094747L549.8440368114918,233.27613821127784M584.3498414403706,228.4871327887995L585.62569049015,231.3175913253856L586.6966685657057,231.88323334794302L588.9124398941098,233.20090008988313L589.133516018747,234.78235025279412L578.8908457558973,235.34457846481314L578.6318105715214,230.43143699096925M565.8437724004467,230.98282786376637L566.1993893692252,239.19790855667782L559.7567223707647,239.44660701590067L559.4334778155644,231.27770010820188M572.2562356511182,230.735098131874L572.5417101132996,237.29268217113952L572.6168840470377,238.93491151597675L566.1993893692252,239.19790855667782L566.5183111887876,245.7830000326685L564.9016614528556,245.8661489847102L560.0253473341038,246.0844611211029L559.7567223707647,239.44660701590067L553.3039543662719,239.68922986096777L553.0618126859456,233.15546938094747M578.8908457558973,235.34457846481314L578.979140519663,236.98798148054584L572.5417101132996,237.29268217113952M517.9560807807076,233.86136784063888L513.1829088376436,233.87753510348136L513.180821985329,240.42892138299806L506.74345495063517,240.37467938098087L506.8404314034172,238.34292017655707L504.9048326699775,236.96685217207641L504.98232743659986,235.77405255208748L503.7601003324395,233.80951289950212M560.0253473341038,246.0844611211029L558.4377883167891,246.14942411742004L553.6597291878239,246.33435868612492L553.3039543662719,239.68922986096777L546.8744511255328,239.88725705994182L546.6897786464145,233.37893082049482M527.4974027271103,233.7868567490376L527.5914617453581,240.30621153603283L525.9860515070742,240.3354654320542L521.1840520272347,240.37088279518616L521.1464335437652,233.84586695644657M521.1840520272347,240.37088279518616L514.7715582949097,240.41540412456231L513.180821985329,240.42892138299806M540.2764490623308,233.54194340937784L540.4389291727578,240.04580375653143L538.8188482066513,240.08303647329626L534.0080383184977,240.1888459522902L533.8722375010364,233.67022388829923M534.0080383184977,240.1888459522902L532.4027466230541,240.22291958916185L527.5914617453581,240.30621153603283M546.8744511255328,239.88725705994182L545.2742021386028,239.92582384297737L540.4389291727578,240.04580375653143M514.7715582949097,240.41540412456231L514.7944413813422,245.32905450181693L515.6247398280722,247.1353951834442L508.711039431182,247.13760603381684L507.4313326855383,246.69324950963005L506.96199892302207,243.8240975367097L507.75843809237654,241.67124061735262L506.74345495063517,240.37467938098087M589.133516018747,234.78235025279412L589.2774683302607,236.71695349343247L588.198347779107,239.53350785196017L587.2440492722833,240.61256914892647L585.019231017202,239.90163782067577L581.7404669852018,240.81715582906725L579.1554354330849,240.26930395109332L578.979140519663,236.98798148054584M579.1554354330849,240.26930395109332L579.3114658999818,243.54434779651365L572.8518300094322,243.85212644111937L572.6168840470377,238.93491151597675M538.8188482066513,240.08303647329626L539.3144241376941,246.68730492936527L533.0629652711042,246.97352476363574L532.4918311817677,245.1459279433608L532.4027466230541,240.22291958916185M521.1840520272347,240.37088279518616L521.2359010531916,245.28229402742443L521.970711300046,247.11391633408925L520.3866782257943,247.118840999113L515.6247398280722,247.1353951834442M525.9860515070742,240.3354654320542L526.0600189599816,245.183930682094L526.6926705212786,247.06792036417517L521.970711300046,247.11391633408925M545.7385009421816,246.91771855198942L545.9232477637206,253.13236476048291L542.7204924250692,253.2064245943825L539.4875246201968,253.271419489629L539.3144241376941,246.68730492936527M553.6597291878239,246.33435868612492L552.0669425647102,246.3938382986048L545.7295795872927,246.60041439289785M572.8518300094322,243.85212644111937L572.9876205702898,247.14700589951678L571.3830512143546,247.21112518968926L570.78770174248,245.5966915319134L566.5183111887876,245.7830000326685M581.0349158409961,246.1689867386914L580.9214744766136,243.46801899475258L579.3114658999818,243.54434779651365M520.3866782257943,247.118840999113L520.4345658494152,253.63125621540462L517.24591620279,253.6415870100676L510.32312175138935,253.67037222157785L509.7269753913374,253.08747270132665L510.16450778772906,250.6480310220353L509.5243747475093,249.3240773063461L508.711039431182,247.13760603381684M577.1890007421151,248.6231075054642L573.0475081147961,248.7849637838318L572.9876205702898,247.14700589951678M571.3830512143546,247.21112518968926L571.5918038380512,252.12806635633365L568.3863476963544,252.26844292480507L565.1853228240427,252.39478305836576L564.9016614528556,245.8661489847102M565.1853228240427,252.39478305836576L561.9202787086434,252.54732605778884L558.704731291702,252.68689792550663L558.4377883167891,246.14942411742004M558.704731291702,252.68689792550663L555.5037560043011,252.81611054240454L552.3073181682796,252.93337945452015L552.0669425647102,246.3938382986048M552.3073181682796,252.93337945452015L549.1104019668558,253.03687019470078L545.9232477637206,253.13236476048291M539.4875246201968,253.271419489629L536.3518919886869,253.43978440320632L533.1836378283132,253.49511603056135L533.0629652711042,246.97352476363574L526.6926705212786,247.06792036417517L526.781717613081,253.58091438166514L523.6181985947024,253.61229979335167L520.4345658494152,253.63125621540462M533.1836378283132,253.49511603056135L529.9902350787836,253.54226536682052L526.781717613081,253.58091438166514M587.2440492722833,240.61256914892647L587.0251175688162,243.28252547717068L582.8318553207874,245.8949216157231L581.0349158409961,246.1689867386914L577.549423178835,247.00368175945323L577.1890007421151,248.6231075054642L577.1892103579066,248.6271465259814L576.7061649162121,250.41388763318196L578.5023839401476,251.908096322069L579.1552653097549,253.4382395486174L573.2727102957912,253.7127446262931L573.2032384327488,252.0818752341578L571.5918038380512,252.12806635633365M517.24591620279,253.6415870100676L517.2673800370158,258.5065671612508L511.2737388786501,258.52981967897244L510.3456905969208,255.6758732700746L510.32312175138935,253.67037222157785M568.3863476963544,252.26844292480507L568.5735359779245,257.1988051127048L562.1293025206452,257.4949213265144L561.9202787086434,252.54732605778884M573.2727102957912,253.7127446262931L573.4973235865712,258.63073766833384L572.9747303816505,258.65508927338294L568.6425416128684,258.8412312809779L568.5735359779245,257.1988051127048M568.6425416128684,258.8412312809779L568.8501661352944,262.8870376133274L565.6685742276857,262.88796453487555L562.3456589449022,263.1249891961544L562.1293025206452,257.4949213265144L555.693469493733,257.75438045817725L555.5037560043011,252.81611054240454M542.7204924250692,253.2064245943825L542.8628094961729,258.1564074814818L536.4490506187717,258.3301554957368L536.3518919886869,253.43978440320632M579.1552653097549,253.4382395486174L579.1573605097602,253.4776283475312L579.1165904629249,256.2095540998637L577.4295514306782,258.2073857801148L577.2423185841046,260.6362009755683L572.9747303816505,258.65508927338294M523.6181985947024,253.61229979335167L523.6579120279165,258.46706925838566L517.2673800370158,258.5065671612508L517.4629525527541,264.5524603026091L511.9566392212373,264.4893534111261L510.29257421463393,261.4287285040257L510.98622213372073,260.7518842122404L511.2737388786501,258.52981967897244M529.9902350787836,253.54226536682052L530.0634313975111,258.40269930373495L523.6579120279165,258.46706925838566L523.9188232342913,264.59654649788445L519.8756289351788,264.5738543949569L517.4629525527541,264.5524603026091M536.4490506187717,258.3301554957368L530.0634313975111,258.40269930373495L530.1579460066866,264.59069397568044L527.8967485340602,264.6150342240835L523.9188232342913,264.59654649788445M536.4490506187717,258.3301554957368L536.5660851338519,264.41556748858125L533.5187497668454,264.51216440349583L530.1579460066866,264.59069397568044M549.1104019668558,253.03687019470078L549.2812093090022,257.97281418594946L542.8628094961729,258.1564074814818L543.0117642543828,264.14495201763066L539.9554455424772,264.2706467566019L536.5660851338519,264.41556748858125M562.3456589449022,263.1249891961544L559.9482414933167,263.2810133672963L555.9187251088101,263.55121472454414L555.693469493733,257.75438045817725L549.2812093090022,257.97281418594946L549.4671144561868,263.89350930005344L545.5746260666759,264.0745698564526L543.0117642543828,264.14495201763066M555.9187251088101,263.55121472454414L554.8454954372371,263.6161002087821L549.4671144561868,263.89350930005344M577.2423185841046,260.6362009755683L576.2766484051201,261.7898184935433L573.9381853945393,262.49490073172933L573.2521970258173,263.5585535285984L573.9709015668083,266.3736091678311L573.2282662554521,266.8351899229393L568.8501661352944,262.8870376133274M529.7247405362526,214.10583134445062L523.3579364791118,214.1943586723512M548.7747932765471,209.05872033598132L548.9182691057866,213.6400411142538L542.5195759876526,213.82550265025816M561.5034359595514,208.5796152389962L561.7115092120108,213.97490507154032L555.3061807368748,214.22522219205098M578.2634157902354,223.3012295146957L578.2882043048745,223.85379110599092L575.0779758004827,224.0192830708702L568.6141721246947,224.36877313909054M545.2742021386028,239.92582384297737L545.7295795872927,246.60041439289785L545.7385009421816,246.91771855198942L539.3144241376941,246.68730492936527M542.6715354004516,220.33718471507893L536.2496214821883,220.5043762095272M523.4320370551451,220.67810767161154L516.9839324301346,220.73167976945138" style="fill: inherit; stroke: inherit; stroke-width: inherit;" vector-effect="non-scaling-stroke"></path></svg>