<svg xmlns="http://www.w3.org/2000/svg" version="1.2" id="root" viewBox="500.06673691929194 208.04961718506866 89.21073141096878 58.785572737870666"><g id="counties"><path id="county-19189" class="county feature" d="M542.404 209.246l.116 4.58-6.4.154-.108-4.583 4.35-.101z" vector-effect="non-scaling-stroke" fill="inherit" stroke="inherit" stroke-width="inherit"><title>Winnebago County</title></path><path id="county-19109" class="county feature" d="M536.25 220.504l-6.414.115-.111-6.513-.07-4.604 2.627-.041 3.73-.064.108 4.583z" vector-effect="non-scaling-stroke" fill="inherit" stroke="inherit" stroke-width="inherit"><title>Kossuth County</title></path><path id="county-19059" class="county feature" d="M523.358 214.194l-6.416.055-.03-4.599 6.384-.061z" vector-effect="non-scaling-stroke" fill="inherit" stroke="inherit" stroke-width="inherit"><title>Dickinson County</title></path><path id="county-19063" class="county feature" d="M529.725 214.106l-6.367.088-.062-4.605.793-.016 5.565-.071z" vector-effect="non-scaling-stroke" fill="inherit" stroke="inherit" stroke-width="inherit"><title>Emmet County</title></path><path id="county-19195" class="county feature" d="M548.918 213.64l-6.398.186-.116-4.58 6.047-.177.324-.01z" vector-effect="non-scaling-stroke" fill="inherit" stroke="inherit" stroke-width="inherit"><title>Worth County</title></path><path id="county-19143" class="county feature" d="M516.942 214.249l-6.41-.02.002-4.55 5.474-.028h.905z" vector-effect="non-scaling-stroke" fill="inherit" stroke="inherit" stroke-width="inherit"><title>Osceola County</title></path><path id="county-19131" class="county feature" d="M555.306 214.225l-6.363.215-.025-.8-.143-4.581 6.35-.225z" vector-effect="non-scaling-stroke" fill="inherit" stroke="inherit" stroke-width="inherit"><title>Mitchell County</title></path><path id="county-19119" class="county feature" d="M510.531 214.23l-9.383-.063.436-2.507-1-2.012 1.97.011 5.391.02h2.59z" vector-effect="non-scaling-stroke" fill="inherit" stroke="inherit" stroke-width="inherit"><title>Lyon County</title></path><path id="county-19089" class="county feature" d="M561.503 208.58l.209 5.395-6.406.25-.18-5.391 1.402-.056z" vector-effect="non-scaling-stroke" fill="inherit" stroke="inherit" stroke-width="inherit"><title>Howard County</title></path><path id="county-19005" class="county feature" d="M573.116 208.05l.238 1.445.083 1.37 2.057 1.626-1.432 3.41-5.803.254-.441-7.852z" vector-effect="non-scaling-stroke" fill="inherit" stroke="inherit" stroke-width="inherit"><title>Allamakee County</title></path><path id="county-19191" class="county feature" d="M568.259 216.155l-6.452.262-.095-2.442-.209-5.395 4.7-.204 1.615-.073z" vector-effect="non-scaling-stroke" fill="inherit" stroke="inherit" stroke-width="inherit"><title>Winneshiek County</title></path><path id="county-19167" class="county feature" d="M510.531 214.23l.044 6.542-9.236-.013.395-2.65.768-.622-.275-2.562-1.079-.758z" vector-effect="non-scaling-stroke" fill="inherit" stroke="inherit" stroke-width="inherit"><title>Sioux County</title></path><path id="county-19141" class="county feature" d="M516.942 214.249l.042 6.483-6.41.04-.043-6.542z" vector-effect="non-scaling-stroke" fill="inherit" stroke="inherit" stroke-width="inherit"><title>O&apos;Brien County</title></path><path id="county-19033" class="county feature" d="M548.918 213.64l.025.8.17 5.726-6.441.171-.152-6.511z" vector-effect="non-scaling-stroke" fill="inherit" stroke="inherit" stroke-width="inherit"><title>Cerro Gordo County</title></path><path id="county-19081" class="county feature" d="M542.52 213.826l.152 6.511-6.422.167-.13-6.524z" vector-effect="non-scaling-stroke" fill="inherit" stroke="inherit" stroke-width="inherit"><title>Hancock County</title></path><path id="county-19147" class="county feature" d="M529.725 214.106l.111 6.513-6.404.06-.074-6.485z" vector-effect="non-scaling-stroke" fill="inherit" stroke="inherit" stroke-width="inherit"><title>Palo Alto County</title></path><path id="county-19041" class="county feature" d="M523.358 214.194l.074 6.484-6.448.054-.042-6.483z" vector-effect="non-scaling-stroke" fill="inherit" stroke="inherit" stroke-width="inherit"><title>Clay County</title></path><path id="county-19037" class="county feature" d="M561.712 213.975l.095 2.442.132 3.298-6.425.247-.208-5.737z" vector-effect="non-scaling-stroke" fill="inherit" stroke="inherit" stroke-width="inherit"><title>Chickasaw County</title></path><path id="county-19067" class="county feature" d="M555.306 214.225l.208 5.737-6.401.204-.17-5.726z" vector-effect="non-scaling-stroke" fill="inherit" stroke="inherit" stroke-width="inherit"><title>Floyd County</title></path><path id="county-19065" class="county feature" d="M568.259 216.155l.355 8.214-6.47.32-.205-4.974-.132-3.298z" vector-effect="non-scaling-stroke" fill="inherit" stroke="inherit" stroke-width="inherit"><title>Fayette County</title></path><path id="county-19043" class="county feature" d="M574.062 215.901l.36 1.712 1.472 4.363 2.37 1.325.024.553-3.21.165-6.464.35-.355-8.214z" vector-effect="non-scaling-stroke" fill="inherit" stroke="inherit" stroke-width="inherit"><title>Clayton County</title></path><path id="county-19149" class="county feature" d="M510.575 220.772v6.549l-8.733-.02-.14-1.314-1.554-1.447-.081-1.108 1.272-2.673z" vector-effect="non-scaling-stroke" fill="inherit" stroke="inherit" stroke-width="inherit"><title>Plymouth County</title></path><path id="county-19021" class="county feature" d="M523.432 220.678l.065 6.565-6.47.03-.043-6.541z" vector-effect="non-scaling-stroke" fill="inherit" stroke="inherit" stroke-width="inherit"><title>Buena Vista County</title></path><path id="county-19035" class="county feature" d="M516.984 220.732l.042 6.541-4.832.03-1.62.018v-6.549z" vector-effect="non-scaling-stroke" fill="inherit" stroke="inherit" stroke-width="inherit"><title>Cherokee County</title></path><path id="county-19151" class="county feature" d="M529.836 220.62l.081 4.94.027 1.62-6.447.063-.065-6.565z" vector-effect="non-scaling-stroke" fill="inherit" stroke="inherit" stroke-width="inherit"><title>Pocahontas County</title></path><path id="county-19197" class="county feature" d="M542.672 220.337l.163 6.59-6.455.145-.035-1.627-.095-4.94z" vector-effect="non-scaling-stroke" fill="inherit" stroke="inherit" stroke-width="inherit"><title>Wright County</title></path><path id="county-19091" class="county feature" d="M536.25 220.504l.095 4.941-6.428.114-.08-4.94z" vector-effect="non-scaling-stroke" fill="inherit" stroke="inherit" stroke-width="inherit"><title>Humboldt County</title></path><path id="county-19069" class="county feature" d="M549.113 220.166l.182 6.59-6.46.17-.163-6.589z" vector-effect="non-scaling-stroke" fill="inherit" stroke="inherit" stroke-width="inherit"><title>Franklin County</title></path><path id="county-19023" class="county feature" d="M555.514 219.962l.176 4.971.064 1.625-6.46.198-.181-6.59z" vector-effect="non-scaling-stroke" fill="inherit" stroke="inherit" stroke-width="inherit"><title>Butler County</title></path><path id="county-19017" class="county feature" d="M561.939 219.715l.205 4.973-6.454.245-.176-4.971z" vector-effect="non-scaling-stroke" fill="inherit" stroke="inherit" stroke-width="inherit"><title>Bremer County</title></path><path id="county-19061" class="county feature" d="M581.932 226.238l-.15.57 2.568 1.68-2.614.134.078 1.645-3.182.164-3.178.158-.376-6.57 3.21-.165-.025-.553 2.698.687z" vector-effect="non-scaling-stroke" fill="inherit" stroke="inherit" stroke-width="inherit"><title>Dubuque County</title></path><path id="county-19055" class="county feature" d="M575.078 224.02l.376 6.57-3.198.145-3.202.154-.44-6.52z" vector-effect="non-scaling-stroke" fill="inherit" stroke="inherit" stroke-width="inherit"><title>Delaware County</title></path><path id="county-19187" class="county feature" d="M536.345 225.445l.035 1.627.58 1.606.117 4.923-3.205.07-3.2.071-.083-4.965-.645-1.597-.027-1.62z" vector-effect="non-scaling-stroke" fill="inherit" stroke="inherit" stroke-width="inherit"><title>Webster County</title></path><path id="county-19019" class="county feature" d="M568.614 224.369l.44 6.52-3.21.094-3.202.17-.498-6.465z" vector-effect="non-scaling-stroke" fill="inherit" stroke="inherit" stroke-width="inherit"><title>Buchanan County</title></path><path id="county-19013" class="county feature" d="M562.144 224.688l.498 6.466-3.209.124-3.218.131-.461-4.85-.064-1.626z" vector-effect="non-scaling-stroke" fill="inherit" stroke="inherit" stroke-width="inherit"><title>Black Hawk County</title></path><path id="county-19193" class="county feature" d="M510.575 227.32l1.619-.017v1.616l.991.01-.002 4.949-9.423-.068.01-1.158-.754-1.217.203-2.702-.677-.096-.7-1.337z" vector-effect="non-scaling-stroke" fill="inherit" stroke="inherit" stroke-width="inherit"><title>Woodbury County</title></path><path id="county-19161" class="county feature" d="M523.497 227.243l.81 1.612.035 4.97-3.196.02-3.19.016-.02-4.949-.91-1.639z" vector-effect="non-scaling-stroke" fill="inherit" stroke="inherit" stroke-width="inherit"><title>Sac County</title></path><path id="county-19093" class="county feature" d="M517.026 227.273l.91 1.64.02 4.948-4.773.017.002-4.95-.992-.009v-1.616z" vector-effect="non-scaling-stroke" fill="inherit" stroke="inherit" stroke-width="inherit"><title>Ida County</title></path><path id="county-19025" class="county feature" d="M529.944 227.18l.645 1.597.084 4.965-3.176.045-3.155.038-.035-4.97-.81-1.612z" vector-effect="non-scaling-stroke" fill="inherit" stroke="inherit" stroke-width="inherit"><title>Calhoun County</title></path><path id="county-19079" class="county feature" d="M542.835 226.926l.549 1.62.126 4.914-3.234.082-3.2.06-.116-4.924-.58-1.606z" vector-effect="non-scaling-stroke" fill="inherit" stroke="inherit" stroke-width="inherit"><title>Hamilton County</title></path><path id="county-19083" class="county feature" d="M542.835 226.926l6.46-.17.549 6.52-3.154.103-3.18.08-.126-4.912z" vector-effect="non-scaling-stroke" fill="inherit" stroke="inherit" stroke-width="inherit"><title>Hardin County</title></path><path id="county-19075" class="county feature" d="M555.754 226.558l.461 4.851-3.218.12.065 1.626-3.218.121-.55-6.52z" vector-effect="non-scaling-stroke" fill="inherit" stroke="inherit" stroke-width="inherit"><title>Grundy County</title></path><path id="county-19097" class="county feature" d="M584.35 228.487l1.276 2.83 1.07.566 2.216 1.318.222 1.581-10.243.563-.26-4.914 3.183-.164-.078-1.645z" vector-effect="non-scaling-stroke" fill="inherit" stroke="inherit" stroke-width="inherit"><title>Jackson County</title></path><path id="county-19011" class="county feature" d="M565.844 230.983l.355 8.215-6.442.249-.324-8.17 3.21-.123z" vector-effect="non-scaling-stroke" fill="inherit" stroke="inherit" stroke-width="inherit"><title>Benton County</title></path><path id="county-19113" class="county feature" d="M569.054 230.889l3.202-.154.286 6.558.075 1.642-6.418.263-.355-8.215z" vector-effect="non-scaling-stroke" fill="inherit" stroke="inherit" stroke-width="inherit"><title>Linn County</title></path><path id="county-19171" class="county feature" d="M559.433 231.278l.324 8.169-6.453.242-.242-6.534-.065-1.626 3.218-.12z" vector-effect="non-scaling-stroke" fill="inherit" stroke="inherit" stroke-width="inherit"><title>Tama County</title></path><path id="county-19105" class="county feature" d="M575.454 230.59l3.178-.159.259 4.914.088 1.643-6.437.305-.286-6.558z" vector-effect="non-scaling-stroke" fill="inherit" stroke="inherit" stroke-width="inherit"><title>Jones County</title></path><path id="county-19133" class="county feature" d="M513.183 233.878l-.002 6.55-6.438-.053.097-2.032-1.935-1.376.077-1.193-1.222-1.964z" vector-effect="non-scaling-stroke" fill="inherit" stroke="inherit" stroke-width="inherit"><title>Monona County</title></path><path id="county-19127" class="county feature" d="M553.062 233.155l.242 6.534-6.43.198-.184-6.508 3.154-.103z" vector-effect="non-scaling-stroke" fill="inherit" stroke="inherit" stroke-width="inherit"><title>Marshall County</title></path><path id="county-19027" class="county feature" d="M524.342 233.825l3.155-.038.094 6.52-1.605.028-4.802.036-.038-6.525z" vector-effect="non-scaling-stroke" fill="inherit" stroke="inherit" stroke-width="inherit"><title>Carroll County</title></path><path id="county-19047" class="county feature" d="M513.183 233.878l4.773-.017 3.19-.015.038 6.525-6.412.044-1.591.014z" vector-effect="non-scaling-stroke" fill="inherit" stroke="inherit" stroke-width="inherit"><title>Crawford County</title></path><path id="county-19015" class="county feature" d="M537.077 233.601l3.2-.06.162 6.505-1.62.037-4.811.106-.136-6.519z" vector-effect="non-scaling-stroke" fill="inherit" stroke="inherit" stroke-width="inherit"><title>Boone County</title></path><path id="county-19073" class="county feature" d="M533.872 233.67l.136 6.519-1.605.034-4.812.083-.094-6.52 3.176-.044z" vector-effect="non-scaling-stroke" fill="inherit" stroke="inherit" stroke-width="inherit"><title>Greene County</title></path><path id="county-19169" class="county feature" d="M543.51 233.46l3.18-.081.184 6.508-1.6.039-4.835.12-.163-6.504z" vector-effect="non-scaling-stroke" fill="inherit" stroke="inherit" stroke-width="inherit"><title>Story County</title></path><path id="county-19045" class="county feature" d="M589.134 234.782l.143 1.935-1.079 2.817-.954 1.079-2.225-.711-3.279.915-2.585-.548-.176-3.281-.088-1.643z" vector-effect="non-scaling-stroke" fill="inherit" stroke="inherit" stroke-width="inherit"><title>Clinton County</title></path><path id="county-19031" class="county feature" d="M572.542 237.293l6.437-.305.176 3.281.156 3.275-6.46.308-.234-4.917z" vector-effect="non-scaling-stroke" fill="inherit" stroke="inherit" stroke-width="inherit"><title>Cedar County</title></path><path id="county-19085" class="county feature" d="M513.18 240.429l1.592-.014.022 4.914.83 1.806-6.913.003-1.28-.445-.469-2.869.796-2.153-1.015-1.296z" vector-effect="non-scaling-stroke" fill="inherit" stroke="inherit" stroke-width="inherit"><title>Harrison County</title></path><path id="county-19095" class="county feature" d="M566.2 239.198l.318 6.585-1.616.083-4.877.218-.268-6.637z" vector-effect="non-scaling-stroke" fill="inherit" stroke="inherit" stroke-width="inherit"><title>Iowa County</title></path><path id="county-19049" class="county feature" d="M538.819 240.083l.495 6.604-6.251.287-.571-1.828-.09-4.923 1.606-.034z" vector-effect="non-scaling-stroke" fill="inherit" stroke="inherit" stroke-width="inherit"><title>Dallas County</title></path><path id="county-19165" class="county feature" d="M521.184 240.37l.052 4.912.735 1.832-1.584.005-4.762.016-.83-1.806-.023-4.914z" vector-effect="non-scaling-stroke" fill="inherit" stroke="inherit" stroke-width="inherit"><title>Shelby County</title></path><path id="county-19009" class="county feature" d="M525.986 240.335l.074 4.849.633 1.884-4.722.046-.735-1.832-.052-4.911z" vector-effect="non-scaling-stroke" fill="inherit" stroke="inherit" stroke-width="inherit"><title>Audubon County</title></path><path id="county-19157" class="county feature" d="M559.757 239.447l.268 6.637-1.587.065-4.778.185-.356-6.645z" vector-effect="non-scaling-stroke" fill="inherit" stroke="inherit" stroke-width="inherit"><title>Poweshiek County</title></path><path id="county-19153" class="county feature" d="M540.439 240.046l4.835-.12.456 6.674.009.318-6.425-.23-.495-6.605z" vector-effect="non-scaling-stroke" fill="inherit" stroke="inherit" stroke-width="inherit"><title>Polk County</title></path><path id="county-19099" class="county feature" d="M546.874 239.887l6.43-.198.356 6.645-1.593.06-6.337.206-.456-6.674z" vector-effect="non-scaling-stroke" fill="inherit" stroke="inherit" stroke-width="inherit"><title>Jasper County</title></path><path id="county-19077" class="county feature" d="M532.403 240.223l.089 4.923.571 1.828-6.37.094-.633-1.884-.074-4.849 1.605-.029z" vector-effect="non-scaling-stroke" fill="inherit" stroke="inherit" stroke-width="inherit"><title>Guthrie County</title></path><path id="county-19103" class="county feature" d="M572.617 238.935l.235 4.917.136 3.295-1.605.064-.595-1.614-4.27.186-.319-6.585z" vector-effect="non-scaling-stroke" fill="inherit" stroke="inherit" stroke-width="inherit"><title>Johnson County</title></path><path id="county-19163" class="county feature" d="M587.244 240.613l-.219 2.67-4.193 2.612-1.797.274-.114-2.701-1.61.076-.156-3.275 2.585.548 3.28-.915z" vector-effect="non-scaling-stroke" fill="inherit" stroke="inherit" stroke-width="inherit"><title>Scott County</title></path><path id="county-19139" class="county feature" d="M572.852 243.852l6.46-.308 1.61-.076.113 2.701-3.486.835-.36 1.62-4.141.161-.06-1.638z" vector-effect="non-scaling-stroke" fill="inherit" stroke="inherit" stroke-width="inherit"><title>Muscatine County</title></path><path id="county-19183" class="county feature" d="M571.383 247.211l.209 4.917-3.206.14-3.2.127-.284-6.529 1.616-.083 4.27-.186z" vector-effect="non-scaling-stroke" fill="inherit" stroke="inherit" stroke-width="inherit"><title>Washington County</title></path><path id="county-19181" class="county feature" d="M545.739 246.918l.184 6.214-3.203.074-3.232.065-.174-6.584z" vector-effect="non-scaling-stroke" fill="inherit" stroke="inherit" stroke-width="inherit"><title>Warren County</title></path><path id="county-19107" class="county feature" d="M564.902 245.866l.283 6.529-3.265.152-3.215.14-.267-6.538 1.587-.065z" vector-effect="non-scaling-stroke" fill="inherit" stroke="inherit" stroke-width="inherit"><title>Keokuk County</title></path><path id="county-19121" class="county feature" d="M539.488 253.271l-3.136.169-3.168.055-.121-6.521 6.251-.287z" vector-effect="non-scaling-stroke" fill="inherit" stroke="inherit" stroke-width="inherit"><title>Madison County</title></path><path id="county-19123" class="county feature" d="M558.438 246.15l.267 6.537-3.201.13-3.197.116-.24-6.54 1.593-.059z" vector-effect="non-scaling-stroke" fill="inherit" stroke="inherit" stroke-width="inherit"><title>Mahaska County</title></path><path id="county-19125" class="county feature" d="M552.067 246.394l.24 6.54-3.197.103-3.187.095-.184-6.214-.01-.318z" vector-effect="non-scaling-stroke" fill="inherit" stroke="inherit" stroke-width="inherit"><title>Marion County</title></path><path id="county-19155" class="county feature" d="M515.625 247.135l4.762-.016.048 6.512-3.19.01-6.922.03-.596-.584.438-2.439-.64-1.324-.814-2.186z" vector-effect="non-scaling-stroke" fill="inherit" stroke="inherit" stroke-width="inherit"><title>Pottawattamie County</title></path><path id="county-19029" class="county feature" d="M521.97 247.114l4.723-.046.089 6.513-3.164.031-3.183.02-.048-6.513z" vector-effect="non-scaling-stroke" fill="inherit" stroke="inherit" stroke-width="inherit"><title>Cass County</title></path><path id="county-19001" class="county feature" d="M526.693 247.068l6.37-.094.12 6.521-3.193.047-3.208.039z" vector-effect="non-scaling-stroke" fill="inherit" stroke="inherit" stroke-width="inherit"><title>Adair County</title></path><path id="county-19115" class="county feature" d="M572.988 247.147l.06 1.638 4.141-.162v.004l-.483 1.787 1.796 1.494.653 1.53-5.882.275-.07-1.631-1.611.046-.209-4.917z" vector-effect="non-scaling-stroke" fill="inherit" stroke="inherit" stroke-width="inherit"><title>Louisa County</title></path><path id="county-19101" class="county feature" d="M565.185 252.395l3.201-.127.188 4.93-6.445.297-.209-4.948z" vector-effect="non-scaling-stroke" fill="inherit" stroke="inherit" stroke-width="inherit"><title>Jefferson County</title></path><path id="county-19087" class="county feature" d="M571.592 252.128l1.611-.046.07 1.63.224 4.919-.522.024-4.332.186-.07-1.642-.187-4.93z" vector-effect="non-scaling-stroke" fill="inherit" stroke="inherit" stroke-width="inherit"><title>Henry County</title></path><path id="county-19179" class="county feature" d="M561.92 252.547l.21 4.948-6.437.26-.19-4.939 3.202-.13z" vector-effect="non-scaling-stroke" fill="inherit" stroke="inherit" stroke-width="inherit"><title>Wapello County</title></path><path id="county-19039" class="county feature" d="M542.72 253.206l.143 4.95-6.414.174-.097-4.89 3.136-.169z" vector-effect="non-scaling-stroke" fill="inherit" stroke="inherit" stroke-width="inherit"><title>Clarke County</title></path><path id="county-19117" class="county feature" d="M545.923 253.132l3.187-.095.171 4.936-6.418.183-.143-4.95z" vector-effect="non-scaling-stroke" fill="inherit" stroke="inherit" stroke-width="inherit"><title>Lucas County</title></path><path id="county-19135" class="county feature" d="M555.504 252.816l.19 4.938-6.413.219-.17-4.936 3.196-.104z" vector-effect="non-scaling-stroke" fill="inherit" stroke="inherit" stroke-width="inherit"><title>Monroe County</title></path><path id="county-19129" class="county feature" d="M517.246 253.642l.021 4.865-5.993.023-.928-2.854-.023-2.006z" vector-effect="non-scaling-stroke" fill="inherit" stroke="inherit" stroke-width="inherit"><title>Mills County</title></path><path id="county-19137" class="county feature" d="M520.435 253.631l3.183-.019.04 4.855-6.39.04-.022-4.865z" vector-effect="non-scaling-stroke" fill="inherit" stroke="inherit" stroke-width="inherit"><title>Montgomery County</title></path><path id="county-19003" class="county feature" d="M526.782 253.58l3.208-.038.073 4.86-6.405.065-.04-4.855z" vector-effect="non-scaling-stroke" fill="inherit" stroke="inherit" stroke-width="inherit"><title>Adams County</title></path><path id="county-19175" class="county feature" d="M533.184 253.495l3.168-.055.097 4.89-6.386.073-.073-4.86z" vector-effect="non-scaling-stroke" fill="inherit" stroke="inherit" stroke-width="inherit"><title>Union County</title></path><path id="county-19057" class="county feature" d="M579.155 253.438l.002.04-.04 2.732-1.687 1.997-.188 2.43-4.267-1.982.522-.024-.224-4.918z" vector-effect="non-scaling-stroke" fill="inherit" stroke="inherit" stroke-width="inherit"><title>Des Moines County</title></path><path id="county-19071" class="county feature" d="M517.267 258.507l.196 6.045-5.506-.063-1.664-3.06.693-.677.288-2.222z" vector-effect="non-scaling-stroke" fill="inherit" stroke="inherit" stroke-width="inherit"><title>Fremont County</title></path><path id="county-19145" class="county feature" d="M523.658 258.467l.26 6.13-4.042-.023-2.413-.022-.196-6.045z" vector-effect="non-scaling-stroke" fill="inherit" stroke="inherit" stroke-width="inherit"><title>Page County</title></path><path id="county-19173" class="county feature" d="M530.063 258.403l.095 6.188-2.261.024-3.978-.018-.261-6.13z" vector-effect="non-scaling-stroke" fill="inherit" stroke="inherit" stroke-width="inherit"><title>Taylor County</title></path><path id="county-19177" class="county feature" d="M568.574 257.199l.069 1.642.207 4.046-3.181.001-3.323.237-.217-5.63z" vector-effect="non-scaling-stroke" fill="inherit" stroke="inherit" stroke-width="inherit"><title>Van Buren County</title></path><path id="county-19051" class="county feature" d="M562.13 257.495l.216 5.63-2.398.156-4.03.27-.225-5.797z" vector-effect="non-scaling-stroke" fill="inherit" stroke="inherit" stroke-width="inherit"><title>Davis County</title></path><path id="county-19159" class="county feature" d="M536.45 258.33l.116 6.086-3.047.096-3.361.079-.095-6.188z" vector-effect="non-scaling-stroke" fill="inherit" stroke="inherit" stroke-width="inherit"><title>Ringgold County</title></path><path id="county-19053" class="county feature" d="M542.863 258.156l.149 5.989-3.057.126-3.389.145-.117-6.086z" vector-effect="non-scaling-stroke" fill="inherit" stroke="inherit" stroke-width="inherit"><title>Decatur County</title></path><path id="county-19185" class="county feature" d="M549.281 257.973l.186 5.92-3.892.182-2.563.07-.15-5.989z" vector-effect="non-scaling-stroke" fill="inherit" stroke="inherit" stroke-width="inherit"><title>Wayne County</title></path><path id="county-19007" class="county feature" d="M555.693 257.754l.226 5.797-1.074.065-5.378.278-.186-5.921z" vector-effect="non-scaling-stroke" fill="inherit" stroke="inherit" stroke-width="inherit"><title>Appanoose County</title></path><path id="county-19111" class="county feature" d="M572.975 258.655l4.267 1.981-.965 1.154-2.339.705-.686 1.064.719 2.815-.743.461-4.378-3.948-.207-4.046z" vector-effect="non-scaling-stroke" fill="inherit" stroke="inherit" stroke-width="inherit"><title>Lee County</title></path></g><path id="counties-mesh" class="counties mesh" d="M542.404 209.246l.116 4.58-6.4.154-.108-4.583m.108 4.583l.13 6.524-6.414.115-.111-6.513-.07-4.604m-6.36.087l.063 4.605-6.416.055-.03-4.599m12.924 10.97l-6.404.058-.074-6.484m25.585.246l.17 5.726-6.441.171-.152-6.511m-25.578.423l-6.41-.02.002-4.55m44.591-.845l.181 5.391-6.363.215-.025-.8m12.89 2.777l.13 3.298-6.424.247-.208-5.737m-44.775.005l-9.383-.063.436-2.507-1-2.012 1.97.011 5.391.02h2.59l5.473-.028h.905l6.383-.062.793-.016 5.565-.071 2.628-.041 3.73-.064 4.35-.101 2.042-.05 6.047-.177.324-.01 6.35-.225 1.403-.056 4.975-.198 4.7-.204 1.615-.073 5.298-.253.238 1.445.083 1.37 2.057 1.626-1.432 3.41-5.803.254-.441-7.852m.44 7.852l-6.45.262-.096-2.442m-51.18.255l.043 6.542-9.236-.013.395-2.65.768-.622-.275-2.562-1.079-.758m41.524 6.17l.163 6.59-6.455.145-.035-1.627-.095-4.94m-12.818.173l.065 6.565-6.47.03-.043-6.541m-4.79 6.571v1.616l.991.01-.002 4.949-9.423-.068.01-1.158-.754-1.217.203-2.702-.677-.096-.7-1.337-.14-1.313-1.554-1.447-.081-1.108 1.272-2.673m66.92-4.604l.355 8.214-6.47.32-.205-4.974m13.515 10.874l-3.198.146-3.202.154-.44-6.52m-51.672-10.12l.042 6.483-6.41.04v6.549l-8.732-.02m27.994-6.682l.081 4.94.027 1.621-6.447.063.81 1.612.035 4.97-3.196.02-3.19.016-.02-4.949-.91-1.639-4.832.03-1.62.018m25.771-1.876l-6.428.114m39.137 5.33l-3.21.094-3.202.17-.498-6.465-6.454.245m18.372-9.032l.36 1.712 1.472 4.363 2.37 1.325 2.697.687.971 2.25-.15.57 2.568 1.68-2.614.134.078 1.645-3.182.164-3.178.158-.376-6.57m-38.698 3.053l.58 1.606.117 4.923-3.205.07-3.2.071-.083-4.965-.645-1.597m32.698 3.974l-3.209.124-3.218.131-.461-4.85m-25.081 7.183l-3.176.045-3.155.038m31.172-13.863l-6.401.204.182 6.59-6.46.17.549 1.62.126 4.914-3.234.082-3.2.06m18.438-13.64l.176 4.971.064 1.625-6.46.198.55 6.52-3.154.103-3.18.08m12.705-2.05l-3.218.12.065 1.626-3.218.121m34.506-4.789l1.276 2.83 1.07.566 2.216 1.318.222 1.581-10.243.563-.26-4.914m-12.787.552l.355 8.215-6.442.249-.324-8.17m12.823-.542l.286 6.558.075 1.642-6.418.263.32 6.585-1.617.083-4.877.218-.268-6.637-6.453.242-.242-6.534m25.829 2.19l.088 1.643-6.437.305m-54.586-3.432l-4.773.017-.002 6.55-6.438-.053.097-2.032-1.935-1.376.077-1.193-1.222-1.964m56.265 12.274l-1.587.065-4.778.185-.356-6.645-6.43.198-.184-6.508m-19.193.408l.094 6.52-1.605.028-4.802.036-.038-6.525m.038 6.525l-6.412.044-1.591.014m27.095-6.887l.163 6.504-1.62.037-4.811.106-.136-6.519m.136 6.519l-1.605.034-4.812.083m19.283-.419l-1.6.039-4.835.12m-25.667.37l.022 4.913.83 1.806-6.913.003-1.28-.445-.469-2.869.796-2.153-1.015-1.296m82.39-5.593l.144 1.935-1.079 2.817-.954 1.079-2.225-.711-3.279.915-2.585-.548-.176-3.281m.176 3.281l.156 3.275-6.46.308-.234-4.917m-33.798 1.148l.495 6.604-6.251.287-.571-1.828-.09-4.923m-11.218.148l.052 4.911.735 1.832-1.584.005-4.762.016m10.361-6.8l.074 4.849.633 1.884-4.722.046m23.768-.196l.184 6.214-3.203.074-3.232.065-.174-6.584m14.346-.353l-1.593.06-6.337.206m27.122-2.748l.136 3.295-1.605.064-.595-1.614-4.27.186m14.517.386l-.114-2.701-1.61.076m-58.924 3.575l.048 6.512-3.19.01-6.922.03-.596-.584.438-2.439-.64-1.324-.814-2.186m68.478 1.485l-4.141.162-.06-1.638m-1.605.064l.209 4.917-3.206.14-3.2.127-.284-6.529m.283 6.529l-3.265.152-3.215.14-.267-6.538m.267 6.538l-3.201.13-3.197.116-.24-6.54m.24 6.54l-3.197.104-3.187.095m-6.435.14l-3.136.168-3.168.055-.121-6.521-6.37.094.089 6.513-3.164.031-3.183.02m12.749-.137l-3.194.047-3.208.039m60.462-12.968l-.219 2.67-4.193 2.612-1.797.274-3.486.835-.36 1.62v.003l-.483 1.787 1.796 1.494.653 1.53-5.882.275-.07-1.631-1.611.046m-54.346 1.514l.021 4.865-5.993.023-.928-2.854-.023-2.006m58.063-1.402l.188 4.93-6.445.297-.209-4.948m11.353 1.166l.224 4.918-.522.024-4.332.186-.07-1.642m.07 1.642l.207 4.046-3.181.001-3.323.237-.217-5.63-6.436.26-.19-4.939m-12.783.39l.143 4.95-6.414.174-.097-4.89m42.803-.002l.002.04-.04 2.732-1.687 1.997-.188 2.43-4.267-1.982m-49.357-5.043l.04 4.855-6.39.04.195 6.045-5.506-.063-1.664-3.06.693-.677.288-2.222m18.716-4.988l.073 4.86-6.405.065.26 6.13-4.042-.023-2.413-.022m18.986-6.222l-6.386.073.095 6.188-2.261.024-3.978-.018m12.53-6.267l.117 6.086-3.047.096-3.361.079m18.952-11.554l.171 4.936-6.418.183.149 5.989-3.057.126-3.389.145m25.78-1.291l-2.398.156-4.03.27-.225-5.797-6.412.219.186 5.92-3.892.182-2.563.07m12.907-.594l-1.074.065-5.378.278m27.775-3.258l-.965 1.154-2.339.705-.686 1.064.719 2.815-.743.461-4.378-3.948m-39.125-48.781l-6.367.088m25.417-5.135l.143 4.581-6.398.186m18.983-5.246l.209 5.395-6.406.25m22.957 9.076l.025.553-3.21.165-6.464.35m-23.34 15.557l.456 6.674.009.318-6.425-.23m3.358-26.35l-6.422.166m-12.818.174l-6.448.054" vector-effect="non-scaling-stroke" fill="inherit" stroke="inherit" stroke-width="inherit"/></svg>