<svg xmlns="http://www.w3.org/2000/svg" version="1.2" id="root" viewBox="221.26264186741594 78.50984305552834 88.2063449781931 142.94383745988455"><g id="counties"><path id="county-16021" class="county feature" d="M261.78 81.098l-1.93 9.006-9.001-1.936 1.385-6.254-3.005-.655.619-2.75z" vector-effect="non-scaling-stroke" fill="inherit" stroke="inherit" stroke-width="inherit"><title>Boundary County</title></path><path id="county-16017" class="county feature" d="M259.85 90.104l-1.119 5.187-.916 4.28-1.877-2.089-1.428.637-.417 2.325-2.254-.488.42-1.83-6.681-1.216.286-1.231 3.365-14.42 3.005.655-1.385 6.254z" vector-effect="non-scaling-stroke" fill="inherit" stroke="inherit" stroke-width="inherit"><title>Bonner County</title></path><path id="county-16079" class="county feature" d="M257.815 99.571l1.896 4.696 1.032 1.312.05 1.906-.98.608 1.3 1.634-1.353.742 1.82 1.816.082.977 2.217 1.153 1.862 3.435.689 2.644.998.903-17.186-3.633.347-1.598 1.543-7.103 1.96-8.619.418-2.325 1.428-.637z" vector-effect="non-scaling-stroke" fill="inherit" stroke="inherit" stroke-width="inherit"><title>Shoshone County</title></path><path id="county-16055" class="county feature" d="M254.093 100.444l-1.96 8.62-3.18-.713-.711.659-5.122-1.034 2.458-11.066 6.68 1.216-.419 1.83z" vector-effect="non-scaling-stroke" fill="inherit" stroke="inherit" stroke-width="inherit"><title>Kootenai County</title></path><path id="county-16009" class="county feature" d="M252.132 109.063l-1.543 7.103-6.277-1.573-2.162-2.289.535-2.394.435-1.934 5.122 1.034.71-.66z" vector-effect="non-scaling-stroke" fill="inherit" stroke="inherit" stroke-width="inherit"><title>Benewah County</title></path><path id="county-16057" class="county feature" d="M250.59 116.166l-.348 1.598-1.21 5.574-1.584-.368-2.08-.454-1.583 1.294-4.026-.882 2.391-10.624 2.162 2.289z" vector-effect="non-scaling-stroke" fill="inherit" stroke="inherit" stroke-width="inherit"><title>Latah County</title></path><path id="county-16035" class="county feature" d="M267.428 121.397l-.135 1.369 2.994 2.922.627 2.077-13.668.264-3.14 3.281-4.075-2.874-2.138-2.28-.88-.766.435-2.42 1.583.368 1.211-5.574z" vector-effect="non-scaling-stroke" fill="inherit" stroke="inherit" stroke-width="inherit"><title>Clearwater County</title></path><path id="county-16049" class="county feature" d="M274.327 127.928l-.631 2.554-2.07 4.222-.947 3.207-.836 1.084 1.025 1.217-.43 2.314-1.144-.19-1.138 1.225.489 2.089-1.236 1.875-1.614 1.331-1.435-1.069-.342 1.373 1.92 3.06-1.521 1.58-16.512-3.38-2.51 1.148-1.712-.805-.206-2.678-4.403-.961 2.627-3.982 1.612-1.721-.53-2.745-2.715-2.582 1.742-2.291 2.045.405.864-2.308 1.386-1.092 2.829 1.526.95-.949 1.57.129-1.423-3.078 4.074 2.874 3.14-3.281 13.67-.264z" vector-effect="non-scaling-stroke" fill="inherit" stroke="inherit" stroke-width="inherit"><title>Idaho County</title></path><path id="county-16069" class="county feature" d="M247.448 122.97l-.435 2.42.88.767-.486 2.256-4.411-.636-1.186 6.026-1.742 2.29-.978-2.885-.129-2.005.754-1.175-.967-3.58.533-1.417.478-2.103 4.026.882 1.582-1.294z" vector-effect="non-scaling-stroke" fill="inherit" stroke="inherit" stroke-width="inherit"><title>Nez Perce County</title></path><path id="county-16061" class="county feature" d="M247.893 126.157l2.138 2.279 1.423 3.078-1.57-.129-.95.95-2.829-1.527-1.386 1.092-.864 2.308-2.045-.405 1.186-6.026 4.41.636z" vector-effect="non-scaling-stroke" fill="inherit" stroke="inherit" stroke-width="inherit"><title>Lewis County</title></path><path id="county-16059" class="county feature" d="M275.938 146.558l.173 1.444 1.186.593-.278 3.638.576 2.867 1.26 3.088 1.148 1.246-.716 3.544 1.228 1.762 1.35-.47 1.316 1.173.797 4.856-.203 1.39 2.22 1.817-.462 2.694-2.373-.494-4.27-.761.028-1.63-1.169-2.818-.61.514-3.735-1.955-2.322-3.922-.358-1.684-1.739-.143.655-2.106-.883.067-2.341 2.031.077.941-2.633 1.298-2.718-3.814.323-1.103 1.268-1.087 1.045-5.016.639-.718 1.52-1.58-1.92-3.06.343-1.373 1.435 1.07 1.614-1.332 1.22.1 1.233 2.232.967-.22z" vector-effect="non-scaling-stroke" fill="inherit" stroke="inherit" stroke-width="inherit"><title>Lemhi County</title></path><path id="county-16003" class="county feature" d="M245.394 151.568l.538.963-2.68 4.814.389 1.58-.805 3.739-2.073.603-2.765-1.496.48-2.275-1.048-1.15.704-3.215-3.532-.82 1.246-1.511.158-1.647 1.06-.863 2.008-3.166 4.403.961.206 2.678z" vector-effect="non-scaling-stroke" fill="inherit" stroke="inherit" stroke-width="inherit"><title>Adams County</title></path><path id="county-16085" class="county feature" d="M264.417 153.8l-.64.718-1.044 5.016-1.268 1.087-2.167 1.234-1.517-1.27-1.536 2.058-1.568.351-.052 3.59-1.178 1.367-1.694 1.155-1.648.147-7.592-1.632-.49 1.596-1.28-.343.684-3.167.767.163.642-3.206.805-3.739-.389-1.58 2.68-4.814-.538-.963 2.511-1.147z" vector-effect="non-scaling-stroke" fill="inherit" stroke="inherit" stroke-width="inherit"><title>Valley County</title></path><path id="county-16037" class="county feature" d="M278.89 174.945l-1.261-.237-.59 3.207-.547-.103-.586 3.42.894 1.173-3.085 1.82-2.51.811-.893.973-2.362-4.462-.678.638-2.34-2.215.132-.878-3.04-.925-.364.874-1.713-1.903-1.744-.35.245-1.196-2.272.59-.216-.265-.333-2.103.657-1.766-1.688-1.247.197-1.75-1.346-1.1 1.178-1.367.052-3.59 1.568-.351 1.536-2.058 1.517 1.27 2.167-1.234-.323 1.103 2.718 3.814 2.633-1.298-.077-.941 2.341-2.03.883-.068-.655 2.106 1.739.143.358 1.684 2.322 3.922 3.735 1.955.61-.514 1.169 2.819z" vector-effect="non-scaling-stroke" fill="inherit" stroke="inherit" stroke-width="inherit"><title>Custer County</title></path><path id="county-16087" class="county feature" d="M240.763 163.267l-1.107 2.103-.825 3.095-1.216-.272-5.8-1.304-.643-1.88-2.933-1.786.716-3.347 1.277-.891 2.204-3.39 2.166-1.283 3.532.819-.704 3.215 1.048 1.15-.48 2.275z" vector-effect="non-scaling-stroke" fill="inherit" stroke="inherit" stroke-width="inherit"><title>Washington County</title></path><path id="county-16043" class="county feature" d="M309.469 175.62l-1.42 9.081-1.999.65-2.843-.284-2.248.386-5.377-1.738.132-.804-2.363-.412.279-1.594 1.598.279.281-1.593 2.453-.423.477-2.372 1.057-1.413 2.283.363.466-2.754 1.394.508.987-3.124 1.37-.58 1.687 2.732-.226.83z" vector-effect="non-scaling-stroke" fill="inherit" stroke="inherit" stroke-width="inherit"><title>Fremont County</title></path><path id="county-16033" class="county feature" d="M302.245 172.992l-.466 2.754-2.283-.363-1.057 1.413-.477 2.372-2.453.423-.281 1.593-1.598-.28-7.095-1.252-.289 1.596-3.944-.716.858-4.826 2.373.494.462-2.694.814-1.921 4.014.802 1.013.772 1.693-1.974 2.365 1.26 3.122-.25.436 1.116z" vector-effect="non-scaling-stroke" fill="inherit" stroke="inherit" stroke-width="inherit"><title>Clark County</title></path><path id="county-16045" class="county feature" d="M242.836 162.664l-.642 3.206-.767-.163-.683 3.167-.793-.169-1.479 6.283-3.035-.668-2.62-.577.705-3.185 1.836.421.879-1.45 1.024.237.354-1.573 1.216.272.825-3.095 1.107-2.103z" vector-effect="non-scaling-stroke" fill="inherit" stroke="inherit" stroke-width="inherit"><title>Gem County</title></path><path id="county-16015" class="county feature" d="M253.447 167.951l1.346 1.1-.197 1.75 1.688 1.247-.657 1.766.333 2.103-1.796-1.032-.085-1.935-2.34 2.492-2.614.188-2.708 3.092-2.812 1.234-1.968-.152-3.165-4.816 1.48-6.283.792.169 1.279.343.49-1.596 7.592 1.632 1.648-.147z" vector-effect="non-scaling-stroke" fill="inherit" stroke="inherit" stroke-width="inherit"><title>Boise County</title></path><path id="county-16023" class="county feature" d="M283.16 175.706l-.858 4.826 3.944.716-1.18 6.434-.291 1.526-1.562-.195-.297 1.602-1.586-.291-.695 3.007-.799-.138-4.718-.86.281-1.524-3.636-.684.768-2.2-.876-1.967-1.343.05.893-.972 2.51-.811 3.085-1.82-.894-1.174.586-3.419.547.103.59-3.207 1.26.237z" vector-effect="non-scaling-stroke" fill="inherit" stroke="inherit" stroke-width="inherit"><title>Butte County</title></path><path id="county-16075" class="county feature" d="M237.615 168.193l-.354 1.573-1.024-.236-.88 1.45-1.835-.422-.706 3.185-1.898-.142-1.339-1.979 1.075-1.826-.11-1.947 1.272-.96z" vector-effect="non-scaling-stroke" fill="inherit" stroke="inherit" stroke-width="inherit"><title>Payette County</title></path><path id="county-16039" class="county feature" d="M255.96 175.917l.216.266-.536 1.412-1.116 1.939-.337 2.29-.736.225-1.556 7.424-1.072 5.218.703.192-.59 2.635-5.563-1.14.783-2.955-4.586-1.357-1.703-1.328-.628.984-2.704-2.598-.622-1.36 3.815.803 1.909-8.763 1.968.152 2.812-1.234 2.708-3.092 2.613-.188 2.34-2.492.086 1.935z" vector-effect="non-scaling-stroke" fill="inherit" stroke="inherit" stroke-width="inherit"><title>Elmore County</title></path><path id="county-16051" class="county feature" d="M293.63 180.905l-.279 1.594 2.363.412-.132.804-.63 3.192.78-.1 3.556 3.247-11.852-2.02-2.37-.352 1.18-6.434.289-1.596z" vector-effect="non-scaling-stroke" fill="inherit" stroke="inherit" stroke-width="inherit"><title>Jefferson County</title></path><path id="county-16013" class="county feature" d="M270.312 186.009l1.343-.051.876 1.967-.768 2.2 3.636.684-.281 1.523 4.718.861-.585 3.21-3.146-.575-1.095 6.458.481 1.747-.946.787-1.58-1.456-1.43.059.623-3.323.788.145 1.19-6.474-4.004-.753-8.785-1.68.185-2.334-1.81-.57.882-2.62-1.906-2.475.566-3.583-2.099-.662-1.525-1.5.536-1.411 2.272-.591-.245 1.196 1.744.35 1.713 1.903.364-.874 3.04.925-.132.878 2.34 2.215.678-.638z" vector-effect="non-scaling-stroke" fill="inherit" stroke="inherit" stroke-width="inherit"><title>Blaine County</title></path><path id="county-16081" class="county feature" d="M308.048 184.701l-1.402 8.937-1.94-1.042-.351-1.615-2.073-.344.925-5.57 2.843.283z" vector-effect="non-scaling-stroke" fill="inherit" stroke="inherit" stroke-width="inherit"><title>Teton County</title></path><path id="county-16065" class="county feature" d="M303.207 185.067l-.925 5.57-2.994-.583-3.556-3.248-.78.101.63-3.192 5.377 1.738z" vector-effect="non-scaling-stroke" fill="inherit" stroke="inherit" stroke-width="inherit"><title>Madison County</title></path><path id="county-16027" class="county feature" d="M232.816 173.743l2.621.577-.695 3.17.51.113-.695 3.195-.522-.104-.656 3.103-2.794-4.209-.33-2.304-2.06-2.135.669-2.935.715-.592 1.339 1.979z" vector-effect="non-scaling-stroke" fill="inherit" stroke="inherit" stroke-width="inherit"><title>Canyon County</title></path><path id="county-16025" class="county feature" d="M261.347 191.338l-2.923-.551-6.529-1.314 1.556-7.424.736-.224.337-2.291 1.116-1.94 1.525 1.5 2.099.662-.566 3.583 1.906 2.476-.883 2.618 1.811.571z" vector-effect="non-scaling-stroke" fill="inherit" stroke="inherit" stroke-width="inherit"><title>Camas County</title></path><path id="county-16001" class="county feature" d="M238.472 174.988l3.165 4.816-1.91 8.763-3.814-.803-1.261-1.828-.201-2.018-1.072-.12.656-3.104.522.104.694-3.195-.509-.113.695-3.17z" vector-effect="non-scaling-stroke" fill="inherit" stroke="inherit" stroke-width="inherit"><title>Ada County</title></path><path id="county-16073" class="county feature" d="M233.38 183.797l1.07.121.202 2.018 1.26 1.828.623 1.36 2.704 2.598.628-.984 1.703 1.328 4.586 1.357-.783 2.956 5.563 1.139-2.899 14.228-14.932-3.164-11.724-2.599-.118-.039 6.931-30.795 2.061 2.135.33 2.304z" vector-effect="non-scaling-stroke" fill="inherit" stroke="inherit" stroke-width="inherit"><title>Owyhee County</title></path><path id="county-16019" class="county feature" d="M299.288 190.054l2.994.583 2.073.344.351 1.615 1.94 1.042-.539 3.437-.865 5.483-7.322-1.19.826-4.84-3.13-.533.26-1.553-2.933-.507-.623-1.219-5.542-.96.658-3.722z" vector-effect="non-scaling-stroke" fill="inherit" stroke="inherit" stroke-width="inherit"><title>Bonneville County</title></path><path id="county-16011" class="county feature" d="M297.92 201.368l-6.332-1.108-7.933-1.37-1.5 1.08-1.174 1.47-2.554-.455.824-4.582.585-3.21.8.138.694-3.007 1.586.29.297-1.6 1.562.194.29-1.526 2.371.352-.658 3.722 5.542.96.623 1.22 2.934.506-.261 1.553 3.13.533z" vector-effect="non-scaling-stroke" fill="inherit" stroke="inherit" stroke-width="inherit"><title>Bingham County</title></path><path id="county-16063" class="county feature" d="M270.132 193.018l-1.21 6.466-.975 1.45-2.25-.443-1.413-1.103-3.952-.776-.114-.82-3.058-.602 1.264-6.403 2.923.551z" vector-effect="non-scaling-stroke" fill="inherit" stroke="inherit" stroke-width="inherit"><title>Lincoln County</title></path><path id="county-16047" class="county feature" d="M258.424 190.787l-1.264 6.403-1.034 3.652-2.645-.937-1.165-2.547.785-1.124-1.575-1.35-.703-.193 1.072-5.218z" vector-effect="non-scaling-stroke" fill="inherit" stroke="inherit" stroke-width="inherit"><title>Gooding County</title></path><path id="county-16067" class="county feature" d="M271.535 203.423l-1.196.022-1.74 1.994-3.698-.704.795-4.244 2.251.442.976-1.45 1.209-6.465 4.003.753-1.19 6.474-.787-.145z" vector-effect="non-scaling-stroke" fill="inherit" stroke="inherit" stroke-width="inherit"><title>Minidoka County</title></path><path id="county-16077" class="county feature" d="M279.25 196.403l-.823 4.582 2.554.455 1.174-1.47-.09.701 2.419-.702.67 1.32-.31 3.32 1.291 1.883-1.003 2.559-1.054-.189-.278 1.614-2.106-.371-.286 1.612-4.685-.812.842-4.825-3.02-1.26.946-.787-.48-1.747 1.094-6.458z" vector-effect="non-scaling-stroke" fill="inherit" stroke="inherit" stroke-width="inherit"><title>Power County</title></path><path id="county-16005" class="county feature" d="M291.588 200.26l-1.558 2.108.07 3.848 1.78-.104.39 1.984-.067 3.817-.79 2.911-3.014-1.058-.659-1.37-1.938.17.828-2.326-1.498-1.19 1.003-2.558-1.291-1.883.31-3.32-.67-1.32-2.419.702.09-.702 1.5-1.08z" vector-effect="non-scaling-stroke" fill="inherit" stroke="inherit" stroke-width="inherit"><title>Bannock County</title></path><path id="county-16029" class="county feature" d="M297.92 201.368l7.322 1.19-1.54 9.398-2.643.23.45-1.71-5.09-1.18-.474 3.253-3.742-.636.067-3.817-.39-1.984-1.78.104-.07-3.848 1.558-2.108z" vector-effect="non-scaling-stroke" fill="inherit" stroke="inherit" stroke-width="inherit"><title>Caribou County</title></path><path id="county-16083" class="county feature" d="M256.126 200.842l3.051 1.58 2.92 2.544 1.847-.245-.934.048-.38 1.791-2.895-.565-1.478 7.818-10.22-2.067 2.9-14.228.59-2.635 1.574 1.351-.785 1.124 1.165 2.547z" vector-effect="non-scaling-stroke" fill="inherit" stroke="inherit" stroke-width="inherit"><title>Twin Falls County</title></path><path id="county-16053" class="county feature" d="M265.696 200.491l-.795 4.244-.957-.014-1.847.245-2.92-2.544-3.05-1.58 1.033-3.652 3.058.602.114.82 3.952.776z" vector-effect="non-scaling-stroke" fill="inherit" stroke="inherit" stroke-width="inherit"><title>Jerome County</title></path><path id="county-16031" class="county feature" d="M274.545 204.82l3.02 1.26-.842 4.825-1.102 6.092-14.107-2.545-3.257-.639 1.478-7.818 2.895.565.38-1.79.934-.05.957.015 3.698.704 1.74-1.994 1.196-.022 1.43-.059z" vector-effect="non-scaling-stroke" fill="inherit" stroke="inherit" stroke-width="inherit"><title>Cassia County</title></path><path id="county-16007" class="county feature" d="M303.702 211.956l-1.517 9.498-6.28-.978-.9-1.948-.07-2.203 1.074-1.117-.064-2.659.474-3.254 5.09 1.182-.45 1.708z" vector-effect="non-scaling-stroke" fill="inherit" stroke="inherit" stroke-width="inherit"><title>Bear Lake County</title></path><path id="county-16071" class="county feature" d="M285.132 209.05l1.498 1.19-.828 2.327 1.938-.172.659 1.37-.684 5.372-.756-.13-11.338-2.01 1.102-6.092 4.685.812.286-1.612 2.106.37.278-1.613z" vector-effect="non-scaling-stroke" fill="inherit" stroke="inherit" stroke-width="inherit"><title>Oneida County</title></path><path id="county-16041" class="county feature" d="M295.945 212.55l.064 2.658-1.074 1.117.07 2.203.9 1.948-8.19-1.339.684-5.371 3.013 1.058.791-2.911z" vector-effect="non-scaling-stroke" fill="inherit" stroke="inherit" stroke-width="inherit"><title>Franklin County</title></path></g><path id="counties-mesh" class="counties mesh" d="M261.78 81.098l-1.93 9.006-9.001-1.936 1.385-6.254-3.005-.655.619-2.75 11.931 2.59m-1.928 9.005l-1.12 5.187-.916 4.28-1.877-2.089-1.428.637-.417 2.325-2.254-.488.42-1.83-6.681-1.216.286-1.231 3.365-14.42m8.586 18.312l1.896 4.696 1.032 1.312.05 1.906-.98.608 1.3 1.634-1.353.742 1.82 1.816.082.977 2.217 1.153 1.862 3.435.689 2.644.998.903-17.186-3.633.347-1.598 1.543-7.103 1.96-8.619m-3.503 15.722l-6.277-1.573-2.162-2.289.535-2.394.435-1.934 2.458-11.066m6.554 12.153l-3.18-.712-.71.659-5.122-1.034m-3.052 28.118l-.978-2.886-.129-2.005.754-1.175-.967-3.58.533-1.417.478-2.103 2.391-10.624m8.092 5.46l-1.21 5.574-1.584-.368-2.08-.454-1.583 1.294-4.026-.882m31.155 4.837l-13.668.264-3.14 3.281-4.075-2.874-2.138-2.28-.88-.766.435-2.42m19.98-1.573l-.135 1.369 2.994 2.922.627 2.077 3.413.163-.631 2.554-2.07 4.222-.947 3.207-.836 1.084 1.025 1.217-.43 2.314-1.144-.19-1.138 1.225.489 2.089-1.236 1.875-1.614 1.331-1.435-1.069-.342 1.373 1.92 3.06-1.521 1.58-16.512-3.38-2.51 1.148-1.712-.805-.206-2.678-4.403-.961 2.627-3.982 1.612-1.721-.53-2.745-2.715-2.582 1.742-2.291 2.045.405.864-2.308 1.386-1.092 2.829 1.526.95-.949 1.57.129-1.423-3.078m-2.138-2.28l-.486 2.257-4.411-.636-1.186 6.026m3.584 17.765l.538.963-2.68 4.814.389 1.58-.805 3.739-2.073.603-2.765-1.496.48-2.275-1.048-1.15.704-3.215-3.532-.82 1.246-1.511.158-1.647 1.06-.863 2.008-3.166m46.921 26.382l-.462 2.694-2.373-.494-4.27-.761.028-1.63-1.169-2.818-.61.514-3.735-1.955-2.322-3.922-.358-1.684-1.739-.143.655-2.106-.883.067-2.341 2.031.077.941-2.633 1.298-2.718-3.814.323-1.103 1.268-1.087 1.045-5.016.639-.718m-2.952 6.821l-2.167 1.234-1.517-1.27-1.536 2.058-1.568.351-.052 3.59-1.178 1.367-1.694 1.155-1.648.147-7.592-1.632-.49 1.596-1.28-.343.684-3.167.767.163.642-3.206m-2.073.603l-1.107 2.103-.825 3.095-1.216-.272-5.8-1.304-.643-1.88-2.933-1.786.716-3.347 1.277-.891 2.204-3.39 2.166-1.283m44.288 20.633l-1.261-.237-.59 3.207-.547-.103-.586 3.42.894 1.173-3.085 1.82-2.51.811-.893.973-2.362-4.462-.678.638-2.34-2.215.132-.878-3.04-.925-.364.874-1.713-1.903-1.744-.35.245-1.196-2.272.59-.216-.265-.333-2.103.657-1.766-1.688-1.247.197-1.75-1.346-1.1m13.962-20.426l1.22.1 1.233 2.232.967-.22 5.11-3.08.172 1.445 1.186.593-.278 3.638.576 2.867 1.26 3.088 1.148 1.246-.716 3.544 1.228 1.762 1.35-.47 1.316 1.173.797 4.856-.203 1.39 2.22 1.817.814-1.921 4.014.802 1.013.772 1.693-1.974 2.365 1.26 3.122-.25.436 1.116 2.793-.32 1.394.51.987-3.125 1.37-.58 1.687 2.732-.226.83 2.012 2.262-1.42 9.081-1.999.65-2.843-.284-2.248.386-5.377-1.738.132-.804-2.363-.412.279-1.594 1.598.279.281-1.593 2.453-.423.477-2.372 1.057-1.413 2.283.363.466-2.754m-8.615 7.913l-7.095-1.253-.289 1.596-3.944-.716.858-4.826m-42.416-6.832l-.793-.169-1.479 6.283-3.035-.668-2.62-.577.705-3.185 1.836.421.879-1.45 1.024.237.354-1.573m13.321 29.325l-2.899 14.228-14.932-3.164-11.724-2.599-.118-.039 6.931-30.795.67-2.935.715-.592 1.075-1.826-.11-1.947 1.272-.96m24.144 9.028l-1.796-1.032-.085-1.935-2.34 2.492-2.614.188-2.708 3.092-2.812 1.234-1.968-.152-3.165-4.816m47.774 6.26l-1.18 6.434-.291 1.526-1.562-.195-.297 1.602-1.586-.291-.695 3.007-.799-.138-4.718-.86.281-1.524-3.636-.684.768-2.2-.876-1.967-1.343.05m-37.496-12.265l-1.898-.142-1.339-1.979m26.597 4.56l-.536 1.413-1.116 1.939-.337 2.29-.736.225-1.556 7.424-1.072 5.218.703.192-.59 2.635-5.563-1.14.783-2.955-4.586-1.357-1.703-1.328-.628.984-2.704-2.598-.622-1.36 3.815.803 1.909-8.763m53.945 3.91l-.63 3.193.78-.1 3.556 3.247-11.852-2.02-2.37-.352m-5.23 5.511l-.585 3.21-3.146-.575-1.095 6.458.481 1.747-.946.787-1.58-1.456-1.43.059.623-3.323.788.145 1.19-6.474-4.004-.753-8.785-1.68.185-2.334-1.81-.57.882-2.62-1.906-2.475.566-3.583-2.099-.662-1.525-1.5m51.006 16.044l-1.94-1.042-.351-1.615-2.073-.344.925-5.57m-.925 5.57l-2.994-.583m-63.85-15.734l-.696 3.17.51.113-.695 3.195-.522-.104-.656 3.103-2.794-4.209-.33-2.304-2.06-2.135m33.152 16.19l-2.923-.552-6.529-1.314m-15.982-1.709l-1.261-1.828-.201-2.018-1.072-.12m74.67.903l-1.403 8.937-.539 3.437-.865 5.483-7.322-1.19.826-4.84-3.13-.533.26-1.553-2.933-.507-.623-1.219-5.542-.96.658-3.722m10.484 13.334l-6.332-1.108-7.933-1.37-1.5 1.08-1.174 1.47-2.554-.455.824-4.582m-9.119-3.385l-1.21 6.466-.975 1.45-2.25-.443-1.413-1.103-3.952-.776-.114-.82-3.058-.602 1.264-6.403m-1.264 6.403l-1.034 3.652-2.645-.937-1.165-2.547.785-1.124-1.575-1.35m20.009 8.539l-1.196.022-1.74 1.994-3.698-.704.795-4.244m16.46-.522l-.09.702 2.418-.702.67 1.32-.31 3.32 1.291 1.883-1.003 2.559-1.054-.189-.278 1.614-2.106-.371-.286 1.612-4.685-.812.842-4.825-3.02-1.26m17.043-4.56l-1.558 2.108.07 3.848 1.78-.104.39 1.984-.067 3.817-.79 2.911-3.014-1.058-.659-1.37-1.938.17.828-2.326-1.498-1.19m18.57 2.906l-2.643.23.45-1.71-5.09-1.18-.474 3.253-3.742-.636m-36.077-11.071l3.051 1.58 2.92 2.544 1.847-.245-.934.048-.38 1.791-2.895-.565-1.478 7.818-10.22-2.067m16.864-7.01l-.957-.015m12.779 6.184l-1.102 6.092-14.107-2.545-3.257-.639m46.985-11.255l-1.54 9.398-1.517 9.498-6.28-.978-.9-1.948-.07-2.203 1.074-1.117-.064-2.659m-7.546 1.217l-.684 5.371-.756-.13-11.338-2.01m20.284 3.48l-8.19-1.34" vector-effect="non-scaling-stroke" fill="inherit" stroke="inherit" stroke-width="inherit"/></svg>