<?xml version="1.0" standalone="yes"?>
<svg xmlns="http://www.w3.org/2000/svg" version="1.2" baseProfile="tiny" id="root" viewBox="199.92774075400033 57.17494194211273 130.87614720502432 185.61363968671577"><style>
@import url("../../css/svg.css");</style><rect id="bbox" class="bbox" x="199.92774075400033" y="57.17494194211273" width="130.87614720502432" height="185.61363968671577"></rect><g id="counties"><path id="county-16021" class="county feature" d="M261.77949842516074,81.09809632166412L259.85094763996926,90.10441442315994L250.84854165874708,88.16762707685109L252.23378749918277,81.91426401287663L249.22916419201323,81.25862084676214L249.84760443353855,78.50984305552834Z" vector-effect="non-scaling-stroke"><title>Boundary County</title></path><path id="county-16017" class="county feature" d="M259.85094763996926,90.10441442315994L258.73117693113113,95.29068111131232L257.8145383960841,99.57121847887674L255.9378443686274,97.48249244850967L254.50980553966943,98.11855416523497L254.09268904555813,100.4441742819862L251.8391605789771,99.9555936309007L252.2586116112504,98.12628844125152L245.57787706626692,96.91036728159236L245.8643570144573,95.67883911946831L249.22916419201323,81.25862084676214L252.23378749918277,81.91426401287663L250.84854165874708,88.16762707685109Z" vector-effect="non-scaling-stroke"><title>Bonner County</title></path><path id="county-16079" class="county feature" d="M257.8145383960841,99.57121847887674L259.7106441366486,104.26741202566575L260.74289861654756,105.57850582073229L260.79248764362916,107.48546203837645L259.8132352586304,108.09291291606712L261.1133535483707,109.72684924015698L259.7597031500036,110.4693549736428L261.58075227248935,112.28549675709303L261.66184144967013,113.2621302885168L263.87932910544896,114.41474469284105L265.74096178145123,117.84982349562358L266.429617263246,120.49446229094349L267.4284684951823,121.39691923913563L250.2422833527757,117.76359222408462L250.58928913515723,116.16619178819201L252.1322483256924,109.06336005262267L254.09268904555813,100.4441742819862L254.50980553966943,98.11855416523497L255.9378443686274,97.48249244850967Z" vector-effect="non-scaling-stroke"><title>Shoshone County</title></path><path id="county-16055" class="county feature" d="M254.09268904555813,100.4441742819862L252.1322483256924,109.06336005262267L248.95268371339967,108.35081802398213L248.2418502099119,109.01001920464523L243.1197704131015,107.97608146996026L245.57787706626692,96.91036728159236L252.2586116112504,98.12628844125152L251.8391605789771,99.9555936309007Z" vector-effect="non-scaling-stroke"><title>Kootenai County</title></path><path id="county-16009" class="county feature" d="M252.1322483256924,109.06336005262267L250.58928913515723,116.16619178819201L244.31244315551038,114.59297698522028L242.150308596936,112.30432265597062L242.68460344524163,109.9095495597071L243.1197704131015,107.97608146996026L248.2418502099119,109.01001920464523L248.95268371339967,108.35081802398213Z" vector-effect="non-scaling-stroke"><title>Benewah County</title></path><path id="county-16057" class="county feature" d="M250.58928913515723,116.16619178819201L250.2422833527757,117.76359222408462L249.03130469922746,123.3381904793606L247.4476960244553,122.96954471581819L245.36736874082396,122.51590810598373L243.78456152294547,123.80963911050287L239.75922708815926,122.928201855628L242.150308596936,112.30432265597062L244.31244315551038,114.59297698522028Z" vector-effect="non-scaling-stroke"><title>Latah County</title></path><path id="county-16035" class="county feature" d="M267.4284684951823,121.39691923913563L267.29264305822477,122.7655582272755L270.28691395008553,125.6875098232374L270.9141237354761,127.76463481848043L257.2458615655688,128.02864016566468L254.10509563102605,131.3100949332911L250.03074763673266,128.43551729373632L247.89311126204456,126.15669765419239L247.0131694880443,125.39046757943083L247.4476960244553,122.96954471581819L249.03130469922746,123.3381904793606L250.2422833527757,117.76359222408462Z" vector-effect="non-scaling-stroke"><title>Clearwater County</title></path><path id="county-16049" class="county feature" d="M274.32676550058466,127.92767884597777L273.69592836814843,130.48174077325427L271.62648928707813,134.7037544084368L270.6785026161931,137.91088262946175L269.8430409358724,138.99468681278654L270.86759772404935,140.21200153517373L270.43741607596945,142.52603915166253L269.2936135774796,142.33582636140352L268.1555776417961,143.56071034158458L268.64501329117576,145.65002996841338L267.40940015127353,147.52498249631117L265.79486179173125,148.85621337463908L264.3599997926301,147.7872156982238L264.0178231464138,149.16025664522215L265.9375054390807,152.22070305199304L264.4165724767609,153.80049193121556L247.90534839357412,150.42088372656747L245.3943337157441,151.56792175740327L243.68296275495516,150.76275635117725L243.4770005108852,148.085045841529L239.07362893688742,147.12363308474698L241.70078901011186,143.14158334465344L243.31296627836167,141.42091252914383L242.78261180461055,138.67603183461154L240.0676041385243,136.093940417647L241.80953902611304,133.80284300387416L243.8547817142092,134.20755954867195L244.71869628143185,131.90044668922064L246.10519992968773,130.80792032567547L248.9336359526746,132.33448686656845L249.88486772039124,131.38520991505288L251.45429480619038,131.51387738212463L250.03074763673266,128.43551729373632L254.10509563102605,131.3100949332911L257.2458615655688,128.02864016566468L270.9141237354761,127.76463481848043Z" vector-effect="non-scaling-stroke"><title>Idaho County</title></path><path id="county-16069" class="county feature" d="M247.4476960244553,122.96954471581819L247.0131694880443,125.39046757943083L247.89311126204456,126.15669765419239L247.40674579693194,128.41291858678346L242.99586020690896,127.77742118805406L241.80953902611304,133.80284300387416L240.0676041385243,136.093940417647L239.08988445400314,133.20793071669493L238.96102207931324,131.2033322379084L239.7154291773,130.02811393668298L238.74847416345642,126.44733270437666L239.28120986792788,125.03099342973951L239.75922708815926,122.928201855628L243.78456152294547,123.80963911050287L245.36736874082396,122.51590810598373Z" vector-effect="non-scaling-stroke"><title>Nez Perce County</title></path><path id="county-16061" class="county feature" d="M247.89311126204456,126.15669765419239L250.03074763673266,128.43551729373632L251.45429480619038,131.51387738212463L249.88486772039124,131.38520991505288L248.9336359526746,132.33448686656845L246.10519992968773,130.80792032567547L244.71869628143185,131.90044668922064L243.8547817142092,134.20755954867195L241.80953902611304,133.80284300387416L242.99586020690896,127.77742118805406L247.40674579693194,128.41291858678346Z" vector-effect="non-scaling-stroke"><title>Lewis County</title></path><path id="county-16059" class="county feature" d="M275.93813471450665,146.5578279292647L276.1111625521087,148.00155807535555L277.2968606453163,148.5954683656489L277.0191614644816,152.23257132898755L277.5946468220386,155.09974668812583L278.85470273876206,158.18806700169978L280.00278797348017,159.4336406741454L279.2867093056137,162.97783949256973L280.51457565776315,164.74014314941212L281.8658606203459,164.26940639162524L283.1813009705802,165.44268319643027L283.97774677646237,170.29858868418296L283.77462955842327,171.68960979633755L285.99496038987945,173.50639731787146L285.5328484832894,176.19974237550014L283.1602312683056,175.70573897322538L278.88987884620906,174.94471339829352L278.9177785988028,173.3158866708568L277.7492491357193,170.49687917327162L277.1388620903809,171.01147148814277L273.40351421700365,169.05582490263453L271.0824877563317,165.13360222543656L270.7236786070027,163.45038828062525L268.98519503416253,163.30673690598405L269.64019123130845,161.2011490346929L268.75736945798315,161.26820079330525L266.4156239014037,163.29904560645036L266.4927968757356,164.24017575397988L263.8601583872483,165.5376014661008L261.1419143479227,161.72404597967068L261.46485434384346,160.6213210666591L262.7325300041524,159.53361181093726L263.7776559112792,154.5176597239191L264.4165724767609,153.80049193121556L265.9375054390807,152.22070305199304L264.0178231464138,149.16025664522215L264.3599997926301,147.7872156982238L265.79486179173125,148.85621337463908L267.40940015127353,147.52498249631117L268.62889767006095,147.62456394237404L269.8616655743002,149.8566053963142L270.82866246261045,149.6374293826541Z" vector-effect="non-scaling-stroke"><title>Lemhi County</title></path><path id="county-16003" class="county feature" d="M245.3943337157441,151.56792175740327L245.9320498992377,152.53087549244992L243.25245794866134,157.34518044549748L243.64094296141332,158.9249711367479L242.8358301364513,162.663940994271L240.76298548581633,163.26653126701603L237.99813932349565,161.77087367147988L238.47777279202677,159.49597932186884L237.4296482931113,158.34620978474072L238.1337301493976,155.1307753251267L234.6022768191558,154.31180404784482L235.84816155062703,152.79960483052332L236.0064604365994,151.15325075851354L237.06593304506322,150.29020745611035L239.07362893688742,147.12363308474698L243.4770005108852,148.085045841529L243.68296275495516,150.76275635117725Z" vector-effect="non-scaling-stroke"><title>Adams County</title></path><path id="county-16085" class="county feature" d="M264.4165724767609,153.80049193121556L263.7776559112792,154.5176597239191L262.7325300041524,159.53361181093726L261.46485434384346,160.6213210666591L259.29766673230046,161.85502570221183L257.78078954358466,160.58536143712263L256.24507819064615,162.64285729551193L254.67650541113085,162.99442456507722L254.62537939982354,166.5843010896417L253.44708226526274,167.95142803157808L251.75340369015322,169.1058228432338L250.10474155261522,169.25262655874428L242.51279188853306,167.62100511832364L242.02293844733094,169.21726542214094L240.7435607645359,168.8737457038427L241.4274804632637,165.70655244443367L242.1944082724957,165.86985491741518L242.8358301364513,162.663940994271L243.64094296141332,158.9249711367479L243.25245794866134,157.34518044549748L245.9320498992377,152.53087549244992L245.3943337157441,151.56792175740327L247.90534839357412,150.42088372656747Z" vector-effect="non-scaling-stroke"><title>Valley County</title></path><path id="county-16037" class="county feature" d="M278.88987884620906,174.94471339829352L277.6288839017078,174.70756979316786L277.03934100193044,177.91481602104977L276.49207371549574,177.81224089167154L275.905808114637,181.23131229655723L276.7999403441361,182.4048676814349L273.7153585861216,184.22465006853463L271.2047361407495,185.03615498824536L270.3124839671635,186.00870792177932L267.94973775523954,181.5467178491997L267.2722853070667,182.18474629390857L264.93240341969005,179.97021056775202L265.064176209242,179.0919526701109L262.02380754553786,178.16656930046622L261.65983581660123,179.0411544405041L259.9473277892305,177.1379975118315L258.2026032360371,176.78826881123825L258.44751473464066,175.5917269782401L256.1759620304946,176.18279147589192L255.9599204931966,175.91715757990164L255.62682621645763,173.81351672155392L256.2838568501749,172.04780292636872L254.59645816363377,170.80133255237797L254.79313829892487,169.05136586622268L253.44708226526274,167.95142803157808L254.62537939982354,166.5843010896417L254.67650541113085,162.99442456507722L256.24507819064615,162.64285729551193L257.78078954358466,160.58536143712263L259.29766673230046,161.85502570221183L261.46485434384346,160.6213210666591L261.1419143479227,161.72404597967068L263.8601583872483,165.5376014661008L266.4927968757356,164.24017575397988L266.4156239014037,163.29904560645036L268.75736945798315,161.26820079330525L269.64019123130845,161.2011490346929L268.98519503416253,163.30673690598405L270.7236786070027,163.45038828062525L271.0824877563317,165.13360222543656L273.40351421700365,169.05582490263453L277.1388620903809,171.01147148814277L277.7492491357193,170.49687917327162L278.9177785988028,173.3158866708568Z" vector-effect="non-scaling-stroke"><title>Custer County</title></path><path id="county-16087" class="county feature" d="M240.76298548581633,163.26653126701603L239.65601161770616,165.37005735025048L238.83093006098164,168.46537121047675L237.61474735480851,168.19295214213844L231.81579328068352,166.8885038573834L231.17154004208902,165.00859304864036L228.2388901567465,163.2233811063012L228.95496606883341,159.87569152074047L230.2324426107678,158.98457178120157L232.43614614381647,155.5954122192311L234.6022768191558,154.31180404784482L238.1337301493976,155.1307753251267L237.4296482931113,158.34620978474072L238.47777279202677,159.49597932186884L237.99813932349565,161.77087367147988Z" vector-effect="non-scaling-stroke"><title>Washington County</title></path><path id="county-16043" class="county feature" d="M309.46898684560904,175.62012859285926L308.04814566057416,184.7011241381732L306.05011605468803,185.35040727081707L303.2068262312033,185.06743142694393L300.95918456819174,185.45324975260075L295.58227597802545,183.71462300458325L295.71383068499586,182.91072042759413L293.3510788177186,182.4992685336133L293.629687112285,180.90454570526208L295.2278880736252,181.18395226648568L295.50895533249866,179.59096459686987L297.96225598601626,179.1684441654893L298.4394593619661,176.7957456375931L299.49579820518,175.38290603455346L301.7786015938517,175.74626266751022L302.2450666411056,172.99154824117875L303.6391174480605,173.50012310961984L304.6255386512008,170.37642738457464L305.99670477934353,169.79631799185347L307.68258599351185,172.52844891749317L307.4568148016436,173.35869766512656Z" vector-effect="non-scaling-stroke"><title>Fremont County</title></path><path id="county-16033" class="county feature" d="M302.2450666411056,172.99154824117875L301.7786015938517,175.74626266751022L299.49579820518,175.38290603455346L298.4394593619661,176.7957456375931L297.96225598601626,179.1684441654893L295.50895533249866,179.59096459686987L295.2278880736252,181.18395226648568L293.629687112285,180.90454570526208L286.53457845989146,179.6516627075082L286.2464077353269,181.2477521797149L282.3024868609698,180.53211732992077L283.1602312683056,175.70573897322538L285.5328484832894,176.19974237550014L285.99496038987945,173.50639731787146L286.8085683684837,171.5847118071781L290.82284738555717,172.38717273503391L291.83592822558643,173.15930310115812L293.5288799313691,171.18523623256556L295.8944884109258,172.44418119987438L299.01599190955295,172.1948344733238L299.45160339657684,173.3113121394955Z" vector-effect="non-scaling-stroke"><title>Clark County</title></path><path id="county-16045" class="county feature" d="M242.8358301364513,162.663940994271L242.1944082724957,165.86985491741518L241.4274804632637,165.70655244443367L240.7435607645359,168.8737457038427L239.9511342408581,168.7054546427421L238.47208706577584,174.9875185514352L235.43717523452256,174.31979213244892L232.81630961821628,173.74330059672968L233.52177684138542,170.55775512255263L235.3578091994396,170.97943222812478L236.23686678867136,169.5295323694521L237.26103731478742,169.76621408305527L237.61474735480851,168.19295214213844L238.83093006098164,168.46537121047675L239.65601161770616,165.37005735025048L240.76298548581633,163.26653126701603Z" vector-effect="non-scaling-stroke"><title>Gem County</title></path><path id="county-16015" class="county feature" d="M253.44708226526274,167.95142803157808L254.79313829892487,169.05136586622268L254.59645816363377,170.80133255237797L256.2838568501749,172.04780292636872L255.62682621645763,173.81351672155392L255.9599204931966,175.91715757990164L254.16368859235428,174.8851082923943L254.07871042121891,172.9503992446946L251.73812937037565,175.44228093554716L249.12503385522143,175.63040959653586L246.41678326648008,178.7216276630678L243.60543728668597,179.95578709194933L241.6367387157257,179.8041620488633L238.47208706577584,174.9875185514352L239.9511342408581,168.7054546427421L240.7435607645359,168.8737457038427L242.02293844733094,169.21726542214094L242.51279188853306,167.62100511832364L250.10474155261522,169.25262655874428L251.75340369015322,169.1058228432338Z" vector-effect="non-scaling-stroke"><title>Boise County</title></path><path id="county-16023" class="county feature" d="M283.1602312683056,175.70573897322538L282.3024868609698,180.53211732992077L286.2464077353269,181.2477521797149L285.0650881539341,187.6821738525955L284.7746245050926,189.20767525380552L283.21251898191474,189.01328519482377L282.91631825265625,190.61479570941276L281.3299719862395,190.32396054989556L280.6354260285481,193.33111184800964L279.8364992332782,193.19300556217138L275.11776869036976,192.33241551493427L275.39926279523434,190.80868780698063L271.76314586149164,190.12537883104824L272.53078603571873,187.92502312877627L271.6553200812016,185.95787872371784L270.3124839671635,186.00870792177932L271.2047361407495,185.03615498824536L273.7153585861216,184.22465006853463L276.7999403441361,182.4048676814349L275.905808114637,181.23131229655723L276.49207371549574,177.81224089167154L277.03934100193044,177.91481602104977L277.6288839017078,174.70756979316786L278.88987884620906,174.94471339829352Z" vector-effect="non-scaling-stroke"><title>Butte County</title></path><path id="county-16075" class="county feature" d="M237.61474735480851,168.19295214213844L237.26103731478742,169.76621408305527L236.23686678867136,169.5295323694521L235.3578091994396,170.97943222812478L233.52177684138542,170.55775512255263L232.81630961821628,173.74330059672968L230.91799605378105,173.6010447826376L229.5792028414889,171.6224085499548L230.65385487569802,169.79637580075917L230.54418128371174,167.84873454242222L231.81579328068352,166.8885038573834Z" vector-effect="non-scaling-stroke"><title>Payette County</title></path><path id="county-16039" class="county feature" d="M255.9599204931966,175.91715757990164L256.1759620304946,176.18279147589192L255.63979223908797,177.59485807181204L254.52386232844887,179.5339320713107L254.18679306143468,181.8247586337402L253.45086840741143,182.04943653037765L251.89516533312207,189.47349301427596L250.823059578288,194.6910582602626L251.52612665052737,194.88339828451842L250.93645413112256,197.51782583158797L245.37293175465066,196.37861676158923L246.15601226219542,193.42288313578763L241.56984790462212,192.06573509920963L239.86730042807318,190.73836642129402L239.2389722091719,191.72152128385403L236.5353062514385,189.1235692256016L235.91254046575943,187.7640989502802L239.72755184155704,188.56660964037792L241.6367387157257,179.8041620488633L243.60543728668597,179.95578709194933L246.41678326648008,178.7216276630678L249.12503385522143,175.63040959653586L251.73812937037565,175.44228093554716L254.07871042121891,172.9503992446946L254.16368859235428,174.8851082923943Z" vector-effect="non-scaling-stroke"><title>Elmore County</title></path><path id="county-16051" class="county feature" d="M293.629687112285,180.90454570526208L293.3510788177186,182.4992685336133L295.71383068499586,182.91072042759413L295.58227597802545,183.71462300458325L294.95242712217856,186.90725788301222L295.7323275767852,186.8064949453767L299.2884784731895,190.05402713465332L287.43602177290495,188.0342785862656L285.0650881539341,187.6821738525955L286.2464077353269,181.2477521797149L286.53457845989146,179.6516627075082Z" vector-effect="non-scaling-stroke"><title>Jefferson County</title></path><path id="county-16013" class="county feature" d="M270.3124839671635,186.00870792177932L271.6553200812016,185.95787872371784L272.53078603571873,187.92502312877627L271.76314586149164,190.12537883104824L275.39926279523434,190.80868780698063L275.11776869036976,192.33241551493427L279.8364992332782,193.19300556217138L279.2508900047844,196.403135590214L276.1053154636787,195.82805618986993L275.0101518203132,202.28580522030768L275.49149506582637,204.03292535074388L274.545400303047,204.8201448709326L272.96517179716136,203.3644006011242L271.5347130246499,203.42254963700304L272.15752559861687,200.09980352798016L272.9455088280549,200.24504217109018L274.1352954775748,193.77078055246147L270.13202195015975,193.01828963013463L261.3472915423163,191.33823478716272L261.532331612853,189.0042177698764L259.72121489170013,188.4331117690756L260.60357573976864,185.81471049510435L258.6976822562598,183.33914790203698L259.2638398897745,179.75594277672985L257.16500736044236,179.09445652777185L255.63979223908797,177.59485807181204L256.1759620304946,176.18279147589192L258.44751473464066,175.5917269782401L258.2026032360371,176.78826881123825L259.9473277892305,177.1379975118315L261.65983581660123,179.0411544405041L262.02380754553786,178.16656930046622L265.064176209242,179.0919526701109L264.93240341969005,179.97021056775202L267.2722853070667,182.18474629390857L267.94973775523954,181.5467178491997Z" vector-effect="non-scaling-stroke"><title>Blaine County</title></path><path id="county-16081" class="county feature" d="M308.04814566057416,184.7011241381732L306.6458986320248,193.63758020028854L304.7061108192236,192.595511703615L304.35483459670445,190.98115467734624L302.2817590517324,190.63686725351204L303.2068262312033,185.06743142694393L306.05011605468803,185.35040727081707Z" vector-effect="non-scaling-stroke"><title>Teton County</title></path><path id="county-16065" class="county feature" d="M303.2068262312033,185.06743142694393L302.2817590517324,190.63686725351204L299.2884784731895,190.05402713465332L295.7323275767852,186.8064949453767L294.95242712217856,186.90725788301222L295.58227597802545,183.71462300458325L300.95918456819174,185.45324975260075Z" vector-effect="non-scaling-stroke"><title>Madison County</title></path><path id="county-16027" class="county feature" d="M232.81630961821628,173.74330059672968L235.43717523452256,174.31979213244892L234.74204588592914,177.49023275314994L235.25139672566024,177.60283214379137L234.5570983299122,180.79832086106933L234.03460975820587,180.69419304203552L233.37911848083854,183.7971244628394L230.5848013863294,179.58797842998194L230.25520343684002,177.2836261047546L228.1941810644139,175.1485078366078L228.86402650464743,172.21419380962936L229.5792028414889,171.6224085499548L230.91799605378105,173.6010447826376Z" vector-effect="non-scaling-stroke"><title>Canyon County</title></path><path id="county-16025" class="county feature" d="M261.3472915423163,191.33823478716272L258.42383169602664,190.78701581511552L251.89516533312207,189.47349301427596L253.45086840741143,182.04943653037765L254.18679306143468,181.8247586337402L254.52386232844887,179.5339320713107L255.63979223908797,177.59485807181204L257.16500736044236,179.09445652777185L259.2638398897745,179.75594277672985L258.6976822562598,183.33914790203698L260.60357573976864,185.81471049510435L259.72121489170013,188.4331117690756L261.532331612853,189.0042177698764Z" vector-effect="non-scaling-stroke"><title>Camas County</title></path><path id="county-16001" class="county feature" d="M238.47208706577584,174.9875185514352L241.6367387157257,179.8041620488633L239.72755184155704,188.56660964037792L235.91254046575943,187.7640989502802L234.65202256048093,185.9361762134596L234.45081420170635,183.91808586203217L233.37911848083854,183.7971244628394L234.03460975820587,180.69419304203552L234.5570983299122,180.79832086106933L235.25139672566024,177.60283214379137L234.74204588592914,177.49023275314994L235.43717523452256,174.31979213244892Z" vector-effect="non-scaling-stroke"><title>Ada County</title></path><path id="county-16073" class="county feature" d="M233.37911848083854,183.7971244628394L234.45081420170635,183.91808586203217L234.65202256048093,185.9361762134596L235.91254046575943,187.7640989502802L236.5353062514385,189.1235692256016L239.2389722091719,191.72152128385403L239.86730042807318,190.73836642129402L241.56984790462212,192.06573509920963L246.15601226219542,193.42288313578763L245.37293175465066,196.37861676158923L250.93645413112256,197.51782583158797L248.0374605294827,211.7463417760199L233.1050436771887,208.58241564320917L221.3806201826095,205.9832788685461L221.26264186741594,205.9443229041584L228.1941810644139,175.1485078366078L230.25520343684002,177.2836261047546L230.5848013863294,179.58797842998194Z" vector-effect="non-scaling-stroke"><title>Owyhee County</title></path><path id="county-16019" class="county feature" d="M299.2884784731895,190.05402713465332L302.2817590517324,190.63686725351204L304.35483459670445,190.98115467734624L304.7061108192236,192.595511703615L306.6458986320248,193.63758020028854L306.10696536178136,197.075164858947L305.24166918470894,202.5577038120423L297.9200353480262,201.36845716639198L298.745810074914,196.52813817876722L295.6157030216824,195.99488818860243L295.87665872750586,194.441940947504L292.9427715714121,193.93521132646117L292.3199187429971,192.71627120253038L286.7776660628234,191.7555870635622L287.43602177290495,188.0342785862656Z" vector-effect="non-scaling-stroke"><title>Bonneville County</title></path><path id="county-16011" class="county feature" d="M297.9200353480262,201.36845716639198L291.58799621908145,200.2601874419389L283.654683065376,198.8891424087144L282.1554990967596,199.96915045485628L280.98058021592533,201.44019606926543L278.427039433742,200.98504404498476L279.2508900047844,196.403135590214L279.8364992332782,193.19300556217138L280.6354260285481,193.33111184800964L281.3299719862395,190.32396054989556L282.91631825265625,190.61479570941276L283.21251898191474,189.01328519482377L284.7746245050926,189.20767525380552L285.0650881539341,187.6821738525955L287.43602177290495,188.0342785862656L286.7776660628234,191.7555870635622L292.3199187429971,192.71627120253038L292.9427715714121,193.93521132646117L295.87665872750586,194.441940947504L295.6157030216824,195.99488818860243L298.745810074914,196.52813817876722Z" vector-effect="non-scaling-stroke"><title>Bingham County</title></path><path id="county-16063" class="county feature" d="M270.13202195015975,193.01828963013463L268.922687778521,199.48379359290527L267.9474376302154,200.933405891579L265.6962053477142,200.49119416223118L264.28430906421954,199.38844479278646L260.3316639936906,198.61194235200549L260.21815918490336,197.79191058572053L257.1598882855444,197.18963743803135L258.42383169602664,190.78701581511552L261.3472915423163,191.33823478716272Z" vector-effect="non-scaling-stroke"><title>Lincoln County</title></path><path id="county-16047" class="county feature" d="M258.42383169602664,190.78701581511552L257.1598882855444,197.18963743803135L256.1264103917887,200.8416752636016L253.48071642474707,199.90516104741153L252.316172996033,197.3575927699044L253.10119985532822,196.2344228629854L251.52612665052737,194.88339828451842L250.823059578288,194.6910582602626L251.89516533312207,189.47349301427596Z" vector-effect="non-scaling-stroke"><title>Gooding County</title></path><path id="county-16067" class="county feature" d="M271.5347130246499,203.42254963700304L270.3394915422914,203.44512457807275L268.5988391378461,205.43884214578668L264.9007633347982,204.7351653264053L265.6962053477142,200.49119416223118L267.9474376302154,200.933405891579L268.922687778521,199.48379359290527L270.13202195015975,193.01828963013463L274.1352954775748,193.77078055246147L272.9455088280549,200.24504217109018L272.15752559861687,200.09980352798016Z" vector-effect="non-scaling-stroke"><title>Minidoka County</title></path><path id="county-16077" class="county feature" d="M279.2508900047844,196.403135590214L278.427039433742,200.98504404498476L280.98058021592533,201.44019606926543L282.1554990967596,199.96915045485628L282.06513833735545,200.67138581928202L284.48378301235954,199.96880436466552L285.15334191522845,201.28811576572969L284.84356189496634,204.60931456225137L286.13530901539366,206.49167371967053L285.1316549881589,209.050518454933L284.07792302303505,208.86208387090107L283.79991333167004,210.47591624609083L281.69370263960445,210.10479652090248L281.408345679776,211.7165314116031L276.7227546731402,210.90480430193998L277.5652341168523,206.08006693581285L274.545400303047,204.8201448709326L275.49149506582637,204.03292535074388L275.0101518203132,202.28580522030768L276.1053154636787,195.82805618986993Z" vector-effect="non-scaling-stroke"><title>Power County</title></path><path id="county-16005" class="county feature" d="M291.58799621908145,200.2601874419389L290.0297333163185,202.36797615083583L290.0997824675287,206.21604600765875L291.88055376035817,206.11189403015885L292.2699001392101,208.0961625825131L292.2030222222427,211.9129111395082L291.41232158317695,214.82407059400805L288.39896468415947,213.76552848265237L287.7400370735469,212.39521849670882L285.80235928003725,212.56668005586812L286.62990191966867,210.24041106726236L285.1316549881589,209.050518454933L286.13530901539366,206.49167371967053L284.84356189496634,204.60931456225137L285.15334191522845,201.28811576572969L284.48378301235954,199.96880436466552L282.06513833735545,200.67138581928202L282.1554990967596,199.96915045485628L283.654683065376,198.8891424087144Z" vector-effect="non-scaling-stroke"><title>Bannock County</title></path><path id="county-16029" class="county feature" d="M297.9200353480262,201.36845716639198L305.24166918470894,202.5577038120423L303.70181057893126,211.95553979865736L301.058656525972,212.18527820837835L301.5088273890344,210.47664289588693L296.4191208080405,209.29514802150993L295.9447704351834,212.54947378919837L292.2030222222427,211.9129111395082L292.2699001392101,208.0961625825131L291.88055376035817,206.11189403015885L290.0997824675287,206.21604600765875L290.0297333163185,202.36797615083583L291.58799621908145,200.2601874419389Z" vector-effect="non-scaling-stroke"><title>Caribou County</title></path><path id="county-16083" class="county feature" d="M256.1264103917887,200.8416752636016L259.17715350578544,202.42239439441698L262.0969892075171,204.96568195873385L263.9440476642024,204.7206835455097L263.00990590320214,204.76947937714874L262.6302388947352,206.5604158893633L259.73517224048214,205.9947088384655L258.25747411672734,213.81312146165897L248.0374605294827,211.7463417760199L250.93645413112256,197.51782583158797L251.52612665052737,194.88339828451842L253.10119985532822,196.2344228629854L252.316172996033,197.3575927699044L253.48071642474707,199.90516104741153Z" vector-effect="non-scaling-stroke"><title>Twin Falls County</title></path><path id="county-16053" class="county feature" d="M265.6962053477142,200.49119416223118L264.9007633347982,204.7351653264053L263.9440476642024,204.7206835455097L262.0969892075171,204.96568195873385L259.17715350578544,202.42239439441698L256.1264103917887,200.8416752636016L257.1598882855444,197.18963743803135L260.21815918490336,197.79191058572053L260.3316639936906,198.61194235200549L264.28430906421954,199.38844479278646Z" vector-effect="non-scaling-stroke"><title>Jerome County</title></path><path id="county-16031" class="county feature" d="M274.545400303047,204.8201448709326L277.5652341168523,206.08006693581285L276.7227546731402,210.90480430193998L275.62126287079593,216.99664084530673L261.5143753321245,214.45244088140475L258.25747411672734,213.81312146165897L259.73517224048214,205.9947088384655L262.6302388947352,206.5604158893633L263.00990590320214,204.76947937714874L263.9440476642024,204.7206835455097L264.9007633347982,204.7351653264053L268.5988391378461,205.43884214578668L270.3394915422914,203.44512457807275L271.5347130246499,203.42254963700304L272.96517179716136,203.3644006011242Z" vector-effect="non-scaling-stroke"><title>Cassia County</title></path><path id="county-16007" class="county feature" d="M303.70181057893126,211.95553979865736L302.1854206343752,221.45368051541288L295.9053458597972,220.47636550018115L295.0047468119791,218.52766504369333L294.9346088439089,216.32499715230733L296.00882875284304,215.20788935640542L295.9447704351834,212.54947378919837L296.4191208080405,209.29514802150993L301.5088273890344,210.47664289588693L301.058656525972,212.18527820837835Z" vector-effect="non-scaling-stroke"><title>Bear Lake County</title></path><path id="county-16071" class="county feature" d="M285.1316549881589,209.050518454933L286.62990191966867,210.24041106726236L285.80235928003725,212.56668005586812L287.7400370735469,212.39521849670882L288.39896468415947,213.76552848265237L287.7145145618954,219.13708142644577L286.95905635804127,219.0065343660998L275.62126287079593,216.99664084530673L276.7227546731402,210.90480430193998L281.408345679776,211.7165314116031L281.69370263960445,210.10479652090248L283.79991333167004,210.47591624609083L284.07792302303505,208.86208387090107Z" vector-effect="non-scaling-stroke"><title>Oneida County</title></path><path id="county-16041" class="county feature" d="M295.9447704351834,212.54947378919837L296.00882875284304,215.20788935640542L294.9346088439089,216.32499715230733L295.0047468119791,218.52766504369333L295.9053458597972,220.47636550018115L287.7145145618954,219.13708142644577L288.39896468415947,213.76552848265237L291.41232158317695,214.82407059400805L292.2030222222427,211.9129111395082Z" vector-effect="non-scaling-stroke"><title>Franklin County</title></path></g><path id="counties-mesh" class="counties mesh" d="M261.77949842516074,81.09809632166412L259.85094763996926,90.10441442315994L250.84854165874708,88.16762707685109L252.23378749918277,81.91426401287663L249.22916419201323,81.25862084676214L249.84760443353855,78.50984305552834L261.77949842516074,81.09809632166412M259.85094763996926,90.10441442315994L258.73117693113113,95.29068111131232L257.8145383960841,99.57121847887674L255.9378443686274,97.48249244850967L254.50980553966943,98.11855416523497L254.09268904555813,100.4441742819862L251.8391605789771,99.9555936309007L252.2586116112504,98.12628844125152L245.57787706626692,96.91036728159236L245.8643570144573,95.67883911946831L249.22916419201323,81.25862084676214M257.8145383960841,99.57121847887674L259.7106441366486,104.26741202566575L260.74289861654756,105.57850582073229L260.79248764362916,107.48546203837645L259.8132352586304,108.09291291606712L261.1133535483707,109.72684924015698L259.7597031500036,110.4693549736428L261.58075227248935,112.28549675709303L261.66184144967013,113.2621302885168L263.87932910544896,114.41474469284105L265.74096178145123,117.84982349562358L266.429617263246,120.49446229094349L267.4284684951823,121.39691923913563L250.2422833527757,117.76359222408462L250.58928913515723,116.16619178819201L252.1322483256924,109.06336005262267L254.09268904555813,100.4441742819862M250.58928913515723,116.16619178819201L244.31244315551038,114.59297698522028L242.150308596936,112.30432265597062L242.68460344524163,109.9095495597071L243.1197704131015,107.97608146996026L245.57787706626692,96.91036728159236M252.1322483256924,109.06336005262267L248.95268371339967,108.35081802398213L248.2418502099119,109.01001920464523L243.1197704131015,107.97608146996026M240.0676041385243,136.093940417647L239.08988445400314,133.20793071669493L238.96102207931324,131.2033322379084L239.7154291773,130.02811393668298L238.74847416345642,126.44733270437666L239.28120986792788,125.03099342973951L239.75922708815926,122.928201855628L242.150308596936,112.30432265597062M250.2422833527757,117.76359222408462L249.03130469922746,123.3381904793606L247.4476960244553,122.96954471581819L245.36736874082396,122.51590810598373L243.78456152294547,123.80963911050287L239.75922708815926,122.928201855628M270.9141237354761,127.76463481848043L257.2458615655688,128.02864016566468L254.10509563102605,131.3100949332911L250.03074763673266,128.43551729373632L247.89311126204456,126.15669765419239L247.0131694880443,125.39046757943083L247.4476960244553,122.96954471581819M267.4284684951823,121.39691923913563L267.29264305822477,122.7655582272755L270.28691395008553,125.6875098232374L270.9141237354761,127.76463481848043L274.32676550058466,127.92767884597777L273.69592836814843,130.48174077325427L271.62648928707813,134.7037544084368L270.6785026161931,137.91088262946175L269.8430409358724,138.99468681278654L270.86759772404935,140.21200153517373L270.43741607596945,142.52603915166253L269.2936135774796,142.33582636140352L268.1555776417961,143.56071034158458L268.64501329117576,145.65002996841338L267.40940015127353,147.52498249631117L265.79486179173125,148.85621337463908L264.3599997926301,147.7872156982238L264.0178231464138,149.16025664522215L265.9375054390807,152.22070305199304L264.4165724767609,153.80049193121556L247.90534839357412,150.42088372656747L245.3943337157441,151.56792175740327L243.68296275495516,150.76275635117725L243.4770005108852,148.085045841529L239.07362893688742,147.12363308474698L241.70078901011186,143.14158334465344L243.31296627836167,141.42091252914383L242.78261180461055,138.67603183461154L240.0676041385243,136.093940417647L241.80953902611304,133.80284300387416L243.8547817142092,134.20755954867195L244.71869628143185,131.90044668922064L246.10519992968773,130.80792032567547L248.9336359526746,132.33448686656845L249.88486772039124,131.38520991505288L251.45429480619038,131.51387738212463L250.03074763673266,128.43551729373632M247.89311126204456,126.15669765419239L247.40674579693194,128.41291858678346L242.99586020690896,127.77742118805406L241.80953902611304,133.80284300387416M245.3943337157441,151.56792175740327L245.9320498992377,152.53087549244992L243.25245794866134,157.34518044549748L243.64094296141332,158.9249711367479L242.8358301364513,162.663940994271L240.76298548581633,163.26653126701603L237.99813932349565,161.77087367147988L238.47777279202677,159.49597932186884L237.4296482931113,158.34620978474072L238.1337301493976,155.1307753251267L234.6022768191558,154.31180404784482L235.84816155062703,152.79960483052332L236.0064604365994,151.15325075851354L237.06593304506322,150.29020745611035L239.07362893688742,147.12363308474698M285.99496038987945,173.50639731787146L285.5328484832894,176.19974237550014L283.1602312683056,175.70573897322538L278.88987884620906,174.94471339829352L278.9177785988028,173.3158866708568L277.7492491357193,170.49687917327162L277.1388620903809,171.01147148814277L273.40351421700365,169.05582490263453L271.0824877563317,165.13360222543656L270.7236786070027,163.45038828062525L268.98519503416253,163.30673690598405L269.64019123130845,161.2011490346929L268.75736945798315,161.26820079330525L266.4156239014037,163.29904560645036L266.4927968757356,164.24017575397988L263.8601583872483,165.5376014661008L261.1419143479227,161.72404597967068L261.46485434384346,160.6213210666591L262.7325300041524,159.53361181093726L263.7776559112792,154.5176597239191L264.4165724767609,153.80049193121556M261.46485434384346,160.6213210666591L259.29766673230046,161.85502570221183L257.78078954358466,160.58536143712263L256.24507819064615,162.64285729551193L254.67650541113085,162.99442456507722L254.62537939982354,166.5843010896417L253.44708226526274,167.95142803157808L251.75340369015322,169.1058228432338L250.10474155261522,169.25262655874428L242.51279188853306,167.62100511832364L242.02293844733094,169.21726542214094L240.7435607645359,168.8737457038427L241.4274804632637,165.70655244443367L242.1944082724957,165.86985491741518L242.8358301364513,162.663940994271M240.76298548581633,163.26653126701603L239.65601161770616,165.37005735025048L238.83093006098164,168.46537121047675L237.61474735480851,168.19295214213844L231.81579328068352,166.8885038573834L231.17154004208902,165.00859304864036L228.2388901567465,163.2233811063012L228.95496606883341,159.87569152074047L230.2324426107678,158.98457178120157L232.43614614381647,155.5954122192311L234.6022768191558,154.31180404784482M278.88987884620906,174.94471339829352L277.6288839017078,174.70756979316786L277.03934100193044,177.91481602104977L276.49207371549574,177.81224089167154L275.905808114637,181.23131229655723L276.7999403441361,182.4048676814349L273.7153585861216,184.22465006853463L271.2047361407495,185.03615498824536L270.3124839671635,186.00870792177932L267.94973775523954,181.5467178491997L267.2722853070667,182.18474629390857L264.93240341969005,179.97021056775202L265.064176209242,179.0919526701109L262.02380754553786,178.16656930046622L261.65983581660123,179.0411544405041L259.9473277892305,177.1379975118315L258.2026032360371,176.78826881123825L258.44751473464066,175.5917269782401L256.1759620304946,176.18279147589192L255.9599204931966,175.91715757990164L255.62682621645763,173.81351672155392L256.2838568501749,172.04780292636872L254.59645816363377,170.80133255237797L254.79313829892487,169.05136586622268L253.44708226526274,167.95142803157808M267.40940015127353,147.52498249631117L268.62889767006095,147.62456394237404L269.8616655743002,149.8566053963142L270.82866246261045,149.6374293826541L275.93813471450665,146.5578279292647L276.1111625521087,148.00155807535555L277.2968606453163,148.5954683656489L277.0191614644816,152.23257132898755L277.5946468220386,155.09974668812583L278.85470273876206,158.18806700169978L280.00278797348017,159.4336406741454L279.2867093056137,162.97783949256973L280.51457565776315,164.74014314941212L281.8658606203459,164.26940639162524L283.1813009705802,165.44268319643027L283.97774677646237,170.29858868418296L283.77462955842327,171.68960979633755L285.99496038987945,173.50639731787146L286.8085683684837,171.5847118071781L290.82284738555717,172.38717273503391L291.83592822558643,173.15930310115812L293.5288799313691,171.18523623256556L295.8944884109258,172.44418119987438L299.01599190955295,172.1948344733238L299.45160339657684,173.3113121394955L302.2450666411056,172.99154824117875L303.6391174480605,173.50012310961984L304.6255386512008,170.37642738457464L305.99670477934353,169.79631799185347L307.68258599351185,172.52844891749317L307.4568148016436,173.35869766512656L309.46898684560904,175.62012859285926L308.04814566057416,184.7011241381732L306.05011605468803,185.35040727081707L303.2068262312033,185.06743142694393L300.95918456819174,185.45324975260075L295.58227597802545,183.71462300458325L295.71383068499586,182.91072042759413L293.3510788177186,182.4992685336133L293.629687112285,180.90454570526208L295.2278880736252,181.18395226648568L295.50895533249866,179.59096459686987L297.96225598601626,179.1684441654893L298.4394593619661,176.7957456375931L299.49579820518,175.38290603455346L301.7786015938517,175.74626266751022L302.2450666411056,172.99154824117875M293.629687112285,180.90454570526208L286.53457845989146,179.6516627075082L286.2464077353269,181.2477521797149L282.3024868609698,180.53211732992077L283.1602312683056,175.70573897322538M240.7435607645359,168.8737457038427L239.9511342408581,168.7054546427421L238.47208706577584,174.9875185514352L235.43717523452256,174.31979213244892L232.81630961821628,173.74330059672968L233.52177684138542,170.55775512255263L235.3578091994396,170.97943222812478L236.23686678867136,169.5295323694521L237.26103731478742,169.76621408305527L237.61474735480851,168.19295214213844M250.93645413112256,197.51782583158797L248.0374605294827,211.7463417760199L233.1050436771887,208.58241564320917L221.3806201826095,205.9832788685461L221.26264186741594,205.9443229041584L228.1941810644139,175.1485078366078L228.86402650464743,172.21419380962936L229.5792028414889,171.6224085499548L230.65385487569802,169.79637580075917L230.54418128371174,167.84873454242222L231.81579328068352,166.8885038573834M255.9599204931966,175.91715757990164L254.16368859235428,174.8851082923943L254.07871042121891,172.9503992446946L251.73812937037565,175.44228093554716L249.12503385522143,175.63040959653586L246.41678326648008,178.7216276630678L243.60543728668597,179.95578709194933L241.6367387157257,179.8041620488633L238.47208706577584,174.9875185514352M286.2464077353269,181.2477521797149L285.0650881539341,187.6821738525955L284.7746245050926,189.20767525380552L283.21251898191474,189.01328519482377L282.91631825265625,190.61479570941276L281.3299719862395,190.32396054989556L280.6354260285481,193.33111184800964L279.8364992332782,193.19300556217138L275.11776869036976,192.33241551493427L275.39926279523434,190.80868780698063L271.76314586149164,190.12537883104824L272.53078603571873,187.92502312877627L271.6553200812016,185.95787872371784L270.3124839671635,186.00870792177932M232.81630961821628,173.74330059672968L230.91799605378105,173.6010447826376L229.5792028414889,171.6224085499548M256.1759620304946,176.18279147589192L255.63979223908797,177.59485807181204L254.52386232844887,179.5339320713107L254.18679306143468,181.8247586337402L253.45086840741143,182.04943653037765L251.89516533312207,189.47349301427596L250.823059578288,194.6910582602626L251.52612665052737,194.88339828451842L250.93645413112256,197.51782583158797L245.37293175465066,196.37861676158923L246.15601226219542,193.42288313578763L241.56984790462212,192.06573509920963L239.86730042807318,190.73836642129402L239.2389722091719,191.72152128385403L236.5353062514385,189.1235692256016L235.91254046575943,187.7640989502802L239.72755184155704,188.56660964037792L241.6367387157257,179.8041620488633M295.58227597802545,183.71462300458325L294.95242712217856,186.90725788301222L295.7323275767852,186.8064949453767L299.2884784731895,190.05402713465332L287.43602177290495,188.0342785862656L285.0650881539341,187.6821738525955M279.8364992332782,193.19300556217138L279.2508900047844,196.403135590214L276.1053154636787,195.82805618986993L275.0101518203132,202.28580522030768L275.49149506582637,204.03292535074388L274.545400303047,204.8201448709326L272.96517179716136,203.3644006011242L271.5347130246499,203.42254963700304L272.15752559861687,200.09980352798016L272.9455088280549,200.24504217109018L274.1352954775748,193.77078055246147L270.13202195015975,193.01828963013463L261.3472915423163,191.33823478716272L261.532331612853,189.0042177698764L259.72121489170013,188.4331117690756L260.60357573976864,185.81471049510435L258.6976822562598,183.33914790203698L259.2638398897745,179.75594277672985L257.16500736044236,179.09445652777185L255.63979223908797,177.59485807181204M306.6458986320248,193.63758020028854L304.7061108192236,192.595511703615L304.35483459670445,190.98115467734624L302.2817590517324,190.63686725351204L303.2068262312033,185.06743142694393M302.2817590517324,190.63686725351204L299.2884784731895,190.05402713465332M235.43717523452256,174.31979213244892L234.74204588592914,177.49023275314994L235.25139672566024,177.60283214379137L234.5570983299122,180.79832086106933L234.03460975820587,180.69419304203552L233.37911848083854,183.7971244628394L230.5848013863294,179.58797842998194L230.25520343684002,177.2836261047546L228.1941810644139,175.1485078366078M261.3472915423163,191.33823478716272L258.42383169602664,190.78701581511552L251.89516533312207,189.47349301427596M235.91254046575943,187.7640989502802L234.65202256048093,185.9361762134596L234.45081420170635,183.91808586203217L233.37911848083854,183.7971244628394M308.04814566057416,184.7011241381732L306.6458986320248,193.63758020028854L306.10696536178136,197.075164858947L305.24166918470894,202.5577038120423L297.9200353480262,201.36845716639198L298.745810074914,196.52813817876722L295.6157030216824,195.99488818860243L295.87665872750586,194.441940947504L292.9427715714121,193.93521132646117L292.3199187429971,192.71627120253038L286.7776660628234,191.7555870635622L287.43602177290495,188.0342785862656M297.9200353480262,201.36845716639198L291.58799621908145,200.2601874419389L283.654683065376,198.8891424087144L282.1554990967596,199.96915045485628L280.98058021592533,201.44019606926543L278.427039433742,200.98504404498476L279.2508900047844,196.403135590214M270.13202195015975,193.01828963013463L268.922687778521,199.48379359290527L267.9474376302154,200.933405891579L265.6962053477142,200.49119416223118L264.28430906421954,199.38844479278646L260.3316639936906,198.61194235200549L260.21815918490336,197.79191058572053L257.1598882855444,197.18963743803135L258.42383169602664,190.78701581511552M257.1598882855444,197.18963743803135L256.1264103917887,200.8416752636016L253.48071642474707,199.90516104741153L252.316172996033,197.3575927699044L253.10119985532822,196.2344228629854L251.52612665052737,194.88339828451842M271.5347130246499,203.42254963700304L270.3394915422914,203.44512457807275L268.5988391378461,205.43884214578668L264.9007633347982,204.7351653264053L265.6962053477142,200.49119416223118M282.1554990967596,199.96915045485628L282.06513833735545,200.67138581928202L284.48378301235954,199.96880436466552L285.15334191522845,201.28811576572969L284.84356189496634,204.60931456225137L286.13530901539366,206.49167371967053L285.1316549881589,209.050518454933L284.07792302303505,208.86208387090107L283.79991333167004,210.47591624609083L281.69370263960445,210.10479652090248L281.408345679776,211.7165314116031L276.7227546731402,210.90480430193998L277.5652341168523,206.08006693581285L274.545400303047,204.8201448709326M291.58799621908145,200.2601874419389L290.0297333163185,202.36797615083583L290.0997824675287,206.21604600765875L291.88055376035817,206.11189403015885L292.2699001392101,208.0961625825131L292.2030222222427,211.9129111395082L291.41232158317695,214.82407059400805L288.39896468415947,213.76552848265237L287.7400370735469,212.39521849670882L285.80235928003725,212.56668005586812L286.62990191966867,210.24041106726236L285.1316549881589,209.050518454933M303.70181057893126,211.95553979865736L301.058656525972,212.18527820837835L301.5088273890344,210.47664289588693L296.4191208080405,209.29514802150993L295.9447704351834,212.54947378919837L292.2030222222427,211.9129111395082M256.1264103917887,200.8416752636016L259.17715350578544,202.42239439441698L262.0969892075171,204.96568195873385L263.9440476642024,204.7206835455097L263.00990590320214,204.76947937714874L262.6302388947352,206.5604158893633L259.73517224048214,205.9947088384655L258.25747411672734,213.81312146165897L248.0374605294827,211.7463417760199M264.9007633347982,204.7351653264053L263.9440476642024,204.7206835455097M276.7227546731402,210.90480430193998L275.62126287079593,216.99664084530673L261.5143753321245,214.45244088140475L258.25747411672734,213.81312146165897M305.24166918470894,202.5577038120423L303.70181057893126,211.95553979865736L302.1854206343752,221.45368051541288L295.9053458597972,220.47636550018115L295.0047468119791,218.52766504369333L294.9346088439089,216.32499715230733L296.00882875284304,215.20788935640542L295.9447704351834,212.54947378919837M288.39896468415947,213.76552848265237L287.7145145618954,219.13708142644577L286.95905635804127,219.0065343660998L275.62126287079593,216.99664084530673M295.9053458597972,220.47636550018115L287.7145145618954,219.13708142644577" vector-effect="non-scaling-stroke"></path></svg>