<?xml version="1.0" standalone="yes"?>
<svg xmlns="http://www.w3.org/2000/svg" version="1.2" baseProfile="tiny" id="root" viewBox="556.4992413717321 208.09399462492428 90.35105007598223 136.3643615370869"><style>
@import url("../../css/svg.css");</style><rect id="bbox" class="bbox" x="556.4992413717321" y="208.09399462492428" width="90.35105007598223" height="136.3643615370869"></rect><g id="counties"><path id="county-17085" class="county feature" d="M584.8596835342205,226.09276389766887L591.6929538006292,225.69882751865123L592.1529915258967,231.49760589775383L586.6966685657057,231.88323334794302L585.62569049015,231.3175913253856L584.3498414403706,228.4871327887995L581.7820857480558,226.80772325913347L581.9319647671488,226.23807654546385Z" vector-effect="non-scaling-stroke"><title>Jo Daviess County</title></path><path id="county-17177" class="county feature" d="M595.3140715207517,231.23861811277868L592.1529915258967,231.49760589775383L591.6929538006292,225.69882751865123L592.8983959256285,225.62213743323696L598.8624607612289,225.3203222601785L599.3202505344841,230.90831292145708Z" vector-effect="non-scaling-stroke"><title>Stephenson County</title></path><path id="county-17201" class="county feature" d="M605.163595678073,224.96800209085131L605.6466332316747,231.39251494411064L602.4501615211451,231.6659503999058L602.3870771992741,230.65176788469137L599.3202505344841,230.90831292145708L598.8624607612289,225.3203222601785L599.3427307783395,225.28987172531413Z" vector-effect="non-scaling-stroke"><title>Winnebago County</title></path><path id="county-17111" class="county feature" d="M615.3027493534171,224.17259016126525L615.7888527180334,230.56153673399467L615.2576549555629,230.60512133890427L610.4574305102908,231.00226126639632L608.8583283033703,231.1262198328027L608.3438118907263,224.7557713519907L613.8351297072173,224.30163320905478Z" vector-effect="non-scaling-stroke"><title>McHenry County</title></path><path id="county-17007" class="county feature" d="M607.4009091915134,224.85626768660518L608.3438118907263,224.7557713519907L608.8583283033703,231.1262198328027L605.6466332316747,231.39251494411064L605.163595678073,224.96800209085131Z" vector-effect="non-scaling-stroke"><title>Boone County</title></path><path id="county-17097" class="county feature" d="M621.820721511758,230.0868033419472L615.7888527180334,230.56153673399467L615.3027493534171,224.17259016126525L620.6503891593071,223.76805916941703L620.5551973226579,227.35581475166668Z" vector-effect="non-scaling-stroke"><title>Lake County</title></path><path id="county-17141" class="county feature" d="M605.6466332316747,231.39251494411064L605.9905804265023,236.2812006776668L600.2245808040648,236.76733570621195L596.500573461828,236.76434675439725L595.6787908618215,236.27546861635915L595.3140715207517,231.23861811277868L599.3202505344841,230.90831292145708L602.3870771992741,230.65176788469137L602.4501615211451,231.6659503999058Z" vector-effect="non-scaling-stroke"><title>Ogle County</title></path><path id="county-17015" class="county feature" d="M595.3140715207517,231.23861811277868L595.6787908618215,236.27546861635915L589.2774683302607,236.71695349343247L589.133516018747,234.78235025279412L588.9124398941098,233.20090008988313L586.6966685657057,231.88323334794302L592.1529915258967,231.49760589775383Z" vector-effect="non-scaling-stroke"><title>Carroll County</title></path><path id="county-17031" class="county feature" d="M615.7888527180334,230.56153673399467L621.820721511758,230.0868033419472L623.0202721688811,231.4492575022523L624.4030546018367,235.69577994646272L625.7959540994761,238.1377080131566L626.1749020243237,242.65542029076437L622.5052851191074,242.91236181574766L622.3168488611733,241.25545900382565L620.723039587961,241.42794765946076L620.5488845682255,239.7963171591416L618.8634593786356,239.15293184785446L620.392811143044,238.4341417125935L619.8658362544743,233.24407046231977L615.1801341778925,233.78184798842778L615.2576549555629,230.60512133890427Z" vector-effect="non-scaling-stroke"><title>Cook County</title></path><path id="county-17037" class="county feature" d="M610.4574305102908,231.00226126639632L610.9152156062327,239.15613347535566L611.0391537424473,240.8090612705878L606.3880654375496,241.22130511389673L605.9905804265023,236.2812006776668L605.6466332316747,231.39251494411064L608.8583283033703,231.1262198328027Z" vector-effect="non-scaling-stroke"><title>DeKalb County</title></path><path id="county-17089" class="county feature" d="M615.2576549555629,230.60512133890427L615.1801341778925,233.78184798842778L615.5952195270296,238.68636423934947L610.9152156062327,239.15613347535566L610.4574305102908,231.00226126639632Z" vector-effect="non-scaling-stroke"><title>Kane County</title></path><path id="county-17043" class="county feature" d="M618.8634593786356,239.15293184785446L618.7752634660472,238.34084591261126L615.6003330177664,238.68797499254856L615.5952195270296,238.68636423934947L615.1801341778925,233.78184798842778L619.8658362544743,233.24407046231977L620.392811143044,238.4341417125935Z" vector-effect="non-scaling-stroke"><title>DuPage County</title></path><path id="county-17195" class="county feature" d="M595.6787908618215,236.27546861635915L596.500573461828,236.76434675439725L596.8749640872009,242.71326832757723L593.678737120544,242.94006016713809L589.2040245441274,243.2116405104083L588.198347779107,239.53350785196017L589.2774683302607,236.71695349343247Z" vector-effect="non-scaling-stroke"><title>Whiteside County</title></path><path id="county-17103" class="county feature" d="M605.9905804265023,236.2812006776668L606.3880654375496,241.22130511389673L603.2385228955915,241.4448271858024L603.3025868258414,242.26512948781635L596.8749640872009,242.71326832757723L596.500573461828,236.76434675439725L600.2245808040648,236.76733570621195Z" vector-effect="non-scaling-stroke"><title>Lee County</title></path><path id="county-17161" class="county feature" d="M589.2040245441274,243.2116405104083L589.1158648102526,244.05254384286184L585.9427309594269,245.81639233832823L586.0608860298412,248.2573630811827L577.1892103579066,248.6271465259814L577.1890007421151,248.6231075054642L577.549423178835,247.00368175945323L581.0349158409961,246.1689867386914L582.8318553207874,245.8949216157231L587.0251175688162,243.28252547717068L587.2440492722833,240.61256914892647L588.198347779107,239.53350785196017Z" vector-effect="non-scaling-stroke"><title>Rock Island County</title></path><path id="county-17197" class="county feature" d="M618.8634593786356,239.15293184785446L620.5488845682255,239.7963171591416L620.723039587961,241.42794765946076L622.3168488611733,241.25545900382565L622.5052851191074,242.91236181574766L626.1749020243237,242.65542029076437L626.4421246970712,245.8128238549648L619.6974958067307,246.50994181891554L619.8643818155639,248.13375383292157L616.6404292247053,248.48155573057034L616.125049395421,243.5861753751284L615.6003330177664,238.68797499254856L618.7752634660472,238.34084591261126Z" vector-effect="non-scaling-stroke"><title>Will County</title></path><path id="county-17093" class="county feature" d="M615.6003330177664,238.68797499254856L616.125049395421,243.5861753751284L611.3837504014859,244.07342455405626L611.0391537424473,240.8090612705878L610.9152156062327,239.15613347535566L615.5952195270296,238.68636423934947Z" vector-effect="non-scaling-stroke"><title>Kendall County</title></path><path id="county-17099" class="county feature" d="M611.0391537424473,240.8090612705878L611.3837504014859,244.07342455405626L612.0251181935987,250.6159472174494L607.2329966976135,251.02132630993765L607.4720606782381,254.3647599771963L605.8568180344977,254.51860331239936L605.6108049854778,251.1614854627054L604.0178891758169,251.29043377385005L603.7140578205593,247.42208866912506L603.3025868258414,242.26512948781635L603.2385228955915,241.4448271858024L606.3880654375496,241.22130511389673Z" vector-effect="non-scaling-stroke"><title>La Salle County</title></path><path id="county-17011" class="county feature" d="M603.3025868258414,242.26512948781635L603.7140578205593,247.42208866912506L601.3348263019038,247.76773111305147L601.1395441540277,249.0556089893305L599.6123119941966,249.1504978525221L599.7226195819757,250.75260283560817L597.3299593644061,250.9141536338377L597.2176284375419,249.31319522741626L594.1732475312991,249.50259229934068L593.678737120544,242.94006016713809L596.8749640872009,242.71326832757723Z" vector-effect="non-scaling-stroke"><title>Bureau County</title></path><path id="county-17073" class="county feature" d="M593.678737120544,242.94006016713809L594.1732475312991,249.50259229934068L594.1223436469879,251.11918764531276L592.508108529648,251.21538402421288L586.1945792117242,251.56391192901663L586.0608860298412,248.2573630811827L585.9427309594269,245.81639233832823L589.1158648102526,244.05254384286184L589.2040245441274,243.2116405104083Z" vector-effect="non-scaling-stroke"><title>Henry County</title></path><path id="county-17063" class="county feature" d="M616.6404292247053,248.48155573057034L616.6697918542194,250.13105429734242L612.0251181935987,250.6159472174494L611.3837504014859,244.07342455405626L616.125049395421,243.5861753751284Z" vector-effect="non-scaling-stroke"><title>Grundy County</title></path><path id="county-17131" class="county feature" d="M586.0608860298412,248.2573630811827L586.1945792117242,251.56391192901663L586.2706844271277,253.2057303401998L581.4414562643977,253.38960923857223L579.1573605097602,253.4776283475312L579.1552653097549,253.4382395486174L578.5023839401476,251.908096322069L576.7061649162121,250.41388763318196L577.1892103579066,248.6271465259814Z" vector-effect="non-scaling-stroke"><title>Mercer County</title></path><path id="county-17155" class="county feature" d="M603.7140578205593,247.42208866912506L604.0178891758169,251.29043377385005L601.2799913538573,251.49200387032522L599.7226195819757,250.75260283560817L599.6123119941966,249.1504978525221L601.1395441540277,249.0556089893305L601.3348263019038,247.76773111305147Z" vector-effect="non-scaling-stroke"><title>Putnam County</title></path><path id="county-17091" class="county feature" d="M626.4421246970712,245.8128238549648L626.6636046462647,248.2905612100974L626.9346412204345,251.21001327092813L618.5179548390266,252.17295383270994L616.9175627295432,252.36261670455906L616.6697918542194,250.13105429734242L616.6404292247053,248.48155573057034L619.8643818155639,248.13375383292157L619.6974958067307,246.50994181891554Z" vector-effect="non-scaling-stroke"><title>Kankakee County</title></path><path id="county-17175" class="county feature" d="M594.1732475312991,249.50259229934068L597.2176284375419,249.31319522741626L597.3299593644061,250.9141536338377L597.5452111760303,254.2002576972361L592.7060547493492,254.49751840495333L592.508108529648,251.21538402421288L594.1223436469879,251.11918764531276Z" vector-effect="non-scaling-stroke"><title>Stark County</title></path><path id="county-17095" class="county feature" d="M592.508108529648,251.21538402421288L592.7060547493492,254.49751840495333L593.0085829517086,259.4310516219264L586.5849862920273,259.7778992781765L586.2706844271277,253.2057303401998L586.1945792117242,251.56391192901663Z" vector-effect="non-scaling-stroke"><title>Knox County</title></path><path id="county-17123" class="county feature" d="M599.7226195819757,250.75260283560817L601.2799913538573,251.49200387032522L604.0178891758169,251.29043377385005L605.6108049854778,251.1614854627054L605.8568180344977,254.51860331239936L599.9364625552272,255.0283996794849L600.2097458352522,254.0280880304258L597.5452111760303,254.2002576972361L597.3299593644061,250.9141536338377Z" vector-effect="non-scaling-stroke"><title>Marshall County</title></path><path id="county-17105" class="county feature" d="M616.6697918542194,250.13105429734242L616.9175627295432,252.36261670455906L617.6664195189519,259.4177747415397L614.5252034449018,259.686480266681L612.9122719193412,259.8299750627144L612.5693145160819,257.1907680647179L607.7463970865327,257.64020390993767L607.4720606782381,254.3647599771963L607.2329966976135,251.02132630993765L612.0251181935987,250.6159472174494Z" vector-effect="non-scaling-stroke"><title>Livingston County</title></path><path id="county-17071" class="county feature" d="M581.4414562643977,253.38960923857223L581.8282080724558,261.53526750385913L580.2184512962215,261.55879143678214L576.2766484051201,261.7898184935433L577.2423185841046,260.6362009755683L577.4295514306782,258.2073857801148L579.1165904629249,256.2095540998637L579.1573605097602,253.4776283475312Z" vector-effect="non-scaling-stroke"><title>Henderson County</title></path><path id="county-17187" class="county feature" d="M586.2706844271277,253.2057303401998L586.5849862920273,259.7778992781765L586.6653400999737,261.41002219015854L581.8282080724558,261.53526750385913L581.4414562643977,253.38960923857223Z" vector-effect="non-scaling-stroke"><title>Warren County</title></path><path id="county-17075" class="county feature" d="M626.9346412204345,251.21001327092813L627.393112018334,256.33857449405036L627.7951362234775,260.9492152669653L622.0697584031103,261.54914802556345L619.5081956325326,261.7239237236013L618.5179548390266,252.17295383270994Z" vector-effect="non-scaling-stroke"><title>Iroquois County</title></path><path id="county-17053" class="county feature" d="M622.0697584031103,261.54914802556345L622.2480836445053,263.16813269370596L614.8363322393378,263.7912403795631L614.5252034449018,259.686480266681L617.6664195189519,259.4177747415397L616.9175627295432,252.36261670455906L618.5179548390266,252.17295383270994L619.5081956325326,261.7239237236013Z" vector-effect="non-scaling-stroke"><title>Ford County</title></path><path id="county-17143" class="county feature" d="M597.5452111760303,254.2002576972361L600.2097458352522,254.0280880304258L599.9364625552272,255.0283996794849L599.0004728036045,258.36960095506413L597.4563255004971,262.1596309724059L594.8438791023914,263.0721994107356L594.6945480860061,260.99405578474L593.0712547180951,261.05830679138717L593.0085829517086,259.4310516219264L592.7060547493492,254.49751840495333Z" vector-effect="non-scaling-stroke"><title>Peoria County</title></path><path id="county-17203" class="county feature" d="M607.7463970865327,257.64020390993767L607.0958559846979,259.356391127121L605.1022190672866,260.79068477042847L603.2031734977844,260.9744348599759L602.35980125846,260.6343414622505L602.1388694681161,258.13853938319437L599.0004728036045,258.36960095506413L599.9364625552272,255.0283996794849L605.8568180344977,254.51860331239936L607.4720606782381,254.3647599771963Z" vector-effect="non-scaling-stroke"><title>Woodford County</title></path><path id="county-17113" class="county feature" d="M614.5252034449018,259.686480266681L614.8363322393378,263.7912403795631L615.021435426689,265.991807957335L613.3946227290679,266.1211643041354L605.3179601908505,266.72076674248444L603.6426744685627,266.0249197234017L603.2031734977844,260.9744348599759L605.1022190672866,260.79068477042847L607.0958559846979,259.356391127121L607.7463970865327,257.64020390993767L612.5693145160819,257.1907680647179L612.9122719193412,259.8299750627144Z" vector-effect="non-scaling-stroke"><title>McLean County</title></path><path id="county-17179" class="county feature" d="M603.2031734977844,260.9744348599759L603.6426744685627,266.0249197234017L598.868962360447,266.45062651254955L597.2983263968275,266.57382855531864L597.1235287223044,264.3936141321376L594.1956940422931,264.57104364444854L594.8438791023914,263.0721994107356L597.4563255004971,262.1596309724059L599.0004728036045,258.36960095506413L602.1388694681161,258.13853938319437L602.35980125846,260.6343414622505Z" vector-effect="non-scaling-stroke"><title>Tazewell County</title></path><path id="county-17057" class="county feature" d="M593.0085829517086,259.4310516219264L593.0712547180951,261.05830679138717L594.6945480860061,260.99405578474L594.8438791023914,263.0721994107356L594.1956940422931,264.57104364444854L592.6129889585278,265.9155845857491L592.3329287228005,267.3588742240138L590.624125038503,269.5524297542596L587.0623133756077,269.67204501267906L586.9863570293452,268.02489042045113L586.6653400999737,261.41002219015854L586.5849862920273,259.7778992781765Z" vector-effect="non-scaling-stroke"><title>Fulton County</title></path><path id="county-17067" class="county feature" d="M580.2184512962215,261.55879143678214L580.5007306003797,268.23726317957176L580.5572618588128,269.955310155922L572.1733059162248,270.23946465601307L572.2468311216096,269.3260534305125L573.2282662554521,266.8351899229393L573.9709015668083,266.3736091678311L573.2521970258173,263.5585535285984L573.9381853945393,262.49490073172933L576.2766484051201,261.7898184935433Z" vector-effect="non-scaling-stroke"><title>Hancock County</title></path><path id="county-17109" class="county feature" d="M586.6653400999737,261.41002219015854L586.9863570293452,268.02489042045113L580.5007306003797,268.23726317957176L580.2184512962215,261.55879143678214L581.8282080724558,261.53526750385913Z" vector-effect="non-scaling-stroke"><title>McDonough County</title></path><path id="county-17183" class="county feature" d="M627.7951362234775,260.9492152669653L627.8188315914413,261.21429975231683L628.3051790963442,267.396565994076L628.7243333463354,272.3746929199601L623.0021467843943,272.93245367932036L622.2480836445053,263.16813269370596L622.0697584031103,261.54914802556345Z" vector-effect="non-scaling-stroke"><title>Vermilion County</title></path><path id="county-17125" class="county feature" d="M598.868962360447,266.45062651254955L599.1397344865527,270.1655406050902L594.0058354545062,270.1113228048798L593.6063507889462,270.7939004945572L591.6826353483626,271.78845103598167L589.5539961758606,272.0460635363826L588.4973357882009,270.8072346739982L590.624125038503,269.5524297542596L592.3329287228005,267.3588742240138L592.6129889585278,265.9155845857491L594.1956940422931,264.57104364444854L597.1235287223044,264.3936141321376L597.2983263968275,266.57382855531864Z" vector-effect="non-scaling-stroke"><title>Mason County</title></path><path id="county-17019" class="county feature" d="M622.2480836445053,263.16813269370596L623.0021467843943,272.93245367932036L615.5819856693863,273.55697776301884L615.021435426689,265.991807957335L614.8363322393378,263.7912403795631Z" vector-effect="non-scaling-stroke"><title>Champaign County</title></path><path id="county-17107" class="county feature" d="M605.3179601908505,266.72076674248444L605.6851383126822,271.09961417135355L605.8832361833387,273.55874961771406L604.8327097018041,273.65150620000145L601.0514875481018,273.6120187189923L599.655314249663,272.8944307631881L599.1397344865527,270.1655406050902L598.868962360447,266.45062651254955L603.6426744685627,266.0249197234017Z" vector-effect="non-scaling-stroke"><title>Logan County</title></path><path id="county-17039" class="county feature" d="M613.3946227290679,266.1211643041354L611.3247337974764,270.5594432703799L605.6851383126822,271.09961417135355L605.3179601908505,266.72076674248444Z" vector-effect="non-scaling-stroke"><title>De Witt County</title></path><path id="county-17169" class="county feature" d="M586.9863570293452,268.02489042045113L587.0623133756077,269.67204501267906L590.624125038503,269.5524297542596L588.4973357882009,270.8072346739982L586.4043257629078,273.50348540239406L585.0793171844552,273.687892435466L583.7065914752118,271.4708039489251L580.6263845593256,271.6251518503806L580.5572618588128,269.955310155922L580.5007306003797,268.23726317957176Z" vector-effect="non-scaling-stroke"><title>Schuyler County</title></path><path id="county-17147" class="county feature" d="M615.021435426689,265.991807957335L615.5819856693863,273.55697776301884L615.5546234189935,275.2094989360834L611.6927510954683,275.50531039664247L611.3247337974764,270.5594432703799L613.3946227290679,266.1211643041354Z" vector-effect="non-scaling-stroke"><title>Piatt County</title></path><path id="county-17001" class="county feature" d="M580.5572618588128,269.955310155922L580.6263845593256,271.6251518503806L580.8471402783409,276.5088393331821L580.9407877758729,278.1625369324845L574.5506040870142,278.46112903228277L573.4895717766927,276.9099850937115L573.392524758255,274.9970251152249L572.470972001338,273.30192252769336L572.1733059162248,270.23946465601307Z" vector-effect="non-scaling-stroke"><title>Adams County</title></path><path id="county-17129" class="county feature" d="M599.1397344865527,270.1655406050902L599.655314249663,272.8944307631881L597.9600347926759,273.02227711790465L597.9822477402076,274.12566927255637L593.8568209411605,274.6720533998848L593.6063507889462,270.7939004945572L594.0058354545062,270.1113228048798Z" vector-effect="non-scaling-stroke"><title>Menard County</title></path><path id="county-17017" class="county feature" d="M588.4973357882009,270.8072346739982L589.5539961758606,272.0460635363826L591.6826353483626,271.78845103598167L593.6063507889462,270.7939004945572L593.8568209411605,274.6720533998848L593.8916615365761,275.22269904836844L585.5380354159829,275.65224563980337L586.4043257629078,273.50348540239406Z" vector-effect="non-scaling-stroke"><title>Cass County</title></path><path id="county-17009" class="county feature" d="M586.4043257629078,273.50348540239406L585.5380354159829,275.65224563980337L585.7410938864386,276.34642541812343L580.8471402783409,276.5088393331821L580.6263845593256,271.6251518503806L583.7065914752118,271.4708039489251L585.0793171844552,273.687892435466Z" vector-effect="non-scaling-stroke"><title>Brown County</title></path><path id="county-17115" class="county feature" d="M611.3247337974764,270.5594432703799L611.6927510954683,275.50531039664247L610.9697040406498,278.1872137127983L607.9191951144201,278.3946213825991L606.3063631666014,278.49191332190753L606.0678274076815,275.75920518803593L604.974578163248,275.564744337265L604.8327097018041,273.65150620000145L605.8832361833387,273.55874961771406L605.6851383126822,271.09961417135355Z" vector-effect="non-scaling-stroke"><title>Macon County</title></path><path id="county-17167" class="county feature" d="M604.8327097018041,273.65150620000145L604.974578163248,275.564744337265L602.5357125590936,277.1130602051852L600.6989012999215,279.151600238641L600.8686875005269,281.3423706272283L598.4785869360256,281.52747239140626L595.2804121404259,281.7592671810668L594.2084608414649,278.12632167275L593.8916615365761,275.22269904836844L593.8568209411605,274.6720533998848L597.9822477402076,274.12566927255637L597.9600347926759,273.02227711790465L599.655314249663,272.8944307631881L601.0514875481018,273.6120187189923Z" vector-effect="non-scaling-stroke"><title>Sangamon County</title></path><path id="county-17045" class="county feature" d="M629.2017915683873,277.54768258290926L629.4252882852797,279.991975928329L623.316828082877,280.4445008629136L622.9094244241679,276.60736741434675L623.0021467843943,272.93245367932036L628.7243333463354,272.3746929199601Z" vector-effect="non-scaling-stroke"><title>Edgar County</title></path><path id="county-17041" class="county feature" d="M623.0021467843943,272.93245367932036L622.9094244241679,276.60736741434675L621.5818767689864,277.3511714024172L615.7841346634693,277.8431782893997L615.5546234189935,275.2094989360834L615.5819856693863,273.55697776301884Z" vector-effect="non-scaling-stroke"><title>Douglas County</title></path><path id="county-17137" class="county feature" d="M593.8916615365761,275.22269904836844L594.2084608414649,278.12632167275L595.2804121404259,281.7592671810668L592.0413649254742,281.99613053781275L589.9349723338656,282.12624524165153L589.8189322702826,279.93707790561234L588.7544132080556,279.4366217678812L588.6829060755355,277.79876880281415L585.4068777483876,277.2953872562658L585.7410938864386,276.34642541812343L585.5380354159829,275.65224563980337Z" vector-effect="non-scaling-stroke"><title>Morgan County</title></path><path id="county-17149" class="county feature" d="M585.7410938864386,276.34642541812343L585.4068777483876,277.2953872562658L584.8378216845063,279.0779344586199L585.9549259729804,282.32987416915114L585.6240597613393,284.72713333056106L581.0038924392323,284.90733614174974L579.6666970252712,284.1951509478116L577.3708825761544,281.3508347815957L575.4819628508865,279.82645346230515L574.5506040870142,278.46112903228277L580.9407877758729,278.1625369324845L580.8471402783409,276.5088393331821Z" vector-effect="non-scaling-stroke"><title>Pike County</title></path><path id="county-17021" class="county feature" d="M604.974578163248,275.564744337265L606.0678274076815,275.75920518803593L606.3063631666014,278.49191332190753L607.9191951144201,278.3946213825991L608.3449517658224,284.18623349257496L606.712701300553,284.25345592480176L601.1295250417047,284.64153930238774L600.8686875005269,281.3423706272283L600.6989012999215,279.151600238641L602.5357125590936,277.1130602051852Z" vector-effect="non-scaling-stroke"><title>Christian County</title></path><path id="county-17139" class="county feature" d="M615.5546234189935,275.2094989360834L615.7841346634693,277.8431782893997L616.1146930790261,281.68392684726496L614.493568204392,281.8025079685643L612.3965944499882,279.47364450144664L611.099051068328,279.55536398923243L610.9697040406498,278.1872137127983L611.6927510954683,275.50531039664247Z" vector-effect="non-scaling-stroke"><title>Moultrie County</title></path><path id="county-17171" class="county feature" d="M589.9349723338656,282.12624524165153L585.9549259729804,282.32987416915114L584.8378216845063,279.0779344586199L585.4068777483876,277.2953872562658L588.6829060755355,277.79876880281415L588.7544132080556,279.4366217678812L589.8189322702826,279.93707790561234Z" vector-effect="non-scaling-stroke"><title>Scott County</title></path><path id="county-17029" class="county feature" d="M622.9094244241679,276.60736741434675L623.316828082877,280.4445008629136L622.7484775666884,282.42847599716333L616.2177659214458,283.0471105164536L616.1146930790261,281.68392684726496L615.7841346634693,277.8431782893997L621.5818767689864,277.3511714024172Z" vector-effect="non-scaling-stroke"><title>Coles County</title></path><path id="county-17173" class="county feature" d="M610.9697040406498,278.1872137127983L611.099051068328,279.55536398923243L612.3965944499882,279.47364450144664L614.493568204392,281.8025079685643L616.1146930790261,281.68392684726496L616.2177659214458,283.0471105164536L616.4557035161251,286.04436644317695L611.6638594078801,286.3939177750208L606.8856248190484,286.7163558660925L606.712701300553,284.25345592480176L608.3449517658224,284.18623349257496L607.9191951144201,278.3946213825991Z" vector-effect="non-scaling-stroke"><title>Shelby County</title></path><path id="county-17135" class="county feature" d="M600.8686875005269,281.3423706272283L601.1295250417047,284.64153930238774L606.712701300553,284.25345592480176L606.8856248190484,286.7163558660925L605.3110764772432,286.837403284772L605.5643917328499,290.39839196297066L600.7536604786416,290.73004352773125L600.0132915018104,291.3290370608876L599.1743678208609,291.38804370569915L598.4785869360256,281.52747239140626Z" vector-effect="non-scaling-stroke"><title>Montgomery County</title></path><path id="county-17117" class="county feature" d="M598.4785869360256,281.52747239140626L599.1743678208609,291.38804370569915L592.7524317273322,291.7789587990867L592.4228216292411,286.85169216862994L592.0413649254742,281.99613053781275L595.2804121404259,281.7592671810668Z" vector-effect="non-scaling-stroke"><title>Macoupin County</title></path><path id="county-17061" class="county feature" d="M589.9349723338656,282.12624524165153L592.0413649254742,281.99613053781275L592.4228216292411,286.85169216862994L590.0886419254049,287.6905637437317L590.1509983224389,288.645576584506L586.3168142574063,288.66998238536394L586.0651975837682,289.9563638771201L585.6240597613393,284.72713333056106L585.9549259729804,282.32987416915114Z" vector-effect="non-scaling-stroke"><title>Greene County</title></path><path id="county-17023" class="county feature" d="M629.4252882852797,279.991975928329L629.6419008063283,282.41670606291814L628.7560208074398,284.171006540265L628.571840904809,286.11797285629166L623.9535636619279,286.1875432017249L623.1293875838816,286.27555618045244L622.7484775666884,282.42847599716333L623.316828082877,280.4445008629136Z" vector-effect="non-scaling-stroke"><title>Clark County</title></path><path id="county-17013" class="county feature" d="M585.6240597613393,284.72713333056106L586.0651975837682,289.9563638771201L586.7403731091927,292.3778568331413L588.4005296609076,292.65822030922095L587.1168897583601,294.52424178097067L585.3643000031119,293.4591787069294L584.2513813870789,288.0458685836812L583.5077132980811,286.7025622469764L581.0038924392323,284.90733614174974Z" vector-effect="non-scaling-stroke"><title>Calhoun County</title></path><path id="county-17035" class="county feature" d="M622.7484775666884,282.42847599716333L623.1293875838816,286.27555618045244L618.0963430735654,286.7432131452978L616.4557035161251,286.04436644317695L616.2177659214458,283.0471105164536Z" vector-effect="non-scaling-stroke"><title>Cumberland County</title></path><path id="county-17083" class="county feature" d="M592.4228216292411,286.85169216862994L592.7524317273322,291.7789587990867L590.9250417688233,291.9036127816478L590.9802813384515,293.3339952404435L588.4005296609076,292.65822030922095L586.7403731091927,292.3778568331413L586.0651975837682,289.9563638771201L586.3168142574063,288.66998238536394L590.1509983224389,288.645576584506L590.0886419254049,287.6905637437317Z" vector-effect="non-scaling-stroke"><title>Jersey County</title></path><path id="county-17051" class="county feature" d="M606.8856248190484,286.7163558660925L611.6638594078801,286.3939177750208L612.0878014846621,292.1207372443678L613.7007521581239,291.9405826482646L613.8080759386379,293.6033848478311L607.4530264796268,294.133747323864L607.566226282613,295.77069997779813L605.8903495857627,295.78323155103556L605.5643917328499,290.39839196297066L605.3110764772432,286.837403284772Z" vector-effect="non-scaling-stroke"><title>Fayette County</title></path><path id="county-17049" class="county feature" d="M616.4557035161251,286.04436644317695L618.0963430735654,286.7432131452978L618.4749673618429,291.6365994732613L613.7007521581239,291.9405826482646L612.0878014846621,292.1207372443678L611.6638594078801,286.3939177750208Z" vector-effect="non-scaling-stroke"><title>Effingham County</title></path><path id="county-17033" class="county feature" d="M628.571840904809,286.11797285629166L630.517965487307,290.77171355941005L630.4835236365192,291.72151076732473L625.0795183981998,292.23825440797464L624.5283161963346,292.2851855721433L623.9535636619279,286.1875432017249Z" vector-effect="non-scaling-stroke"><title>Crawford County</title></path><path id="county-17079" class="county feature" d="M623.9535636619279,286.1875432017249L624.5283161963346,292.2851855721433L620.0499222519486,292.7079720338602L618.5640849838015,292.74309368558704L618.4749673618429,291.6365994732613L618.0963430735654,286.7432131452978L623.1293875838816,286.27555618045244Z" vector-effect="non-scaling-stroke"><title>Jasper County</title></path><path id="county-17005" class="county feature" d="M605.5643917328499,290.39839196297066L605.8903495857627,295.78323155103556L600.950753259973,296.10311213164437L600.0132915018104,291.3290370608876L600.7536604786416,290.73004352773125Z" vector-effect="non-scaling-stroke"><title>Bond County</title></path><path id="county-17119" class="county feature" d="M592.7524317273322,291.7789587990867L599.1743678208609,291.38804370569915L600.0132915018104,291.3290370608876L600.950753259973,296.10311213164437L601.0926495105865,297.7442466687513L599.4849259335972,297.86500011879104L592.6393468597522,298.19824341522315L592.7271657311858,296.07802083740387L593.3858901726915,295.41123964459143L593.368010520412,294.5375875877771L590.9802813384515,293.3339952404435L590.9250417688233,291.9036127816478Z" vector-effect="non-scaling-stroke"><title>Madison County</title></path><path id="county-17025" class="county feature" d="M618.4749673618429,291.6365994732613L618.5640849838015,292.74309368558704L620.0499222519486,292.7079720338602L619.8180863848743,296.75113840948984L620.5596732888533,297.35840671756L614.0852403793148,297.7431148767414L613.8080759386379,293.6033848478311L613.7007521581239,291.9405826482646Z" vector-effect="non-scaling-stroke"><title>Clay County</title></path><path id="county-17101" class="county feature" d="M629.2235412646178,297.21554803307197L625.4664790427388,297.5046162842499L625.0795183981998,292.23825440797464L630.4835236365192,291.72151076732473L631.1762269032215,293.7726522323602Z" vector-effect="non-scaling-stroke"><title>Lawrence County</title></path><path id="county-17159" class="county feature" d="M624.5283161963346,292.2851855721433L625.0795183981998,292.23825440797464L625.4664790427388,297.5046162842499L624.8508349566565,297.55394234808705L622.0753071682532,297.80795331856336L620.5596732888533,297.35840671756L619.8180863848743,296.75113840948984L620.0499222519486,292.7079720338602Z" vector-effect="non-scaling-stroke"><title>Richland County</title></path><path id="county-17121" class="county feature" d="M613.8080759386379,293.6033848478311L614.0852403793148,297.7431148767414L614.2650328039808,300.2142243240255L607.8350255538107,300.7122629702884L607.8058218507379,300.1639300295325L607.566226282613,295.77069997779813L607.4530264796268,294.133747323864Z" vector-effect="non-scaling-stroke"><title>Marion County</title></path><path id="county-17027" class="county feature" d="M605.8903495857627,295.78323155103556L607.566226282613,295.77069997779813L607.8058218507379,300.1639300295325L604.7596796973278,300.16741944465105L602.9531150193974,301.1527410365311L601.035747892837,301.2231767667811L599.8114191028203,302.31712397763647L599.4849259335972,297.86500011879104L601.0926495105865,297.7442466687513L600.950753259973,296.10311213164437Z" vector-effect="non-scaling-stroke"><title>Clinton County</title></path><path id="county-17163" class="county feature" d="M599.4849259335972,297.86500011879104L599.8114191028203,302.31712397763647L600.0807692957961,306.0625560883858L597.2428936823952,306.2205013878404L596.9297064269974,304.59622316019204L595.1454475330337,304.68918592848127L591.5698736762156,300.86828530282935L591.6891347227681,300.6895788433329L592.6393468597522,298.19824341522315Z" vector-effect="non-scaling-stroke"><title>Saint Clair County</title></path><path id="county-17191" class="county feature" d="M620.5596732888533,297.35840671756L622.0753071682532,297.80795331856336L622.5156484761635,303.6941376113854L619.3373915201009,303.96773965354544L614.5341009911679,304.3213229708173L614.2650328039808,300.2142243240255L614.0852403793148,297.7431148767414Z" vector-effect="non-scaling-stroke"><title>Wayne County</title></path><path id="county-17047" class="county feature" d="M624.8508349566565,297.55394234808705L625.2091554631079,299.56378529290316L624.8214550208867,303.43424113066703L622.5156484761635,303.6941376113854L622.0753071682532,297.80795331856336Z" vector-effect="non-scaling-stroke"><title>Edwards County</title></path><path id="county-17185" class="county feature" d="M624.8508349566565,297.55394234808705L625.4664790427388,297.5046162842499L629.2235412646178,297.21554803307197L629.400622737595,298.21984862956685L627.8907743067412,299.323077955498L628.1514534989668,300.2195559728116L625.9817351639002,303.17714877713945L624.8677799362781,303.48725591204243L624.8214550208867,303.43424113066703L625.2091554631079,299.56378529290316Z" vector-effect="non-scaling-stroke"><title>Wabash County</title></path><path id="county-17133" class="county feature" d="M597.2428936823952,306.2205013878404L595.2474576779609,306.31281027909097L595.350294347758,307.9495898497602L592.9243607041648,308.99599330057583L592.2170391244765,308.2920575384451L590.5240687523803,306.47257584076L590.6231916569753,303.490405763422L591.5698736762156,300.86828530282935L595.1454475330337,304.68918592848127L596.9297064269974,304.59622316019204Z" vector-effect="non-scaling-stroke"><title>Monroe County</title></path><path id="county-17189" class="county feature" d="M607.8058218507379,300.1639300295325L607.8350255538107,300.7122629702884L608.148272897474,305.6264529994437L601.6834657681717,305.9562996882495L600.0807692957961,306.0625560883858L599.8114191028203,302.31712397763647L601.035747892837,301.2231767667811L602.9531150193974,301.1527410365311L604.7596796973278,300.16741944465105Z" vector-effect="non-scaling-stroke"><title>Washington County</title></path><path id="county-17081" class="county feature" d="M614.2650328039808,300.2142243240255L614.5341009911679,304.3213229708173L614.68779611981,306.7955708326847L608.5231458744832,307.2649619388328L608.148272897474,305.6264529994437L607.8350255538107,300.7122629702884Z" vector-effect="non-scaling-stroke"><title>Jefferson County</title></path><path id="county-17193" class="county feature" d="M624.8214550208867,303.43424113066703L624.8677799362781,303.48725591204243L624.9614418584314,303.97644827683746L626.1399537933725,305.1542551851394L623.9398361994337,310.48577461038826L619.8046154180596,310.4941252607982L619.3373915201009,303.96773965354544L622.5156484761635,303.6941376113854Z" vector-effect="non-scaling-stroke"><title>White County</title></path><path id="county-17065" class="county feature" d="M619.3373915201009,303.96773965354544L619.8046154180596,310.4941252607982L619.8058332035641,310.50927115149386L614.9775992822256,310.9052504110141L614.68779611981,306.7955708326847L614.5341009911679,304.3213229708173Z" vector-effect="non-scaling-stroke"><title>Hamilton County</title></path><path id="county-17157" class="county feature" d="M597.2428936823952,306.2205013878404L600.0807692957961,306.0625560883858L601.6834657681717,305.9562996882495L601.9874519384751,310.92489228806755L601.0242411580201,313.86573046075523L598.4240454517648,312.10382866359066L597.0912407141466,312.7641492144985L596.1234817163706,311.15897843778896L592.9243607041648,308.99599330057583L595.350294347758,307.9495898497602L595.2474576779609,306.31281027909097Z" vector-effect="non-scaling-stroke"><title>Randolph County</title></path><path id="county-17145" class="county feature" d="M601.6834657681717,305.9562996882495L608.148272897474,305.6264529994437L608.5231458744832,307.2649619388328L608.0663618449369,310.59562971866933L601.9874519384751,310.92489228806755Z" vector-effect="non-scaling-stroke"><title>Perry County</title></path><path id="county-17055" class="county feature" d="M614.68779611981,306.7955708326847L614.9775992822256,310.9052504110141L615.0351220429028,311.721734723953L608.5674383034132,312.2302080219298L608.0663618449369,310.59562971866933L608.5231458744832,307.2649619388328Z" vector-effect="non-scaling-stroke"><title>Franklin County</title></path><path id="county-17077" class="county feature" d="M608.0663618449369,310.59562971866933L608.5674383034132,312.2302080219298L608.8857479345722,317.1512356784858L604.5478650620714,317.46556109260064L603.5448867431772,318.06239039081606L603.5407452772458,315.9193084928304L601.1743424700904,314.69734698011086L601.0242411580201,313.86573046075523L601.9874519384751,310.92489228806755Z" vector-effect="non-scaling-stroke"><title>Jackson County</title></path><path id="county-17059" class="county feature" d="M623.9398361994337,310.48577461038826L625.0139625955627,312.13206399202L623.3171301374754,314.84222115807154L623.8332711751381,316.48777650802015L620.2609459916591,316.3008581863984L619.8058332035641,310.50927115149386L619.8046154180596,310.4941252607982Z" vector-effect="non-scaling-stroke"><title>Gallatin County</title></path><path id="county-17165" class="county feature" d="M619.8058332035641,310.50927115149386L620.2609459916591,316.3008581863984L619.7204249906731,316.3370946179225L615.3906491796386,316.6888941891235L615.0351220429028,311.721734723953L614.9775992822256,310.9052504110141Z" vector-effect="non-scaling-stroke"><title>Saline County</title></path><path id="county-17199" class="county feature" d="M615.0351220429028,311.721734723953L615.3906491796386,316.6888941891235L610.5329019028298,317.10554495640883L608.8857479345722,317.1512356784858L608.5674383034132,312.2302080219298Z" vector-effect="non-scaling-stroke"><title>Williamson County</title></path><path id="county-17069" class="county feature" d="M620.2609459916591,316.3008581863984L623.8332711751381,316.48777650802015L624.9956610587706,317.6970695171765L624.7153767616635,318.32734560108736L621.8949586572697,318.93697106758066L620.8079023639845,319.9457553408033L619.9438392745093,319.65843230121834L619.7204249906731,316.3370946179225Z" vector-effect="non-scaling-stroke"><title>Hardin County</title></path><path id="county-17151" class="county feature" d="M619.7204249906731,316.3370946179225L619.9438392745093,319.65843230121834L619.1090924553888,320.40167850668513L618.7817598156906,322.8225220998846L620.2115613690386,324.7980601604038L619.3692956871076,326.42776934661254L619.23330771936,324.7102320097483L615.7433397918716,321.6215967727102L615.3906491796386,316.6888941891235Z" vector-effect="non-scaling-stroke"><title>Pope County</title></path><path id="county-17087" class="county feature" d="M615.3906491796386,316.6888941891235L615.7433397918716,321.6215967727102L612.8666754717608,321.8670991340325L612.5865799274679,322.5116765019536L610.8534125836409,322.12484205228463L610.5329019028298,317.10554495640883Z" vector-effect="non-scaling-stroke"><title>Johnson County</title></path><path id="county-17181" class="county feature" d="M608.8857479345722,317.1512356784858L610.5329019028298,317.10554495640883L610.8534125836409,322.12484205228463L607.85606940609,322.2418241212947L604.3962050300986,322.4735439011672L605.2135915377693,321.21397386212027L603.5524758430722,318.17355772545557L603.5448867431772,318.06239039081606L604.5478650620714,317.46556109260064Z" vector-effect="non-scaling-stroke"><title>Union County</title></path><path id="county-17127" class="county feature" d="M619.3692956871076,326.42776934661254L618.2369628767287,326.2843028665369L612.7091514052946,323.942839965442L612.5865799274679,322.5116765019536L612.8666754717608,321.8670991340325L615.7433397918716,321.6215967727102L619.23330771936,324.7102320097483Z" vector-effect="non-scaling-stroke"><title>Massac County</title></path><path id="county-17003" class="county feature" d="M607.85606940609,322.2418241212947L607.9031790062552,326.48412022005016L609.4065095927632,327.2387714734223L610.0122738989003,328.7842916175184L608.0650258700882,327.3428476616531L607.3176174833466,328.4172140681461L606.3435504066613,327.93722980930215L604.4418132592834,324.06342740927664L604.3962050300986,322.4735439011672Z" vector-effect="non-scaling-stroke"><title>Alexander County</title></path><path id="county-17153" class="county feature" d="M610.8534125836409,322.12484205228463L612.5865799274679,322.5116765019536L612.7091514052946,323.942839965442L612.6373879863384,323.9756120443071L610.4747956040552,325.35373089973837L609.4065095927632,327.2387714734223L607.9031790062552,326.48412022005016L607.85606940609,322.2418241212947Z" vector-effect="non-scaling-stroke"><title>Pulaski County</title></path></g><path id="counties-mesh" class="counties mesh" d="M598.8624607612289,225.3203222601785L599.3202505344841,230.90831292145708L595.3140715207517,231.23861811277868L592.1529915258967,231.49760589775383M605.163595678073,224.96800209085131L605.6466332316747,231.39251494411064L602.4501615211451,231.6659503999058L602.3870771992741,230.65176788469137L599.3202505344841,230.90831292145708M615.3027493534171,224.17259016126525L615.7888527180334,230.56153673399467L615.2576549555629,230.60512133890427L610.4574305102908,231.00226126639632L608.8583283033703,231.1262198328027L608.3438118907263,224.7557713519907M591.6929538006292,225.69882751865123L592.1529915258967,231.49760589775383L586.6966685657057,231.88323334794302L585.62569049015,231.3175913253856L584.3498414403706,228.4871327887995L581.7820857480558,226.80772325913347L581.9319647671488,226.23807654546385L584.8596835342205,226.09276389766887L591.6929538006292,225.69882751865123L592.8983959256285,225.62213743323696L598.8624607612289,225.3203222601785L599.3427307783395,225.28987172531413L605.163595678073,224.96800209085131L607.4009091915134,224.85626768660518L608.3438118907263,224.7557713519907L613.8351297072173,224.30163320905478L615.3027493534171,224.17259016126525L620.6503891593071,223.76805916941703L620.5551973226579,227.35581475166668L621.820721511758,230.0868033419472L615.7888527180334,230.56153673399467M595.6787908618215,236.27546861635915L589.2774683302607,236.71695349343247L589.133516018747,234.78235025279412L588.9124398941098,233.20090008988313L586.6966685657057,231.88323334794302M608.8583283033703,231.1262198328027L605.6466332316747,231.39251494411064L605.9905804265023,236.2812006776668L600.2245808040648,236.76733570621195L596.500573461828,236.76434675439725L595.6787908618215,236.27546861635915L595.3140715207517,231.23861811277868M621.820721511758,230.0868033419472L623.0202721688811,231.4492575022523L624.4030546018367,235.69577994646272L625.7959540994761,238.1377080131566L626.1749020243237,242.65542029076437L622.5052851191074,242.91236181574766L622.3168488611733,241.25545900382565L620.723039587961,241.42794765946076L620.5488845682255,239.7963171591416L618.8634593786356,239.15293184785446L620.392811143044,238.4341417125935L619.8658362544743,233.24407046231977L615.1801341778925,233.78184798842778L615.2576549555629,230.60512133890427M610.4574305102908,231.00226126639632L610.9152156062327,239.15613347535566L611.0391537424473,240.8090612705878L606.3880654375496,241.22130511389673L605.9905804265023,236.2812006776668M615.1801341778925,233.78184798842778L615.5952195270296,238.68636423934947L610.9152156062327,239.15613347535566M589.2040245441274,243.2116405104083L589.1158648102526,244.05254384286184L585.9427309594269,245.81639233832823L586.0608860298412,248.2573630811827L577.1892103579066,248.6271465259814L577.1890007421151,248.6231075054642L577.549423178835,247.00368175945323L581.0349158409961,246.1689867386914L582.8318553207874,245.8949216157231L587.0251175688162,243.28252547717068L587.2440492722833,240.61256914892647L588.198347779107,239.53350785196017L589.2774683302607,236.71695349343247M618.8634593786356,239.15293184785446L618.7752634660472,238.34084591261126L615.6003330177664,238.68797499254856L615.5952195270296,238.68636423934947M596.500573461828,236.76434675439725L596.8749640872009,242.71326832757723L593.678737120544,242.94006016713809L589.2040245441274,243.2116405104083L588.198347779107,239.53350785196017M606.3880654375496,241.22130511389673L603.2385228955915,241.4448271858024L603.3025868258414,242.26512948781635L596.8749640872009,242.71326832757723M626.1749020243237,242.65542029076437L626.4421246970712,245.8128238549648L619.6974958067307,246.50994181891554L619.8643818155639,248.13375383292157L616.6404292247053,248.48155573057034L616.125049395421,243.5861753751284L615.6003330177664,238.68797499254856M616.125049395421,243.5861753751284L611.3837504014859,244.07342455405626L611.0391537424473,240.8090612705878M611.3837504014859,244.07342455405626L612.0251181935987,250.6159472174494L607.2329966976135,251.02132630993765L607.4720606782381,254.3647599771963L605.8568180344977,254.51860331239936L605.6108049854778,251.1614854627054L604.0178891758169,251.29043377385005L603.7140578205593,247.42208866912506L603.3025868258414,242.26512948781635M603.7140578205593,247.42208866912506L601.3348263019038,247.76773111305147L601.1395441540277,249.0556089893305L599.6123119941966,249.1504978525221L599.7226195819757,250.75260283560817L597.3299593644061,250.9141536338377L597.2176284375419,249.31319522741626L594.1732475312991,249.50259229934068L593.678737120544,242.94006016713809M594.1732475312991,249.50259229934068L594.1223436469879,251.11918764531276L592.508108529648,251.21538402421288L586.1945792117242,251.56391192901663L586.0608860298412,248.2573630811827M616.6404292247053,248.48155573057034L616.6697918542194,250.13105429734242L612.0251181935987,250.6159472174494M586.1945792117242,251.56391192901663L586.2706844271277,253.2057303401998L581.4414562643977,253.38960923857223L579.1573605097602,253.4776283475312L579.1552653097549,253.4382395486174L578.5023839401476,251.908096322069L576.7061649162121,250.41388763318196L577.1892103579066,248.6271465259814M604.0178891758169,251.29043377385005L601.2799913538573,251.49200387032522L599.7226195819757,250.75260283560817M626.4421246970712,245.8128238549648L626.6636046462647,248.2905612100974L626.9346412204345,251.21001327092813L618.5179548390266,252.17295383270994L616.9175627295432,252.36261670455906L616.6697918542194,250.13105429734242M597.3299593644061,250.9141536338377L597.5452111760303,254.2002576972361L592.7060547493492,254.49751840495333L592.508108529648,251.21538402421288M592.7060547493492,254.49751840495333L593.0085829517086,259.4310516219264L586.5849862920273,259.7778992781765L586.2706844271277,253.2057303401998M605.8568180344977,254.51860331239936L599.9364625552272,255.0283996794849L600.2097458352522,254.0280880304258L597.5452111760303,254.2002576972361M616.9175627295432,252.36261670455906L617.6664195189519,259.4177747415397L614.5252034449018,259.686480266681L612.9122719193412,259.8299750627144L612.5693145160819,257.1907680647179L607.7463970865327,257.64020390993767L607.4720606782381,254.3647599771963M581.4414562643977,253.38960923857223L581.8282080724558,261.53526750385913L580.2184512962215,261.55879143678214L576.2766484051201,261.7898184935433L577.2423185841046,260.6362009755683L577.4295514306782,258.2073857801148L579.1165904629249,256.2095540998637L579.1573605097602,253.4776283475312M586.5849862920273,259.7778992781765L586.6653400999737,261.41002219015854L581.8282080724558,261.53526750385913M626.9346412204345,251.21001327092813L627.393112018334,256.33857449405036L627.7951362234775,260.9492152669653L622.0697584031103,261.54914802556345L619.5081956325326,261.7239237236013L618.5179548390266,252.17295383270994M622.0697584031103,261.54914802556345L622.2480836445053,263.16813269370596L614.8363322393378,263.7912403795631L614.5252034449018,259.686480266681M599.9364625552272,255.0283996794849L599.0004728036045,258.36960095506413L597.4563255004971,262.1596309724059L594.8438791023914,263.0721994107356L594.6945480860061,260.99405578474L593.0712547180951,261.05830679138717L593.0085829517086,259.4310516219264M607.7463970865327,257.64020390993767L607.0958559846979,259.356391127121L605.1022190672866,260.79068477042847L603.2031734977844,260.9744348599759L602.35980125846,260.6343414622505L602.1388694681161,258.13853938319437L599.0004728036045,258.36960095506413M580.2184512962215,261.55879143678214L580.5007306003797,268.23726317957176L580.5572618588128,269.955310155922L572.1733059162248,270.23946465601307L572.2468311216096,269.3260534305125L573.2282662554521,266.8351899229393L573.9709015668083,266.3736091678311L573.2521970258173,263.5585535285984L573.9381853945393,262.49490073172933L576.2766484051201,261.7898184935433M614.8363322393378,263.7912403795631L615.021435426689,265.991807957335L613.3946227290679,266.1211643041354L605.3179601908505,266.72076674248444L603.6426744685627,266.0249197234017L603.2031734977844,260.9744348599759M603.6426744685627,266.0249197234017L598.868962360447,266.45062651254955L597.2983263968275,266.57382855531864L597.1235287223044,264.3936141321376L594.1956940422931,264.57104364444854L594.8438791023914,263.0721994107356M594.1956940422931,264.57104364444854L592.6129889585278,265.9155845857491L592.3329287228005,267.3588742240138L590.624125038503,269.5524297542596L587.0623133756077,269.67204501267906L586.9863570293452,268.02489042045113L586.6653400999737,261.41002219015854M586.9863570293452,268.02489042045113L580.5007306003797,268.23726317957176M627.7951362234775,260.9492152669653L627.8188315914413,261.21429975231683L628.3051790963442,267.396565994076L628.7243333463354,272.3746929199601L623.0021467843943,272.93245367932036L622.2480836445053,263.16813269370596M598.868962360447,266.45062651254955L599.1397344865527,270.1655406050902L594.0058354545062,270.1113228048798L593.6063507889462,270.7939004945572L591.6826353483626,271.78845103598167L589.5539961758606,272.0460635363826L588.4973357882009,270.8072346739982L590.624125038503,269.5524297542596M628.7243333463354,272.3746929199601L629.2017915683873,277.54768258290926L629.4252882852797,279.991975928329L623.316828082877,280.4445008629136L622.9094244241679,276.60736741434675L623.0021467843943,272.93245367932036L615.5819856693863,273.55697776301884L615.021435426689,265.991807957335M605.3179601908505,266.72076674248444L605.6851383126822,271.09961417135355L605.8832361833387,273.55874961771406L604.8327097018041,273.65150620000145L601.0514875481018,273.6120187189923L599.655314249663,272.8944307631881L599.1397344865527,270.1655406050902M613.3946227290679,266.1211643041354L611.3247337974764,270.5594432703799L605.6851383126822,271.09961417135355M588.4973357882009,270.8072346739982L586.4043257629078,273.50348540239406L585.0793171844552,273.687892435466L583.7065914752118,271.4708039489251L580.6263845593256,271.6251518503806L580.5572618588128,269.955310155922M615.5819856693863,273.55697776301884L615.5546234189935,275.2094989360834L611.6927510954683,275.50531039664247L611.3247337974764,270.5594432703799M580.6263845593256,271.6251518503806L580.8471402783409,276.5088393331821L580.9407877758729,278.1625369324845L574.5506040870142,278.46112903228277L573.4895717766927,276.9099850937115L573.392524758255,274.9970251152249L572.470972001338,273.30192252769336L572.1733059162248,270.23946465601307M599.655314249663,272.8944307631881L597.9600347926759,273.02227711790465L597.9822477402076,274.12566927255637L593.8568209411605,274.6720533998848L593.6063507889462,270.7939004945572M593.8568209411605,274.6720533998848L593.8916615365761,275.22269904836844L585.5380354159829,275.65224563980337L586.4043257629078,273.50348540239406M585.5380354159829,275.65224563980337L585.7410938864386,276.34642541812343L580.8471402783409,276.5088393331821M611.6927510954683,275.50531039664247L610.9697040406498,278.1872137127983L607.9191951144201,278.3946213825991L606.3063631666014,278.49191332190753L606.0678274076815,275.75920518803593L604.974578163248,275.564744337265L604.8327097018041,273.65150620000145M604.974578163248,275.564744337265L602.5357125590936,277.1130602051852L600.6989012999215,279.151600238641L600.8686875005269,281.3423706272283L598.4785869360256,281.52747239140626L595.2804121404259,281.7592671810668L594.2084608414649,278.12632167275L593.8916615365761,275.22269904836844M585.4068777483876,277.2953872562658L584.8378216845063,279.0779344586199L585.9549259729804,282.32987416915114L585.6240597613393,284.72713333056106L581.0038924392323,284.90733614174974L579.6666970252712,284.1951509478116L577.3708825761544,281.3508347815957L575.4819628508865,279.82645346230515L574.5506040870142,278.46112903228277M622.9094244241679,276.60736741434675L621.5818767689864,277.3511714024172L615.7841346634693,277.8431782893997L615.5546234189935,275.2094989360834M595.2804121404259,281.7592671810668L592.0413649254742,281.99613053781275L589.9349723338656,282.12624524165153L589.8189322702826,279.93707790561234L588.7544132080556,279.4366217678812L588.6829060755355,277.79876880281415L585.4068777483876,277.2953872562658L585.7410938864386,276.34642541812343M607.9191951144201,278.3946213825991L608.3449517658224,284.18623349257496L606.712701300553,284.25345592480176L601.1295250417047,284.64153930238774L600.8686875005269,281.3423706272283M615.7841346634693,277.8431782893997L616.1146930790261,281.68392684726496L614.493568204392,281.8025079685643L612.3965944499882,279.47364450144664L611.099051068328,279.55536398923243L610.9697040406498,278.1872137127983M589.9349723338656,282.12624524165153L585.9549259729804,282.32987416915114M623.316828082877,280.4445008629136L622.7484775666884,282.42847599716333L616.2177659214458,283.0471105164536L616.1146930790261,281.68392684726496M616.2177659214458,283.0471105164536L616.4557035161251,286.04436644317695L611.6638594078801,286.3939177750208L606.8856248190484,286.7163558660925L606.712701300553,284.25345592480176M586.0651975837682,289.9563638771201L586.7403731091927,292.3778568331413L588.4005296609076,292.65822030922095L587.1168897583601,294.52424178097067L585.3643000031119,293.4591787069294L584.2513813870789,288.0458685836812L583.5077132980811,286.7025622469764L581.0038924392323,284.90733614174974M606.8856248190484,286.7163558660925L605.3110764772432,286.837403284772L605.5643917328499,290.39839196297066L600.7536604786416,290.73004352773125L600.0132915018104,291.3290370608876L599.1743678208609,291.38804370569915L598.4785869360256,281.52747239140626M599.1743678208609,291.38804370569915L592.7524317273322,291.7789587990867L592.4228216292411,286.85169216862994L592.0413649254742,281.99613053781275M592.4228216292411,286.85169216862994L590.0886419254049,287.6905637437317L590.1509983224389,288.645576584506L586.3168142574063,288.66998238536394L586.0651975837682,289.9563638771201L585.6240597613393,284.72713333056106M629.4252882852797,279.991975928329L629.6419008063283,282.41670606291814L628.7560208074398,284.171006540265L628.571840904809,286.11797285629166L623.9535636619279,286.1875432017249L623.1293875838816,286.27555618045244L622.7484775666884,282.42847599716333M623.1293875838816,286.27555618045244L618.0963430735654,286.7432131452978L616.4557035161251,286.04436644317695M592.7524317273322,291.7789587990867L590.9250417688233,291.9036127816478L590.9802813384515,293.3339952404435L588.4005296609076,292.65822030922095M611.6638594078801,286.3939177750208L612.0878014846621,292.1207372443678L613.7007521581239,291.9405826482646L613.8080759386379,293.6033848478311L607.4530264796268,294.133747323864L607.566226282613,295.77069997779813L605.8903495857627,295.78323155103556L605.5643917328499,290.39839196297066M618.0963430735654,286.7432131452978L618.4749673618429,291.6365994732613L613.7007521581239,291.9405826482646M628.571840904809,286.11797285629166L630.517965487307,290.77171355941005L630.4835236365192,291.72151076732473L625.0795183981998,292.23825440797464L624.5283161963346,292.2851855721433L623.9535636619279,286.1875432017249M624.5283161963346,292.2851855721433L620.0499222519486,292.7079720338602L618.5640849838015,292.74309368558704L618.4749673618429,291.6365994732613M605.8903495857627,295.78323155103556L600.950753259973,296.10311213164437L600.0132915018104,291.3290370608876M600.950753259973,296.10311213164437L601.0926495105865,297.7442466687513L599.4849259335972,297.86500011879104L592.6393468597522,298.19824341522315L592.7271657311858,296.07802083740387L593.3858901726915,295.41123964459143L593.368010520412,294.5375875877771L590.9802813384515,293.3339952404435M620.0499222519486,292.7079720338602L619.8180863848743,296.75113840948984L620.5596732888533,297.35840671756L614.0852403793148,297.7431148767414L613.8080759386379,293.6033848478311M629.2235412646178,297.21554803307197L625.4664790427388,297.5046162842499L625.0795183981998,292.23825440797464M625.4664790427388,297.5046162842499L624.8508349566565,297.55394234808705L622.0753071682532,297.80795331856336L620.5596732888533,297.35840671756M614.0852403793148,297.7431148767414L614.2650328039808,300.2142243240255L607.8350255538107,300.7122629702884L607.8058218507379,300.1639300295325L607.566226282613,295.77069997779813M597.2428936823952,306.2205013878404L595.2474576779609,306.31281027909097L595.350294347758,307.9495898497602L592.9243607041648,308.99599330057583L592.2170391244765,308.2920575384451L590.5240687523803,306.47257584076L590.6231916569753,303.490405763422L591.5698736762156,300.86828530282935L591.6891347227681,300.6895788433329L592.6393468597522,298.19824341522315M607.8058218507379,300.1639300295325L604.7596796973278,300.16741944465105L602.9531150193974,301.1527410365311L601.035747892837,301.2231767667811L599.8114191028203,302.31712397763647L599.4849259335972,297.86500011879104M599.8114191028203,302.31712397763647L600.0807692957961,306.0625560883858L597.2428936823952,306.2205013878404L596.9297064269974,304.59622316019204L595.1454475330337,304.68918592848127L591.5698736762156,300.86828530282935M622.0753071682532,297.80795331856336L622.5156484761635,303.6941376113854L619.3373915201009,303.96773965354544L614.5341009911679,304.3213229708173L614.2650328039808,300.2142243240255M624.8508349566565,297.55394234808705L625.2091554631079,299.56378529290316L624.8214550208867,303.43424113066703L622.5156484761635,303.6941376113854M630.4835236365192,291.72151076732473L631.1762269032215,293.7726522323602L629.2235412646178,297.21554803307197L629.400622737595,298.21984862956685L627.8907743067412,299.323077955498L628.1514534989668,300.2195559728116L625.9817351639002,303.17714877713945L624.8677799362781,303.48725591204243L624.8214550208867,303.43424113066703M607.8350255538107,300.7122629702884L608.148272897474,305.6264529994437L601.6834657681717,305.9562996882495L600.0807692957961,306.0625560883858M614.5341009911679,304.3213229708173L614.68779611981,306.7955708326847L608.5231458744832,307.2649619388328L608.148272897474,305.6264529994437M624.8677799362781,303.48725591204243L624.9614418584314,303.97644827683746L626.1399537933725,305.1542551851394L623.9398361994337,310.48577461038826L619.8046154180596,310.4941252607982L619.3373915201009,303.96773965354544M619.8046154180596,310.4941252607982L619.8058332035641,310.50927115149386L614.9775992822256,310.9052504110141L614.68779611981,306.7955708326847M601.6834657681717,305.9562996882495L601.9874519384751,310.92489228806755L601.0242411580201,313.86573046075523L598.4240454517648,312.10382866359066L597.0912407141466,312.7641492144985L596.1234817163706,311.15897843778896L592.9243607041648,308.99599330057583M608.5231458744832,307.2649619388328L608.0663618449369,310.59562971866933L601.9874519384751,310.92489228806755M614.9775992822256,310.9052504110141L615.0351220429028,311.721734723953L608.5674383034132,312.2302080219298L608.0663618449369,310.59562971866933M608.5674383034132,312.2302080219298L608.8857479345722,317.1512356784858L604.5478650620714,317.46556109260064L603.5448867431772,318.06239039081606L603.5407452772458,315.9193084928304L601.1743424700904,314.69734698011086L601.0242411580201,313.86573046075523M623.9398361994337,310.48577461038826L625.0139625955627,312.13206399202L623.3171301374754,314.84222115807154L623.8332711751381,316.48777650802015L620.2609459916591,316.3008581863984L619.8058332035641,310.50927115149386M620.2609459916591,316.3008581863984L619.7204249906731,316.3370946179225L615.3906491796386,316.6888941891235L615.0351220429028,311.721734723953M607.85606940609,322.2418241212947L607.9031790062552,326.48412022005016L609.4065095927632,327.2387714734223L610.0122738989003,328.7842916175184L608.0650258700882,327.3428476616531L607.3176174833466,328.4172140681461L606.3435504066613,327.93722980930215L604.4418132592834,324.06342740927664L604.3962050300986,322.4735439011672L605.2135915377693,321.21397386212027L603.5524758430722,318.17355772545557L603.5448867431772,318.06239039081606M619.9438392745093,319.65843230121834L619.1090924553888,320.40167850668513L618.7817598156906,322.8225220998846L620.2115613690386,324.7980601604038L619.3692956871076,326.42776934661254L619.23330771936,324.7102320097483L615.7433397918716,321.6215967727102L615.3906491796386,316.6888941891235L610.5329019028298,317.10554495640883L608.8857479345722,317.1512356784858M623.8332711751381,316.48777650802015L624.9956610587706,317.6970695171765L624.7153767616635,318.32734560108736L621.8949586572697,318.93697106758066L620.8079023639845,319.9457553408033L619.9438392745093,319.65843230121834L619.7204249906731,316.3370946179225M615.7433397918716,321.6215967727102L612.8666754717608,321.8670991340325L612.5865799274679,322.5116765019536L610.8534125836409,322.12484205228463L610.5329019028298,317.10554495640883M610.8534125836409,322.12484205228463L607.85606940609,322.2418241212947L604.3962050300986,322.4735439011672M619.3692956871076,326.42776934661254L618.2369628767287,326.2843028665369L612.7091514052946,323.942839965442L612.5865799274679,322.5116765019536M612.7091514052946,323.942839965442L612.6373879863384,323.9756120443071L610.4747956040552,325.35373089973837L609.4065095927632,327.2387714734223" vector-effect="non-scaling-stroke"></path></svg>