<?xml version="1.0" standalone="yes"?>
<svg xmlns="http://www.w3.org/2000/svg" version="1.2" id="root" viewBox="623.9398361994337 233.3034471110709 45.72555629028716 78.82861688094908"><g id="counties"><path id="county-18039" class="county feature" d="M651.3611721856478,234.62279196715303L651.9121649837574,239.02517042603597L652.103849654077,240.64153400619944L646.4987826272104,241.26133349345696L646.4138197394986,240.45194855138266L645.8165591942745,235.19009499550157L649.6391691160965,234.80973360799635Z" style="fill: inherit; stroke: inherit; stroke-width: inherit;" vector-effect="non-scaling-stroke"><title>Elkhart County</title></path><path id="county-18141" class="county feature" d="M646.4138197394986,240.45194855138266L640.7876781441234,241.0791195061695L640.8795967962985,241.89289490771068L640.0710961985666,241.97604677372385L640.180142851476,237.87191325187575L639.4690152710397,235.8568673294909L643.5657963455467,235.4263580784542L645.8165591942745,235.19009499550157Z" style="fill: inherit; stroke: inherit; stroke-width: inherit;" vector-effect="non-scaling-stroke"><title>Saint Joseph County</title></path><path id="county-18091" class="county feature" d="M640.0710961985666,241.97604677372385L637.6959219454675,242.78948486471666L636.7617695487147,245.0883529525231L634.8197182368964,246.19513404191616L633.9366709287472,237.3345173931184L635.3288082505195,236.25221193523328L639.4690152710397,235.8568673294909L640.180142851476,237.87191325187575Z" style="fill: inherit; stroke: inherit; stroke-width: inherit;" vector-effect="non-scaling-stroke"><title>LaPorte County</title></path><path id="county-18151" class="county feature" d="M663.6138068510651,237.56523904427797L658.2551416919327,238.25745390470843L657.7228481778191,233.90206909624226L662.8246020824272,233.3034471110709L663.2269044558229,234.4648891165259Z" style="fill: inherit; stroke: inherit; stroke-width: inherit;" vector-effect="non-scaling-stroke"><title>Steuben County</title></path><path id="county-18087" class="county feature" d="M658.2551416919327,238.25745390470843L651.9121649837574,239.02517042603597L651.3611721856478,234.62279196715303L656.4106645434063,234.04713163046802L657.7228481778191,233.90206909624226Z" style="fill: inherit; stroke: inherit; stroke-width: inherit;" vector-effect="non-scaling-stroke"><title>LaGrange County</title></path><path id="county-18089" class="county feature" d="M630.0911308959305,239.32798843888168L630.803521004987,246.47792243512197L630.0621938247975,246.98814188142865L628.235495676136,248.22222135020138L626.6636046462647,248.2905612100974L626.4421246970712,245.8128238549648L626.1749020243237,242.65542029076437L625.7959540994761,238.1377080131566L627.1151794246935,239.05013538300068Z" style="fill: inherit; stroke: inherit; stroke-width: inherit;" vector-effect="non-scaling-stroke"><title>Lake County</title></path><path id="county-18127" class="county feature" d="M634.8197182368964,246.19513404191616L631.9505442073256,245.5342856457844L630.803521004987,246.47792243512197L630.0911308959305,239.32798843888168L633.9366709287472,237.3345173931184Z" style="fill: inherit; stroke: inherit; stroke-width: inherit;" vector-effect="non-scaling-stroke"><title>Porter County</title></path><path id="county-18033" class="county feature" d="M663.8538382054752,239.50870239533936L664.2011534220269,242.40089639400185L658.8400621110911,243.15966592702375L658.2551416919327,238.25745390470843L663.6138068510651,237.56523904427797Z" style="fill: inherit; stroke: inherit; stroke-width: inherit;" vector-effect="non-scaling-stroke"><title>DeKalb County</title></path><path id="county-18113" class="county feature" d="M658.2551416919327,238.25745390470843L658.8400621110911,243.15966592702375L657.2410157257871,243.34231894908078L654.0626554024116,243.65884320345594L652.4143758646153,243.29883649359658L652.103849654077,240.64153400619944L651.9121649837574,239.02517042603597Z" style="fill: inherit; stroke: inherit; stroke-width: inherit;" vector-effect="non-scaling-stroke"><title>Noble County</title></path><path id="county-18099" class="county feature" d="M646.4138197394986,240.45194855138266L646.4987826272104,241.26133349345696L647.0896421033202,246.17097683753707L646.7666362436289,246.20994607845716L641.3626473841007,246.79243058389136L640.8795967962985,241.89289490771068L640.7876781441234,241.0791195061695Z" style="fill: inherit; stroke: inherit; stroke-width: inherit;" vector-effect="non-scaling-stroke"><title>Marshall County</title></path><path id="county-18085" class="county feature" d="M652.103849654077,240.64153400619944L652.4143758646153,243.29883649359658L652.478137791254,247.98873716329786L648.851677499787,248.45107857230767L646.95930900313,247.85641358457963L646.7666362436289,246.20994607845716L647.0896421033202,246.17097683753707L646.4987826272104,241.26133349345696Z" style="fill: inherit; stroke: inherit; stroke-width: inherit;" vector-effect="non-scaling-stroke"><title>Kosciusko County</title></path><path id="county-18149" class="county feature" d="M640.8795967962985,241.89289490771068L641.3626473841007,246.79243058389136L634.9356335945852,247.40614036377326L634.8197182368964,246.19513404191616L636.7617695487147,245.0883529525231L637.6959219454675,242.78948486471666L640.0710961985666,241.97604677372385Z" style="fill: inherit; stroke: inherit; stroke-width: inherit;" vector-effect="non-scaling-stroke"><title>Starke County</title></path><path id="county-18183" class="county feature" d="M657.2410157257871,243.34231894908078L657.4042763654796,248.22842084239323L653.127321358156,248.75929446294322L652.478137791254,247.98873716329786L652.4143758646153,243.29883649359658L654.0626554024116,243.65884320345594Z" style="fill: inherit; stroke: inherit; stroke-width: inherit;" vector-effect="non-scaling-stroke"><title>Whitley County</title></path><path id="county-18073" class="county feature" d="M634.8197182368964,246.19513404191616L634.9356335945852,247.40614036377326L635.3970709153373,252.27964943029235L634.7497468620179,253.74985180407043L633.1732458239793,253.90394301710774L633.3663243788051,255.79816427282003L631.0097736072653,256.0184242245398L630.0621938247975,246.98814188142865L630.803521004987,246.47792243512197L631.9505442073256,245.5342856457844Z" style="fill: inherit; stroke: inherit; stroke-width: inherit;" vector-effect="non-scaling-stroke"><title>Jasper County</title></path><path id="county-18003" class="county feature" d="M664.2426307516589,242.7513571282774L664.8300470899554,247.67201002677496L664.9828122223843,248.92001732754966L661.2216553505133,249.4493615271159L657.5851439732601,249.87843144572173L657.4042763654796,248.22842084239323L657.2410157257871,243.34231894908078L658.8400621110911,243.15966592702375L664.2011534220269,242.40089639400185Z" style="fill: inherit; stroke: inherit; stroke-width: inherit;" vector-effect="non-scaling-stroke"><title>Allen County</title></path><path id="county-18111" class="county feature" d="M631.0097736072653,256.0184242245398L627.393112018334,256.33857449405036L626.9346412204345,251.21001327092813L626.6636046462647,248.2905612100974L628.235495676136,248.22222135020138L630.0621938247975,246.98814188142865Z" style="fill: inherit; stroke: inherit; stroke-width: inherit;" vector-effect="non-scaling-stroke"><title>Newton County</title></path><path id="county-18049" class="county feature" d="M648.851677499787,248.45107857230767L648.9286328890071,249.27085498963731L645.8459712696433,249.65248418636168L646.0092370772343,251.27384696971717L641.8358652073445,251.6953415389147L641.3626473841007,246.79243058389136L646.7666362436289,246.20994607845716L646.95930900313,247.85641358457963Z" style="fill: inherit; stroke: inherit; stroke-width: inherit;" vector-effect="non-scaling-stroke"><title>Fulton County</title></path><path id="county-18131" class="county feature" d="M641.3626473841007,246.79243058389136L641.8358652073445,251.6953415389147L640.2643274029804,251.83219878973193L635.3970709153373,252.27964943029235L634.9356335945852,247.40614036377326Z" style="fill: inherit; stroke: inherit; stroke-width: inherit;" vector-effect="non-scaling-stroke"><title>Pulaski County</title></path><path id="county-18169" class="county feature" d="M652.478137791254,247.98873716329786L653.127321358156,248.75929446294322L653.9175781727993,255.2877131313794L650.7576354286933,255.6572464628473L649.716238324293,255.78153400581732L648.9286328890071,249.27085498963731L648.851677499787,248.45107857230767Z" style="fill: inherit; stroke: inherit; stroke-width: inherit;" vector-effect="non-scaling-stroke"><title>Wabash County</title></path><path id="county-18069" class="county feature" d="M657.4042763654796,248.22842084239323L657.5851439732601,249.87843144572173L658.149190109036,254.7943028912573L656.5626172636795,254.9873935078457L653.9175781727993,255.2877131313794L653.127321358156,248.75929446294322Z" style="fill: inherit; stroke: inherit; stroke-width: inherit;" vector-effect="non-scaling-stroke"><title>Huntington County</title></path><path id="county-18103" class="county feature" d="M648.9286328890071,249.27085498963731L649.716238324293,255.78153400581732L650.7576354286933,255.6572464628473L650.9453267125431,257.26839840127184L646.7390942818535,257.7668955564403L646.0092370772343,251.27384696971717L645.8459712696433,249.65248418636168Z" style="fill: inherit; stroke: inherit; stroke-width: inherit;" vector-effect="non-scaling-stroke"><title>Miami County</title></path><path id="county-18001" class="county feature" d="M665.4232560689031,252.55558797223023L665.7636245384983,255.4740837469518L662.0572317532142,255.98189339758153L661.2216553505133,249.4493615271159L664.9828122223843,248.92001732754966Z" style="fill: inherit; stroke: inherit; stroke-width: inherit;" vector-effect="non-scaling-stroke"><title>Adams County</title></path><path id="county-18179" class="county feature" d="M661.2216553505133,249.4493615271159L662.0572317532142,255.98189339758153L660.2039291773908,256.2140374877363L656.7685125443321,256.60664378023944L656.5626172636795,254.9873935078457L658.149190109036,254.7943028912573L657.5851439732601,249.87843144572173Z" style="fill: inherit; stroke: inherit; stroke-width: inherit;" vector-effect="non-scaling-stroke"><title>Wells County</title></path><path id="county-18181" class="county feature" d="M640.2643274029804,251.83219878973193L640.5857030481502,255.11547835588726L638.2620989291179,255.3108913051468L638.2566916379735,258.6316431849905L633.7174752506369,259.0507343305161L633.3663243788051,255.79816427282003L633.1732458239793,253.90394301710774L634.7497468620179,253.74985180407043L635.3970709153373,252.27964943029235Z" style="fill: inherit; stroke: inherit; stroke-width: inherit;" vector-effect="non-scaling-stroke"><title>White County</title></path><path id="county-18017" class="county feature" d="M641.8358652073445,251.6953415389147L646.0092370772343,251.27384696971717L646.7390942818535,257.7668955564403L643.8138840675293,258.09183639355126L643.5742996825437,255.6346218074193L641.4587007401637,255.84894929507482L640.5857030481502,255.11547835588726L640.2643274029804,251.83219878973193Z" style="fill: inherit; stroke: inherit; stroke-width: inherit;" vector-effect="non-scaling-stroke"><title>Cass County</title></path><path id="county-18007" class="county feature" d="M631.0097736072653,256.0184242245398L633.3663243788051,255.79816427282003L633.7174752506369,259.0507343305161L633.8962822993211,260.68350515249915L627.8188315914413,261.21429975231683L627.7951362234775,260.9492152669653L627.393112018334,256.33857449405036Z" style="fill: inherit; stroke: inherit; stroke-width: inherit;" vector-effect="non-scaling-stroke"><title>Benton County</title></path><path id="county-18015" class="county feature" d="M640.5857030481502,255.11547835588726L641.4587007401637,255.84894929507482L643.5742996825437,255.6346218074193L643.8138840675293,258.09183639355126L644.0354997277066,260.5226705932705L639.5663243312569,260.9651269428791L639.3171987090362,258.5319828975952L638.2566916379735,258.6316431849905L638.2620989291179,255.3108913051468Z" style="fill: inherit; stroke: inherit; stroke-width: inherit;" vector-effect="non-scaling-stroke"><title>Carroll County</title></path><path id="county-18053" class="county feature" d="M656.5626172636795,254.9873935078457L656.7685125443321,256.60664378023944L657.2008652517322,260.1191666412219L655.3136774820223,260.3211470551371L651.3409606790495,260.7738732935279L651.2837508355666,260.2395450883877L650.9453267125431,257.26839840127184L650.7576354286933,255.6572464628473L653.9175781727993,255.2877131313794Z" style="fill: inherit; stroke: inherit; stroke-width: inherit;" vector-effect="non-scaling-stroke"><title>Grant County</title></path><path id="county-18075" class="county feature" d="M666.2292956352155,259.5806669998668L666.3288880046275,260.37908907849953L660.5137290106795,261.1186290844355L660.3441077931801,259.7638550552563L660.2039291773908,256.2140374877363L662.0572317532142,255.98189339758153L665.7636245384983,255.4740837469518Z" style="fill: inherit; stroke: inherit; stroke-width: inherit;" vector-effect="non-scaling-stroke"><title>Jay County</title></path><path id="county-18009" class="county feature" d="M660.2039291773908,256.2140374877363L660.3441077931801,259.7638550552563L657.2008652517322,260.1191666412219L656.7685125443321,256.60664378023944Z" style="fill: inherit; stroke: inherit; stroke-width: inherit;" vector-effect="non-scaling-stroke"><title>Blackford County</title></path><path id="county-18067" class="county feature" d="M651.2837508355666,260.2395450883877L645.957871020946,260.8732835729427L646.0140824890332,261.41891192443575L644.0354997277066,260.5226705932705L643.8138840675293,258.09183639355126L646.7390942818535,257.7668955564403L650.9453267125431,257.26839840127184Z" style="fill: inherit; stroke: inherit; stroke-width: inherit;" vector-effect="non-scaling-stroke"><title>Howard County</title></path><path id="county-18157" class="county feature" d="M638.2566916379735,258.6316431849905L639.3171987090362,258.5319828975952L639.5663243312569,260.9651269428791L639.9522350073235,265.0499105703791L634.3663423956691,265.5765429285283L634.1091454787194,262.7319867321894L633.8962822993211,260.68350515249915L633.7174752506369,259.0507343305161Z" style="fill: inherit; stroke: inherit; stroke-width: inherit;" vector-effect="non-scaling-stroke"><title>Tippecanoe County</title></path><path id="county-18171" class="county feature" d="M633.8962822993211,260.68350515249915L634.1091454787194,262.7319867321894L632.2339652382607,263.9487203005855L629.5937639740058,266.8742939954501L630.1000055906612,267.6232576740374L628.3051790963442,267.396565994076L627.8188315914413,261.21429975231683Z" style="fill: inherit; stroke: inherit; stroke-width: inherit;" vector-effect="non-scaling-stroke"><title>Warren County</title></path><path id="county-18023" class="county feature" d="M644.0354997277066,260.5226705932705L646.0140824890332,261.41891192443575L646.3191190457626,264.37981295152485L646.3919007972468,265.0367587066122L640.0179222769747,265.7187732275486L639.9522350073235,265.0499105703791L639.5663243312569,260.9651269428791Z" style="fill: inherit; stroke: inherit; stroke-width: inherit;" vector-effect="non-scaling-stroke"><title>Clinton County</title></path><path id="county-18159" class="county feature" d="M651.2837508355666,260.2395450883877L651.3409606790495,260.7738732935279L651.6607555951734,263.7606922243742L646.3191190457626,264.37981295152485L646.0140824890332,261.41891192443575L645.957871020946,260.8732835729427Z" style="fill: inherit; stroke: inherit; stroke-width: inherit;" vector-effect="non-scaling-stroke"><title>Tipton County</title></path><path id="county-18095" class="county feature" d="M655.3136774820223,260.3211470551371L655.9774248003773,265.9788393203165L656.2433860335124,268.440602058349L652.2131560674936,268.9199993457365L651.6607555951734,263.7606922243742L651.3409606790495,260.7738732935279Z" style="fill: inherit; stroke: inherit; stroke-width: inherit;" vector-effect="non-scaling-stroke"><title>Madison County</title></path><path id="county-18035" class="county feature" d="M657.2008652517322,260.1191666412219L660.3441077931801,259.7638550552563L660.5137290106795,261.1186290844355L661.0696169394585,265.41439779693246L655.9774248003773,265.9788393203165L655.3136774820223,260.3211470551371Z" style="fill: inherit; stroke: inherit; stroke-width: inherit;" vector-effect="non-scaling-stroke"><title>Delaware County</title></path><path id="county-18045" class="county feature" d="M634.1091454787194,262.7319867321894L634.3663423956691,265.5765429285283L634.8534769191979,270.48721778130835L630.2051928107112,270.92625631896306L630.1000055906612,267.6232576740374L629.5937639740058,266.8742939954501L632.2339652382607,263.9487203005855Z" style="fill: inherit; stroke: inherit; stroke-width: inherit;" vector-effect="non-scaling-stroke"><title>Fountain County</title></path><path id="county-18135" class="county feature" d="M666.3288880046275,260.37908907849953L666.9033138470112,266.09846216268386L661.4008373444024,266.74798461027785L661.0696169394585,265.41439779693246L660.5137290106795,261.1186290844355Z" style="fill: inherit; stroke: inherit; stroke-width: inherit;" vector-effect="non-scaling-stroke"><title>Randolph County</title></path><path id="county-18057" class="county feature" d="M652.2131560674936,268.9199993457365L651.187623244534,269.34092866961964L646.9243704825105,269.80749077134567L646.3919007972468,265.0367587066122L646.3191190457626,264.37981295152485L651.6607555951734,263.7606922243742Z" style="fill: inherit; stroke: inherit; stroke-width: inherit;" vector-effect="non-scaling-stroke"><title>Hamilton County</title></path><path id="county-18107" class="county feature" d="M639.9522350073235,265.0499105703791L640.0179222769747,265.7187732275486L640.4991969618792,270.5151352838951L640.6060676719673,271.6032651061007L636.157798087253,271.9981431343655L634.9996318733596,272.09633641473147L634.8534769191979,270.48721778130835L634.3663423956691,265.5765429285283Z" style="fill: inherit; stroke: inherit; stroke-width: inherit;" vector-effect="non-scaling-stroke"><title>Montgomery County</title></path><path id="county-18011" class="county feature" d="M646.3919007972468,265.0367587066122L646.9243704825105,269.80749077134567L645.7071654688758,269.971042587616L640.4991969618792,270.5151352838951L640.0179222769747,265.7187732275486Z" style="fill: inherit; stroke: inherit; stroke-width: inherit;" vector-effect="non-scaling-stroke"><title>Boone County</title></path><path id="county-18165" class="county feature" d="M630.1000055906612,267.6232576740374L630.2051928107112,270.92625631896306L631.2853258965979,272.51047679439307L631.325604572775,277.3450916564775L629.2017915683873,277.54768258290926L628.7243333463354,272.3746929199601L628.3051790963442,267.396565994076Z" style="fill: inherit; stroke: inherit; stroke-width: inherit;" vector-effect="non-scaling-stroke"><title>Vermillion County</title></path><path id="county-18065" class="county feature" d="M661.0696169394585,265.41439779693246L661.4008373444024,266.74798461027785L661.5887680238129,270.8257176338416L660.4548613417076,270.9717053211946L656.2826746075696,271.45511253908774L656.2433860335124,268.440602058349L655.9774248003773,265.9788393203165Z" style="fill: inherit; stroke: inherit; stroke-width: inherit;" vector-effect="non-scaling-stroke"><title>Henry County</title></path><path id="county-18177" class="county feature" d="M666.9033138470112,266.09846216268386L667.0731411766762,267.7511918781513L667.4691446749912,271.31737751927255L664.385377121787,271.90569555449326L662.2569925926939,272.13332037525186L661.5887680238129,270.8257176338416L661.4008373444024,266.74798461027785Z" style="fill: inherit; stroke: inherit; stroke-width: inherit;" vector-effect="non-scaling-stroke"><title>Wayne County</title></path><path id="county-18121" class="county feature" d="M634.8534769191979,270.48721778130835L634.9996318733596,272.09633641473147L636.157798087253,271.9981431343655L636.5730582079661,276.9166996272518L633.930276646873,277.11998001670247L631.325604572775,277.3450916564775L631.2853258965979,272.51047679439307L630.2051928107112,270.92625631896306Z" style="fill: inherit; stroke: inherit; stroke-width: inherit;" vector-effect="non-scaling-stroke"><title>Parke County</title></path><path id="county-18059" class="county feature" d="M656.2433860335124,268.440602058349L656.2826746075696,271.45511253908774L655.9511715696642,273.16290526679927L651.4425004367968,273.6734421124744L651.187623244534,269.34092866961964L652.2131560674936,268.9199993457365Z" style="fill: inherit; stroke: inherit; stroke-width: inherit;" vector-effect="non-scaling-stroke"><title>Hancock County</title></path><path id="county-18097" class="county feature" d="M651.187623244534,269.34092866961964L651.4425004367968,273.6734421124744L651.5544106148955,274.7764891693514L647.3470533095842,275.30587699567343L646.2660694520483,275.4431876542292L645.7071654688758,269.971042587616L646.9243704825105,269.80749077134567Z" style="fill: inherit; stroke: inherit; stroke-width: inherit;" vector-effect="non-scaling-stroke"><title>Marion County</title></path><path id="county-18063" class="county feature" d="M645.7071654688758,269.971042587616L646.2660694520483,275.4431876542292L644.3460453203703,276.23323790125824L641.6366238413821,276.4950572329765L641.1450299293854,275.99201002226334L640.6060676719673,271.6032651061007L640.4991969618792,270.5151352838951Z" style="fill: inherit; stroke: inherit; stroke-width: inherit;" vector-effect="non-scaling-stroke"><title>Hendricks County</title></path><path id="county-18133" class="county feature" d="M640.6060676719673,271.6032651061007L641.1450299293854,275.99201002226334L641.6366238413821,276.4950572329765L641.4507091573555,278.99702210487635L637.8480228901765,279.2852928503338L636.7757100037645,279.3792557873261L636.5730582079661,276.9166996272518L636.157798087253,271.9981431343655Z" style="fill: inherit; stroke: inherit; stroke-width: inherit;" vector-effect="non-scaling-stroke"><title>Putnam County</title></path><path id="county-18041" class="county feature" d="M664.385377121787,271.90569555449326L664.7687200581997,275.4359950755421L661.060546992182,275.87373921010385L660.4548613417076,270.9717053211946L661.5887680238129,270.8257176338416L662.2569925926939,272.13332037525186Z" style="fill: inherit; stroke: inherit; stroke-width: inherit;" vector-effect="non-scaling-stroke"><title>Fayette County</title></path><path id="county-18139" class="county feature" d="M660.4548613417076,270.9717053211946L661.060546992182,275.87373921010385L661.2187909382185,277.2274950605564L656.5063141076145,277.76124039303113L655.9511715696642,273.16290526679927L656.2826746075696,271.45511253908774Z" style="fill: inherit; stroke: inherit; stroke-width: inherit;" vector-effect="non-scaling-stroke"><title>Rush County</title></path><path id="county-18161" class="county feature" d="M667.4691446749912,271.31737751927255L667.8159702198026,274.29430697659234L667.9067349451074,275.1492396216677L664.7687200581997,275.4359950755421L664.385377121787,271.90569555449326Z" style="fill: inherit; stroke: inherit; stroke-width: inherit;" vector-effect="non-scaling-stroke"><title>Union County</title></path><path id="county-18145" class="county feature" d="M655.9511715696642,273.16290526679927L656.5063141076145,277.76124039303113L655.9361221433577,279.77021795097903L652.1331159081984,280.23011321150193L651.5544106148955,274.7764891693514L651.4425004367968,273.6734421124744Z" style="fill: inherit; stroke: inherit; stroke-width: inherit;" vector-effect="non-scaling-stroke"><title>Shelby County</title></path><path id="county-18081" class="county feature" d="M651.5544106148955,274.7764891693514L652.1331159081984,280.23011321150193L650.2398748787327,280.49076449794063L647.8850099862414,280.7820600601103L647.3470533095842,275.30587699567343Z" style="fill: inherit; stroke: inherit; stroke-width: inherit;" vector-effect="non-scaling-stroke"><title>Johnson County</title></path><path id="county-18109" class="county feature" d="M647.3470533095842,275.30587699567343L647.8850099862414,280.7820600601103L646.0394422078916,281.0073957100143L642.4735225732501,281.2141564025568L642.225790324673,278.9175523299075L641.4507091573555,278.99702210487635L641.6366238413821,276.4950572329765L644.3460453203703,276.23323790125824L646.2660694520483,275.4431876542292Z" style="fill: inherit; stroke: inherit; stroke-width: inherit;" vector-effect="non-scaling-stroke"><title>Morgan County</title></path><path id="county-18167" class="county feature" d="M633.930276646873,277.11998001670247L633.5253471790292,278.79776307031034L633.9484336836123,283.7092496465167L628.7560208074398,284.171006540265L629.6419008063283,282.41670606291814L629.4252882852797,279.991975928329L629.2017915683873,277.54768258290926L631.325604572775,277.3450916564775Z" style="fill: inherit; stroke: inherit; stroke-width: inherit;" vector-effect="non-scaling-stroke"><title>Vigo County</title></path><path id="county-18021" class="county feature" d="M636.5730582079661,276.9166996272518L636.7757100037645,279.3792557873261L637.8480228901765,279.2852928503338L638.0475154754076,281.7493509332778L636.4621267597885,281.89283902776685L636.7611304027631,285.1695349634899L634.0946740886188,285.3474109394691L633.9484336836123,283.7092496465167L633.5253471790292,278.79776307031034L633.930276646873,277.11998001670247Z" style="fill: inherit; stroke: inherit; stroke-width: inherit;" vector-effect="non-scaling-stroke"><title>Clay County</title></path><path id="county-18047" class="county feature" d="M664.7687200581997,275.4359950755421L667.9067349451074,275.1492396216677L668.3303356469128,279.2136129300859L664.8203261474098,279.58609363865105L662.6539274519794,279.81428241339336L661.6258988412428,280.69028098465867L661.2187909382185,277.2274950605564L661.060546992182,275.87373921010385Z" style="fill: inherit; stroke: inherit; stroke-width: inherit;" vector-effect="non-scaling-stroke"><title>Franklin County</title></path><path id="county-18119" class="county feature" d="M641.4507091573555,278.99702210487635L642.225790324673,278.9175523299075L642.4735225732501,281.2141564025568L641.7184266632262,281.51044804801757L642.0684020926483,284.7018131556755L636.7611304027631,285.1695349634899L636.4621267597885,281.89283902776685L638.0475154754076,281.7493509332778L637.8480228901765,279.2852928503338Z" style="fill: inherit; stroke: inherit; stroke-width: inherit;" vector-effect="non-scaling-stroke"><title>Owen County</title></path><path id="county-18031" class="county feature" d="M661.2187909382185,277.2274950605564L661.6258988412428,280.69028098465867L659.7344506053993,282.28055830510255L658.092595293256,283.6344479959944L656.3484078601668,283.88672360289354L655.9361221433577,279.77021795097903L656.5063141076145,277.76124039303113Z" style="fill: inherit; stroke: inherit; stroke-width: inherit;" vector-effect="non-scaling-stroke"><title>Decatur County</title></path><path id="county-18105" class="county feature" d="M646.0394422078916,281.0073957100143L646.7587512832085,286.45769617950043L647.4964524624345,286.37332859301864L647.6177442390822,287.45841751667615L642.3986420634116,287.9543565044861L642.0684020926483,284.7018131556755L641.7184266632262,281.51044804801757L642.4735225732501,281.2141564025568Z" style="fill: inherit; stroke: inherit; stroke-width: inherit;" vector-effect="non-scaling-stroke"><title>Monroe County</title></path><path id="county-18005" class="county feature" d="M655.9361221433577,279.77021795097903L656.3484078601668,283.88672360289354L654.7391482604437,284.0946796036783L654.8718737650669,285.2304163462195L654.0453622942064,285.8386868688816L650.8937091740574,285.99325307320635L650.2398748787327,280.49076449794063L652.1331159081984,280.23011321150193Z" style="fill: inherit; stroke: inherit; stroke-width: inherit;" vector-effect="non-scaling-stroke"><title>Bartholomew County</title></path><path id="county-18013" class="county feature" d="M650.2398748787327,280.49076449794063L650.8937091740574,285.99325307320635L647.4964524624345,286.37332859301864L646.7587512832085,286.45769617950043L646.0394422078916,281.0073957100143L647.8850099862414,280.7820600601103Z" style="fill: inherit; stroke: inherit; stroke-width: inherit;" vector-effect="non-scaling-stroke"><title>Brown County</title></path><path id="county-18137" class="county feature" d="M664.8203261474098,279.58609363865105L664.648816389767,286.42296071326484L664.6371459479976,286.77398299747404L663.7114207261814,287.1796473729544L660.2535949953148,287.5860046823624L659.7344506053993,282.28055830510255L661.6258988412428,280.69028098465867L662.6539274519794,279.81428241339336Z" style="fill: inherit; stroke: inherit; stroke-width: inherit;" vector-effect="non-scaling-stroke"><title>Ripley County</title></path><path id="county-18029" class="county feature" d="M664.8203261474098,279.58609363865105L668.3303356469128,279.2136129300859L668.762142200546,282.955135487333L668.1024003037741,284.4473505669488L664.648816389767,286.42296071326484Z" style="fill: inherit; stroke: inherit; stroke-width: inherit;" vector-effect="non-scaling-stroke"><title>Dearborn County</title></path><path id="county-18153" class="county feature" d="M633.9484336836123,283.7092496465167L634.0946740886188,285.3474109394691L634.552789981252,290.3041584349995L630.517965487307,290.77171355941005L628.571840904809,286.11797285629166L628.7560208074398,284.171006540265Z" style="fill: inherit; stroke: inherit; stroke-width: inherit;" vector-effect="non-scaling-stroke"><title>Sullivan County</title></path><path id="county-18079" class="county feature" d="M660.2535949953148,287.5860046823624L657.0384220881741,289.7909279764074L655.4551937031421,290.11329546821537L654.8718737650669,285.2304163462195L654.7391482604437,284.0946796036783L656.3484078601668,283.88672360289354L658.092595293256,283.6344479959944L659.7344506053993,282.28055830510255Z" style="fill: inherit; stroke: inherit; stroke-width: inherit;" vector-effect="non-scaling-stroke"><title>Jennings County</title></path><path id="county-18055" class="county feature" d="M636.7611304027631,285.1695349634899L642.0684020926483,284.7018131556755L642.3986420634116,287.9543565044861L642.5500488198256,289.59935056431334L639.3732893433775,289.91820156231745L636.5912657682507,290.186446425368L634.552789981252,290.3041584349995L634.0946740886188,285.3474109394691Z" style="fill: inherit; stroke: inherit; stroke-width: inherit;" vector-effect="non-scaling-stroke"><title>Greene County</title></path><path id="county-18071" class="county feature" d="M654.8718737650669,285.2304163462195L655.4551937031421,290.11329546821537L654.2641353100321,291.6264950902066L652.8277264883832,291.14152531194645L648.6608571719427,291.65627115514803L648.1358855475422,287.4022949188226L647.6177442390822,287.45841751667615L647.4964524624345,286.37332859301864L650.8937091740574,285.99325307320635L654.0453622942064,285.8386868688816Z" style="fill: inherit; stroke: inherit; stroke-width: inherit;" vector-effect="non-scaling-stroke"><title>Jackson County</title></path><path id="county-18115" class="county feature" d="M668.4913071398909,286.870544214648L664.6323912591819,287.2761148322828L664.6371459479976,286.77398299747404L664.648816389767,286.42296071326484L668.1024003037741,284.4473505669488Z" style="fill: inherit; stroke: inherit; stroke-width: inherit;" vector-effect="non-scaling-stroke"><title>Ohio County</title></path><path id="county-18093" class="county feature" d="M647.6177442390822,287.45841751667615L648.1358855475422,287.4022949188226L648.6608571719427,291.65627115514803L648.3273547244563,293.1261083544449L642.9526236290741,293.6928595135457L642.5500488198256,289.59935056431334L642.3986420634116,287.9543565044861Z" style="fill: inherit; stroke: inherit; stroke-width: inherit;" vector-effect="non-scaling-stroke"><title>Lawrence County</title></path><path id="county-18155" class="county feature" d="M668.4913071398909,286.870544214648L669.6653924897208,287.5590784633922L669.5300662621305,288.9683127032505L666.6080221739738,289.7357692664185L664.2076868990105,291.3465547254667L663.7114207261814,287.1796473729544L664.6371459479976,286.77398299747404L664.6323912591819,287.2761148322828Z" style="fill: inherit; stroke: inherit; stroke-width: inherit;" vector-effect="non-scaling-stroke"><title>Switzerland County</title></path><path id="county-18077" class="county feature" d="M663.7114207261814,287.1796473729544L664.2076868990105,291.3465547254667L662.2283198789137,290.71678504717784L660.5799800314853,291.400942004905L661.1734235261915,293.68090780803925L659.1004375833679,293.5337983429707L658.9300728981455,292.1768705515599L657.2042066499486,291.2644876415196L657.0384220881741,289.7909279764074L660.2535949953148,287.5860046823624Z" style="fill: inherit; stroke: inherit; stroke-width: inherit;" vector-effect="non-scaling-stroke"><title>Jefferson County</title></path><path id="county-18083" class="county feature" d="M636.5912657682507,290.186446425368L634.6510421320303,292.2104025826143L634.3696437040625,294.40292826139L635.1560577746857,297.11349639917546L632.0026681328729,297.63818650993517L630.206671240629,299.31293954734235L628.1514534989668,300.2195559728116L627.8907743067412,299.323077955498L629.400622737595,298.21984862956685L629.2235412646178,297.21554803307197L631.1762269032215,293.7726522323602L630.4835236365192,291.72151076732473L630.517965487307,290.77171355941005L634.552789981252,290.3041584349995Z" style="fill: inherit; stroke: inherit; stroke-width: inherit;" vector-effect="non-scaling-stroke"><title>Knox County</title></path><path id="county-18101" class="county feature" d="M642.5500488198256,289.59935056431334L642.9526236290741,293.6928595135457L643.2586839484497,296.6988583876562L639.8127583036496,297.4322809651329L639.3732893433775,289.91820156231745Z" style="fill: inherit; stroke: inherit; stroke-width: inherit;" vector-effect="non-scaling-stroke"><title>Martin County</title></path><path id="county-18027" class="county feature" d="M639.8127583036496,297.4322809651329L637.660656644227,297.46171337979274L635.1560577746857,297.11349639917546L634.3696437040625,294.40292826139L634.6510421320303,292.2104025826143L636.5912657682507,290.186446425368L639.3732893433775,289.91820156231745Z" style="fill: inherit; stroke: inherit; stroke-width: inherit;" vector-effect="non-scaling-stroke"><title>Daviess County</title></path><path id="county-18143" class="county feature" d="M657.0384220881741,289.7909279764074L657.2042066499486,291.2644876415196L658.9300728981455,292.1768705515599L659.1004375833679,293.5337983429707L655.8904093291762,293.90913970566635L655.1940013312715,294.8102230638275L654.6237841002364,294.60332855486627L654.2641353100321,291.6264950902066L655.4551937031421,290.11329546821537Z" style="fill: inherit; stroke: inherit; stroke-width: inherit;" vector-effect="non-scaling-stroke"><title>Scott County</title></path><path id="county-18175" class="county feature" d="M654.2641353100321,291.6264950902066L654.6237841002364,294.60332855486627L655.1940013312715,294.8102230638275L653.2477380259468,296.3966546371182L653.3713517740337,297.71487934321647L652.8188885604509,297.78230864376087L649.6128081064471,298.0253422470912L648.8363948435857,298.10093645430163L648.3273547244563,293.1261083544449L648.6608571719427,291.65627115514803L652.8277264883832,291.14152531194645Z" style="fill: inherit; stroke: inherit; stroke-width: inherit;" vector-effect="non-scaling-stroke"><title>Washington County</title></path><path id="county-18117" class="county feature" d="M648.3273547244563,293.1261083544449L648.8363948435857,298.10093645430163L648.8864861975492,298.6415868471231L643.5119484407671,299.1676294384688L643.2586839484497,296.6988583876562L642.9526236290741,293.6928595135457Z" style="fill: inherit; stroke: inherit; stroke-width: inherit;" vector-effect="non-scaling-stroke"><title>Orange County</title></path><path id="county-18019" class="county feature" d="M661.1734235261915,293.68090780803925L661.2368630963122,294.85713824517586L658.5785534579508,297.8720340509012L657.3270634219185,300.13691610374883L656.5555600518752,299.8361956917512L656.0834273616708,297.68946644940434L653.3713517740337,297.71487934321647L653.2477380259468,296.3966546371182L655.1940013312715,294.8102230638275L655.8904093291762,293.90913970566635L659.1004375833679,293.5337983429707Z" style="fill: inherit; stroke: inherit; stroke-width: inherit;" vector-effect="non-scaling-stroke"><title>Clark County</title></path><path id="county-18125" class="county feature" d="M637.660656644227,297.46171337979274L638.1490713228284,302.75725401243915L634.6006320566287,302.8305658687476L634.3854152793874,300.31032381065586L633.0672249829845,300.5240407560342L632.0026681328729,297.63818650993517L635.1560577746857,297.11349639917546Z" style="fill: inherit; stroke: inherit; stroke-width: inherit;" vector-effect="non-scaling-stroke"><title>Pike County</title></path><path id="county-18051" class="county feature" d="M634.6006320566287,302.8305658687476L634.6716813231344,303.6632580719332L632.5616275405912,304.54247286837733L629.3544074540525,304.76945921022684L627.6502566609646,303.7800614476937L624.9614418584314,303.97644827683746L624.8677799362781,303.48725591204243L625.9817351639002,303.17714877713945L628.1514534989668,300.2195559728116L630.206671240629,299.31293954734235L632.0026681328729,297.63818650993517L633.0672249829845,300.5240407560342L634.3854152793874,300.31032381065586Z" style="fill: inherit; stroke: inherit; stroke-width: inherit;" vector-effect="non-scaling-stroke"><title>Gibson County</title></path><path id="county-18037" class="county feature" d="M643.2586839484497,296.6988583876562L643.5119484407671,299.1676294384688L643.7862004166856,301.6364180517569L642.2734530719324,302.8815373900002L639.0051879151642,303.2247779395136L638.1490713228284,302.75725401243915L637.660656644227,297.46171337979274L639.8127583036496,297.4322809651329Z" style="fill: inherit; stroke: inherit; stroke-width: inherit;" vector-effect="non-scaling-stroke"><title>Dubois County</title></path><path id="county-18025" class="county feature" d="M649.6128081064471,298.0253422470912L649.668505858323,301.72519836855076L648.9933232221507,302.6588321547373L647.207479087312,303.98434101708574L647.056176725551,302.3777446714993L645.4563747026816,302.5246852834491L645.356785369135,301.41889631702236L643.7862004166856,301.6364180517569L643.5119484407671,299.1676294384688L648.8864861975492,298.6415868471231L648.8363948435857,298.10093645430163Z" style="fill: inherit; stroke: inherit; stroke-width: inherit;" vector-effect="non-scaling-stroke"><title>Crawford County</title></path><path id="county-18061" class="county feature" d="M652.8188885604509,297.78230864376087L652.9962637813903,299.41776427199625L655.2063780068936,302.07141956930104L654.8474355658046,305.3633372992572L654.1384283895135,305.5718516885936L651.5044568095641,305.62853978049725L650.1417014368553,304.9015733840139L648.9933232221507,302.6588321547373L649.668505858323,301.72519836855076L649.6128081064471,298.0253422470912Z" style="fill: inherit; stroke: inherit; stroke-width: inherit;" vector-effect="non-scaling-stroke"><title>Harrison County</title></path><path id="county-18043" class="county feature" d="M653.3713517740337,297.71487934321647L656.0834273616708,297.68946644940434L656.5555600518752,299.8361956917512L655.2063780068936,302.07141956930104L652.9962637813903,299.41776427199625L652.8188885604509,297.78230864376087Z" style="fill: inherit; stroke: inherit; stroke-width: inherit;" vector-effect="non-scaling-stroke"><title>Floyd County</title></path><path id="county-18123" class="county feature" d="M647.207479087312,303.98434101708574L646.9181848311068,305.4418055751621L646.8566745678468,307.712149676546L644.9062858221868,309.4879630689385L644.9681463471514,308.4608985841569L643.4137024441325,308.33362525928806L642.3280369443024,306.795561217554L642.916730370655,306.7424275312153L642.2734530719324,302.8815373900002L643.7862004166856,301.6364180517569L645.356785369135,301.41889631702236L645.4563747026816,302.5246852834491L647.056176725551,302.3777446714993Z" style="fill: inherit; stroke: inherit; stroke-width: inherit;" vector-effect="non-scaling-stroke"><title>Perry County</title></path><path id="county-18173" class="county feature" d="M638.1490713228284,302.75725401243915L639.0051879151642,303.2247779395136L638.3619218024476,304.905410556932L635.8604395365508,308.77659075578435L635.9366342773268,309.6607034181674L635.412056370664,309.3335704898151L633.1756944381762,308.73652615644414L632.5616275405912,304.54247286837733L634.6716813231344,303.6632580719332L634.6006320566287,302.8305658687476Z" style="fill: inherit; stroke: inherit; stroke-width: inherit;" vector-effect="non-scaling-stroke"><title>Warrick County</title></path><path id="county-18129" class="county feature" d="M629.3544074540525,304.76945921022684L629.6125609899755,309.872844942136L626.3239573940635,310.08358206551213L626.7626076337522,311.8355051276917L625.0139625955627,312.13206399202L623.9398361994337,310.48577461038826L626.1399537933725,305.1542551851394L624.9614418584314,303.97644827683746L627.6502566609646,303.7800614476937Z" style="fill: inherit; stroke: inherit; stroke-width: inherit;" vector-effect="non-scaling-stroke"><title>Posey County</title></path><path id="county-18147" class="county feature" d="M642.2734530719324,302.8815373900002L642.916730370655,306.7424275312153L642.3280369443024,306.795561217554L640.0493618979767,308.30385365384734L638.8303992372535,310.99660762241956L635.9366342773268,309.6607034181674L635.8604395365508,308.77659075578435L638.3619218024476,304.905410556932L639.0051879151642,303.2247779395136Z" style="fill: inherit; stroke: inherit; stroke-width: inherit;" vector-effect="non-scaling-stroke"><title>Spencer County</title></path><path id="county-18163" class="county feature" d="M632.5616275405912,304.54247286837733L633.1756944381762,308.73652615644414L632.3525683545959,309.46345719715544L630.9674076964342,308.30950508148965L630.9739690084358,310.9967142828941L629.6125609899755,309.872844942136L629.3544074540525,304.76945921022684Z" style="fill: inherit; stroke: inherit; stroke-width: inherit;" vector-effect="non-scaling-stroke"><title>Vanderburgh County</title></path></g><path id="counties-mesh" class="counties mesh" d="M651.3611721856478,234.62279196715303L651.9121649837574,239.02517042603597L652.103849654077,240.64153400619944L646.4987826272104,241.26133349345696L646.4138197394986,240.45194855138266L645.8165591942745,235.19009499550157M646.4138197394986,240.45194855138266L640.7876781441234,241.0791195061695L640.8795967962985,241.89289490771068L640.0710961985666,241.97604677372385L640.180142851476,237.87191325187575L639.4690152710397,235.8568673294909M640.0710961985666,241.97604677372385L637.6959219454675,242.78948486471666L636.7617695487147,245.0883529525231L634.8197182368964,246.19513404191616L633.9366709287472,237.3345173931184L635.3288082505195,236.25221193523328L639.4690152710397,235.8568673294909L643.5657963455467,235.4263580784542L645.8165591942745,235.19009499550157L649.6391691160965,234.80973360799635L651.3611721856478,234.62279196715303L656.4106645434063,234.04713163046802L657.7228481778191,233.90206909624226L662.8246020824272,233.3034471110709L663.2269044558229,234.4648891165259L663.6138068510651,237.56523904427797L658.2551416919327,238.25745390470843L657.7228481778191,233.90206909624226M663.6138068510651,237.56523904427797L663.8538382054752,239.50870239533936L664.2011534220269,242.40089639400185L658.8400621110911,243.15966592702375L658.2551416919327,238.25745390470843L651.9121649837574,239.02517042603597M648.851677499787,248.45107857230767L648.9286328890071,249.27085498963731L645.8459712696433,249.65248418636168L646.0092370772343,251.27384696971717L641.8358652073445,251.6953415389147L641.3626473841007,246.79243058389136L634.9356335945852,247.40614036377326L634.8197182368964,246.19513404191616L631.9505442073256,245.5342856457844L630.803521004987,246.47792243512197M630.0911308959305,239.32798843888168L630.803521004987,246.47792243512197L630.0621938247975,246.98814188142865L628.235495676136,248.22222135020138L626.6636046462647,248.2905612100974L626.4421246970712,245.8128238549648L626.1749020243237,242.65542029076437L625.7959540994761,238.1377080131566L627.1151794246935,239.05013538300068L630.0911308959305,239.32798843888168L633.9366709287472,237.3345173931184M658.8400621110911,243.15966592702375L657.2410157257871,243.34231894908078L654.0626554024116,243.65884320345594L652.4143758646153,243.29883649359658L652.103849654077,240.64153400619944M646.4987826272104,241.26133349345696L647.0896421033202,246.17097683753707L646.7666362436289,246.20994607845716L641.3626473841007,246.79243058389136L640.8795967962985,241.89289490771068M652.4143758646153,243.29883649359658L652.478137791254,247.98873716329786L648.851677499787,248.45107857230767L646.95930900313,247.85641358457963L646.7666362436289,246.20994607845716M631.0097736072653,256.0184242245398L627.393112018334,256.33857449405036L626.9346412204345,251.21001327092813L626.6636046462647,248.2905612100974M657.2410157257871,243.34231894908078L657.4042763654796,248.22842084239323L653.127321358156,248.75929446294322L652.478137791254,247.98873716329786M634.9356335945852,247.40614036377326L635.3970709153373,252.27964943029235L634.7497468620179,253.74985180407043L633.1732458239793,253.90394301710774L633.3663243788051,255.79816427282003L631.0097736072653,256.0184242245398L630.0621938247975,246.98814188142865M664.2011534220269,242.40089639400185L664.2426307516589,242.7513571282774L664.8300470899554,247.67201002677496L664.9828122223843,248.92001732754966L661.2216553505133,249.4493615271159L657.5851439732601,249.87843144572173L657.4042763654796,248.22842084239323M641.8358652073445,251.6953415389147L640.2643274029804,251.83219878973193L635.3970709153373,252.27964943029235M653.127321358156,248.75929446294322L653.9175781727993,255.2877131313794L650.7576354286933,255.6572464628473L649.716238324293,255.78153400581732L648.9286328890071,249.27085498963731M633.7174752506369,259.0507343305161L633.8962822993211,260.68350515249915L627.8188315914413,261.21429975231683L627.7951362234775,260.9492152669653L627.393112018334,256.33857449405036M657.5851439732601,249.87843144572173L658.149190109036,254.7943028912573L656.5626172636795,254.9873935078457L653.9175781727993,255.2877131313794M650.7576354286933,255.6572464628473L650.9453267125431,257.26839840127184L646.7390942818535,257.7668955564403L646.0092370772343,251.27384696971717M664.9828122223843,248.92001732754966L665.4232560689031,252.55558797223023L665.7636245384983,255.4740837469518L662.0572317532142,255.98189339758153L661.2216553505133,249.4493615271159M662.0572317532142,255.98189339758153L660.2039291773908,256.2140374877363L656.7685125443321,256.60664378023944L656.5626172636795,254.9873935078457M640.2643274029804,251.83219878973193L640.5857030481502,255.11547835588726L638.2620989291179,255.3108913051468L638.2566916379735,258.6316431849905L633.7174752506369,259.0507343305161L633.3663243788051,255.79816427282003M646.7390942818535,257.7668955564403L643.8138840675293,258.09183639355126L643.5742996825437,255.6346218074193L641.4587007401637,255.84894929507482L640.5857030481502,255.11547835588726M643.8138840675293,258.09183639355126L644.0354997277066,260.5226705932705L639.5663243312569,260.9651269428791L639.3171987090362,258.5319828975952L638.2566916379735,258.6316431849905M656.7685125443321,256.60664378023944L657.2008652517322,260.1191666412219L655.3136774820223,260.3211470551371L651.3409606790495,260.7738732935279L651.2837508355666,260.2395450883877L650.9453267125431,257.26839840127184M665.7636245384983,255.4740837469518L666.2292956352155,259.5806669998668L666.3288880046275,260.37908907849953L660.5137290106795,261.1186290844355L660.3441077931801,259.7638550552563L660.2039291773908,256.2140374877363M660.3441077931801,259.7638550552563L657.2008652517322,260.1191666412219M651.2837508355666,260.2395450883877L645.957871020946,260.8732835729427L646.0140824890332,261.41891192443575L644.0354997277066,260.5226705932705M639.5663243312569,260.9651269428791L639.9522350073235,265.0499105703791L634.3663423956691,265.5765429285283L634.1091454787194,262.7319867321894L633.8962822993211,260.68350515249915M630.2051928107112,270.92625631896306L631.2853258965979,272.51047679439307L631.325604572775,277.3450916564775L629.2017915683873,277.54768258290926L628.7243333463354,272.3746929199601L628.3051790963442,267.396565994076L627.8188315914413,261.21429975231683M634.1091454787194,262.7319867321894L632.2339652382607,263.9487203005855L629.5937639740058,266.8742939954501L630.1000055906612,267.6232576740374L628.3051790963442,267.396565994076M646.0140824890332,261.41891192443575L646.3191190457626,264.37981295152485L646.3919007972468,265.0367587066122L640.0179222769747,265.7187732275486L639.9522350073235,265.0499105703791M651.3409606790495,260.7738732935279L651.6607555951734,263.7606922243742L646.3191190457626,264.37981295152485M655.3136774820223,260.3211470551371L655.9774248003773,265.9788393203165L656.2433860335124,268.440602058349L652.2131560674936,268.9199993457365L651.6607555951734,263.7606922243742M660.5137290106795,261.1186290844355L661.0696169394585,265.41439779693246L655.9774248003773,265.9788393203165M634.3663423956691,265.5765429285283L634.8534769191979,270.48721778130835L630.2051928107112,270.92625631896306L630.1000055906612,267.6232576740374M666.9033138470112,266.09846216268386L661.4008373444024,266.74798461027785L661.0696169394585,265.41439779693246M652.2131560674936,268.9199993457365L651.187623244534,269.34092866961964L646.9243704825105,269.80749077134567L646.3919007972468,265.0367587066122M640.0179222769747,265.7187732275486L640.4991969618792,270.5151352838951L640.6060676719673,271.6032651061007L636.157798087253,271.9981431343655L634.9996318733596,272.09633641473147L634.8534769191979,270.48721778130835M646.9243704825105,269.80749077134567L645.7071654688758,269.971042587616L640.4991969618792,270.5151352838951M661.4008373444024,266.74798461027785L661.5887680238129,270.8257176338416L660.4548613417076,270.9717053211946L656.2826746075696,271.45511253908774L656.2433860335124,268.440602058349M666.3288880046275,260.37908907849953L666.9033138470112,266.09846216268386L667.0731411766762,267.7511918781513L667.4691446749912,271.31737751927255L664.385377121787,271.90569555449326L662.2569925926939,272.13332037525186L661.5887680238129,270.8257176338416M636.157798087253,271.9981431343655L636.5730582079661,276.9166996272518L633.930276646873,277.11998001670247L631.325604572775,277.3450916564775M656.2826746075696,271.45511253908774L655.9511715696642,273.16290526679927L651.4425004367968,273.6734421124744L651.187623244534,269.34092866961964M651.4425004367968,273.6734421124744L651.5544106148955,274.7764891693514L647.3470533095842,275.30587699567343L646.2660694520483,275.4431876542292L645.7071654688758,269.971042587616M646.2660694520483,275.4431876542292L644.3460453203703,276.23323790125824L641.6366238413821,276.4950572329765L641.1450299293854,275.99201002226334L640.6060676719673,271.6032651061007M633.930276646873,277.11998001670247L633.5253471790292,278.79776307031034L633.9484336836123,283.7092496465167L628.7560208074398,284.171006540265L629.6419008063283,282.41670606291814L629.4252882852797,279.991975928329L629.2017915683873,277.54768258290926M641.6366238413821,276.4950572329765L641.4507091573555,278.99702210487635L637.8480228901765,279.2852928503338L636.7757100037645,279.3792557873261L636.5730582079661,276.9166996272518M664.385377121787,271.90569555449326L664.7687200581997,275.4359950755421L661.060546992182,275.87373921010385L660.4548613417076,270.9717053211946M661.060546992182,275.87373921010385L661.2187909382185,277.2274950605564L656.5063141076145,277.76124039303113L655.9511715696642,273.16290526679927M667.4691446749912,271.31737751927255L667.8159702198026,274.29430697659234L667.9067349451074,275.1492396216677L664.7687200581997,275.4359950755421M656.5063141076145,277.76124039303113L655.9361221433577,279.77021795097903L652.1331159081984,280.23011321150193L651.5544106148955,274.7764891693514M652.1331159081984,280.23011321150193L650.2398748787327,280.49076449794063L647.8850099862414,280.7820600601103L647.3470533095842,275.30587699567343M647.8850099862414,280.7820600601103L646.0394422078916,281.0073957100143L642.4735225732501,281.2141564025568L642.225790324673,278.9175523299075L641.4507091573555,278.99702210487635M637.8480228901765,279.2852928503338L638.0475154754076,281.7493509332778L636.4621267597885,281.89283902776685L636.7611304027631,285.1695349634899L634.0946740886188,285.3474109394691L633.9484336836123,283.7092496465167M667.9067349451074,275.1492396216677L668.3303356469128,279.2136129300859L664.8203261474098,279.58609363865105L662.6539274519794,279.81428241339336L661.6258988412428,280.69028098465867L661.2187909382185,277.2274950605564M634.0946740886188,285.3474109394691L634.552789981252,290.3041584349995L630.517965487307,290.77171355941005L628.571840904809,286.11797285629166L628.7560208074398,284.171006540265M642.4735225732501,281.2141564025568L641.7184266632262,281.51044804801757L642.0684020926483,284.7018131556755L636.7611304027631,285.1695349634899M661.6258988412428,280.69028098465867L659.7344506053993,282.28055830510255L658.092595293256,283.6344479959944L656.3484078601668,283.88672360289354L655.9361221433577,279.77021795097903M646.0394422078916,281.0073957100143L646.7587512832085,286.45769617950043L647.4964524624345,286.37332859301864L647.6177442390822,287.45841751667615L642.3986420634116,287.9543565044861L642.0684020926483,284.7018131556755M656.3484078601668,283.88672360289354L654.7391482604437,284.0946796036783L654.8718737650669,285.2304163462195L654.0453622942064,285.8386868688816L650.8937091740574,285.99325307320635L650.2398748787327,280.49076449794063M650.8937091740574,285.99325307320635L647.4964524624345,286.37332859301864M664.8203261474098,279.58609363865105L664.648816389767,286.42296071326484L664.6371459479976,286.77398299747404L663.7114207261814,287.1796473729544L660.2535949953148,287.5860046823624L659.7344506053993,282.28055830510255M668.3303356469128,279.2136129300859L668.762142200546,282.955135487333L668.1024003037741,284.4473505669488L664.648816389767,286.42296071326484M660.2535949953148,287.5860046823624L657.0384220881741,289.7909279764074L655.4551937031421,290.11329546821537L654.8718737650669,285.2304163462195M636.5912657682507,290.186446425368L634.6510421320303,292.2104025826143L634.3696437040625,294.40292826139L635.1560577746857,297.11349639917546L632.0026681328729,297.63818650993517L630.206671240629,299.31293954734235L628.1514534989668,300.2195559728116L627.8907743067412,299.323077955498L629.400622737595,298.21984862956685L629.2235412646178,297.21554803307197L631.1762269032215,293.7726522323602L630.4835236365192,291.72151076732473L630.517965487307,290.77171355941005M642.3986420634116,287.9543565044861L642.5500488198256,289.59935056431334L639.3732893433775,289.91820156231745L636.5912657682507,290.186446425368L634.552789981252,290.3041584349995M655.4551937031421,290.11329546821537L654.2641353100321,291.6264950902066L652.8277264883832,291.14152531194645L648.6608571719427,291.65627115514803L648.1358855475422,287.4022949188226L647.6177442390822,287.45841751667615M668.4913071398909,286.870544214648L664.6323912591819,287.2761148322828L664.6371459479976,286.77398299747404M648.6608571719427,291.65627115514803L648.3273547244563,293.1261083544449L642.9526236290741,293.6928595135457L642.5500488198256,289.59935056431334M668.1024003037741,284.4473505669488L668.4913071398909,286.870544214648L669.6653924897208,287.5590784633922L669.5300662621305,288.9683127032505L666.6080221739738,289.7357692664185L664.2076868990105,291.3465547254667L663.7114207261814,287.1796473729544M664.2076868990105,291.3465547254667L662.2283198789137,290.71678504717784L660.5799800314853,291.400942004905L661.1734235261915,293.68090780803925L659.1004375833679,293.5337983429707L658.9300728981455,292.1768705515599L657.2042066499486,291.2644876415196L657.0384220881741,289.7909279764074M642.9526236290741,293.6928595135457L643.2586839484497,296.6988583876562L639.8127583036496,297.4322809651329L639.3732893433775,289.91820156231745M639.8127583036496,297.4322809651329L637.660656644227,297.46171337979274L635.1560577746857,297.11349639917546M659.1004375833679,293.5337983429707L655.8904093291762,293.90913970566635L655.1940013312715,294.8102230638275L654.6237841002364,294.60332855486627L654.2641353100321,291.6264950902066M655.1940013312715,294.8102230638275L653.2477380259468,296.3966546371182L653.3713517740337,297.71487934321647L652.8188885604509,297.78230864376087L649.6128081064471,298.0253422470912L648.8363948435857,298.10093645430163L648.3273547244563,293.1261083544449M648.8363948435857,298.10093645430163L648.8864861975492,298.6415868471231L643.5119484407671,299.1676294384688L643.2586839484497,296.6988583876562M661.1734235261915,293.68090780803925L661.2368630963122,294.85713824517586L658.5785534579508,297.8720340509012L657.3270634219185,300.13691610374883L656.5555600518752,299.8361956917512L656.0834273616708,297.68946644940434L653.3713517740337,297.71487934321647M634.6006320566287,302.8305658687476L634.6716813231344,303.6632580719332L632.5616275405912,304.54247286837733L629.3544074540525,304.76945921022684L627.6502566609646,303.7800614476937L624.9614418584314,303.97644827683746L624.8677799362781,303.48725591204243L625.9817351639002,303.17714877713945L628.1514534989668,300.2195559728116M637.660656644227,297.46171337979274L638.1490713228284,302.75725401243915L634.6006320566287,302.8305658687476L634.3854152793874,300.31032381065586L633.0672249829845,300.5240407560342L632.0026681328729,297.63818650993517M643.5119484407671,299.1676294384688L643.7862004166856,301.6364180517569L642.2734530719324,302.8815373900002L639.0051879151642,303.2247779395136L638.1490713228284,302.75725401243915M649.6128081064471,298.0253422470912L649.668505858323,301.72519836855076L648.9933232221507,302.6588321547373L647.207479087312,303.98434101708574L647.056176725551,302.3777446714993L645.4563747026816,302.5246852834491L645.356785369135,301.41889631702236L643.7862004166856,301.6364180517569M652.8188885604509,297.78230864376087L652.9962637813903,299.41776427199625L655.2063780068936,302.07141956930104L654.8474355658046,305.3633372992572L654.1384283895135,305.5718516885936L651.5044568095641,305.62853978049725L650.1417014368553,304.9015733840139L648.9933232221507,302.6588321547373M656.5555600518752,299.8361956917512L655.2063780068936,302.07141956930104M647.207479087312,303.98434101708574L646.9181848311068,305.4418055751621L646.8566745678468,307.712149676546L644.9062858221868,309.4879630689385L644.9681463471514,308.4608985841569L643.4137024441325,308.33362525928806L642.3280369443024,306.795561217554L642.916730370655,306.7424275312153L642.2734530719324,302.8815373900002M629.3544074540525,304.76945921022684L629.6125609899755,309.872844942136L626.3239573940635,310.08358206551213L626.7626076337522,311.8355051276917L625.0139625955627,312.13206399202L623.9398361994337,310.48577461038826L626.1399537933725,305.1542551851394L624.9614418584314,303.97644827683746M639.0051879151642,303.2247779395136L638.3619218024476,304.905410556932L635.8604395365508,308.77659075578435L635.9366342773268,309.6607034181674L635.412056370664,309.3335704898151L633.1756944381762,308.73652615644414L632.5616275405912,304.54247286837733M642.3280369443024,306.795561217554L640.0493618979767,308.30385365384734L638.8303992372535,310.99660762241956L635.9366342773268,309.6607034181674M633.1756944381762,308.73652615644414L632.3525683545959,309.46345719715544L630.9674076964342,308.30950508148965L630.9739690084358,310.9967142828941L629.6125609899755,309.872844942136" style="fill: inherit; stroke: inherit; stroke-width: inherit;" vector-effect="non-scaling-stroke"></path></svg>