<?xml version="1.0" standalone="yes"?>
<svg xmlns="http://www.w3.org/2000/svg" version="1.2" id="root" viewBox="419.45760267121017 272.7321751955095 109.61525033461766 59.37505217423575"><g id="counties"><path id="county-20023" class="county feature" d="M431.99067951271024,273.2883269479639L431.4891551589642,281.45758255760074L422.43473660626455,280.913899285237L422.44175741201155,280.8037536206716L422.9307571612555,272.7321751955095Z" style="fill: inherit; stroke: inherit; stroke-width: inherit;" vector-effect="non-scaling-stroke"><title>Cheyenne County</title></path><path id="county-20153" class="county feature" d="M441.22718339336507,273.7880569459436L441.50652465260276,273.805067208232L441.07312153841394,281.9761558077488L431.8417906389122,281.47764544174754L431.4891551589642,281.45758255760074L431.99067951271024,273.2883269479639L433.204945814373,273.35394655851474Z" style="fill: inherit; stroke: inherit; stroke-width: inherit;" vector-effect="non-scaling-stroke"><title>Rawlins County</title></path><path id="county-20089" class="county feature" d="M481.2792489636372,275.2024285579895L481.1458199088606,281.76658085133795L481.1125665256321,283.4025084395697L473.19073579001883,283.20818739359936L472.93495487122624,283.1984291610323L473.161051719643,275.00888357351425L476.42670650919524,275.08390808797014Z" style="fill: inherit; stroke: inherit; stroke-width: inherit;" vector-effect="non-scaling-stroke"><title>Jewell County</title></path><path id="county-20183" class="county feature" d="M473.161051719643,275.00888357351425L472.93495487122624,283.1984291610323L465.24465395629096,282.96674167290416L464.93770850666925,282.95585745465314L465.18648497062895,274.7740529448836L470.01789563258137,274.92034221988285Z" style="fill: inherit; stroke: inherit; stroke-width: inherit;" vector-effect="non-scaling-stroke"><title>Smith County</title></path><path id="county-20157" class="county feature" d="M489.25098015442114,275.3428988068174L489.16672444246166,281.9007865629011L481.1458199088606,281.76658085133795L481.2792489636372,275.2024285579895L482.83588859761915,275.2331704807608Z" style="fill: inherit; stroke: inherit; stroke-width: inherit;" vector-effect="non-scaling-stroke"><title>Republic County</title></path><path id="county-20201" class="county feature" d="M495.67156042119944,275.428199495768L497.23861857261915,275.4434082326562L497.15886873718205,283.6427782492533L494.9833530417266,283.6235851986721L489.1431211019934,283.5399196097427L489.16672444246166,281.9007865629011L489.25098015442114,275.3428988068174Z" style="fill: inherit; stroke: inherit; stroke-width: inherit;" vector-effect="non-scaling-stroke"><title>Washington County</title></path><path id="county-20039" class="county feature" d="M449.23144875453113,274.1764619995107L449.45501808521874,274.1883409757945L449.059165442514,282.3725267422353L441.3696527728131,281.9909271963968L441.07312153841394,281.9761558077488L441.50652465260276,273.805067208232Z" style="fill: inherit; stroke: inherit; stroke-width: inherit;" vector-effect="non-scaling-stroke"><title>Decatur County</title></path><path id="county-20137" class="county feature" d="M457.27912606649727,274.5056572321812L456.926001210623,282.68472626192874L449.3254531500627,282.3761120590691L449.059165442514,282.3725267422353L449.45501808521874,274.1883409757945L457.23845114835376,274.5041043133431Z" style="fill: inherit; stroke: inherit; stroke-width: inherit;" vector-effect="non-scaling-stroke"><title>Norton County</title></path><path id="county-20147" class="county feature" d="M465.18648497062895,274.7740529448836L464.93770850666925,282.95585745465314L457.2993400863853,282.7009605900622L456.926001210623,282.68472626192874L457.27912606649727,274.5056572321812L463.5997411298829,274.72594214828814Z" style="fill: inherit; stroke: inherit; stroke-width: inherit;" vector-effect="non-scaling-stroke"><title>Phillips County</title></path><path id="county-20117" class="county feature" d="M502.0874198996992,275.4838874748672L505.26746631181163,275.49868542011313L505.2519544331167,283.6913387076713L500.36330029125077,283.66820571323683L497.15886873718205,283.6427782492533L497.23861857261915,275.4434082326562Z" style="fill: inherit; stroke: inherit; stroke-width: inherit;" vector-effect="non-scaling-stroke"><title>Marshall County</title></path><path id="county-20013" class="county feature" d="M518.0183636427603,275.48665604860037L518.0638025346929,282.0287266389613L514.8682929913042,282.04715021813615L511.66763372637104,282.05703032632607L511.6632626551578,275.5077095168334Z" style="fill: inherit; stroke: inherit; stroke-width: inherit;" vector-effect="non-scaling-stroke"><title>Brown County</title></path><path id="county-20131" class="county feature" d="M508.5086035915571,275.5069981267702L511.6632626551578,275.5077095168334L511.66763372637104,282.05703032632607L511.6661379196104,283.6882410174587L508.14934543236467,283.6975526384074L505.2519544331167,283.6913387076713L505.26746631181163,275.49868542011313Z" style="fill: inherit; stroke: inherit; stroke-width: inherit;" vector-effect="non-scaling-stroke"><title>Nemaha County</title></path><path id="county-20043" class="county feature" d="M518.4661134873296,275.48347173441243L521.6559226429782,278.0603690799728L522.9486597214252,277.36795688005793L524.6268969443901,278.806081176269L524.5405515924898,280.5759688840876L523.5152068254012,280.2342463349306L522.1288174866154,282.54928084916435L521.2644383543314,282.00980056763547L518.0638025346929,282.0287266389613L518.0183636427603,275.48665604860037Z" style="fill: inherit; stroke: inherit; stroke-width: inherit;" vector-effect="non-scaling-stroke"><title>Doniphan County</title></path><path id="county-20029" class="county feature" d="M489.16672444246166,281.9007865629011L489.1431211019934,283.5399196097427L489.0517275515465,288.4594722423941L481.04359624189277,288.31235254876356L481.1125665256321,283.4025084395697L481.1458199088606,281.76658085133795Z" style="fill: inherit; stroke: inherit; stroke-width: inherit;" vector-effect="non-scaling-stroke"><title>Cloud County</title></path><path id="county-20085" class="county feature" d="M514.8682929913042,282.04715021813615L514.801306799461,286.4562690872034L514.5408219411757,290.2813477787819L508.15200497033277,290.28786995164864L508.14934543236467,283.6975526384074L511.6661379196104,283.6882410174587L511.66763372637104,282.05703032632607Z" style="fill: inherit; stroke: inherit; stroke-width: inherit;" vector-effect="non-scaling-stroke"><title>Jackson County</title></path><path id="county-20005" class="county feature" d="M522.1288174866154,282.54928084916435L521.4594852253267,284.25593134197436L523.3930804824474,286.394300743495L520.3667193119736,286.416667074569L514.801306799461,286.4562690872034L514.8682929913042,282.04715021813615L518.0638025346929,282.0287266389613L521.2644383543314,282.00980056763547Z" style="fill: inherit; stroke: inherit; stroke-width: inherit;" vector-effect="non-scaling-stroke"><title>Atchison County</title></path><path id="county-20163" class="county feature" d="M465.24465395629096,282.96674167290416L464.9407840784017,291.16279674019256L457.1378956602051,290.90028329194286L456.9423375135672,290.8928755469965L457.2993400863853,282.7009605900622L464.93770850666925,282.95585745465314Z" style="fill: inherit; stroke: inherit; stroke-width: inherit;" vector-effect="non-scaling-stroke"><title>Rooks County</title></path><path id="county-20181" class="county feature" d="M431.4891551589642,281.45758255760074L431.8417906389122,281.47764544174754L431.3429501274097,289.6296244366465L430.1035350015135,289.5647587940949L421.9541333521497,289.1014915094686L422.43473660626455,280.913899285237Z" style="fill: inherit; stroke: inherit; stroke-width: inherit;" vector-effect="non-scaling-stroke"><title>Sherman County</title></path><path id="county-20193" class="county feature" d="M441.07312153841394,281.9761558077488L441.3696527728131,281.9909271963968L440.9474239734842,290.17455057337907L439.6461393792488,290.1092333486091L431.3429501274097,289.6296244366465L431.8417906389122,281.47764544174754Z" style="fill: inherit; stroke: inherit; stroke-width: inherit;" vector-effect="non-scaling-stroke"><title>Thomas County</title></path><path id="county-20141" class="county feature" d="M472.93495487122624,283.1984291610323L473.19073579001883,283.20818739359936L472.97807834015026,289.75973192109063L472.9350449278019,291.4018359383198L465.08497267185237,291.1653875563874L464.9407840784017,291.16279674019256L465.24465395629096,282.96674167290416Z" style="fill: inherit; stroke: inherit; stroke-width: inherit;" vector-effect="non-scaling-stroke"><title>Osborne County</title></path><path id="county-20179" class="county feature" d="M449.059165442514,282.3725267422353L449.3254531500627,282.3761120590691L448.925061849791,290.5730915120497L440.9474239734842,290.17455057337907L441.3696527728131,281.9909271963968Z" style="fill: inherit; stroke: inherit; stroke-width: inherit;" vector-effect="non-scaling-stroke"><title>Sheridan County</title></path><path id="county-20027" class="county feature" d="M494.9833530417266,283.6235851986721L494.88147714753995,290.1514278986658L494.83898806991687,291.8059031824579L488.9838211316637,291.74107504433084L489.0517275515465,288.4594722423941L489.1431211019934,283.5399196097427Z" style="fill: inherit; stroke: inherit; stroke-width: inherit;" vector-effect="non-scaling-stroke"><title>Clay County</title></path><path id="county-20123" class="county feature" d="M481.1125665256321,283.4025084395697L481.04359624189277,288.31235254876356L480.99990400660477,289.95745320882463L472.97807834015026,289.75973192109063L473.19073579001883,283.20818739359936Z" style="fill: inherit; stroke: inherit; stroke-width: inherit;" vector-effect="non-scaling-stroke"><title>Mitchell County</title></path><path id="county-20065" class="county feature" d="M457.2993400863853,282.7009605900622L456.9423375135672,290.8928755469965L449.16191158308743,290.57940076180614L448.925061849791,290.5730915120497L449.3254531500627,282.3761120590691L456.926001210623,282.68472626192874Z" style="fill: inherit; stroke: inherit; stroke-width: inherit;" vector-effect="non-scaling-stroke"><title>Graham County</title></path><path id="county-20161" class="county feature" d="M500.36330029125077,283.66820571323683L498.2717859786392,286.72207249478845L500.6535341259867,290.90347729398627L503.08182488696025,291.1039527909978L503.0460535081224,293.5445978213711L501.46312634960293,293.5290689435226L501.46601988266684,292.9801463219469L496.4434275149432,292.6507110634403L496.49122432077877,290.1849917264135L494.88147714753995,290.1514278986658L494.9833530417266,283.6235851986721L497.15886873718205,283.6427782492533Z" style="fill: inherit; stroke: inherit; stroke-width: inherit;" vector-effect="non-scaling-stroke"><title>Riley County</title></path><path id="county-20149" class="county feature" d="M505.2519544331167,283.6913387076713L508.14934543236467,283.6975526384074L508.15200497033277,290.28786995164864L508.0586874871515,291.9335402171239L507.4468981050294,290.71783503810195L505.173275050309,290.4303472755971L503.08182488696025,291.1039527909978L500.6535341259867,290.90347729398627L498.2717859786392,286.72207249478845L500.36330029125077,283.66820571323683Z" style="fill: inherit; stroke: inherit; stroke-width: inherit;" vector-effect="non-scaling-stroke"><title>Pottawatomie County</title></path><path id="county-20087" class="county feature" d="M520.3667193119736,286.416667074569L520.334857910201,293.48901122484745L515.8374749116063,293.28306361101045L514.4345113155672,293.1185565055563L514.5408219411757,290.2813477787819L514.801306799461,286.4562690872034Z" style="fill: inherit; stroke: inherit; stroke-width: inherit;" vector-effect="non-scaling-stroke"><title>Jefferson County</title></path><path id="county-20103" class="county feature" d="M523.3930804824474,286.394300743495L524.6901095693601,287.1928248463274L524.4141611331851,288.62908208927945L526.2265628593537,290.50689432066736L524.4301587851579,290.45493841794234L524.3473092302156,294.4424281305054L522.2284115565604,294.64033803575353L520.3683301103762,294.98874393038045L520.334857910201,293.48901122484745L520.3667193119736,286.416667074569Z" style="fill: inherit; stroke: inherit; stroke-width: inherit;" vector-effect="non-scaling-stroke"><title>Leavenworth County</title></path><path id="county-20143" class="county feature" d="M489.0517275515465,288.4594722423941L488.9838211316637,291.74107504433084L488.92612155404714,295.02405181715085L480.92583687256763,294.8749960090977L480.99990400660477,289.95745320882463L481.04359624189277,288.31235254876356Z" style="fill: inherit; stroke: inherit; stroke-width: inherit;" vector-effect="non-scaling-stroke"><title>Ottawa County</title></path><path id="county-20061" class="county feature" d="M501.46312634960293,293.5290689435226L501.4355021253861,296.8084814457684L495.8432268339079,296.7604447921668L494.8070133801622,294.9605802565719L494.83898806991687,291.8059031824579L494.88147714753995,290.1514278986658L496.49122432077877,290.1849917264135L496.4434275149432,292.6507110634403L501.46601988266684,292.9801463219469Z" style="fill: inherit; stroke: inherit; stroke-width: inherit;" vector-effect="non-scaling-stroke"><title>Geary County</title></path><path id="county-20105" class="county feature" d="M480.99990400660477,289.95745320882463L480.92583687256763,294.8749960090977L480.8872975755467,296.51939496946966L472.8780333307037,296.33945984670027L472.9350449278019,291.4018359383198L472.97807834015026,289.75973192109063Z" style="fill: inherit; stroke: inherit; stroke-width: inherit;" vector-effect="non-scaling-stroke"><title>Lincoln County</title></path><path id="county-20177" class="county feature" d="M514.5408219411757,290.2813477787819L514.4345113155672,293.1185565055563L515.8374749116063,293.28306361101045L515.8508314130481,296.8066367727446L509.43139036414476,296.8222693470773L509.4238090921036,292.51073602580755L508.0586874871515,291.9335402171239L508.15200497033277,290.28786995164864Z" style="fill: inherit; stroke: inherit; stroke-width: inherit;" vector-effect="non-scaling-stroke"><title>Shawnee County</title></path><path id="county-20197" class="county feature" d="M508.0586874871515,291.9335402171239L509.4238090921036,292.51073602580755L509.43139036414476,296.8222693470773L509.4431362693355,299.289604569577L503.5713297613269,299.2824096145007L503.03435026471703,297.64856069613234L501.4355021253861,296.8084814457684L501.46312634960293,293.5290689435226L503.0460535081224,293.5445978213711L503.08182488696025,291.1039527909978L505.173275050309,290.4303472755971L507.4468981050294,290.71783503810195Z" style="fill: inherit; stroke: inherit; stroke-width: inherit;" vector-effect="non-scaling-stroke"><title>Wabaunsee County</title></path><path id="county-20209" class="county feature" d="M526.2265628593537,290.50689432066736L528.7172310012314,291.2139088551944L528.6476336193382,292.08599629814944L528.6667771750641,293.39234095444897L524.8532958783602,293.16030984746646L524.3473092302156,294.4424281305054L524.4301587851579,290.45493841794234Z" style="fill: inherit; stroke: inherit; stroke-width: inherit;" vector-effect="non-scaling-stroke"><title>Wyandotte County</title></path><path id="county-20109" class="county feature" d="M439.6461393792488,290.1092333486091L439.1341810041756,298.2673205573034L434.67524596970804,298.01957382134606L429.54358700488444,297.73987551139373L430.1035350015135,289.5647587940949L431.3429501274097,289.6296244366465Z" style="fill: inherit; stroke: inherit; stroke-width: inherit;" vector-effect="non-scaling-stroke"><title>Logan County</title></path><path id="county-20199" class="county feature" d="M430.1035350015135,289.5647587940949L429.54358700488444,297.73987551139373L428.3482668129599,297.6804478622762L421.45772027139907,297.30058064084926L421.8612008196241,290.72234032546226L421.9541333521497,289.1014915094686Z" style="fill: inherit; stroke: inherit; stroke-width: inherit;" vector-effect="non-scaling-stroke"><title>Wallace County</title></path><path id="county-20051" class="county feature" d="M464.9407840784017,291.16279674019256L465.08497267185237,291.1653875563874L464.7496163911215,299.3850844210724L456.9205970994576,299.1160518348529L456.7341761768542,299.1100172209251L457.1378956602051,290.90028329194286Z" style="fill: inherit; stroke: inherit; stroke-width: inherit;" vector-effect="non-scaling-stroke"><title>Ellis County</title></path><path id="county-20063" class="county feature" d="M440.9474239734842,290.17455057337907L448.925061849791,290.5730915120497L449.16191158308743,290.57940076180614L448.7212921732705,298.7688694990594L447.37628621606837,298.6931660979619L441.0229435603977,298.3588188380902L439.1341810041756,298.2673205573034L439.6461393792488,290.1092333486091Z" style="fill: inherit; stroke: inherit; stroke-width: inherit;" vector-effect="non-scaling-stroke"><title>Gove County</title></path><path id="county-20041" class="county feature" d="M494.83898806991687,291.8059031824579L494.8070133801622,294.9605802565719L495.8432268339079,296.7604447921668L495.29505922541375,297.8471120199681L495.21105736863996,301.671145922504L488.83126891473586,301.5938564109749L488.92612155404714,295.02405181715085L488.9838211316637,291.74107504433084Z" style="fill: inherit; stroke: inherit; stroke-width: inherit;" vector-effect="non-scaling-stroke"><title>Dickinson County</title></path><path id="county-20167" class="county feature" d="M472.9350449278019,291.4018359383198L472.8780333307037,296.33945984670027L472.776776954374,299.61659735602575L464.88939903269403,299.39056697875833L464.7496163911215,299.3850844210724L465.08497267185237,291.1653875563874Z" style="fill: inherit; stroke: inherit; stroke-width: inherit;" vector-effect="non-scaling-stroke"><title>Russell County</title></path><path id="county-20195" class="county feature" d="M456.9423375135672,290.8928755469965L457.1378956602051,290.90028329194286L456.7341761768542,299.1100172209251L448.7212921732705,298.7688694990594L449.16191158308743,290.57940076180614Z" style="fill: inherit; stroke: inherit; stroke-width: inherit;" vector-effect="non-scaling-stroke"><title>Trego County</title></path><path id="county-20045" class="county feature" d="M520.334857910201,293.48901122484745L520.3683301103762,294.98874393038045L522.2284115565604,294.64033803575353L522.2740069844293,299.23237188172527L515.8638099596233,299.27698292506466L515.8508314130481,296.8066367727446L515.8374749116063,293.28306361101045Z" style="fill: inherit; stroke: inherit; stroke-width: inherit;" vector-effect="non-scaling-stroke"><title>Douglas County</title></path><path id="county-20091" class="county feature" d="M528.6667771750641,293.39234095444897L528.7108434730602,297.105106087589L528.7254529721303,299.1632631353741L522.2740069844293,299.23237188172527L522.2284115565604,294.64033803575353L524.3473092302156,294.4424281305054L524.8532958783602,293.16030984746646Z" style="fill: inherit; stroke: inherit; stroke-width: inherit;" vector-effect="non-scaling-stroke"><title>Johnson County</title></path><path id="county-20169" class="county feature" d="M488.92612155404714,295.02405181715085L488.83126891473586,301.5938564109749L480.84439089172366,301.44518333848134L480.8872975755467,296.51939496946966L480.92583687256763,294.8749960090977Z" style="fill: inherit; stroke: inherit; stroke-width: inherit;" vector-effect="non-scaling-stroke"><title>Saline County</title></path><path id="county-20127" class="county feature" d="M501.4355021253861,296.8084814457684L503.03435026471703,297.64856069613234L503.5713297613269,299.2824096145007L503.5405386730863,303.3805508682631L496.79450756164385,303.3247075940162L495.20538640065115,303.3110902359848L495.21105736863996,301.671145922504L495.29505922541375,297.8471120199681L495.8432268339079,296.7604447921668Z" style="fill: inherit; stroke: inherit; stroke-width: inherit;" vector-effect="non-scaling-stroke"><title>Morris County</title></path><path id="county-20053" class="county feature" d="M480.8872975755467,296.51939496946966L480.84439089172366,301.44518333848134L480.82148343116756,303.08902932311173L472.7735012706015,302.91872277906975L472.776776954374,299.61659735602575L472.8780333307037,296.33945984670027Z" style="fill: inherit; stroke: inherit; stroke-width: inherit;" vector-effect="non-scaling-stroke"><title>Ellsworth County</title></path><path id="county-20139" class="county feature" d="M515.8508314130481,296.8066367727446L515.8638099596233,299.27698292506466L515.7848227548255,305.02679032853996L509.3788238628421,305.040983491876L509.4431362693355,299.289604569577L509.43139036414476,296.8222693470773Z" style="fill: inherit; stroke: inherit; stroke-width: inherit;" vector-effect="non-scaling-stroke"><title>Osage County</title></path><path id="county-20111" class="county feature" d="M509.4431362693355,299.289604569577L509.3788238628421,305.040983491876L509.25617162911925,310.00455953868357L503.4691417352193,309.9432747863574L503.5405386730863,303.3805508682631L503.5713297613269,299.2824096145007Z" style="fill: inherit; stroke: inherit; stroke-width: inherit;" vector-effect="non-scaling-stroke"><title>Lyon County</title></path><path id="county-20059" class="county feature" d="M522.2740069844293,299.23237188172527L522.2040102984068,305.8072425475915L515.7890787412447,305.84929397034807L515.7848227548255,305.02679032853996L515.8638099596233,299.27698292506466Z" style="fill: inherit; stroke: inherit; stroke-width: inherit;" vector-effect="non-scaling-stroke"><title>Franklin County</title></path><path id="county-20121" class="county feature" d="M528.7254529721303,299.1632631353741L528.7401871628584,304.07620032367777L528.7646205044804,305.7504214429258L522.2040102984068,305.8072425475915L522.2740069844293,299.23237188172527Z" style="fill: inherit; stroke: inherit; stroke-width: inherit;" vector-effect="non-scaling-stroke"><title>Miami County</title></path><path id="county-20171" class="county feature" d="M439.1341810041756,298.2673205573034L441.0229435603977,298.3588188380902L440.617720966949,306.5677811149976L434.5960664499322,306.250242551767L434.2681462478695,306.23359399301364L434.67524596970804,298.01957382134606Z" style="fill: inherit; stroke: inherit; stroke-width: inherit;" vector-effect="non-scaling-stroke"><title>Scott County</title></path><path id="county-20101" class="county feature" d="M447.37628621606837,298.6931660979619L447.0507450638188,306.90679581501456L440.617720966949,306.5677811149976L441.0229435603977,298.3588188380902Z" style="fill: inherit; stroke: inherit; stroke-width: inherit;" vector-effect="non-scaling-stroke"><title>Lane County</title></path><path id="county-20071" class="county feature" d="M428.3482668129599,297.6804478622762L427.85587498657105,305.898857009576L420.9413367618361,305.4901110857262L420.95419931756703,305.37014289852186L421.36419716900804,298.85055087964554L421.45772027139907,297.30058064084926Z" style="fill: inherit; stroke: inherit; stroke-width: inherit;" vector-effect="non-scaling-stroke"><title>Greeley County</title></path><path id="county-20203" class="county feature" d="M434.67524596970804,298.01957382134606L434.2681462478695,306.23359399301364L428.22540343759965,305.9184508667694L427.85587498657105,305.898857009576L428.3482668129599,297.6804478622762L429.54358700488444,297.73987551139373Z" style="fill: inherit; stroke: inherit; stroke-width: inherit;" vector-effect="non-scaling-stroke"><title>Wichita County</title></path><path id="county-20135" class="county feature" d="M448.7212921732705,298.7688694990594L456.7341761768542,299.1100172209251L456.9205970994576,299.1160518348529L456.67886893950975,305.6591635348914L456.6272513624217,307.30343859024174L447.30062401130203,306.9189530449145L447.0507450638188,306.90679581501456L447.37628621606837,298.6931660979619Z" style="fill: inherit; stroke: inherit; stroke-width: inherit;" vector-effect="non-scaling-stroke"><title>Ness County</title></path><path id="county-20009" class="county feature" d="M472.776776954374,299.61659735602575L472.7735012706015,302.91872277906975L472.6554558973754,307.8402613457637L466.37247120219547,307.65589792553044L464.63257771304234,307.5994366859966L464.6849919828112,305.95724661102497L464.88939903269403,299.39056697875833Z" style="fill: inherit; stroke: inherit; stroke-width: inherit;" vector-effect="non-scaling-stroke"><title>Barton County</title></path><path id="county-20165" class="county feature" d="M464.7496163911215,299.3850844210724L464.88939903269403,299.39056697875833L464.6849919828112,305.95724661102497L456.67886893950975,305.6591635348914L456.9205970994576,299.1160518348529Z" style="fill: inherit; stroke: inherit; stroke-width: inherit;" vector-effect="non-scaling-stroke"><title>Rush County</title></path><path id="county-20113" class="county feature" d="M488.83126891473586,301.5938564109749L488.71266092157606,309.8090346493858L483.91257176763355,309.728352762335L480.71956070713446,309.6694919153837L480.82148343116756,303.08902932311173L480.84439089172366,301.44518333848134Z" style="fill: inherit; stroke: inherit; stroke-width: inherit;" vector-effect="non-scaling-stroke"><title>McPherson County</title></path><path id="county-20115" class="county feature" d="M495.21105736863996,301.671145922504L495.20538640065115,303.3110902359848L496.79450756164385,303.3247075940162L496.42042248354306,311.5591512467921L491.8810485182047,311.47304340378923L491.8957223832852,309.8330884663603L488.71266092157606,309.8090346493858L488.83126891473586,301.5938564109749Z" style="fill: inherit; stroke: inherit; stroke-width: inherit;" vector-effect="non-scaling-stroke"><title>Marion County</title></path><path id="county-20017" class="county feature" d="M503.5405386730863,303.3805508682631L503.4691417352193,309.9432747863574L503.44724615561285,311.59942419271704L501.049288356144,311.5781798635139L496.42042248354306,311.5591512467921L496.79450756164385,303.3247075940162Z" style="fill: inherit; stroke: inherit; stroke-width: inherit;" vector-effect="non-scaling-stroke"><title>Chase County</title></path><path id="county-20159" class="county feature" d="M480.82148343116756,303.08902932311173L480.71956070713446,309.6694919153837L472.71123099354986,309.5035532739463L472.6554558973754,307.8402613457637L472.7735012706015,302.91872277906975Z" style="fill: inherit; stroke: inherit; stroke-width: inherit;" vector-effect="non-scaling-stroke"><title>Rice County</title></path><path id="county-20031" class="county feature" d="M515.7848227548255,305.02679032853996L515.7890787412447,305.84929397034807L515.6665971300072,312.48901879552216L509.257234733238,312.4701523719692L509.25617162911925,310.00455953868357L509.3788238628421,305.040983491876Z" style="fill: inherit; stroke: inherit; stroke-width: inherit;" vector-effect="non-scaling-stroke"><title>Coffey County</title></path><path id="county-20003" class="county feature" d="M522.2040102984068,305.8072425475915L522.0915846184128,312.45273362167234L515.6665971300072,312.48901879552216L515.7890787412447,305.84929397034807Z" style="fill: inherit; stroke: inherit; stroke-width: inherit;" vector-effect="non-scaling-stroke"><title>Anderson County</title></path><path id="county-20107" class="county feature" d="M528.7646205044804,305.7504214429258L528.8393916089274,311.94835468048973L528.8457280562393,312.38287803680134L522.0915846184128,312.45273362167234L522.2040102984068,305.8072425475915Z" style="fill: inherit; stroke: inherit; stroke-width: inherit;" vector-effect="non-scaling-stroke"><title>Linn County</title></path><path id="county-20145" class="county feature" d="M464.6849919828112,305.95724661102497L464.63257771304234,307.5994366859966L466.37247120219547,307.65589792553044L466.2165847133258,312.5704231989756L464.6271688685311,312.52382127857175L459.8494596180567,312.35346363132965L459.89642105965424,310.7252309621214L456.71702541313397,310.6053758161215L456.6272513624217,307.30343859024174L456.67886893950975,305.6591635348914Z" style="fill: inherit; stroke: inherit; stroke-width: inherit;" vector-effect="non-scaling-stroke"><title>Pawnee County</title></path><path id="county-20093" class="county feature" d="M434.5960664499322,306.250242551767L434.1448162998281,314.45108757961464L434.2606448847703,316.2082270759498L427.8716346855038,315.85102314348217L427.7413075979021,314.12046219739693L428.22540343759965,305.9184508667694L434.2681462478695,306.23359399301364Z" style="fill: inherit; stroke: inherit; stroke-width: inherit;" vector-effect="non-scaling-stroke"><title>Kearny County</title></path><path id="county-20055" class="county feature" d="M440.617720966949,306.5677811149976L447.0507450638188,306.90679581501456L447.30062401130203,306.9189530449145L447.08165518362995,311.83918073829716L440.7191877699696,311.5139830863435L440.64069600851167,316.5365137178326L434.2606448847703,316.2082270759498L434.1448162998281,314.45108757961464L434.5960664499322,306.250242551767Z" style="fill: inherit; stroke: inherit; stroke-width: inherit;" vector-effect="non-scaling-stroke"><title>Finney County</title></path><path id="county-20075" class="county feature" d="M428.22540343759965,305.9184508667694L427.7413075979021,314.12046219739693L427.8716346855038,315.85102314348217L420.35013165011406,315.35105775893066L420.9413367618361,305.4901110857262L427.85587498657105,305.898857009576Z" style="fill: inherit; stroke: inherit; stroke-width: inherit;" vector-effect="non-scaling-stroke"><title>Hamilton County</title></path><path id="county-20185" class="county feature" d="M472.6554558973754,307.8402613457637L472.71123099354986,309.5035532739463L472.5456205305874,316.0686322752264L464.64804884013375,315.8254379677628L464.6271688685311,312.52382127857175L466.2165847133258,312.5704231989756L466.37247120219547,307.65589792553044Z" style="fill: inherit; stroke: inherit; stroke-width: inherit;" vector-effect="non-scaling-stroke"><title>Stafford County</title></path><path id="county-20083" class="county feature" d="M456.6272513624217,307.30343859024174L456.71702541313397,310.6053758161215L456.5883697476398,313.88999312470935L447.00869511074944,313.47859295470346L447.08165518362995,311.83918073829716L447.30062401130203,306.9189530449145Z" style="fill: inherit; stroke: inherit; stroke-width: inherit;" vector-effect="non-scaling-stroke"><title>Hodgeman County</title></path><path id="county-20079" class="county feature" d="M491.8810485182047,311.47304340378923L491.8462557362376,314.7731647722328L483.82429019180734,314.6567323390086L483.91257176763355,309.728352762335L488.71266092157606,309.8090346493858L491.8957223832852,309.8330884663603Z" style="fill: inherit; stroke: inherit; stroke-width: inherit;" vector-effect="non-scaling-stroke"><title>Harvey County</title></path><path id="county-20073" class="county feature" d="M503.4691417352193,309.9432747863574L509.25617162911925,310.00455953868357L509.257234733238,312.4701523719692L509.2334741209909,318.2380891000828L509.2344894102149,320.7006280688398L500.9627397981084,320.61869189827314L501.049288356144,311.5781798635139L503.44724615561285,311.59942419271704Z" style="fill: inherit; stroke: inherit; stroke-width: inherit;" vector-effect="non-scaling-stroke"><title>Greenwood County</title></path><path id="county-20155" class="county feature" d="M480.71956070713446,309.6694919153837L483.91257176763355,309.728352762335L483.82429019180734,314.6567323390086L483.81686978371505,318.0020030707217L482.2208601585289,317.99586022746087L472.6160153138513,317.8032429066933L472.5456205305874,316.0686322752264L472.71123099354986,309.5035532739463Z" style="fill: inherit; stroke: inherit; stroke-width: inherit;" vector-effect="non-scaling-stroke"><title>Reno County</title></path><path id="county-20015" class="county feature" d="M496.42042248354306,311.5591512467921L501.049288356144,311.5781798635139L500.9627397981084,320.61869189827314L500.9438536011106,323.08214613649363L491.73576570042025,323.0160090511897L491.8462557362376,314.7731647722328L491.8810485182047,311.47304340378923Z" style="fill: inherit; stroke: inherit; stroke-width: inherit;" vector-effect="non-scaling-stroke"><title>Butler County</title></path><path id="county-20047" class="county feature" d="M464.6271688685311,312.52382127857175L464.64804884013375,315.8254379677628L464.5928795453057,317.56486452842273L456.61432409301847,317.2533943550811L456.5883697476398,313.88999312470935L456.71702541313397,310.6053758161215L459.89642105965424,310.7252309621214L459.8494596180567,312.35346363132965Z" style="fill: inherit; stroke: inherit; stroke-width: inherit;" vector-effect="non-scaling-stroke"><title>Edwards County</title></path><path id="county-20207" class="county feature" d="M515.6665971300072,312.48901879552216L515.5960164140365,318.2512943946151L509.2334741209909,318.2380891000828L509.257234733238,312.4701523719692Z" style="fill: inherit; stroke: inherit; stroke-width: inherit;" vector-effect="non-scaling-stroke"><title>Woodson County</title></path><path id="county-20001" class="county feature" d="M522.0915846184128,312.45273362167234L522.0004252017751,318.20762544930017L515.5960164140365,318.2512943946151L515.6665971300072,312.48901879552216Z" style="fill: inherit; stroke: inherit; stroke-width: inherit;" vector-effect="non-scaling-stroke"><title>Allen County</title></path><path id="county-20011" class="county feature" d="M528.8457280562393,312.38287803680134L528.8880100256627,319.24594338256315L522.0109238528245,319.30158973460686L522.0004252017751,318.20762544930017L522.0915846184128,312.45273362167234Z" style="fill: inherit; stroke: inherit; stroke-width: inherit;" vector-effect="non-scaling-stroke"><title>Bourbon County</title></path><path id="county-20069" class="county feature" d="M447.08165518362995,311.83918073829716L447.00869511074944,313.47859295470346L446.79867456014773,321.7524082995428L440.39944709374146,321.46071957409663L440.64069600851167,316.5365137178326L440.7191877699696,311.5139830863435Z" style="fill: inherit; stroke: inherit; stroke-width: inherit;" vector-effect="non-scaling-stroke"><title>Gray County</title></path><path id="county-20057" class="county feature" d="M456.5883697476398,313.88999312470935L456.61432409301847,317.2533943550811L456.47305845400706,322.29013317516L448.39829747289207,321.82959348276404L446.79867456014773,321.7524082995428L447.00869511074944,313.47859295470346Z" style="fill: inherit; stroke: inherit; stroke-width: inherit;" vector-effect="non-scaling-stroke"><title>Ford County</title></path><path id="county-20173" class="county feature" d="M491.8462557362376,314.7731647722328L491.73576570042025,323.0160090511897L482.13299178939366,322.8917580046532L482.2208601585289,317.99586022746087L483.81686978371505,318.0020030707217L483.82429019180734,314.6567323390086Z" style="fill: inherit; stroke: inherit; stroke-width: inherit;" vector-effect="non-scaling-stroke"><title>Sedgwick County</title></path><path id="county-20151" class="county feature" d="M472.5456205305874,316.0686322752264L472.6160153138513,317.8032429066933L472.48810253568996,322.73473335022493L464.44118142531954,322.5139253321746L464.5928795453057,317.56486452842273L464.64804884013375,315.8254379677628Z" style="fill: inherit; stroke: inherit; stroke-width: inherit;" vector-effect="non-scaling-stroke"><title>Pratt County</title></path><path id="county-20187" class="county feature" d="M427.8716346855038,315.85102314348217L427.50610807738076,322.4018072153003L427.05868484869444,322.37366267615505L419.94214896436256,321.9257130698645L420.2477396883336,317.12489524818363L420.35013165011406,315.35105775893066Z" style="fill: inherit; stroke: inherit; stroke-width: inherit;" vector-effect="non-scaling-stroke"><title>Stanton County</title></path><path id="county-20067" class="county feature" d="M434.2606448847703,316.2082270759498L433.9087738317792,322.7729269705044L427.50610807738076,322.4018072153003L427.8716346855038,315.85102314348217Z" style="fill: inherit; stroke: inherit; stroke-width: inherit;" vector-effect="non-scaling-stroke"><title>Grant County</title></path><path id="county-20081" class="county feature" d="M440.64069600851167,316.5365137178326L440.39944709374146,321.46071957409663L440.3189994393974,323.10276140886003L434.22482849927957,322.78881735530433L433.9087738317792,322.7729269705044L434.2606448847703,316.2082270759498Z" style="fill: inherit; stroke: inherit; stroke-width: inherit;" vector-effect="non-scaling-stroke"><title>Haskell County</title></path><path id="county-20097" class="county feature" d="M464.5928795453057,317.56486452842273L464.44118142531954,322.5139253321746L464.4107681053082,324.1385418836735L456.6017328155583,323.92894788972797L456.47305845400706,322.29013317516L456.61432409301847,317.2533943550811Z" style="fill: inherit; stroke: inherit; stroke-width: inherit;" vector-effect="non-scaling-stroke"><title>Kiowa County</title></path><path id="county-20095" class="county feature" d="M482.2208601585289,317.99586022746087L482.13299178939366,322.8917580046532L482.10673240390474,324.54975074903405L474.13286744332737,324.41688519022887L472.4403332403805,324.3729912049407L472.48810253568996,322.73473335022493L472.6160153138513,317.8032429066933Z" style="fill: inherit; stroke: inherit; stroke-width: inherit;" vector-effect="non-scaling-stroke"><title>Kingman County</title></path><path id="county-20205" class="county feature" d="M515.5960164140365,318.2512943946151L515.6288268893002,324.8273591120725L509.22562892535274,324.79499478098865L509.2344894102149,320.7006280688398L509.2334741209909,318.2380891000828Z" style="fill: inherit; stroke: inherit; stroke-width: inherit;" vector-effect="non-scaling-stroke"><title>Wilson County</title></path><path id="county-20133" class="county feature" d="M522.0004252017751,318.20762544930017L522.0109238528245,319.30158973460686L522.058258587759,324.78351969302594L515.6973941394755,324.82701532096326L515.6288268893002,324.8273591120725L515.5960164140365,318.2512943946151Z" style="fill: inherit; stroke: inherit; stroke-width: inherit;" vector-effect="non-scaling-stroke"><title>Neosho County</title></path><path id="county-20037" class="county feature" d="M528.8880100256627,319.24594338256315L528.8933563131511,319.6136138920516L528.9727097560999,325.07084395342554L528.9797789434191,325.55700032061065L522.2614693667556,325.6101753207397L522.058258587759,324.78351969302594L522.0109238528245,319.30158973460686Z" style="fill: inherit; stroke: inherit; stroke-width: inherit;" vector-effect="non-scaling-stroke"><title>Crawford County</title></path><path id="county-20049" class="county feature" d="M509.2344894102149,320.7006280688398L509.22562892535274,324.79499478098865L509.18405190568495,326.44305025702715L500.9415840464682,326.35600253607186L500.9438536011106,323.08214613649363L500.9627397981084,320.61869189827314Z" style="fill: inherit; stroke: inherit; stroke-width: inherit;" vector-effect="non-scaling-stroke"><title>Elk County</title></path><path id="county-20035" class="county feature" d="M500.9438536011106,323.08214613649363L500.9415840464682,326.35600253607186L500.89933181136274,332.0888142609733L497.5857546128199,332.06152148331034L491.7062693769227,332.0018155362394L491.73576570042025,323.0160090511897Z" style="fill: inherit; stroke: inherit; stroke-width: inherit;" vector-effect="non-scaling-stroke"><title>Cowley County</title></path><path id="county-20191" class="county feature" d="M491.73576570042025,323.0160090511897L491.7062693769227,332.0018155362394L487.0621645309567,331.94412346938987L482.0366997342254,331.85780473480156L482.10673240390474,324.54975074903405L482.13299178939366,322.8917580046532Z" style="fill: inherit; stroke: inherit; stroke-width: inherit;" vector-effect="non-scaling-stroke"><title>Sumner County</title></path><path id="county-20119" class="county feature" d="M446.79867456014773,321.7524082995428L448.39829747289207,321.82959348276404L448.272816803746,330.7450502278732L440.24734428328117,330.41605547331415L440.5981497005576,323.1174238103886L440.3189994393974,323.10276140886003L440.39944709374146,321.46071957409663Z" style="fill: inherit; stroke: inherit; stroke-width: inherit;" vector-effect="non-scaling-stroke"><title>Meade County</title></path><path id="county-20025" class="county feature" d="M456.47305845400706,322.29013317516L456.6017328155583,323.92894788972797L456.3654038486766,331.1187404802572L449.5542294725051,330.80977209849175L448.272816803746,330.7450502278732L448.39829747289207,321.82959348276404Z" style="fill: inherit; stroke: inherit; stroke-width: inherit;" vector-effect="non-scaling-stroke"><title>Clark County</title></path><path id="county-20007" class="county feature" d="M472.48810253568996,322.73473335022493L472.4403332403805,324.3729912049407L474.13286744332737,324.41688519022887L473.990082142879,331.692242576496L471.0752761664056,331.6060661946243L464.35044415153834,331.3966716104403L464.4107681053082,324.1385418836735L464.44118142531954,322.5139253321746Z" style="fill: inherit; stroke: inherit; stroke-width: inherit;" vector-effect="non-scaling-stroke"><title>Barber County</title></path><path id="county-20129" class="county feature" d="M427.05868484869444,322.37366267615505L426.6413463970389,329.77634417952083L419.6687526442471,329.3925266392672L419.45760267121017,329.37098136900886L419.94214896436256,321.9257130698645Z" style="fill: inherit; stroke: inherit; stroke-width: inherit;" vector-effect="non-scaling-stroke"><title>Morton County</title></path><path id="county-20189" class="county feature" d="M433.9087738317792,322.7729269705044L434.22482849927957,322.78881735530433L433.8488896154513,330.1308373085269L426.6413463970389,329.77634417952083L427.05868484869444,322.37366267615505L427.50610807738076,322.4018072153003Z" style="fill: inherit; stroke: inherit; stroke-width: inherit;" vector-effect="non-scaling-stroke"><title>Stevens County</title></path><path id="county-20175" class="county feature" d="M440.3189994393974,323.10276140886003L440.5981497005576,323.1174238103886L440.24734428328117,330.41605547331415L435.6337003972605,330.214796666546L433.8488896154513,330.1308373085269L434.22482849927957,322.78881735530433Z" style="fill: inherit; stroke: inherit; stroke-width: inherit;" vector-effect="non-scaling-stroke"><title>Seward County</title></path><path id="county-20125" class="county feature" d="M509.22562892535274,324.79499478098865L515.6288268893002,324.8273591120725L515.6973941394755,324.82701532096326L515.7127374877144,332.08141135092103L511.81059121468445,332.0955902348893L509.18617175161313,332.10307752967253L509.18405190568495,326.44305025702715Z" style="fill: inherit; stroke: inherit; stroke-width: inherit;" vector-effect="non-scaling-stroke"><title>Montgomery County</title></path><path id="county-20077" class="county feature" d="M482.0366997342254,331.85780473480156L477.46717850459527,331.77483839235265L473.990082142879,331.692242576496L474.13286744332737,324.41688519022887L482.10673240390474,324.54975074903405Z" style="fill: inherit; stroke: inherit; stroke-width: inherit;" vector-effect="non-scaling-stroke"><title>Harper County</title></path><path id="county-20033" class="county feature" d="M464.35044415153834,331.3966716104403L457.6209789156454,331.16801991514797L456.3654038486766,331.1187404802572L456.6017328155583,323.92894788972797L464.4107681053082,324.1385418836735Z" style="fill: inherit; stroke: inherit; stroke-width: inherit;" vector-effect="non-scaling-stroke"><title>Comanche County</title></path><path id="county-20099" class="county feature" d="M522.058258587759,324.78351969302594L522.2614693667556,325.6101753207397L522.3451352854457,332.0273625883367L517.4093076017689,332.07186370834825L515.7127374877144,332.08141135092103L515.6973941394755,324.82701532096326Z" style="fill: inherit; stroke: inherit; stroke-width: inherit;" vector-effect="non-scaling-stroke"><title>Labette County</title></path><path id="county-20021" class="county feature" d="M528.9797789434191,325.55700032061065L529.0569926620603,330.8670790123555L529.0728530058278,331.9578135989741L523.3206359371601,332.0185273983874L522.3451352854457,332.0273625883367L522.2614693667556,325.6101753207397Z" style="fill: inherit; stroke: inherit; stroke-width: inherit;" vector-effect="non-scaling-stroke"><title>Cherokee County</title></path><path id="county-20019" class="county feature" d="M509.18405190568495,326.44305025702715L509.18617175161313,332.10307752967253L508.6506817365966,332.10722736974526L500.89933181136274,332.0888142609733L500.9415840464682,326.35600253607186Z" style="fill: inherit; stroke: inherit; stroke-width: inherit;" vector-effect="non-scaling-stroke"><title>Chautauqua County</title></path></g><path id="counties-mesh" class="counties mesh" d="M441.50652465260276,273.805067208232L441.07312153841394,281.9761558077488L431.8417906389122,281.47764544174754L431.4891551589642,281.45758255760074M481.2792489636372,275.2024285579895L481.1458199088606,281.76658085133795L481.1125665256321,283.4025084395697L473.19073579001883,283.20818739359936L472.93495487122624,283.1984291610323L473.161051719643,275.00888357351425M472.93495487122624,283.1984291610323L465.24465395629096,282.96674167290416L464.93770850666925,282.95585745465314L465.18648497062895,274.7740529448836M489.25098015442114,275.3428988068174L489.16672444246166,281.9007865629011L481.1458199088606,281.76658085133795M497.23861857261915,275.4434082326562L497.15886873718205,283.6427782492533L494.9833530417266,283.6235851986721L489.1431211019934,283.5399196097427L489.16672444246166,281.9007865629011M449.45501808521874,274.1883409757945L449.059165442514,282.3725267422353L441.3696527728131,281.9909271963968L441.07312153841394,281.9761558077488M457.27912606649727,274.5056572321812L456.926001210623,282.68472626192874L449.3254531500627,282.3761120590691L449.059165442514,282.3725267422353M464.93770850666925,282.95585745465314L457.2993400863853,282.7009605900622L456.926001210623,282.68472626192874M505.26746631181163,275.49868542011313L505.2519544331167,283.6913387076713L500.36330029125077,283.66820571323683L497.15886873718205,283.6427782492533M518.0183636427603,275.48665604860037L518.0638025346929,282.0287266389613L514.8682929913042,282.04715021813615L511.66763372637104,282.05703032632607L511.6632626551578,275.5077095168334M511.66763372637104,282.05703032632607L511.6661379196104,283.6882410174587L508.14934543236467,283.6975526384074L505.2519544331167,283.6913387076713M431.99067951271024,273.2883269479639L431.4891551589642,281.45758255760074L422.43473660626455,280.913899285237L422.44175741201155,280.8037536206716L422.9307571612555,272.7321751955095L431.99067951271024,273.2883269479639L433.204945814373,273.35394655851474L441.22718339336507,273.7880569459436L441.50652465260276,273.805067208232L449.23144875453113,274.1764619995107L449.45501808521874,274.1883409757945L457.23845114835376,274.5041043133431L457.27912606649727,274.5056572321812L463.5997411298829,274.72594214828814L465.18648497062895,274.7740529448836L470.01789563258137,274.92034221988285L473.161051719643,275.00888357351425L476.42670650919524,275.08390808797014L481.2792489636372,275.2024285579895L482.83588859761915,275.2331704807608L489.25098015442114,275.3428988068174L495.67156042119944,275.428199495768L497.23861857261915,275.4434082326562L502.0874198996992,275.4838874748672L505.26746631181163,275.49868542011313L508.5086035915571,275.5069981267702L511.6632626551578,275.5077095168334L518.0183636427603,275.48665604860037L518.4661134873296,275.48347173441243L521.6559226429782,278.0603690799728L522.9486597214252,277.36795688005793L524.6268969443901,278.806081176269L524.5405515924898,280.5759688840876L523.5152068254012,280.2342463349306L522.1288174866154,282.54928084916435L521.2644383543314,282.00980056763547L518.0638025346929,282.0287266389613M489.1431211019934,283.5399196097427L489.0517275515465,288.4594722423941L481.04359624189277,288.31235254876356L481.1125665256321,283.4025084395697M514.8682929913042,282.04715021813615L514.801306799461,286.4562690872034L514.5408219411757,290.2813477787819L508.15200497033277,290.28786995164864L508.14934543236467,283.6975526384074M522.1288174866154,282.54928084916435L521.4594852253267,284.25593134197436L523.3930804824474,286.394300743495L520.3667193119736,286.416667074569L514.801306799461,286.4562690872034M429.54358700488444,297.73987551139373L428.3482668129599,297.6804478622762L421.45772027139907,297.30058064084926L421.8612008196241,290.72234032546226L421.9541333521497,289.1014915094686L422.43473660626455,280.913899285237M465.24465395629096,282.96674167290416L464.9407840784017,291.16279674019256L457.1378956602051,290.90028329194286L456.9423375135672,290.8928755469965L457.2993400863853,282.7009605900622M431.8417906389122,281.47764544174754L431.3429501274097,289.6296244366465L430.1035350015135,289.5647587940949L421.9541333521497,289.1014915094686M441.3696527728131,281.9909271963968L440.9474239734842,290.17455057337907L439.6461393792488,290.1092333486091L431.3429501274097,289.6296244366465M473.19073579001883,283.20818739359936L472.97807834015026,289.75973192109063L472.9350449278019,291.4018359383198L465.08497267185237,291.1653875563874L464.9407840784017,291.16279674019256M449.3254531500627,282.3761120590691L448.925061849791,290.5730915120497L440.9474239734842,290.17455057337907M494.9833530417266,283.6235851986721L494.88147714753995,290.1514278986658L494.83898806991687,291.8059031824579L488.9838211316637,291.74107504433084L489.0517275515465,288.4594722423941M481.04359624189277,288.31235254876356L480.99990400660477,289.95745320882463L472.97807834015026,289.75973192109063M456.9423375135672,290.8928755469965L449.16191158308743,290.57940076180614L448.925061849791,290.5730915120497M500.36330029125077,283.66820571323683L498.2717859786392,286.72207249478845L500.6535341259867,290.90347729398627L503.08182488696025,291.1039527909978L503.0460535081224,293.5445978213711L501.46312634960293,293.5290689435226L501.46601988266684,292.9801463219469L496.4434275149432,292.6507110634403L496.49122432077877,290.1849917264135L494.88147714753995,290.1514278986658M508.15200497033277,290.28786995164864L508.0586874871515,291.9335402171239L507.4468981050294,290.71783503810195L505.173275050309,290.4303472755971L503.08182488696025,291.1039527909978M520.3667193119736,286.416667074569L520.334857910201,293.48901122484745L515.8374749116063,293.28306361101045L514.4345113155672,293.1185565055563L514.5408219411757,290.2813477787819M526.2265628593537,290.50689432066736L524.4301587851579,290.45493841794234L524.3473092302156,294.4424281305054L522.2284115565604,294.64033803575353L520.3683301103762,294.98874393038045L520.334857910201,293.48901122484745M488.9838211316637,291.74107504433084L488.92612155404714,295.02405181715085L480.92583687256763,294.8749960090977L480.99990400660477,289.95745320882463M501.46312634960293,293.5290689435226L501.4355021253861,296.8084814457684L495.8432268339079,296.7604447921668L494.8070133801622,294.9605802565719L494.83898806991687,291.8059031824579M480.92583687256763,294.8749960090977L480.8872975755467,296.51939496946966L472.8780333307037,296.33945984670027L472.9350449278019,291.4018359383198M515.8374749116063,293.28306361101045L515.8508314130481,296.8066367727446L509.43139036414476,296.8222693470773L509.4238090921036,292.51073602580755L508.0586874871515,291.9335402171239M509.43139036414476,296.8222693470773L509.4431362693355,299.289604569577L503.5713297613269,299.2824096145007L503.03435026471703,297.64856069613234L501.4355021253861,296.8084814457684M528.6667771750641,293.39234095444897L524.8532958783602,293.16030984746646L524.3473092302156,294.4424281305054M439.6461393792488,290.1092333486091L439.1341810041756,298.2673205573034L434.67524596970804,298.01957382134606L429.54358700488444,297.73987551139373L430.1035350015135,289.5647587940949M465.08497267185237,291.1653875563874L464.7496163911215,299.3850844210724L456.9205970994576,299.1160518348529L456.7341761768542,299.1100172209251L457.1378956602051,290.90028329194286M449.16191158308743,290.57940076180614L448.7212921732705,298.7688694990594L447.37628621606837,298.6931660979619L441.0229435603977,298.3588188380902L439.1341810041756,298.2673205573034M495.8432268339079,296.7604447921668L495.29505922541375,297.8471120199681L495.21105736863996,301.671145922504L488.83126891473586,301.5938564109749L488.92612155404714,295.02405181715085M472.8780333307037,296.33945984670027L472.776776954374,299.61659735602575L464.88939903269403,299.39056697875833L464.7496163911215,299.3850844210724M456.7341761768542,299.1100172209251L448.7212921732705,298.7688694990594M522.2284115565604,294.64033803575353L522.2740069844293,299.23237188172527L515.8638099596233,299.27698292506466L515.8508314130481,296.8066367727446M428.3482668129599,297.6804478622762L427.85587498657105,305.898857009576L420.9413367618361,305.4901110857262L420.95419931756703,305.37014289852186L421.36419716900804,298.85055087964554L421.45772027139907,297.30058064084926M488.83126891473586,301.5938564109749L480.84439089172366,301.44518333848134L480.8872975755467,296.51939496946966M503.5713297613269,299.2824096145007L503.5405386730863,303.3805508682631L496.79450756164385,303.3247075940162L495.20538640065115,303.3110902359848L495.21105736863996,301.671145922504M480.84439089172366,301.44518333848134L480.82148343116756,303.08902932311173L472.7735012706015,302.91872277906975L472.776776954374,299.61659735602575M515.8638099596233,299.27698292506466L515.7848227548255,305.02679032853996L509.3788238628421,305.040983491876L509.4431362693355,299.289604569577M509.3788238628421,305.040983491876L509.25617162911925,310.00455953868357L503.4691417352193,309.9432747863574L503.5405386730863,303.3805508682631M523.3930804824474,286.394300743495L524.6901095693601,287.1928248463274L524.4141611331851,288.62908208927945L526.2265628593537,290.50689432066736L528.7172310012314,291.2139088551944L528.6476336193382,292.08599629814944L528.6667771750641,293.39234095444897L528.7108434730602,297.105106087589L528.7254529721303,299.1632631353741L522.2740069844293,299.23237188172527L522.2040102984068,305.8072425475915L515.7890787412447,305.84929397034807L515.7848227548255,305.02679032853996M441.0229435603977,298.3588188380902L440.617720966949,306.5677811149976L434.5960664499322,306.250242551767L434.2681462478695,306.23359399301364L434.67524596970804,298.01957382134606M447.37628621606837,298.6931660979619L447.0507450638188,306.90679581501456L440.617720966949,306.5677811149976M434.2681462478695,306.23359399301364L428.22540343759965,305.9184508667694L427.85587498657105,305.898857009576M456.9205970994576,299.1160518348529L456.67886893950975,305.6591635348914L456.6272513624217,307.30343859024174L447.30062401130203,306.9189530449145L447.0507450638188,306.90679581501456M472.7735012706015,302.91872277906975L472.6554558973754,307.8402613457637L466.37247120219547,307.65589792553044L464.63257771304234,307.5994366859966L464.6849919828112,305.95724661102497L464.88939903269403,299.39056697875833M464.6849919828112,305.95724661102497L456.67886893950975,305.6591635348914M488.83126891473586,301.5938564109749L488.71266092157606,309.8090346493858L483.91257176763355,309.728352762335L480.71956070713446,309.6694919153837L480.82148343116756,303.08902932311173M496.79450756164385,303.3247075940162L496.42042248354306,311.5591512467921L491.8810485182047,311.47304340378923L491.8957223832852,309.8330884663603L488.71266092157606,309.8090346493858M503.4691417352193,309.9432747863574L503.44724615561285,311.59942419271704L501.049288356144,311.5781798635139L496.42042248354306,311.5591512467921M480.71956070713446,309.6694919153837L472.71123099354986,309.5035532739463L472.6554558973754,307.8402613457637M515.7890787412447,305.84929397034807L515.6665971300072,312.48901879552216L509.257234733238,312.4701523719692L509.25617162911925,310.00455953868357M466.37247120219547,307.65589792553044L466.2165847133258,312.5704231989756L464.6271688685311,312.52382127857175L459.8494596180567,312.35346363132965L459.89642105965424,310.7252309621214L456.71702541313397,310.6053758161215L456.6272513624217,307.30343859024174M427.8716346855038,315.85102314348217L427.50610807738076,322.4018072153003L427.05868484869444,322.37366267615505L419.94214896436256,321.9257130698645L420.2477396883336,317.12489524818363L420.35013165011406,315.35105775893066L420.9413367618361,305.4901110857262M434.5960664499322,306.250242551767L434.1448162998281,314.45108757961464L434.2606448847703,316.2082270759498L427.8716346855038,315.85102314348217L427.7413075979021,314.12046219739693L428.22540343759965,305.9184508667694M427.8716346855038,315.85102314348217L420.35013165011406,315.35105775893066M472.71123099354986,309.5035532739463L472.5456205305874,316.0686322752264L464.64804884013375,315.8254379677628L464.6271688685311,312.52382127857175M456.71702541313397,310.6053758161215L456.5883697476398,313.88999312470935L447.00869511074944,313.47859295470346L447.08165518362995,311.83918073829716M491.8810485182047,311.47304340378923L491.8462557362376,314.7731647722328L483.82429019180734,314.6567323390086L483.91257176763355,309.728352762335M509.257234733238,312.4701523719692L509.2334741209909,318.2380891000828L509.2344894102149,320.7006280688398L500.9627397981084,320.61869189827314L501.049288356144,311.5781798635139M483.82429019180734,314.6567323390086L483.81686978371505,318.0020030707217L482.2208601585289,317.99586022746087L472.6160153138513,317.8032429066933L472.5456205305874,316.0686322752264M500.9627397981084,320.61869189827314L500.9438536011106,323.08214613649363L491.73576570042025,323.0160090511897L491.8462557362376,314.7731647722328M464.64804884013375,315.8254379677628L464.5928795453057,317.56486452842273L456.61432409301847,317.2533943550811L456.5883697476398,313.88999312470935M528.7254529721303,299.1632631353741L528.7401871628584,304.07620032367777L528.7646205044804,305.7504214429258L522.2040102984068,305.8072425475915L522.0915846184128,312.45273362167234L515.6665971300072,312.48901879552216L515.5960164140365,318.2512943946151L509.2334741209909,318.2380891000828M528.8880100256627,319.24594338256315L522.0109238528245,319.30158973460686L522.0004252017751,318.20762544930017M447.00869511074944,313.47859295470346L446.79867456014773,321.7524082995428L440.39944709374146,321.46071957409663L440.64069600851167,316.5365137178326M456.61432409301847,317.2533943550811L456.47305845400706,322.29013317516L448.39829747289207,321.82959348276404L446.79867456014773,321.7524082995428M500.9415840464682,326.35600253607186L500.89933181136274,332.0888142609733L497.5857546128199,332.06152148331034L491.7062693769227,332.0018155362394L491.73576570042025,323.0160090511897L482.13299178939366,322.8917580046532L482.2208601585289,317.99586022746087M472.6160153138513,317.8032429066933L472.48810253568996,322.73473335022493L464.44118142531954,322.5139253321746L464.5928795453057,317.56486452842273M447.30062401130203,306.9189530449145L447.08165518362995,311.83918073829716L440.7191877699696,311.5139830863435L440.64069600851167,316.5365137178326L434.2606448847703,316.2082270759498L433.9087738317792,322.7729269705044L427.50610807738076,322.4018072153003M440.39944709374146,321.46071957409663L440.3189994393974,323.10276140886003L434.22482849927957,322.78881735530433L433.9087738317792,322.7729269705044M464.44118142531954,322.5139253321746L464.4107681053082,324.1385418836735L456.6017328155583,323.92894788972797L456.47305845400706,322.29013317516M482.13299178939366,322.8917580046532L482.10673240390474,324.54975074903405L474.13286744332737,324.41688519022887L472.4403332403805,324.3729912049407L472.48810253568996,322.73473335022493M528.7646205044804,305.7504214429258L528.8393916089274,311.94835468048973L528.8457280562393,312.38287803680134L522.0915846184128,312.45273362167234L522.0004252017751,318.20762544930017L515.5960164140365,318.2512943946151L515.6288268893002,324.8273591120725L509.22562892535274,324.79499478098865L509.2344894102149,320.7006280688398M522.0109238528245,319.30158973460686L522.058258587759,324.78351969302594L515.6973941394755,324.82701532096326L515.6288268893002,324.8273591120725M528.8457280562393,312.38287803680134L528.8880100256627,319.24594338256315L528.8933563131511,319.6136138920516L528.9727097560999,325.07084395342554L528.9797789434191,325.55700032061065L522.2614693667556,325.6101753207397L522.058258587759,324.78351969302594M427.05868484869444,322.37366267615505L426.6413463970389,329.77634417952083L419.6687526442471,329.3925266392672L419.45760267121017,329.37098136900886L419.94214896436256,321.9257130698645M509.22562892535274,324.79499478098865L509.18405190568495,326.44305025702715L500.9415840464682,326.35600253607186L500.9438536011106,323.08214613649363M491.7062693769227,332.0018155362394L487.0621645309567,331.94412346938987L482.0366997342254,331.85780473480156L482.10673240390474,324.54975074903405M448.39829747289207,321.82959348276404L448.272816803746,330.7450502278732L440.24734428328117,330.41605547331415L440.5981497005576,323.1174238103886L440.3189994393974,323.10276140886003M456.6017328155583,323.92894788972797L456.3654038486766,331.1187404802572L449.5542294725051,330.80977209849175L448.272816803746,330.7450502278732M474.13286744332737,324.41688519022887L473.990082142879,331.692242576496L471.0752761664056,331.6060661946243L464.35044415153834,331.3966716104403L464.4107681053082,324.1385418836735M434.22482849927957,322.78881735530433L433.8488896154513,330.1308373085269L426.6413463970389,329.77634417952083M440.24734428328117,330.41605547331415L435.6337003972605,330.214796666546L433.8488896154513,330.1308373085269M515.6973941394755,324.82701532096326L515.7127374877144,332.08141135092103L511.81059121468445,332.0955902348893L509.18617175161313,332.10307752967253L509.18405190568495,326.44305025702715M482.0366997342254,331.85780473480156L477.46717850459527,331.77483839235265L473.990082142879,331.692242576496M464.35044415153834,331.3966716104403L457.6209789156454,331.16801991514797L456.3654038486766,331.1187404802572M522.2614693667556,325.6101753207397L522.3451352854457,332.0273625883367L517.4093076017689,332.07186370834825L515.7127374877144,332.08141135092103M528.9797789434191,325.55700032061065L529.0569926620603,330.8670790123555L529.0728530058278,331.9578135989741L523.3206359371601,332.0185273983874L522.3451352854457,332.0273625883367M509.18617175161313,332.10307752967253L508.6506817365966,332.10722736974526L500.89933181136274,332.0888142609733" style="fill: inherit; stroke: inherit; stroke-width: inherit;" vector-effect="non-scaling-stroke"></path></svg>