<svg xmlns="http://www.w3.org/2000/svg" version="1.2" id="root" viewBox="604.6631468700132 282.0410967732704 109.02265633540185 56.241919147223484"><g id="counties"><path id="county-21015" class="county feature" d="M671.636 283.203l.725 5.08-.58.545-2.116-1.269-1.174-.688-.389-2.424.66-1.492.991-.914z" vector-effect="non-scaling-stroke" fill="inherit" stroke="inherit" stroke-width="inherit"><title>Boone County</title></path><path id="county-21037" class="county feature" d="M676.09 283.662l1.592 2.593-2.53 1.618-.676-.836-.194-2.616-1.02-1.807z" vector-effect="non-scaling-stroke" fill="inherit" stroke="inherit" stroke-width="inherit"><title>Campbell County</title></path><path id="county-21117" class="county feature" d="M673.262 282.614l1.02 1.807.194 2.616.675.836-1.55.452-1.24-.041-.725-5.08z" vector-effect="non-scaling-stroke" fill="inherit" stroke="inherit" stroke-width="inherit"><title>Kenton County</title></path><path id="county-21191" class="county feature" d="M678.744 291.68l-3.798 1.22-1.345-4.575 1.55-.452 2.53-1.618.132.884z" vector-effect="non-scaling-stroke" fill="inherit" stroke="inherit" stroke-width="inherit"><title>Pendleton County</title></path><path id="county-21077" class="county feature" d="M671.78 288.828l-1.672 1.283-1.996 1.345-1.504-1.72 2.922-.768.135-1.409z" vector-effect="non-scaling-stroke" fill="inherit" stroke="inherit" stroke-width="inherit"><title>Gallatin County</title></path><path id="county-21023" class="county feature" d="M680.485 287.87l2.134-.209-.839 3.42-2.352 1.05-.684-.45-.931-4.542z" vector-effect="non-scaling-stroke" fill="inherit" stroke="inherit" stroke-width="inherit"><title>Bracken County</title></path><path id="county-21081" class="county feature" d="M672.361 288.284l1.24.04 1.345 4.576-1.052 1.073-.285.418-3.116-2.402-.385-1.878 1.672-1.283z" vector-effect="non-scaling-stroke" fill="inherit" stroke="inherit" stroke-width="inherit"><title>Grant County</title></path><path id="county-21161" class="county feature" d="M685.78 289.734l.866-.095.313 2.075-2.95 1.69-1.106-.536-1.123-1.786.839-3.42z" vector-effect="non-scaling-stroke" fill="inherit" stroke="inherit" stroke-width="inherit"><title>Mason County</title></path><path id="county-21041" class="county feature" d="M668.112 291.456l-1.883 1.45-1.316.366-2.685-2.555 1.98.63 2.4-1.611z" vector-effect="non-scaling-stroke" fill="inherit" stroke="inherit" stroke-width="inherit"><title>Carroll County</title></path><path id="county-21089" class="county feature" d="M698.688 289.263l2.325.912-1.838 2.77-2.246-.064-3.095-1.677 1.583-3.631-.206-.776 1.968-.815z" vector-effect="non-scaling-stroke" fill="inherit" stroke="inherit" stroke-width="inherit"><title>Greenup County</title></path><path id="county-21223" class="county feature" d="M662.228 290.717l2.685 2.555-1.896 1.98-1.78-.395-.064-1.176-.593-2.28z" vector-effect="non-scaling-stroke" fill="inherit" stroke="inherit" stroke-width="inherit"><title>Trimble County</title></path><path id="county-21187" class="county feature" d="M670.108 290.11l.385 1.879 3.116 2.402-2.032 2.534-1.886.142-1.51-1.359-.819-2.083-1.133-.718 1.883-1.45z" vector-effect="non-scaling-stroke" fill="inherit" stroke="inherit" stroke-width="inherit"><title>Owen County</title></path><path id="county-21135" class="county feature" d="M693.834 291.204l-.817 1.59.325 1.512-1.553.683-1.76-.948-1.944-.66-1.126-1.667-.313-2.075 1.71-1.434 3.743 1.055 1.588-.218 1.524-2.245.206.776z" vector-effect="non-scaling-stroke" fill="inherit" stroke="inherit" stroke-width="inherit"><title>Lewis County</title></path><path id="county-21201" class="county feature" d="M681.78 291.082l1.123 1.786-.59 1.083-1.807-.158-1.078-1.661z" vector-effect="non-scaling-stroke" fill="inherit" stroke="inherit" stroke-width="inherit"><title>Robertson County</title></path><path id="county-21103" class="county feature" d="M669.69 297.067l-1.779.604-4.165.054-.73-2.472 1.897-1.98 1.316-.366 1.133.718.818 2.083z" vector-effect="non-scaling-stroke" fill="inherit" stroke="inherit" stroke-width="inherit"><title>Henry County</title></path><path id="county-21097" class="county feature" d="M679.428 292.132l1.078 1.661-1.11 1.809-1.96 1.884-1.412.215-.434-1.662-1.696-2.066 1.052-1.073 3.798-1.22z" vector-effect="non-scaling-stroke" fill="inherit" stroke="inherit" stroke-width="inherit"><title>Harrison County</title></path><path id="county-21069" class="county feature" d="M690.03 294.04l-.484 2.145-1.662 1.833-1.511-1.668-1.82.022-2.24-2.421.59-1.083 1.106.536 2.95-1.69 1.126 1.667z" vector-effect="non-scaling-stroke" fill="inherit" stroke="inherit" stroke-width="inherit"><title>Fleming County</title></path><path id="county-21185" class="county feature" d="M663.017 295.253l.73 2.472-2.508 1.66-2.66-1.513 2.658-3.015z" vector-effect="non-scaling-stroke" fill="inherit" stroke="inherit" stroke-width="inherit"><title>Oldham County</title></path><path id="county-21019" class="county feature" d="M702.576 294.87l-2.726.455-.675-2.38 1.838-2.77 1.22 1.428z" vector-effect="non-scaling-stroke" fill="inherit" stroke="inherit" stroke-width="inherit"><title>Boyd County</title></path><path id="county-21043" class="county feature" d="M699.175 292.944l.675 2.381-1.696 1.547-1.996-.038-1.684-1.19-.965 1.533-1.72-2.188 1.553-.683-.325-1.512.817-1.59 3.095 1.677z" vector-effect="non-scaling-stroke" fill="inherit" stroke="inherit" stroke-width="inherit"><title>Carter County</title></path><path id="county-21209" class="county feature" d="M676.024 297.701l.758 1.34-3.01 2.095-1.633-1.298-.562-2.913 2.032-2.534.285-.418 1.696 2.066z" vector-effect="non-scaling-stroke" fill="inherit" stroke="inherit" stroke-width="inherit"><title>Scott County</title></path><path id="county-21181" class="county feature" d="M682.312 293.95l2.24 2.422-1.621 2.194-1.845-1.038-1.69-1.926 1.11-1.809z" vector-effect="non-scaling-stroke" fill="inherit" stroke="inherit" stroke-width="inherit"><title>Nicholas County</title></path><path id="county-21205" class="county feature" d="M691.79 294.99l1.719 2.187-.097 1.51-2.245 1.815-.98-.195-2.303-2.289 1.662-1.833.483-2.144z" vector-effect="non-scaling-stroke" fill="inherit" stroke="inherit" stroke-width="inherit"><title>Rowan County</title></path><path id="county-21111" class="county feature" d="M661.239 299.384l.947.307-.032 2.209-.011.555-1.746 1.031-2.292.003-3.085 2.012-.173-.138.36-3.292 1.349-2.235.771.3 1.252-2.264z" vector-effect="non-scaling-stroke" fill="inherit" stroke="inherit" stroke-width="inherit"><title>Jefferson County</title></path><path id="county-21073" class="county feature" d="M669.69 297.067l1.887-.142.562 2.913-1.842 1.714-2.32.033-.066-3.914z" vector-effect="non-scaling-stroke" fill="inherit" stroke="inherit" stroke-width="inherit"><title>Franklin County</title></path><path id="county-21017" class="county feature" d="M682.93 298.566l-1.297 1.635-2.858 1.268-1.47-.686-.523-1.743-.758-1.339 1.412-.215 1.96-1.884 1.69 1.926z" vector-effect="non-scaling-stroke" fill="inherit" stroke="inherit" stroke-width="inherit"><title>Bourbon County</title></path><path id="county-21211" class="county feature" d="M667.977 301.585l-.937 1.856-4.886-1.541.032-2.209-.947-.307 2.507-1.66 4.165-.053z" vector-effect="non-scaling-stroke" fill="inherit" stroke="inherit" stroke-width="inherit"><title>Shelby County</title></path><path id="county-21011" class="county feature" d="M687.884 298.018l2.302 2.29-1.06.873-2.575.6-2.1-2.351-1.52-.864 1.622-2.194 1.82-.022z" vector-effect="non-scaling-stroke" fill="inherit" stroke="inherit" stroke-width="inherit"><title>Bath County</title></path><path id="county-21127" class="county feature" d="M702.576 294.87l-.148 2.113 1.406 1.102 1.076 2.208-1.22.01-.263 1.463-5.03-1.576-.625.753-.593-.738 1.65-2.22-.675-1.113 1.696-1.547z" vector-effect="non-scaling-stroke" fill="inherit" stroke="inherit" stroke-width="inherit"><title>Lawrence County</title></path><path id="county-21063" class="county feature" d="M698.154 296.872l.676 1.113-1.651 2.22-2.491.272-1.276-1.79.097-1.51.965-1.534 1.684 1.19z" vector-effect="non-scaling-stroke" fill="inherit" stroke="inherit" stroke-width="inherit"><title>Elliott County</title></path><path id="county-21067" class="county feature" d="M678.775 301.469l-.338 3.37-1.316 1.012-.847-1.663-2.763-.877.26-2.175 3.01-2.096.525 1.743z" vector-effect="non-scaling-stroke" fill="inherit" stroke="inherit" stroke-width="inherit"><title>Fayette County</title></path><path id="county-21163" class="county feature" d="M654.138 305.572l.239 3.403-2.063.595-5.396-4.128.29-1.458 1.785-1.325 1.149 2.243 1.362.727z" vector-effect="non-scaling-stroke" fill="inherit" stroke="inherit" stroke-width="inherit"><title>Meade County</title></path><path id="county-21239" class="county feature" d="M673.771 301.136l-.26 2.175-.4 2.741-.7.368-.793-2.243-1.32-2.625 1.84-1.714z" vector-effect="non-scaling-stroke" fill="inherit" stroke="inherit" stroke-width="inherit"><title>Woodford County</title></path><path id="county-21173" class="county feature" d="M686.55 301.78l.06 1.52-2.886.136-2.09-3.235 1.297-1.635 1.52.864z" vector-effect="non-scaling-stroke" fill="inherit" stroke="inherit" stroke-width="inherit"><title>Montgomery County</title></path><path id="county-21215" class="county feature" d="M667.04 303.441l-.811 1.326-3.286.981-1.441-.834.64-2.459.012-.555z" vector-effect="non-scaling-stroke" fill="inherit" stroke="inherit" stroke-width="inherit"><title>Spencer County</title></path><path id="county-21005" class="county feature" d="M670.297 301.552l1.32 2.625-1.944.53-1.273 1.338-1.793.092-.378-1.37.811-1.326.937-1.856z" vector-effect="non-scaling-stroke" fill="inherit" stroke="inherit" stroke-width="inherit"><title>Anderson County</title></path><path id="county-21029" class="county feature" d="M661.502 304.914l-1.855 3.203-1.34.584-3.287-3.2 3.085-2.012 2.292-.003 1.746-1.03z" vector-effect="non-scaling-stroke" fill="inherit" stroke="inherit" stroke-width="inherit"><title>Bullitt County</title></path><path id="county-21175" class="county feature" d="M697.179 300.205l.593.738.04 1.988-1.585.125-2.024 2.127.256.996-3.752-2.335.46-3.342 2.245-1.815 1.276 1.79z" vector-effect="non-scaling-stroke" fill="inherit" stroke="inherit" stroke-width="inherit"><title>Morgan County</title></path><path id="county-21049" class="county feature" d="M683.724 303.436l-.298 1.809-1.17-.142-3.819-.264.338-3.37 2.858-1.268z" vector-effect="non-scaling-stroke" fill="inherit" stroke="inherit" stroke-width="inherit"><title>Clark County</title></path><path id="county-21165" class="county feature" d="M690.186 300.307l.98.195-.459 3.342-1.875.936-2.222-1.48-.06-1.52 2.576-.6z" vector-effect="non-scaling-stroke" fill="inherit" stroke="inherit" stroke-width="inherit"><title>Menifee County</title></path><path id="county-21027" class="county feature" d="M652.314 309.57l-1.404 4.039-1.9.707-1.493-.908-1.18 1.212-.85-1.756-.58-3.376 1.95-1.776.061-2.27z" vector-effect="non-scaling-stroke" fill="inherit" stroke="inherit" stroke-width="inherit"><title>Breckinridge County</title></path><path id="county-21093" class="county feature" d="M658.308 308.7l.99 1.394-2.462 3.832-.043 1.973-2.273.062-1.198-2.09-2.412-.262 1.404-4.039 2.063-.595-.239-3.403.71-.209.172.138z" vector-effect="non-scaling-stroke" fill="inherit" stroke="inherit" stroke-width="inherit"><title>Hardin County</title></path><path id="county-21113" class="county feature" d="M677.12 305.85l-1.123 1.616-.565.838-2.315-1.369-.005-.883.4-2.74 2.762.876z" vector-effect="non-scaling-stroke" fill="inherit" stroke="inherit" stroke-width="inherit"><title>Jessamine County</title></path><path id="county-21115" class="county feature" d="M703.427 301.766l-.767.636.783 2.394-1.861-.42-2.471 1.094-1.298-2.539-.041-1.988.625-.753z" vector-effect="non-scaling-stroke" fill="inherit" stroke="inherit" stroke-width="inherit"><title>Johnson County</title></path><path id="county-21091" class="county feature" d="M644.906 309.488l.581 3.376-2.831-1.163-.63-1.89-1.977-1.507 2.279-1.508 1.086 1.538 1.554.127z" vector-effect="non-scaling-stroke" fill="inherit" stroke="inherit" stroke-width="inherit"><title>Hancock County</title></path><path id="county-21179" class="county feature" d="M666.229 304.767l.378 1.37-1.413.882-1.838 2.653-1.371 3.503-1.487.204.56-1.697-1.76-1.588-.99-1.393 1.34-.584 1.854-3.203 1.44.834z" vector-effect="non-scaling-stroke" fill="inherit" stroke="inherit" stroke-width="inherit"><title>Nelson County</title></path><path id="county-21101" class="county feature" d="M633.176 308.737l2.236.597.63 2.216-1.813 1.966-1.2.792-3.471.482-.457-1.794-2.777-2.912 3.289-.211 1.361 1.124-.007-2.687 1.386 1.153z" vector-effect="non-scaling-stroke" fill="inherit" stroke="inherit" stroke-width="inherit"><title>Henderson County</title></path><path id="county-21167" class="county feature" d="M673.112 306.052l.005.883-.184 1.966-3.993 1.12-.028-3.332-.512-.644 1.273-1.338 1.945-.53.793 2.243z" vector-effect="non-scaling-stroke" fill="inherit" stroke="inherit" stroke-width="inherit"><title>Mercer County</title></path><path id="county-21159" class="county feature" d="M704.91 300.293l1.436 1.525 1.484 1.943-1.572 1.615-1.603-.08-1.212-.5-.783-2.394.767-.636.264-1.463z" vector-effect="non-scaling-stroke" fill="inherit" stroke="inherit" stroke-width="inherit"><title>Martin County</title></path><path id="county-21197" class="county feature" d="M686.61 303.3l2.222 1.48-.853 2.184-.203.03-2.757-.451-1.593-1.298.298-1.809z" vector-effect="non-scaling-stroke" fill="inherit" stroke="inherit" stroke-width="inherit"><title>Powell County</title></path><path id="county-21059" class="county feature" d="M642.656 311.7l.204 1.186-3.02 2.432-5.61-1.802 1.812-1.966-.63-2.216.525.327 2.893 1.336 1.22-2.693 1.975 1.508z" vector-effect="non-scaling-stroke" fill="inherit" stroke="inherit" stroke-width="inherit"><title>Daviess County</title></path><path id="county-21151" class="county feature" d="M682.256 305.103l.53 5.378-1.48 1.013-2.2-.033-3.11-3.995 1.125-1.615 1.316-1.012z" vector-effect="non-scaling-stroke" fill="inherit" stroke="inherit" stroke-width="inherit"><title>Madison County</title></path><path id="county-21229" class="county feature" d="M668.4 306.045l.512.644.028 3.332.03.9-4.56.136-1.054-1.385 1.838-2.653 1.413-.882z" vector-effect="non-scaling-stroke" fill="inherit" stroke="inherit" stroke-width="inherit"><title>Washington County</title></path><path id="county-21225" class="county feature" d="M629.558 314.79l-2.643 3.223-1.34-1.153-.58.837-1.162-1.21-.516-1.645 1.697-2.71 1.749-.296-.439-1.752 2.777 2.912z" vector-effect="non-scaling-stroke" fill="inherit" stroke="inherit" stroke-width="inherit"><title>Union County</title></path><path id="county-21153" class="county feature" d="M697.813 302.931l1.298 2.54 1.214 3.591-.401.673-.377-.264-2.402-2.098-2.385-.418-.3-.776-.257-.996 2.024-2.127z" vector-effect="non-scaling-stroke" fill="inherit" stroke="inherit" stroke-width="inherit"><title>Magoffin County</title></path><path id="county-21237" class="county feature" d="M694.46 306.18l.3.775-2.101-.293-1.79 1.408-2.89-1.106.853-2.184 1.875-.936z" vector-effect="non-scaling-stroke" fill="inherit" stroke="inherit" stroke-width="inherit"><title>Wolfe County</title></path><path id="county-21065" class="county feature" d="M683.426 305.245l1.593 1.298 2.757.45-1.35 1.187-.896 2.4-2.744-.1-.53-5.377z" vector-effect="non-scaling-stroke" fill="inherit" stroke="inherit" stroke-width="inherit"><title>Estill County</title></path><path id="county-21079" class="county feature" d="M675.997 307.466l3.109 3.995-1.32 1.173-3.414-2.412-1.439-1.32.184-1.967 2.315 1.369z" vector-effect="non-scaling-stroke" fill="inherit" stroke="inherit" stroke-width="inherit"><title>Garrard County</title></path><path id="county-21071" class="county feature" d="M703.443 304.796l1.212.5-.39 3.5.666.608-1.359 3.653-1.209-2.538-2.44-.784.402-.673-1.214-3.592 2.47-1.094z" vector-effect="non-scaling-stroke" fill="inherit" stroke="inherit" stroke-width="inherit"><title>Floyd County</title></path><path id="county-21195" class="county feature" d="M713.686 306.777l-4.321 5.192-3.288 2.307-.15.148-2.638-1.064.283-.303 1.359-3.653-.666-.609.39-3.499 1.603.08 1.572-1.615 3.545 3.112z" vector-effect="non-scaling-stroke" fill="inherit" stroke="inherit" stroke-width="inherit"><title>Pike County</title></path><path id="county-21183" class="county feature" d="M645.487 312.864l.85 1.756-1.032.252 1.065 2.953-2.683 2.223-1.186 1.623-3.301-3.546.64-2.807 3.02-2.432-.204-1.185z" vector-effect="non-scaling-stroke" fill="inherit" stroke="inherit" stroke-width="inherit"><title>Ohio County</title></path><path id="county-21123" class="county feature" d="M661.985 313.175l.985 1.573-1.722.108-.986 1.017-3.47.026.044-1.973 2.462-3.832 1.76 1.588-.56 1.697z" vector-effect="non-scaling-stroke" fill="inherit" stroke="inherit" stroke-width="inherit"><title>Larue County</title></path><path id="county-21155" class="county feature" d="M663.356 309.672l1.054 1.385 4.56-.136.046 1.628-.217 2.521-1.535-.792-1.358 1.066-1.237-.906-1.7.31-.984-1.573z" vector-effect="non-scaling-stroke" fill="inherit" stroke="inherit" stroke-width="inherit"><title>Marion County</title></path><path id="county-21129" class="county feature" d="M687.98 306.964l2.889 1.106-.504 2.58-.83-.49-2.763 1.328-.883-.468-.359-.44.896-2.4 1.35-1.187z" vector-effect="non-scaling-stroke" fill="inherit" stroke="inherit" stroke-width="inherit"><title>Lee County</title></path><path id="county-21021" class="county feature" d="M672.933 308.901l1.439 1.321-2.56 1.956-2.796.37-.046-1.627-.03-.9z" vector-effect="non-scaling-stroke" fill="inherit" stroke="inherit" stroke-width="inherit"><title>Boyle County</title></path><path id="county-21025" class="county feature" d="M694.76 306.955l2.385.418 2.402 2.098-2.167.008-.15 2.173-1.413-.527-2.156 2.284-1.073-.62-1.34 1.01-.883-3.15.504-2.58 1.79-1.407z" vector-effect="non-scaling-stroke" fill="inherit" stroke="inherit" stroke-width="inherit"><title>Breathitt County</title></path><path id="county-21149" class="county feature" d="M639.84 315.318l-.64 2.807-2.825.724-.895-.58-.565-2.668-1.886-1.293 1.2-.792z" vector-effect="non-scaling-stroke" fill="inherit" stroke="inherit" stroke-width="inherit"><title>McLean County</title></path><path id="county-21233" class="county feature" d="M634.915 315.601l-6.043 4.691.128-.545-1.94-.407-.145-1.327 2.643-3.223 3.471-.482z" vector-effect="non-scaling-stroke" fill="inherit" stroke="inherit" stroke-width="inherit"><title>Webster County</title></path><path id="county-21137" class="county feature" d="M677.785 312.634l-.457 3.044-.848-.417-2.132 2.49-.298-2.281-2.007-1.021-.23-2.271 2.559-1.956z" vector-effect="non-scaling-stroke" fill="inherit" stroke="inherit" stroke-width="inherit"><title>Lincoln County</title></path><path id="county-21085" class="county feature" d="M650.91 313.609l2.412.261 1.198 2.09-.131 2.084-1.255.224-4.535.743-2.23-1.186-1.064-2.953 1.033-.252 1.18-1.212 1.491.908z" vector-effect="non-scaling-stroke" fill="inherit" stroke="inherit" stroke-width="inherit"><title>Grayson County</title></path><path id="county-21109" class="county feature" d="M685.53 310.58l.36.44 1.864 2.967-2.08 2.13-2.967-.937-1.401-3.686 1.48-1.013z" vector-effect="non-scaling-stroke" fill="inherit" stroke="inherit" stroke-width="inherit"><title>Jackson County</title></path><path id="county-21107" class="county feature" d="M636.375 318.849l-1.152 1.946 1.004 2.51-2.702 1.214-2.381-.613-1.973-1.566-.299-2.048 6.043-4.69.565 2.667z" vector-effect="non-scaling-stroke" fill="inherit" stroke="inherit" stroke-width="inherit"><title>Hopkins County</title></path><path id="county-21045" class="county feature" d="M671.813 312.178l.23 2.27 2.007 1.022.298 2.282-2.366 2.599-2.245-1.068-.348-1.307-1.7-.825 1.11-2.08.217-2.522z" vector-effect="non-scaling-stroke" fill="inherit" stroke="inherit" stroke-width="inherit"><title>Casey County</title></path><path id="county-21055" class="county feature" d="M626.915 318.013l.144 1.327 1.94.407-3.968 3.31-.034.802-1.378.732-.569-2.338-2.242-2.307 1.087-1.009 2.82-.61.28-.63.58-.837z" vector-effect="non-scaling-stroke" fill="inherit" stroke="inherit" stroke-width="inherit"><title>Crittenden County</title></path><path id="county-21189" class="county feature" d="M690.365 310.65l.882 3.149.486 1.38-2.07-1.607-1.91.415-1.864-2.967.883.468 2.764-1.329z" vector-effect="non-scaling-stroke" fill="inherit" stroke="inherit" stroke-width="inherit"><title>Owsley County</title></path><path id="county-21203" class="county feature" d="M681.306 311.494l1.401 3.686-1.087.833-.76 2.586-3.532-2.921.457-3.044 1.32-1.173z" vector-effect="non-scaling-stroke" fill="inherit" stroke="inherit" stroke-width="inherit"><title>Rockcastle County</title></path><path id="county-21119" class="county feature" d="M699.547 309.47l.377.265 2.44.784 1.208 2.538-.283.303-1.264.227-2.44 1.725-2.043-1.132-.313-2.528.15-2.173z" vector-effect="non-scaling-stroke" fill="inherit" stroke="inherit" stroke-width="inherit"><title>Knott County</title></path><path id="county-21217" class="county feature" d="M662.97 314.748l1.699-.31 1.237.906 1.358-1.066 1.535.792-1.11 2.081-2.49 2.528-3.95-4.823z" vector-effect="non-scaling-stroke" fill="inherit" stroke="inherit" stroke-width="inherit"><title>Taylor County</title></path><path id="county-21087" class="county feature" d="M661.248 314.856l3.952 4.823-2.377 1.84-2.49-1.104-.407-2.224.336-2.318z" vector-effect="non-scaling-stroke" fill="inherit" stroke="inherit" stroke-width="inherit"><title>Green County</title></path><path id="county-21099" class="county feature" d="M656.793 315.9l3.47-.027-.337 2.318.407 2.224-.822.318-2.334.66-2.237-.12.016-.916-1.822-2.089 1.255-.224.131-2.083z" vector-effect="non-scaling-stroke" fill="inherit" stroke="inherit" stroke-width="inherit"><title>Hart County</title></path><path id="county-21193" class="county feature" d="M697.23 311.652l.312 2.528 2.044 1.132-.685 1.629.347 1.79-.947.467-.928-.25-.707-2.85-1.897-.702-.6-1.29-1.797.466-.306.992-.333-.386-.486-1.38 1.34-1.01 1.074.62 2.156-2.283z" vector-effect="non-scaling-stroke" fill="inherit" stroke="inherit" stroke-width="inherit"><title>Perry County</title></path><path id="county-21139" class="county feature" d="M620.808 319.946l2.242 2.307.569 2.338-.42 3.178-1.95-1.415-1.696.915-1.316-.985 1.132.144.843-1.63-1.43-1.975.327-2.421.835-.744z" vector-effect="non-scaling-stroke" fill="inherit" stroke="inherit" stroke-width="inherit"><title>Livingston County</title></path><path id="county-21177" class="county feature" d="M642.5 321.671l-.358 2.746-1.636.31-2.85.644-.201-.557-1.228-1.509-1.004-2.51 1.152-1.946 2.825-.724z" vector-effect="non-scaling-stroke" fill="inherit" stroke="inherit" stroke-width="inherit"><title>Muhlenberg County</title></path><path id="county-21031" class="county feature" d="M649.91 321.741l-3.305.122-.418 3.477-4.045-.923.359-2.746 1.186-1.623 2.683-2.223 2.229 1.186z" vector-effect="non-scaling-stroke" fill="inherit" stroke="inherit" stroke-width="inherit"><title>Butler County</title></path><path id="county-21033" class="county feature" d="M628.872 320.292l.299 2.048 1.973 1.566-.534 2.836-2.046.961-2.77-3.82-.797-.024.034-.802 3.969-3.31z" vector-effect="non-scaling-stroke" fill="inherit" stroke="inherit" stroke-width="inherit"><title>Caldwell County</title></path><path id="county-21051" class="county feature" d="M691.733 315.178l.333.386-.249 3.007.974 2.558-1.22-.168-4.363-1.318-1.709-1.929.175-1.596 2.08-2.131 1.91-.415z" vector-effect="non-scaling-stroke" fill="inherit" stroke="inherit" stroke-width="inherit"><title>Clay County</title></path><path id="county-21199" class="county feature" d="M680.288 322.314l-3.018 2.135-1.735-1.944-2.329-.048-1.224-2.106 2.366-2.6 2.132-2.49.848.417 3.531 2.921z" vector-effect="non-scaling-stroke" fill="inherit" stroke="inherit" stroke-width="inherit"><title>Pulaski County</title></path><path id="county-21061" class="county feature" d="M653.134 318.268l1.822 2.089-.016.916-.628 2.08-2.51-.12-1.892-1.492-1.311-2.73z" vector-effect="non-scaling-stroke" fill="inherit" stroke="inherit" stroke-width="inherit"><title>Edmonson County</title></path><path id="county-21125" class="county feature" d="M685.674 316.118l-.175 1.596 1.709 1.93-1.123 1.622-1.921.661-2.948.542-.928-.155.571-3.715.76-2.586 1.088-.833z" vector-effect="non-scaling-stroke" fill="inherit" stroke="inherit" stroke-width="inherit"><title>Laurel County</title></path><path id="county-21131" class="county feature" d="M697.373 318.948l-1.008 1.127-3.188 1.823-.386-.77-.974-2.557.25-3.007.305-.992 1.797-.467.6 1.291 1.897.701z" vector-effect="non-scaling-stroke" fill="inherit" stroke="inherit" stroke-width="inherit"><title>Leslie County</title></path><path id="county-21001" class="county feature" d="M667.689 317.151l1.7.825.348 1.307-1.97 3.825-.221 1.377-3.265.122-1.458-3.088 2.377-1.84z" vector-effect="non-scaling-stroke" fill="inherit" stroke="inherit" stroke-width="inherit"><title>Adair County</title></path><path id="county-21133" class="county feature" d="M703.29 313.36l2.637 1.064-2.143 1.844.237 1.308-1.953 1.615-1.12-.627-2.913 1.554.266-.92.947-.468-.347-1.79.685-1.628 2.44-1.725z" vector-effect="non-scaling-stroke" fill="inherit" stroke="inherit" stroke-width="inherit"><title>Letcher County</title></path><path id="county-21007" class="county feature" d="M614.742 328.94l-2.523.848-1.663-.328-.544-.676-.605-1.545 1.068-1.885 2.162-1.378z" vector-effect="non-scaling-stroke" fill="inherit" stroke="inherit" stroke-width="inherit"><title>Ballard County</title></path><path id="county-21145" class="county feature" d="M618.237 326.284l1.316.985.098 1.513-4.851.298-.058-.14-2.105-4.964.072-.033z" vector-effect="non-scaling-stroke" fill="inherit" stroke="inherit" stroke-width="inherit"><title>McCracken County</title></path><path id="county-21227" class="county feature" d="M649.91 321.741l1.892 1.491 2.51.12-.533 2.464-3.215 3.323.015-.59-2.73-.164-.516-.945-1.146-2.1.418-3.477z" vector-effect="non-scaling-stroke" fill="inherit" stroke="inherit" stroke-width="inherit"><title>Warren County</title></path><path id="county-21207" class="county feature" d="M671.982 320.351l1.224 2.106-3.06 2.992-2.218.333-.382-1.297.222-1.377 1.97-3.825z" vector-effect="non-scaling-stroke" fill="inherit" stroke="inherit" stroke-width="inherit"><title>Russell County</title></path><path id="county-21169" class="county feature" d="M662.823 321.52l1.458 3.087-1.873 2.485-2.156-.205-.741-6.154.822-.318z" vector-effect="non-scaling-stroke" fill="inherit" stroke="inherit" stroke-width="inherit"><title>Metcalfe County</title></path><path id="county-21143" class="county feature" d="M624.997 323.859l.798.024 2.77 3.82-3.99 2.105-1.376-2.04.42-3.177z" vector-effect="non-scaling-stroke" fill="inherit" stroke="inherit" stroke-width="inherit"><title>Lyon County</title></path><path id="county-21009" class="county feature" d="M660.252 326.887l-3.261 2.603-3.212-3.674.533-2.464.628-2.079 2.237.12 2.334-.66z" vector-effect="non-scaling-stroke" fill="inherit" stroke="inherit" stroke-width="inherit"><title>Barren County</title></path><path id="county-21047" class="county feature" d="M636.227 323.305l1.228 1.509-.375 8.174-4.51.47-.778.087-.04-6.235-1.142-.568.534-2.836 2.381.613z" vector-effect="non-scaling-stroke" fill="inherit" stroke="inherit" stroke-width="inherit"><title>Christian County</title></path><path id="county-21141" class="county feature" d="M647.333 327.44l-1.1.85-.707 3.76-4.391.53-.63-7.853 1.637-.31 4.045.923z" vector-effect="non-scaling-stroke" fill="inherit" stroke="inherit" stroke-width="inherit"><title>Logan County</title></path><path id="county-21219" class="county feature" d="M640.506 324.727l.629 7.853-.794.089-3.261.319.375-8.174.2.557z" vector-effect="non-scaling-stroke" fill="inherit" stroke="inherit" stroke-width="inherit"><title>Todd County</title></path><path id="county-21157" class="county feature" d="M623.2 327.769l1.376 2.039.876 2.2-5.541.384-.26-3.61-.098-1.513 1.697-.915z" vector-effect="non-scaling-stroke" fill="inherit" stroke="inherit" stroke-width="inherit"><title>Marshall County</title></path><path id="county-21121" class="county feature" d="M691.57 320.961l.218.968-2.867 2.626-.931 1.976-3.144-2.756-.682-1.848 1.92-.661 1.124-1.623z" vector-effect="non-scaling-stroke" fill="inherit" stroke="inherit" stroke-width="inherit"><title>Knox County</title></path><path id="county-21095" class="county feature" d="M698.3 319.198l-.265.92 2.913-1.554 1.12.627.081 1.545-2.743 1.101-.647 2.216-4.584 2.097-1.098-2.575.1-1.677 3.188-1.823 1.008-1.127z" vector-effect="non-scaling-stroke" fill="inherit" stroke="inherit" stroke-width="inherit"><title>Harlan County</title></path><path id="county-21221" class="county feature" d="M631.792 333.545l-5.633-.295-.707-1.241-.876-2.201 3.988-2.105 2.046-.961 1.141.568z" vector-effect="non-scaling-stroke" fill="inherit" stroke="inherit" stroke-width="inherit"><title>Trigg County</title></path><path id="county-21231" class="county feature" d="M677.27 324.45l.107.79-2.458 4.5-.106.01-2.822.1-1.844-4.401 3.059-2.992 2.329.048z" vector-effect="non-scaling-stroke" fill="inherit" stroke="inherit" stroke-width="inherit"><title>Wayne County</title></path><path id="county-21235" class="county feature" d="M684.164 321.927l.682 1.848 3.144 2.756-.544 1.962-1.18.103-3.194.365-1.377-1.404-1.031-2.494.552-2.594z" vector-effect="non-scaling-stroke" fill="inherit" stroke="inherit" stroke-width="inherit"><title>Whitley County</title></path><path id="county-21147" class="county feature" d="M681.216 322.469l-.552 2.594 1.031 2.494 1.377 1.404-.507.066-7.646.713 2.458-4.5-.107-.79 3.018-2.136z" vector-effect="non-scaling-stroke" fill="inherit" stroke="inherit" stroke-width="inherit"><title>McCreary County</title></path><path id="county-21013" class="county feature" d="M692.791 321.129l.386.769-.1 1.677 1.098 2.575-2.991 1.613-3.738.73.544-1.962.931-1.976 2.867-2.626-.218-.968z" vector-effect="non-scaling-stroke" fill="inherit" stroke="inherit" stroke-width="inherit"><title>Bell County</title></path><path id="county-21039" class="county feature" d="M614.742 328.94l.058.14.236 3.263-4.587.115.107-2.998 1.663.328z" vector-effect="non-scaling-stroke" fill="inherit" stroke="inherit" stroke-width="inherit"><title>Carlisle County</title></path><path id="county-21083" class="county feature" d="M619.651 328.782l.26 3.61.318 4.689-.41.023-4.446.323-.337-5.084-.236-3.263z" vector-effect="non-scaling-stroke" fill="inherit" stroke="inherit" stroke-width="inherit"><title>Graves County</title></path><path id="county-21057" class="county feature" d="M667.928 325.782l-.697 4.42-2.06.372-2.763-3.482 1.873-2.485 3.265-.122z" vector-effect="non-scaling-stroke" fill="inherit" stroke="inherit" stroke-width="inherit"><title>Cumberland County</title></path><path id="county-21003" class="county feature" d="M653.78 325.816l3.211 3.674.245 1.754-3.44.147-3.08.106-.152-2.358z" vector-effect="non-scaling-stroke" fill="inherit" stroke="inherit" stroke-width="inherit"><title>Allen County</title></path><path id="county-21053" class="county feature" d="M670.147 325.449l1.844 4.402-4.46.305-.3.045.697-4.419z" vector-effect="non-scaling-stroke" fill="inherit" stroke="inherit" stroke-width="inherit"><title>Clinton County</title></path><path id="county-21213" class="county feature" d="M650.717 331.497l-2.205.541-2.986.013.706-3.761 1.101-.85.516.945 2.73.163-.015.591z" vector-effect="non-scaling-stroke" fill="inherit" stroke="inherit" stroke-width="inherit"><title>Simpson County</title></path><path id="county-21171" class="county feature" d="M662.408 327.092l2.763 3.482-5.198.507-2.737.163-.245-1.754 3.261-2.603z" vector-effect="non-scaling-stroke" fill="inherit" stroke="inherit" stroke-width="inherit"><title>Monroe County</title></path><path id="county-21105" class="county feature" d="M615.036 332.343l.337 5.084-.149.007-.117.013-1.12-1.32-4.16-1.126-.428-1.19 1.05-1.353z" vector-effect="non-scaling-stroke" fill="inherit" stroke="inherit" stroke-width="inherit"><title>Hickman County</title></path><path id="county-21035" class="county feature" d="M625.452 332.009l.707 1.241.533 3.37-6.463.461-.318-4.689z" vector-effect="non-scaling-stroke" fill="inherit" stroke="inherit" stroke-width="inherit"><title>Calloway County</title></path><path id="county-21075" class="county feature" d="M605.473 338.233l-.81.05.81-.05zm9.634-.786l-7.586.543-1.064.154 1.171-2.592 1.238 1.19.96-1.741 4.16 1.127z" vector-effect="non-scaling-stroke" fill="inherit" stroke="inherit" stroke-width="inherit"><title>Fulton County</title></path></g><path id="counties-mesh" class="counties mesh" d="M677.682 286.255l-2.53 1.618-.676-.836-.194-2.616-1.02-1.807m1.89 5.259l-1.55.452-1.24-.041m-7.449 4.988l-1.896 1.98-1.78-.395-.064-1.176-.593-2.28 1.648-.684 1.98.63 2.4-1.611 2.922-.768.135-1.409m8.148-.42l.931 4.541-3.798 1.22-1.345-4.575m-1.82.503l-1.673 1.283-1.996 1.345-1.504-1.72m16.01-2.075l-.838 3.42-2.352 1.05-.684-.45m-3.798 1.219l-1.052 1.073-.285.418-3.116-2.402-.385-1.878m16.538-.472l.313 2.075-2.95 1.69-1.106-.536-1.123-1.786m-13.668.374l-1.883 1.45-1.316.366-2.685-2.555m38.785-.542l-1.838 2.77-2.246-.064-3.095-1.677 1.583-3.631-.206-.776m-21.602 7.594l-2.032 2.534-1.886.142-1.51-1.359-.819-2.083-1.133-.718m27.605-1.703l-.817 1.59.325 1.512-1.553.683-1.76-.948-1.944-.66-1.126-1.667m-4.056 1.154l-.59 1.083-1.807-.158-1.078-1.661m-49.87 22.658l-2.643 3.223-1.34-1.153-.58.837-1.162-1.21-.516-1.645 1.697-2.71 1.749-.296-.439-1.752 3.289-.211 1.361 1.124-.007-2.687 1.386 1.153.823-.726 2.236.597.525.327 2.893 1.336 1.22-2.693 2.278-1.508 1.086 1.538 1.554.127-.062 1.027 1.95-1.776.062-2.27.29-1.458 1.785-1.325 1.149 2.243 1.362.727 2.634-.057.71-.209.358-3.292 1.35-2.235.771.3 1.252-2.264 2.658-3.015m8.454 2.21l-1.78.604-4.165.054-.73-2.472m17.49-1.46l-1.11 1.809-1.96 1.884-1.412.215-.434-1.662-1.696-2.066m16.135.068l-.483 2.144-1.662 1.833-1.511-1.668-1.82.022-2.24-2.421m-18.567 3.774l-2.507 1.66-2.66-1.513m13.057-14.669l.725 5.08-.58.545-2.116-1.269-1.174-.688-.389-2.424.66-1.492.991-.914 1.883 1.162 1.626-.59 2.829 1.049 1.59 2.593.132.884 2.672.73 2.134-.208 3.161 2.073.866-.095 1.71-1.434 3.743 1.055 1.588-.218 1.524-2.245 1.968-.815 1.509 3.281 2.325.912 1.22 1.428.343 3.268-2.726.454-.675-2.38m.675 2.38l-1.696 1.547-1.996-.038-1.684-1.19-.965 1.533-1.72-2.188m-15.765 2.712l.758 1.34-3.01 2.095-1.633-1.298-.562-2.913m12.976-.553l-1.622 2.194-1.845-1.038-1.69-1.926m14.113 1.575l-.097 1.51-2.245 1.815-.98-.195-2.303-2.289m-26.645 1.366l.947.307-.032 2.209-.011.555-1.746 1.031-2.292.003-3.085 2.012-.173-.138m17.292-5.525l-1.842 1.714-2.32.033-.066-3.914m22.275 2.636l-1.06.874-2.575.6-2.1-2.351-1.52-.864-1.298 1.635-2.858 1.268-1.47-.686-.523-1.743m-8.805 2.545l-.937 1.856-4.886-1.541m42.756-1.607l-1.22.01-.263 1.463-5.03-1.576-.625.753-.593-.738 1.65-2.22-.675-1.113m-.975 3.333l-2.491.272-1.276-1.79m-14.637 2.782l-.338 3.37-1.316 1.012-.847-1.663-2.763-.877.26-2.175m-19.633 4.436l.239 3.403-2.063.595-5.396-4.128m26.593-2.13l-.4 2.74-.7.368-.793-2.243-1.32-2.625m16.253.228l.06 1.52-2.887.136-2.09-3.235m-14.594 3.24l-.811 1.326-3.286.981-1.441-.834.64-2.459m9.476 1.722l-1.945.53-1.273 1.338-1.793.092-.378-1.37m-4.727.147l-1.855 3.203-1.34.584-3.287-3.2m42.752-4.558l.04 1.988-1.585.125-2.024 2.127.256.996-3.752-2.335.46-3.342m-7.443 2.934l-.298 1.809-1.17-.142-3.819-.264m12.27-.995l-1.875.936-2.222-1.48m-34.296 6.27l-1.404 4.039-1.9.707-1.493-.908-1.18 1.212-.85-1.756-.58-3.376m13.4-.787l.991 1.393-2.462 3.832-.043 1.973-2.273.062-1.198-2.09-2.412-.262m26.21-7.758l-1.123 1.615-.565.838-2.315-1.369-.005-.883m30.315-4.286l-.767.636.783 2.394-1.861-.42-2.471 1.094-1.298-2.539m-52.326 9.933l-2.831-1.163-.63-1.89-1.977-1.507m26.558-2.167l-1.413.882-1.838 2.653-1.371 3.503-1.487.204.56-1.697-1.76-1.588m-23.886-.76l.63 2.216-1.813 1.966-1.2.792-3.471.482-.457-1.794-2.777-2.912m46.793-3.149l-.184 1.966-3.993 1.12-.028-3.332-.512-.644m39.43-2.284l-1.572 1.615-1.603-.08-1.212-.5m-14.611-.016l-.853 2.184-.203.03-2.757-.451-1.593-1.298m-40.77 6.456l.204 1.185-3.02 2.432-5.61-1.802m48.026-8.413l.53 5.378-1.48 1.013-2.2-.033-3.11-3.995m-7.056 2.555l.03.9-4.56.136-1.054-1.385m35.755-4.202l1.214 3.592-.401.673-.377-.264-2.402-2.098-2.385-.418-.3-.776m.3.776l-2.101-.293-1.79 1.408-2.89-1.106m-.203.03l-1.35 1.186-.896 2.4-2.744-.1m-3.68.981l-1.32 1.173-3.414-2.412-1.439-1.32m31.722-3.606l-.39 3.5.666.608-1.359 3.653-1.209-2.538-2.44-.784m2.653-14.864l-.148 2.112 1.406 1.102 1.076 2.208 1.436 1.525 1.484 1.943 3.545 3.112 2.31-.096-4.32 5.192-3.288 2.307-.15.148-2.638-1.064.283-.303m-57.234 1.563l-1.033.252 1.065 2.953-2.683 2.223-1.186 1.623-3.301-3.546.64-2.807m22.145-2.143l.985 1.573-1.722.108-.986 1.017-3.47.026m12.178-4.978l.046 1.628-.217 2.521-1.535-.792-1.358 1.066-1.237-.906-1.7.31m27.9-6.678l-.504 2.58-.83-.49-2.763 1.328-.883-.468-.359-.44m-11.158-.358l-2.56 1.956-2.796.37m30.531-3.077l-2.167.008-.15 2.173-1.413-.527-2.156 2.284-1.073-.62-1.34 1.01-.883-3.15m-51.165 7.476l-2.825.724-.895-.58-.565-2.668-1.886-1.293m1.886 1.293l-6.043 4.691.128-.545-1.94-.407-.145-1.327m50.87-5.379l-.457 3.044-.848-.417-2.132 2.49-.298-2.281-2.007-1.021-.23-2.271m-17.293 3.783l-.131 2.083-1.255.224-4.535.743-2.23-1.186m-22.75 6.766l-.42 3.178-1.95-1.415-1.696.915-1.316-.985 1.132.144.843-1.63-1.43-1.975.327-2.421.835-.744.864.288 1.087-1.009 2.82-.61.28-.63m60.894-6.677l1.865 2.967-2.08 2.13-2.967-.937-1.401-3.686m-44.93 7.355l-1.153 1.946 1.004 2.51-2.702 1.214-2.381-.613-1.973-1.566-.299-2.048m45.476-2.54l-2.366 2.599-2.245-1.068-.348-1.307-1.7-.825 1.11-2.08m-39.8 4.676l-3.968 3.31-.034.802-1.378.732-.569-2.338-2.242-2.307m70.44-6.147l.485 1.38-2.07-1.607-1.91.415m-5.046 1.193l-1.087.833-.76 2.586-3.532-2.921m25.961-2.318l-1.264.227-2.44 1.725-2.043-1.132-.313-2.528m-29.54 5.5l-2.49 2.527-3.95-4.823m3.95 4.823l-2.376 1.84-2.49-1.104-.407-2.224.336-2.318m.071 4.542l-.822.318-2.334.66-2.237-.12.016-.916-1.822-2.089m46.452-2.956l-.685 1.629.347 1.79-.947.467-.928-.25-.707-2.85-1.897-.702-.6-1.29-1.797.466-.306.992-.333-.386m-49.232 6.493l-.359 2.746-1.636.31-2.85.644-.201-.557-1.228-1.509m12.372-4.294l1.311 2.73-3.305.122-.418 3.477-4.045-.923m-10.998-.51l-.534 2.835-2.046.961-2.77-3.82-.797-.024m67.07-8.295l-.25 3.007.974 2.558-1.22-.168-4.363-1.318-1.709-1.929.175-1.596m-4.815 2.481l-.571 3.715-3.018 2.135-1.735-1.944-2.329-.048-1.224-2.106m-17.042.922l-.628 2.08-2.51-.12-1.892-1.492m-37.273 2.235l2.105 4.965-2.523.847-1.663-.328-.544-.676-.605-1.545 1.068-1.885 2.162-1.378.072-.033 5.528 2.341m68.971-6.64l-1.123 1.622-1.921.661-2.948.542-.928-.155m17.085-3.366l-1.008 1.127-3.188 1.823-.386-.77m-23.054-1.845l-1.97 3.825-.221 1.377-3.265.122-1.458-3.088m43.104-7.095l-2.143 1.844.237 1.308-1.953 1.615-1.12-.627-2.913 1.554.266-.92m-78.748 8.07l.098 1.514-4.851.298-.058-.14m39.57-5.588l-.533 2.464-3.215 3.323.015-.59-2.73-.164-.516-.945-1.146-2.1m27.019-2.883l-3.06 2.992-2.218.333-.382-1.297m-3.265.122l-1.873 2.485-2.156-.205-.741-6.154m-30.947 6.97l-3.988 2.105-1.377-2.04m37.053-.88l-3.261 2.602-3.212-3.674m-16.324-1.002l-.375 8.174-4.51.47-.778.087-.04-6.235-1.142-.568m16.723.698l-1.1.85-.707 3.76-4.391.53-.63-7.853m.63 7.853l-.794.089-3.261.319m-12.504-3.18l.876 2.2-5.541.384-.26-3.61m-4.544 8.665l-7.586.543-1.064.154 1.171-2.592 1.238 1.19.96-1.741-.427-1.19 1.05-1.353.107-2.998m81.014-8.499l.218.968-2.867 2.626-.931 1.976-3.144-2.756-.682-1.848m17.904-2.736l.081 1.545-2.743 1.101-.647 2.216-4.584 2.097-1.098-2.575.1-1.677m-61.385 11.647l-5.633-.295-.707-1.241m51.818-7.56l.107.791-2.458 4.5-.106.01-2.822.1-1.844-4.401m17.843 1.082l-.544 1.962-1.18.103-3.194.365-1.377-1.404-1.031-2.494.552-2.594m1.856 6.492l-.507.066-7.646.713m19.256-3.59l-2.991 1.613-3.738.73m-72.646.587l.236 3.263-4.587.115m9.462-.066l.318 4.689-.41.023-4.446.323-.337-5.084m52.892-6.56l-.697 4.418-2.06.373-2.763-3.482m-5.417 2.398l.245 1.754-3.44.147-3.08.106-.152-2.358m21.427.712l-4.46.305-.3.045m-16.514 1.296l-2.205.541-2.986.013m19.645-1.477l-5.198.507-2.737.163m-41.863 6.183l-.149.007-.117.013-1.12-1.32-4.16-1.126m16.332-1.75l.533 3.368-6.463.462m-15.566 1.202l.81-.05-.81.05" vector-effect="non-scaling-stroke" fill="inherit" stroke="inherit" stroke-width="inherit"/></svg>