<?xml version="1.0" standalone="yes"?>
<svg xmlns="http://www.w3.org/2000/svg" version="1.2" id="root" viewBox="604.6631468700132 282.0410967732704 109.02265633540185 56.241919147223484"><g id="counties"><path id="county-21015" class="county feature" d="M671.6355403599806,283.20310668983245L672.3612469724072,288.2837721320652L671.7803770312943,288.8279168071306L669.6653924897208,287.5590784633922L668.4913071398909,286.870544214648L668.1024003037741,284.4473505669488L668.762142200546,282.955135487333L669.7532862384593,282.0410967732704Z" style="fill: inherit; stroke: inherit; stroke-width: inherit;" vector-effect="non-scaling-stroke"><title>Boone County</title></path><path id="county-21037" class="county feature" d="M676.0908999826731,283.66193464856224L677.6818375051741,286.2549398073395L675.1514959510826,287.8725887882224L674.4762329170027,287.03677195347893L674.2817826323826,284.42086495108344L673.2617048987687,282.61374493439655Z" style="fill: inherit; stroke: inherit; stroke-width: inherit;" vector-effect="non-scaling-stroke"><title>Campbell County</title></path><path id="county-21117" class="county feature" d="M673.2617048987687,282.61374493439655L674.2817826323826,284.42086495108344L674.4762329170027,287.03677195347893L675.1514959510826,287.8725887882224L673.6013095264955,288.32474136100336L672.3612469724072,288.2837721320652L671.6355403599806,283.20310668983245Z" style="fill: inherit; stroke: inherit; stroke-width: inherit;" vector-effect="non-scaling-stroke"><title>Kenton County</title></path><path id="county-21191" class="county feature" d="M678.7440234205884,291.68039789175316L674.9458406325379,292.8998376590936L673.6013095264955,288.32474136100336L675.1514959510826,287.8725887882224L677.6818375051741,286.2549398073395L677.8126952102626,287.1388820460959Z" style="fill: inherit; stroke: inherit; stroke-width: inherit;" vector-effect="non-scaling-stroke"><title>Pendleton County</title></path><path id="county-21077" class="county feature" d="M671.7803770312943,288.8279168071306L670.1084028423714,290.1105330320522L668.1121645798985,291.45625657377127L666.6080221739738,289.7357692664185L669.5300662621305,288.9683127032505L669.6653924897208,287.5590784633922Z" style="fill: inherit; stroke: inherit; stroke-width: inherit;" vector-effect="non-scaling-stroke"><title>Gallatin County</title></path><path id="county-21023" class="county feature" d="M680.4853489658508,287.8693954217381L682.6189303721043,287.6613851211637L681.7803225033024,291.08175438765454L679.4281023329457,292.13185027252064L678.7440234205884,291.68039789175316L677.8126952102626,287.1388820460959Z" style="fill: inherit; stroke: inherit; stroke-width: inherit;" vector-effect="non-scaling-stroke"><title>Bracken County</title></path><path id="county-21081" class="county feature" d="M672.3612469724072,288.2837721320652L673.6013095264955,288.32474136100336L674.9458406325379,292.8998376590936L673.8937892494674,293.97345173464134L673.6093312329725,294.39146618481925L670.4929464687923,291.98864385281115L670.1084028423714,290.1105330320522L671.7803770312943,288.8279168071306Z" style="fill: inherit; stroke: inherit; stroke-width: inherit;" vector-effect="non-scaling-stroke"><title>Grant County</title></path><path id="county-21161" class="county feature" d="M685.7801874923241,289.73422189780104L686.6462193070579,289.638649824567L686.9594722118518,291.7143246757289L684.0088203165692,293.4041282430983L682.9027518767705,292.8676851594828L681.7803225033024,291.08175438765454L682.6189303721043,287.6613851211637Z" style="fill: inherit; stroke: inherit; stroke-width: inherit;" vector-effect="non-scaling-stroke"><title>Mason County</title></path><path id="county-21041" class="county feature" d="M668.1121645798985,291.45625657377127L666.2290162000204,292.90692343133344L664.9131267046901,293.2723108677899L662.2283198789137,290.71678504717784L664.2076868990105,291.3465547254667L666.6080221739738,289.7357692664185Z" style="fill: inherit; stroke: inherit; stroke-width: inherit;" vector-effect="non-scaling-stroke"><title>Carroll County</title></path><path id="county-21089" class="county feature" d="M698.6877705989108,289.26309416969343L701.012767626823,290.1753073361999L699.1754659570304,292.9444559291744L696.9288121360322,292.8809172793267L693.8342414315498,291.2035622922791L695.417106113467,287.57274959040876L695.2112657613129,286.79741370489774L697.1790039318726,285.9817547997085Z" style="fill: inherit; stroke: inherit; stroke-width: inherit;" vector-effect="non-scaling-stroke"><title>Greenup County</title></path><path id="county-21223" class="county feature" d="M662.2283198789137,290.71678504717784L664.9131267046901,293.2723108677899L663.0166389502342,295.2525851346435L661.2368630963122,294.85713824517586L661.1734235261915,293.68090780803925L660.5799800314853,291.400942004905Z" style="fill: inherit; stroke: inherit; stroke-width: inherit;" vector-effect="non-scaling-stroke"><title>Trimble County</title></path><path id="county-21187" class="county feature" d="M670.1084028423714,290.1105330320522L670.4929464687923,291.98864385281115L673.6093312329725,294.39146618481925L671.5767506328966,296.9254814020984L669.6907710713226,297.06704706623964L668.1801985896393,295.7080617483077L667.3623078998058,293.6250466099367L666.2290162000204,292.90692343133344L668.1121645798985,291.45625657377127Z" style="fill: inherit; stroke: inherit; stroke-width: inherit;" vector-effect="non-scaling-stroke"><title>Owen County</title></path><path id="county-21135" class="county feature" d="M693.8342414315498,291.2035622922791L693.0165142787189,292.7944805988586L693.3415800769828,294.3062797969884L691.7890547926888,294.9894740556831L690.0292295932986,294.0408124609115L688.0846887727508,293.38118725621337L686.9594722118518,291.7143246757289L686.6462193070579,289.638649824567L688.3554658343953,288.2054420487847L692.0994038664603,289.2600987555321L693.6871560911513,289.0421024748613L695.2112657613129,286.79741370489774L695.417106113467,287.57274959040876Z" style="fill: inherit; stroke: inherit; stroke-width: inherit;" vector-effect="non-scaling-stroke"><title>Lewis County</title></path><path id="county-21201" class="county feature" d="M681.7803225033024,291.08175438765454L682.9027518767705,292.8676851594828L682.3124625911371,293.9507493507084L680.5057042323534,293.79334340611047L679.4281023329457,292.13185027252064Z" style="fill: inherit; stroke: inherit; stroke-width: inherit;" vector-effect="non-scaling-stroke"><title>Robertson County</title></path><path id="county-21103" class="county feature" d="M669.6907710713226,297.06704706623964L667.911167291595,297.6708947530434L663.746247184313,297.72470690487637L663.0166389502342,295.2525851346435L664.9131267046901,293.2723108677899L666.2290162000204,292.90692343133344L667.3623078998058,293.6250466099367L668.1801985896393,295.7080617483077Z" style="fill: inherit; stroke: inherit; stroke-width: inherit;" vector-effect="non-scaling-stroke"><title>Henry County</title></path><path id="county-21097" class="county feature" d="M679.4281023329457,292.13185027252064L680.5057042323534,293.79334340611047L679.3957301941949,295.60160613499L677.4362069341134,297.48602381367743L676.0242591703623,297.70115544416547L675.5904190242011,296.0386996139646L673.8937892494674,293.97345173464134L674.9458406325379,292.8998376590936L678.7440234205884,291.68039789175316Z" style="fill: inherit; stroke: inherit; stroke-width: inherit;" vector-effect="non-scaling-stroke"><title>Harrison County</title></path><path id="county-21069" class="county feature" d="M690.0292295932986,294.0408124609115L689.5464593343198,296.18519620006L687.8837420694368,298.0181711400526L686.3728144286067,296.3498039042314L684.5527670570922,296.3715262102704L682.3124625911371,293.9507493507084L682.9027518767705,292.8676851594828L684.0088203165692,293.4041282430983L686.9594722118518,291.7143246757289L688.0846887727508,293.38118725621337Z" style="fill: inherit; stroke: inherit; stroke-width: inherit;" vector-effect="non-scaling-stroke"><title>Fleming County</title></path><path id="county-21185" class="county feature" d="M663.0166389502342,295.2525851346435L663.746247184313,297.72470690487637L661.2389767793462,299.3842852887368L658.5785534579508,297.8720340509012L661.2368630963122,294.85713824517586Z" style="fill: inherit; stroke: inherit; stroke-width: inherit;" vector-effect="non-scaling-stroke"><title>Oldham County</title></path><path id="county-21019" class="county feature" d="M702.576159305011,294.87078636144895L699.8499769919189,295.3253947509778L699.1754659570304,292.9444559291744L701.012767626823,290.1753073361999L702.2332514474759,291.6025292816529Z" style="fill: inherit; stroke: inherit; stroke-width: inherit;" vector-effect="non-scaling-stroke"><title>Boyd County</title></path><path id="county-21043" class="county feature" d="M699.1754659570304,292.9444559291744L699.8499769919189,295.3253947509778L698.1535858352845,296.87155987725384L696.1575045744592,296.83356357975185L694.4741968290585,295.643176326642L693.5086189345325,297.177475666532L691.7890547926888,294.9894740556831L693.3415800769828,294.3062797969884L693.0165142787189,292.7944805988586L693.8342414315498,291.2035622922791L696.9288121360322,292.8809172793267Z" style="fill: inherit; stroke: inherit; stroke-width: inherit;" vector-effect="non-scaling-stroke"><title>Carter County</title></path><path id="county-21209" class="county feature" d="M676.0242591703623,297.70115544416547L676.7816725130738,299.040238152076L673.7714098577167,301.1364590933845L672.1388452940237,299.83832176615533L671.5767506328966,296.9254814020984L673.6093312329725,294.39146618481925L673.8937892494674,293.97345173464134L675.5904190242011,296.0386996139646Z" style="fill: inherit; stroke: inherit; stroke-width: inherit;" vector-effect="non-scaling-stroke"><title>Scott County</title></path><path id="county-21181" class="county feature" d="M682.3124625911371,293.9507493507084L684.5527670570922,296.3715262102704L682.9308450424726,298.5661954535817L681.0860323867898,297.5284356186388L679.3957301941949,295.60160613499L680.5057042323534,293.79334340611047Z" style="fill: inherit; stroke: inherit; stroke-width: inherit;" vector-effect="non-scaling-stroke"><title>Nicholas County</title></path><path id="county-21205" class="county feature" d="M691.7890547926888,294.9894740556831L693.5086189345325,297.177475666532L693.4120475474497,298.68693867385923L691.1667378272609,300.5022138617811L690.1864075638057,300.3072967069297L687.8837420694368,298.0181711400526L689.5464593343198,296.18519620006L690.0292295932986,294.0408124609115Z" style="fill: inherit; stroke: inherit; stroke-width: inherit;" vector-effect="non-scaling-stroke"><title>Rowan County</title></path><path id="county-21111" class="county feature" d="M661.2389767793462,299.3842852887368L662.1856090516027,299.69143497782136L662.1543975293804,301.899645877224L662.142930795251,302.45541473332423L660.3967648876314,303.48601241920346L658.1054678996985,303.4892721515008L655.0198387284074,305.5008853152965L654.8474355658046,305.3633372992572L655.2063780068936,302.07141956930104L656.5555600518752,299.8361956917512L657.3270634219185,300.13691610374883L658.5785534579508,297.8720340509012Z" style="fill: inherit; stroke: inherit; stroke-width: inherit;" vector-effect="non-scaling-stroke"><title>Jefferson County</title></path><path id="county-21073" class="county feature" d="M669.6907710713226,297.06704706623964L671.5767506328966,296.9254814020984L672.1388452940237,299.83832176615533L670.2972138714485,301.5518421126061L667.9773576293524,301.585278669349L667.911167291595,297.6708947530434Z" style="fill: inherit; stroke: inherit; stroke-width: inherit;" vector-effect="non-scaling-stroke"><title>Franklin County</title></path><path id="county-21017" class="county feature" d="M682.9308450424726,298.5661954535817L681.6330804783036,300.20085038871036L678.7748129615877,301.4686586254918L677.3058836767925,300.7833374050655L676.7816725130738,299.040238152076L676.0242591703623,297.70115544416547L677.4362069341134,297.48602381367743L679.3957301941949,295.60160613499L681.0860323867898,297.5284356186388Z" style="fill: inherit; stroke: inherit; stroke-width: inherit;" vector-effect="non-scaling-stroke"><title>Bourbon County</title></path><path id="county-21211" class="county feature" d="M667.9773576293524,301.585278669349L667.0400682898411,303.4414200488144L662.1543975293804,301.899645877224L662.1856090516027,299.69143497782136L661.2389767793462,299.3842852887368L663.746247184313,297.72470690487637L667.911167291595,297.6708947530434Z" style="fill: inherit; stroke: inherit; stroke-width: inherit;" vector-effect="non-scaling-stroke"><title>Shelby County</title></path><path id="county-21011" class="county feature" d="M687.8837420694368,298.0181711400526L690.1864075638057,300.3072967069297L689.1255825632933,301.1808011737047L686.5507167588473,301.78031170840336L684.4511600455588,299.43004197256016L682.9308450424726,298.5661954535817L684.5527670570922,296.3715262102704L686.3728144286067,296.3498039042314Z" style="fill: inherit; stroke: inherit; stroke-width: inherit;" vector-effect="non-scaling-stroke"><title>Bath County</title></path><path id="county-21127" class="county feature" d="M702.576159305011,294.87078636144895L702.4276467040734,296.98304288886493L703.834422280186,298.08469924732833L704.9103865735328,300.29277336689097L703.6905197013393,300.30298664511633L703.427430529734,301.7655720927834L698.3965291665245,300.19013131886516L697.7716086119548,300.9431123754298L697.1788788222962,300.20459367943965L698.8296536546067,297.9845777977565L698.1535858352845,296.87155987725384L699.8499769919189,295.3253947509778Z" style="fill: inherit; stroke: inherit; stroke-width: inherit;" vector-effect="non-scaling-stroke"><title>Lawrence County</title></path><path id="county-21063" class="county feature" d="M698.1535858352845,296.87155987725384L698.8296536546067,297.9845777977565L697.1788788222962,300.20459367943965L694.6876916155429,300.4771115248087L693.4120475474497,298.68693867385923L693.5086189345325,297.177475666532L694.4741968290585,295.643176326642L696.1575045744592,296.83356357975185Z" style="fill: inherit; stroke: inherit; stroke-width: inherit;" vector-effect="non-scaling-stroke"><title>Elliott County</title></path><path id="county-21067" class="county feature" d="M678.7748129615877,301.4686586254918L678.4374818089084,304.8388290609546L677.1205039940046,305.85070941160586L676.273727817061,304.1875669572852L673.511411386951,303.31123823999985L673.7714098577167,301.1364590933845L676.7816725130738,299.040238152076L677.3058836767925,300.7833374050655Z" style="fill: inherit; stroke: inherit; stroke-width: inherit;" vector-effect="non-scaling-stroke"><title>Fayette County</title></path><path id="county-21163" class="county feature" d="M654.1384283895135,305.5718516885936L654.3766269060662,308.9753582624156L652.3139758755004,309.57033359765614L646.9181848311068,305.4418055751621L647.207479087312,303.98434101708574L648.9933232221507,302.6588321547373L650.1417014368553,304.9015733840139L651.5044568095641,305.62853978049725Z" style="fill: inherit; stroke: inherit; stroke-width: inherit;" vector-effect="non-scaling-stroke"><title>Meade County</title></path><path id="county-21239" class="county feature" d="M673.7714098577167,301.1364590933845L673.511411386951,303.31123823999985L673.111661400183,306.0523964877059L672.4112883106848,306.42041641691355L671.6177354378335,304.17650952357576L670.2972138714485,301.5518421126061L672.1388452940237,299.83832176615533Z" style="fill: inherit; stroke: inherit; stroke-width: inherit;" vector-effect="non-scaling-stroke"><title>Woodford County</title></path><path id="county-21173" class="county feature" d="M686.5507167588473,301.78031170840336L686.6103270225027,303.30066519820457L683.724314142297,303.4361866308742L681.6330804783036,300.20085038871036L682.9308450424726,298.5661954535817L684.4511600455588,299.43004197256016Z" style="fill: inherit; stroke: inherit; stroke-width: inherit;" vector-effect="non-scaling-stroke"><title>Montgomery County</title></path><path id="county-21215" class="county feature" d="M667.0400682898411,303.4414200488144L666.2288660487117,304.7672987347587L662.9425817273534,305.74801484927673L661.5016190746663,304.91389008789736L662.142930795251,302.45541473332423L662.1543975293804,301.899645877224Z" style="fill: inherit; stroke: inherit; stroke-width: inherit;" vector-effect="non-scaling-stroke"><title>Spencer County</title></path><path id="county-21005" class="county feature" d="M670.2972138714485,301.5518421126061L671.6177354378335,304.17650952357576L669.6725670483278,304.7073650207825L668.3997306650125,306.0447082867561L666.6070903329603,306.13715290079415L666.2288660487117,304.7672987347587L667.0400682898411,303.4414200488144L667.9773576293524,301.585278669349Z" style="fill: inherit; stroke: inherit; stroke-width: inherit;" vector-effect="non-scaling-stroke"><title>Anderson County</title></path><path id="county-21029" class="county feature" d="M661.5016190746663,304.91389008789736L659.6471057886906,308.11653105977757L658.3077662009916,308.7005517640405L655.0198387284074,305.5008853152965L658.1054678996985,303.4892721515008L660.3967648876314,303.48601241920346L662.142930795251,302.45541473332423Z" style="fill: inherit; stroke: inherit; stroke-width: inherit;" vector-effect="non-scaling-stroke"><title>Bullitt County</title></path><path id="county-21175" class="county feature" d="M697.1788788222962,300.20459367943965L697.7716086119548,300.9431123754298L697.8127463646395,302.9314007738949L696.2270727198129,303.0556048677787L694.2030769213601,305.18336362575064L694.4591202209094,306.1791686030266L690.7072018097906,303.8443658829789L691.1667378272609,300.5022138617811L693.4120475474497,298.68693867385923L694.6876916155429,300.4771115248087Z" style="fill: inherit; stroke: inherit; stroke-width: inherit;" vector-effect="non-scaling-stroke"><title>Morgan County</title></path><path id="county-21049" class="county feature" d="M683.724314142297,303.4361866308742L683.4260858264574,305.24473817789567L682.2563431512123,305.10272188765987L678.4374818089084,304.8388290609546L678.7748129615877,301.4686586254918L681.6330804783036,300.20085038871036Z" style="fill: inherit; stroke: inherit; stroke-width: inherit;" vector-effect="non-scaling-stroke"><title>Clark County</title></path><path id="county-21165" class="county feature" d="M690.1864075638057,300.3072967069297L691.1667378272609,300.5022138617811L690.7072018097906,303.8443658829789L688.8318481220144,304.77981216126557L686.6103270225027,303.30066519820457L686.5507167588473,301.78031170840336L689.1255825632933,301.1808011737047Z" style="fill: inherit; stroke: inherit; stroke-width: inherit;" vector-effect="non-scaling-stroke"><title>Menifee County</title></path><path id="county-21027" class="county feature" d="M652.3139758755004,309.57033359765614L650.909600252015,313.6086761740645L649.0093388431545,314.31561318285515L647.5170974274863,313.4081495541734L646.3377471058409,314.62016010445313L645.4874462660198,312.8639778460878L644.9062858221868,309.4879630689385L646.8566745678468,307.712149676546L646.9181848311068,305.4418055751621Z" style="fill: inherit; stroke: inherit; stroke-width: inherit;" vector-effect="non-scaling-stroke"><title>Breckinridge County</title></path><path id="county-21093" class="county feature" d="M658.3077662009916,308.7005517640405L659.2983779777588,310.0937803311451L656.8360058461478,313.9256341005487L656.7926367744718,315.89945165132247L654.5203114447877,315.96086691546816L653.3218410317564,313.8701518357434L650.909600252015,313.6086761740645L652.3139758755004,309.57033359765614L654.3766269060662,308.9753582624156L654.1384283895135,305.5718516885936L654.8474355658046,305.3633372992572L655.0198387284074,305.5008853152965Z" style="fill: inherit; stroke: inherit; stroke-width: inherit;" vector-effect="non-scaling-stroke"><title>Hardin County</title></path><path id="county-21113" class="county feature" d="M677.1205039940046,305.85070941160586L675.996522139291,307.4662673025317L675.4318162153661,308.3040055373185L673.1166935107562,306.9352617028567L673.111661400183,306.0523964877059L673.511411386951,303.31123823999985L676.273727817061,304.1875669572852Z" style="fill: inherit; stroke: inherit; stroke-width: inherit;" vector-effect="non-scaling-stroke"><title>Jessamine County</title></path><path id="county-21115" class="county feature" d="M703.427430529734,301.7655720927834L702.6601140633925,302.4020381569536L703.4434507100073,304.79574983841235L701.5819148119637,304.3756000062298L699.1108243108715,305.47034900301196L697.8127463646395,302.9314007738949L697.7716086119548,300.9431123754298L698.3965291665245,300.19013131886516Z" style="fill: inherit; stroke: inherit; stroke-width: inherit;" vector-effect="non-scaling-stroke"><title>Johnson County</title></path><path id="county-21091" class="county feature" d="M644.9062858221868,309.4879630689385L645.4874462660198,312.8639778460878L642.6559632130551,311.70078333445986L642.0253672013413,309.8118311359399L640.0493618979767,308.30385365384734L642.3280369443024,306.795561217554L643.4137024441325,308.33362525928806L644.9681463471514,308.4608985841569Z" style="fill: inherit; stroke: inherit; stroke-width: inherit;" vector-effect="non-scaling-stroke"><title>Hancock County</title></path><path id="county-21179" class="county feature" d="M666.2288660487117,304.7672987347587L666.6070903329603,306.13715290079415L665.1942861457482,307.01914112056886L663.3556341678445,309.67198954072967L661.9845560362672,313.1748545731142L660.4982185754792,313.37935013547053L661.0577820351957,311.68226592260896L659.2983779777588,310.0937803311451L658.3077662009916,308.7005517640405L659.6471057886906,308.11653105977757L661.5016190746663,304.91389008789736L662.9425817273534,305.74801484927673Z" style="fill: inherit; stroke: inherit; stroke-width: inherit;" vector-effect="non-scaling-stroke"><title>Nelson County</title></path><path id="county-21101" class="county feature" d="M633.1756944381762,308.73652615644414L635.412056370664,309.3335704898151L636.0422229715517,311.55022226466735L634.2291743182993,313.51630092781977L633.0291171482176,314.3080048238188L629.5575648552934,314.78999381052427L629.1008350865669,312.9964598112937L626.3239573940635,310.08358206551213L629.6125609899755,309.872844942136L630.9739690084358,310.9967142828941L630.9674076964342,308.30950508148965L632.3525683545959,309.46345719715544Z" style="fill: inherit; stroke: inherit; stroke-width: inherit;" vector-effect="non-scaling-stroke"><title>Henderson County</title></path><path id="county-21167" class="county feature" d="M673.111661400183,306.0523964877059L673.1166935107562,306.9352617028567L672.9334474091139,308.90148271834494L668.9400786000451,310.0213530975742L668.9123208869058,306.68885475836714L668.3997306650125,306.0447082867561L669.6725670483278,304.7073650207825L671.6177354378335,304.17650952357576L672.4112883106848,306.42041641691355Z" style="fill: inherit; stroke: inherit; stroke-width: inherit;" vector-effect="non-scaling-stroke"><title>Mercer County</title></path><path id="county-21159" class="county feature" d="M704.9103865735328,300.29277336689097L706.3462617968148,301.81828856854327L707.8295933095917,303.7606437532329L706.2584072837421,305.3759162777699L704.6548923487837,305.2960310681502L703.4434507100073,304.79574983841235L702.6601140633925,302.4020381569536L703.427430529734,301.7655720927834L703.6905197013393,300.30298664511633Z" style="fill: inherit; stroke: inherit; stroke-width: inherit;" vector-effect="non-scaling-stroke"><title>Martin County</title></path><path id="county-21197" class="county feature" d="M686.6103270225027,303.30066519820457L688.8318481220144,304.77981216126557L687.9791426545845,306.96381849108184L687.776461378782,306.99322741556057L685.019099480032,306.54286699377826L683.4260858264574,305.24473817789567L683.724314142297,303.4361866308742Z" style="fill: inherit; stroke: inherit; stroke-width: inherit;" vector-effect="non-scaling-stroke"><title>Powell County</title></path><path id="county-21059" class="county feature" d="M642.6559632130551,311.70078333445986L642.8604794502303,312.88594928896316L639.8397109972705,315.31822768898405L634.2291743182993,313.51630092781977L636.0422229715517,311.55022226466735L635.412056370664,309.3335704898151L635.9366342773268,309.6607034181674L638.8303992372535,310.99660762241956L640.0493618979767,308.30385365384734L642.0253672013413,309.8118311359399Z" style="fill: inherit; stroke: inherit; stroke-width: inherit;" vector-effect="non-scaling-stroke"><title>Daviess County</title></path><path id="county-21151" class="county feature" d="M682.2563431512123,305.10272188765987L682.7859061945461,310.4809145085985L681.3058030530552,311.49444212028106L679.1056716665614,311.4610660614592L675.996522139291,307.4662673025317L677.1205039940046,305.85070941160586L678.4374818089084,304.8388290609546Z" style="fill: inherit; stroke: inherit; stroke-width: inherit;" vector-effect="non-scaling-stroke"><title>Madison County</title></path><path id="county-21229" class="county feature" d="M668.3997306650125,306.0447082867561L668.9123208869058,306.68885475836714L668.9400786000451,310.0213530975742L668.9703783610481,310.9213475798008L664.4097429170638,311.0571432662539L663.3556341678445,309.67198954072967L665.1942861457482,307.01914112056886L666.6070903329603,306.13715290079415Z" style="fill: inherit; stroke: inherit; stroke-width: inherit;" vector-effect="non-scaling-stroke"><title>Washington County</title></path><path id="county-21225" class="county feature" d="M629.5575648552934,314.78999381052427L626.914512939527,318.01289323289154L625.5751430248536,316.859596355957L624.9956610587706,317.6970695171765L623.8332711751381,316.48777650802015L623.3171301374754,314.84222115807154L625.0139625955627,312.13206399202L626.7626076337522,311.8355051276917L626.3239573940635,310.08358206551213L629.1008350865669,312.9964598112937Z" style="fill: inherit; stroke: inherit; stroke-width: inherit;" vector-effect="non-scaling-stroke"><title>Union County</title></path><path id="county-21153" class="county feature" d="M697.8127463646395,302.9314007738949L699.1108243108715,305.47034900301196L700.3250432257944,309.06239407233613L699.9238102473573,309.7346654046511L699.547042900593,309.4707953731554L697.1449450840764,307.37250866594354L694.759926939183,306.9552881619927L694.4591202209094,306.1791686030266L694.2030769213601,305.18336362575064L696.2270727198129,303.0556048677787Z" style="fill: inherit; stroke: inherit; stroke-width: inherit;" vector-effect="non-scaling-stroke"><title>Magoffin County</title></path><path id="county-21237" class="county feature" d="M694.4591202209094,306.1791686030266L694.759926939183,306.9552881619927L692.658784376757,306.6618954421964L690.8686719474188,308.0695841069564L687.9791426545845,306.96381849108184L688.8318481220144,304.77981216126557L690.7072018097906,303.8443658829789Z" style="fill: inherit; stroke: inherit; stroke-width: inherit;" vector-effect="non-scaling-stroke"><title>Wolfe County</title></path><path id="county-21065" class="county feature" d="M683.4260858264574,305.24473817789567L685.019099480032,306.54286699377826L687.776461378782,306.99322741556057L686.4258066655009,308.18017033198976L685.5302980089098,310.5797398694367L682.7859061945461,310.4809145085985L682.2563431512123,305.10272188765987Z" style="fill: inherit; stroke: inherit; stroke-width: inherit;" vector-effect="non-scaling-stroke"><title>Estill County</title></path><path id="county-21079" class="county feature" d="M675.996522139291,307.4662673025317L679.1056716665614,311.4610660614592L677.7854986080961,312.6344028778461L674.3716587688136,310.22221927714133L672.9334474091139,308.90148271834494L673.1166935107562,306.9352617028567L675.4318162153661,308.3040055373185Z" style="fill: inherit; stroke: inherit; stroke-width: inherit;" vector-effect="non-scaling-stroke"><title>Garrard County</title></path><path id="county-21071" class="county feature" d="M703.4434507100073,304.79574983841235L704.6548923487837,305.2960310681502L704.2646397783583,308.7952963755988L704.9308361194558,309.4036407523862L703.5721575634361,313.0566459054212L702.3632551548421,310.5188715493721L699.9238102473573,309.7346654046511L700.3250432257944,309.06239407233613L699.1108243108715,305.47034900301196L701.5819148119637,304.3756000062298Z" style="fill: inherit; stroke: inherit; stroke-width: inherit;" vector-effect="non-scaling-stroke"><title>Floyd County</title></path><path id="county-21195" class="county feature" d="M713.685803205415,306.7774067811173L709.364880778548,311.9690324005195L706.077184851443,314.2763938386663L705.9272296361283,314.4235851625185L703.2894871493913,313.3603006438535L703.5721575634361,313.0566459054212L704.9308361194558,309.4036407523862L704.2646397783583,308.7952963755988L704.6548923487837,305.2960310681502L706.2584072837421,305.3759162777699L707.8295933095917,303.7606437532329L711.3750332307319,306.8733587697445Z" style="fill: inherit; stroke: inherit; stroke-width: inherit;" vector-effect="non-scaling-stroke"><title>Pike County</title></path><path id="county-21183" class="county feature" d="M645.4874462660198,312.8639778460878L646.3377471058409,314.62016010445313L645.3051387146409,314.871938579383L646.3698618198927,317.82547253705377L643.6872105122594,320.0477573858615L642.5009060179488,321.67140197632466L639.1995389372457,318.1246354909939L639.8397109972705,315.31822768898405L642.8604794502303,312.88594928896316L642.6559632130551,311.70078333445986Z" style="fill: inherit; stroke: inherit; stroke-width: inherit;" vector-effect="non-scaling-stroke"><title>Ohio County</title></path><path id="county-21123" class="county feature" d="M661.9845560362672,313.1748545731142L662.9697561499439,314.74816455293364L661.2483810888093,314.8561064236171L660.2624534229158,315.87317003548367L656.7926367744718,315.89945165132247L656.8360058461478,313.9256341005487L659.2983779777588,310.0937803311451L661.0577820351957,311.68226592260896L660.4982185754792,313.37935013547053Z" style="fill: inherit; stroke: inherit; stroke-width: inherit;" vector-effect="non-scaling-stroke"><title>Larue County</title></path><path id="county-21155" class="county feature" d="M663.3556341678445,309.67198954072967L664.4097429170638,311.0571432662539L668.9703783610481,310.9213475798008L669.0159902790526,312.5486739640253L668.7985170213577,315.07006035953395L667.2644212397809,314.2777596870649L665.9058894876957,315.34391204157123L664.6685544866743,314.4377728920605L662.9697561499439,314.74816455293364L661.9845560362672,313.1748545731142Z" style="fill: inherit; stroke: inherit; stroke-width: inherit;" vector-effect="non-scaling-stroke"><title>Marion County</title></path><path id="county-21129" class="county feature" d="M687.9791426545845,306.96381849108184L690.8686719474188,308.0695841069564L690.3647962321543,310.6493871103937L689.5359325107233,310.1594206675254L686.772186534166,311.4875680056456L685.889162281466,311.01989240326134L685.5302980089098,310.5797398694367L686.4258066655009,308.18017033198976L687.776461378782,306.99322741556057Z" style="fill: inherit; stroke: inherit; stroke-width: inherit;" vector-effect="non-scaling-stroke"><title>Lee County</title></path><path id="county-21021" class="county feature" d="M672.9334474091139,308.90148271834494L674.3716587688136,310.22221927714133L671.812787120869,312.17799304831374L669.0159902790526,312.5486739640253L668.9703783610481,310.9213475798008L668.9400786000451,310.0213530975742Z" style="fill: inherit; stroke: inherit; stroke-width: inherit;" vector-effect="non-scaling-stroke"><title>Boyle County</title></path><path id="county-21025" class="county feature" d="M694.759926939183,306.9552881619927L697.1449450840764,307.37250866594354L699.547042900593,309.4707953731554L697.379716455648,309.4792429811986L697.2294904121846,311.65176540978393L695.8172954118525,311.1249253952809L693.6605261374729,313.4089066728217L692.5878252690866,312.78843926961565L691.2471588851635,313.798549069489L690.3647962321543,310.6493871103937L690.8686719474188,308.0695841069564L692.658784376757,306.6618954421964Z" style="fill: inherit; stroke: inherit; stroke-width: inherit;" vector-effect="non-scaling-stroke"><title>Breathitt County</title></path><path id="county-21149" class="county feature" d="M639.8397109972705,315.31822768898405L639.1995389372457,318.1246354909939L636.3753154256948,318.848792366476L635.480340938766,318.2685301568242L634.9147336407565,315.6012194235966L633.0291171482176,314.3080048238188L634.2291743182993,313.51630092781977Z" style="fill: inherit; stroke: inherit; stroke-width: inherit;" vector-effect="non-scaling-stroke"><title>McLean County</title></path><path id="county-21233" class="county feature" d="M634.9147336407565,315.6012194235966L628.8719829230183,320.29219848175023L628.9996556356291,319.7473929599555L627.0592192644897,319.34046991749744L626.914512939527,318.01289323289154L629.5575648552934,314.78999381052427L633.0291171482176,314.3080048238188Z" style="fill: inherit; stroke: inherit; stroke-width: inherit;" vector-effect="non-scaling-stroke"><title>Webster County</title></path><path id="county-21137" class="county feature" d="M677.7854986080961,312.6344028778461L677.3277479078365,315.6780187204357L676.4798162506854,315.2614909578914L674.3483135672773,317.7517510656404L674.0496443252114,315.46970012659733L672.0433231129557,314.44880396712745L671.812787120869,312.17799304831374L674.3716587688136,310.22221927714133Z" style="fill: inherit; stroke: inherit; stroke-width: inherit;" vector-effect="non-scaling-stroke"><title>Lincoln County</title></path><path id="county-21085" class="county feature" d="M650.909600252015,313.6086761740645L653.3218410317564,313.8701518357434L654.5203114447877,315.96086691546816L654.3890417206205,318.04425162302505L653.1335521006662,318.26798965560215L648.5986352005052,319.01077283960774L646.3698618198927,317.82547253705377L645.3051387146409,314.871938579383L646.3377471058409,314.62016010445313L647.5170974274863,313.4081495541734L649.0093388431545,314.31561318285515Z" style="fill: inherit; stroke: inherit; stroke-width: inherit;" vector-effect="non-scaling-stroke"><title>Grayson County</title></path><path id="county-21109" class="county feature" d="M685.5302980089098,310.5797398694367L685.889162281466,311.01989240326134L687.7537286847586,313.98681025344627L685.6741552293824,316.11755133648137L682.7074020758781,315.1798763698945L681.3058030530552,311.49444212028106L682.7859061945461,310.4809145085985Z" style="fill: inherit; stroke: inherit; stroke-width: inherit;" vector-effect="non-scaling-stroke"><title>Jackson County</title></path><path id="county-21107" class="county feature" d="M636.3753154256948,318.848792366476L635.2229864554131,320.7951076840693L636.2267360059977,323.3053691703012L633.5253383780638,324.5188734653956L631.1437677098103,323.90620347156937L629.1708497663475,322.34043701813573L628.8719829230183,320.29219848175023L634.9147336407565,315.6012194235966L635.480340938766,318.2685301568242Z" style="fill: inherit; stroke: inherit; stroke-width: inherit;" vector-effect="non-scaling-stroke"><title>Hopkins County</title></path><path id="county-21045" class="county feature" d="M671.812787120869,312.17799304831374L672.0433231129557,314.44880396712745L674.0496443252114,315.46970012659733L674.3483135672773,317.7517510656404L671.9820505690277,320.3510006960862L669.7374606493579,319.28286029907395L669.3893622539518,317.9761624155225L667.6888672149405,317.15121532067997L668.7985170213577,315.07006035953395L669.0159902790526,312.5486739640253Z" style="fill: inherit; stroke: inherit; stroke-width: inherit;" vector-effect="non-scaling-stroke"><title>Casey County</title></path><path id="county-21055" class="county feature" d="M626.914512939527,318.01289323289154L627.0592192644897,319.34046991749744L628.9996556356291,319.7473929599555L625.0306584067148,323.0570157171783L624.9967035713128,323.85875206670346L623.6187976600324,324.5908448502448L623.0500457591653,322.25330332847045L620.8079023639845,319.9457553408033L621.8949586572697,318.93697106758066L624.7153767616635,318.32734560108736L624.9956610587706,317.6970695171765L625.5751430248536,316.859596355957Z" style="fill: inherit; stroke: inherit; stroke-width: inherit;" vector-effect="non-scaling-stroke"><title>Crittenden County</title></path><path id="county-21189" class="county feature" d="M690.3647962321543,310.6493871103937L691.2471588851635,313.798549069489L691.7327099455058,315.1781667810267L689.6633135139705,313.57218040652526L687.7537286847586,313.98681025344627L685.889162281466,311.01989240326134L686.772186534166,311.4875680056456L689.5359325107233,310.1594206675254Z" style="fill: inherit; stroke: inherit; stroke-width: inherit;" vector-effect="non-scaling-stroke"><title>Owsley County</title></path><path id="county-21203" class="county feature" d="M681.3058030530552,311.49444212028106L682.7074020758781,315.1798763698945L681.6195908460018,316.01312649994054L680.8594805369457,318.5990701761177L677.3277479078365,315.6780187204357L677.7854986080961,312.6344028778461L679.1056716665614,311.4610660614592Z" style="fill: inherit; stroke: inherit; stroke-width: inherit;" vector-effect="non-scaling-stroke"><title>Rockcastle County</title></path><path id="county-21119" class="county feature" d="M699.547042900593,309.4707953731554L699.9238102473573,309.7346654046511L702.3632551548421,310.5188715493721L703.5721575634361,313.0566459054212L703.2894871493913,313.3603006438535L702.0251089322622,313.5874800394994L699.5856023319375,315.3122429235377L697.5421312099431,314.1802261280477L697.2294904121846,311.65176540978393L697.379716455648,309.4792429811986Z" style="fill: inherit; stroke: inherit; stroke-width: inherit;" vector-effect="non-scaling-stroke"><title>Knott County</title></path><path id="county-21217" class="county feature" d="M662.9697561499439,314.74816455293364L664.6685544866743,314.4377728920605L665.9058894876957,315.34391204157123L667.2644212397809,314.2777596870649L668.7985170213577,315.07006035953395L667.6888672149405,317.15121532067997L665.1999081577228,319.67947050499924L661.2483810888093,314.8561064236171Z" style="fill: inherit; stroke: inherit; stroke-width: inherit;" vector-effect="non-scaling-stroke"><title>Taylor County</title></path><path id="county-21087" class="county feature" d="M661.2483810888093,314.8561064236171L665.1999081577228,319.67947050499924L662.82308423107,321.51927528359056L660.3330079410346,320.4150078503063L659.9260908631666,318.191246930366L660.2624534229158,315.87317003548367Z" style="fill: inherit; stroke: inherit; stroke-width: inherit;" vector-effect="non-scaling-stroke"><title>Green County</title></path><path id="county-21099" class="county feature" d="M656.7926367744718,315.89945165132247L660.2624534229158,315.87317003548367L659.9260908631666,318.191246930366L660.3330079410346,320.4150078503063L659.5109185049174,320.73253782961876L657.176926824257,321.393899659947L654.9403344893271,321.27302321818786L654.955756253291,320.3568141397717L653.1335521006662,318.26798965560215L654.3890417206205,318.04425162302505L654.5203114447877,315.96086691546816Z" style="fill: inherit; stroke: inherit; stroke-width: inherit;" vector-effect="non-scaling-stroke"><title>Hart County</title></path><path id="county-21193" class="county feature" d="M697.2294904121846,311.65176540978393L697.5421312099431,314.1802261280477L699.5856023319375,315.3122429235377L698.9013610093482,316.9408144445465L699.2481606487518,318.73043003289627L698.3008880649537,319.1982894272503L697.3734589034423,318.9482663871254L696.6663478545738,316.0972904389988L694.7685270318875,315.39647888603463L694.1690762238288,314.10532441660257L692.3718188160001,314.5715369066678L692.0662045860969,315.5642552040475L691.7327099455058,315.1781667810267L691.2471588851635,313.798549069489L692.5878252690866,312.78843926961565L693.6605261374729,313.4089066728217L695.8172954118525,311.1249253952809Z" style="fill: inherit; stroke: inherit; stroke-width: inherit;" vector-effect="non-scaling-stroke"><title>Perry County</title></path><path id="county-21139" class="county feature" d="M620.8079023639845,319.9457553408033L623.0500457591653,322.25330332847045L623.6187976600324,324.5908448502448L623.1992991662682,327.7686166858098L621.2498521931122,326.3538126398636L619.552849075787,327.26873229596686L618.2369628767287,326.2843028665369L619.3692956871076,326.42776934661254L620.2115613690386,324.7980601604038L618.7817598156906,322.8225220998846L619.1090924553888,320.40167850668513L619.9438392745093,319.65843230121834Z" style="fill: inherit; stroke: inherit; stroke-width: inherit;" vector-effect="non-scaling-stroke"><title>Livingston County</title></path><path id="county-21177" class="county feature" d="M642.5009060179488,321.67140197632466L642.1420687134839,324.4174991795677L640.5059467621518,324.72656876258975L637.6554154114214,325.3711344326248L637.4550307879257,324.8139058125673L636.2267360059977,323.3053691703012L635.2229864554131,320.7951076840693L636.3753154256948,318.848792366476L639.1995389372457,318.1246354909939Z" style="fill: inherit; stroke: inherit; stroke-width: inherit;" vector-effect="non-scaling-stroke"><title>Muhlenberg County</title></path><path id="county-21031" class="county feature" d="M649.9100493887149,321.7411340695054L646.6052523413663,321.86348481018456L646.187461406083,325.339790959973L642.1420687134839,324.4174991795677L642.5009060179488,321.67140197632466L643.6872105122594,320.0477573858615L646.3698618198927,317.82547253705377L648.5986352005052,319.01077283960774Z" style="fill: inherit; stroke: inherit; stroke-width: inherit;" vector-effect="non-scaling-stroke"><title>Butler County</title></path><path id="county-21033" class="county feature" d="M628.8719829230183,320.29219848175023L629.1708497663475,322.34043701813573L631.1437677098103,323.90620347156937L630.6102638808579,326.74178992921395L628.5642173036296,327.7034723619922L625.7949206579467,323.88346900050055L624.9967035713128,323.85875206670346L625.0306584067148,323.0570157171783L628.9996556356291,319.7473929599555Z" style="fill: inherit; stroke: inherit; stroke-width: inherit;" vector-effect="non-scaling-stroke"><title>Caldwell County</title></path><path id="county-21051" class="county feature" d="M691.7327099455058,315.1781667810267L692.0662045860969,315.5642552040475L691.817296148472,318.57119369691395L692.791070060319,321.1285738775225L691.5703333592726,320.96148301373364L687.208015865126,319.64340646833557L685.4991839022603,317.7143657196499L685.6741552293824,316.11755133648137L687.7537286847586,313.98681025344627L689.6633135139705,313.57218040652526Z" style="fill: inherit; stroke: inherit; stroke-width: inherit;" vector-effect="non-scaling-stroke"><title>Clay County</title></path><path id="county-21199" class="county feature" d="M680.2879451866413,322.31405645246446L677.2704012710253,324.44919426034346L675.534648276333,322.50540591747335L673.2060052081064,322.4567851845528L671.9820505690277,320.3510006960862L674.3483135672773,317.7517510656404L676.4798162506854,315.2614909578914L677.3277479078365,315.6780187204357L680.8594805369457,318.5990701761177Z" style="fill: inherit; stroke: inherit; stroke-width: inherit;" vector-effect="non-scaling-stroke"><title>Pulaski County</title></path><path id="county-21061" class="county feature" d="M653.1335521006662,318.26798965560215L654.955756253291,320.3568141397717L654.9403344893271,321.27302321818786L654.3117311346227,323.3522509623251L651.801858875986,323.23220503321875L649.9100493887149,321.7411340695054L648.5986352005052,319.01077283960774Z" style="fill: inherit; stroke: inherit; stroke-width: inherit;" vector-effect="non-scaling-stroke"><title>Edmonson County</title></path><path id="county-21125" class="county feature" d="M685.6741552293824,316.11755133648137L685.4991839022603,317.7143657196499L687.208015865126,319.64340646833557L686.08477581467,321.2655497672432L684.1636217484479,321.92742660878673L681.2157858958824,322.4689500800962L680.2879451866413,322.31405645246446L680.8594805369457,318.5990701761177L681.6195908460018,316.01312649994054L682.7074020758781,315.1798763698945Z" style="fill: inherit; stroke: inherit; stroke-width: inherit;" vector-effect="non-scaling-stroke"><title>Laurel County</title></path><path id="county-21131" class="county feature" d="M697.3734589034423,318.9482663871254L696.364833188097,320.0750952013975L693.1766110353831,321.89795736602923L692.791070060319,321.1285738775225L691.817296148472,318.57119369691395L692.0662045860969,315.5642552040475L692.3718188160001,314.5715369066678L694.1690762238288,314.10532441660257L694.7685270318875,315.39647888603463L696.6663478545738,316.0972904389988Z" style="fill: inherit; stroke: inherit; stroke-width: inherit;" vector-effect="non-scaling-stroke"><title>Leslie County</title></path><path id="county-21001" class="county feature" d="M667.6888672149405,317.15121532067997L669.3893622539518,317.9761624155225L669.7374606493579,319.28286029907395L667.7678504892742,323.10820333999015L667.5456644073022,324.48522976717663L664.280514670604,324.60729761505013L662.82308423107,321.51927528359056L665.1999081577228,319.67947050499924Z" style="fill: inherit; stroke: inherit; stroke-width: inherit;" vector-effect="non-scaling-stroke"><title>Adair County</title></path><path id="county-21133" class="county feature" d="M703.2894871493913,313.3603006438535L705.9272296361283,314.4235851625185L703.783622680383,316.26838587847976L704.020933333798,317.5759586217232L702.0681709919734,319.19079221186485L700.9481214172763,318.5638630035736L698.0353715594564,320.11762714945723L698.3008880649537,319.1982894272503L699.2481606487518,318.73043003289627L698.9013610093482,316.9408144445465L699.5856023319375,315.3122429235377L702.0251089322622,313.5874800394994Z" style="fill: inherit; stroke: inherit; stroke-width: inherit;" vector-effect="non-scaling-stroke"><title>Letcher County</title></path><path id="county-21007" class="county feature" d="M614.7415133324405,328.9409012316278L612.2187856536194,329.7877698088147L610.5558893829831,329.45977195493356L610.0122738989003,328.7842916175184L609.4065095927632,327.2387714734223L610.4747956040552,325.35373089973837L612.6373879863384,323.9756120443071Z" style="fill: inherit; stroke: inherit; stroke-width: inherit;" vector-effect="non-scaling-stroke"><title>Ballard County</title></path><path id="county-21145" class="county feature" d="M618.2369628767287,326.2843028665369L619.552849075787,327.26873229596686L619.6514921630607,328.78190067312676L614.7999117417963,329.0796969108309L614.7415133324405,328.9409012316278L612.6373879863384,323.9756120443071L612.7091514052946,323.942839965442Z" style="fill: inherit; stroke: inherit; stroke-width: inherit;" vector-effect="non-scaling-stroke"><title>McCracken County</title></path><path id="county-21227" class="county feature" d="M649.9100493887149,321.7411340695054L651.801858875986,323.23220503321875L654.3117311346227,323.3522509623251L653.7793063964561,325.81602363112154L650.5636797951827,329.13908875528705L650.5786244384923,328.5481691478582L647.8488508137706,328.3854938321068L647.3333191358719,327.4402510714782L646.187461406083,325.339790959973L646.6052523413663,321.86348481018456Z" style="fill: inherit; stroke: inherit; stroke-width: inherit;" vector-effect="non-scaling-stroke"><title>Warren County</title></path><path id="county-21207" class="county feature" d="M671.9820505690277,320.3510006960862L673.2060052081064,322.4567851845528L670.146641252206,325.4490379999238L667.9284776140031,325.782102027302L667.5456644073022,324.48522976717663L667.7678504892742,323.10820333999015L669.7374606493579,319.28286029907395Z" style="fill: inherit; stroke: inherit; stroke-width: inherit;" vector-effect="non-scaling-stroke"><title>Russell County</title></path><path id="county-21169" class="county feature" d="M662.82308423107,321.51927528359056L664.280514670604,324.60729761505013L662.4076535082536,327.09203309227735L660.252436989202,326.88712896748973L659.5109185049174,320.73253782961876L660.3330079410346,320.4150078503063Z" style="fill: inherit; stroke: inherit; stroke-width: inherit;" vector-effect="non-scaling-stroke"><title>Metcalfe County</title></path><path id="county-21143" class="county feature" d="M624.9967035713128,323.85875206670346L625.7949206579467,323.88346900050055L628.5642173036296,327.7034723619922L624.5758700140111,329.8077882721318L623.1992991662682,327.7686166858098L623.6187976600324,324.5908448502448Z" style="fill: inherit; stroke: inherit; stroke-width: inherit;" vector-effect="non-scaling-stroke"><title>Lyon County</title></path><path id="county-21009" class="county feature" d="M660.252436989202,326.88712896748973L656.9909784194875,329.48956850194304L653.7793063964561,325.81602363112154L654.3117311346227,323.3522509623251L654.9403344893271,321.27302321818786L657.176926824257,321.393899659947L659.5109185049174,320.73253782961876Z" style="fill: inherit; stroke: inherit; stroke-width: inherit;" vector-effect="non-scaling-stroke"><title>Barren County</title></path><path id="county-21047" class="county feature" d="M636.2267360059977,323.3053691703012L637.4550307879257,324.8139058125673L637.0799754998324,332.98792108487123L632.5702687455387,333.4579384752609L631.7917121208136,333.54466841799206L631.7512797591229,327.3098413707205L630.6102638808579,326.74178992921395L631.1437677098103,323.90620347156937L633.5253383780638,324.5188734653956Z" style="fill: inherit; stroke: inherit; stroke-width: inherit;" vector-effect="non-scaling-stroke"><title>Christian County</title></path><path id="county-21141" class="county feature" d="M647.3333191358719,327.4402510714782L646.232262395597,328.2898108854539L645.5259619228353,332.05082630400136L641.1349807681444,332.5798020928314L640.5059467621518,324.72656876258975L642.1420687134839,324.4174991795677L646.187461406083,325.339790959973Z" style="fill: inherit; stroke: inherit; stroke-width: inherit;" vector-effect="non-scaling-stroke"><title>Logan County</title></path><path id="county-21219" class="county feature" d="M640.5059467621518,324.72656876258975L641.1349807681444,332.5798020928314L640.3407308768822,332.6687354448444L637.0799754998324,332.98792108487123L637.4550307879257,324.8139058125673L637.6554154114214,325.3711344326248Z" style="fill: inherit; stroke: inherit; stroke-width: inherit;" vector-effect="non-scaling-stroke"><title>Todd County</title></path><path id="county-21157" class="county feature" d="M623.1992991662682,327.7686166858098L624.5758700140111,329.8077882721318L625.4518106771902,332.0085272542916L619.9109273778975,332.39245300137145L619.6514921630607,328.78190067312676L619.552849075787,327.26873229596686L621.2498521931122,326.3538126398636Z" style="fill: inherit; stroke: inherit; stroke-width: inherit;" vector-effect="non-scaling-stroke"><title>Marshall County</title></path><path id="county-21121" class="county feature" d="M691.5703333592726,320.96148301373364L691.7883941130804,321.92883273643986L688.9211634464159,324.5553771577961L687.9897585496054,326.5305848800549L684.8460061183588,323.7748649207541L684.1636217484479,321.92742660878673L686.08477581467,321.2655497672432L687.208015865126,319.64340646833557Z" style="fill: inherit; stroke: inherit; stroke-width: inherit;" vector-effect="non-scaling-stroke"><title>Knox County</title></path><path id="county-21095" class="county feature" d="M698.3008880649537,319.1982894272503L698.0353715594564,320.11762714945723L700.9481214172763,318.5638630035736L702.0681709919734,319.19079221186485L702.1489900208057,320.73590890356536L699.4058534662533,321.83703537638917L698.7586396223865,324.0525611972547L694.1746212923108,326.1495315110167L693.0769711837781,323.57537020905556L693.1766110353831,321.89795736602923L696.364833188097,320.0750952013975L697.3734589034423,318.9482663871254Z" style="fill: inherit; stroke: inherit; stroke-width: inherit;" vector-effect="non-scaling-stroke"><title>Harlan County</title></path><path id="county-21221" class="county feature" d="M631.7917121208136,333.54466841799206L626.1588993268549,333.2503819894872L625.4518106771902,332.0085272542916L624.5758700140111,329.8077882721318L628.5642173036296,327.7034723619922L630.6102638808579,326.74178992921395L631.7512797591229,327.3098413707205Z" style="fill: inherit; stroke: inherit; stroke-width: inherit;" vector-effect="non-scaling-stroke"><title>Trigg County</title></path><path id="county-21231" class="county feature" d="M677.2704012710253,324.44919426034346L677.3766326006004,325.24025421569274L674.9188680577719,329.7398372397138L674.8127700223033,329.75037919300246L671.9911321902625,329.85055165436665L670.146641252206,325.4490379999238L673.2060052081064,322.4567851845528L675.534648276333,322.50540591747335Z" style="fill: inherit; stroke: inherit; stroke-width: inherit;" vector-effect="non-scaling-stroke"><title>Wayne County</title></path><path id="county-21235" class="county feature" d="M684.1636217484479,321.92742660878673L684.8460061183588,323.7748649207541L687.9897585496054,326.5305848800549L687.4459577642641,328.4930788187263L686.2660430127787,328.59626052034764L683.0720323167645,328.9608931739391L681.6952465009686,327.55710126554095L680.6638221484068,325.0628329110542L681.2157858958824,322.4689500800962Z" style="fill: inherit; stroke: inherit; stroke-width: inherit;" vector-effect="non-scaling-stroke"><title>Whitley County</title></path><path id="county-21147" class="county feature" d="M681.2157858958824,322.4689500800962L680.6638221484068,325.0628329110542L681.6952465009686,327.55710126554095L683.0720323167645,328.9608931739391L682.5645537539427,329.0270469851524L674.9188680577719,329.7398372397138L677.3766326006004,325.24025421569274L677.2704012710253,324.44919426034346L680.2879451866413,322.31405645246446Z" style="fill: inherit; stroke: inherit; stroke-width: inherit;" vector-effect="non-scaling-stroke"><title>McCreary County</title></path><path id="county-21013" class="county feature" d="M692.791070060319,321.1285738775225L693.1766110353831,321.89795736602923L693.0769711837781,323.57537020905556L694.1746212923108,326.1495315110167L691.1840024053931,327.7625820091839L687.4459577642641,328.4930788187263L687.9897585496054,326.5305848800549L688.9211634464159,324.5553771577961L691.7883941130804,321.92883273643986L691.5703333592726,320.96148301373364Z" style="fill: inherit; stroke: inherit; stroke-width: inherit;" vector-effect="non-scaling-stroke"><title>Bell County</title></path><path id="county-21039" class="county feature" d="M614.7415133324405,328.9409012316278L614.7999117417963,329.0796969108309L615.036451928131,332.3425246054811L610.44871442631,332.45812985425334L610.5558893829831,329.45977195493356L612.2187856536194,329.7877698088147Z" style="fill: inherit; stroke: inherit; stroke-width: inherit;" vector-effect="non-scaling-stroke"><title>Carlisle County</title></path><path id="county-21083" class="county feature" d="M619.6514921630607,328.78190067312676L619.9109273778975,332.39245300137145L620.2288419675696,337.08103203611563L619.8184280893317,337.1043291597166L615.3734360147733,337.426635906785L615.036451928131,332.3425246054811L614.7999117417963,329.0796969108309Z" style="fill: inherit; stroke: inherit; stroke-width: inherit;" vector-effect="non-scaling-stroke"><title>Graves County</title></path><path id="county-21057" class="county feature" d="M667.9284776140031,325.782102027302L667.2307860852895,330.2013769378292L665.1707040361953,330.5744826502215L662.4076535082536,327.09203309227735L664.280514670604,324.60729761505013L667.5456644073022,324.48522976717663Z" style="fill: inherit; stroke: inherit; stroke-width: inherit;" vector-effect="non-scaling-stroke"><title>Cumberland County</title></path><path id="county-21003" class="county feature" d="M653.7793063964561,325.81602363112154L656.9909784194875,329.48956850194304L657.235607106257,331.2438405539914L653.7957736936016,331.39104069867574L650.7168887236054,331.4974052482909L650.5636797951827,329.13908875528705Z" style="fill: inherit; stroke: inherit; stroke-width: inherit;" vector-effect="non-scaling-stroke"><title>Allen County</title></path><path id="county-21053" class="county feature" d="M670.146641252206,325.4490379999238L671.9911321902625,329.85055165436665L667.5313259260741,330.1561419231343L667.2307860852895,330.2013769378292L667.9284776140031,325.782102027302Z" style="fill: inherit; stroke: inherit; stroke-width: inherit;" vector-effect="non-scaling-stroke"><title>Clinton County</title></path><path id="county-21213" class="county feature" d="M650.7168887236054,331.4974052482909L648.5118032092678,332.0384441145037L645.5259619228353,332.05082630400136L646.232262395597,328.2898108854539L647.3333191358719,327.4402510714782L647.8488508137706,328.3854938321068L650.5786244384923,328.5481691478582L650.5636797951827,329.13908875528705Z" style="fill: inherit; stroke: inherit; stroke-width: inherit;" vector-effect="non-scaling-stroke"><title>Simpson County</title></path><path id="county-21171" class="county feature" d="M662.4076535082536,327.09203309227735L665.1707040361953,330.5744826502215L659.9726163616629,331.0806741129488L657.235607106257,331.2438405539914L656.9909784194875,329.48956850194304L660.252436989202,326.88712896748973Z" style="fill: inherit; stroke: inherit; stroke-width: inherit;" vector-effect="non-scaling-stroke"><title>Monroe County</title></path><path id="county-21105" class="county feature" d="M615.036451928131,332.3425246054811L615.3734360147733,337.426635906785L615.2241144138015,337.43387272991924L615.1073348689666,337.44676055264006L613.9863894149304,336.12753535198885L609.8266073176247,335.0009198291068L609.3994917440666,333.81011052018107L610.44871442631,332.45812985425334Z" style="fill: inherit; stroke: inherit; stroke-width: inherit;" vector-effect="non-scaling-stroke"><title>Hickman County</title></path><path id="county-21035" class="county feature" d="M625.4518106771902,332.0085272542916L626.1588993268549,333.2503819894872L626.6923644213211,336.61931545932225L620.2288419675696,337.08103203611563L619.9109273778975,332.39245300137145Z" style="fill: inherit; stroke: inherit; stroke-width: inherit;" vector-effect="non-scaling-stroke"><title>Calloway County</title></path><path id="county-21075" class="county feature" d="M605.4729111169704,338.2327276900277L604.6631468700132,338.2830159204939L605.4729111169704,338.2327276900277ZM615.1073348689666,337.44676055264006L607.5212558171922,337.99009629811474L606.456546298794,338.1435311732489L607.6280428038464,335.55221902891276L608.8664330363283,336.7418049957191L609.8266073176247,335.0009198291068L613.9863894149304,336.12753535198885Z" style="fill: inherit; stroke: inherit; stroke-width: inherit;" vector-effect="non-scaling-stroke"><title>Fulton County</title></path></g><path id="counties-mesh" class="counties mesh" d="M677.6818375051741,286.2549398073395L675.1514959510826,287.8725887882224L674.4762329170027,287.03677195347893L674.2817826323826,284.42086495108344L673.2617048987687,282.61374493439655M675.1514959510826,287.8725887882224L673.6013095264955,288.32474136100336L672.3612469724072,288.2837721320652M664.9131267046901,293.2723108677899L663.0166389502342,295.2525851346435L661.2368630963122,294.85713824517586L661.1734235261915,293.68090780803925L660.5799800314853,291.400942004905L662.2283198789137,290.71678504717784L664.2076868990105,291.3465547254667L666.6080221739738,289.7357692664185L669.5300662621305,288.9683127032505L669.6653924897208,287.5590784633922M677.8126952102626,287.1388820460959L678.7440234205884,291.68039789175316L674.9458406325379,292.8998376590936L673.6013095264955,288.32474136100336M671.7803770312943,288.8279168071306L670.1084028423714,290.1105330320522L668.1121645798985,291.45625657377127L666.6080221739738,289.7357692664185M682.6189303721043,287.6613851211637L681.7803225033024,291.08175438765454L679.4281023329457,292.13185027252064L678.7440234205884,291.68039789175316M674.9458406325379,292.8998376590936L673.8937892494674,293.97345173464134L673.6093312329725,294.39146618481925L670.4929464687923,291.98864385281115L670.1084028423714,290.1105330320522M686.6462193070579,289.638649824567L686.9594722118518,291.7143246757289L684.0088203165692,293.4041282430983L682.9027518767705,292.8676851594828L681.7803225033024,291.08175438765454M668.1121645798985,291.45625657377127L666.2290162000204,292.90692343133344L664.9131267046901,293.2723108677899L662.2283198789137,290.71678504717784M701.012767626823,290.1753073361999L699.1754659570304,292.9444559291744L696.9288121360322,292.8809172793267L693.8342414315498,291.2035622922791L695.417106113467,287.57274959040876L695.2112657613129,286.79741370489774M673.6093312329725,294.39146618481925L671.5767506328966,296.9254814020984L669.6907710713226,297.06704706623964L668.1801985896393,295.7080617483077L667.3623078998058,293.6250466099367L666.2290162000204,292.90692343133344M693.8342414315498,291.2035622922791L693.0165142787189,292.7944805988586L693.3415800769828,294.3062797969884L691.7890547926888,294.9894740556831L690.0292295932986,294.0408124609115L688.0846887727508,293.38118725621337L686.9594722118518,291.7143246757289M682.9027518767705,292.8676851594828L682.3124625911371,293.9507493507084L680.5057042323534,293.79334340611047L679.4281023329457,292.13185027252064M629.5575648552934,314.78999381052427L626.914512939527,318.01289323289154L625.5751430248536,316.859596355957L624.9956610587706,317.6970695171765L623.8332711751381,316.48777650802015L623.3171301374754,314.84222115807154L625.0139625955627,312.13206399202L626.7626076337522,311.8355051276917L626.3239573940635,310.08358206551213L629.6125609899755,309.872844942136L630.9739690084358,310.9967142828941L630.9674076964342,308.30950508148965L632.3525683545959,309.46345719715544L633.1756944381762,308.73652615644414L635.412056370664,309.3335704898151L635.9366342773268,309.6607034181674L638.8303992372535,310.99660762241956L640.0493618979767,308.30385365384734L642.3280369443024,306.795561217554L643.4137024441325,308.33362525928806L644.9681463471514,308.4608985841569L644.9062858221868,309.4879630689385L646.8566745678468,307.712149676546L646.9181848311068,305.4418055751621L647.207479087312,303.98434101708574L648.9933232221507,302.6588321547373L650.1417014368553,304.9015733840139L651.5044568095641,305.62853978049725L654.1384283895135,305.5718516885936L654.8474355658046,305.3633372992572L655.2063780068936,302.07141956930104L656.5555600518752,299.8361956917512L657.3270634219185,300.13691610374883L658.5785534579508,297.8720340509012L661.2368630963122,294.85713824517586M669.6907710713226,297.06704706623964L667.911167291595,297.6708947530434L663.746247184313,297.72470690487637L663.0166389502342,295.2525851346435M680.5057042323534,293.79334340611047L679.3957301941949,295.60160613499L677.4362069341134,297.48602381367743L676.0242591703623,297.70115544416547L675.5904190242011,296.0386996139646L673.8937892494674,293.97345173464134M690.0292295932986,294.0408124609115L689.5464593343198,296.18519620006L687.8837420694368,298.0181711400526L686.3728144286067,296.3498039042314L684.5527670570922,296.3715262102704L682.3124625911371,293.9507493507084M663.746247184313,297.72470690487637L661.2389767793462,299.3842852887368L658.5785534579508,297.8720340509012M671.6355403599806,283.20310668983245L672.3612469724072,288.2837721320652L671.7803770312943,288.8279168071306L669.6653924897208,287.5590784633922L668.4913071398909,286.870544214648L668.1024003037741,284.4473505669488L668.762142200546,282.955135487333L669.7532862384593,282.0410967732704L671.6355403599806,283.20310668983245L673.2617048987687,282.61374493439655L676.0908999826731,283.66193464856224L677.6818375051741,286.2549398073395L677.8126952102626,287.1388820460959L680.4853489658508,287.8693954217381L682.6189303721043,287.6613851211637L685.7801874923241,289.73422189780104L686.6462193070579,289.638649824567L688.3554658343953,288.2054420487847L692.0994038664603,289.2600987555321L693.6871560911513,289.0421024748613L695.2112657613129,286.79741370489774L697.1790039318726,285.9817547997085L698.6877705989108,289.26309416969343L701.012767626823,290.1753073361999L702.2332514474759,291.6025292816529L702.576159305011,294.87078636144895L699.8499769919189,295.3253947509778L699.1754659570304,292.9444559291744M699.8499769919189,295.3253947509778L698.1535858352845,296.87155987725384L696.1575045744592,296.83356357975185L694.4741968290585,295.643176326642L693.5086189345325,297.177475666532L691.7890547926888,294.9894740556831M676.0242591703623,297.70115544416547L676.7816725130738,299.040238152076L673.7714098577167,301.1364590933845L672.1388452940237,299.83832176615533L671.5767506328966,296.9254814020984M684.5527670570922,296.3715262102704L682.9308450424726,298.5661954535817L681.0860323867898,297.5284356186388L679.3957301941949,295.60160613499M693.5086189345325,297.177475666532L693.4120475474497,298.68693867385923L691.1667378272609,300.5022138617811L690.1864075638057,300.3072967069297L687.8837420694368,298.0181711400526M661.2389767793462,299.3842852887368L662.1856090516027,299.69143497782136L662.1543975293804,301.899645877224L662.142930795251,302.45541473332423L660.3967648876314,303.48601241920346L658.1054678996985,303.4892721515008L655.0198387284074,305.5008853152965L654.8474355658046,305.3633372992572M672.1388452940237,299.83832176615533L670.2972138714485,301.5518421126061L667.9773576293524,301.585278669349L667.911167291595,297.6708947530434M690.1864075638057,300.3072967069297L689.1255825632933,301.1808011737047L686.5507167588473,301.78031170840336L684.4511600455588,299.43004197256016L682.9308450424726,298.5661954535817L681.6330804783036,300.20085038871036L678.7748129615877,301.4686586254918L677.3058836767925,300.7833374050655L676.7816725130738,299.040238152076M667.9773576293524,301.585278669349L667.0400682898411,303.4414200488144L662.1543975293804,301.899645877224M704.9103865735328,300.29277336689097L703.6905197013393,300.30298664511633L703.427430529734,301.7655720927834L698.3965291665245,300.19013131886516L697.7716086119548,300.9431123754298L697.1788788222962,300.20459367943965L698.8296536546067,297.9845777977565L698.1535858352845,296.87155987725384M697.1788788222962,300.20459367943965L694.6876916155429,300.4771115248087L693.4120475474497,298.68693867385923M678.7748129615877,301.4686586254918L678.4374818089084,304.8388290609546L677.1205039940046,305.85070941160586L676.273727817061,304.1875669572852L673.511411386951,303.31123823999985L673.7714098577167,301.1364590933845M654.1384283895135,305.5718516885936L654.3766269060662,308.9753582624156L652.3139758755004,309.57033359765614L646.9181848311068,305.4418055751621M673.511411386951,303.31123823999985L673.111661400183,306.0523964877059L672.4112883106848,306.42041641691355L671.6177354378335,304.17650952357576L670.2972138714485,301.5518421126061M686.5507167588473,301.78031170840336L686.6103270225027,303.30066519820457L683.724314142297,303.4361866308742L681.6330804783036,300.20085038871036M667.0400682898411,303.4414200488144L666.2288660487117,304.7672987347587L662.9425817273534,305.74801484927673L661.5016190746663,304.91389008789736L662.142930795251,302.45541473332423M671.6177354378335,304.17650952357576L669.6725670483278,304.7073650207825L668.3997306650125,306.0447082867561L666.6070903329603,306.13715290079415L666.2288660487117,304.7672987347587M661.5016190746663,304.91389008789736L659.6471057886906,308.11653105977757L658.3077662009916,308.7005517640405L655.0198387284074,305.5008853152965M697.7716086119548,300.9431123754298L697.8127463646395,302.9314007738949L696.2270727198129,303.0556048677787L694.2030769213601,305.18336362575064L694.4591202209094,306.1791686030266L690.7072018097906,303.8443658829789L691.1667378272609,300.5022138617811M683.724314142297,303.4361866308742L683.4260858264574,305.24473817789567L682.2563431512123,305.10272188765987L678.4374818089084,304.8388290609546M690.7072018097906,303.8443658829789L688.8318481220144,304.77981216126557L686.6103270225027,303.30066519820457M652.3139758755004,309.57033359765614L650.909600252015,313.6086761740645L649.0093388431545,314.31561318285515L647.5170974274863,313.4081495541734L646.3377471058409,314.62016010445313L645.4874462660198,312.8639778460878L644.9062858221868,309.4879630689385M658.3077662009916,308.7005517640405L659.2983779777588,310.0937803311451L656.8360058461478,313.9256341005487L656.7926367744718,315.89945165132247L654.5203114447877,315.96086691546816L653.3218410317564,313.8701518357434L650.909600252015,313.6086761740645M677.1205039940046,305.85070941160586L675.996522139291,307.4662673025317L675.4318162153661,308.3040055373185L673.1166935107562,306.9352617028567L673.111661400183,306.0523964877059M703.427430529734,301.7655720927834L702.6601140633925,302.4020381569536L703.4434507100073,304.79574983841235L701.5819148119637,304.3756000062298L699.1108243108715,305.47034900301196L697.8127463646395,302.9314007738949M645.4874462660198,312.8639778460878L642.6559632130551,311.70078333445986L642.0253672013413,309.8118311359399L640.0493618979767,308.30385365384734M666.6070903329603,306.13715290079415L665.1942861457482,307.01914112056886L663.3556341678445,309.67198954072967L661.9845560362672,313.1748545731142L660.4982185754792,313.37935013547053L661.0577820351957,311.68226592260896L659.2983779777588,310.0937803311451M635.412056370664,309.3335704898151L636.0422229715517,311.55022226466735L634.2291743182993,313.51630092781977L633.0291171482176,314.3080048238188L629.5575648552934,314.78999381052427L629.1008350865669,312.9964598112937L626.3239573940635,310.08358206551213M673.1166935107562,306.9352617028567L672.9334474091139,308.90148271834494L668.9400786000451,310.0213530975742L668.9123208869058,306.68885475836714L668.3997306650125,306.0447082867561M707.8295933095917,303.7606437532329L706.2584072837421,305.3759162777699L704.6548923487837,305.2960310681502L703.4434507100073,304.79574983841235M688.8318481220144,304.77981216126557L687.9791426545845,306.96381849108184L687.776461378782,306.99322741556057L685.019099480032,306.54286699377826L683.4260858264574,305.24473817789567M642.6559632130551,311.70078333445986L642.8604794502303,312.88594928896316L639.8397109972705,315.31822768898405L634.2291743182993,313.51630092781977M682.2563431512123,305.10272188765987L682.7859061945461,310.4809145085985L681.3058030530552,311.49444212028106L679.1056716665614,311.4610660614592L675.996522139291,307.4662673025317M668.9400786000451,310.0213530975742L668.9703783610481,310.9213475798008L664.4097429170638,311.0571432662539L663.3556341678445,309.67198954072967M699.1108243108715,305.47034900301196L700.3250432257944,309.06239407233613L699.9238102473573,309.7346654046511L699.547042900593,309.4707953731554L697.1449450840764,307.37250866594354L694.759926939183,306.9552881619927L694.4591202209094,306.1791686030266M694.759926939183,306.9552881619927L692.658784376757,306.6618954421964L690.8686719474188,308.0695841069564L687.9791426545845,306.96381849108184M687.776461378782,306.99322741556057L686.4258066655009,308.18017033198976L685.5302980089098,310.5797398694367L682.7859061945461,310.4809145085985M679.1056716665614,311.4610660614592L677.7854986080961,312.6344028778461L674.3716587688136,310.22221927714133L672.9334474091139,308.90148271834494M704.6548923487837,305.2960310681502L704.2646397783583,308.7952963755988L704.9308361194558,309.4036407523862L703.5721575634361,313.0566459054212L702.3632551548421,310.5188715493721L699.9238102473573,309.7346654046511M702.576159305011,294.87078636144895L702.4276467040734,296.98304288886493L703.834422280186,298.08469924732833L704.9103865735328,300.29277336689097L706.3462617968148,301.81828856854327L707.8295933095917,303.7606437532329L711.3750332307319,306.8733587697445L713.685803205415,306.7774067811173L709.364880778548,311.9690324005195L706.077184851443,314.2763938386663L705.9272296361283,314.4235851625185L703.2894871493913,313.3603006438535L703.5721575634361,313.0566459054212M646.3377471058409,314.62016010445313L645.3051387146409,314.871938579383L646.3698618198927,317.82547253705377L643.6872105122594,320.0477573858615L642.5009060179488,321.67140197632466L639.1995389372457,318.1246354909939L639.8397109972705,315.31822768898405M661.9845560362672,313.1748545731142L662.9697561499439,314.74816455293364L661.2483810888093,314.8561064236171L660.2624534229158,315.87317003548367L656.7926367744718,315.89945165132247M668.9703783610481,310.9213475798008L669.0159902790526,312.5486739640253L668.7985170213577,315.07006035953395L667.2644212397809,314.2777596870649L665.9058894876957,315.34391204157123L664.6685544866743,314.4377728920605L662.9697561499439,314.74816455293364M690.8686719474188,308.0695841069564L690.3647962321543,310.6493871103937L689.5359325107233,310.1594206675254L686.772186534166,311.4875680056456L685.889162281466,311.01989240326134L685.5302980089098,310.5797398694367M674.3716587688136,310.22221927714133L671.812787120869,312.17799304831374L669.0159902790526,312.5486739640253M699.547042900593,309.4707953731554L697.379716455648,309.4792429811986L697.2294904121846,311.65176540978393L695.8172954118525,311.1249253952809L693.6605261374729,313.4089066728217L692.5878252690866,312.78843926961565L691.2471588851635,313.798549069489L690.3647962321543,310.6493871103937M639.1995389372457,318.1246354909939L636.3753154256948,318.848792366476L635.480340938766,318.2685301568242L634.9147336407565,315.6012194235966L633.0291171482176,314.3080048238188M634.9147336407565,315.6012194235966L628.8719829230183,320.29219848175023L628.9996556356291,319.7473929599555L627.0592192644897,319.34046991749744L626.914512939527,318.01289323289154M677.7854986080961,312.6344028778461L677.3277479078365,315.6780187204357L676.4798162506854,315.2614909578914L674.3483135672773,317.7517510656404L674.0496443252114,315.46970012659733L672.0433231129557,314.44880396712745L671.812787120869,312.17799304831374M654.5203114447877,315.96086691546816L654.3890417206205,318.04425162302505L653.1335521006662,318.26798965560215L648.5986352005052,319.01077283960774L646.3698618198927,317.82547253705377M623.6187976600324,324.5908448502448L623.1992991662682,327.7686166858098L621.2498521931122,326.3538126398636L619.552849075787,327.26873229596686L618.2369628767287,326.2843028665369L619.3692956871076,326.42776934661254L620.2115613690386,324.7980601604038L618.7817598156906,322.8225220998846L619.1090924553888,320.40167850668513L619.9438392745093,319.65843230121834L620.8079023639845,319.9457553408033L621.8949586572697,318.93697106758066L624.7153767616635,318.32734560108736L624.9956610587706,317.6970695171765M685.889162281466,311.01989240326134L687.7537286847586,313.98681025344627L685.6741552293824,316.11755133648137L682.7074020758781,315.1798763698945L681.3058030530552,311.49444212028106M636.3753154256948,318.848792366476L635.2229864554131,320.7951076840693L636.2267360059977,323.3053691703012L633.5253383780638,324.5188734653956L631.1437677098103,323.90620347156937L629.1708497663475,322.34043701813573L628.8719829230183,320.29219848175023M674.3483135672773,317.7517510656404L671.9820505690277,320.3510006960862L669.7374606493579,319.28286029907395L669.3893622539518,317.9761624155225L667.6888672149405,317.15121532067997L668.7985170213577,315.07006035953395M628.9996556356291,319.7473929599555L625.0306584067148,323.0570157171783L624.9967035713128,323.85875206670346L623.6187976600324,324.5908448502448L623.0500457591653,322.25330332847045L620.8079023639845,319.9457553408033M691.2471588851635,313.798549069489L691.7327099455058,315.1781667810267L689.6633135139705,313.57218040652526L687.7537286847586,313.98681025344627M682.7074020758781,315.1798763698945L681.6195908460018,316.01312649994054L680.8594805369457,318.5990701761177L677.3277479078365,315.6780187204357M703.2894871493913,313.3603006438535L702.0251089322622,313.5874800394994L699.5856023319375,315.3122429235377L697.5421312099431,314.1802261280477L697.2294904121846,311.65176540978393M667.6888672149405,317.15121532067997L665.1999081577228,319.67947050499924L661.2483810888093,314.8561064236171M665.1999081577228,319.67947050499924L662.82308423107,321.51927528359056L660.3330079410346,320.4150078503063L659.9260908631666,318.191246930366L660.2624534229158,315.87317003548367M660.3330079410346,320.4150078503063L659.5109185049174,320.73253782961876L657.176926824257,321.393899659947L654.9403344893271,321.27302321818786L654.955756253291,320.3568141397717L653.1335521006662,318.26798965560215M699.5856023319375,315.3122429235377L698.9013610093482,316.9408144445465L699.2481606487518,318.73043003289627L698.3008880649537,319.1982894272503L697.3734589034423,318.9482663871254L696.6663478545738,316.0972904389988L694.7685270318875,315.39647888603463L694.1690762238288,314.10532441660257L692.3718188160001,314.5715369066678L692.0662045860969,315.5642552040475L691.7327099455058,315.1781667810267M642.5009060179488,321.67140197632466L642.1420687134839,324.4174991795677L640.5059467621518,324.72656876258975L637.6554154114214,325.3711344326248L637.4550307879257,324.8139058125673L636.2267360059977,323.3053691703012M648.5986352005052,319.01077283960774L649.9100493887149,321.7411340695054L646.6052523413663,321.86348481018456L646.187461406083,325.339790959973L642.1420687134839,324.4174991795677M631.1437677098103,323.90620347156937L630.6102638808579,326.74178992921395L628.5642173036296,327.7034723619922L625.7949206579467,323.88346900050055L624.9967035713128,323.85875206670346M692.0662045860969,315.5642552040475L691.817296148472,318.57119369691395L692.791070060319,321.1285738775225L691.5703333592726,320.96148301373364L687.208015865126,319.64340646833557L685.4991839022603,317.7143657196499L685.6741552293824,316.11755133648137M680.8594805369457,318.5990701761177L680.2879451866413,322.31405645246446L677.2704012710253,324.44919426034346L675.534648276333,322.50540591747335L673.2060052081064,322.4567851845528L671.9820505690277,320.3510006960862M654.9403344893271,321.27302321818786L654.3117311346227,323.3522509623251L651.801858875986,323.23220503321875L649.9100493887149,321.7411340695054M612.6373879863384,323.9756120443071L614.7415133324405,328.9409012316278L612.2187856536194,329.7877698088147L610.5558893829831,329.45977195493356L610.0122738989003,328.7842916175184L609.4065095927632,327.2387714734223L610.4747956040552,325.35373089973837L612.6373879863384,323.9756120443071L612.7091514052946,323.942839965442L618.2369628767287,326.2843028665369M687.208015865126,319.64340646833557L686.08477581467,321.2655497672432L684.1636217484479,321.92742660878673L681.2157858958824,322.4689500800962L680.2879451866413,322.31405645246446M697.3734589034423,318.9482663871254L696.364833188097,320.0750952013975L693.1766110353831,321.89795736602923L692.791070060319,321.1285738775225M669.7374606493579,319.28286029907395L667.7678504892742,323.10820333999015L667.5456644073022,324.48522976717663L664.280514670604,324.60729761505013L662.82308423107,321.51927528359056M705.9272296361283,314.4235851625185L703.783622680383,316.26838587847976L704.020933333798,317.5759586217232L702.0681709919734,319.19079221186485L700.9481214172763,318.5638630035736L698.0353715594564,320.11762714945723L698.3008880649537,319.1982894272503M619.552849075787,327.26873229596686L619.6514921630607,328.78190067312676L614.7999117417963,329.0796969108309L614.7415133324405,328.9409012316278M654.3117311346227,323.3522509623251L653.7793063964561,325.81602363112154L650.5636797951827,329.13908875528705L650.5786244384923,328.5481691478582L647.8488508137706,328.3854938321068L647.3333191358719,327.4402510714782L646.187461406083,325.339790959973M673.2060052081064,322.4567851845528L670.146641252206,325.4490379999238L667.9284776140031,325.782102027302L667.5456644073022,324.48522976717663M664.280514670604,324.60729761505013L662.4076535082536,327.09203309227735L660.252436989202,326.88712896748973L659.5109185049174,320.73253782961876M628.5642173036296,327.7034723619922L624.5758700140111,329.8077882721318L623.1992991662682,327.7686166858098M660.252436989202,326.88712896748973L656.9909784194875,329.48956850194304L653.7793063964561,325.81602363112154M637.4550307879257,324.8139058125673L637.0799754998324,332.98792108487123L632.5702687455387,333.4579384752609L631.7917121208136,333.54466841799206L631.7512797591229,327.3098413707205L630.6102638808579,326.74178992921395M647.3333191358719,327.4402510714782L646.232262395597,328.2898108854539L645.5259619228353,332.05082630400136L641.1349807681444,332.5798020928314L640.5059467621518,324.72656876258975M641.1349807681444,332.5798020928314L640.3407308768822,332.6687354448444L637.0799754998324,332.98792108487123M624.5758700140111,329.8077882721318L625.4518106771902,332.0085272542916L619.9109273778975,332.39245300137145L619.6514921630607,328.78190067312676M615.1073348689666,337.44676055264006L607.5212558171922,337.99009629811474L606.456546298794,338.1435311732489L607.6280428038464,335.55221902891276L608.8664330363283,336.7418049957191L609.8266073176247,335.0009198291068L609.3994917440666,333.81011052018107L610.44871442631,332.45812985425334L610.5558893829831,329.45977195493356M691.5703333592726,320.96148301373364L691.7883941130804,321.92883273643986L688.9211634464159,324.5553771577961L687.9897585496054,326.5305848800549L684.8460061183588,323.7748649207541L684.1636217484479,321.92742660878673M702.0681709919734,319.19079221186485L702.1489900208057,320.73590890356536L699.4058534662533,321.83703537638917L698.7586396223865,324.0525611972547L694.1746212923108,326.1495315110167L693.0769711837781,323.57537020905556L693.1766110353831,321.89795736602923M631.7917121208136,333.54466841799206L626.1588993268549,333.2503819894872L625.4518106771902,332.0085272542916M677.2704012710253,324.44919426034346L677.3766326006004,325.24025421569274L674.9188680577719,329.7398372397138L674.8127700223033,329.75037919300246L671.9911321902625,329.85055165436665L670.146641252206,325.4490379999238M687.9897585496054,326.5305848800549L687.4459577642641,328.4930788187263L686.2660430127787,328.59626052034764L683.0720323167645,328.9608931739391L681.6952465009686,327.55710126554095L680.6638221484068,325.0628329110542L681.2157858958824,322.4689500800962M683.0720323167645,328.9608931739391L682.5645537539427,329.0270469851524L674.9188680577719,329.7398372397138M694.1746212923108,326.1495315110167L691.1840024053931,327.7625820091839L687.4459577642641,328.4930788187263M614.7999117417963,329.0796969108309L615.036451928131,332.3425246054811L610.44871442631,332.45812985425334M619.9109273778975,332.39245300137145L620.2288419675696,337.08103203611563L619.8184280893317,337.1043291597166L615.3734360147733,337.426635906785L615.036451928131,332.3425246054811M667.9284776140031,325.782102027302L667.2307860852895,330.2013769378292L665.1707040361953,330.5744826502215L662.4076535082536,327.09203309227735M656.9909784194875,329.48956850194304L657.235607106257,331.2438405539914L653.7957736936016,331.39104069867574L650.7168887236054,331.4974052482909L650.5636797951827,329.13908875528705M671.9911321902625,329.85055165436665L667.5313259260741,330.1561419231343L667.2307860852895,330.2013769378292M650.7168887236054,331.4974052482909L648.5118032092678,332.0384441145037L645.5259619228353,332.05082630400136M665.1707040361953,330.5744826502215L659.9726163616629,331.0806741129488L657.235607106257,331.2438405539914M615.3734360147733,337.426635906785L615.2241144138015,337.43387272991924L615.1073348689666,337.44676055264006L613.9863894149304,336.12753535198885L609.8266073176247,335.0009198291068M626.1588993268549,333.2503819894872L626.6923644213211,336.61931545932225L620.2288419675696,337.08103203611563M604.6631468700132,338.2830159204939L605.4729111169704,338.2327276900277L604.6631468700132,338.2830159204939" style="fill: inherit; stroke: inherit; stroke-width: inherit;" vector-effect="non-scaling-stroke"></path></svg>