<?xml version="1.0" standalone="yes"?>
<svg xmlns="http://www.w3.org/2000/svg" version="1.2" id="root" viewBox="539.1025630255856 405.4226221086715 82.21299142878195 74.50412393574578"><g id="counties"><path id="county-22017" class="county feature" d="M548.3931643212969,421.21013219611643L546.1376127916546,421.2624000224563L545.2600321078223,419.75800189285303L543.4357474798188,419.352752352468L540.8710087292078,422.1729679172738L539.4321117448201,422.195229319743L539.3449778419835,418.5114595238449L539.2287101204009,412.86436242503396L539.1559831529651,409.3320299666094L539.1025630255856,406.7374263893072L542.6536562743828,406.657017518937L542.2829224689875,408.04272677523863L543.1936034187333,409.6896171882671L543.2755979813732,413.6889089918109L546.0798056005177,419.18382827898586Z" style="fill: inherit; stroke: inherit; stroke-width: inherit;" vector-effect="non-scaling-stroke"><title>Caddo Parish</title></path><path id="county-22015" class="county feature" d="M547.2322928271318,406.5597996027809L548.3919722875645,409.59465808874836L548.7792356859613,417.94631350483905L549.8539424871639,417.9220293192798L549.0704215368714,421.21616423735406L548.3931643212969,421.21013219611643L546.0798056005177,419.18382827898586L543.2755979813732,413.6889089918109L543.1936034187333,409.6896171882671L542.2829224689875,408.04272677523863L542.6536562743828,406.657017518937L542.8155988307159,406.65429503946825Z" style="fill: inherit; stroke: inherit; stroke-width: inherit;" vector-effect="non-scaling-stroke"><title>Bossier Parish</title></path><path id="county-22119" class="county feature" d="M552.7944893108631,414.55495129167866L553.3671886678347,416.97511773132146L551.9862011407107,417.8635606369736L549.8539424871639,417.9220293192798L548.7792356859613,417.94631350483905L548.3919722875645,409.59465808874836L547.2322928271318,406.5597996027809L547.7013213878953,406.5495076722889L551.6207257885301,406.4498943077002L551.8074997093504,412.1048643804661L552.597717654721,412.08369635258987Z" style="fill: inherit; stroke: inherit; stroke-width: inherit;" vector-effect="non-scaling-stroke"><title>Webster Parish</title></path><path id="county-22027" class="county feature" d="M559.7649093600448,411.049432099059L558.1581461118903,411.11807002799696L557.4532005167191,414.407297221269L552.7944893108631,414.55495129167866L552.597717654721,412.08369635258987L551.8074997093504,412.1048643804661L551.6207257885301,406.4498943077002L555.5119972242193,406.3417838984933L559.6111922588877,406.2647524126303Z" style="fill: inherit; stroke: inherit; stroke-width: inherit;" vector-effect="non-scaling-stroke"><title>Claiborne Parish</title></path><path id="county-22111" class="county feature" d="M570.1016234506027,411.3438945817528L566.9852623833009,414.134430645016L564.7393884763102,414.19059502164964L564.677637338686,412.55426700718647L563.0173317553018,411.6698973895616L559.7649093600448,411.049432099059L559.6111922588877,406.2647524126303L569.8184561605582,405.9927870977799Z" style="fill: inherit; stroke: inherit; stroke-width: inherit;" vector-effect="non-scaling-stroke"><title>Union Parish</title></path><path id="county-22067" class="county feature" d="M579.2844029944214,405.6131199297025L579.6580809930647,405.59217831728745L578.8512669039889,407.79932432766884L577.2245207321371,409.9184562637315L576.819888436651,412.09680149217525L574.8521027230921,414.3127442900919L572.6405029545929,415.3183461961786L572.3698616886307,412.2904737864784L570.1016234506027,411.3438945817528L569.8184561605582,405.9927870977799Z" style="fill: inherit; stroke: inherit; stroke-width: inherit;" vector-effect="non-scaling-stroke"><title>Morehouse Parish</title></path><path id="county-22123" class="county feature" d="M582.3426130031196,405.47993210387665L581.2710161061069,408.2605612659778L581.3340466154024,410.3459704482665L579.900325267015,413.5581470736139L577.5440168241621,413.66423371120015L576.819888436651,412.09680149217525L577.2245207321371,409.9184562637315L578.8512669039889,407.79932432766884L579.6580809930647,405.59217831728745Z" style="fill: inherit; stroke: inherit; stroke-width: inherit;" vector-effect="non-scaling-stroke"><title>West Carroll Parish</title></path><path id="county-22035" class="county feature" d="M586.1822650653307,413.3506305606253L585.769649844504,413.63577334734805L584.811309466402,414.14280347754084L579.7436088970662,414.3958622892445L579.900325267015,413.5581470736139L581.3340466154024,410.3459704482665L581.2710161061069,408.2605612659778L582.3426130031196,405.47993210387665L583.8610326118958,405.4226221086715L583.7869566500813,407.37805328358854L584.9492090444809,405.69836915118606L585.3936046457051,407.5785675535652L584.4081775602859,408.573240431656L584.5378871509544,410.4501396585663L585.8219241205871,410.6415161010859L584.4506132482542,412.14793370466236Z" style="fill: inherit; stroke: inherit; stroke-width: inherit;" vector-effect="non-scaling-stroke"><title>East Carroll Parish</title></path><path id="county-22061" class="county feature" d="M564.7393884763102,414.19059502164964L564.7956657581673,415.83095663039876L561.5476786298667,415.93280596410705L561.5931393435824,416.73664319558986L559.1590310401606,416.82322478721767L557.5563857097375,416.86461599285076L557.4532005167191,414.407297221269L558.1581461118903,411.11807002799696L559.7649093600448,411.049432099059L563.0173317553018,411.6698973895616L564.677637338686,412.55426700718647Z" style="fill: inherit; stroke: inherit; stroke-width: inherit;" vector-effect="non-scaling-stroke"><title>Lincoln Parish</title></path><path id="county-22073" class="county feature" d="M572.6405029545929,415.3183461961786L571.3291893293851,417.71633554283096L570.9270241364637,419.6913572555271L566.572450751277,419.8597164380352L564.8578130403358,417.4779470309801L564.7956657581673,415.83095663039876L564.7393884763102,414.19059502164964L566.9852623833009,414.134430645016L570.1016234506027,411.3438945817528L572.3698616886307,412.2904737864784Z" style="fill: inherit; stroke: inherit; stroke-width: inherit;" vector-effect="non-scaling-stroke"><title>Ouachita Parish</title></path><path id="county-22083" class="county feature" d="M579.900325267015,413.5581470736139L579.7436088970662,414.3958622892445L579.5640412639422,416.885624773003L577.0849874338036,417.00970410094794L575.1700577942843,418.41292728381404L575.0797777784999,420.05827209727715L573.2198032932764,421.95247378304384L571.8882258905234,421.7369673822325L570.9270241364637,419.6913572555271L571.3291893293851,417.71633554283096L572.6405029545929,415.3183461961786L574.8521027230921,414.3127442900919L576.819888436651,412.09680149217525L577.5440168241621,413.66423371120015Z" style="fill: inherit; stroke: inherit; stroke-width: inherit;" vector-effect="non-scaling-stroke"><title>Richland Parish</title></path><path id="county-22013" class="county feature" d="M557.4532005167191,414.407297221269L557.5563857097375,416.86461599285076L559.1590310401606,416.82322478721767L559.3323887519376,420.9354058252204L558.7671799181891,422.59383178941755L556.8025754002223,422.64025358837864L552.9079335269964,422.7515562409694L552.4363586280183,421.1182402312519L549.0704215368714,421.21616423735406L549.8539424871639,417.9220293192798L551.9862011407107,417.8635606369736L553.3671886678347,416.97511773132146L552.7944893108631,414.55495129167866Z" style="fill: inherit; stroke: inherit; stroke-width: inherit;" vector-effect="non-scaling-stroke"><title>Bienville Parish</title></path><path id="county-22065" class="county feature" d="M586.825696455253,421.8848534876073L586.4723373483569,421.8336457453215L586.825696455253,421.8848534876073ZM585.2775377362759,420.26397280510855L579.496904246504,420.6949325012472L578.837250136695,418.9221658890158L579.5640412639422,416.885624773003L579.7436088970662,414.3958622892445L584.811309466402,414.14280347754084L585.769649844504,413.63577334734805L585.5768771397009,415.67304377797075L587.3023234220473,415.70705962164436L587.0054761808783,417.3457806217913L588.4672534566819,417.68224098110613L587.1645914194679,419.94071584488586Z" style="fill: inherit; stroke: inherit; stroke-width: inherit;" vector-effect="non-scaling-stroke"><title>Madison Parish</title></path><path id="county-22049" class="county feature" d="M564.7956657581673,415.83095663039876L564.8578130403358,417.4779470309801L566.572450751277,419.8597164380352L566.6624849939955,422.32436907795955L558.7671799181891,422.59383178941755L559.3323887519376,420.9354058252204L559.1590310401606,416.82322478721767L561.5931393435824,416.73664319558986L561.5476786298667,415.93280596410705Z" style="fill: inherit; stroke: inherit; stroke-width: inherit;" vector-effect="non-scaling-stroke"><title>Jackson Parish</title></path><path id="county-22041" class="county feature" d="M579.5640412639422,416.885624773003L578.837250136695,418.9221658890158L579.496904246504,420.6949325012472L579.6426220564532,422.8116397834925L578.4692959351273,426.76881315157857L578.0596414048543,425.15037080960167L575.2522799390869,427.11796841362764L573.4505119484206,425.32465420331505L573.2198032932764,421.95247378304384L575.0797777784999,420.05827209727715L575.1700577942843,418.41292728381404L577.0849874338036,417.00970410094794Z" style="fill: inherit; stroke: inherit; stroke-width: inherit;" vector-effect="non-scaling-stroke"><title>Franklin Parish</title></path><path id="county-22031" class="county feature" d="M546.1376127916546,421.2624000224563L547.3656200880708,422.05613876518385L547.346944377183,423.7348215875635L550.384904113713,426.8819690466852L549.0359217996986,427.2677525543487L549.0647950349213,428.55031392029116L542.1521663012882,428.73968416782543L539.9399510086631,426.2421532533617L539.4321117448201,422.195229319743L540.8710087292078,422.1729679172738L543.4357474798188,419.352752352468L545.2600321078223,419.75800189285303Z" style="fill: inherit; stroke: inherit; stroke-width: inherit;" vector-effect="non-scaling-stroke"><title>De Soto Parish</title></path><path id="county-22021" class="county feature" d="M570.9270241364637,419.6913572555271L571.8882258905234,421.7369673822325L573.2198032932764,421.95247378304384L573.4505119484206,425.32465420331505L571.6590552469783,426.2303100089614L566.8160068165006,426.42512683512064L566.6624849939955,422.32436907795955L566.572450751277,419.8597164380352Z" style="fill: inherit; stroke: inherit; stroke-width: inherit;" vector-effect="non-scaling-stroke"><title>Caldwell Parish</title></path><path id="county-22107" class="county feature" d="M585.2775377362759,420.26397280510855L584.6913001432292,421.7325547857374L586.4723373483569,421.8336457453215L586.825696455253,421.8848534876073L586.8373964319987,422.00033655385516L586.2213770314095,423.86554995481526L584.5003562127313,424.99532896544076L583.6478209572883,426.7577511138917L582.1323163885552,427.321138158929L582.6607913253431,429.06162975461666L581.6999739675332,429.3992044803932L579.0649689768683,429.19022097130403L578.4692959351273,426.76881315157857L579.6426220564532,422.8116397834925L579.496904246504,420.6949325012472Z" style="fill: inherit; stroke: inherit; stroke-width: inherit;" vector-effect="non-scaling-stroke"><title>Tensas Parish</title></path><path id="county-22081" class="county feature" d="M548.3931643212969,421.21013219611643L549.0704215368714,421.21616423735406L552.4363586280183,421.1182402312519L552.9079335269964,422.7515562409694L554.0180406278856,426.01713524358286L552.1908858871556,426.06933277559233L552.2172711939292,427.3672294040588L550.384904113713,426.8819690466852L547.346944377183,423.7348215875635L547.3656200880708,422.05613876518385L546.1376127916546,421.2624000224563Z" style="fill: inherit; stroke: inherit; stroke-width: inherit;" vector-effect="non-scaling-stroke"><title>Red River Parish</title></path><path id="county-22127" class="county feature" d="M558.7671799181891,422.59383178941755L566.6624849939955,422.32436907795955L566.8160068165006,426.42512683512064L566.123374129589,428.9064596701877L562.070582466571,429.04607782271205L562.1176756867649,430.6887475524893L556.5286328797653,430.8892856251216L556.8089907517353,428.1201187775439L557.9641935217712,426.34925669115L556.8025754002223,422.64025358837864Z" style="fill: inherit; stroke: inherit; stroke-width: inherit;" vector-effect="non-scaling-stroke"><title>Winn Parish</title></path><path id="county-22069" class="county feature" d="M556.8025754002223,422.64025358837864L557.9641935217712,426.34925669115L556.8089907517353,428.1201187775439L556.5286328797653,430.8892856251216L557.6419297460768,432.45501135473205L559.317451446421,432.89740826441414L560.6758272733858,434.34161401210133L557.6894628769043,437.2437506440493L556.6194732286872,437.6820870334283L552.5621652561633,437.47111864949636L552.4617592052446,434.2149452080388L550.8636601920471,434.26460547316424L550.7484113289516,430.9625050947237L549.1194639811583,431.00220347281197L549.0647950349213,428.55031392029116L549.0359217996986,427.2677525543487L550.384904113713,426.8819690466852L552.2172711939292,427.3672294040588L552.1908858871556,426.06933277559233L554.0180406278856,426.01713524358286L552.9079335269964,422.7515562409694Z" style="fill: inherit; stroke: inherit; stroke-width: inherit;" vector-effect="non-scaling-stroke"><title>Natchitoches Parish</title></path><path id="county-22025" class="county feature" d="M578.4692959351273,426.76881315157857L579.0649689768683,429.19022097130403L576.7211029863829,429.61501357068073L576.5977560873638,431.4116289008157L575.0384889505046,431.65371133180065L575.191519674896,435.2490731402462L574.3667417502062,436.8676299202001L574.8948786622101,438.49722880263016L573.4061881020181,438.02873670567465L572.4405041074693,439.3746494964008L572.0874425974781,437.5032909979816L571.6590552469783,426.2303100089614L573.4505119484206,425.32465420331505L575.2522799390869,427.11796841362764L578.0596414048543,425.15037080960167Z" style="fill: inherit; stroke: inherit; stroke-width: inherit;" vector-effect="non-scaling-stroke"><title>Catahoula Parish</title></path><path id="county-22059" class="county feature" d="M571.6590552469783,426.2303100089614L572.0874425974781,437.5032909979816L570.8374206409716,437.3749309933279L568.9864723283341,434.77649419961415L567.8717130946721,434.54154003430233L566.4066058436287,432.14405658965086L566.123374129589,428.9064596701877L566.8160068165006,426.42512683512064Z" style="fill: inherit; stroke: inherit; stroke-width: inherit;" vector-effect="non-scaling-stroke"><title>La Salle Parish</title></path><path id="county-22085" class="county feature" d="M549.0647950349213,428.55031392029116L549.1194639811583,431.00220347281197L550.7484113289516,430.9625050947237L550.8636601920471,434.26460547316424L552.4617592052446,434.2149452080388L552.5621652561633,437.47111864949636L550.1113893399659,437.5474648206449L549.3175289812943,439.20769594386206L547.9535106235212,439.23673177209184L547.6267828621741,440.9620624285401L546.8656596476269,441.1566687796709L545.4769839591941,438.8358648148792L544.8792412051306,434.8666990923573L542.9594266466056,433.56264016541627L543.5457582010387,431.37671882547113L542.1521663012882,428.73968416782543Z" style="fill: inherit; stroke: inherit; stroke-width: inherit;" vector-effect="non-scaling-stroke"><title>Sabine Parish</title></path><path id="county-22043" class="county feature" d="M566.123374129589,428.9064596701877L566.4066058436287,432.14405658965086L567.8717130946721,434.54154003430233L568.9864723283341,434.77649419961415L562.1537257411384,436.6719594525131L560.6758272733858,434.34161401210133L559.317451446421,432.89740826441414L557.6419297460768,432.45501135473205L556.5286328797653,430.8892856251216L562.1176756867649,430.6887475524893L562.070582466571,429.04607782271205Z" style="fill: inherit; stroke: inherit; stroke-width: inherit;" vector-effect="non-scaling-stroke"><title>Grant Parish</title></path><path id="county-22029" class="county feature" d="M579.0649689768683,429.19022097130403L581.6999739675332,429.3992044803932L581.4575852757768,431.55222966020483L579.9594579244617,431.16012742938005L581.3375656935561,432.6017766696226L579.7978933018222,433.2783404774376L580.0487505466267,436.4118821408316L578.8460175976317,435.71334132961806L579.9546140126827,438.04512359420073L577.7661462049247,438.6719032785045L578.8556363995681,439.72912081884306L578.3374185113562,441.1465444054895L579.3696307717388,442.0376166728713L578.2670043909701,443.35290743295695L577.8798954482953,443.9165551529162L577.9280011305538,443.4631240710081L576.8387392698526,442.57678442160216L577.4597671772016,439.8527455538939L574.8948786622101,438.49722880263016L574.3667417502062,436.8676299202001L575.191519674896,435.2490731402462L575.0384889505046,431.65371133180065L576.5977560873638,431.4116289008157L576.7211029863829,429.61501357068073Z" style="fill: inherit; stroke: inherit; stroke-width: inherit;" vector-effect="non-scaling-stroke"><title>Concordia Parish</title></path><path id="county-22079" class="county feature" d="M568.9864723283341,434.77649419961415L570.8374206409716,437.3749309933279L568.518804464573,437.78505428480435L569.1783669489764,444.4389379952994L568.0253546351933,444.43215940127163L566.2929846448628,443.8153119131092L564.7712339540801,445.5990821715641L563.0151343150175,445.9126530396468L559.4078600525435,446.1522957135837L559.0897902507347,439.3724332172052L556.6194732286872,437.6820870334283L557.6894628769043,437.2437506440493L560.6758272733858,434.34161401210133L562.1537257411384,436.6719594525131Z" style="fill: inherit; stroke: inherit; stroke-width: inherit;" vector-effect="non-scaling-stroke"><title>Rapides Parish</title></path><path id="county-22115" class="county feature" d="M556.6194732286872,437.6820870334283L559.0897902507347,439.3724332172052L559.4078600525435,446.1522957135837L556.9441182415811,446.4550934119886L549.8714002088984,446.5699379771062L547.682048424892,446.8954550523039L548.3949291542592,443.87674672559626L547.6267828621741,440.9620624285401L547.9535106235212,439.23673177209184L549.3175289812943,439.20769594386206L550.1113893399659,437.5474648206449L552.5621652561633,437.47111864949636Z" style="fill: inherit; stroke: inherit; stroke-width: inherit;" vector-effect="non-scaling-stroke"><title>Vernon Parish</title></path><path id="county-22009" class="county feature" d="M572.0874425974781,437.5032909979816L572.4405041074693,439.3746494964008L573.4061881020181,438.02873670567465L574.8948786622101,438.49722880263016L577.4597671772016,439.8527455538939L576.8387392698526,442.57678442160216L576.4425188629534,443.0710072744987L575.5961531721837,444.0251653175567L575.5477888616731,446.3121971308627L569.1944527028816,446.56873176277156L568.0253546351933,444.43215940127163L569.1783669489764,444.4389379952994L568.518804464573,437.78505428480435L570.8374206409716,437.3749309933279Z" style="fill: inherit; stroke: inherit; stroke-width: inherit;" vector-effect="non-scaling-stroke"><title>Avoyelles Parish</title></path><path id="county-22125" class="county feature" d="M583.8978796728097,449.5966792524757L583.4550891476058,449.49367388114L582.5711692706204,447.66013914084635L579.158522561032,447.985399236146L580.2916383862081,446.03433330822145L578.5930448606949,446.32299176496315L577.8798954482953,443.9165551529162L578.2670043909701,443.35290743295695L585.6078023781951,443.00389711509706ZM577.9280011305538,443.4631240710081L576.4425188629534,443.0710072744987L576.8387392698526,442.57678442160216Z" style="fill: inherit; stroke: inherit; stroke-width: inherit;" vector-effect="non-scaling-stroke"><title>West Feliciana Parish</title></path><path id="county-22077" class="county feature" d="M577.9280011305538,443.4631240710081L577.8798954482953,443.9165551529162L578.5930448606949,446.32299176496315L580.2916383862081,446.03433330822145L579.158522561032,447.985399236146L582.5711692706204,447.66013914084635L583.4550891476058,449.49367388114L582.2492818887913,452.31049396720846L581.1338632296838,452.6326425337726L577.6677510401075,452.78944847667333L576.7807928113947,452.82329801502874L576.9721799371986,448.9922685845587L575.5477888616731,446.3121971308627L575.5961531721837,444.0251653175567L576.4425188629534,443.0710072744987Z" style="fill: inherit; stroke: inherit; stroke-width: inherit;" vector-effect="non-scaling-stroke"><title>Pointe Coupee Parish</title></path><path id="county-22117" class="county feature" d="M608.6769826952208,441.5953170109982L607.2665842298247,447.98993857864787L604.8228187605156,448.16868399738246L600.5964985196965,447.55368691863464L598.8180675251626,442.25090313715066L600.2128801170443,442.16216262160185L606.9626334912796,441.7126781516688Z" style="fill: inherit; stroke: inherit; stroke-width: inherit;" vector-effect="non-scaling-stroke"><title>Washington Parish</title></path><path id="county-22039" class="county feature" d="M568.0253546351933,444.43215940127163L569.1944527028816,446.56873176277156L569.9032730417634,448.0533078555576L569.4266624512564,451.8151128697622L565.6408959057217,452.5921726627291L564.9700581352832,453.6280628620732L562.7401014295335,453.6956699547154L562.7644885325153,453.5700817341433L563.2326043967408,451.8241869021607L563.0151343150175,445.9126530396468L564.7712339540801,445.5990821715641L566.2929846448628,443.8153119131092Z" style="fill: inherit; stroke: inherit; stroke-width: inherit;" vector-effect="non-scaling-stroke"><title>Evangeline Parish</title></path><path id="county-22105" class="county feature" d="M598.8180675251626,442.25090313715066L600.5964985196965,447.55368691863464L601.3553671541206,456.64835135216344L600.7882017636255,456.56186085582374L600.4002579385282,455.40751672939484L598.7367280804956,455.6615436446981L597.0151395781916,454.31868465675745L595.8678792794651,452.05511046811205L595.6876324888052,449.0061169854507L595.3134784958115,442.4676118312851L595.6222846384222,442.4499093744938Z" style="fill: inherit; stroke: inherit; stroke-width: inherit;" vector-effect="non-scaling-stroke"><title>Tangipahoa Parish</title></path><path id="county-22091" class="county feature" d="M595.3134784958115,442.4676118312851L595.6876324888052,449.0061169854507L590.185529997203,449.32205810355583L591.0797534232978,447.9636670853371L590.736445893028,443.8561561198735L591.1903876664823,442.7049713828512Z" style="fill: inherit; stroke: inherit; stroke-width: inherit;" vector-effect="non-scaling-stroke"><title>Saint Helena Parish</title></path><path id="county-22037" class="county feature" d="M591.1903876664823,442.7049713828512L590.736445893028,443.8561561198735L591.0797534232978,447.9636670853371L584.6352798424235,448.5622562374257L583.9978420576017,449.6380437514881L583.8978796728097,449.5966792524757L585.6078023781951,443.00389711509706L587.4614049991816,442.9116274333792Z" style="fill: inherit; stroke: inherit; stroke-width: inherit;" vector-effect="non-scaling-stroke"><title>East Feliciana Parish</title></path><path id="county-22003" class="county feature" d="M563.0151343150175,445.9126530396468L563.2326043967408,451.8241869021607L562.7644885325153,453.5700817341433L560.4829267096142,453.640245388347L560.4632626562823,454.5903305818723L554.7639990739096,455.03454199695113L554.6771149232317,451.7756386525663L557.0990931419133,451.69050270287914L556.9441182415811,446.4550934119886L559.4078600525435,446.1522957135837Z" style="fill: inherit; stroke: inherit; stroke-width: inherit;" vector-effect="non-scaling-stroke"><title>Allen Parish</title></path><path id="county-22011" class="county feature" d="M556.9441182415811,446.4550934119886L557.0990931419133,451.69050270287914L554.6771149232317,451.7756386525663L554.7639990739096,455.03454199695113L554.7756169462494,455.41930466137273L550.6922613237448,455.54618667531656L550.652982062332,453.9092970075749L549.0221618355275,453.9462704832831L549.0714673571583,455.5919394313829L544.964442771361,455.69909522002183L545.6493703967188,454.90450347768194L544.93747390049,453.10967008696787L546.6068258139818,450.49831693843817L547.682048424892,446.8954550523039L549.8714002088984,446.5699379771062Z" style="fill: inherit; stroke: inherit; stroke-width: inherit;" vector-effect="non-scaling-stroke"><title>Beauregard Parish</title></path><path id="county-22097" class="county feature" d="M575.5477888616731,446.3121971308627L576.9721799371986,448.9922685845587L576.7807928113947,452.82329801502874L578.1120224283596,454.69205972182317L575.0097145276943,454.4155759672833L573.1572221766128,455.39829313293615L572.1565564784597,455.2320132301396L570.7416607500708,456.8058382823933L570.0894813310256,454.25034705762255L568.9393009678004,453.48240969738526L564.9700581352832,453.6280628620732L565.6408959057217,452.5921726627291L569.4266624512564,451.8151128697622L569.9032730417634,448.0533078555576L569.1944527028816,446.56873176277156Z" style="fill: inherit; stroke: inherit; stroke-width: inherit;" vector-effect="non-scaling-stroke"><title>Saint Landry Parish</title></path><path id="county-22033" class="county feature" d="M590.185529997203,449.32205810355583L589.0622979747036,450.8518473625405L589.0852258104111,452.9263774064285L590.8015466980003,454.9897834733165L588.7487752119481,455.5395865915175L586.7975758217707,455.6104631307022L585.1618634715486,455.05132257194145L585.7412361239269,452.2194145269398L584.6898156901639,452.30946817364304L583.9978420576017,449.6380437514881L584.6352798424235,448.5622562374257L591.0797534232978,447.9636670853371Z" style="fill: inherit; stroke: inherit; stroke-width: inherit;" vector-effect="non-scaling-stroke"><title>East Baton Rouge Parish</title></path><path id="county-22103" class="county feature" d="M607.2665842298247,447.98993857864787L607.7949881992436,449.46497506264416L609.9572643365043,451.6992243113592L611.4107573460632,455.95296863992985L612.9843152370199,456.75864059336584L611.3802924432076,457.31127537006705L608.664563319854,457.5577221486418L607.1414413920365,456.78277854092516L605.443242201619,457.79212848678503L603.6096603707656,457.1219704391144L601.3553671541206,456.64835135216344L600.5964985196965,447.55368691863464L604.8228187605156,448.16868399738246Z" style="fill: inherit; stroke: inherit; stroke-width: inherit;" vector-effect="non-scaling-stroke"><title>Saint Tammany Parish</title></path><path id="county-22121" class="county feature" d="M586.7975758217707,455.6104631307022L584.0756088622102,455.7633729595883L581.1338632296838,452.6326425337726L582.2492818887913,452.31049396720846L583.4550891476058,449.49367388114L583.8978796728097,449.5966792524757L583.9978420576017,449.6380437514881L584.6898156901639,452.30946817364304L585.7412361239269,452.2194145269398L585.1618634715486,455.05132257194145Z" style="fill: inherit; stroke: inherit; stroke-width: inherit;" vector-effect="non-scaling-stroke"><title>West Baton Rouge Parish</title></path><path id="county-22063" class="county feature" d="M595.6876324888052,449.0061169854507L595.8678792794651,452.05511046811205L597.0151395781916,454.31868465675745L598.7367280804956,455.6615436446981L596.3139677847565,457.52134471407294L595.0892081176858,457.0728327813713L594.0738472988221,457.9750911940579L590.8015466980003,454.9897834733165L589.0852258104111,452.9263774064285L589.0622979747036,450.8518473625405L590.185529997203,449.32205810355583Z" style="fill: inherit; stroke: inherit; stroke-width: inherit;" vector-effect="non-scaling-stroke"><title>Livingston Parish</title></path><path id="county-22099" class="county feature" d="M588.0793748716814,467.22511298735515L583.3586486846822,465.88385909557053L583.5215975867586,464.9272228194461L581.8231565104611,462.7334162738291L585.3088321101116,462.2737125765368L586.5977085069743,464.55315276688805L588.091239662271,465.3119610837156ZM583.3926710577731,460.7324114073542L579.6874275747698,461.3891734870484L577.5743030312497,459.81666350394903L576.1405570474674,461.3463096244666L573.9981415091511,460.8932573293107L574.6563967267032,459.34793932521757L573.1572221766128,455.39829313293615L575.0097145276943,454.4155759672833L578.1120224283596,454.69205972182317L576.7807928113947,452.82329801502874L577.6677510401075,452.78944847667333L578.6934604030469,453.76702239167435L579.1132301421775,456.23466187313284L581.527612435968,457.6272795807088L581.8663291773498,459.99059882806534Z" style="fill: inherit; stroke: inherit; stroke-width: inherit;" vector-effect="non-scaling-stroke"><title>Saint Martin Parish</title></path><path id="county-22047" class="county feature" d="M581.1338632296838,452.6326425337726L584.0756088622102,455.7633729595883L586.7975758217707,455.6104631307022L588.7487752119481,455.5395865915175L587.6312571704343,460.4524699622218L585.7564782572751,461.2427916167687L583.3926710577731,460.7324114073542L581.8663291773498,459.99059882806534L581.527612435968,457.6272795807088L579.1132301421775,456.23466187313284L578.6934604030469,453.76702239167435L577.6677510401075,452.78944847667333Z" style="fill: inherit; stroke: inherit; stroke-width: inherit;" vector-effect="non-scaling-stroke"><title>Iberville Parish</title></path><path id="county-22019" class="county feature" d="M554.7756169462494,455.41930466137273L556.3985884225959,455.81286429462966L557.0838804869321,459.9541115467366L558.7444224089514,459.91177260426196L558.8647915293521,461.2886987685258L557.1537950903863,462.1657295552784L555.0082551668125,461.9718198517156L545.4447257946155,462.2490525514037L545.5548644132031,458.6421593023323L544.5980620784778,456.8095196674461L544.964442771361,455.69909522002183L549.0714673571583,455.5919394313829L549.0221618355275,453.9462704832831L550.652982062332,453.9092970075749L550.6922613237448,455.54618667531656Z" style="fill: inherit; stroke: inherit; stroke-width: inherit;" vector-effect="non-scaling-stroke"><title>Calcasieu Parish</title></path><path id="county-22053" class="county feature" d="M562.7644885325153,453.5700817341433L562.7401014295335,453.6956699547154L563.1078105135155,460.9619667843127L561.3370221860428,462.05189469626214L557.1537950903863,462.1657295552784L558.8647915293521,461.2886987685258L558.7444224089514,459.91177260426196L557.0838804869321,459.9541115467366L556.3985884225959,455.81286429462966L554.7756169462494,455.41930466137273L554.7639990739096,455.03454199695113L560.4632626562823,454.5903305818723L560.4829267096142,453.640245388347Z" style="fill: inherit; stroke: inherit; stroke-width: inherit;" vector-effect="non-scaling-stroke"><title>Jefferson Davis Parish</title></path><path id="county-22001" class="county feature" d="M564.9700581352832,453.6280628620732L568.9393009678004,453.48240969738526L570.0894813310256,454.25034705762255L570.7416607500708,456.8058382823933L568.5604681055989,459.7272045809465L566.2683857328092,461.6223472296514L564.0096595383485,460.57688408126967L563.1078105135155,460.9619667843127L562.7401014295335,453.6956699547154Z" style="fill: inherit; stroke: inherit; stroke-width: inherit;" vector-effect="non-scaling-stroke"><title>Acadia Parish</title></path><path id="county-22055" class="county feature" d="M573.1572221766128,455.39829313293615L574.6563967267032,459.34793932521757L573.9981415091511,460.8932573293107L573.806962594512,461.5799257576757L571.1002472535997,460.21286927724134L568.5604681055989,459.7272045809465L570.7416607500708,456.8058382823933L572.1565564784597,455.2320132301396Z" style="fill: inherit; stroke: inherit; stroke-width: inherit;" vector-effect="non-scaling-stroke"><title>Lafayette Parish</title></path><path id="county-22005" class="county feature" d="M590.8015466980003,454.9897834733165L594.0738472988221,457.9750911940579L595.0892081176858,457.0728327813713L595.0027695195646,458.10707216493165L590.6532343027998,459.3472485353774L589.9187191339387,460.2584408591091L587.6312571704343,460.4524699622218L588.7487752119481,455.5395865915175Z" style="fill: inherit; stroke: inherit; stroke-width: inherit;" vector-effect="non-scaling-stroke"><title>Ascension Parish</title></path><path id="county-22095" class="county feature" d="M600.7882017636255,456.56186085582374L598.2510369711597,460.4225552757073L596.832968530118,460.8015579905117L596.9097787067863,463.1476273451502L595.0626917739883,463.29091695994896L594.382139839113,460.58552906429736L595.0027695195646,458.10707216493165L595.0892081176858,457.0728327813713L596.3139677847565,457.52134471407294L598.7367280804956,455.6615436446981L600.4002579385282,455.40751672939484Z" style="fill: inherit; stroke: inherit; stroke-width: inherit;" vector-effect="non-scaling-stroke"><title>Saint John the Baptist Parish</title></path><path id="county-22089" class="county feature" d="M602.2019187466125,466.5690984860473L600.288969604542,466.659087232454L599.6815891364353,465.3620000546583L596.9097787067863,463.1476273451502L596.832968530118,460.8015579905117L598.2510369711597,460.4225552757073L600.7882017636255,456.56186085582374L601.0323282961311,461.3831556957099L601.8118663206983,463.4081101171621L603.0404971365049,464.17790879089193Z" style="fill: inherit; stroke: inherit; stroke-width: inherit;" vector-effect="non-scaling-stroke"><title>Saint Charles Parish</title></path><path id="county-22051" class="county feature" d="M605.0655888286788,476.2194284777081L605.4280123009067,475.44554173516417L605.0655888286788,476.2194284777081ZM603.6096603707656,457.1219704391144L603.3872340455309,462.24949576517963L604.6424072122707,461.6755032942219L605.5233204826712,462.5517061479828L604.6217899485264,463.85764980553074L604.749929888398,465.53520468468616L606.3171400555273,467.9130583382122L606.5316497156821,470.6497213791873L604.027494047343,469.1180800840857L604.096718408371,467.21986007613907L603.0949352603432,466.6774183901581L602.2019187466125,466.5690984860473L603.0404971365049,464.17790879089193L601.8118663206983,463.4081101171621L601.0323282961311,461.3831556957099L600.7882017636255,456.56186085582374L601.3553671541206,456.64835135216344Z" style="fill: inherit; stroke: inherit; stroke-width: inherit;" vector-effect="non-scaling-stroke"><title>Jefferson Parish</title></path><path id="county-22071" class="county feature" d="M611.3802924432076,457.31127537006705L609.8261749093566,459.1603733371792L607.7927976248237,460.39938878491864L605.7077955771846,460.77938181821025L605.3944302191915,461.6151700304854L607.125849574318,462.9547247904784L605.5233204826712,462.5517061479828L604.6424072122707,461.6755032942219L603.3872340455309,462.24949576517963L603.6096603707656,457.1219704391144L605.443242201619,457.79212848678503L607.1414413920365,456.78277854092516L608.664563319854,457.5577221486418Z" style="fill: inherit; stroke: inherit; stroke-width: inherit;" vector-effect="non-scaling-stroke"><title>Orleans Parish</title></path><path id="county-22087" class="county feature" d="M613.4234914094498,466.4431498910866L613.6557190300769,466.5962916233176L613.959716475866,466.85914692161214L614.0264454997127,466.8958156299643ZM614.9056381288406,461.1324999023291L615.2899453077487,461.80732104554613L616.5993710864846,462.3024777564076L615.2032451969525,463.24133479642114L616.2995933741984,463.84004930024423L614.3129941670488,463.5936535393405L614.8057425013994,464.65434068308105L611.4458714433301,464.882760524265L613.2875207352279,466.5891913655877L613.0981054597689,466.464269683112L613.0001622418031,466.4829854965943L607.8689113668847,464.276969010965L607.125849574318,462.9547247904784L605.3944302191915,461.6151700304854L605.7077955771846,460.77938181821025L607.7927976248237,460.39938878491864L608.9147456907351,461.6506597510728L609.9654789396787,461.0925514967323L610.4350355505187,462.6492923241376L612.0486556357295,462.5816652235711L612.3244735902599,460.29170908809L614.3949258021274,458.87579047678423Z" style="fill: inherit; stroke: inherit; stroke-width: inherit;" vector-effect="non-scaling-stroke"><title>Saint Bernard Parish</title></path><path id="county-22093" class="county feature" d="M595.0626917739883,463.29091695994896L592.9426040964904,462.8064676121767L591.3419828431767,463.19819711325897L590.0700866441293,461.9077500710754L589.9187191339387,460.2584408591091L590.6532343027998,459.3472485353774L595.0027695195646,458.10707216493165L594.382139839113,460.58552906429736Z" style="fill: inherit; stroke: inherit; stroke-width: inherit;" vector-effect="non-scaling-stroke"><title>Saint James Parish</title></path><path id="county-22113" class="county feature" d="M568.5604681055989,459.7272045809465L571.1002472535997,460.21286927724134L573.806962594512,461.5799257576757L573.8464098490244,465.3830880466011L573.6798995050802,466.121568641658L570.7940048034211,467.9906789294756L571.8413168782743,467.96312812738563L571.7833802599955,469.53525121346286L568.7590211915294,471.22044791288636L563.569919033855,470.5233680377521L563.29431382699,461.967348316733L561.3370221860428,462.05189469626214L563.1078105135155,460.9619667843127L564.0096595383485,460.57688408126967L566.2683857328092,461.6223472296514Z" style="fill: inherit; stroke: inherit; stroke-width: inherit;" vector-effect="non-scaling-stroke"><title>Vermilion Parish</title></path><path id="county-22045" class="county feature" d="M575.261317624574,469.0544450793585L578.2792392240726,470.42556777890627L576.1671625686821,471.9041446254819L573.1602698474373,470.3910719374212ZM583.3926710577731,460.7324114073542L585.7564782572751,461.2427916167687L585.3088321101116,462.2737125765368L581.8231565104611,462.7334162738291L579.3639651369429,463.0587673793307L575.7936353977071,467.09067307343605L576.1837705591806,465.3676009058704L573.8464098490244,465.3830880466011L573.806962594512,461.5799257576757L573.9981415091511,460.8932573293107L576.1405570474674,461.3463096244666L577.5743030312497,459.81666350394903L579.6874275747698,461.3891734870484Z" style="fill: inherit; stroke: inherit; stroke-width: inherit;" vector-effect="non-scaling-stroke"><title>Iberia Parish</title></path><path id="county-22007" class="county feature" d="M589.9187191339387,460.2584408591091L590.0700866441293,461.9077500710754L591.3419828431767,463.19819711325897L589.5696145063581,466.86006898463927L588.4288307223835,468.57160074648743L588.0793748716814,467.22511298735515L588.091239662271,465.3119610837156L586.5977085069743,464.55315276688805L585.3088321101116,462.2737125765368L585.7564782572751,461.2427916167687L587.6312571704343,460.4524699622218Z" style="fill: inherit; stroke: inherit; stroke-width: inherit;" vector-effect="non-scaling-stroke"><title>Assumption Parish</title></path><path id="county-22023" class="county feature" d="M557.1537950903863,462.1657295552784L561.3370221860428,462.05189469626214L563.29431382699,461.967348316733L563.569919033855,470.5233680377521L558.1659037105151,468.396174828433L554.3886193611949,467.2638599741973L549.3906789520377,467.43736712236114L545.2084332479188,468.16881944144916L543.6971315623159,469.00702879465155L542.1915105439131,466.9714759742428L543.3740608441991,465.7855047907914L545.4447257946155,462.2490525514037L555.0082551668125,461.9718198517156Z" style="fill: inherit; stroke: inherit; stroke-width: inherit;" vector-effect="non-scaling-stroke"><title>Cameron Parish</title></path><path id="county-22101" class="county feature" d="M588.0793748716814,467.22511298735515L588.4288307223835,468.57160074648743L586.3187972002318,469.4077791008739L584.7867007265787,471.35044601750474L583.2294821480293,470.19414779795034L580.9528802512784,470.93426526858843L580.814002244103,468.84158666944654L579.6250680259366,468.98017922023314L579.404192544972,466.83950443662036L575.7936353977071,467.09067307343605L579.3639651369429,463.0587673793307L581.8231565104611,462.7334162738291L583.5215975867586,464.9272228194461L583.3586486846822,465.88385909557053Z" style="fill: inherit; stroke: inherit; stroke-width: inherit;" vector-effect="non-scaling-stroke"><title>Saint Mary Parish</title></path><path id="county-22057" class="county feature" d="M599.8047396361064,475.86127882128164L599.7968425530212,475.727180860786L599.8047396361064,475.86127882128164ZM605.441911785124,471.27121547481636L605.489597915085,473.2457129468586L605.0050674693882,473.74216013237265L605.4280123009067,475.44554173516417L605.0655888286788,476.2194284777081L603.0052982276335,477.8495526826898L602.2254406299917,476.8997859839517L600.53425328124,473.82652820280634L599.7852913622465,475.5310336115465L599.769967926641,475.270831022778L599.7638384160531,475.16674767202653L599.8327688774219,474.8443233366336L599.8978413738035,474.755118181077L600.1286145956899,473.10926574236714L595.9678371221934,468.6923243948371L593.4638107829999,466.9900823414042L592.7682578377207,465.5697942645712L591.6186407669675,466.7117594272188L589.5696145063581,466.86006898463927L591.3419828431767,463.19819711325897L592.9426040964904,462.8064676121767L595.0626917739883,463.29091695994896L596.9097787067863,463.1476273451502L599.6815891364353,465.3620000546583L600.288969604542,466.659087232454L602.2019187466125,466.5690984860473L603.0949352603432,466.6774183901581L603.4082976320047,468.738131227145L602.4208044951736,469.78453236835526Z" style="fill: inherit; stroke: inherit; stroke-width: inherit;" vector-effect="non-scaling-stroke"><title>Lafourche Parish</title></path><path id="county-22075" class="county feature" d="M610.925658152873,471.9004962874426L611.6598066385978,473.1632137651077L609.3287899568677,473.1822012296169ZM613.959716475866,466.85914692161214L614.0264454997127,466.8958156299643L613.959716475866,466.85914692161214ZM613.959716475866,466.85914692161214L613.6557190300769,466.5962916233176L613.959716475866,466.85914692161214ZM613.2875207352279,466.5891913655877L613.0981054597689,466.464269683112L613.2875207352279,466.5891913655877ZM611.7446884102156,466.73256397239436L611.6896377406015,467.2179706255006L610.2282375590877,467.63085232020035L611.5317941338508,469.4014358170381L613.7198662724682,470.4512632222843L613.1260592111381,471.2736855713116L616.2304370555988,471.2916131574035L618.5356783600396,472.8251556726915L619.2985221347669,471.93429467439114L621.3155544543675,474.84539463617807L621.1386482191159,476.53251420911147L619.7322154543732,477.82159622345364L618.6902924096596,477.3132481141947L616.24354057268,479.92674604441726L618.4415400502761,475.9614532438735L617.5311944847266,474.4621737342078L615.4237049196925,475.2140248028793L614.461300932988,472.64725091233527L612.6083927754709,471.58405893805855L609.6344882064529,471.8538326151988L609.2451751445367,471.27019901296205L608.2757961752424,470.7581840349701L606.5316497156821,470.6497213791873L606.3171400555273,467.9130583382122L604.749929888398,465.53520468468616L604.6217899485264,463.85764980553074L605.5233204826712,462.5517061479828L607.125849574318,462.9547247904784L607.8689113668847,464.276969010965L613.0001622418031,466.4829854965943Z" style="fill: inherit; stroke: inherit; stroke-width: inherit;" vector-effect="non-scaling-stroke"><title>Plaquemines Parish</title></path><path id="county-22109" class="county feature" d="M599.8047396361064,475.86127882128164L599.7968425530212,475.727180860786L599.8047396361064,475.86127882128164ZM599.7852913622465,475.5310336115465L599.769967926641,475.270831022778L599.7852913622465,475.5310336115465ZM599.7638384160531,475.16674767202653L599.8327688774219,474.8443233366336L599.7638384160531,475.16674767202653ZM586.1798277943448,473.50043857191554L587.4587875400317,474.3725564988904L586.9319240429727,476.22539572502114L585.0653806612632,474.7446592178426ZM596.981399920637,475.30299154744534L596.5294685918202,475.91212073536167L596.05420319971,475.69905306353405L594.9809227887476,477.4800679631463L592.9041899956788,477.49399995726856L591.1329500407526,477.06934938564325L593.2538115044154,475.6237349100229L591.2761618798737,474.91833466653065L590.7272827030514,473.84805580314594L589.3544140133386,476.70731993248694L587.9436490931698,475.95206479719286L587.9310418664284,473.9919759734936L585.7352738358805,472.09575385443395L586.3187972002318,469.4077791008739L588.4288307223835,468.57160074648743L589.5696145063581,466.86006898463927L591.6186407669675,466.7117594272188L592.7682578377207,465.5697942645712L593.4638107829999,466.9900823414042L595.9678371221934,468.6923243948371L600.1286145956899,473.10926574236714L599.8978413738035,474.755118181077L596.7834930022158,473.99067290494213Z" style="fill: inherit; stroke: inherit; stroke-width: inherit;" vector-effect="non-scaling-stroke"><title>Terrebonne Parish</title></path></g><path id="counties-mesh" class="counties mesh" d="M547.2322928271318,406.5597996027809L548.3919722875645,409.59465808874836L548.7792356859613,417.94631350483905L549.8539424871639,417.9220293192798L549.0704215368714,421.21616423735406L548.3931643212969,421.21013219611643M551.6207257885301,406.4498943077002L551.8074997093504,412.1048643804661L552.597717654721,412.08369635258987L552.7944893108631,414.55495129167866L553.3671886678347,416.97511773132146L551.9862011407107,417.8635606369736L549.8539424871639,417.9220293192798M559.6111922588877,406.2647524126303L559.7649093600448,411.049432099059L558.1581461118903,411.11807002799696L557.4532005167191,414.407297221269L552.7944893108631,414.55495129167866M569.8184561605582,405.9927870977799L570.1016234506027,411.3438945817528L566.9852623833009,414.134430645016L564.7393884763102,414.19059502164964L564.677637338686,412.55426700718647L563.0173317553018,411.6698973895616L559.7649093600448,411.049432099059M579.6580809930647,405.59217831728745L578.8512669039889,407.79932432766884L577.2245207321371,409.9184562637315L576.819888436651,412.09680149217525L574.8521027230921,414.3127442900919L572.6405029545929,415.3183461961786L572.3698616886307,412.2904737864784L570.1016234506027,411.3438945817528M582.3426130031196,405.47993210387665L581.2710161061069,408.2605612659778L581.3340466154024,410.3459704482665L579.900325267015,413.5581470736139L577.5440168241621,413.66423371120015L576.819888436651,412.09680149217525M542.6536562743828,406.657017518937L542.2829224689875,408.04272677523863L543.1936034187333,409.6896171882671L543.2755979813732,413.6889089918109L546.0798056005177,419.18382827898586L548.3931643212969,421.21013219611643L546.1376127916546,421.2624000224563L545.2600321078223,419.75800189285303L543.4357474798188,419.352752352468L540.8710087292078,422.1729679172738L539.4321117448201,422.195229319743L539.3449778419835,418.5114595238449L539.2287101204009,412.86436242503396L539.1559831529651,409.3320299666094L539.1025630255856,406.7374263893072L542.6536562743828,406.657017518937L542.8155988307159,406.65429503946825L547.2322928271318,406.5597996027809L547.7013213878953,406.5495076722889L551.6207257885301,406.4498943077002L555.5119972242193,406.3417838984933L559.6111922588877,406.2647524126303L569.8184561605582,405.9927870977799L579.2844029944214,405.6131199297025L579.6580809930647,405.59217831728745L582.3426130031196,405.47993210387665L583.8610326118958,405.4226221086715L583.7869566500813,407.37805328358854L584.9492090444809,405.69836915118606L585.3936046457051,407.5785675535652L584.4081775602859,408.573240431656L584.5378871509544,410.4501396585663L585.8219241205871,410.6415161010859L584.4506132482542,412.14793370466236L586.1822650653307,413.3506305606253L585.769649844504,413.63577334734805L584.811309466402,414.14280347754084L579.7436088970662,414.3958622892445L579.900325267015,413.5581470736139M564.7393884763102,414.19059502164964L564.7956657581673,415.83095663039876L561.5476786298667,415.93280596410705L561.5931393435824,416.73664319558986L559.1590310401606,416.82322478721767L557.5563857097375,416.86461599285076L557.4532005167191,414.407297221269M572.6405029545929,415.3183461961786L571.3291893293851,417.71633554283096L570.9270241364637,419.6913572555271L566.572450751277,419.8597164380352L564.8578130403358,417.4779470309801L564.7956657581673,415.83095663039876M579.7436088970662,414.3958622892445L579.5640412639422,416.885624773003L577.0849874338036,417.00970410094794L575.1700577942843,418.41292728381404L575.0797777784999,420.05827209727715L573.2198032932764,421.95247378304384L571.8882258905234,421.7369673822325L570.9270241364637,419.6913572555271M559.1590310401606,416.82322478721767L559.3323887519376,420.9354058252204L558.7671799181891,422.59383178941755L556.8025754002223,422.64025358837864L552.9079335269964,422.7515562409694L552.4363586280183,421.1182402312519L549.0704215368714,421.21616423735406M586.825696455253,421.8848534876073L586.4723373483569,421.8336457453215M585.2775377362759,420.26397280510855L579.496904246504,420.6949325012472L578.837250136695,418.9221658890158L579.5640412639422,416.885624773003M566.572450751277,419.8597164380352L566.6624849939955,422.32436907795955L558.7671799181891,422.59383178941755M579.496904246504,420.6949325012472L579.6426220564532,422.8116397834925L578.4692959351273,426.76881315157857L578.0596414048543,425.15037080960167L575.2522799390869,427.11796841362764L573.4505119484206,425.32465420331505L573.2198032932764,421.95247378304384M546.1376127916546,421.2624000224563L547.3656200880708,422.05613876518385L547.346944377183,423.7348215875635L550.384904113713,426.8819690466852L549.0359217996986,427.2677525543487L549.0647950349213,428.55031392029116L542.1521663012882,428.73968416782543L539.9399510086631,426.2421532533617L539.4321117448201,422.195229319743M573.4505119484206,425.32465420331505L571.6590552469783,426.2303100089614L566.8160068165006,426.42512683512064L566.6624849939955,422.32436907795955M585.769649844504,413.63577334734805L585.5768771397009,415.67304377797075L587.3023234220473,415.70705962164436L587.0054761808783,417.3457806217913L588.4672534566819,417.68224098110613L587.1645914194679,419.94071584488586L585.2775377362759,420.26397280510855L584.6913001432292,421.7325547857374L586.4723373483569,421.8336457453215L586.825696455253,421.8848534876073L586.8373964319987,422.00033655385516L586.2213770314095,423.86554995481526L584.5003562127313,424.99532896544076L583.6478209572883,426.7577511138917L582.1323163885552,427.321138158929L582.6607913253431,429.06162975461666L581.6999739675332,429.3992044803932L579.0649689768683,429.19022097130403L578.4692959351273,426.76881315157857M552.9079335269964,422.7515562409694L554.0180406278856,426.01713524358286L552.1908858871556,426.06933277559233L552.2172711939292,427.3672294040588L550.384904113713,426.8819690466852M566.8160068165006,426.42512683512064L566.123374129589,428.9064596701877L562.070582466571,429.04607782271205L562.1176756867649,430.6887475524893L556.5286328797653,430.8892856251216L556.8089907517353,428.1201187775439L557.9641935217712,426.34925669115L556.8025754002223,422.64025358837864M556.5286328797653,430.8892856251216L557.6419297460768,432.45501135473205L559.317451446421,432.89740826441414L560.6758272733858,434.34161401210133L557.6894628769043,437.2437506440493L556.6194732286872,437.6820870334283L552.5621652561633,437.47111864949636L552.4617592052446,434.2149452080388L550.8636601920471,434.26460547316424L550.7484113289516,430.9625050947237L549.1194639811583,431.00220347281197L549.0647950349213,428.55031392029116M552.5621652561633,437.47111864949636L550.1113893399659,437.5474648206449L549.3175289812943,439.20769594386206L547.9535106235212,439.23673177209184L547.6267828621741,440.9620624285401L546.8656596476269,441.1566687796709L545.4769839591941,438.8358648148792L544.8792412051306,434.8666990923573L542.9594266466056,433.56264016541627L543.5457582010387,431.37671882547113L542.1521663012882,428.73968416782543M579.0649689768683,429.19022097130403L576.7211029863829,429.61501357068073L576.5977560873638,431.4116289008157L575.0384889505046,431.65371133180065L575.191519674896,435.2490731402462L574.3667417502062,436.8676299202001L574.8948786622101,438.49722880263016L573.4061881020181,438.02873670567465L572.4405041074693,439.3746494964008L572.0874425974781,437.5032909979816L571.6590552469783,426.2303100089614M572.0874425974781,437.5032909979816L570.8374206409716,437.3749309933279L568.9864723283341,434.77649419961415L567.8717130946721,434.54154003430233L566.4066058436287,432.14405658965086L566.123374129589,428.9064596701877M568.9864723283341,434.77649419961415L562.1537257411384,436.6719594525131L560.6758272733858,434.34161401210133M581.6999739675332,429.3992044803932L581.4575852757768,431.55222966020483L579.9594579244617,431.16012742938005L581.3375656935561,432.6017766696226L579.7978933018222,433.2783404774376L580.0487505466267,436.4118821408316L578.8460175976317,435.71334132961806L579.9546140126827,438.04512359420073L577.7661462049247,438.6719032785045L578.8556363995681,439.72912081884306L578.3374185113562,441.1465444054895L579.3696307717388,442.0376166728713L578.2670043909701,443.35290743295695L577.8798954482953,443.9165551529162L577.9280011305538,443.4631240710081L576.8387392698526,442.57678442160216L577.4597671772016,439.8527455538939L574.8948786622101,438.49722880263016M570.8374206409716,437.3749309933279L568.518804464573,437.78505428480435L569.1783669489764,444.4389379952994L568.0253546351933,444.43215940127163L566.2929846448628,443.8153119131092L564.7712339540801,445.5990821715641L563.0151343150175,445.9126530396468L559.4078600525435,446.1522957135837L559.0897902507347,439.3724332172052L556.6194732286872,437.6820870334283M559.4078600525435,446.1522957135837L556.9441182415811,446.4550934119886L549.8714002088984,446.5699379771062L547.682048424892,446.8954550523039L548.3949291542592,443.87674672559626L547.6267828621741,440.9620624285401M576.8387392698526,442.57678442160216L576.4425188629534,443.0710072744987L575.5961531721837,444.0251653175567L575.5477888616731,446.3121971308627L569.1944527028816,446.56873176277156L568.0253546351933,444.43215940127163M554.7756169462494,455.41930466137273L556.3985884225959,455.81286429462966L557.0838804869321,459.9541115467366L558.7444224089514,459.91177260426196L558.8647915293521,461.2886987685258L557.1537950903863,462.1657295552784L555.0082551668125,461.9718198517156L545.4447257946155,462.2490525514037L545.5548644132031,458.6421593023323L544.5980620784778,456.8095196674461L544.964442771361,455.69909522002183L545.6493703967188,454.90450347768194L544.93747390049,453.10967008696787L546.6068258139818,450.49831693843817L547.682048424892,446.8954550523039M585.6078023781951,443.00389711509706L583.8978796728097,449.5966792524757L583.4550891476058,449.49367388114L582.5711692706204,447.66013914084635L579.158522561032,447.985399236146L580.2916383862081,446.03433330822145L578.5930448606949,446.32299176496315L577.8798954482953,443.9165551529162M577.9280011305538,443.4631240710081L576.4425188629534,443.0710072744987M583.4550891476058,449.49367388114L582.2492818887913,452.31049396720846L581.1338632296838,452.6326425337726L577.6677510401075,452.78944847667333L576.7807928113947,452.82329801502874L576.9721799371986,448.9922685845587L575.5477888616731,446.3121971308627M607.2665842298247,447.98993857864787L604.8228187605156,448.16868399738246L600.5964985196965,447.55368691863464L598.8180675251626,442.25090313715066M569.1944527028816,446.56873176277156L569.9032730417634,448.0533078555576L569.4266624512564,451.8151128697622L565.6408959057217,452.5921726627291L564.9700581352832,453.6280628620732L562.7401014295335,453.6956699547154L562.7644885325153,453.5700817341433L563.2326043967408,451.8241869021607L563.0151343150175,445.9126530396468M600.5964985196965,447.55368691863464L601.3553671541206,456.64835135216344L600.7882017636255,456.56186085582374L600.4002579385282,455.40751672939484L598.7367280804956,455.6615436446981L597.0151395781916,454.31868465675745L595.8678792794651,452.05511046811205L595.6876324888052,449.0061169854507L595.3134784958115,442.4676118312851M595.6876324888052,449.0061169854507L590.185529997203,449.32205810355583L591.0797534232978,447.9636670853371L590.736445893028,443.8561561198735L591.1903876664823,442.7049713828512M591.0797534232978,447.9636670853371L584.6352798424235,448.5622562374257L583.9978420576017,449.6380437514881L583.8978796728097,449.5966792524757M562.7644885325153,453.5700817341433L560.4829267096142,453.640245388347L560.4632626562823,454.5903305818723L554.7639990739096,455.03454199695113L554.6771149232317,451.7756386525663L557.0990931419133,451.69050270287914L556.9441182415811,446.4550934119886M554.7639990739096,455.03454199695113L554.7756169462494,455.41930466137273L550.6922613237448,455.54618667531656L550.652982062332,453.9092970075749L549.0221618355275,453.9462704832831L549.0714673571583,455.5919394313829L544.964442771361,455.69909522002183M576.7807928113947,452.82329801502874L578.1120224283596,454.69205972182317L575.0097145276943,454.4155759672833L573.1572221766128,455.39829313293615L572.1565564784597,455.2320132301396L570.7416607500708,456.8058382823933L570.0894813310256,454.25034705762255L568.9393009678004,453.48240969738526L564.9700581352832,453.6280628620732M590.185529997203,449.32205810355583L589.0622979747036,450.8518473625405L589.0852258104111,452.9263774064285L590.8015466980003,454.9897834733165L588.7487752119481,455.5395865915175L586.7975758217707,455.6104631307022L585.1618634715486,455.05132257194145L585.7412361239269,452.2194145269398L584.6898156901639,452.30946817364304L583.9978420576017,449.6380437514881M578.2670043909701,443.35290743295695L585.6078023781951,443.00389711509706L587.4614049991816,442.9116274333792L591.1903876664823,442.7049713828512L595.3134784958115,442.4676118312851L595.6222846384222,442.4499093744938L598.8180675251626,442.25090313715066L600.2128801170443,442.16216262160185L606.9626334912796,441.7126781516688L608.6769826952208,441.5953170109982L607.2665842298247,447.98993857864787L607.7949881992436,449.46497506264416L609.9572643365043,451.6992243113592L611.4107573460632,455.95296863992985L612.9843152370199,456.75864059336584L611.3802924432076,457.31127537006705L608.664563319854,457.5577221486418L607.1414413920365,456.78277854092516L605.443242201619,457.79212848678503L603.6096603707656,457.1219704391144L601.3553671541206,456.64835135216344M586.7975758217707,455.6104631307022L584.0756088622102,455.7633729595883L581.1338632296838,452.6326425337726M598.7367280804956,455.6615436446981L596.3139677847565,457.52134471407294L595.0892081176858,457.0728327813713L594.0738472988221,457.9750911940579L590.8015466980003,454.9897834733165M591.3419828431767,463.19819711325897L589.5696145063581,466.86006898463927L588.4288307223835,468.57160074648743L588.0793748716814,467.22511298735515L583.3586486846822,465.88385909557053L583.5215975867586,464.9272228194461L581.8231565104611,462.7334162738291L585.3088321101116,462.2737125765368L586.5977085069743,464.55315276688805L588.091239662271,465.3119610837156L588.0793748716814,467.22511298735515M577.6677510401075,452.78944847667333L578.6934604030469,453.76702239167435L579.1132301421775,456.23466187313284L581.527612435968,457.6272795807088L581.8663291773498,459.99059882806534L583.3926710577731,460.7324114073542L579.6874275747698,461.3891734870484L577.5743030312497,459.81666350394903L576.1405570474674,461.3463096244666L573.9981415091511,460.8932573293107L574.6563967267032,459.34793932521757L573.1572221766128,455.39829313293615M588.7487752119481,455.5395865915175L587.6312571704343,460.4524699622218L585.7564782572751,461.2427916167687L583.3926710577731,460.7324114073542M562.7401014295335,453.6956699547154L563.1078105135155,460.9619667843127L561.3370221860428,462.05189469626214L557.1537950903863,462.1657295552784M570.7416607500708,456.8058382823933L568.5604681055989,459.7272045809465L566.2683857328092,461.6223472296514L564.0096595383485,460.57688408126967L563.1078105135155,460.9619667843127M573.9981415091511,460.8932573293107L573.806962594512,461.5799257576757L571.1002472535997,460.21286927724134L568.5604681055989,459.7272045809465M595.0892081176858,457.0728327813713L595.0027695195646,458.10707216493165L590.6532343027998,459.3472485353774L589.9187191339387,460.2584408591091L587.6312571704343,460.4524699622218M600.7882017636255,456.56186085582374L598.2510369711597,460.4225552757073L596.832968530118,460.8015579905117L596.9097787067863,463.1476273451502L595.0626917739883,463.29091695994896L594.382139839113,460.58552906429736L595.0027695195646,458.10707216493165M563.569919033855,470.5233680377521L558.1659037105151,468.396174828433L554.3886193611949,467.2638599741973L549.3906789520377,467.43736712236114L545.2084332479188,468.16881944144916L543.6971315623159,469.00702879465155L542.1915105439131,466.9714759742428L543.3740608441991,465.7855047907914L545.4447257946155,462.2490525514037M600.7882017636255,456.56186085582374L601.0323282961311,461.3831556957099L601.8118663206983,463.4081101171621L603.0404971365049,464.17790879089193L602.2019187466125,466.5690984860473L600.288969604542,466.659087232454L599.6815891364353,465.3620000546583L596.9097787067863,463.1476273451502M603.6096603707656,457.1219704391144L603.3872340455309,462.24949576517963L604.6424072122707,461.6755032942219L605.5233204826712,462.5517061479828L604.6217899485264,463.85764980553074L604.749929888398,465.53520468468616L606.3171400555273,467.9130583382122L606.5316497156821,470.6497213791873L604.027494047343,469.1180800840857L604.096718408371,467.21986007613907L603.0949352603432,466.6774183901581L602.2019187466125,466.5690984860473M611.3802924432076,457.31127537006705L609.8261749093566,459.1603733371792L607.7927976248237,460.39938878491864L605.7077955771846,460.77938181821025L605.3944302191915,461.6151700304854L607.125849574318,462.9547247904784L605.5233204826712,462.5517061479828M613.4234914094498,466.4431498910866L613.6557190300769,466.5962916233176L613.959716475866,466.85914692161214L614.0264454997127,466.8958156299643L613.4234914094498,466.4431498910866M607.7927976248237,460.39938878491864L608.9147456907351,461.6506597510728L609.9654789396787,461.0925514967323L610.4350355505187,462.6492923241376L612.0486556357295,462.5816652235711L612.3244735902599,460.29170908809L614.3949258021274,458.87579047678423L614.9056381288406,461.1324999023291L615.2899453077487,461.80732104554613L616.5993710864846,462.3024777564076L615.2032451969525,463.24133479642114L616.2995933741984,463.84004930024423L614.3129941670488,463.5936535393405L614.8057425013994,464.65434068308105L611.4458714433301,464.882760524265L613.2875207352279,466.5891913655877L613.0981054597689,466.464269683112L613.0001622418031,466.4829854965943L607.8689113668847,464.276969010965L607.125849574318,462.9547247904784M595.0626917739883,463.29091695994896L592.9426040964904,462.8064676121767L591.3419828431767,463.19819711325897L590.0700866441293,461.9077500710754L589.9187191339387,460.2584408591091M573.806962594512,461.5799257576757L573.8464098490244,465.3830880466011L573.6798995050802,466.121568641658L570.7940048034211,467.9906789294756L571.8413168782743,467.96312812738563L571.7833802599955,469.53525121346286L568.7590211915294,471.22044791288636L563.569919033855,470.5233680377521L563.29431382699,461.967348316733L561.3370221860428,462.05189469626214M575.261317624574,469.0544450793585L578.2792392240726,470.42556777890627L576.1671625686821,471.9041446254819L573.1602698474373,470.3910719374212L575.261317624574,469.0544450793585M585.7564782572751,461.2427916167687L585.3088321101116,462.2737125765368M581.8231565104611,462.7334162738291L579.3639651369429,463.0587673793307L575.7936353977071,467.09067307343605L576.1837705591806,465.3676009058704L573.8464098490244,465.3830880466011M588.4288307223835,468.57160074648743L586.3187972002318,469.4077791008739L584.7867007265787,471.35044601750474L583.2294821480293,470.19414779795034L580.9528802512784,470.93426526858843L580.814002244103,468.84158666944654L579.6250680259366,468.98017922023314L579.404192544972,466.83950443662036L575.7936353977071,467.09067307343605M603.0949352603432,466.6774183901581L603.4082976320047,468.738131227145L602.4208044951736,469.78453236835526L605.441911785124,471.27121547481636L605.489597915085,473.2457129468586L605.0050674693882,473.74216013237265L605.4280123009067,475.44554173516417M605.0655888286788,476.2194284777081L605.4280123009067,475.44554173516417L605.0655888286788,476.2194284777081L603.0052982276335,477.8495526826898L602.2254406299917,476.8997859839517L600.53425328124,473.82652820280634L599.7852913622465,475.5310336115465L599.769967926641,475.270831022778L599.7638384160531,475.16674767202653L599.8327688774219,474.8443233366336L599.8978413738035,474.755118181077L600.1286145956899,473.10926574236714L595.9678371221934,468.6923243948371L593.4638107829999,466.9900823414042L592.7682578377207,465.5697942645712L591.6186407669675,466.7117594272188L589.5696145063581,466.86006898463927M610.925658152873,471.9004962874426L611.6598066385978,473.1632137651077L609.3287899568677,473.1822012296169L610.925658152873,471.9004962874426M614.0264454997127,466.8958156299643L613.959716475866,466.85914692161214L613.6557190300769,466.5962916233176M613.2875207352279,466.5891913655877L613.0981054597689,466.464269683112M613.0001622418031,466.4829854965943L611.7446884102156,466.73256397239436L611.6896377406015,467.2179706255006L610.2282375590877,467.63085232020035L611.5317941338508,469.4014358170381L613.7198662724682,470.4512632222843L613.1260592111381,471.2736855713116L616.2304370555988,471.2916131574035L618.5356783600396,472.8251556726915L619.2985221347669,471.93429467439114L621.3155544543675,474.84539463617807L621.1386482191159,476.53251420911147L619.7322154543732,477.82159622345364L618.6902924096596,477.3132481141947L616.24354057268,479.92674604441726L618.4415400502761,475.9614532438735L617.5311944847266,474.4621737342078L615.4237049196925,475.2140248028793L614.461300932988,472.64725091233527L612.6083927754709,471.58405893805855L609.6344882064529,471.8538326151988L609.2451751445367,471.27019901296205L608.2757961752424,470.7581840349701L606.5316497156821,470.6497213791873M599.8047396361064,475.86127882128164L599.7968425530212,475.727180860786L599.8047396361064,475.86127882128164L599.7968425530212,475.727180860786M599.7852913622465,475.5310336115465L599.769967926641,475.270831022778M599.7638384160531,475.16674767202653L599.8327688774219,474.8443233366336M586.1798277943448,473.50043857191554L587.4587875400317,474.3725564988904L586.9319240429727,476.22539572502114L585.0653806612632,474.7446592178426L586.1798277943448,473.50043857191554M599.8978413738035,474.755118181077L596.7834930022158,473.99067290494213L596.981399920637,475.30299154744534L596.5294685918202,475.91212073536167L596.05420319971,475.69905306353405L594.9809227887476,477.4800679631463L592.9041899956788,477.49399995726856L591.1329500407526,477.06934938564325L593.2538115044154,475.6237349100229L591.2761618798737,474.91833466653065L590.7272827030514,473.84805580314594L589.3544140133386,476.70731993248694L587.9436490931698,475.95206479719286L587.9310418664284,473.9919759734936L585.7352738358805,472.09575385443395L586.3187972002318,469.4077791008739" style="fill: inherit; stroke: inherit; stroke-width: inherit;" vector-effect="non-scaling-stroke"></path></svg>