<svg xmlns="http://www.w3.org/2000/svg" version="1.2" id="root" viewBox="539.1025630255856 405.4226221086715 82.21299142878195 74.50412393574578"><g id="counties"><path id="county-22017" class="county feature" d="M548.393 421.21l-2.255.052-.878-1.504-1.824-.405-2.565 2.82-1.439.022-.087-3.684-.116-5.647-.073-3.532-.053-2.595 3.55-.08-.37 1.386.91 1.647.083 3.999 2.804 5.495z" vector-effect="non-scaling-stroke" fill="inherit" stroke="inherit" stroke-width="inherit"><title>Caddo Parish</title></path><path id="county-22015" class="county feature" d="M547.232 406.56l1.16 3.035.387 8.351 1.075-.024-.784 3.294-.677-.006-2.313-2.026-2.804-5.495-.082-4-.911-1.646.37-1.386.163-.003z" vector-effect="non-scaling-stroke" fill="inherit" stroke="inherit" stroke-width="inherit"><title>Bossier Parish</title></path><path id="county-22119" class="county feature" d="M552.794 414.555l.573 2.42-1.38.889-2.133.058-1.075.024-.387-8.351-1.16-3.035.47-.01 3.919-.1.186 5.655.79-.021z" vector-effect="non-scaling-stroke" fill="inherit" stroke="inherit" stroke-width="inherit"><title>Webster Parish</title></path><path id="county-22027" class="county feature" d="M559.765 411.05l-1.607.068-.705 3.29-4.659.147-.196-2.471-.79.02-.187-5.654 3.891-.108 4.1-.077z" vector-effect="non-scaling-stroke" fill="inherit" stroke="inherit" stroke-width="inherit"><title>Claiborne Parish</title></path><path id="county-22111" class="county feature" d="M570.102 411.344l-3.117 2.79-2.246.057-.061-1.637-1.66-.884-3.253-.62-.154-4.785 10.207-.272z" vector-effect="non-scaling-stroke" fill="inherit" stroke="inherit" stroke-width="inherit"><title>Union Parish</title></path><path id="county-22067" class="county feature" d="M579.284 405.613l.374-.02-.807 2.206-1.626 2.12-.405 2.178-1.968 2.216-2.211 1.005-.271-3.028-2.268-.946-.284-5.351z" vector-effect="non-scaling-stroke" fill="inherit" stroke="inherit" stroke-width="inherit"><title>Morehouse Parish</title></path><path id="county-22123" class="county feature" d="M582.343 405.48l-1.072 2.78.063 2.086-1.434 3.212-2.356.106-.724-1.567.405-2.179 1.626-2.119.807-2.207z" vector-effect="non-scaling-stroke" fill="inherit" stroke="inherit" stroke-width="inherit"><title>West Carroll Parish</title></path><path id="county-22035" class="county feature" d="M586.182 413.35l-.412.286-.959.507-5.067.253.156-.838 1.434-3.212-.063-2.085 1.072-2.781 1.518-.057-.074 1.955 1.162-1.68.445 1.88-.986.995.13 1.877 1.284.192-1.371 1.506z" vector-effect="non-scaling-stroke" fill="inherit" stroke="inherit" stroke-width="inherit"><title>East Carroll Parish</title></path><path id="county-22061" class="county feature" d="M564.74 414.19l.056 1.641-3.248.102.045.804-2.434.086-1.603.042-.103-2.458.705-3.289 1.607-.069 3.252.62 1.66.885z" vector-effect="non-scaling-stroke" fill="inherit" stroke="inherit" stroke-width="inherit"><title>Lincoln Parish</title></path><path id="county-22073" class="county feature" d="M572.64 415.318l-1.31 2.398-.403 1.975-4.355.169-1.714-2.382-.062-1.647-.057-1.64 2.246-.057 3.117-2.79 2.268.946z" vector-effect="non-scaling-stroke" fill="inherit" stroke="inherit" stroke-width="inherit"><title>Ouachita Parish</title></path><path id="county-22083" class="county feature" d="M579.9 413.558l-.156.838-.18 2.49-2.479.124-1.915 1.403-.09 1.645-1.86 1.894-1.332-.215-.961-2.046.402-1.975 1.312-2.398 2.211-1.005 1.968-2.216.724 1.567z" vector-effect="non-scaling-stroke" fill="inherit" stroke="inherit" stroke-width="inherit"><title>Richland Parish</title></path><path id="county-22013" class="county feature" d="M557.453 414.407l.103 2.458 1.603-.042.173 4.112-.565 1.659-1.964.046-3.895.112-.472-1.634-3.366.098.784-3.294 2.132-.058 1.381-.889-.573-2.42z" vector-effect="non-scaling-stroke" fill="inherit" stroke="inherit" stroke-width="inherit"><title>Bienville Parish</title></path><path id="county-22065" class="county feature" d="M586.826 421.885l-.354-.051.354.05zm-1.548-1.621l-5.781.43-.66-1.772.727-2.036.18-2.49 5.067-.253.959-.507-.193 2.037 1.725.034-.297 1.639 1.462.336-1.302 2.259z" vector-effect="non-scaling-stroke" fill="inherit" stroke="inherit" stroke-width="inherit"><title>Madison Parish</title></path><path id="county-22049" class="county feature" d="M564.796 415.831l.062 1.647 1.714 2.382.09 2.464-7.895.27.565-1.659-.173-4.112 2.434-.086-.045-.804z" vector-effect="non-scaling-stroke" fill="inherit" stroke="inherit" stroke-width="inherit"><title>Jackson Parish</title></path><path id="county-22041" class="county feature" d="M579.564 416.886l-.727 2.036.66 1.773.146 2.117-1.174 3.957-.41-1.619-2.807 1.968-1.801-1.793-.231-3.373 1.86-1.894.09-1.645 1.915-1.403z" vector-effect="non-scaling-stroke" fill="inherit" stroke="inherit" stroke-width="inherit"><title>Franklin Parish</title></path><path id="county-22031" class="county feature" d="M546.138 421.262l1.228.794-.02 1.679 3.039 3.147-1.35.386.03 1.282-6.913.19-2.212-2.498-.508-4.047 1.439-.022 2.565-2.82 1.824.405z" vector-effect="non-scaling-stroke" fill="inherit" stroke="inherit" stroke-width="inherit"><title>De Soto Parish</title></path><path id="county-22021" class="county feature" d="M570.927 419.691l.961 2.046 1.332.215.23 3.373-1.79.905-4.844.195-.154-4.1-.09-2.465z" vector-effect="non-scaling-stroke" fill="inherit" stroke="inherit" stroke-width="inherit"><title>Caldwell Parish</title></path><path id="county-22107" class="county feature" d="M585.278 420.264l-.587 1.469 1.781.1.354.052.011.115-.616 1.866-1.72 1.13-.853 1.762-1.516.563.529 1.74-.961.338-2.635-.209-.596-2.421 1.174-3.957-.146-2.117z" vector-effect="non-scaling-stroke" fill="inherit" stroke="inherit" stroke-width="inherit"><title>Tensas Parish</title></path><path id="county-22081" class="county feature" d="M548.393 421.21l.677.006 3.366-.098.472 1.634 1.11 3.265-1.827.052.026 1.298-1.832-.485-3.038-3.147.019-1.679-1.228-.794z" vector-effect="non-scaling-stroke" fill="inherit" stroke="inherit" stroke-width="inherit"><title>Red River Parish</title></path><path id="county-22127" class="county feature" d="M558.767 422.594l7.895-.27.154 4.101-.693 2.481-4.052.14.047 1.643-5.59.2.281-2.769 1.155-1.77-1.161-3.71z" vector-effect="non-scaling-stroke" fill="inherit" stroke="inherit" stroke-width="inherit"><title>Winn Parish</title></path><path id="county-22069" class="county feature" d="M556.803 422.64l1.161 3.71-1.155 1.77-.28 2.77 1.113 1.565 1.675.442 1.359 1.445-2.987 2.902-1.07.438-4.057-.21-.1-3.257-1.598.05-.116-3.302-1.629.04-.054-2.453-.03-1.282 1.35-.386 1.832.485-.026-1.298 1.827-.052-1.11-3.265z" vector-effect="non-scaling-stroke" fill="inherit" stroke="inherit" stroke-width="inherit"><title>Natchitoches Parish</title></path><path id="county-22025" class="county feature" d="M578.47 426.769l.595 2.421-2.344.425-.123 1.797-1.56.242.154 3.595-.825 1.619.528 1.63-1.489-.47-.965 1.347-.354-1.872-.428-11.273 1.792-.905 1.801 1.793 2.808-1.968z" vector-effect="non-scaling-stroke" fill="inherit" stroke="inherit" stroke-width="inherit"><title>Catahoula Parish</title></path><path id="county-22059" class="county feature" d="M571.66 426.23l.427 11.273-1.25-.128-1.85-2.599-1.115-.234-1.465-2.398-.284-3.238.693-2.48z" vector-effect="non-scaling-stroke" fill="inherit" stroke="inherit" stroke-width="inherit"><title>La Salle Parish</title></path><path id="county-22085" class="county feature" d="M549.065 428.55l.054 2.452 1.63-.04.115 3.303 1.598-.05.1 3.256-2.45.076-.794 1.66-1.364.03-.327 1.725-.761.195-1.389-2.321-.598-3.97-1.92-1.303.587-2.186-1.394-2.637z" vector-effect="non-scaling-stroke" fill="inherit" stroke="inherit" stroke-width="inherit"><title>Sabine Parish</title></path><path id="county-22043" class="county feature" d="M566.123 428.906l.284 3.238 1.465 2.398 1.114.234-6.832 1.896-1.478-2.33-1.359-1.445-1.675-.442-1.113-1.566 5.589-.2-.047-1.643z" vector-effect="non-scaling-stroke" fill="inherit" stroke="inherit" stroke-width="inherit"><title>Grant Parish</title></path><path id="county-22029" class="county feature" d="M579.065 429.19l2.635.21-.242 2.152-1.499-.392 1.379 1.442-1.54.676.25 3.134-1.202-.699 1.109 2.332-2.189.627 1.09 1.057-.519 1.418 1.033.89-1.103 1.316-.387.564.048-.454-1.09-.886.622-2.724-2.565-1.356-.528-1.63.825-1.618-.154-3.595 1.56-.242.123-1.797z" vector-effect="non-scaling-stroke" fill="inherit" stroke="inherit" stroke-width="inherit"><title>Concordia Parish</title></path><path id="county-22079" class="county feature" d="M568.986 434.776l1.851 2.599-2.318.41.66 6.654-1.154-.007-1.732-.617-1.522 1.784-1.756.314-3.607.24-.318-6.78-2.47-1.69 1.07-.44 2.986-2.901 1.478 2.33z" vector-effect="non-scaling-stroke" fill="inherit" stroke="inherit" stroke-width="inherit"><title>Rapides Parish</title></path><path id="county-22115" class="county feature" d="M556.62 437.682l2.47 1.69.318 6.78-2.464.303-7.073.115-2.189.325.713-3.018-.768-2.915.327-1.725 1.364-.03.793-1.66 2.451-.076z" vector-effect="non-scaling-stroke" fill="inherit" stroke="inherit" stroke-width="inherit"><title>Vernon Parish</title></path><path id="county-22009" class="county feature" d="M572.087 437.503l.354 1.872.965-1.346 1.489.468 2.565 1.356-.621 2.724-.396.494-.847.954-.048 2.287-6.354.257-1.169-2.137 1.153.007-.66-6.654 2.32-.41z" vector-effect="non-scaling-stroke" fill="inherit" stroke="inherit" stroke-width="inherit"><title>Avoyelles Parish</title></path><path id="county-22125" class="county feature" d="M583.898 449.597l-.443-.103-.884-1.834-3.412.325 1.133-1.95-1.699.288-.713-2.406.387-.564 7.34-.35zm-5.97-6.134l-1.485-.392.396-.494z" vector-effect="non-scaling-stroke" fill="inherit" stroke="inherit" stroke-width="inherit"><title>West Feliciana Parish</title></path><path id="county-22077" class="county feature" d="M577.928 443.463l-.048.454.713 2.406 1.699-.289-1.133 1.951 3.412-.325.884 1.834-1.206 2.816-1.115.323-3.466.156-.887.034.191-3.83-1.424-2.68.048-2.288.847-.954z" vector-effect="non-scaling-stroke" fill="inherit" stroke="inherit" stroke-width="inherit"><title>Pointe Coupee Parish</title></path><path id="county-22117" class="county feature" d="M608.677 441.595l-1.41 6.395-2.444.179-4.227-.615-1.778-5.303 1.395-.089 6.75-.45z" vector-effect="non-scaling-stroke" fill="inherit" stroke="inherit" stroke-width="inherit"><title>Washington Parish</title></path><path id="county-22039" class="county feature" d="M568.025 444.432l1.17 2.137.708 1.484-.476 3.762-3.786.777-.67 1.036-2.23.068.023-.126.469-1.746-.218-5.911 1.756-.314 1.522-1.784z" vector-effect="non-scaling-stroke" fill="inherit" stroke="inherit" stroke-width="inherit"><title>Evangeline Parish</title></path><path id="county-22105" class="county feature" d="M598.818 442.25l1.778 5.304.76 9.094-.568-.086-.388-1.154-1.663.254-1.722-1.343-1.147-2.264-.18-3.049-.375-6.538.31-.018z" vector-effect="non-scaling-stroke" fill="inherit" stroke="inherit" stroke-width="inherit"><title>Tangipahoa Parish</title></path><path id="county-22091" class="county feature" d="M595.313 442.468l.375 6.538-5.502.316.894-1.358-.344-4.108.454-1.151z" vector-effect="non-scaling-stroke" fill="inherit" stroke="inherit" stroke-width="inherit"><title>Saint Helena Parish</title></path><path id="county-22037" class="county feature" d="M591.19 442.705l-.454 1.151.344 4.108-6.445.598-.637 1.076-.1-.041 1.71-6.593 1.853-.092z" vector-effect="non-scaling-stroke" fill="inherit" stroke="inherit" stroke-width="inherit"><title>East Feliciana Parish</title></path><path id="county-22003" class="county feature" d="M563.015 445.913l.218 5.911-.469 1.746-2.281.07-.02.95-5.699.445-.087-3.26 2.422-.084-.155-5.236 2.464-.303z" vector-effect="non-scaling-stroke" fill="inherit" stroke="inherit" stroke-width="inherit"><title>Allen Parish</title></path><path id="county-22011" class="county feature" d="M556.944 446.455l.155 5.236-2.422.085.087 3.259.012.384-4.084.127-.039-1.637-1.63.037.048 1.646-4.107.107.685-.794-.712-1.795 1.67-2.612 1.075-3.603 2.19-.325z" vector-effect="non-scaling-stroke" fill="inherit" stroke="inherit" stroke-width="inherit"><title>Beauregard Parish</title></path><path id="county-22097" class="county feature" d="M575.548 446.312l1.424 2.68-.191 3.831 1.331 1.87-3.102-.277-1.853.982-1-.166-1.415 1.574-.653-2.556-1.15-.768-3.969.146.67-1.036 3.787-.777.476-3.762-.709-1.484z" vector-effect="non-scaling-stroke" fill="inherit" stroke="inherit" stroke-width="inherit"><title>Saint Landry Parish</title></path><path id="county-22033" class="county feature" d="M590.186 449.322l-1.124 1.53.023 2.074 1.717 2.064-2.053.55-1.951.07-1.636-.559.58-2.832-1.052.09-.692-2.671.637-1.076 6.445-.598z" vector-effect="non-scaling-stroke" fill="inherit" stroke="inherit" stroke-width="inherit"><title>East Baton Rouge Parish</title></path><path id="county-22103" class="county feature" d="M607.267 447.99l.528 1.475 2.162 2.234 1.454 4.254 1.573.806-1.604.552-2.715.247-1.524-.775-1.698 1.01-1.833-.671-2.255-.474-.759-9.094 4.227.615z" vector-effect="non-scaling-stroke" fill="inherit" stroke="inherit" stroke-width="inherit"><title>Saint Tammany Parish</title></path><path id="county-22121" class="county feature" d="M586.798 455.61l-2.722.153-2.942-3.13 1.115-.323 1.206-2.816.443.103.1.041.692 2.671 1.051-.09-.58 2.832z" vector-effect="non-scaling-stroke" fill="inherit" stroke="inherit" stroke-width="inherit"><title>West Baton Rouge Parish</title></path><path id="county-22063" class="county feature" d="M595.688 449.006l.18 3.05 1.147 2.263 1.722 1.343-2.423 1.86-1.225-.45-1.015.903-3.272-2.985-1.717-2.064-.023-2.074 1.124-1.53z" vector-effect="non-scaling-stroke" fill="inherit" stroke="inherit" stroke-width="inherit"><title>Livingston Parish</title></path><path id="county-22099" class="county feature" d="M588.08 467.225l-4.721-1.341.163-.957-1.699-2.194 3.486-.46 1.289 2.28 1.493.759zm-4.687-6.493l-3.706.657-2.113-1.572-1.433 1.53-2.143-.454.658-1.545-1.499-3.95 1.853-.982 3.102.276-1.331-1.869.887-.034 1.025.978.42 2.468 2.415 1.392.338 2.364z" vector-effect="non-scaling-stroke" fill="inherit" stroke="inherit" stroke-width="inherit"><title>Saint Martin Parish</title></path><path id="county-22047" class="county feature" d="M581.134 452.633l2.942 3.13 2.722-.153 1.95-.07-1.117 4.912-1.875.79-2.363-.51-1.527-.741-.338-2.364-2.415-1.392-.42-2.468-1.025-.978z" vector-effect="non-scaling-stroke" fill="inherit" stroke="inherit" stroke-width="inherit"><title>Iberville Parish</title></path><path id="county-22019" class="county feature" d="M554.776 455.42l1.623.393.685 4.141 1.66-.042.12 1.377-1.71.877-2.146-.194-9.563.277.11-3.607-.957-1.832.366-1.11 4.107-.108-.049-1.646 1.631-.037.04 1.637z" vector-effect="non-scaling-stroke" fill="inherit" stroke="inherit" stroke-width="inherit"><title>Calcasieu Parish</title></path><path id="county-22053" class="county feature" d="M562.764 453.57l-.024.126.368 7.266-1.771 1.09-4.183.114 1.71-.877-.12-1.377-1.66.042-.685-4.141-1.623-.394-.012-.384 5.7-.445.019-.95z" vector-effect="non-scaling-stroke" fill="inherit" stroke="inherit" stroke-width="inherit"><title>Jefferson Davis Parish</title></path><path id="county-22001" class="county feature" d="M564.97 453.628l3.97-.146 1.15.768.652 2.556-2.182 2.921-2.292 1.895-2.258-1.045-.902.385-.368-7.266z" vector-effect="non-scaling-stroke" fill="inherit" stroke="inherit" stroke-width="inherit"><title>Acadia Parish</title></path><path id="county-22055" class="county feature" d="M573.157 455.398l1.5 3.95-.659 1.545-.191.687-2.707-1.367-2.54-.486 2.182-2.921 1.415-1.574z" vector-effect="non-scaling-stroke" fill="inherit" stroke="inherit" stroke-width="inherit"><title>Lafayette Parish</title></path><path id="county-22005" class="county feature" d="M590.802 454.99l3.272 2.985 1.015-.902-.086 1.034-4.35 1.24-.734.911-2.288.194 1.118-4.912z" vector-effect="non-scaling-stroke" fill="inherit" stroke="inherit" stroke-width="inherit"><title>Ascension Parish</title></path><path id="county-22095" class="county feature" d="M600.788 456.562l-2.537 3.86-1.418.38.077 2.346-1.847.143-.68-2.705.62-2.479.086-1.034 1.225.448 2.423-1.86 1.663-.253z" vector-effect="non-scaling-stroke" fill="inherit" stroke="inherit" stroke-width="inherit"><title>Saint John the Baptist Parish</title></path><path id="county-22089" class="county feature" d="M602.202 466.57l-1.913.09-.607-1.298-2.772-2.214-.077-2.346 1.418-.38 2.537-3.86.244 4.821.78 2.025 1.228.77z" vector-effect="non-scaling-stroke" fill="inherit" stroke="inherit" stroke-width="inherit"><title>Saint Charles Parish</title></path><path id="county-22051" class="county feature" d="M605.066 476.22l.362-.774-.362.773zm-1.456-19.098l-.223 5.127 1.255-.573.881.876-.901 1.306.128 1.677 1.567 2.378.215 2.737-2.505-1.532.07-1.898-1.002-.543-.893-.108.838-2.391-1.228-.77-.78-2.025-.244-4.821.567.086z" vector-effect="non-scaling-stroke" fill="inherit" stroke="inherit" stroke-width="inherit"><title>Jefferson Parish</title></path><path id="county-22071" class="county feature" d="M611.38 457.311l-1.554 1.85-2.033 1.238-2.085.38-.314.836 1.732 1.34-1.603-.403-.88-.876-1.256.573.223-5.127 1.833.67 1.698-1.01 1.524.776z" vector-effect="non-scaling-stroke" fill="inherit" stroke="inherit" stroke-width="inherit"><title>Orleans Parish</title></path><path id="county-22087" class="county feature" d="M613.423 466.443l.233.153.304.263.066.037zm1.483-5.31l.384.674 1.31.495-1.397.94 1.097.598-1.987-.246.493 1.06-3.36.229 1.842 1.706-.19-.125-.098.019-5.131-2.206-.743-1.322-1.732-1.34.314-.836 2.085-.38 1.122 1.252 1.05-.558.47 1.556 1.614-.067.275-2.29 2.07-1.416z" vector-effect="non-scaling-stroke" fill="inherit" stroke="inherit" stroke-width="inherit"><title>Saint Bernard Parish</title></path><path id="county-22093" class="county feature" d="M595.063 463.29l-2.12-.484-1.601.392-1.272-1.29-.151-1.65.734-.91 4.35-1.24-.62 2.478z" vector-effect="non-scaling-stroke" fill="inherit" stroke="inherit" stroke-width="inherit"><title>Saint James Parish</title></path><path id="county-22113" class="county feature" d="M568.56 459.727l2.54.486 2.707 1.367.04 3.803-.167.739-2.886 1.869 1.047-.028-.058 1.572-3.024 1.685-5.19-.697-.275-8.556-1.957.085 1.77-1.09.903-.385 2.258 1.045z" vector-effect="non-scaling-stroke" fill="inherit" stroke="inherit" stroke-width="inherit"><title>Vermilion Parish</title></path><path id="county-22045" class="county feature" d="M575.261 469.054l3.018 1.372-2.112 1.478-3.007-1.513zm8.132-8.322l2.363.51-.447 1.032-3.486.46-2.459.325-3.57 4.032.39-1.723-2.338.015-.039-3.803.191-.687 2.143.453 1.433-1.53 2.113 1.573z" vector-effect="non-scaling-stroke" fill="inherit" stroke="inherit" stroke-width="inherit"><title>Iberia Parish</title></path><path id="county-22007" class="county feature" d="M589.919 460.258l.151 1.65 1.272 1.29-1.772 3.662-1.141 1.712-.35-1.347.012-1.913-1.493-.759-1.29-2.28.448-1.03 1.875-.79z" vector-effect="non-scaling-stroke" fill="inherit" stroke="inherit" stroke-width="inherit"><title>Assumption Parish</title></path><path id="county-22023" class="county feature" d="M557.154 462.166l4.183-.114 1.957-.085.276 8.556-5.404-2.127-3.777-1.132-4.998.173-4.183.732-1.51.838-1.506-2.036 1.182-1.185 2.07-3.537 9.564-.277z" vector-effect="non-scaling-stroke" fill="inherit" stroke="inherit" stroke-width="inherit"><title>Cameron Parish</title></path><path id="county-22101" class="county feature" d="M588.08 467.225l.349 1.347-2.11.836-1.532 1.942-1.558-1.156-2.276.74-.139-2.092-1.189.138-.22-2.14-3.611.25 3.57-4.031 2.46-.326 1.698 2.194-.163.957z" vector-effect="non-scaling-stroke" fill="inherit" stroke="inherit" stroke-width="inherit"><title>Saint Mary Parish</title></path><path id="county-22057" class="county feature" d="M599.805 475.861l-.008-.134.008.134zm5.637-4.59l.048 1.975-.485.496.423 1.704-.362.773-2.06 1.63-.78-.95-1.692-3.072-.749 1.704-.015-.26-.006-.104.069-.323.065-.089.23-1.646-4.16-4.417-2.504-1.702-.696-1.42-1.15 1.142-2.048.148 1.772-3.662 1.6-.392 2.12.485 1.848-.143 2.772 2.214.607 1.297 1.913-.09.893.108.313 2.061-.987 1.047z" vector-effect="non-scaling-stroke" fill="inherit" stroke="inherit" stroke-width="inherit"><title>Lafourche Parish</title></path><path id="county-22075" class="county feature" d="M610.926 471.9l.734 1.263-2.331.02zm3.034-5.04l.066.036-.066-.037zm0 0l-.304-.264.304.263zm-.672-.27l-.19-.126.19.125zm-1.543.143l-.055.485-1.462.413 1.304 1.77 2.188 1.05-.594.823 3.104.018 2.306 1.533.763-.89 2.017 2.91-.177 1.688-1.407 1.289-1.042-.509-2.446 2.614 2.198-3.966-.91-1.499-2.108.752-.963-2.567-1.853-1.063-2.974.27-.389-.584-.97-.512-1.743-.108-.215-2.737-1.567-2.378-.128-1.677.901-1.306 1.603.403.743 1.322 5.131 2.206z" vector-effect="non-scaling-stroke" fill="inherit" stroke="inherit" stroke-width="inherit"><title>Plaquemines Parish</title></path><path id="county-22109" class="county feature" d="M599.805 475.861l-.008-.134.008.134zm-.02-.33l-.015-.26.015.26zm-.021-.364l.069-.323-.07.323zM586.18 473.5l1.279.873-.527 1.852-1.867-1.48zm10.801 1.803l-.452.61-.475-.214-1.073 1.781-2.077.014-1.771-.425 2.12-1.445-1.977-.706-.549-1.07-1.373 2.86-1.41-.756-.013-1.96-2.196-1.896.584-2.688 2.11-.836 1.14-1.712 2.05-.148 1.15-1.142.695 1.42 2.504 1.702 4.16 4.417-.23 1.646-3.115-.764z" vector-effect="non-scaling-stroke" fill="inherit" stroke="inherit" stroke-width="inherit"><title>Terrebonne Parish</title></path></g><path id="counties-mesh" class="counties mesh" d="M547.232 406.56l1.16 3.035.387 8.351 1.075-.024-.784 3.294-.677-.006m3.228-14.76l.186 5.655.79-.021.197 2.471.573 2.42-1.38.889-2.133.058m9.757-11.657l.154 4.784-1.607.07-.705 3.288-4.659.148m17.024-8.562l.284 5.35-3.117 2.791-2.246.057-.061-1.637-1.66-.884-3.253-.62m19.893-5.458l-.807 2.207-1.626 2.12-.405 2.178-1.968 2.216-2.211 1.005-.271-3.028-2.268-.946m12.24-5.864l-1.071 2.78.063 2.086-1.434 3.212-2.356.106-.724-1.567m-34.166-5.44l-.371 1.386.91 1.647.083 3.999 2.804 5.495 2.313 2.026-2.255.052-.878-1.504-1.824-.405-2.565 2.82-1.439.022-.087-3.684-.116-5.647-.073-3.532-.053-2.595 3.55-.08.163-.003 4.416-.094.47-.01 3.919-.1 3.891-.108 4.1-.077 10.206-.272 9.466-.38.374-.02 2.685-.113 1.518-.057-.074 1.955 1.162-1.68.445 1.88-.986.995.13 1.877 1.284.192-1.371 1.506 1.731 1.203-.412.285-.959.507-5.067.253.156-.838m-15.16.633l.056 1.64-3.248.102.045.804-2.434.086-1.603.042-.103-2.458m15.188.911l-1.312 2.398-.402 1.975-4.355.169-1.714-2.382-.062-1.647m14.948-1.435l-.18 2.49-2.479.124-1.915 1.403-.09 1.645-1.86 1.894-1.332-.215-.961-2.046m-11.768-2.868l.173 4.112-.565 1.659-1.964.046-3.895.112-.472-1.634-3.366.098m37.756.669l-.354-.051m-1.194-1.57l-5.781.43-.66-1.772.727-2.036m-12.992 2.974l.09 2.464-7.895.27m20.73-1.9l.146 2.118-1.174 3.957-.41-1.619-2.807 1.968-1.801-1.793-.231-3.373m-27.082-.69l1.228.794-.02 1.679 3.039 3.147-1.35.386.03 1.282-6.913.19-2.212-2.498-.508-4.047m34.019 3.13l-1.792.905-4.843.195-.154-4.1m19.108-8.69l-.193 2.038 1.725.034-.297 1.639 1.462.336-1.302 2.259-1.887.323-.587 1.469 1.781.1.354.052.011.115-.616 1.866-1.72 1.13-.853 1.762-1.516.563.529 1.74-.961.338-2.635-.209-.596-2.421m-25.561-4.017l1.11 3.265-1.827.052.026 1.298-1.832-.485m16.431-.457l-.693 2.481-4.052.14.047 1.643-5.59.2.281-2.769 1.155-1.77-1.161-3.71m-.274 8.25l1.113 1.565 1.675.442 1.359 1.445-2.987 2.902-1.07.438-4.057-.21-.1-3.257-1.598.05-.116-3.302-1.629.04-.054-2.453m3.497 8.921l-2.45.076-.794 1.66-1.364.03-.327 1.725-.761.195-1.389-2.321-.598-3.97-1.92-1.303.587-2.186-1.394-2.637m36.913.45l-2.344.425-.123 1.797-1.56.242.154 3.595-.825 1.619.528 1.63-1.489-.47-.965 1.347-.354-1.872-.428-11.273m.428 11.273l-1.25-.128-1.85-2.599-1.115-.234-1.465-2.398-.284-3.238m2.863 5.87l-6.832 1.896-1.478-2.33m21.024-4.943l-.242 2.153-1.499-.392 1.379 1.442-1.54.676.25 3.134-1.202-.699 1.109 2.332-2.189.627 1.09 1.057-.519 1.418 1.033.89-1.103 1.316-.387.564.048-.454-1.09-.886.622-2.724-2.565-1.356m-4.058-1.122l-2.318.41.66 6.654-1.154-.007-1.732-.617-1.522 1.784-1.756.314-3.607.24-.318-6.78-2.47-1.69m2.788 8.47l-2.464.302-7.073.115-2.189.325.713-3.018-.768-2.915m29.212 1.615l-.396.494-.847.954-.048 2.287-6.354.257-1.169-2.137m-13.25 10.987l1.624.394.685 4.141 1.66-.042.12 1.377-1.71.877-2.146-.194-9.563.277.11-3.607-.957-1.832.366-1.11.685-.795-.712-1.795 1.67-2.612 1.075-3.603m37.926-3.891l-1.71 6.593-.443-.103-.884-1.834-3.412.325 1.133-1.95-1.699.288-.713-2.406m.048-.454l-1.485-.392m7.012 6.423l-1.206 2.816-1.115.323-3.466.156-.887.034.191-3.83-1.424-2.68m31.719 1.677l-2.444.179-4.227-.615-1.778-5.303m-29.624 4.318l.71 1.484-.477 3.762-3.786.777-.67 1.036-2.23.068.023-.126.469-1.746-.218-5.911m37.581 1.64l.76 9.095-.568-.086-.388-1.154-1.663.254-1.722-1.343-1.147-2.264-.18-3.049-.375-6.538m.375 6.538l-5.502.316.894-1.358-.344-4.108.454-1.151m-.11 5.259l-6.445.598-.637 1.076-.1-.041m-21.134 3.973l-2.281.07-.02.95-5.699.445-.087-3.26 2.422-.084-.155-5.236m-2.18 8.58l.012.384-4.084.127-.039-1.637-1.63.037.048 1.646-4.107.107m31.817-2.876l1.331 1.87-3.102-.277-1.853.982-1-.166-1.415 1.574-.653-2.556-1.15-.768-3.969.146m25.216-4.306l-1.124 1.53.023 2.074 1.717 2.064-2.053.55-1.951.07-1.636-.559.58-2.832-1.052.09-.692-2.671m-5.731-6.285l7.34-.35 1.854-.091 3.73-.207 4.122-.237.31-.018 3.195-.2 1.395-.088 6.75-.45 1.714-.117-1.41 6.395.528 1.475 2.162 2.234 1.454 4.254 1.573.806-1.604.552-2.715.247-1.524-.775-1.698 1.01-1.833-.671-2.255-.474m-14.557-1.038l-2.722.153-2.942-3.13m17.603 3.029l-2.423 1.86-1.225-.45-1.015.903-3.272-2.985m.54 8.208l-1.772 3.662-1.141 1.712-.35-1.347-4.72-1.341.163-.957-1.699-2.194 3.486-.46 1.289 2.28 1.493.759-.012 1.913m-10.411-14.436l1.025.978.42 2.468 2.415 1.392.338 2.364 1.527.741-3.706.657-2.113-1.572-1.433 1.53-2.143-.454.658-1.545-1.499-3.95m15.592.142l-1.118 4.912-1.875.79-2.363-.51m-20.653-7.036l.368 7.266-1.771 1.09-4.183.114m13.588-5.36l-2.182 2.921-2.292 1.895-2.258-1.045-.902.385m10.89-.069l-.191.687-2.707-1.367-2.54-.486m26.53-2.654l-.087 1.034-4.35 1.24-.734.911-2.288.194m13.157-3.89l-2.537 3.86-1.418.38.077 2.346-1.847.143-.68-2.705.62-2.479m-31.433 12.416l-5.404-2.127-3.777-1.132-4.998.173-4.183.732-1.51.838-1.506-2.036 1.182-1.185 2.07-3.537m55.344-5.687l.244 4.821.78 2.025 1.228.77-.838 2.391-1.913.09-.607-1.297-2.772-2.214m6.7-6.026l-.223 5.127 1.255-.573.881.876-.901 1.306.128 1.677 1.567 2.378.215 2.737-2.505-1.532.07-1.898-1.002-.543-.893-.108m9.178-9.258l-1.554 1.85-2.033 1.238-2.085.38-.314.836 1.732 1.34-1.603-.403m7.9 3.891l.233.153.304.263.066.037-.603-.453m-5.63-6.044l1.122 1.252 1.05-.558.47 1.556 1.614-.067.275-2.29 2.07-1.416.512 2.256.384.675 1.31.495-1.397.94 1.097.598-1.987-.246.493 1.06-3.36.229 1.842 1.706-.19-.125-.098.019-5.131-2.206-.743-1.322m-12.063.336l-2.12-.485-1.601.392-1.272-1.29-.151-1.65m-16.112 1.322l.04 3.803-.167.739-2.886 1.869 1.047-.028-.058 1.572-3.024 1.685-5.19-.697-.275-8.556-1.957.085m13.924 7.002l3.018 1.372-2.112 1.478-3.007-1.513 2.101-1.337m10.495-7.811l-.447 1.03m-3.486.46l-2.459.326-3.57 4.032.39-1.723-2.338.015m14.583 3.189l-2.11.836-1.532 1.942-1.558-1.156-2.276.74-.139-2.092-1.189.138-.22-2.14-3.611.25m27.3-.413l.314 2.061-.987 1.047 3.02 1.486.049 1.975-.485.496.423 1.704m-.362.773l.362-.773-.362.773-2.06 1.63-.78-.95-1.692-3.072-.749 1.704-.015-.26-.006-.104.069-.323.065-.089.23-1.646-4.16-4.417-2.504-1.702-.696-1.42-1.15 1.142-2.048.148m21.356 5.04l.734 1.263-2.331.02 1.597-1.283m3.1-5.004l-.066-.037-.304-.263m-.368-.007l-.19-.125m-.098.019l-1.255.25-.055.485-1.462.413 1.304 1.77 2.188 1.05-.594.823 3.104.018 2.306 1.533.763-.89 2.017 2.91-.177 1.688-1.407 1.289-1.042-.509-2.446 2.614 2.198-3.966-.91-1.499-2.108.752-.963-2.567-1.853-1.063-2.974.27-.389-.584-.97-.512-1.743-.108m-6.727 5.211l-.008-.134.008.134-.008-.134m-.012-.196l-.015-.26m-.006-.104l.069-.323M586.18 473.5l1.279.873-.527 1.852-1.867-1.48 1.115-1.245m13.718 1.255l-3.115-.764.198 1.312-.452.61-.475-.214-1.073 1.781-2.077.014-1.771-.425 2.12-1.445-1.977-.706-.549-1.07-1.373 2.86-1.41-.756-.013-1.96-2.196-1.896.584-2.688" vector-effect="non-scaling-stroke" fill="inherit" stroke="inherit" stroke-width="inherit"/></svg>