<?xml version="1.0" standalone="yes"?>
<svg xmlns="http://www.w3.org/2000/svg" version="1.2" id="root" viewBox="812.263900559722 173.2735766035594 57.55207728623615 33.769460061165695"><style>
@import url("../../css/svg.css");</style><rect id="bbox" class="bbox" x="812.263900559722" y="173.2735766035594" width="57.55207728623615" height="33.769460061165695"></rect><g id="counties"><path id="county-25009" class="county feature" d="M847.3291595067001,176.343020725492L848.734506222808,179.11080177303984L851.458781241858,179.71697786949608L850.8894342881704,180.83127404637173L848.0513621916518,182.65941374585134L848.3351024660183,184.0844839902461L847.3029451819406,184.91843260286055L846.692862863549,184.8265107614959L845.4865806503595,182.0408536254629L842.6315499977709,181.7994828770312L842.2318156594837,180.35602453780984L842.3372439080031,180.20051904534625L844.4048049040045,178.40954493630147L844.5907559159639,177.3314765174988Z" style="fill: inherit; stroke: inherit; stroke-width: inherit;" vector-effect="non-scaling-stroke"><title>Essex County</title></path><path id="county-25003" class="county feature" d="M818.8725903088759,186.24774907938001L820.2806844160177,187.8439847241891L820.3347789884109,189.47244190823903L821.1031030823403,193.99799753047193L821.6208991622028,199.14870586913503L815.7715708903064,200.38561543899334L815.6464165458106,200.41478172699283L815.3333446816546,199.77016275313485L815.5346643235753,191.53712796635568L815.6480893663787,186.94600403447646Z" style="fill: inherit; stroke: inherit; stroke-width: inherit;" vector-effect="non-scaling-stroke"><title>Berkshire County</title></path><path id="county-25011" class="county feature" d="M830.080637017634,191.14286126065338L828.9192927490724,189.9481987475441L824.6204749949733,191.31981635090608L824.447038666729,190.444199520427L822.045433608364,190.43716984040418L820.3347789884109,189.47244190823903L820.2806844160177,187.8439847241891L818.8725903088759,186.24774907938001L820.1114576611533,185.9780149864314L826.4058202313613,184.64108929202564L828.7507541111852,184.15094505601598L829.7254592084139,185.03965536288308L830.2156904135409,187.8117307352777Z" style="fill: inherit; stroke: inherit; stroke-width: inherit;" vector-effect="non-scaling-stroke"><title>Franklin County</title></path><path id="county-25017" class="county feature" d="M846.692862863549,184.8265107614959L846.6142827668623,185.85971105931492L846.3070433599542,185.9861385132058L846.5440127832662,186.33757647000255L846.5355574958071,186.34402923230402L845.5084820681159,187.378288347457L845.5319555636249,187.88526546084267L845.28180683647,188.36083940992353L843.3058832112215,188.3091865896322L843.6548963989728,190.39201893748964L842.0871341246851,191.660525859151L840.5013820430779,191.3343964903662L840.1410191143643,190.17598629906968L841.1426130861436,188.54435268714826L839.201218903766,188.67071980927392L839.7831146647349,187.30377505788226L839.4278918672785,184.85314203649648L837.6367177787984,185.56844339009172L837.4348580558203,184.04150651657642L834.7691094638374,184.30879792196822L833.870894384906,183.03094040631174L841.9143811641782,181.19975701552528L842.2318156594837,180.35602453780984L842.6315499977709,181.7994828770312L845.4865806503595,182.0408536254629Z" style="fill: inherit; stroke: inherit; stroke-width: inherit;" vector-effect="non-scaling-stroke"><title>Middlesex County</title></path><path id="county-25027" class="county feature" d="M833.4690157193055,183.11938550933473L833.870894384906,183.03094040631174L834.7691094638374,184.30879792196822L837.4348580558203,184.04150651657642L837.6367177787984,185.56844339009172L839.4278918672785,184.85314203649648L839.7831146647349,187.30377505788226L839.201218903766,188.67071980927392L841.1426130861436,188.54435268714826L840.1410191143643,190.17598629906968L840.5013820430779,191.3343964903662L842.0871341246851,191.660525859151L842.4887640215095,194.26770800576276L838.5140136694833,195.48651675571512L834.3759761209913,196.15372759983427L833.9241016460314,196.24260092247857L833.3190105926308,193.8438663347098L831.4996824490587,193.8786506091119L831.7833889874521,192.61790955668948L831.6053991599574,191.38443459708333L830.080637017634,191.14286126065338L830.2156904135409,187.8117307352777L829.7254592084139,185.03965536288308L828.7507541111852,184.15094505601598Z" style="fill: inherit; stroke: inherit; stroke-width: inherit;" vector-effect="non-scaling-stroke"><title>Worcester County</title></path><path id="county-25015" class="county feature" d="M830.080637017634,191.14286126065338L831.6053991599574,191.38443459708333L831.7833889874521,192.61790955668948L829.7367139490414,194.29158776488464L829.409023107988,193.4806810952383L827.0016443302014,194.47902618947592L826.1521987449635,193.48445456752893L825.8285009385619,195.3158206404795L822.6045137725198,195.0415037637922L822.5456826206041,193.24881339151977L821.1031030823403,193.99799753047193L820.3347789884109,189.47244190823903L822.045433608364,190.43716984040418L824.447038666729,190.444199520427L824.6204749949733,191.31981635090608L828.9192927490724,189.9481987475441Z" style="fill: inherit; stroke: inherit; stroke-width: inherit;" vector-effect="non-scaling-stroke"><title>Hampshire County</title></path><path id="county-25025" class="county feature" d="M846.5355574958071,186.34402923230402L847.2870367501841,187.8318610819041L846.3477336641674,189.14207605908757L845.28180683647,188.36083940992353L845.5319555636249,187.88526546084267L845.5084820681159,187.378288347457ZM846.5440127832662,186.33757647000255L846.3070433599542,185.9861385132058L846.5440127832662,186.33757647000255ZM847.3029451819406,184.91843260286055L846.6142827668623,185.85971105931492L846.692862863549,184.8265107614959Z" style="fill: inherit; stroke: inherit; stroke-width: inherit;" vector-effect="non-scaling-stroke"><title>Suffolk County</title></path><path id="county-25021" class="county feature" d="M850.213110942442,187.38588372460083L850.8828048192177,187.67080723586196L850.213110942442,187.38588372460083ZM845.28180683647,188.36083940992353L846.3477336641674,189.14207605908757L847.2870367501841,187.8318610819041L848.9033098114195,188.07308757511305L849.4303896549135,189.6841407881119L847.6684594939047,191.3625782680748L844.1977161644843,194.44297959192363L842.4887640215095,194.26770800576276L842.0871341246851,191.660525859151L843.6548963989728,190.39201893748964L843.3058832112215,188.3091865896322ZM845.5319555636249,187.88526546084267L845.5084820681159,187.378288347457L845.5319555636249,187.88526546084267Z" style="fill: inherit; stroke: inherit; stroke-width: inherit;" vector-effect="non-scaling-stroke"><title>Norfolk County</title></path><path id="county-25013" class="county feature" d="M831.7833889874521,192.61790955668948L831.4996824490587,193.8786506091119L833.3190105926308,193.8438663347098L833.9241016460314,196.24260092247857L828.9181582932212,197.4390131148475L822.2249516584172,199.01750358366792L821.6208991622028,199.14870586913503L821.1031030823403,193.99799753047193L822.5456826206041,193.24881339151977L822.6045137725198,195.0415037637922L825.8285009385619,195.3158206404795L826.1521987449635,193.48445456752893L827.0016443302014,194.47902618947592L829.409023107988,193.4806810952383L829.7367139490414,194.29158776488464Z" style="fill: inherit; stroke: inherit; stroke-width: inherit;" vector-effect="non-scaling-stroke"><title>Hampden County</title></path><path id="county-25023" class="county feature" d="M850.213110942442,187.38588372460083L850.8828048192177,187.67080723586196L853.5569463574582,189.9204279971068L853.021393893935,191.63736537265936L855.6924103414401,192.49366990856174L856.2918938864788,194.58405891022278L855.4894180989412,196.04878173456075L854.2030158301783,196.61470472296003L854.1431688922262,198.22942216731167L853.106894561004,198.98525211569654L851.2668879491443,196.3306038996078L849.9300013827035,196.91810971736902L850.2299617701635,195.2476762401036L848.6974444545123,193.63125319581343L847.6684594939047,191.3625782680748L849.4303896549135,189.6841407881119L848.9033098114195,188.07308757511305Z" style="fill: inherit; stroke: inherit; stroke-width: inherit;" vector-effect="non-scaling-stroke"><title>Plymouth County</title></path><path id="county-25005" class="county feature" d="M853.106894561004,198.98525211569654L852.4156251861508,200.92628699760053L850.0568687562238,202.37629490872894L849.0903374107634,199.46022616523874L848.1733141921267,199.41670135350114L847.5712189299436,198.8367852992651L846.0528672420523,198.01528345862096L844.1977161644843,194.44297959192363L847.6684594939047,191.3625782680748L848.6974444545123,193.63125319581343L850.2299617701635,195.2476762401036L849.9300013827035,196.91810971736902L851.2668879491443,196.3306038996078Z" style="fill: inherit; stroke: inherit; stroke-width: inherit;" vector-effect="non-scaling-stroke"><title>Bristol County</title></path><path id="county-25001" class="county feature" d="M859.1078910785048,197.4598884190567L858.1744921493761,199.11052760824384L855.8722536222674,200.16579617202206L855.4894180989412,196.04878173456075L856.2918938864788,194.58405891022278L858.1460388404057,195.31907031262108L860.1980111187952,195.13940417822073L863.4395061771015,192.64964537082585L860.5694982276326,188.65909261280444L863.0616251513393,190.2033179434767L864.457977432246,193.21168778708818L863.9370377431112,195.21393987365377Z" style="fill: inherit; stroke: inherit; stroke-width: inherit;" vector-effect="non-scaling-stroke"><title>Barnstable County</title></path><path id="county-25007" class="county feature" d="M857.2661629683953,201.297021599765L859.5747476050146,202.69610304621676L855.9230382560924,203.97359254279252L855.9775513315459,202.02850643377155Z" style="fill: inherit; stroke: inherit; stroke-width: inherit;" vector-effect="non-scaling-stroke"><title>Dukes County</title></path><path id="county-25019" class="county feature" d="M865.6597828558466,200.93261367821515L866.7465337240255,202.56731373229456L864.7593443358783,203.33189224359785Z" style="fill: inherit; stroke: inherit; stroke-width: inherit;" vector-effect="non-scaling-stroke"><title>Nantucket County</title></path></g><path id="counties-mesh" class="counties mesh" d="M818.8725903088759,186.24774907938001L820.2806844160177,187.8439847241891L820.3347789884109,189.47244190823903L821.1031030823403,193.99799753047193L821.6208991622028,199.14870586913503L815.7715708903064,200.38561543899334L815.6464165458106,200.41478172699283L815.3333446816546,199.77016275313485L815.5346643235753,191.53712796635568L815.6480893663787,186.94600403447646L818.8725903088759,186.24774907938001L820.1114576611533,185.9780149864314L826.4058202313613,184.64108929202564L828.7507541111852,184.15094505601598L833.4690157193055,183.11938550933473L833.870894384906,183.03094040631174L841.9143811641782,181.19975701552528L842.2318156594837,180.35602453780984L842.3372439080031,180.20051904534625L844.4048049040045,178.40954493630147L844.5907559159639,177.3314765174988L847.3291595067001,176.343020725492L848.734506222808,179.11080177303984L851.458781241858,179.71697786949608L850.8894342881704,180.83127404637173L848.0513621916518,182.65941374585134L848.3351024660183,184.0844839902461L847.3029451819406,184.91843260286055L846.692862863549,184.8265107614959L845.4865806503595,182.0408536254629L842.6315499977709,181.7994828770312L842.2318156594837,180.35602453780984M828.7507541111852,184.15094505601598L829.7254592084139,185.03965536288308L830.2156904135409,187.8117307352777L830.080637017634,191.14286126065338L828.9192927490724,189.9481987475441L824.6204749949733,191.31981635090608L824.447038666729,190.444199520427L822.045433608364,190.43716984040418L820.3347789884109,189.47244190823903M846.692862863549,184.8265107614959L846.6142827668623,185.85971105931492L846.3070433599542,185.9861385132058L846.5440127832662,186.33757647000255L846.5355574958071,186.34402923230402L845.5084820681159,187.378288347457L845.5319555636249,187.88526546084267L845.28180683647,188.36083940992353L843.3058832112215,188.3091865896322L843.6548963989728,190.39201893748964L842.0871341246851,191.660525859151L840.5013820430779,191.3343964903662L840.1410191143643,190.17598629906968L841.1426130861436,188.54435268714826L839.201218903766,188.67071980927392L839.7831146647349,187.30377505788226L839.4278918672785,184.85314203649648L837.6367177787984,185.56844339009172L837.4348580558203,184.04150651657642L834.7691094638374,184.30879792196822L833.870894384906,183.03094040631174M842.0871341246851,191.660525859151L842.4887640215095,194.26770800576276L838.5140136694833,195.48651675571512L834.3759761209913,196.15372759983427L833.9241016460314,196.24260092247857L833.3190105926308,193.8438663347098L831.4996824490587,193.8786506091119L831.7833889874521,192.61790955668948L831.6053991599574,191.38443459708333L830.080637017634,191.14286126065338M831.7833889874521,192.61790955668948L829.7367139490414,194.29158776488464L829.409023107988,193.4806810952383L827.0016443302014,194.47902618947592L826.1521987449635,193.48445456752893L825.8285009385619,195.3158206404795L822.6045137725198,195.0415037637922L822.5456826206041,193.24881339151977L821.1031030823403,193.99799753047193M846.5355574958071,186.34402923230402L847.2870367501841,187.8318610819041L846.3477336641674,189.14207605908757L845.28180683647,188.36083940992353M845.5319555636249,187.88526546084267L845.5084820681159,187.378288347457M846.3070433599542,185.9861385132058L846.5440127832662,186.33757647000255M847.3029451819406,184.91843260286055L846.6142827668623,185.85971105931492M848.9033098114195,188.07308757511305L850.213110942442,187.38588372460083L850.8828048192177,187.67080723586196L850.213110942442,187.38588372460083M847.2870367501841,187.8318610819041L848.9033098114195,188.07308757511305L849.4303896549135,189.6841407881119L847.6684594939047,191.3625782680748L844.1977161644843,194.44297959192363L842.4887640215095,194.26770800576276M833.9241016460314,196.24260092247857L828.9181582932212,197.4390131148475L822.2249516584172,199.01750358366792L821.6208991622028,199.14870586913503M850.8828048192177,187.67080723586196L853.5569463574582,189.9204279971068L853.021393893935,191.63736537265936L855.6924103414401,192.49366990856174L856.2918938864788,194.58405891022278L855.4894180989412,196.04878173456075L854.2030158301783,196.61470472296003L854.1431688922262,198.22942216731167L853.106894561004,198.98525211569654L851.2668879491443,196.3306038996078L849.9300013827035,196.91810971736902L850.2299617701635,195.2476762401036L848.6974444545123,193.63125319581343L847.6684594939047,191.3625782680748M853.106894561004,198.98525211569654L852.4156251861508,200.92628699760053L850.0568687562238,202.37629490872894L849.0903374107634,199.46022616523874L848.1733141921267,199.41670135350114L847.5712189299436,198.8367852992651L846.0528672420523,198.01528345862096L844.1977161644843,194.44297959192363M856.2918938864788,194.58405891022278L858.1460388404057,195.31907031262108L860.1980111187952,195.13940417822073L863.4395061771015,192.64964537082585L860.5694982276326,188.65909261280444L863.0616251513393,190.2033179434767L864.457977432246,193.21168778708818L863.9370377431112,195.21393987365377L859.1078910785048,197.4598884190567L858.1744921493761,199.11052760824384L855.8722536222674,200.16579617202206L855.4894180989412,196.04878173456075M857.2661629683953,201.297021599765L859.5747476050146,202.69610304621676L855.9230382560924,203.97359254279252L855.9775513315459,202.02850643377155L857.2661629683953,201.297021599765M865.6597828558466,200.93261367821515L866.7465337240255,202.56731373229456L864.7593443358783,203.33189224359785L865.6597828558466,200.93261367821515" style="fill: inherit; stroke: inherit; stroke-width: inherit;" vector-effect="non-scaling-stroke"></path></svg>