<?xml version="1.0" standalone="yes"?>
<svg xmlns="http://www.w3.org/2000/svg" version="1.2" id="root" viewBox="738.6319182629385 246.2859636524795 75.01296494764793 41.497044097954834"><style>
@import url("../../css/svg.css");</style><rect id="bbox" class="bbox" x="738.6319182629385" y="246.2859636524795" width="75.01296494764793" height="41.497044097954834"></rect><g id="counties"><path id="county-24043" class="county feature" d="M761.9028856545759,256.8387933212564L770.7158960685413,255.16897050936348L769.6708499570902,257.2962676235502L769.2419553402931,263.05534367889913L768.6765269258437,263.241942255995L766.5547404673146,260.3354228822052L765.5077477378611,259.42600094240186L765.9742109909514,258.2788204467356L763.3498600502338,258.52918518412696L760.8679193474529,257.52205944942784L759.9378050040613,259.1232553753333L758.9214228675049,259.0324462441845L758.4995316043979,257.47986076946654Z" style="fill: inherit; stroke: inherit; stroke-width: inherit;" vector-effect="non-scaling-stroke"><title>Washington County</title></path><path id="county-24001" class="county feature" d="M757.9712848059349,257.5728532147157L758.4995316043979,257.47986076946654L758.9214228675049,259.0324462441845L757.5812007650939,259.6000020987069L757.4580442168563,261.61722265066714L754.7455703653478,261.7662588606181L752.5506637499578,260.75403851959334L750.7320776132667,264.34786782141657L749.1659230519115,263.83943640582527L750.2650937394131,258.99082560799457L751.9835253103518,258.67667712277705Z" style="fill: inherit; stroke: inherit; stroke-width: inherit;" vector-effect="non-scaling-stroke"><title>Allegany County</title></path><path id="county-24023" class="county feature" d="M750.2650937394131,258.99082560799457L749.1659230519115,263.83943640582527L746.8026657802989,267.1767495552159L744.1650941860438,269.97514503990465L742.632609726813,260.38677648611747L743.8081994321573,260.1705246504083Z" style="fill: inherit; stroke: inherit; stroke-width: inherit;" vector-effect="non-scaling-stroke"><title>Garrett County</title></path><path id="county-24015" class="county feature" d="M794.133055557167,250.28665511635404L795.8104531705903,256.57184119875706L794.892002026678,256.8415190676151L791.9290518535219,257.17195469576154L792.2562994089656,253.84458597913L790.8336667878893,254.44006257677893L787.9470874140503,251.6237569901275L789.3072240601117,251.34013973309334Z" style="fill: inherit; stroke: inherit; stroke-width: inherit;" vector-effect="non-scaling-stroke"><title>Cecil County</title></path><path id="county-24025" class="county feature" d="M787.8521255385492,251.6437930569134L787.9470874140503,251.6237569901275L790.8336667878893,254.44006257677893L790.886855466957,256.5137201498146L789.0490715633841,258.21306945197716L789.0728764769524,256.26341623744577L787.4592849999297,258.03506503527524L786.0846867841509,256.32291461549426L784.4368467935208,255.74665401600646L783.2628809365754,252.60670598286606Z" style="fill: inherit; stroke: inherit; stroke-width: inherit;" vector-effect="non-scaling-stroke"><title>Harford County</title></path><path id="county-24005" class="county feature" d="M783.2628809365754,252.60670598286606L784.4368467935208,255.74665401600646L786.0846867841509,256.32291461549426L787.4592849999297,258.03506503527524L788.0205020216213,258.98514761050114L787.2673635704972,261.6829890679578L785.6600177658395,261.3568516976054L785.1585928432476,258.9435094918556L782.6139122415138,259.4634826296548L782.9826052106201,261.20417346193926L784.424413363493,261.6791638013581L783.4018638634882,262.3482660977081L780.3020909233605,260.35465366706455L779.8117613282295,258.64292927134056L780.2325768573535,253.23861403656156Z" style="fill: inherit; stroke: inherit; stroke-width: inherit;" vector-effect="non-scaling-stroke"><title>Baltimore County</title></path><path id="county-24013" class="county feature" d="M780.2325768573535,253.23861403656156L779.8117613282295,258.64292927134056L780.3020909233605,260.35465366706455L776.2774631347745,261.097704404807L776.6258438621599,258.38132627939456L773.3518190279934,256.5825676970294L774.2485569720343,254.46955273525782L777.2721144900929,253.8553430297859Z" style="fill: inherit; stroke: inherit; stroke-width: inherit;" vector-effect="non-scaling-stroke"><title>Carroll County</title></path><path id="county-24021" class="county feature" d="M774.2485569720343,254.46955273525782L773.3518190279934,256.5825676970294L776.6258438621599,258.38132627939456L776.2774631347745,261.097704404807L776.2691896405745,261.1086613458001L772.6908587897674,264.3202738621445L770.8736213488827,263.1011356810933L769.2419553402931,263.05534367889913L769.6708499570902,257.2962676235502L770.7158960685413,255.16897050936348L770.8562122322701,255.14125326582553Z" style="fill: inherit; stroke: inherit; stroke-width: inherit;" vector-effect="non-scaling-stroke"><title>Frederick County</title></path><path id="county-24029" class="county feature" d="M795.8104531705903,256.57184119875706L796.2230765383815,258.04295645093066L796.4797641449234,258.96242875278915L793.2685847639576,259.65805472290435L791.9304713823758,262.5659244992037L790.988021033146,262.16834102676034L790.6261807276435,263.9196909412399L789.5656945254481,262.3360951380081L791.0126131802512,257.7230812380841L794.892002026678,256.8415190676151Z" style="fill: inherit; stroke: inherit; stroke-width: inherit;" vector-effect="non-scaling-stroke"><title>Kent County</title></path><path id="county-24510" class="county feature" d="M785.7371709795693,261.9810838462312L785.1251857784423,262.1463339829471L785.7371709795693,261.9810838462312ZM785.6600177658395,261.3568516976054L785.0325589347568,262.1303633261117L784.424413363493,261.6791638013581L782.9826052106201,261.20417346193926L782.6139122415138,259.4634826296548L785.1585928432476,258.9435094918556Z" style="fill: inherit; stroke: inherit; stroke-width: inherit;" vector-effect="non-scaling-stroke"><title>Baltimore City</title></path><path id="county-24027" class="county feature" d="M780.3020909233605,260.35465366706455L783.4018638634882,262.3482660977081L781.8186039840916,264.8007035289419L781.0371925539011,264.4237277908353L780.1996502904925,264.62104515469673L776.2691896405745,261.1086613458001L776.2774631347745,261.097704404807Z" style="fill: inherit; stroke: inherit; stroke-width: inherit;" vector-effect="non-scaling-stroke"><title>Howard County</title></path><path id="county-24031" class="county feature" d="M781.0371925539011,264.4237277908353L780.0554881554724,267.8001688342214L778.5183009001696,268.71712705794357L775.1551416360746,267.0312028784041L773.1878076129465,267.07441772514824L771.9925656590826,265.9392689786281L772.6908587897674,264.3202738621445L776.2691896405745,261.1086613458001L780.1996502904925,264.62104515469673Z" style="fill: inherit; stroke: inherit; stroke-width: inherit;" vector-effect="non-scaling-stroke"><title>Montgomery County</title></path><path id="county-24035" class="county feature" d="M790.1818767830675,265.38791445591914L789.3242775996091,268.09011556742644L789.5209290774454,264.5012916609635ZM796.4797641449234,258.96242875278915L797.0059110062118,260.834929405284L795.9201756511197,261.73656965515295L795.0696729600884,265.5883904348709L792.7610961035305,265.95643970305764L791.7341826460589,267.0167964725581L791.2975894213438,265.40098702881346L791.6739129494947,263.044830885907L793.2685847639576,259.65805472290435Z" style="fill: inherit; stroke: inherit; stroke-width: inherit;" vector-effect="non-scaling-stroke"><title>Queen Anne's County</title></path><path id="county-24003" class="county feature" d="M787.7851893182869,267.26834713609173L787.1123832246028,270.12804280200396L787.6940276933121,271.09555144774583L785.3390555542499,270.9084454539187L785.0141169106797,268.3073004009792L784.1308853383456,266.47691219081173L781.8186039840916,264.8007035289419L783.4018638634882,262.3482660977081L784.424413363493,261.6791638013581L785.0325589347568,262.1303633261117L785.1251857784423,262.1463339829471L785.7371709795693,261.9810838462312L787.7128029699846,263.84022432528855L786.3901343140336,264.41482566868024L788.4425326982141,265.1889817917637L787.4073192778317,265.98661717448545Z" style="fill: inherit; stroke: inherit; stroke-width: inherit;" vector-effect="non-scaling-stroke"><title>Anne Arundel County</title></path><path id="county-24011" class="county feature" d="M798.6133349976235,266.55223469290206L799.6030877970534,270.06773041945587L798.639398049517,269.31566692531L796.1843577634031,270.00159242524205L795.0411662282924,268.7680733995171L795.7857537402947,267.795644356062L795.0696729600884,265.5883904348709L795.9201756511197,261.73656965515295L797.0059110062118,260.834929405284Z" style="fill: inherit; stroke: inherit; stroke-width: inherit;" vector-effect="non-scaling-stroke"><title>Caroline County</title></path><path id="county-24033" class="county feature" d="M781.8186039840916,264.8007035289419L784.1308853383456,266.47691219081173L785.0141169106797,268.3073004009792L785.3390555542499,270.9084454539187L785.4997511989022,272.4844936081272L785.9293574636181,274.75082719873194L784.9623996396786,273.5008786591329L781.719431422094,273.32462995586195L780.7190878573695,274.3932931197203L780.0316110464361,273.1102280123124L780.443777185796,270.7328698336456L781.6404708421248,268.8838316399866L780.0554881554724,267.8001688342214L781.0371925539011,264.4237277908353Z" style="fill: inherit; stroke: inherit; stroke-width: inherit;" vector-effect="non-scaling-stroke"><title>Prince George's County</title></path><path id="county-24041" class="county feature" d="M795.0696729600884,265.5883904348709L795.7857537402947,267.795644356062L794.9004973089873,269.34911004846595L795.9441097982667,270.0924117938247L795.3323895370681,272.06889441943804L792.8764229176143,270.5404874735816L790.1984473614352,269.8896907910838L790.8912190410981,267.7785397963122L792.5711022859253,269.32337716094503L791.8612982166387,267.6680029480659L792.7610961035305,265.95643970305764Z" style="fill: inherit; stroke: inherit; stroke-width: inherit;" vector-effect="non-scaling-stroke"><title>Talbot County</title></path><path id="county-24009" class="county feature" d="M787.6940276933121,271.09555144774583L788.5510729633575,274.37801346255026L791.0381140157117,276.70362968583663L790.7344027576771,278.048342860071L787.0805161576852,275.9861889384937L785.4997511989022,272.4844936081272L785.3390555542499,270.9084454539187Z" style="fill: inherit; stroke: inherit; stroke-width: inherit;" vector-effect="non-scaling-stroke"><title>Calvert County</title></path><path id="county-24019" class="county feature" d="M794.3127727633478,277.2490529191871L793.2508813918207,276.98378438769953L791.4139714286074,274.92332702413864L792.2662356759809,273.47395026732977L791.7299149739886,272.2878276562634L793.2061884103061,271.72241333207126L795.1368785115781,272.4461425435396L796.1843577634031,270.00159242524205L798.639398049517,269.31566692531L799.6030877970534,270.06773041945587L799.982584251881,271.4261134502981L798.5743277808606,273.26850639222505L798.7313034868018,274.342372625656L797.5593960343108,277.936359448022Z" style="fill: inherit; stroke: inherit; stroke-width: inherit;" vector-effect="non-scaling-stroke"><title>Dorchester County</title></path><path id="county-24017" class="county feature" d="M780.0316110464361,273.1102280123124L780.7190878573695,274.3932931197203L781.719431422094,273.32462995586195L784.9623996396786,273.5008786591329L785.9293574636181,274.75082719873194L786.1119487568252,275.5860793453721L784.9932248046932,275.5874385758748L784.1038037593529,278.0615841823495L784.981177295574,280.2499692144987L783.698404317155,280.0618274268786L781.4428914869113,277.5549500604511L779.4154877162321,279.5831177284143L778.009161137154,277.510140985515Z" style="fill: inherit; stroke: inherit; stroke-width: inherit;" vector-effect="non-scaling-stroke"><title>Charles County</title></path><path id="county-24045" class="county feature" d="M805.5158535704145,272.3148254591259L806.3956252161361,274.0053189604796L805.8422576472578,275.3630869412201L802.3671978712571,276.34889612525853L799.8396087758426,277.1354096057595L798.5459884887123,278.13613544850114L798.13543745618,277.01831161282337L798.7313034868018,274.342372625656L798.5743277808606,273.26850639222505L799.982584251881,271.4261134502981L800.4964534415283,273.2559911379868Z" style="fill: inherit; stroke: inherit; stroke-width: inherit;" vector-effect="non-scaling-stroke"><title>Wicomico County</title></path><path id="county-24037" class="county feature" d="M789.8515409460347,278.202519850213L792.8213895522986,281.0678908133193L793.1148420443144,282.71931715185656L790.9390494458265,281.0945385963564L786.8313375798253,279.51891123020926L786.4776203979728,280.6971637501696L784.1038037593529,278.0615841823495L784.9932248046932,275.5874385758748L786.1119487568252,275.5860793453721Z" style="fill: inherit; stroke: inherit; stroke-width: inherit;" vector-effect="non-scaling-stroke"><title>Saint Mary's County</title></path><path id="county-24047" class="county feature" d="M808.6559178890127,279.8168843913759L808.392613920626,279.9095375665556L808.6559178890127,279.8168843913759ZM809.3550421954985,271.4746801008747L809.6441917467118,271.4099223470622L809.3550421954985,271.4746801008747ZM809.040805701695,272.5476342720581L809.0263848157247,275.4953257442986L807.651489177702,276.639472092863L806.7714088631991,280.47338708191637L803.3956168910004,281.6102201806791L803.3582684978144,281.5862145853995L802.626622129512,280.87974712171126L804.152972952546,279.6129004623119L802.3671978712571,276.34889612525853L805.8422576472578,275.3630869412201L806.3956252161361,274.0053189604796L805.5158535704145,272.3148254591259L809.1318295037407,271.5246259744383Z" style="fill: inherit; stroke: inherit; stroke-width: inherit;" vector-effect="non-scaling-stroke"><title>Worcester County</title></path><path id="county-24039" class="county feature" d="M797.6132517486677,283.63953533302583L797.5070214676066,283.6683909824544L797.6132517486677,283.63953533302583ZM797.9397923291232,283.06337419619194L798.2293902220904,283.5173662675278L798.0702947815118,283.54927540262065L797.7803200894364,283.21859989903453ZM797.7803200894364,283.21859989903453L797.8339930457089,283.59556737895184L797.7369483801165,283.61730347653565ZM799.7598359809118,280.95143684035565L799.3562367220075,279.1006537885994L798.1778647542009,280.1772650277487L799.8396087758426,277.1354096057595L802.3671978712571,276.34889612525853L804.152972952546,279.6129004623119L802.626622129512,280.87974712171126L803.3582684978144,281.5862145853995L799.7637760008678,283.78231628655976Z" style="fill: inherit; stroke: inherit; stroke-width: inherit;" vector-effect="non-scaling-stroke"><title>Somerset County</title></path></g><path id="counties-mesh" class="counties mesh" d="M770.7158960685413,255.16897050936348L769.6708499570902,257.2962676235502L769.2419553402931,263.05534367889913L768.6765269258437,263.241942255995L766.5547404673146,260.3354228822052L765.5077477378611,259.42600094240186L765.9742109909514,258.2788204467356L763.3498600502338,258.52918518412696L760.8679193474529,257.52205944942784L759.9378050040613,259.1232553753333L758.9214228675049,259.0324462441845L758.4995316043979,257.47986076946654M758.9214228675049,259.0324462441845L757.5812007650939,259.6000020987069L757.4580442168563,261.61722265066714L754.7455703653478,261.7662588606181L752.5506637499578,260.75403851959334L750.7320776132667,264.34786782141657L749.1659230519115,263.83943640582527L750.2650937394131,258.99082560799457M795.8104531705903,256.57184119875706L794.892002026678,256.8415190676151L791.9290518535219,257.17195469576154L792.2562994089656,253.84458597913L790.8336667878893,254.44006257677893L787.9470874140503,251.6237569901275M790.8336667878893,254.44006257677893L790.886855466957,256.5137201498146L789.0490715633841,258.21306945197716L789.0728764769524,256.26341623744577L787.4592849999297,258.03506503527524L786.0846867841509,256.32291461549426L784.4368467935208,255.74665401600646L783.2628809365754,252.60670598286606M787.4592849999297,258.03506503527524L788.0205020216213,258.98514761050114L787.2673635704972,261.6829890679578L785.6600177658395,261.3568516976054L785.1585928432476,258.9435094918556L782.6139122415138,259.4634826296548L782.9826052106201,261.20417346193926L784.424413363493,261.6791638013581L783.4018638634882,262.3482660977081L780.3020909233605,260.35465366706455L779.8117613282295,258.64292927134056L780.2325768573535,253.23861403656156M780.3020909233605,260.35465366706455L776.2774631347745,261.097704404807L776.6258438621599,258.38132627939456L773.3518190279934,256.5825676970294L774.2485569720343,254.46955273525782M776.2774631347745,261.097704404807L776.2691896405745,261.1086613458001L772.6908587897674,264.3202738621445L770.8736213488827,263.1011356810933L769.2419553402931,263.05534367889913M749.1659230519115,263.83943640582527L746.8026657802989,267.1767495552159L744.1650941860438,269.97514503990465L742.632609726813,260.38677648611747L743.8081994321573,260.1705246504083L750.2650937394131,258.99082560799457L751.9835253103518,258.67667712277705L757.9712848059349,257.5728532147157L758.4995316043979,257.47986076946654L761.9028856545759,256.8387933212564L770.7158960685413,255.16897050936348L770.8562122322701,255.14125326582553L774.2485569720343,254.46955273525782L777.2721144900929,253.8553430297859L780.2325768573535,253.23861403656156L783.2628809365754,252.60670598286606L787.8521255385492,251.6437930569134L787.9470874140503,251.6237569901275L789.3072240601117,251.34013973309334L794.133055557167,250.28665511635404L795.8104531705903,256.57184119875706L796.2230765383815,258.04295645093066L796.4797641449234,258.96242875278915L793.2685847639576,259.65805472290435L791.9304713823758,262.5659244992037L790.988021033146,262.16834102676034L790.6261807276435,263.9196909412399L789.5656945254481,262.3360951380081L791.0126131802512,257.7230812380841L794.892002026678,256.8415190676151M785.6600177658395,261.3568516976054L785.0325589347568,262.1303633261117L784.424413363493,261.6791638013581M783.4018638634882,262.3482660977081L781.8186039840916,264.8007035289419L781.0371925539011,264.4237277908353L780.1996502904925,264.62104515469673L776.2691896405745,261.1086613458001M781.0371925539011,264.4237277908353L780.0554881554724,267.8001688342214L778.5183009001696,268.71712705794357L775.1551416360746,267.0312028784041L773.1878076129465,267.07441772514824L771.9925656590826,265.9392689786281L772.6908587897674,264.3202738621445M790.1818767830675,265.38791445591914L789.3242775996091,268.09011556742644L789.5209290774454,264.5012916609635L790.1818767830675,265.38791445591914M797.0059110062118,260.834929405284L795.9201756511197,261.73656965515295L795.0696729600884,265.5883904348709L792.7610961035305,265.95643970305764L791.7341826460589,267.0167964725581L791.2975894213438,265.40098702881346L791.6739129494947,263.044830885907L793.2685847639576,259.65805472290435M785.7371709795693,261.9810838462312L785.1251857784423,262.1463339829471L785.7371709795693,261.9810838462312L787.7128029699846,263.84022432528855L786.3901343140336,264.41482566868024L788.4425326982141,265.1889817917637L787.4073192778317,265.98661717448545L787.7851893182869,267.26834713609173L787.1123832246028,270.12804280200396L787.6940276933121,271.09555144774583L785.3390555542499,270.9084454539187L785.0141169106797,268.3073004009792L784.1308853383456,266.47691219081173L781.8186039840916,264.8007035289419M785.0325589347568,262.1303633261117L785.1251857784423,262.1463339829471M796.4797641449234,258.96242875278915L797.0059110062118,260.834929405284L798.6133349976235,266.55223469290206L799.6030877970534,270.06773041945587L798.639398049517,269.31566692531L796.1843577634031,270.00159242524205L795.0411662282924,268.7680733995171L795.7857537402947,267.795644356062L795.0696729600884,265.5883904348709M785.3390555542499,270.9084454539187L785.4997511989022,272.4844936081272L785.9293574636181,274.75082719873194L784.9623996396786,273.5008786591329L781.719431422094,273.32462995586195L780.7190878573695,274.3932931197203L780.0316110464361,273.1102280123124L780.443777185796,270.7328698336456L781.6404708421248,268.8838316399866L780.0554881554724,267.8001688342214M795.7857537402947,267.795644356062L794.9004973089873,269.34911004846595L795.9441097982667,270.0924117938247L795.3323895370681,272.06889441943804L792.8764229176143,270.5404874735816L790.1984473614352,269.8896907910838L790.8912190410981,267.7785397963122L792.5711022859253,269.32337716094503L791.8612982166387,267.6680029480659L792.7610961035305,265.95643970305764M787.6940276933121,271.09555144774583L788.5510729633575,274.37801346255026L791.0381140157117,276.70362968583663L790.7344027576771,278.048342860071L787.0805161576852,275.9861889384937L785.4997511989022,272.4844936081272M799.982584251881,271.4261134502981L798.5743277808606,273.26850639222505L798.7313034868018,274.342372625656L797.5593960343108,277.936359448022L794.3127727633478,277.2490529191871L793.2508813918207,276.98378438769953L791.4139714286074,274.92332702413864L792.2662356759809,273.47395026732977L791.7299149739886,272.2878276562634L793.2061884103061,271.72241333207126L795.1368785115781,272.4461425435396L796.1843577634031,270.00159242524205M785.9293574636181,274.75082719873194L786.1119487568252,275.5860793453721L784.9932248046932,275.5874385758748L784.1038037593529,278.0615841823495L784.981177295574,280.2499692144987L783.698404317155,280.0618274268786L781.4428914869113,277.5549500604511L779.4154877162321,279.5831177284143L778.009161137154,277.510140985515L780.0316110464361,273.1102280123124M805.5158535704145,272.3148254591259L806.3956252161361,274.0053189604796L805.8422576472578,275.3630869412201L802.3671978712571,276.34889612525853L799.8396087758426,277.1354096057595L798.5459884887123,278.13613544850114L798.13543745618,277.01831161282337L798.7313034868018,274.342372625656M786.1119487568252,275.5860793453721L789.8515409460347,278.202519850213L792.8213895522986,281.0678908133193L793.1148420443144,282.71931715185656L790.9390494458265,281.0945385963564L786.8313375798253,279.51891123020926L786.4776203979728,280.6971637501696L784.1038037593529,278.0615841823495M808.6559178890127,279.8168843913759L808.392613920626,279.9095375665556L808.6559178890127,279.8168843913759M809.3550421954985,271.4746801008747L809.6441917467118,271.4099223470622L809.3550421954985,271.4746801008747M799.6030877970534,270.06773041945587L799.982584251881,271.4261134502981L800.4964534415283,273.2559911379868L805.5158535704145,272.3148254591259L809.1318295037407,271.5246259744383L809.040805701695,272.5476342720581L809.0263848157247,275.4953257442986L807.651489177702,276.639472092863L806.7714088631991,280.47338708191637L803.3956168910004,281.6102201806791L803.3582684978144,281.5862145853995L802.626622129512,280.87974712171126L804.152972952546,279.6129004623119L802.3671978712571,276.34889612525853M797.6132517486677,283.63953533302583L797.5070214676066,283.6683909824544L797.6132517486677,283.63953533302583M797.9397923291232,283.06337419619194L798.2293902220904,283.5173662675278L798.0702947815118,283.54927540262065L797.7803200894364,283.21859989903453L797.9397923291232,283.06337419619194M797.7803200894364,283.21859989903453L797.8339930457089,283.59556737895184L797.7369483801165,283.61730347653565L797.7803200894364,283.21859989903453M803.3582684978144,281.5862145853995L799.7637760008678,283.78231628655976L799.7598359809118,280.95143684035565L799.3562367220075,279.1006537885994L798.1778647542009,280.1772650277487L799.8396087758426,277.1354096057595" style="fill: inherit; stroke: inherit; stroke-width: inherit;" vector-effect="non-scaling-stroke"></path></svg>