<?xml version="1.0" standalone="yes"?>
<svg xmlns="http://www.w3.org/2000/svg" version="1.2" baseProfile="tiny" id="root" viewBox="819.208290242447 73.63869586245869 80.12662416785975 111.39058542364205"><style>
@import url("../../css/svg.css");</style><rect id="bbox" class="bbox" x="819.208290242447" y="73.63869586245869" width="80.12662416785975" height="111.39058542364205"></rect><g id="counties"><path id="county-23003" class="county feature" d="M871.3272511854416,114.67664156238038L868.5260536839828,116.32233901872291L864.0404929723876,118.85012746404482L859.712213939298,104.52674882077281L854.9011911436246,105.68375057054061L853.9371331157544,102.53621398907433L842.8052384577793,105.72491821012636L839.0631115114074,106.77829092662591L838.7723064980313,104.5101975236978L844.377046223786,88.14362426718014L846.760759329825,88.09180002497374L847.7309908261082,91.3222848965878L849.8082835256314,92.0165336268625L853.0234808762307,89.72893422142033L853.1448330615549,88.91566788837065L855.6149138112999,88.17453589085494L855.4362251540447,86.923559062467L856.9990605137057,86.44221142839456L861.2791909638096,88.22551019870025L863.9754476284244,89.91799982079147L870.206472574937,109.89227498945968Z" vector-effect="non-scaling-stroke"><title>Aroostook County</title></path><path id="county-23025" class="county feature" d="M842.8052384577793,105.72491821012636L845.7395226246042,116.47571986359549L847.3565777428607,118.1869269334311L846.8289411765531,120.43631019824682L845.7311862599811,120.9919218196286L847.8649870191741,122.6112065234463L847.3034217287384,124.43204928885314L852.0362343357731,133.41884236084366L855.0747651972642,131.33147631157544L858.0267562505607,137.32391495352044L856.3551498882194,137.18652007627122L855.5681277678925,138.59624801945563L853.4723599363454,139.04965273894095L854.4661577073016,141.16558802963493L850.1385783404689,141.73608305789958L848.9624365832681,140.76960633692124L847.5518722644331,137.5338121994398L846.3551860720899,138.11575451427734L846.1578513779001,136.31615678153435L844.6133325821309,133.2279657496465L842.9941678601572,134.03665316074216L841.2398561332685,133.84358653917354L836.9655504433945,124.90427078307266L838.7379457742828,123.11862451057766L838.0520960689291,122.1640898700424L839.5173351531246,119.90560946812616L838.1849190355947,117.7550265827631L838.532619941638,115.19339341396687L837.6227998715619,114.57626986039338L838.1125571043726,111.3778376046015L839.439445658528,109.71720570081607L839.0631115114074,106.77829092662591Z" vector-effect="non-scaling-stroke"><title>Somerset County</title></path><path id="county-23021" class="county feature" d="M854.9011911436246,105.68375057054061L858.5704083495853,118.42798358078437L857.0057415327573,119.32037402768788L857.7282796310421,122.02535619874004L858.989385733511,121.36841719028223L861.5252130676498,126.20483897706333L860.2844274413224,126.86775093504605L861.0252738842591,128.2522446181298L855.0747651972642,131.33147631157544L852.0362343357731,133.41884236084366L847.3034217287384,124.43204928885314L847.8649870191741,122.6112065234463L845.7311862599811,120.9919218196286L846.8289411765531,120.43631019824682L847.3565777428607,118.1869269334311L845.7395226246042,116.47571986359549L842.8052384577793,105.72491821012636L853.9371331157544,102.53621398907433Z" vector-effect="non-scaling-stroke"><title>Piscataquis County</title></path><path id="county-23019" class="county feature" d="M868.5260536839828,116.32233901872291L871.9151906570903,122.56780138721501L870.5144281378277,123.22889694934054L867.5800070011652,124.770604911551L868.6526422882023,126.81674124897916L867.1444318784389,127.59673208709853L867.8792377510649,129.04693738713047L866.3560910423898,129.82010993376286L868.2317725860858,133.50733146797847L863.9928238125862,136.31655105021343L863.9642895188819,136.33751663053044L863.589894715367,136.0923875355262L859.491830854176,138.4173197387281L858.0267562505607,137.32391495352044L855.0747651972642,131.33147631157544L861.0252738842591,128.2522446181298L860.2844274413224,126.86775093504605L861.5252130676498,126.20483897706333L858.989385733511,121.36841719028223L857.7282796310421,122.02535619874004L857.0057415327573,119.32037402768788L858.5704083495853,118.42798358078437L854.9011911436246,105.68375057054061L859.712213939298,104.52674882077281L864.0404929723876,118.85012746404482Z" vector-effect="non-scaling-stroke"><title>Penobscot County</title></path><path id="county-23029" class="county feature" d="M875.4481215052693,136.462301664365L871.5918879682547,129.07610987649787L873.0572497192594,128.3089247391108L870.5144281378277,123.22889694934054L871.9151906570903,122.56780138721501L868.5260536839828,116.32233901872291L871.3272511854416,114.67664156238038L874.2049748985194,115.24957709234423L876.6438441943785,115.03761234552815L876.176680296187,116.91055545366044L877.6126999990206,118.36907476959436L877.4873393017099,120.55948283170483L880.1932014963925,122.78419331003454L880.506778867109,121.48777942673075L882.2391002548593,121.50735318686043L884.9752098945455,124.666540712146L886.5313988443709,127.06704753869951L884.7492419748148,130.78391696480196L880.7921168316661,132.16158781260117L880.634560744574,134.2990565571164L879.2986680259582,134.04119225603495L879.01937359961,135.55127999352612L877.4837343603124,133.82472988818256L876.8902081377855,134.8324433024834L877.1607234134929,138.02620365653945Z" vector-effect="non-scaling-stroke"><title>Washington County</title></path><path id="county-23007" class="county feature" d="M850.1385783404689,141.73608305789958L848.8503907979172,142.52070385661318L849.3334034900724,144.4040213993552L848.2160638087018,144.6767617921082L846.9611494187234,145.57645473674552L845.869169713526,143.7286137292465L842.6454600570842,143.5036752029747L840.4774589868788,140.82855967632497L838.8192256259138,142.51116352737313L836.740821780914,137.6084559734419L837.2766719099542,137.37866282862478L835.3210786992329,132.8968417380339L834.8395608729685,130.6535278287422L837.2811934958687,130.34224793691794L835.5834419199701,128.3179501471916L836.9655504433945,124.90427078307266L841.2398561332685,133.84358653917354L842.9941678601572,134.03665316074216L844.6133325821309,133.2279657496465L846.1578513779001,136.31615678153435L846.3551860720899,138.11575451427734L847.5518722644331,137.5338121994398L848.9624365832681,140.76960633692124Z" vector-effect="non-scaling-stroke"><title>Franklin County</title></path><path id="county-23017" class="county feature" d="M835.3210786992329,132.8968417380339L837.2766719099542,137.37866282862478L836.740821780914,137.6084559734419L838.8192256259138,142.51116352737313L840.4774589868788,140.82855967632497L842.6454600570842,143.5036752029747L845.869169713526,143.7286137292465L846.9611494187234,145.57645473674552L846.9785352301828,150.39713179517958L845.9925689487641,154.14314275332686L844.1258884651222,154.05303338070632L843.4437107441488,152.14113310926462L841.0063735738072,155.0015093710806L843.3005882701,156.24563295370592L843.150919872732,159.15950891166165L840.6021984355777,160.3102893863013L837.9180711210327,151.43207261006296L835.0043092034302,142.17761995479407L832.0118058083829,133.24162199143984L832.8030555884063,132.2474727040733Z" vector-effect="non-scaling-stroke"><title>Oxford County</title></path><path id="county-23009" class="county feature" d="M868.1023066287961,143.20033379680285L868.974198550045,145.08320943467277L867.4752174681984,144.32152785893413ZM871.8047725377608,138.82234753990713L873.6280787723225,139.54621545810846L872.5025912596213,142.8153849156438L870.843775456737,141.54387190717193ZM875.4481215052693,136.462301664365L875.481497711618,139.76515857448044L874.1551171207543,137.37622389655814L871.0205116543581,137.10356712015425L872.0678007094236,138.0387732263282L870.3266694128197,139.9617505723278L869.9617886576751,138.22224034189526L868.61248427712,140.4132767463867L870.0919554288375,143.410990683333L865.3409697157406,141.3064943393598L865.6218384873505,139.21919039095633L863.9338112746235,137.4823273192253L863.9928238125862,136.31655105021343L868.2317725860858,133.50733146797847L866.3560910423898,129.82010993376286L867.8792377510649,129.04693738713047L867.1444318784389,127.59673208709853L868.6526422882023,126.81674124897916L867.5800070011652,124.770604911551L870.5144281378277,123.22889694934054L873.0572497192594,128.3089247391108L871.5918879682547,129.07610987649787Z" vector-effect="non-scaling-stroke"><title>Hancock County</title></path><path id="county-23027" class="county feature" d="M858.0267562505607,137.32391495352044L859.491830854176,138.4173197387281L863.589894715367,136.0923875355262L863.9642895188819,136.33751663053044L863.7711289948862,138.04354869006033L864.7708643348185,138.40474665879276L865.0132936131852,140.31040920420537L862.7842067445712,141.57959228280595L863.9985582130519,142.7212724025344L863.5253080269176,144.93908334046546L862.3121987377806,145.17276793527276L859.8516424828484,143.7603495591759L858.2495502666775,144.93280168235003L856.9233895937107,145.0252693690676L857.7525819550185,142.56369408134674L856.8410103106015,139.25478133390538L855.5681277678925,138.59624801945563L856.3551498882194,137.18652007627122Z" vector-effect="non-scaling-stroke"><title>Waldo County</title></path><path id="county-23011" class="county feature" d="M856.9233895937107,145.0252693690676L856.7280670245152,146.65601876623555L855.4132727460528,146.6866511342364L856.1370167223381,149.54532621792885L854.7746578793801,149.60988272728753L854.7398994426112,149.6103165252522L853.3540101450567,149.44788785734204L853.1108468857913,150.68769529697272L851.6402255487815,150.77284322521484L850.3230709729834,149.55315374813517L848.2160638087018,144.6767617921082L849.3334034900724,144.4040213993552L848.8503907979172,142.52070385661318L850.1385783404689,141.73608305789958L854.4661577073016,141.16558802963493L853.4723599363454,139.04965273894095L855.5681277678925,138.59624801945563L856.8410103106015,139.25478133390538L857.7525819550185,142.56369408134674Z" vector-effect="non-scaling-stroke"><title>Kennebec County</title></path><path id="county-23001" class="county feature" d="M851.6402255487815,150.77284322521484L852.0278483043548,153.56020300602586L851.3165711362134,155.10482988016736L848.0840356743096,153.45501744494175L847.7198796638854,154.5523494398616L845.9925689487641,154.14314275332686L846.9785352301828,150.39713179517958L846.9611494187234,145.57645473674552L848.2160638087018,144.6767617921082L850.3230709729834,149.55315374813517Z" vector-effect="non-scaling-stroke"><title>Androscoggin County</title></path><path id="county-23013" class="county feature" d="M863.5253080269176,144.93908334046546L863.462796241472,148.28965279257966L864.0081429374582,148.7380016177234L862.7997860134519,151.36591397181257L860.6739797813614,151.31719692338265L860.5979749488438,150.35842956037186L861.3229487562994,149.4411037226937L859.7795228939128,146.80652032062676L858.8980818127337,147.03396288901342L858.2495502666775,144.93280168235003L859.8516424828484,143.7603495591759L862.3121987377806,145.17276793527276Z" vector-effect="non-scaling-stroke"><title>Knox County</title></path><path id="county-23015" class="county feature" d="M856.9233895937107,145.0252693690676L858.2495502666775,144.93280168235003L858.8980818127337,147.03396288901342L859.7795228939128,146.80652032062676L861.3229487562994,149.4411037226937L860.5979749488438,150.35842956037186L859.8720879638358,149.3636900831424L859.5707466763478,154.1178308379591L858.5547932408933,153.24357632506565L857.4153509199552,154.40814785070006L856.7049001874938,151.43612073811346L856.2127254255126,153.06225918945313L856.1666334823533,151.79113119618626L854.7204311750079,151.84939213262305L854.7746578793801,149.60988272728753L856.1370167223381,149.54532621792885L855.4132727460528,146.6866511342364L856.7280670245152,146.65601876623555Z" vector-effect="non-scaling-stroke"><title>Lincoln County</title></path><path id="county-23005" class="county feature" d="M845.9925689487641,154.14314275332686L847.7198796638854,154.5523494398616L848.0840356743096,153.45501744494175L851.3165711362134,155.10482988016736L852.0278483043548,153.56020300602586L853.7616944428256,154.15048670072736L854.334905352815,153.43658676602502L854.4217281601361,154.47089435062526L854.7647839315323,156.43344851458448L853.7047451621836,155.2272666969459L851.4660812818995,157.14487250246657L850.666852336064,159.79524231128914L851.9831972592417,161.5720936440864L850.1032293776473,162.66472321749336L847.9492866328158,161.87376875748419L846.6582586613841,160.10848112566543L845.2813918562958,160.6702537476068L844.8691107296918,159.10585819607036L843.150919872732,159.15950891166165L843.3005882701,156.24563295370592L841.0063735738072,155.0015093710806L843.4437107441488,152.14113310926462L844.1258884651222,154.05303338070632Z" vector-effect="non-scaling-stroke"><title>Cumberland County</title></path><path id="county-23023" class="county feature" d="M854.4217281601361,154.47089435062526L854.334905352815,153.43658676602502L854.6630237870464,152.9003511605415L856.4967481418555,156.80149851672422L855.7236736738753,157.80829839061516ZM856.5619321028437,156.39463509731206L856.415671896141,156.4266327120215L854.650747809381,152.7154937497354L854.7204311750079,151.84939213262305L856.1666334823533,151.79113119618626L856.2127254255126,153.06225918945313L855.7835962351621,154.08818695670504L856.9977875255981,155.08799494477455ZM854.7398994426112,149.6103165252522L854.5673111913039,152.29651570537476L853.7616944428256,154.15048670072736L852.0278483043548,153.56020300602586L851.6402255487815,150.77284322521484L853.1108468857913,150.68769529697272L853.3540101450567,149.44788785734204Z" vector-effect="non-scaling-stroke"><title>Sagadahoc County</title></path><path id="county-23031" class="county feature" d="M850.1032293776473,162.66472321749336L849.8985938113142,166.23661806735106L848.5990037452423,167.16381363328878L848.2556874427626,172.22576572016487L845.8888016331716,171.62909655945919L845.7034947849771,169.90623688704466L842.6312305262306,167.71145009642055L842.1632746181313,164.7289774817467L840.6021984355777,160.3102893863013L843.150919872732,159.15950891166165L844.8691107296918,159.10585819607036L845.2813918562958,160.6702537476068L846.6582586613841,160.10848112566543L847.9492866328158,161.87376875748419Z" vector-effect="non-scaling-stroke"><title>York County</title></path></g><path id="counties-mesh" class="counties mesh" d="M842.8052384577793,105.72491821012636L845.7395226246042,116.47571986359549L847.3565777428607,118.1869269334311L846.8289411765531,120.43631019824682L845.7311862599811,120.9919218196286L847.8649870191741,122.6112065234463L847.3034217287384,124.43204928885314L852.0362343357731,133.41884236084366L855.0747651972642,131.33147631157544L858.0267562505607,137.32391495352044L856.3551498882194,137.18652007627122L855.5681277678925,138.59624801945563L853.4723599363454,139.04965273894095L854.4661577073016,141.16558802963493L850.1385783404689,141.73608305789958L848.9624365832681,140.76960633692124L847.5518722644331,137.5338121994398L846.3551860720899,138.11575451427734L846.1578513779001,136.31615678153435L844.6133325821309,133.2279657496465L842.9941678601572,134.03665316074216L841.2398561332685,133.84358653917354L836.9655504433945,124.90427078307266L838.7379457742828,123.11862451057766L838.0520960689291,122.1640898700424L839.5173351531246,119.90560946812616L838.1849190355947,117.7550265827631L838.532619941638,115.19339341396687L837.6227998715619,114.57626986039338L838.1125571043726,111.3778376046015L839.439445658528,109.71720570081607L839.0631115114074,106.77829092662591M854.9011911436246,105.68375057054061L858.5704083495853,118.42798358078437L857.0057415327573,119.32037402768788L857.7282796310421,122.02535619874004L858.989385733511,121.36841719028223L861.5252130676498,126.20483897706333L860.2844274413224,126.86775093504605L861.0252738842591,128.2522446181298L855.0747651972642,131.33147631157544M868.5260536839828,116.32233901872291L871.9151906570903,122.56780138721501L870.5144281378277,123.22889694934054L867.5800070011652,124.770604911551L868.6526422882023,126.81674124897916L867.1444318784389,127.59673208709853L867.8792377510649,129.04693738713047L866.3560910423898,129.82010993376286L868.2317725860858,133.50733146797847L863.9928238125862,136.31655105021343L863.9642895188819,136.33751663053044L863.589894715367,136.0923875355262L859.491830854176,138.4173197387281L858.0267562505607,137.32391495352044M871.3272511854416,114.67664156238038L868.5260536839828,116.32233901872291L864.0404929723876,118.85012746404482L859.712213939298,104.52674882077281L854.9011911436246,105.68375057054061L853.9371331157544,102.53621398907433L842.8052384577793,105.72491821012636L839.0631115114074,106.77829092662591L838.7723064980313,104.5101975236978L844.377046223786,88.14362426718014L846.760759329825,88.09180002497374L847.7309908261082,91.3222848965878L849.8082835256314,92.0165336268625L853.0234808762307,89.72893422142033L853.1448330615549,88.91566788837065L855.6149138112999,88.17453589085494L855.4362251540447,86.923559062467L856.9990605137057,86.44221142839456L861.2791909638096,88.22551019870025L863.9754476284244,89.91799982079147L870.206472574937,109.89227498945968L871.3272511854416,114.67664156238038L874.2049748985194,115.24957709234423L876.6438441943785,115.03761234552815L876.176680296187,116.91055545366044L877.6126999990206,118.36907476959436L877.4873393017099,120.55948283170483L880.1932014963925,122.78419331003454L880.506778867109,121.48777942673075L882.2391002548593,121.50735318686043L884.9752098945455,124.666540712146L886.5313988443709,127.06704753869951L884.7492419748148,130.78391696480196L880.7921168316661,132.16158781260117L880.634560744574,134.2990565571164L879.2986680259582,134.04119225603495L879.01937359961,135.55127999352612L877.4837343603124,133.82472988818256L876.8902081377855,134.8324433024834L877.1607234134929,138.02620365653945L875.4481215052693,136.462301664365L871.5918879682547,129.07610987649787L873.0572497192594,128.3089247391108L870.5144281378277,123.22889694934054M850.1385783404689,141.73608305789958L848.8503907979172,142.52070385661318L849.3334034900724,144.4040213993552L848.2160638087018,144.6767617921082L846.9611494187234,145.57645473674552L845.869169713526,143.7286137292465L842.6454600570842,143.5036752029747L840.4774589868788,140.82855967632497L838.8192256259138,142.51116352737313L836.740821780914,137.6084559734419L837.2766719099542,137.37866282862478L835.3210786992329,132.8968417380339L834.8395608729685,130.6535278287422L837.2811934958687,130.34224793691794L835.5834419199701,128.3179501471916L836.9655504433945,124.90427078307266M846.9611494187234,145.57645473674552L846.9785352301828,150.39713179517958L845.9925689487641,154.14314275332686L844.1258884651222,154.05303338070632L843.4437107441488,152.14113310926462L841.0063735738072,155.0015093710806L843.3005882701,156.24563295370592L843.150919872732,159.15950891166165L840.6021984355777,160.3102893863013L837.9180711210327,151.43207261006296L835.0043092034302,142.17761995479407L832.0118058083829,133.24162199143984L832.8030555884063,132.2474727040733L835.3210786992329,132.8968417380339M868.1023066287961,143.20033379680285L868.974198550045,145.08320943467277L867.4752174681984,144.32152785893413L868.1023066287961,143.20033379680285M871.8047725377608,138.82234753990713L873.6280787723225,139.54621545810846L872.5025912596213,142.8153849156438L870.843775456737,141.54387190717193L871.8047725377608,138.82234753990713M875.4481215052693,136.462301664365L875.481497711618,139.76515857448044L874.1551171207543,137.37622389655814L871.0205116543581,137.10356712015425L872.0678007094236,138.0387732263282L870.3266694128197,139.9617505723278L869.9617886576751,138.22224034189526L868.61248427712,140.4132767463867L870.0919554288375,143.410990683333L865.3409697157406,141.3064943393598L865.6218384873505,139.21919039095633L863.9338112746235,137.4823273192253L863.9928238125862,136.31655105021343M863.9642895188819,136.33751663053044L863.7711289948862,138.04354869006033L864.7708643348185,138.40474665879276L865.0132936131852,140.31040920420537L862.7842067445712,141.57959228280595L863.9985582130519,142.7212724025344L863.5253080269176,144.93908334046546L862.3121987377806,145.17276793527276L859.8516424828484,143.7603495591759L858.2495502666775,144.93280168235003L856.9233895937107,145.0252693690676L857.7525819550185,142.56369408134674L856.8410103106015,139.25478133390538L855.5681277678925,138.59624801945563M856.9233895937107,145.0252693690676L856.7280670245152,146.65601876623555L855.4132727460528,146.6866511342364L856.1370167223381,149.54532621792885L854.7746578793801,149.60988272728753L854.7398994426112,149.6103165252522L853.3540101450567,149.44788785734204L853.1108468857913,150.68769529697272L851.6402255487815,150.77284322521484L850.3230709729834,149.55315374813517L848.2160638087018,144.6767617921082M851.6402255487815,150.77284322521484L852.0278483043548,153.56020300602586L851.3165711362134,155.10482988016736L848.0840356743096,153.45501744494175L847.7198796638854,154.5523494398616L845.9925689487641,154.14314275332686M863.5253080269176,144.93908334046546L863.462796241472,148.28965279257966L864.0081429374582,148.7380016177234L862.7997860134519,151.36591397181257L860.6739797813614,151.31719692338265L860.5979749488438,150.35842956037186L861.3229487562994,149.4411037226937L859.7795228939128,146.80652032062676L858.8980818127337,147.03396288901342L858.2495502666775,144.93280168235003M860.5979749488438,150.35842956037186L859.8720879638358,149.3636900831424L859.5707466763478,154.1178308379591L858.5547932408933,153.24357632506565L857.4153509199552,154.40814785070006L856.7049001874938,151.43612073811346L856.2127254255126,153.06225918945313L856.1666334823533,151.79113119618626L854.7204311750079,151.84939213262305L854.7746578793801,149.60988272728753M850.1032293776473,162.66472321749336L849.8985938113142,166.23661806735106L848.5990037452423,167.16381363328878L848.2556874427626,172.22576572016487L845.8888016331716,171.62909655945919L845.7034947849771,169.90623688704466L842.6312305262306,167.71145009642055L842.1632746181313,164.7289774817467L840.6021984355777,160.3102893863013M852.0278483043548,153.56020300602586L853.7616944428256,154.15048670072736L854.334905352815,153.43658676602502L854.4217281601361,154.47089435062526L854.7647839315323,156.43344851458448L853.7047451621836,155.2272666969459L851.4660812818995,157.14487250246657L850.666852336064,159.79524231128914L851.9831972592417,161.5720936440864L850.1032293776473,162.66472321749336L847.9492866328158,161.87376875748419L846.6582586613841,160.10848112566543L845.2813918562958,160.6702537476068L844.8691107296918,159.10585819607036L843.150919872732,159.15950891166165M854.334905352815,153.43658676602502L854.6630237870464,152.9003511605415L856.4967481418555,156.80149851672422L855.7236736738753,157.80829839061516L854.4217281601361,154.47089435062526M856.2127254255126,153.06225918945313L855.7835962351621,154.08818695670504L856.9977875255981,155.08799494477455L856.5619321028437,156.39463509731206L856.415671896141,156.4266327120215L854.650747809381,152.7154937497354L854.7204311750079,151.84939213262305M854.7398994426112,149.6103165252522L854.5673111913039,152.29651570537476L853.7616944428256,154.15048670072736" vector-effect="non-scaling-stroke"></path></svg>