<svg xmlns="http://www.w3.org/2000/svg" version="1.2" id="root" viewBox="832.0118058083829 86.44221142839456 54.51959303598801 85.78355429177032"><g id="counties"><path id="county-23003" class="county feature" d="M871.327 114.677l-2.8 1.645-4.487 2.528-4.328-14.323-4.81 1.157-.965-3.148-11.132 3.189-3.742 1.053-.29-2.268 5.604-16.366 2.384-.052.97 3.23 2.077.695 3.215-2.288.122-.813 2.47-.741-.179-1.251 1.563-.482 4.28 1.784 2.696 1.692 6.231 19.974z" vector-effect="non-scaling-stroke" fill="inherit" stroke="inherit" stroke-width="inherit"><title>Aroostook County</title></path><path id="county-23025" class="county feature" d="M842.805 105.725l2.935 10.75 1.617 1.712-.528 2.25-1.098.555 2.134 1.62-.562 1.82 4.733 8.987 3.039-2.088 2.952 5.993-1.672-.137-.787 1.41-2.096.453.994 2.116-4.327.57-1.177-.966-1.41-3.236-1.197.582-.197-1.8-1.545-3.088-1.619.809-1.754-.193-4.274-8.94 1.772-1.785-.686-.955 1.465-2.258-1.332-2.151.348-2.562-.91-.617.49-3.198 1.326-1.66-.376-2.94z" vector-effect="non-scaling-stroke" fill="inherit" stroke="inherit" stroke-width="inherit"><title>Somerset County</title></path><path id="county-23021" class="county feature" d="M854.901 105.684l3.67 12.744-1.565.892.722 2.705 1.261-.657 2.536 4.837-1.24.663.74 1.384-5.95 3.08-3.039 2.087-4.733-8.987.562-1.82-2.134-1.62 1.098-.556.528-2.25-1.617-1.71-2.935-10.751 11.132-3.189z" vector-effect="non-scaling-stroke" fill="inherit" stroke="inherit" stroke-width="inherit"><title>Piscataquis County</title></path><path id="county-23019" class="county feature" d="M868.526 116.322l3.39 6.246-1.402.66-2.934 1.543 1.073 2.046-1.509.78.735 1.45-1.523.773 1.876 3.687-4.24 2.81-.028.02-.374-.245-4.098 2.325-1.465-1.093-2.952-5.993 5.95-3.079-.74-1.384 1.24-.663-2.536-4.837-1.26.657-.723-2.705 1.564-.892-3.669-12.744 4.811-1.157 4.328 14.323z" vector-effect="non-scaling-stroke" fill="inherit" stroke="inherit" stroke-width="inherit"><title>Penobscot County</title></path><path id="county-23029" class="county feature" d="M875.448 136.462l-3.856-7.386 1.465-.767-2.543-5.08 1.401-.661-3.389-6.246 2.801-1.645 2.878.573 2.439-.212-.467 1.873 1.436 1.458-.126 2.19 2.706 2.225.314-1.296 1.732.02 2.736 3.159 1.556 2.4-1.782 3.717-3.957 1.378-.157 2.137-1.336-.258-.28 1.51-1.535-1.726-.594 1.007.27 3.194z" vector-effect="non-scaling-stroke" fill="inherit" stroke="inherit" stroke-width="inherit"><title>Washington County</title></path><path id="county-23007" class="county feature" d="M850.139 141.736l-1.289.785.483 1.883-1.117.273-1.255.9-1.092-1.848-3.224-.225-2.168-2.675-1.658 1.682-2.078-4.903.536-.23-1.956-4.481-.481-2.243 2.441-.312-1.698-2.024 1.383-3.414 4.274 8.94 1.754.193 1.62-.809 1.544 3.088.197 1.8 1.197-.582 1.41 3.236z" vector-effect="non-scaling-stroke" fill="inherit" stroke="inherit" stroke-width="inherit"><title>Franklin County</title></path><path id="county-23017" class="county feature" d="M835.321 132.897l1.956 4.482-.536.23 2.078 4.902 1.658-1.682 2.168 2.675 3.224.225 1.092 1.847.018 4.821-.986 3.746-1.867-.09-.682-1.912-2.438 2.86 2.295 1.245-.15 2.914-2.549 1.15-2.684-8.878-2.914-9.254-2.992-8.936.791-.995z" vector-effect="non-scaling-stroke" fill="inherit" stroke="inherit" stroke-width="inherit"><title>Oxford County</title></path><path id="county-23009" class="county feature" d="M868.102 143.2l.872 1.883-1.499-.761zm3.703-4.378l1.823.724-1.125 3.27-1.66-1.272zm3.643-2.36l.033 3.303-1.326-2.389-3.134-.272 1.047.935-1.741 1.923-.365-1.74-1.35 2.191 1.48 2.998-4.751-2.105.28-2.087-1.687-1.737.059-1.165 4.239-2.81-1.876-3.687 1.523-.773-.735-1.45 1.509-.78-1.073-2.046 2.934-1.542 2.543 5.08-1.465.767z" vector-effect="non-scaling-stroke" fill="inherit" stroke="inherit" stroke-width="inherit"><title>Hancock County</title></path><path id="county-23027" class="county feature" d="M858.027 137.324l1.465 1.093 4.098-2.325.374.246-.193 1.706 1 .36.242 1.906-2.229 1.27L864 142.72l-.474 2.218-1.213.234-2.46-1.413-1.602 1.173-1.327.092.83-2.461-.912-3.31-1.273-.658.787-1.41z" vector-effect="non-scaling-stroke" fill="inherit" stroke="inherit" stroke-width="inherit"><title>Waldo County</title></path><path id="county-23011" class="county feature" d="M856.923 145.025l-.195 1.631-1.315.03.724 2.86-1.362.064h-.035l-1.386-.162-.243 1.24-1.47.085-1.318-1.22-2.107-4.876 1.117-.273-.483-1.883 1.289-.785 4.327-.57-.994-2.116 2.096-.454 1.273.659.912 3.309z" vector-effect="non-scaling-stroke" fill="inherit" stroke="inherit" stroke-width="inherit"><title>Kennebec County</title></path><path id="county-23001" class="county feature" d="M851.64 150.773l.388 2.787-.711 1.545-3.233-1.65-.364 1.097-1.727-.409.986-3.746-.018-4.82 1.255-.9 2.107 4.876z" vector-effect="non-scaling-stroke" fill="inherit" stroke="inherit" stroke-width="inherit"><title>Androscoggin County</title></path><path id="county-23013" class="county feature" d="M863.525 144.94l-.062 3.35.545.448-1.208 2.628-2.126-.049-.076-.959.725-.917-1.543-2.634-.882.227-.648-2.101 1.602-1.173 2.46 1.413z" vector-effect="non-scaling-stroke" fill="inherit" stroke="inherit" stroke-width="inherit"><title>Knox County</title></path><path id="county-23015" class="county feature" d="M856.923 145.025l1.327-.092.648 2.101.882-.227 1.543 2.634-.725.917-.726-.994-.301 4.754-1.016-.874-1.14 1.164-.71-2.972-.492 1.626-.046-1.27-1.447.057.055-2.24 1.362-.064-.724-2.858 1.315-.031z" vector-effect="non-scaling-stroke" fill="inherit" stroke="inherit" stroke-width="inherit"><title>Lincoln County</title></path><path id="county-23005" class="county feature" d="M845.993 154.143l1.727.41.364-1.098 3.233 1.65.71-1.545 1.735.59.573-.713.087 1.034.343 1.962-1.06-1.206-2.239 1.918-.8 2.65 1.317 1.777-1.88 1.093-2.154-.791-1.29-1.766-1.378.562-.412-1.564-1.718.054.15-2.914-2.295-1.244 2.438-2.86.682 1.911z" vector-effect="non-scaling-stroke" fill="inherit" stroke="inherit" stroke-width="inherit"><title>Cumberland County</title></path><path id="county-23023" class="county feature" d="M854.422 154.47l-.087-1.033.328-.537 1.834 3.901-.773 1.007zm2.14 1.925l-.146.032-1.765-3.712.07-.866 1.446-.058.046 1.271-.43 1.026 1.215 1zm-1.822-6.785l-.173 2.687-.805 1.853-1.734-.59-.388-2.787 1.47-.085.244-1.24z" vector-effect="non-scaling-stroke" fill="inherit" stroke="inherit" stroke-width="inherit"><title>Sagadahoc County</title></path><path id="county-23031" class="county feature" d="M850.103 162.665l-.204 3.572-1.3.927-.343 5.062-2.367-.597-.186-1.723-3.072-2.195-.468-2.982-1.56-4.419 2.548-1.15 1.718-.054.412 1.564 1.377-.562 1.291 1.766z" vector-effect="non-scaling-stroke" fill="inherit" stroke="inherit" stroke-width="inherit"><title>York County</title></path></g><path id="counties-mesh" class="counties mesh" d="M842.805 105.725l2.935 10.75 1.617 1.712-.528 2.25-1.098.555 2.134 1.62-.562 1.82 4.733 8.987 3.039-2.088 2.952 5.993-1.672-.137-.787 1.41-2.096.453.994 2.116-4.327.57-1.177-.966-1.41-3.236-1.197.582-.197-1.8-1.545-3.088-1.619.809-1.754-.193-4.274-8.94 1.772-1.785-.686-.955 1.465-2.258-1.332-2.151.348-2.562-.91-.617.49-3.198 1.326-1.66-.376-2.94m15.838-1.094l3.67 12.744-1.565.892.722 2.705 1.261-.657 2.536 4.837-1.24.663.74 1.384-5.95 3.08m13.451-15.01l3.39 6.246-1.402.66-2.934 1.543 1.073 2.046-1.509.78.735 1.45-1.523.773 1.876 3.687-4.24 2.81-.028.02-.374-.245-4.098 2.325-1.465-1.093m13.3-22.647l-2.8 1.645-4.487 2.528-4.328-14.323-4.81 1.157-.965-3.148-11.132 3.189-3.742 1.053-.29-2.268 5.604-16.366 2.384-.052.97 3.23 2.077.695 3.215-2.288.122-.813 2.47-.741-.179-1.251 1.563-.482 4.28 1.784 2.696 1.692 6.231 19.974 1.121 4.785 2.878.573 2.439-.212-.467 1.873 1.436 1.458-.126 2.19 2.706 2.225.314-1.296 1.732.02 2.736 3.159 1.556 2.4-1.782 3.717-3.957 1.378-.157 2.137-1.336-.258-.28 1.51-1.535-1.726-.594 1.007.27 3.194-1.712-1.564-3.856-7.386 1.465-.767-2.543-5.08m-20.375 18.507l-1.289.785.483 1.883-1.117.273-1.255.9-1.092-1.848-3.224-.225-2.168-2.675-1.658 1.682-2.078-4.903.536-.23-1.956-4.481-.481-2.243 2.441-.312-1.698-2.024 1.383-3.414m9.995 20.672l.018 4.821-.986 3.746-1.867-.09-.682-1.912-2.438 2.86 2.295 1.245-.15 2.914-2.549 1.15-2.684-8.878-2.914-9.254-2.992-8.936.791-.995 2.518.65m32.781 10.303l.872 1.883-1.499-.761.627-1.122m3.703-4.378l1.823.724-1.125 3.27-1.66-1.272.962-2.722m3.643-2.36l.033 3.303-1.326-2.389-3.134-.272 1.047.935-1.741 1.923-.365-1.74-1.35 2.191 1.48 2.998-4.751-2.105.28-2.087-1.687-1.737.059-1.165m-.029.02l-.193 1.707 1 .36.242 1.906-2.229 1.27L864 142.72l-.474 2.218-1.213.234-2.46-1.413-1.602 1.173-1.327.092.83-2.461-.912-3.31-1.273-.658m1.355 6.43l-.195 1.63-1.315.03.724 2.86-1.362.064h-.035l-1.386-.162-.243 1.24-1.47.085-1.318-1.22-2.107-4.876m3.424 6.096l.388 2.787-.711 1.545-3.233-1.65-.364 1.097-1.727-.409m17.532-9.204l-.062 3.35.545.449-1.208 2.628-2.126-.049-.076-.959.725-.917-1.543-2.634-.882.227-.648-2.101m2.348 5.425l-.726-.994-.301 4.754-1.016-.874-1.14 1.164-.71-2.972-.492 1.626-.046-1.27-1.447.057.055-2.24m-4.672 13.056l-.204 3.572-1.3.927-.343 5.062-2.367-.597-.186-1.723-3.072-2.195-.468-2.982-1.56-4.419m11.425-6.75l1.734.59.573-.713.087 1.034.343 1.962-1.06-1.206-2.239 1.918-.8 2.65 1.317 1.777-1.88 1.093-2.154-.791-1.29-1.766-1.378.562-.412-1.564-1.718.054m11.184-5.723l.328-.537 1.834 3.901-.773 1.007-1.302-3.337m1.79-1.409l-.428 1.026 1.214 1-.436 1.307-.146.032-1.765-3.712.07-.866m.019-2.239l-.173 2.687-.805 1.853" vector-effect="non-scaling-stroke" fill="inherit" stroke="inherit" stroke-width="inherit"/></svg>