<?xml version="1.0" standalone="yes"?>
<svg xmlns="http://www.w3.org/2000/svg" version="1.2" id="root" viewBox="573.4935819632558 111.38764495476481 126.10682324580732 131.89919047232584"><style>
@import url("../../css/svg.css");</style><rect id="bbox" class="bbox" x="573.4935819632558" y="111.38764495476481" width="126.10682324580732" height="131.89919047232584"></rect><g id="counties"><path id="county-26131" class="county feature" d="M599.0553467609694,151.75170941844237L599.1832836677607,153.35751980907594L594.3479422059411,153.7112055375178L594.1235425464477,150.50173407459465L589.2995524297376,150.83647074813564L589.1977489643056,149.22268211275377L587.6014806439571,149.31589823881222L587.0854876188072,146.12088003436372L588.3130387136472,145.04589201334238L593.0374047514797,144.27377472462354L595.2169717190329,142.92986628267613L596.6370421802743,141.21077637727137L598.9540680267928,140.34966945114263L599.3299393236025,145.27160612078626L600.3238324335214,146.8097835935322L598.721180480545,146.91523947676558Z" style="fill: inherit; stroke: inherit; stroke-width: inherit;" vector-effect="non-scaling-stroke"><title>Ontonagon County</title></path><path id="county-26013" class="county feature" d="M610.4700194583902,141.6645001588796L610.6977887594592,144.3793469675354L611.5126150290143,145.92151410515999L609.9225101561013,146.0688120581509L610.312402790462,150.86997611220886L603.0650881640943,151.44084663615945L602.4561176816416,143.43030437668574L604.0806702568539,143.30382673253473L603.9452972308961,141.6973486026401L605.2368865595192,141.58622623906274L605.301955394393,145.07662398470347L607.9425849460013,141.50913205397546Z" style="fill: inherit; stroke: inherit; stroke-width: inherit;" vector-effect="non-scaling-stroke"><title>Baraga County</title></path><path id="county-26053" class="county feature" d="M599.1832836677607,153.35751980907594L599.5026707348383,157.74348456274845L598.1420425714308,157.07319270901507L587.1196896286117,154.81489408734637L587.1382493012693,155.03232717478647L584.6076704107228,154.27915906813973L582.9861266175214,151.15233119573497L580.5282054551132,150.26241288610026L585.4380900510598,147.90220467317556L587.0854876188072,146.12088003436372L587.6014806439571,149.31589823881222L589.1977489643056,149.22268211275377L589.2995524297376,150.83647074813564L594.1235425464477,150.50173407459465L594.3479422059411,153.7112055375178Z" style="fill: inherit; stroke: inherit; stroke-width: inherit;" vector-effect="non-scaling-stroke"><title>Gogebic County</title></path><path id="county-26095" class="county feature" d="M646.5855249684762,141.01684352732104L647.658873136041,150.45537408249913L639.5934217695246,151.35973453374925L639.0777870384666,146.54260892549735L638.7155574207878,143.11525899783794L643.6245876609092,142.75371891748523Z" style="fill: inherit; stroke: inherit; stroke-width: inherit;" vector-effect="non-scaling-stroke"><title>Luce County</title></path><path id="county-26153" class="county feature" d="M639.0777870384666,146.54260892549735L639.5934217695246,151.35973453374925L640.1371375384499,156.48302828181068L639.615693796262,157.44550941610373L637.6122017681357,156.8282303135237L634.4621181733421,157.98863597374122L633.984981121562,160.5415099006043L632.8384296997535,161.20158228417972L632.1925493584235,158.65672699416098L631.7048986256957,153.79929227848197L630.0883504228266,153.9494378709236L629.7676649447217,150.71220367653052L632.9923470389622,150.41361201396944L632.6645219987204,147.19092350844267Z" style="fill: inherit; stroke: inherit; stroke-width: inherit;" vector-effect="non-scaling-stroke"><title>Schoolcraft County</title></path><path id="county-26071" class="county feature" d="M603.0650881640943,151.44084663615945L610.312402790462,150.86997611220886L610.5654757377665,154.08223270756264L611.0767668558368,160.12034158277652L607.1070096977994,159.43888157257925L605.5286878819634,158.70696829267786L603.6009895600481,158.99081190830918L600.2876228285752,158.1270935507356L599.5026707348383,157.74348456274845L599.1832836677607,153.35751980907594L599.0553467609694,151.75170941844237Z" style="fill: inherit; stroke: inherit; stroke-width: inherit;" vector-effect="non-scaling-stroke"><title>Iron County</title></path><path id="county-26043" class="county feature" d="M617.4456535007791,158.36841408475118L617.5888820204527,159.98811852667495L616.5561222230551,160.07900794975808L616.8378434009362,163.3492600096979L614.8979274260745,163.52567287867157L612.0639643469322,162.67769994492426L611.0004668836594,161.96778127510152L611.0767668558368,160.12034158277652L610.5654757377665,154.08223270756264L617.0415337696307,153.53471350587938Z" style="fill: inherit; stroke: inherit; stroke-width: inherit;" vector-effect="non-scaling-stroke"><title>Dickinson County</title></path><path id="county-26109" class="county feature" d="M620.6752751128948,158.09162551082784L621.3660714498328,159.65229295694485L621.9348424474971,166.1245558765704L622.7535998202842,166.05641634481879L620.9401077677198,171.02771469568563L618.9009315795532,174.82547426939436L617.1059061914223,173.17177406604787L618.1086811029413,170.41077399454036L614.9631676909045,170.4391457523784L615.9588839486712,167.58308910806886L615.3157939377759,166.52210758561864L615.8258609445454,164.36229296429963L614.8979274260745,163.52567287867157L616.8378434009362,163.3492600096979L616.5561222230551,160.07900794975808L617.5888820204527,159.98811852667495L617.4456535007791,158.36841408475118Z" style="fill: inherit; stroke: inherit; stroke-width: inherit;" vector-effect="non-scaling-stroke"><title>Menominee County</title></path><path id="county-26031" class="county feature" d="M662.3644922715137,160.33230548918084L661.7553989491228,160.4121747030456L662.8097423444364,168.3243011499818L661.2405644144583,168.51732768440252L656.4360218508991,169.04027116757663L656.266050499228,167.41374500966197L655.1655222231584,158.17408205280003L658.9625866526285,160.24984847035387Z" style="fill: inherit; stroke: inherit; stroke-width: inherit;" vector-effect="non-scaling-stroke"><title>Cheboygan County</title></path><path id="county-26141" class="county feature" d="M673.976003588401,166.72826179600736L667.5684852070299,167.66178124915052L662.8097423444364,168.3243011499818L661.7553989491228,160.4121747030456L662.3644922715137,160.33230548918084L663.8574389155011,162.3953137954726L666.5306037965413,162.4486263952108L668.4756184859986,163.67528890546487L671.2111769432314,164.45090625637624L672.2062676506739,164.1455494751168L673.9108658891676,165.56319154205005Z" style="fill: inherit; stroke: inherit; stroke-width: inherit;" vector-effect="non-scaling-stroke"><title>Presque Isle County</title></path><path id="county-26009" class="county feature" d="M655.0149499150887,170.81312241608146L655.7124632635166,175.59996890284083L649.8711865954228,176.24840981445334L649.432556009722,177.18480882007998L647.9000701573834,176.46277297024812L648.4059562094029,171.66262114009567L647.8823534411471,169.91893908598763L650.034433667995,169.71618108366727L650.2200469215225,171.34624027789687Z" style="fill: inherit; stroke: inherit; stroke-width: inherit;" vector-effect="non-scaling-stroke"><title>Antrim County</title></path><path id="county-26137" class="county feature" d="M661.2405644144583,168.51732768440252L661.9593482824623,174.9043878866088L655.7124632635166,175.59996890284083L655.0149499150887,170.81312241608146L656.6235576403117,170.65497045100255L656.4360218508991,169.04027116757663Z" style="fill: inherit; stroke: inherit; stroke-width: inherit;" vector-effect="non-scaling-stroke"><title>Otsego County</title></path><path id="county-26119" class="county feature" d="M667.5684852070299,167.66178124915052L668.2956195635098,174.0795466331448L661.9593482824623,174.9043878866088L661.2405644144583,168.51732768440252L662.8097423444364,168.3243011499818Z" style="fill: inherit; stroke: inherit; stroke-width: inherit;" vector-effect="non-scaling-stroke"><title>Montmorency County</title></path><path id="county-26001" class="county feature" d="M675.7221374111566,173.07001037208659L676.7337351810481,175.67593058955424L676.6183837870226,179.49768329321364L669.1460887777256,180.5296537990837L668.2956195635098,174.0795466331448Z" style="fill: inherit; stroke: inherit; stroke-width: inherit;" vector-effect="non-scaling-stroke"><title>Alcona County</title></path><path id="county-26079" class="county feature" d="M655.7124632635166,175.59996890284083L656.4253601064048,182.05469452244074L650.0426403537033,182.76814361704714L649.432556009722,177.18480882007998L649.8711865954228,176.24840981445334Z" style="fill: inherit; stroke: inherit; stroke-width: inherit;" vector-effect="non-scaling-stroke"><title>Kalkaska County</title></path><path id="county-26039" class="county feature" d="M661.9593482824623,174.9043878866088L662.7680250990118,181.36391841812554L656.4253601064048,182.05469452244074L655.7124632635166,175.59996890284083Z" style="fill: inherit; stroke: inherit; stroke-width: inherit;" vector-effect="non-scaling-stroke"><title>Crawford County</title></path><path id="county-26135" class="county feature" d="M668.2956195635098,174.0795466331448L669.1460887777256,180.5296537990837L662.7680250990118,181.36391841812554L661.9593482824623,174.9043878866088Z" style="fill: inherit; stroke: inherit; stroke-width: inherit;" vector-effect="non-scaling-stroke"><title>Oscoda County</title></path><path id="county-26019" class="county feature" d="M643.1717256063131,178.58614387988223L643.6573460852002,183.45710235789875L638.1421014361194,183.9378889655842L637.7291717872621,180.48936719358983L639.7495829522851,178.87678112846186Z" style="fill: inherit; stroke: inherit; stroke-width: inherit;" vector-effect="non-scaling-stroke"><title>Benzie County</title></path><path id="county-26101" class="county feature" d="M643.6573460852002,183.45710235789875L644.312925447397,189.95650011024202L641.3764637922718,190.21510277304048L636.759175092474,190.47361482005203L638.1282200497185,186.73810676966116L638.1421014361194,183.9378889655842Z" style="fill: inherit; stroke: inherit; stroke-width: inherit;" vector-effect="non-scaling-stroke"><title>Manistee County</title></path><path id="county-26165" class="county feature" d="M650.0426403537033,182.76814361704714L650.7611170090566,189.229374170072L647.718020345694,189.5726131966877L644.312925447397,189.95650011024202L643.6573460852002,183.45710235789875Z" style="fill: inherit; stroke: inherit; stroke-width: inherit;" vector-effect="non-scaling-stroke"><title>Wexford County</title></path><path id="county-26143" class="county feature" d="M662.7680250990118,181.36391841812554L663.5984512382208,187.8027648944984L660.4156879223975,188.19118502639174L657.1824678749402,188.5611805673493L656.4253601064048,182.05469452244074Z" style="fill: inherit; stroke: inherit; stroke-width: inherit;" vector-effect="non-scaling-stroke"><title>Roscommon County</title></path><path id="county-26113" class="county feature" d="M656.4253601064048,182.05469452244074L657.1824678749402,188.5611805673493L654.0533576314795,188.87126302479794L650.7611170090566,189.229374170072L650.0426403537033,182.76814361704714Z" style="fill: inherit; stroke: inherit; stroke-width: inherit;" vector-effect="non-scaling-stroke"><title>Missaukee County</title></path><path id="county-26069" class="county feature" d="M676.6183837870226,179.49768329321364L676.7763461550691,182.9026670614844L674.6896936957445,184.263365982187L674.2125932748207,186.39592674573692L670.0059555575898,186.97575088971416L669.1460887777256,180.5296537990837Z" style="fill: inherit; stroke: inherit; stroke-width: inherit;" vector-effect="non-scaling-stroke"><title>Iosco County</title></path><path id="county-26129" class="county feature" d="M669.1460887777256,180.5296537990837L670.0059555575898,186.97575088971416L666.2687505721042,187.4491237115301L663.5984512382208,187.8027648944984L662.7680250990118,181.36391841812554Z" style="fill: inherit; stroke: inherit; stroke-width: inherit;" vector-effect="non-scaling-stroke"><title>Ogemaw County</title></path><path id="county-26105" class="county feature" d="M641.3764637922718,190.21510277304048L642.1181043568295,196.76097578047893L636.8638979929726,197.23085507774624L635.3639100673875,193.22638123676427L636.759175092474,190.47361482005203Z" style="fill: inherit; stroke: inherit; stroke-width: inherit;" vector-effect="non-scaling-stroke"><title>Mason County</title></path><path id="county-26085" class="county feature" d="M641.3764637922718,190.21510277304048L644.312925447397,189.95650011024202L647.718020345694,189.5726131966877L648.4640665904351,196.0763027350839L642.1181043568295,196.76097578047893Z" style="fill: inherit; stroke: inherit; stroke-width: inherit;" vector-effect="non-scaling-stroke"><title>Lake County</title></path><path id="county-26133" class="county feature" d="M650.7611170090566,189.229374170072L654.0533576314795,188.87126302479794L654.7774039872497,195.40176901620896L648.4640665904351,196.0763027350839L647.718020345694,189.5726131966877Z" style="fill: inherit; stroke: inherit; stroke-width: inherit;" vector-effect="non-scaling-stroke"><title>Osceola County</title></path><path id="county-26035" class="county feature" d="M657.1824678749402,188.5611805673493L660.4156879223975,188.19118502639174L661.2134625334277,194.61367685023583L654.7774039872497,195.40176901620896L654.0533576314795,188.87126302479794Z" style="fill: inherit; stroke: inherit; stroke-width: inherit;" vector-effect="non-scaling-stroke"><title>Clare County</title></path><path id="county-26051" class="county feature" d="M666.2687505721042,187.4491237115301L666.6477656084605,190.516120243886L667.0362452169396,193.69771681403643L661.2134625334277,194.61367685023583L660.4156879223975,188.19118502639174L663.5984512382208,187.8027648944984Z" style="fill: inherit; stroke: inherit; stroke-width: inherit;" vector-effect="non-scaling-stroke"><title>Gladwin County</title></path><path id="county-26017" class="county feature" d="M670.2849836825064,191.6878733494384L670.7805794311683,196.05682858175987L673.8332687872294,197.29555879999816L674.1109181716938,199.3538956283761L672.422640669773,198.75246859987215L669.2935336229269,199.1122391488808L667.6203234466439,198.48170167843693L667.0362452169396,193.69771681403643L666.6477656084605,190.516120243886L668.2539264436094,190.31203610347336L668.4634221324841,191.89214100195977Z" style="fill: inherit; stroke: inherit; stroke-width: inherit;" vector-effect="non-scaling-stroke"><title>Bay County</title></path><path id="county-26111" class="county feature" d="M667.0362452169396,193.69771681403643L667.6203234466439,198.48170167843693L667.7939623955983,200.10324414194497L665.1595875051989,200.7326691385008L661.9776829758416,201.11994038273485L661.2134625334277,194.61367685023583Z" style="fill: inherit; stroke: inherit; stroke-width: inherit;" vector-effect="non-scaling-stroke"><title>Midland County</title></path><path id="county-26127" class="county feature" d="M642.1181043568295,196.76097578047893L642.7821210047111,203.25796132180687L637.1184632896603,203.74880732899067L635.718783922355,200.45193913976163L636.8638979929726,197.23085507774624Z" style="fill: inherit; stroke: inherit; stroke-width: inherit;" vector-effect="non-scaling-stroke"><title>Oceana County</title></path><path id="county-26073" class="county feature" d="M661.2134625334277,194.61367685023583L661.9776829758416,201.11994038273485L658.784966860557,201.49838768396103L655.5818121966623,201.8709382572738L654.7774039872497,195.40176901620896Z" style="fill: inherit; stroke: inherit; stroke-width: inherit;" vector-effect="non-scaling-stroke"><title>Isabella County</title></path><path id="county-26107" class="county feature" d="M654.7774039872497,195.40176901620896L655.5818121966623,201.8709382572738L649.1782885706025,202.5537359724251L648.4640665904351,196.0763027350839Z" style="fill: inherit; stroke: inherit; stroke-width: inherit;" vector-effect="non-scaling-stroke"><title>Mecosta County</title></path><path id="county-26123" class="county feature" d="M648.4640665904351,196.0763027350839L649.1782885706025,202.5537359724251L649.5361318937664,205.7990942778058L646.474403423087,206.15630084574673L643.1283944162147,206.50356915695954L642.7821210047111,203.25796132180687L642.1181043568295,196.76097578047893Z" style="fill: inherit; stroke: inherit; stroke-width: inherit;" vector-effect="non-scaling-stroke"><title>Newaygo County</title></path><path id="county-26157" class="county feature" d="M676.5931358469439,194.32040918635118L676.7503958701129,195.43265911470428L681.3816740381837,194.6653664246562L682.2314272583824,201.14762115557266L679.1085580789122,201.66106607188533L679.3589430103414,203.27544694171524L677.9248025608686,203.69547516484943L674.7782951499067,204.14262871207814L674.1109181716938,199.3538956283761L673.8332687872294,197.29555879999816L675.9158444226484,194.27593019086112Z" style="fill: inherit; stroke: inherit; stroke-width: inherit;" vector-effect="non-scaling-stroke"><title>Tuscola County</title></path><path id="county-26151" class="county feature" d="M690.9116356511884,202.93254390708887L684.3326327700933,204.1367781358132L683.944848564757,201.71170596087472L682.2314272583824,201.14762115557266L681.3816740381837,194.6653664246562L688.1458155045381,193.44160700596194L689.7202288272634,198.02182167766364Z" style="fill: inherit; stroke: inherit; stroke-width: inherit;" vector-effect="non-scaling-stroke"><title>Sanilac County</title></path><path id="county-26145" class="county feature" d="M674.1109181716938,199.3538956283761L674.7782951499067,204.14262871207814L671.6095425594435,204.5704788922984L671.8514792864844,206.19664845906027L665.9618708272673,207.01720999414067L665.1595875051989,200.7326691385008L667.7939623955983,200.10324414194497L667.6203234466439,198.48170167843693L669.2935336229269,199.1122391488808L672.422640669773,198.75246859987215Z" style="fill: inherit; stroke: inherit; stroke-width: inherit;" vector-effect="non-scaling-stroke"><title>Saginaw County</title></path><path id="county-26121" class="county feature" d="M642.7821210047111,203.25796132180687L643.1283944162147,206.50356915695954L646.474403423087,206.15630084574673L646.6414868872436,207.79638222547442L645.0597835611759,207.95276385935847L645.2473302314261,209.57468671178094L640.3259397768064,210.09984824410776L637.1184632896603,203.74880732899067Z" style="fill: inherit; stroke: inherit; stroke-width: inherit;" vector-effect="non-scaling-stroke"><title>Muskegon County</title></path><path id="county-26117" class="county feature" d="M655.5818121966623,201.8709382572738L658.784966860557,201.49838768396103L659.6688574608481,207.95631671467368L653.2633180089213,208.69690761912614L652.8987095393097,205.42486053353934L649.5361318937664,205.7990942778058L649.1782885706025,202.5537359724251Z" style="fill: inherit; stroke: inherit; stroke-width: inherit;" vector-effect="non-scaling-stroke"><title>Montcalm County</title></path><path id="county-26057" class="county feature" d="M661.9776829758416,201.11994038273485L665.1595875051989,200.7326691385008L665.9618708272673,207.01720999414067L665.9858794626477,207.21239861345066L659.6688574608481,207.95631671467368L658.784966860557,201.49838768396103Z" style="fill: inherit; stroke: inherit; stroke-width: inherit;" vector-effect="non-scaling-stroke"><title>Gratiot County</title></path><path id="county-26087" class="county feature" d="M684.3326327700933,204.1367781358132L685.1735882839798,208.95620414705218L683.5757528139696,209.27213220139458L678.8731219694715,210.06215554196513L677.9248025608686,203.69547516484943L679.3589430103414,203.27544694171524L679.1085580789122,201.66106607188533L682.2314272583824,201.14762115557266L683.944848564757,201.71170596087472Z" style="fill: inherit; stroke: inherit; stroke-width: inherit;" vector-effect="non-scaling-stroke"><title>Lapeer County</title></path><path id="county-26081" class="county feature" d="M653.2633180089213,208.69690761912614L654.0375558633782,215.2044426297607L650.847360375076,215.59327578306716L647.6379672119565,215.9426670838552L646.6414868872436,207.79638222547442L646.474403423087,206.15630084574673L649.5361318937664,205.7990942778058L652.8987095393097,205.42486053353934Z" style="fill: inherit; stroke: inherit; stroke-width: inherit;" vector-effect="non-scaling-stroke"><title>Kent County</title></path><path id="county-26049" class="county feature" d="M677.9248025608686,203.69547516484943L678.8731219694715,210.06215554196513L675.7095056160655,210.6522424386817L675.9616488439286,212.28512447786886L672.7809669287826,212.74231045352417L671.8514792864844,206.19664845906027L671.6095425594435,204.5704788922984L674.7782951499067,204.14262871207814Z" style="fill: inherit; stroke: inherit; stroke-width: inherit;" vector-effect="non-scaling-stroke"><title>Genesee County</title></path><path id="county-26139" class="county feature" d="M646.6414868872436,207.79638222547442L647.6379672119565,215.9426670838552L641.8653112498108,216.5657613173894L641.1968782477745,212.47107894379292L640.3259397768064,210.09984824410776L645.2473302314261,209.57468671178094L645.0597835611759,207.95276385935847Z" style="fill: inherit; stroke: inherit; stroke-width: inherit;" vector-effect="non-scaling-stroke"><title>Ottawa County</title></path><path id="county-26155" class="county feature" d="M671.8514792864844,206.19664845906027L672.7809669287826,212.74231045352417L669.6029337146882,213.2226578446439L666.8287759358764,213.58434162351523L665.9858794626477,207.21239861345066L665.9618708272673,207.01720999414067Z" style="fill: inherit; stroke: inherit; stroke-width: inherit;" vector-effect="non-scaling-stroke"><title>Shiawassee County</title></path><path id="county-26067" class="county feature" d="M659.6688574608481,207.95631671467368L660.4357224738827,214.45546204567336L657.2236902480123,214.82430496270058L654.0375558633782,215.2044426297607L653.2633180089213,208.69690761912614Z" style="fill: inherit; stroke: inherit; stroke-width: inherit;" vector-effect="non-scaling-stroke"><title>Ionia County</title></path><path id="county-26037" class="county feature" d="M665.9858794626477,207.21239861345066L666.8287759358764,213.58434162351523L663.6084724520746,214.08728981985473L660.4357224738827,214.45546204567336L659.6688574608481,207.95631671467368Z" style="fill: inherit; stroke: inherit; stroke-width: inherit;" vector-effect="non-scaling-stroke"><title>Clinton County</title></path><path id="county-26099" class="county feature" d="M689.4550153754785,212.2945009513835L688.1044039310942,213.81284735592305L687.8428235906902,216.98652907222026L684.9657319184336,217.4545857524472L683.5757528139696,209.27213220139458L685.1735882839798,208.95620414705218L688.456916105118,208.42708403534448Z" style="fill: inherit; stroke: inherit; stroke-width: inherit;" vector-effect="non-scaling-stroke"><title>Macomb County</title></path><path id="county-26125" class="county feature" d="M684.9657319184336,217.4545857524472L678.6343425736321,218.53266766347895L677.1137744983885,218.80740198375952L675.9616488439286,212.28512447786886L675.7095056160655,210.6522424386817L678.8731219694715,210.06215554196513L683.5757528139696,209.27213220139458Z" style="fill: inherit; stroke: inherit; stroke-width: inherit;" vector-effect="non-scaling-stroke"><title>Oakland County</title></path><path id="county-26093" class="county feature" d="M675.9616488439286,212.28512447786886L677.1137744983885,218.80740198375952L670.7958807392564,219.7414546819515L670.6640602792518,219.75697810928284L669.6029337146882,213.2226578446439L672.7809669287826,212.74231045352417Z" style="fill: inherit; stroke: inherit; stroke-width: inherit;" vector-effect="non-scaling-stroke"><title>Livingston County</title></path><path id="county-26065" class="county feature" d="M669.6029337146882,213.2226578446439L670.6640602792518,219.75697810928284L664.4198868498344,220.5746922285764L663.6084724520746,214.08728981985473L666.8287759358764,213.58434162351523Z" style="fill: inherit; stroke: inherit; stroke-width: inherit;" vector-effect="non-scaling-stroke"><title>Ingham County</title></path><path id="county-26045" class="county feature" d="M660.4357224738827,214.45546204567336L663.6084724520746,214.08728981985473L664.4198868498344,220.5746922285764L662.8149730195888,220.77523835082445L658.0107966569512,221.34115931456904L657.2236902480123,214.82430496270058Z" style="fill: inherit; stroke: inherit; stroke-width: inherit;" vector-effect="non-scaling-stroke"><title>Eaton County</title></path><path id="county-26015" class="county feature" d="M657.2236902480123,214.82430496270058L658.0107966569512,221.34115931456904L654.9225737442168,221.72558590233757L651.591940050877,222.06634758888083L650.847360375076,215.59327578306716L654.0375558633782,215.2044426297607Z" style="fill: inherit; stroke: inherit; stroke-width: inherit;" vector-effect="non-scaling-stroke"><title>Barry County</title></path><path id="county-26005" class="county feature" d="M647.6379672119565,215.9426670838552L650.847360375076,215.59327578306716L651.591940050877,222.06634758888083L648.5834192804717,222.41241102383583L641.648253517631,223.16674047099912L641.8653112498108,216.5657613173894Z" style="fill: inherit; stroke: inherit; stroke-width: inherit;" vector-effect="non-scaling-stroke"><title>Allegan County</title></path><path id="county-26161" class="county feature" d="M679.6641083118784,225.02629535717335L676.4730323602821,225.5021549487409L671.6077556925657,226.3278730833697L670.7958807392564,219.7414546819515L677.1137744983885,218.80740198375952L678.6343425736321,218.53266766347895Z" style="fill: inherit; stroke: inherit; stroke-width: inherit;" vector-effect="non-scaling-stroke"><title>Washtenaw County</title></path><path id="county-26075" class="county feature" d="M670.6640602792518,219.75697810928284L670.7958807392564,219.7414546819515L671.6077556925657,226.3278730833697L668.4457956417073,226.68523419559017L663.7196639405978,227.3180912916606L662.8149730195888,220.77523835082445L664.4198868498344,220.5746922285764Z" style="fill: inherit; stroke: inherit; stroke-width: inherit;" vector-effect="non-scaling-stroke"><title>Jackson County</title></path><path id="county-26025" class="county feature" d="M662.8149730195888,220.77523835082445L663.7196639405978,227.3180912916606L662.1153970678621,227.4678746960301L655.7318421904514,228.2232011187458L654.9225737442168,221.72558590233757L658.0107966569512,221.34115931456904Z" style="fill: inherit; stroke: inherit; stroke-width: inherit;" vector-effect="non-scaling-stroke"><title>Calhoun County</title></path><path id="county-26159" class="county feature" d="M648.5834192804717,222.41241102383583L649.3127894920717,228.97498702692837L643.0142037576222,229.5999921654735L642.6725891824191,226.3868963659229L640.7509108239668,226.586874909107L641.648253517631,223.16674047099912Z" style="fill: inherit; stroke: inherit; stroke-width: inherit;" vector-effect="non-scaling-stroke"><title>Van Buren County</title></path><path id="county-26077" class="county feature" d="M654.9225737442168,221.72558590233757L655.7318421904514,228.2232011187458L649.3127894920717,228.97498702692837L648.5834192804717,222.41241102383583L651.591940050877,222.06634758888083Z" style="fill: inherit; stroke: inherit; stroke-width: inherit;" vector-effect="non-scaling-stroke"><title>Kalamazoo County</title></path><path id="county-26021" class="county feature" d="M643.0142037576222,229.5999921654735L643.5657963455467,235.4263580784542L639.4690152710397,235.8568673294909L635.3288082505195,236.25221193523328L637.940663259856,233.4174260592073L639.3050874083696,229.25674710867816L640.7509108239668,226.586874909107L642.6725891824191,226.3868963659229Z" style="fill: inherit; stroke: inherit; stroke-width: inherit;" vector-effect="non-scaling-stroke"><title>Berrien County</title></path><path id="county-26091" class="county feature" d="M676.4730323602821,225.5021549487409L677.4867513232498,232.17782211571455L675.8847878557888,232.45147199223584L669.3280861578298,233.52994831032458L668.4457956417073,226.68523419559017L671.6077556925657,226.3278730833697Z" style="fill: inherit; stroke: inherit; stroke-width: inherit;" vector-effect="non-scaling-stroke"><title>Lenawee County</title></path><path id="county-26023" class="county feature" d="M662.1153970678621,227.4678746960301L662.8246020824272,233.3034471110709L657.7228481778191,233.90206909624226L656.4106645434063,234.04713163046802L655.7318421904514,228.2232011187458Z" style="fill: inherit; stroke: inherit; stroke-width: inherit;" vector-effect="non-scaling-stroke"><title>Branch County</title></path><path id="county-26059" class="county feature" d="M668.4457956417073,226.68523419559017L669.3280861578298,233.52994831032458L668.7925891557405,233.61102091484065L663.2269044558229,234.4648891165259L662.8246020824272,233.3034471110709L662.1153970678621,227.4678746960301L663.7196639405978,227.3180912916606Z" style="fill: inherit; stroke: inherit; stroke-width: inherit;" vector-effect="non-scaling-stroke"><title>Hillsdale County</title></path><path id="county-26149" class="county feature" d="M655.7318421904514,228.2232011187458L656.4106645434063,234.04713163046802L651.3611721856478,234.62279196715303L649.6391691160965,234.80973360799635L649.8992279118368,234.02946339064124L649.3127894920717,228.97498702692837Z" style="fill: inherit; stroke: inherit; stroke-width: inherit;" vector-effect="non-scaling-stroke"><title>Saint Joseph County</title></path><path id="county-26027" class="county feature" d="M649.3127894920717,228.97498702692837L649.8992279118368,234.02946339064124L649.6391691160965,234.80973360799635L645.8165591942745,235.19009499550157L643.5657963455467,235.4263580784542L643.0142037576222,229.5999921654735Z" style="fill: inherit; stroke: inherit; stroke-width: inherit;" vector-effect="non-scaling-stroke"><title>Cass County</title></path><path id="county-26083" class="county feature" d="M612.0497275350154,131.04458539791767L613.9242085969232,132.22601344180896L610.8459471077349,132.76635278364245L611.1429997142202,133.5117385717641L607.6952431352854,136.521343526608L606.6621651428138,135.0000805240578L603.9458647432639,135.2205849762538L604.939701739761,133.59291512756693L607.4402925076481,131.90298139738366ZM600.9697288866782,119.7144948162155L603.7551396852256,118.42226844662218L600.6787529261591,122.10611382490606L596.8772001036918,124.17392846646851L597.5591834455602,124.67332231461103L595.0034037955188,125.8953884167853L594.1370447248122,124.33297641020215Z" style="fill: inherit; stroke: inherit; stroke-width: inherit;" vector-effect="non-scaling-stroke"><title>Keweenaw County</title></path><path id="county-26061" class="county feature" d="M605.2368865595192,141.58622623906274L603.9452972308961,141.6973486026401L604.0806702568539,143.30382673253473L602.4561176816416,143.43030437668574L603.0650881640943,151.44084663615945L599.0553467609694,151.75170941844237L598.721180480545,146.91523947676558L600.3238324335214,146.8097835935322L599.3299393236025,145.27160612078626L598.9540680267928,140.34966945114263L599.4423849517993,139.0038039583145L602.5432304454529,136.41114684997183L602.733802834537,138.21293645603782L604.2130332895539,138.4884899846869ZM607.6952431352854,136.521343526608L605.6916425830308,140.81460640997443L605.2317196988859,138.6890046650758L602.8664008006856,138.26268464581221L602.5952004804788,136.43012398489714L603.9458647432639,135.2205849762538L606.6621651428138,135.0000805240578Z" style="fill: inherit; stroke: inherit; stroke-width: inherit;" vector-effect="non-scaling-stroke"><title>Houghton County</title></path><path id="county-26103" class="county feature" d="M623.0354878649055,148.33896925684223L623.6286411305607,154.56713967067606L622.0122657606714,154.71859698125695L622.2872709665871,157.94777243382975L620.6752751128948,158.09162551082784L617.4456535007791,158.36841408475118L617.0415337696307,153.53471350587938L610.5654757377665,154.08223270756264L610.312402790462,150.86997611220886L609.9225101561013,146.0688120581509L611.5126150290143,145.92151410515999L610.6977887594592,144.3793469675354L610.4700194583902,141.6645001588796L613.4088259507929,141.80735441762204L615.8693611681325,143.05267367721115L616.8060699219016,144.6952016551071L620.2835502692412,148.58576254038155Z" style="fill: inherit; stroke: inherit; stroke-width: inherit;" vector-effect="non-scaling-stroke"><title>Marquette County</title></path><path id="county-26003" class="county feature" d="M639.0777870384666,146.54260892549735L632.6645219987204,147.19092350844267L632.9923470389622,150.41361201396944L629.7676649447217,150.71220367653052L630.0883504228266,153.9494378709236L623.6286411305607,154.56713967067606L623.0354878649055,148.33896925684223L624.1927383917481,147.50161733491257L627.0032383427781,149.02578197114497L627.7676769298462,148.17957323756116L629.3418704414204,149.2813649860651L631.333423859956,146.4421031138287L635.2472661636149,143.80210455478345L638.7155574207878,143.11525899783794Z" style="fill: inherit; stroke: inherit; stroke-width: inherit;" vector-effect="non-scaling-stroke"><title>Alger County</title></path><path id="county-26041" class="county feature" d="M623.6286411305607,154.56713967067606L630.0883504228266,153.9494378709236L631.7048986256957,153.79929227848197L632.1925493584235,158.65672699416098L632.8384296997535,161.20158228417972L629.8252266603695,163.5140562691779L631.7455529459321,159.58471631003465L628.479176398894,159.69941800983042L627.5851671953193,162.60156794721718L625.3474435538924,162.16964224015555L623.8048342666292,163.82791351917638L622.7535998202842,166.05641634481879L621.9348424474971,166.1245558765704L621.3660714498328,159.65229295694485L620.6752751128948,158.09162551082784L622.2872709665871,157.94777243382975L622.0122657606714,154.71859698125695Z" style="fill: inherit; stroke: inherit; stroke-width: inherit;" vector-effect="non-scaling-stroke"><title>Delta County</title></path><path id="county-26033" class="county feature" d="M669.8910364371852,153.80174955968187L666.1773505634483,153.50880041164805L668.2714355534133,151.88819959873751L667.5529628596339,150.7354753824311L669.3078569289028,150.7252912278426L670.9648104926181,152.452367562321ZM660.3419846801108,143.52105695779494L661.2381178361635,143.52982812539983L660.728810185908,145.759913782519L659.3487179229784,144.5324511431993ZM662.7130869849238,153.5937539356505L661.4062837582865,153.70584488319105L661.1843762939129,153.73550099552972L660.8971529012168,152.14419371829888L659.297470873662,152.3400806899416L659.0957134183229,150.73855878879328L649.4554124270769,151.88522614115152L649.2598984302311,150.2672057089402L647.658873136041,150.45537408249913L646.5855249684762,141.01684352732104L650.1659947043031,140.3598403347031L649.3892802751669,141.94433116848938L649.7603066979333,145.6668639634995L652.4671254984715,146.17098889138617L654.9400355750006,145.12692215992388L655.5700426603744,146.36892845401758L658.5982015693452,144.34604960079946L659.7992933759078,145.53188885025088L661.2041212624323,148.74104181071505L660.898507132221,150.42154671862738L662.1505320628323,149.976362182608L662.9953833800073,151.47158250864425L665.4603095973698,153.23516291288297Z" style="fill: inherit; stroke: inherit; stroke-width: inherit;" vector-effect="non-scaling-stroke"><title>Chippewa County</title></path><path id="county-26097" class="county feature" d="M657.2843388360741,157.38175949867343L660.0756008611277,157.89742466960706L658.3602801267441,158.7920666100565ZM662.7130869849238,153.5937539356505L661.4062837582865,153.70584488319105L662.7130869849238,153.5937539356505ZM661.1843762939129,153.73550099552972L655.5601799394009,153.13611698804823L654.7347274723522,155.26751448819823L654.8051346874565,157.24298433683998L651.1571504488587,154.52026278496896L645.5319169933351,153.38415633019724L644.3750135349029,153.6810998092709L642.8702882875773,156.1994934875769L640.1371375384499,156.48302828181068L639.5934217695246,151.35973453374925L647.658873136041,150.45537408249913L649.2598984302311,150.2672057089402L649.4554124270769,151.88522614115152L659.0957134183229,150.73855878879328L659.297470873662,152.3400806899416L660.8971529012168,152.14419371829888Z" style="fill: inherit; stroke: inherit; stroke-width: inherit;" vector-effect="non-scaling-stroke"><title>Mackinac County</title></path><path id="county-26047" class="county feature" d="M655.1655222231584,158.17408205280003L656.266050499228,167.41374500966197L652.7727019925381,168.1380909495207L651.3606045845706,166.54962077455457L653.501589892445,165.2422796370888L651.9976156515372,165.17604545162533L650.6265327194269,162.84418179446675L652.6035979627209,159.62604291896173Z" style="fill: inherit; stroke: inherit; stroke-width: inherit;" vector-effect="non-scaling-stroke"><title>Emmet County</title></path><path id="county-26029" class="county feature" d="M651.3606045845706,166.54962077455457L652.7727019925381,168.1380909495207L656.266050499228,167.41374500966197L656.4360218508991,169.04027116757663L656.6235576403117,170.65497045100255L655.0149499150887,170.81312241608146L650.2200469215225,171.34624027789687L650.034433667995,169.71618108366727L647.8823534411471,169.91893908598763L648.0297437761803,168.61044522691418L649.9941060032527,166.7820707907316ZM644.8366875951529,160.06129316389797L645.7058213099479,162.630149008216L644.0900862276836,163.30078220253267Z" style="fill: inherit; stroke: inherit; stroke-width: inherit;" vector-effect="non-scaling-stroke"><title>Charlevoix County</title></path><path id="county-26089" class="county feature" d="M640.6519200425896,173.42247548131922L639.3277686584016,172.8573072228029L640.1163851053836,171.82008325125787ZM645.4558097854213,178.32720635581688L643.1717256063131,178.58614387988223L639.7495829522851,178.87678112846186L639.5648206645968,176.7046606930295L641.1797168895018,175.21183301869053L642.9687319469895,175.23765093437078L644.9146888223914,170.6480211656742L645.8544271268162,172.92672324943396L645.1732865235743,176.35556420845444Z" style="fill: inherit; stroke: inherit; stroke-width: inherit;" vector-effect="non-scaling-stroke"><title>Leelanau County</title></path><path id="county-26055" class="county feature" d="M647.9000701573834,176.46277297024812L649.432556009722,177.18480882007998L650.0426403537033,182.76814361704714L643.6573460852002,183.45710235789875L643.1717256063131,178.58614387988223L645.4558097854213,178.32720635581688L646.0720701989044,178.413303681226L647.2289139525216,174.11854724098964L647.0181268671112,178.67096936831445Z" style="fill: inherit; stroke: inherit; stroke-width: inherit;" vector-effect="non-scaling-stroke"><title>Grand Traverse County</title></path><path id="county-26007" class="county feature" d="M673.976003588401,166.72826179600736L675.3279410220007,169.42136100013897L673.8487585195418,169.49243427546378L674.1487789559067,171.96250218096566L675.7221374111566,173.07001037208659L668.2956195635098,174.0795466331448L667.5684852070299,167.66178124915052Z" style="fill: inherit; stroke: inherit; stroke-width: inherit;" vector-effect="non-scaling-stroke"><title>Alpena County</title></path><path id="county-26011" class="county feature" d="M674.2125932748207,186.39592674573692L674.3251633659283,188.53949727605323L673.1509207996482,189.78165958083105L670.9539065624083,190.02555929238474L670.2849836825064,191.6878733494384L668.4634221324841,191.89214100195977L668.2539264436094,190.31203610347336L666.6477656084605,190.516120243886L666.2687505721042,187.4491237115301L670.0059555575898,186.97575088971416Z" style="fill: inherit; stroke: inherit; stroke-width: inherit;" vector-effect="non-scaling-stroke"><title>Arenac County</title></path><path id="county-26063" class="county feature" d="M688.1458155045381,193.44160700596194L681.3816740381837,194.6653664246562L676.7503958701129,195.43265911470428L676.5931358469439,194.32040918635118L678.7086294388554,189.3625726346878L681.3857596499081,188.3676480266313L682.8809198643696,187.01238566589552L685.5718285547689,188.09079585076825L687.4038916629809,190.85177819919613Z" style="fill: inherit; stroke: inherit; stroke-width: inherit;" vector-effect="non-scaling-stroke"><title>Huron County</title></path><path id="county-26147" class="county feature" d="M689.4550153754785,212.2945009513835L688.456916105118,208.42708403534448L685.1735882839798,208.95620414705218L684.3326327700933,204.1367781358132L690.9116356511884,202.93254390708887L692.5657817172057,206.37055293221897L692.0375431668813,208.08219658513133L692.1445873391871,213.0456815704058L690.4201242428062,213.20818792886791Z" style="fill: inherit; stroke: inherit; stroke-width: inherit;" vector-effect="non-scaling-stroke"><title>Saint Clair County</title></path><path id="county-26163" class="county feature" d="M687.8428235906902,216.98652907222026L687.624641791623,218.27473005336162L685.3799601357659,219.93863749237948L684.5329199942446,222.77457782595718L684.449675485776,225.35679111154332L682.9524583359234,224.42333302140844L679.6641083118784,225.02629535717335L678.6343425736321,218.53266766347895L684.9657319184336,217.4545857524472Z" style="fill: inherit; stroke: inherit; stroke-width: inherit;" vector-effect="non-scaling-stroke"><title>Wayne County</title></path><path id="county-26115" class="county feature" d="M681.6928734880224,231.44897378667633L681.5657041966797,231.47196826076083L681.6928734880224,231.44897378667633ZM681.3402254964877,231.50899821531675L681.487087075774,231.48341520951158L681.3402254964877,231.50899821531675ZM684.449675485776,225.35679111154332L681.4557907612617,230.45486078975807L681.3108262078877,231.51391245415675L677.4867513232498,232.17782211571455L676.4730323602821,225.5021549487409L679.6641083118784,225.02629535717335L682.9524583359234,224.42333302140844Z" style="fill: inherit; stroke: inherit; stroke-width: inherit;" vector-effect="non-scaling-stroke"><title>Monroe County</title></path></g><path id="counties-mesh" class="counties mesh" d="M599.1832836677607,153.35751980907594L599.5026707348383,157.74348456274845L598.1420425714308,157.07319270901507L587.1196896286117,154.81489408734637L587.1382493012693,155.03232717478647L584.6076704107228,154.27915906813973L582.9861266175214,151.15233119573497L580.5282054551132,150.26241288610026L585.4380900510598,147.90220467317556L587.0854876188072,146.12088003436372M639.5934217695246,151.35973453374925L640.1371375384499,156.48302828181068L639.615693796262,157.44550941610373L637.6122017681357,156.8282303135237L634.4621181733421,157.98863597374122L633.984981121562,160.5415099006043L632.8384296997535,161.20158228417972L632.1925493584235,158.65672699416098L631.7048986256957,153.79929227848197L630.0883504228266,153.9494378709236L629.7676649447217,150.71220367653052L632.9923470389622,150.41361201396944L632.6645219987204,147.19092350844267L639.0777870384666,146.54260892549735M610.312402790462,150.86997611220886L610.5654757377665,154.08223270756264L611.0767668558368,160.12034158277652L607.1070096977994,159.43888157257925L605.5286878819634,158.70696829267786L603.6009895600481,158.99081190830918L600.2876228285752,158.1270935507356L599.5026707348383,157.74348456274845M599.0553467609694,151.75170941844237L599.1832836677607,153.35751980907594L594.3479422059411,153.7112055375178L594.1235425464477,150.50173407459465L589.2995524297376,150.83647074813564L589.1977489643056,149.22268211275377L587.6014806439571,149.31589823881222L587.0854876188072,146.12088003436372L588.3130387136472,145.04589201334238L593.0374047514797,144.27377472462354L595.2169717190329,142.92986628267613L596.6370421802743,141.21077637727137L598.9540680267928,140.34966945114263L599.3299393236025,145.27160612078626L600.3238324335214,146.8097835935322L598.721180480545,146.91523947676558L599.0553467609694,151.75170941844237L603.0650881640943,151.44084663615945M610.5654757377665,154.08223270756264L617.0415337696307,153.53471350587938L617.4456535007791,158.36841408475118L617.5888820204527,159.98811852667495L616.5561222230551,160.07900794975808L616.8378434009362,163.3492600096979L614.8979274260745,163.52567287867157L612.0639643469322,162.67769994492426L611.0004668836594,161.96778127510152L611.0767668558368,160.12034158277652M617.4456535007791,158.36841408475118L620.6752751128948,158.09162551082784L621.3660714498328,159.65229295694485L621.9348424474971,166.1245558765704L622.7535998202842,166.05641634481879L620.9401077677198,171.02771469568563L618.9009315795532,174.82547426939436L617.1059061914223,173.17177406604787L618.1086811029413,170.41077399454036L614.9631676909045,170.4391457523784L615.9588839486712,167.58308910806886L615.3157939377759,166.52210758561864L615.8258609445454,164.36229296429963L614.8979274260745,163.52567287867157M662.3644922715137,160.33230548918084L661.7553989491228,160.4121747030456L662.8097423444364,168.3243011499818L661.2405644144583,168.51732768440252L656.4360218508991,169.04027116757663L656.266050499228,167.41374500966197L655.1655222231584,158.17408205280003L658.9625866526285,160.24984847035387L662.3644922715137,160.33230548918084L663.8574389155011,162.3953137954726L666.5306037965413,162.4486263952108L668.4756184859986,163.67528890546487L671.2111769432314,164.45090625637624L672.2062676506739,164.1455494751168L673.9108658891676,165.56319154205005L673.976003588401,166.72826179600736L667.5684852070299,167.66178124915052L662.8097423444364,168.3243011499818M655.0149499150887,170.81312241608146L655.7124632635166,175.59996890284083L649.8711865954228,176.24840981445334L649.432556009722,177.18480882007998L647.9000701573834,176.46277297024812L648.4059562094029,171.66262114009567L647.8823534411471,169.91893908598763L650.034433667995,169.71618108366727L650.2200469215225,171.34624027789687L655.0149499150887,170.81312241608146L656.6235576403117,170.65497045100255L656.4360218508991,169.04027116757663M673.976003588401,166.72826179600736L675.3279410220007,169.42136100013897L673.8487585195418,169.49243427546378L674.1487789559067,171.96250218096566L675.7221374111566,173.07001037208659L676.7337351810481,175.67593058955424L676.6183837870226,179.49768329321364L669.1460887777256,180.5296537990837L668.2956195635098,174.0795466331448L675.7221374111566,173.07001037208659M661.2405644144583,168.51732768440252L661.9593482824623,174.9043878866088L655.7124632635166,175.59996890284083L656.4253601064048,182.05469452244074L650.0426403537033,182.76814361704714L649.432556009722,177.18480882007998M676.6183837870226,179.49768329321364L676.7763461550691,182.9026670614844L674.6896936957445,184.263365982187L674.2125932748207,186.39592674573692L670.0059555575898,186.97575088971416L669.1460887777256,180.5296537990837L662.7680250990118,181.36391841812554L663.5984512382208,187.8027648944984L660.4156879223975,188.19118502639174L657.1824678749402,188.5611805673493L656.4253601064048,182.05469452244074M639.7495829522851,178.87678112846186L639.5648206645968,176.7046606930295L641.1797168895018,175.21183301869053L642.9687319469895,175.23765093437078L644.9146888223914,170.6480211656742L645.8544271268162,172.92672324943396L645.1732865235743,176.35556420845444L645.4558097854213,178.32720635581688L643.1717256063131,178.58614387988223L643.6573460852002,183.45710235789875L638.1421014361194,183.9378889655842L637.7291717872621,180.48936719358983L639.7495829522851,178.87678112846186L643.1717256063131,178.58614387988223M643.6573460852002,183.45710235789875L644.312925447397,189.95650011024202L641.3764637922718,190.21510277304048L636.759175092474,190.47361482005203L638.1282200497185,186.73810676966116L638.1421014361194,183.9378889655842M643.6573460852002,183.45710235789875L650.0426403537033,182.76814361704714L650.7611170090566,189.229374170072L647.718020345694,189.5726131966877L644.312925447397,189.95650011024202M657.1824678749402,188.5611805673493L654.0533576314795,188.87126302479794L650.7611170090566,189.229374170072M670.0059555575898,186.97575088971416L666.2687505721042,187.4491237115301L663.5984512382208,187.8027648944984M641.3764637922718,190.21510277304048L642.1181043568295,196.76097578047893L636.8638979929726,197.23085507774624L635.3639100673875,193.22638123676427L636.759175092474,190.47361482005203M655.5818121966623,201.8709382572738L649.1782885706025,202.5537359724251L648.4640665904351,196.0763027350839M661.9776829758416,201.11994038273485L658.784966860557,201.49838768396103L655.5818121966623,201.8709382572738L654.7774039872497,195.40176901620896M667.6203234466439,198.48170167843693L667.7939623955983,200.10324414194497L665.1595875051989,200.7326691385008L661.9776829758416,201.11994038273485L661.2134625334277,194.61367685023583M666.6477656084605,190.516120243886L668.2539264436094,190.31203610347336L668.4634221324841,191.89214100195977L670.2849836825064,191.6878733494384L670.7805794311683,196.05682858175987L673.8332687872294,197.29555879999816L674.1109181716938,199.3538956283761L672.422640669773,198.75246859987215L669.2935336229269,199.1122391488808L667.6203234466439,198.48170167843693L667.0362452169396,193.69771681403643M647.718020345694,189.5726131966877L648.4640665904351,196.0763027350839L642.1181043568295,196.76097578047893L642.7821210047111,203.25796132180687L637.1184632896603,203.74880732899067L635.718783922355,200.45193913976163L636.8638979929726,197.23085507774624M649.1782885706025,202.5537359724251L649.5361318937664,205.7990942778058L646.474403423087,206.15630084574673L643.1283944162147,206.50356915695954L642.7821210047111,203.25796132180687M673.8332687872294,197.29555879999816L675.9158444226484,194.27593019086112L676.5931358469439,194.32040918635118L676.7503958701129,195.43265911470428L681.3816740381837,194.6653664246562L682.2314272583824,201.14762115557266L679.1085580789122,201.66106607188533L679.3589430103414,203.27544694171524L677.9248025608686,203.69547516484943L674.7782951499067,204.14262871207814L674.1109181716938,199.3538956283761M681.3816740381837,194.6653664246562L688.1458155045381,193.44160700596194L689.7202288272634,198.02182167766364L690.9116356511884,202.93254390708887L684.3326327700933,204.1367781358132L683.944848564757,201.71170596087472L682.2314272583824,201.14762115557266M674.7782951499067,204.14262871207814L671.6095425594435,204.5704788922984L671.8514792864844,206.19664845906027L665.9618708272673,207.01720999414067L665.1595875051989,200.7326691385008M646.474403423087,206.15630084574673L646.6414868872436,207.79638222547442L645.0597835611759,207.95276385935847L645.2473302314261,209.57468671178094L640.3259397768064,210.09984824410776L637.1184632896603,203.74880732899067M658.784966860557,201.49838768396103L659.6688574608481,207.95631671467368L653.2633180089213,208.69690761912614L652.8987095393097,205.42486053353934L649.5361318937664,205.7990942778058M684.3326327700933,204.1367781358132L685.1735882839798,208.95620414705218L683.5757528139696,209.27213220139458L678.8731219694715,210.06215554196513L677.9248025608686,203.69547516484943M653.2633180089213,208.69690761912614L654.0375558633782,215.2044426297607L650.847360375076,215.59327578306716L647.6379672119565,215.9426670838552L646.6414868872436,207.79638222547442M678.8731219694715,210.06215554196513L675.7095056160655,210.6522424386817L675.9616488439286,212.28512447786886L672.7809669287826,212.74231045352417L671.8514792864844,206.19664845906027M647.6379672119565,215.9426670838552L641.8653112498108,216.5657613173894L641.1968782477745,212.47107894379292L640.3259397768064,210.09984824410776M672.7809669287826,212.74231045352417L669.6029337146882,213.2226578446439L666.8287759358764,213.58434162351523L665.9858794626477,207.21239861345066M665.9618708272673,207.01720999414067L665.9858794626477,207.21239861345066L659.6688574608481,207.95631671467368L660.4357224738827,214.45546204567336L657.2236902480123,214.82430496270058L654.0375558633782,215.2044426297607M666.8287759358764,213.58434162351523L663.6084724520746,214.08728981985473L660.4357224738827,214.45546204567336M685.1735882839798,208.95620414705218L688.456916105118,208.42708403534448L689.4550153754785,212.2945009513835L688.1044039310942,213.81284735592305L687.8428235906902,216.98652907222026L684.9657319184336,217.4545857524472L683.5757528139696,209.27213220139458M684.9657319184336,217.4545857524472L678.6343425736321,218.53266766347895L677.1137744983885,218.80740198375952L675.9616488439286,212.28512447786886M677.1137744983885,218.80740198375952L670.7958807392564,219.7414546819515L670.6640602792518,219.75697810928284L669.6029337146882,213.2226578446439M670.6640602792518,219.75697810928284L664.4198868498344,220.5746922285764L663.6084724520746,214.08728981985473M664.4198868498344,220.5746922285764L662.8149730195888,220.77523835082445L658.0107966569512,221.34115931456904L657.2236902480123,214.82430496270058M658.0107966569512,221.34115931456904L654.9225737442168,221.72558590233757L651.591940050877,222.06634758888083L650.847360375076,215.59327578306716M651.591940050877,222.06634758888083L648.5834192804717,222.41241102383583L641.648253517631,223.16674047099912L641.8653112498108,216.5657613173894M678.6343425736321,218.53266766347895L679.6641083118784,225.02629535717335L676.4730323602821,225.5021549487409L671.6077556925657,226.3278730833697L670.7958807392564,219.7414546819515M671.6077556925657,226.3278730833697L668.4457956417073,226.68523419559017L663.7196639405978,227.3180912916606L662.8149730195888,220.77523835082445M663.7196639405978,227.3180912916606L662.1153970678621,227.4678746960301L655.7318421904514,228.2232011187458L654.9225737442168,221.72558590233757M648.5834192804717,222.41241102383583L649.3127894920717,228.97498702692837L643.0142037576222,229.5999921654735L642.6725891824191,226.3868963659229L640.7509108239668,226.586874909107L641.648253517631,223.16674047099912M656.4106645434063,234.04713163046802L651.3611721856478,234.62279196715303L649.6391691160965,234.80973360799635L649.8992279118368,234.02946339064124L649.3127894920717,228.97498702692837M643.0142037576222,229.5999921654735L643.5657963455467,235.4263580784542L639.4690152710397,235.8568673294909L635.3288082505195,236.25221193523328L637.940663259856,233.4174260592073L639.3050874083696,229.25674710867816L640.7509108239668,226.586874909107M676.4730323602821,225.5021549487409L677.4867513232498,232.17782211571455L675.8847878557888,232.45147199223584L669.3280861578298,233.52994831032458L668.4457956417073,226.68523419559017M669.3280861578298,233.52994831032458L668.7925891557405,233.61102091484065L663.2269044558229,234.4648891165259L662.8246020824272,233.3034471110709M649.6391691160965,234.80973360799635L645.8165591942745,235.19009499550157L643.5657963455467,235.4263580784542M684.449675485776,225.35679111154332L681.4557907612617,230.45486078975807L681.3108262078877,231.51391245415675L677.4867513232498,232.17782211571455M612.0497275350154,131.04458539791767L613.9242085969232,132.22601344180896L610.8459471077349,132.76635278364245L611.1429997142202,133.5117385717641L607.6952431352854,136.521343526608L606.6621651428138,135.0000805240578L603.9458647432639,135.2205849762538L604.939701739761,133.59291512756693L607.4402925076481,131.90298139738366L612.0497275350154,131.04458539791767M600.9697288866782,119.7144948162155L603.7551396852256,118.42226844662218L600.6787529261591,122.10611382490606L596.8772001036918,124.17392846646851L597.5591834455602,124.67332231461103L595.0034037955188,125.8953884167853L594.1370447248122,124.33297641020215L600.9697288866782,119.7144948162155M598.9540680267928,140.34966945114263L599.4423849517993,139.0038039583145L602.5432304454529,136.41114684997183L602.733802834537,138.21293645603782L604.2130332895539,138.4884899846869L605.2368865595192,141.58622623906274M607.6952431352854,136.521343526608L605.6916425830308,140.81460640997443L605.2317196988859,138.6890046650758L602.8664008006856,138.26268464581221L602.5952004804788,136.43012398489714L603.9458647432639,135.2205849762538M610.4700194583902,141.6645001588796L610.6977887594592,144.3793469675354L611.5126150290143,145.92151410515999L609.9225101561013,146.0688120581509L610.312402790462,150.86997611220886L603.0650881640943,151.44084663615945L602.4561176816416,143.43030437668574L604.0806702568539,143.30382673253473L603.9452972308961,141.6973486026401L605.2368865595192,141.58622623906274L605.301955394393,145.07662398470347L607.9425849460013,141.50913205397546L610.4700194583902,141.6645001588796L613.4088259507929,141.80735441762204L615.8693611681325,143.05267367721115L616.8060699219016,144.6952016551071L620.2835502692412,148.58576254038155L623.0354878649055,148.33896925684223L623.6286411305607,154.56713967067606L622.0122657606714,154.71859698125695L622.2872709665871,157.94777243382975L620.6752751128948,158.09162551082784M630.0883504228266,153.9494378709236L623.6286411305607,154.56713967067606M623.0354878649055,148.33896925684223L624.1927383917481,147.50161733491257L627.0032383427781,149.02578197114497L627.7676769298462,148.17957323756116L629.3418704414204,149.2813649860651L631.333423859956,146.4421031138287L635.2472661636149,143.80210455478345L638.7155574207878,143.11525899783794M632.8384296997535,161.20158228417972L629.8252266603695,163.5140562691779L631.7455529459321,159.58471631003465L628.479176398894,159.69941800983042L627.5851671953193,162.60156794721718L625.3474435538924,162.16964224015555L623.8048342666292,163.82791351917638L622.7535998202842,166.05641634481879M669.8910364371852,153.80174955968187L666.1773505634483,153.50880041164805L668.2714355534133,151.88819959873751L667.5529628596339,150.7354753824311L669.3078569289028,150.7252912278426L670.9648104926181,152.452367562321L669.8910364371852,153.80174955968187M660.3419846801108,143.52105695779494L661.2381178361635,143.52982812539983L660.728810185908,145.759913782519L659.3487179229784,144.5324511431993L660.3419846801108,143.52105695779494M646.5855249684762,141.01684352732104L647.658873136041,150.45537408249913L639.5934217695246,151.35973453374925L639.0777870384666,146.54260892549735L638.7155574207878,143.11525899783794L643.6245876609092,142.75371891748523L646.5855249684762,141.01684352732104L650.1659947043031,140.3598403347031L649.3892802751669,141.94433116848938L649.7603066979333,145.6668639634995L652.4671254984715,146.17098889138617L654.9400355750006,145.12692215992388L655.5700426603744,146.36892845401758L658.5982015693452,144.34604960079946L659.7992933759078,145.53188885025088L661.2041212624323,148.74104181071505L660.898507132221,150.42154671862738L662.1505320628323,149.976362182608L662.9953833800073,151.47158250864425L665.4603095973698,153.23516291288297L662.7130869849238,153.5937539356505L661.4062837582865,153.70584488319105L661.1843762939129,153.73550099552972L660.8971529012168,152.14419371829888L659.297470873662,152.3400806899416L659.0957134183229,150.73855878879328L649.4554124270769,151.88522614115152L649.2598984302311,150.2672057089402L647.658873136041,150.45537408249913M657.2843388360741,157.38175949867343L660.0756008611277,157.89742466960706L658.3602801267441,158.7920666100565L657.2843388360741,157.38175949867343M662.7130869849238,153.5937539356505L661.4062837582865,153.70584488319105M661.1843762939129,153.73550099552972L655.5601799394009,153.13611698804823L654.7347274723522,155.26751448819823L654.8051346874565,157.24298433683998L651.1571504488587,154.52026278496896L645.5319169933351,153.38415633019724L644.3750135349029,153.6810998092709L642.8702882875773,156.1994934875769L640.1371375384499,156.48302828181068M656.266050499228,167.41374500966197L652.7727019925381,168.1380909495207L651.3606045845706,166.54962077455457L653.501589892445,165.2422796370888L651.9976156515372,165.17604545162533L650.6265327194269,162.84418179446675L652.6035979627209,159.62604291896173L655.1655222231584,158.17408205280003M647.8823534411471,169.91893908598763L648.0297437761803,168.61044522691418L649.9941060032527,166.7820707907316L651.3606045845706,166.54962077455457M644.8366875951529,160.06129316389797L645.7058213099479,162.630149008216L644.0900862276836,163.30078220253267L644.8366875951529,160.06129316389797M640.6519200425896,173.42247548131922L639.3277686584016,172.8573072228029L640.1163851053836,171.82008325125787L640.6519200425896,173.42247548131922M645.4558097854213,178.32720635581688L646.0720701989044,178.413303681226L647.2289139525216,174.11854724098964L647.0181268671112,178.67096936831445L647.9000701573834,176.46277297024812M674.2125932748207,186.39592674573692L674.3251633659283,188.53949727605323L673.1509207996482,189.78165958083105L670.9539065624083,190.02555929238474L670.2849836825064,191.6878733494384M676.5931358469439,194.32040918635118L678.7086294388554,189.3625726346878L681.3857596499081,188.3676480266313L682.8809198643696,187.01238566589552L685.5718285547689,188.09079585076825L687.4038916629809,190.85177819919613L688.1458155045381,193.44160700596194M690.9116356511884,202.93254390708887L692.5657817172057,206.37055293221897L692.0375431668813,208.08219658513133L692.1445873391871,213.0456815704058L690.4201242428062,213.20818792886791L689.4550153754785,212.2945009513835M687.8428235906902,216.98652907222026L687.624641791623,218.27473005336162L685.3799601357659,219.93863749237948L684.5329199942446,222.77457782595718L684.449675485776,225.35679111154332L682.9524583359234,224.42333302140844L679.6641083118784,225.02629535717335M681.6928734880224,231.44897378667633L681.5657041966797,231.47196826076083L681.6928734880224,231.44897378667633M681.487087075774,231.48341520951158L681.3402254964877,231.50899821531675L681.487087075774,231.48341520951158M667.5684852070299,167.66178124915052L668.2956195635098,174.0795466331448L661.9593482824623,174.9043878866088L662.7680250990118,181.36391841812554L656.4253601064048,182.05469452244074M654.0533576314795,188.87126302479794L654.7774039872497,195.40176901620896L648.4640665904351,196.0763027350839M660.4156879223975,188.19118502639174L661.2134625334277,194.61367685023583L654.7774039872497,195.40176901620896M666.2687505721042,187.4491237115301L666.6477656084605,190.516120243886L667.0362452169396,193.69771681403643L661.2134625334277,194.61367685023583M662.1153970678621,227.4678746960301L662.8246020824272,233.3034471110709L657.7228481778191,233.90206909624226L656.4106645434063,234.04713163046802L655.7318421904514,228.2232011187458L649.3127894920717,228.97498702692837" style="fill: inherit; stroke: inherit; stroke-width: inherit;" vector-effect="non-scaling-stroke"></path></svg>