<?xml version="1.0" standalone="yes"?>
<svg xmlns="http://www.w3.org/2000/svg" version="1.2" id="root" viewBox="486.8701009035422 93.57770901322382 109.38136631833771 122.64251830533209"><style>
@import url("../../css/svg.css");</style><rect id="bbox" class="bbox" x="486.8701009035422" y="93.57770901322382" width="109.38136631833771" height="122.64251830533209"></rect><g id="counties"><path id="county-27069" class="county feature" d="M503.62955753369596,107.23964573515741L503.81339126833785,115.65583093777059L494.13590628279144,115.59674866215244L495.00518458707495,112.94145392016537L494.2782786793076,111.6313982926614L493.41103521315995,107.14383674142255Z" style="fill: inherit; stroke: inherit; stroke-width: inherit;" vector-effect="non-scaling-stroke"><title>Kittson County</title></path><path id="county-27135" class="county feature" d="M516.8772227999262,115.71075204924921L513.6303896538204,115.75458826970873L503.81339126833785,115.65583093777059L503.62955753369596,107.23964573515741L517.0724296163264,107.24018460327886L518.1585076750658,109.40020814895342L519.9493122620489,108.66188962705723L520.0038276418138,112.49165168615446L516.8551494742636,112.5205997322297Z" style="fill: inherit; stroke: inherit; stroke-width: inherit;" vector-effect="non-scaling-stroke"><title>Roseau County</title></path><path id="county-27071" class="county feature" d="M544.9865946630081,113.56596520505616L545.087666718611,120.68863909534355L545.4896270649901,127.17092151254076L536.7285832221165,127.2775867706905L536.7422751803208,128.249966708785L528.6340548616462,128.423247942967L528.3475160864328,118.7719425263981L528.2232318759886,112.60861195551206L529.7364821200845,112.4100227017941L530.8039682529977,113.51475574499341L535.507315653214,113.76195197025527L536.2414458455145,115.86072722860456L540.2990490484117,115.20246568922687L540.2992067119503,114.36744137304618L543.4878179466418,113.33696458752308Z" style="fill: inherit; stroke: inherit; stroke-width: inherit;" vector-effect="non-scaling-stroke"><title>Koochiching County</title></path><path id="county-27137" class="county feature" d="M561.4186643914795,120.80907737893426L562.0879411922488,132.95005499307365L562.508470757751,144.1968210585933L558.7948812950353,147.1960175050931L557.4859173907628,149.6336740352491L556.3305136638659,149.6232897970217L556.142096153626,147.75022952548113L546.3890911437416,148.04690616743994L546.3085330174406,143.21467137718162L545.8415551192913,130.34346114791435L545.4896270649901,127.17092151254076L545.087666718611,120.68863909534355L544.9865946630081,113.56596520505616L549.5325304889938,115.05152253913604L550.6957740941615,114.95129718752969L549.7785693908694,116.4556590261883L552.3555743995977,116.64291326950422L554.2295758516718,120.75425685496839L555.4715249814342,120.2197602230674L555.4839382366915,118.24339256017731L558.069176691198,118.0583281479885L558.753241137994,119.7680623599631Z" style="fill: inherit; stroke: inherit; stroke-width: inherit;" vector-effect="non-scaling-stroke"><title>Saint Louis County</title></path><path id="county-27089" class="county feature" d="M513.6303896538204,115.75458826970873L513.7669552741194,122.52020874474852L502.36920953462294,122.49467336186285L494.2598119225679,122.43038912999668L494.32283574541606,122.06528845987305L494.6714212242939,119.64436585450039L494.13590628279144,115.59674866215244L503.81339126833785,115.65583093777059Z" style="fill: inherit; stroke: inherit; stroke-width: inherit;" vector-effect="non-scaling-stroke"><title>Marshall County</title></path><path id="county-27007" class="county feature" d="M528.3475160864328,118.7719425263981L528.6340548616462,128.423247942967L528.7851546971353,135.85827122426167L528.7953706417665,136.47133149823185L525.5696308500777,136.5516894389874L519.0433441992238,136.5765306235886L518.8341385176757,128.0506002686235L517.8072462822332,126.5023840894637L518.3679318340107,125.32397656100682L513.9146495317293,125.34086200080867L513.7669552741194,122.52020874474852L513.6303896538204,115.75458826970873L516.8772227999262,115.71075204924921L518.5051976471611,115.70333527265666L518.5408546039433,118.91953482745066Z" style="fill: inherit; stroke: inherit; stroke-width: inherit;" vector-effect="non-scaling-stroke"><title>Beltrami County</title></path><path id="county-27075" class="county feature" d="M571.050456562152,120.59685371255796L571.8609038194645,133.99200184097674L566.3994267065746,140.57298241180695L562.508470757751,144.1968210585933L562.0879411922488,132.95005499307365L561.4186643914795,120.80907737893426L562.5845884879974,122.34330721738377L564.499707519073,122.41755202252989L564.4519849592948,123.62249060818726L568.4142537905719,122.68312483470663Z" style="fill: inherit; stroke: inherit; stroke-width: inherit;" vector-effect="non-scaling-stroke"><title>Lake County</title></path><path id="county-27119" class="county feature" d="M502.36920953462294,122.49467336186285L502.57493008236304,126.39348610336992L502.5730741547083,128.54413203206855L504.20499588078445,128.5562755605805L504.2126459471401,130.164192153273L510.7219854907488,130.1656741915582L510.719203818033,128.5438651203391L512.3329853032978,128.53403988362595L512.3235100991959,126.91677743267803L513.930747066353,126.94561693123842L514.3215727805264,134.9829409249021L507.80432674206276,135.01684694100754L497.8553596495111,134.95482601851973L497.30261444897445,131.70731666267648L495.7739057529862,128.0285145265392L494.2598119225679,122.43038912999668Z" style="fill: inherit; stroke: inherit; stroke-width: inherit;" vector-effect="non-scaling-stroke"><title>Polk County</title></path><path id="county-27113" class="county feature" d="M513.7669552741194,122.52020874474852L513.9146495317293,125.34086200080867L513.930747066353,126.94561693123842L512.3235100991959,126.91677743267803L512.3173735635661,126.38942870378298L502.57493008236304,126.39348610336992L502.36920953462294,122.49467336186285Z" style="fill: inherit; stroke: inherit; stroke-width: inherit;" vector-effect="non-scaling-stroke"><title>Pennington County</title></path><path id="county-27029" class="county feature" d="M519.0433441992238,136.5765306235886L519.2681377793862,141.40768137782823L514.3886154405171,141.46049139441925L514.3215727805264,134.9829409249021L513.930747066353,126.94561693123842L513.9146495317293,125.34086200080867L518.3679318340107,125.32397656100682L517.8072462822332,126.5023840894637L518.8341385176757,128.0506002686235Z" style="fill: inherit; stroke: inherit; stroke-width: inherit;" vector-effect="non-scaling-stroke"><title>Clearwater County</title></path><path id="county-27125" class="county feature" d="M512.3235100991959,126.91677743267803L512.3329853032978,128.53403988362595L510.719203818033,128.5438651203391L510.7219854907488,130.1656741915582L504.2126459471401,130.164192153273L504.20499588078445,128.5562755605805L502.5730741547083,128.54413203206855L502.57493008236304,126.39348610336992L512.3173735635661,126.38942870378298Z" style="fill: inherit; stroke: inherit; stroke-width: inherit;" vector-effect="non-scaling-stroke"><title>Red Lake County</title></path><path id="county-27061" class="county feature" d="M545.4896270649901,127.17092151254076L545.8415551192913,130.34346114791435L546.3085330174406,143.21467137718162L537.1057359151384,143.39004218874538L536.980092797799,138.80410197860522L533.7694058008794,137.49924533135845L532.5618685436149,135.12339696453762L529.9850778180925,136.38011985227752L528.7851546971353,135.85827122426167L528.6340548616462,128.423247942967L536.7422751803208,128.249966708785L536.7285832221165,127.2775867706905Z" style="fill: inherit; stroke: inherit; stroke-width: inherit;" vector-effect="non-scaling-stroke"><title>Itasca County</title></path><path id="county-27087" class="county feature" d="M514.3886154405171,141.46049139441925L507.8043316313408,141.46971972040694L507.80432674206276,135.01684694100754L514.3215727805264,134.9829409249021Z" style="fill: inherit; stroke: inherit; stroke-width: inherit;" vector-effect="non-scaling-stroke"><title>Mahnomen County</title></path><path id="county-27107" class="county feature" d="M497.8553596495111,134.95482601851973L507.80432674206276,135.01684694100754L507.8043316313408,141.46971972040694L506.1731306123359,141.4784500346443L497.93020055795597,141.43754350637596L498.05427015840735,139.82709334248955Z" style="fill: inherit; stroke: inherit; stroke-width: inherit;" vector-effect="non-scaling-stroke"><title>Norman County</title></path><path id="county-27021" class="county feature" d="M537.1057359151384,143.39004218874538L537.2001600197657,147.62081092560288L529.9272219354806,147.7193622271817L530.2896287152458,157.31841447025488L530.1078662912756,157.5458198730887L529.0233227490759,156.55535135341734L527.6074865505834,157.11846231447896L526.0591604830096,156.28567293712888L525.0477456121697,155.9263290210597L524.4248484688288,155.4491903135522L524.2256625098482,147.8324360014991L525.8563390490973,147.82252619870565L525.5696308500777,136.5516894389874L528.7953706417665,136.47133149823185L528.7851546971353,135.85827122426167L529.9850778180925,136.38011985227752L532.5618685436149,135.12339696453762L533.7694058008794,137.49924533135845L536.980092797799,138.80410197860522Z" style="fill: inherit; stroke: inherit; stroke-width: inherit;" vector-effect="non-scaling-stroke"><title>Cass County</title></path><path id="county-27057" class="county feature" d="M525.5696308500777,136.5516894389874L525.8563390490973,147.82252619870565L524.2256625098482,147.8324360014991L519.3983482670754,147.87049905744993L519.2681377793862,141.40768137782823L519.0433441992238,136.5765306235886Z" style="fill: inherit; stroke: inherit; stroke-width: inherit;" vector-effect="non-scaling-stroke"><title>Hubbard County</title></path><path id="county-27005" class="county feature" d="M519.2681377793862,141.40768137782823L519.3983482670754,147.87049905744993L519.4034016881993,149.49237985051946L506.4149126150221,149.53456558514904L506.1731306123359,141.4784500346443L507.8043316313408,141.46971972040694L514.3886154405171,141.46049139441925Z" style="fill: inherit; stroke: inherit; stroke-width: inherit;" vector-effect="non-scaling-stroke"><title>Becker County</title></path><path id="county-27027" class="county feature" d="M506.1731306123359,141.4784500346443L506.4149126150221,149.53456558514904L506.43964313353564,151.15594179312336L505.0448531275022,151.14961455967807L498.58355658597367,151.12144236331028L498.39421009224105,151.1188677791497L498.3696792600467,148.00425127424796L498.8968333657802,145.4621844561807L497.93433121570234,144.08596043714033L497.93020055795597,141.43754350637596Z" style="fill: inherit; stroke: inherit; stroke-width: inherit;" vector-effect="non-scaling-stroke"><title>Clay County</title></path><path id="county-27001" class="county feature" d="M546.3085330174406,143.21467137718162L546.3890911437416,148.04690616743994L546.6722778767214,154.5052584297315L546.8369807391117,159.36845090573195L541.9427889448716,159.5875947015428L541.9149515283875,157.86985081812156L537.1838595652692,158.0437530265218L536.8380890422515,151.7063683267038L537.2698779661532,151.58733239294213L537.2001600197657,147.62081092560288L537.1057359151384,143.39004218874538Z" style="fill: inherit; stroke: inherit; stroke-width: inherit;" vector-effect="non-scaling-stroke"><title>Aitkin County</title></path><path id="county-27159" class="county feature" d="M524.2256625098482,147.8324360014991L524.4248484688288,155.4491903135522L525.0477456121697,155.9263290210597L519.5671508802785,155.98324430574576L519.4034016881993,149.49237985051946L519.3983482670754,147.87049905744993Z" style="fill: inherit; stroke: inherit; stroke-width: inherit;" vector-effect="non-scaling-stroke"><title>Wadena County</title></path><path id="county-27035" class="county feature" d="M537.2001600197657,147.62081092560288L537.2698779661532,151.58733239294213L536.8380890422515,151.7063683267038L537.1838595652692,158.0437530265218L537.035249694945,159.66137584974592L529.7191414434028,159.79919343540894L530.1078662912756,157.5458198730887L530.2896287152458,157.31841447025488L529.9272219354806,147.7193622271817Z" style="fill: inherit; stroke: inherit; stroke-width: inherit;" vector-effect="non-scaling-stroke"><title>Crow Wing County</title></path><path id="county-27017" class="county feature" d="M556.3305136638659,149.6232897970217L556.5044572332245,154.19907907433708L546.6722778767214,154.5052584297315L546.3890911437416,148.04690616743994L556.142096153626,147.75022952548113Z" style="fill: inherit; stroke: inherit; stroke-width: inherit;" vector-effect="non-scaling-stroke"><title>Carlton County</title></path><path id="county-27111" class="county feature" d="M519.4034016881993,149.49237985051946L519.5671508802785,155.98324430574576L519.7408958526921,160.86763027324912L511.640599454396,160.90080946533237L505.2209274074046,160.8775836123324L505.0448531275022,151.14961455967807L506.43964313353564,151.15594179312336L506.4149126150221,149.53456558514904Z" style="fill: inherit; stroke: inherit; stroke-width: inherit;" vector-effect="non-scaling-stroke"><title>Otter Tail County</title></path><path id="county-27167" class="county feature" d="M505.0448531275022,151.14961455967807L505.2209274074046,160.8775836123324L505.211736452355,162.500993366952L501.17502352617083,162.47910769447049L501.39520136269067,160.71276945680177L500.889860583901,156.71155229829685L499.1495724636242,153.7709467223383L498.58355658597367,151.12144236331028Z" style="fill: inherit; stroke: inherit; stroke-width: inherit;" vector-effect="non-scaling-stroke"><title>Wilkin County</title></path><path id="county-27115" class="county feature" d="M556.5044572332245,154.19907907433708L556.6840062964789,159.03872197123326L556.0504440303799,161.69298033039627L551.4888595963636,164.12627078137382L549.8594136445661,167.26024990128724L545.9375467990893,167.37240139962523L545.7784851340143,162.70521016851194L546.9252051822466,162.6651882127353L546.8369807391117,159.36845090573195L546.6722778767214,154.5052584297315Z" style="fill: inherit; stroke: inherit; stroke-width: inherit;" vector-effect="non-scaling-stroke"><title>Pine County</title></path><path id="county-27153" class="county feature" d="M525.0477456121697,155.9263290210597L526.0591604830096,156.28567293712888L526.3372766688661,166.9988940301522L519.8716416868265,167.08430142901477L519.7408958526921,160.86763027324912L519.5671508802785,155.98324430574576Z" style="fill: inherit; stroke: inherit; stroke-width: inherit;" vector-effect="non-scaling-stroke"><title>Todd County</title></path><path id="county-27097" class="county feature" d="M530.1078662912756,157.5458198730887L529.7191414434028,159.79919343540894L537.035249694945,159.66137584974592L537.109785892176,162.89631172626866L537.650912581176,162.89374518501063L537.7866032633015,165.88430095343654L530.1158043001475,166.04203427350456L531.1834882134995,166.8962014363243L526.3372766688661,166.9988940301522L526.0591604830096,156.28567293712888L527.6074865505834,157.11846231447896L529.0233227490759,156.55535135341734Z" style="fill: inherit; stroke: inherit; stroke-width: inherit;" vector-effect="non-scaling-stroke"><title>Morrison County</title></path><path id="county-27095" class="county feature" d="M541.9427889448716,159.5875947015428L542.0204014122272,162.80446057345773L540.9105216527789,162.82693578978422L541.0825004740267,167.438733132857L541.2104595425684,170.71438784785698L537.9534432710755,170.77938625902505L537.7866032633015,165.88430095343654L537.650912581176,162.89374518501063L537.109785892176,162.89631172626866L537.035249694945,159.66137584974592L537.1838595652692,158.0437530265218L541.9149515283875,157.86985081812156Z" style="fill: inherit; stroke: inherit; stroke-width: inherit;" vector-effect="non-scaling-stroke"><title>Mille Lacs County</title></path><path id="county-27065" class="county feature" d="M546.8369807391117,159.36845090573195L546.9252051822466,162.6651882127353L545.7784851340143,162.70521016851194L545.9375467990893,167.37240139962523L541.0825004740267,167.438733132857L540.9105216527789,162.82693578978422L542.0204014122272,162.80446057345773L541.9427889448716,159.5875947015428Z" style="fill: inherit; stroke: inherit; stroke-width: inherit;" vector-effect="non-scaling-stroke"><title>Kanabec County</title></path><path id="county-27051" class="county feature" d="M505.2209274074046,160.8775836123324L511.640599454396,160.90080946533237L511.81070239261516,167.38161675523793L505.34784889317547,167.38420109277058L505.211736452355,162.500993366952Z" style="fill: inherit; stroke: inherit; stroke-width: inherit;" vector-effect="non-scaling-stroke"><title>Grant County</title></path><path id="county-27041" class="county feature" d="M519.7408958526921,160.86763027324912L519.8716416868265,167.08430142901477L519.8740906934346,167.3549321637131L511.81070239261516,167.38161675523793L511.640599454396,160.90080946533237Z" style="fill: inherit; stroke: inherit; stroke-width: inherit;" vector-effect="non-scaling-stroke"><title>Douglas County</title></path><path id="county-27155" class="county feature" d="M505.211736452355,162.500993366952L505.34784889317547,167.38420109277058L505.35322558909826,170.63880727155583L497.73344580882514,170.5821215089561L497.71552444471274,169.42167900193033L500.13274903378544,167.6229285245514L501.3285959281227,164.0938883913832L501.17502352617083,162.47910769447049Z" style="fill: inherit; stroke: inherit; stroke-width: inherit;" vector-effect="non-scaling-stroke"><title>Traverse County</title></path><path id="county-27009" class="county feature" d="M537.7866032633015,165.88430095343654L537.9534432710755,170.77938625902505L532.8618991994401,170.90001186417464L531.1834882134995,166.8962014363243L530.1158043001475,166.04203427350456Z" style="fill: inherit; stroke: inherit; stroke-width: inherit;" vector-effect="non-scaling-stroke"><title>Benton County</title></path><path id="county-27145" class="county feature" d="M531.1834882134995,166.8962014363243L532.8618991994401,170.90001186417464L534.2470094374935,173.4177979180589L533.241241862255,175.37815915163299L531.4963357121014,176.06482354199295L529.8710353224039,175.29548593538198L524.888153324362,175.3813165877758L524.8717988250314,173.76277474173708L520.0408381362477,173.82430755013513L519.8740906934346,167.3549321637131L519.8716416868265,167.08430142901477L526.3372766688661,166.9988940301522Z" style="fill: inherit; stroke: inherit; stroke-width: inherit;" vector-effect="non-scaling-stroke"><title>Stearns County</title></path><path id="county-27149" class="county feature" d="M511.81070239261516,167.38161675523793L511.96833292956705,173.87190102697787L507.12755415723694,173.88337710574547L505.49517135508984,173.8672551796583L505.35322558909826,170.63880727155583L505.34784889317547,167.38420109277058Z" style="fill: inherit; stroke: inherit; stroke-width: inherit;" vector-effect="non-scaling-stroke"><title>Stevens County</title></path><path id="county-27121" class="county feature" d="M519.8740906934346,167.3549321637131L520.0408381362477,173.82430755013513L518.4225775295495,173.83503074870748L511.96833292956705,173.87190102697787L511.81070239261516,167.38161675523793Z" style="fill: inherit; stroke: inherit; stroke-width: inherit;" vector-effect="non-scaling-stroke"><title>Pope County</title></path><path id="county-27059" class="county feature" d="M545.9375467990893,167.37240139962523L546.0344180798011,170.59269460000598L547.6020323310549,170.5616073162513L547.7199593370098,173.2728146913604L541.2902947529898,173.40269749045865L541.2104595425684,170.71438784785698L541.0825004740267,167.438733132857Z" style="fill: inherit; stroke: inherit; stroke-width: inherit;" vector-effect="non-scaling-stroke"><title>Isanti County</title></path><path id="county-27025" class="county feature" d="M549.8594136445661,167.26024990128724L549.3129177956713,168.88132001719885L549.387424016857,170.15214001431684L550.8369725955195,170.25027140371708L552.5808580454742,172.55664541814576L551.3815408552466,175.3174292324785L547.7920687129697,175.42115718552532L547.7199593370098,173.2728146913604L547.6020323310549,170.5616073162513L546.0344180798011,170.59269460000598L545.9375467990893,167.37240139962523Z" style="fill: inherit; stroke: inherit; stroke-width: inherit;" vector-effect="non-scaling-stroke"><title>Chisago County</title></path><path id="county-27011" class="county feature" d="M497.73344580882514,170.5821215089561L505.35322558909826,170.63880727155583L505.49517135508984,173.8672551796583L507.12755415723694,173.88337710574547L507.2968210140202,178.2797115010693L504.9308253396052,176.95876875170632L502.7115488817175,176.54162520010198L502.48587388706346,175.4635724548889L499.5406278697857,173.69340639571408Z" style="fill: inherit; stroke: inherit; stroke-width: inherit;" vector-effect="non-scaling-stroke"><title>Big Stone County</title></path><path id="county-27141" class="county feature" d="M537.9534432710755,170.77938625902505L541.2104595425684,170.71438784785698L541.2902947529898,173.40269749045865L541.3447649835406,176.5616490028749L541.2217431851291,176.54779316790632L540.4317418599351,175.72171198519743L537.9700172089665,175.68157818637815L534.2470094374935,173.4177979180589L532.8618991994401,170.90001186417464Z" style="fill: inherit; stroke: inherit; stroke-width: inherit;" vector-effect="non-scaling-stroke"><title>Sherburne County</title></path><path id="county-27171" class="county feature" d="M534.2470094374935,173.4177979180589L537.9700172089665,175.68157818637815L540.4317418599351,175.72171198519743L541.2217431851291,176.54779316790632L539.444954168439,177.57396118372787L538.1825227964506,179.69453439810763L538.1196924197116,181.64905987599764L534.8814525094872,181.7069138838151L531.6620467013955,181.75605506170712L531.4963357121014,176.06482354199295L533.241241862255,175.37815915163299Z" style="fill: inherit; stroke: inherit; stroke-width: inherit;" vector-effect="non-scaling-stroke"><title>Wright County</title></path><path id="county-27003" class="county feature" d="M547.7199593370098,173.2728146913604L547.7920687129697,175.42115718552532L547.8745176736427,178.65173647421614L545.1492613053975,178.72217110209317L545.2071641277088,180.38221254790062L544.1297189520981,178.43809516273802L541.3447649835406,176.5616490028749L541.2902947529898,173.40269749045865Z" style="fill: inherit; stroke: inherit; stroke-width: inherit;" vector-effect="non-scaling-stroke"><title>Anoka County</title></path><path id="county-27067" class="county feature" d="M524.888153324362,175.3813165877758L525.0648496056514,183.4953937666628L518.5890039711077,183.57637593978245L518.5740127382467,178.69498064100992L518.4225775295495,173.83503074870748L520.0408381362477,173.82430755013513L524.8717988250314,173.76277474173708Z" style="fill: inherit; stroke: inherit; stroke-width: inherit;" vector-effect="non-scaling-stroke"><title>Kandiyohi County</title></path><path id="county-27151" class="county feature" d="M518.4225775295495,173.83503074870748L518.5740127382467,178.69498064100992L508.17946780243824,178.73819941643933L507.2968210140202,178.2797115010693L507.12755415723694,173.88337710574547L511.96833292956705,173.87190102697787Z" style="fill: inherit; stroke: inherit; stroke-width: inherit;" vector-effect="non-scaling-stroke"><title>Swift County</title></path><path id="county-27093" class="county feature" d="M531.4963357121014,176.06482354199295L531.6620467013955,181.75605506170712L528.4190325964571,181.8063408462889L528.4400662974202,183.44172415338244L525.0648496056514,183.4953937666628L524.888153324362,175.3813165877758L529.8710353224039,175.29548593538198Z" style="fill: inherit; stroke: inherit; stroke-width: inherit;" vector-effect="non-scaling-stroke"><title>Meeker County</title></path><path id="county-27163" class="county feature" d="M551.3815408552466,175.3174292324785L551.2718117895794,176.9382349176219L550.9015072253347,179.39513762798606L551.341758749743,183.4388266339173L550.9588384428882,185.59955892921505L548.2806807375393,185.23932313843534L548.0355083802342,183.02917741184922L548.4897401237495,182.99272704172859L548.3468166979575,178.63884557582992L547.8745176736427,178.65173647421614L547.7920687129697,175.42115718552532Z" style="fill: inherit; stroke: inherit; stroke-width: inherit;" vector-effect="non-scaling-stroke"><title>Washington County</title></path><path id="county-27073" class="county feature" d="M507.2968210140202,178.2797115010693L508.17946780243824,178.73819941643933L511.313861624371,182.499675826253L512.134103481256,182.77092339239425L510.6714130282108,183.60699280904316L510.65501090519854,185.22178731872282L502.6893208025141,185.19109942384887L502.69978629049365,181.99106572029962L502.7115488817175,176.54162520010198L504.9308253396052,176.95876875170632Z" style="fill: inherit; stroke: inherit; stroke-width: inherit;" vector-effect="non-scaling-stroke"><title>Lac qui Parle County</title></path><path id="county-27053" class="county feature" d="M541.2217431851291,176.54779316790632L541.3447649835406,176.5616490028749L544.1297189520981,178.43809516273802L545.2071641277088,180.38221254790062L545.9273535114722,183.11767891553882L543.9555773517042,185.02535377581455L541.4102390066278,184.86705400368135L541.4094666916349,183.19948010389749L538.1484748104208,183.27731895126385L538.1196924197116,181.64905987599764L538.1825227964506,179.69453439810763L539.444954168439,177.57396118372787Z" style="fill: inherit; stroke: inherit; stroke-width: inherit;" vector-effect="non-scaling-stroke"><title>Hennepin County</title></path><path id="county-27023" class="county feature" d="M518.5740127382467,178.69498064100992L518.5890039711077,183.57637593978245L515.4931778684518,183.60809472158235L515.5072062225933,186.18562175190675L512.134103481256,182.77092339239425L511.313861624371,182.499675826253L508.17946780243824,178.73819941643933Z" style="fill: inherit; stroke: inherit; stroke-width: inherit;" vector-effect="non-scaling-stroke"><title>Chippewa County</title></path><path id="county-27123" class="county feature" d="M547.8745176736427,178.65173647421614L548.3468166979575,178.63884557582992L548.4897401237495,182.99272704172859L548.0355083802342,183.02917741184922L545.9273535114722,183.11767891553882L545.2071641277088,180.38221254790062L545.1492613053975,178.72217110209317Z" style="fill: inherit; stroke: inherit; stroke-width: inherit;" vector-effect="non-scaling-stroke"><title>Ramsey County</title></path><path id="county-27085" class="county feature" d="M531.6620467013955,181.75605506170712L534.8814525094872,181.7069138838151L535.0074691414268,186.59486468580758L531.7803367646952,186.64823691138668L531.8009538259103,188.28871859265098L528.5792706532976,188.34878874431558L528.5487005662183,186.7155192634666L528.4400662974202,183.44172415338244L528.4190325964571,181.8063408462889Z" style="fill: inherit; stroke: inherit; stroke-width: inherit;" vector-effect="non-scaling-stroke"><title>McLeod County</title></path><path id="county-27019" class="county feature" d="M538.1196924197116,181.64905987599764L538.1484748104208,183.27731895126385L541.4094666916349,183.19948010389749L541.4102390066278,184.86705400368135L540.2010833013991,186.6453320390725L538.2490828196413,187.96474321346545L536.6185925600881,186.56412317071033L535.0074691414268,186.59486468580758L534.8814525094872,181.7069138838151Z" style="fill: inherit; stroke: inherit; stroke-width: inherit;" vector-effect="non-scaling-stroke"><title>Carver County</title></path><path id="county-27173" class="county feature" d="M515.5072062225933,186.18562175190675L517.1340934769889,187.19494490527256L517.153865169157,190.13262476545754L514.0369982795823,190.13768623609997L513.9110097439294,188.4952644858065L507.428465131346,188.49554610875305L502.6737653295699,188.4658438709106L502.6893208025141,185.19109942384887L510.65501090519854,185.22178731872282L510.6714130282108,183.60699280904316L512.134103481256,182.77092339239425Z" style="fill: inherit; stroke: inherit; stroke-width: inherit;" vector-effect="non-scaling-stroke"><title>Yellow Medicine County</title></path><path id="county-27037" class="county feature" d="M548.0355083802342,183.02917741184922L548.2806807375393,185.23932313843534L550.9588384428882,185.59955892921505L551.9344459682604,186.18186060524L551.2397928437679,189.41552569225735L547.970914460423,190.09209792341903L548.0041555739315,190.85273983489571L544.7852648280443,190.94691779394168L544.751464857421,189.59875084640237L543.9555773517042,185.02535377581455L545.9273535114722,183.11767891553882Z" style="fill: inherit; stroke: inherit; stroke-width: inherit;" vector-effect="non-scaling-stroke"><title>Dakota County</title></path><path id="county-27129" class="county feature" d="M525.0648496056514,183.4953937666628L528.4400662974202,183.44172415338244L528.5487005662183,186.7155192634666L526.8045079866406,186.74991522214475L526.9511732935296,191.62683599521085L524.8659526703067,191.64725533035858L523.730604541969,190.88382603002822L517.1340934769889,187.19494490527256L515.5072062225933,186.18562175190675L515.4931778684518,183.60809472158235L518.5890039711077,183.57637593978245Z" style="fill: inherit; stroke: inherit; stroke-width: inherit;" vector-effect="non-scaling-stroke"><title>Renville County</title></path><path id="county-27139" class="county feature" d="M543.9555773517042,185.02535377581455L544.751464857421,189.59875084640237L541.5264939470571,189.6939369932668L536.3954973200006,189.82521892103603L538.2490828196413,187.96474321346545L540.2010833013991,186.6453320390725L541.4102390066278,184.86705400368135Z" style="fill: inherit; stroke: inherit; stroke-width: inherit;" vector-effect="non-scaling-stroke"><title>Scott County</title></path><path id="county-27143" class="county feature" d="M535.0074691414268,186.59486468580758L536.6185925600881,186.56412317071033L538.2490828196413,187.96474321346545L536.3954973200006,189.82521892103603L536.1868343588911,191.4060484034586L526.9511732935296,191.62683599521085L526.8045079866406,186.74991522214475L528.5487005662183,186.7155192634666L528.5792706532976,188.34878874431558L531.8009538259103,188.28871859265098L531.7803367646952,186.64823691138668Z" style="fill: inherit; stroke: inherit; stroke-width: inherit;" vector-effect="non-scaling-stroke"><title>Sibley County</title></path><path id="county-27049" class="county feature" d="M557.5611753424346,189.2224831674855L558.6111595318872,190.8067717957133L556.1071096431579,190.88724298863417L556.1681824486013,192.51259995532882L554.5684291520166,192.56666405379042L554.6768493975619,195.81682096254042L552.9721769341713,195.86647719556697L548.1359430334467,196.0051463073488L548.0041555739315,190.85273983489571L547.970914460423,190.09209792341903L551.2397928437679,189.41552569225735L551.9344459682604,186.18186060524L554.456553184475,188.8288989463864Z" style="fill: inherit; stroke: inherit; stroke-width: inherit;" vector-effect="non-scaling-stroke"><title>Goodhue County</title></path><path id="county-27127" class="county feature" d="M523.730604541969,190.88382603002822L523.7740793870165,194.92741933420916L520.5545911159362,194.97079534589125L520.5554597125245,196.59397282527857L515.8322086693502,196.61135731874072L514.0838035207049,196.62607611793226L514.0369982795823,190.13768623609997L517.153865169157,190.13262476545754L517.1340934769889,187.19494490527256Z" style="fill: inherit; stroke: inherit; stroke-width: inherit;" vector-effect="non-scaling-stroke"><title>Redwood County</title></path><path id="county-27081" class="county feature" d="M507.428465131346,188.49554610875305L507.61213353968515,196.62012904554012L502.620736333443,196.60417080132117L502.6611956207389,190.10873527005776L502.6737653295699,188.4658438709106Z" style="fill: inherit; stroke: inherit; stroke-width: inherit;" vector-effect="non-scaling-stroke"><title>Lincoln County</title></path><path id="county-27083" class="county feature" d="M514.0369982795823,190.13768623609997L514.0838035207049,196.62607611793226L507.8085319496071,196.6222888678908L507.61213353968515,196.62012904554012L507.428465131346,188.49554610875305L513.9110097439294,188.4952644858065Z" style="fill: inherit; stroke: inherit; stroke-width: inherit;" vector-effect="non-scaling-stroke"><title>Lyon County</title></path><path id="county-27079" class="county feature" d="M541.5264939470571,189.6939369932668L541.6865049542056,196.2036332738046L538.4444980221581,196.2849313017108L538.4301919181463,195.47193903671962L535.1758314952073,195.55125095232336L536.1857023814978,193.54814199235238L536.1868343588911,191.4060484034586L536.3954973200006,189.82521892103603Z" style="fill: inherit; stroke: inherit; stroke-width: inherit;" vector-effect="non-scaling-stroke"><title>Le Sueur County</title></path><path id="county-27131" class="county feature" d="M544.751464857421,189.59875084640237L544.7852648280443,190.94691779394168L548.0041555739315,190.85273983489571L548.1359430334467,196.0051463073488L548.0784880086719,196.0069339309607L543.2665186801819,196.15344268526746L541.6865049542056,196.2036332738046L541.5264939470571,189.6939369932668Z" style="fill: inherit; stroke: inherit; stroke-width: inherit;" vector-effect="non-scaling-stroke"><title>Rice County</title></path><path id="county-27015" class="county feature" d="M524.8659526703067,191.64725533035858L529.0141988920684,193.78543436452765L530.3427407507044,195.15102393193035L530.4552650528336,198.08213047528363L523.8945620857447,198.1908638960698L520.6858508387057,198.2222793736472L520.5554597125245,196.59397282527857L520.5545911159362,194.97079534589125L523.7740793870165,194.92741933420916L523.730604541969,190.88382603002822Z" style="fill: inherit; stroke: inherit; stroke-width: inherit;" vector-effect="non-scaling-stroke"><title>Brown County</title></path><path id="county-27103" class="county feature" d="M535.1758314952073,195.55125095232336L534.4260149740384,197.06146627823102L530.3427407507044,195.15102393193035L529.0141988920684,193.78543436452765L524.8659526703067,191.64725533035858L526.9511732935296,191.62683599521085L536.1868343588911,191.4060484034586L536.1857023814978,193.54814199235238Z" style="fill: inherit; stroke: inherit; stroke-width: inherit;" vector-effect="non-scaling-stroke"><title>Nicollet County</title></path><path id="county-27157" class="county feature" d="M558.6111595318872,190.8067717957133L560.7501573164058,191.60118967313758L562.4541615052506,192.44501555268278L563.9164274902628,195.48395611793717L560.9680957181383,195.60806280393172L561.034623190589,197.22005557134946L557.8375488828538,197.33990778580426L557.7696328911992,195.71084408695162L554.6768493975619,195.81682096254042L554.5684291520166,192.56666405379042L556.1681824486013,192.51259995532882L556.1071096431579,190.88724298863417Z" style="fill: inherit; stroke: inherit; stroke-width: inherit;" vector-effect="non-scaling-stroke"><title>Wabasha County</title></path><path id="county-27013" class="county feature" d="M535.1758314952073,195.55125095232336L538.4301919181463,195.47193903671962L538.4444980221581,196.2849313017108L538.6024194981663,202.80368879646664L532.1711656558199,202.94155323099062L530.5391807361053,202.9716143779898L530.4552650528336,198.08213047528363L530.3427407507044,195.15102393193035L534.4260149740384,197.06146627823102Z" style="fill: inherit; stroke: inherit; stroke-width: inherit;" vector-effect="non-scaling-stroke"><title>Blue Earth County</title></path><path id="county-27117" class="county feature" d="M507.61213353968515,196.62012904554012L507.8085319496071,196.6222888678908L507.7945308206464,203.13186207056947L502.58013606322913,203.1085938376358L502.62072675002895,196.60618350501204L502.620736333443,196.60417080132117Z" style="fill: inherit; stroke: inherit; stroke-width: inherit;" vector-effect="non-scaling-stroke"><title>Pipestone County</title></path><path id="county-27101" class="county feature" d="M514.0838035207049,196.62607611793226L515.8322086693502,196.61135731874072L515.8690990314739,203.13594756009172L507.95823334807267,203.13498405720372L507.7945308206464,203.13186207056947L507.8085319496071,196.6222888678908Z" style="fill: inherit; stroke: inherit; stroke-width: inherit;" vector-effect="non-scaling-stroke"><title>Murray County</title></path><path id="county-27147" class="county feature" d="M548.0784880086719,196.0069339309607L548.2861226322938,202.53033190377812L548.2283406489499,202.53111970159466L543.4445805124586,202.67771756071932L543.2665186801819,196.15344268526746Z" style="fill: inherit; stroke: inherit; stroke-width: inherit;" vector-effect="non-scaling-stroke"><title>Steele County</title></path><path id="county-27039" class="county feature" d="M552.9721769341713,195.86647719556697L553.0550432348873,202.37210396327066L548.2861226322938,202.53033190377812L548.0784880086719,196.0069339309607L548.1359430334467,196.0051463073488Z" style="fill: inherit; stroke: inherit; stroke-width: inherit;" vector-effect="non-scaling-stroke"><title>Dodge County</title></path><path id="county-27161" class="county feature" d="M543.2665186801819,196.15344268526746L543.4445805124586,202.67771756071932L540.2004076495081,202.76111907115637L538.6024194981663,202.80368879646664L538.4444980221581,196.2849313017108L541.6865049542056,196.2036332738046Z" style="fill: inherit; stroke: inherit; stroke-width: inherit;" vector-effect="non-scaling-stroke"><title>Waseca County</title></path><path id="county-27109" class="county feature" d="M554.6768493975619,195.81682096254042L557.7696328911992,195.71084408695162L557.8375488828538,197.33990778580426L561.034623190589,197.22005557134946L561.2354835295935,202.08699853204462L556.2938039914023,202.52523856990842L553.0550432348873,202.37210396327066L552.9721769341713,195.86647719556697Z" style="fill: inherit; stroke: inherit; stroke-width: inherit;" vector-effect="non-scaling-stroke"><title>Olmsted County</title></path><path id="county-27033" class="county feature" d="M520.5554597125245,196.59397282527857L520.6858508387057,198.2222793736472L523.8945620857447,198.1908638960698L523.9626407419739,203.06348807116615L516.0039088330954,203.13417108359624L515.8690990314739,203.13594756009172L515.8322086693502,196.61135731874072Z" style="fill: inherit; stroke: inherit; stroke-width: inherit;" vector-effect="non-scaling-stroke"><title>Cottonwood County</title></path><path id="county-27169" class="county feature" d="M563.9164274902628,195.48395611793717L568.0543979257922,198.44267429535773L569.8854230381448,199.12480375403345L571.89924409258,201.60217715753322L565.9114780858804,201.8894535227504L561.2354835295935,202.08699853204462L561.034623190589,197.22005557134946L560.9680957181383,195.60806280393172Z" style="fill: inherit; stroke: inherit; stroke-width: inherit;" vector-effect="non-scaling-stroke"><title>Winona County</title></path><path id="county-27165" class="county feature" d="M530.4552650528336,198.08213047528363L530.5391807361053,202.9716143779898L524.030032570545,203.06167021770125L523.9626407419739,203.06348807116615L523.8945620857447,198.1908638960698Z" style="fill: inherit; stroke: inherit; stroke-width: inherit;" vector-effect="non-scaling-stroke"><title>Watonwan County</title></path><path id="county-27133" class="county feature" d="M507.7945308206464,203.13186207056947L507.95823334807267,203.13498405720372L507.9449507680173,209.67844755503404L502.5537363807228,209.65905853109155L502.58013606322913,203.1085938376358Z" style="fill: inherit; stroke: inherit; stroke-width: inherit;" vector-effect="non-scaling-stroke"><title>Rock County</title></path><path id="county-27105" class="county feature" d="M515.8690990314739,203.13594756009172L516.0039088330954,203.13417108359624L516.0075644799285,209.6505306710111L510.5341135920409,209.6792930089382L507.9449507680173,209.67844755503404L507.95823334807267,203.13498405720372Z" style="fill: inherit; stroke: inherit; stroke-width: inherit;" vector-effect="non-scaling-stroke"><title>Nobles County</title></path><path id="county-27047" class="county feature" d="M548.2283406489499,202.53111970159466L548.4506988339297,209.06882914456412L542.4038221652999,209.24641899337848L540.3621030604635,209.2955451713309L540.2004076495081,202.76111907115637L543.4445805124586,202.67771756071932Z" style="fill: inherit; stroke: inherit; stroke-width: inherit;" vector-effect="non-scaling-stroke"><title>Freeborn County</title></path><path id="county-27099" class="county feature" d="M553.0550432348873,202.37210396327066L556.2938039914023,202.52523856990842L556.5275337096692,208.77831434889436L555.1251672412607,208.83399750263152L548.7747932765471,209.05872033598132L548.4506988339297,209.06882914456412L548.2283406489499,202.53111970159466L548.2861226322938,202.53033190377812Z" style="fill: inherit; stroke: inherit; stroke-width: inherit;" vector-effect="non-scaling-stroke"><title>Mower County</title></path><path id="county-27055" class="county feature" d="M571.89924409258,201.60217715753322L572.3757742166812,203.80719228308544L572.3163512998807,205.91031442053134L573.1158397794858,208.04961718506866L567.817802750917,208.30341978214676L566.2030349524373,208.37601173885923L565.9114780858804,201.8894535227504Z" style="fill: inherit; stroke: inherit; stroke-width: inherit;" vector-effect="non-scaling-stroke"><title>Houston County</title></path><path id="county-27045" class="county feature" d="M561.2354835295935,202.08699853204462L565.9114780858804,201.8894535227504L566.2030349524373,208.37601173885923L561.5034359595514,208.5796152389962L556.5275337096692,208.77831434889436L556.2938039914023,202.52523856990842Z" style="fill: inherit; stroke: inherit; stroke-width: inherit;" vector-effect="non-scaling-stroke"><title>Fillmore County</title></path><path id="county-27063" class="county feature" d="M523.9626407419739,203.06348807116615L524.030032570545,203.06167021770125L524.0891673260571,209.57266358175002L523.2956240156853,209.58902763130288L516.912571480986,209.65006150853276L516.0075644799285,209.6505306710111L516.0039088330954,203.13417108359624Z" style="fill: inherit; stroke: inherit; stroke-width: inherit;" vector-effect="non-scaling-stroke"><title>Jackson County</title></path><path id="county-27043" class="county feature" d="M538.6024194981663,202.80368879646664L540.2004076495081,202.76111907115637L540.3621030604635,209.2955451713309L536.0124931774125,209.39679731382023L532.2817224191687,209.46092935110096L532.1711656558199,202.94155323099062Z" style="fill: inherit; stroke: inherit; stroke-width: inherit;" vector-effect="non-scaling-stroke"><title>Faribault County</title></path><path id="county-27091" class="county feature" d="M530.5391807361053,202.9716143779898L532.1711656558199,202.94155323099062L532.2817224191687,209.46092935110096L529.6541614986645,209.501635156975L524.0891673260571,209.57266358175002L524.030032570545,203.06167021770125Z" style="fill: inherit; stroke: inherit; stroke-width: inherit;" vector-effect="non-scaling-stroke"><title>Martin County</title></path><path id="county-27077" class="county feature" d="M528.2232318759886,112.60861195551206L528.3475160864328,118.7719425263981L518.5408546039433,118.91953482745066L518.5051976471611,115.70333527265666L516.8772227999262,115.71075204924921L516.8551494742636,112.5205997322297L520.0038276418138,112.49165168615446L519.9493122620489,108.66188962705723L518.1585076750658,109.40020814895342L517.0724296163264,107.24018460327886L519.1651930669008,107.2243872038664L519.1018843294923,100.11864332284154L521.5212474529504,100.35866816044961L523.1630852474085,101.73537463554601L525.0228675005861,109.27450918106035L524.9561812852385,111.23467257872176L526.2550020728997,112.3319472967986Z" style="fill: inherit; stroke: inherit; stroke-width: inherit;" vector-effect="non-scaling-stroke"><title>Lake of the Woods County</title></path><path id="county-27031" class="county feature" d="M571.8609038194645,133.99200184097674L571.050456562152,120.59685371255796L572.8268123996222,119.45341871021787L574.7901930687411,122.15189696523714L582.4214965396619,121.3949018964679L585.8236355008087,123.49709168966706L587.1203931893795,122.74172116507566L589.7105329122622,123.11618218184651L584.6892878087051,126.47859844911409L578.9718661649567,128.67083338550208L575.3790210284246,130.80920906322444Z" style="fill: inherit; stroke: inherit; stroke-width: inherit;" vector-effect="non-scaling-stroke"><title>Cook County</title></path></g><path id="counties-mesh" class="counties mesh" d="M503.62955753369596,107.23964573515741L503.81339126833785,115.65583093777059L494.13590628279144,115.59674866215244L495.00518458707495,112.94145392016537L494.2782786793076,111.6313982926614L493.41103521315995,107.14383674142255L503.62955753369596,107.23964573515741L517.0724296163264,107.24018460327886L518.1585076750658,109.40020814895342L519.9493122620489,108.66188962705723L520.0038276418138,112.49165168615446L516.8551494742636,112.5205997322297L516.8772227999262,115.71075204924921L513.6303896538204,115.75458826970873L503.81339126833785,115.65583093777059M544.9865946630081,113.56596520505616L545.087666718611,120.68863909534355L545.4896270649901,127.17092151254076L536.7285832221165,127.2775867706905L536.7422751803208,128.249966708785L528.6340548616462,128.423247942967L528.3475160864328,118.7719425263981L528.2232318759886,112.60861195551206L529.7364821200845,112.4100227017941L530.8039682529977,113.51475574499341L535.507315653214,113.76195197025527L536.2414458455145,115.86072722860456L540.2990490484117,115.20246568922687L540.2992067119503,114.36744137304618L543.4878179466418,113.33696458752308L544.9865946630081,113.56596520505616L549.5325304889938,115.05152253913604L550.6957740941615,114.95129718752969L549.7785693908694,116.4556590261883L552.3555743995977,116.64291326950422L554.2295758516718,120.75425685496839L555.4715249814342,120.2197602230674L555.4839382366915,118.24339256017731L558.069176691198,118.0583281479885L558.753241137994,119.7680623599631L561.4186643914795,120.80907737893426L562.0879411922488,132.95005499307365L562.508470757751,144.1968210585933L558.7948812950353,147.1960175050931L557.4859173907628,149.6336740352491L556.3305136638659,149.6232897970217L556.142096153626,147.75022952548113L546.3890911437416,148.04690616743994L546.3085330174406,143.21467137718162L545.8415551192913,130.34346114791435L545.4896270649901,127.17092151254076M513.6303896538204,115.75458826970873L513.7669552741194,122.52020874474852L502.36920953462294,122.49467336186285L494.2598119225679,122.43038912999668L494.32283574541606,122.06528845987305L494.6714212242939,119.64436585450039L494.13590628279144,115.59674866215244M528.6340548616462,128.423247942967L528.7851546971353,135.85827122426167L528.7953706417665,136.47133149823185L525.5696308500777,136.5516894389874L519.0433441992238,136.5765306235886L518.8341385176757,128.0506002686235L517.8072462822332,126.5023840894637L518.3679318340107,125.32397656100682L513.9146495317293,125.34086200080867L513.7669552741194,122.52020874474852M516.8772227999262,115.71075204924921L518.5051976471611,115.70333527265666L518.5408546039433,118.91953482745066L528.3475160864328,118.7719425263981M561.4186643914795,120.80907737893426L562.5845884879974,122.34330721738377L564.499707519073,122.41755202252989L564.4519849592948,123.62249060818726L568.4142537905719,122.68312483470663L571.050456562152,120.59685371255796L571.8609038194645,133.99200184097674L566.3994267065746,140.57298241180695L562.508470757751,144.1968210585933M502.36920953462294,122.49467336186285L502.57493008236304,126.39348610336992L502.5730741547083,128.54413203206855L504.20499588078445,128.5562755605805L504.2126459471401,130.164192153273L510.7219854907488,130.1656741915582L510.719203818033,128.5438651203391L512.3329853032978,128.53403988362595L512.3235100991959,126.91677743267803L513.930747066353,126.94561693123842L514.3215727805264,134.9829409249021L507.80432674206276,135.01684694100754L497.8553596495111,134.95482601851973L497.30261444897445,131.70731666267648L495.7739057529862,128.0285145265392L494.2598119225679,122.43038912999668M513.9146495317293,125.34086200080867L513.930747066353,126.94561693123842M512.3235100991959,126.91677743267803L512.3173735635661,126.38942870378298L502.57493008236304,126.39348610336992M519.0433441992238,136.5765306235886L519.2681377793862,141.40768137782823L514.3886154405171,141.46049139441925L514.3215727805264,134.9829409249021M546.3085330174406,143.21467137718162L537.1057359151384,143.39004218874538L536.980092797799,138.80410197860522L533.7694058008794,137.49924533135845L532.5618685436149,135.12339696453762L529.9850778180925,136.38011985227752L528.7851546971353,135.85827122426167M507.8043316313408,141.46971972040694L506.1731306123359,141.4784500346443L497.93020055795597,141.43754350637596L498.05427015840735,139.82709334248955L497.8553596495111,134.95482601851973M514.3886154405171,141.46049139441925L507.8043316313408,141.46971972040694L507.80432674206276,135.01684694100754M537.1057359151384,143.39004218874538L537.2001600197657,147.62081092560288L529.9272219354806,147.7193622271817L530.2896287152458,157.31841447025488L530.1078662912756,157.5458198730887L529.0233227490759,156.55535135341734L527.6074865505834,157.11846231447896L526.0591604830096,156.28567293712888L525.0477456121697,155.9263290210597L524.4248484688288,155.4491903135522L524.2256625098482,147.8324360014991L525.8563390490973,147.82252619870565L525.5696308500777,136.5516894389874M524.2256625098482,147.8324360014991L519.3983482670754,147.87049905744993L519.2681377793862,141.40768137782823M506.4149126150221,149.53456558514904L506.43964313353564,151.15594179312336L505.0448531275022,151.14961455967807L498.58355658597367,151.12144236331028L498.39421009224105,151.1188677791497L498.3696792600467,148.00425127424796L498.8968333657802,145.4621844561807L497.93433121570234,144.08596043714033L497.93020055795597,141.43754350637596M519.3983482670754,147.87049905744993L519.4034016881993,149.49237985051946L506.4149126150221,149.53456558514904L506.1731306123359,141.4784500346443M546.3890911437416,148.04690616743994L546.6722778767214,154.5052584297315L546.8369807391117,159.36845090573195L541.9427889448716,159.5875947015428L541.9149515283875,157.86985081812156L537.1838595652692,158.0437530265218L536.8380890422515,151.7063683267038L537.2698779661532,151.58733239294213L537.2001600197657,147.62081092560288M525.0477456121697,155.9263290210597L519.5671508802785,155.98324430574576L519.4034016881993,149.49237985051946M537.1838595652692,158.0437530265218L537.035249694945,159.66137584974592L529.7191414434028,159.79919343540894L530.1078662912756,157.5458198730887M556.3305136638659,149.6232897970217L556.5044572332245,154.19907907433708L546.6722778767214,154.5052584297315M519.5671508802785,155.98324430574576L519.7408958526921,160.86763027324912L511.640599454396,160.90080946533237L505.2209274074046,160.8775836123324L505.0448531275022,151.14961455967807M505.2209274074046,160.8775836123324L505.211736452355,162.500993366952L501.17502352617083,162.47910769447049L501.39520136269067,160.71276945680177L500.889860583901,156.71155229829685L499.1495724636242,153.7709467223383L498.58355658597367,151.12144236331028M505.34784889317547,167.38420109277058L505.35322558909826,170.63880727155583L497.73344580882514,170.5821215089561L497.71552444471274,169.42167900193033L500.13274903378544,167.6229285245514L501.3285959281227,164.0938883913832L501.17502352617083,162.47910769447049M556.5044572332245,154.19907907433708L556.6840062964789,159.03872197123326L556.0504440303799,161.69298033039627L551.4888595963636,164.12627078137382L549.8594136445661,167.26024990128724L545.9375467990893,167.37240139962523L545.7784851340143,162.70521016851194L546.9252051822466,162.6651882127353L546.8369807391117,159.36845090573195M526.0591604830096,156.28567293712888L526.3372766688661,166.9988940301522L519.8716416868265,167.08430142901477L519.7408958526921,160.86763027324912M537.035249694945,159.66137584974592L537.109785892176,162.89631172626866L537.650912581176,162.89374518501063L537.7866032633015,165.88430095343654L530.1158043001475,166.04203427350456L531.1834882134995,166.8962014363243L526.3372766688661,166.9988940301522M541.9427889448716,159.5875947015428L542.0204014122272,162.80446057345773L540.9105216527789,162.82693578978422L541.0825004740267,167.438733132857L541.2104595425684,170.71438784785698L537.9534432710755,170.77938625902505L537.7866032633015,165.88430095343654M545.9375467990893,167.37240139962523L541.0825004740267,167.438733132857M511.640599454396,160.90080946533237L511.81070239261516,167.38161675523793L505.34784889317547,167.38420109277058L505.211736452355,162.500993366952M507.12755415723694,173.88337710574547L507.2968210140202,178.2797115010693L504.9308253396052,176.95876875170632L502.7115488817175,176.54162520010198L502.48587388706346,175.4635724548889L499.5406278697857,173.69340639571408L497.73344580882514,170.5821215089561M537.9534432710755,170.77938625902505L532.8618991994401,170.90001186417464L531.1834882134995,166.8962014363243M532.8618991994401,170.90001186417464L534.2470094374935,173.4177979180589L533.241241862255,175.37815915163299L531.4963357121014,176.06482354199295L529.8710353224039,175.29548593538198L524.888153324362,175.3813165877758L524.8717988250314,173.76277474173708L520.0408381362477,173.82430755013513L519.8740906934346,167.3549321637131M519.8716416868265,167.08430142901477L519.8740906934346,167.3549321637131L511.81070239261516,167.38161675523793L511.96833292956705,173.87190102697787L507.12755415723694,173.88337710574547L505.49517135508984,173.8672551796583L505.35322558909826,170.63880727155583M520.0408381362477,173.82430755013513L518.4225775295495,173.83503074870748L511.96833292956705,173.87190102697787M545.9375467990893,167.37240139962523L546.0344180798011,170.59269460000598L547.6020323310549,170.5616073162513L547.7199593370098,173.2728146913604L541.2902947529898,173.40269749045865L541.2104595425684,170.71438784785698M549.8594136445661,167.26024990128724L549.3129177956713,168.88132001719885L549.387424016857,170.15214001431684L550.8369725955195,170.25027140371708L552.5808580454742,172.55664541814576L551.3815408552466,175.3174292324785L547.7920687129697,175.42115718552532L547.7199593370098,173.2728146913604M541.2902947529898,173.40269749045865L541.3447649835406,176.5616490028749L541.2217431851291,176.54779316790632L540.4317418599351,175.72171198519743L537.9700172089665,175.68157818637815L534.2470094374935,173.4177979180589M541.2217431851291,176.54779316790632L539.444954168439,177.57396118372787L538.1825227964506,179.69453439810763L538.1196924197116,181.64905987599764L534.8814525094872,181.7069138838151L531.6620467013955,181.75605506170712L531.4963357121014,176.06482354199295M547.7920687129697,175.42115718552532L547.8745176736427,178.65173647421614L545.1492613053975,178.72217110209317L545.2071641277088,180.38221254790062L544.1297189520981,178.43809516273802L541.3447649835406,176.5616490028749M524.888153324362,175.3813165877758L525.0648496056514,183.4953937666628L518.5890039711077,183.57637593978245L518.5740127382467,178.69498064100992L518.4225775295495,173.83503074870748M518.5740127382467,178.69498064100992L508.17946780243824,178.73819941643933L507.2968210140202,178.2797115010693M508.17946780243824,178.73819941643933L511.313861624371,182.499675826253L512.134103481256,182.77092339239425L510.6714130282108,183.60699280904316L510.65501090519854,185.22178731872282L502.6893208025141,185.19109942384887L502.69978629049365,181.99106572029962L502.7115488817175,176.54162520010198M531.6620467013955,181.75605506170712L528.4190325964571,181.8063408462889L528.4400662974202,183.44172415338244L525.0648496056514,183.4953937666628M551.3815408552466,175.3174292324785L551.2718117895794,176.9382349176219L550.9015072253347,179.39513762798606L551.341758749743,183.4388266339173L550.9588384428882,185.59955892921505L548.2806807375393,185.23932313843534L548.0355083802342,183.02917741184922L548.4897401237495,182.99272704172859L548.3468166979575,178.63884557582992L547.8745176736427,178.65173647421614M545.2071641277088,180.38221254790062L545.9273535114722,183.11767891553882L543.9555773517042,185.02535377581455L541.4102390066278,184.86705400368135L541.4094666916349,183.19948010389749L538.1484748104208,183.27731895126385L538.1196924197116,181.64905987599764M518.5890039711077,183.57637593978245L515.4931778684518,183.60809472158235L515.5072062225933,186.18562175190675L512.134103481256,182.77092339239425M548.0355083802342,183.02917741184922L545.9273535114722,183.11767891553882M534.8814525094872,181.7069138838151L535.0074691414268,186.59486468580758L531.7803367646952,186.64823691138668L531.8009538259103,188.28871859265098L528.5792706532976,188.34878874431558L528.5487005662183,186.7155192634666L528.4400662974202,183.44172415338244M541.4102390066278,184.86705400368135L540.2010833013991,186.6453320390725L538.2490828196413,187.96474321346545L536.6185925600881,186.56412317071033L535.0074691414268,186.59486468580758M507.428465131346,188.49554610875305L507.61213353968515,196.62012904554012L502.620736333443,196.60417080132117L502.6611956207389,190.10873527005776L502.6737653295699,188.4658438709106L502.6893208025141,185.19109942384887M515.5072062225933,186.18562175190675L517.1340934769889,187.19494490527256L517.153865169157,190.13262476545754L514.0369982795823,190.13768623609997L513.9110097439294,188.4952644858065L507.428465131346,188.49554610875305L502.6737653295699,188.4658438709106M550.9588384428882,185.59955892921505L551.9344459682604,186.18186060524L551.2397928437679,189.41552569225735L547.970914460423,190.09209792341903L548.0041555739315,190.85273983489571L544.7852648280443,190.94691779394168L544.751464857421,189.59875084640237L543.9555773517042,185.02535377581455M528.5487005662183,186.7155192634666L526.8045079866406,186.74991522214475L526.9511732935296,191.62683599521085L524.8659526703067,191.64725533035858L523.730604541969,190.88382603002822L517.1340934769889,187.19494490527256M544.751464857421,189.59875084640237L541.5264939470571,189.6939369932668L536.3954973200006,189.82521892103603L538.2490828196413,187.96474321346545M536.3954973200006,189.82521892103603L536.1868343588911,191.4060484034586L526.9511732935296,191.62683599521085M551.9344459682604,186.18186060524L554.456553184475,188.8288989463864L557.5611753424346,189.2224831674855L558.6111595318872,190.8067717957133L556.1071096431579,190.88724298863417L556.1681824486013,192.51259995532882L554.5684291520166,192.56666405379042L554.6768493975619,195.81682096254042L552.9721769341713,195.86647719556697L548.1359430334467,196.0051463073488L548.0041555739315,190.85273983489571M523.730604541969,190.88382603002822L523.7740793870165,194.92741933420916L520.5545911159362,194.97079534589125L520.5554597125245,196.59397282527857L515.8322086693502,196.61135731874072L514.0838035207049,196.62607611793226L514.0369982795823,190.13768623609997M514.0838035207049,196.62607611793226L507.8085319496071,196.6222888678908L507.61213353968515,196.62012904554012M541.5264939470571,189.6939369932668L541.6865049542056,196.2036332738046L538.4444980221581,196.2849313017108L538.4301919181463,195.47193903671962L535.1758314952073,195.55125095232336L536.1857023814978,193.54814199235238L536.1868343588911,191.4060484034586M548.1359430334467,196.0051463073488L548.0784880086719,196.0069339309607L543.2665186801819,196.15344268526746L541.6865049542056,196.2036332738046M507.8085319496071,196.6222888678908L507.7945308206464,203.13186207056947L502.58013606322913,203.1085938376358L502.62072675002895,196.60618350501204L502.620736333443,196.60417080132117M524.8659526703067,191.64725533035858L529.0141988920684,193.78543436452765L530.3427407507044,195.15102393193035L530.4552650528336,198.08213047528363L523.8945620857447,198.1908638960698L520.6858508387057,198.2222793736472L520.5554597125245,196.59397282527857M535.1758314952073,195.55125095232336L534.4260149740384,197.06146627823102L530.3427407507044,195.15102393193035M563.9164274902628,195.48395611793717L560.9680957181383,195.60806280393172L561.034623190589,197.22005557134946L557.8375488828538,197.33990778580426L557.7696328911992,195.71084408695162L554.6768493975619,195.81682096254042M538.4444980221581,196.2849313017108L538.6024194981663,202.80368879646664L532.1711656558199,202.94155323099062L530.5391807361053,202.9716143779898L530.4552650528336,198.08213047528363M515.8322086693502,196.61135731874072L515.8690990314739,203.13594756009172L507.95823334807267,203.13498405720372L507.7945308206464,203.13186207056947M548.0784880086719,196.0069339309607L548.2861226322938,202.53033190377812L548.2283406489499,202.53111970159466L543.4445805124586,202.67771756071932L543.2665186801819,196.15344268526746M552.9721769341713,195.86647719556697L553.0550432348873,202.37210396327066L548.2861226322938,202.53033190377812M543.4445805124586,202.67771756071932L540.2004076495081,202.76111907115637L538.6024194981663,202.80368879646664M561.034623190589,197.22005557134946L561.2354835295935,202.08699853204462L556.2938039914023,202.52523856990842L553.0550432348873,202.37210396327066M523.8945620857447,198.1908638960698L523.9626407419739,203.06348807116615L516.0039088330954,203.13417108359624L515.8690990314739,203.13594756009172M558.6111595318872,190.8067717957133L560.7501573164058,191.60118967313758L562.4541615052506,192.44501555268278L563.9164274902628,195.48395611793717L568.0543979257922,198.44267429535773L569.8854230381448,199.12480375403345L571.89924409258,201.60217715753322L565.9114780858804,201.8894535227504L561.2354835295935,202.08699853204462M530.5391807361053,202.9716143779898L524.030032570545,203.06167021770125L523.9626407419739,203.06348807116615M507.95823334807267,203.13498405720372L507.9449507680173,209.67844755503404L502.5537363807228,209.65905853109155L502.58013606322913,203.1085938376358M516.0039088330954,203.13417108359624L516.0075644799285,209.6505306710111L510.5341135920409,209.6792930089382L507.9449507680173,209.67844755503404M548.2283406489499,202.53111970159466L548.4506988339297,209.06882914456412L542.4038221652999,209.24641899337848L540.3621030604635,209.2955451713309L540.2004076495081,202.76111907115637M556.2938039914023,202.52523856990842L556.5275337096692,208.77831434889436L555.1251672412607,208.83399750263152L548.7747932765471,209.05872033598132L548.4506988339297,209.06882914456412M571.89924409258,201.60217715753322L572.3757742166812,203.80719228308544L572.3163512998807,205.91031442053134L573.1158397794858,208.04961718506866L567.817802750917,208.30341978214676L566.2030349524373,208.37601173885923L565.9114780858804,201.8894535227504M566.2030349524373,208.37601173885923L561.5034359595514,208.5796152389962L556.5275337096692,208.77831434889436M524.030032570545,203.06167021770125L524.0891673260571,209.57266358175002L523.2956240156853,209.58902763130288L516.912571480986,209.65006150853276L516.0075644799285,209.6505306710111M540.3621030604635,209.2955451713309L536.0124931774125,209.39679731382023L532.2817224191687,209.46092935110096L532.1711656558199,202.94155323099062M532.2817224191687,209.46092935110096L529.6541614986645,209.501635156975L524.0891673260571,209.57266358175002M517.0724296163264,107.24018460327886L519.1651930669008,107.2243872038664L519.1018843294923,100.11864332284154L521.5212474529504,100.35866816044961L523.1630852474085,101.73537463554601L525.0228675005861,109.27450918106035L524.9561812852385,111.23467257872176L526.2550020728997,112.3319472967986L528.2232318759886,112.60861195551206M571.050456562152,120.59685371255796L572.8268123996222,119.45341871021787L574.7901930687411,122.15189696523714L582.4214965396619,121.3949018964679L585.8236355008087,123.49709168966706L587.1203931893795,122.74172116507566L589.7105329122622,123.11618218184651L584.6892878087051,126.47859844911409L578.9718661649567,128.67083338550208L575.3790210284246,130.80920906322444L571.8609038194645,133.99200184097674" style="fill: inherit; stroke: inherit; stroke-width: inherit;" vector-effect="non-scaling-stroke"></path></svg>