<svg xmlns="http://www.w3.org/2000/svg" version="1.2" id="root" viewBox="493.41103521315995 100.11864332284154 96.29949769910229 109.56064968609667"><g id="counties"><path id="county-27069" class="county feature" d="M503.63 107.24l.183 8.416-9.677-.06.87-2.655-.728-1.31-.867-4.487z" vector-effect="non-scaling-stroke" fill="inherit" stroke="inherit" stroke-width="inherit"><title>Kittson County</title></path><path id="county-27135" class="county feature" d="M516.877 115.71l-3.247.045-9.817-.1-.183-8.415h13.442l1.087 2.16 1.79-.738.055 3.83-3.149.029z" vector-effect="non-scaling-stroke" fill="inherit" stroke="inherit" stroke-width="inherit"><title>Roseau County</title></path><path id="county-27071" class="county feature" d="M544.987 113.566l.1 7.123.403 6.482-8.761.107.013.972-8.108.173-.286-9.651-.125-6.163 1.513-.199 1.068 1.105 4.703.247.734 2.099 4.058-.659v-.835l3.189-1.03z" vector-effect="non-scaling-stroke" fill="inherit" stroke="inherit" stroke-width="inherit"><title>Koochiching County</title></path><path id="county-27137" class="county feature" d="M561.419 120.81l.669 12.14.42 11.247-3.713 2.999-1.31 2.438-1.154-.01-.189-1.874-9.753.297-.08-4.832-.467-12.872-.352-3.172-.402-6.482-.101-7.123 4.546 1.486 1.163-.1-.917 1.504 2.577.187 1.874 4.111 1.242-.534.012-1.977 2.585-.185.684 1.71z" vector-effect="non-scaling-stroke" fill="inherit" stroke="inherit" stroke-width="inherit"><title>Saint Louis County</title></path><path id="county-27089" class="county feature" d="M513.63 115.755l.137 6.765-11.398-.025-8.11-.065.064-.365.348-2.42-.535-4.048 9.677.059z" vector-effect="non-scaling-stroke" fill="inherit" stroke="inherit" stroke-width="inherit"><title>Marshall County</title></path><path id="county-27007" class="county feature" d="M528.348 118.772l.286 9.651.151 7.435.01.613-3.225.08-6.527.026-.209-8.526-1.027-1.549.56-1.178-4.452.017-.148-2.82-.137-6.766 3.247-.044 1.628-.008.036 3.217z" vector-effect="non-scaling-stroke" fill="inherit" stroke="inherit" stroke-width="inherit"><title>Beltrami County</title></path><path id="county-27075" class="county feature" d="M571.05 120.597l.81 13.395-5.46 6.581-3.892 3.624-.42-11.247-.67-12.14 1.167 1.533 1.915.075-.048 1.204 3.962-.939z" vector-effect="non-scaling-stroke" fill="inherit" stroke="inherit" stroke-width="inherit"><title>Lake County</title></path><path id="county-27119" class="county feature" d="M502.37 122.495l.205 3.898-.002 2.151 1.632.012.008 1.608 6.509.002-.003-1.622 1.614-.01-.01-1.617 1.608.029.39 8.037-6.517.034-9.949-.062-.552-3.248-1.53-3.678-1.513-5.599z" vector-effect="non-scaling-stroke" fill="inherit" stroke="inherit" stroke-width="inherit"><title>Polk County</title></path><path id="county-27113" class="county feature" d="M513.767 122.52l.148 2.82.016 1.606-1.607-.03-.007-.527-9.742.004-.206-3.898z" vector-effect="non-scaling-stroke" fill="inherit" stroke="inherit" stroke-width="inherit"><title>Pennington County</title></path><path id="county-27029" class="county feature" d="M519.043 136.577l.225 4.83-4.88.053-.066-6.477-.391-8.037-.016-1.605 4.453-.017-.56 1.178 1.026 1.549z" vector-effect="non-scaling-stroke" fill="inherit" stroke="inherit" stroke-width="inherit"><title>Clearwater County</title></path><path id="county-27125" class="county feature" d="M512.324 126.917l.009 1.617-1.614.01.003 1.622-6.51-.002-.007-1.608-1.632-.012.002-2.15 9.742-.005z" vector-effect="non-scaling-stroke" fill="inherit" stroke="inherit" stroke-width="inherit"><title>Red Lake County</title></path><path id="county-27061" class="county feature" d="M545.49 127.17l.352 3.173.467 12.872-9.203.175-.126-4.586-3.21-1.305-1.208-2.376-2.577 1.257-1.2-.522-.15-7.435 8.107-.173-.013-.972z" vector-effect="non-scaling-stroke" fill="inherit" stroke="inherit" stroke-width="inherit"><title>Itasca County</title></path><path id="county-27087" class="county feature" d="M514.389 141.46l-6.585.01v-6.453l6.518-.034z" vector-effect="non-scaling-stroke" fill="inherit" stroke="inherit" stroke-width="inherit"><title>Mahnomen County</title></path><path id="county-27107" class="county feature" d="M497.855 134.955l9.95.062v6.453l-1.632.008-8.243-.04.124-1.61z" vector-effect="non-scaling-stroke" fill="inherit" stroke="inherit" stroke-width="inherit"><title>Norman County</title></path><path id="county-27021" class="county feature" d="M537.106 143.39l.094 4.23-7.273.1.363 9.598-.182.228-1.085-.99-1.416.562-1.548-.832-1.011-.36-.623-.477-.2-7.617 1.631-.01-.286-11.27 3.225-.08-.01-.614 1.2.522 2.577-1.257 1.207 2.376 3.211 1.305z" vector-effect="non-scaling-stroke" fill="inherit" stroke="inherit" stroke-width="inherit"><title>Cass County</title></path><path id="county-27057" class="county feature" d="M525.57 136.552l.286 11.27-1.63.01-4.828.038-.13-6.462-.225-4.831z" vector-effect="non-scaling-stroke" fill="inherit" stroke="inherit" stroke-width="inherit"><title>Hubbard County</title></path><path id="county-27005" class="county feature" d="M519.268 141.408l.13 6.462.005 1.622-12.988.043-.242-8.057 1.631-.008 6.585-.01z" vector-effect="non-scaling-stroke" fill="inherit" stroke="inherit" stroke-width="inherit"><title>Becker County</title></path><path id="county-27027" class="county feature" d="M506.173 141.478l.242 8.057.025 1.62-1.395-.005-6.461-.029-.19-.002-.024-3.115.527-2.542-.963-1.376-.004-2.648z" vector-effect="non-scaling-stroke" fill="inherit" stroke="inherit" stroke-width="inherit"><title>Clay County</title></path><path id="county-27001" class="county feature" d="M546.309 143.215l.08 4.832.283 6.458.165 4.863-4.894.22-.028-1.718-4.731.174-.346-6.338.432-.119-.07-3.966-.094-4.231z" vector-effect="non-scaling-stroke" fill="inherit" stroke="inherit" stroke-width="inherit"><title>Aitkin County</title></path><path id="county-27159" class="county feature" d="M524.226 147.832l.199 7.617.623.477-5.48.057-.165-6.49-.005-1.623z" vector-effect="non-scaling-stroke" fill="inherit" stroke="inherit" stroke-width="inherit"><title>Wadena County</title></path><path id="county-27035" class="county feature" d="M537.2 147.62l.07 3.967-.432.12.346 6.337-.149 1.617-7.316.138.389-2.253.182-.228-.363-9.599z" vector-effect="non-scaling-stroke" fill="inherit" stroke="inherit" stroke-width="inherit"><title>Crow Wing County</title></path><path id="county-27017" class="county feature" d="M556.33 149.623l.174 4.576-9.832.306-.283-6.458 9.753-.297z" vector-effect="non-scaling-stroke" fill="inherit" stroke="inherit" stroke-width="inherit"><title>Carlton County</title></path><path id="county-27111" class="county feature" d="M519.403 149.492l.164 6.491.174 4.885-8.1.033-6.42-.023-.176-9.728 1.395.006-.025-1.621z" vector-effect="non-scaling-stroke" fill="inherit" stroke="inherit" stroke-width="inherit"><title>Otter Tail County</title></path><path id="county-27167" class="county feature" d="M505.045 151.15l.176 9.728-.01 1.623-4.036-.022.22-1.766-.505-4.001-1.74-2.941-.566-2.65z" vector-effect="non-scaling-stroke" fill="inherit" stroke="inherit" stroke-width="inherit"><title>Wilkin County</title></path><path id="county-27115" class="county feature" d="M556.504 154.2l.18 4.839-.634 2.654-4.561 2.433-1.63 3.134-3.921.112-.16-4.667 1.147-.04-.088-3.297-.165-4.863z" vector-effect="non-scaling-stroke" fill="inherit" stroke="inherit" stroke-width="inherit"><title>Pine County</title></path><path id="county-27153" class="county feature" d="M525.048 155.926l1.011.36.278 10.713-6.465.085-.131-6.216-.174-4.885z" vector-effect="non-scaling-stroke" fill="inherit" stroke="inherit" stroke-width="inherit"><title>Todd County</title></path><path id="county-27097" class="county feature" d="M530.108 157.546l-.389 2.253 7.316-.138.075 3.235.54-.002.137 2.99-7.671.158 1.067.854-4.846.103-.278-10.713 1.548.832 1.416-.563z" vector-effect="non-scaling-stroke" fill="inherit" stroke="inherit" stroke-width="inherit"><title>Morrison County</title></path><path id="county-27095" class="county feature" d="M541.943 159.588l.077 3.216-1.11.023.173 4.612.127 3.275-3.257.065-.166-4.895-.136-2.99-.541.002-.075-3.235.149-1.617 4.731-.174z" vector-effect="non-scaling-stroke" fill="inherit" stroke="inherit" stroke-width="inherit"><title>Mille Lacs County</title></path><path id="county-27065" class="county feature" d="M546.837 159.368l.088 3.297-1.147.04.16 4.667-4.855.067-.172-4.612 1.11-.023-.078-3.216z" vector-effect="non-scaling-stroke" fill="inherit" stroke="inherit" stroke-width="inherit"><title>Kanabec County</title></path><path id="county-27051" class="county feature" d="M505.22 160.878l6.42.023.17 6.48-6.462.003-.136-4.883z" vector-effect="non-scaling-stroke" fill="inherit" stroke="inherit" stroke-width="inherit"><title>Grant County</title></path><path id="county-27041" class="county feature" d="M519.74 160.868l.132 6.216.002.27-8.063.028-.17-6.481z" vector-effect="non-scaling-stroke" fill="inherit" stroke="inherit" stroke-width="inherit"><title>Douglas County</title></path><path id="county-27155" class="county feature" d="M505.212 162.501l.136 4.883.005 3.255-7.62-.057-.017-1.16 2.417-1.8 1.196-3.528-.154-1.615z" vector-effect="non-scaling-stroke" fill="inherit" stroke="inherit" stroke-width="inherit"><title>Traverse County</title></path><path id="county-27009" class="county feature" d="M537.787 165.884l.166 4.895-5.091.121-1.679-4.004-1.067-.854z" vector-effect="non-scaling-stroke" fill="inherit" stroke="inherit" stroke-width="inherit"><title>Benton County</title></path><path id="county-27145" class="county feature" d="M531.183 166.896l1.679 4.004 1.385 2.518-1.006 1.96-1.745.687-1.625-.77-4.983.086-.016-1.618-4.831.061-.167-6.47-.002-.27 6.465-.085z" vector-effect="non-scaling-stroke" fill="inherit" stroke="inherit" stroke-width="inherit"><title>Stearns County</title></path><path id="county-27149" class="county feature" d="M511.81 167.382l.158 6.49-4.84.011-1.633-.016-.142-3.228-.005-3.255z" vector-effect="non-scaling-stroke" fill="inherit" stroke="inherit" stroke-width="inherit"><title>Stevens County</title></path><path id="county-27121" class="county feature" d="M519.874 167.355l.167 6.47-1.618.01-6.455.037-.157-6.49z" vector-effect="non-scaling-stroke" fill="inherit" stroke="inherit" stroke-width="inherit"><title>Pope County</title></path><path id="county-27059" class="county feature" d="M545.938 167.372l.096 3.22 1.568-.03.118 2.71-6.43.13-.08-2.688-.127-3.275z" vector-effect="non-scaling-stroke" fill="inherit" stroke="inherit" stroke-width="inherit"><title>Isanti County</title></path><path id="county-27025" class="county feature" d="M549.86 167.26l-.547 1.621.074 1.271 1.45.098 1.744 2.307-1.2 2.76-3.589.104-.072-2.148-.118-2.711-1.568.03-.096-3.22z" vector-effect="non-scaling-stroke" fill="inherit" stroke="inherit" stroke-width="inherit"><title>Chisago County</title></path><path id="county-27011" class="county feature" d="M497.733 170.582l7.62.057.142 3.228 1.633.016.169 4.397-2.366-1.321-2.22-.417-.225-1.078-2.945-1.77z" vector-effect="non-scaling-stroke" fill="inherit" stroke="inherit" stroke-width="inherit"><title>Big Stone County</title></path><path id="county-27141" class="county feature" d="M537.953 170.78l3.257-.066.08 2.689.055 3.159-.123-.014-.79-.826-2.462-.04-3.723-2.264-1.385-2.518z" vector-effect="non-scaling-stroke" fill="inherit" stroke="inherit" stroke-width="inherit"><title>Sherburne County</title></path><path id="county-27171" class="county feature" d="M534.247 173.418l3.723 2.264 2.462.04.79.826-1.777 1.026-1.262 2.12-.063 1.955-3.239.058-3.219.05-.166-5.692 1.745-.687z" vector-effect="non-scaling-stroke" fill="inherit" stroke="inherit" stroke-width="inherit"><title>Wright County</title></path><path id="county-27003" class="county feature" d="M547.72 173.273l.072 2.148.083 3.23-2.726.071.058 1.66-1.077-1.944-2.785-1.876-.055-3.16z" vector-effect="non-scaling-stroke" fill="inherit" stroke="inherit" stroke-width="inherit"><title>Anoka County</title></path><path id="county-27067" class="county feature" d="M524.888 175.381l.177 8.114-6.476.081-.015-4.881-.151-4.86 1.618-.01 4.83-.062z" vector-effect="non-scaling-stroke" fill="inherit" stroke="inherit" stroke-width="inherit"><title>Kandiyohi County</title></path><path id="county-27151" class="county feature" d="M518.423 173.835l.151 4.86-10.395.043-.882-.458-.17-4.397 4.841-.011z" vector-effect="non-scaling-stroke" fill="inherit" stroke="inherit" stroke-width="inherit"><title>Swift County</title></path><path id="county-27093" class="county feature" d="M531.496 176.065l.166 5.691-3.243.05.021 1.636-3.375.053-.177-8.114 4.983-.086z" vector-effect="non-scaling-stroke" fill="inherit" stroke="inherit" stroke-width="inherit"><title>Meeker County</title></path><path id="county-27163" class="county feature" d="M551.382 175.317l-.11 1.621-.37 2.457.44 4.044-.383 2.16-2.678-.36-.245-2.21.454-.036-.143-4.354-.472.013-.083-3.23z" vector-effect="non-scaling-stroke" fill="inherit" stroke="inherit" stroke-width="inherit"><title>Washington County</title></path><path id="county-27073" class="county feature" d="M507.297 178.28l.882.458 3.135 3.762.82.27-1.463.837-.016 1.615-7.966-.03.01-3.2.013-5.45 2.219.417z" vector-effect="non-scaling-stroke" fill="inherit" stroke="inherit" stroke-width="inherit"><title>Lac qui Parle County</title></path><path id="county-27053" class="county feature" d="M541.222 176.548l.123.014 2.785 1.876 1.077 1.944.72 2.736-1.971 1.907-2.546-.158V183.2l-3.262.078-.028-1.628.063-1.954 1.262-2.121z" vector-effect="non-scaling-stroke" fill="inherit" stroke="inherit" stroke-width="inherit"><title>Hennepin County</title></path><path id="county-27023" class="county feature" d="M518.574 178.695l.015 4.881-3.096.032.014 2.578-3.373-3.415-.82-.271-3.135-3.762z" vector-effect="non-scaling-stroke" fill="inherit" stroke="inherit" stroke-width="inherit"><title>Chippewa County</title></path><path id="county-27123" class="county feature" d="M547.875 178.652l.472-.013.143 4.354-.454.036-2.109.089-.72-2.736-.058-1.66z" vector-effect="non-scaling-stroke" fill="inherit" stroke="inherit" stroke-width="inherit"><title>Ramsey County</title></path><path id="county-27085" class="county feature" d="M531.662 181.756l3.22-.05.125 4.889-3.227.053.021 1.64-3.222.06-.03-1.632-.109-3.274-.021-1.636z" vector-effect="non-scaling-stroke" fill="inherit" stroke="inherit" stroke-width="inherit"><title>McLeod County</title></path><path id="county-27019" class="county feature" d="M538.12 181.65l.028 1.627 3.261-.078.001 1.668-1.209 1.778-1.952 1.32-1.63-1.4-1.612.03-.126-4.888z" vector-effect="non-scaling-stroke" fill="inherit" stroke="inherit" stroke-width="inherit"><title>Carver County</title></path><path id="county-27173" class="county feature" d="M515.507 186.186l1.627 1.009.02 2.938-3.117.005-.126-1.643h-6.483l-4.754-.03.015-3.274 7.966.03.016-1.614 1.463-.836z" vector-effect="non-scaling-stroke" fill="inherit" stroke="inherit" stroke-width="inherit"><title>Yellow Medicine County</title></path><path id="county-27037" class="county feature" d="M548.036 183.03l.245 2.21 2.678.36.975.582-.694 3.234-3.27.676.034.76-3.219.095-.034-1.348-.795-4.574 1.971-1.907z" vector-effect="non-scaling-stroke" fill="inherit" stroke="inherit" stroke-width="inherit"><title>Dakota County</title></path><path id="county-27129" class="county feature" d="M525.065 183.495l3.375-.053.109 3.274-1.744.034.146 4.877-2.085.02-1.135-.763-6.597-3.69-1.627-1.008-.014-2.578 3.096-.032z" vector-effect="non-scaling-stroke" fill="inherit" stroke="inherit" stroke-width="inherit"><title>Renville County</title></path><path id="county-27139" class="county feature" d="M543.956 185.025l.795 4.574-3.225.095-5.13.131 1.853-1.86 1.952-1.32 1.21-1.778z" vector-effect="non-scaling-stroke" fill="inherit" stroke="inherit" stroke-width="inherit"><title>Scott County</title></path><path id="county-27143" class="county feature" d="M535.007 186.595l1.612-.03 1.63 1.4-1.854 1.86-.208 1.581-9.236.22-.146-4.876 1.744-.034.03 1.633 3.222-.06-.02-1.64z" vector-effect="non-scaling-stroke" fill="inherit" stroke="inherit" stroke-width="inherit"><title>Sibley County</title></path><path id="county-27049" class="county feature" d="M557.561 189.222l1.05 1.585-2.504.08.061 1.626-1.6.054.109 3.25-1.705.05-4.836.138-.132-5.152-.033-.76 3.269-.677.694-3.234 2.523 2.647z" vector-effect="non-scaling-stroke" fill="inherit" stroke="inherit" stroke-width="inherit"><title>Goodhue County</title></path><path id="county-27127" class="county feature" d="M523.73 190.884l.044 4.043-3.22.044.001 1.623-4.723.017-1.748.015-.047-6.488 3.117-.005-.02-2.938z" vector-effect="non-scaling-stroke" fill="inherit" stroke="inherit" stroke-width="inherit"><title>Redwood County</title></path><path id="county-27081" class="county feature" d="M507.428 188.496l.184 8.124-4.991-.016.04-6.495.013-1.643z" vector-effect="non-scaling-stroke" fill="inherit" stroke="inherit" stroke-width="inherit"><title>Lincoln County</title></path><path id="county-27083" class="county feature" d="M514.037 190.138l.047 6.488-6.275-.004-.197-.002-.184-8.124h6.483z" vector-effect="non-scaling-stroke" fill="inherit" stroke="inherit" stroke-width="inherit"><title>Lyon County</title></path><path id="county-27079" class="county feature" d="M541.526 189.694l.16 6.51-3.242.08-.014-.812-3.254.08 1.01-2.004v-2.142l.21-1.58z" vector-effect="non-scaling-stroke" fill="inherit" stroke="inherit" stroke-width="inherit"><title>Le Sueur County</title></path><path id="county-27131" class="county feature" d="M544.751 189.599l.034 1.348 3.22-.094.13 5.152-.057.002-4.811.146-1.58.05-.16-6.51z" vector-effect="non-scaling-stroke" fill="inherit" stroke="inherit" stroke-width="inherit"><title>Rice County</title></path><path id="county-27015" class="county feature" d="M524.866 191.647l4.148 2.138 1.329 1.366.112 2.931-6.56.109-3.21.031-.13-1.628v-1.623l3.22-.044-.044-4.043z" vector-effect="non-scaling-stroke" fill="inherit" stroke="inherit" stroke-width="inherit"><title>Brown County</title></path><path id="county-27103" class="county feature" d="M535.176 195.551l-.75 1.51-4.083-1.91-1.329-1.366-4.148-2.138 2.085-.02 9.236-.221-.001 2.142z" vector-effect="non-scaling-stroke" fill="inherit" stroke="inherit" stroke-width="inherit"><title>Nicollet County</title></path><path id="county-27157" class="county feature" d="M558.611 190.807l2.14.794 1.703.844 1.462 3.039-2.948.124.067 1.612-3.197.12-.068-1.63-3.093.107-.109-3.25 1.6-.054-.06-1.626z" vector-effect="non-scaling-stroke" fill="inherit" stroke="inherit" stroke-width="inherit"><title>Wabasha County</title></path><path id="county-27013" class="county feature" d="M535.176 195.551l3.254-.08.014.814.158 6.519-6.43.138-1.633.03-.084-4.89-.112-2.931 4.083 1.91z" vector-effect="non-scaling-stroke" fill="inherit" stroke="inherit" stroke-width="inherit"><title>Blue Earth County</title></path><path id="county-27117" class="county feature" d="M507.612 196.62l.197.002-.014 6.51-5.215-.023.04-6.503v-.002z" vector-effect="non-scaling-stroke" fill="inherit" stroke="inherit" stroke-width="inherit"><title>Pipestone County</title></path><path id="county-27101" class="county feature" d="M514.084 196.626l1.748-.015.037 6.525-7.91-.001-.164-.003.014-6.51z" vector-effect="non-scaling-stroke" fill="inherit" stroke="inherit" stroke-width="inherit"><title>Murray County</title></path><path id="county-27147" class="county feature" d="M548.078 196.007l.208 6.523-.058.001-4.783.147-.178-6.525z" vector-effect="non-scaling-stroke" fill="inherit" stroke="inherit" stroke-width="inherit"><title>Steele County</title></path><path id="county-27039" class="county feature" d="M552.972 195.866l.083 6.506-4.769.158-.208-6.523.058-.002z" vector-effect="non-scaling-stroke" fill="inherit" stroke="inherit" stroke-width="inherit"><title>Dodge County</title></path><path id="county-27161" class="county feature" d="M543.267 196.153l.178 6.525-3.245.083-1.598.043-.158-6.52 3.243-.08z" vector-effect="non-scaling-stroke" fill="inherit" stroke="inherit" stroke-width="inherit"><title>Waseca County</title></path><path id="county-27109" class="county feature" d="M554.677 195.817l3.093-.106.068 1.629 3.197-.12.2 4.867-4.941.438-3.239-.153-.083-6.506z" vector-effect="non-scaling-stroke" fill="inherit" stroke="inherit" stroke-width="inherit"><title>Olmsted County</title></path><path id="county-27033" class="county feature" d="M520.555 196.594l.13 1.628 3.21-.031.068 4.872-7.96.071-.134.002-.037-6.525z" vector-effect="non-scaling-stroke" fill="inherit" stroke="inherit" stroke-width="inherit"><title>Cottonwood County</title></path><path id="county-27169" class="county feature" d="M563.916 195.484l4.138 2.959 1.831.682 2.014 2.477-5.988.287-4.676.198-.2-4.867-.067-1.612z" vector-effect="non-scaling-stroke" fill="inherit" stroke="inherit" stroke-width="inherit"><title>Winona County</title></path><path id="county-27165" class="county feature" d="M530.455 198.082l.084 4.89-6.509.09-.067.001-.068-4.872z" vector-effect="non-scaling-stroke" fill="inherit" stroke="inherit" stroke-width="inherit"><title>Watonwan County</title></path><path id="county-27133" class="county feature" d="M507.795 203.132l.163.003-.013 6.543-5.391-.019.026-6.55z" vector-effect="non-scaling-stroke" fill="inherit" stroke="inherit" stroke-width="inherit"><title>Rock County</title></path><path id="county-27105" class="county feature" d="M515.87 203.136l.134-.002.004 6.517-5.474.028h-2.589l.013-6.544z" vector-effect="non-scaling-stroke" fill="inherit" stroke="inherit" stroke-width="inherit"><title>Nobles County</title></path><path id="county-27047" class="county feature" d="M548.228 202.531l.223 6.538-6.047.177-2.042.05-.162-6.535 3.245-.083z" vector-effect="non-scaling-stroke" fill="inherit" stroke="inherit" stroke-width="inherit"><title>Freeborn County</title></path><path id="county-27099" class="county feature" d="M553.055 202.372l3.239.153.234 6.253-1.403.056-6.35.225-.324.01-.223-6.538h.058z" vector-effect="non-scaling-stroke" fill="inherit" stroke="inherit" stroke-width="inherit"><title>Mower County</title></path><path id="county-27055" class="county feature" d="M571.9 201.602l.476 2.205-.06 2.103.8 2.14-5.298.253-1.615.073-.292-6.487z" vector-effect="non-scaling-stroke" fill="inherit" stroke="inherit" stroke-width="inherit"><title>Houston County</title></path><path id="county-27045" class="county feature" d="M561.235 202.087l4.676-.198.292 6.487-4.7.204-4.975.198-.234-6.253z" vector-effect="non-scaling-stroke" fill="inherit" stroke="inherit" stroke-width="inherit"><title>Fillmore County</title></path><path id="county-27063" class="county feature" d="M523.963 203.063l.067-.001.06 6.51-.794.017-6.383.061h-.905l-.004-6.516z" vector-effect="non-scaling-stroke" fill="inherit" stroke="inherit" stroke-width="inherit"><title>Jackson County</title></path><path id="county-27043" class="county feature" d="M538.602 202.804l1.598-.043.162 6.535-4.35.1-3.73.065-.11-6.52z" vector-effect="non-scaling-stroke" fill="inherit" stroke="inherit" stroke-width="inherit"><title>Faribault County</title></path><path id="county-27091" class="county feature" d="M530.54 202.972l1.631-.03.11 6.519-2.627.04-5.565.072-.059-6.511z" vector-effect="non-scaling-stroke" fill="inherit" stroke="inherit" stroke-width="inherit"><title>Martin County</title></path><path id="county-27077" class="county feature" d="M528.223 112.609l.125 6.163-9.807.148-.036-3.217-1.628.008-.022-3.19 3.149-.03-.055-3.83-1.79.74-1.087-2.16 2.093-.017-.063-7.105 2.42.24 1.641 1.376 1.86 7.54-.067 1.96 1.299 1.097z" vector-effect="non-scaling-stroke" fill="inherit" stroke="inherit" stroke-width="inherit"><title>Lake of the Woods County</title></path><path id="county-27031" class="county feature" d="M571.86 133.992l-.81-13.395 1.777-1.144 1.963 2.699 7.631-.757 3.403 2.102 1.296-.755 2.59.374-5.02 3.363-5.718 2.192-3.593 2.138z" vector-effect="non-scaling-stroke" fill="inherit" stroke="inherit" stroke-width="inherit"><title>Cook County</title></path></g><path id="counties-mesh" class="counties mesh" d="M503.63 107.24l.183 8.416-9.677-.06.87-2.655-.728-1.31-.867-4.487 10.219.096h13.442l1.087 2.16 1.79-.738.055 3.83-3.149.029.022 3.19-3.247.044-9.817-.1m41.174-2.089l.1 7.123.403 6.482-8.761.107.013.972-8.108.173-.286-9.651-.125-6.163 1.513-.199 1.068 1.105 4.703.247.734 2.099 4.058-.659v-.835l3.189-1.03 1.499.229 4.546 1.486 1.163-.1-.917 1.504 2.577.187 1.874 4.111 1.242-.534.012-1.977 2.585-.185.684 1.71 2.666 1.041.669 12.141.42 11.247-3.713 2.999-1.31 2.438-1.154-.01-.189-1.874-9.753.297-.08-4.832-.467-12.872-.352-3.172m-31.86-11.416l.137 6.765-11.398-.025-8.11-.065.064-.365.348-2.42-.535-4.048m34.498 12.826l.151 7.435.01.613-3.225.08-6.527.026-.209-8.526-1.027-1.549.56-1.178-4.452.017-.148-2.82m3.11-6.81l1.628-.008.036 3.217 9.807-.148m33.07 2.037l1.167 1.534 1.915.075-.048 1.204 3.962-.939 2.636-2.086.81 13.395-5.46 6.581-3.892 3.624m-60.139-21.702l.206 3.898-.002 2.151 1.632.012.008 1.608 6.509.002-.003-1.622 1.614-.01-.01-1.617 1.608.029.39 8.037-6.517.034-9.949-.062-.552-3.248-1.53-3.678-1.513-5.599m19.655 2.91l.016 1.606m-1.607-.03l-.007-.527-9.742.004m16.468 10.184l.225 4.83-4.88.053-.066-6.477m31.987 8.232l-9.203.175-.126-4.586-3.21-1.305-1.208-2.376-2.577 1.257-1.2-.522m-20.98 5.612l-1.632.008-8.243-.04.124-1.61-.199-4.873m16.534 6.505l-6.585.01v-6.453m29.302 8.373l.094 4.23-7.273.1.363 9.598-.182.228-1.085-.99-1.416.562-1.548-.832-1.011-.36-.623-.477-.2-7.617 1.631-.01-.286-11.27m-1.344 11.28l-4.828.038-.13-6.462m-12.853 8.127l.025 1.62-1.395-.005-6.461-.029-.19-.002-.024-3.115.527-2.542-.963-1.376-.004-2.648m21.468 6.432l.005 1.622-12.988.043-.242-8.057m40.216 6.569l.283 6.458.165 4.863-4.894.22-.028-1.718-4.731.174-.346-6.338.432-.119-.07-3.966m-12.152 8.305l-5.48.057-.165-6.49m17.78 8.55l-.148 1.618-7.316.138.389-2.253m26.223-7.923l.173 4.576-9.832.306m-27.105 1.478l.174 4.885-8.1.033-6.42-.023-.176-9.728m.176 9.728l-.01 1.623-4.036-.022.22-1.766-.505-4.001-1.74-2.941-.566-2.65m6.764 16.263l.005 3.255-7.62-.057-.017-1.16 2.417-1.8 1.196-3.528-.154-1.615m55.33-8.28l.179 4.84-.634 2.654-4.561 2.433-1.63 3.134-3.921.112-.16-4.667 1.147-.04-.088-3.297m-20.778-3.082l.278 10.713-6.465.085-.131-6.216m17.294-1.207l.075 3.235.54-.002.137 2.99-7.671.158 1.067.854-4.846.103m15.606-7.411l.077 3.216-1.11.023.173 4.612.127 3.275-3.257.065-.166-4.895m8.15 1.488l-4.854.067M511.64 160.9l.17 6.48-6.463.003-.136-4.883m1.916 11.382l.169 4.397-2.366-1.321-2.22-.417-.225-1.078-2.945-1.77-1.808-3.112m40.22.197l-5.091.121-1.679-4.004m1.679 4.004l1.385 2.518-1.006 1.96-1.745.687-1.625-.77-4.983.086-.016-1.618-4.831.061-.167-6.47m-.002-.27l.002.27-8.063.028.157 6.49-4.84.011-1.633-.016-.142-3.228m14.688 3.185l-1.618.011-6.455.037m33.97-6.5l.096 3.22 1.568-.03.118 2.71-6.43.13-.08-2.688m8.65-3.454l-.547 1.621.074 1.271 1.45.098 1.744 2.307-1.2 2.76-3.589.104-.072-2.148m-6.43.13l.055 3.159-.123-.014-.79-.826-2.462-.04-3.723-2.264m6.975 3.13l-1.777 1.026-1.262 2.12-.063 1.955-3.239.058-3.219.05-.166-5.692m16.296-.644l.083 3.23-2.726.071.058 1.66-1.077-1.944-2.785-1.876m-16.457-1.18l.177 8.113-6.476.081-.015-4.881-.151-4.86m.151 4.86l-10.395.043-.882-.458m.882.458l3.135 3.762.82.27-1.463.837-.016 1.615-7.966-.03.01-3.2.013-5.45m28.95 5.214l-3.243.05.021 1.636-3.375.053m26.317-8.178l-.11 1.621-.37 2.457.44 4.044-.383 2.16-2.678-.36-.245-2.21.454-.036-.143-4.354-.472.013m-2.668 1.73l.72 2.736-1.971 1.907-2.546-.158V183.2l-3.262.078-.028-1.628m-19.531 1.927l-3.096.032.014 2.578-3.373-3.415m35.902.258l-2.109.089m-11.046-1.411l.126 4.888-3.227.053.021 1.64-3.222.06-.03-1.632-.109-3.274m12.97 1.425l-1.209 1.778-1.952 1.32-1.63-1.4-1.612.03m-27.579 1.9l.184 8.125-4.991-.016.04-6.495.013-1.643.015-3.275m12.818.995l1.627 1.009.02 2.938-3.117.005-.126-1.643h-6.483l-4.754-.03m48.285-2.865l.975.582-.694 3.234-3.27.676.034.76-3.219.095-.034-1.348-.795-4.574m-15.407 1.69l-1.744.035.146 4.877-2.085.02-1.135-.763-6.597-3.69m27.617 2.405l-3.225.095-5.13.131 1.853-1.86m-1.854 1.86l-.208 1.581-9.236.22m24.983-5.444l2.523 2.647 3.104.393 1.05 1.585-2.504.08.061 1.626-1.6.054.109 3.25-1.705.05-4.836.138-.132-5.152m-24.273.03l.043 4.044-3.22.044.001 1.623-4.723.017-1.748.015-.047-6.488m.047 6.488l-6.275-.004-.197-.002m33.914-6.926l.16 6.51-3.242.08-.014-.812-3.254.08 1.01-2.004v-2.142m11.95 4.6h-.058l-4.811.147-1.58.05m-33.878.42l-.014 6.509-5.215-.023.04-6.503v-.002m22.246-4.957l4.148 2.138 1.329 1.366.112 2.931-6.56.109-3.21.031-.13-1.628m14.62-1.043l-.749 1.51-4.083-1.91m33.573.333l-2.948.124.067 1.612-3.197.12-.068-1.63-3.093.107m-16.233.468l.158 6.519-6.43.138-1.633.03-.084-4.89m-14.623-1.47l.037 6.524-7.91-.001-.164-.003m40.283-7.125l.208 6.523-.058.001-4.783.147-.178-6.525m9.705-.287l.083 6.506-4.769.158m-4.841.148l-3.245.083-1.598.043m22.433-5.584l.2 4.867-4.941.438-3.239-.153m-29.16-4.181l.068 4.872-7.96.071-.134.002m42.742-12.33l2.14.795 1.703.844 1.462 3.039 4.138 2.959 1.831.682 2.014 2.477-5.988.287-4.676.198m-30.696.885l-6.509.09-.067.001m-16.005.072l-.013 6.543-5.391-.019.026-6.55m13.424.025l.004 6.517-5.474.028h-2.589m40.283-7.148l.223 6.538-6.047.177-2.042.05-.162-6.535m16.094-.236l.234 6.253-1.403.056-6.35.225-.324.01m23.448-7.467l.477 2.205-.06 2.103.8 2.14-5.298.253-1.615.073-.292-6.487m.292 6.487l-4.7.204-4.975.198m-32.498-5.716l.06 6.51-.794.017-6.383.061h-.905m24.354-.354l-4.35.1-3.73.065-.11-6.52m.11 6.52l-2.628.04-5.565.072m-7.017-102.333l2.093-.016-.063-7.105 2.42.24 1.641 1.376 1.86 7.54-.067 1.96 1.299 1.097 1.968.277m42.827 7.988l1.777-1.144 1.963 2.699 7.631-.757 3.403 2.102 1.296-.755 2.59.374-5.02 3.363-5.718 2.192-3.593 2.138-3.518 3.183" vector-effect="non-scaling-stroke" fill="inherit" stroke="inherit" stroke-width="inherit"/></svg>