<?xml version="1.0" standalone="yes"?>
<svg xmlns="http://www.w3.org/2000/svg" version="1.2" id="root" viewBox="511.9566392212373 262.8870376133274 98.59925016174577 85.64488381248157"><g id="counties"><path id="county-29045" class="county feature" d="M573.2282662554521,266.8351899229393L572.2468311216096,269.3260534305125L565.8374038592733,269.45452660131593L565.817588812613,268.63279339598046L565.6685742276857,262.88796453487555L568.8501661352944,262.8870376133274Z" style="fill: inherit; stroke: inherit; stroke-width: inherit;" vector-effect="non-scaling-stroke"><title>Clark County</title></path><path id="county-29199" class="county feature" d="M565.6685742276857,262.88796453487555L565.817588812613,268.63279339598046L560.2017364310964,268.8240070148638L560.1397290748438,268.0019548063045L559.9482414933167,263.2810133672963L562.3456589449022,263.1249891961544Z" style="fill: inherit; stroke: inherit; stroke-width: inherit;" vector-effect="non-scaling-stroke"><title>Scotland County</title></path><path id="county-29197" class="county feature" d="M560.1397290748438,268.0019548063045L555.4307525595165,268.23232000487155L555.4389111797087,265.27925530725986L554.8454954372371,263.6161002087821L555.9187251088101,263.55121472454414L559.9482414933167,263.2810133672963Z" style="fill: inherit; stroke: inherit; stroke-width: inherit;" vector-effect="non-scaling-stroke"><title>Schuyler County</title></path><path id="county-29171" class="county feature" d="M554.8454954372371,263.6161002087821L555.4389111797087,265.27925530725986L555.4307525595165,268.23232000487155L553.0121093241797,268.327713200635L552.9902537766609,267.5143095788675L545.7835599609822,267.7881013147654L545.5746260666759,264.0745698564526L549.4671144561868,263.89350930005344Z" style="fill: inherit; stroke: inherit; stroke-width: inherit;" vector-effect="non-scaling-stroke"><title>Putnam County</title></path><path id="county-29005" class="county feature" d="M517.4629525527541,264.5524603026091L519.8756289351788,264.5738543949569L520.2349332401085,270.5377399411751L514.9472203570501,270.5152268791727L514.1120701075516,269.58773908978276L512.7423855901758,265.64478639728384L511.9566392212373,264.4893534111261Z" style="fill: inherit; stroke: inherit; stroke-width: inherit;" vector-effect="non-scaling-stroke"><title>Atchison County</title></path><path id="county-29129" class="county feature" d="M545.5746260666759,264.0745698564526L545.7835599609822,267.7881013147654L545.8393857470379,269.9856195206406L540.2458534329919,270.17449632458624L539.9554455424772,264.2706467566019L543.0117642543828,264.14495201763066Z" style="fill: inherit; stroke: inherit; stroke-width: inherit;" vector-effect="non-scaling-stroke"><title>Mercer County</title></path><path id="county-29147" class="county feature" d="M523.9188232342913,264.59654649788445L527.8967485340602,264.6150342240835L528.4224732343862,268.0868214047415L528.3882267592512,272.99766891204024L522.2014621458961,272.9992840947333L521.7762253979321,270.54482081389506L520.2349332401085,270.5377399411751L519.8756289351788,264.5738543949569Z" style="fill: inherit; stroke: inherit; stroke-width: inherit;" vector-effect="non-scaling-stroke"><title>Nodaway County</title></path><path id="county-29081" class="county feature" d="M539.9554455424772,264.2706467566019L540.2458534329919,270.17449632458624L540.2937854461236,272.6427286542237L533.8845468304821,272.7083894435997L533.8375270625532,268.04358476824154L533.5187497668454,264.51216440349583L536.5660851338519,264.41556748858125Z" style="fill: inherit; stroke: inherit; stroke-width: inherit;" vector-effect="non-scaling-stroke"><title>Harrison County</title></path><path id="county-29227" class="county feature" d="M533.5187497668454,264.51216440349583L533.8375270625532,268.04358476824154L528.4224732343862,268.0868214047415L527.8967485340602,264.6150342240835L530.1579460066866,264.59069397568044Z" style="fill: inherit; stroke: inherit; stroke-width: inherit;" vector-effect="non-scaling-stroke"><title>Worth County</title></path><path id="county-29211" class="county feature" d="M553.0121093241797,268.327713200635L553.1974208137748,274.08095801902766L546.0374012517481,274.3778129195729L545.8393857470379,269.9856195206406L545.7835599609822,267.7881013147654L552.9902537766609,267.5143095788675Z" style="fill: inherit; stroke: inherit; stroke-width: inherit;" vector-effect="non-scaling-stroke"><title>Sullivan County</title></path><path id="county-29075" class="county feature" d="M533.8375270625532,268.04358476824154L533.8845468304821,272.7083894435997L533.8950838634107,274.6257268409281L528.4173497359037,274.63625126947136L528.3882267592512,272.99766891204024L528.4224732343862,268.0868214047415Z" style="fill: inherit; stroke: inherit; stroke-width: inherit;" vector-effect="non-scaling-stroke"><title>Gentry County</title></path><path id="county-29001" class="county feature" d="M560.1397290748438,268.0019548063045L560.2017364310964,268.8240070148638L560.4346365844216,273.8230047631298L553.3193733927332,274.07590417064284L553.1974208137748,274.08095801902766L553.0121093241797,268.327713200635L555.4307525595165,268.23232000487155Z" style="fill: inherit; stroke: inherit; stroke-width: inherit;" vector-effect="non-scaling-stroke"><title>Adair County</title></path><path id="county-29103" class="county feature" d="M565.817588812613,268.63279339598046L565.8374038592733,269.45452660131593L566.0589931400334,275.25045267521523L561.3000367531927,275.3911145154084L560.4346365844216,273.8230047631298L560.2017364310964,268.8240070148638Z" style="fill: inherit; stroke: inherit; stroke-width: inherit;" vector-effect="non-scaling-stroke"><title>Knox County</title></path><path id="county-29079" class="county feature" d="M545.8393857470379,269.9856195206406L546.0374012517481,274.3778129195729L546.0716215323284,275.6103270496236L540.4011604280396,275.9077175412451L540.2937854461236,272.6427286542237L540.2458534329919,270.17449632458624Z" style="fill: inherit; stroke: inherit; stroke-width: inherit;" vector-effect="non-scaling-stroke"><title>Grundy County</title></path><path id="county-29087" class="county feature" d="M520.2349332401085,270.5377399411751L521.7762253979321,270.54482081389506L522.2014621458961,272.9992840947333L522.9486597214252,277.36795688005793L521.6559226429782,278.0603690799728L518.4661134873296,275.48347173441243L516.8619807962244,274.4312698694364L517.1944125191194,273.1365410557794L514.9829628564619,270.56971406780076L514.9472203570501,270.5152268791727Z" style="fill: inherit; stroke: inherit; stroke-width: inherit;" vector-effect="non-scaling-stroke"><title>Holt County</title></path><path id="county-29111" class="county feature" d="M572.2468311216096,269.3260534305125L572.1733059162248,270.23946465601307L572.470972001338,273.30192252769336L573.392524758255,274.9970251152249L567.6522588382014,275.20492652254813L566.0589931400334,275.25045267521523L565.8374038592733,269.45452660131593Z" style="fill: inherit; stroke: inherit; stroke-width: inherit;" vector-effect="non-scaling-stroke"><title>Lewis County</title></path><path id="county-29061" class="county feature" d="M533.8845468304821,272.7083894435997L540.2937854461236,272.6427286542237L540.4011604280396,275.9077175412451L540.5195881460786,279.20217904271783L534.170732853149,279.25697229427885L533.8950838634107,274.6257268409281Z" style="fill: inherit; stroke: inherit; stroke-width: inherit;" vector-effect="non-scaling-stroke"><title>Daviess County</title></path><path id="county-29003" class="county feature" d="M528.3882267592512,272.99766891204024L528.4173497359037,274.63625126947136L528.5137714886598,278.7737768901118L524.6268969443901,278.806081176269L522.9486597214252,277.36795688005793L522.2014621458961,272.9992840947333Z" style="fill: inherit; stroke: inherit; stroke-width: inherit;" vector-effect="non-scaling-stroke"><title>Andrew County</title></path><path id="county-29121" class="county feature" d="M560.4346365844216,273.8230047631298L561.3000367531927,275.3911145154084L561.3968684555059,281.9316874173571L561.3764188029081,281.9324838876639L555.8001792200777,282.04390082780117L555.7838140942464,280.399146212084L553.382121808554,280.435119567274L553.3193733927332,274.07590417064284Z" style="fill: inherit; stroke: inherit; stroke-width: inherit;" vector-effect="non-scaling-stroke"><title>Macon County</title></path><path id="county-29115" class="county feature" d="M553.3193733927332,274.07590417064284L553.382121808554,280.435119567274L547.5580977751009,280.5483240794596L546.1637029091119,280.58365926672275L546.0716215323284,275.6103270496236L546.0374012517481,274.3778129195729L553.1974208137748,274.08095801902766Z" style="fill: inherit; stroke: inherit; stroke-width: inherit;" vector-effect="non-scaling-stroke"><title>Linn County</title></path><path id="county-29063" class="county feature" d="M533.8950838634107,274.6257268409281L534.170732853149,279.25697229427885L534.1809561276392,280.0689107914611L528.5440422427022,280.13825232816896L528.5137714886598,278.7737768901118L528.4173497359037,274.63625126947136Z" style="fill: inherit; stroke: inherit; stroke-width: inherit;" vector-effect="non-scaling-stroke"><title>DeKalb County</title></path><path id="county-29117" class="county feature" d="M547.5580977751009,280.5483240794596L547.4420918122578,282.2088083266408L540.6068193064946,282.46732908242427L540.5195881460786,279.20217904271783L540.4011604280396,275.9077175412451L546.0716215323284,275.6103270496236L546.1637029091119,280.58365926672275Z" style="fill: inherit; stroke: inherit; stroke-width: inherit;" vector-effect="non-scaling-stroke"><title>Livingston County</title></path><path id="county-29205" class="county feature" d="M566.0589931400334,275.25045267521523L567.6522588382014,275.20492652254813L567.7992525131256,280.6647672051041L562.9841718270803,280.7836305437369L563.0030623789573,281.89147036866973L561.3968684555059,281.9316874173571L561.3000367531927,275.3911145154084Z" style="fill: inherit; stroke: inherit; stroke-width: inherit;" vector-effect="non-scaling-stroke"><title>Shelby County</title></path><path id="county-29127" class="county feature" d="M573.392524758255,274.9970251152249L573.4895717766927,276.9099850937115L574.5506040870142,278.46112903228277L575.4819628508865,279.82645346230515L569.6396636635056,280.0539736716446L569.6743787842081,280.59667681151655L567.7992525131256,280.6647672051041L567.6522588382014,275.20492652254813Z" style="fill: inherit; stroke: inherit; stroke-width: inherit;" vector-effect="non-scaling-stroke"><title>Marion County</title></path><path id="county-29021" class="county feature" d="M528.5137714886598,278.7737768901118L528.5440422427022,280.13825232816896L528.6195005411273,284.2241337432789L521.4594852253267,284.25593134197436L522.1288174866154,282.54928084916435L523.5152068254012,280.2342463349306L524.5405515924898,280.5759688840876L524.6268969443901,278.806081176269Z" style="fill: inherit; stroke: inherit; stroke-width: inherit;" vector-effect="non-scaling-stroke"><title>Buchanan County</title></path><path id="county-29025" class="county feature" d="M540.5195881460786,279.20217904271783L540.6068193064946,282.46732908242427L540.6351658933866,284.10341725785077L534.2177687431805,284.18992959218497L534.1809561276392,280.0689107914611L534.170732853149,279.25697229427885Z" style="fill: inherit; stroke: inherit; stroke-width: inherit;" vector-effect="non-scaling-stroke"><title>Caldwell County</title></path><path id="county-29049" class="county feature" d="M534.1809561276392,280.0689107914611L534.2177687431805,284.18992959218497L534.217898188617,285.5571826218743L528.6452219545625,285.6233213411548L528.6195005411273,284.2241337432789L528.5440422427022,280.13825232816896Z" style="fill: inherit; stroke: inherit; stroke-width: inherit;" vector-effect="non-scaling-stroke"><title>Clinton County</title></path><path id="county-29041" class="county feature" d="M553.382121808554,280.435119567274L555.7838140942464,280.399146212084L555.8001792200777,282.04390082780117L555.768837971276,287.49106944659627L554.5690533446308,287.1187110891143L553.8007025594277,289.357399319714L550.0501698196796,286.50805200806894L548.2514287336775,285.56784582342823L547.4420918122578,282.2088083266408L547.5580977751009,280.5483240794596Z" style="fill: inherit; stroke: inherit; stroke-width: inherit;" vector-effect="non-scaling-stroke"><title>Chariton County</title></path><path id="county-29173" class="county feature" d="M575.4819628508865,279.82645346230515L577.3708825761544,281.3508347815957L573.4865723646739,284.3231785450505L573.9184954034843,286.796466464373L569.9039615211744,286.5971275057334L569.6743787842081,280.59667681151655L569.6396636635056,280.0539736716446Z" style="fill: inherit; stroke: inherit; stroke-width: inherit;" vector-effect="non-scaling-stroke"><title>Ralls County</title></path><path id="county-29137" class="county feature" d="M567.7992525131256,280.6647672051041L569.6743787842081,280.59667681151655L569.9039615211744,286.5971275057334L561.4319491738228,286.7894524268603L561.3764188029081,281.9324838876639L561.3968684555059,281.9316874173571L563.0030623789573,281.89147036866973L562.9841718270803,280.7836305437369Z" style="fill: inherit; stroke: inherit; stroke-width: inherit;" vector-effect="non-scaling-stroke"><title>Monroe County</title></path><path id="county-29033" class="county feature" d="M547.4420918122578,282.2088083266408L548.2514287336775,285.56784582342823L550.0501698196796,286.50805200806894L548.9982031371287,286.00883750504454L548.2853670378199,287.61227400684004L546.7617750349444,288.06511384239013L545.8053206378058,289.55345269574093L544.7706882106279,288.37169007069406L544.6535460305028,289.5793255114711L542.3155021360507,289.27545349196123L540.7865909746239,290.08835920896695L540.6351658933866,284.10341725785077L540.6068193064946,282.46732908242427Z" style="fill: inherit; stroke: inherit; stroke-width: inherit;" vector-effect="non-scaling-stroke"><title>Carroll County</title></path><path id="county-29175" class="county feature" d="M561.3764188029081,281.9324838876639L561.4319491738228,286.7894524268603L561.4444233751136,288.70034415991756L559.788322154524,288.72000840361045L555.768837971276,287.49106944659627L555.8001792200777,282.04390082780117Z" style="fill: inherit; stroke: inherit; stroke-width: inherit;" vector-effect="non-scaling-stroke"><title>Randolph County</title></path><path id="county-29163" class="county feature" d="M584.2513813870789,288.0458685836812L577.6586956905139,288.33749406849984L577.7067380794995,289.99605663642444L576.6313023194712,290.03900260525666L574.499610137907,290.09403982593005L573.9184954034843,286.796466464373L573.4865723646739,284.3231785450505L577.3708825761544,281.3508347815957L579.6666970252712,284.1951509478116L581.0038924392323,284.90733614174974L583.5077132980811,286.7025622469764Z" style="fill: inherit; stroke: inherit; stroke-width: inherit;" vector-effect="non-scaling-stroke"><title>Pike County</title></path><path id="county-29165" class="county feature" d="M521.4594852253267,284.25593134197436L528.6195005411273,284.2241337432789L528.6452219545625,285.6233213411548L528.7172310012314,291.2139088551944L526.2265628593537,290.50689432066736L524.4141611331851,288.62908208927945L524.6901095693601,287.1928248463274L523.3930804824474,286.394300743495Z" style="fill: inherit; stroke: inherit; stroke-width: inherit;" vector-effect="non-scaling-stroke"><title>Platte County</title></path><path id="county-29177" class="county feature" d="M540.6351658933866,284.10341725785077L540.7865909746239,290.08835920896695L539.8419903775323,289.96241644024553L535.8419467086417,291.3953433146752L534.2800633508209,290.22527876604306L534.217898188617,285.5571826218743L534.2177687431805,284.18992959218497Z" style="fill: inherit; stroke: inherit; stroke-width: inherit;" vector-effect="non-scaling-stroke"><title>Ray County</title></path><path id="county-29047" class="county feature" d="M528.6452219545625,285.6233213411548L534.217898188617,285.5571826218743L534.2800633508209,290.22527876604306L532.949929951655,289.79081087461145L530.7366863568643,291.9221057748424L528.6476336193382,292.08599629814944L528.7172310012314,291.2139088551944Z" style="fill: inherit; stroke: inherit; stroke-width: inherit;" vector-effect="non-scaling-stroke"><title>Clay County</title></path><path id="county-29195" class="county feature" d="M550.0501698196796,286.50805200806894L553.8007025594277,289.357399319714L552.5007021441137,291.3372555054401L552.6755542637374,292.444225263549L551.0963061416523,295.06600733121445L544.6722246107701,294.97475262234263L544.7706882106279,288.37169007069406L545.8053206378058,289.55345269574093L546.7617750349444,288.06511384239013L548.2853670378199,287.61227400684004L548.9982031371287,286.00883750504454Z" style="fill: inherit; stroke: inherit; stroke-width: inherit;" vector-effect="non-scaling-stroke"><title>Saline County</title></path><path id="county-29007" class="county feature" d="M569.9039615211744,286.5971275057334L573.9184954034843,286.796466464373L574.499610137907,290.09403982593005L571.3265929736832,290.14335880111366L571.3468456848703,291.81729177804266L564.5032483264562,292.01737534737276L564.4499723631075,288.7050827419009L561.4444233751136,288.70034415991756L561.4319491738228,286.7894524268603Z" style="fill: inherit; stroke: inherit; stroke-width: inherit;" vector-effect="non-scaling-stroke"><title>Audrain County</title></path><path id="county-29089" class="county feature" d="M558.1487943406645,294.02210995886L554.0629938261947,293.9968237226569L552.6755542637374,292.444225263549L552.5007021441137,291.3372555054401L553.8007025594277,289.357399319714L554.5690533446308,287.1187110891143L555.768837971276,287.49106944659627L559.788322154524,288.72000840361045Z" style="fill: inherit; stroke: inherit; stroke-width: inherit;" vector-effect="non-scaling-stroke"><title>Howard County</title></path><path id="county-29107" class="county feature" d="M544.6722246107701,294.97475262234263L544.6690750956335,295.2473807315239L539.8118385853535,295.1873684059035L539.7984760053588,295.73474361013564L535.7978613543494,295.6619459128776L535.8419467086417,291.3953433146752L539.8419903775323,289.96241644024553L540.7865909746239,290.08835920896695L542.3155021360507,289.27545349196123L544.6535460305028,289.5793255114711L544.7706882106279,288.37169007069406Z" style="fill: inherit; stroke: inherit; stroke-width: inherit;" vector-effect="non-scaling-stroke"><title>Lafayette County</title></path><path id="county-29019" class="county feature" d="M561.4444233751136,288.70034415991756L564.4499723631075,288.7050827419009L564.5032483264562,292.01737534737276L563.981923138726,294.3040986139205L564.2458387792173,296.85800131015276L563.2324496744599,300.0148624715956L561.1624758290258,299.3445320404975L560.6562596424367,298.30357601824096L559.0389741943796,294.9118622484963L558.1487943406645,294.02210995886L559.788322154524,288.72000840361045Z" style="fill: inherit; stroke: inherit; stroke-width: inherit;" vector-effect="non-scaling-stroke"><title>Boone County</title></path><path id="county-29095" class="county feature" d="M534.2800633508209,290.22527876604306L535.8419467086417,291.3953433146752L535.7978613543494,295.6619459128776L535.7569475650116,297.2491849865719L528.7108434730602,297.105106087589L528.6667771750641,293.39234095444897L528.6476336193382,292.08599629814944L530.7366863568643,291.9221057748424L532.949929951655,289.79081087461145Z" style="fill: inherit; stroke: inherit; stroke-width: inherit;" vector-effect="non-scaling-stroke"><title>Jackson County</title></path><path id="county-29113" class="county feature" d="M584.2513813870789,288.0458685836812L585.3643000031119,293.4591787069294L583.0605257577091,294.6506987254828L581.2251075149262,294.8802356799134L579.0244214081146,294.95879222035353L576.7128924990396,292.8123955333523L576.6313023194712,290.03900260525666L577.7067380794995,289.99605663642444L577.6586956905139,288.33749406849984Z" style="fill: inherit; stroke: inherit; stroke-width: inherit;" vector-effect="non-scaling-stroke"><title>Lincoln County</title></path><path id="county-29139" class="county feature" d="M574.499610137907,290.09403982593005L576.6313023194712,290.03900260525666L576.7128924990396,292.8123955333523L576.8423993103551,295.616998289374L574.6720278727882,295.695095041842L574.7538471102665,298.24959955414204L572.9415797651773,298.9716061236894L571.5613180013338,298.5134442081742L571.4633632125322,298.526048612459L571.3468456848703,291.81729177804266L571.3265929736832,290.14335880111366Z" style="fill: inherit; stroke: inherit; stroke-width: inherit;" vector-effect="non-scaling-stroke"><title>Montgomery County</title></path><path id="county-29027" class="county feature" d="M564.5032483264562,292.01737534737276L571.3468456848703,291.81729177804266L571.4633632125322,298.526048612459L568.3826001302751,299.34508088987127L567.2137587432427,300.76720443585396L565.6818805515139,301.51702045309764L563.2324496744599,300.0148624715956L564.2458387792173,296.85800131015276L563.981923138726,294.3040986139205Z" style="fill: inherit; stroke: inherit; stroke-width: inherit;" vector-effect="non-scaling-stroke"><title>Callaway County</title></path><path id="county-29053" class="county feature" d="M558.1487943406645,294.02210995886L559.0389741943796,294.9118622484963L557.49291579694,299.5348528741539L554.2742364576477,299.5717015634003L551.0940785340002,299.5025234343178L551.0963061416523,295.06600733121445L552.6755542637374,292.444225263549L554.0629938261947,293.9968237226569Z" style="fill: inherit; stroke: inherit; stroke-width: inherit;" vector-effect="non-scaling-stroke"><title>Cooper County</title></path><path id="county-29219" class="county feature" d="M581.2251075149262,294.8802356799134L581.4602664528763,300.9739302424142L579.8493154953843,299.8838727074343L577.5781397338195,299.64691850388874L575.4774748799009,298.41224850190724L574.7538471102665,298.24959955414204L574.6720278727882,295.695095041842L576.8423993103551,295.616998289374L576.7128924990396,292.8123955333523L579.0244214081146,294.95879222035353Z" style="fill: inherit; stroke: inherit; stroke-width: inherit;" vector-effect="non-scaling-stroke"><title>Warren County</title></path><path id="county-29183" class="county feature" d="M590.9802813384515,293.3339952404435L593.368010520412,294.5375875877771L593.3858901726915,295.41123964459143L590.7422878170798,294.02307774248493L588.7133797596947,295.26359843553973L587.5238344933011,297.9056551627044L584.7182413767172,299.060505797357L582.1626053765564,301.1769126381722L581.4602664528763,300.9739302424142L581.2251075149262,294.8802356799134L583.0605257577091,294.6506987254828L585.3643000031119,293.4591787069294L587.1168897583601,294.52424178097067L588.4005296609076,292.65822030922095Z" style="fill: inherit; stroke: inherit; stroke-width: inherit;" vector-effect="non-scaling-stroke"><title>Saint Charles County</title></path><path id="county-29159" class="county feature" d="M551.0963061416523,295.06600733121445L551.0940785340002,299.5025234343178L551.0852886933014,302.5764261993829L547.8539316086866,302.57306156096206L547.8487825695842,303.12142668274214L544.6523114342581,303.093298981516L544.6514653038494,302.2675014524433L544.6690750956335,295.2473807315239L544.6722246107701,294.97475262234263Z" style="fill: inherit; stroke: inherit; stroke-width: inherit;" vector-effect="non-scaling-stroke"><title>Pettis County</title></path><path id="county-29101" class="county feature" d="M544.6690750956335,295.2473807315239L544.6514653038494,302.2675014524433L536.6500603943508,302.2440506806604L535.860788347965,302.23356010046564L535.7569475650116,297.2491849865719L535.7978613543494,295.6619459128776L539.7984760053588,295.73474361013564L539.8118385853535,295.1873684059035Z" style="fill: inherit; stroke: inherit; stroke-width: inherit;" vector-effect="non-scaling-stroke"><title>Johnson County</title></path><path id="county-29135" class="county feature" d="M560.6562596424367,298.30357601824096L559.4290727944364,304.224478719182L557.5406465493113,304.2360926382071L554.3029588850884,301.21560268235L554.2742364576477,299.5717015634003L557.49291579694,299.5348528741539L559.0389741943796,294.9118622484963Z" style="fill: inherit; stroke: inherit; stroke-width: inherit;" vector-effect="non-scaling-stroke"><title>Moniteau County</title></path><path id="county-29189" class="county feature" d="M593.3858901726915,295.41123964459143L592.7271657311858,296.07802083740387L591.5587629809138,297.16203460909276L590.7066944307455,299.571567527261L591.6891347227681,300.6895788433329L591.5698736762156,300.86828530282935L590.6231916569753,303.490405763422L589.5823766566024,301.3947892641172L586.931707437623,301.53929067358104L584.8416680065945,302.31724633823046L584.7182413767172,299.060505797357L587.5238344933011,297.9056551627044L588.7133797596947,295.26359843553973L590.7422878170798,294.02307774248493Z" style="fill: inherit; stroke: inherit; stroke-width: inherit;" vector-effect="non-scaling-stroke"><title>Saint Louis County</title></path><path id="county-29037" class="county feature" d="M535.7569475650116,297.2491849865719L535.860788347965,302.23356010046564L536.6500603943508,302.2440506806604L536.67030148133,304.5140925687972L528.7401871628584,304.07620032367777L528.7254529721303,299.1632631353741L528.7108434730602,297.105106087589Z" style="fill: inherit; stroke: inherit; stroke-width: inherit;" vector-effect="non-scaling-stroke"><title>Cass County</title></path><path id="county-29510" class="county feature" d="M591.6891347227681,300.6895788433329L590.7066944307455,299.571567527261L591.5587629809138,297.16203460909276L592.7271657311858,296.07802083740387L592.6393468597522,298.19824341522315Z" style="fill: inherit; stroke: inherit; stroke-width: inherit;" vector-effect="non-scaling-stroke"><title>Saint Louis City</title></path><path id="county-29051" class="county feature" d="M563.2324496744599,300.0148624715956L565.6818805515139,301.51702045309764L567.2137587432427,300.76720443585396L565.9354452358676,303.239073465317L564.1414041594159,303.25180142960835L564.8611879472651,304.70169247542947L563.8479832239402,305.7949781020362L560.7430052620782,305.8063809813551L560.7559445760006,304.2215130252231L559.4290727944364,304.224478719182L560.6562596424367,298.30357601824096L561.1624758290258,299.3445320404975Z" style="fill: inherit; stroke: inherit; stroke-width: inherit;" vector-effect="non-scaling-stroke"><title>Cole County</title></path><path id="county-29073" class="county feature" d="M574.7538471102665,298.24959955414204L575.4774748799009,298.41224850190724L575.9479538100964,307.6322050120858L573.5139347855821,307.7254552075344L573.5761165006327,308.8258660477087L572.1831141893758,308.87240501272674L571.8527342524667,306.33929795656456L571.5613180013338,298.5134442081742L572.9415797651773,298.9716061236894Z" style="fill: inherit; stroke: inherit; stroke-width: inherit;" vector-effect="non-scaling-stroke"><title>Gasconade County</title></path><path id="county-29071" class="county feature" d="M581.4602664528763,300.9739302424142L582.1626053765564,301.1769126381722L584.7182413767172,299.060505797357L584.8416680065945,302.31724633823046L584.4803515636977,307.2960757611646L579.896778710665,307.541441306309L575.9479538100964,307.6322050120858L575.4774748799009,298.41224850190724L577.5781397338195,299.64691850388874L579.8493154953843,299.8838727074343Z" style="fill: inherit; stroke: inherit; stroke-width: inherit;" vector-effect="non-scaling-stroke"><title>Franklin County</title></path><path id="county-29151" class="county feature" d="M571.4633632125322,298.526048612459L571.5613180013338,298.5134442081742L571.8527342524667,306.33929795656456L563.8651280295394,306.6134211463077L563.8479832239402,305.7949781020362L564.8611879472651,304.70169247542947L564.1414041594159,303.25180142960835L565.9354452358676,303.239073465317L567.2137587432427,300.76720443585396L568.3826001302751,299.34508088987127Z" style="fill: inherit; stroke: inherit; stroke-width: inherit;" vector-effect="non-scaling-stroke"><title>Osage County</title></path><path id="county-29141" class="county feature" d="M554.2742364576477,299.5717015634003L554.3029588850884,301.21560268235L557.5406465493113,304.2360926382071L556.6593099569418,305.82091573947537L556.6537762458632,308.2080864324174L555.6739497543335,308.8540039662705L552.8276105929725,308.80508469861456L551.0858271612118,307.66180787451253L551.0852886933014,302.5764261993829L551.0940785340002,299.5025234343178Z" style="fill: inherit; stroke: inherit; stroke-width: inherit;" vector-effect="non-scaling-stroke"><title>Morgan County</title></path><path id="county-29083" class="county feature" d="M544.6514653038494,302.2675014524433L544.6523114342581,303.093298981516L544.6451058100369,308.7973562242481L536.9891166780358,308.9017004302111L536.6239327348324,308.90002603046946L536.67030148133,304.5140925687972L536.6500603943508,302.2440506806604Z" style="fill: inherit; stroke: inherit; stroke-width: inherit;" vector-effect="non-scaling-stroke"><title>Henry County</title></path><path id="county-29015" class="county feature" d="M551.0852886933014,302.5764261993829L551.0858271612118,307.66180787451253L551.3783027269748,311.39143733681067L544.9951749742397,311.3985202107018L544.6451058100369,308.7973562242481L544.6523114342581,303.093298981516L547.8487825695842,303.12142668274214L547.8539316086866,302.57306156096206Z" style="fill: inherit; stroke: inherit; stroke-width: inherit;" vector-effect="non-scaling-stroke"><title>Benton County</title></path><path id="county-29099" class="county feature" d="M590.6231916569753,303.490405763422L590.5240687523803,306.47257584076L592.2170391244765,308.2920575384451L589.9401064551537,310.0424660261301L587.549787205394,310.9135505248105L586.64712575137,309.58592067389L584.4803515636977,307.2960757611646L584.8416680065945,302.31724633823046L586.931707437623,301.53929067358104L589.5823766566024,301.3947892641172Z" style="fill: inherit; stroke: inherit; stroke-width: inherit;" vector-effect="non-scaling-stroke"><title>Jefferson County</title></path><path id="county-29013" class="county feature" d="M536.67030148133,304.5140925687972L536.6239327348324,308.90002603046946L536.9891166780358,308.9017004302111L536.937510543111,312.2483132723936L528.8393916089274,311.94835468048973L528.7646205044804,305.7504214429258L528.7401871628584,304.07620032367777Z" style="fill: inherit; stroke: inherit; stroke-width: inherit;" vector-effect="non-scaling-stroke"><title>Bates County</title></path><path id="county-29131" class="county feature" d="M559.4290727944364,304.224478719182L560.7559445760006,304.2215130252231L560.7430052620782,305.8063809813551L563.8479832239402,305.7949781020362L563.8651280295394,306.6134211463077L564.2248107514637,311.8048104080193L561.0024780112717,311.8392218939713L559.4079305329435,311.8773340509997L557.472763261501,308.34863351536194L556.6537762458632,308.2080864324174L556.6593099569418,305.82091573947537L557.5406465493113,304.2360926382071Z" style="fill: inherit; stroke: inherit; stroke-width: inherit;" vector-effect="non-scaling-stroke"><title>Miller County</title></path><path id="county-29125" class="county feature" d="M571.8527342524667,306.33929795656456L572.1831141893758,308.87240501272674L572.2406597156461,310.8055817668478L568.4181437555789,310.9720089708277L566.6171486654156,311.81413714137454L564.2248107514637,311.8048104080193L563.8651280295394,306.6134211463077Z" style="fill: inherit; stroke: inherit; stroke-width: inherit;" vector-effect="non-scaling-stroke"><title>Maries County</title></path><path id="county-29029" class="county feature" d="M556.6537762458632,308.2080864324174L557.472763261501,308.34863351536194L559.4079305329435,311.8773340509997L561.0024780112717,311.8392218939713L561.0760721255942,314.8937833020269L559.214265835019,316.04143386131466L557.9743250283522,314.3791026983763L554.5432430905724,314.43508496021616L551.3718931320301,314.40770936087813L551.3783027269748,311.39143733681067L551.0858271612118,307.66180787451253L552.8276105929725,308.80508469861456L555.6739497543335,308.8540039662705Z" style="fill: inherit; stroke: inherit; stroke-width: inherit;" vector-effect="non-scaling-stroke"><title>Camden County</title></path><path id="county-29185" class="county feature" d="M544.6451058100369,308.7973562242481L544.9951749742397,311.3985202107018L544.9571759949329,314.33919333877736L544.1043024363896,316.01803276237456L543.2965043511671,316.012081887067L540.6264989004057,315.9798878575248L540.6381046037543,314.89138677759024L536.8797880534571,314.807807228053L536.937510543111,312.2483132723936L536.9891166780358,308.9017004302111Z" style="fill: inherit; stroke: inherit; stroke-width: inherit;" vector-effect="non-scaling-stroke"><title>Saint Clair County</title></path><path id="county-29055" class="county feature" d="M575.9479538100964,307.6322050120858L579.896778710665,307.541441306309L580.2904578932063,316.2839201604253L579.5504677342775,317.12928790475746L577.2503179468433,317.19203502006656L577.1955297580416,315.5507004082052L573.9819467956606,315.67022359077885L573.5761165006327,308.8258660477087L573.5139347855821,307.7254552075344Z" style="fill: inherit; stroke: inherit; stroke-width: inherit;" vector-effect="non-scaling-stroke"><title>Crawford County</title></path><path id="county-29221" class="county feature" d="M584.4803515636977,307.2960757611646L586.64712575137,309.58592067389L586.936938035387,316.0234029322984L580.2904578932063,316.2839201604253L579.896778710665,307.541441306309Z" style="fill: inherit; stroke: inherit; stroke-width: inherit;" vector-effect="non-scaling-stroke"><title>Washington County</title></path><path id="county-29161" class="county feature" d="M573.5761165006327,308.8258660477087L573.9819467956606,315.67022359077885L569.9398949686235,315.81203073041615L570.0474349103818,319.439295289243L566.8236594678481,319.50885396692877L566.6171486654156,311.81413714137454L568.4181437555789,310.9720089708277L572.2406597156461,310.8055817668478L572.1831141893758,308.87240501272674Z" style="fill: inherit; stroke: inherit; stroke-width: inherit;" vector-effect="non-scaling-stroke"><title>Phelps County</title></path><path id="county-29186" class="county feature" d="M592.9243607041648,308.99599330057583L596.1234817163706,311.15897843778896L597.0912407141466,312.7641492144985L594.8138869701932,316.756345620807L593.5100886723267,316.8690995500873L589.4933527001526,313.154409781538L591.3651079267186,311.1026011990722L589.9401064551537,310.0424660261301L592.2170391244765,308.2920575384451Z" style="fill: inherit; stroke: inherit; stroke-width: inherit;" vector-effect="non-scaling-stroke"><title>Sainte Genevieve County</title></path><path id="county-29187" class="county feature" d="M589.9401064551537,310.0424660261301L591.3651079267186,311.1026011990722L589.4933527001526,313.154409781538L593.5100886723267,316.8690995500873L594.8138869701932,316.756345620807L594.3187820714295,317.34922850032854L588.6447106154233,317.64789723784827L586.9926697063521,317.7582435852106L586.936938035387,316.0234029322984L586.64712575137,309.58592067389L587.549787205394,310.9135505248105Z" style="fill: inherit; stroke: inherit; stroke-width: inherit;" vector-effect="non-scaling-stroke"><title>Saint Francois County</title></path><path id="county-29085" class="county feature" d="M551.3783027269748,311.39143733681067L551.3718931320301,314.40770936087813L549.7585369815529,314.42506252177577L549.7471214974673,316.34077945244996L544.1043024363896,316.01803276237456L544.9571759949329,314.33919333877736L544.9951749742397,311.3985202107018Z" style="fill: inherit; stroke: inherit; stroke-width: inherit;" vector-effect="non-scaling-stroke"><title>Hickory County</title></path><path id="county-29217" class="county feature" d="M536.937510543111,312.2483132723936L536.8797880534571,314.807807228053L536.869680351321,319.7361622217537L528.8933563131511,319.6136138920516L528.8880100256627,319.24594338256315L528.8457280562393,312.38287803680134L528.8393916089274,311.94835468048973Z" style="fill: inherit; stroke: inherit; stroke-width: inherit;" vector-effect="non-scaling-stroke"><title>Vernon County</title></path><path id="county-29169" class="county feature" d="M564.2248107514637,311.8048104080193L566.6171486654156,311.81413714137454L566.8236594678481,319.50885396692877L563.5958352705292,319.60151591754084L563.573689320517,318.7741488003769L561.1165261575188,317.6322959965073L561.0760721255942,314.8937833020269L561.0024780112717,311.8392218939713Z" style="fill: inherit; stroke: inherit; stroke-width: inherit;" vector-effect="non-scaling-stroke"><title>Pulaski County</title></path><path id="county-29059" class="county feature" d="M551.3718931320301,314.40770936087813L554.5432430905724,314.43508496021616L554.8263796177966,322.1933930079705L551.6240664442089,322.2501576267748L551.6445495781924,323.59941478387066L550.0412513079821,323.6053177041323L549.7471214974673,316.34077945244996L549.7585369815529,314.42506252177577Z" style="fill: inherit; stroke: inherit; stroke-width: inherit;" vector-effect="non-scaling-stroke"><title>Dallas County</title></path><path id="county-29157" class="county feature" d="M601.0242411580201,313.86573046075523L601.1743424700904,314.69734698011086L603.5407452772458,315.9193084928304L603.5448867431772,318.06239039081606L603.5524758430722,318.17355772545557L598.5457902419613,317.88100407908394L594.3700898042625,318.1813220908167L594.3187820714295,317.34922850032854L594.8138869701932,316.756345620807L597.0912407141466,312.7641492144985L598.4240454517648,312.10382866359066Z" style="fill: inherit; stroke: inherit; stroke-width: inherit;" vector-effect="non-scaling-stroke"><title>Perry County</title></path><path id="county-29039" class="county feature" d="M543.2965043511671,316.012081887067L543.5961271064722,320.84812365908954L536.8656385294125,320.83452752990115L536.869680351321,319.7361622217537L536.8797880534571,314.807807228053L540.6381046037543,314.89138677759024L540.6264989004057,315.9798878575248Z" style="fill: inherit; stroke: inherit; stroke-width: inherit;" vector-effect="non-scaling-stroke"><title>Cedar County</title></path><path id="county-29105" class="county feature" d="M561.0760721255942,314.8937833020269L561.1165261575188,317.6322959965073L563.573689320517,318.7741488003769L563.5958352705292,319.60151591754084L563.6463651619991,322.0832070555397L557.275974573485,322.158766344416L554.8263796177966,322.1933930079705L554.5432430905724,314.43508496021616L557.9743250283522,314.3791026983763L559.214265835019,316.04143386131466Z" style="fill: inherit; stroke: inherit; stroke-width: inherit;" vector-effect="non-scaling-stroke"><title>Laclede County</title></path><path id="county-29167" class="county feature" d="M544.1043024363896,316.01803276237456L549.7471214974673,316.34077945244996L550.0412513079821,323.6053177041323L543.5963591323219,323.5900364051165L543.5961271064722,320.84812365908954L543.2965043511671,316.012081887067Z" style="fill: inherit; stroke: inherit; stroke-width: inherit;" vector-effect="non-scaling-stroke"><title>Polk County</title></path><path id="county-29065" class="county feature" d="M573.9819467956606,315.67022359077885L577.1955297580416,315.5507004082052L577.2503179468433,317.19203502006656L579.5504677342775,317.12928790475746L579.6238673864987,319.1865787503733L577.3185180827141,319.2130224375966L577.3790759928506,320.86722799276106L578.8921195050037,320.86375867880247L578.9632663075226,322.483964531904L572.5795193957812,322.6502449325378L570.9879150528972,322.6959265182621L570.8408779233682,319.40608749854584L570.0474349103818,319.439295289243L569.9398949686235,315.81203073041615Z" style="fill: inherit; stroke: inherit; stroke-width: inherit;" vector-effect="non-scaling-stroke"><title>Dent County</title></path><path id="county-29093" class="county feature" d="M586.936938035387,316.0234029322984L586.9926697063521,317.7582435852106L588.6447106154233,317.64789723784827L588.7819753917379,323.7987758716787L588.8148043925455,324.6471176767725L586.1003129553354,324.8296956927029L585.4454195432525,322.9282362188709L585.2654206203163,318.60628268253265L579.6238673864987,319.1865787503733L579.5504677342775,317.12928790475746L580.2904578932063,316.2839201604253Z" style="fill: inherit; stroke: inherit; stroke-width: inherit;" vector-effect="non-scaling-stroke"><title>Iron County</title></path><path id="county-29011" class="county feature" d="M536.869680351321,319.7361622217537L536.8656385294125,320.83452752990115L536.8487893129487,325.2147475705126L528.9727097560999,325.07084395342554L528.8933563131511,319.6136138920516Z" style="fill: inherit; stroke: inherit; stroke-width: inherit;" vector-effect="non-scaling-stroke"><title>Barton County</title></path><path id="county-29123" class="county feature" d="M594.3187820714295,317.34922850032854L594.3700898042625,318.1813220908167L594.7117845431877,323.5512549211868L593.659787128211,323.5609326945379L588.7819753917379,323.7987758716787L588.6447106154233,317.64789723784827Z" style="fill: inherit; stroke: inherit; stroke-width: inherit;" vector-effect="non-scaling-stroke"><title>Madison County</title></path><path id="county-29179" class="county feature" d="M586.1003129553354,324.8296956927029L585.6800342146594,329.02121683637495L582.9521436074624,329.1066621597013L582.1275731464159,328.3559764692874L581.8117618850074,326.9809335199393L579.88584770497,325.462641554534L579.5007588586826,322.4648737498379L578.9632663075226,322.483964531904L578.8921195050037,320.86375867880247L577.3790759928506,320.86722799276106L577.3185180827141,319.2130224375966L579.6238673864987,319.1865787503733L585.2654206203163,318.60628268253265L585.4454195432525,322.9282362188709Z" style="fill: inherit; stroke: inherit; stroke-width: inherit;" vector-effect="non-scaling-stroke"><title>Reynolds County</title></path><path id="county-29031" class="county feature" d="M603.5524758430722,318.17355772545557L605.2135915377693,321.21397386212027L604.3962050300986,322.4735439011672L604.4418132592834,324.06342740927664L602.5303771824057,324.54148161783246L600.5373210232714,326.69506725788494L599.0424203263286,326.7894280756202L598.5457902419613,317.88100407908394Z" style="fill: inherit; stroke: inherit; stroke-width: inherit;" vector-effect="non-scaling-stroke"><title>Cape Girardeau County</title></path><path id="county-29215" class="county feature" d="M566.8236594678481,319.50885396692877L570.0474349103818,319.439295289243L570.8408779233682,319.40608749854584L570.9879150528972,322.6959265182621L572.5795193957812,322.6502449325378L572.7699591484035,329.6977414567374L566.3752835641453,329.83878147955943L563.9747258320609,329.86967962810854L563.6463651619991,322.0832070555397L563.5958352705292,319.60151591754084Z" style="fill: inherit; stroke: inherit; stroke-width: inherit;" vector-effect="non-scaling-stroke"><title>Texas County</title></path><path id="county-29017" class="county feature" d="M598.5457902419613,317.88100407908394L599.0424203263286,326.7894280756202L597.6731651801242,326.85795555383413L597.7656187152847,328.22729569039245L595.5392042446011,328.61787473820345L593.8371385730334,327.86598421067356L593.659787128211,323.5609326945379L594.7117845431877,323.5512549211868L594.3700898042625,318.1813220908167Z" style="fill: inherit; stroke: inherit; stroke-width: inherit;" vector-effect="non-scaling-stroke"><title>Bollinger County</title></path><path id="county-29057" class="county feature" d="M543.5961271064722,320.84812365908954L543.5963591323219,323.5900364051165L543.591040416286,326.33202369147864L537.3148535847338,326.32275928016804L536.8487893129487,325.2147475705126L536.8656385294125,320.83452752990115Z" style="fill: inherit; stroke: inherit; stroke-width: inherit;" vector-effect="non-scaling-stroke"><title>Dade County</title></path><path id="county-29225" class="county feature" d="M554.8263796177966,322.1933930079705L557.275974573485,322.158766344416L557.5590038252893,329.9703215040804L554.3538700817546,330.0095449594128L551.9451286272227,329.7454993891794L551.6445495781924,323.59941478387066L551.6240664442089,322.2501576267748Z" style="fill: inherit; stroke: inherit; stroke-width: inherit;" vector-effect="non-scaling-stroke"><title>Webster County</title></path><path id="county-29229" class="county feature" d="M563.6463651619991,322.0832070555397L563.9747258320609,329.86967962810854L557.5590038252893,329.9703215040804L557.275974573485,322.158766344416Z" style="fill: inherit; stroke: inherit; stroke-width: inherit;" vector-effect="non-scaling-stroke"><title>Wright County</title></path><path id="county-29077" class="county feature" d="M550.0412513079821,323.6053177041323L551.6445495781924,323.59941478387066L551.9451286272227,329.7454993891794L543.9317060118298,329.7917279353977L543.591040416286,326.33202369147864L543.5963591323219,323.5900364051165Z" style="fill: inherit; stroke: inherit; stroke-width: inherit;" vector-effect="non-scaling-stroke"><title>Greene County</title></path><path id="county-29203" class="county feature" d="M578.9632663075226,322.483964531904L579.5007588586826,322.4648737498379L579.88584770497,325.462641554534L581.8117618850074,326.9809335199393L582.1275731464159,328.3559764692874L579.1964532387794,328.68620110562404L579.3034645201478,332.5000262072165L572.8705177429889,332.7094991453149L572.7699591484035,329.6977414567374L572.5795193957812,322.6502449325378Z" style="fill: inherit; stroke: inherit; stroke-width: inherit;" vector-effect="non-scaling-stroke"><title>Shannon County</title></path><path id="county-29097" class="county feature" d="M536.8487893129487,325.2147475705126L537.3148535847338,326.32275928016804L537.3076830692448,330.8859387214609L529.0569926620603,330.8670790123555L528.9797789434191,325.55700032061065L528.9727097560999,325.07084395342554Z" style="fill: inherit; stroke: inherit; stroke-width: inherit;" vector-effect="non-scaling-stroke"><title>Jasper County</title></path><path id="county-29223" class="county feature" d="M593.659787128211,323.5609326945379L593.8371385730334,327.86598421067356L595.5392042446011,328.61787473820345L593.5063510651162,330.99310991207653L587.302542454021,331.27036854097037L585.6800342146594,329.02121683637495L586.1003129553354,324.8296956927029L588.8148043925455,324.6471176767725L588.7819753917379,323.7987758716787Z" style="fill: inherit; stroke: inherit; stroke-width: inherit;" vector-effect="non-scaling-stroke"><title>Wayne County</title></path><path id="county-29109" class="county feature" d="M543.591040416286,326.33202369147864L543.9317060118298,329.7917279353977L543.9590441866519,331.7211581047055L543.9830135259773,333.09642712139987L537.2994426311787,333.0814073640115L537.3076830692448,330.8859387214609L537.3148535847338,326.32275928016804Z" style="fill: inherit; stroke: inherit; stroke-width: inherit;" vector-effect="non-scaling-stroke"><title>Lawrence County</title></path><path id="county-29201" class="county feature" d="M607.3176174833466,328.4172140681461L604.4736680997815,331.27755060559775L601.9532665056252,331.6371992837619L601.9157436387258,330.3526025333524L600.2782543094285,327.51801213782846L600.5373210232714,326.69506725788494L602.5303771824057,324.54148161783246L604.4418132592834,324.06342740927664L606.3435504066613,327.93722980930215Z" style="fill: inherit; stroke: inherit; stroke-width: inherit;" vector-effect="non-scaling-stroke"><title>Scott County</title></path><path id="county-29207" class="county feature" d="M599.0424203263286,326.7894280756202L600.5373210232714,326.69506725788494L600.2782543094285,327.51801213782846L601.9157436387258,330.3526025333524L601.9532665056252,331.6371992837619L602.1052239786808,336.01190939858793L598.2800312799346,336.22608319410006L595.4706830046589,336.3767117341313L595.3242957125415,334.7805331450073L593.5063510651162,330.99310991207653L595.5392042446011,328.61787473820345L597.7656187152847,328.22729569039245L597.6731651801242,326.85795555383413Z" style="fill: inherit; stroke: inherit; stroke-width: inherit;" vector-effect="non-scaling-stroke"><title>Stoddard County</title></path><path id="county-29035" class="county feature" d="M585.6800342146594,329.02121683637495L587.302542454021,331.27036854097037L587.6574496749031,333.4233057180063L580.9368358303365,333.55376811787994L579.3320338463798,333.59684654649584L579.3034645201478,332.5000262072165L579.1964532387794,328.68620110562404L582.1275731464159,328.3559764692874L582.9521436074624,329.1066621597013Z" style="fill: inherit; stroke: inherit; stroke-width: inherit;" vector-effect="non-scaling-stroke"><title>Carter County</title></path><path id="county-29043" class="county feature" d="M551.9451286272227,329.7454993891794L554.3538700817546,330.0095449594128L554.424148139517,334.93933052816476L548.5705275620916,334.9736904760176L548.0124338073912,334.9802937054096L547.9836852458462,331.67698747031807L543.9590441866519,331.7211581047055L543.9317060118298,329.7917279353977Z" style="fill: inherit; stroke: inherit; stroke-width: inherit;" vector-effect="non-scaling-stroke"><title>Christian County</title></path><path id="county-29067" class="county feature" d="M557.5590038252893,329.9703215040804L563.9747258320609,329.86967962810854L566.3752835641453,329.83878147955943L566.2279101298943,334.788559368365L556.5617899855806,334.9279542699884L554.424148139517,334.93933052816476L554.3538700817546,330.0095449594128Z" style="fill: inherit; stroke: inherit; stroke-width: inherit;" vector-effect="non-scaling-stroke"><title>Douglas County</title></path><path id="county-29133" class="county feature" d="M610.0122738989003,328.7842916175184L610.5558893829831,329.45977195493356L610.44871442631,332.45812985425334L609.3994917440666,333.81011052018107L609.8266073176247,335.0009198291068L608.8664330363283,336.7418049957191L607.6280428038464,335.55221902891276L604.4736680997815,331.27755060559775L607.3176174833466,328.4172140681461L608.0650258700882,327.3428476616531Z" style="fill: inherit; stroke: inherit; stroke-width: inherit;" vector-effect="non-scaling-stroke"><title>Mississippi County</title></path><path id="county-29091" class="county feature" d="M572.7699591484035,329.6977414567374L572.8705177429889,332.7094991453149L572.9927435479163,340.0580560325311L566.3382692579037,340.35670259747417L566.2279101298943,334.788559368365L566.3752835641453,329.83878147955943Z" style="fill: inherit; stroke: inherit; stroke-width: inherit;" vector-effect="non-scaling-stroke"><title>Howell County</title></path><path id="county-29145" class="county feature" d="M537.3076830692448,330.8859387214609L537.2994426311787,333.0814073640115L537.2797020827195,336.55036298925233L529.125935680019,336.33996035912605L529.0728530058278,331.9578135989741L529.0569926620603,330.8670790123555Z" style="fill: inherit; stroke: inherit; stroke-width: inherit;" vector-effect="non-scaling-stroke"><title>Newton County</title></path><path id="county-29209" class="county feature" d="M548.5705275620916,334.9736904760176L548.5808555967568,340.9843720051705L544.5734394015631,341.0777357521358L544.5789675880858,335.0204740000951L543.9830135259773,333.09642712139987L543.9590441866519,331.7211581047055L547.9836852458462,331.67698747031807L548.0124338073912,334.9802937054096Z" style="fill: inherit; stroke: inherit; stroke-width: inherit;" vector-effect="non-scaling-stroke"><title>Stone County</title></path><path id="county-29009" class="county feature" d="M543.9830135259773,333.09642712139987L544.5789675880858,335.0204740000951L544.5734394015631,341.0777357521358L540.3794379097479,341.1811486001751L537.2523709308686,341.24788264153176L537.2797020827195,336.55036298925233L537.2994426311787,333.0814073640115Z" style="fill: inherit; stroke: inherit; stroke-width: inherit;" vector-effect="non-scaling-stroke"><title>Barry County</title></path><path id="county-29023" class="county feature" d="M593.5063510651162,330.99310991207653L595.3242957125415,334.7805331450073L595.4706830046589,336.3767117341313L594.5485432683251,338.94129382094127L589.2727765762269,339.23939801602035L588.8444509003996,335.8495066837445L587.6574496749031,333.4233057180063L587.302542454021,331.27036854097037Z" style="fill: inherit; stroke: inherit; stroke-width: inherit;" vector-effect="non-scaling-stroke"><title>Butler County</title></path><path id="county-29149" class="county feature" d="M579.3034645201478,332.5000262072165L579.3320338463798,333.59684654649584L580.9368358303365,333.55376811787994L581.1032043461752,339.6986182287593L576.9296483683207,339.9187948716401L576.3000037470439,339.9379502076798L572.9927435479163,340.0580560325311L572.8705177429889,332.7094991453149Z" style="fill: inherit; stroke: inherit; stroke-width: inherit;" vector-effect="non-scaling-stroke"><title>Oregon County</title></path><path id="county-29143" class="county feature" d="M604.4736680997815,331.27755060559775L607.6280428038464,335.55221902891276L606.456546298794,338.1435311732489L605.4729111169704,338.2327276900277L604.6631468700132,338.2830159204939L604.7790459609988,341.3241257619218L604.0068206775992,340.1301171805744L602.0204113230892,339.8163181344362L601.6435499395533,340.5982512100726L598.5306695304545,340.7530588002194L598.2800312799346,336.22608319410006L602.1052239786808,336.01190939858793L601.9532665056252,331.6371992837619Z" style="fill: inherit; stroke: inherit; stroke-width: inherit;" vector-effect="non-scaling-stroke"><title>New Madrid County</title></path><path id="county-29181" class="county feature" d="M587.6574496749031,333.4233057180063L588.8444509003996,335.8495066837445L589.2727765762269,339.23939801602035L586.176589933253,339.4138850607304L581.1032043461752,339.6986182287593L580.9368358303365,333.55376811787994Z" style="fill: inherit; stroke: inherit; stroke-width: inherit;" vector-effect="non-scaling-stroke"><title>Ripley County</title></path><path id="county-29213" class="county feature" d="M554.424148139517,334.93933052816476L556.5617899855806,334.9279542699884L556.6476261743328,340.74250543134247L555.4365415255501,340.7790750768952L548.8582390869959,340.9744808572756L548.5808555967568,340.9843720051705L548.5705275620916,334.9736904760176Z" style="fill: inherit; stroke: inherit; stroke-width: inherit;" vector-effect="non-scaling-stroke"><title>Taney County</title></path><path id="county-29153" class="county feature" d="M566.2279101298943,334.788559368365L566.3382692579037,340.35670259747417L565.8904951788244,340.3799873922676L560.258261245859,340.59698638960253L556.6476261743328,340.74250543134247L556.5617899855806,334.9279542699884Z" style="fill: inherit; stroke: inherit; stroke-width: inherit;" vector-effect="non-scaling-stroke"><title>Ozark County</title></path><path id="county-29119" class="county feature" d="M537.2797020827195,336.55036298925233L537.2523709308686,341.24788264153176L529.2097963176882,341.3755670122745L529.1636064720574,338.1990367353353L529.125935680019,336.33996035912605Z" style="fill: inherit; stroke: inherit; stroke-width: inherit;" vector-effect="non-scaling-stroke"><title>McDonald County</title></path><path id="county-29069" class="county feature" d="M598.2800312799346,336.22608319410006L598.5306695304545,340.7530588002194L599.0292529868522,348.0820721747748L594.1039349967533,348.4386901317416L592.7799338843867,348.53192142580895L595.3429119803124,344.4938012366731L597.1058697554026,342.4632760409662L596.762107413873,340.6483565246293L595.5233682070059,338.8795790982274L594.5485432683251,338.94129382094127L595.4706830046589,336.3767117341313Z" style="fill: inherit; stroke: inherit; stroke-width: inherit;" vector-effect="non-scaling-stroke"><title>Dunklin County</title></path><path id="county-29155" class="county feature" d="M604.7790459609988,341.3241257619218L603.8091083224288,341.8880721602443L605.0444537300096,342.85889111032475L602.6478830398141,343.055649841795L603.721472107258,344.2575270855931L604.328874144988,345.29740030357993L603.109632402642,346.20111147159355L602.7951576008618,347.7856335164756L599.0292529868522,348.0820721747748L598.5306695304545,340.7530588002194L601.6435499395533,340.5982512100726L602.0204113230892,339.8163181344362L604.0068206775992,340.1301171805744Z" style="fill: inherit; stroke: inherit; stroke-width: inherit;" vector-effect="non-scaling-stroke"><title>Pemiscot County</title></path></g><path id="counties-mesh" class="counties mesh" d="M572.2468311216096,269.3260534305125L565.8374038592733,269.45452660131593L565.817588812613,268.63279339598046L565.6685742276857,262.88796453487555M565.817588812613,268.63279339598046L560.2017364310964,268.8240070148638L560.1397290748438,268.0019548063045L559.9482414933167,263.2810133672963M560.1397290748438,268.0019548063045L555.4307525595165,268.23232000487155L555.4389111797087,265.27925530725986L554.8454954372371,263.6161002087821M555.4307525595165,268.23232000487155L553.0121093241797,268.327713200635L552.9902537766609,267.5143095788675L545.7835599609822,267.7881013147654L545.5746260666759,264.0745698564526M545.7835599609822,267.7881013147654L545.8393857470379,269.9856195206406L540.2458534329919,270.17449632458624L539.9554455424772,264.2706467566019M527.8967485340602,264.6150342240835L528.4224732343862,268.0868214047415L528.3882267592512,272.99766891204024L522.2014621458961,272.9992840947333L521.7762253979321,270.54482081389506L520.2349332401085,270.5377399411751M540.2458534329919,270.17449632458624L540.2937854461236,272.6427286542237L533.8845468304821,272.7083894435997L533.8375270625532,268.04358476824154L533.5187497668454,264.51216440349583M533.8375270625532,268.04358476824154L528.4224732343862,268.0868214047415M522.2014621458961,272.9992840947333L522.9486597214252,277.36795688005793L521.6559226429782,278.0603690799728L518.4661134873296,275.48347173441243L516.8619807962244,274.4312698694364L517.1944125191194,273.1365410557794L514.9829628564619,270.56971406780076L514.9472203570501,270.5152268791727M553.0121093241797,268.327713200635L553.1974208137748,274.08095801902766L546.0374012517481,274.3778129195729L545.8393857470379,269.9856195206406M533.8845468304821,272.7083894435997L533.8950838634107,274.6257268409281L528.4173497359037,274.63625126947136L528.3882267592512,272.99766891204024M560.2017364310964,268.8240070148638L560.4346365844216,273.8230047631298L553.3193733927332,274.07590417064284L553.1974208137748,274.08095801902766M565.8374038592733,269.45452660131593L566.0589931400334,275.25045267521523L561.3000367531927,275.3911145154084L560.4346365844216,273.8230047631298M546.0374012517481,274.3778129195729L546.0716215323284,275.6103270496236L540.4011604280396,275.9077175412451L540.2937854461236,272.6427286542237M519.8756289351788,264.5738543949569L520.2349332401085,270.5377399411751L514.9472203570501,270.5152268791727L514.1120701075516,269.58773908978276L512.7423855901758,265.64478639728384L511.9566392212373,264.4893534111261L517.4629525527541,264.5524603026091L519.8756289351788,264.5738543949569L523.9188232342913,264.59654649788445L527.8967485340602,264.6150342240835L530.1579460066866,264.59069397568044L533.5187497668454,264.51216440349583L536.5660851338519,264.41556748858125L539.9554455424772,264.2706467566019L543.0117642543828,264.14495201763066L545.5746260666759,264.0745698564526L549.4671144561868,263.89350930005344L554.8454954372371,263.6161002087821L555.9187251088101,263.55121472454414L559.9482414933167,263.2810133672963L562.3456589449022,263.1249891961544L565.6685742276857,262.88796453487555L568.8501661352944,262.8870376133274L573.2282662554521,266.8351899229393L572.2468311216096,269.3260534305125L572.1733059162248,270.23946465601307L572.470972001338,273.30192252769336L573.392524758255,274.9970251152249L567.6522588382014,275.20492652254813L566.0589931400334,275.25045267521523M540.4011604280396,275.9077175412451L540.5195881460786,279.20217904271783L534.170732853149,279.25697229427885L533.8950838634107,274.6257268409281M528.4173497359037,274.63625126947136L528.5137714886598,278.7737768901118L524.6268969443901,278.806081176269L522.9486597214252,277.36795688005793M561.3000367531927,275.3911145154084L561.3968684555059,281.9316874173571L561.3764188029081,281.9324838876639L555.8001792200777,282.04390082780117L555.7838140942464,280.399146212084L553.382121808554,280.435119567274L553.3193733927332,274.07590417064284M553.382121808554,280.435119567274L547.5580977751009,280.5483240794596L546.1637029091119,280.58365926672275L546.0716215323284,275.6103270496236M534.170732853149,279.25697229427885L534.1809561276392,280.0689107914611L528.5440422427022,280.13825232816896L528.5137714886598,278.7737768901118M528.5440422427022,280.13825232816896L528.6195005411273,284.2241337432789L521.4594852253267,284.25593134197436L522.1288174866154,282.54928084916435L523.5152068254012,280.2342463349306L524.5405515924898,280.5759688840876L524.6268969443901,278.806081176269M547.5580977751009,280.5483240794596L547.4420918122578,282.2088083266408L540.6068193064946,282.46732908242427L540.5195881460786,279.20217904271783M567.6522588382014,275.20492652254813L567.7992525131256,280.6647672051041L562.9841718270803,280.7836305437369L563.0030623789573,281.89147036866973L561.3968684555059,281.9316874173571M573.392524758255,274.9970251152249L573.4895717766927,276.9099850937115L574.5506040870142,278.46112903228277L575.4819628508865,279.82645346230515L569.6396636635056,280.0539736716446L569.6743787842081,280.59667681151655L567.7992525131256,280.6647672051041M540.6068193064946,282.46732908242427L540.6351658933866,284.10341725785077L534.2177687431805,284.18992959218497L534.1809561276392,280.0689107914611M534.2177687431805,284.18992959218497L534.217898188617,285.5571826218743L528.6452219545625,285.6233213411548L528.6195005411273,284.2241337432789M555.8001792200777,282.04390082780117L555.768837971276,287.49106944659627L554.5690533446308,287.1187110891143L553.8007025594277,289.357399319714L550.0501698196796,286.50805200806894L548.2514287336775,285.56784582342823L547.4420918122578,282.2088083266408M577.3708825761544,281.3508347815957L573.4865723646739,284.3231785450505L573.9184954034843,286.796466464373L569.9039615211744,286.5971275057334L569.6743787842081,280.59667681151655M569.9039615211744,286.5971275057334L561.4319491738228,286.7894524268603L561.3764188029081,281.9324838876639M528.6452219545625,285.6233213411548L528.7172310012314,291.2139088551944L526.2265628593537,290.50689432066736L524.4141611331851,288.62908208927945L524.6901095693601,287.1928248463274L523.3930804824474,286.394300743495L521.4594852253267,284.25593134197436M550.0501698196796,286.50805200806894L548.9982031371287,286.00883750504454L548.2853670378199,287.61227400684004L546.7617750349444,288.06511384239013L545.8053206378058,289.55345269574093L544.7706882106279,288.37169007069406L544.6535460305028,289.5793255114711L542.3155021360507,289.27545349196123L540.7865909746239,290.08835920896695L540.6351658933866,284.10341725785077M561.4319491738228,286.7894524268603L561.4444233751136,288.70034415991756L559.788322154524,288.72000840361045L555.768837971276,287.49106944659627M575.4819628508865,279.82645346230515L577.3708825761544,281.3508347815957L579.6666970252712,284.1951509478116L581.0038924392323,284.90733614174974L583.5077132980811,286.7025622469764L584.2513813870789,288.0458685836812L577.6586956905139,288.33749406849984L577.7067380794995,289.99605663642444L576.6313023194712,290.03900260525666L574.499610137907,290.09403982593005L573.9184954034843,286.796466464373M540.7865909746239,290.08835920896695L539.8419903775323,289.96241644024553L535.8419467086417,291.3953433146752L534.2800633508209,290.22527876604306L534.217898188617,285.5571826218743M534.2800633508209,290.22527876604306L532.949929951655,289.79081087461145L530.7366863568643,291.9221057748424L528.6476336193382,292.08599629814944L528.7172310012314,291.2139088551944M553.8007025594277,289.357399319714L552.5007021441137,291.3372555054401L552.6755542637374,292.444225263549L551.0963061416523,295.06600733121445L544.6722246107701,294.97475262234263L544.7706882106279,288.37169007069406M574.499610137907,290.09403982593005L571.3265929736832,290.14335880111366L571.3468456848703,291.81729177804266L564.5032483264562,292.01737534737276L564.4499723631075,288.7050827419009L561.4444233751136,288.70034415991756M559.788322154524,288.72000840361045L558.1487943406645,294.02210995886L554.0629938261947,293.9968237226569L552.6755542637374,292.444225263549M544.6722246107701,294.97475262234263L544.6690750956335,295.2473807315239L539.8118385853535,295.1873684059035L539.7984760053588,295.73474361013564L535.7978613543494,295.6619459128776L535.8419467086417,291.3953433146752M564.5032483264562,292.01737534737276L563.981923138726,294.3040986139205L564.2458387792173,296.85800131015276L563.2324496744599,300.0148624715956L561.1624758290258,299.3445320404975L560.6562596424367,298.30357601824096L559.0389741943796,294.9118622484963L558.1487943406645,294.02210995886M535.7978613543494,295.6619459128776L535.7569475650116,297.2491849865719L528.7108434730602,297.105106087589L528.6667771750641,293.39234095444897L528.6476336193382,292.08599629814944M585.3643000031119,293.4591787069294L583.0605257577091,294.6506987254828L581.2251075149262,294.8802356799134L579.0244214081146,294.95879222035353L576.7128924990396,292.8123955333523L576.6313023194712,290.03900260525666M576.7128924990396,292.8123955333523L576.8423993103551,295.616998289374L574.6720278727882,295.695095041842L574.7538471102665,298.24959955414204L572.9415797651773,298.9716061236894L571.5613180013338,298.5134442081742L571.4633632125322,298.526048612459L571.3468456848703,291.81729177804266M571.4633632125322,298.526048612459L568.3826001302751,299.34508088987127L567.2137587432427,300.76720443585396L565.6818805515139,301.51702045309764L563.2324496744599,300.0148624715956M559.0389741943796,294.9118622484963L557.49291579694,299.5348528741539L554.2742364576477,299.5717015634003L551.0940785340002,299.5025234343178L551.0963061416523,295.06600733121445M536.6500603943508,302.2440506806604L536.67030148133,304.5140925687972L528.7401871628584,304.07620032367777L528.7254529721303,299.1632631353741L528.7108434730602,297.105106087589M581.2251075149262,294.8802356799134L581.4602664528763,300.9739302424142L579.8493154953843,299.8838727074343L577.5781397338195,299.64691850388874L575.4774748799009,298.41224850190724L574.7538471102665,298.24959955414204M593.3858901726915,295.41123964459143L590.7422878170798,294.02307774248493L588.7133797596947,295.26359843553973L587.5238344933011,297.9056551627044L584.7182413767172,299.060505797357L582.1626053765564,301.1769126381722L581.4602664528763,300.9739302424142M551.0940785340002,299.5025234343178L551.0852886933014,302.5764261993829L547.8539316086866,302.57306156096206L547.8487825695842,303.12142668274214L544.6523114342581,303.093298981516L544.6514653038494,302.2675014524433L544.6690750956335,295.2473807315239M544.6514653038494,302.2675014524433L536.6500603943508,302.2440506806604L535.860788347965,302.23356010046564L535.7569475650116,297.2491849865719M560.6562596424367,298.30357601824096L559.4290727944364,304.224478719182L557.5406465493113,304.2360926382071L554.3029588850884,301.21560268235L554.2742364576477,299.5717015634003M592.7271657311858,296.07802083740387L591.5587629809138,297.16203460909276L590.7066944307455,299.571567527261L591.6891347227681,300.6895788433329L591.5698736762156,300.86828530282935L590.6231916569753,303.490405763422L589.5823766566024,301.3947892641172L586.931707437623,301.53929067358104L584.8416680065945,302.31724633823046L584.7182413767172,299.060505797357M584.2513813870789,288.0458685836812L585.3643000031119,293.4591787069294L587.1168897583601,294.52424178097067L588.4005296609076,292.65822030922095L590.9802813384515,293.3339952404435L593.368010520412,294.5375875877771L593.3858901726915,295.41123964459143L592.7271657311858,296.07802083740387L592.6393468597522,298.19824341522315L591.6891347227681,300.6895788433329M567.2137587432427,300.76720443585396L565.9354452358676,303.239073465317L564.1414041594159,303.25180142960835L564.8611879472651,304.70169247542947L563.8479832239402,305.7949781020362L560.7430052620782,305.8063809813551L560.7559445760006,304.2215130252231L559.4290727944364,304.224478719182M536.9891166780358,308.9017004302111L536.937510543111,312.2483132723936L528.8393916089274,311.94835468048973L528.7646205044804,305.7504214429258L528.7401871628584,304.07620032367777M575.4774748799009,298.41224850190724L575.9479538100964,307.6322050120858L573.5139347855821,307.7254552075344L573.5761165006327,308.8258660477087L572.1831141893758,308.87240501272674L571.8527342524667,306.33929795656456L571.5613180013338,298.5134442081742M584.8416680065945,302.31724633823046L584.4803515636977,307.2960757611646L579.896778710665,307.541441306309L575.9479538100964,307.6322050120858M571.8527342524667,306.33929795656456L563.8651280295394,306.6134211463077L563.8479832239402,305.7949781020362M557.5406465493113,304.2360926382071L556.6593099569418,305.82091573947537L556.6537762458632,308.2080864324174L555.6739497543335,308.8540039662705L552.8276105929725,308.80508469861456L551.0858271612118,307.66180787451253L551.0852886933014,302.5764261993829M544.6523114342581,303.093298981516L544.6451058100369,308.7973562242481L536.9891166780358,308.9017004302111L536.6239327348324,308.90002603046946L536.67030148133,304.5140925687972M551.0858271612118,307.66180787451253L551.3783027269748,311.39143733681067L544.9951749742397,311.3985202107018L544.6451058100369,308.7973562242481M592.2170391244765,308.2920575384451L589.9401064551537,310.0424660261301L587.549787205394,310.9135505248105L586.64712575137,309.58592067389L584.4803515636977,307.2960757611646M563.8651280295394,306.6134211463077L564.2248107514637,311.8048104080193L561.0024780112717,311.8392218939713L559.4079305329435,311.8773340509997L557.472763261501,308.34863351536194L556.6537762458632,308.2080864324174M536.8797880534571,314.807807228053L536.869680351321,319.7361622217537L528.8933563131511,319.6136138920516L528.8880100256627,319.24594338256315L528.8457280562393,312.38287803680134L528.8393916089274,311.94835468048973M572.1831141893758,308.87240501272674L572.2406597156461,310.8055817668478L568.4181437555789,310.9720089708277L566.6171486654156,311.81413714137454L564.2248107514637,311.8048104080193M561.0024780112717,311.8392218939713L561.0760721255942,314.8937833020269L559.214265835019,316.04143386131466L557.9743250283522,314.3791026983763L554.5432430905724,314.43508496021616L551.3718931320301,314.40770936087813L551.3783027269748,311.39143733681067M544.9951749742397,311.3985202107018L544.9571759949329,314.33919333877736L544.1043024363896,316.01803276237456L543.2965043511671,316.012081887067L540.6264989004057,315.9798878575248L540.6381046037543,314.89138677759024L536.8797880534571,314.807807228053L536.937510543111,312.2483132723936M579.896778710665,307.541441306309L580.2904578932063,316.2839201604253L579.5504677342775,317.12928790475746L577.2503179468433,317.19203502006656L577.1955297580416,315.5507004082052L573.9819467956606,315.67022359077885L573.5761165006327,308.8258660477087M586.64712575137,309.58592067389L586.936938035387,316.0234029322984L580.2904578932063,316.2839201604253M573.9819467956606,315.67022359077885L569.9398949686235,315.81203073041615L570.0474349103818,319.439295289243L566.8236594678481,319.50885396692877L566.6171486654156,311.81413714137454M597.0912407141466,312.7641492144985L594.8138869701932,316.756345620807L593.5100886723267,316.8690995500873L589.4933527001526,313.154409781538L591.3651079267186,311.1026011990722L589.9401064551537,310.0424660261301M594.8138869701932,316.756345620807L594.3187820714295,317.34922850032854L588.6447106154233,317.64789723784827L586.9926697063521,317.7582435852106L586.936938035387,316.0234029322984M551.3718931320301,314.40770936087813L549.7585369815529,314.42506252177577L549.7471214974673,316.34077945244996L544.1043024363896,316.01803276237456M566.8236594678481,319.50885396692877L563.5958352705292,319.60151591754084L563.573689320517,318.7741488003769L561.1165261575188,317.6322959965073L561.0760721255942,314.8937833020269M554.5432430905724,314.43508496021616L554.8263796177966,322.1933930079705L551.6240664442089,322.2501576267748L551.6445495781924,323.59941478387066L550.0412513079821,323.6053177041323L549.7471214974673,316.34077945244996M590.6231916569753,303.490405763422L590.5240687523803,306.47257584076L592.2170391244765,308.2920575384451L592.9243607041648,308.99599330057583L596.1234817163706,311.15897843778896L597.0912407141466,312.7641492144985L598.4240454517648,312.10382866359066L601.0242411580201,313.86573046075523L601.1743424700904,314.69734698011086L603.5407452772458,315.9193084928304L603.5448867431772,318.06239039081606L603.5524758430722,318.17355772545557L598.5457902419613,317.88100407908394L594.3700898042625,318.1813220908167L594.3187820714295,317.34922850032854M543.2965043511671,316.012081887067L543.5961271064722,320.84812365908954L536.8656385294125,320.83452752990115L536.869680351321,319.7361622217537M563.5958352705292,319.60151591754084L563.6463651619991,322.0832070555397L557.275974573485,322.158766344416L554.8263796177966,322.1933930079705M550.0412513079821,323.6053177041323L543.5963591323219,323.5900364051165L543.5961271064722,320.84812365908954M579.5504677342775,317.12928790475746L579.6238673864987,319.1865787503733L577.3185180827141,319.2130224375966L577.3790759928506,320.86722799276106L578.8921195050037,320.86375867880247L578.9632663075226,322.483964531904L572.5795193957812,322.6502449325378L570.9879150528972,322.6959265182621L570.8408779233682,319.40608749854584L570.0474349103818,319.439295289243M588.6447106154233,317.64789723784827L588.7819753917379,323.7987758716787L588.8148043925455,324.6471176767725L586.1003129553354,324.8296956927029L585.4454195432525,322.9282362188709L585.2654206203163,318.60628268253265L579.6238673864987,319.1865787503733M537.3148535847338,326.32275928016804L537.3076830692448,330.8859387214609L529.0569926620603,330.8670790123555L528.9797789434191,325.55700032061065L528.9727097560999,325.07084395342554L528.8933563131511,319.6136138920516M536.8656385294125,320.83452752990115L536.8487893129487,325.2147475705126L528.9727097560999,325.07084395342554M594.3700898042625,318.1813220908167L594.7117845431877,323.5512549211868L593.659787128211,323.5609326945379L588.7819753917379,323.7987758716787M586.1003129553354,324.8296956927029L585.6800342146594,329.02121683637495L582.9521436074624,329.1066621597013L582.1275731464159,328.3559764692874L581.8117618850074,326.9809335199393L579.88584770497,325.462641554534L579.5007588586826,322.4648737498379L578.9632663075226,322.483964531904M603.5524758430722,318.17355772545557L605.2135915377693,321.21397386212027L604.3962050300986,322.4735439011672L604.4418132592834,324.06342740927664L602.5303771824057,324.54148161783246L600.5373210232714,326.69506725788494L599.0424203263286,326.7894280756202L598.5457902419613,317.88100407908394M572.5795193957812,322.6502449325378L572.7699591484035,329.6977414567374L566.3752835641453,329.83878147955943L563.9747258320609,329.86967962810854L563.6463651619991,322.0832070555397M599.0424203263286,326.7894280756202L597.6731651801242,326.85795555383413L597.7656187152847,328.22729569039245L595.5392042446011,328.61787473820345L593.8371385730334,327.86598421067356L593.659787128211,323.5609326945379M543.5963591323219,323.5900364051165L543.591040416286,326.33202369147864L537.3148535847338,326.32275928016804L536.8487893129487,325.2147475705126M557.275974573485,322.158766344416L557.5590038252893,329.9703215040804L554.3538700817546,330.0095449594128L551.9451286272227,329.7454993891794L551.6445495781924,323.59941478387066M563.9747258320609,329.86967962810854L557.5590038252893,329.9703215040804M551.9451286272227,329.7454993891794L543.9317060118298,329.7917279353977L543.591040416286,326.33202369147864M582.1275731464159,328.3559764692874L579.1964532387794,328.68620110562404L579.3034645201478,332.5000262072165L572.8705177429889,332.7094991453149L572.7699591484035,329.6977414567374M537.2994426311787,333.0814073640115L537.2797020827195,336.55036298925233L529.125935680019,336.33996035912605L529.0728530058278,331.9578135989741L529.0569926620603,330.8670790123555M595.5392042446011,328.61787473820345L593.5063510651162,330.99310991207653L587.302542454021,331.27036854097037L585.6800342146594,329.02121683637495M543.9317060118298,329.7917279353977L543.9590441866519,331.7211581047055L543.9830135259773,333.09642712139987L537.2994426311787,333.0814073640115L537.3076830692448,330.8859387214609M607.3176174833466,328.4172140681461L604.4736680997815,331.27755060559775L601.9532665056252,331.6371992837619L601.9157436387258,330.3526025333524L600.2782543094285,327.51801213782846L600.5373210232714,326.69506725788494M601.9532665056252,331.6371992837619L602.1052239786808,336.01190939858793L598.2800312799346,336.22608319410006L595.4706830046589,336.3767117341313L595.3242957125415,334.7805331450073L593.5063510651162,330.99310991207653M587.302542454021,331.27036854097037L587.6574496749031,333.4233057180063L580.9368358303365,333.55376811787994L579.3320338463798,333.59684654649584L579.3034645201478,332.5000262072165M554.3538700817546,330.0095449594128L554.424148139517,334.93933052816476L548.5705275620916,334.9736904760176L548.0124338073912,334.9802937054096L547.9836852458462,331.67698747031807L543.9590441866519,331.7211581047055M566.3752835641453,329.83878147955943L566.2279101298943,334.788559368365L556.5617899855806,334.9279542699884L554.424148139517,334.93933052816476M604.4418132592834,324.06342740927664L606.3435504066613,327.93722980930215L607.3176174833466,328.4172140681461L608.0650258700882,327.3428476616531L610.0122738989003,328.7842916175184L610.5558893829831,329.45977195493356L610.44871442631,332.45812985425334L609.3994917440666,333.81011052018107L609.8266073176247,335.0009198291068L608.8664330363283,336.7418049957191L607.6280428038464,335.55221902891276L604.4736680997815,331.27755060559775M572.8705177429889,332.7094991453149L572.9927435479163,340.0580560325311L566.3382692579037,340.35670259747417L566.2279101298943,334.788559368365M537.2523709308686,341.24788264153176L529.2097963176882,341.3755670122745L529.1636064720574,338.1990367353353L529.125935680019,336.33996035912605M548.5705275620916,334.9736904760176L548.5808555967568,340.9843720051705L544.5734394015631,341.0777357521358L544.5789675880858,335.0204740000951L543.9830135259773,333.09642712139987M544.5734394015631,341.0777357521358L540.3794379097479,341.1811486001751L537.2523709308686,341.24788264153176L537.2797020827195,336.55036298925233M595.4706830046589,336.3767117341313L594.5485432683251,338.94129382094127L589.2727765762269,339.23939801602035L588.8444509003996,335.8495066837445L587.6574496749031,333.4233057180063M580.9368358303365,333.55376811787994L581.1032043461752,339.6986182287593L576.9296483683207,339.9187948716401L576.3000037470439,339.9379502076798L572.9927435479163,340.0580560325311M607.6280428038464,335.55221902891276L606.456546298794,338.1435311732489L605.4729111169704,338.2327276900277L604.6631468700132,338.2830159204939L604.7790459609988,341.3241257619218L604.0068206775992,340.1301171805744L602.0204113230892,339.8163181344362L601.6435499395533,340.5982512100726L598.5306695304545,340.7530588002194L598.2800312799346,336.22608319410006M589.2727765762269,339.23939801602035L586.176589933253,339.4138850607304L581.1032043461752,339.6986182287593M556.5617899855806,334.9279542699884L556.6476261743328,340.74250543134247L555.4365415255501,340.7790750768952L548.8582390869959,340.9744808572756L548.5808555967568,340.9843720051705M566.3382692579037,340.35670259747417L565.8904951788244,340.3799873922676L560.258261245859,340.59698638960253L556.6476261743328,340.74250543134247M598.5306695304545,340.7530588002194L599.0292529868522,348.0820721747748L594.1039349967533,348.4386901317416L592.7799338843867,348.53192142580895L595.3429119803124,344.4938012366731L597.1058697554026,342.4632760409662L596.762107413873,340.6483565246293L595.5233682070059,338.8795790982274L594.5485432683251,338.94129382094127M604.7790459609988,341.3241257619218L603.8091083224288,341.8880721602443L605.0444537300096,342.85889111032475L602.6478830398141,343.055649841795L603.721472107258,344.2575270855931L604.328874144988,345.29740030357993L603.109632402642,346.20111147159355L602.7951576008618,347.7856335164756L599.0292529868522,348.0820721747748" style="fill: inherit; stroke: inherit; stroke-width: inherit;" vector-effect="non-scaling-stroke"></path></svg>