<svg xmlns="http://www.w3.org/2000/svg" version="1.2" id="root" viewBox="577.7661462049247 365.0115722887532 53.030597094777704 91.74706830461264"><g id="counties"><path id="county-28003" class="county feature" d="M624.698 369.72l-5.354.398-.663-1.874-1.072.083-.183-2.565.549-.041 6.138-.488.266-.018z" vector-effect="non-scaling-stroke" fill="inherit" stroke="inherit" stroke-width="inherit"><title>Alcorn County</title></path><path id="county-28141" class="county feature" d="M628.398 372.702l-.067 2.245-2.634.209-.443-5.2-.556-.235-.319-4.506 2.464-.203 1.708 1.811z" vector-effect="non-scaling-stroke" fill="inherit" stroke="inherit" stroke-width="inherit"><title>Tishomingo County</title></path><path id="county-28139" class="county feature" d="M619.344 370.118l-.02 3.03-5.378.368-.286-4.076 1.012-.895-.188-2.558 2.942-.225.183 2.565 1.072-.083z" vector-effect="non-scaling-stroke" fill="inherit" stroke="inherit" stroke-width="inherit"><title>Tippah County</title></path><path id="county-28033" class="county feature" d="M604.072 370.92l-2.828.176-1.728 1.319-1.498-.837-1.128.701-.183-2.554-1.546.101.861-1.3-1.09-1.247 8.852-.542z" vector-effect="non-scaling-stroke" fill="inherit" stroke="inherit" stroke-width="inherit"><title>DeSoto County</title></path><path id="county-28009" class="county feature" d="M613.946 373.516l-2.37.454-.798.062-.357-4.91-.811.057-.197-2.808 2.335-.177 2.736-.207.188 2.558-1.012.895z" vector-effect="non-scaling-stroke" fill="inherit" stroke="inherit" stroke-width="inherit"><title>Benton County</title></path><path id="county-28093" class="county feature" d="M611.575 373.97l.117 1.645-3.59-.854-2.918.196-.176-2.47-.936-1.566-.288-4.184 1.211-.09 4.418-.276.197 2.808.81-.057.358 4.91z" vector-effect="non-scaling-stroke" fill="inherit" stroke="inherit" stroke-width="inherit"><title>Marshall County</title></path><path id="county-28143" class="county feature" d="M593.617 370.426l1.544-.6 1.546-.101.183 2.554-.518 2.386.74.807.05.812-1.606.127.129 1.597-1.489.1-2.698-1.747-.333-2.185 1.74-.704-1.593-.843 1.714-.54-.607-2.164z" vector-effect="non-scaling-stroke" fill="inherit" stroke="inherit" stroke-width="inherit"><title>Tunica County</title></path><path id="county-28137" class="county feature" d="M604.072 370.92l.936 1.567.176 2.47-.803.054-7.268.46-.74-.806.517-2.386 1.128-.701 1.498.837 1.728-1.32z" vector-effect="non-scaling-stroke" fill="inherit" stroke="inherit" stroke-width="inherit"><title>Tate County</title></path><path id="county-28117" class="county feature" d="M624.698 369.72l.556.236.443 5.2-3.244.227-.059-.825-2.96.235-.11-1.645.02-3.03z" vector-effect="non-scaling-stroke" fill="inherit" stroke="inherit" stroke-width="inherit"><title>Prentiss County</title></path><path id="county-28145" class="county feature" d="M619.324 373.148l.11 1.645-.789.327-.35 2.482-6.458.196-.145-2.183-.117-1.645 2.371-.454z" vector-effect="non-scaling-stroke" fill="inherit" stroke="inherit" stroke-width="inherit"><title>Union County</title></path><path id="county-28071" class="county feature" d="M611.692 375.615l.145 2.183.313 4.096-4.047.266-.032-.543-3.24.188-.45-6.794.803-.054 2.918-.196z" vector-effect="non-scaling-stroke" fill="inherit" stroke="inherit" stroke-width="inherit"><title>Lafayette County</title></path><path id="county-28107" class="county feature" d="M604.381 375.011l.45 6.794.03.545-3.214.195-3.115.276-.112-1.99-.951-.61-.307-3.937-.05-.812z" vector-effect="non-scaling-stroke" fill="inherit" stroke="inherit" stroke-width="inherit"><title>Panola County</title></path><path id="county-28027" class="county feature" d="M593.799 384.748l.096 1.639-3.164.145-.182-2.461-4.538.223 1.974-.52-1.798-1.661 1.41.326 1.514-1.828-.273-1.146 2.674-1.023-.014-2.08 2.698 1.747.191 3.05-.79.029z" vector-effect="non-scaling-stroke" fill="inherit" stroke="inherit" stroke-width="inherit"><title>Coahoma County</title></path><path id="county-28119" class="county feature" d="M597.162 376.284l.307 3.937.951.61.112 1.99.096 1.637-4.83.29-.202-3.56.791-.03-.19-3.05 1.488-.1-.129-1.597z" vector-effect="non-scaling-stroke" fill="inherit" stroke="inherit" stroke-width="inherit"><title>Quitman County</title></path><path id="county-28081" class="county feature" d="M622.453 375.383l.54 7.062-2.677.481-1.61.115-.411-5.439.35-2.482.789-.327 2.96-.235z" vector-effect="non-scaling-stroke" fill="inherit" stroke="inherit" stroke-width="inherit"><title>Lee County</title></path><path id="county-28057" class="county feature" d="M625.697 375.156l2.634-.209-.042 2.689-.098 4.436-5.199.373-.539-7.062z" vector-effect="non-scaling-stroke" fill="inherit" stroke="inherit" stroke-width="inherit"><title>Itawamba County</title></path><path id="county-28115" class="county feature" d="M618.295 377.602l.41 5.439-4.812.371-1.615.12-.128-1.638-.313-4.096z" vector-effect="non-scaling-stroke" fill="inherit" stroke="inherit" stroke-width="inherit"><title>Pontotoc County</title></path><path id="county-28161" class="county feature" d="M608.103 382.16l.411 5.528-4.018.272-2.446-.419-.403-4.996 3.214-.195-.03-.545 3.24-.188z" vector-effect="non-scaling-stroke" fill="inherit" stroke="inherit" stroke-width="inherit"><title>Yalobusha County</title></path><path id="county-28135" class="county feature" d="M601.647 382.545l.403 4.996.089 1.393-3.216.475.096 1.646-2.48-.399 1.677-1.203-4.141.208-.18-3.274-.096-1.639 4.829-.29-.096-1.637z" vector-effect="non-scaling-stroke" fill="inherit" stroke="inherit" stroke-width="inherit"><title>Tallahatchie County</title></path><path id="county-28013" class="county feature" d="M612.15 381.894l.128 1.638 1.615-.12.372 4.915-.728 1.44-4.825.654-.198-2.733-.411-5.528z" vector-effect="non-scaling-stroke" fill="inherit" stroke="inherit" stroke-width="inherit"><title>Calhoun County</title></path><path id="county-28011" class="county feature" d="M590.731 386.532l.36 6.976-1.61.092.09 1.631-6.965.373-.28-.595 1.459-.681-1.377-1.209 1.524-.903-.297-1.456 1.694.298-1.216-3.696 3.018-1.426-1.108-1.62-.012-.022 4.538-.223z" vector-effect="non-scaling-stroke" fill="inherit" stroke="inherit" stroke-width="inherit"><title>Bolivar County</title></path><path id="county-28095" class="county feature" d="M622.992 382.445l5.199-.373-.012.534-.157 5.93-3.935 2.104.17-.575-3.373.256-.2-2.452-.368-4.943z" vector-effect="non-scaling-stroke" fill="inherit" stroke="inherit" stroke-width="inherit"><title>Monroe County</title></path><path id="county-28017" class="county feature" d="M618.706 383.041l1.61-.115.369 4.943-3.25.22.082 1.09-1.563.397-2.417.19.728-1.439-.372-4.915z" vector-effect="non-scaling-stroke" fill="inherit" stroke="inherit" stroke-width="inherit"><title>Chickasaw County</title></path><path id="county-28133" class="county feature" d="M593.895 386.387l.18 3.274.506 9.05-1.582.097.069 1.1-2.495.15-.74.035-.263-4.862-.09-1.631 1.61-.092-.359-6.976z" vector-effect="non-scaling-stroke" fill="inherit" stroke="inherit" stroke-width="inherit"><title>Sunflower County</title></path><path id="county-28043" class="county feature" d="M608.514 387.688l.198 2.733.057.83-4.31.305-5.261.33-.18-.831-.095-1.646 3.216-.475-.09-1.393 2.447.419z" vector-effect="non-scaling-stroke" fill="inherit" stroke="inherit" stroke-width="inherit"><title>Grenada County</title></path><path id="county-28083" class="county feature" d="M599.019 391.055l.179.83.674 4.068-1.088.858.102 1.568-2.392.72-1.187 1.328-.726-1.716-.506-9.05 4.141-.208-1.678 1.203z" vector-effect="non-scaling-stroke" fill="inherit" stroke="inherit" stroke-width="inherit"><title>Leflore County</title></path><path id="county-28025" class="county feature" d="M620.685 387.869l.199 2.452 3.374-.256-.171.575.572 2.39-2.783.499-.085-1.106-5.35.461-.487-3.308 1.563-.396-.081-1.09z" vector-effect="non-scaling-stroke" fill="inherit" stroke="inherit" stroke-width="inherit"><title>Clay County</title></path><path id="county-28087" class="county feature" d="M628.022 388.535l-.075 3.988-.085 4.64-5.635.475-.351-4.11 2.783-.499-.572-2.389z" vector-effect="non-scaling-stroke" fill="inherit" stroke="inherit" stroke-width="inherit"><title>Lowndes County</title></path><path id="county-28155" class="county feature" d="M615.954 389.576l.487 3.308-1.039.621-2.558.398-1.857 1.291-1.94.118-.278-4.062-.057-.83 4.825-.654z" vector-effect="non-scaling-stroke" fill="inherit" stroke="inherit" stroke-width="inherit"><title>Webster County</title></path><path id="county-28097" class="county feature" d="M608.769 391.25l.278 4.062 1.94-.118-1.084.586.19 2.762-2.959.21-.175-2.194-2.152-.117-.347-4.885z" vector-effect="non-scaling-stroke" fill="inherit" stroke="inherit" stroke-width="inherit"><title>Montgomery County</title></path><path id="county-28015" class="county feature" d="M604.46 391.556l.347 4.885 2.152.117.175 2.194-1.528 1.44-6.72-1.813-.102-1.568 1.088-.858-.674-4.067z" vector-effect="non-scaling-stroke" fill="inherit" stroke="inherit" stroke-width="inherit"><title>Carroll County</title></path><path id="county-28105" class="county feature" d="M621.876 393.529l.35 4.109-2.23.178-4.245.324-.349-4.635 1.04-.621 5.349-.461z" vector-effect="non-scaling-stroke" fill="inherit" stroke="inherit" stroke-width="inherit"><title>Oktibbeha County</title></path><path id="county-28019" class="county feature" d="M615.402 393.505l.349 4.635-.202 1.672-1.617.126.102 1.655-1.608.124-.206-3.317-2.127.142-.19-2.762 1.084-.586 1.857-1.291z" vector-effect="non-scaling-stroke" fill="inherit" stroke="inherit" stroke-width="inherit"><title>Choctaw County</title></path><path id="county-28151" class="county feature" d="M589.57 395.231l.263 4.862.74-.035.404 3.248-3.3.16.09 1.684-3.919.136.672-.862-1.304-.929 1.734-.693-.987-2.925-.034-3.392-1.566.823.243-1.704z" vector-effect="non-scaling-stroke" fill="inherit" stroke="inherit" stroke-width="inherit"><title>Washington County</title></path><path id="county-28051" class="county feature" d="M598.886 398.38l6.72 1.812-1.022 1.971-.938 3.5-.993 1.027-6.34-2.077-.956-1.904 1.341-.465-.204-3.145z" vector-effect="non-scaling-stroke" fill="inherit" stroke="inherit" stroke-width="inherit"><title>Holmes County</title></path><path id="county-28053" class="county feature" d="M594.581 398.71l.726 1.717 1.187-1.328.204 3.145-1.34.465.956 1.904-1.32.108.083 1.605-3.192.201-.234-3.263-.674.042-.404-3.248 2.495-.15-.069-1.1z" vector-effect="non-scaling-stroke" fill="inherit" stroke="inherit" stroke-width="inherit"><title>Humphreys County</title></path><path id="county-28103" class="county feature" d="M627.862 397.164l-.105 5.611-.023 1.174-7.215.622-.522-6.755 2.23-.178z" vector-effect="non-scaling-stroke" fill="inherit" stroke="inherit" stroke-width="inherit"><title>Noxubee County</title></path><path id="county-28159" class="county feature" d="M619.997 397.816l.522 6.755-1.578.108-6.298.361-.217-3.323 1.608-.124-.102-1.655 1.617-.126.202-1.672z" vector-effect="non-scaling-stroke" fill="inherit" stroke="inherit" stroke-width="inherit"><title>Winston County</title></path><path id="county-28007" class="county feature" d="M612.426 401.717l.217 3.323-6.312.463-.011.85-3.667.337.993-1.028.938-3.499 1.022-1.971 1.528-1.44 2.96-.21 2.126-.142z" vector-effect="non-scaling-stroke" fill="inherit" stroke="inherit" stroke-width="inherit"><title>Attala County</title></path><path id="county-28125" class="county feature" d="M590.977 403.306l.674-.042.234 3.263-1.535 1.718.997.29-.246 2.935-3.777.193-.157-3.29.6-3.223-.09-1.684z" vector-effect="non-scaling-stroke" fill="inherit" stroke="inherit" stroke-width="inherit"><title>Sharkey County</title></path><path id="county-28163" class="county feature" d="M602.653 406.69l-1.126 2.783-3.479 1.629-2.588 1.774-1.555 1.344-2.714-1.94-.09-.81.246-2.935-.997-.29 1.535-1.718 3.192-.201-.083-1.605 1.32-.108z" vector-effect="non-scaling-stroke" fill="inherit" stroke="inherit" stroke-width="inherit"><title>Yazoo County</title></path><path id="county-28055" class="county feature" d="M587.768 405.15l-.601 3.223.157 3.29 3.777-.193.09.81-.107 1.004-2.04-.065.123 2.495-1.417.035-.328-2.451-1.24.053-1.731-1.203 1.37-1.506-1.283-.192-.13-1.877.986-.994-.445-1.88-1.162 1.68.074-1.956-.013-.137z" vector-effect="non-scaling-stroke" fill="inherit" stroke="inherit" stroke-width="inherit"><title>Issaquena County</title></path><path id="county-28099" class="county feature" d="M618.94 404.68l.49 6.548-6.29.467-.497-6.655z" vector-effect="non-scaling-stroke" fill="inherit" stroke="inherit" stroke-width="inherit"><title>Neshoba County</title></path><path id="county-28079" class="county feature" d="M612.643 405.04l.497 6.655-.078.006-6.367.418-.07-1.067-.305-4.698.011-.85z" vector-effect="non-scaling-stroke" fill="inherit" stroke="inherit" stroke-width="inherit"><title>Leake County</title></path><path id="county-28069" class="county feature" d="M627.734 403.949l-.108 6.622-8.196.657-.49-6.549 1.58-.108z" vector-effect="non-scaling-stroke" fill="inherit" stroke="inherit" stroke-width="inherit"><title>Kemper County</title></path><path id="county-28089" class="county feature" d="M606.32 406.354l.305 4.698-.788.942-1.146.108-3.028 3.685-2.781.163-.1-1.641-3.228.184-.094-1.617 2.588-1.774 3.479-1.63 1.126-2.782z" vector-effect="non-scaling-stroke" fill="inherit" stroke="inherit" stroke-width="inherit"><title>Madison County</title></path><path id="county-28123" class="county feature" d="M606.625 411.052l.07 1.067 6.367-.418.46 6.612-6.387.466-.162-2.453-1.136-4.332z" vector-effect="non-scaling-stroke" fill="inherit" stroke="inherit" stroke-width="inherit"><title>Scott County</title></path><path id="county-28149" class="county feature" d="M593.905 414.22l-.755.574-.228 2.64-1.044-.21-.417 2.445-.565 1.345-2.242 1.521-1.817-.535-.011-.115-.354-.051-1.78-.101.586-1.469 1.887-.323 1.302-2.259-1.462-.336.297-1.639-1.725-.034.193-2.037.412-.285 1.24-.053.328 2.451 1.417-.035-.123-2.495 2.04.065.107-1.004z" vector-effect="non-scaling-stroke" fill="inherit" stroke="inherit" stroke-width="inherit"><title>Warren County</title></path><path id="county-28121" class="county feature" d="M605.837 411.994l1.136 4.332.162 2.453.216 3.272-7.863.449-.377-2.294 2.552-4.42 3.028-3.684z" vector-effect="non-scaling-stroke" fill="inherit" stroke="inherit" stroke-width="inherit"><title>Rankin County</title></path><path id="county-28075" class="county feature" d="M627.626 410.571l-.107 5.085-.03 1.528-7.56.649-.5-6.605z" vector-effect="non-scaling-stroke" fill="inherit" stroke="inherit" stroke-width="inherit"><title>Lauderdale County</title></path><path id="county-28101" class="county feature" d="M619.43 411.228l.499 6.605-6.408.48-.46-6.612.08-.006z" vector-effect="non-scaling-stroke" fill="inherit" stroke="inherit" stroke-width="inherit"><title>Newton County</title></path><path id="county-28049" class="county feature" d="M601.663 415.787l-2.552 4.42.377 2.293-7.674.473-.353-3.304.417-2.444 1.044.21.228-2.64.755-.575 1.555-1.344.094 1.617 3.228-.184.1 1.641z" vector-effect="non-scaling-stroke" fill="inherit" stroke="inherit" stroke-width="inherit"><title>Hinds County</title></path><path id="county-28023" class="county feature" d="M627.489 417.184l-.168 6.298-2.285.87-4.495.916-.612-7.435z" vector-effect="non-scaling-stroke" fill="inherit" stroke="inherit" stroke-width="inherit"><title>Clarke County</title></path><path id="county-28021" class="county feature" d="M591.46 419.67l.354 3.303-.01 4.927-4.459-1.181-3.697.039.852-1.763 1.721-1.13.616-1.865 1.817.535 2.242-1.521z" vector-effect="non-scaling-stroke" fill="inherit" stroke="inherit" stroke-width="inherit"><title>Claiborne County</title></path><path id="county-28061" class="county feature" d="M619.929 417.833l.612 7.435-.517.078-5.852.846-.65-7.88z" vector-effect="non-scaling-stroke" fill="inherit" stroke="inherit" stroke-width="inherit"><title>Jasper County</title></path><path id="county-28129" class="county feature" d="M613.521 418.313l.651 7.88-1.322.19-3.952.575-.475-4.982-1.072.075-.216-3.272z" vector-effect="non-scaling-stroke" fill="inherit" stroke="inherit" stroke-width="inherit"><title>Smith County</title></path><path id="county-28029" class="county feature" d="M599.488 422.5l1.768 3.49.264 1.968-1.892.777-.58.368-7.159.44-.085-1.643.01-4.927z" vector-effect="non-scaling-stroke" fill="inherit" stroke="inherit" stroke-width="inherit"><title>Copiah County</title></path><path id="county-28127" class="county feature" d="M607.351 422.051l1.072-.075.475 4.982-1.6.219-3.45.467-2.328.314-.264-1.968-1.768-3.49z" vector-effect="non-scaling-stroke" fill="inherit" stroke="inherit" stroke-width="inherit"><title>Simpson County</title></path><path id="county-28153" class="county feature" d="M628.38 432.015l-6.205.522-1.607.124-.544-7.315.517-.078 4.495-.917 2.285-.87.438 3.654z" vector-effect="non-scaling-stroke" fill="inherit" stroke="inherit" stroke-width="inherit"><title>Wayne County</title></path><path id="county-28063" class="county feature" d="M591.804 427.9l.085 1.643.08 1.637-6.584.369-2.375-1.05-.35-1.437-.528-1.74 1.516-.564 3.697-.04z" vector-effect="non-scaling-stroke" fill="inherit" stroke="inherit" stroke-width="inherit"><title>Jefferson County</title></path><path id="county-28067" class="county feature" d="M620.568 432.661l-3.211.224-4.007.284-.5-6.785 1.322-.192 5.852-.846z" vector-effect="non-scaling-stroke" fill="inherit" stroke="inherit" stroke-width="inherit"><title>Jones County</title></path><path id="county-28031" class="county feature" d="M612.85 426.384l.5 6.785-.835.058-2.131.153-.395-1.952-2.5-1.165-.191-3.086 1.6-.219z" vector-effect="non-scaling-stroke" fill="inherit" stroke="inherit" stroke-width="inherit"><title>Covington County</title></path><path id="county-28065" class="county feature" d="M610.384 433.38l-1.07.069-2.694.179.065.817-2.145.13-.692-6.931 3.45-.467.191 3.086 2.5 1.165z" vector-effect="non-scaling-stroke" fill="inherit" stroke="inherit" stroke-width="inherit"><title>Jefferson Davis County</title></path><path id="county-28077" class="county feature" d="M604.54 434.575l-1.222 1.1-3.25-.068-.44-6.872 1.892-.777 2.328-.314z" vector-effect="non-scaling-stroke" fill="inherit" stroke="inherit" stroke-width="inherit"><title>Lawrence County</title></path><path id="county-28001" class="county feature" d="M585.385 431.549l.183 4.934-1.259-.389-3.644 1.14-.205 1.71-1.604.785-1.09-1.057 2.189-.627-1.109-2.332 1.203.699-.251-3.134 1.54-.676-1.379-1.442 1.499.392.242-2.153.96-.337.35 1.437z" vector-effect="non-scaling-stroke" fill="inherit" stroke="inherit" stroke-width="inherit"><title>Adams County</title></path><path id="county-28085" class="county feature" d="M600.068 435.607l-.262.016-4.571.283-1.343.083-.278-4.908-1.645.099-.08-1.637 7.159-.44.58-.368z" vector-effect="non-scaling-stroke" fill="inherit" stroke="inherit" stroke-width="inherit"><title>Lincoln County</title></path><path id="county-28037" class="county feature" d="M591.969 431.18l1.645-.1.278 4.91-6.03.335-1.278.59-1.016-.432-.183-4.934z" vector-effect="non-scaling-stroke" fill="inherit" stroke="inherit" stroke-width="inherit"><title>Franklin County</title></path><path id="county-28041" class="county feature" d="M628.38 432.015l.758 5.984.276 2.159-6.504.511-.735-8.132z" vector-effect="non-scaling-stroke" fill="inherit" stroke="inherit" stroke-width="inherit"><title>Greene County</title></path><path id="county-28035" class="county feature" d="M617.357 432.885l.839 9.787-3.232.23-.263-1.867-.424-6.29-1.638.12-.124-1.638.835-.058z" vector-effect="non-scaling-stroke" fill="inherit" stroke="inherit" stroke-width="inherit"><title>Forrest County</title></path><path id="county-28073" class="county feature" d="M610.384 433.38l2.13-.153.125 1.638 1.638-.12.424 6.29-4.847.478-.54-8.064z" vector-effect="non-scaling-stroke" fill="inherit" stroke="inherit" stroke-width="inherit"><title>Lamar County</title></path><path id="county-28111" class="county feature" d="M620.568 432.661l1.607-.124.735 8.132-.683 1.69-4.031.313-.84-9.787z" vector-effect="non-scaling-stroke" fill="inherit" stroke="inherit" stroke-width="inherit"><title>Perry County</title></path><path id="county-28091" class="county feature" d="M609.315 433.449l.54 8.064-1.178.082-1.714.118-.089-1.364-1.353.092-1.884-1.776-.319-2.99 1.222-1.1 2.145-.13-.065-.817z" vector-effect="non-scaling-stroke" fill="inherit" stroke="inherit" stroke-width="inherit"><title>Marion County</title></path><path id="county-28157" class="county feature" d="M585.568 436.483l1.016.432.614.707.263 5.29-1.853.092-7.341.349 1.103-1.315-1.033-.891.519-1.418 1.604-.785.205-1.71 3.644-1.14z" vector-effect="non-scaling-stroke" fill="inherit" stroke="inherit" stroke-width="inherit"><title>Wilkinson County</title></path><path id="county-28005" class="county feature" d="M593.892 435.99l1.343-.084.387 6.544-.309.018-4.123.237-3.729.207-.263-5.29-.614-.707 1.277-.59z" vector-effect="non-scaling-stroke" fill="inherit" stroke="inherit" stroke-width="inherit"><title>Amite County</title></path><path id="county-28113" class="county feature" d="M599.806 435.623l.407 6.54-1.395.088-3.196.199-.387-6.544z" vector-effect="non-scaling-stroke" fill="inherit" stroke="inherit" stroke-width="inherit"><title>Pike County</title></path><path id="county-28147" class="county feature" d="M603.318 435.675l.32 2.99 1.883 1.776 1.353-.092.089 1.364-6.75.45-.407-6.54.262-.016z" vector-effect="non-scaling-stroke" fill="inherit" stroke="inherit" stroke-width="inherit"><title>Walthall County</title></path><path id="county-28109" class="county feature" d="M614.701 441.035l.263 1.866.332 4.9-3.243.21.167 2.456-2.263 1.232-2.162-2.234-.528-1.475 1.41-6.395 1.177-.082z" vector-effect="non-scaling-stroke" fill="inherit" stroke="inherit" stroke-width="inherit"><title>Pearl River County</title></path><path id="county-28039" class="county feature" d="M629.414 440.158l.598 4.888-7.54.584-.245-3.27.683-1.69z" vector-effect="non-scaling-stroke" fill="inherit" stroke="inherit" stroke-width="inherit"><title>George County</title></path><path id="county-28131" class="county feature" d="M622.227 442.36l.245 3.27.082 1.088-5.673.417-1.585.665-.332-4.899 3.232-.229z" vector-effect="non-scaling-stroke" fill="inherit" stroke="inherit" stroke-width="inherit"><title>Stone County</title></path><path id="county-28059" class="county feature" d="M630.012 445.046l.785 6.48-1.24 1.387-1.124-1.19-3.26.959-2.246-1.294-.373-4.67-.082-1.088z" vector-effect="non-scaling-stroke" fill="inherit" stroke="inherit" stroke-width="inherit"><title>Jackson County</title></path><path id="county-28047" class="county feature" d="M622.554 446.718l.373 4.67-6.355 2.786-.904-1.243-.372-5.13 1.585-.666z" vector-effect="non-scaling-stroke" fill="inherit" stroke="inherit" stroke-width="inherit"><title>Harrison County</title></path><path id="county-28045" class="county feature" d="M615.296 447.8l.372 5.13.287 1.29-2.97 2.539-1.574-.806-1.454-4.254 2.263-1.232-.167-2.456z" vector-effect="non-scaling-stroke" fill="inherit" stroke="inherit" stroke-width="inherit"><title>Hancock County</title></path></g><path id="counties-mesh" class="counties mesh" d="M624.38 365.215l.318 4.506-5.354.397-.663-1.874-1.072.083-.183-2.565m-20.536 6.517l-.518 2.386.74.807.05.812-1.606.127.129 1.597-1.489.1-2.698-1.747-.333-2.185 1.74-.704-1.593-.843 1.714-.54-.607-2.164 1.198.5 1.544-.599.861-1.3-1.09-1.247 8.852-.542 1.211-.09 4.418-.276 2.335-.177 2.736-.207 2.942-.225.549-.041 6.138-.488.266-.018 2.464-.203 1.708 1.811-.153 5.88-.067 2.244-2.634.209-.443-5.2-.556-.235m-5.354.397l-.02 3.03-5.378.368-.286-4.076 1.012-.895-.188-2.558m-10.7.75l.288 4.184-2.828.175-1.728 1.319-1.498-.837-1.128.701-.183-2.554-1.546.101m18.785 3.69l-2.37.454-.798.062-.357-4.91-.811.057-.197-2.808m2.162 7.599l.117 1.645-3.59-.854-2.918.196-.176-2.47-.936-1.566m1.112 4.036l-.803.054-7.268.46m28.584-.315l-3.244.227-.059-.825-2.96.235-.11-1.645m-28.593 13.384l.36 6.976-1.61.092.09 1.631-6.965.373-.28-.595 1.459-.681-1.377-1.209 1.524-.903-.297-1.456 1.694.298-1.216-3.696 3.018-1.426-1.108-1.62-.012-.022 1.974-.52-1.798-1.661 1.41.326 1.514-1.828-.273-1.146 2.674-1.023-.014-2.08m27.936-1.57l-.789.328-.35 2.482-6.458.196-.145-2.183m.145 2.183l.313 4.096-4.047.266-.032-.543-3.24.188-.45-6.794m.45 6.794l.03.545-3.214.195-3.115.276-.112-1.99-.951-.61-.307-3.937m-2.966 1.825l.191 3.05-.79.029.202 3.56.096 1.639-3.164.145-.182-2.461-4.538.223m12.521-1.473l.096 1.637-4.83.29m28.655-9.365l.54 7.062-2.677.481-1.61.115-.411-5.439m10.036-2.655l-.042 2.689-.098 4.436-5.199.373m-4.286.596l-4.813.371-1.615.12-.128-1.638m-4.047.266l.411 5.528-4.018.272-2.446-.419-.403-4.996m.403 4.996l.089 1.393-3.216.475.096 1.646-2.48-.399 1.677-1.203-4.141.208-.18-3.274m19.998-2.975l.372 4.915-.728 1.44-4.825.654-.198-2.733m19.677-5.616l-.012.534-.157 5.93-3.935 2.104.17-.575-3.373.256-.2-2.452-.368-4.943m.369 4.943l-3.25.22.082 1.09-1.563.397-2.417.19m-19.462-.105l.506 9.05-1.582.097.069 1.1-2.495.15-.74.035-.263-4.862m19.142-4.81l.057.83-4.31.305-5.261.33-.18-.831m.18.83l.674 4.068-1.088.858.102 1.568-2.392.72-1.187 1.328-.726-1.716m29.506-8.07l.572 2.388-2.783.5-.085-1.106-5.35.461-.487-3.308m12.068-1.04l-.075 3.987-.085 4.64-5.635.475-.351-4.11m-5.435-.644l-1.039.621-2.558.398-1.857 1.291-1.94.118-.278-4.062m2.218 3.944l-1.084.586.19 2.762-2.959.21-.175-2.194-2.152-.117-.347-4.885m2.674 7.196l-1.528 1.44-6.72-1.813m23.34-.741l-2.23.178-4.245.324-.349-4.635m-24.211 18.775l-.107 1.004-2.04-.065.123 2.495-1.417.035-.328-2.451-1.24.053-1.731-1.203 1.37-1.506-1.283-.192-.13-1.877.986-.994-.445-1.88-1.162 1.68.074-1.956-.013-.137.672-.862-1.304-.929 1.734-.693-.987-2.925-.034-3.392-1.566.823.243-1.704m33.145 2.536l-.202 1.672-1.617.126.102 1.655-1.608.124-.206-3.317-2.127.142m-19.52 1.516l.404 3.248-3.3.16.09 1.684-3.919.136m21.758-5.094l-1.022 1.971-.938 3.5-.993 1.027-6.34-2.077-.956-1.904 1.341-.465-.204-3.145m-.18 5.514l-1.32.108.083 1.605-3.192.201-.234-3.263-.674.042m36.885-6.142l-.105 5.611-.023 1.174-7.215.622-.522-6.755m.522 6.755l-1.578.108-6.298.361-.217-3.323m-20.541 4.81l-1.535 1.718.997.29-.246 2.935-3.777.193-.157-3.29.6-3.223m31.174-.47l.489 6.548-6.29.467-.497-6.655-6.312.463-.011.85-3.667.337-1.126 2.783-3.479 1.629-2.588 1.774-1.555 1.344-2.714-1.94-.09-.81m2.804 2.75l-.755.574-.228 2.64-1.044-.21-.417 2.445-.565 1.345-2.242 1.521-1.817-.535-.011-.115-.354-.051-1.78-.101.586-1.469 1.887-.323 1.302-2.259-1.462-.336.297-1.639-1.725-.034.193-2.037.412-.285m26.958-1.656l-.078.006-6.367.418-.07-1.067-.305-4.698m21.414-2.405l-.108 6.622-.107 5.085-.03 1.528-7.56.649-.5-6.605m-12.804-.176l-.788.942-1.146.108-3.028 3.685-2.781.163-.1-1.641-3.228.184-.094-1.617m17.602-1.175l.46 6.612-6.387.466-.162-2.453-1.136-4.332m1.298 6.785l.216 3.272-7.863.449-.377-2.294 2.552-4.42m18.878 9.482l-.517.078-5.852.846-.65-7.88m-14.034 4.188l-7.674.473-.353-3.304m-4.877 17.246l.614.707.263 5.29-1.853.092-7.341.349 1.103-1.315-1.033-.891.519-1.418-1.09-1.057 2.189-.627-1.109-2.332 1.203.699-.251-3.134 1.54-.676-1.379-1.442 1.499.392.242-2.153.96-.337-.528-1.74 1.516-.564.852-1.763 1.721-1.13.616-1.865m4.977.973l-.01 4.927-4.459-1.181-3.697.039m30.524-.566l-1.322.192-3.952.574-.475-4.982-1.072.075m-7.863.449l1.768 3.49.264 1.968-1.892.777-.58.368-7.159.44-.085-1.643m17.094-.942l-1.6.219-3.45.467-2.328.314m25.969-10.774l-.168 6.298.438 3.653.622 4.88-6.206.522-1.607.124-.544-7.315m-28.135 4.197l.08 1.637-6.584.369-2.375-1.05-.35-1.437m37.908 3.6l-3.211.223-4.007.284-.5-6.785m.5 6.785l-.835.058-2.131.153-.395-1.952-2.5-1.165-.191-3.086m3.086 6.203l-1.07.069-2.694.179.065.817-2.145.13-.692-6.931m.692 6.931l-1.222 1.1-3.25-.068-.44-6.872m-14.243 2.814l.183 4.934-1.259-.389-3.644 1.14-.205 1.71-1.604.785m21.212-4.122l-.262.016-4.571.283-1.343.083-.278-4.908-1.645.099m1.923 4.81l-6.03.335-1.278.59-1.016-.432m42.813-4.468l.757 5.984.276 2.159-6.504.511-.735-8.132m-4.818.348l.839 9.787-3.232.23-.263-1.867-.424-6.29-1.638.12-.124-1.638m2.186 7.808l-4.847.478-.54-8.064m13.596 7.22l-.683 1.69-4.031.313m-8.342-1.159l-1.177.082-1.714.118-.089-1.364-1.353.092-1.884-1.776-.319-2.99m-8.083.23l.387 6.545-.309.018-4.123.237-3.729.207m12.345-7.289l.407 6.54-1.395.088-3.196.199m11.34-.737l-6.75.45m14.752.738l.332 4.9-3.243.21.167 2.456-2.263 1.232-2.162-2.234-.528-1.475 1.41-6.395m21.335 3.45l-7.54.585-.245-3.27m.7 9.028l-6.355 2.786-.904-1.243-.372-5.13m14.118-7.643l.598 4.888.785 6.48-1.24 1.387-1.124-1.19-3.26.959-2.246-1.294-.373-4.67m-6.886 6.213l.287 1.29-2.97 2.538-1.574-.806-1.454-4.254m17.669-41.128l-8.196.657m7.89 12.254l-2.284.87-4.495.916-.612-7.435-6.408.48m8.95 27.317l.083 1.088-5.673.417-1.585.665" vector-effect="non-scaling-stroke" fill="inherit" stroke="inherit" stroke-width="inherit"/></svg>