<?xml version="1.0" standalone="yes"?>
<svg xmlns="http://www.w3.org/2000/svg" version="1.2" id="root" viewBox="572.2887092912165 359.53413537504497 63.98547092219414 102.70194213202907"><style>
@import url("../../css/svg.css");</style><rect id="bbox" class="bbox" x="572.2887092912165" y="359.53413537504497" width="63.98547092219414" height="102.70194213202907"></rect><g id="counties"><path id="county-28003" class="county feature" d="M624.6981613272459,369.72083086741304L619.3441986273897,370.1184610528833L618.6806224103751,368.24375587063355L617.6093870006982,368.3272252421867L617.4262562026285,365.7621306696401L617.9745764849174,365.72054057895514L624.1130060801067,365.2334727398777L624.3791705063921,365.2151094641399Z" style="fill: inherit; stroke: inherit; stroke-width: inherit;" vector-effect="non-scaling-stroke"><title>Alcorn County</title></path><path id="county-28141" class="county feature" d="M628.397878156097,372.70241434468494L628.330917992992,374.9474670095292L625.6966567701201,375.15584419860215L625.254161944842,369.9560488456168L624.6981613272459,369.72083086741304L624.3791705063921,365.2151094641399L626.8425749862996,365.0115722887532L628.5506065267796,366.8232513389048Z" style="fill: inherit; stroke: inherit; stroke-width: inherit;" vector-effect="non-scaling-stroke"><title>Tishomingo County</title></path><path id="county-28139" class="county feature" d="M619.3441986273897,370.1184610528833L619.3242476405372,373.14793184999417L613.9460387995119,373.5162944692405L613.6600515188028,369.44006167138025L614.6722015447278,368.54539889557293L614.4838879756938,365.9867892412617L617.4262562026285,365.7621306696401L617.6093870006982,368.3272252421867L618.6806224103751,368.24375587063355Z" style="fill: inherit; stroke: inherit; stroke-width: inherit;" vector-effect="non-scaling-stroke"><title>Tippah County</title></path><path id="county-28033" class="county feature" d="M604.0720303617717,370.9205526833267L601.2435087081335,371.0957006924216L599.5155346386488,372.41461386338483L598.0182303685206,371.5777214086131L596.8901869102974,372.2794525921397L596.7067800201747,369.7247024243866L595.1611307108833,369.82638200861265L596.0221468147529,368.52687796684495L594.9319323773258,367.2791070056318L603.7844724850885,366.73730386042405Z" style="fill: inherit; stroke: inherit; stroke-width: inherit;" vector-effect="non-scaling-stroke"><title>DeSoto County</title></path><path id="county-28009" class="county feature" d="M613.9460387995119,373.5162944692405L611.575205429813,373.96991857159026L610.7784590284501,374.03249483062586L610.420687334904,369.1217530535722L609.6098610138423,369.178784385223L609.4131831510962,366.37128910977015L611.7476370242942,366.19367424236873L614.4838879756938,365.9867892412617L614.6722015447278,368.54539889557293L613.6600515188028,369.44006167138025Z" style="fill: inherit; stroke: inherit; stroke-width: inherit;" vector-effect="non-scaling-stroke"><title>Benton County</title></path><path id="county-28093" class="county feature" d="M611.575205429813,373.96991857159026L611.692316782017,375.61516237624176L608.1016543881497,374.7613916022261L605.1840896426785,374.9569670069841L605.0083711924871,372.48736863554234L604.0720303617717,370.9205526833267L603.7844724850885,366.73730386042405L604.9953166777494,366.6476003919596L609.4131831510962,366.37128910977015L609.6098610138423,369.178784385223L610.420687334904,369.1217530535722L610.7784590284501,374.03249483062586Z" style="fill: inherit; stroke: inherit; stroke-width: inherit;" vector-effect="non-scaling-stroke"><title>Marshall County</title></path><path id="county-28143" class="county feature" d="M593.6174666686736,370.4258508539016L595.1611307108833,369.82638200861265L596.7067800201747,369.7247024243866L596.8901869102974,372.2794525921397L596.3724977257268,374.66480072263016L597.1126599234774,375.47183872607764L597.1623198681174,376.284402226109L595.5562158166103,376.4110447897965L595.6850017962579,378.0079605408247L594.1964060512183,378.10869959067804L591.4977375149712,376.361182374991L591.1645565275824,374.17597845923433L592.9041670020063,373.47185575054766L591.3116028865745,372.62871940150444L593.0259990324304,372.08886149092984L592.418835533942,369.9254805447972Z" style="fill: inherit; stroke: inherit; stroke-width: inherit;" vector-effect="non-scaling-stroke"><title>Tunica County</title></path><path id="county-28137" class="county feature" d="M604.0720303617717,370.9205526833267L605.0083711924871,372.48736863554234L605.1840896426785,374.9569670069841L604.38097533555,375.01133700725995L597.1126599234774,375.47183872607764L596.3724977257268,374.66480072263016L596.8901869102974,372.2794525921397L598.0182303685206,371.5777214086131L599.5155346386488,372.41461386338483L601.2435087081335,371.0957006924216Z" style="fill: inherit; stroke: inherit; stroke-width: inherit;" vector-effect="non-scaling-stroke"><title>Tate County</title></path><path id="county-28117" class="county feature" d="M624.6981613272459,369.72083086741304L625.254161944842,369.9560488456168L625.6966567701201,375.15584419860215L622.4534798767901,375.3830588984937L622.3941011877537,374.5579852269292L619.433733696125,374.7927903452876L619.3242476405372,373.14793184999417L619.3441986273897,370.1184610528833Z" style="fill: inherit; stroke: inherit; stroke-width: inherit;" vector-effect="non-scaling-stroke"><title>Prentiss County</title></path><path id="county-28145" class="county feature" d="M619.3242476405372,373.14793184999417L619.433733696125,374.7927903452876L618.6453359698605,375.1196704239137L618.2945420412684,377.6023688005607L611.8366631091947,377.79761306272974L611.692316782017,375.61516237624176L611.575205429813,373.96991857159026L613.9460387995119,373.5162944692405Z" style="fill: inherit; stroke: inherit; stroke-width: inherit;" vector-effect="non-scaling-stroke"><title>Union County</title></path><path id="county-28071" class="county feature" d="M611.692316782017,375.61516237624176L611.8366631091947,377.79761306272974L612.1503218574001,381.89443387786764L608.1026864327565,382.15969465109777L608.0710652688327,381.6167159097372L604.8304549164875,381.8053518378431L604.38097533555,375.01133700725995L605.1840896426785,374.9569670069841L608.1016543881497,374.7613916022261Z" style="fill: inherit; stroke: inherit; stroke-width: inherit;" vector-effect="non-scaling-stroke"><title>Lafayette County</title></path><path id="county-28107" class="county feature" d="M604.38097533555,375.01133700725995L604.8304549164875,381.8053518378431L604.8609998217364,382.35041796662813L601.6472571356418,382.5452734232705L598.5323025373958,382.82109476138044L598.4203397437383,380.83061469014433L597.4689282113569,380.2205659669471L597.1623198681174,376.284402226109L597.1126599234774,375.47183872607764Z" style="fill: inherit; stroke: inherit; stroke-width: inherit;" vector-effect="non-scaling-stroke"><title>Panola County</title></path><path id="county-28027" class="county feature" d="M593.7987774500543,384.7482092369261L593.8945586409842,386.3868718878374L590.7313672363443,386.5318780577787L590.5487512953966,384.07094280120066L586.0110599008851,384.29376902586375L587.984672331962,383.7745437630048L586.1870451268469,382.11292456526724L587.5979200312747,382.4389516541494L589.1106804053863,380.61142767594606L588.8382755039281,379.46501231622165L591.5123484516325,378.4417893557858L591.4977375149712,376.361182374991L594.1964060512183,378.10869959067804L594.3873200987168,381.1582551048225L593.5961571188461,381.187501423016Z" style="fill: inherit; stroke: inherit; stroke-width: inherit;" vector-effect="non-scaling-stroke"><title>Coahoma County</title></path><path id="county-28119" class="county feature" d="M597.1623198681174,376.284402226109L597.4689282113569,380.2205659669471L598.4203397437383,380.83061469014433L598.5323025373958,382.82109476138044L598.6279080922652,384.45790840211737L593.7987774500543,384.7482092369261L593.5961571188461,381.187501423016L594.3873200987168,381.1582551048225L594.1964060512183,378.10869959067804L595.6850017962579,378.0079605408247L595.5562158166103,376.4110447897965Z" style="fill: inherit; stroke: inherit; stroke-width: inherit;" vector-effect="non-scaling-stroke"><title>Quitman County</title></path><path id="county-28081" class="county feature" d="M622.4534798767901,375.3830588984937L622.9921547304234,382.44474211124486L620.3162768075638,382.9263576912864L618.7059120198049,383.04095061239707L618.2945420412684,377.6023688005607L618.6453359698605,375.1196704239137L619.433733696125,374.7927903452876L622.3941011877537,374.5579852269292Z" style="fill: inherit; stroke: inherit; stroke-width: inherit;" vector-effect="non-scaling-stroke"><title>Lee County</title></path><path id="county-28057" class="county feature" d="M625.6966567701201,375.15584419860215L628.330917992992,374.9474670095292L628.2887246010254,377.63554147913953L628.1905664966613,382.0723448194732L622.9921547304234,382.44474211124486L622.4534798767901,375.3830588984937Z" style="fill: inherit; stroke: inherit; stroke-width: inherit;" vector-effect="non-scaling-stroke"><title>Itawamba County</title></path><path id="county-28115" class="county feature" d="M618.2945420412684,377.6023688005607L618.7059120198049,383.04095061239707L613.8934539621348,383.4121597786442L612.2779565287938,383.5321332591627L612.1503218574001,381.89443387786764L611.8366631091947,377.79761306272974Z" style="fill: inherit; stroke: inherit; stroke-width: inherit;" vector-effect="non-scaling-stroke"><title>Pontotoc County</title></path><path id="county-28161" class="county feature" d="M608.1026864327565,382.15969465109777L608.5140333593503,387.68838691238545L604.4956936557097,387.9597719302785L602.0496751600303,387.54108403445764L601.6472571356418,382.5452734232705L604.8609998217364,382.35041796662813L604.8304549164875,381.8053518378431L608.0710652688327,381.6167159097372Z" style="fill: inherit; stroke: inherit; stroke-width: inherit;" vector-effect="non-scaling-stroke"><title>Yalobusha County</title></path><path id="county-28135" class="county feature" d="M601.6472571356418,382.5452734232705L602.0496751600303,387.54108403445764L602.138799930254,388.9338176442458L598.922726833109,389.40942569354286L599.0188096303938,391.0546714013101L596.538419173749,390.65612414715144L598.2163745930554,389.4528863709047L594.0748774937941,389.661334460523L593.8945586409842,386.3868718878374L593.7987774500543,384.7482092369261L598.6279080922652,384.45790840211737L598.5323025373958,382.82109476138044Z" style="fill: inherit; stroke: inherit; stroke-width: inherit;" vector-effect="non-scaling-stroke"><title>Tallahatchie County</title></path><path id="county-28013" class="county feature" d="M612.1503218574001,381.89443387786764L612.2779565287938,383.5321332591627L613.8934539621348,383.4121597786442L614.2654955326769,388.32708182964643L613.5373528918562,389.7664402597808L608.7120585262658,390.42065841279225L608.5140333593503,387.68838691238545L608.1026864327565,382.15969465109777Z" style="fill: inherit; stroke: inherit; stroke-width: inherit;" vector-effect="non-scaling-stroke"><title>Calhoun County</title></path><path id="county-28011" class="county feature" d="M590.7313672363443,386.5318780577787L591.090660320557,393.50822137039063L589.4803940311764,393.59994024499804L589.5703472785002,395.23097778550414L582.6055847661173,395.60356982587143L582.3257058235197,395.0087519174083L583.7847601680953,394.32782333464513L582.4082877788368,393.11909292839994L583.9315561189817,392.2160819796652L583.6351871457146,390.7602079584135L585.3288755679613,391.0579160435028L584.1129544489619,387.36189728378724L587.1307351191224,385.9364916795482L586.0232913227732,384.3164015832307L586.0110599008851,384.29376902586375L590.5487512953966,384.07094280120066Z" style="fill: inherit; stroke: inherit; stroke-width: inherit;" vector-effect="non-scaling-stroke"><title>Bolivar County</title></path><path id="county-28095" class="county feature" d="M622.9921547304234,382.44474211124486L628.1905664966613,382.0723448194732L628.1791218844719,382.60574448197553L628.0223433647661,388.53524549561155L624.0866146190193,390.64043994661426L624.2578867565618,390.0654445015525L620.8838490267049,390.3212311207128L620.684538327556,387.86891055120464L620.3162768075638,382.9263576912864Z" style="fill: inherit; stroke: inherit; stroke-width: inherit;" vector-effect="non-scaling-stroke"><title>Monroe County</title></path><path id="county-28017" class="county feature" d="M618.7059120198049,383.04095061239707L620.3162768075638,382.9263576912864L620.684538327556,387.86891055120464L617.435537854064,388.0892844860937L617.5167737171887,389.1795893041516L615.953702180472,389.5758503826157L613.5373528918562,389.7664402597808L614.2654955326769,388.32708182964643L613.8934539621348,383.4121597786442Z" style="fill: inherit; stroke: inherit; stroke-width: inherit;" vector-effect="non-scaling-stroke"><title>Chickasaw County</title></path><path id="county-28133" class="county feature" d="M593.8945586409842,386.3868718878374L594.0748774937941,389.661334460523L594.5814673287975,398.71078612010626L592.9990398918812,398.8084594634073L593.0676784389105,399.9080985580364L590.5725472026963,400.05817999639396L589.8329215674636,400.0930862919315L589.5703472785002,395.23097778550414L589.4803940311764,393.59994024499804L591.090660320557,393.50822137039063L590.7313672363443,386.5318780577787Z" style="fill: inherit; stroke: inherit; stroke-width: inherit;" vector-effect="non-scaling-stroke"><title>Sunflower County</title></path><path id="county-28043" class="county feature" d="M608.5140333593503,387.68838691238545L608.7120585262658,390.42065841279225L608.76882176038,391.25025236461795L604.4598234359971,391.55592539901807L599.1977701917162,391.88584057304513L599.0188096303938,391.0546714013101L598.922726833109,389.40942569354286L602.138799930254,388.9338176442458L602.0496751600303,387.54108403445764L604.4956936557097,387.9597719302785Z" style="fill: inherit; stroke: inherit; stroke-width: inherit;" vector-effect="non-scaling-stroke"><title>Grenada County</title></path><path id="county-28083" class="county feature" d="M599.0188096303938,391.0546714013101L599.1977701917162,391.88584057304513L599.8722506711513,395.9533420821923L598.7842238012385,396.8108799144044L598.886030857613,398.37909393754103L596.493803060039,399.09858977998897L595.3066162984107,400.42740003896756L594.5814673287975,398.71078612010626L594.0748774937941,389.661334460523L598.2163745930554,389.4528863709047L596.538419173749,390.65612414715144Z" style="fill: inherit; stroke: inherit; stroke-width: inherit;" vector-effect="non-scaling-stroke"><title>Leflore County</title></path><path id="county-28025" class="county feature" d="M620.684538327556,387.86891055120464L620.8838490267049,390.3212311207128L624.2578867565618,390.0654445015525L624.0866146190193,390.64043994661426L624.6592484161441,393.029312772807L621.8759632053667,393.5287100827052L621.7905224886172,392.4228412111694L616.4412791201078,392.88404068358307L615.953702180472,389.5758503826157L617.5167737171887,389.1795893041516L617.435537854064,388.0892844860937Z" style="fill: inherit; stroke: inherit; stroke-width: inherit;" vector-effect="non-scaling-stroke"><title>Clay County</title></path><path id="county-28087" class="county feature" d="M628.0223433647661,388.53524549561155L627.9474629938024,392.5229854498788L627.8620251562032,397.16394946933735L622.2269220775377,397.6376806360764L621.8759632053667,393.5287100827052L624.6592484161441,393.029312772807L624.0866146190193,390.64043994661426Z" style="fill: inherit; stroke: inherit; stroke-width: inherit;" vector-effect="non-scaling-stroke"><title>Lowndes County</title></path><path id="county-28155" class="county feature" d="M615.953702180472,389.5758503826157L616.4412791201078,392.88404068358307L615.4021085537678,393.5050562412704L612.8438581012724,393.90284696129515L610.986972558367,395.194054493148L609.0467315234091,395.3119000518933L608.76882176038,391.25025236461795L608.7120585262658,390.42065841279225L613.5373528918562,389.7664402597808Z" style="fill: inherit; stroke: inherit; stroke-width: inherit;" vector-effect="non-scaling-stroke"><title>Webster County</title></path><path id="county-28097" class="county feature" d="M608.76882176038,391.25025236461795L609.0467315234091,395.3119000518933L610.986972558367,395.194054493148L609.902869163056,395.7795479733236L610.0934526995643,398.54225029056784L607.1341549766764,398.7515010185682L606.9593988095957,396.55764888233614L604.8074639338148,396.44100692745826L604.4598234359971,391.55592539901807Z" style="fill: inherit; stroke: inherit; stroke-width: inherit;" vector-effect="non-scaling-stroke"><title>Montgomery County</title></path><path id="county-28015" class="county feature" d="M604.4598234359971,391.55592539901807L604.8074639338148,396.44100692745826L606.9593988095957,396.55764888233614L607.1341549766764,398.7515010185682L605.6058003469191,400.19191000142155L598.886030857613,398.37909393754103L598.7842238012385,396.8108799144044L599.8722506711513,395.9533420821923L599.1977701917162,391.88584057304513Z" style="fill: inherit; stroke: inherit; stroke-width: inherit;" vector-effect="non-scaling-stroke"><title>Carroll County</title></path><path id="county-28105" class="county feature" d="M621.8759632053667,393.5287100827052L622.2269220775377,397.6376806360764L619.9965563242533,397.81645154258104L615.7509014757005,398.1400231009767L615.4021085537678,393.5050562412704L616.4412791201078,392.88404068358307L621.7905224886172,392.4228412111694Z" style="fill: inherit; stroke: inherit; stroke-width: inherit;" vector-effect="non-scaling-stroke"><title>Oktibbeha County</title></path><path id="county-28019" class="county feature" d="M615.4021085537678,393.5050562412704L615.7509014757005,398.1400231009767L615.5486725357931,399.8121295126208L613.9320009278644,399.9377695174703L614.0335895452382,401.5926221148238L612.4261525131269,401.71681912986037L612.2204879630602,398.400046056998L610.0934526995643,398.54225029056784L609.902869163056,395.7795479733236L610.986972558367,395.194054493148L612.8438581012724,393.90284696129515Z" style="fill: inherit; stroke: inherit; stroke-width: inherit;" vector-effect="non-scaling-stroke"><title>Choctaw County</title></path><path id="county-28151" class="county feature" d="M589.5703472785002,395.23097778550414L589.8329215674636,400.0930862919315L590.5725472026963,400.05817999639396L590.9768216392777,403.30612872304766L587.6776400861962,403.46630999100296L587.7678092666397,405.1498226014743L583.8484746376557,405.28579504313075L584.5200521371631,404.42357847006565L583.2155128371691,403.49534642371566L584.9504273289111,402.8020822624293L583.9632290796607,399.8772170702822L583.9286512600789,396.48504686680667L582.3632949164121,397.30778980238983L582.6055847661173,395.60356982587143Z" style="fill: inherit; stroke: inherit; stroke-width: inherit;" vector-effect="non-scaling-stroke"><title>Washington County</title></path><path id="county-28051" class="county feature" d="M598.886030857613,398.37909393754103L605.6058003469191,400.19191000142155L604.5840150244314,402.1631031901304L603.6462989240182,405.66219821734956L602.6527428428807,406.6895731177931L596.3138766225372,404.61268298109474L595.3570945004983,402.70929160534513L596.6984115270611,402.24445962674747L596.493803060039,399.09858977998897Z" style="fill: inherit; stroke: inherit; stroke-width: inherit;" vector-effect="non-scaling-stroke"><title>Holmes County</title></path><path id="county-28053" class="county feature" d="M594.5814673287975,398.71078612010626L595.3066162984107,400.42740003896756L596.493803060039,399.09858977998897L596.6984115270611,402.24445962674747L595.3570945004983,402.70929160534513L596.3138766225372,404.61268298109474L594.9941663881165,404.720775602256L595.0768022991286,406.3256804941784L591.8846185826833,406.5270415422642L591.6506499220559,403.26432827870997L590.9768216392777,403.30612872304766L590.5725472026963,400.05817999639396L593.0676784389105,399.9080985580364L592.9990398918812,398.8084594634073Z" style="fill: inherit; stroke: inherit; stroke-width: inherit;" vector-effect="non-scaling-stroke"><title>Humphreys County</title></path><path id="county-28103" class="county feature" d="M627.8620251562032,397.16394946933735L627.756817419509,402.77513157638214L627.73379847254,403.9486746940605L620.5194542076374,404.5707208469323L619.9965563242533,397.81645154258104L622.2269220775377,397.6376806360764Z" style="fill: inherit; stroke: inherit; stroke-width: inherit;" vector-effect="non-scaling-stroke"><title>Noxubee County</title></path><path id="county-28159" class="county feature" d="M619.9965563242533,397.81645154258104L620.5194542076374,404.5707208469323L618.9407580666532,404.6793594865554L612.6433581933901,405.0400836446073L612.4261525131269,401.71681912986037L614.0335895452382,401.5926221148238L613.9320009278644,399.9377695174703L615.5486725357931,399.8121295126208L615.7509014757005,398.1400231009767Z" style="fill: inherit; stroke: inherit; stroke-width: inherit;" vector-effect="non-scaling-stroke"><title>Winston County</title></path><path id="county-28007" class="county feature" d="M612.4261525131269,401.71681912986037L612.6433581933901,405.0400836446073L606.3310285037171,405.5033366514913L606.3199721300816,406.35375821529385L602.6527428428807,406.6895731177931L603.6462989240182,405.66219821734956L604.5840150244314,402.1631031901304L605.6058003469191,400.19191000142155L607.1341549766764,398.7515010185682L610.0934526995643,398.54225029056784L612.2204879630602,398.400046056998Z" style="fill: inherit; stroke: inherit; stroke-width: inherit;" vector-effect="non-scaling-stroke"><title>Attala County</title></path><path id="county-28125" class="county feature" d="M590.9768216392777,403.30612872304766L591.6506499220559,403.26432827870997L591.8846185826833,406.5270415422642L590.3497614574264,408.2451418935864L591.3471419231923,408.5354482581324L591.1008650168975,411.4699785836042L587.3244791268875,411.6629200827722L587.166839664784,408.3729144047222L587.7678092666397,405.1498226014743L587.6776400861962,403.46630999100296Z" style="fill: inherit; stroke: inherit; stroke-width: inherit;" vector-effect="non-scaling-stroke"><title>Sharkey County</title></path><path id="county-28163" class="county feature" d="M602.6527428428807,406.6895731177931L601.5266764812849,409.47270766972747L598.0479900597409,411.10190887408123L595.4597315791847,412.87571277801567L593.9053715591784,414.219751162124L591.1908863295469,412.2804541667804L591.1008650168975,411.4699785836042L591.3471419231923,408.5354482581324L590.3497614574264,408.2451418935864L591.8846185826833,406.5270415422642L595.0768022991286,406.3256804941784L594.9941663881165,404.720775602256L596.3138766225372,404.61268298109474Z" style="fill: inherit; stroke: inherit; stroke-width: inherit;" vector-effect="non-scaling-stroke"><title>Yazoo County</title></path><path id="county-28055" class="county feature" d="M587.7678092666397,405.1498226014743L587.166839664784,408.3729144047222L587.3244791268875,411.6629200827722L591.1008650168975,411.4699785836042L591.1908863295469,412.2804541667804L591.0835299274779,413.2837173174944L589.0436507377802,413.2187177436293L589.1674671195028,415.7143564026695L587.7495916136545,415.74900185986803L587.4224033506977,413.2975033529858L586.1822650653307,413.3506305606253L584.4506132482542,412.14793370466236L585.8219241205871,410.6415161010859L584.5378871509544,410.4501396585663L584.4081775602859,408.573240431656L585.3936046457051,407.5785675535652L584.9492090444809,405.69836915118606L583.7869566500813,407.37805328358854L583.8610326118958,405.4226221086715L583.8484746376557,405.28579504313075Z" style="fill: inherit; stroke: inherit; stroke-width: inherit;" vector-effect="non-scaling-stroke"><title>Issaquena County</title></path><path id="county-28099" class="county feature" d="M618.9407580666532,404.6793594865554L619.4299054926682,411.22841585316155L613.1400589781312,411.69490828372363L612.6433581933901,405.0400836446073Z" style="fill: inherit; stroke: inherit; stroke-width: inherit;" vector-effect="non-scaling-stroke"><title>Neshoba County</title></path><path id="county-28079" class="county feature" d="M612.6433581933901,405.0400836446073L613.1400589781312,411.69490828372363L613.0616952911276,411.7014364330937L606.695207265388,412.1185553473016L606.6247771250335,411.052455227961L606.3199721300816,406.35375821529385L606.3310285037171,405.5033366514913Z" style="fill: inherit; stroke: inherit; stroke-width: inherit;" vector-effect="non-scaling-stroke"><title>Leake County</title></path><path id="county-28069" class="county feature" d="M627.73379847254,403.9486746940605L627.6258095620074,410.5712169741745L619.4299054926682,411.22841585316155L618.9407580666532,404.6793594865554L620.5194542076374,404.5707208469323Z" style="fill: inherit; stroke: inherit; stroke-width: inherit;" vector-effect="non-scaling-stroke"><title>Kemper County</title></path><path id="county-28089" class="county feature" d="M606.3199721300816,406.35375821529385L606.6247771250335,411.052455227961L605.8371777151293,411.9940170732218L604.6905639637921,412.1020269830374L601.6630854663055,415.7868224389488L598.8815720676646,415.95002268520363L598.7820539287515,414.3089289922724L595.5542854873913,414.4930640320795L595.4597315791847,412.87571277801567L598.0479900597409,411.10190887408123L601.5266764812849,409.47270766972747L602.6527428428807,406.6895731177931Z" style="fill: inherit; stroke: inherit; stroke-width: inherit;" vector-effect="non-scaling-stroke"><title>Madison County</title></path><path id="county-28123" class="county feature" d="M606.6247771250335,411.052455227961L606.695207265388,412.1185553473016L613.0616952911276,411.7014364330937L613.5213114285251,418.31290864787445L607.1352094996747,418.77886345008255L606.9731451648285,416.3256977194625L605.8371777151293,411.9940170732218Z" style="fill: inherit; stroke: inherit; stroke-width: inherit;" vector-effect="non-scaling-stroke"><title>Scott County</title></path><path id="county-28149" class="county feature" d="M593.9053715591784,414.219751162124L593.1497877121612,414.79435024642623L592.921827590676,417.4348675985284L591.8776228394786,417.2248992622186L591.4605122686776,419.6690556685146L590.89617478994,421.0140158659509L588.6536933558239,422.53514997989146L586.8373964319987,422.00033655385516L586.825696455253,421.8848534876073L586.4723373483569,421.8336457453215L584.6913001432292,421.7325547857374L585.2775377362759,420.26397280510855L587.1645914194679,419.94071584488586L588.4672534566819,417.68224098110613L587.0054761808783,417.3457806217913L587.3023234220473,415.70705962164436L585.5768771397009,415.67304377797075L585.769649844504,413.63577334734805L586.1822650653307,413.3506305606253L587.4224033506977,413.2975033529858L587.7495916136545,415.74900185986803L589.1674671195028,415.7143564026695L589.0436507377802,413.2187177436293L591.0835299274779,413.2837173174944L591.1908863295469,412.2804541667804Z" style="fill: inherit; stroke: inherit; stroke-width: inherit;" vector-effect="non-scaling-stroke"><title>Warren County</title></path><path id="county-28121" class="county feature" d="M605.8371777151293,411.9940170732218L606.9731451648285,416.3256977194625L607.1352094996747,418.77886345008255L607.3513985283818,422.0513139683494L599.4883116074448,422.49950411529426L599.1114124415105,420.2064735796869L601.6630854663055,415.7868224389488L604.6905639637921,412.1020269830374Z" style="fill: inherit; stroke: inherit; stroke-width: inherit;" vector-effect="non-scaling-stroke"><title>Rankin County</title></path><path id="county-28075" class="county feature" d="M627.6258095620074,410.5712169741745L627.5194373742855,415.65635267221603L627.4887341531191,417.18428837660076L619.928857081079,417.8329971468537L619.4299054926682,411.22841585316155Z" style="fill: inherit; stroke: inherit; stroke-width: inherit;" vector-effect="non-scaling-stroke"><title>Lauderdale County</title></path><path id="county-28101" class="county feature" d="M619.4299054926682,411.22841585316155L619.928857081079,417.8329971468537L613.5213114285251,418.31290864787445L613.0616952911276,411.7014364330937L613.1400589781312,411.69490828372363Z" style="fill: inherit; stroke: inherit; stroke-width: inherit;" vector-effect="non-scaling-stroke"><title>Newton County</title></path><path id="county-28049" class="county feature" d="M601.6630854663055,415.7868224389488L599.1114124415105,420.2064735796869L599.4883116074448,422.49950411529426L591.8138291190761,422.97345664283L591.4605122686776,419.6690556685146L591.8776228394786,417.2248992622186L592.921827590676,417.4348675985284L593.1497877121612,414.79435024642623L593.9053715591784,414.219751162124L595.4597315791847,412.87571277801567L595.5542854873913,414.4930640320795L598.7820539287515,414.3089289922724L598.8815720676646,415.95002268520363Z" style="fill: inherit; stroke: inherit; stroke-width: inherit;" vector-effect="non-scaling-stroke"><title>Hinds County</title></path><path id="county-28023" class="county feature" d="M627.4887341531191,417.18428837660076L627.3207100699717,423.48150213295537L625.0360975125468,424.3514139716434L620.5410729921913,425.2682195989901L619.928857081079,417.8329971468537Z" style="fill: inherit; stroke: inherit; stroke-width: inherit;" vector-effect="non-scaling-stroke"><title>Clarke County</title></path><path id="county-28021" class="county feature" d="M591.4605122686776,419.6690556685146L591.8138291190761,422.97345664283L591.8038138839785,427.8997442012138L587.3453517806507,426.71851740851207L583.6478209572883,426.7577511138917L584.5003562127313,424.99532896544076L586.2213770314095,423.86554995481526L586.8373964319987,422.00033655385516L588.6536933558239,422.53514997989146L590.89617478994,421.0140158659509Z" style="fill: inherit; stroke: inherit; stroke-width: inherit;" vector-effect="non-scaling-stroke"><title>Claiborne County</title></path><path id="county-28061" class="county feature" d="M619.928857081079,417.8329971468537L620.5410729921913,425.2682195989901L620.0238397241299,425.34619094846096L614.1724211815039,426.19217740435454L613.5213114285251,418.31290864787445Z" style="fill: inherit; stroke: inherit; stroke-width: inherit;" vector-effect="non-scaling-stroke"><title>Jasper County</title></path><path id="county-28129" class="county feature" d="M613.5213114285251,418.31290864787445L614.1724211815039,426.19217740435454L612.8497877642055,426.3837346384083L608.8978679531507,426.9583002273621L608.4230016573789,421.97609313122655L607.3513985283818,422.0513139683494L607.1352094996747,418.77886345008255Z" style="fill: inherit; stroke: inherit; stroke-width: inherit;" vector-effect="non-scaling-stroke"><title>Smith County</title></path><path id="county-28029" class="county feature" d="M599.4883116074448,422.49950411529426L601.2561554228013,425.98995805588993L601.5199855316885,427.9584289351578L599.6284612159126,428.73547900094604L599.0476968596417,429.1026313989739L591.8892171173683,429.5428258775081L591.8038138839785,427.8997442012138L591.8138291190761,422.97345664283Z" style="fill: inherit; stroke: inherit; stroke-width: inherit;" vector-effect="non-scaling-stroke"><title>Copiah County</title></path><path id="county-28127" class="county feature" d="M607.3513985283818,422.0513139683494L608.4230016573789,421.97609313122655L608.8978679531507,426.9583002273621L607.2976869352318,427.17654446312054L603.8483911508902,427.64385147859457L601.5199855316885,427.9584289351578L601.2561554228013,425.98995805588993L599.4883116074448,422.49950411529426Z" style="fill: inherit; stroke: inherit; stroke-width: inherit;" vector-effect="non-scaling-stroke"><title>Simpson County</title></path><path id="county-28153" class="county feature" d="M628.3808229516228,432.01537282230106L622.1754930485058,432.53688991933166L620.5679582043798,432.66136489228154L620.0238397241299,425.34619094846096L620.5410729921913,425.2682195989901L625.0360975125468,424.3514139716434L627.3207100699717,423.48150213295537L627.7587469717666,427.13508443768967Z" style="fill: inherit; stroke: inherit; stroke-width: inherit;" vector-effect="non-scaling-stroke"><title>Wayne County</title></path><path id="county-28063" class="county feature" d="M591.8038138839785,427.8997442012138L591.8892171173683,429.5428258775081L591.9685838691219,431.1799441617603L585.3845250440378,431.54857498434046L583.0103335037786,430.4989106836458L582.6607913253431,429.06162975461666L582.1323163885552,427.321138158929L583.6478209572883,426.7577511138917L587.3453517806507,426.71851740851207Z" style="fill: inherit; stroke: inherit; stroke-width: inherit;" vector-effect="non-scaling-stroke"><title>Jefferson County</title></path><path id="county-28067" class="county feature" d="M620.5679582043798,432.66136489228154L617.3567126290359,432.88466339897104L613.3501863600952,433.16872209297424L612.8497877642055,426.3837346384083L614.1724211815039,426.19217740435454L620.0238397241299,425.34619094846096Z" style="fill: inherit; stroke: inherit; stroke-width: inherit;" vector-effect="non-scaling-stroke"><title>Jones County</title></path><path id="county-28031" class="county feature" d="M612.8497877642055,426.3837346384083L613.3501863600952,433.16872209297424L612.5146885696427,433.22660732706004L610.3837154799842,433.3802104678514L609.9894832568272,431.428443786687L607.4894167087681,430.26345917739104L607.2976869352318,427.17654446312054L608.8978679531507,426.9583002273621Z" style="fill: inherit; stroke: inherit; stroke-width: inherit;" vector-effect="non-scaling-stroke"><title>Covington County</title></path><path id="county-28065" class="county feature" d="M610.3837154799842,433.3802104678514L609.3148310166698,433.4490374385314L606.6202325869198,433.6278052963114L606.6848317196595,434.44499437975503L604.539706410589,434.5749878372686L603.8483911508902,427.64385147859457L607.2976869352318,427.17654446312054L607.4894167087681,430.26345917739104L609.9894832568272,431.428443786687Z" style="fill: inherit; stroke: inherit; stroke-width: inherit;" vector-effect="non-scaling-stroke"><title>Jefferson Davis County</title></path><path id="county-28077" class="county feature" d="M604.539706410589,434.5749878372686L603.317970304152,435.6752247486287L600.0679127249502,435.60747302950074L599.6284612159126,428.73547900094604L601.5199855316885,427.9584289351578L603.8483911508902,427.64385147859457Z" style="fill: inherit; stroke: inherit; stroke-width: inherit;" vector-effect="non-scaling-stroke"><title>Lawrence County</title></path><path id="county-28001" class="county feature" d="M585.3845250440378,431.54857498434046L585.5678352074782,436.4833047139639L584.3091120081185,436.09431166863044L580.6645685958363,437.2343463832507L580.4602436616012,438.9443130264424L578.8556363995681,439.72912081884306L577.7661462049247,438.6719032785045L579.9546140126827,438.04512359420073L578.8460175976317,435.71334132961806L580.0487505466267,436.4118821408316L579.7978933018222,433.2783404774376L581.3375656935561,432.6017766696226L579.9594579244617,431.16012742938005L581.4575852757768,431.55222966020483L581.6999739675332,429.3992044803932L582.6607913253431,429.06162975461666L583.0103335037786,430.4989106836458Z" style="fill: inherit; stroke: inherit; stroke-width: inherit;" vector-effect="non-scaling-stroke"><title>Adams County</title></path><path id="county-28085" class="county feature" d="M600.0679127249502,435.60747302950074L599.8060444429316,435.62332925449175L595.2350493100862,435.9058624967057L593.8916558489838,435.9894591179516L593.6141868077943,431.08076652272837L591.9685838691219,431.1799441617603L591.8892171173683,429.5428258775081L599.0476968596417,429.1026313989739L599.6284612159126,428.73547900094604Z" style="fill: inherit; stroke: inherit; stroke-width: inherit;" vector-effect="non-scaling-stroke"><title>Lincoln County</title></path><path id="county-28037" class="county feature" d="M591.9685838691219,431.1799441617603L593.6141868077943,431.08076652272837L593.8916558489838,435.9894591179516L587.8612007289753,436.32529948407637L586.5838606735317,436.9150700942772L585.5678352074782,436.4833047139639L585.3845250440378,431.54857498434046Z" style="fill: inherit; stroke: inherit; stroke-width: inherit;" vector-effect="non-scaling-stroke"><title>Franklin County</title></path><path id="county-28041" class="county feature" d="M628.3808229516228,432.01537282230106L629.1383571857313,437.9992376181125L629.4140321127262,440.1577652207119L622.909765109993,440.6692018807238L622.1754930485058,432.53688991933166Z" style="fill: inherit; stroke: inherit; stroke-width: inherit;" vector-effect="non-scaling-stroke"><title>Greene County</title></path><path id="county-28035" class="county feature" d="M617.3567126290359,432.88466339897104L618.1959709115789,442.67222149173347L614.9641709160943,442.90148505997297L614.7011207613384,441.0348667951954L614.2774146200167,434.7452007042409L612.6391916725503,434.8652069115294L612.5146885696427,433.22660732706004L613.3501863600952,433.16872209297424Z" style="fill: inherit; stroke: inherit; stroke-width: inherit;" vector-effect="non-scaling-stroke"><title>Forrest County</title></path><path id="county-28073" class="county feature" d="M610.3837154799842,433.3802104678514L612.5146885696427,433.22660732706004L612.6391916725503,434.8652069115294L614.2774146200167,434.7452007042409L614.7011207613384,441.0348667951954L609.8540503123962,441.5130356374981L609.3148310166698,433.4490374385314Z" style="fill: inherit; stroke: inherit; stroke-width: inherit;" vector-effect="non-scaling-stroke"><title>Lamar County</title></path><path id="county-28111" class="county feature" d="M620.5679582043798,432.66136489228154L622.1754930485058,432.53688991933166L622.909765109993,440.6692018807238L622.2265781145156,442.35917634969564L618.1959709115789,442.67222149173347L617.3567126290359,432.88466339897104Z" style="fill: inherit; stroke: inherit; stroke-width: inherit;" vector-effect="non-scaling-stroke"><title>Perry County</title></path><path id="county-28091" class="county feature" d="M609.3148310166698,433.4490374385314L609.8540503123962,441.5130356374981L608.6769826952208,441.5953170109982L606.9626334912796,441.7126781516688L606.8740670715241,440.349033396477L605.520921930182,440.44135195915555L603.637416650857,438.664985755742L603.317970304152,435.6752247486287L604.539706410589,434.5749878372686L606.6848317196595,434.44499437975503L606.6202325869198,433.6278052963114Z" style="fill: inherit; stroke: inherit; stroke-width: inherit;" vector-effect="non-scaling-stroke"><title>Marion County</title></path><path id="county-28157" class="county feature" d="M585.5678352074782,436.4833047139639L586.5838606735317,436.9150700942772L587.1976662487953,437.6221928111447L587.4614049991816,442.9116274333792L585.6078023781951,443.00389711509706L578.2670043909701,443.35290743295695L579.3696307717388,442.0376166728713L578.3374185113562,441.1465444054895L578.8556363995681,439.72912081884306L580.4602436616012,438.9443130264424L580.6645685958363,437.2343463832507L584.3091120081185,436.09431166863044Z" style="fill: inherit; stroke: inherit; stroke-width: inherit;" vector-effect="non-scaling-stroke"><title>Wilkinson County</title></path><path id="county-28005" class="county feature" d="M593.8916558489838,435.9894591179516L595.2350493100862,435.9058624967057L595.6222846384222,442.4499093744938L595.3134784958115,442.4676118312851L591.1903876664823,442.7049713828512L587.4614049991816,442.9116274333792L587.1976662487953,437.6221928111447L586.5838606735317,436.9150700942772L587.8612007289753,436.32529948407637Z" style="fill: inherit; stroke: inherit; stroke-width: inherit;" vector-effect="non-scaling-stroke"><title>Amite County</title></path><path id="county-28113" class="county feature" d="M599.8060444429316,435.62332925449175L600.2128801170443,442.16216262160185L598.8180675251626,442.25090313715066L595.6222846384222,442.4499093744938L595.2350493100862,435.9058624967057Z" style="fill: inherit; stroke: inherit; stroke-width: inherit;" vector-effect="non-scaling-stroke"><title>Pike County</title></path><path id="county-28147" class="county feature" d="M603.317970304152,435.6752247486287L603.637416650857,438.664985755742L605.520921930182,440.44135195915555L606.8740670715241,440.349033396477L606.9626334912796,441.7126781516688L600.2128801170443,442.16216262160185L599.8060444429316,435.62332925449175L600.0679127249502,435.60747302950074Z" style="fill: inherit; stroke: inherit; stroke-width: inherit;" vector-effect="non-scaling-stroke"><title>Walthall County</title></path><path id="county-28109" class="county feature" d="M614.7011207613384,441.0348667951954L614.9641709160943,442.90148505997297L615.2964456883833,447.80045741797494L612.0528934725182,448.0114845036661L612.2199395728288,450.46702162196914L609.9572643365043,451.6992243113592L607.7949881992436,449.46497506264416L607.2665842298247,447.98993857864787L608.6769826952208,441.5953170109982L609.8540503123962,441.5130356374981Z" style="fill: inherit; stroke: inherit; stroke-width: inherit;" vector-effect="non-scaling-stroke"><title>Pearl River County</title></path><path id="county-28039" class="county feature" d="M629.4140321127262,440.1577652207119L630.011946748778,445.0457574353467L622.4719022816902,445.6301146867479L622.2265781145156,442.35917634969564L622.909765109993,440.6692018807238Z" style="fill: inherit; stroke: inherit; stroke-width: inherit;" vector-effect="non-scaling-stroke"><title>George County</title></path><path id="county-28131" class="county feature" d="M622.2265781145156,442.35917634969564L622.4719022816902,445.6301146867479L622.553508284291,446.71817790332705L616.8812342396822,447.13497077694035L615.2964456883833,447.80045741797494L614.9641709160943,442.90148505997297L618.1959709115789,442.67222149173347Z" style="fill: inherit; stroke: inherit; stroke-width: inherit;" vector-effect="non-scaling-stroke"><title>Stone County</title></path><path id="county-28059" class="county feature" d="M630.011946748778,445.0457574353467L630.7967432997024,451.52652738965594L629.5577111685163,452.91269707175763L628.4327951637915,451.72227756443317L625.1721158272875,452.6816396365067L622.9269041464744,451.38819890733225L622.553508284291,446.71817790332705L622.4719022816902,445.6301146867479Z" style="fill: inherit; stroke: inherit; stroke-width: inherit;" vector-effect="non-scaling-stroke"><title>Jackson County</title></path><path id="county-28047" class="county feature" d="M622.553508284291,446.71817790332705L622.9269041464744,451.38819890733225L616.5718600469962,454.17383567609454L615.6680341250081,452.9309123081548L615.2964456883833,447.80045741797494L616.8812342396822,447.13497077694035Z" style="fill: inherit; stroke: inherit; stroke-width: inherit;" vector-effect="non-scaling-stroke"><title>Harrison County</title></path><path id="county-28045" class="county feature" d="M615.2964456883833,447.80045741797494L615.6680341250081,452.9309123081548L615.9554352130805,454.22032294170265L612.9843152370199,456.75864059336584L611.4107573460632,455.95296863992985L609.9572643365043,451.6992243113592L612.2199395728288,450.46702162196914L612.0528934725182,448.0114845036661Z" style="fill: inherit; stroke: inherit; stroke-width: inherit;" vector-effect="non-scaling-stroke"><title>Hancock County</title></path></g><path id="counties-mesh" class="counties mesh" d="M624.3791705063921,365.2151094641399L624.6981613272459,369.72083086741304L619.3441986273897,370.1184610528833L618.6806224103751,368.24375587063355L617.6093870006982,368.3272252421867L617.4262562026285,365.7621306696401M596.8901869102974,372.2794525921397L596.3724977257268,374.66480072263016L597.1126599234774,375.47183872607764L597.1623198681174,376.284402226109L595.5562158166103,376.4110447897965L595.6850017962579,378.0079605408247L594.1964060512183,378.10869959067804L591.4977375149712,376.361182374991L591.1645565275824,374.17597845923433L592.9041670020063,373.47185575054766L591.3116028865745,372.62871940150444L593.0259990324304,372.08886149092984L592.418835533942,369.9254805447972L593.6174666686736,370.4258508539016L595.1611307108833,369.82638200861265L596.0221468147529,368.52687796684495L594.9319323773258,367.2791070056318L603.7844724850885,366.73730386042405L604.9953166777494,366.6476003919596L609.4131831510962,366.37128910977015L611.7476370242942,366.19367424236873L614.4838879756938,365.9867892412617L617.4262562026285,365.7621306696401L617.9745764849174,365.72054057895514L624.1130060801067,365.2334727398777L624.3791705063921,365.2151094641399L626.8425749862996,365.0115722887532L628.5506065267796,366.8232513389048L628.397878156097,372.70241434468494L628.330917992992,374.9474670095292L625.6966567701201,375.15584419860215L625.254161944842,369.9560488456168L624.6981613272459,369.72083086741304M619.3441986273897,370.1184610528833L619.3242476405372,373.14793184999417L613.9460387995119,373.5162944692405L613.6600515188028,369.44006167138025L614.6722015447278,368.54539889557293L614.4838879756938,365.9867892412617M603.7844724850885,366.73730386042405L604.0720303617717,370.9205526833267L601.2435087081335,371.0957006924216L599.5155346386488,372.41461386338483L598.0182303685206,371.5777214086131L596.8901869102974,372.2794525921397L596.7067800201747,369.7247024243866L595.1611307108833,369.82638200861265M613.9460387995119,373.5162944692405L611.575205429813,373.96991857159026L610.7784590284501,374.03249483062586L610.420687334904,369.1217530535722L609.6098610138423,369.178784385223L609.4131831510962,366.37128910977015M611.575205429813,373.96991857159026L611.692316782017,375.61516237624176L608.1016543881497,374.7613916022261L605.1840896426785,374.9569670069841L605.0083711924871,372.48736863554234L604.0720303617717,370.9205526833267M605.1840896426785,374.9569670069841L604.38097533555,375.01133700725995L597.1126599234774,375.47183872607764M625.6966567701201,375.15584419860215L622.4534798767901,375.3830588984937L622.3941011877537,374.5579852269292L619.433733696125,374.7927903452876L619.3242476405372,373.14793184999417M590.7313672363443,386.5318780577787L591.090660320557,393.50822137039063L589.4803940311764,393.59994024499804L589.5703472785002,395.23097778550414L582.6055847661173,395.60356982587143L582.3257058235197,395.0087519174083L583.7847601680953,394.32782333464513L582.4082877788368,393.11909292839994L583.9315561189817,392.2160819796652L583.6351871457146,390.7602079584135L585.3288755679613,391.0579160435028L584.1129544489619,387.36189728378724L587.1307351191224,385.9364916795482L586.0232913227732,384.3164015832307L586.0110599008851,384.29376902586375L587.984672331962,383.7745437630048L586.1870451268469,382.11292456526724L587.5979200312747,382.4389516541494L589.1106804053863,380.61142767594606L588.8382755039281,379.46501231622165L591.5123484516325,378.4417893557858L591.4977375149712,376.361182374991M619.433733696125,374.7927903452876L618.6453359698605,375.1196704239137L618.2945420412684,377.6023688005607L611.8366631091947,377.79761306272974L611.692316782017,375.61516237624176M611.8366631091947,377.79761306272974L612.1503218574001,381.89443387786764L608.1026864327565,382.15969465109777L608.0710652688327,381.6167159097372L604.8304549164875,381.8053518378431L604.38097533555,375.01133700725995M604.8304549164875,381.8053518378431L604.8609998217364,382.35041796662813L601.6472571356418,382.5452734232705L598.5323025373958,382.82109476138044L598.4203397437383,380.83061469014433L597.4689282113569,380.2205659669471L597.1623198681174,376.284402226109M594.1964060512183,378.10869959067804L594.3873200987168,381.1582551048225L593.5961571188461,381.187501423016L593.7987774500543,384.7482092369261L593.8945586409842,386.3868718878374L590.7313672363443,386.5318780577787L590.5487512953966,384.07094280120066L586.0110599008851,384.29376902586375M598.5323025373958,382.82109476138044L598.6279080922652,384.45790840211737L593.7987774500543,384.7482092369261M622.4534798767901,375.3830588984937L622.9921547304234,382.44474211124486L620.3162768075638,382.9263576912864L618.7059120198049,383.04095061239707L618.2945420412684,377.6023688005607M628.330917992992,374.9474670095292L628.2887246010254,377.63554147913953L628.1905664966613,382.0723448194732L622.9921547304234,382.44474211124486M618.7059120198049,383.04095061239707L613.8934539621348,383.4121597786442L612.2779565287938,383.5321332591627L612.1503218574001,381.89443387786764M608.1026864327565,382.15969465109777L608.5140333593503,387.68838691238545L604.4956936557097,387.9597719302785L602.0496751600303,387.54108403445764L601.6472571356418,382.5452734232705M602.0496751600303,387.54108403445764L602.138799930254,388.9338176442458L598.922726833109,389.40942569354286L599.0188096303938,391.0546714013101L596.538419173749,390.65612414715144L598.2163745930554,389.4528863709047L594.0748774937941,389.661334460523L593.8945586409842,386.3868718878374M613.8934539621348,383.4121597786442L614.2654955326769,388.32708182964643L613.5373528918562,389.7664402597808L608.7120585262658,390.42065841279225L608.5140333593503,387.68838691238545M628.1905664966613,382.0723448194732L628.1791218844719,382.60574448197553L628.0223433647661,388.53524549561155L624.0866146190193,390.64043994661426L624.2578867565618,390.0654445015525L620.8838490267049,390.3212311207128L620.684538327556,387.86891055120464L620.3162768075638,382.9263576912864M620.684538327556,387.86891055120464L617.435537854064,388.0892844860937L617.5167737171887,389.1795893041516L615.953702180472,389.5758503826157L613.5373528918562,389.7664402597808M594.0748774937941,389.661334460523L594.5814673287975,398.71078612010626L592.9990398918812,398.8084594634073L593.0676784389105,399.9080985580364L590.5725472026963,400.05817999639396L589.8329215674636,400.0930862919315L589.5703472785002,395.23097778550414M608.7120585262658,390.42065841279225L608.76882176038,391.25025236461795L604.4598234359971,391.55592539901807L599.1977701917162,391.88584057304513L599.0188096303938,391.0546714013101M599.1977701917162,391.88584057304513L599.8722506711513,395.9533420821923L598.7842238012385,396.8108799144044L598.886030857613,398.37909393754103L596.493803060039,399.09858977998897L595.3066162984107,400.42740003896756L594.5814673287975,398.71078612010626M624.0866146190193,390.64043994661426L624.6592484161441,393.029312772807L621.8759632053667,393.5287100827052L621.7905224886172,392.4228412111694L616.4412791201078,392.88404068358307L615.953702180472,389.5758503826157M628.0223433647661,388.53524549561155L627.9474629938024,392.5229854498788L627.8620251562032,397.16394946933735L622.2269220775377,397.6376806360764L621.8759632053667,393.5287100827052M616.4412791201078,392.88404068358307L615.4021085537678,393.5050562412704L612.8438581012724,393.90284696129515L610.986972558367,395.194054493148L609.0467315234091,395.3119000518933L608.76882176038,391.25025236461795M610.986972558367,395.194054493148L609.902869163056,395.7795479733236L610.0934526995643,398.54225029056784L607.1341549766764,398.7515010185682L606.9593988095957,396.55764888233614L604.8074639338148,396.44100692745826L604.4598234359971,391.55592539901807M607.1341549766764,398.7515010185682L605.6058003469191,400.19191000142155L598.886030857613,398.37909393754103M622.2269220775377,397.6376806360764L619.9965563242533,397.81645154258104L615.7509014757005,398.1400231009767L615.4021085537678,393.5050562412704M591.1908863295469,412.2804541667804L591.0835299274779,413.2837173174944L589.0436507377802,413.2187177436293L589.1674671195028,415.7143564026695L587.7495916136545,415.74900185986803L587.4224033506977,413.2975033529858L586.1822650653307,413.3506305606253L584.4506132482542,412.14793370466236L585.8219241205871,410.6415161010859L584.5378871509544,410.4501396585663L584.4081775602859,408.573240431656L585.3936046457051,407.5785675535652L584.9492090444809,405.69836915118606L583.7869566500813,407.37805328358854L583.8610326118958,405.4226221086715L583.8484746376557,405.28579504313075L584.5200521371631,404.42357847006565L583.2155128371691,403.49534642371566L584.9504273289111,402.8020822624293L583.9632290796607,399.8772170702822L583.9286512600789,396.48504686680667L582.3632949164121,397.30778980238983L582.6055847661173,395.60356982587143M615.7509014757005,398.1400231009767L615.5486725357931,399.8121295126208L613.9320009278644,399.9377695174703L614.0335895452382,401.5926221148238L612.4261525131269,401.71681912986037L612.2204879630602,398.400046056998L610.0934526995643,398.54225029056784M590.5725472026963,400.05817999639396L590.9768216392777,403.30612872304766L587.6776400861962,403.46630999100296L587.7678092666397,405.1498226014743L583.8484746376557,405.28579504313075M605.6058003469191,400.19191000142155L604.5840150244314,402.1631031901304L603.6462989240182,405.66219821734956L602.6527428428807,406.6895731177931L596.3138766225372,404.61268298109474L595.3570945004983,402.70929160534513L596.6984115270611,402.24445962674747L596.493803060039,399.09858977998897M596.3138766225372,404.61268298109474L594.9941663881165,404.720775602256L595.0768022991286,406.3256804941784L591.8846185826833,406.5270415422642L591.6506499220559,403.26432827870997L590.9768216392777,403.30612872304766M627.8620251562032,397.16394946933735L627.756817419509,402.77513157638214L627.73379847254,403.9486746940605L620.5194542076374,404.5707208469323L619.9965563242533,397.81645154258104M620.5194542076374,404.5707208469323L618.9407580666532,404.6793594865554L612.6433581933901,405.0400836446073L612.4261525131269,401.71681912986037M591.8846185826833,406.5270415422642L590.3497614574264,408.2451418935864L591.3471419231923,408.5354482581324L591.1008650168975,411.4699785836042L587.3244791268875,411.6629200827722L587.166839664784,408.3729144047222L587.7678092666397,405.1498226014743M618.9407580666532,404.6793594865554L619.4299054926682,411.22841585316155L613.1400589781312,411.69490828372363L612.6433581933901,405.0400836446073L606.3310285037171,405.5033366514913L606.3199721300816,406.35375821529385L602.6527428428807,406.6895731177931L601.5266764812849,409.47270766972747L598.0479900597409,411.10190887408123L595.4597315791847,412.87571277801567L593.9053715591784,414.219751162124L591.1908863295469,412.2804541667804L591.1008650168975,411.4699785836042M593.9053715591784,414.219751162124L593.1497877121612,414.79435024642623L592.921827590676,417.4348675985284L591.8776228394786,417.2248992622186L591.4605122686776,419.6690556685146L590.89617478994,421.0140158659509L588.6536933558239,422.53514997989146L586.8373964319987,422.00033655385516L586.825696455253,421.8848534876073L586.4723373483569,421.8336457453215L584.6913001432292,421.7325547857374L585.2775377362759,420.26397280510855L587.1645914194679,419.94071584488586L588.4672534566819,417.68224098110613L587.0054761808783,417.3457806217913L587.3023234220473,415.70705962164436L585.5768771397009,415.67304377797075L585.769649844504,413.63577334734805L586.1822650653307,413.3506305606253M613.1400589781312,411.69490828372363L613.0616952911276,411.7014364330937L606.695207265388,412.1185553473016L606.6247771250335,411.052455227961L606.3199721300816,406.35375821529385M627.73379847254,403.9486746940605L627.6258095620074,410.5712169741745L627.5194373742855,415.65635267221603L627.4887341531191,417.18428837660076L619.928857081079,417.8329971468537L619.4299054926682,411.22841585316155M606.6247771250335,411.052455227961L605.8371777151293,411.9940170732218L604.6905639637921,412.1020269830374L601.6630854663055,415.7868224389488L598.8815720676646,415.95002268520363L598.7820539287515,414.3089289922724L595.5542854873913,414.4930640320795L595.4597315791847,412.87571277801567M613.0616952911276,411.7014364330937L613.5213114285251,418.31290864787445L607.1352094996747,418.77886345008255L606.9731451648285,416.3256977194625L605.8371777151293,411.9940170732218M607.1352094996747,418.77886345008255L607.3513985283818,422.0513139683494L599.4883116074448,422.49950411529426L599.1114124415105,420.2064735796869L601.6630854663055,415.7868224389488M620.5410729921913,425.2682195989901L620.0238397241299,425.34619094846096L614.1724211815039,426.19217740435454L613.5213114285251,418.31290864787445M599.4883116074448,422.49950411529426L591.8138291190761,422.97345664283L591.4605122686776,419.6690556685146M586.5838606735317,436.9150700942772L587.1976662487953,437.6221928111447L587.4614049991816,442.9116274333792L585.6078023781951,443.00389711509706L578.2670043909701,443.35290743295695L579.3696307717388,442.0376166728713L578.3374185113562,441.1465444054895L578.8556363995681,439.72912081884306L577.7661462049247,438.6719032785045L579.9546140126827,438.04512359420073L578.8460175976317,435.71334132961806L580.0487505466267,436.4118821408316L579.7978933018222,433.2783404774376L581.3375656935561,432.6017766696226L579.9594579244617,431.16012742938005L581.4575852757768,431.55222966020483L581.6999739675332,429.3992044803932L582.6607913253431,429.06162975461666L582.1323163885552,427.321138158929L583.6478209572883,426.7577511138917L584.5003562127313,424.99532896544076L586.2213770314095,423.86554995481526L586.8373964319987,422.00033655385516M591.8138291190761,422.97345664283L591.8038138839785,427.8997442012138L587.3453517806507,426.71851740851207L583.6478209572883,426.7577511138917M614.1724211815039,426.19217740435454L612.8497877642055,426.3837346384083L608.8978679531507,426.9583002273621L608.4230016573789,421.97609313122655L607.3513985283818,422.0513139683494M599.4883116074448,422.49950411529426L601.2561554228013,425.98995805588993L601.5199855316885,427.9584289351578L599.6284612159126,428.73547900094604L599.0476968596417,429.1026313989739L591.8892171173683,429.5428258775081L591.8038138839785,427.8997442012138M608.8978679531507,426.9583002273621L607.2976869352318,427.17654446312054L603.8483911508902,427.64385147859457L601.5199855316885,427.9584289351578M627.4887341531191,417.18428837660076L627.3207100699717,423.48150213295537L627.7587469717666,427.13508443768967L628.3808229516228,432.01537282230106L622.1754930485058,432.53688991933166L620.5679582043798,432.66136489228154L620.0238397241299,425.34619094846096M591.8892171173683,429.5428258775081L591.9685838691219,431.1799441617603L585.3845250440378,431.54857498434046L583.0103335037786,430.4989106836458L582.6607913253431,429.06162975461666M620.5679582043798,432.66136489228154L617.3567126290359,432.88466339897104L613.3501863600952,433.16872209297424L612.8497877642055,426.3837346384083M613.3501863600952,433.16872209297424L612.5146885696427,433.22660732706004L610.3837154799842,433.3802104678514L609.9894832568272,431.428443786687L607.4894167087681,430.26345917739104L607.2976869352318,427.17654446312054M610.3837154799842,433.3802104678514L609.3148310166698,433.4490374385314L606.6202325869198,433.6278052963114L606.6848317196595,434.44499437975503L604.539706410589,434.5749878372686L603.8483911508902,427.64385147859457M604.539706410589,434.5749878372686L603.317970304152,435.6752247486287L600.0679127249502,435.60747302950074L599.6284612159126,428.73547900094604M585.3845250440378,431.54857498434046L585.5678352074782,436.4833047139639L584.3091120081185,436.09431166863044L580.6645685958363,437.2343463832507L580.4602436616012,438.9443130264424L578.8556363995681,439.72912081884306M600.0679127249502,435.60747302950074L599.8060444429316,435.62332925449175L595.2350493100862,435.9058624967057L593.8916558489838,435.9894591179516L593.6141868077943,431.08076652272837L591.9685838691219,431.1799441617603M593.8916558489838,435.9894591179516L587.8612007289753,436.32529948407637L586.5838606735317,436.9150700942772L585.5678352074782,436.4833047139639M628.3808229516228,432.01537282230106L629.1383571857313,437.9992376181125L629.4140321127262,440.1577652207119L622.909765109993,440.6692018807238L622.1754930485058,432.53688991933166M617.3567126290359,432.88466339897104L618.1959709115789,442.67222149173347L614.9641709160943,442.90148505997297L614.7011207613384,441.0348667951954L614.2774146200167,434.7452007042409L612.6391916725503,434.8652069115294L612.5146885696427,433.22660732706004M614.7011207613384,441.0348667951954L609.8540503123962,441.5130356374981L609.3148310166698,433.4490374385314M622.909765109993,440.6692018807238L622.2265781145156,442.35917634969564L618.1959709115789,442.67222149173347M609.8540503123962,441.5130356374981L608.6769826952208,441.5953170109982L606.9626334912796,441.7126781516688L606.8740670715241,440.349033396477L605.520921930182,440.44135195915555L603.637416650857,438.664985755742L603.317970304152,435.6752247486287M595.2350493100862,435.9058624967057L595.6222846384222,442.4499093744938L595.3134784958115,442.4676118312851L591.1903876664823,442.7049713828512L587.4614049991816,442.9116274333792M599.8060444429316,435.62332925449175L600.2128801170443,442.16216262160185L598.8180675251626,442.25090313715066L595.6222846384222,442.4499093744938M606.9626334912796,441.7126781516688L600.2128801170443,442.16216262160185M614.9641709160943,442.90148505997297L615.2964456883833,447.80045741797494L612.0528934725182,448.0114845036661L612.2199395728288,450.46702162196914L609.9572643365043,451.6992243113592L607.7949881992436,449.46497506264416L607.2665842298247,447.98993857864787L608.6769826952208,441.5953170109982M630.011946748778,445.0457574353467L622.4719022816902,445.6301146867479L622.2265781145156,442.35917634969564M622.9269041464744,451.38819890733225L616.5718600469962,454.17383567609454L615.6680341250081,452.9309123081548L615.2964456883833,447.80045741797494M629.4140321127262,440.1577652207119L630.011946748778,445.0457574353467L630.7967432997024,451.52652738965594L629.5577111685163,452.91269707175763L628.4327951637915,451.72227756443317L625.1721158272875,452.6816396365067L622.9269041464744,451.38819890733225L622.553508284291,446.71817790332705M615.6680341250081,452.9309123081548L615.9554352130805,454.22032294170265L612.9843152370199,456.75864059336584L611.4107573460632,455.95296863992985L609.9572643365043,451.6992243113592M627.6258095620074,410.5712169741745L619.4299054926682,411.22841585316155M627.3207100699717,423.48150213295537L625.0360975125468,424.3514139716434L620.5410729921913,425.2682195989901L619.928857081079,417.8329971468537L613.5213114285251,418.31290864787445M622.4719022816902,445.6301146867479L622.553508284291,446.71817790332705L616.8812342396822,447.13497077694035L615.2964456883833,447.80045741797494" style="fill: inherit; stroke: inherit; stroke-width: inherit;" vector-effect="non-scaling-stroke"></path></svg>