<?xml version="1.0" standalone="yes"?>
<svg xmlns="http://www.w3.org/2000/svg" version="1.2" baseProfile="tiny" id="root" viewBox="235.25969766140966 58.543255586989645 196.22711439166787 141.14207486876714"><style>
@import url("../../css/svg.css");</style><rect id="bbox" class="bbox" x="235.25969766140966" y="58.543255586989645" width="196.22711439166787" height="141.14207486876714"></rect><g id="counties"><path id="county-30105" class="county feature" d="M383.44950934656964,100.59421078393189L382.6128728673152,103.76101224245065L384.22455146432543,103.93269941947119L383.72379368263233,108.70684571455877L386.41556383584606,109.00158547896683L385.76025207895793,115.33163223200984L385.2712792352934,115.28390799415126L384.862896649292,119.12545117919115L380.0700759285887,118.31733106991771L377.99819694766074,117.43022407085391L377.5573599360335,119.32929023304757L375.42014597386776,121.75002344390134L371.2693976957357,123.70407523396261L366.5102973921725,123.58390817631664L364.49180315237425,122.77930776768972L365.7858751398637,113.1096769651067L366.42066733878755,111.56752401711287L367.7740577235711,111.73641515458621L367.65088869527915,108.44173538249868L369.054203690731,108.08066889304189L369.77441387396453,100.66547318054904L370.28685206865583,99.10269324905653Z" vector-effect="non-scaling-stroke"><title>Valley County</title></path><path id="county-30029" class="county feature" d="M285.8584181918617,86.02968631311046L286.5906276296357,89.57402592136089L288.11195575379736,89.15043471585875L289.3573407884853,91.94036065921716L288.41012764825666,93.74959156089096L291.6556780306739,95.60493777982583L291.19108824875724,97.17062359037538L292.6035982045081,98.1020500562829L292.3093120847748,100.19127407823737L293.56937992820923,101.85480768683556L293.2613700624504,102.9099951469442L295.82361733524476,104.17613716051187L297.0273465198197,107.3310313481046L295.6358043559952,107.50104176153695L294.2525788181831,107.9239370334385L294.03308421315666,110.55295923945732L292.61066498139195,111.34462262298211L292.46056043128937,113.66137024135071L288.46265831690056,112.85740008131393L286.37331685909476,112.469176495346L287.10686835158003,111.02455036495132L286.4479837391695,108.80040352063304L286.9284552878032,107.00681365312573L285.0931392241703,105.09020441803898L284.80345801561646,103.66099598852531L282.31878729302537,103.70677989005947L282.59873672525896,104.90946947422117L276.99081742657586,103.83044489321117L276.5569831943808,106.99423707772155L274.98029584506344,106.68777739372592L275.28583150112433,105.12356834132095L270.50831796746604,104.21897416672869L270.7712017494324,101.57669512467487L271.4308394318411,97.73323499456967L273.5520741036887,98.15743908532102L274.7955471920641,91.85566644755238L274.62610933762465,90.22226633298374L277.52074296277783,90.79137067723775L278.34642195162917,89.20573458876038L277.6988213293108,87.3775376920861L277.81099717717376,84.42181309288969Z" vector-effect="non-scaling-stroke"><title>Flathead County</title></path><path id="county-30071" class="county feature" d="M370.28685206865583,99.10269324905653L369.77441387396453,100.66547318054904L369.054203690731,108.08066889304189L367.65088869527915,108.44173538249868L367.7740577235711,111.73641515458621L366.42066733878755,111.56752401711287L365.7858751398637,113.1096769651067L364.49180315237425,122.77930776768972L363.8945445558114,124.00751527305988L360.83722399387557,123.48888228804617L357.7273586596036,126.45009540468789L357.7219544614008,124.23432175923949L356.1014189779513,123.48225696599468L352.95598379959586,123.3559330286705L347.3394118048642,121.44760320700789L346.06168511241157,119.61150374023259L346.5651641856001,116.1566530710503L349.84954703393146,116.63631077844889L350.24161003960853,115.3756449503552L352.3812929669794,115.93013571863696L353.79227640452916,107.37539360754181L354.54876908042775,107.89514492897183L355.6470747000671,102.07614069053625L356.3827604757689,102.17379945906225L357.27637717155073,97.49980434724318Z" vector-effect="non-scaling-stroke"><title>Phillips County</title></path><path id="county-30053" class="county feature" d="M277.81099717717376,84.42181309288969L277.6988213293108,87.3775376920861L278.34642195162917,89.20573458876038L277.52074296277783,90.79137067723775L274.62610933762465,90.22226633298374L274.7955471920641,91.85566644755238L273.5520741036887,98.15743908532102L271.4308394318411,97.73323499456967L270.7712017494324,101.57669512467487L269.00751133092103,101.17409763772412L268.10698188236677,102.912363970515L266.99491121859796,103.17179970832547L264.0666684983863,102.23433042581371L264.13878465965513,100.84566984988567L262.48812673611087,95.16963205208538L259.0087427374042,96.38595889355452L258.73117693113113,95.29068111131232L259.85094763996926,90.10441442315994L261.77949842516074,81.09809632166412Z" vector-effect="non-scaling-stroke"><title>Lincoln County</title></path><path id="county-30035" class="county feature" d="M308.72891660540427,90.20119165249355L307.21691343077237,99.70403584321821L302.3971360630226,98.75618492547994L301.7960884442115,101.90789459738437L292.3093120847748,100.19127407823737L292.6035982045081,98.1020500562829L291.19108824875724,97.17062359037538L291.6556780306739,95.60493777982583L288.41012764825666,93.74959156089096L289.3573407884853,91.94036065921716L288.11195575379736,89.15043471585875L286.5906276296357,89.57402592136089L285.8584181918617,86.02968631311046Z" vector-effect="non-scaling-stroke"><title>Glacier County</title></path><path id="county-30041" class="county feature" d="M339.05156540798794,111.1350317256015L336.6508005169501,110.83455325022635L336.887317841611,109.20835561162028L335.4047998429112,109.03598764293213L335.63821834529733,107.44506125752503L325.9727254264981,105.97638685275194L325.7264183560451,107.56435946458828L324.10996997182474,107.31149489043617L326.4890901580837,93.1185033162451L341.87157047260166,95.38810731219746L340.5568202213019,103.19468881827174L340.75179394804206,105.44686310352415L339.26258918940016,108.20402602636625Z" vector-effect="non-scaling-stroke"><title>Hill County</title></path><path id="county-30005" class="county feature" d="M357.27637717155073,97.49980434724318L356.3827604757689,102.17379945906225L355.6470747000671,102.07614069053625L354.54876908042775,107.89514492897183L353.79227640452916,107.37539360754181L352.3812929669794,115.93013571863696L350.24161003960853,115.3756449503552L349.84954703393146,116.63631077844889L346.5651641856001,116.1566530710503L346.06168511241157,119.61150374023259L345.60382728033613,118.50369001821616L341.40956887173627,117.86531044361925L339.27339777798227,118.93295142226032L337.9647974760084,118.3949548337414L339.05156540798794,111.1350317256015L339.26258918940016,108.20402602636625L340.75179394804206,105.44686310352415L340.5568202213019,103.19468881827174L341.87157047260166,95.38810731219746Z" vector-effect="non-scaling-stroke"><title>Blaine County</title></path><path id="county-30019" class="county feature" d="M396.4649606691117,101.91421334818949L396.08369546470925,108.3495517362353L396.74340968478225,110.02615395414182L386.41556383584606,109.00158547896683L383.72379368263233,108.70684571455877L384.22455146432543,103.93269941947119L382.6128728673152,103.76101224245065L383.44950934656964,100.59421078393189Z" vector-effect="non-scaling-stroke"><title>Daniels County</title></path><path id="county-30051" class="county feature" d="M315.74874282770486,107.61245410911476L316.00918658570856,106.02012181947225L317.67296476374895,106.29104510814216L320.01649818784176,92.11299499659549L326.4890901580837,93.1185033162451L324.10996997182474,107.31149489043617L322.9750441118829,108.75457845746166Z" vector-effect="non-scaling-stroke"><title>Liberty County</title></path><path id="county-30101" class="county feature" d="M308.72891660540427,90.20119165249355L320.01649818784176,92.11299499659549L317.67296476374895,106.29104510814216L316.00918658570856,106.02012181947225L312.8160052155323,105.49440275462109L313.2198077989789,103.12174772685569L311.74603189721404,102.06483715966715L309.3440675886866,101.63017773758816L309.15996446917444,100.5149246453609L307.21691343077237,99.70403584321821Z" vector-effect="non-scaling-stroke"><title>Toole County</title></path><path id="county-30091" class="county feature" d="M408.93197131840304,103.02821593556985L408.3653425480329,109.75639881567474L408.0007937557098,114.26380312722074L400.7461093931988,113.62875995416448L400.89213981571777,112.02458265391965L399.2786586919706,111.87260792859672L399.42590879168523,110.27909752372773L396.74340968478225,110.02615395414182L396.08369546470925,108.3495517362353L396.4649606691117,101.91421334818949Z" vector-effect="non-scaling-stroke"><title>Sheridan County</title></path><path id="county-30085" class="county feature" d="M396.74340968478225,110.02615395414182L399.42590879168523,110.27909752372773L399.2786586919706,111.87260792859672L400.89213981571777,112.02458265391965L400.7461093931988,113.62875995416448L408.0007937557098,114.26380312722074L407.4125084134095,121.51663029909412L406.3491941473428,120.31273850001025L403.6641060518513,120.25798372558108L402.40251238956273,118.78629485536362L397.65253368851006,118.33385035797255L397.0528472427948,117.71851210332409L395.61048314338876,119.16253866887553L393.1009099502391,118.92265981184903L392.73062979210675,118.39005026520397L389.36122644475626,117.95410603965377L384.862896649292,119.12545117919115L385.2712792352934,115.28390799415126L385.76025207895793,115.33163223200984L386.41556383584606,109.00158547896683Z" vector-effect="non-scaling-stroke"><title>Roosevelt County</title></path><path id="county-30073" class="county feature" d="M307.21691343077237,99.70403584321821L309.15996446917444,100.5149246453609L309.3440675886866,101.63017773758816L311.74603189721404,102.06483715966715L313.2198077989789,103.12174772685569L312.8160052155323,105.49440275462109L316.00918658570856,106.02012181947225L315.74874282770486,107.61245410911476L315.31925456869186,110.26633440914588L308.1643092858641,109.11621909020221L307.6838150738022,107.11639491085054L306.2059732108165,106.03615023709904L295.82361733524476,104.17613716051187L293.2613700624504,102.9099951469442L293.56937992820923,101.85480768683556L292.3093120847748,100.19127407823737L301.7960884442115,101.90789459738437L302.3971360630226,98.75618492547994Z" vector-effect="non-scaling-stroke"><title>Pondera County</title></path><path id="county-30015" class="county feature" d="M339.05156540798794,111.1350317256015L337.9647974760084,118.3949548337414L334.29546541302756,118.28668831975642L333.6061341834761,121.42077429193739L328.61944280891703,123.06163661858386L323.2684316327016,122.25017369137049L321.726044232252,121.45163660953858L321.95701163983017,120.00670472320076L320.7604843965858,119.81461594636232L318.64408203975137,118.10255121315731L319.8570512619658,116.41346728800193L314.4508127325719,115.54789482007754L315.31925456869186,110.26633440914588L315.74874282770486,107.61245410911476L322.9750441118829,108.75457845746166L324.10996997182474,107.31149489043617L325.7264183560451,107.56435946458828L325.9727254264981,105.97638685275194L335.63821834529733,107.44506125752503L335.4047998429112,109.03598764293213L336.887317841611,109.20835561162028L336.6508005169501,110.83455325022635Z" vector-effect="non-scaling-stroke"><title>Chouteau County</title></path><path id="county-30089" class="county feature" d="M270.7712017494324,101.57669512467487L270.50831796746604,104.21897416672869L275.28583150112433,105.12356834132095L274.98029584506344,106.68777739372592L274.5615620641617,110.15654824262481L277.45997698007653,110.72284098038415L276.62585797137467,112.82716116753659L277.74324882808696,112.78956136884074L276.67681105406666,114.56207466215233L278.4222108291152,115.56126358361746L277.8502968464486,119.57008506231443L276.4916000797729,119.54603016663725L275.94961967797934,118.23330575919647L273.69437767083787,116.6072901919398L270.6792498945313,115.70400410342461L268.7057790577196,114.45604662303128L268.8459748156944,112.88801864581774L265.44355380308787,110.48840314044571L261.1133535483707,109.72684924015698L259.8132352586304,108.09291291606712L260.79248764362916,107.48546203837645L260.74289861654756,105.57850582073229L259.7106441366486,104.26741202566575L257.8145383960841,99.57121847887674L258.73117693113113,95.29068111131232L259.0087427374042,96.38595889355452L262.48812673611087,95.16963205208538L264.13878465965513,100.84566984988567L264.0666684983863,102.23433042581371L266.99491121859796,103.17179970832547L268.10698188236677,102.912363970515L269.00751133092103,101.17409763772412Z" vector-effect="non-scaling-stroke"><title>Sanders County</title></path><path id="county-30083" class="county feature" d="M407.4125084134095,121.51663029909412L406.46491451280053,132.57738610114438L405.3000298783708,133.2856529901942L401.6422545744225,132.95733004500858L400.4640812046076,132.85009311758893L400.75836007803855,129.62444627590605L399.7369818489294,129.5382836617531L399.8827422045801,127.93061763193509L395.0272484033728,127.47347538285123L395.18408331147265,125.8663731527962L391.95091335929806,125.55163897784291L392.1077007983307,123.94307177403505L392.7475257515699,122.56402794396092L393.1009099502391,118.92265981184903L395.61048314338876,119.16253866887553L397.0528472427948,117.71851210332409L397.65253368851006,118.33385035797255L402.40251238956273,118.78629485536362L403.6641060518513,120.25798372558108L406.3491941473428,120.31273850001025Z" vector-effect="non-scaling-stroke"><title>Richland County</title></path><path id="county-30099" class="county feature" d="M315.31925456869186,110.26633440914588L314.4508127325719,115.54789482007754L311.23082179730875,115.02381215965954L310.96732393354444,116.60784274709579L307.76854442189176,116.06827976602074L307.4408671773083,118.00588213516107L305.9143373672386,117.55057047689797L302.9908998354034,117.23565844943585L301.40207767192044,115.07519172419688L299.6522474613087,114.25541230803094L296.6286313144974,114.2145469039665L295.6708753373616,112.34256082130867L296.11729583360955,109.98863983590968L295.6358043559952,107.50104176153695L297.0273465198197,107.3310313481046L295.82361733524476,104.17613716051187L306.2059732108165,106.03615023709904L307.6838150738022,107.11639491085054L308.1643092858641,109.11621909020221Z" vector-effect="non-scaling-stroke"><title>Teton County</title></path><path id="county-30055" class="county feature" d="M393.1009099502391,118.92265981184903L392.7475257515699,122.56402794396092L392.1077007983307,123.94307177403505L390.49498922578573,123.79178583060502L390.00987788894923,128.6076225032176L389.4655875310131,128.55670530959708L388.8323050566196,134.9807362475384L383.4182356692396,134.44092045032426L383.249516637516,136.06594473527343L381.6299632635579,135.89970715707784L381.80138270805804,134.2699476451661L380.19334280361267,134.10273925249123L379.13227695136493,133.9892329947345L379.47240438783615,130.78009855042512L377.8596069759934,130.611772312761L378.68099314832864,127.4418752476688L379.35902776450143,121.18587936539768L378.13825003737554,121.0519362849036L377.5573599360335,119.32929023304757L377.99819694766074,117.43022407085391L380.0700759285887,118.31733106991771L384.862896649292,119.12545117919115L389.36122644475626,117.95410603965377L392.73062979210675,118.39005026520397Z" vector-effect="non-scaling-stroke"><title>McCone County</title></path><path id="county-30047" class="county feature" d="M286.37331685909476,112.469176495346L282.6795879798417,111.79730516897268L281.9894400371034,113.97775496393922L282.69930273366543,115.71064103083029L282.58292832783803,119.65444581399902L281.0322819201552,120.18110697713371L277.8502968464486,119.57008506231443L278.4222108291152,115.56126358361746L276.67681105406666,114.56207466215233L277.74324882808696,112.78956136884074L276.62585797137467,112.82716116753659L277.45997698007653,110.72284098038415L274.5615620641617,110.15654824262481L274.98029584506344,106.68777739372592L276.5569831943808,106.99423707772155L276.99081742657586,103.83044489321117L282.59873672525896,104.90946947422117L282.31878729302537,103.70677989005947L284.80345801561646,103.66099598852531L285.0931392241703,105.09020441803898L286.9284552878032,107.00681365312573L286.4479837391695,108.80040352063304L287.10686835158003,111.02455036495132Z" vector-effect="non-scaling-stroke"><title>Lake County</title></path><path id="county-30033" class="county feature" d="M377.5573599360335,119.32929023304757L378.13825003737554,121.0519362849036L379.35902776450143,121.18587936539768L378.68099314832864,127.4418752476688L377.8596069759934,130.611772312761L379.47240438783615,130.78009855042512L379.13227695136493,133.9892329947345L380.19334280361267,134.10273925249123L379.56651847285366,140.03026819636227L379.53837061605077,140.29450523724165L371.45581420599655,139.42031343005976L371.4768021855417,139.15324797811388L356.5463604125493,137.52057155722957L355.9589579426889,136.95518015080995L357.0168155255317,134.9212331010766L356.3851632464157,132.26477508525056L356.866659822368,128.05695175547612L357.7273586596036,126.45009540468789L360.83722399387557,123.48888228804617L363.8945445558114,124.00751527305988L364.49180315237425,122.77930776768972L366.5102973921725,123.58390817631664L371.2693976957357,123.70407523396261L375.42014597386776,121.75002344390134Z" vector-effect="non-scaling-stroke"><title>Garfield County</title></path><path id="county-30049" class="county feature" d="M305.9143373672386,117.55057047689797L304.93846345417984,123.46616346414544L307.95208714288196,125.18103634395152L307.28193909511236,129.12214996133798L308.9491709694285,129.41267481414263L308.8905632361615,130.74768104683505L310.51728631504864,132.51544336643406L308.6609676388366,132.66442693207318L308.20918366472074,135.78041538720868L306.2479462417763,135.45627546596052L303.1851167903862,134.93674144999488L299.1422104776928,137.04004855227618L299.9393108829072,133.68550920073812L298.7601023341975,131.70701342374184L297.1793278962143,131.45257893410644L297.6122479828343,128.9627483154635L294.3258204305486,128.43022635977945L295.43675672478656,122.10481415411562L292.1487405542939,121.47237164244598L293.164104226478,115.85064979739002L292.46056043128937,113.66137024135071L292.61066498139195,111.34462262298211L294.03308421315666,110.55295923945732L294.2525788181831,107.9239370334385L295.6358043559952,107.50104176153695L296.11729583360955,109.98863983590968L295.6708753373616,112.34256082130867L296.6286313144974,114.2145469039665L299.6522474613087,114.25541230803094L301.40207767192044,115.07519172419688L302.9908998354034,117.23565844943585Z" vector-effect="non-scaling-stroke"><title>Lewis and Clark County</title></path><path id="county-30027" class="county feature" d="M346.06168511241157,119.61150374023259L347.3394118048642,121.44760320700789L352.95598379959586,123.3559330286705L352.28059226655955,128.29259209302086L348.77478112785997,127.99256809445785L347.06816416908634,128.43826295549843L346.41876282428484,131.57779149503847L348.0406751948916,131.80037694398175L346.90037324803836,138.18451441612922L342.08378475519487,137.5086579955256L337.2589207935529,136.8261867556164L337.10448417670915,137.8823543132255L332.5696939379601,137.22754764453657L331.7887495326431,135.0784023437028L332.9848519977379,133.483350733532L333.74239364987136,128.1588144902163L329.3002381520541,125.87972577131711L329.5395351449626,124.28177174256382L328.61944280891703,123.06163661858386L333.6061341834761,121.42077429193739L334.29546541302756,118.28668831975642L337.9647974760084,118.3949548337414L339.27339777798227,118.93295142226032L341.40956887173627,117.86531044361925L345.60382728033613,118.50369001821616Z" vector-effect="non-scaling-stroke"><title>Fergus County</title></path><path id="county-30021" class="county feature" d="M392.1077007983307,123.94307177403505L391.95091335929806,125.55163897784291L395.18408331147265,125.8663731527962L395.0272484033728,127.47347538285123L399.8827422045801,127.93061763193509L399.7369818489294,129.5382836617531L400.75836007803855,129.62444627590605L400.4640812046076,132.85009311758893L401.6422545744225,132.95733004500858L402.461304038034,135.06145258927052L402.5919724877374,138.8648710424385L401.0070940717256,141.30345191539493L398.4880978536079,141.88570157630716L393.0771917267319,141.37033302335522L392.64327809512633,140.25223653448757L391.01393695263175,140.0941723352173L391.12719643156186,139.02253529554855L389.4949390748562,138.86198428378532L389.86669698735795,135.08500171454057L388.8323050566196,134.9807362475384L389.4655875310131,128.55670530959708L390.00987788894923,128.6076225032176L390.49498922578573,123.79178583060502Z" vector-effect="non-scaling-stroke"><title>Dawson County</title></path><path id="county-30013" class="county feature" d="M323.2684316327016,122.25017369137049L323.105354413403,123.30053162690047L321.4990783249531,123.04801880509638L320.67896805283885,127.86891541274838L322.2826626461972,128.12112061122878L321.41063755344953,133.1053963585365L318.5682296846055,129.7064734885895L316.6404411978846,128.93171238549894L316.7607781114273,127.3949927697289L315.55652884071156,128.6436003706557L310.7085445885267,128.07129903762097L310.4466737026369,129.65865600504833L308.9491709694285,129.41267481414263L307.28193909511236,129.12214996133798L307.95208714288196,125.18103634395152L304.93846345417984,123.46616346414544L305.9143373672386,117.55057047689797L307.4408671773083,118.00588213516107L307.76854442189176,116.06827976602074L310.96732393354444,116.60784274709579L311.23082179730875,115.02381215965954L314.4508127325719,115.54789482007754L319.8570512619658,116.41346728800193L318.64408203975137,118.10255121315731L320.7604843965858,119.81461594636232L321.95701163983017,120.00670472320076L321.726044232252,121.45163660953858Z" vector-effect="non-scaling-stroke"><title>Cascade County</title></path><path id="county-30063" class="county feature" d="M286.37331685909476,112.469176495346L288.46265831690056,112.85740008131393L287.03897195804245,120.54207374133955L289.0897589041745,120.91228835023173L287.91637443293473,127.26088642626428L285.5843561288777,127.38512832086224L285.38772274106515,128.44219614799476L282.91361431947416,128.52643676099058L282.724276262421,129.58315783501803L280.7058462391328,129.15094582194354L274.32676550058466,127.92767884597777L270.9141237354761,127.76463481848043L270.28691395008553,125.6875098232374L271.9122644029153,125.81125257086421L272.47641915100746,121.81996237383123L274.0246417574969,121.56757383732474L273.8852999235424,120.13595037812593L271.4402920809537,117.47696736109197L270.6792498945313,115.70400410342461L273.69437767083787,116.6072901919398L275.94961967797934,118.23330575919647L276.4916000797729,119.54603016663725L277.8502968464486,119.57008506231443L281.0322819201552,120.18110697713371L282.58292832783803,119.65444581399902L282.69930273366543,115.71064103083029L281.9894400371034,113.97775496393922L282.6795879798417,111.79730516897268Z" vector-effect="non-scaling-stroke"><title>Missoula County</title></path><path id="county-30077" class="county feature" d="M292.46056043128937,113.66137024135071L293.164104226478,115.85064979739002L292.1487405542939,121.47237164244598L295.43675672478656,122.10481415411562L294.3258204305486,128.43022635977945L297.6122479828343,128.9627483154635L297.1793278962143,131.45257893410644L298.7601023341975,131.70701342374184L299.9393108829072,133.68550920073812L299.1422104776928,137.04004855227618L295.4921626775,139.33512608825015L289.39633860233073,138.2291269740184L290.93165414115686,129.62679691627113L289.88103462541267,129.86258756595805L287.91637443293473,127.26088642626428L289.0897589041745,120.91228835023173L287.03897195804245,120.54207374133955L288.46265831690056,112.85740008131393Z" vector-effect="non-scaling-stroke"><title>Powell County</title></path><path id="county-30069" class="county feature" d="M357.7273586596036,126.45009540468789L356.866659822368,128.05695175547612L356.3851632464157,132.26477508525056L357.0168155255317,134.9212331010766L355.9589579426889,136.95518015080995L356.5463604125493,137.52057155722957L357.1475872842628,139.38943204796055L346.90037324803836,138.18451441612922L348.0406751948916,131.80037694398175L346.41876282428484,131.57779149503847L347.06816416908634,128.43826295549843L348.77478112785997,127.99256809445785L352.28059226655955,128.29259209302086L352.95598379959586,123.3559330286705L356.1014189779513,123.48225696599468L357.7219544614008,124.23432175923949Z" vector-effect="non-scaling-stroke"><title>Petroleum County</title></path><path id="county-30061" class="county feature" d="M270.6792498945313,115.70400410342461L271.4402920809537,117.47696736109197L273.8852999235424,120.13595037812593L274.0246417574969,121.56757383732474L272.47641915100746,121.81996237383123L271.9122644029153,125.81125257086421L270.28691395008553,125.6875098232374L267.29264305822477,122.7655582272755L267.4284684951823,121.39691923913563L266.429617263246,120.49446229094349L265.74096178145123,117.84982349562358L263.87932910544896,114.41474469284105L261.66184144967013,113.2621302885168L261.58075227248935,112.28549675709303L259.7597031500036,110.4693549736428L261.1133535483707,109.72684924015698L265.44355380308787,110.48840314044571L268.8459748156944,112.88801864581774L268.7057790577196,114.45604662303128Z" vector-effect="non-scaling-stroke"><title>Mineral County</title></path><path id="county-30045" class="county feature" d="M328.61944280891703,123.06163661858386L329.5395351449626,124.28177174256382L329.3002381520541,125.87972577131711L333.74239364987136,128.1588144902163L332.9848519977379,133.483350733532L331.7887495326431,135.0784023437028L332.5696939379601,137.22754764453657L329.89016137454144,135.76131117512807L325.9073072743213,135.92205851251367L323.46830813612814,136.15416645904077L321.41063755344953,133.1053963585365L322.2826626461972,128.12112061122878L320.67896805283885,127.86891541274838L321.4990783249531,123.04801880509638L323.105354413403,123.30053162690047L323.2684316327016,122.25017369137049Z" vector-effect="non-scaling-stroke"><title>Judith Basin County</title></path><path id="county-30109" class="county feature" d="M406.46491451280053,132.57738610114438L406.35927173246506,133.82242535685782L405.2767974871689,146.57978486985576L401.32026304890985,146.23759706462363L400.57302344196785,145.35964251153678L398.15080152951015,145.1421185301915L398.4880978536079,141.88570157630716L401.0070940717256,141.30345191539493L402.5919724877374,138.8648710424385L402.461304038034,135.06145258927052L401.6422545744225,132.95733004500858L405.3000298783708,133.2856529901942Z" vector-effect="non-scaling-stroke"><title>Wibaux County</title></path><path id="county-30079" class="county feature" d="M398.4880978536079,141.88570157630716L398.15080152951015,145.1421185301915L396.41439209962505,146.33344913451333L394.8040948268641,146.18700994270114L393.06339021690474,147.36691828258154L389.79548146957217,147.0456221994517L387.1582904646176,146.2258166743992L386.7356493434467,144.5558333051731L385.7019278497726,144.45378409124964L385.4920286926118,141.17402122270346L382.80309705658436,140.36565326773677L379.56651847285366,140.03026819636227L380.19334280361267,134.10273925249123L381.80138270805804,134.2699476451661L381.6299632635579,135.89970715707784L383.249516637516,136.06594473527343L383.4182356692396,134.44092045032426L388.8323050566196,134.9807362475384L389.86669698735795,135.08500171454057L389.4949390748562,138.86198428378532L391.12719643156186,139.02253529554855L391.01393695263175,140.0941723352173L392.64327809512633,140.25223653448757L393.0771917267319,141.37033302335522Z" vector-effect="non-scaling-stroke"><title>Prairie County</title></path><path id="county-30059" class="county feature" d="M321.41063755344953,133.1053963585365L323.46830813612814,136.15416645904077L325.9073072743213,135.92205851251367L324.43160706098945,144.92897675414952L324.33029851454035,145.59808219840136L317.92449488937075,144.45690271269802L314.36238159940467,143.88382918155116L313.78112438791726,142.2538937688762L315.0391154563874,140.11941904794594L312.9609609328455,139.20794964918673L311.8072853672993,136.80983617731056L310.51728631504864,132.51544336643406L308.8905632361615,130.74768104683505L308.9491709694285,129.41267481414263L310.4466737026369,129.65865600504833L310.7085445885267,128.07129903762097L315.55652884071156,128.6436003706557L316.7607781114273,127.3949927697289L316.6404411978846,128.93171238549894L318.5682296846055,129.7064734885895Z" vector-effect="non-scaling-stroke"><title>Meagher County</title></path><path id="county-30017" class="county feature" d="M396.41439209962505,146.33344913451333L396.19161239594195,148.75120126056436L393.9699448333564,148.54545464076853L393.62720853899395,154.9773931517201L392.9366311655777,154.9154615859518L392.32422425515085,161.40738594047673L391.7701167777978,161.35398255453947L376.0842903700507,159.73614423339097L376.7843619710359,153.27628192835743L377.27984087699974,153.32548792397267L377.94003812768847,146.90848857293122L378.38670246669676,146.95430247867625L379.06994815218525,140.5188072834061L379.53837061605077,140.29450523724165L379.56651847285366,140.03026819636227L382.80309705658436,140.36565326773677L385.4920286926118,141.17402122270346L385.7019278497726,144.45378409124964L386.7356493434467,144.5558333051731L387.1582904646176,146.2258166743992L389.79548146957217,147.0456221994517L393.06339021690474,147.36691828258154L394.8040948268641,146.18700994270114Z" vector-effect="non-scaling-stroke"><title>Custer County</title></path><path id="county-30087" class="county feature" d="M379.53837061605077,140.29450523724165L379.06994815218525,140.5188072834061L378.38670246669676,146.95430247867625L377.94003812768847,146.90848857293122L377.27984087699974,153.32548792397267L376.7843619710359,153.27628192835743L376.0842903700507,159.73614423339097L375.53484539476506,159.6829224890804L374.6448123390824,167.78499789638022L374.0660967099581,167.74955074416016L373.7224045524073,170.91487923890986L367.33636543684725,170.20891277909345L367.6974298900591,166.99400646485697L368.2003300575698,167.07233587515805L368.87618727468384,161.1110413035541L366.52093978793005,160.63281864456258L367.2962992701246,157.94929802378238L366.57981507907726,157.1454323530039L367.15074285909577,152.20697753707566L366.266947807503,152.152865787206L366.56259825663153,147.2850670073767L364.95618590238496,147.09473943918113L364.8742291855898,145.4572944706057L357.65352111798524,144.59374280555994L357.1396492198123,144.26274253992324L357.1475872842628,139.38943204796055L356.5463604125493,137.52057155722957L371.4768021855417,139.15324797811388L371.45581420599655,139.42031343005976Z" vector-effect="non-scaling-stroke"><title>Rosebud County</title></path><path id="county-30039" class="county feature" d="M289.39633860233073,138.2291269740184L289.2508882498477,139.03183080076747L286.1090584644246,138.46442454703845L285.5853557912584,141.72472216970345L282.1679660082691,143.09695830625287L281.031322913149,142.70103662031192L280.32329632006383,140.93827642544693L278.84851411092995,140.61074819927433L279.75284151118444,139.36413592488464L279.16411197076866,137.54783301976238L280.3467268007482,136.47182874360806L279.567558568404,131.82304537182654L280.7058462391328,129.15094582194354L282.724276262421,129.58315783501803L282.91361431947416,128.52643676099058L285.38772274106515,128.44219614799476L285.5843561288777,127.38512832086224L287.91637443293473,127.26088642626428L289.88103462541267,129.86258756595805L290.93165414115686,129.62679691627113Z" vector-effect="non-scaling-stroke"><title>Granite County</title></path><path id="county-30007" class="county feature" d="M310.51728631504864,132.51544336643406L311.8072853672993,136.80983617731056L312.9609609328455,139.20794964918673L315.0391154563874,140.11941904794594L313.78112438791726,142.2538937688762L314.36238159940467,143.88382918155116L310.7172223996969,143.38693503057732L309.2726733649595,146.6577803100787L305.62298376421063,149.24839619801878L306.27899653686524,145.2746788106773L304.6950889119553,145.0000913785674L306.2479462417763,135.45627546596052L308.20918366472074,135.78041538720868L308.6609676388366,132.66442693207318Z" vector-effect="non-scaling-stroke"><title>Broadwater County</title></path><path id="county-30065" class="county feature" d="M357.1475872842628,139.38943204796055L357.1396492198123,144.26274253992324L356.89855029457806,146.12281111379423L355.02224499920317,145.88654026579843L353.4162837844324,148.15232120048472L349.68122374510517,147.66617298369863L348.53576047369796,148.04226105103828L348.28481313780526,149.95405119988277L343.46403528097267,149.31461308685925L343.83357200767966,146.6522343068939L343.00142404137927,144.88207342696785L342.9763650028683,140.88607646972332L341.91719329018395,140.71667585305443L342.08378475519487,137.5086579955256L346.90037324803836,138.18451441612922Z" vector-effect="non-scaling-stroke"><title>Musselshell County</title></path><path id="county-30037" class="county feature" d="M342.08378475519487,137.5086579955256L341.91719329018395,140.71667585305443L342.9763650028683,140.88607646972332L343.00142404137927,144.88207342696785L343.83357200767966,146.6522343068939L343.46403528097267,149.31461308685925L341.6096879110662,149.06737704687112L335.3000989079453,148.18643064165371L335.0468272517752,149.80321287025845L332.63662617520913,149.44206914876952L332.4692638723951,146.14006104011594L335.68987919099084,146.59958500244295L337.10448417670915,137.8823543132255L337.2589207935529,136.8261867556164Z" vector-effect="non-scaling-stroke"><title>Golden Valley County</title></path><path id="county-30107" class="county feature" d="M332.5696939379601,137.22754764453657L337.10448417670915,137.8823543132255L335.68987919099084,146.59958500244295L332.4692638723951,146.14006104011594L324.43160706098945,144.92897675414952L325.9073072743213,135.92205851251367L329.89016137454144,135.76131117512807Z" vector-effect="non-scaling-stroke"><title>Wheatland County</title></path><path id="county-30025" class="county feature" d="M405.2767974871689,146.57978486985576L405.11863246677683,148.44381815867587L404.69880970174734,153.2817478255829L404.1801981419258,159.5036139122335L404.08954713282026,160.6824699221621L402.9214807205394,160.58079827920244L403.060058652867,158.96563589650555L399.7440439918968,158.65047886525883L399.8924239093758,157.07983701706473L398.26302059212253,156.94056736751202L398.40404007376503,155.42295651552456L393.62720853899395,154.9773931517201L393.9699448333564,148.54545464076853L396.19161239594195,148.75120126056436L396.41439209962505,146.33344913451333L398.15080152951015,145.1421185301915L400.57302344196785,145.35964251153678L401.32026304890985,146.23759706462363Z" vector-effect="non-scaling-stroke"><title>Fallon County</title></path><path id="county-30081" class="county feature" d="M280.7058462391328,129.15094582194354L279.567558568404,131.82304537182654L280.3467268007482,136.47182874360806L279.16411197076866,137.54783301976238L279.75284151118444,139.36413592488464L278.84851411092995,140.61074819927433L280.32329632006383,140.93827642544693L281.031322913149,142.70103662031192L282.1679660082691,143.09695830625287L282.1773239832835,143.12316199388067L281.82472370088203,144.1479876608655L279.5323510016921,144.43193470474625L275.93813471450665,146.5578279292647L270.82866246261045,149.6374293826541L269.8616655743002,149.8566053963142L268.62889767006095,147.62456394237404L267.40940015127353,147.52498249631117L268.64501329117576,145.65002996841338L268.1555776417961,143.56071034158458L269.2936135774796,142.33582636140352L270.43741607596945,142.52603915166253L270.86759772404935,140.21200153517373L269.8430409358724,138.99468681278654L270.6785026161931,137.91088262946175L271.62648928707813,134.7037544084368L273.69592836814843,130.48174077325427L274.32676550058466,127.92767884597777Z" vector-effect="non-scaling-stroke"><title>Ravalli County</title></path><path id="county-30043" class="county feature" d="M306.2479462417763,135.45627546596052L304.6950889119553,145.0000913785674L306.27899653686524,145.2746788106773L305.62298376421063,149.24839619801878L303.6540308105693,149.59823601460675L302.2240287011794,148.23725370761258L299.92296644279304,148.13645789380882L298.55086361749613,149.6613831653209L296.10541639259765,147.66328554037432L295.8848793855335,140.99370987745044L294.9729163287534,140.89029193703755L295.4921626775,139.33512608825015L299.1422104776928,137.04004855227618L303.1851167903862,134.93674144999488Z" vector-effect="non-scaling-stroke"><title>Jefferson County</title></path><path id="county-30111" class="county feature" d="M357.65352111798524,144.59374280555994L358.8714749012421,148.0062666416386L360.45867810723166,150.64827240649709L359.5746560067249,153.06168631419098L357.47102353765615,152.79674918028059L357.33859895162675,153.8693855795808L355.74642255447384,153.67177004754762L354.47115732133557,155.14171653112726L352.3314312201459,154.86486934087202L351.1459051280922,161.86406830560145L347.79457955009786,162.53829361647877L343.54382433848446,161.90906444590064L341.34654426216036,158.84455677476342L340.7182894123915,157.41400367013205L341.4646822637004,152.29548233296418L341.6096879110662,149.06737704687112L343.46403528097267,149.31461308685925L348.28481313780526,149.95405119988277L348.53576047369796,148.04226105103828L349.68122374510517,147.66617298369863L353.4162837844324,148.15232120048472L355.02224499920317,145.88654026579843L356.89855029457806,146.12281111379423L357.1396492198123,144.26274253992324Z" vector-effect="non-scaling-stroke"><title>Yellowstone County</title></path><path id="county-30103" class="county feature" d="M366.57981507907726,157.1454323530039L363.70681367210966,155.18150858933154L360.4963670589015,154.7959640558014L360.68976163666406,153.1948764435598L359.5746560067249,153.06168631419098L360.45867810723166,150.64827240649709L358.8714749012421,148.0062666416386L357.65352111798524,144.59374280555994L364.8742291855898,145.4572944706057L364.95618590238496,147.09473943918113L366.56259825663153,147.2850670073767L366.266947807503,152.152865787206L367.15074285909577,152.20697753707566Z" vector-effect="non-scaling-stroke"><title>Treasure County</title></path><path id="county-30023" class="county feature" d="M295.4921626775,139.33512608825015L294.9729163287534,140.89029193703755L292.2722879114425,141.2269893689455L291.9859899468428,142.8319614525427L289.7489171622996,143.47602641028038L289.73873103036203,144.58574914936412L287.42093194601006,145.56666496124876L285.66662488002305,145.08150542429144L283.1290146118945,146.54631760092593L282.1773239832835,143.12316199388067L282.1679660082691,143.09695830625287L285.5853557912584,141.72472216970345L286.1090584644246,138.46442454703845L289.2508882498477,139.03183080076747L289.39633860233073,138.2291269740184Z" vector-effect="non-scaling-stroke"><title>Deer Lodge County</title></path><path id="county-30097" class="county feature" d="M332.4692638723951,146.14006104011594L332.63662617520913,149.44206914876952L335.0468272517752,149.80321287025845L334.74716604907616,151.34806111162516L333.67272436222186,151.21505473667446L332.8939883973745,152.76545923195943L332.032681535499,157.57783985058893L327.0204573927714,158.48160033227919L326.53185198629836,161.69438689297033L324.8321742428476,161.4391914761727L324.33611266575065,164.70313789603472L322.19509241068204,164.3678765974871L323.9972001125792,153.07917562916498L323.0770168647431,152.93807128575668L324.33029851454035,145.59808219840136L324.43160706098945,144.92897675414952Z" vector-effect="non-scaling-stroke"><title>Sweet Grass County</title></path><path id="county-30031" class="county feature" d="M314.36238159940467,143.88382918155116L317.92449488937075,144.45690271269802L316.0454091044054,155.5309843936417L314.25228086174997,156.47593462471968L313.7622450270715,159.6925628473016L312.1997392173631,159.44426853535674L311.09011438618825,165.88793193239917L309.9562597753676,172.05566967520497L309.46898684560904,175.62012859285926L307.4568148016436,173.35869766512656L307.68258599351185,172.52844891749317L305.99670477934353,169.79631799185347L307.85639849873576,158.75356048558865L308.1581522060678,158.80479540436227L309.0193734488026,153.43134564627314L306.6280146842992,153.03625970928613L305.35569150093613,150.91298913131504L303.6540308105693,149.59823601460675L305.62298376421063,149.24839619801878L309.2726733649595,146.6577803100787L310.7172223996969,143.38693503057732Z" vector-effect="non-scaling-stroke"><title>Gallatin County</title></path><path id="county-30067" class="county feature" d="M324.33029851454035,145.59808219840136L323.0770168647431,152.93807128575668L323.9972001125792,153.07917562916498L322.19509241068204,164.3678765974871L324.33611266575065,164.70313789603472L327.78429958840064,165.30152159708655L327.32805093497177,168.3566816703766L315.48230315175124,166.75285043280735L311.09011438618825,165.88793193239917L312.1997392173631,159.44426853535674L313.7622450270715,159.6925628473016L314.25228086174997,156.47593462471968L316.0454091044054,155.5309843936417L317.92449488937075,144.45690271269802Z" vector-effect="non-scaling-stroke"><title>Park County</title></path><path id="county-30093" class="county feature" d="M298.55086361749613,149.6613831653209L295.04144864291743,149.1604075827613L291.7677734048099,150.81116272362544L291.23720827100055,148.38893993136355L287.42093194601006,145.56666496124876L289.73873103036203,144.58574914936412L289.7489171622996,143.47602641028038L291.9859899468428,142.8319614525427L292.2722879114425,141.2269893689455L294.9729163287534,140.89029193703755L295.8848793855335,140.99370987745044L296.10541639259765,147.66328554037432Z" vector-effect="non-scaling-stroke"><title>Silver Bow County</title></path><path id="county-30011" class="county feature" d="M404.08954713282026,160.6824699221621L403.09449592564886,173.1361391451494L402.51826806809623,177.1304897210823L389.6389242958944,175.91249949176722L390.2724732278033,169.36994118839675L390.93799620654784,169.4342477726815L391.7701167777978,161.35398255453947L392.32422425515085,161.40738594047673L392.9366311655777,154.9154615859518L393.62720853899395,154.9773931517201L398.40404007376503,155.42295651552456L398.26302059212253,156.94056736751202L399.8924239093758,157.07983701706473L399.7440439918968,158.65047886525883L403.060058652867,158.96563589650555L402.9214807205394,160.58079827920244Z" vector-effect="non-scaling-stroke"><title>Carter County</title></path><path id="county-30095" class="county feature" d="M341.6096879110662,149.06737704687112L341.4646822637004,152.29548233296418L340.7182894123915,157.41400367013205L341.34654426216036,158.84455677476342L337.58854604864734,158.79658845514825L336.45111992647185,160.93601261565516L334.31493643216857,160.63267580912589L331.3787361017326,162.12960711974233L330.5018565934184,163.92286723693576L329.43804589176307,163.76801635363768L329.17622701121707,165.50727306837712L327.78429958840064,165.30152159708655L324.33611266575065,164.70313789603472L324.8321742428476,161.4391914761727L326.53185198629836,161.69438689297033L327.0204573927714,158.48160033227919L332.032681535499,157.57783985058893L332.8939883973745,152.76545923195943L333.67272436222186,151.21505473667446L334.74716604907616,151.34806111162516L335.0468272517752,149.80321287025845L335.3000989079453,148.18643064165371Z" vector-effect="non-scaling-stroke"><title>Stillwater County</title></path><path id="county-30003" class="county feature" d="M366.57981507907726,157.1454323530039L367.2962992701246,157.94929802378238L366.52093978793005,160.63281864456258L368.87618727468384,161.1110413035541L368.2003300575698,167.07233587515805L367.6974298900591,166.99400646485697L367.33636543684725,170.20891277909345L373.7224045524073,170.91487923890986L373.55857284827596,174.39717696805656L351.9861529847625,171.72753712686483L347.56360749819794,171.1967924637445L349.6699820212074,167.3516421494288L342.21813045243334,166.3727596764527L342.9773419312868,162.41922238933876L343.54382433848446,161.90906444590064L347.79457955009786,162.53829361647877L351.1459051280922,161.86406830560145L352.3314312201459,154.86486934087202L354.47115732133557,155.14171653112726L355.74642255447384,153.67177004754762L357.33859895162675,153.8693855795808L357.47102353765615,152.79674918028059L359.5746560067249,153.06168631419098L360.68976163666406,153.1948764435598L360.4963670589015,154.7959640558014L363.70681367210966,155.18150858933154Z" vector-effect="non-scaling-stroke"><title>Big Horn County</title></path><path id="county-30001" class="county feature" d="M287.42093194601006,145.56666496124876L291.23720827100055,148.38893993136355L291.7677734048099,150.81116272362544L291.2729937676016,153.51956493276793L293.50203386832,154.5760099668713L293.8283929411526,156.3944926935618L293.0007134779988,161.20877592961597L294.5979048108193,161.4880787520716L294.3074212144633,163.10634276267717L296.1662564703594,163.44079633549825L295.93032865830486,166.68782356036945L297.11433760904845,167.70517212270374L300.80984080340465,168.3801307557095L300.59092082398786,169.7151566320158L304.6255386512008,170.37642738457464L303.6391174480605,173.50012310961984L302.2450666411056,172.99154824117875L299.45160339657684,173.3113121394955L299.01599190955295,172.1948344733238L295.8944884109258,172.44418119987438L293.5288799313691,171.18523623256556L291.83592822558643,173.15930310115812L290.82284738555717,172.38717273503391L286.8085683684837,171.5847118071781L285.99496038987945,173.50639731787146L283.77462955842327,171.68960979633755L283.97774677646237,170.29858868418296L283.1813009705802,165.44268319643027L281.8658606203459,164.26940639162524L280.51457565776315,164.74014314941212L279.2867093056137,162.97783949256973L280.00278797348017,159.4336406741454L278.85470273876206,158.18806700169978L277.5946468220386,155.09974668812583L277.0191614644816,152.23257132898755L277.2968606453163,148.5954683656489L276.1111625521087,148.00155807535555L275.93813471450665,146.5578279292647L279.5323510016921,144.43193470474625L281.82472370088203,144.1479876608655L282.1773239832835,143.12316199388067L283.1290146118945,146.54631760092593L285.66662488002305,145.08150542429144Z" vector-effect="non-scaling-stroke"><title>Beaverhead County</title></path><path id="county-30057" class="county feature" d="M303.6540308105693,149.59823601460675L305.35569150093613,150.91298913131504L306.6280146842992,153.03625970928613L309.0193734488026,153.43134564627314L308.1581522060678,158.80479540436227L307.85639849873576,158.75356048558865L305.99670477934353,169.79631799185347L304.6255386512008,170.37642738457464L300.59092082398786,169.7151566320158L300.80984080340465,168.3801307557095L297.11433760904845,167.70517212270374L295.93032865830486,166.68782356036945L296.1662564703594,163.44079633549825L294.3074212144633,163.10634276267717L294.5979048108193,161.4880787520716L293.0007134779988,161.20877592961597L293.8283929411526,156.3944926935618L293.50203386832,154.5760099668713L291.2729937676016,153.51956493276793L291.7677734048099,150.81116272362544L295.04144864291743,149.1604075827613L298.55086361749613,149.6613831653209L299.92296644279304,148.13645789380882L302.2240287011794,148.23725370761258Z" vector-effect="non-scaling-stroke"><title>Madison County</title></path><path id="county-30075" class="county feature" d="M391.7701167777978,161.35398255453947L390.93799620654784,169.4342477726815L390.2724732278033,169.36994118839675L389.6389242958944,175.91249949176722L388.9747358505289,175.84694661151514L376.6882715225785,174.7365276721465L373.55857284827596,174.39717696805656L373.7224045524073,170.91487923890986L374.0660967099581,167.74955074416016L374.6448123390824,167.78499789638022L375.53484539476506,159.6829224890804L376.0842903700507,159.73614423339097Z" vector-effect="non-scaling-stroke"><title>Powder River County</title></path><path id="county-30009" class="county feature" d="M343.54382433848446,161.90906444590064L342.9773419312868,162.41922238933876L342.21813045243334,166.3727596764527L349.6699820212074,167.3516421494288L347.56360749819794,171.1967924637445L342.70349440392346,170.5430688080379L327.32805093497177,168.3566816703766L327.78429958840064,165.30152159708655L329.17622701121707,165.50727306837712L329.43804589176307,163.76801635363768L330.5018565934184,163.92286723693576L331.3787361017326,162.12960711974233L334.31493643216857,160.63267580912589L336.45111992647185,160.93601261565516L337.58854604864734,158.79658845514825L341.34654426216036,158.84455677476342Z" vector-effect="non-scaling-stroke"><title>Carbon County</title></path></g><path id="counties-mesh" class="counties mesh" d="M364.49180315237425,122.77930776768972L363.8945445558114,124.00751527305988L360.83722399387557,123.48888228804617L357.7273586596036,126.45009540468789L357.7219544614008,124.23432175923949L356.1014189779513,123.48225696599468L352.95598379959586,123.3559330286705L347.3394118048642,121.44760320700789L346.06168511241157,119.61150374023259L346.5651641856001,116.1566530710503L349.84954703393146,116.63631077844889L350.24161003960853,115.3756449503552L352.3812929669794,115.93013571863696L353.79227640452916,107.37539360754181L354.54876908042775,107.89514492897183L355.6470747000671,102.07614069053625L356.3827604757689,102.17379945906225L357.27637717155073,97.49980434724318L370.28685206865583,99.10269324905653M270.7712017494324,101.57669512467487L269.00751133092103,101.17409763772412L268.10698188236677,102.912363970515L266.99491121859796,103.17179970832547L264.0666684983863,102.23433042581371L264.13878465965513,100.84566984988567L262.48812673611087,95.16963205208538L259.0087427374042,96.38595889355452L258.73117693113113,95.29068111131232L259.85094763996926,90.10441442315994L261.77949842516074,81.09809632166412L277.81099717717376,84.42181309288969M285.8584181918617,86.02968631311046L286.5906276296357,89.57402592136089L288.11195575379736,89.15043471585875L289.3573407884853,91.94036065921716L288.41012764825666,93.74959156089096L291.6556780306739,95.60493777982583L291.19108824875724,97.17062359037538L292.6035982045081,98.1020500562829L292.3093120847748,100.19127407823737L293.56937992820923,101.85480768683556L293.2613700624504,102.9099951469442L295.82361733524476,104.17613716051187L297.0273465198197,107.3310313481046L295.6358043559952,107.50104176153695L294.2525788181831,107.9239370334385L294.03308421315666,110.55295923945732L292.61066498139195,111.34462262298211L292.46056043128937,113.66137024135071L288.46265831690056,112.85740008131393L286.37331685909476,112.469176495346L287.10686835158003,111.02455036495132L286.4479837391695,108.80040352063304L286.9284552878032,107.00681365312573L285.0931392241703,105.09020441803898L284.80345801561646,103.66099598852531L282.31878729302537,103.70677989005947L282.59873672525896,104.90946947422117L276.99081742657586,103.83044489321117L276.5569831943808,106.99423707772155L274.98029584506344,106.68777739372592L275.28583150112433,105.12356834132095L270.50831796746604,104.21897416672869L270.7712017494324,101.57669512467487L271.4308394318411,97.73323499456967L273.5520741036887,98.15743908532102L274.7955471920641,91.85566644755238L274.62610933762465,90.22226633298374L277.52074296277783,90.79137067723775L278.34642195162917,89.20573458876038L277.6988213293108,87.3775376920861L277.81099717717376,84.42181309288969L285.8584181918617,86.02968631311046L308.72891660540427,90.20119165249355L307.21691343077237,99.70403584321821L302.3971360630226,98.75618492547994L301.7960884442115,101.90789459738437L292.3093120847748,100.19127407823737M346.06168511241157,119.61150374023259L345.60382728033613,118.50369001821616L341.40956887173627,117.86531044361925L339.27339777798227,118.93295142226032L337.9647974760084,118.3949548337414L339.05156540798794,111.1350317256015L336.6508005169501,110.83455325022635L336.887317841611,109.20835561162028L335.4047998429112,109.03598764293213L335.63821834529733,107.44506125752503L325.9727254264981,105.97638685275194L325.7264183560451,107.56435946458828L324.10996997182474,107.31149489043617L326.4890901580837,93.1185033162451L341.87157047260166,95.38810731219746L340.5568202213019,103.19468881827174L340.75179394804206,105.44686310352415L339.26258918940016,108.20402602636625L339.05156540798794,111.1350317256015M341.87157047260166,95.38810731219746L357.27637717155073,97.49980434724318M383.44950934656964,100.59421078393189L382.6128728673152,103.76101224245065L384.22455146432543,103.93269941947119L383.72379368263233,108.70684571455877L386.41556383584606,109.00158547896683L385.76025207895793,115.33163223200984L385.2712792352934,115.28390799415126L384.862896649292,119.12545117919115L380.0700759285887,118.31733106991771L377.99819694766074,117.43022407085391L377.5573599360335,119.32929023304757L375.42014597386776,121.75002344390134L371.2693976957357,123.70407523396261L366.5102973921725,123.58390817631664L364.49180315237425,122.77930776768972L365.7858751398637,113.1096769651067L366.42066733878755,111.56752401711287L367.7740577235711,111.73641515458621L367.65088869527915,108.44173538249868L369.054203690731,108.08066889304189L369.77441387396453,100.66547318054904L370.28685206865583,99.10269324905653L383.44950934656964,100.59421078393189L396.4649606691117,101.91421334818949L396.08369546470925,108.3495517362353L396.74340968478225,110.02615395414182L386.41556383584606,109.00158547896683M324.10996997182474,107.31149489043617L322.9750441118829,108.75457845746166L315.74874282770486,107.61245410911476L316.00918658570856,106.02012181947225L317.67296476374895,106.29104510814216L320.01649818784176,92.11299499659549L326.4890901580837,93.1185033162451M308.72891660540427,90.20119165249355L320.01649818784176,92.11299499659549M316.00918658570856,106.02012181947225L312.8160052155323,105.49440275462109L313.2198077989789,103.12174772685569L311.74603189721404,102.06483715966715L309.3440675886866,101.63017773758816L309.15996446917444,100.5149246453609L307.21691343077237,99.70403584321821M396.4649606691117,101.91421334818949L408.93197131840304,103.02821593556985L408.3653425480329,109.75639881567474L408.0007937557098,114.26380312722074L400.7461093931988,113.62875995416448L400.89213981571777,112.02458265391965L399.2786586919706,111.87260792859672L399.42590879168523,110.27909752372773L396.74340968478225,110.02615395414182M274.98029584506344,106.68777739372592L274.5615620641617,110.15654824262481L277.45997698007653,110.72284098038415L276.62585797137467,112.82716116753659L277.74324882808696,112.78956136884074L276.67681105406666,114.56207466215233L278.4222108291152,115.56126358361746L277.8502968464486,119.57008506231443L276.4916000797729,119.54603016663725L275.94961967797934,118.23330575919647L273.69437767083787,116.6072901919398L270.6792498945313,115.70400410342461L268.7057790577196,114.45604662303128L268.8459748156944,112.88801864581774L265.44355380308787,110.48840314044571L261.1133535483707,109.72684924015698L259.8132352586304,108.09291291606712L260.79248764362916,107.48546203837645L260.74289861654756,105.57850582073229L259.7106441366486,104.26741202566575L257.8145383960841,99.57121847887674L258.73117693113113,95.29068111131232M408.0007937557098,114.26380312722074L407.4125084134095,121.51663029909412L406.3491941473428,120.31273850001025L403.6641060518513,120.25798372558108L402.40251238956273,118.78629485536362L397.65253368851006,118.33385035797255L397.0528472427948,117.71851210332409L395.61048314338876,119.16253866887553L393.1009099502391,118.92265981184903L392.73062979210675,118.39005026520397L389.36122644475626,117.95410603965377L384.862896649292,119.12545117919115M315.74874282770486,107.61245410911476L315.31925456869186,110.26633440914588L308.1643092858641,109.11621909020221L307.6838150738022,107.11639491085054L306.2059732108165,106.03615023709904L295.82361733524476,104.17613716051187M337.9647974760084,118.3949548337414L334.29546541302756,118.28668831975642L333.6061341834761,121.42077429193739L328.61944280891703,123.06163661858386L323.2684316327016,122.25017369137049L321.726044232252,121.45163660953858L321.95701163983017,120.00670472320076L320.7604843965858,119.81461594636232L318.64408203975137,118.10255121315731L319.8570512619658,116.41346728800193L314.4508127325719,115.54789482007754L315.31925456869186,110.26633440914588M407.4125084134095,121.51663029909412L406.46491451280053,132.57738610114438L405.3000298783708,133.2856529901942L401.6422545744225,132.95733004500858L400.4640812046076,132.85009311758893L400.75836007803855,129.62444627590605L399.7369818489294,129.5382836617531L399.8827422045801,127.93061763193509L395.0272484033728,127.47347538285123L395.18408331147265,125.8663731527962L391.95091335929806,125.55163897784291L392.1077007983307,123.94307177403505L392.7475257515699,122.56402794396092L393.1009099502391,118.92265981184903M314.4508127325719,115.54789482007754L311.23082179730875,115.02381215965954L310.96732393354444,116.60784274709579L307.76854442189176,116.06827976602074L307.4408671773083,118.00588213516107L305.9143373672386,117.55057047689797L302.9908998354034,117.23565844943585L301.40207767192044,115.07519172419688L299.6522474613087,114.25541230803094L296.6286313144974,114.2145469039665L295.6708753373616,112.34256082130867L296.11729583360955,109.98863983590968L295.6358043559952,107.50104176153695M392.1077007983307,123.94307177403505L390.49498922578573,123.79178583060502L390.00987788894923,128.6076225032176L389.4655875310131,128.55670530959708L388.8323050566196,134.9807362475384L383.4182356692396,134.44092045032426L383.249516637516,136.06594473527343L381.6299632635579,135.89970715707784L381.80138270805804,134.2699476451661L380.19334280361267,134.10273925249123L379.13227695136493,133.9892329947345L379.47240438783615,130.78009855042512L377.8596069759934,130.611772312761L378.68099314832864,127.4418752476688L379.35902776450143,121.18587936539768L378.13825003737554,121.0519362849036L377.5573599360335,119.32929023304757M270.28691395008553,125.6875098232374L267.29264305822477,122.7655582272755L267.4284684951823,121.39691923913563L266.429617263246,120.49446229094349L265.74096178145123,117.84982349562358L263.87932910544896,114.41474469284105L261.66184144967013,113.2621302885168L261.58075227248935,112.28549675709303L259.7597031500036,110.4693549736428L261.1133535483707,109.72684924015698M286.37331685909476,112.469176495346L282.6795879798417,111.79730516897268L281.9894400371034,113.97775496393922L282.69930273366543,115.71064103083029L282.58292832783803,119.65444581399902L281.0322819201552,120.18110697713371L277.8502968464486,119.57008506231443M380.19334280361267,134.10273925249123L379.56651847285366,140.03026819636227L379.53837061605077,140.29450523724165L371.45581420599655,139.42031343005976L371.4768021855417,139.15324797811388L356.5463604125493,137.52057155722957L355.9589579426889,136.95518015080995L357.0168155255317,134.9212331010766L356.3851632464157,132.26477508525056L356.866659822368,128.05695175547612L357.7273586596036,126.45009540468789M305.9143373672386,117.55057047689797L304.93846345417984,123.46616346414544L307.95208714288196,125.18103634395152L307.28193909511236,129.12214996133798L308.9491709694285,129.41267481414263L308.8905632361615,130.74768104683505L310.51728631504864,132.51544336643406L308.6609676388366,132.66442693207318L308.20918366472074,135.78041538720868L306.2479462417763,135.45627546596052L303.1851167903862,134.93674144999488L299.1422104776928,137.04004855227618L299.9393108829072,133.68550920073812L298.7601023341975,131.70701342374184L297.1793278962143,131.45257893410644L297.6122479828343,128.9627483154635L294.3258204305486,128.43022635977945L295.43675672478656,122.10481415411562L292.1487405542939,121.47237164244598L293.164104226478,115.85064979739002L292.46056043128937,113.66137024135071M352.95598379959586,123.3559330286705L352.28059226655955,128.29259209302086L348.77478112785997,127.99256809445785L347.06816416908634,128.43826295549843L346.41876282428484,131.57779149503847L348.0406751948916,131.80037694398175L346.90037324803836,138.18451441612922L342.08378475519487,137.5086579955256L337.2589207935529,136.8261867556164L337.10448417670915,137.8823543132255L332.5696939379601,137.22754764453657L331.7887495326431,135.0784023437028L332.9848519977379,133.483350733532L333.74239364987136,128.1588144902163L329.3002381520541,125.87972577131711L329.5395351449626,124.28177174256382L328.61944280891703,123.06163661858386M401.6422545744225,132.95733004500858L402.461304038034,135.06145258927052L402.5919724877374,138.8648710424385L401.0070940717256,141.30345191539493L398.4880978536079,141.88570157630716L393.0771917267319,141.37033302335522L392.64327809512633,140.25223653448757L391.01393695263175,140.0941723352173L391.12719643156186,139.02253529554855L389.4949390748562,138.86198428378532L389.86669698735795,135.08500171454057L388.8323050566196,134.9807362475384M323.2684316327016,122.25017369137049L323.105354413403,123.30053162690047L321.4990783249531,123.04801880509638L320.67896805283885,127.86891541274838L322.2826626461972,128.12112061122878L321.41063755344953,133.1053963585365L318.5682296846055,129.7064734885895L316.6404411978846,128.93171238549894L316.7607781114273,127.3949927697289L315.55652884071156,128.6436003706557L310.7085445885267,128.07129903762097L310.4466737026369,129.65865600504833L308.9491709694285,129.41267481414263M288.46265831690056,112.85740008131393L287.03897195804245,120.54207374133955L289.0897589041745,120.91228835023173L287.91637443293473,127.26088642626428L285.5843561288777,127.38512832086224L285.38772274106515,128.44219614799476L282.91361431947416,128.52643676099058L282.724276262421,129.58315783501803L280.7058462391328,129.15094582194354L274.32676550058466,127.92767884597777L270.9141237354761,127.76463481848043L270.28691395008553,125.6875098232374L271.9122644029153,125.81125257086421L272.47641915100746,121.81996237383123L274.0246417574969,121.56757383732474L273.8852999235424,120.13595037812593L271.4402920809537,117.47696736109197L270.6792498945313,115.70400410342461M299.1422104776928,137.04004855227618L295.4921626775,139.33512608825015L289.39633860233073,138.2291269740184L290.93165414115686,129.62679691627113L289.88103462541267,129.86258756595805L287.91637443293473,127.26088642626428M356.5463604125493,137.52057155722957L357.1475872842628,139.38943204796055L346.90037324803836,138.18451441612922M332.5696939379601,137.22754764453657L329.89016137454144,135.76131117512807L325.9073072743213,135.92205851251367L323.46830813612814,136.15416645904077L321.41063755344953,133.1053963585365M406.46491451280053,132.57738610114438L406.35927173246506,133.82242535685782L405.2767974871689,146.57978486985576L401.32026304890985,146.23759706462363L400.57302344196785,145.35964251153678L398.15080152951015,145.1421185301915L398.4880978536079,141.88570157630716M398.15080152951015,145.1421185301915L396.41439209962505,146.33344913451333L394.8040948268641,146.18700994270114L393.06339021690474,147.36691828258154L389.79548146957217,147.0456221994517L387.1582904646176,146.2258166743992L386.7356493434467,144.5558333051731L385.7019278497726,144.45378409124964L385.4920286926118,141.17402122270346L382.80309705658436,140.36565326773677L379.56651847285366,140.03026819636227M325.9073072743213,135.92205851251367L324.43160706098945,144.92897675414952L324.33029851454035,145.59808219840136L317.92449488937075,144.45690271269802L314.36238159940467,143.88382918155116L313.78112438791726,142.2538937688762L315.0391154563874,140.11941904794594L312.9609609328455,139.20794964918673L311.8072853672993,136.80983617731056L310.51728631504864,132.51544336643406M396.41439209962505,146.33344913451333L396.19161239594195,148.75120126056436L393.9699448333564,148.54545464076853L393.62720853899395,154.9773931517201L392.9366311655777,154.9154615859518L392.32422425515085,161.40738594047673L391.7701167777978,161.35398255453947L376.0842903700507,159.73614423339097L376.7843619710359,153.27628192835743L377.27984087699974,153.32548792397267L377.94003812768847,146.90848857293122L378.38670246669676,146.95430247867625L379.06994815218525,140.5188072834061L379.53837061605077,140.29450523724165M376.0842903700507,159.73614423339097L375.53484539476506,159.6829224890804L374.6448123390824,167.78499789638022L374.0660967099581,167.74955074416016L373.7224045524073,170.91487923890986L367.33636543684725,170.20891277909345L367.6974298900591,166.99400646485697L368.2003300575698,167.07233587515805L368.87618727468384,161.1110413035541L366.52093978793005,160.63281864456258L367.2962992701246,157.94929802378238L366.57981507907726,157.1454323530039L367.15074285909577,152.20697753707566L366.266947807503,152.152865787206L366.56259825663153,147.2850670073767L364.95618590238496,147.09473943918113L364.8742291855898,145.4572944706057L357.65352111798524,144.59374280555994L357.1396492198123,144.26274253992324L357.1475872842628,139.38943204796055M289.39633860233073,138.2291269740184L289.2508882498477,139.03183080076747L286.1090584644246,138.46442454703845L285.5853557912584,141.72472216970345L282.1679660082691,143.09695830625287L281.031322913149,142.70103662031192L280.32329632006383,140.93827642544693L278.84851411092995,140.61074819927433L279.75284151118444,139.36413592488464L279.16411197076866,137.54783301976238L280.3467268007482,136.47182874360806L279.567558568404,131.82304537182654L280.7058462391328,129.15094582194354M314.36238159940467,143.88382918155116L310.7172223996969,143.38693503057732L309.2726733649595,146.6577803100787L305.62298376421063,149.24839619801878L306.27899653686524,145.2746788106773L304.6950889119553,145.0000913785674L306.2479462417763,135.45627546596052M357.1396492198123,144.26274253992324L356.89855029457806,146.12281111379423L355.02224499920317,145.88654026579843L353.4162837844324,148.15232120048472L349.68122374510517,147.66617298369863L348.53576047369796,148.04226105103828L348.28481313780526,149.95405119988277L343.46403528097267,149.31461308685925L343.83357200767966,146.6522343068939L343.00142404137927,144.88207342696785L342.9763650028683,140.88607646972332L341.91719329018395,140.71667585305443L342.08378475519487,137.5086579955256M343.46403528097267,149.31461308685925L341.6096879110662,149.06737704687112L335.3000989079453,148.18643064165371L335.0468272517752,149.80321287025845L332.63662617520913,149.44206914876952L332.4692638723951,146.14006104011594L335.68987919099084,146.59958500244295L337.10448417670915,137.8823543132255M332.4692638723951,146.14006104011594L324.43160706098945,144.92897675414952M405.2767974871689,146.57978486985576L405.11863246677683,148.44381815867587L404.69880970174734,153.2817478255829L404.1801981419258,159.5036139122335L404.08954713282026,160.6824699221621L402.9214807205394,160.58079827920244L403.060058652867,158.96563589650555L399.7440439918968,158.65047886525883L399.8924239093758,157.07983701706473L398.26302059212253,156.94056736751202L398.40404007376503,155.42295651552456L393.62720853899395,154.9773931517201M282.1679660082691,143.09695830625287L282.1773239832835,143.12316199388067L281.82472370088203,144.1479876608655L279.5323510016921,144.43193470474625L275.93813471450665,146.5578279292647L270.82866246261045,149.6374293826541L269.8616655743002,149.8566053963142L268.62889767006095,147.62456394237404L267.40940015127353,147.52498249631117L268.64501329117576,145.65002996841338L268.1555776417961,143.56071034158458L269.2936135774796,142.33582636140352L270.43741607596945,142.52603915166253L270.86759772404935,140.21200153517373L269.8430409358724,138.99468681278654L270.6785026161931,137.91088262946175L271.62648928707813,134.7037544084368L273.69592836814843,130.48174077325427L274.32676550058466,127.92767884597777M305.62298376421063,149.24839619801878L303.6540308105693,149.59823601460675L302.2240287011794,148.23725370761258L299.92296644279304,148.13645789380882L298.55086361749613,149.6613831653209L296.10541639259765,147.66328554037432L295.8848793855335,140.99370987745044L294.9729163287534,140.89029193703755L295.4921626775,139.33512608825015M357.65352111798524,144.59374280555994L358.8714749012421,148.0062666416386L360.45867810723166,150.64827240649709L359.5746560067249,153.06168631419098L357.47102353765615,152.79674918028059L357.33859895162675,153.8693855795808L355.74642255447384,153.67177004754762L354.47115732133557,155.14171653112726L352.3314312201459,154.86486934087202L351.1459051280922,161.86406830560145L347.79457955009786,162.53829361647877L343.54382433848446,161.90906444590064L341.34654426216036,158.84455677476342L340.7182894123915,157.41400367013205L341.4646822637004,152.29548233296418L341.6096879110662,149.06737704687112M366.57981507907726,157.1454323530039L363.70681367210966,155.18150858933154L360.4963670589015,154.7959640558014L360.68976163666406,153.1948764435598L359.5746560067249,153.06168631419098M294.9729163287534,140.89029193703755L292.2722879114425,141.2269893689455L291.9859899468428,142.8319614525427L289.7489171622996,143.47602641028038L289.73873103036203,144.58574914936412L287.42093194601006,145.56666496124876L285.66662488002305,145.08150542429144L283.1290146118945,146.54631760092593L282.1773239832835,143.12316199388067M335.0468272517752,149.80321287025845L334.74716604907616,151.34806111162516L333.67272436222186,151.21505473667446L332.8939883973745,152.76545923195943L332.032681535499,157.57783985058893L327.0204573927714,158.48160033227919L326.53185198629836,161.69438689297033L324.8321742428476,161.4391914761727L324.33611266575065,164.70313789603472L322.19509241068204,164.3678765974871L323.9972001125792,153.07917562916498L323.0770168647431,152.93807128575668L324.33029851454035,145.59808219840136M317.92449488937075,144.45690271269802L316.0454091044054,155.5309843936417L314.25228086174997,156.47593462471968L313.7622450270715,159.6925628473016L312.1997392173631,159.44426853535674L311.09011438618825,165.88793193239917L309.9562597753676,172.05566967520497L309.46898684560904,175.62012859285926L307.4568148016436,173.35869766512656L307.68258599351185,172.52844891749317L305.99670477934353,169.79631799185347L307.85639849873576,158.75356048558865L308.1581522060678,158.80479540436227L309.0193734488026,153.43134564627314L306.6280146842992,153.03625970928613L305.35569150093613,150.91298913131504L303.6540308105693,149.59823601460675M324.33611266575065,164.70313789603472L327.78429958840064,165.30152159708655L327.32805093497177,168.3566816703766L315.48230315175124,166.75285043280735L311.09011438618825,165.88793193239917M298.55086361749613,149.6613831653209L295.04144864291743,149.1604075827613L291.7677734048099,150.81116272362544L291.23720827100055,148.38893993136355L287.42093194601006,145.56666496124876M404.08954713282026,160.6824699221621L403.09449592564886,173.1361391451494L402.51826806809623,177.1304897210823L389.6389242958944,175.91249949176722L390.2724732278033,169.36994118839675L390.93799620654784,169.4342477726815L391.7701167777978,161.35398255453947M341.34654426216036,158.84455677476342L337.58854604864734,158.79658845514825L336.45111992647185,160.93601261565516L334.31493643216857,160.63267580912589L331.3787361017326,162.12960711974233L330.5018565934184,163.92286723693576L329.43804589176307,163.76801635363768L329.17622701121707,165.50727306837712L327.78429958840064,165.30152159708655M373.7224045524073,170.91487923890986L373.55857284827596,174.39717696805656L351.9861529847625,171.72753712686483L347.56360749819794,171.1967924637445L349.6699820212074,167.3516421494288L342.21813045243334,166.3727596764527L342.9773419312868,162.41922238933876L343.54382433848446,161.90906444590064M291.7677734048099,150.81116272362544L291.2729937676016,153.51956493276793L293.50203386832,154.5760099668713L293.8283929411526,156.3944926935618L293.0007134779988,161.20877592961597L294.5979048108193,161.4880787520716L294.3074212144633,163.10634276267717L296.1662564703594,163.44079633549825L295.93032865830486,166.68782356036945L297.11433760904845,167.70517212270374L300.80984080340465,168.3801307557095L300.59092082398786,169.7151566320158L304.6255386512008,170.37642738457464L303.6391174480605,173.50012310961984L302.2450666411056,172.99154824117875L299.45160339657684,173.3113121394955L299.01599190955295,172.1948344733238L295.8944884109258,172.44418119987438L293.5288799313691,171.18523623256556L291.83592822558643,173.15930310115812L290.82284738555717,172.38717273503391L286.8085683684837,171.5847118071781L285.99496038987945,173.50639731787146L283.77462955842327,171.68960979633755L283.97774677646237,170.29858868418296L283.1813009705802,165.44268319643027L281.8658606203459,164.26940639162524L280.51457565776315,164.74014314941212L279.2867093056137,162.97783949256973L280.00278797348017,159.4336406741454L278.85470273876206,158.18806700169978L277.5946468220386,155.09974668812583L277.0191614644816,152.23257132898755L277.2968606453163,148.5954683656489L276.1111625521087,148.00155807535555L275.93813471450665,146.5578279292647M305.99670477934353,169.79631799185347L304.6255386512008,170.37642738457464M389.6389242958944,175.91249949176722L388.9747358505289,175.84694661151514L376.6882715225785,174.7365276721465L373.55857284827596,174.39717696805656M347.56360749819794,171.1967924637445L342.70349440392346,170.5430688080379L327.32805093497177,168.3566816703766" vector-effect="non-scaling-stroke"></path></svg>