<?xml version="1.0" standalone="yes"?>
<svg xmlns="http://www.w3.org/2000/svg" version="1.2" id="root" viewBox="685.3120704213582 308.9871974379614 130.53201904426192 57.66239483475056"><g id="counties"><path id="county-37009" class="county feature" d="M725.3880924285255,323.37254632459883L727.4576027240903,327.046004588545L724.5294499532517,329.8829124941153L720.3978992394772,327.63731006164346L720.5908548526162,323.85219204618045Z" style="fill: inherit; stroke: inherit; stroke-width: inherit;" vector-effect="non-scaling-stroke"><title>Ashe County</title></path><path id="county-37005" class="county feature" d="M732.0523588363059,322.56717247646384L731.5702014237811,325.7064568475861L730.7705943176535,326.3618035176455L729.5761507040938,325.2777223803391L727.4576027240903,327.046004588545L725.3880924285255,323.37254632459883Z" style="fill: inherit; stroke: inherit; stroke-width: inherit;" vector-effect="non-scaling-stroke"><title>Alleghany County</title></path><path id="county-37171" class="county feature" d="M736.3127880443651,321.9528520137293L738.8559362610287,321.6736542496724L739.569524884063,327.077552112175L739.6265746270983,327.4560613131006L738.1959712937895,326.90750547398875L733.4413736741803,328.5624306284203L733.23435646758,326.8676333347131L731.5702014237811,325.7064568475861L732.0523588363059,322.56717247646384L732.9975156290623,322.46568416866023Z" style="fill: inherit; stroke: inherit; stroke-width: inherit;" vector-effect="non-scaling-stroke"><title>Surry County</title></path><path id="county-37073" class="county feature" d="M795.8022650057543,311.06263590160734L796.6877551358344,311.6522191485684L797.7510862459038,313.9793966835492L796.3017682607141,314.7835551539763L794.7437676905756,316.09941046922927L793.1093582388908,315.21558500628794L790.5849754095126,314.93005349873033L790.3781095622242,312.30595858741447L790.3526358497174,312.15405785460814Z" style="fill: inherit; stroke: inherit; stroke-width: inherit;" vector-effect="non-scaling-stroke"><title>Gates County</title></path><path id="county-37053" class="county feature" d="M805.533436877965,314.4757387893534L804.2548983403235,313.2818089181425L802.7747565619654,313.315287967215L799.128739146844,310.37086232516776L801.9046697008514,309.78252200780105L803.1669923444617,309.51295922091015L804.3006845796622,311.96012249869693L806.4759051478652,313.9431944425303L808.5168636797096,317.58962282437426ZM805.2528584723193,309.0645286867765L805.6126749224002,308.9871974379614L808.244613408142,314.57609578983124L808.2098879853309,314.5929222327579L807.3244151665386,313.63730622008893ZM803.4854067265878,309.44606959935857L804.8308642663567,309.1571695689362L804.2160738392054,309.29198269391895L803.9548583101096,309.34578484185863Z" style="fill: inherit; stroke: inherit; stroke-width: inherit;" vector-effect="non-scaling-stroke"><title>Currituck County</title></path><path id="county-37169" class="county feature" d="M744.547259688296,320.87664334184444L744.9311931155183,320.81156111756945L745.7142780336993,326.13156581619944L739.569524884063,327.077552112175L738.8559362610287,321.6736542496724Z" style="fill: inherit; stroke: inherit; stroke-width: inherit;" vector-effect="non-scaling-stroke"><title>Stokes County</title></path><path id="county-37029" class="county feature" d="M795.8022650057543,311.06263590160734L796.533364042959,310.91063030882924L799.128739146844,310.37086232516776L802.7747565619654,313.315287967215L804.2548983403235,313.2818089181425L806.4976227428692,316.2386576534317L804.8574848429746,316.15680724477863L801.0199062277134,313.4166282639659L796.6877551358344,311.6522191485684Z" style="fill: inherit; stroke: inherit; stroke-width: inherit;" vector-effect="non-scaling-stroke"><title>Camden County</title></path><path id="county-37185" class="county feature" d="M776.038487635165,315.1339385444028L776.1998345915856,315.8299220821849L776.4350088659617,318.17923894954413L775.6903856697224,321.7641027037754L771.0634884604499,321.43000887065625L771.3539482544334,320.601422144662L769.8477634055041,316.3295497502007L773.9028610303372,315.553216849303Z" style="fill: inherit; stroke: inherit; stroke-width: inherit;" vector-effect="non-scaling-stroke"><title>Warren County</title></path><path id="county-37131" class="county feature" d="M787.2168344059772,318.6581942198235L786.2871827663078,320.3494837058066L784.7335635428724,319.7913152496519L783.5253227531094,317.9073276701349L782.0686596078606,318.5960775567261L781.5140481567145,316.49561095109846L779.9761951335056,315.591805513747L776.1998345915856,315.8299220821849L776.038487635165,315.1339385444028L777.9680786040085,314.7450873109925L784.826524616858,313.4067482776187L786.756841621783,312.9946922834614L787.6696554583705,314.2046045386685Z" style="fill: inherit; stroke: inherit; stroke-width: inherit;" vector-effect="non-scaling-stroke"><title>Northampton County</title></path><path id="county-37091" class="county feature" d="M790.3781095622242,312.30595858741447L790.5849754095126,314.93005349873033L792.9960461242971,315.3018713575799L794.3293370890306,317.27230008097945L787.2168344059772,318.6581942198235L787.6696554583705,314.2046045386685L786.756841621783,312.9946922834614Z" style="fill: inherit; stroke: inherit; stroke-width: inherit;" vector-effect="non-scaling-stroke"><title>Hertford County</title></path><path id="county-37145" class="county feature" d="M762.9529746039839,317.6502946456843L763.9062964097279,323.3354035853357L761.7086045713975,323.67393883345574L758.7202768425991,324.1538765002707L757.9504821990474,318.55548265176947Z" style="fill: inherit; stroke: inherit; stroke-width: inherit;" vector-effect="non-scaling-stroke"><title>Person County</title></path><path id="county-37181" class="county feature" d="M769.8477634055041,316.3295497502007L771.3539482544334,320.601422144662L771.0634884604499,321.43000887065625L769.7222774835209,323.6360968437277L768.5931325786115,323.6346971173034L767.4196484351015,318.5013590551026L767.9076277941077,316.7210042851234Z" style="fill: inherit; stroke: inherit; stroke-width: inherit;" vector-effect="non-scaling-stroke"><title>Vance County</title></path><path id="county-37077" class="county feature" d="M768.5931325786115,323.6346971173034L768.3924054087724,326.60502377147645L765.2464083479992,326.24587629626467L764.3474775957001,325.9556216148816L763.9062964097279,323.3354035853357L762.9529746039839,317.6502946456843L763.8596055548031,317.4778865240711L767.9076277941077,316.7210042851234L767.4196484351015,318.5013590551026Z" style="fill: inherit; stroke: inherit; stroke-width: inherit;" vector-effect="non-scaling-stroke"><title>Granville County</title></path><path id="county-37157" class="county feature" d="M749.5124306795853,320.0368469576307L752.5067354404764,319.53903487769435L753.140995598912,325.01945553118264L753.1591118377141,325.15402960163897L745.7142780336993,326.13156581619944L744.9311931155183,320.81156111756945Z" style="fill: inherit; stroke: inherit; stroke-width: inherit;" vector-effect="non-scaling-stroke"><title>Rockingham County</title></path><path id="county-37033" class="county feature" d="M757.9504821990474,318.55548265176947L758.7202768425991,324.1538765002707L757.1963322678196,324.3941161385527L753.140995598912,325.01945553118264L752.5067354404764,319.53903487769435L753.0950349231309,319.434775477813L754.963485824592,319.0949255462972L756.7745878101393,318.76785910321576Z" style="fill: inherit; stroke: inherit; stroke-width: inherit;" vector-effect="non-scaling-stroke"><title>Caswell County</title></path><path id="county-37083" class="county feature" d="M786.2871827663078,320.3494837058066L787.2736444878492,321.5370629219808L786.1156302204296,322.1789846192654L785.2618298418607,323.6966485154592L783.336023046917,323.4547628659998L783.0316478794255,322.4920738388595L780.3889858931973,321.8098074488073L777.6523300018741,322.51384233805425L775.6903856697224,321.7641027037754L776.4350088659617,318.17923894954413L776.1998345915856,315.8299220821849L779.9761951335056,315.591805513747L781.5140481567145,316.49561095109846L782.0686596078606,318.5960775567261L783.5253227531094,317.9073276701349L784.7335635428724,319.7913152496519Z" style="fill: inherit; stroke: inherit; stroke-width: inherit;" vector-effect="non-scaling-stroke"><title>Halifax County</title></path><path id="county-37139" class="county feature" d="M801.0199062277134,313.4166282639659L801.5022171010813,314.7429904561268L804.3848354838178,316.9480832480157L802.9442530101873,317.78085328062036L800.8156182702661,316.4441061865358L799.3581946224128,315.9410239452552L797.7510862459038,313.9793966835492L796.6877551358344,311.6522191485684Z" style="fill: inherit; stroke: inherit; stroke-width: inherit;" vector-effect="non-scaling-stroke"><title>Pasquotank County</title></path><path id="county-37193" class="county feature" d="M731.5702014237811,325.7064568475861L733.23435646758,326.8676333347131L733.4413736741803,328.5624306284203L733.8531472979942,331.9408611137443L731.7088985186949,332.4738378720617L727.4280758604639,334.0897383573333L723.8746016878109,332.3273496524579L724.5294499532517,329.8829124941153L727.4576027240903,327.046004588545L729.5761507040938,325.2777223803391L730.7705943176535,326.3618035176455Z" style="fill: inherit; stroke: inherit; stroke-width: inherit;" vector-effect="non-scaling-stroke"><title>Wilkes County</title></path><path id="county-37189" class="county feature" d="M724.5294499532517,329.8829124941153L723.8746016878109,332.3273496524579L719.9770746206557,333.0328358950643L718.2328205152935,331.30601495848225L717.8972897715207,330.00164887668427L720.3978992394772,327.63731006164346Z" style="fill: inherit; stroke: inherit; stroke-width: inherit;" vector-effect="non-scaling-stroke"><title>Watauga County</title></path><path id="county-37143" class="county feature" d="M800.8156182702661,316.4441061865358L802.6101260698958,318.19722181567886L801.7505783528413,318.43769269798906L798.4233038485982,317.28052821738333L801.0194062786052,318.76751853972326L798.3418825383847,319.4921846100194L797.0312426849437,319.277411204724L796.3017682607141,314.7835551539763L797.7510862459038,313.9793966835492L799.3581946224128,315.9410239452552Z" style="fill: inherit; stroke: inherit; stroke-width: inherit;" vector-effect="non-scaling-stroke"><title>Perquimans County</title></path><path id="county-37041" class="county feature" d="M798.3418825383847,319.4921846100194L799.591538392308,319.5686174253525L798.3017068246438,321.0124484322083L795.4628458421287,320.43894325157976L794.7143616171144,319.01143152630607L794.7437676905756,316.09941046922927L796.3017682607141,314.7835551539763L797.0312426849437,319.277411204724Z" style="fill: inherit; stroke: inherit; stroke-width: inherit;" vector-effect="non-scaling-stroke"><title>Chowan County</title></path><path id="county-37197" class="county feature" d="M739.6265746270983,327.4560613131006L740.1472231090974,329.35893522748347L739.5668367980174,331.18266709038585L736.6609175113467,331.5788486773022L733.8531472979942,331.9408611137443L733.4413736741803,328.5624306284203L738.1959712937895,326.90750547398875Z" style="fill: inherit; stroke: inherit; stroke-width: inherit;" vector-effect="non-scaling-stroke"><title>Yadkin County</title></path><path id="county-37011" class="county feature" d="M719.9770746206557,333.0328358950643L721.1931336024847,333.7187474511893L720.4385577570854,335.811722981236L718.4306323682615,336.16045623814966L717.9945343023779,337.13934919916187L717.1330139301692,336.68271411994886L716.0038717090197,333.7813189366617L717.7396666923025,330.43262577793416L717.8972897715207,330.00164887668427L718.2328205152935,331.30601495848225Z" style="fill: inherit; stroke: inherit; stroke-width: inherit;" vector-effect="non-scaling-stroke"><title>Avery County</title></path><path id="county-37069" class="county feature" d="M775.6903856697224,321.7641027037754L773.3935348444409,329.5821609348217L772.3958904771564,328.3301433415602L768.3924054087724,326.60502377147645L768.5931325786115,323.6346971173034L769.7222774835209,323.6360968437277L771.0634884604499,321.43000887065625Z" style="fill: inherit; stroke: inherit; stroke-width: inherit;" vector-effect="non-scaling-stroke"><title>Franklin County</title></path><path id="county-37067" class="county feature" d="M745.7142780336993,326.13156581619944L746.3752232096588,330.7362650267752L741.2981632625285,332.30258418018593L739.5668367980174,331.18266709038585L740.1472231090974,329.35893522748347L739.6265746270983,327.4560613131006L739.569524884063,327.077552112175Z" style="fill: inherit; stroke: inherit; stroke-width: inherit;" vector-effect="non-scaling-stroke"><title>Forsyth County</title></path><path id="county-37081" class="county feature" d="M753.1591118377141,325.15402960163897L754.1264850971787,331.5239002625689L746.6057294732966,332.4181813524315L746.3752232096588,330.7362650267752L745.7142780336993,326.13156581619944Z" style="fill: inherit; stroke: inherit; stroke-width: inherit;" vector-effect="non-scaling-stroke"><title>Guilford County</title></path><path id="county-37001" class="county feature" d="M757.1963322678196,324.3941161385527L758.52547723175,331.1853996977569L758.8074278990824,331.7552214859418L754.3036299187955,332.56790637962604L754.1264850971787,331.5239002625689L753.1591118377141,325.15402960163897L753.140995598912,325.01945553118264Z" style="fill: inherit; stroke: inherit; stroke-width: inherit;" vector-effect="non-scaling-stroke"><title>Alamance County</title></path><path id="county-37015" class="county feature" d="M794.3293370890306,317.27230008097945L794.2076239091039,319.0762780324525L795.8742140140469,321.8499572196414L795.8408867885087,323.12717822325374L795.2147403579493,324.38346163818926L794.0491933195439,324.24502055523647L793.2694174224413,325.56647538454L792.4689167138602,324.2510150233094L791.645779078501,325.22790868947595L790.5811348946238,323.87226932432645L788.5069148698078,324.304095845254L788.1466835281478,323.1083319892683L786.1156302204296,322.1789846192654L787.2736444878492,321.5370629219808L786.2871827663078,320.3494837058066L787.2168344059772,318.6581942198235Z" style="fill: inherit; stroke: inherit; stroke-width: inherit;" vector-effect="non-scaling-stroke"><title>Bertie County</title></path><path id="county-37135" class="county feature" d="M758.7202768425991,324.1538765002707L761.7086045713975,323.67393883345574L762.0032625038126,330.8197992387053L758.52547723175,331.1853996977569L757.1963322678196,324.3941161385527Z" style="fill: inherit; stroke: inherit; stroke-width: inherit;" vector-effect="non-scaling-stroke"><title>Orange County</title></path><path id="county-37063" class="county feature" d="M763.9062964097279,323.3354035853357L764.3474775957001,325.9556216148816L765.2464083479992,326.24587629626467L766.1919504134048,327.2610491908241L764.7169321911076,330.2487425730087L763.6188222833471,330.43752323809235L762.0032625038126,330.8197992387053L761.7086045713975,323.67393883345574Z" style="fill: inherit; stroke: inherit; stroke-width: inherit;" vector-effect="non-scaling-stroke"><title>Durham County</title></path><path id="county-37055" class="county feature" d="M814.7393361444014,323.96258465324775L815.3926335901524,325.35292329649633L815.8440894656201,332.39649814522124L812.7449623260234,333.73138843051106L812.6974558336349,333.6402089924867L815.7993690733601,331.4812689969857L815.3359214060642,325.59852904643583ZM808.9197795319708,325.854464022672L806.9586515676341,325.69265650327486L806.483585599967,321.5594423320948L808.9096762382098,320.35309245217354L809.9877588606007,320.91046570151843L811.2343962058726,325.6255238584073L809.6157855281945,326.753587246508ZM808.2098879853309,314.5929222327579L808.244613408142,314.57609578983124L812.7010276735391,320.7237508796162L809.5191269597299,317.95719913558685Z" style="fill: inherit; stroke: inherit; stroke-width: inherit;" vector-effect="non-scaling-stroke"><title>Dare County</title></path><path id="county-37127" class="county feature" d="M775.6903856697224,321.7641027037754L777.6523300018741,322.51384233805425L780.3889858931973,321.8098074488073L779.5076317277624,327.4709280979662L774.627745529936,331.0320250733872L773.3935348444409,329.5821609348217Z" style="fill: inherit; stroke: inherit; stroke-width: inherit;" vector-effect="non-scaling-stroke"><title>Nash County</title></path><path id="county-37121" class="county feature" d="M716.0038717090197,333.7813189366617L717.1330139301692,336.68271411994886L717.9945343023779,337.13934919916187L715.9875710147082,339.09574373789803L714.4969487793846,335.71363412519304L711.1109809416089,335.0774326094173L713.760780906223,333.088174597774Z" style="fill: inherit; stroke: inherit; stroke-width: inherit;" vector-effect="non-scaling-stroke"><title>Mitchell County</title></path><path id="county-37065" class="county feature" d="M785.2618298418607,323.6966485154592L786.5120688631629,325.3558570359395L786.7137526959564,326.9775291539098L786.0740303826672,326.85272369050153L782.6445625061335,330.5022311149361L780.7800016539124,327.97998744481765L779.5076317277624,327.4709280979662L780.3889858931973,321.8098074488073L783.0316478794255,322.4920738388595L783.336023046917,323.4547628659998Z" style="fill: inherit; stroke: inherit; stroke-width: inherit;" vector-effect="non-scaling-stroke"><title>Edgecombe County</title></path><path id="county-37027" class="county feature" d="M723.8746016878109,332.3273496524579L727.4280758604639,334.0897383573333L727.9219356570263,337.82419254600165L727.5626790867384,338.42501563866165L724.6859836307167,338.68829734315614L720.4385577570854,335.811722981236L721.1931336024847,333.7187474511893L719.9770746206557,333.0328358950643Z" style="fill: inherit; stroke: inherit; stroke-width: inherit;" vector-effect="non-scaling-stroke"><title>Caldwell County</title></path><path id="county-37199" class="county feature" d="M715.9875710147082,339.09574373789803L714.202764229333,341.642112450803L712.838840152936,339.8238511164626L711.9117472708189,339.81035675569717L710.0519929909401,337.0386411465123L711.1109809416089,335.0774326094173L714.4969487793846,335.71363412519304Z" style="fill: inherit; stroke: inherit; stroke-width: inherit;" vector-effect="non-scaling-stroke"><title>Yancey County</title></path><path id="county-37183" class="county feature" d="M768.3924054087724,326.60502377147645L772.3958904771564,328.3301433415602L773.3935348444409,329.5821609348217L770.6769931794279,332.20056175048956L767.7203509747881,336.370883647759L764.4685348871394,335.74518407885466L763.1688451052391,335.450017179733L763.6188222833471,330.43752323809235L764.7169321911076,330.2487425730087L766.1919504134048,327.2610491908241L765.2464083479992,326.24587629626467Z" style="fill: inherit; stroke: inherit; stroke-width: inherit;" vector-effect="non-scaling-stroke"><title>Wake County</title></path><path id="county-37117" class="county feature" d="M795.2147403579493,324.38346163818926L794.5769630812922,327.5808914102863L792.6808174395611,328.8696589029786L789.6313978288899,328.0484639119611L786.7137526959564,326.9775291539098L786.5120688631629,325.3558570359395L785.2618298418607,323.6966485154592L786.1156302204296,322.1789846192654L788.1466835281478,323.1083319892683L788.5069148698078,324.304095845254L790.5811348946238,323.87226932432645L791.645779078501,325.22790868947595L792.4689167138602,324.2510150233094L793.2694174224413,325.56647538454L794.0491933195439,324.24502055523647Z" style="fill: inherit; stroke: inherit; stroke-width: inherit;" vector-effect="non-scaling-stroke"><title>Martin County</title></path><path id="county-37115" class="county feature" d="M708.4399964927113,336.08400193685634L708.51464484302,337.45182418514696L710.0519929909401,337.0386411465123L711.9117472708189,339.81035675569717L710.3888692563154,340.3089745864198L706.3585049547196,343.11320070169427L705.2088272421174,343.4246063443975L703.7684085035808,341.4739381255797L704.308622988975,338.4670825165348L705.5139388322474,338.73991368993416L705.8670343182681,337.42095467118077L707.866490725074,335.67239781855574Z" style="fill: inherit; stroke: inherit; stroke-width: inherit;" vector-effect="non-scaling-stroke"><title>Madison County</title></path><path id="county-37059" class="county feature" d="M741.2981632625285,332.30258418018593L741.9786651880886,333.6777359911464L740.625914148897,335.26315083272254L741.0380144623133,336.70233275120415L738.1791532360444,335.24994219638836L737.0408094515075,335.29362253883255L736.6609175113467,331.5788486773022L739.5668367980174,331.18266709038585Z" style="fill: inherit; stroke: inherit; stroke-width: inherit;" vector-effect="non-scaling-stroke"><title>Davie County</title></path><path id="county-37097" class="county feature" d="M733.8531472979942,331.9408611137443L736.6609175113467,331.5788486773022L737.0408094515075,335.29362253883255L736.6309026177747,338.76354230845004L737.6465937707751,341.79412385081866L736.9299026233331,341.93566083388816L734.580972434064,342.65934744007154L734.2105127137643,341.5736438825377L734.5021400513675,340.11153220694143L731.2544081598598,337.61644306802873L732.3198322793147,334.0241159580937L731.7088985186949,332.4738378720617Z" style="fill: inherit; stroke: inherit; stroke-width: inherit;" vector-effect="non-scaling-stroke"><title>Iredell County</title></path><path id="county-37003" class="county feature" d="M731.2544081598598,337.61644306802873L730.694728641719,336.7998252749262L727.9219356570263,337.82419254600165L727.4280758604639,334.0897383573333L731.7088985186949,332.4738378720617L732.3198322793147,334.0241159580937Z" style="fill: inherit; stroke: inherit; stroke-width: inherit;" vector-effect="non-scaling-stroke"><title>Alexander County</title></path><path id="county-37057" class="county feature" d="M746.3752232096588,330.7362650267752L746.6057294732966,332.4181813524315L747.6136695704699,340.1794351728281L745.8949894204254,340.4928141857065L745.2891142982664,339.16899135954407L742.9353910764701,336.83950771757895L741.0380144623133,336.70233275120415L740.625914148897,335.26315083272254L741.9786651880886,333.6777359911464L741.2981632625285,332.30258418018593Z" style="fill: inherit; stroke: inherit; stroke-width: inherit;" vector-effect="non-scaling-stroke"><title>Davidson County</title></path><path id="county-37023" class="county feature" d="M720.4385577570854,335.811722981236L724.6859836307167,338.68829734315614L727.5626790867384,338.42501563866165L725.6011782794815,342.5223241746397L725.5603459250233,342.61255293827264L723.2205328138523,342.68170701296026L721.2728104515633,343.06379756309354L720.1959071902254,340.47001634697256L718.2132905686784,339.0882480024658L719.1835636494945,337.489333369361L718.4306323682615,336.16045623814966Z" style="fill: inherit; stroke: inherit; stroke-width: inherit;" vector-effect="non-scaling-stroke"><title>Burke County</title></path><path id="county-37177" class="county feature" d="M804.6640183365549,325.6672722636779L804.2796756245746,327.63257344744466L803.0052426699081,327.6881064578131L803.1085751603403,326.1085798088943L801.2262785488682,326.3589428550989L800.7332979509929,321.9548388754871L803.3925775297237,320.1831475351079L805.0020821108023,319.92420336753617L806.4539205110019,325.44737646763656Z" style="fill: inherit; stroke: inherit; stroke-width: inherit;" vector-effect="non-scaling-stroke"><title>Tyrrell County</title></path><path id="county-37187" class="county feature" d="M800.7332979509929,321.9548388754871L801.2262785488682,326.3589428550989L797.6264324040344,326.9585211832665L794.5769630812922,327.5808914102863L795.2147403579493,324.38346163818926L795.8408867885087,323.12717822325374L800.0731425331093,321.1104281879718Z" style="fill: inherit; stroke: inherit; stroke-width: inherit;" vector-effect="non-scaling-stroke"><title>Washington County</title></path><path id="county-37111" class="county feature" d="M721.2728104515633,343.06379756309354L719.1890516655259,344.3331261503772L716.2596091931275,344.7031252036654L714.2792100311201,343.7820282090671L714.202764229333,341.642112450803L715.9875710147082,339.09574373789803L717.9945343023779,337.13934919916187L718.4306323682615,336.16045623814966L719.1835636494945,337.489333369361L718.2132905686784,339.0882480024658L720.1959071902254,340.47001634697256Z" style="fill: inherit; stroke: inherit; stroke-width: inherit;" vector-effect="non-scaling-stroke"><title>McDowell County</title></path><path id="county-37151" class="county feature" d="M754.1264850971787,331.5239002625689L754.3036299187955,332.56790637962604L755.1729957913221,338.69954306638544L752.0142869560487,339.3157185277629L747.6136695704699,340.1794351728281L746.6057294732966,332.4181813524315Z" style="fill: inherit; stroke: inherit; stroke-width: inherit;" vector-effect="non-scaling-stroke"><title>Randolph County</title></path><path id="county-37037" class="county feature" d="M762.0032625038126,330.8197992387053L763.6188222833471,330.43752323809235L763.1688451052391,335.450017179733L764.4685348871394,335.74518407885466L763.8395767061736,337.0319689561114L761.2977205406014,335.4498250613832L758.2153189416955,338.1099916580197L755.1729957913221,338.69954306638544L754.3036299187955,332.56790637962604L758.8074278990824,331.7552214859418L758.52547723175,331.1853996977569Z" style="fill: inherit; stroke: inherit; stroke-width: inherit;" vector-effect="non-scaling-stroke"><title>Chatham County</title></path><path id="county-37195" class="county feature" d="M782.6445625061335,330.5022311149361L782.1636230878182,331.0808102655078L780.6309172306528,332.9046208696409L777.0203384278374,333.35566611052366L776.0606404387365,333.1965380637597L774.627745529936,331.0320250733872L779.5076317277624,327.4709280979662L780.7800016539124,327.97998744481765Z" style="fill: inherit; stroke: inherit; stroke-width: inherit;" vector-effect="non-scaling-stroke"><title>Wilson County</title></path><path id="county-37159" class="county feature" d="M741.0380144623133,336.70233275120415L742.9353910764701,336.83950771757895L745.2891142982664,339.16899135954407L745.8949894204254,340.4928141857065L744.2297469484902,340.7982010478728L737.6465937707751,341.79412385081866L736.6309026177747,338.76354230845004L737.0408094515075,335.29362253883255L738.1791532360444,335.24994219638836Z" style="fill: inherit; stroke: inherit; stroke-width: inherit;" vector-effect="non-scaling-stroke"><title>Rowan County</title></path><path id="county-37147" class="county feature" d="M786.7137526959564,326.9775291539098L789.6313978288899,328.0484639119611L789.9933298074307,329.85171780611313L791.5222499327883,331.0153781354991L791.4197985903727,331.1909056603346L790.3935372491491,332.01053818436253L790.5523906600235,333.9027697862192L789.7487908650448,335.35267868699964L787.8728434875684,335.94998248806894L786.2966043253527,334.5978434328216L785.5605981183248,332.9913978675181L782.1636230878182,331.0808102655078L782.6445625061335,330.5022311149361L786.0740303826672,326.85272369050153Z" style="fill: inherit; stroke: inherit; stroke-width: inherit;" vector-effect="non-scaling-stroke"><title>Pitt County</title></path><path id="county-37035" class="county feature" d="M731.2544081598598,337.61644306802873L734.5021400513675,340.11153220694143L734.2105127137643,341.5736438825377L725.6011782794815,342.5223241746397L727.5626790867384,338.42501563866165L727.9219356570263,337.82419254600165L730.694728641719,336.7998252749262Z" style="fill: inherit; stroke: inherit; stroke-width: inherit;" vector-effect="non-scaling-stroke"><title>Catawba County</title></path><path id="county-37021" class="county feature" d="M714.202764229333,341.642112450803L714.2792100311201,343.7820282090671L716.2596091931275,344.7031252036654L714.9840191653788,346.0370258680423L707.9497962938385,347.8900451197079L707.0058795465623,347.1209130176562L707.2632048043488,345.25350947535037L705.2088272421174,343.4246063443975L706.3585049547196,343.11320070169427L710.3888692563154,340.3089745864198L711.9117472708189,339.81035675569717L712.838840152936,339.8238511164626Z" style="fill: inherit; stroke: inherit; stroke-width: inherit;" vector-effect="non-scaling-stroke"><title>Buncombe County</title></path><path id="county-37101" class="county feature" d="M774.627745529936,331.0320250733872L776.0606404387365,333.1965380637597L777.0203384278374,333.35566611052366L776.2782406779615,336.71465107173515L776.53622729124,337.9563743268616L774.5183440211513,339.56888283600824L771.8120826281822,340.50108332581146L770.8996727070994,339.6888799609882L768.5109691023265,336.6626144211191L767.7203509747881,336.370883647759L770.6769931794279,332.20056175048956L773.3935348444409,329.5821609348217Z" style="fill: inherit; stroke: inherit; stroke-width: inherit;" vector-effect="non-scaling-stroke"><title>Johnston County</title></path><path id="county-37087" class="county feature" d="M705.2088272421174,343.4246063443975L707.2632048043488,345.25350947535037L707.0058795465623,347.1209130176562L707.9497962938385,347.8900451197079L706.9246266332375,350.0250809677134L705.6616025942698,350.7063257654272L701.13221798579,347.0920491671767L701.4708378454524,346.29123741422154L699.6571759850101,343.8433698184904L699.5899827443187,343.4663411306926L702.0318785119114,341.7391450765458L703.7684085035808,341.4739381255797Z" style="fill: inherit; stroke: inherit; stroke-width: inherit;" vector-effect="non-scaling-stroke"><title>Haywood County</title></path><path id="county-37013" class="county feature" d="M791.4197985903727,331.1909056603346L793.8231606471198,332.9506735121754L799.2419255346166,333.62663940012453L799.6273434663119,334.79421301535126L799.4977564456626,335.61459312831767L796.4172596866501,336.61531598953195L795.5317552319881,336.0761619330484L790.5523906600235,333.9027697862192L790.3935372491491,332.01053818436253ZM794.5769630812922,327.5808914102863L797.6264324040344,326.9585211832665L798.6210094271005,328.4097314101057L800.2465933741137,328.98503609104455L798.3660481043448,330.5120342431337L799.7643843584926,332.59560491058244L793.4448549690817,332.0659986164154L791.5222499327883,331.0153781354991L789.9933298074307,329.85171780611313L789.6313978288899,328.0484639119611L792.6808174395611,328.8696589029786Z" style="fill: inherit; stroke: inherit; stroke-width: inherit;" vector-effect="non-scaling-stroke"><title>Beaufort County</title></path><path id="county-37095" class="county feature" d="M812.6974558336349,333.6402089924867L812.7449623260234,333.73138843051106L812.6974558336349,333.6402089924867ZM801.2262785488682,326.3589428550989L803.1085751603403,326.1085798088943L803.0052426699081,327.6881064578131L804.2796756245746,327.63257344744466L804.6640183365549,325.6672722636779L806.9586515676341,325.69265650327486L808.9197795319708,325.854464022672L809.275439418785,326.99553016091306L807.7088384122466,330.5042961395858L806.2373658382742,332.25835149787406L804.6654096224604,332.36926246814835L802.3363275345237,331.2938882875544L801.381596214256,332.576791307838L799.1362494226281,330.41781705835854L800.568708819663,330.26712118279636L800.2465933741137,328.98503609104455L798.6210094271005,328.4097314101057L797.6264324040344,326.9585211832665Z" style="fill: inherit; stroke: inherit; stroke-width: inherit;" vector-effect="non-scaling-stroke"><title>Hyde County</title></path><path id="county-37173" class="county feature" d="M701.13221798579,347.0920491671767L698.7776961889845,348.29169738517464L699.2978247902628,350.82880915060844L694.328707298301,352.4635049704582L695.3621656009603,349.37764135156715L689.803572686737,349.6081136441512L692.2647106924439,347.37473130856154L693.875158756305,347.0194921552304L696.3495649373215,346.8117035469071L699.6571759850101,343.8433698184904L701.4708378454524,346.29123741422154Z" style="fill: inherit; stroke: inherit; stroke-width: inherit;" vector-effect="non-scaling-stroke"><title>Swain County</title></path><path id="county-37079" class="county feature" d="M786.2966043253527,334.5978434328216L783.5407208167189,336.64348396569017L781.6236618171171,336.6070296667716L780.6309172306528,332.9046208696409L782.1636230878182,331.0808102655078L785.5605981183248,332.9913978675181Z" style="fill: inherit; stroke: inherit; stroke-width: inherit;" vector-effect="non-scaling-stroke"><title>Greene County</title></path><path id="county-37105" class="county feature" d="M763.8395767061736,337.0319689561114L761.3841632752735,341.5777784156428L759.8926342739406,340.96382621943394L758.2153189416955,338.1099916580197L761.2977205406014,335.4498250613832Z" style="fill: inherit; stroke: inherit; stroke-width: inherit;" vector-effect="non-scaling-stroke"><title>Lee County</title></path><path id="county-37161" class="county feature" d="M723.2205328138523,342.68170701296026L723.6933835541207,346.84687730196094L723.2150681859142,350.2873231766798L721.6150623640752,350.45822153025415L720.1881792860627,350.6107756722288L719.9990137741537,349.3018212466309L716.8453739613127,346.9075013477442L715.2569964658583,347.4239799286462L714.9840191653788,346.0370258680423L716.2596091931275,344.7031252036654L719.1890516655259,344.3331261503772L721.2728104515633,343.06379756309354Z" style="fill: inherit; stroke: inherit; stroke-width: inherit;" vector-effect="non-scaling-stroke"><title>Rutherford County</title></path><path id="county-37191" class="county feature" d="M780.6309172306528,332.9046208696409L781.6236618171171,336.6070296667716L781.8849936027921,340.2392211717729L781.112930908707,340.96855818386655L778.7124973140768,340.5660762492606L776.9529660267599,340.9641914441045L774.5183440211513,339.56888283600824L776.53622729124,337.9563743268616L776.2782406779615,336.71465107173515L777.0203384278374,333.35566611052366Z" style="fill: inherit; stroke: inherit; stroke-width: inherit;" vector-effect="non-scaling-stroke"><title>Wayne County</title></path><path id="county-37085" class="county feature" d="M767.7203509747881,336.370883647759L768.5109691023265,336.6626144211191L770.8996727070994,339.6888799609882L770.0130044421021,341.184997870306L766.8655024469961,341.5002004455589L763.0640394284238,343.47560312741655L760.926009481994,342.40589390439516L761.3841632752735,341.5777784156428L763.8395767061736,337.0319689561114L764.4685348871394,335.74518407885466Z" style="fill: inherit; stroke: inherit; stroke-width: inherit;" vector-effect="non-scaling-stroke"><title>Harnett County</title></path><path id="county-37045" class="county feature" d="M725.5603459250233,342.61255293827264L727.1887011913767,345.12281955801654L729.6946638333434,347.77390026841954L729.8463612383963,349.59565703009594L729.2679390199919,349.65892083642336L723.2150681859142,350.2873231766798L723.6933835541207,346.84687730196094L723.2205328138523,342.68170701296026Z" style="fill: inherit; stroke: inherit; stroke-width: inherit;" vector-effect="non-scaling-stroke"><title>Cleveland County</title></path><path id="county-37109" class="county feature" d="M734.2105127137643,341.5736438825377L734.580972434064,342.65934744007154L734.7113692207759,344.2998574578479L727.1887011913767,345.12281955801654L725.5603459250233,342.61255293827264L725.6011782794815,342.5223241746397Z" style="fill: inherit; stroke: inherit; stroke-width: inherit;" vector-effect="non-scaling-stroke"><title>Lincoln County</title></path><path id="county-37099" class="county feature" d="M701.13221798579,347.0920491671767L705.6616025942698,350.7063257654272L705.1342100457473,353.83140357140417L704.2397018473337,355.43009880340423L705.0286592878814,355.8160604195168L703.6038052760537,356.5239132694469L703.5988215902555,356.5276566993223L699.2978247902628,350.82880915060844L698.7776961889845,348.29169738517464Z" style="fill: inherit; stroke: inherit; stroke-width: inherit;" vector-effect="non-scaling-stroke"><title>Jackson County</title></path><path id="county-37119" class="county feature" d="M736.9299026233331,341.93566083388816L739.4242273310383,346.08435332076954L741.3396076745946,346.9023520666001L737.6418066524307,351.46794863841546L736.423366912039,350.2289661648738L734.4897081516038,351.12636546078625L734.302959519575,349.1870022655646L734.7113692207759,344.2998574578479L734.580972434064,342.65934744007154Z" style="fill: inherit; stroke: inherit; stroke-width: inherit;" vector-effect="non-scaling-stroke"><title>Mecklenburg County</title></path><path id="county-37125" class="county feature" d="M758.2153189416955,338.1099916580197L759.8926342739406,340.96382621943394L761.3841632752735,341.5777784156428L760.926009481994,342.40589390439516L763.0640394284238,343.47560312741655L763.0979946317442,343.818017334773L761.0147677132662,343.49091371613656L759.6041922462831,344.67889294991323L758.1452856602006,347.2049317153793L756.3990006779237,347.0733178017474L755.4402328600128,345.37225322028974L753.9107419426787,343.95870333673156L752.0142869560487,339.3157185277629L755.1729957913221,338.69954306638544Z" style="fill: inherit; stroke: inherit; stroke-width: inherit;" vector-effect="non-scaling-stroke"><title>Moore County</title></path><path id="county-37123" class="county feature" d="M752.0142869560487,339.3157185277629L753.9107419426787,343.95870333673156L755.4402328600128,345.37225322028974L751.8334860396734,345.6177740876418L748.624673424736,346.9352223298471L748.0120772919266,345.20080855732283L748.2690161987616,342.62333388354705L745.8949894204254,340.4928141857065L747.6136695704699,340.1794351728281Z" style="fill: inherit; stroke: inherit; stroke-width: inherit;" vector-effect="non-scaling-stroke"><title>Montgomery County</title></path><path id="county-37025" class="county feature" d="M744.2297469484902,340.7982010478728L742.0781780103637,347.24453880926205L741.3396076745946,346.9023520666001L739.4242273310383,346.08435332076954L736.9299026233331,341.93566083388816L737.6465937707751,341.79412385081866Z" style="fill: inherit; stroke: inherit; stroke-width: inherit;" vector-effect="non-scaling-stroke"><title>Cabarrus County</title></path><path id="county-37167" class="county feature" d="M745.8949894204254,340.4928141857065L748.2690161987616,342.62333388354705L748.0120772919266,345.20080855732283L748.624673424736,346.9352223298471L745.4483733657454,346.45525829588337L744.3209236003424,347.22358755001596L742.0781780103637,347.24453880926205L744.2297469484902,340.7982010478728Z" style="fill: inherit; stroke: inherit; stroke-width: inherit;" vector-effect="non-scaling-stroke"><title>Stanly County</title></path><path id="county-37089" class="county feature" d="M714.9840191653788,346.0370258680423L715.2569964658583,347.4239799286462L714.286110105246,349.716367050484L714.4238838190021,351.3895825658691L711.2178789224432,352.7212002865291L710.1412482684979,349.84880427450344L707.9497962938385,347.8900451197079Z" style="fill: inherit; stroke: inherit; stroke-width: inherit;" vector-effect="non-scaling-stroke"><title>Henderson County</title></path><path id="county-37075" class="county feature" d="M694.328707298301,352.4635049704582L694.059795393413,353.0873375262199L691.9122720031203,353.2355397005032L690.3076960140096,354.1652153034785L689.0643028678139,352.9022073923596L688.9119410928121,350.7936318195307L689.6778049348595,349.56292054944333L689.803572686737,349.6081136441512L695.3621656009603,349.37764135156715Z" style="fill: inherit; stroke: inherit; stroke-width: inherit;" vector-effect="non-scaling-stroke"><title>Graham County</title></path><path id="county-37107" class="county feature" d="M787.8728434875684,335.94998248806894L787.0509594513326,338.2510451527087L785.7260668002872,341.5373107741541L784.043064337359,343.08246800271513L782.9721683670814,340.65203426178425L781.8849936027921,340.2392211717729L781.6236618171171,336.6070296667716L783.5407208167189,336.64348396569017L786.2966043253527,334.5978434328216Z" style="fill: inherit; stroke: inherit; stroke-width: inherit;" vector-effect="non-scaling-stroke"><title>Lenoir County</title></path><path id="county-37175" class="county feature" d="M711.2178789224432,352.7212002865291L708.5990642441091,354.5501005978673L706.6314279266431,355.0523082514587L705.0286592878814,355.8160604195168L704.2397018473337,355.43009880340423L705.1342100457473,353.83140357140417L705.6616025942698,350.7063257654272L706.9246266332375,350.0250809677134L707.9497962938385,347.8900451197079L710.1412482684979,349.84880427450344Z" style="fill: inherit; stroke: inherit; stroke-width: inherit;" vector-effect="non-scaling-stroke"><title>Transylvania County</title></path><path id="county-37071" class="county feature" d="M734.7113692207759,344.2998574578479L734.302959519575,349.1870022655646L729.8463612383963,349.59565703009594L729.6946638333434,347.77390026841954L727.1887011913767,345.12281955801654Z" style="fill: inherit; stroke: inherit; stroke-width: inherit;" vector-effect="non-scaling-stroke"><title>Gaston County</title></path><path id="county-37049" class="county feature" d="M800.0057124582929,342.00577779769014L799.1143800277775,343.16712826424384L794.3277262822777,344.9843230283881L792.9841278901883,340.0817108459514L793.9709217061866,339.36341829689786L796.6467043763778,341.65725977134673ZM790.5523906600235,333.9027697862192L795.5317552319881,336.0761619330484L794.7244905210772,338.5108882174459L795.5335485747698,339.27167349012586L793.9798921999998,338.69474657948626L792.7094518253605,340.1504123007087L787.0509594513326,338.2510451527087L787.8728434875684,335.94998248806894L789.7487908650448,335.35267868699964Z" style="fill: inherit; stroke: inherit; stroke-width: inherit;" vector-effect="non-scaling-stroke"><title>Craven County</title></path><path id="county-37149" class="county feature" d="M720.1881792860627,350.6107756722288L716.4678527770768,350.99236053051925L714.4238838190021,351.3895825658691L714.286110105246,349.716367050484L715.2569964658583,347.4239799286462L716.8453739613127,346.9075013477442L719.9990137741537,349.3018212466309Z" style="fill: inherit; stroke: inherit; stroke-width: inherit;" vector-effect="non-scaling-stroke"><title>Polk County</title></path><path id="county-37113" class="county feature" d="M703.5988215902555,356.5276566993223L697.9893266745023,357.4208036137977L694.9412635313311,354.6408525392849L693.7516140334225,354.8875311358521L694.059795393413,353.0873375262199L694.328707298301,352.4635049704582L699.2978247902628,350.82880915060844Z" style="fill: inherit; stroke: inherit; stroke-width: inherit;" vector-effect="non-scaling-stroke"><title>Macon County</title></path><path id="county-37137" class="county feature" d="M795.5335485747698,339.27167349012586L794.7244905210772,338.5108882174459L795.5317552319881,336.0761619330484L796.4172596866501,336.61531598953195L799.4977564456626,335.61459312831767L799.6273434663119,334.79421301535126L801.119885946541,333.7125406024405L801.6483177106394,335.45272313588043L799.4488432270883,336.93482903568963L801.0896658928066,336.95477288479844L800.6397411264225,338.4802158441753L797.9878178215904,341.11899600241065L795.5764894308402,340.0837441698592Z" style="fill: inherit; stroke: inherit; stroke-width: inherit;" vector-effect="non-scaling-stroke"><title>Pamlico County</title></path><path id="county-37163" class="county feature" d="M774.5183440211513,339.56888283600824L776.9529660267599,340.9641914441045L778.2076594358095,346.22723872417225L777.9891973564149,349.4367987406142L779.3469001910257,349.4702351198947L777.8200005715711,352.9850060480409L776.3137264497152,351.02021864816936L773.175987640569,348.0593789427227L770.4665484376762,345.9721813070081L769.7409473586465,344.16879458286405L770.0130044421021,341.184997870306L770.8996727070994,339.6888799609882L771.8120826281822,340.50108332581146Z" style="fill: inherit; stroke: inherit; stroke-width: inherit;" vector-effect="non-scaling-stroke"><title>Sampson County</title></path><path id="county-37039" class="county feature" d="M694.059795393413,353.0873375262199L693.7516140334225,354.8875311358521L692.0128024731224,355.4660241264578L690.1421457825111,358.55362991246886L688.256014985089,358.7855534232406L685.3740591099607,359.1280875823852L685.3120704213582,354.99354525748015L686.3531231125557,353.7323732027154L687.7201356173941,354.0375907693423L689.0643028678139,352.9022073923596L690.3076960140096,354.1652153034785L691.9122720031203,353.2355397005032Z" style="fill: inherit; stroke: inherit; stroke-width: inherit;" vector-effect="non-scaling-stroke"><title>Cherokee County</title></path><path id="county-37051" class="county feature" d="M770.0130044421021,341.184997870306L769.7409473586465,344.16879458286405L770.4665484376762,345.9721813070081L773.175987640569,348.0593789427227L767.176232313577,349.5762803449775L764.7816375066111,347.73491526119597L763.6555763968621,346.24361961717466L763.0979946317442,343.818017334773L763.0640394284238,343.47560312741655L766.8655024469961,341.5002004455589Z" style="fill: inherit; stroke: inherit; stroke-width: inherit;" vector-effect="non-scaling-stroke"><title>Cumberland County</title></path><path id="county-37103" class="county feature" d="M792.7094518253605,340.1504123007087L792.9841278901883,340.0817108459514L794.3277262822777,344.9843230283881L793.2645888760562,345.5397639074936L791.7824875994877,343.6413666552039L789.810764250652,343.7878211956912L787.5692584765357,343.1258050822629L784.9848093613957,343.55960062428494L784.043064337359,343.08246800271513L785.7260668002872,341.5373107741541L787.0509594513326,338.2510451527087Z" style="fill: inherit; stroke: inherit; stroke-width: inherit;" vector-effect="non-scaling-stroke"><title>Jones County</title></path><path id="county-37007" class="county feature" d="M748.624673424736,346.9352223298471L750.022967313435,347.8002950897351L750.9180800951427,347.0329889843166L751.937537644957,348.25155050280614L752.7768192138635,350.85853047533885L751.9036000411675,352.80502964543746L751.8713196159836,352.81054083849654L745.987612150532,353.6620061626529L745.4483733657454,346.45525829588337Z" style="fill: inherit; stroke: inherit; stroke-width: inherit;" vector-effect="non-scaling-stroke"><title>Anson County</title></path><path id="county-37093" class="county feature" d="M763.0979946317442,343.818017334773L763.6555763968621,346.24361961717466L764.7816375066111,347.73491526119597L762.8368770849701,350.38434195576554L760.4777093969835,350.70430289830836L760.0564588914519,348.76220021060055L758.1452856602006,347.2049317153793L759.6041922462831,344.67889294991323L761.0147677132662,343.49091371613656Z" style="fill: inherit; stroke: inherit; stroke-width: inherit;" vector-effect="non-scaling-stroke"><title>Hoke County</title></path><path id="county-37179" class="county feature" d="M745.4483733657454,346.45525829588337L745.987612150532,353.6620061626529L742.3209457525268,354.20098880361195L738.8076252746059,354.72918155546904L738.6954276086169,352.5626439057178L737.6418066524307,351.46794863841546L741.3396076745946,346.9023520666001L742.0781780103637,347.24453880926205L744.3209236003424,347.22358755001596Z" style="fill: inherit; stroke: inherit; stroke-width: inherit;" vector-effect="non-scaling-stroke"><title>Union County</title></path><path id="county-37061" class="county feature" d="M781.8849936027921,340.2392211717729L782.9721683670814,340.65203426178425L784.043064337359,343.08246800271513L784.9848093613957,343.55960062428494L785.5343902805776,344.49745242755387L785.8167164407103,348.2485529820408L779.3469001910257,349.4702351198947L777.9891973564149,349.4367987406142L778.2076594358095,346.22723872417225L776.9529660267599,340.9641914441045L778.7124973140768,340.5660762492606L781.112930908707,340.96855818386655Z" style="fill: inherit; stroke: inherit; stroke-width: inherit;" vector-effect="non-scaling-stroke"><title>Duplin County</title></path><path id="county-37153" class="county feature" d="M755.4402328600128,345.37225322028974L756.3990006779237,347.0733178017474L758.1452856602006,347.2049317153793L756.6162938710079,348.4444745686717L757.0484209449792,349.9372018860157L755.5025765185036,352.22076395391935L751.9036000411675,352.80502964543746L752.7768192138635,350.85853047533885L751.937537644957,348.25155050280614L750.9180800951427,347.0329889843166L750.022967313435,347.8002950897351L748.624673424736,346.9352223298471L751.8334860396734,345.6177740876418Z" style="fill: inherit; stroke: inherit; stroke-width: inherit;" vector-effect="non-scaling-stroke"><title>Richmond County</title></path><path id="county-37043" class="county feature" d="M693.7516140334225,354.8875311358521L694.9412635313311,354.6408525392849L697.9893266745023,357.4208036137977L696.9871967320934,357.56748147379403L691.1730681154611,358.41633370623845L690.1421457825111,358.55362991246886L692.0128024731224,355.4660241264578Z" style="fill: inherit; stroke: inherit; stroke-width: inherit;" vector-effect="non-scaling-stroke"><title>Clay County</title></path><path id="county-37031" class="county feature" d="M793.4925364675141,345.8705540483072L793.2645888760562,345.5397639074936L794.3277262822777,344.9843230283881L799.1143800277775,343.16712826424384L800.0057124582929,342.00577779769014L799.8837420556031,340.63131470105793L803.4740640938287,339.3075226980254L803.1268394228091,340.49615201075335L805.8381528771906,339.5962714769224L803.8088960807935,342.778184883016L803.2810395648789,344.6621834886332L802.3162230927949,344.90693274838407L801.2706182555013,343.38493914663513L800.5428394371285,345.3704274154504L797.5607488618193,345.8151478253476L794.6721380871958,347.3840429200168Z" style="fill: inherit; stroke: inherit; stroke-width: inherit;" vector-effect="non-scaling-stroke"><title>Carteret County</title></path><path id="county-37165" class="county feature" d="M760.4777093969835,350.70430289830836L760.9277221797229,351.89945548161074L759.4533177476129,354.8659996854526L755.5025765185036,352.22076395391935L757.0484209449792,349.9372018860157L756.6162938710079,348.4444745686717L758.1452856602006,347.2049317153793L760.0564588914519,348.76220021060055Z" style="fill: inherit; stroke: inherit; stroke-width: inherit;" vector-effect="non-scaling-stroke"><title>Scotland County</title></path><path id="county-37133" class="county feature" d="M793.2645888760562,345.5397639074936L793.4925364675141,345.8705540483072L794.3472699827432,346.82321643243995L791.5800604482979,350.84047579606795L789.2638316932379,352.94203260538995L788.280283519589,352.4583477080847L785.8167164407103,348.2485529820408L785.5343902805776,344.49745242755387L784.9848093613957,343.55960062428494L787.5692584765357,343.1258050822629L789.810764250652,343.7878211956912L791.7824875994877,343.6413666552039Z" style="fill: inherit; stroke: inherit; stroke-width: inherit;" vector-effect="non-scaling-stroke"><title>Onslow County</title></path><path id="county-37155" class="county feature" d="M767.176232313577,349.5762803449775L769.0967947807692,352.0103062155332L768.8091963226939,356.0125534322084L767.7158194737766,356.863925839467L766.417693689453,359.95899422500815L766.391587411417,359.9380114210675L759.6562151083751,355.00899898783007L759.4533177476129,354.8659996854526L760.9277221797229,351.89945548161074L760.4777093969835,350.70430289830836L762.8368770849701,350.38434195576554L764.7816375066111,347.73491526119597Z" style="fill: inherit; stroke: inherit; stroke-width: inherit;" vector-effect="non-scaling-stroke"><title>Robeson County</title></path><path id="county-37017" class="county feature" d="M777.8200005715711,352.9850060480409L779.2974716013703,354.39731305488885L778.3313901734812,355.8398832582386L775.5630515405128,356.79718124033445L771.9116234156945,355.6998586784324L768.8091963226939,356.0125534322084L769.0967947807692,352.0103062155332L767.176232313577,349.5762803449775L773.175987640569,348.0593789427227L776.3137264497152,351.02021864816936Z" style="fill: inherit; stroke: inherit; stroke-width: inherit;" vector-effect="non-scaling-stroke"><title>Bladen County</title></path><path id="county-37141" class="county feature" d="M786.8642662359321,356.28356273681334L786.7979639550135,356.2305550511484L786.8642662359321,356.28356273681334ZM785.8167164407103,348.2485529820408L788.280283519589,352.4583477080847L789.2638316932379,352.94203260538995L786.4734240330266,356.31741568721634L784.8788070589183,354.7873939949975L782.8104607172238,355.306772015929L781.9780801830223,356.446466023118L779.8936278463383,356.36109963591366L778.3313901734812,355.8398832582386L779.2974716013703,354.39731305488885L777.8200005715711,352.9850060480409L779.3469001910257,349.4702351198947Z" style="fill: inherit; stroke: inherit; stroke-width: inherit;" vector-effect="non-scaling-stroke"><title>Pender County</title></path><path id="county-37047" class="county feature" d="M778.3313901734812,355.8398832582386L779.8936278463383,356.36109963591366L779.0039158759506,359.22253007031725L777.2381850043919,359.7730304697369L776.736009369257,361.12701483234514L774.8769265146025,361.3378428284045L774.9220338262548,363.0895799981246L773.9575496306729,365.3639335927219L766.417693689453,359.95899422500815L767.7158194737766,356.863925839467L768.8091963226939,356.0125534322084L771.9116234156945,355.6998586784324L775.5630515405128,356.79718124033445Z" style="fill: inherit; stroke: inherit; stroke-width: inherit;" vector-effect="non-scaling-stroke"><title>Columbus County</title></path><path id="county-37129" class="county feature" d="M784.8036597445073,363.63436225503347L784.7717425173207,363.5561101904332L784.8036597445073,363.63436225503347ZM786.4734240330266,356.31741568721634L786.7979639550135,356.2305550511484L786.8642662359321,356.28356273681334L785.1833321248455,359.313962668146L784.6392055604715,361.29151708259724L783.5506657699244,358.81009307783404L781.9780801830223,356.446466023118L782.8104607172238,355.306772015929L784.8788070589183,354.7873939949975Z" style="fill: inherit; stroke: inherit; stroke-width: inherit;" vector-effect="non-scaling-stroke"><title>New Hanover County</title></path><path id="county-37019" class="county feature" d="M775.7512082515359,366.64959227271197L775.6346150449285,366.5663982565587L775.7512082515359,366.64959227271197ZM784.7717425173207,363.5561101904332L784.8036597445073,363.63436225503347L784.7717425173207,363.5561101904332ZM781.9780801830223,356.446466023118L783.5506657699244,358.81009307783404L784.3691471835031,362.8359042787192L783.6671058131842,364.6263276228092L781.4759934822962,364.5451755848894L777.5299327495555,365.58104207126144L775.6133399988594,366.5425956401799L775.4018344791518,366.40196797072167L775.3295602571641,366.3454796845392L773.9575496306729,365.3639335927219L774.9220338262548,363.0895799981246L774.8769265146025,361.3378428284045L776.736009369257,361.12701483234514L777.2381850043919,359.7730304697369L779.0039158759506,359.22253007031725L779.8936278463383,356.36109963591366Z" style="fill: inherit; stroke: inherit; stroke-width: inherit;" vector-effect="non-scaling-stroke"><title>Brunswick County</title></path></g><path id="counties-mesh" class="counties mesh" d="M725.3880924285255,323.37254632459883L727.4576027240903,327.046004588545L724.5294499532517,329.8829124941153L720.3978992394772,327.63731006164346M732.0523588363059,322.56717247646384L731.5702014237811,325.7064568475861L730.7705943176535,326.3618035176455L729.5761507040938,325.2777223803391L727.4576027240903,327.046004588545M738.8559362610287,321.6736542496724L739.569524884063,327.077552112175L739.6265746270983,327.4560613131006L738.1959712937895,326.90750547398875L733.4413736741803,328.5624306284203L733.23435646758,326.8676333347131L731.5702014237811,325.7064568475861M795.8022650057543,311.06263590160734L796.6877551358344,311.6522191485684L797.7510862459038,313.9793966835492L796.3017682607141,314.7835551539763L794.7437676905756,316.09941046922927L793.1093582388908,315.21558500628794L790.5849754095126,314.93005349873033L790.3781095622242,312.30595858741447M693.7516140334225,354.8875311358521L692.0128024731224,355.4660241264578L690.1421457825111,358.55362991246886L688.256014985089,358.7855534232406L685.3740591099607,359.1280875823852L685.3120704213582,354.99354525748015L686.3531231125557,353.7323732027154L687.7201356173941,354.0375907693423L689.0643028678139,352.9022073923596L688.9119410928121,350.7936318195307L689.6778049348595,349.56292054944333L689.803572686737,349.6081136441512L692.2647106924439,347.37473130856154L693.875158756305,347.0194921552304L696.3495649373215,346.8117035469071L699.6571759850101,343.8433698184904L699.5899827443187,343.4663411306926L702.0318785119114,341.7391450765458L703.7684085035808,341.4739381255797L704.308622988975,338.4670825165348L705.5139388322474,338.73991368993416L705.8670343182681,337.42095467118077L707.866490725074,335.67239781855574L708.4399964927113,336.08400193685634L708.51464484302,337.45182418514696L710.0519929909401,337.0386411465123L711.1109809416089,335.0774326094173L713.760780906223,333.088174597774L716.0038717090197,333.7813189366617L717.7396666923025,330.43262577793416L717.8972897715207,330.00164887668427L720.3978992394772,327.63731006164346L720.5908548526162,323.85219204618045L725.3880924285255,323.37254632459883L732.0523588363059,322.56717247646384L732.9975156290623,322.46568416866023L736.3127880443651,321.9528520137293L738.8559362610287,321.6736542496724L744.547259688296,320.87664334184444L744.9311931155183,320.81156111756945L749.5124306795853,320.0368469576307L752.5067354404764,319.53903487769435L753.0950349231309,319.434775477813L754.963485824592,319.0949255462972L756.7745878101393,318.76785910321576L757.9504821990474,318.55548265176947L762.9529746039839,317.6502946456843L763.8596055548031,317.4778865240711L767.9076277941077,316.7210042851234L769.8477634055041,316.3295497502007L773.9028610303372,315.553216849303L776.038487635165,315.1339385444028L777.9680786040085,314.7450873109925L784.826524616858,313.4067482776187L786.756841621783,312.9946922834614L790.3781095622242,312.30595858741447L790.3526358497174,312.15405785460814L795.8022650057543,311.06263590160734L796.533364042959,310.91063030882924L799.128739146844,310.37086232516776L801.9046697008514,309.78252200780105L803.1669923444617,309.51295922091015L804.3006845796622,311.96012249869693L806.4759051478652,313.9431944425303L808.5168636797096,317.58962282437426L805.533436877965,314.4757387893534L804.2548983403235,313.2818089181425L802.7747565619654,313.315287967215L799.128739146844,310.37086232516776M805.2528584723193,309.0645286867765L805.6126749224002,308.9871974379614L808.244613408142,314.57609578983124L808.2098879853309,314.5929222327579L807.3244151665386,313.63730622008893L805.2528584723193,309.0645286867765M803.9548583101096,309.34578484185863L803.4854067265878,309.44606959935857L804.8308642663567,309.1571695689362L804.2160738392054,309.29198269391895L803.9548583101096,309.34578484185863M744.9311931155183,320.81156111756945L745.7142780336993,326.13156581619944L739.569524884063,327.077552112175M804.2548983403235,313.2818089181425L806.4976227428692,316.2386576534317L804.8574848429746,316.15680724477863L801.0199062277134,313.4166282639659L796.6877551358344,311.6522191485684M776.038487635165,315.1339385444028L776.1998345915856,315.8299220821849L776.4350088659617,318.17923894954413L775.6903856697224,321.7641027037754L771.0634884604499,321.43000887065625L771.3539482544334,320.601422144662L769.8477634055041,316.3295497502007M786.756841621783,312.9946922834614L787.6696554583705,314.2046045386685L787.2168344059772,318.6581942198235L786.2871827663078,320.3494837058066L784.7335635428724,319.7913152496519L783.5253227531094,317.9073276701349L782.0686596078606,318.5960775567261L781.5140481567145,316.49561095109846L779.9761951335056,315.591805513747L776.1998345915856,315.8299220821849M790.5849754095126,314.93005349873033L792.9960461242971,315.3018713575799L794.3293370890306,317.27230008097945L787.2168344059772,318.6581942198235M762.9529746039839,317.6502946456843L763.9062964097279,323.3354035853357L761.7086045713975,323.67393883345574L758.7202768425991,324.1538765002707L757.9504821990474,318.55548265176947M771.0634884604499,321.43000887065625L769.7222774835209,323.6360968437277L768.5931325786115,323.6346971173034L767.4196484351015,318.5013590551026L767.9076277941077,316.7210042851234M768.5931325786115,323.6346971173034L768.3924054087724,326.60502377147645L765.2464083479992,326.24587629626467L764.3474775957001,325.9556216148816L763.9062964097279,323.3354035853357M758.7202768425991,324.1538765002707L757.1963322678196,324.3941161385527L753.140995598912,325.01945553118264M801.0199062277134,313.4166282639659L801.5022171010813,314.7429904561268L804.3848354838178,316.9480832480157L802.9442530101873,317.78085328062036L800.8156182702661,316.4441061865358L799.3581946224128,315.9410239452552L797.7510862459038,313.9793966835492M733.4413736741803,328.5624306284203L733.8531472979942,331.9408611137443L731.7088985186949,332.4738378720617L727.4280758604639,334.0897383573333L723.8746016878109,332.3273496524579L724.5294499532517,329.8829124941153M723.8746016878109,332.3273496524579L719.9770746206557,333.0328358950643L718.2328205152935,331.30601495848225L717.8972897715207,330.00164887668427M800.8156182702661,316.4441061865358L802.6101260698958,318.19722181567886L801.7505783528413,318.43769269798906L798.4233038485982,317.28052821738333L801.0194062786052,318.76751853972326L798.3418825383847,319.4921846100194L797.0312426849437,319.277411204724L796.3017682607141,314.7835551539763M798.3418825383847,319.4921846100194L799.591538392308,319.5686174253525L798.3017068246438,321.0124484322083L795.4628458421287,320.43894325157976L794.7143616171144,319.01143152630607L794.7437676905756,316.09941046922927M739.6265746270983,327.4560613131006L740.1472231090974,329.35893522748347L739.5668367980174,331.18266709038585L736.6609175113467,331.5788486773022L733.8531472979942,331.9408611137443M719.9770746206557,333.0328358950643L721.1931336024847,333.7187474511893L720.4385577570854,335.811722981236L718.4306323682615,336.16045623814966L717.9945343023779,337.13934919916187L717.1330139301692,336.68271411994886L716.0038717090197,333.7813189366617M786.2871827663078,320.3494837058066L787.2736444878492,321.5370629219808L786.1156302204296,322.1789846192654L785.2618298418607,323.6966485154592L783.336023046917,323.4547628659998L783.0316478794255,322.4920738388595L780.3889858931973,321.8098074488073L777.6523300018741,322.51384233805425L775.6903856697224,321.7641027037754L773.3935348444409,329.5821609348217L772.3958904771564,328.3301433415602L768.3924054087724,326.60502377147645M752.5067354404764,319.53903487769435L753.140995598912,325.01945553118264L753.1591118377141,325.15402960163897L745.7142780336993,326.13156581619944L746.3752232096588,330.7362650267752L741.2981632625285,332.30258418018593L739.5668367980174,331.18266709038585M753.1591118377141,325.15402960163897L754.1264850971787,331.5239002625689L746.6057294732966,332.4181813524315L746.3752232096588,330.7362650267752M757.1963322678196,324.3941161385527L758.52547723175,331.1853996977569L758.8074278990824,331.7552214859418L754.3036299187955,332.56790637962604L754.1264850971787,331.5239002625689M794.3293370890306,317.27230008097945L794.2076239091039,319.0762780324525L795.8742140140469,321.8499572196414L795.8408867885087,323.12717822325374L795.2147403579493,324.38346163818926L794.0491933195439,324.24502055523647L793.2694174224413,325.56647538454L792.4689167138602,324.2510150233094L791.645779078501,325.22790868947595L790.5811348946238,323.87226932432645L788.5069148698078,324.304095845254L788.1466835281478,323.1083319892683L786.1156302204296,322.1789846192654M761.7086045713975,323.67393883345574L762.0032625038126,330.8197992387053L758.52547723175,331.1853996977569M765.2464083479992,326.24587629626467L766.1919504134048,327.2610491908241L764.7169321911076,330.2487425730087L763.6188222833471,330.43752323809235L762.0032625038126,330.8197992387053M814.7393361444014,323.96258465324775L815.3926335901524,325.35292329649633L815.8440894656201,332.39649814522124L812.7449623260234,333.73138843051106L812.6974558336349,333.6402089924867L815.7993690733601,331.4812689969857L815.3359214060642,325.59852904643583L814.7393361444014,323.96258465324775M808.244613408142,314.57609578983124L812.7010276735391,320.7237508796162L809.5191269597299,317.95719913558685L808.2098879853309,314.5929222327579M717.9945343023779,337.13934919916187L715.9875710147082,339.09574373789803L714.4969487793846,335.71363412519304L711.1109809416089,335.0774326094173M785.2618298418607,323.6966485154592L786.5120688631629,325.3558570359395L786.7137526959564,326.9775291539098L786.0740303826672,326.85272369050153L782.6445625061335,330.5022311149361L780.7800016539124,327.97998744481765L779.5076317277624,327.4709280979662M727.4280758604639,334.0897383573333L727.9219356570263,337.82419254600165L727.5626790867384,338.42501563866165L724.6859836307167,338.68829734315614L720.4385577570854,335.811722981236M715.9875710147082,339.09574373789803L714.202764229333,341.642112450803L712.838840152936,339.8238511164626L711.9117472708189,339.81035675569717L710.0519929909401,337.0386411465123M780.3889858931973,321.8098074488073L779.5076317277624,327.4709280979662L774.627745529936,331.0320250733872L773.3935348444409,329.5821609348217L770.6769931794279,332.20056175048956L767.7203509747881,336.370883647759L764.4685348871394,335.74518407885466L763.1688451052391,335.450017179733L763.6188222833471,330.43752323809235M795.2147403579493,324.38346163818926L794.5769630812922,327.5808914102863L792.6808174395611,328.8696589029786L789.6313978288899,328.0484639119611L786.7137526959564,326.9775291539098M711.9117472708189,339.81035675569717L710.3888692563154,340.3089745864198L706.3585049547196,343.11320070169427L705.2088272421174,343.4246063443975L703.7684085035808,341.4739381255797M741.2981632625285,332.30258418018593L741.9786651880886,333.6777359911464L740.625914148897,335.26315083272254L741.0380144623133,336.70233275120415L738.1791532360444,335.24994219638836L737.0408094515075,335.29362253883255L736.6609175113467,331.5788486773022M737.0408094515075,335.29362253883255L736.6309026177747,338.76354230845004L737.6465937707751,341.79412385081866L736.9299026233331,341.93566083388816L734.580972434064,342.65934744007154L734.2105127137643,341.5736438825377L734.5021400513675,340.11153220694143L731.2544081598598,337.61644306802873L732.3198322793147,334.0241159580937L731.7088985186949,332.4738378720617M731.2544081598598,337.61644306802873L730.694728641719,336.7998252749262L727.9219356570263,337.82419254600165M746.6057294732966,332.4181813524315L747.6136695704699,340.1794351728281L745.8949894204254,340.4928141857065L745.2891142982664,339.16899135954407L742.9353910764701,336.83950771757895L741.0380144623133,336.70233275120415M727.5626790867384,338.42501563866165L725.6011782794815,342.5223241746397L725.5603459250233,342.61255293827264L723.2205328138523,342.68170701296026L721.2728104515633,343.06379756309354L720.1959071902254,340.47001634697256L718.2132905686784,339.0882480024658L719.1835636494945,337.489333369361L718.4306323682615,336.16045623814966M801.2262785488682,326.3589428550989L797.6264324040344,326.9585211832665L794.5769630812922,327.5808914102863M795.8408867885087,323.12717822325374L800.0731425331093,321.1104281879718L800.7332979509929,321.9548388754871M721.2728104515633,343.06379756309354L719.1890516655259,344.3331261503772L716.2596091931275,344.7031252036654L714.2792100311201,343.7820282090671L714.202764229333,341.642112450803M754.3036299187955,332.56790637962604L755.1729957913221,338.69954306638544L752.0142869560487,339.3157185277629L747.6136695704699,340.1794351728281M764.4685348871394,335.74518407885466L763.8395767061736,337.0319689561114L761.2977205406014,335.4498250613832L758.2153189416955,338.1099916580197L755.1729957913221,338.69954306638544M782.6445625061335,330.5022311149361L782.1636230878182,331.0808102655078L780.6309172306528,332.9046208696409L777.0203384278374,333.35566611052366L776.0606404387365,333.1965380637597L774.627745529936,331.0320250733872M755.4402328600128,345.37225322028974L751.8334860396734,345.6177740876418L748.624673424736,346.9352223298471L748.0120772919266,345.20080855732283L748.2690161987616,342.62333388354705L745.8949894204254,340.4928141857065L744.2297469484902,340.7982010478728L737.6465937707751,341.79412385081866M789.6313978288899,328.0484639119611L789.9933298074307,329.85171780611313L791.5222499327883,331.0153781354991L791.4197985903727,331.1909056603346L790.3935372491491,332.01053818436253L790.5523906600235,333.9027697862192L789.7487908650448,335.35267868699964L787.8728434875684,335.94998248806894L786.2966043253527,334.5978434328216L785.5605981183248,332.9913978675181L782.1636230878182,331.0808102655078M734.2105127137643,341.5736438825377L725.6011782794815,342.5223241746397M716.2596091931275,344.7031252036654L714.9840191653788,346.0370258680423L707.9497962938385,347.8900451197079L707.0058795465623,347.1209130176562L707.2632048043488,345.25350947535037L705.2088272421174,343.4246063443975M777.0203384278374,333.35566611052366L776.2782406779615,336.71465107173515L776.53622729124,337.9563743268616L774.5183440211513,339.56888283600824L771.8120826281822,340.50108332581146L770.8996727070994,339.6888799609882L768.5109691023265,336.6626144211191L767.7203509747881,336.370883647759M715.2569964658583,347.4239799286462L714.286110105246,349.716367050484L714.4238838190021,351.3895825658691L711.2178789224432,352.7212002865291L710.1412482684979,349.84880427450344L707.9497962938385,347.8900451197079L706.9246266332375,350.0250809677134L705.6616025942698,350.7063257654272L701.13221798579,347.0920491671767L701.4708378454524,346.29123741422154L699.6571759850101,343.8433698184904M791.4197985903727,331.1909056603346L793.8231606471198,332.9506735121754L799.2419255346166,333.62663940012453L799.6273434663119,334.79421301535126L799.4977564456626,335.61459312831767L796.4172596866501,336.61531598953195L795.5317552319881,336.0761619330484L790.5523906600235,333.9027697862192M797.6264324040344,326.9585211832665L798.6210094271005,328.4097314101057L800.2465933741137,328.98503609104455L798.3660481043448,330.5120342431337L799.7643843584926,332.59560491058244L793.4448549690817,332.0659986164154L791.5222499327883,331.0153781354991M812.7449623260234,333.73138843051106L812.6974558336349,333.6402089924867M804.6640183365549,325.6672722636779L804.2796756245746,327.63257344744466L803.0052426699081,327.6881064578131L803.1085751603403,326.1085798088943L801.2262785488682,326.3589428550989L800.7332979509929,321.9548388754871L803.3925775297237,320.1831475351079L805.0020821108023,319.92420336753617L806.4539205110019,325.44737646763656L804.6640183365549,325.6672722636779L806.9586515676341,325.69265650327486M808.9197795319708,325.854464022672L806.9586515676341,325.69265650327486L806.483585599967,321.5594423320948L808.9096762382098,320.35309245217354L809.9877588606007,320.91046570151843L811.2343962058726,325.6255238584073L809.6157855281945,326.753587246508L808.9197795319708,325.854464022672L809.275439418785,326.99553016091306L807.7088384122466,330.5042961395858L806.2373658382742,332.25835149787406L804.6654096224604,332.36926246814835L802.3363275345237,331.2938882875544L801.381596214256,332.576791307838L799.1362494226281,330.41781705835854L800.568708819663,330.26712118279636L800.2465933741137,328.98503609104455M701.13221798579,347.0920491671767L698.7776961889845,348.29169738517464L699.2978247902628,350.82880915060844L694.328707298301,352.4635049704582L695.3621656009603,349.37764135156715L689.803572686737,349.6081136441512M786.2966043253527,334.5978434328216L783.5407208167189,336.64348396569017L781.6236618171171,336.6070296667716L780.6309172306528,332.9046208696409M763.8395767061736,337.0319689561114L761.3841632752735,341.5777784156428L759.8926342739406,340.96382621943394L758.2153189416955,338.1099916580197M723.2205328138523,342.68170701296026L723.6933835541207,346.84687730196094L723.2150681859142,350.2873231766798L721.6150623640752,350.45822153025415L720.1881792860627,350.6107756722288L719.9990137741537,349.3018212466309L716.8453739613127,346.9075013477442L715.2569964658583,347.4239799286462L714.9840191653788,346.0370258680423M781.6236618171171,336.6070296667716L781.8849936027921,340.2392211717729L781.112930908707,340.96855818386655L778.7124973140768,340.5660762492606L776.9529660267599,340.9641914441045L774.5183440211513,339.56888283600824M770.8996727070994,339.6888799609882L770.0130044421021,341.184997870306L766.8655024469961,341.5002004455589L763.0640394284238,343.47560312741655L760.926009481994,342.40589390439516L761.3841632752735,341.5777784156428M725.5603459250233,342.61255293827264L727.1887011913767,345.12281955801654L729.6946638333434,347.77390026841954L729.8463612383963,349.59565703009594L729.2679390199919,349.65892083642336L723.2150681859142,350.2873231766798M734.580972434064,342.65934744007154L734.7113692207759,344.2998574578479L727.1887011913767,345.12281955801654M705.6616025942698,350.7063257654272L705.1342100457473,353.83140357140417L704.2397018473337,355.43009880340423L705.0286592878814,355.8160604195168L703.6038052760537,356.5239132694469L703.5988215902555,356.5276566993223L699.2978247902628,350.82880915060844M736.9299026233331,341.93566083388816L739.4242273310383,346.08435332076954L741.3396076745946,346.9023520666001L737.6418066524307,351.46794863841546L736.423366912039,350.2289661648738L734.4897081516038,351.12636546078625L734.302959519575,349.1870022655646L734.7113692207759,344.2998574578479M763.0640394284238,343.47560312741655L763.0979946317442,343.818017334773L761.0147677132662,343.49091371613656L759.6041922462831,344.67889294991323L758.1452856602006,347.2049317153793L756.3990006779237,347.0733178017474L755.4402328600128,345.37225322028974L753.9107419426787,343.95870333673156L752.0142869560487,339.3157185277629M744.2297469484902,340.7982010478728L742.0781780103637,347.24453880926205L741.3396076745946,346.9023520666001M748.624673424736,346.9352223298471L745.4483733657454,346.45525829588337L744.3209236003424,347.22358755001596L742.0781780103637,347.24453880926205M694.328707298301,352.4635049704582L694.059795393413,353.0873375262199L691.9122720031203,353.2355397005032L690.3076960140096,354.1652153034785L689.0643028678139,352.9022073923596M787.8728434875684,335.94998248806894L787.0509594513326,338.2510451527087L785.7260668002872,341.5373107741541L784.043064337359,343.08246800271513L782.9721683670814,340.65203426178425L781.8849936027921,340.2392211717729M711.2178789224432,352.7212002865291L708.5990642441091,354.5501005978673L706.6314279266431,355.0523082514587L705.0286592878814,355.8160604195168M734.302959519575,349.1870022655646L729.8463612383963,349.59565703009594M795.5317552319881,336.0761619330484L794.7244905210772,338.5108882174459L795.5335485747698,339.27167349012586L793.9798921999998,338.69474657948626L792.7094518253605,340.1504123007087L787.0509594513326,338.2510451527087M720.1881792860627,350.6107756722288L716.4678527770768,350.99236053051925L714.4238838190021,351.3895825658691M703.5988215902555,356.5276566993223L697.9893266745023,357.4208036137977L694.9412635313311,354.6408525392849L693.7516140334225,354.8875311358521L694.059795393413,353.0873375262199M799.6273434663119,334.79421301535126L801.119885946541,333.7125406024405L801.6483177106394,335.45272313588043L799.4488432270883,336.93482903568963L801.0896658928066,336.95477288479844L800.6397411264225,338.4802158441753L797.9878178215904,341.11899600241065L795.5764894308402,340.0837441698592L795.5335485747698,339.27167349012586M776.9529660267599,340.9641914441045L778.2076594358095,346.22723872417225L777.9891973564149,349.4367987406142L779.3469001910257,349.4702351198947L777.8200005715711,352.9850060480409L776.3137264497152,351.02021864816936L773.175987640569,348.0593789427227L770.4665484376762,345.9721813070081L769.7409473586465,344.16879458286405L770.0130044421021,341.184997870306M773.175987640569,348.0593789427227L767.176232313577,349.5762803449775L764.7816375066111,347.73491526119597L763.6555763968621,346.24361961717466L763.0979946317442,343.818017334773M792.7094518253605,340.1504123007087L792.9841278901883,340.0817108459514M794.3277262822777,344.9843230283881L793.2645888760562,345.5397639074936L791.7824875994877,343.6413666552039L789.810764250652,343.7878211956912L787.5692584765357,343.1258050822629L784.9848093613957,343.55960062428494L784.043064337359,343.08246800271513M748.624673424736,346.9352223298471L750.022967313435,347.8002950897351L750.9180800951427,347.0329889843166L751.937537644957,348.25155050280614L752.7768192138635,350.85853047533885L751.9036000411675,352.80502964543746L751.8713196159836,352.81054083849654L745.987612150532,353.6620061626529L745.4483733657454,346.45525829588337M745.987612150532,353.6620061626529L742.3209457525268,354.20098880361195L738.8076252746059,354.72918155546904L738.6954276086169,352.5626439057178L737.6418066524307,351.46794863841546M784.9848093613957,343.55960062428494L785.5343902805776,344.49745242755387L785.8167164407103,348.2485529820408L779.3469001910257,349.4702351198947M764.7816375066111,347.73491526119597L762.8368770849701,350.38434195576554L760.4777093969835,350.70430289830836L760.0564588914519,348.76220021060055L758.1452856602006,347.2049317153793L756.6162938710079,348.4444745686717L757.0484209449792,349.9372018860157L755.5025765185036,352.22076395391935L751.9036000411675,352.80502964543746M697.9893266745023,357.4208036137977L696.9871967320934,357.56748147379403L691.1730681154611,358.41633370623845L690.1421457825111,358.55362991246886M800.0057124582929,342.00577779769014L799.1143800277775,343.16712826424384L794.3277262822777,344.9843230283881L792.9841278901883,340.0817108459514L793.9709217061866,339.36341829689786L796.6467043763778,341.65725977134673L800.0057124582929,342.00577779769014L799.8837420556031,340.63131470105793L803.4740640938287,339.3075226980254L803.1268394228091,340.49615201075335L805.8381528771906,339.5962714769224L803.8088960807935,342.778184883016L803.2810395648789,344.6621834886332L802.3162230927949,344.90693274838407L801.2706182555013,343.38493914663513L800.5428394371285,345.3704274154504L797.5607488618193,345.8151478253476L794.6721380871958,347.3840429200168L793.4925364675141,345.8705540483072L793.2645888760562,345.5397639074936M760.4777093969835,350.70430289830836L760.9277221797229,351.89945548161074L759.4533177476129,354.8659996854526L755.5025765185036,352.22076395391935M793.4925364675141,345.8705540483072L794.3472699827432,346.82321643243995L791.5800604482979,350.84047579606795L789.2638316932379,352.94203260538995L788.280283519589,352.4583477080847L785.8167164407103,348.2485529820408M767.176232313577,349.5762803449775L769.0967947807692,352.0103062155332L768.8091963226939,356.0125534322084L767.7158194737766,356.863925839467L766.417693689453,359.95899422500815L766.391587411417,359.9380114210675L759.6562151083751,355.00899898783007L759.4533177476129,354.8659996854526M777.8200005715711,352.9850060480409L779.2974716013703,354.39731305488885L778.3313901734812,355.8398832582386L775.5630515405128,356.79718124033445L771.9116234156945,355.6998586784324L768.8091963226939,356.0125534322084M789.2638316932379,352.94203260538995L786.4734240330266,356.31741568721634L784.8788070589183,354.7873939949975L782.8104607172238,355.306772015929L781.9780801830223,356.446466023118L779.8936278463383,356.36109963591366L778.3313901734812,355.8398832582386M779.8936278463383,356.36109963591366L779.0039158759506,359.22253007031725L777.2381850043919,359.7730304697369L776.736009369257,361.12701483234514L774.8769265146025,361.3378428284045L774.9220338262548,363.0895799981246L773.9575496306729,365.3639335927219L766.417693689453,359.95899422500815M786.4734240330266,356.31741568721634L786.7979639550135,356.2305550511484M786.8642662359321,356.28356273681334L786.7979639550135,356.2305550511484L786.8642662359321,356.28356273681334L785.1833321248455,359.313962668146L784.6392055604715,361.29151708259724L783.5506657699244,358.81009307783404L781.9780801830223,356.446466023118M775.7512082515359,366.64959227271197L775.6346150449285,366.5663982565587L775.7512082515359,366.64959227271197M784.8036597445073,363.63436225503347L784.7717425173207,363.5561101904332L784.8036597445073,363.63436225503347L784.7717425173207,363.5561101904332M783.5506657699244,358.81009307783404L784.3691471835031,362.8359042787192L783.6671058131842,364.6263276228092L781.4759934822962,364.5451755848894L777.5299327495555,365.58104207126144L775.6133399988594,366.5425956401799L775.4018344791518,366.40196797072167L775.3295602571641,366.3454796845392L773.9575496306729,365.3639335927219" style="fill: inherit; stroke: inherit; stroke-width: inherit;" vector-effect="non-scaling-stroke"></path></svg>