<?xml version="1.0" standalone="yes"?>
<svg xmlns="http://www.w3.org/2000/svg" version="1.2" id="root" viewBox="404.1801981419258 103.02821593556985 97.21500322076486 61.06567245581334"><style>
@import url("../../css/svg.css");</style><rect id="bbox" class="bbox" x="404.1801981419258" y="103.02821593556985" width="97.21500322076486" height="61.06567245581334"></rect><g id="counties"><path id="county-38079" class="county feature" d="M465.0280700762291,114.85194190746563L456.87776096979684,114.51628718653012L456.55827474625585,111.27231904650978L456.7850623119909,106.1225490543618L464.92702683686696,106.4509405722622L464.7436320277071,111.63321205540933Z" style="fill: inherit; stroke: inherit; stroke-width: inherit;" vector-effect="non-scaling-stroke"><title>Rolette County</title></path><path id="county-38009" class="county feature" d="M456.7850623119909,106.1225490543618L456.55827474625585,111.27231904650978L456.87776096979684,114.51628718653012L455.24653458385825,114.45489273302485L453.6247986003136,114.3817553400412L453.69506923417043,112.77053932132117L445.55950697523843,112.35510894614083L445.4740090648064,113.95961459993498L440.5896047858595,113.67831609768518L440.7738429735487,110.46964596910846L440.21184712109255,110.42730719180622L440.50038280677245,105.28956461868825Z" style="fill: inherit; stroke: inherit; stroke-width: inherit;" vector-effect="non-scaling-stroke"><title>Bottineau County</title></path><path id="county-38067" class="county feature" d="M493.41103521315995,107.14383674142255L494.2782786793076,111.6313982926614L495.00518458707495,112.94145392016537L494.13590628279144,115.59674866215244L484.58500964243626,115.44150303600213L484.47126846280105,106.99430355546406Z" style="fill: inherit; stroke: inherit; stroke-width: inherit;" vector-effect="non-scaling-stroke"><title>Pembina County</title></path><path id="county-38095" class="county feature" d="M471.5533088792005,115.0858196802701L471.44893129949924,118.28057911829274L468.5767572652799,118.19823820553268L464.9099646794371,118.06410408805209L465.0280700762291,114.85194190746563L464.7436320277071,111.63321205540933L464.92702683686696,106.4509405722622L471.45126502562414,106.66509911997127L471.28715384869747,111.86288331082994Z" style="fill: inherit; stroke: inherit; stroke-width: inherit;" vector-effect="non-scaling-stroke"><title>Towner County</title></path><path id="county-38019" class="county feature" d="M484.47126846280105,106.99430355546406L484.58500964243626,115.44150303600213L479.6983157525445,115.32043473135047L471.5533088792005,115.0858196802701L471.28715384869747,111.86288331082994L471.45126502562414,106.66509911997127Z" style="fill: inherit; stroke: inherit; stroke-width: inherit;" vector-effect="non-scaling-stroke"><title>Cavalier County</title></path><path id="county-38023" class="county feature" d="M422.6562295553882,104.12346802612433L422.2687384676757,109.23779913992564L422.8156195947446,110.9079790846589L408.3653425480329,109.75639881567474L408.93197131840304,103.02821593556985Z" style="fill: inherit; stroke: inherit; stroke-width: inherit;" vector-effect="non-scaling-stroke"><title>Divide County</title></path><path id="county-38013" class="county feature" d="M434.01063751894424,104.90575464694939L433.78217044565463,108.43664708736526L432.15975009790645,108.33359213793972L432.0472219815835,109.93127734795326L431.0431056540325,109.86575266961358L430.8324584358295,113.07279366010857L422.7083209881813,112.51019879851685L422.8156195947446,110.9079790846589L422.2687384676757,109.23779913992564L422.6562295553882,104.12346802612433Z" style="fill: inherit; stroke: inherit; stroke-width: inherit;" vector-effect="non-scaling-stroke"><title>Burke County</title></path><path id="county-38075" class="county feature" d="M445.4740090648064,113.95961459993498L445.3883742687027,115.56668913328338L435.62089583118495,114.98601473612734L435.91228109246873,110.17848247139932L433.6853540390337,110.03335477711857L433.78217044565463,108.43664708736526L434.01063751894424,104.90575464694939L440.50038280677245,105.28956461868825L440.21184712109255,110.42730719180622L440.7738429735487,110.46964596910846L440.5896047858595,113.67831609768518Z" style="fill: inherit; stroke: inherit; stroke-width: inherit;" vector-effect="non-scaling-stroke"><title>Renville County</title></path><path id="county-38101" class="county feature" d="M433.78217044565463,108.43664708736526L433.6853540390337,110.03335477711857L435.91228109246873,110.17848247139932L435.62089583118495,114.98601473612734L445.3883742687027,115.56668913328338L445.8730779296681,117.20261085318407L445.51923518433523,123.64631568204072L446.08347029042744,123.6779753240927L445.9014141023667,126.89593376486982L434.54516942101105,126.26636442156939L434.75052603503775,123.01991897045139L434.1143034924288,122.98039423730677L434.51572451794686,116.54647205594495L433.8745975039882,116.49634449788562L434.0823334064072,113.26686024122125L430.8324584358295,113.07279366010857L431.0431056540325,109.86575266961358L432.0472219815835,109.93127734795326L432.15975009790645,108.33359213793972Z" style="fill: inherit; stroke: inherit; stroke-width: inherit;" vector-effect="non-scaling-stroke"><title>Ward County</title></path><path id="county-38105" class="county feature" d="M422.8156195947446,110.9079790846589L422.7083209881813,112.51019879851685L422.47580268406034,115.71409776364817L423.19379837579123,115.76001157408007L422.85821151242226,120.36024735638864L418.1882316167932,119.80055750386339L416.88226650982494,121.4791085316973L414.5877073518123,122.1755345410503L413.1146810588155,119.49526618881589L411.3342927611819,120.05851408366175L410.1760404025552,122.06931596602249L407.4125084134095,121.51663029909412L408.0007937557098,114.26380312722074L408.3653425480329,109.75639881567474Z" style="fill: inherit; stroke: inherit; stroke-width: inherit;" vector-effect="non-scaling-stroke"><title>Williams County</title></path><path id="county-38049" class="county feature" d="M455.24653458385825,114.45489273302485L455.59194703897793,117.67998089049445L455.3083084645301,124.13909892155584L455.8051299954091,124.16115860951356L455.658124837843,127.38487846790258L450.7718859917934,127.16193379932736L445.9014141023667,126.89593376486982L446.08347029042744,123.6779753240927L445.51923518433523,123.64631568204072L445.8730779296681,117.20261085318407L445.3883742687027,115.56668913328338L445.4740090648064,113.95961459993498L445.55950697523843,112.35510894614083L453.69506923417043,112.77053932132117L453.6247986003136,114.3817553400412Z" style="fill: inherit; stroke: inherit; stroke-width: inherit;" vector-effect="non-scaling-stroke"><title>McHenry County</title></path><path id="county-38061" class="county feature" d="M434.54516942101105,126.26636442156939L428.07185096947603,125.84536750779876L427.9554991295248,127.50693240350995L424.8070896480733,126.06828145011104L424.8356485801911,124.62246981901649L426.15678154147884,122.9140005519373L424.86841923978784,121.37549915640602L422.85821151242226,120.36024735638864L423.19379837579123,115.76001157408007L422.47580268406034,115.71409776364817L422.7083209881813,112.51019879851685L430.8324584358295,113.07279366010857L434.0823334064072,113.26686024122125L433.8745975039882,116.49634449788562L434.51572451794686,116.54647205594495L434.1143034924288,122.98039423730677L434.75052603503775,123.01991897045139Z" style="fill: inherit; stroke: inherit; stroke-width: inherit;" vector-effect="non-scaling-stroke"><title>Mountrail County</title></path><path id="county-38069" class="county feature" d="M465.0280700762291,114.85194190746563L464.9099646794371,118.06410408805209L460.484386738443,117.8861821208252L460.2046067007312,124.34847627928741L460.52670210047285,127.59712976684773L457.2837050979147,127.4625952396168L455.658124837843,127.38487846790258L455.8051299954091,124.16115860951356L455.3083084645301,124.13909892155584L455.59194703897793,117.67998089049445L455.24653458385825,114.45489273302485L456.87776096979684,114.51628718653012Z" style="fill: inherit; stroke: inherit; stroke-width: inherit;" vector-effect="non-scaling-stroke"><title>Pierce County</title></path><path id="county-38071" class="county feature" d="M473.85480680417174,125.73809821364478L473.85480680417174,125.73809821364478L473.85480680417174,125.73809821364478ZM479.6983157525445,115.32043473135047L479.87018330306387,121.77140666592516L478.23826549628967,121.73888305763501L478.14728467154316,124.95353003639866L476.85020600127064,124.91876148564893L476.79799285365544,126.8831097455344L475.6081250229513,126.82600313711305L473.10384149048474,124.04906855246668L471.7433379033942,125.21799547161993L468.44822668217074,122.01415054279573L468.5767572652799,118.19823820553268L471.44893129949924,118.28057911829274L471.5533088792005,115.0858196802701Z" style="fill: inherit; stroke: inherit; stroke-width: inherit;" vector-effect="non-scaling-stroke"><title>Ramsey County</title></path><path id="county-38099" class="county feature" d="M484.58500964243626,115.44150303600213L494.13590628279144,115.59674866215244L494.6714212242939,119.64436585450039L494.32283574541606,122.06528845987305L484.7519960828467,121.88513517488025L479.87018330306387,121.77140666592516L479.6983157525445,115.32043473135047Z" style="fill: inherit; stroke: inherit; stroke-width: inherit;" vector-effect="non-scaling-stroke"><title>Walsh County</title></path><path id="county-38005" class="county feature" d="M464.9099646794371,118.06410408805209L468.5767572652799,118.19823820553268L468.44822668217074,122.01415054279573L471.7433379033942,125.21799547161993L473.10384149048474,124.04906855246668L475.6081250229513,126.82600313711305L476.79799285365544,126.8831097455344L476.76411551026797,128.157633568983L467.022478379438,127.84915789869342L460.52670210047285,127.59712976684773L460.2046067007312,124.34847627928741L460.484386738443,117.8861821208252ZM473.85480680417174,125.73809821364478L473.85480680417174,125.73809821364478L473.85480680417174,125.73809821364478Z" style="fill: inherit; stroke: inherit; stroke-width: inherit;" vector-effect="non-scaling-stroke"><title>Benson County</title></path><path id="county-38063" class="county feature" d="M484.7519960828467,121.88513517488025L484.9541307844721,125.11367860512394L484.82166125192043,131.57262718672484L483.52650878309026,131.5442812187514L477.00103294483347,131.39028713642335L476.76411551026797,128.157633568983L476.79799285365544,126.8831097455344L476.85020600127064,124.91876148564893L478.14728467154316,124.95353003639866L478.23826549628967,121.73888305763501L479.87018330306387,121.77140666592516Z" style="fill: inherit; stroke: inherit; stroke-width: inherit;" vector-effect="non-scaling-stroke"><title>Nelson County</title></path><path id="county-38035" class="county feature" d="M494.32283574541606,122.06528845987305L494.2598119225679,122.43038912999668L495.7739057529862,128.0285145265392L497.30261444897445,131.70731666267648L490.01175767226937,131.666236516063L484.82166125192043,131.57262718672484L484.9541307844721,125.11367860512394L484.7519960828467,121.88513517488025Z" style="fill: inherit; stroke: inherit; stroke-width: inherit;" vector-effect="non-scaling-stroke"><title>Grand Forks County</title></path><path id="county-38053" class="county feature" d="M422.85821151242226,120.36024735638864L424.86841923978784,121.37549915640602L426.15678154147884,122.9140005519373L424.8356485801911,124.62246981901649L424.8070896480733,126.06828145011104L424.60855048546154,128.83945831652977L418.8337055146417,128.4102487337052L418.3639934210214,134.80889467838347L411.1578167543163,134.23498071082804L406.35927173246506,133.82242535685782L406.46491451280053,132.57738610114438L407.4125084134095,121.51663029909412L410.1760404025552,122.06931596602249L411.3342927611819,120.05851408366175L413.1146810588155,119.49526618881589L414.5877073518123,122.1755345410503L416.88226650982494,121.4791085316973L418.1882316167932,119.80055750386339Z" style="fill: inherit; stroke: inherit; stroke-width: inherit;" vector-effect="non-scaling-stroke"><title>McKenzie County</title></path><path id="county-38055" class="county feature" d="M450.7718859917934,127.16193379932736L450.6166379577019,130.37745695011586L449.5227973752629,130.31816294516432L449.1841539665737,136.7371077651086L448.2210994570429,136.69032785626553L448.06298576756666,139.85191858856047L445.30790610495643,139.72198691511358L444.2896305105511,137.1315405196301L441.70024941337647,137.5024016901475L440.5629475609808,136.8724065740464L439.56265515243854,133.71138777611463L439.84056186007894,131.8864143535668L435.9300312697764,132.21055925257792L434.8801666911443,132.80971286849785L430.0119736829844,131.0515380811147L429.35930258037433,130.22583447928355L429.5475888508315,127.16495506998353L427.9554991295248,127.50693240350995L428.07185096947603,125.84536750779876L434.54516942101105,126.26636442156939L445.9014141023667,126.89593376486982Z" style="fill: inherit; stroke: inherit; stroke-width: inherit;" vector-effect="non-scaling-stroke"><title>McLean County</title></path><path id="county-38027" class="county feature" d="M476.76411551026797,128.157633568983L477.00103294483347,131.39028713642335L476.9594992950757,132.96878846645438L467.2560842096546,132.66538717153526L467.022478379438,127.84915789869342Z" style="fill: inherit; stroke: inherit; stroke-width: inherit;" vector-effect="non-scaling-stroke"><title>Eddy County</title></path><path id="county-38103" class="county feature" d="M460.52670210047285,127.59712976684773L467.022478379438,127.84915789869342L467.2560842096546,132.66538717153526L467.0854872387557,137.495239062206L464.3544096396273,137.4022531468878L457.32736143282847,137.1203422346366L457.60454529817133,130.69947303810284L457.2837050979147,127.4625952396168Z" style="fill: inherit; stroke: inherit; stroke-width: inherit;" vector-effect="non-scaling-stroke"><title>Wells County</title></path><path id="county-38083" class="county feature" d="M455.658124837843,127.38487846790258L457.2837050979147,127.4625952396168L457.60454529817133,130.69947303810284L457.32736143282847,137.1203422346366L456.31382959636835,137.0768813666907L449.1841539665737,136.7371077651086L449.5227973752629,130.31816294516432L450.6166379577019,130.37745695011586L450.7718859917934,127.16193379932736Z" style="fill: inherit; stroke: inherit; stroke-width: inherit;" vector-effect="non-scaling-stroke"><title>Sheridan County</title></path><path id="county-38025" class="county feature" d="M427.9554991295248,127.50693240350995L429.5475888508315,127.16495506998353L429.35930258037433,130.22583447928355L430.0119736829844,131.0515380811147L429.7135631084137,135.6155693533908L430.48419510893393,135.6657087111514L430.10284526671995,141.5559917011277L425.2415406195117,141.23348028821204L425.20461775170907,141.7704085472343L418.7335363678403,141.32108916849984L419.20702551298507,134.87168494336095L418.3639934210214,134.80889467838347L418.8337055146417,128.4102487337052L424.60855048546154,128.83945831652977L424.8070896480733,126.06828145011104Z" style="fill: inherit; stroke: inherit; stroke-width: inherit;" vector-effect="non-scaling-stroke"><title>Dunn County</title></path><path id="county-38091" class="county feature" d="M484.82166125192043,131.57262718672484L490.01175767226937,131.666236516063L489.89813527528656,138.11407499530458L490.1571968332735,139.7052888963857L486.9136820227485,139.63444659823745L483.6611203633043,139.56171432842075L483.3695245669879,137.96628926533504L483.52650878309026,131.5442812187514Z" style="fill: inherit; stroke: inherit; stroke-width: inherit;" vector-effect="non-scaling-stroke"><title>Steele County</title></path><path id="county-38039" class="county feature" d="M483.52650878309026,131.5442812187514L483.3695245669879,137.96628926533504L483.6611203633043,139.56171432842075L477.2019190656377,139.41218586004334L476.84141174720617,137.80421494470363L476.9594992950757,132.96878846645438L477.00103294483347,131.39028713642335Z" style="fill: inherit; stroke: inherit; stroke-width: inherit;" vector-effect="non-scaling-stroke"><title>Griggs County</title></path><path id="county-38097" class="county feature" d="M497.8553596495111,134.95482601851973L498.05427015840735,139.82709334248955L490.1571968332735,139.7052888963857L489.89813527528656,138.11407499530458L490.01175767226937,131.666236516063L497.30261444897445,131.70731666267648Z" style="fill: inherit; stroke: inherit; stroke-width: inherit;" vector-effect="non-scaling-stroke"><title>Traill County</title></path><path id="county-38031" class="county feature" d="M476.9594992950757,132.96878846645438L476.84141174720617,137.80421494470363L467.0854872387557,137.495239062206L467.2560842096546,132.66538717153526Z" style="fill: inherit; stroke: inherit; stroke-width: inherit;" vector-effect="non-scaling-stroke"><title>Foster County</title></path><path id="county-38057" class="county feature" d="M441.70024941337647,137.5024016901475L441.66623824584656,137.95113031886672L435.2206943368881,137.57896686369156L434.9279486049705,142.39993675336655L430.67282990406073,142.13806905050365L430.10284526671995,141.5559917011277L430.48419510893393,135.6657087111514L429.7135631084137,135.6155693533908L430.0119736829844,131.0515380811147L434.8801666911443,132.80971286849785L435.9300312697764,132.21055925257792L439.84056186007894,131.8864143535668L439.56265515243854,133.71138777611463L440.5629475609808,136.8724065740464Z" style="fill: inherit; stroke: inherit; stroke-width: inherit;" vector-effect="non-scaling-stroke"><title>Mercer County</title></path><path id="county-38007" class="county feature" d="M418.3639934210214,134.80889467838347L419.20702551298507,134.87168494336095L418.7335363678403,141.32108916849984L416.19923102671044,141.14358708845987L415.69510891924426,147.63552214364358L410.85105188463916,147.25756250329528L411.3673032182262,140.76558274277363L410.6344710468854,140.70856462662937L411.1578167543163,134.23498071082804Z" style="fill: inherit; stroke: inherit; stroke-width: inherit;" vector-effect="non-scaling-stroke"><title>Billings County</title></path><path id="county-38033" class="county feature" d="M411.1578167543163,134.23498071082804L410.6344710468854,140.70856462662937L411.3673032182262,140.76558274277363L410.85105188463916,147.25756250329528L408.3924830453228,147.06182521890764L408.25697975223613,148.70905631584037L405.11863246677683,148.44381815867587L405.2767974871689,146.57978486985576L406.35927173246506,133.82242535685782Z" style="fill: inherit; stroke: inherit; stroke-width: inherit;" vector-effect="non-scaling-stroke"><title>Golden Valley County</title></path><path id="county-38043" class="county feature" d="M464.3544096396273,137.4022531468878L464.1142431801201,143.83161589113047L464.5597068284877,143.8438606015144L464.2826897247145,150.33353798450935L458.28869793862646,150.07915921628205L456.161843998653,149.98162320342396L456.5178468586837,143.51549384020575L456.0131581823987,143.48973806317588L456.31382959636835,137.0768813666907L457.32736143282847,137.1203422346366Z" style="fill: inherit; stroke: inherit; stroke-width: inherit;" vector-effect="non-scaling-stroke"><title>Kidder County</title></path><path id="county-38093" class="county feature" d="M476.84141174720617,137.80421494470363L477.2019190656377,139.41218586004334L477.076053657825,144.25838840168763L477.43891357022807,144.26576062917616L477.27713211767434,150.74722831243946L469.58555988602603,150.53557580758093L464.2826897247145,150.33353798450935L464.5597068284877,143.8438606015144L464.1142431801201,143.83161589113047L464.3544096396273,137.4022531468878L467.0854872387557,137.495239062206Z" style="fill: inherit; stroke: inherit; stroke-width: inherit;" vector-effect="non-scaling-stroke"><title>Stutsman County</title></path><path id="county-38015" class="county feature" d="M456.31382959636835,137.0768813666907L456.0131581823987,143.48973806317588L456.5178468586837,143.51549384020575L456.161843998653,149.98162320342396L448.70278400998836,149.61929090013166L447.2110882846965,148.571282541561L446.87924735753995,146.36814354699663L445.51540304843684,142.96754090309105L446.24446137174016,142.38633296902367L445.30790610495643,139.72198691511358L448.06298576756666,139.85191858856047L448.2210994570429,136.69032785626553L449.1841539665737,136.7371077651086Z" style="fill: inherit; stroke: inherit; stroke-width: inherit;" vector-effect="non-scaling-stroke"><title>Burleigh County</title></path><path id="county-38065" class="county feature" d="M445.30790610495643,139.72198691511358L446.24446137174016,142.38633296902367L445.51540304843684,142.96754090309105L434.9279486049705,142.39993675336655L435.2206943368881,137.57896686369156L441.66623824584656,137.95113031886672L441.70024941337647,137.5024016901475L444.2896305105511,137.1315405196301Z" style="fill: inherit; stroke: inherit; stroke-width: inherit;" vector-effect="non-scaling-stroke"><title>Oliver County</title></path><path id="county-38003" class="county feature" d="M483.6611203633043,139.56171432842075L486.9136820227485,139.63444659823745L487.13880975420227,144.49905831592878L487.01954494576444,150.97847477914956L482.4898466437803,150.87691768973934L477.27713211767434,150.74722831243946L477.43891357022807,144.26576062917616L477.076053657825,144.25838840168763L477.2019190656377,139.41218586004334Z" style="fill: inherit; stroke: inherit; stroke-width: inherit;" vector-effect="non-scaling-stroke"><title>Barnes County</title></path><path id="county-38017" class="county feature" d="M490.1571968332735,139.7052888963857L498.05427015840735,139.82709334248955L497.93020055795597,141.43754350637596L497.93433121570234,144.08596043714033L498.8968333657802,145.4621844561807L498.3696792600467,148.00425127424796L498.39421009224105,151.1188677791497L492.1915410573989,151.07406353747024L487.01954494576444,150.97847477914956L487.13880975420227,144.49905831592878L486.9136820227485,139.63444659823745Z" style="fill: inherit; stroke: inherit; stroke-width: inherit;" vector-effect="non-scaling-stroke"><title>Cass County</title></path><path id="county-38089" class="county feature" d="M430.10284526671995,141.5559917011277L430.67282990406073,142.13806905050365L430.36808422693974,147.02570278398218L430.26460250994313,148.63671318625222L419.59190985852644,147.92232126325212L415.69510891924426,147.63552214364358L416.19923102671044,141.14358708845987L418.7335363678403,141.32108916849984L425.20461775170907,141.7704085472343L425.2415406195117,141.23348028821204Z" style="fill: inherit; stroke: inherit; stroke-width: inherit;" vector-effect="non-scaling-stroke"><title>Stark County</title></path><path id="county-38059" class="county feature" d="M445.51540304843684,142.96754090309105L446.87924735753995,146.36814354699663L447.2110882846965,148.571282541561L448.70278400998836,149.61929090013166L449.8706657529247,150.42776406145026L449.43510054241005,153.50471243241918L447.6838142189358,154.30230388940925L445.15977545818384,153.91670200580188L443.38502265586953,155.86770130824857L443.470828502408,154.25386108811824L440.23457445355626,154.07650770872738L440.5030073010432,149.26728870693182L435.1323501339182,148.93964340942273L435.22043867127115,147.32368795503533L430.36808422693974,147.02570278398218L430.67282990406073,142.13806905050365L434.9279486049705,142.39993675336655Z" style="fill: inherit; stroke: inherit; stroke-width: inherit;" vector-effect="non-scaling-stroke"><title>Morton County</title></path><path id="county-38037" class="county feature" d="M443.38502265586953,155.86770130824857L441.40495496546407,158.3203010825464L439.30399541394377,159.54959271067423L434.95498107631,160.49192907894974L432.8014883672901,159.20625225399385L430.844248861254,159.4553776475625L431.0321936747516,156.62891466407223L430.49399241312324,155.13344593853947L430.8498312778428,148.6761674258587L430.26460250994313,148.63671318625222L430.36808422693974,147.02570278398218L435.22043867127115,147.32368795503533L435.1323501339182,148.93964340942273L440.5030073010432,149.26728870693182L440.23457445355626,154.07650770872738L443.470828502408,154.25386108811824Z" style="fill: inherit; stroke: inherit; stroke-width: inherit;" vector-effect="non-scaling-stroke"><title>Grant County</title></path><path id="county-38029" class="county feature" d="M456.161843998653,149.98162320342396L458.28869793862646,150.07915921628205L458.0111239110367,156.5870839930144L458.50262285451174,156.61326058620602L458.21969588797504,162.9706204942148L450.0157488213226,162.565061433511L448.67352760187305,158.7563063642674L449.68288830581025,156.84569588453803L449.43510054241005,153.50471243241918L449.8706657529247,150.42776406145026L448.70278400998836,149.61929090013166Z" style="fill: inherit; stroke: inherit; stroke-width: inherit;" vector-effect="non-scaling-stroke"><title>Emmons County</title></path><path id="county-38047" class="county feature" d="M464.2826897247145,150.33353798450935L469.58555988602603,150.53557580758093L469.37427085778296,156.99996972428517L458.50262285451174,156.61326058620602L458.0111239110367,156.5870839930144L458.28869793862646,150.07915921628205Z" style="fill: inherit; stroke: inherit; stroke-width: inherit;" vector-effect="non-scaling-stroke"><title>Logan County</title></path><path id="county-38087" class="county feature" d="M419.59190985852644,147.92232126325212L419.1609448411103,154.39800406306438L418.2476003886376,154.3460528338518L404.69880970174734,153.2817478255829L405.11863246677683,148.44381815867587L408.25697975223613,148.70905631584037L408.3924830453228,147.06182521890764L410.85105188463916,147.25756250329528L415.69510891924426,147.63552214364358Z" style="fill: inherit; stroke: inherit; stroke-width: inherit;" vector-effect="non-scaling-stroke"><title>Slope County</title></path><path id="county-38045" class="county feature" d="M482.4898466437803,150.87691768973934L482.3419018174489,157.35508620755957L469.8195194987873,157.02213434184773L469.37427085778296,156.99996972428517L469.58555988602603,150.53557580758093L477.27713211767434,150.74722831243946Z" style="fill: inherit; stroke: inherit; stroke-width: inherit;" vector-effect="non-scaling-stroke"><title>LaMoure County</title></path><path id="county-38041" class="county feature" d="M430.26460250994313,148.63671318625222L430.8498312778428,148.6761674258587L430.49399241312324,155.13344593853947L431.0321936747516,156.62891466407223L424.57639988581883,156.19088349714423L424.67458781980116,154.75687393363103L419.1609448411103,154.39800406306438L419.59190985852644,147.92232126325212Z" style="fill: inherit; stroke: inherit; stroke-width: inherit;" vector-effect="non-scaling-stroke"><title>Hettinger County</title></path><path id="county-38073" class="county feature" d="M487.01954494576444,150.97847477914956L492.1915410573989,151.07406353747024L492.09526912448297,157.53321800485946L482.7038909872816,157.3667877487577L482.3419018174489,157.35508620755957L482.4898466437803,150.87691768973934Z" style="fill: inherit; stroke: inherit; stroke-width: inherit;" vector-effect="non-scaling-stroke"><title>Ransom County</title></path><path id="county-38077" class="county feature" d="M498.58355658597367,151.12144236331028L499.1495724636242,153.7709467223383L500.889860583901,156.71155229829685L501.39520136269067,160.71276945680177L501.17502352617083,162.47910769447049L501.3285959281227,164.0938883913832L492.6894668170375,164.0134449604509L492.2940856846732,162.85210092685622L492.09526912448297,157.53321800485946L492.1915410573989,151.07406353747024L498.39421009224105,151.1188677791497Z" style="fill: inherit; stroke: inherit; stroke-width: inherit;" vector-effect="non-scaling-stroke"><title>Richland County</title></path><path id="county-38085" class="county feature" d="M449.43510054241005,153.50471243241918L449.68288830581025,156.84569588453803L448.67352760187305,158.7563063642674L450.0157488213226,162.565061433511L430.71630930571513,161.47977315759636L430.844248861254,159.4553776475625L432.8014883672901,159.20625225399385L434.95498107631,160.49192907894974L439.30399541394377,159.54959271067423L441.40495496546407,158.3203010825464L443.38502265586953,155.86770130824857L445.15977545818384,153.91670200580188L447.6838142189358,154.30230388940925Z" style="fill: inherit; stroke: inherit; stroke-width: inherit;" vector-effect="non-scaling-stroke"><title>Sioux County</title></path><path id="county-38001" class="county feature" d="M431.0321936747516,156.62891466407223L430.844248861254,159.4553776475625L430.71630930571513,161.47977315759636L430.69289523937346,161.48030090626003L418.4808653624099,160.63850011367265L417.7782197575809,160.58487729373087L418.2476003886376,154.3460528338518L419.1609448411103,154.39800406306438L424.67458781980116,154.75687393363103L424.57639988581883,156.19088349714423Z" style="fill: inherit; stroke: inherit; stroke-width: inherit;" vector-effect="non-scaling-stroke"><title>Adams County</title></path><path id="county-38081" class="county feature" d="M492.09526912448297,157.53321800485946L492.2940856846732,162.85210092685622L492.6894668170375,164.0134449604509L482.9267425227518,163.83668387545652L482.54878381515044,163.82775271136245L482.7038909872816,157.3667877487577Z" style="fill: inherit; stroke: inherit; stroke-width: inherit;" vector-effect="non-scaling-stroke"><title>Sargent County</title></path><path id="county-38051" class="county feature" d="M469.37427085778296,156.99996972428517L469.8195194987873,157.02213434184773L469.5848166079546,163.41357817220432L460.32712597433465,163.0649322459019L458.21969588797504,162.9706204942148L458.50262285451174,156.61326058620602Z" style="fill: inherit; stroke: inherit; stroke-width: inherit;" vector-effect="non-scaling-stroke"><title>McIntosh County</title></path><path id="county-38021" class="county feature" d="M482.3419018174489,157.35508620755957L482.7038909872816,157.3667877487577L482.54878381515044,163.82775271136245L473.24161045257705,163.5448867077656L469.5848166079546,163.41357817220432L469.8195194987873,157.02213434184773Z" style="fill: inherit; stroke: inherit; stroke-width: inherit;" vector-effect="non-scaling-stroke"><title>Dickey County</title></path><path id="county-38011" class="county feature" d="M418.2476003886376,154.3460528338518L417.7782197575809,160.58487729373087L404.1801981419258,159.5036139122335L404.69880970174734,153.2817478255829Z" style="fill: inherit; stroke: inherit; stroke-width: inherit;" vector-effect="non-scaling-stroke"><title>Bowman County</title></path></g><path id="counties-mesh" class="counties mesh" d="M473.85480680417174,125.73809821364478L473.85480680417174,125.73809821364478M464.92702683686696,106.4509405722622L471.45126502562414,106.66509911997127L471.28715384869747,111.86288331082994L471.5533088792005,115.0858196802701L471.44893129949924,118.28057911829274L468.5767572652799,118.19823820553268L464.9099646794371,118.06410408805209L465.0280700762291,114.85194190746563L456.87776096979684,114.51628718653012L455.24653458385825,114.45489273302485L453.6247986003136,114.3817553400412L453.69506923417043,112.77053932132117L445.55950697523843,112.35510894614083L445.4740090648064,113.95961459993498L440.5896047858595,113.67831609768518L440.7738429735487,110.46964596910846L440.21184712109255,110.42730719180622L440.50038280677245,105.28956461868825L456.7850623119909,106.1225490543618M493.41103521315995,107.14383674142255L494.2782786793076,111.6313982926614L495.00518458707495,112.94145392016537L494.13590628279144,115.59674866215244L484.58500964243626,115.44150303600213L484.47126846280105,106.99430355546406L493.41103521315995,107.14383674142255M484.58500964243626,115.44150303600213L479.6983157525445,115.32043473135047L471.5533088792005,115.0858196802701M471.45126502562414,106.66509911997127L484.47126846280105,106.99430355546406M422.6562295553882,104.12346802612433L422.2687384676757,109.23779913992564L422.8156195947446,110.9079790846589L408.3653425480329,109.75639881567474L408.93197131840304,103.02821593556985L422.6562295553882,104.12346802612433L434.01063751894424,104.90575464694939L433.78217044565463,108.43664708736526L432.15975009790645,108.33359213793972L432.0472219815835,109.93127734795326L431.0431056540325,109.86575266961358L430.8324584358295,113.07279366010857L422.7083209881813,112.51019879851685L422.8156195947446,110.9079790846589M445.4740090648064,113.95961459993498L445.3883742687027,115.56668913328338L435.62089583118495,114.98601473612734L435.91228109246873,110.17848247139932L433.6853540390337,110.03335477711857L433.78217044565463,108.43664708736526M434.01063751894424,104.90575464694939L440.50038280677245,105.28956461868825M422.7083209881813,112.51019879851685L422.47580268406034,115.71409776364817L423.19379837579123,115.76001157408007L422.85821151242226,120.36024735638864L418.1882316167932,119.80055750386339L416.88226650982494,121.4791085316973L414.5877073518123,122.1755345410503L413.1146810588155,119.49526618881589L411.3342927611819,120.05851408366175L410.1760404025552,122.06931596602249L407.4125084134095,121.51663029909412L408.0007937557098,114.26380312722074L408.3653425480329,109.75639881567474M445.3883742687027,115.56668913328338L445.8730779296681,117.20261085318407L445.51923518433523,123.64631568204072L446.08347029042744,123.6779753240927L445.9014141023667,126.89593376486982L434.54516942101105,126.26636442156939L434.75052603503775,123.01991897045139L434.1143034924288,122.98039423730677L434.51572451794686,116.54647205594495L433.8745975039882,116.49634449788562L434.0823334064072,113.26686024122125L430.8324584358295,113.07279366010857M455.24653458385825,114.45489273302485L455.59194703897793,117.67998089049445L455.3083084645301,124.13909892155584L455.8051299954091,124.16115860951356L455.658124837843,127.38487846790258L450.7718859917934,127.16193379932736L445.9014141023667,126.89593376486982M434.54516942101105,126.26636442156939L428.07185096947603,125.84536750779876L427.9554991295248,127.50693240350995L424.8070896480733,126.06828145011104L424.8356485801911,124.62246981901649L426.15678154147884,122.9140005519373L424.86841923978784,121.37549915640602L422.85821151242226,120.36024735638864M464.9099646794371,118.06410408805209L460.484386738443,117.8861821208252L460.2046067007312,124.34847627928741L460.52670210047285,127.59712976684773L457.2837050979147,127.4625952396168L455.658124837843,127.38487846790258M479.6983157525445,115.32043473135047L479.87018330306387,121.77140666592516L478.23826549628967,121.73888305763501L478.14728467154316,124.95353003639866L476.85020600127064,124.91876148564893L476.79799285365544,126.8831097455344L475.6081250229513,126.82600313711305L473.10384149048474,124.04906855246668L471.7433379033942,125.21799547161993L468.44822668217074,122.01415054279573L468.5767572652799,118.19823820553268M494.32283574541606,122.06528845987305L484.7519960828467,121.88513517488025L479.87018330306387,121.77140666592516M476.79799285365544,126.8831097455344L476.76411551026797,128.157633568983L467.022478379438,127.84915789869342L460.52670210047285,127.59712976684773M484.7519960828467,121.88513517488025L484.9541307844721,125.11367860512394L484.82166125192043,131.57262718672484L483.52650878309026,131.5442812187514L477.00103294483347,131.39028713642335L476.76411551026797,128.157633568983M494.13590628279144,115.59674866215244L494.6714212242939,119.64436585450039L494.32283574541606,122.06528845987305L494.2598119225679,122.43038912999668L495.7739057529862,128.0285145265392L497.30261444897445,131.70731666267648L490.01175767226937,131.666236516063L484.82166125192043,131.57262718672484M424.8070896480733,126.06828145011104L424.60855048546154,128.83945831652977L418.8337055146417,128.4102487337052L418.3639934210214,134.80889467838347L411.1578167543163,134.23498071082804L406.35927173246506,133.82242535685782L406.46491451280053,132.57738610114438L407.4125084134095,121.51663029909412M450.7718859917934,127.16193379932736L450.6166379577019,130.37745695011586L449.5227973752629,130.31816294516432L449.1841539665737,136.7371077651086L448.2210994570429,136.69032785626553L448.06298576756666,139.85191858856047L445.30790610495643,139.72198691511358L444.2896305105511,137.1315405196301L441.70024941337647,137.5024016901475L440.5629475609808,136.8724065740464L439.56265515243854,133.71138777611463L439.84056186007894,131.8864143535668L435.9300312697764,132.21055925257792L434.8801666911443,132.80971286849785L430.0119736829844,131.0515380811147L429.35930258037433,130.22583447928355L429.5475888508315,127.16495506998353L427.9554991295248,127.50693240350995M477.00103294483347,131.39028713642335L476.9594992950757,132.96878846645438L467.2560842096546,132.66538717153526L467.022478379438,127.84915789869342M467.2560842096546,132.66538717153526L467.0854872387557,137.495239062206L464.3544096396273,137.4022531468878L457.32736143282847,137.1203422346366L457.60454529817133,130.69947303810284L457.2837050979147,127.4625952396168M457.32736143282847,137.1203422346366L456.31382959636835,137.0768813666907L449.1841539665737,136.7371077651086M430.0119736829844,131.0515380811147L429.7135631084137,135.6155693533908L430.48419510893393,135.6657087111514L430.10284526671995,141.5559917011277L425.2415406195117,141.23348028821204L425.20461775170907,141.7704085472343L418.7335363678403,141.32108916849984L419.20702551298507,134.87168494336095L418.3639934210214,134.80889467838347M490.01175767226937,131.666236516063L489.89813527528656,138.11407499530458L490.1571968332735,139.7052888963857L486.9136820227485,139.63444659823745L483.6611203633043,139.56171432842075L483.3695245669879,137.96628926533504L483.52650878309026,131.5442812187514M483.6611203633043,139.56171432842075L477.2019190656377,139.41218586004334L476.84141174720617,137.80421494470363L476.9594992950757,132.96878846645438M497.30261444897445,131.70731666267648L497.8553596495111,134.95482601851973L498.05427015840735,139.82709334248955L490.1571968332735,139.7052888963857M476.84141174720617,137.80421494470363L467.0854872387557,137.495239062206M441.70024941337647,137.5024016901475L441.66623824584656,137.95113031886672L435.2206943368881,137.57896686369156L434.9279486049705,142.39993675336655L430.67282990406073,142.13806905050365L430.10284526671995,141.5559917011277M410.85105188463916,147.25756250329528L408.3924830453228,147.06182521890764L408.25697975223613,148.70905631584037L405.11863246677683,148.44381815867587L405.2767974871689,146.57978486985576L406.35927173246506,133.82242535685782M418.7335363678403,141.32108916849984L416.19923102671044,141.14358708845987L415.69510891924426,147.63552214364358L410.85105188463916,147.25756250329528L411.3673032182262,140.76558274277363L410.6344710468854,140.70856462662937L411.1578167543163,134.23498071082804M464.3544096396273,137.4022531468878L464.1142431801201,143.83161589113047L464.5597068284877,143.8438606015144L464.2826897247145,150.33353798450935L458.28869793862646,150.07915921628205L456.161843998653,149.98162320342396L456.5178468586837,143.51549384020575L456.0131581823987,143.48973806317588L456.31382959636835,137.0768813666907M477.2019190656377,139.41218586004334L477.076053657825,144.25838840168763L477.43891357022807,144.26576062917616L477.27713211767434,150.74722831243946L469.58555988602603,150.53557580758093L464.2826897247145,150.33353798450935M456.161843998653,149.98162320342396L448.70278400998836,149.61929090013166L447.2110882846965,148.571282541561L446.87924735753995,146.36814354699663L445.51540304843684,142.96754090309105L446.24446137174016,142.38633296902367L445.30790610495643,139.72198691511358M445.51540304843684,142.96754090309105L434.9279486049705,142.39993675336655M486.9136820227485,139.63444659823745L487.13880975420227,144.49905831592878L487.01954494576444,150.97847477914956L482.4898466437803,150.87691768973934L477.27713211767434,150.74722831243946M498.05427015840735,139.82709334248955L497.93020055795597,141.43754350637596L497.93433121570234,144.08596043714033L498.8968333657802,145.4621844561807L498.3696792600467,148.00425127424796L498.39421009224105,151.1188677791497L492.1915410573989,151.07406353747024L487.01954494576444,150.97847477914956M430.67282990406073,142.13806905050365L430.36808422693974,147.02570278398218L430.26460250994313,148.63671318625222L419.59190985852644,147.92232126325212L415.69510891924426,147.63552214364358M448.70278400998836,149.61929090013166L449.8706657529247,150.42776406145026L449.43510054241005,153.50471243241918L447.6838142189358,154.30230388940925L445.15977545818384,153.91670200580188L443.38502265586953,155.86770130824857L443.470828502408,154.25386108811824L440.23457445355626,154.07650770872738L440.5030073010432,149.26728870693182L435.1323501339182,148.93964340942273L435.22043867127115,147.32368795503533L430.36808422693974,147.02570278398218M443.38502265586953,155.86770130824857L441.40495496546407,158.3203010825464L439.30399541394377,159.54959271067423L434.95498107631,160.49192907894974L432.8014883672901,159.20625225399385L430.844248861254,159.4553776475625L431.0321936747516,156.62891466407223L430.49399241312324,155.13344593853947L430.8498312778428,148.6761674258587L430.26460250994313,148.63671318625222M417.7782197575809,160.58487729373087L404.1801981419258,159.5036139122335L404.69880970174734,153.2817478255829L405.11863246677683,148.44381815867587M458.28869793862646,150.07915921628205L458.0111239110367,156.5870839930144L458.50262285451174,156.61326058620602L458.21969588797504,162.9706204942148L450.0157488213226,162.565061433511L448.67352760187305,158.7563063642674L449.68288830581025,156.84569588453803L449.43510054241005,153.50471243241918M469.58555988602603,150.53557580758093L469.37427085778296,156.99996972428517L458.50262285451174,156.61326058620602M419.59190985852644,147.92232126325212L419.1609448411103,154.39800406306438L418.2476003886376,154.3460528338518L404.69880970174734,153.2817478255829M482.4898466437803,150.87691768973934L482.3419018174489,157.35508620755957L469.8195194987873,157.02213434184773L469.37427085778296,156.99996972428517M431.0321936747516,156.62891466407223L424.57639988581883,156.19088349714423L424.67458781980116,154.75687393363103L419.1609448411103,154.39800406306438M492.1915410573989,151.07406353747024L492.09526912448297,157.53321800485946L482.7038909872816,157.3667877487577L482.3419018174489,157.35508620755957M498.39421009224105,151.1188677791497L498.58355658597367,151.12144236331028L499.1495724636242,153.7709467223383L500.889860583901,156.71155229829685L501.39520136269067,160.71276945680177L501.17502352617083,162.47910769447049L501.3285959281227,164.0938883913832L492.6894668170375,164.0134449604509L492.2940856846732,162.85210092685622L492.09526912448297,157.53321800485946M450.0157488213226,162.565061433511L430.71630930571513,161.47977315759636L430.844248861254,159.4553776475625M430.71630930571513,161.47977315759636L430.69289523937346,161.48030090626003L418.4808653624099,160.63850011367265L417.7782197575809,160.58487729373087L418.2476003886376,154.3460528338518M492.6894668170375,164.0134449604509L482.9267425227518,163.83668387545652L482.54878381515044,163.82775271136245L482.7038909872816,157.3667877487577M469.8195194987873,157.02213434184773L469.5848166079546,163.41357817220432L460.32712597433465,163.0649322459019L458.21969588797504,162.9706204942148M482.54878381515044,163.82775271136245L473.24161045257705,163.5448867077656L469.5848166079546,163.41357817220432M456.87776096979684,114.51628718653012L456.55827474625585,111.27231904650978L456.7850623119909,106.1225490543618M456.7850623119909,106.1225490543618L464.92702683686696,106.4509405722622M464.92702683686696,106.4509405722622L464.7436320277071,111.63321205540933L465.0280700762291,114.85194190746563" style="fill: inherit; stroke: inherit; stroke-width: inherit;" vector-effect="non-scaling-stroke"></path></svg>