<?xml version="1.0" standalone="yes"?>
<svg xmlns="http://www.w3.org/2000/svg" version="1.2" id="root" viewBox="396.2254413381485 214.3517069982944 122.24067214918108 61.156002518539026"><style>
@import url("../../css/svg.css");</style><rect id="bbox" class="bbox" x="396.2254413381485" y="214.3517069982944" width="122.24067214918108" height="61.156002518539026"></rect><g id="counties"><path id="county-31165" class="county feature" d="M406.8248975873412,225.6478242084063L406.3198168030337,232.14616647751131L406.77342779355854,233.8252490137843L397.82861806359557,233.13087211319078L398.799003976755,221.70527086322966L399.4137638550875,214.3517069982944L406.85121221606715,215.03261520074886L406.84845756515017,219.09782314475012L406.33973928690557,225.61066709598822Z" style="fill: inherit; stroke: inherit; stroke-width: inherit;" vector-effect="non-scaling-stroke"><title>Sioux County</title></path><path id="county-31161" class="county feature" d="M426.0646826479497,233.43827743442557L425.1319997797126,235.02184468678695L416.72879418271197,234.53154321703482L416.44695183295937,234.52079395560918L415.947084112583,232.83360122106671L416.31702909907074,226.31034435633717L415.9934761401913,226.28728792764207L416.45553888161976,219.81449694118146L416.4851047317584,215.7716720695031L426.10009615058067,216.436041481115L425.6528413410378,226.87293914793668L426.0253933327577,226.89973239508504L425.59685552655685,233.40150450616966Z" style="fill: inherit; stroke: inherit; stroke-width: inherit;" vector-effect="non-scaling-stroke"><title>Sheridan County</title></path><path id="county-31045" class="county feature" d="M415.9934761401913,226.28728792764207L406.8248975873412,225.6478242084063L406.33973928690557,225.61066709598822L406.84845756515017,219.09782314475012L406.85121221606715,215.03261520074886L413.66114515100406,215.55325227539038L416.4851047317584,215.7716720695031L416.45553888161976,219.81449694118146Z" style="fill: inherit; stroke: inherit; stroke-width: inherit;" vector-effect="non-scaling-stroke"><title>Dawes County</title></path><path id="county-31015" class="county feature" d="M477.23519234464345,220.88909939156872L477.24819155756427,223.17252001020063L473.4578959172136,222.72574656174413L469.27693835883986,221.3595562712842L468.49840822781306,220.45739940932253L464.2983714832549,221.98180942412307L464.4523427559965,218.34484417212514L474.72956609397437,218.64492335480895Z" style="fill: inherit; stroke: inherit; stroke-width: inherit;" vector-effect="non-scaling-stroke"><title>Boyd County</title></path><path id="county-31103" class="county feature" d="M464.4523427559965,218.34484417212514L464.2983714832549,221.98180942412307L460.4268703791249,223.47313755418372L458.5238943323921,223.1524284753947L452.37163127435,221.45216258080188L451.52912982934816,220.6960922271311L451.6556944506987,217.8327098881466L460.6667020596179,218.21158691641597Z" style="fill: inherit; stroke: inherit; stroke-width: inherit;" vector-effect="non-scaling-stroke"><title>Keya Paha County</title></path><path id="county-31031" class="county feature" d="M437.6855151010019,217.15350471704267L451.6556944506987,217.8327098881466L451.52912982934816,220.6960922271311L451.3225834943676,234.98966089579233L449.94598413461375,234.92246807562844L441.9940442644506,234.50248976796388L434.0225169136234,233.99539987210767L426.0646826479497,233.43827743442557L425.59685552655685,233.40150450616966L426.0253933327577,226.89973239508504L425.6528413410378,226.87293914793668L426.10009615058067,216.436041481115Z" style="fill: inherit; stroke: inherit; stroke-width: inherit;" vector-effect="non-scaling-stroke"><title>Cherry County</title></path><path id="county-31089" class="county feature" d="M477.24819155756427,223.17252001020063L477.1643236347516,229.2649860053408L477.00101447743907,235.8071575093852L470.66549189285763,235.644472756538L464.31582068530764,235.45563801885874L464.15293777751464,235.44909196568074L464.44562236326846,222.3967757089688L464.2983714832549,221.98180942412307L468.49840822781306,220.45739940932253L469.27693835883986,221.3595562712842L473.4578959172136,222.72574656174413Z" style="fill: inherit; stroke: inherit; stroke-width: inherit;" vector-effect="non-scaling-stroke"><title>Holt County</title></path><path id="county-31107" class="county feature" d="M479.34517551166965,221.75816071635336L480.9320350828023,223.20212876342305L482.03923399937435,223.13250262048803L483.24151111442046,221.45306254561092L486.39890433838036,221.6646510138794L488.4502078076428,221.72052788148437L488.3244360710561,229.4559571525224L483.5427165503429,229.38860001454236L477.1643236347516,229.2649860053408L477.24819155756427,223.17252001020063L477.23519234464345,220.88909939156872Z" style="fill: inherit; stroke: inherit; stroke-width: inherit;" vector-effect="non-scaling-stroke"><title>Knox County</title></path><path id="county-31027" class="county feature" d="M492.8547782298298,222.7324184872274L494.8075730925721,223.470281502303L494.7054364246305,231.1798976809721L489.9079553054288,231.10958597446995L489.93638017560585,229.4761102171267L488.3244360710561,229.4559571525224L488.4502078076428,221.72052788148437L490.85813292677204,221.4319967574511Z" style="fill: inherit; stroke: inherit; stroke-width: inherit;" vector-effect="non-scaling-stroke"><title>Cedar County</title></path><path id="county-31017" class="county feature" d="M458.5238943323921,223.1524284753947L458.2672160971645,235.27284498499284L457.9316340098977,235.25784223068547L451.3225834943676,234.98966089579233L451.52912982934816,220.6960922271311L452.37163127435,221.45216258080188Z" style="fill: inherit; stroke: inherit; stroke-width: inherit;" vector-effect="non-scaling-stroke"><title>Brown County</title></path><path id="county-31149" class="county feature" d="M464.15293777751464,235.44909196568074L458.2672160971645,235.27284498499284L458.5238943323921,223.1524284753947L460.4268703791249,223.47313755418372L464.2983714832549,221.98180942412307L464.44562236326846,222.3967757089688Z" style="fill: inherit; stroke: inherit; stroke-width: inherit;" vector-effect="non-scaling-stroke"><title>Rock County</title></path><path id="county-31051" class="county feature" d="M497.66494511432506,224.5775501632976L499.13116553896185,225.6004737478919L500.0267861062211,227.97387361453661L498.78494950321766,227.95897458194395L498.6856842164114,232.59490912352715L497.36819349466185,232.8417028923941L494.6879493247124,232.81272175402512L494.7054364246305,231.1798976809721L494.8075730925721,223.470281502303Z" style="fill: inherit; stroke: inherit; stroke-width: inherit;" vector-effect="non-scaling-stroke"><title>Dixon County</title></path><path id="county-31043" class="county feature" d="M500.0267861062211,227.97387361453661L502.5418807104705,228.63728835048823L503.2192314442764,228.73318021345392L503.01597646846324,231.43526888075053L503.76937043896567,232.65215350484914L498.6856842164114,232.59490912352715L498.78494950321766,227.95897458194395Z" style="fill: inherit; stroke: inherit; stroke-width: inherit;" vector-effect="non-scaling-stroke"><title>Dakota County</title></path><path id="county-31139" class="county feature" d="M489.9079553054288,231.10958597446995L489.8274695423423,236.0153691911746L483.4164361497982,235.93057115302656L483.5427165503429,229.38860001454236L488.3244360710561,229.4559571525224L489.93638017560585,229.4761102171267Z" style="fill: inherit; stroke: inherit; stroke-width: inherit;" vector-effect="non-scaling-stroke"><title>Pierce County</title></path><path id="county-31013" class="county feature" d="M416.44695183295937,234.52079395560918L407.3050961834225,233.8777752773567L406.77342779355854,233.8252490137843L406.3198168030337,232.14616647751131L406.8248975873412,225.6478242084063L415.9934761401913,226.28728792764207L416.31702909907074,226.31034435633717L415.947084112583,232.83360122106671Z" style="fill: inherit; stroke: inherit; stroke-width: inherit;" vector-effect="non-scaling-stroke"><title>Box Butte County</title></path><path id="county-31003" class="county feature" d="M483.5427165503429,229.38860001454236L483.4164361497982,235.93057115302656L483.36835000212136,239.19142859418866L476.9911445525741,239.07916134053687L477.00101447743907,235.8071575093852L477.1643236347516,229.2649860053408Z" style="fill: inherit; stroke: inherit; stroke-width: inherit;" vector-effect="non-scaling-stroke"><title>Antelope County</title></path><path id="county-31179" class="county feature" d="M494.7054364246305,231.1798976809721L494.6879493247124,232.81272175402512L497.36819349466185,232.8417028923941L497.32506108755206,236.11295203070586L494.63315738861945,236.08382166749254L489.8274695423423,236.0153691911746L489.9079553054288,231.10958597446995Z" style="fill: inherit; stroke: inherit; stroke-width: inherit;" vector-effect="non-scaling-stroke"><title>Wayne County</title></path><path id="county-31173" class="county feature" d="M503.76937043896567,232.65215350484914L503.7601003324395,233.80951289950212L504.98232743659986,235.77405255208748L504.9048326699775,236.96685217207641L504.37399668563467,237.5693480433755L501.0165235008472,237.53990879861897L501.01477093002376,236.14780563531951L497.32506108755206,236.11295203070586L497.36819349466185,232.8417028923941L498.6856842164114,232.59490912352715Z" style="fill: inherit; stroke: inherit; stroke-width: inherit;" vector-effect="non-scaling-stroke"><title>Thurston County</title></path><path id="county-31075" class="county feature" d="M434.0225169136234,233.99539987210767L433.65759889883043,240.55382416688326L425.9314776565808,240.102617373184L424.79172834379096,240.03430003758456L425.1319997797126,235.02184468678695L426.0646826479497,233.43827743442557Z" style="fill: inherit; stroke: inherit; stroke-width: inherit;" vector-effect="non-scaling-stroke"><title>Grant County</title></path><path id="county-31091" class="county feature" d="M441.9940442644506,234.50248976796388L441.7051740053557,241.03959273499333L433.9254049651603,240.56606505301545L433.65759889883043,240.55382416688326L434.0225169136234,233.99539987210767Z" style="fill: inherit; stroke: inherit; stroke-width: inherit;" vector-effect="non-scaling-stroke"><title>Hooker County</title></path><path id="county-31039" class="county feature" d="M497.32506108755206,236.11295203070586L501.01477093002376,236.14780563531951L501.0165235008472,237.53990879861897L500.98148205316545,242.6920491469334L496.1316317935994,242.64062199465127L494.5531226189879,242.62058604939375L494.63315738861945,236.08382166749254Z" style="fill: inherit; stroke: inherit; stroke-width: inherit;" vector-effect="non-scaling-stroke"><title>Cuming County</title></path><path id="county-31119" class="county feature" d="M489.8274695423423,236.0153691911746L489.7382637534851,242.55503765086962L483.344906374955,242.4656392570896L483.36835000212136,239.19142859418866L483.4164361497982,235.93057115302656Z" style="fill: inherit; stroke: inherit; stroke-width: inherit;" vector-effect="non-scaling-stroke"><title>Madison County</title></path><path id="county-31167" class="county feature" d="M494.63315738861945,236.08382166749254L494.5531226189879,242.62058604939375L491.3365380998436,242.58111751138574L489.7382637534851,242.55503765086962L489.8274695423423,236.0153691911746Z" style="fill: inherit; stroke: inherit; stroke-width: inherit;" vector-effect="non-scaling-stroke"><title>Stanton County</title></path><path id="county-31171" class="county feature" d="M449.94598413461375,234.92246807562844L449.683305682221,241.43228896645667L443.5192590084118,241.14299513405274L441.7051740053557,241.03959273499333L441.9940442644506,234.50248976796388Z" style="fill: inherit; stroke: inherit; stroke-width: inherit;" vector-effect="non-scaling-stroke"><title>Thomas County</title></path><path id="county-31183" class="county feature" d="M476.9911445525741,239.07916134053687L476.912218875809,242.34620462122314L470.5993076607109,242.19469990947607L470.505023158939,242.19196555799158L470.66549189285763,235.644472756538L477.00101447743907,235.8071575093852Z" style="fill: inherit; stroke: inherit; stroke-width: inherit;" vector-effect="non-scaling-stroke"><title>Wheeler County</title></path><path id="county-31009" class="county feature" d="M449.94598413461375,234.92246807562844L451.3225834943676,234.98966089579233L457.9316340098977,235.25784223068547L457.67936453385266,241.75789359957332L449.88163989310567,241.4421925268524L449.683305682221,241.43228896645667Z" style="fill: inherit; stroke: inherit; stroke-width: inherit;" vector-effect="non-scaling-stroke"><title>Blaine County</title></path><path id="county-31115" class="county feature" d="M464.31582068530764,235.45563801885874L464.10935629563795,241.9815738576948L457.67936453385266,241.75789359957332L457.9316340098977,235.25784223068547L458.2672160971645,235.27284498499284L464.15293777751464,235.44909196568074Z" style="fill: inherit; stroke: inherit; stroke-width: inherit;" vector-effect="non-scaling-stroke"><title>Loup County</title></path><path id="county-31071" class="county feature" d="M470.66549189285763,235.644472756538L470.505023158939,242.19196555799158L464.2431815854983,241.99014981192386L464.10935629563795,241.9815738576948L464.31582068530764,235.45563801885874Z" style="fill: inherit; stroke: inherit; stroke-width: inherit;" vector-effect="non-scaling-stroke"><title>Garfield County</title></path><path id="county-31021" class="county feature" d="M506.74345495063517,240.37467938098087L507.75843809237654,241.67124061735262L506.96199892302207,243.8240975367097L502.5053288219717,243.79866765248005L502.5154137369257,242.7041572283058L500.98148205316545,242.6920491469334L501.0165235008472,237.53990879861897L504.37399668563467,237.5693480433755L504.9048326699775,236.96685217207641L506.8404314034172,238.34292017655707Z" style="fill: inherit; stroke: inherit; stroke-width: inherit;" vector-effect="non-scaling-stroke"><title>Burt County</title></path><path id="county-31069" class="county feature" d="M425.1319997797126,235.02184468678695L424.79172834379096,240.03430003758456L425.9314776565808,240.102617373184L425.5297153965701,246.63241683658111L424.54936955954116,246.56213429525144L424.34136449482435,249.8225051857894L416.62659268096064,249.30668807295353L416.5429043929414,245.1988993488652L416.9471803939746,239.48998491779287L416.4450574576731,238.3515231184051L416.72879418271197,234.53154321703482Z" style="fill: inherit; stroke: inherit; stroke-width: inherit;" vector-effect="non-scaling-stroke"><title>Garden County</title></path><path id="county-31123" class="county feature" d="M416.72879418271197,234.53154321703482L416.4450574576731,238.3515231184051L416.9471803939746,239.48998491779287L416.5429043929414,245.1988993488652L406.39744790698853,244.47535533496705L406.75885766734734,239.566830398962L407.3050961834225,233.8777752773567L416.44695183295937,234.52079395560918Z" style="fill: inherit; stroke: inherit; stroke-width: inherit;" vector-effect="non-scaling-stroke"><title>Morrill County</title></path><path id="county-31157" class="county feature" d="M407.3050961834225,233.8777752773567L406.75885766734734,239.566830398962L397.34504041548473,238.82465363431675L397.82861806359557,233.13087211319078L406.77342779355854,233.8252490137843Z" style="fill: inherit; stroke: inherit; stroke-width: inherit;" vector-effect="non-scaling-stroke"><title>Scotts Bluff County</title></path><path id="county-31011" class="county feature" d="M483.36835000212136,239.19142859418866L483.344906374955,242.4656392570896L483.2715767442471,246.53126112802113L479.50881081535107,247.30786039173302L476.8536241677964,247.24752136513655L476.912218875809,242.34620462122314L476.9911445525741,239.07916134053687Z" style="fill: inherit; stroke: inherit; stroke-width: inherit;" vector-effect="non-scaling-stroke"><title>Boone County</title></path><path id="county-31037" class="county feature" d="M494.5531226189879,242.62058604939375L496.1316317935994,242.64062199465127L496.0802833195974,248.02794221966667L492.2786237110872,249.48467693776934L491.2275790766873,249.33371175060597L491.3365380998436,242.58111751138574Z" style="fill: inherit; stroke: inherit; stroke-width: inherit;" vector-effect="non-scaling-stroke"><title>Colfax County</title></path><path id="county-31141" class="county feature" d="M491.3365380998436,242.58111751138574L491.2275790766873,249.33371175060597L489.644310514429,249.08132853210657L486.42178003305713,250.2242464837143L486.44133595145803,249.0616694745421L484.9798019207573,249.03526472174485L485.0243269925598,246.55171704266286L483.2715767442471,246.53126112802113L483.344906374955,242.4656392570896L489.7382637534851,242.55503765086962Z" style="fill: inherit; stroke: inherit; stroke-width: inherit;" vector-effect="non-scaling-stroke"><title>Platte County</title></path><path id="county-31053" class="county feature" d="M500.98148205316545,242.6920491469334L502.5154137369257,242.7041572283058L502.5053288219717,243.79866765248005L502.50122950134977,246.80377762117575L504.08623140529943,249.27195516429265L502.11556294232446,249.2616400805864L500.7431216250917,248.4988803059308L496.0797340948548,248.08556515046553L496.0802833195974,248.02794221966667L496.1316317935994,242.64062199465127Z" style="fill: inherit; stroke: inherit; stroke-width: inherit;" vector-effect="non-scaling-stroke"><title>Dodge County</title></path><path id="county-31117" class="county feature" d="M441.7051740053557,241.03959273499333L443.5192590084118,241.14299513405274L443.17151758026694,247.64861777284887L435.45057755386676,247.21643081659954L433.5433873339074,247.0990681836455L433.9254049651603,240.56606505301545Z" style="fill: inherit; stroke: inherit; stroke-width: inherit;" vector-effect="non-scaling-stroke"><title>McPherson County</title></path><path id="county-31005" class="county feature" d="M433.9254049651603,240.56606505301545L433.5433873339074,247.0990681836455L425.5297153965701,246.63241683658111L425.9314776565808,240.102617373184L433.65759889883043,240.55382416688326Z" style="fill: inherit; stroke: inherit; stroke-width: inherit;" vector-effect="non-scaling-stroke"><title>Arthur County</title></path><path id="county-31077" class="county feature" d="M476.8536241677964,247.24752136513655L476.8142165380555,248.88182521296437L470.515408719933,248.70985522526223L470.42059821045126,248.70913607994999L470.5993076607109,242.19469990947607L476.912218875809,242.34620462122314Z" style="fill: inherit; stroke: inherit; stroke-width: inherit;" vector-effect="non-scaling-stroke"><title>Greeley County</title></path><path id="county-31041" class="county feature" d="M464.10935629563795,241.9815738576948L464.2431815854983,241.99014981192386L464.1425197046128,248.51138817737103L463.862188042256,255.04026384001418L460.81537919557854,254.94300327700319L449.6739565903683,254.4923517820746L449.5901176888149,247.95558902594746L449.88163989310567,241.4421925268524L457.67936453385266,241.75789359957332Z" style="fill: inherit; stroke: inherit; stroke-width: inherit;" vector-effect="non-scaling-stroke"><title>Custer County</title></path><path id="county-31113" class="county feature" d="M449.683305682221,241.43228896645667L449.88163989310567,241.4421925268524L449.5901176888149,247.95558902594746L443.17151758026694,247.64861777284887L443.5192590084118,241.14299513405274Z" style="fill: inherit; stroke: inherit; stroke-width: inherit;" vector-effect="non-scaling-stroke"><title>Logan County</title></path><path id="county-31175" class="county feature" d="M470.505023158939,242.19196555799158L470.5993076607109,242.19469990947607L470.42059821045126,248.70913607994999L464.1425197046128,248.51138817737103L464.2431815854983,241.99014981192386Z" style="fill: inherit; stroke: inherit; stroke-width: inherit;" vector-effect="non-scaling-stroke"><title>Valley County</title></path><path id="county-31007" class="county feature" d="M406.75885766734734,239.566830398962L406.39744790698853,244.47535533496705L406.2152679781293,245.2744775278254L396.8696821671446,244.53956665540306L397.13205338321814,241.33242386169763L397.34504041548473,238.82465363431675Z" style="fill: inherit; stroke: inherit; stroke-width: inherit;" vector-effect="non-scaling-stroke"><title>Banner County</title></path><path id="county-31177" class="county feature" d="M506.96199892302207,243.8240975367097L507.4313326855383,246.69324950963005L508.711039431182,247.13760603381684L509.5243747475093,249.3240773063461L504.08623140529943,249.27195516429265L502.50122950134977,246.80377762117575L502.5053288219717,243.79866765248005Z" style="fill: inherit; stroke: inherit; stroke-width: inherit;" vector-effect="non-scaling-stroke"><title>Washington County</title></path><path id="county-31125" class="county feature" d="M484.9798019207573,249.03526472174485L484.9259046932679,250.64826201497283L480.0851107882818,250.85391485236107L476.97528690598944,251.32521810983303L476.879079710219,248.8823763134926L476.8142165380555,248.88182521296437L476.8536241677964,247.24752136513655L479.50881081535107,247.30786039173302L483.2715767442471,246.53126112802113L485.0243269925598,246.55171704266286Z" style="fill: inherit; stroke: inherit; stroke-width: inherit;" vector-effect="non-scaling-stroke"><title>Nance County</title></path><path id="county-31023" class="county feature" d="M496.0802833195974,248.02794221966667L496.0797340948548,248.08556515046553L495.97155644664286,255.75284764270998L495.9364713022666,255.75150037262392L489.5496068145633,255.6597488086378L489.644310514429,249.08132853210657L491.2275790766873,249.33371175060597L492.2786237110872,249.48467693776934Z" style="fill: inherit; stroke: inherit; stroke-width: inherit;" vector-effect="non-scaling-stroke"><title>Butler County</title></path><path id="county-31155" class="county feature" d="M502.11556294232446,249.2616400805864L504.0980083318732,253.09622726961265L504.2039235895647,255.82724541405878L502.1706697587594,256.36302449117386L502.17334333880876,255.81584239602148L495.97155644664286,255.75284764270998L496.0797340948548,248.08556515046553L500.7431216250917,248.4988803059308Z" style="fill: inherit; stroke: inherit; stroke-width: inherit;" vector-effect="non-scaling-stroke"><title>Saunders County</title></path><path id="county-31033" class="county feature" d="M416.5429043929414,245.1988993488652L416.62659268096064,249.30668807295353L416.1896961177676,253.41256982941923L415.7391359852725,253.38308238839102L405.57254678805646,252.63202793113464L406.2152679781293,245.2744775278254L406.39744790698853,244.47535533496705Z" style="fill: inherit; stroke: inherit; stroke-width: inherit;" vector-effect="non-scaling-stroke"><title>Cheyenne County</title></path><path id="county-31101" class="county feature" d="M435.45057755386676,247.21643081659954L435.0780473635798,253.74751251925807L435.3181584432714,254.58134119746683L424.1304522157709,253.91639793593924L424.34136449482435,249.8225051857894L424.54936955954116,246.56213429525144L425.5297153965701,246.63241683658111L433.5433873339074,247.0990681836455Z" style="fill: inherit; stroke: inherit; stroke-width: inherit;" vector-effect="non-scaling-stroke"><title>Keith County</title></path><path id="county-31111" class="county feature" d="M443.17151758026694,247.64861777284887L449.5901176888149,247.95558902594746L449.6739565903683,254.4923517820746L449.3942199276701,261.00911306870285L441.6185699544929,260.6426553425089L435.03005162176567,260.33941398464947L435.3181584432714,254.58134119746683L435.0780473635798,253.74751251925807L435.45057755386676,247.21643081659954Z" style="fill: inherit; stroke: inherit; stroke-width: inherit;" vector-effect="non-scaling-stroke"><title>Lincoln County</title></path><path id="county-31143" class="county feature" d="M489.5496068145633,255.6597488086378L483.1528971164776,255.55831462629624L483.16382464609086,253.16622387005577L486.42178003305713,250.2242464837143L489.644310514429,249.08132853210657Z" style="fill: inherit; stroke: inherit; stroke-width: inherit;" vector-effect="non-scaling-stroke"><title>Polk County</title></path><path id="county-31105" class="county feature" d="M406.2152679781293,245.2744775278254L405.57254678805646,252.63202793113464L402.90101139810776,252.43152877435807L396.2254413381485,251.8885658770614L396.8696821671446,244.53956665540306Z" style="fill: inherit; stroke: inherit; stroke-width: inherit;" vector-effect="non-scaling-stroke"><title>Kimball County</title></path><path id="county-31121" class="county feature" d="M486.42178003305713,250.2242464837143L483.16382464609086,253.16622387005577L480.4537917091445,255.13850022458314L476.6980899783846,258.7018768573446L476.71165909530873,255.4229496929787L476.879079710219,248.8823763134926L476.97528690598944,251.32521810983303L480.0851107882818,250.85391485236107L484.9259046932679,250.64826201497283L484.9798019207573,249.03526472174485L486.44133595145803,249.0616694745421Z" style="fill: inherit; stroke: inherit; stroke-width: inherit;" vector-effect="non-scaling-stroke"><title>Merrick County</title></path><path id="county-31093" class="county feature" d="M476.8142165380555,248.88182521296437L476.879079710219,248.8823763134926L476.71165909530873,255.4229496929787L470.64226019875775,255.25790563159057L470.271397386516,255.2472294096283L470.515408719933,248.70985522526223Z" style="fill: inherit; stroke: inherit; stroke-width: inherit;" vector-effect="non-scaling-stroke"><title>Howard County</title></path><path id="county-31163" class="county feature" d="M470.42059821045126,248.70913607994999L470.515408719933,248.70985522526223L470.271397386516,255.2472294096283L463.862188042256,255.04026384001418L464.1425197046128,248.51138817737103Z" style="fill: inherit; stroke: inherit; stroke-width: inherit;" vector-effect="non-scaling-stroke"><title>Sherman County</title></path><path id="county-31055" class="county feature" d="M504.08623140529943,249.27195516429265L509.5243747475093,249.3240773063461L510.16450778772906,250.6480310220353L509.7269753913374,253.08747270132665L504.0980083318732,253.09622726961265L502.11556294232446,249.2616400805864Z" style="fill: inherit; stroke: inherit; stroke-width: inherit;" vector-effect="non-scaling-stroke"><title>Douglas County</title></path><path id="county-31049" class="county feature" d="M424.34136449482435,249.8225051857894L424.1304522157709,253.91639793593924L424.11863668308996,253.94402312802322L416.1896961177676,253.41256982941923L416.62659268096064,249.30668807295353Z" style="fill: inherit; stroke: inherit; stroke-width: inherit;" vector-effect="non-scaling-stroke"><title>Deuel County</title></path><path id="county-31153" class="county feature" d="M509.7269753913374,253.08747270132665L510.32312175138935,253.67037222157785L510.3456905969208,255.6758732700746L508.1850605185816,255.4381653479585L505.7561839085889,256.76006133656085L504.2039235895647,255.82724541405878L504.0980083318732,253.09622726961265Z" style="fill: inherit; stroke: inherit; stroke-width: inherit;" vector-effect="non-scaling-stroke"><title>Sarpy County</title></path><path id="county-31081" class="county feature" d="M483.1528971164776,255.55831462629624L483.0319736481335,262.11334402199986L476.67984112233466,261.9792089955788L476.61937210955017,261.9787698237303L476.6980899783846,258.7018768573446L480.4537917091445,255.13850022458314L483.16382464609086,253.16622387005577Z" style="fill: inherit; stroke: inherit; stroke-width: inherit;" vector-effect="non-scaling-stroke"><title>Hamilton County</title></path><path id="county-31025" class="county feature" d="M510.3456905969208,255.6758732700746L511.2737388786501,258.52981967897244L510.98622213372073,260.7518842122404L502.159372763164,260.7350213830339L502.1706697587594,256.36302449117386L504.2039235895647,255.82724541405878L505.7561839085889,256.76006133656085L508.1850605185816,255.4381653479585Z" style="fill: inherit; stroke: inherit; stroke-width: inherit;" vector-effect="non-scaling-stroke"><title>Cass County</title></path><path id="county-31185" class="county feature" d="M489.5496068145633,255.6597488086378L489.45013740829694,262.21918434101474L483.04708635645466,262.11363428841787L483.0319736481335,262.11334402199986L483.1528971164776,255.55831462629624Z" style="fill: inherit; stroke: inherit; stroke-width: inherit;" vector-effect="non-scaling-stroke"><title>York County</title></path><path id="county-31079" class="county feature" d="M476.71165909530873,255.4229496929787L476.6980899783846,258.7018768573446L476.61937210955017,261.9787698237303L470.46476559911696,261.80557987262205L470.64226019875775,255.25790563159057Z" style="fill: inherit; stroke: inherit; stroke-width: inherit;" vector-effect="non-scaling-stroke"><title>Hall County</title></path><path id="county-31047" class="county feature" d="M460.81537919557854,254.94300327700319L460.6812991569046,262.017943566491L457.51815580650316,261.6351280425291L452.78167323110017,261.16048998340466L449.3942199276701,261.00911306870285L449.6739565903683,254.4923517820746Z" style="fill: inherit; stroke: inherit; stroke-width: inherit;" vector-effect="non-scaling-stroke"><title>Dawson County</title></path><path id="county-31019" class="county feature" d="M470.271397386516,255.2472294096283L470.64226019875775,255.25790563159057L470.46476559911696,261.80557987262205L470.4145080468657,261.976209873378L467.8445190247712,262.5974843803433L464.0160056785556,262.2865858882453L460.6812991569046,262.017943566491L460.81537919557854,254.94300327700319L463.862188042256,255.04026384001418Z" style="fill: inherit; stroke: inherit; stroke-width: inherit;" vector-effect="non-scaling-stroke"><title>Buffalo County</title></path><path id="county-31159" class="county feature" d="M495.9364713022666,255.75150037262392L495.83837045801727,262.30700655455723L489.45013740829694,262.21918434101474L489.5496068145633,255.6597488086378Z" style="fill: inherit; stroke: inherit; stroke-width: inherit;" vector-effect="non-scaling-stroke"><title>Seward County</title></path><path id="county-31109" class="county feature" d="M502.1706697587594,256.36302449117386L502.159372763164,260.7350213830339L502.1353984456613,265.64926636876464L495.81689812544863,265.59238417343533L495.83837045801727,262.30700655455723L495.9364713022666,255.75150037262392L495.97155644664286,255.75284764270998L502.17334333880876,255.81584239602148Z" style="fill: inherit; stroke: inherit; stroke-width: inherit;" vector-effect="non-scaling-stroke"><title>Lancaster County</title></path><path id="county-31135" class="county feature" d="M435.3181584432714,254.58134119746683L435.03005162176567,260.33941398464947L433.66203537281183,260.2570178341655L423.7684430273883,259.6732619222298L423.83075686655195,258.6958860092186L424.11863668308996,253.94402312802322L424.1304522157709,253.91639793593924Z" style="fill: inherit; stroke: inherit; stroke-width: inherit;" vector-effect="non-scaling-stroke"><title>Perkins County</title></path><path id="county-31131" class="county feature" d="M510.98622213372073,260.7518842122404L510.29257421463393,261.4287285040257L511.9566392212373,264.4893534111261L512.7423855901758,265.64478639728384L507.7167101047491,265.6618137702284L502.1353984456613,265.64926636876464L502.159372763164,260.7350213830339Z" style="fill: inherit; stroke: inherit; stroke-width: inherit;" vector-effect="non-scaling-stroke"><title>Otoe County</title></path><path id="county-31063" class="county feature" d="M449.3942199276701,261.00911306870285L452.78167323110017,261.16048998340466L452.5853024469534,266.08642717760245L450.98393889589244,266.0122730496373L450.9130631938496,267.65628593171334L449.46027968752645,267.6161649942062L441.55965568411153,267.2547728806727L441.2966937501615,267.2415701745881L441.6185699544929,260.6426553425089Z" style="fill: inherit; stroke: inherit; stroke-width: inherit;" vector-effect="non-scaling-stroke"><title>Frontier County</title></path><path id="county-31001" class="county feature" d="M476.61937210955017,261.9787698237303L476.67984112233466,261.9792089955788L476.52271505868686,268.53247345135503L470.24141335548404,268.3661276086558L470.4145080468657,261.976209873378L470.46476559911696,261.80557987262205Z" style="fill: inherit; stroke: inherit; stroke-width: inherit;" vector-effect="non-scaling-stroke"><title>Adams County</title></path><path id="county-31073" class="county feature" d="M457.51815580650316,261.6351280425291L457.2873659591521,267.9169118369333L450.9130631938496,267.65628593171334L450.98393889589244,266.0122730496373L452.5853024469534,266.08642717760245L452.78167323110017,261.16048998340466Z" style="fill: inherit; stroke: inherit; stroke-width: inherit;" vector-effect="non-scaling-stroke"><title>Gosper County</title></path><path id="county-31085" class="county feature" d="M441.6185699544929,260.6426553425089L441.2966937501615,267.2415701745881L433.60238309046673,266.81104463368956L433.32928421576975,266.7977313086619L433.66203537281183,260.2570178341655L435.03005162176567,260.33941398464947Z" style="fill: inherit; stroke: inherit; stroke-width: inherit;" vector-effect="non-scaling-stroke"><title>Hayes County</title></path><path id="county-31029" class="county feature" d="M433.66203537281183,260.2570178341655L433.32928421576975,266.7977313086619L423.3508426957093,266.22321151491496L423.4597290871345,264.5153575668653L423.7684430273883,259.6732619222298Z" style="fill: inherit; stroke: inherit; stroke-width: inherit;" vector-effect="non-scaling-stroke"><title>Chase County</title></path><path id="county-31059" class="county feature" d="M489.45013740829694,262.21918434101474L489.3556954988577,268.7776990129886L482.97188606696847,268.6675324282179L482.9313875156497,268.66675572905046L483.04708635645466,262.11363428841787Z" style="fill: inherit; stroke: inherit; stroke-width: inherit;" vector-effect="non-scaling-stroke"><title>Fillmore County</title></path><path id="county-31151" class="county feature" d="M489.45013740829694,262.21918434101474L495.83837045801727,262.30700655455723L495.81689812544863,265.59238417343533L495.7500099941381,268.8666699715319L489.3556954988577,268.7776990129886Z" style="fill: inherit; stroke: inherit; stroke-width: inherit;" vector-effect="non-scaling-stroke"><title>Saline County</title></path><path id="county-31035" class="county feature" d="M483.04708635645466,262.11363428841787L482.9313875156497,268.66675572905046L476.5885186317981,268.5340495917832L476.52271505868686,268.53247345135503L476.67984112233466,261.9792089955788L483.0319736481335,262.11334402199986Z" style="fill: inherit; stroke: inherit; stroke-width: inherit;" vector-effect="non-scaling-stroke"><title>Clay County</title></path><path id="county-31099" class="county feature" d="M470.24141335548404,268.3661276086558L470.200923915869,268.3649663028567L463.8194082042479,268.16156618751677L464.0160056785556,262.2865858882453L467.8445190247712,262.5974843803433L470.4145080468657,261.976209873378Z" style="fill: inherit; stroke: inherit; stroke-width: inherit;" vector-effect="non-scaling-stroke"><title>Kearney County</title></path><path id="county-31137" class="county feature" d="M460.6812991569046,262.017943566491L464.0160056785556,262.2865858882453L463.8194082042479,268.16156618751677L457.45931159829894,267.9255196563888L457.2873659591521,267.9169118369333L457.51815580650316,261.6351280425291Z" style="fill: inherit; stroke: inherit; stroke-width: inherit;" vector-effect="non-scaling-stroke"><title>Phelps County</title></path><path id="county-31127" class="county feature" d="M514.9472203570501,270.5152268791727L514.9829628564619,270.56971406780076L508.51422679703336,270.5916803484106L507.7183088432408,270.58123655066913L507.7167101047491,265.6618137702284L512.7423855901758,265.64478639728384L514.1120701075516,269.58773908978276Z" style="fill: inherit; stroke: inherit; stroke-width: inherit;" vector-effect="non-scaling-stroke"><title>Nemaha County</title></path><path id="county-31067" class="county feature" d="M502.1353984456613,265.64926636876464L502.1114238501076,270.563568349257L502.0874198996992,275.4838874748672L497.23861857261915,275.4434082326562L495.67156042119944,275.428199495768L495.7500099941381,268.8666699715319L495.81689812544863,265.59238417343533Z" style="fill: inherit; stroke: inherit; stroke-width: inherit;" vector-effect="non-scaling-stroke"><title>Gage County</title></path><path id="county-31097" class="county feature" d="M507.7167101047491,265.6618137702284L507.7183088432408,270.58123655066913L502.1114238501076,270.563568349257L502.1353984456613,265.64926636876464Z" style="fill: inherit; stroke: inherit; stroke-width: inherit;" vector-effect="non-scaling-stroke"><title>Johnson County</title></path><path id="county-31181" class="county feature" d="M476.52271505868686,268.53247345135503L476.5885186317981,268.5340495917832L476.42670650919524,275.08390808797014L473.161051719643,275.00888357351425L470.01789563258137,274.92034221988285L470.200923915869,268.3649663028567L470.24141335548404,268.3661276086558Z" style="fill: inherit; stroke: inherit; stroke-width: inherit;" vector-effect="non-scaling-stroke"><title>Webster County</title></path><path id="county-31061" class="county feature" d="M470.200923915869,268.3649663028567L470.01789563258137,274.92034221988285L465.18648497062895,274.7740529448836L463.5997411298829,274.72594214828814L463.8194082042479,268.16156618751677Z" style="fill: inherit; stroke: inherit; stroke-width: inherit;" vector-effect="non-scaling-stroke"><title>Franklin County</title></path><path id="county-31129" class="county feature" d="M482.9313875156497,268.66675572905046L482.97188606696847,268.6675324282179L482.83588859761915,275.2331704807608L481.2792489636372,275.2024285579895L476.42670650919524,275.08390808797014L476.5885186317981,268.5340495917832Z" style="fill: inherit; stroke: inherit; stroke-width: inherit;" vector-effect="non-scaling-stroke"><title>Nuckolls County</title></path><path id="county-31057" class="county feature" d="M433.60238309046673,266.81104463368956L433.204945814373,273.35394655851474L431.99067951271024,273.2883269479639L422.9307571612555,272.7321751955095L423.3508426957093,266.22321151491496L433.32928421576975,266.7977313086619Z" style="fill: inherit; stroke: inherit; stroke-width: inherit;" vector-effect="non-scaling-stroke"><title>Dundy County</title></path><path id="county-31065" class="county feature" d="M457.2873659591521,267.9169118369333L457.45931159829894,267.9255196563888L457.23845114835376,274.5041043133431L449.45501808521874,274.1883409757945L449.23144875453113,274.1764619995107L449.46027968752645,267.6161649942062L450.9130631938496,267.65628593171334Z" style="fill: inherit; stroke: inherit; stroke-width: inherit;" vector-effect="non-scaling-stroke"><title>Furnas County</title></path><path id="county-31169" class="county feature" d="M489.3556954988577,268.7776990129886L489.25098015442114,275.3428988068174L482.83588859761915,275.2331704807608L482.97188606696847,268.6675324282179Z" style="fill: inherit; stroke: inherit; stroke-width: inherit;" vector-effect="non-scaling-stroke"><title>Thayer County</title></path><path id="county-31095" class="county feature" d="M489.3556954988577,268.7776990129886L495.7500099941381,268.8666699715319L495.67156042119944,275.428199495768L489.25098015442114,275.3428988068174Z" style="fill: inherit; stroke: inherit; stroke-width: inherit;" vector-effect="non-scaling-stroke"><title>Jefferson County</title></path><path id="county-31145" class="county feature" d="M449.46027968752645,267.6161649942062L449.23144875453113,274.1764619995107L441.50652465260276,273.805067208232L441.22718339336507,273.7880569459436L441.55965568411153,267.2547728806727Z" style="fill: inherit; stroke: inherit; stroke-width: inherit;" vector-effect="non-scaling-stroke"><title>Red Willow County</title></path><path id="county-31087" class="county feature" d="M441.2966937501615,267.2415701745881L441.55965568411153,267.2547728806727L441.22718339336507,273.7880569459436L433.204945814373,273.35394655851474L433.60238309046673,266.81104463368956Z" style="fill: inherit; stroke: inherit; stroke-width: inherit;" vector-effect="non-scaling-stroke"><title>Hitchcock County</title></path><path id="county-31083" class="county feature" d="M463.8194082042479,268.16156618751677L463.5997411298829,274.72594214828814L457.27912606649727,274.5056572321812L457.23845114835376,274.5041043133431L457.45931159829894,267.9255196563888Z" style="fill: inherit; stroke: inherit; stroke-width: inherit;" vector-effect="non-scaling-stroke"><title>Harlan County</title></path><path id="county-31133" class="county feature" d="M507.7183088432408,270.58123655066913L508.51422679703336,270.5916803484106L508.5086035915571,275.5069981267702L505.26746631181163,275.49868542011313L502.0874198996992,275.4838874748672L502.1114238501076,270.563568349257Z" style="fill: inherit; stroke: inherit; stroke-width: inherit;" vector-effect="non-scaling-stroke"><title>Pawnee County</title></path><path id="county-31147" class="county feature" d="M514.9829628564619,270.56971406780076L517.1944125191194,273.1365410557794L516.8619807962244,274.4312698694364L518.4661134873296,275.48347173441243L518.0183636427603,275.48665604860037L511.6632626551578,275.5077095168334L508.5086035915571,275.5069981267702L508.51422679703336,270.5916803484106Z" style="fill: inherit; stroke: inherit; stroke-width: inherit;" vector-effect="non-scaling-stroke"><title>Richardson County</title></path></g><path id="counties-mesh" class="counties mesh" d="M426.10009615058067,216.436041481115L425.6528413410378,226.87293914793668L426.0253933327577,226.89973239508504L425.59685552655685,233.40150450616966L426.0646826479497,233.43827743442557L425.1319997797126,235.02184468678695L416.72879418271197,234.53154321703482L416.44695183295937,234.52079395560918L415.947084112583,232.83360122106671L416.31702909907074,226.31034435633717L415.9934761401913,226.28728792764207L416.45553888161976,219.81449694118146L416.4851047317584,215.7716720695031M415.9934761401913,226.28728792764207L406.8248975873412,225.6478242084063M477.23519234464345,220.88909939156872L477.24819155756427,223.17252001020063L473.4578959172136,222.72574656174413L469.27693835883986,221.3595562712842L468.49840822781306,220.45739940932253L464.2983714832549,221.98180942412307L464.4523427559965,218.34484417212514M477.24819155756427,223.17252001020063L477.1643236347516,229.2649860053408L477.00101447743907,235.8071575093852L470.66549189285763,235.644472756538L464.31582068530764,235.45563801885874L464.15293777751464,235.44909196568074L464.44562236326846,222.3967757089688L464.2983714832549,221.98180942412307L460.4268703791249,223.47313755418372L458.5238943323921,223.1524284753947L452.37163127435,221.45216258080188L451.52912982934816,220.6960922271311L451.6556944506987,217.8327098881466M451.52912982934816,220.6960922271311L451.3225834943676,234.98966089579233L449.94598413461375,234.92246807562844L441.9940442644506,234.50248976796388L434.0225169136234,233.99539987210767L426.0646826479497,233.43827743442557M488.4502078076428,221.72052788148437L488.3244360710561,229.4559571525224L483.5427165503429,229.38860001454236L477.1643236347516,229.2649860053408M494.8075730925721,223.470281502303L494.7054364246305,231.1798976809721L489.9079553054288,231.10958597446995L489.93638017560585,229.4761102171267L488.3244360710561,229.4559571525224M458.5238943323921,223.1524284753947L458.2672160971645,235.27284498499284L457.9316340098977,235.25784223068547L451.3225834943676,234.98966089579233M464.15293777751464,235.44909196568074L458.2672160971645,235.27284498499284M500.0267861062211,227.97387361453661L498.78494950321766,227.95897458194395L498.6856842164114,232.59490912352715L497.36819349466185,232.8417028923941L494.6879493247124,232.81272175402512L494.7054364246305,231.1798976809721M406.39744790698853,244.47535533496705L406.2152679781293,245.2744775278254L396.8696821671446,244.53956665540306L397.13205338321814,241.33242386169763L397.34504041548473,238.82465363431675L397.82861806359557,233.13087211319078M503.76937043896567,232.65215350484914L498.6856842164114,232.59490912352715M489.9079553054288,231.10958597446995L489.8274695423423,236.0153691911746L483.4164361497982,235.93057115302656L483.5427165503429,229.38860001454236M416.44695183295937,234.52079395560918L407.3050961834225,233.8777752773567L406.77342779355854,233.8252490137843M483.4164361497982,235.93057115302656L483.36835000212136,239.19142859418866L476.9911445525741,239.07916134053687L477.00101447743907,235.8071575093852M406.85121221606715,215.03261520074886L406.84845756515017,219.09782314475012L406.33973928690557,225.61066709598822L406.8248975873412,225.6478242084063L406.3198168030337,232.14616647751131L406.77342779355854,233.8252490137843L397.82861806359557,233.13087211319078L398.799003976755,221.70527086322966L399.4137638550875,214.3517069982944L406.85121221606715,215.03261520074886L413.66114515100406,215.55325227539038L416.4851047317584,215.7716720695031L426.10009615058067,216.436041481115L437.6855151010019,217.15350471704267L451.6556944506987,217.8327098881466L460.6667020596179,218.21158691641597L464.4523427559965,218.34484417212514L474.72956609397437,218.64492335480895L477.23519234464345,220.88909939156872L479.34517551166965,221.75816071635336L480.9320350828023,223.20212876342305L482.03923399937435,223.13250262048803L483.24151111442046,221.45306254561092L486.39890433838036,221.6646510138794L488.4502078076428,221.72052788148437L490.85813292677204,221.4319967574511L492.8547782298298,222.7324184872274L494.8075730925721,223.470281502303L497.66494511432506,224.5775501632976L499.13116553896185,225.6004737478919L500.0267861062211,227.97387361453661L502.5418807104705,228.63728835048823L503.2192314442764,228.73318021345392L503.01597646846324,231.43526888075053L503.76937043896567,232.65215350484914L503.7601003324395,233.80951289950212L504.98232743659986,235.77405255208748L504.9048326699775,236.96685217207641L504.37399668563467,237.5693480433755L501.0165235008472,237.53990879861897L501.01477093002376,236.14780563531951L497.32506108755206,236.11295203070586M434.0225169136234,233.99539987210767L433.65759889883043,240.55382416688326L425.9314776565808,240.102617373184L424.79172834379096,240.03430003758456L425.1319997797126,235.02184468678695M441.9940442644506,234.50248976796388L441.7051740053557,241.03959273499333L433.9254049651603,240.56606505301545L433.65759889883043,240.55382416688326M501.0165235008472,237.53990879861897L500.98148205316545,242.6920491469334L496.1316317935994,242.64062199465127L494.5531226189879,242.62058604939375L494.63315738861945,236.08382166749254M497.36819349466185,232.8417028923941L497.32506108755206,236.11295203070586L494.63315738861945,236.08382166749254L489.8274695423423,236.0153691911746L489.7382637534851,242.55503765086962L483.344906374955,242.4656392570896L483.36835000212136,239.19142859418866M494.5531226189879,242.62058604939375L491.3365380998436,242.58111751138574L489.7382637534851,242.55503765086962M449.94598413461375,234.92246807562844L449.683305682221,241.43228896645667L443.5192590084118,241.14299513405274L441.7051740053557,241.03959273499333M476.9911445525741,239.07916134053687L476.912218875809,242.34620462122314L470.5993076607109,242.19469990947607L470.505023158939,242.19196555799158L470.66549189285763,235.644472756538M457.9316340098977,235.25784223068547L457.67936453385266,241.75789359957332L449.88163989310567,241.4421925268524L449.683305682221,241.43228896645667M464.31582068530764,235.45563801885874L464.10935629563795,241.9815738576948L457.67936453385266,241.75789359957332M470.505023158939,242.19196555799158L464.2431815854983,241.99014981192386L464.10935629563795,241.9815738576948M504.9048326699775,236.96685217207641L506.8404314034172,238.34292017655707L506.74345495063517,240.37467938098087L507.75843809237654,241.67124061735262L506.96199892302207,243.8240975367097L502.5053288219717,243.79866765248005L502.5154137369257,242.7041572283058L500.98148205316545,242.6920491469334M425.9314776565808,240.102617373184L425.5297153965701,246.63241683658111L424.54936955954116,246.56213429525144L424.34136449482435,249.8225051857894L416.62659268096064,249.30668807295353L416.5429043929414,245.1988993488652L416.9471803939746,239.48998491779287L416.4450574576731,238.3515231184051L416.72879418271197,234.53154321703482M416.5429043929414,245.1988993488652L406.39744790698853,244.47535533496705L406.75885766734734,239.566830398962L407.3050961834225,233.8777752773567M406.75885766734734,239.566830398962L397.34504041548473,238.82465363431675M483.344906374955,242.4656392570896L483.2715767442471,246.53126112802113L479.50881081535107,247.30786039173302L476.8536241677964,247.24752136513655L476.912218875809,242.34620462122314M496.1316317935994,242.64062199465127L496.0802833195974,248.02794221966667L492.2786237110872,249.48467693776934L491.2275790766873,249.33371175060597L491.3365380998436,242.58111751138574M491.2275790766873,249.33371175060597L489.644310514429,249.08132853210657L486.42178003305713,250.2242464837143L486.44133595145803,249.0616694745421L484.9798019207573,249.03526472174485L485.0243269925598,246.55171704266286L483.2715767442471,246.53126112802113M502.5053288219717,243.79866765248005L502.50122950134977,246.80377762117575L504.08623140529943,249.27195516429265L502.11556294232446,249.2616400805864L500.7431216250917,248.4988803059308L496.0797340948548,248.08556515046553L496.0802833195974,248.02794221966667M443.5192590084118,241.14299513405274L443.17151758026694,247.64861777284887L435.45057755386676,247.21643081659954L433.5433873339074,247.0990681836455L433.9254049651603,240.56606505301545M433.5433873339074,247.0990681836455L425.5297153965701,246.63241683658111M476.8536241677964,247.24752136513655L476.8142165380555,248.88182521296437L470.515408719933,248.70985522526223L470.42059821045126,248.70913607994999L470.5993076607109,242.19469990947607M464.2431815854983,241.99014981192386L464.1425197046128,248.51138817737103L463.862188042256,255.04026384001418L460.81537919557854,254.94300327700319L449.6739565903683,254.4923517820746L449.5901176888149,247.95558902594746L449.88163989310567,241.4421925268524M449.5901176888149,247.95558902594746L443.17151758026694,247.64861777284887M470.42059821045126,248.70913607994999L464.1425197046128,248.51138817737103M506.96199892302207,243.8240975367097L507.4313326855383,246.69324950963005L508.711039431182,247.13760603381684L509.5243747475093,249.3240773063461L504.08623140529943,249.27195516429265M405.57254678805646,252.63202793113464L402.90101139810776,252.43152877435807L396.2254413381485,251.8885658770614L396.8696821671446,244.53956665540306M484.9798019207573,249.03526472174485L484.9259046932679,250.64826201497283L480.0851107882818,250.85391485236107L476.97528690598944,251.32521810983303L476.879079710219,248.8823763134926L476.8142165380555,248.88182521296437M496.0797340948548,248.08556515046553L495.97155644664286,255.75284764270998L495.9364713022666,255.75150037262392L489.5496068145633,255.6597488086378L489.644310514429,249.08132853210657M502.11556294232446,249.2616400805864L504.0980083318732,253.09622726961265L504.2039235895647,255.82724541405878L502.1706697587594,256.36302449117386L502.17334333880876,255.81584239602148L495.97155644664286,255.75284764270998M416.62659268096064,249.30668807295353L416.1896961177676,253.41256982941923L415.7391359852725,253.38308238839102L405.57254678805646,252.63202793113464L406.2152679781293,245.2744775278254M435.45057755386676,247.21643081659954L435.0780473635798,253.74751251925807L435.3181584432714,254.58134119746683L424.1304522157709,253.91639793593924L424.34136449482435,249.8225051857894M449.6739565903683,254.4923517820746L449.3942199276701,261.00911306870285L441.6185699544929,260.6426553425089L435.03005162176567,260.33941398464947L435.3181584432714,254.58134119746683M489.5496068145633,255.6597488086378L483.1528971164776,255.55831462629624L483.16382464609086,253.16622387005577L486.42178003305713,250.2242464837143M483.16382464609086,253.16622387005577L480.4537917091445,255.13850022458314L476.6980899783846,258.7018768573446L476.71165909530873,255.4229496929787L476.879079710219,248.8823763134926M476.71165909530873,255.4229496929787L470.64226019875775,255.25790563159057L470.271397386516,255.2472294096283L470.515408719933,248.70985522526223M470.271397386516,255.2472294096283L463.862188042256,255.04026384001418M509.7269753913374,253.08747270132665L504.0980083318732,253.09622726961265M424.1304522157709,253.91639793593924L424.11863668308996,253.94402312802322L416.1896961177676,253.41256982941923M509.5243747475093,249.3240773063461L510.16450778772906,250.6480310220353L509.7269753913374,253.08747270132665L510.32312175138935,253.67037222157785L510.3456905969208,255.6758732700746L508.1850605185816,255.4381653479585L505.7561839085889,256.76006133656085L504.2039235895647,255.82724541405878M483.1528971164776,255.55831462629624L483.0319736481335,262.11334402199986L476.67984112233466,261.9792089955788L476.61937210955017,261.9787698237303L476.6980899783846,258.7018768573446M510.3456905969208,255.6758732700746L511.2737388786501,258.52981967897244L510.98622213372073,260.7518842122404L502.159372763164,260.7350213830339L502.1706697587594,256.36302449117386M489.5496068145633,255.6597488086378L489.45013740829694,262.21918434101474L483.04708635645466,262.11363428841787L483.0319736481335,262.11334402199986M476.61937210955017,261.9787698237303L470.46476559911696,261.80557987262205L470.64226019875775,255.25790563159057M460.81537919557854,254.94300327700319L460.6812991569046,262.017943566491L457.51815580650316,261.6351280425291L452.78167323110017,261.16048998340466L449.3942199276701,261.00911306870285M470.46476559911696,261.80557987262205L470.4145080468657,261.976209873378L467.8445190247712,262.5974843803433L464.0160056785556,262.2865858882453L460.6812991569046,262.017943566491M502.159372763164,260.7350213830339L502.1353984456613,265.64926636876464L495.81689812544863,265.59238417343533L495.83837045801727,262.30700655455723M435.03005162176567,260.33941398464947L433.66203537281183,260.2570178341655L423.7684430273883,259.6732619222298L423.83075686655195,258.6958860092186L424.11863668308996,253.94402312802322M433.32928421576975,266.7977313086619L423.3508426957093,266.22321151491496L423.4597290871345,264.5153575668653L423.7684430273883,259.6732619222298M452.78167323110017,261.16048998340466L452.5853024469534,266.08642717760245L450.98393889589244,266.0122730496373L450.9130631938496,267.65628593171334L449.46027968752645,267.6161649942062L441.55965568411153,267.2547728806727L441.2966937501615,267.2415701745881L441.6185699544929,260.6426553425089M476.67984112233466,261.9792089955788L476.52271505868686,268.53247345135503L470.24141335548404,268.3661276086558L470.4145080468657,261.976209873378M457.51815580650316,261.6351280425291L457.2873659591521,267.9169118369333L450.9130631938496,267.65628593171334M441.2966937501615,267.2415701745881L433.60238309046673,266.81104463368956L433.32928421576975,266.7977313086619L433.66203537281183,260.2570178341655M495.9364713022666,255.75150037262392L495.83837045801727,262.30700655455723L489.45013740829694,262.21918434101474L489.3556954988577,268.7776990129886L482.97188606696847,268.6675324282179L482.9313875156497,268.66675572905046L483.04708635645466,262.11363428841787M482.9313875156497,268.66675572905046L476.5885186317981,268.5340495917832L476.52271505868686,268.53247345135503M470.24141335548404,268.3661276086558L470.200923915869,268.3649663028567L463.8194082042479,268.16156618751677L464.0160056785556,262.2865858882453M470.01789563258137,274.92034221988285L465.18648497062895,274.7740529448836L463.5997411298829,274.72594214828814L463.8194082042479,268.16156618751677L457.45931159829894,267.9255196563888L457.2873659591521,267.9169118369333M512.7423855901758,265.64478639728384L514.1120701075516,269.58773908978276L514.9472203570501,270.5152268791727L514.9829628564619,270.56971406780076L508.51422679703336,270.5916803484106L507.7183088432408,270.58123655066913L507.7167101047491,265.6618137702284M510.98622213372073,260.7518842122404L510.29257421463393,261.4287285040257L511.9566392212373,264.4893534111261L512.7423855901758,265.64478639728384L507.7167101047491,265.6618137702284L502.1353984456613,265.64926636876464L502.1114238501076,270.563568349257L502.0874198996992,275.4838874748672L497.23861857261915,275.4434082326562L495.67156042119944,275.428199495768L495.7500099941381,268.8666699715319M507.7183088432408,270.58123655066913L502.1114238501076,270.563568349257M433.60238309046673,266.81104463368956L433.204945814373,273.35394655851474L431.99067951271024,273.2883269479639L422.9307571612555,272.7321751955095L423.3508426957093,266.22321151491496M476.5885186317981,268.5340495917832L476.42670650919524,275.08390808797014L473.161051719643,275.00888357351425L470.01789563258137,274.92034221988285L470.200923915869,268.3649663028567M482.97188606696847,268.6675324282179L482.83588859761915,275.2331704807608L481.2792489636372,275.2024285579895L476.42670650919524,275.08390808797014M457.45931159829894,267.9255196563888L457.23845114835376,274.5041043133431L449.45501808521874,274.1883409757945L449.23144875453113,274.1764619995107L449.46027968752645,267.6161649942062M495.81689812544863,265.59238417343533L495.7500099941381,268.8666699715319L489.3556954988577,268.7776990129886L489.25098015442114,275.3428988068174L482.83588859761915,275.2331704807608M495.67156042119944,275.428199495768L489.25098015442114,275.3428988068174M449.23144875453113,274.1764619995107L441.50652465260276,273.805067208232L441.22718339336507,273.7880569459436L441.55965568411153,267.2547728806727M441.22718339336507,273.7880569459436L433.204945814373,273.35394655851474M463.5997411298829,274.72594214828814L457.27912606649727,274.5056572321812L457.23845114835376,274.5041043133431M508.51422679703336,270.5916803484106L508.5086035915571,275.5069981267702L505.26746631181163,275.49868542011313L502.0874198996992,275.4838874748672M514.9829628564619,270.56971406780076L517.1944125191194,273.1365410557794L516.8619807962244,274.4312698694364L518.4661134873296,275.48347173441243L518.0183636427603,275.48665604860037L511.6632626551578,275.5077095168334L508.5086035915571,275.5069981267702" style="fill: inherit; stroke: inherit; stroke-width: inherit;" vector-effect="non-scaling-stroke"></path></svg>