<?xml version="1.0" standalone="yes"?>
<svg xmlns="http://www.w3.org/2000/svg" version="1.2" baseProfile="tiny" id="root" viewBox="815.8776628038638 125.57005970777033 39.66802049289369 66.74259186792484"><style>
@import url("../../css/svg.css");</style><rect id="bbox" class="bbox" x="815.8776628038638" y="125.57005970777033" width="39.66802049289369" height="66.74259186792484"></rect><g id="counties"><path id="county-33007" class="county feature" d="M837.9180711210327,151.43207261006296L837.7305767257047,152.39319892150263L834.9941061012992,153.00051677183194L834.5497011825207,156.0658565151532L833.0434572907495,154.14313085062645L830.7747687833217,153.91402362804934L827.6349468211611,151.8114730351482L829.564630540011,149.38410871462395L829.7020344935302,147.8080824378428L827.7076186715572,145.15876184635783L828.6890757613623,141.74412265146975L828.1174958140455,139.92927180940228L828.6752664558749,134.86922930926437L829.4895892832483,134.00592344811128L831.5381599917375,134.62488608241597L832.0118058083829,133.24162199143984L835.0043092034302,142.17761995479407Z" vector-effect="non-scaling-stroke"><title>Coos County</title></path><path id="county-33009" class="county feature" d="M833.0434572907495,154.14313085062645L835.1620134765997,159.3292667801885L832.6413847199074,160.43020473446063L833.671755839419,162.642913596354L834.1263447259413,163.83886233170233L832.5242394329596,164.57841161657882L832.0849586333719,166.96573456978672L830.9988371980016,167.6111388517695L830.2730835208192,166.50979444412746L829.545000505829,168.30580833275633L824.0683991636129,168.32194852540954L823.9675081791255,166.49604461892602L824.8938735519387,164.8010698722528L825.2475782146521,157.2654125980755L824.5713738698182,154.2567728265309L826.9597651003913,153.1056663873951L827.6349468211611,151.8114730351482L830.7747687833217,153.91402362804934Z" vector-effect="non-scaling-stroke"><title>Grafton County</title></path><path id="county-33003" class="county feature" d="M837.9180711210327,151.43207261006296L840.6021984355777,160.3102893863013L842.1632746181313,164.7289774817467L839.550579198858,165.46196070818735L838.1261988223619,165.2069333498655L833.671755839419,162.642913596354L832.6413847199074,160.43020473446063L835.1620134765997,159.3292667801885L833.0434572907495,154.14313085062645L834.5497011825207,156.0658565151532L834.9941061012992,153.00051677183194L837.7305767257047,152.39319892150263Z" vector-effect="non-scaling-stroke"><title>Carroll County</title></path><path id="county-33001" class="county feature" d="M839.550579198858,165.46196070818735L840.4871986034908,168.77653515406814L839.8421460992645,170.32931413079484L834.8280472181928,168.34723721133696L834.3491917373012,168.86906539660959L832.0849586333719,166.96573456978672L832.5242394329596,164.57841161657882L834.1263447259413,163.83886233170233L833.671755839419,162.642913596354L838.1261988223619,165.2069333498655Z" vector-effect="non-scaling-stroke"><title>Belknap County</title></path><path id="county-33013" class="county feature" d="M832.0849586333719,166.96573456978672L834.3491917373012,168.86906539660959L834.8280472181928,168.34723721133696L839.8421460992645,170.32931413079484L839.7429186137172,170.5602755584498L839.1220129812209,175.87783437120834L837.1763772661066,175.22748820247295L835.6355274994199,175.9180755464106L834.8189554610854,174.2219639697123L832.5284446093683,175.5423758314978L831.3465283797519,174.06531163766363L830.1810281097689,174.74253385812062L828.4877779345845,172.56831938604023L828.4080371504544,170.2927223985538L829.545000505829,168.30580833275633L830.2730835208192,166.50979444412746L830.9988371980016,167.6111388517695Z" vector-effect="non-scaling-stroke"><title>Merrimack County</title></path><path id="county-33019" class="county feature" d="M829.545000505829,168.30580833275633L828.4080371504544,170.2927223985538L828.4877779345845,172.56831938604023L830.1810281097689,174.74253385812062L830.0764126763322,175.91505019776264L828.2188951113643,176.33064647985577L828.2733469021623,175.34752125960597L824.4954848215265,176.7100508996848L824.4040748148695,175.33832194645834L823.5492250875334,169.00693840327665L824.0683991636129,168.32194852540954Z" vector-effect="non-scaling-stroke"><title>Sullivan County</title></path><path id="county-33017" class="county feature" d="M842.1632746181313,164.7289774817467L842.6312305262306,167.71145009642055L845.7034947849771,169.90623688704466L845.8888016331716,171.62909655945919L845.3769489146661,172.7739630219536L842.9687851375595,173.4375896893979L843.291190834716,172.25546851227807L839.7429186137172,170.5602755584498L839.8421460992645,170.32931413079484L840.4871986034908,168.77653515406814L839.550579198858,165.46196070818735Z" vector-effect="non-scaling-stroke"><title>Strafford County</title></path><path id="county-33015" class="county feature" d="M845.3769489146661,172.7739630219536L846.0922253610694,171.8957616273458L847.874121013088,172.86302953550626L847.3291595067001,176.343020725492L844.5907559159639,177.3314765174988L844.4048049040045,178.40954493630147L842.3372439080031,180.20051904534625L839.5488985258694,179.3412942465652L838.7248809946794,177.50427517508524L839.1220129812209,175.87783437120834L839.7429186137172,170.5602755584498L843.291190834716,172.25546851227807L842.9687851375595,173.4375896893979Z" vector-effect="non-scaling-stroke"><title>Rockingham County</title></path><path id="county-33011" class="county feature" d="M839.1220129812209,175.87783437120834L838.7248809946794,177.50427517508524L839.5488985258694,179.3412942465652L842.3372439080031,180.20051904534625L842.2318156594837,180.35602453780984L841.9143811641782,181.19975701552528L833.870894384906,183.03094040631174L833.4690157193055,183.11938550933473L831.3629543495323,179.1687270960482L830.6169034235993,179.3432288843219L830.0764126763322,175.91505019776264L830.1810281097689,174.74253385812062L831.3465283797519,174.06531163766363L832.5284446093683,175.5423758314978L834.8189554610854,174.2219639697123L835.6355274994199,175.9180755464106L837.1763772661066,175.22748820247295Z" vector-effect="non-scaling-stroke"><title>Hillsborough County</title></path><path id="county-33005" class="county feature" d="M830.0764126763322,175.91505019776264L830.6169034235993,179.3432288843219L831.3629543495323,179.1687270960482L833.4690157193055,183.11938550933473L828.7507541111852,184.15094505601598L826.4058202313613,184.64108929202564L824.5402952590764,182.64430355768445L825.2865305028381,179.41978859682467L824.4954848215265,176.7100508996848L828.2733469021623,175.34752125960597L828.2188951113643,176.33064647985577Z" vector-effect="non-scaling-stroke"><title>Cheshire County</title></path></g><path id="counties-mesh" class="counties mesh" d="M833.0434572907495,154.14313085062645L835.1620134765997,159.3292667801885L832.6413847199074,160.43020473446063L833.671755839419,162.642913596354L834.1263447259413,163.83886233170233L832.5242394329596,164.57841161657882L832.0849586333719,166.96573456978672L830.9988371980016,167.6111388517695L830.2730835208192,166.50979444412746L829.545000505829,168.30580833275633L824.0683991636129,168.32194852540954L823.9675081791255,166.49604461892602L824.8938735519387,164.8010698722528L825.2475782146521,157.2654125980755L824.5713738698182,154.2567728265309L826.9597651003913,153.1056663873951L827.6349468211611,151.8114730351482M837.9180711210327,151.43207261006296L837.7305767257047,152.39319892150263L834.9941061012992,153.00051677183194L834.5497011825207,156.0658565151532L833.0434572907495,154.14313085062645L830.7747687833217,153.91402362804934L827.6349468211611,151.8114730351482L829.564630540011,149.38410871462395L829.7020344935302,147.8080824378428L827.7076186715572,145.15876184635783L828.6890757613623,141.74412265146975L828.1174958140455,139.92927180940228L828.6752664558749,134.86922930926437L829.4895892832483,134.00592344811128L831.5381599917375,134.62488608241597L832.0118058083829,133.24162199143984L835.0043092034302,142.17761995479407L837.9180711210327,151.43207261006296L840.6021984355777,160.3102893863013L842.1632746181313,164.7289774817467L839.550579198858,165.46196070818735L838.1261988223619,165.2069333498655L833.671755839419,162.642913596354M830.1810281097689,174.74253385812062L830.0764126763322,175.91505019776264L828.2188951113643,176.33064647985577L828.2733469021623,175.34752125960597L824.4954848215265,176.7100508996848L824.4040748148695,175.33832194645834L823.5492250875334,169.00693840327665L824.0683991636129,168.32194852540954M839.550579198858,165.46196070818735L840.4871986034908,168.77653515406814L839.8421460992645,170.32931413079484L834.8280472181928,168.34723721133696L834.3491917373012,168.86906539660959L832.0849586333719,166.96573456978672M839.8421460992645,170.32931413079484L839.7429186137172,170.5602755584498L839.1220129812209,175.87783437120834L837.1763772661066,175.22748820247295L835.6355274994199,175.9180755464106L834.8189554610854,174.2219639697123L832.5284446093683,175.5423758314978L831.3465283797519,174.06531163766363L830.1810281097689,174.74253385812062L828.4877779345845,172.56831938604023L828.4080371504544,170.2927223985538L829.545000505829,168.30580833275633M842.1632746181313,164.7289774817467L842.6312305262306,167.71145009642055L845.7034947849771,169.90623688704466L845.8888016331716,171.62909655945919L845.3769489146661,172.7739630219536L842.9687851375595,173.4375896893979L843.291190834716,172.25546851227807L839.7429186137172,170.5602755584498M845.3769489146661,172.7739630219536L846.0922253610694,171.8957616273458L847.874121013088,172.86302953550626L847.3291595067001,176.343020725492L844.5907559159639,177.3314765174988L844.4048049040045,178.40954493630147L842.3372439080031,180.20051904534625L839.5488985258694,179.3412942465652L838.7248809946794,177.50427517508524L839.1220129812209,175.87783437120834M833.4690157193055,183.11938550933473L828.7507541111852,184.15094505601598L826.4058202313613,184.64108929202564L824.5402952590764,182.64430355768445L825.2865305028381,179.41978859682467L824.4954848215265,176.7100508996848M842.3372439080031,180.20051904534625L842.2318156594837,180.35602453780984L841.9143811641782,181.19975701552528L833.870894384906,183.03094040631174L833.4690157193055,183.11938550933473L831.3629543495323,179.1687270960482L830.6169034235993,179.3432288843219L830.0764126763322,175.91505019776264" vector-effect="non-scaling-stroke"></path></svg>