<svg xmlns="http://www.w3.org/2000/svg" version="1.2" id="root" viewBox="823.5492250875334 133.24162199143984 24.324895925554642 51.3994673005858"><g id="counties"><path id="county-33007" class="county feature" d="M837.918 151.432l-.187.961-2.737.608-.444 3.065-1.507-1.923-2.268-.229-3.14-2.103 1.93-2.427.137-1.576-1.994-2.65.981-3.414-.572-1.815.558-5.06.815-.863 2.048.619.474-1.383 2.992 8.936z" vector-effect="non-scaling-stroke" fill="inherit" stroke="inherit" stroke-width="inherit"><title>Coos County</title></path><path id="county-33009" class="county feature" d="M833.043 154.143l2.119 5.186-2.52 1.101 1.03 2.213.454 1.196-1.602.74-.439 2.387-1.086.645-.726-1.101-.728 1.796-5.477.016-.1-1.826.926-1.695.354-7.536-.677-3.008 2.389-1.151.675-1.295 3.14 2.103z" vector-effect="non-scaling-stroke" fill="inherit" stroke="inherit" stroke-width="inherit"><title>Grafton County</title></path><path id="county-33003" class="county feature" d="M837.918 151.432l2.684 8.878 1.561 4.419-2.612.733-1.425-.255-4.454-2.564-1.03-2.213 2.52-1.1-2.119-5.187 1.507 1.923.444-3.065 2.737-.608z" vector-effect="non-scaling-stroke" fill="inherit" stroke="inherit" stroke-width="inherit"><title>Carroll County</title></path><path id="county-33001" class="county feature" d="M839.55 165.462l.937 3.315-.645 1.552-5.014-1.982-.479.522-2.264-1.903.44-2.388 1.601-.74-.454-1.195 4.454 2.564z" vector-effect="non-scaling-stroke" fill="inherit" stroke="inherit" stroke-width="inherit"><title>Belknap County</title></path><path id="county-33013" class="county feature" d="M832.085 166.966l2.264 1.903.479-.522 5.014 1.982-.1.231-.62 5.318-1.946-.65-1.54.69-.817-1.696-2.29 1.32-1.182-1.477-1.166.678-1.693-2.175-.08-2.275 1.137-1.987.728-1.796.726 1.101z" vector-effect="non-scaling-stroke" fill="inherit" stroke="inherit" stroke-width="inherit"><title>Merrimack County</title></path><path id="county-33019" class="county feature" d="M829.545 168.306l-1.137 1.987.08 2.275 1.693 2.175-.105 1.172-1.857.416.054-.983-3.778 1.362-.09-1.372-.856-6.331.52-.685z" vector-effect="non-scaling-stroke" fill="inherit" stroke="inherit" stroke-width="inherit"><title>Sullivan County</title></path><path id="county-33017" class="county feature" d="M842.163 164.729l.468 2.982 3.072 2.195.186 1.723-.512 1.145-2.408.664.322-1.183-3.548-1.695.1-.23.644-1.553-.936-3.315z" vector-effect="non-scaling-stroke" fill="inherit" stroke="inherit" stroke-width="inherit"><title>Strafford County</title></path><path id="county-33015" class="county feature" d="M845.377 172.774l.715-.878 1.782.967-.545 3.48-2.738.988-.186 1.079-2.068 1.79-2.788-.859-.824-1.837.397-1.626.62-5.318 3.55 1.695-.323 1.183z" vector-effect="non-scaling-stroke" fill="inherit" stroke="inherit" stroke-width="inherit"><title>Rockingham County</title></path><path id="county-33011" class="county feature" d="M839.122 175.878l-.397 1.626.824 1.837 2.788.86-.105.155-.318.844-8.043 1.83-.402.09-2.106-3.951-.746.174-.54-3.428.104-1.172 1.166-.678 1.181 1.477 2.291-1.32.817 1.696 1.54-.69z" vector-effect="non-scaling-stroke" fill="inherit" stroke="inherit" stroke-width="inherit"><title>Hillsborough County</title></path><path id="county-33005" class="county feature" d="M830.076 175.915l.54 3.428.747-.174 2.106 3.95-4.718 1.032-2.345.49-1.866-1.997.747-3.224-.792-2.71 3.778-1.362-.054.983z" vector-effect="non-scaling-stroke" fill="inherit" stroke="inherit" stroke-width="inherit"><title>Cheshire County</title></path></g><path id="counties-mesh" class="counties mesh" d="M833.043 154.143l2.119 5.186-2.52 1.101 1.03 2.213.454 1.196-1.602.74-.439 2.387-1.086.645-.726-1.101-.728 1.796-5.477.016-.1-1.826.926-1.695.354-7.536-.677-3.008 2.389-1.151.675-1.295m10.283-.379l-.187.961-2.737.608-.444 3.065-1.507-1.923-2.268-.229-3.14-2.103 1.93-2.427.137-1.576-1.994-2.65.981-3.414-.572-1.815.558-5.06.815-.863 2.048.619.474-1.383 2.992 8.936 2.914 9.254 2.684 8.878 1.561 4.419-2.612.733-1.425-.255-4.454-2.564m-3.491 12.1l-.105 1.172-1.857.416.054-.983-3.778 1.362-.09-1.372-.856-6.331.52-.685m15.482-2.86l.936 3.315-.645 1.552-5.014-1.982-.479.522-2.264-1.903m7.757 3.363l-.1.231-.62 5.318-1.946-.65-1.54.69-.817-1.696-2.29 1.32-1.182-1.477-1.166.678-1.693-2.175-.08-2.275 1.137-1.987m12.618-3.577l.468 2.982 3.072 2.195.186 1.723-.512 1.145-2.408.664.322-1.183-3.548-1.695m5.634 2.214l.715-.878 1.782.967-.545 3.48-2.738.988-.186 1.079-2.068 1.79-2.788-.859-.824-1.837.397-1.626m-5.653 7.241l-4.718 1.032-2.345.49-1.866-1.997.747-3.224-.792-2.71m17.842 3.49l-.105.156-.318.844-8.043 1.83-.402.09-2.106-3.951-.746.174-.54-3.428" vector-effect="non-scaling-stroke" fill="inherit" stroke="inherit" stroke-width="inherit"/></svg>