<svg xmlns="http://www.w3.org/2000/svg" version="1.2" id="root" viewBox="797.6893549171427 216.95295062867206 19.64990634249523 45.219220898893695"><g id="counties"><path id="county-34037" class="county feature" d="M807.612 218.732l-1.383 2.533-1.349 3.479-1.535.543-3.469-2.74-.328.116 1.318-3.868 1.548-1.842z" vector-effect="non-scaling-stroke" fill="inherit" stroke="inherit" stroke-width="inherit"><title>Sussex County</title></path><path id="county-34031" class="county feature" d="M812.438 224.966l-2.265-.968-.94-1.735-3.004-.998 1.383-2.533 2.06.617.288.112-.308 2.32 2.016.537z" vector-effect="non-scaling-stroke" fill="inherit" stroke="inherit" stroke-width="inherit"><title>Passaic County</title></path><path id="county-34003" class="county feature" d="M814.396 224.876l-2.049.76.091-.67-.77-2.648-2.016-.537.308-2.32 4.798 1.504z" vector-effect="non-scaling-stroke" fill="inherit" stroke="inherit" stroke-width="inherit"><title>Bergen County</title></path><path id="county-34041" class="county feature" d="M803.345 225.287l-1.146 2.656-.76 1.664-2.543 2.86-.167-.285-.359-3.19 1.294-2.075-1.362-1.582 1.574-2.788z" vector-effect="non-scaling-stroke" fill="inherit" stroke="inherit" stroke-width="inherit"><title>Warren County</title></path><path id="county-34027" class="county feature" d="M810.173 223.998l-.84-.022.151 3.24-.941 1.475-1.655-1.24-2.15 1.242-2.539-.75 1.146-2.656 1.535-.543 1.349-3.479 3.005.998z" vector-effect="non-scaling-stroke" fill="inherit" stroke="inherit" stroke-width="inherit"><title>Morris County</title></path><path id="county-34013" class="county feature" d="M810.173 223.998l2.265.968-.09.67.628.855-.374 1.01-3.118-.286-.152-3.239z" vector-effect="non-scaling-stroke" fill="inherit" stroke="inherit" stroke-width="inherit"><title>Essex County</title></path><path id="county-34017" class="county feature" d="M814.396 224.876l-.443 2.757-.943.614-.034-1.756-.629-.854z" vector-effect="non-scaling-stroke" fill="inherit" stroke="inherit" stroke-width="inherit"><title>Hudson County</title></path><path id="county-34019" class="county feature" d="M804.739 228.693l.727 2.445-.52 1.675.706 1.373-1.163 1.759-1.17.36-1.97-1.109-.57-2.174-1.883-.555 2.543-2.86.76-1.664z" vector-effect="non-scaling-stroke" fill="inherit" stroke="inherit" stroke-width="inherit"><title>Hunterdon County</title></path><path id="county-34035" class="county feature" d="M808.543 228.691l.29 1.39-.692.98 1.197.989-1.706 2.646-1.98-.51-.706-1.373.52-1.675-.727-2.445 2.149-1.242z" vector-effect="non-scaling-stroke" fill="inherit" stroke="inherit" stroke-width="inherit"><title>Somerset County</title></path><path id="county-34039" class="county feature" d="M812.602 227.501l-.265 1.833-3.505.746-.289-1.389.941-1.476z" vector-effect="non-scaling-stroke" fill="inherit" stroke="inherit" stroke-width="inherit"><title>Union County</title></path><path id="county-34023" class="county feature" d="M812.337 229.334l-.449 2.169.865.525-1.61 3.677-1.14.787-2.19-.87-.181-.926 1.706-2.646-1.197-.99.691-.98z" vector-effect="non-scaling-stroke" fill="inherit" stroke="inherit" stroke-width="inherit"><title>Middlesex County</title></path><path id="county-34025" class="county feature" d="M815.895 237.63l-2.02.576-.512-.857-1.954.383-1.62 2.177-.73-.975.945-2.442 1.14-.787 1.609-3.677 3.209.018.808 1.862.062 3.892z" vector-effect="non-scaling-stroke" fill="inherit" stroke="inherit" stroke-width="inherit"><title>Monmouth County</title></path><path id="county-34021" class="county feature" d="M807.632 234.696l.18.926 2.192.87-.944 2.442-1.92.262-3.82-2.89 1.17-.361 1.162-1.76z" vector-effect="non-scaling-stroke" fill="inherit" stroke="inherit" stroke-width="inherit"><title>Mercer County</title></path><path id="county-34005" class="county feature" d="M809.06 238.934l.73.975 3.537 5.077.573 3.997-.025.077-3.672-.584-1.486-1.571-2.565-.6-.803-1.684-2.12-1.516-.075-.033.948-1.28 3.038-2.596z" vector-effect="non-scaling-stroke" fill="inherit" stroke="inherit" stroke-width="inherit"><title>Burlington County</title></path><path id="county-34029" class="county feature" d="M815.895 237.63l.982.204.462 5.505-.743-2.143-.467 3.712.688.633-1.924 3.125-.993.317-.573-3.997-3.538-5.077 1.62-2.177 1.954-.383.512.857z" vector-effect="non-scaling-stroke" fill="inherit" stroke="inherit" stroke-width="inherit"><title>Ocean County</title></path><path id="county-34007" class="county feature" d="M808.717 246.905l-1.447 2.68-2.546-1.79-2.136-2.494.64-2.196 2.121 1.516.803 1.684z" vector-effect="non-scaling-stroke" fill="inherit" stroke="inherit" stroke-width="inherit"><title>Camden County</title></path><path id="county-34015" class="county feature" d="M807.27 249.584l-1.116 2.057-1.29-.75-2.327-1.382-1.855-.051-1.78-1.413 3.686-2.744 2.136 2.494z" vector-effect="non-scaling-stroke" fill="inherit" stroke="inherit" stroke-width="inherit"><title>Gloucester County</title></path><path id="county-34033" class="county feature" d="M800.813 255.398l-.09-.026.09.026zm4.05-4.506l.152 2.109-2.587-1.385-1.774 3.705-2.193-1.622.058-.02-.697-1.965-.133-.418 1.212-3.251 1.781 1.413 1.855.051z" vector-effect="non-scaling-stroke" fill="inherit" stroke="inherit" stroke-width="inherit"><title>Salem County</title></path><path id="county-34001" class="county feature" d="M813.875 249.06l.93 3.517-3.117 2.172-3.01.016-.35-1.87-2.174-1.254 1.116-2.057 1.447-2.68 1.486 1.572z" vector-effect="non-scaling-stroke" fill="inherit" stroke="inherit" stroke-width="inherit"><title>Atlantic County</title></path><path id="county-34011" class="county feature" d="M801.543 255.947l-.73-.55-.09-.025-.07-.051 1.775-3.705 2.587 1.385-.152-2.11 1.291.75 2.175 1.254.349 1.87-.145 2.86-3.817-.258z" vector-effect="non-scaling-stroke" fill="inherit" stroke="inherit" stroke-width="inherit"><title>Cumberland County</title></path><path id="county-34009" class="county feature" d="M811.688 254.749l.501.6-1.12 5.123-.84 1.359-1.506.341.363-3.01-.553-1.537.145-2.86z" vector-effect="non-scaling-stroke" fill="inherit" stroke="inherit" stroke-width="inherit"><title>Cape May County</title></path></g><path id="counties-mesh" class="counties mesh" d="M803.345 225.287l-1.146 2.656-.76 1.664-2.543 2.86-.167-.285-.359-3.19 1.294-2.075-1.362-1.582 1.574-2.788m10.084-3.086l-.308 2.32 2.016.537.77 2.648-2.265-.968-.94-1.735-3.004-.998m1.383-2.533l-1.383 2.533-1.349 3.479-1.535.543-3.469-2.74-.328.116 1.318-3.868 1.548-1.842 5.198 1.78 2.06.616.288.112 4.798 1.504-.362 3.91-2.049.762.091-.671m-2.265-.968l-.84-.022.151 3.24-.941 1.475-1.655-1.24-2.15 1.242-2.539-.75m10.148-2.306l.63.854-.375 1.01-3.118-.286m4.912-2.34l-.443 2.758-.943.614-.034-1.756m-8.237 2.202l.727 2.445-.52 1.675.706 1.373-1.163 1.759-1.17.36-1.97-1.109-.57-2.174-1.883-.555m9.647-3.776l.29 1.39-.692.98 1.197.989-1.706 2.646-1.98-.51m6.95-6.685l-.265 1.833-3.505.746m.957 9.829l3.538 5.077.573 3.997-.025.077-3.672-.584-1.486-1.571-2.565-.6-.803-1.684-2.12-1.516-.075-.033.948-1.28 3.038-2.596-3.82-2.89m9.017-6.972l-.449 2.169.865.525-1.61 3.677-1.14.787-2.19-.87-.181-.926m5.12-2.668l3.21.018.808 1.862.062 3.892-.937-.17-2.02.576-.512-.857-1.954.383-1.62 2.177-.73-.975.945-2.442m-.944 2.442l-1.92.262m8.755-1.566l.982.204.462 5.505-.743-2.143-.467 3.712.688.633-1.924 3.125-.993.317m-5.183-2.078l-1.447 2.68-2.546-1.79-2.136-2.494.64-2.196m4.042 6.48l-1.116 2.056-1.29-.75-2.327-1.382-1.855-.051-1.78-1.413 3.686-2.744m6.09 9.464l-.145 2.86-3.817-.258-3.173-1.42-.73-.55-.09-.025.09.026m4.05-4.506l.152 2.109-2.587-1.385-1.774 3.705-2.193-1.622.058-.02-.697-1.965-.133-.418 1.212-3.251m14.974 1.015l.93 3.517-3.117 2.172-3.01.016-.35-1.87-2.174-1.254m-5.431 3.73l-.07-.05m11.035-.572l.501.6-1.12 5.123-.84 1.359-1.506.341.363-3.01-.553-1.537" vector-effect="non-scaling-stroke" fill="inherit" stroke="inherit" stroke-width="inherit"/></svg>