<?xml version="1.0" standalone="yes"?>
<svg xmlns="http://www.w3.org/2000/svg" version="1.2" id="root" viewBox="797.6893549171427 216.95295062867206 19.64990634249523 45.219220898893695"><g id="counties"><path id="county-34037" class="county feature" d="M807.6122270197293,218.73208277363517L806.2290324873024,221.26533535884835L804.8803237587916,224.7437606585279L803.3453562100774,225.2874693943245L799.8763164185715,222.54702167332948L799.5481154894433,222.6633185916471L800.8658707828774,218.79471558540592L802.4142693041185,216.95295062867206Z" style="fill: inherit; stroke: inherit; stroke-width: inherit;" vector-effect="non-scaling-stroke"><title>Sussex County</title></path><path id="county-34031" class="county feature" d="M812.4380554225189,224.96595676603238L810.1729330909332,223.99785496542484L809.2335070237825,222.26283503381126L806.2290324873024,221.26533535884835L807.6122270197293,218.73208277363517L809.6720680976216,219.34874558406125L809.9604978558004,219.46113005869654L809.652042123702,221.78131802685232L811.6683120079643,222.31821384488194Z" style="fill: inherit; stroke: inherit; stroke-width: inherit;" vector-effect="non-scaling-stroke"><title>Passaic County</title></path><path id="county-34003" class="county feature" d="M814.3960459152061,224.87576136597875L812.3470801480912,225.6366506397444L812.4380554225189,224.96595676603238L811.6683120079643,222.31821384488194L809.652042123702,221.78131802685232L809.9604978558004,219.46113005869654L814.7575653381787,220.9652729381412Z" style="fill: inherit; stroke: inherit; stroke-width: inherit;" vector-effect="non-scaling-stroke"><title>Bergen County</title></path><path id="county-34041" class="county feature" d="M803.3453562100774,225.2874693943245L802.1993063286188,227.9430967736556L801.4388595210964,229.60688127151263L798.896244730262,232.4671394295657L798.7294024981194,232.18188069318285L798.3703393984292,228.9915735796743L799.6641485394396,226.91653071026008L798.3015604130721,225.33479535334402L799.8763164185715,222.54702167332948Z" style="fill: inherit; stroke: inherit; stroke-width: inherit;" vector-effect="non-scaling-stroke"><title>Warren County</title></path><path id="county-34027" class="county feature" d="M810.1729330909332,223.99785496542484L809.3323224769111,223.97612669058663L809.484247871756,227.21519210435895L808.5430073642913,228.6912488481761L806.8880298334489,227.45140526191528L804.7388908988537,228.6930335774589L802.1993063286188,227.9430967736556L803.3453562100774,225.2874693943245L804.8803237587916,224.7437606585279L806.2290324873024,221.26533535884835L809.2335070237825,222.26283503381126Z" style="fill: inherit; stroke: inherit; stroke-width: inherit;" vector-effect="non-scaling-stroke"><title>Morris County</title></path><path id="county-34013" class="county feature" d="M810.1729330909332,223.99785496542484L812.4380554225189,224.96595676603238L812.3470801480912,225.6366506397444L812.9763152496139,226.49094372502304L812.6023639865332,227.50123999794255L809.484247871756,227.21519210435895L809.3323224769111,223.97612669058663Z" style="fill: inherit; stroke: inherit; stroke-width: inherit;" vector-effect="non-scaling-stroke"><title>Essex County</title></path><path id="county-34017" class="county feature" d="M814.3960459152061,224.87576136597875L813.9534383407167,227.63344746660061L813.009743840884,228.24655894776856L812.9763152496139,226.49094372502304L812.3470801480912,225.6366506397444Z" style="fill: inherit; stroke: inherit; stroke-width: inherit;" vector-effect="non-scaling-stroke"><title>Hudson County</title></path><path id="county-34019" class="county feature" d="M804.7388908988537,228.6930335774589L805.4663665581704,231.138232807701L804.9462625924612,232.8131351351832L805.6521254822687,234.18550257607512L804.4891262675364,235.944641805929L803.3194491957331,236.30516107633161L801.3482626393316,235.1961664757381L800.7785065050551,233.02159211040612L798.896244730262,232.4671394295657L801.4388595210964,229.60688127151263L802.1993063286188,227.9430967736556Z" style="fill: inherit; stroke: inherit; stroke-width: inherit;" vector-effect="non-scaling-stroke"><title>Hunterdon County</title></path><path id="county-34035" class="county feature" d="M808.5430073642913,228.6912488481761L808.8322446127931,230.08034174301713L808.1412392108939,231.0607387542758L809.3382108902715,232.04991145989334L807.6317399433115,234.6961579715345L805.6521254822687,234.18550257607512L804.9462625924612,232.8131351351832L805.4663665581704,231.138232807701L804.7388908988537,228.6930335774589L806.8880298334489,227.45140526191528Z" style="fill: inherit; stroke: inherit; stroke-width: inherit;" vector-effect="non-scaling-stroke"><title>Somerset County</title></path><path id="county-34039" class="county feature" d="M812.6023639865332,227.50123999794255L812.3366644233265,229.33388413357113L808.8322446127931,230.08034174301713L808.5430073642913,228.6912488481761L809.484247871756,227.21519210435895Z" style="fill: inherit; stroke: inherit; stroke-width: inherit;" vector-effect="non-scaling-stroke"><title>Union County</title></path><path id="county-34023" class="county feature" d="M812.3366644233265,229.33388413357113L811.8880720484829,231.50291860568484L812.7525309096637,232.0278467977124L811.1432178466887,235.70458625105346L810.0035890741517,236.4922089774277L807.8125154391354,235.6224047755062L807.6317399433115,234.6961579715345L809.3382108902715,232.04991145989334L808.1412392108939,231.0607387542758L808.8322446127931,230.08034174301713Z" style="fill: inherit; stroke: inherit; stroke-width: inherit;" vector-effect="non-scaling-stroke"><title>Middlesex County</title></path><path id="county-34025" class="county feature" d="M815.895041126463,237.63009250137623L813.8753059019934,238.2062662412668L813.3627768953494,237.34868345439372L811.4091022978131,237.7322453022632L809.7890950870872,239.90869138886148L809.0598331563518,238.9335929358616L810.0035890741517,236.4922089774277L811.1432178466887,235.70458625105346L812.7525309096637,232.0278467977124L815.9618028644359,232.0456400877331L816.7702040381154,233.90757852114814L816.8324813212571,237.79974667832028Z" style="fill: inherit; stroke: inherit; stroke-width: inherit;" vector-effect="non-scaling-stroke"><title>Monmouth County</title></path><path id="county-34021" class="county feature" d="M807.6317399433115,234.6961579715345L807.8125154391354,235.6224047755062L810.0035890741517,236.4922089774277L809.0598331563518,238.9335929358616L807.1403136680077,239.19554836403768L803.3194491957331,236.30516107633161L804.4891262675364,235.944641805929L805.6521254822687,234.18550257607512Z" style="fill: inherit; stroke: inherit; stroke-width: inherit;" vector-effect="non-scaling-stroke"><title>Mercer County</title></path><path id="county-34005" class="county feature" d="M809.0598331563518,238.9335929358616L809.7890950870872,239.90869138886148L813.3270113062736,244.98591118310276L813.8998147274968,248.98334011442455L813.8754123005706,249.0596481899587L810.2025653780008,248.47591957091083L808.7173549416093,246.90473016614055L806.1524572433145,246.30457846884406L805.3492532110454,244.62073163754712L803.2288311131538,243.10500958925445L803.1536559423523,243.0720531493838L804.1018362101597,241.7916867713642L807.1403136680077,239.19554836403768Z" style="fill: inherit; stroke: inherit; stroke-width: inherit;" vector-effect="non-scaling-stroke"><title>Burlington County</title></path><path id="county-34029" class="county feature" d="M815.895041126463,237.63009250137623L816.8770724986605,237.83396836925863L817.339261259638,243.33881524978074L816.5957731360007,241.19639744183917L816.1288773721947,244.90843103917086L816.8169874405864,245.54094919652334L814.8930707275199,248.6660936202337L813.8998147274968,248.98334011442455L813.3270113062736,244.98591118310276L809.7890950870872,239.90869138886148L811.4091022978131,237.7322453022632L813.3627768953494,237.34868345439372L813.8753059019934,238.2062662412668Z" style="fill: inherit; stroke: inherit; stroke-width: inherit;" vector-effect="non-scaling-stroke"><title>Ocean County</title></path><path id="county-34007" class="county feature" d="M808.7173549416093,246.90473016614055L807.2703080972401,249.58440621508316L804.7244624320703,247.79547892718153L802.5875036953797,245.30130329551935L803.2288311131538,243.10500958925445L805.3492532110454,244.62073163754712L806.1524572433145,246.30457846884406Z" style="fill: inherit; stroke: inherit; stroke-width: inherit;" vector-effect="non-scaling-stroke"><title>Camden County</title></path><path id="county-34015" class="county feature" d="M807.2703080972401,249.58440621508316L806.1542219002812,251.6409698932241L804.8630573284645,250.8918668016106L802.5366582288406,249.50941417723288L800.6824769922581,249.45796259076678L798.9013937029099,248.04454091167702L802.5875036953797,245.30130329551935L804.7244624320703,247.79547892718153Z" style="fill: inherit; stroke: inherit; stroke-width: inherit;" vector-effect="non-scaling-stroke"><title>Gloucester County</title></path><path id="county-34033" class="county feature" d="M800.8126322608654,255.3977449319001L800.7228604377772,255.3718796363895L800.8126322608654,255.3977449319001ZM804.8630573284645,250.8918668016106L805.0148014729701,253.00063632500428L802.4283198428907,251.61624653637818L800.6538009463908,255.32071510368564L798.4607574129285,253.699281328883L798.5193123980683,253.67922244319652L797.8224746530203,251.71401170217086L797.6893549171427,251.29639757118673L798.9013937029099,248.04454091167702L800.6824769922581,249.45796259076678L802.5366582288406,249.50941417723288Z" style="fill: inherit; stroke: inherit; stroke-width: inherit;" vector-effect="non-scaling-stroke"><title>Salem County</title></path><path id="county-34001" class="county feature" d="M813.8754123005706,249.0596481899587L814.8041076524934,252.57717095974476L811.6879628404641,254.74897010108498L808.6780409522564,254.76533234687724L808.3285780526821,252.8945640495824L806.1542219002812,251.6409698932241L807.2703080972401,249.58440621508316L808.7173549416093,246.90473016614055L810.2025653780008,248.47591957091083Z" style="fill: inherit; stroke: inherit; stroke-width: inherit;" vector-effect="non-scaling-stroke"><title>Atlantic County</title></path><path id="county-34011" class="county feature" d="M801.5434396805641,255.9470256189511L800.8126322608654,255.3977449319001L800.7228604377772,255.3718796363895L800.6538009463908,255.32071510368564L802.4283198428907,251.61624653637818L805.0148014729701,253.00063632500428L804.8630573284645,250.8918668016106L806.1542219002812,251.6409698932241L808.3285780526821,252.8945640495824L808.6780409522564,254.76533234687724L808.5332840092617,257.62510155197276L804.7162546479087,257.3670509339703Z" style="fill: inherit; stroke: inherit; stroke-width: inherit;" vector-effect="non-scaling-stroke"><title>Cumberland County</title></path><path id="county-34009" class="county feature" d="M811.6879628404641,254.74897010108498L812.1889607123142,255.34916769420443L811.0688355292584,260.47179558121763L810.2282275038183,261.8305286352029L808.7225663490565,262.17217152756575L809.0858609053736,259.1615701619519L808.5332840092617,257.62510155197276L808.6780409522564,254.76533234687724Z" style="fill: inherit; stroke: inherit; stroke-width: inherit;" vector-effect="non-scaling-stroke"><title>Cape May County</title></path></g><path id="counties-mesh" class="counties mesh" d="M803.3453562100774,225.2874693943245L802.1993063286188,227.9430967736556L801.4388595210964,229.60688127151263L798.896244730262,232.4671394295657L798.7294024981194,232.18188069318285L798.3703393984292,228.9915735796743L799.6641485394396,226.91653071026008L798.3015604130721,225.33479535334402L799.8763164185715,222.54702167332948M809.9604978558004,219.46113005869654L809.652042123702,221.78131802685232L811.6683120079643,222.31821384488194L812.4380554225189,224.96595676603238L810.1729330909332,223.99785496542484L809.2335070237825,222.26283503381126L806.2290324873024,221.26533535884835M807.6122270197293,218.73208277363517L806.2290324873024,221.26533535884835L804.8803237587916,224.7437606585279L803.3453562100774,225.2874693943245L799.8763164185715,222.54702167332948L799.5481154894433,222.6633185916471L800.8658707828774,218.79471558540592L802.4142693041185,216.95295062867206L807.6122270197293,218.73208277363517L809.6720680976216,219.34874558406125L809.9604978558004,219.46113005869654L814.7575653381787,220.9652729381412L814.3960459152061,224.87576136597875L812.3470801480912,225.6366506397444L812.4380554225189,224.96595676603238M810.1729330909332,223.99785496542484L809.3323224769111,223.97612669058663L809.484247871756,227.21519210435895L808.5430073642913,228.6912488481761L806.8880298334489,227.45140526191528L804.7388908988537,228.6930335774589L802.1993063286188,227.9430967736556M812.3470801480912,225.6366506397444L812.9763152496139,226.49094372502304L812.6023639865332,227.50123999794255L809.484247871756,227.21519210435895M814.3960459152061,224.87576136597875L813.9534383407167,227.63344746660061L813.009743840884,228.24655894776856L812.9763152496139,226.49094372502304M804.7388908988537,228.6930335774589L805.4663665581704,231.138232807701L804.9462625924612,232.8131351351832L805.6521254822687,234.18550257607512L804.4891262675364,235.944641805929L803.3194491957331,236.30516107633161L801.3482626393316,235.1961664757381L800.7785065050551,233.02159211040612L798.896244730262,232.4671394295657M808.5430073642913,228.6912488481761L808.8322446127931,230.08034174301713L808.1412392108939,231.0607387542758L809.3382108902715,232.04991145989334L807.6317399433115,234.6961579715345L805.6521254822687,234.18550257607512M812.6023639865332,227.50123999794255L812.3366644233265,229.33388413357113L808.8322446127931,230.08034174301713M809.7890950870872,239.90869138886148L813.3270113062736,244.98591118310276L813.8998147274968,248.98334011442455L813.8754123005706,249.0596481899587L810.2025653780008,248.47591957091083L808.7173549416093,246.90473016614055L806.1524572433145,246.30457846884406L805.3492532110454,244.62073163754712L803.2288311131538,243.10500958925445L803.1536559423523,243.0720531493838L804.1018362101597,241.7916867713642L807.1403136680077,239.19554836403768L803.3194491957331,236.30516107633161M812.3366644233265,229.33388413357113L811.8880720484829,231.50291860568484L812.7525309096637,232.0278467977124L811.1432178466887,235.70458625105346L810.0035890741517,236.4922089774277L807.8125154391354,235.6224047755062L807.6317399433115,234.6961579715345M812.7525309096637,232.0278467977124L815.9618028644359,232.0456400877331L816.7702040381154,233.90757852114814L816.8324813212571,237.79974667832028L815.895041126463,237.63009250137623L813.8753059019934,238.2062662412668L813.3627768953494,237.34868345439372L811.4091022978131,237.7322453022632L809.7890950870872,239.90869138886148L809.0598331563518,238.9335929358616L810.0035890741517,236.4922089774277M809.0598331563518,238.9335929358616L807.1403136680077,239.19554836403768M815.895041126463,237.63009250137623L816.8770724986605,237.83396836925863L817.339261259638,243.33881524978074L816.5957731360007,241.19639744183917L816.1288773721947,244.90843103917086L816.8169874405864,245.54094919652334L814.8930707275199,248.6660936202337L813.8998147274968,248.98334011442455M808.7173549416093,246.90473016614055L807.2703080972401,249.58440621508316L804.7244624320703,247.79547892718153L802.5875036953797,245.30130329551935L803.2288311131538,243.10500958925445M807.2703080972401,249.58440621508316L806.1542219002812,251.6409698932241L804.8630573284645,250.8918668016106L802.5366582288406,249.50941417723288L800.6824769922581,249.45796259076678L798.9013937029099,248.04454091167702L802.5875036953797,245.30130329551935M808.6780409522564,254.76533234687724L808.5332840092617,257.62510155197276L804.7162546479087,257.3670509339703L801.5434396805641,255.9470256189511L800.8126322608654,255.3977449319001L800.7228604377772,255.3718796363895L800.8126322608654,255.3977449319001M804.8630573284645,250.8918668016106L805.0148014729701,253.00063632500428L802.4283198428907,251.61624653637818L800.6538009463908,255.32071510368564L798.4607574129285,253.699281328883L798.5193123980683,253.67922244319652L797.8224746530203,251.71401170217086L797.6893549171427,251.29639757118673L798.9013937029099,248.04454091167702M813.8754123005706,249.0596481899587L814.8041076524934,252.57717095974476L811.6879628404641,254.74897010108498L808.6780409522564,254.76533234687724L808.3285780526821,252.8945640495824L806.1542219002812,251.6409698932241M800.7228604377772,255.3718796363895L800.6538009463908,255.32071510368564M811.6879628404641,254.74897010108498L812.1889607123142,255.34916769420443L811.0688355292584,260.47179558121763L810.2282275038183,261.8305286352029L808.7225663490565,262.17217152756575L809.0858609053736,259.1615701619519L808.5332840092617,257.62510155197276" style="fill: inherit; stroke: inherit; stroke-width: inherit;" vector-effect="non-scaling-stroke"></path></svg>