<?xml version="1.0" standalone="yes"?>
<svg xmlns="http://www.w3.org/2000/svg" version="1.2" baseProfile="tiny" id="root" viewBox="285.88027250919345 302.87751437644204 135.4638395380913 139.3937083565594"><style>
@import url("../../css/svg.css");</style><rect id="bbox" class="bbox" x="285.88027250919345" y="302.87751437644204" width="135.4638395380913" height="139.3937083565594"></rect><g id="counties"><path id="county-35039" class="county feature" d="M354.2121207714081,323.68271206474265L361.1103308142375,324.39938369660877L361.4070890643619,326.54296257421856L360.93335890339915,329.7203438618975L361.06109414228536,334.46885625511527L360.34228884166794,336.65473679541617L358.97015510127346,337.4199241606933L361.8215385341157,338.97512163384624L363.3661658802688,341.6023222352909L366.2606468387901,343.5473675802922L365.56943228112516,344.24287272836466L363.3995109643754,343.90590747036185L363.4555649358083,343.46487422255154L358.18063763704083,342.9198562052568L358.29523831889924,344.28305941643305L355.4399971284872,343.9749380961132L355.4798232633448,343.30716707765646L355.5618697609391,342.64904370653096L346.06773721115906,341.6370710719349L346.5363369185568,337.56338065587283L335.58985347872664,336.198857358469L337.0196719078724,325.26357772515337L339.8011671441858,323.51722574226096L340.3579439511177,321.96137207458753Z" vector-effect="non-scaling-stroke"><title>Rio Arriba County</title></path><path id="county-35045" class="county feature" d="M340.3579439511177,321.96137207458753L339.8011671441858,323.51722574226096L337.0196719078724,325.26357772515337L335.58985347872664,336.198857358469L335.047691669236,340.30137900990746L313.9871783517865,337.51254543794596L316.568866500655,318.8997797047822L326.31704848851086,320.20326735507035L339.47369622691957,321.85431350846466Z" vector-effect="non-scaling-stroke"><title>San Juan County</title></path><path id="county-35059" class="county feature" d="M405.3218467189446,328.2755348152516L404.62301173584956,337.6713744571797L404.0375756872479,337.62702497928353L403.4324059573999,345.9973621018182L402.9863724196252,351.9343290233869L397.98757782700903,351.54230196390574L398.64335069405377,345.046831301987L392.24407082556564,344.54657564037916L392.38576697807787,342.88806755239546L389.1866109975853,342.6123446649208L389.2556405688605,341.79510566026306L390.5063176368027,327.17736206358813L404.08485580466606,328.180639183524Z" vector-effect="non-scaling-stroke"><title>Union County</title></path><path id="county-35055" class="county feature" d="M372.66235733968267,325.57494123456195L372.82346952064955,327.09768855245113L372.01843278979385,330.6531480924823L369.86959050575524,331.4557547802591L369.52832493326616,333.6598329207841L370.2880899759414,334.87146680206376L369.53877551043496,339.1526448690346L368.5188696594899,339.5075684214702L368.122992011826,341.4859541512857L366.2606468387901,343.5473675802922L363.3661658802688,341.6023222352909L361.8215385341157,338.97512163384624L358.97015510127346,337.4199241606933L360.34228884166794,336.65473679541617L361.06109414228536,334.46885625511527L360.93335890339915,329.7203438618975L361.4070890643619,326.54296257421856L361.1103308142375,324.39938369660877L365.3460856235341,324.83033008688005Z" vector-effect="non-scaling-stroke"><title>Taos County</title></path><path id="county-35007" class="county feature" d="M390.5063176368027,327.17736206358813L389.2556405688605,341.79510566026306L382.8999941486571,341.2296379744017L376.5177075380247,340.6613289223924L376.60401053819317,339.8537901576327L369.53877551043496,339.1526448690346L370.2880899759414,334.87146680206376L369.52832493326616,333.6598329207841L369.86959050575524,331.4557547802591L372.01843278979385,330.6531480924823L372.82346952064955,327.09768855245113L372.66235733968267,325.57494123456195L373.6283172334229,325.6665778293774Z" vector-effect="non-scaling-stroke"><title>Colfax County</title></path><path id="county-35033" class="county feature" d="M369.53877551043496,339.1526448690346L376.60401053819317,339.8537901576327L376.5177075380247,340.6613289223924L382.8999941486571,341.2296379744017L384.04019789868426,346.1859383716974L382.9984859645972,348.01690604160046L383.20527910597633,349.53112028938756L373.6304095715228,348.84363578373006L368.7126794322983,346.48881877677945L363.15464544714416,345.9232939917856L363.3995109643754,343.90590747036185L365.56943228112516,344.24287272836466L366.2606468387901,343.5473675802922L368.122992011826,341.4859541512857L368.5188696594899,339.5075684214702Z" vector-effect="non-scaling-stroke"><title>Mora County</title></path><path id="county-35043" class="county feature" d="M355.2165946420444,345.68894038277915L355.25047694298854,345.3759336597111L355.2165946420444,345.68894038277915ZM355.4798232633448,343.30716707765646L353.21194530769003,343.17798916774336L352.88749910618594,346.03269163384846L355.04729732782744,347.252919099416L353.99948596929727,357.38667015730937L339.71409116150073,355.68595445522135L339.25833254104845,354.0004729949741L338.19725783632975,353.87706477002166L339.7754019279065,340.9041586770303L335.047691669236,340.30137900990746L335.58985347872664,336.198857358469L346.5363369185568,337.56338065587283L346.06773721115906,341.6370710719349L355.5618697609391,342.64904370653096Z" vector-effect="non-scaling-stroke"><title>Sandoval County</title></path><path id="county-35021" class="county feature" d="M389.2556405688605,341.79510566026306L389.1866109975853,342.6123446649208L392.38576697807787,342.88806755239546L392.24407082556564,344.54657564037916L398.64335069405377,345.046831301987L397.98757782700903,351.54230196390574L397.4178198446486,357.9617941868588L393.5342561385604,357.8106896708399L392.2666667220067,357.0937416221659L389.0783676255244,349.6542939116008L388.3805586701593,349.978418046504L383.20527910597633,349.53112028938756L382.9984859645972,348.01690604160046L384.04019789868426,346.1859383716974L382.8999941486571,341.2296379744017Z" vector-effect="non-scaling-stroke"><title>Harding County</title></path><path id="county-35031" class="county feature" d="M335.047691669236,340.30137900990746L339.7754019279065,340.9041586770303L338.19725783632975,353.87706477002166L320.83428922329665,351.6640858245563L319.96119666380815,358.1561665032849L311.2990842421439,356.9731378310894L313.9871783517865,337.51254543794596Z" vector-effect="non-scaling-stroke"><title>McKinley County</title></path><path id="county-35049" class="county feature" d="M363.3995109643754,343.90590747036185L363.15464544714416,345.9232939917856L361.6457936854564,361.4777524369281L353.6664708106093,360.66636881661L353.99948596929727,357.38667015730937L355.04729732782744,347.252919099416L356.3023090019166,346.0677107964924L355.2165946420444,345.68894038277915L355.25047694298854,345.3759336597111L355.4399971284872,343.9749380961132L358.29523831889924,344.28305941643305L358.18063763704083,342.9198562052568L363.4555649358083,343.46487422255154Z" vector-effect="non-scaling-stroke"><title>Santa Fe County</title></path><path id="county-35028" class="county feature" d="M355.4798232633448,343.30716707765646L355.4399971284872,343.9749380961132L355.25047694298854,345.3759336597111L355.2165946420444,345.68894038277915L356.3023090019166,346.0677107964924L355.04729732782744,347.252919099416L352.88749910618594,346.03269163384846L353.21194530769003,343.17798916774336Z" vector-effect="non-scaling-stroke"><title>Los Alamos County</title></path><path id="county-35047" class="county feature" d="M383.20527910597633,349.53112028938756L388.3805586701593,349.978418046504L389.0783676255244,349.6542939116008L392.2666667220067,357.0937416221659L393.5342561385604,357.8106896708399L393.3090915459512,360.60680018101255L390.0241400010343,359.8988183071049L385.80047826344344,361.84693695503177L385.9077619574424,360.46785356751695L368.35029288984776,358.8413873183581L368.0407535964379,362.10910698467L361.6457936854564,361.4777524369281L363.15464544714416,345.9232939917856L368.7126794322983,346.48881877677945L373.6304095715228,348.84363578373006Z" vector-effect="non-scaling-stroke"><title>San Miguel County</title></path><path id="county-35037" class="county feature" d="M402.9863724196252,351.9343290233869L402.8178058866085,354.13250779078726L402.18900346516364,362.3839457195819L401.869613532874,366.68627369328317L398.2359374580952,366.40784811378126L398.0906051970144,368.087024551018L396.4925187101445,367.9563147403112L396.3545095672989,369.58721209107716L394.7602890065583,369.45399675943645L394.62551153652936,371.0900828929149L391.434005836255,370.8170536994271L390.80919698378034,372.4252733924251L387.6139446630184,372.1538786153642L384.8769516429712,371.9187845772776L385.15162190744945,368.6512424622372L385.80047826344344,361.84693695503177L390.0241400010343,359.8988183071049L393.3090915459512,360.60680018101255L393.5342561385604,357.8106896708399L397.4178198446486,357.9617941868588L397.98757782700903,351.54230196390574Z" vector-effect="non-scaling-stroke"><title>Quay County</title></path><path id="county-35006" class="county feature" d="M338.19725783632975,353.87706477002166L339.25833254104845,354.0004729949741L339.71409116150073,355.68595445522135L341.0813516905142,360.8183785097731L339.0383247771158,360.5616264993889L338.1712432006204,367.65106023570274L330.28958986319526,366.7109678349308L310.30791806162125,364.0687227446788L311.2990842421439,356.9731378310894L319.96119666380815,358.1561665032849L320.83428922329665,351.6640858245563Z" vector-effect="non-scaling-stroke"><title>Cibola County</title></path><path id="county-35001" class="county feature" d="M353.99948596929727,357.38667015730937L353.6664708106093,360.66636881661L353.4907112569723,362.2907914415448L354.9046553288832,362.4400200999463L354.74294092411617,363.999696961254L350.79075653205257,363.56951250072916L350.54450900478184,362.91650348562735L346.7314526338296,362.4351649581497L346.1076546566179,363.0507896429117L341.5355289013761,362.52137635829376L341.0813516905142,360.8183785097731L339.71409116150073,355.68595445522135Z" vector-effect="non-scaling-stroke"><title>Bernalillo County</title></path><path id="county-35019" class="county feature" d="M385.80047826344344,361.84693695503177L385.15162190744945,368.6512424622372L381.9581732302424,368.37995871699434L381.82046224167897,370.0076807769025L380.22416058987517,369.8775321266204L380.05715004630144,371.5055641097705L373.28818120085515,370.89354632287325L372.8355814212704,375.7171227883201L366.42413440416044,375.10628203185024L366.9089844195207,370.2299369817564L367.2405936871104,370.26859209049576L368.0407535964379,362.10910698467L368.35029288984776,358.8413873183581L385.9077619574424,360.46785356751695Z" vector-effect="non-scaling-stroke"><title>Guadalupe County</title></path><path id="county-35057" class="county feature" d="M368.0407535964379,362.10910698467L367.2405936871104,370.26859209049576L366.9089844195207,370.2299369817564L366.42413440416044,375.10628203185024L366.2589234276759,376.7307523244318L356.956750430289,375.7861246106446L349.46310633900566,374.9873100125433L349.81743654172453,371.6166539372888L349.18468236064837,370.00452357568906L349.9937139562288,363.4836630974926L350.79075653205257,363.56951250072916L354.74294092411617,363.999696961254L354.9046553288832,362.4400200999463L353.4907112569723,362.2907914415448L353.6664708106093,360.66636881661L361.6457936854564,361.4777524369281Z" vector-effect="non-scaling-stroke"><title>Torrance County</title></path><path id="county-35061" class="county feature" d="M341.0813516905142,360.8183785097731L341.5355289013761,362.52137635829376L346.1076546566179,363.0507896429117L346.7314526338296,362.4351649581497L350.54450900478184,362.91650348562735L350.79075653205257,363.56951250072916L349.9937139562288,363.4836630974926L349.18468236064837,370.00452357568906L349.81743654172453,371.6166539372888L344.676720405287,369.30743505865667L343.05501037743886,368.2109044885789L338.1712432006204,367.65106023570274L339.0383247771158,360.5616264993889Z" vector-effect="non-scaling-stroke"><title>Valencia County</title></path><path id="county-35009" class="county feature" d="M401.869613532874,366.68627369328317L401.5813623693014,370.5691482585511L400.953697747765,378.72728766137357L400.93954803403324,378.9178517651362L390.32012239447363,378.0811085155792L390.80919698378034,372.4252733924251L391.434005836255,370.8170536994271L394.62551153652936,371.0900828929149L394.7602890065583,369.45399675943645L396.3545095672989,369.58721209107716L396.4925187101445,367.9563147403112L398.0906051970144,368.087024551018L398.2359374580952,366.40784811378126Z" vector-effect="non-scaling-stroke"><title>Curry County</title></path><path id="county-35011" class="county feature" d="M387.6139446630184,372.1538786153642L386.8367364310675,381.95297994466387L383.62617315857653,381.67022680144726L383.4733717931042,383.31781074088804L373.84547360097656,382.37012093892974L373.9979341328892,380.7255792902272L372.36428496717963,380.56304934627804L372.8355814212704,375.7171227883201L373.28818120085515,370.89354632287325L380.05715004630144,371.5055641097705L380.22416058987517,369.8775321266204L381.82046224167897,370.0076807769025L381.9581732302424,368.37995871699434L385.15162190744945,368.6512424622372L384.8769516429712,371.9187845772776Z" vector-effect="non-scaling-stroke"><title>DeBaca County</title></path><path id="county-35041" class="county feature" d="M390.80919698378034,372.4252733924251L390.32012239447363,378.0811085155792L400.93954803403324,378.9178517651362L400.2246237989767,387.8743855821831L399.79255865418406,392.64259182848707L392.74189638402277,392.1084732367882L392.87636729243525,390.4804101613769L389.66669428425206,390.2409733682624L389.93765675419763,387.18425196786427L388.0202343182115,387.0279736952872L388.4271991905901,382.106680108516L386.8367364310675,381.95297994466387L387.6139446630184,372.1538786153642Z" vector-effect="non-scaling-stroke"><title>Roosevelt County</title></path><path id="county-35053" class="county feature" d="M349.81743654172453,371.6166539372888L349.46310633900566,374.9873100125433L356.956750430289,375.7861246106446L356.0937142270485,383.91550815796575L354.1318692010838,383.70246740518405L353.7831577280604,386.9870537862889L348.8741661420164,386.26543751145323L348.52130111147875,389.63834813718483L346.95058323921864,389.54668522480847L327.92191454661213,387.29511251045346L329.6834152505933,372.6718097733734L330.28958986319526,366.7109678349308L338.1712432006204,367.65106023570274L343.05501037743886,368.2109044885789L344.676720405287,369.30743505865667Z" vector-effect="non-scaling-stroke"><title>Socorro County</title></path><path id="county-35003" class="county feature" d="M330.28958986319526,366.7109678349308L329.6834152505933,372.6718097733734L327.92191454661213,387.29511251045346L323.5116609698577,386.72067394192493L322.8570740270095,391.87734357452723L306.76907175075496,389.6055198599323L308.23416816036604,379.0000627083117L310.30791806162125,364.0687227446788Z" vector-effect="non-scaling-stroke"><title>Catron County</title></path><path id="county-35027" class="county feature" d="M372.8355814212704,375.7171227883201L372.36428496717963,380.56304934627804L371.1615895947423,393.49817467774426L370.5011534105399,398.32796952325407L364.1280458608468,397.83685450099676L364.412940752603,394.5987737423136L358.13379737166156,393.97261484042326L358.28176364927884,392.36850091376084L348.7528710651795,391.3524000223058L348.52130111147875,389.63834813718483L348.8741661420164,386.26543751145323L353.7831577280604,386.9870537862889L354.1318692010838,383.70246740518405L356.0937142270485,383.91550815796575L356.956750430289,375.7861246106446L366.2589234276759,376.7307523244318L366.42413440416044,375.10628203185024Z" vector-effect="non-scaling-stroke"><title>Lincoln County</title></path><path id="county-35005" class="county feature" d="M386.8367364310675,381.95297994466387L388.4271991905901,382.106680108516L388.0202343182115,387.0279736952872L389.93765675419763,387.18425196786427L389.66669428425206,390.2409733682624L392.87636729243525,390.4804101613769L392.74189638402277,392.1084732367882L389.4904504690751,391.85954452971635L389.21428470960177,395.1145374228255L388.5267806375891,395.0654889232102L387.866716028841,403.12525273172093L387.12009053990903,403.0669551531107L371.1833393517854,401.7013794571096L370.2594637664113,409.9702960974736L362.42384543275244,409.25099038859753L363.26429457664335,400.96643567870456L363.8261597671005,401.0207809853663L364.1280458608468,397.83685450099676L370.5011534105399,398.32796952325407L371.1615895947423,393.49817467774426L372.36428496717963,380.56304934627804L373.9979341328892,380.7255792902272L373.84547360097656,382.37012093892974L383.4733717931042,383.31781074088804L383.62617315857653,381.67022680144726Z" vector-effect="non-scaling-stroke"><title>Chaves County</title></path><path id="county-35025" class="county feature" d="M399.79255865418406,392.64259182848707L399.4720344857969,396.05446769075854L398.75066792582754,404.0946333474892L398.1412725448681,412.277932999154L397.54023001179496,420.42516120808625L397.41963892084226,422.0446079382119L393.30151018164304,421.7352781064933L387.06967695579226,421.24390081792467L387.8655572571908,411.47085682544775L386.44272168394366,411.35531159439086L387.12009053990903,403.0669551531107L387.866716028841,403.12525273172093L388.5267806375891,395.0654889232102L389.21428470960177,395.1145374228255L389.4904504690751,391.85954452971635L392.74189638402277,392.1084732367882Z" vector-effect="non-scaling-stroke"><title>Lea County</title></path><path id="county-35051" class="county feature" d="M348.52130111147875,389.63834813718483L348.7528710651795,391.3524000223058L348.14576511994085,397.678324700202L339.19151544757267,401.02236569372144L339.10341080929084,401.8370921294576L332.72954249664645,401.07044677160195L332.3290988598061,404.3283125909579L327.53548241967394,403.7508550702172L325.5909389334521,403.0543869917119L326.17934766465316,400.3149711504626L325.66797584478024,396.9429948725216L324.81859782688673,396.4381441291673L324.7832347654175,392.10122681995915L322.8570740270095,391.87734357452723L323.5116609698577,386.72067394192493L327.92191454661213,387.29511251045346L346.95058323921864,389.54668522480847Z" vector-effect="non-scaling-stroke"><title>Sierra County</title></path><path id="county-35035" class="county feature" d="M364.1280458608468,397.83685450099676L363.8261597671005,401.0207809853663L363.26429457664335,400.96643567870456L362.42384543275244,409.25099038859753L370.2594637664113,409.9702960974736L369.40805952301116,419.69427292480475L368.3040012707935,419.5917958413038L351.3751316740046,417.86714236520993L345.42777180495625,417.24748028693534L347.396579572124,399.38971507183965L348.14576511994085,397.678324700202L348.7528710651795,391.3524000223058L358.28176364927884,392.36850091376084L358.13379737166156,393.97261484042326L364.412940752603,394.5987737423136Z" vector-effect="non-scaling-stroke"><title>Otero County</title></path><path id="county-35017" class="county feature" d="M322.8570740270095,391.87734357452723L324.7832347654175,392.10122681995915L324.81859782688673,396.4381441291673L325.66797584478024,396.9429948725216L326.17934766465316,400.3149711504626L325.5909389334521,403.0543869917119L327.53548241967394,403.7508550702172L322.6415999408384,403.16020428109164L322.4368566318959,404.78367032534265L317.68612745079685,404.1818513209612L316.6221434219309,412.31716066886145L316.30465580389443,416.3606210597022L311.4883411014871,415.7372797097469L311.813839986756,411.6901296707799L312.9094844122332,403.5610518128741L311.1994944657881,403.3301137352115L311.42651640431427,401.71874392147583L308.22180824065424,401.28522975750775L308.6394164411176,398.04981988884515L305.6598118508173,397.63516778045494L306.76907175075496,389.6055198599323Z" vector-effect="non-scaling-stroke"><title>Grant County</title></path><path id="county-35013" class="county feature" d="M345.42777180495625,417.24748028693534L341.64767531969926,416.8434645837167L341.09083211122584,419.31638742602945L342.6154028586251,421.03918249359117L330.5442056357735,419.6531985838536L332.3290988598061,404.3283125909579L332.72954249664645,401.07044677160195L339.10341080929084,401.8370921294576L339.19151544757267,401.02236569372144L348.14576511994085,397.678324700202L347.396579572124,399.38971507183965Z" vector-effect="non-scaling-stroke"><title>Dona Ana County</title></path><path id="county-35015" class="county feature" d="M387.12009053990903,403.0669551531107L386.44272168394366,411.35531159439086L387.8655572571908,411.47085682544775L387.06967695579226,421.24390081792467L383.0271428473299,420.9112047998584L382.3336885402464,420.85369125850957L369.40805952301116,419.69427292480475L370.2594637664113,409.9702960974736L371.1833393517854,401.7013794571096Z" vector-effect="non-scaling-stroke"><title>Eddy County</title></path><path id="county-35023" class="county feature" d="M316.30465580389443,416.3606210597022L316.2463058213057,417.87409383485874L315.1645893811798,426.24895740466127L301.9025378375336,424.4996261039621L304.75144549691925,404.1694797847198L305.6598118508173,397.63516778045494L308.6394164411176,398.04981988884515L308.22180824065424,401.28522975750775L311.42651640431427,401.71874392147583L311.1994944657881,403.3301137352115L312.9094844122332,403.5610518128741L311.813839986756,411.6901296707799L311.4883411014871,415.7372797097469Z" vector-effect="non-scaling-stroke"><title>Hidalgo County</title></path><path id="county-35029" class="county feature" d="M332.3290988598061,404.3283125909579L330.5442056357735,419.6531985838536L316.2463058213057,417.87409383485874L316.30465580389443,416.3606210597022L316.6221434219309,412.31716066886145L317.68612745079685,404.1818513209612L322.4368566318959,404.78367032534265L322.6415999408384,403.16020428109164L327.53548241967394,403.7508550702172Z" vector-effect="non-scaling-stroke"><title>Luna County</title></path></g><path id="counties-mesh" class="counties mesh" d="M361.1103308142375,324.39938369660877L361.4070890643619,326.54296257421856L360.93335890339915,329.7203438618975L361.06109414228536,334.46885625511527L360.34228884166794,336.65473679541617L358.97015510127346,337.4199241606933L361.8215385341157,338.97512163384624L363.3661658802688,341.6023222352909L366.2606468387901,343.5473675802922L365.56943228112516,344.24287272836466L363.3995109643754,343.90590747036185L363.4555649358083,343.46487422255154L358.18063763704083,342.9198562052568L358.29523831889924,344.28305941643305L355.4399971284872,343.9749380961132L355.4798232633448,343.30716707765646L355.5618697609391,342.64904370653096L346.06773721115906,341.6370710719349L346.5363369185568,337.56338065587283L335.58985347872664,336.198857358469L337.0196719078724,325.26357772515337L339.8011671441858,323.51722574226096L340.3579439511177,321.96137207458753M327.92191454661213,387.29511251045346L323.5116609698577,386.72067394192493L322.8570740270095,391.87734357452723L306.76907175075496,389.6055198599323L308.23416816036604,379.0000627083117L310.30791806162125,364.0687227446788L311.2990842421439,356.9731378310894L313.9871783517865,337.51254543794596M335.58985347872664,336.198857358469L335.047691669236,340.30137900990746L313.9871783517865,337.51254543794596L316.568866500655,318.8997797047822L326.31704848851086,320.20326735507035L339.47369622691957,321.85431350846466L340.3579439511177,321.96137207458753L354.2121207714081,323.68271206474265L361.1103308142375,324.39938369660877L365.3460856235341,324.83033008688005L372.66235733968267,325.57494123456195L373.6283172334229,325.6665778293774L390.5063176368027,327.17736206358813L404.08485580466606,328.180639183524L405.3218467189446,328.2755348152516L404.62301173584956,337.6713744571797L404.0375756872479,337.62702497928353L403.4324059573999,345.9973621018182L402.9863724196252,351.9343290233869L397.98757782700903,351.54230196390574L398.64335069405377,345.046831301987L392.24407082556564,344.54657564037916L392.38576697807787,342.88806755239546L389.1866109975853,342.6123446649208L389.2556405688605,341.79510566026306L390.5063176368027,327.17736206358813M372.66235733968267,325.57494123456195L372.82346952064955,327.09768855245113L372.01843278979385,330.6531480924823L369.86959050575524,331.4557547802591L369.52832493326616,333.6598329207841L370.2880899759414,334.87146680206376L369.53877551043496,339.1526448690346L368.5188696594899,339.5075684214702L368.122992011826,341.4859541512857L366.2606468387901,343.5473675802922M389.2556405688605,341.79510566026306L382.8999941486571,341.2296379744017L376.5177075380247,340.6613289223924L376.60401053819317,339.8537901576327L369.53877551043496,339.1526448690346M382.8999941486571,341.2296379744017L384.04019789868426,346.1859383716974L382.9984859645972,348.01690604160046L383.20527910597633,349.53112028938756L373.6304095715228,348.84363578373006L368.7126794322983,346.48881877677945L363.15464544714416,345.9232939917856L363.3995109643754,343.90590747036185M355.04729732782744,347.252919099416L356.3023090019166,346.0677107964924L355.2165946420444,345.68894038277915L355.25047694298854,345.3759336597111L355.2165946420444,345.68894038277915M355.4798232633448,343.30716707765646L353.21194530769003,343.17798916774336L352.88749910618594,346.03269163384846L355.04729732782744,347.252919099416L353.99948596929727,357.38667015730937L339.71409116150073,355.68595445522135L339.25833254104845,354.0004729949741L338.19725783632975,353.87706477002166L339.7754019279065,340.9041586770303L335.047691669236,340.30137900990746M397.98757782700903,351.54230196390574L397.4178198446486,357.9617941868588L393.5342561385604,357.8106896708399L392.2666667220067,357.0937416221659L389.0783676255244,349.6542939116008L388.3805586701593,349.978418046504L383.20527910597633,349.53112028938756M338.19725783632975,353.87706477002166L320.83428922329665,351.6640858245563L319.96119666380815,358.1561665032849L311.2990842421439,356.9731378310894M363.15464544714416,345.9232939917856L361.6457936854564,361.4777524369281L353.6664708106093,360.66636881661L353.99948596929727,357.38667015730937M355.25047694298854,345.3759336597111L355.4399971284872,343.9749380961132M393.5342561385604,357.8106896708399L393.3090915459512,360.60680018101255L390.0241400010343,359.8988183071049L385.80047826344344,361.84693695503177L385.9077619574424,360.46785356751695L368.35029288984776,358.8413873183581L368.0407535964379,362.10910698467L361.6457936854564,361.4777524369281M402.9863724196252,351.9343290233869L402.8178058866085,354.13250779078726L402.18900346516364,362.3839457195819L401.869613532874,366.68627369328317L398.2359374580952,366.40784811378126L398.0906051970144,368.087024551018L396.4925187101445,367.9563147403112L396.3545095672989,369.58721209107716L394.7602890065583,369.45399675943645L394.62551153652936,371.0900828929149L391.434005836255,370.8170536994271L390.80919698378034,372.4252733924251L387.6139446630184,372.1538786153642L384.8769516429712,371.9187845772776L385.15162190744945,368.6512424622372L385.80047826344344,361.84693695503177M339.71409116150073,355.68595445522135L341.0813516905142,360.8183785097731L339.0383247771158,360.5616264993889L338.1712432006204,367.65106023570274L330.28958986319526,366.7109678349308L310.30791806162125,364.0687227446788M353.6664708106093,360.66636881661L353.4907112569723,362.2907914415448L354.9046553288832,362.4400200999463L354.74294092411617,363.999696961254L350.79075653205257,363.56951250072916L350.54450900478184,362.91650348562735L346.7314526338296,362.4351649581497L346.1076546566179,363.0507896429117L341.5355289013761,362.52137635829376L341.0813516905142,360.8183785097731M385.15162190744945,368.6512424622372L381.9581732302424,368.37995871699434L381.82046224167897,370.0076807769025L380.22416058987517,369.8775321266204L380.05715004630144,371.5055641097705L373.28818120085515,370.89354632287325L372.8355814212704,375.7171227883201L366.42413440416044,375.10628203185024L366.9089844195207,370.2299369817564L367.2405936871104,370.26859209049576L368.0407535964379,362.10910698467M366.42413440416044,375.10628203185024L366.2589234276759,376.7307523244318L356.956750430289,375.7861246106446L349.46310633900566,374.9873100125433L349.81743654172453,371.6166539372888L349.18468236064837,370.00452357568906L349.9937139562288,363.4836630974926L350.79075653205257,363.56951250072916M349.81743654172453,371.6166539372888L344.676720405287,369.30743505865667L343.05501037743886,368.2109044885789L338.1712432006204,367.65106023570274M401.869613532874,366.68627369328317L401.5813623693014,370.5691482585511L400.953697747765,378.72728766137357L400.93954803403324,378.9178517651362L390.32012239447363,378.0811085155792L390.80919698378034,372.4252733924251M387.6139446630184,372.1538786153642L386.8367364310675,381.95297994466387L383.62617315857653,381.67022680144726L383.4733717931042,383.31781074088804L373.84547360097656,382.37012093892974L373.9979341328892,380.7255792902272L372.36428496717963,380.56304934627804L372.8355814212704,375.7171227883201M400.93954803403324,378.9178517651362L400.2246237989767,387.8743855821831L399.79255865418406,392.64259182848707L392.74189638402277,392.1084732367882L392.87636729243525,390.4804101613769L389.66669428425206,390.2409733682624L389.93765675419763,387.18425196786427L388.0202343182115,387.0279736952872L388.4271991905901,382.106680108516L386.8367364310675,381.95297994466387M356.956750430289,375.7861246106446L356.0937142270485,383.91550815796575L354.1318692010838,383.70246740518405L353.7831577280604,386.9870537862889L348.8741661420164,386.26543751145323L348.52130111147875,389.63834813718483L346.95058323921864,389.54668522480847L327.92191454661213,387.29511251045346L329.6834152505933,372.6718097733734L330.28958986319526,366.7109678349308M372.36428496717963,380.56304934627804L371.1615895947423,393.49817467774426L370.5011534105399,398.32796952325407L364.1280458608468,397.83685450099676L364.412940752603,394.5987737423136L358.13379737166156,393.97261484042326L358.28176364927884,392.36850091376084L348.7528710651795,391.3524000223058L348.52130111147875,389.63834813718483M392.74189638402277,392.1084732367882L389.4904504690751,391.85954452971635L389.21428470960177,395.1145374228255L388.5267806375891,395.0654889232102L387.866716028841,403.12525273172093L387.12009053990903,403.0669551531107L371.1833393517854,401.7013794571096L370.2594637664113,409.9702960974736L362.42384543275244,409.25099038859753L363.26429457664335,400.96643567870456L363.8261597671005,401.0207809853663L364.1280458608468,397.83685450099676M316.30465580389443,416.3606210597022L316.2463058213057,417.87409383485874L315.1645893811798,426.24895740466127L301.9025378375336,424.4996261039621L304.75144549691925,404.1694797847198L305.6598118508173,397.63516778045494L306.76907175075496,389.6055198599323M399.79255865418406,392.64259182848707L399.4720344857969,396.05446769075854L398.75066792582754,404.0946333474892L398.1412725448681,412.277932999154L397.54023001179496,420.42516120808625L397.41963892084226,422.0446079382119L393.30151018164304,421.7352781064933L387.06967695579226,421.24390081792467L387.8655572571908,411.47085682544775L386.44272168394366,411.35531159439086L387.12009053990903,403.0669551531107M348.7528710651795,391.3524000223058L348.14576511994085,397.678324700202L339.19151544757267,401.02236569372144L339.10341080929084,401.8370921294576L332.72954249664645,401.07044677160195L332.3290988598061,404.3283125909579L327.53548241967394,403.7508550702172L325.5909389334521,403.0543869917119L326.17934766465316,400.3149711504626L325.66797584478024,396.9429948725216L324.81859782688673,396.4381441291673L324.7832347654175,392.10122681995915L322.8570740270095,391.87734357452723M370.2594637664113,409.9702960974736L369.40805952301116,419.69427292480475L368.3040012707935,419.5917958413038L351.3751316740046,417.86714236520993L345.42777180495625,417.24748028693534L347.396579572124,399.38971507183965L348.14576511994085,397.678324700202M327.53548241967394,403.7508550702172L322.6415999408384,403.16020428109164L322.4368566318959,404.78367032534265L317.68612745079685,404.1818513209612L316.6221434219309,412.31716066886145L316.30465580389443,416.3606210597022L311.4883411014871,415.7372797097469L311.813839986756,411.6901296707799L312.9094844122332,403.5610518128741L311.1994944657881,403.3301137352115L311.42651640431427,401.71874392147583L308.22180824065424,401.28522975750775L308.6394164411176,398.04981988884515L305.6598118508173,397.63516778045494M345.42777180495625,417.24748028693534L341.64767531969926,416.8434645837167L341.09083211122584,419.31638742602945L342.6154028586251,421.03918249359117L330.5442056357735,419.6531985838536L332.3290988598061,404.3283125909579M387.06967695579226,421.24390081792467L383.0271428473299,420.9112047998584L382.3336885402464,420.85369125850957L369.40805952301116,419.69427292480475M330.5442056357735,419.6531985838536L316.2463058213057,417.87409383485874" vector-effect="non-scaling-stroke"></path></svg>