<svg xmlns="http://www.w3.org/2000/svg" version="1.2" id="root" viewBox="301.9025378375336 318.8997797047822 103.41930888141098 107.34917769987908"><g id="counties"><path id="county-35039" class="county feature" d="M354.212 323.683l6.898.716.297 2.144-.474 3.177.128 4.749-.719 2.186-1.372.765 2.852 1.555 1.544 2.627 2.895 1.945-.692.696-2.17-.337.057-.441-5.275-.545.114 1.363-2.855-.308.04-.668.082-.658-9.494-1.012.468-4.074-10.946-1.364 1.43-10.935 2.781-1.747.557-1.556z" vector-effect="non-scaling-stroke" fill="inherit" stroke="inherit" stroke-width="inherit"><title>Rio Arriba County</title></path><path id="county-35045" class="county feature" d="M340.358 321.961l-.557 1.556-2.781 1.747-1.43 10.935-.542 4.102-21.06-2.788 2.58-18.613 9.749 1.303 13.157 1.651z" vector-effect="non-scaling-stroke" fill="inherit" stroke="inherit" stroke-width="inherit"><title>San Juan County</title></path><path id="county-35059" class="county feature" d="M405.322 328.276l-.699 9.395-.585-.044-.606 8.37-.446 5.937-4.998-.392.655-6.495-6.399-.5.142-1.659-3.2-.276.07-.817 1.25-14.618 13.579 1.004z" vector-effect="non-scaling-stroke" fill="inherit" stroke="inherit" stroke-width="inherit"><title>Union County</title></path><path id="county-35055" class="county feature" d="M372.662 325.575l.161 1.523-.805 3.555-2.148.803-.342 2.204.76 1.211-.75 4.282-1.02.355-.395 1.978-1.862 2.061-2.895-1.945-1.544-2.627-2.852-1.555 1.372-.765.72-2.186-.129-4.749.474-3.177-.297-2.144 4.236.431z" vector-effect="non-scaling-stroke" fill="inherit" stroke="inherit" stroke-width="inherit"><title>Taos County</title></path><path id="county-35007" class="county feature" d="M390.506 327.177l-1.25 14.618-6.356-.565-6.382-.569.086-.807-7.065-.701.75-4.282-.76-1.211.34-2.204 2.15-.803.804-3.555-.16-1.523.965.092z" vector-effect="non-scaling-stroke" fill="inherit" stroke="inherit" stroke-width="inherit"><title>Colfax County</title></path><path id="county-35033" class="county feature" d="M369.539 339.153l7.065.7-.086.808 6.382.569 1.14 4.956-1.042 1.83.207 1.515-9.575-.687-4.917-2.355-5.558-.566.245-2.017 2.17.337.69-.696 1.863-2.061.396-1.978z" vector-effect="non-scaling-stroke" fill="inherit" stroke="inherit" stroke-width="inherit"><title>Mora County</title></path><path id="county-35043" class="county feature" d="M355.217 345.689l.033-.313-.033.313zm.263-2.382l-2.268-.129-.325 2.855 2.16 1.22L354 357.387l-14.285-1.701-.456-1.686-1.06-.123 1.577-12.973-4.727-.603.542-4.102 10.946 1.364-.468 4.074 9.494 1.012z" vector-effect="non-scaling-stroke" fill="inherit" stroke="inherit" stroke-width="inherit"><title>Sandoval County</title></path><path id="county-35021" class="county feature" d="M389.256 341.795l-.07.817 3.2.276-.142 1.659 6.4.5-.656 6.495-.57 6.42-3.884-.151-1.267-.717-3.189-7.44-.697.324-5.176-.447-.207-1.514 1.042-1.831-1.14-4.956z" vector-effect="non-scaling-stroke" fill="inherit" stroke="inherit" stroke-width="inherit"><title>Harding County</title></path><path id="county-35031" class="county feature" d="M335.048 340.301l4.727.603-1.578 12.973-17.363-2.213-.873 6.492-8.662-1.183 2.688-19.46z" vector-effect="non-scaling-stroke" fill="inherit" stroke="inherit" stroke-width="inherit"><title>McKinley County</title></path><path id="county-35049" class="county feature" d="M363.4 343.906l-.245 2.017-1.51 15.555-7.979-.812.333-3.28 1.048-10.133 1.255-1.185-1.085-.38.033-.312.19-1.401 2.855.308-.114-1.363 5.275.545z" vector-effect="non-scaling-stroke" fill="inherit" stroke="inherit" stroke-width="inherit"><title>Santa Fe County</title></path><path id="county-35028" class="county feature" d="M355.48 343.307l-.04.668-.19 1.4-.033.314 1.085.379-1.255 1.185-2.16-1.22.325-2.855z" vector-effect="non-scaling-stroke" fill="inherit" stroke="inherit" stroke-width="inherit"><title>Los Alamos County</title></path><path id="county-35047" class="county feature" d="M383.205 349.531l5.176.447.697-.324 3.189 7.44 1.267.717-.225 2.796-3.285-.708-4.224 1.948.108-1.38-17.558-1.626-.31 3.268-6.394-.631 1.509-15.555 5.558.566 4.917 2.355z" vector-effect="non-scaling-stroke" fill="inherit" stroke="inherit" stroke-width="inherit"><title>San Miguel County</title></path><path id="county-35037" class="county feature" d="M402.986 351.934l-.168 2.199-.629 8.25-.32 4.303-3.633-.278-.145 1.679-1.598-.13-.138 1.63-1.595-.133-.134 1.636-3.192-.273-.625 1.608-3.195-.271-2.737-.235.275-3.268.648-6.804 4.224-1.948 3.285.708.225-2.796 3.884.15.57-6.419z" vector-effect="non-scaling-stroke" fill="inherit" stroke="inherit" stroke-width="inherit"><title>Quay County</title></path><path id="county-35006" class="county feature" d="M338.197 353.877l1.061.123.456 1.686 1.367 5.132-2.043-.256-.867 7.09-7.881-.941-19.982-2.642.991-7.096 8.662 1.183.873-6.492z" vector-effect="non-scaling-stroke" fill="inherit" stroke="inherit" stroke-width="inherit"><title>Cibola County</title></path><path id="county-35001" class="county feature" d="M354 357.387l-.334 3.28-.175 1.624 1.414.149-.162 1.56-3.952-.43-.246-.653-3.814-.482-.623.616-4.572-.53-.455-1.703-1.367-5.132z" vector-effect="non-scaling-stroke" fill="inherit" stroke="inherit" stroke-width="inherit"><title>Bernalillo County</title></path><path id="county-35019" class="county feature" d="M385.8 361.847l-.648 6.804-3.194-.271-.138 1.628-1.596-.13-.167 1.628-6.769-.612-.452 4.823-6.412-.61.485-4.877.332.039.8-8.16.31-3.268 17.557 1.627z" vector-effect="non-scaling-stroke" fill="inherit" stroke="inherit" stroke-width="inherit"><title>Guadalupe County</title></path><path id="county-35057" class="county feature" d="M368.04 362.11l-.8 8.159-.331-.04-.485 4.877-.165 1.625-9.302-.945-7.494-.799.354-3.37-.632-1.612.809-6.521.797.086 3.952.43.162-1.56-1.414-.15.175-1.624 7.98.812z" vector-effect="non-scaling-stroke" fill="inherit" stroke="inherit" stroke-width="inherit"><title>Torrance County</title></path><path id="county-35061" class="county feature" d="M341.081 360.818l.455 1.703 4.572.53.623-.616 3.814.482.246.653-.797-.086-.81 6.52.633 1.613-5.14-2.31-1.622-1.096-4.884-.56.867-7.09z" vector-effect="non-scaling-stroke" fill="inherit" stroke="inherit" stroke-width="inherit"><title>Valencia County</title></path><path id="county-35009" class="county feature" d="M401.87 366.686l-.289 3.883-.627 8.158-.014.19-10.62-.836.49-5.656.624-1.608 3.192.273.134-1.636 1.595.133.138-1.63 1.598.13.145-1.68z" vector-effect="non-scaling-stroke" fill="inherit" stroke="inherit" stroke-width="inherit"><title>Curry County</title></path><path id="county-35011" class="county feature" d="M387.614 372.154l-.777 9.799-3.21-.283-.154 1.648-9.628-.948.153-1.644-1.634-.163.472-4.846.452-4.823 6.77.612.166-1.628 1.596.13.138-1.628 3.194.271-.275 3.268z" vector-effect="non-scaling-stroke" fill="inherit" stroke="inherit" stroke-width="inherit"><title>DeBaca County</title></path><path id="county-35041" class="county feature" d="M390.81 372.425l-.49 5.656 10.62.837-.715 8.956-.432 4.769-7.051-.535.134-1.628-3.21-.239.272-3.057-1.918-.156.407-4.921-1.59-.154.777-9.8z" vector-effect="non-scaling-stroke" fill="inherit" stroke="inherit" stroke-width="inherit"><title>Roosevelt County</title></path><path id="county-35053" class="county feature" d="M349.817 371.617l-.354 3.37 7.494.8-.863 8.129-1.962-.214-.349 3.285-4.909-.722-.353 3.373-1.57-.091-19.03-2.252 1.762-14.623.607-5.961 7.881.94 4.884.56 1.622 1.096z" vector-effect="non-scaling-stroke" fill="inherit" stroke="inherit" stroke-width="inherit"><title>Socorro County</title></path><path id="county-35003" class="county feature" d="M330.29 366.711l-.607 5.96-1.761 14.624-4.41-.574-.655 5.156-16.088-2.271L308.234 379l2.074-14.931z" vector-effect="non-scaling-stroke" fill="inherit" stroke="inherit" stroke-width="inherit"><title>Catron County</title></path><path id="county-35027" class="county feature" d="M372.836 375.717l-.472 4.846-1.202 12.935-.66 4.83-6.374-.491.285-3.238-6.28-.626.149-1.604-9.53-1.017-.23-1.714.352-3.373 4.91.722.348-3.285 1.962.214.863-8.13 9.302.945.165-1.625z" vector-effect="non-scaling-stroke" fill="inherit" stroke="inherit" stroke-width="inherit"><title>Lincoln County</title></path><path id="county-35005" class="county feature" d="M386.837 381.953l1.59.154-.407 4.921 1.918.156-.271 3.057 3.21.24-.135 1.627-3.252-.248-.276 3.255-.687-.05-.66 8.06-.747-.058-15.937-1.366-.924 8.27-7.835-.72.84-8.285.562.055.302-3.184 6.373.491.66-4.83 1.203-12.935 1.634.163-.153 1.644 9.628.948.153-1.648z" vector-effect="non-scaling-stroke" fill="inherit" stroke="inherit" stroke-width="inherit"><title>Chaves County</title></path><path id="county-35025" class="county feature" d="M399.793 392.643l-.321 3.411-.721 8.04-.61 8.184-.6 8.147-.121 1.62-4.118-.31-6.232-.491.796-9.773-1.423-.116.677-8.288.747.058.66-8.06.687.05.276-3.255 3.252.248z" vector-effect="non-scaling-stroke" fill="inherit" stroke="inherit" stroke-width="inherit"><title>Lea County</title></path><path id="county-35051" class="county feature" d="M348.521 389.638l.232 1.714-.607 6.326-8.954 3.344-.089.815-6.373-.767-.4 3.258-4.795-.577-1.944-.697.588-2.739-.511-3.372-.85-.505-.035-4.337-1.926-.224.655-5.156 4.41.574 19.029 2.252z" vector-effect="non-scaling-stroke" fill="inherit" stroke="inherit" stroke-width="inherit"><title>Sierra County</title></path><path id="county-35035" class="county feature" d="M364.128 397.837l-.302 3.184-.562-.055-.84 8.285 7.835.72-.85 9.723-1.105-.102-16.929-1.725-5.947-.62 1.969-17.857.749-1.712.607-6.326 9.529 1.017-.148 1.604 6.279.626z" vector-effect="non-scaling-stroke" fill="inherit" stroke="inherit" stroke-width="inherit"><title>Otero County</title></path><path id="county-35017" class="county feature" d="M322.857 391.877l1.926.224.036 4.337.849.505.511 3.372-.588 2.74 1.944.696-4.893-.59-.205 1.623-4.75-.602-1.065 8.135-.317 4.044-4.817-.624.326-4.047 1.095-8.129-1.71-.23.228-1.612-3.205-.434.417-3.235-2.98-.415 1.11-8.03z" vector-effect="non-scaling-stroke" fill="inherit" stroke="inherit" stroke-width="inherit"><title>Grant County</title></path><path id="county-35013" class="county feature" d="M345.428 417.247l-3.78-.404-.557 2.473 1.524 1.723-12.07-1.386 1.784-15.325.4-3.258 6.374.767.089-.815 8.954-3.344-.75 1.712z" vector-effect="non-scaling-stroke" fill="inherit" stroke="inherit" stroke-width="inherit"><title>Dona Ana County</title></path><path id="county-35015" class="county feature" d="M387.12 403.067l-.677 8.288 1.423.116-.796 9.773-4.043-.333-.693-.057-12.926-1.16.851-9.724.924-8.269z" vector-effect="non-scaling-stroke" fill="inherit" stroke="inherit" stroke-width="inherit"><title>Eddy County</title></path><path id="county-35023" class="county feature" d="M316.305 416.36l-.059 1.514-1.081 8.375-13.262-1.75 2.848-20.33.909-6.534 2.98.415-.418 3.235 3.205.434-.228 1.611 1.71.231-1.095 8.13-.326 4.046z" vector-effect="non-scaling-stroke" fill="inherit" stroke="inherit" stroke-width="inherit"><title>Hidalgo County</title></path><path id="county-35029" class="county feature" d="M332.33 404.328l-1.786 15.325-14.298-1.779.059-1.513.317-4.044 1.064-8.135 4.75.602.206-1.624 4.893.59z" vector-effect="non-scaling-stroke" fill="inherit" stroke="inherit" stroke-width="inherit"><title>Luna County</title></path></g><path id="counties-mesh" class="counties mesh" d="M361.11 324.4l.297 2.143-.474 3.177.128 4.749-.719 2.186-1.372.765 2.852 1.555 1.544 2.627 2.895 1.945-.692.696-2.17-.337.057-.441-5.275-.545.114 1.363-2.855-.308.04-.668.082-.658-9.494-1.012.468-4.074-10.946-1.364 1.43-10.935 2.781-1.747.557-1.556m-12.436 65.334l-4.41-.574-.655 5.156-16.088-2.271L308.234 379l2.074-14.931.991-7.096 2.688-19.46m21.603-1.314l-.542 4.102-21.06-2.788 2.58-18.613 9.749 1.303 13.157 1.651.884.107 13.854 1.722 6.898.716 4.236.431 7.316.745.966.092 16.878 1.51 13.579 1.004 1.237.095-.699 9.395-.585-.044-.606 8.37-.446 5.937-4.998-.392.655-6.495-6.399-.5.142-1.659-3.2-.276.07-.817 1.25-14.618m-17.844-1.602l.161 1.523-.805 3.555-2.148.803-.342 2.204.76 1.211-.75 4.282-1.02.355-.395 1.978-1.862 2.061m22.995-1.752l-6.356-.565-6.382-.569.086-.807-7.065-.701m13.361 2.077l1.14 4.956-1.042 1.83.207 1.515-9.575-.687-4.917-2.355-5.558-.566.245-2.017m-8.353 3.347l1.255-1.185-1.085-.38.033-.312-.033.313m.263-2.382l-2.268-.129-.325 2.855 2.16 1.22L354 357.387l-14.285-1.701-.456-1.686-1.06-.123 1.577-12.973-4.727-.603m62.94 11.241l-.57 6.42-3.884-.151-1.267-.717-3.189-7.44-.697.324-5.176-.447m-45.008 4.346l-17.363-2.213-.873 6.492-8.662-1.183m51.856-11.05l-1.51 15.555-7.979-.812.333-3.28m1.251-12.01l.19-1.401m38.094 13.836l-.225 2.796-3.285-.708-4.224 1.948.108-1.38-17.558-1.626-.31 3.268-6.394-.631m41.34-9.544l-.168 2.199-.629 8.25-.32 4.303-3.633-.278-.145 1.679-1.598-.13-.138 1.63-1.595-.133-.134 1.636-3.192-.273-.625 1.608-3.195-.271-2.737-.235.275-3.268.648-6.804m-46.086-6.161l1.367 5.132-2.043-.256-.867 7.09-7.881-.941-19.982-2.642m43.358-3.403l-.175 1.625 1.414.149-.162 1.56-3.952-.43-.246-.653-3.814-.482-.623.616-4.572-.53-.455-1.703m44.07 7.833l-3.193-.271-.138 1.628-1.596-.13-.167 1.628-6.769-.612-.452 4.823-6.412-.61.485-4.877.332.039.8-8.16m-1.617 12.997l-.165 1.625-9.302-.945-7.494-.799.354-3.37-.632-1.612.809-6.521.797.086m-.974 8.047l-5.14-2.31-1.622-1.096-4.884-.56m63.699-.965l-.289 3.883-.627 8.158-.014.19-10.62-.836.49-5.656m-3.196-.271l-.777 9.799-3.21-.283-.154 1.648-9.628-.948.153-1.644-1.634-.163.472-4.846m28.104 3.2l-.715 8.957-.432 4.769-7.051-.535.134-1.628-3.21-.239.272-3.057-1.918-.156.407-4.921-1.59-.154m-29.88-6.167l-.863 8.13-1.962-.214-.349 3.285-4.909-.722-.353 3.373-1.57-.091-19.03-2.252 1.762-14.623.607-5.961m42.074 13.852l-1.202 12.935-.66 4.83-6.374-.491.285-3.238-6.28-.626.149-1.604-9.53-1.017-.23-1.714m44.22 2.47l-3.252-.248-.276 3.255-.687-.05-.66 8.06-.747-.058-15.937-1.366-.924 8.27-7.835-.72.84-8.285.562.055.302-3.184m-47.823 18.524l-.059 1.513-1.081 8.375-13.262-1.75 2.848-20.33.909-6.534 1.11-8.03m93.023 3.038l-.321 3.411-.721 8.04-.61 8.184-.6 8.147-.121 1.62-4.118-.31-6.232-.491.796-9.773-1.423-.116.677-8.288m-38.367-11.715l-.607 6.326-8.954 3.344-.089.815-6.373-.767-.4 3.258-4.795-.577-1.944-.697.588-2.739-.511-3.372-.85-.505-.035-4.337-1.926-.224m47.402 18.093l-.85 9.724-1.105-.102-16.929-1.725-5.947-.62 1.969-17.857.749-1.712m-20.61 6.073l-4.894-.59-.205 1.623-4.75-.602-1.065 8.135-.317 4.044-4.817-.624.326-4.047 1.095-8.129-1.71-.23.228-1.612-3.205-.434.417-3.235-2.98-.415m39.769 19.612l-3.78-.404-.557 2.473 1.524 1.723-12.07-1.386 1.784-15.325m54.74 16.916l-4.042-.333-.693-.057-12.926-1.16m-38.864-.04l-14.298-1.78" vector-effect="non-scaling-stroke" fill="inherit" stroke="inherit" stroke-width="inherit"/></svg>