<?xml version="1.0" standalone="yes"?>
<svg xmlns="http://www.w3.org/2000/svg" version="1.2" id="root" viewBox="158.61332936442432 187.7250094216339 111.60059000923242 163.11645077872984"><style>
@import url("../../css/svg.css");</style><rect id="bbox" class="bbox" x="158.61332936442432" y="187.7250094216339" width="111.60059000923242" height="163.11645077872984"></rect><g id="counties"><path id="county-32013" class="county feature" d="M217.2574005155351,224.32331290005902L215.7768490603442,230.8858003199482L212.64633840160246,230.18944448458956L211.42196893008992,232.15744298492086L211.95779417905266,229.23987177320078L207.38375635301628,228.1727440482765L208.12173686566427,224.9883632197177L192.5468520646245,221.31754325456404L193.01621338212215,219.39748869333312L185.9141132424923,217.65002313632817L185.6414197314208,217.581739748048L190.4447499609508,198.73365908597646L205.54673908533988,202.3606428058938L221.26264186741594,205.9443229041584L221.3806201826095,205.9832788685461Z" style="fill: inherit; stroke: inherit; stroke-width: inherit;" vector-effect="non-scaling-stroke"><title>Humboldt County</title></path><path id="county-32007" class="county feature" d="M258.25747411672734,213.81312146165897L261.5143753321245,214.45244088140475L257.9806384091274,232.81739842586433L254.7722670669392,249.13831805773611L237.903474606546,245.67673456532088L230.01315516025915,243.92813569770783L227.71108155533227,243.44782153345784L227.6786441109674,233.0544004641372L228.99575666333436,226.91385395990642L223.14465294596187,225.62975049312138L217.2574005155351,224.32331290005902L221.3806201826095,205.9832788685461L233.1050436771887,208.58241564320917L248.0374605294827,211.7463417760199Z" style="fill: inherit; stroke: inherit; stroke-width: inherit;" vector-effect="non-scaling-stroke"><title>Elko County</title></path><path id="county-32031" class="county feature" d="M185.9141132424923,217.65002313632817L183.84343990208924,225.71504175155678L183.4933296090241,225.6367369283564L181.10988333633742,235.12615239270406L182.6833306554351,235.5038341497085L182.04742338414997,239.02415576687713L182.4682625518621,239.5514740242087L181.50688699410347,242.33590660794812L180.1512228747285,242.21268245901967L177.46539780225584,242.27866901585583L174.96414524216033,243.04251997612755L173.99177935331585,242.60519499006307L173.62144901627443,246.20361787120714L172.49433138138448,247.48632191676495L169.763031978642,248.4488277268499L168.04865237130264,248.00549277284802L168.71245815169647,245.24829201287116L169.38888598675362,242.85324911719317L170.71615055150988,237.85315330636877L177.6097874498509,211.1972716096475L181.43169445561847,196.42455346316615L189.96211953356777,198.6043533554589L190.4447499609508,198.73365908597646L185.6414197314208,217.581739748048Z" style="fill: inherit; stroke: inherit; stroke-width: inherit;" vector-effect="non-scaling-stroke"><title>Washoe County</title></path><path id="county-32011" class="county feature" d="M230.01315516025915,243.92813569770783L229.4938612869335,249.11189090200332L228.5342865043482,251.18245104477796L228.22673852996445,253.84545866353005L226.40447274663472,255.94534141008057L225.2284102119071,261.5272520087784L215.4961540536629,259.4285485583505L219.3275997421083,242.71534046934653L222.78910040098418,226.59134216504117L223.14465294596187,225.62975049312138L228.99575666333436,226.91385395990642L227.6786441109674,233.0544004641372L227.71108155533227,243.44782153345784Z" style="fill: inherit; stroke: inherit; stroke-width: inherit;" vector-effect="non-scaling-stroke"><title>Eureka County</title></path><path id="county-32015" class="county feature" d="M223.14465294596187,225.62975049312138L222.78910040098418,226.59134216504117L219.3275997421083,242.71534046934653L215.4961540536629,259.4285485583505L205.27194361612783,257.0994279966561L198.77253013068167,256.95397898505894L200.05563972186036,254.94018024285697L200.06369561733436,252.2313348106287L203.17536788006691,249.7580090304881L204.57053884738508,249.77113222877756L205.4217126999307,248.0561608837612L205.47056436302682,245.81398860184788L206.57071647094733,242.73646964680017L205.89520350166998,241.04144558880535L211.42196893008992,232.15744298492086L212.64633840160246,230.18944448458956L215.7768490603442,230.8858003199482L217.2574005155351,224.32331290005902Z" style="fill: inherit; stroke: inherit; stroke-width: inherit;" vector-effect="non-scaling-stroke"><title>Lander County</title></path><path id="county-32027" class="county feature" d="M211.42196893008992,232.15744298492086L205.89520350166998,241.04144558880535L192.6474567171112,237.96265341669698L182.6833306554351,235.5038341497085L181.10988333633742,235.12615239270406L183.4933296090241,225.6367369283564L183.84343990208924,225.71504175155678L185.9141132424923,217.65002313632817L193.01621338212215,219.39748869333312L192.5468520646245,221.31754325456404L208.12173686566427,224.9883632197177L207.38375635301628,228.1727440482765L211.95779417905266,229.23987177320078Z" style="fill: inherit; stroke: inherit; stroke-width: inherit;" vector-effect="non-scaling-stroke"><title>Pershing County</title></path><path id="county-32033" class="county feature" d="M254.7722670669392,249.13831805773611L254.02195609661814,253.04216327817323L252.719310941375,259.76552504524057L249.60901544194428,275.78290206433644L236.14093524562543,273.1240199889601L225.2284102119071,261.5272520087784L226.40447274663472,255.94534141008057L228.22673852996445,253.84545866353005L228.5342865043482,251.18245104477796L229.4938612869335,249.11189090200332L230.01315516025915,243.92813569770783L237.903474606546,245.67673456532088Z" style="fill: inherit; stroke: inherit; stroke-width: inherit;" vector-effect="non-scaling-stroke"><title>White Pine County</title></path><path id="county-32001" class="county feature" d="M205.89520350166998,241.04144558880535L206.57071647094733,242.73646964680017L205.47056436302682,245.81398860184788L205.4217126999307,248.0561608837612L204.57053884738508,249.77113222877756L203.17536788006691,249.7580090304881L200.06369561733436,252.2313348106287L200.05563972186036,254.94018024285697L198.77253013068167,256.95397898505894L197.443194458863,257.02605175609756L185.03609131879375,254.039284612017L185.19823228585813,253.35327621899467L181.381450632211,247.045936932083L183.45287960104224,241.07377463825117L181.50688699410347,242.33590660794812L182.4682625518621,239.5514740242087L182.04742338414997,239.02415576687713L182.6833306554351,235.5038341497085L192.6474567171112,237.96265341669698Z" style="fill: inherit; stroke: inherit; stroke-width: inherit;" vector-effect="non-scaling-stroke"><title>Churchill County</title></path><path id="county-32019" class="county feature" d="M185.03609131879375,254.039284612017L182.57260843859802,253.459550764626L180.79335441990605,255.547369618454L180.38734782524403,257.2342213455853L181.96745648736896,257.6068160700381L179.92820014084492,265.60021571493667L176.40922377696097,264.7293191659717L174.5372668153026,261.90690059454084L175.17336363254492,258.1744590467598L174.3669969657205,258.0263190271055L175.18454837609545,253.92694181039383L176.88658392566015,253.65439284613024L177.2965340301517,251.95290620613366L173.97855195719075,251.07406688570256L174.3256458089936,249.03075450722918L172.49433138138448,247.48632191676495L176.14399743820195,246.72321015395937L180.1512228747285,242.21268245901967L181.50688699410347,242.33590660794812L183.45287960104224,241.07377463825117L181.381450632211,247.045936932083L185.19823228585813,253.35327621899467Z" style="fill: inherit; stroke: inherit; stroke-width: inherit;" vector-effect="non-scaling-stroke"><title>Lyon County</title></path><path id="county-32029" class="county feature" d="M172.49433138138448,247.48632191676495L173.62144901627443,246.20361787120714L173.99177935331585,242.60519499006307L174.96414524216033,243.04251997612755L177.46539780225584,242.27866901585583L180.1512228747285,242.21268245901967L176.14399743820195,246.72321015395937Z" style="fill: inherit; stroke: inherit; stroke-width: inherit;" vector-effect="non-scaling-stroke"><title>Storey County</title></path><path id="county-32510" class="county feature" d="M173.97855195719075,251.07406688570256L171.17834484961026,249.81373010433026L167.8091000530515,248.97496622588596L168.04865237130264,248.00549277284802L169.763031978642,248.4488277268499L172.49433138138448,247.48632191676495L174.3256458089936,249.03075450722918Z" style="fill: inherit; stroke: inherit; stroke-width: inherit;" vector-effect="non-scaling-stroke"><title>Carson City</title></path><path id="county-32023" class="county feature" d="M215.4961540536629,259.4285485583505L225.2284102119071,261.5272520087784L236.14093524562543,273.1240199889601L233.79582025573563,284.69780258300545L221.0552525674288,282.064219521321L216.2731540407937,304.345773390477L213.02461238573704,319.8683717034904L198.470423021611,297.949413628166L202.76799832757115,278.99521988485253L197.3188561607443,268.61028693005244L192.14220974751453,258.77602601318847L192.49157910985082,257.2850183851251L197.443194458863,257.02605175609756L198.77253013068167,256.95397898505894L205.27194361612783,257.0994279966561Z" style="fill: inherit; stroke: inherit; stroke-width: inherit;" vector-effect="non-scaling-stroke"><title>Nye County</title></path><path id="county-32005" class="county feature" d="M173.97855195719075,251.07406688570256L177.2965340301517,251.95290620613366L176.88658392566015,253.65439284613024L175.18454837609545,253.92694181039383L174.3669969657205,258.0263190271055L175.17336363254492,258.1744590467598L174.5372668153026,261.90690059454084L171.81835564835836,257.83863075027216L168.34435843008777,252.60485344366066L167.31287340595657,251.04239369548225L167.6109897041216,249.80453533952436L167.8091000530515,248.97496622588596L171.17834484961026,249.81373010433026Z" style="fill: inherit; stroke: inherit; stroke-width: inherit;" vector-effect="non-scaling-stroke"><title>Douglas County</title></path><path id="county-32021" class="county feature" d="M197.443194458863,257.02605175609756L192.49157910985082,257.2850183851251L192.14220974751453,258.77602601318847L197.3188561607443,268.61028693005244L185.46305099465303,277.0534970415358L184.38417389083054,276.7455713376096L176.40922377696097,264.7293191659717L179.92820014084492,265.60021571493667L181.96745648736896,257.6068160700381L180.38734782524403,257.2342213455853L180.79335441990605,255.547369618454L182.57260843859802,253.459550764626L185.03609131879375,254.039284612017Z" style="fill: inherit; stroke: inherit; stroke-width: inherit;" vector-effect="non-scaling-stroke"><title>Mineral County</title></path><path id="county-32017" class="county feature" d="M249.60901544194428,275.78290206433644L249.2373028485996,277.7165962263409L247.72686805553434,285.5740618966804L245.75496360063693,295.63714653618604L243.62918336120197,306.834545538061L243.07456037997355,309.7477879689043L232.73325854408472,307.70622789763024L232.76881524548776,307.52845670363524L218.58228128559853,304.6221685448053L216.2731540407937,304.345773390477L221.0552525674288,282.064219521321L233.79582025573563,284.69780258300545L236.14093524562543,273.1240199889601Z" style="fill: inherit; stroke: inherit; stroke-width: inherit;" vector-effect="non-scaling-stroke"><title>Lincoln County</title></path><path id="county-32009" class="county feature" d="M198.470423021611,297.949413628166L190.9824514832169,286.66903154150214L184.38417389083054,276.7455713376096L185.46305099465303,277.0534970415358L197.3188561607443,268.61028693005244L202.76799832757115,278.99521988485253Z" style="fill: inherit; stroke: inherit; stroke-width: inherit;" vector-effect="non-scaling-stroke"><title>Esmeralda County</title></path><path id="county-32003" class="county feature" d="M243.07456037997355,309.7477879689043L240.85671139851263,321.7960812693111L238.64276359979635,324.63591294976584L237.42957209618066,324.5998385040739L235.88541486054766,321.80554632593476L232.06919458182654,321.0614332751617L230.024599883622,321.74113838493395L229.91880116898807,326.22431468646005L229.0751679413437,332.5575483640333L229.59647175053755,336.24149004787625L229.38392156414835,339.353911015755L228.00566563363589,340.2410311623312L227.83322951095653,342.14191615883146L215.84920341105197,324.121164093183L213.02461238573704,319.8683717034904L216.2731540407937,304.345773390477L218.58228128559853,304.6221685448053L232.76881524548776,307.52845670363524L232.73325854408472,307.70622789763024Z" style="fill: inherit; stroke: inherit; stroke-width: inherit;" vector-effect="non-scaling-stroke"><title>Clark County</title></path></g><path id="counties-mesh" class="counties mesh" d="M221.3806201826095,205.9832788685461L217.2574005155351,224.32331290005902L215.7768490603442,230.8858003199482L212.64633840160246,230.18944448458956L211.42196893008992,232.15744298492086L211.95779417905266,229.23987177320078L207.38375635301628,228.1727440482765L208.12173686566427,224.9883632197177L192.5468520646245,221.31754325456404L193.01621338212215,219.39748869333312L185.9141132424923,217.65002313632817L185.6414197314208,217.581739748048L190.4447499609508,198.73365908597646M185.9141132424923,217.65002313632817L183.84343990208924,225.71504175155678L183.4933296090241,225.6367369283564L181.10988333633742,235.12615239270406L182.6833306554351,235.5038341497085L182.04742338414997,239.02415576687713L182.4682625518621,239.5514740242087L181.50688699410347,242.33590660794812L180.1512228747285,242.21268245901967L177.46539780225584,242.27866901585583L174.96414524216033,243.04251997612755L173.99177935331585,242.60519499006307L173.62144901627443,246.20361787120714L172.49433138138448,247.48632191676495L169.763031978642,248.4488277268499L168.04865237130264,248.00549277284802L168.71245815169647,245.24829201287116L169.38888598675362,242.85324911719317L170.71615055150988,237.85315330636877L177.6097874498509,211.1972716096475L181.43169445561847,196.42455346316615L189.96211953356777,198.6043533554589L190.4447499609508,198.73365908597646L205.54673908533988,202.3606428058938L221.26264186741594,205.9443229041584L221.3806201826095,205.9832788685461L233.1050436771887,208.58241564320917L248.0374605294827,211.7463417760199L258.25747411672734,213.81312146165897L261.5143753321245,214.45244088140475L257.9806384091274,232.81739842586433L254.7722670669392,249.13831805773611L237.903474606546,245.67673456532088L230.01315516025915,243.92813569770783L227.71108155533227,243.44782153345784L227.6786441109674,233.0544004641372L228.99575666333436,226.91385395990642L223.14465294596187,225.62975049312138L217.2574005155351,224.32331290005902M230.01315516025915,243.92813569770783L229.4938612869335,249.11189090200332L228.5342865043482,251.18245104477796L228.22673852996445,253.84545866353005L226.40447274663472,255.94534141008057L225.2284102119071,261.5272520087784L215.4961540536629,259.4285485583505L219.3275997421083,242.71534046934653L222.78910040098418,226.59134216504117L223.14465294596187,225.62975049312138M215.4961540536629,259.4285485583505L205.27194361612783,257.0994279966561L198.77253013068167,256.95397898505894L200.05563972186036,254.94018024285697L200.06369561733436,252.2313348106287L203.17536788006691,249.7580090304881L204.57053884738508,249.77113222877756L205.4217126999307,248.0561608837612L205.47056436302682,245.81398860184788L206.57071647094733,242.73646964680017L205.89520350166998,241.04144558880535L211.42196893008992,232.15744298492086M205.89520350166998,241.04144558880535L192.6474567171112,237.96265341669698L182.6833306554351,235.5038341497085M254.7722670669392,249.13831805773611L254.02195609661814,253.04216327817323L252.719310941375,259.76552504524057L249.60901544194428,275.78290206433644L236.14093524562543,273.1240199889601L225.2284102119071,261.5272520087784M198.77253013068167,256.95397898505894L197.443194458863,257.02605175609756L185.03609131879375,254.039284612017L185.19823228585813,253.35327621899467L181.381450632211,247.045936932083L183.45287960104224,241.07377463825117L181.50688699410347,242.33590660794812M185.03609131879375,254.039284612017L182.57260843859802,253.459550764626L180.79335441990605,255.547369618454L180.38734782524403,257.2342213455853L181.96745648736896,257.6068160700381L179.92820014084492,265.60021571493667L176.40922377696097,264.7293191659717L174.5372668153026,261.90690059454084L175.17336363254492,258.1744590467598L174.3669969657205,258.0263190271055L175.18454837609545,253.92694181039383L176.88658392566015,253.65439284613024L177.2965340301517,251.95290620613366L173.97855195719075,251.07406688570256L174.3256458089936,249.03075450722918L172.49433138138448,247.48632191676495L176.14399743820195,246.72321015395937L180.1512228747285,242.21268245901967M174.5372668153026,261.90690059454084L171.81835564835836,257.83863075027216L168.34435843008777,252.60485344366066L167.31287340595657,251.04239369548225L167.6109897041216,249.80453533952436L167.8091000530515,248.97496622588596L168.04865237130264,248.00549277284802M173.97855195719075,251.07406688570256L171.17834484961026,249.81373010433026L167.8091000530515,248.97496622588596M236.14093524562543,273.1240199889601L233.79582025573563,284.69780258300545L221.0552525674288,282.064219521321L216.2731540407937,304.345773390477L213.02461238573704,319.8683717034904L198.470423021611,297.949413628166L202.76799832757115,278.99521988485253L197.3188561607443,268.61028693005244L192.14220974751453,258.77602601318847L192.49157910985082,257.2850183851251L197.443194458863,257.02605175609756M197.3188561607443,268.61028693005244L185.46305099465303,277.0534970415358L184.38417389083054,276.7455713376096L176.40922377696097,264.7293191659717M198.470423021611,297.949413628166L190.9824514832169,286.66903154150214L184.38417389083054,276.7455713376096M249.60901544194428,275.78290206433644L249.2373028485996,277.7165962263409L247.72686805553434,285.5740618966804L245.75496360063693,295.63714653618604L243.62918336120197,306.834545538061L243.07456037997355,309.7477879689043L232.73325854408472,307.70622789763024L232.76881524548776,307.52845670363524L218.58228128559853,304.6221685448053L216.2731540407937,304.345773390477M243.07456037997355,309.7477879689043L240.85671139851263,321.7960812693111L238.64276359979635,324.63591294976584L237.42957209618066,324.5998385040739L235.88541486054766,321.80554632593476L232.06919458182654,321.0614332751617L230.024599883622,321.74113838493395L229.91880116898807,326.22431468646005L229.0751679413437,332.5575483640333L229.59647175053755,336.24149004787625L229.38392156414835,339.353911015755L228.00566563363589,340.2410311623312L227.83322951095653,342.14191615883146L215.84920341105197,324.121164093183L213.02461238573704,319.8683717034904" style="fill: inherit; stroke: inherit; stroke-width: inherit;" vector-effect="non-scaling-stroke"></path></svg>