<svg xmlns="http://www.w3.org/2000/svg" version="1.2" id="root" viewBox="730.4744853321192 145.94238978094768 111.56512338277321 85.33856584142711"><g id="counties"><path id="county-36019" class="county feature" d="M806.32 154.127l.376.235-3.84 2.998-3.032.906-2.185-4.833-1.766-5.118 8.713-2.373.32 3.264.692.456.144 3.597z" vector-effect="non-scaling-stroke" fill="inherit" stroke="inherit" stroke-width="inherit"><title>Clinton County</title></path><path id="county-36089" class="county feature" d="M786.903 150.412l1.255.52 4.775 13.923.178 1.331-4.037 1.482-2.64.972-1.59-.538-4.088-1.413-6.131-2.226.77-2.31 4.908-7.454 3.474-3.365z" vector-effect="non-scaling-stroke" fill="inherit" stroke="inherit" stroke-width="inherit"><title>Saint Lawrence County</title></path><path id="county-36033" class="county feature" d="M795.873 148.315l1.766 5.118 2.185 4.833-2.901 1.115 1.77 4.764-2.377.892-3.205 1.15-.178-1.332-4.775-13.923-1.255-.52z" vector-effect="non-scaling-stroke" fill="inherit" stroke="inherit" stroke-width="inherit"><title>Franklin County</title></path><path id="county-36031" class="county feature" d="M808.276 159.424l-.676 1.559.04 2.85 1.794 4.098-.751.276-7.826 3.007-.09-.97-2.244.24-2.095-1.716.864-1.062-.976-2.67 2.377-.89-1.77-4.765 2.9-1.115 3.033-.906 3.84-2.998 1.076 2.02z" vector-effect="non-scaling-stroke" fill="inherit" stroke="inherit" stroke-width="inherit"><title>Essex County</title></path><path id="county-36045" class="county feature" d="M770.642 172.83l-1.922-1.541.802-1.828 5.103-4.998 6.131 2.226-.841 2.385.917.351-.338 2.116-2.466 2.243-1.098.137 1.639 3.39-3.365.374-1.964.95-.144.018-.082.011-.99-2.522-.925-.11 2.006-1.522-1.358-1.285.542-1.892z" vector-effect="non-scaling-stroke" fill="inherit" stroke="inherit" stroke-width="inherit"><title>Jefferson County</title></path><path id="county-36049" class="county feature" d="M787.595 176.741l-4.783 4.813-3.136-.29-1.107-3.954-1.639-3.389 1.098-.137 2.466-2.243.338-2.116-.917-.351.841-2.385 4.088 1.413z" vector-effect="non-scaling-stroke" fill="inherit" stroke="inherit" stroke-width="inherit"><title>Lewis County</title></path><path id="county-36041" class="county feature" d="M800.857 171.214l-1.994.772 2.24 6.358.763 2.087-5.091 1.679-2.591-.524-2.268-.52.606-2.96-3.448-10.438 4.037-1.482 3.205-1.15.976 2.67-.864 1.062 2.095 1.716 2.244-.24z" vector-effect="non-scaling-stroke" fill="inherit" stroke="inherit" stroke-width="inherit"><title>Hamilton County</title></path><path id="county-36043" class="county feature" d="M789.074 167.668l3.448 10.437-.606 2.961 2.268.52.694 1.998-.321 2.513.719 3.384-1.68-.295-.073 1.425-2.916-.947-1.357.848-.798-3.14 1.27-3.647-1.37-.346.847-1.525-1.604-5.113-2.751-8.639 1.59.538z" vector-effect="non-scaling-stroke" fill="inherit" stroke="inherit" stroke-width="inherit"><title>Herkimer County</title></path><path id="county-36115" class="county feature" d="M809.9 168.89l-.356 2.2 1.698-.069 1.034 1.16.978 4.354 1.396 6.832-4.77 1.2.181-2.731-1.245-4.059-1.233-3.184 1.036-3.507.064-2.88.75-.275z" vector-effect="non-scaling-stroke" fill="inherit" stroke="inherit" stroke-width="inherit"><title>Washington County</title></path><path id="county-36113" class="county feature" d="M808.816 177.777l-2.94 1.712-1.258-2.484-3.515 1.339-2.24-6.358 1.994-.772 7.826-3.007-.064 2.879-1.036 3.507z" vector-effect="non-scaling-stroke" fill="inherit" stroke="inherit" stroke-width="inherit"><title>Warren County</title></path><path id="county-36075" class="county feature" d="M773.014 178.664l.082-.01-.082.01zm5.555-1.354l1.107 3.955-.824-.076-.326 3.114.701 3.103-1.555-.201-3.099-1.025-.597.838-2.914.735-1.764-.133-.782-2.989 2.324-2.5 2.29-.602.11-2.895 1.964-.949z" vector-effect="non-scaling-stroke" fill="inherit" stroke="inherit" stroke-width="inherit"><title>Oswego County</title></path><path id="county-36065" class="county feature" d="M789.25 190.512l-.442.262-2.48.705-.377-1.259-1.325.316-.533-1.917-2.977-1.798-1.889.585-.701-3.103.326-3.114.824.076 3.136.29 4.783-4.814 1.604 5.113-.848 1.525 1.371.346-1.27 3.646z" vector-effect="non-scaling-stroke" fill="inherit" stroke="inherit" stroke-width="inherit"><title>Oneida County</title></path><path id="county-36011" class="county feature" d="M771.062 187.753l.685 4.126 1.16 2.813 1.234-.33 1.397 1.208.697 2.689-5.36 1.12-1.293-1.738-.857-5.502-1.314-5.807 1.105-1.7.782 2.988z" vector-effect="non-scaling-stroke" fill="inherit" stroke="inherit" stroke-width="inherit"><title>Cayuga County</title></path><path id="county-36091" class="county feature" d="M808.816 177.777l1.245 4.059-.181 2.73.145 3.017-1.736.5-1.838-2.118-2.677-.23-.183-.482-1.725-4.822-.763-2.087 3.515-1.34 1.258 2.485z" vector-effect="non-scaling-stroke" fill="inherit" stroke="inherit" stroke-width="inherit"><title>Saratoga County</title></path><path id="county-36073" class="county feature" d="M750.451 189.246l.796 4.28-6.224 1.26-.834-4.47z" vector-effect="non-scaling-stroke" fill="inherit" stroke="inherit" stroke-width="inherit"><title>Orleans County</title></path><path id="county-36063" class="county feature" d="M744.189 190.316l.834 4.47.174.827-3.601.66-1.78 1.478-2.69-.699-.534-3.292 3.232-1.736z" vector-effect="non-scaling-stroke" fill="inherit" stroke="inherit" stroke-width="inherit"><title>Niagara County</title></path><path id="county-36055" class="county feature" d="M759.009 189.27l.926 4.44-1.52.304.371 1.677-1.305.24-2.06.37-.11-.795-2.382.474-.47-2.699-1.212.245-.796-4.28 3.214-.164 2.875 1.375z" vector-effect="non-scaling-stroke" fill="inherit" stroke="inherit" stroke-width="inherit"><title>Monroe County</title></path><path id="county-36117" class="county feature" d="M768.725 192.139l-3.287.88-2.364-.035-3.139.727-.926-4.442 2.973-.853 2.147.108 3.282-2.192z" vector-effect="non-scaling-stroke" fill="inherit" stroke="inherit" stroke-width="inherit"><title>Wayne County</title></path><path id="county-36035" class="county feature" d="M801.866 180.43l1.725 4.823-5.896 1.32-3.138-.476.321-2.513-.694-1.998 2.59.524z" vector-effect="non-scaling-stroke" fill="inherit" stroke="inherit" stroke-width="inherit"><title>Fulton County</title></path><path id="county-36067" class="county feature" d="M777.672 187.205l1.447 1.76 1.39 5.17-4.97 1.435-1.398-1.207-1.234.329-1.16-2.813-.685-4.126 2.914-.735.597-.838z" vector-effect="non-scaling-stroke" fill="inherit" stroke="inherit" stroke-width="inherit"><title>Onondaga County</title></path><path id="county-36053" class="county feature" d="M779.227 187.406l1.89-.585 2.976 1.798.533 1.917 1.325-.316.377 1.26 2.48-.706-.117 2.476-7.832 2.099-.35-1.213-1.39-5.17-1.447-1.761z" vector-effect="non-scaling-stroke" fill="inherit" stroke="inherit" stroke-width="inherit"><title>Madison County</title></path><path id="county-36037" class="county feature" d="M752.929 195.98l-.16 2.425-6.827 1.199-.745-3.99-.174-.828 6.224-1.26 1.212-.245z" vector-effect="non-scaling-stroke" fill="inherit" stroke="inherit" stroke-width="inherit"><title>Genesee County</title></path><path id="county-36029" class="county feature" d="M738.159 197.268l1.496.472-.369 1.349zm7.038-1.655l.745 3.99 1.146 6.116-5.327 2.854-2.706-1.41-1.118-.4.78-2.445 2.29-2.262-1.352-2.98.161-1.325 1.78-1.478z" vector-effect="non-scaling-stroke" fill="inherit" stroke="inherit" stroke-width="inherit"><title>Erie County</title></path><path id="county-36057" class="county feature" d="M803.591 185.253l.183.482.365 1.04-1.948 2.4-2.444 1.02-2.802-.446-1.67-.268-.718-3.384 3.138.476z" vector-effect="non-scaling-stroke" fill="inherit" stroke="inherit" stroke-width="inherit"><title>Montgomery County</title></path><path id="county-36069" class="county feature" d="M765.438 193.019l.815 4.606-4.54.968-.039 3.55-1.658.312-.295-1.723-1.506.263-.734-5.063 1.305-.241-.37-1.677 1.52-.303 3.138-.727z" vector-effect="non-scaling-stroke" fill="inherit" stroke="inherit" stroke-width="inherit"><title>Ontario County</title></path><path id="county-36099" class="county feature" d="M770.875 199.378l1.356 1.132-1.468.364-2.649.642-.413-2.078-1.448-1.813-.815-4.606 3.287-.88.857 5.502z" vector-effect="non-scaling-stroke" fill="inherit" stroke="inherit" stroke-width="inherit"><title>Seneca County</title></path><path id="county-36051" class="county feature" d="M757.481 195.932l.734 5.063 1.506-.263.295 1.723-2.288.391-.455 2.177-1.748-.552-2.667.453.582-2.924-.67-3.595.159-2.425 2.382-.474.11.796z" vector-effect="non-scaling-stroke" fill="inherit" stroke="inherit" stroke-width="inherit"><title>Livingston County</title></path><path id="county-36083" class="county feature" d="M814.65 183.367l.998 3.579-.113 4.591-5.54 2.216-.329-2.675.359-3.495-.145-3.017z" vector-effect="non-scaling-stroke" fill="inherit" stroke="inherit" stroke-width="inherit"><title>Rensselaer County</title></path><path id="county-36093" class="county feature" d="M808.289 188.082l-4.708 2.055-1.159.571-.23-1.532 1.947-2.4-.365-1.041 2.677.23z" vector-effect="non-scaling-stroke" fill="inherit" stroke="inherit" stroke-width="inherit"><title>Schenectady County</title></path><path id="county-36077" class="county feature" d="M795.276 189.48l1.67.269 1.083 3.662-.626 2.242-1.745.496-4.084 3.888-2.738 1.457.15-1.882-.73-1.785.683-1.23-.248-3.347.117-2.476.442-.262 1.357-.848 2.916.947.074-1.425z" vector-effect="non-scaling-stroke" fill="inherit" stroke="inherit" stroke-width="inherit"><title>Otsego County</title></path><path id="county-36121" class="county feature" d="M752.77 198.405l.67 3.595-.582 2.924-3.632.688-2.138.107-1.146-6.115z" vector-effect="non-scaling-stroke" fill="inherit" stroke="inherit" stroke-width="inherit"><title>Wyoming County</title></path><path id="county-36095" class="county feature" d="M802.191 189.176l.231 1.532 1.159-.571-.051 3.47.435 2.648-2.3 1.56-2.635-.733-1.627-1.43.626-2.24-1.084-3.663 2.802.447z" vector-effect="non-scaling-stroke" fill="inherit" stroke="inherit" stroke-width="inherit"><title>Schoharie County</title></path><path id="county-36001" class="county feature" d="M810.025 187.583l-.359 3.495.33 2.675-6.03 2.502-.436-2.649.05-3.47 4.709-2.054z" vector-effect="non-scaling-stroke" fill="inherit" stroke="inherit" stroke-width="inherit"><title>Albany County</title></path><path id="county-36023" class="county feature" d="M778.875 201.798l-1.64.398-1-3.937-.697-2.689 4.97-1.434.35 1.213 1.558 5.59z" vector-effect="non-scaling-stroke" fill="inherit" stroke="inherit" stroke-width="inherit"><title>Cortland County</title></path><path id="county-36123" class="county feature" d="M768.114 201.516l.376 1.428-2.994.21-.837-1.617-2.985.607.038-3.55 4.541-.97 1.448 1.814z" vector-effect="non-scaling-stroke" fill="inherit" stroke="inherit" stroke-width="inherit"><title>Yates County</title></path><path id="county-36017" class="county feature" d="M788.69 193.25l.25 3.347-.684 1.23.73 1.785-.15 1.882.438 2.198-2.936.63-.232-.97-2.798.394-.892-2.808-1.557-5.59z" vector-effect="non-scaling-stroke" fill="inherit" stroke="inherit" stroke-width="inherit"><title>Chenango County</title></path><path id="county-36109" class="county feature" d="M776.235 198.259l1 3.937.474 2.032-2.301.066.199 1.022-1.712-.005-1.095.207-.975.172-1.062-4.816 1.468-.364-1.356-1.132z" vector-effect="non-scaling-stroke" fill="inherit" stroke="inherit" stroke-width="inherit"><title>Tompkins County</title></path><path id="county-36101" class="county feature" d="M760.016 202.455l1.658-.311 2.985-.607.837 1.617.886 3.875 1.788-.48 1.032 5.138-8.706 1.738-1.884.416-1.34-8.818.456-2.177z" vector-effect="non-scaling-stroke" fill="inherit" stroke="inherit" stroke-width="inherit"><title>Steuben County</title></path><path id="county-36013" class="county feature" d="M739.055 207.163l1.789 9.956-7.439 1.365-2.066.33-.865-5.011 2.617-2.255 2.614-3.096 2.232-1.688z" vector-effect="non-scaling-stroke" fill="inherit" stroke="inherit" stroke-width="inherit"><title>Chautauqua County</title></path><path id="county-36097" class="county feature" d="M770.763 200.874l1.062 4.816.975-.172-4.63 1.032-1.788.479-.886-3.875 2.994-.21-.376-1.428z" vector-effect="non-scaling-stroke" fill="inherit" stroke="inherit" stroke-width="inherit"><title>Schuyler County</title></path><path id="county-36009" class="county feature" d="M747.088 205.72l2.138-.108 1.832 9.625-8.278 1.582-1.936.3-1.789-9.956 2.706 1.41z" vector-effect="non-scaling-stroke" fill="inherit" stroke="inherit" stroke-width="inherit"><title>Cattaraugus County</title></path><path id="county-36003" class="county feature" d="M752.858 204.924l2.667-.453 1.748.552 1.339 8.818-6.188 1.138-1.366.258-1.832-9.625z" vector-effect="non-scaling-stroke" fill="inherit" stroke="inherit" stroke-width="inherit"><title>Allegany County</title></path><path id="county-36025" class="county feature" d="M797.403 195.653l1.627 1.43 2.636.732-.605 3.102 1.28.326-3.77 3.812-4.166 4.104-1.632.172-1.961-2.22-.965-.587-.573-2.832-.438-2.198 2.738-1.457 4.084-3.888z" vector-effect="non-scaling-stroke" fill="inherit" stroke="inherit" stroke-width="inherit"><title>Delaware County</title></path><path id="county-36021" class="county feature" d="M815.646 200.415l-.092 1.408-2.595.084-3.236-.641.044-.948 1.024-3.203-.795-3.362 5.539-2.216-.202 8.233z" vector-effect="non-scaling-stroke" fill="inherit" stroke="inherit" stroke-width="inherit"><title>Columbia County</title></path><path id="county-36039" class="county feature" d="M809.767 200.318l-1.948-.371-.125 1.453-3.188.402-2.165-.559-1.28-.326.605-3.102 2.3-1.56 6.03-2.502.795 3.362z" vector-effect="non-scaling-stroke" fill="inherit" stroke="inherit" stroke-width="inherit"><title>Greene County</title></path><path id="county-36007" class="county feature" d="M789.274 203.692l.573 2.832.965.587-1.609.377-8.398 1.79-.865-3.388.297-.925-1.362-3.167 3.541-.86.892 2.808 2.798-.395.232.972z" vector-effect="non-scaling-stroke" fill="inherit" stroke="inherit" stroke-width="inherit"><title>Broome County</title></path><path id="county-36107" class="county feature" d="M778.875 201.798l1.362 3.167-.297.925.865 3.388-.556.118-5.543 1.162-.811-5.247 1.712.005-.199-1.022 2.3-.066-.473-2.032z" vector-effect="non-scaling-stroke" fill="inherit" stroke="inherit" stroke-width="inherit"><title>Tioga County</title></path><path id="county-36015" class="county feature" d="M772.8 205.518l1.095-.207.811 5.247-4.975 1.022-.529.107-1.032-5.137z" vector-effect="non-scaling-stroke" fill="inherit" stroke="inherit" stroke-width="inherit"><title>Chemung County</title></path><path id="county-36111" class="county feature" d="M809.767 200.318l-.044.948 1.797 9.025-2.303.684-2.075-.485-1.217 1.09-.602-.901-2.85-1.282 1.085-2.765-4.987-1.577 3.77-3.812 2.165.559 3.188-.402.125-1.453z" vector-effect="non-scaling-stroke" fill="inherit" stroke="inherit" stroke-width="inherit"><title>Ulster County</title></path><path id="county-36027" class="county feature" d="M815.646 200.415l.126-.03 1.274 7.1.456 2.593-5.28 2.013-.433 1.055-.27-2.855-1.796-9.025 3.236.64 2.595-.083z" vector-effect="non-scaling-stroke" fill="inherit" stroke="inherit" stroke-width="inherit"><title>Dutchess County</title></path><path id="county-36105" class="county feature" d="M805.925 211.58l-1.094 1.921-3.699 1.056.259 1.27-3.31-.304-1.694-1.983-.39-2.81-1.592-1.571 4.166-4.104 4.987 1.577-1.084 2.765 2.85 1.282z" vector-effect="non-scaling-stroke" fill="inherit" stroke="inherit" stroke-width="inherit"><title>Sullivan County</title></path><path id="county-36071" class="county feature" d="M811.52 210.291l.27 2.855.445 2.171-2.563 4.032-2.06-.617-5.198-1.779-1.023-1.125-.259-1.27 3.699-1.057 1.094-1.922 1.217-1.089 2.075.485z" vector-effect="non-scaling-stroke" fill="inherit" stroke="inherit" stroke-width="inherit"><title>Orange County</title></path><path id="county-36079" class="county feature" d="M812.32 215.284l-.084.038-.001-.005-.446-2.17.432-1.056 5.28-2.013.51 2.99z" vector-effect="non-scaling-stroke" fill="inherit" stroke="inherit" stroke-width="inherit"><title>Putnam County</title></path><path id="county-36119" class="county feature" d="M818.183 220.599l-1.436 2.118-1.726-.202-.097-3.087-.62-2.006-1.985-2.138 5.693-2.216 1.518 2.61-2.832 2.849 1.427 1.763z" vector-effect="non-scaling-stroke" fill="inherit" stroke="inherit" stroke-width="inherit"><title>Westchester County</title></path><path id="county-36087" class="county feature" d="M814.758 220.965l-4.798-1.504-.288-.112 2.563-4.032v.005l1.844 3.017z" vector-effect="non-scaling-stroke" fill="inherit" stroke="inherit" stroke-width="inherit"><title>Rockland County</title></path><path id="county-36103" class="county feature" d="M822.994 226.498l-.06-.226.06.226zm-.212-.85l-1.437-3.566-.737-1.063 3.826-.612.577-1.317 5.235-1.246 1.758-.75 3.649-4.036-1.437 3.327-1.463 1.817 1.514.007 1.367-2.357 2.36-1.54 1.254.746 2.235-2.416.557.51-6.645 5.497-1.053-.227-1.578 2.073-1.213-.057-1.764 1.83-1.925.375-1.488 1.35-1.25-.062z" vector-effect="non-scaling-stroke" fill="inherit" stroke="inherit" stroke-width="inherit"><title>Suffolk County</title></path><path id="county-36005" class="county feature" d="M816.747 222.717l.237 1.253-1.51.723-.486-1.47.033-.708z" vector-effect="non-scaling-stroke" fill="inherit" stroke="inherit" stroke-width="inherit"><title>Bronx County</title></path><path id="county-36059" class="county feature" d="M822.934 226.272l.06.226-.06-.226zm-1.589-4.19l1.437 3.565-4.015 2.18-.498-.37.234-.391.085-2.227-.743-.38.048-1.746 1.802-1.322z" vector-effect="non-scaling-stroke" fill="inherit" stroke="inherit" stroke-width="inherit"><title>Nassau County</title></path><path id="county-36061" class="county feature" d="M815.475 224.693l-.908 2.092.42-3.561z" vector-effect="non-scaling-stroke" fill="inherit" stroke="inherit" stroke-width="inherit"><title>New York County</title></path><path id="county-36081" class="county feature" d="M818.767 227.827l-.498-.37.498.37zm-1.392-.03l-.049-.251.05.25zm.47-3.338l.743.38-.085 2.227-1.603.126-1.788-1.254.448-1.146z" vector-effect="non-scaling-stroke" fill="inherit" stroke="inherit" stroke-width="inherit"><title>Queens County</title></path><path id="county-36047" class="county feature" d="M817.375 227.796l-.049-.25.05.25zm-.475-.604l.03 1.28-2.331.034.513-2.568z" vector-effect="non-scaling-stroke" fill="inherit" stroke="inherit" stroke-width="inherit"><title>Kings County</title></path><path id="county-36085" class="county feature" d="M813.878 227.932l.047 1.852-1.73 1.497.253-2.892z" vector-effect="non-scaling-stroke" fill="inherit" stroke="inherit" stroke-width="inherit"><title>Richmond County</title></path></g><path id="counties-mesh" class="counties mesh" d="M804.586 145.942l.32 3.264.692.456.144 3.597.578.868.376.235-3.84 2.998-3.032.906-2.185-4.833-1.766-5.118 8.713-2.373m-4.762 12.324l-2.901 1.115 1.77 4.764-2.377.892-3.205 1.15m-6.208-15.775l1.255.52 4.775 13.923.178 1.331-4.037 1.482-2.64.972-1.59-.538-4.088-1.413-6.131-2.226.77-2.31 4.908-7.454 3.474-3.365 3.126-.922 8.97-2.097m10.823 6.047l1.076 2.02.504 3.042-.676 1.559.04 2.85 1.794 4.098-.751.276-7.826 3.007-.09-.97-2.244.24-2.095-1.716.864-1.062-.976-2.67m-15.56 1.653l-.841 2.385.917.351-.338 2.116-2.466 2.243-1.098.137 1.639 3.39-3.365.374-1.964.95-.144.018-.082.011-.99-2.522-.925-.11 2.006-1.522-1.358-1.285.542-1.892-1.647 1.498-1.922-1.542.802-1.828 5.103-4.998m10.219 3.64l2.75 8.638-4.782 4.813-3.136-.29-1.107-3.954m22.288-6.096l-1.994.772 2.24 6.358.763 2.087-5.091 1.679-2.591-.524-2.268-.52.606-2.96-3.448-10.438m5.11 13.918l.694 1.998-.321 2.513.719 3.384-1.68-.295-.073 1.425-2.916-.947-1.357.848-.798-3.14 1.27-3.647-1.37-.346.847-1.525-1.604-5.113m21.839-8.81l.466.96-.356 2.198 1.698-.068 1.034 1.16.978 4.354 1.396 6.832-4.77 1.2.181-2.731-1.245-4.059-1.233-3.184 1.036-3.507.064-2.88m.133 9.571l-2.94 1.712-1.258-2.484-3.515 1.339m-28.007.31l-.082.01m6.662 2.6l-.824-.075-.326 3.114.701 3.103-1.555-.201-3.099-1.025-.597.838-2.914.735-1.764-.133-.782-2.989 2.324-2.5 2.29-.602.11-2.895m16.01 11.878l-.442.262-2.48.705-.377-1.259-1.325.316-.533-1.917-2.977-1.798-1.889.585m-8.165.347l.685 4.126 1.16 2.813 1.234-.33 1.397 1.208.697 2.689-5.36 1.12-1.293-1.738-.857-5.502-1.314-5.807 1.105-1.7m41.364-.066l.145 3.017-1.736.5-1.838-2.118-2.677-.23-.183-.482-1.725-4.822m-56.843 14.355l.174.827-3.601.66-1.78 1.478-2.69-.699-.534-3.292 3.232-1.736 4.365-1.708m6.262-1.07l.796 4.28-6.224 1.26-.834-4.47 6.262-1.07 3.214-.164 2.875 1.375 2.469-1.188.926 4.442-1.52.303.371 1.677-1.305.24-2.06.37-.11-.795-2.382.474-.47-2.699-1.212.245m17.478-1.387l-3.287.88-2.364-.035-3.139.727m-.926-4.442l2.973-.853 2.147.108 3.282-2.192m36.18-1.079l-5.896 1.32-3.138-.476m-16.885 1.108l1.447 1.76 1.39 5.17-4.97 1.435m13.269-4.796l-.117 2.476-7.832 2.099-.35-1.213m-27.58 1.844l-.16 2.425-6.827 1.199-.745-3.99m-7.038 1.654l1.496.472-.369 1.349-1.127-1.82m7.783 2.335l1.146 6.115-5.327 2.854-2.706-1.41-1.118-.4.78-2.445 2.29-2.262-1.352-2.98.161-1.325m63.958-12.016l.365 1.04-1.948 2.4-2.444 1.02-2.802-.446-1.67-.268m-29.837 3.538l.815 4.606-4.54.968-.039 3.55-1.658.312-.295-1.723-1.506.263-.734-5.063m13.394 3.446l1.356 1.132-1.468.364-2.649.642-.413-2.078-1.448-1.813m-6.237 4.83l-2.288.391-.455 2.177-1.748-.552-2.667.453.582-2.924-.67-3.595m61.88-15.038l.998 3.579-.113 4.591-5.54 2.216-.329-2.675.359-3.495m-1.736.5l-4.708 2.054-1.159.571-.23-1.532m-5.247.573l1.084 3.662-.626 2.242-1.745.496-4.084 3.888-2.738 1.457.15-1.882-.73-1.785.683-1.23-.248-3.347m-35.833 11.674l-3.632.688-2.138.107m56.493-15.582l-.051 3.47.435 2.648-2.3 1.56-2.635-.733-1.627-1.43m18.243 4.763l-.092 1.408-2.595.084-3.236-.641.044-.948 1.024-3.203-.795-3.362-6.03 2.502m-23.107-.906l1.557 5.59-3.541.859-1.64.398-1-3.937m-8.12 3.257l.375 1.428-2.994.21-.837-1.617-2.985.607m27.162-.65l.438 2.198-2.936.63-.232-.97-2.798.394-.892-2.808m-5.18 1.258l.473 2.032-2.301.066.199 1.022-1.712-.005-1.095.207-.975.172-1.062-4.816m-5.267 2.28l.886 3.875 1.788-.48 1.032 5.138-8.706 1.738-1.884.416-1.34-8.818m-18.217 2.14l1.789 9.956-7.439 1.365-2.066.33-.865-5.011 2.617-2.255 2.614-3.096 2.232-1.688m34.863-1.246l-4.63 1.032m-18.944-.938l1.832 9.625-8.278 1.582-1.936.3m17.768-3.278l-6.188 1.138-1.366.258m50.608-17.422l-.605 3.102 1.28.326-3.77 3.812-4.166 4.104-1.632.172-1.961-2.22-.965-.587-.573-2.832m20.493-3.374l-1.948-.371-.125 1.453-3.188.402-2.165-.559m-11.53 5.868l-1.608.377-8.398 1.79-.865-3.388.297-.925-1.362-3.167m1.93 7.48l-.556.118-5.543 1.162-.811-5.247m.811 5.247l-4.975 1.022-.529.107m40.52-10.421l1.798 9.025-2.303.684-2.075-.485-1.217 1.09-.602-.901-2.85-1.282 1.085-2.765-4.987-1.577m16.964-13.518l-.202 8.233.313.645.126-.03 1.274 7.1.456 2.593-5.28 2.013-.433 1.055-.27-2.855m-5.594 1.288l-1.094 1.922-3.699 1.056.259 1.27-3.31-.304-1.694-1.983-.39-2.81-1.592-1.571m17.384 3.987l.446 2.171-2.563 4.032-2.06-.617-5.198-1.779-1.023-1.125m16.62-2.76l-5.692 2.216-.083.038-.001-.005m5.267-5.24l.51 2.991 1.518 2.61-2.832 2.849 1.427 1.763.058.309-1.436 2.118-1.726-.202-.097-3.087-.62-2.006-1.985-2.138m-.083.038l1.843 3.017.679 2.626-4.798-1.504-.288-.112m7.075 3.368l.237 1.253-1.51.723-.486-1.47.033-.708m7.973 3.983l-.06-.226.06.226-.06-.226m-.152-.625l-1.437-3.565-.737-1.063 3.826-.612.577-1.317 5.235-1.246 1.758-.75 3.649-4.036-1.437 3.327-1.463 1.817 1.514.007 1.367-2.357 2.36-1.54 1.254.746 2.235-2.416.557.51-6.645 5.497-1.053-.227-1.578 2.073-1.213-.057-1.764 1.83-1.925.375-1.488 1.35-1.25-.062-2.342 1.716-4.015 2.18-.498-.37.234-.391.085-2.227-.743-.38.048-1.746 1.802-1.322 1.65.691m-5.87 2.61l-.908 2.093.42-3.561m3.78 4.603l-.498-.37m.234-.391l-1.603.126-1.788-1.254.448-1.146 2.285-.333m-.47 3.337l-.049-.25.05.25-.05-.25m-.426-.354l.03 1.28-2.331.034.513-2.568m-1.234 1.994l.047 1.852-1.73 1.497.253-2.892 1.43-.457" vector-effect="non-scaling-stroke" fill="inherit" stroke="inherit" stroke-width="inherit"/></svg>