<?xml version="1.0" standalone="yes"?>
<svg xmlns="http://www.w3.org/2000/svg" version="1.2" id="root" viewBox="730.4744853321192 145.94238978094768 111.56512338277321 85.33856584142711"><style>
@import url("../../css/svg.css");</style><rect id="bbox" class="bbox" x="730.4744853321192" y="145.94238978094768" width="111.56512338277321" height="85.33856584142711"></rect><g id="counties"><path id="county-36019" class="county feature" d="M806.3201839920303,154.12682757997936L806.6959190671041,154.3615095305537L802.8564687128674,157.35973671435465L799.8238045925735,158.26560849695977L797.6393038645956,153.432898413781L795.8728689637173,148.31473671443928L804.5862751969141,145.94238978094768L804.9057371550721,149.20617721958013L805.5975729837792,149.66172997357705L805.7421464635316,153.2593501781488Z" style="fill: inherit; stroke: inherit; stroke-width: inherit;" vector-effect="non-scaling-stroke"><title>Clinton County</title></path><path id="county-36089" class="county feature" d="M786.90284428362,150.41206783515292L788.1580829335144,150.9324740570123L792.9331151635513,164.85486622614678L793.1112210347794,166.18644106438762L789.0738853779405,167.6675522199007L786.4343385288737,168.6403432023784L784.843946408622,168.102310673582L780.7564324119489,166.68934122612825L774.6248590852258,164.46305362687986L775.3957756128177,162.15261040522103L780.303131485803,154.69889504095875L783.7767486684452,151.3336689164663Z" style="fill: inherit; stroke: inherit; stroke-width: inherit;" vector-effect="non-scaling-stroke"><title>Saint Lawrence County</title></path><path id="county-36033" class="county feature" d="M795.8728689637173,148.31473671443928L797.6393038645956,153.432898413781L799.8238045925735,158.26560849695977L796.9225118713634,159.38055511893867L798.6929683557512,164.14529007069166L796.3160097148823,165.03650110150568L793.1112210347794,166.18644106438762L792.9331151635513,164.85486622614678L788.1580829335144,150.9324740570123L786.90284428362,150.41206783515292Z" style="fill: inherit; stroke: inherit; stroke-width: inherit;" vector-effect="non-scaling-stroke"><title>Franklin County</title></path><path id="county-36031" class="county feature" d="M808.2761680717666,159.42447127144612L807.6002087715939,160.98253044835587L807.639414982001,163.8334797346614L809.4337244031381,167.9305631642054L808.6827072844957,168.20682270593568L800.857022451423,171.21439935649448L800.7673203329514,170.2431762247396L798.5227937634884,170.4844775997933L796.4284304944229,168.76833940467702L797.2922469925634,167.70648000602705L796.3160097148823,165.03650110150568L798.6929683557512,164.14529007069166L796.9225118713634,159.38055511893867L799.8238045925735,158.26560849695977L802.8564687128674,157.35973671435465L806.6959190671041,154.3615095305537L807.7716527971666,156.3820488757243Z" style="fill: inherit; stroke: inherit; stroke-width: inherit;" vector-effect="non-scaling-stroke"><title>Essex County</title></path><path id="county-36045" class="county feature" d="M770.6420543670747,172.83062425595404L768.7197360221844,171.28895533362424L769.5216369297025,169.46107683969262L774.6248590852258,164.46305362687986L780.7564324119489,166.68934122612825L779.9148888692448,169.07350719418434L780.831733379682,169.42509723403384L780.493570809102,171.54074417044558L778.0282289169372,173.7843133664901L776.9303480326427,173.9213041978221L778.5685459319,177.3103567891676L775.2040981990834,177.68545242720484L773.2398155832178,178.6341995995724L773.0958516708843,178.6533243841351L773.014320325076,178.6643844020697L772.0233114092772,176.14235024437494L771.099432459946,176.0323257393636L773.1049921087235,174.51040760084425L771.7466251367885,173.22533562722992L772.2886405949395,171.33343560354672Z" style="fill: inherit; stroke: inherit; stroke-width: inherit;" vector-effect="non-scaling-stroke"><title>Jefferson County</title></path><path id="county-36049" class="county feature" d="M787.5947926580668,176.7412103668762L782.8117595157224,181.55438836848225L779.6756339251779,181.26484827332683L778.5685459319,177.3103567891676L776.9303480326427,173.9213041978221L778.0282289169372,173.7843133664901L780.493570809102,171.54074417044558L780.831733379682,169.42509723403384L779.9148888692448,169.07350719418434L780.7564324119489,166.68934122612825L784.843946408622,168.102310673582Z" style="fill: inherit; stroke: inherit; stroke-width: inherit;" vector-effect="non-scaling-stroke"><title>Lewis County</title></path><path id="county-36041" class="county feature" d="M800.857022451423,171.21439935649448L798.8631175537585,171.9855228135741L801.1034089051219,178.34385522372884L801.8659507290773,180.43086352793227L796.7747643406933,182.10964233166055L794.1838486139934,181.58636587281364L791.9160757781203,181.06617663117856L792.5220798838162,178.1052653891976L789.0738853779405,167.6675522199007L793.1112210347794,166.18644106438762L796.3160097148823,165.03650110150568L797.2922469925634,167.70648000602705L796.4284304944229,168.76833940467702L798.5227937634884,170.4844775997933L800.7673203329514,170.2431762247396Z" style="fill: inherit; stroke: inherit; stroke-width: inherit;" vector-effect="non-scaling-stroke"><title>Hamilton County</title></path><path id="county-36043" class="county feature" d="M789.0738853779405,167.6675522199007L792.5220798838162,178.1052653891976L791.9160757781203,181.06617663117856L794.1838486139934,181.58636587281364L794.8783639014237,183.5843342256603L794.5567051585631,186.09650805587478L795.2757109845338,189.4805048789234L793.5967397651455,189.18645179514567L793.5227711540813,190.61092820657302L790.6068125131787,189.66397208340243L789.2501414924432,190.5121356318749L788.452188383139,187.37122884188443L789.7224805670589,183.7246698577095L788.3511713470277,183.3790300654838L789.1993059291083,181.85394255310496L787.5947926580668,176.7412103668762L784.843946408622,168.102310673582L786.4343385288737,168.6403432023784Z" style="fill: inherit; stroke: inherit; stroke-width: inherit;" vector-effect="non-scaling-stroke"><title>Herkimer County</title></path><path id="county-36115" class="county feature" d="M809.8997354643354,168.8902296850656L809.5440196555934,171.08905766162786L811.2422585482559,171.02100167054607L812.2760967586671,172.18053973937776L813.2539321516862,176.5349888751689L814.6495913494559,183.36654734318915L809.8798619338062,184.56639040003745L810.0614726333547,181.8359936506364L808.8161770991009,177.77739062063017L807.5834064315072,174.5932894255875L808.6191314654478,171.0856089204923L808.6827072844957,168.20682270593568L809.4337244031381,167.9305631642054Z" style="fill: inherit; stroke: inherit; stroke-width: inherit;" vector-effect="non-scaling-stroke"><title>Washington County</title></path><path id="county-36113" class="county feature" d="M808.8161770991009,177.77739062063017L805.8756492362136,179.4894003772988L804.617957005888,177.0047605384069L801.1034089051219,178.34385522372884L798.8631175537585,171.9855228135741L800.857022451423,171.21439935649448L808.6827072844957,168.20682270593568L808.6191314654478,171.0856089204923L807.5834064315072,174.5932894255875Z" style="fill: inherit; stroke: inherit; stroke-width: inherit;" vector-effect="non-scaling-stroke"><title>Warren County</title></path><path id="county-36075" class="county feature" d="M773.014320325076,178.6643844020697L773.0958516708843,178.6533243841351L773.014320325076,178.6643844020697ZM778.5685459319,177.3103567891676L779.6756339251779,181.26484827332683L778.8519651277348,181.18907550605968L778.5257708622532,184.30301909015907L779.2272500175036,187.40608118253806L777.6722704523891,187.20503696096307L774.5733872265657,186.18024775606636L773.9758982675608,187.0184271962778L771.06189717595,187.75265685784257L769.2977045309947,187.61950878558935L768.5159748656622,184.63105908107866L770.8396408061427,182.1312148152017L773.13031083878,181.52856280863466L773.2398155832178,178.6341995995724L775.2040981990834,177.68545242720484Z" style="fill: inherit; stroke: inherit; stroke-width: inherit;" vector-effect="non-scaling-stroke"><title>Oswego County</title></path><path id="county-36065" class="county feature" d="M789.2501414924432,190.5121356318749L788.807935144197,190.7736366623202L786.3277007726939,191.47945223935972L785.9510423382427,190.2203863415533L784.6263261823175,190.53550021273918L784.0926537624632,188.61901489141155L781.1161899992525,186.82126179864008L779.2272500175036,187.40608118253806L778.5257708622532,184.30301909015907L778.8519651277348,181.18907550605968L779.6756339251779,181.26484827332683L782.8117595157224,181.55438836848225L787.5947926580668,176.7412103668762L789.1993059291083,181.85394255310496L788.3511713470277,183.3790300654838L789.7224805670589,183.7246698577095L788.452188383139,187.37122884188443Z" style="fill: inherit; stroke: inherit; stroke-width: inherit;" vector-effect="non-scaling-stroke"><title>Oneida County</title></path><path id="county-36011" class="county feature" d="M771.06189717595,187.75265685784257L771.7472191869538,191.8789195936439L772.9067444762385,194.69176473793016L774.1406808107369,194.36255629584355L775.5383209203171,195.5701472779606L776.2346989933895,198.2587412855787L770.8751343580518,199.37811905347223L769.5823379664344,197.64112274441698L768.7250377119481,192.13873730997602L767.4113764404647,186.33172878857658L768.5159748656622,184.63105908107866L769.2977045309947,187.61950878558935Z" style="fill: inherit; stroke: inherit; stroke-width: inherit;" vector-effect="non-scaling-stroke"><title>Cayuga County</title></path><path id="county-36091" class="county feature" d="M808.8161770991009,177.77739062063017L810.0614726333547,181.8359936506364L809.8798619338062,184.56639040003745L810.0247531538303,187.58298190024607L808.2886011571029,188.08221315144738L806.4505115278585,185.96524587346528L803.7741498066102,185.73477389424227L803.5910700084505,185.25342504558967L801.8659507290773,180.43086352793227L801.1034089051219,178.34385522372884L804.617957005888,177.0047605384069L805.8756492362136,179.4894003772988Z" style="fill: inherit; stroke: inherit; stroke-width: inherit;" vector-effect="non-scaling-stroke"><title>Saratoga County</title></path><path id="county-36073" class="county feature" d="M750.4514140589907,189.24613489282297L751.2471595533821,193.52560175933957L745.0232142521759,194.78606163166035L744.1890381396329,190.3158840158061Z" style="fill: inherit; stroke: inherit; stroke-width: inherit;" vector-effect="non-scaling-stroke"><title>Orleans County</title></path><path id="county-36063" class="county feature" d="M744.1890381396329,190.3158840158061L745.0232142521759,194.78606163166035L745.1973978522335,195.61330444149678L741.5957737948669,196.27298592730267L739.8159513247399,197.75098597521094L737.125162577199,197.05222223239684L736.5915758016009,193.75983187088502L739.8236221804357,192.02353364575958Z" style="fill: inherit; stroke: inherit; stroke-width: inherit;" vector-effect="non-scaling-stroke"><title>Niagara County</title></path><path id="county-36055" class="county feature" d="M759.0086372800926,189.26918474596584L759.9350807537248,193.7108303756313L758.4154886033814,194.0136545929421L758.786122403848,195.690514519952L757.481086496728,195.9319236782526L755.42069777326,196.30168420616792L755.3105908980624,195.50608202965702L752.9290029809839,195.97959370008834L752.4587006758542,193.28143368237284L751.2471595533821,193.52560175933957L750.4514140589907,189.24613489282297L753.6649305302667,189.08171548579242L756.5402970623477,190.4574559851269Z" style="fill: inherit; stroke: inherit; stroke-width: inherit;" vector-effect="non-scaling-stroke"><title>Monroe County</title></path><path id="county-36117" class="county feature" d="M768.7250377119481,192.13873730997602L765.4376783877822,193.01857770874858L763.0740857192142,192.98373054799833L759.9350807537248,193.7108303756313L759.0086372800926,189.26918474596584L761.9820185613014,188.4161254896742L764.1287590256808,188.5238282535919L767.4113764404647,186.33172878857658Z" style="fill: inherit; stroke: inherit; stroke-width: inherit;" vector-effect="non-scaling-stroke"><title>Wayne County</title></path><path id="county-36035" class="county feature" d="M801.8659507290773,180.43086352793227L803.5910700084505,185.25342504558967L797.6953299749844,186.57343383766045L794.5567051585631,186.09650805587478L794.8783639014237,183.5843342256603L794.1838486139934,181.58636587281364L796.7747643406933,182.10964233166055Z" style="fill: inherit; stroke: inherit; stroke-width: inherit;" vector-effect="non-scaling-stroke"><title>Fulton County</title></path><path id="county-36067" class="county feature" d="M777.6722704523891,187.20503696096307L779.1189688130944,188.9652388008077L780.5081663798792,194.1357117876812L775.5383209203171,195.5701472779606L774.1406808107369,194.36255629584355L772.9067444762385,194.69176473793016L771.7472191869538,191.8789195936439L771.06189717595,187.75265685784257L773.9758982675608,187.0184271962778L774.5733872265657,186.18024775606636Z" style="fill: inherit; stroke: inherit; stroke-width: inherit;" vector-effect="non-scaling-stroke"><title>Onondaga County</title></path><path id="county-36053" class="county feature" d="M779.2272500175036,187.40608118253806L781.1161899992525,186.82126179864008L784.0926537624632,188.61901489141155L784.6263261823175,190.53550021273918L785.9510423382427,190.2203863415533L786.3277007726939,191.47945223935972L788.807935144197,190.7736366623202L788.6908003614233,193.25011567898935L780.8587160352108,195.34854954431955L780.5081663798792,194.1357117876812L779.1189688130944,188.9652388008077L777.6722704523891,187.20503696096307Z" style="fill: inherit; stroke: inherit; stroke-width: inherit;" vector-effect="non-scaling-stroke"><title>Madison County</title></path><path id="county-36037" class="county feature" d="M752.9290029809839,195.97959370008834L752.7695189434727,198.40507020739437L745.9421047358804,199.60370065944755L745.1973978522335,195.61330444149678L745.0232142521759,194.78606163166035L751.2471595533821,193.52560175933957L752.4587006758542,193.28143368237284Z" style="fill: inherit; stroke: inherit; stroke-width: inherit;" vector-effect="non-scaling-stroke"><title>Genesee County</title></path><path id="county-36029" class="county feature" d="M738.1587976204265,197.26848931656684L739.6554834166544,197.74020762252349L739.2860794280047,199.0889047261188ZM745.1973978522335,195.61330444149678L745.9421047358804,199.60370065944755L747.0883825453695,205.71910006222242L741.7612750935491,208.57255098533085L739.0554133144235,207.163457889465L737.9366193195715,206.7635095218351L738.7169595761479,204.31781085373018L741.007419009976,202.05634529639133L739.6554180571549,199.07514512933744L739.8159513247399,197.75098597521094L741.5957737948669,196.27298592730267Z" style="fill: inherit; stroke: inherit; stroke-width: inherit;" vector-effect="non-scaling-stroke"><title>Erie County</title></path><path id="county-36057" class="county feature" d="M803.5910700084505,185.25342504558967L803.7741498066102,185.73477389424227L804.1387637066421,186.7756214111555L802.1910748425031,189.17586742117646L799.7468401995051,190.1959184767628L796.9454432320709,189.74887307935523L795.2757109845338,189.4805048789234L794.5567051585631,186.09650805587478L797.6953299749844,186.57343383766045Z" style="fill: inherit; stroke: inherit; stroke-width: inherit;" vector-effect="non-scaling-stroke"><title>Montgomery County</title></path><path id="county-36069" class="county feature" d="M765.4376783877822,193.01857770874858L766.2529874116617,197.62478751907474L761.7124518733903,198.59324715493278L761.6744698595481,202.14383392064008L760.0159182876614,202.4546121952402L759.7210477234565,200.73191181312154L758.2152609587273,200.99514678524508L757.481086496728,195.9319236782526L758.786122403848,195.690514519952L758.4154886033814,194.0136545929421L759.9350807537248,193.7108303756313L763.0740857192142,192.98373054799833Z" style="fill: inherit; stroke: inherit; stroke-width: inherit;" vector-effect="non-scaling-stroke"><title>Ontario County</title></path><path id="county-36099" class="county feature" d="M770.8751343580518,199.37811905347223L772.2309038724352,200.51000160506067L770.7628217412505,200.87404605929214L768.1140987475262,201.51555616242342L767.7006869252625,199.43753005957058L766.2529874116617,197.62478751907474L765.4376783877822,193.01857770874858L768.7250377119481,192.13873730997602L769.5823379664344,197.64112274441698Z" style="fill: inherit; stroke: inherit; stroke-width: inherit;" vector-effect="non-scaling-stroke"><title>Seneca County</title></path><path id="county-36051" class="county feature" d="M757.481086496728,195.9319236782526L758.2152609587273,200.99514678524508L759.7210477234565,200.73191181312154L760.0159182876614,202.4546121952402L757.7284737596658,202.84608537805582L757.2728581894075,205.02288295104051L755.525034387611,204.47148188677363L752.8575544215626,204.9238974059857L753.4404491192212,202.00012722018562L752.7695189434727,198.40507020739437L752.9290029809839,195.97959370008834L755.3105908980624,195.50608202965702L755.42069777326,196.30168420616792Z" style="fill: inherit; stroke: inherit; stroke-width: inherit;" vector-effect="non-scaling-stroke"><title>Livingston County</title></path><path id="county-36083" class="county feature" d="M814.6495913494559,183.36654734318915L815.6480893663787,186.94600403447646L815.5346643235753,191.53712796635568L809.9957289421834,193.75287740572776L809.6663296022067,191.07820785219076L810.0247531538303,187.58298190024607L809.8798619338062,184.56639040003745Z" style="fill: inherit; stroke: inherit; stroke-width: inherit;" vector-effect="non-scaling-stroke"><title>Rensselaer County</title></path><path id="county-36093" class="county feature" d="M808.2886011571029,188.08221315144738L803.5805340117117,190.13670167003545L802.4221500484309,190.70837655689786L802.1910748425031,189.17586742117646L804.1387637066421,186.7756214111555L803.7741498066102,185.73477389424227L806.4505115278585,185.96524587346528Z" style="fill: inherit; stroke: inherit; stroke-width: inherit;" vector-effect="non-scaling-stroke"><title>Schenectady County</title></path><path id="county-36077" class="county feature" d="M795.2757109845338,189.4805048789234L796.9454432320709,189.74887307935523L798.0287032673596,193.41126769178504L797.4032235761517,195.65279644908253L795.6583116005829,196.14943891109533L791.5738988752707,200.03672380245916L788.8362431391419,201.49355488256595L788.9860586963434,199.61182570030007L788.2557133505701,197.8270820515313L788.9392605862704,196.59705376573697L788.6908003614233,193.25011567898935L788.807935144197,190.7736366623202L789.2501414924432,190.5121356318749L790.6068125131787,189.66397208340243L793.5227711540813,190.61092820657302L793.5967397651455,189.18645179514567Z" style="fill: inherit; stroke: inherit; stroke-width: inherit;" vector-effect="non-scaling-stroke"><title>Otsego County</title></path><path id="county-36121" class="county feature" d="M752.7695189434727,198.40507020739437L753.4404491192212,202.00012722018562L752.8575544215626,204.9238974059857L749.2257230106286,205.612155557012L747.0883825453695,205.71910006222242L745.9421047358804,199.60370065944755Z" style="fill: inherit; stroke: inherit; stroke-width: inherit;" vector-effect="non-scaling-stroke"><title>Wyoming County</title></path><path id="county-36095" class="county feature" d="M802.1910748425031,189.17586742117646L802.4221500484309,190.70837655689786L803.5805340117117,190.13670167003545L803.5296564067703,193.6061648185189L803.9650960517822,196.2548682114101L801.6657962987204,197.8150862359264L799.0296610678768,197.0823183238408L797.4032235761517,195.65279644908253L798.0287032673596,193.41126769178504L796.9454432320709,189.74887307935523L799.7468401995051,190.1959184767628Z" style="fill: inherit; stroke: inherit; stroke-width: inherit;" vector-effect="non-scaling-stroke"><title>Schoharie County</title></path><path id="county-36001" class="county feature" d="M810.0247531538303,187.58298190024607L809.6663296022067,191.07820785219076L809.9957289421834,193.75287740572776L803.9650960517822,196.2548682114101L803.5296564067703,193.6061648185189L803.5805340117117,190.13670167003545L808.2886011571029,188.08221315144738Z" style="fill: inherit; stroke: inherit; stroke-width: inherit;" vector-effect="non-scaling-stroke"><title>Albany County</title></path><path id="county-36023" class="county feature" d="M778.8746753574922,201.79804300330875L777.2351041663492,202.19638691744058L776.2346989933895,198.2587412855787L775.5383209203171,195.5701472779606L780.5081663798792,194.1357117876812L780.8587160352108,195.34854954431955L782.4164370602168,200.9381943464674Z" style="fill: inherit; stroke: inherit; stroke-width: inherit;" vector-effect="non-scaling-stroke"><title>Cortland County</title></path><path id="county-36123" class="county feature" d="M768.1140987475262,201.51555616242342L768.4904200073338,202.9441326277057L765.4956283348838,203.15438118008387L764.6594734865998,201.5370741651999L761.6744698595481,202.14383392064008L761.7124518733903,198.59324715493278L766.2529874116617,197.62478751907474L767.7006869252625,199.43753005957058Z" style="fill: inherit; stroke: inherit; stroke-width: inherit;" vector-effect="non-scaling-stroke"><title>Yates County</title></path><path id="county-36017" class="county feature" d="M788.6908003614233,193.25011567898935L788.9392605862704,196.59705376573697L788.2557133505701,197.8270820515313L788.9860586963434,199.61182570030007L788.8362431391419,201.49355488256595L789.2744718398255,203.69175489251916L786.33785163075,204.32289557255956L786.106217393944,203.35106428378117L783.3076509204753,203.7459971990113L782.4164370602168,200.9381943464674L780.8587160352108,195.34854954431955Z" style="fill: inherit; stroke: inherit; stroke-width: inherit;" vector-effect="non-scaling-stroke"><title>Chenango County</title></path><path id="county-36109" class="county feature" d="M776.2346989933895,198.2587412855787L777.2351041663492,202.19638691744058L777.7085951663768,204.2275914694029L775.4079906112681,204.29369993476746L775.6065530172252,205.31587297220813L773.8946144476702,205.31149673123969L772.8004162878474,205.5176232088678L771.8250436343576,205.69005930807407L770.7628217412505,200.87404605929214L772.2309038724352,200.51000160506067L770.8751343580518,199.37811905347223Z" style="fill: inherit; stroke: inherit; stroke-width: inherit;" vector-effect="non-scaling-stroke"><title>Tompkins County</title></path><path id="county-36101" class="county feature" d="M760.0159182876614,202.4546121952402L761.6744698595481,202.14383392064008L764.6594734865998,201.5370741651999L765.4956283348838,203.15438118008387L766.3816793476736,207.0290251134528L768.1695966516993,206.5499406065744L769.2024163313149,211.6874974402998L760.4960770582957,213.4251242736425L758.6119229952343,213.84124728241557L757.2728581894075,205.02288295104051L757.7284737596658,202.84608537805582Z" style="fill: inherit; stroke: inherit; stroke-width: inherit;" vector-effect="non-scaling-stroke"><title>Steuben County</title></path><path id="county-36013" class="county feature" d="M739.0554133144235,207.163457889465L740.8437950089933,217.11923940816087L733.4053012486585,218.4841959160142L731.3391806226347,218.81468398579568L730.4744853321192,213.80290259594676L733.0910592461073,211.54755415842794L735.7052264536908,208.45243797910064L737.9366193195715,206.7635095218351Z" style="fill: inherit; stroke: inherit; stroke-width: inherit;" vector-effect="non-scaling-stroke"><title>Chautauqua County</title></path><path id="county-36097" class="county feature" d="M770.7628217412505,200.87404605929214L771.8250436343576,205.69005930807407L772.8004162878474,205.5176232088678L768.1695966516993,206.5499406065744L766.3816793476736,207.0290251134528L765.4956283348838,203.15438118008387L768.4904200073338,202.9441326277057L768.1140987475262,201.51555616242342Z" style="fill: inherit; stroke: inherit; stroke-width: inherit;" vector-effect="non-scaling-stroke"><title>Schuyler County</title></path><path id="county-36009" class="county feature" d="M747.0883825453695,205.71910006222242L749.2257230106286,205.612155557012L751.0584545202175,215.2373902024931L742.7799735423564,216.8192815927532L740.8437950089933,217.11923940816087L739.0554133144235,207.163457889465L741.7612750935491,208.57255098533085Z" style="fill: inherit; stroke: inherit; stroke-width: inherit;" vector-effect="non-scaling-stroke"><title>Cattaraugus County</title></path><path id="county-36003" class="county feature" d="M752.8575544215626,204.9238974059857L755.525034387611,204.47148188677363L757.2728581894075,205.02288295104051L758.6119229952343,213.84124728241557L752.4241308533109,214.97943774622593L751.0584545202175,215.2373902024931L749.2257230106286,205.612155557012Z" style="fill: inherit; stroke: inherit; stroke-width: inherit;" vector-effect="non-scaling-stroke"><title>Allegany County</title></path><path id="county-36025" class="county feature" d="M797.4032235761517,195.65279644908253L799.0296610678768,197.0823183238408L801.6657962987204,197.8150862359264L801.0607009410699,200.9172334136232L802.3405153364911,201.24343333022466L798.571446787997,205.05526344167117L794.4052757652618,209.15883232320994L792.7732351261042,209.3313492386569L790.8116575178387,207.1109714509521L789.8469149172978,206.523840782133L789.2744718398255,203.69175489251916L788.8362431391419,201.49355488256595L791.5738988752707,200.03672380245916L795.6583116005829,196.14943891109533Z" style="fill: inherit; stroke: inherit; stroke-width: inherit;" vector-effect="non-scaling-stroke"><title>Delaware County</title></path><path id="county-36021" class="county feature" d="M815.6464165458106,200.41478172699283L815.5537095745547,201.82345210092012L812.959012985163,201.90676883406354L809.7227078224921,201.26590240389726L809.7674197562897,200.3179875557911L810.7912812138161,197.11540640609053L809.9957289421834,193.75287740572776L815.5346643235753,191.53712796635568L815.3333446816546,199.77016275313485Z" style="fill: inherit; stroke: inherit; stroke-width: inherit;" vector-effect="non-scaling-stroke"><title>Columbia County</title></path><path id="county-36039" class="county feature" d="M809.7674197562897,200.3179875557911L807.8187292108385,199.9465114059825L807.6937152382136,201.39951497212337L804.506441192686,201.8016581939819L802.3405153364911,201.24343333022466L801.0607009410699,200.9172334136232L801.6657962987204,197.8150862359264L803.9650960517822,196.2548682114101L809.9957289421834,193.75287740572776L810.7912812138161,197.11540640609053Z" style="fill: inherit; stroke: inherit; stroke-width: inherit;" vector-effect="non-scaling-stroke"><title>Greene County</title></path><path id="county-36007" class="county feature" d="M789.2744718398255,203.69175489251916L789.8469149172978,206.523840782133L790.8116575178387,207.1109714509521L789.203022528666,207.487550375031L780.8053368423135,209.27751255564306L779.9395650015399,205.89036185043472L780.2369657650472,204.96498781351158L778.8746753574922,201.79804300330875L782.4164370602168,200.9381943464674L783.3076509204753,203.7459971990113L786.106217393944,203.35106428378117L786.33785163075,204.32289557255956Z" style="fill: inherit; stroke: inherit; stroke-width: inherit;" vector-effect="non-scaling-stroke"><title>Broome County</title></path><path id="county-36107" class="county feature" d="M778.8746753574922,201.79804300330875L780.2369657650472,204.96498781351158L779.9395650015399,205.89036185043472L780.8053368423135,209.27751255564306L780.2489368681179,209.39558169508246L774.7063515491363,210.55795536801065L773.8946144476702,205.31149673123969L775.6065530172252,205.31587297220813L775.4079906112681,204.29369993476746L777.7085951663768,204.2275914694029L777.2351041663492,202.19638691744058Z" style="fill: inherit; stroke: inherit; stroke-width: inherit;" vector-effect="non-scaling-stroke"><title>Tioga County</title></path><path id="county-36015" class="county feature" d="M772.8004162878474,205.5176232088678L773.8946144476702,205.31149673123969L774.7063515491363,210.55795536801065L769.7307323710916,211.58014130922527L769.2024163313149,211.6874974402998L768.1695966516993,206.5499406065744Z" style="fill: inherit; stroke: inherit; stroke-width: inherit;" vector-effect="non-scaling-stroke"><title>Chemung County</title></path><path id="county-36111" class="county feature" d="M809.7674197562897,200.3179875557911L809.7227078224921,201.26590240389726L811.519583455432,210.29115379247037L809.2168940588925,210.97513768256022L807.1422820477502,210.4901429504805L805.92465054888,211.57914307525107L805.323191845024,210.6787830466668L802.473933471317,209.39659747853716L803.5580815719388,206.6316877743949L798.571446787997,205.05526344167117L802.3405153364911,201.24343333022466L804.506441192686,201.8016581939819L807.6937152382136,201.39951497212337L807.8187292108385,199.9465114059825Z" style="fill: inherit; stroke: inherit; stroke-width: inherit;" vector-effect="non-scaling-stroke"><title>Ulster County</title></path><path id="county-36027" class="county feature" d="M815.6464165458106,200.41478172699283L815.7715708903064,200.38561543899334L817.0455411563978,207.48441660244578L817.5016606788197,210.07782496458765L812.2210991771227,212.0906254832928L811.7892723779764,213.14620395003794L811.519583455432,210.29115379247037L809.7227078224921,201.26590240389726L812.959012985163,201.90676883406354L815.5537095745547,201.82345210092012Z" style="fill: inherit; stroke: inherit; stroke-width: inherit;" vector-effect="non-scaling-stroke"><title>Dutchess County</title></path><path id="county-36105" class="county feature" d="M805.92465054888,211.57914307525107L804.8308014405367,213.50116496150167L801.1323992701759,214.55718000300476L801.3905607508092,215.8276230427706L798.0814269003029,215.5226645541336L796.3865255561205,213.53977795403273L795.9964359245496,210.72913925539376L794.4052757652618,209.15883232320994L798.571446787997,205.05526344167117L803.5580815719388,206.6316877743949L802.473933471317,209.39659747853716L805.323191845024,210.6787830466668Z" style="fill: inherit; stroke: inherit; stroke-width: inherit;" vector-effect="non-scaling-stroke"><title>Sullivan County</title></path><path id="county-36071" class="county feature" d="M811.519583455432,210.29115379247037L811.7892723779764,213.14620395003794L812.234698669668,215.31716381037825L809.6720680976216,219.34874558406125L807.6122270197293,218.73208277363517L802.4142693041185,216.95295062867206L801.3905607508092,215.8276230427706L801.1323992701759,214.55718000300476L804.8308014405367,213.50116496150167L805.92465054888,211.57914307525107L807.1422820477502,210.4901429504805L809.2168940588925,210.97513768256022Z" style="fill: inherit; stroke: inherit; stroke-width: inherit;" vector-effect="non-scaling-stroke"><title>Orange County</title></path><path id="county-36079" class="county feature" d="M812.3191749469188,215.2837316585909L812.2358592009286,215.32208444633886L812.234698669668,215.31716381037825L811.7892723779764,213.14620395003794L812.2210991771227,212.0906254832928L817.5016606788197,210.07782496458765L818.011677443702,213.06842593759075Z" style="fill: inherit; stroke: inherit; stroke-width: inherit;" vector-effect="non-scaling-stroke"><title>Putnam County</title></path><path id="county-36119" class="county feature" d="M818.1830804120361,220.5987361268958L816.7473593940509,222.71672179250254L815.0212716001013,222.51506411346168L814.9240514536137,219.4279803852188L814.3043658275594,217.4223711737037L812.3191749469188,215.2837316585909L818.011677443702,213.06842593759075L819.5298192704727,215.67718946806883L816.6977431887517,218.52666350469678L818.1246901686677,220.29029221045664Z" style="fill: inherit; stroke: inherit; stroke-width: inherit;" vector-effect="non-scaling-stroke"><title>Westchester County</title></path><path id="county-36087" class="county feature" d="M814.7575653381787,220.9652729381412L809.9604978558004,219.46113005869654L809.6720680976216,219.34874558406125L812.234698669668,215.31716381037825L812.2358592009286,215.32208444633886L814.079225685623,218.3393558826658Z" style="fill: inherit; stroke: inherit; stroke-width: inherit;" vector-effect="non-scaling-stroke"><title>Rockland County</title></path><path id="county-36103" class="county feature" d="M822.9935266617268,226.49764702875348L822.93362534571,226.271663890613L822.9935266617268,226.49764702875348ZM822.7824427536564,225.6472043693966L821.3452221440061,222.08217915983028L820.607704529395,221.01877147265338L824.4341688499208,220.40710633209574L825.0114141522413,219.09013200949119L830.246166222901,217.8440065214586L832.0040097426108,217.0946879238237L835.6526917800272,213.05778171947225L834.2161455948744,216.38540851836126L832.7530462710803,218.20194045900507L834.2674877906134,218.20863243054862L835.6338278334335,215.85202851484803L837.9949031516439,214.31262762656274L839.2476953715227,215.05847690156259L841.48286548128,212.642351098252L842.0396087148924,213.152071632353L835.3948250004689,218.64882173334286L834.3421838901329,218.4224359492938L832.7636248543658,220.4949151026243L831.5512773644516,220.43756308644174L829.7874194762999,222.26861164732964L827.8622549817676,222.64269725088832L826.3737808182768,223.9932590381361L825.1242377998706,223.9313435362285Z" style="fill: inherit; stroke: inherit; stroke-width: inherit;" vector-effect="non-scaling-stroke"><title>Suffolk County</title></path><path id="county-36005" class="county feature" d="M816.7473593940509,222.71672179250254L816.9835094085374,223.9697176401345L815.4746547754694,224.69270837806096L814.9875745323399,223.22366266034498L815.0212716001013,222.51506411346168Z" style="fill: inherit; stroke: inherit; stroke-width: inherit;" vector-effect="non-scaling-stroke"><title>Bronx County</title></path><path id="county-36059" class="county feature" d="M822.93362534571,226.271663890613L822.9935266617268,226.49764702875348L822.93362534571,226.271663890613ZM821.3452221440061,222.08217915983028L822.7824427536564,225.6472043693966L818.7674132882107,227.82665363973433L818.2694244040376,227.4565009294039L818.5029395463412,227.06588885141468L818.5877619784163,224.83935879556964L817.8449193390361,224.45921170877864L817.8934352034308,222.7128089299614L819.6949749761154,221.3905578298145Z" style="fill: inherit; stroke: inherit; stroke-width: inherit;" vector-effect="non-scaling-stroke"><title>Nassau County</title></path><path id="county-36061" class="county feature" d="M815.4746547754694,224.69270837806096L814.5667847862194,226.78548822604046L814.9875745323399,223.22366266034498Z" style="fill: inherit; stroke: inherit; stroke-width: inherit;" vector-effect="non-scaling-stroke"><title>New York County</title></path><path id="county-36081" class="county feature" d="M818.7674132882107,227.82665363973433L818.2694244040376,227.4565009294039L818.7674132882107,227.82665363973433ZM817.3754178413249,227.7960882572022L817.3263033093277,227.54567917040254L817.3754178413249,227.7960882572022ZM817.8449193390361,224.45921170877864L818.5877619784163,224.83935879556964L818.5029395463412,227.06588885141468L816.9003459525148,227.19235605507436L815.1120378060018,225.93755731669285L815.5602062553108,224.79201712944007Z" style="fill: inherit; stroke: inherit; stroke-width: inherit;" vector-effect="non-scaling-stroke"><title>Queens County</title></path><path id="county-36047" class="county feature" d="M817.3754178413249,227.7960882572022L817.3263033093277,227.54567917040254L817.3754178413249,227.7960882572022ZM816.9003459525148,227.19235605507436L816.9290653175447,228.4719024305715L814.5988001196424,228.5055289921297L815.1120378060018,225.93755731669285Z" style="fill: inherit; stroke: inherit; stroke-width: inherit;" vector-effect="non-scaling-stroke"><title>Kings County</title></path><path id="county-36085" class="county feature" d="M813.878482651943,227.93167272923392L813.9245815532518,229.7843806906062L812.1943908107958,231.2809556223748L812.4476349722877,228.3894503672543Z" style="fill: inherit; stroke: inherit; stroke-width: inherit;" vector-effect="non-scaling-stroke"><title>Richmond County</title></path></g><path id="counties-mesh" class="counties mesh" d="M804.5862751969141,145.94238978094768L804.9057371550721,149.20617721958013L805.5975729837792,149.66172997357705L805.7421464635316,153.2593501781488L806.3201839920303,154.12682757997936L806.6959190671041,154.3615095305537L802.8564687128674,157.35973671435465L799.8238045925735,158.26560849695977L797.6393038645956,153.432898413781L795.8728689637173,148.31473671443928L804.5862751969141,145.94238978094768M799.8238045925735,158.26560849695977L796.9225118713634,159.38055511893867L798.6929683557512,164.14529007069166L796.3160097148823,165.03650110150568L793.1112210347794,166.18644106438762M786.90284428362,150.41206783515292L788.1580829335144,150.9324740570123L792.9331151635513,164.85486622614678L793.1112210347794,166.18644106438762L789.0738853779405,167.6675522199007L786.4343385288737,168.6403432023784L784.843946408622,168.102310673582L780.7564324119489,166.68934122612825L774.6248590852258,164.46305362687986L775.3957756128177,162.15261040522103L780.303131485803,154.69889504095875L783.7767486684452,151.3336689164663L786.90284428362,150.41206783515292L795.8728689637173,148.31473671443928M806.6959190671041,154.3615095305537L807.7716527971666,156.3820488757243L808.2761680717666,159.42447127144612L807.6002087715939,160.98253044835587L807.639414982001,163.8334797346614L809.4337244031381,167.9305631642054L808.6827072844957,168.20682270593568L800.857022451423,171.21439935649448L800.7673203329514,170.2431762247396L798.5227937634884,170.4844775997933L796.4284304944229,168.76833940467702L797.2922469925634,167.70648000602705L796.3160097148823,165.03650110150568M780.7564324119489,166.68934122612825L779.9148888692448,169.07350719418434L780.831733379682,169.42509723403384L780.493570809102,171.54074417044558L778.0282289169372,173.7843133664901L776.9303480326427,173.9213041978221L778.5685459319,177.3103567891676L775.2040981990834,177.68545242720484L773.2398155832178,178.6341995995724L773.0958516708843,178.6533243841351L773.014320325076,178.6643844020697L772.0233114092772,176.14235024437494L771.099432459946,176.0323257393636L773.1049921087235,174.51040760084425L771.7466251367885,173.22533562722992L772.2886405949395,171.33343560354672L770.6420543670747,172.83062425595404L768.7197360221844,171.28895533362424L769.5216369297025,169.46107683969262L774.6248590852258,164.46305362687986M784.843946408622,168.102310673582L787.5947926580668,176.7412103668762L782.8117595157224,181.55438836848225L779.6756339251779,181.26484827332683L778.5685459319,177.3103567891676M800.857022451423,171.21439935649448L798.8631175537585,171.9855228135741L801.1034089051219,178.34385522372884L801.8659507290773,180.43086352793227L796.7747643406933,182.10964233166055L794.1838486139934,181.58636587281364L791.9160757781203,181.06617663117856L792.5220798838162,178.1052653891976L789.0738853779405,167.6675522199007M794.1838486139934,181.58636587281364L794.8783639014237,183.5843342256603L794.5567051585631,186.09650805587478L795.2757109845338,189.4805048789234L793.5967397651455,189.18645179514567L793.5227711540813,190.61092820657302L790.6068125131787,189.66397208340243L789.2501414924432,190.5121356318749L788.452188383139,187.37122884188443L789.7224805670589,183.7246698577095L788.3511713470277,183.3790300654838L789.1993059291083,181.85394255310496L787.5947926580668,176.7412103668762M809.4337244031381,167.9305631642054L809.8997354643354,168.8902296850656L809.5440196555934,171.08905766162786L811.2422585482559,171.02100167054607L812.2760967586671,172.18053973937776L813.2539321516862,176.5349888751689L814.6495913494559,183.36654734318915L809.8798619338062,184.56639040003745L810.0614726333547,181.8359936506364L808.8161770991009,177.77739062063017L807.5834064315072,174.5932894255875L808.6191314654478,171.0856089204923L808.6827072844957,168.20682270593568M808.8161770991009,177.77739062063017L805.8756492362136,179.4894003772988L804.617957005888,177.0047605384069L801.1034089051219,178.34385522372884M773.0958516708843,178.6533243841351L773.014320325076,178.6643844020697M779.6756339251779,181.26484827332683L778.8519651277348,181.18907550605968L778.5257708622532,184.30301909015907L779.2272500175036,187.40608118253806L777.6722704523891,187.20503696096307L774.5733872265657,186.18024775606636L773.9758982675608,187.0184271962778L771.06189717595,187.75265685784257L769.2977045309947,187.61950878558935L768.5159748656622,184.63105908107866L770.8396408061427,182.1312148152017L773.13031083878,181.52856280863466L773.2398155832178,178.6341995995724M789.2501414924432,190.5121356318749L788.807935144197,190.7736366623202L786.3277007726939,191.47945223935972L785.9510423382427,190.2203863415533L784.6263261823175,190.53550021273918L784.0926537624632,188.61901489141155L781.1161899992525,186.82126179864008L779.2272500175036,187.40608118253806M771.06189717595,187.75265685784257L771.7472191869538,191.8789195936439L772.9067444762385,194.69176473793016L774.1406808107369,194.36255629584355L775.5383209203171,195.5701472779606L776.2346989933895,198.2587412855787L770.8751343580518,199.37811905347223L769.5823379664344,197.64112274441698L768.7250377119481,192.13873730997602L767.4113764404647,186.33172878857658L768.5159748656622,184.63105908107866M809.8798619338062,184.56639040003745L810.0247531538303,187.58298190024607L808.2886011571029,188.08221315144738L806.4505115278585,185.96524587346528L803.7741498066102,185.73477389424227L803.5910700084505,185.25342504558967L801.8659507290773,180.43086352793227M745.0232142521759,194.78606163166035L745.1973978522335,195.61330444149678L741.5957737948669,196.27298592730267L739.8159513247399,197.75098597521094L737.125162577199,197.05222223239684L736.5915758016009,193.75983187088502L739.8236221804357,192.02353364575958L744.1890381396329,190.3158840158061M750.4514140589907,189.24613489282297L751.2471595533821,193.52560175933957L745.0232142521759,194.78606163166035L744.1890381396329,190.3158840158061L750.4514140589907,189.24613489282297L753.6649305302667,189.08171548579242L756.5402970623477,190.4574559851269L759.0086372800926,189.26918474596584L759.9350807537248,193.7108303756313L758.4154886033814,194.0136545929421L758.786122403848,195.690514519952L757.481086496728,195.9319236782526L755.42069777326,196.30168420616792L755.3105908980624,195.50608202965702L752.9290029809839,195.97959370008834L752.4587006758542,193.28143368237284L751.2471595533821,193.52560175933957M768.7250377119481,192.13873730997602L765.4376783877822,193.01857770874858L763.0740857192142,192.98373054799833L759.9350807537248,193.7108303756313M759.0086372800926,189.26918474596584L761.9820185613014,188.4161254896742L764.1287590256808,188.5238282535919L767.4113764404647,186.33172878857658M803.5910700084505,185.25342504558967L797.6953299749844,186.57343383766045L794.5567051585631,186.09650805587478M777.6722704523891,187.20503696096307L779.1189688130944,188.9652388008077L780.5081663798792,194.1357117876812L775.5383209203171,195.5701472779606M788.807935144197,190.7736366623202L788.6908003614233,193.25011567898935L780.8587160352108,195.34854954431955L780.5081663798792,194.1357117876812M752.9290029809839,195.97959370008834L752.7695189434727,198.40507020739437L745.9421047358804,199.60370065944755L745.1973978522335,195.61330444149678M738.1587976204265,197.26848931656684L739.6554834166544,197.74020762252349L739.2860794280047,199.0889047261188L738.1587976204265,197.26848931656684M745.9421047358804,199.60370065944755L747.0883825453695,205.71910006222242L741.7612750935491,208.57255098533085L739.0554133144235,207.163457889465L737.9366193195715,206.7635095218351L738.7169595761479,204.31781085373018L741.007419009976,202.05634529639133L739.6554180571549,199.07514512933744L739.8159513247399,197.75098597521094M803.7741498066102,185.73477389424227L804.1387637066421,186.7756214111555L802.1910748425031,189.17586742117646L799.7468401995051,190.1959184767628L796.9454432320709,189.74887307935523L795.2757109845338,189.4805048789234M765.4376783877822,193.01857770874858L766.2529874116617,197.62478751907474L761.7124518733903,198.59324715493278L761.6744698595481,202.14383392064008L760.0159182876614,202.4546121952402L759.7210477234565,200.73191181312154L758.2152609587273,200.99514678524508L757.481086496728,195.9319236782526M770.8751343580518,199.37811905347223L772.2309038724352,200.51000160506067L770.7628217412505,200.87404605929214L768.1140987475262,201.51555616242342L767.7006869252625,199.43753005957058L766.2529874116617,197.62478751907474M760.0159182876614,202.4546121952402L757.7284737596658,202.84608537805582L757.2728581894075,205.02288295104051L755.525034387611,204.47148188677363L752.8575544215626,204.9238974059857L753.4404491192212,202.00012722018562L752.7695189434727,198.40507020739437M814.6495913494559,183.36654734318915L815.6480893663787,186.94600403447646L815.5346643235753,191.53712796635568L809.9957289421834,193.75287740572776L809.6663296022067,191.07820785219076L810.0247531538303,187.58298190024607M808.2886011571029,188.08221315144738L803.5805340117117,190.13670167003545L802.4221500484309,190.70837655689786L802.1910748425031,189.17586742117646M796.9454432320709,189.74887307935523L798.0287032673596,193.41126769178504L797.4032235761517,195.65279644908253L795.6583116005829,196.14943891109533L791.5738988752707,200.03672380245916L788.8362431391419,201.49355488256595L788.9860586963434,199.61182570030007L788.2557133505701,197.8270820515313L788.9392605862704,196.59705376573697L788.6908003614233,193.25011567898935M752.8575544215626,204.9238974059857L749.2257230106286,205.612155557012L747.0883825453695,205.71910006222242M803.5805340117117,190.13670167003545L803.5296564067703,193.6061648185189L803.9650960517822,196.2548682114101L801.6657962987204,197.8150862359264L799.0296610678768,197.0823183238408L797.4032235761517,195.65279644908253M815.6464165458106,200.41478172699283L815.5537095745547,201.82345210092012L812.959012985163,201.90676883406354L809.7227078224921,201.26590240389726L809.7674197562897,200.3179875557911L810.7912812138161,197.11540640609053L809.9957289421834,193.75287740572776L803.9650960517822,196.2548682114101M780.8587160352108,195.34854954431955L782.4164370602168,200.9381943464674L778.8746753574922,201.79804300330875L777.2351041663492,202.19638691744058L776.2346989933895,198.2587412855787M768.1140987475262,201.51555616242342L768.4904200073338,202.9441326277057L765.4956283348838,203.15438118008387L764.6594734865998,201.5370741651999L761.6744698595481,202.14383392064008M788.8362431391419,201.49355488256595L789.2744718398255,203.69175489251916L786.33785163075,204.32289557255956L786.106217393944,203.35106428378117L783.3076509204753,203.7459971990113L782.4164370602168,200.9381943464674M777.2351041663492,202.19638691744058L777.7085951663768,204.2275914694029L775.4079906112681,204.29369993476746L775.6065530172252,205.31587297220813L773.8946144476702,205.31149673123969L772.8004162878474,205.5176232088678L771.8250436343576,205.69005930807407L770.7628217412505,200.87404605929214M765.4956283348838,203.15438118008387L766.3816793476736,207.0290251134528L768.1695966516993,206.5499406065744L769.2024163313149,211.6874974402998L760.4960770582957,213.4251242736425L758.6119229952343,213.84124728241557L757.2728581894075,205.02288295104051M739.0554133144235,207.163457889465L740.8437950089933,217.11923940816087L733.4053012486585,218.4841959160142L731.3391806226347,218.81468398579568L730.4744853321192,213.80290259594676L733.0910592461073,211.54755415842794L735.7052264536908,208.45243797910064L737.9366193195715,206.7635095218351M772.8004162878474,205.5176232088678L768.1695966516993,206.5499406065744M749.2257230106286,205.612155557012L751.0584545202175,215.2373902024931L742.7799735423564,216.8192815927532L740.8437950089933,217.11923940816087M758.6119229952343,213.84124728241557L752.4241308533109,214.97943774622593L751.0584545202175,215.2373902024931M801.6657962987204,197.8150862359264L801.0607009410699,200.9172334136232L802.3405153364911,201.24343333022466L798.571446787997,205.05526344167117L794.4052757652618,209.15883232320994L792.7732351261042,209.3313492386569L790.8116575178387,207.1109714509521L789.8469149172978,206.523840782133L789.2744718398255,203.69175489251916M809.7674197562897,200.3179875557911L807.8187292108385,199.9465114059825L807.6937152382136,201.39951497212337L804.506441192686,201.8016581939819L802.3405153364911,201.24343333022466M790.8116575178387,207.1109714509521L789.203022528666,207.487550375031L780.8053368423135,209.27751255564306L779.9395650015399,205.89036185043472L780.2369657650472,204.96498781351158L778.8746753574922,201.79804300330875M780.8053368423135,209.27751255564306L780.2489368681179,209.39558169508246L774.7063515491363,210.55795536801065L773.8946144476702,205.31149673123969M774.7063515491363,210.55795536801065L769.7307323710916,211.58014130922527L769.2024163313149,211.6874974402998M809.7227078224921,201.26590240389726L811.519583455432,210.29115379247037L809.2168940588925,210.97513768256022L807.1422820477502,210.4901429504805L805.92465054888,211.57914307525107L805.323191845024,210.6787830466668L802.473933471317,209.39659747853716L803.5580815719388,206.6316877743949L798.571446787997,205.05526344167117M815.5346643235753,191.53712796635568L815.3333446816546,199.77016275313485L815.6464165458106,200.41478172699283L815.7715708903064,200.38561543899334L817.0455411563978,207.48441660244578L817.5016606788197,210.07782496458765L812.2210991771227,212.0906254832928L811.7892723779764,213.14620395003794L811.519583455432,210.29115379247037M805.92465054888,211.57914307525107L804.8308014405367,213.50116496150167L801.1323992701759,214.55718000300476L801.3905607508092,215.8276230427706L798.0814269003029,215.5226645541336L796.3865255561205,213.53977795403273L795.9964359245496,210.72913925539376L794.4052757652618,209.15883232320994M811.7892723779764,213.14620395003794L812.234698669668,215.31716381037825L809.6720680976216,219.34874558406125L807.6122270197293,218.73208277363517L802.4142693041185,216.95295062867206L801.3905607508092,215.8276230427706M818.011677443702,213.06842593759075L812.3191749469188,215.2837316585909L812.2358592009286,215.32208444633886L812.234698669668,215.31716381037825M817.5016606788197,210.07782496458765L818.011677443702,213.06842593759075L819.5298192704727,215.67718946806883L816.6977431887517,218.52666350469678L818.1246901686677,220.29029221045664L818.1830804120361,220.5987361268958L816.7473593940509,222.71672179250254L815.0212716001013,222.51506411346168L814.9240514536137,219.4279803852188L814.3043658275594,217.4223711737037L812.3191749469188,215.2837316585909M812.2358592009286,215.32208444633886L814.079225685623,218.3393558826658L814.7575653381787,220.9652729381412L809.9604978558004,219.46113005869654L809.6720680976216,219.34874558406125M816.7473593940509,222.71672179250254L816.9835094085374,223.9697176401345L815.4746547754694,224.69270837806096L814.9875745323399,223.22366266034498L815.0212716001013,222.51506411346168M822.9935266617268,226.49764702875348L822.93362534571,226.271663890613L822.9935266617268,226.49764702875348L822.93362534571,226.271663890613M822.7824427536564,225.6472043693966L821.3452221440061,222.08217915983028L820.607704529395,221.01877147265338L824.4341688499208,220.40710633209574L825.0114141522413,219.09013200949119L830.246166222901,217.8440065214586L832.0040097426108,217.0946879238237L835.6526917800272,213.05778171947225L834.2161455948744,216.38540851836126L832.7530462710803,218.20194045900507L834.2674877906134,218.20863243054862L835.6338278334335,215.85202851484803L837.9949031516439,214.31262762656274L839.2476953715227,215.05847690156259L841.48286548128,212.642351098252L842.0396087148924,213.152071632353L835.3948250004689,218.64882173334286L834.3421838901329,218.4224359492938L832.7636248543658,220.4949151026243L831.5512773644516,220.43756308644174L829.7874194762999,222.26861164732964L827.8622549817676,222.64269725088832L826.3737808182768,223.9932590381361L825.1242377998706,223.9313435362285L822.7824427536564,225.6472043693966L818.7674132882107,227.82665363973433L818.2694244040376,227.4565009294039L818.5029395463412,227.06588885141468L818.5877619784163,224.83935879556964L817.8449193390361,224.45921170877864L817.8934352034308,222.7128089299614L819.6949749761154,221.3905578298145L821.3452221440061,222.08217915983028M815.4746547754694,224.69270837806096L814.5667847862194,226.78548822604046L814.9875745323399,223.22366266034498M818.7674132882107,227.82665363973433L818.2694244040376,227.4565009294039M818.5029395463412,227.06588885141468L816.9003459525148,227.19235605507436L815.1120378060018,225.93755731669285L815.5602062553108,224.79201712944007L817.8449193390361,224.45921170877864M817.3754178413249,227.7960882572022L817.3263033093277,227.54567917040254L817.3754178413249,227.7960882572022L817.3263033093277,227.54567917040254M816.9003459525148,227.19235605507436L816.9290653175447,228.4719024305715L814.5988001196424,228.5055289921297L815.1120378060018,225.93755731669285M813.878482651943,227.93167272923392L813.9245815532518,229.7843806906062L812.1943908107958,231.2809556223748L812.4476349722877,228.3894503672543L813.878482651943,227.93167272923392" style="fill: inherit; stroke: inherit; stroke-width: inherit;" vector-effect="non-scaling-stroke"></path></svg>