<?xml version="1.0" standalone="yes"?>
<svg xmlns="http://www.w3.org/2000/svg" version="1.2" baseProfile="tiny" id="root" viewBox="652.6812567754589 210.401985180001 83.06440417261062 91.74713481916721"><style>
@import url("../../css/svg.css");</style><rect id="bbox" class="bbox" x="652.6812567754589" y="210.401985180001" width="83.06440417261062" height="91.74713481916721"></rect><g id="counties"><path id="county-39007" class="county feature" d="M721.4990611662116,223.32354759434952L722.5666763796828,229.82015540120676L715.931011758272,230.85027344212222L715.2950781981706,226.88507313759317L714.9010348906468,224.31384384505895L721.108616984983,220.94763286036505Z" vector-effect="non-scaling-stroke"><title>Ashtabula County</title></path><path id="county-39085" class="county feature" d="M715.2950781981706,226.88507313759317L713.9485873725679,227.11394117953125L714.1772624309647,228.4653264881232L711.5317927966478,228.89194762586988L711.7228113311718,230.21355716649168L710.4202970722423,230.42011681019437L708.9060426322549,229.47977637906695L711.3247226738661,226.5981763706758L714.9010348906468,224.31384384505895Z" vector-effect="non-scaling-stroke"><title>Lake County</title></path><path id="county-39095" class="county feature" d="M685.9368639476868,232.96132813761847L682.512476948788,233.50358503013695L680.3969024409535,233.8172476851305L678.7490894719284,236.3408022854469L676.5765265123366,238.16052039257045L676.4065302890286,236.79511063208838L675.8847878557888,232.45147199223584L677.4867513232498,232.17782211571455L681.3108262078877,231.51391245415675L681.3402254964877,231.50899821531675L681.487087075774,231.48341520951158L681.5657041966797,231.47196826076083L681.6928734880224,231.44897378667633Z" vector-effect="non-scaling-stroke"><title>Lucas County</title></path><path id="county-39123" class="county feature" d="M685.9368639476868,232.96132813761847L688.8929695202133,234.52162249075684L690.5970639814276,233.0034754411422L692.2678561856897,234.381293078843L688.1000694532765,235.81343385300693L687.8537028180048,235.8512991386957L687.7797638471618,235.86244934956642L683.9806866886981,236.37210149766122L682.8223534860592,235.7170383355674L682.512476948788,233.50358503013695Z" vector-effect="non-scaling-stroke"><title>Ottawa County</title></path><path id="county-39051" class="county feature" d="M676.4065302890286,236.79511063208838L670.0885364724925,237.6281945386355L669.4892373707014,237.1631386515619L668.7925891557405,233.61102091484065L669.3280861578298,233.52994831032458L675.8847878557888,232.45147199223584Z" vector-effect="non-scaling-stroke"><title>Fulton County</title></path><path id="county-39055" class="county feature" d="M715.931011758272,230.85027344212222L716.3859977481208,233.7098338569001L711.0533837635646,234.5389639858056L710.4202970722423,230.42011681019437L711.7228113311718,230.21355716649168L711.5317927966478,228.89194762586988L714.1772624309647,228.4653264881232L713.9485873725679,227.11394117953125L715.2950781981706,226.88507313759317Z" vector-effect="non-scaling-stroke"><title>Geauga County</title></path><path id="county-39171" class="county feature" d="M670.0885364724925,237.6281945386355L670.2269520888854,238.71022809600913L663.8538382054752,239.50870239533936L663.6138068510651,237.56523904427797L663.2269044558229,234.4648891165259L668.7925891557405,233.61102091484065L669.4892373707014,237.1631386515619Z" vector-effect="non-scaling-stroke"><title>Williams County</title></path><path id="county-39035" class="county feature" d="M710.4202970722423,230.42011681019437L711.0533837635646,234.5389639858056L711.048450326177,234.53972830129328L708.233531414071,234.92362589892502L708.801602748481,236.22688322285444L707.2177494047746,236.4815370995783L704.5650441496578,236.92125174540126L704.3693952459156,235.5130401029836L703.0687560357117,235.69277271487272L702.6830788711505,232.82787661127986L705.8018926135737,232.69764512102336L708.9060426322549,229.47977637906695Z" vector-effect="non-scaling-stroke"><title>Cuyahoga County</title></path><path id="county-39043" class="county feature" d="M697.6838643203771,235.0447587591458L698.1492891834716,237.7041166177156L691.2509246551006,238.56125557202063L690.798673337433,235.96597043151985L690.0562926222306,236.05792012593838L692.7391927560886,235.04899898336805L695.676826460432,236.19240989959633Z" vector-effect="non-scaling-stroke"><title>Erie County</title></path><path id="county-39173" class="county feature" d="M682.512476948788,233.50358503013695L682.8223534860592,235.7170383355674L683.3599511454319,240.32107827675577L683.5616718692753,241.9499626972223L677.1966591185984,242.76227000999847L676.5765265123366,238.16052039257045L678.7490894719284,236.3408022854469L680.3969024409535,233.8172476851305Z" vector-effect="non-scaling-stroke"><title>Wood County</title></path><path id="county-39093" class="county feature" d="M702.6830788711505,232.82787661127986L703.0687560357117,235.69277271487272L704.3693952459156,235.5130401029836L704.5650441496578,236.92125174540126L703.2641957877959,237.10917826944558L703.4434372529767,238.51891039658517L702.0926980829822,238.72102988687436L700.9226304998776,240.08701436671083L701.0985960408077,241.4605771311417L698.8157773039378,241.75013282220755L698.1492891834716,237.7041166177156L697.6838643203771,235.0447587591458L702.0572457562071,232.71640282073258Z" vector-effect="non-scaling-stroke"><title>Lorain County</title></path><path id="county-39155" class="county feature" d="M722.5666763796828,229.82015540120676L722.5984790605798,230.0136797556629L723.6893621591498,236.62099570255225L717.0675402200666,237.67461037306816L716.3859977481208,233.7098338569001L715.931011758272,230.85027344212222Z" vector-effect="non-scaling-stroke"><title>Trumbull County</title></path><path id="county-39143" class="county feature" d="M687.8537028180048,235.8512991386957L688.1000694532765,235.81343385300693L687.8537028180048,235.8512991386957ZM687.7797638471618,235.86244934956642L690.0562926222306,236.05792012593838L690.798673337433,235.96597043151985L691.2509246551006,238.56125557202063L691.3557875759404,239.20515735414324L683.3599511454319,240.32107827675577L682.8223534860592,235.7170383355674L683.9806866886981,236.37210149766122Z" vector-effect="non-scaling-stroke"><title>Sandusky County</title></path><path id="county-39069" class="county feature" d="M676.4065302890286,236.79511063208838L676.5765265123366,238.16052039257045L677.1966591185984,242.76227000999847L672.3993811378207,243.4050944427912L671.7853321878813,238.51309173649963L670.2269520888854,238.71022809600913L670.0885364724925,237.6281945386355Z" vector-effect="non-scaling-stroke"><title>Henry County</title></path><path id="county-39039" class="county feature" d="M672.3993811378207,243.4050944427912L670.8304611541163,243.60557878997906L669.0153115916694,242.16039933545835L664.2426307516589,242.7513571282774L664.2011534220269,242.40089639400185L663.8538382054752,239.50870239533936L670.2269520888854,238.71022809600913L671.7853321878813,238.51309173649963Z" vector-effect="non-scaling-stroke"><title>Defiance County</title></path><path id="county-39153" class="county feature" d="M711.048450326177,234.53972830129328L712.0605279615583,241.23635935000266L711.9291282797209,242.81660705172942L708.7591704460743,243.15651038511112L707.9833281501003,241.86043316110306L707.2177494047746,236.4815370995783L708.801602748481,236.22688322285444L708.233531414071,234.92362589892502Z" vector-effect="non-scaling-stroke"><title>Summit County</title></path><path id="county-39133" class="county feature" d="M716.3859977481208,233.7098338569001L717.0675402200666,237.67461037306816L717.4988098232776,240.38445522074664L716.2953231606382,240.5805436784916L712.0605279615583,241.23635935000266L711.048450326177,234.53972830129328L711.0533837635646,234.5389639858056Z" vector-effect="non-scaling-stroke"><title>Portage County</title></path><path id="county-39077" class="county feature" d="M698.1492891834716,237.7041166177156L698.8157773039378,241.75013282220755L697.4376138782777,241.95605137395L697.676373766693,243.30019023256602L693.6306657114303,243.82423493946249L692.1770966065378,244.00837165966175L691.3557875759404,239.20515735414324L691.2509246551006,238.56125557202063Z" vector-effect="non-scaling-stroke"><title>Huron County</title></path><path id="county-39103" class="county feature" d="M707.2177494047746,236.4815370995783L707.9833281501003,241.86043316110306L701.8801686687909,242.71061358173574L701.0985960408077,241.4605771311417L700.9226304998776,240.08701436671083L702.0926980829822,238.72102988687436L703.4434372529767,238.51891039658517L703.2641957877959,237.10917826944558L704.5650441496578,236.92125174540126Z" vector-effect="non-scaling-stroke"><title>Medina County</title></path><path id="county-39147" class="county feature" d="M691.3557875759404,239.20515735414324L692.1770966065378,244.00837165966175L688.2637954566546,244.60946955168276L684.0061865064995,245.21292036092893L683.5616718692753,241.9499626972223L683.3599511454319,240.32107827675577Z" vector-effect="non-scaling-stroke"><title>Seneca County</title></path><path id="county-39125" class="county feature" d="M670.8304611541163,243.60557878997906L671.2282854587638,246.87353123433024L670.4323152126688,246.97854663046678L664.8300470899554,247.67201002677496L664.2426307516589,242.7513571282774L669.0153115916694,242.16039933545835Z" vector-effect="non-scaling-stroke"><title>Paulding County</title></path><path id="county-39063" class="county feature" d="M683.5616718692753,241.9499626972223L684.0061865064995,245.21292036092893L683.1115545147352,248.6316137601989L678.0447125592996,249.25848805163957L677.7988990804638,247.3807911301957L677.1966591185984,242.76227000999847Z" vector-effect="non-scaling-stroke"><title>Hancock County</title></path><path id="county-39137" class="county feature" d="M677.1966591185984,242.76227000999847L677.7988990804638,247.3807911301957L674.6569216107671,248.0785484393034L674.7595434552383,248.89454020522953L671.5515896534033,249.33173973124224L670.4323152126688,246.97854663046678L671.2282854587638,246.87353123433024L670.8304611541163,243.60557878997906L672.3993811378207,243.4050944427912Z" vector-effect="non-scaling-stroke"><title>Putnam County</title></path><path id="county-39099" class="county feature" d="M723.6893621591498,236.62099570255225L723.7109884809668,236.78347592800208L724.3980562924135,240.96439247111869L716.5549295523801,242.1893068396987L716.2953231606382,240.5805436784916L717.4988098232776,240.38445522074664L717.0675402200666,237.67461037306816Z" vector-effect="non-scaling-stroke"><title>Mahoning County</title></path><path id="county-39005" class="county feature" d="M701.0985960408077,241.4605771311417L701.8801686687909,242.71061358173574L702.8062898033229,248.73405618558934L701.4963560779245,248.93824525672505L701.7767785541594,250.78903495677218L700.1839873252392,251.27213654210334L699.690813972953,248.07607688440055L698.3504715267393,246.36418873008836L697.676373766693,243.30019023256602L697.4376138782777,241.95605137395L698.8157773039378,241.75013282220755Z" vector-effect="non-scaling-stroke"><title>Ashland County</title></path><path id="county-39033" class="county feature" d="M693.6306657114303,243.82423493946249L694.3414890485701,249.13347018111244L692.5365288510264,249.50339883231572L689.0234391353926,250.02836374611206L688.2637954566546,244.60946955168276L692.1770966065378,244.00837165966175Z" vector-effect="non-scaling-stroke"><title>Crawford County</title></path><path id="county-39139" class="county feature" d="M697.676373766693,243.30019023256602L698.3504715267393,246.36418873008836L699.690813972953,248.07607688440055L700.1839873252392,251.27213654210334L696.2092994440547,251.938481580627L695.738015666291,248.97115795222044L694.3414890485701,249.13347018111244L693.6306657114303,243.82423493946249Z" vector-effect="non-scaling-stroke"><title>Richland County</title></path><path id="county-39175" class="county feature" d="M688.2637954566546,244.60946955168276L689.0234391353926,250.02836374611206L684.7693596893284,250.90703396055585L683.678806140464,250.7711125132746L683.1115545147352,248.6316137601989L684.0061865064995,245.21292036092893Z" vector-effect="non-scaling-stroke"><title>Wyandot County</title></path><path id="county-39169" class="county feature" d="M707.9833281501003,241.86043316110306L708.7591704460743,243.15651038511112L709.4219344782333,247.74654875361955L702.8062898033229,248.73405618558934L701.8801686687909,242.71061358173574Z" vector-effect="non-scaling-stroke"><title>Wayne County</title></path><path id="county-39161" class="county feature" d="M670.4323152126688,246.97854663046678L671.5515896534033,249.33173973124224L670.8620505039584,250.2339869204003L671.1675395084827,252.68257219293343L670.3423081629495,252.78457960016556L670.2433829856752,251.97411128520628L665.4232560689031,252.55558797223023L664.9828122223843,248.92001732754966L664.8300470899554,247.67201002677496Z" vector-effect="non-scaling-stroke"><title>Van Wert County</title></path><path id="county-39151" class="county feature" d="M716.2953231606382,240.5805436784916L716.5549295523801,242.1893068396987L717.0563991431543,245.42336494133258L714.9894604337146,245.8316513237587L714.0831955147693,247.34434343735575L709.532006908873,248.3694546290634L709.4219344782333,247.74654875361955L708.7591704460743,243.15651038511112L711.9291282797209,242.81660705172942L712.0605279615583,241.23635935000266Z" vector-effect="non-scaling-stroke"><title>Stark County</title></path><path id="county-39029" class="county feature" d="M724.3980562924135,240.96439247111869L724.5547934937332,241.8561547813457L725.2000132677055,245.8133302119669L723.3045335897009,247.1947192087282L720.5636729269461,247.3149954955694L719.4167140832425,245.06520254057705L717.0563991431543,245.42336494133258L716.5549295523801,242.1893068396987Z" vector-effect="non-scaling-stroke"><title>Columbiana County</title></path><path id="county-39003" class="county feature" d="M677.7988990804638,247.3807911301957L678.0447125592996,249.25848805163957L678.4644203167603,252.5319464508775L675.2968465263001,252.9648224370801L673.5908373726706,252.36363075798545L671.1675395084827,252.68257219293343L670.8620505039584,250.2339869204003L671.5515896534033,249.33173973124224L674.7595434552383,248.89454020522953L674.6569216107671,248.0785484393034Z" vector-effect="non-scaling-stroke"><title>Allen County</title></path><path id="county-39065" class="county feature" d="M683.1115545147352,248.6316137601989L683.678806140464,250.7711125132746L684.7693596893284,250.90703396055585L685.2408861999238,254.29550464355066L683.8264236310058,254.5055352992507L678.7183094146258,254.5121228596031L678.4644203167603,252.5319464508775L678.0447125592996,249.25848805163957Z" vector-effect="non-scaling-stroke"><title>Hardin County</title></path><path id="county-39019" class="county feature" d="M717.0563991431543,245.42336494133258L719.4167140832425,245.06520254057705L720.5636729269461,247.3149954955694L719.8698636991256,248.2481031229737L719.9768665726979,250.74173504611827L715.3800697703858,251.30105229387743L715.0721818197658,248.83984435287857L714.0831955147693,247.34434343735575L714.9894604337146,245.8316513237587Z" vector-effect="non-scaling-stroke"><title>Carroll County</title></path><path id="county-39107" class="county feature" d="M670.3423081629495,252.78457960016556L671.0966833280454,258.88140976955117L671.4030038457272,258.925549412603L671.3985925522023,258.93118682006707L666.2292956352155,259.5806669998668L665.7636245384983,255.4740837469518L665.4232560689031,252.55558797223023L670.2433829856752,251.97411128520628Z" vector-effect="non-scaling-stroke"><title>Mercer County</title></path><path id="county-39117" class="county feature" d="M694.3414890485701,249.13347018111244L695.738015666291,248.97115795222044L696.2092994440547,251.938481580627L696.4297054636456,255.80440717000863L695.0441622866151,255.91480465122447L692.4393206039698,256.1143855764748L690.9714646919196,254.87840499513004L691.6966174832176,253.69672664579446L691.308535802774,250.8125530893526L692.5365288510264,249.50339883231572Z" vector-effect="non-scaling-stroke"><title>Morrow County</title></path><path id="county-39101" class="county feature" d="M692.5365288510264,249.50339883231572L691.308535802774,250.8125530893526L691.6966174832176,253.69672664579446L690.9714646919196,254.87840499513004L687.7638533526401,255.1222331160975L687.6148200009932,253.94252334815474L685.2408861999238,254.29550464355066L684.7693596893284,250.90703396055585L689.0234391353926,250.02836374611206Z" vector-effect="non-scaling-stroke"><title>Marion County</title></path><path id="county-39011" class="county feature" d="M678.4644203167603,252.5319464508775L678.7183094146258,254.5121228596031L677.1418758942043,255.7680200746354L672.4431437078921,256.3976794203038L672.6839759184401,258.30940334878017L671.4030038457272,258.925549412603L671.0966833280454,258.88140976955117L670.3423081629495,252.78457960016556L671.1675395084827,252.68257219293343L673.5908373726706,252.36363075798545L675.2968465263001,252.9648224370801Z" vector-effect="non-scaling-stroke"><title>Auglaize County</title></path><path id="county-39075" class="county feature" d="M709.4219344782333,247.74654875361955L709.532006908873,248.3694546290634L709.7825551420628,251.96590431801883L709.2298919763665,252.03132783935973L702.5767127245472,252.8033457391258L701.7767785541594,250.78903495677218L701.4963560779245,248.93824525672505L702.8062898033229,248.73405618558934Z" vector-effect="non-scaling-stroke"><title>Holmes County</title></path><path id="county-39157" class="county feature" d="M714.0831955147693,247.34434343735575L715.0721818197658,248.83984435287857L715.3800697703858,251.30105229387743L715.6831910067149,253.73355924021234L715.0654213743404,255.53125866983862L711.0691352931925,256.01035092636073L710.7473878832275,253.26138422916108L709.3985967605711,253.4152037091361L709.2298919763665,252.03132783935973L709.7825551420628,251.96590431801883L709.532006908873,248.3694546290634Z" vector-effect="non-scaling-stroke"><title>Tuscarawas County</title></path><path id="county-39081" class="county feature" d="M723.3045335897009,247.1947192087282L724.6608319781311,249.2660255863292L724.4148445293049,250.58384846162915L725.0511287635991,251.90429135360841L724.3102396607235,254.60725301554817L724.1053453082894,255.1819835555316L721.582346819077,255.54505820033637L721.0409546091076,250.6051034509552L719.9768665726979,250.74173504611827L719.8698636991256,248.2481031229737L720.5636729269461,247.3149954955694Z" vector-effect="non-scaling-stroke"><title>Jefferson County</title></path><path id="county-39083" class="county feature" d="M702.5767127245472,252.8033457391258L703.0091182578468,256.87742718383265L699.0560933572785,257.31977408757984L695.1489095905895,257.28082591216435L695.0441622866151,255.91480465122447L696.4297054636456,255.80440717000863L696.2092994440547,251.938481580627L700.1839873252392,251.27213654210334L701.7767785541594,250.78903495677218Z" vector-effect="non-scaling-stroke"><title>Knox County</title></path><path id="county-39091" class="county feature" d="M678.7183094146258,254.5121228596031L683.8264236310058,254.5055352992507L684.066598436938,259.694249176673L677.468322935302,259.709234165078L677.1418758942043,255.7680200746354Z" vector-effect="non-scaling-stroke"><title>Logan County</title></path><path id="county-39159" class="county feature" d="M689.6241367048538,260.5908297777245L689.2052937891405,261.31977217096494L685.0265028817474,261.80755353939753L684.8706204979729,259.66159588765606L684.066598436938,259.694249176673L683.8264236310058,254.5055352992507L685.2408861999238,254.29550464355066L687.6148200009932,253.94252334815474L687.7638533526401,255.1222331160975L688.2716540200644,258.8465566413321L689.337490303145,258.7063442192989Z" vector-effect="non-scaling-stroke"><title>Union County</title></path><path id="county-39149" class="county feature" d="M677.1418758942043,255.7680200746354L677.468322935302,259.709234165078L677.5647258530374,261.3977587449434L671.7882859859045,261.8670262336087L671.3985925522023,258.93118682006707L671.4030038457272,258.925549412603L672.6839759184401,258.30940334878017L672.4431437078921,256.3976794203038Z" vector-effect="non-scaling-stroke"><title>Shelby County</title></path><path id="county-39031" class="county feature" d="M709.2298919763665,252.03132783935973L709.3985967605711,253.4152037091361L710.7473878832275,253.26138422916108L711.0691352931925,256.01035092636073L709.9604533484986,257.4974387809866L703.3314242339997,258.20407899807674L703.0091182578468,256.87742718383265L702.5767127245472,252.8033457391258Z" vector-effect="non-scaling-stroke"><title>Coshocton County</title></path><path id="county-39041" class="county feature" d="M695.0441622866151,255.91480465122447L695.1489095905895,257.28082591216435L695.39362872367,260.12159168465917L689.6241367048538,260.5908297777245L689.337490303145,258.7063442192989L688.2716540200644,258.8465566413321L687.7638533526401,255.1222331160975L690.9714646919196,254.87840499513004L692.4393206039698,256.1143855764748Z" vector-effect="non-scaling-stroke"><title>Delaware County</title></path><path id="county-39067" class="county feature" d="M719.9768665726979,250.74173504611827L721.0409546091076,250.6051034509552L721.582346819077,255.54505820033637L716.7629110703925,256.1073293261053L715.0654213743404,255.53125866983862L715.6831910067149,253.73355924021234L715.3800697703858,251.30105229387743Z" vector-effect="non-scaling-stroke"><title>Harrison County</title></path><path id="county-39037" class="county feature" d="M671.3985925522023,258.93118682006707L671.7882859859045,261.8670262336087L672.509002973695,267.0461890770056L671.6824469190835,267.1695182918626L667.0731411766762,267.7511918781513L666.9033138470112,266.09846216268386L666.3288880046275,260.37908907849953L666.2292956352155,259.5806669998668Z" vector-effect="non-scaling-stroke"><title>Darke County</title></path><path id="county-39089" class="county feature" d="M703.0091182578468,256.87742718383265L703.3314242339997,258.20407899807674L703.7563984244232,262.26783452023574L703.3633195320936,263.0301529973402L700.1057802353972,263.17499411064273L695.5883813773667,263.6381667265757L695.39362872367,260.12159168465917L695.1489095905895,257.28082591216435L699.0560933572785,257.31977408757984Z" vector-effect="non-scaling-stroke"><title>Licking County</title></path><path id="county-39021" class="county feature" d="M684.066598436938,259.694249176673L684.8706204979729,259.66159588765606L685.0265028817474,261.80755353939753L685.1002689932027,263.7235405443338L677.7183734462271,264.10763708381376L677.5647258530374,261.3977587449434L677.468322935302,259.709234165078Z" vector-effect="non-scaling-stroke"><title>Champaign County</title></path><path id="county-39059" class="county feature" d="M717.2856913566088,260.1996977742191L715.1591418256478,260.54126713539733L714.2234964414215,261.75738385773195L712.6077636544674,261.9450109064036L712.7496622617748,263.04169401496654L711.1413243622565,263.21799464371793L710.4056042566162,261.6276720376841L709.9604533484986,257.4974387809866L711.0691352931925,256.01035092636073L715.0654213743404,255.53125866983862L716.7629110703925,256.1073293261053Z" vector-effect="non-scaling-stroke"><title>Guernsey County</title></path><path id="county-39109" class="county feature" d="M677.5647258530374,261.3977587449434L677.7183734462271,264.10763708381376L677.8905578047346,267.1327641594477L676.2820764718616,266.51171462226364L672.509002973695,267.0461890770056L671.7882859859045,261.8670262336087Z" vector-effect="non-scaling-stroke"><title>Miami County</title></path><path id="county-39013" class="county feature" d="M721.582346819077,255.54505820033637L724.1053453082894,255.1819835555316L724.0421709386551,257.55388191104817L724.1389459596853,259.839452121716L723.3557962355409,261.1923661805938L717.4836407937597,261.7600637412953L717.2856913566088,260.1996977742191L716.7629110703925,256.1073293261053Z" vector-effect="non-scaling-stroke"><title>Belmont County</title></path><path id="county-39119" class="county feature" d="M709.9604533484986,257.4974387809866L710.4056042566162,261.6276720376841L711.1413243622565,263.21799464371793L711.3419853335366,264.84748313258046L705.9673955302785,265.3576678903829L704.5132123289762,264.6228847496361L704.3823387871071,262.9568378787159L703.3633195320936,263.0301529973402L703.7563984244232,262.26783452023574L703.3314242339997,258.20407899807674Z" vector-effect="non-scaling-stroke"><title>Muskingum County</title></path><path id="county-39049" class="county feature" d="M695.39362872367,260.12159168465917L695.5883813773667,263.6381667265757L695.3800846697474,266.420140270066L689.4261880875425,266.9043161718L688.7245376672531,263.34290286675025L689.2052937891405,261.31977217096494L689.6241367048538,260.5908297777245Z" vector-effect="non-scaling-stroke"><title>Franklin County</title></path><path id="county-39097" class="county feature" d="M689.4261880875425,266.9043161718L689.5998642447042,269.1070308288821L683.8894729856363,269.4577734448055L683.8385885547362,268.3984222688566L684.6691654376666,268.3723106784212L685.1002689932027,263.7235405443338L685.0265028817474,261.80755353939753L689.2052937891405,261.31977217096494L688.7245376672531,263.34290286675025Z" vector-effect="non-scaling-stroke"><title>Madison County</title></path><path id="county-39023" class="county feature" d="M685.1002689932027,263.7235405443338L684.6691654376666,268.3723106784212L683.8385885547362,268.3984222688566L681.177885992928,267.79928025119216L677.9194010176616,267.6862823220216L677.8905578047346,267.1327641594477L677.7183734462271,264.10763708381376Z" vector-effect="non-scaling-stroke"><title>Clark County</title></path><path id="county-39121" class="county feature" d="M717.2856913566088,260.1996977742191L717.4836407937597,261.7600637412953L716.4060251130029,261.8965956536964L716.800571950415,264.92752514486426L717.6006646194818,266.74058620143387L713.3564931461003,267.7557078584281L711.3419853335366,264.84748313258046L711.1413243622565,263.21799464371793L712.7496622617748,263.04169401496654L712.6077636544674,261.9450109064036L714.2234964414215,261.75738385773195L715.1591418256478,260.54126713539733Z" vector-effect="non-scaling-stroke"><title>Noble County</title></path><path id="county-39045" class="county feature" d="M695.5883813773667,263.6381667265757L700.1057802353972,263.17499411064273L700.2287677928005,264.93077929074616L701.2849517508637,264.85877821324027L702.0875362054455,268.1340753282865L700.4607182755526,268.2431165100993L700.5111549546547,269.3538653309797L698.7838540089265,269.49038808625255L697.3147959414307,270.7274653693238L695.7232347646961,270.8059960357251L695.3800846697474,266.420140270066Z" vector-effect="non-scaling-stroke"><title>Fairfield County</title></path><path id="county-39127" class="county feature" d="M705.9673955302785,265.3576678903829L706.8325122531426,266.11200255650135L706.9835070486824,269.4028984476189L705.392549933347,269.52870205065426L702.1683830996928,269.2313641885215L702.0875362054455,268.1340753282865L701.2849517508637,264.85877821324027L700.2287677928005,264.93077929074616L700.1057802353972,263.17499411064273L703.3633195320936,263.0301529973402L704.3823387871071,262.9568378787159L704.5132123289762,264.6228847496361Z" vector-effect="non-scaling-stroke"><title>Perry County</title></path><path id="county-39113" class="county feature" d="M677.8905578047346,267.1327641594477L677.9194010176616,267.6862823220216L677.3967138563522,267.98385629318796L677.7103082292532,272.8906122816288L674.1283507780641,273.11672773673456L672.5146000664643,273.2847022892338L671.6824469190835,267.1695182918626L672.509002973695,267.0461890770056L676.2820764718616,266.51171462226364Z" vector-effect="non-scaling-stroke"><title>Montgomery County</title></path><path id="county-39135" class="county feature" d="M671.6824469190835,267.1695182918626L672.5146000664643,273.2847022892338L672.5704933829809,273.7012109627867L667.8159702198026,274.29430697659234L667.4691446749912,271.31737751927255L667.0731411766762,267.7511918781513Z" vector-effect="non-scaling-stroke"><title>Preble County</title></path><path id="county-39111" class="county feature" d="M723.3557962355409,261.1923661805938L723.5936623621709,263.6008648997803L722.373464863054,265.96841382872606L721.2370619080218,267.42486739285584L721.1723117427097,266.82102266872585L717.6006646194818,266.74058620143387L716.800571950415,264.92752514486426L716.4060251130029,261.8965956536964L717.4836407937597,261.7600637412953Z" vector-effect="non-scaling-stroke"><title>Monroe County</title></path><path id="county-39057" class="county feature" d="M683.8385885547362,268.3984222688566L683.8894729856363,269.4577734448055L684.0577193285396,272.60332252294506L679.6708530978353,272.80907024259113L677.7103082292532,272.8906122816288L677.3967138563522,267.98385629318796L677.9194010176616,267.6862823220216L681.177885992928,267.79928025119216Z" vector-effect="non-scaling-stroke"><title>Greene County</title></path><path id="county-39129" class="county feature" d="M695.3800846697474,266.420140270066L695.7232347646961,270.8059960357251L697.3147959414307,270.7274653693238L697.4088236047328,272.35440046108886L693.7382273535388,272.6408577480365L693.8728884381305,272.1163405309742L689.8484920528183,272.48192089826046L689.5998642447042,269.1070308288821L689.4261880875425,266.9043161718Z" vector-effect="non-scaling-stroke"><title>Pickaway County</title></path><path id="county-39115" class="county feature" d="M711.3419853335366,264.84748313258046L713.3564931461003,267.7557078584281L711.591204740653,268.12974537520245L711.9562696004984,269.9926476646755L710.121190732403,270.8530455305229L707.1170330035045,271.11201802741493L706.9835070486824,269.4028984476189L706.8325122531426,266.11200255650135L705.9673955302785,265.3576678903829Z" vector-effect="non-scaling-stroke"><title>Morgan County</title></path><path id="county-39047" class="county feature" d="M689.5998642447042,269.1070308288821L689.8484920528183,272.48192089826046L688.6925479934952,275.2791858976509L685.6007973300784,275.6632327715803L685.3967688850462,272.5362061578867L684.0577193285396,272.60332252294506L683.8894729856363,269.4577734448055Z" vector-effect="non-scaling-stroke"><title>Fayette County</title></path><path id="county-39073" class="county feature" d="M705.392549933347,269.52870205065426L705.5226084365436,271.2279520563163L703.9070216784114,271.33893085718773L704.01547293693,273.01258675776023L700.8047138072493,273.25412325824755L700.829149623392,273.7518694614796L697.5596032466319,274.2403200151658L697.4088236047328,272.35440046108886L697.3147959414307,270.7274653693238L698.7838540089265,269.49038808625255L700.5111549546547,269.3538653309797L700.4607182755526,268.2431165100993L702.0875362054455,268.1340753282865L702.1683830996928,269.2313641885215Z" vector-effect="non-scaling-stroke"><title>Hocking County</title></path><path id="county-39167" class="county feature" d="M717.6006646194818,266.74058620143387L721.1723117427097,266.82102266872585L721.2370619080218,267.42486739285584L720.3141648920798,269.1323309819559L717.1290974004278,271.84367828267204L715.9467120173315,270.74783403830065L714.5420542566786,272.2168908652163L714.4841539084622,273.70613423874545L712.9778626553461,273.8189136945465L712.4703205666946,274.9651998650886L712.3699186147429,273.95819558244546L710.3687613078555,273.3338816112557L710.121190732403,270.8530455305229L711.9562696004984,269.9926476646755L711.591204740653,268.12974537520245L713.3564931461003,267.7557078584281Z" vector-effect="non-scaling-stroke"><title>Washington County</title></path><path id="county-39017" class="county feature" d="M674.1283507780641,273.11672773673456L674.6888595840906,273.7730440611574L674.9859095293767,278.6563122178368L668.3303356469128,279.2136129300859L667.9067349451074,275.1492396216677L667.8159702198026,274.29430697659234L672.5704933829809,273.7012109627867L672.5146000664643,273.2847022892338Z" vector-effect="non-scaling-stroke"><title>Butler County</title></path><path id="county-39165" class="county feature" d="M677.7103082292532,272.8906122816288L679.6708530978353,272.80907024259113L679.9946583408012,278.73743452406757L676.3668510822804,278.89371033209704L674.9859095293767,278.6563122178368L674.6888595840906,273.7730440611574L674.1283507780641,273.11672773673456Z" vector-effect="non-scaling-stroke"><title>Warren County</title></path><path id="county-39027" class="county feature" d="M682.0174737126621,278.62630665773656L680.2366693702093,278.7250861224429L679.9946583408012,278.73743452406757L679.6708530978353,272.80907024259113L684.0577193285396,272.60332252294506L685.3967688850462,272.5362061578867L685.6007973300784,275.6632327715803L683.1280329905408,278.1932801718186Z" vector-effect="non-scaling-stroke"><title>Clinton County</title></path><path id="county-39009" class="county feature" d="M710.121190732403,270.8530455305229L710.3687613078555,273.3338816112557L712.3699186147429,273.95819558244546L712.4703205666946,274.9651998650886L712.1279142489519,275.6950042733149L704.8050053760454,276.3362251236898L704.01547293693,273.01258675776023L703.9070216784114,271.33893085718773L705.5226084365436,271.2279520563163L705.392549933347,269.52870205065426L706.9835070486824,269.4028984476189L707.1170330035045,271.11201802741493Z" vector-effect="non-scaling-stroke"><title>Athens County</title></path><path id="county-39141" class="county feature" d="M697.4088236047328,272.35440046108886L697.5596032466319,274.2403200151658L697.7807251143854,277.2597468590885L697.5568304990805,278.03557476806714L689.4170675302073,278.6029806917894L688.6925479934952,275.2791858976509L689.8484920528183,272.48192089826046L693.8728884381305,272.1163405309742L693.7382273535388,272.6408577480365Z" vector-effect="non-scaling-stroke"><title>Ross County</title></path><path id="county-39163" class="county feature" d="M704.01547293693,273.01258675776023L704.8050053760454,276.3362251236898L704.2605155361192,276.3815604347035L704.5122871338081,279.73338403786215L702.8894355470904,279.825327991451L702.7670656302998,277.8876082241288L701.0671905411417,277.31156416145814L697.7807251143854,277.2597468590885L697.5596032466319,274.2403200151658L700.829149623392,273.7518694614796L700.8047138072493,273.25412325824755Z" vector-effect="non-scaling-stroke"><title>Vinton County</title></path><path id="county-39071" class="county feature" d="M688.6925479934952,275.2791858976509L689.4170675302073,278.6029806917894L689.3183324607655,281.32387070685286L685.3090595848212,282.513930007099L682.4680026956722,282.86512407657267L682.0174737126621,278.62630665773656L683.1280329905408,278.1932801718186L685.6007973300784,275.6632327715803Z" vector-effect="non-scaling-stroke"><title>Highland County</title></path><path id="county-39061" class="county feature" d="M674.9859095293767,278.6563122178368L676.3668510822804,278.89371033209704L676.0908999826731,283.66193464856224L673.2617048987687,282.61374493439655L671.6355403599806,283.20310668983245L669.7532862384593,282.0410967732704L668.762142200546,282.955135487333L668.3303356469128,279.2136129300859Z" vector-effect="non-scaling-stroke"><title>Hamilton County</title></path><path id="county-39025" class="county feature" d="M680.4853489658508,287.8693954217381L677.8126952102626,287.1388820460959L677.6818375051741,286.2549398073395L676.0908999826731,283.66193464856224L676.3668510822804,278.89371033209704L679.9946583408012,278.73743452406757L680.2366693702093,278.7250861224429Z" vector-effect="non-scaling-stroke"><title>Clermont County</title></path><path id="county-39015" class="county feature" d="M685.3090595848212,282.513930007099L685.7801874923241,289.73422189780104L682.6189303721043,287.6613851211637L680.4853489658508,287.8693954217381L680.2366693702093,278.7250861224429L682.0174737126621,278.62630665773656L682.4680026956722,282.86512407657267Z" vector-effect="non-scaling-stroke"><title>Brown County</title></path><path id="county-39079" class="county feature" d="M702.8894355470904,279.825327991451L703.1189287479806,283.42171440738355L701.3993968482207,283.66937409055447L700.3275156910499,283.73338078573454L698.7354796249317,283.84707154431294L697.8269028860993,282.20085413343077L697.5568304990805,278.03557476806714L697.7807251143854,277.2597468590885L701.0671905411417,277.31156416145814L702.7670656302998,277.8876082241288Z" vector-effect="non-scaling-stroke"><title>Jackson County</title></path><path id="county-39105" class="county feature" d="M710.8158829187121,281.6477747144129L710.7553929751388,280.543640106677L709.0673514436413,279.0531946280272L707.8769341876225,280.491542156744L707.8111314226645,279.72626143794184L704.5122871338081,279.73338403786215L704.2605155361192,276.3815604347035L704.8050053760454,276.3362251236898L712.1279142489519,275.6950042733149L712.485008886649,277.2317190998716L712.4715691857368,280.5308668778896Z" vector-effect="non-scaling-stroke"><title>Meigs County</title></path><path id="county-39131" class="county feature" d="M697.8269028860993,282.20085413343077L692.0265522776566,282.76755346806794L691.0474565449341,281.84098342439404L689.3183324607655,281.32387070685286L689.4170675302073,278.6029806917894L697.5568304990805,278.03557476806714Z" vector-effect="non-scaling-stroke"><title>Pike County</title></path><path id="county-39001" class="county feature" d="M691.0474565449341,281.84098342439404L692.0994038664603,289.2600987555321L688.3554658343953,288.2054420487847L686.6462193070579,289.638649824567L685.7801874923241,289.73422189780104L685.3090595848212,282.513930007099L689.3183324607655,281.32387070685286Z" vector-effect="non-scaling-stroke"><title>Adams County</title></path><path id="county-39053" class="county feature" d="M707.8769341876225,280.491542156744L707.5737573940979,282.90402646847485L706.6342469108445,283.9854104563366L707.7712434467576,287.3200666701499L707.2314918319641,287.64470860162066L706.2238247818103,287.96244490545905L705.1489820890073,288.0710959430219L705.0064824386697,286.36004244201035L703.3068779795005,286.4828928285219L702.907968104324,284.8302244676647L701.4755742470438,284.9035930954491L701.3993968482207,283.66937409055447L703.1189287479806,283.42171440738355L702.8894355470904,279.825327991451L704.5122871338081,279.73338403786215L707.8111314226645,279.72626143794184Z" vector-effect="non-scaling-stroke"><title>Gallia County</title></path><path id="county-39145" class="county feature" d="M697.8269028860993,282.20085413343077L698.7354796249317,283.84707154431294L700.3275156910499,283.73338078573454L699.6981128021285,288.6204565284828L698.6877705989108,289.26309416969343L697.1790039318726,285.9817547997085L695.2112657613129,286.79741370489774L693.6871560911513,289.0421024748613L692.0994038664603,289.2600987555321L691.0474565449341,281.84098342439404L692.0265522776566,282.76755346806794Z" vector-effect="non-scaling-stroke"><title>Scioto County</title></path><path id="county-39087" class="county feature" d="M706.2238247818103,287.96244490545905L706.0955351709224,290.5143221304678L703.562504725625,291.60347231880417L702.2332514474759,291.6025292816529L701.012767626823,290.1753073361999L698.6877705989108,289.26309416969343L699.6981128021285,288.6204565284828L700.3275156910499,283.73338078573454L701.3993968482207,283.66937409055447L701.4755742470438,284.9035930954491L702.907968104324,284.8302244676647L703.3068779795005,286.4828928285219L705.0064824386697,286.36004244201035L705.1489820890073,288.0710959430219Z" vector-effect="non-scaling-stroke"><title>Lawrence County</title></path></g><path id="counties-mesh" class="counties mesh" d="M721.108616984983,220.94763286036505L721.4990611662116,223.32354759434952L722.5666763796828,229.82015540120676L715.931011758272,230.85027344212222L715.2950781981706,226.88507313759317L714.9010348906468,224.31384384505895L721.108616984983,220.94763286036505M715.2950781981706,226.88507313759317L713.9485873725679,227.11394117953125L714.1772624309647,228.4653264881232L711.5317927966478,228.89194762586988L711.7228113311718,230.21355716649168L710.4202970722423,230.42011681019437L708.9060426322549,229.47977637906695L711.3247226738661,226.5981763706758L714.9010348906468,224.31384384505895M670.0885364724925,237.6281945386355L670.2269520888854,238.71022809600913L663.8538382054752,239.50870239533936L663.6138068510651,237.56523904427797L663.2269044558229,234.4648891165259L668.7925891557405,233.61102091484065L669.3280861578298,233.52994831032458L675.8847878557888,232.45147199223584L677.4867513232498,232.17782211571455L681.3108262078877,231.51391245415675L681.3402254964877,231.50899821531675L681.487087075774,231.48341520951158L681.5657041966797,231.47196826076083L681.6928734880224,231.44897378667633L685.9368639476868,232.96132813761847L682.512476948788,233.50358503013695L680.3969024409535,233.8172476851305L678.7490894719284,236.3408022854469L676.5765265123366,238.16052039257045L676.4065302890286,236.79511063208838L675.8847878557888,232.45147199223584M685.9368639476868,232.96132813761847L688.8929695202133,234.52162249075684L690.5970639814276,233.0034754411422L692.2678561856897,234.381293078843L688.1000694532765,235.81343385300693L687.8537028180048,235.8512991386957L687.7797638471618,235.86244934956642L683.9806866886981,236.37210149766122L682.8223534860592,235.7170383355674L682.512476948788,233.50358503013695M676.4065302890286,236.79511063208838L670.0885364724925,237.6281945386355L669.4892373707014,237.1631386515619L668.7925891557405,233.61102091484065M715.931011758272,230.85027344212222L716.3859977481208,233.7098338569001L711.0533837635646,234.5389639858056L710.4202970722423,230.42011681019437M711.0533837635646,234.5389639858056L711.048450326177,234.53972830129328L708.233531414071,234.92362589892502L708.801602748481,236.22688322285444L707.2177494047746,236.4815370995783L704.5650441496578,236.92125174540126L704.3693952459156,235.5130401029836L703.0687560357117,235.69277271487272L702.6830788711505,232.82787661127986L705.8018926135737,232.69764512102336L708.9060426322549,229.47977637906695M682.8223534860592,235.7170383355674L683.3599511454319,240.32107827675577L683.5616718692753,241.9499626972223L677.1966591185984,242.76227000999847L676.5765265123366,238.16052039257045M672.3993811378207,243.4050944427912L670.8304611541163,243.60557878997906L669.0153115916694,242.16039933545835L664.2426307516589,242.7513571282774L664.2011534220269,242.40089639400185L663.8538382054752,239.50870239533936M704.5650441496578,236.92125174540126L703.2641957877959,237.10917826944558L703.4434372529767,238.51891039658517L702.0926980829822,238.72102988687436L700.9226304998776,240.08701436671083L701.0985960408077,241.4605771311417L698.8157773039378,241.75013282220755L698.1492891834716,237.7041166177156M697.6838643203771,235.0447587591458L698.1492891834716,237.7041166177156L691.2509246551006,238.56125557202063L690.798673337433,235.96597043151985L690.0562926222306,236.05792012593838L692.7391927560886,235.04899898336805L695.676826460432,236.19240989959633L697.6838643203771,235.0447587591458L702.0572457562071,232.71640282073258L702.6830788711505,232.82787661127986M722.5666763796828,229.82015540120676L722.5984790605798,230.0136797556629L723.6893621591498,236.62099570255225L717.0675402200666,237.67461037306816L716.3859977481208,233.7098338569001M688.1000694532765,235.81343385300693L687.8537028180048,235.8512991386957M687.7797638471618,235.86244934956642L690.0562926222306,236.05792012593838M691.2509246551006,238.56125557202063L691.3557875759404,239.20515735414324L683.3599511454319,240.32107827675577M684.0061865064995,245.21292036092893L683.1115545147352,248.6316137601989L678.0447125592996,249.25848805163957L677.7988990804638,247.3807911301957L677.1966591185984,242.76227000999847L672.3993811378207,243.4050944427912L671.7853321878813,238.51309173649963L670.2269520888854,238.71022809600913M711.048450326177,234.53972830129328L712.0605279615583,241.23635935000266L711.9291282797209,242.81660705172942L708.7591704460743,243.15651038511112L707.9833281501003,241.86043316110306L707.2177494047746,236.4815370995783M717.0675402200666,237.67461037306816L717.4988098232776,240.38445522074664L716.2953231606382,240.5805436784916L712.0605279615583,241.23635935000266M698.8157773039378,241.75013282220755L697.4376138782777,241.95605137395L697.676373766693,243.30019023256602L693.6306657114303,243.82423493946249L692.1770966065378,244.00837165966175L691.3557875759404,239.20515735414324M707.9833281501003,241.86043316110306L701.8801686687909,242.71061358173574L701.0985960408077,241.4605771311417M671.5515896534033,249.33173973124224L670.8620505039584,250.2339869204003L671.1675395084827,252.68257219293343L670.3423081629495,252.78457960016556L670.2433829856752,251.97411128520628L665.4232560689031,252.55558797223023L664.9828122223843,248.92001732754966L664.8300470899554,247.67201002677496L664.2426307516589,242.7513571282774M692.1770966065378,244.00837165966175L688.2637954566546,244.60946955168276L684.0061865064995,245.21292036092893L683.5616718692753,241.9499626972223M670.8304611541163,243.60557878997906L671.2282854587638,246.87353123433024L670.4323152126688,246.97854663046678L664.8300470899554,247.67201002677496M677.7988990804638,247.3807911301957L674.6569216107671,248.0785484393034L674.7595434552383,248.89454020522953L671.5515896534033,249.33173973124224L670.4323152126688,246.97854663046678M723.6893621591498,236.62099570255225L723.7109884809668,236.78347592800208L724.3980562924135,240.96439247111869L716.5549295523801,242.1893068396987L716.2953231606382,240.5805436784916M701.8801686687909,242.71061358173574L702.8062898033229,248.73405618558934L701.4963560779245,248.93824525672505L701.7767785541594,250.78903495677218L700.1839873252392,251.27213654210334L699.690813972953,248.07607688440055L698.3504715267393,246.36418873008836L697.676373766693,243.30019023256602M693.6306657114303,243.82423493946249L694.3414890485701,249.13347018111244L692.5365288510264,249.50339883231572L689.0234391353926,250.02836374611206L688.2637954566546,244.60946955168276M700.1839873252392,251.27213654210334L696.2092994440547,251.938481580627L695.738015666291,248.97115795222044L694.3414890485701,249.13347018111244M689.0234391353926,250.02836374611206L684.7693596893284,250.90703396055585L683.678806140464,250.7711125132746L683.1115545147352,248.6316137601989M708.7591704460743,243.15651038511112L709.4219344782333,247.74654875361955L702.8062898033229,248.73405618558934M716.5549295523801,242.1893068396987L717.0563991431543,245.42336494133258L714.9894604337146,245.8316513237587L714.0831955147693,247.34434343735575L709.532006908873,248.3694546290634L709.4219344782333,247.74654875361955M724.3980562924135,240.96439247111869L724.5547934937332,241.8561547813457L725.2000132677055,245.8133302119669L723.3045335897009,247.1947192087282L720.5636729269461,247.3149954955694L719.4167140832425,245.06520254057705L717.0563991431543,245.42336494133258M670.3423081629495,252.78457960016556L671.0966833280454,258.88140976955117L671.4030038457272,258.925549412603L671.3985925522023,258.93118682006707L666.2292956352155,259.5806669998668L665.7636245384983,255.4740837469518L665.4232560689031,252.55558797223023M678.0447125592996,249.25848805163957L678.4644203167603,252.5319464508775L675.2968465263001,252.9648224370801L673.5908373726706,252.36363075798545L671.1675395084827,252.68257219293343M684.7693596893284,250.90703396055585L685.2408861999238,254.29550464355066L683.8264236310058,254.5055352992507L678.7183094146258,254.5121228596031L678.4644203167603,252.5319464508775M720.5636729269461,247.3149954955694L719.8698636991256,248.2481031229737L719.9768665726979,250.74173504611827L715.3800697703858,251.30105229387743L715.0721818197658,248.83984435287857L714.0831955147693,247.34434343735575M696.2092994440547,251.938481580627L696.4297054636456,255.80440717000863L695.0441622866151,255.91480465122447L692.4393206039698,256.1143855764748L690.9714646919196,254.87840499513004L691.6966174832176,253.69672664579446L691.308535802774,250.8125530893526L692.5365288510264,249.50339883231572M690.9714646919196,254.87840499513004L687.7638533526401,255.1222331160975L687.6148200009932,253.94252334815474L685.2408861999238,254.29550464355066M678.7183094146258,254.5121228596031L677.1418758942043,255.7680200746354L672.4431437078921,256.3976794203038L672.6839759184401,258.30940334878017L671.4030038457272,258.925549412603M709.532006908873,248.3694546290634L709.7825551420628,251.96590431801883L709.2298919763665,252.03132783935973L702.5767127245472,252.8033457391258L701.7767785541594,250.78903495677218M715.3800697703858,251.30105229387743L715.6831910067149,253.73355924021234L715.0654213743404,255.53125866983862L711.0691352931925,256.01035092636073L710.7473878832275,253.26138422916108L709.3985967605711,253.4152037091361L709.2298919763665,252.03132783935973M723.3045335897009,247.1947192087282L724.6608319781311,249.2660255863292L724.4148445293049,250.58384846162915L725.0511287635991,251.90429135360841L724.3102396607235,254.60725301554817L724.1053453082894,255.1819835555316L721.582346819077,255.54505820033637L721.0409546091076,250.6051034509552L719.9768665726979,250.74173504611827M702.5767127245472,252.8033457391258L703.0091182578468,256.87742718383265L699.0560933572785,257.31977408757984L695.1489095905895,257.28082591216435L695.0441622866151,255.91480465122447M671.7882859859045,261.8670262336087L672.509002973695,267.0461890770056L671.6824469190835,267.1695182918626L667.0731411766762,267.7511918781513L666.9033138470112,266.09846216268386L666.3288880046275,260.37908907849953L666.2292956352155,259.5806669998668M683.8264236310058,254.5055352992507L684.066598436938,259.694249176673L677.468322935302,259.709234165078L677.1418758942043,255.7680200746354M687.7638533526401,255.1222331160975L688.2716540200644,258.8465566413321L689.337490303145,258.7063442192989L689.6241367048538,260.5908297777245L689.2052937891405,261.31977217096494L685.0265028817474,261.80755353939753L684.8706204979729,259.66159588765606L684.066598436938,259.694249176673M677.468322935302,259.709234165078L677.5647258530374,261.3977587449434L671.7882859859045,261.8670262336087L671.3985925522023,258.93118682006707M711.0691352931925,256.01035092636073L709.9604533484986,257.4974387809866L703.3314242339997,258.20407899807674L703.0091182578468,256.87742718383265M695.1489095905895,257.28082591216435L695.39362872367,260.12159168465917L689.6241367048538,260.5908297777245M721.582346819077,255.54505820033637L716.7629110703925,256.1073293261053L715.0654213743404,255.53125866983862M703.3314242339997,258.20407899807674L703.7563984244232,262.26783452023574L703.3633195320936,263.0301529973402L700.1057802353972,263.17499411064273L695.5883813773667,263.6381667265757L695.39362872367,260.12159168465917M685.0265028817474,261.80755353939753L685.1002689932027,263.7235405443338L677.7183734462271,264.10763708381376L677.5647258530374,261.3977587449434M716.7629110703925,256.1073293261053L717.2856913566088,260.1996977742191L715.1591418256478,260.54126713539733L714.2234964414215,261.75738385773195L712.6077636544674,261.9450109064036L712.7496622617748,263.04169401496654L711.1413243622565,263.21799464371793L710.4056042566162,261.6276720376841L709.9604533484986,257.4974387809866M677.7183734462271,264.10763708381376L677.8905578047346,267.1327641594477L676.2820764718616,266.51171462226364L672.509002973695,267.0461890770056M724.1053453082894,255.1819835555316L724.0421709386551,257.55388191104817L724.1389459596853,259.839452121716L723.3557962355409,261.1923661805938L717.4836407937597,261.7600637412953L717.2856913566088,260.1996977742191M711.1413243622565,263.21799464371793L711.3419853335366,264.84748313258046L705.9673955302785,265.3576678903829L704.5132123289762,264.6228847496361L704.3823387871071,262.9568378787159L703.3633195320936,263.0301529973402M695.5883813773667,263.6381667265757L695.3800846697474,266.420140270066L689.4261880875425,266.9043161718L688.7245376672531,263.34290286675025L689.2052937891405,261.31977217096494M689.4261880875425,266.9043161718L689.5998642447042,269.1070308288821L683.8894729856363,269.4577734448055L683.8385885547362,268.3984222688566L684.6691654376666,268.3723106784212L685.1002689932027,263.7235405443338M683.8385885547362,268.3984222688566L681.177885992928,267.79928025119216L677.9194010176616,267.6862823220216L677.8905578047346,267.1327641594477M672.5146000664643,273.2847022892338L672.5704933829809,273.7012109627867L667.8159702198026,274.29430697659234L667.4691446749912,271.31737751927255L667.0731411766762,267.7511918781513M717.4836407937597,261.7600637412953L716.4060251130029,261.8965956536964L716.800571950415,264.92752514486426L717.6006646194818,266.74058620143387L713.3564931461003,267.7557078584281L711.3419853335366,264.84748313258046M700.1057802353972,263.17499411064273L700.2287677928005,264.93077929074616L701.2849517508637,264.85877821324027L702.0875362054455,268.1340753282865L700.4607182755526,268.2431165100993L700.5111549546547,269.3538653309797L698.7838540089265,269.49038808625255L697.3147959414307,270.7274653693238L695.7232347646961,270.8059960357251L695.3800846697474,266.420140270066M705.9673955302785,265.3576678903829L706.8325122531426,266.11200255650135L706.9835070486824,269.4028984476189L705.392549933347,269.52870205065426L702.1683830996928,269.2313641885215L702.0875362054455,268.1340753282865M677.9194010176616,267.6862823220216L677.3967138563522,267.98385629318796L677.7103082292532,272.8906122816288L674.1283507780641,273.11672773673456L672.5146000664643,273.2847022892338L671.6824469190835,267.1695182918626M723.3557962355409,261.1923661805938L723.5936623621709,263.6008648997803L722.373464863054,265.96841382872606L721.2370619080218,267.42486739285584L721.1723117427097,266.82102266872585L717.6006646194818,266.74058620143387M683.8894729856363,269.4577734448055L684.0577193285396,272.60332252294506L679.6708530978353,272.80907024259113L677.7103082292532,272.8906122816288M697.3147959414307,270.7274653693238L697.4088236047328,272.35440046108886L693.7382273535388,272.6408577480365L693.8728884381305,272.1163405309742L689.8484920528183,272.48192089826046L689.5998642447042,269.1070308288821M713.3564931461003,267.7557078584281L711.591204740653,268.12974537520245L711.9562696004984,269.9926476646755L710.121190732403,270.8530455305229L707.1170330035045,271.11201802741493L706.9835070486824,269.4028984476189M674.1283507780641,273.11672773673456L674.6888595840906,273.7730440611574L674.9859095293767,278.6563122178368L668.3303356469128,279.2136129300859L667.9067349451074,275.1492396216677L667.8159702198026,274.29430697659234M689.8484920528183,272.48192089826046L688.6925479934952,275.2791858976509L685.6007973300784,275.6632327715803L685.3967688850462,272.5362061578867L684.0577193285396,272.60332252294506M705.392549933347,269.52870205065426L705.5226084365436,271.2279520563163L703.9070216784114,271.33893085718773L704.01547293693,273.01258675776023L700.8047138072493,273.25412325824755L700.829149623392,273.7518694614796L697.5596032466319,274.2403200151658L697.4088236047328,272.35440046108886M721.2370619080218,267.42486739285584L720.3141648920798,269.1323309819559L717.1290974004278,271.84367828267204L715.9467120173315,270.74783403830065L714.5420542566786,272.2168908652163L714.4841539084622,273.70613423874545L712.9778626553461,273.8189136945465L712.4703205666946,274.9651998650886L712.3699186147429,273.95819558244546L710.3687613078555,273.3338816112557L710.121190732403,270.8530455305229M679.6708530978353,272.80907024259113L679.9946583408012,278.73743452406757L676.3668510822804,278.89371033209704L674.9859095293767,278.6563122178368M685.6007973300784,275.6632327715803L683.1280329905408,278.1932801718186L682.0174737126621,278.62630665773656L680.2366693702093,278.7250861224429L679.9946583408012,278.73743452406757M712.4703205666946,274.9651998650886L712.1279142489519,275.6950042733149L704.8050053760454,276.3362251236898L704.01547293693,273.01258675776023M697.5596032466319,274.2403200151658L697.7807251143854,277.2597468590885L697.5568304990805,278.03557476806714L689.4170675302073,278.6029806917894L688.6925479934952,275.2791858976509M704.8050053760454,276.3362251236898L704.2605155361192,276.3815604347035L704.5122871338081,279.73338403786215L702.8894355470904,279.825327991451L702.7670656302998,277.8876082241288L701.0671905411417,277.31156416145814L697.7807251143854,277.2597468590885M689.4170675302073,278.6029806917894L689.3183324607655,281.32387070685286L685.3090595848212,282.513930007099L682.4680026956722,282.86512407657267L682.0174737126621,278.62630665773656M676.3668510822804,278.89371033209704L676.0908999826731,283.66193464856224L673.2617048987687,282.61374493439655L671.6355403599806,283.20310668983245L669.7532862384593,282.0410967732704L668.762142200546,282.955135487333L668.3303356469128,279.2136129300859M680.2366693702093,278.7250861224429L680.4853489658508,287.8693954217381L677.8126952102626,287.1388820460959L677.6818375051741,286.2549398073395L676.0908999826731,283.66193464856224M685.3090595848212,282.513930007099L685.7801874923241,289.73422189780104L682.6189303721043,287.6613851211637L680.4853489658508,287.8693954217381M702.8894355470904,279.825327991451L703.1189287479806,283.42171440738355L701.3993968482207,283.66937409055447L700.3275156910499,283.73338078573454L698.7354796249317,283.84707154431294L697.8269028860993,282.20085413343077L697.5568304990805,278.03557476806714M712.1279142489519,275.6950042733149L712.485008886649,277.2317190998716L712.4715691857368,280.5308668778896L710.8158829187121,281.6477747144129L710.7553929751388,280.543640106677L709.0673514436413,279.0531946280272L707.8769341876225,280.491542156744L707.8111314226645,279.72626143794184L704.5122871338081,279.73338403786215M697.8269028860993,282.20085413343077L692.0265522776566,282.76755346806794L691.0474565449341,281.84098342439404L689.3183324607655,281.32387070685286M691.0474565449341,281.84098342439404L692.0994038664603,289.2600987555321L688.3554658343953,288.2054420487847L686.6462193070579,289.638649824567L685.7801874923241,289.73422189780104M707.8769341876225,280.491542156744L707.5737573940979,282.90402646847485L706.6342469108445,283.9854104563366L707.7712434467576,287.3200666701499L707.2314918319641,287.64470860162066L706.2238247818103,287.96244490545905L705.1489820890073,288.0710959430219L705.0064824386697,286.36004244201035L703.3068779795005,286.4828928285219L702.907968104324,284.8302244676647L701.4755742470438,284.9035930954491L701.3993968482207,283.66937409055447M700.3275156910499,283.73338078573454L699.6981128021285,288.6204565284828L698.6877705989108,289.26309416969343L697.1790039318726,285.9817547997085L695.2112657613129,286.79741370489774L693.6871560911513,289.0421024748613L692.0994038664603,289.2600987555321M706.2238247818103,287.96244490545905L706.0955351709224,290.5143221304678L703.562504725625,291.60347231880417L702.2332514474759,291.6025292816529L701.012767626823,290.1753073361999L698.6877705989108,289.26309416969343" vector-effect="non-scaling-stroke"></path></svg>