<?xml version="1.0" standalone="yes"?>
<svg xmlns="http://www.w3.org/2000/svg" version="1.2" id="root" viewBox="396.99884682201895 320.651369901421 142.95309213432404 82.20538291384344"><style>
@import url("../../css/svg.css");</style><rect id="bbox" class="bbox" x="396.99884682201895" y="320.651369901421" width="142.95309213432404" height="82.20538291384344"></rect><g id="counties"><path id="county-40105" class="county feature" d="M515.7127374877144,332.08141135092103L517.4093076017689,332.07186370834825L517.06045961271,333.13952490180395L517.0993758876479,339.64853113267L511.4811118778945,339.67296559226133L511.4681364557037,333.18006159518904L511.81059121468445,332.0955902348893Z" style="fill: inherit; stroke: inherit; stroke-width: inherit;" vector-effect="non-scaling-stroke"><title>Nowata County</title></path><path id="county-40113" class="county feature" d="M508.6506817365966,332.10722736974526L508.6452641561277,342.9517971337335L508.63448832965275,347.89823817609874L504.650913847076,347.8794141934336L504.87383644036737,346.7176399201877L503.3800865648336,346.4789661979271L501.4827619513764,344.60240895428365L500.4571441413277,345.2783251458533L499.2420789315978,342.89614405447924L497.9787603157665,342.5053915304127L497.2333070024355,340.2341351398517L495.617040474644,342.00860200213606L493.64347364795526,341.3023891439035L495.1168978217018,339.59561631604504L493.01606105259566,339.64276271920073L492.89145464422,337.91456166237333L494.79172614757,337.9699843984215L495.49041207291714,336.7056145278027L497.51094824580485,336.1518326450886L497.5857546128199,332.06152148331034L500.89933181136274,332.0888142609733Z" style="fill: inherit; stroke: inherit; stroke-width: inherit;" vector-effect="non-scaling-stroke"><title>Osage County</title></path><path id="county-40151" class="county feature" d="M464.35044415153834,331.3966716104403L471.0752761664056,331.6060661946243L470.9704442523056,341.70410372415006L469.8067769145896,343.03308780559416L467.2687612312313,341.86800853010993L466.3827370355608,340.7638322019865L464.6494067839479,340.698732925335L464.4531839236163,338.9519408016173L462.15431660030464,335.4084856171464L459.87713332611986,334.64227439789863L457.6209789156454,331.16801991514797Z" style="fill: inherit; stroke: inherit; stroke-width: inherit;" vector-effect="non-scaling-stroke"><title>Woods County</title></path><path id="county-40035" class="county feature" d="M522.3451352854457,332.0273625883367L523.3206359371601,332.0185273983874L523.5025315350736,338.2173227844095L523.4384001355216,341.25123217665146L518.6514839214256,341.28407080482236L518.6291884720106,339.6385555687159L517.0993758876479,339.64853113267L517.06045961271,333.13952490180395L517.4093076017689,332.07186370834825Z" style="fill: inherit; stroke: inherit; stroke-width: inherit;" vector-effect="non-scaling-stroke"><title>Craig County</title></path><path id="county-40147" class="county feature" d="M511.81059121468445,332.0955902348893L511.4681364557037,333.18006159518904L511.4811118778945,339.67296559226133L511.450262766033,342.95107169782875L508.6452641561277,342.9517971337335L508.6506817365966,332.10722736974526L509.18617175161313,332.10307752967253Z" style="fill: inherit; stroke: inherit; stroke-width: inherit;" vector-effect="non-scaling-stroke"><title>Washington County</title></path><path id="county-40053" class="county feature" d="M487.0621645309567,331.94412346938987L486.93934077818204,339.5805584301356L477.40430362002485,339.4026124732019L477.46717850459527,331.77483839235265L482.0366997342254,331.85780473480156Z" style="fill: inherit; stroke: inherit; stroke-width: inherit;" vector-effect="non-scaling-stroke"><title>Grant County</title></path><path id="county-40003" class="county feature" d="M473.990082142879,331.692242576496L477.46717850459527,331.77483839235265L477.40430362002485,339.4026124732019L477.34983704614683,341.8618227940517L470.9704442523056,341.70410372415006L471.0752761664056,331.6060661946243Z" style="fill: inherit; stroke: inherit; stroke-width: inherit;" vector-effect="non-scaling-stroke"><title>Alfalfa County</title></path><path id="county-40071" class="county feature" d="M497.5857546128199,332.06152148331034L497.51094824580485,336.1518326450886L495.49041207291714,336.7056145278027L494.79172614757,337.9699843984215L492.89145464422,337.91456166237333L493.01606105259566,339.64276271920073L486.95533113674486,339.580804423788L486.93934077818204,339.5805584301356L487.0621645309567,331.94412346938987L491.7062693769227,332.0018155362394Z" style="fill: inherit; stroke: inherit; stroke-width: inherit;" vector-effect="non-scaling-stroke"><title>Kay County</title></path><path id="county-40115" class="county feature" d="M529.0728530058278,331.9578135989741L529.125935680019,336.33996035912605L529.1636064720574,338.1990367353353L523.5025315350736,338.2173227844095L523.3206359371601,332.0185273983874Z" style="fill: inherit; stroke: inherit; stroke-width: inherit;" vector-effect="non-scaling-stroke"><title>Ottawa County</title></path><path id="county-40059" class="county feature" d="M456.3654038486766,331.1187404802572L457.6209789156454,331.16801991514797L459.87713332611986,334.64227439789863L459.73046026843986,338.871026014721L455.12080425015745,338.74819159561457L449.22466832884413,338.5039485496428L449.5542294725051,330.80977209849175Z" style="fill: inherit; stroke: inherit; stroke-width: inherit;" vector-effect="non-scaling-stroke"><title>Harper County</title></path><path id="county-40025" class="county feature" d="M419.45760267121017,329.37098136900886L419.6687526442471,329.3925266392672L419.01087150905255,338.6565361731972L417.08777969854003,338.53704901891433L404.62301173584956,337.6713744571797L405.3218467189446,328.2755348152516Z" style="fill: inherit; stroke: inherit; stroke-width: inherit;" vector-effect="non-scaling-stroke"><title>Cimarron County</title></path><path id="county-40139" class="county feature" d="M435.6337003972605,330.214796666546L435.0219253122339,339.6002448525114L433.0760961999088,339.5044793881458L425.07224721650994,339.04799323222744L419.01087150905255,338.6565361731972L419.6687526442471,329.3925266392672L426.6413463970389,329.77634417952083L433.8488896154513,330.1308373085269Z" style="fill: inherit; stroke: inherit; stroke-width: inherit;" vector-effect="non-scaling-stroke"><title>Texas County</title></path><path id="county-40007" class="county feature" d="M448.272816803746,330.7450502278732L449.5542294725051,330.80977209849175L449.22466832884413,338.5039485496428L449.13443404004863,340.2648097494001L441.0827248977261,339.9094912906379L435.0219253122339,339.6002448525114L435.6337003972605,330.214796666546L440.24734428328117,330.41605547331415Z" style="fill: inherit; stroke: inherit; stroke-width: inherit;" vector-effect="non-scaling-stroke"><title>Beaver County</title></path><path id="county-40153" class="county feature" d="M464.6494067839479,340.698732925335L464.5163363372015,347.207730866118L458.1469171444677,346.94259423024573L454.95893095516044,346.82955710434874L455.12080425015745,338.74819159561457L459.73046026843986,338.871026014721L459.87713332611986,334.64227439789863L462.15431660030464,335.4084856171464L464.4531839236163,338.9519408016173Z" style="fill: inherit; stroke: inherit; stroke-width: inherit;" vector-effect="non-scaling-stroke"><title>Woodward County</title></path><path id="county-40041" class="county feature" d="M529.1636064720574,338.1990367353353L529.2097963176882,341.3755670122745L530.1225004019883,347.72385557202574L526.6272914648805,347.78353404619816L523.4265787738925,347.8113210598018L523.4384001355216,341.25123217665146L523.5025315350736,338.2173227844095Z" style="fill: inherit; stroke: inherit; stroke-width: inherit;" vector-effect="non-scaling-stroke"><title>Delaware County</title></path><path id="county-40103" class="county feature" d="M493.64347364795526,341.3023891439035L493.2770598907971,344.57148791740144L494.87641048897547,344.5879550891102L494.8604676007243,346.22622707532094L491.6366538436429,346.19220213502444L491.6115653105837,347.83536065644955L488.4323352314069,347.79564611871535L486.8416449813578,347.6708261633519L486.95533113674486,339.580804423788L493.01606105259566,339.64276271920073L495.1168978217018,339.59561631604504Z" style="fill: inherit; stroke: inherit; stroke-width: inherit;" vector-effect="non-scaling-stroke"><title>Noble County</title></path><path id="county-40131" class="county feature" d="M518.6514839214256,341.28407080482236L517.0558607962616,341.2964767992519L517.0347914480617,349.4955742791707L515.070251632223,349.5047791058598L514.3604816387708,347.8604700385272L512.2159183621741,347.86644823925803L511.417069686372,347.8692366741759L511.450262766033,342.95107169782875L511.4811118778945,339.67296559226133L517.0993758876479,339.64853113267L518.6291884720106,339.6385555687159Z" style="fill: inherit; stroke: inherit; stroke-width: inherit;" vector-effect="non-scaling-stroke"><title>Rogers County</title></path><path id="county-40047" class="county feature" d="M486.93934077818204,339.5805584301356L486.95533113674486,339.580804423788L486.8416449813578,347.6708261633519L483.6307327472901,347.6137891406961L477.23607397362446,347.48256902437004L477.34983704614683,341.8618227940517L477.40430362002485,339.4026124732019Z" style="fill: inherit; stroke: inherit; stroke-width: inherit;" vector-effect="non-scaling-stroke"><title>Garfield County</title></path><path id="county-40045" class="county feature" d="M455.12080425015745,338.74819159561457L454.95893095516044,346.82955710434874L458.1469171444677,346.94259423024573L458.06687414690504,349.79469870575974L456.84774261706923,349.91085812602375L455.2721356983509,352.5007980722436L454.37908029201935,352.8955718893451L452.0456868259993,351.950679089553L451.5901457957844,349.7490364556726L448.6965990272064,351.92907272478476L448.835521011234,348.6305477587249L449.13443404004863,340.2648097494001L449.22466832884413,338.5039485496428Z" style="fill: inherit; stroke: inherit; stroke-width: inherit;" vector-effect="non-scaling-stroke"><title>Ellis County</title></path><path id="county-40117" class="county feature" d="M504.650913847076,347.8794141934336L504.20592882393106,347.87302517941805L499.375026211785,347.89318745394905L496.42071612183713,347.88699239153595L496.4349092911712,346.24067468921226L494.8604676007243,346.22622707532094L494.87641048897547,344.5879550891102L493.2770598907971,344.57148791740144L493.64347364795526,341.3023891439035L495.617040474644,342.00860200213606L497.2333070024355,340.2341351398517L497.9787603157665,342.5053915304127L499.2420789315978,342.89614405447924L500.4571441413277,345.2783251458533L501.4827619513764,344.60240895428365L503.3800865648336,346.4789661979271L504.87383644036737,346.7176399201877Z" style="fill: inherit; stroke: inherit; stroke-width: inherit;" vector-effect="non-scaling-stroke"><title>Pawnee County</title></path><path id="county-40097" class="county feature" d="M523.4384001355216,341.25123217665146L523.4265787738925,347.8113210598018L521.8289691233425,347.8310895469259L521.8495786808294,349.47423773227626L520.5076603250902,349.48099421766995L517.0347914480617,349.4955742791707L517.0558607962616,341.2964767992519L518.6514839214256,341.28407080482236Z" style="fill: inherit; stroke: inherit; stroke-width: inherit;" vector-effect="non-scaling-stroke"><title>Mayes County</title></path><path id="county-40093" class="county feature" d="M470.9704442523056,341.70410372415006L477.34983704614683,341.8618227940517L477.23607397362446,347.48256902437004L475.6441858008675,347.4464307434622L469.27706847543635,347.28402368629065L464.5163363372015,347.207730866118L464.6494067839479,340.698732925335L466.3827370355608,340.7638322019865L467.2687612312313,341.86800853010993L469.8067769145896,343.03308780559416Z" style="fill: inherit; stroke: inherit; stroke-width: inherit;" vector-effect="non-scaling-stroke"><title>Major County</title></path><path id="county-40143" class="county feature" d="M511.450262766033,342.95107169782875L511.417069686372,347.8692366741759L512.2159183621741,347.86644823925803L512.2282768437137,352.8010656035045L511.358316412467,353.6523426123754L508.1660452867831,353.6365879916094L508.2157819577677,349.51916304922577L504.2115462888521,349.5041704488251L504.20592882393106,347.87302517941805L504.650913847076,347.8794141934336L508.63448832965275,347.89823817609874L508.6452641561277,342.9517971337335Z" style="fill: inherit; stroke: inherit; stroke-width: inherit;" vector-effect="non-scaling-stroke"><title>Tulsa County</title></path><path id="county-40119" class="county feature" d="M499.375026211785,347.89318745394905L499.34809651887645,352.0107372773557L491.5731533425195,351.9295457879848L488.39095758994443,351.0767821700431L488.4323352314069,347.79564611871535L491.6115653105837,347.83536065644955L491.6366538436429,346.19220213502444L494.8604676007243,346.22622707532094L496.4349092911712,346.24067468921226L496.42071612183713,347.88699239153595Z" style="fill: inherit; stroke: inherit; stroke-width: inherit;" vector-effect="non-scaling-stroke"><title>Payne County</title></path><path id="county-40073" class="county feature" d="M483.6307327472901,347.6137891406961L483.5119002307321,355.88216938447283L475.50531519179896,355.73487838784354L475.6441858008675,347.4464307434622L477.23607397362446,347.48256902437004Z" style="fill: inherit; stroke: inherit; stroke-width: inherit;" vector-effect="non-scaling-stroke"><title>Kingfisher County</title></path><path id="county-40083" class="county feature" d="M486.8416449813578,347.6708261633519L488.4323352314069,347.79564611871535L488.39095758994443,351.0767821700431L491.5731533425195,351.9295457879848L491.5185234365621,356.03212846249653L483.5119002307321,355.88216938447283L483.6307327472901,347.6137891406961Z" style="fill: inherit; stroke: inherit; stroke-width: inherit;" vector-effect="non-scaling-stroke"><title>Logan County</title></path><path id="county-40011" class="county feature" d="M475.6441858008675,347.4464307434622L475.50531519179896,355.73487838784354L473.90951401389214,355.6989488469562L473.82997441888625,358.966362295547L469.1671511404728,358.8432258436658L469.1681504047427,353.9270223135661L469.27706847543635,347.28402368629065Z" style="fill: inherit; stroke: inherit; stroke-width: inherit;" vector-effect="non-scaling-stroke"><title>Blaine County</title></path><path id="county-40043" class="county feature" d="M469.1681504047427,353.9270223135661L458.01306484149285,353.57840687733074L458.06687414690504,349.79469870575974L458.1469171444677,346.94259423024573L464.5163363372015,347.207730866118L469.27706847543635,347.28402368629065Z" style="fill: inherit; stroke: inherit; stroke-width: inherit;" vector-effect="non-scaling-stroke"><title>Dewey County</title></path><path id="county-40037" class="county feature" d="M504.20592882393106,347.87302517941805L504.2115462888521,349.5041704488251L508.2157819577677,349.51916304922577L508.1660452867831,353.6365879916094L505.77591414639267,353.62970599841583L505.76220332243105,357.737472461675L499.3270122825591,357.71095447439325L499.34809651887645,352.0107372773557L499.375026211785,347.89318745394905Z" style="fill: inherit; stroke: inherit; stroke-width: inherit;" vector-effect="non-scaling-stroke"><title>Creek County</title></path><path id="county-40145" class="county feature" d="M517.0347914480617,349.4955742791707L520.5076603250902,349.48099421766995L519.4063036458193,351.4883514978603L520.2059993836169,353.32568585815693L519.6815636058376,354.41508655660095L514.0653202117006,354.8624749423402L513.9045295549095,353.62803959640326L512.1657825736776,353.64147459563515L511.358316412467,353.6523426123754L512.2282768437137,352.8010656035045L512.2159183621741,347.86644823925803L514.3604816387708,347.8604700385272L515.070251632223,349.5047791058598Z" style="fill: inherit; stroke: inherit; stroke-width: inherit;" vector-effect="non-scaling-stroke"><title>Wagoner County</title></path><path id="county-40021" class="county feature" d="M523.4265787738925,347.8113210598018L526.6272914648805,347.78353404619816L526.5954230841605,357.63701186462686L521.7853823191904,357.68319468544314L521.7606944639718,354.4076282472437L519.6815636058376,354.41508655660095L520.2059993836169,353.32568585815693L519.4063036458193,351.4883514978603L520.5076603250902,349.48099421766995L521.8495786808294,349.47423773227626L521.8289691233425,347.8310895469259Z" style="fill: inherit; stroke: inherit; stroke-width: inherit;" vector-effect="non-scaling-stroke"><title>Cherokee County</title></path><path id="county-40001" class="county feature" d="M530.1225004019883,347.72385557202574L530.3058239997844,348.84608582013254L531.2882076505489,355.29767173968787L531.6319390959065,357.5659582918006L526.5954230841605,357.63701186462686L526.6272914648805,347.78353404619816Z" style="fill: inherit; stroke: inherit; stroke-width: inherit;" vector-effect="non-scaling-stroke"><title>Adair County</title></path><path id="county-40129" class="county feature" d="M458.06687414690504,349.79469870575974L458.01306484149285,353.57840687733074L457.9830057783631,359.29790059818004L454.79987398924834,359.1806262049198L454.73264526307264,360.82286973874466L448.33332690011395,360.5545051145947L448.48932991288234,356.85041295093174L448.6965990272064,351.92907272478476L451.5901457957844,349.7490364556726L452.0456868259993,351.950679089553L454.37908029201935,352.8955718893451L455.2721356983509,352.5007980722436L456.84774261706923,349.91085812602375Z" style="fill: inherit; stroke: inherit; stroke-width: inherit;" vector-effect="non-scaling-stroke"><title>Roger Mills County</title></path><path id="county-40081" class="county feature" d="M499.34809651887645,352.0107372773557L499.3270122825591,357.71095447439325L499.2403912985458,361.0322885507437L491.45423188883007,360.9366645809537L491.5185234365621,356.03212846249653L491.5731533425195,351.9295457879848Z" style="fill: inherit; stroke: inherit; stroke-width: inherit;" vector-effect="non-scaling-stroke"><title>Lincoln County</title></path><path id="county-40111" class="county feature" d="M508.1660452867831,353.6365879916094L511.358316412467,353.6523426123754L512.1657825736776,353.64147459563515L512.1718366950203,356.1033719832129L512.9699957490667,356.12345583142076L512.9852249993342,359.37864740042573L511.33673625777664,359.3847037361369L510.53571387274184,362.68230589593236L508.94300839872125,362.68147986601207L507.33947144195963,362.6798875740591L507.3371064376565,359.37849733844814L505.75887300651664,359.38021653402757L505.76220332243105,357.737472461675L505.77591414639267,353.62970599841583Z" style="fill: inherit; stroke: inherit; stroke-width: inherit;" vector-effect="non-scaling-stroke"><title>Okmulgee County</title></path><path id="county-40101" class="county feature" d="M519.6815636058376,354.41508655660095L521.7606944639718,354.4076282472437L521.7853823191904,357.68319468544314L521.7291041739649,359.79819750174465L522.9853555854874,361.0635064092181L520.1037961408036,364.8207675753067L518.5642039735086,364.2250312231431L518.519788407606,359.35223362989075L512.9852249993342,359.37864740042573L512.9699957490667,356.12345583142076L512.1718366950203,356.1033719832129L512.1657825736776,353.64147459563515L513.9045295549095,353.62803959640326L514.0653202117006,354.8624749423402Z" style="fill: inherit; stroke: inherit; stroke-width: inherit;" vector-effect="non-scaling-stroke"><title>Muskogee County</title></path><path id="county-40039" class="county feature" d="M469.1681504047427,353.9270223135661L469.1671511404728,358.8432258436658L469.11630304653426,360.4891457563906L457.95395868853944,360.11819226661237L457.9830057783631,359.29790059818004L458.01306484149285,353.57840687733074Z" style="fill: inherit; stroke: inherit; stroke-width: inherit;" vector-effect="non-scaling-stroke"><title>Custer County</title></path><path id="county-40017" class="county feature" d="M483.5119002307321,355.88216938447283L483.4341105765932,362.451588862746L483.42076339264065,363.21046792513425L483.4204074732427,363.23070438699335L480.8453562020943,363.22763862799957L479.2896328668759,362.42028003950657L477.02687670376025,362.315471153413L473.852973784468,362.25106020325336L473.82997441888625,358.966362295547L473.90951401389214,355.6989488469562L475.50531519179896,355.73487838784354Z" style="fill: inherit; stroke: inherit; stroke-width: inherit;" vector-effect="non-scaling-stroke"><title>Canadian County</title></path><path id="county-40109" class="county feature" d="M491.5185234365621,356.03212846249653L491.45423188883007,360.9366645809537L491.4291031926138,362.57801393565614L483.4341105765932,362.451588862746L483.5119002307321,355.88216938447283Z" style="fill: inherit; stroke: inherit; stroke-width: inherit;" vector-effect="non-scaling-stroke"><title>Oklahoma County</title></path><path id="county-40135" class="county feature" d="M526.5954230841605,357.63701186462686L531.6319390959065,357.5659582918006L532.3277740425124,362.10366064112316L532.3166189124838,362.4125525478993L531.3869781117972,363.9214588600314L528.98777634414,364.1547806642777L527.6049710398541,362.94505106208544L526.577790844043,363.5776273687593L526.1494748149355,362.6872342979848L522.9853555854874,361.0635064092181L521.7291041739649,359.79819750174465L521.7853823191904,357.68319468544314Z" style="fill: inherit; stroke: inherit; stroke-width: inherit;" vector-effect="non-scaling-stroke"><title>Sequoyah County</title></path><path id="county-40107" class="county feature" d="M505.76220332243105,357.737472461675L505.75887300651664,359.38021653402757L507.3371064376565,359.37849733844814L507.33947144195963,362.6798875740591L508.94300839872125,362.68147986601207L508.94333122179944,364.31987082291585L501.98496030128945,364.30134877447745L502.0004786190568,360.96276030310753L500.5856054625063,362.38553300723436L499.24895337949823,362.2012886415854L499.2403912985458,361.0322885507437L499.3270122825591,357.71095447439325Z" style="fill: inherit; stroke: inherit; stroke-width: inherit;" vector-effect="non-scaling-stroke"><title>Okfuskee County</title></path><path id="county-40091" class="county feature" d="M518.5642039735086,364.2250312231431L516.8708610630837,364.0080183469199L514.7139247314461,365.585203350804L508.90581092498047,366.92549303961255L508.94333122179944,364.31987082291585L508.94300839872125,362.68147986601207L510.53571387274184,362.68230589593236L511.33673625777664,359.3847037361369L512.9852249993342,359.37864740042573L518.519788407606,359.35223362989075Z" style="fill: inherit; stroke: inherit; stroke-width: inherit;" vector-effect="non-scaling-stroke"><title>McIntosh County</title></path><path id="county-40015" class="county feature" d="M473.82997441888625,358.966362295547L473.852973784468,362.25106020325336L477.02687670376025,362.315471153413L476.8642212590055,372.16316055087805L468.8540518743983,371.96454962345695L468.95817124135783,367.3989308827714L469.11630304653426,360.4891457563906L469.1671511404728,358.8432258436658Z" style="fill: inherit; stroke: inherit; stroke-width: inherit;" vector-effect="non-scaling-stroke"><title>Caddo County</title></path><path id="county-40009" class="county feature" d="M457.9830057783631,359.29790059818004L457.95395868853944,360.11819226661237L457.77594048394633,366.6814906459148L457.03560804490945,366.6976353694299L451.3879258144305,366.4403119279069L451.31747300910996,368.07280957820524L449.718943649679,368.0052231913279L448.023390513073,367.9135485208701L448.14336832261506,365.0648287669893L448.33332690011395,360.5545051145947L454.73264526307264,360.82286973874466L454.79987398924834,359.1806262049198Z" style="fill: inherit; stroke: inherit; stroke-width: inherit;" vector-effect="non-scaling-stroke"><title>Beckham County</title></path><path id="county-40133" class="county feature" d="M501.98496030128945,364.30134877447745L501.9696980473924,367.58484803461704L501.23042511271046,367.58021010531456L501.2050206509602,371.4459072159991L497.5674141413075,372.4159601731774L496.881213982024,371.61740396222433L496.94334203872216,362.01326463527516L499.24895337949823,362.2012886415854L500.5856054625063,362.38553300723436L502.0004786190568,360.96276030310753Z" style="fill: inherit; stroke: inherit; stroke-width: inherit;" vector-effect="non-scaling-stroke"><title>Seminole County</title></path><path id="county-40149" class="county feature" d="M469.11630304653426,360.4891457563906L468.95817124135783,367.3989308827714L467.011880352032,366.98661002138954L457.77594048394633,366.6814906459148L457.95395868853944,360.11819226661237Z" style="fill: inherit; stroke: inherit; stroke-width: inherit;" vector-effect="non-scaling-stroke"><title>Washita County</title></path><path id="county-40125" class="county feature" d="M499.2403912985458,361.0322885507437L499.24895337949823,362.2012886415854L496.94334203872216,362.01326463527516L496.881213982024,371.61740396222433L494.5382403340029,370.38234545770445L493.2250685215961,371.4423137536637L491.31204885726294,370.96126978232667L491.4291031926138,362.57801393565614L491.45423188883007,360.9366645809537Z" style="fill: inherit; stroke: inherit; stroke-width: inherit;" vector-effect="non-scaling-stroke"><title>Pottawatomie County</title></path><path id="county-40061" class="county feature" d="M526.577790844043,363.5776273687593L526.5845294534612,365.8575823923212L524.8797690164207,365.88389697747004L524.9103127225785,368.5913454488075L518.5239590795522,368.64417469022294L518.5108372847811,366.72787132420433L516.908185532684,366.73491706623383L516.8708610630837,364.0080183469199L518.5642039735086,364.2250312231431L520.1037961408036,364.8207675753067L522.9853555854874,361.0635064092181L526.1494748149355,362.6872342979848Z" style="fill: inherit; stroke: inherit; stroke-width: inherit;" vector-effect="non-scaling-stroke"><title>Haskell County</title></path><path id="county-40079" class="county feature" d="M532.2211503353269,370.8317092958397L532.1858541980546,374.6929084222619L532.1441082438105,378.864988929887L524.8795116122124,378.97551921530805L524.8374267955526,375.7000607942193L522.9842830577492,375.7216074084862L522.9518252413059,372.44146742810904L523.8618990664986,370.8054011302189L524.9349641911987,370.77649549860837L524.9103127225785,368.5913454488075L524.8797690164207,365.88389697747004L526.5845294534612,365.8575823923212L526.577790844043,363.5776273687593L527.6049710398541,362.94505106208544L528.98777634414,364.1547806642777L531.3869781117972,363.9214588600314L532.3166189124838,362.4125525478993Z" style="fill: inherit; stroke: inherit; stroke-width: inherit;" vector-effect="non-scaling-stroke"><title>Le Flore County</title></path><path id="county-40051" class="county feature" d="M483.4204074732427,363.23070438699335L483.31022896332667,372.286658540094L483.2473313687692,375.5582682126304L476.83602155566155,375.4304828307829L476.8642212590055,372.16316055087805L477.02687670376025,362.315471153413L479.2896328668759,362.42028003950657L480.8453562020943,363.22763862799957Z" style="fill: inherit; stroke: inherit; stroke-width: inherit;" vector-effect="non-scaling-stroke"><title>Grady County</title></path><path id="county-40027" class="county feature" d="M491.4291031926138,362.57801393565614L491.31204885726294,370.96126978232667L488.3022607050781,370.30476392288836L487.9319561407455,368.0269108950039L483.42076339264065,363.21046792513425L483.4341105765932,362.451588862746Z" style="fill: inherit; stroke: inherit; stroke-width: inherit;" vector-effect="non-scaling-stroke"><title>Cleveland County</title></path><path id="county-40087" class="county feature" d="M491.31204885726294,370.96126978232667L493.2250685215961,371.4423137536637L494.5382403340029,370.38234545770445L494.4852484463613,372.4517188286653L483.31022896332667,372.286658540094L483.4204074732427,363.23070438699335L483.42076339264065,363.21046792513425L487.9319561407455,368.0269108950039L488.3022607050781,370.30476392288836Z" style="fill: inherit; stroke: inherit; stroke-width: inherit;" vector-effect="non-scaling-stroke"><title>McClain County</title></path><path id="county-40121" class="county feature" d="M516.8708610630837,364.0080183469199L516.908185532684,366.73491706623383L518.5108372847811,366.72787132420433L518.5239590795522,368.64417469022294L516.1278814123054,369.2221382577617L516.0524559315121,375.76652159224477L516.066290208595,377.4038970887183L513.6636741482524,377.42025144822765L510.4564832955312,377.433843029621L510.45445523510284,375.7974318994326L507.25632485898933,375.79583992808216L507.2633757507184,374.15626656748816L507.3120337615455,368.84324122513283L508.90581092498047,366.92549303961255L514.7139247314461,365.585203350804Z" style="fill: inherit; stroke: inherit; stroke-width: inherit;" vector-effect="non-scaling-stroke"><title>Pittsburg County</title></path><path id="county-40063" class="county feature" d="M508.94333122179944,364.31987082291585L508.90581092498047,366.92549303961255L507.3120337615455,368.84324122513283L507.2633757507184,374.15626656748816L502.47436520571927,374.14370939570904L502.4911582368729,371.4924433074815L501.2050206509602,371.4459072159991L501.23042511271046,367.58021010531456L501.9696980473924,367.58484803461704L501.98496030128945,364.30134877447745Z" style="fill: inherit; stroke: inherit; stroke-width: inherit;" vector-effect="non-scaling-stroke"><title>Hughes County</title></path><path id="county-40075" class="county feature" d="M468.95817124135783,367.3989308827714L468.8540518743983,371.96454962345695L465.7193101924604,371.8645969669353L465.57316319419743,376.77812825953424L462.9035563696306,376.6972737167107L461.37682973425194,375.8265795512458L462.17534315712635,374.65026418148784L460.7172327191463,374.59153787183936L460.8839350853267,371.8675252262457L459.31399641896263,372.28739233622275L458.4265054452692,371.58774249753856L458.07908700512337,368.4264093250938L457.03560804490945,366.6976353694299L457.77594048394633,366.6814906459148L467.011880352032,366.98661002138954Z" style="fill: inherit; stroke: inherit; stroke-width: inherit;" vector-effect="non-scaling-stroke"><title>Kiowa County</title></path><path id="county-40055" class="county feature" d="M457.03560804490945,366.6976353694299L458.07908700512337,368.4264093250938L458.4265054452692,371.58774249753856L459.31399641896263,372.28739233622275L456.9028905692447,372.37404964122607L456.5650079865897,374.0218439393958L452.85740597898354,373.8915934425863L452.07629830138455,373.03320587543897L452.0260521732686,369.7218307725054L449.6524869257365,369.62864845610056L449.718943649679,368.0052231913279L451.31747300910996,368.07280957820524L451.3879258144305,366.4403119279069Z" style="fill: inherit; stroke: inherit; stroke-width: inherit;" vector-effect="non-scaling-stroke"><title>Greer County</title></path><path id="county-40077" class="county feature" d="M524.9103127225785,368.5913454488075L524.9349641911987,370.77649549860837L523.8618990664986,370.8054011302189L522.9518252413059,372.44146742810904L522.9842830577492,375.7216074084862L516.0524559315121,375.76652159224477L516.1278814123054,369.2221382577617L518.5239590795522,368.64417469022294Z" style="fill: inherit; stroke: inherit; stroke-width: inherit;" vector-effect="non-scaling-stroke"><title>Latimer County</title></path><path id="county-40057" class="county feature" d="M449.718943649679,368.0052231913279L449.6524869257365,369.62864845610056L452.0260521732686,369.7218307725054L452.07629830138455,373.03320587543897L452.85740597898354,373.8915934425863L452.70008673400235,377.9673710084054L450.00513510391124,377.8932276250448L448.8374015573811,376.5570463786113L447.6941235467395,376.77254769447393L447.7976117184192,373.2743774507584L448.023390513073,367.9135485208701Z" style="fill: inherit; stroke: inherit; stroke-width: inherit;" vector-effect="non-scaling-stroke"><title>Harmon County</title></path><path id="county-40123" class="county feature" d="M496.881213982024,371.61740396222433L497.5674141413075,372.4159601731774L501.2050206509602,371.4459072159991L502.4911582368729,371.4924433074815L502.47436520571927,374.14370939570904L502.46731642097984,375.79136510276544L500.8545784901591,375.7866016419532L500.8149330916402,379.0742918755933L496.0262216393692,379.0273483862501L496.04051386200905,377.3860781463612L494.4504847718041,376.5511083979867L494.4852484463613,372.4517188286653L494.5382403340029,370.38234545770445Z" style="fill: inherit; stroke: inherit; stroke-width: inherit;" vector-effect="non-scaling-stroke"><title>Pontotoc County</title></path><path id="county-40065" class="county feature" d="M461.37682973425194,375.8265795512458L460.42708263032324,376.73633043166114L459.1847001221102,379.7653675343247L459.54527993900876,381.43782001784666L457.08575535040404,379.05890501813906L456.7072521679917,380.59144892552774L455.54682365172744,380.18421351335894L453.9550932561697,379.72947441030567L452.1727589548982,380.38775811815697L450.00513510391124,377.8932276250448L452.70008673400235,377.9673710084054L452.85740597898354,373.8915934425863L456.5650079865897,374.0218439393958L456.9028905692447,372.37404964122607L459.31399641896263,372.28739233622275L460.8839350853267,371.8675252262457L460.7172327191463,374.59153787183936L462.17534315712635,374.65026418148784Z" style="fill: inherit; stroke: inherit; stroke-width: inherit;" vector-effect="non-scaling-stroke"><title>Jackson County</title></path><path id="county-40031" class="county feature" d="M468.8540518743983,371.96454962345695L476.8642212590055,372.16316055087805L476.83602155566155,375.4304828307829L476.0434371185957,375.4168840293946L475.9640613396666,378.6956981686983L474.4084469299006,378.6567639517866L473.5877584196876,379.7316168337554L470.39762879722633,379.64496017129056L467.97393904321274,380.3963933989669L468.0219854384935,378.48581496439635L465.5244554816395,378.4157046222979L465.57316319419743,376.77812825953424L465.7193101924604,371.8645969669353Z" style="fill: inherit; stroke: inherit; stroke-width: inherit;" vector-effect="non-scaling-stroke"><title>Comanche County</title></path><path id="county-40049" class="county feature" d="M494.4852484463613,372.4517188286653L494.4504847718041,376.5511083979867L490.37773134104975,376.7694137574132L491.1938672842455,378.9671064806687L488.021709206003,378.9214022550668L484.8113014554834,378.8691433446602L484.8597629835115,375.588715242071L483.2473313687692,375.5582682126304L483.31022896332667,372.286658540094Z" style="fill: inherit; stroke: inherit; stroke-width: inherit;" vector-effect="non-scaling-stroke"><title>Garvin County</title></path><path id="county-40029" class="county feature" d="M507.2633757507184,374.15626656748816L507.25632485898933,375.79583992808216L507.2586202074202,379.0786456537501L506.44517475631653,380.7248935336755L502.43528050933764,380.7152658622L500.80620651142755,380.68815828993684L500.8149330916402,379.0742918755933L500.8545784901591,375.7866016419532L502.46731642097984,375.79136510276544L502.47436520571927,374.14370939570904Z" style="fill: inherit; stroke: inherit; stroke-width: inherit;" vector-effect="non-scaling-stroke"><title>Coal County</title></path><path id="county-40137" class="county feature" d="M483.2473313687692,375.5582682126304L484.8597629835115,375.588715242071L484.8113014554834,378.8691433446602L484.738410909287,382.96868728876314L475.91583678147,382.78572754065397L475.9640613396666,378.6956981686983L476.0434371185957,375.4168840293946L476.83602155566155,375.4304828307829Z" style="fill: inherit; stroke: inherit; stroke-width: inherit;" vector-effect="non-scaling-stroke"><title>Stephens County</title></path><path id="county-40005" class="county feature" d="M513.6636741482524,377.42025144822765L513.6748092878861,379.0585224874486L512.0255891063662,379.07339760725415L512.0463549947003,385.6534413544167L508.7824115596036,385.6553475911247L502.4087014824404,385.63284682142034L502.43528050933764,380.7152658622L506.44517475631653,380.7248935336755L507.2586202074202,379.0786456537501L507.25632485898933,375.79583992808216L510.45445523510284,375.7974318994326L510.4564832955312,377.433843029621Z" style="fill: inherit; stroke: inherit; stroke-width: inherit;" vector-effect="non-scaling-stroke"><title>Atoka County</title></path><path id="county-40127" class="county feature" d="M522.9842830577492,375.7216074084862L524.8374267955526,375.7000607942193L524.8795116122124,378.97551921530805L523.2138472079276,378.9861049106206L523.263615283705,383.94742388352745L521.6637493407397,383.95854920574493L521.5958007770049,385.5949167271258L512.0463549947003,385.6534413544167L512.0255891063662,379.07339760725415L513.6748092878861,379.0585224874486L513.6636741482524,377.42025144822765L516.066290208595,377.4038970887183L516.0524559315121,375.76652159224477Z" style="fill: inherit; stroke: inherit; stroke-width: inherit;" vector-effect="non-scaling-stroke"><title>Pushmataha County</title></path><path id="county-40099" class="county feature" d="M494.4504847718041,376.5511083979867L496.04051386200905,377.3860781463612L496.0262216393692,379.0273483862501L495.21529997370567,379.0220828117581L495.1796464110537,382.27683477392713L494.37785051625605,382.2752471989196L492.7338046901792,381.45126386039806L487.98675645027447,381.3783408693989L488.021709206003,378.9214022550668L491.1938672842455,378.9671064806687L490.37773134104975,376.7694137574132Z" style="fill: inherit; stroke: inherit; stroke-width: inherit;" vector-effect="non-scaling-stroke"><title>Murray County</title></path><path id="county-40141" class="county feature" d="M465.57316319419743,376.77812825953424L465.5244554816395,378.4157046222979L468.0219854384935,378.48581496439635L467.97393904321274,380.3963933989669L468.74279968140775,381.7781940051635L468.6405465392132,385.10075973961045L466.2469024670128,385.4223957863345L463.4242592788312,383.90536761458L459.81345430247575,383.7613704720907L459.54527993900876,381.43782001784666L459.1847001221102,379.7653675343247L460.42708263032324,376.73633043166114L461.37682973425194,375.8265795512458L462.9035563696306,376.6972737167107Z" style="fill: inherit; stroke: inherit; stroke-width: inherit;" vector-effect="non-scaling-stroke"><title>Tillman County</title></path><path id="county-40019" class="county feature" d="M488.021709206003,378.9214022550668L487.98675645027447,381.3783408693989L492.7338046901792,381.45126386039806L494.37785051625605,382.2752471989196L494.34825017210994,385.28887282836945L493.7619208444713,387.1976510761468L484.698494908235,387.0718923569565L484.738410909287,382.96868728876314L484.8113014554834,378.8691433446602Z" style="fill: inherit; stroke: inherit; stroke-width: inherit;" vector-effect="non-scaling-stroke"><title>Carter County</title></path><path id="county-40069" class="county feature" d="M496.0262216393692,379.0273483862501L500.8149330916402,379.0742918755933L500.80620651142755,380.68815828993684L502.43528050933764,380.7152658622L502.4087014824404,385.63284682142034L501.69482412214745,386.4373029289793L499.6792497790963,386.4252715627415L498.38176799661636,385.32796232661065L494.34825017210994,385.28887282836945L494.37785051625605,382.2752471989196L495.1796464110537,382.27683477392713L495.21529997370567,379.0220828117581Z" style="fill: inherit; stroke: inherit; stroke-width: inherit;" vector-effect="non-scaling-stroke"><title>Johnston County</title></path><path id="county-40033" class="county feature" d="M475.9640613396666,378.6956981686983L475.91583678147,382.78572754065397L475.87580805799564,385.5423989169211L475.3790272518741,386.0771458302879L472.40958733769946,385.1983999150019L471.4660574384825,386.5730813492056L470.49240351789365,386.92407073999505L468.6405465392132,385.10075973961045L468.74279968140775,381.7781940051635L467.97393904321274,380.3963933989669L470.39762879722633,379.64496017129056L473.5877584196876,379.7316168337554L474.4084469299006,378.6567639517866Z" style="fill: inherit; stroke: inherit; stroke-width: inherit;" vector-effect="non-scaling-stroke"><title>Cotton County</title></path><path id="county-40089" class="county feature" d="M532.1441082438105,378.864988929887L532.108867338889,384.8459387710325L532.0738658429459,389.5300966593694L532.0322285657359,395.2325879014338L527.9993124764135,394.0686822170193L527.5031456483965,392.9444031229673L526.2075339256347,393.3222576789085L524.5180276677402,391.123359129909L521.643646908921,389.74184445655374L521.5958007770049,385.5949167271258L521.6637493407397,383.95854920574493L523.263615283705,383.94742388352745L523.2138472079276,378.9861049106206L524.8795116122124,378.97551921530805Z" style="fill: inherit; stroke: inherit; stroke-width: inherit;" vector-effect="non-scaling-stroke"><title>McCurtain County</title></path><path id="county-40067" class="county feature" d="M484.738410909287,382.96868728876314L484.698494908235,387.0718923569565L484.63458679221026,390.29036148377804L482.72012775854375,388.61709875879467L479.87836579262074,391.1606576348937L478.2202812697815,390.36092011532014L478.7612545186047,388.49187946530776L476.6597816908286,388.21178774406087L475.87580805799564,385.5423989169211L475.91583678147,382.78572754065397Z" style="fill: inherit; stroke: inherit; stroke-width: inherit;" vector-effect="non-scaling-stroke"><title>Jefferson County</title></path><path id="county-40095" class="county feature" d="M499.6792497790963,386.4252715627415L500.2303151373786,387.31910781531394L499.060413758607,388.4085788865036L499.6041120334635,390.55470026414775L498.58487417392166,390.19330076962626L496.76172657459017,391.6783313426828L495.2841180853751,391.2734660800618L494.2858411342067,389.3952911257727L493.7619208444713,387.1976510761468L494.34825017210994,385.28887282836945L498.38176799661636,385.32796232661065Z" style="fill: inherit; stroke: inherit; stroke-width: inherit;" vector-effect="non-scaling-stroke"><title>Marshall County</title></path><path id="county-40013" class="county feature" d="M508.7824115596036,385.6553475911247L509.6084175970677,386.2524709726715L509.6160372624107,389.48387195088526L511.10854848866927,390.97381118508395L512.3515057701178,390.97625575144093L511.0211964385073,391.61565792814656L509.6499843644409,390.71883709434144L507.28550101783486,391.2894996029462L505.9007305679798,393.1044230871788L502.8111190099523,393.7531342122884L502.11802643616375,392.7923064302912L498.99035410865326,391.4997161687927L499.6041120334635,390.55470026414775L499.060413758607,388.4085788865036L500.2303151373786,387.31910781531394L499.6792497790963,386.4252715627415L501.69482412214745,386.4373029289793L502.4087014824404,385.63284682142034Z" style="fill: inherit; stroke: inherit; stroke-width: inherit;" vector-effect="non-scaling-stroke"><title>Bryan County</title></path><path id="county-40023" class="county feature" d="M521.5958007770049,385.5949167271258L521.643646908921,389.74184445655374L520.662690507497,389.2640847546671L519.2561107216004,390.8606787066209L515.559726476843,390.68167580603904L514.8210255649317,389.70567306003477L512.3515057701178,390.97625575144093L511.10854848866927,390.97381118508395L509.6160372624107,389.48387195088526L509.6084175970677,386.2524709726715L508.7824115596036,385.6553475911247L512.0463549947003,385.6534413544167Z" style="fill: inherit; stroke: inherit; stroke-width: inherit;" vector-effect="non-scaling-stroke"><title>Choctaw County</title></path><path id="county-40085" class="county feature" d="M493.7619208444713,387.1976510761468L494.2858411342067,389.3952911257727L494.1303456988383,389.49280312967653L491.78446698143296,392.38328753917085L491.5860077811759,393.75325483342965L490.1051931172094,392.22957511679977L490.40521924762396,390.3444852630158L488.50792069276247,390.5611226150137L487.5171108813676,391.85088053289235L486.1468165975049,391.4373047021678L485.8318410975988,390.0164309403742L484.63458679221026,390.29036148377804L484.698494908235,387.0718923569565Z" style="fill: inherit; stroke: inherit; stroke-width: inherit;" vector-effect="non-scaling-stroke"><title>Love County</title></path></g><path id="counties-mesh" class="counties mesh" d="M517.4093076017689,332.07186370834825L517.06045961271,333.13952490180395L517.0993758876479,339.64853113267L511.4811118778945,339.67296559226133L511.4681364557037,333.18006159518904L511.81059121468445,332.0955902348893M508.6506817365966,332.10722736974526L508.6452641561277,342.9517971337335L508.63448832965275,347.89823817609874L504.650913847076,347.8794141934336L504.87383644036737,346.7176399201877L503.3800865648336,346.4789661979271L501.4827619513764,344.60240895428365L500.4571441413277,345.2783251458533L499.2420789315978,342.89614405447924L497.9787603157665,342.5053915304127L497.2333070024355,340.2341351398517L495.617040474644,342.00860200213606L493.64347364795526,341.3023891439035L495.1168978217018,339.59561631604504L493.01606105259566,339.64276271920073L492.89145464422,337.91456166237333L494.79172614757,337.9699843984215L495.49041207291714,336.7056145278027L497.51094824580485,336.1518326450886L497.5857546128199,332.06152148331034M471.0752761664056,331.6060661946243L470.9704442523056,341.70410372415006L469.8067769145896,343.03308780559416L467.2687612312313,341.86800853010993L466.3827370355608,340.7638322019865L464.6494067839479,340.698732925335L464.4531839236163,338.9519408016173L462.15431660030464,335.4084856171464L459.87713332611986,334.64227439789863L457.6209789156454,331.16801991514797M523.3206359371601,332.0185273983874L523.5025315350736,338.2173227844095L523.4384001355216,341.25123217665146L518.6514839214256,341.28407080482236L518.6291884720106,339.6385555687159L517.0993758876479,339.64853113267M511.4811118778945,339.67296559226133L511.450262766033,342.95107169782875L508.6452641561277,342.9517971337335M487.0621645309567,331.94412346938987L486.93934077818204,339.5805584301356L477.40430362002485,339.4026124732019L477.46717850459527,331.77483839235265M477.40430362002485,339.4026124732019L477.34983704614683,341.8618227940517L470.9704442523056,341.70410372415006M493.01606105259566,339.64276271920073L486.95533113674486,339.580804423788L486.93934077818204,339.5805584301356M419.6687526442471,329.3925266392672L419.01087150905255,338.6565361731972L417.08777969854003,338.53704901891433L404.62301173584956,337.6713744571797L405.3218467189446,328.2755348152516L419.45760267121017,329.37098136900886L419.6687526442471,329.3925266392672L426.6413463970389,329.77634417952083L433.8488896154513,330.1308373085269L435.6337003972605,330.214796666546L440.24734428328117,330.41605547331415L448.272816803746,330.7450502278732L449.5542294725051,330.80977209849175L456.3654038486766,331.1187404802572L457.6209789156454,331.16801991514797L464.35044415153834,331.3966716104403L471.0752761664056,331.6060661946243L473.990082142879,331.692242576496L477.46717850459527,331.77483839235265L482.0366997342254,331.85780473480156L487.0621645309567,331.94412346938987L491.7062693769227,332.0018155362394L497.5857546128199,332.06152148331034L500.89933181136274,332.0888142609733L508.6506817365966,332.10722736974526L509.18617175161313,332.10307752967253L511.81059121468445,332.0955902348893L515.7127374877144,332.08141135092103L517.4093076017689,332.07186370834825L522.3451352854457,332.0273625883367L523.3206359371601,332.0185273983874L529.0728530058278,331.9578135989741L529.125935680019,336.33996035912605L529.1636064720574,338.1990367353353L523.5025315350736,338.2173227844095M459.87713332611986,334.64227439789863L459.73046026843986,338.871026014721L455.12080425015745,338.74819159561457L449.22466832884413,338.5039485496428L449.5542294725051,330.80977209849175M435.6337003972605,330.214796666546L435.0219253122339,339.6002448525114L433.0760961999088,339.5044793881458L425.07224721650994,339.04799323222744L419.01087150905255,338.6565361731972M449.22466832884413,338.5039485496428L449.13443404004863,340.2648097494001L441.0827248977261,339.9094912906379L435.0219253122339,339.6002448525114M464.6494067839479,340.698732925335L464.5163363372015,347.207730866118L458.1469171444677,346.94259423024573L454.95893095516044,346.82955710434874L455.12080425015745,338.74819159561457M529.1636064720574,338.1990367353353L529.2097963176882,341.3755670122745L530.1225004019883,347.72385557202574L526.6272914648805,347.78353404619816L523.4265787738925,347.8113210598018L523.4384001355216,341.25123217665146M493.64347364795526,341.3023891439035L493.2770598907971,344.57148791740144L494.87641048897547,344.5879550891102L494.8604676007243,346.22622707532094L491.6366538436429,346.19220213502444L491.6115653105837,347.83536065644955L488.4323352314069,347.79564611871535L486.8416449813578,347.6708261633519L486.95533113674486,339.580804423788M518.6514839214256,341.28407080482236L517.0558607962616,341.2964767992519L517.0347914480617,349.4955742791707L515.070251632223,349.5047791058598L514.3604816387708,347.8604700385272L512.2159183621741,347.86644823925803L511.417069686372,347.8692366741759L511.450262766033,342.95107169782875M486.8416449813578,347.6708261633519L483.6307327472901,347.6137891406961L477.23607397362446,347.48256902437004L477.34983704614683,341.8618227940517M458.1469171444677,346.94259423024573L458.06687414690504,349.79469870575974L456.84774261706923,349.91085812602375L455.2721356983509,352.5007980722436L454.37908029201935,352.8955718893451L452.0456868259993,351.950679089553L451.5901457957844,349.7490364556726L448.6965990272064,351.92907272478476L448.835521011234,348.6305477587249L449.13443404004863,340.2648097494001M504.650913847076,347.8794141934336L504.20592882393106,347.87302517941805L499.375026211785,347.89318745394905L496.42071612183713,347.88699239153595L496.4349092911712,346.24067468921226L494.8604676007243,346.22622707532094M523.4265787738925,347.8113210598018L521.8289691233425,347.8310895469259L521.8495786808294,349.47423773227626L520.5076603250902,349.48099421766995L517.0347914480617,349.4955742791707M477.23607397362446,347.48256902437004L475.6441858008675,347.4464307434622L469.27706847543635,347.28402368629065L464.5163363372015,347.207730866118M512.2159183621741,347.86644823925803L512.2282768437137,352.8010656035045L511.358316412467,353.6523426123754L508.1660452867831,353.6365879916094L508.2157819577677,349.51916304922577L504.2115462888521,349.5041704488251L504.20592882393106,347.87302517941805M499.375026211785,347.89318745394905L499.34809651887645,352.0107372773557L491.5731533425195,351.9295457879848L488.39095758994443,351.0767821700431L488.4323352314069,347.79564611871535M483.6307327472901,347.6137891406961L483.5119002307321,355.88216938447283L475.50531519179896,355.73487838784354L475.6441858008675,347.4464307434622M475.50531519179896,355.73487838784354L473.90951401389214,355.6989488469562L473.82997441888625,358.966362295547L469.1671511404728,358.8432258436658L469.1681504047427,353.9270223135661L469.27706847543635,347.28402368629065M469.1681504047427,353.9270223135661L458.01306484149285,353.57840687733074L458.06687414690504,349.79469870575974M508.1660452867831,353.6365879916094L505.77591414639267,353.62970599841583L505.76220332243105,357.737472461675L499.3270122825591,357.71095447439325L499.34809651887645,352.0107372773557M520.5076603250902,349.48099421766995L519.4063036458193,351.4883514978603L520.2059993836169,353.32568585815693L519.6815636058376,354.41508655660095L514.0653202117006,354.8624749423402L513.9045295549095,353.62803959640326L512.1657825736776,353.64147459563515L511.358316412467,353.6523426123754M526.6272914648805,347.78353404619816L526.5954230841605,357.63701186462686L521.7853823191904,357.68319468544314L521.7606944639718,354.4076282472437L519.6815636058376,354.41508655660095M530.1225004019883,347.72385557202574L530.3058239997844,348.84608582013254L531.2882076505489,355.29767173968787L531.6319390959065,357.5659582918006L526.5954230841605,357.63701186462686M458.01306484149285,353.57840687733074L457.9830057783631,359.29790059818004L454.79987398924834,359.1806262049198L454.73264526307264,360.82286973874466L448.33332690011395,360.5545051145947L448.48932991288234,356.85041295093174L448.6965990272064,351.92907272478476M499.3270122825591,357.71095447439325L499.2403912985458,361.0322885507437L491.45423188883007,360.9366645809537L491.5185234365621,356.03212846249653M512.1657825736776,353.64147459563515L512.1718366950203,356.1033719832129L512.9699957490667,356.12345583142076L512.9852249993342,359.37864740042573L511.33673625777664,359.3847037361369L510.53571387274184,362.68230589593236L508.94300839872125,362.68147986601207L507.33947144195963,362.6798875740591L507.3371064376565,359.37849733844814L505.75887300651664,359.38021653402757L505.76220332243105,357.737472461675M521.7853823191904,357.68319468544314L521.7291041739649,359.79819750174465L522.9853555854874,361.0635064092181L520.1037961408036,364.8207675753067L518.5642039735086,364.2250312231431L518.519788407606,359.35223362989075L512.9852249993342,359.37864740042573M469.1671511404728,358.8432258436658L469.11630304653426,360.4891457563906L457.95395868853944,360.11819226661237L457.9830057783631,359.29790059818004M491.5731533425195,351.9295457879848L491.5185234365621,356.03212846249653L483.5119002307321,355.88216938447283L483.4341105765932,362.451588862746L483.42076339264065,363.21046792513425L483.4204074732427,363.23070438699335L480.8453562020943,363.22763862799957L479.2896328668759,362.42028003950657L477.02687670376025,362.315471153413L473.852973784468,362.25106020325336L473.82997441888625,358.966362295547M491.45423188883007,360.9366645809537L491.4291031926138,362.57801393565614L483.4341105765932,362.451588862746M531.6319390959065,357.5659582918006L532.3277740425124,362.10366064112316L532.3166189124838,362.4125525478993L531.3869781117972,363.9214588600314L528.98777634414,364.1547806642777L527.6049710398541,362.94505106208544L526.577790844043,363.5776273687593L526.1494748149355,362.6872342979848L522.9853555854874,361.0635064092181M508.94300839872125,362.68147986601207L508.94333122179944,364.31987082291585L501.98496030128945,364.30134877447745L502.0004786190568,360.96276030310753L500.5856054625063,362.38553300723436L499.24895337949823,362.2012886415854L499.2403912985458,361.0322885507437M457.95395868853944,360.11819226661237L457.77594048394633,366.6814906459148L457.03560804490945,366.6976353694299L451.3879258144305,366.4403119279069L451.31747300910996,368.07280957820524L449.718943649679,368.0052231913279L448.023390513073,367.9135485208701L448.14336832261506,365.0648287669893L448.33332690011395,360.5545051145947M518.5642039735086,364.2250312231431L516.8708610630837,364.0080183469199L514.7139247314461,365.585203350804L508.90581092498047,366.92549303961255L508.94333122179944,364.31987082291585M477.02687670376025,362.315471153413L476.8642212590055,372.16316055087805L468.8540518743983,371.96454962345695L468.95817124135783,367.3989308827714L469.11630304653426,360.4891457563906M501.98496030128945,364.30134877447745L501.9696980473924,367.58484803461704L501.23042511271046,367.58021010531456L501.2050206509602,371.4459072159991L497.5674141413075,372.4159601731774L496.881213982024,371.61740396222433L496.94334203872216,362.01326463527516L499.24895337949823,362.2012886415854M468.95817124135783,367.3989308827714L467.011880352032,366.98661002138954L457.77594048394633,366.6814906459148M496.881213982024,371.61740396222433L494.5382403340029,370.38234545770445L493.2250685215961,371.4423137536637L491.31204885726294,370.96126978232667L491.4291031926138,362.57801393565614M526.577790844043,363.5776273687593L526.5845294534612,365.8575823923212L524.8797690164207,365.88389697747004L524.9103127225785,368.5913454488075L518.5239590795522,368.64417469022294L518.5108372847811,366.72787132420433L516.908185532684,366.73491706623383L516.8708610630837,364.0080183469199M532.3166189124838,362.4125525478993L532.2211503353269,370.8317092958397L532.1858541980546,374.6929084222619L532.1441082438105,378.864988929887L524.8795116122124,378.97551921530805L524.8374267955526,375.7000607942193L522.9842830577492,375.7216074084862L522.9518252413059,372.44146742810904L523.8618990664986,370.8054011302189L524.9349641911987,370.77649549860837L524.9103127225785,368.5913454488075M483.4204074732427,363.23070438699335L483.31022896332667,372.286658540094L483.2473313687692,375.5582682126304L476.83602155566155,375.4304828307829L476.8642212590055,372.16316055087805M491.31204885726294,370.96126978232667L488.3022607050781,370.30476392288836L487.9319561407455,368.0269108950039L483.42076339264065,363.21046792513425M494.5382403340029,370.38234545770445L494.4852484463613,372.4517188286653L483.31022896332667,372.286658540094M518.5239590795522,368.64417469022294L516.1278814123054,369.2221382577617L516.0524559315121,375.76652159224477L516.066290208595,377.4038970887183L513.6636741482524,377.42025144822765L510.4564832955312,377.433843029621L510.45445523510284,375.7974318994326L507.25632485898933,375.79583992808216L507.2633757507184,374.15626656748816L507.3120337615455,368.84324122513283L508.90581092498047,366.92549303961255M507.2633757507184,374.15626656748816L502.47436520571927,374.14370939570904L502.4911582368729,371.4924433074815L501.2050206509602,371.4459072159991M452.85740597898354,373.8915934425863L452.70008673400235,377.9673710084054L450.00513510391124,377.8932276250448L448.8374015573811,376.5570463786113L447.6941235467395,376.77254769447393L447.7976117184192,373.2743774507584L448.023390513073,367.9135485208701M468.8540518743983,371.96454962345695L465.7193101924604,371.8645969669353L465.57316319419743,376.77812825953424L462.9035563696306,376.6972737167107L461.37682973425194,375.8265795512458L462.17534315712635,374.65026418148784L460.7172327191463,374.59153787183936L460.8839350853267,371.8675252262457L459.31399641896263,372.28739233622275L458.4265054452692,371.58774249753856L458.07908700512337,368.4264093250938L457.03560804490945,366.6976353694299M459.31399641896263,372.28739233622275L456.9028905692447,372.37404964122607L456.5650079865897,374.0218439393958L452.85740597898354,373.8915934425863L452.07629830138455,373.03320587543897L452.0260521732686,369.7218307725054L449.6524869257365,369.62864845610056L449.718943649679,368.0052231913279M522.9842830577492,375.7216074084862L516.0524559315121,375.76652159224477M502.47436520571927,374.14370939570904L502.46731642097984,375.79136510276544L500.8545784901591,375.7866016419532L500.8149330916402,379.0742918755933L496.0262216393692,379.0273483862501L496.04051386200905,377.3860781463612L494.4504847718041,376.5511083979867L494.4852484463613,372.4517188286653M461.37682973425194,375.8265795512458L460.42708263032324,376.73633043166114L459.1847001221102,379.7653675343247L459.54527993900876,381.43782001784666L457.08575535040404,379.05890501813906L456.7072521679917,380.59144892552774L455.54682365172744,380.18421351335894L453.9550932561697,379.72947441030567L452.1727589548982,380.38775811815697L450.00513510391124,377.8932276250448M476.83602155566155,375.4304828307829L476.0434371185957,375.4168840293946L475.9640613396666,378.6956981686983L474.4084469299006,378.6567639517866L473.5877584196876,379.7316168337554L470.39762879722633,379.64496017129056L467.97393904321274,380.3963933989669L468.0219854384935,378.48581496439635L465.5244554816395,378.4157046222979L465.57316319419743,376.77812825953424M494.4504847718041,376.5511083979867L490.37773134104975,376.7694137574132L491.1938672842455,378.9671064806687L488.021709206003,378.9214022550668L484.8113014554834,378.8691433446602L484.8597629835115,375.588715242071L483.2473313687692,375.5582682126304M507.25632485898933,375.79583992808216L507.2586202074202,379.0786456537501L506.44517475631653,380.7248935336755L502.43528050933764,380.7152658622L500.80620651142755,380.68815828993684L500.8149330916402,379.0742918755933M484.8113014554834,378.8691433446602L484.738410909287,382.96868728876314L475.91583678147,382.78572754065397L475.9640613396666,378.6956981686983M513.6636741482524,377.42025144822765L513.6748092878861,379.0585224874486L512.0255891063662,379.07339760725415L512.0463549947003,385.6534413544167L508.7824115596036,385.6553475911247L502.4087014824404,385.63284682142034L502.43528050933764,380.7152658622M524.8795116122124,378.97551921530805L523.2138472079276,378.9861049106206L523.263615283705,383.94742388352745L521.6637493407397,383.95854920574493L521.5958007770049,385.5949167271258L512.0463549947003,385.6534413544167M496.0262216393692,379.0273483862501L495.21529997370567,379.0220828117581L495.1796464110537,382.27683477392713L494.37785051625605,382.2752471989196L492.7338046901792,381.45126386039806L487.98675645027447,381.3783408693989L488.021709206003,378.9214022550668M467.97393904321274,380.3963933989669L468.74279968140775,381.7781940051635L468.6405465392132,385.10075973961045L466.2469024670128,385.4223957863345L463.4242592788312,383.90536761458L459.81345430247575,383.7613704720907L459.54527993900876,381.43782001784666M494.37785051625605,382.2752471989196L494.34825017210994,385.28887282836945L493.7619208444713,387.1976510761468L484.698494908235,387.0718923569565L484.738410909287,382.96868728876314M502.4087014824404,385.63284682142034L501.69482412214745,386.4373029289793L499.6792497790963,386.4252715627415L498.38176799661636,385.32796232661065L494.34825017210994,385.28887282836945M475.91583678147,382.78572754065397L475.87580805799564,385.5423989169211L475.3790272518741,386.0771458302879L472.40958733769946,385.1983999150019L471.4660574384825,386.5730813492056L470.49240351789365,386.92407073999505L468.6405465392132,385.10075973961045M532.1441082438105,378.864988929887L532.108867338889,384.8459387710325L532.0738658429459,389.5300966593694L532.0322285657359,395.2325879014338L527.9993124764135,394.0686822170193L527.5031456483965,392.9444031229673L526.2075339256347,393.3222576789085L524.5180276677402,391.123359129909L521.643646908921,389.74184445655374L521.5958007770049,385.5949167271258M484.698494908235,387.0718923569565L484.63458679221026,390.29036148377804L482.72012775854375,388.61709875879467L479.87836579262074,391.1606576348937L478.2202812697815,390.36092011532014L478.7612545186047,388.49187946530776L476.6597816908286,388.21178774406087L475.87580805799564,385.5423989169211M499.6792497790963,386.4252715627415L500.2303151373786,387.31910781531394L499.060413758607,388.4085788865036L499.6041120334635,390.55470026414775L498.58487417392166,390.19330076962626L496.76172657459017,391.6783313426828L495.2841180853751,391.2734660800618L494.2858411342067,389.3952911257727L493.7619208444713,387.1976510761468M508.7824115596036,385.6553475911247L509.6084175970677,386.2524709726715L509.6160372624107,389.48387195088526L511.10854848866927,390.97381118508395L512.3515057701178,390.97625575144093L511.0211964385073,391.61565792814656L509.6499843644409,390.71883709434144L507.28550101783486,391.2894996029462L505.9007305679798,393.1044230871788L502.8111190099523,393.7531342122884L502.11802643616375,392.7923064302912L498.99035410865326,391.4997161687927L499.6041120334635,390.55470026414775M521.643646908921,389.74184445655374L520.662690507497,389.2640847546671L519.2561107216004,390.8606787066209L515.559726476843,390.68167580603904L514.8210255649317,389.70567306003477L512.3515057701178,390.97625575144093M494.2858411342067,389.3952911257727L494.1303456988383,389.49280312967653L491.78446698143296,392.38328753917085L491.5860077811759,393.75325483342965L490.1051931172094,392.22957511679977L490.40521924762396,390.3444852630158L488.50792069276247,390.5611226150137L487.5171108813676,391.85088053289235L486.1468165975049,391.4373047021678L485.8318410975988,390.0164309403742L484.63458679221026,390.29036148377804" style="fill: inherit; stroke: inherit; stroke-width: inherit;" vector-effect="non-scaling-stroke"></path></svg>