<?xml version="1.0" standalone="yes"?>
<svg xmlns="http://www.w3.org/2000/svg" version="1.2" id="root" viewBox="117.1936983430734 98.44235343230208 133.224578804882 114.60728034145004"><style>
@import url("../../css/svg.css");</style><rect id="bbox" class="bbox" x="117.1936983430734" y="98.44235343230208" width="133.224578804882" height="114.60728034145004"></rect><g id="counties"><path id="county-41007" class="county feature" d="M158.8076092469567,109.56118500259822L156.9287971804361,116.0374348572849L149.37730450376773,113.71032671402315L149.9565660718987,110.70474857381782L151.12098575701873,109.82133699082954L151.1469833741359,105.5476643018958L152.26141934736336,106.80690088220558L154.13333411663513,106.92806517359077L156.22351297755012,107.92142879740811L157.6393779048608,107.40244129058226Z" style="fill: inherit; stroke: inherit; stroke-width: inherit;" vector-effect="non-scaling-stroke"><title>Clatsop County</title></path><path id="county-41009" class="county feature" d="M164.49377571869968,116.87511129520806L164.14662435269207,119.1515996033711L162.02940143385962,118.65196888944706L161.04644793656928,117.25832543784259L156.9287971804361,116.0374348572849L158.8076092469567,109.56118500259822L160.85677270395132,109.55343838815031L162.07895655500755,109.66634003276818L164.22699689495954,112.27054117246678Z" style="fill: inherit; stroke: inherit; stroke-width: inherit;" vector-effect="non-scaling-stroke"><title>Columbia County</title></path><path id="county-41059" class="county feature" d="M225.43684711874567,129.97143714886954L225.68170476410643,130.03014429996404L225.14176061605536,132.58844253056031L222.57299964197364,135.281609551869L221.63561174934324,139.23681854194172L220.41789565267254,139.786007041713L217.4846085413282,139.04934335898065L217.17165721086684,140.39105912930233L213.68587039303293,139.74071347109793L213.57142895925557,142.56502015507726L214.96603405779234,142.90201706045696L214.43748589026632,146.63914125497377L206.17061471300264,144.61425893377145L206.79289141126816,143.09134138827665L208.7579617357519,135.2409656858897L207.45010787187834,134.9142379899058L207.8380069964644,133.36018571301474L205.47556307925566,132.75253534703836L206.94918059176456,127.05071385502742L210.86906340990288,127.75062490874052L212.9310550414511,126.97294676283059Z" style="fill: inherit; stroke: inherit; stroke-width: inherit;" vector-effect="non-scaling-stroke"><title>Umatilla County</title></path><path id="county-41063" class="county feature" d="M230.4146876286879,131.16965419238386L231.96415924823145,131.5475411808227L239.08988445400314,133.20793071669493L240.0676041385243,136.093940417647L242.78261180461055,138.67603183461154L243.31296627836167,141.42091252914383L241.70078901011186,143.14158334465344L239.07362893688742,147.12363308474698L237.06593304506322,150.29020745611035L230.86927101560008,148.86262221970208L231.21737856329327,147.31165531244892L228.522452246133,146.70553411056028L227.89303497771664,143.24246639957755L227.10803612501593,143.08347341308672L227.3462372282052,139.72541126423835L226.768620966563,136.24769009465012L228.00533619083518,133.25070042327047L225.14176061605536,132.58844253056031L225.68170476410643,130.03014429996404Z" style="fill: inherit; stroke: inherit; stroke-width: inherit;" vector-effect="non-scaling-stroke"><title>Wallowa County</title></path><path id="county-41049" class="county feature" d="M206.94918059176456,127.05071385502742L205.47556307925566,132.75253534703836L207.8380069964644,133.36018571301474L207.45010787187834,134.9142379899058L208.7579617357519,135.2409656858897L206.79289141126816,143.09134138827665L206.17061471300264,144.61425893377145L199.67258218019617,143.00794713156506L198.15067950660682,142.6156978144843L198.49820193127925,141.294665000053L199.3448651238105,139.58430767257528L197.78568938252715,139.14470258398762L198.2005321691857,137.58561921188743L196.6227199999921,137.15150465184786L199.30339692334013,127.1394884863513L201.06996678663222,127.14073051584398L203.66609371151236,127.4015186106102L205.2212610659251,126.47604626026202Z" style="fill: inherit; stroke: inherit; stroke-width: inherit;" vector-effect="non-scaling-stroke"><title>Morrow County</title></path><path id="county-41061" class="county feature" d="M230.86927101560008,148.86262221970208L227.05766859305987,148.01266621904472L226.6831375291781,149.5929678610745L223.93220942662907,148.96597269477047L222.8291916884628,147.42798745832533L221.1534148880475,148.27119259781603L219.62596746516914,146.93685319799624L217.79093518746618,148.16792322366211L214.43748589026632,146.63914125497377L214.96603405779234,142.90201706045696L213.57142895925557,142.56502015507726L213.68587039303293,139.74071347109793L217.17165721086684,140.39105912930233L217.4846085413282,139.04934335898065L220.41789565267254,139.786007041713L221.63561174934324,139.23681854194172L222.57299964197364,135.281609551869L225.14176061605536,132.58844253056031L228.00533619083518,133.25070042327047L226.768620966563,136.24769009465012L227.3462372282052,139.72541126423835L227.10803612501593,143.08347341308672L227.89303497771664,143.24246639957755L228.522452246133,146.70553411056028L231.21737856329327,147.31165531244892Z" style="fill: inherit; stroke: inherit; stroke-width: inherit;" vector-effect="non-scaling-stroke"><title>Union County</title></path><path id="county-41021" class="county feature" d="M198.49820193127925,141.294665000053L189.5086564333056,138.94412624402253L189.47668608846186,138.65736039838976L189.58140260883323,136.18752727851142L191.46160791149532,131.73799415683993L193.32076863619056,131.430011530373L193.09229020141856,129.71099097118974L190.70085395554668,126.33985636891828L192.6589729914919,127.67265485964617L196.1772022518362,128.0293932956704L199.30339692334013,127.1394884863513L196.6227199999921,137.15150465184786L198.2005321691857,137.58561921188743L197.78568938252715,139.14470258398762L199.3448651238105,139.58430767257528Z" style="fill: inherit; stroke: inherit; stroke-width: inherit;" vector-effect="non-scaling-stroke"><title>Gilliam County</title></path><path id="county-41057" class="county feature" d="M156.9287971804361,116.0374348572849L156.5525424648801,117.30812583715385L155.00583016653695,116.84067824322369L155.38607821745825,118.37411498454321L156.7842258794148,119.35077298548231L154.14515643312575,120.82100119803499L153.78799791188385,121.84098959469657L152.65233620170056,125.74376921881469L148.60551320918478,124.53750035845098L147.84353872276222,127.03653651199227L148.6121259502798,127.2717791931284L148.42158075953205,127.84057617488588L144.95769046041778,126.77713865645012L147.7737128015862,120.57529534858918L149.37730450376773,113.71032671402315Z" style="fill: inherit; stroke: inherit; stroke-width: inherit;" vector-effect="non-scaling-stroke"><title>Tillamook County</title></path><path id="county-41067" class="county feature" d="M162.02940143385962,118.65196888944706L161.5680387881065,120.23649449100242L163.293348962621,122.963404849016L162.85749769054564,124.50510341886354L162.32070306035064,126.32827321382945L160.6843609052512,126.13623796208685L157.92549257954147,123.07370200108778L153.78799791188385,121.84098959469657L154.14515643312575,120.82100119803499L156.7842258794148,119.35077298548231L155.38607821745825,118.37411498454321L155.00583016653695,116.84067824322369L156.5525424648801,117.30812583715385L156.9287971804361,116.0374348572849L161.04644793656928,117.25832543784259Z" style="fill: inherit; stroke: inherit; stroke-width: inherit;" vector-effect="non-scaling-stroke"><title>Washington County</title></path><path id="county-41055" class="county feature" d="M189.47668608846186,138.65736039838976L186.60203688559073,137.87804997051933L186.90569397416823,137.04962964912784L185.50127790774047,135.42670665414823L183.51171566697434,134.42970234169798L184.04982029303613,132.90411213650168L186.33324090411696,131.91825573524898L187.4254906447295,129.85504474338757L186.93087846420974,127.18506302208095L190.70085395554668,126.33985636891828L193.09229020141856,129.71099097118974L193.32076863619056,131.430011530373L191.46160791149532,131.73799415683993L189.58140260883323,136.18752727851142Z" style="fill: inherit; stroke: inherit; stroke-width: inherit;" vector-effect="non-scaling-stroke"><title>Sherman County</title></path><path id="county-41051" class="county feature" d="M164.14662435269207,119.1515996033711L163.88072253430425,120.6444043917545L165.14987197234092,121.81098361750412L169.6645731342453,124.23623404685543L174.29147885712655,123.57201357263853L173.77658970736684,125.41279923737011L174.6293987646738,127.302606450486L164.28796201429662,124.3810380835888L162.85749769054564,124.50510341886354L163.293348962621,122.963404849016L161.5680387881065,120.23649449100242L162.02940143385962,118.65196888944706Z" style="fill: inherit; stroke: inherit; stroke-width: inherit;" vector-effect="non-scaling-stroke"><title>Multnomah County</title></path><path id="county-41027" class="county feature" d="M180.58686474814084,124.38458187241974L179.7129224157345,127.58889951814831L179.1845920761487,127.43763581682106L177.90500470291232,132.14865154780853L175.17164443886708,131.40065966168345L175.7663861148245,129.32531307859847L174.6293987646738,127.302606450486L173.77658970736684,125.41279923737011L174.29147885712655,123.57201357263853L176.0171284400762,122.94914205583257L179.69319844399638,123.60675678394693Z" style="fill: inherit; stroke: inherit; stroke-width: inherit;" vector-effect="non-scaling-stroke"><title>Hood River County</title></path><path id="county-41065" class="county feature" d="M186.93087846420974,127.18506302208095L187.4254906447295,129.85504474338757L186.33324090411696,131.91825573524898L184.04982029303613,132.90411213650168L183.51171566697434,134.42970234169798L185.50127790774047,135.42670665414823L186.90569397416823,137.04962964912784L186.60203688559073,137.87804997051933L189.47668608846186,138.65736039838976L189.5086564333056,138.94412624402253L189.09067919535,142.78143927659312L189.91029795972076,143.82578037928624L172.22164097054718,138.97041592268715L172.84568988498552,137.92881759692807L172.58180307735017,135.4468953587858L174.6943993102833,134.98155620024158L174.30788934211898,132.14966109818556L175.17164443886708,131.40065966168345L177.90500470291232,132.14865154780853L179.1845920761487,127.43763581682106L179.7129224157345,127.58889951814831L180.58686474814084,124.38458187241974L183.3070754828139,125.71744022458086L183.27130420651662,126.67196745095794Z" style="fill: inherit; stroke: inherit; stroke-width: inherit;" vector-effect="non-scaling-stroke"><title>Wasco County</title></path><path id="county-41005" class="county feature" d="M174.6293987646738,127.302606450486L175.7663861148245,129.32531307859847L175.17164443886708,131.40065966168345L174.30788934211898,132.14966109818556L174.6943993102833,134.98155620024158L172.58180307735017,135.4468953587858L172.84568988498552,137.92881759692807L164.41426250057305,135.6141163436589L162.9131475771096,134.17450968829746L162.57078531522484,132.4668374033098L160.7225370377131,129.78159407398732L161.97391904205733,127.64683219220808L160.6148813837064,127.23751626835815L160.6843609052512,126.13623796208685L162.32070306035064,126.32827321382945L162.85749769054564,124.50510341886354L164.28796201429662,124.3810380835888Z" style="fill: inherit; stroke: inherit; stroke-width: inherit;" vector-effect="non-scaling-stroke"><title>Clackamas County</title></path><path id="county-41071" class="county feature" d="M160.6843609052512,126.13623796208685L160.6148813837064,127.23751626835815L158.02236195442816,127.21618113172019L157.99622190092856,129.2921709327543L156.87069234558584,129.73942500801616L148.6121259502798,127.2717791931284L147.84353872276222,127.03653651199227L148.60551320918478,124.53750035845098L152.65233620170056,125.74376921881469L153.78799791188385,121.84098959469657L157.92549257954147,123.07370200108778Z" style="fill: inherit; stroke: inherit; stroke-width: inherit;" vector-effect="non-scaling-stroke"><title>Yamhill County</title></path><path id="county-41047" class="county feature" d="M160.6148813837064,127.23751626835815L161.97391904205733,127.64683219220808L160.7225370377131,129.78159407398732L162.57078531522484,132.4668374033098L162.9131475771096,134.17450968829746L164.41426250057305,135.6141163436589L172.84568988498552,137.92881759692807L172.22164097054718,138.97041592268715L171.28227262872906,139.40691485703906L171.06736905936128,141.4014054520335L165.84425677519567,139.72069744813393L165.07343549655224,138.37913603176412L162.18875889288466,137.54598587820567L158.8243887859901,135.82477008939384L155.63690449173754,136.94928276221026L154.22564590213057,135.307465381989L154.21602809950383,133.6727046451167L156.6094258013286,132.06476730438476L156.87069234558584,129.73942500801616L157.99622190092856,129.2921709327543L158.02236195442816,127.21618113172019Z" style="fill: inherit; stroke: inherit; stroke-width: inherit;" vector-effect="non-scaling-stroke"><title>Marion County</title></path><path id="county-41001" class="county feature" d="M237.06593304506322,150.29020745611035L236.0064604365994,151.15325075851354L235.84816155062703,152.79960483052332L234.6022768191558,154.31180404784482L232.43614614381647,155.5954122192311L230.2324426107678,158.98457178120157L228.95496606883341,159.87569152074047L228.2388901567465,163.2233811063012L224.7838818915459,162.43383159800135L225.14647907638374,160.8572939978476L224.02191472889746,159.50792677214986L219.09027798525267,158.37920946348265L214.90539189244203,160.9931269829085L211.46662325109094,160.18627058947993L213.12205676563036,158.31538069266855L213.3528822399477,156.76219269423154L215.3882941599441,154.69279017950157L213.1654566969213,152.67716015566236L216.368519146702,151.81908197455255L216.72778502487154,149.74342163961978L217.79093518746618,148.16792322366211L219.62596746516914,146.93685319799624L221.1534148880475,148.27119259781603L222.8291916884628,147.42798745832533L223.93220942662907,148.96597269477047L226.6831375291781,149.5929678610745L227.05766859305987,148.01266621904472L230.86927101560008,148.86262221970208Z" style="fill: inherit; stroke: inherit; stroke-width: inherit;" vector-effect="non-scaling-stroke"><title>Baker County</title></path><path id="county-41053" class="county feature" d="M156.87069234558584,129.73942500801616L156.6094258013286,132.06476730438476L154.21602809950383,133.6727046451167L154.22564590213057,135.307465381989L153.9977856446597,135.81356514895708L148.24668991823023,134.09184958325886L146.7902970607177,133.306155098305L148.42158075953205,127.84057617488588L148.6121259502798,127.2717791931284Z" style="fill: inherit; stroke: inherit; stroke-width: inherit;" vector-effect="non-scaling-stroke"><title>Polk County</title></path><path id="county-41069" class="county feature" d="M198.49820193127925,141.294665000053L198.15067950660682,142.6156978144843L199.67258218019617,143.00794713156506L199.13605275723245,146.17635898345236L196.70487320283252,155.52970853556303L193.5757210660879,154.73636418058152L193.95293657001378,153.22953305324734L192.60037534172193,151.9338428155113L187.91192612610683,150.7320942213986L188.51242957861848,148.4432132263836L189.91029795972076,143.82578037928624L189.09067919535,142.78143927659312L189.5086564333056,138.94412624402253Z" style="fill: inherit; stroke: inherit; stroke-width: inherit;" vector-effect="non-scaling-stroke"><title>Wheeler County</title></path><path id="county-41041" class="county feature" d="M148.42158075953205,127.84057617488588L146.7902970607177,133.306155098305L148.24668991823023,134.09184958325886L146.76999829667977,139.2828343406228L145.1978165490179,138.8087925670726L144.87627990915354,140.12906820060368L143.49131511417647,140.0213999203802L143.6917895990626,141.27957678475207L139.31550636003305,140.09844835187596L140.49362061091227,137.69037166400358L142.92279577814844,130.42696960993396L144.1528639481569,129.15200899175966L144.95769046041778,126.77713865645012Z" style="fill: inherit; stroke: inherit; stroke-width: inherit;" vector-effect="non-scaling-stroke"><title>Lincoln County</title></path><path id="county-41023" class="county feature" d="M214.43748589026632,146.63914125497377L217.79093518746618,148.16792322366211L216.72778502487154,149.74342163961978L216.368519146702,151.81908197455255L213.1654566969213,152.67716015566236L215.3882941599441,154.69279017950157L213.3528822399477,156.76219269423154L213.12205676563036,158.31538069266855L211.46662325109094,160.18627058947993L214.90539189244203,160.9931269829085L214.02782536192893,164.94537158425874L206.41750125598446,162.95837380946762L206.00793981281993,164.55073508536998L195.08060108148175,161.8422176621607L196.70487320283252,155.52970853556303L199.13605275723245,146.17635898345236L199.67258218019617,143.00794713156506L206.17061471300264,144.61425893377145Z" style="fill: inherit; stroke: inherit; stroke-width: inherit;" vector-effect="non-scaling-stroke"><title>Grant County</title></path><path id="county-41031" class="county feature" d="M189.91029795972076,143.82578037928624L188.51242957861848,148.4432132263836L182.84224056052705,146.9633605000182L182.4251433378268,148.5236079151855L180.35095933308287,147.9703562800854L179.93060435611858,149.53214742792898L178.40677943703105,149.1105704738942L168.98324522004077,146.48593628344054L171.06736905936128,141.4014054520335L171.28227262872906,139.40691485703906L172.22164097054718,138.97041592268715Z" style="fill: inherit; stroke: inherit; stroke-width: inherit;" vector-effect="non-scaling-stroke"><title>Jefferson County</title></path><path id="county-41043" class="county feature" d="M171.06736905936128,141.4014054520335L168.98324522004077,146.48593628344054L168.86099625428233,149.06283221906392L162.0730669585942,147.24740571235657L161.12302543418673,147.68215630687462L158.73057822189145,146.78319063502158L157.15173205605646,145.15780960594657L154.70668824386627,145.01690391101704L154.3759332697922,146.06825072946435L151.05540187775267,145.10159909206038L151.24927278033658,143.52554556024916L151.0005972350403,142.2703818370552L152.05399256499703,139.43702618590748L151.7085242979835,138.36654386815883L154.59521408765198,137.34221054399893L153.9977856446597,135.81356514895708L154.22564590213057,135.307465381989L155.63690449173754,136.94928276221026L158.8243887859901,135.82477008939384L162.18875889288466,137.54598587820567L165.07343549655224,138.37913603176412L165.84425677519567,139.72069744813393Z" style="fill: inherit; stroke: inherit; stroke-width: inherit;" vector-effect="non-scaling-stroke"><title>Linn County</title></path><path id="county-41003" class="county feature" d="M153.9977856446597,135.81356514895708L154.59521408765198,137.34221054399893L151.7085242979835,138.36654386815883L152.05399256499703,139.43702618590748L151.0005972350403,142.2703818370552L151.24927278033658,143.52554556024916L143.6917895990626,141.27957678475207L143.49131511417647,140.0213999203802L144.87627990915354,140.12906820060368L145.1978165490179,138.8087925670726L146.76999829667977,139.2828343406228L148.24668991823023,134.09184958325886Z" style="fill: inherit; stroke: inherit; stroke-width: inherit;" vector-effect="non-scaling-stroke"><title>Benton County</title></path><path id="county-41013" class="county feature" d="M188.51242957861848,148.4432132263836L187.91192612610683,150.7320942213986L192.60037534172193,151.9338428155113L193.95293657001378,153.22953305324734L193.5757210660879,154.73636418058152L196.70487320283252,155.52970853556303L195.08060108148175,161.8422176621607L193.5480650275154,161.45165894935406L192.3132253097305,166.18710588541853L190.73915591845434,165.77862245922643L186.06036362299153,164.55895560450563L186.46981571850262,162.98969466508208L184.90220657954893,162.5837756544903L185.3107099989545,161.0072709544022L180.51902815654807,159.75409404481218L180.9356445967099,158.19043935575667L177.86880976564936,157.3035315367656L178.7019550434107,154.17087619267897L177.23648471116786,153.69420334525478L178.40677943703105,149.1105704738942L179.93060435611858,149.53214742792898L180.35095933308287,147.9703562800854L182.4251433378268,148.5236079151855L182.84224056052705,146.9633605000182Z" style="fill: inherit; stroke: inherit; stroke-width: inherit;" vector-effect="non-scaling-stroke"><title>Crook County</title></path><path id="county-41045" class="county feature" d="M228.2388901567465,163.2233811063012L231.17154004208902,165.00859304864036L231.81579328068352,166.8885038573834L230.54418128371174,167.84873454242222L230.65385487569802,169.79637580075917L229.5792028414889,171.6224085499548L228.86402650464743,172.21419380962936L228.1941810644139,175.1485078366078L221.26264186741594,205.9443229041584L205.54673908533988,202.3606428058938L206.52630782848934,197.19978828550018L209.276815919672,185.52056459524158L209.11560928711418,185.481132303163L214.02782536192893,164.94537158425874L214.90539189244203,160.9931269829085L219.09027798525267,158.37920946348265L224.02191472889746,159.50792677214986L225.14647907638374,160.8572939978476L224.7838818915459,162.43383159800135Z" style="fill: inherit; stroke: inherit; stroke-width: inherit;" vector-effect="non-scaling-stroke"><title>Malheur County</title></path><path id="county-41017" class="county feature" d="M178.40677943703105,149.1105704738942L177.23648471116786,153.69420334525478L178.7019550434107,154.17087619267897L177.86880976564936,157.3035315367656L180.9356445967099,158.19043935575667L180.51902815654807,159.75409404481218L185.3107099989545,161.0072709544022L184.90220657954893,162.5837756544903L186.46981571850262,162.98969466508208L186.06036362299153,164.55895560450563L190.73915591845434,165.77862245922643L190.31459961473496,167.41192644254454L171.68064314642987,162.33835666024186L162.99591115311563,159.9373088482057L164.57677296884862,155.6581047576218L166.23096517646536,155.05001648505242L168.55449240647454,151.7739437861129L168.86099625428233,149.06283221906392L168.98324522004077,146.48593628344054Z" style="fill: inherit; stroke: inherit; stroke-width: inherit;" vector-effect="non-scaling-stroke"><title>Deschutes County</title></path><path id="county-41039" class="county feature" d="M168.86099625428233,149.06283221906392L168.55449240647454,151.7739437861129L166.23096517646536,155.05001648505242L164.57677296884862,155.6581047576218L162.99591115311563,159.9373088482057L161.03957544494085,160.51948811079524L160.43104555445063,162.6232667777466L152.51001853390653,160.42533041076683L153.06038802181115,158.48624748754037L148.27281779041613,157.22996043433943L149.18077626504868,152.76311884927384L146.47882879793656,151.95727030755666L144.40477138897933,150.37782252361842L143.72916229038862,148.40102058013383L141.1967718809829,147.15282693427798L139.50890645484918,148.19885073413798L136.50836322524123,147.32799569366102L139.31550636003305,140.09844835187596L143.6917895990626,141.27957678475207L151.24927278033658,143.52554556024916L151.05540187775267,145.10159909206038L154.3759332697922,146.06825072946435L154.70668824386627,145.01690391101704L157.15173205605646,145.15780960594657L158.73057822189145,146.78319063502158L161.12302543418673,147.68215630687462L162.0730669585942,147.24740571235657Z" style="fill: inherit; stroke: inherit; stroke-width: inherit;" vector-effect="non-scaling-stroke"><title>Lane County</title></path><path id="county-41025" class="county feature" d="M214.02782536192893,164.94537158425874L209.11560928711418,185.481132303163L209.276815919672,185.52056459524158L206.52630782848934,197.19978828550018L205.54673908533988,202.3606428058938L190.4447499609508,198.73365908597646L189.96211953356777,198.6043533554589L193.34783830884226,184.82622087315053L185.69486536812332,183.03540458085217L187.7557622270432,175.14492894141972L188.30286311582432,175.26268962104973L190.31459961473496,167.41192644254454L190.73915591845434,165.77862245922643L192.3132253097305,166.18710588541853L193.5480650275154,161.45165894935406L195.08060108148175,161.8422176621607L206.00793981281993,164.55073508536998L206.41750125598446,162.95837380946762Z" style="fill: inherit; stroke: inherit; stroke-width: inherit;" vector-effect="non-scaling-stroke"><title>Harney County</title></path><path id="county-41019" class="county feature" d="M160.43104555445063,162.6232667777466L161.13502168865352,163.4656040750515L161.57671257444264,166.43256171927214L159.0982782535284,169.30284299677987L156.56747336652205,168.8032416875542L156.1755642716593,170.11274601333844L154.63361241690654,169.67093323298843L152.2853352678846,170.1124513962974L148.36700289169607,172.08259794910282L143.56095638130455,171.17796667581013L142.30913577996284,171.70492935359107L139.43386096021214,170.98269229188293L136.13476553727435,169.2518108558039L136.35860825015658,168.4550374083857L135.138767643358,167.977561225155L136.14870539907633,164.25350300386197L138.18854024310917,163.05312349546784L139.08326269371287,159.96935251552475L138.28555921990136,159.75500541863494L139.2378110417248,156.60535160070742L138.25302845140408,154.67173297753095L138.754113261364,153.01252377643198L134.35032373817205,151.6338812058135L136.50836322524123,147.32799569366102L139.50890645484918,148.19885073413798L141.1967718809829,147.15282693427798L143.72916229038862,148.40102058013383L144.40477138897933,150.37782252361842L146.47882879793656,151.95727030755666L149.18077626504868,152.76311884927384L148.27281779041613,157.22996043433943L153.06038802181115,158.48624748754037L152.51001853390653,160.42533041076683Z" style="fill: inherit; stroke: inherit; stroke-width: inherit;" vector-effect="non-scaling-stroke"><title>Douglas County</title></path><path id="county-41035" class="county feature" d="M171.68064314642987,162.33835666024186L167.16142046508782,178.03526890100954L173.28954038188448,179.7227718215213L169.6925550773899,193.35642899581353L162.15843383035968,191.24153201410002L151.0298718158034,187.9351810796394L156.1755642716593,170.11274601333844L156.56747336652205,168.8032416875542L159.0982782535284,169.30284299677987L161.57671257444264,166.43256171927214L161.13502168865352,163.4656040750515L160.43104555445063,162.6232667777466L161.03957544494085,160.51948811079524L162.99591115311563,159.9373088482057Z" style="fill: inherit; stroke: inherit; stroke-width: inherit;" vector-effect="non-scaling-stroke"><title>Klamath County</title></path><path id="county-41037" class="county feature" d="M189.96211953356777,198.6043533554589L181.43169445561847,196.42455346316615L169.6925550773899,193.35642899581353L173.28954038188448,179.7227718215213L167.16142046508782,178.03526890100954L171.68064314642987,162.33835666024186L190.31459961473496,167.41192644254454L188.30286311582432,175.26268962104973L187.7557622270432,175.14492894141972L185.69486536812332,183.03540458085217L193.34783830884226,184.82622087315053Z" style="fill: inherit; stroke: inherit; stroke-width: inherit;" vector-effect="non-scaling-stroke"><title>Lake County</title></path><path id="county-41011" class="county feature" d="M135.138767643358,167.977561225155L133.58059380706544,167.79171556003053L132.1618581637926,169.11547536419675L130.22520633717585,168.81748482565058L131.1005843183607,164.92667475056055L130.24687367813755,163.2455551080701L127.36196105761945,162.35374080407712L130.36300171854379,157.06506164399138L134.35032373817205,151.6338812058135L138.754113261364,153.01252377643198L138.25302845140408,154.67173297753095L139.2378110417248,156.60535160070742L138.28555921990136,159.75500541863494L139.08326269371287,159.96935251552475L138.18854024310917,163.05312349546784L136.14870539907633,164.25350300386197Z" style="fill: inherit; stroke: inherit; stroke-width: inherit;" vector-effect="non-scaling-stroke"><title>Coos County</title></path><path id="county-41029" class="county feature" d="M156.1755642716593,170.11274601333844L151.0298718158034,187.9351810796394L138.56224690877815,184.40582758589494L142.30913577996284,171.70492935359107L143.56095638130455,171.17796667581013L148.36700289169607,172.08259794910282L152.2853352678846,170.1124513962974L154.63361241690654,169.67093323298843Z" style="fill: inherit; stroke: inherit; stroke-width: inherit;" vector-effect="non-scaling-stroke"><title>Jackson County</title></path><path id="county-41015" class="county feature" d="M135.138767643358,167.977561225155L136.35860825015658,168.4550374083857L134.03059255776657,170.7214139403785L132.5419325009135,172.86914011980343L130.97757207814362,172.4776488611767L130.00437615827985,174.87075377247572L131.72140362831703,175.51649815410644L132.41510964544483,178.02624058003335L131.0284018860504,179.46489647538738L130.7101350489056,182.23147645533106L125.5822539835043,180.61436534891607L124.2990092126671,178.1571849374683L124.5975358609171,173.70288306605175L126.42044305433654,169.53901421170974L126.56737398145293,167.89650691361544L125.7315838044263,166.20512274784028L125.80913643730207,164.08584331155862L127.36196105761945,162.35374080407712L130.24687367813755,163.2455551080701L131.1005843183607,164.92667475056055L130.22520633717585,168.81748482565058L132.1618581637926,169.11547536419675L133.58059380706544,167.79171556003053Z" style="fill: inherit; stroke: inherit; stroke-width: inherit;" vector-effect="non-scaling-stroke"><title>Curry County</title></path><path id="county-41033" class="county feature" d="M136.35860825015658,168.4550374083857L136.13476553727435,169.2518108558039L139.43386096021214,170.98269229188293L142.30913577996284,171.70492935359107L138.56224690877815,184.40582758589494L134.7477605107099,183.33478297475165L130.7101350489056,182.23147645533106L131.0284018860504,179.46489647538738L132.41510964544483,178.02624058003335L131.72140362831703,175.51649815410644L130.00437615827985,174.87075377247572L130.97757207814362,172.4776488611767L132.5419325009135,172.86914011980343L134.03059255776657,170.7214139403785Z" style="fill: inherit; stroke: inherit; stroke-width: inherit;" vector-effect="non-scaling-stroke"><title>Josephine County</title></path></g><path id="counties-mesh" class="counties mesh" d="M225.68170476410643,130.03014429996404L225.14176061605536,132.58844253056031L222.57299964197364,135.281609551869L221.63561174934324,139.23681854194172L220.41789565267254,139.786007041713L217.4846085413282,139.04934335898065L217.17165721086684,140.39105912930233L213.68587039303293,139.74071347109793L213.57142895925557,142.56502015507726L214.96603405779234,142.90201706045696L214.43748589026632,146.63914125497377L206.17061471300264,144.61425893377145L206.79289141126816,143.09134138827665L208.7579617357519,135.2409656858897L207.45010787187834,134.9142379899058L207.8380069964644,133.36018571301474L205.47556307925566,132.75253534703836L206.94918059176456,127.05071385502742M164.14662435269207,119.1515996033711L163.88072253430425,120.6444043917545L165.14987197234092,121.81098361750412L169.6645731342453,124.23623404685543L174.29147885712655,123.57201357263853L176.0171284400762,122.94914205583257L179.69319844399638,123.60675678394693L180.58686474814084,124.38458187241974L183.3070754828139,125.71744022458086L183.27130420651662,126.67196745095794L186.93087846420974,127.18506302208095L190.70085395554668,126.33985636891828L192.6589729914919,127.67265485964617L196.1772022518362,128.0293932956704L199.30339692334013,127.1394884863513L201.06996678663222,127.14073051584398L203.66609371151236,127.4015186106102L205.2212610659251,126.47604626026202L206.94918059176456,127.05071385502742L210.86906340990288,127.75062490874052L212.9310550414511,126.97294676283059L225.43684711874567,129.97143714886954L225.68170476410643,130.03014429996404L230.4146876286879,131.16965419238386L231.96415924823145,131.5475411808227L239.08988445400314,133.20793071669493L240.0676041385243,136.093940417647L242.78261180461055,138.67603183461154L243.31296627836167,141.42091252914383L241.70078901011186,143.14158334465344L239.07362893688742,147.12363308474698L237.06593304506322,150.29020745611035L230.86927101560008,148.86262221970208L231.21737856329327,147.31165531244892L228.522452246133,146.70553411056028L227.89303497771664,143.24246639957755L227.10803612501593,143.08347341308672L227.3462372282052,139.72541126423835L226.768620966563,136.24769009465012L228.00533619083518,133.25070042327047L225.14176061605536,132.58844253056031M206.17061471300264,144.61425893377145L199.67258218019617,143.00794713156506L198.15067950660682,142.6156978144843L198.49820193127925,141.294665000053L199.3448651238105,139.58430767257528L197.78568938252715,139.14470258398762L198.2005321691857,137.58561921188743L196.6227199999921,137.15150465184786L199.30339692334013,127.1394884863513M230.86927101560008,148.86262221970208L227.05766859305987,148.01266621904472L226.6831375291781,149.5929678610745L223.93220942662907,148.96597269477047L222.8291916884628,147.42798745832533L221.1534148880475,148.27119259781603L219.62596746516914,146.93685319799624L217.79093518746618,148.16792322366211L214.43748589026632,146.63914125497377M198.49820193127925,141.294665000053L189.5086564333056,138.94412624402253L189.47668608846186,138.65736039838976L189.58140260883323,136.18752727851142L191.46160791149532,131.73799415683993L193.32076863619056,131.430011530373L193.09229020141856,129.71099097118974L190.70085395554668,126.33985636891828M158.8076092469567,109.56118500259822L156.9287971804361,116.0374348572849L149.37730450376773,113.71032671402315L149.9565660718987,110.70474857381782L151.12098575701873,109.82133699082954L151.1469833741359,105.5476643018958L152.26141934736336,106.80690088220558L154.13333411663513,106.92806517359077L156.22351297755012,107.92142879740811L157.6393779048608,107.40244129058226L158.8076092469567,109.56118500259822L160.85677270395132,109.55343838815031L162.07895655500755,109.66634003276818L164.22699689495954,112.27054117246678L164.49377571869968,116.87511129520806L164.14662435269207,119.1515996033711L162.02940143385962,118.65196888944706L161.04644793656928,117.25832543784259L156.9287971804361,116.0374348572849L156.5525424648801,117.30812583715385L155.00583016653695,116.84067824322369L155.38607821745825,118.37411498454321L156.7842258794148,119.35077298548231L154.14515643312575,120.82100119803499L153.78799791188385,121.84098959469657L152.65233620170056,125.74376921881469L148.60551320918478,124.53750035845098L147.84353872276222,127.03653651199227L148.6121259502798,127.2717791931284L148.42158075953205,127.84057617488588L144.95769046041778,126.77713865645012L147.7737128015862,120.57529534858918L149.37730450376773,113.71032671402315M162.02940143385962,118.65196888944706L161.5680387881065,120.23649449100242L163.293348962621,122.963404849016L162.85749769054564,124.50510341886354L162.32070306035064,126.32827321382945L160.6843609052512,126.13623796208685L157.92549257954147,123.07370200108778L153.78799791188385,121.84098959469657M189.47668608846186,138.65736039838976L186.60203688559073,137.87804997051933L186.90569397416823,137.04962964912784L185.50127790774047,135.42670665414823L183.51171566697434,134.42970234169798L184.04982029303613,132.90411213650168L186.33324090411696,131.91825573524898L187.4254906447295,129.85504474338757L186.93087846420974,127.18506302208095M174.29147885712655,123.57201357263853L173.77658970736684,125.41279923737011L174.6293987646738,127.302606450486L164.28796201429662,124.3810380835888L162.85749769054564,124.50510341886354M180.58686474814084,124.38458187241974L179.7129224157345,127.58889951814831L179.1845920761487,127.43763581682106L177.90500470291232,132.14865154780853L175.17164443886708,131.40065966168345L175.7663861148245,129.32531307859847L174.6293987646738,127.302606450486M189.5086564333056,138.94412624402253L189.09067919535,142.78143927659312L189.91029795972076,143.82578037928624L172.22164097054718,138.97041592268715L172.84568988498552,137.92881759692807L172.58180307735017,135.4468953587858L174.6943993102833,134.98155620024158L174.30788934211898,132.14966109818556L175.17164443886708,131.40065966168345M172.84568988498552,137.92881759692807L164.41426250057305,135.6141163436589L162.9131475771096,134.17450968829746L162.57078531522484,132.4668374033098L160.7225370377131,129.78159407398732L161.97391904205733,127.64683219220808L160.6148813837064,127.23751626835815L160.6843609052512,126.13623796208685M160.6148813837064,127.23751626835815L158.02236195442816,127.21618113172019L157.99622190092856,129.2921709327543L156.87069234558584,129.73942500801616L148.6121259502798,127.2717791931284M172.22164097054718,138.97041592268715L171.28227262872906,139.40691485703906L171.06736905936128,141.4014054520335L165.84425677519567,139.72069744813393L165.07343549655224,138.37913603176412L162.18875889288466,137.54598587820567L158.8243887859901,135.82477008939384L155.63690449173754,136.94928276221026L154.22564590213057,135.307465381989L154.21602809950383,133.6727046451167L156.6094258013286,132.06476730438476L156.87069234558584,129.73942500801616M237.06593304506322,150.29020745611035L236.0064604365994,151.15325075851354L235.84816155062703,152.79960483052332L234.6022768191558,154.31180404784482L232.43614614381647,155.5954122192311L230.2324426107678,158.98457178120157L228.95496606883341,159.87569152074047L228.2388901567465,163.2233811063012L224.7838818915459,162.43383159800135L225.14647907638374,160.8572939978476L224.02191472889746,159.50792677214986L219.09027798525267,158.37920946348265L214.90539189244203,160.9931269829085L211.46662325109094,160.18627058947993L213.12205676563036,158.31538069266855L213.3528822399477,156.76219269423154L215.3882941599441,154.69279017950157L213.1654566969213,152.67716015566236L216.368519146702,151.81908197455255L216.72778502487154,149.74342163961978L217.79093518746618,148.16792322366211M154.22564590213057,135.307465381989L153.9977856446597,135.81356514895708L148.24668991823023,134.09184958325886L146.7902970607177,133.306155098305L148.42158075953205,127.84057617488588M199.67258218019617,143.00794713156506L199.13605275723245,146.17635898345236L196.70487320283252,155.52970853556303L193.5757210660879,154.73636418058152L193.95293657001378,153.22953305324734L192.60037534172193,151.9338428155113L187.91192612610683,150.7320942213986L188.51242957861848,148.4432132263836L189.91029795972076,143.82578037928624M148.24668991823023,134.09184958325886L146.76999829667977,139.2828343406228L145.1978165490179,138.8087925670726L144.87627990915354,140.12906820060368L143.49131511417647,140.0213999203802L143.6917895990626,141.27957678475207L139.31550636003305,140.09844835187596L140.49362061091227,137.69037166400358L142.92279577814844,130.42696960993396L144.1528639481569,129.15200899175966L144.95769046041778,126.77713865645012M214.90539189244203,160.9931269829085L214.02782536192893,164.94537158425874L206.41750125598446,162.95837380946762L206.00793981281993,164.55073508536998L195.08060108148175,161.8422176621607L196.70487320283252,155.52970853556303M188.51242957861848,148.4432132263836L182.84224056052705,146.9633605000182L182.4251433378268,148.5236079151855L180.35095933308287,147.9703562800854L179.93060435611858,149.53214742792898L178.40677943703105,149.1105704738942L168.98324522004077,146.48593628344054L171.06736905936128,141.4014054520335M168.98324522004077,146.48593628344054L168.86099625428233,149.06283221906392L162.0730669585942,147.24740571235657L161.12302543418673,147.68215630687462L158.73057822189145,146.78319063502158L157.15173205605646,145.15780960594657L154.70668824386627,145.01690391101704L154.3759332697922,146.06825072946435L151.05540187775267,145.10159909206038L151.24927278033658,143.52554556024916L151.0005972350403,142.2703818370552L152.05399256499703,139.43702618590748L151.7085242979835,138.36654386815883L154.59521408765198,137.34221054399893L153.9977856446597,135.81356514895708M151.24927278033658,143.52554556024916L143.6917895990626,141.27957678475207M195.08060108148175,161.8422176621607L193.5480650275154,161.45165894935406L192.3132253097305,166.18710588541853L190.73915591845434,165.77862245922643L186.06036362299153,164.55895560450563L186.46981571850262,162.98969466508208L184.90220657954893,162.5837756544903L185.3107099989545,161.0072709544022L180.51902815654807,159.75409404481218L180.9356445967099,158.19043935575667L177.86880976564936,157.3035315367656L178.7019550434107,154.17087619267897L177.23648471116786,153.69420334525478L178.40677943703105,149.1105704738942M228.2388901567465,163.2233811063012L231.17154004208902,165.00859304864036L231.81579328068352,166.8885038573834L230.54418128371174,167.84873454242222L230.65385487569802,169.79637580075917L229.5792028414889,171.6224085499548L228.86402650464743,172.21419380962936L228.1941810644139,175.1485078366078L221.26264186741594,205.9443229041584L205.54673908533988,202.3606428058938L206.52630782848934,197.19978828550018L209.276815919672,185.52056459524158L209.11560928711418,185.481132303163L214.02782536192893,164.94537158425874M190.73915591845434,165.77862245922643L190.31459961473496,167.41192644254454L171.68064314642987,162.33835666024186L162.99591115311563,159.9373088482057L164.57677296884862,155.6581047576218L166.23096517646536,155.05001648505242L168.55449240647454,151.7739437861129L168.86099625428233,149.06283221906392M162.99591115311563,159.9373088482057L161.03957544494085,160.51948811079524L160.43104555445063,162.6232667777466L152.51001853390653,160.42533041076683L153.06038802181115,158.48624748754037L148.27281779041613,157.22996043433943L149.18077626504868,152.76311884927384L146.47882879793656,151.95727030755666L144.40477138897933,150.37782252361842L143.72916229038862,148.40102058013383L141.1967718809829,147.15282693427798L139.50890645484918,148.19885073413798L136.50836322524123,147.32799569366102L139.31550636003305,140.09844835187596M205.54673908533988,202.3606428058938L190.4447499609508,198.73365908597646L189.96211953356777,198.6043533554589L193.34783830884226,184.82622087315053L185.69486536812332,183.03540458085217L187.7557622270432,175.14492894141972L188.30286311582432,175.26268962104973L190.31459961473496,167.41192644254454M160.43104555445063,162.6232667777466L161.13502168865352,163.4656040750515L161.57671257444264,166.43256171927214L159.0982782535284,169.30284299677987L156.56747336652205,168.8032416875542L156.1755642716593,170.11274601333844L154.63361241690654,169.67093323298843L152.2853352678846,170.1124513962974L148.36700289169607,172.08259794910282L143.56095638130455,171.17796667581013L142.30913577996284,171.70492935359107L139.43386096021214,170.98269229188293L136.13476553727435,169.2518108558039L136.35860825015658,168.4550374083857L135.138767643358,167.977561225155L136.14870539907633,164.25350300386197L138.18854024310917,163.05312349546784L139.08326269371287,159.96935251552475L138.28555921990136,159.75500541863494L139.2378110417248,156.60535160070742L138.25302845140408,154.67173297753095L138.754113261364,153.01252377643198L134.35032373817205,151.6338812058135L136.50836322524123,147.32799569366102M171.68064314642987,162.33835666024186L167.16142046508782,178.03526890100954L173.28954038188448,179.7227718215213L169.6925550773899,193.35642899581353L162.15843383035968,191.24153201410002L151.0298718158034,187.9351810796394L156.1755642716593,170.11274601333844M189.96211953356777,198.6043533554589L181.43169445561847,196.42455346316615L169.6925550773899,193.35642899581353M135.138767643358,167.977561225155L133.58059380706544,167.79171556003053L132.1618581637926,169.11547536419675L130.22520633717585,168.81748482565058L131.1005843183607,164.92667475056055L130.24687367813755,163.2455551080701L127.36196105761945,162.35374080407712L130.36300171854379,157.06506164399138L134.35032373817205,151.6338812058135M151.0298718158034,187.9351810796394L138.56224690877815,184.40582758589494L142.30913577996284,171.70492935359107M136.35860825015658,168.4550374083857L134.03059255776657,170.7214139403785L132.5419325009135,172.86914011980343L130.97757207814362,172.4776488611767L130.00437615827985,174.87075377247572L131.72140362831703,175.51649815410644L132.41510964544483,178.02624058003335L131.0284018860504,179.46489647538738L130.7101350489056,182.23147645533106L125.5822539835043,180.61436534891607L124.2990092126671,178.1571849374683L124.5975358609171,173.70288306605175L126.42044305433654,169.53901421170974L126.56737398145293,167.89650691361544L125.7315838044263,166.20512274784028L125.80913643730207,164.08584331155862L127.36196105761945,162.35374080407712M138.56224690877815,184.40582758589494L134.7477605107099,183.33478297475165L130.7101350489056,182.23147645533106" style="fill: inherit; stroke: inherit; stroke-width: inherit;" vector-effect="non-scaling-stroke"></path></svg>