<?xml version="1.0" standalone="yes"?>
<svg xmlns="http://www.w3.org/2000/svg" version="1.2" id="root" viewBox="721.108616984983 207.1109714509521 86.03169668302473 55.755226797492355"><g id="counties"><path id="county-42049" class="county feature" d="M733.4053012486585,218.4841959160142L733.8515746354958,221.2196794625529L721.4990611662116,223.32354759434952L721.108616984983,220.94763286036505L723.4954579527188,219.43680725392596L730.4744853321192,213.80290259594676L731.3391806226347,218.81468398579568Z" style="fill: inherit; stroke: inherit; stroke-width: inherit;" vector-effect="non-scaling-stroke"><title>Erie County</title></path><path id="county-42015" class="county feature" d="M769.7307323710916,211.58014130922527L774.7063515491363,210.55795536801065L780.2489368681179,209.39558169508246L782.0330258703275,215.70268721535342L780.9162546085777,216.04363761961827L781.0460730347783,218.02976635811808L772.7977601387822,218.8206420658472L771.9444651228725,218.86912040630546Z" style="fill: inherit; stroke: inherit; stroke-width: inherit;" vector-effect="non-scaling-stroke"><title>Bradford County</title></path><path id="county-42117" class="county feature" d="M769.2024163313149,211.6874974402998L769.7307323710916,211.58014130922527L771.9444651228725,218.86912040630546L770.954050642434,219.94131814013213L762.2927831043619,221.84387629577304L760.4960770582957,213.4251242736425Z" style="fill: inherit; stroke: inherit; stroke-width: inherit;" vector-effect="non-scaling-stroke"><title>Tioga County</title></path><path id="county-42083" class="county feature" d="M751.0584545202175,215.2373902024931L752.4241308533109,214.97943774622593L753.8044360995547,222.02550319875445L750.9226142455303,222.87463521005247L749.951962080454,222.52636794938098L743.5314267791118,223.8208307209013L742.7799735423564,216.8192815927532Z" style="fill: inherit; stroke: inherit; stroke-width: inherit;" vector-effect="non-scaling-stroke"><title>McKean County</title></path><path id="county-42105" class="county feature" d="M758.6119229952343,213.84124728241557L760.4960770582957,213.4251242736425L762.2927831043619,221.84387629577304L762.5430096919182,223.01658081423955L757.2292729988826,224.12022334347853L756.3898645085579,224.2675630195705L753.8044360995547,222.02550319875445L752.4241308533109,214.97943774622593Z" style="fill: inherit; stroke: inherit; stroke-width: inherit;" vector-effect="non-scaling-stroke"><title>Potter County</title></path><path id="county-42127" class="county feature" d="M790.8116575178387,207.1109714509521L792.7732351261042,209.3313492386569L794.4052757652618,209.15883232320994L795.9964359245496,210.72913925539376L796.3865255561205,213.53977795403273L793.9525301528677,221.06951093451983L791.9735783314215,221.63917461758479L792.7490217051072,220.97419567703514L790.9137255228832,213.98891968393536L789.203022528666,207.487550375031Z" style="fill: inherit; stroke: inherit; stroke-width: inherit;" vector-effect="non-scaling-stroke"><title>Wayne County</title></path><path id="county-42115" class="county feature" d="M790.9137255228832,213.98891968393536L787.4090618966836,214.74082130758472L782.0330258703275,215.70268721535342L780.2489368681179,209.39558169508246L780.8053368423135,209.27751255564306L789.203022528666,207.487550375031Z" style="fill: inherit; stroke: inherit; stroke-width: inherit;" vector-effect="non-scaling-stroke"><title>Susquehanna County</title></path><path id="county-42123" class="county feature" d="M742.7799735423564,216.8192815927532L743.5314267791118,223.8208307209013L735.9461634743898,225.1606337615599L734.5717733002176,225.4130438247687L733.8515746354958,221.2196794625529L733.4053012486585,218.4841959160142L740.8437950089933,217.11923940816087Z" style="fill: inherit; stroke: inherit; stroke-width: inherit;" vector-effect="non-scaling-stroke"><title>Warren County</title></path><path id="county-42039" class="county feature" d="M733.8515746354958,221.2196794625529L734.5717733002176,225.4130438247687L731.6278296670846,225.957151674403L729.7108963934172,228.80541127169226L722.5984790605798,230.0136797556629L722.5666763796828,229.82015540120676L721.4990611662116,223.32354759434952Z" style="fill: inherit; stroke: inherit; stroke-width: inherit;" vector-effect="non-scaling-stroke"><title>Crawford County</title></path><path id="county-42131" class="county feature" d="M782.0330258703275,215.70268721535342L787.4090618966836,214.74082130758472L786.725647833051,219.02836327263333L784.5189343015978,220.32363356156952L780.832213820871,221.24365509707548L781.0460730347783,218.02976635811808L780.9162546085777,216.04363761961827Z" style="fill: inherit; stroke: inherit; stroke-width: inherit;" vector-effect="non-scaling-stroke"><title>Wyoming County</title></path><path id="county-42069" class="county feature" d="M790.9137255228832,213.98891968393536L792.7490217051072,220.97419567703514L791.9735783314215,221.63917461758479L790.9683962066886,223.22621802430683L790.2136717223335,222.888574961161L789.0985819602076,220.20447539609597L786.725647833051,219.02836327263333L787.4090618966836,214.74082130758472Z" style="fill: inherit; stroke: inherit; stroke-width: inherit;" vector-effect="non-scaling-stroke"><title>Lackawanna County</title></path><path id="county-42047" class="county feature" d="M750.9226142455303,222.87463521005247L751.5908363140516,226.5271398224395L753.8613867726714,226.10436743854848L754.6959345755304,229.2827593759397L749.0126814941195,229.8993378974692L748.3194194019584,231.0214304919116L747.7672911431694,229.9538922273657L744.3657361746884,228.6751040589777L742.5751351854774,229.4062015687607L742.6326488945683,227.2467871487022L744.1192982638083,227.28741988265062L743.5314267791118,223.8208307209013L749.951962080454,222.52636794938098Z" style="fill: inherit; stroke: inherit; stroke-width: inherit;" vector-effect="non-scaling-stroke"><title>Elk County</title></path><path id="county-42053" class="county feature" d="M743.5314267791118,223.8208307209013L744.1192982638083,227.28741988265062L742.6326488945683,227.2467871487022L742.5751351854774,229.4062015687607L741.0467117661651,229.85052761192105L740.7444795338511,228.0157475284899L738.084796649077,228.38105085590212L737.1862261974793,229.4908569350357L735.9461634743898,225.1606337615599Z" style="fill: inherit; stroke: inherit; stroke-width: inherit;" vector-effect="non-scaling-stroke"><title>Forest County</title></path><path id="county-42121" class="county feature" d="M737.1862261974793,229.4908569350357L737.3467450833707,230.43378893770898L735.6659971989652,230.99775282304392L734.8989475317862,233.97198906749384L730.7143420362102,234.7095843994532L729.7108963934172,228.80541127169226L731.6278296670846,225.957151674403L734.5717733002176,225.4130438247687L735.9461634743898,225.1606337615599Z" style="fill: inherit; stroke: inherit; stroke-width: inherit;" vector-effect="non-scaling-stroke"><title>Venango County</title></path><path id="county-42023" class="county feature" d="M753.8044360995547,222.02550319875445L756.3898645085579,224.2675630195705L757.2292729988826,224.12022334347853L757.6089695442898,226.07333749088684L756.7139167452494,229.15999855222617L754.6959345755304,229.2827593759397L753.8613867726714,226.10436743854848L751.5908363140516,226.5271398224395L750.9226142455303,222.87463521005247Z" style="fill: inherit; stroke: inherit; stroke-width: inherit;" vector-effect="non-scaling-stroke"><title>Cameron County</title></path><path id="county-42103" class="county feature" d="M801.3905607508092,215.8276230427706L802.4142693041185,216.95295062867206L800.8658707828774,218.79471558540592L799.5481154894433,222.6633185916471L797.0568625553028,222.1036546537349L797.0367665824148,220.1291687634539L793.9525301528677,221.06951093451983L796.3865255561205,213.53977795403273L798.0814269003029,215.5226645541336Z" style="fill: inherit; stroke: inherit; stroke-width: inherit;" vector-effect="non-scaling-stroke"><title>Pike County</title></path><path id="county-42081" class="county feature" d="M772.7977601387822,218.8206420658472L774.3450809878129,222.02753881454908L776.8902983115836,223.47037022567588L778.9813964683178,223.58718419612558L776.8007813467923,226.34616623731472L775.483719924878,226.3036494076896L773.3769382069113,227.36964322278595L772.4494019035399,228.53968833481815L770.246273037694,229.3519254160409L763.9411095807446,225.0364853579241L762.5430096919182,223.01658081423955L762.2927831043619,221.84387629577304L770.954050642434,219.94131814013213L771.9444651228725,218.86912040630546Z" style="fill: inherit; stroke: inherit; stroke-width: inherit;" vector-effect="non-scaling-stroke"><title>Lycoming County</title></path><path id="county-42113" class="county feature" d="M778.9813964683178,223.58718419612558L776.8902983115836,223.47037022567588L774.3450809878129,222.02753881454908L772.7977601387822,218.8206420658472L781.0460730347783,218.02976635811808L780.832213820871,221.24365509707548L780.7170910390639,222.5883318939973Z" style="fill: inherit; stroke: inherit; stroke-width: inherit;" vector-effect="non-scaling-stroke"><title>Sullivan County</title></path><path id="county-42085" class="county feature" d="M729.7108963934172,228.80541127169226L730.7143420362102,234.7095843994532L729.697281717533,236.8318710494376L728.8676705425564,236.1307316702239L723.7109884809668,236.78347592800208L723.6893621591498,236.62099570255225L722.5984790605798,230.0136797556629Z" style="fill: inherit; stroke: inherit; stroke-width: inherit;" vector-effect="non-scaling-stroke"><title>Mercer County</title></path><path id="county-42035" class="county feature" d="M762.5430096919182,223.01658081423955L763.9411095807446,225.0364853579241L770.246273037694,229.3519254160409L770.3371732427063,229.8040829421667L765.642234196155,232.30100836976135L764.3735302511046,230.52909253257974L761.9203766018413,230.25519393327977L761.0029872963403,228.9982915574567L759.5976753836125,229.3483880598833L759.2675644401475,228.00626465051334L757.710966549669,230.21946982358543L756.7139167452494,229.15999855222617L757.6089695442898,226.07333749088684L757.2292729988826,224.12022334347853Z" style="fill: inherit; stroke: inherit; stroke-width: inherit;" vector-effect="non-scaling-stroke"><title>Clinton County</title></path><path id="county-42031" class="county feature" d="M741.0467117661651,229.85052761192105L741.8944658998179,235.08406884034855L741.1179863087757,236.0154794983049L737.9226285496314,237.22427978718417L735.698688874838,236.1797659845373L734.9650302559462,234.00159277045873L734.8989475317862,233.97198906749384L735.6659971989652,230.99775282304392L737.3467450833707,230.43378893770898L737.1862261974793,229.4908569350357L738.084796649077,228.38105085590212L740.7444795338511,228.0157475284899Z" style="fill: inherit; stroke: inherit; stroke-width: inherit;" vector-effect="non-scaling-stroke"><title>Clarion County</title></path><path id="county-42079" class="county feature" d="M790.9683962066886,223.22621802430683L790.4654160250312,224.09335899948292L788.9790078344957,225.0158348234462L789.7894384836027,226.43826134684298L786.539591585012,228.97062283768946L783.5171988451941,228.905437514322L782.4933544707318,225.48912156152255L781.0063216923197,224.52385816687718L780.7170910390639,222.5883318939973L780.832213820871,221.24365509707548L784.5189343015978,220.32363356156952L786.725647833051,219.02836327263333L789.0985819602076,220.20447539609597L790.2136717223335,222.888574961161Z" style="fill: inherit; stroke: inherit; stroke-width: inherit;" vector-effect="non-scaling-stroke"><title>Luzerne County</title></path><path id="county-42065" class="county feature" d="M748.3194194019584,231.0214304919116L747.2602114102738,232.57085374427743L748.0178225550883,236.7405677217797L742.3494185359239,237.66197020398772L741.8944658998179,235.08406884034855L741.0467117661651,229.85052761192105L742.5751351854774,229.4062015687607L744.3657361746884,228.6751040589777L747.7672911431694,229.9538922273657Z" style="fill: inherit; stroke: inherit; stroke-width: inherit;" vector-effect="non-scaling-stroke"><title>Jefferson County</title></path><path id="county-42037" class="county feature" d="M783.5171988451941,228.905437514322L782.7292908713134,231.91759432192828L781.8264138622294,232.6135448936227L779.3865309550404,231.06394443328918L779.3585492052191,229.84337675738595L777.476227785543,227.98079899182244L776.8007813467923,226.34616623731472L778.9813964683178,223.58718419612558L780.7170910390639,222.5883318939973L781.0063216923197,224.52385816687718L782.4933544707318,225.48912156152255Z" style="fill: inherit; stroke: inherit; stroke-width: inherit;" vector-effect="non-scaling-stroke"><title>Columbia County</title></path><path id="county-42033" class="county feature" d="M757.710966549669,230.21946982358543L756.9150195094976,231.23112775446612L757.8145001927605,233.9673862749761L756.1570989473545,235.00938194158687L754.4430782348306,238.4588620785197L754.7505082613332,238.81394797058158L754.9062821601517,238.9339575515569L748.6824316283894,240.09408141012375L748.0178225550883,236.7405677217797L747.2602114102738,232.57085374427743L748.3194194019584,231.0214304919116L749.0126814941195,229.8993378974692L754.6959345755304,229.2827593759397L756.7139167452494,229.15999855222617Z" style="fill: inherit; stroke: inherit; stroke-width: inherit;" vector-effect="non-scaling-stroke"><title>Clearfield County</title></path><path id="county-42027" class="county feature" d="M770.3371732427063,229.8040829421667L768.0472684568629,234.05149355331412L764.1093319109851,237.0777395696564L762.0867791104779,237.20291069028383L760.6257143129461,238.48430592363798L758.0868041881982,238.05438170573416L754.7505082613332,238.81394797058158L754.4430782348306,238.4588620785197L756.1570989473545,235.00938194158687L757.8145001927605,233.9673862749761L756.9150195094976,231.23112775446612L757.710966549669,230.21946982358543L759.2675644401475,228.00626465051334L759.5976753836125,229.3483880598833L761.0029872963403,228.9982915574567L761.9203766018413,230.25519393327977L764.3735302511046,230.52909253257974L765.642234196155,232.30100836976135Z" style="fill: inherit; stroke: inherit; stroke-width: inherit;" vector-effect="non-scaling-stroke"><title>Centre County</title></path><path id="county-42089" class="county feature" d="M799.5481154894433,222.6633185916471L799.8763164185715,222.54702167332948L798.3015604130721,225.33479535334402L796.4430468076805,227.76047785853962L794.0941159760322,229.22814063008082L792.1696171759552,227.01594530000136L793.093530196727,226.11911748424086L790.4654160250312,224.09335899948292L790.9683962066886,223.22621802430683L791.9735783314215,221.63917461758479L793.9525301528677,221.06951093451983L797.0367665824148,220.1291687634539L797.0568625553028,222.1036546537349Z" style="fill: inherit; stroke: inherit; stroke-width: inherit;" vector-effect="non-scaling-stroke"><title>Monroe County</title></path><path id="county-42097" class="county feature" d="M775.483719924878,226.3036494076896L775.5167918556846,230.62917423755732L777.2354200072632,229.86481023429747L779.3865309550404,231.06394443328918L781.8264138622294,232.6135448936227L777.8621447959422,235.69659279431824L775.4487097469125,237.10814212527055L774.5661559951468,236.9449255565379L774.6567682567681,236.73240128800626L775.6729158999746,235.03014815185963L775.6576564749707,231.84248905435595L774.2241570291504,230.42157764769684L773.3769382069113,227.36964322278595Z" style="fill: inherit; stroke: inherit; stroke-width: inherit;" vector-effect="non-scaling-stroke"><title>Northumberland County</title></path><path id="county-42093" class="county feature" d="M776.8007813467923,226.34616623731472L777.476227785543,227.98079899182244L779.3585492052191,229.84337675738595L779.3865309550404,231.06394443328918L777.2354200072632,229.86481023429747L775.5167918556846,230.62917423755732L775.483719924878,226.3036494076896Z" style="fill: inherit; stroke: inherit; stroke-width: inherit;" vector-effect="non-scaling-stroke"><title>Montour County</title></path><path id="county-42019" class="county feature" d="M734.8989475317862,233.97198906749384L734.9650302559462,234.00159277045873L736.5464463613577,243.30387696202013L730.2214000028646,244.29290718639766L729.5225623410837,240.95930672734107L728.9746016057446,238.2768174124833L729.697281717533,236.8318710494376L730.7143420362102,234.7095843994532Z" style="fill: inherit; stroke: inherit; stroke-width: inherit;" vector-effect="non-scaling-stroke"><title>Butler County</title></path><path id="county-42005" class="county feature" d="M741.8944658998179,235.08406884034855L742.3494185359239,237.66197020398772L742.8024149436648,240.1717241123963L740.3585134979348,245.3068510470889L736.5545224120184,243.32096106492918L736.5464463613577,243.30387696202013L734.9650302559462,234.00159277045873L735.698688874838,236.1797659845373L737.9226285496314,237.22427978718417L741.1179863087757,236.0154794983049Z" style="fill: inherit; stroke: inherit; stroke-width: inherit;" vector-effect="non-scaling-stroke"><title>Armstrong County</title></path><path id="county-42119" class="county feature" d="M775.6576564749707,231.84248905435595L773.676141875337,232.13525697806654L768.2963422018523,234.7631912678229L768.0472684568629,234.05149355331412L770.3371732427063,229.8040829421667L770.246273037694,229.3519254160409L772.4494019035399,228.53968833481815L773.3769382069113,227.36964322278595L774.2241570291504,230.42157764769684Z" style="fill: inherit; stroke: inherit; stroke-width: inherit;" vector-effect="non-scaling-stroke"><title>Union County</title></path><path id="county-42025" class="county feature" d="M790.4654160250312,224.09335899948292L793.093530196727,226.11911748424086L792.1696171759552,227.01594530000136L794.0941159760322,229.22814063008082L792.3562444053172,230.1362478066203L790.5219938021289,231.5344852658178L786.539591585012,228.97062283768946L789.7894384836027,226.43826134684298L788.9790078344957,225.0158348234462Z" style="fill: inherit; stroke: inherit; stroke-width: inherit;" vector-effect="non-scaling-stroke"><title>Carbon County</title></path><path id="county-42073" class="county feature" d="M729.697281717533,236.8318710494376L728.9746016057446,238.2768174124833L729.5225623410837,240.95930672734107L724.5547934937332,241.8561547813457L724.3980562924135,240.96439247111869L723.7109884809668,236.78347592800208L728.8676705425564,236.1307316702239Z" style="fill: inherit; stroke: inherit; stroke-width: inherit;" vector-effect="non-scaling-stroke"><title>Lawrence County</title></path><path id="county-42095" class="county feature" d="M798.7294024981194,232.18188069318285L797.139343549298,233.91801563845706L795.2653333228977,231.6972146914403L794.5994798643012,232.1904408793922L792.3562444053172,230.1362478066203L794.0941159760322,229.22814063008082L796.4430468076805,227.76047785853962L798.3015604130721,225.33479535334402L799.6641485394396,226.91653071026008L798.3703393984292,228.9915735796743Z" style="fill: inherit; stroke: inherit; stroke-width: inherit;" vector-effect="non-scaling-stroke"><title>Northampton County</title></path><path id="county-42107" class="county feature" d="M786.539591585012,228.97062283768946L790.5219938021289,231.5344852658178L788.9210106859595,233.00145178682556L785.6262459456743,236.44363318525484L782.079680375002,237.93992944568447L780.5419985809667,237.12107847676464L777.8621447959422,235.69659279431824L781.8264138622294,232.6135448936227L782.7292908713134,231.91759432192828L783.5171988451941,228.905437514322Z" style="fill: inherit; stroke: inherit; stroke-width: inherit;" vector-effect="non-scaling-stroke"><title>Schuylkill County</title></path><path id="county-42063" class="county feature" d="M748.0178225550883,236.7405677217797L748.6824316283894,240.09408141012375L747.3966752175537,246.61843102658634L745.7401075673437,247.4417213778953L744.8065932446254,246.76608571053998L741.3723789792588,246.54721165726392L740.3585134979348,245.3068510470889L742.8024149436648,240.1717241123963L742.3494185359239,237.66197020398772Z" style="fill: inherit; stroke: inherit; stroke-width: inherit;" vector-effect="non-scaling-stroke"><title>Indiana County</title></path><path id="county-42109" class="county feature" d="M775.6576564749707,231.84248905435595L775.6729158999746,235.03014815185963L774.6567682567681,236.73240128800626L773.1537339547106,236.2452871079098L769.6578729162611,236.67698566532647L768.7138504181346,236.70916467783718L768.2963422018523,234.7631912678229L773.676141875337,232.13525697806654Z" style="fill: inherit; stroke: inherit; stroke-width: inherit;" vector-effect="non-scaling-stroke"><title>Snyder County</title></path><path id="county-42007" class="county feature" d="M729.5225623410837,240.95930672734107L730.2214000028646,244.29290718639766L730.0226754477178,245.57396998624824L727.8910594073212,248.44352138008014L725.6924466672777,248.80979478730148L725.2000132677055,245.8133302119669L724.5547934937332,241.8561547813457Z" style="fill: inherit; stroke: inherit; stroke-width: inherit;" vector-effect="non-scaling-stroke"><title>Beaver County</title></path><path id="county-42087" class="county feature" d="M764.4016854149185,243.75463150948747L762.0915363771601,243.82954995998068L763.0749485437041,241.69573710866234L762.5421233971394,240.83001619074173L764.2210761509409,238.0713084560242L764.1093319109851,237.0777395696564L768.0472684568629,234.05149355331412L768.2963422018523,234.7631912678229L768.7138504181346,236.70916467783718L769.6578729162611,236.67698566532647L767.1787131275996,239.3152278571373Z" style="fill: inherit; stroke: inherit; stroke-width: inherit;" vector-effect="non-scaling-stroke"><title>Mifflin County</title></path><path id="county-42077" class="county feature" d="M797.139343549298,233.91801563845706L795.5554953320773,236.5503453326803L794.8124583450274,236.15987666293734L788.9210106859595,233.00145178682556L790.5219938021289,231.5344852658178L792.3562444053172,230.1362478066203L794.5994798643012,232.1904408793922L795.2653333228977,231.6972146914403Z" style="fill: inherit; stroke: inherit; stroke-width: inherit;" vector-effect="non-scaling-stroke"><title>Lehigh County</title></path><path id="county-42061" class="county feature" d="M764.1093319109851,237.0777395696564L764.2210761509409,238.0713084560242L762.5421233971394,240.83001619074173L763.0749485437041,241.69573710866234L762.0915363771601,243.82954995998068L764.4016854149185,243.75463150948747L765.4920993495534,245.75092755384628L763.9752030494022,249.9262313855602L759.850862603072,248.72971279532396L758.2367393711751,247.89849547990525L757.6809158257158,246.59548032433702L758.7710320603098,243.02575832060268L756.9358657771115,239.82587238796225L758.0868041881982,238.05438170573416L760.6257143129461,238.48430592363798L762.0867791104779,237.20291069028383Z" style="fill: inherit; stroke: inherit; stroke-width: inherit;" vector-effect="non-scaling-stroke"><title>Huntingdon County</title></path><path id="county-42013" class="county feature" d="M757.6809158257158,246.59548032433702L757.4474653897855,247.68187244188448L755.2106041368404,246.9752394110759L755.2237353729538,248.0940560165883L752.5456285277442,246.99722105684214L753.1776067797455,246.04439160604431L753.0484995315519,243.46532030988135L754.9062821601517,238.9339575515569L754.7505082613332,238.81394797058158L758.0868041881982,238.05438170573416L756.9358657771115,239.82587238796225L758.7710320603098,243.02575832060268Z" style="fill: inherit; stroke: inherit; stroke-width: inherit;" vector-effect="non-scaling-stroke"><title>Blair County</title></path><path id="county-42021" class="county feature" d="M754.9062821601517,238.9339575515569L753.0484995315519,243.46532030988135L753.1776067797455,246.04439160604431L752.5456285277442,246.99722105684214L752.3050816256309,248.6523918537889L749.0262631168875,249.12971376347377L746.637667692162,248.88336931175365L747.3966752175537,246.61843102658634L748.6824316283894,240.09408141012375Z" style="fill: inherit; stroke: inherit; stroke-width: inherit;" vector-effect="non-scaling-stroke"><title>Cambria County</title></path><path id="county-42067" class="county feature" d="M774.6567682567681,236.73240128800626L774.5661559951468,236.9449255565379L771.5181371502849,238.44390534387026L767.2582794422083,242.80520507459937L765.8309033972424,245.1847002146137L765.4920993495534,245.75092755384628L764.4016854149185,243.75463150948747L767.1787131275996,239.3152278571373L769.6578729162611,236.67698566532647L773.1537339547106,236.2452871079098Z" style="fill: inherit; stroke: inherit; stroke-width: inherit;" vector-effect="non-scaling-stroke"><title>Juniata County</title></path><path id="county-42129" class="county feature" d="M740.3585134979348,245.3068510470889L741.3723789792588,246.54721165726392L744.8065932446254,246.76608571053998L745.7401075673437,247.4417213778953L747.3966752175537,246.61843102658634L746.637667692162,248.88336931175365L745.4220974493536,252.45085861736823L744.1404975017604,254.008699213279L740.9834341510624,252.55232549517734L739.1806148101106,254.07042689884918L737.5479402720802,253.48628163615433L735.719997367349,253.82532317676703L735.5903135834008,252.4971134497747L736.3463025733536,251.53444047152482L736.8928216403635,246.0720101933831L735.7111760594157,245.16407176066934L736.5545224120184,243.32096106492918Z" style="fill: inherit; stroke: inherit; stroke-width: inherit;" vector-effect="non-scaling-stroke"><title>Westmoreland County</title></path><path id="county-42011" class="county feature" d="M794.8124583450274,236.15987666293734L793.3299923819878,240.440597791021L791.3001016463984,242.89302124692665L786.7642967120976,240.4251808775159L782.079680375002,237.93992944568447L785.6262459456743,236.44363318525484L788.9210106859595,233.00145178682556Z" style="fill: inherit; stroke: inherit; stroke-width: inherit;" vector-effect="non-scaling-stroke"><title>Berks County</title></path><path id="county-42003" class="county feature" d="M736.5464463613577,243.30387696202013L736.5545224120184,243.32096106492918L735.7111760594157,245.16407176066934L736.8928216403635,246.0720101933831L736.3463025733536,251.53444047152482L735.5903135834008,252.4971134497747L734.799880273342,251.57675732781843L730.80584627523,250.72391799961383L727.8910594073212,248.44352138008014L730.0226754477178,245.57396998624824L730.2214000028646,244.29290718639766Z" style="fill: inherit; stroke: inherit; stroke-width: inherit;" vector-effect="non-scaling-stroke"><title>Allegheny County</title></path><path id="county-42043" class="county feature" d="M777.8621447959422,235.69659279431824L780.5419985809667,237.12107847676464L778.8852997250629,239.01186168423646L781.4564287840301,243.84398540091206L779.6312121543904,245.64927796437746L779.229037424732,244.57562055560163L777.3401678372338,244.07712997175759L776.1619336704828,242.38265690362425L774.3657658846078,241.62668416736858L775.1202312469737,240.05292798569292L774.2045478339378,238.25830821773593L774.5661559951468,236.9449255565379L775.4487097469125,237.10814212527055Z" style="fill: inherit; stroke: inherit; stroke-width: inherit;" vector-effect="non-scaling-stroke"><title>Dauphin County</title></path><path id="county-42099" class="county feature" d="M776.1619336704828,242.38265690362425L771.435310517214,244.29262687016842L769.9797634437166,243.91066519731794L766.9524338802581,246.71857914782106L765.8309033972424,245.1847002146137L767.2582794422083,242.80520507459937L771.5181371502849,238.44390534387026L774.5661559951468,236.9449255565379L774.2045478339378,238.25830821773593L775.1202312469737,240.05292798569292L774.3657658846078,241.62668416736858Z" style="fill: inherit; stroke: inherit; stroke-width: inherit;" vector-effect="non-scaling-stroke"><title>Perry County</title></path><path id="county-42017" class="county feature" d="M803.3194491957331,236.30516107633161L807.1403136680077,239.19554836403768L804.1018362101597,241.7916867713642L803.1673899266727,240.27527442917335L795.5554953320773,236.5503453326803L797.139343549298,233.91801563845706L798.7294024981194,232.18188069318285L798.896244730262,232.4671394295657L800.7785065050551,233.02159211040612L801.3482626393316,235.1961664757381Z" style="fill: inherit; stroke: inherit; stroke-width: inherit;" vector-effect="non-scaling-stroke"><title>Bucks County</title></path><path id="county-42075" class="county feature" d="M781.4564287840301,243.84398540091206L778.8852997250629,239.01186168423646L780.5419985809667,237.12107847676464L782.079680375002,237.93992944568447L786.7642967120976,240.4251808775159L784.8432721053241,241.99849001317853Z" style="fill: inherit; stroke: inherit; stroke-width: inherit;" vector-effect="non-scaling-stroke"><title>Lebanon County</title></path><path id="county-42125" class="county feature" d="M727.8910594073212,248.44352138008014L730.80584627523,250.72391799961383L734.799880273342,251.57675732781843L735.5903135834008,252.4971134497747L735.719997367349,253.82532317676703L736.0186564673735,255.50875821712395L734.4909524526277,256.7789055757827L730.3295661650857,256.7939719774955L727.2658251657297,258.3838263990872L727.1058643014587,257.37909231984895L726.662895456876,254.71499013500284L725.9473482218805,250.26726844499126L725.6924466672777,248.80979478730148Z" style="fill: inherit; stroke: inherit; stroke-width: inherit;" vector-effect="non-scaling-stroke"><title>Washington County</title></path><path id="county-42091" class="county feature" d="M803.1673899266727,240.27527442917335L802.2367170909182,242.25852136939852L800.4672026058643,241.7494350565163L801.0409236212281,243.1825678487894L800.2100484663822,244.04203299962262L798.6824972356709,242.67018771355833L797.276974226238,242.55044938949789L794.7028067234296,240.26220910049017L793.3299923819878,240.440597791021L794.8124583450274,236.15987666293734L795.5554953320773,236.5503453326803Z" style="fill: inherit; stroke: inherit; stroke-width: inherit;" vector-effect="non-scaling-stroke"><title>Montgomery County</title></path><path id="county-42041" class="county feature" d="M777.3401678372338,244.07712997175759L776.9031483814638,245.3624550860668L775.1749410415696,246.16450582243704L774.0493670392128,247.77932008116557L773.5256774821503,248.6578347150819L770.6271291555593,249.91291201177876L769.87300292284,251.03212891407634L766.9524338802581,246.71857914782106L769.9797634437166,243.91066519731794L771.435310517214,244.29262687016842L776.1619336704828,242.38265690362425Z" style="fill: inherit; stroke: inherit; stroke-width: inherit;" vector-effect="non-scaling-stroke"><title>Cumberland County</title></path><path id="county-42009" class="county feature" d="M757.6809158257158,246.59548032433702L758.2367393711751,247.89849547990525L759.850862603072,248.72971279532396L758.7496237964963,255.4691994894598L757.9712848059349,257.5728532147157L751.9835253103518,258.67667712277705L752.3565710998218,256.6619616580484L751.4804820278707,252.36504471329852L752.3050816256309,248.6523918537889L752.5456285277442,246.99722105684214L755.2237353729538,248.0940560165883L755.2106041368404,246.9752394110759L757.4474653897855,247.68187244188448Z" style="fill: inherit; stroke: inherit; stroke-width: inherit;" vector-effect="non-scaling-stroke"><title>Bedford County</title></path><path id="county-42071" class="county feature" d="M791.3001016463984,242.89302124692665L790.4528859112825,243.61731259763485L790.734043996438,248.19081855793786L789.3072240601117,251.34013973309334L787.9470874140503,251.6237569901275L787.8521255385492,251.6437930569134L783.8241261625471,248.21522695563135L782.4159049596445,246.36787223654085L779.6312121543904,245.64927796437746L781.4564287840301,243.84398540091206L784.8432721053241,241.99849001317853L786.7642967120976,240.4251808775159Z" style="fill: inherit; stroke: inherit; stroke-width: inherit;" vector-effect="non-scaling-stroke"><title>Lancaster County</title></path><path id="county-42055" class="county feature" d="M766.9524338802581,246.71857914782106L769.87300292284,251.03212891407634L770.8562122322701,255.14125326582553L770.7158960685413,255.16897050936348L761.9028856545759,256.8387933212564L762.8868560448566,254.645874629412L763.9752030494022,249.9262313855602L765.4920993495534,245.75092755384628L765.8309033972424,245.1847002146137Z" style="fill: inherit; stroke: inherit; stroke-width: inherit;" vector-effect="non-scaling-stroke"><title>Franklin County</title></path><path id="county-42111" class="county feature" d="M752.3050816256309,248.6523918537889L751.4804820278707,252.36504471329852L752.3565710998218,256.6619616580484L751.9835253103518,258.67667712277705L750.2650937394131,258.99082560799457L743.8081994321573,260.1705246504083L743.0237354838495,257.77984829228694L744.1404975017604,254.008699213279L745.4220974493536,252.45085861736823L746.637667692162,248.88336931175365L749.0262631168875,249.12971376347377Z" style="fill: inherit; stroke: inherit; stroke-width: inherit;" vector-effect="non-scaling-stroke"><title>Somerset County</title></path><path id="county-42029" class="county feature" d="M796.3808992714295,247.57665369280323L796.5652733736183,247.51260080657255L796.3808992714295,247.57665369280323ZM798.6824972356709,242.67018771355833L796.9180787379233,245.40338330243014L796.3711496164428,247.57981593910358L794.133055557167,250.28665511635404L789.3072240601117,251.34013973309334L790.734043996438,248.19081855793786L790.4528859112825,243.61731259763485L791.3001016463984,242.89302124692665L793.3299923819878,240.440597791021L794.7028067234296,240.26220910049017L797.276974226238,242.55044938949789Z" style="fill: inherit; stroke: inherit; stroke-width: inherit;" vector-effect="non-scaling-stroke"><title>Chester County</title></path><path id="county-42133" class="county feature" d="M779.6312121543904,245.64927796437746L782.4159049596445,246.36787223654085L783.8241261625471,248.21522695563135L787.8521255385492,251.6437930569134L783.2628809365754,252.60670598286606L780.2325768573535,253.23861403656156L777.2721144900929,253.8553430297859L777.3798066042789,251.20331898096128L775.8977634124162,248.48140721479047L774.0493670392128,247.77932008116557L775.1749410415696,246.16450582243704L776.9031483814638,245.3624550860668L777.3401678372338,244.07712997175759L779.229037424732,244.57562055560163Z" style="fill: inherit; stroke: inherit; stroke-width: inherit;" vector-effect="non-scaling-stroke"><title>York County</title></path><path id="county-42057" class="county feature" d="M763.9752030494022,249.9262313855602L762.8868560448566,254.645874629412L761.9028856545759,256.8387933212564L758.4995316043979,257.47986076946654L757.9712848059349,257.5728532147157L758.7496237964963,255.4691994894598L759.850862603072,248.72971279532396Z" style="fill: inherit; stroke: inherit; stroke-width: inherit;" vector-effect="non-scaling-stroke"><title>Fulton County</title></path><path id="county-42051" class="county feature" d="M744.1404975017604,254.008699213279L743.0237354838495,257.77984829228694L743.8081994321573,260.1705246504083L742.632609726813,260.38677648611747L738.607741924495,261.09354748565625L736.463081546718,261.46175323169825L735.7091242627766,257.71432901896435L734.4909524526277,256.7789055757827L736.0186564673735,255.50875821712395L735.719997367349,253.82532317676703L737.5479402720802,253.48628163615433L739.1806148101106,254.07042689884918L740.9834341510624,252.55232549517734Z" style="fill: inherit; stroke: inherit; stroke-width: inherit;" vector-effect="non-scaling-stroke"><title>Fayette County</title></path><path id="county-42101" class="county feature" d="M804.1018362101597,241.7916867713642L803.1536559423523,243.0720531493838L802.4145729326646,245.25171552105917L801.4667266360107,245.8257391186578L800.2100484663822,244.04203299962262L801.0409236212281,243.1825678487894L800.4672026058643,241.7494350565163L802.2367170909182,242.25852136939852L803.1673899266727,240.27527442917335Z" style="fill: inherit; stroke: inherit; stroke-width: inherit;" vector-effect="non-scaling-stroke"><title>Philadelphia County</title></path><path id="county-42001" class="county feature" d="M777.2721144900929,253.8553430297859L774.2485569720343,254.46955273525782L770.8562122322701,255.14125326582553L769.87300292284,251.03212891407634L770.6271291555593,249.91291201177876L773.5256774821503,248.6578347150819L774.0493670392128,247.77932008116557L775.8977634124162,248.48140721479047L777.3798066042789,251.20331898096128Z" style="fill: inherit; stroke: inherit; stroke-width: inherit;" vector-effect="non-scaling-stroke"><title>Adams County</title></path><path id="county-42045" class="county feature" d="M800.2100484663822,244.04203299962262L801.4667266360107,245.8257391186578L798.8549148856002,247.61937821778338L796.5652733736183,247.51260080657255L796.3808992714295,247.57665369280323L796.3711496164428,247.57981593910358L796.9180787379233,245.40338330243014L798.6824972356709,242.67018771355833Z" style="fill: inherit; stroke: inherit; stroke-width: inherit;" vector-effect="non-scaling-stroke"><title>Delaware County</title></path><path id="county-42059" class="county feature" d="M734.4909524526277,256.7789055757827L735.7091242627766,257.71432901896435L736.463081546718,261.46175323169825L729.3792197792242,262.6445196231333L727.9972732600256,262.86619824844445L727.2658251657297,258.3838263990872L730.3295661650857,256.7939719774955Z" style="fill: inherit; stroke: inherit; stroke-width: inherit;" vector-effect="non-scaling-stroke"><title>Greene County</title></path></g><path id="counties-mesh" class="counties mesh" d="M780.2489368681179,209.39558169508246L782.0330258703275,215.70268721535342L780.9162546085777,216.04363761961827L781.0460730347783,218.02976635811808L772.7977601387822,218.8206420658472L771.9444651228725,218.86912040630546L769.7307323710916,211.58014130922527M771.9444651228725,218.86912040630546L770.954050642434,219.94131814013213L762.2927831043619,221.84387629577304L760.4960770582957,213.4251242736425M752.4241308533109,214.97943774622593L753.8044360995547,222.02550319875445L750.9226142455303,222.87463521005247L749.951962080454,222.52636794938098L743.5314267791118,223.8208307209013L742.7799735423564,216.8192815927532M762.2927831043619,221.84387629577304L762.5430096919182,223.01658081423955L757.2292729988826,224.12022334347853L756.3898645085579,224.2675630195705L753.8044360995547,222.02550319875445M796.3865255561205,213.53977795403273L793.9525301528677,221.06951093451983L791.9735783314215,221.63917461758479L792.7490217051072,220.97419567703514L790.9137255228832,213.98891968393536L789.203022528666,207.487550375031M790.9137255228832,213.98891968393536L787.4090618966836,214.74082130758472L782.0330258703275,215.70268721535342M750.9226142455303,222.87463521005247L751.5908363140516,226.5271398224395L753.8613867726714,226.10436743854848L754.6959345755304,229.2827593759397L749.0126814941195,229.8993378974692L748.3194194019584,231.0214304919116L747.7672911431694,229.9538922273657L744.3657361746884,228.6751040589777L742.5751351854774,229.4062015687607L742.6326488945683,227.2467871487022L744.1192982638083,227.28741988265062L743.5314267791118,223.8208307209013L735.9461634743898,225.1606337615599L734.5717733002176,225.4130438247687L733.8515746354958,221.2196794625529M734.5717733002176,225.4130438247687L731.6278296670846,225.957151674403L729.7108963934172,228.80541127169226L722.5984790605798,230.0136797556629L722.5666763796828,229.82015540120676L721.4990611662116,223.32354759434952M787.4090618966836,214.74082130758472L786.725647833051,219.02836327263333L784.5189343015978,220.32363356156952L780.832213820871,221.24365509707548L781.0460730347783,218.02976635811808M791.9735783314215,221.63917461758479L790.9683962066886,223.22621802430683L790.2136717223335,222.888574961161L789.0985819602076,220.20447539609597L786.725647833051,219.02836327263333M742.5751351854774,229.4062015687607L741.0467117661651,229.85052761192105L740.7444795338511,228.0157475284899L738.084796649077,228.38105085590212L737.1862261974793,229.4908569350357L735.9461634743898,225.1606337615599M737.1862261974793,229.4908569350357L737.3467450833707,230.43378893770898L735.6659971989652,230.99775282304392L734.8989475317862,233.97198906749384L730.7143420362102,234.7095843994532L729.7108963934172,228.80541127169226M757.2292729988826,224.12022334347853L757.6089695442898,226.07333749088684L756.7139167452494,229.15999855222617L754.6959345755304,229.2827593759397M733.4053012486585,218.4841959160142L733.8515746354958,221.2196794625529L721.4990611662116,223.32354759434952L721.108616984983,220.94763286036505L723.4954579527188,219.43680725392596L730.4744853321192,213.80290259594676L731.3391806226347,218.81468398579568L733.4053012486585,218.4841959160142L740.8437950089933,217.11923940816087L742.7799735423564,216.8192815927532L751.0584545202175,215.2373902024931L752.4241308533109,214.97943774622593L758.6119229952343,213.84124728241557L760.4960770582957,213.4251242736425L769.2024163313149,211.6874974402998L769.7307323710916,211.58014130922527L774.7063515491363,210.55795536801065L780.2489368681179,209.39558169508246L780.8053368423135,209.27751255564306L789.203022528666,207.487550375031L790.8116575178387,207.1109714509521L792.7732351261042,209.3313492386569L794.4052757652618,209.15883232320994L795.9964359245496,210.72913925539376L796.3865255561205,213.53977795403273L798.0814269003029,215.5226645541336L801.3905607508092,215.8276230427706L802.4142693041185,216.95295062867206L800.8658707828774,218.79471558540592L799.5481154894433,222.6633185916471L797.0568625553028,222.1036546537349L797.0367665824148,220.1291687634539L793.9525301528677,221.06951093451983M772.7977601387822,218.8206420658472L774.3450809878129,222.02753881454908L776.8902983115836,223.47037022567588L778.9813964683178,223.58718419612558L776.8007813467923,226.34616623731472L775.483719924878,226.3036494076896L773.3769382069113,227.36964322278595L772.4494019035399,228.53968833481815L770.246273037694,229.3519254160409L763.9411095807446,225.0364853579241L762.5430096919182,223.01658081423955M780.832213820871,221.24365509707548L780.7170910390639,222.5883318939973L778.9813964683178,223.58718419612558M730.7143420362102,234.7095843994532L729.697281717533,236.8318710494376L728.8676705425564,236.1307316702239L723.7109884809668,236.78347592800208L723.6893621591498,236.62099570255225L722.5984790605798,230.0136797556629M770.246273037694,229.3519254160409L770.3371732427063,229.8040829421667L765.642234196155,232.30100836976135L764.3735302511046,230.52909253257974L761.9203766018413,230.25519393327977L761.0029872963403,228.9982915574567L759.5976753836125,229.3483880598833L759.2675644401475,228.00626465051334L757.710966549669,230.21946982358543L756.7139167452494,229.15999855222617M741.0467117661651,229.85052761192105L741.8944658998179,235.08406884034855L741.1179863087757,236.0154794983049L737.9226285496314,237.22427978718417L735.698688874838,236.1797659845373L734.9650302559462,234.00159277045873L734.8989475317862,233.97198906749384M790.9683962066886,223.22621802430683L790.4654160250312,224.09335899948292L788.9790078344957,225.0158348234462L789.7894384836027,226.43826134684298L786.539591585012,228.97062283768946L783.5171988451941,228.905437514322L782.4933544707318,225.48912156152255L781.0063216923197,224.52385816687718L780.7170910390639,222.5883318939973M748.3194194019584,231.0214304919116L747.2602114102738,232.57085374427743L748.0178225550883,236.7405677217797L742.3494185359239,237.66197020398772L741.8944658998179,235.08406884034855M783.5171988451941,228.905437514322L782.7292908713134,231.91759432192828L781.8264138622294,232.6135448936227L779.3865309550404,231.06394443328918L779.3585492052191,229.84337675738595L777.476227785543,227.98079899182244L776.8007813467923,226.34616623731472M757.710966549669,230.21946982358543L756.9150195094976,231.23112775446612L757.8145001927605,233.9673862749761L756.1570989473545,235.00938194158687L754.4430782348306,238.4588620785197L754.7505082613332,238.81394797058158L754.9062821601517,238.9339575515569L748.6824316283894,240.09408141012375L748.0178225550883,236.7405677217797M770.3371732427063,229.8040829421667L768.0472684568629,234.05149355331412L764.1093319109851,237.0777395696564L762.0867791104779,237.20291069028383L760.6257143129461,238.48430592363798L758.0868041881982,238.05438170573416L754.7505082613332,238.81394797058158M799.5481154894433,222.6633185916471L799.8763164185715,222.54702167332948L798.3015604130721,225.33479535334402L796.4430468076805,227.76047785853962L794.0941159760322,229.22814063008082L792.1696171759552,227.01594530000136L793.093530196727,226.11911748424086L790.4654160250312,224.09335899948292M775.483719924878,226.3036494076896L775.5167918556846,230.62917423755732L777.2354200072632,229.86481023429747L779.3865309550404,231.06394443328918M781.8264138622294,232.6135448936227L777.8621447959422,235.69659279431824L775.4487097469125,237.10814212527055L774.5661559951468,236.9449255565379L774.6567682567681,236.73240128800626L775.6729158999746,235.03014815185963L775.6576564749707,231.84248905435595L774.2241570291504,230.42157764769684L773.3769382069113,227.36964322278595M734.9650302559462,234.00159277045873L736.5464463613577,243.30387696202013L730.2214000028646,244.29290718639766L729.5225623410837,240.95930672734107L728.9746016057446,238.2768174124833L729.697281717533,236.8318710494376M742.3494185359239,237.66197020398772L742.8024149436648,240.1717241123963L740.3585134979348,245.3068510470889L736.5545224120184,243.32096106492918L736.5464463613577,243.30387696202013M775.6576564749707,231.84248905435595L773.676141875337,232.13525697806654L768.2963422018523,234.7631912678229L768.0472684568629,234.05149355331412M729.5225623410837,240.95930672734107L724.5547934937332,241.8561547813457L724.3980562924135,240.96439247111869L723.7109884809668,236.78347592800208M794.0941159760322,229.22814063008082L792.3562444053172,230.1362478066203L790.5219938021289,231.5344852658178L786.539591585012,228.97062283768946M798.7294024981194,232.18188069318285L797.139343549298,233.91801563845706L795.2653333228977,231.6972146914403L794.5994798643012,232.1904408793922L792.3562444053172,230.1362478066203M790.5219938021289,231.5344852658178L788.9210106859595,233.00145178682556L785.6262459456743,236.44363318525484L782.079680375002,237.93992944568447L780.5419985809667,237.12107847676464L777.8621447959422,235.69659279431824M730.2214000028646,244.29290718639766L730.0226754477178,245.57396998624824L727.8910594073212,248.44352138008014L725.6924466672777,248.80979478730148L725.2000132677055,245.8133302119669L724.5547934937332,241.8561547813457M748.6824316283894,240.09408141012375L747.3966752175537,246.61843102658634L745.7401075673437,247.4417213778953L744.8065932446254,246.76608571053998L741.3723789792588,246.54721165726392L740.3585134979348,245.3068510470889M774.6567682567681,236.73240128800626L773.1537339547106,236.2452871079098L769.6578729162611,236.67698566532647L768.7138504181346,236.70916467783718L768.2963422018523,234.7631912678229M769.6578729162611,236.67698566532647L767.1787131275996,239.3152278571373L764.4016854149185,243.75463150948747L762.0915363771601,243.82954995998068L763.0749485437041,241.69573710866234L762.5421233971394,240.83001619074173L764.2210761509409,238.0713084560242L764.1093319109851,237.0777395696564M797.139343549298,233.91801563845706L795.5554953320773,236.5503453326803L794.8124583450274,236.15987666293734L788.9210106859595,233.00145178682556M764.4016854149185,243.75463150948747L765.4920993495534,245.75092755384628L763.9752030494022,249.9262313855602L759.850862603072,248.72971279532396L758.2367393711751,247.89849547990525L757.6809158257158,246.59548032433702L758.7710320603098,243.02575832060268L756.9358657771115,239.82587238796225L758.0868041881982,238.05438170573416M757.6809158257158,246.59548032433702L757.4474653897855,247.68187244188448L755.2106041368404,246.9752394110759L755.2237353729538,248.0940560165883L752.5456285277442,246.99722105684214L753.1776067797455,246.04439160604431L753.0484995315519,243.46532030988135L754.9062821601517,238.9339575515569M752.5456285277442,246.99722105684214L752.3050816256309,248.6523918537889L749.0262631168875,249.12971376347377L746.637667692162,248.88336931175365L747.3966752175537,246.61843102658634M780.5419985809667,237.12107847676464L778.8852997250629,239.01186168423646L781.4564287840301,243.84398540091206L779.6312121543904,245.64927796437746L779.229037424732,244.57562055560163L777.3401678372338,244.07712997175759L776.1619336704828,242.38265690362425L774.3657658846078,241.62668416736858L775.1202312469737,240.05292798569292L774.2045478339378,238.25830821773593L774.5661559951468,236.9449255565379L771.5181371502849,238.44390534387026L767.2582794422083,242.80520507459937L765.8309033972424,245.1847002146137L765.4920993495534,245.75092755384628M746.637667692162,248.88336931175365L745.4220974493536,252.45085861736823L744.1404975017604,254.008699213279L740.9834341510624,252.55232549517734L739.1806148101106,254.07042689884918L737.5479402720802,253.48628163615433L735.719997367349,253.82532317676703L735.5903135834008,252.4971134497747L736.3463025733536,251.53444047152482L736.8928216403635,246.0720101933831L735.7111760594157,245.16407176066934L736.5545224120184,243.32096106492918M794.8124583450274,236.15987666293734L793.3299923819878,240.440597791021L791.3001016463984,242.89302124692665L786.7642967120976,240.4251808775159L782.079680375002,237.93992944568447M735.5903135834008,252.4971134497747L734.799880273342,251.57675732781843L730.80584627523,250.72391799961383L727.8910594073212,248.44352138008014M735.719997367349,253.82532317676703L736.0186564673735,255.50875821712395L734.4909524526277,256.7789055757827L730.3295661650857,256.7939719774955L727.2658251657297,258.3838263990872L727.1058643014587,257.37909231984895L726.662895456876,254.71499013500284L725.9473482218805,250.26726844499126L725.6924466672777,248.80979478730148M776.1619336704828,242.38265690362425L771.435310517214,244.29262687016842L769.9797634437166,243.91066519731794L766.9524338802581,246.71857914782106L765.8309033972424,245.1847002146137M798.3015604130721,225.33479535334402L799.6641485394396,226.91653071026008L798.3703393984292,228.9915735796743L798.7294024981194,232.18188069318285L798.896244730262,232.4671394295657L800.7785065050551,233.02159211040612L801.3482626393316,235.1961664757381L803.3194491957331,236.30516107633161L807.1403136680077,239.19554836403768L804.1018362101597,241.7916867713642L803.1673899266727,240.27527442917335L795.5554953320773,236.5503453326803M786.7642967120976,240.4251808775159L784.8432721053241,241.99849001317853L781.4564287840301,243.84398540091206M803.1673899266727,240.27527442917335L802.2367170909182,242.25852136939852L800.4672026058643,241.7494350565163L801.0409236212281,243.1825678487894L800.2100484663822,244.04203299962262L798.6824972356709,242.67018771355833L797.276974226238,242.55044938949789L794.7028067234296,240.26220910049017L793.3299923819878,240.440597791021M777.3401678372338,244.07712997175759L776.9031483814638,245.3624550860668L775.1749410415696,246.16450582243704L774.0493670392128,247.77932008116557L773.5256774821503,248.6578347150819L770.6271291555593,249.91291201177876L769.87300292284,251.03212891407634L766.9524338802581,246.71857914782106M759.850862603072,248.72971279532396L758.7496237964963,255.4691994894598L757.9712848059349,257.5728532147157L751.9835253103518,258.67667712277705L752.3565710998218,256.6619616580484L751.4804820278707,252.36504471329852L752.3050816256309,248.6523918537889M791.3001016463984,242.89302124692665L790.4528859112825,243.61731259763485L790.734043996438,248.19081855793786L789.3072240601117,251.34013973309334L787.9470874140503,251.6237569901275L787.8521255385492,251.6437930569134L783.8241261625471,248.21522695563135L782.4159049596445,246.36787223654085L779.6312121543904,245.64927796437746M769.87300292284,251.03212891407634L770.8562122322701,255.14125326582553L770.7158960685413,255.16897050936348L761.9028856545759,256.8387933212564L762.8868560448566,254.645874629412L763.9752030494022,249.9262313855602M751.9835253103518,258.67667712277705L750.2650937394131,258.99082560799457L743.8081994321573,260.1705246504083L743.0237354838495,257.77984829228694L744.1404975017604,254.008699213279M798.6824972356709,242.67018771355833L796.9180787379233,245.40338330243014L796.3711496164428,247.57981593910358L794.133055557167,250.28665511635404L789.3072240601117,251.34013973309334M787.8521255385492,251.6437930569134L783.2628809365754,252.60670598286606L780.2325768573535,253.23861403656156L777.2721144900929,253.8553430297859L777.3798066042789,251.20331898096128L775.8977634124162,248.48140721479047L774.0493670392128,247.77932008116557M761.9028856545759,256.8387933212564L758.4995316043979,257.47986076946654L757.9712848059349,257.5728532147157M743.8081994321573,260.1705246504083L742.632609726813,260.38677648611747L738.607741924495,261.09354748565625L736.463081546718,261.46175323169825L735.7091242627766,257.71432901896435L734.4909524526277,256.7789055757827M804.1018362101597,241.7916867713642L803.1536559423523,243.0720531493838L802.4145729326646,245.25171552105917L801.4667266360107,245.8257391186578L800.2100484663822,244.04203299962262M777.2721144900929,253.8553430297859L774.2485569720343,254.46955273525782L770.8562122322701,255.14125326582553M801.4667266360107,245.8257391186578L798.8549148856002,247.61937821778338L796.5652733736183,247.51260080657255M796.3808992714295,247.57665369280323L796.5652733736183,247.51260080657255L796.3808992714295,247.57665369280323L796.3711496164428,247.57981593910358M736.463081546718,261.46175323169825L729.3792197792242,262.6445196231333L727.9972732600256,262.86619824844445L727.2658251657297,258.3838263990872" style="fill: inherit; stroke: inherit; stroke-width: inherit;" vector-effect="non-scaling-stroke"></path></svg>