<svg xmlns="http://www.w3.org/2000/svg" version="1.2" id="root" viewBox="721.108616984983 207.1109714509521 86.03169668302473 55.755226797492355"><g id="counties"><path id="county-42049" class="county feature" d="M733.405 218.484l.447 2.736-12.353 2.104-.39-2.376 2.386-1.511 6.98-5.634.864 5.012z" vector-effect="non-scaling-stroke" fill="inherit" stroke="inherit" stroke-width="inherit"><title>Erie County</title></path><path id="county-42015" class="county feature" d="M769.73 211.58l4.976-1.022 5.543-1.162 1.784 6.307-1.117.34.13 1.987-8.248.79-.854.05z" vector-effect="non-scaling-stroke" fill="inherit" stroke="inherit" stroke-width="inherit"><title>Bradford County</title></path><path id="county-42117" class="county feature" d="M769.202 211.687l.529-.107 2.213 7.29-.99 1.071-8.661 1.903-1.797-8.419z" vector-effect="non-scaling-stroke" fill="inherit" stroke="inherit" stroke-width="inherit"><title>Tioga County</title></path><path id="county-42083" class="county feature" d="M751.058 215.237l1.366-.258 1.38 7.047-2.881.849-.971-.349-6.42 1.295-.752-7.002z" vector-effect="non-scaling-stroke" fill="inherit" stroke="inherit" stroke-width="inherit"><title>McKean County</title></path><path id="county-42105" class="county feature" d="M758.612 213.841l1.884-.416 1.797 8.419.25 1.173-5.314 1.103-.84.148-2.585-2.242-1.38-7.047z" vector-effect="non-scaling-stroke" fill="inherit" stroke="inherit" stroke-width="inherit"><title>Potter County</title></path><path id="county-42127" class="county feature" d="M790.812 207.111l1.961 2.22 1.632-.172 1.591 1.57.39 2.81-2.433 7.53-1.98.57.776-.665-1.835-6.985-1.711-6.501z" vector-effect="non-scaling-stroke" fill="inherit" stroke="inherit" stroke-width="inherit"><title>Wayne County</title></path><path id="county-42115" class="county feature" d="M790.914 213.989l-3.505.752-5.376.962-1.784-6.307.556-.118 8.398-1.79z" vector-effect="non-scaling-stroke" fill="inherit" stroke="inherit" stroke-width="inherit"><title>Susquehanna County</title></path><path id="county-42123" class="county feature" d="M742.78 216.82l.751 7-7.585 1.34-1.374.253-.72-4.193-.447-2.736 7.439-1.365z" vector-effect="non-scaling-stroke" fill="inherit" stroke="inherit" stroke-width="inherit"><title>Warren County</title></path><path id="county-42039" class="county feature" d="M733.852 221.22l.72 4.193-2.944.544-1.917 2.848-7.113 1.209-.031-.194-1.068-6.496z" vector-effect="non-scaling-stroke" fill="inherit" stroke="inherit" stroke-width="inherit"><title>Crawford County</title></path><path id="county-42131" class="county feature" d="M782.033 215.703l5.376-.962-.683 4.287-2.207 1.296-3.687.92.214-3.214-.13-1.986z" vector-effect="non-scaling-stroke" fill="inherit" stroke="inherit" stroke-width="inherit"><title>Wyoming County</title></path><path id="county-42069" class="county feature" d="M790.914 213.989l1.835 6.985-.775.665-1.006 1.587-.754-.337-1.115-2.685-2.373-1.176.683-4.287z" vector-effect="non-scaling-stroke" fill="inherit" stroke="inherit" stroke-width="inherit"><title>Lackawanna County</title></path><path id="county-42047" class="county feature" d="M750.923 222.875l.668 3.652 2.27-.423.835 3.179-5.683.616-.694 1.122-.552-1.067-3.401-1.279-1.79.731.057-2.16 1.486.041-.588-3.466 6.421-1.295z" vector-effect="non-scaling-stroke" fill="inherit" stroke="inherit" stroke-width="inherit"><title>Elk County</title></path><path id="county-42053" class="county feature" d="M743.531 223.82l.588 3.467-1.486-.04-.058 2.16-1.528.444-.303-1.835-2.66.365-.898 1.11-1.24-4.33z" vector-effect="non-scaling-stroke" fill="inherit" stroke="inherit" stroke-width="inherit"><title>Forest County</title></path><path id="county-42121" class="county feature" d="M737.186 229.49l.16.944-1.68.564-.767 2.974-4.185.738-1.003-5.905 1.917-2.848 2.944-.544 1.374-.252z" vector-effect="non-scaling-stroke" fill="inherit" stroke="inherit" stroke-width="inherit"><title>Venango County</title></path><path id="county-42023" class="county feature" d="M753.804 222.026l2.586 2.242.84-.148.379 1.953-.895 3.087-2.018.123-.835-3.179-2.27.423-.668-3.652z" vector-effect="non-scaling-stroke" fill="inherit" stroke="inherit" stroke-width="inherit"><title>Cameron County</title></path><path id="county-42103" class="county feature" d="M801.39 215.828l1.024 1.125-1.548 1.842-1.318 3.868-2.491-.56-.02-1.974-3.084.94 2.434-7.53 1.694 1.984z" vector-effect="non-scaling-stroke" fill="inherit" stroke="inherit" stroke-width="inherit"><title>Pike County</title></path><path id="county-42081" class="county feature" d="M772.798 218.82l1.547 3.208 2.545 1.442 2.091.117-2.18 2.76-1.317-.043-2.107 1.066-.928 1.17-2.203.812-6.305-4.316-1.398-2.02-.25-1.172 8.661-1.903.99-1.072z" vector-effect="non-scaling-stroke" fill="inherit" stroke="inherit" stroke-width="inherit"><title>Lycoming County</title></path><path id="county-42113" class="county feature" d="M778.981 223.587l-2.09-.117-2.546-1.442-1.547-3.207 8.248-.791-.214 3.214-.115 1.344z" vector-effect="non-scaling-stroke" fill="inherit" stroke="inherit" stroke-width="inherit"><title>Sullivan County</title></path><path id="county-42085" class="county feature" d="M729.71 228.805l1.004 5.905-1.017 2.122-.83-.701-5.156.652-.022-.162-1.09-6.607z" vector-effect="non-scaling-stroke" fill="inherit" stroke="inherit" stroke-width="inherit"><title>Mercer County</title></path><path id="county-42035" class="county feature" d="M762.543 223.017l1.398 2.02 6.305 4.315.091.452-4.695 2.497-1.268-1.772-2.454-.274-.917-1.257-1.405.35-.33-1.342-1.557 2.213-.997-1.059.895-3.087-.38-1.953z" vector-effect="non-scaling-stroke" fill="inherit" stroke="inherit" stroke-width="inherit"><title>Clinton County</title></path><path id="county-42031" class="county feature" d="M741.047 229.85l.847 5.234-.776.931-3.195 1.21-2.224-1.045-.734-2.178-.066-.03.767-2.974 1.68-.564-.16-.943.899-1.11 2.66-.365z" vector-effect="non-scaling-stroke" fill="inherit" stroke="inherit" stroke-width="inherit"><title>Clarion County</title></path><path id="county-42079" class="county feature" d="M790.968 223.226l-.503.867-1.486.923.81 1.422-3.25 2.533-3.022-.066-1.024-3.416-1.487-.965-.289-1.936.115-1.344 3.687-.92 2.207-1.296 2.373 1.176 1.115 2.685z" vector-effect="non-scaling-stroke" fill="inherit" stroke="inherit" stroke-width="inherit"><title>Luzerne County</title></path><path id="county-42065" class="county feature" d="M748.32 231.021l-1.06 1.55.758 4.17-5.669.921-.455-2.578-.847-5.233 1.528-.445 1.79-.73 3.402 1.278z" vector-effect="non-scaling-stroke" fill="inherit" stroke="inherit" stroke-width="inherit"><title>Jefferson County</title></path><path id="county-42037" class="county feature" d="M783.517 228.905l-.788 3.013-.903.696-2.44-1.55-.027-1.22-1.883-1.863-.675-1.635 2.18-2.759 1.736-.999.29 1.936 1.486.965z" vector-effect="non-scaling-stroke" fill="inherit" stroke="inherit" stroke-width="inherit"><title>Columbia County</title></path><path id="county-42033" class="county feature" d="M757.711 230.22l-.796 1.011.9 2.736-1.658 1.042-1.714 3.45.308.355.155.12-6.224 1.16-.664-3.353-.758-4.17 1.06-1.55.693-1.122 5.683-.616 2.018-.123z" vector-effect="non-scaling-stroke" fill="inherit" stroke="inherit" stroke-width="inherit"><title>Clearfield County</title></path><path id="county-42027" class="county feature" d="M770.337 229.804l-2.29 4.247-3.938 3.027-2.022.125-1.461 1.281-2.54-.43-3.335.76-.308-.355 1.714-3.45 1.658-1.042-.9-2.736.796-1.012 1.557-2.213.33 1.342 1.405-.35.917 1.257 2.454.274 1.268 1.772z" vector-effect="non-scaling-stroke" fill="inherit" stroke="inherit" stroke-width="inherit"><title>Centre County</title></path><path id="county-42089" class="county feature" d="M799.548 222.663l.328-.116-1.574 2.788-1.859 2.425-2.349 1.468-1.924-2.212.924-.897-2.629-2.026.503-.867 1.006-1.587 1.979-.57 3.084-.94.02 1.975z" vector-effect="non-scaling-stroke" fill="inherit" stroke="inherit" stroke-width="inherit"><title>Monroe County</title></path><path id="county-42097" class="county feature" d="M775.484 226.304l.033 4.325 1.718-.764 2.152 1.199 2.44 1.55-3.965 3.083-2.413 1.411-.883-.163.09-.213 1.017-1.702-.015-3.188-1.434-1.42-.847-3.052z" vector-effect="non-scaling-stroke" fill="inherit" stroke="inherit" stroke-width="inherit"><title>Northumberland County</title></path><path id="county-42093" class="county feature" d="M776.8 226.346l.676 1.635 1.883 1.862.028 1.22-2.152-1.198-1.718.764-.033-4.325z" vector-effect="non-scaling-stroke" fill="inherit" stroke="inherit" stroke-width="inherit"><title>Montour County</title></path><path id="county-42019" class="county feature" d="M734.899 233.972l.066.03 1.581 9.302-6.325.989-.698-3.334-.548-2.682.722-1.445 1.017-2.122z" vector-effect="non-scaling-stroke" fill="inherit" stroke="inherit" stroke-width="inherit"><title>Butler County</title></path><path id="county-42005" class="county feature" d="M741.894 235.084l.455 2.578.453 2.51-2.443 5.135-3.804-1.986-.009-.017-1.581-9.302.734 2.178 2.224 1.044 3.195-1.209z" vector-effect="non-scaling-stroke" fill="inherit" stroke="inherit" stroke-width="inherit"><title>Armstrong County</title></path><path id="county-42119" class="county feature" d="M775.658 231.842l-1.982.293-5.38 2.628-.249-.712 2.29-4.247-.09-.452 2.202-.812.928-1.17.847 3.052z" vector-effect="non-scaling-stroke" fill="inherit" stroke="inherit" stroke-width="inherit"><title>Union County</title></path><path id="county-42025" class="county feature" d="M790.465 224.093l2.629 2.026-.924.897 1.924 2.212-1.738.908-1.834 1.398-3.982-2.563 3.25-2.533-.811-1.422z" vector-effect="non-scaling-stroke" fill="inherit" stroke="inherit" stroke-width="inherit"><title>Carbon County</title></path><path id="county-42073" class="county feature" d="M729.697 236.832l-.722 1.445.548 2.682-4.968.897-.157-.892-.687-4.18 5.157-.653z" vector-effect="non-scaling-stroke" fill="inherit" stroke="inherit" stroke-width="inherit"><title>Lawrence County</title></path><path id="county-42095" class="county feature" d="M798.73 232.182l-1.59 1.736-1.875-2.22-.666.492-2.243-2.054 1.738-.908 2.349-1.468 1.859-2.425 1.362 1.582-1.294 2.075z" vector-effect="non-scaling-stroke" fill="inherit" stroke="inherit" stroke-width="inherit"><title>Northampton County</title></path><path id="county-42107" class="county feature" d="M786.54 228.97l3.982 2.564-1.601 1.467-3.295 3.443-3.546 1.496-1.538-.819-2.68-1.424 3.964-3.083.903-.696.788-3.013z" vector-effect="non-scaling-stroke" fill="inherit" stroke="inherit" stroke-width="inherit"><title>Schuylkill County</title></path><path id="county-42063" class="county feature" d="M748.018 236.74l.664 3.354-1.285 6.524-1.657.824-.933-.676-3.435-.219-1.013-1.24 2.443-5.135-.453-2.51z" vector-effect="non-scaling-stroke" fill="inherit" stroke="inherit" stroke-width="inherit"><title>Indiana County</title></path><path id="county-42109" class="county feature" d="M775.658 231.842l.015 3.188-1.016 1.702-1.503-.487-3.496.432-.944.032-.418-1.946 5.38-2.628z" vector-effect="non-scaling-stroke" fill="inherit" stroke="inherit" stroke-width="inherit"><title>Snyder County</title></path><path id="county-42007" class="county feature" d="M729.523 240.96l.698 3.333-.198 1.281-2.132 2.87-2.199.366-.492-2.997-.645-3.957z" vector-effect="non-scaling-stroke" fill="inherit" stroke="inherit" stroke-width="inherit"><title>Beaver County</title></path><path id="county-42087" class="county feature" d="M764.402 243.755l-2.31.075.983-2.134-.533-.866 1.68-2.759-.113-.993 3.938-3.027.25.712.417 1.946.944-.032-2.48 2.638z" vector-effect="non-scaling-stroke" fill="inherit" stroke="inherit" stroke-width="inherit"><title>Mifflin County</title></path><path id="county-42077" class="county feature" d="M797.14 233.918l-1.585 2.632-.743-.39-5.891-3.159 1.601-1.467 1.834-1.398 2.243 2.054.666-.493z" vector-effect="non-scaling-stroke" fill="inherit" stroke="inherit" stroke-width="inherit"><title>Lehigh County</title></path><path id="county-42061" class="county feature" d="M764.11 237.078l.111.993-1.679 2.759.533.866-.983 2.134 2.31-.075 1.09 1.996-1.517 4.175-4.124-1.196-1.614-.832-.556-1.303 1.09-3.57-1.835-3.2 1.15-1.77 2.54.43 1.46-1.282z" vector-effect="non-scaling-stroke" fill="inherit" stroke="inherit" stroke-width="inherit"><title>Huntingdon County</title></path><path id="county-42013" class="county feature" d="M757.68 246.595l-.233 1.087-2.236-.707.013 1.12-2.678-1.098.632-.953-.13-2.579 1.858-4.531-.155-.12 3.336-.76-1.151 1.772 1.835 3.2z" vector-effect="non-scaling-stroke" fill="inherit" stroke="inherit" stroke-width="inherit"><title>Blair County</title></path><path id="county-42021" class="county feature" d="M754.906 238.934l-1.858 4.531.13 2.58-.632.952-.24 1.655-3.28.478-2.388-.247.759-2.265 1.285-6.524z" vector-effect="non-scaling-stroke" fill="inherit" stroke="inherit" stroke-width="inherit"><title>Cambria County</title></path><path id="county-42067" class="county feature" d="M774.657 236.732l-.09.213-3.049 1.499-4.26 4.361-1.427 2.38-.339.566-1.09-1.996 2.777-4.44 2.479-2.638 3.496-.432z" vector-effect="non-scaling-stroke" fill="inherit" stroke="inherit" stroke-width="inherit"><title>Juniata County</title></path><path id="county-42129" class="county feature" d="M740.359 245.307l1.013 1.24 3.435.22.933.675 1.657-.824-.76 2.265-1.215 3.568-1.282 1.558-3.157-1.457-1.802 1.518-1.633-.584-1.828.34-.13-1.329.756-.963.547-5.462-1.182-.908.844-1.843z" vector-effect="non-scaling-stroke" fill="inherit" stroke="inherit" stroke-width="inherit"><title>Westmoreland County</title></path><path id="county-42011" class="county feature" d="M794.812 236.16l-1.482 4.28-2.03 2.453-4.536-2.468-4.684-2.485 3.546-1.496 3.295-3.443z" vector-effect="non-scaling-stroke" fill="inherit" stroke="inherit" stroke-width="inherit"><title>Berks County</title></path><path id="county-42003" class="county feature" d="M736.546 243.304l.009.017-.844 1.843 1.182.908-.547 5.462-.756.963-.79-.92-3.994-.853-2.915-2.28 2.132-2.87.198-1.281z" vector-effect="non-scaling-stroke" fill="inherit" stroke="inherit" stroke-width="inherit"><title>Allegheny County</title></path><path id="county-42043" class="county feature" d="M777.862 235.697l2.68 1.424-1.657 1.89 2.571 4.833-1.825 1.805-.402-1.073-1.889-.499-1.178-1.694-1.796-.756.754-1.574-.915-1.795.361-1.313.883.163z" vector-effect="non-scaling-stroke" fill="inherit" stroke="inherit" stroke-width="inherit"><title>Dauphin County</title></path><path id="county-42099" class="county feature" d="M776.162 242.383l-4.727 1.91-1.455-.382-3.028 2.808-1.121-1.534 1.427-2.38 4.26-4.361 3.048-1.5-.361 1.314.915 1.795-.754 1.574z" vector-effect="non-scaling-stroke" fill="inherit" stroke="inherit" stroke-width="inherit"><title>Perry County</title></path><path id="county-42017" class="county feature" d="M803.32 236.305l3.82 2.89-3.038 2.597-.935-1.517-7.612-3.725 1.584-2.632 1.59-1.736.167.285 1.883.555.57 2.174z" vector-effect="non-scaling-stroke" fill="inherit" stroke="inherit" stroke-width="inherit"><title>Bucks County</title></path><path id="county-42075" class="county feature" d="M781.456 243.844l-2.57-4.832 1.656-1.89 1.538.818 4.684 2.485-1.92 1.573z" vector-effect="non-scaling-stroke" fill="inherit" stroke="inherit" stroke-width="inherit"><title>Lebanon County</title></path><path id="county-42125" class="county feature" d="M727.891 248.444l2.915 2.28 3.994.853.79.92.13 1.328.299 1.684-1.528 1.27-4.161.015-3.064 1.59-.16-1.005-.443-2.664-.716-4.448-.255-1.457z" vector-effect="non-scaling-stroke" fill="inherit" stroke="inherit" stroke-width="inherit"><title>Washington County</title></path><path id="county-42091" class="county feature" d="M803.167 240.275l-.93 1.984-1.77-.51.574 1.434-.831.859-1.528-1.372-1.405-.12-2.574-2.288-1.373.179 1.482-4.281.743.39z" vector-effect="non-scaling-stroke" fill="inherit" stroke="inherit" stroke-width="inherit"><title>Montgomery County</title></path><path id="county-42041" class="county feature" d="M777.34 244.077l-.437 1.285-1.728.803-1.126 1.614-.523.879-2.899 1.255-.754 1.12-2.92-4.314 3.027-2.808 1.455.382 4.727-1.91z" vector-effect="non-scaling-stroke" fill="inherit" stroke="inherit" stroke-width="inherit"><title>Cumberland County</title></path><path id="county-42009" class="county feature" d="M757.68 246.595l.557 1.303 1.614.832-1.101 6.74-.779 2.103-5.987 1.104.373-2.015-.877-4.297.825-3.713.24-1.655 2.679 1.097-.013-1.119 2.236.707z" vector-effect="non-scaling-stroke" fill="inherit" stroke="inherit" stroke-width="inherit"><title>Bedford County</title></path><path id="county-42071" class="county feature" d="M791.3 242.893l-.847.724.281 4.574-1.427 3.15-1.36.283-.095.02-4.028-3.429-1.408-1.847-2.785-.719 1.825-1.805 3.387-1.846 1.921-1.573z" vector-effect="non-scaling-stroke" fill="inherit" stroke="inherit" stroke-width="inherit"><title>Lancaster County</title></path><path id="county-42055" class="county feature" d="M766.952 246.719l2.921 4.313.983 4.11-.14.027-8.813 1.67.984-2.193 1.088-4.72 1.517-4.175.339-.566z" vector-effect="non-scaling-stroke" fill="inherit" stroke="inherit" stroke-width="inherit"><title>Franklin County</title></path><path id="county-42111" class="county feature" d="M752.305 248.652l-.825 3.713.877 4.297-.373 2.015-1.719.314-6.457 1.18-.784-2.391 1.116-3.771 1.282-1.558 1.216-3.568 2.388.247z" vector-effect="non-scaling-stroke" fill="inherit" stroke="inherit" stroke-width="inherit"><title>Somerset County</title></path><path id="county-42029" class="county feature" d="M796.38 247.577l.185-.064-.184.064zm2.302-4.907l-1.764 2.733-.547 2.177-2.238 2.707-4.826 1.053 1.427-3.15-.281-4.573.847-.724 2.03-2.452 1.373-.179 2.574 2.288z" vector-effect="non-scaling-stroke" fill="inherit" stroke="inherit" stroke-width="inherit"><title>Chester County</title></path><path id="county-42133" class="county feature" d="M779.631 245.65l2.785.718 1.408 1.847 4.028 3.429-4.59.963-3.03.632-2.96.616.108-2.652-1.482-2.722-1.849-.702 1.126-1.614 1.728-.803.437-1.285 1.889.499z" vector-effect="non-scaling-stroke" fill="inherit" stroke="inherit" stroke-width="inherit"><title>York County</title></path><path id="county-42057" class="county feature" d="M763.975 249.926l-1.088 4.72-.984 2.193-3.403.64-.529.094.779-2.104 1.1-6.74z" vector-effect="non-scaling-stroke" fill="inherit" stroke="inherit" stroke-width="inherit"><title>Fulton County</title></path><path id="county-42051" class="county feature" d="M744.14 254.009l-1.116 3.77.784 2.392-1.175.216-4.025.707-2.145.368-.754-3.748-1.218-.935 1.528-1.27-.299-1.684 1.828-.339 1.633.584 1.802-1.518z" vector-effect="non-scaling-stroke" fill="inherit" stroke="inherit" stroke-width="inherit"><title>Fayette County</title></path><path id="county-42101" class="county feature" d="M804.102 241.792l-.948 1.28-.74 2.18-.947.574-1.257-1.784.83-.86-.573-1.433 1.77.51.93-1.984z" vector-effect="non-scaling-stroke" fill="inherit" stroke="inherit" stroke-width="inherit"><title>Philadelphia County</title></path><path id="county-42001" class="county feature" d="M777.272 253.855l-3.023.615-3.393.671-.983-4.109.754-1.12 2.899-1.254.523-.879 1.849.702 1.482 2.722z" vector-effect="non-scaling-stroke" fill="inherit" stroke="inherit" stroke-width="inherit"><title>Adams County</title></path><path id="county-42045" class="county feature" d="M800.21 244.042l1.257 1.784-2.612 1.793-2.29-.106-.184.064-.01.003.547-2.177 1.764-2.733z" vector-effect="non-scaling-stroke" fill="inherit" stroke="inherit" stroke-width="inherit"><title>Delaware County</title></path><path id="county-42059" class="county feature" d="M734.491 256.779l1.218.935.754 3.748-7.084 1.183-1.382.221-.731-4.482 3.064-1.59z" vector-effect="non-scaling-stroke" fill="inherit" stroke="inherit" stroke-width="inherit"><title>Greene County</title></path></g><path id="counties-mesh" class="counties mesh" d="M780.249 209.396l1.784 6.307-1.117.34.13 1.987-8.248.79-.854.05-2.213-7.29m2.213 7.29l-.99 1.071-8.661 1.903-1.797-8.419m-8.072 1.554l1.38 7.047-2.881.849-.971-.349-6.42 1.295-.752-7.002m19.513 5.025l.25 1.173-5.314 1.103-.84.148-2.585-2.242m42.583-8.486l-2.434 7.53-1.98.57.776-.666-1.835-6.985-1.711-6.501m1.71 6.5l-3.504.753-5.376.962m-31.11 7.172l.668 3.652 2.27-.423.835 3.179-5.683.616-.694 1.122-.552-1.067-3.401-1.279-1.79.731.057-2.16 1.486.041-.588-3.466-7.585 1.34-1.374.252-.72-4.193m.72 4.193l-2.944.544-1.917 2.848-7.113 1.209-.031-.194-1.068-6.496m65.91-8.583l-.683 4.287-2.207 1.296-3.687.92.214-3.214m10.928 3.61l-1.006 1.586-.754-.337-1.115-2.685-2.373-1.176m-44.15 10.378l-1.53.445-.302-1.835-2.66.365-.898 1.11-1.24-4.33m1.24 4.33l.16.943-1.68.564-.767 2.974-4.185.738-1.003-5.905m27.518-4.685l.38 1.953-.895 3.087-2.018.123m-21.29-10.799l.446 2.736-12.353 2.104-.39-2.376 2.386-1.511 6.98-5.634.864 5.012 2.066-.33 7.439-1.366 1.936-.3 8.278-1.582 1.366-.258 6.188-1.138 1.884-.416 8.706-1.738.529-.107 4.975-1.022 5.543-1.162.556-.118 8.398-1.79 1.609-.377 1.961 2.22 1.632-.172 1.591 1.57.39 2.81 1.695 1.984 3.31.305 1.023 1.125-1.548 1.842-1.318 3.868-2.491-.56-.02-1.974-3.084.94m-21.155-2.248l1.547 3.207 2.545 1.442 2.091.117-2.18 2.76-1.317-.043-2.107 1.066-.928 1.17-2.203.812-6.305-4.316-1.398-2.02m18.29-1.772l-.116 1.344-1.736 1m-48.267 11.122l-1.017 2.122-.83-.701-5.156.652-.022-.162-1.09-6.607m47.647-.662l.091.452-4.695 2.497-1.268-1.772-2.454-.274-.917-1.257-1.405.35-.33-1.342-1.557 2.213-.997-1.059m-15.667.69l.847 5.234-.776.931-3.195 1.21-2.224-1.045-.734-2.178-.066-.03m56.07-10.746l-.504.867-1.486.923.81 1.422-3.25 2.533-3.022-.066-1.024-3.416-1.487-.965-.289-1.936m-32.398 8.433l-1.059 1.55.758 4.17-5.669.921-.455-2.578m41.623-6.179l-.788 3.013-.903.696-2.44-1.55-.027-1.22-1.883-1.863-.675-1.635m-19.09 3.873l-.796 1.012.9 2.736-1.658 1.042-1.714 3.45.308.355.155.12-6.224 1.16-.664-3.353m22.32-6.937l-2.29 4.247-3.939 3.027-2.022.125-1.461 1.281-2.54-.43-3.335.76m44.797-16.15l.328-.117-1.574 2.788-1.859 2.425-2.349 1.468-1.924-2.212.924-.897-2.629-2.026m-14.981 2.21l.033 4.326 1.718-.764 2.152 1.199m2.44 1.55l-3.965 3.083-2.413 1.411-.883-.163.09-.213 1.017-1.702-.015-3.188-1.434-1.42-.847-3.052m-38.412 6.632l1.581 9.302-6.325.989-.698-3.334-.548-2.682.722-1.445m12.652.83l.453 2.51-2.443 5.135-3.804-1.986-.009-.017m39.112-11.462l-1.982.293-5.38 2.628-.249-.712m-38.524 6.908l-4.968.897-.157-.892-.687-4.18m70.383-7.556l-1.738.908-1.834 1.398-3.982-2.563m12.19 3.21l-1.59 1.737-1.875-2.22-.666.492-2.243-2.054m-1.834 1.398l-1.601 1.467-3.295 3.443-3.546 1.496-1.538-.819-2.68-1.424m-47.64 8.596l-.2 1.281-2.13 2.87-2.2.366-.492-2.997-.645-3.957m24.127-1.762l-1.285 6.524-1.657.824-.933-.676-3.435-.219-1.013-1.24m34.298-8.575l-1.503-.487-3.496.432-.944.032-.418-1.946m1.362 1.914l-2.48 2.638-2.776 4.44-2.31.075.983-2.134-.533-.866 1.68-2.759-.113-.993m33.03-3.16l-1.584 2.632-.743-.39-5.891-3.159m-24.52 10.754l1.091 1.996-1.517 4.175-4.124-1.196-1.614-.832-.556-1.303 1.09-3.57-1.835-3.2 1.15-1.77m-.405 8.54l-.234 1.087-2.236-.707.013 1.12-2.678-1.098.632-.953-.13-2.579 1.858-4.531m-2.36 8.063l-.24 1.655-3.28.478-2.388-.247.759-2.265m33.145-9.497l-1.657 1.89 2.571 4.833-1.825 1.805-.402-1.073-1.889-.499-1.178-1.694-1.796-.756.754-1.574-.915-1.795.361-1.313-3.048 1.499-4.26 4.361-1.427 2.38-.339.566m-18.854 3.132l-1.216 3.568-1.282 1.558-3.157-1.457-1.802 1.518-1.633-.584-1.828.34-.13-1.329.756-.963.547-5.462-1.182-.908.844-1.843m58.257-7.161l-1.482 4.28-2.03 2.453-4.536-2.468-4.684-2.485m-46.49 14.557l-.79-.92-3.994-.853-2.915-2.28m7.829 5.381l.299 1.684-1.528 1.27-4.161.015-3.064 1.59-.16-1.005-.443-2.664-.716-4.448-.255-1.457m50.47-6.427l-4.727 1.91-1.455-.382-3.028 2.808-1.121-1.534m32.47-19.85l1.363 1.582-1.294 2.075.36 3.19.166.285 1.883.555.57 2.174 1.97 1.11 3.821 2.89-3.038 2.596-.935-1.517-7.612-3.725m-8.79 3.875l-1.922 1.573-3.387 1.846m21.711-3.569l-.93 1.984-1.77-.51.574 1.434-.831.859-1.528-1.372-1.405-.12-2.574-2.288-1.373.179m-15.99 3.636l-.437 1.285-1.728.803-1.126 1.614-.523.879-2.899 1.255-.754 1.12-2.92-4.314m-7.102 2.01l-1.101 6.74-.779 2.104-5.987 1.104.373-2.015-.877-4.297.825-3.713m38.995-5.759l-.847.724.281 4.574-1.427 3.15-1.36.283-.095.02-4.028-3.429-1.408-1.847-2.785-.719m-9.758 5.383l.983 4.11-.14.027-8.813 1.67.984-2.193 1.088-4.72m-11.991 8.75l-1.719.315-6.457 1.18-.784-2.391 1.116-3.771m54.542-11.339l-1.764 2.733-.547 2.177-2.238 2.707-4.826 1.053m-1.455.304l-4.59.963-3.03.632-2.96.616.108-2.652-1.482-2.722-1.849-.702m-12.146 9.06l-3.403.64-.529.094m-14.163 2.598l-1.175.216-4.025.707-2.145.368-.754-3.748-1.218-.935m69.61-14.987l-.947 1.28-.74 2.18-.947.574-1.257-1.784m-22.938 9.813l-3.023.615-3.393.671m30.61-9.315l-2.611 1.793-2.29-.106m-.184.064l.184-.064-.184.064-.01.003m-59.908 13.882l-7.084 1.183-1.382.221-.731-4.482" vector-effect="non-scaling-stroke" fill="inherit" stroke="inherit" stroke-width="inherit"/></svg>