<svg xmlns="http://www.w3.org/2000/svg" version="1.2" id="root" viewBox="700.6409873287055 349.1870022655646 75.11022092283042 56.91007959937053"><g id="counties"><path id="county-45045" class="county feature" d="M714.424 351.39l2.044-.398.79 6.462 1.37 1.038-.833 3.899-.87 2.084-2.494-2.331-1.01-3.543-1.288-3.54-.951-.738-2.583.227 2.619-1.829z" vector-effect="non-scaling-stroke" fill="inherit" stroke="inherit" stroke-width="inherit"><title>Greenville County</title></path><path id="county-45083" class="county feature" d="M724.814 355.148l-.86 1.567-.392 4.679-3.572-1.564-1.362-1.338-1.37-1.038-.79-6.462 3.72-.381 1.427-.153 2.496 4.414z" vector-effect="non-scaling-stroke" fill="inherit" stroke="inherit" stroke-width="inherit"><title>Spartanburg County</title></path><path id="county-45021" class="county feature" d="M728.844 355.93l-4.03-.782-.703-.276-2.496-4.414 1.6-.17 6.053-.63-.303 2.306-1.128.395z" vector-effect="non-scaling-stroke" fill="inherit" stroke="inherit" stroke-width="inherit"><title>Cherokee County</title></path><path id="county-45091" class="county feature" d="M736.423 350.229l1.05 2.697-.177 2.029-8.719 1.353.267-.379-1.007-3.57 1.128-.395.303-2.305.578-.063 4.457-.409.187 1.94z" vector-effect="non-scaling-stroke" fill="inherit" stroke="inherit" stroke-width="inherit"><title>York County</title></path><path id="county-45077" class="county feature" d="M708.6 354.55l2.582-.227.951.738 1.288 3.54-4.155 3.387-.658 1.023-1.217-2.083-.76-5.876z" vector-effect="non-scaling-stroke" fill="inherit" stroke="inherit" stroke-width="inherit"><title>Pickens County</title></path><path id="county-45057" class="county feature" d="M737.642 351.468l1.053 1.095.113 2.166 3.513-.528 2.96 3.383-1.976 1.37.544.81-3.177 1.118-.209-1.082-1.798 1.858-.234-1.592-.19-2.88-.945-2.231.178-2.029-1.05-2.697z" vector-effect="non-scaling-stroke" fill="inherit" stroke="inherit" stroke-width="inherit"><title>Lancaster County</title></path><path id="county-45073" class="county feature" d="M708.608 363.011l-1.886 2.946-.975-.089-.896-.69-3.92-2.332-.29-.512 1.245-3.238 1.59-1.372.128-1.2 1.425-.708 1.602-.764.76 5.876z" vector-effect="non-scaling-stroke" fill="inherit" stroke="inherit" stroke-width="inherit"><title>Oconee County</title></path><path id="county-45087" class="county feature" d="M728.844 355.93l-.267.378 1.554 4.514.218 1.447-1.63 1.193-1.802-1.412-3.355-.656.391-4.679.86-1.567z" vector-effect="non-scaling-stroke" fill="inherit" stroke="inherit" stroke-width="inherit"><title>Union County</title></path><path id="county-45023" class="county feature" d="M737.296 354.955l.944 2.23.191 2.88-8.3.757-1.554-4.514z" vector-effect="non-scaling-stroke" fill="inherit" stroke="inherit" stroke-width="inherit"><title>Chester County</title></path><path id="county-45007" class="county feature" d="M716.925 364.475l-5.73 6.052-.718-1.432-1.802-2.942-1.953-.196 1.886-2.946.658-1.023 4.155-3.387 1.01 3.543z" vector-effect="non-scaling-stroke" fill="inherit" stroke="inherit" stroke-width="inherit"><title>Anderson County</title></path><path id="county-45025" class="county feature" d="M754.237 357.654l-.692.892-2.434.396-3.262 2.957-1.077-2.557-1.49-1.758-2.961-3.383 3.667-.539 5.883-.851 1.248 1.982 1.254.614z" vector-effect="non-scaling-stroke" fill="inherit" stroke="inherit" stroke-width="inherit"><title>Chesterfield County</title></path><path id="county-45069" class="county feature" d="M759.453 354.866l.203.143-1.706 6.472-.391-.066-1.635-3.33-1.687-.431.136-2.247-1.254-.614-1.248-1.982.033-.006 3.599-.584z" vector-effect="non-scaling-stroke" fill="inherit" stroke="inherit" stroke-width="inherit"><title>Marlboro County</title></path><path id="county-45059" class="county feature" d="M723.562 361.394l3.355.656-1.624 3.446-1.533 1.477-.482 1.912-3.714-1.862-1.412-1.31-1.227-1.238.87-2.084.833-3.9 1.362 1.34z" vector-effect="non-scaling-stroke" fill="inherit" stroke="inherit" stroke-width="inherit"><title>Laurens County</title></path><path id="county-45033" class="county feature" d="M766.392 359.938l-.683 1.02-3.953-.193-2.293 1.747-1.513-1.03 1.706-6.473z" vector-effect="non-scaling-stroke" fill="inherit" stroke="inherit" stroke-width="inherit"><title>Dillon County</title></path><path id="county-45055" class="county feature" d="M747.849 361.899l.006.038-1.794 1.632-.494 2.477-1.849 1.622-1.473.823-2.614-1.75.4-1.701.518-2.134-1.884-1.248 1.798-1.858.209 1.082 3.177-1.118-.544-.81 1.977-1.37 1.49 1.758z" vector-effect="non-scaling-stroke" fill="inherit" stroke="inherit" stroke-width="inherit"><title>Kershaw County</title></path><path id="county-45039" class="county feature" d="M738.431 360.066l.234 1.592 1.884 1.248-.518 2.134-3.914 1.67-1.148.92-2.279-.869-2.341-4.492-.218-1.447z" vector-effect="non-scaling-stroke" fill="inherit" stroke="inherit" stroke-width="inherit"><title>Fairfield County</title></path><path id="county-45031" class="county feature" d="M754.237 357.654l1.687.43 1.635 3.33-1.05.372-4.527 4.766-1.535-1.184.584-.774-1.495-2.954-1.68.297-.007-.038 3.262-2.957 2.434-.396z" vector-effect="non-scaling-stroke" fill="inherit" stroke="inherit" stroke-width="inherit"><title>Darlington County</title></path><path id="county-45071" class="county feature" d="M730.349 362.27l2.341 4.491-.21.828-1.67 2.565-1.004.071-3.201-1.527-2 1.282-1.327-1.095.482-1.912 1.533-1.477 1.624-3.446 1.802 1.412z" vector-effect="non-scaling-stroke" fill="inherit" stroke="inherit" stroke-width="inherit"><title>Newberry County</title></path><path id="county-45001" class="county feature" d="M718.152 365.712l-1.145 1.434 1.64 2.11.007 2.114-.791.957-3.114.297-.823 1.221-2.732-3.318 5.73-6.052z" vector-effect="non-scaling-stroke" fill="inherit" stroke="inherit" stroke-width="inherit"><title>Abbeville County</title></path><path id="county-45047" class="county feature" d="M723.278 368.885l1.327 1.095-1.618 3.543-.566.244-.055-.564-3.938.792-.565-1.668.79-.957-.007-2.114-1.639-2.11 1.145-1.434 1.412 1.311z" vector-effect="non-scaling-stroke" fill="inherit" stroke="inherit" stroke-width="inherit"><title>Greenwood County</title></path><path id="county-45061" class="county feature" d="M751.982 366.552l1.21.544-2.423 2.211-2.54-2.016-2.512-.2-.15-1.045.494-2.477 1.794-1.632 1.681-.297 1.495 2.954-.584.774z" vector-effect="non-scaling-stroke" fill="inherit" stroke="inherit" stroke-width="inherit"><title>Lee County</title></path><path id="county-45041" class="county feature" d="M759.463 362.512l-.216.843 1.953 4.221 3.037 2.334-2.533.893-4.768-.315-1.329-.716-1.697-.885 1.093-.978-1.811-.813-1.21-.544 4.526-4.766 1.051-.371.39.066z" vector-effect="non-scaling-stroke" fill="inherit" stroke="inherit" stroke-width="inherit"><title>Florence County</title></path><path id="county-45051" class="county feature" d="M775.635 366.566l.116.084-.116-.084zm-.233-.164l.211.14-.211-.14zm-8.984-6.443l7.54 5.405 1.372.981.2.448-3.345 2.748-2.306 3.696-1.468.27-1.824-2.234-1.562-2.93-1.56-1.554 1.048-1.825 1.196-4.007.683-1.019z" vector-effect="non-scaling-stroke" fill="inherit" stroke="inherit" stroke-width="inherit"><title>Horry County</title></path><path id="county-45067" class="county feature" d="M765.71 360.957l-1.197 4.007-1.048 1.825 1.56 1.553 1.562 2.931-1.48.054-.687-1.082-.183-.335-3.037-2.334-1.953-4.221.216-.843 2.293-1.747z" vector-effect="non-scaling-stroke" fill="inherit" stroke="inherit" stroke-width="inherit"><title>Marion County</title></path><path id="county-45079" class="county feature" d="M743.718 367.668l-.159 1.935 1.407 4.024-.233.667-3.28-.146-3.09-1.433-1.104-2.205-2.29-1.358-1.242.153-1.248-1.716.211-.828 2.28.868 1.147-.918 3.914-1.671-.4 1.7 2.614 1.751z" vector-effect="non-scaling-stroke" fill="inherit" stroke="inherit" stroke-width="inherit"><title>Richland County</title></path><path id="county-45063" class="county feature" d="M738.363 372.715l.046 3.286-2.045 1.357-2.972-.98-3.524-2.285.941-3.939 1.67-2.565 1.248 1.716 1.242-.153 2.29 1.358z" vector-effect="non-scaling-stroke" fill="inherit" stroke="inherit" stroke-width="inherit"><title>Lexington County</title></path><path id="county-45081" class="county feature" d="M730.81 370.154l-.942 3.94-1.045 1.355-2.955-.541-1.189-1.896-1.692.511 1.618-3.543 2-1.282 3.2 1.527z" vector-effect="non-scaling-stroke" fill="inherit" stroke="inherit" stroke-width="inherit"><title>Saluda County</title></path><path id="county-45085" class="county feature" d="M753.192 367.096l1.811.813-1.093.978-3.818 3.365-2.038 1.028-1.708 2.644-1.613-1.63.233-.667-1.407-4.024.16-1.935 1.848-1.622.15 1.045 2.512.2 2.54 2.016z" vector-effect="non-scaling-stroke" fill="inherit" stroke="inherit" stroke-width="inherit"><title>Sumter County</title></path><path id="county-45065" class="county feature" d="M717.863 372.327l.565 1.668 3.938-.792.055.564-1.589.69.879 1.724-.688 1.368 1.337 3.008-2.05-1.54-2.131-2.39-3.64-1.764-.613-1.018.823-1.221z" vector-effect="non-scaling-stroke" fill="inherit" stroke="inherit" stroke-width="inherit"><title>McCormick County</title></path><path id="county-45037" class="county feature" d="M728.823 375.449l-4.716 6.077-.277-.203-1.47-.766-1.337-3.008.688-1.368-.879-1.723 1.589-.69.566-.245 1.692-.511 1.189 1.896z" vector-effect="non-scaling-stroke" fill="inherit" stroke="inherit" stroke-width="inherit"><title>Edgefield County</title></path><path id="county-45027" class="county feature" d="M755.607 369.772l-1.454 2.483.238 1.17-.999 4.128-1.674 1.297-2.625.396-1.906-1.832-.84-1.49 1.707-2.644 2.038-1.028 3.818-3.365z" vector-effect="non-scaling-stroke" fill="inherit" stroke="inherit" stroke-width="inherit"><title>Clarendon County</title></path><path id="county-45089" class="county feature" d="M764.237 369.91l.183.335-1.118 1.972.006 2.114-1.351 1.766-1.475 3.903-1.293-.257-3.823-2.6-1.974.41.999-4.127-.238-1.171 1.454-2.483 1.329.716 4.768.315z" vector-effect="non-scaling-stroke" fill="inherit" stroke="inherit" stroke-width="inherit"><title>Williamsburg County</title></path><path id="county-45017" class="county feature" d="M744.733 374.294l1.613 1.63.84 1.49-.874.01-1.346 2.02-2.673-2.103-2.023.237-1.86-1.577-.047-3.286 3.09 1.433z" vector-effect="non-scaling-stroke" fill="inherit" stroke="inherit" stroke-width="inherit"><title>Calhoun County</title></path><path id="county-45003" class="county feature" d="M736.364 377.358l-2.362 3.46-5.05 6.332-1.599-.698-1.76-2.103-.02-1.76-1.466-1.063 4.716-6.077 1.045-1.356 3.524 2.285z" vector-effect="non-scaling-stroke" fill="inherit" stroke="inherit" stroke-width="inherit"><title>Aiken County</title></path><path id="county-45043" class="county feature" d="M767.28 382.12l-.465-.189.464.188zm-.693-10.847l1.824 2.233 1.468-.27-1.556 3.99-.083 2.44-1.637-.87 1.731 2.38-1.059.793-2.2-.436-.776-.452-3.817-1.081 1.475-3.903 1.351-1.766-.006-2.114 1.118-1.972.686 1.082z" vector-effect="non-scaling-stroke" fill="inherit" stroke="inherit" stroke-width="inherit"><title>Georgetown County</title></path><path id="county-45075" class="county feature" d="M747.187 377.414l1.906 1.832 2.625-.396-.034 2.759-1.523 1.05-2.002-.06-.392-1.01-3.932 3.566-.11.092-2.565-1.994-4.713-1.858-2.445-.577 2.362-3.46 2.045-1.357 1.861 1.577 2.023-.237 2.673 2.104 1.346-2.02z" vector-effect="non-scaling-stroke" fill="inherit" stroke="inherit" stroke-width="inherit"><title>Orangeburg County</title></path><path id="county-45015" class="county feature" d="M760.482 380l3.817 1.08-.887 1.396-1.817.775-1.764 3.928-1.634 2.285-.658-1.425-.906.343-.969-1.734-1.516-.16-3.044-1.994-.943-1.835 1.523-1.05.034-2.76 1.674-1.296 1.974-.41 3.823 2.6z" vector-effect="non-scaling-stroke" fill="inherit" stroke="inherit" stroke-width="inherit"><title>Berkeley County</title></path><path id="county-45011" class="county feature" d="M736.447 381.395l.731 5.201.663.698-2.604.606-2.872-.51-.93 1.338-2.134-.566-.35-1.012 5.051-6.332z" vector-effect="non-scaling-stroke" fill="inherit" stroke="inherit" stroke-width="inherit"><title>Barnwell County</title></path><path id="county-45009" class="county feature" d="M743.725 385.247l-3.922 3.49-1.962-1.443-.663-.698-.73-5.2 4.712 1.857z" vector-effect="non-scaling-stroke" fill="inherit" stroke="inherit" stroke-width="inherit"><title>Bamberg County</title></path><path id="county-45035" class="county feature" d="M750.16 382.66l.944 1.834 3.044 1.994 1.379 1.557-.883 2.234-3.862-.12-.574-3.6-2.88.377-3.493-1.781 3.932-3.567.392 1.011z" vector-effect="non-scaling-stroke" fill="inherit" stroke="inherit" stroke-width="inherit"><title>Dorchester County</title></path><path id="county-45029" class="county feature" d="M752.773 396.71l1.354-.868-1.354.868zm-8.938-11.555l3.493 1.78 2.88-.375.574 3.6-.309 2.529.806 2.225.413 1.772-2.688-.655-2.54-1.734-1.761-.212-1.522-2.197-3.378-3.15 3.922-3.49z" vector-effect="non-scaling-stroke" fill="inherit" stroke="inherit" stroke-width="inherit"><title>Colleton County</title></path><path id="county-45005" class="county feature" d="M737.84 387.294l1.963 1.444-1.895 1.69-.314 2.222-1.937 2.09-2.966-5.26-1.256-.752.93-1.338 2.872.51z" vector-effect="non-scaling-stroke" fill="inherit" stroke="inherit" stroke-width="inherit"><title>Allendale County</title></path><path id="county-45049" class="county feature" d="M744.703 394.085l-.541.912-.383.802-2.127-2.154-3.537 4.299-1.784-.466-.674-2.738 1.937-2.09.314-2.223 1.895-1.69 3.378 3.15z" vector-effect="non-scaling-stroke" fill="inherit" stroke="inherit" stroke-width="inherit"><title>Hampton County</title></path><path id="county-45053" class="county feature" d="M744.162 394.997l.808 1.56.38 2.082.072.834.098.076-.082.201-.27.443-2.037 2.897 1.407 1.948-.071 1.06-2.532-.416-.741-1.949-.083-2.114-2.996-3.675 3.537-4.299 2.127 2.154z" vector-effect="non-scaling-stroke" fill="inherit" stroke="inherit" stroke-width="inherit"><title>Jasper County</title></path><path id="county-45013" class="county feature" d="M747.566 401.868l1.023.882-1.884 2.311zm-3.028 3.17l-1.407-1.948 2.036-2.897 1.708 1.354-.611 2.767zm.9-5.288l.082-.201-.082.201zm-.016-.277l-.072-.834.072.834zm2.575-2.01l1.49-.087 1.803 1.263-1.471 1.252-.636 1.943-1.091-1.825zm-1.527-.493l.994.16.929 4.096-1.772-1.18-.984-1.787zm2.534-.94l.374 1.138-3.105-.329-.713 1.122-.59-1.404-.808-1.56.54-.912 1.762.212z" vector-effect="non-scaling-stroke" fill="inherit" stroke="inherit" stroke-width="inherit"><title>Beaufort County</title></path><path id="county-45019" class="county feature" d="M757.54 388.04l.772 2.834.87-.066-1.334 2.75-3.721 2.284-1.354.868-1.494-1.796-.806-2.225.309-2.53 3.862.12.883-2.234-1.38-1.557 1.517.16.97 1.734zm9.74-5.92l-.465-.189.464.188zm-6.578 6.556l-1.316 1.763-.786-.213 1.231-3.047 1.764-3.928 1.817-.775.887-1.395.776.452 2.136.715-1.907 2.415-2.257.455z" vector-effect="non-scaling-stroke" fill="inherit" stroke="inherit" stroke-width="inherit"><title>Charleston County</title></path></g><path id="counties-mesh" class="counties mesh" d="M716.468 350.992l.79 6.462 1.37 1.038-.833 3.899-.87 2.084-2.494-2.331-1.01-3.543-1.288-3.54-.951-.738-2.583.227m13.016-4.092l2.496 4.414.703.276-.86 1.567-.392 4.679-3.572-1.564-1.362-1.338m10.64-8.833l-.303 2.305-1.128.395 1.007 3.57-4.03-.781m11.61-4.919l1.05 2.697-.178 2.029-8.719 1.353.267-.379m-15.423 2.672l-4.155 3.387-.658 1.023-1.217-2.083-.76-5.876m35.69-.851l2.96 3.383-1.976 1.37.544.81-3.177 1.118-.209-1.082-1.798 1.858-.234-1.592-.19-2.88-.945-2.231m-8.719 1.353l1.554 4.514.218 1.447-1.63 1.193-1.802-1.412-3.355-.656m14.87-1.328l-8.301.756m-3.214 1.228l-1.624 3.446-1.533 1.477-.482 1.912-3.714-1.862-1.412-1.31-1.227-1.238-5.73 6.052-.718-1.432-1.802-2.942-1.953-.196m45.15-13.146l1.247 1.982 1.254.614-.136 2.247-.692.892-2.434.396-3.262 2.957-1.077-2.557-1.49-1.758m14.374-2.575l-1.706 6.472-.391-.066-1.635-3.33-1.687-.431m12.155 2.284l-.683 1.02-3.953-.193-2.293 1.747-1.513-1.03m-10.101.417l.006.038-1.794 1.632-.494 2.477-1.849 1.622-1.473.823-2.614-1.75.4-1.701.518-2.134-1.884-1.248m1.366 3.382l-3.914 1.67-1.148.92-2.279-.869-2.341-4.492m27.21-.854l-1.05.37-4.527 4.767-1.535-1.184.584-.774-1.495-2.954-1.68.297m-15.166 4.824l-.21.828-1.67 2.565-1.004.071-3.201-1.527-2 1.282-1.327-1.095m-5.126-3.173l-1.145 1.434 1.64 2.11.007 2.114-.791.957-3.114.297-.823 1.221-2.732-3.318m13.41-.547l-1.617 3.543-.566.244-.055-.564-3.938.792-.565-1.668m34.119-5.775l1.21.544-2.423 2.211-2.54-2.016-2.512-.2-.15-1.045m13.896-3.534l-.216.843 1.953 4.221 3.037 2.334-2.533.893-4.768-.315-1.329-.716-1.697-.885 1.093-.978-1.811-.813m22.443-.53l.116.084-.116-.084m-.233-.164l.211.14-.211-.14m-66.794-3.39l-1.886 2.945-.975-.089-.896-.69-3.92-2.332-.29-.512 1.245-3.238 1.59-1.372.128-1.2 1.425-.708 1.602-.764 1.968-.502 2.619-1.829 3.206-1.331 2.044-.398 3.72-.381 1.427-.153 1.6-.17 6.053-.63.578-.062 4.457-.409.187 1.94 1.933-.898 1.219 1.239 1.053 1.095.113 2.166 3.513-.528 3.667-.539 5.883-.851.033-.006 3.599-.584 3.95 2.645.203.143 6.736 4.929.026.021 7.54 5.405 1.372.981.2.448-3.345 2.748-2.306 3.696-1.468.27-1.824-2.234-1.562-2.93-1.56-1.554 1.048-1.825 1.196-4.007m.878 10.316l-1.48.054-.687-1.082-.183-.335m-41.816 3.857l-1.589.69.879 1.724-.688 1.368 1.337 3.008-2.05-1.54-2.131-2.39-3.64-1.764-.613-1.018m29.792-6.177l-.159 1.935 1.407 4.024-.233.667-3.28-.146-3.09-1.433-1.104-2.205-2.29-1.358-1.242.153-1.248-1.716m5.884 5.126l.046 3.286-2.045 1.357-2.972-.98-3.524-2.285.941-3.939m-.941 3.94l-1.045 1.355-2.955-.541-1.189-1.896-1.692.511m30.923-4.636l-3.818 3.365-2.038 1.028-1.708 2.644-1.613-1.63m-15.91 1.155l-4.716 6.077-.277-.203-1.47-.766m33.247-10.785l-1.454 2.483.238 1.17-.999 4.128-1.674 1.297-2.625.396-1.906-1.832-.84-1.49m18.073-5.68l-1.118 1.973.006 2.114-1.351 1.766-1.475 3.903-1.293-.257-3.823-2.6-1.974.41m-6.205-.139l-.875.01-1.346 2.02-2.673-2.103-2.023.237-1.86-1.577m-2.046 1.357l-2.362 3.46-5.05 6.332-1.599-.698-1.76-2.103-.02-1.76-1.466-1.063m45.772-8.29l-1.556 3.99-.083 2.44-1.637-.87 1.731 2.38-1.059.793-2.2-.436-.776-.452-3.817-1.081m-8.764-1.15l-.034 2.759-1.523 1.05-2.002-.06-.392-1.01-3.932 3.566-.11.092-2.565-1.994-4.713-1.858-2.445-.577m30.297.263l-.887 1.395-1.817.775-1.764 3.928-1.634 2.285-.658-1.425-.906.343-.969-1.734-1.516-.16-3.044-1.994-.943-1.835m-13.714-1.264l.731 5.201.663.698-2.604.606-2.872-.51-.93 1.338-2.134-.566-.35-1.012m14.774-1.903l-3.922 3.49-1.962-1.443m16.307-.806l1.379 1.557-.883 2.234-3.862-.12-.574-3.6-2.88.377-3.493-1.781m6.947 5.005l-.309 2.529.806 2.225.413 1.772-2.688-.655-2.54-1.734-1.761-.212-1.522-2.197-3.378-3.15-1.895 1.69-.314 2.222-1.937 2.09-2.966-5.26-1.256-.752m13.268 5.357l-.541.912-.383.802-2.127-2.154-3.537 4.299-1.784-.466-.674-2.738m8.505.257l.808 1.56.38 2.082.072.834.098.076-.082.201-.27.443-2.037 2.897 1.407 1.948-.071 1.06-2.532-.416-.741-1.949-.083-2.114-2.996-3.675m9.451 3.924l1.023.882-1.884 2.311.861-3.193m-2.399-1.675l1.708 1.354-.611 2.767-1.726.724m.982-5.49l-.082.202m-.088-1.11l.072.833m2.575-2.01l1.49-.087 1.803 1.263-1.471 1.252-.636 1.943-1.091-1.825-.095-2.545m-1.527-.494l.994.16.929 4.096-1.772-1.18-.984-1.787.833-1.29m2.534-.938l.374 1.137-3.105-.329-.713 1.122-.59-1.404m12.57-8.518l.772 2.835.87-.066-1.334 2.75-3.721 2.284m-1.354.868l1.354-.868-1.354.868-1.494-1.796m16-12.795l-.464-.188.464.188-.464-.188m-1.74-.398l2.136.715-1.907 2.415-2.257.455-2.345 3.558-1.316 1.763-.786-.213 1.231-3.047" vector-effect="non-scaling-stroke" fill="inherit" stroke="inherit" stroke-width="inherit"/></svg>