<?xml version="1.0" standalone="yes"?>
<svg xmlns="http://www.w3.org/2000/svg" version="1.2" id="root" viewBox="700.6409873287055 349.1870022655646 75.11022092283042 56.91007959937053"><style>
@import url("../../css/svg.css");</style><rect id="bbox" class="bbox" x="700.6409873287055" y="349.1870022655646" width="75.11022092283042" height="56.91007959937053"></rect><g id="counties"><path id="county-45045" class="county feature" d="M714.4238838190021,351.3895825658691L716.4678527770768,350.99236053051925L717.2571694773669,357.45353409377765L718.6280339681899,358.4919388854663L717.7951958837954,362.3907948351741L716.9249279326843,364.4753316135467L714.4309260973364,362.1437516312501L713.4208587794121,358.6008566332823L712.1333421255758,355.0609718719288L711.1818468013948,354.32261901835057L708.5990642441091,354.5501005978673L711.2178789224432,352.7212002865291Z" style="fill: inherit; stroke: inherit; stroke-width: inherit;" vector-effect="non-scaling-stroke"><title>Greenville County</title></path><path id="county-45083" class="county feature" d="M724.8137195350607,355.1475351050864L723.9530740205064,356.71499926033266L723.5623132698262,361.3938082036933L719.9899881266547,359.8301373511438L718.6280339681899,358.4919388854663L717.2571694773669,357.45353409377765L716.4678527770768,350.99236053051925L720.1881792860627,350.6107756722288L721.6150623640752,350.45822153025415L724.1106840431129,354.87223165202454Z" style="fill: inherit; stroke: inherit; stroke-width: inherit;" vector-effect="non-scaling-stroke"><title>Spartanburg County</title></path><path id="county-45021" class="county feature" d="M728.8442880054353,355.9293720217536L724.8137195350607,355.1475351050864L724.1106840431129,354.87223165202454L721.6150623640752,350.45822153025415L723.2150681859142,350.2873231766798L729.2679390199919,349.65892083642336L728.9648801808207,351.9635225029223L727.8366407375177,352.3587470923145Z" style="fill: inherit; stroke: inherit; stroke-width: inherit;" vector-effect="non-scaling-stroke"><title>Cherokee County</title></path><path id="county-45091" class="county feature" d="M736.423366912039,350.2289661648738L737.473525090051,352.92645095405953L737.2963244415383,354.9547626231283L728.5769674213949,356.3083214985637L728.8442880054353,355.9293720217536L727.8366407375177,352.3587470923145L728.9648801808207,351.9635225029223L729.2679390199919,349.65892083642336L729.8463612383963,349.59565703009594L734.302959519575,349.1870022655646L734.4897081516038,351.12636546078625Z" style="fill: inherit; stroke: inherit; stroke-width: inherit;" vector-effect="non-scaling-stroke"><title>York County</title></path><path id="county-45077" class="county feature" d="M708.5990642441091,354.5501005978673L711.1818468013948,354.32261901835057L712.1333421255758,355.0609718719288L713.4208587794121,358.6008566332823L709.2662142007,361.98792760583046L708.6083531125521,363.01112127923875L707.3914440885053,360.9276475681429L706.6314279266431,355.0523082514587Z" style="fill: inherit; stroke: inherit; stroke-width: inherit;" vector-effect="non-scaling-stroke"><title>Pickens County</title></path><path id="county-45057" class="county feature" d="M737.6418066524307,351.46794863841546L738.6954276086169,352.5626439057178L738.8076252746059,354.72918155546904L742.3209457525268,354.20098880361195L745.2816032464632,357.5840829619351L743.3049041342284,358.95319441234994L743.8486767387892,359.7637269957693L740.6719591025786,360.88230382918266L740.4634776017333,359.8004592589982L738.6647080764678,361.65756406940557L738.4314503213579,360.06551781002963L738.2404873585008,357.1850723015293L737.2963244415383,354.9547626231283L737.473525090051,352.92645095405953L736.423366912039,350.2289661648738Z" style="fill: inherit; stroke: inherit; stroke-width: inherit;" vector-effect="non-scaling-stroke"><title>Lancaster County</title></path><path id="county-45073" class="county feature" d="M708.6083531125521,363.01112127923875L706.7222097463896,365.95655225222276L705.7474544419085,365.8679818003768L704.8512738948094,365.17812249895053L700.930174841524,362.84584728767936L700.6409873287055,362.33352535721224L701.8855814373497,359.09613741321994L703.4761038974896,357.723701105112L703.6038052760537,356.5239132694469L705.0286592878814,355.8160604195168L706.6314279266431,355.0523082514587L707.3914440885053,360.9276475681429Z" style="fill: inherit; stroke: inherit; stroke-width: inherit;" vector-effect="non-scaling-stroke"><title>Oconee County</title></path><path id="county-45087" class="county feature" d="M728.8442880054353,355.9293720217536L728.5769674213949,356.3083214985637L730.1306332702285,360.8223181119125L730.3487727898892,362.269299153052L728.718625345823,363.4615414314412L726.9173596502419,362.0498408710931L723.5623132698262,361.3938082036933L723.9530740205064,356.71499926033266L724.8137195350607,355.1475351050864Z" style="fill: inherit; stroke: inherit; stroke-width: inherit;" vector-effect="non-scaling-stroke"><title>Union County</title></path><path id="county-45023" class="county feature" d="M737.2963244415383,354.9547626231283L738.2404873585008,357.1850723015293L738.4314503213579,360.06551781002963L730.1306332702285,360.8223181119125L728.5769674213949,356.3083214985637Z" style="fill: inherit; stroke: inherit; stroke-width: inherit;" vector-effect="non-scaling-stroke"><title>Chester County</title></path><path id="county-45007" class="county feature" d="M716.9249279326843,364.4753316135467L711.1941119414673,370.5274926250411L710.4769032688154,369.09470717427484L708.6752488446206,366.15273715247815L706.7222097463896,365.95655225222276L708.6083531125521,363.01112127923875L709.2662142007,361.98792760583046L713.4208587794121,358.6008566332823L714.4309260973364,362.1437516312501Z" style="fill: inherit; stroke: inherit; stroke-width: inherit;" vector-effect="non-scaling-stroke"><title>Anderson County</title></path><path id="county-45025" class="county feature" d="M754.2373880781906,357.65401337154685L753.545463252972,358.546297722123L751.1112858125632,358.9424427181193L747.8486037215089,361.8986011976864L746.7721625191527,359.3418884313795L745.2816032464632,357.5840829619351L742.3209457525268,354.20098880361195L745.987612150532,353.6620061626529L751.8713196159836,352.81054083849654L753.1191878851804,354.7931205935604L754.3729919767549,355.4069578865086Z" style="fill: inherit; stroke: inherit; stroke-width: inherit;" vector-effect="non-scaling-stroke"><title>Chesterfield County</title></path><path id="county-45069" class="county feature" d="M759.4533177476129,354.8659996854526L759.6562151083751,355.00899898783007L757.9497377287043,361.48120928588037L757.5589957617431,361.4146852095672L755.9239032639825,358.08472750225894L754.2373880781906,357.65401337154685L754.3729919767549,355.4069578865086L753.1191878851804,354.7931205935604L751.8713196159836,352.81054083849654L751.9036000411675,352.80502964543746L755.5025765185036,352.22076395391935Z" style="fill: inherit; stroke: inherit; stroke-width: inherit;" vector-effect="non-scaling-stroke"><title>Marlboro County</title></path><path id="county-45059" class="county feature" d="M723.5623132698262,361.3938082036933L726.9173596502419,362.0498408710931L725.2930863315216,365.49598382892L723.76007042706,366.9734365640388L723.2783364607029,368.88526488105447L719.5640202336685,367.02326911690216L718.1519960926519,365.71218241947963L716.9249279326843,364.4753316135467L717.7951958837954,362.3907948351741L718.6280339681899,358.4919388854663L719.9899881266547,359.8301373511438Z" style="fill: inherit; stroke: inherit; stroke-width: inherit;" vector-effect="non-scaling-stroke"><title>Laurens County</title></path><path id="county-45033" class="county feature" d="M766.391587411417,359.9380114210675L765.7093161648977,360.95737842849076L761.7564486710239,360.7646348889026L759.4630627644406,362.51244523834157L757.9497377287043,361.48120928588037L759.6562151083751,355.00899898783007Z" style="fill: inherit; stroke: inherit; stroke-width: inherit;" vector-effect="non-scaling-stroke"><title>Dillon County</title></path><path id="county-45055" class="county feature" d="M747.8486037215089,361.8986011976864L747.855092666218,361.93749696197574L746.0606995392524,363.5689925928614L745.5667567085468,366.0461684173764L743.7181827040156,367.66775233189173L742.2446556697264,368.4912854498192L739.6306967069206,366.74030009529406L740.031198335579,365.03963147651746L740.5492676816201,362.905728450898L738.6647080764678,361.65756406940557L740.4634776017333,359.8004592589982L740.6719591025786,360.88230382918266L743.8486767387892,359.7637269957693L743.3049041342284,358.95319441234994L745.2816032464632,357.5840829619351L746.7721625191527,359.3418884313795Z" style="fill: inherit; stroke: inherit; stroke-width: inherit;" vector-effect="non-scaling-stroke"><title>Kershaw County</title></path><path id="county-45039" class="county feature" d="M738.4314503213579,360.06551781002963L738.6647080764678,361.65756406940557L740.5492676816201,362.905728450898L740.031198335579,365.03963147651746L736.116513226373,366.7105887729257L734.969271473334,367.62935599882303L732.6899537369435,366.76118151110165L730.3487727898892,362.269299153052L730.1306332702285,360.8223181119125Z" style="fill: inherit; stroke: inherit; stroke-width: inherit;" vector-effect="non-scaling-stroke"><title>Fairfield County</title></path><path id="county-45031" class="county feature" d="M754.2373880781906,357.65401337154685L755.9239032639825,358.08472750225894L757.5589957617431,361.4146852095672L756.508101577951,361.785579160314L751.9817410832162,366.5523588045312L750.4472724763642,365.367826786235L751.0311234891393,364.59387522386805L749.5361710718491,361.63962647303015L747.855092666218,361.93749696197574L747.8486037215089,361.8986011976864L751.1112858125632,358.9424427181193L753.545463252972,358.546297722123Z" style="fill: inherit; stroke: inherit; stroke-width: inherit;" vector-effect="non-scaling-stroke"><title>Darlington County</title></path><path id="county-45071" class="county feature" d="M730.3487727898892,362.269299153052L732.6899537369435,366.76118151110165L732.4792400506642,367.5889381276439L730.8093866457483,370.15404120362723L729.8058282592254,370.22545706243136L726.6046957615631,368.69766827639216L724.6048097180069,369.98011155676704L723.2783364607029,368.88526488105447L723.76007042706,366.9734365640388L725.2930863315216,365.49598382892L726.9173596502419,362.0498408710931L728.718625345823,363.4615414314412Z" style="fill: inherit; stroke: inherit; stroke-width: inherit;" vector-effect="non-scaling-stroke"><title>Newberry County</title></path><path id="county-45001" class="county feature" d="M718.1519960926519,365.71218241947963L717.0070844553991,367.14646170368917L718.6462139833261,369.25608984769246L718.653636627125,371.3696362962112L717.8629716176424,372.32709187869L714.7490687576499,372.6236362438402L713.9263346038914,373.8454075271343L711.1941119414673,370.5274926250411L716.9249279326843,364.4753316135467Z" style="fill: inherit; stroke: inherit; stroke-width: inherit;" vector-effect="non-scaling-stroke"><title>Abbeville County</title></path><path id="county-45047" class="county feature" d="M723.2783364607029,368.88526488105447L724.6048097180069,369.98011155676704L722.9873243467537,373.5230354765257L722.4210209369351,373.7672980619112L722.3655150423322,373.2033690125078L718.4278821235816,373.9946898372142L717.8629716176424,372.32709187869L718.653636627125,371.3696362962112L718.6462139833261,369.25608984769246L717.0070844553991,367.14646170368917L718.1519960926519,365.71218241947963L719.5640202336685,367.02326911690216Z" style="fill: inherit; stroke: inherit; stroke-width: inherit;" vector-effect="non-scaling-stroke"><title>Greenwood County</title></path><path id="county-45061" class="county feature" d="M751.9817410832162,366.5523588045312L753.191689362993,367.0956198066722L750.7686210103359,369.3070692523838L748.2287123758285,367.29081798269317L745.7165883453566,367.091062331117L745.5667567085468,366.0461684173764L746.0606995392524,363.5689925928614L747.855092666218,361.93749696197574L749.5361710718491,361.63962647303015L751.0311234891393,364.59387522386805L750.4472724763642,365.367826786235Z" style="fill: inherit; stroke: inherit; stroke-width: inherit;" vector-effect="non-scaling-stroke"><title>Lee County</title></path><path id="county-45041" class="county feature" d="M759.4630627644406,362.51244523834157L759.2472926553753,363.35473702157446L761.2000955507601,367.57627933972856L764.2368705895467,369.909889565463L761.7044041358025,370.80279264895626L756.9356604682696,370.48786999091305L755.6073642679662,369.7716153693616L753.9104621822253,368.8874714728263L755.0029631697939,367.90949315187345L753.191689362993,367.0956198066722L751.9817410832162,366.5523588045312L756.508101577951,361.785579160314L757.5589957617431,361.4146852095672L757.9497377287043,361.48120928588037Z" style="fill: inherit; stroke: inherit; stroke-width: inherit;" vector-effect="non-scaling-stroke"><title>Florence County</title></path><path id="county-45051" class="county feature" d="M775.6346150449285,366.5663982565587L775.7512082515359,366.64959227271197L775.6346150449285,366.5663982565587ZM775.4018344791518,366.40196797072167L775.6133399988594,366.5425956401799L775.4018344791518,366.40196797072167ZM766.417693689453,359.95899422500815L773.9575496306729,365.3639335927219L775.3295602571641,366.3454796845392L775.5306131498927,366.79331354659826L772.1852948457304,369.54142723146026L769.8785830705625,373.2365183781217L768.411350147843,373.50610576726524L766.5869811327453,371.27325209959065L765.0249435583837,368.34224294461933L763.4651120393335,366.7890736392535L764.5130753424168,364.9635652659416L765.7093161648977,360.95737842849076L766.391587411417,359.9380114210675Z" style="fill: inherit; stroke: inherit; stroke-width: inherit;" vector-effect="non-scaling-stroke"><title>Horry County</title></path><path id="county-45067" class="county feature" d="M765.7093161648977,360.95737842849076L764.5130753424168,364.9635652659416L763.4651120393335,366.7890736392535L765.0249435583837,368.34224294461933L766.5869811327453,371.27325209959065L765.1064154796511,371.3267173199863L764.4198244302901,370.24484260781173L764.2368705895467,369.909889565463L761.2000955507601,367.57627933972856L759.2472926553753,363.35473702157446L759.4630627644406,362.51244523834157L761.7564486710239,360.7646348889026Z" style="fill: inherit; stroke: inherit; stroke-width: inherit;" vector-effect="non-scaling-stroke"><title>Marion County</title></path><path id="county-45079" class="county feature" d="M743.7181827040156,367.66775233189173L743.5591300973393,369.6026828882751L744.9658295537101,373.6266225014556L744.7329614652954,374.2943229864402L741.4531096398939,374.1484020782559L738.3633015887822,372.71474134944594L737.2588290717815,370.50986195641815L734.9688899335862,369.1520435912546L733.7271248152509,369.3045699391672L732.4792400506642,367.5889381276439L732.6899537369435,366.76118151110165L734.969271473334,367.62935599882303L736.116513226373,366.7105887729257L740.031198335579,365.03963147651746L739.6306967069206,366.74030009529406L742.2446556697264,368.4912854498192Z" style="fill: inherit; stroke: inherit; stroke-width: inherit;" vector-effect="non-scaling-stroke"><title>Richland County</title></path><path id="county-45063" class="county feature" d="M738.3633015887822,372.71474134944594L738.4093742624843,376.0009414198015L736.3641939147446,377.3579993500116L733.3922109726216,376.3781662256539L729.8680449618381,374.0931770029939L730.8093866457483,370.15404120362723L732.4792400506642,367.5889381276439L733.7271248152509,369.3045699391672L734.9688899335862,369.1520435912546L737.2588290717815,370.50986195641815Z" style="fill: inherit; stroke: inherit; stroke-width: inherit;" vector-effect="non-scaling-stroke"><title>Lexington County</title></path><path id="county-45081" class="county feature" d="M730.8093866457483,370.15404120362723L729.8680449618381,374.0931770029939L728.8226367110494,375.44867085646445L725.8679845802552,374.9079407908433L724.6794923225879,373.01153097278655L722.9873243467537,373.5230354765257L724.6048097180069,369.98011155676704L726.6046957615631,368.69766827639216L729.8058282592254,370.22545706243136Z" style="fill: inherit; stroke: inherit; stroke-width: inherit;" vector-effect="non-scaling-stroke"><title>Saluda County</title></path><path id="county-45085" class="county feature" d="M753.191689362993,367.0956198066722L755.0029631697939,367.90949315187345L753.9104621822253,368.8874714728263L750.0915203145929,372.2517169538369L748.0537150001495,373.28025187615117L746.3463729181108,375.92424217797816L744.7329614652954,374.2943229864402L744.9658295537101,373.6266225014556L743.5591300973393,369.6026828882751L743.7181827040156,367.66775233189173L745.5667567085468,366.0461684173764L745.7165883453566,367.091062331117L748.2287123758285,367.29081798269317L750.7686210103359,369.3070692523838Z" style="fill: inherit; stroke: inherit; stroke-width: inherit;" vector-effect="non-scaling-stroke"><title>Sumter County</title></path><path id="county-45065" class="county feature" d="M717.8629716176424,372.32709187869L718.4278821235816,373.9946898372142L722.3655150423322,373.2033690125078L722.4210209369351,373.7672980619112L720.8323085897525,374.4579267824173L721.710717812964,376.18072675812937L721.0230100699672,377.5491586292791L722.360254623082,380.5572721472007L720.3092262805078,379.01776364134764L718.1786446694462,376.6265799291274L714.5389980570772,374.86289056010037L713.9263346038914,373.8454075271343L714.7490687576499,372.6236362438402Z" style="fill: inherit; stroke: inherit; stroke-width: inherit;" vector-effect="non-scaling-stroke"><title>McCormick County</title></path><path id="county-45037" class="county feature" d="M728.8226367110494,375.44867085646445L724.1067100896444,381.5257557787804L723.8298488932238,381.32270787699815L722.360254623082,380.5572721472007L721.0230100699672,377.5491586292791L721.710717812964,376.18072675812937L720.8323085897525,374.4579267824173L722.4210209369351,373.7672980619112L722.9873243467537,373.5230354765257L724.6794923225879,373.01153097278655L725.8679845802552,374.9079407908433Z" style="fill: inherit; stroke: inherit; stroke-width: inherit;" vector-effect="non-scaling-stroke"><title>Edgefield County</title></path><path id="county-45027" class="county feature" d="M755.6073642679662,369.7716153693616L754.152579670443,372.25464976297144L754.3909436496002,373.42556992635605L753.3922509338424,377.55299893578024L751.7183602329171,378.84960272258274L749.0926784430142,379.2461333528447L747.1867597482394,377.413952030681L746.3463729181108,375.92424217797816L748.0537150001495,373.28025187615117L750.0915203145929,372.2517169538369L753.9104621822253,368.8874714728263Z" style="fill: inherit; stroke: inherit; stroke-width: inherit;" vector-effect="non-scaling-stroke"><title>Clarendon County</title></path><path id="county-45089" class="county feature" d="M764.2368705895467,369.909889565463L764.4198244302901,370.24484260781173L763.3016968336234,372.21668479209575L763.3084847857693,374.3307940344105L761.9567701399259,376.09721796771953L760.4815142385861,379.99982963278933L759.1891819914742,379.7427539702628L755.366361600146,377.1424585763882L753.3922509338424,377.55299893578024L754.3909436496002,373.42556992635605L754.152579670443,372.25464976297144L755.6073642679662,369.7716153693616L756.9356604682696,370.48786999091305L761.7044041358025,370.80279264895626Z" style="fill: inherit; stroke: inherit; stroke-width: inherit;" vector-effect="non-scaling-stroke"><title>Williamsburg County</title></path><path id="county-45017" class="county feature" d="M744.7329614652954,374.2943229864402L746.3463729181108,375.92424217797816L747.1867597482394,377.413952030681L746.3116800520581,377.4246269853945L744.9661217026811,379.4449083868525L742.2927802688057,377.3411799281249L740.2703589330334,377.57779799063485L738.4093742624843,376.0009414198015L738.3633015887822,372.71474134944594L741.4531096398939,374.1484020782559Z" style="fill: inherit; stroke: inherit; stroke-width: inherit;" vector-effect="non-scaling-stroke"><title>Calhoun County</title></path><path id="county-45003" class="county feature" d="M736.3641939147446,377.3579993500116L734.0024648293333,380.81758891570007L728.95117035505,387.1496986808504L727.3533480753549,386.4517127514889L725.5931368342137,384.3489255485979L725.5722997125764,382.5884556356373L724.1067100896444,381.5257557787804L728.8226367110494,375.44867085646445L729.8680449618381,374.0931770029939L733.3922109726216,376.3781662256539Z" style="fill: inherit; stroke: inherit; stroke-width: inherit;" vector-effect="non-scaling-stroke"><title>Aiken County</title></path><path id="county-45043" class="county feature" d="M767.2791180278141,382.11926079172804L766.8152056007884,381.9309842024139L767.2791180278141,382.11926079172804ZM766.5869811327453,371.27325209959065L768.411350147843,373.50610576726524L769.8785830705625,373.2365183781217L768.3230864797438,377.22662523661916L768.2397210196832,379.6658451891183L766.6033135531402,378.79648146099817L768.3341247240267,381.1752979877472L767.2750872114866,381.96922958753703L765.0746104907344,381.5325851464877L764.2990565445318,381.0807148920444L760.4815142385861,379.99982963278933L761.9567701399259,376.09721796771953L763.3084847857693,374.3307940344105L763.3016968336234,372.21668479209575L764.4198244302901,370.24484260781173L765.1064154796511,371.3267173199863Z" style="fill: inherit; stroke: inherit; stroke-width: inherit;" vector-effect="non-scaling-stroke"><title>Georgetown County</title></path><path id="county-45075" class="county feature" d="M747.1867597482394,377.413952030681L749.0926784430142,379.2461333528447L751.7183602329171,378.84960272258274L751.6841226186673,381.6088940130661L750.1605124616125,382.65924612937454L748.1586619010945,382.5992660398141L747.7666617365007,381.5881259356112L743.8347799604934,385.1550267654138L743.7254694671061,385.24732820365773L741.1602821634386,383.2527203737694L736.4474700115213,381.39523138697416L734.0024648293333,380.81758891570007L736.3641939147446,377.3579993500116L738.4093742624843,376.0009414198015L740.2703589330334,377.57779799063485L742.2927802688057,377.3411799281249L744.9661217026811,379.4449083868525L746.3116800520581,377.4246269853945Z" style="fill: inherit; stroke: inherit; stroke-width: inherit;" vector-effect="non-scaling-stroke"><title>Orangeburg County</title></path><path id="county-45015" class="county feature" d="M760.4815142385861,379.99982963278933L764.2990565445318,381.0807148920444L763.4122455938244,382.47581213658395L761.5945436847414,383.2511326668143L759.8314529291304,387.1787525581186L758.1968505286916,389.4640617567734L757.5393982048548,388.03941270239295L756.6332096070103,388.38198650277957L755.6644812955722,386.64813381364206L754.1475883292546,386.4875821924686L751.1038546146178,384.49433975505235L750.1605124616125,382.65924612937454L751.6841226186673,381.6088940130661L751.7183602329171,378.84960272258274L753.3922509338424,377.55299893578024L755.366361600146,377.1424585763882L759.1891819914742,379.7427539702628Z" style="fill: inherit; stroke: inherit; stroke-width: inherit;" vector-effect="non-scaling-stroke"><title>Berkeley County</title></path><path id="county-45011" class="county feature" d="M736.4474700115213,381.39523138697416L737.1780453904059,386.59614246514946L737.8407614625828,387.2944500046319L735.2366594212324,387.9003207727352L732.3647858953332,387.3901959632484L731.4353456002716,388.7283496151499L729.3013742745719,388.1618578495461L728.95117035505,387.1496986808504L734.0024648293333,380.81758891570007Z" style="fill: inherit; stroke: inherit; stroke-width: inherit;" vector-effect="non-scaling-stroke"><title>Barnwell County</title></path><path id="county-45009" class="county feature" d="M743.7254694671061,385.24732820365773L739.8029061932775,388.73788466173164L737.8407614625828,387.2944500046319L737.1780453904059,386.59614246514946L736.4474700115213,381.39523138697416L741.1602821634386,383.2527203737694Z" style="fill: inherit; stroke: inherit; stroke-width: inherit;" vector-effect="non-scaling-stroke"><title>Bamberg County</title></path><path id="county-45035" class="county feature" d="M750.1605124616125,382.65924612937454L751.1038546146178,384.49433975505235L754.1475883292546,386.4875821924686L755.526817205714,388.0453239589757L754.6439033448415,390.2791999855998L750.7818182187641,390.1595448684275L750.2083179455517,386.55992640918987L747.3282882445404,386.93580926026175L743.8347799604934,385.1550267654138L747.7666617365007,381.5881259356112L748.1586619010945,382.5992660398141Z" style="fill: inherit; stroke: inherit; stroke-width: inherit;" vector-effect="non-scaling-stroke"><title>Dorchester County</title></path><path id="county-45029" class="county feature" d="M752.7726419621313,396.70959066831847L754.1265826321251,395.8415893793076L752.7726419621313,396.70959066831847ZM743.8347799604934,385.1550267654138L747.3282882445404,386.93580926026175L750.2083179455517,386.55992640918987L750.7818182187641,390.1595448684275L750.4734328530241,392.68897160637425L751.2789953522732,394.914128139597L751.6918008931068,396.68639980213857L749.0041410020667,396.03080230658327L746.4637983536844,394.29708541136233L744.7025114136718,394.0849764978502L743.1806310423008,391.8876940426818L739.8029061932775,388.73788466173164L743.7254694671061,385.24732820365773Z" style="fill: inherit; stroke: inherit; stroke-width: inherit;" vector-effect="non-scaling-stroke"><title>Colleton County</title></path><path id="county-45005" class="county feature" d="M737.8407614625828,387.2944500046319L739.8029061932775,388.73788466173164L737.9084365466758,390.42709335271L737.5940523295637,392.65030106361996L735.6573980464043,394.739859665068L732.6908156566763,389.4800443562667L731.4353456002716,388.7283496151499L732.3647858953332,387.3901959632484L735.2366594212324,387.9003207727352Z" style="fill: inherit; stroke: inherit; stroke-width: inherit;" vector-effect="non-scaling-stroke"><title>Allendale County</title></path><path id="county-45049" class="county feature" d="M744.7025114136718,394.0849764978502L744.1617160976883,394.9966596155065L743.7788681409938,395.79889718400466L741.6518111389289,393.6452000481496L738.1145317986852,397.9439451436798L736.3312150891323,397.4780330140667L735.6573980464043,394.739859665068L737.5940523295637,392.65030106361996L737.9084365466758,390.42709335271L739.8029061932775,388.73788466173164L743.1806310423008,391.8876940426818Z" style="fill: inherit; stroke: inherit; stroke-width: inherit;" vector-effect="non-scaling-stroke"><title>Hampton County</title></path><path id="county-45053" class="county feature" d="M744.1617160976883,394.9966596155065L744.9697017533846,396.5569492625601L745.3503925607224,398.63930226768184L745.4218335341425,399.4726883487268L745.5196045636125,399.5488951979099L745.4379530801425,399.7500058935858L745.167063523308,400.1929772709519L743.1305574687779,403.08995589724645L744.5383175105851,405.03827521911444L744.4670355865366,406.09708186493515L741.9354045641646,405.6823124770293L741.1936683203821,403.73341868493196L741.1113660681368,401.6189144532269L738.1145317986852,397.9439451436798L741.6518111389289,393.6452000481496L743.7788681409938,395.79889718400466Z" style="fill: inherit; stroke: inherit; stroke-width: inherit;" vector-effect="non-scaling-stroke"><title>Jasper County</title></path><path id="county-45013" class="county feature" d="M747.5661670619368,401.8682386776784L748.5893379148281,402.7501820652442L746.7045350923144,405.06135158254244ZM744.5383175105851,405.03827521911444L743.1305574687779,403.08995589724645L745.167063523308,400.1929772709519L746.8745852656765,401.54707152481683L746.2638634676575,404.31437983753665ZM745.4379530801425,399.7500058935858L745.5196045636125,399.5488951979099L745.4379530801425,399.7500058935858ZM745.4218335341425,399.4726883487268L745.3503925607224,398.63930226768184L745.4218335341425,399.4726883487268ZM747.9968929568481,397.46379276769926L749.4864353486439,397.3757570610546L751.2904320788457,398.63897264177274L749.818788778205,399.89079594411305L749.1829719770874,401.83408979155183L748.0920084794652,400.00922288498987ZM746.4703592413554,396.96974074347065L747.4642627912316,397.1304150661115L748.3927678761738,401.2262274094445L746.6205787356087,400.0465703545791L745.6366360909996,398.2590998697732ZM749.0041410020667,396.03080230658327L749.3782564090963,397.1675818670344L746.2727878646708,396.8392300777614L745.5600816897412,397.96083105475634L744.9697017533846,396.5569492625601L744.1617160976883,394.9966596155065L744.7025114136718,394.0849764978502L746.4637983536844,394.29708541136233Z" style="fill: inherit; stroke: inherit; stroke-width: inherit;" vector-effect="non-scaling-stroke"><title>Beaufort County</title></path><path id="county-45019" class="county feature" d="M757.5393982048548,388.03941270239295L758.3124667702948,390.87350869732927L759.1824158444168,390.8076897433684L757.8480568078653,393.557574766432L754.1265826321251,395.8415893793076L752.7726419621313,396.70959066831847L751.2789953522732,394.914128139597L750.4734328530241,392.68897160637425L750.7818182187641,390.1595448684275L754.6439033448415,390.2791999855998L755.526817205714,388.0453239589757L754.1475883292546,386.4875821924686L755.6644812955722,386.64813381364206L756.6332096070103,388.38198650277957ZM767.2791180278141,382.11926079172804L766.8152056007884,381.9309842024139L767.2791180278141,382.11926079172804ZM760.7024973940315,388.67552378629534L759.3864242725821,390.4389585407797L758.59964894002,390.2255568839598L759.8314529291304,387.1787525581186L761.5945436847414,383.2511326668143L763.4122455938244,382.47581213658395L764.2990565445318,381.0807148920444L765.0746104907344,381.5325851464877L767.2114150762758,382.24820609202175L765.303646124502,384.66306286101724L763.04725443013,385.1182866945313Z" style="fill: inherit; stroke: inherit; stroke-width: inherit;" vector-effect="non-scaling-stroke"><title>Charleston County</title></path></g><path id="counties-mesh" class="counties mesh" d="M716.4678527770768,350.99236053051925L717.2571694773669,357.45353409377765L718.6280339681899,358.4919388854663L717.7951958837954,362.3907948351741L716.9249279326843,364.4753316135467L714.4309260973364,362.1437516312501L713.4208587794121,358.6008566332823L712.1333421255758,355.0609718719288L711.1818468013948,354.32261901835057L708.5990642441091,354.5501005978673M721.6150623640752,350.45822153025415L724.1106840431129,354.87223165202454L724.8137195350607,355.1475351050864L723.9530740205064,356.71499926033266L723.5623132698262,361.3938082036933L719.9899881266547,359.8301373511438L718.6280339681899,358.4919388854663M729.2679390199919,349.65892083642336L728.9648801808207,351.9635225029223L727.8366407375177,352.3587470923145L728.8442880054353,355.9293720217536L724.8137195350607,355.1475351050864M736.423366912039,350.2289661648738L737.473525090051,352.92645095405953L737.2963244415383,354.9547626231283L728.5769674213949,356.3083214985637L728.8442880054353,355.9293720217536M713.4208587794121,358.6008566332823L709.2662142007,361.98792760583046L708.6083531125521,363.01112127923875L707.3914440885053,360.9276475681429L706.6314279266431,355.0523082514587M742.3209457525268,354.20098880361195L745.2816032464632,357.5840829619351L743.3049041342284,358.95319441234994L743.8486767387892,359.7637269957693L740.6719591025786,360.88230382918266L740.4634776017333,359.8004592589982L738.6647080764678,361.65756406940557L738.4314503213579,360.06551781002963L738.2404873585008,357.1850723015293L737.2963244415383,354.9547626231283M728.5769674213949,356.3083214985637L730.1306332702285,360.8223181119125L730.3487727898892,362.269299153052L728.718625345823,363.4615414314412L726.9173596502419,362.0498408710931L723.5623132698262,361.3938082036933M738.4314503213579,360.06551781002963L730.1306332702285,360.8223181119125M726.9173596502419,362.0498408710931L725.2930863315216,365.49598382892L723.76007042706,366.9734365640388L723.2783364607029,368.88526488105447L719.5640202336685,367.02326911690216L718.1519960926519,365.71218241947963L716.9249279326843,364.4753316135467L711.1941119414673,370.5274926250411L710.4769032688154,369.09470717427484L708.6752488446206,366.15273715247815L706.7222097463896,365.95655225222276M751.8713196159836,352.81054083849654L753.1191878851804,354.7931205935604L754.3729919767549,355.4069578865086L754.2373880781906,357.65401337154685L753.545463252972,358.546297722123L751.1112858125632,358.9424427181193L747.8486037215089,361.8986011976864L746.7721625191527,359.3418884313795L745.2816032464632,357.5840829619351M759.6562151083751,355.00899898783007L757.9497377287043,361.48120928588037L757.5589957617431,361.4146852095672L755.9239032639825,358.08472750225894L754.2373880781906,357.65401337154685M766.391587411417,359.9380114210675L765.7093161648977,360.95737842849076L761.7564486710239,360.7646348889026L759.4630627644406,362.51244523834157L757.9497377287043,361.48120928588037M747.8486037215089,361.8986011976864L747.855092666218,361.93749696197574L746.0606995392524,363.5689925928614L745.5667567085468,366.0461684173764L743.7181827040156,367.66775233189173L742.2446556697264,368.4912854498192L739.6306967069206,366.74030009529406L740.031198335579,365.03963147651746L740.5492676816201,362.905728450898L738.6647080764678,361.65756406940557M740.031198335579,365.03963147651746L736.116513226373,366.7105887729257L734.969271473334,367.62935599882303L732.6899537369435,366.76118151110165L730.3487727898892,362.269299153052M757.5589957617431,361.4146852095672L756.508101577951,361.785579160314L751.9817410832162,366.5523588045312L750.4472724763642,365.367826786235L751.0311234891393,364.59387522386805L749.5361710718491,361.63962647303015L747.855092666218,361.93749696197574M732.6899537369435,366.76118151110165L732.4792400506642,367.5889381276439L730.8093866457483,370.15404120362723L729.8058282592254,370.22545706243136L726.6046957615631,368.69766827639216L724.6048097180069,369.98011155676704L723.2783364607029,368.88526488105447M718.1519960926519,365.71218241947963L717.0070844553991,367.14646170368917L718.6462139833261,369.25608984769246L718.653636627125,371.3696362962112L717.8629716176424,372.32709187869L714.7490687576499,372.6236362438402L713.9263346038914,373.8454075271343L711.1941119414673,370.5274926250411M724.6048097180069,369.98011155676704L722.9873243467537,373.5230354765257L722.4210209369351,373.7672980619112L722.3655150423322,373.2033690125078L718.4278821235816,373.9946898372142L717.8629716176424,372.32709187869M751.9817410832162,366.5523588045312L753.191689362993,367.0956198066722L750.7686210103359,369.3070692523838L748.2287123758285,367.29081798269317L745.7165883453566,367.091062331117L745.5667567085468,366.0461684173764M759.4630627644406,362.51244523834157L759.2472926553753,363.35473702157446L761.2000955507601,367.57627933972856L764.2368705895467,369.909889565463L761.7044041358025,370.80279264895626L756.9356604682696,370.48786999091305L755.6073642679662,369.7716153693616L753.9104621822253,368.8874714728263L755.0029631697939,367.90949315187345L753.191689362993,367.0956198066722M775.6346150449285,366.5663982565587L775.7512082515359,366.64959227271197L775.6346150449285,366.5663982565587M775.4018344791518,366.40196797072167L775.6133399988594,366.5425956401799L775.4018344791518,366.40196797072167M708.6083531125521,363.01112127923875L706.7222097463896,365.95655225222276L705.7474544419085,365.8679818003768L704.8512738948094,365.17812249895053L700.930174841524,362.84584728767936L700.6409873287055,362.33352535721224L701.8855814373497,359.09613741321994L703.4761038974896,357.723701105112L703.6038052760537,356.5239132694469L705.0286592878814,355.8160604195168L706.6314279266431,355.0523082514587L708.5990642441091,354.5501005978673L711.2178789224432,352.7212002865291L714.4238838190021,351.3895825658691L716.4678527770768,350.99236053051925L720.1881792860627,350.6107756722288L721.6150623640752,350.45822153025415L723.2150681859142,350.2873231766798L729.2679390199919,349.65892083642336L729.8463612383963,349.59565703009594L734.302959519575,349.1870022655646L734.4897081516038,351.12636546078625L736.423366912039,350.2289661648738L737.6418066524307,351.46794863841546L738.6954276086169,352.5626439057178L738.8076252746059,354.72918155546904L742.3209457525268,354.20098880361195L745.987612150532,353.6620061626529L751.8713196159836,352.81054083849654L751.9036000411675,352.80502964543746L755.5025765185036,352.22076395391935L759.4533177476129,354.8659996854526L759.6562151083751,355.00899898783007L766.391587411417,359.9380114210675L766.417693689453,359.95899422500815L773.9575496306729,365.3639335927219L775.3295602571641,366.3454796845392L775.5306131498927,366.79331354659826L772.1852948457304,369.54142723146026L769.8785830705625,373.2365183781217L768.411350147843,373.50610576726524L766.5869811327453,371.27325209959065L765.0249435583837,368.34224294461933L763.4651120393335,366.7890736392535L764.5130753424168,364.9635652659416L765.7093161648977,360.95737842849076M766.5869811327453,371.27325209959065L765.1064154796511,371.3267173199863L764.4198244302901,370.24484260781173L764.2368705895467,369.909889565463M722.4210209369351,373.7672980619112L720.8323085897525,374.4579267824173L721.710717812964,376.18072675812937L721.0230100699672,377.5491586292791L722.360254623082,380.5572721472007L720.3092262805078,379.01776364134764L718.1786446694462,376.6265799291274L714.5389980570772,374.86289056010037L713.9263346038914,373.8454075271343M743.7181827040156,367.66775233189173L743.5591300973393,369.6026828882751L744.9658295537101,373.6266225014556L744.7329614652954,374.2943229864402L741.4531096398939,374.1484020782559L738.3633015887822,372.71474134944594L737.2588290717815,370.50986195641815L734.9688899335862,369.1520435912546L733.7271248152509,369.3045699391672L732.4792400506642,367.5889381276439M738.3633015887822,372.71474134944594L738.4093742624843,376.0009414198015L736.3641939147446,377.3579993500116L733.3922109726216,376.3781662256539L729.8680449618381,374.0931770029939L730.8093866457483,370.15404120362723M729.8680449618381,374.0931770029939L728.8226367110494,375.44867085646445L725.8679845802552,374.9079407908433L724.6794923225879,373.01153097278655L722.9873243467537,373.5230354765257M753.9104621822253,368.8874714728263L750.0915203145929,372.2517169538369L748.0537150001495,373.28025187615117L746.3463729181108,375.92424217797816L744.7329614652954,374.2943229864402M728.8226367110494,375.44867085646445L724.1067100896444,381.5257557787804L723.8298488932238,381.32270787699815L722.360254623082,380.5572721472007M755.6073642679662,369.7716153693616L754.152579670443,372.25464976297144L754.3909436496002,373.42556992635605L753.3922509338424,377.55299893578024L751.7183602329171,378.84960272258274L749.0926784430142,379.2461333528447L747.1867597482394,377.413952030681L746.3463729181108,375.92424217797816M764.4198244302901,370.24484260781173L763.3016968336234,372.21668479209575L763.3084847857693,374.3307940344105L761.9567701399259,376.09721796771953L760.4815142385861,379.99982963278933L759.1891819914742,379.7427539702628L755.366361600146,377.1424585763882L753.3922509338424,377.55299893578024M747.1867597482394,377.413952030681L746.3116800520581,377.4246269853945L744.9661217026811,379.4449083868525L742.2927802688057,377.3411799281249L740.2703589330334,377.57779799063485L738.4093742624843,376.0009414198015M736.3641939147446,377.3579993500116L734.0024648293333,380.81758891570007L728.95117035505,387.1496986808504L727.3533480753549,386.4517127514889L725.5931368342137,384.3489255485979L725.5722997125764,382.5884556356373L724.1067100896444,381.5257557787804M769.8785830705625,373.2365183781217L768.3230864797438,377.22662523661916L768.2397210196832,379.6658451891183L766.6033135531402,378.79648146099817L768.3341247240267,381.1752979877472L767.2750872114866,381.96922958753703L765.0746104907344,381.5325851464877L764.2990565445318,381.0807148920444L760.4815142385861,379.99982963278933M751.7183602329171,378.84960272258274L751.6841226186673,381.6088940130661L750.1605124616125,382.65924612937454L748.1586619010945,382.5992660398141L747.7666617365007,381.5881259356112L743.8347799604934,385.1550267654138L743.7254694671061,385.24732820365773L741.1602821634386,383.2527203737694L736.4474700115213,381.39523138697416L734.0024648293333,380.81758891570007M764.2990565445318,381.0807148920444L763.4122455938244,382.47581213658395L761.5945436847414,383.2511326668143L759.8314529291304,387.1787525581186L758.1968505286916,389.4640617567734L757.5393982048548,388.03941270239295L756.6332096070103,388.38198650277957L755.6644812955722,386.64813381364206L754.1475883292546,386.4875821924686L751.1038546146178,384.49433975505235L750.1605124616125,382.65924612937454M736.4474700115213,381.39523138697416L737.1780453904059,386.59614246514946L737.8407614625828,387.2944500046319L735.2366594212324,387.9003207727352L732.3647858953332,387.3901959632484L731.4353456002716,388.7283496151499L729.3013742745719,388.1618578495461L728.95117035505,387.1496986808504M743.7254694671061,385.24732820365773L739.8029061932775,388.73788466173164L737.8407614625828,387.2944500046319M754.1475883292546,386.4875821924686L755.526817205714,388.0453239589757L754.6439033448415,390.2791999855998L750.7818182187641,390.1595448684275L750.2083179455517,386.55992640918987L747.3282882445404,386.93580926026175L743.8347799604934,385.1550267654138M750.7818182187641,390.1595448684275L750.4734328530241,392.68897160637425L751.2789953522732,394.914128139597L751.6918008931068,396.68639980213857L749.0041410020667,396.03080230658327L746.4637983536844,394.29708541136233L744.7025114136718,394.0849764978502L743.1806310423008,391.8876940426818L739.8029061932775,388.73788466173164L737.9084365466758,390.42709335271L737.5940523295637,392.65030106361996L735.6573980464043,394.739859665068L732.6908156566763,389.4800443562667L731.4353456002716,388.7283496151499M744.7025114136718,394.0849764978502L744.1617160976883,394.9966596155065L743.7788681409938,395.79889718400466L741.6518111389289,393.6452000481496L738.1145317986852,397.9439451436798L736.3312150891323,397.4780330140667L735.6573980464043,394.739859665068M744.1617160976883,394.9966596155065L744.9697017533846,396.5569492625601L745.3503925607224,398.63930226768184L745.4218335341425,399.4726883487268L745.5196045636125,399.5488951979099L745.4379530801425,399.7500058935858L745.167063523308,400.1929772709519L743.1305574687779,403.08995589724645L744.5383175105851,405.03827521911444L744.4670355865366,406.09708186493515L741.9354045641646,405.6823124770293L741.1936683203821,403.73341868493196L741.1113660681368,401.6189144532269L738.1145317986852,397.9439451436798M747.5661670619368,401.8682386776784L748.5893379148281,402.7501820652442L746.7045350923144,405.06135158254244L747.5661670619368,401.8682386776784M745.167063523308,400.1929772709519L746.8745852656765,401.54707152481683L746.2638634676575,404.31437983753665L744.5383175105851,405.03827521911444M745.5196045636125,399.5488951979099L745.4379530801425,399.7500058935858M745.3503925607224,398.63930226768184L745.4218335341425,399.4726883487268M747.9968929568481,397.46379276769926L749.4864353486439,397.3757570610546L751.2904320788457,398.63897264177274L749.818788778205,399.89079594411305L749.1829719770874,401.83408979155183L748.0920084794652,400.00922288498987L747.9968929568481,397.46379276769926M746.4703592413554,396.96974074347065L747.4642627912316,397.1304150661115L748.3927678761738,401.2262274094445L746.6205787356087,400.0465703545791L745.6366360909996,398.2590998697732L746.4703592413554,396.96974074347065M749.0041410020667,396.03080230658327L749.3782564090963,397.1675818670344L746.2727878646708,396.8392300777614L745.5600816897412,397.96083105475634L744.9697017533846,396.5569492625601M757.5393982048548,388.03941270239295L758.3124667702948,390.87350869732927L759.1824158444168,390.8076897433684L757.8480568078653,393.557574766432L754.1265826321251,395.8415893793076M752.7726419621313,396.70959066831847L754.1265826321251,395.8415893793076L752.7726419621313,396.70959066831847L751.2789953522732,394.914128139597M767.2791180278141,382.11926079172804L766.8152056007884,381.9309842024139L767.2791180278141,382.11926079172804L766.8152056007884,381.9309842024139M765.0746104907344,381.5325851464877L767.2114150762758,382.24820609202175L765.303646124502,384.66306286101724L763.04725443013,385.1182866945313L760.7024973940315,388.67552378629534L759.3864242725821,390.4389585407797L758.59964894002,390.2255568839598L759.8314529291304,387.1787525581186" style="fill: inherit; stroke: inherit; stroke-width: inherit;" vector-effect="non-scaling-stroke"></path></svg>