<?xml version="1.0" standalone="yes"?>
<svg xmlns="http://www.w3.org/2000/svg" version="1.2" id="root" viewBox="399.4137638550875 159.5036139122335 103.29778502662998 69.13367443825473"><g id="counties"><path id="county-46105" class="county feature" d="M430.69289523937346,161.48030090626003L430.1462913380407,170.27564718945143L429.6294121754277,178.37779528700787L417.03921390992815,177.4890232835313L417.2761380883584,174.25838508944344L418.4808653624099,160.63850011367265Z" style="fill: inherit; stroke: inherit; stroke-width: inherit;" vector-effect="non-scaling-stroke"><title>Perkins County</title></path><path id="county-46031" class="county feature" d="M450.0157488213226,162.565061433511L451.8949021448395,164.27081503432566L452.4548345203936,167.08575114507937L450.7752247731113,169.1193953751466L450.07655706530653,170.38989925556814L451.82412127722506,171.4471439379979L437.06632910119436,170.69371781984728L430.1462913380407,170.27564718945143L430.69289523937346,161.48030090626003L430.71630930571513,161.47977315759636Z" style="fill: inherit; stroke: inherit; stroke-width: inherit;" vector-effect="non-scaling-stroke"><title>Corson County</title></path><path id="county-46063" class="county feature" d="M417.7782197575809,160.58487729373087L418.4808653624099,160.63850011367265L417.2761380883584,174.25838508944344L403.09449592564886,173.1361391451494L404.08954713282026,160.6824699221621L404.1801981419258,159.5036139122335Z" style="fill: inherit; stroke: inherit; stroke-width: inherit;" vector-effect="non-scaling-stroke"><title>Harding County</title></path><path id="county-46021" class="county feature" d="M458.21969588797504,162.9706204942148L460.32712597433465,163.0649322459019L460.08290255337363,169.5446830225652L450.7752247731113,169.1193953751466L452.4548345203936,167.08575114507937L451.8949021448395,164.27081503432566L450.0157488213226,162.565061433511Z" style="fill: inherit; stroke: inherit; stroke-width: inherit;" vector-effect="non-scaling-stroke"><title>Campbell County</title></path><path id="county-46089" class="county feature" d="M469.5848166079546,163.41357817220432L473.24161045257705,163.5448867077656L473.04645500801746,170.0243361684578L460.20947850989165,169.54962971306793L460.08290255337363,169.5446830225652L460.32712597433465,163.0649322459019Z" style="fill: inherit; stroke: inherit; stroke-width: inherit;" vector-effect="non-scaling-stroke"><title>McPherson County</title></path><path id="county-46013" class="county feature" d="M482.54878381515044,163.82775271136245L482.9267425227518,163.83668387545652L482.7823892273498,170.31751605192756L482.6233888732548,176.817378547938L472.95464996356174,176.5160456669729L472.8933926481326,176.5132878300342L473.04645500801746,170.0243361684578L473.24161045257705,163.5448867077656Z" style="fill: inherit; stroke: inherit; stroke-width: inherit;" vector-effect="non-scaling-stroke"><title>Brown County</title></path><path id="county-46109" class="county feature" d="M501.3285959281227,164.0938883913832L500.13274903378544,167.6229285245514L497.71552444471274,169.42167900193033L497.73344580882514,170.5821215089561L499.5406278697857,173.69340639571408L502.48587388706346,175.4635724548889L495.62779718397286,175.40574955709428L495.43344568065015,175.9647687088991L492.55921477329866,175.9159341164767L492.61261527211553,171.05010114223103L492.6894668170375,164.0134449604509Z" style="fill: inherit; stroke: inherit; stroke-width: inherit;" vector-effect="non-scaling-stroke"><title>Roberts County</title></path><path id="county-46091" class="county feature" d="M492.6894668170375,164.0134449604509L492.61261527211553,171.05010114223103L490.7055729651077,170.47335172800376L482.7823892273498,170.31751605192756L482.9267425227518,163.83668387545652Z" style="fill: inherit; stroke: inherit; stroke-width: inherit;" vector-effect="non-scaling-stroke"><title>Marshall County</title></path><path id="county-46129" class="county feature" d="M460.08290255337363,169.5446830225652L460.20947850989165,169.54962971306793L459.93745422581105,176.03559415603934L452.70067677857395,175.71493203617763L452.0224901303404,174.32891941352273L452.62982994262325,173.19812909788027L451.82412127722506,171.4471439379979L450.07655706530653,170.38989925556814L450.7752247731113,169.1193953751466Z" style="fill: inherit; stroke: inherit; stroke-width: inherit;" vector-effect="non-scaling-stroke"><title>Walworth County</title></path><path id="county-46045" class="county feature" d="M473.04645500801746,170.0243361684578L472.8933926481326,176.5132878300342L461.71848926836583,176.11290229641963L459.93745422581105,176.03559415603934L460.20947850989165,169.54962971306793Z" style="fill: inherit; stroke: inherit; stroke-width: inherit;" vector-effect="non-scaling-stroke"><title>Edmunds County</title></path><path id="county-46037" class="county feature" d="M482.7823892273498,170.31751605192756L490.7055729651077,170.47335172800376L492.61261527211553,171.05010114223103L492.55921477329866,175.9159341164767L492.52406034945807,178.64020802526477L489.001201958538,178.59380194494827L482.58474016656334,178.44431752891262L482.6233888732548,176.817378547938Z" style="fill: inherit; stroke: inherit; stroke-width: inherit;" vector-effect="non-scaling-stroke"><title>Day County</title></path><path id="county-46041" class="county feature" d="M451.82412127722506,171.4471439379979L452.62982994262325,173.19812909788027L452.0224901303404,174.32891941352273L452.70067677857395,175.71493203617763L451.7386494509786,178.38804261660584L452.2493983388119,179.96742584284607L450.78577338110046,179.7588407986077L450.50439202180894,182.14925469526474L448.54971414740965,184.61440846312985L446.846558495528,183.36861515621274L446.2576658175741,184.31850892551472L443.49511091140135,184.12186926889774L442.4645412436321,184.9063602105225L440.6934473358451,184.47663140620602L440.9524782871814,179.86392420931293L436.1548335296913,179.60021342570906L437.06632910119436,170.69371781984728Z" style="fill: inherit; stroke: inherit; stroke-width: inherit;" vector-effect="non-scaling-stroke"><title>Dewey County</title></path><path id="county-46137" class="county feature" d="M437.06632910119436,170.69371781984728L436.1548335296913,179.60021342570906L440.9524782871814,179.86392420931293L440.6934473358451,184.47663140620602L439.3602106834281,185.4416771147687L436.3580873351956,186.29465345026836L435.2833108120618,187.47724561130633L432.9018915391497,187.1599465129857L431.5832514633423,188.12158945240515L429.0032924135161,188.20697390865837L429.6294121754277,178.37779528700787L430.1462913380407,170.27564718945143Z" style="fill: inherit; stroke: inherit; stroke-width: inherit;" vector-effect="non-scaling-stroke"><title>Ziebach County</title></path><path id="county-46051" class="county feature" d="M502.48587388706346,175.4635724548889L502.7115488817175,176.54162520010198L502.69978629049365,181.99106572029962L497.0177738910516,181.9622286885667L497.02898537345135,178.72034775482143L492.52406034945807,178.64020802526477L492.55921477329866,175.9159341164767L495.43344568065015,175.9647687088991L495.62779718397286,175.40574955709428Z" style="fill: inherit; stroke: inherit; stroke-width: inherit;" vector-effect="non-scaling-stroke"><title>Grant County</title></path><path id="county-46107" class="county feature" d="M459.93745422581105,176.03559415603934L461.71848926836583,176.11290229641963L461.4739128424655,182.6149513454627L460.15699513415734,182.56371739471047L450.50439202180894,182.14925469526474L450.78577338110046,179.7588407986077L452.2493983388119,179.96742584284607L451.7386494509786,178.38804261660584L452.70067677857395,175.71493203617763Z" style="fill: inherit; stroke: inherit; stroke-width: inherit;" vector-effect="non-scaling-stroke"><title>Potter County</title></path><path id="county-46049" class="county feature" d="M472.8933926481326,176.5132878300342L472.95464996356174,176.5160456669729L472.783525774523,182.99636414802217L464.9274740607517,182.74411916287363L461.4739128424655,182.6149513454627L461.71848926836583,176.11290229641963Z" style="fill: inherit; stroke: inherit; stroke-width: inherit;" vector-effect="non-scaling-stroke"><title>Faulk County</title></path><path id="county-46115" class="county feature" d="M482.6233888732548,176.817378547938L482.58474016656334,178.44431752891262L482.43833605232123,188.20322352828612L472.7857609981148,187.91405991612055L472.783525774523,182.99636414802217L472.95464996356174,176.5160456669729Z" style="fill: inherit; stroke: inherit; stroke-width: inherit;" vector-effect="non-scaling-stroke"><title>Spink County</title></path><path id="county-46019" class="county feature" d="M417.2761380883584,174.25838508944344L417.03921390992815,177.4890232835313L416.35350655766797,185.60226102037268L408.37740038444707,184.9953339788682L405.05164718474714,184.7124265605977L401.8664673020143,185.08145366452345L402.51826806809623,177.1304897210823L403.09449592564886,173.1361391451494Z" style="fill: inherit; stroke: inherit; stroke-width: inherit;" vector-effect="non-scaling-stroke"><title>Butte County</title></path><path id="county-46025" class="county feature" d="M489.001201958538,178.59380194494827L488.93697730197465,185.09476090068108L488.84631252202763,189.9614005368487L484.0529810544052,189.8669656417312L484.04653699960926,188.2447143075192L482.43833605232123,188.20322352828612L482.58474016656334,178.44431752891262Z" style="fill: inherit; stroke: inherit; stroke-width: inherit;" vector-effect="non-scaling-stroke"><title>Clark County</title></path><path id="county-46029" class="county feature" d="M492.52406034945807,178.64020802526477L497.02898537345135,178.72034775482143L497.0177738910516,181.9622286885667L496.9593536143337,185.18599546354994L488.93697730197465,185.09476090068108L489.001201958538,178.59380194494827Z" style="fill: inherit; stroke: inherit; stroke-width: inherit;" vector-effect="non-scaling-stroke"><title>Codington County</title></path><path id="county-46093" class="county feature" d="M429.6294121754277,178.37779528700787L429.0032924135161,188.20697390865837L428.99307747064904,188.2174123003416L427.41752538997093,189.53481335137258L425.1804758466132,189.14681394871604L423.931759555307,191.8623660958325L423.3929340901842,194.8105550478915L409.2166498678275,193.76538387699907L409.37698821933884,191.6025952060088L407.768343479157,191.48524849272917L408.37740038444707,184.9953339788682L416.35350655766797,185.60226102037268L417.03921390992815,177.4890232835313Z" style="fill: inherit; stroke: inherit; stroke-width: inherit;" vector-effect="non-scaling-stroke"><title>Meade County</title></path><path id="county-46039" class="county feature" d="M502.69978629049365,181.99106572029962L502.6893208025141,185.19109942384887L502.6737653295699,188.4658438709106L502.6611956207389,190.10873527005776L496.9044127944374,190.06421416865226L496.9593536143337,185.18599546354994L497.0177738910516,181.9622286885667Z" style="fill: inherit; stroke: inherit; stroke-width: inherit;" vector-effect="non-scaling-stroke"><title>Deuel County</title></path><path id="county-46119" class="county feature" d="M460.15699513415734,182.56371739471047L459.861585838205,189.09360187932054L448.5870408077375,188.6208634271918L447.1113761100722,187.86811959216857L447.5857564517341,185.66076793342563L446.2576658175741,184.31850892551472L446.846558495528,183.36861515621274L448.54971414740965,184.61440846312985L450.50439202180894,182.14925469526474Z" style="fill: inherit; stroke: inherit; stroke-width: inherit;" vector-effect="non-scaling-stroke"><title>Sully County</title></path><path id="county-46069" class="county feature" d="M461.4739128424655,182.6149513454627L464.9274740607517,182.74411916287363L464.6226419532423,195.8891194271372L460.93955923806766,195.80113931901997L459.79441372491317,195.28719944582338L459.861585838205,189.09360187932054L460.15699513415734,182.56371739471047Z" style="fill: inherit; stroke: inherit; stroke-width: inherit;" vector-effect="non-scaling-stroke"><title>Hyde County</title></path><path id="county-46059" class="county feature" d="M472.783525774523,182.99636414802217L472.7857609981148,187.91405991612055L472.6243121281509,196.10757059155458L469.61726960905423,196.02155936166548L464.6226419532423,195.8891194271372L464.9274740607517,182.74411916287363Z" style="fill: inherit; stroke: inherit; stroke-width: inherit;" vector-effect="non-scaling-stroke"><title>Hand County</title></path><path id="county-46057" class="county feature" d="M496.9593536143337,185.18599546354994L496.9044127944374,190.06421416865226L493.6828470484466,190.0421567869812L488.84631252202763,189.9614005368487L488.93697730197465,185.09476090068108Z" style="fill: inherit; stroke: inherit; stroke-width: inherit;" vector-effect="non-scaling-stroke"><title>Hamlin County</title></path><path id="county-46117" class="county feature" d="M446.2576658175741,184.31850892551472L447.5857564517341,185.66076793342563L447.1113761100722,187.86811959216857L448.5870408077375,188.6208634271918L447.86641921804176,190.3090100688015L450.3507686281217,190.71620149102648L450.5547041393652,192.30856504018152L454.24072011953274,193.3557371907491L456.765045346411,194.7105145798787L456.1166422412599,195.5580127141851L450.39236191240644,195.31882458203802L450.3700334545251,195.80440096533073L441.3091909327108,195.3613374351787L439.70583466429997,195.2801416620755L440.40300141439934,185.53194235131923L440.6934473358451,184.47663140620602L442.4645412436321,184.9063602105225L443.49511091140135,184.12186926889774Z" style="fill: inherit; stroke: inherit; stroke-width: inherit;" vector-effect="non-scaling-stroke"><title>Stanley County</title></path><path id="county-46055" class="county feature" d="M441.3091909327108,195.3613374351787L440.9063879968761,198.5948545369315L428.3011434564958,197.86691109291462L428.99307747064904,188.2174123003416L429.0032924135161,188.20697390865837L431.5832514633423,188.12158945240515L432.9018915391497,187.1599465129857L435.2833108120618,187.47724561130633L436.3580873351956,186.29465345026836L439.3602106834281,185.4416771147687L440.6934473358451,184.47663140620602L440.40300141439934,185.53194235131923L439.70583466429997,195.2801416620755Z" style="fill: inherit; stroke: inherit; stroke-width: inherit;" vector-effect="non-scaling-stroke"><title>Haakon County</title></path><path id="county-46005" class="county feature" d="M482.43833605232123,188.20322352828612L484.04653699960926,188.2447143075192L484.0529810544052,189.8669656417312L483.9207067752424,196.4034382553499L477.5421077617387,196.23980846003997L472.6243121281509,196.10757059155458L472.7857609981148,187.91405991612055Z" style="fill: inherit; stroke: inherit; stroke-width: inherit;" vector-effect="non-scaling-stroke"><title>Beadle County</title></path><path id="county-46081" class="county feature" d="M408.37740038444707,184.9953339788682L407.768343479157,191.48524849272917L409.37698821933884,191.6025952060088L409.2166498678275,193.76538387699907L401.2038890199145,193.10621068944533L401.26633352600953,192.3711358210826L401.8664673020143,185.08145366452345L405.05164718474714,184.7124265605977Z" style="fill: inherit; stroke: inherit; stroke-width: inherit;" vector-effect="non-scaling-stroke"><title>Lawrence County</title></path><path id="county-46065" class="county feature" d="M459.861585838205,189.09360187932054L459.79441372491317,195.28719944582338L460.58790597200533,197.11127776695082L457.0055416728914,196.92315384636424L456.1166422412599,195.5580127141851L456.765045346411,194.7105145798787L454.24072011953274,193.3557371907491L450.5547041393652,192.30856504018152L450.3507686281217,190.71620149102648L447.86641921804176,190.3090100688015L448.5870408077375,188.6208634271918Z" style="fill: inherit; stroke: inherit; stroke-width: inherit;" vector-effect="non-scaling-stroke"><title>Hughes County</title></path><path id="county-46077" class="county feature" d="M488.84631252202763,189.9614005368487L493.6828470484466,190.0421567869812L493.5865116871532,196.5440766388208L490.3770208658943,196.5209955359769L483.9781602524134,196.4055642619976L483.9207067752424,196.4034382553499L484.0529810544052,189.8669656417312Z" style="fill: inherit; stroke: inherit; stroke-width: inherit;" vector-effect="non-scaling-stroke"><title>Kingsbury County</title></path><path id="county-46011" class="county feature" d="M502.6611956207389,190.10873527005776L502.620736333443,196.60417080132117L502.62072675002895,196.60618350501204L496.79097683099553,196.5841496960213L493.5865116871532,196.5440766388208L493.6828470484466,190.0421567869812L496.9044127944374,190.06421416865226Z" style="fill: inherit; stroke: inherit; stroke-width: inherit;" vector-effect="non-scaling-stroke"><title>Brookings County</title></path><path id="county-46103" class="county feature" d="M428.99307747064904,188.2174123003416L428.3011434564958,197.86691109291462L427.80845198812875,203.20724976911436L426.18596046186354,203.25071743512945L425.6692152822039,203.46352021083385L417.1665732592294,202.8726356385239L419.03844723558984,199.8592003830987L400.7381108603349,198.4754300649371L401.2038890199145,193.10621068944533L409.2166498678275,193.76538387699907L423.3929340901842,194.8105550478915L423.931759555307,191.8623660958325L425.1804758466132,189.14681394871604L427.41752538997093,189.53481335137258Z" style="fill: inherit; stroke: inherit; stroke-width: inherit;" vector-effect="non-scaling-stroke"><title>Pennington County</title></path><path id="county-46085" class="county feature" d="M463.7082030263225,200.7433458148871L464.32718741363885,202.17572728239145L462.9462123036632,203.6104293269426L462.10619511090744,205.8834282260343L463.2591553105707,205.9329810342714L464.1992361877991,208.91420113840422L461.0265606900899,208.79911854591398L459.8127651186206,208.7513776728864L459.981577820107,204.19928078131716L459.0049705109672,203.87233316986033L457.0255136858212,205.09330377979666L453.71464808042117,205.02470088271286L451.8001764333121,204.40339512942103L450.3619017961129,204.27799762548352L450.10744983475007,201.82926631038674L450.3700334545251,195.80440096533073L450.39236191240644,195.31882458203802L456.1166422412599,195.5580127141851L457.0055416728914,196.92315384636424L460.58790597200533,197.11127776695082L459.79441372491317,195.28719944582338L460.93955923806766,195.80113931901997L461.05761456749013,197.51073575425835L463.7773900617424,199.6012764573478Z" style="fill: inherit; stroke: inherit; stroke-width: inherit;" vector-effect="non-scaling-stroke"><title>Lyman County</title></path><path id="county-46073" class="county feature" d="M472.6243121281509,196.10757059155458L477.5421077617387,196.23980846003997L477.4278829059869,201.09049811614864L471.04791529032616,200.96329057791638L469.4520789538257,200.91714546644346L469.61726960905423,196.02155936166548Z" style="fill: inherit; stroke: inherit; stroke-width: inherit;" vector-effect="non-scaling-stroke"><title>Jerauld County</title></path><path id="county-46101" class="county feature" d="M502.62072675002895,196.60618350501204L502.58013606322913,203.1085938376358L496.73971335607877,203.09153448152904L496.79097683099553,196.5841496960213Z" style="fill: inherit; stroke: inherit; stroke-width: inherit;" vector-effect="non-scaling-stroke"><title>Moody County</title></path><path id="county-46017" class="county feature" d="M469.61726960905423,196.02155936166548L469.4520789538257,200.91714546644346L463.7082030263225,200.7433458148871L463.7773900617424,199.6012764573478L461.05761456749013,197.51073575425835L460.93955923806766,195.80113931901997L464.6226419532423,195.8891194271372Z" style="fill: inherit; stroke: inherit; stroke-width: inherit;" vector-effect="non-scaling-stroke"><title>Buffalo County</title></path><path id="county-46111" class="county feature" d="M483.9207067752424,196.4034382553499L483.9781602524134,196.4055642619976L483.82813198628094,202.87721240494375L482.2735843650298,202.83087065443488L477.47467933490594,202.71644615073683L477.4278829059869,201.09049811614864L477.5421077617387,196.23980846003997Z" style="fill: inherit; stroke: inherit; stroke-width: inherit;" vector-effect="non-scaling-stroke"><title>Sanborn County</title></path><path id="county-46079" class="county feature" d="M493.5865116871532,196.5440766388208L496.79097683099553,196.5841496960213L496.73971335607877,203.09153448152904L493.5138378418999,203.06434099327748L490.2882993546235,203.00985210265605L490.3770208658943,196.5209955359769Z" style="fill: inherit; stroke: inherit; stroke-width: inherit;" vector-effect="non-scaling-stroke"><title>Lake County</title></path><path id="county-46097" class="county feature" d="M490.3770208658943,196.5209955359769L490.2882993546235,203.00985210265605L487.0773138367141,202.95147504729334L483.82813198628094,202.87721240494375L483.9781602524134,196.4055642619976Z" style="fill: inherit; stroke: inherit; stroke-width: inherit;" vector-effect="non-scaling-stroke"><title>Miner County</title></path><path id="county-46075" class="county feature" d="M450.3700334545251,195.80440096533073L450.10744983475007,201.82926631038674L450.3619017961129,204.27799762548352L447.0836315722175,203.1538347082635L445.7788314972148,204.16728653314556L444.441471436312,203.8646538039709L442.54532680817516,201.7767902931373L440.74793865453455,201.47545694765415L440.9063879968761,198.5948545369315L441.3091909327108,195.3613374351787Z" style="fill: inherit; stroke: inherit; stroke-width: inherit;" vector-effect="non-scaling-stroke"><title>Jones County</title></path><path id="county-46071" class="county feature" d="M440.9063879968761,198.5948545369315L440.74793865453455,201.47545694765415L438.4988621711334,202.20686915488636L438.0892847684,209.82056913282452L426.1916926082919,209.094886906567L425.91455093530385,207.4468083192595L426.18596046186354,203.25071743512945L427.80845198812875,203.20724976911436L428.3011434564958,197.86691109291462Z" style="fill: inherit; stroke: inherit; stroke-width: inherit;" vector-effect="non-scaling-stroke"><title>Jackson County</title></path><path id="county-46003" class="county feature" d="M477.4278829059869,201.09049811614864L477.47467933490594,202.71644615073683L477.37591675889115,209.32495760351094L472.1803164279533,209.17443762659684L470.9853444392768,209.14287460415085L471.04791529032616,200.96329057791638Z" style="fill: inherit; stroke: inherit; stroke-width: inherit;" vector-effect="non-scaling-stroke"><title>Aurora County</title></path><path id="county-46015" class="county feature" d="M471.04791529032616,200.96329057791638L470.9853444392768,209.14287460415085L464.1992361877991,208.91420113840422L463.2591553105707,205.9329810342714L462.10619511090744,205.8834282260343L462.9462123036632,203.6104293269426L464.32718741363885,202.17572728239145L463.7082030263225,200.7433458148871L469.4520789538257,200.91714546644346Z" style="fill: inherit; stroke: inherit; stroke-width: inherit;" vector-effect="non-scaling-stroke"><title>Brule County</title></path><path id="county-46095" class="county feature" d="M450.3619017961129,204.27799762548352L451.8001764333121,204.40339512942103L451.7673188982927,210.47734089369612L438.0892847684,209.82056913282452L438.4988621711334,202.20686915488636L440.74793865453455,201.47545694765415L442.54532680817516,201.7767902931373L444.441471436312,203.8646538039709L445.7788314972148,204.16728653314556L447.0836315722175,203.1538347082635Z" style="fill: inherit; stroke: inherit; stroke-width: inherit;" vector-effect="non-scaling-stroke"><title>Mellette County</title></path><path id="county-46033" class="county feature" d="M417.1665732592294,202.8726356385239L414.491601357017,204.23361954328448L414.3188790592099,206.6399355508221L400.1464461858335,205.4968641833732L400.1916204028302,205.02228252639486L400.7381108603349,198.4754300649371L419.03844723558984,199.8592003830987Z" style="fill: inherit; stroke: inherit; stroke-width: inherit;" vector-effect="non-scaling-stroke"><title>Custer County</title></path><path id="county-46035" class="county feature" d="M482.2735843650298,202.83087065443488L482.16612555896813,209.42490508306275L480.14815153450536,209.3956998126008L477.37591675889115,209.32495760351094L477.47467933490594,202.71644615073683Z" style="fill: inherit; stroke: inherit; stroke-width: inherit;" vector-effect="non-scaling-stroke"><title>Davison County</title></path><path id="county-46061" class="county feature" d="M483.82813198628094,202.87721240494375L487.0773138367141,202.95147504729334L486.9954578818441,209.50155144097687L482.16612555896813,209.42490508306275L482.2735843650298,202.83087065443488Z" style="fill: inherit; stroke: inherit; stroke-width: inherit;" vector-effect="non-scaling-stroke"><title>Hanson County</title></path><path id="county-46099" class="county feature" d="M502.5537363807228,209.65905853109155L500.5840766143548,209.64815889657882L496.1898451344958,209.6209935466644L493.431395459357,209.59621976439018L493.5138378418999,203.06434099327748L496.73971335607877,203.09153448152904L502.58013606322913,203.1085938376358Z" style="fill: inherit; stroke: inherit; stroke-width: inherit;" vector-effect="non-scaling-stroke"><title>Minnehaha County</title></path><path id="county-46087" class="county feature" d="M490.2882993546235,203.00985210265605L493.5138378418999,203.06434099327748L493.431395459357,209.59621976439018L489.7633328891034,209.54636850711825L486.9954578818441,209.50155144097687L487.0773138367141,202.95147504729334Z" style="fill: inherit; stroke: inherit; stroke-width: inherit;" vector-effect="non-scaling-stroke"><title>McCook County</title></path><path id="county-46123" class="county feature" d="M461.0265606900899,208.79911854591398L460.6667020596179,218.21158691641597L451.6556944506987,217.8327098881466L451.7673188982927,210.47734089369612L451.8001764333121,204.40339512942103L453.71464808042117,205.02470088271286L457.0255136858212,205.09330377979666L459.0049705109672,203.87233316986033L459.981577820107,204.19928078131716L459.8127651186206,208.7513776728864Z" style="fill: inherit; stroke: inherit; stroke-width: inherit;" vector-effect="non-scaling-stroke"><title>Tripp County</title></path><path id="county-46113" class="county feature" d="M426.1916926082919,209.094886906567L425.90243754228055,213.96635261075062L426.10009615058067,216.436041481115L416.4851047317584,215.7716720695031L413.66114515100406,215.55325227539038L414.3188790592099,206.6399355508221L414.491601357017,204.23361954328448L417.1665732592294,202.8726356385239L425.6692152822039,203.46352021083385L426.18596046186354,203.25071743512945L425.91455093530385,207.4468083192595Z" style="fill: inherit; stroke: inherit; stroke-width: inherit;" vector-effect="non-scaling-stroke"><title>Shannon County</title></path><path id="county-46083" class="county feature" d="M500.5840766143548,209.64815889657882L501.5844639532869,211.65984611536487L501.1481146446363,214.1666655951792L502.22735650406185,214.92471804097545L502.50182896831365,217.48656943714525L497.7302754834173,217.4488963361531L496.12355839631016,217.4332652928083L496.1898451344958,209.6209935466644Z" style="fill: inherit; stroke: inherit; stroke-width: inherit;" vector-effect="non-scaling-stroke"><title>Lincoln County</title></path><path id="county-46023" class="county feature" d="M470.9853444392768,209.14287460415085L472.1803164279533,209.17443762659684L472.552713429294,211.5979293583381L480.0951808113642,215.05336545986177L480.5208680889353,215.59833445154788L480.21394899464684,219.15180088111765L479.34517551166965,221.75816071635336L477.23519234464345,220.88909939156872L474.72956609397437,218.64492335480895L469.79300870300176,215.43817792574373L469.46241153374433,213.8331901067047L467.22355855718604,212.4274015339056L466.11281023550885,210.3466371772687L464.1992361877991,208.91420113840422Z" style="fill: inherit; stroke: inherit; stroke-width: inherit;" vector-effect="non-scaling-stroke"><title>Charles Mix County</title></path><path id="county-46125" class="county feature" d="M493.431395459357,209.59621976439018L496.1898451344958,209.6209935466644L496.12355839631016,217.4332652928083L492.91490124814396,217.40916637735177L492.9348160534142,215.77853577942915L489.7059469398959,215.74614651689626L489.7633328891034,209.54636850711825Z" style="fill: inherit; stroke: inherit; stroke-width: inherit;" vector-effect="non-scaling-stroke"><title>Turner County</title></path><path id="county-46067" class="county feature" d="M486.9954578818441,209.50155144097687L489.7633328891034,209.54636850711825L489.7059469398959,215.74614651689626L486.4771240114409,215.7066686441542L480.5208680889353,215.59833445154788L480.0951808113642,215.05336545986177L480.14815153450536,209.3956998126008L482.16612555896813,209.42490508306275Z" style="fill: inherit; stroke: inherit; stroke-width: inherit;" vector-effect="non-scaling-stroke"><title>Hutchinson County</title></path><path id="county-46043" class="county feature" d="M477.37591675889115,209.32495760351094L480.14815153450536,209.3956998126008L480.0951808113642,215.05336545986177L472.552713429294,211.5979293583381L472.1803164279533,209.17443762659684Z" style="fill: inherit; stroke: inherit; stroke-width: inherit;" vector-effect="non-scaling-stroke"><title>Douglas County</title></path><path id="county-46053" class="county feature" d="M464.1992361877991,208.91420113840422L466.11281023550885,210.3466371772687L467.22355855718604,212.4274015339056L469.46241153374433,213.8331901067047L469.79300870300176,215.43817792574373L474.72956609397437,218.64492335480895L464.4523427559965,218.34484417212514L460.6667020596179,218.21158691641597L461.0265606900899,208.79911854591398Z" style="fill: inherit; stroke: inherit; stroke-width: inherit;" vector-effect="non-scaling-stroke"><title>Gregory County</title></path><path id="county-46047" class="county feature" d="M414.3188790592099,206.6399355508221L413.66114515100406,215.55325227539038L406.85121221606715,215.03261520074886L399.4137638550875,214.3517069982944L400.1464461858335,205.4968641833732Z" style="fill: inherit; stroke: inherit; stroke-width: inherit;" vector-effect="non-scaling-stroke"><title>Fall River County</title></path><path id="county-46007" class="county feature" d="M438.0892847684,209.82056913282452L437.6855151010019,217.15350471704267L426.10009615058067,216.436041481115L425.90243754228055,213.96635261075062L426.1916926082919,209.094886906567Z" style="fill: inherit; stroke: inherit; stroke-width: inherit;" vector-effect="non-scaling-stroke"><title>Bennett County</title></path><path id="county-46121" class="county feature" d="M451.7673188982927,210.47734089369612L451.6556944506987,217.8327098881466L437.6855151010019,217.15350471704267L438.0892847684,209.82056913282452Z" style="fill: inherit; stroke: inherit; stroke-width: inherit;" vector-effect="non-scaling-stroke"><title>Todd County</title></path><path id="county-46135" class="county feature" d="M492.91490124814396,217.40916637735177L492.8547782298298,222.7324184872274L490.85813292677204,221.4319967574511L488.4502078076428,221.72052788148437L486.39890433838036,221.6646510138794L486.4771240114409,215.7066686441542L489.7059469398959,215.74614651689626L492.9348160534142,215.77853577942915Z" style="fill: inherit; stroke: inherit; stroke-width: inherit;" vector-effect="non-scaling-stroke"><title>Yankton County</title></path><path id="county-46009" class="county feature" d="M486.4771240114409,215.7066686441542L486.39890433838036,221.6646510138794L483.24151111442046,221.45306254561092L482.03923399937435,223.13250262048803L480.9320350828023,223.20212876342305L479.34517551166965,221.75816071635336L480.21394899464684,219.15180088111765L480.5208680889353,215.59833445154788Z" style="fill: inherit; stroke: inherit; stroke-width: inherit;" vector-effect="non-scaling-stroke"><title>Bon Homme County</title></path><path id="county-46127" class="county feature" d="M502.50182896831365,217.48656943714525L501.7340279148238,218.10903012756387L501.33903878682537,220.75893222628804L500.06673691929194,223.4320892886567L500.14751422925286,224.53971091455298L501.7015285711892,225.98723563132546L501.84167555718454,227.3002203782405L502.5418807104705,228.63728835048823L500.0267861062211,227.97387361453661L499.13116553896185,225.6004737478919L497.66494511432506,224.5775501632976L497.7302754834173,217.4488963361531Z" style="fill: inherit; stroke: inherit; stroke-width: inherit;" vector-effect="non-scaling-stroke"><title>Union County</title></path><path id="county-46027" class="county feature" d="M497.7302754834173,217.4488963361531L497.66494511432506,224.5775501632976L494.8075730925721,223.470281502303L492.8547782298298,222.7324184872274L492.91490124814396,217.40916637735177L496.12355839631016,217.4332652928083Z" style="fill: inherit; stroke: inherit; stroke-width: inherit;" vector-effect="non-scaling-stroke"><title>Clay County</title></path></g><path id="counties-mesh" class="counties mesh" d="M430.69289523937346,161.48030090626003L430.1462913380407,170.27564718945143L429.6294121754277,178.37779528700787L417.03921390992815,177.4890232835313L417.2761380883584,174.25838508944344L418.4808653624099,160.63850011367265M450.0157488213226,162.565061433511L451.8949021448395,164.27081503432566L452.4548345203936,167.08575114507937L450.7752247731113,169.1193953751466L450.07655706530653,170.38989925556814L451.82412127722506,171.4471439379979L437.06632910119436,170.69371781984728L430.1462913380407,170.27564718945143M417.2761380883584,174.25838508944344L403.09449592564886,173.1361391451494M460.32712597433465,163.0649322459019L460.08290255337363,169.5446830225652L450.7752247731113,169.1193953751466M473.24161045257705,163.5448867077656L473.04645500801746,170.0243361684578L460.20947850989165,169.54962971306793L460.08290255337363,169.5446830225652M482.9267425227518,163.83668387545652L482.7823892273498,170.31751605192756L482.6233888732548,176.817378547938L472.95464996356174,176.5160456669729L472.8933926481326,176.5132878300342L473.04645500801746,170.0243361684578M417.03921390992815,177.4890232835313L416.35350655766797,185.60226102037268L408.37740038444707,184.9953339788682L405.05164718474714,184.7124265605977L401.8664673020143,185.08145366452345L402.51826806809623,177.1304897210823L403.09449592564886,173.1361391451494L404.08954713282026,160.6824699221621L404.1801981419258,159.5036139122335L417.7782197575809,160.58487729373087L418.4808653624099,160.63850011367265L430.69289523937346,161.48030090626003L430.71630930571513,161.47977315759636L450.0157488213226,162.565061433511L458.21969588797504,162.9706204942148L460.32712597433465,163.0649322459019L469.5848166079546,163.41357817220432L473.24161045257705,163.5448867077656L482.54878381515044,163.82775271136245L482.9267425227518,163.83668387545652L492.6894668170375,164.0134449604509L501.3285959281227,164.0938883913832L500.13274903378544,167.6229285245514L497.71552444471274,169.42167900193033L497.73344580882514,170.5821215089561L499.5406278697857,173.69340639571408L502.48587388706346,175.4635724548889L495.62779718397286,175.40574955709428L495.43344568065015,175.9647687088991L492.55921477329866,175.9159341164767L492.61261527211553,171.05010114223103L492.6894668170375,164.0134449604509M492.61261527211553,171.05010114223103L490.7055729651077,170.47335172800376L482.7823892273498,170.31751605192756M460.20947850989165,169.54962971306793L459.93745422581105,176.03559415603934L452.70067677857395,175.71493203617763L452.0224901303404,174.32891941352273L452.62982994262325,173.19812909788027L451.82412127722506,171.4471439379979M472.8933926481326,176.5132878300342L461.71848926836583,176.11290229641963L459.93745422581105,176.03559415603934M492.55921477329866,175.9159341164767L492.52406034945807,178.64020802526477L489.001201958538,178.59380194494827L482.58474016656334,178.44431752891262L482.6233888732548,176.817378547938M452.70067677857395,175.71493203617763L451.7386494509786,178.38804261660584L452.2493983388119,179.96742584284607L450.78577338110046,179.7588407986077L450.50439202180894,182.14925469526474L448.54971414740965,184.61440846312985L446.846558495528,183.36861515621274L446.2576658175741,184.31850892551472L443.49511091140135,184.12186926889774L442.4645412436321,184.9063602105225L440.6934473358451,184.47663140620602L440.9524782871814,179.86392420931293L436.1548335296913,179.60021342570906L437.06632910119436,170.69371781984728M448.5870408077375,188.6208634271918L447.86641921804176,190.3090100688015L450.3507686281217,190.71620149102648L450.5547041393652,192.30856504018152L454.24072011953274,193.3557371907491L456.765045346411,194.7105145798787L456.1166422412599,195.5580127141851L450.39236191240644,195.31882458203802L450.3700334545251,195.80440096533073L441.3091909327108,195.3613374351787L439.70583466429997,195.2801416620755L440.40300141439934,185.53194235131923L440.6934473358451,184.47663140620602L439.3602106834281,185.4416771147687L436.3580873351956,186.29465345026836L435.2833108120618,187.47724561130633L432.9018915391497,187.1599465129857L431.5832514633423,188.12158945240515L429.0032924135161,188.20697390865837L429.6294121754277,178.37779528700787M502.48587388706346,175.4635724548889L502.7115488817175,176.54162520010198L502.69978629049365,181.99106572029962L497.0177738910516,181.9622286885667L497.02898537345135,178.72034775482143L492.52406034945807,178.64020802526477M461.71848926836583,176.11290229641963L461.4739128424655,182.6149513454627L460.15699513415734,182.56371739471047L450.50439202180894,182.14925469526474M472.95464996356174,176.5160456669729L472.783525774523,182.99636414802217L464.9274740607517,182.74411916287363L461.4739128424655,182.6149513454627M482.58474016656334,178.44431752891262L482.43833605232123,188.20322352828612L472.7857609981148,187.91405991612055L472.783525774523,182.99636414802217M489.001201958538,178.59380194494827L488.93697730197465,185.09476090068108L488.84631252202763,189.9614005368487L484.0529810544052,189.8669656417312L484.04653699960926,188.2447143075192L482.43833605232123,188.20322352828612M497.0177738910516,181.9622286885667L496.9593536143337,185.18599546354994L488.93697730197465,185.09476090068108M429.0032924135161,188.20697390865837L428.99307747064904,188.2174123003416L427.41752538997093,189.53481335137258L425.1804758466132,189.14681394871604L423.931759555307,191.8623660958325L423.3929340901842,194.8105550478915L409.2166498678275,193.76538387699907L409.37698821933884,191.6025952060088L407.768343479157,191.48524849272917L408.37740038444707,184.9953339788682M409.2166498678275,193.76538387699907L401.2038890199145,193.10621068944533L401.26633352600953,192.3711358210826L401.8664673020143,185.08145366452345M502.69978629049365,181.99106572029962L502.6893208025141,185.19109942384887L502.6737653295699,188.4658438709106L502.6611956207389,190.10873527005776L496.9044127944374,190.06421416865226L496.9593536143337,185.18599546354994M460.15699513415734,182.56371739471047L459.861585838205,189.09360187932054L448.5870408077375,188.6208634271918L447.1113761100722,187.86811959216857L447.5857564517341,185.66076793342563L446.2576658175741,184.31850892551472M464.9274740607517,182.74411916287363L464.6226419532423,195.8891194271372L460.93955923806766,195.80113931901997L459.79441372491317,195.28719944582338L459.861585838205,189.09360187932054M472.7857609981148,187.91405991612055L472.6243121281509,196.10757059155458L469.61726960905423,196.02155936166548L464.6226419532423,195.8891194271372M496.9044127944374,190.06421416865226L493.6828470484466,190.0421567869812L488.84631252202763,189.9614005368487M441.3091909327108,195.3613374351787L440.9063879968761,198.5948545369315L428.3011434564958,197.86691109291462L428.99307747064904,188.2174123003416M484.0529810544052,189.8669656417312L483.9207067752424,196.4034382553499L477.5421077617387,196.23980846003997L472.6243121281509,196.10757059155458M459.79441372491317,195.28719944582338L460.58790597200533,197.11127776695082L457.0055416728914,196.92315384636424L456.1166422412599,195.5580127141851M493.6828470484466,190.0421567869812L493.5865116871532,196.5440766388208L490.3770208658943,196.5209955359769L483.9781602524134,196.4055642619976L483.9207067752424,196.4034382553499M502.6611956207389,190.10873527005776L502.620736333443,196.60417080132117L502.62072675002895,196.60618350501204L496.79097683099553,196.5841496960213L493.5865116871532,196.5440766388208M428.3011434564958,197.86691109291462L427.80845198812875,203.20724976911436L426.18596046186354,203.25071743512945L425.6692152822039,203.46352021083385L417.1665732592294,202.8726356385239L419.03844723558984,199.8592003830987L400.7381108603349,198.4754300649371L401.2038890199145,193.10621068944533M460.93955923806766,195.80113931901997L461.05761456749013,197.51073575425835L463.7773900617424,199.6012764573478L463.7082030263225,200.7433458148871L464.32718741363885,202.17572728239145L462.9462123036632,203.6104293269426L462.10619511090744,205.8834282260343L463.2591553105707,205.9329810342714L464.1992361877991,208.91420113840422L461.0265606900899,208.79911854591398L459.8127651186206,208.7513776728864L459.981577820107,204.19928078131716L459.0049705109672,203.87233316986033L457.0255136858212,205.09330377979666L453.71464808042117,205.02470088271286L451.8001764333121,204.40339512942103L450.3619017961129,204.27799762548352L450.10744983475007,201.82926631038674L450.3700334545251,195.80440096533073M477.5421077617387,196.23980846003997L477.4278829059869,201.09049811614864L471.04791529032616,200.96329057791638L469.4520789538257,200.91714546644346L469.61726960905423,196.02155936166548M502.62072675002895,196.60618350501204L502.58013606322913,203.1085938376358L496.73971335607877,203.09153448152904L496.79097683099553,196.5841496960213M469.4520789538257,200.91714546644346L463.7082030263225,200.7433458148871M483.9781602524134,196.4055642619976L483.82813198628094,202.87721240494375L482.2735843650298,202.83087065443488L477.47467933490594,202.71644615073683L477.4278829059869,201.09049811614864M496.73971335607877,203.09153448152904L493.5138378418999,203.06434099327748L490.2882993546235,203.00985210265605L490.3770208658943,196.5209955359769M490.2882993546235,203.00985210265605L487.0773138367141,202.95147504729334L483.82813198628094,202.87721240494375M417.1665732592294,202.8726356385239L414.491601357017,204.23361954328448L414.3188790592099,206.6399355508221L400.1464461858335,205.4968641833732L400.1916204028302,205.02228252639486L400.7381108603349,198.4754300649371M450.3619017961129,204.27799762548352L447.0836315722175,203.1538347082635L445.7788314972148,204.16728653314556L444.441471436312,203.8646538039709L442.54532680817516,201.7767902931373L440.74793865453455,201.47545694765415L440.9063879968761,198.5948545369315M440.74793865453455,201.47545694765415L438.4988621711334,202.20686915488636L438.0892847684,209.82056913282452L426.1916926082919,209.094886906567L425.91455093530385,207.4468083192595L426.18596046186354,203.25071743512945M477.47467933490594,202.71644615073683L477.37591675889115,209.32495760351094L472.1803164279533,209.17443762659684L470.9853444392768,209.14287460415085L471.04791529032616,200.96329057791638M472.1803164279533,209.17443762659684L472.552713429294,211.5979293583381L480.0951808113642,215.05336545986177L480.5208680889353,215.59833445154788L480.21394899464684,219.15180088111765L479.34517551166965,221.75816071635336L477.23519234464345,220.88909939156872L474.72956609397437,218.64492335480895L469.79300870300176,215.43817792574373L469.46241153374433,213.8331901067047L467.22355855718604,212.4274015339056L466.11281023550885,210.3466371772687L464.1992361877991,208.91420113840422M482.2735843650298,202.83087065443488L482.16612555896813,209.42490508306275L480.14815153450536,209.3956998126008L477.37591675889115,209.32495760351094M487.0773138367141,202.95147504729334L486.9954578818441,209.50155144097687L482.16612555896813,209.42490508306275M502.58013606322913,203.1085938376358L502.5537363807228,209.65905853109155L500.5840766143548,209.64815889657882L496.1898451344958,209.6209935466644L493.431395459357,209.59621976439018L493.5138378418999,203.06434099327748M493.431395459357,209.59621976439018L489.7633328891034,209.54636850711825L486.9954578818441,209.50155144097687M461.0265606900899,208.79911854591398L460.6667020596179,218.21158691641597L451.6556944506987,217.8327098881466L451.7673188982927,210.47734089369612M426.1916926082919,209.094886906567L425.90243754228055,213.96635261075062L426.10009615058067,216.436041481115L416.4851047317584,215.7716720695031L413.66114515100406,215.55325227539038L414.3188790592099,206.6399355508221M413.66114515100406,215.55325227539038L406.85121221606715,215.03261520074886L399.4137638550875,214.3517069982944L400.1464461858335,205.4968641833732M500.5840766143548,209.64815889657882L501.5844639532869,211.65984611536487L501.1481146446363,214.1666655951792L502.22735650406185,214.92471804097545L502.50182896831365,217.48656943714525L497.7302754834173,217.4488963361531L496.12355839631016,217.4332652928083L496.1898451344958,209.6209935466644M496.12355839631016,217.4332652928083L492.91490124814396,217.40916637735177L492.9348160534142,215.77853577942915L489.7059469398959,215.74614651689626L489.7633328891034,209.54636850711825M489.7059469398959,215.74614651689626L486.4771240114409,215.7066686441542L480.5208680889353,215.59833445154788M480.0951808113642,215.05336545986177L480.14815153450536,209.3956998126008M474.72956609397437,218.64492335480895L464.4523427559965,218.34484417212514L460.6667020596179,218.21158691641597M451.8001764333121,204.40339512942103L451.7673188982927,210.47734089369612L438.0892847684,209.82056913282452L437.6855151010019,217.15350471704267L426.10009615058067,216.436041481115M451.6556944506987,217.8327098881466L437.6855151010019,217.15350471704267M492.91490124814396,217.40916637735177L492.8547782298298,222.7324184872274L490.85813292677204,221.4319967574511L488.4502078076428,221.72052788148437L486.39890433838036,221.6646510138794L486.4771240114409,215.7066686441542M486.39890433838036,221.6646510138794L483.24151111442046,221.45306254561092L482.03923399937435,223.13250262048803L480.9320350828023,223.20212876342305L479.34517551166965,221.75816071635336M502.50182896831365,217.48656943714525L501.7340279148238,218.10903012756387L501.33903878682537,220.75893222628804L500.06673691929194,223.4320892886567L500.14751422925286,224.53971091455298L501.7015285711892,225.98723563132546L501.84167555718454,227.3002203782405L502.5418807104705,228.63728835048823L500.0267861062211,227.97387361453661L499.13116553896185,225.6004737478919L497.66494511432506,224.5775501632976L497.7302754834173,217.4488963361531M497.66494511432506,224.5775501632976L494.8075730925721,223.470281502303L492.8547782298298,222.7324184872274M470.9853444392768,209.14287460415085L464.1992361877991,208.91420113840422" style="fill: inherit; stroke: inherit; stroke-width: inherit;" vector-effect="non-scaling-stroke"></path></svg>