<?xml version="1.0" standalone="yes"?>
<svg xmlns="http://www.w3.org/2000/svg" version="1.2" baseProfile="tiny" id="root" viewBox="576.1200318085995 304.53066602205735 163.66353494791917 81.56034155230077"><style>
@import url("../../css/svg.css");</style><rect id="bbox" class="bbox" x="576.1200318085995" y="304.53066602205735" width="163.66353494791917" height="81.56034155230077"></rect><g id="counties"><path id="county-47161" class="county feature" d="M631.7917121208136,333.54466841799206L632.5702687455387,333.4579384752609L633.7423674078073,338.4719824955041L630.4018279692641,339.50113946181534L627.9954535472145,339.2330900417203L627.8458236334893,339.11362836965725L626.6923644213211,336.61931545932225L626.1588993268549,333.2503819894872Z" vector-effect="non-scaling-stroke"><title>Stewart County</title></path><path id="county-47147" class="county feature" d="M646.0935192844488,336.6057172809458L645.1319684839024,337.76540275465106L643.7888807758093,337.26205539850605L642.7059636498045,337.61978140122824L640.5899411464188,336.18499864193325L640.3407308768822,332.6687354448444L641.1349807681444,332.5798020928314L645.5259619228353,332.05082630400136L648.5118032092678,332.0384441145037L646.9523819491225,336.4931564532226Z" vector-effect="non-scaling-stroke"><title>Robertson County</title></path><path id="county-47165" class="county feature" d="M653.7957736936016,331.39104069867574L653.7355806045526,334.285578186439L653.197639911312,336.9927678932561L650.7193962682082,337.4707558132069L648.7749164063396,339.37999789327387L646.0935192844488,336.6057172809458L646.9523819491225,336.4931564532226L648.5118032092678,332.0384441145037L650.7168887236054,331.4974052482909Z" vector-effect="non-scaling-stroke"><title>Sumner County</title></path><path id="county-47125" class="county feature" d="M640.3407308768822,332.6687354448444L640.5899411464188,336.18499864193325L638.3582969072988,338.92033542664353L634.9693809213635,338.9858305878205L633.7423674078073,338.4719824955041L632.5702687455387,333.4579384752609L637.0799754998324,332.98792108487123Z" vector-effect="non-scaling-stroke"><title>Montgomery County</title></path><path id="county-47111" class="county feature" d="M659.8431088063949,333.4138804198701L659.8127864048731,335.08033427886255L657.5528430205221,335.0514491915966L654.7116198048784,335.0020716534766L653.7355806045526,334.285578186439L653.7957736936016,331.39104069867574L657.235607106257,331.2438405539914L659.9726163616629,331.0806741129488Z" vector-effect="non-scaling-stroke"><title>Macon County</title></path><path id="county-47137" class="county feature" d="M674.8127700223033,329.75037919300246L675.7768819665048,331.1298569160408L672.5165187140467,330.443819786851L671.0007138371798,331.1665424930376L670.2853082313662,334.00341576957317L667.5955505150486,331.9548583936188L667.5313259260741,330.1561419231343L671.9911321902625,329.85055165436665Z" vector-effect="non-scaling-stroke"><title>Pickett County</title></path><path id="county-47027" class="county feature" d="M667.5955505150486,331.9548583936188L665.3642040426047,332.78956023256035L664.7548756811185,334.7025923224013L661.414842372212,332.80893474762706L659.8431088063949,333.4138804198701L659.9726163616629,331.0806741129488L665.1707040361953,330.5744826502215L667.2307860852895,330.2013769378292L667.5313259260741,330.1561419231343Z" vector-effect="non-scaling-stroke"><title>Clay County</title></path><path id="county-47163" class="county feature" d="M716.3096836164436,326.0169544819088L713.5842559007139,328.4752214766344L711.9661223148256,328.78678734302093L709.7767352206718,328.16779196973755L706.259566686062,328.93136851832196L706.8824524828674,325.75248335752224L711.511128447347,325.0584906659328L712.2549137628075,324.95027910265696L713.6867969209086,324.7582195283044L718.324999976351,323.6976961498659Z" vector-effect="non-scaling-stroke"><title>Sullivan County</title></path><path id="county-47091" class="county feature" d="M720.9716661877923,323.3425665907837L720.5908548526162,323.85219204618045L720.3978992394772,327.63731006164346L717.8972897715207,330.00164887668427L717.7396666923025,330.43262577793416L715.600426101134,328.81128520094353L716.8924238398347,326.596784845279L716.3096836164436,326.0169544819088L718.324999976351,323.6976961498659Z" vector-effect="non-scaling-stroke"><title>Johnson County</title></path><path id="county-47151" class="county feature" d="M682.5645537539427,329.0270469851524L682.7704363782672,330.4689236638801L681.5473995776297,331.53955209496496L682.2635099446229,334.90084204526806L681.7821810620646,336.24967738119483L680.8936584589633,337.37054135105143L678.1299946641819,335.676079819146L676.5764952834037,333.9552687264163L677.1427696437186,333.42347232251564L675.7768819665048,331.1298569160408L674.8127700223033,329.75037919300246L674.9188680577719,329.7398372397138Z" vector-effect="non-scaling-stroke"><title>Scott County</title></path><path id="county-47025" class="county feature" d="M694.1784046621459,327.43419943487606L695.4234122745066,328.4629098284157L695.8899033042139,330.7075216863457L695.0642506326358,331.5529910073817L691.92028916433,332.53989553785516L690.9480050928129,332.6531545906611L689.6577108933072,331.09553749356974L688.2173587902766,331.581776326001L686.2660430127787,328.59626052034764L687.4459577642641,328.4930788187263L691.1840024053931,327.7625820091839Z" vector-effect="non-scaling-stroke"><title>Claiborne County</title></path><path id="county-47067" class="county feature" d="M701.3505066615874,326.53206027997703L703.6262934076922,326.21657697274566L701.0528244468014,327.14550325793414L697.5041965631696,330.84358946246505L695.8899033042139,330.7075216863457L695.4234122745066,328.4629098284157L694.1784046621459,327.43419943487606Z" vector-effect="non-scaling-stroke"><title>Hancock County</title></path><path id="county-47013" class="county feature" d="M688.2173587902766,331.581776326001L687.1147755510984,334.56516194672236L686.1899115282306,335.4894902123759L683.8701553603269,335.45774285627044L683.8247659966786,336.74188376343045L681.7821810620646,336.24967738119483L682.2635099446229,334.90084204526806L681.5473995776297,331.53955209496496L682.7704363782672,330.4689236638801L682.5645537539427,329.0270469851524L683.0720323167645,328.9608931739391L686.2660430127787,328.59626052034764Z" vector-effect="non-scaling-stroke"><title>Campbell County</title></path><path id="county-47073" class="county feature" d="M706.8824524828674,325.75248335752224L706.259566686062,328.93136851832196L705.9929403898509,329.3749402075789L702.6741138690544,331.31753506206485L700.8223362508073,333.2923821908886L699.372116577981,331.52999598611984L698.1464382397642,332.7658089574636L697.5041965631696,330.84358946246505L701.0528244468014,327.14550325793414L703.6262934076922,326.21657697274566Z" vector-effect="non-scaling-stroke"><title>Hawkins County</title></path><path id="county-47049" class="county feature" d="M675.7768819665048,331.1298569160408L677.1427696437186,333.42347232251564L676.5764952834037,333.9552687264163L674.1527041109895,335.95962735622584L673.9943117697364,338.33223623942024L671.1725820766432,338.99756227567514L670.8715705203105,338.91499820319575L671.309357122391,337.8902090596597L670.2853082313662,334.00341576957317L671.0007138371798,331.1665424930376L672.5165187140467,330.443819786851Z" vector-effect="non-scaling-stroke"><title>Fentress County</title></path><path id="county-47133" class="county feature" d="M670.2853082313662,334.00341576957317L671.309357122391,337.8902090596597L670.8715705203105,338.91499820319575L666.2239805207139,337.69434916387115L664.9647437855178,336.5936715777101L664.7548756811185,334.7025923224013L665.3642040426047,332.78956023256035L667.5955505150486,331.9548583936188Z" vector-effect="non-scaling-stroke"><title>Overton County</title></path><path id="county-47087" class="county feature" d="M664.7548756811185,334.7025923224013L664.9647437855178,336.5936715777101L663.2910605634966,338.5141621700717L660.8709656644887,338.26105970313745L659.7833195343629,337.41161090338437L659.8127864048731,335.08033427886255L659.8431088063949,333.4138804198701L661.414842372212,332.80893474762706Z" vector-effect="non-scaling-stroke"><title>Jackson County</title></path><path id="county-47019" class="county feature" d="M717.7396666923025,330.43262577793416L716.0038717090197,333.7813189366617L713.760780906223,333.088174597774L713.0495486755315,331.7388811168497L711.7562168729727,331.5531773394456L711.9661223148256,328.78678734302093L713.5842559007139,328.4752214766344L716.3096836164436,326.0169544819088L716.8924238398347,326.596784845279L715.600426101134,328.81128520094353Z" vector-effect="non-scaling-stroke"><title>Carter County</title></path><path id="county-47131" class="county feature" d="M615.1073348689666,337.44676055264006L615.2241144138015,337.43387272991924L615.5101264546147,339.1610068429003L613.5241286067394,339.33233346255815L613.6403418886111,342.8480787645741L610.7691397771478,343.4013421794906L605.867872286194,343.5941998410658L607.4372468322516,339.7714539396719L607.5212558171922,337.99009629811474Z" vector-effect="non-scaling-stroke"><title>Obion County</title></path><path id="county-47183" class="county feature" d="M619.8184280893317,337.1043291597166L620.1388649356211,343.68845498412145L617.8518842497964,345.5564749243284L615.5365096313171,344.5531042263592L613.6403418886111,342.8480787645741L613.5241286067394,339.33233346255815L615.5101264546147,339.1610068429003L615.2241144138015,337.43387272991924L615.3734360147733,337.426635906785Z" vector-effect="non-scaling-stroke"><title>Weakley County</title></path><path id="county-47095" class="county feature" d="M605.867872286194,343.5941998410658L603.721472107258,344.2575270855931L602.6478830398141,343.055649841795L605.0444537300096,342.85889111032475L603.8091083224288,341.8880721602443L604.7790459609988,341.3241257619218L604.6631468700132,338.2830159204939L605.4729111169704,338.2327276900277L606.456546298794,338.1435311732489L607.5212558171922,337.99009629811474L607.4372468322516,339.7714539396719Z" vector-effect="non-scaling-stroke"><title>Lake County</title></path><path id="county-47079" class="county feature" d="M626.6923644213211,336.61931545932225L627.8458236334893,339.11362836965725L626.3172730964151,339.25105932228666L626.6278380284249,341.10697446389906L624.9180087431898,343.9033423077202L624.8946815793992,343.4227030553179L620.1388649356211,343.68845498412145L619.8184280893317,337.1043291597166L620.2288419675696,337.08103203611563Z" vector-effect="non-scaling-stroke"><title>Henry County</title></path><path id="county-47169" class="county feature" d="M653.7355806045526,334.285578186439L654.7116198048784,335.0020716534766L657.5528430205221,335.0514491915966L655.4691831764828,337.7382749003243L653.197639911312,336.9927678932561Z" vector-effect="non-scaling-stroke"><title>Trousdale County</title></path><path id="county-47021" class="county feature" d="M643.7888807758093,337.26205539850605L642.9862173538085,342.1528908357452L642.2946626248604,343.7876130545284L640.3786077052212,343.8868511346975L640.6276565430494,341.4139855112827L640.0238539662179,338.91876625196255L638.3582969072988,338.92033542664353L640.5899411464188,336.18499864193325L642.7059636498045,337.61978140122824ZM640.5478162856266,339.23498135929435L640.5478162856266,339.23498135929435L640.5478162856266,339.23498135929435Z" vector-effect="non-scaling-stroke"><title>Cheatham County</title></path><path id="county-47179" class="county feature" d="M711.9661223148256,328.78678734302093L711.7562168729727,331.5531773394456L710.5881077223346,333.58962550891545L708.4078125203065,335.0168757154138L707.4942314493115,334.19019406078337L706.9821475309155,329.08084129962515L705.9929403898509,329.3749402075789L706.259566686062,328.93136851832196L709.7767352206718,328.16779196973755Z" vector-effect="non-scaling-stroke"><title>Washington County</title></path><path id="county-47173" class="county feature" d="M691.92028916433,332.53989553785516L691.3913490136283,336.02736940609543L688.2393859601192,336.01949469763747L687.1147755510984,334.56516194672236L688.2173587902766,331.581776326001L689.6577108933072,331.09553749356974L690.9480050928129,332.6531545906611Z" vector-effect="non-scaling-stroke"><title>Union County</title></path><path id="county-47159" class="county feature" d="M659.8127864048731,335.08033427886255L659.7833195343629,337.41161090338437L660.8709656644887,338.26105970313745L660.6810487626566,340.2999809605582L659.9090759929475,341.10075523363855L657.0158281237178,341.5530489200663L655.4691831764828,337.7382749003243L657.5528430205221,335.0514491915966Z" vector-effect="non-scaling-stroke"><title>Smith County</title></path><path id="county-47057" class="county feature" d="M695.8899033042139,330.7075216863457L697.5041965631696,330.84358946246505L698.1464382397642,332.7658089574636L697.0506134569225,332.7691529931002L695.2999603815206,335.322518732125L693.9379494221625,335.40854410564805L692.5585251491362,337.4723612701023L691.3913490136283,336.02736940609543L691.92028916433,332.53989553785516L695.0642506326358,331.5529910073817Z" vector-effect="non-scaling-stroke"><title>Grainger County</title></path><path id="county-47037" class="county feature" d="M646.0935192844488,336.6057172809458L648.7749164063396,339.37999789327387L650.2134417934799,341.9747644501167L648.9214075620018,344.6093915728294L646.2889019771396,343.5849193227516L644.1472775088785,343.474197832747L642.7898929651221,344.8024864275196L642.2946626248604,343.7876130545284L642.9862173538085,342.1528908357452L643.7888807758093,337.26205539850605L645.1319684839024,337.76540275465106Z" vector-effect="non-scaling-stroke"><title>Davidson County</title></path><path id="county-47059" class="county feature" d="M708.4078125203065,335.0168757154138L708.4399964927113,336.08400193685634L707.866490725074,335.67239781855574L705.8670343182681,337.42095467118077L705.5139388322474,338.73991368993416L704.308622988975,338.4670825165348L699.7365076395313,334.6094434349104L700.8223362508073,333.2923821908886L702.6741138690544,331.31753506206485L705.9929403898509,329.3749402075789L706.9821475309155,329.08084129962515L707.4942314493115,334.19019406078337Z" vector-effect="non-scaling-stroke"><title>Greene County</title></path><path id="county-47129" class="county feature" d="M676.5764952834037,333.9552687264163L678.1299946641819,335.676079819146L680.8936584589633,337.37054135105143L682.631813701142,339.33199403240644L681.2250525938989,340.7021510024932L677.9146548673896,342.57293037742045L677.1234191504707,341.02590106418893L673.9943117697364,338.33223623942024L674.1527041109895,335.95962735622584Z" vector-effect="non-scaling-stroke"><title>Morgan County</title></path><path id="county-47083" class="county feature" d="M633.7423674078073,338.4719824955041L634.9693809213635,338.9858305878205L634.4427534849536,342.0002412221811L630.8846640563893,341.0479798147859L628.6407672785278,341.2707838243847L627.9954535472145,339.2330900417203L630.4018279692641,339.50113946181534Z" vector-effect="non-scaling-stroke"><title>Houston County</title></path><path id="county-47005" class="county feature" d="M627.9954535472145,339.2330900417203L628.6407672785278,341.2707838243847L629.2396383625319,343.505234372185L628.1706391449146,346.9193547377407L629.4936746830214,347.05723502856495L629.0837225822154,348.8426394739739L629.005836821771,349.3267331263364L625.8621511377377,349.0196023454598L625.2706648550899,349.0530322538134L624.9180087431898,343.9033423077202L626.6278380284249,341.10697446389906L626.3172730964151,339.25105932228666L627.8458236334893,339.11362836965725Z" vector-effect="non-scaling-stroke"><title>Benton County</title></path><path id="county-47189" class="county feature" d="M653.197639911312,336.9927678932561L655.4691831764828,337.7382749003243L657.0158281237178,341.5530489200663L657.9353986094563,343.82524586680495L655.8898524009054,344.1646420559862L653.5011116312498,343.9530182758033L650.2134417934799,341.9747644501167L648.7749164063396,339.37999789327387L650.7193962682082,337.4707558132069Z" vector-effect="non-scaling-stroke"><title>Wilson County</title></path><path id="county-47063" class="county feature" d="M700.8223362508073,333.2923821908886L699.7365076395313,334.6094434349104L698.9635937999733,336.5349201342166L697.9525166833121,335.6608140914037L695.2999603815206,335.322518732125L697.0506134569225,332.7691529931002L698.1464382397642,332.7658089574636L699.372116577981,331.52999598611984Z" vector-effect="non-scaling-stroke"><title>Hamblen County</title></path><path id="county-47043" class="county feature" d="M640.5478162856266,339.23498135929435L640.5478162856266,339.23498135929435L640.5478162856266,339.23498135929435ZM638.3582969072988,338.92033542664353L640.0238539662179,338.91876625196255L640.6276565430494,341.4139855112827L640.3786077052212,343.8868511346975L640.2154738709979,345.6152965577867L635.2219424177156,345.4224136472312L634.4427534849536,342.0002412221811L634.9693809213635,338.9858305878205Z" vector-effect="non-scaling-stroke"><title>Dickson County</title></path><path id="county-47141" class="county feature" d="M670.8715705203105,338.91499820319575L671.1725820766432,338.99756227567514L669.0793037060935,339.9565312620023L669.0708557668071,342.262353815482L668.2869443996253,341.3556324188402L665.2200441641977,340.7431903081822L663.3406166504792,342.21927155850244L660.6810487626566,340.2999809605582L660.8709656644887,338.26105970313745L663.2910605634966,338.5141621700717L664.9647437855178,336.5936715777101L666.2239805207139,337.69434916387115Z" vector-effect="non-scaling-stroke"><title>Putnam County</title></path><path id="county-47001" class="county feature" d="M687.1147755510984,334.56516194672236L688.2393859601192,336.01949469763747L686.2614226822532,338.50120101992377L686.8539023967434,339.036723272466L684.9406829502425,340.0983844243765L683.9929597525129,341.79967443851365L682.631813701142,339.33199403240644L680.8936584589633,337.37054135105143L681.7821810620646,336.24967738119483L683.8247659966786,336.74188376343045L683.8701553603269,335.45774285627044L686.1899115282306,335.4894902123759Z" vector-effect="non-scaling-stroke"><title>Anderson County</title></path><path id="county-47171" class="county feature" d="M713.760780906223,333.088174597774L711.1109809416089,335.0774326094173L710.0519929909401,337.0386411465123L708.51464484302,337.45182418514696L708.4399964927113,336.08400193685634L708.4078125203065,335.0168757154138L710.5881077223346,333.58962550891545L711.7562168729727,331.5531773394456L713.0495486755315,331.7388811168497Z" vector-effect="non-scaling-stroke"><title>Unicoi County</title></path><path id="county-47085" class="county feature" d="M634.4427534849536,342.0002412221811L635.2219424177156,345.4224136472312L632.802377759977,347.29900822737136L632.7619313077652,348.5667073333476L630.7905293651253,349.3980033150483L629.0837225822154,348.8426394739739L629.4936746830214,347.05723502856495L628.1706391449146,346.9193547377407L629.2396383625319,343.505234372185L628.6407672785278,341.2707838243847L630.8846640563893,341.0479798147859Z" vector-effect="non-scaling-stroke"><title>Humphreys County</title></path><path id="county-47053" class="county feature" d="M617.8518842497964,345.5564749243284L618.0303158044276,350.67849864339473L614.883892688539,350.7971281697828L611.9049246987944,349.7933662919726L610.5329132371444,347.2950018362152L610.7691397771478,343.4013421794906L613.6403418886111,342.8480787645741L615.5365096313171,344.5531042263592Z" vector-effect="non-scaling-stroke"><title>Gibson County</title></path><path id="county-47045" class="county feature" d="M610.5329132371444,347.2950018362152L609.3223080910831,349.51984173150424L608.3955416534689,349.6886867618823L607.3380465876534,348.52137331233143L603.8453837099762,349.5572214285787L602.7951576008618,347.7856335164756L603.109632402642,346.20111147159355L604.328874144988,345.29740030357993L603.721472107258,344.2575270855931L605.867872286194,343.5941998410658L610.7691397771478,343.4013421794906Z" vector-effect="non-scaling-stroke"><title>Dyer County</title></path><path id="county-47089" class="county feature" d="M695.2999603815206,335.322518732125L697.9525166833121,335.6608140914037L698.9635937999733,336.5349201342166L698.3110349781978,340.22383691885796L695.8047378489798,340.0281750638592L692.5758983490955,338.2695657097629L692.5585251491362,337.4723612701023L693.9379494221625,335.40854410564805Z" vector-effect="non-scaling-stroke"><title>Jefferson County</title></path><path id="county-47093" class="county feature" d="M692.5585251491362,337.4723612701023L692.5758983490955,338.2695657097629L693.0152807700201,339.47725052259216L691.1465436273402,341.3319379821372L690.376521333594,342.3058749409305L688.9204620269103,341.82682914502413L686.0910963423543,342.57754098990256L685.8082797193598,343.5689404309146L684.1464197900041,342.03158570931237L683.9929597525129,341.79967443851365L684.9406829502425,340.0983844243765L686.8539023967434,339.036723272466L686.2614226822532,338.50120101992377L688.2393859601192,336.01949469763747L691.3913490136283,336.02736940609543Z" vector-effect="non-scaling-stroke"><title>Knox County</title></path><path id="county-47029" class="county feature" d="M704.308622988975,338.4670825165348L703.7684085035808,341.4739381255797L702.0318785119114,341.7391450765458L699.5899827443187,343.4663411306926L698.3110349781978,340.22383691885796L698.9635937999733,336.5349201342166L699.7365076395313,334.6094434349104Z" vector-effect="non-scaling-stroke"><title>Cocke County</title></path><path id="county-47035" class="county feature" d="M673.9943117697364,338.33223623942024L677.1234191504707,341.02590106418893L677.9146548673896,342.57293037742045L676.5935357715641,344.3146126647856L674.7267363522237,345.7364065233477L669.6798435703877,346.2441682285896L669.6822293391434,346.21740889326895L669.3543929738357,345.86135228374246L669.3959559398086,345.7496684066524L669.9813590137976,343.4640498410241L669.0708557668071,342.262353815482L669.0793037060935,339.9565312620023L671.1725820766432,338.99756227567514Z" vector-effect="non-scaling-stroke"><title>Cumberland County</title></path><path id="county-47017" class="county feature" d="M624.9180087431898,343.9033423077202L625.2706648550899,349.0530322538134L625.8621511377377,349.0196023454598L625.8856189892517,349.56617677247436L620.0326680595448,349.88545419577906L619.5314897282475,350.5937602948792L618.0303158044276,350.67849864339473L617.8518842497964,345.5564749243284L620.1388649356211,343.68845498412145L624.8946815793992,343.4227030553179Z" vector-effect="non-scaling-stroke"><title>Carroll County</title></path><path id="county-47041" class="county feature" d="M663.3406166504792,342.21927155850244L663.7258609757422,344.7018178898279L663.149997850522,345.7260469717455L660.1134905623001,345.893844832917L657.9353986094563,343.82524586680495L657.0158281237178,341.5530489200663L659.9090759929475,341.10075523363855L660.6810487626566,340.2999809605582Z" vector-effect="non-scaling-stroke"><title>DeKalb County</title></path><path id="county-47149" class="county feature" d="M655.8898524009054,344.1646420559862L655.5734430509406,348.94524079584596L655.1434516053338,350.3511548713475L653.47765734387,349.98148469330295L652.7995224896956,350.83784568539716L650.9873017859212,349.70394824926416L649.1397788612494,349.9355196053252L648.3971966998317,349.55099381839466L649.3374952189617,347.9364744333267L648.9214075620018,344.6093915728294L650.2134417934799,341.9747644501167L653.5011116312498,343.9530182758033Z" vector-effect="non-scaling-stroke"><title>Rutherford County</title></path><path id="county-47185" class="county feature" d="M669.6822293391434,346.21740889326895L669.3543929738357,345.86135228374246L669.6822293391434,346.21740889326895ZM669.0708557668071,342.262353815482L669.9813590137976,343.4640498410241L669.3959559398086,345.7496684066524L666.906561970442,345.5458880131706L664.4129821587198,346.27525457674255L663.149997850522,345.7260469717455L663.7258609757422,344.7018178898279L663.3406166504792,342.21927155850244L665.2200441641977,340.7431903081822L668.2869443996253,341.3556324188402Z" vector-effect="non-scaling-stroke"><title>White County</title></path><path id="county-47187" class="county feature" d="M648.9214075620018,344.6093915728294L649.3374952189617,347.9364744333267L648.3971966998317,349.55099381839466L646.9697140647078,349.75061085118796L640.238466172769,347.66895581730205L640.2154738709979,345.6152965577867L640.3786077052212,343.8868511346975L642.2946626248604,343.7876130545284L642.7898929651221,344.8024864275196L644.1472775088785,343.474197832747L646.2889019771396,343.5849193227516Z" vector-effect="non-scaling-stroke"><title>Williamson County</title></path><path id="county-47145" class="county feature" d="M680.5479698219498,346.77473825099037L680.5479698219498,346.77473825099037L679.9422278464147,347.34044882143246L679.411149299885,347.4003665302073L679.2118168017429,346.1499441211113L677.6153285003062,345.5611968626737L676.5935357715641,344.3146126647856L677.9146548673896,342.57293037742045L681.2250525938989,340.7021510024932L682.631813701142,339.33199403240644L683.9929597525129,341.79967443851365L684.1464197900041,342.03158570931237Z" vector-effect="non-scaling-stroke"><title>Roane County</title></path><path id="county-47155" class="county feature" d="M698.3110349781978,340.22383691885796L699.5899827443187,343.4663411306926L699.6571759850101,343.8433698184904L696.3495649373215,346.8117035469071L693.875158756305,347.0194921552304L692.9506086549167,344.47887402286995L691.1465436273402,341.3319379821372L693.0152807700201,339.47725052259216L692.5758983490955,338.2695657097629L695.8047378489798,340.0281750638592Z" vector-effect="non-scaling-stroke"><title>Sevier County</title></path><path id="county-47033" class="county feature" d="M614.883892688539,350.7971281697828L613.4999669108969,353.27996009098854L612.7387437986403,352.93283153079096L609.6804066660966,351.981867522162L608.2696069795851,350.8949962828069L608.3955416534689,349.6886867618823L609.3223080910831,349.51984173150424L610.5329132371444,347.2950018362152L611.9049246987944,349.7933662919726Z" vector-effect="non-scaling-stroke"><title>Crockett County</title></path><path id="county-47081" class="county feature" d="M640.2154738709979,345.6152965577867L640.238466172769,347.66895581730205L640.1728804380123,350.0579960289001L638.7173225708921,351.432960674814L636.985740262799,352.4234938655445L635.0178830593215,351.8759138537455L634.0204906678639,352.79525677955587L632.6453939776375,351.8833096441863L632.7619313077652,348.5667073333476L632.802377759977,347.29900822737136L635.2219424177156,345.4224136472312Z" vector-effect="non-scaling-stroke"><title>Hickman County</title></path><path id="county-47015" class="county feature" d="M660.1134905623001,345.893844832917L658.8332670642959,348.0211307184752L658.9755691004756,349.41788212585607L657.4503633251527,349.82974521508777L655.5734430509406,348.94524079584596L655.8898524009054,344.1646420559862L657.9353986094563,343.82524586680495Z" vector-effect="non-scaling-stroke"><title>Cannon County</title></path><path id="county-47097" class="county feature" d="M608.3955416534689,349.6886867618823L608.2696069795851,350.8949962828069L607.5858757075438,350.8452842747571L606.3875297247408,355.4979327901315L604.6478210939065,354.43007154019756L602.4526770694399,354.4503237065039L600.3311821315423,356.708033517673L599.5438430645304,355.82731172528906L601.003487739857,354.8755502998397L599.4248403074489,353.02436903804994L601.3639923047374,352.5170864309616L603.0770779436045,350.9791516259678L602.3618230714427,349.62535515250977L603.8453837099762,349.5572214285787L607.3380465876534,348.52137331233143Z" vector-effect="non-scaling-stroke"><title>Lauderdale County</title></path><path id="county-47105" class="county feature" d="M680.9472940254872,347.91518369283483L680.9280242322164,347.711561894257L680.9472940254872,347.91518369283483ZM680.5479698219498,346.77473825099037L680.5479698219498,346.77473825099037L680.5479698219498,346.77473825099037ZM680.5479698219498,346.77473825099037L684.1464197900041,342.03158570931237L685.8082797193598,343.5689404309146L686.6083789419026,346.13745526377886L685.931464412384,347.24944961266294L684.3016542423361,346.61270124700127L681.790749647108,346.71231906233436L680.8617382268018,347.61356540458326L679.9422278464147,347.34044882143246Z" vector-effect="non-scaling-stroke"><title>Loudon County</title></path><path id="county-47009" class="county feature" d="M693.875158756305,347.0194921552304L692.2647106924439,347.37473130856154L689.803572686737,349.6081136441512L689.6778049348595,349.56292054944333L688.7965032026532,347.94766159302105L687.6854928935786,348.3819821938906L685.931464412384,347.24944961266294L686.6083789419026,346.13745526377886L685.8082797193598,343.5689404309146L686.0910963423543,342.57754098990256L688.9204620269103,341.82682914502413L690.376521333594,342.3058749409305L691.1465436273402,341.3319379821372L692.9506086549167,344.47887402286995Z" vector-effect="non-scaling-stroke"><title>Blount County</title></path><path id="county-47177" class="county feature" d="M663.149997850522,345.7260469717455L664.4129821587198,346.27525457674255L664.900688704288,349.57809485455357L665.6290277156456,351.107780093982L664.8902039258269,351.21454280568344L660.8633539625065,351.7933719915991L658.9755691004756,349.41788212585607L658.8332670642959,348.0211307184752L660.1134905623001,345.893844832917Z" vector-effect="non-scaling-stroke"><title>Warren County</title></path><path id="county-47119" class="county feature" d="M646.9697140647078,349.75061085118796L646.4152111983008,352.75860570111524L644.8145889568655,355.44505282686316L642.3430340954359,354.9528961010734L641.0938230520766,355.489165872649L639.7532659486642,355.3944060447011L639.7145289444568,353.55428856683056L638.7173225708921,351.432960674814L640.1728804380123,350.0579960289001L640.238466172769,347.66895581730205Z" vector-effect="non-scaling-stroke"><title>Maury County</title></path><path id="county-47039" class="county feature" d="M629.005836821771,349.3267331263364L628.2618124441465,351.0210109443743L628.3477016134727,353.13882008473627L629.3929060977708,354.79472603249485L629.0684171300658,356.7387283305371L628.8693618419782,357.3435290185712L626.3073171736421,357.77706209389044L625.5562141483786,357.03345546027185L625.372419805943,355.05208890522465L626.035024253356,353.4804725954732L625.8856189892517,349.56617677247436L625.8621511377377,349.0196023454598Z" vector-effect="non-scaling-stroke"><title>Decatur County</title></path><path id="county-47135" class="county feature" d="M632.7619313077652,348.5667073333476L632.6453939776375,351.8833096441863L634.0204906678639,352.79525677955587L633.3340358973462,355.23901789458125L629.5337496918618,356.00978699611596L629.0684171300658,356.7387283305371L629.3929060977708,354.79472603249485L628.3477016134727,353.13882008473627L628.2618124441465,351.0210109443743L629.005836821771,349.3267331263364L629.0837225822154,348.8426394739739L630.7905293651253,349.3980033150483Z" vector-effect="non-scaling-stroke"><title>Perry County</title></path><path id="county-47143" class="county feature" d="M677.6153285003062,345.5611968626737L677.0099128650277,349.38630178203493L676.0890957805893,349.51545675864645L675.4012105889265,351.7729593021643L673.9986624383446,352.5060670249194L672.1121340509167,351.7886268464879L672.2835084584792,349.63356903606154L674.7267363522237,345.7364065233477L676.5935357715641,344.3146126647856Z" vector-effect="non-scaling-stroke"><title>Rhea County</title></path><path id="county-47175" class="county feature" d="M669.3959559398086,345.7496684066524L669.3543929738357,345.86135228374246L669.6822293391434,346.21740889326895L669.6798435703877,346.2441682285896L667.5611976932167,350.2404941582861L665.6290277156456,351.107780093982L664.900688704288,349.57809485455357L664.4129821587198,346.27525457674255L666.906561970442,345.5458880131706Z" vector-effect="non-scaling-stroke"><title>Van Buren County</title></path><path id="county-47077" class="county feature" d="M625.8856189892517,349.56617677247436L626.035024253356,353.4804725954732L625.372419805943,355.05208890522465L625.5562141483786,357.03345546027185L623.7711415628619,357.2595958308302L623.6162799225691,355.8759678829516L621.4632976731591,355.6842257010409L619.7237363264223,354.38107077352004L619.5314897282475,350.5937602948792L620.0326680595448,349.88545419577906Z" vector-effect="non-scaling-stroke"><title>Henderson County</title></path><path id="county-47075" class="county feature" d="M612.7387437986403,352.93283153079096L612.9571121501749,357.85407095842686L611.4159675941212,358.61300831250685L607.0430474580294,358.8088323900628L606.3875297247408,355.4979327901315L607.5858757075438,350.8452842747571L608.2696069795851,350.8949962828069L609.6804066660966,351.981867522162Z" vector-effect="non-scaling-stroke"><title>Haywood County</title></path><path id="county-47113" class="county feature" d="M618.0303158044276,350.67849864339473L619.5314897282475,350.5937602948792L619.7237363264223,354.38107077352004L618.9201383966135,356.32448210682367L616.5307092891725,357.6568837483626L612.9571121501749,357.85407095842686L612.7387437986403,352.93283153079096L613.4999669108969,353.27996009098854L614.883892688539,350.7971281697828Z" vector-effect="non-scaling-stroke"><title>Madison County</title></path><path id="county-47007" class="county feature" d="M674.7267363522237,345.7364065233477L672.2835084584792,349.63356903606154L672.1121340509167,351.7886268464879L670.9741886408661,353.8968974335562L668.0299975198542,351.61080970735566L667.5611976932167,350.2404941582861L669.6798435703877,346.2441682285896Z" vector-effect="non-scaling-stroke"><title>Bledsoe County</title></path><path id="county-47121" class="county feature" d="M679.411149299885,347.4003665302073L676.4688054886194,353.3411267111725L675.3136032233695,354.6615999254533L673.9986624383446,352.5060670249194L675.4012105889265,351.7729593021643L676.0890957805893,349.51545675864645L677.0099128650277,349.38630178203493L677.6153285003062,345.5611968626737L679.2118168017429,346.1499441211113Z" vector-effect="non-scaling-stroke"><title>Meigs County</title></path><path id="county-47117" class="county feature" d="M649.1397788612494,349.9355196053252L649.1720893084341,354.28028273610676L650.3382890349712,355.89381832157767L648.3273115555191,358.21294791049456L647.0817534753965,358.12970268477625L644.8145889568655,355.44505282686316L646.4152111983008,352.75860570111524L646.9697140647078,349.75061085118796L648.3971966998317,349.55099381839466Z" vector-effect="non-scaling-stroke"><title>Marshall County</title></path><path id="county-47031" class="county feature" d="M655.5734430509406,348.94524079584596L657.4503633251527,349.82974521508777L658.9755691004756,349.41788212585607L660.8633539625065,351.7933719915991L660.784492134253,356.2596556754381L656.9726383838681,355.25957810605064L655.471446982127,355.9692358608487L655.3731485491139,354.48384818003365L655.1434516053338,350.3511548713475Z" vector-effect="non-scaling-stroke"><title>Coffee County</title></path><path id="county-47003" class="county feature" d="M655.1434516053338,350.3511548713475L655.3731485491139,354.48384818003365L652.7563143776416,356.4888951049111L651.46258476703,355.97402568179314L650.3382890349712,355.89381832157767L649.1720893084341,354.28028273610676L649.1397788612494,349.9355196053252L650.9873017859212,349.70394824926416L652.7995224896956,350.83784568539716L653.47765734387,349.98148469330295Z" vector-effect="non-scaling-stroke"><title>Bedford County</title></path><path id="county-47123" class="county feature" d="M685.931464412384,347.24944961266294L687.6854928935786,348.3819821938906L688.7965032026532,347.94766159302105L689.6778049348595,349.56292054944333L688.9119410928121,350.7936318195307L689.0643028678139,352.9022073923596L687.7201356173941,354.0375907693423L686.3531231125557,353.7323732027154L685.3120704213582,354.99354525748015L682.0827527871406,353.89526696195014L683.4010998960241,352.8819554019665L683.1213695128074,351.62444588272524L680.9472940254872,347.91518369283483L680.9280242322164,347.711561894257L680.8617382268018,347.61356540458326L681.790749647108,346.71231906233436L684.3016542423361,346.61270124700127Z" vector-effect="non-scaling-stroke"><title>Monroe County</title></path><path id="county-47101" class="county feature" d="M638.7173225708921,351.432960674814L639.7145289444568,353.55428856683056L639.7532659486642,355.3944060447011L637.4186653163438,355.3589705000155L635.6096794354297,356.64475792570806L633.3340358973462,355.23901789458125L634.0204906678639,352.79525677955587L635.0178830593215,351.8759138537455L636.985740262799,352.4234938655445Z" vector-effect="non-scaling-stroke"><title>Lewis County</title></path><path id="county-47167" class="county feature" d="M598.3266490445756,359.6411618215642L598.0137522069683,359.7580698137567L596.9329779141107,358.8659133633266L598.0478812773722,358.3069091132011ZM606.3875297247408,355.4979327901315L607.0430474580294,358.8088323900628L604.6839804475087,359.4853833973174L598.5126366323555,359.4915936851352L598.3562891560864,356.6559219713316L600.3311821315423,356.708033517673L602.4526770694399,354.4503237065039L604.6478210939065,354.43007154019756Z" vector-effect="non-scaling-stroke"><title>Tipton County</title></path><path id="county-47107" class="county feature" d="M679.9422278464147,347.34044882143246L680.8617382268018,347.61356540458326L680.9280242322164,347.711561894257L680.9472940254872,347.91518369283483L683.1213695128074,351.62444588272524L683.4010998960241,352.8819554019665L682.0827527871406,353.89526696195014L679.0587453711053,355.10265627024853L676.4688054886194,353.3411267111725L679.411149299885,347.4003665302073Z" vector-effect="non-scaling-stroke"><title>McMinn County</title></path><path id="county-47023" class="county feature" d="M623.7711415628619,357.2595958308302L623.7957030937994,357.96934599807116L620.1793896916408,358.3483214225431L618.6205610670597,360.90386235680876L617.6844192711657,360.9743872122481L616.5307092891725,357.6568837483626L618.9201383966135,356.32448210682367L619.7237363264223,354.38107077352004L621.4632976731591,355.6842257010409L623.6162799225691,355.8759678829516Z" vector-effect="non-scaling-stroke"><title>Chester County</title></path><path id="county-47153" class="county feature" d="M670.9741886408661,353.8968974335562L668.9908015661117,358.0436838042484L667.7249566360153,355.9074986251047L666.0596829405899,355.11061448209955L666.9723353143659,353.35810125341106L664.8902039258269,351.21454280568344L665.6290277156456,351.107780093982L667.5611976932167,350.2404941582861L668.0299975198542,351.61080970735566Z" vector-effect="non-scaling-stroke"><title>Sequatchie County</title></path><path id="county-47061" class="county feature" d="M666.0596829405899,355.11061448209955L663.85216014667,355.9234394975813L663.5438634326794,357.35747127182583L661.5250820044038,357.42114068206615L660.784492134253,356.2596556754381L660.8633539625065,351.7933719915991L664.8902039258269,351.21454280568344L666.9723353143659,353.35810125341106Z" vector-effect="non-scaling-stroke"><title>Grundy County</title></path><path id="county-47181" class="county feature" d="M635.6096794354297,356.64475792570806L635.7856910256812,364.0986533419782L630.0815162539492,364.5455335032975L629.6705106082076,359.1040013371088L628.8693618419782,357.3435290185712L629.0684171300658,356.7387283305371L629.5337496918618,356.00978699611596L633.3340358973462,355.23901789458125Z" vector-effect="non-scaling-stroke"><title>Wayne County</title></path><path id="county-47099" class="county feature" d="M639.7532659486642,355.3944060447011L641.0938230520766,355.489165872649L641.5831852845752,363.65081144474425L635.7856910256812,364.0986533419782L635.6096794354297,356.64475792570806L637.4186653163438,355.3589705000155Z" vector-effect="non-scaling-stroke"><title>Lawrence County</title></path><path id="county-47065" class="county feature" d="M673.9986624383446,352.5060670249194L675.3136032233695,354.6615999254533L674.4647711512708,357.7941270816549L675.4661226654407,360.3311125512488L671.1658106487895,360.875323967644L669.6760294471618,361.0760963892652L668.0261487245182,361.2666388791371L669.2407330361967,360.0284974613178L668.9908015661117,358.0436838042484L670.9741886408661,353.8968974335562L672.1121340509167,351.7886268464879Z" vector-effect="non-scaling-stroke"><title>Hamilton County</title></path><path id="county-47055" class="county feature" d="M644.8145889568655,355.44505282686316L647.0817534753965,358.12970268477625L647.4665595293932,363.2351420396326L641.7844156505141,363.6392760523222L641.5831852845752,363.65081144474425L641.0938230520766,355.489165872649L642.3430340954359,354.9528961010734Z" vector-effect="non-scaling-stroke"><title>Giles County</title></path><path id="county-47069" class="county feature" d="M612.9571121501749,357.85407095842686L616.5307092891725,357.6568837483626L617.6844192711657,360.9743872122481L617.9745764849174,365.72054057895514L617.4262562026285,365.7621306696401L614.4838879756938,365.9867892412617L611.7476370242942,366.19367424236873L611.4159675941212,358.61300831250685Z" vector-effect="non-scaling-stroke"><title>Hardeman County</title></path><path id="county-47071" class="county feature" d="M628.8693618419782,357.3435290185712L629.6705106082076,359.1040013371088L630.0815162539492,364.5455335032975L626.8425749862996,365.0115722887532L624.3791705063921,365.2151094641399L624.1130060801067,365.2334727398777L623.7957030937994,357.96934599807116L623.7711415628619,357.2595958308302L625.5562141483786,357.03345546027185L626.3073171736421,357.77706209389044Z" vector-effect="non-scaling-stroke"><title>Hardin County</title></path><path id="county-47127" class="county feature" d="M655.471446982127,355.9692358608487L655.0148252012938,359.92413456220515L653.6952948074091,358.0100787451272L651.5222777019346,356.7887951570232L651.46258476703,355.97402568179314L652.7563143776416,356.4888951049111L655.3731485491139,354.48384818003365Z" vector-effect="non-scaling-stroke"><title>Moore County</title></path><path id="county-47157" class="county feature" d="M604.6839804475087,359.4853833973174L604.9953166777494,366.6476003919596L603.7844724850885,366.73730386042405L594.9319323773258,367.2791070056318L596.3535481788668,366.61948504022564L596.8766507065109,364.83790132140257L598.4360349308488,364.342880930565L598.2362581556271,362.8001456518001L597.0107140096723,362.2404745987252L598.0137522069683,359.7580698137567L598.3266490445756,359.6411618215642L598.5126366323555,359.4915936851352Z" vector-effect="non-scaling-stroke"><title>Shelby County</title></path><path id="county-47047" class="county feature" d="M611.4159675941212,358.61300831250685L611.7476370242942,366.19367424236873L609.4131831510962,366.37128910977015L604.9953166777494,366.6476003919596L604.6839804475087,359.4853833973174L607.0430474580294,358.8088323900628Z" vector-effect="non-scaling-stroke"><title>Fayette County</title></path><path id="county-47109" class="county feature" d="M623.7957030937994,357.96934599807116L624.1130060801067,365.2334727398777L617.9745764849174,365.72054057895514L617.6844192711657,360.9743872122481L618.6205610670597,360.90386235680876L620.1793896916408,358.3483214225431Z" vector-effect="non-scaling-stroke"><title>McNairy County</title></path><path id="county-47103" class="county feature" d="M651.46258476703,355.97402568179314L651.5222777019346,356.7887951570232L653.6952948074091,358.0100787451272L655.0148252012938,359.92413456220515L655.2699156602505,362.4731787986136L648.2468416927554,363.15843909819375L647.4665595293932,363.2351420396326L647.0817534753965,358.12970268477625L648.3273115555191,358.21294791049456L650.3382890349712,355.89381832157767Z" vector-effect="non-scaling-stroke"><title>Lincoln County</title></path><path id="county-47051" class="county feature" d="M660.784492134253,356.2596556754381L661.5250820044038,357.42114068206615L662.1368227931629,361.8095947780323L655.4000157444078,362.4608914669791L655.2699156602505,362.4731787986136L655.0148252012938,359.92413456220515L655.471446982127,355.9692358608487L656.9726383838681,355.25957810605064Z" vector-effect="non-scaling-stroke"><title>Franklin County</title></path><path id="county-47011" class="county feature" d="M679.0587453711053,355.10265627024853L679.2745316445516,356.40575022320786L678.5372776904962,359.96599825013607L677.9917419736385,360.0357120830039L675.4661226654407,360.3311125512488L674.4647711512708,357.7941270816549L675.3136032233695,354.6615999254533L676.4688054886194,353.3411267111725Z" vector-effect="non-scaling-stroke"><title>Bradley County</title></path><path id="county-47115" class="county feature" d="M668.9908015661117,358.0436838042484L669.2407330361967,360.0284974613178L668.0261487245182,361.2666388791371L666.0472995461677,361.4547777102771L662.1368227931629,361.8095947780323L661.5250820044038,357.42114068206615L663.5438634326794,357.35747127182583L663.85216014667,355.9234394975813L666.0596829405899,355.11061448209955L667.7249566360153,355.9074986251047Z" vector-effect="non-scaling-stroke"><title>Marion County</title></path><path id="county-47139" class="county feature" d="M685.3120704213582,354.99354525748015L685.3740591099607,359.1280875823852L680.8612613565779,359.6812216016234L678.5372776904962,359.96599825013607L679.2745316445516,356.40575022320786L679.0587453711053,355.10265627024853L682.0827527871406,353.89526696195014Z" vector-effect="non-scaling-stroke"><title>Polk County</title></path></g><path id="counties-mesh" class="counties mesh" d="M640.5478162856266,339.23498135929435L640.5478162856266,339.23498135929435M632.5702687455387,333.4579384752609L633.7423674078073,338.4719824955041L630.4018279692641,339.50113946181534L627.9954535472145,339.2330900417203L627.8458236334893,339.11362836965725L626.6923644213211,336.61931545932225M648.5118032092678,332.0384441145037L646.9523819491225,336.4931564532226L646.0935192844488,336.6057172809458L645.1319684839024,337.76540275465106L643.7888807758093,337.26205539850605L642.7059636498045,337.61978140122824L640.5899411464188,336.18499864193325L640.3407308768822,332.6687354448444M653.7957736936016,331.39104069867574L653.7355806045526,334.285578186439L653.197639911312,336.9927678932561L650.7193962682082,337.4707558132069L648.7749164063396,339.37999789327387L646.0935192844488,336.6057172809458M640.5899411464188,336.18499864193325L638.3582969072988,338.92033542664353L634.9693809213635,338.9858305878205L633.7423674078073,338.4719824955041M659.9726163616629,331.0806741129488L659.8431088063949,333.4138804198701L659.8127864048731,335.08033427886255L657.5528430205221,335.0514491915966L654.7116198048784,335.0020716534766L653.7355806045526,334.285578186439M674.8127700223033,329.75037919300246L675.7768819665048,331.1298569160408L672.5165187140467,330.443819786851L671.0007138371798,331.1665424930376L670.2853082313662,334.00341576957317L667.5955505150486,331.9548583936188L667.5313259260741,330.1561419231343M667.5955505150486,331.9548583936188L665.3642040426047,332.78956023256035L664.7548756811185,334.7025923224013L661.414842372212,332.80893474762706L659.8431088063949,333.4138804198701M718.324999976351,323.6976961498659L716.3096836164436,326.0169544819088L713.5842559007139,328.4752214766344L711.9661223148256,328.78678734302093L709.7767352206718,328.16779196973755L706.259566686062,328.93136851832196L706.8824524828674,325.75248335752224M605.867872286194,343.5941998410658L603.721472107258,344.2575270855931L602.6478830398141,343.055649841795L605.0444537300096,342.85889111032475L603.8091083224288,341.8880721602443L604.7790459609988,341.3241257619218L604.6631468700132,338.2830159204939L605.4729111169704,338.2327276900277L606.456546298794,338.1435311732489L607.5212558171922,337.99009629811474L615.1073348689666,337.44676055264006L615.2241144138015,337.43387272991924L615.3734360147733,337.426635906785L619.8184280893317,337.1043291597166L620.2288419675696,337.08103203611563L626.6923644213211,336.61931545932225L626.1588993268549,333.2503819894872L631.7917121208136,333.54466841799206L632.5702687455387,333.4579384752609L637.0799754998324,332.98792108487123L640.3407308768822,332.6687354448444L641.1349807681444,332.5798020928314L645.5259619228353,332.05082630400136L648.5118032092678,332.0384441145037L650.7168887236054,331.4974052482909L653.7957736936016,331.39104069867574L657.235607106257,331.2438405539914L659.9726163616629,331.0806741129488L665.1707040361953,330.5744826502215L667.2307860852895,330.2013769378292L667.5313259260741,330.1561419231343L671.9911321902625,329.85055165436665L674.8127700223033,329.75037919300246L674.9188680577719,329.7398372397138L682.5645537539427,329.0270469851524L683.0720323167645,328.9608931739391L686.2660430127787,328.59626052034764L687.4459577642641,328.4930788187263L691.1840024053931,327.7625820091839L694.1784046621459,327.43419943487606L701.3505066615874,326.53206027997703L703.6262934076922,326.21657697274566L706.8824524828674,325.75248335752224L711.511128447347,325.0584906659328L712.2549137628075,324.95027910265696L713.6867969209086,324.7582195283044L718.324999976351,323.6976961498659L720.9716661877923,323.3425665907837L720.5908548526162,323.85219204618045L720.3978992394772,327.63731006164346L717.8972897715207,330.00164887668427L717.7396666923025,330.43262577793416L715.600426101134,328.81128520094353L716.8924238398347,326.596784845279L716.3096836164436,326.0169544819088M682.5645537539427,329.0270469851524L682.7704363782672,330.4689236638801L681.5473995776297,331.53955209496496L682.2635099446229,334.90084204526806L681.7821810620646,336.24967738119483L680.8936584589633,337.37054135105143L678.1299946641819,335.676079819146L676.5764952834037,333.9552687264163L677.1427696437186,333.42347232251564L675.7768819665048,331.1298569160408M694.1784046621459,327.43419943487606L695.4234122745066,328.4629098284157L695.8899033042139,330.7075216863457L695.0642506326358,331.5529910073817L691.92028916433,332.53989553785516L690.9480050928129,332.6531545906611L689.6577108933072,331.09553749356974L688.2173587902766,331.581776326001L686.2660430127787,328.59626052034764M703.6262934076922,326.21657697274566L701.0528244468014,327.14550325793414L697.5041965631696,330.84358946246505L695.8899033042139,330.7075216863457M688.2173587902766,331.581776326001L687.1147755510984,334.56516194672236L686.1899115282306,335.4894902123759L683.8701553603269,335.45774285627044L683.8247659966786,336.74188376343045L681.7821810620646,336.24967738119483M706.259566686062,328.93136851832196L705.9929403898509,329.3749402075789L702.6741138690544,331.31753506206485L700.8223362508073,333.2923821908886L699.372116577981,331.52999598611984L698.1464382397642,332.7658089574636L697.5041965631696,330.84358946246505M676.5764952834037,333.9552687264163L674.1527041109895,335.95962735622584L673.9943117697364,338.33223623942024L671.1725820766432,338.99756227567514L670.8715705203105,338.91499820319575L671.309357122391,337.8902090596597L670.2853082313662,334.00341576957317M670.8715705203105,338.91499820319575L666.2239805207139,337.69434916387115L664.9647437855178,336.5936715777101L664.7548756811185,334.7025923224013M664.9647437855178,336.5936715777101L663.2910605634966,338.5141621700717L660.8709656644887,338.26105970313745L659.7833195343629,337.41161090338437L659.8127864048731,335.08033427886255M717.7396666923025,330.43262577793416L716.0038717090197,333.7813189366617L713.760780906223,333.088174597774L713.0495486755315,331.7388811168497L711.7562168729727,331.5531773394456L711.9661223148256,328.78678734302093M615.2241144138015,337.43387272991924L615.5101264546147,339.1610068429003L613.5241286067394,339.33233346255815L613.6403418886111,342.8480787645741L610.7691397771478,343.4013421794906L605.867872286194,343.5941998410658L607.4372468322516,339.7714539396719L607.5212558171922,337.99009629811474M619.8184280893317,337.1043291597166L620.1388649356211,343.68845498412145L617.8518842497964,345.5564749243284L615.5365096313171,344.5531042263592L613.6403418886111,342.8480787645741M627.8458236334893,339.11362836965725L626.3172730964151,339.25105932228666L626.6278380284249,341.10697446389906L624.9180087431898,343.9033423077202L624.8946815793992,343.4227030553179L620.1388649356211,343.68845498412145M657.5528430205221,335.0514491915966L655.4691831764828,337.7382749003243L653.197639911312,336.9927678932561M643.7888807758093,337.26205539850605L642.9862173538085,342.1528908357452L642.2946626248604,343.7876130545284L640.3786077052212,343.8868511346975L640.6276565430494,341.4139855112827L640.0238539662179,338.91876625196255L638.3582969072988,338.92033542664353M711.7562168729727,331.5531773394456L710.5881077223346,333.58962550891545L708.4078125203065,335.0168757154138L707.4942314493115,334.19019406078337L706.9821475309155,329.08084129962515L705.9929403898509,329.3749402075789M691.92028916433,332.53989553785516L691.3913490136283,336.02736940609543L688.2393859601192,336.01949469763747L687.1147755510984,334.56516194672236M660.8709656644887,338.26105970313745L660.6810487626566,340.2999809605582L659.9090759929475,341.10075523363855L657.0158281237178,341.5530489200663L655.4691831764828,337.7382749003243M610.5329132371444,347.2950018362152L609.3223080910831,349.51984173150424L608.3955416534689,349.6886867618823L607.3380465876534,348.52137331233143L603.8453837099762,349.5572214285787L602.7951576008618,347.7856335164756L603.109632402642,346.20111147159355L604.328874144988,345.29740030357993L603.721472107258,344.2575270855931M698.1464382397642,332.7658089574636L697.0506134569225,332.7691529931002L695.2999603815206,335.322518732125L693.9379494221625,335.40854410564805L692.5585251491362,337.4723612701023L691.3913490136283,336.02736940609543M648.7749164063396,339.37999789327387L650.2134417934799,341.9747644501167L648.9214075620018,344.6093915728294L646.2889019771396,343.5849193227516L644.1472775088785,343.474197832747L642.7898929651221,344.8024864275196L642.2946626248604,343.7876130545284M708.4078125203065,335.0168757154138L708.4399964927113,336.08400193685634L707.866490725074,335.67239781855574L705.8670343182681,337.42095467118077L705.5139388322474,338.73991368993416L704.308622988975,338.4670825165348L699.7365076395313,334.6094434349104L700.8223362508073,333.2923821908886M680.8936584589633,337.37054135105143L682.631813701142,339.33199403240644L681.2250525938989,340.7021510024932L677.9146548673896,342.57293037742045L677.1234191504707,341.02590106418893L673.9943117697364,338.33223623942024M634.9693809213635,338.9858305878205L634.4427534849536,342.0002412221811L630.8846640563893,341.0479798147859L628.6407672785278,341.2707838243847L627.9954535472145,339.2330900417203M628.6407672785278,341.2707838243847L629.2396383625319,343.505234372185L628.1706391449146,346.9193547377407L629.4936746830214,347.05723502856495L629.0837225822154,348.8426394739739L629.005836821771,349.3267331263364L625.8621511377377,349.0196023454598L625.2706648550899,349.0530322538134L624.9180087431898,343.9033423077202M657.0158281237178,341.5530489200663L657.9353986094563,343.82524586680495L655.8898524009054,344.1646420559862L653.5011116312498,343.9530182758033L650.2134417934799,341.9747644501167M699.7365076395313,334.6094434349104L698.9635937999733,336.5349201342166L697.9525166833121,335.6608140914037L695.2999603815206,335.322518732125M640.3786077052212,343.8868511346975L640.2154738709979,345.6152965577867L635.2219424177156,345.4224136472312L634.4427534849536,342.0002412221811M671.1725820766432,338.99756227567514L669.0793037060935,339.9565312620023L669.0708557668071,342.262353815482L668.2869443996253,341.3556324188402L665.2200441641977,340.7431903081822L663.3406166504792,342.21927155850244L660.6810487626566,340.2999809605582M688.2393859601192,336.01949469763747L686.2614226822532,338.50120101992377L686.8539023967434,339.036723272466L684.9406829502425,340.0983844243765L683.9929597525129,341.79967443851365L682.631813701142,339.33199403240644M713.760780906223,333.088174597774L711.1109809416089,335.0774326094173L710.0519929909401,337.0386411465123L708.51464484302,337.45182418514696L708.4399964927113,336.08400193685634M635.2219424177156,345.4224136472312L632.802377759977,347.29900822737136L632.7619313077652,348.5667073333476L630.7905293651253,349.3980033150483L629.0837225822154,348.8426394739739M617.8518842497964,345.5564749243284L618.0303158044276,350.67849864339473L614.883892688539,350.7971281697828L611.9049246987944,349.7933662919726L610.5329132371444,347.2950018362152L610.7691397771478,343.4013421794906M698.9635937999733,336.5349201342166L698.3110349781978,340.22383691885796L695.8047378489798,340.0281750638592L692.5758983490955,338.2695657097629L692.5585251491362,337.4723612701023M692.5758983490955,338.2695657097629L693.0152807700201,339.47725052259216L691.1465436273402,341.3319379821372L690.376521333594,342.3058749409305L688.9204620269103,341.82682914502413L686.0910963423543,342.57754098990256L685.8082797193598,343.5689404309146L684.1464197900041,342.03158570931237L683.9929597525129,341.79967443851365M704.308622988975,338.4670825165348L703.7684085035808,341.4739381255797L702.0318785119114,341.7391450765458L699.5899827443187,343.4663411306926L698.3110349781978,340.22383691885796M677.9146548673896,342.57293037742045L676.5935357715641,344.3146126647856L674.7267363522237,345.7364065233477L669.6798435703877,346.2441682285896L669.6822293391434,346.21740889326895L669.3543929738357,345.86135228374246L669.3959559398086,345.7496684066524L669.9813590137976,343.4640498410241L669.0708557668071,342.262353815482M625.8621511377377,349.0196023454598L625.8856189892517,349.56617677247436L620.0326680595448,349.88545419577906L619.5314897282475,350.5937602948792L618.0303158044276,350.67849864339473M663.3406166504792,342.21927155850244L663.7258609757422,344.7018178898279L663.149997850522,345.7260469717455L660.1134905623001,345.893844832917L657.9353986094563,343.82524586680495M655.8898524009054,344.1646420559862L655.5734430509406,348.94524079584596L655.1434516053338,350.3511548713475L653.47765734387,349.98148469330295L652.7995224896956,350.83784568539716L650.9873017859212,349.70394824926416L649.1397788612494,349.9355196053252L648.3971966998317,349.55099381839466L649.3374952189617,347.9364744333267L648.9214075620018,344.6093915728294M669.6822293391434,346.21740889326895L669.3543929738357,345.86135228374246M669.3959559398086,345.7496684066524L666.906561970442,345.5458880131706L664.4129821587198,346.27525457674255L663.149997850522,345.7260469717455M648.3971966998317,349.55099381839466L646.9697140647078,349.75061085118796L640.238466172769,347.66895581730205L640.2154738709979,345.6152965577867M684.1464197900041,342.03158570931237L680.5479698219498,346.77473825099037L680.5479698219498,346.77473825099037L679.9422278464147,347.34044882143246L679.411149299885,347.4003665302073L679.2118168017429,346.1499441211113L677.6153285003062,345.5611968626737L676.5935357715641,344.3146126647856M699.5899827443187,343.4663411306926L699.6571759850101,343.8433698184904L696.3495649373215,346.8117035469071L693.875158756305,347.0194921552304L692.9506086549167,344.47887402286995L691.1465436273402,341.3319379821372M598.3266490445756,359.6411618215642L598.0137522069683,359.7580698137567L596.9329779141107,358.8659133633266L598.0478812773722,358.3069091132011L598.3266490445756,359.6411618215642L598.5126366323555,359.4915936851352L598.3562891560864,356.6559219713316L600.3311821315423,356.708033517673L599.5438430645304,355.82731172528906L601.003487739857,354.8755502998397L599.4248403074489,353.02436903804994L601.3639923047374,352.5170864309616L603.0770779436045,350.9791516259678L602.3618230714427,349.62535515250977L603.8453837099762,349.5572214285787M614.883892688539,350.7971281697828L613.4999669108969,353.27996009098854L612.7387437986403,352.93283153079096L609.6804066660966,351.981867522162L608.2696069795851,350.8949962828069L608.3955416534689,349.6886867618823M640.238466172769,347.66895581730205L640.1728804380123,350.0579960289001L638.7173225708921,351.432960674814L636.985740262799,352.4234938655445L635.0178830593215,351.8759138537455L634.0204906678639,352.79525677955587L632.6453939776375,351.8833096441863L632.7619313077652,348.5667073333476M660.1134905623001,345.893844832917L658.8332670642959,348.0211307184752L658.9755691004756,349.41788212585607L657.4503633251527,349.82974521508777L655.5734430509406,348.94524079584596M608.2696069795851,350.8949962828069L607.5858757075438,350.8452842747571L606.3875297247408,355.4979327901315L604.6478210939065,354.43007154019756L602.4526770694399,354.4503237065039L600.3311821315423,356.708033517673M689.6778049348595,349.56292054944333L688.9119410928121,350.7936318195307L689.0643028678139,352.9022073923596L687.7201356173941,354.0375907693423L686.3531231125557,353.7323732027154L685.3120704213582,354.99354525748015L682.0827527871406,353.89526696195014L683.4010998960241,352.8819554019665L683.1213695128074,351.62444588272524L680.9472940254872,347.91518369283483L680.9280242322164,347.711561894257L680.9472940254872,347.91518369283483M685.8082797193598,343.5689404309146L686.6083789419026,346.13745526377886L685.931464412384,347.24944961266294L684.3016542423361,346.61270124700127L681.790749647108,346.71231906233436L680.8617382268018,347.61356540458326L679.9422278464147,347.34044882143246M693.875158756305,347.0194921552304L692.2647106924439,347.37473130856154L689.803572686737,349.6081136441512L689.6778049348595,349.56292054944333L688.7965032026532,347.94766159302105L687.6854928935786,348.3819821938906L685.931464412384,347.24944961266294M664.4129821587198,346.27525457674255L664.900688704288,349.57809485455357L665.6290277156456,351.107780093982L664.8902039258269,351.21454280568344L660.8633539625065,351.7933719915991L658.9755691004756,349.41788212585607M646.9697140647078,349.75061085118796L646.4152111983008,352.75860570111524L644.8145889568655,355.44505282686316L642.3430340954359,354.9528961010734L641.0938230520766,355.489165872649L639.7532659486642,355.3944060447011L639.7145289444568,353.55428856683056L638.7173225708921,351.432960674814M629.005836821771,349.3267331263364L628.2618124441465,351.0210109443743L628.3477016134727,353.13882008473627L629.3929060977708,354.79472603249485L629.0684171300658,356.7387283305371L628.8693618419782,357.3435290185712L626.3073171736421,357.77706209389044L625.5562141483786,357.03345546027185L625.372419805943,355.05208890522465L626.035024253356,353.4804725954732L625.8856189892517,349.56617677247436M634.0204906678639,352.79525677955587L633.3340358973462,355.23901789458125L629.5337496918618,356.00978699611596L629.0684171300658,356.7387283305371M677.6153285003062,345.5611968626737L677.0099128650277,349.38630178203493L676.0890957805893,349.51545675864645L675.4012105889265,351.7729593021643L673.9986624383446,352.5060670249194L672.1121340509167,351.7886268464879L672.2835084584792,349.63356903606154L674.7267363522237,345.7364065233477M669.6798435703877,346.2441682285896L667.5611976932167,350.2404941582861L665.6290277156456,351.107780093982M625.5562141483786,357.03345546027185L623.7711415628619,357.2595958308302L623.6162799225691,355.8759678829516L621.4632976731591,355.6842257010409L619.7237363264223,354.38107077352004L619.5314897282475,350.5937602948792M612.7387437986403,352.93283153079096L612.9571121501749,357.85407095842686L611.4159675941212,358.61300831250685L607.0430474580294,358.8088323900628L606.3875297247408,355.4979327901315M619.7237363264223,354.38107077352004L618.9201383966135,356.32448210682367L616.5307092891725,357.6568837483626L612.9571121501749,357.85407095842686M672.1121340509167,351.7886268464879L670.9741886408661,353.8968974335562L668.0299975198542,351.61080970735566L667.5611976932167,350.2404941582861M679.411149299885,347.4003665302073L676.4688054886194,353.3411267111725L675.3136032233695,354.6615999254533L673.9986624383446,352.5060670249194M649.1397788612494,349.9355196053252L649.1720893084341,354.28028273610676L650.3382890349712,355.89381832157767L648.3273115555191,358.21294791049456L647.0817534753965,358.12970268477625L644.8145889568655,355.44505282686316M660.8633539625065,351.7933719915991L660.784492134253,356.2596556754381L656.9726383838681,355.25957810605064L655.471446982127,355.9692358608487L655.3731485491139,354.48384818003365L655.1434516053338,350.3511548713475M655.3731485491139,354.48384818003365L652.7563143776416,356.4888951049111L651.46258476703,355.97402568179314L650.3382890349712,355.89381832157767M680.9280242322164,347.711561894257L680.8617382268018,347.61356540458326M639.7532659486642,355.3944060447011L637.4186653163438,355.3589705000155L635.6096794354297,356.64475792570806L633.3340358973462,355.23901789458125M607.0430474580294,358.8088323900628L604.6839804475087,359.4853833973174L598.5126366323555,359.4915936851352M682.0827527871406,353.89526696195014L679.0587453711053,355.10265627024853L676.4688054886194,353.3411267111725M623.7711415628619,357.2595958308302L623.7957030937994,357.96934599807116L620.1793896916408,358.3483214225431L618.6205610670597,360.90386235680876L617.6844192711657,360.9743872122481L616.5307092891725,357.6568837483626M670.9741886408661,353.8968974335562L668.9908015661117,358.0436838042484L667.7249566360153,355.9074986251047L666.0596829405899,355.11061448209955L666.9723353143659,353.35810125341106L664.8902039258269,351.21454280568344M666.0596829405899,355.11061448209955L663.85216014667,355.9234394975813L663.5438634326794,357.35747127182583L661.5250820044038,357.42114068206615L660.784492134253,356.2596556754381M635.6096794354297,356.64475792570806L635.7856910256812,364.0986533419782L630.0815162539492,364.5455335032975L629.6705106082076,359.1040013371088L628.8693618419782,357.3435290185712M641.0938230520766,355.489165872649L641.5831852845752,363.65081144474425L635.7856910256812,364.0986533419782M675.3136032233695,354.6615999254533L674.4647711512708,357.7941270816549L675.4661226654407,360.3311125512488L671.1658106487895,360.875323967644L669.6760294471618,361.0760963892652L668.0261487245182,361.2666388791371L669.2407330361967,360.0284974613178L668.9908015661117,358.0436838042484M647.0817534753965,358.12970268477625L647.4665595293932,363.2351420396326L641.7844156505141,363.6392760523222L641.5831852845752,363.65081144474425M604.6839804475087,359.4853833973174L604.9953166777494,366.6476003919596L603.7844724850885,366.73730386042405L594.9319323773258,367.2791070056318L596.3535481788668,366.61948504022564L596.8766507065109,364.83790132140257L598.4360349308488,364.342880930565L598.2362581556271,362.8001456518001L597.0107140096723,362.2404745987252L598.0137522069683,359.7580698137567M617.6844192711657,360.9743872122481L617.9745764849174,365.72054057895514L617.4262562026285,365.7621306696401L614.4838879756938,365.9867892412617L611.7476370242942,366.19367424236873L611.4159675941212,358.61300831250685M630.0815162539492,364.5455335032975L626.8425749862996,365.0115722887532L624.3791705063921,365.2151094641399L624.1130060801067,365.2334727398777L623.7957030937994,357.96934599807116M655.471446982127,355.9692358608487L655.0148252012938,359.92413456220515L653.6952948074091,358.0100787451272L651.5222777019346,356.7887951570232L651.46258476703,355.97402568179314M611.7476370242942,366.19367424236873L609.4131831510962,366.37128910977015L604.9953166777494,366.6476003919596M624.1130060801067,365.2334727398777L617.9745764849174,365.72054057895514M655.0148252012938,359.92413456220515L655.2699156602505,362.4731787986136L648.2468416927554,363.15843909819375L647.4665595293932,363.2351420396326M661.5250820044038,357.42114068206615L662.1368227931629,361.8095947780323L655.4000157444078,362.4608914669791L655.2699156602505,362.4731787986136M679.0587453711053,355.10265627024853L679.2745316445516,356.40575022320786L678.5372776904962,359.96599825013607L677.9917419736385,360.0357120830039L675.4661226654407,360.3311125512488M668.0261487245182,361.2666388791371L666.0472995461677,361.4547777102771L662.1368227931629,361.8095947780323M685.3120704213582,354.99354525748015L685.3740591099607,359.1280875823852L680.8612613565779,359.6812216016234L678.5372776904962,359.96599825013607" vector-effect="non-scaling-stroke"></path></svg>