<svg xmlns="http://www.w3.org/2000/svg" version="1.2" id="root" viewBox="341.09083211122584 337.62702497928353 207.30409704303338 203.2467494374796"><g id="counties"><path id="county-48421" class="county feature" d="M424.588 347.407l-8.055-.498.555-8.372 1.923.12 6.061.391z" vector-effect="non-scaling-stroke" fill="inherit" stroke="inherit" stroke-width="inherit"><title>Sherman County</title></path><path id="county-48195" class="county feature" d="M432.625 347.819l-.002.043-8.035-.455.484-8.359 8.004.456z" vector-effect="non-scaling-stroke" fill="inherit" stroke="inherit" stroke-width="inherit"><title>Hansford County</title></path><path id="county-48111" class="county feature" d="M404.623 337.671l12.465.866-.555 8.372-13.1-.912.605-8.37z" vector-effect="non-scaling-stroke" fill="inherit" stroke="inherit" stroke-width="inherit"><title>Dallam County</title></path><path id="county-48357" class="county feature" d="M441.083 339.91l-.41 8.337-8.048-.428.451-8.315 1.946.096z" vector-effect="non-scaling-stroke" fill="inherit" stroke="inherit" stroke-width="inherit"><title>Ochiltree County</title></path><path id="county-48295" class="county feature" d="M448.836 348.63l-8.067-.377-.096-.006.41-8.338 8.051.356z" vector-effect="non-scaling-stroke" fill="inherit" stroke="inherit" stroke-width="inherit"><title>Lipscomb County</title></path><path id="county-48393" class="county feature" d="M440.673 348.247l.096.006-.388 8.229-8.203-.412.006-.115.44-8.093.001-.043z" vector-effect="non-scaling-stroke" fill="inherit" stroke="inherit" stroke-width="inherit"><title>Roberts County</title></path><path id="county-48211" class="county feature" d="M440.77 348.253l8.066.378-.14 3.298-.207 4.921-8.108-.368z" vector-effect="non-scaling-stroke" fill="inherit" stroke="inherit" stroke-width="inherit"><title>Hemphill County</title></path><path id="county-48233" class="county feature" d="M424.588 347.407l8.035.455-.439 8.093-8.066-.433z" vector-effect="non-scaling-stroke" fill="inherit" stroke="inherit" stroke-width="inherit"><title>Hutchinson County</title></path><path id="county-48205" class="county feature" d="M416.533 346.909l-.517 8.044-13.198-.82.168-2.199.446-5.937z" vector-effect="non-scaling-stroke" fill="inherit" stroke="inherit" stroke-width="inherit"><title>Hartley County</title></path><path id="county-48341" class="county feature" d="M424.588 347.407l-.47 8.115-.004.073-8.107-.5.01-.142.516-8.044z" vector-effect="non-scaling-stroke" fill="inherit" stroke="inherit" stroke-width="inherit"><title>Moore County</title></path><path id="county-48359" class="county feature" d="M416.016 354.953l-.009.142-.603 8.207-13.215-.918.629-8.251z" vector-effect="non-scaling-stroke" fill="inherit" stroke="inherit" stroke-width="inherit"><title>Oldham County</title></path><path id="county-48065" class="county feature" d="M432.184 355.955l-.006.115-.451 8.22-8.1-.476.487-8.219.004-.073z" vector-effect="non-scaling-stroke" fill="inherit" stroke="inherit" stroke-width="inherit"><title>Carson County</title></path><path id="county-48179" class="county feature" d="M440.381 356.482l-.376 8.213-8.278-.404.451-8.22z" vector-effect="non-scaling-stroke" fill="inherit" stroke="inherit" stroke-width="inherit"><title>Gray County</title></path><path id="county-48483" class="county feature" d="M448.49 356.85l-.157 3.705-.19 4.51-8.138-.37.376-8.213z" vector-effect="non-scaling-stroke" fill="inherit" stroke="inherit" stroke-width="inherit"><title>Wheeler County</title></path><path id="county-48375" class="county feature" d="M424.114 355.595l-.487 8.22-8.223-.513.603-8.207z" vector-effect="non-scaling-stroke" fill="inherit" stroke="inherit" stroke-width="inherit"><title>Potter County</title></path><path id="county-48117" class="county feature" d="M415.404 363.302l-.554 8.19-5.413-.353-7.856-.57.289-3.883.319-4.302z" vector-effect="non-scaling-stroke" fill="inherit" stroke="inherit" stroke-width="inherit"><title>Deaf Smith County</title></path><path id="county-48129" class="county feature" d="M440.005 364.695l-.419 8.186-6.147-.317-2.21-.117.498-8.156z" vector-effect="non-scaling-stroke" fill="inherit" stroke="inherit" stroke-width="inherit"><title>Donley County</title></path><path id="county-48087" class="county feature" d="M448.143 365.065l-.12 2.849-.225 5.36-6.313-.3-1.899-.093.419-8.186z" vector-effect="non-scaling-stroke" fill="inherit" stroke="inherit" stroke-width="inherit"><title>Collingsworth County</title></path><path id="county-48381" class="county feature" d="M423.627 363.814l-.583 8.182-5.604-.352-2.59-.152.554-8.19z" vector-effect="non-scaling-stroke" fill="inherit" stroke="inherit" stroke-width="inherit"><title>Randall County</title></path><path id="county-48011" class="county feature" d="M431.727 364.29l-.497 8.157-5.787-.307-2.4-.144.584-8.182z" vector-effect="non-scaling-stroke" fill="inherit" stroke="inherit" stroke-width="inherit"><title>Armstrong County</title></path><path id="county-48437" class="county feature" d="M423.044 371.996l2.399.144-.472 8.179-1.425-.086-6.617-.414.51-8.175z" vector-effect="non-scaling-stroke" fill="inherit" stroke="inherit" stroke-width="inherit"><title>Swisher County</title></path><path id="county-48045" class="county feature" d="M431.23 372.447l2.209.117-.443 8.187-1.454-.07-6.57-.362.47-8.179z" vector-effect="non-scaling-stroke" fill="inherit" stroke="inherit" stroke-width="inherit"><title>Briscoe County</title></path><path id="county-48069" class="county feature" d="M417.44 371.644l-.511 8.175-1.415-.091-6.643-.44.566-8.15 5.413.354z" vector-effect="non-scaling-stroke" fill="inherit" stroke="inherit" stroke-width="inherit"><title>Castro County</title></path><path id="county-48191" class="county feature" d="M439.586 372.88l1.899.094-.407 8.16-1.525-.08-6.557-.303.443-8.187z" vector-effect="non-scaling-stroke" fill="inherit" stroke="inherit" stroke-width="inherit"><title>Hall County</title></path><path id="county-48075" class="county feature" d="M447.798 373.274l-.104 3.499-.197 4.678-6.419-.317.407-8.16z" vector-effect="non-scaling-stroke" fill="inherit" stroke="inherit" stroke-width="inherit"><title>Childress County</title></path><path id="county-48369" class="county feature" d="M409.437 371.139l-.566 8.15-1.37-.092-6.547-.47.627-8.158z" vector-effect="non-scaling-stroke" fill="inherit" stroke="inherit" stroke-width="inherit"><title>Parmer County</title></path><path id="county-48197" class="county feature" d="M450.005 377.893l2.168 2.495 1.782-.659 1.592.455-.22 5.836-4.632-.383-3.267-2.54.07-1.646.196-4.678 1.143-.216z" vector-effect="non-scaling-stroke" fill="inherit" stroke="inherit" stroke-width="inherit"><title>Hardeman County</title></path><path id="county-48487" class="county feature" d="M459.545 381.438l.268 2.323 3.611.144-.232 7.12-8.043-.273.179-4.732.219-5.836 1.16.407.379-1.532z" vector-effect="non-scaling-stroke" fill="inherit" stroke="inherit" stroke-width="inherit"><title>Wilbarger County</title></path><path id="county-48345" class="county feature" d="M439.553 381.054l-.45 8.99-8.033-.365.472-8.998 1.454.07z" vector-effect="non-scaling-stroke" fill="inherit" stroke="inherit" stroke-width="inherit"><title>Motley County</title></path><path id="county-48101" class="county feature" d="M441.078 381.134l6.42.317-.07 1.647-.754-.134-.337 7.4-7.234-.32.45-8.99z" vector-effect="non-scaling-stroke" fill="inherit" stroke="inherit" stroke-width="inherit"><title>Cottle County</title></path><path id="county-48153" class="county feature" d="M431.542 380.68l-.472 8.999-8.039-.39.515-9.056 1.425.086z" vector-effect="non-scaling-stroke" fill="inherit" stroke="inherit" stroke-width="inherit"><title>Floyd County</title></path><path id="county-48189" class="county feature" d="M415.514 379.728l1.415.091 6.617.414-.515 9.056-8.028-.383z" vector-effect="non-scaling-stroke" fill="inherit" stroke="inherit" stroke-width="inherit"><title>Hale County</title></path><path id="county-48279" class="county feature" d="M415.514 379.728l-.511 9.178-8.14-.554.638-9.155 1.37.091z" vector-effect="non-scaling-stroke" fill="inherit" stroke="inherit" stroke-width="inherit"><title>Lamb County</title></path><path id="county-48017" class="county feature" d="M407.501 379.197l-.638 9.155-6.638-.478.715-8.956.014-.19z" vector-effect="non-scaling-stroke" fill="inherit" stroke="inherit" stroke-width="inherit"><title>Bailey County</title></path><path id="county-48155" class="county feature" d="M447.428 383.098l3.267 2.54 4.633.382-.179 4.732-.047 1.883-1.226-1.26-2.14-.597-4.599-.38-.8-.033.337-7.401z" vector-effect="non-scaling-stroke" fill="inherit" stroke="inherit" stroke-width="inherit"><title>Foard County</title></path><path id="county-48485" class="county feature" d="M468.64 385.1l1.852 1.824.974-.35-.118 4.642-8.156-.192.232-7.119 2.823 1.517z" vector-effect="non-scaling-stroke" fill="inherit" stroke="inherit" stroke-width="inherit"><title>Wichita County</title></path><path id="county-48077" class="county feature" d="M475.876 385.542l.784 2.67 2.101.28-.54 1.869-.177 7.951-6.84-.153.144-6.943.118-4.643.944-1.375 2.969.88z" vector-effect="non-scaling-stroke" fill="inherit" stroke="inherit" stroke-width="inherit"><title>Clay County</title></path><path id="county-48337" class="county feature" d="M484.635 390.29l1.197-.274-.186 9.061-6.671-.12-.931-.645.176-7.951 1.658.8 2.842-2.544z" vector-effect="non-scaling-stroke" fill="inherit" stroke="inherit" stroke-width="inherit"><title>Montague County</title></path><path id="county-48387" class="county feature" d="M521.644 389.742l2.874 1.381 1.69 2.2 1.295-.379.496 1.125.082 7.032-.97-.641-1.242-.637-3.667.206-2.8.236-.034-.049-.112-9.355 1.407-1.597z" vector-effect="non-scaling-stroke" fill="inherit" stroke="inherit" stroke-width="inherit"><title>Red River County</title></path><path id="county-48181" class="county feature" d="M499.604 390.555l-.614.945 3.128 1.292.693.961-.108 6.168-6.963-.19-1.693-.22.083-10.018.156-.098.998 1.878 1.478.405 1.823-1.485z" vector-effect="non-scaling-stroke" fill="inherit" stroke="inherit" stroke-width="inherit"><title>Grayson County</title></path><path id="county-48097" class="county feature" d="M494.13 389.493l-.083 10.018-6.797-.348-1.604-.086.186-9.06.315 1.42 1.37.414.99-1.29 1.898-.217-.3 1.886 1.481 1.523.198-1.37z" vector-effect="non-scaling-stroke" fill="inherit" stroke="inherit" stroke-width="inherit"><title>Cooke County</title></path><path id="county-48277" class="county feature" d="M519.256 390.86l.112 9.356-2.87-1.389-4.145-.734-1.498.637.166-7.114 1.33-.64 2.47-1.27.739.976z" vector-effect="non-scaling-stroke" fill="inherit" stroke="inherit" stroke-width="inherit"><title>Lamar County</title></path><path id="county-48147" class="county feature" d="M511.021 391.616l-.166 7.114-.01.976-6.76 1.083-1.382-.868.108-6.168 3.09-.649 1.385-1.815 2.364-.57z" vector-effect="non-scaling-stroke" fill="inherit" stroke="inherit" stroke-width="inherit"><title>Fannin County</title></path><path id="county-48269" class="county feature" d="M446.337 390.365l.8.034-.258 8.245-8.145-.374.37-8.225z" vector-effect="non-scaling-stroke" fill="inherit" stroke="inherit" stroke-width="inherit"><title>King County</title></path><path id="county-48275" class="county feature" d="M455.102 392.635l-.202 6.295-8.02-.286.257-8.245 4.598.379 2.14.596z" vector-effect="non-scaling-stroke" fill="inherit" stroke="inherit" stroke-width="inherit"><title>Knox County</title></path><path id="county-48009" class="county feature" d="M471.348 391.216l-.144 6.943-.023 1.327-8.255-.259.266-8.203z" vector-effect="non-scaling-stroke" fill="inherit" stroke="inherit" stroke-width="inherit"><title>Archer County</title></path><path id="county-48125" class="county feature" d="M439.103 390.045l-.369 8.225-8.072-.393.408-8.198z" vector-effect="non-scaling-stroke" fill="inherit" stroke="inherit" stroke-width="inherit"><title>Dickens County</title></path><path id="county-48107" class="county feature" d="M431.07 389.679l-.408 8.198-8.005-.4.374-8.188z" vector-effect="non-scaling-stroke" fill="inherit" stroke="inherit" stroke-width="inherit"><title>Crosby County</title></path><path id="county-48023" class="county feature" d="M463.192 391.024l-.266 8.203-8.026-.297.202-6.295.047-1.883z" vector-effect="non-scaling-stroke" fill="inherit" stroke="inherit" stroke-width="inherit"><title>Baylor County</title></path><path id="county-48303" class="county feature" d="M423.031 389.29l-.374 8.187-8.028-.395.374-8.176z" vector-effect="non-scaling-stroke" fill="inherit" stroke="inherit" stroke-width="inherit"><title>Lubbock County</title></path><path id="county-48079" class="county feature" d="M406.863 388.352l-.255 8.215-7.136-.513.32-3.411.433-4.769z" vector-effect="non-scaling-stroke" fill="inherit" stroke="inherit" stroke-width="inherit"><title>Cochran County</title></path><path id="county-48219" class="county feature" d="M415.003 388.906l-.374 8.176-8.021-.515.255-8.215z" vector-effect="non-scaling-stroke" fill="inherit" stroke="inherit" stroke-width="inherit"><title>Hockley County</title></path><path id="county-48037" class="county feature" d="M532.032 395.233l1.559 1.72 3.522-.907 1.783.673.109 5.282-1.907-.725-1.066 1.355-3.574-.913-2.893.493-1.484-1.11-.082-7.032z" vector-effect="non-scaling-stroke" fill="inherit" stroke="inherit" stroke-width="inherit"><title>Bowie County</title></path><path id="county-48119" class="county feature" d="M519.368 400.216l.034.049-.033.056-4.74.589-2.211.916-1.612 1.462.04-3.582.009-.976 1.498-.637 4.145.734z" vector-effect="non-scaling-stroke" fill="inherit" stroke="inherit" stroke-width="inherit"><title>Delta County</title></path><path id="county-48237" class="county feature" d="M478.044 398.312l.93.645-.22 8.128-2.093-.083-5.76-.221.28-7.295.023-1.327z" vector-effect="non-scaling-stroke" fill="inherit" stroke="inherit" stroke-width="inherit"><title>Jack County</title></path><path id="county-48497" class="county feature" d="M485.646 399.077l1.604.086-.355 8.273-2.272-.11-5.868-.241.22-8.128z" vector-effect="non-scaling-stroke" fill="inherit" stroke="inherit" stroke-width="inherit"><title>Wise County</title></path><path id="county-48121" class="county feature" d="M495.74 399.732l-.22 7.855-2.928.026-5.697-.177.355-8.273 6.797.348z" vector-effect="non-scaling-stroke" fill="inherit" stroke="inherit" stroke-width="inherit"><title>Denton County</title></path><path id="county-48231" class="county feature" d="M510.801 407.793l-1.29-.004-.643 2.002.818.68-2.223-.024-3.442-.068.014-2.63.05-6.96 6.76-1.083-.039 3.582z" vector-effect="non-scaling-stroke" fill="inherit" stroke="inherit" stroke-width="inherit"><title>Hunt County</title></path><path id="county-48085" class="county feature" d="M502.703 399.921l1.381.868-.05 6.96-3.419-.028-5.094-.134.22-7.855z" vector-effect="non-scaling-stroke" fill="inherit" stroke="inherit" stroke-width="inherit"><title>Collin County</title></path><path id="county-48263" class="county feature" d="M438.734 398.27l-.422 8.165-2.12-.112-5.944-.432.414-8.014z" vector-effect="non-scaling-stroke" fill="inherit" stroke="inherit" stroke-width="inherit"><title>Kent County</title></path><path id="county-48433" class="county feature" d="M446.88 398.644l-.312 8.214-2.418-.101-5.838-.322.422-8.165z" vector-effect="non-scaling-stroke" fill="inherit" stroke="inherit" stroke-width="inherit"><title>Stonewall County</title></path><path id="county-48449" class="county feature" d="M527.11 400.46l-.077 7.158-1.644-1.57-3.131.65-.056-6.669 3.667-.206z" vector-effect="non-scaling-stroke" fill="inherit" stroke="inherit" stroke-width="inherit"><title>Titus County</title></path><path id="county-48169" class="county feature" d="M430.662 397.877l-.414 8.014-2.11.013-5.968-.29.487-8.137z" vector-effect="non-scaling-stroke" fill="inherit" stroke="inherit" stroke-width="inherit"><title>Garza County</title></path><path id="county-48447" class="county feature" d="M462.926 399.227l-.213 8.281-2.257-.074-5.837-.202.281-8.302z" vector-effect="non-scaling-stroke" fill="inherit" stroke="inherit" stroke-width="inherit"><title>Throckmorton County</title></path><path id="county-48503" class="county feature" d="M471.181 399.486l-.28 7.295-.038 1.044-2.307-.098-5.843-.219.213-8.28z" vector-effect="non-scaling-stroke" fill="inherit" stroke="inherit" stroke-width="inherit"><title>Young County</title></path><path id="county-48207" class="county feature" d="M454.9 398.93l-.281 8.302-2.2-.081-5.851-.293.311-8.214z" vector-effect="non-scaling-stroke" fill="inherit" stroke="inherit" stroke-width="inherit"><title>Haskell County</title></path><path id="county-48305" class="county feature" d="M422.657 397.477l-.487 8.138-2.08-.138-5.983-.332.522-8.063z" vector-effect="non-scaling-stroke" fill="inherit" stroke="inherit" stroke-width="inherit"><title>Lynn County</title></path><path id="county-48501" class="county feature" d="M406.608 396.567l-.56 8.058-7.297-.53.721-8.04z" vector-effect="non-scaling-stroke" fill="inherit" stroke="inherit" stroke-width="inherit"><title>Yoakum County</title></path><path id="county-48445" class="county feature" d="M414.629 397.082l-.522 8.063-2.059-.118-6-.402.56-8.058z" vector-effect="non-scaling-stroke" fill="inherit" stroke="inherit" stroke-width="inherit"><title>Terry County</title></path><path id="county-48159" class="county feature" d="M522.202 400.03l.056 6.669-.404.4-.327.973-2.107.004-.05-7.755.032-.056z" vector-effect="non-scaling-stroke" fill="inherit" stroke="inherit" stroke-width="inherit"><title>Franklin County</title></path><path id="county-48223" class="county feature" d="M519.37 400.321l.05 7.755-5.55.07-3.069-.353.005-4.505 1.612-1.462 2.211-.916z" vector-effect="non-scaling-stroke" fill="inherit" stroke="inherit" stroke-width="inherit"><title>Hopkins County</title></path><path id="county-48343" class="county feature" d="M528.081 401.1l1.484 1.11.076 7.317-.81.018-.225-.473-1.573-1.454.077-7.158z" vector-effect="non-scaling-stroke" fill="inherit" stroke="inherit" stroke-width="inherit"><title>Morris County</title></path><path id="county-48067" class="county feature" d="M539.005 402.001l.098 4.736.053 2.595-9.515.195-.076-7.316 2.893-.493 3.574.913 1.066-1.355z" vector-effect="non-scaling-stroke" fill="inherit" stroke="inherit" stroke-width="inherit"><title>Cass County</title></path><path id="county-48063" class="county feature" d="M527.033 407.618l1.573 1.454-6.734.113-.018-2.086.404-.4 3.13-.651z" vector-effect="non-scaling-stroke" fill="inherit" stroke="inherit" stroke-width="inherit"><title>Camp County</title></path><path id="county-48499" class="county feature" d="M521.872 409.185l.04 6.243-5.037-.71-1.882-1.44-.641-.622-.482-4.51 5.55-.07 2.107-.004.327-.973z" vector-effect="non-scaling-stroke" fill="inherit" stroke="inherit" stroke-width="inherit"><title>Wood County</title></path><path id="county-48363" class="county feature" d="M476.661 407.002l-.349 8.347-.042.886-6.371-.18-1.578-.082.235-8.246 2.307.098.037-1.044z" vector-effect="non-scaling-stroke" fill="inherit" stroke="inherit" stroke-width="inherit"><title>Palo Pinto County</title></path><path id="county-48367" class="county feature" d="M484.623 407.327l-.23 8.239-1.044-.018-7.037-.2.35-8.346 2.093.083z" vector-effect="non-scaling-stroke" fill="inherit" stroke="inherit" stroke-width="inherit"><title>Parker County</title></path><path id="county-48439" class="county feature" d="M484.623 407.327l2.272.109 5.697.177-.184 8.19-.764-.024-7.25-.213z" vector-effect="non-scaling-stroke" fill="inherit" stroke="inherit" stroke-width="inherit"><title>Tarrant County</title></path><path id="county-48113" class="county feature" d="M495.52 407.587l5.095.134-.056 3.171-.196 5.04-7.955-.129.184-8.19z" vector-effect="non-scaling-stroke" fill="inherit" stroke="inherit" stroke-width="inherit"><title>Dallas County</title></path><path id="county-48397" class="county feature" d="M504.035 407.748l-.014 2.631-.002.517-3.46-.004.056-3.17z" vector-effect="non-scaling-stroke" fill="inherit" stroke="inherit" stroke-width="inherit"><title>Rockwall County</title></path><path id="county-48379" class="county feature" d="M513.87 408.146l.482 4.51-3.36-.94-1.306-1.246-.818-.679.643-2.002 1.29.004z" vector-effect="non-scaling-stroke" fill="inherit" stroke="inherit" stroke-width="inherit"><title>Rains County</title></path><path id="county-48415" class="county feature" d="M436.191 406.323l-.481 8.217-8.03-.46.458-8.176 2.11-.013z" vector-effect="non-scaling-stroke" fill="inherit" stroke="inherit" stroke-width="inherit"><title>Scurry County</title></path><path id="county-48151" class="county feature" d="M438.312 406.435l5.838.322-.397 8.203-8.043-.42.481-8.217z" vector-effect="non-scaling-stroke" fill="inherit" stroke="inherit" stroke-width="inherit"><title>Fisher County</title></path><path id="county-48033" class="county feature" d="M428.138 405.904l-.457 8.175-.004.069-8.033-.482.446-8.189 2.08.138z" vector-effect="non-scaling-stroke" fill="inherit" stroke="inherit" stroke-width="inherit"><title>Borden County</title></path><path id="county-48115" class="county feature" d="M420.09 405.477l-.446 8.19-8.035-.467.44-8.173 2.058.118z" vector-effect="non-scaling-stroke" fill="inherit" stroke="inherit" stroke-width="inherit"><title>Dawson County</title></path><path id="county-48165" class="county feature" d="M406.048 404.625l6 .402-.439 8.173-.134-.008-13.334-.914.61-8.183z" vector-effect="non-scaling-stroke" fill="inherit" stroke="inherit" stroke-width="inherit"><title>Gaines County</title></path><path id="county-48253" class="county feature" d="M446.568 406.858l5.85.293-.316 8.304-.263-.01-8.086-.485.397-8.203z" vector-effect="non-scaling-stroke" fill="inherit" stroke="inherit" stroke-width="inherit"><title>Jones County</title></path><path id="county-48417" class="county feature" d="M460.456 407.434l-.27 8.304-.292-.01-7.792-.273.316-8.304 2.201.08z" vector-effect="non-scaling-stroke" fill="inherit" stroke="inherit" stroke-width="inherit"><title>Shackelford County</title></path><path id="county-48429" class="county feature" d="M468.556 407.727l-.235 8.246-8.135-.235.27-8.304 2.257.074z" vector-effect="non-scaling-stroke" fill="inherit" stroke="inherit" stroke-width="inherit"><title>Stephens County</title></path><path id="county-48459" class="county feature" d="M528.606 409.072l.224.473.084 1.616.041 2.64-4.437 2.217-2.607-.59-.039-6.243z" vector-effect="non-scaling-stroke" fill="inherit" stroke="inherit" stroke-width="inherit"><title>Upshur County</title></path><path id="county-48315" class="county feature" d="M539.156 409.332l.073 3.532-1.582-.877-.471.888-1.695-.984-1.585 1.074-1.917.019-3.065-1.823-.084-1.616.811-.018z" vector-effect="non-scaling-stroke" fill="inherit" stroke="inherit" stroke-width="inherit"><title>Marion County</title></path><path id="county-48257" class="county feature" d="M507.463 410.447l.004 9.032-5.902-.036-1.202-3.512.196-5.039 3.46.004.002-.517z" vector-effect="non-scaling-stroke" fill="inherit" stroke="inherit" stroke-width="inherit"><title>Kaufman County</title></path><path id="county-48467" class="county feature" d="M509.686 410.47l1.306 1.246 3.36.94.641.622.023 3.89 2.285 2.331-9.834-.02-.004-9.032z" vector-effect="non-scaling-stroke" fill="inherit" stroke="inherit" stroke-width="inherit"><title>Van Zandt County</title></path><path id="county-48203" class="county feature" d="M539.229 412.864l.116 5.647-4.747 1.244-2.284-1.155-1.379.02-1.926-.509-.054-4.31-.041-2.64 3.065 1.823 1.917-.02 1.585-1.073 1.695.984.47-.888z" vector-effect="non-scaling-stroke" fill="inherit" stroke="inherit" stroke-width="inherit"><title>Harrison County</title></path><path id="county-48423" class="county feature" d="M521.911 415.428l2.607.59.062 3.127.046 4.372-7.465.105-.467-1.813.607-2.31-2.285-2.33-.023-3.891 1.882 1.44z" vector-effect="non-scaling-stroke" fill="inherit" stroke="inherit" stroke-width="inherit"><title>Smith County</title></path><path id="county-48183" class="county feature" d="M528.955 413.801l.054 4.31 1.926.51-.973.452-5.382.072-.062-3.127z" vector-effect="non-scaling-stroke" fill="inherit" stroke="inherit" stroke-width="inherit"><title>Gregg County</title></path><path id="county-48221" class="county feature" d="M483.349 415.548l-.042 4.448h-2.643l-2.578 1.5-1.816-5.261.042-.886z" vector-effect="non-scaling-stroke" fill="inherit" stroke="inherit" stroke-width="inherit"><title>Hood County</title></path><path id="county-48251" class="county feature" d="M491.644 415.779l-.044 5.332-6.155 1.645-.616.739-1.559-1.34.037-2.16.042-4.447 1.044.018z" vector-effect="non-scaling-stroke" fill="inherit" stroke="inherit" stroke-width="inherit"><title>Johnson County</title></path><path id="county-48139" class="county feature" d="M492.408 415.803l7.955.128 1.202 3.512 1.085.564-8.101 4.73-.705.403-2.244-4.03.044-5.331z" vector-effect="non-scaling-stroke" fill="inherit" stroke="inherit" stroke-width="inherit"><title>Ellis County</title></path><path id="county-48227" class="county feature" d="M427.677 414.148l-.593 8.18-1.264-.067-6.77-.399.594-8.196z" vector-effect="non-scaling-stroke" fill="inherit" stroke="inherit" stroke-width="inherit"><title>Howard County</title></path><path id="county-48335" class="county feature" d="M435.71 414.54l-.473 8.246-2.46-.145-5.693-.313.593-8.18.004-.069z" vector-effect="non-scaling-stroke" fill="inherit" stroke="inherit" stroke-width="inherit"><title>Mitchell County</title></path><path id="county-48353" class="county feature" d="M443.753 414.96l-.446 8.252-1.31-.053-6.76-.373.473-8.246z" vector-effect="non-scaling-stroke" fill="inherit" stroke="inherit" stroke-width="inherit"><title>Nolan County</title></path><path id="county-48317" class="county feature" d="M419.644 413.666l-.593 8.196-1.276-.065-6.835-.43.535-8.175.134.008z" vector-effect="non-scaling-stroke" fill="inherit" stroke="inherit" stroke-width="inherit"><title>Martin County</title></path><path id="county-48003" class="county feature" d="M411.475 413.192l-.535 8.176-1.19-.083-8.046-.531-4.164-.329.601-8.147z" vector-effect="non-scaling-stroke" fill="inherit" stroke="inherit" stroke-width="inherit"><title>Andrews County</title></path><path id="county-48441" class="county feature" d="M451.839 415.445l-.345 8.13-1.298-.067-6.889-.296.446-8.252z" vector-effect="non-scaling-stroke" fill="inherit" stroke="inherit" stroke-width="inherit"><title>Taylor County</title></path><path id="county-48133" class="county feature" d="M468.321 415.973l1.578.082-.093 4.016-1.22.676-5.967 3.272-3.055-.128.33-8.164.292.01z" vector-effect="non-scaling-stroke" fill="inherit" stroke="inherit" stroke-width="inherit"><title>Eastland County</title></path><path id="county-48143" class="county feature" d="M469.899 416.055l6.371.18 1.816 5.261 1.215 2.768-2.243 1.259-3.238 1.811-.646-1.19-1.223.699-3.365-6.096 1.22-.676z" vector-effect="non-scaling-stroke" fill="inherit" stroke="inherit" stroke-width="inherit"><title>Erath County</title></path><path id="county-48059" class="county feature" d="M459.894 415.727l-.33 8.164-1.215-.033-6.855-.284.345-8.13.263.01z" vector-effect="non-scaling-stroke" fill="inherit" stroke="inherit" stroke-width="inherit"><title>Callahan County</title></path><path id="county-48401" class="county feature" d="M532.314 418.6l-1.336 3.647-.247 4.284 1.397-.036.968 2.418-7.652.081-.754-.003-.064-5.474-.046-4.372 5.382-.072.973-.452z" vector-effect="non-scaling-stroke" fill="inherit" stroke="inherit" stroke-width="inherit"><title>Rusk County</title></path><path id="county-48365" class="county feature" d="M539.345 418.511l.087 3.684.508 4.047-7.812.253-1.397.036.247-4.284 1.336-3.647 2.284 1.155z" vector-effect="non-scaling-stroke" fill="inherit" stroke="inherit" stroke-width="inherit"><title>Panola County</title></path><path id="county-48213" class="county feature" d="M507.467 419.48l9.834.02-.607 2.309.467 1.813.497.956-9.828 1.502-.04-.124-.907-2.725-4.233-3.224-1.085-.564z" vector-effect="non-scaling-stroke" fill="inherit" stroke="inherit" stroke-width="inherit"><title>Henderson County</title></path><path id="county-48349" class="county feature" d="M507.79 425.956l-6.978 4.038-3.514-.373-2.75-4.885 8.102-4.729 4.233 3.224z" vector-effect="non-scaling-stroke" fill="inherit" stroke="inherit" stroke-width="inherit"><title>Navarro County</title></path><path id="county-48425" class="county feature" d="M483.307 419.996l-.037 2.16-3.97 2.108-1.214-2.768 2.578-1.5z" vector-effect="non-scaling-stroke" fill="inherit" stroke="inherit" stroke-width="inherit"><title>Somervell County</title></path><path id="county-48217" class="county feature" d="M494.549 424.736l2.75 4.885-3.383 1.96-1.632-2.91-3.82 2.158.033-1.62-2.533-1.941.985-.808-1.535-.64.03-3.064 6.156-1.645 2.244 4.029z" vector-effect="non-scaling-stroke" fill="inherit" stroke="inherit" stroke-width="inherit"><title>Hill County</title></path><path id="county-48093" class="county feature" d="M473.82 427.334l.783 1.44-4.922 2.84-.44-.754-2.793.356-3.83-7.197 5.968-3.272 3.365 6.096 1.223-.7z" vector-effect="non-scaling-stroke" fill="inherit" stroke="inherit" stroke-width="inherit"><title>Comanche County</title></path><path id="county-48035" class="county feature" d="M483.27 422.155l1.559 1.34.616-.739-.03 3.065 1.534.639-.985.808 2.533 1.942-.033 1.619-5.231 2.88-1.3-2.333-1.235.7-3.64-6.553 2.243-1.26z" vector-effect="non-scaling-stroke" fill="inherit" stroke="inherit" stroke-width="inherit"><title>Bosque County</title></path><path id="county-48073" class="county feature" d="M524.626 423.517l.064 5.474.754.003-.576 1.2.421 2.72 1.355 2.042-2.16 1.917-1.546-.777-.648-1.774-2.126-.538-.043-1.211-2.007-1.945-.678-1.566.222-4.484-.497-.956z" vector-effect="non-scaling-stroke" fill="inherit" stroke="inherit" stroke-width="inherit"><title>Cherokee County</title></path><path id="county-48431" class="county feature" d="M427.084 422.328l5.694.313-.429 7.314-.763 2.473-6.374-.23.11-1.766.498-8.171z" vector-effect="non-scaling-stroke" fill="inherit" stroke="inherit" stroke-width="inherit"><title>Sterling County</title></path><path id="county-48173" class="county feature" d="M425.82 422.26l-.498 8.172-8.038-.477.491-8.158 1.276.065z" vector-effect="non-scaling-stroke" fill="inherit" stroke="inherit" stroke-width="inherit"><title>Glasscock County</title></path><path id="county-48329" class="county feature" d="M417.775 421.797l-.49 8.158-8.081-.512.546-8.158 1.19.083z" vector-effect="non-scaling-stroke" fill="inherit" stroke="inherit" stroke-width="inherit"><title>Midland County</title></path><path id="county-48135" class="county feature" d="M409.75 421.285l-.546 8.158-.493-.034-7.09-.497-.5-.037.583-8.121z" vector-effect="non-scaling-stroke" fill="inherit" stroke="inherit" stroke-width="inherit"><title>Ector County</title></path><path id="county-48495" class="county feature" d="M401.704 420.754l-.582 8.121-8.347-.615.527-6.525 4.118.31.12-1.62z" vector-effect="non-scaling-stroke" fill="inherit" stroke="inherit" stroke-width="inherit"><title>Winkler County</title></path><path id="county-48081" class="county feature" d="M435.237 422.786l6.76.373-.336 7.298-9.312-.502.429-7.314z" vector-effect="non-scaling-stroke" fill="inherit" stroke="inherit" stroke-width="inherit"><title>Coke County</title></path><path id="county-48001" class="county feature" d="M520.164 433.784l-5.99.991-1.391.716.077-2.8-.834.656-1.418-2.583-1.691-.604.215-1.666-1.302-2.414 9.828-1.502-.222 4.484.678 1.566 2.007 1.945z" vector-effect="non-scaling-stroke" fill="inherit" stroke="inherit" stroke-width="inherit"><title>Anderson County</title></path><path id="county-48083" class="county feature" d="M451.494 423.574l6.855.284-.494 11.472-1.808 1.015-1.971-1.297-1.162.909-1.37-1.323-1.838-1.659.49-9.467z" vector-effect="non-scaling-stroke" fill="inherit" stroke="inherit" stroke-width="inherit"><title>Coleman County</title></path><path id="county-48399" class="county feature" d="M450.196 423.508l-.49 9.467-6.162-.32-1.954-.106.07-2.092.337-7.298 1.31.053z" vector-effect="non-scaling-stroke" fill="inherit" stroke="inherit" stroke-width="inherit"><title>Runnels County</title></path><path id="county-48049" class="county feature" d="M462.619 424.019l3.829 7.197-1.46.195-.355 1.44-3.421 2.268-1.585.388-1.772-.177.494-11.472 1.215.033z" vector-effect="non-scaling-stroke" fill="inherit" stroke="inherit" stroke-width="inherit"><title>Brown County</title></path><path id="county-48193" class="county feature" d="M472.599 436.706l-2.918-5.092 4.922-2.84-.783-1.44 3.238-1.811 3.64 6.553-6.626 3.777z" vector-effect="non-scaling-stroke" fill="inherit" stroke="inherit" stroke-width="inherit"><title>Hamilton County</title></path><path id="county-48161" class="county feature" d="M512.026 433.347l-7.12 3.843-4.094-7.196 6.978-4.038.04.124 1.302 2.414-.215 1.666 1.69.604z" vector-effect="non-scaling-stroke" fill="inherit" stroke="inherit" stroke-width="inherit"><title>Freestone County</title></path><path id="county-48109" class="county feature" d="M382.334 420.854l-2.652 16.615-13.709 7.071.457-3.197 1.874-21.751 1.104.102z" vector-effect="non-scaling-stroke" fill="inherit" stroke="inherit" stroke-width="inherit"><title>Culberson County</title></path><path id="county-48229" class="county feature" d="M365.973 444.54l-1.062.545-3.432-3.65-2.76-1.262-2.335-2.693-.6-1.865-2.5-1.797-1.276-2.428-1.833-2.05 1.2-11.473 16.929 1.725-1.874 21.75z" vector-effect="non-scaling-stroke" fill="inherit" stroke="inherit" stroke-width="inherit"><title>Hudspeth County</title></path><path id="county-48141" class="county feature" d="M350.175 429.34l-3.312-2.089-2.058-5.004-2.19-1.208-1.524-1.723.557-2.473 3.78.404 5.947.62z" vector-effect="non-scaling-stroke" fill="inherit" stroke="inherit" stroke-width="inherit"><title>El Paso County</title></path><path id="county-48301" class="county feature" d="M392.775 428.26l-4.463-.359-1.135-1.896-1.628-.557-.5-2.276-.742.302-1.28-2.563 4.043.333 6.232.491z" vector-effect="non-scaling-stroke" fill="inherit" stroke="inherit" stroke-width="inherit"><title>Loving County</title></path><path id="county-48389" class="county feature" d="M388.312 427.901l1.438.554.7 3.868 3.047.203.978 1.115 2.91.234-9.994 10.596-7.71-7.002 2.653-16.615.693.057 1.28 2.563.741-.302.501 2.276 1.628.557z" vector-effect="non-scaling-stroke" fill="inherit" stroke="inherit" stroke-width="inherit"><title>Reeves County</title></path><path id="county-48419" class="county feature" d="M542.152 428.74l1.394 2.637-.587 2.186-2.364.366-1.702-.925-4.887-.527-.91-3.564-.968-2.418 7.812-.253z" vector-effect="non-scaling-stroke" fill="inherit" stroke="inherit" stroke-width="inherit"><title>Shelby County</title></path><path id="county-48309" class="county feature" d="M486.109 438.772l-2.876-5.064 5.23-2.88 3.821-2.158 1.632 2.911 2.043 3.517-7.624 4.463-1.048.652z" vector-effect="non-scaling-stroke" fill="inherit" stroke="inherit" stroke-width="inherit"><title>McLennan County</title></path><path id="county-48347" class="county feature" d="M533.096 428.913l.91 3.564 1.408 1.181-.13 6.837-1.809-1.624-1.033-1.81-3.619-.836-2.18-1.269-1.354-2.042-.421-2.72.576-1.2z" vector-effect="non-scaling-stroke" fill="inherit" stroke="inherit" stroke-width="inherit"><title>Nacogdoches County</title></path><path id="county-48293" class="county feature" d="M499.162 440.772l-3.203-5.674-2.043-3.517 3.382-1.96 3.514.373 4.094 7.196-1.314 1.049z" vector-effect="non-scaling-stroke" fill="inherit" stroke="inherit" stroke-width="inherit"><title>Limestone County</title></path><path id="county-48333" class="county feature" d="M472.599 436.706l-4.714 3.365-.996-.776-1.029-2.578-2.525-.217-2.123-1.38 3.421-2.269.355-1.44 1.46-.195 2.793-.356.44.754z" vector-effect="non-scaling-stroke" fill="inherit" stroke="inherit" stroke-width="inherit"><title>Mills County</title></path><path id="county-48099" class="county feature" d="M478.245 443.334l-4.173-7.481 6.626-3.777 1.234-.7 1.301 2.332 2.876 5.064z" vector-effect="non-scaling-stroke" fill="inherit" stroke="inherit" stroke-width="inherit"><title>Coryell County</title></path><path id="county-48451" class="county feature" d="M441.66 430.457l-.07 2.092 1.954.107-.468 9.216-9.13-.398.331-8.191-9.094-.565.03-.52 6.373.23.763-2.473z" vector-effect="non-scaling-stroke" fill="inherit" stroke="inherit" stroke-width="inherit"><title>Tom Green County</title></path><path id="county-48289" class="county feature" d="M512.783 435.49l1.338 3.431-1.087.928-.62 3.321-3.352.044-4.251 2.213-1.397-5.32.178-1.868 1.314-1.05 7.12-3.842.834-.656z" vector-effect="non-scaling-stroke" fill="inherit" stroke="inherit" stroke-width="inherit"><title>Leon County</title></path><path id="county-48461" class="county feature" d="M417.284 429.955l-.656 10.692-8.347-.651.43-10.587.493.034z" vector-effect="non-scaling-stroke" fill="inherit" stroke="inherit" stroke-width="inherit"><title>Upton County</title></path><path id="county-48103" class="county feature" d="M408.71 429.409l-.429 10.587-1.397-.11-.511-2.025-3.74-2.771-1.49.516.477-6.694z" vector-effect="non-scaling-stroke" fill="inherit" stroke="inherit" stroke-width="inherit"><title>Crane County</title></path><path id="county-48405" class="county feature" d="M540.595 433.929l.064 1.937-.946 1.071.186 5.165-1.433.684-3.182-2.291.13-6.837-1.408-1.181 4.887.527z" vector-effect="non-scaling-stroke" fill="inherit" stroke="inherit" stroke-width="inherit"><title>San Augustine County</title></path><path id="county-48383" class="county feature" d="M425.322 430.432l-.11 1.765-.029.521-.575 8.402-7.98-.473.656-10.692z" vector-effect="non-scaling-stroke" fill="inherit" stroke="inherit" stroke-width="inherit"><title>Reagan County</title></path><path id="county-48475" class="county feature" d="M388.312 427.901l4.463.359 8.347.615.498.037-.477 6.694-.935.427-2.823-2.158-2.91-.234-.978-1.115-3.048-.203-.7-3.868z" vector-effect="non-scaling-stroke" fill="inherit" stroke="inherit" stroke-width="inherit"><title>Ward County</title></path><path id="county-48403" class="county feature" d="M542.96 433.563l1.92 1.304.597 3.969 1.389 2.32-4.935.458-2.032.488-.186-5.165.946-1.071-.064-1.937z" vector-effect="non-scaling-stroke" fill="inherit" stroke="inherit" stroke-width="inherit"><title>Sabine County</title></path><path id="county-48225" class="county feature" d="M524.484 436.873l.726.724-7.534 6.228-2.915 2.407-.92-1.028.176-1.843-1.602-.19.62-3.322 1.086-.928-1.338-3.43 1.392-.716 5.99-.99 2.125.537.648 1.774z" vector-effect="non-scaling-stroke" fill="inherit" stroke="inherit" stroke-width="inherit"><title>Houston County</title></path><path id="county-48095" class="county feature" d="M449.706 432.975l1.838 1.659-.316 7.582-8.152-.344.468-9.216z" vector-effect="non-scaling-stroke" fill="inherit" stroke="inherit" stroke-width="inherit"><title>Concho County</title></path><path id="county-48235" class="county feature" d="M433.947 441.474l-4.359-.144-4.98-.21.575-8.402 9.094.565z" vector-effect="non-scaling-stroke" fill="inherit" stroke="inherit" stroke-width="inherit"><title>Irion County</title></path><path id="county-48005" class="county feature" d="M535.284 440.495l3.182 2.291-5.203 1.327-1.667-.454-4.501-1.58-1.11-3.552-.775-.93-.726-.724 2.16-1.917 2.18 1.269 3.618.835 1.033 1.811z" vector-effect="non-scaling-stroke" fill="inherit" stroke="inherit" stroke-width="inherit"><title>Angelina County</title></path><path id="county-48145" class="county feature" d="M495.447 442.9l-3.87 2.201-3.242-5.54 7.624-4.463 3.203 5.674z" vector-effect="non-scaling-stroke" fill="inherit" stroke="inherit" stroke-width="inherit"><title>Falls County</title></path><path id="county-48307" class="county feature" d="M457.855 435.33l1.772.177-.345 9.734-6.262-.209-1.896-.072.104-2.744.316-7.582 1.37 1.323 1.162-.91 1.971 1.298z" vector-effect="non-scaling-stroke" fill="inherit" stroke="inherit" stroke-width="inherit"><title>McCulloch County</title></path><path id="county-48411" class="county feature" d="M461.212 435.12l2.123 1.38 2.525.217 1.03 2.578.995.776.552 2.67 1.31 1.146-.15 2.021-8.293-.234-2.022-.433.345-9.734z" vector-effect="non-scaling-stroke" fill="inherit" stroke="inherit" stroke-width="inherit"><title>San Saba County</title></path><path id="county-48281" class="county feature" d="M478.245 443.334l-.076.645-8.422-.092-1.31-1.147-.552-2.67 4.714-3.364 1.473-.853z" vector-effect="non-scaling-stroke" fill="inherit" stroke="inherit" stroke-width="inherit"><title>Lampasas County</title></path><path id="county-48455" class="county feature" d="M527.095 442.078l-1.517 1.983-4.127 4.11-.845-1.532-1.192.895-1.107.041-.63-3.75 7.533-6.228.775.93z" vector-effect="non-scaling-stroke" fill="inherit" stroke="inherit" stroke-width="inherit"><title>Trinity County</title></path><path id="county-48371" class="county feature" d="M401.143 435.606l1.49-.516 3.74 2.77.51 2.025 3.073 1.778 3.115.467 1.79 1.593.793 3.946.61.957-5.905-.42-.076 1.094-3.273-.24-.398 5.875-3.593-.23-.298 4.304-13.163-12.478-2.167-2.06 9.994-10.596 2.823 2.158z" vector-effect="non-scaling-stroke" fill="inherit" stroke="inherit" stroke-width="inherit"><title>Pecos County</title></path><path id="county-48395" class="county feature" d="M504.81 445.427l-1.705 1.135-1.77 3.143-1.775.914-.852-.669-.465-1.804-1.31-1.441-.506-2.613-.98-1.192 3.715-2.128 4.43-2.533-.178 1.868z" vector-effect="non-scaling-stroke" fill="inherit" stroke="inherit" stroke-width="inherit"><title>Robertson County</title></path><path id="county-48027" class="county feature" d="M488.335 439.56l3.243 5.541-3.037 1.773-.942 2.558-4.914-2.287-3.24-.73-1.276-2.436.076-.645 7.864-4.562 1.178 1.44z" vector-effect="non-scaling-stroke" fill="inherit" stroke="inherit" stroke-width="inherit"><title>Bell County</title></path><path id="county-48351" class="county feature" d="M547.682 446.895l-1.075 3.603-1.67 2.612.712 1.795-.685.794-.366 1.11.957 1.833-3.092.102.276-13.199-.808-3.931 4.935-.457.76-.195.769 2.915z" vector-effect="non-scaling-stroke" fill="inherit" stroke="inherit" stroke-width="inherit"><title>Newton County</title></path><path id="county-48241" class="county feature" d="M542.463 458.744l-3.485.09.516-1.956-.57-1.641.686-1.737.29-2.14-1.166-.777-2.203-6.256-3.268-.214 5.203-1.327 1.433-.684 2.032-.488.808 3.931z" vector-effect="non-scaling-stroke" fill="inherit" stroke="inherit" stroke-width="inherit"><title>Jasper County</title></path><path id="county-48373" class="county feature" d="M531.596 443.66l-1.522.903 1.932 9.055.131.67-3.123.064-1.898-.054.307-.891-2.214-.635-1.4-1.917-.97.367-.284-2.257-1.104-.793 4.127-4.111 1.517-1.983z" vector-effect="non-scaling-stroke" fill="inherit" stroke="inherit" stroke-width="inherit"><title>Polk County</title></path><path id="county-48331" class="county feature" d="M498.708 449.95l-5.51 3.204-3.098 1.833-1.804-5.238-.697-.317.942-2.558 3.037-1.773 3.87-2.201.98 1.192.506 2.613 1.309 1.44z" vector-effect="non-scaling-stroke" fill="inherit" stroke="inherit" stroke-width="inherit"><title>Milam County</title></path><path id="county-48243" class="county feature" d="M383.407 450.796l-1.605-.127-16.891-5.584 1.062-.545 13.709-7.071 7.71 7.002 2.166 2.06z" vector-effect="non-scaling-stroke" fill="inherit" stroke="inherit" stroke-width="inherit"><title>Jeff Davis County</title></path><path id="county-48313" class="county feature" d="M514.761 446.232l-3.914 1.25-4.878.771-1.158-2.826 4.25-2.213 3.354-.044 1.602.19-.177 1.844z" vector-effect="non-scaling-stroke" fill="inherit" stroke="inherit" stroke-width="inherit"><title>Madison County</title></path><path id="county-48327" class="county feature" d="M451.228 442.216l-.104 2.744 1.896.072-.146 4.301-10.121-.396.323-7.065z" vector-effect="non-scaling-stroke" fill="inherit" stroke="inherit" stroke-width="inherit"><title>Menard County</title></path><path id="county-48413" class="county feature" d="M443.076 441.872l-.323 7.065-13.515-.566.35-7.041 4.359.144z" vector-effect="non-scaling-stroke" fill="inherit" stroke="inherit" stroke-width="inherit"><title>Schleicher County</title></path><path id="county-48105" class="county feature" d="M408.281 439.996l8.347.651 7.98.473 4.98.21-.35 7.04-.409 7.819-12.818-.73 1.686-1.19-1.252-1.3 1.673-2.483-.036-1.131-1.818-.73-.61-.956-.793-3.946-1.79-1.593-3.115-.467-3.072-1.778z" vector-effect="non-scaling-stroke" fill="inherit" stroke="inherit" stroke-width="inherit"><title>Crockett County</title></path><path id="county-48457" class="county feature" d="M533.263 444.113l3.268.214 2.203 6.256 1.166.777-.29 2.14-7.604.118-1.932-9.055 1.522-.904z" vector-effect="non-scaling-stroke" fill="inherit" stroke="inherit" stroke-width="inherit"><title>Tyler County</title></path><path id="county-48471" class="county feature" d="M519.414 447.534l-.471 6.648-3.833-.062-3.727-2.258-.536-4.38 3.914-1.25 2.915-2.407.631 3.75z" vector-effect="non-scaling-stroke" fill="inherit" stroke="inherit" stroke-width="inherit"><title>Walker County</title></path><path id="county-48053" class="county feature" d="M478.17 443.98l1.275 2.435-2.197 2.224-1.448 2.984-1.297 3.677-3.577-1.199-1.322-3.555 1.035-1.335.007-1.668-1.049-1.635.15-2.021z" vector-effect="non-scaling-stroke" fill="inherit" stroke="inherit" stroke-width="inherit"><title>Burnet County</title></path><path id="county-48041" class="county feature" d="M505.97 448.253l-.268 4.403 1.27 3.106-.806 1.703.07-.738-2.394-.188-.935-3.033-2.055-1.454-1.833-.403.54-1.03 1.776-.914 1.77-3.143 1.706-1.135z" vector-effect="non-scaling-stroke" fill="inherit" stroke="inherit" stroke-width="inherit"><title>Brazos County</title></path><path id="county-48319" class="county feature" d="M459.282 445.241l2.022.433-.235 7.913-5.454-.205-2.892-.1.15-3.949.147-4.3z" vector-effect="non-scaling-stroke" fill="inherit" stroke="inherit" stroke-width="inherit"><title>Mason County</title></path><path id="county-48299" class="county feature" d="M469.597 445.908l1.049 1.635-.007 1.668-1.035 1.335 1.322 3.555-3.877-.364-5.98-.15.235-7.913z" vector-effect="non-scaling-stroke" fill="inherit" stroke="inherit" stroke-width="inherit"><title>Llano County</title></path><path id="county-48491" class="county feature" d="M490.1 454.987l-2.892.975-.555-.314-3.631-1.586-2.542 1.226-1.502-.759-1.687-2.95-1.491.044 1.448-2.984 2.197-2.224 3.24.73 4.914 2.287.697.317z" vector-effect="non-scaling-stroke" fill="inherit" stroke="inherit" stroke-width="inherit"><title>Williamson County</title></path><path id="county-48407" class="county feature" d="M521.45 448.172l1.105.793.285 2.257.968-.367 1.401 1.917 2.214.635-.307.891-5.035 2.846-2.295-1.112-.843-1.85.471-6.648 1.192-.895z" vector-effect="non-scaling-stroke" fill="inherit" stroke="inherit" stroke-width="inherit"><title>San Jacinto County</title></path><path id="county-48185" class="county feature" d="M510.847 447.483l.536 4.379.43 7.196-4.66.389-.987-1.982.805-1.703-1.269-3.106.267-4.403z" vector-effect="non-scaling-stroke" fill="inherit" stroke="inherit" stroke-width="inherit"><title>Grimes County</title></path><path id="county-48051" class="county feature" d="M499.56 450.62l-.541 1.029 1.833.403 2.055 1.454.935 3.033-5.5 1.53-1.608-.424-3.536-4.49 5.51-3.205z" vector-effect="non-scaling-stroke" fill="inherit" stroke="inherit" stroke-width="inherit"><title>Burleson County</title></path><path id="county-48267" class="county feature" d="M455.615 453.382l-.099 3.988-7.284-.346-5.82-.233.34-7.854 10.122.396-.151 3.95z" vector-effect="non-scaling-stroke" fill="inherit" stroke="inherit" stroke-width="inherit"><title>Kimble County</title></path><path id="county-48435" class="county feature" d="M442.753 448.937l-.34 7.854-9.4-.4-4.184-.202.409-7.818z" vector-effect="non-scaling-stroke" fill="inherit" stroke="inherit" stroke-width="inherit"><title>Sutton County</title></path><path id="county-48043" class="county feature" d="M381.78 472.222l1.627-21.426 6.15-4.265 13.164 12.478 3.75 3.506-1.254 2.123-2.03-.568-2.493.555-2.587 4.028-1.328 3.004-.348 2.686-1.718.372-2.935 3.723-4.483-1.705-1.81-2.257-2.638-.658z" vector-effect="non-scaling-stroke" fill="inherit" stroke="inherit" stroke-width="inherit"><title>Brewster County</title></path><path id="county-48443" class="county feature" d="M416.01 455.46l-.62 9.455-5.72-.568-3.198-1.832-3.75-3.506.297-4.304 3.593.23.398-5.875 3.273.24.076-1.094 5.905.42 1.818.729.036 1.131-1.673 2.484 1.252 1.298z" vector-effect="non-scaling-stroke" fill="inherit" stroke="inherit" stroke-width="inherit"><title>Terrell County</title></path><path id="county-48377" class="county feature" d="M383.407 450.796l-1.628 21.426-2.863-.862-1.715-1.084-2.64-3.365-1.205-.217-2.593-2.561-2.244-5.257.298-4.97-2.403-4.192.014-2.25-1.517-2.379 16.891 5.584z" vector-effect="non-scaling-stroke" fill="inherit" stroke="inherit" stroke-width="inherit"><title>Presidio County</title></path><path id="county-48339" class="county feature" d="M518.943 454.182l.843 1.85 2.295 1.112 1.14 3.315-2.677 2.548-4.383-2.518-2.195 1.267-2.13.21-.024-2.908-.429-7.196 3.727 2.258z" vector-effect="non-scaling-stroke" fill="inherit" stroke="inherit" stroke-width="inherit"><title>Montgomery County</title></path><path id="county-48453" class="county feature" d="M486.653 455.648l-2.04 3.891-2.579 2.615-1 .793-7.322-6.357.79-1.29 1.298-3.677 1.491-.045 1.687 2.951 1.502.759 2.542-1.226z" vector-effect="non-scaling-stroke" fill="inherit" stroke="inherit" stroke-width="inherit"><title>Travis County</title></path><path id="county-48287" class="county feature" d="M498.342 458.068l-2.494 2.53-3.731 2.005-.877-3.899-4.032-2.742 2.892-.975 3.098-1.833 3.536 4.49z" vector-effect="non-scaling-stroke" fill="inherit" stroke="inherit" stroke-width="inherit"><title>Lee County</title></path><path id="county-48199" class="county feature" d="M539.61 453.5l-.686 1.737.57 1.64-.516 1.958.06 1.519-2.573-.137-1.055 1.27-1.664-.151-2.438.055-2.294-7.039 3.123-.064-.131-.67z" vector-effect="non-scaling-stroke" fill="inherit" stroke="inherit" stroke-width="inherit"><title>Hardin County</title></path><path id="county-48171" class="county feature" d="M461.069 453.587l5.98.15-.12 6.75-5.359-.143-6.141-.126.087-2.848.099-3.988z" vector-effect="non-scaling-stroke" fill="inherit" stroke="inherit" stroke-width="inherit"><title>Gillespie County</title></path><path id="county-48031" class="county feature" d="M470.926 454.101l3.577 1.2-.791 1.29-2.147 5.904-1.931 1.831-2.705-3.838.12-6.751z" vector-effect="non-scaling-stroke" fill="inherit" stroke="inherit" stroke-width="inherit"><title>Blanco County</title></path><path id="county-48291" class="county feature" d="M529.014 454.352l2.294 7.039 2.438-.055.114 4.177-8.702.216-1.937-5.27-1.14-3.315 5.035-2.846z" vector-effect="non-scaling-stroke" fill="inherit" stroke="inherit" stroke-width="inherit"><title>Liberty County</title></path><path id="county-48021" class="county feature" d="M492.117 462.603l-4.768 4.892-5.315-5.341 2.58-2.615 2.04-3.89.554.313 4.032 2.742z" vector-effect="non-scaling-stroke" fill="inherit" stroke="inherit" stroke-width="inherit"><title>Bastrop County</title></path><path id="county-48477" class="county feature" d="M506.166 457.465l.986 1.982-1.588 1.648.75 1.245-2.385-.49-5.317.943-.393-1.878-2.37-.317 2.493-2.53 5.5-1.53 2.395.189z" vector-effect="non-scaling-stroke" fill="inherit" stroke="inherit" stroke-width="inherit"><title>Washington County</title></path><path id="county-48209" class="county feature" d="M478.319 466.004l-2.051 1.937-.468-1.807-4.235-3.64 2.147-5.904 7.323 6.357-3.015 2.575z" vector-effect="non-scaling-stroke" fill="inherit" stroke="inherit" stroke-width="inherit"><title>Hays County</title></path><path id="county-48465" class="county feature" d="M428.83 456.189l4.184.203-.603 12.404-.17 3.81-.918 3.03-.807.208-3.298-2.475-.812-1.788-3.176-1.652-.527-1.976-2.333-2.85-1.366.46-3.614-.648.62-9.456z" vector-effect="non-scaling-stroke" fill="inherit" stroke="inherit" stroke-width="inherit"><title>Val Verde County</title></path><path id="county-48137" class="county feature" d="M448.232 457.024l-.206 4.044-3.38-.29-.955 5.313-.16 3.223-1.589-.064-9.53-.454.602-12.404 9.398.399z" vector-effect="non-scaling-stroke" fill="inherit" stroke="inherit" stroke-width="inherit"><title>Edwards County</title></path><path id="county-48265" class="county feature" d="M461.57 460.344l-.164 6.67-4.119-2.255-6.85-.482-1.466-.074.143-3.088-1.088-.047.206-4.044 7.284.346-.087 2.848z" vector-effect="non-scaling-stroke" fill="inherit" stroke="inherit" stroke-width="inherit"><title>Kerr County</title></path><path id="county-48361" class="county feature" d="M545.555 458.642l-.11 3.607-2.07 3.537-.13-2.093-2.803-.892-1.405-2.447-.059-1.52 3.485-.09z" vector-effect="non-scaling-stroke" fill="inherit" stroke="inherit" stroke-width="inherit"><title>Orange County</title></path><path id="county-48473" class="county feature" d="M511.836 461.966l-2.544-1.368 2.177 7.01-3.337 1.13-1.133-1.527-.684-4.871-.75-1.245 1.587-1.648 4.66-.389z" vector-effect="non-scaling-stroke" fill="inherit" stroke="inherit" stroke-width="inherit"><title>Waller County</title></path><path id="county-48245" class="county feature" d="M539.037 460.354l1.405 2.447 2.804.892.128 2.093-1.182 1.185 1.505 2.036-2.835.295-5.473 2.316-.164-6.089-1.365-.016-.114-4.177 1.664.151 1.055-1.27z" vector-effect="non-scaling-stroke" fill="inherit" stroke="inherit" stroke-width="inherit"><title>Jefferson County</title></path><path id="county-48201" class="county feature" d="M525.345 469.528l-.07.044.07-.044zm-2.124-9.069l1.937 5.27 1.103.991-.2 2.792-1.45-.55-.975-2.136-.432 1.082 1.955 1.679-.551 2.43-2.324.971-.896-1.092-.752-.693-2.626.266-6.54-3.86-2.178-7.011 2.544 1.368 2.13-.21 2.195-1.267 4.383 2.518z" vector-effect="non-scaling-stroke" fill="inherit" stroke="inherit" stroke-width="inherit"><title>Harris County</title></path><path id="county-48149" class="county feature" d="M498.612 462.793l.837 1.552-4.976 6.107-4.358.04-2.802-2.96.036-.037 4.768-4.892 3.731-2.005 2.371.317z" vector-effect="non-scaling-stroke" fill="inherit" stroke="inherit" stroke-width="inherit"><title>Fayette County</title></path><path id="county-48259" class="county feature" d="M466.929 460.488l2.705 3.838-3.853 3.49-2.165.414-2.21-1.216.164-6.67z" vector-effect="non-scaling-stroke" fill="inherit" stroke="inherit" stroke-width="inherit"><title>Kendall County</title></path><path id="county-48015" class="county feature" d="M506.315 462.34l.684 4.871 1.133 1.527.122 2.338-1.038.02-1.403-.603-1.314-.622-1.202-2.764-1.457-.28-2.391-2.482-.837-1.552 5.317-.944z" vector-effect="non-scaling-stroke" fill="inherit" stroke="inherit" stroke-width="inherit"><title>Austin County</title></path><path id="county-48385" class="county feature" d="M448.026 461.068l1.088.047-.143 3.088 1.467.074-.245 5.236-6.662-.199.16-3.223.955-5.313z" vector-effect="non-scaling-stroke" fill="inherit" stroke="inherit" stroke-width="inherit"><title>Real County</title></path><path id="county-48055" class="county feature" d="M482.034 462.154l5.315 5.341-.036.037-4.582 2.804-.565-.367-1.777-.928-2.07-3.037-.299-.482 3.015-2.575z" vector-effect="non-scaling-stroke" fill="inherit" stroke="inherit" stroke-width="inherit"><title>Caldwell County</title></path><path id="county-48091" class="county feature" d="M476.268 467.94l-1.494 1.248-3.625 1.588-1.07-1.298.453-1.33-4.751-.331 3.853-3.49 1.93-1.832 4.236 3.639z" vector-effect="non-scaling-stroke" fill="inherit" stroke="inherit" stroke-width="inherit"><title>Comal County</title></path><path id="county-48089" class="county feature" d="M505.813 470.493l-2.156 2.225-.667 1.981-4.768 2.97-.296-.301 1.605-1.326-3.75-4.545-1.308-1.045 4.976-6.107 2.39 2.482 1.458.28 1.202 2.764z" vector-effect="non-scaling-stroke" fill="inherit" stroke="inherit" stroke-width="inherit"><title>Colorado County</title></path><path id="county-48019" class="county feature" d="M453.301 469.62l-3.108-.107.245-5.236 6.85.482 4.118 2.255 2.21 1.216-.44.509-2.047 2.364-.885-1.172z" vector-effect="non-scaling-stroke" fill="inherit" stroke="inherit" stroke-width="inherit"><title>Bandera County</title></path><path id="county-48071" class="county feature" d="M525.275 469.572l.07-.044-.07.044zm8.585-4.059l1.365.016.164 6.09-.266.115-1.61-.006-1.234-.252-3.136.889.664-4.303-1.76-.679-1.128 2.327-.859-.198.201-2.792-1.103-.99z" vector-effect="non-scaling-stroke" fill="inherit" stroke="inherit" stroke-width="inherit"><title>Chambers County</title></path><path id="county-48187" class="county feature" d="M482.166 469.97l-3.464 5.038-3.97-.134-.788-1.137.153-.814-2.948-2.147 3.625-1.588 1.494-1.247 2.05-1.937 2.071 3.037z" vector-effect="non-scaling-stroke" fill="inherit" stroke="inherit" stroke-width="inherit"><title>Guadalupe County</title></path><path id="county-48157" class="county feature" d="M518.01 471.47l-.609 2.637-1.418.021-.454 1.789-1.235.97-1.61-.618-1.542 1.157-2.358-3.192-1.568-3.138 1.038-.02-.122-2.338 3.337-1.13z" vector-effect="non-scaling-stroke" fill="inherit" stroke="inherit" stroke-width="inherit"><title>Fort Bend County</title></path><path id="county-48177" class="county feature" d="M490.115 470.492l-1.007.894-.63 3.636-6.157 5.035-1.849-2.121-2.076-2.489.306-.439 3.464-5.039.565.367 4.582-2.804z" vector-effect="non-scaling-stroke" fill="inherit" stroke="inherit" stroke-width="inherit"><title>Gonzales County</title></path><path id="county-48029" class="county feature" d="M471.149 470.776l2.948 2.147-.153.814-4.59 5.96-6.41-2.72.232-8.238.44-.51 2.165-.412 4.751.33-.452 1.331z" vector-effect="non-scaling-stroke" fill="inherit" stroke="inherit" stroke-width="inherit"><title>Bexar County</title></path><path id="county-48325" class="county feature" d="M462.944 476.977l-.094 2.989-9.943-.343.394-10.002 6.943.31.885 1.172 2.047-2.364z" vector-effect="non-scaling-stroke" fill="inherit" stroke="inherit" stroke-width="inherit"><title>Medina County</title></path><path id="county-48481" class="county feature" d="M507.216 471.096l1.568 3.138 2.358 3.192-.426.615-1.486 1.548-5.63 3.416-5.378-5.336 4.768-2.97.667-1.98 2.156-2.226z" vector-effect="non-scaling-stroke" fill="inherit" stroke="inherit" stroke-width="inherit"><title>Wharton County</title></path><path id="county-48285" class="county feature" d="M497.926 477.368l-4.607 3.705-.607-.767-4.235-5.284.63-3.636 1.008-.894 4.358-.04 1.308 1.045 3.75 4.545z" vector-effect="non-scaling-stroke" fill="inherit" stroke="inherit" stroke-width="inherit"><title>Lavaca County</title></path><path id="county-48463" class="county feature" d="M453.301 469.62l-.394 10.003-11.387-.358.422-10.015 1.59.064 6.66.199z" vector-effect="non-scaling-stroke" fill="inherit" stroke="inherit" stroke-width="inherit"><title>Uvalde County</title></path><path id="county-48271" class="county feature" d="M441.942 469.25l-.422 10.015-9.074-.38-1.678-1.77-.252-1.27.807-.208.917-3.03.171-3.811z" vector-effect="non-scaling-stroke" fill="inherit" stroke="inherit" stroke-width="inherit"><title>Kinney County</title></path><path id="county-48167" class="county feature" d="M529.278 475.9l-.97 1.003-5.219 3.647 4.286-3.903zm-2.775.723l-.61-.249-1.845 2.143-2.92-4.928.26-1.693.896 1.092 2.324-.972 1.772.979-.683.536 1.146 1.64zm8.62-4.889l-6.286 3.083 3.145-2.572 1.531-.517z" vector-effect="non-scaling-stroke" fill="inherit" stroke="inherit" stroke-width="inherit"><title>Galveston County</title></path><path id="county-48039" class="county feature" d="M521.388 471.896l-.26 1.693 2.92 4.928-1.513.358-1.4 3.573-2.668 2.38-1.73.728-.989-.071-1.85-2.524-1.397-.028-.039-1.608-1.133-.732-.613-2.552.426-.615 1.542-1.157 1.61.617 1.235-.97.454-1.788 1.418-.021.609-2.638 2.626-.266z" vector-effect="non-scaling-stroke" fill="inherit" stroke="inherit" stroke-width="inherit"><title>Brazoria County</title></path><path id="county-48493" class="county feature" d="M478.702 475.008l-.306.44 2.076 2.488-7.684 6.174-3.433-4.413 4.59-5.96.786 1.137z" vector-effect="non-scaling-stroke" fill="inherit" stroke="inherit" stroke-width="inherit"><title>Wilson County</title></path><path id="county-48123" class="county feature" d="M487.27 484.719l-1.806-1.17-2.607 2.048-2.88-3.674 2.344-1.866 6.156-5.035 4.235 5.284z" vector-effect="non-scaling-stroke" fill="inherit" stroke="inherit" stroke-width="inherit"><title>DeWitt County</title></path><path id="county-48239" class="county feature" d="M503.6 483.005l-.253 5.364-1.102.013-.616-.616-2.391.027-1.341-.283-.048.007-.017-.03-1.171-3.12-1.712-2.571-1.63-.723 4.607-3.705.296.301z" vector-effect="non-scaling-stroke" fill="inherit" stroke="inherit" stroke-width="inherit"><title>Jackson County</title></path><path id="county-48013" class="county feature" d="M470.303 489.079l.01-.664-7.642-.19.179-8.26.094-2.988 6.41 2.72 3.434 4.413 1.471 1.812z" vector-effect="non-scaling-stroke" fill="inherit" stroke="inherit" stroke-width="inherit"><title>Atascosa County</title></path><path id="county-48321" class="county feature" d="M507.9 490.079l1.174-1.339-3.102.946-2.615-.712-.01-.605.253-5.364 5.63-3.416 1.486-1.548.613 2.552 1.133.732.04 1.608 1.397.028 1.85 2.524.988.071-3.023 1.824-1.585-.332-2.401.946-.436 1.322 4.216-1.779-10.348 5.267z" vector-effect="non-scaling-stroke" fill="inherit" stroke="inherit" stroke-width="inherit"><title>Matagorda County</title></path><path id="county-48255" class="county feature" d="M479.46 488.247l-2.232-1.002-1.477.512-1.492-1.835-1.47-1.812 7.683-6.174 1.85 2.121-2.345 1.866 2.88 3.674z" vector-effect="non-scaling-stroke" fill="inherit" stroke="inherit" stroke-width="inherit"><title>Karnes County</title></path><path id="county-48469" class="county feature" d="M497.85 487.517l.047-.007-.048.007zm-4.53-6.444l1.63.723 1.71 2.57 1.172 3.121.003.376-4.456 2.09.63 1.494-.406.395-4.024-1.305.074-4.15-.693-1.457-1.69-.211 5.442-4.413z" vector-effect="non-scaling-stroke" fill="inherit" stroke="inherit" stroke-width="inherit"><title>Victoria County</title></path><path id="county-48163" class="county feature" d="M462.85 479.966l-.179 8.26-9.766-.196-.218-.003.22-8.404z" vector-effect="non-scaling-stroke" fill="inherit" stroke="inherit" stroke-width="inherit"><title>Frio County</title></path><path id="county-48507" class="county feature" d="M452.907 479.623l-.22 8.404-11.567-.6.4-8.162z" vector-effect="non-scaling-stroke" fill="inherit" stroke="inherit" stroke-width="inherit"><title>Zavala County</title></path><path id="county-48323" class="county feature" d="M441.52 479.265l-.4 8.162-.351 8.381-1.635-.052-1.27-1.692-1.507-5.71-1.521-1.421-.664-3.15-1.597-2.265-.129-2.634z" vector-effect="non-scaling-stroke" fill="inherit" stroke="inherit" stroke-width="inherit"><title>Maverick County</title></path><path id="county-48175" class="county feature" d="M487.27 484.719l1.69.211.693 1.457-.074 4.15-3.578 3.027-2.919-1.261-.362-1.29-1.96-.398-1.3-2.368 3.397-2.65 2.607-2.047z" vector-effect="non-scaling-stroke" fill="inherit" stroke="inherit" stroke-width="inherit"><title>Goliad County</title></path><path id="county-48297" class="county feature" d="M477.514 499.592l-5.815-.146-1.644-.036.248-10.331 3.956-3.157 1.492 1.835-1.395.479 4.437 9.027-.15.12-1.446 1.135z" vector-effect="non-scaling-stroke" fill="inherit" stroke="inherit" stroke-width="inherit"><title>Live Oak County</title></path><path id="county-48057" class="county feature" d="M495.505 496.716l-.202.085.186-1.03zm3.289-1.093l3.195-1.158-7.229 4.763.175-.365.677-1.47 1.334-.116zm4.553-7.254l.01.605-1.112-.592zm-7.618 4.203l-1.72-1.125-.63-1.493 4.456-2.091.8 1.962 3.486 2.883-4.163 2.207zm3.908-3.582l-.4-1.197 2.392-.027-.12 1.859z" vector-effect="non-scaling-stroke" fill="inherit" stroke="inherit" stroke-width="inherit"><title>Calhoun County</title></path><path id="county-48025" class="county feature" d="M479.46 488.247l1.3 2.368 1.96.398.362 1.29 2.919 1.261-2.793 4.125-.461.64-4.105-.947.15-.119-4.436-9.027 1.395-.479 1.477-.512z" vector-effect="non-scaling-stroke" fill="inherit" stroke="inherit" stroke-width="inherit"><title>Bee County</title></path><path id="county-48283" class="county feature" d="M462.671 488.226l-.36 10.98-9.699.189.027-3.244.266-8.12z" vector-effect="non-scaling-stroke" fill="inherit" stroke="inherit" stroke-width="inherit"><title>La Salle County</title></path><path id="county-48311" class="county feature" d="M470.303 489.079l-.248 10.33-7.743-.202.36-10.981 7.641.19z" vector-effect="non-scaling-stroke" fill="inherit" stroke="inherit" stroke-width="inherit"><title>McMullen County</title></path><path id="county-48127" class="county feature" d="M452.687 488.027l.218.003-.266 8.121-11.87-.343.35-8.38z" vector-effect="non-scaling-stroke" fill="inherit" stroke="inherit" stroke-width="inherit"><title>Dimmit County</title></path><path id="county-48391" class="county feature" d="M494.008 491.447l1.72 1.125-1.228.6 1.126 1.793-5.495.808 1.727 1.323-3.738 2.56-.305-.243-.927-1.165-3.68-.559 2.793-4.125 3.578-3.027 4.024 1.305z" vector-effect="non-scaling-stroke" fill="inherit" stroke="inherit" stroke-width="inherit"><title>Refugio County</title></path><path id="county-48007" class="county feature" d="M491.026 503.65l.087-.357-.087.357zm3.19-4.062l-1.962 2.702.247-1.452zm-6.096.068l1.356.281-.468 1.373-1.193-1.897zm1.716 2.974l-.781-1.245 2.66-2.631-.052 1.492zm5.1-3.767l-.176.365.175-.365zm-.172-1.465l-1.956 1.183-.95-1.485-1.727-1.323 5.495-.808-.137.806-.186 1.03z" vector-effect="non-scaling-stroke" fill="inherit" stroke="inherit" stroke-width="inherit"><title>Aransas County</title></path><path id="county-48479" class="county feature" d="M462.312 499.207l-.314 13.076-.035 1.598-2.61-.105-6.32-.28-.587-.875-1.425.954-.787-1.407.52-2.588-1.811-3.024-1.935-.444-2.652-2.733-.782-3.425-.906-.235-1.525-2.963-2.01-1 1.636.052 11.87.343-.027 3.244z" vector-effect="non-scaling-stroke" fill="inherit" stroke="inherit" stroke-width="inherit"><title>Webb County</title></path><path id="county-48409" class="county feature" d="M487.815 499.413l1.193 1.897.047.075.78 1.245-.017.028-.091.155-.814 1.319-1.36-1.108-3.61.72-2.437-.515-2.7-1.335.092-1.134-1.384-1.168-.317-1.074 1.445-1.136 4.105.948.46-.64 3.68.558z" vector-effect="non-scaling-stroke" fill="inherit" stroke="inherit" stroke-width="inherit"><title>San Patricio County</title></path><path id="county-48131" class="county feature" d="M471.699 499.446l-.3 14.787-4.856-.17.05-1.45-4.595-.33.314-13.076 7.743.203z" vector-effect="non-scaling-stroke" fill="inherit" stroke="inherit" stroke-width="inherit"><title>Duval County</title></path><path id="county-48249" class="county feature" d="M477.514 499.592l1.384 1.168-2.286 2.01-.226 4.633-1.956-.04-.12 6.963-2.911-.093.3-14.787z" vector-effect="non-scaling-stroke" fill="inherit" stroke="inherit" stroke-width="inherit"><title>Jim Wells County</title></path><path id="county-48355" class="county feature" d="M488.33 508.708l-.416-.1.416.1zm.942-2.738l1.505-1.92-2.091 3.943zm1.841-2.677l-.087.357.087-.357zm-1.386-.48l.09-.155-.09.155zm-3.162 3.249l1.27.405-1.222 2.507-8.579-.096-1.648-1.475.226-4.634 2.286-2.009-.092 1.134 2.7 1.335 2.437.515 1.72.018z" vector-effect="non-scaling-stroke" fill="inherit" stroke="inherit" stroke-width="inherit"><title>Nueces County</title></path><path id="county-48273" class="county feature" d="M486.163 514.224l-.216-.004.08-1.762 1.887-3.85.416.1zm.45-5.25l-1.565 4.445-1.558.825.72-2.422-2.46 1.584-1.979-1.86 1.154 2.404-1.918.053-3.514 1.313-1.184-.99.121-6.963 1.956.04 1.648 1.475z" vector-effect="non-scaling-stroke" fill="inherit" stroke="inherit" stroke-width="inherit"><title>Kleberg County</title></path><path id="county-48247" class="county feature" d="M466.543 514.063l.85 3.93.811.011-.206 5.038-8.918-.292.273-8.974 2.61.105.035-1.598 4.595.33z" vector-effect="non-scaling-stroke" fill="inherit" stroke="inherit" stroke-width="inherit"><title>Jim Hogg County</title></path><path id="county-48505" class="county feature" d="M459.353 513.776l-.273 8.974-1.017 2.022-2.729 1.826-1.487-5.087-2.853-3.395.428-2.864-.4-1.677 1.424-.954.586.875z" vector-effect="non-scaling-stroke" fill="inherit" stroke="inherit" stroke-width="inherit"><title>Zapata County</title></path><path id="county-48261" class="county feature" d="M486.576 526.807l-.072-.002.072.002zm.121-.917l.302.92-.332-.002-.422-1.392zm0 0l-.83-1.399-.349-3.02.19-.173zm-.99-4.592l-.279-4.79.324-1.658.195-.63.216.004-.533 3.278zm-1.273-4.09l-.4 1.833-1.438.77.087 2.78 1.258 1.274.425 2.917-7.021-.088-1.607-.288-.405-3.145.16-7.945 3.514-1.313 2.148.174 1.693.899 2.047-.592z" vector-effect="non-scaling-stroke" fill="inherit" stroke="inherit" stroke-width="inherit"><title>Kenedy County</title></path><path id="county-48047" class="county feature" d="M471.399 514.233l2.91.093 1.184.99-.16 7.945-5.625-.168-1.71-.051.206-5.038-.81-.012-.851-3.929z" vector-effect="non-scaling-stroke" fill="inherit" stroke="inherit" stroke-width="inherit"><title>Brooks County</title></path><path id="county-48427" class="county feature" d="M467.998 523.042l1.71.05-4.728 9.618-1.512.28-2.094-2.41-5.144-1.257.35-.917-1.246-1.808 2.73-1.826 1.016-2.022z" vector-effect="non-scaling-stroke" fill="inherit" stroke="inherit" stroke-width="inherit"><title>Starr County</title></path><path id="county-48215" class="county feature" d="M475.333 523.26l.405 3.146-.848 3.006 2.39.328-.032 1.584-.095 5.146-5.607.194-3.231-2.012-.963-1.261-2.372-.681 4.728-9.617z" vector-effect="non-scaling-stroke" fill="inherit" stroke="inherit" stroke-width="inherit"><title>Hidalgo County</title></path><path id="county-48489" class="county feature" d="M487.937 530.323l-.217-.003.217.003zm-1.433-3.518l.072.002-.072-.002zm1.021 1.742l-.143-.129-1.13-.872.415-.738.332.002zm-2.868-.187l-.033 1.365-.353.562.944.018-.999 1.579-1.34.444-5.628-1.004.031-1.584-2.39-.328.85-3.006 1.606.288 7.021.088z" vector-effect="non-scaling-stroke" fill="inherit" stroke="inherit" stroke-width="inherit"><title>Willacy County</title></path><path id="county-48061" class="county feature" d="M488.194 536.772l-.71 1.785-2.144 1.057.018 1.26-2.483-.895-3.09-2.847-2.632-.662.095-5.146 5.628 1.004 1.34-.444.999-1.579 1.555 4.008-.292 1.33zm-.474-6.452l.217.003-.217-.003z" vector-effect="non-scaling-stroke" fill="inherit" stroke="inherit" stroke-width="inherit"><title>Cameron County</title></path></g><path id="counties-mesh" class="counties mesh" d="M425.072 339.048l-.484 8.359-8.055-.498.555-8.372m15.096 17.418l-8.066-.433.47-8.115m-8.055-.498l-13.1-.912m37.65-6.088l-.41 8.338-8.048-.428m16.21.812l-8.066-.378-.096-.006m.096.006l-.388 8.229-8.203-.412.006-.115.44-8.093m-8.506 7.66l-.004.073-8.107-.5.01-.142m7.61 8.861l-8.223-.512-.554 8.19-5.413-.353-7.856-.57.289-3.883.319-4.302.629-8.251m13.19.962l-.604 8.207-13.215-.918m29.99-6.314l-.452 8.22-8.1-.476.487-8.219m24.375 1.255l-.156 3.705-.19 4.51-8.138-.37-.419 8.186-6.147-.317-2.21-.117.498-8.156m16.416.774l-.12 2.849-.225 5.36-6.313-.3-1.899-.093m-15.96-9.067l-.582 8.182-5.604-.352-2.59-.152m16.38.955l-5.787-.307-2.4-.144m-16.18 16.356l-.255 8.215-7.136-.513.32-3.411.433-4.769.715-8.956.014-.19.627-8.159m23.862 1.571l-.472 8.179-1.425-.086-6.617-.414.51-8.175m16 .92l-.443 8.187-1.454-.07-6.57-.362m-8.043-.5l-1.415-.091-6.643-.44.566-8.15m32.048 1.836l-.407 8.16-1.525-.08-6.557-.303m14.698-3.978l-.197 4.678-6.419-.317m-32.207-1.846l-1.37-.091-6.547-.47m54.593 1.457l-.22 5.836-4.632-.383-3.267-2.54.07-1.646m15.926 2.454l-.232 7.12-8.043-.273.179-4.732m-15.775-4.966l-.45 8.99-8.033-.365.472-8.998m15.595 9.718l-.258 8.245-8.145-.374.37-8.225m-.37 8.225l-8.072-.393.408-8.198-8.039-.39.515-9.056m15.188 18.037l-.422 8.165-2.12-.112-5.944-.432.414-8.014-8.005-.4.374-8.188-8.028-.383.511-9.178m14.734 26.163l-2.11.013-5.968-.29.487-8.137-8.028-.395.374-8.176-8.14-.554.638-9.155m-.638 9.155l-6.638-.478m54.924 2.878l-.047 1.883-1.226-1.26-2.14-.597-4.599-.38-.8-.033m24.867 7.794l-.023 1.327-8.255-.259.266-8.203m15.028-.663l-.176 7.951-6.84-.153.144-6.943m14.484-1.2l-.186 9.061-6.671-.12-.931-.645m49.955-4.243l.082 7.032-.97-.641-1.242-.637-3.667.206-2.8.236-.034-.049-.112-9.355m-16.445 2.892l-.108 6.168-6.963-.19-1.693-.22.083-10.018m-.083 10.018l-6.797-.348-1.604-.086m33.722 1.14l-2.87-1.39-4.145-.734-1.498.637.166-7.114m-.166 7.114l-.01.976-6.76 1.083-1.382-.868m-39.777-.694l-.213 8.281-2.257-.074-5.837-.202.281-8.302m-7.102-25.656l-.104 3.499 1.143-.216 1.168 1.336 2.168 2.495 1.782-.659 1.592.455 1.16.407.379-1.532 2.46 2.379.267 2.323 3.611.144 2.823 1.517 2.394-.321 1.851 1.823.974-.35.944-1.376 2.969.88.497-.536.784 2.67 2.101.28-.54 1.869 1.657.8 2.842-2.544 1.915 1.673 1.197-.274.315 1.421 1.37.414.99-1.29 1.898-.217-.3 1.886 1.481 1.523.198-1.37 2.346-2.89.156-.098.998 1.878 1.478.405 1.823-1.485 1.02.362-.615.945 3.128 1.292.693.961 3.09-.649 1.385-1.815 2.364-.57 1.371.897 1.33-.64 2.47-1.27.739.976 3.696.179 1.407-1.597.98.478 2.875 1.381 1.69 2.2 1.295-.379.496 1.125 4.033 1.164 1.559 1.72 3.522-.907 1.783.673.109 5.282-1.907-.725-1.066 1.355-3.574-.913-2.893.493-1.484-1.11m-177.906 28.24l-3.312-2.09-2.058-5.004-2.19-1.208-1.524-1.723.557-2.473 3.78.404 5.947.62 16.929 1.725 1.104.102 12.926 1.16.693.057 4.043.333 6.232.491 4.118.31.12-1.62.601-8.147.61-8.183.721-8.04m119.93 4.21l-.033.056-4.74.589-2.211.916-1.612 1.462.04-3.582m-31.871-.75l-.22 8.129-2.094-.083-5.76-.221.28-7.295m16.07-.323l-.356 8.273-2.272-.11-5.868-.241m16.985-7.353l-.22 7.855-2.928.026-5.697-.177m23.911-4.148l-.005 4.505-1.29-.004-.643 2.002.818.68-2.223-.024-3.442-.068.014-2.63.05-6.96m-.05 6.96l-3.42-.028-5.094-.134m-40.419-14.952l-.202 6.295-8.02-.286-.312 8.214-2.418-.101-5.838-.322m88.798-5.975l-.077 7.158-1.644-1.57-3.131.65-.056-6.669m-51.302 6.752l-.037 1.044-2.307-.098-5.843-.219m-8.094-.276l-2.2-.081-5.851-.293m-24.398-1.243l-2.08-.138-5.983-.332.522-8.063-8.021-.515-.56 8.058-7.297-.53m15.356 1.05l-2.059-.118-6-.402m116.21 2.074l-.404.4-.327.973-2.107.004-.05-7.755m.05 7.755l-5.55.07-3.069-.353m18.764-5.582l.076 7.316-.81.018-.225-.473-1.573-1.454m11.972-5.617l.098 4.736.053 2.595-9.515.195m-1.035-.455l-6.734.113-.018-2.086m.018 2.086l.04 6.243-5.037-.71-1.882-1.44-.641-.622-.482-4.51m-37.209-1.144l-.349 8.347-.042.886-6.371-.18-1.578-.082.235-8.246m16.067-.4l-.23 8.239-1.044-.018-7.037-.2m16.28-7.735l-.184 8.19-.764-.024-7.25-.213m16.221-7.845l-.056 3.171-.196 5.04-7.955-.129m11.613-5.424l-.002.517-3.46-.004m13.793 1.764l-3.36-.94-1.306-1.246m-73.495-4.147l-.481 8.217-8.03-.46.458-8.176m-.457 8.175l-.004.069-8.033-.482.446-8.189m7.587 8.67l-.593 8.181-1.264-.067-6.77-.399.594-8.196-8.035-.466.44-8.173m-.44 8.173l-.134-.008-13.334-.914m62.315-4.844l-.27 8.304-.292-.01-7.792-.273m16.22.518l-8.136-.235m68.644-6.193l.084 1.616.041 2.64-4.437 2.217-2.607-.59m17.318-2.564l-1.582-.877-.471.888-1.695-.984-1.585 1.074-1.917.019-3.065-1.823m-21.45-.714l.003 9.032-5.902-.036-1.202-3.512m14.63-2.653l.023 3.89 2.285 2.331-9.834-.02m31.878-.968l-4.747 1.244-2.284-1.155-1.379.02-1.926-.509-.054-4.31m-4.437 2.217l.062 3.127.046 4.372-7.465.105-.467-1.813.607-2.31m13.634-.878l-.973.452-5.382.072m-41.231-3.597l-.042 4.448h-2.643l-2.578 1.5-1.816-5.261m15.374-.456l-.044 5.332-6.155 1.645-.616.739-1.559-1.34.037-2.16m18.258-.552l1.085.564-8.101 4.73-.705.403-2.244-4.03m-47.45-14.353l-.397 8.203-8.043-.42-.473 8.246-2.46-.145-5.693-.313m25.334-15.177l-.316 8.304-.263-.01-8.086-.485-.446 8.252-1.31-.053-6.76-.373m-16.186-.924l-1.276-.065-6.835-.43.535-8.175m-.535 8.176l-1.19-.083-8.046-.531-4.164-.329m54.299-4.98l-.345 8.13-1.298-.067-6.889-.296m26.592-7.157l-.093 4.016-1.22.676-5.967 3.272-3.055-.128.33-8.164m18.192 5.77l1.215 2.767-2.243 1.259-3.238 1.811-.646-1.19-1.223.699-3.365-6.096m-9.022 3.144l-1.215-.033-6.855-.284m80.82-4.974l-1.336 3.647-.247 4.284 1.397-.036.968 2.418-7.652.081-.754-.003-.064-5.474m14.53-14.185l.073 3.532.116 5.647.087 3.684.508 4.047-7.812.253m-14.967-2.873l.497.956-9.828 1.502-.04-.124-.907-2.725-4.233-3.224m5.14 5.949l-6.978 4.038-3.514-.373-2.75-4.885m-11.278-2.58l-3.97 2.108m17.998 5.357l-3.382 1.96-1.632-2.91-3.82 2.158.033-1.62-2.533-1.941.985-.808-1.535-.64.03-3.064m-11.624 4.578l.783 1.44-4.922 2.84-.44-.754-2.793.356-3.83-7.197m25.846 6.81l-5.231 2.88-1.3-2.333-1.235.7-3.64-6.553m48.386 3.471l-.576 1.2.421 2.72 1.355 2.042-2.16 1.917-1.546-.777-.648-1.774-2.126-.538-.043-1.211-2.007-1.945-.678-1.566.222-4.484m-84.88-1.937l-.429 7.314-.763 2.473-6.374-.23.11-1.766.498-8.171m-.498 8.17l-8.038-.476.491-8.158m-.49 8.158l-8.081-.512.546-8.158m-.546 8.158l-.493-.034-7.09-.497-.5-.037.583-8.121m-.582 8.121l-8.347-.615.527-6.525m48.695 1.424l-.336 7.298-9.312-.502m87.815 3.83l-5.99.99-1.391.716.077-2.8-.834.656-1.418-2.583-1.691-.604.215-1.666-1.302-2.414m-49.48-2.222l-.495 11.472-1.808 1.015-1.971-1.297-1.162.909-1.37-1.323-1.838-1.659.49-9.467m-.49 9.467l-6.162-.32-1.954-.106.07-2.092m24.788.759l-1.46.195-.355 1.44-3.421 2.268-1.585.388-1.772-.177m22.843-3.254l-6.626 3.777-1.473.853-2.918-5.092m42.345 1.733l-7.12 3.843-4.094-7.196m-118.478-9.14l-2.652 16.615-13.709 7.071.457-3.197 1.874-21.751m-2.33 24.948l-1.063.545-3.432-3.65-2.76-1.262-2.335-2.693-.6-1.865-2.5-1.797-1.276-2.428-1.833-2.05 1.2-11.473m41.4 10.393l-4.463-.359-1.135-1.896-1.628-.557-.5-2.276-.742.302-1.28-2.563m5.285 6.99l1.438.554.7 3.868 3.047.203.978 1.115 2.91.234-9.994 10.596-7.71-7.002m160.259-11.227l2.212 2.498 1.394 2.637-.587 2.186-2.364.366-1.702-.925-4.887-.527-.91-3.564m-39.18 2.668l2.043 3.517-7.624 4.463-1.048.652-1.178-1.441-2.876-5.064m50.773-1.231l1.408 1.181-.13 6.837-1.809-1.624-1.033-1.81-3.619-.836-2.18-1.269m-21.737 2.234l-1.314 1.049-4.43 2.533-3.203-5.674m-23.36 1.608l-4.714 3.365-.996-.776-1.029-2.578-2.525-.217-2.123-1.38m24.897 3.652l-7.864 4.562-4.173-7.481m-30.528-3.197l-.468 9.216-9.13-.398.331-8.191-9.094-.565.03-.52m87.57 3.293l1.338 3.43-1.087.928-.62 3.321-3.352.044-4.251 2.213-1.397-5.32.178-1.868m-86.308-8.284l-.656 10.692-8.347-.651.43-10.587m-.43 10.587l-1.397-.11-.511-2.025-3.74-2.771-1.49.516.477-6.694m138.975 5.017l.064 1.937-.946 1.071.186 5.165-1.433.684-3.182-2.291m-110.1-7.777l-.576 8.402-7.98-.473m-15.485-5.041l-.935.427-2.823-2.158m149.48 7.282l-4.934.457-2.032.488m-15.415-5.23l.726.725-7.534 6.228-2.915 2.407-.92-1.028.176-1.843-1.602-.19m-59.395 1.861l-.146 4.301-10.121-.396.323-7.065m-9.13-.398l-4.358-.144-4.98-.21m113.858 1.666l-5.203 1.327-1.667-.454-4.501-1.58-1.11-3.552-.775-.93m-26.048 3.175l-3.715 2.128-3.87 2.201-3.242-5.54m-28.708-4.054l-.345 9.734-6.262-.209-1.896-.072.104-2.744m16.657-2.145l.552 2.67 1.31 1.146-.15 2.021-8.293-.234-2.022-.433m18.963-1.907l-.076.645-8.422-.092m57.348-1.809l-1.517 1.983-4.127 4.11-.845-1.532-1.192.895-1.107.041-.63-3.75m-110.793-3.94l3.072 1.778 3.115.467 1.79 1.593.793 3.946.61.957-5.905-.42-.076 1.094-3.273-.24-.398 5.875-3.593-.23-.298 4.304-13.163-12.478-2.167-2.06m127.37 1.76l-3.914 1.252-4.878.77-1.158-2.826-1.706 1.135-1.77 3.143-1.775.914-.852-.669-.465-1.804-1.31-1.441-.506-2.613-.98-1.192m-3.87 2.201l-3.036 1.773-.942 2.558-4.914-2.287-3.24-.73-1.276-2.436m64.79-10.416l1.92 1.304.598 3.969 1.389 2.32.76-.194.769 2.915-.713 3.018-1.075 3.603-1.67 2.612.712 1.795-.685.794-.366 1.11.957 1.833-3.092.102.276-13.199-.808-3.931m.532 17.13l-3.485.09.516-1.956-.57-1.641.686-1.737.29-2.14-1.166-.777-2.203-6.256-3.268-.214m-1.667-.454l-1.522.904 1.932 9.055.131.67-3.123.064-1.898-.054.307-.891-2.214-.635-1.4-1.917-.97.367-.284-2.257-1.104-.793m-22.743 1.778l-5.51 3.204-3.098 1.833-1.804-5.238-.697-.317m-105.82 22.79l-2.863-.862-1.715-1.084-2.64-3.365-1.205-.217-2.593-2.561-2.244-5.257.298-4.97-2.403-4.192.014-2.25-1.517-2.379m90.704 8.297l-.099 3.988-7.284-.346-5.82-.233.34-7.854-13.514-.566.35-7.041m-.35 7.04l-.409 7.819-12.818-.73 1.686-1.19-1.252-1.3 1.673-2.483-.036-1.131-1.818-.73M539.61 453.5l-7.604.118m-12.592-6.084l-.471 6.648-3.833-.062-3.727-2.258-.536-4.38m-31.402-1.067l-2.197 2.224-1.448 2.984-1.297 3.677-3.577-1.199-1.322-3.555 1.035-1.335.007-1.668-1.049-1.635m36.372 2.345l-.267 4.403 1.27 3.106-.806 1.703.07-.738-2.394-.188-.935-3.033-2.055-1.454-1.833-.403.54-1.03m-38.255-4.945l-.235 7.913-5.454-.205-2.892-.1.15-3.949m18.053 4.768l-3.877-.364-5.98-.15m29.03 1.4l-2.89.975-.556-.314-3.631-1.586-2.542 1.226-1.502-.759-1.687-2.95-1.491.044m51.316 2.675l-5.035 2.846-2.295-1.112-.843-1.85m-7.56-2.32l.43 7.196-4.66.389-.987-1.982m-2.324-.926l-5.5 1.53-1.608-.424-3.536-4.49m-50.786 3.636l-9.398-.4-4.185-.202m-26.108 2.82l3.75 3.506-1.254 2.123-2.03-.568-2.493.555-2.587 4.028-1.328 3.004-.348 2.686-1.718.372-2.935 3.723-4.483-1.705-1.81-2.257-2.638-.658-1.068-1.596 1.628-21.426m32.604 4.663l-.62 9.456-5.72-.568-3.2-1.832m115.61-5.371l1.14 3.315-2.677 2.548-4.383-2.518-2.195 1.267-2.13.21-.024-2.908m-25.159-3.41l-2.04 3.891-2.579 2.615-1 .793-7.322-6.357.79-1.29m23.84 2.768l-2.494 2.53-3.731 2.005-.877-3.899-4.032-2.742m51.77 2.873l.06 1.519-2.573-.137-1.055 1.27-1.664-.151-2.438.055-2.294-7.039m-61.965-.615l-.12 6.75-5.359-.143-6.141-.126.087-2.848m18.196-.78l-2.147 5.905-1.931 1.831-2.705-3.838m66.817.848l.114 4.177-8.702.216-1.937-5.27m-31.104 2.144l-4.768 4.892-5.315-5.341m25.118-2.707l-1.588 1.648.75 1.245-2.385-.49-5.317.943-.393-1.878-2.37-.317m-14.814 2.349l-3.015 2.575.299.482-2.051 1.937-.468-1.807-4.235-3.64m-38.551-6.102l-.603 12.404-.17 3.81-.918 3.03-.807.208-3.298-2.475-.812-1.788-3.176-1.652-.527-1.976-2.333-2.85-1.366.46-3.614-.648m32.842-7.891l-.206 4.044-3.38-.29-.955 5.313-.16 3.223-1.589-.064-9.53-.454m29.158-8.452l-.164 6.67-4.119-2.255-6.85-.482-1.466-.074.143-3.088-1.088-.047m97.529-2.426l-.11 3.607-2.07 3.537-.13-2.093-2.803-.892-1.405-2.447m-27.201 1.612l-2.544-1.368 2.177 7.01-3.337 1.13-1.133-1.527-.684-4.871m37.06 3.446l-1.183 1.185 1.505 2.036-2.835.295-5.473 2.316-.164-6.089-1.365-.016m-8.702.216l1.103.991-.2 2.792-1.45-.55-.975-2.136-.432 1.082 1.955 1.679-.551 2.43-2.324.971-.896-1.092-.752-.693-2.626.266-6.54-3.86m-12.858-4.816l.837 1.552-4.976 6.107-4.358.04-2.802-2.96.036-.037m-17.715-3.169l-3.853 3.49-2.165.414-2.21-1.216m46.726 1.724l.122 2.338-1.038.02-1.403-.603-1.314-.622-1.202-2.764-1.457-.28-2.391-2.482m-49.011-.068l-.245 5.236-6.662-.199m43.782-1.782l-4.582 2.804-.565-.367-1.777-.928-2.07-3.037m-2.051 1.937l-1.494 1.247-3.625 1.588-1.07-1.298.453-1.33-4.751-.331m40.032 2.676l-2.156 2.225-.667 1.981-4.768 2.97-.296-.301 1.605-1.326-3.75-4.545-1.308-1.045m-30.857-2.222l-.44.509-2.047 2.364-.885-1.172-6.943-.31-3.108-.108m75.152.015l-.07.044.07-.044-.07.044m10.114 2.046l-.266.116-1.61-.006-1.234-.252-3.136.889.664-4.303-1.76-.679-1.128 2.327-.859-.198m-43.894.457l-3.464 5.04-3.97-.135-.788-1.137.153-.814-2.948-2.147m46.86.693l-.608 2.638-1.418.021-.454 1.789-1.235.97-1.61-.618-1.542 1.157-2.358-3.192-1.568-3.138m-17.1-.604l-1.008.894-.63 3.636-6.157 5.035-1.849-2.121-2.076-2.489.306-.439m-4.758-1.271l-4.59 5.96-6.41-2.72.232-8.238m-.232 8.238l-.094 2.989-9.943-.343.394-10.002m57.841 7.805l-.426.615-1.486 1.548-5.63 3.416-5.378-5.336m-.296-.301l-4.607 3.705-.607-.767-4.235-5.284m-25.806 13.204l-9.766-.196-.218-.003.22-8.404-11.387-.358.422-10.015m10.745 18.777l-11.567-.6.4-8.162-9.074-.38-1.678-1.77-.252-1.27m98.762.056l-.97 1.002-5.219 3.647 4.286-3.903 1.903-.746m-4.67-3.885l1.772.979-.683.536 1.146 1.64-.34 1.452-.61-.249-1.845 2.143-2.92-4.928.26-1.693m13.735-.162l-6.286 3.083 3.145-2.572 1.531-.517m-9.465 6.79l-1.513.357-1.4 3.573-2.668 2.38-1.73.728-.989-.071-1.85-2.524-1.397-.028-.039-1.608-1.133-.732-.613-2.552m-30.244-.105l-7.684 6.174-3.433-4.413m23.357.61l-5.443 4.412-1.805-1.17-2.607 2.048-2.88-3.674 2.344-1.866m21.279 2.948l-.253 5.364-1.102.013-.616-.616-2.391.027-1.341-.283-.048.007-.017-.03-1.171-3.12-1.712-2.571-1.63-.723m-20.53 3.037l1.47 1.812-3.956 3.157.01-.664-7.642-.19.179-8.26m53.887 5.591l-3.023 1.824-1.585-.332-2.401.946-.436 1.322 4.216-1.779-10.348 5.267 4.74-2.725 1.174-1.339-3.102.946-2.615-.712-.01-.605m-20.49-2.772l-3.398 2.65-2.23-1.002-1.478.512-1.492-1.835m23.638 1.588l-.048.007m-.017-.03l.003.376-4.456 2.09.63 1.494-.406.395-4.024-1.305.074-4.15-.693-1.457-1.69-.211m-46.15 2.708l-.351 8.381-1.635-.052-1.27-1.692-1.507-5.71-1.521-1.421-.664-3.15-1.597-2.265-.129-2.634m57.133 11.653l-3.578 3.027-2.919-1.261-.362-1.29-1.96-.398-1.3-2.368m-3.71-.49l-1.394.479 4.437 9.027-.15.12-1.446 1.135.317 1.074-5.815-.146-1.644-.036.248-10.331m25.202 7.637l-.202.085.186-1.03.016.945m3.289-1.093l3.195-1.158-7.229 4.763.175-.365.677-1.47 1.334-.116 1.848-1.654m4.563-6.65l-1.112-.591m-4.41-.52l.8 1.963 3.486 2.883-4.163 2.207-2.23-2.343-1.72-1.125m7.621-3.68l-.12 1.858-1.872-.635-.4-1.197m-13.236 5.771l-2.793 4.125-.461.64-4.105-.947m-15.97-9.156l-.36 10.98-9.7.189.027-3.244.266-8.12m-.266 8.12l-11.87-.343m54.96-3.236l-1.229.6 1.126 1.793-5.495.808 1.727 1.323-3.738 2.56-.305-.243-.927-1.165-3.68-.559m11.009 1.899l-1.963 2.702.247-1.452 1.716-1.25m-6.097.068l1.356.281-.468 1.373-1.193-1.897m6.945-.185l.175-.365m.368-2.062l-.539.597-1.956 1.183-.95-1.485m3.768-2.131l-.137.806m-25.434 3.639l-7.743-.203-.314 13.076-.035 1.598-2.61-.105-6.32-.28-.587-.875-1.425.954-.787-1.407.52-2.588-1.811-3.024-1.935-.444-2.652-2.733-.782-3.425-.906-.235-1.525-2.963-2.01-1m49.875 5.554l.047.075m.78 1.245l-.78-1.245 2.66-2.631-.052 1.492-1.827 2.384-.018.028-.091.155-.814 1.319-1.36-1.108-3.61.72-2.437-.515-2.7-1.335.092-1.134-1.384-1.168m-5.815-.146l-.3 14.787-4.856-.17.05-1.45-4.595-.33m16.9-11.523l-2.286 2.01-.226 4.633-1.956-.04-.12 6.963-2.911-.093m17.873-8.263l1.505-1.92-2.091 3.943.586-2.023m1.754-2.32l.087-.357-.087.357.087-.357m-1.295-.635l-.091.155m-5.784.93l1.72.019.902 2.3 1.27.405-1.222 2.507-8.579-.096-1.648-1.475m11.944 1.305l-.416-.1.416.1-2.167 5.516-.216-.004.08-1.762 1.887-3.85m-1.3.366l-1.566 4.445-1.558.825.72-2.422-2.46 1.584-1.979-1.86 1.154 2.404-1.918.053-3.514 1.313-1.184-.99m-7.766-.263l.85 3.93.811.011-.206 5.038-8.918-.292.273-8.974m-.273 8.974l-1.017 2.022-2.729 1.826-1.487-5.087-2.853-3.395.428-2.864-.4-1.677m35.675 12.315l.302.92-.332-.002-.422-1.392.452.474-.83-1.399-.349-3.02.19-.173.99 4.592m-.535-11.666l-.533 3.278.077 3.796-.279-4.79.324-1.658.195-.63m-6.94-.217l2.148.174 1.693.899 2.047-.592-.461 2.725-.4 1.832-1.438.77.087 2.78 1.258 1.274.425 2.917-7.021-.088-1.607-.288-.405-3.145.16-7.945m-.16 7.945l-5.625-.168-1.71-.051m1.71.05l-4.728 9.618-1.512.28-2.094-2.41-5.144-1.257.35-.917-1.246-1.808m20.404-.192l-.848 3.006 2.39.328-.032 1.584-.095 5.146-5.607.194-3.231-2.012-.963-1.261-2.372-.681m21.596-5.903l-.072-.002.072.002-.072-.002m.495.005l.526 1.737-.143-.129-1.13-.872.415-.738m-2.3-.026l.29 1.578-.033 1.365-.353.562.944.018-.999 1.579-1.34.444-5.628-1.004m7.967-1.019l1.555 4.008-.292 1.33 1.716 1.13-.71 1.784-2.144 1.057.018 1.26-2.483-.895-3.09-2.847-2.632-.662m10.784-6.147l-.217-.003.217.003-.217-.003m-54.644-190.816l-.45 8.315-.003.043-8.035-.455m22.84 35.69l-.754-.133-.337 7.4-7.234-.32m32.363-3.47l-.118 4.642-8.156-.192m-11.648 43.61l-.316 7.582-8.152-.344m-53.518 4.66l-6.151 4.264-1.605-.127-16.891-5.584m38.521-99.088l.606-8.37.585.044m-1.637 14.263l.446-5.937m13.656-7.46l1.923.12m-14.388-.986l12.465.866m15.988.967l1.946.096m-9.95-.552l8.004.456m-14.065-.847l6.061.391m16.01.861l8.052.356m-14.112-.665l6.06.31m7.754 8.72l-.14 3.3m.438-11.665l-.298 8.366m-.14 3.298l-.207 4.921m0 0l-8.108-.368m-23.848-9.573l-.517 8.044m0 0l-13.198-.82m0 0l.168-2.199m37.395 4.548l-.376 8.213m0 0l-8.278-.404m31.199 34.936l-8.026-.297" vector-effect="non-scaling-stroke" fill="inherit" stroke="inherit" stroke-width="inherit"/></svg>