<?xml version="1.0" standalone="yes"?>
<svg xmlns="http://www.w3.org/2000/svg" version="1.2" id="root" viewBox="243.62918336120197 214.45244088140475 83.1913854992473 104.44733882337744"><g id="counties"><path id="county-49005" class="county feature" d="M295.9053458597972,220.47636550018115L295.4554613627541,223.20904035871024L296.03691646522867,226.62062710945122L295.35906196254996,229.3119739438173L294.10437010227054,231.17020210680198L291.9915735185465,230.71190443056832L291.0066162906413,231.55427669381174L288.97942180906057,230.25136249051877L288.89925024903414,228.0929836991428L287.9956982687371,228.0311646832157L287.5663893622565,224.8022351145563L288.07266792127234,221.7741286687334L286.95905635804127,219.0065343660998L287.7145145618954,219.13708142644577Z" style="fill: inherit; stroke: inherit; stroke-width: inherit;" vector-effect="non-scaling-stroke"><title>Cache County</title></path><path id="county-49033" class="county feature" d="M302.1854206343752,221.45368051541288L300.94918641123934,229.29170781360108L299.9659764360922,235.38721877092337L296.64129079779843,236.90308949865755L297.439531791051,235.72914425185252L296.3694883497488,232.80624578998538L295.1522330724765,232.51743162249966L294.10437010227054,231.17020210680198L295.35906196254996,229.3119739438173L296.03691646522867,226.62062710945122L295.4554613627541,223.20904035871024L295.9053458597972,220.47636550018115Z" style="fill: inherit; stroke: inherit; stroke-width: inherit;" vector-effect="non-scaling-stroke"><title>Rich County</title></path><path id="county-49003" class="county feature" d="M288.97942180906057,230.25136249051877L287.99968608232916,229.94417907047466L286.73835706796865,231.58920557665408L283.8700579925135,231.0924673795946L279.5224347320402,235.30429000298852L275.0646299840323,235.9781064759694L257.9806384091274,232.81739842586433L261.5143753321245,214.45244088140475L275.62126287079593,216.99664084530673L286.95905635804127,219.0065343660998L288.07266792127234,221.7741286687334L287.5663893622565,224.8022351145563L287.9956982687371,228.0311646832157L288.89925024903414,228.0929836991428Z" style="fill: inherit; stroke: inherit; stroke-width: inherit;" vector-effect="non-scaling-stroke"><title>Box Elder County</title></path><path id="county-49057" class="county feature" d="M288.97942180906057,230.25136249051877L291.0066162906413,231.55427669381174L291.9915735185465,230.71190443056832L294.10437010227054,231.17020210680198L295.1522330724765,232.51743162249966L293.7017940759447,234.84624470567837L291.3600970932245,235.24002093668196L289.41433244620396,234.3480030787316L288.4841436259134,235.6549733632579L283.9475948481552,234.61818630179914L279.5224347320402,235.30429000298852L283.8700579925135,231.0924673795946L286.73835706796865,231.58920557665408L287.99968608232916,229.94417907047466Z" style="fill: inherit; stroke: inherit; stroke-width: inherit;" vector-effect="non-scaling-stroke"><title>Weber County</title></path><path id="county-49029" class="county feature" d="M296.64129079779843,236.90308949865755L293.0321097560507,237.86717532180376L291.6541367813718,238.9785030464052L292.812435484394,241.70797146684572L291.61307274708736,243.0165661750966L290.3935715017544,242.4649728259442L289.2412150944845,241.08844997325036L288.4762048484434,239.1181965797757L288.4841436259134,235.6549733632579L289.41433244620396,234.3480030787316L291.3600970932245,235.24002093668196L293.7017940759447,234.84624470567837L295.1522330724765,232.51743162249966L296.3694883497488,232.80624578998538L297.439531791051,235.72914425185252Z" style="fill: inherit; stroke: inherit; stroke-width: inherit;" vector-effect="non-scaling-stroke"><title>Morgan County</title></path><path id="county-49043" class="county feature" d="M299.9659764360922,235.38721877092337L299.2076735858449,240.10525532134147L313.0015330486691,242.23833440601516L313.6566089341822,242.33570507513184L313.14807965555985,245.76278600734577L309.59279945015464,244.81493653253608L307.89270215865747,245.4562909068402L303.8405347542923,245.74150698847973L302.56245327559253,245.4080443751825L300.26916013880304,246.37163526615143L298.27971974304234,247.96649658422325L296.4850673085698,248.22337750480233L293.6457876317365,246.24758874929898L293.4889894450656,245.0491735027107L291.88235483704364,246.52782606548362L291.0324910345739,246.19294896300312L290.3935715017544,242.4649728259442L291.61307274708736,243.0165661750966L292.812435484394,241.70797146684572L291.6541367813718,238.9785030464052L293.0321097560507,237.86717532180376L296.64129079779843,236.90308949865755Z" style="fill: inherit; stroke: inherit; stroke-width: inherit;" vector-effect="non-scaling-stroke"><title>Summit County</title></path><path id="county-49011" class="county feature" d="M288.4841436259134,235.6549733632579L288.4762048484434,239.1181965797757L289.2412150944845,241.08844997325036L286.31824944699036,241.3384312905954L285.73011159775695,239.3363376708678L281.7046991443741,241.4821834779616L279.5224347320402,235.30429000298852L283.9475948481552,234.61818630179914Z" style="fill: inherit; stroke: inherit; stroke-width: inherit;" vector-effect="non-scaling-stroke"><title>Davis County</title></path><path id="county-49045" class="county feature" d="M281.7046991443741,241.4821834779616L282.29404446512365,242.68648304711394L281.98205258137097,247.38752649236403L281.41258399610285,247.44768716776196L281.116998973809,250.29783705551733L281.4284252258826,252.9475194448769L280.4388404441256,255.82796047054967L277.8265118342449,257.43127751224085L271.4455366078347,256.32693639946854L254.02195609661814,253.04216327817323L254.7722670669392,249.13831805773611L257.9806384091274,232.81739842586433L275.0646299840323,235.9781064759694L279.5224347320402,235.30429000298852Z" style="fill: inherit; stroke: inherit; stroke-width: inherit;" vector-effect="non-scaling-stroke"><title>Tooele County</title></path><path id="county-49009" class="county feature" d="M325.9507550076046,250.64370798854543L324.46117595676174,249.86294041499195L324.3232408821973,246.5186986398072L321.6785150347282,246.15641487434596L320.1182813022656,248.19161378539218L319.0079212433122,246.39720592351023L314.8227918596241,246.9601531748707L313.46069220790685,245.88379197466372L313.14807965555985,245.76278600734577L313.6566089341822,242.33570507513184L326.82056886044927,244.16458121615244Z" style="fill: inherit; stroke: inherit; stroke-width: inherit;" vector-effect="non-scaling-stroke"><title>Daggett County</title></path><path id="county-49035" class="county feature" d="M289.2412150944845,241.08844997325036L290.3935715017544,242.4649728259442L291.0324910345739,246.19294896300312L290.36591958987015,246.69809304207593L287.90186723460124,247.20294672256045L284.4626170385246,248.81318990226453L283.9066855805279,247.7989087681882L281.98205258137097,247.38752649236403L282.29404446512365,242.68648304711394L281.7046991443741,241.4821834779616L285.73011159775695,239.3363376708678L286.31824944699036,241.3384312905954Z" style="fill: inherit; stroke: inherit; stroke-width: inherit;" vector-effect="non-scaling-stroke"><title>Salt Lake County</title></path><path id="county-49047" class="county feature" d="M325.9507550076046,250.64370798854543L324.8045626695129,258.68056522835116L323.3491984838075,269.1752909022557L322.9290839464751,272.2154606488406L322.0498113734544,272.773504264027L309.07903782936876,270.91462818047694L309.0992849516513,270.77840906942413L309.1755894403233,268.9419342720896L310.17094236139667,266.4877040010924L311.99079078868715,264.7894759020801L310.8306410950525,264.61314072991956L313.46069220790685,245.88379197466372L314.8227918596241,246.9601531748707L319.0079212433122,246.39720592351023L320.1182813022656,248.19161378539218L321.6785150347282,246.15641487434596L324.3232408821973,246.5186986398072L324.46117595676174,249.86294041499195Z" style="fill: inherit; stroke: inherit; stroke-width: inherit;" vector-effect="non-scaling-stroke"><title>Uintah County</title></path><path id="county-49013" class="county feature" d="M313.14807965555985,245.76278600734577L313.46069220790685,245.88379197466372L310.8306410950525,264.61314072991956L298.3367928798533,262.58096417602167L298.1128946253315,260.89242752664313L300.26916013880304,246.37163526615143L302.56245327559253,245.4080443751825L303.8405347542923,245.74150698847973L307.89270215865747,245.4562909068402L309.59279945015464,244.81493653253608Z" style="fill: inherit; stroke: inherit; stroke-width: inherit;" vector-effect="non-scaling-stroke"><title>Duchesne County</title></path><path id="county-49051" class="county feature" d="M300.26916013880304,246.37163526615143L298.1128946253315,260.89242752664313L295.44904988282235,260.4483519457177L295.5669747143168,259.64703232921613L293.61946304525577,257.11378552473445L294.24496740568486,255.15494677190054L293.3558367557267,252.7150868806873L291.8032145864888,252.47510753773076L290.250662817897,250.77258728808772L289.6039166639389,249.00995967522977L290.36591958987015,246.69809304207593L291.0324910345739,246.19294896300312L291.88235483704364,246.52782606548362L293.4889894450656,245.0491735027107L293.6457876317365,246.24758874929898L296.4850673085698,248.22337750480233L298.27971974304234,247.96649658422325Z" style="fill: inherit; stroke: inherit; stroke-width: inherit;" vector-effect="non-scaling-stroke"><title>Wasatch County</title></path><path id="county-49049" class="county feature" d="M298.1128946253315,260.89242752664313L298.3367928798533,262.58096417602167L292.86812359348676,261.6931707327842L287.359953031096,260.7942583885963L285.1678128544422,257.8630054493651L282.732981461842,260.12956093902153L280.95751454869037,260.31199204837617L281.8210956502739,258.3447159462264L280.4388404441256,255.82796047054967L281.4284252258826,252.9475194448769L281.116998973809,250.29783705551733L281.41258399610285,247.44768716776196L281.98205258137097,247.38752649236403L283.9066855805279,247.7989087681882L284.4626170385246,248.81318990226453L287.90186723460124,247.20294672256045L290.36591958987015,246.69809304207593L289.6039166639389,249.00995967522977L290.250662817897,250.77258728808772L291.8032145864888,252.47510753773076L293.3558367557267,252.7150868806873L294.24496740568486,255.15494677190054L293.61946304525577,257.11378552473445L295.5669747143168,259.64703232921613L295.44904988282235,260.4483519457177Z" style="fill: inherit; stroke: inherit; stroke-width: inherit;" vector-effect="non-scaling-stroke"><title>Utah County</title></path><path id="county-49023" class="county feature" d="M280.4388404441256,255.82796047054967L281.8210956502739,258.3447159462264L280.95751454869037,260.31199204837617L282.732981461842,260.12956093902153L285.1678128544422,257.8630054493651L287.359953031096,260.7942583885963L287.9058539185374,262.2763627914926L285.89555449758586,262.81263238073825L285.24376330103235,267.18479532037986L284.5279511907918,268.5436284061559L282.04886748214324,268.152404604544L280.52655303515024,269.17502866829943L278.0382071435283,268.45956041997454L278.4174098025886,264.23286885358084L252.719310941375,259.76552504524057L254.02195609661814,253.04216327817323L271.4455366078347,256.32693639946854L277.8265118342449,257.43127751224085Z" style="fill: inherit; stroke: inherit; stroke-width: inherit;" vector-effect="non-scaling-stroke"><title>Juab County</title></path><path id="county-49007" class="county feature" d="M298.3367928798533,262.58096417602167L310.8306410950525,264.61314072991956L311.99079078868715,264.7894759020801L310.17094236139667,266.4877040010924L309.1755894403233,268.9419342720896L309.0992849516513,270.77840906942413L294.23736201069084,268.473890701207L293.8941745669853,265.6643936015138L292.5409384484677,263.7150701319408L292.86812359348676,261.6931707327842Z" style="fill: inherit; stroke: inherit; stroke-width: inherit;" vector-effect="non-scaling-stroke"><title>Carbon County</title></path><path id="county-49039" class="county feature" d="M292.86812359348676,261.6931707327842L292.5409384484677,263.7150701319408L291.8362949659495,268.13372092444706L291.0725489249255,268.00786179967963L289.7832457492807,276.10787001568326L281.9245056484358,274.79489026174235L279.6957768277921,274.181447436721L280.52655303515024,269.17502866829943L282.04886748214324,268.152404604544L284.5279511907918,268.5436284061559L285.24376330103235,267.18479532037986L285.89555449758586,262.81263238073825L287.9058539185374,262.2763627914926L287.359953031096,260.7942583885963Z" style="fill: inherit; stroke: inherit; stroke-width: inherit;" vector-effect="non-scaling-stroke"><title>Sanpete County</title></path><path id="county-49015" class="county feature" d="M309.0992849516513,270.77840906942413L309.07903782936876,270.91462818047694L309.1440996893094,271.7678570478573L306.91934361650897,276.4450771372832L305.4504254999124,281.7561612279852L306.30914747272953,283.95143447018074L306.397659349577,288.8484704638697L288.0822912390106,285.9996789030273L288.1131511327379,285.80971171816736L289.7832457492807,276.10787001568326L291.0725489249255,268.00786179967963L291.8362949659495,268.13372092444706L292.5409384484677,263.7150701319408L293.8941745669853,265.6643936015138L294.23736201069084,268.473890701207Z" style="fill: inherit; stroke: inherit; stroke-width: inherit;" vector-effect="non-scaling-stroke"><title>Emery County</title></path><path id="county-49027" class="county feature" d="M280.52655303515024,269.17502866829943L279.6957768277921,274.181447436721L276.1354489041613,277.01820307920855L275.781715921365,279.5884093050838L274.31999084662726,280.31950744414826L272.3754557761453,279.8864618492032L271.06085884920606,281.74061488093014L249.2373028485996,277.7165962263409L249.60901544194428,275.78290206433644L252.719310941375,259.76552504524057L278.4174098025886,264.23286885358084L278.0382071435283,268.45956041997454Z" style="fill: inherit; stroke: inherit; stroke-width: inherit;" vector-effect="non-scaling-stroke"><title>Millard County</title></path><path id="county-49019" class="county feature" d="M322.9290839464751,272.2154606488406L322.59608444295304,274.6627203048863L320.23051031631996,290.8329359390259L306.397659349577,288.8484704638697L306.30914747272953,283.95143447018074L305.4504254999124,281.7561612279852L306.91934361650897,276.4450771372832L309.1440996893094,271.7678570478573L309.07903782936876,270.91462818047694L322.0498113734544,272.773504264027Z" style="fill: inherit; stroke: inherit; stroke-width: inherit;" vector-effect="non-scaling-stroke"><title>Grand County</title></path><path id="county-49041" class="county feature" d="M289.7832457492807,276.10787001568326L288.1131511327379,285.80971171816736L281.5070370261473,284.87718485095206L270.811317411402,282.89182815304696L271.06085884920606,281.74061488093014L272.3754557761453,279.8864618492032L274.31999084662726,280.31950744414826L275.781715921365,279.5884093050838L276.1354489041613,277.01820307920855L279.6957768277921,274.181447436721L281.9245056484358,274.79489026174235Z" style="fill: inherit; stroke: inherit; stroke-width: inherit;" vector-effect="non-scaling-stroke"><title>Sevier County</title></path><path id="county-49001" class="county feature" d="M271.06085884920606,281.74061488093014L270.811317411402,282.89182815304696L272.8370713067978,286.6500810617914L272.19240741015045,288.5953973247664L270.70699223210306,289.76473732777833L270.19967212734537,289.7263719301169L247.72686805553434,285.5740618966804L249.2373028485996,277.7165962263409Z" style="fill: inherit; stroke: inherit; stroke-width: inherit;" vector-effect="non-scaling-stroke"><title>Beaver County</title></path><path id="county-49031" class="county feature" d="M281.5070370261473,284.87718485095206L280.09769171169785,286.1145045652248L279.32358732211094,291.2168296575204L270.70699223210306,289.76473732777833L272.19240741015045,288.5953973247664L272.8370713067978,286.6500810617914L270.811317411402,282.89182815304696Z" style="fill: inherit; stroke: inherit; stroke-width: inherit;" vector-effect="non-scaling-stroke"><title>Piute County</title></path><path id="county-49055" class="county feature" d="M288.1131511327379,285.80971171816736L288.0822912390106,285.9996789030273L306.397659349577,288.8484704638697L306.1705063425685,291.3677174853947L307.4897038239101,294.91426482527686L306.83685096555723,295.55014132569886L285.4683862414081,292.25905763583046L279.32358732211094,291.2168296575204L280.09769171169785,286.1145045652248L281.5070370261473,284.87718485095206Z" style="fill: inherit; stroke: inherit; stroke-width: inherit;" vector-effect="non-scaling-stroke"><title>Wayne County</title></path><path id="county-49037" class="county feature" d="M320.23051031631996,290.8329359390259L319.5875308598718,297.34998316527685L318.89674898141925,302.4289251044761L317.8478058885994,309.83280310491887L316.568866500655,318.8997797047822L302.5895663413187,316.91872760778085L291.6555957481746,315.1517747060069L281.9969155042004,313.63997511774744L285.7176463458154,312.31075878355716L288.93654674239247,312.4305450247523L291.2613932085781,309.43854073824116L292.8995137557153,308.77165160530683L293.0334743745564,306.78823933724675L294.73670369709896,305.3672896385683L297.4369512011914,303.2496165900151L299.2024963169164,299.5889334079392L301.96519780633196,299.7847115262583L305.5269864003059,296.16212680128626L306.83685096555723,295.55014132569886L307.4897038239101,294.91426482527686L306.1705063425685,291.3677174853947L306.397659349577,288.8484704638697Z" style="fill: inherit; stroke: inherit; stroke-width: inherit;" vector-effect="non-scaling-stroke"><title>San Juan County</title></path><path id="county-49017" class="county feature" d="M306.83685096555723,295.55014132569886L305.5269864003059,296.16212680128626L301.96519780633196,299.7847115262583L299.2024963169164,299.5889334079392L297.4369512011914,303.2496165900151L294.73670369709896,305.3672896385683L269.9079827101933,301.3691375231293L265.27479106352587,300.4259040492967L266.05704063323867,295.5349235162515L267.6485953491733,295.8410336731147L267.7800913438733,294.2194795301182L269.5138215250419,294.52303086191375L270.19967212734537,289.7263719301169L270.70699223210306,289.76473732777833L279.32358732211094,291.2168296575204L285.4683862414081,292.25905763583046Z" style="fill: inherit; stroke: inherit; stroke-width: inherit;" vector-effect="non-scaling-stroke"><title>Garfield County</title></path><path id="county-49021" class="county feature" d="M270.19967212734537,289.7263719301169L269.5138215250419,294.52303086191375L267.7800913438733,294.2194795301182L267.6485953491733,295.8410336731147L266.05704063323867,295.5349235162515L265.27479106352587,300.4259040492967L262.1357020022934,299.86132995433024L261.990028001048,300.6718789253341L259.94115045685004,300.78488458035645L256.84204982619656,300.07346889441305L257.0061471442027,299.20862427827194L253.81776465733742,298.61750358301595L254.11539965222323,296.9594119939462L252.44032498895513,296.90655231741823L245.75496360063693,295.63714653618604L247.72686805553434,285.5740618966804Z" style="fill: inherit; stroke: inherit; stroke-width: inherit;" vector-effect="non-scaling-stroke"><title>Iron County</title></path><path id="county-49053" class="county feature" d="M261.990028001048,300.6718789253341L260.3503546278894,309.9450959026227L243.62918336120197,306.834545538061L245.75496360063693,295.63714653618604L252.44032498895513,296.90655231741823L254.11539965222323,296.9594119939462L253.81776465733742,298.61750358301595L257.0061471442027,299.20862427827194L256.84204982619656,300.07346889441305L259.94115045685004,300.78488458035645Z" style="fill: inherit; stroke: inherit; stroke-width: inherit;" vector-effect="non-scaling-stroke"><title>Washington County</title></path><path id="county-49025" class="county feature" d="M265.27479106352587,300.4259040492967L269.9079827101933,301.3691375231293L294.73670369709896,305.3672896385683L293.0334743745564,306.78823933724675L292.8995137557153,308.77165160530683L291.2613932085781,309.43854073824116L288.93654674239247,312.4305450247523L285.7176463458154,312.31075878355716L281.9969155042004,313.63997511774744L265.5661459957736,310.86606466423905L260.3503546278894,309.9450959026227L261.990028001048,300.6718789253341L262.1357020022934,299.86132995433024Z" style="fill: inherit; stroke: inherit; stroke-width: inherit;" vector-effect="non-scaling-stroke"><title>Kane County</title></path></g><path id="counties-mesh" class="counties mesh" d="M295.9053458597972,220.47636550018115L295.4554613627541,223.20904035871024L296.03691646522867,226.62062710945122L295.35906196254996,229.3119739438173L294.10437010227054,231.17020210680198L291.9915735185465,230.71190443056832L291.0066162906413,231.55427669381174L288.97942180906057,230.25136249051877L288.89925024903414,228.0929836991428L287.9956982687371,228.0311646832157L287.5663893622565,224.8022351145563L288.07266792127234,221.7741286687334L286.95905635804127,219.0065343660998M288.97942180906057,230.25136249051877L287.99968608232916,229.94417907047466L286.73835706796865,231.58920557665408L283.8700579925135,231.0924673795946L279.5224347320402,235.30429000298852L275.0646299840323,235.9781064759694L257.9806384091274,232.81739842586433L261.5143753321245,214.45244088140475L275.62126287079593,216.99664084530673L286.95905635804127,219.0065343660998L287.7145145618954,219.13708142644577L295.9053458597972,220.47636550018115L302.1854206343752,221.45368051541288L300.94918641123934,229.29170781360108L299.9659764360922,235.38721877092337L296.64129079779843,236.90308949865755L297.439531791051,235.72914425185252L296.3694883497488,232.80624578998538L295.1522330724765,232.51743162249966L294.10437010227054,231.17020210680198M281.7046991443741,241.4821834779616L282.29404446512365,242.68648304711394L281.98205258137097,247.38752649236403L281.41258399610285,247.44768716776196L281.116998973809,250.29783705551733L281.4284252258826,252.9475194448769L280.4388404441256,255.82796047054967L277.8265118342449,257.43127751224085L271.4455366078347,256.32693639946854L254.02195609661814,253.04216327817323L254.7722670669392,249.13831805773611L257.9806384091274,232.81739842586433M289.2412150944845,241.08844997325036L286.31824944699036,241.3384312905954L285.73011159775695,239.3363376708678L281.7046991443741,241.4821834779616L279.5224347320402,235.30429000298852M296.64129079779843,236.90308949865755L293.0321097560507,237.86717532180376L291.6541367813718,238.9785030464052L292.812435484394,241.70797146684572L291.61307274708736,243.0165661750966L290.3935715017544,242.4649728259442L289.2412150944845,241.08844997325036L288.4762048484434,239.1181965797757L288.4841436259134,235.6549733632579M313.6566089341822,242.33570507513184L313.14807965555985,245.76278600734577L309.59279945015464,244.81493653253608L307.89270215865747,245.4562909068402L303.8405347542923,245.74150698847973L302.56245327559253,245.4080443751825L300.26916013880304,246.37163526615143L298.27971974304234,247.96649658422325L296.4850673085698,248.22337750480233L293.6457876317365,246.24758874929898L293.4889894450656,245.0491735027107L291.88235483704364,246.52782606548362L291.0324910345739,246.19294896300312L290.3935715017544,242.4649728259442M325.9507550076046,250.64370798854543L324.46117595676174,249.86294041499195L324.3232408821973,246.5186986398072L321.6785150347282,246.15641487434596L320.1182813022656,248.19161378539218L319.0079212433122,246.39720592351023L314.8227918596241,246.9601531748707L313.46069220790685,245.88379197466372L313.14807965555985,245.76278600734577M291.0324910345739,246.19294896300312L290.36591958987015,246.69809304207593L287.90186723460124,247.20294672256045L284.4626170385246,248.81318990226453L283.9066855805279,247.7989087681882L281.98205258137097,247.38752649236403M299.9659764360922,235.38721877092337L299.2076735858449,240.10525532134147L313.0015330486691,242.23833440601516L313.6566089341822,242.33570507513184L326.82056886044927,244.16458121615244L325.9507550076046,250.64370798854543L324.8045626695129,258.68056522835116L323.3491984838075,269.1752909022557L322.9290839464751,272.2154606488406L322.0498113734544,272.773504264027L309.07903782936876,270.91462818047694L309.0992849516513,270.77840906942413L309.1755894403233,268.9419342720896L310.17094236139667,266.4877040010924L311.99079078868715,264.7894759020801L310.8306410950525,264.61314072991956L313.46069220790685,245.88379197466372M310.8306410950525,264.61314072991956L298.3367928798533,262.58096417602167L298.1128946253315,260.89242752664313L300.26916013880304,246.37163526615143M298.1128946253315,260.89242752664313L295.44904988282235,260.4483519457177L295.5669747143168,259.64703232921613L293.61946304525577,257.11378552473445L294.24496740568486,255.15494677190054L293.3558367557267,252.7150868806873L291.8032145864888,252.47510753773076L290.250662817897,250.77258728808772L289.6039166639389,249.00995967522977L290.36591958987015,246.69809304207593M298.3367928798533,262.58096417602167L292.86812359348676,261.6931707327842L287.359953031096,260.7942583885963L285.1678128544422,257.8630054493651L282.732981461842,260.12956093902153L280.95751454869037,260.31199204837617L281.8210956502739,258.3447159462264L280.4388404441256,255.82796047054967M279.6957768277921,274.181447436721L276.1354489041613,277.01820307920855L275.781715921365,279.5884093050838L274.31999084662726,280.31950744414826L272.3754557761453,279.8864618492032L271.06085884920606,281.74061488093014L249.2373028485996,277.7165962263409L249.60901544194428,275.78290206433644L252.719310941375,259.76552504524057L254.02195609661814,253.04216327817323M287.359953031096,260.7942583885963L287.9058539185374,262.2763627914926L285.89555449758586,262.81263238073825L285.24376330103235,267.18479532037986L284.5279511907918,268.5436284061559L282.04886748214324,268.152404604544L280.52655303515024,269.17502866829943L278.0382071435283,268.45956041997454L278.4174098025886,264.23286885358084L252.719310941375,259.76552504524057M309.0992849516513,270.77840906942413L294.23736201069084,268.473890701207L293.8941745669853,265.6643936015138L292.5409384484677,263.7150701319408L292.86812359348676,261.6931707327842M292.5409384484677,263.7150701319408L291.8362949659495,268.13372092444706L291.0725489249255,268.00786179967963L289.7832457492807,276.10787001568326L281.9245056484358,274.79489026174235L279.6957768277921,274.181447436721L280.52655303515024,269.17502866829943M309.07903782936876,270.91462818047694L309.1440996893094,271.7678570478573L306.91934361650897,276.4450771372832L305.4504254999124,281.7561612279852L306.30914747272953,283.95143447018074L306.397659349577,288.8484704638697L288.0822912390106,285.9996789030273L288.1131511327379,285.80971171816736L289.7832457492807,276.10787001568326M288.1131511327379,285.80971171816736L281.5070370261473,284.87718485095206L270.811317411402,282.89182815304696L271.06085884920606,281.74061488093014M261.990028001048,300.6718789253341L260.3503546278894,309.9450959026227L243.62918336120197,306.834545538061L245.75496360063693,295.63714653618604L247.72686805553434,285.5740618966804L249.2373028485996,277.7165962263409M270.811317411402,282.89182815304696L272.8370713067978,286.6500810617914L272.19240741015045,288.5953973247664L270.70699223210306,289.76473732777833L270.19967212734537,289.7263719301169L247.72686805553434,285.5740618966804M281.5070370261473,284.87718485095206L280.09769171169785,286.1145045652248L279.32358732211094,291.2168296575204L270.70699223210306,289.76473732777833M322.9290839464751,272.2154606488406L322.59608444295304,274.6627203048863L320.23051031631996,290.8329359390259L306.397659349577,288.8484704638697L306.1705063425685,291.3677174853947L307.4897038239101,294.91426482527686L306.83685096555723,295.55014132569886L285.4683862414081,292.25905763583046L279.32358732211094,291.2168296575204M320.23051031631996,290.8329359390259L319.5875308598718,297.34998316527685L318.89674898141925,302.4289251044761L317.8478058885994,309.83280310491887L316.568866500655,318.8997797047822L302.5895663413187,316.91872760778085L291.6555957481746,315.1517747060069L281.9969155042004,313.63997511774744L285.7176463458154,312.31075878355716L288.93654674239247,312.4305450247523L291.2613932085781,309.43854073824116L292.8995137557153,308.77165160530683L293.0334743745564,306.78823933724675L294.73670369709896,305.3672896385683L297.4369512011914,303.2496165900151L299.2024963169164,299.5889334079392L301.96519780633196,299.7847115262583L305.5269864003059,296.16212680128626L306.83685096555723,295.55014132569886M294.73670369709896,305.3672896385683L269.9079827101933,301.3691375231293L265.27479106352587,300.4259040492967L266.05704063323867,295.5349235162515L267.6485953491733,295.8410336731147L267.7800913438733,294.2194795301182L269.5138215250419,294.52303086191375L270.19967212734537,289.7263719301169M265.27479106352587,300.4259040492967L262.1357020022934,299.86132995433024L261.990028001048,300.6718789253341L259.94115045685004,300.78488458035645L256.84204982619656,300.07346889441305L257.0061471442027,299.20862427827194L253.81776465733742,298.61750358301595L254.11539965222323,296.9594119939462L252.44032498895513,296.90655231741823L245.75496360063693,295.63714653618604M281.9969155042004,313.63997511774744L265.5661459957736,310.86606466423905L260.3503546278894,309.9450959026227M295.1522330724765,232.51743162249966L293.7017940759447,234.84624470567837L291.3600970932245,235.24002093668196L289.41433244620396,234.3480030787316L288.4841436259134,235.6549733632579L283.9475948481552,234.61818630179914L279.5224347320402,235.30429000298852" style="fill: inherit; stroke: inherit; stroke-width: inherit;" vector-effect="non-scaling-stroke"></path></svg>