<?xml version="1.0" standalone="yes"?>
<svg xmlns="http://www.w3.org/2000/svg" version="1.2" baseProfile="tiny" id="root" viewBox="673.6508806914201 244.70584226790334 152.53815891156572 100.58986145525367"><style>
@import url("../../css/svg.css");</style><rect id="bbox" class="bbox" x="673.6508806914201" y="244.70584226790334" width="152.53815891156572" height="100.58986145525367"></rect><g id="counties"><path id="county-51069" class="county feature" d="M764.4519054566284,265.13319924672885L763.5840291019713,269.6804193052793L761.3880010060188,270.64207808003914L760.7966036276088,269.00449121283214L759.3417288675026,270.64447292073544L757.9795429627686,270.34288976559117L758.3761105496103,269.6562120820968L759.5764964537816,267.91965345321466L759.0482430785705,266.29996916916343L759.8237068761632,264.3030035500825L759.3313945074378,262.2389639818764L761.2557842754375,263.3105512787961ZM762.4188871637059,266.8564402257498L762.4188871637059,266.8564402257498L762.4188871637059,266.8564402257498Z" vector-effect="non-scaling-stroke"><title>Frederick County</title></path><path id="county-51107" class="county feature" d="M772.6908587897674,264.3202738621445L771.9925656590826,265.9392689786281L773.1878076129465,267.07441772514824L775.1551416360746,267.0312028784041L772.9652446335454,271.4963525113568L770.9308769375684,270.0632609739797L766.3441380298735,269.588199191052L767.8080869865792,267.0264315107139L768.6765269258437,263.241942255995L769.2419553402931,263.05534367889913L770.8736213488827,263.1011356810933Z" vector-effect="non-scaling-stroke"><title>Loudoun County</title></path><path id="county-51043" class="county feature" d="M767.8080869865792,267.0264315107139L766.3441380298735,269.588199191052L765.8724614905592,270.3335629038846L763.5840291019713,269.6804193052793L764.4519054566284,265.13319924672885Z" vector-effect="non-scaling-stroke"><title>Clarke County</title></path><path id="county-51840" class="county feature" d="M762.4188871637059,266.8564402257498L762.4188871637059,266.8564402257498L762.4188871637059,266.8564402257498Z" vector-effect="non-scaling-stroke"><title>Winchester City</title></path><path id="county-51171" class="county feature" d="M761.3880010060188,270.64207808003914L761.8103715525028,271.7972149281603L760.9860674122106,274.1256143099167L759.0033382979966,276.2512821743352L758.1432779232599,278.97865943996715L754.3787173498206,276.6365277632366L755.1327988830167,274.11623747544536L756.050404906114,273.6203996079712L757.9795429627686,270.34288976559117L759.3417288675026,270.64447292073544L760.7966036276088,269.00449121283214Z" vector-effect="non-scaling-stroke"><title>Shenandoah County</title></path><path id="county-51059" class="county feature" d="M778.5183009001696,268.71712705794357L777.9314221242473,269.62438412180643L778.3111593712956,269.8879935592321L778.9834166403073,270.3726309514535L780.0249758912588,271.19371868850624L780.4004570559289,272.47669951922126L779.0736465973957,274.2608942986018L777.7714817026397,273.96300285560994L772.9652446335454,271.4963525113568L775.1551416360746,267.0312028784041ZM776.1723722772823,270.44722209327074L776.1723722772823,270.44722209327074L776.1723722772823,270.44722209327074ZM776.2046131198406,270.8735263021389L776.2046131198406,270.8735263021389L776.2046131198406,270.8735263021389Z" vector-effect="non-scaling-stroke"><title>Fairfax County</title></path><path id="county-51187" class="county feature" d="M765.8724614905592,270.3335629038846L764.4920645005286,272.7975838653538L763.8688659484062,274.5335157940001L762.6774238234906,275.1690436650805L760.9860674122106,274.1256143099167L761.8103715525028,271.7972149281603L761.3880010060188,270.64207808003914L763.5840291019713,269.6804193052793Z" vector-effect="non-scaling-stroke"><title>Warren County</title></path><path id="county-51061" class="county feature" d="M770.9308769375684,270.0632609739797L770.4774214710453,272.2723795116957L774.0854143756956,276.8669493102815L773.1492198784678,279.86769187141783L771.7085585358047,280.0889378575323L767.8508354309226,275.39926088698326L764.4920645005286,272.7975838653538L765.8724614905592,270.3335629038846L766.3441380298735,269.588199191052Z" vector-effect="non-scaling-stroke"><title>Fauquier County</title></path><path id="county-51153" class="county feature" d="M772.9652446335454,271.4963525113568L777.7714817026397,273.96300285560994L777.5547911499068,277.1710920795367L775.1656144981005,276.17482618154554L774.0854143756956,276.8669493102815L770.4774214710453,272.2723795116957L770.9308769375684,270.0632609739797ZM774.3188109010682,272.6654880543316L774.0534670336601,272.55063811495415L774.3188109010682,272.6654880543316Z" vector-effect="non-scaling-stroke"><title>Prince William County</title></path><path id="county-51013" class="county feature" d="M779.8782151114319,270.23240627758094L778.9834166403073,270.3726309514535L778.3111593712956,269.8879935592321L777.9314221242473,269.62438412180643L778.5183009001696,268.71712705794357L778.947416287817,269.14727746281017Z" vector-effect="non-scaling-stroke"><title>Arlington County</title></path><path id="county-51610" class="county feature" d="M778.3111593712956,269.8879935592321L777.9314221242473,269.62438412180643L778.3111593712956,269.8879935592321Z" vector-effect="non-scaling-stroke"><title>Falls Church City</title></path><path id="county-51600" class="county feature" d="M776.1723722772823,270.44722209327074L776.1723722772823,270.44722209327074L776.1723722772823,270.44722209327074ZM776.2046131198406,270.8735263021389L776.2046131198406,270.8735263021389L776.2046131198406,270.8735263021389Z" vector-effect="non-scaling-stroke"><title>Fairfax City</title></path><path id="county-51157" class="county feature" d="M767.8508354309226,275.39926088698326L765.0615816012387,279.29199766408556L764.2197884749538,279.22879994625634L762.3792489312119,277.75759870838147L762.6774238234906,275.1690436650805L763.8688659484062,274.5335157940001L764.4920645005286,272.7975838653538Z" vector-effect="non-scaling-stroke"><title>Rappahannock County</title></path><path id="county-51165" class="county feature" d="M754.3787173498206,276.6365277632366L758.1432779232599,278.97865943996715L757.7626882257135,280.86474784962104L760.9899715999933,281.9645648872338L758.9604052315028,285.0957117796505L757.9727324723344,286.64215010939745L750.279579125715,282.8387572411658L751.71322512083,277.13906763207103L752.3192235213684,275.3417233844764ZM755.143746115282,282.2556012755906L755.143746115282,282.2556012755906L755.143746115282,282.2556012755906Z" vector-effect="non-scaling-stroke"><title>Rockingham County</title></path><path id="county-51510" class="county feature" d="M779.8782151114319,270.23240627758094L780.0249758912588,271.19371868850624L778.9834166403073,270.3726309514535Z" vector-effect="non-scaling-stroke"><title>Alexandria City</title></path><path id="county-51139" class="county feature" d="M762.6774238234906,275.1690436650805L762.3792489312119,277.75759870838147L761.2785398588655,280.8751534193972L760.9899715999933,281.9645648872338L757.7626882257135,280.86474784962104L758.1432779232599,278.97865943996715L759.0033382979966,276.2512821743352L760.9860674122106,274.1256143099167Z" vector-effect="non-scaling-stroke"><title>Page County</title></path><path id="county-51685" class="county feature" d="M774.3188109010682,272.6654880543316L774.0534670336601,272.55063811495415L774.3188109010682,272.6654880543316Z" vector-effect="non-scaling-stroke"><title>Manassas Park City</title></path><path id="county-51683" class="county feature" d="M774.0534670336601,272.55063811495415L774.3188109010682,272.6654880543316L774.0534670336601,272.55063811495415Z" vector-effect="non-scaling-stroke"><title>Manassas City</title></path><path id="county-51047" class="county feature" d="M773.1492198784678,279.86769187141783L773.5309733292495,280.5990919136666L772.3514960460552,280.9678465985819L771.259416308119,280.55907716572403L766.9544879020082,282.95327287811983L766.7106357785069,281.4797702870229L764.2197884749538,279.22879994625634L765.0615816012387,279.29199766408556L767.8508354309226,275.39926088698326L771.7085585358047,280.0889378575323Z" vector-effect="non-scaling-stroke"><title>Culpeper County</title></path><path id="county-51113" class="county feature" d="M764.2197884749538,279.22879994625634L766.7106357785069,281.4797702870229L766.9544879020082,282.95327287811983L764.9882016255264,284.8060269503578L764.3509084557741,284.2119331592296L761.9910694038966,282.81945186254063L761.2785398588655,280.8751534193972L762.3792489312119,277.75759870838147Z" vector-effect="non-scaling-stroke"><title>Madison County</title></path><path id="county-51091" class="county feature" d="M749.1964003651077,284.2896904659706L748.0894534459052,288.23165581456396L747.1435078387805,289.08791105073453L742.8232328476197,288.19642696702135L742.4795654479765,287.4589818883095L743.7958674056206,284.86640488499245L743.8800686371923,281.7973893793949L745.5985035932113,282.2863750520295L746.7495801337204,283.85854786607376Z" vector-effect="non-scaling-stroke"><title>Highland County</title></path><path id="county-51179" class="county feature" d="M777.5547911499068,277.1710920795367L777.8253666680513,280.3396806811062L778.1334553883974,282.0476055509033L777.5096430598479,282.14476680095765L776.2764138199951,281.6590306817511L775.0006850387506,281.4367795689835L773.5309733292495,280.5990919136666L773.1492198784678,279.86769187141783L774.0854143756956,276.8669493102815L775.1656144981005,276.17482618154554Z" vector-effect="non-scaling-stroke"><title>Stafford County</title></path><path id="county-51660" class="county feature" d="M755.143746115282,282.2556012755906L755.143746115282,282.2556012755906L755.143746115282,282.2556012755906Z" vector-effect="non-scaling-stroke"><title>Harrisonburg City</title></path><path id="county-51079" class="county feature" d="M764.3509084557741,284.2119331592296L763.4695788790955,286.042354322013L758.9604052315028,285.0957117796505L760.9899715999933,281.9645648872338L761.2785398588655,280.8751534193972L761.9910694038966,282.81945186254063Z" vector-effect="non-scaling-stroke"><title>Greene County</title></path><path id="county-51015" class="county feature" d="M757.9727324723344,286.64215010939745L757.9441320297501,289.06242418388115L757.2241132043182,289.83151987417614L756.6935324090251,291.8217514122324L755.3942508065107,293.34420069499527L753.1868842262661,293.56018294475984L747.8776490140531,290.76508868029543L748.2789183749253,289.2175961259172L747.1435078387805,289.08791105073453L748.0894534459052,288.23165581456396L749.1964003651077,284.2896904659706L750.279579125715,282.8387572411658ZM753.8734864771793,287.65775150778234L753.8734864771793,287.65775150778234L753.8734864771793,287.65775150778234ZM756.1189689707622,289.04233742442386L756.1189689707622,289.04233742442386L756.1189689707622,289.04233742442386Z" vector-effect="non-scaling-stroke"><title>Augusta County</title></path><path id="county-51099" class="county feature" d="M782.2961378064851,280.77628921956443L782.2159770627911,282.80153096031825L782.1806648983529,282.8375971631543L781.4885319548086,283.2075889350706L778.8864583253705,281.8252051857306L778.1334553883974,282.0476055509033L777.8253666680513,280.3396806811062L779.1209214624544,280.1803117574086L781.5962722876595,278.3661954095993Z" vector-effect="non-scaling-stroke"><title>King George County</title></path><path id="county-51137" class="county feature" d="M772.3514960460552,280.9678465985819L769.6349455606062,286.16547499946387L767.4191736795686,285.9201693045361L765.9630770033062,286.56286430097384L763.4695788790955,286.042354322013L764.3509084557741,284.2119331592296L764.9882016255264,284.8060269503578L766.9544879020082,282.95327287811983L771.259416308119,280.55907716572403Z" vector-effect="non-scaling-stroke"><title>Orange County</title></path><path id="county-51177" class="county feature" d="M773.5309733292495,280.5990919136666L775.0006850387506,281.4367795689835L776.2764138199951,281.6590306817511L777.5096430598479,282.14476680095765L774.5573048303945,287.63595352549464L773.8494897628341,287.45013053062144L771.5658843859959,286.1933072339249L769.6349455606062,286.16547499946387L772.3514960460552,280.9678465985819Z" vector-effect="non-scaling-stroke"><title>Spotsylvania County</title></path><path id="county-51630" class="county feature" d="M776.2764138199951,281.6590306817511L775.0006850387506,281.4367795689835L776.2764138199951,281.6590306817511Z" vector-effect="non-scaling-stroke"><title>Fredericksburg City</title></path><path id="county-51003" class="county feature" d="M763.4695788790955,286.042354322013L765.9630770033062,286.56286430097384L764.9946910227936,289.1786775030879L763.0718080416069,293.5634121407239L761.0974715895762,295.14741474166146L757.2241132043182,289.83151987417614L757.9441320297501,289.06242418388115L757.9727324723344,286.64215010939745L758.9604052315028,285.0957117796505ZM762.3768937389252,288.4645292953019L762.3768937389252,288.4645292953019L762.3768937389252,288.4645292953019Z" vector-effect="non-scaling-stroke"><title>Albemarle County</title></path><path id="county-51193" class="county feature" d="M789.6621940038383,284.11531698267595L789.057024379091,285.19223477388914L787.0629125083015,284.92438602688014L784.9921023723068,282.98956224322046L784.3195398138726,283.95354011782183L782.2159770627911,282.80153096031825L782.2961378064851,280.77628921956443L785.3863476853351,282.15434014007724L788.6893093590543,281.7616243490003L790.3830384698101,283.420482216216Z" vector-effect="non-scaling-stroke"><title>Westmoreland County</title></path><path id="county-51017" class="county feature" d="M742.8232328476197,288.19642696702135L747.1435078387805,289.08791105073453L748.2789183749253,289.2175961259172L747.8776490140531,290.76508868029543L746.1566129384755,295.17378515269036L742.6964929475205,295.3634429979337L741.8043230866535,294.3392432862428L740.0729034182302,294.6787954227781L741.0928418139513,292.34472509585896L741.2926710515459,290.0694084653171Z" vector-effect="non-scaling-stroke"><title>Bath County</title></path><path id="county-51033" class="county feature" d="M778.1334553883974,282.0476055509033L778.8864583253705,281.8252051857306L781.4885319548086,283.2075889350706L780.9820932857631,284.6629641247522L782.8343683047462,286.49827045382744L781.3001300740934,287.0715417689456L781.5153823825801,288.1710428580391L779.5489151009192,290.5295916354653L778.7348141363027,290.8739979620441L777.2139917868088,289.18286100000887L774.5573048303945,287.63595352549464L777.5096430598479,282.14476680095765Z" vector-effect="non-scaling-stroke"><title>Caroline County</title></path><path id="county-51790" class="county feature" d="M753.8734864771793,287.65775150778234L753.8734864771793,287.65775150778234L753.8734864771793,287.65775150778234Z" vector-effect="non-scaling-stroke"><title>Staunton City</title></path><path id="county-51057" class="county feature" d="M789.1020160117182,288.9623796930176L788.2889994156924,289.93319551334037L787.3029917557972,288.8603929736114L785.3313378836704,289.48283671248214L784.0164143521101,288.5660522303194L782.8343683047462,286.49827045382744L780.9820932857631,284.6629641247522L781.4885319548086,283.2075889350706L782.1806648983529,282.8375971631543L782.5064243161956,283.81763895443487L784.4778121839429,284.15497313336095L784.9556298775008,285.8740338234983L787.0356582765603,286.98050948745095Z" vector-effect="non-scaling-stroke"><title>Essex County</title></path><path id="county-51109" class="county feature" d="M769.6349455606062,286.16547499946387L771.5658843859959,286.1933072339249L773.8494897628341,287.45013053062144L773.2827007621695,292.9069807265772L771.6594111711064,292.4738417747211L770.7035059039875,291.17032362135296L768.848648749663,290.3994600649936L764.9946910227936,289.1786775030879L765.9630770033062,286.56286430097384L767.4191736795686,285.9201693045361Z" vector-effect="non-scaling-stroke"><title>Louisa County</title></path><path id="county-51159" class="county feature" d="M789.057024379091,285.19223477388914L791.3514606162535,287.1776888612211L789.9330752590781,288.0843425578255L788.6407566473534,288.0489998571013L785.2048168128986,285.52453484945306L784.3195398138726,283.95354011782183L784.9921023723068,282.98956224322046L787.0629125083015,284.92438602688014Z" vector-effect="non-scaling-stroke"><title>Richmond County</title></path><path id="county-51820" class="county feature" d="M756.1189689707622,289.04233742442386L756.1189689707622,289.04233742442386L756.1189689707622,289.04233742442386Z" vector-effect="non-scaling-stroke"><title>Waynesboro City</title></path><path id="county-51163" class="county feature" d="M753.2673643947276,295.229360270544L751.9683133086746,295.6226973764567L751.2417476425949,298.31853298100896L750.065158132263,299.3635711832155L749.4483048598336,301.0815427419567L746.3630947429294,299.1558542850064L746.1706334713402,297.24715494867314L746.1566129384755,295.17378515269036L747.8776490140531,290.76508868029543L753.1868842262661,293.56018294475984ZM749.4260230929219,296.0962599190102L749.4260230929219,296.0962599190102L749.4260230929219,296.0962599190102ZM750.8553615750777,296.5876896412598L750.8553615750777,296.5876896412598L750.8553615750777,296.5876896412598Z" vector-effect="non-scaling-stroke"><title>Rockbridge County</title></path><path id="county-51540" class="county feature" d="M762.3768937389252,288.4645292953019L762.3768937389252,288.4645292953019L762.3768937389252,288.4645292953019Z" vector-effect="non-scaling-stroke"><title>Charlottesville City</title></path><path id="county-51125" class="county feature" d="M761.0974715895762,295.14741474166146L760.4087808495443,297.09130697748196L759.1463150300192,297.25902891421003L759.1022854925552,298.9775061226294L758.5061016729945,299.28707326661754L754.8886967714587,295.59185789445235L753.2673643947276,295.229360270544L753.1868842262661,293.56018294475984L755.3942508065107,293.34420069499527L756.6935324090251,291.8217514122324L757.2241132043182,289.83151987417614Z" vector-effect="non-scaling-stroke"><title>Nelson County</title></path><path id="county-51001" class="county feature" d="M798.2293902220904,283.5173662675278L798.0702947815118,283.54927540262065L798.2293902220904,283.5173662675278ZM797.8339930457089,283.59556737895184L797.7369483801165,283.61730347653565L797.8339930457089,283.59556737895184ZM797.5070214676066,283.6683909824544L797.6132517486677,283.63953533302583L797.5070214676066,283.6683909824544ZM806.0422644081971,282.8834821850917L806.7100193361764,283.0178110827643L804.7991281202518,286.96921842031065L805.0416325284207,289.4408197518525L802.8990193935105,291.2341070041083L802.0360613446912,290.37875502990676L800.5518299316409,290.559782498996L801.8290298979457,286.3022214133799L803.0543356678114,284.7487300624706L803.3956168910004,281.6102201806791L806.7714088631991,280.47338708191637ZM808.392613920626,279.9095375665556L808.6559178890127,279.8168843913759L808.392613920626,279.9095375665556Z" vector-effect="non-scaling-stroke"><title>Accomack County</title></path><path id="county-51133" class="county feature" d="M794.1313043483697,289.2462429548608L792.6731297079402,287.19806807608495L791.3514606162535,287.1776888612211L789.057024379091,285.19223477388914L789.6621940038383,284.11531698267595L791.1435496471533,283.81576015634835L794.9672445139593,285.54988818604795Z" vector-effect="non-scaling-stroke"><title>Northumberland County</title></path><path id="county-51085" class="county feature" d="M774.5573048303945,287.63595352549464L777.2139917868088,289.18286100000887L778.7348141363027,290.8739979620441L779.5489151009192,290.5295916354653L780.5817215458378,291.76581579329013L783.435506522357,292.26519495848424L783.3273586874884,292.8997176733146L782.1575934283594,294.8774199024191L779.3799975475353,294.1023333881112L778.564370620533,292.8243247268505L775.760166444114,292.85572865765243L773.2827007621695,292.9069807265772L773.8494897628341,287.45013053062144Z" vector-effect="non-scaling-stroke"><title>Hanover County</title></path><path id="county-51065" class="county feature" d="M768.0141974814404,293.55608488002497L767.0573653541178,294.8519310338618L763.6140294526027,294.1815465826438L763.0718080416069,293.5634121407239L764.9946910227936,289.1786775030879L768.848648749663,290.3994600649936Z" vector-effect="non-scaling-stroke"><title>Fluvanna County</title></path><path id="county-51097" class="county feature" d="M782.8343683047462,286.49827045382744L784.0164143521101,288.5660522303194L785.3313378836704,289.48283671248214L787.3029917557972,288.8603929736114L788.2889994156924,289.93319551334037L790.155494099534,291.9638310131171L790.0292693170416,294.94989069707947L788.1790245512907,292.6401681959022L783.3384277638613,290.4278415240252L781.5153823825801,288.1710428580391L781.3001300740934,287.0715417689456Z" vector-effect="non-scaling-stroke"><title>King and Queen County</title></path><path id="county-51005" class="county feature" d="M746.1566129384755,295.17378515269036L746.1706334713402,297.24715494867314L743.996592767239,296.8968800830253L741.5447276806747,300.25379862841896L739.916168013611,301.5020169963375L738.7141470382845,301.10714787227596L737.4268282227339,300.09914041020284L738.7855042842898,296.36512335150223L740.0729034182302,294.6787954227781L741.8043230866535,294.3392432862428L742.6964929475205,295.3634429979337ZM741.431248485695,297.17210938846165L741.431248485695,297.17210938846165L741.431248485695,297.17210938846165Z" vector-effect="non-scaling-stroke"><title>Alleghany County</title></path><path id="county-51101" class="county feature" d="M781.5153823825801,288.1710428580391L783.3384277638613,290.4278415240252L788.1790245512907,292.6401681959022L785.7904327611823,293.24720570073737L783.3273586874884,292.8997176733146L783.435506522357,292.26519495848424L780.5817215458378,291.76581579329013L779.5489151009192,290.5295916354653Z" vector-effect="non-scaling-stroke"><title>King William County</title></path><path id="county-51075" class="county feature" d="M775.760166444114,292.85572865765243L775.9381593413198,295.6005348694007L771.3139529512084,294.2620545568002L771.3514732370755,295.29254618792186L769.5846290410688,295.0090120743023L768.0141974814404,293.55608488002497L768.848648749663,290.3994600649936L770.7035059039875,291.17032362135296L771.6594111711064,292.4738417747211L773.2827007621695,292.9069807265772Z" vector-effect="non-scaling-stroke"><title>Goochland County</title></path><path id="county-51103" class="county feature" d="M794.4413357419351,290.7244231946579L791.6661444332963,290.54829200934694L789.9330752590781,288.0843425578255L791.3514606162535,287.1776888612211L792.6731297079402,287.19806807608495L794.1313043483697,289.2462429548608Z" vector-effect="non-scaling-stroke"><title>Lancaster County</title></path><path id="county-51580" class="county feature" d="M741.431248485695,297.17210938846165L741.431248485695,297.17210938846165L741.431248485695,297.17210938846165Z" vector-effect="non-scaling-stroke"><title>Covington City</title></path><path id="county-51009" class="county feature" d="M758.5061016729945,299.28707326661754L756.7274770263778,301.75826903862355L755.8800370071081,302.585175133499L754.1821451072346,301.53843280478407L751.6995479508921,300.87409040896614L750.065158132263,299.3635711832155L751.2417476425949,298.31853298100896L751.9683133086746,295.6226973764567L753.2673643947276,295.229360270544L754.8886967714587,295.59185789445235Z" vector-effect="non-scaling-stroke"><title>Amherst County</title></path><path id="county-51023" class="county feature" d="M749.4483048598336,301.0815427419567L748.4966623402644,302.79360198919073L747.284280386438,302.3722966948858L745.3113289849555,304.2634051972328L745.1206853751717,306.1142830323462L741.4855336862072,304.5675995733326L742.6111309248711,302.0391396473758L741.5447276806747,300.25379862841896L743.996592767239,296.8968800830253L746.1706334713402,297.24715494867314L746.3630947429294,299.1558542850064Z" vector-effect="non-scaling-stroke"><title>Botetourt County</title></path><path id="county-51678" class="county feature" d="M749.4260230929219,296.0962599190102L749.4260230929219,296.0962599190102L749.4260230929219,296.0962599190102Z" vector-effect="non-scaling-stroke"><title>Lexington City</title></path><path id="county-51029" class="county feature" d="M767.0573653541178,294.8519310338618L767.1207534784792,295.89457094658337L765.0342035092661,301.9632830139426L762.9609313957103,301.23086164178346L759.1022854925552,298.9775061226294L759.1463150300192,297.25902891421003L760.4087808495443,297.09130697748196L761.0974715895762,295.14741474166146L763.0718080416069,293.5634121407239L763.6140294526027,294.1815465826438Z" vector-effect="non-scaling-stroke"><title>Buckingham County</title></path><path id="county-51119" class="county feature" d="M791.8097078120502,292.30002279635835L790.155494099534,291.9638310131171L788.2889994156924,289.93319551334037L789.1020160117182,288.9623796930176L791.8781326376302,291.4395302777385L795.4393931273896,291.74032399977034L793.8304363638608,292.94181998059776Z" vector-effect="non-scaling-stroke"><title>Middlesex County</title></path><path id="county-51530" class="county feature" d="M750.8553615750777,296.5876896412598L750.8553615750777,296.5876896412598L750.8553615750777,296.5876896412598Z" vector-effect="non-scaling-stroke"><title>Buena Vista City</title></path><path id="county-51049" class="county feature" d="M768.0141974814404,293.55608488002497L769.5846290410688,295.0090120743023L769.4418210018385,298.92588417236357L768.259420479249,300.81214666721553L766.3242143859965,302.3711883612423L765.0342035092661,301.9632830139426L767.1207534784792,295.89457094658337L767.0573653541178,294.8519310338618Z" vector-effect="non-scaling-stroke"><title>Cumberland County</title></path><path id="county-51087" class="county feature" d="M782.1575934283594,294.8774199024191L783.0624352683128,295.56079659571856L782.4370148595995,297.7790451546085L781.4829356500818,297.9033123959513L779.71738662913,297.07869807297527L779.9060705276673,295.34877112627225L778.9192727861092,294.3205751494046L776.7808274110611,295.5501381897875L775.9381593413198,295.6005348694007L775.760166444114,292.85572865765243L778.564370620533,292.8243247268505L779.3799975475353,294.1023333881112Z" vector-effect="non-scaling-stroke"><title>Henrico County</title></path><path id="county-51145" class="county feature" d="M775.9381593413198,295.6005348694007L773.5617942398774,298.83308603780006L771.0527402292005,297.86863215435903L769.4418210018385,298.92588417236357L769.5846290410688,295.0090120743023L771.3514732370755,295.29254618792186L771.3139529512084,294.2620545568002Z" vector-effect="non-scaling-stroke"><title>Powhatan County</title></path><path id="county-51045" class="county feature" d="M741.4855336862072,304.5675995733326L739.0101339573883,306.5461054418299L737.9770214066046,306.22135867655595L736.6062444692612,307.43951030923984L735.6601791366205,305.53005032846147L737.9438602283415,303.51997112151616L737.3549164149601,302.546990318515L738.7141470382845,301.10714787227596L739.916168013611,301.5020169963375L741.5447276806747,300.25379862841896L742.6111309248711,302.0391396473758Z" vector-effect="non-scaling-stroke"><title>Craig County</title></path><path id="county-51127" class="county feature" d="M785.7904327611823,293.24720570073737L787.9881630194786,293.4392133290786L789.2403278826303,294.95902409426935L787.3611257436717,295.87067129287345L787.4133953629225,296.8668926562125L783.0624352683128,295.56079659571856L782.1575934283594,294.8774199024191L783.3273586874884,292.8997176733146Z" vector-effect="non-scaling-stroke"><title>New Kent County</title></path><path id="county-51019" class="county feature" d="M754.1821451072346,301.53843280478407L753.1073584786611,302.38552352064346L753.5228387298192,303.7571283725865L751.8110759213343,309.7999479234961L751.4099097619725,310.8237806130322L749.65849885552,310.4392245968636L747.2811356512958,307.97969525744463L745.3928048018857,307.6687782663512L745.1206853751717,306.1142830323462L745.3113289849555,304.2634051972328L747.284280386438,302.3722966948858L748.4966623402644,302.79360198919073L749.4483048598336,301.0815427419567L750.065158132263,299.3635711832155L751.6995479508921,300.87409040896614ZM749.429856746088,304.6727449950944L749.429856746088,304.6727449950944L749.429856746088,304.6727449950944Z" vector-effect="non-scaling-stroke"><title>Bedford County</title></path><path id="county-51760" class="county feature" d="M779.71738662913,297.07869807297527L776.7808274110611,295.5501381897875L778.9192727861092,294.3205751494046L779.9060705276673,295.34877112627225Z" vector-effect="non-scaling-stroke"><title>Richmond City</title></path><path id="county-51073" class="county feature" d="M791.8097078120502,292.30002279635835L793.6141935783687,293.0138908563474L793.7538253704147,294.1468097406861L795.2619102491852,297.44209950727475L793.6659770000849,298.096934950379L790.0292693170416,294.94989069707947L790.155494099534,291.9638310131171Z" vector-effect="non-scaling-stroke"><title>Gloucester County</title></path><path id="county-51041" class="county feature" d="M776.7808274110611,295.5501381897875L779.71738662913,297.07869807297527L781.4829356500818,297.9033123959513L781.7310248137171,299.33807343222736L781.4532965385933,299.32209257360216L781.0949309161113,300.68937816681785L780.7343367229771,300.90856810391983L780.5628603201167,301.02205232129756L780.1501041323429,301.30507805516356L777.0661074287164,301.0958926412959L775.6856249287555,301.3310021814824L773.4362884614759,299.87970255470964L773.5617942398774,298.83308603780006L775.9381593413198,295.6005348694007Z" vector-effect="non-scaling-stroke"><title>Chesterfield County</title></path><path id="county-51011" class="county feature" d="M762.9609313957103,301.23086164178346L762.2106992690003,304.23097670760365L760.2944540567055,305.414666709048L758.8214015548176,304.9675000364847L756.7274770263778,301.75826903862355L758.5061016729945,299.28707326661754L759.1022854925552,298.9775061226294Z" vector-effect="non-scaling-stroke"><title>Appomattox County</title></path><path id="county-51131" class="county feature" d="M802.8990193935105,291.2341070041083L801.88165927149,295.17893658840137L801.8623613196609,298.87495170589466L800.5205031355682,296.41580875326576L800.7398374073747,290.73393596165386L802.0360613446912,290.37875502990676Z" vector-effect="non-scaling-stroke"><title>Northampton County</title></path><path id="county-51027" class="county feature" d="M714.3498305821043,307.16189790172325L713.501957789923,307.832901251964L716.0465814719445,311.19853912673534L717.8376861036801,311.88149822983337L715.7616362608043,314.00856011031124L714.2599344194952,315.6431487815988L712.4261746691299,316.426526872331L710.3162340270366,312.34559525666464L709.364880778548,311.9690324005195L713.685803205415,306.7774067811173Z" vector-effect="non-scaling-stroke"><title>Buchanan County</title></path><path id="county-51115" class="county feature" d="M793.7538253704147,294.1468097406861L793.6141935783687,293.0138908563474L794.6359468055732,292.5755818220131L796.5623747737598,293.8019350221275L796.6806660542004,296.23140620781305Z" vector-effect="non-scaling-stroke"><title>Mathews County</title></path><path id="county-51007" class="county feature" d="M773.5617942398774,298.83308603780006L773.4362884614759,299.87970255470964L775.6856249287555,301.3310021814824L777.0661074287164,301.0958926412959L775.2262671552459,302.847223107196L768.5633499053928,302.1350208248774L768.259420479249,300.81214666721553L769.4418210018385,298.92588417236357L771.0527402292005,297.86863215435903Z" vector-effect="non-scaling-stroke"><title>Amelia County</title></path><path id="county-51036" class="county feature" d="M787.4133953629225,296.8668926562125L787.8445817312756,296.9485477144956L788.2134156466391,298.9419140483336L786.05547046917,298.40051749925624L782.5448800880192,298.9650215646244L782.4370148595995,297.7790451546085L783.0624352683128,295.56079659571856Z" vector-effect="non-scaling-stroke"><title>Charles City County</title></path><path id="county-51071" class="county feature" d="M735.6601791366205,305.53005032846147L736.6062444692612,307.43951030923984L734.2976578589321,309.1564067732452L730.9897855218368,311.55279471548386L728.2859856494938,309.54265834360444L728.7121912401774,309.1291686882506L730.4714826299497,307.82893864816265L730.0734231166344,306.3160470512389L730.0974549649302,306.332704646528L731.5462533534342,307.1693564658656L734.9605484473906,304.5241917976796Z" vector-effect="non-scaling-stroke"><title>Giles County</title></path><path id="county-51680" class="county feature" d="M754.1821451072346,301.53843280478407L755.8800370071081,302.585175133499L753.5228387298192,303.7571283725865L753.1073584786611,302.38552352064346Z" vector-effect="non-scaling-stroke"><title>Lynchburg City</title></path><path id="county-51095" class="county feature" d="M790.1741555561699,298.2996449243292L791.0690723052087,298.2716328756545L792.5420957959545,298.9498832575986L792.4665681161916,299.8633535016768L791.7929796827304,299.06033348299195L788.4178706281136,299.25685930365614L787.8445817312756,296.9485477144956L787.4133953629225,296.8668926562125L787.3611257436717,295.87067129287345L789.2403278826303,294.95902409426935L790.7820440823857,296.3564649572279L790.2323756664102,297.6910063497161Z" vector-effect="non-scaling-stroke"><title>James City County</title></path><path id="county-51031" class="county feature" d="M756.7274770263778,301.75826903862355L758.8214015548176,304.9675000364847L760.2944540567055,305.414666709048L759.7470466821962,309.02424566691786L756.9008480138598,308.73914259147125L755.4096663987555,309.18752865765873L754.3275480998237,307.9154378305765L751.8110759213343,309.7999479234961L753.5228387298192,303.7571283725865L755.8800370071081,302.585175133499Z" vector-effect="non-scaling-stroke"><title>Campbell County</title></path><path id="county-51161" class="county feature" d="M745.1206853751717,306.1142830323462L745.3928048018857,307.6687782663512L744.0005122569595,309.59929007197957L743.220262437182,309.0508242573595L741.6342281453645,310.27047196054934L740.9382344084862,310.56837840108994L740.3694248686993,308.3632456973444L739.0101339573883,306.5461054418299L741.4855336862072,304.5675995733326ZM742.5892877380868,306.5658069060455L742.5708598799315,307.4360534258735L743.8289238680641,308.1828416919907L744.6709720760266,306.3033959698139Z" vector-effect="non-scaling-stroke"><title>Roanoke County</title></path><path id="county-51147" class="county feature" d="M765.0342035092661,301.9632830139426L766.3242143859965,302.3711883612423L768.259420479249,300.81214666721553L768.5633499053928,302.1350208248774L769.0660574287174,305.4191037753251L766.2470435743428,306.73018226379327L762.2063149310798,305.0825218630681L762.2106992690003,304.23097670760365L762.9609313957103,301.23086164178346Z" vector-effect="non-scaling-stroke"><title>Prince Edward County</title></path><path id="county-51199" class="county feature" d="M790.7820440823857,296.3564649572279L791.8166850552868,297.34776987042403L795.5335459141284,298.73987385556165L795.40147230138,299.8137013802602L795.8027616752154,300.36203420952984L795.2502791420758,300.694822001277L792.5420957959545,298.9498832575986L791.0690723052087,298.2716328756545L790.2323756664102,297.6910063497161Z" vector-effect="non-scaling-stroke"><title>York County</title></path><path id="county-51121" class="county feature" d="M740.9382344084862,310.56837840108994L738.752653835127,312.69065411240183L736.0100258833018,313.848795286205L735.1617938015813,311.9822678342416L735.7810395709737,310.75372816667243L734.2976578589321,309.1564067732452L736.6062444692612,307.43951030923984L737.9770214066046,306.22135867655595L739.0101339573883,306.5461054418299L740.3694248686993,308.3632456973444Z" vector-effect="non-scaling-stroke"><title>Montgomery County</title></path><path id="county-51515" class="county feature" d="M749.429856746088,304.6727449950944L749.429856746088,304.6727449950944L749.429856746088,304.6727449950944Z" vector-effect="non-scaling-stroke"><title>Bedford City</title></path><path id="county-51770" class="county feature" d="M742.5708598799315,307.4360534258735L742.5892877380868,306.5658069060455L744.6709720760266,306.3033959698139L743.8289238680641,308.1828416919907Z" vector-effect="non-scaling-stroke"><title>Roanoke City</title></path><path id="county-51185" class="county feature" d="M723.0493131568859,309.1760138651513L725.3416609755004,310.78165170280147L724.1208453904303,312.8012117043064L725.0976001723071,313.5335957683194L722.4622169372532,315.03216628589337L722.9021020582559,315.45006943728026L719.5307907191473,317.4366126039988L718.0368691706776,317.1739670255083L715.7616362608043,314.00856011031124L717.8376861036801,311.88149822983337L720.5285266071813,312.0663788939655Z" vector-effect="non-scaling-stroke"><title>Tazewell County</title></path><path id="county-51775" class="county feature" d="M742.5892877380868,306.5658069060455L742.5708598799315,307.4360534258735L742.5892877380868,306.5658069060455Z" vector-effect="non-scaling-stroke"><title>Salem City</title></path><path id="county-51670" class="county feature" d="M782.6917094452396,299.45732132024L781.4532965385933,299.32209257360216L781.7310248137171,299.33807343222736Z" vector-effect="non-scaling-stroke"><title>Hopewell City</title></path><path id="county-51149" class="county feature" d="M782.6917094452396,299.45732132024L784.9220504201896,298.7359130127418L786.4345989673734,299.84709147036074L784.7862619720465,302.50966153891034L781.7027448891974,305.41282354471196L781.0401964040132,302.12528005235663L781.0949309161113,300.68937816681785L781.4532965385933,299.32209257360216Z" vector-effect="non-scaling-stroke"><title>Prince George County</title></path><path id="county-51830" class="county feature" d="M790.1741555561699,298.2996449243292L790.1741555561699,298.2996449243292L790.2323756664102,297.6910063497161L791.0690723052087,298.2716328756545Z" vector-effect="non-scaling-stroke"><title>Williamsburg City</title></path><path id="county-51051" class="county feature" d="M712.4261746691299,316.426526872331L709.9956964799778,318.1289572516432L707.8275332692949,317.46924977454717L706.077184851443,314.2763938386663L709.364880778548,311.9690324005195L710.3162340270366,312.34559525666464Z" vector-effect="non-scaling-stroke"><title>Dickenson County</title></path><path id="county-51021" class="county feature" d="M730.9897855218368,311.55279471548386L730.364363184828,313.06875561238337L727.5791372074078,314.48078735609056L725.883585771864,314.273825004738L723.9122168566851,316.394504577574L722.9021020582559,315.45006943728026L722.4622169372532,315.03216628589337L725.0976001723071,313.5335957683194L724.1208453904303,312.8012117043064L725.3416609755004,310.78165170280147L728.7121912401774,309.1291686882506L728.2859856494938,309.54265834360444Z" vector-effect="non-scaling-stroke"><title>Bland County</title></path><path id="county-51570" class="county feature" d="M780.7343367229771,300.90856810391983L780.5628603201167,301.02205232129756L780.7343367229771,300.90856810391983Z" vector-effect="non-scaling-stroke"><title>Colonial Heights City</title></path><path id="county-51135" class="county feature" d="M774.5938024572283,306.8835978714526L772.8226242700633,306.5722843132478L771.6991591898262,306.9056939127679L769.0660574287174,305.4191037753251L768.5633499053928,302.1350208248774L775.2262671552459,302.847223107196L773.8943103413544,304.03942546057783Z" vector-effect="non-scaling-stroke"><title>Nottoway County</title></path><path id="county-51053" class="county feature" d="M780.1501041323429,301.30507805516356L781.0401964040132,302.12528005235663L781.7027448891974,305.41282354471196L778.9258952598941,308.17326385936235L778.2976011072049,307.9762518039287L776.4512643212092,306.79641409267924L774.5938024572283,306.8835978714526L773.8943103413544,304.03942546057783L775.2262671552459,302.847223107196L777.0661074287164,301.0958926412959Z" vector-effect="non-scaling-stroke"><title>Dinwiddie County</title></path><path id="county-51037" class="county feature" d="M766.2470435743428,306.73018226379327L766.1786113176618,310.3532145521915L764.5796980382568,314.35590921830476L763.8319008269405,311.71013939328236L759.7470466821962,309.02424566691786L760.2944540567055,305.414666709048L762.2106992690003,304.23097670760365L762.2063149310798,305.0825218630681Z" vector-effect="non-scaling-stroke"><title>Charlotte County</title></path><path id="county-51155" class="county feature" d="M735.7810395709737,310.75372816667243L735.1617938015813,311.9822678342416L736.0100258833018,313.848795286205L734.8570464916921,315.0483115143984L733.4602116113228,316.2819437765161L730.364363184828,313.06875561238337L730.9897855218368,311.55279471548386L734.2976578589321,309.1564067732452Z" vector-effect="non-scaling-stroke"><title>Pulaski County</title></path><path id="county-51730" class="county feature" d="M781.0401964040132,302.12528005235663L780.1501041323429,301.30507805516356L780.5628603201167,301.02205232129756L780.7343367229771,300.90856810391983L781.0949309161113,300.68937816681785Z" vector-effect="non-scaling-stroke"><title>Petersburg City</title></path><path id="county-51181" class="county feature" d="M791.6217583626462,300.5860032175568L791.5992202223031,302.1294734747745L789.6386512295767,303.7547293160088L788.33133534527,305.016415820161L787.7404859402839,303.0125045339663L784.7862619720465,302.50966153891034L786.4345989673734,299.84709147036074L789.546578568092,299.73742496616967Z" vector-effect="non-scaling-stroke"><title>Surry County</title></path><path id="county-51067" class="county feature" d="M749.65849885552,310.4392245968636L749.5807719054699,314.01399616130357L748.0336598252564,315.57602997513834L744.4255953734497,315.3852184839553L743.9324664133003,316.16438485624144L743.4188520977916,315.35974877419017L740.8542566929738,315.1967517231607L742.2589340924002,312.03148256721204L741.6342281453645,310.27047196054934L743.220262437182,309.0508242573595L744.0005122569595,309.59929007197957L745.3928048018857,307.6687782663512L747.2811356512958,307.97969525744463Z" vector-effect="non-scaling-stroke"><title>Franklin County</title></path><path id="county-51700" class="county feature" d="M795.2502791420758,300.694822001277L796.3461560271257,302.49281022823527L792.3749795677563,300.6745867400135L792.4665681161916,299.8633535016768L792.5420957959545,298.9498832575986Z" vector-effect="non-scaling-stroke"><title>Newport News City</title></path><path id="county-51195" class="county feature" d="M709.9956964799778,318.1289572516432L710.602173037278,319.2793603297846L709.1002971051076,320.06037597790817L705.7560882874521,320.49592057646464L703.9581385214226,322.245466151545L702.1489900208057,320.73590890356536L702.0681709919734,319.19079221186485L704.020933333798,317.5759586217232L703.783622680383,316.26838587847976L705.9272296361283,314.4235851625185L706.077184851443,314.2763938386663L707.8275332692949,317.46924977454717ZM705.9788021782175,318.9278897274453L705.9788021782175,318.9278897274453L705.9788021782175,318.9278897274453Z" vector-effect="non-scaling-stroke"><title>Wise County</title></path><path id="county-51735" class="county feature" d="M796.0764114611516,299.21604165714155L795.9673064813151,300.21789781882444L795.8027616752154,300.36203420952984L795.40147230138,299.8137013802602Z" vector-effect="non-scaling-stroke"><title>Poquoson City</title></path><path id="county-51750" class="county feature" d="M735.1617938015813,311.9822678342416L735.7810395709737,310.75372816667243L735.1617938015813,311.9822678342416Z" vector-effect="non-scaling-stroke"><title>Radford City</title></path><path id="county-51093" class="county feature" d="M794.6833537936654,304.42055414331026L790.2732641414573,310.4019044961874L790.080226376266,310.36163915611735L789.637089916379,309.3056673130146L790.4524809373605,305.1927846488237L789.6386512295767,303.7547293160088L791.5992202223031,302.1294734747745L791.6217583626462,300.5860032175568L792.310833541034,302.37988121321973L795.0556687960101,303.4223781067154Z" vector-effect="non-scaling-stroke"><title>Isle of Wight County</title></path><path id="county-51167" class="county feature" d="M718.0368691706776,317.1739670255083L717.2961445097769,317.8497498213201L715.8583524222087,319.29160409507233L713.9724925577575,319.7554622845597L713.7443688392492,320.868110450415L710.6446767889265,323.01774982593497L709.1002971051076,320.06037597790817L710.602173037278,319.2793603297846L709.9956964799778,318.1289572516432L712.4261746691299,316.426526872331L714.2599344194952,315.6431487815988L715.7616362608043,314.00856011031124Z" vector-effect="non-scaling-stroke"><title>Russell County</title></path><path id="county-51143" class="county feature" d="M756.9008480138598,308.73914259147125L756.7745878101393,318.76785910321576L754.963485824592,319.0949255462972L755.3855771583923,318.2374135180479L753.8005054203804,317.32389782874066L752.3912949539547,318.07770731965707L753.0950349231309,319.434775477813L752.5067354404764,319.53903487769435L749.5124306795853,320.0368469576307L749.5807719054699,314.01399616130357L749.65849885552,310.4392245968636L751.4099097619725,310.8237806130322L751.8110759213343,309.7999479234961L754.3275480998237,307.9154378305765L755.4096663987555,309.18752865765873Z" vector-effect="non-scaling-stroke"><title>Pittsylvania County</title></path><path id="county-51063" class="county feature" d="M741.6342281453645,310.27047196054934L742.2589340924002,312.03148256721204L740.8542566929738,315.1967517231607L738.8866524343885,316.9342752659272L738.018323179271,318.7911283352968L734.8570464916921,315.0483115143984L736.0100258833018,313.848795286205L738.752653835127,312.69065411240183L740.9382344084862,310.56837840108994Z" vector-effect="non-scaling-stroke"><title>Floyd County</title></path><path id="county-51111" class="county feature" d="M769.0660574287174,305.4191037753251L771.6991591898262,306.9056939127679L772.8226242700633,306.5722843132478L773.3470133986116,311.17322618292087L770.1281756085143,311.20817882450194L766.1786113176618,310.3532145521915L766.2470435743428,306.73018226379327Z" vector-effect="non-scaling-stroke"><title>Lunenburg County</title></path><path id="county-51650" class="county feature" d="M796.3461560271257,302.49281022823527L795.2502791420758,300.694822001277L795.8027616752154,300.36203420952984L795.9673064813151,300.21789781882444L797.6640740114935,300.388369476834Z" vector-effect="non-scaling-stroke"><title>Hampton City</title></path><path id="county-51183" class="county feature" d="M788.33133534527,305.016415820161L782.2895199228365,310.7811460013901L781.3683044713771,310.7040423693966L781.309438788891,307.9902988013647L778.9258952598941,308.17326385936235L781.7027448891974,305.41282354471196L784.7862619720465,302.50966153891034L787.7404859402839,303.0125045339663Z" vector-effect="non-scaling-stroke"><title>Sussex County</title></path><path id="county-51197" class="county feature" d="M733.4602116113228,316.2819437765161L729.2652183579793,318.34229155015805L728.5561021152848,319.1672659625102L726.1828566136156,319.65312345873394L723.9122168566851,316.394504577574L725.883585771864,314.273825004738L727.5791372074078,314.48078735609056L730.364363184828,313.06875561238337Z" vector-effect="non-scaling-stroke"><title>Wythe County</title></path><path id="county-51083" class="county feature" d="M759.7470466821962,309.02424566691786L763.8319008269405,311.71013939328236L764.5796980382568,314.35590921830476L763.8648952334164,314.91297734332534L763.8596055548031,317.4778865240711L762.9529746039839,317.6502946456843L757.9504821990474,318.55548265176947L756.7745878101393,318.76785910321576L756.9008480138598,308.73914259147125Z" vector-effect="non-scaling-stroke"><title>Halifax County</title></path><path id="county-51025" class="county feature" d="M774.5938024572283,306.8835978714526L776.4512643212092,306.79641409267924L778.2976011072049,307.9762518039287L778.9833415905812,311.318877057332L777.9680786040085,314.7450873109925L776.038487635165,315.1339385444028L773.9028610303372,315.553216849303L773.3470133986116,311.17322618292087L772.8226242700633,306.5722843132478Z" vector-effect="non-scaling-stroke"><title>Brunswick County</title></path><path id="county-51173" class="county feature" d="M722.9021020582559,315.45006943728026L723.9122168566851,316.394504577574L726.1828566136156,319.65312345873394L722.4881642165612,321.27899488708465L721.4958950086577,322.75046759592453L719.6940346303408,320.14186630762845L717.2961445097769,317.8497498213201L718.0368691706776,317.1739670255083L719.5307907191473,317.4366126039988Z" vector-effect="non-scaling-stroke"><title>Smyth County</title></path><path id="county-51175" class="county feature" d="M789.637089916379,309.3056673130146L790.080226376266,310.36163915611735L790.2732641414573,310.4019044961874L790.3526358497174,312.15405785460814L790.3781095622242,312.30595858741447L786.756841621783,312.9946922834614L784.826524616858,313.4067482776187L783.1764874741368,311.88767826993274L781.3807095382276,311.67501159650044L782.2895199228365,310.7811460013901L788.33133534527,305.016415820161L789.6386512295767,303.7547293160088L790.4524809373605,305.1927846488237Z" vector-effect="non-scaling-stroke"><title>Southampton County</title></path><path id="county-51710" class="county feature" d="M799.0140621394482,304.9418596404073L798.4139419657533,305.2897700951612L798.3146320023548,305.12747349057054ZM799.5841886575986,303.11857781527704L799.5206784914677,304.84630667401086L797.6553547500794,304.4442963457366L797.3260446372904,302.7985894838515Z" vector-effect="non-scaling-stroke"><title>Norfolk City</title></path><path id="county-51720" class="county feature" d="M705.9788021782175,318.9278897274453L705.9788021782175,318.9278897274453L705.9788021782175,318.9278897274453Z" vector-effect="non-scaling-stroke"><title>Norton City</title></path><path id="county-51810" class="county feature" d="M804.1345953219558,309.1406110391697L804.8308642663567,309.1571695689362L804.2160738392054,309.29198269391895ZM805.6126749224002,308.9871974379614L805.2528584723193,309.0645286867765L803.8669015560492,306.1343799457925L803.9548583101096,309.34578484185863L803.4854067265878,309.44606959935857L803.1669923444617,309.51295922091015L801.9046697008514,309.78252200780105L801.459285978387,307.6584526721173L802.1358897963605,307.00006381236653L799.8657454636066,305.9907318629105L799.2893484995718,304.8309833491386L799.5206784914677,304.84630667401086L799.5841886575986,303.11857781527704L802.3732606290989,302.7098397766341Z" vector-effect="non-scaling-stroke"><title>Virginia Beach City</title></path><path id="county-51035" class="county feature" d="M738.018323179271,318.7911283352968L736.2508335139149,319.9876308340322L736.3127880443651,321.9528520137293L732.9975156290623,322.46568416866023L731.604418044624,320.94970788161424L731.2781121883015,320.5957643676519L729.2652183579793,318.34229155015805L733.4602116113228,316.2819437765161L734.8570464916921,315.0483115143984Z" vector-effect="non-scaling-stroke"><title>Carroll County</title></path><path id="county-51191" class="county feature" d="M713.8992917759446,323.74843793195964L713.8992917759446,323.74843793195964L712.2549137628075,324.95027910265696L711.511128447347,325.0584906659328L710.6446767889265,323.01774982593497L713.7443688392492,320.868110450415L713.9724925577575,319.7554622845597L715.8583524222087,319.29160409507233L717.2961445097769,317.8497498213201L719.6940346303408,320.14186630762845L721.4958950086577,322.75046759592453L720.9716661877923,323.3425665907837L718.324999976351,323.6976961498659L713.6867969209086,324.7582195283044Z" vector-effect="non-scaling-stroke"><title>Washington County</title></path><path id="county-51740" class="county feature" d="M798.3146320023548,305.12747349057054L798.4139419657533,305.2897700951612L796.7977094830912,305.7654255323913ZM796.9663138194883,305.24795638698447L796.3497267137532,304.8688747271435L796.4199676419248,304.27061572552213Z" vector-effect="non-scaling-stroke"><title>Portsmouth City</title></path><path id="county-51800" class="county feature" d="M796.4199676419248,304.27061572552213L796.3497267137532,304.8688747271435L796.0123042991398,305.93050108089767L796.533364042959,310.91063030882924L795.8022650057543,311.06263590160734L790.3526358497174,312.15405785460814L790.2732641414573,310.4019044961874L794.6833537936654,304.42055414331026L794.8263106369404,305.6828738645096Z" vector-effect="non-scaling-stroke"><title>Suffolk City</title></path><path id="county-51081" class="county feature" d="M778.9258952598941,308.17326385936235L781.309438788891,307.9902988013647L781.3683044713771,310.7040423693966L782.2895199228365,310.7811460013901L781.3807095382276,311.67501159650044L783.1764874741368,311.88767826993274L784.826524616858,313.4067482776187L777.9680786040085,314.7450873109925L778.9833415905812,311.318877057332L778.2976011072049,307.9762518039287ZM781.0152201868934,310.7839642511598L781.0152201868934,310.7839642511598L781.0152201868934,310.7839642511598Z" vector-effect="non-scaling-stroke"><title>Greensville County</title></path><path id="county-51105" class="county feature" d="M703.9581385214226,322.245466151545L701.6932733382243,324.9236663861858L701.3505066615874,326.53206027997703L694.1784046621459,327.43419943487606L691.1840024053931,327.7625820091839L694.1746212923108,326.1495315110167L698.7586396223865,324.0525611972547L699.4058534662533,321.83703537638917L702.1489900208057,320.73590890356536Z" vector-effect="non-scaling-stroke"><title>Lee County</title></path><path id="county-51117" class="county feature" d="M773.3470133986116,311.17322618292087L773.9028610303372,315.553216849303L769.8477634055041,316.3295497502007L767.9076277941077,316.7210042851234L763.8596055548031,317.4778865240711L763.8648952334164,314.91297734332534L764.5796980382568,314.35590921830476L766.1786113176618,310.3532145521915L770.1281756085143,311.20817882450194Z" vector-effect="non-scaling-stroke"><title>Mecklenburg County</title></path><path id="county-51169" class="county feature" d="M709.1002971051076,320.06037597790817L710.6446767889265,323.01774982593497L711.511128447347,325.0584906659328L706.8824524828674,325.75248335752224L703.6262934076922,326.21657697274566L701.3505066615874,326.53206027997703L701.6932733382243,324.9236663861858L703.9581385214226,322.245466151545L705.7560882874521,320.49592057646464Z" vector-effect="non-scaling-stroke"><title>Scott County</title></path><path id="county-51141" class="county feature" d="M743.9324664133003,316.16438485624144L743.2032206984878,316.5712882374945L744.547259688296,320.87664334184444L738.8559362610287,321.6736542496724L736.3127880443651,321.9528520137293L736.2508335139149,319.9876308340322L738.018323179271,318.7911283352968L738.8866524343885,316.9342752659272L740.8542566929738,315.1967517231607L743.4188520977916,315.35974877419017Z" vector-effect="non-scaling-stroke"><title>Patrick County</title></path><path id="county-51550" class="county feature" d="M796.9663138194883,305.24795638698447L796.7977094830912,305.7654255323913L798.4139419657533,305.2897700951612L799.0140621394482,304.9418596404073L799.2893484995718,304.8309833491386L799.8657454636066,305.9907318629105L802.1358897963605,307.00006381236653L801.459285978387,307.6584526721173L801.9046697008514,309.78252200780105L799.128739146844,310.37086232516776L796.533364042959,310.91063030882924L796.0123042991398,305.93050108089767L796.3497267137532,304.8688747271435Z" vector-effect="non-scaling-stroke"><title>Chesapeake City</title></path><path id="county-51089" class="county feature" d="M749.5124306795853,320.0368469576307L744.9311931155183,320.81156111756945L744.547259688296,320.87664334184444L743.2032206984878,316.5712882374945L743.9324664133003,316.16438485624144L744.4255953734497,315.3852184839553L748.0336598252564,315.57602997513834L749.5807719054699,314.01399616130357ZM746.5121789753255,318.0642917349139L746.5121789753255,318.0642917349139L746.5121789753255,318.0642917349139Z" vector-effect="non-scaling-stroke"><title>Henry County</title></path><path id="county-51077" class="county feature" d="M729.2652183579793,318.34229155015805L731.2781121883015,320.5957643676519L731.604418044624,320.94970788161424L732.9975156290623,322.46568416866023L732.0523588363059,322.56717247646384L725.3880924285255,323.37254632459883L720.5908548526162,323.85219204618045L720.9716661877923,323.3425665907837L721.4958950086577,322.75046759592453L722.4881642165612,321.27899488708465L726.1828566136156,319.65312345873394L728.5561021152848,319.1672659625102Z" vector-effect="non-scaling-stroke"><title>Grayson County</title></path><path id="county-51595" class="county feature" d="M781.0152201868934,310.7839642511598L781.0152201868934,310.7839642511598L781.0152201868934,310.7839642511598Z" vector-effect="non-scaling-stroke"><title>Emporia City</title></path><path id="county-51690" class="county feature" d="M746.5121789753255,318.0642917349139L746.5121789753255,318.0642917349139L746.5121789753255,318.0642917349139Z" vector-effect="non-scaling-stroke"><title>Martinsville City</title></path><path id="county-51620" class="county feature" d="M790.080226376266,310.36163915611735L789.637089916379,309.3056673130146L790.080226376266,310.36163915611735Z" vector-effect="non-scaling-stroke"><title>Franklin City</title></path><path id="county-51640" class="county feature" d="M731.604418044624,320.94970788161424L731.2781121883015,320.5957643676519L731.604418044624,320.94970788161424Z" vector-effect="non-scaling-stroke"><title>Galax City</title></path><path id="county-51590" class="county feature" d="M754.963485824592,319.0949255462972L753.0950349231309,319.434775477813L752.3912949539547,318.07770731965707L753.8005054203804,317.32389782874066L755.3855771583923,318.2374135180479Z" vector-effect="non-scaling-stroke"><title>Danville City</title></path><path id="county-51520" class="county feature" d="M713.8992917759446,323.74843793195964L713.8992917759446,323.74843793195964L713.8992917759446,323.74843793195964ZM713.8992917759446,323.74843793195964L713.6867969209086,324.7582195283044L712.2549137628075,324.95027910265696Z" vector-effect="non-scaling-stroke"><title>Bristol City</title></path></g><path id="counties-mesh" class="counties mesh" d="M762.4188871637059,266.8564402257498L762.4188871637059,266.8564402257498M776.1723722772823,270.44722209327074L776.1723722772823,270.44722209327074M776.2046131198406,270.8735263021389L776.2046131198406,270.8735263021389M755.143746115282,282.2556012755906L755.143746115282,282.2556012755906M753.8734864771793,287.65775150778234L753.8734864771793,287.65775150778234M756.1189689707622,289.04233742442386L756.1189689707622,289.04233742442386M762.3768937389252,288.4645292953019L762.3768937389252,288.4645292953019M749.4260230929219,296.0962599190102L749.4260230929219,296.0962599190102M750.8553615750777,296.5876896412598L750.8553615750777,296.5876896412598M741.431248485695,297.17210938846165L741.431248485695,297.17210938846165M749.429856746088,304.6727449950944L749.429856746088,304.6727449950944M705.9788021782175,318.9278897274453L705.9788021782175,318.9278897274453M781.0152201868934,310.7839642511598L781.0152201868934,310.7839642511598M746.5121789753255,318.0642917349139L746.5121789753255,318.0642917349139M764.4519054566284,265.13319924672885L763.5840291019713,269.6804193052793L761.3880010060188,270.64207808003914L761.8103715525028,271.7972149281603L760.9860674122106,274.1256143099167L759.0033382979966,276.2512821743352L758.1432779232599,278.97865943996715L754.3787173498206,276.6365277632366M765.8724614905592,270.3335629038846L764.4920645005286,272.7975838653538L763.8688659484062,274.5335157940001L762.6774238234906,275.1690436650805L760.9860674122106,274.1256143099167M770.9308769375684,270.0632609739797L770.4774214710453,272.2723795116957L774.0854143756956,276.8669493102815L773.1492198784678,279.86769187141783L771.7085585358047,280.0889378575323L767.8508354309226,275.39926088698326L764.4920645005286,272.7975838653538M777.7714817026397,273.96300285560994L777.5547911499068,277.1710920795367L775.1656144981005,276.17482618154554L774.0854143756956,276.8669493102815M775.1551416360746,267.0312028784041L772.9652446335454,271.4963525113568L770.9308769375684,270.0632609739797L766.3441380298735,269.588199191052L767.8080869865792,267.0264315107139L768.6765269258437,263.241942255995L769.2419553402931,263.05534367889913L770.8736213488827,263.1011356810933L772.6908587897674,264.3202738621445L771.9925656590826,265.9392689786281L773.1878076129465,267.07441772514824L775.1551416360746,267.0312028784041L778.5183009001696,268.71712705794357L778.947416287817,269.14727746281017L779.8782151114319,270.23240627758094L778.9834166403073,270.3726309514535M778.3111593712956,269.8879935592321L777.9314221242473,269.62438412180643M767.8508354309226,275.39926088698326L765.0615816012387,279.29199766408556L764.2197884749538,279.22879994625634L762.3792489312119,277.75759870838147L762.6774238234906,275.1690436650805M758.1432779232599,278.97865943996715L757.7626882257135,280.86474784962104L760.9899715999933,281.9645648872338L758.9604052315028,285.0957117796505L757.9727324723344,286.64215010939745L750.279579125715,282.8387572411658M779.8782151114319,270.23240627758094L780.0249758912588,271.19371868850624M762.3792489312119,277.75759870838147L761.2785398588655,280.8751534193972L760.9899715999933,281.9645648872338M774.3188109010682,272.6654880543316L774.0534670336601,272.55063811495415L774.3188109010682,272.6654880543316L774.0534670336601,272.55063811495415M773.1492198784678,279.86769187141783L773.5309733292495,280.5990919136666L772.3514960460552,280.9678465985819L771.259416308119,280.55907716572403L766.9544879020082,282.95327287811983L766.7106357785069,281.4797702870229L764.2197884749538,279.22879994625634M766.9544879020082,282.95327287811983L764.9882016255264,284.8060269503578L764.3509084557741,284.2119331592296L761.9910694038966,282.81945186254063L761.2785398588655,280.8751534193972M749.1964003651077,284.2896904659706L748.0894534459052,288.23165581456396L747.1435078387805,289.08791105073453L742.8232328476197,288.19642696702135M777.5547911499068,277.1710920795367L777.8253666680513,280.3396806811062L778.1334553883974,282.0476055509033L777.5096430598479,282.14476680095765L776.2764138199951,281.6590306817511L775.0006850387506,281.4367795689835L773.5309733292495,280.5990919136666M764.3509084557741,284.2119331592296L763.4695788790955,286.042354322013L758.9604052315028,285.0957117796505M757.9727324723344,286.64215010939745L757.9441320297501,289.06242418388115L757.2241132043182,289.83151987417614L756.6935324090251,291.8217514122324L755.3942508065107,293.34420069499527L753.1868842262661,293.56018294475984L747.8776490140531,290.76508868029543L748.2789183749253,289.2175961259172L747.1435078387805,289.08791105073453M777.8253666680513,280.3396806811062L779.1209214624544,280.1803117574086L781.5962722876595,278.3661954095993L782.2961378064851,280.77628921956443L782.2159770627911,282.80153096031825L782.1806648983529,282.8375971631543L781.4885319548086,283.2075889350706L778.8864583253705,281.8252051857306L778.1334553883974,282.0476055509033M772.3514960460552,280.9678465985819L769.6349455606062,286.16547499946387L767.4191736795686,285.9201693045361L765.9630770033062,286.56286430097384L763.4695788790955,286.042354322013M775.0006850387506,281.4367795689835L776.2764138199951,281.6590306817511M777.5096430598479,282.14476680095765L774.5573048303945,287.63595352549464L773.8494897628341,287.45013053062144L771.5658843859959,286.1933072339249L769.6349455606062,286.16547499946387M765.9630770033062,286.56286430097384L764.9946910227936,289.1786775030879L763.0718080416069,293.5634121407239L761.0974715895762,295.14741474166146L757.2241132043182,289.83151987417614M761.3880010060188,270.64207808003914L760.7966036276088,269.00449121283214L759.3417288675026,270.64447292073544L757.9795429627686,270.34288976559117L758.3761105496103,269.6562120820968L759.5764964537816,267.91965345321466L759.0482430785705,266.29996916916343L759.8237068761632,264.3030035500825L759.3313945074378,262.2389639818764L761.2557842754375,263.3105512787961L764.4519054566284,265.13319924672885L767.8080869865792,267.0264315107139M782.2961378064851,280.77628921956443L785.3863476853351,282.15434014007724L788.6893093590543,281.7616243490003L790.3830384698101,283.420482216216L789.6621940038383,284.11531698267595L789.057024379091,285.19223477388914L787.0629125083015,284.92438602688014L784.9921023723068,282.98956224322046L784.3195398138726,283.95354011782183L782.2159770627911,282.80153096031825M746.1706334713402,297.24715494867314L743.996592767239,296.8968800830253L741.5447276806747,300.25379862841896L739.916168013611,301.5020169963375L738.7141470382845,301.10714787227596L737.4268282227339,300.09914041020284L738.7855042842898,296.36512335150223L740.0729034182302,294.6787954227781M781.4885319548086,283.2075889350706L780.9820932857631,284.6629641247522L782.8343683047462,286.49827045382744L781.3001300740934,287.0715417689456L781.5153823825801,288.1710428580391L779.5489151009192,290.5295916354653L778.7348141363027,290.8739979620441L777.2139917868088,289.18286100000887L774.5573048303945,287.63595352549464M782.1806648983529,282.8375971631543L782.5064243161956,283.81763895443487L784.4778121839429,284.15497313336095L784.9556298775008,285.8740338234983L787.0356582765603,286.98050948745095L789.1020160117182,288.9623796930176L788.2889994156924,289.93319551334037L787.3029917557972,288.8603929736114L785.3313378836704,289.48283671248214L784.0164143521101,288.5660522303194L782.8343683047462,286.49827045382744M773.8494897628341,287.45013053062144L773.2827007621695,292.9069807265772L771.6594111711064,292.4738417747211L770.7035059039875,291.17032362135296L768.848648749663,290.3994600649936L764.9946910227936,289.1786775030879M789.057024379091,285.19223477388914L791.3514606162535,287.1776888612211L789.9330752590781,288.0843425578255L788.6407566473534,288.0489998571013L785.2048168128986,285.52453484945306L784.3195398138726,283.95354011782183M753.1868842262661,293.56018294475984L753.2673643947276,295.229360270544L751.9683133086746,295.6226973764567L751.2417476425949,298.31853298100896L750.065158132263,299.3635711832155L749.4483048598336,301.0815427419567L746.3630947429294,299.1558542850064L746.1706334713402,297.24715494867314L746.1566129384755,295.17378515269036M761.0974715895762,295.14741474166146L760.4087808495443,297.09130697748196L759.1463150300192,297.25902891421003L759.1022854925552,298.9775061226294L758.5061016729945,299.28707326661754L754.8886967714587,295.59185789445235L753.2673643947276,295.229360270544M798.0702947815118,283.54927540262065L798.2293902220904,283.5173662675278L798.0702947815118,283.54927540262065M797.7369483801165,283.61730347653565L797.8339930457089,283.59556737895184L797.7369483801165,283.61730347653565M797.5070214676066,283.6683909824544L797.6132517486677,283.63953533302583L797.5070214676066,283.6683909824544M806.0422644081971,282.8834821850917L806.7100193361764,283.0178110827643L804.7991281202518,286.96921842031065L805.0416325284207,289.4408197518525L802.8990193935105,291.2341070041083L802.0360613446912,290.37875502990676L800.5518299316409,290.559782498996L801.8290298979457,286.3022214133799L803.0543356678114,284.7487300624706L803.3956168910004,281.6102201806791L806.7714088631991,280.47338708191637L806.0422644081971,282.8834821850917M808.392613920626,279.9095375665556L808.6559178890127,279.8168843913759L808.392613920626,279.9095375665556M789.6621940038383,284.11531698267595L791.1435496471533,283.81576015634835L794.9672445139593,285.54988818604795L794.1313043483697,289.2462429548608L792.6731297079402,287.19806807608495L791.3514606162535,287.1776888612211M779.5489151009192,290.5295916354653L780.5817215458378,291.76581579329013L783.435506522357,292.26519495848424L783.3273586874884,292.8997176733146L782.1575934283594,294.8774199024191L779.3799975475353,294.1023333881112L778.564370620533,292.8243247268505L775.760166444114,292.85572865765243L773.2827007621695,292.9069807265772M768.848648749663,290.3994600649936L768.0141974814404,293.55608488002497L767.0573653541178,294.8519310338618L763.6140294526027,294.1815465826438L763.0718080416069,293.5634121407239M788.2889994156924,289.93319551334037L790.155494099534,291.9638310131171L790.0292693170416,294.94989069707947L788.1790245512907,292.6401681959022L783.3384277638613,290.4278415240252L781.5153823825801,288.1710428580391M788.1790245512907,292.6401681959022L785.7904327611823,293.24720570073737L783.3273586874884,292.8997176733146M775.760166444114,292.85572865765243L775.9381593413198,295.6005348694007L771.3139529512084,294.2620545568002L771.3514732370755,295.29254618792186L769.5846290410688,295.0090120743023L768.0141974814404,293.55608488002497M794.1313043483697,289.2462429548608L794.4413357419351,290.7244231946579L791.6661444332963,290.54829200934694L789.9330752590781,288.0843425578255M758.5061016729945,299.28707326661754L756.7274770263778,301.75826903862355L755.8800370071081,302.585175133499L754.1821451072346,301.53843280478407L751.6995479508921,300.87409040896614L750.065158132263,299.3635711832155M749.4483048598336,301.0815427419567L748.4966623402644,302.79360198919073L747.284280386438,302.3722966948858L745.3113289849555,304.2634051972328L745.1206853751717,306.1142830323462L741.4855336862072,304.5675995733326L742.6111309248711,302.0391396473758L741.5447276806747,300.25379862841896M767.0573653541178,294.8519310338618L767.1207534784792,295.89457094658337L765.0342035092661,301.9632830139426L762.9609313957103,301.23086164178346L759.1022854925552,298.9775061226294M789.1020160117182,288.9623796930176L791.8781326376302,291.4395302777385L795.4393931273896,291.74032399977034L793.8304363638608,292.94181998059776L791.8097078120502,292.30002279635835L790.155494099534,291.9638310131171M769.5846290410688,295.0090120743023L769.4418210018385,298.92588417236357L768.259420479249,300.81214666721553L766.3242143859965,302.3711883612423L765.0342035092661,301.9632830139426M709.9956964799778,318.1289572516432L710.602173037278,319.2793603297846L709.1002971051076,320.06037597790817L705.7560882874521,320.49592057646464L703.9581385214226,322.245466151545L702.1489900208057,320.73590890356536L702.0681709919734,319.19079221186485L704.020933333798,317.5759586217232L703.783622680383,316.26838587847976L705.9272296361283,314.4235851625185L706.077184851443,314.2763938386663L709.364880778548,311.9690324005195L713.685803205415,306.7774067811173L714.3498305821043,307.16189790172325L713.501957789923,307.832901251964L716.0465814719445,311.19853912673534L717.8376861036801,311.88149822983337L720.5285266071813,312.0663788939655L723.0493131568859,309.1760138651513L725.3416609755004,310.78165170280147L728.7121912401774,309.1291686882506L730.4714826299497,307.82893864816265L730.0734231166344,306.3160470512389L730.0974549649302,306.332704646528L731.5462533534342,307.1693564658656L734.9605484473906,304.5241917976796L735.6601791366205,305.53005032846147L737.9438602283415,303.51997112151616L737.3549164149601,302.546990318515L738.7141470382845,301.10714787227596M782.1575934283594,294.8774199024191L783.0624352683128,295.56079659571856L782.4370148595995,297.7790451546085L781.4829356500818,297.9033123959513L779.71738662913,297.07869807297527L779.9060705276673,295.34877112627225L778.9192727861092,294.3205751494046L776.7808274110611,295.5501381897875L775.9381593413198,295.6005348694007L773.5617942398774,298.83308603780006L771.0527402292005,297.86863215435903L769.4418210018385,298.92588417236357M741.4855336862072,304.5675995733326L739.0101339573883,306.5461054418299L737.9770214066046,306.22135867655595L736.6062444692612,307.43951030923984L735.6601791366205,305.53005032846147M785.7904327611823,293.24720570073737L787.9881630194786,293.4392133290786L789.2403278826303,294.95902409426935L787.3611257436717,295.87067129287345L787.4133953629225,296.8668926562125L783.0624352683128,295.56079659571856M754.1821451072346,301.53843280478407L753.1073584786611,302.38552352064346L753.5228387298192,303.7571283725865L751.8110759213343,309.7999479234961L751.4099097619725,310.8237806130322L749.65849885552,310.4392245968636L747.2811356512958,307.97969525744463L745.3928048018857,307.6687782663512L745.1206853751717,306.1142830323462M779.71738662913,297.07869807297527L776.7808274110611,295.5501381897875M791.8097078120502,292.30002279635835L793.6141935783687,293.0138908563474L793.7538253704147,294.1468097406861L795.2619102491852,297.44209950727475L793.6659770000849,298.096934950379L790.0292693170416,294.94989069707947M781.4829356500818,297.9033123959513L781.7310248137171,299.33807343222736L781.4532965385933,299.32209257360216L781.0949309161113,300.68937816681785L780.7343367229771,300.90856810391983L780.5628603201167,301.02205232129756L780.1501041323429,301.30507805516356L777.0661074287164,301.0958926412959L775.6856249287555,301.3310021814824L773.4362884614759,299.87970255470964L773.5617942398774,298.83308603780006M762.9609313957103,301.23086164178346L762.2106992690003,304.23097670760365L760.2944540567055,305.414666709048L758.8214015548176,304.9675000364847L756.7274770263778,301.75826903862355M802.8990193935105,291.2341070041083L801.88165927149,295.17893658840137L801.8623613196609,298.87495170589466L800.5205031355682,296.41580875326576L800.7398374073747,290.73393596165386L802.0360613446912,290.37875502990676M717.8376861036801,311.88149822983337L715.7616362608043,314.00856011031124L714.2599344194952,315.6431487815988L712.4261746691299,316.426526872331L710.3162340270366,312.34559525666464L709.364880778548,311.9690324005195M793.6141935783687,293.0138908563474L794.6359468055732,292.5755818220131L796.5623747737598,293.8019350221275L796.6806660542004,296.23140620781305L793.7538253704147,294.1468097406861M777.0661074287164,301.0958926412959L775.2262671552459,302.847223107196L768.5633499053928,302.1350208248774L768.259420479249,300.81214666721553M787.4133953629225,296.8668926562125L787.8445817312756,296.9485477144956L788.2134156466391,298.9419140483336L786.05547046917,298.40051749925624L782.5448800880192,298.9650215646244L782.4370148595995,297.7790451546085M736.6062444692612,307.43951030923984L734.2976578589321,309.1564067732452L730.9897855218368,311.55279471548386L728.2859856494938,309.54265834360444L728.7121912401774,309.1291686882506M755.8800370071081,302.585175133499L753.5228387298192,303.7571283725865M789.2403278826303,294.95902409426935L790.7820440823857,296.3564649572279L790.2323756664102,297.6910063497161L790.1741555561699,298.2996449243292L790.1741555561699,298.2996449243292L791.0690723052087,298.2716328756545L792.5420957959545,298.9498832575986L792.4665681161916,299.8633535016768L791.7929796827304,299.06033348299195L788.4178706281136,299.25685930365614L787.8445817312756,296.9485477144956M760.2944540567055,305.414666709048L759.7470466821962,309.02424566691786L756.9008480138598,308.73914259147125L755.4096663987555,309.18752865765873L754.3275480998237,307.9154378305765L751.8110759213343,309.7999479234961M745.3928048018857,307.6687782663512L744.0005122569595,309.59929007197957L743.220262437182,309.0508242573595L741.6342281453645,310.27047196054934L740.9382344084862,310.56837840108994L740.3694248686993,308.3632456973444L739.0101339573883,306.5461054418299M742.5708598799315,307.4360534258735L742.5892877380868,306.5658069060455L742.5708598799315,307.4360534258735L743.8289238680641,308.1828416919907L744.6709720760266,306.3033959698139L742.5892877380868,306.5658069060455M768.5633499053928,302.1350208248774L769.0660574287174,305.4191037753251L766.2470435743428,306.73018226379327L762.2063149310798,305.0825218630681L762.2106992690003,304.23097670760365M790.7820440823857,296.3564649572279L791.8166850552868,297.34776987042403L795.5335459141284,298.73987385556165L795.40147230138,299.8137013802602L795.8027616752154,300.36203420952984L795.2502791420758,300.694822001277L792.5420957959545,298.9498832575986M791.0690723052087,298.2716328756545L790.2323756664102,297.6910063497161M740.9382344084862,310.56837840108994L738.752653835127,312.69065411240183L736.0100258833018,313.848795286205L735.1617938015813,311.9822678342416L735.7810395709737,310.75372816667243L734.2976578589321,309.1564067732452M725.3416609755004,310.78165170280147L724.1208453904303,312.8012117043064L725.0976001723071,313.5335957683194L722.4622169372532,315.03216628589337L722.9021020582559,315.45006943728026L719.5307907191473,317.4366126039988L718.0368691706776,317.1739670255083L715.7616362608043,314.00856011031124M781.7310248137171,299.33807343222736L782.6917094452396,299.45732132024L781.4532965385933,299.32209257360216M782.6917094452396,299.45732132024L784.9220504201896,298.7359130127418L786.4345989673734,299.84709147036074L784.7862619720465,302.50966153891034L781.7027448891974,305.41282354471196L781.0401964040132,302.12528005235663L781.0949309161113,300.68937816681785M712.4261746691299,316.426526872331L709.9956964799778,318.1289572516432L707.8275332692949,317.46924977454717L706.077184851443,314.2763938386663M730.9897855218368,311.55279471548386L730.364363184828,313.06875561238337L727.5791372074078,314.48078735609056L725.883585771864,314.273825004738L723.9122168566851,316.394504577574L722.9021020582559,315.45006943728026M780.7343367229771,300.90856810391983L780.5628603201167,301.02205232129756M775.2262671552459,302.847223107196L773.8943103413544,304.03942546057783L774.5938024572283,306.8835978714526L772.8226242700633,306.5722843132478L771.6991591898262,306.9056939127679L769.0660574287174,305.4191037753251M780.1501041323429,301.30507805516356L781.0401964040132,302.12528005235663M781.7027448891974,305.41282354471196L778.9258952598941,308.17326385936235L778.2976011072049,307.9762518039287L776.4512643212092,306.79641409267924L774.5938024572283,306.8835978714526M766.2470435743428,306.73018226379327L766.1786113176618,310.3532145521915L764.5796980382568,314.35590921830476L763.8319008269405,311.71013939328236L759.7470466821962,309.02424566691786M735.7810395709737,310.75372816667243L735.1617938015813,311.9822678342416M736.0100258833018,313.848795286205L734.8570464916921,315.0483115143984L733.4602116113228,316.2819437765161L730.364363184828,313.06875561238337M786.4345989673734,299.84709147036074L789.546578568092,299.73742496616967L791.6217583626462,300.5860032175568L791.5992202223031,302.1294734747745L789.6386512295767,303.7547293160088L788.33133534527,305.016415820161L787.7404859402839,303.0125045339663L784.7862619720465,302.50966153891034M749.65849885552,310.4392245968636L749.5807719054699,314.01399616130357L748.0336598252564,315.57602997513834L744.4255953734497,315.3852184839553L743.9324664133003,316.16438485624144L743.4188520977916,315.35974877419017L740.8542566929738,315.1967517231607L742.2589340924002,312.03148256721204L741.6342281453645,310.27047196054934M795.2502791420758,300.694822001277L796.3461560271257,302.49281022823527L792.3749795677563,300.6745867400135L792.4665681161916,299.8633535016768M795.40147230138,299.8137013802602L796.0764114611516,299.21604165714155L795.9673064813151,300.21789781882444L795.8027616752154,300.36203420952984M791.6217583626462,300.5860032175568L792.310833541034,302.37988121321973L795.0556687960101,303.4223781067154L794.6833537936654,304.42055414331026L790.2732641414573,310.4019044961874L790.080226376266,310.36163915611735L789.637089916379,309.3056673130146L790.4524809373605,305.1927846488237L789.6386512295767,303.7547293160088M718.0368691706776,317.1739670255083L717.2961445097769,317.8497498213201L715.8583524222087,319.29160409507233L713.9724925577575,319.7554622845597L713.7443688392492,320.868110450415L710.6446767889265,323.01774982593497L709.1002971051076,320.06037597790817M756.9008480138598,308.73914259147125L756.7745878101393,318.76785910321576L754.963485824592,319.0949255462972L755.3855771583923,318.2374135180479L753.8005054203804,317.32389782874066L752.3912949539547,318.07770731965707L753.0950349231309,319.434775477813L752.5067354404764,319.53903487769435L749.5124306795853,320.0368469576307L749.5807719054699,314.01399616130357M740.8542566929738,315.1967517231607L738.8866524343885,316.9342752659272L738.018323179271,318.7911283352968L734.8570464916921,315.0483115143984M772.8226242700633,306.5722843132478L773.3470133986116,311.17322618292087L770.1281756085143,311.20817882450194L766.1786113176618,310.3532145521915M795.9673064813151,300.21789781882444L797.6640740114935,300.388369476834L796.3461560271257,302.49281022823527M788.33133534527,305.016415820161L782.2895199228365,310.7811460013901L781.3683044713771,310.7040423693966L781.309438788891,307.9902988013647L778.9258952598941,308.17326385936235M733.4602116113228,316.2819437765161L729.2652183579793,318.34229155015805L728.5561021152848,319.1672659625102L726.1828566136156,319.65312345873394L723.9122168566851,316.394504577574M764.5796980382568,314.35590921830476L763.8648952334164,314.91297734332534L763.8596055548031,317.4778865240711L762.9529746039839,317.6502946456843L757.9504821990474,318.55548265176947L756.7745878101393,318.76785910321576M778.2976011072049,307.9762518039287L778.9833415905812,311.318877057332L777.9680786040085,314.7450873109925L776.038487635165,315.1339385444028L773.9028610303372,315.553216849303L773.3470133986116,311.17322618292087M703.9581385214226,322.245466151545L701.6932733382243,324.9236663861858L701.3505066615874,326.53206027997703L694.1784046621459,327.43419943487606L691.1840024053931,327.7625820091839L694.1746212923108,326.1495315110167L698.7586396223865,324.0525611972547L699.4058534662533,321.83703537638917L702.1489900208057,320.73590890356536M726.1828566136156,319.65312345873394L722.4881642165612,321.27899488708465L721.4958950086577,322.75046759592453L719.6940346303408,320.14186630762845L717.2961445097769,317.8497498213201M789.637089916379,309.3056673130146L790.080226376266,310.36163915611735M790.2732641414573,310.4019044961874L790.3526358497174,312.15405785460814L790.3781095622242,312.30595858741447L786.756841621783,312.9946922834614L784.826524616858,313.4067482776187L783.1764874741368,311.88767826993274L781.3807095382276,311.67501159650044L782.2895199228365,310.7811460013901M804.1345953219558,309.1406110391697L804.8308642663567,309.1571695689362L804.2160738392054,309.29198269391895L804.1345953219558,309.1406110391697M799.5841886575986,303.11857781527704L799.5206784914677,304.84630667401086L797.6553547500794,304.4442963457366L797.3260446372904,302.7985894838515L799.5841886575986,303.11857781527704L802.3732606290989,302.7098397766341L805.6126749224002,308.9871974379614L805.2528584723193,309.0645286867765L803.8669015560492,306.1343799457925L803.9548583101096,309.34578484185863L803.4854067265878,309.44606959935857L803.1669923444617,309.51295922091015L801.9046697008514,309.78252200780105L801.459285978387,307.6584526721173L802.1358897963605,307.00006381236653L799.8657454636066,305.9907318629105L799.2893484995718,304.8309833491386L799.5206784914677,304.84630667401086M738.018323179271,318.7911283352968L736.2508335139149,319.9876308340322L736.3127880443651,321.9528520137293L732.9975156290623,322.46568416866023L731.604418044624,320.94970788161424L731.2781121883015,320.5957643676519L729.2652183579793,318.34229155015805M721.4958950086577,322.75046759592453L720.9716661877923,323.3425665907837L718.324999976351,323.6976961498659L713.6867969209086,324.7582195283044L713.8992917759446,323.74843793195964L713.8992917759446,323.74843793195964L712.2549137628075,324.95027910265696L711.511128447347,325.0584906659328L710.6446767889265,323.01774982593497M798.4139419657533,305.2897700951612L796.7977094830912,305.7654255323913L798.3146320023548,305.12747349057054M796.3497267137532,304.8688747271435L796.0123042991398,305.93050108089767L796.533364042959,310.91063030882924L795.8022650057543,311.06263590160734L790.3526358497174,312.15405785460814M794.6833537936654,304.42055414331026L794.8263106369404,305.6828738645096L796.4199676419248,304.27061572552213M784.826524616858,313.4067482776187L777.9680786040085,314.7450873109925M773.9028610303372,315.553216849303L769.8477634055041,316.3295497502007L767.9076277941077,316.7210042851234L763.8596055548031,317.4778865240711M711.511128447347,325.0584906659328L706.8824524828674,325.75248335752224L703.6262934076922,326.21657697274566L701.3505066615874,326.53206027997703M743.9324664133003,316.16438485624144L743.2032206984878,316.5712882374945L744.547259688296,320.87664334184444L738.8559362610287,321.6736542496724L736.3127880443651,321.9528520137293M796.9663138194883,305.24795638698447L796.3497267137532,304.8688747271435L796.4199676419248,304.27061572552213L796.9663138194883,305.24795638698447L796.7977094830912,305.7654255323913M799.0140621394482,304.9418596404073L798.4139419657533,305.2897700951612L798.3146320023548,305.12747349057054L799.0140621394482,304.9418596404073L799.2893484995718,304.8309833491386M801.9046697008514,309.78252200780105L799.128739146844,310.37086232516776L796.533364042959,310.91063030882924M749.5124306795853,320.0368469576307L744.9311931155183,320.81156111756945L744.547259688296,320.87664334184444M731.2781121883015,320.5957643676519L731.604418044624,320.94970788161424M732.9975156290623,322.46568416866023L732.0523588363059,322.56717247646384L725.3880924285255,323.37254632459883L720.5908548526162,323.85219204618045L720.9716661877923,323.3425665907837M754.963485824592,319.0949255462972L753.0950349231309,319.434775477813M713.6867969209086,324.7582195283044L712.2549137628075,324.95027910265696M766.3441380298735,269.588199191052L765.8724614905592,270.3335629038846L763.5840291019713,269.6804193052793M747.8776490140531,290.76508868029543L746.1566129384755,295.17378515269036L742.6964929475205,295.3634429979337L741.8043230866535,294.3392432862428L740.0729034182302,294.6787954227781L741.0928418139513,292.34472509585896L741.2926710515459,290.0694084653171L742.8232328476197,288.19642696702135L742.4795654479765,287.4589818883095L743.7958674056206,284.86640488499245L743.8800686371923,281.7973893793949L745.5985035932113,282.2863750520295L746.7495801337204,283.85854786607376L749.1964003651077,284.2896904659706L750.279579125715,282.8387572411658L751.71322512083,277.13906763207103L752.3192235213684,275.3417233844764L754.3787173498206,276.6365277632366L755.1327988830167,274.11623747544536L756.050404906114,273.6203996079712L757.9795429627686,270.34288976559117M778.5183009001696,268.71712705794357L777.9314221242473,269.62438412180643M777.9314221242473,269.62438412180643L778.3111593712956,269.8879935592321M778.3111593712956,269.8879935592321L778.9834166403073,270.3726309514535M778.9834166403073,270.3726309514535L780.0249758912588,271.19371868850624M780.0249758912588,271.19371868850624L780.4004570559289,272.47669951922126L779.0736465973957,274.2608942986018L777.7714817026397,273.96300285560994M777.7714817026397,273.96300285560994L772.9652446335454,271.4963525113568" vector-effect="non-scaling-stroke"></path></svg>