<svg xmlns="http://www.w3.org/2000/svg" version="1.2" id="root" viewBox="804.5862751969141 139.92927180940228 25.115759296616034 47.01673222507418"><g id="counties"><path id="county-50011" class="county feature" d="M814.701 143.492l1.075 3.102-.35 1.083-2.19.459-.192 1.862-1.39 1.484-4.323-.667-.817-5.396z" vector-effect="non-scaling-stroke" fill="inherit" stroke="inherit" stroke-width="inherit"><title>Franklin County</title></path><path id="county-50009" class="county feature" d="M827.635 151.811l-.675 1.295-1.668-1.37.725-1.252-.904-.751.543-1.381-1.035-.425.612-1.503-1.562-.61.328-2.16-.91-2.304 5.028-1.42.572 1.814-.981 3.415 1.994 2.65-.137 1.575z" vector-effect="non-scaling-stroke" fill="inherit" stroke="inherit" stroke-width="inherit"><title>Essex County</title></path><path id="county-50013" class="county feature" d="M807.33 150.815l-.051 2.699-.959.613-.578-.868-.144-3.597-.692-.456-.32-3.264 1.928-.523z" vector-effect="non-scaling-stroke" fill="inherit" stroke="inherit" stroke-width="inherit"><title>Grand Isle County</title></path><path id="county-50019" class="county feature" d="M823.088 141.35l.911 2.304-.328 2.16-.605 1.513-1.544-.583-.942 4.247-1.634-.393-1.608-.552.393-1.82-2.304-.549.349-1.083-1.075-3.102z" vector-effect="non-scaling-stroke" fill="inherit" stroke="inherit" stroke-width="inherit"><title>Orleans County</title></path><path id="county-50015" class="county feature" d="M818.946 150.598l-.408 1.61-.357 1.643-1.615-.628-.371 1.658-2.188-.484-.764-1.75-1.59-1.165 1.391-1.484.192-1.862 2.19-.459 2.305.55-.393 1.819z" vector-effect="non-scaling-stroke" fill="inherit" stroke="inherit" stroke-width="inherit"><title>Lamoille County</title></path><path id="county-50005" class="county feature" d="M826.96 153.106l-2.389 1.15.677 3.01-4.467.209.843-4.479-3.086-.788.408-1.61 1.634.393.942-4.247 1.544.583.605-1.513 1.562.61-.612 1.503 1.035.425-.543 1.38.904.752-.725 1.251z" vector-effect="non-scaling-stroke" fill="inherit" stroke="inherit" stroke-width="inherit"><title>Caledonia County</title></path><path id="county-50007" class="county feature" d="M811.653 151.482l1.59 1.165.764 1.75-.592 5.752-.938-2.436-4.2 1.711-.505-3.042-1.076-2.02-.376-.235.959-.613.052-2.7z" vector-effect="non-scaling-stroke" fill="inherit" stroke="inherit" stroke-width="inherit"><title>Chittenden County</title></path><path id="county-50023" class="county feature" d="M820.78 157.475l-.618 1.615-2.042-.097-.548 2.98-.834-.107-2.46-.205-.863-1.512.592-5.752 2.188.484.371-1.658 1.615.628.357-1.643 3.086.788z" vector-effect="non-scaling-stroke" fill="inherit" stroke="inherit" stroke-width="inherit"><title>Washington County</title></path><path id="county-50001" class="county feature" d="M813.415 160.149l.863 1.512 2.46.205-.336 1.392-2.098 2.05.533.952-3.438.64.477 1.242-1.976.748-.466-.96-1.795-4.097-.039-2.85.676-1.559 4.2-1.711z" vector-effect="non-scaling-stroke" fill="inherit" stroke="inherit" stroke-width="inherit"><title>Addison County</title></path><path id="county-50017" class="county feature" d="M825.248 157.265l-.354 7.536-8.236-.973-.256-.57.336-1.392.834.106.548-2.979 2.042.097.619-1.615z" vector-effect="non-scaling-stroke" fill="inherit" stroke="inherit" stroke-width="inherit"><title>Orange County</title></path><path id="county-50027" class="county feature" d="M824.894 164.801l-.926 1.695.1 1.826-.519.685.855 6.331-3.226 1.018-1.94-.15-.841-.666-.13-1.328 1.305.002-.093-2.193-.956-.27.324-3.712-1.709-.23.09-1.714-1.435-.683-.956.848-.533-.952 2.098-2.05.256.57z" vector-effect="non-scaling-stroke" fill="inherit" stroke="inherit" stroke-width="inherit"><title>Windsor County</title></path><path id="county-50021" class="county feature" d="M818.397 175.54l-5.143.995-.978-4.354-1.034-1.16-1.698.068.356-2.199 1.976-.748-.477-1.242 3.438-.64.956-.848 1.435.683-.09 1.714 1.709.23-.324 3.712.956.27.093 2.193-1.305-.002z" vector-effect="non-scaling-stroke" fill="inherit" stroke="inherit" stroke-width="inherit"><title>Rutland County</title></path><path id="county-50003" class="county feature" d="M818.397 175.54l.84.666-.001 2.753-1.714.309.705 3.483 1.156-.223.728 3.45-1.238.27-3.225.698-.998-3.58-1.396-6.831z" vector-effect="non-scaling-stroke" fill="inherit" stroke="inherit" stroke-width="inherit"><title>Bennington County</title></path><path id="county-50025" class="county feature" d="M824.404 175.338l.091 1.372.792 2.71-.747 3.224 1.866 1.997-6.295 1.337-.728-3.45-1.156.223-.705-3.483 1.714-.31.002-2.752 1.94.15z" vector-effect="non-scaling-stroke" fill="inherit" stroke="inherit" stroke-width="inherit"><title>Windham County</title></path></g><path id="counties-mesh" class="counties mesh" d="M828.117 139.93l.572 1.814-.981 3.415 1.994 2.65-.137 1.575-1.93 2.427-.675 1.295-1.668-1.37.725-1.252-.904-.751.543-1.381-1.035-.425.612-1.503-1.562-.61.328-2.16-.91-2.304 5.028-1.42m-20.786 10.885l-.052 2.699-.959.613-.578-.868-.144-3.597-.692-.456-.32-3.264 1.928-.523m7.493 8.978l-.592 5.752-.938-2.436-4.2 1.711-.505-3.042-1.076-2.02-.376-.235m17.351-8.313l-.605 1.513-1.544-.583-.942 4.247-1.634-.393-1.608-.552.393-1.82-2.304-.549m-.726-4.185l1.075 3.102-.35 1.083-2.19.459-.192 1.862-1.39 1.484-4.323-.667-.817-5.396 8.187-1.927 8.387-2.142m-4.142 9.248l-.408 1.61-.357 1.643-1.615-.628-.371 1.658-2.188-.484-.764-1.75-1.59-1.165m15.307 1.624l-2.389 1.15.677 3.01-4.467.209.843-4.479-3.086-.788m-1.8 9.658l-.336 1.392-2.098 2.05.533.952-3.438.64.477 1.242-1.976.748-.466-.96-1.795-4.097-.039-2.85.676-1.559m12.505-1.95l-.62 1.616-2.04-.097-.55 2.98-.833-.107-2.46-.205-.863-1.512m11.479 4.652l-8.236-.973-.256-.57m8.846-5.993l-.354 7.536-.926 1.695.1 1.826-.519.685.855 6.331-3.226 1.018-1.94-.15-.841-.666-.13-1.328 1.305.002-.093-2.193-.956-.27.324-3.712-1.709-.23.09-1.714-1.435-.683-.956.848m3.56 9.28l-5.143.995-.978-4.354-1.034-1.16-1.698.068.356-2.199m9.338 7.316l-.002 2.753-1.714.309.705 3.483 1.156-.223.728 3.45-1.238.27-3.225.698-.998-3.58-1.396-6.831m11.15-1.197l.091 1.372.792 2.71-.747 3.224 1.866 1.997-6.295 1.337" vector-effect="non-scaling-stroke" fill="inherit" stroke="inherit" stroke-width="inherit"/></svg>