<?xml version="1.0" standalone="yes"?>
<svg xmlns="http://www.w3.org/2000/svg" version="1.2" id="root" viewBox="801.77930610885 137.12230272133814 30.729697472744295 52.63067040120244"><style>
@import url("../../css/svg.css");</style><rect id="bbox" class="bbox" x="801.77930610885" y="137.12230272133814" width="30.729697472744295" height="52.63067040120244"></rect><g id="counties"><path id="county-50011" class="county feature" d="M814.7011041714052,143.49164496027595L815.7759875391337,146.5942065710716L815.4269316806551,147.67695217062624L813.2361222239099,148.1358386374793L813.0441599679954,149.9975491395512L811.6532504585969,151.48247372175706L807.3306534201643,150.81487160346865L806.5144406553001,145.419481619424Z" style="fill: inherit; stroke: inherit; stroke-width: inherit;" vector-effect="non-scaling-stroke"><title>Franklin County</title></path><path id="county-50009" class="county feature" d="M827.6349468211611,151.8114730351482L826.9597651003913,153.1056663873951L825.2918809841772,151.73518078323968L826.0174339958744,150.48423279042242L825.1133565672411,149.73279353926455L825.6556176170282,148.35182622693878L824.6210883953728,147.9274211490391L825.2332854355072,146.42370272787628L823.6713637287344,145.81423288233157L823.9991475022753,143.65420924396153L823.088370011033,141.34978790995888L828.1174958140455,139.92927180940228L828.6890757613623,141.74412265146975L827.7076186715572,145.15876184635783L829.7020344935302,147.8080824378428L829.564630540011,149.38410871462395Z" style="fill: inherit; stroke: inherit; stroke-width: inherit;" vector-effect="non-scaling-stroke"><title>Essex County</title></path><path id="county-50013" class="county feature" d="M807.3306534201643,150.81487160346865L807.2790291387611,153.51381041447178L806.3201839920303,154.12682757997936L805.7421464635316,153.2593501781488L805.5975729837792,149.66172997357705L804.9057371550721,149.20617721958013L804.5862751969141,145.94238978094768L806.5144406553001,145.419481619424Z" style="fill: inherit; stroke: inherit; stroke-width: inherit;" vector-effect="non-scaling-stroke"><title>Grand Isle County</title></path><path id="county-50019" class="county feature" d="M823.088370011033,141.34978790995888L823.9991475022753,143.65420924396153L823.6713637287344,145.81423288233157L823.0658504957329,147.32743344187395L821.5219011114502,146.74391783271335L820.5800897526442,150.99055331874285L818.9463700922163,150.59799621928698L817.3380699493306,150.04589604216244L817.731365706208,148.22615799040148L815.4269316806551,147.67695217062624L815.7759875391337,146.5942065710716L814.7011041714052,143.49164496027595Z" style="fill: inherit; stroke: inherit; stroke-width: inherit;" vector-effect="non-scaling-stroke"><title>Orleans County</title></path><path id="county-50015" class="county feature" d="M818.9463700922163,150.59799621928698L818.5383102566597,152.2077006999391L818.1811583812064,153.85099675470542L816.5661852863781,153.22272742361247L816.1949943697414,154.88076553195435L814.007323077917,154.39681927960726L813.2426106221686,152.64710018378048L811.6532504585969,151.48247372175706L813.0441599679954,149.9975491395512L813.2361222239099,148.1358386374793L815.4269316806551,147.67695217062624L817.731365706208,148.22615799040148L817.3380699493306,150.04589604216244Z" style="fill: inherit; stroke: inherit; stroke-width: inherit;" vector-effect="non-scaling-stroke"><title>Lamoille County</title></path><path id="county-50005" class="county feature" d="M826.9597651003913,153.1056663873951L824.5713738698182,154.2567728265309L825.2475782146521,157.2654125980755L820.780858614608,157.4748875944107L821.6238076596868,152.99620667771865L818.5383102566597,152.2077006999391L818.9463700922163,150.59799621928698L820.5800897526442,150.99055331874285L821.5219011114502,146.74391783271335L823.0658504957329,147.32743344187395L823.6713637287344,145.81423288233157L825.2332854355072,146.42370272787628L824.6210883953728,147.9274211490391L825.6556176170282,148.35182622693878L825.1133565672411,149.73279353926455L826.0174339958744,150.48423279042242L825.2918809841772,151.73518078323968Z" style="fill: inherit; stroke: inherit; stroke-width: inherit;" vector-effect="non-scaling-stroke"><title>Caledonia County</title></path><path id="county-50007" class="county feature" d="M811.6532504585969,151.48247372175706L813.2426106221686,152.64710018378048L814.007323077917,154.39681927960726L813.4146662897888,160.1490264442441L812.4769474932735,157.71268870384756L808.2761680717666,159.42447127144612L807.7716527971666,156.3820488757243L806.6959190671041,154.3615095305537L806.3201839920303,154.12682757997936L807.2790291387611,153.51381041447178L807.3306534201643,150.81487160346865Z" style="fill: inherit; stroke: inherit; stroke-width: inherit;" vector-effect="non-scaling-stroke"><title>Chittenden County</title></path><path id="county-50023" class="county feature" d="M820.780858614608,157.4748875944107L820.1617989882764,159.08952385942803L818.1202900812402,158.99309746692927L817.571711345707,161.97223953148477L816.7382663258037,161.86620356772733L814.2780420244244,161.66072711591846L813.4146662897888,160.1490264442441L814.007323077917,154.39681927960726L816.1949943697414,154.88076553195435L816.5661852863781,153.22272742361247L818.1811583812064,153.85099675470542L818.5383102566597,152.2077006999391L821.6238076596868,152.99620667771865Z" style="fill: inherit; stroke: inherit; stroke-width: inherit;" vector-effect="non-scaling-stroke"><title>Washington County</title></path><path id="county-50001" class="county feature" d="M813.4146662897888,160.1490264442441L814.2780420244244,161.66072711591846L816.7382663258037,161.86620356772733L816.4019892496128,163.25752354746294L814.3042225943485,165.30829298134984L814.8369408686926,166.25966930686775L811.3986572834701,166.89960071886173L811.8760366264585,168.1422297244826L809.8997354643354,168.8902296850656L809.4337244031381,167.9305631642054L807.639414982001,163.8334797346614L807.6002087715939,160.98253044835587L808.2761680717666,159.42447127144612L812.4769474932735,157.71268870384756Z" style="fill: inherit; stroke: inherit; stroke-width: inherit;" vector-effect="non-scaling-stroke"><title>Addison County</title></path><path id="county-50017" class="county feature" d="M825.2475782146521,157.2654125980755L824.8938735519387,164.8010698722528L816.6580612380025,163.82774431274936L816.4019892496128,163.25752354746294L816.7382663258037,161.86620356772733L817.571711345707,161.97223953148477L818.1202900812402,158.99309746692927L820.1617989882764,159.08952385942803L820.780858614608,157.4748875944107Z" style="fill: inherit; stroke: inherit; stroke-width: inherit;" vector-effect="non-scaling-stroke"><title>Orange County</title></path><path id="county-50027" class="county feature" d="M824.8938735519387,164.8010698722528L823.9675081791255,166.49604461892602L824.0683991636129,168.32194852540954L823.5492250875334,169.00693840327665L824.4040748148695,175.33832194645834L821.1781228541782,176.3564035183257L819.23781722647,176.2057571659127L818.396916994044,175.5400251015085L818.2668810340981,174.21155532870614L819.5717710837562,174.21388258577895L819.4787376885776,172.02108120193157L818.5231409771659,171.7505421310268L818.8468337084264,168.03889974063657L817.1383191040283,167.80898662547645L817.2280568358253,166.09459891697543L815.7926658157148,165.41173977417634L814.8369408686926,166.25966930686775L814.3042225943485,165.30829298134984L816.4019892496128,163.25752354746294L816.6580612380025,163.82774431274936Z" style="fill: inherit; stroke: inherit; stroke-width: inherit;" vector-effect="non-scaling-stroke"><title>Windsor County</title></path><path id="county-50021" class="county feature" d="M818.396916994044,175.5400251015085L813.2539321516862,176.5349888751689L812.2760967586671,172.18053973937776L811.2422585482559,171.02100167054607L809.5440196555934,171.08905766162786L809.8997354643354,168.8902296850656L811.8760366264585,168.1422297244826L811.3986572834701,166.89960071886173L814.8369408686926,166.25966930686775L815.7926658157148,165.41173977417634L817.2280568358253,166.09459891697543L817.1383191040283,167.80898662547645L818.8468337084264,168.03889974063657L818.5231409771659,171.7505421310268L819.4787376885776,172.02108120193157L819.5717710837562,174.21388258577895L818.2668810340981,174.21155532870614Z" style="fill: inherit; stroke: inherit; stroke-width: inherit;" vector-effect="non-scaling-stroke"><title>Rutland County</title></path><path id="county-50003" class="county feature" d="M818.396916994044,175.5400251015085L819.23781722647,176.2057571659127L819.235807129977,178.95880176124797L817.5223904450894,179.2676959740229L818.2265071805764,182.7510271733322L819.3827580420266,182.52752005253717L820.1114576611533,185.9780149864314L818.8725903088759,186.24774907938001L815.6480893663787,186.94600403447646L814.6495913494559,183.36654734318915L813.2539321516862,176.5349888751689Z" style="fill: inherit; stroke: inherit; stroke-width: inherit;" vector-effect="non-scaling-stroke"><title>Bennington County</title></path><path id="county-50025" class="county feature" d="M824.4040748148695,175.33832194645834L824.4954848215265,176.7100508996848L825.2865305028381,179.41978859682467L824.5402952590764,182.64430355768445L826.4058202313613,184.64108929202564L820.1114576611533,185.9780149864314L819.3827580420266,182.52752005253717L818.2265071805764,182.7510271733322L817.5223904450894,179.2676959740229L819.235807129977,178.95880176124797L819.23781722647,176.2057571659127L821.1781228541782,176.3564035183257Z" style="fill: inherit; stroke: inherit; stroke-width: inherit;" vector-effect="non-scaling-stroke"><title>Windham County</title></path></g><path id="counties-mesh" class="counties mesh" d="M828.1174958140455,139.92927180940228L828.6890757613623,141.74412265146975L827.7076186715572,145.15876184635783L829.7020344935302,147.8080824378428L829.564630540011,149.38410871462395L827.6349468211611,151.8114730351482L826.9597651003913,153.1056663873951L825.2918809841772,151.73518078323968L826.0174339958744,150.48423279042242L825.1133565672411,149.73279353926455L825.6556176170282,148.35182622693878L824.6210883953728,147.9274211490391L825.2332854355072,146.42370272787628L823.6713637287344,145.81423288233157L823.9991475022753,143.65420924396153L823.088370011033,141.34978790995888L828.1174958140455,139.92927180940228M807.3306534201643,150.81487160346865L807.2790291387611,153.51381041447178L806.3201839920303,154.12682757997936L805.7421464635316,153.2593501781488L805.5975729837792,149.66172997357705L804.9057371550721,149.20617721958013L804.5862751969141,145.94238978094768L806.5144406553001,145.419481619424M814.007323077917,154.39681927960726L813.4146662897888,160.1490264442441L812.4769474932735,157.71268870384756L808.2761680717666,159.42447127144612L807.7716527971666,156.3820488757243L806.6959190671041,154.3615095305537L806.3201839920303,154.12682757997936M823.6713637287344,145.81423288233157L823.0658504957329,147.32743344187395L821.5219011114502,146.74391783271335L820.5800897526442,150.99055331874285L818.9463700922163,150.59799621928698L817.3380699493306,150.04589604216244L817.731365706208,148.22615799040148L815.4269316806551,147.67695217062624M814.7011041714052,143.49164496027595L815.7759875391337,146.5942065710716L815.4269316806551,147.67695217062624L813.2361222239099,148.1358386374793L813.0441599679954,149.9975491395512L811.6532504585969,151.48247372175706L807.3306534201643,150.81487160346865L806.5144406553001,145.419481619424L814.7011041714052,143.49164496027595L823.088370011033,141.34978790995888M818.9463700922163,150.59799621928698L818.5383102566597,152.2077006999391L818.1811583812064,153.85099675470542L816.5661852863781,153.22272742361247L816.1949943697414,154.88076553195435L814.007323077917,154.39681927960726L813.2426106221686,152.64710018378048L811.6532504585969,151.48247372175706M826.9597651003913,153.1056663873951L824.5713738698182,154.2567728265309L825.2475782146521,157.2654125980755L820.780858614608,157.4748875944107L821.6238076596868,152.99620667771865L818.5383102566597,152.2077006999391M816.7382663258037,161.86620356772733L816.4019892496128,163.25752354746294L814.3042225943485,165.30829298134984L814.8369408686926,166.25966930686775L811.3986572834701,166.89960071886173L811.8760366264585,168.1422297244826L809.8997354643354,168.8902296850656L809.4337244031381,167.9305631642054L807.639414982001,163.8334797346614L807.6002087715939,160.98253044835587L808.2761680717666,159.42447127144612M820.780858614608,157.4748875944107L820.1617989882764,159.08952385942803L818.1202900812402,158.99309746692927L817.571711345707,161.97223953148477L816.7382663258037,161.86620356772733L814.2780420244244,161.66072711591846L813.4146662897888,160.1490264442441M824.8938735519387,164.8010698722528L816.6580612380025,163.82774431274936L816.4019892496128,163.25752354746294M825.2475782146521,157.2654125980755L824.8938735519387,164.8010698722528L823.9675081791255,166.49604461892602L824.0683991636129,168.32194852540954L823.5492250875334,169.00693840327665L824.4040748148695,175.33832194645834L821.1781228541782,176.3564035183257L819.23781722647,176.2057571659127L818.396916994044,175.5400251015085L818.2668810340981,174.21155532870614L819.5717710837562,174.21388258577895L819.4787376885776,172.02108120193157L818.5231409771659,171.7505421310268L818.8468337084264,168.03889974063657L817.1383191040283,167.80898662547645L817.2280568358253,166.09459891697543L815.7926658157148,165.41173977417634L814.8369408686926,166.25966930686775M818.396916994044,175.5400251015085L813.2539321516862,176.5349888751689L812.2760967586671,172.18053973937776L811.2422585482559,171.02100167054607L809.5440196555934,171.08905766162786L809.8997354643354,168.8902296850656M819.23781722647,176.2057571659127L819.235807129977,178.95880176124797L817.5223904450894,179.2676959740229L818.2265071805764,182.7510271733322L819.3827580420266,182.52752005253717L820.1114576611533,185.9780149864314L818.8725903088759,186.24774907938001L815.6480893663787,186.94600403447646L814.6495913494559,183.36654734318915L813.2539321516862,176.5349888751689M824.4040748148695,175.33832194645834L824.4954848215265,176.7100508996848L825.2865305028381,179.41978859682467L824.5402952590764,182.64430355768445L826.4058202313613,184.64108929202564L820.1114576611533,185.9780149864314" style="fill: inherit; stroke: inherit; stroke-width: inherit;" vector-effect="non-scaling-stroke"></path></svg>