<?xml version="1.0" standalone="yes"?>
<svg xmlns="http://www.w3.org/2000/svg" version="1.2" id="root" viewBox="150.58223304356966 60.793553936507124 99.26537138996889 72.41437678018781"><style>
@import url("../../css/svg.css");</style><rect id="bbox" class="bbox" x="150.58223304356966" y="60.793553936507124" width="99.26537138996889" height="72.41437678018781"></rect><g id="counties"><path id="county-53073" class="county feature" d="M203.85631949544666,67.16574961388721L204.64695256075504,68.26198655613382L204.24437929962198,71.43641696464294L204.91095024501868,72.72190753660766L203.4273313958319,73.60022917862182L201.4363764777213,73.38526266060558L182.4858998398064,68.04698631290341L182.95134674943893,66.3228855888151L181.24381018256258,65.20848145955165L180.04585728433216,61.70176962847768L181.0879861841509,60.793553936507124L192.97739017483724,64.2562361751385Z" style="fill: inherit; stroke: inherit; stroke-width: inherit;" vector-effect="non-scaling-stroke"><title>Whatcom County</title></path><path id="county-53047" class="county feature" d="M228.069908873962,73.3752733243324L223.29978908348232,92.04545546947702L221.75176402260786,91.93434712922385L221.72385628247196,91.57492683006046L222.36149860939867,90.6510823256483L221.53978768436423,88.17507852915105L220.48023096809862,87.76067936889501L216.6672859337571,88.12003816222591L213.74561215472102,88.86986112684667L213.7178145872969,87.09035268596028L211.06329605503987,87.07795864846071L210.85925160564216,88.87324461287983L208.682254599626,88.30840741327552L208.01199869208097,86.13599590857336L205.83183060452228,83.58390216728935L205.82274598598053,82.16132464816053L203.8648078860802,80.19027366450268L203.4351617699814,76.00957706430597L203.4273313958319,73.60022917862182L204.91095024501868,72.72190753660766L204.24437929962198,71.43641696464294L204.64695256075504,68.26198655613382L203.85631949544666,67.16574961388721L213.36455246139406,69.68415564455665Z" style="fill: inherit; stroke: inherit; stroke-width: inherit;" vector-effect="non-scaling-stroke"><title>Okanogan County</title></path><path id="county-53065" class="county feature" d="M245.05484477500693,77.39663922308273L242.75657970084848,79.96843879615562L241.21159768508232,83.03865981610875L242.7878343089514,83.3954295929276L240.5948467641852,92.78321178300348L241.0324007814059,94.54906072591325L239.82831790200373,94.25987919940485L238.77475136160143,98.80966448673541L237.23041470458816,96.73574362245824L235.3811300266102,97.46183513704023L234.74753014728662,96.88619788895835L232.12550651581302,97.17904801029397L231.10743469953633,94.16829528660332L229.2897987159024,94.70320390692802L229.25589835618,92.28238218301124L231.21569764128776,91.97696435222315L231.47278414457747,90.80122939315595L233.28824233525273,88.80008070800056L233.22500452218287,85.42756732756698L235.62132758590917,81.48712053622899L235.08293542065144,77.33233407137982L235.7868911700375,75.24055051034304Z" style="fill: inherit; stroke: inherit; stroke-width: inherit;" vector-effect="non-scaling-stroke"><title>Stevens County</title></path><path id="county-53051" class="county feature" d="M249.84760443353855,78.50984305552834L249.22916419201323,81.25862084676214L245.8643570144573,95.67883911946831L241.0324007814059,94.54906072591325L240.5948467641852,92.78321178300348L242.7878343089514,83.3954295929276L241.21159768508232,83.03865981610875L242.75657970084848,79.96843879615562L245.05484477500693,77.39663922308273Z" style="fill: inherit; stroke: inherit; stroke-width: inherit;" vector-effect="non-scaling-stroke"><title>Pend Oreille County</title></path><path id="county-53019" class="county feature" d="M235.7868911700375,75.24055051034304L235.08293542065144,77.33233407137982L235.62132758590917,81.48712053622899L233.22500452218287,85.42756732756698L233.28824233525273,88.80008070800056L231.47278414457747,90.80122939315595L231.21569764128776,91.97696435222315L229.25589835618,92.28238218301124L229.2897987159024,94.70320390692802L228.86352393311785,95.60718956271944L226.8706745599933,94.49288656221972L226.64087565186736,93.34277433299167L224.5378087944959,93.44428594217061L223.29978908348232,92.04545546947702L228.069908873962,73.3752733243324Z" style="fill: inherit; stroke: inherit; stroke-width: inherit;" vector-effect="non-scaling-stroke"><title>Ferry County</title></path><path id="county-53055" class="county feature" d="M177.36466476363512,68.34157585028026L177.34284738032528,70.75133763190081L176.08774814160648,69.66263139380806ZM174.46762458407267,66.12843384476037L175.73085629870928,67.6980573601736L174.95868420552551,69.46032596171665L173.9915568924191,68.38654153680693ZM177.91803934757752,65.39518916071665L179.5195214915501,66.89344314765674L176.7364112536315,67.3080586620996L176.27828862317796,66.07975590393426Z" style="fill: inherit; stroke: inherit; stroke-width: inherit;" vector-effect="non-scaling-stroke"><title>San Juan County</title></path><path id="county-53057" class="county feature" d="M179.33797227822902,71.64837618731178L179.14240820603737,70.04076453679795L180.3654348880524,69.79901229557947L181.5858897458275,71.43710083420672L182.4858998398064,68.04698631290341L201.4363764777213,73.38526266060558L203.4273313958319,73.60022917862182L203.4351617699814,76.00957706430597L202.02185787359036,75.3738994505419L199.24754322192615,75.58603546341374L197.93823862567587,78.62650711416256L198.68213423743782,79.2562677740101L181.97896818770022,74.59676520156097Z" style="fill: inherit; stroke: inherit; stroke-width: inherit;" vector-effect="non-scaling-stroke"><title>Skagit County</title></path><path id="county-53007" class="county feature" d="M203.4351617699814,76.00957706430597L203.8648078860802,80.19027366450268L205.82274598598053,82.16132464816053L205.83183060452228,83.58390216728935L208.01199869208097,86.13599590857336L208.682254599626,88.30840741327552L210.85925160564216,88.87324461287983L208.44963963867377,91.7096057222933L206.1043125914752,91.44250555952408L204.73689337587592,94.16910221082003L203.50087069148083,95.40673514737875L203.12045841118356,97.74618893912611L205.3384848865971,99.3967872159335L204.87701301852843,100.70431103240605L201.234347794001,99.77205260364894L198.2240546742765,97.40223784039449L196.91737151675807,95.53122537203092L195.47510297342023,94.9376285024066L193.9428822925056,91.3774616989208L195.04142334507247,89.5785816890965L194.76240069456895,88.08784931780065L195.5853037118327,87.40790146277459L194.58405961974614,85.76436107430163L195.6057246174929,83.31059108547436L197.4563013206241,83.14819556476743L199.20288996362808,81.91980896796781L198.68213423743782,79.2562677740101L197.93823862567587,78.62650711416256L199.24754322192615,75.58603546341374L202.02185787359036,75.3738994505419Z" style="fill: inherit; stroke: inherit; stroke-width: inherit;" vector-effect="non-scaling-stroke"><title>Chelan County</title></path><path id="county-53029" class="county feature" d="M181.49103016232817,75.35563880711072L181.50200813601617,75.76079974994241L180.21653016852025,76.43679463697288L180.97080744538954,78.34897423198788L179.6040793491308,77.06813479904883L179.9557246012032,74.94044939343837ZM179.97862419135743,72.11997870964638L180.53881665722736,74.11512500927631L178.64962790905355,73.89203620744445L177.4105926964271,74.62790088709596L178.83256812752455,75.39047877914697L178.64851636708983,79.05794164060421L179.255361568549,77.67885436540132L180.74286399016387,79.29752207718866L180.08050572656526,81.57308959880379L177.92666518805902,78.55779741044842L178.48835624767497,76.29383056885752L176.9503090612463,74.54861516470078L179.1476229237328,71.77338886358439Z" style="fill: inherit; stroke: inherit; stroke-width: inherit;" vector-effect="non-scaling-stroke"><title>Island County</title></path><path id="county-53009" class="county feature" d="M174.2336991269745,76.83392086176264L172.9431022854232,80.27785337674902L166.14629439773034,78.28383082290759L166.2172344472092,78.0297490010048L152.92554248890627,73.99156521612042L153.05583193368722,68.44504837529655L155.3814012336142,64.92893471332093L157.78281058325229,67.60923902177046L159.35978948127575,68.53329226525068L162.04943780235317,71.28886621119773L165.36097824965617,72.22857464746073L168.83148132331996,74.29719073742945L172.38815017481363,74.61835376383817Z" style="fill: inherit; stroke: inherit; stroke-width: inherit;" vector-effect="non-scaling-stroke"><title>Clallam County</title></path><path id="county-53061" class="county feature" d="M198.68213423743782,79.2562677740101L199.20288996362808,81.91980896796781L197.4563013206241,83.14819556476743L195.6057246174929,83.31059108547436L194.58405961974614,85.76436107430163L195.5853037118327,87.40790146277459L194.76240069456895,88.08784931780065L179.20883233874252,83.80472089174714L181.16357230459954,81.0586884129807L182.91131422289914,79.90166071978217L181.45392147476258,78.26834629637938L181.50200813601617,75.76079974994241L181.49103016232817,75.35563880711072L181.97896818770022,74.59676520156097Z" style="fill: inherit; stroke: inherit; stroke-width: inherit;" vector-effect="non-scaling-stroke"><title>Snohomish County</title></path><path id="county-53017" class="county feature" d="M221.72385628247196,91.57492683006046L220.23348393597598,91.21146246604587L218.57516762011227,92.21428081232989L218.1854666084592,93.77806516639146L216.8036319310856,94.81547842371674L215.752107287743,96.76913282251633L213.01536549209436,97.70069105797756L212.61394610514657,99.25142971223113L208.37571744642304,98.25933946525686L206.24842634795857,99.94828388151632L205.75767690290496,101.73993368989397L204.87701301852843,100.70431103240605L205.3384848865971,99.3967872159335L203.12045841118356,97.74618893912611L203.50087069148083,95.40673514737875L204.73689337587592,94.16910221082003L206.1043125914752,91.44250555952408L208.44963963867377,91.7096057222933L210.85925160564216,88.87324461287983L211.06329605503987,87.07795864846071L213.7178145872969,87.09035268596028L213.74561215472102,88.86986112684667L216.6672859337571,88.12003816222591L220.48023096809862,87.76067936889501L221.53978768436423,88.17507852915105L222.36149860939867,90.6510823256483Z" style="fill: inherit; stroke: inherit; stroke-width: inherit;" vector-effect="non-scaling-stroke"><title>Douglas County</title></path><path id="county-53031" class="county feature" d="M171.1132805847551,84.78459562062585L164.83743982242288,82.91791754420592L164.36425626962824,84.50713528176084L157.76983639379233,82.51379118888337L154.1276835619159,81.08863318666079L154.3657964168067,76.97790450230536L152.92554248890627,73.99156521612042L166.2172344472092,78.0297490010048L166.14629439773034,78.28383082290759L172.9431022854232,80.27785337674902L174.2336991269745,76.83392086176264L175.77194052908118,75.94191144738716L176.97145289125524,81.02771558775396L176.03999037004309,81.16746529666091L174.1115310260007,83.75459037106202L174.33634204049469,81.24984115905079L172.36644735776775,84.02805220735729Z" style="fill: inherit; stroke: inherit; stroke-width: inherit;" vector-effect="non-scaling-stroke"><title>Jefferson County</title></path><path id="county-53063" class="county feature" d="M241.0324007814059,94.54906072591325L245.8643570144573,95.67883911946831L245.57787706626692,96.91036728159236L243.1197704131015,107.97608146996026L242.68460344524163,109.9095495597071L232.96072448749146,107.65736412327351L235.3811300266102,97.46183513704023L237.23041470458816,96.73574362245824L238.77475136160143,98.80966448673541L239.82831790200373,94.25987919940485Z" style="fill: inherit; stroke: inherit; stroke-width: inherit;" vector-effect="non-scaling-stroke"><title>Spokane County</title></path><path id="county-53025" class="county feature" d="M221.72385628247196,91.57492683006046L221.75176402260786,91.93434712922385L218.6479129307159,104.19942289085975L217.04970454848637,110.50747058392903L212.2530921327688,109.29145542391984L211.45088286196642,112.45021510805236L210.14526552905608,113.23497328809663L209.51355239899453,112.19323607418107L207.83173877821406,113.3077979344979L204.66432875212257,112.81408762849912L203.93836033645607,110.54155722647067L204.78924153574394,109.5843015101957L204.66798848605293,104.32807190288224L205.75767690290496,101.73993368989397L206.24842634795857,99.94828388151632L208.37571744642304,98.25933946525686L212.61394610514657,99.25142971223113L213.01536549209436,97.70069105797756L215.752107287743,96.76913282251633L216.8036319310856,94.81547842371674L218.1854666084592,93.77806516639146L218.57516762011227,92.21428081232989L220.23348393597598,91.21146246604587Z" style="fill: inherit; stroke: inherit; stroke-width: inherit;" vector-effect="non-scaling-stroke"><title>Grant County</title></path><path id="county-53043" class="county feature" d="M223.29978908348232,92.04545546947702L224.5378087944959,93.44428594217061L226.64087565186736,93.34277433299167L226.8706745599933,94.49288656221972L228.86352393311785,95.60718956271944L229.2897987159024,94.70320390692802L231.10743469953633,94.16829528660332L232.12550651581302,97.17904801029397L234.74753014728662,96.88619788895835L235.3811300266102,97.46183513704023L232.96072448749146,107.65736412327351L231.2730655286628,107.2605844122013L218.6479129307159,104.19942289085975L221.75176402260786,91.93434712922385Z" style="fill: inherit; stroke: inherit; stroke-width: inherit;" vector-effect="non-scaling-stroke"><title>Lincoln County</title></path><path id="county-53035" class="county feature" d="M177.0835291279056,84.73001210024097L177.17591757681254,86.93465581594012L176.08763757549224,86.37087931530175ZM175.38191432290972,89.93663791996926L174.46561260391582,89.6713111292081L174.37761074260965,89.64702467828624L172.34156807260263,89.0476843743021L172.95442251907622,86.98139639166118L170.24266411223795,86.19028833337381L172.05914720209643,84.77486956083294L174.2883223587654,84.51704635482065L175.80366912855857,82.42856596702006L178.30314872516686,80.95243800826745L177.89052530622024,84.08992066881694L177.06285573742463,83.69839851539234L175.54884913442027,86.7956041365486L176.61449162797055,88.23449624855266Z" style="fill: inherit; stroke: inherit; stroke-width: inherit;" vector-effect="non-scaling-stroke"><title>Kitsap County</title></path><path id="county-53033" class="county feature" d="M176.80582298243826,90.26951380705009L175.38218849035292,91.06225419219868L176.89214708421156,88.29112745064856ZM194.76240069456895,88.08784931780065L195.04142334507247,89.5785816890965L193.9428822925056,91.3774616989208L192.5673937633586,91.5454981422107L189.20002947225646,93.5659664080215L188.461224418553,94.56788317027758L189.48543630009038,98.8166281607472L188.18440525359637,99.630452903211L183.48983317641762,96.67236244725746L181.58355502636613,96.80449402310614L179.92326811605852,95.26139765436596L179.65687596071353,93.96309746809197L177.30712535992876,93.29533394692146L176.605301117799,91.8871091774131L177.88741282559664,91.70577774924902L177.8638495139112,87.31049385918163L178.9933801730907,87.08321676536048L178.102114833818,85.73010033671869L179.20883233874252,83.80472089174714Z" style="fill: inherit; stroke: inherit; stroke-width: inherit;" vector-effect="non-scaling-stroke"><title>King County</title></path><path id="county-53045" class="county feature" d="M171.1132805847551,84.78459562062585L170.24266411223795,86.19028833337381L172.95442251907622,86.98139639166118L172.34156807260263,89.0476843743021L172.10082472875473,89.84583766977016L170.1684991828987,90.79681373000676L169.52319582496818,92.11245120696469L167.40214552676997,93.52337594872017L165.77876388229663,93.30585137146261L162.2485991778894,92.30386521587945L164.36425626962824,84.50713528176084L164.83743982242288,82.91791754420592Z" style="fill: inherit; stroke: inherit; stroke-width: inherit;" vector-effect="non-scaling-stroke"><title>Mason County</title></path><path id="county-53037" class="county feature" d="M204.87701301852843,100.70431103240605L205.75767690290496,101.73993368989397L204.66798848605293,104.32807190288224L204.78924153574394,109.5843015101957L203.93836033645607,110.54155722647067L197.27215982133862,108.7859028459626L197.68689328811627,107.2315090751298L196.13932853870415,106.79745212137016L196.54555102802777,105.2474953958615L191.69540864275143,103.96313846402359L191.29624119946953,102.32033391062146L189.41140090420566,99.92508161494538L188.18440525359637,99.630452903211L189.48543630009038,98.8166281607472L188.461224418553,94.56788317027758L189.20002947225646,93.5659664080215L192.5673937633586,91.5454981422107L193.9428822925056,91.3774616989208L195.47510297342023,94.9376285024066L196.91737151675807,95.53122537203092L198.2240546742765,97.40223784039449L201.234347794001,99.77205260364894Z" style="fill: inherit; stroke: inherit; stroke-width: inherit;" vector-effect="non-scaling-stroke"><title>Kittitas County</title></path><path id="county-53027" class="county feature" d="M164.36425626962824,84.50713528176084L162.2485991778894,92.30386521587945L165.77876388229663,93.30585137146261L165.84659976746883,95.04385727937745L164.75666049412183,98.65575080238841L162.15627518849368,97.91255537007498L153.23217019478426,95.19223882103893L153.35016218806896,93.08409814782613L154.39996162871284,93.61570559603922L157.48762410651392,93.30227124798762L153.8151844120623,90.94574015730348L154.2212402102083,86.01180575065689L153.56641733468422,84.3901739778371L154.1276835619159,81.08863318666079L157.76983639379233,82.51379118888337Z" style="fill: inherit; stroke: inherit; stroke-width: inherit;" vector-effect="non-scaling-stroke"><title>Grays Harbor County</title></path><path id="county-53053" class="county feature" d="M176.605301117799,91.8871091774131L177.30712535992876,93.29533394692146L179.65687596071353,93.96309746809197L179.92326811605852,95.26139765436596L181.58355502636613,96.80449402310614L183.48983317641762,96.67236244725746L188.18440525359637,99.630452903211L186.43519889307345,102.3129147630134L185.36433494808733,102.98095493060816L185.76584426515382,104.82160077290632L182.0070119531033,103.77120577694109L180.81798110850121,104.51910576414275L176.4135422342597,102.60454739483578L175.26473012617822,100.71256699627384L173.40130034644562,99.74471937894589L172.1507305876935,97.25153510736152L172.03868051296638,94.88877707258575L173.871518676589,93.72359380434125L175.16626558763556,91.55023729245727ZM174.46561260391582,89.6713111292081L175.38191432290972,89.93663791996926L174.20898033994212,92.4824473455709L173.30891874411577,91.59129761072961ZM172.10082472875473,89.84583766977016L172.34156807260263,89.0476843743021L174.37761074260965,89.64702467828624L172.90932514241405,90.48668924932883L171.6108611980734,93.41364520639979L171.1414855806794,91.80883362931763Z" style="fill: inherit; stroke: inherit; stroke-width: inherit;" vector-effect="non-scaling-stroke"><title>Pierce County</title></path><path id="county-53001" class="county feature" d="M231.2730655286628,107.2605844122013L229.82046234679046,113.51551008063643L228.6179688000028,115.60925974173665L225.9300669268227,115.9582816887729L211.45088286196642,112.45021510805236L212.2530921327688,109.29145542391984L217.04970454848637,110.50747058392903L218.6479129307159,104.19942289085975Z" style="fill: inherit; stroke: inherit; stroke-width: inherit;" vector-effect="non-scaling-stroke"><title>Adams County</title></path><path id="county-53075" class="county feature" d="M232.96072448749146,107.65736412327351L242.68460344524163,109.9095495597071L242.150308596936,112.30432265597062L239.75922708815926,122.928201855628L239.28120986792788,125.03099342973951L237.29560306762693,124.69519873158583L237.06355034678586,123.8342139462577L237.09015949852795,122.2556381506123L234.95950474318198,118.808708762994L231.46412575518883,118.1958167003512L229.9246574823748,119.08359606294357L225.60911959743294,119.36330421532716L225.2116307345545,118.65721070446284L225.9300669268227,115.9582816887729L228.6179688000028,115.60925974173665L229.82046234679046,113.51551008063643L231.2730655286628,107.2605844122013Z" style="fill: inherit; stroke: inherit; stroke-width: inherit;" vector-effect="non-scaling-stroke"><title>Whitman County</title></path><path id="county-53067" class="county feature" d="M172.03868051296638,94.88877707258575L172.1507305876935,97.25153510736152L173.40130034644562,99.74471937894589L175.26473012617822,100.71256699627384L176.4135422342597,102.60454739483578L164.6001298249612,99.1721583998825L164.75666049412183,98.65575080238841L165.84659976746883,95.04385727937745L165.77876388229663,93.30585137146261L167.40214552676997,93.52337594872017L169.421192025273,92.69178061157174L168.18293208762105,94.21968748182428L169.3795334368529,94.55698279026274L171.00279488754313,93.04330219822282Z" style="fill: inherit; stroke: inherit; stroke-width: inherit;" vector-effect="non-scaling-stroke"><title>Thurston County</title></path><path id="county-53077" class="county feature" d="M203.93836033645607,110.54155722647067L204.66432875212257,112.81408762849912L202.0368218946723,123.4469816607716L192.90972626160828,121.06840808674315L181.25603961424133,117.85726484968666L182.9691444355925,111.6672868837735L184.5723992080775,112.09591324441931L184.58087703895927,109.31450736028876L186.57398489106538,106.42620076387823L185.76584426515382,104.82160077290632L185.36433494808733,102.98095493060816L186.43519889307345,102.3129147630134L188.18440525359637,99.630452903211L189.41140090420566,99.92508161494538L191.29624119946953,102.32033391062146L191.69540864275143,103.96313846402359L196.54555102802777,105.2474953958615L196.13932853870415,106.79745212137016L197.68689328811627,107.2315090751298L197.27215982133862,108.7859028459626Z" style="fill: inherit; stroke: inherit; stroke-width: inherit;" vector-effect="non-scaling-stroke"><title>Yakima County</title></path><path id="county-53049" class="county feature" d="M162.15627518849368,97.91255537007498L160.1588732319787,105.24308977014061L155.61268999676224,103.86036370472141L155.08279344552,105.54427728449718L152.97015963237266,105.89165273778315L151.5992378092741,104.0103604718588L150.58223304356966,104.5944826541463L153.00485200295685,99.23834661052103L152.0528179585969,103.01134664545111L152.75971533456988,103.15668450863825L154.40377489801313,100.31309495214589L153.95969829624363,98.92407759080811L156.006626330669,97.51272617507198L153.97353612506282,97.1441476371316L153.23217019478426,95.19223882103893Z" style="fill: inherit; stroke: inherit; stroke-width: inherit;" vector-effect="non-scaling-stroke"><title>Pacific County</title></path><path id="county-53041" class="county feature" d="M164.75666049412183,98.65575080238841L164.6001298249612,99.1721583998825L176.4135422342597,102.60454739483578L180.81798110850121,104.51910576414275L182.0070119531033,103.77120577694109L185.76584426515382,104.82160077290632L186.57398489106538,106.42620076387823L184.58087703895927,109.31450736028876L184.5723992080775,112.09591324441931L182.9691444355925,111.6672868837735L174.02723199942983,109.23459375394896L161.9029617502539,105.73720389935329L160.1588732319787,105.24308977014061L162.15627518849368,97.91255537007498Z" style="fill: inherit; stroke: inherit; stroke-width: inherit;" vector-effect="non-scaling-stroke"><title>Lewis County</title></path><path id="county-53021" class="county feature" d="M225.2116307345545,118.65721070446284L225.06567986133814,118.53200146620043L222.27588460572434,117.80013829637403L219.83575067414495,118.97998698266451L219.17425775431872,120.60635779732763L216.8849223549895,122.36188288334677L213.10648623695175,123.31114019257166L210.6346692552213,121.06293593267822L211.70175690596034,116.61996975246541L210.14526552905608,113.23497328809663L211.45088286196642,112.45021510805236L225.9300669268227,115.9582816887729Z" style="fill: inherit; stroke: inherit; stroke-width: inherit;" vector-effect="non-scaling-stroke"><title>Franklin County</title></path><path id="county-53005" class="county feature" d="M213.10648623695175,123.31114019257166L213.7562447109446,124.67710681506867L212.9310550414511,126.97294676283059L210.86906340990288,127.75062490874052L206.94918059176456,127.05071385502742L205.2212610659251,126.47604626026202L203.66609371151236,127.4015186106102L201.06996678663222,127.14073051584398L202.0368218946723,123.4469816607716L204.66432875212257,112.81408762849912L207.83173877821406,113.3077979344979L209.51355239899453,112.19323607418107L210.14526552905608,113.23497328809663L211.70175690596034,116.61996975246541L210.6346692552213,121.06293593267822Z" style="fill: inherit; stroke: inherit; stroke-width: inherit;" vector-effect="non-scaling-stroke"><title>Benton County</title></path><path id="county-53023" class="county feature" d="M237.06355034678586,123.8342139462577L236.85778431911734,124.76099097824385L234.33759444447423,124.72154948819207L233.24921628996395,129.46889380491234L232.487564117646,129.29196801810645L231.96415924823145,131.5475411808227L230.4146876286879,131.16965419238386L231.7280013796888,124.97683357449341L230.92875274138487,124.80907607282575L230.71203071078043,122.20013765164299L229.12772328760406,121.83845112855283L229.9246574823748,119.08359606294357L231.46412575518883,118.1958167003512L234.95950474318198,118.808708762994L237.09015949852795,122.2556381506123Z" style="fill: inherit; stroke: inherit; stroke-width: inherit;" vector-effect="non-scaling-stroke"><title>Garfield County</title></path><path id="county-53013" class="county feature" d="M230.4146876286879,131.16965419238386L225.68170476410643,130.03014429996404L225.43684711874567,129.97143714886954L226.39449326534208,126.23207941928604L224.81594656915996,125.85804496796231L225.19693075049588,124.27059862066687L223.6191149509794,123.90277621848668L225.06567986133814,118.53200146620043L225.2116307345545,118.65721070446284L225.60911959743294,119.36330421532716L229.9246574823748,119.08359606294357L229.12772328760406,121.83845112855283L230.71203071078043,122.20013765164299L230.92875274138487,124.80907607282575L231.7280013796888,124.97683357449341Z" style="fill: inherit; stroke: inherit; stroke-width: inherit;" vector-effect="non-scaling-stroke"><title>Columbia County</title></path><path id="county-53071" class="county feature" d="M225.06567986133814,118.53200146620043L223.6191149509794,123.90277621848668L225.19693075049588,124.27059862066687L224.81594656915996,125.85804496796231L226.39449326534208,126.23207941928604L225.43684711874567,129.97143714886954L212.9310550414511,126.97294676283059L213.7562447109446,124.67710681506867L213.10648623695175,123.31114019257166L216.8849223549895,122.36188288334677L219.17425775431872,120.60635779732763L219.83575067414495,118.97998698266451L222.27588460572434,117.80013829637403Z" style="fill: inherit; stroke: inherit; stroke-width: inherit;" vector-effect="non-scaling-stroke"><title>Walla Walla County</title></path><path id="county-53003" class="county feature" d="M239.28120986792788,125.03099342973951L238.74847416345642,126.44733270437666L239.7154291773,130.02811393668298L238.96102207931324,131.2033322379084L239.08988445400314,133.20793071669493L231.96415924823145,131.5475411808227L232.487564117646,129.29196801810645L233.24921628996395,129.46889380491234L234.33759444447423,124.72154948819207L236.85778431911734,124.76099097824385L237.06355034678586,123.8342139462577L237.29560306762693,124.69519873158583Z" style="fill: inherit; stroke: inherit; stroke-width: inherit;" vector-effect="non-scaling-stroke"><title>Asotin County</title></path><path id="county-53059" class="county feature" d="M182.9691444355925,111.6672868837735L181.25603961424133,117.85726484968666L180.14539531211688,117.55521269285282L178.89723681418462,122.26746224663191L179.69319844399638,123.60675678394693L176.0171284400762,122.94914205583257L174.29147885712655,123.57201357263853L169.6645731342453,124.23623404685543L172.28528588539814,115.1605036544305L174.02723199942983,109.23459375394896Z" style="fill: inherit; stroke: inherit; stroke-width: inherit;" vector-effect="non-scaling-stroke"><title>Skamania County</title></path><path id="county-53015" class="county feature" d="M174.02723199942983,109.23459375394896L172.28528588539814,115.1605036544305L170.367484520174,116.48595510621863L168.46298852629843,115.42525902209866L165.409606596269,115.91123047831945L164.49377571869968,116.87511129520806L164.22699689495954,112.27054117246678L162.07895655500755,109.66634003276818L160.85677270395132,109.55343838815031L160.85894015205656,109.49667545124964L161.9029617502539,105.73720389935329Z" style="fill: inherit; stroke: inherit; stroke-width: inherit;" vector-effect="non-scaling-stroke"><title>Cowlitz County</title></path><path id="county-53069" class="county feature" d="M160.1588732319787,105.24308977014061L161.9029617502539,105.73720389935329L160.85894015205656,109.49667545124964L159.91613621051295,109.700982174219L158.33232436334305,106.94648031040106L155.08279344552,105.54427728449718L155.61268999676224,103.86036370472141Z" style="fill: inherit; stroke: inherit; stroke-width: inherit;" vector-effect="non-scaling-stroke"><title>Wahkiakum County</title></path><path id="county-53011" class="county feature" d="M172.28528588539814,115.1605036544305L169.6645731342453,124.23623404685543L165.14987197234092,121.81098361750412L163.88072253430425,120.6444043917545L164.14662435269207,119.1515996033711L164.49377571869968,116.87511129520806L165.409606596269,115.91123047831945L168.46298852629843,115.42525902209866L170.367484520174,116.48595510621863Z" style="fill: inherit; stroke: inherit; stroke-width: inherit;" vector-effect="non-scaling-stroke"><title>Clark County</title></path><path id="county-53039" class="county feature" d="M202.0368218946723,123.4469816607716L201.06996678663222,127.14073051584398L199.30339692334013,127.1394884863513L196.1772022518362,128.0293932956704L192.6589729914919,127.67265485964617L190.70085395554668,126.33985636891828L186.93087846420974,127.18506302208095L183.27130420651662,126.67196745095794L183.3070754828139,125.71744022458086L180.58686474814084,124.38458187241974L179.69319844399638,123.60675678394693L178.89723681418462,122.26746224663191L180.14539531211688,117.55521269285282L181.25603961424133,117.85726484968666L192.90972626160828,121.06840808674315Z" style="fill: inherit; stroke: inherit; stroke-width: inherit;" vector-effect="non-scaling-stroke"><title>Klickitat County</title></path></g><path id="counties-mesh" class="counties mesh" d="M203.85631949544666,67.16574961388721L204.64695256075504,68.26198655613382L204.24437929962198,71.43641696464294L204.91095024501868,72.72190753660766L203.4273313958319,73.60022917862182L201.4363764777213,73.38526266060558L182.4858998398064,68.04698631290341L182.95134674943893,66.3228855888151L181.24381018256258,65.20848145955165L180.04585728433216,61.70176962847768L181.0879861841509,60.793553936507124L192.97739017483724,64.2562361751385L203.85631949544666,67.16574961388721L213.36455246139406,69.68415564455665L228.069908873962,73.3752733243324L223.29978908348232,92.04545546947702L221.75176402260786,91.93434712922385L221.72385628247196,91.57492683006046L222.36149860939867,90.6510823256483L221.53978768436423,88.17507852915105L220.48023096809862,87.76067936889501L216.6672859337571,88.12003816222591L213.74561215472102,88.86986112684667L213.7178145872969,87.09035268596028L211.06329605503987,87.07795864846071L210.85925160564216,88.87324461287983L208.682254599626,88.30840741327552L208.01199869208097,86.13599590857336L205.83183060452228,83.58390216728935L205.82274598598053,82.16132464816053L203.8648078860802,80.19027366450268L203.4351617699814,76.00957706430597L203.4273313958319,73.60022917862182M245.05484477500693,77.39663922308273L242.75657970084848,79.96843879615562L241.21159768508232,83.03865981610875L242.7878343089514,83.3954295929276L240.5948467641852,92.78321178300348L241.0324007814059,94.54906072591325L239.82831790200373,94.25987919940485L238.77475136160143,98.80966448673541L237.23041470458816,96.73574362245824L235.3811300266102,97.46183513704023L234.74753014728662,96.88619788895835L232.12550651581302,97.17904801029397L231.10743469953633,94.16829528660332L229.2897987159024,94.70320390692802L229.25589835618,92.28238218301124L231.21569764128776,91.97696435222315L231.47278414457747,90.80122939315595L233.28824233525273,88.80008070800056L233.22500452218287,85.42756732756698L235.62132758590917,81.48712053622899L235.08293542065144,77.33233407137982L235.7868911700375,75.24055051034304L245.05484477500693,77.39663922308273L249.84760443353855,78.50984305552834L249.22916419201323,81.25862084676214L245.8643570144573,95.67883911946831L241.0324007814059,94.54906072591325M229.2897987159024,94.70320390692802L228.86352393311785,95.60718956271944L226.8706745599933,94.49288656221972L226.64087565186736,93.34277433299167L224.5378087944959,93.44428594217061L223.29978908348232,92.04545546947702M228.069908873962,73.3752733243324L235.7868911700375,75.24055051034304M177.36466476363512,68.34157585028026L177.34284738032528,70.75133763190081L176.08774814160648,69.66263139380806L177.36466476363512,68.34157585028026M174.46762458407267,66.12843384476037L175.73085629870928,67.6980573601736L174.95868420552551,69.46032596171665L173.9915568924191,68.38654153680693L174.46762458407267,66.12843384476037M177.91803934757752,65.39518916071665L179.5195214915501,66.89344314765674L176.7364112536315,67.3080586620996L176.27828862317796,66.07975590393426L177.91803934757752,65.39518916071665M203.4351617699814,76.00957706430597L202.02185787359036,75.3738994505419L199.24754322192615,75.58603546341374L197.93823862567587,78.62650711416256L198.68213423743782,79.2562677740101L181.97896818770022,74.59676520156097L179.33797227822902,71.64837618731178L179.14240820603737,70.04076453679795L180.3654348880524,69.79901229557947L181.5858897458275,71.43710083420672L182.4858998398064,68.04698631290341M210.85925160564216,88.87324461287983L208.44963963867377,91.7096057222933L206.1043125914752,91.44250555952408L204.73689337587592,94.16910221082003L203.50087069148083,95.40673514737875L203.12045841118356,97.74618893912611L205.3384848865971,99.3967872159335L204.87701301852843,100.70431103240605L201.234347794001,99.77205260364894L198.2240546742765,97.40223784039449L196.91737151675807,95.53122537203092L195.47510297342023,94.9376285024066L193.9428822925056,91.3774616989208L195.04142334507247,89.5785816890965L194.76240069456895,88.08784931780065L195.5853037118327,87.40790146277459L194.58405961974614,85.76436107430163L195.6057246174929,83.31059108547436L197.4563013206241,83.14819556476743L199.20288996362808,81.91980896796781L198.68213423743782,79.2562677740101M179.97862419135743,72.11997870964638L180.53881665722736,74.11512500927631L178.64962790905355,73.89203620744445L177.4105926964271,74.62790088709596L178.83256812752455,75.39047877914697L178.64851636708983,79.05794164060421L179.255361568549,77.67885436540132L180.74286399016387,79.29752207718866L180.08050572656526,81.57308959880379L177.92666518805902,78.55779741044842L178.48835624767497,76.29383056885752L176.9503090612463,74.54861516470078L179.1476229237328,71.77338886358439L179.97862419135743,72.11997870964638M194.76240069456895,88.08784931780065L179.20883233874252,83.80472089174714L181.16357230459954,81.0586884129807L182.91131422289914,79.90166071978217L181.45392147476258,78.26834629637938L181.50200813601617,75.76079974994241M181.49103016232817,75.35563880711072L181.50200813601617,75.76079974994241L180.21653016852025,76.43679463697288L180.97080744538954,78.34897423198788L179.6040793491308,77.06813479904883L179.9557246012032,74.94044939343837L181.49103016232817,75.35563880711072L181.97896818770022,74.59676520156097M221.72385628247196,91.57492683006046L220.23348393597598,91.21146246604587L218.57516762011227,92.21428081232989L218.1854666084592,93.77806516639146L216.8036319310856,94.81547842371674L215.752107287743,96.76913282251633L213.01536549209436,97.70069105797756L212.61394610514657,99.25142971223113L208.37571744642304,98.25933946525686L206.24842634795857,99.94828388151632L205.75767690290496,101.73993368989397L204.87701301852843,100.70431103240605M174.2336991269745,76.83392086176264L172.9431022854232,80.27785337674902L166.14629439773034,78.28383082290759L166.2172344472092,78.0297490010048L152.92554248890627,73.99156521612042L153.05583193368722,68.44504837529655L155.3814012336142,64.92893471332093L157.78281058325229,67.60923902177046L159.35978948127575,68.53329226525068L162.04943780235317,71.28886621119773L165.36097824965617,72.22857464746073L168.83148132331996,74.29719073742945L172.38815017481363,74.61835376383817L174.2336991269745,76.83392086176264L175.77194052908118,75.94191144738716L176.97145289125524,81.02771558775396L176.03999037004309,81.16746529666091L174.1115310260007,83.75459037106202L174.33634204049469,81.24984115905079L172.36644735776775,84.02805220735729L171.1132805847551,84.78459562062585L164.83743982242288,82.91791754420592L164.36425626962824,84.50713528176084L157.76983639379233,82.51379118888337L154.1276835619159,81.08863318666079L154.3657964168067,76.97790450230536L152.92554248890627,73.99156521612042M245.8643570144573,95.67883911946831L245.57787706626692,96.91036728159236L243.1197704131015,107.97608146996026L242.68460344524163,109.9095495597071L232.96072448749146,107.65736412327351L235.3811300266102,97.46183513704023M221.75176402260786,91.93434712922385L218.6479129307159,104.19942289085975L217.04970454848637,110.50747058392903L212.2530921327688,109.29145542391984L211.45088286196642,112.45021510805236L210.14526552905608,113.23497328809663L209.51355239899453,112.19323607418107L207.83173877821406,113.3077979344979L204.66432875212257,112.81408762849912L203.93836033645607,110.54155722647067L204.78924153574394,109.5843015101957L204.66798848605293,104.32807190288224L205.75767690290496,101.73993368989397M232.96072448749146,107.65736412327351L231.2730655286628,107.2605844122013L218.6479129307159,104.19942289085975M177.0835291279056,84.73001210024097L177.17591757681254,86.93465581594012L176.08763757549224,86.37087931530175L177.0835291279056,84.73001210024097M176.80582298243826,90.26951380705009L175.38218849035292,91.06225419219868L176.89214708421156,88.29112745064856L176.80582298243826,90.26951380705009M193.9428822925056,91.3774616989208L192.5673937633586,91.5454981422107L189.20002947225646,93.5659664080215L188.461224418553,94.56788317027758L189.48543630009038,98.8166281607472L188.18440525359637,99.630452903211L183.48983317641762,96.67236244725746L181.58355502636613,96.80449402310614L179.92326811605852,95.26139765436596L179.65687596071353,93.96309746809197L177.30712535992876,93.29533394692146L176.605301117799,91.8871091774131L177.88741282559664,91.70577774924902L177.8638495139112,87.31049385918163L178.9933801730907,87.08321676536048L178.102114833818,85.73010033671869L179.20883233874252,83.80472089174714M171.1132805847551,84.78459562062585L170.24266411223795,86.19028833337381M172.34156807260263,89.0476843743021L172.10082472875473,89.84583766977016L170.1684991828987,90.79681373000676L169.52319582496818,92.11245120696469L167.40214552676997,93.52337594872017L165.77876388229663,93.30585137146261L162.2485991778894,92.30386521587945L164.36425626962824,84.50713528176084M165.77876388229663,93.30585137146261L165.84659976746883,95.04385727937745L164.75666049412183,98.65575080238841L162.15627518849368,97.91255537007498L153.23217019478426,95.19223882103893L153.35016218806896,93.08409814782613L154.39996162871284,93.61570559603922L157.48762410651392,93.30227124798762L153.8151844120623,90.94574015730348L154.2212402102083,86.01180575065689L153.56641733468422,84.3901739778371L154.1276835619159,81.08863318666079M203.93836033645607,110.54155722647067L197.27215982133862,108.7859028459626L197.68689328811627,107.2315090751298L196.13932853870415,106.79745212137016L196.54555102802777,105.2474953958615L191.69540864275143,103.96313846402359L191.29624119946953,102.32033391062146L189.41140090420566,99.92508161494538L188.18440525359637,99.630452903211L186.43519889307345,102.3129147630134L185.36433494808733,102.98095493060816L185.76584426515382,104.82160077290632L182.0070119531033,103.77120577694109L180.81798110850121,104.51910576414275L176.4135422342597,102.60454739483578L175.26473012617822,100.71256699627384L173.40130034644562,99.74471937894589L172.1507305876935,97.25153510736152L172.03868051296638,94.88877707258575L173.871518676589,93.72359380434125L175.16626558763556,91.55023729245727L176.605301117799,91.8871091774131M175.38191432290972,89.93663791996926L174.46561260391582,89.6713111292081L174.37761074260965,89.64702467828624L172.34156807260263,89.0476843743021L172.95442251907622,86.98139639166118L170.24266411223795,86.19028833337381L172.05914720209643,84.77486956083294L174.2883223587654,84.51704635482065L175.80366912855857,82.42856596702006L178.30314872516686,80.95243800826745L177.89052530622024,84.08992066881694L177.06285573742463,83.69839851539234L175.54884913442027,86.7956041365486L176.61449162797055,88.23449624855266L175.38191432290972,89.93663791996926L174.20898033994212,92.4824473455709L173.30891874411577,91.59129761072961L174.46561260391582,89.6713111292081M174.37761074260965,89.64702467828624L172.90932514241405,90.48668924932883L171.6108611980734,93.41364520639979L171.1414855806794,91.80883362931763L172.10082472875473,89.84583766977016M231.2730655286628,107.2605844122013L229.82046234679046,113.51551008063643L228.6179688000028,115.60925974173665L225.9300669268227,115.9582816887729L211.45088286196642,112.45021510805236M242.68460344524163,109.9095495597071L242.150308596936,112.30432265597062L239.75922708815926,122.928201855628L239.28120986792788,125.03099342973951L237.29560306762693,124.69519873158583L237.06355034678586,123.8342139462577L237.09015949852795,122.2556381506123L234.95950474318198,118.808708762994L231.46412575518883,118.1958167003512L229.9246574823748,119.08359606294357L225.60911959743294,119.36330421532716L225.2116307345545,118.65721070446284L225.9300669268227,115.9582816887729M176.4135422342597,102.60454739483578L164.6001298249612,99.1721583998825L164.75666049412183,98.65575080238841M167.40214552676997,93.52337594872017L169.421192025273,92.69178061157174L168.18293208762105,94.21968748182428L169.3795334368529,94.55698279026274L171.00279488754313,93.04330219822282L172.03868051296638,94.88877707258575M204.66432875212257,112.81408762849912L202.0368218946723,123.4469816607716L192.90972626160828,121.06840808674315L181.25603961424133,117.85726484968666L182.9691444355925,111.6672868837735L184.5723992080775,112.09591324441931L184.58087703895927,109.31450736028876L186.57398489106538,106.42620076387823L185.76584426515382,104.82160077290632M162.15627518849368,97.91255537007498L160.1588732319787,105.24308977014061L155.61268999676224,103.86036370472141L155.08279344552,105.54427728449718L152.97015963237266,105.89165273778315L151.5992378092741,104.0103604718588L150.58223304356966,104.5944826541463L153.00485200295685,99.23834661052103L152.0528179585969,103.01134664545111L152.75971533456988,103.15668450863825L154.40377489801313,100.31309495214589L153.95969829624363,98.92407759080811L156.006626330669,97.51272617507198L153.97353612506282,97.1441476371316L153.23217019478426,95.19223882103893M182.9691444355925,111.6672868837735L174.02723199942983,109.23459375394896L161.9029617502539,105.73720389935329L160.1588732319787,105.24308977014061M225.2116307345545,118.65721070446284L225.06567986133814,118.53200146620043L222.27588460572434,117.80013829637403L219.83575067414495,118.97998698266451L219.17425775431872,120.60635779732763L216.8849223549895,122.36188288334677L213.10648623695175,123.31114019257166L210.6346692552213,121.06293593267822L211.70175690596034,116.61996975246541L210.14526552905608,113.23497328809663M213.10648623695175,123.31114019257166L213.7562447109446,124.67710681506867L212.9310550414511,126.97294676283059L210.86906340990288,127.75062490874052L206.94918059176456,127.05071385502742L205.2212610659251,126.47604626026202L203.66609371151236,127.4015186106102L201.06996678663222,127.14073051584398L202.0368218946723,123.4469816607716M237.06355034678586,123.8342139462577L236.85778431911734,124.76099097824385L234.33759444447423,124.72154948819207L233.24921628996395,129.46889380491234L232.487564117646,129.29196801810645L231.96415924823145,131.5475411808227L230.4146876286879,131.16965419238386L231.7280013796888,124.97683357449341L230.92875274138487,124.80907607282575L230.71203071078043,122.20013765164299L229.12772328760406,121.83845112855283L229.9246574823748,119.08359606294357M230.4146876286879,131.16965419238386L225.68170476410643,130.03014429996404L225.43684711874567,129.97143714886954L226.39449326534208,126.23207941928604L224.81594656915996,125.85804496796231L225.19693075049588,124.27059862066687L223.6191149509794,123.90277621848668L225.06567986133814,118.53200146620043M225.43684711874567,129.97143714886954L212.9310550414511,126.97294676283059M239.28120986792788,125.03099342973951L238.74847416345642,126.44733270437666L239.7154291773,130.02811393668298L238.96102207931324,131.2033322379084L239.08988445400314,133.20793071669493L231.96415924823145,131.5475411808227M181.25603961424133,117.85726484968666L180.14539531211688,117.55521269285282L178.89723681418462,122.26746224663191L179.69319844399638,123.60675678394693L176.0171284400762,122.94914205583257L174.29147885712655,123.57201357263853L169.6645731342453,124.23623404685543L172.28528588539814,115.1605036544305L174.02723199942983,109.23459375394896M172.28528588539814,115.1605036544305L170.367484520174,116.48595510621863L168.46298852629843,115.42525902209866L165.409606596269,115.91123047831945L164.49377571869968,116.87511129520806L164.22699689495954,112.27054117246678L162.07895655500755,109.66634003276818L160.85677270395132,109.55343838815031L160.85894015205656,109.49667545124964L161.9029617502539,105.73720389935329M160.85894015205656,109.49667545124964L159.91613621051295,109.700982174219L158.33232436334305,106.94648031040106L155.08279344552,105.54427728449718M169.6645731342453,124.23623404685543L165.14987197234092,121.81098361750412L163.88072253430425,120.6444043917545L164.14662435269207,119.1515996033711L164.49377571869968,116.87511129520806M201.06996678663222,127.14073051584398L199.30339692334013,127.1394884863513L196.1772022518362,128.0293932956704L192.6589729914919,127.67265485964617L190.70085395554668,126.33985636891828L186.93087846420974,127.18506302208095L183.27130420651662,126.67196745095794L183.3070754828139,125.71744022458086L180.58686474814084,124.38458187241974L179.69319844399638,123.60675678394693" style="fill: inherit; stroke: inherit; stroke-width: inherit;" vector-effect="non-scaling-stroke"></path></svg>