<?xml version="1.0" standalone="yes"?>
<svg xmlns="http://www.w3.org/2000/svg" version="1.2" baseProfile="tiny" id="root" viewBox="536.9209799390575 130.82015504953733 102.33041634052032 107.80985935254037"><style>
@import url("../../css/svg.css");</style><rect id="bbox" class="bbox" x="536.9209799390575" y="130.82015504953733" width="102.33041634052032" height="107.80985935254037"></rect><g id="counties"><path id="county-55051" class="county feature" d="M580.5282054551132,150.26241288610026L582.9861266175214,151.15233119573497L584.6076704107228,154.27915906813973L587.1382493012693,155.03232717478647L587.502388836118,160.72501859327542L586.0082410451632,160.82068792469022L582.6616440387928,161.03716270233951L582.4492534133452,157.80927908705098L580.8619370754391,157.91854755353347L580.7721658822096,156.31027814922174L579.1391216812307,156.39805646203808L578.8015545242373,150.0312128212089Z" vector-effect="non-scaling-stroke"><title>Iron County</title></path><path id="county-55125" class="county feature" d="M599.0441885787287,161.5528031630729L586.1166344529465,162.39895406654466L586.0082410451632,160.82068792469022L587.502388836118,160.72501859327542L587.1382493012693,155.03232717478647L587.1196896286117,154.81489408734637L598.1420425714308,157.07319270901507L599.5026707348383,157.74348456274845L600.2876228285752,158.1270935507356L600.4051146014062,159.8298138219642L598.9258617302106,159.9381035492081Z" vector-effect="non-scaling-stroke"><title>Vilas County</title></path><path id="county-55013" class="county feature" d="M559.8444067289279,158.90433744383768L560.4799355950066,168.54438866153248L558.873329700669,168.61347666012216L558.8132054087021,167.01241912117678L553.9311074425714,167.14224641322573L553.9807888368614,168.75871629280266L549.3129177956713,168.88132001719885L549.8594136445661,167.26024990128724L551.4888595963636,164.12627078137382L556.0504440303799,161.69298033039627L556.6840062964789,159.03872197123326Z" vector-effect="non-scaling-stroke"><title>Burnett County</title></path><path id="county-55113" class="county feature" d="M574.4096464258032,158.2673615662511L574.5778044264438,161.50081149204095L577.7954814687669,161.3155980056431L578.1306791801461,167.71324060397626L566.893969545972,168.30398092770452L566.2953915205644,158.6311414304056Z" vector-effect="non-scaling-stroke"><title>Sawyer County</title></path><path id="county-55129" class="county feature" d="M566.2953915205644,158.6311414304056L566.893969545972,168.30398092770452L560.4799355950066,168.54438866153248L559.8444067289279,158.90433744383768Z" vector-effect="non-scaling-stroke"><title>Washburn County</title></path><path id="county-55041" class="county feature" d="M603.6009895600481,158.99081190830918L604.1121427053051,164.39979004867303L607.3757680726251,164.15151076715358L607.8517614289082,170.58424162644906L604.5786084516737,170.80801078511922L601.3403567497359,171.05473074801205L601.2530475832982,169.44137789007436L599.6456372487182,169.56727730830346L599.0441885787287,161.5528031630729L598.9258617302106,159.9381035492081L600.4051146014062,159.8298138219642L600.2876228285752,158.1270935507356Z" vector-effect="non-scaling-stroke"><title>Forest County</title></path><path id="county-55037" class="county feature" d="M611.0767668558368,160.12034158277652L611.0004668836594,161.96778127510152L612.0639643469322,162.67769994492426L612.1458890675364,163.93631370195772L607.3757680726251,164.15151076715358L604.1121427053051,164.39979004867303L603.6009895600481,158.99081190830918L605.5286878819634,158.70696829267786L607.1070096977994,159.43888157257925Z" vector-effect="non-scaling-stroke"><title>Florence County</title></path><path id="county-55099" class="county feature" d="M586.0082410451632,160.82068792469022L586.1166344529465,162.39895406654466L586.5070441041448,168.7698617939709L586.7332105134051,171.9983990999176L578.4028572586265,172.56966696238226L578.1306791801461,167.71324060397626L577.7954814687669,161.3155980056431L582.6616440387928,161.03716270233951Z" vector-effect="non-scaling-stroke"><title>Price County</title></path><path id="county-55085" class="county feature" d="M599.0441885787287,161.5528031630729L599.6456372487182,169.56727730830346L594.700509118118,169.87355940946043L594.5352087496182,168.2349862806126L586.5070441041448,168.7698617939709L586.1166344529465,162.39895406654466Z" vector-effect="non-scaling-stroke"><title>Oneida County</title></path><path id="county-55095" class="county feature" d="M558.873329700669,168.61347666012216L559.1748118226614,176.64452573494543L551.2718117895794,176.9382349176219L551.3815408552466,175.3174292324785L552.5808580454742,172.55664541814576L550.8369725955195,170.25027140371708L549.387424016857,170.15214001431684L549.3129177956713,168.88132001719885L553.9807888368614,168.75871629280266L553.9311074425714,167.14224641322573L558.8132054087021,167.01241912117678Z" vector-effect="non-scaling-stroke"><title>Polk County</title></path><path id="county-55005" class="county feature" d="M560.4799355950066,168.54438866153248L566.893969545972,168.30398092770452L567.1826099444997,174.7522647976673L567.2480283113433,176.34700043954638L565.6253300521739,176.39698632034538L559.1748118226614,176.64452573494543L558.873329700669,168.61347666012216Z" vector-effect="non-scaling-stroke"><title>Barron County</title></path><path id="county-55107" class="county feature" d="M578.1306791801461,167.71324060397626L578.4028572586265,172.56966696238226L575.1771159531717,172.7141035106829L575.2644205212109,174.34759723193747L567.1826099444997,174.7522647976673L566.893969545972,168.30398092770452Z" vector-effect="non-scaling-stroke"><title>Rusk County</title></path><path id="county-55069" class="county feature" d="M594.700509118118,169.87355940946043L595.1359556875752,176.36286344937093L587.0159336362186,176.8797787198423L586.7332105134051,171.9983990999176L586.5070441041448,168.7698617939709L594.5352087496182,168.2349862806126Z" vector-effect="non-scaling-stroke"><title>Lincoln County</title></path><path id="county-55067" class="county feature" d="M599.6456372487182,169.56727730830346L601.2530475832982,169.44137789007436L601.3403567497359,171.05473074801205L604.5786084516737,170.80801078511922L604.8048909162704,174.04613524089166L605.439840559369,175.641497943868L600.9627276371764,175.96665696851926L601.0952940740851,177.63049779920198L597.9046297910528,177.8533842248886L597.7856662038771,176.18753773710728L595.1359556875752,176.36286344937093L594.700509118118,169.87355940946043Z" vector-effect="non-scaling-stroke"><title>Langlade County</title></path><path id="county-55119" class="county feature" d="M586.7332105134051,171.9983990999176L587.0159336362186,176.8797787198423L584.9923720292454,176.9980672614621L585.0962266245585,178.61963555875639L583.5518095784183,178.710064677353L575.5482014676581,179.2139736044162L575.2644205212109,174.34759723193747L575.1771159531717,172.7141035106829L578.4028572586265,172.56966696238226Z" vector-effect="non-scaling-stroke"><title>Taylor County</title></path><path id="county-55083" class="county feature" d="M607.8517614289082,170.58424162644906L609.4505006305795,170.49986474181082L609.6695124254554,173.72463082887782L611.2838894012058,173.66317258463494L612.4096399500903,176.83867591450849L617.2126566412189,177.50812247552176L615.6170565986472,180.25138513303773L614.7086798269056,183.140790736932L614.6709343356006,183.14599741143468L614.623625300672,183.15100162788417L611.3356028787484,183.3839409610597L610.9961982681863,180.1656863447289L607.8191149356627,180.3678952379712L607.5092693640374,175.49735543248744L605.439840559369,175.641497943868L604.8048909162704,174.04613524089166L604.5786084516737,170.80801078511922Z" vector-effect="non-scaling-stroke"><title>Oconto County</title></path><path id="county-55017" class="county feature" d="M575.2644205212109,174.34759723193747L575.5482014676581,179.2139736044162L575.7360264117391,182.4604435113083L566.1243591985566,182.96166787195136L565.6253300521739,176.39698632034538L567.2480283113433,176.34700043954638L567.1826099444997,174.7522647976673Z" vector-effect="non-scaling-stroke"><title>Chippewa County</title></path><path id="county-55109" class="county feature" d="M559.1748118226614,176.64452573494543L559.7060645229178,183.2039539824625L551.341758749743,183.4388266339173L550.9015072253347,179.39513762798606L551.2718117895794,176.9382349176219Z" vector-effect="non-scaling-stroke"><title>Saint Croix County</title></path><path id="county-55033" class="county feature" d="M565.6253300521739,176.39698632034538L566.1243591985566,182.96166787195136L566.2719010746514,186.18342157546238L559.8569544554119,186.44572006318822L559.7060645229178,183.2039539824625L559.1748118226614,176.64452573494543Z" vector-effect="non-scaling-stroke"><title>Dunn County</title></path><path id="county-55073" class="county feature" d="M587.0159336362186,176.8797787198423L595.1359556875752,176.36286344937093L597.7856662038771,176.18753773710728L597.9046297910528,177.8533842248886L598.3682197797738,184.3450324074605L590.1550898673039,184.83709257563874L583.9226567121692,185.22071396166177L583.5518095784183,178.710064677353L585.0962266245585,178.61963555875639L584.9923720292454,176.9980672614621Z" vector-effect="non-scaling-stroke"><title>Marathon County</title></path><path id="county-55078" class="county feature" d="M605.439840559369,175.641497943868L607.5092693640374,175.49735543248744L607.8191149356627,180.3678952379712L604.563869049811,180.60226590744765L604.4493540886498,178.98267838553124L601.2137946264604,179.23229688443132L601.0952940740851,177.63049779920198L600.9627276371764,175.96665696851926Z" vector-effect="non-scaling-stroke"><title>Menominee County</title></path><path id="county-55019" class="county feature" d="M583.5518095784183,178.710064677353L583.9226567121692,185.22071396166177L584.2188887629115,190.0885926892654L577.7670493122291,190.4895820314921L577.6785344525432,188.87274342744286L576.0737064719806,188.95353380666427L575.9967235118588,187.33539814000585L575.7360264117391,182.4604435113083L575.5482014676581,179.2139736044162Z" vector-effect="non-scaling-stroke"><title>Clark County</title></path><path id="county-55115" class="county feature" d="M601.0952940740851,177.63049779920198L601.2137946264604,179.23229688443132L604.4493540886498,178.98267838553124L604.563869049811,180.60226590744765L607.8191149356627,180.3678952379712L610.9961982681863,180.1656863447289L611.3356028787484,183.3839409610597L611.4422928652868,185.15560022128784L606.6673519981525,185.43000935509713L606.5538299102651,183.79011697606109L598.3682197797738,184.3450324074605L597.9046297910528,177.8533842248886Z" vector-effect="non-scaling-stroke"><title>Shawano County</title></path><path id="county-55093" class="county feature" d="M559.7060645229178,183.2039539824625L559.8569544554119,186.44572006318822L559.9623887274671,189.15425306636223L557.5611753424346,189.2224831674855L554.456553184475,188.8288989463864L551.9344459682604,186.18186060524L550.9588384428882,185.59955892921505L551.341758749743,183.4388266339173Z" vector-effect="non-scaling-stroke"><title>Pierce County</title></path><path id="county-55035" class="county feature" d="M575.7360264117391,182.4604435113083L575.9967235118588,187.33539814000585L572.7719356202564,187.49263468221466L567.9545467781845,187.74274073254685L566.35111894509,187.80914685565165L566.2719010746514,186.18342157546238L566.1243591985566,182.96166787195136Z" vector-effect="non-scaling-stroke"><title>Eau Claire County</title></path><path id="county-55097" class="county feature" d="M598.3682197797738,184.3450324074605L598.9425523787465,192.52181257112875L593.9734085482186,192.8264841578656L592.2850465498772,192.90294361850692L591.9356532998132,187.980075241456L590.3747685729098,188.07724181639662L590.1550898673039,184.83709257563874Z" vector-effect="non-scaling-stroke"><title>Portage County</title></path><path id="county-55141" class="county feature" d="M590.1550898673039,184.83709257563874L590.3747685729098,188.07724181639662L591.9356532998132,187.980075241456L592.2850465498772,192.90294361850692L589.9184893926038,193.02291445263836L584.4635950842679,193.37464979346544L584.2188887629115,190.0885926892654L583.9226567121692,185.22071396166177Z" vector-effect="non-scaling-stroke"><title>Wood County</title></path><path id="county-55009" class="county feature" d="M614.6709343356006,183.14599741143468L614.7086798269056,183.140790736932L614.6709343356006,183.14599741143468ZM611.3356028787484,183.3839409610597L614.623625300672,183.15100162788417L614.0799019258261,185.318553285348L615.7060422734988,185.71701411000834L617.7338941939123,183.50710984886507L618.200324720697,189.42764137966185L616.5847808037456,189.55782055132784L616.7193083550319,191.18629748911144L614.6577220355011,191.34987615733485L612.6716464710573,191.49678731943914L612.1655871394656,185.05992867297687L611.4422928652868,185.15560022128784Z" vector-effect="non-scaling-stroke"><title>Brown County</title></path><path id="county-55091" class="county feature" d="M566.2719010746514,186.18342157546238L566.35111894509,187.80914685565165L561.335424955303,188.22307990790807L560.7501573164058,191.60118967313758L558.6111595318872,190.8067717957133L557.5611753424346,189.2224831674855L559.9623887274671,189.15425306636223L559.8569544554119,186.44572006318822Z" vector-effect="non-scaling-stroke"><title>Pepin County</title></path><path id="county-55135" class="county feature" d="M606.6673519981525,185.43000935509713L604.9389188262294,185.5625416589137L605.3924351062534,192.04975869016096L603.4410753475519,192.20970116354158L598.9425523787465,192.52181257112875L598.3682197797738,184.3450324074605L606.5538299102651,183.79011697606109Z" vector-effect="non-scaling-stroke"><title>Waupaca County</title></path><path id="county-55061" class="county feature" d="M622.7951883267517,182.46956546492447L621.6406360835628,185.67127237771683L621.1477409333991,189.16111861417244L618.200324720697,189.42764137966185L617.7338941939123,183.50710984886507L618.0268866652797,182.86808408584398Z" vector-effect="non-scaling-stroke"><title>Kewaunee County</title></path><path id="county-55011" class="county feature" d="M566.35111894509,187.80914685565165L567.9545467781845,187.74274073254685L568.2527038664438,194.28003234400637L567.2452973478919,195.1883554275356L568.3231309525188,197.10284567432234L568.0543979257922,198.44267429535773L563.9164274902628,195.48395611793717L562.4541615052506,192.44501555268278L560.7501573164058,191.60118967313758L561.335424955303,188.22307990790807Z" vector-effect="non-scaling-stroke"><title>Buffalo County</title></path><path id="county-55121" class="county feature" d="M572.7719356202564,187.49263468221466L573.446675455452,197.16000015474833L571.3851466648302,197.53972402641125L571.2579516806397,199.0549188139894L569.8854230381448,199.12480375403345L568.0543979257922,198.44267429535773L568.3231309525188,197.10284567432234L567.2452973478919,195.1883554275356L568.2527038664438,194.28003234400637L567.9545467781845,187.74274073254685Z" vector-effect="non-scaling-stroke"><title>Trempealeau County</title></path><path id="county-55053" class="county feature" d="M575.9967235118588,187.33539814000585L576.0737064719806,188.95353380666427L577.6785344525432,188.87274342744286L577.7670493122291,190.4895820314921L584.2188887629115,190.0885926892654L584.4635950842679,193.37464979346544L584.5683191374865,195.12256650139238L576.6501713256326,195.51570630148558L575.8371013385998,197.20202989571533L573.446675455452,197.16000015474833L572.7719356202564,187.49263468221466Z" vector-effect="non-scaling-stroke"><title>Jackson County</title></path><path id="county-55087" class="county feature" d="M606.6673519981525,185.43000935509713L611.4422928652868,185.15560022128784L612.1655871394656,185.05992867297687L612.6716464710573,191.49678731943914L609.8581239372394,191.68489459469606L605.3924351062534,192.04975869016096L604.9389188262294,185.5625416589137Z" vector-effect="non-scaling-stroke"><title>Outagamie County</title></path><path id="county-55071" class="county feature" d="M618.200324720697,189.42764137966185L621.1477409333991,189.16111861417244L621.4711810901007,192.301434956457L620.2038915053522,193.3717549011717L619.3513087410747,197.5083245010926L615.2242903691365,197.87156195104762L614.6577220355011,191.34987615733485L616.7193083550319,191.18629748911144L616.5847808037456,189.55782055132784Z" vector-effect="non-scaling-stroke"><title>Manitowoc County</title></path><path id="county-55057" class="county feature" d="M589.9184893926038,193.02291445263836L590.0152913270579,194.23079974208486L588.4252083380635,196.12102816405138L589.3383522794456,197.85678350297883L589.5611871737574,200.073432537671L590.973395223109,201.70056966949846L592.2160690496621,204.30403523886514L585.1450352666479,204.74835663184217L585.0436923501518,203.0568734287998L584.5683191374865,195.12256650139238L584.4635950842679,193.37464979346544Z" vector-effect="non-scaling-stroke"><title>Juneau County</title></path><path id="county-55001" class="county feature" d="M592.2850465498772,192.90294361850692L593.9734085482186,192.8264841578656L594.3057062897669,197.75238605917718L594.7150666762826,204.10765999633804L592.2160690496621,204.30403523886514L590.973395223109,201.70056966949846L589.5611871737574,200.073432537671L589.3383522794456,197.85678350297883L588.4252083380635,196.12102816405138L590.0152913270579,194.23079974208486L589.9184893926038,193.02291445263836Z" vector-effect="non-scaling-stroke"><title>Adams County</title></path><path id="county-55137" class="county feature" d="M598.9425523787465,192.52181257112875L603.4410753475519,192.20970116354158L603.8140980322892,197.0559869449762L600.0430492377418,197.34121856951094L594.3057062897669,197.75238605917718L593.9734085482186,192.8264841578656Z" vector-effect="non-scaling-stroke"><title>Waushara County</title></path><path id="county-55139" class="county feature" d="M609.8581239372394,191.68489459469606L610.3109965760323,197.39952782333705L610.3882768754165,198.2439218963143L603.942308344698,198.70134787770564L603.8140980322892,197.0559869449762L603.4410753475519,192.20970116354158L605.3924351062534,192.04975869016096Z" vector-effect="non-scaling-stroke"><title>Winnebago County</title></path><path id="county-55015" class="county feature" d="M612.6716464710573,191.49678731943914L614.6577220355011,191.34987615733485L615.2242903691365,197.87156195104762L613.6135119300836,198.01077494887613L613.5515988042121,197.14492260397628L610.3109965760323,197.39952782333705L609.8581239372394,191.68489459469606Z" vector-effect="non-scaling-stroke"><title>Calumet County</title></path><path id="county-55081" class="county feature" d="M584.5683191374865,195.12256650139238L585.0436923501518,203.0568734287998L577.0271313185042,203.62285764046464L576.641624548152,197.14809760436071L575.8371013385998,197.20202989571533L576.6501713256326,195.51570630148558Z" vector-effect="non-scaling-stroke"><title>Monroe County</title></path><path id="county-55063" class="county feature" d="M573.446675455452,197.16000015474833L575.8371013385998,197.20202989571533L576.641624548152,197.14809760436071L577.0271313185042,203.62285764046464L572.3757742166812,203.80719228308544L571.89924409258,201.60217715753322L569.8854230381448,199.12480375403345L571.2579516806397,199.0549188139894L571.3851466648302,197.53972402641125Z" vector-effect="non-scaling-stroke"><title>La Crosse County</title></path><path id="county-55047" class="county feature" d="M603.8140980322892,197.0559869449762L603.942308344698,198.70134787770564L604.3044150625809,203.59443952215622L602.6818926369546,203.72517716219704L599.4696873004156,203.76899692738095L600.0430492377418,197.34121856951094Z" vector-effect="non-scaling-stroke"><title>Green Lake County</title></path><path id="county-55077" class="county feature" d="M600.0430492377418,197.34121856951094L599.4696873004156,203.76899692738095L594.7150666762826,204.10765999633804L594.3057062897669,197.75238605917718Z" vector-effect="non-scaling-stroke"><title>Marquette County</title></path><path id="county-55039" class="county feature" d="M613.6135119300836,198.01077494887613L614.1710651609449,204.5218285369932L610.9548563586633,204.77249888776873L610.8144399421441,203.1410898392868L604.3044150625809,203.59443952215622L603.942308344698,198.70134787770564L610.3882768754165,198.2439218963143L610.3109965760323,197.39952782333705L613.5515988042121,197.14492260397628Z" vector-effect="non-scaling-stroke"><title>Fond du Lac County</title></path><path id="county-55117" class="county feature" d="M619.3513087410747,197.5083245010926L620.0873298428222,201.2820288811547L619.1154870739779,204.10142632814734L615.7818140472324,204.39877553396195L614.1710651609449,204.5218285369932L613.6135119300836,198.01077494887613L615.2242903691365,197.87156195104762Z" vector-effect="non-scaling-stroke"><title>Sheboygan County</title></path><path id="county-55123" class="county feature" d="M585.1450352666479,204.74835663184217L585.2618474910396,206.3746072854227L580.4111698965002,206.675244173966L580.5913672021213,209.1079211574472L573.3535624237752,209.49486151478425L573.1158397794858,208.04961718506866L572.3163512998807,205.91031442053134L572.3757742166812,203.80719228308544L577.0271313185042,203.62285764046464L585.0436923501518,203.0568734287998Z" vector-effect="non-scaling-stroke"><title>Vernon County</title></path><path id="county-55021" class="county feature" d="M602.6818926369546,203.72517716219704L603.1330962052485,210.2427594014332L593.5243396000294,210.76305731088075L595.026656210493,209.01580982334644L594.8296072685816,205.66225019477588L593.0907693879202,205.6016197341595L592.2160690496621,204.30403523886514L594.7150666762826,204.10765999633804L599.4696873004156,203.76899692738095Z" vector-effect="non-scaling-stroke"><title>Columbia County</title></path><path id="county-55111" class="county feature" d="M592.2160690496621,204.30403523886514L593.0907693879202,205.6016197341595L594.8296072685816,205.66225019477588L595.026656210493,209.01580982334644L593.5243396000294,210.76305731088075L592.036399115257,212.49547939689478L587.2768734301573,213.57655395742313L586.8632679784182,206.25945664743335L585.2618474910396,206.3746072854227L585.1450352666479,204.74835663184217Z" vector-effect="non-scaling-stroke"><title>Sauk County</title></path><path id="county-55027" class="county feature" d="M610.9548563586633,204.77249888776873L611.2402979066808,211.31690887012576L609.6440723139559,211.41924217067685L603.2582047114802,211.87444293948647L603.1330962052485,210.2427594014332L602.6818926369546,203.72517716219704L604.3044150625809,203.59443952215622L610.8144399421441,203.1410898392868Z" vector-effect="non-scaling-stroke"><title>Dodge County</title></path><path id="county-55103" class="county feature" d="M587.2768734301573,213.57655395742313L584.052185875033,213.08484557465465L580.8800140911902,213.81445549856403L580.5913672021213,209.1079211574472L580.4111698965002,206.675244173966L585.2618474910396,206.3746072854227L586.8632679784182,206.25945664743335Z" vector-effect="non-scaling-stroke"><title>Richland County</title></path><path id="county-55089" class="county feature" d="M619.1154870739779,204.10142632814734L617.9869191893891,209.59187016879764L618.3323082963403,210.78081678677802L616.0263559101161,210.9738792927966L615.7818140472324,204.39877553396195Z" vector-effect="non-scaling-stroke"><title>Ozaukee County</title></path><path id="county-55131" class="county feature" d="M614.1710651609449,204.5218285369932L615.7818140472324,204.39877553396195L616.0263559101161,210.9738792927966L611.2402979066808,211.31690887012576L610.9548563586633,204.77249888776873Z" vector-effect="non-scaling-stroke"><title>Washington County</title></path><path id="county-55023" class="county feature" d="M580.5913672021213,209.1079211574472L580.8800140911902,213.81445549856403L575.6604331119175,217.4763199636027L574.4225065859346,217.61277808100942L574.0621707500688,215.90103142132546L575.4937787192493,212.49118158862268L573.437273676602,210.86430609849083L573.3535624237752,209.49486151478425Z" vector-effect="non-scaling-stroke"><title>Crawford County</title></path><path id="county-55025" class="county feature" d="M603.1330962052485,210.2427594014332L603.2582047114802,211.87444293948647L603.6783380638005,218.43997803243064L598.851993386811,218.83082921455855L592.460477407832,219.02800494344694L592.036399115257,212.49547939689478L593.5243396000294,210.76305731088075Z" vector-effect="non-scaling-stroke"><title>Dane County</title></path><path id="county-55049" class="county feature" d="M587.2768734301573,213.57655395742313L592.036399115257,212.49547939689478L592.460477407832,219.02800494344694L592.5134886548612,219.8445931337335L584.5180483845105,220.3569947192865L584.052185875033,213.08484557465465Z" vector-effect="non-scaling-stroke"><title>Iowa County</title></path><path id="county-55043" class="county feature" d="M584.052185875033,213.08484557465465L584.5180483845105,220.3569947192865L584.8596835342205,226.09276389766887L581.9319647671488,226.23807654546385L580.9606321447934,223.98844694975662L578.2634157902354,223.3012295146957L575.8942735503024,221.97620767925252L574.4225065859346,217.61277808100942L575.6604331119175,217.4763199636027L580.8800140911902,213.81445549856403Z" vector-effect="non-scaling-stroke"><title>Grant County</title></path><path id="county-55055" class="county feature" d="M609.6440723139559,211.41924217067685L610.0911466998836,218.0346920838831L606.8957745280517,218.28704306507427L603.6783380638005,218.43997803243064L603.2582047114802,211.87444293948647Z" vector-effect="non-scaling-stroke"><title>Jefferson County</title></path><path id="county-55133" class="county feature" d="M611.2402979066808,211.31690887012576L616.0263559101161,210.9738792927966L616.4899196661785,217.50845109138322L613.2827146667075,217.79594152729123L610.0911466998836,218.0346920838831L609.6440723139559,211.41924217067685Z" vector-effect="non-scaling-stroke"><title>Waukesha County</title></path><path id="county-55079" class="county feature" d="M618.3323082963403,210.78081678677802L619.7876919737565,217.2486605969658L616.4899196661785,217.50845109138322L616.0263559101161,210.9738792927966Z" vector-effect="non-scaling-stroke"><title>Milwaukee County</title></path><path id="county-55045" class="county feature" d="M598.851993386811,218.83082921455855L599.3427307783395,225.28987172531413L598.8624607612289,225.3203222601785L592.8983959256285,225.62213743323696L592.5134886548612,219.8445931337335L592.460477407832,219.02800494344694Z" vector-effect="non-scaling-stroke"><title>Green County</title></path><path id="county-55105" class="county feature" d="M603.6783380638005,218.43997803243064L606.8957745280517,218.28704306507427L607.4009091915134,224.85626768660518L605.163595678073,224.96800209085131L599.3427307783395,225.28987172531413L598.851993386811,218.83082921455855Z" vector-effect="non-scaling-stroke"><title>Rock County</title></path><path id="county-55127" class="county feature" d="M610.0911466998836,218.0346920838831L613.2827146667075,217.79594152729123L613.6389853617835,222.12688881595523L613.8351297072173,224.30163320905478L608.3438118907263,224.7557713519907L607.4009091915134,224.85626768660518L606.8957745280517,218.28704306507427Z" vector-effect="non-scaling-stroke"><title>Walworth County</title></path><path id="county-55101" class="county feature" d="M619.7876919737565,217.2486605969658L620.7824527556688,218.2543759072886L620.3518371392831,220.48478662119987L615.155676333248,220.89196168808883L615.2458371359724,221.98640587776492L613.6389853617835,222.12688881595523L613.2827146667075,217.79594152729123L616.4899196661785,217.50845109138322Z" vector-effect="non-scaling-stroke"><title>Racine County</title></path><path id="county-55065" class="county feature" d="M592.5134886548612,219.8445931337335L592.8983959256285,225.62213743323696L591.6929538006292,225.69882751865123L584.8596835342205,226.09276389766887L584.5180483845105,220.3569947192865Z" vector-effect="non-scaling-stroke"><title>Lafayette County</title></path><path id="county-55059" class="county feature" d="M620.3518371392831,220.48478662119987L620.6503891593071,223.76805916941703L615.3027493534171,224.17259016126525L613.8351297072173,224.30163320905478L613.6389853617835,222.12688881595523L615.2458371359724,221.98640587776492L615.155676333248,220.89196168808883Z" vector-effect="non-scaling-stroke"><title>Kenosha County</title></path><path id="county-55031" class="county feature" d="M565.773736780448,147.49420328504596L566.2953915205644,158.6311414304056L559.8444067289279,158.90433744383768L556.6840062964789,159.03872197123326L556.5044572332245,154.19907907433708L556.3305136638659,149.6232897970217L557.4859173907628,149.6336740352491L558.6310779790587,148.0378456221248L560.0426414414986,149.12159842895346L562.3828381016511,148.86978977938816Z" vector-effect="non-scaling-stroke"><title>Douglas County</title></path><path id="county-55007" class="county feature" d="M573.94458582528,150.25929080843002L574.4096464258032,158.2673615662511L566.2953915205644,158.6311414304056L565.773736780448,147.49420328504596L569.5268504507859,145.75395646246625L571.3764549361387,145.32597599335918L574.3596340395341,143.21209290615116L575.8484783390393,144.33698437640976L574.3184569657428,147.06095041313506L574.7943009057753,148.0891508411588Z" vector-effect="non-scaling-stroke"><title>Bayfield County</title></path><path id="county-55003" class="county feature" d="M578.8015545242373,150.0312128212089L579.1391216812307,156.39805646203808L580.7721658822096,156.31027814922174L580.8619370754391,157.91854755353347L582.4492534133452,157.80927908705098L582.6616440387928,161.03716270233951L577.7954814687669,161.3155980056431L574.5778044264438,161.50081149204095L574.4096464258032,158.2673615662511L573.94458582528,150.25929080843002L576.7695043961288,148.6231847777517ZM577.7012371648973,144.67342763794568L578.2759362815834,145.13197018473056L575.6107354716933,147.05370451153954Z" vector-effect="non-scaling-stroke"><title>Ashland County</title></path><path id="county-55075" class="county feature" d="M614.8979274260745,163.52567287867157L615.8258609445454,164.36229296429963L615.3157939377759,166.52210758561864L615.9588839486712,167.58308910806886L614.9631676909045,170.4391457523784L618.1086811029413,170.41077399454036L617.1059061914223,173.17177406604787L618.9009315795532,174.82547426939436L618.9276639609203,177.00900967418556L617.2126566412189,177.50812247552176L612.4096399500903,176.83867591450849L611.2838894012058,173.66317258463494L609.6695124254554,173.72463082887782L609.4505006305795,170.49986474181082L607.8517614289082,170.58424162644906L607.3757680726251,164.15151076715358L612.1458890675364,163.93631370195772L612.0639643469322,162.67769994492426Z" vector-effect="non-scaling-stroke"><title>Marinette County</title></path><path id="county-55029" class="county feature" d="M622.7951883267517,182.46956546492447L618.0268866652797,182.86808408584398L619.398691945611,179.75412356335505L621.975820814853,178.224984339814L623.7588470488287,173.15612275206558L625.2643961914315,172.52190941570825L625.7576841501946,170.5629170789747L626.8594584229639,170.45051493495134L624.741291120271,176.78671993092485L624.6954358219199,178.5476032444186L623.3395236237523,180.32961180161715Z" vector-effect="non-scaling-stroke"><title>Door County</title></path></g><path id="counties-mesh" class="counties mesh" d="M600.2876228285752,158.1270935507356L600.4051146014062,159.8298138219642L598.9258617302106,159.9381035492081L599.0441885787287,161.5528031630729L586.1166344529465,162.39895406654466L586.0082410451632,160.82068792469022M565.773736780448,147.49420328504596L569.5268504507859,145.75395646246625L571.3764549361387,145.32597599335918L574.3596340395341,143.21209290615116L575.8484783390393,144.33698437640976L574.3184569657428,147.06095041313506L574.7943009057753,148.0891508411588L573.94458582528,150.25929080843002L574.4096464258032,158.2673615662511L574.5778044264438,161.50081149204095L577.7954814687669,161.3155980056431L578.1306791801461,167.71324060397626L566.893969545972,168.30398092770452L566.2953915205644,158.6311414304056L574.4096464258032,158.2673615662511M566.893969545972,168.30398092770452L560.4799355950066,168.54438866153248M556.6840062964789,159.03872197123326L559.8444067289279,158.90433744383768L560.4799355950066,168.54438866153248L558.873329700669,168.61347666012216L558.8132054087021,167.01241912117678L553.9311074425714,167.14224641322573L553.9807888368614,168.75871629280266L549.3129177956713,168.88132001719885L549.8594136445661,167.26024990128724L551.4888595963636,164.12627078137382L556.0504440303799,161.69298033039627L556.6840062964789,159.03872197123326L556.5044572332245,154.19907907433708L556.3305136638659,149.6232897970217L557.4859173907628,149.6336740352491L558.6310779790587,148.0378456221248L560.0426414414986,149.12159842895346L562.3828381016511,148.86978977938816L565.773736780448,147.49420328504596L566.2953915205644,158.6311414304056M603.6009895600481,158.99081190830918L604.1121427053051,164.39979004867303L607.3757680726251,164.15151076715358L607.8517614289082,170.58424162644906L604.5786084516737,170.80801078511922L601.3403567497359,171.05473074801205L601.2530475832982,169.44137789007436L599.6456372487182,169.56727730830346L599.0441885787287,161.5528031630729M612.0639643469322,162.67769994492426L612.1458890675364,163.93631370195772L607.3757680726251,164.15151076715358M586.1166344529465,162.39895406654466L586.5070441041448,168.7698617939709L586.7332105134051,171.9983990999176L578.4028572586265,172.56966696238226L578.1306791801461,167.71324060397626M577.7954814687669,161.3155980056431L582.6616440387928,161.03716270233951M599.6456372487182,169.56727730830346L594.700509118118,169.87355940946043L594.5352087496182,168.2349862806126L586.5070441041448,168.7698617939709M558.873329700669,168.61347666012216L559.1748118226614,176.64452573494543L551.2718117895794,176.9382349176219L551.3815408552466,175.3174292324785L552.5808580454742,172.55664541814576L550.8369725955195,170.25027140371708L549.387424016857,170.15214001431684L549.3129177956713,168.88132001719885M578.4028572586265,172.56966696238226L575.1771159531717,172.7141035106829L575.2644205212109,174.34759723193747L567.1826099444997,174.7522647976673M594.700509118118,169.87355940946043L595.1359556875752,176.36286344937093L587.0159336362186,176.8797787198423L586.7332105134051,171.9983990999176M604.5786084516737,170.80801078511922L604.8048909162704,174.04613524089166L605.439840559369,175.641497943868L600.9627276371764,175.96665696851926L601.0952940740851,177.63049779920198L597.9046297910528,177.8533842248886L597.7856662038771,176.18753773710728L595.1359556875752,176.36286344937093M587.0159336362186,176.8797787198423L584.9923720292454,176.9980672614621L585.0962266245585,178.61963555875639L583.5518095784183,178.710064677353L575.5482014676581,179.2139736044162L575.2644205212109,174.34759723193747M607.8517614289082,170.58424162644906L609.4505006305795,170.49986474181082L609.6695124254554,173.72463082887782L611.2838894012058,173.66317258463494L612.4096399500903,176.83867591450849L617.2126566412189,177.50812247552176L615.6170565986472,180.25138513303773L614.7086798269056,183.140790736932L614.6709343356006,183.14599741143468L614.623625300672,183.15100162788417L611.3356028787484,183.3839409610597L610.9961982681863,180.1656863447289L607.8191149356627,180.3678952379712L607.5092693640374,175.49735543248744L605.439840559369,175.641497943868M559.8569544554119,186.44572006318822L559.9623887274671,189.15425306636223L557.5611753424346,189.2224831674855L554.456553184475,188.8288989463864L551.9344459682604,186.18186060524L550.9588384428882,185.59955892921505L551.341758749743,183.4388266339173L550.9015072253347,179.39513762798606L551.2718117895794,176.9382349176219M575.5482014676581,179.2139736044162L575.7360264117391,182.4604435113083L566.1243591985566,182.96166787195136L565.6253300521739,176.39698632034538M566.893969545972,168.30398092770452L567.1826099444997,174.7522647976673L567.2480283113433,176.34700043954638L565.6253300521739,176.39698632034538L559.1748118226614,176.64452573494543L559.7060645229178,183.2039539824625L551.341758749743,183.4388266339173M566.1243591985566,182.96166787195136L566.2719010746514,186.18342157546238L559.8569544554119,186.44572006318822L559.7060645229178,183.2039539824625M597.9046297910528,177.8533842248886L598.3682197797738,184.3450324074605L590.1550898673039,184.83709257563874L583.9226567121692,185.22071396166177L583.5518095784183,178.710064677353M607.8191149356627,180.3678952379712L604.563869049811,180.60226590744765L604.4493540886498,178.98267838553124L601.2137946264604,179.23229688443132L601.0952940740851,177.63049779920198M583.9226567121692,185.22071396166177L584.2188887629115,190.0885926892654L577.7670493122291,190.4895820314921L577.6785344525432,188.87274342744286L576.0737064719806,188.95353380666427L575.9967235118588,187.33539814000585L575.7360264117391,182.4604435113083M575.9967235118588,187.33539814000585L572.7719356202564,187.49263468221466L567.9545467781845,187.74274073254685L566.35111894509,187.80914685565165L566.2719010746514,186.18342157546238M566.35111894509,187.80914685565165L561.335424955303,188.22307990790807L560.7501573164058,191.60118967313758L558.6111595318872,190.8067717957133L557.5611753424346,189.2224831674855M611.3356028787484,183.3839409610597L611.4422928652868,185.15560022128784L606.6673519981525,185.43000935509713L606.5538299102651,183.79011697606109L598.3682197797738,184.3450324074605L598.9425523787465,192.52181257112875L593.9734085482186,192.8264841578656L592.2850465498772,192.90294361850692L591.9356532998132,187.980075241456L590.3747685729098,188.07724181639662L590.1550898673039,184.83709257563874M592.2850465498772,192.90294361850692L589.9184893926038,193.02291445263836L584.4635950842679,193.37464979346544L584.2188887629115,190.0885926892654M614.7086798269056,183.140790736932L614.6709343356006,183.14599741143468M614.623625300672,183.15100162788417L614.0799019258261,185.318553285348L615.7060422734988,185.71701411000834L617.7338941939123,183.50710984886507L618.200324720697,189.42764137966185L616.5847808037456,189.55782055132784L616.7193083550319,191.18629748911144L614.6577220355011,191.34987615733485L612.6716464710573,191.49678731943914L612.1655871394656,185.05992867297687L611.4422928652868,185.15560022128784M606.6673519981525,185.43000935509713L604.9389188262294,185.5625416589137L605.3924351062534,192.04975869016096L603.4410753475519,192.20970116354158L598.9425523787465,192.52181257112875M617.7338941939123,183.50710984886507L618.0268866652797,182.86808408584398L622.7951883267517,182.46956546492447L621.6406360835628,185.67127237771683L621.1477409333991,189.16111861417244L618.200324720697,189.42764137966185M567.9545467781845,187.74274073254685L568.2527038664438,194.28003234400637L567.2452973478919,195.1883554275356L568.3231309525188,197.10284567432234L568.0543979257922,198.44267429535773L563.9164274902628,195.48395611793717L562.4541615052506,192.44501555268278L560.7501573164058,191.60118967313758M572.7719356202564,187.49263468221466L573.446675455452,197.16000015474833L571.3851466648302,197.53972402641125L571.2579516806397,199.0549188139894L569.8854230381448,199.12480375403345L568.0543979257922,198.44267429535773M584.4635950842679,193.37464979346544L584.5683191374865,195.12256650139238L576.6501713256326,195.51570630148558L575.8371013385998,197.20202989571533L573.446675455452,197.16000015474833M612.6716464710573,191.49678731943914L609.8581239372394,191.68489459469606L605.3924351062534,192.04975869016096M621.1477409333991,189.16111861417244L621.4711810901007,192.301434956457L620.2038915053522,193.3717549011717L619.3513087410747,197.5083245010926L615.2242903691365,197.87156195104762L614.6577220355011,191.34987615733485M589.9184893926038,193.02291445263836L590.0152913270579,194.23079974208486L588.4252083380635,196.12102816405138L589.3383522794456,197.85678350297883L589.5611871737574,200.073432537671L590.973395223109,201.70056966949846L592.2160690496621,204.30403523886514L585.1450352666479,204.74835663184217L585.0436923501518,203.0568734287998L584.5683191374865,195.12256650139238M602.6818926369546,203.72517716219704L603.1330962052485,210.2427594014332L593.5243396000294,210.76305731088075L595.026656210493,209.01580982334644L594.8296072685816,205.66225019477588L593.0907693879202,205.6016197341595L592.2160690496621,204.30403523886514M603.4410753475519,192.20970116354158L603.8140980322892,197.0559869449762L600.0430492377418,197.34121856951094L594.3057062897669,197.75238605917718M609.8581239372394,191.68489459469606L610.3109965760323,197.39952782333705L610.3882768754165,198.2439218963143L603.942308344698,198.70134787770564L603.8140980322892,197.0559869449762M615.2242903691365,197.87156195104762L613.6135119300836,198.01077494887613L613.5515988042121,197.14492260397628L610.3109965760323,197.39952782333705M577.0271313185042,203.62285764046464L572.3757742166812,203.80719228308544L571.89924409258,201.60217715753322L569.8854230381448,199.12480375403345M585.0436923501518,203.0568734287998L577.0271313185042,203.62285764046464L576.641624548152,197.14809760436071L575.8371013385998,197.20202989571533M603.942308344698,198.70134787770564L604.3044150625809,203.59443952215622L602.6818926369546,203.72517716219704L599.4696873004156,203.76899692738095L600.0430492377418,197.34121856951094M599.4696873004156,203.76899692738095L594.7150666762826,204.10765999633804M613.6135119300836,198.01077494887613L614.1710651609449,204.5218285369932L610.9548563586633,204.77249888776873L610.8144399421441,203.1410898392868L604.3044150625809,203.59443952215622M619.3513087410747,197.5083245010926L620.0873298428222,201.2820288811547L619.1154870739779,204.10142632814734L615.7818140472324,204.39877553396195L614.1710651609449,204.5218285369932M585.1450352666479,204.74835663184217L585.2618474910396,206.3746072854227L580.4111698965002,206.675244173966L580.5913672021213,209.1079211574472L573.3535624237752,209.49486151478425L573.1158397794858,208.04961718506866L572.3163512998807,205.91031442053134L572.3757742166812,203.80719228308544M593.5243396000294,210.76305731088075L592.036399115257,212.49547939689478L587.2768734301573,213.57655395742313L586.8632679784182,206.25945664743335L585.2618474910396,206.3746072854227M610.9548563586633,204.77249888776873L611.2402979066808,211.31690887012576L609.6440723139559,211.41924217067685L603.2582047114802,211.87444293948647L603.1330962052485,210.2427594014332M587.2768734301573,213.57655395742313L584.052185875033,213.08484557465465L580.8800140911902,213.81445549856403L580.5913672021213,209.1079211574472M619.1154870739779,204.10142632814734L617.9869191893891,209.59187016879764L618.3323082963403,210.78081678677802L616.0263559101161,210.9738792927966L615.7818140472324,204.39877553396195M616.0263559101161,210.9738792927966L611.2402979066808,211.31690887012576M580.8800140911902,213.81445549856403L575.6604331119175,217.4763199636027L574.4225065859346,217.61277808100942L574.0621707500688,215.90103142132546L575.4937787192493,212.49118158862268L573.437273676602,210.86430609849083L573.3535624237752,209.49486151478425M603.2582047114802,211.87444293948647L603.6783380638005,218.43997803243064L598.851993386811,218.83082921455855L592.460477407832,219.02800494344694L592.036399115257,212.49547939689478M592.460477407832,219.02800494344694L592.5134886548612,219.8445931337335L584.5180483845105,220.3569947192865L584.052185875033,213.08484557465465M584.5180483845105,220.3569947192865L584.8596835342205,226.09276389766887L581.9319647671488,226.23807654546385L580.9606321447934,223.98844694975662L578.2634157902354,223.3012295146957L575.8942735503024,221.97620767925252L574.4225065859346,217.61277808100942M609.6440723139559,211.41924217067685L610.0911466998836,218.0346920838831L606.8957745280517,218.28704306507427L603.6783380638005,218.43997803243064M616.0263559101161,210.9738792927966L616.4899196661785,217.50845109138322L613.2827146667075,217.79594152729123L610.0911466998836,218.0346920838831M618.3323082963403,210.78081678677802L619.7876919737565,217.2486605969658L616.4899196661785,217.50845109138322M598.851993386811,218.83082921455855L599.3427307783395,225.28987172531413L598.8624607612289,225.3203222601785L592.8983959256285,225.62213743323696L592.5134886548612,219.8445931337335M606.8957745280517,218.28704306507427L607.4009091915134,224.85626768660518L605.163595678073,224.96800209085131L599.3427307783395,225.28987172531413M613.2827146667075,217.79594152729123L613.6389853617835,222.12688881595523L613.8351297072173,224.30163320905478L608.3438118907263,224.7557713519907L607.4009091915134,224.85626768660518M619.7876919737565,217.2486605969658L620.7824527556688,218.2543759072886L620.3518371392831,220.48478662119987L615.155676333248,220.89196168808883L615.2458371359724,221.98640587776492L613.6389853617835,222.12688881595523M592.8983959256285,225.62213743323696L591.6929538006292,225.69882751865123L584.8596835342205,226.09276389766887M620.3518371392831,220.48478662119987L620.6503891593071,223.76805916941703L615.3027493534171,224.17259016126525L613.8351297072173,224.30163320905478M573.94458582528,150.25929080843002L576.7695043961288,148.6231847777517L578.8015545242373,150.0312128212089M577.7012371648973,144.67342763794568L578.2759362815834,145.13197018473056L575.6107354716933,147.05370451153954L577.7012371648973,144.67342763794568M587.1382493012693,155.03232717478647L587.502388836118,160.72501859327542L586.0082410451632,160.82068792469022L582.6616440387928,161.03716270233951L582.4492534133452,157.80927908705098L580.8619370754391,157.91854755353347L580.7721658822096,156.31027814922174L579.1391216812307,156.39805646203808L578.8015545242373,150.0312128212089L580.5282054551132,150.26241288610026L582.9861266175214,151.15233119573497L584.6076704107228,154.27915906813973L587.1382493012693,155.03232717478647L587.1196896286117,154.81489408734637L598.1420425714308,157.07319270901507L599.5026707348383,157.74348456274845L600.2876228285752,158.1270935507356L603.6009895600481,158.99081190830918L605.5286878819634,158.70696829267786L607.1070096977994,159.43888157257925L611.0767668558368,160.12034158277652L611.0004668836594,161.96778127510152L612.0639643469322,162.67769994492426L614.8979274260745,163.52567287867157L615.8258609445454,164.36229296429963L615.3157939377759,166.52210758561864L615.9588839486712,167.58308910806886L614.9631676909045,170.4391457523784L618.1086811029413,170.41077399454036L617.1059061914223,173.17177406604787L618.9009315795532,174.82547426939436L618.9276639609203,177.00900967418556L617.2126566412189,177.50812247552176M618.0268866652797,182.86808408584398L619.398691945611,179.75412356335505L621.975820814853,178.224984339814L623.7588470488287,173.15612275206558L625.2643961914315,172.52190941570825L625.7576841501946,170.5629170789747L626.8594584229639,170.45051493495134L624.741291120271,176.78671993092485L624.6954358219199,178.5476032444186L623.3395236237523,180.32961180161715L622.7951883267517,182.46956546492447M559.8444067289279,158.90433744383768L566.2953915205644,158.6311414304056M593.9734085482186,192.8264841578656L594.3057062897669,197.75238605917718L594.7150666762826,204.10765999633804L592.2160690496621,204.30403523886514" vector-effect="non-scaling-stroke"></path></svg>