<?xml version="1.0" standalone="yes"?>
<svg xmlns="http://www.w3.org/2000/svg" version="1.2" id="root" viewBox="702.2332514474759 245.8133302119669 66.44327547836781 66.25304868199862"><style>
@import url("../../css/svg.css");</style><rect id="bbox" class="bbox" x="702.2332514474759" y="245.8133302119669" width="66.44327547836781" height="66.25304868199862"></rect><g id="counties"><path id="county-54029" class="county feature" d="M725.6924466672777,248.80979478730148L725.9473482218805,250.26726844499126L724.4148445293049,250.58384846162915L724.6608319781311,249.2660255863292L723.3045335897009,247.1947192087282L725.2000132677055,245.8133302119669Z" style="fill: inherit; stroke: inherit; stroke-width: inherit;" vector-effect="non-scaling-stroke"><title>Hancock County</title></path><path id="county-54009" class="county feature" d="M725.9473482218805,250.26726844499126L726.662895456876,254.71499013500284L724.3102396607235,254.60725301554817L725.0511287635991,251.90429135360841L724.4148445293049,250.58384846162915Z" style="fill: inherit; stroke: inherit; stroke-width: inherit;" vector-effect="non-scaling-stroke"><title>Brooke County</title></path><path id="county-54069" class="county feature" d="M726.662895456876,254.71499013500284L727.1058643014587,257.37909231984895L724.0421709386551,257.55388191104817L724.1053453082894,255.1819835555316L724.3102396607235,254.60725301554817Z" style="fill: inherit; stroke: inherit; stroke-width: inherit;" vector-effect="non-scaling-stroke"><title>Ohio County</title></path><path id="county-54051" class="county feature" d="M727.9972732600256,262.86619824844445L723.5936623621709,263.6008648997803L723.3557962355409,261.1923661805938L724.1389459596853,259.839452121716L724.0421709386551,257.55388191104817L727.1058643014587,257.37909231984895L727.2658251657297,258.3838263990872Z" style="fill: inherit; stroke: inherit; stroke-width: inherit;" vector-effect="non-scaling-stroke"><title>Marshall County</title></path><path id="county-54061" class="county feature" d="M736.463081546718,261.46175323169825L738.607741924495,261.09354748565625L737.6764458141056,266.7059122965102L737.0011898942291,266.49871130112035L733.4841822613951,264.0752558967923L729.9950178100555,264.142556022328L729.3792197792242,262.6445196231333Z" style="fill: inherit; stroke: inherit; stroke-width: inherit;" vector-effect="non-scaling-stroke"><title>Monongalia County</title></path><path id="county-54077" class="county feature" d="M742.632609726813,260.38677648611747L744.1650941860438,269.97514503990465L744.2011589250803,270.18062704682416L741.1316074128334,269.25318823886255L739.5298212566975,270.3108368081563L738.0990698068982,269.23697383729757L737.6764458141056,266.7059122965102L738.607741924495,261.09354748565625Z" style="fill: inherit; stroke: inherit; stroke-width: inherit;" vector-effect="non-scaling-stroke"><title>Preston County</title></path><path id="county-54103" class="county feature" d="M727.9972732600256,262.86619824844445L729.3792197792242,262.6445196231333L729.9950178100555,264.142556022328L728.7837339880933,265.75777017073244L729.1261316981004,267.4911307285871L728.5416130988142,268.3609482817932L727.42927192141,268.13666442264196L725.9059805016263,267.8079535639854L723.6808505064208,265.84915220846756L722.373464863054,265.96841382872606L723.5936623621709,263.6008648997803Z" style="fill: inherit; stroke: inherit; stroke-width: inherit;" vector-effect="non-scaling-stroke"><title>Wetzel County</title></path><path id="county-54065" class="county feature" d="M763.3498600502338,258.52918518412696L761.8076576988856,259.31823766971263L761.2557842754375,263.3105512787961L759.3313945074378,262.2389639818764L757.4580442168563,261.61722265066714L757.5812007650939,259.6000020987069L758.9214228675049,259.0324462441845L759.9378050040613,259.1232553753333L760.8679193474529,257.52205944942784Z" style="fill: inherit; stroke: inherit; stroke-width: inherit;" vector-effect="non-scaling-stroke"><title>Morgan County</title></path><path id="county-54057" class="county feature" d="M754.7455703653478,261.7662588606181L752.7205402017953,266.0469349374332L751.2154937734196,268.1124137762722L748.7851986216363,267.11689142034754L746.8026657802989,267.1767495552159L749.1659230519115,263.83943640582527L750.7320776132667,264.34786782141657L752.5506637499578,260.75403851959334Z" style="fill: inherit; stroke: inherit; stroke-width: inherit;" vector-effect="non-scaling-stroke"><title>Mineral County</title></path><path id="county-54049" class="county feature" d="M729.9950178100555,264.142556022328L733.4841822613951,264.0752558967923L737.0011898942291,266.49871130112035L735.9490403181187,267.6535616872012L733.5517983492289,268.21830990464923L729.1261316981004,267.4911307285871L728.7837339880933,265.75777017073244Z" style="fill: inherit; stroke: inherit; stroke-width: inherit;" vector-effect="non-scaling-stroke"><title>Marion County</title></path><path id="county-54003" class="county feature" d="M763.3498600502338,258.52918518412696L765.9742109909514,258.2788204467356L765.5077477378611,259.42600094240186L766.5547404673146,260.3354228822052L765.0216806382643,263.0576352009848L764.4519054566284,265.13319924672885L761.2557842754375,263.3105512787961L761.8076576988856,259.31823766971263Z" style="fill: inherit; stroke: inherit; stroke-width: inherit;" vector-effect="non-scaling-stroke"><title>Berkeley County</title></path><path id="county-54095" class="county feature" d="M727.42927192141,268.13666442264196L724.088960573833,271.65820527475114L723.1243496046716,270.05070190514334L722.2366801098975,270.8731348787609L721.6547043868978,268.81342476464295L720.3141648920798,269.1323309819559L721.2370619080218,267.42486739285584L722.373464863054,265.96841382872606L723.6808505064208,265.84915220846756L725.9059805016263,267.8079535639854Z" style="fill: inherit; stroke: inherit; stroke-width: inherit;" vector-effect="non-scaling-stroke"><title>Tyler County</title></path><path id="county-54027" class="county feature" d="M757.4580442168563,261.61722265066714L759.3313945074378,262.2389639818764L759.8237068761632,264.3030035500825L759.0482430785705,266.29996916916343L759.5764964537816,267.91965345321466L758.3761105496103,269.6562120820968L752.4735979656318,268.62107826383874L751.2154937734196,268.1124137762722L752.7205402017953,266.0469349374332L754.7455703653478,261.7662588606181Z" style="fill: inherit; stroke: inherit; stroke-width: inherit;" vector-effect="non-scaling-stroke"><title>Hampshire County</title></path><path id="county-54037" class="county feature" d="M768.6765269258437,263.241942255995L767.8080869865792,267.0264315107139L764.4519054566284,265.13319924672885L765.0216806382643,263.0576352009848L766.5547404673146,260.3354228822052Z" style="fill: inherit; stroke: inherit; stroke-width: inherit;" vector-effect="non-scaling-stroke"><title>Jefferson County</title></path><path id="county-54073" class="county feature" d="M722.2366801098975,270.8731348787609L719.2013231155911,272.92894226533735L717.1290974004278,271.84367828267204L720.3141648920798,269.1323309819559L721.6547043868978,268.81342476464295Z" style="fill: inherit; stroke: inherit; stroke-width: inherit;" vector-effect="non-scaling-stroke"><title>Pleasants County</title></path><path id="county-54033" class="county feature" d="M733.5517983492289,268.21830990464923L734.4533139331515,270.9492972659008L733.9998080506206,273.502300315178L732.9956968752049,273.8384870024295L728.6099033605822,273.3554905422237L729.470107861408,272.3996741784234L728.1262360500307,271.06617177259545L728.5416130988142,268.3609482817932L729.1261316981004,267.4911307285871Z" style="fill: inherit; stroke: inherit; stroke-width: inherit;" vector-effect="non-scaling-stroke"><title>Harrison County</title></path><path id="county-54091" class="county feature" d="M738.0990698068982,269.23697383729757L736.468369457726,270.49899487715993L734.4533139331515,270.9492972659008L733.5517983492289,268.21830990464923L735.9490403181187,267.6535616872012L737.0011898942291,266.49871130112035L737.6764458141056,266.7059122965102Z" style="fill: inherit; stroke: inherit; stroke-width: inherit;" vector-effect="non-scaling-stroke"><title>Taylor County</title></path><path id="county-54017" class="county feature" d="M728.5416130988142,268.3609482817932L728.1262360500307,271.06617177259545L729.470107861408,272.3996741784234L728.6099033605822,273.3554905422237L726.9555874559228,274.98848051534287L725.7140676291698,274.9275326126626L723.7975092252209,272.1130938869892L724.088960573833,271.65820527475114L727.42927192141,268.13666442264196Z" style="fill: inherit; stroke: inherit; stroke-width: inherit;" vector-effect="non-scaling-stroke"><title>Doddridge County</title></path><path id="county-54107" class="county feature" d="M717.1290974004278,271.84367828267204L719.2013231155911,272.92894226533735L718.6193428675789,274.6014666154432L716.9496220873749,275.82612190226075L715.0551366630324,278.18923121732917L712.485008886649,277.2317190998716L712.1279142489519,275.6950042733149L712.4703205666946,274.9651998650886L712.9778626553461,273.8189136945465L714.4841539084622,273.70613423874545L714.5420542566786,272.2168908652163L715.9467120173315,270.74783403830065Z" style="fill: inherit; stroke: inherit; stroke-width: inherit;" vector-effect="non-scaling-stroke"><title>Wood County</title></path><path id="county-54085" class="county feature" d="M724.088960573833,271.65820527475114L723.7975092252209,272.1130938869892L725.7140676291698,274.9275326126626L722.8807172050787,277.2864825225847L720.9898914115466,277.18448118260903L719.7451960178724,277.30291870014173L718.6193428675789,274.6014666154432L719.2013231155911,272.92894226533735L722.2366801098975,270.8731348787609L723.1243496046716,270.05070190514334Z" style="fill: inherit; stroke: inherit; stroke-width: inherit;" vector-effect="non-scaling-stroke"><title>Ritchie County</title></path><path id="county-54023" class="county feature" d="M751.2154937734196,268.1124137762722L750.33243751287,272.0928145304804L751.3189270308593,274.0186645581549L750.4514960485659,276.3789630579273L746.9171139363744,274.24740743465316L746.7821644986502,274.1365470566559L747.2566551758252,271.9664830944839L746.4169928025962,271.8653700554163L746.9525673420626,269.75344049233456L744.2011589250803,270.18062704682416L744.1650941860438,269.97514503990465L746.8026657802989,267.1767495552159L748.7851986216363,267.11689142034754Z" style="fill: inherit; stroke: inherit; stroke-width: inherit;" vector-effect="non-scaling-stroke"><title>Grant County</title></path><path id="county-54001" class="county feature" d="M739.5298212566975,270.3108368081563L739.6780748812697,272.4792793568422L739.1308311910383,275.29823144932243L736.5317151590732,276.24158437300036L736.646232349106,274.5057549416895L733.9998080506206,273.502300315178L734.4533139331515,270.9492972659008L736.468369457726,270.49899487715993L738.0990698068982,269.23697383729757Z" style="fill: inherit; stroke: inherit; stroke-width: inherit;" vector-effect="non-scaling-stroke"><title>Barbour County</title></path><path id="county-54093" class="county feature" d="M746.7821644986502,274.1365470566559L744.6071360930264,274.3149069345503L740.4877046609905,273.8413873145904L739.6780748812697,272.4792793568422L739.5298212566975,270.3108368081563L741.1316074128334,269.25318823886255L744.2011589250803,270.18062704682416L746.9525673420626,269.75344049233456L746.4169928025962,271.8653700554163L747.2566551758252,271.9664830944839Z" style="fill: inherit; stroke: inherit; stroke-width: inherit;" vector-effect="non-scaling-stroke"><title>Tucker County</title></path><path id="county-54031" class="county feature" d="M758.3761105496103,269.6562120820968L757.9795429627686,270.34288976559117L756.050404906114,273.6203996079712L755.1327988830167,274.11623747544536L754.3787173498206,276.6365277632366L752.3192235213684,275.3417233844764L751.71322512083,277.13906763207103L750.4514960485659,276.3789630579273L751.3189270308593,274.0186645581549L750.33243751287,272.0928145304804L751.2154937734196,268.1124137762722L752.4735979656318,268.62107826383874Z" style="fill: inherit; stroke: inherit; stroke-width: inherit;" vector-effect="non-scaling-stroke"><title>Hardy County</title></path><path id="county-54105" class="county feature" d="M720.9898914115466,277.18448118260903L719.6857329349364,279.5961628957307L716.4826031385248,280.0412069931482L715.0551366630324,278.18923121732917L716.9496220873749,275.82612190226075L718.6193428675789,274.6014666154432L719.7451960178724,277.30291870014173Z" style="fill: inherit; stroke: inherit; stroke-width: inherit;" vector-effect="non-scaling-stroke"><title>Wirt County</title></path><path id="county-54041" class="county feature" d="M732.9956968752049,273.8384870024295L733.1965161674875,276.5813786780368L732.4722194787089,278.3044217727884L732.8405490193122,281.06470269890974L731.8890234524256,280.99207640523923L730.615177327017,278.89219402997605L729.2722318327422,278.27064475557904L727.3820172103975,276.58763884748817L726.9555874559228,274.98848051534287L728.6099033605822,273.3554905422237Z" style="fill: inherit; stroke: inherit; stroke-width: inherit;" vector-effect="non-scaling-stroke"><title>Lewis County</title></path><path id="county-54083" class="county feature" d="M746.7821644986502,274.1365470566559L746.9171139363744,274.24740743465316L745.5124399782137,275.02283457714486L744.6218980834566,276.88499805045626L745.2251911612334,277.93102547028775L743.9446515406632,280.38279130278215L741.5779359596161,279.3463276566266L740.9389789541224,283.06567359604185L738.8596265464932,285.1794564208602L737.5627727733994,285.11631969449934L735.9941049013694,287.01505305035187L736.4458890012713,284.33363061380373L734.5501640954343,281.39850389949856L736.577489907763,280.08477076484246L736.5317151590732,276.24158437300036L739.1308311910383,275.29823144932243L739.6780748812697,272.4792793568422L740.4877046609905,273.8413873145904L744.6071360930264,274.3149069345503Z" style="fill: inherit; stroke: inherit; stroke-width: inherit;" vector-effect="non-scaling-stroke"><title>Randolph County</title></path><path id="county-54097" class="county feature" d="M733.9998080506206,273.502300315178L736.646232349106,274.5057549416895L736.5317151590732,276.24158437300036L736.577489907763,280.08477076484246L734.5501640954343,281.39850389949856L732.8405490193122,281.06470269890974L732.4722194787089,278.3044217727884L733.1965161674875,276.5813786780368L732.9956968752049,273.8384870024295Z" style="fill: inherit; stroke: inherit; stroke-width: inherit;" vector-effect="non-scaling-stroke"><title>Upshur County</title></path><path id="county-54021" class="county feature" d="M726.9555874559228,274.98848051534287L727.3820172103975,276.58763884748817L729.2722318327422,278.27064475557904L727.9821525964823,278.96411312690225L724.4390166978326,282.6085565839661L723.1950339230011,281.3776084768343L723.803180653759,280.26058786421004L722.8807172050787,277.2864825225847L725.7140676291698,274.9275326126626Z" style="fill: inherit; stroke: inherit; stroke-width: inherit;" vector-effect="non-scaling-stroke"><title>Gilmer County</title></path><path id="county-54035" class="county feature" d="M715.0551366630324,278.18923121732917L716.4826031385248,280.0412069931482L716.5604889060302,284.7091945838805L717.0794472295279,285.76706792024095L715.6655740314279,287.0940529866316L714.5485491355112,285.89092859577204L713.3033333830183,285.04150478111L710.8158829187121,281.6477747144129L712.4715691857368,280.5308668778896L712.485008886649,277.2317190998716Z" style="fill: inherit; stroke: inherit; stroke-width: inherit;" vector-effect="non-scaling-stroke"><title>Jackson County</title></path><path id="county-54013" class="county feature" d="M722.8807172050787,277.2864825225847L723.803180653759,280.26058786421004L723.1950339230011,281.3776084768343L724.4390166978326,282.6085565839661L723.9169885908789,283.6474742863486L723.3393655002285,284.80561850750564L722.1730753538952,284.3682821312667L721.7756745049367,282.80972548884756L719.6857329349364,279.5961628957307L720.9898914115466,277.18448118260903Z" style="fill: inherit; stroke: inherit; stroke-width: inherit;" vector-effect="non-scaling-stroke"><title>Calhoun County</title></path><path id="county-54053" class="county feature" d="M710.8158829187121,281.6477747144129L713.3033333830183,285.04150478111L710.7600810916504,285.871179432395L709.3425275011588,287.0234219713269L709.8436488650507,289.4917851371872L707.2314918319641,287.64470860162066L707.7712434467576,287.3200666701499L706.6342469108445,283.9854104563366L707.5737573940979,282.90402646847485L707.8769341876225,280.491542156744L709.0673514436413,279.0531946280272L710.7553929751388,280.543640106677Z" style="fill: inherit; stroke: inherit; stroke-width: inherit;" vector-effect="non-scaling-stroke"><title>Mason County</title></path><path id="county-54071" class="county feature" d="M750.4514960485659,276.3789630579273L751.71322512083,277.13906763207103L750.279579125715,282.8387572411658L749.1964003651077,284.2896904659706L746.7495801337204,283.85854786607376L745.5985035932113,282.2863750520295L743.8800686371923,281.7973893793949L743.9446515406632,280.38279130278215L745.2251911612334,277.93102547028775L744.6218980834566,276.88499805045626L745.5124399782137,275.02283457714486L746.9171139363744,274.24740743465316Z" style="fill: inherit; stroke: inherit; stroke-width: inherit;" vector-effect="non-scaling-stroke"><title>Pendleton County</title></path><path id="county-54087" class="county feature" d="M719.6857329349364,279.5961628957307L721.7756745049367,282.80972548884756L722.1730753538952,284.3682821312667L723.3393655002285,284.80561850750564L722.0131173401148,286.62462750401676L718.0749673485107,286.81195988824413L717.0794472295279,285.76706792024095L716.5604889060302,284.7091945838805L716.4826031385248,280.0412069931482Z" style="fill: inherit; stroke: inherit; stroke-width: inherit;" vector-effect="non-scaling-stroke"><title>Roane County</title></path><path id="county-54007" class="county feature" d="M729.2722318327422,278.27064475557904L730.615177327017,278.89219402997605L731.8890234524256,280.99207640523923L731.4450799522415,282.8555041702605L729.7797056969653,285.40157501919487L727.7594513667859,285.1391967038677L726.5470438199859,286.2987355773845L723.9169885908789,283.6474742863486L724.4390166978326,282.6085565839661L727.9821525964823,278.96411312690225Z" style="fill: inherit; stroke: inherit; stroke-width: inherit;" vector-effect="non-scaling-stroke"><title>Braxton County</title></path><path id="county-54075" class="county feature" d="M743.9446515406632,280.38279130278215L743.8800686371923,281.7973893793949L743.7958674056206,284.86640488499245L742.4795654479765,287.4589818883095L742.8232328476197,288.19642696702135L741.2926710515459,290.0694084653171L741.0928418139513,292.34472509585896L736.7795794430718,293.4207805087433L735.1573902584859,292.3949751509473L734.8592599151833,290.3127475376415L734.6031906231586,288.07157999675053L735.9941049013694,287.01505305035187L737.5627727733994,285.11631969449934L738.8596265464932,285.1794564208602L740.9389789541224,283.06567359604185L741.5779359596161,279.3463276566266Z" style="fill: inherit; stroke: inherit; stroke-width: inherit;" vector-effect="non-scaling-stroke"><title>Pocahontas County</title></path><path id="county-54101" class="county feature" d="M732.8405490193122,281.06470269890974L734.5501640954343,281.39850389949856L736.4458890012713,284.33363061380373L735.9941049013694,287.01505305035187L734.6031906231586,288.07157999675053L734.8592599151833,290.3127475376415L733.6361801818033,289.72370566374843L730.8798034661554,288.43145371401476L729.7797056969653,285.40157501919487L731.4450799522415,282.8555041702605L731.8890234524256,280.99207640523923Z" style="fill: inherit; stroke: inherit; stroke-width: inherit;" vector-effect="non-scaling-stroke"><title>Webster County</title></path><path id="county-54079" class="county feature" d="M712.2633011914685,291.9731294221925L711.3174086327253,293.1903100817806L710.2330920896436,291.34389124268614L709.8436488650507,289.4917851371872L709.3425275011588,287.0234219713269L710.7600810916504,285.871179432395L713.3033333830183,285.04150478111L714.5485491355112,285.89092859577204L713.8786623574535,286.6643564443226L714.5789741887511,288.9341532731785L712.2800825677077,290.57054894201656Z" style="fill: inherit; stroke: inherit; stroke-width: inherit;" vector-effect="non-scaling-stroke"><title>Putnam County</title></path><path id="county-54015" class="county feature" d="M726.5470438199859,286.2987355773845L727.5405285200793,286.6848112144762L726.3910021586398,288.0841336439896L722.249775434407,291.6249812266103L720.8923278847835,287.86229630572245L722.0131173401148,286.62462750401676L723.3393655002285,284.80561850750564L723.9169885908789,283.6474742863486Z" style="fill: inherit; stroke: inherit; stroke-width: inherit;" vector-effect="non-scaling-stroke"><title>Clay County</title></path><path id="county-54039" class="county feature" d="M717.0794472295279,285.76706792024095L718.0749673485107,286.81195988824413L722.0131173401148,286.62462750401676L720.8923278847835,287.86229630572245L722.249775434407,291.6249812266103L722.2455670253414,291.6317924047131L721.0799277841485,293.36086583105305L720.9586457423763,297.4484318427452L719.8101362899721,297.2795719544365L718.5989918888616,295.07998418680677L716.4544192741218,293.3460917021657L713.7622820149351,293.96006199282226L713.7017930195486,291.94403237304846L712.2633011914685,291.9731294221925L712.2800825677077,290.57054894201656L714.5789741887511,288.9341532731785L713.8786623574535,286.6643564443226L714.5485491355112,285.89092859577204L715.6655740314279,287.0940529866316Z" style="fill: inherit; stroke: inherit; stroke-width: inherit;" vector-effect="non-scaling-stroke"><title>Kanawha County</title></path><path id="county-54011" class="county feature" d="M707.2314918319641,287.64470860162066L709.8436488650507,289.4917851371872L710.2330920896436,291.34389124268614L708.458734787135,292.2643930634325L707.5070781004096,294.51011964553504L703.562504725625,291.60347231880417L706.0955351709224,290.5143221304678L706.2238247818103,287.96244490545905Z" style="fill: inherit; stroke: inherit; stroke-width: inherit;" vector-effect="non-scaling-stroke"><title>Cabell County</title></path><path id="county-54067" class="county feature" d="M729.7797056969653,285.40157501919487L730.8798034661554,288.43145371401476L733.6361801818033,289.72370566374843L730.254633671165,293.87312160464023L727.7422549875743,293.81467966143055L725.9468331168433,291.8079553012385L724.716019155739,292.5706638435729L722.2455670253414,291.6317924047131L722.249775434407,291.6249812266103L726.3910021586398,288.0841336439896L727.5405285200793,286.6848112144762L726.5470438199859,286.2987355773845L727.7594513667859,285.1391967038677Z" style="fill: inherit; stroke: inherit; stroke-width: inherit;" vector-effect="non-scaling-stroke"><title>Nicholas County</title></path><path id="county-54099" class="county feature" d="M703.562504725625,291.60347231880417L707.5070781004096,294.51011964553504L707.4316159176545,296.1302380342735L709.0461678159588,297.7538479427784L707.6816950288795,299.92630186089605L706.3462617968148,301.81828856854327L704.9103865735328,300.29277336689097L703.834422280186,298.08469924732833L702.4276467040734,296.98304288886493L702.576159305011,294.87078636144895L702.2332514474759,291.6025292816529Z" style="fill: inherit; stroke: inherit; stroke-width: inherit;" vector-effect="non-scaling-stroke"><title>Wayne County</title></path><path id="county-54043" class="county feature" d="M710.2330920896436,291.34389124268614L711.3174086327253,293.1903100817806L712.2633011914685,291.9731294221925L713.7017930195486,291.94403237304846L713.7622820149351,293.96006199282226L712.5645219529886,295.22810721086285L712.8510110028013,297.6096243237837L709.2647068803262,299.1029371059718L707.6816950288795,299.92630186089605L709.0461678159588,297.7538479427784L707.4316159176545,296.1302380342735L707.5070781004096,294.51011964553504L708.458734787135,292.2643930634325Z" style="fill: inherit; stroke: inherit; stroke-width: inherit;" vector-effect="non-scaling-stroke"><title>Lincoln County</title></path><path id="county-54025" class="county feature" d="M741.0928418139513,292.34472509585896L740.0729034182302,294.6787954227781L738.7855042842898,296.36512335150223L737.4268282227339,300.09914041020284L735.2224472935914,300.61273870762045L732.008883839224,300.22698529265335L729.5290628727108,298.00580116550145L729.7062834735118,295.75260823720237L727.7422549875743,293.81467966143055L730.254633671165,293.87312160464023L733.6361801818033,289.72370566374843L734.8592599151833,290.3127475376415L735.1573902584859,292.3949751509473L736.7795794430718,293.4207805087433Z" style="fill: inherit; stroke: inherit; stroke-width: inherit;" vector-effect="non-scaling-stroke"><title>Greenbrier County</title></path><path id="county-54019" class="county feature" d="M722.2455670253414,291.6317924047131L724.716019155739,292.5706638435729L725.9468331168433,291.8079553012385L727.7422549875743,293.81467966143055L729.7062834735118,295.75260823720237L729.5290628727108,298.00580116550145L727.6801318473747,299.2535864303476L725.6641354443656,298.491075449303L722.4212276854198,298.74438125190443L720.9586457423763,297.4484318427452L721.0799277841485,293.36086583105305Z" style="fill: inherit; stroke: inherit; stroke-width: inherit;" vector-effect="non-scaling-stroke"><title>Fayette County</title></path><path id="county-54005" class="county feature" d="M719.8101362899721,297.2795719544365L718.3340180431995,298.63161971149214L719.5441929646988,301.0614342092267L718.2032636758574,301.31489902639134L716.6131551009811,301.149869059935L715.4200818732505,299.1818327765234L712.2622815247584,298.34349181681614L712.8510110028013,297.6096243237837L712.5645219529886,295.22810721086285L713.7622820149351,293.96006199282226L716.4544192741218,293.3460917021657L718.5989918888616,295.07998418680677Z" style="fill: inherit; stroke: inherit; stroke-width: inherit;" vector-effect="non-scaling-stroke"><title>Boone County</title></path><path id="county-54045" class="county feature" d="M712.8510110028013,297.6096243237837L712.2622815247584,298.34349181681614L715.4200818732505,299.1818327765234L716.6131551009811,301.149869059935L718.2032636758574,301.31489902639134L716.0341638418724,302.338732740335L717.0913922312398,303.1500540311264L715.741550449218,304.1325317486244L713.8777502559446,303.9969489005754L713.037110420684,304.91676164341857L711.5748082566256,303.9719161176737L710.7246904304304,301.1892426504231L709.2647068803262,299.1029371059718Z" style="fill: inherit; stroke: inherit; stroke-width: inherit;" vector-effect="non-scaling-stroke"><title>Logan County</title></path><path id="county-54081" class="county feature" d="M719.8101362899721,297.2795719544365L720.9586457423763,297.4484318427452L722.4212276854198,298.74438125190443L725.6641354443656,298.491075449303L727.6801318473747,299.2535864303476L729.0433102736959,301.56002764601317L727.9574144515527,301.1891313101106L726.2052701574196,303.8923085599298L724.7272184599734,304.38053936365213L724.5834628550101,305.6376129411942L722.8626454796831,304.2024608974068L720.2788739875308,301.041652222214L719.5441929646988,301.0614342092267L718.3340180431995,298.63161971149214Z" style="fill: inherit; stroke: inherit; stroke-width: inherit;" vector-effect="non-scaling-stroke"><title>Raleigh County</title></path><path id="county-54059" class="county feature" d="M715.741550449218,304.1325317486244L715.2845735719532,306.32973843621414L714.3498305821043,307.16189790172325L713.685803205415,306.7774067811173L711.3750332307319,306.8733587697445L707.8295933095917,303.7606437532329L706.3462617968148,301.81828856854327L707.6816950288795,299.92630186089605L709.2647068803262,299.1029371059718L710.7246904304304,301.1892426504231L711.5748082566256,303.9719161176737L713.037110420684,304.91676164341857L713.8777502559446,303.9969489005754Z" style="fill: inherit; stroke: inherit; stroke-width: inherit;" vector-effect="non-scaling-stroke"><title>Mingo County</title></path><path id="county-54089" class="county feature" d="M730.0974549649302,306.332704646528L730.0734231166344,306.3160470512389L726.2052701574196,303.8923085599298L727.9574144515527,301.1891313101106L729.0433102736959,301.56002764601317L727.6801318473747,299.2535864303476L729.5290628727108,298.00580116550145L732.008883839224,300.22698529265335Z" style="fill: inherit; stroke: inherit; stroke-width: inherit;" vector-effect="non-scaling-stroke"><title>Summers County</title></path><path id="county-54109" class="county feature" d="M724.5834628550101,305.6376129411942L723.5427772038358,307.4406372971872L719.0945726675423,306.77168087257587L715.7734678396503,306.92728762908257L715.2845735719532,306.32973843621414L715.741550449218,304.1325317486244L717.0913922312398,303.1500540311264L716.0341638418724,302.338732740335L718.2032636758574,301.31489902639134L719.5441929646988,301.0614342092267L720.2788739875308,301.041652222214L722.8626454796831,304.2024608974068Z" style="fill: inherit; stroke: inherit; stroke-width: inherit;" vector-effect="non-scaling-stroke"><title>Wyoming County</title></path><path id="county-54063" class="county feature" d="M737.4268282227339,300.09914041020284L738.7141470382845,301.10714787227596L737.3549164149601,302.546990318515L737.9438602283415,303.51997112151616L735.6601791366205,305.53005032846147L734.9605484473906,304.5241917976796L731.5462533534342,307.1693564658656L730.0974549649302,306.332704646528L732.008883839224,300.22698529265335L735.2224472935914,300.61273870762045Z" style="fill: inherit; stroke: inherit; stroke-width: inherit;" vector-effect="non-scaling-stroke"><title>Monroe County</title></path><path id="county-54055" class="county feature" d="M726.2052701574196,303.8923085599298L730.0734231166344,306.3160470512389L730.4714826299497,307.82893864816265L728.7121912401774,309.1291686882506L725.3416609755004,310.78165170280147L723.0493131568859,309.1760138651513L723.5427772038358,307.4406372971872L724.5834628550101,305.6376129411942L724.7272184599734,304.38053936365213Z" style="fill: inherit; stroke: inherit; stroke-width: inherit;" vector-effect="non-scaling-stroke"><title>Mercer County</title></path><path id="county-54047" class="county feature" d="M723.5427772038358,307.4406372971872L723.0493131568859,309.1760138651513L720.5285266071813,312.0663788939655L717.8376861036801,311.88149822983337L716.0465814719445,311.19853912673534L713.501957789923,307.832901251964L714.3498305821043,307.16189790172325L715.2845735719532,306.32973843621414L715.7734678396503,306.92728762908257L719.0945726675423,306.77168087257587Z" style="fill: inherit; stroke: inherit; stroke-width: inherit;" vector-effect="non-scaling-stroke"><title>McDowell County</title></path></g><path id="counties-mesh" class="counties mesh" d="M723.3045335897009,247.1947192087282L725.2000132677055,245.8133302119669L725.6924466672777,248.80979478730148L725.9473482218805,250.26726844499126L724.4148445293049,250.58384846162915L724.6608319781311,249.2660255863292L723.3045335897009,247.1947192087282M727.1058643014587,257.37909231984895L724.0421709386551,257.55388191104817L724.1053453082894,255.1819835555316L724.3102396607235,254.60725301554817L725.0511287635991,251.90429135360841L724.4148445293049,250.58384846162915M726.662895456876,254.71499013500284L724.3102396607235,254.60725301554817M725.9473482218805,250.26726844499126L726.662895456876,254.71499013500284L727.1058643014587,257.37909231984895L727.2658251657297,258.3838263990872L727.9972732600256,262.86619824844445L723.5936623621709,263.6008648997803L723.3557962355409,261.1923661805938L724.1389459596853,259.839452121716L724.0421709386551,257.55388191104817M719.2013231155911,272.92894226533735L718.6193428675789,274.6014666154432L716.9496220873749,275.82612190226075L715.0551366630324,278.18923121732917L712.485008886649,277.2317190998716L712.1279142489519,275.6950042733149L712.4703205666946,274.9651998650886L712.9778626553461,273.8189136945465L714.4841539084622,273.70613423874545L714.5420542566786,272.2168908652163L715.9467120173315,270.74783403830065L717.1290974004278,271.84367828267204L720.3141648920798,269.1323309819559L721.2370619080218,267.42486739285584L722.373464863054,265.96841382872606L723.5936623621709,263.6008648997803M738.607741924495,261.09354748565625L737.6764458141056,266.7059122965102L737.0011898942291,266.49871130112035L733.4841822613951,264.0752558967923L729.9950178100555,264.142556022328L729.3792197792242,262.6445196231333M744.1650941860438,269.97514503990465L744.2011589250803,270.18062704682416L741.1316074128334,269.25318823886255L739.5298212566975,270.3108368081563L738.0990698068982,269.23697383729757L737.6764458141056,266.7059122965102M729.9950178100555,264.142556022328L728.7837339880933,265.75777017073244L729.1261316981004,267.4911307285871L728.5416130988142,268.3609482817932L727.42927192141,268.13666442264196L725.9059805016263,267.8079535639854L723.6808505064208,265.84915220846756L722.373464863054,265.96841382872606M763.3498600502338,258.52918518412696L761.8076576988856,259.31823766971263L761.2557842754375,263.3105512787961L759.3313945074378,262.2389639818764L757.4580442168563,261.61722265066714M754.7455703653478,261.7662588606181L752.7205402017953,266.0469349374332L751.2154937734196,268.1124137762722L748.7851986216363,267.11689142034754L746.8026657802989,267.1767495552159M737.0011898942291,266.49871130112035L735.9490403181187,267.6535616872012L733.5517983492289,268.21830990464923L729.1261316981004,267.4911307285871M766.5547404673146,260.3354228822052L765.0216806382643,263.0576352009848L764.4519054566284,265.13319924672885L761.2557842754375,263.3105512787961M727.42927192141,268.13666442264196L724.088960573833,271.65820527475114L723.1243496046716,270.05070190514334L722.2366801098975,270.8731348787609L721.6547043868978,268.81342476464295L720.3141648920798,269.1323309819559M727.9972732600256,262.86619824844445L729.3792197792242,262.6445196231333L736.463081546718,261.46175323169825L738.607741924495,261.09354748565625L742.632609726813,260.38677648611747L744.1650941860438,269.97514503990465L746.8026657802989,267.1767495552159L749.1659230519115,263.83943640582527L750.7320776132667,264.34786782141657L752.5506637499578,260.75403851959334L754.7455703653478,261.7662588606181L757.4580442168563,261.61722265066714L757.5812007650939,259.6000020987069L758.9214228675049,259.0324462441845L759.9378050040613,259.1232553753333L760.8679193474529,257.52205944942784L763.3498600502338,258.52918518412696L765.9742109909514,258.2788204467356L765.5077477378611,259.42600094240186L766.5547404673146,260.3354228822052L768.6765269258437,263.241942255995L767.8080869865792,267.0264315107139L764.4519054566284,265.13319924672885M722.2366801098975,270.8731348787609L719.2013231155911,272.92894226533735L717.1290974004278,271.84367828267204M733.5517983492289,268.21830990464923L734.4533139331515,270.9492972659008L733.9998080506206,273.502300315178L732.9956968752049,273.8384870024295L728.6099033605822,273.3554905422237L729.470107861408,272.3996741784234L728.1262360500307,271.06617177259545L728.5416130988142,268.3609482817932M738.0990698068982,269.23697383729757L736.468369457726,270.49899487715993L734.4533139331515,270.9492972659008M728.6099033605822,273.3554905422237L726.9555874559228,274.98848051534287L725.7140676291698,274.9275326126626L723.7975092252209,272.1130938869892L724.088960573833,271.65820527475114M725.7140676291698,274.9275326126626L722.8807172050787,277.2864825225847L720.9898914115466,277.18448118260903L719.7451960178724,277.30291870014173L718.6193428675789,274.6014666154432M759.3313945074378,262.2389639818764L759.8237068761632,264.3030035500825L759.0482430785705,266.29996916916343L759.5764964537816,267.91965345321466L758.3761105496103,269.6562120820968L752.4735979656318,268.62107826383874L751.2154937734196,268.1124137762722L750.33243751287,272.0928145304804L751.3189270308593,274.0186645581549L750.4514960485659,276.3789630579273L746.9171139363744,274.24740743465316L746.7821644986502,274.1365470566559L747.2566551758252,271.9664830944839L746.4169928025962,271.8653700554163L746.9525673420626,269.75344049233456L744.2011589250803,270.18062704682416M739.5298212566975,270.3108368081563L739.6780748812697,272.4792793568422L739.1308311910383,275.29823144932243L736.5317151590732,276.24158437300036L736.646232349106,274.5057549416895L733.9998080506206,273.502300315178M746.7821644986502,274.1365470566559L744.6071360930264,274.3149069345503L740.4877046609905,273.8413873145904L739.6780748812697,272.4792793568422M758.3761105496103,269.6562120820968L757.9795429627686,270.34288976559117L756.050404906114,273.6203996079712L755.1327988830167,274.11623747544536L754.3787173498206,276.6365277632366L752.3192235213684,275.3417233844764L751.71322512083,277.13906763207103L750.4514960485659,276.3789630579273M707.5070781004096,294.51011964553504L707.4316159176545,296.1302380342735L709.0461678159588,297.7538479427784L707.6816950288795,299.92630186089605L706.3462617968148,301.81828856854327L704.9103865735328,300.29277336689097L703.834422280186,298.08469924732833L702.4276467040734,296.98304288886493L702.576159305011,294.87078636144895L702.2332514474759,291.6025292816529L703.562504725625,291.60347231880417L706.0955351709224,290.5143221304678L706.2238247818103,287.96244490545905L707.2314918319641,287.64470860162066L707.7712434467576,287.3200666701499L706.6342469108445,283.9854104563366L707.5737573940979,282.90402646847485L707.8769341876225,280.491542156744L709.0673514436413,279.0531946280272L710.7553929751388,280.543640106677L710.8158829187121,281.6477747144129L712.4715691857368,280.5308668778896L712.485008886649,277.2317190998716M720.9898914115466,277.18448118260903L719.6857329349364,279.5961628957307L716.4826031385248,280.0412069931482L715.0551366630324,278.18923121732917M732.9956968752049,273.8384870024295L733.1965161674875,276.5813786780368L732.4722194787089,278.3044217727884L732.8405490193122,281.06470269890974L731.8890234524256,280.99207640523923L730.615177327017,278.89219402997605L729.2722318327422,278.27064475557904L727.3820172103975,276.58763884748817L726.9555874559228,274.98848051534287M746.9171139363744,274.24740743465316L745.5124399782137,275.02283457714486L744.6218980834566,276.88499805045626L745.2251911612334,277.93102547028775L743.9446515406632,280.38279130278215L741.5779359596161,279.3463276566266L740.9389789541224,283.06567359604185L738.8596265464932,285.1794564208602L737.5627727733994,285.11631969449934L735.9941049013694,287.01505305035187L736.4458890012713,284.33363061380373L734.5501640954343,281.39850389949856L736.577489907763,280.08477076484246L736.5317151590732,276.24158437300036M734.5501640954343,281.39850389949856L732.8405490193122,281.06470269890974M729.2722318327422,278.27064475557904L727.9821525964823,278.96411312690225L724.4390166978326,282.6085565839661L723.1950339230011,281.3776084768343L723.803180653759,280.26058786421004L722.8807172050787,277.2864825225847M716.4826031385248,280.0412069931482L716.5604889060302,284.7091945838805L717.0794472295279,285.76706792024095L715.6655740314279,287.0940529866316L714.5485491355112,285.89092859577204L713.3033333830183,285.04150478111L710.8158829187121,281.6477747144129M724.4390166978326,282.6085565839661L723.9169885908789,283.6474742863486L723.3393655002285,284.80561850750564L722.1730753538952,284.3682821312667L721.7756745049367,282.80972548884756L719.6857329349364,279.5961628957307M713.3033333830183,285.04150478111L710.7600810916504,285.871179432395L709.3425275011588,287.0234219713269L709.8436488650507,289.4917851371872L707.2314918319641,287.64470860162066M751.71322512083,277.13906763207103L750.279579125715,282.8387572411658L749.1964003651077,284.2896904659706L746.7495801337204,283.85854786607376L745.5985035932113,282.2863750520295L743.8800686371923,281.7973893793949L743.9446515406632,280.38279130278215M723.3393655002285,284.80561850750564L722.0131173401148,286.62462750401676L718.0749673485107,286.81195988824413L717.0794472295279,285.76706792024095M731.8890234524256,280.99207640523923L731.4450799522415,282.8555041702605L729.7797056969653,285.40157501919487L727.7594513667859,285.1391967038677L726.5470438199859,286.2987355773845L723.9169885908789,283.6474742863486M743.8800686371923,281.7973893793949L743.7958674056206,284.86640488499245L742.4795654479765,287.4589818883095L742.8232328476197,288.19642696702135L741.2926710515459,290.0694084653171L741.0928418139513,292.34472509585896L736.7795794430718,293.4207805087433L735.1573902584859,292.3949751509473L734.8592599151833,290.3127475376415L734.6031906231586,288.07157999675053L735.9941049013694,287.01505305035187M734.8592599151833,290.3127475376415L733.6361801818033,289.72370566374843L730.8798034661554,288.43145371401476L729.7797056969653,285.40157501919487M714.5485491355112,285.89092859577204L713.8786623574535,286.6643564443226L714.5789741887511,288.9341532731785L712.2800825677077,290.57054894201656L712.2633011914685,291.9731294221925L711.3174086327253,293.1903100817806L710.2330920896436,291.34389124268614L709.8436488650507,289.4917851371872M726.5470438199859,286.2987355773845L727.5405285200793,286.6848112144762L726.3910021586398,288.0841336439896L722.249775434407,291.6249812266103L720.8923278847835,287.86229630572245L722.0131173401148,286.62462750401676M722.249775434407,291.6249812266103L722.2455670253414,291.6317924047131L721.0799277841485,293.36086583105305L720.9586457423763,297.4484318427452L719.8101362899721,297.2795719544365L718.5989918888616,295.07998418680677L716.4544192741218,293.3460917021657L713.7622820149351,293.96006199282226L713.7017930195486,291.94403237304846L712.2633011914685,291.9731294221925M710.2330920896436,291.34389124268614L708.458734787135,292.2643930634325L707.5070781004096,294.51011964553504L703.562504725625,291.60347231880417M733.6361801818033,289.72370566374843L730.254633671165,293.87312160464023L727.7422549875743,293.81467966143055L725.9468331168433,291.8079553012385L724.716019155739,292.5706638435729L722.2455670253414,291.6317924047131M713.7622820149351,293.96006199282226L712.5645219529886,295.22810721086285L712.8510110028013,297.6096243237837L709.2647068803262,299.1029371059718L707.6816950288795,299.92630186089605M741.0928418139513,292.34472509585896L740.0729034182302,294.6787954227781L738.7855042842898,296.36512335150223L737.4268282227339,300.09914041020284L735.2224472935914,300.61273870762045L732.008883839224,300.22698529265335L729.5290628727108,298.00580116550145L729.7062834735118,295.75260823720237L727.7422549875743,293.81467966143055M729.5290628727108,298.00580116550145L727.6801318473747,299.2535864303476L725.6641354443656,298.491075449303L722.4212276854198,298.74438125190443L720.9586457423763,297.4484318427452M719.8101362899721,297.2795719544365L718.3340180431995,298.63161971149214L719.5441929646988,301.0614342092267L718.2032636758574,301.31489902639134L716.6131551009811,301.149869059935L715.4200818732505,299.1818327765234L712.2622815247584,298.34349181681614L712.8510110028013,297.6096243237837M718.2032636758574,301.31489902639134L716.0341638418724,302.338732740335L717.0913922312398,303.1500540311264L715.741550449218,304.1325317486244L713.8777502559446,303.9969489005754L713.037110420684,304.91676164341857L711.5748082566256,303.9719161176737L710.7246904304304,301.1892426504231L709.2647068803262,299.1029371059718M727.6801318473747,299.2535864303476L729.0433102736959,301.56002764601317L727.9574144515527,301.1891313101106L726.2052701574196,303.8923085599298L724.7272184599734,304.38053936365213L724.5834628550101,305.6376129411942L722.8626454796831,304.2024608974068L720.2788739875308,301.041652222214L719.5441929646988,301.0614342092267M715.741550449218,304.1325317486244L715.2845735719532,306.32973843621414L714.3498305821043,307.16189790172325L713.685803205415,306.7774067811173L711.3750332307319,306.8733587697445L707.8295933095917,303.7606437532329L706.3462617968148,301.81828856854327M732.008883839224,300.22698529265335L730.0974549649302,306.332704646528L730.0734231166344,306.3160470512389L726.2052701574196,303.8923085599298M724.5834628550101,305.6376129411942L723.5427772038358,307.4406372971872L719.0945726675423,306.77168087257587L715.7734678396503,306.92728762908257L715.2845735719532,306.32973843621414M737.4268282227339,300.09914041020284L738.7141470382845,301.10714787227596L737.3549164149601,302.546990318515L737.9438602283415,303.51997112151616L735.6601791366205,305.53005032846147L734.9605484473906,304.5241917976796L731.5462533534342,307.1693564658656L730.0974549649302,306.332704646528M730.0734231166344,306.3160470512389L730.4714826299497,307.82893864816265L728.7121912401774,309.1291686882506L725.3416609755004,310.78165170280147L723.0493131568859,309.1760138651513L723.5427772038358,307.4406372971872M723.0493131568859,309.1760138651513L720.5285266071813,312.0663788939655L717.8376861036801,311.88149822983337L716.0465814719445,311.19853912673534L713.501957789923,307.832901251964L714.3498305821043,307.16189790172325" style="fill: inherit; stroke: inherit; stroke-width: inherit;" vector-effect="non-scaling-stroke"></path></svg>