<?xml version="1.0" standalone="yes"?>
<svg xmlns="http://www.w3.org/2000/svg" version="1.2" id="root" viewBox="293.03987690033733 159.72013524689163 115.64618785326645 98.33622731567733"><style>
@import url("../../css/svg.css");</style><rect id="bbox" class="bbox" x="293.03987690033733" y="159.72013524689163" width="115.64618785326645" height="98.33622731567733"></rect><g id="counties"><path id="county-56029" class="county feature" d="M342.70349440392346,170.5430688080379L342.76516233914856,172.98272420696492L341.8941256463886,179.48257439666827L342.1443161896291,179.517921473363L341.26904414146657,186.0591740621486L341.5778222566484,186.1002254584772L341.35333821225913,187.75388033327454L338.15312623782125,187.32060462508844L337.93022696666395,188.96666138617366L336.29206307289866,188.7467955142415L336.1164306251113,190.35084572781L333.7183328454082,190.02679792191725L333.50528604977933,191.6687449809823L330.56353059423765,191.3133906678355L329.15155149929024,188.89295573207414L327.9101494002575,188.13169662615837L326.48896475884317,188.6564628997089L325.9691824098831,190.03123572655272L324.2269621430854,190.631754977701L323.70405632506413,187.59339197300653L321.89406965881835,187.47690277772028L321.2661911058188,186.27509315872896L321.6102516738843,183.96517262927875L320.766552122088,180.830291450054L319.2372400050464,177.9921976547597L319.72340179617095,176.3752389151556L318.62362372957074,174.98463593727297L314.7911638101645,174.39854312083514L315.0311677512516,172.8557469278752L309.9562597753676,172.05566967520497L311.09011438618825,165.88793193239917L315.48230315175124,166.75285043280735L327.32805093497177,168.3566816703766Z" style="fill: inherit; stroke: inherit; stroke-width: inherit;" vector-effect="non-scaling-stroke"><title>Park County</title></path><path id="county-56003" class="county feature" d="M351.9861529847625,171.72753712686483L352.533528340605,175.77782642313684L354.41473711892206,178.09603943689297L355.18138443716805,177.78428634451006L358.094211975196,180.80177684821717L358.7550986468378,182.70004459914014L360.06783388142463,183.25930606964948L360.53459339242056,185.53883306436353L360.168491359974,188.48265919010998L341.5778222566484,186.1002254584772L341.26904414146657,186.0591740621486L342.1443161896291,179.517921473363L341.8941256463886,179.48257439666827L342.76516233914856,172.98272420696492L342.70349440392346,170.5430688080379L347.56360749819794,171.1967924637445Z" style="fill: inherit; stroke: inherit; stroke-width: inherit;" vector-effect="non-scaling-stroke"><title>Big Horn County</title></path><path id="county-56005" class="county feature" d="M388.9747358505289,175.84694661151514L387.634938673708,191.21892963274342L386.41819606324464,203.8664316093599L373.8338765592124,202.6637299201543L376.0410204830927,182.7509129540739L376.6882715225785,174.7365276721465Z" style="fill: inherit; stroke: inherit; stroke-width: inherit;" vector-effect="non-scaling-stroke"><title>Campbell County</title></path><path id="county-56033" class="county feature" d="M373.55857284827596,174.39717696805656L376.6882715225785,174.7365276721465L376.0410204830927,182.7509129540739L370.49364095904025,182.28867267460305L358.094211975196,180.80177684821717L355.18138443716805,177.78428634451006L354.41473711892206,178.09603943689297L352.533528340605,175.77782642313684L351.9861529847625,171.72753712686483Z" style="fill: inherit; stroke: inherit; stroke-width: inherit;" vector-effect="non-scaling-stroke"><title>Sheridan County</title></path><path id="county-56011" class="county feature" d="M389.6389242958944,175.91249949176722L402.51826806809623,177.1304897210823L401.8664673020143,185.08145366452345L401.26633352600953,192.3711358210826L387.634938673708,191.21892963274342L388.9747358505289,175.84694661151514Z" style="fill: inherit; stroke: inherit; stroke-width: inherit;" vector-effect="non-scaling-stroke"><title>Crook County</title></path><path id="county-56039" class="county feature" d="M321.2661911058188,186.27509315872896L319.7893232459588,196.35467942577725L319.47206441763285,197.9583323731831L315.6419482791964,197.37871116240694L315.3970110744424,198.98932097785985L312.26496646290485,198.50089627295858L312.09856925437487,199.54539690565161L308.95417566728594,199.0562952186732L309.18925684837524,197.56028581943997L306.10696536178136,197.075164858947L306.6458986320248,193.63758020028854L308.04814566057416,184.7011241381732L309.46898684560904,175.62012859285926L309.9562597753676,172.05566967520497L315.0311677512516,172.8557469278752L314.7911638101645,174.39854312083514L318.62362372957074,174.98463593727297L319.72340179617095,176.3752389151556L319.2372400050464,177.9921976547597L320.766552122088,180.830291450054L321.6102516738843,183.96517262927875Z" style="fill: inherit; stroke: inherit; stroke-width: inherit;" vector-effect="non-scaling-stroke"><title>Teton County</title></path><path id="county-56019" class="county feature" d="M376.0410204830927,182.7509129540739L373.8338765592124,202.6637299201543L373.01472401353044,202.5859288416774L359.1719690261225,201.07701291269052L359.1893661740632,200.92887420737827L360.40658693856676,188.50967570139346L360.168491359974,188.48265919010998L360.53459339242056,185.53883306436353L360.06783388142463,183.25930606964948L358.7550986468378,182.70004459914014L358.094211975196,180.80177684821717L370.49364095904025,182.28867267460305Z" style="fill: inherit; stroke: inherit; stroke-width: inherit;" vector-effect="non-scaling-stroke"><title>Johnson County</title></path><path id="county-56045" class="county feature" d="M401.26633352600953,192.3711358210826L401.2038890199145,193.10621068944533L400.7381108603349,198.4754300649371L400.1916204028302,205.02228252639486L388.834105661068,204.07335513047303L386.41819606324464,203.8664316093599L387.634938673708,191.21892963274342Z" style="fill: inherit; stroke: inherit; stroke-width: inherit;" vector-effect="non-scaling-stroke"><title>Weston County</title></path><path id="county-56043" class="county feature" d="M360.168491359974,188.48265919010998L360.40658693856676,188.50967570139346L359.1893661740632,200.92887420737827L353.51670204409015,200.23057375776727L352.7096827553314,200.1318881546315L353.04077699827553,197.4314157746378L351.41928164265937,197.24374187987905L351.6262333644163,195.61267848867703L348.41517066800384,195.20968740310218L348.61574057298867,193.62380029708777L343.98668331468446,192.5026292039795L344.1288031315131,191.4487075477573L342.54055042260995,191.23880459195527L342.7810097231035,189.59473402988306L341.35333821225913,187.75388033327454L341.5778222566484,186.1002254584772Z" style="fill: inherit; stroke: inherit; stroke-width: inherit;" vector-effect="non-scaling-stroke"><title>Washakie County</title></path><path id="county-56017" class="county feature" d="M341.35333821225913,187.75388033327454L342.7810097231035,189.59473402988306L342.54055042260995,191.23880459195527L344.1288031315131,191.4487075477573L343.98668331468446,192.5026292039795L348.61574057298867,193.62380029708777L348.41517066800384,195.20968740310218L351.6262333644163,195.61267848867703L351.41928164265937,197.24374187987905L353.04077699827553,197.4314157746378L352.7096827553314,200.1318881546315L352.64333008921665,200.67307407374813L342.6703239822013,199.6474440864016L341.18752669998565,198.6316089138394L338.075036849462,197.66631942570018L336.6675762153417,196.09444376969145L331.94207117556164,195.16978103335998L332.14791168553126,193.69398216846412L330.56353059423765,191.3133906678355L333.50528604977933,191.6687449809823L333.7183328454082,190.02679792191725L336.1164306251113,190.35084572781L336.29206307289866,188.7467955142415L337.93022696666395,188.96666138617366L338.15312623782125,187.32060462508844Z" style="fill: inherit; stroke: inherit; stroke-width: inherit;" vector-effect="non-scaling-stroke"><title>Hot Springs County</title></path><path id="county-56013" class="county feature" d="M330.56353059423765,191.3133906678355L332.14791168553126,193.69398216846412L331.94207117556164,195.16978103335998L336.6675762153417,196.09444376969145L338.075036849462,197.66631942570018L341.18752669998565,198.6316089138394L342.6703239822013,199.6474440864016L352.64333008921665,200.67307407374813L352.7096827553314,200.1318881546315L353.51670204409015,200.23057375776727L353.68703812063825,200.79349742441445L352.33204922084576,213.70065781257085L351.7640597593318,213.63145971609526L350.9933275996755,220.1084121613958L351.2519145683236,220.13994353389785L350.86429733580667,223.36216201225136L330.16134323491326,220.63492484965786L330.8736766000104,212.57787908564558L329.95444660250485,211.79410442956907L327.51247705533217,207.32668257110583L325.2424265347528,205.73233972179526L324.0527139126742,200.76047060281962L323.7465750001993,196.96827975755207L319.7893232459588,196.35467942577725L321.2661911058188,186.27509315872896L321.89406965881835,187.47690277772028L323.70405632506413,187.59339197300653L324.2269621430854,190.631754977701L325.9691824098831,190.03123572655272L326.48896475884317,188.6564628997089L327.9101494002575,188.13169662615837L329.15155149929024,188.89295573207414Z" style="fill: inherit; stroke: inherit; stroke-width: inherit;" vector-effect="non-scaling-stroke"><title>Fremont County</title></path><path id="county-56027" class="county feature" d="M400.1916204028302,205.02228252639486L400.1464461858335,205.4968641833732L399.4137638550875,214.3517069982944L398.799003976755,221.70527086322966L390.5908480213344,221.02244374444376L387.3727778788802,220.73465367517372L388.834105661068,204.07335513047303Z" style="fill: inherit; stroke: inherit; stroke-width: inherit;" vector-effect="non-scaling-stroke"><title>Niobrara County</title></path><path id="county-56009" class="county feature" d="M388.834105661068,204.07335513047303L387.3727778788802,220.73465367517372L382.0083536785596,220.27989019418385L381.7229285720823,223.54452893782968L381.0668342355106,223.4861560891843L380.2139079616252,226.065465088677L376.9820894894245,225.47054676145444L378.0136584367445,223.19293619846746L370.9688494338999,222.41108147089608L370.9394168200551,222.4089652249885L373.01472401353044,202.5859288416774L373.8338765592124,202.6637299201543L386.41819606324464,203.8664316093599Z" style="fill: inherit; stroke: inherit; stroke-width: inherit;" vector-effect="non-scaling-stroke"><title>Converse County</title></path><path id="county-56025" class="county feature" d="M359.1893661740632,200.92887420737827L359.1719690261225,201.07701291269052L373.01472401353044,202.5859288416774L370.9394168200551,222.4089652249885L363.4579425090668,221.64279206750803L351.2519145683236,220.13994353389785L350.9933275996755,220.1084121613958L351.7640597593318,213.63145971609526L352.33204922084576,213.70065781257085L353.68703812063825,200.79349742441445L353.51670204409015,200.23057375776727Z" style="fill: inherit; stroke: inherit; stroke-width: inherit;" vector-effect="non-scaling-stroke"><title>Natrona County</title></path><path id="county-56035" class="county feature" d="M330.16134323491326,220.63492484965786L316.4562397980725,218.53423685287441L309.8557924229313,217.40506123470993L310.32149271184767,214.22379249481514L309.6851327060043,214.12651198223512L312.09856925437487,199.54539690565161L312.26496646290485,198.50089627295858L315.3970110744424,198.98932097785985L315.6419482791964,197.37871116240694L319.47206441763285,197.9583323731831L319.7893232459588,196.35467942577725L323.7465750001993,196.96827975755207L324.0527139126742,200.76047060281962L325.2424265347528,205.73233972179526L327.51247705533217,207.32668257110583L329.95444660250485,211.79410442956907L330.8736766000104,212.57787908564558Z" style="fill: inherit; stroke: inherit; stroke-width: inherit;" vector-effect="non-scaling-stroke"><title>Sublette County</title></path><path id="county-56023" class="county feature" d="M312.09856925437487,199.54539690565161L309.6851327060043,214.12651198223512L310.32149271184767,214.22379249481514L309.8557924229313,217.40506123470993L316.4562397980725,218.53423685287441L314.6087741082383,231.44387848080305L300.94918641123934,229.29170781360108L302.1854206343752,221.45368051541288L303.70181057893126,211.95553979865736L305.24166918470894,202.5577038120423L306.10696536178136,197.075164858947L309.18925684837524,197.56028581943997L308.95417566728594,199.0562952186732Z" style="fill: inherit; stroke: inherit; stroke-width: inherit;" vector-effect="non-scaling-stroke"><title>Lincoln County</title></path><path id="county-56015" class="county feature" d="M398.799003976755,221.70527086322966L397.82861806359557,233.13087211319078L397.34504041548473,238.82465363431675L397.13205338321814,241.33242386169763L388.84401817280934,240.58794541826092L388.9846453059138,238.93822465753829L390.5908480213344,221.02244374444376Z" style="fill: inherit; stroke: inherit; stroke-width: inherit;" vector-effect="non-scaling-stroke"><title>Goshen County</title></path><path id="county-56031" class="county feature" d="M390.5908480213344,221.02244374444376L388.9846453059138,238.93822465753829L380.381002154041,238.05413411260088L381.7229285720823,223.54452893782968L382.0083536785596,220.27989019418385L387.3727778788802,220.73465367517372Z" style="fill: inherit; stroke: inherit; stroke-width: inherit;" vector-effect="non-scaling-stroke"><title>Platte County</title></path><path id="county-56007" class="county feature" d="M370.9394168200551,222.4089652249885L370.9688494338999,222.41108147089608L368.97224762011547,241.83856088810182L365.4556210099728,241.4578281317148L364.6872867695131,248.8742786847297L357.2110195526866,247.96963670734567L350.83369486412096,247.21711675398012L342.50598845655776,246.21133875669716L343.90113308943273,233.91224095573216L349.66731164705425,234.66660018516518L350.72412107662603,226.63669020505472L350.86429733580667,223.36216201225136L351.2519145683236,220.13994353389785L363.4579425090668,221.64279206750803Z" style="fill: inherit; stroke: inherit; stroke-width: inherit;" vector-effect="non-scaling-stroke"><title>Carbon County</title></path><path id="county-56001" class="county feature" d="M381.7229285720823,223.54452893782968L380.381002154041,238.05413411260088L379.1880722668505,250.38982526322627L366.48067215588253,249.08991097629712L364.6872867695131,248.8742786847297L365.4556210099728,241.4578281317148L368.97224762011547,241.83856088810182L370.9688494338999,222.41108147089608L378.0136584367445,223.19293619846746L376.9820894894245,225.47054676145444L380.2139079616252,226.065465088677L381.0668342355106,223.4861560891843Z" style="fill: inherit; stroke: inherit; stroke-width: inherit;" vector-effect="non-scaling-stroke"><title>Albany County</title></path><path id="county-56037" class="county feature" d="M330.16134323491326,220.63492484965786L350.86429733580667,223.36216201225136L350.72412107662603,226.63669020505472L349.66731164705425,234.66660018516518L343.90113308943273,233.91224095573216L342.50598845655776,246.21133875669716L326.82056886044927,244.16458121615244L313.6566089341822,242.33570507513184L313.0015330486691,242.23833440601516L314.6087741082383,231.44387848080305L316.4562397980725,218.53423685287441Z" style="fill: inherit; stroke: inherit; stroke-width: inherit;" vector-effect="non-scaling-stroke"><title>Sweetwater County</title></path><path id="county-56021" class="county feature" d="M388.9846453059138,238.93822465753829L388.84401817280934,240.58794541826092L397.13205338321814,241.33242386169763L396.8696821671446,244.53956665540306L396.2254413381485,251.8885658770614L383.8325312316831,250.83739469845L379.1880722668505,250.38982526322627L380.381002154041,238.05413411260088Z" style="fill: inherit; stroke: inherit; stroke-width: inherit;" vector-effect="non-scaling-stroke"><title>Laramie County</title></path><path id="county-56041" class="county feature" d="M314.6087741082383,231.44387848080305L313.0015330486691,242.23833440601516L299.2076735858449,240.10525532134147L299.9659764360922,235.38721877092337L300.94918641123934,229.29170781360108Z" style="fill: inherit; stroke: inherit; stroke-width: inherit;" vector-effect="non-scaling-stroke"><title>Uinta County</title></path></g><path id="counties-mesh" class="counties mesh" d="M342.70349440392346,170.5430688080379L342.76516233914856,172.98272420696492L341.8941256463886,179.48257439666827L342.1443161896291,179.517921473363L341.26904414146657,186.0591740621486L341.5778222566484,186.1002254584772L341.35333821225913,187.75388033327454L338.15312623782125,187.32060462508844L337.93022696666395,188.96666138617366L336.29206307289866,188.7467955142415L336.1164306251113,190.35084572781L333.7183328454082,190.02679792191725L333.50528604977933,191.6687449809823L330.56353059423765,191.3133906678355L329.15155149929024,188.89295573207414L327.9101494002575,188.13169662615837L326.48896475884317,188.6564628997089L325.9691824098831,190.03123572655272L324.2269621430854,190.631754977701L323.70405632506413,187.59339197300653L321.89406965881835,187.47690277772028L321.2661911058188,186.27509315872896L321.6102516738843,183.96517262927875L320.766552122088,180.830291450054L319.2372400050464,177.9921976547597L319.72340179617095,176.3752389151556L318.62362372957074,174.98463593727297L314.7911638101645,174.39854312083514L315.0311677512516,172.8557469278752L309.9562597753676,172.05566967520497M351.9861529847625,171.72753712686483L352.533528340605,175.77782642313684L354.41473711892206,178.09603943689297L355.18138443716805,177.78428634451006L358.094211975196,180.80177684821717L358.7550986468378,182.70004459914014L360.06783388142463,183.25930606964948L360.53459339242056,185.53883306436353L360.168491359974,188.48265919010998L341.5778222566484,186.1002254584772M388.9747358505289,175.84694661151514L387.634938673708,191.21892963274342L386.41819606324464,203.8664316093599L373.8338765592124,202.6637299201543L376.0410204830927,182.7509129540739L376.6882715225785,174.7365276721465M376.0410204830927,182.7509129540739L370.49364095904025,182.28867267460305L358.094211975196,180.80177684821717M321.2661911058188,186.27509315872896L319.7893232459588,196.35467942577725L319.47206441763285,197.9583323731831L315.6419482791964,197.37871116240694L315.3970110744424,198.98932097785985L312.26496646290485,198.50089627295858L312.09856925437487,199.54539690565161L308.95417566728594,199.0562952186732L309.18925684837524,197.56028581943997L306.10696536178136,197.075164858947L306.6458986320248,193.63758020028854L308.04814566057416,184.7011241381732L309.46898684560904,175.62012859285926L309.9562597753676,172.05566967520497L311.09011438618825,165.88793193239917L315.48230315175124,166.75285043280735L327.32805093497177,168.3566816703766L342.70349440392346,170.5430688080379L347.56360749819794,171.1967924637445L351.9861529847625,171.72753712686483L373.55857284827596,174.39717696805656L376.6882715225785,174.7365276721465L388.9747358505289,175.84694661151514L389.6389242958944,175.91249949176722L402.51826806809623,177.1304897210823L401.8664673020143,185.08145366452345L401.26633352600953,192.3711358210826L387.634938673708,191.21892963274342M373.8338765592124,202.6637299201543L373.01472401353044,202.5859288416774L359.1719690261225,201.07701291269052L359.1893661740632,200.92887420737827L360.40658693856676,188.50967570139346L360.168491359974,188.48265919010998M401.26633352600953,192.3711358210826L401.2038890199145,193.10621068944533L400.7381108603349,198.4754300649371L400.1916204028302,205.02228252639486L388.834105661068,204.07335513047303L386.41819606324464,203.8664316093599M359.1893661740632,200.92887420737827L353.51670204409015,200.23057375776727L352.7096827553314,200.1318881546315L353.04077699827553,197.4314157746378L351.41928164265937,197.24374187987905L351.6262333644163,195.61267848867703L348.41517066800384,195.20968740310218L348.61574057298867,193.62380029708777L343.98668331468446,192.5026292039795L344.1288031315131,191.4487075477573L342.54055042260995,191.23880459195527L342.7810097231035,189.59473402988306L341.35333821225913,187.75388033327454M352.7096827553314,200.1318881546315L352.64333008921665,200.67307407374813L342.6703239822013,199.6474440864016L341.18752669998565,198.6316089138394L338.075036849462,197.66631942570018L336.6675762153417,196.09444376969145L331.94207117556164,195.16978103335998L332.14791168553126,193.69398216846412L330.56353059423765,191.3133906678355M353.51670204409015,200.23057375776727L353.68703812063825,200.79349742441445L352.33204922084576,213.70065781257085L351.7640597593318,213.63145971609526L350.9933275996755,220.1084121613958L351.2519145683236,220.13994353389785L350.86429733580667,223.36216201225136L330.16134323491326,220.63492484965786L330.8736766000104,212.57787908564558L329.95444660250485,211.79410442956907L327.51247705533217,207.32668257110583L325.2424265347528,205.73233972179526L324.0527139126742,200.76047060281962L323.7465750001993,196.96827975755207L319.7893232459588,196.35467942577725M316.4562397980725,218.53423685287441L314.6087741082383,231.44387848080305L300.94918641123934,229.29170781360108L302.1854206343752,221.45368051541288L303.70181057893126,211.95553979865736L305.24166918470894,202.5577038120423L306.10696536178136,197.075164858947M400.1916204028302,205.02228252639486L400.1464461858335,205.4968641833732L399.4137638550875,214.3517069982944L398.799003976755,221.70527086322966L390.5908480213344,221.02244374444376L387.3727778788802,220.73465367517372L388.834105661068,204.07335513047303M387.3727778788802,220.73465367517372L382.0083536785596,220.27989019418385L381.7229285720823,223.54452893782968L381.0668342355106,223.4861560891843L380.2139079616252,226.065465088677L376.9820894894245,225.47054676145444L378.0136584367445,223.19293619846746L370.9688494338999,222.41108147089608L370.9394168200551,222.4089652249885L373.01472401353044,202.5859288416774M370.9394168200551,222.4089652249885L363.4579425090668,221.64279206750803L351.2519145683236,220.13994353389785M330.16134323491326,220.63492484965786L316.4562397980725,218.53423685287441L309.8557924229313,217.40506123470993L310.32149271184767,214.22379249481514L309.6851327060043,214.12651198223512L312.09856925437487,199.54539690565161M398.799003976755,221.70527086322966L397.82861806359557,233.13087211319078L397.34504041548473,238.82465363431675L397.13205338321814,241.33242386169763L388.84401817280934,240.58794541826092L388.9846453059138,238.93822465753829L390.5908480213344,221.02244374444376M388.9846453059138,238.93822465753829L380.381002154041,238.05413411260088L381.7229285720823,223.54452893782968M370.9688494338999,222.41108147089608L368.97224762011547,241.83856088810182L365.4556210099728,241.4578281317148L364.6872867695131,248.8742786847297L357.2110195526866,247.96963670734567L350.83369486412096,247.21711675398012L342.50598845655776,246.21133875669716L343.90113308943273,233.91224095573216L349.66731164705425,234.66660018516518L350.72412107662603,226.63669020505472L350.86429733580667,223.36216201225136M380.381002154041,238.05413411260088L379.1880722668505,250.38982526322627L366.48067215588253,249.08991097629712L364.6872867695131,248.8742786847297M342.50598845655776,246.21133875669716L326.82056886044927,244.16458121615244L313.6566089341822,242.33570507513184L313.0015330486691,242.23833440601516L314.6087741082383,231.44387848080305M313.0015330486691,242.23833440601516L299.2076735858449,240.10525532134147L299.9659764360922,235.38721877092337L300.94918641123934,229.29170781360108M397.13205338321814,241.33242386169763L396.8696821671446,244.53956665540306L396.2254413381485,251.8885658770614L383.8325312316831,250.83739469845L379.1880722668505,250.38982526322627" style="fill: inherit; stroke: inherit; stroke-width: inherit;" vector-effect="non-scaling-stroke"></path></svg>