<svg xmlns="http://www.w3.org/2000/svg" version="1.2" id="root" viewBox="299.2076735858449 165.88793193239917 103.31059448225136 86.00063394466224"><g id="counties"><path id="county-56029" class="county feature" d="M342.703 170.543l.062 2.44-.87 6.5.25.035-.876 6.541.309.041-.225 1.654-3.2-.433-.223 1.646-1.638-.22-.176 1.604-2.398-.324-.213 1.642-2.941-.356-1.412-2.42-1.242-.761-1.421.524-.52 1.375-1.742.6-.523-3.038-1.81-.116-.628-1.202.344-2.31-.843-3.135-1.53-2.838.486-1.617-1.1-1.39-3.832-.586.24-1.543-5.075-.8 1.134-6.168 4.392.865 11.846 1.604z" vector-effect="non-scaling-stroke" fill="inherit" stroke="inherit" stroke-width="inherit"><title>Park County</title></path><path id="county-56003" class="county feature" d="M351.986 171.728l.548 4.05 1.88 2.318.767-.312 2.913 3.018.661 1.898 1.313.56.467 2.279-.367 2.944-18.59-2.383-.309-.04.875-6.542-.25-.035.871-6.5-.062-2.44 4.86.654z" vector-effect="non-scaling-stroke" fill="inherit" stroke="inherit" stroke-width="inherit"><title>Big Horn County</title></path><path id="county-56005" class="county feature" d="M388.975 175.847l-1.34 15.372-1.217 12.647-12.584-1.202 2.207-19.913.647-8.014z" vector-effect="non-scaling-stroke" fill="inherit" stroke="inherit" stroke-width="inherit"><title>Campbell County</title></path><path id="county-56033" class="county feature" d="M373.559 174.397l3.13.34-.648 8.014-5.547-.462-12.4-1.487-2.913-3.018-.766.312-1.881-2.318-.548-4.05z" vector-effect="non-scaling-stroke" fill="inherit" stroke="inherit" stroke-width="inherit"><title>Sheridan County</title></path><path id="county-56011" class="county feature" d="M389.639 175.912l12.88 1.218-.653 7.951-.6 7.29-13.631-1.152 1.34-15.372z" vector-effect="non-scaling-stroke" fill="inherit" stroke="inherit" stroke-width="inherit"><title>Crook County</title></path><path id="county-56039" class="county feature" d="M321.266 186.275l-1.477 10.08-.317 1.603-3.83-.58-.245 1.611-3.132-.488-.166 1.044-3.145-.489.235-1.496-3.082-.485.539-3.437 1.402-8.937 1.421-9.08.487-3.565 5.075.8-.24 1.543 3.833.586 1.1 1.39-.487 1.617 1.53 2.838.843 3.135z" vector-effect="non-scaling-stroke" fill="inherit" stroke="inherit" stroke-width="inherit"><title>Teton County</title></path><path id="county-56019" class="county feature" d="M376.041 182.75l-2.207 19.914-.82-.078-13.842-1.509.017-.148 1.218-12.42-.239-.026.367-2.944-.467-2.28-1.313-.559-.66-1.898 12.399 1.487z" vector-effect="non-scaling-stroke" fill="inherit" stroke="inherit" stroke-width="inherit"><title>Johnson County</title></path><path id="county-56045" class="county feature" d="M401.266 192.371l-.062.735-.466 5.37-.546 6.546-11.358-.949-2.416-.207 1.217-12.647z" vector-effect="non-scaling-stroke" fill="inherit" stroke="inherit" stroke-width="inherit"><title>Weston County</title></path><path id="county-56043" class="county feature" d="M360.168 188.483l.239.027-1.218 12.419-5.672-.698-.807-.1.33-2.7-1.62-.187.206-1.631-3.21-.403.2-1.586-4.63-1.121.143-1.054-1.588-.21.24-1.644-1.428-1.841.225-1.654z" vector-effect="non-scaling-stroke" fill="inherit" stroke="inherit" stroke-width="inherit"><title>Washakie County</title></path><path id="county-56017" class="county feature" d="M341.353 187.754l1.428 1.84-.24 1.645 1.588.21-.142 1.054 4.629 1.12-.2 1.587 3.21.403-.207 1.63 1.622.188-.331 2.7-.067.542-9.973-1.026-1.482-1.015-3.113-.966-1.407-1.572-4.726-.924.206-1.476-1.584-2.38 2.941.355.213-1.642 2.398.324.176-1.604 1.638.22.223-1.646z" vector-effect="non-scaling-stroke" fill="inherit" stroke="inherit" stroke-width="inherit"><title>Hot Springs County</title></path><path id="county-56013" class="county feature" d="M330.564 191.313l1.584 2.381-.206 1.476 4.726.924 1.407 1.572 3.113.966 1.482 1.015 9.973 1.026.067-.541.807.099.17.562-1.355 12.908-.568-.07-.77 6.477.258.032-.388 3.222-20.703-2.727.713-8.057-.92-.784-2.442-4.467-2.27-1.595-1.19-4.972-.305-3.792-3.958-.613 1.477-10.08.628 1.202 1.81.116.523 3.039 1.742-.6.52-1.376 1.421-.524 1.242.761z" vector-effect="non-scaling-stroke" fill="inherit" stroke="inherit" stroke-width="inherit"><title>Fremont County</title></path><path id="county-56027" class="county feature" d="M400.192 205.022l-.046.475-.732 8.855-.615 7.353-8.208-.683-3.218-.287 1.461-16.662z" vector-effect="non-scaling-stroke" fill="inherit" stroke="inherit" stroke-width="inherit"><title>Niobrara County</title></path><path id="county-56009" class="county feature" d="M388.834 204.073l-1.461 16.662-5.365-.455-.285 3.265-.656-.059-.853 2.58-3.232-.595 1.032-2.278-7.045-.782-.03-.002 2.076-19.823.819.078 12.584 1.202z" vector-effect="non-scaling-stroke" fill="inherit" stroke="inherit" stroke-width="inherit"><title>Converse County</title></path><path id="county-56025" class="county feature" d="M359.19 200.929l-.018.148 13.843 1.509-2.076 19.823-7.481-.766-12.206-1.503-.259-.032.771-6.477.568.07 1.355-12.908-.17-.562z" vector-effect="non-scaling-stroke" fill="inherit" stroke="inherit" stroke-width="inherit"><title>Natrona County</title></path><path id="county-56035" class="county feature" d="M330.161 220.635l-13.705-2.1-6.6-1.13.465-3.181-.636-.097 2.414-14.582.166-1.044 3.132.488.245-1.61 3.83.58.317-1.604 3.958.613.306 3.792 1.19 4.972 2.27 1.595 2.441 4.467.92.784z" vector-effect="non-scaling-stroke" fill="inherit" stroke="inherit" stroke-width="inherit"><title>Sublette County</title></path><path id="county-56023" class="county feature" d="M312.099 199.545l-2.414 14.582.636.097-.465 3.181 6.6 1.13-1.847 12.909-13.66-2.152 1.236-7.838 1.517-9.498 1.54-9.398.865-5.483 3.082.485-.235 1.496z" vector-effect="non-scaling-stroke" fill="inherit" stroke="inherit" stroke-width="inherit"><title>Lincoln County</title></path><path id="county-56015" class="county feature" d="M398.799 221.705l-.97 11.426-.484 5.694-.213 2.507-8.288-.744.14-1.65 1.607-17.916z" vector-effect="non-scaling-stroke" fill="inherit" stroke="inherit" stroke-width="inherit"><title>Goshen County</title></path><path id="county-56031" class="county feature" d="M390.59 221.022l-1.605 17.916-8.604-.884 1.342-14.51.285-3.264 5.365.455z" vector-effect="non-scaling-stroke" fill="inherit" stroke="inherit" stroke-width="inherit"><title>Platte County</title></path><path id="county-56007" class="county feature" d="M370.94 222.409l.029.002-1.997 19.428-3.516-.381-.769 7.416-7.476-.904-6.377-.753-8.328-1.006 1.395-12.299 5.766.755 1.057-8.03.14-3.275.388-3.222 12.206 1.503z" vector-effect="non-scaling-stroke" fill="inherit" stroke="inherit" stroke-width="inherit"><title>Carbon County</title></path><path id="county-56001" class="county feature" d="M381.723 223.545l-1.342 14.51-1.193 12.335-12.707-1.3-1.794-.216.769-7.416 3.516.38 1.997-19.427 7.045.782-1.032 2.278 3.232.594.853-2.579z" vector-effect="non-scaling-stroke" fill="inherit" stroke="inherit" stroke-width="inherit"><title>Albany County</title></path><path id="county-56037" class="county feature" d="M330.161 220.635l20.703 2.727-.14 3.275-1.057 8.03-5.766-.755-1.395 12.3-15.685-2.047-13.164-1.83-.655-.097 1.607-10.794 1.847-12.91z" vector-effect="non-scaling-stroke" fill="inherit" stroke="inherit" stroke-width="inherit"><title>Sweetwater County</title></path><path id="county-56021" class="county feature" d="M388.985 238.938l-.141 1.65 8.288.744-.262 3.208-.645 7.349-12.392-1.052-4.645-.447 1.193-12.336z" vector-effect="non-scaling-stroke" fill="inherit" stroke="inherit" stroke-width="inherit"><title>Laramie County</title></path><path id="county-56041" class="county feature" d="M314.609 231.444l-1.607 10.794-13.794-2.133.758-4.718.983-6.095z" vector-effect="non-scaling-stroke" fill="inherit" stroke="inherit" stroke-width="inherit"><title>Uinta County</title></path></g><path id="counties-mesh" class="counties mesh" d="M342.703 170.543l.062 2.44-.87 6.5.25.035-.876 6.541.309.041-.225 1.654-3.2-.433-.223 1.646-1.638-.22-.176 1.604-2.398-.324-.213 1.642-2.941-.356-1.412-2.42-1.242-.761-1.421.524-.52 1.375-1.742.6-.523-3.038-1.81-.116-.628-1.202.344-2.31-.843-3.135-1.53-2.838.486-1.617-1.1-1.39-3.832-.586.24-1.543-5.075-.8m42.03-.328l.548 4.05 1.88 2.318.767-.312 2.913 3.018.661 1.898 1.313.56.467 2.279-.367 2.944-18.59-2.383m47.397-10.253l-1.34 15.372-1.217 12.647-12.584-1.202 2.207-19.913.647-8.014m-.647 8.014l-5.547-.462-12.4-1.487m-36.828 5.473l-1.477 10.08-.317 1.603-3.83-.58-.245 1.611-3.132-.488-.166 1.044-3.145-.489.235-1.496-3.082-.485.539-3.437 1.402-8.937 1.421-9.08.487-3.565 1.134-6.168 4.392.865 11.846 1.604 15.375 2.186 4.86.654 4.423.53 21.573 2.67 3.13.34 12.286 1.11.664.065 12.88 1.218-.653 7.951-.6 7.29-13.631-1.152m-13.801 11.445l-.82-.078-13.842-1.509.017-.148 1.218-12.42-.239-.026m41.098 3.888l-.062.735-.466 5.37-.546 6.546-11.358-.949-2.416-.207m-27.229-2.937l-5.672-.698-.807-.1.33-2.7-1.62-.187.206-1.631-3.21-.403.2-1.586-4.63-1.121.143-1.054-1.588-.21.24-1.644-1.428-1.841m11.357 12.378l-.067.541-9.973-1.026-1.482-1.015-3.113-.966-1.407-1.572-4.726-.924.206-1.476-1.584-2.38m22.953 8.917l.17.562-1.355 12.908-.568-.07-.77 6.477.258.032-.388 3.222-20.703-2.727.713-8.057-.92-.784-2.442-4.467-2.27-1.595-1.19-4.972-.305-3.792-3.958-.613m-3.333 22.18l-1.847 12.909-13.66-2.152 1.236-7.838 1.517-9.498 1.54-9.398.865-5.483m94.085 7.947l-.046.475-.732 8.855-.615 7.353-8.208-.683-3.218-.287 1.461-16.662m-1.461 16.662l-5.365-.455-.285 3.265-.656-.059-.853 2.58-3.232-.595 1.032-2.278-7.045-.782-.03-.002 2.076-19.823m-2.076 19.823l-7.481-.766-12.206-1.503m-21.09.495l-13.706-2.1-6.6-1.13.465-3.181-.636-.097 2.414-14.582m86.7 22.16l-.97 11.426-.484 5.694-.213 2.507-8.288-.744.14-1.65 1.607-17.916m-1.606 17.916l-8.604-.884 1.342-14.51m-10.754-1.133l-1.997 19.428-3.516-.381-.769 7.416-7.476-.904-6.377-.753-8.328-1.006 1.395-12.299 5.766.755 1.057-8.03.14-3.275m29.517 14.692l-1.193 12.336-12.707-1.3-1.794-.216m-22.181-2.663l-15.685-2.046-13.164-1.83-.655-.097 1.607-10.794m-1.607 10.794l-13.794-2.133.758-4.718.983-6.095m96.183 12.04l-.262 3.208-.645 7.349-12.392-1.052-4.645-.447" vector-effect="non-scaling-stroke" fill="inherit" stroke="inherit" stroke-width="inherit"/></svg>