<svg xmlns="http://www.w3.org/2000/svg" version="1.2" id="root" viewBox="815.7715708903064 195.48651675571512 25.5698849508143 24.803775454741526"><g id="counties"><path id="county-09005" class="county feature" d="M821.62 199.149l.605-.131.047 1.387 1.877-.59-.077 3.25-.873.376 1.168 2.785-1.76 2.864-1.884 1.338-1.867.018-1.81-2.962-1.274-7.098z" vector-effect="non-scaling-stroke" fill="inherit" stroke="inherit" stroke-width="inherit"><title>Litchfield County</title></path><path id="county-09003" class="county feature" d="M828.918 197.439l1.057 4.089.408-.169 1.851 3.631-.67.517-.81-1.02-2.714 1.057-.294 1.019-2.512 1.054-.867-1.39-1.168-2.786.873-.376.077-3.25-1.877.59-.047-1.387z" vector-effect="non-scaling-stroke" fill="inherit" stroke="inherit" stroke-width="inherit"><title>Hartford County</title></path><path id="county-09013" class="county feature" d="M833.924 196.243l.452-.09.365 1.263-1.569.418.564 2.244 1.196 1.274-.921 1.005-1.777 2.633-1.851-3.63-.408.168-1.057-4.089z" vector-effect="non-scaling-stroke" fill="inherit" stroke="inherit" stroke-width="inherit"><title>Tolland County</title></path><path id="county-09015" class="county feature" d="M838.514 195.487l1.473 5.128.43 1.533-2.182.674-2.843.123-1.381-.588.921-1.005-1.196-1.274-.564-2.244 1.57-.418-.366-1.262z" vector-effect="non-scaling-stroke" fill="inherit" stroke="inherit" stroke-width="inherit"><title>Windham County</title></path><path id="county-09011" class="county feature" d="M840.417 202.148l.18.79.744 3.313-.264 1.76-2.001.957-2.405.317-1.804 1.336-2.085-2.312 1.633-.66-.695-1.723-1.399.543-.757-.962.67-.517 1.777-2.633 1.38.588 2.844-.123z" vector-effect="non-scaling-stroke" fill="inherit" stroke="inherit" stroke-width="inherit"><title>New London County</title></path><path id="county-09001" class="county feature" d="M820.723 210.428l1.962.721 2.12 1.598-.291 1.351-.686 1.404-2.931 2.89-2.772 1.898-1.427-1.763 2.832-2.85-1.518-2.609-.51-2.99-.456-2.594 1.81 2.962z" vector-effect="non-scaling-stroke" fill="inherit" stroke="inherit" stroke-width="inherit"><title>Fairfield County</title></path><path id="county-09007" class="county feature" d="M832.137 211.748l-.122-.052.122.052zm-.573-6.241l.757.962 1.399-.543.695 1.724-1.633.66 1.719 2.573-2.545.762-2.249-2.844-1.17.583-.791-2.821.294-1.02 2.713-1.055z" vector-effect="non-scaling-stroke" fill="inherit" stroke="inherit" stroke-width="inherit"><title>Middlesex County</title></path><path id="county-09009" class="county feature" d="M827.746 206.563l.792 2.821 1.17-.583 2.248 2.844.06.051.12.052-5.407 1.29-1.91 2.137-.305-1.077.29-1.351-2.119-1.598-1.962-.72 1.884-1.339 1.76-2.864.867 1.39z" vector-effect="non-scaling-stroke" fill="inherit" stroke="inherit" stroke-width="inherit"><title>New Haven County</title></path></g><path id="counties-mesh" class="counties mesh" d="M822.225 199.018l.047 1.387 1.877-.59-.077 3.25-.873.376 1.168 2.785-1.76 2.864-1.884 1.338-1.867.018-1.81-2.962m11.872-10.045l1.057 4.089.408-.169 1.851 3.631-.67.517-.81-1.02-2.714 1.057-.294 1.019-2.512 1.054-.867-1.39m10.009-10.073l.365 1.262-1.569.418.564 2.244 1.196 1.274-.921 1.005-1.777 2.633m-11.51 5.438l1.961.721 2.12 1.598-.291 1.351-.686 1.404-2.931 2.89-2.772 1.898-1.427-1.763 2.832-2.85-1.518-2.609-.51-2.99-.456-2.594-1.274-7.098 5.849-1.237.604-.131 6.693-1.579 5.006-1.196.452-.09 4.138-.666 1.473 5.128.43 1.533-2.182.674-2.843.123-1.381-.588m6.406-.21l.18.79.744 3.314-.264 1.76-2.001.957-2.405.317-1.804 1.336-2.085-2.312 1.633-.66-.695-1.723-1.399.543-.757-.962m1.218 2.802l1.719 2.574-2.545.762-2.249-2.844-1.17.583-.791-2.821m4.21 5.082l.06.051m.12.052l-.12-.052.12.052-5.407 1.29-1.91 2.137-.305-1.077" vector-effect="non-scaling-stroke" fill="inherit" stroke="inherit" stroke-width="inherit"/></svg>