<svg xmlns="http://www.w3.org/2000/svg" version="1.2" id="root" viewBox="396.2254413381485 214.3517069982944 122.24067214918108 61.156002518539026"><g id="counties"><path id="county-31165" class="county feature" d="M406.825 225.648l-.505 6.498.453 1.68-8.944-.695.97-11.426.615-7.353 7.437.68-.003 4.066-.508 6.513z" vector-effect="non-scaling-stroke" fill="inherit" stroke="inherit" stroke-width="inherit"><title>Sioux County</title></path><path id="county-31161" class="county feature" d="M426.065 233.438l-.933 1.584-8.403-.49-.282-.011-.5-1.687.37-6.524-.324-.023.463-6.473.03-4.042 9.614.664-.447 10.437.372.027-.428 6.502z" vector-effect="non-scaling-stroke" fill="inherit" stroke="inherit" stroke-width="inherit"><title>Sheridan County</title></path><path id="county-31045" class="county feature" d="M415.993 226.287l-9.168-.64-.485-.036.508-6.513.003-4.065 6.81.52 2.824.219-.03 4.042z" vector-effect="non-scaling-stroke" fill="inherit" stroke="inherit" stroke-width="inherit"><title>Dawes County</title></path><path id="county-31015" class="county feature" d="M477.235 220.89l.013 2.283-3.79-.447-4.181-1.366-.779-.903-4.2 1.525.154-3.637 10.278.3z" vector-effect="non-scaling-stroke" fill="inherit" stroke="inherit" stroke-width="inherit"><title>Boyd County</title></path><path id="county-31103" class="county feature" d="M464.452 218.345l-.154 3.637-3.871 1.491-1.903-.32-6.152-1.7-.843-.757.127-2.863 9.01.379z" vector-effect="non-scaling-stroke" fill="inherit" stroke="inherit" stroke-width="inherit"><title>Keya Paha County</title></path><path id="county-31031" class="county feature" d="M437.686 217.154l13.97.679-.127 2.863-.206 14.294-1.377-.068-7.952-.42-7.971-.507-7.958-.557-.468-.036.428-6.502-.372-.027.447-10.437z" vector-effect="non-scaling-stroke" fill="inherit" stroke="inherit" stroke-width="inherit"><title>Cherry County</title></path><path id="county-31089" class="county feature" d="M477.248 223.173l-.084 6.092-.163 6.542-6.336-.163-6.35-.188-.162-.007.293-13.052-.148-.415 4.2-1.525.779.903 4.18 1.366z" vector-effect="non-scaling-stroke" fill="inherit" stroke="inherit" stroke-width="inherit"><title>Holt County</title></path><path id="county-31107" class="county feature" d="M479.345 221.758l1.587 1.444 1.107-.07 1.203-1.679 3.157.212 2.051.056-.126 7.735-4.781-.067-6.379-.124.084-6.092-.013-2.284z" vector-effect="non-scaling-stroke" fill="inherit" stroke="inherit" stroke-width="inherit"><title>Knox County</title></path><path id="county-31027" class="county feature" d="M492.855 222.732l1.953.738-.103 7.71-4.797-.07.028-1.634-1.612-.02.126-7.735 2.408-.289z" vector-effect="non-scaling-stroke" fill="inherit" stroke="inherit" stroke-width="inherit"><title>Cedar County</title></path><path id="county-31017" class="county feature" d="M458.524 223.152l-.257 12.12-.335-.014-6.61-.268.207-14.294.843.756z" vector-effect="non-scaling-stroke" fill="inherit" stroke="inherit" stroke-width="inherit"><title>Brown County</title></path><path id="county-31149" class="county feature" d="M464.153 235.45l-5.886-.177.257-12.12 1.903.32 3.871-1.491.148.415z" vector-effect="non-scaling-stroke" fill="inherit" stroke="inherit" stroke-width="inherit"><title>Rock County</title></path><path id="county-31051" class="county feature" d="M497.665 224.578l1.466 1.022.896 2.374-1.242-.015-.1 4.636-1.317.247-2.68-.03.017-1.632.103-7.71z" vector-effect="non-scaling-stroke" fill="inherit" stroke="inherit" stroke-width="inherit"><title>Dixon County</title></path><path id="county-31043" class="county feature" d="M500.027 227.974l2.515.663.677.096-.203 2.702.753 1.217-5.083-.057.099-4.636z" vector-effect="non-scaling-stroke" fill="inherit" stroke="inherit" stroke-width="inherit"><title>Dakota County</title></path><path id="county-31139" class="county feature" d="M489.908 231.11l-.08 4.905-6.412-.084.127-6.542 4.781.067 1.612.02z" vector-effect="non-scaling-stroke" fill="inherit" stroke="inherit" stroke-width="inherit"><title>Pierce County</title></path><path id="county-31013" class="county feature" d="M416.447 234.52l-9.142-.642-.532-.053-.453-1.679.505-6.498 9.168.64.324.022-.37 6.524z" vector-effect="non-scaling-stroke" fill="inherit" stroke="inherit" stroke-width="inherit"><title>Box Butte County</title></path><path id="county-31003" class="county feature" d="M483.543 229.389l-.127 6.542-.048 3.26-6.377-.112.01-3.272.163-6.542z" vector-effect="non-scaling-stroke" fill="inherit" stroke="inherit" stroke-width="inherit"><title>Antelope County</title></path><path id="county-31179" class="county feature" d="M494.705 231.18l-.017 1.633 2.68.029-.043 3.271-2.692-.03-4.806-.068.081-4.905z" vector-effect="non-scaling-stroke" fill="inherit" stroke="inherit" stroke-width="inherit"><title>Wayne County</title></path><path id="county-31173" class="county feature" d="M503.77 232.652l-.01 1.158 1.222 1.964-.077 1.193-.531.602-3.357-.03-.002-1.391-3.69-.035.043-3.271 1.318-.247z" vector-effect="non-scaling-stroke" fill="inherit" stroke="inherit" stroke-width="inherit"><title>Thurston County</title></path><path id="county-31075" class="county feature" d="M434.023 233.995l-.365 6.559-7.727-.451-1.14-.069.341-5.012.933-1.584z" vector-effect="non-scaling-stroke" fill="inherit" stroke="inherit" stroke-width="inherit"><title>Grant County</title></path><path id="county-31091" class="county feature" d="M441.994 234.502l-.289 6.538-7.78-.474-.267-.012.365-6.559z" vector-effect="non-scaling-stroke" fill="inherit" stroke="inherit" stroke-width="inherit"><title>Hooker County</title></path><path id="county-31039" class="county feature" d="M497.325 236.113l3.69.035.002 1.392-.036 5.152-4.85-.051-1.578-.02.08-6.537z" vector-effect="non-scaling-stroke" fill="inherit" stroke="inherit" stroke-width="inherit"><title>Cuming County</title></path><path id="county-31119" class="county feature" d="M489.827 236.015l-.089 6.54-6.393-.09.023-3.274.048-3.26z" vector-effect="non-scaling-stroke" fill="inherit" stroke="inherit" stroke-width="inherit"><title>Madison County</title></path><path id="county-31167" class="county feature" d="M494.633 236.084l-.08 6.537-3.216-.04-1.599-.026.09-6.54z" vector-effect="non-scaling-stroke" fill="inherit" stroke="inherit" stroke-width="inherit"><title>Stanton County</title></path><path id="county-31171" class="county feature" d="M449.946 234.922l-.263 6.51-6.164-.289-1.814-.103.289-6.538z" vector-effect="non-scaling-stroke" fill="inherit" stroke="inherit" stroke-width="inherit"><title>Thomas County</title></path><path id="county-31183" class="county feature" d="M476.991 239.08l-.079 3.266-6.313-.151-.094-.003.16-6.548 6.336.163z" vector-effect="non-scaling-stroke" fill="inherit" stroke="inherit" stroke-width="inherit"><title>Wheeler County</title></path><path id="county-31009" class="county feature" d="M449.946 234.922l1.377.068 6.609.268-.253 6.5-7.797-.316-.199-.01z" vector-effect="non-scaling-stroke" fill="inherit" stroke="inherit" stroke-width="inherit"><title>Blaine County</title></path><path id="county-31115" class="county feature" d="M464.316 235.456l-.207 6.526-6.43-.224.253-6.5.335.015 5.886.176z" vector-effect="non-scaling-stroke" fill="inherit" stroke="inherit" stroke-width="inherit"><title>Loup County</title></path><path id="county-31071" class="county feature" d="M470.665 235.644l-.16 6.548-6.262-.202-.134-.008.207-6.526z" vector-effect="non-scaling-stroke" fill="inherit" stroke="inherit" stroke-width="inherit"><title>Garfield County</title></path><path id="county-31021" class="county feature" d="M506.743 240.375l1.015 1.296-.796 2.153-4.457-.025.01-1.095-1.534-.012.036-5.152 3.357.03.53-.603 1.936 1.376z" vector-effect="non-scaling-stroke" fill="inherit" stroke="inherit" stroke-width="inherit"><title>Burt County</title></path><path id="county-31069" class="county feature" d="M425.132 235.022l-.34 5.012 1.14.069-.402 6.53-.98-.07-.209 3.26-7.714-.516-.084-4.108.404-5.709-.502-1.138.284-3.82z" vector-effect="non-scaling-stroke" fill="inherit" stroke="inherit" stroke-width="inherit"><title>Garden County</title></path><path id="county-31123" class="county feature" d="M416.729 234.532l-.284 3.82.502 1.138-.404 5.709-10.146-.724.362-4.908.546-5.69 9.142.644z" vector-effect="non-scaling-stroke" fill="inherit" stroke="inherit" stroke-width="inherit"><title>Morrill County</title></path><path id="county-31157" class="county feature" d="M407.305 233.878l-.546 5.689-9.414-.742.484-5.694 8.944.694z" vector-effect="non-scaling-stroke" fill="inherit" stroke="inherit" stroke-width="inherit"><title>Scotts Bluff County</title></path><path id="county-31011" class="county feature" d="M483.368 239.191l-.023 3.275-.073 4.065-3.763.777-2.655-.06.058-4.902.08-3.267z" vector-effect="non-scaling-stroke" fill="inherit" stroke="inherit" stroke-width="inherit"><title>Boone County</title></path><path id="county-31037" class="county feature" d="M494.553 242.62l1.579.02-.052 5.388-3.801 1.457-1.051-.151.109-6.753z" vector-effect="non-scaling-stroke" fill="inherit" stroke="inherit" stroke-width="inherit"><title>Colfax County</title></path><path id="county-31141" class="county feature" d="M491.337 242.581l-.11 6.753-1.583-.253-3.222 1.143.02-1.162-1.462-.027.044-2.483-1.752-.02.073-4.066 6.393.089z" vector-effect="non-scaling-stroke" fill="inherit" stroke="inherit" stroke-width="inherit"><title>Platte County</title></path><path id="county-31053" class="county feature" d="M500.981 242.692l1.534.012-.01 1.095-.004 3.005 1.585 2.468-1.97-.01-1.373-.763-4.663-.413v-.058l.052-5.387z" vector-effect="non-scaling-stroke" fill="inherit" stroke="inherit" stroke-width="inherit"><title>Dodge County</title></path><path id="county-31117" class="county feature" d="M441.705 241.04l1.814.103-.347 6.506-7.721-.433-1.908-.117.382-6.533z" vector-effect="non-scaling-stroke" fill="inherit" stroke="inherit" stroke-width="inherit"><title>McPherson County</title></path><path id="county-31005" class="county feature" d="M433.925 240.566l-.382 6.533-8.013-.467.401-6.53 7.727.452z" vector-effect="non-scaling-stroke" fill="inherit" stroke="inherit" stroke-width="inherit"><title>Arthur County</title></path><path id="county-31077" class="county feature" d="M476.854 247.248l-.04 1.634-6.299-.172h-.094l.178-6.515 6.313.151z" vector-effect="non-scaling-stroke" fill="inherit" stroke="inherit" stroke-width="inherit"><title>Greeley County</title></path><path id="county-31041" class="county feature" d="M464.11 241.982l.133.008-.1 6.521-.28 6.53-3.048-.098-11.141-.45-.084-6.537.292-6.514 7.797.316z" vector-effect="non-scaling-stroke" fill="inherit" stroke="inherit" stroke-width="inherit"><title>Custer County</title></path><path id="county-31113" class="county feature" d="M449.683 241.432l.199.01-.292 6.514-6.418-.307.347-6.506z" vector-effect="non-scaling-stroke" fill="inherit" stroke="inherit" stroke-width="inherit"><title>Logan County</title></path><path id="county-31175" class="county feature" d="M470.505 242.192l.094.003-.178 6.514-6.278-.198.1-6.52z" vector-effect="non-scaling-stroke" fill="inherit" stroke="inherit" stroke-width="inherit"><title>Valley County</title></path><path id="county-31007" class="county feature" d="M406.759 239.567l-.362 4.908-.182.8-9.345-.735.262-3.208.213-2.507z" vector-effect="non-scaling-stroke" fill="inherit" stroke="inherit" stroke-width="inherit"><title>Banner County</title></path><path id="county-31177" class="county feature" d="M506.962 243.824l.47 2.87 1.279.444.813 2.186-5.438-.052-1.585-2.468.004-3.005z" vector-effect="non-scaling-stroke" fill="inherit" stroke="inherit" stroke-width="inherit"><title>Washington County</title></path><path id="county-31125" class="county feature" d="M484.98 249.035l-.054 1.613-4.84.206-3.11.471-.097-2.443h-.065l.04-1.634 2.655.06 3.763-.777 1.752.02z" vector-effect="non-scaling-stroke" fill="inherit" stroke="inherit" stroke-width="inherit"><title>Nance County</title></path><path id="county-31023" class="county feature" d="M496.08 248.028v.058l-.108 7.667-.036-.001-6.386-.092.094-6.579 1.584.253 1.05.15z" vector-effect="non-scaling-stroke" fill="inherit" stroke="inherit" stroke-width="inherit"><title>Butler County</title></path><path id="county-31155" class="county feature" d="M502.116 249.262l1.982 3.834.106 2.731-2.033.536.002-.547-6.201-.063.108-7.667 4.663.413z" vector-effect="non-scaling-stroke" fill="inherit" stroke="inherit" stroke-width="inherit"><title>Saunders County</title></path><path id="county-31033" class="county feature" d="M416.543 245.199l.084 4.108-.437 4.106-.45-.03-10.167-.751.642-7.358.182-.799z" vector-effect="non-scaling-stroke" fill="inherit" stroke="inherit" stroke-width="inherit"><title>Cheyenne County</title></path><path id="county-31101" class="county feature" d="M435.45 247.216l-.372 6.532.24.833-11.188-.665.211-4.093.208-3.26.98.07 8.014.466z" vector-effect="non-scaling-stroke" fill="inherit" stroke="inherit" stroke-width="inherit"><title>Keith County</title></path><path id="county-31111" class="county feature" d="M443.172 247.649l6.418.307.084 6.536-.28 6.517-7.775-.366-6.589-.304.288-5.758-.24-.833.373-6.532z" vector-effect="non-scaling-stroke" fill="inherit" stroke="inherit" stroke-width="inherit"><title>Lincoln County</title></path><path id="county-31143" class="county feature" d="M489.55 255.66l-6.397-.102.01-2.392 3.259-2.942 3.222-1.143z" vector-effect="non-scaling-stroke" fill="inherit" stroke="inherit" stroke-width="inherit"><title>Polk County</title></path><path id="county-31105" class="county feature" d="M406.215 245.274l-.642 7.358-2.672-.2-6.676-.543.645-7.35z" vector-effect="non-scaling-stroke" fill="inherit" stroke="inherit" stroke-width="inherit"><title>Kimball County</title></path><path id="county-31121" class="county feature" d="M486.422 250.224l-3.258 2.942-2.71 1.973-3.756 3.563.014-3.28.167-6.54.096 2.443 3.11-.471 4.84-.206.055-1.613 1.461.027z" vector-effect="non-scaling-stroke" fill="inherit" stroke="inherit" stroke-width="inherit"><title>Merrick County</title></path><path id="county-31093" class="county feature" d="M476.814 248.882h.065l-.167 6.54-6.07-.164-.37-.01.243-6.538z" vector-effect="non-scaling-stroke" fill="inherit" stroke="inherit" stroke-width="inherit"><title>Howard County</title></path><path id="county-31163" class="county feature" d="M470.42 248.71h.095l-.244 6.537-6.409-.207.28-6.529z" vector-effect="non-scaling-stroke" fill="inherit" stroke="inherit" stroke-width="inherit"><title>Sherman County</title></path><path id="county-31055" class="county feature" d="M504.086 249.272l5.438.052.64 1.324-.437 2.44-5.629.008-1.982-3.834z" vector-effect="non-scaling-stroke" fill="inherit" stroke="inherit" stroke-width="inherit"><title>Douglas County</title></path><path id="county-31049" class="county feature" d="M424.341 249.823l-.21 4.093-.012.028-7.93-.531.438-4.106z" vector-effect="non-scaling-stroke" fill="inherit" stroke="inherit" stroke-width="inherit"><title>Deuel County</title></path><path id="county-31153" class="county feature" d="M509.727 253.087l.596.583.023 2.006-2.16-.238-2.43 1.322-1.552-.933-.106-2.73z" vector-effect="non-scaling-stroke" fill="inherit" stroke="inherit" stroke-width="inherit"><title>Sarpy County</title></path><path id="county-31081" class="county feature" d="M483.153 255.558l-.121 6.555-6.352-.134h-.06l.078-3.277 3.756-3.563 2.71-1.973z" vector-effect="non-scaling-stroke" fill="inherit" stroke="inherit" stroke-width="inherit"><title>Hamilton County</title></path><path id="county-31025" class="county feature" d="M510.346 255.676l.928 2.854-.288 2.222-8.827-.017.012-4.372 2.033-.536 1.552.933 2.43-1.322z" vector-effect="non-scaling-stroke" fill="inherit" stroke="inherit" stroke-width="inherit"><title>Cass County</title></path><path id="county-31185" class="county feature" d="M489.55 255.66l-.1 6.56-6.403-.106h-.015l.12-6.556z" vector-effect="non-scaling-stroke" fill="inherit" stroke="inherit" stroke-width="inherit"><title>York County</title></path><path id="county-31079" class="county feature" d="M476.712 255.423l-.014 3.279-.079 3.277-6.154-.173.177-6.548z" vector-effect="non-scaling-stroke" fill="inherit" stroke="inherit" stroke-width="inherit"><title>Hall County</title></path><path id="county-31047" class="county feature" d="M460.815 254.943l-.134 7.075-3.163-.383-4.736-.475-3.388-.15.28-6.518z" vector-effect="non-scaling-stroke" fill="inherit" stroke="inherit" stroke-width="inherit"><title>Dawson County</title></path><path id="county-31019" class="county feature" d="M470.271 255.247l.371.01-.177 6.549-.05.17-2.57.621-3.829-.31-3.335-.27.134-7.074 3.047.097z" vector-effect="non-scaling-stroke" fill="inherit" stroke="inherit" stroke-width="inherit"><title>Buffalo County</title></path><path id="county-31159" class="county feature" d="M495.936 255.752l-.098 6.555-6.388-.088.1-6.56z" vector-effect="non-scaling-stroke" fill="inherit" stroke="inherit" stroke-width="inherit"><title>Seward County</title></path><path id="county-31109" class="county feature" d="M502.17 256.363l-.01 4.372-.025 4.914-6.318-.057.021-3.285.098-6.555h.036l6.201.064z" vector-effect="non-scaling-stroke" fill="inherit" stroke="inherit" stroke-width="inherit"><title>Lancaster County</title></path><path id="county-31135" class="county feature" d="M435.318 254.581l-.288 5.758-1.368-.082-9.894-.584.063-.977.288-4.752.011-.028z" vector-effect="non-scaling-stroke" fill="inherit" stroke="inherit" stroke-width="inherit"><title>Perkins County</title></path><path id="county-31131" class="county feature" d="M510.986 260.752l-.693.677 1.664 3.06.785 1.156-5.025.017-5.582-.013.024-4.914z" vector-effect="non-scaling-stroke" fill="inherit" stroke="inherit" stroke-width="inherit"><title>Otoe County</title></path><path id="county-31063" class="county feature" d="M449.394 261.01l3.388.15-.197 4.926-1.601-.074-.07 1.644-1.454-.04-7.9-.361-.263-.013.322-6.6z" vector-effect="non-scaling-stroke" fill="inherit" stroke="inherit" stroke-width="inherit"><title>Frontier County</title></path><path id="county-31001" class="county feature" d="M476.62 261.979h.06l-.157 6.553-6.282-.166.174-6.39.05-.17z" vector-effect="non-scaling-stroke" fill="inherit" stroke="inherit" stroke-width="inherit"><title>Adams County</title></path><path id="county-31073" class="county feature" d="M457.518 261.635l-.23 6.282-6.375-.26.07-1.645 1.602.074.197-4.926z" vector-effect="non-scaling-stroke" fill="inherit" stroke="inherit" stroke-width="inherit"><title>Gosper County</title></path><path id="county-31085" class="county feature" d="M441.619 260.643l-.322 6.599-7.695-.431-.273-.013.333-6.541 1.368.082z" vector-effect="non-scaling-stroke" fill="inherit" stroke="inherit" stroke-width="inherit"><title>Hayes County</title></path><path id="county-31029" class="county feature" d="M433.662 260.257l-.333 6.54-9.978-.574.109-1.708.308-4.842z" vector-effect="non-scaling-stroke" fill="inherit" stroke="inherit" stroke-width="inherit"><title>Chase County</title></path><path id="county-31059" class="county feature" d="M489.45 262.22l-.094 6.558-6.384-.11-.04-.001.115-6.553z" vector-effect="non-scaling-stroke" fill="inherit" stroke="inherit" stroke-width="inherit"><title>Fillmore County</title></path><path id="county-31151" class="county feature" d="M489.45 262.22l6.388.087-.021 3.285-.067 3.275-6.394-.09z" vector-effect="non-scaling-stroke" fill="inherit" stroke="inherit" stroke-width="inherit"><title>Saline County</title></path><path id="county-31035" class="county feature" d="M483.047 262.114l-.116 6.553-6.342-.133-.066-.002.157-6.553 6.352.134z" vector-effect="non-scaling-stroke" fill="inherit" stroke="inherit" stroke-width="inherit"><title>Clay County</title></path><path id="county-31099" class="county feature" d="M470.241 268.366l-.04-.001-6.382-.203.197-5.875 3.829.31 2.57-.62z" vector-effect="non-scaling-stroke" fill="inherit" stroke="inherit" stroke-width="inherit"><title>Kearney County</title></path><path id="county-31137" class="county feature" d="M460.681 262.018l3.335.269-.197 5.875-6.36-.236-.172-.01.231-6.28z" vector-effect="non-scaling-stroke" fill="inherit" stroke="inherit" stroke-width="inherit"><title>Phelps County</title></path><path id="county-31127" class="county feature" d="M514.947 270.515l.036.055-6.469.022-.796-.01-.001-4.92 5.025-.017 1.37 3.943z" vector-effect="non-scaling-stroke" fill="inherit" stroke="inherit" stroke-width="inherit"><title>Nemaha County</title></path><path id="county-31067" class="county feature" d="M502.135 265.65l-.024 4.914-.024 4.92-4.848-.04-1.567-.016.078-6.561.067-3.275z" vector-effect="non-scaling-stroke" fill="inherit" stroke="inherit" stroke-width="inherit"><title>Gage County</title></path><path id="county-31097" class="county feature" d="M507.717 265.662l.001 4.92-5.607-.018.024-4.915z" vector-effect="non-scaling-stroke" fill="inherit" stroke="inherit" stroke-width="inherit"><title>Johnson County</title></path><path id="county-31181" class="county feature" d="M476.523 268.532l.066.002-.162 6.55-3.266-.075-3.143-.089.183-6.555.04.001z" vector-effect="non-scaling-stroke" fill="inherit" stroke="inherit" stroke-width="inherit"><title>Webster County</title></path><path id="county-31061" class="county feature" d="M470.2 268.365l-.182 6.555-4.832-.146-1.586-.048.22-6.564z" vector-effect="non-scaling-stroke" fill="inherit" stroke="inherit" stroke-width="inherit"><title>Franklin County</title></path><path id="county-31129" class="county feature" d="M482.931 268.667h.04l-.135 6.566-1.557-.03-4.852-.12.162-6.549z" vector-effect="non-scaling-stroke" fill="inherit" stroke="inherit" stroke-width="inherit"><title>Nuckolls County</title></path><path id="county-31057" class="county feature" d="M433.602 266.811l-.397 6.543-1.214-.066-9.06-.556.42-6.509 9.978.575z" vector-effect="non-scaling-stroke" fill="inherit" stroke="inherit" stroke-width="inherit"><title>Dundy County</title></path><path id="county-31065" class="county feature" d="M457.287 267.917l.172.009-.22 6.578-7.784-.316-.224-.012.23-6.56 1.452.04z" vector-effect="non-scaling-stroke" fill="inherit" stroke="inherit" stroke-width="inherit"><title>Furnas County</title></path><path id="county-31169" class="county feature" d="M489.356 268.778l-.105 6.565-6.415-.11.136-6.565z" vector-effect="non-scaling-stroke" fill="inherit" stroke="inherit" stroke-width="inherit"><title>Thayer County</title></path><path id="county-31095" class="county feature" d="M489.356 268.778l6.394.089-.078 6.561-6.421-.085z" vector-effect="non-scaling-stroke" fill="inherit" stroke="inherit" stroke-width="inherit"><title>Jefferson County</title></path><path id="county-31145" class="county feature" d="M449.46 267.616l-.229 6.56-7.724-.37-.28-.018.333-6.533z" vector-effect="non-scaling-stroke" fill="inherit" stroke="inherit" stroke-width="inherit"><title>Red Willow County</title></path><path id="county-31087" class="county feature" d="M441.297 267.242l.263.013-.333 6.533-8.022-.434.397-6.543z" vector-effect="non-scaling-stroke" fill="inherit" stroke="inherit" stroke-width="inherit"><title>Hitchcock County</title></path><path id="county-31083" class="county feature" d="M463.82 268.162l-.22 6.564-6.32-.22-.042-.002.221-6.578z" vector-effect="non-scaling-stroke" fill="inherit" stroke="inherit" stroke-width="inherit"><title>Harlan County</title></path><path id="county-31133" class="county feature" d="M507.718 270.581l.796.01-.005 4.916-3.242-.008-3.18-.015.024-4.92z" vector-effect="non-scaling-stroke" fill="inherit" stroke="inherit" stroke-width="inherit"><title>Pawnee County</title></path><path id="county-31147" class="county feature" d="M514.983 270.57l2.211 2.567-.332 1.294 1.604 1.052-.448.004-6.355.02h-3.154l.005-4.915z" vector-effect="non-scaling-stroke" fill="inherit" stroke="inherit" stroke-width="inherit"><title>Richardson County</title></path></g><path id="counties-mesh" class="counties mesh" d="M426.1 216.436l-.447 10.437.372.027-.428 6.502.468.036-.933 1.584-8.403-.49-.282-.011-.5-1.687.37-6.524-.324-.023.463-6.473.03-4.042m-.493 10.515l-9.168-.64m70.41-4.758l.013 2.284-3.79-.447-4.181-1.366-.779-.903-4.2 1.525.154-3.637m12.796 4.828l-.084 6.092-.163 6.542-6.336-.163-6.35-.188-.162-.007.293-13.052-.148-.415-3.871 1.491-1.903-.32-6.152-1.7-.843-.757.127-2.863m-.127 2.863l-.206 14.294-1.377-.068-7.952-.42-7.971-.507-7.958-.557m62.385-11.717l-.126 7.735-4.781-.067-6.379-.124m17.644-5.795l-.103 7.71-4.797-.07.028-1.634-1.612-.02m-29.8-6.304l-.257 12.12-.335-.014-6.61-.268m12.83.46l-5.885-.177m41.76-7.3l-1.242-.014-.1 4.636-1.317.247-2.68-.03.017-1.632m-88.308 13.295l-.182.8-9.345-.735.262-3.208.213-2.507.484-5.694m105.94-.479l-5.083-.057m-8.778-1.485l-.08 4.905-6.412-.084.127-6.542m-67.096 5.132l-9.142-.643-.532-.053m76.643 2.106l-.048 3.26-6.377-.112.01-3.272m-70.15-20.774l-.003 4.065-.508 6.513.485.037-.505 6.498.453 1.68-8.944-.695.97-11.426.615-7.353 7.437.68 6.81.521 2.824.219 9.615.664 11.586.718 13.97.679 9.01.379 3.786.133 10.278.3 2.505 2.244 2.11.87 1.587 1.443 1.107-.07 1.203-1.679 3.157.212 2.051.056 2.408-.289 1.997 1.3 1.953.738 2.857 1.108 1.466 1.022.896 2.374 2.515.663.677.096-.203 2.702.753 1.217-.009 1.158 1.222 1.964-.077 1.193-.531.602-3.357-.03-.002-1.391-3.69-.035m-63.302-2.118l-.365 6.559-7.727-.451-1.14-.069.341-5.012m16.862-.52l-.289 6.538-7.78-.474-.267-.012m67.359-3.014l-.036 5.152-4.85-.051-1.578-.02.08-6.537m2.735-3.242l-.043 3.271-2.692-.03-4.806-.068-.089 6.54-6.393-.09.023-3.274m11.185 3.43l-3.216-.04-1.599-.026m-39.792-7.633l-.263 6.51-6.164-.289-1.814-.103m35.286-1.96l-.079 3.266-6.313-.151-.094-.003.16-6.548m-12.733-.386l-.253 6.5-7.797-.316-.199-.01m14.633-5.976l-.207 6.526-6.43-.224m12.826.434l-6.262-.202-.134-.008m40.796-5.015l1.935 1.376-.097 2.032 1.015 1.296-.796 2.153-4.457-.025.01-1.095-1.534-.012m-75.05-2.59l-.401 6.53-.98-.07-.209 3.26-7.714-.515-.084-4.108.404-5.709-.502-1.138.284-3.82m-.186 10.667l-10.146-.724.362-4.908.546-5.69m-.546 5.69l-9.414-.742m86 3.64l-.073 4.066-3.763.777-2.655-.06.058-4.902m19.22.295l-.052 5.387-3.801 1.457-1.051-.151.109-6.753m-.11 6.753l-1.583-.253-3.222 1.143.02-1.162-1.462-.027.044-2.483-1.752-.02m19.233-2.733l-.004 3.005 1.585 2.468-1.97-.01-1.373-.763-4.663-.413v-.058m-52.56-6.885l-.348 6.506-7.721-.433-1.908-.117.382-6.533m-.382 6.533l-8.013-.467m51.324.616l-.04 1.634-6.299-.172h-.094l.178-6.515m-6.356-.205l-.1 6.521-.28 6.53-3.048-.098-11.141-.45-.084-6.537.292-6.514m-.292 6.514l-6.418-.307m27.249 1.06l-6.278-.198m42.819-4.687l.47 2.87 1.279.444.813 2.186-5.438-.052m-98.513 3.36l-2.672-.2-6.676-.543.645-7.35m88.11 4.496l-.054 1.613-4.84.206-3.11.471-.097-2.443h-.065m19.266-.796l-.108 7.667-.036-.001-6.386-.092.094-6.579m12.472.18l1.982 3.835.106 2.731-2.033.536.002-.547-6.201-.063m-79.345-6.446l-.437 4.106-.45-.03-10.167-.751.642-7.358m29.236 1.942l-.373 6.532.24.833-11.188-.665.211-4.093m25.333 4.67l-.28 6.516-7.775-.366-6.589-.304.288-5.758m54.232 1.079l-6.397-.102.01-2.392 3.259-2.942m-3.258 2.942l-2.71 1.973-3.756 3.563.014-3.28.167-6.54m-.167 6.54l-6.07-.164-.37-.01.243-6.538m-.244 6.537l-6.409-.207m45.865-1.953l-5.629.01m-79.968.82l-.011.027-7.93-.531m93.335-4.089l.64 1.324-.437 2.44.596.582.023 2.006-2.16-.238-2.43 1.322-1.552-.933m-21.051-.269l-.121 6.555-6.352-.134h-.06l.078-3.277m33.648-3.026l.928 2.854-.288 2.222-8.827-.017.012-4.372m-12.621-.703l-.1 6.56-6.403-.106h-.015m-6.413-.135l-6.154-.173.177-6.548m-9.827-.315l-.134 7.075-3.163-.383-4.736-.475-3.388-.15m21.07.796l-.05.17-2.57.621-3.828-.31-3.335-.27m41.478-1.282l-.024 4.914-6.318-.057.021-3.285m-60.808-1.968l-1.368-.082-9.894-.584.063-.977.288-4.752m9.21 12.854l-9.978-.575.109-1.708.308-4.842m29.014 1.487l-.197 4.926-1.601-.074-.07 1.644-1.454-.04-7.9-.361-.263-.013.322-6.6m35.06 1.337l-.156 6.553-6.282-.166.174-6.39m-12.897-.34l-.23 6.28-6.375-.26m-9.616-.414l-7.695-.431-.273-.013.333-6.541m62.274-4.505l-.098 6.555-6.388-.088-.094 6.559-6.384-.11-.04-.001.115-6.553m-.116 6.553l-6.342-.133-.066-.002m-6.282-.166l-.04-.001-6.382-.203.197-5.875m6.002 12.633l-4.832-.146-1.586-.048.22-6.564-6.36-.236-.173-.01m55.455-2.271l1.37 3.943.835.927.036.055-6.469.022-.796-.01-.001-4.92m3.27-4.91l-.694.677 1.664 3.06.785 1.156-5.025.017-5.582-.013-.024 4.915-.024 4.92-4.848-.04-1.567-.016.078-6.561m11.968 1.714l-5.607-.017m-68.509-3.753l-.397 6.543-1.214-.066-9.06-.556.42-6.509m53.238 2.311l-.162 6.55-3.266-.075-3.143-.089.183-6.555m12.77.303l-.135 6.565-1.557-.03-4.852-.12m-18.968-7.157l-.22 6.578-7.784-.316-.224-.012.23-6.56m46.356-2.024l-.067 3.275-6.394-.09-.105 6.566-6.415-.11m12.836.195l-6.421-.085m-40.02-1.167l-7.724-.37-.28-.018.333-6.533m-.333 6.533l-8.022-.434m30.395 1.372l-6.32-.22-.042-.002m51.276-3.912l-.005 4.915-3.242-.008-3.18-.015m12.896-4.914l2.211 2.567-.332 1.294 1.604 1.052-.448.004-6.355.02h-3.154" vector-effect="non-scaling-stroke" fill="inherit" stroke="inherit" stroke-width="inherit"/></svg>