<svg xmlns="http://www.w3.org/2000/svg" version="1.2" id="root" viewBox="404.62301173584956 328.2755348152516 127.70476230666281 66.95705308618221"><g id="counties"><path id="county-40105" class="county feature" d="M515.713 332.081l1.696-.01-.349 1.069.04 6.509-5.619.024-.013-6.493.343-1.084z" vector-effect="non-scaling-stroke" fill="inherit" stroke="inherit" stroke-width="inherit"><title>Nowata County</title></path><path id="county-40113" class="county feature" d="M508.65 332.107l-.005 10.845-.01 4.946-3.984-.019.223-1.161-1.494-.239-1.897-1.877-1.026.676-1.215-2.382-1.263-.39-.746-2.272-1.616 1.775-1.974-.707 1.474-1.706-2.1.047-.126-1.728 1.9.055.7-1.264 2.02-.554.075-4.09 3.313.027z" vector-effect="non-scaling-stroke" fill="inherit" stroke="inherit" stroke-width="inherit"><title>Osage County</title></path><path id="county-40151" class="county feature" d="M464.35 331.397l6.725.21-.105 10.097-1.163 1.33-2.538-1.166-.886-1.104-1.734-.065-.196-1.747-2.299-3.544-2.277-.766-2.256-3.474z" vector-effect="non-scaling-stroke" fill="inherit" stroke="inherit" stroke-width="inherit"><title>Woods County</title></path><path id="county-40035" class="county feature" d="M522.345 332.027l.976-.008.182 6.198-.065 3.034-4.787.033-.022-1.645-1.53.01-.039-6.51.35-1.067z" vector-effect="non-scaling-stroke" fill="inherit" stroke="inherit" stroke-width="inherit"><title>Craig County</title></path><path id="county-40147" class="county feature" d="M511.81 332.096l-.342 1.084.013 6.493-.03 3.278h-2.806l.006-10.844.535-.004z" vector-effect="non-scaling-stroke" fill="inherit" stroke="inherit" stroke-width="inherit"><title>Washington County</title></path><path id="county-40053" class="county feature" d="M487.062 331.944l-.123 7.637-9.535-.178.063-7.628 4.57.083z" vector-effect="non-scaling-stroke" fill="inherit" stroke="inherit" stroke-width="inherit"><title>Grant County</title></path><path id="county-40003" class="county feature" d="M473.99 331.692l3.477.083-.063 7.628-.054 2.459-6.38-.158.105-10.098z" vector-effect="non-scaling-stroke" fill="inherit" stroke="inherit" stroke-width="inherit"><title>Alfalfa County</title></path><path id="county-40071" class="county feature" d="M497.586 332.062l-.075 4.09-2.02.554-.7 1.264-1.9-.055.125 1.728-6.06-.062h-.017l.123-7.637 4.644.058z" vector-effect="non-scaling-stroke" fill="inherit" stroke="inherit" stroke-width="inherit"><title>Kay County</title></path><path id="county-40115" class="county feature" d="M529.073 331.958l.053 4.382.038 1.859-5.661.018-.182-6.198z" vector-effect="non-scaling-stroke" fill="inherit" stroke="inherit" stroke-width="inherit"><title>Ottawa County</title></path><path id="county-40059" class="county feature" d="M456.365 331.119l1.256.049 2.256 3.474-.147 4.229-4.61-.123-5.895-.244.33-7.694z" vector-effect="non-scaling-stroke" fill="inherit" stroke="inherit" stroke-width="inherit"><title>Harper County</title></path><path id="county-40025" class="county feature" d="M419.458 329.371l.21.022-.657 9.264-1.923-.12-12.465-.866.699-9.395z" vector-effect="non-scaling-stroke" fill="inherit" stroke="inherit" stroke-width="inherit"><title>Cimarron County</title></path><path id="county-40139" class="county feature" d="M435.634 330.215l-.612 9.385-1.946-.096-8.004-.456-6.061-.391.658-9.264 6.972.383 7.208.355z" vector-effect="non-scaling-stroke" fill="inherit" stroke="inherit" stroke-width="inherit"><title>Texas County</title></path><path id="county-40007" class="county feature" d="M448.273 330.745l1.281.065-.33 7.694-.09 1.76-8.051-.355-6.061-.309.612-9.385 4.613.201z" vector-effect="non-scaling-stroke" fill="inherit" stroke="inherit" stroke-width="inherit"><title>Beaver County</title></path><path id="county-40153" class="county feature" d="M464.65 340.699l-.134 6.509-6.37-.265-3.187-.113.162-8.082 4.61.123.146-4.229 2.277.766 2.3 3.544z" vector-effect="non-scaling-stroke" fill="inherit" stroke="inherit" stroke-width="inherit"><title>Woodward County</title></path><path id="county-40041" class="county feature" d="M529.164 338.199l.046 3.177.913 6.348-3.496.06-3.2.027.011-6.56.065-3.034z" vector-effect="non-scaling-stroke" fill="inherit" stroke="inherit" stroke-width="inherit"><title>Delaware County</title></path><path id="county-40103" class="county feature" d="M493.643 341.302l-.366 3.27 1.6.016-.017 1.638-3.223-.034-.025 1.643-3.18-.04-1.59-.124.113-8.09 6.061.062 2.1-.047z" vector-effect="non-scaling-stroke" fill="inherit" stroke="inherit" stroke-width="inherit"><title>Noble County</title></path><path id="county-40131" class="county feature" d="M518.651 341.284l-1.595.012-.021 8.2-1.965.009-.71-1.645-2.144.006-.799.003.033-4.918.031-3.278 5.618-.024 1.53-.01z" vector-effect="non-scaling-stroke" fill="inherit" stroke="inherit" stroke-width="inherit"><title>Rogers County</title></path><path id="county-40047" class="county feature" d="M486.94 339.58h.015l-.113 8.09-3.211-.056-6.395-.131.114-5.621.054-2.46z" vector-effect="non-scaling-stroke" fill="inherit" stroke="inherit" stroke-width="inherit"><title>Garfield County</title></path><path id="county-40045" class="county feature" d="M455.12 338.748l-.161 8.082 3.188.113-.08 2.852-1.22.116-1.575 2.59-.893.395-2.333-.945-.456-2.202-2.893 2.18.139-3.298.298-8.366.09-1.761z" vector-effect="non-scaling-stroke" fill="inherit" stroke="inherit" stroke-width="inherit"><title>Ellis County</title></path><path id="county-40117" class="county feature" d="M504.65 347.88l-.444-.007-4.831.02-2.954-.006.014-1.646-1.575-.015.016-1.638-1.599-.017.366-3.269 1.974.707 1.616-1.775.746 2.271 1.263.391 1.215 2.382 1.026-.676 1.897 1.877 1.494.239z" vector-effect="non-scaling-stroke" fill="inherit" stroke="inherit" stroke-width="inherit"><title>Pawnee County</title></path><path id="county-40097" class="county feature" d="M523.438 341.251l-.011 6.56-1.598.02.02 1.643-1.341.007-3.473.015.02-8.2 1.596-.012z" vector-effect="non-scaling-stroke" fill="inherit" stroke="inherit" stroke-width="inherit"><title>Mayes County</title></path><path id="county-40093" class="county feature" d="M470.97 341.704l6.38.158-.114 5.62-1.592-.036-6.367-.162-4.76-.076.132-6.51 1.734.066.886 1.104 2.538 1.165z" vector-effect="non-scaling-stroke" fill="inherit" stroke="inherit" stroke-width="inherit"><title>Major County</title></path><path id="county-40143" class="county feature" d="M511.45 342.951l-.033 4.918.799-.003.012 4.935-.87.851-3.192-.015.05-4.118-4.004-.015-.006-1.631.445.006 3.983.02.011-4.947z" vector-effect="non-scaling-stroke" fill="inherit" stroke="inherit" stroke-width="inherit"><title>Tulsa County</title></path><path id="county-40119" class="county feature" d="M499.375 347.893l-.027 4.118-7.775-.081-3.182-.853.041-3.281 3.18.04.025-1.644 3.223.034 1.575.015-.014 1.646z" vector-effect="non-scaling-stroke" fill="inherit" stroke="inherit" stroke-width="inherit"><title>Payne County</title></path><path id="county-40073" class="county feature" d="M483.63 347.614l-.118 8.268-8.007-.147.14-8.289 1.591.037z" vector-effect="non-scaling-stroke" fill="inherit" stroke="inherit" stroke-width="inherit"><title>Kingfisher County</title></path><path id="county-40083" class="county feature" d="M486.842 347.67l1.59.126-.041 3.28 3.182.854-.054 4.102-8.007-.15.119-8.268z" vector-effect="non-scaling-stroke" fill="inherit" stroke="inherit" stroke-width="inherit"><title>Logan County</title></path><path id="county-40011" class="county feature" d="M475.644 347.446l-.139 8.289-1.595-.036-.08 3.267-4.663-.123.001-4.916.11-6.643z" vector-effect="non-scaling-stroke" fill="inherit" stroke="inherit" stroke-width="inherit"><title>Blaine County</title></path><path id="county-40043" class="county feature" d="M469.168 353.927l-11.155-.349.054-3.783.08-2.852 6.37.265 4.76.076z" vector-effect="non-scaling-stroke" fill="inherit" stroke="inherit" stroke-width="inherit"><title>Dewey County</title></path><path id="county-40037" class="county feature" d="M504.206 347.873l.006 1.631 4.004.015-.05 4.118-2.39-.007-.014 4.107-6.435-.026.021-5.7.027-4.118z" vector-effect="non-scaling-stroke" fill="inherit" stroke="inherit" stroke-width="inherit"><title>Creek County</title></path><path id="county-40145" class="county feature" d="M517.035 349.496l3.473-.015-1.102 2.007.8 1.838-.524 1.09-5.617.446-.16-1.234-1.74.013-.807.011.87-.85-.012-4.936 2.144-.006.71 1.645z" vector-effect="non-scaling-stroke" fill="inherit" stroke="inherit" stroke-width="inherit"><title>Wagoner County</title></path><path id="county-40021" class="county feature" d="M523.427 347.811l3.2-.027-.032 9.853-4.81.046-.024-3.275-2.08.007.525-1.09-.8-1.837 1.102-2.007 1.342-.007-.021-1.643z" vector-effect="non-scaling-stroke" fill="inherit" stroke="inherit" stroke-width="inherit"><title>Cherokee County</title></path><path id="county-40001" class="county feature" d="M530.123 347.724l.183 1.122.982 6.452.344 2.268-5.037.071.032-9.853z" vector-effect="non-scaling-stroke" fill="inherit" stroke="inherit" stroke-width="inherit"><title>Adair County</title></path><path id="county-40129" class="county feature" d="M458.067 349.795l-.054 3.783-.03 5.72-3.183-.117-.067 1.642-6.4-.268.156-3.705.208-4.92 2.893-2.181.456 2.202 2.333.945.893-.395 1.576-2.59z" vector-effect="non-scaling-stroke" fill="inherit" stroke="inherit" stroke-width="inherit"><title>Roger Mills County</title></path><path id="county-40081" class="county feature" d="M499.348 352.01l-.021 5.701-.087 3.321-7.786-.095.065-4.905.054-4.102z" vector-effect="non-scaling-stroke" fill="inherit" stroke="inherit" stroke-width="inherit"><title>Lincoln County</title></path><path id="county-40111" class="county feature" d="M508.166 353.637l3.192.015.808-.01.006 2.461.798.02.015 3.256-1.648.006-.801 3.297h-1.593l-1.604-.002-.002-3.302-1.578.002.003-1.643.014-4.107z" vector-effect="non-scaling-stroke" fill="inherit" stroke="inherit" stroke-width="inherit"><title>Okmulgee County</title></path><path id="county-40101" class="county feature" d="M519.682 354.415l2.079-.007.024 3.275-.056 2.115 1.256 1.266-2.881 3.757-1.54-.596-.044-4.873-5.535.027-.015-3.256-.798-.02-.006-2.462 1.739-.013.16 1.234z" vector-effect="non-scaling-stroke" fill="inherit" stroke="inherit" stroke-width="inherit"><title>Muskogee County</title></path><path id="county-40039" class="county feature" d="M469.168 353.927v4.916l-.052 1.646-11.162-.37.029-.821.03-5.72z" vector-effect="non-scaling-stroke" fill="inherit" stroke="inherit" stroke-width="inherit"><title>Custer County</title></path><path id="county-40017" class="county feature" d="M483.512 355.882l-.078 6.57-.013.758v.02l-2.576-.002-1.555-.808-2.263-.105-3.174-.064-.023-3.285.08-3.267 1.595.036z" vector-effect="non-scaling-stroke" fill="inherit" stroke="inherit" stroke-width="inherit"><title>Canadian County</title></path><path id="county-40109" class="county feature" d="M491.519 356.032l-.065 4.905-.025 1.641-7.995-.126.078-6.57z" vector-effect="non-scaling-stroke" fill="inherit" stroke="inherit" stroke-width="inherit"><title>Oklahoma County</title></path><path id="county-40135" class="county feature" d="M526.595 357.637l5.037-.071.696 4.538-.011.309-.93 1.508-2.4.234-1.382-1.21-1.027.633-.429-.89-3.164-1.624-1.256-1.266.056-2.115z" vector-effect="non-scaling-stroke" fill="inherit" stroke="inherit" stroke-width="inherit"><title>Sequoyah County</title></path><path id="county-40107" class="county feature" d="M505.762 357.737l-.003 1.643 1.578-.002.002 3.302 1.604.001v1.639l-6.958-.019.015-3.338-1.414 1.423-1.337-.185-.009-1.169.087-3.321z" vector-effect="non-scaling-stroke" fill="inherit" stroke="inherit" stroke-width="inherit"><title>Okfuskee County</title></path><path id="county-40091" class="county feature" d="M518.564 364.225l-1.693-.217-2.157 1.577-5.808 1.34.037-2.605v-1.639l1.593.001.8-3.297 1.65-.006 5.534-.027z" vector-effect="non-scaling-stroke" fill="inherit" stroke="inherit" stroke-width="inherit"><title>McIntosh County</title></path><path id="county-40015" class="county feature" d="M473.83 358.966l.023 3.285 3.174.064-.163 9.848-8.01-.198.104-4.566.158-6.91.051-1.646z" vector-effect="non-scaling-stroke" fill="inherit" stroke="inherit" stroke-width="inherit"><title>Caddo County</title></path><path id="county-40009" class="county feature" d="M457.983 359.298l-.029.82-.178 6.563-.74.017-5.648-.258-.07 1.633-1.6-.068-1.695-.091.12-2.85.19-4.51 6.4.269.067-1.642z" vector-effect="non-scaling-stroke" fill="inherit" stroke="inherit" stroke-width="inherit"><title>Beckham County</title></path><path id="county-40133" class="county feature" d="M501.985 364.301l-.015 3.284-.74-.005-.025 3.866-3.638.97-.686-.799.062-9.604 2.306.188 1.337.185 1.414-1.423z" vector-effect="non-scaling-stroke" fill="inherit" stroke="inherit" stroke-width="inherit"><title>Seminole County</title></path><path id="county-40149" class="county feature" d="M469.116 360.49l-.158 6.909-1.946-.412-9.236-.306.178-6.563z" vector-effect="non-scaling-stroke" fill="inherit" stroke="inherit" stroke-width="inherit"><title>Washita County</title></path><path id="county-40125" class="county feature" d="M499.24 361.032l.009 1.17-2.306-.189-.062 9.604-2.343-1.235-1.313 1.06-1.913-.48.117-8.384.025-1.641z" vector-effect="non-scaling-stroke" fill="inherit" stroke="inherit" stroke-width="inherit"><title>Pottawatomie County</title></path><path id="county-40061" class="county feature" d="M526.578 363.578l.007 2.28-1.705.026.03 2.707-6.386.053-.013-1.916-1.603.007-.037-2.727 1.693.217 1.54.596 2.881-3.757 3.164 1.623z" vector-effect="non-scaling-stroke" fill="inherit" stroke="inherit" stroke-width="inherit"><title>Haskell County</title></path><path id="county-40079" class="county feature" d="M532.221 370.832l-.035 3.86-.042 4.173-7.264.11-.043-3.275-1.853.022-.032-3.28.91-1.637 1.073-.029-.025-2.185-.03-2.707 1.705-.026-.007-2.28 1.027-.633 1.383 1.21 2.399-.234.93-1.508z" vector-effect="non-scaling-stroke" fill="inherit" stroke="inherit" stroke-width="inherit"><title>Le Flore County</title></path><path id="county-40051" class="county feature" d="M483.42 363.23l-.11 9.057-.063 3.271-6.411-.128.028-3.267.163-9.848 2.263.105 1.555.808z" vector-effect="non-scaling-stroke" fill="inherit" stroke="inherit" stroke-width="inherit"><title>Grady County</title></path><path id="county-40027" class="county feature" d="M491.43 362.578l-.118 8.383-3.01-.656-.37-2.278-4.511-4.817.013-.758z" vector-effect="non-scaling-stroke" fill="inherit" stroke="inherit" stroke-width="inherit"><title>Cleveland County</title></path><path id="county-40087" class="county feature" d="M491.312 370.961l1.913.481 1.313-1.06-.053 2.07-11.175-.165.11-9.056v-.02l4.512 4.816.37 2.278z" vector-effect="non-scaling-stroke" fill="inherit" stroke="inherit" stroke-width="inherit"><title>McClain County</title></path><path id="county-40121" class="county feature" d="M516.87 364.008l.038 2.727 1.603-.007.013 1.916-2.396.578-.076 6.545.014 1.637-2.402.016-3.208.014-.002-1.637-3.198-.001.007-1.64.049-5.313 1.594-1.918 5.808-1.34z" vector-effect="non-scaling-stroke" fill="inherit" stroke="inherit" stroke-width="inherit"><title>Pittsburg County</title></path><path id="county-40063" class="county feature" d="M508.943 364.32l-.037 2.605-1.594 1.918-.049 5.313-4.789-.012.017-2.652-1.286-.046.025-3.866.74.005.015-3.284z" vector-effect="non-scaling-stroke" fill="inherit" stroke="inherit" stroke-width="inherit"><title>Hughes County</title></path><path id="county-40075" class="county feature" d="M468.958 367.399l-.104 4.566-3.135-.1-.146 4.913-2.67-.08-1.526-.871.798-1.177-1.458-.058.167-2.724-1.57.42-.887-.7-.348-3.162-1.043-1.728.74-.017 9.236.306z" vector-effect="non-scaling-stroke" fill="inherit" stroke="inherit" stroke-width="inherit"><title>Kiowa County</title></path><path id="county-40055" class="county feature" d="M457.036 366.698l1.043 1.728.348 3.162.887.7-2.411.086-.338 1.648-3.708-.13-.78-.859-.05-3.311-2.375-.093.067-1.624 1.598.068.07-1.633z" vector-effect="non-scaling-stroke" fill="inherit" stroke="inherit" stroke-width="inherit"><title>Greer County</title></path><path id="county-40077" class="county feature" d="M524.91 368.591l.025 2.185-1.073.03-.91 1.635.032 3.28-6.932.046.076-6.545 2.396-.578z" vector-effect="non-scaling-stroke" fill="inherit" stroke="inherit" stroke-width="inherit"><title>Latimer County</title></path><path id="county-40057" class="county feature" d="M449.719 368.005l-.067 1.624 2.374.093.05 3.311.781.859-.157 4.075-2.695-.074-1.168-1.336-1.143.216.104-3.499.225-5.36z" vector-effect="non-scaling-stroke" fill="inherit" stroke="inherit" stroke-width="inherit"><title>Harmon County</title></path><path id="county-40123" class="county feature" d="M496.881 371.617l.686.799 3.638-.97 1.286.046-.017 2.652-.007 1.647-1.612-.004-.04 3.287-4.789-.047.015-1.64-1.59-.836.034-4.1.053-2.069z" vector-effect="non-scaling-stroke" fill="inherit" stroke="inherit" stroke-width="inherit"><title>Pontotoc County</title></path><path id="county-40065" class="county feature" d="M461.377 375.827l-.95.91-1.242 3.028.36 1.673-2.46-2.38-.378 1.533-1.16-.407-1.592-.455-1.782.659-2.168-2.495 2.695.074.157-4.075 3.708.13.338-1.648 2.411-.087 1.57-.42-.167 2.725 1.458.058z" vector-effect="non-scaling-stroke" fill="inherit" stroke="inherit" stroke-width="inherit"><title>Jackson County</title></path><path id="county-40031" class="county feature" d="M468.854 371.965l8.01.198-.028 3.267-.793-.013-.079 3.279-1.556-.04-.82 1.076-3.19-.087-2.424.751.048-1.91-2.498-.07.05-1.638.145-4.913z" vector-effect="non-scaling-stroke" fill="inherit" stroke="inherit" stroke-width="inherit"><title>Comanche County</title></path><path id="county-40049" class="county feature" d="M494.485 372.452l-.035 4.1-4.072.217.816 2.198-3.172-.046-3.21-.052.048-3.28-1.613-.03.063-3.272z" vector-effect="non-scaling-stroke" fill="inherit" stroke="inherit" stroke-width="inherit"><title>Garvin County</title></path><path id="county-40029" class="county feature" d="M507.263 374.156l-.007 1.64.003 3.283-.814 1.646-4.01-.01-1.629-.027.009-1.614.04-3.287 1.612.004.007-1.647z" vector-effect="non-scaling-stroke" fill="inherit" stroke="inherit" stroke-width="inherit"><title>Coal County</title></path><path id="county-40137" class="county feature" d="M483.247 375.558l1.613.03-.049 3.281-.073 4.1-8.822-.183.048-4.09.08-3.28.792.014z" vector-effect="non-scaling-stroke" fill="inherit" stroke="inherit" stroke-width="inherit"><title>Stephens County</title></path><path id="county-40005" class="county feature" d="M513.664 377.42l.01 1.639-1.648.014.02 6.58-3.264.002-6.373-.022.026-4.918 4.01.01.814-1.646-.003-3.283 3.198.001.002 1.637z" vector-effect="non-scaling-stroke" fill="inherit" stroke="inherit" stroke-width="inherit"><title>Atoka County</title></path><path id="county-40127" class="county feature" d="M522.984 375.722l1.853-.022.043 3.276-1.666.01.05 4.961-1.6.012-.068 1.636-9.55.058-.02-6.58 1.649-.014-.011-1.639 2.402-.016-.014-1.637z" vector-effect="non-scaling-stroke" fill="inherit" stroke="inherit" stroke-width="inherit"><title>Pushmataha County</title></path><path id="county-40099" class="county feature" d="M494.45 376.551l1.59.835-.014 1.641-.81-.005-.036 3.255-.802-.002-1.644-.824-4.747-.073.035-2.457 3.172.046-.816-2.198z" vector-effect="non-scaling-stroke" fill="inherit" stroke="inherit" stroke-width="inherit"><title>Murray County</title></path><path id="county-40141" class="county feature" d="M465.573 376.778l-.049 1.638 2.498.07-.048 1.91.769 1.382-.102 3.323-2.394.321-2.823-1.517-3.61-.144-.269-2.323-.36-1.673 1.242-3.029.95-.91 1.527.871z" vector-effect="non-scaling-stroke" fill="inherit" stroke="inherit" stroke-width="inherit"><title>Tillman County</title></path><path id="county-40019" class="county feature" d="M488.022 378.921l-.035 2.457 4.747.073 1.644.824-.03 3.014-.586 1.909-9.064-.126.04-4.103.073-4.1z" vector-effect="non-scaling-stroke" fill="inherit" stroke="inherit" stroke-width="inherit"><title>Carter County</title></path><path id="county-40069" class="county feature" d="M496.026 379.027l4.789.047-.009 1.614 1.63.027-.027 4.918-.714.804-2.016-.012-1.297-1.097-4.034-.04.03-3.013.802.002.035-3.255z" vector-effect="non-scaling-stroke" fill="inherit" stroke="inherit" stroke-width="inherit"><title>Johnston County</title></path><path id="county-40033" class="county feature" d="M475.964 378.696l-.048 4.09-.04 2.756-.497.535-2.97-.879-.943 1.375-.974.351-1.851-1.823.102-3.323-.77-1.382 2.425-.751 3.19.087.82-1.075z" vector-effect="non-scaling-stroke" fill="inherit" stroke="inherit" stroke-width="inherit"><title>Cotton County</title></path><path id="county-40089" class="county feature" d="M532.144 378.865l-.035 5.98-.035 4.685-.042 5.703-4.033-1.164-.496-1.125-1.295.378-1.69-2.199-2.874-1.381-.048-4.147.068-1.636 1.6-.012-.05-4.96 1.666-.011z" vector-effect="non-scaling-stroke" fill="inherit" stroke="inherit" stroke-width="inherit"><title>McCurtain County</title></path><path id="county-40067" class="county feature" d="M484.738 382.969l-.04 4.103-.063 3.218-1.915-1.673-2.842 2.544-1.658-.8.541-1.87-2.101-.28-.784-2.669.04-2.756z" vector-effect="non-scaling-stroke" fill="inherit" stroke="inherit" stroke-width="inherit"><title>Jefferson County</title></path><path id="county-40095" class="county feature" d="M499.68 386.425l.55.894-1.17 1.09.544 2.146-1.02-.362-1.822 1.485-1.478-.405-.998-1.878-.524-2.197.586-1.91 4.034.04z" vector-effect="non-scaling-stroke" fill="inherit" stroke="inherit" stroke-width="inherit"><title>Marshall County</title></path><path id="county-40013" class="county feature" d="M508.782 385.655l.826.597.008 3.232 1.493 1.49 1.243.002-1.33.64-1.372-.897-2.364.57-1.385 1.815-3.09.65-.693-.962-3.128-1.292.614-.945-.544-2.146 1.17-1.09-.55-.894 2.015.012.714-.804z" vector-effect="non-scaling-stroke" fill="inherit" stroke="inherit" stroke-width="inherit"><title>Bryan County</title></path><path id="county-40023" class="county feature" d="M521.596 385.595l.048 4.147-.981-.478-1.407 1.597-3.696-.18-.739-.975-2.47 1.27-1.242-.002-1.493-1.49-.008-3.232-.826-.597 3.264-.002z" vector-effect="non-scaling-stroke" fill="inherit" stroke="inherit" stroke-width="inherit"><title>Choctaw County</title></path><path id="county-40085" class="county feature" d="M493.762 387.198l.524 2.197-.156.098-2.346 2.89-.198 1.37-1.48-1.523.3-1.886-1.898.217-.99 1.29-1.371-.414-.315-1.42-1.197.273.063-3.218z" vector-effect="non-scaling-stroke" fill="inherit" stroke="inherit" stroke-width="inherit"><title>Love County</title></path></g><path id="counties-mesh" class="counties mesh" d="M517.41 332.072l-.35 1.068.04 6.509-5.619.024-.013-6.493.343-1.084m-3.16.011l-.006 10.845-.01 4.946-3.984-.019.223-1.161-1.494-.239-1.897-1.877-1.026.676-1.215-2.382-1.263-.39-.746-2.272-1.616 1.775-1.974-.707 1.474-1.706-2.1.047-.126-1.728 1.9.055.7-1.264 2.02-.554.075-4.09m-26.51-.456l-.106 10.098-1.163 1.33-2.538-1.166-.886-1.104-1.734-.065-.196-1.747-2.299-3.544-2.277-.766-2.256-3.474m65.7.85l.182 6.2-.065 3.033-4.787.033-.022-1.645-1.53.01m-5.618.024l-.03 3.278h-2.806m-21.583-11.007l-.123 7.637-9.535-.178.063-7.628m-.063 7.628l-.054 2.459-6.38-.158m22.046-2.061l-6.06-.062h-.017m-67.27-10.188l-.658 9.264-1.923-.12-12.465-.866.699-9.395 14.136 1.095.21.022 6.973.383 7.208.355 1.785.084 4.613.201 8.026.33 1.281.064 6.811.309 1.256.049 6.73.229 6.724.21 2.915.085 3.477.083 4.57.083 5.025.086 4.644.058 5.88.06 3.313.027 7.752.018.535-.004 2.625-.007 3.902-.015 1.696-.01 4.936-.044.976-.008 5.752-.061.053 4.382.038 1.859-5.661.018m-63.626-3.575l-.147 4.229-4.61-.123-5.895-.244.33-7.694m-13.921-.595l-.612 9.385-1.946-.096-8.004-.456-6.061-.391m30.214-.153l-.09 1.76-8.052-.355-6.061-.309m29.627 1.099l-.133 6.509-6.37-.265-3.187-.113.162-8.082m74.043-.549l.046 3.177.913 6.348-3.496.06-3.2.027.011-6.56m-29.795.051l-.366 3.27 1.6.016-.017 1.638-3.223-.034-.025 1.643-3.18-.04-1.59-.124.113-8.09m31.696 1.703l-1.595.012-.021 8.2-1.965.009-.71-1.645-2.144.006-.799.003.033-4.918m-24.608 4.72l-3.211-.057-6.395-.131.114-5.621m-19.203 5.08l-.08 2.853-1.22.116-1.575 2.59-.893.395-2.333-.945-.456-2.202-2.893 2.18.139-3.298.298-8.366m55.517 7.614l-.445-.006-4.831.02-2.954-.006.014-1.646-1.575-.015m28.567 1.585l-1.598.02.02 1.643-1.341.007-3.473.015m-39.799-2.013l-1.592-.037-6.367-.162-4.76-.076m47.699.658l.012 4.935-.87.851-3.192-.015.05-4.118-4.004-.015-.006-1.631m-4.831.02l-.027 4.118-7.775-.081-3.182-.853.041-3.281m-4.801-.182l-.12 8.268-8.006-.147.14-8.289m-.14 8.289l-1.595-.036-.08 3.267-4.663-.123.001-4.916.11-6.643m-.11 6.643l-11.155-.349.054-3.783m50.099 3.842l-2.39-.007-.014 4.107-6.435-.026.021-5.7m21.16-2.53l-1.102 2.007.8 1.838-.524 1.09-5.617.446-.16-1.234-1.74.013-.807.011m15.27-5.868l-.033 9.853-4.81.046-.024-3.275-2.08.007m10.442-6.691l.183 1.122.982 6.452.344 2.268-5.037.071m-68.582-4.059l-.03 5.72-3.183-.117-.067 1.642-6.4-.268.156-3.705.208-4.92m50.63 5.781l-.087 3.321-7.786-.095.065-4.905m20.647-2.39l.006 2.461.798.02.015 3.256-1.648.006-.801 3.297h-1.593l-1.604-.002-.002-3.302-1.578.002.003-1.643m16.023-.054l-.056 2.115 1.256 1.266-2.881 3.757-1.54-.596-.044-4.873-5.535.027m-43.818-.536l-.05 1.646-11.163-.37.029-.821m33.59-7.368l-.054 4.102-8.007-.15-.078 6.57-.013.758v.02l-2.576-.002-1.555-.808-2.263-.105-3.174-.064-.023-3.285m17.624 1.97l-.025 1.642-7.995-.126m48.198-4.886l.696 4.538-.011.309-.93 1.508-2.4.234-1.382-1.21-1.027.633-.429-.89-3.164-1.624m-14.042 1.617v1.639l-6.958-.019.015-3.338-1.414 1.423-1.337-.185-.009-1.169m-41.286-.914l-.178 6.563-.74.017-5.648-.258-.07 1.633-1.6-.068-1.695-.091.12-2.85.19-4.51m70.231 3.671l-1.693-.217-2.157 1.577-5.808 1.34.037-2.605m-31.916-2.005l-.163 9.848-8.01-.198.104-4.566.158-6.91m32.869 3.812l-.015 3.284-.74-.005-.025 3.866-3.638.97-.686-.799.062-9.604 2.306.188m-30.29 5.198l-1.947-.412-9.236-.306m39.105 4.936l-2.343-1.235-1.313 1.06-1.913-.48.117-8.384m35.149 1l.007 2.28-1.705.026.03 2.707-6.386.053-.013-1.916-1.603.007-.037-2.727m15.446-1.595l-.096 8.419-.035 3.86-.042 4.173-7.264.11-.043-3.275-1.853.022-.032-3.28.91-1.637 1.073-.029-.025-2.185m-41.49-5.36l-.11 9.056-.063 3.271-6.411-.128.028-3.267m14.448-1.202l-3.01-.656-.37-2.278-4.511-4.817m11.117 7.172l-.053 2.07-11.175-.165m35.214-3.643l-2.396.578-.076 6.545.014 1.637-2.402.016-3.208.014-.002-1.637-3.198-.001.007-1.64.049-5.313 1.594-1.918m-1.643 7.231l-4.789-.012.017-2.652-1.286-.046m-48.348 2.446l-.157 4.075-2.695-.074-1.168-1.336-1.143.216.104-3.499.225-5.36m20.831 4.05l-3.135-.1-.146 4.914-2.67-.08-1.526-.871.798-1.177-1.458-.058.167-2.724-1.57.42-.887-.7-.348-3.162-1.043-1.728m2.278 5.59l-2.411.086-.338 1.648-3.708-.13-.78-.859-.05-3.311-2.375-.093.067-1.624m73.265 7.717l-6.932.045m-13.578-1.623l-.007 1.647-1.612-.004-.04 3.287-4.789-.047.015-1.64-1.59-.836.034-4.1m-33.108 3.376l-.95.91-1.242 3.028.36 1.673-2.46-2.38-.378 1.533-1.16-.407-1.592-.455-1.782.659-2.168-2.495m26.831-2.463l-.793-.013-.079 3.279-1.556-.04-.82 1.076-3.19-.087-2.424.751.048-1.91-2.498-.07.05-1.638m28.876-.227l-4.072.218.816 2.198-3.172-.046-3.21-.052.048-3.28-1.613-.03m24.01.237l.002 3.283-.814 1.646-4.01-.01-1.629-.027.009-1.614m-16.004-.205l-.073 4.1-8.822-.183.048-4.09m37.7-1.276l.01 1.639-1.648.014.02 6.58-3.264.002-6.373-.022.026-4.918m22.445-1.74l-1.666.011.05 4.961-1.6.012-.068 1.636-9.55.058m-16.02-6.626l-.81-.005-.036 3.255-.802-.002-1.644-.824-4.747-.073.035-2.457m-20.048 1.475l.769 1.382-.102 3.323-2.394.321-2.823-1.517-3.61-.144-.269-2.323m34.833.837l-.03 3.014-.586 1.909-9.064-.126.04-4.103m17.67 2.664l-.713.804-2.016-.012-1.297-1.097-4.034-.04m-18.432-2.502l-.04 2.756-.497.535-2.97-.879-.943 1.375-.974.351-1.851-1.823m63.503-6.236l-.035 5.98-.035 4.685-.042 5.703-4.033-1.164-.496-1.125-1.295.378-1.69-2.199-2.874-1.381-.048-4.147m-36.898 1.477l-.063 3.218-1.915-1.673-2.842 2.544-1.658-.8.541-1.87-2.101-.28-.784-2.669m23.803.883l.551.894-1.17 1.09.544 2.146-1.02-.362-1.822 1.485-1.478-.405-.998-1.878-.524-2.197m15.02-1.543l.826.597.008 3.232 1.493 1.49 1.243.002-1.33.64-1.372-.897-2.364.57-1.385 1.815-3.09.65-.693-.962-3.128-1.292.614-.945m22.04-.813l-.981-.478-1.407 1.597-3.696-.18-.739-.975-2.47 1.27m-18.065-1.58l-.156.097-2.346 2.89-.198 1.37-1.48-1.523.3-1.886-1.898.217-.99 1.29-1.371-.414-.315-1.42-1.197.273" vector-effect="non-scaling-stroke" fill="inherit" stroke="inherit" stroke-width="inherit"/></svg>