<svg xmlns="http://www.w3.org/2000/svg" version="1.2" id="root" viewBox="150.58223304356966 60.793553936507124 99.26537138996889 72.41437678018781"><g id="counties"><path id="county-53073" class="county feature" d="M203.856 67.166l.791 1.096-.403 3.174.667 1.286-1.484.878-1.99-.215-18.951-5.338.465-1.724-1.707-1.115-1.198-3.506 1.042-.908 11.89 3.462z" vector-effect="non-scaling-stroke" fill="inherit" stroke="inherit" stroke-width="inherit"><title>Whatcom County</title></path><path id="county-53047" class="county feature" d="M228.07 73.375l-4.77 18.67-1.548-.11-.028-.36.637-.924-.821-2.476-1.06-.414-3.813.359-2.921.75-.028-1.78-2.655-.012-.204 1.795-2.177-.565-.67-2.172-2.18-2.552-.01-1.423-1.957-1.97-.43-4.181-.008-2.41 1.484-.878-.667-1.286.403-3.174-.79-1.096 9.508 2.518z" vector-effect="non-scaling-stroke" fill="inherit" stroke="inherit" stroke-width="inherit"><title>Okanogan County</title></path><path id="county-53065" class="county feature" d="M245.055 77.397l-2.298 2.571-1.545 3.07 1.576.357-2.193 9.388.437 1.766-1.204-.29-1.053 4.55-1.545-2.073-1.849.726-.633-.576-2.622.293-1.019-3.01-1.817.534-.034-2.42 1.96-.306.257-1.176 1.815-2-.063-3.373 2.396-3.94-.538-4.156.704-2.091z" vector-effect="non-scaling-stroke" fill="inherit" stroke="inherit" stroke-width="inherit"><title>Stevens County</title></path><path id="county-53051" class="county feature" d="M249.848 78.51l-.619 2.749-3.365 14.42-4.832-1.13-.437-1.766 2.193-9.388-1.576-.356 1.545-3.07 2.298-2.572z" vector-effect="non-scaling-stroke" fill="inherit" stroke="inherit" stroke-width="inherit"><title>Pend Oreille County</title></path><path id="county-53019" class="county feature" d="M235.787 75.24l-.704 2.092.538 4.155-2.396 3.94.063 3.373-1.815 2.001-.257 1.176-1.96.305.034 2.421-.426.904-1.993-1.114-.23-1.15-2.103.101-1.238-1.399 4.77-18.67z" vector-effect="non-scaling-stroke" fill="inherit" stroke="inherit" stroke-width="inherit"><title>Ferry County</title></path><path id="county-53055" class="county feature" d="M177.365 68.342l-.022 2.41-1.255-1.09zm-2.897-2.214l1.263 1.57-.772 1.762-.967-1.073zm3.45-.733l1.602 1.498-2.784.415-.458-1.228z" vector-effect="non-scaling-stroke" fill="inherit" stroke="inherit" stroke-width="inherit"><title>San Juan County</title></path><path id="county-53057" class="county feature" d="M179.338 71.648l-.196-1.607 1.223-.242 1.22 1.638.9-3.39 18.951 5.338 1.991.215.008 2.41-1.413-.636-2.774.212-1.31 3.04.744.63-16.703-4.66z" vector-effect="non-scaling-stroke" fill="inherit" stroke="inherit" stroke-width="inherit"><title>Skagit County</title></path><path id="county-53007" class="county feature" d="M203.435 76.01l.43 4.18 1.958 1.971.009 1.423 2.18 2.552.67 2.172 2.177.565-2.41 2.837-2.345-.267-1.367 2.726-1.236 1.238-.38 2.34 2.217 1.65-.461 1.307-3.643-.932-3.01-2.37-1.307-1.87-1.442-.594-1.532-3.56 1.098-1.8-.279-1.49.823-.68-1-1.644 1.02-2.453 1.851-.163 1.747-1.228-.52-2.664-.745-.63 1.31-3.04 2.774-.212z" vector-effect="non-scaling-stroke" fill="inherit" stroke="inherit" stroke-width="inherit"><title>Chelan County</title></path><path id="county-53029" class="county feature" d="M181.491 75.356l.011.405-1.285.676.754 1.912-1.367-1.28.352-2.129zm-1.512-3.236l.56 1.995-1.89-.223-1.238.736 1.422.762-.184 3.668.606-1.38 1.488 1.62-.662 2.275-2.154-3.015.561-2.264-1.538-1.745 2.198-2.776z" vector-effect="non-scaling-stroke" fill="inherit" stroke="inherit" stroke-width="inherit"><title>Island County</title></path><path id="county-53009" class="county feature" d="M174.234 76.834l-1.29 3.444-6.798-1.994.071-.254-13.291-4.038.13-5.547 2.325-3.516 2.402 2.68 1.577.924 2.69 2.756 3.311.94 3.47 2.068 3.557.321z" vector-effect="non-scaling-stroke" fill="inherit" stroke="inherit" stroke-width="inherit"><title>Clallam County</title></path><path id="county-53061" class="county feature" d="M198.682 79.256l.52 2.664-1.746 1.228-1.85.163-1.022 2.453 1.001 1.644-.823.68-15.553-4.283 1.955-2.746 1.747-1.157-1.457-1.634.048-2.507-.011-.405.488-.76z" vector-effect="non-scaling-stroke" fill="inherit" stroke="inherit" stroke-width="inherit"><title>Snohomish County</title></path><path id="county-53017" class="county feature" d="M221.724 91.575l-1.49-.364-1.659 1.003-.39 1.564-1.381 1.037-1.052 1.954-2.737.932-.401 1.55-4.238-.992-2.128 1.69-.49 1.79-.881-1.035.461-1.307-2.218-1.65.38-2.34 1.237-1.238 1.367-2.726 2.346.267 2.41-2.837.203-1.795 2.655.012.028 1.78 2.921-.75 3.813-.36 1.06.415.821 2.476z" vector-effect="non-scaling-stroke" fill="inherit" stroke="inherit" stroke-width="inherit"><title>Douglas County</title></path><path id="county-53031" class="county feature" d="M171.113 84.785l-6.276-1.867-.473 1.59-6.594-1.994-3.642-1.425.238-4.111-1.44-2.986 13.291 4.038-.07.254 6.796 1.994 1.29-3.444 1.539-.892 1.2 5.086-.932.14-1.928 2.587.224-2.505-1.97 2.778z" vector-effect="non-scaling-stroke" fill="inherit" stroke="inherit" stroke-width="inherit"><title>Jefferson County</title></path><path id="county-53063" class="county feature" d="M241.032 94.55l4.832 1.129-.286 1.231-2.458 11.066-.435 1.934-9.724-2.253 2.42-10.195 1.85-.726 1.544 2.074 1.053-4.55z" vector-effect="non-scaling-stroke" fill="inherit" stroke="inherit" stroke-width="inherit"><title>Spokane County</title></path><path id="county-53025" class="county feature" d="M221.724 91.575l.028.36-3.104 12.264-1.598 6.308-4.797-1.216-.802 3.16-1.306.784-.631-1.042-1.682 1.115-3.168-.494-.726-2.272.851-.958-.121-5.256 1.09-2.588.49-1.792 2.128-1.689 4.238.992.401-1.55 2.737-.932 1.052-1.954 1.381-1.037.39-1.564 1.658-1.003z" vector-effect="non-scaling-stroke" fill="inherit" stroke="inherit" stroke-width="inherit"><title>Grant County</title></path><path id="county-53043" class="county feature" d="M223.3 92.045l1.238 1.4 2.103-.102.23 1.15 1.993 1.114.426-.904 1.817-.535 1.019 3.011 2.622-.293.633.576-2.42 10.195-1.688-.396-12.625-3.062 3.104-12.265z" vector-effect="non-scaling-stroke" fill="inherit" stroke="inherit" stroke-width="inherit"><title>Lincoln County</title></path><path id="county-53035" class="county feature" d="M177.084 84.73l.092 2.205-1.088-.564zm-1.702 5.207l-.916-.266-.088-.024-2.036-.6.612-2.066-2.711-.79 1.816-1.416 2.23-.258 1.515-2.088 2.5-1.477-.413 3.138-.828-.392-1.514 3.098 1.065 1.438z" vector-effect="non-scaling-stroke" fill="inherit" stroke="inherit" stroke-width="inherit"><title>Kitsap County</title></path><path id="county-53033" class="county feature" d="M176.806 90.27l-1.424.792 1.51-2.77zm17.956-2.182l.28 1.49-1.1 1.8-1.375.167-3.367 2.021-.739 1.002 1.024 4.249-1.3.813-4.695-2.958-1.906.132-1.66-1.543-.267-1.298-2.35-.668-.702-1.408 1.282-.181-.023-4.396 1.13-.227-.892-1.353 1.107-1.925z" vector-effect="non-scaling-stroke" fill="inherit" stroke="inherit" stroke-width="inherit"><title>King County</title></path><path id="county-53045" class="county feature" d="M171.113 84.785l-.87 1.405 2.711.791-.612 2.067-.241.798-1.933.95-.645 1.316-2.12 1.411-1.624-.217-3.53-1.002 2.115-7.797.473-1.59z" vector-effect="non-scaling-stroke" fill="inherit" stroke="inherit" stroke-width="inherit"><title>Mason County</title></path><path id="county-53037" class="county feature" d="M204.877 100.704l.88 1.036-1.089 2.588.121 5.256-.85.958-6.667-1.756.415-1.554-1.548-.435.407-1.55-4.85-1.284-.4-1.643-1.885-2.395-1.227-.295 1.301-.813-1.024-4.25.739-1.001 3.367-2.02 1.376-.169 1.532 3.56 1.442.594 1.307 1.871 3.01 2.37z" vector-effect="non-scaling-stroke" fill="inherit" stroke="inherit" stroke-width="inherit"><title>Kittitas County</title></path><path id="county-53027" class="county feature" d="M164.364 84.507l-2.115 7.797 3.53 1.002.068 1.738-1.09 3.612-2.6-.743-8.925-2.72.118-2.109 1.05.532 3.088-.314-3.673-2.356.406-4.934-.655-1.622.562-3.301 3.642 1.425z" vector-effect="non-scaling-stroke" fill="inherit" stroke="inherit" stroke-width="inherit"><title>Grays Harbor County</title></path><path id="county-53053" class="county feature" d="M176.605 91.887l.702 1.408 2.35.668.266 1.298 1.66 1.543 1.907-.132 4.694 2.958-1.749 2.683-1.07.668.4 1.84-3.758-1.05-1.189.748-4.404-1.914-1.15-1.892-1.863-.968-1.25-2.493-.112-2.363 1.833-1.165 1.294-2.174zm-2.14-2.216l.917.266-1.173 2.545-.9-.89zm-2.364.175l.24-.798 2.037.599-1.469.84-1.298 2.927-.47-1.605z" vector-effect="non-scaling-stroke" fill="inherit" stroke="inherit" stroke-width="inherit"><title>Pierce County</title></path><path id="county-53001" class="county feature" d="M231.273 107.26l-1.453 6.256-1.202 2.093-2.688.35-14.48-3.509.803-3.159 4.797 1.216 1.598-6.308z" vector-effect="non-scaling-stroke" fill="inherit" stroke="inherit" stroke-width="inherit"><title>Adams County</title></path><path id="county-53075" class="county feature" d="M232.96 107.657l9.725 2.253-.535 2.394-2.39 10.624-.479 2.103-1.985-.336-.232-.86.026-1.58-2.13-3.446-3.496-.613-1.54.888-4.315.28-.397-.707.718-2.699 2.688-.349 1.202-2.093 1.453-6.255z" vector-effect="non-scaling-stroke" fill="inherit" stroke="inherit" stroke-width="inherit"><title>Whitman County</title></path><path id="county-53067" class="county feature" d="M172.039 94.889l.112 2.363 1.25 2.493 1.864.968 1.149 1.892-11.814-3.433.157-.516 1.09-3.612-.068-1.738 1.623.217 2.02-.831-1.24 1.528 1.198.337 1.623-1.514z" vector-effect="non-scaling-stroke" fill="inherit" stroke="inherit" stroke-width="inherit"><title>Thurston County</title></path><path id="county-53077" class="county feature" d="M203.938 110.542l.726 2.272-2.627 10.633-9.127-2.379-11.654-3.21 1.713-6.19 1.603.428.009-2.781 1.993-2.889-.808-1.604-.402-1.841 1.071-.668 1.75-2.683 1.226.295 1.885 2.395.4 1.643 4.85 1.284-.407 1.55 1.548.435-.415 1.554z" vector-effect="non-scaling-stroke" fill="inherit" stroke="inherit" stroke-width="inherit"><title>Yakima County</title></path><path id="county-53049" class="county feature" d="M162.156 97.913l-1.997 7.33-4.546-1.383-.53 1.684-2.113.348-1.37-1.882-1.018.584 2.423-5.356-.952 3.773.707.146 1.644-2.844-.444-1.389 2.047-1.411-2.033-.369-.742-1.952z" vector-effect="non-scaling-stroke" fill="inherit" stroke="inherit" stroke-width="inherit"><title>Pacific County</title></path><path id="county-53041" class="county feature" d="M164.757 98.656l-.157.516 11.814 3.433 4.404 1.914 1.189-.748 3.759 1.05.808 1.605-1.993 2.889-.009 2.78-1.603-.428-8.942-2.432-12.124-3.498-1.744-.494 1.997-7.33z" vector-effect="non-scaling-stroke" fill="inherit" stroke="inherit" stroke-width="inherit"><title>Lewis County</title></path><path id="county-53021" class="county feature" d="M225.212 118.657l-.146-.125-2.79-.732-2.44 1.18-.662 1.626-2.29 1.756-3.778.95-2.471-2.25 1.067-4.442-1.557-3.385 1.306-.785 14.48 3.508z" vector-effect="non-scaling-stroke" fill="inherit" stroke="inherit" stroke-width="inherit"><title>Franklin County</title></path><path id="county-53005" class="county feature" d="M213.106 123.311l.65 1.366-.825 2.296-2.062.778-3.92-.7-1.728-.575-1.555.926-2.596-.261.967-3.694 2.627-10.633 3.168.494 1.682-1.115.631 1.042 1.557 3.385-1.067 4.443z" vector-effect="non-scaling-stroke" fill="inherit" stroke="inherit" stroke-width="inherit"><title>Benton County</title></path><path id="county-53023" class="county feature" d="M237.064 123.834l-.206.927-2.52-.04-1.089 4.748-.761-.177-.524 2.256-1.55-.378 1.314-6.193-.8-.168-.216-2.609-1.584-.362.797-2.754 1.54-.888 3.495.613 2.13 3.447z" vector-effect="non-scaling-stroke" fill="inherit" stroke="inherit" stroke-width="inherit"><title>Garfield County</title></path><path id="county-53013" class="county feature" d="M230.415 131.17l-4.733-1.14-.245-.059.957-3.739-1.578-.374.38-1.587-1.577-.368 1.447-5.371.146.125.397.706 4.316-.28-.797 2.755 1.584.362.217 2.61.799.167z" vector-effect="non-scaling-stroke" fill="inherit" stroke="inherit" stroke-width="inherit"><title>Columbia County</title></path><path id="county-53071" class="county feature" d="M225.066 118.532l-1.447 5.37 1.578.369-.381 1.587 1.578.374-.957 3.74-12.506-3 .825-2.295-.65-1.366 3.779-.95 2.29-1.755.66-1.626 2.44-1.18z" vector-effect="non-scaling-stroke" fill="inherit" stroke="inherit" stroke-width="inherit"><title>Walla Walla County</title></path><path id="county-53003" class="county feature" d="M239.281 125.031l-.533 1.416.967 3.581-.754 1.175.129 2.005-7.126-1.66.524-2.256.761.177 1.089-4.747 2.52.039.206-.927.232.861z" vector-effect="non-scaling-stroke" fill="inherit" stroke="inherit" stroke-width="inherit"><title>Asotin County</title></path><path id="county-53059" class="county feature" d="M182.97 111.667l-1.714 6.19-1.11-.302-1.249 4.712.796 1.34-3.676-.658-1.726.623-4.626.664 2.62-9.075 1.742-5.926z" vector-effect="non-scaling-stroke" fill="inherit" stroke="inherit" stroke-width="inherit"><title>Skamania County</title></path><path id="county-53015" class="county feature" d="M174.027 109.235l-1.742 5.926-1.918 1.325-1.904-1.06-3.053.485-.916.964-.267-4.604-2.148-2.605-1.222-.113.002-.056 1.044-3.76z" vector-effect="non-scaling-stroke" fill="inherit" stroke="inherit" stroke-width="inherit"><title>Cowlitz County</title></path><path id="county-53069" class="county feature" d="M160.159 105.243l1.744.494-1.044 3.76-.943.204-1.584-2.755-3.25-1.402.53-1.684z" vector-effect="non-scaling-stroke" fill="inherit" stroke="inherit" stroke-width="inherit"><title>Wahkiakum County</title></path><path id="county-53011" class="county feature" d="M172.285 115.16l-2.62 9.076-4.515-2.425-1.27-1.167.267-1.492.347-2.277.916-.964 3.053-.486 1.904 1.061z" vector-effect="non-scaling-stroke" fill="inherit" stroke="inherit" stroke-width="inherit"><title>Clark County</title></path><path id="county-53039" class="county feature" d="M202.037 123.447l-.967 3.694-1.767-.002-3.126.89-3.518-.356-1.958-1.333-3.77.845-3.66-.513.036-.955-2.72-1.332-.894-.778-.796-1.34 1.248-4.712 1.111.302 11.654 3.211z" vector-effect="non-scaling-stroke" fill="inherit" stroke="inherit" stroke-width="inherit"><title>Klickitat County</title></path></g><path id="counties-mesh" class="counties mesh" d="M203.856 67.166l.791 1.096-.403 3.174.667 1.286-1.484.878-1.99-.215-18.951-5.338.465-1.724-1.707-1.115-1.198-3.506 1.042-.908 11.89 3.462 10.878 2.91 9.509 2.518 14.705 3.691-4.77 18.67-1.548-.11-.028-.36.637-.924-.821-2.476-1.06-.414-3.813.359-2.921.75-.028-1.78-2.655-.012-.204 1.795-2.177-.565-.67-2.172-2.18-2.552-.01-1.423-1.957-1.97-.43-4.181-.008-2.41m41.628 3.797l-2.298 2.571-1.545 3.07 1.576.357-2.193 9.388.437 1.766-1.204-.29-1.053 4.55-1.545-2.073-1.849.726-.633-.576-2.622.293-1.019-3.01-1.817.534-.034-2.42 1.96-.306.257-1.176 1.815-2-.063-3.373 2.396-3.94-.538-4.156.704-2.091 9.268 2.156 4.793 1.113-.619 2.749-3.365 14.42-4.832-1.13m-11.742.154l-.426.904-1.993-1.114-.23-1.15-2.103.101-1.238-1.399m4.77-18.67l7.717 1.866m-58.422-6.9l-.022 2.41-1.255-1.088 1.277-1.321m-2.897-2.214l1.263 1.57-.772 1.762-.967-1.073.476-2.259m3.45-.733l1.602 1.498-2.784.415-.458-1.228 1.64-.685m25.517 10.615l-1.413-.636-2.774.212-1.31 3.04.744.63-16.703-4.66-2.641-2.948-.196-1.607 1.223-.242 1.22 1.638.9-3.39m28.374 20.826l-2.41 2.837-2.345-.267-1.367 2.726-1.236 1.238-.38 2.34 2.217 1.65-.461 1.307-3.643-.932-3.01-2.37-1.307-1.87-1.442-.594-1.532-3.56 1.098-1.8-.279-1.49.823-.68-1-1.644 1.02-2.453 1.851-.163 1.747-1.228-.52-2.664m-18.704-7.136l.56 1.995-1.89-.223-1.238.736 1.422.762-.184 3.668.606-1.38 1.488 1.62-.662 2.275-2.154-3.015.561-2.264-1.538-1.745 2.198-2.776.83.347m14.784 15.968l-15.553-4.283 1.955-2.746 1.747-1.157-1.457-1.634.048-2.507m-.011-.405l.011.405-1.285.676.754 1.912-1.367-1.28.352-2.129 1.535.416.488-.76m39.745 16.979l-1.49-.364-1.659 1.003-.39 1.564-1.381 1.037-1.052 1.954-2.737.932-.401 1.55-4.238-.992-2.128 1.69-.49 1.79-.881-1.035m-30.643-23.87l-1.29 3.444-6.798-1.994.071-.254-13.291-4.038.13-5.547 2.325-3.516 2.402 2.68 1.577.924 2.69 2.756 3.311.94 3.47 2.068 3.557.321 1.846 2.216 1.538-.892 1.2 5.086-.932.14-1.928 2.587.224-2.505-1.97 2.778-1.253.757-6.276-1.867-.473 1.59-6.594-1.994-3.642-1.425.238-4.111-1.44-2.986m92.938 21.687l-.286 1.231-2.458 11.066-.435 1.934-9.724-2.253 2.42-10.195m-13.63-5.528l-3.103 12.265-1.598 6.308-4.797-1.216-.802 3.16-1.306.784-.631-1.042-1.682 1.115-3.168-.494-.726-2.272.851-.958-.121-5.256 1.09-2.588m27.203 5.917l-1.688-.396-12.625-3.062M177.084 84.73l.092 2.205-1.088-.564.996-1.641m-.278 5.54l-1.424.792 1.51-2.77-.086 1.978m17.137 1.107l-1.376.168-3.367 2.021-.739 1.002 1.024 4.249-1.3.813-4.695-2.958-1.906.132-1.66-1.543-.267-1.298-2.35-.668-.702-1.408 1.282-.181-.023-4.396 1.13-.227-.892-1.353 1.107-1.925m-8.096.98l-.87 1.405m2.099 2.858l-.241.798-1.933.95-.645 1.316-2.12 1.411-1.624-.217-3.53-1.002 2.115-7.797m1.415 8.799l.068 1.738-1.09 3.612-2.6-.743-8.925-2.72.118-2.109 1.05.532 3.088-.314-3.673-2.356.406-4.934-.655-1.622.562-3.301m49.81 29.453l-6.666-1.756.415-1.554-1.548-.435.407-1.55-4.85-1.284-.4-1.643-1.885-2.395-1.227-.295-1.749 2.683-1.07.668.4 1.84-3.758-1.05-1.189.748-4.404-1.914-1.15-1.892-1.863-.968-1.25-2.493-.112-2.363 1.833-1.165 1.294-2.174 1.44.337m-1.224-1.95l-.916-.266-.088-.024-2.036-.6.612-2.066-2.711-.79 1.816-1.416 2.23-.258 1.515-2.088 2.5-1.477-.413 3.138-.828-.392-1.514 3.098 1.065 1.438-1.232 1.703-1.173 2.545-.9-.89 1.157-1.92m-.088-.025l-1.469.84-1.298 2.927-.47-1.605.96-1.963m59.172 17.415l-1.453 6.255-1.202 2.093-2.688.35-14.48-3.509m31.235-2.54l-.535 2.394-2.39 10.624-.479 2.103-1.985-.336-.232-.86.026-1.58-2.13-3.446-3.496-.613-1.54.888-4.315.28-.397-.707.718-2.699m-49.516-13.353L164.6 99.172l.157-.516m2.645-5.133l2.02-.831-1.24 1.528 1.198.337 1.623-1.514 1.036 1.846m32.625 17.925l-2.627 10.633-9.127-2.379-11.654-3.21 1.713-6.19 1.603.428.009-2.781 1.993-2.889-.808-1.604m-23.61-6.91l-1.997 7.331-4.546-1.383-.53 1.684-2.113.348-1.37-1.882-1.018.584 2.423-5.356-.952 3.773.707.146 1.644-2.844-.444-1.389 2.047-1.411-2.033-.369-.742-1.952m29.737 16.475l-8.942-2.432-12.124-3.498-1.744-.494m65.053 13.414l-.146-.125-2.79-.732-2.44 1.18-.662 1.626-2.29 1.756-3.778.95-2.471-2.25 1.067-4.442-1.557-3.385m2.961 10.076l.65 1.366-.825 2.296-2.062.778-3.92-.7-1.728-.575-1.555.926-2.596-.261.967-3.694m35.027.387l-.206.927-2.52-.04-1.089 4.748-.761-.177-.524 2.256-1.55-.378 1.314-6.193-.8-.168-.216-2.609-1.584-.362.797-2.754m.49 12.086l-4.733-1.14-.245-.059.957-3.739-1.578-.374.38-1.587-1.577-.368 1.447-5.371m.37 11.44l-12.505-3m26.35-1.941l-.533 1.416.967 3.581-.754 1.175.129 2.005-7.126-1.66m-50.708-13.69l-1.11-.303-1.249 4.712.796 1.34-3.676-.658-1.726.623-4.626.664 2.62-9.075 1.742-5.926m-1.742 5.926l-1.918 1.325-1.904-1.06-3.053.485-.916.964-.267-4.604-2.148-2.605-1.222-.113.002-.056 1.044-3.76m-1.044 3.76l-.943.204-1.584-2.755-3.25-1.402m14.583 18.692l-4.515-2.425-1.27-1.167.267-1.492.347-2.277m36.576 10.266l-1.767-.002-3.126.89-3.518-.356-1.958-1.333-3.77.845-3.66-.513.036-.955-2.72-1.332-.894-.778" vector-effect="non-scaling-stroke" fill="inherit" stroke="inherit" stroke-width="inherit"/></svg>