<?xml version="1.0" encoding="UTF-8" standalone="no"?>
<svg width="40px" height="40px" viewBox="1 1 30 30" version="1.1" xmlns="http://www.w3.org/2000/svg" xmlns:xlink="http://www.w3.org/1999/xlink">
    <!-- Generator: Sketch 39.1 (31720) - http://www.bohemiancoding.com/sketch -->
    <title>{{ include.caption }}</title>
    <desc>Created with Sketch.</desc>
    <defs>
        <circle id="path-1" cx="17" cy="17" r="17"></circle>
        <mask id="mask-2" maskContentUnits="userSpaceOnUse" maskUnits="objectBoundingBox" x="0" y="0" width="40" height="40" fill="white">
            <use xlink:href="#path-1"></use>
        </mask>
    </defs>
    <g id="Page-1" stroke="none" stroke-width="1" fill="none" fill-rule="evenodd">
        <g id="Artboard" transform="translate(-374.000000, -658.000000)">
            <g id="Group-6-Copy" transform="translate(374.000000, 658.000000)">
                <use id="Oval" stroke="#323C42" mask="url(#mask-2)" stroke-width="3" fill="#323C42" xlink:href="#path-1"></use>
                <path d="M23.9067102,18.5113847 C24.5672243,13.6220613 20.1434976,8.29223017 18.2618913,6.01939774 C18.0667039,5.77415053 17.7731421,5.65230796 17.5045643,5.65230796 C17.3577834,5.65230796 17.2110025,5.67730131 17.0892055,5.75071926 C16.6738468,5.94597978 16.4536754,6.38492543 16.5270659,6.85042651 C17.162596,10.2245283 16.8440502,12.0818463 16.3318785,12.7176146 C16.2584881,12.7910325 16.1850976,12.8894438 16.0867232,12.8894438 C16.0133327,12.8894438 15.8431293,12.8160259 15.6963484,12.6192033 C15.4027866,12.2536756 15.2809897,11.6663319 15.4027866,11.0789883 C15.4262091,11.0071324 15.4262091,10.9337145 15.4262091,10.8353032 C15.4262091,10.2979462 14.9874279,9.85743849 14.4736947,9.83244515 L14.4252882,9.83244515 L14.3518978,9.83244515 C14.1801329,9.83244515 14.0099295,9.9058631 13.8631486,10.0042744 C13.7897581,10.052699 13.7413516,10.1011236 13.6679612,10.1745416 L13.6429772,10.1995349 C11.3460122,12.986293 10.2951233,16.1401409 10.7104821,18.8784745 C10.9540759,20.5171007 11.7363869,21.9104798 12.9340567,22.9617624 C11.8581838,23.010187 11.0040439,23.9146337 11.0040439,24.9909097 C11.0040439,26.1156103 11.9081518,27.020057 13.0324311,27.020057 L21.7315421,27.020057 C22.8558214,27.020057 23.7614908,26.1156103 23.7614908,24.9909097 C23.7614908,23.8662091 22.8558214,22.9617624 21.7315421,22.9617624 L21.5129322,22.9617624 C22.8808054,21.6902259 23.6881004,20.1984356 23.9067102,18.5113847 L23.9067102,18.5113847 Z M14.4003042,10.8103098 C14.0583359,12.522354 15.0608183,13.8423152 16.0633007,13.8423152 C17.2594089,13.8423152 18.5070466,11.9600038 17.5045643,6.63017264 C20.3152625,10.052699 26.7673764,18.0958703 19.9732942,22.8633511 C19.9732942,22.8633511 22.4904306,20.0515996 18.8490149,16.4088194 C19.3127801,20.1015863 17.7247356,22.2525762 16.3068945,22.2525762 C15.4027866,22.2525762 14.5720691,21.3715608 14.3753202,19.4658181 C13.7413516,21.5183967 13.9849455,21.933911 14.2535233,22.7165152 C10.5637011,20.3218402 10.7838725,15.2107009 14.4003042,10.8103098 L14.4003042,10.8103098 Z M22.7340245,24.9659164 C22.7340245,25.5282667 22.2702593,25.9937677 21.7081196,25.9937677 L13.0074471,25.9937677 C12.4453075,25.9937677 11.9815423,25.5282667 11.9815423,24.9659164 C11.9815423,24.4035661 12.4453075,23.9396271 13.0074471,23.9396271 L21.7081196,23.9396271 C22.2702593,23.9396271 22.7340245,24.4035661 22.7340245,24.9659164 L22.7340245,24.9659164 Z M17.5529707,22.9367691 C17.894939,22.7415086 18.2134848,22.4962613 18.5070466,22.1541649 C19.0926088,21.4949654 19.5079675,20.6139499 19.7281389,19.612654 C20.1434976,21.152869 19.2877962,22.1307336 19.2393897,22.1791583 C19.0442023,22.3994121 18.9708118,22.6680906 18.9957958,22.9367691 L17.5529707,22.9367691 L17.5529707,22.9367691 Z"  fill="#FFFFFF"></path>
            </g>
        </g>
    </g>
</svg>