<svg width="14px" height="16px" class="icon icon-leading" xmlns="http://www.w3.org/2000/svg" viewBox="0 0 1536 1792"><path d="M1596,380q28,28,48,76t20,88V1696q0,40-28,68t-68,28H224q-40,0-68-28t-28-68V96q0-40,28-68T224,0h896q40,0,88,20t76,48ZM1152,136V512h376q-10-29-22-41L1193,158Q1181,146,1152,136Zm384,1528V640H1120q-40,0-68-28t-28-68V128H256V1664ZM512,800q0-14,9-23t23-9h704q14,0,23,9t9,23v64q0,14-9,23t-23,9H544q-14,0-23-9t-9-23Zm736,224q14,0,23,9t9,23v64q0,14-9,23t-23,9H544q-14,0-23-9t-9-23v-64q0-14,9-23t23-9Zm0,256q14,0,23,9t9,23v64q0,14-9,23t-23,9H544q-14,0-23-9t-9-23v-64q0-14,9-23t23-9Z" transform="translate(-128)"/></svg>
