<?xml version="1.0" encoding="UTF-8"?>
<svg width="45px" height="45px" viewBox="0 0 45 45" version="1.1" xmlns="http://www.w3.org/2000/svg" xmlns:xlink="http://www.w3.org/1999/xlink">
    <!-- Generator: Sketch 43.2 (39069) - http://www.bohemiancoding.com/sketch -->
    <title>Imported Layers Copy 6</title>
    <desc>Created with Sketch.</desc>
    <defs></defs>
    <g id="working" stroke="none" stroke-width="1" fill="none" fill-rule="evenodd">
        <g id="icons-&amp;-widgets" transform="translate(-728.000000, -373.000000)" fill="#5C737F">
            <g id="Group" transform="translate(554.000000, 359.000000)">
                <g id="Imported-Layers-Copy-6" transform="translate(174.000000, 14.000000)">
                    <path d="M22.2331234,44.435879 C10.013243,44.435879 0.0745498077,34.4906406 0.0745498077,22.2627128 C0.0745498077,10.034785 10.013243,0.0895465905 22.2331234,0.0895465905 C34.4530038,0.0895465905 44.391697,10.034785 44.391697,22.2627128 C44.391697,34.4906406 34.4530038,44.435879 22.2331234,44.435879 L22.2331234,44.435879 Z M22.2331234,2.58657304 C11.3912372,2.58657304 2.56993292,11.4136866 2.56993292,22.2627128 C2.56993292,33.111739 11.3912372,41.9388525 22.2331234,41.9388525 C33.0750097,41.9388525 41.8963139,33.111739 41.8963139,22.2627128 C41.8963139,11.4136866 33.0750097,2.58657304 22.2331234,2.58657304 L22.2331234,2.58657304 Z" ></path>
                    <path d="M28.2877296,35.5837595 C27.7165404,34.0905448 26.8990257,33.565419 25.9529935,32.9545585 C25.3889441,32.5901855 24.810615,32.218668 24.3036845,31.6506749 C23.5432888,30.7861822 22.2616829,29.3465518 22.8864211,27.9569333 C23.4968797,26.5994654 25.3639546,26.5994654 26.0672314,26.5994654 C26.6669801,26.5994654 26.9525747,26.2958213 27.0739525,26.1172071 C27.2310295,25.8778641 27.2667288,25.5920814 27.1667707,25.3563106 C26.67055,24.1631678 25.9958327,22.5306341 26.6669801,21.1945999 C26.8668963,20.7909318 27.2667288,20.2800952 28.0449742,19.9764511 C27.7700894,19.308434 26.9454349,18.1617309 26.5527422,17.6187437 C26.3492561,17.332961 26.1636196,17.0757566 26.0172523,16.8542749 C25.4781924,16.0469388 25.8458955,15.1824461 26.1993189,14.3501039 C26.6919696,13.1855394 26.9989839,12.3031853 26.4313645,11.5101382 C25.9958327,10.9135668 24.4214923,9.98120072 22.2688227,9.78115282 C20.9622273,9.65969517 18.4704141,9.74542998 16.4141328,11.6851801 C14.0151378,13.9642973 14.6148866,19.1405366 16.1035486,21.8483278 C16.3070348,22.2234177 16.5283706,22.5592123 16.7282869,22.8735733 C17.467263,24.0202765 18.4882638,25.5885091 17.09599,27.3960847 C16.6747379,27.9462165 16.1392479,28.4391916 15.5537789,28.9750342 C14.2364737,30.1681771 12.7442417,31.5185004 11.8588984,34.7692787 L9.44562371,34.1119785 C10.5237435,30.1574602 12.462217,28.3998965 13.8794804,27.1210189 C14.3435717,26.6959171 14.7791035,26.3136827 15.1146772,25.8742918 C15.3752823,25.5384971 15.4288313,25.4634792 14.6327362,24.2310412 C14.3971207,23.8702405 14.1507953,23.4808616 13.9116098,23.0486152 C12.0266852,19.6192227 11.2520098,13.1319551 14.700565,9.87045992 C16.7497065,7.92713747 19.5128345,7.01977736 22.5044383,7.28769866 C25.0390907,7.52704168 27.4309457,8.6308774 28.4519466,10.0455018 C29.8977694,12.0388362 28.9874365,14.1822066 28.4983557,15.3289097 C28.4412368,15.4682288 28.3662682,15.6361261 28.3162891,15.7754452 L28.5840341,16.1612519 C29.9763079,18.0974297 31.0044486,19.6870961 30.5117978,21.0374194 C30.2833221,21.6589968 29.7728217,22.0948154 29.065975,22.2734296 C28.7553909,22.6663809 29.2980207,23.9666922 29.4765173,24.391794 C29.8977694,25.4027503 29.7763917,26.5673149 29.1516534,27.499681 C28.4769361,28.5177819 27.3524072,29.0964919 26.0672314,29.0964919 C25.8173361,29.0964919 25.6209898,29.1072087 25.4674826,29.1250702 C25.61028,29.3215458 25.8316158,29.6001839 26.1743294,29.9895629 C26.4527841,30.3039238 26.8454767,30.557556 27.3059981,30.8504833 C28.3412786,31.5185004 29.7656819,32.4330051 30.6224658,34.697833 L28.2877296,35.5837595" id="Fill-2"></path>
                    <path d="M35.134861,30.53255 C32.8750934,30.53255 31.0401479,28.557077 31.0401479,26.1314962 C31.0401479,23.7023432 32.8750934,21.7304425 35.134861,21.7304425 C36.3914774,21.7304425 37.5624154,22.3377307 38.3442307,23.3986991 L36.3379284,24.8847692 C36.0309141,24.4703842 35.5918124,24.2310412 35.134861,24.2310412 C34.2530875,24.2310412 33.535531,25.0848171 33.535531,26.1314962 C33.535531,27.1817477 34.2530875,28.0355236 35.134861,28.0355236 C35.6453614,28.0355236 36.1308723,27.7354517 36.4307466,27.2317597 L38.5727064,28.5249265 C37.8158806,29.7823704 36.5307047,30.53255 35.134861,30.53255" ></path>
                </g>
            </g>
        </g>
    </g>
</svg>