<svg width="16px" height="16px" class="icon icon-leading" xmlns="http://www.w3.org/2000/svg" viewBox="0 0 1536 1792"><path d="M50,5C25.1,5,5,25.1,5,50c0,24.8,20.1,45,45,45c24.9,0,45-20.2,45-45C95,25.1,74.9,5,50,5L50,5z M70.1,34.8H59.5V24.2  L70.1,34.8z M71.3,76.1c0,0.5-0.4,0.9-0.9,0.9H29.6c-0.5,0-0.9-0.4-0.9-0.9V23.9c0-0.5,0.4-0.9,0.9-0.9H55v15.5  c0,0.5,0.4,0.9,0.9,0.9h15.5V76.1z M52.4,59.7V42.6c0-1.4-1.1-2.5-2.4-2.5c-1.3,0-2.4,1.1-2.4,2.5v17.2c0,0-3.3-3.3-3.4-3.4  c-1-1-2.5-1-3.4,0c-1,1-1,2.5,0,3.4c0,0.1,7.5,7.5,7.5,7.5c1,1,2.5,1,3.4,0c0,0,7.3-7.3,7.5-7.5c1-1,1-2.5,0-3.4c-1-1-2.5-1-3.4,0  L52.4,59.7z"></path></svg>