<?xml version="1.0" encoding="UTF-8" standalone="no"?>
<svg width="300px" viewBox="0 0 300 203" version="1.1" xmlns="http://www.w3.org/2000/svg" xmlns:xlink="http://www.w3.org/1999/xlink" role="img">
    <!-- Generator: Sketch 39.1 (31720) - http://www.bohemiancoding.com/sketch -->
    <title>Oil rig extracting money</title>
    <desc>Evokes the question, "where does the money from extractives come from?"</desc>
    <defs></defs>
    <g class="symbols" stroke="none" stroke-width="1" fill="none" fill-rule="evenodd">
        <g id="icon-ribbon-oil-rig">
            <rect  fill="#A7BCC7" x="0" y="131" width="300" height="72"></rect>
            <g class="rig-dollars" transform="translate(48.000000, 0.000000)">
                <path d="M103.883,107.065 L148.47,107.065 L148.47,97.477 L103.883,97.477 L103.883,107.065 Z M103.884,75.164 L113.429,68.142 L116.243,93.998 L103.884,93.998 L103.884,75.164 Z M103.884,59.237 L111.756,65.055 L103.884,70.846 L103.884,59.237 Z M103.884,40.33 L109.913,35.817 L112.698,61.424 L103.884,54.909 L103.884,40.33 Z M103.884,29.333 L108.324,32.657 L103.884,35.98 L103.884,29.333 Z M103.884,14.576 L107.322,12.002 L109.163,28.936 L103.884,24.983 L103.884,14.576 Z M103.884,3.479 L106.394,3.479 L106.885,7.982 L103.884,10.227 L103.884,3.479 Z M99.884,13.221 L96.454,15.788 L97.793,3.479 L99.884,3.479 L99.884,13.221 Z M99.884,21.989 L96.932,19.78 L99.884,17.57 L99.884,21.989 Z M99.884,38.975 L93.406,43.823 L95.652,23.171 L99.884,26.339 L99.884,38.975 Z M99.884,51.953 L94.082,47.665 L99.884,43.323 L99.884,51.953 Z M99.884,73.788 L89.301,81.573 L92.633,50.923 L99.884,56.281 L99.884,73.788 Z M99.884,93.998 L87.949,93.998 L88.789,86.268 L99.884,78.106 L99.884,93.998 Z M55.675,107.065 L99.884,107.065 L99.884,97.477 L55.675,97.477 L55.675,107.065 Z M54.725,74.582 L51.832,62.612 L62.592,70.235 L57.649,70.235 C56.685,70.235 55.907,71.015 55.907,71.975 L55.907,75.672 L54.725,74.582 Z M39.453,60.471 L47.812,60.809 L50.113,70.321 L39.453,60.471 Z M34.501,50.332 L44.163,57.18 L36.135,56.857 L34.501,50.332 Z M25.928,47.977 L30.371,48.183 L31.644,53.257 L25.928,47.977 Z M21.712,41.273 L26.282,44.51 L22.481,44.334 L21.712,41.273 Z M14.743,37.642 L15.421,36.815 L17.347,38.179 L17.959,40.613 L14.743,37.642 Z M150.212,93.998 L119.744,93.998 L109.898,3.479 L111.556,3.479 C112.52,3.479 113.3,2.701 113.3,1.741 C113.3,0.779 112.52,0 111.556,0 L92.633,0 C91.672,0 90.892,0.779 90.892,1.741 C90.892,2.701 91.672,3.479 92.633,3.479 L94.289,3.479 L84.445,93.998 L83.116,93.998 L83.116,71.975 C83.116,71.015 82.336,70.235 81.375,70.235 L68.608,70.235 L16.11,33.037 C15.366,32.51 14.333,32.647 13.755,33.356 L11.01,36.704 C10.427,37.417 10.499,38.46 11.174,39.085 L55.907,80.411 L55.907,93.998 L53.933,93.998 C52.972,93.998 52.192,94.777 52.192,95.738 L52.192,108.807 C52.192,109.767 52.972,110.546 53.933,110.546 L59.328,110.546 L59.328,131.263 L70.282,131.263 L70.282,110.546 L99.884,110.546 L99.884,130.866 L103.884,130.866 L103.884,110.546 L136.241,110.546 L136.241,131.263 L147.198,131.263 L147.198,110.546 L150.212,110.546 C151.175,110.546 151.955,109.767 151.955,108.807 L151.955,95.738 C151.955,94.777 151.175,93.998 150.212,93.998 L150.212,93.998 Z"  fill="#A7BCC7"></path>
                <path d="M109.1732,179.0932 C108.7832,180.0302 108.2212,180.8352 107.4892,181.5092 C106.7572,182.1832 105.8642,182.7052 104.8102,183.0762 C104.5132,183.1802 104.2032,183.2662 103.8832,183.3412 L103.8832,169.5872 C104.8892,169.9362 105.8162,170.3332 106.6252,170.8052 C107.5622,171.3522 108.3192,172.0302 108.8952,172.8412 C109.4712,173.6512 109.7592,174.6902 109.7592,175.9602 C109.7592,177.1112 109.5632,178.1562 109.1732,179.0932 M98.1182,161.5812 C97.1712,161.0342 96.4102,160.3752 95.8342,159.6042 C95.2582,158.8332 94.9702,157.8612 94.9702,156.6902 C94.9702,155.7722 95.1362,154.9182 95.4682,154.1282 C95.8002,153.3372 96.2932,152.6492 96.9462,152.0632 C97.6012,151.4772 98.4162,151.0142 99.3922,150.6722 C99.5502,150.6172 99.7182,150.5732 99.8832,150.5272 L99.8832,162.4422 C99.2572,162.1762 98.6612,161.8942 98.1182,161.5812 M114.2252,170.7472 C113.6492,169.5562 112.8872,168.5502 111.9402,167.7302 C110.9942,166.9102 109.9202,166.2322 108.7192,165.6952 C107.5182,165.1582 106.2882,164.6752 105.0292,164.2462 C104.6382,164.1122 104.2692,163.9902 103.8832,163.8592 L103.8832,150.2062 C104.7542,150.2752 105.5302,150.4222 106.2012,150.6572 C107.1472,150.9892 107.9582,151.3552 108.6312,151.7552 C109.3052,152.1562 109.8612,152.5222 110.3002,152.8542 C110.7402,153.1862 111.1252,153.3512 111.4572,153.3512 C111.7702,153.3512 112.0232,153.2782 112.2192,153.1322 C112.4142,152.9852 112.5992,152.7662 112.7752,152.4732 L114.1512,149.7792 C112.7072,148.3732 111.0182,147.2992 109.0852,146.5572 C107.4932,145.9462 105.7542,145.6012 103.8832,145.4942 L103.8832,130.8662 L99.8832,130.8662 L99.8832,145.6652 C98.8982,145.8262 97.9742,146.0702 97.1222,146.4112 C95.5122,147.0552 94.1602,147.9142 93.0662,148.9882 C91.9732,150.0622 91.1382,151.2922 90.5622,152.6782 C89.9862,154.0642 89.6982,155.4992 89.6982,156.9832 C89.6982,158.8382 89.9862,160.3952 90.5622,161.6542 C91.1382,162.9132 91.8952,163.9622 92.8322,164.8022 C93.7692,165.6412 94.8382,166.3252 96.0392,166.8522 C97.2392,167.3792 98.4692,167.8432 99.7292,168.2432 C99.7812,168.2602 99.8312,168.2752 99.8832,168.2922 L99.8832,183.5732 C98.8282,183.4832 97.8942,183.2872 97.0932,182.9732 C95.9702,182.5342 95.0142,182.0512 94.2232,181.5242 C93.4322,180.9972 92.7732,180.5132 92.2462,180.0742 C91.7192,179.6352 91.2512,179.4152 90.8412,179.4152 C90.5672,179.4152 90.3182,179.4882 90.0942,179.6352 C89.8692,179.7812 89.6792,179.9622 89.5232,180.1772 L87.8832,182.8712 C89.4642,184.5502 91.3732,185.8822 93.6082,186.8682 C95.5212,187.7122 97.6202,188.1722 99.8832,188.2942 L99.8832,202.8662 L103.8832,202.8662 L103.8832,188.1292 C104.9892,187.9602 106.0302,187.6982 106.9912,187.3222 C108.7392,186.6392 110.2132,185.7022 111.4132,184.5112 C112.6142,183.3202 113.5272,181.9192 114.1512,180.3082 C114.7762,178.6982 115.0892,176.9752 115.0892,175.1402 C115.0892,173.4022 114.8012,171.9382 114.2252,170.7472"  fill="#FFFFFF"></path>
                <rect  x="0" y="0" width="203" height="203"></rect>
            </g>
        </g>
    </g>
</svg>
