<?xml version="1.0" encoding="UTF-8" standalone="no"?>
<svg width="531px" height="310px" viewBox="0 0 531 310" version="1.1" xmlns="http://www.w3.org/2000/svg" xmlns:xlink="http://www.w3.org/1999/xlink">
    <!-- Generator: Sketch 39.1 (31720) - http://www.bohemiancoding.com/sketch -->
    <title>chart-aml-grants</title>
    <desc>Created with Sketch.</desc>
    <defs></defs>
    <g id="Page-1" stroke="none" stroke-width="1" fill="none" fill-rule="evenodd">
        <g id="chart-aml-grants" transform="translate(-36.000000, -35.000000)">
            <g transform="translate(21.000000, 35.000000)">
                <rect id="value=15.7" fill="#96BC7F" fill-rule="evenodd" x="491" y="116.717423" width="42.9058296" height="49.316858"></rect>
                <rect id="value=17.1" fill="#96BC7F" fill-rule="evenodd" x="376" y="113.290658" width="42.9058296" height="53.7145414"></rect>
                <rect id="value=29.7" fill="#96BC7F" fill-rule="evenodd" x="260" y="73.8828616" width="42.9058296" height="93.2936775"></rect>
                <rect id="value=43" fill="#96BC7F" fill-rule="evenodd" x="145" y="32.7616825" width="42.9058296" height="135.071651"></rect>
                <rect id="value=52.9" fill="#96BC7F" fill-rule="evenodd" x="29" y="0.207415709" width="42.9058296" height="166.169547"></rect>
                <text id="$52.9M-Wyoming" font-family="Lato-Bold, Lato" font-size="20" font-weight="bold" line-spacing="22" fill="#4A4A4A">
                    <tspan x="13.48" y="203">$52.9M</tspan>
                    <tspan x="84.75" y="203" font-family="Lato-Light, Lato" font-weight="300"></tspan>
                    <tspan x="17.252" y="225" font-family="Lato-Light, Lato" font-size="16" font-weight="300">Wyoming</tspan>
                </text>
                <text id="$43.0M-Pennsylvania" font-family="Lato-Bold, Lato" font-size="20" font-weight="bold" line-spacing="22" fill="#4A4A4A">
                    <tspan x="128.98" y="203">$43.0M</tspan>
                    <tspan x="200.25" y="203" font-family="Lato-Light, Lato" font-weight="300"></tspan>
                    <tspan x="120.864" y="225" font-family="Lato-Light, Lato" font-size="16" font-weight="300">Pennsylvania</tspan>
                </text>
                <text id="$29.7M-West-Virginia" font-family="Lato-Bold, Lato" font-size="20" font-weight="bold" line-spacing="22" fill="#4A4A4A">
                    <tspan x="244.48" y="203">$29.7M</tspan>
                    <tspan x="315.75" y="203" font-family="Lato-Light, Lato" font-weight="300"></tspan>
                    <tspan x="234.892" y="225" font-family="Lato-Light, Lato" font-size="16" font-weight="300">West Virginia</tspan>
                </text>
                <text id="$17.1M-Kentucky" font-family="Lato-Bold, Lato" font-size="20" font-weight="bold" line-spacing="22" fill="#4A4A4A">
                    <tspan x="359.98" y="203">$17.1M</tspan>
                    <tspan x="431.25" y="203" font-family="Lato-Light, Lato" font-weight="300"></tspan>
                    <tspan x="364.152" y="225" font-family="Lato-Light, Lato" font-size="16" font-weight="300">Kentucky</tspan>
                </text>
                <text id="$15.7M-Illinois" font-family="Lato-Bold, Lato" font-size="20" font-weight="bold" line-spacing="22" fill="#4A4A4A">
                    <tspan x="475.48" y="203">$15.7M</tspan>
                    <tspan x="546.75" y="203" font-family="Lato-Light, Lato" font-weight="300"></tspan>
                    <tspan x="489.912" y="225" font-family="Lato-Light, Lato" font-size="16" font-weight="300">Illinois</tspan>
                </text>
                <polygon id="Page-1" fill="#DCDCDC" fill-rule="evenodd" points="23.6194236 242.000385 22.8922986 245.955329 22.5793912 248.240579 21.6688819 254.06335 20.7699144 259.794429 20.4243056 261.998246 19.8690231 265.513325 18.8815694 271.538716 17.9095046 277.628869 17.1169769 282.655264 16.4866736 286.563401 16 289.5886 24.8454051 290.956929 25.2647523 291.019125 33.7055579 292.191887 43.762838 293.50379 49.1027824 294.148841 53.1917384 294.631667 57.9860185 295.211956 59.136338 295.349174 67.2841134 296.18338 70.2618634 296.469998 78.2083009 297.143903 78.6212361 292.431697 78.7898727 290.375998 78.9264491 288.767859 79.2361505 285.116845 79.8587593 277.790452 80.2524583 273.07504 80.7224606 267.397822 80.7513148 267.09325 81.1020532 262.89529 81.400213 259.453308 81.4406088 258.981382 81.825331 254.307007 82.2427546 249.210079 73.9846921 248.427811 73.5589329 248.385491 65.6811042 247.674396 63.6741366 247.456387 49.8420903 245.744373 47.0060463 245.403894 43.8897963 244.985188 34.0312894 243.584158 26.4355903 242.555667"></polygon>
                <polygon id="Page-1" fill="#DCDCDC" fill-rule="evenodd" points="183.693822 242.000192 182.662125 242.240644 177.277937 243.38904 176.921428 243.464702 173.367236 244.210422 170.176606 244.865732 169.838051 244.934982 164.25509 246.048753 163.047062 246.314852 159.079294 247.045824 158.204051 247.210614 152.895525 248.224357 151.654155 248.417359 146.884882 249.291961 145.559514 249.504199 145.004873 246.290486 140.530553 249.903028 139 250.871887 139.250069 252.395387 139.934875 256.561287 139.954752 256.684398 140.654306 260.921472 140.669053 261.025989 141.108919 263.707503 141.209588 264.278174 141.623164 266.816058 141.938637 268.737104 142.102785 269.671979 142.561245 272.523412 142.845299 274.231579 142.947891 274.875989 143.416611 277.749864 144.303396 277.608158 148.845042 276.849614 150.220424 276.613009 152.801269 276.16032 153.555324 276.02182 157.694935 275.265199 158.797164 275.064503 162.636692 274.355331 162.974606 274.296341 165.157264 273.885329 170.808192 272.814519 170.897961 272.796565 173.072924 272.365676 175.011924 271.971977 176.910528 271.576996 178.853375 271.171755 181.795859 270.554276 181.856773 270.54081 182.72881 270.35935 185.823259 269.684162 187.258273 267.948424 187.264685 267.9465 187.383308 267.906104 188.851023 267.973431 190.525847 266.823753 191.607558 265.058519 192.215419 264.237778 194.164037 262.571931 191.713356 260.718852 190.449544 260.008398 190.084699 258.613139 188.877954 258.257912 188.770873 258.075169 188.540039 256.029729 189.369757 254.699232 188.496437 253.684206 189.506333 251.897813 189.295377 251.971551 190.140484 249.491375 191.133708 248.310919 190.477116 247.589565 188.355373 247.393357 187.268532 246.12185 187.018463 244.319426 185.998308 243.312736 184.951222 243.423023"></polygon>
                <polygon id="Page-1" fill="#DCDCDC" fill-rule="evenodd" points="275.726525 242.000064 274.510803 242.885566 275.222539 245.058606 275.630986 245.904995 275.155854 247.638168 275.024407 248.00686 274.984012 249.528437 274.544146 251.861136 274.696111 253.405154 273.913843 254.923525 273.184794 255.857117 272.593604 256.952293 270.55137 258.690597 269.792826 257.987837 268.855387 259.884518 267.564002 260.691793 267.344711 261.159872 267.57362 262.145402 267.564644 264.260733 266.50281 264.977599 265.381986 263.314316 264.618954 264.235726 263.821937 266.476733 264.204736 268.822256 263.558403 269.0268 263.476329 270.66187 261.85216 271.360141 261 271.359499 261.219933 273.456235 261.124394 274.810458 262.716502 276.932201 263.637271 277.910036 264.588176 279.155254 266.861884 281.151962 268.343065 281.089766 268.769465 281.336629 268.225725 281.766877 269.856947 283.925168 271.005343 284.362469 272.730822 284.481733 274.347296 282.628013 275.816935 283.657145 277.978433 282.597877 279.10631 281.764953 278.851111 280.794171 278.8665 280.805071 279.795604 281.3424 281.984674 279.645775 282.433516 280.290184 283.897384 279.001365 284.391752 277.454141 283.566523 276.808448 285.262507 273.332483 285.916535 271.835914 286.045417 270.377816 287.026458 269.176201 287.704211 265.073138 289.544465 266.3953 291.11285 266.671659 291.807273 265.741272 292.726759 262.08577 293.115329 260.933527 294.436208 261.763886 296.744542 257.72815 296.9991 257.288925 297.768544 256.174513 297.611449 252.531835 298.845766 253.219205 300.895053 254.387478 303.046933 255.601277 303.603498 253.174962 302.243505 251.311624 301.870965 249.992668 300.187806 250.152969 298.596979 249.507277 297.348556 250.475495 296.410475 252.133006 294.670889 252.228546 293.263447 251.580289 292.097738 253.884775 291.092972 253.557761 289.578449 255.69874 287.886954 257.492187 286.903988 251.344326 284.323144 251.797016 282.948403 252.03362 278.406116 252.792164 277.519972 252.93387 277.051252 250.059995 276.948019 249.415585 276.663965 247.707418 276.205505 244.855985 276.041998 243.92111"></polygon>
                <path d="M404.735949,241.999936 L404.100516,242.585996 L403.677322,243.543313 L403.92675,245.096309 L404.680164,245.538739 L404.592961,246.441554 L402.719363,246.933998 L401.180475,247.966336 L399.910891,247.563019 L398.854188,248.001603 L399.234421,249.463547 L399.275458,250.217603 L397.571139,252.150832 L396.273343,253.410156 L395.408359,254.843246 L395.178167,256.955371 L394.724194,257.0881 L392.161303,256.659135 L391.425201,255.220274 L390.27937,256.069869 L390.094063,257.004744 L390.054949,258.460276 L388.804602,259.599054 L387.150938,257.872934 L385.689634,258.839869 L384.908648,260.56663 L383.052363,259.709341 L382.716373,259.499667 L381.282641,259.11751 L379.866863,258.843075 L379.870711,260.567272 L378.998032,259.846559 L376.889113,259.981211 L377.170602,261.1046 L376.049137,261.294397 L374.961014,263.032059 L375.291875,264.08748 L376.037595,264.862695 L373.352234,266.304121 L372.798234,266.120096 L372.053155,268.149505 L372.970076,269.415883 L372.429542,270.460403 L371.703699,270.368711 L368.159125,268.868295 L368.112958,268.888813 L366.041229,270.981061 L366.429799,271.971721 L366.778613,272.404533 L366.709363,274.327503 L366.311176,275.958084 L365.694979,277.07442 L364.901169,276.312028 L364.150319,277.972746 L364.833201,277.874642 L369.697373,277.526468 L369.771752,277.517491 L369.867292,277.513003 L372.717442,277.307177 L372.980977,277.292429 L377.125076,276.995552 L376.783315,274.835336 L380.395215,275.02385 L380.894072,274.968707 L383.7859,274.667982 L385.876866,274.462797 L386.385981,274.40573 L389.201507,274.065892 L391.116141,274.058839 L392.529995,273.712589 L394.504262,273.643339 L396.710002,273.549082 L398.464977,273.445207 L401.797954,273.119475 L403.118833,272.881589 L403.311836,272.852093 L406.170963,272.655885 L407.98044,272.591123 L408.048407,272.584711 L412.951051,272.128174 L413.276141,272.085214 L415.324146,271.851174 L416.080766,271.78513 L418.477586,271.317693 L420.395426,270.282149 L423.334704,268.937545 L423.749563,267.517278 L425.508384,266.811313 L425.456447,265.820012 L426.708718,264.785109 L426.556752,263.946415 L427.931493,262.764035 L428.027032,262.669137 L430.13531,261.18988 L432.905951,257.860751 L431.42413,257.922306 L429.150421,255.92688 L428.199516,254.681022 L427.279389,253.703186 L425.686639,251.581443 L425.782178,250.226579 L425.562245,248.131126 L424.779977,247.215487 L423.289178,246.630709 L422.321602,244.526278 L421.059713,245.050142 L420.08316,246.489003 L419.064287,246.628785 L416.66362,245.952316 L415.567803,246.871802 L415.012521,246.933357 L412.985676,245.604142 L411.617347,245.736871 L409.904051,245.268792 L409.820053,244.701968 L408.799898,243.039327 L406.985933,242.366704 L405.943336,242.745015 L404.735949,241.999936 Z M363,278.062515 L363.519375,278.029813 L363,278.062515 Z" id="Page-1" fill="#DCDCDC" fill-rule="evenodd"></path>
                <polygon id="Page-1" fill="#DCDCDC" fill-rule="evenodd" points="524.083632 241.999359 520.655116 242.259688 519.713829 242.341762 516.192979 242.633509 515.588324 242.696988 514.153951 242.770086 510.421505 242.975912 510.113727 242.995148 506.289588 243.188792 505.516296 243.238164 501.134951 243.490157 499.257507 243.583773 500.807937 245.02584 502.312843 247.202727 503.733109 248.047833 503.875456 249.061576 503.967789 250.302306 503.275931 252.107935 502.663581 252.799794 502.523157 254.512449 499.83459 256.187273 498.682347 256.362963 496.447752 256.898368 496.216278 257.936477 496.216278 257.939683 495.907218 259.085514 497.476884 261.023873 497.478167 261.049521 497.452519 262.800648 496.370167 264.082414 496.250262 265.639898 495.630859 266.379206 493.691859 267.513495 493.67647 269.61472 493.047449 271.211958 493 271.797377 493.782269 274.847583 494.524782 277.069354 495.121743 277.945238 496.332977 278.922433 498.66247 281.202553 500.744458 283.21465 501.458759 286.686127 502.582148 287.369009 503.404812 286.172523 505.059759 286.605977 506.601854 287.937757 506.179301 288.36544 506.122875 289.72415 505.513731 291.32203 505.437428 291.436806 504.830208 293.118683 504.766729 295.030111 505.852287 296.197102 506.306259 296.647868 508.356829 298.034792 508.978155 299.064565 509.83288 298.640729 511.500009 299.77053 513.113278 301.087563 513.115843 302.462303 513.120972 302.532836 514.18537 304.482736 513.661507 305.290012 513.691002 306.310167 514.910572 308.793549 515.534463 309.100685 516.014083 308.412032 517.262507 309.336648 516.873937 308.345347 518.945667 306.2531 518.991833 306.232581 522.536407 307.732998 523.26225 307.825331 523.802785 306.780169 522.885863 305.513792 523.630942 303.485023 524.184942 303.669049 526.870303 302.226981 526.124583 301.451766 525.794363 300.396986 526.881845 298.658683 526.193192 297.603262 527.60384 294.185646 526.847861 293.429667 526.787588 293.115477 528.893301 291.020023 529.580671 289.09513 530.832942 286.886824 530.388588 285.572356 530.41103 284.963213 529.163248 281.97841 529.281229 280.730627 529.710194 278.050396 529.567206 276.483294 529.260711 273.166347 528.992046 269.973794 528.680421 266.010514 528.665032 265.840595 528.407269 262.884005 528.113597 259.595271 527.939831 257.723597 527.797484 256.134694 527.626282 254.109773 527.383266 251.213456 525.603926 246.925086 524.834481 246.051125 524.023359 244.299998"></polygon>
            </g>
        </g>
    </g>
</svg>