<?xml version="1.0" encoding="UTF-8" standalone="no"?>
<!-- Generator: Adobe Illustrator 14.0.0, SVG Export Plug-In . SVG Version: 6.00 Build 43363)  -->

<svg
   xmlns:dc="http://purl.org/dc/elements/1.1/"
   xmlns:cc="http://creativecommons.org/ns#"
   xmlns:rdf="http://www.w3.org/1999/02/22-rdf-syntax-ns#"
   xmlns:svg="http://www.w3.org/2000/svg"
   xmlns="http://www.w3.org/2000/svg"
   xmlns:sodipodi="http://sodipodi.sourceforge.net/DTD/sodipodi-0.dtd"
   xmlns:inkscape="http://www.inkscape.org/namespaces/inkscape"
   version="1.1"
   id="Ebene_1"
   x="0px"
   y="0px"
   width="329.87701"
   height="69.450996"
   viewBox="0 0 329.877 69.450996"
   enable-background="new 0 0 595.28 207"
   xml:space="preserve"
   inkscape:version="0.48.2 r9819"
   sodipodi:docname="deiti.svg"><metadata
     id="metadata103"><rdf:RDF><cc:Work
         rdf:about=""><dc:format>image/svg+xml</dc:format><dc:type
           rdf:resource="http://purl.org/dc/dcmitype/StillImage" /><dc:title></dc:title></cc:Work></rdf:RDF></metadata><defs
     id="defs101" /><sodipodi:namedview
     pagecolor="#ffffff"
     bordercolor="#666666"
     borderopacity="1"
     objecttolerance="10"
     gridtolerance="10"
     guidetolerance="10"
     inkscape:pageopacity="0"
     inkscape:pageshadow="2"
     inkscape:window-width="640"
     inkscape:window-height="480"
     id="namedview99"
     showgrid="false"
     fit-margin-top="0"
     fit-margin-left="0"
     fit-margin-right="0"
     fit-margin-bottom="0"
     inkscape:zoom="0.8271711"
     inkscape:cx="208.406"
     inkscape:cy="28.69"
     inkscape:window-x="0"
     inkscape:window-y="0"
     inkscape:window-maximized="0"
     inkscape:current-layer="g3" /><g
     id="g3"
     transform="translate(-89.234015,-62.739)"><polygon
       points="360.54,132.19 360.54,81.421 384.538,81.398 394.494,62.761 316.464,62.756 305.823,81.405 339.128,81.392 339.128,132.19 "
       id="polygon5"
       style="fill:#0089c6" /><rect
       x="281.742"
       y="62.761002"
       width="21.419001"
       height="69.278"
       id="rect7" /><rect
       x="397.694"
       y="62.761002"
       width="21.417"
       height="69.278"
       id="rect9" /><polygon
       points="208.729,131.96 268.01,131.99 278.536,113.603 230.231,113.603 230.316,105.82 264.426,105.82 274.339,89.054 262.411,89.054 262.418,89.103 230.39,89.103 230.39,81.207 268.01,81.205 278.536,62.816 208.705,62.816 "
       id="polygon91" /><polygon
       points="208.728,113.603 208.729,113.603 208.729,113.574 "
       id="polygon93" /><path
       d="m 89.234,62.739 h 35.113 c 23.152,0 31.322,17.121 31.322,34.629 0,21.301 -11.283,34.822 -35.503,34.822 H 89.234 V 62.739 z m 21.4,51.651 h 8.365 c 13.326,0 15.271,-10.797 15.271,-17.314 0,-4.377 -1.362,-16.534 -16.826,-16.534 h -6.81 v 33.848 z"
       id="path95"
       inkscape:connector-curvature="0" /><polygon
       points="172.073,88.231 161.546,106.7 190.519,106.695 201.048,88.292 "
       id="polygon97"
       style="fill:#0089c6" /></g></svg>