<svg width="224" height="91" viewBox="0 0 224 91" xmlns="http://www.w3.org/2000/svg" xmlns:xlink="http://www.w3.org/1999/xlink"><title>home-card / disbursements</title><defs><path d="M0 7.996C0 3.58 3.586 0 8.005 0h207.99C220.415 0 224 3.58 224 7.996V91H0V7.996z" id="a"/><path id="c" d="M0 0h51v39.605H0z"/><path id="e" d="M.084.283H29.1v38.564H.083z"/><path id="g" d="M47.73 2.003H0V.12h47.73v1.883z"/><path id="i" d="M.092 9.634V.157H9.48v9.477H.092z"/><path id="k" d="M.025.157h9.348v9.466H.025V.157z"/><path id="m" d="M.092.148v9.474H9.48V.148H.092z"/><path id="o" d="M9.373.148v9.474H.006V.148h9.367z"/><path id="q" d="M23.397 48.578H0V.078h46.793v48.5H23.397z"/></defs><g fill="none" fill-rule="evenodd"><mask id="b" fill="#fff"><use xlink:href="#a"/></mask><use fill="#96BC7F" xlink:href="#a"/><g transform="translate(156 -3)" mask="url(#b)"><mask id="d" fill="#fff"><use xlink:href="#c"/></mask><g mask="url(#d)"><g transform="translate(20.634 .003)"><mask id="f" fill="#fff"><use xlink:href="#e"/></mask><path d="M18.863 38.002v-5.648h9.288c.37 0 .707-.214.863-.546.154-.333.1-.725-.14-1.004l-5.194-6.078H27.016c.524 0 .95-.42.95-.942 0-.31-.153-.588-.39-.76l-6.333-7.623h3.38c.015.003.03.002.037 0 .526 0 .95-.42.95-.94 0-.298-.14-.563-.358-.736L15.352.658c-.177-.237-.46-.375-.758-.375s-.58.138-.758.375L3.806 13.895c-.218.284-.253.666-.092.985.16.32.49.52.85.52H7.94l-6.468 7.786c-.234.28-.284.67-.126 1 .155.33.49.54.858.54h3.3L.31 30.804c-.24.28-.293.67-.14 1.004.157.332.494.546.862.546h10.24v5.648c0 .845.42.845 1.066.845h5.82c.485 0 .705-.398.705-.845" fill="#7BA768" mask="url(#f)"/></g><g transform="translate(0 40.064)"><mask id="h" fill="#fff"><use xlink:href="#g"/></mask><path d="M.95.12C.423.12 0 .542 0 1.062s.424.94.95.94h45.83c.525 0 .95-.42.95-.94S47.304.12 46.78.12H.95z" fill="#69995A" mask="url(#h)"/></g></g><path d="M14.028 31.19v-3.44h5.66c.224 0 .43-.13.525-.333.093-.203.06-.442-.085-.612L16.962 23.1h2.034c.32 0 .578-.256.578-.573 0-.19-.092-.358-.236-.462l-3.86-4.645h2.083c.32 0 .58-.257.58-.574 0-.18-.085-.343-.22-.45l-6.03-7.96c-.11-.145-.28-.23-.463-.23-.182 0-.353.085-.462.23l-6.113 8.066c-.132.173-.153.406-.055.6.098.195.298.318.517.318h2.06L3.43 22.163c-.142.17-.173.408-.077.61.095.2.3.328.523.328h2.01l-3.165 3.705c-.146.17-.18.41-.085.612.095.202.3.332.525.332h6.24v3.44c0 .515.255.515.65.515h3.545c.295 0 .43-.242.43-.514" fill="#7BA768" mask="url(#d)"/></g><path fill="#769D65" mask="url(#b)" transform="rotate(-10 49.635 36.818)" d="M11.635 18.318h76v37h-76z"/><g mask="url(#b)"><path fill="#FFF" d="M20.72 53.618l69.266-12.213-5.24-29.718L15.48 23.9"/><path fill="#FFF" d="M18.465 56.87l74.75-13.18L87 8.435l-74.75 13.18"/><g transform="rotate(-10 143.48 -75.914)"><mask id="j" fill="#fff"><use xlink:href="#i"/></mask><path d="M9.48.12c0 5.254-4.22 9.514-9.427 9.514-5.206 0-9.426-4.26-9.426-9.514 0-5.255 4.22-9.514 9.426-9.514S9.48-5.134 9.48.12" fill="#587F4C" mask="url(#j)"/></g><path d="M63.01 30.875c1.152 6.54-2.507 12.652-8.173 13.65-5.666 1-11.195-3.492-12.348-10.032-1.154-6.54 2.505-12.652 8.17-13.652 5.667-.998 11.196 3.494 12.35 10.035" fill="#587F4C"/><g transform="rotate(-10 112.954 -424.836)"><mask id="l" fill="#fff"><use xlink:href="#k"/></mask><path d="M18.877.108c0 5.255-4.22 9.515-9.426 9.515C4.246 9.623.026 5.363.026.108c0-5.254 4.22-9.514 9.426-9.514 5.207 0 9.427 4.26 9.427 9.514" fill="#587F4C" mask="url(#l)"/></g><g transform="rotate(-10 261.844 -86.27)"><mask id="n" fill="#fff"><use xlink:href="#m"/></mask><path d="M9.48 9.663c0 5.254-4.22 9.514-9.427 9.514-5.206 0-9.426-4.26-9.426-9.514 0-5.255 4.22-9.515 9.426-9.515S9.48 4.408 9.48 9.663" fill="#587F4C" mask="url(#n)"/></g><g transform="rotate(-10 231.318 -435.19)"><mask id="p" fill="#fff"><use xlink:href="#o"/></mask><path d="M18.86 9.663c0 5.254-4.22 9.514-9.428 9.514-5.206 0-9.426-4.26-9.426-9.514 0-5.255 4.22-9.515 9.426-9.515 5.207 0 9.427 4.26 9.427 9.515" fill="#587F4C" mask="url(#p)"/></g><path d="M55.69 34.952c-.042-.235-.12-.432-.233-.593-.114-.163-.257-.298-.43-.407-.174-.11-.37-.195-.59-.26-.218-.06-.454-.112-.706-.15l.35 3.81c.633-.202 1.085-.51 1.355-.922.27-.412.355-.905.254-1.478zm-5.52-5.265c.04.235.118.434.228.6.11.164.25.303.42.417.167.113.358.206.573.28.215.073.446.133.693.178l-.32-3.473c-.328.1-.602.224-.822.368-.22.144-.393.303-.52.478-.126.175-.208.36-.246.554-.04.195-.04.394-.004.597zm2.684 9.807c-.733.028-1.438-.052-2.116-.237-.678-.186-1.276-.458-1.793-.82l.512-1.167c.045-.104.113-.194.203-.27.09-.076.19-.124.3-.144.135-.023.287 0 .457.068.17.07.363.15.58.245.22.094.465.184.74.27.272.085.585.13.938.13l-.383-4.204c-.455-.047-.91-.117-1.364-.21-.454-.09-.874-.245-1.262-.46-.387-.216-.722-.516-1.004-.9-.282-.384-.478-.892-.59-1.523-.082-.47-.07-.945.037-1.427.106-.48.306-.93.598-1.344.292-.415.677-.783 1.156-1.104.48-.32 1.054-.54 1.726-.658l-.107-1.195c-.014-.152.024-.296.113-.434.09-.137.222-.222.4-.253l.833-.147.163 1.846c.666-.01 1.258.077 1.775.26.517.18.978.408 1.385.68l-.4.938c-.065.138-.134.246-.21.322-.073.077-.172.126-.294.148-.092.016-.206.006-.34-.03-.137-.037-.293-.083-.47-.138-.176-.054-.37-.107-.58-.16-.21-.05-.44-.084-.688-.097l.355 3.885c.463.058.925.13 1.384.22.46.086.886.23 1.276.427.39.198.727.47 1.01.82.28.346.473.81.575 1.39.102.573.102 1.127 0 1.663-.1.536-.298 1.03-.593 1.478-.295.45-.688.84-1.177 1.175-.49.334-1.07.587-1.746.757l.13 1.378c.012.144-.026.286-.114.426-.09.138-.222.224-.4.255l-.832.147-.184-2.008z" fill="#FFF"/></g><g mask="url(#b)"><path d="M153.244 93.865h10.57c.683 0 1.242-.75 1.242-1.67V43.47c0-.444-.023-1.335-.87-1.446-.78-.103-3.203-.576-4.748-.965-1.03-.26-1.326.37-1.436 1.26-.55 4.44-6.002 49.874-6.002 49.874 0 .92.56 1.67 1.244 1.67M167.313 92.136V44.51c0-.95.224-1.744 1.2-1.728 0 0 17.194 1.135 28.752 1.135s28.406-1.07 29.156-1.135c1.047-.09 1.202.54 1.202 1.023v48.33c0 .952-.54 1.73-1.2 1.73h-57.908c-.66 0-1.2-.778-1.2-1.73" fill="#7BA768"/><path d="M215.355 69.452c0 3.526-2.263 6.384-5.098 6.384s-5.098-2.858-5.098-6.384V57.278c0-3.525 2.262-6.384 5.097-6.384 2.835 0 5.116 2.86 5.116 6.384l-.018 12.174zM202.415 69.452c0 3.526-2.198 6.384-5.033 6.384-2.836 0-5.034-2.858-5.034-6.384V57.278c0-3.525 2.198-6.384 5.034-6.384 2.835 0 5.083 2.86 5.083 6.384l-.05 12.174zM189.475 69.452c0 3.526-2.354 6.384-5.19 6.384-2.835 0-5.19-2.858-5.19-6.384V57.278c0-3.525 2.355-6.384 5.19-6.384 2.836 0 5.162 2.86 5.162 6.384l.028 12.174z" fill="#96BB7C"/><path d="M169.53 91.572l-.074-10.18c.995-1.066 3.498-1.845 6.33-.453 2.726-10.078 3.278-17.426 4.125-24.552h35.114c.847 7.126 1.4 14.474 4.124 24.55 2.833-1.39 5.336-.612 6.33.455l-.074 10.18H169.53z" fill="#96BB7C"/><path d="M205.17 59.853s-.5 15.686-1.374 15.686c-.873 0-1.366-15.687-1.366-15.687v-3.786h2.74v3.786zM192.403 59.853s-.624 15.686-1.548 15.686c-.923 0-1.444-15.687-1.444-15.687v-3.786h2.993v3.786z" fill="#7BA768"/><path fill="#7BA768" fill-rule="nonzero" d="M220.178 59.95h-45.5v2.227h45.5M221.94 78.737c-.96.16-1.113.207-3.637 1.05-2.298.77-3.795 1.098-5.64 1.098-1.602 0-2.55-.162-3.976-.575l-.433-.126c-1.234-.356-2.064-.5-3.288-.5-1.307 0-2.157.132-3.61.485-.093.02-.093.02-.186.044-1.5.365-2.324.493-3.69.493s-2.19-.128-3.69-.493l-.186-.045c-1.452-.354-2.302-.487-3.61-.487-1.224 0-2.053.145-3.288.5l-.432.127c-1.426.413-2.375.575-3.976.575-1.845 0-3.343-.33-5.64-1.097-2.525-.844-2.677-.89-3.638-1.05-.363-.06-.705.186-.765.55-.06.367.185.712.548.773.858.144 1.008.19 3.436 1 2.42.81 4.04 1.166 6.058 1.166 1.74 0 2.808-.18 4.343-.627l.432-.126c1.126-.325 1.84-.45 2.923-.45 1.182 0 1.938.118 3.297.45.093.02.093.02.186.044 1.594.388 2.512.53 4.002.53 1.49 0 2.408-.142 4.003-.53l.185-.045c1.36-.33 2.115-.45 3.298-.45 1.083 0 1.797.126 2.922.45l.43.126c1.537.445 2.605.626 4.345.626 2.018 0 3.637-.355 6.06-1.165 2.427-.81 2.576-.856 3.435-1 .362-.06.608-.405.548-.77-.06-.366-.403-.613-.765-.553z"/><path d="M241.69 93.865h-10.568c-.684 0-1.243-.75-1.243-1.67V43.47c0-.444.022-1.335.868-1.446.78-.103 3.204-.576 4.75-.965 1.03-.26 1.325.37 1.435 1.26.55 4.44 6.002 49.874 6.002 49.874 0 .92-.56 1.67-1.244 1.67" fill="#7BA768"/></g><g mask="url(#b)"><g transform="translate(77 47.13)"><mask id="r" fill="#fff"><use xlink:href="#q"/></mask><path d="M18.828 10.772c0-2.472 2.03-4.436 4.485-4.436h-.068c2.455 0 4.396 1.964 4.396 4.436v5.526c0 .477-.23 1.02-.706 1.02h-7.202c-.475 0-.904-.543-.904-1.02v-5.526zm26.735 15.68L30.998 13.54V9.57c0 .026 1.06-.136 1.183-.288.477-.585.407-1.465-.156-1.96L24.177.402c-.026-.023-.06-.04-.093-.056-.49-.376-1.215-.354-1.68.057l-7.848 6.92c-.563.494-.688 1.374-.213 1.96.124.15 1.128.313 1.128.286v4.16L1.185 26.413c-1.428 1.257-1.58 3.51-.372 4.994.313.384.866.85 1.947.85.344 0 .96-.036.96-.1v13.803c0 1.425 1.245 2.618 2.627 2.618h10.315c.542 0 .907-.48.907-1.03v-14.6h11.75v14.6c0 .55.28 1.03.82 1.03h10.316c1.383 0 2.712-1.193 2.712-2.62V32.156c0 .066.56.112.904.112 1.082 0 1.63-.457 1.942-.84 1.207-1.486.977-3.718-.45-4.975z" fill="#7BA768" mask="url(#r)"/></g><path d="M103.257 61.004v-.356c0-.638-6.06-.638-6.06 0v.356c0 .303.246.55.546.55h4.967c.3 0 .547-.247.547-.55" fill="#69995A"/><path d="M100.227 55.242h.016c-1.452 0-2.624 1.196-2.624 2.658v3.155c0 .283.14.497.42.497h1.294c-.006 0-.012.09-.012.134 0 .45.36.817.807.817.445 0 .806-.37.806-.82 0-.042-.006-.13-.012-.13h1.377c.28 0 .623-.215.623-.498V57.9c0-1.462-1.244-2.658-2.696-2.658" fill="#7BA768"/></g><g fill="#7BA768" mask="url(#b)"><path d="M131.7 45.253h-2.435c-.28 0-.51-.23-.51-.51v-11.01c0-.28.23-.508.51-.508h2.436c.28 0 .51.23.51.51v11.01c0 .28-.23.508-.51.508M131.38 14.903V9.548h4.146v-3.45h-5.943v8.805c-4.406.422-7.866 3.828-7.866 8.003 0 .493.402.892.9.892h15.733c.497 0 .9-.4.9-.892 0-4.175-3.46-7.58-7.87-8.003M145.513 45.253h-2.436c-.28 0-.508-.23-.508-.51v-11.01c0-.28.227-.508.507-.508h2.436c.28 0 .508.23.508.51v11.01c0 .28-.227.508-.507.508M138.607 45.253h-2.436c-.28 0-.508-.23-.508-.51v-11.01c0-.28.23-.508.51-.508h2.435c.28 0 .508.23.508.51v11.01c0 .28-.228.508-.508.508M124.795 45.253h-2.436c-.28 0-.51-.23-.51-.51v-11.01c0-.28.23-.508.51-.508h2.435c.28 0 .508.23.508.51v11.01c0 .28-.23.508-.508.508M117.89 45.253h-2.437c-.28 0-.51-.23-.51-.51v-11.01c0-.28.23-.508.51-.508h2.436c.278 0 .507.23.507.51v11.01c0 .28-.23.508-.508.508M112 31v-5.018c0-.28.23-.51.51-.51h35.947c.28 0 .51.23.51.51v5.02c0 .28-.23.508-.51.508H112.51c-.28 0-.51-.23-.51-.51M112 48.173v-.696c0-.28.23-.51.51-.51h35.947c.28 0 .51.23.51.51v.696c0 .28-.23.51-.51.51H112.51c-.28 0-.51-.23-.51-.51"/></g></g></svg>