<svg width="224" height="91" viewBox="0 0 224 91" xmlns="http://www.w3.org/2000/svg" xmlns:xlink="http://www.w3.org/1999/xlink"><title>home-card / resources</title><defs><path d="M0 7.996C0 3.58 3.586 0 8.005 0h207.99C220.415 0 224 3.58 224 7.996V91H0V7.996z" id="a"/><path id="c" d="M0 .15h74.556v55.003H0z"/><path id="e" d="M0 .15h74.556v55.003H0"/><path id="g" d="M0 .153h74.714v55.46H0z"/><path id="i" d="M0 .2h74.714v55.46H0"/><path id="k" d="M0 .682h35.907V29.6H0z"/><path id="m" d="M0 .682h35.907V29.6H0"/><path id="o" d="M0 .682h35.907V29.6H0"/><path id="q" d="M0 .682h35.907V29.6H0"/><path id="s" d="M0 .85h38.515v50.508H0"/><path id="u" d="M0 .85h38.515v50.508H0"/><path id="w" d="M0 .85h38.515v50.508H0z"/><path id="y" d="M0 .01h25.97v42.06H0"/><path id="A" d="M0 .193h43.777V44H0"/></defs><g fill="none" fill-rule="evenodd"><mask id="b" fill="#fff"><use xlink:href="#a"/></mask><use fill="#96BC7F" xlink:href="#a"/><g mask="url(#b)"><g transform="translate(57 28.197)"><mask id="d" fill="#fff"><use xlink:href="#c"/></mask><path d="M10.64 6.553v31.652c-.535.315-.908.87-.908 1.535v12.38H.792c-.437 0-.793.684-.793 1.518 0 .832.355 1.515.792 1.515h21.513c.436 0 .792-.683.792-1.515 0-.834-.356-1.517-.792-1.517H13.36V39.74c0-.663-.373-1.22-.905-1.535V7.228l-1.816-.675zm1.815-2.38l45.15 14.85 1.135-3.452L12.115.243c-.957-.31-1.98.203-2.294 1.154-.267.825.104 1.673.82 2.102l1.815.675z" fill="#7DA36A" mask="url(#d)"/><mask id="f" fill="#fff"><use xlink:href="#e"/></mask><path d="M67.934 1.81c-.345 0-.693.082-1.014.242-.54.27-.95.735-1.127 1.276L56.16 32.632c-.185.56-.14 1.163.128 1.69.268.533.725.925 1.286 1.107l1.332.437c.933.307 2.263.043 3.007-.586l8.104-6.88c.634-.538 1.312-1.546 1.577-2.342l2.734-8.296c.255-.793.304-2.003.114-2.808L71.998 4.612c-.23-.976-1.122-1.95-2.077-2.265l-1.317-.43c-.214-.072-.44-.107-.67-.107M33.567 13.858l-2.05 21.985h-1.154c-.94 0-1.728.72-1.81 1.66l-1.34 15.678c-.045.508.126 1.01.47 1.386.343.37.83.587 1.34.587h17.916c1.002 0 1.815-.814 1.815-1.815 0-.18-.025-.353-.075-.513l-1.312-15.32c-.08-.94-.868-1.662-1.812-1.662h-1.147L42.712 16.68l-9.145-2.822z" fill="#7DA36A" mask="url(#f)"/></g><g transform="translate(61.158 24.372)"><mask id="h" fill="#fff"><use xlink:href="#g"/></mask><path d="M10.662 6.607v31.916c-.536.317-.91.878-.91 1.548v12.485H.794c-.438 0-.795.688-.795 1.53 0 .84.356 1.527.794 1.527h21.558c.437 0 .793-.688.793-1.528 0-.84-.356-1.53-.793-1.53H13.39V40.072c0-.668-.376-1.23-.908-1.547V7.288l-1.82-.68zm1.82-2.4l45.246 14.974 1.136-3.48L12.14.244c-.958-.313-1.983.205-2.3 1.164-.267.832.105 1.687.822 2.12l1.82.68z" fill="#FEFEFE" mask="url(#h)"/></g><g transform="translate(61.158 24.324)"><mask id="j" fill="#fff"><use xlink:href="#i"/></mask><path d="M68.077 1.873c-.346 0-.695.083-1.016.245-.54.27-.95.74-1.13 1.286L56.28 32.952c-.185.565-.14 1.172.128 1.705.27.536.727.932 1.29 1.115l1.334.442c.935.31 2.268.043 3.014-.59l8.12-6.938c.636-.544 1.316-1.56 1.58-2.362l2.74-8.366c.256-.8.305-2.02.115-2.83l-2.45-10.43c-.23-.983-1.125-1.966-2.08-2.283l-1.322-.433c-.215-.074-.443-.11-.67-.11" fill="#FEFEFE" mask="url(#j)"/></g><path d="M94.796 38.346L92.74 60.514h-1.155c-.943 0-1.73.727-1.812 1.674l-1.346 15.808c-.044.51.127 1.016.473 1.396.343.375.83.592 1.34.592h17.955c1.004 0 1.818-.82 1.818-1.83 0-.182-.024-.356-.075-.517l-1.314-15.45c-.082-.946-.87-1.673-1.816-1.673h-1.15l-1.698-19.322-9.164-2.846z" fill="#FEFEFE"/><g opacity=".6"><g transform="translate(136 7)"><mask id="l" fill="#fff"><use xlink:href="#k"/></mask><path d="M31.178 6.16c-.815-.72-1.462-1.19-2.246-2.148-.59-.722-2.29-.533-3.17-.976C23 1.642 21.14.076 17.973.92c-1.276.34-2.076.648-3.398.51-1.642-.17-3.53.17-4.74 1.536-.29.328-4.307 2.473-4.143 3.193H31.18z" fill="#69995A" mask="url(#l)"/></g><g transform="translate(136 7)"><mask id="n" fill="#fff"><use xlink:href="#m"/></mask><path d="M35.517 8.736c-.458-.67-1.264-.98-2.22-.98H2.6c-.947 0-1.752.31-2.21.98-.435.637-.51 1.42-.206 2.23l5.09 13.566c.536 1.424 2.142 2.54 3.736 2.638.01-2.203 1.802-4.11 4.004-4.11 2.21 0 4.007 2.295 4.007 3.895h1.898c0-1.6 1.798-3.895 4.007-3.895 2.202 0 3.992 1.847 4.004 4.048 1.583-.112 3.17-1.214 3.7-2.628l5.093-13.512c.304-.808.23-1.595-.206-2.232" fill="#69995A" mask="url(#n)"/></g><g transform="translate(136 7)"><mask id="p" fill="#fff"><use xlink:href="#o"/></mask><path d="M13.014 24.778c1.328 0 2.407 1.08 2.407 2.41 0 1.333-1.078 2.412-2.406 2.412-1.33 0-2.406-1.08-2.406-2.41 0-1.333 1.077-2.412 2.406-2.412" fill="#69995A" mask="url(#p)"/></g><g transform="translate(136 7)"><mask id="r" fill="#fff"><use xlink:href="#q"/></mask><path d="M22.926 24.778c1.33 0 2.406 1.08 2.406 2.41 0 1.333-1.078 2.412-2.406 2.412-1.33 0-2.408-1.08-2.408-2.41 0-1.333 1.078-2.412 2.408-2.412" fill="#69995A" mask="url(#r)"/></g></g><g opacity=".6"><g transform="translate(189 9)"><mask id="t" fill="#fff"><use xlink:href="#s"/></mask><path d="M19.258 16.533c2.933 0 3.402-12.2 3.402-12.323 0-1.854-1.526-3.362-3.402-3.362-1.877 0-3.403 1.508-3.403 3.362 0 .122.47 12.323 3.403 12.323" fill="#69995A" mask="url(#t)"/></g><g transform="translate(189 9)"><mask id="v" fill="#fff"><use xlink:href="#u"/></mask><path d="M14.303 24.86c-.195-.348-.624-.76-1.547-.76-2.503 0-10.072 3.31-11.01 3.825-1.64.9-2.23 2.953-1.317 4.573.6 1.065 1.74 1.725 2.976 1.725.576 0 1.146-.15 1.654-.43.11-.055 10.666-6.41 9.243-8.933" fill="#69995A" mask="url(#v)"/></g><path d="M225.77 36.925c-.94-.516-8.508-3.825-11.01-3.825-.924 0-1.352.412-1.547.76-1.423 2.522 9.13 8.878 9.242 8.934.508.28 1.078.43 1.654.43 1.233 0 2.375-.66 2.975-1.726.913-1.62.325-3.672-1.315-4.573" fill="#69995A"/><g transform="translate(189 9)"><mask id="x" fill="#fff"><use xlink:href="#w"/></mask><path d="M8.19 49.117c-.328 0-.594.505-.594 1.12 0 .617.266 1.12.593 1.12h22.136c.326 0 .593-.503.593-1.12 0-.615-.268-1.12-.594-1.12H8.19zm12.34-2.334V25.507c1.343-.508 2.302-1.784 2.302-3.288-.002-1.95-1.602-3.53-3.574-3.53-1.974 0-3.574 1.58-3.574 3.53 0 1.503.958 2.78 2.3 3.287v21.276h2.545z" fill="#69995A" mask="url(#x)"/></g></g><g opacity=".6"><g fill="#69995A"><path d="M155.893 77.2l-3.49-5.98c-.614-1.057-1.56-1.66-2.596-1.66-1.034 0-1.984.603-2.598 1.66l-11.705 20.068c-.615 1.053-.67 2.167-.153 3.056.52.888 1.52 1.397 2.75 1.397h6.983l10.808-18.54zM197.602 95.742h3.93c1.232 0 2.233-.51 2.752-1.398.518-.888.46-2-.153-3.057l-7.3-12.514c-.613-1.056-1.56-1.66-2.597-1.66-1.035 0-1.982.604-2.597 1.66l-2.016 3.455 7.982 13.514zM160.753 74.044l5.432 3.483 3.744-4.487c.83-.995 2.326-1.14 3.335-.323l3.647 2.95 3.75-3.695-6.727-11.543c-.617-1.055-1.564-1.66-2.6-1.66s-1.983.605-2.598 1.66l-7.984 13.614z"/><path d="M182.23 74.74l-3.47 3.37c-.868.935-2.325 1.04-3.32.24l-3.588-2.906-3.645 4.367c-.48.573-1.2.88-1.922.88-.464 0-.93-.124-1.336-.385l-5.78-3.637-11.07 19.074h46.53l-12.4-21.002z"/></g></g><g opacity=".6"><path d="M13.498 75.38c-2.093.092-3.754 1.806-3.754 3.845 0 2.132 1.76 3.846 3.945 3.846h16.92c2.186 0 3.948-1.713 3.948-3.845 0-2.13-1.762-3.845-3.95-3.845H13.5z" fill="#69995A"/><g transform="translate(9 41)"><mask id="z" fill="#fff"><use xlink:href="#y"/></mask><path d="M14.86.705C14.48.24 13.91.01 13.388.01c-.284 0-.57.047-.807.186-.808.37-1.236 1.202-1.094 2.083 1.237 6.394.617 9.914-.38 11.12-.332.357-.95.185-1.236-.187-.57-.693-.807-1.806-.57-2.92.045-.135.045-.275.045-.46 0-1.02-.853-1.855-1.853-1.902h-.237c-.334 0-.666.14-.95.326-.143.093-.238.185-.38.323l-.05.047C1.41 13.907-.633 19.885.174 25.075c.41 2.687 1.612 5.02 3.437 6.89.136.14.55.407 1.087.407.538 0 1.158-.018 1.158-.018.37 0 1.03-.228.744-.86-.62-1.377-.415-2.587.702-5.306.382 3.612 1.998 5.28 3.756 5.28 2.758 0 5.847-4.075 4.945-11.074 5.377 5.242 3.8 8.918 2.956 10.808-.373.835.04 1.174.58 1.174h1.57c.495 0 .867-.256 1.37-.885 1.76-2.198 3.01-4.48 3.36-7.112C27.125 15.113 18.52 5.012 14.86.705" fill="#69995A" mask="url(#z)"/></g></g><g opacity=".6" transform="translate(19 -9)"><mask id="B" fill="#fff"><use xlink:href="#A"/></mask><path d="M34.633 30.266c1.38 0 2.65-.74 3.396-1.983l-2.116-1.278c-.297.498-.777.795-1.28.795-.87 0-1.58-.843-1.58-1.88 0-1.036.71-1.878 1.58-1.878.45 0 .884.235 1.187.645l1.984-1.468c-.773-1.05-1.93-1.65-3.17-1.65-2.233 0-4.045 1.95-4.045 4.35 0 2.394 1.81 4.346 4.043 4.346m-2.42 6.435c-.8-2.11-4.755-6.05-5.72-6.673-.43-.273-.795-.51-1.054-.802-.32-.363-.527-.623-.66-.805.144-.017.326-.027.56-.027 1.196 0 2.245-.54 2.874-1.488.58-.87.694-1.954.302-2.897-.166-.396-.672-1.607-.383-1.973.66-.167 1.135-.574 1.347-1.152.46-1.26-.5-2.74-1.796-4.544l-.25-.36c.047-.13.118-.288.17-.417.457-1.07 1.304-3.066-.043-4.923-.95-1.318-3.18-2.347-5.54-2.57-2.79-.25-5.363.596-7.273 2.406-3.214 3.04-2.49 9.085-.735 12.28.222.404.452.766.67 1.103.743 1.147.694 1.217.45 1.53-.31.41-.718.766-1.15 1.162-1.32 1.19-4.55 4.053-5.555 7.738 4.982 5.304 13.66 8.84 23.785 2.41M21.89 44C9.817 44 0 34.176 0 22.097 0 10.017 9.818.193 21.89.193c12.07 0 21.887 9.824 21.887 21.904S33.96 44 21.89 44" fill="#69995A" mask="url(#B)"/></g></g></g></svg>