<svg width="224" height="91" viewBox="0 0 224 91" xmlns="http://www.w3.org/2000/svg" xmlns:xlink="http://www.w3.org/1999/xlink"><title>home-card / download</title><defs><path d="M0 7.996C0 3.58 3.586 0 8.005 0h207.99C220.415 0 224 3.58 224 7.996V91H0V7.996z" id="a"/></defs><g fill="none" fill-rule="evenodd"><mask id="b" fill="#fff"><use xlink:href="#a"/></mask><use fill="#96BC7F" xlink:href="#a"/><g mask="url(#b)" opacity=".5"><path d="M59.48 172.366c.332.914-.146 1.95-1.08 2.29L25.09 186.783c-.932.34-1.957-.15-2.29-1.065l-16.153-44.38c-.333-.915.133-1.96 1.066-2.3l26.468-9.633c.443-.16.716-.05 1.142.142l9.56 4.277c.434.193.775.56.936 1.003l13.664 37.54z" fill="#69995A"/><path d="M42.715 152.16l-19.305 7.027M45.51 159.843l-19.304 7.026M48.307 167.525l-19.305 7.027M32.423 147.177l-12.066 4.39" stroke="#44663A" stroke-width="1.955" stroke-linecap="round" stroke-linejoin="round"/><path d="M37.28 137.932l-3.102-8.527c.443-.162.717-.05 1.143.14l9.56 4.277c.435.194.774.56.936 1.004l-8.535 3.106z" fill="#44653A"/><g><path d="M120.085 150.308c.332.914-.146 1.95-1.08 2.29l-33.312 12.125c-.932.34-1.957-.15-2.29-1.064L67.25 119.277c-.333-.914.133-1.96 1.066-2.3l26.467-9.632c.443-.16.716-.05 1.142.14l9.56 4.278c.434.194.775.56.936 1.003l13.665 37.54z" fill="#69995A"/><path d="M103.32 130.102l-19.305 7.027M106.116 137.785L86.81 144.81M108.912 145.467l-19.305 7.026M93.027 125.118l-12.065 4.392" stroke="#44663A" stroke-width="1.955" stroke-linecap="round" stroke-linejoin="round"/><path d="M97.886 115.874l-3.103-8.528c.443-.16.717-.05 1.143.14l9.56 4.278c.434.194.773.56.935 1.003l-8.534 3.107z" fill="#44653A"/></g><g><path d="M180.69 128.25c.332.914-.146 1.95-1.08 2.29L146.3 142.665c-.932.34-1.957-.15-2.29-1.065l-16.153-44.38c-.333-.914.133-1.96 1.066-2.3l26.468-9.632c.443-.16.716-.05 1.142.14l9.56 4.278c.434.194.775.56.936 1.003l13.664 37.54z" fill="#69995A"/><path d="M163.925 108.044l-19.305 7.026M166.72 115.726l-19.304 7.027M169.517 123.41l-19.305 7.025M153.632 103.06l-12.065 4.39" stroke="#44663A" stroke-width="1.955" stroke-linecap="round" stroke-linejoin="round"/><path d="M158.49 93.815l-3.102-8.527c.443-.162.717-.05 1.143.14l9.56 4.278c.434.193.774.56.936 1.003l-8.535 3.105z" fill="#44653A"/></g><g><path d="M241.295 106.19c.332.915-.146 1.952-1.08 2.292l-33.312 12.125c-.932.34-1.957-.15-2.29-1.065l-16.153-44.38c-.333-.915.133-1.96 1.066-2.3l26.467-9.633c.443-.162.716-.05 1.142.14l9.56 4.278c.434.193.775.56.936 1.002l13.665 37.54z" fill="#69995A"/><path d="M224.53 85.985l-19.305 7.027M227.326 93.668l-19.305 7.026M230.122 101.35l-19.305 7.027M214.237 81l-12.065 4.393" stroke="#44663A" stroke-width="1.955" stroke-linecap="round" stroke-linejoin="round"/><path d="M219.096 71.757l-3.103-8.528c.443-.162.717-.05 1.143.14l9.56 4.277c.433.194.773.56.935 1.004l-8.534 3.107z" fill="#44653A"/></g><g><path d="M301.9 84.133c.332.914-.146 1.95-1.08 2.29L267.51 98.548c-.932.34-1.957-.15-2.29-1.064l-16.153-44.38c-.333-.915.133-1.96 1.066-2.3L276.6 41.17c.443-.16.716-.048 1.142.142l9.56 4.277c.434.193.775.56.936 1.002l13.664 37.54z" fill="#69995A"/><path d="M285.135 63.927l-19.305 7.026M287.93 71.61l-19.304 7.026M290.727 79.292l-19.305 7.026M274.842 58.943l-12.065 4.392" stroke="#44663A" stroke-width="1.955" stroke-linecap="round" stroke-linejoin="round"/><path d="M279.7 49.698L276.6 41.17c.443-.16.717-.048 1.143.142l9.56 4.277c.434.193.774.56.936 1.002l-8.535 3.106z" fill="#44653A"/></g><g><path d="M362.505 62.074c.332.914-.146 1.95-1.08 2.29L328.114 76.49c-.932.34-1.957-.15-2.29-1.065l-16.153-44.38c-.333-.915.133-1.96 1.066-2.3l26.467-9.633c.443-.16.716-.05 1.142.142l9.56 4.277c.434.194.775.56.936 1.004l13.665 37.54z" fill="#69995A"/><path d="M345.74 41.868l-19.305 7.027M348.536 49.55l-19.305 7.027M351.332 57.233l-19.305 7.027M335.447 36.885l-12.065 4.39" stroke="#44663A" stroke-width="1.955" stroke-linecap="round" stroke-linejoin="round"/><path d="M340.306 27.64l-3.103-8.528c.443-.16.717-.05 1.143.14l9.56 4.278c.433.194.773.56.935 1.004l-8.534 3.106z" fill="#44653A"/></g><g><path d="M65.054 93.522c.333.915-.145 1.952-1.078 2.29L30.663 107.94c-.933.34-1.958-.15-2.29-1.064l-16.154-44.38c-.334-.915.133-1.96 1.065-2.3l26.467-9.633c.443-.16.717-.048 1.143.142l9.56 4.277c.433.193.774.56.935 1.002l13.664 37.54z" fill="#69995A"/><path d="M48.29 73.317l-19.306 7.026M51.085 81L31.78 88.025M53.882 88.682l-19.305 7.026M37.997 68.333l-12.066 4.39" stroke="#44663A" stroke-width="1.955" stroke-linecap="round" stroke-linejoin="round"/><path d="M42.856 59.088l-3.104-8.527c.444-.16.717-.05 1.143.142l9.56 4.277c.434.192.774.56.935 1.002l-8.534 3.106z" fill="#44653A"/><g><path d="M186.264 49.406c.333.914-.145 1.95-1.078 2.29L151.872 63.82c-.932.34-1.957-.15-2.29-1.063l-16.153-44.38c-.334-.915.133-1.96 1.065-2.3l26.467-9.633c.443-.16.717-.05 1.143.14l9.56 4.278c.433.194.774.56.935 1.003l13.664 37.54z" fill="#69995A"/><path d="M169.5 29.2l-19.306 7.026M172.295 36.882L152.99 43.91M175.092 44.565l-19.305 7.026M159.207 24.216l-12.066 4.392" stroke="#44663A" stroke-width="1.955" stroke-linecap="round" stroke-linejoin="round"/><path d="M164.066 14.97l-3.104-8.526c.444-.16.717-.05 1.143.14l9.56 4.278c.434.194.774.56.935 1.003l-8.534 3.106z" fill="#44653A"/></g><g><path d="M246.87 27.347c.332.914-.146 1.95-1.08 2.29l-33.313 12.126c-.932.34-1.957-.15-2.29-1.065l-16.153-44.38c-.333-.915.134-1.96 1.066-2.3l26.467-9.632c.443-.162.717-.05 1.143.14l9.56 4.278c.433.193.774.56.935 1.003l13.664 37.54z" fill="#69995A"/><path d="M230.104 7.142L210.8 14.168M232.9 14.824l-19.305 7.026M235.697 22.506l-19.306 7.027M219.812 2.158l-12.066 4.39" stroke="#44663A" stroke-width="1.955" stroke-linecap="round" stroke-linejoin="round"/><path d="M224.67-7.087l-3.103-8.527c.444-.162.717-.05 1.143.14l9.56 4.277c.434.194.774.56.935 1.004l-8.534 3.106z" fill="#44653A"/></g><g><path d="M307.474 5.29c.333.913-.145 1.95-1.08 2.29l-33.312 12.124c-.932.34-1.957-.15-2.29-1.064L254.64-25.74c-.334-.915.133-1.96 1.065-2.3l26.467-9.633c.443-.16.717-.05 1.143.14l9.56 4.278c.433.194.774.56.935 1.003l13.664 37.54z" fill="#69995A"/><path d="M290.71-14.917L271.403-7.89M293.505-7.234L274.2-.208M296.302.448l-19.306 7.026M280.417-19.9l-12.066 4.39" stroke="#44663A" stroke-width="1.955" stroke-linecap="round" stroke-linejoin="round"/><path d="M285.276-29.145l-3.104-8.528c.444-.16.717-.05 1.143.14l9.56 4.278c.434.194.774.56.935 1.003l-8.534 3.107z" fill="#44653A"/></g><g><path d="M368.08-16.77c.332.915-.146 1.952-1.08 2.29L333.687-2.353c-.932.34-1.957-.15-2.29-1.065L315.244-47.8c-.333-.913.134-1.96 1.066-2.298l26.467-9.633c.443-.162.717-.05 1.143.14l9.56 4.277c.433.194.774.56.935 1.003l13.664 37.54z" fill="#69995A"/><path d="M351.314-36.975L332.01-29.95M354.11-29.293l-19.305 7.027M356.907-21.61L337.6-14.584M341.022-41.96l-12.066 4.392" stroke="#44663A" stroke-width="1.955" stroke-linecap="round" stroke-linejoin="round"/><path d="M345.88-51.204l-3.103-8.527c.444-.163.717-.05 1.143.14l9.56 4.277c.434.193.774.56.935 1.003l-8.534 3.106z" fill="#44653A"/></g></g><g><path d="M10.484 37.75c.333.916-.146 1.952-1.08 2.292l-33.312 12.125c-.932.34-1.957-.15-2.29-1.065L-42.35 6.722c-.334-.914.133-1.96 1.065-2.3l26.467-9.632c.443-.16.717-.05 1.142.14l9.56 4.278c.434.194.775.56.936 1.003l13.664 37.54z" fill="#69995A"/><path d="M-6.28 17.546l-19.306 7.026M-3.485 25.228l-19.305 7.027M-.69 32.91l-19.304 7.027M-16.573 12.562l-12.066 4.39" stroke="#44663A" stroke-width="1.955" stroke-linecap="round" stroke-linejoin="round"/><path d="M-11.714 3.317l-3.104-8.527c.443-.162.717-.05 1.143.14l9.56 4.278c.434.193.774.56.935 1.003l-8.534 3.107z" fill="#44653A"/><g><path d="M71.09 15.693c.332.914-.147 1.95-1.08 2.29L36.697 30.11c-.932.338-1.957-.152-2.29-1.066l-16.153-44.38c-.333-.915.134-1.96 1.066-2.3l26.467-9.633c.443-.16.717-.048 1.142.142l9.56 4.277c.433.193.774.56.935 1.002l13.664 37.54z" fill="#69995A"/><path d="M54.324-4.513L35.02 2.514M57.12 3.17l-19.305 7.026M59.916 10.852L40.61 17.88M44.032-9.497L31.966-5.105" stroke="#44663A" stroke-width="1.955" stroke-linecap="round" stroke-linejoin="round"/><path d="M48.89-18.74l-3.103-8.53c.443-.16.717-.048 1.143.142l9.56 4.277c.434.193.774.56.935 1.002L48.89-18.74z" fill="#44653A"/></g><g><path d="M131.694-6.365c.333.914-.146 1.95-1.08 2.29L97.303 8.05c-.932.34-1.957-.15-2.29-1.064L78.86-37.394c-.334-.915.133-1.96 1.065-2.3l26.467-9.633c.443-.16.717-.05 1.142.14l9.56 4.278c.434.195.775.56.936 1.004l13.664 37.54z" fill="#69995A"/><path d="M114.93-26.57l-19.306 7.025M117.725-18.89L98.42-11.86M120.52-11.206L101.217-4.18M104.637-31.555L92.57-27.163" stroke="#44663A" stroke-width="1.955" stroke-linecap="round" stroke-linejoin="round"/><path d="M109.496-40.8l-3.104-8.527c.443-.162.717-.05 1.143.14l9.56 4.278c.434.194.774.56.935 1.004l-8.534 3.106z" fill="#44653A"/></g><g><path d="M192.3-28.424c.332.914-.147 1.95-1.08 2.29l-33.313 12.126c-.932.34-1.957-.15-2.29-1.065l-16.153-44.38c-.333-.915.134-1.96 1.066-2.3l26.467-9.633c.443-.16.717-.05 1.142.142l9.56 4.277c.433.193.774.56.935 1.003l13.664 37.54z" fill="#69995A"/><path d="M175.534-48.63l-19.305 7.027M178.33-40.947l-19.305 7.026M181.126-33.265l-19.305 7.027M165.242-53.613l-12.066 4.39" stroke="#44663A" stroke-width="1.955" stroke-linecap="round" stroke-linejoin="round"/><path d="M170.1-62.858l-3.103-8.528c.443-.16.717-.05 1.143.14l9.56 4.278c.434.194.774.56.935 1.004l-8.535 3.106z" fill="#44653A"/></g><g><path d="M252.904-50.482c.333.914-.146 1.95-1.08 2.29l-33.312 12.125c-.932.34-1.957-.15-2.29-1.064L200.07-81.513c-.334-.914.133-1.96 1.065-2.3l26.467-9.632c.443-.16.717-.05 1.142.14l9.56 4.278c.434.194.775.56.936 1.003l13.664 37.54z" fill="#69995A"/><path d="M236.14-70.688l-19.306 7.026M238.935-63.006L219.63-55.98M241.73-55.323l-19.304 7.026M225.847-75.672L213.78-71.28" stroke="#44663A" stroke-width="1.955" stroke-linecap="round" stroke-linejoin="round"/><path d="M230.705-84.917l-3.103-8.527c.443-.16.717-.05 1.143.14l9.56 4.278c.434.194.773.56.935 1.003l-8.535 3.106z" fill="#44653A"/></g></g></g><path d="M117.246 82.49c0 1.124-.923 2.06-2.064 2.06H74.47c-1.14 0-2.053-.936-2.053-2.06V27.97c0-1.123.914-2.072 2.053-2.072h32.346c.54 0 .793.23 1.177.604l8.637 8.414c.392.38.616.913.616 1.457V82.49z" fill="#7DA36A" mask="url(#b)" transform="rotate(-20 94.83 55.224)"/><g mask="url(#b)"><path d="M128.893 66.58c.38 1.04-.16 2.217-1.214 2.6L90.02 82.89c-1.053.383-2.214-.176-2.593-1.216L69.047 31.17c-.38-1.04.145-2.228 1.2-2.612l29.92-10.89c.5-.182.81-.054 1.29.164l10.827 4.886c.49.22.878.638 1.06 1.142l15.55 42.72z" fill="#FFF"/><path d="M109.878 43.564l-21.823 7.943M113.06 52.306L91.237 60.25M116.242 61.048L94.42 68.99M98.223 37.872l-13.64 4.964" stroke="#587F4C" stroke-width="1.955" stroke-linecap="round" stroke-linejoin="round"/><path d="M103.697 27.372l-3.532-9.704c.502-.182.812-.054 1.294.163l10.825 4.887c.49.222.876.64 1.06 1.144l-9.648 3.512z" fill="#587F4C"/></g></g></svg>