<svg width="224" height="91" viewBox="0 0 224 91" xmlns="http://www.w3.org/2000/svg" xmlns:xlink="http://www.w3.org/1999/xlink"><title>home-card / ownership</title><defs><path d="M0 7.996C0 3.58 3.586 0 8.005 0h207.99C220.415 0 224 3.58 224 7.996V91H0V7.996z" id="d"/><path id="f" d="M0 .132h29.848V30H0"/><path id="h" d="M0 .09h44.828v32.9H0z"/><path id="j" d="M0 .12h44.828v32.9H0"/><path id="l" d="M22.982.067h22.98v59.04H0V.066z"/><path id="a" d="M32.998 63.746l-2.585-2.5-3.566.51 3.752-11.5 6.15 1.99z"/><mask id="n" x="-1.5" y="-1.5" width="12.902" height="16.488"><path fill="#fff" d="M25.347 48.757H38.25v16.488H25.346z"/><use xlink:href="#a"/></mask><path id="b" d="M35.984 63.745l2.584-2.5 3.567.51-3.753-11.498-6.15 1.99z"/><mask id="o" x="-1.5" y="-1.5" width="12.902" height="16.488"><path fill="#fff" d="M30.732 48.757h12.902v16.488H30.732z"/><use xlink:href="#b"/></mask><path d="M40.24 48.75c0 3.162-2.574 5.726-5.75 5.726-3.175 0-5.75-2.564-5.75-5.726s2.575-5.726 5.75-5.726c3.176 0 5.75 2.564 5.75 5.726z" id="c"/><mask id="p" x="-1.5" y="-1.5" width="14.5" height="14.452"><path fill="#fff" d="M27.24 41.524h14.5v14.452h-14.5z"/><use xlink:href="#c"/></mask></defs><g fill="none" fill-rule="evenodd"><mask id="e" fill="#fff"><use xlink:href="#d"/></mask><use fill="#5C737F" xlink:href="#d"/><g transform="translate(172 31)" mask="url(#e)"><mask id="g" fill="#fff"><use xlink:href="#f"/></mask><path d="M23.614 20.636c.94 0 1.806-.505 2.315-1.352l-1.443-.87c-.203.338-.53.54-.873.54-.594 0-1.078-.575-1.078-1.282 0-.706.484-1.28 1.078-1.28.307 0 .603.16.81.44l1.35-1c-.525-.715-1.314-1.125-2.16-1.125-1.522 0-2.758 1.328-2.758 2.965 0 1.633 1.236 2.964 2.758 2.964m-1.65 4.387c-.545-1.438-3.243-4.126-3.9-4.55-.293-.186-.543-.347-.72-.547-.217-.247-.358-.424-.45-.55.1-.01.224-.017.383-.017.816 0 1.53-.37 1.96-1.016.396-.592.473-1.332.206-1.975-.113-.27-.46-1.096-.262-1.346.45-.114.776-.39.92-.786.313-.858-.34-1.868-1.224-3.098l-.17-.245c.03-.09.08-.196.115-.284.312-.728.89-2.09-.03-3.356-.647-.898-2.167-1.6-3.777-1.752-1.9-.17-3.656.407-4.958 1.64-2.192 2.073-1.7 6.195-.5 8.374.15.275.307.522.456.752.507.783.474.83.308 1.044-.213.28-.49.52-.785.79-.9.814-3.103 2.765-3.788 5.278 3.397 3.616 9.315 6.027 16.218 1.643M14.925 30C6.695 30 0 23.302 0 15.066 0 6.83 6.694.132 14.925.132c8.23 0 14.923 6.698 14.923 14.934C29.848 23.302 23.154 30 14.925 30" fill="#758C99" mask="url(#g)"/></g><g mask="url(#e)"><g transform="translate(35 26.978)"><mask id="i" fill="#fff"><use xlink:href="#h"/></mask><path d="M6.397 3.92v18.933c-.32.188-.546.52-.546.918v7.407H.477c-.262 0-.476.408-.476.907 0 .498.214.906.476.906H13.41c.263 0 .477-.408.477-.906 0-.5-.214-.907-.476-.907H8.035V23.77c0-.396-.225-.73-.545-.917V4.323L6.396 3.92zM7.49 2.496l27.147 8.883.68-2.066L7.285.144c-.575-.185-1.19.122-1.38.69-.16.495.063 1.002.493 1.258l1.092.404z" fill="#758C99" mask="url(#i)"/></g><g transform="translate(35 26.95)"><mask id="k" fill="#fff"><use xlink:href="#j"/></mask><path d="M40.846 1.11c-.207 0-.417.05-.61.146-.324.16-.57.44-.677.763l-5.793 17.528c-.11.335-.084.695.077 1.01.16.32.436.554.773.663l.8.263c.562.184 1.362.026 1.81-.35l4.872-4.116c.38-.322.788-.925.947-1.4l1.644-4.964c.154-.474.183-1.198.07-1.68L43.29 2.79c-.138-.584-.675-1.167-1.25-1.355l-.79-.257c-.13-.044-.267-.065-.404-.065" fill="#758C99" mask="url(#k)"/></g><path d="M55.183 35.267l-1.234 13.15h-.694c-.566 0-1.04.432-1.087.994l-.808 9.378c-.027.303.076.603.283.83.206.22.498.35.805.35h10.772c.603 0 1.09-.487 1.09-1.086 0-.108-.013-.21-.044-.307l-.79-9.164c-.047-.56-.52-.992-1.088-.992h-.69l-1.02-11.463-5.497-1.688z" fill="#758C99"/></g><g mask="url(#e)" fill="#758C99"><path d="M225.54 54.312c1.61.07 2.888 1.376 2.888 2.93 0 1.624-1.353 2.93-3.035 2.93h-13.016c-1.682 0-3.037-1.306-3.037-2.93s1.355-2.93 3.037-2.93h13.163zM217.57 28.655c.29-.355.73-.53 1.132-.53.22 0 .44.036.62.142.622.28.952.916.842 1.587-.95 4.872-.474 7.554.293 8.472.255.273.73.142.95-.142.44-.528.622-1.376.44-2.223-.036-.103-.036-.21-.036-.35 0-.777.658-1.414 1.427-1.45h.182c.256 0 .51.106.73.248.11.07.182.14.292.246l.037.037c3.436 4.024 5.008 8.578 4.387 12.532-.315 2.048-1.24 3.824-2.644 5.25-.104.107-.423.31-.836.31-.414 0-.89-.014-.89-.014-.286 0-.792-.173-.573-.655.477-1.05.318-1.97-.54-4.043-.294 2.752-1.538 4.024-2.89 4.024-2.122 0-4.497-3.106-3.804-8.438-4.136 3.994-2.922 6.794-2.274 8.235.286.637-.032.895-.446.895h-1.208c-.38 0-.668-.195-1.055-.674-1.354-1.675-2.315-3.413-2.584-5.418-.988-7.06 5.63-14.756 8.446-18.037"/></g><g mask="url(#e)" fill="#758C99"><path d="M98.826 34.764c2.106 0 2.443-8.68 2.443-8.77 0-1.317-1.097-2.39-2.444-2.39s-2.443 1.073-2.443 2.39c0 .09.337 8.77 2.443 8.77M95.27 40.69c-.14-.25-.45-.542-1.112-.542-1.797 0-7.23 2.356-7.905 2.722-1.177.64-1.6 2.1-.945 3.254.432.757 1.25 1.227 2.138 1.227.413 0 .822-.105 1.187-.304.08-.04 7.657-4.562 6.636-6.357M111.4 42.87c-.676-.367-6.11-2.722-7.906-2.722-.663 0-.97.293-1.11.54-1.022 1.796 6.555 6.318 6.635 6.358.364.2.773.305 1.187.305.886 0 1.705-.47 2.136-1.226.655-1.153.234-2.613-.944-3.254M90.88 57.95c-.236 0-.427.358-.427.796 0 .44.19.797.426.797h15.892c.234 0 .426-.358.426-.797 0-.438-.192-.797-.426-.797H90.88zm8.86-1.662v-15.14c.964-.36 1.652-1.268 1.652-2.34 0-1.386-1.15-2.51-2.566-2.51-1.417 0-2.566 1.124-2.566 2.51 0 1.072.688 1.98 1.652 2.34v15.14h1.827z"/></g><g fill="#758C99" mask="url(#e)"><path d="M-13.09 43.674l-2.992-5.193c-.527-.917-1.34-1.442-2.226-1.442-.887 0-1.7.525-2.227 1.443L-30.567 55.91c-.528.914-.575 1.882-.13 2.653.444.773 1.302 1.215 2.357 1.215h5.985l9.264-16.1zM22.66 59.776h3.368c1.055 0 1.913-.443 2.358-1.214.444-.77.395-1.737-.13-2.655L21.997 45.04c-.526-.917-1.338-1.442-2.227-1.442-.886 0-1.698.525-2.225 1.44l-1.728 3.002 6.842 11.736zM-8.926 40.933l4.656 3.025 3.21-3.897c.71-.863 1.994-.99 2.86-.28l3.125 2.563 3.214-3.21L2.37 29.11c-.528-.916-1.34-1.442-2.227-1.442-.89 0-1.7.526-2.227 1.44l-6.844 11.825z"/><path d="M9.482 41.538l-2.974 2.927c-.743.81-1.992.903-2.845.206L.588 42.15l-3.125 3.79c-.412.498-1.028.763-1.648.763-.397 0-.796-.106-1.144-.333l-4.954-3.16-9.488 16.566H20.11L9.483 41.538z"/></g><path d="M160.027 79.906h.924c1.108 0 2.013-.906 2.013-2.013v-55.26c0-1.106-.905-2.01-2.012-2.01h-41.937c-1.107 0-2.013.904-2.013 2.01v55.26c0 1.107.906 2.013 2.013 2.013h23.94l-1.277 3.932 5.22-.748 3.785 3.674.81-2.495.812 2.494 3.783-3.674 5.22.748-1.278-3.932z" fill="#51636C" mask="url(#e)"/><g transform="translate(121 16)" mask="url(#e)"><g transform="translate(0 .552)"><mask id="m" fill="#fff"><use xlink:href="#l"/></mask><path d="M43.95 59.106H2.014C.906 59.106 0 58.204 0 57.102V2.072C0 .97.906.067 2.013.067H43.95c1.108 0 2.013.902 2.013 2.005v55.03c0 1.102-.905 2.004-2.012 2.004" fill="#FFF" mask="url(#m)"/></g><path fill="#5C737F" d="M32.998 63.746l-2.585-2.5-3.566.51 3.752-11.5 6.15 1.99"/><use stroke="#FFF" mask="url(#n)" stroke-width="3" xlink:href="#a"/><path fill="#5C737F" d="M35.984 63.745l2.584-2.5 3.567.51-3.753-11.498-6.15 1.99"/><use stroke="#FFF" mask="url(#o)" stroke-width="3" xlink:href="#b"/><path d="M40.24 48.75c0 3.162-2.574 5.726-5.75 5.726-3.175 0-5.75-2.564-5.75-5.726s2.575-5.726 5.75-5.726c3.176 0 5.75 2.564 5.75 5.726" fill="#5C737F"/><use stroke="#FFF" mask="url(#p)" stroke-width="3" xlink:href="#c"/><g fill="#889FAB"><path d="M35.595 19.157c-.792-.696-1.42-1.15-2.18-2.077-.575-.698-2.227-.516-3.08-.944-2.685-1.35-4.492-2.863-7.57-2.047-1.238.33-2.015.626-3.3.492-1.593-.164-3.427.166-4.602 1.486-.282.318-4.185 2.393-4.026 3.09h24.758zM39.81 21.65c-.446-.648-1.228-.95-2.157-.95H7.837c-.92 0-1.704.302-2.148.95-.424.616-.497 1.375-.2 2.157l4.944 13.122c.52 1.377 2.08 2.457 3.628 2.55.01-2.13 1.75-3.974 3.89-3.974 2.145 0 3.89 2.22 3.89 3.767h1.844c0-1.547 1.746-3.767 3.892-3.767 2.14 0 3.878 1.786 3.89 3.916 1.538-.11 3.08-1.175 3.595-2.542l4.947-13.07c.294-.783.222-1.544-.2-2.16"/><path d="M17.95 37.168c1.29 0 2.34 1.043 2.34 2.33 0 1.29-1.05 2.335-2.34 2.335-1.29 0-2.337-1.045-2.337-2.334 0-1.29 1.047-2.332 2.338-2.332M27.58 37.168c1.29 0 2.336 1.043 2.336 2.33 0 1.29-1.047 2.335-2.337 2.335-1.293 0-2.34-1.045-2.34-2.334 0-1.29 1.047-2.332 2.34-2.332"/></g></g></g></svg>