<svg width="225" height="91" viewBox="0 0 225 91" xmlns="http://www.w3.org/2000/svg" xmlns:xlink="http://www.w3.org/1999/xlink"><title>home-card / case-studies</title><defs><path d="M0 7.996C0 3.58 3.58 0 8.008 0h208.984C221.415 0 225 3.58 225 7.996V91H0V7.996z" id="a"/><path id="c" d="M82.675 61.68H.398V.062h82.277z"/><path id="e" d="M0 79.47V.607h67.188v78.86H0z"/></defs><g fill="none" fill-rule="evenodd"><mask id="b" fill="#fff"><use xlink:href="#a"/></mask><use fill="#5B7381" xlink:href="#a"/><g mask="url(#b)"><path d="M177.604 123.637c-5.27-4.17-14.39-2.413-20.623-2.367-8.082.06-16.88-.918-24.834.6-.678-12.304-4.764-18.547 6.51-27.45 4.138-3.268 9.158-5.028 13.49-8.16 3.016-2.18 8.76-9.977 13.137-9.46 7.306.864 7.474 15.665 7.627 21.854.212 8.48 4.04 16.542 4.694 24.983" fill="#758C99"/><g transform="translate(168.318 64.706)"><mask id="d" fill="#fff"><use xlink:href="#c"/></mask><path d="M68.147.495c2.572 5.63 3.664 10.65 5.56 16.534 2.574 7.98 9.233 21.512 8.96 29.863-.368 11.192-8.502 9.994-17.74 10.13-9.146.136-18.723-.222-27.77.946-6.427.83-21.587 6.447-27.035 2.042-2.323-1.878-3.996-15.11-4.674-18.848-1.278-7.046.03-15.096-3.21-22.717-4.363-10.254-.792-8.03 8.883-6.94 4.63.523 7.618.602 11.514 1.744 2.714.798 6.127 3.96 8.37 4.45 4.98 1.094 16.992-7.687 16.787.66.522-.17 3.984-1.617 4.065-1.75 2.1-3.425-.376-3.31-.104-4.08.64-1.81 3.76-7.965 1.083-11.227C57.693 1.18 64.4-.79 68.147.495" fill="#758C99" mask="url(#d)"/></g><path d="M177.394 123.903c-4.05-3.203-10.447-2.82-16.087-2.482-1.537.093-2.99.18-4.323.19-2.36.02-4.832-.056-7.222-.126-5.876-.172-11.953-.35-17.552.718l-.376.07-.026-.38c-.157-2.268-.395-4.373-.604-6.23-1.04-9.187-1.666-14.73 8.554-22.156 1.504-1.094 3.312-2.547 5.226-4.084 7.026-5.647 15.75-12.66 22.472-13.004.266-.738.798-1.317 1.583-1.722 3.52-1.813 12.528-.136 26.058 4.852l.1.037c.496.182.962.358 1.405.526 3.647 1.382 5.654 2.14 9.987 1.097.863-.208 1.867-.62 2.84-1.02 2.15-.883 4.376-1.796 5.77-.846.793.542 1.203 1.604 1.246 3.24.995-.392 3.106-1.29 3.473-1.498 1.266-2.094.67-2.624.233-3.01-.238-.21-.562-.5-.404-.948.087-.248.22-.574.377-.963.958-2.358 2.95-7.268.762-9.935l-.44-.536.693-.02c1.722-.043 3.732-.328 5.676-.606 3.576-.51 7.276-1.035 9.755-.183l-.22.642c-2.326-.8-5.942-.285-9.44.214-1.735.246-3.52.5-5.127.588 1.834 3.028-.083 7.752-1.033 10.092-.153.377-.28.694-.366.933.01.035.133.143.213.214.71.63 1.343 1.507-.14 3.93-.197.322-4.21 1.882-4.25 1.895l-.45.145.007-.474c.026-1.646-.293-2.71-.952-3.16-1.092-.743-3.145.1-5.13.915-.997.408-2.026.83-2.94 1.05-4.536 1.092-6.738.26-10.385-1.12-.44-.167-.905-.343-1.398-.524l-.102-.037c-16.86-6.216-23.18-6.088-25.513-4.884-.665.34-1.085.81-1.284 1.427.5 1.19 1.11 2.455 1.757 3.793 2.136 4.42 4.56 9.43 3.96 14.047l-.674-.087c.573-4.418-1.802-9.33-3.897-13.665-.632-1.307-1.23-2.546-1.727-3.72-6.51.34-15.496 7.565-22.078 12.855-1.92 1.544-3.733 3-5.25 4.104-9.902 7.193-9.292 12.59-8.28 21.532.198 1.76.422 3.742.58 5.88 5.566-1.004 11.543-.83 17.325-.66 2.383.07 4.845.145 7.196.125 1.316-.008 2.758-.094 4.286-.186 5.762-.345 12.297-.736 16.55 2.627l-.422.533z" fill="#AAA"/><path d="M235.823 63.408l-.004-.056.003.056zM224.65 5.445c-.685-1.566 15.86-3.59 20.48-3.177 5.705.51 3.768-.652 6.287 4.474 1.457 2.965 1.95 6.877 2.848 10.094 1.567 5.614 5.107 11.835 6.116 17.248.952 5.098-1.592 11.733 1.7 17.426-7.035.88-14.21 1.226-21.212 2.274-1.155.173-5.514-.147-6.115.57-1.787 2.13 1.565 1.963 1.16 3.4-.858 3.05 2.26 6.967-4.94 6.647.788-.295 1.573-.59 2.36-.887-1.49-1.818-2.918-4.29-3.307-6.063.156 1.834-.824 7.59-3.854 5.407-.994-.715-.858-7.05-1.03-8.437-.648-5.196-1.163-10.134-1.202-15.357-.082-11.19.366-22.433.71-33.618z" fill="#758C99"/><g transform="translate(-54 -34.93)"><mask id="f" fill="#fff"><use xlink:href="#e"/></mask><path d="M67.188 7.893c-3.31 23.86-6.597 47.72-9.94 71.576-9.024-1.32-17.778-1.84-25.924-5.73-7.763-3.706-22.53-10.43-28.65-16.87-5.393-5.672-.923-1.106-1.14-4.896.158 2.766 1.31-7.77.008-4.546C2.6 44.81 3.732 44.01 4.567 42c.793-1.904 4.09-6.498 4.28-7.234 1.19-4.58-2.166-12.058-.814-18.728 2.334-11.505 4.47-.41 8.367-9.057C19.564-.04 14.882.433 23.417.77 28.2.96 33.45 2.59 38.187 3.387c9.65 1.62 19.314 3.132 29 4.505" fill="#758C99" mask="url(#f)"/></g><path d="M167.73-12.005c6.984-.157 13.966-.423 20.944-.752 4.462-.21 21.087-2.368 11.73 5.805 3.856-.755 10.93-.424 4.504 3.045.793 2.256-.048 3.676-1.69 3.96 3.342 5.708-7.984 13.304-6.642 18.348-4.213 4.61-1.096 7.825-2.217 13.21-10.11.41-20.222.678-30.34.89.76-7.855-3.32-4.824-4.263-7.215-1.392-3.54-.473-9.075-.437-13.092.072-8.278-.854-15.82-2.003-23.995 3.47-.047 6.942-.11 10.413-.203M235.823 63.408l-.004-.056.003.056zM209.007-13.933l-.55.034.55-.033z" fill="#758C99"/><path d="M195.93 77.75l.51 1.85c-1.84-.78-.545-.944-.51-1.85zm9.23 1.51l.006.09-.006-.09zm-16.63-4.522l2.046.93c-3.58 1.423-1.817-.16-2.046-.93zm26.275-1.463l-.408-.307.408.307zm-.408-.307l.157.104-.157-.104zm.408.307c-.12-.094-.553-.435 0 0zm-50.56-30.3c-.185-7.754-1.9-8.89 4.538-10.58 5.017-1.316 11.9-.26 17.06-.44 1.433-.05 6.014-1.053 7.487-.308 2.766 1.4.324 2.26 1.43 4.52 1.1 2.25 3.872 3.414.56 5.5 1.51 2.237-3.926 11.1-5.092 12.477.08 1.283.56 1.71.34 3.173 6.875-.307 13.745-.716 20.61-1.19-1.912 3.95.675 7.487 2.92 10.277-1.29.588-2.283 2.002-3.518 2.467 2.988 1.752 2.37 1.565 4.475-1.03.405.99.99 2.33 1.29 3.363-1.147.632-2.042.42-3.288.707.415.385.83.772 1.247 1.157-.58.256-1.426.257-2.073.706 2.034 2.74 12.578 4.658 4.077 8.335 3.92-5.917-6.446-4.165-8.91-8.98.855 2.526 2.885 4.97-.062 7.57-.44-.843-1.15-1.927-1.675-2.725l-.508 1.154c-.248-.127-1.008-.758-2.034-1.044-1.398 2.18-.824 1.69-3.83 2.088.48-.326.958-.653 1.437-.98l-1.712-1.203-.93 1.938c-1.093-2.426-1.893-2.45-2.058-4.948-2.57 2.22-4.527-.477-7.134-1.57.09-.39.177-.78.265-1.17-4.755 1.29-2.495 3.61-8.55 3.496-2.395-.045-13.536-1.695-14.49-2.407 2.197-2.03 4.28-13.02 4.075-16.148-.277-4.24-4.855-9.31-5.945-14.202z" fill="#758C99"/><path d="M217.11 4.727c12.232-3.264 7.14 17.546 6.993 25.485-.17 9.173 4.296 25.864 1.23 33.585-2.557-1.165-7.224-.403-9.415.013-2.777 6.168-6.632-4.018-4.74-7.684-6.865.475-13.735.883-20.61 1.19.192-1.456-.208-1.826-.34-3.172 1.212-1.384 6.595-10.216 5.09-12.477 2.945-1.868-.48-6.373-1.074-10.455-.71-4.868-.356-8.894 2.33-12.81-.31-1.098 2.736-8.452 4.277-9.998 3.58-3.593 9.693-3.15 16.26-3.677M51.208-22.512c4.545.413 19.824-.09 22.064 2.825 1.948 2.537-1.697 17.45-1.995 21.398-1.036 13.728-2.272 27.437-3.288 41.165-6.726-.5-13.448-1.06-20.16-1.706-3.322-.322-19.62-3.947-16.987 1.023-5.922-.68-20.284-6.058-18.607 3.532l-8.99-1.186c2.677-19.094 5.32-38.19 7.96-57.29.388-2.793.09-12.204 1.886-13.59 1.804-1.39 9.502.535 12.483.912 8.535 1.08 17.074 2.044 25.633 2.916" fill="#758C99"/><path d="M152.663-18.14c6.222-1.72 5.667 11.628 6.237 16.927.92 8.55.395 17.297.33 25.914-5.44-1.64-7.594-3.987-12.922-3.1-3.147.526-7.458 3.35-9.058-.07-3.184-.85-4.873.532-6.235-.142-6.117.672-7.745-1.112-12.518-3.022-1.763-.706-6.166-1.143-8.263-1.834-.42-.14-6.254-2.87-6.994-3.773-4.438-5.417 3.51-21.348-1.614-25.378-4.208-3.31-23.056-1.3-28.755-1.695-.202-1.59-.092-4.88.475-6.37 26.37 2.044 52.873 2.827 79.318 2.544M232.64-17.704c18.25-1.7 36.564-2.938 54.653-6.32-1.91 7.376-8.67 9.285-13.785 13.302-3.29 2.583-6.313 4.83-9.113 7.44-3.294 3.07-3.57 3.842-9.403 4.512-17.646 2.024-35.397 3.474-53.13 4.525 2.086-1.633 2.442-3.584 1.357-5.702 1.72-.26 2.505-1.7 1.688-3.96 2.88-1.522 3.62-4.075 2.185-6.757 1.96-4.573 9.694-3.893 16.297-4.363l-.362-2.284c3.177.33 6.458.09 9.613-.394" fill="#758C99"/><path d="M129.194 116.264l.148.002-.148-.002zm-.692-3.002c-.332-1.116-.894-1.914-.672-3.113l.672 3.112zm.56 1.8c-.455-1.032-1.012-.682-.867-2.122.48.67.535 1.37.868 2.123zm-.692-1.18h.05-.05zm-.54-3.733c-.34-3.062.192-6.256 1.778-8.535-1.34 2.602-1.914 5.602-1.778 8.534zm3.665-12.205l-.06.242.06-.242zm2.59-3.003c1.703-1.198 2.725-2.394 4.782-2.98-1.402 1-4.098 2.626-4.782 2.98zm23.277-15.563c-1.377 1.075-2.797 2.1-4.194 3.15 1.21-1.47 2.73-2.17 4.194-3.15zm-2.712-4.292l.047-.03-.047.03zm-81.78-89.4c5.866.406 24.313-1.647 28.756 1.694 5.14 3.865-2.768 20.03 1.614 25.377 1.073 1.308 5.943 3.03 6.948 3.378 1.74.604 6.578 1.535 8.31 2.228 4.958 1.985 6.23 3.39 12.517 3.022 1.02.384 3.43-.8 6.235.143 1.69 3.698 11.23-1.222 15.425-.316.595.128 10.272 4.328 10 4.04 2.195 2.32 1.32 7.688 1.432 11.398.242 8.027 4.848 13.124 5.692 19.046.887 6.22-3.483 13.776-2.664 19.008-3.568.465-6.884 2.287-10.072 3.937 1.056-.697 2.112-1.396 3.17-2.093l-2.963.432c.975-8.955-2.595 3.484-2.62 3.528-1.968 3.438-7.497 6.452-10.834 7.96l2.858-1.205-7.014 3.57c1.07-.616 2.142-1.23 3.213-1.847-1.565-.214-2.94-1.255-4.25-1.567l-.082 1.26c-1.036-.592-1.538-.928-2.492-1.448.973 1.015 1.664 2.38 2.907 3.538-3.152-.017-1.443 1.504-4.332-.092.06 3.642-2.202 4.437-5.157 4.802-.057-.01.656 1.056.633 1.172l1.802-1.783c-1.225 3.26-1.7 2.864-5.268 3.38 3.38 1.174 2.42 4.692-.306 7.117l.488-1.64c-1.44.565-1.964 1.325-3.527 1.477 1.398-.08 2.526.49 3.99.327-3.614 6.02 2.632 9.334 1.712 13.97-1.077 5.434-10.99 1.03-15.98-1.474-7.82-3.925-6.985-10.703-10.43-17.944-2.22-4.67-7.067-9.005-9.457-14.294-1.93-4.268-5.225-11.44-9.58-13.728-2.615-1.374-8.92-.772-10.27-.316-4.436 1.5-3.803 4.47-6.83 6.768-3.715 2.82-3.98 1.777-7.886-.434-2.528-1.43-6.904-4.055-8.64-6.677-2.245-3.393-1.037-7.932-2.937-11.295-1.816-3.216-5.496-6.125-8.062-8.642-6.21-6.092-13.968-12.644-1.29-11.333 10.11 1.045 20.223 1.993 30.36 2.745 1.317-17.797.123-40.635 4.88-57.188z" fill="#758C99"/><path d="M263.204.566l-.08-.673 3.23-.39.084.674-1.28.156-.04-.336.04.336-1.954.233zm-74.362 74.686c-.03.123-.07.245-.11.36-.03.088-.07.207-.088.292.128 0 .415-.047 1.047-.266l-.848-.386zm-.222 1.33c-.24 0-.382-.066-.493-.172-.287-.272-.154-.666-.037-1.014.063-.188.15-.446.116-.562l-.21-.712 3.445 1.566-.74.295c-1.094.435-1.705.6-2.08.6zm16.207 2.79l-.005-.09.676-.04.006.09-.677.04zm-73.063 18.896l-.658-.163.06-.24.658.162-.06.24zm-2.427 18.336l-.147-.002.01-.677.147.002-.01.677zM204.162.578h.002-.002zm-.01 0l-.326.023.326-.02zm-47.476 23.034l2.036.587c-.204-.753-.134-1.864.207-3.402l.002-.52c.022-3.167.042-6.334.073-9.502.053-5.94-.338-11.326-1.27-17.457-.794-3.98-.876-8.02-.844-11.164l-3.552.038-.003-.352.003.352-4.007.036-.002-.34.002.34-1.15.006-.002-.325v.326l-2.643.01-.002-.34.002.34-2.14.008-.004-.34v.34l-5.253-.013v-.34l-.002.34-2.246-.017.002-.34-.004.34-3.985-.04.003-.348-.003.347-3.148-.04.004-.338-.007.34-3.406-.06.005-.34-.005.34-3.098-.056.006-.336-.01.336-2.355-.056.01-.34-.01.34-1.977-.058.01-.34-.01.34-4.56-.142.01-.332-.01.332-4.56-.155.01-.34-.013.34-.85-.033.013-.34-.016.34-4.616-.21.016-.342-.017.343-.867-.044-5.44-.222.015-.34-.015.34-3.127-.137.015-.338-.015.34-1.21-.058.016-.34-.016.34-4.885-.24.016-.34-.02.34-4.725-.26.02-.338-.034.336-.14-.014-9.238-.717-.423 5.692 9.41.643-.02.33.02-.33 4.108.266 6.74.376-.018.35.018-.35 4.106.21 5.456.24-.015.338.34.012-.203 5.67-.338-.01.337.014c-.072 1.725-.148 3.45-.224 5.176-.198 4.482-.4 9.113-.543 13.674l1.37.663-.15.306.3-.162c.735 1.36 1.81 1.82 3.288 1.41.49-.437.99-.62 1.48-.54.62.098 1.19.612 1.696 1.53l-.296.163.338.017c-.028.602.097 1.02.37 1.244.34.276.974.305 1.837.085l.084.328.22-.26c.968.818 2.054 1.068 3.226.744l.09.327.156-.3 1.646.858c.717-.943 1.852-1.148 3.23-.572l-.13.313.264-.213c1.002 1.235 1.455 1.89 1.618 3.027 1.348-.42 2.552-.533 4.08.052l.71-.165.077.33.217-.26c.132.11.254.216.37.316.908.785 1.152.993 2.28-.078l.527-.5.043.725c.053.878.208 1.007.215 1.012.194-.016.824-.754 1.242-1.242.154-.18.312-.366.475-.55l.254.224-.18-.288.106-.065.18.285.284-.183c.44.683.922 1.082 1.438 1.186.498.098 1.067-.067 1.69-.496l.192.28.33.072c-.2.906.972 1.455 1.79 1.722 1.888-1.24 3.758-1.72 5.57-1.428l.803-.387c1.547-.756 2.95-.798 4.81-.14l1.49-.697.145.307.13-.313c1.638.68 3.103 1.67 4.358 2.945zm80.047 37.986c-.108.387-.27.746-.485 1.07.69-.56.727-.776.728-.814 0-.052-.132-.162-.23-.244-.004-.003-.01-.007-.013-.012zM210.58 60.41c1.077 1.98 2.38 3.988 3.612 5.565.736-.404 1.486-1.08 1.388-2.134l.337-.03.207-.27c1.258.96 3.147.094 4.496-1.036l.218.26.142-.308c1.774.82 3.6.898 4.83.223l-.506-4.174c-.28-2.307-.573-4.612-.865-6.918-.327-2.566-.652-5.13-.96-7.7l.336-.04-.34-.01c.086-2.942.156-5.885.208-8.746.134-8.604.33-17.37.522-25.615-.286-.934-.217-1.693-.158-2.364.08-.9.145-1.62-.69-2.543l-1.508.124-.028-.34.024.34-.18.012-4.158.33-.027-.333.026.334-2.365.18-.024-.327.025.328-3.436.26-.026-.34.022.34-3.795.247c-1.31.224-2.704.26-4.052.295-.546.014-1.09.028-1.62.054l.123 1.377-.337.03.12.317-.88.342c-.497 2.038-1.92 6.62-5.12 9.32-.195 2.022-1.044 4.143-2.433 7.063 1.29 2.012 1.66 4.603.997 6.99.202.686.446 1.4.703 2.154 1.085 3.186 2.206 6.475.386 8.063l.52.686.104.015-.048.336.328.082c-.33 1.335-1.092 2.52-2.205 3.43l-.636 1.486-.31-.134.112.32-.48.17c-.272 1.06-.62 2.185-.954 3.275-.45 1.458-.873 2.835-.92 3.492l-.34-.026.334.06c-.063.363.01.63.08.89.093.337.193.707-.063 1.158.262.002.535.008.814.015 1.135.027 2.422.06 3.31-.225l.103.323-.017-.338 6.577-.363.02.34-.02-.34 3.317-.208 5.736-.384.023.338.33.073-.93 4.21zm-14.786 18.448c.004 0 .027.03.116.09l-.056-.2c-.03.045-.056.09-.06.11zm15.927-2.918c.803.4 1.627.696 2.426.98 1.6.574 2.98 1.068 3.358 2.205.202.61.092 1.324-.348 2.207 1.237-.647 1.904-1.28 1.942-1.85.063-.974-1.632-1.987-3.13-2.88-1.69-1.01-3.29-1.965-3.082-3.16l.036-.316.336.038-.065-.333.234-.045c-.308-.305-.494-.627-.375-.94.17-.447.79-.573 2.21-.437l.635-.346-.674-1.32c-.117.025-.244.06-.383.098-.904.25-2.272.63-4.435-.68l.175-.29-.22-.256 2.43-2.092.222.257-.11-.32.637-.22c-1.244-1.613-2.545-3.635-3.615-5.618l.298-.162-.33-.072.858-3.893-.71.05-.023-.34.023.34-4.576.304-.023-.346.024.345-.945.06-.023-.35.02.35-2.165.133-.022-.338.02.338-3.004.173-.02-.338.02.338-2.528.14-.02-.338.018.34-1.213.06c-.993.305-2.32.273-3.488.242-.556-.013-1.08-.026-1.532-.005l-.99.047.755-.642c.543-.466.495-.644.378-1.073-.08-.296-.18-.663-.097-1.167.06-.737.47-2.076.948-3.625.352-1.142.715-2.323.987-3.418l.33.082-.113-.32.51-.18.61-1.424.312.133-.212-.266c.99-.792 1.68-1.818 2-2.975l-.142.107-.81-1.065.27-.204-.19-.282c1.782-1.198.69-4.402-.366-7.5-.228-.67-.446-1.31-.635-1.93l-2.854.12-.02-.34.015.34-6.415.258-.014-.34.01.34-6.918.185-.01-.34.007.34-5.414.123-.01-.34.01.34-2.658.068-.008-.33.008.33-.318.01-.008-.353.008.352-2.994.062-.008-.333.007.332-1.944.044-.025.416c-.077 1.237-.15 2.405-.13 3.402l.08 3.83-.34.006.336.052c-.493 3.158 1.166 8.172 4.932 14.904l.264-.067.083.327.33-.082c.63 2.535-.148 4.833-.9 7.054-.332.977-.674 1.987-.885 2.996.797 2.49.42 4.896-1.093 6.974.006.042.025.082.058.125.513.66 3.22.954 5.84 1.236 2.668.29 5.69.616 7.566 1.412 3.256.846 5.277-.17 6.54-3.29l.315.127-.084-.33c.556-.143 1.343-.284 1.736.173.286.332.206.803.1 1.134.628.296 1.213.666 1.78 1.025 1.693 1.07 3.03 1.91 4.7.47l.223.255.338-.022c.123 1.855.41 3.037 1.626 4.38l.89-1.856 2.526 1.775-.54.244c-.32.143-.538.252-.686.334.177.057.372.14.504.284l1.02-.007.63-1.044.29.175.14-.308.072.033.067-.09c-.026-.454.094-.775.356-.958.47-.327 1.21-.063 1.964.304.15-.19.356-.343.577-.316.565.008.91.734 1.31 1.987.15.178.304.277.43.263.166-.003.457-.134.9-.732l.18-.385-.26-1.038.33-.08-.242-.238.23-.235-.024-.933c-.905-.23-1.506-.635-1.788-1.205-.302-.614-.227-1.397.225-2.328l.306.147.332-.067c.24 1.195.917 1.988 2.068 2.424l1.132.07-.02.338.158-.3.655.348zm-75.647 11.29v.002l.027-.02-.027.02zm2.928.647v.035l.04-.074-.04.04zm-1.825.406l.04.06.057-.092-.097.033zm-2.9 5.207l.06.054-.024-.055h-.036zm-3.745 3.973l.086.05-.087-.056v.006zm-2.564 7.88h.003l-.297-.103 1.204-3.434-.13.157c-.058.185-.11.364-.163.538-.326 1.097-.597 2.004-1.447 2.72l.03-.008.543-.195-.04.235.296.09zm-2.72-.153c.246.07.485.134.732.164l.198-.666c-.3.2-.612.37-.93.502zm2.335.587h.192l.002-.026-.18-.055-.013.082zm-.92 17.45c-1.67 0-3.445-1.327-4.722-2.43-3.094.61-6.21-1.063-8.31-2.606-2.79-.84-5.088-2.303-6.648-4.236l.264-.213-.314.13c-.32-.788-.668-1.534-1.004-2.254-.995-2.135-1.934-4.15-1.945-6.7l.34-.002-.338-.015c.144-3.416-5.123-9.665-7.924-11.794l.205-.27-.313.13c-.477-1.156-.99-2.293-1.488-3.392-1.207-2.672-2.347-5.197-3.047-8.038l-1.246-1.96c-1.29-.946-2.328-2.108-3.334-3.234-1.87-2.093-3.638-4.07-6.653-4.07h-.003c-2.236.132-4.292-.404-6.108-1.595-2.758.9-4.44 3.297-5.925 5.416-1.425 2.032-2.772 3.952-4.825 4.17-1.698.18-3.64-.8-6.117-3.087-6.303-2.49-7.643-7.042-9.06-11.86-.644-2.182-1.308-4.438-2.46-6.61-3.842-3.35-7.013-6.738-9.97-10.658-1.872-1.75-3.527-3.56-5.053-5.535l-8.04-.922.04-.334-.043.334-9.27-1.154c.058 1.096-.216 2.423-.46 3.61-.13.626-.252 1.215-.317 1.722l-.044.337-8.994-1.186v.003l-15.365-2.246.1-.67 14.69 2.147.574-4.097c.644-4.59 1.288-9.18 1.925-13.774C6.506 18.7 7.555 11.115 8.61 3.533l.36.048-.36-.05.67-4.806c1.19-8.603 2.38-17.206 3.573-25.808l.67.093c-1.192 8.6-2.382 17.204-3.57 25.806l-.35-.048.35.05-.672 4.807c-1.053 7.583-2.102 15.167-3.15 22.75l-.33-.045.33.046c-.637 4.592-1.28 9.184-1.925 13.775l-.574 4.097 8.32 1.098c.07-.444.17-.928.275-1.435.267-1.296.57-2.765.41-3.81l.334-.052.04-.337 9.693 1.208 7.458.856c-.51-.866-.613-1.52-.32-1.99.38-.608 1.347-.77 2.955-.496l16.24 1.656L61 41.994l4.225.333-.027.338.12-.316c1.212.46 1.775.364 2.033.2.223-.138.348-.4.383-.8l.407-5.52.34.025-.34-.025.413-5.546.338.025-.336-.03c.288-3.286.59-6.57.894-9.855l.104-1.14.494-6.196.338.024-.338-.027c.29-3.69.568-7.382.838-11.075l.332.024-.332-.025c.283-3.695.564-7.39.84-11.086-.075-1.86.3-4.5.814-5.72l.444-5.975-9.704-.717.025-.338-.03.337-11.44-1.025.03-.337-.032.337-.654-.062.032-.338-.034.337-7.83-.797.035-.337-.036.337-4.676-.485.035-.337-.042.336-9.987-1.238.04-.34-.042.34-8.917-1.12.085-.672 9.515 1.192-.04.33.042-.33 9.385 1.166 7.544.778-.024.24.024-.24 5.61.566 11.438 1.025 9.2.678-.025.34.025-.34.84.064-.027.337.026-.337 9.582.743-.026.337.035-.337.137.014 10.81.557 8.564.36-.013.338.017-.338 6.33.285 13.448.41 15.876.214 5.254.012.36-.003.003.335-.002-.335 8.917-.05.003.338-.003-.338 4.22-.044-.062-4.26.677-.077.068 4.668-.338.006.338.005c-.024 1.763-.016 3.837.138 6.033l10.02-.197.01.354-.008-.354 2.9-.07.012.34-.01-.34 7.723-.256.013.328-.012-.328 4.116-.162.018.336-.015-.336 4.51-.202.016.338-.013-.34 2.242-.08.012.338-.01-.34.422-.01 11.938-.663.02.337.158-.3c.95.505 1.514 1.168 1.63 1.918.12.764-.21 1.557-.983 2.358l-1.36 2.14 6.116-.46.053.677-2.553.2-.027-.337.025.338-3.34.243-.024-.338.025.338-.897.064-.023-.34-.286-.18 1.735-2.737.286.18-.24-.236c.623-.638.908-1.263.823-1.805-.1-.637-.688-1.096-1.197-1.38l-5.58.316-.017-.34.017.34-3.438.192-.02-.338.018.338-2.83.15-.017-.338.01.34-2.663.093-4.81.217-.018-.338.012.34-6.265.244-.013-.338.01.338-.82.026-.01-.34.01.34-4.646.138-.012-.338.008.338-5.558.135-.01-.34.01.34-2.12.044-.01-.34.007.34-5.02.08c.125 1.526.326 3.1.638 4.664l-.33.066.334-.05c.925 6.088 1.332 11.672 1.278 17.573l-.307-.003.307.003c-.03 3.167-.05 6.333-.072 9.5l-.003.555-.34-.002.332.075c-.427 1.907-.422 3.113.015 3.585.366.394 1.096.287 1.867.175 1.017-.15 2.283-.336 2.73.926.622 1.763.57 4.222.44 6.55l1.78-.04.007.34-.007-.34 8.71-.214.01.34-.006-.34 2.776-.05 6.917-.186 6.66-.27.02.337-.014-.34 1.82-.076.014.34-.012-.34.746-.027c.27-1.01.782-3.87-1.026-6.54l.28-.19-.305-.147c1.437-3.008 2.3-5.14 2.465-7.143l.338.028-.214-.263c2.23-1.826 4.113-5.27 5.04-9.215l.33.077-.123-.315.807-.314-.102-1.144-.793.048.896-.677c1.377-1.04 1.914-3.788 2.09-4.69.04-.2.07-.36.14-.466-.237-.825-.196-1.405.126-1.77.245-.28.632-.4 1.152-.362.016-.26.077-.474.13-.66.126-.443.183-.645-.578-1.165l-.472-.32.507-.262c1.356-.693 2.25-1.656 2.59-2.78.325-1.076.136-2.29-.547-3.51l-.276-.493.566-.01c.782-.013 1.054-.146 1.146-.254.13-.158.073-.52 0-.98-.075-.46-.167-1.03-.11-1.69l.336.028-.02-.337 1.007-.076c-.07-.442.298-1.005.748-1.633l.275.197.28-.192c.33.476.493.485.504.485.002 0 .183-.05.378-.75l.42-1.72.66.16-.423 1.724-.33-.08.327.09c-.135.49-.378 1.153-.918 1.245-.356.057-.66-.162-.878-.392-.302.454-.376.656-.375.744.016-.006.062.004.155.004.03 0 .065 0 .106-.004l5.207-.375.037.335-.015-.338.096-.005 3.01-.218.023.34-.02-.34.277-.015 4.01-.29-.304-1.918.336-.053.017-.34 3.79.2.5-.056.037.336-.035-.336 3.056-.318.035.333-.032-.335 2.743-.277 2.975-.357.04.337v-.34l1.983-.008 1.455-.357.08.33-.01-.34 4.412-.17 1.846-.11 3.505-.343 1.382-.25.06.334-.05-.335.203-.032.05.335-.023-.338 3.023-.208.024.34-.012-.34 1.965-.074 5.513-.527.045.337-.04-.337 2.165-.247.04.336-.03-.338.78-.07 2.467-.48 1.982-1.07.32.597-.5.27.3-.034 6.4-.823 5.34-.785.05.336-.05-.337.505-.072.05.336-.046-.336.954-.128 3.13-.716.075.33-.046-.335 1.794-.24.042.314 2.962-.296.068.674-2.962.297-.116 2.273-.338-.017.233.246-1.637 1.547-.08.216-.317-.115.3.157-1.177 2.27-.3-.158-.1.323-1.356-.418-1.598 1.2-.683 1.263-.3-.16-.172.29-1.007-.596c-.707.045-1.685.627-2.394 1.425l-.35 1.946-.334-.06.146.307-2.832 1.35-.03-.062-.07.013.277.195c-1.027 1.466-2.44 2.258-4.096 2.295l-2.657 1.69-.37 2.02-.334-.06.283.187c-1.434 2.168-2.917 4.41-5.803 4.744l-1.942.24-.044-.334.04.336-5.63.704-.046-.335.04.337-1.12.13-.038-.338.033.337-1.342.128-.065-.675 2.45-.256 1.006-.135.044.334-.042-.336 2.915-.37.042.337-.04-.337 2.077-.247.043.338-.04-.337 1.575-.19.04.335-.038-.337c2.55-.295 3.882-2.276 5.278-4.387l.403-2.195.333.06.025-.064-.12-.188 2.76-1.755.18.286v-.34c1.446-.005 2.643-.642 3.562-1.894l-.02-.115.333-.06-.146-.305 2.675-1.277.335-1.867.333.06-.257-.22c.888-1.038 2.115-1.735 3.058-1.735v.34l.174-.29.79.467.55-1.02.297.16-.204-.27 1.796-1.348.203.27.1-.324 1.25.387 1.036-2 .1-.27.32.115-.234-.246 1.597-1.51.118-2.335-1.13.15-3.13.717-.075-.33.044.335-1.47.203-3.137.47-.05-.338.048.34-2.206.313-.05-.335.048.335-1.543.214-.047-.334.042.334-4.86.612-.043-.336.037.337-2.016.222-2.52.49-.065-.332.03.338-.797.07-2.5.29-.043-.336.03.338-5.18.483-.03-.324.03.324-.073.007-.03-.338.01.34-1.906.067-3.188.234-1.39.25-.06-.332.032.337-3.523.345-.033-.34.02.34-1.855.11-.02-.338.015.34-2.33.098-.016-.34.013.34-2.052.072-1.46.357-.08-.33v.34l-2.003.01-2.957.355-.04-.337.037.337-.538.06-.04-.336.034.337-5.79.593-.038-.337-.017.338-3.4-.18.295 1.872-.335.053.025.338-4.382.315-.024-.338.018.338-.276.016-3.01.22-.024-.34.016.34-.16.01-.036-.336.024.338-5.14.368-.026-.338.023.338c-.326.023-.57-.03-.738-.156l.023.26-.667.06-.03-.338.02.34-.246.014c-.006.458.06.867.12 1.236.095.605.18 1.127-.15 1.52-.218.26-.565.408-1.12.468.57 1.227.697 2.45.36 3.562-.352 1.168-1.202 2.175-2.47 2.934.64.574.583 1.03.426 1.583-.072.254-.14.494-.09.814l-.336.052-.066.33c-.47-.093-.802-.063-.934.088-.17.192-.137.688.09 1.36l-.123.04.012.146-.14.01.106.1-.007.024.043.052-.063.05-.026.134c-.16.82-.6 3.06-1.695 4.45.368-.013.74-.022 1.116-.032 1.33-.034 2.704-.07 3.97-.288l.057.334-.026-.34.82-.06.026.34-.02-.34 4.572-.308.026.338-.025-.338 3.85-.29.025.337-.025-.338 4.53-.36.027.338-.024-.338 1.836-.148 2.185-.316.047.336-.026-.338 3.867-.303.026.322-.025-.32 3.93-.305.025.338-.018-.34.133-.005 4.37-.326.032.337-.033-.336 4.76-.464.03.304-.03-.304.09-.01.032.344-.034-.343 4.566-.44.065.675-9.943.965-.033-.337.025.34-3.852.273-.023-.338.017.338-.132.007-7.78.606-1.576.226c.727.985.652 1.825.573 2.708-.058.65-.118 1.323.146 2.154l-.324.102.34.008c-.192 8.258-.39 17.043-.524 25.665l-.34-.005.34.006c-.053 2.855-.122 5.792-.207 8.73.308 2.556.632 5.113.956 7.668.293 2.308.585 4.614.866 6.922l-.336.04.336-.04.498 4.11c1.08.022 1.857-.227 2.392-.777.645-.666.938-1.77.885-3.364-.045-.066-.09-.132-.14-.197l.128-.092-.006-.09-.183.024-.037-.285.198-.025c-.002-.04-.005-.078-.01-.118l-.13-.09.177-.26.28.19.337-.034c.026.262.044.514.056.756.414.624.755 1.273 1.086 1.904.557 1.06 1.132 2.155 2.078 3.21l.33.37-.402.152c1.568-.475 2.553-1.548 2.668-3.033-.69-2.293-1.413-4.213-2.342-6.222l.615-.284c.95 2.055 1.69 4.02 2.394 6.37l-.324.096.336-.038c.014.136.128.24.312.393.21.178.476.398.47.772 0 .19-.074.384-.232.598.996-.274 1.08-.795 1.23-1.704.055-.332.117-.71.233-1.123l.652.183c-.106.377-.162.72-.216 1.05-.225 1.365-.483 2.213-2.876 2.442l-.276.027.003.045-.582.048c-1.047.934-2.663 1.43-4.624 1.31l-.1-.654 1.907-.718c-.814-.996-1.342-2-1.853-2.974-.167-.318-.33-.63-.5-.932-.095 1.226-.445 2.14-1.055 2.77-.7.718-1.74 1.043-3.093.972-1.393.838-3.377.82-5.37-.043-1.702 1.366-3.384 1.804-4.65 1.234-.14.95-.83 1.76-1.995 2.316l-.146-.306.11.32-1.026.354-2.017 1.735c1.663.88 2.67.6 3.493.374.246-.068.48-.132.706-.155l.035.337.295-.17.26.458-.294.168.305-.15.685 1.376-.304.15.162.3-1.013.55-.162-.297-.034.337c-1.048-.104-1.436-.04-1.574.004.065.1.248.316.776.696l-.29.415.002.005.37-.527.157.104-.005.008.033.025.007-.008.234.188-.275.365-.092.204-.045-.024.002-.004-.057-.043-.004.006-.31-.24.015.047-.066.015-.013-.055-.002.004.01.05-.058.022-.01-.008-.54.106-.01.083-.336-.037.335.06c-.135.737 1.403 1.656 2.76 2.467 1.746 1.042 3.55 2.12 3.46 3.505-.068 1.02-1.127 1.94-3.333 2.894l-1.05.452.634-.952c.76-1.142 1.032-1.987.834-2.58-.273-.825-1.51-1.267-2.943-1.78-.78-.28-1.664-.595-2.504-1.016l.15-.303-.158.3-.592-.314-1.11-.07.022-.337-.116.318c-1.05-.385-1.794-1.038-2.223-1.948-.052.32-.024.592.086.816.212.427.743.73 1.58.902l-.067.332.34-.007.032 1.338-.34.01.243.237-.195.2.24.972-.328.08.307.144-.245.525-.31-.145.275.2c-.502.688-.977 1.026-1.452 1.036-.366.003-.71-.183-1.013-.565l.267-.21-.324.102c-.4-1.263-.622-1.524-.708-1.574.003.025-.125.15-.303.656l-.32-.113-.338.02-.01-.175.045-.002v-.002l-.046.003-.004-.07.075-.005c.01-.022.017-.043.026-.065l-.094-.02.008-.033c-.862-.404-1.102-.35-1.167-.304-.047.033-.09.173-.058.462l-.338.04.272.2-.306.413-.272-.202-.14.31-.047-.022-.574.95-.29-.175.003.337-1.41.01v-.338l-.334.064c.005.024.017.04.02.044-.045-.045-.24-.1-.343-.13-.26-.075-.583-.167-.607-.495-.02-.275.17-.478.828-.81l-.91-.64-.963 2.01-.337-.338c-.657-.657-1.106-1.278-1.417-1.893l.527 1.91-.644-.272c-.748-.315-1.075-.563-1.17-.883-.09-.31.082-.56.22-.76.115-.168.224-.327.232-.53l.572-.065c-.25-.67-.362-1.343-.43-2.05-1.833 1.2-3.44.187-4.993-.797-.633-.4-1.29-.816-1.98-1.106l.13-.313-.31-.134c.246-.576.14-.724.13-.738-.018-.02-.165-.164-.89.003-1.412 3.336-3.732 4.458-7.3 3.523l.086-.327-.134.312c-1.78-.763-4.763-1.085-7.395-1.37-3.48-.376-5.646-.65-6.303-1.495-.162-.21-.228-.452-.193-.705l.337.047-.27-.202c1.444-1.935 1.8-4.193 1.027-6.528l.32-.107-.33-.066c.216-1.08.576-2.142.923-3.168.72-2.12 1.4-4.13.958-6.34l-.178.045-.083-.33-.296.167c-3.92-6.96-5.65-12.187-5.142-15.537l-.078-3.798c-.02-1.027.052-2.21.13-3.46.16-2.562.34-5.465-.336-7.377-.234-.665-.816-.656-1.992-.483-.852.124-1.814.265-2.425-.346l-.01.033-2.733-.79.093-.325-.242.236c-1.17-1.202-2.533-2.143-4.057-2.798l-1.483.695-.144-.307-.118.317c-1.758-.648-2.996-.63-4.413.067l-.15-.304.147.305-.9.433-.15-.306-.058.333c-1.71-.303-3.497.166-5.316 1.396l-.19-.282-.1.324c-1.723-.522-2.283-1.273-2.412-1.895-.59.296-1.15.39-1.678.285-.604-.12-1.154-.507-1.64-1.148l-.27.314c-.81.95-1.4 1.636-1.983 1.438-.348-.117-.51-.498-.592-.95-1.16.884-1.78.454-2.69-.333l-.23-.2-.65.15-.075-.33-.124.314c-1.536-.61-2.713-.433-4.113.054l-.11-.32-.34.026c-.09-1.162-.377-1.672-1.46-3.012-1.144-.453-1.98-.255-2.49.592l-.29-.174-.156.3-1.798-.937c-1.3.318-2.5.05-3.58-.803-1.022.236-1.764.15-2.263-.256-.432-.35-.642-.923-.624-1.7-.38-.666-.782-1.05-1.163-1.11-.297-.042-.623.095-.974.423l-.232-.248.096.325c-1.783.527-3.197-.034-4.098-1.62l-1.47-.713.15-.305-.34-.01c.142-4.637.35-9.348.55-13.904L102.5-6.9l.19-5.332-5.12-.227.014-.337-.017.338-5.427-.273.017-.338-.02.337-5.424-.31.02-.338-.023.338-5.41-.347.02-.334-.023.335-8.203-.568c-.44 1.2-.763 3.61-.69 5.273l-.34.014.34.024c-.28 3.704-.56 7.406-.844 11.108-.27 3.694-.55 7.385-.837 11.078l-.01.128-.335-.025.334.027-.483 6.07-.34-.026.338.03-.105 1.142c-.303 3.283-.605 6.565-.894 9.85L68.41 41.8l-.338-.025.336.03c-.054.62-.288 1.062-.697 1.318-.565.355-1.41.314-2.587-.126l-4.176-.33.027-.338-.028.337-2.74-.226.028-.34-.028.34-.47-.04.027-.335-.03.335-8.76-.786.03-.333-.032.332-.747-.07.032-.34-.035.34-11.474-1.17.034-.337-.035.337-4.03-.42.034-.337-.058.334c-1.762-.3-2.178.03-2.276.185-.088.14-.197.605.698 1.848 1.534 1.994 3.197 3.82 5.084 5.583l-.23.247.27-.204c2.946 3.908 6.104 7.282 9.94 10.62l-.224.255.3-.158c1.203 2.25 1.882 4.56 2.54 6.793 1.434 4.873 2.672 9.08 8.718 11.444l-.124.315.23-.25c2.313 2.145 4.148 3.106 5.632 2.954 1.747-.187 2.95-1.9 4.342-3.887 1.576-2.247 3.362-4.794 6.435-5.722l.098.326.19-.28c1.726 1.17 3.69 1.694 5.834 1.568l.02.338v-.34h.014c3.317 0 5.183 2.09 7.158 4.3.995 1.112 2.024 2.264 3.28 3.174l-.2.275.286-.18 1.308 2.06-.286.18.33-.08c.684 2.803 1.82 5.315 3.02 7.975.487 1.078.99 2.19 1.46 3.327 2.562 1.986 8.275 8.41 8.12 12.298.01 2.397.918 4.347 1.88 6.41.332.713.676 1.452.998 2.236 1.484 1.82 3.676 3.2 6.34 3.992l-.097.325.203-.272c2.025 1.5 5.055 3.148 7.975 2.49l.075.332.222-.256c1.324 1.155 3.266 2.657 4.857 2.327.808-.166 1.473-.778 2.03-1.87l-1.864-4.045-.428-.008.007-.34-.287-.18.19-.302.02-.796-.188-1.01c-.59-1.72-.917-3.013-1.204-4.757l.334-.055-.277-.195 1.2-1.7.212-1.248c-.367.068-.696.065-1.003.024l-.09.05.018-.06c-.317-.048-.612-.135-.904-.22-.375-.11-.735-.217-1.143-.247-.155.01-.31.01-.466 0l.02-.34-.022-.337c.164-.01.32-.01.466 0 .992-.065 2.008-.554 2.844-1.38l.563.337-.19.64c.508-.554.713-1.245.985-2.156.06-.197.12-.4.186-.614l.325.103-.257-.222c.602-.7.632-1.006.596-1.128-.047-.157-.312-.255-.467-.3l.095-.325-.338.03c-.048-.545-.2-.92-.45-1.116-.212-.163-.52-.215-.91-.154l-.026.004-.11-.668h.003l.027-.005 3.735-.6.393-.81-.397.393-.24-.24-.287.176.268-.2-.023-.023-.286.153-.603-1.12.3-.16-.193-.28 2.534-1.735.19.28.317-.124c.148.383.327.612.502.646.207.04.53-.152.903-.546l.362-.403.048.044-.008-.51.34-.005-.336-.056.09-.526.068-1.6.34.014.144-.306c.49.232.863.5 1.192.735.82.588 1.196.858 2.446-.283-.715-.51-1.16-1.195-1.56-1.808-.318-.487-.617-.947-1.01-1.267l.206-.264-.33.003-.003-.255.346-.008-.05-.31.064.303.033-.02.06-.285.908.192-.07.332.323-.108.23.692c.54.31.688.228.69.23 0-.003.143-.117.044-.783l.335-.05.24-.24.38.383.673.357 3.038.74-.034.136.808-.412-.105-.192c1.127-.782 2.97-1.716 5.064-2.564 1.864-1.54 3.55-3.164 4.875-4.698l.256.222-.207-.268 1.557-1.2c.16-1.225-.552-2.13-1.19-2.683l.22-.255-.293-.17.807-1.39-.242-.383.048-.03.226.358.146-.252.294.17-.2-.274c1.163-.852 1.993-1.314 2.54-.955.473.31.53 1.048.182 2.756l2.48-.362.05.336.088.135c.284-.142.566-.286.846-.43l.156.3-.135-.312.162-.07c1.8-1.032 3.736-1.638 5.756-1.804l.056.674c-1.927.158-3.774.74-5.49 1.725l-.17-.295.136.31-.17.075c-.933.487-1.897.95-2.83 1.398-.477.228-.954.457-1.427.69l-.336-.588 1.902-1.256-1.947.284.107-.48c.48-2.154.282-2.475.21-2.522-.042-.026-.325-.114-1.71.893l-.813 1.4c.974.934 1.395 2.078 1.19 3.247l-.336-.06.155.2c.154-.097.307-.19.46-.285.358-.22.72-.444 1.078-.684l.397.548c-.915.716-1.85 1.41-2.787 2.104-.47.35-.942.7-1.41 1.05l-.304-.316c-1.17 1.232-2.528 2.492-3.992 3.7l-.216-.262.127.314c-.82.332-1.6.675-2.31 1.016l.147.315-7.014 3.57-.32-.595 2.476-1.425-2.257-.548.08-.33-.16.298-.656-.35c-.04.247-.142.486-.36.63-.337.222-.76.115-1.13-.062.422.647.875 1.302 1.632 1.717l.4.22-.327.318c-.36.355-.678.624-.965.82l.523-.188.303.602c-.542.357-1.08.724-1.62 1.092-1.067.727-2.17 1.48-3.294 2.145l-.174-.29-.305-.148.12-.248.103.05.08-.048-.095-.114 2.615-2.196.217.26-.115-.32.372-.134c-.486-.017-.906-.286-1.392-.634-.19-.136-.394-.283-.626-.424l-.048 1.08-.34-.014.336.057-.088.515.01.61-.34.005.133.312-.068.028-.313.348-.253-.227.246.232c-.562.595-1.063.838-1.53.75-.327-.065-.604-.294-.824-.683l-1.954 1.337.273.507 1.484-1.467.543.39-1.273 2.626-.407-.197.385.235-.065.11-.292-.17.053.333-2.41.39c.272.285.45.696.525 1.226.382.152.62.382.71.683.12.4-.062.838-.315 1.222l.16.055.015-.04.042.018.07-.29.282.067-.08.33.317.124-1.45 3.69-.302 4.693.657 3.05.198.605-.322.106.324-.098.357 1.178-.324.098-.227.252-.088-.08-.755-.58.206-.27-.295-.165.21-.376-.244-.806.09-.027-.313-.525.29-.172-.335.04-.236-2.05.147-.016-.014-.067.133-.03-.04-.044h-.102l.002-.11-.02-.02.02-.018.027-3.852-.22 1.288-.333-.057.277.195-1.165 1.65c.276 1.642.594 2.885 1.162 4.534l-.32.11.333-.062.197 1.07-.334.06.34.01-.023.924-.34-.008.078.048.33.006-.006.34.307-.142 2.02 4.383-.308.142.305.147c-.657 1.367-1.523 2.168-2.572 2.384-.193.038-.39.058-.587.058z" fill="#AAA"/><path d="M176.973 124.435c-3.846-3.043-10.105-2.67-15.626-2.338-1.546.092-3.005.18-4.358.19-2.374.02-4.85-.055-7.247-.125-5.84-.17-11.88-.35-17.406.705-.288.055-.58-.016-.812-.193-.23-.178-.374-.445-.393-.735-.156-2.255-.383-4.262-.602-6.203-1.03-9.106-1.71-15.123 8.83-22.78 1.49-1.083 3.292-2.53 5.2-4.064 6.957-5.592 15.563-12.508 22.438-13.123.357-.705.936-1.266 1.73-1.676 3.743-1.93 12.695-.31 26.604 4.817l.1.04c.5.182.966.36 1.41.527 3.635 1.375 5.457 2.065 9.59 1.07.81-.195 1.748-.58 2.74-.986 2.318-.95 4.716-1.935 6.41-.78.805.55 1.29 1.48 1.468 2.823.88-.364 1.95-.824 2.388-1.036.856-1.465.555-1.73.265-1.99-.247-.22-.903-.8-.592-1.68.09-.254.227-.59.39-.99.907-2.24 2.798-6.896.865-9.252-.246-.3-.3-.715-.14-1.068.163-.354.512-.584.9-.594 1.683-.042 3.584-.313 5.598-.6 3.656-.52 7.435-1.058 10.073-.153l-.66 1.923c-2.174-.745-5.71-.243-9.127.244-1.398.2-2.83.402-4.184.52 1.193 3.25-.54 7.522-1.443 9.744l-.203.504c.87.83 1.462 2.06-.14 4.675-.402.656-4.576 2.17-4.617 2.184-.313.1-.654.045-.918-.15-.264-.194-.418-.505-.413-.834.022-1.366-.21-2.286-.656-2.59-.79-.54-2.843.304-4.492.98-1.018.42-2.072.852-3.036 1.085-4.74 1.14-7.016.28-10.785-1.146-.44-.168-.9-.342-1.393-.523l-.1-.038c-17.51-6.455-23.158-5.852-24.97-4.92-.416.216-.696.48-.862.82.472 1.1 1.04 2.27 1.635 3.504 2.177 4.506 4.647 9.612 4.02 14.43l-2.015-.262c.547-4.216-1.78-9.033-3.835-13.283-.556-1.15-1.087-2.248-1.548-3.302-6.254.64-14.87 7.565-21.222 12.67-1.927 1.55-3.747 3.01-5.278 4.124-9.58 6.96-9.02 11.915-8.005 20.907.177 1.56.373 3.296.525 5.163 5.422-.874 11.165-.707 16.727-.544 2.377.068 4.838.14 7.172.124 1.3-.01 2.733-.096 4.25-.186 5.887-.352 12.556-.753 17.01 2.77l-1.26 1.597z" fill="#5C737F"/><path d="M129.328 117.282l-.148-.002.028-2.033.148.002-.028 2.032zM285.102-19.22l.752.39-.168-.177-.584-.213zm-12.257 9.09l.115.08-.044-.092-.07.012zM157.032 23.01l.89.255c-.007-.697.1-1.537.32-2.543l.002-.448c.02-3.168.042-6.336.073-9.504.054-5.9-.336-11.246-1.26-17.334-.745-3.748-.87-7.532-.858-10.595l-2.865.03-.01-1.015.01 1.016-4.008.038-.01-1.017.006 1.018-1.15.006-.005-1.03.004 1.03-2.645.01-.003-1.017.002 1.016-2.138.01-.007-1.018-.002 1.017-5.253-.013.002-1.02-.008 1.02-2.247-.02.01-1.016-.012 1.016-3.984-.04.01-1.01-.012 1.01-3.148-.04.013-1.016-.02 1.017-3.405-.058.018-1.038-.02 1.038-3.096-.056.018-1.017-.024 1.016-2.355-.056.023-1.016-.03 1.016-1.975-.06.03-1.015-.032 1.016-4.557-.14.032-1.017-.034 1.016-4.56-.156.034-1.02-.04 1.02-.85-.033.038-1.015-.046 1.016-4.616-.21.046-1.01-.05 1.01-.862-.042-5.438-.223.04-1.01-.043 1.01-3.127-.136.045-1.018-.047 1.016-1.21-.057.047-1.006-.05 1.007-4.884-.24.05-1.015-.056 1.015-4.727-.26.057-1.016-.103 1.013-.13-.014-8.554-.663-.322 4.333 8.727.596-.063 1.013.065-1.014 4.105.265 6.73.373-.048 1.005.05-1.005 4.103.21 5.456.24-.045 1.016 1.017.036-.203 5.67-1.016-.034 1.016.042c-.072 1.726-.148 3.452-.224 5.178-.19 4.335-.388 8.812-.528 13.226l.973.472-.444.915.896-.485c.56 1.04 1.278 1.38 2.372 1.116.758-.612 1.45-.666 1.908-.592.835.133 1.57.762 2.182 1.87l-.89.493 1.016.048c-.02.448.066.643.12.687.095.076.46.152 1.24-.046l.253.984.655-.778c.81.682 1.64.877 2.61.607l.27.98.47-.9 1.186.617c.905-.825 2.186-.963 3.64-.355l-.39.938.788-.64c.847 1.043 1.343 1.728 1.604 2.61 1.144-.265 2.278-.28 3.613.19l.515-.118.227.99.65-.782c.135.113.262.222.38.325.227.195.536.462.65.495-.008-.006.197-.056.72-.55.285-.275.705-.356 1.072-.21.284.11.497.34.59.622l.317-.367c.156-.184.318-.372.484-.56l.76.674-.537-.863.106-.067.54.862.855-.55c.232.36.592.805 1.002.888.308.06.704-.07 1.172-.39l.576.838.993.22c-.053.24.37.564 1.043.826 1.865-1.152 3.725-1.615 5.545-1.38l.616-.293c1.63-.8 3.168-.882 5.067-.26l1.244-.584.43.92.39-.94c1.668.693 3.166 1.69 4.455 2.97zm9.373 8.42l.023 1.016-.018-1.017 8.706-.215.028 1.014-.02-1.015 2.776-.053 6.907-.183 6.645-.272.058 1.015-.042-1.016 1.82-.077.042 1.02-.037-1.02.227-.008c.226-1.172.377-3.404-1.043-5.503l.842-.57-.918-.44c1.402-2.935 2.244-5.007 2.4-6.905l1.014.083-.644-.786c2.118-1.736 3.916-5.043 4.81-8.847l.99.232-.368-.948.332-.13-.085-.953c-.034-.346.112-.696.4-.913.776-.586 1.392-2.026 1.833-4.28.018-.09.045-.225.092-.37-.15-.61-.25-1.523.33-2.182.277-.313.64-.503 1.087-.572.017-.068.036-.13.052-.188.013-.048.03-.094.04-.138-.05-.053-.15-.145-.35-.28-.295-.202-.463-.546-.44-.905.022-.358.23-.678.55-.842.83-.425 1.46-.954 1.86-1.557l-1.585.126-.08-1.013.074 1.014-3.34.242-.037-.523.037.522-.897.062-.073-1.014-.858-.545 1.737-2.736.858.544-.726-.71c.462-.472.69-.908.64-1.226-.04-.26-.285-.538-.695-.795l-5.374.303-.06-1.056.06 1.056-3.44.192-.056-1.015.054 1.015-2.83.15-.053-1.015.03 1.016-2.654.093-4.804.218-.053-1.016.038 1.016-6.263.246-.042-1.016.032 1.016-.82.025-.032-1.017.03 1.016-4.64.138-.037-1.018.024 1.018-5.557.134-.025-1.01.02 1.01-2.12.045-.02-1.016.016 1.017-4.29.07c.124 1.273.304 2.574.562 3.864l-.997.2 1.005-.153c.93 6.126 1.34 11.744 1.285 17.682l-1.047-.01 1.047.01c-.03 3.166-.05 6.33-.072 9.497l-.004.556-1.016-.007.992.222c-.558 2.498-.165 2.957-.148 2.975.123.134.9.02 1.27-.035 1.063-.154 2.838-.414 3.47 1.372.596 1.69.614 3.912.513 6.083l1.05-.024zm43.613 24.776l.023.358.002-.002-.024-.356zm26.504 4.53l1.01-.116c-.01-.084-.044-.145-.06-.168l-.95.284zm-25.223-.428c.92 1.674 2 3.354 3.048 4.755.41-.34.597-.726.557-1.16l1.013-.094.617-.81c.94.72 2.555-.098 3.65-1.015l.653.78.426-.925c1.39.642 2.788.787 3.813.427l-.447-3.68c-.28-2.305-.57-4.61-.864-6.914-.325-2.567-.65-5.134-.96-7.704l1.01-.122-1.017-.03c.084-2.94.154-5.88.206-8.74.134-8.568.33-17.297.52-25.51-.287-1.013-.213-1.842-.153-2.515.07-.765.108-1.21-.312-1.78l-1.155.096-.083-1.014.07 1.014-4.33.342-.08-1.014.075 1.015-2.364.18-.078-1.013.077 1.013-3.437.26-.077-1.014.064 1.014-3.755.244c-1.347.228-2.755.265-4.116.3-.3.007-.6.015-.9.025l.06.667-1.012.09.367.95-.553.215c-.57 2.195-2.01 6.458-5.046 9.152-.242 1.957-1.042 3.99-2.31 6.685 1.2 2.067 1.543 4.63.932 7.02.187.618.408 1.266.64 1.946 1.022 3 2.165 6.354.632 8.33l.258.338-.534.406-.035.244.986.244c-.354 1.426-1.147 2.695-2.304 3.685l-.572 1.336-.934-.4.15.43.185.045c-.022.092-.046.185-.07.278l.072.206-.14.05c-.26.98-.58 2.02-.868 2.954-.418 1.358-.85 2.762-.893 3.342l-1.014-.075 1.002.174c-.038.216.004.368.067.597.058.214.108.44.118.675 1.08.028 2.302.057 3.08-.193l.31.97-.05-1.017 6.57-.363.058 1.016-.056-1.016 3.31-.206 5.735-.384.07 1.014.992.22-.873 3.962zm3.03 10.367c.206 0 .417.01.63.026l-.082-.167c-.182.05-.383.1-.606.142h.06zm-.13 2.55l.002.003.36-.51h-.007l-.355.506zm.17.63c.01.014.025.028.038.04l.185-.338-.224.3zm-26.082-.705c-.136.292-.28.57-.433.828l.008-.007c.247-.214.575-.293.887-.225l.14-.338-.602-.257zm-.733 1.874v0zm22.17.795l-.15.406.125-.003.025-.404zm-54.257.76c.372.435.65.902.833 1.39.06-.065.126-.125.204-.176l.087-.057c-.022-.02-.044-.04-.064-.064-.227-.245-.32-.586-.247-.912.143-.647.22-1.097.258-1.41-.155.096-.348.225-.585.395l-.485.835zm46.88 2.496l.276.165.032-.07-.15-.112-.157.018zm2.61.064l-.07.137.532-.03c-.005-.012-.01-.022-.016-.03l-.252-.09-.194.013zm.83-1.914h.023c1.023.016 1.502 1.116 1.83 2.098.058-.06.13-.144.214-.254l.05-.104-.2-.806.986-.244-.328-.32-.36.008-.04-.4.03-.028-.004-.16c-.836-.3-1.416-.773-1.73-1.41-.4-.81-.325-1.794.223-2.923l.916.443.996-.2c.187.928.68 1.53 1.552 1.89l1.025.06-.063 1.016.476-.898.648.343c.626.312 1.276.56 1.92.793-1.13-.793-1.92-1.65-1.736-2.78l.035-.302.55.063c-.36-.407-.603-.92-.382-1.505.18-.473.55-.72 1.026-.84-.892.028-2-.185-3.39-1.024l.526-.87-.663-.77 2.43-2.09.665.77-.07-.206c-1.258-1.64-2.528-3.617-3.614-5.63l.896-.484-.993-.22.663-3.007-4.383.292-.068-1.014.065 1.015-.945.06-.064-1.003.062 1.004-2.166.134-.063-1.015.058 1.016-3.003.173-.058-1.015.056 1.016-2.528.14-.056-1.016.05 1.016-1.133.056c-1.083.31-2.428.277-3.62.248-.54-.013-1.05-.025-1.482-.006-.435.018-.833-.237-.993-.64-.16-.405-.046-.866.285-1.148.122-.104.183-.173.212-.21-.012-.055-.03-.11-.047-.17-.087-.316-.215-.79-.117-1.426.073-.813.472-2.11.975-3.742.35-1.134.71-2.306.977-3.382l.987.245-.21-.598-.073-.032.035-.08-.088-.25.23-.08.493-1.15.934.4-.635-.794c.727-.584 1.272-1.307 1.596-2.117l-.666-.877.81-.616-.57-.844c1.353-.908.3-3.995-.627-6.72-.164-.48-.33-.97-.486-1.45l-2.322.1-.058-1.016.04 1.016-6.415.258-.04-1.015.026 1.016-6.92.185-.026-1.016.02 1.016-5.407.125-.028-1.007.025 1.008-2.656.07-.026-1.025.023 1.024-.317.006-.024-1.03.022 1.03-2.994.064-.022-1.016.02 1.016-1.32.03c-.07 1.146-.134 2.225-.114 3.14l-1.017.022 1.017-.02.08 3.826-1.018.02 1.005.16c-.326 2.088.273 6.334 4.98 14.69l-.406.23.036.14.986-.247c.68 2.73-.13 5.122-.915 7.437-.318.944-.622 1.84-.825 2.748.73 2.436.425 4.794-.89 6.88.943.367 3.38.63 5.068.812 2.825.306 5.743.62 7.71 1.44 2.907.744 4.56-.1 5.696-2.9l.942.382-.257-.985c.423-.11 1.707-.443 2.42.385.28.323.397.727.352 1.204.482.258.935.545 1.378.825 1.804 1.14 2.655 1.6 3.895.527l.664.77 1.015-.067c.086 1.322.253 2.24.815 3.14l.242-.504c.13-.27.37-.468.66-.543.29-.078.597-.02.84.152l1.713 1.203c.172.122.3.29.37.48l.074-.12.48.288c-.005-.054-.008-.106-.01-.156l-.095-.07.095-.128c.03-.703.353-1.087.646-1.29.642-.446 1.433-.282 2.237.06.19-.12.415-.196.682-.196zm-2.86 2.2l.373.224-.355-.264-.017.04zm15.233-.47c.077.24.116.49.12.75.13-.166.14-.26.14-.27.01-.134-.09-.298-.26-.48zm-82.087 8.275v.002l.026-.017-.027.016zm2.8 2.223c.15.143.31.27.49.38l.798-.458-.607-.148.24-.988-.284.53c-.028.06-.058.12-.094.177l-.1.19-.028-.015c-.082.096-.18.185-.298.262-.04.025-.076.048-.116.07zm-4.32 2.847l.913.155.03-.025c-.05-.03-.097-.063-.146-.096l-.797-.034zm-.37.5l.02.05.257-.004-.278-.047zm-3.654 4.663l.086.05-.087-.056v.006zm.04.255l.262.063-.277-.16.016.098zm-3.775 11.666l.023.13v-.165l-.023.034zm.144.758c.01.064.025.127.038.19l.656-.14-.04-.045-.655-.005zm.427 3.57l-.446.154.462-.102-.015-.05zm-.25 1.223l.647.016.12-.156-.766.14zm-4.416 4.73c1.905 1.663 3.306 2.375 4.276 2.174.52-.108.992-.52 1.407-1.234l-1.546-3.348v-.006l-.263-.574.277-.128.007-.31-.64-.4-.138-.004.002-.082-.086-.054.09-.144.013-.54-.165-.892c-.594-1.736-.925-3.05-1.217-4.82l1.004-.164-.83-.586 1.112-1.575.043-.26c-.518-.033-.965-.164-1.36-.28-.337-.1-.64-.19-.965-.217-.165.008-.33.006-.495-.004l.063-1.016-.067-1.015c.177-.012.347-.012.507-.004.818-.063 1.663-.48 2.37-1.182.266-.26.644-.353.99-.256.062-.19.125-.4.195-.635.06-.2.122-.407.19-.623l.715.225.037-.107-.553-.476c.398-.46.444-.647.446-.655-.015.062.004.15.038.226l.253-.882-1.012.09c-.035-.417-.137-.6-.19-.64-.033-.025-.152-.056-.387-.02l-.024.004-.328-2.007h.005l.025-.005 2.54-.41-.468-.87.896-.482-.575-.84 2.535-1.735.574.84.947-.37c.015.04.03.074.043.104.062-.05.14-.123.233-.22l.223-.25-.002-.147.6-.01-.036-.084-.55-.095.083-.483.066-1.557 1.017.043.434-.92c.548.26.964.558 1.298.798.458.33.653.468 1.006.26-.456-.47-.79-.983-1.082-1.43-.3-.46-.56-.86-.87-1.11l.634-.79-.39.004-.464.285-.01-.02.44-.265-.584.004-.002-.254 1.025-.013-.164-.978.178.97.032-.02.2-.948.91.192-.13.617c.082.09.16.18.236.272l.647-.215.128.382.53-.08.717-.72.31.312.508.27 2.78.675c.073-.124.173-.235.3-.322 1.548-1.075 3.8-2.066 5.096-2.596 1.805-1.497 3.433-3.07 4.715-4.553l.38.328.077-.066-.31-.403 1.315-1.015c-.002-.648-.33-1.258-.98-1.818l.665-.77-.88-.51.985-1.696-.196-.31.047-.03.25.398.78.45-.602-.818c1.147-.84 2.346-1.607 3.312-.977.723.474.803 1.39.646 2.52l1.55-.226.067.466c.235-.117.47-.237.7-.357l.47.9-.41-.93.132-.057c1.678-.957 3.47-1.562 5.34-1.803-.054-.053-.103-.11-.148-.166-.278-.358-.392-.78-.33-1.218l1.007.142-.815-.608c1.325-1.775 1.638-3.763.928-5.91l.965-.318-.997-.202c.227-1.122.593-2.203.948-3.25.706-2.086 1.374-4.06.9-6.16l-.448.253c-3.975-7.056-5.733-12.408-5.23-15.913l-.077-3.74c-.02-1.055.054-2.25.132-3.515.155-2.5.33-5.33-.3-7.112-.023-.07-.043-.09-.043-.09-.15-.1-.842 0-1.212.053-.887.13-1.968.29-2.795-.354l-2.66-.767.283-.978-.73.708c-1.035-1.064-2.232-1.912-3.563-2.524L151 22.66l-.43-.922-.352.953c-1.583-.58-2.633-.57-3.88.04l-.447-.91.44.914-.9.433-.442-.917-.178 1c-1.55-.275-3.125.147-4.817 1.29l-.57-.84-.295.97c-1.453-.44-2.208-1.062-2.584-1.67-.493.145-.975.17-1.444.077-.54-.11-1.04-.373-1.492-.788-.814.94-1.55 1.682-2.482 1.37-.34-.115-.574-.337-.737-.604-1.107.464-1.916-.073-2.745-.785l-.314.073-.226-.99-.377.943c-1.2-.477-2.12-.46-3.638.065l-.334-.96-1.014.078c-.07-.918-.246-1.307-1.195-2.494-1.056-.364-1.35.127-1.498.37l-.872-.522-.47.9-1.582-.823c-1.294.25-2.54-.02-3.643-.793-1.087.194-1.918.046-2.532-.456-.56-.455-.853-1.14-.872-2.04-.363-.58-.59-.624-.59-.624-.03-.013-.17.03-.407.25l-.692-.745.288.977c-2.022.597-3.703-.023-4.768-1.75l-1.286-.623.443-.915-1.016-.032c.14-4.64.348-9.353.55-13.912.075-1.722.15-3.445.222-5.168l.167-4.663-4.45-.196.044-1.017-.052 1.015-5.425-.273.05-1.013-.058 1.013-5.426-.31.058-1.015-.065 1.014-5.41-.346.063-1.015-.07 1.014-7.67-.532c-.31 1.148-.563 3.053-.5 4.53l-1.015.045 1.013.075C72.8-4.892 72.52-1.19 72.236 2.51c-.27 3.696-.55 7.39-.838 11.083l-.01.126-1.013-.077 1.014.08-.486 6.07-1.015-.08 1.013.094-.106 1.142c-.302 3.28-.604 6.56-.892 9.84l-.82 11.06-1.013-.073 1.01.088c-.09 1.05-.6 1.577-1.01 1.835-.74.464-1.754.454-3.095-.033l-4.083-.322.08-1.014-.083 1.015-2.74-.225.084-1.01-.084 1.01-.47-.04.084-1.013-.09 1.013-8.762-.786.092-1.02-.095 1.02-.75-.07.095-1.01-.103 1.01-11.475-1.17.103-1.01-.105 1.01-4.032-.42.106-1.01-.173 1c-.853-.145-1.3-.118-1.507-.082.056.176.203.507.59 1.044 1.507 1.96 3.144 3.757 5 5.49l-.693.744.812-.613c2.916 3.87 6.044 7.212 9.842 10.517l-.667.767.896-.478c1.237 2.313 1.927 4.655 2.594 6.922 1.384 4.7 2.58 8.76 8.315 11.003l-.372.947.69-.745c2.13 1.974 3.848 2.91 5.1 2.775 1.44-.153 2.562-1.75 3.86-3.6 1.638-2.338 3.496-4.987 6.793-5.982l.295.972.57-.84c1.6 1.084 3.42 1.573 5.413 1.452l.06 1.015v-1.017h.016c3.62 0 5.676 2.3 7.663 4.524.97 1.086 1.976 2.21 3.172 3.078l-.598.822.858-.544 1.308 2.06-.858.545.988-.24c.67 2.74 1.792 5.226 2.98 7.856.465 1.03.946 2.095 1.4 3.184 2.54 2.043 8.394 8.495 8.24 12.73.014 2.244.85 4.037 1.817 6.114.322.69.654 1.406.97 2.17 1.398 1.676 3.45 2.953 5.947 3.695l-.29.974.604-.818c1.912 1.413 4.75 2.97 7.425 2.374l.222.99.67-.764zm3.945 4.24c-1.753 0-3.487-1.19-4.905-2.385-3.173.48-6.282-1.162-8.42-2.714-2.87-.885-5.242-2.413-6.868-4.427l.79-.64-.94.385c-.315-.772-.658-1.51-.99-2.222-1.027-2.205-1.997-4.287-2.01-6.985l1.018-.004-1.016-.044c.13-3.08-4.89-9.122-7.656-11.224l.615-.81-.94.39c-.473-1.147-.984-2.28-1.478-3.373-1.152-2.55-2.343-5.186-3.062-8.047l-1.118-1.76c-1.297-.973-2.332-2.13-3.334-3.252-1.84-2.06-3.43-3.838-6.13-3.845-2.263.13-4.35-.383-6.213-1.524-2.37.897-3.85 3.01-5.285 5.056-1.517 2.162-2.95 4.205-5.31 4.455-1.88.203-3.967-.81-6.554-3.177-6.51-2.625-7.95-7.518-9.345-12.253-.62-2.112-1.264-4.294-2.35-6.374-3.82-3.34-6.982-6.724-9.935-10.63-1.81-1.696-3.417-3.45-4.906-5.35l-7.757-.89.116-1.01-.125 1.01-8.513-1.06c-.055.976-.272 2.022-.47 2.98-.126.613-.245 1.19-.307 1.672-.035.268-.174.51-.39.675-.213.166-.485.24-.752.203l-8.986-1.186-.016-.002-15.027-2.197.294-2.012 14.015 2.05.48-3.423c.645-4.59 1.29-9.18 1.925-13.774 1.048-7.584 2.097-15.168 3.15-22.752l.983.137-.982-.137.67-4.81c1.19-8.6 2.38-17.203 3.573-25.805l2.016.28c-1.194 8.602-2.384 17.203-3.572 25.806l-.997-.14.996.14-.67 4.808c-1.054 7.584-2.104 15.167-3.15 22.75l-1.062-.146 1.062.147c-.637 4.592-1.28 9.184-1.926 13.776l-.48 3.42 7 .922c.05-.264.108-.536.165-.814.257-1.24.547-2.646.405-3.572l1.005-.154.126-1.01 9.685 1.207 6.3.722c-.126-.51-.12-1.053.186-1.543.715-1.148 2.4-1.015 3.62-.81l16.208 1.655 11.964 1.05 4.22.33-.08 1.015.36-.95c1.1.418 1.42.27 1.433.262 0 0 .048-.07.067-.284l.407-5.513 1.012.075-1.012-.075.413-5.547 1.014.075-1.012-.088c.29-3.286.592-6.572.895-9.858l.104-1.133.494-6.19 1.015.074-1.014-.08c.29-3.69.567-7.38.838-11.072l1.014.075-1.014-.078c.282-3.683.562-7.366.838-11.05-.072-1.915.296-4.516.824-5.86l.386-5.196-9.028-.665.075-1.016-.09 1.013-11.44-1.025.09-1.012-.096 1.012-.655-.063.096-1.012-.103 1.01-7.83-.796.103-1.003-.104 1.002-4.676-.486.105-1.012-.125 1.01-9.986-1.24.12-1.005-.125 1.005-8.918-1.12.253-2.017 9.51 1.19-.12 1.01.125-1.01 9.38 1.167 7.535.776-.102 1.002.103-1 5.6.565 11.434 1.024 9.194.68-.073 1.013.078-1.013.838.064-.076.993.077-.993 9.58.743-.077 1.013.102-1.01.12.01 10.788.557 8.56.36-.04 1.015.05-1.015 6.32.285 13.44.41 15.864.214 5.248.012.358-.003.007 1.022-.003-1.022 8.912-.05.01 1.016-.01-1.016 3.54-.037-.053-3.58 2.033-.095.067 4.666-1.016.016 1.016.013c-.02 1.576-.016 3.402.096 5.337l9.37-.185.024 1.015-.024-1.016 2.893-.07.034 1.015-.03-1.016 7.716-.257.04 1.016-.038-1.017 4.107-.162.052 1.016-.046-1.015 4.51-.202.047 1.015-.038-1.016 2.242-.08.037 1.015-.03-1.016.413-.012 11.93-.662.056 1.015.477-.898c1.448.768 1.877 1.735 1.983 2.41.104.67-.01 1.706-1.118 2.882l-.6.948 4.452-.337c-.065-.553-.263-1.133-.59-1.72-.176-.313-.174-.694.004-1.004.18-.31.507-.504.865-.51.26-.005.435-.024.546-.043-.013-.124-.038-.28-.058-.406-.075-.465-.177-1.103-.118-1.837.033-.503.435-.914.95-.947l.45-.028c.16-.507.51-.995.797-1.4l.828.593.373-.258c.03-.06.078-.172.135-.373l.418-1.71 1.975.485-.422 1.723-.987-.242.977.272c-.033.126-.092.335-.19.566l2.76-.2.11 1.01-.047-1.014.088-.005 3-.216.073 1.013-.058-1.016.27-.015 3.27-.234-.187-1.19 1.004-.158.05-1.016 3.737.196.444-.05.114 1.01-.105-1.01 3.056-.32.105 1.013-.098-1.012 2.728-.274 2.974-.36.122 1.01-.005-1.016 1.904-.008 1.378-.337.242.987-.036-1.016 4.403-.17 1.827-.11 3.464-.338 1.356-.245.18 1-.15-1.004.205-.032.15 1.005-.07-1.014 3.024-.21.07 1.015-.036-1.016 1.926-.07 5.487-.526.134 1.01-.115-1.012 2.164-.247.115 1.01-.09-1.012.747-.066 2.33-.454 1.89-1.02.406.75 6.34-.818 5.336-.783.15 1.005-.146-1.006.504-.072.146 1.006-.135-1.007.923-.125 3.1-.708.226.99-.136-1.007 1.794-.24.042.314 2.984-.296.203 2.022-2.382.24-.086 1.692-1.016-.052.7.74-1.547 1.503-.032-.014-.098.092.078.04-1.177 2.27-.903-.468-.3.97-1.025-.316-1.203.903-.612 1.134-.894-.482-.517.874-.802-.474c-.44.104-1.084.477-1.622 1.034l-.315 1.75-1-.178.437.918-2.503 1.194.11.078c-1.115 1.593-2.646 2.48-4.44 2.577l-2.253 1.434-.318 1.73-1-.184.847.56c-.553.84-1.115 1.688-1.76 2.447l1.52-.186.247 2.02-1.28.156-.123-1.014.12 1.014-1.953.233-.09-.76c-.818.583-1.78.997-2.966 1.134l-1.936.24-.13-1.01.117 1.01-5.62.704-.136-1.007.116 1.01-1.118.13-.116-1.01.097 1.01-1.34.13-.195-2.024 2.43-.254 1-.135.136 1.008-.127-1.01 2.914-.368.13 1.008-.12-1.01 2.07-.246.13 1.01-.123-1.012 1.576-.193.123 1.01-.117-1.01c2.057-.238 3.175-1.658 4.714-3.973l.377-2.06 1.002.184.023-.065-.484-.76 2.76-1.755.546.857-.004-1.016c1.256-.006 2.296-.583 3.09-1.72l.534.375.254-.045-.438-.917 2.362-1.127.273-1.524 1.002.18-.774-.66c.838-.983 2.27-1.972 3.57-1.972h.003v1.017l.517-.874.182.108.215-.4.894.484-.61-.813 1.794-1.35.61.815.3-.97.71.217.84-1.687.955.348-.7-.74 1.4-1.32.062-1.25-.292.038-3.1.708-.225-.99.136 1.007-1.462.204-3.134.47-.15-1.003.143 1.005-2.208.314-.144-1.003.14 1.002-1.543.213-.14-1.007.127 1.01-4.86.61-.094-.743-.004.002.08.744-1.986.217-2.493.487-.194-1 .088 1.014-.787.07-2.476.288-.134-1.007.094 1.01-5.182.482-.094-1.01.093 1.01-.072.008-.092-1.012.036 1.015-1.895.067-3.114.227-1.38.25-.182-1 .1 1.01-3.524.345-.098-1.012.06 1.015-1.856.11-.06-1.015.043 1.016-2.33.1-.044-1.017.037 1.015-1.983.07-1.393.34-.24-.987.004 1.017-1.965.01-2.92.35-.12-1.01.112 1.01-.538.06-.113-1.01.1 1.013-5.78.592-.113-1.01-.053 1.015-2.564-.135.164 1.045-1.004.158.073 1.014-4.38.314-.074-1.013.057 1.015-.27.015-3.006.218-.072-1.014.047 1.016-.118.008-.11-1.01.074 1.014-5.14.368-.074-1.014.067 1.015c-.282.018-.515-.007-.712-.06l.016.162-.27.024c.02.17.047.34.074.505.107.67.23 1.432-.3 2.063-.2.238-.447.4-.72.51.372 1.124.405 2.237.092 3.278-.34 1.123-1.066 2.105-2.13 2.894.283.52.25 1.042.088 1.614-.066.23-.1.36-.073.524l-1.005.157-.2.996c-.09-.018-.16-.03-.22-.034.017.127.058.32.152.6l-.145.05c.036.095.06.2.067.306l-.816.056.044.053.72.22c-.01.043-.025.118-.045.218-.214 1.085-.536 2.438-1.118 3.606 1.26-.03 2.557-.07 3.727-.273l.173 1-.075-1.013.82-.06.076 1.01-.064-1.012 4.564-.308.077 1.013-.075-1.013 3.848-.292.078 1.024-.077-1.024 4.528-.357.082 1.013-.07-1.014 1.806-.147 2.165-.31.145 1.005-.08-1.013 3.866-.305.08 1.013-.078-1.013 3.93-.304.077 1.015-.054-1.016.127-.007 4.343-.324.1 1.01-.098-1.01 4.76-.465.095.976-.095-.975.088-.008.093.958-.093-.958 4.566-.442.196 2.024-9.94.965-.1-1.012.07 1.014-3.85.275-.073-1.015.053 1.016-.124.006-7.75.603-.592.085c.316.83.248 1.584.19 2.236-.054.61-.106 1.188.117 1.888l-.97.308 1.017.024c-.19 8.258-.39 17.04-.522 25.66l-1.017-.016 1.017.018c-.053 2.84-.122 5.763-.206 8.686.306 2.54.628 5.077.95 7.616.292 2.307.585 4.616.865 6.925l-1.068.13 1.067-.13.422 3.493c.575-.058 1.005-.24 1.308-.55.482-.498.715-1.394.698-2.67l-.014-.02.014-.01c-.003-.157-.01-.32-.02-.486l-.182.023-.036-.286.198-.025c-.006-.085-.014-.173-.023-.26l.522-.053-.53-.36.18-.262.84.572 1.01-.1c.022.206.038.407.05.604.386.6.707 1.21 1.02 1.807.56 1.07 1.09 2.078 1.98 3.07.8-.44 1.3-1.123 1.406-1.99-.67-2.202-1.372-4.06-2.27-6.002l1.845-.854c.966 2.086 1.714 4.078 2.428 6.46l-.024.008c.038.045.09.08.134.118.09.077.212.177.327.307.013-.072.025-.15.038-.23.06-.35.124-.748.25-1.197l1.958.548c-.096.34-.15.664-.2.977-.252 1.54-.668 2.738-3.48 3.008-.153.017-.304-.006-.443-.056-1.176 1.06-2.98 1.617-5.14 1.49-.48-.03-.873-.39-.946-.863-.073-.475.196-.936.647-1.105l1.057-.4c-.388-.556-.707-1.11-1.002-1.655-.205.51-.482.944-.834 1.306-.803.83-1.954 1.23-3.412 1.187-1.475.795-3.446.81-5.432.046-1.49 1.097-3.012 1.546-4.294 1.306-.357.848-1.098 1.57-2.162 2.08l-.44-.916.333.96-.902.312-1.084.932c.876.246 1.48.078 2.036-.074.262-.072.533-.147.815-.177l.106 1.012.884-.506.26.458-.882.504.91-.453.685 1.378-.91.453.486.893-1.014.552-.486-.893-.06.595.142.11-.006.008.014.012-.185.217-.01.07-.04-.005-.475.633-.274.535c.463.456 1.53 1.093 2.224 1.508 1.92 1.147 3.903 2.33 3.786 4.13-.112 1.714-2.188 2.803-3.74 3.473-.413.18-.893.064-1.183-.28-.288-.346-.316-.84-.066-1.215.854-1.284.814-1.82.757-1.992-.17-.51-1.368-.94-2.528-1.355-.8-.286-1.705-.61-2.58-1.05l.454-.908-.476.898-.463-.244-.607-.038.017.7-1.017.024.21.203.45-.112.286 1.155-.987.245.92.43-.245.526-.92-.43.82.598c-.233.32-.944 1.294-1.987 1.315-.417.002-1.01-.13-1.557-.825l.8-.63-.97.306c-.167-.525-.29-.84-.376-1.026l-.62.036-.07.14c-.09-.046-.174-.086-.25-.12l-.37.02-.006-.09.198-.01c-.39-.172-.532-.186-.562-.186.105.012.243-.072.342-.17v-.016h.016c.02-.024.04-.048.055-.072l-.943.107.816.607-.307.412-.277-.206-.717 1.188-.87-.525.007 1.015-1.407.01-.008-1.016-.06.01c-.07.043-.1.064-.106.07.016-.014.037-.034.06-.06l-.89.176c.06.304.268.46.337.49-.057-.025-.123-.04-.183-.057-.186-.054-.573-.165-.834-.458-.15.153-.343.258-.56.295-.323.056-.655-.05-.89-.283-.09-.09-.178-.182-.263-.273-.292.25-.702.313-1.055.165-.8-.338-1.372-.692-1.555-1.318-.18-.62.152-1.103.312-1.336.042-.06.105-.15.115-.184.01-.285.14-.54.34-.716-.026-.11-.048-.22-.068-.33-1.343.472-2.58.035-3.685-.572-.105.24-.3.434-.553.534-1.718.684-2.646.9-3.29.29-.602-.57-.34-1.348-.215-1.723.028-.08.067-.196.082-.265-.03-.157-.02-.317.025-.466-1.603 2.34-4.02 3.1-7.207 2.267l.258-.984-.4.935c-1.687-.723-4.617-1.04-7.202-1.32-2.838-.305-4.77-.542-5.905-1.094l.12 1.466c-1.827.15-3.58.7-5.21 1.637l-.505-.882.407.932-.148.065c-.937.488-1.9.95-2.83 1.397l-.582.277c.088.375-.042.782-.364 1.033-.92.72-1.86 1.418-2.8 2.114-.47.35-.94.698-1.41 1.05-.23.174-.516.234-.782.19-1.05 1.063-2.23 2.137-3.488 3.173l-.646-.785.38.943c-.552.223-1.086.452-1.592.682-.075.26-.254.49-.515.625l-7.014 3.57c-.08.04-.16.07-.245.088.05.376-.116.76-.45.98-.538.355-1.074.72-1.61 1.086-1.075.733-2.187 1.49-3.33 2.168l-.48-.812c-.45.297-.896.418-1.334.362l-1.126 2.325-1.003-.488.703.43 1.238.307-.058.24-1.81-.446.104.638-1.46.236c.026.082.05.168.07.256.465.28.67.65.757.945.173.578-.01 1.14-.297 1.624l.77.302-1.412 3.592-.29 4.494.63 2.923.188.572-.61.2.01.006.607-.183.356 1.178-.974.295-.68.753-.262-.21-.007.278-.61-.014-.004.243.126.08.794-.365 2.02 4.383-.924.427.916.442c-.755 1.565-1.78 2.492-3.048 2.75-.246.05-.493.075-.74.075z" fill="#5C737F"/></g><path d="M48.252 24.572c.846 0 1.626-.454 2.084-1.216l-1.298-.784c-.182.305-.476.487-.786.487-.534 0-.97-.518-.97-1.155 0-.635.436-1.152.97-1.152.277 0 .543.144.73.396l1.216-.902c-.474-.643-1.184-1.01-1.946-1.01-1.37 0-2.482 1.194-2.482 2.667 0 1.47 1.113 2.667 2.482 2.667m-1.485 3.95c-.49-1.296-2.918-3.715-3.51-4.096-.263-.168-.488-.313-.647-.493-.196-.222-.322-.382-.404-.494.088-.01.2-.017.343-.017.733 0 1.377-.33 1.763-.913.357-.533.426-1.2.185-1.778-.1-.243-.412-.986-.235-1.21.405-.103.697-.352.827-.708.282-.772-.306-1.68-1.102-2.788l-.153-.22c.028-.08.072-.177.104-.256.28-.656.8-1.88-.028-3.02-.584-.81-1.95-1.44-3.4-1.578-1.71-.153-3.29.366-4.463 1.477-1.973 1.864-1.53 5.573-.452 7.535.137.247.278.47.412.676.455.705.425.748.276.94-.192.25-.44.47-.706.713-.81.73-2.793 2.488-3.41 4.75 3.058 3.253 8.384 5.423 14.597 1.478M40.432 33C33.025 33 27 26.972 27 19.56c0-7.413 6.025-13.44 13.432-13.44s13.43 6.027 13.43 13.44c0 7.412-6.023 13.44-13.43 13.44" fill="#5A7382"/><ellipse fill="#5D7381" cx="128" cy="43" rx="25.924" ry="25.924"/><g transform="translate(105 13)"><ellipse fill="#FFF" cx="26" cy="26" rx="25.924" ry="25.924"/><path d="M19.236 37.396c-1.82.08-3.264 1.555-3.264 3.31 0 1.837 1.53 3.313 3.43 3.313h14.71c1.902 0 3.434-1.477 3.434-3.313 0-1.835-1.532-3.31-3.433-3.31H19.236zM28.246 8.398c-.33-.4-.827-.6-1.28-.6-.25 0-.497.04-.703.16-.703.32-1.075 1.036-.95 1.795 1.074 5.507.535 8.538-.33 9.576-.29.307-.828.16-1.076-.16-.496-.598-.702-1.557-.496-2.515.04-.117.04-.237.04-.398 0-.877-.74-1.596-1.61-1.637H21.633c-.29 0-.58.12-.826.28-.125.08-.207.16-.33.278l-.043.042c-3.884 4.547-5.66 9.694-4.96 14.163.357 2.315 1.403 4.323 2.99 5.935.117.12.478.35.944.35.467 0 1.006-.016 1.006-.016.323 0 .895-.196.647-.74-.54-1.187-.36-2.23.61-4.57.333 3.11 1.738 4.548 3.266 4.548 2.397 0 5.083-3.51 4.298-9.538 4.676 4.514 3.303 7.68 2.57 9.308-.323.72.037 1.01.505 1.01h1.365c.43 0 .755-.22 1.192-.76 1.53-1.895 2.617-3.86 2.92-6.126 1.118-7.98-6.362-16.677-9.544-20.386" fill="#5A7382"/></g></g></svg>