<svg width="224" height="91" viewBox="0 0 224 91" xmlns="http://www.w3.org/2000/svg" xmlns:xlink="http://www.w3.org/1999/xlink"><title>home-card / res-to-revenue</title><defs><path d="M0 7.996C0 3.58 3.586 0 8.005 0h207.99C220.415 0 224 3.58 224 7.996V91H0V7.996z" id="a"/><path id="c" d="M102 0l34.343 3.82-.48 8.843L102 13z"/></defs><g fill="none" fill-rule="evenodd"><mask id="b" fill="#fff"><use xlink:href="#a"/></mask><use fill="#5C7380" xlink:href="#a"/><g fill="#758C99" mask="url(#b)"><path d="M33.768 24.302c-4.604 0-8.347-3.7-8.347-8.248 0-4.552 3.744-8.254 8.348-8.254 4.597 0 8.34 3.702 8.34 8.254 0 4.55-3.743 8.248-8.34 8.248m49.44 2.567L34.936-2.685c-.685-.42-1.562-.42-2.247 0l-48.675 29.74c-.814.497-1.193 1.186-.934 2.095.263.91 1.103 1.256 2.06 1.256h97.255c.032 0 .066.282.083.282 1.18 0 2.138-.804 2.138-1.973 0-.915-.585-1.552-1.408-1.846M61.655 35.654c-1.182 0-2.138.946-2.138 2.115v31.745c0 1.168.956 2.115 2.138 2.115h8.372c1.18 0 2.137-.947 2.137-2.115V37.77c0-1.17-.956-2.116-2.137-2.116h-8.372zM40.276 35.654c-1.182 0-2.138.946-2.138 2.115v31.745c0 1.168.956 2.115 2.138 2.115h8.372c1.182 0 2.138-.947 2.138-2.115V37.77c0-1.17-.956-2.116-2.138-2.116h-8.372zM18.893 35.654c-1.18 0-2.137.946-2.137 2.115v31.745c0 1.168.956 2.115 2.137 2.115h8.372c1.182 0 2.138-.947 2.138-2.115V37.77c0-1.17-.956-2.116-2.138-2.116h-8.372zM-2.485 35.654c-1.182 0-2.138.946-2.138 2.115v31.745c0 1.168.956 2.115 2.138 2.115h8.372c1.182 0 2.137-.947 2.137-2.115V37.77c0-1.17-.955-2.116-2.137-2.116h-8.372zM82.394 75.982H-14.86c-1.183 0-2.14.945-2.14 2.115 0 1.168.957 2.114 2.14 2.114h97.254c1.182 0 2.14-.945 2.14-2.113 0-1.17-.958-2.115-2.14-2.115"/></g><g transform="matrix(-1 0 0 1 225 70)" mask="url(#b)"><path fill="#758C99" d="M.86 4.076L0 7.086 5.79 8.74l6.8-1.136 5.25 1.09L28.433 9.84l8.273-1.124 8.908 1.125 8.91-1.15 7.282-1.078 7.296 2.245 9.423-1.138 6.727 1.126 8.424-1.158 9.08-1.1 10.405 1.296.387-3.107-10.788-1.343-9.487 1.15L85.3 6.678l-5.146-.864-11.438.646-6.665-2.05-7.956 1.177-8.483 1.095L43 6.355 38.02 5.43l-5.973.76-3.655.496-10.14-1.097-5.596-1.17L5.97 5.534"/><mask id="d" fill="#fff"><use xlink:href="#c"/></mask><path fill="#758C99" mask="url(#d)" d="M168.455 7.132L162.7 5.36l-6.866 1.017-7.322.947-2.255-.285-4.297-.798-5.155.654-3.155.43-8.75-.948-4.832-1.01-10.172-.126-1.973.138v2.332L114.14 9.1l5.872-.98 4.53.94 9.145.99 7.14-.97 7.69.97 7.69-.994 6.284-.93 6.3 1.94 8.13-.985 5.808.976 7.27-1 7.838-.95 8.98 1.118.335-2.684-9.31-1.16-8.188.993-6.883.947-4.443-.746"/></g><path d="M110.736 33.35h63.496s1.208-.497 2.202.782c.995 1.278 12.643 13.92 13.21 14.63.57.71.143 1.848-.85 2.132-.996.284-50.287 6.676-51.14 6.818-.852.142-1.988-.568-2.414-1.562-.426-.995-4.475-15.022-4.76-15.448-.283-.426-.85-.533-1.703-.533h-18.04s-1.28-.356-1.28-1.066v-4.9s.64-.853 1.28-.853zm16.336 9.376c.586 0 1.136.48 1.136 1.065v10.224c0 .586-.426 1.07-1.136 1.07-3.87 0-6.575 1.768-9.157 4.084-2.81 2.522-3.557 8.132-3.557 8.132 0 .586-.408.995-.994.995h-10.228c-.585 0-1.136-.41-1.136-.995V53.664c0-.586.55-1.066 1.136-1.066 0 0 8.108-2.626 9.305-3.054 1.492-.532 1.705-1.49 1.705-2.13V43.79c0-.585.41-1.064.995-1.064h11.932zm10.654 25.57c0 5.57-4.516 10.084-10.086 10.084s-10.085-4.515-10.085-10.085c0-5.57 4.515-10.086 10.085-10.086 5.57 0 10.086 4.515 10.086 10.085zm30.47 0c0 5.57-4.516 10.084-10.086 10.084s-10.086-4.515-10.086-10.085c0-5.57 4.516-10.086 10.086-10.086s10.085 4.515 10.085 10.085zm6.25-36.863c-.853 1.065-5.327.64-7.032.64s-2.983 0-3.41-.853c-.425-.852-.425-2.13 1.492-4.9 1.918-2.77 5.114-.64 7.032.85 1.918 1.493 3.145 2.73 1.918 4.263zm-28.194-9.775c.208 1.353-1.807 2.72-2.968 2.657-1.16-.063-2.454-1.68-1-3.038 1.452-1.358 3.78-.837 3.968.38zm15.835 9.35c-.91 1.015-13.273.755-14.975.66-1.702-.094-2.978-.165-3.357-1.04-.378-.875-.002-3.3 2.066-5.96 2.07-2.66 12.663-5.6 14.495-4.003 1.832 1.595 3.083 8.878 1.772 10.342zm-29.688.283c-2.578-.355-4.83-2.84-.71-7.102 2.33-2.41 6.675-.923 8.806-.284 1.443.433 2.912 2.273 2.486 3.125-.787 1.572-.68 3.8-2.933 4.315-2.253.514-5.59.23-7.65-.054z" fill="#35434B" opacity=".4" mask="url(#b)"/><g fill="#FFF" mask="url(#b)"><path d="M114.736 30.35h63.496s1.208-.497 2.202.782c.995 1.278 12.643 13.92 13.21 14.63.57.71.143 1.848-.85 2.132-.996.284-50.287 6.676-51.14 6.818-.852.142-1.988-.568-2.414-1.562-.426-.995-4.475-15.022-4.76-15.448-.283-.426-.85-.533-1.703-.533h-18.04s-1.28-.356-1.28-1.066v-4.9s.64-.853 1.28-.853"/><path d="M131.072 39.726H119.14c-.586 0-.995.48-.995 1.065v3.624c0 .64-.213 1.598-1.704 2.13-1.196.428-9.304 3.054-9.304 3.054-.585 0-1.136.48-1.136 1.066V64.3c0 .586.55.995 1.136.995h10.228c.586 0 .994-.41.994-.995 0 0 .746-5.61 3.557-8.132 2.582-2.316 5.286-4.084 9.157-4.084.71 0 1.136-.484 1.136-1.07V40.79c0-.585-.55-1.064-1.136-1.064"/><path d="M131.64 62.2c-1.71 0-3.096 1.385-3.096 3.095 0 1.71 1.386 3.095 3.096 3.095 1.71 0 3.096-1.385 3.096-3.095 0-1.71-1.386-3.096-3.096-3.096m10.086 3.095c0 5.57-4.516 10.085-10.086 10.085s-10.085-4.515-10.085-10.085c0-5.57 4.515-10.086 10.085-10.086 5.57 0 10.086 4.515 10.086 10.085M162.11 62.2c-1.71 0-3.096 1.385-3.096 3.095 0 1.71 1.386 3.096 3.096 3.096 1.71 0 3.096-1.385 3.096-3.095 0-1.71-1.387-3.096-3.096-3.096m10.085 3.095c0 5.57-4.515 10.085-10.085 10.085-5.57 0-10.086-4.515-10.086-10.085 0-5.57 4.516-10.086 10.086-10.086s10.085 4.515 10.085 10.085M178.446 28.433c1.227-1.534 0-2.77-1.918-4.262-1.918-1.49-5.114-3.62-7.032-.85-1.917 2.77-1.917 4.048-1.49 4.9.425.852 1.703.852 3.408.852 1.705 0 6.18.426 7.032-.64M150.252 18.658c-.187-1.218-2.516-1.74-3.97-.38-1.452 1.356-.16 2.974 1.002 3.037 1.16.063 3.176-1.304 2.968-2.657M166.087 28.007c1.31-1.464.06-8.747-1.772-10.342-1.832-1.596-12.425 1.344-14.494 4.003-2.067 2.66-2.443 5.085-2.065 5.96.38.875 1.655.946 3.357 1.04 1.702.095 14.065.355 14.975-.66M136.4 28.29c-2.578-.355-4.83-2.84-.71-7.102 2.33-2.41 6.675-.923 8.806-.284 1.443.433 2.912 2.273 2.486 3.125-.787 1.572-.68 3.8-2.933 4.315-2.253.514-5.59.23-7.65-.054"/></g></g></svg>