<!-- Generator: Adobe Illustrator 19.1.0, SVG Export Plug-In  -->
<svg version="1.1"
	 xmlns="http://www.w3.org/2000/svg" xmlns:xlink="http://www.w3.org/1999/xlink" xmlns:a="http://ns.adobe.com/AdobeSVGViewerExtensions/3.0/"
	 x="0px" y="0px" width="141.3px" height="201.8px" viewBox="0 0 141.3 201.8" style="enable-background:new 0 0 141.3 201.8;"
	 xml:space="preserve">
<style type="text/css">
	.st0{fill:#BAE9FF;}
	.st1{fill:#F0FCFF;}
</style>
<defs>
</defs>
<g id="Symbols_1_">
	<g id="icon-ribbon-oil-rig_1_">
		<path id="oil-rig_1_" class="st0" d="M139.6,94h-30.5L99.3,3.5h1.7c1,0,1.7-0.8,1.7-1.7c0-1-0.8-1.7-1.7-1.7H82
			c-1,0-1.7,0.8-1.7,1.7c0,1,0.8,1.7,1.7,1.7h1.7L73.8,94h-1.3V72c0-1-0.8-1.7-1.7-1.7H58L5.5,33c-0.7-0.5-1.8-0.4-2.4,0.3l-2.7,3.3
			c-0.6,0.7-0.5,1.8,0.2,2.4l44.7,41.3V94h-2c-1,0-1.7,0.8-1.7,1.7v13.1c0,1,0.8,1.7,1.7,1.7h5.4v32.7h11v-32.7h66v32.7h11v-32.7h3
			c1,0,1.7-0.8,1.7-1.7V95.7C141.3,94.8,140.6,94,139.6,94L139.6,94z M99.3,35.8l2.8,25.6L83.5,47.7L99.3,35.8L99.3,35.8z
			 M98.5,28.9l-12.2-9.2L96.7,12L98.5,28.9L98.5,28.9z M87.2,3.5h8.6L96.3,8l-10.4,7.8L87.2,3.5L87.2,3.5z M85,23.2l12.7,9.5
			L82.8,43.8L85,23.2L85,23.2z M82,50.9l19.1,14.1L78.7,81.6L82,50.9L82,50.9z M78.2,86.3l24.6-18.1l2.8,25.9H77.3L78.2,86.3
			L78.2,86.3z M4.1,37.6l0.7-0.8l1.9,1.4l0.6,2.4L4.1,37.6L4.1,37.6z M11.1,41.3l4.6,3.2l-3.8-0.2L11.1,41.3L11.1,41.3z M15.3,48
			l4.4,0.2l1.3,5.1L15.3,48L15.3,48z M23.9,50.3l9.7,6.8l-8-0.3L23.9,50.3L23.9,50.3z M28.8,60.5l8.4,0.3l2.3,9.5L28.8,60.5
			L28.8,60.5z M44.1,74.6l-2.9-12L52,70.2H47c-1,0-1.7,0.8-1.7,1.7v3.7L44.1,74.6L44.1,74.6z M45.1,97.5h92.8v9.6H45.1V97.5z"/>
		<polygon id="Line-Copy-2_1_" class="st0" points="89.3,130.9 93.3,130.9 93.3,2.9 89.3,2.9 		"/>
		<polygon id="Line-Copy-5_1_" class="st1" points="89.3,201.8 93.3,201.8 93.3,130.6 89.3,130.6 		"/>
		<path id="S_1_" class="st1" d="M102.2,152.6c-0.2,0.3-0.4,0.5-0.6,0.7c-0.2,0.1-0.4,0.2-0.8,0.2c-0.3,0-0.7-0.2-1.2-0.5
			s-1-0.7-1.7-1.1c-0.7-0.4-1.5-0.8-2.4-1.1c-0.9-0.3-2.1-0.5-3.4-0.5c-1.3,0-2.4,0.2-3.4,0.5s-1.8,0.8-2.4,1.4s-1.1,1.3-1.5,2.1
			c-0.3,0.8-0.5,1.6-0.5,2.6c0,1.2,0.3,2.1,0.9,2.9c0.6,0.8,1.3,1.4,2.3,2c0.9,0.5,2,1,3.2,1.4c1.2,0.4,2.4,0.8,3.7,1.2
			c1.3,0.4,2.5,0.9,3.7,1.4s2.3,1.2,3.2,2c0.9,0.8,1.7,1.8,2.3,3c0.6,1.2,0.9,2.7,0.9,4.4c0,1.8-0.3,3.6-0.9,5.2
			c-0.6,1.6-1.5,3-2.7,4.2c-1.2,1.2-2.7,2.1-4.4,2.8s-3.7,1-6,1c-2.7,0-5.2-0.5-7.4-1.5c-2.2-1-4.1-2.3-5.7-4l1.6-2.7
			c0.2-0.2,0.3-0.4,0.6-0.5s0.5-0.2,0.7-0.2c0.4,0,0.9,0.2,1.4,0.7c0.5,0.4,1.2,0.9,2,1.4c0.8,0.5,1.7,1,2.9,1.4
			c1.1,0.4,2.5,0.7,4.1,0.7c1.3,0,2.5-0.2,3.6-0.6s1.9-0.9,2.7-1.6c0.7-0.7,1.3-1.5,1.7-2.4c0.4-0.9,0.6-2,0.6-3.1
			c0-1.3-0.3-2.3-0.9-3.1s-1.3-1.5-2.3-2c-0.9-0.5-2-1-3.2-1.4s-2.4-0.8-3.7-1.2s-2.5-0.9-3.7-1.4s-2.3-1.2-3.2-2
			c-0.9-0.8-1.7-1.9-2.3-3.1c-0.6-1.3-0.9-2.8-0.9-4.7c0-1.5,0.3-2.9,0.9-4.3c0.6-1.4,1.4-2.6,2.5-3.7c1.1-1.1,2.4-1.9,4.1-2.6
			c1.6-0.6,3.5-1,5.5-1c2.3,0,4.5,0.4,6.4,1.1c1.9,0.7,3.6,1.8,5.1,3.2L102.2,152.6z"/>
	</g>
</g>
</svg>
