<?xml version="1.0" encoding="UTF-8" standalone="no"?>
<svg width="311px" height="117px" viewBox="0 0 311 117" version="1.1" xmlns="http://www.w3.org/2000/svg" xmlns:xlink="http://www.w3.org/1999/xlink">
    <!-- Generator: Sketch 39.1 (31720) - http://www.bohemiancoding.com/sketch -->
    <title>USEITI</title>
    <desc>Created with Sketch.</desc>
    <defs>
        <polygon id="path-1" points="0 116 310.403 116 310.403 0.579 0 0.579"></polygon>
    </defs>
    <g id="Page-1" stroke="none" stroke-width="1" fill="none" fill-rule="evenodd">
        <g id="Artboard">
            <g id="Page-1">
                <polygon  fill="#1378A6" points="207.764 19.0854 236.792 19.0854 237.891 19.0734 237.891 65.0314 257.266 65.0314 257.266 19.0994 273.308 19.0994 273.306 19.0794 278.976 19.0794 288.501 2.4314 217.288 2.3764"></polygon>
                <polygon id="Fill-2" fill="#1D2326" points="173.3396 19.0112 182.8626 2.3762 111.6876 2.3762 111.6686 3.8512 111.6686 49.7932 111.6716 49.6722 111.7086 64.9302 167.6696 64.9762 167.6666 64.9572 173.3396 64.9572 182.8626 48.3222 131.1616 48.3222 131.1616 42.3282 131.2376 42.2832 170.0966 42.2832 179.0646 25.1132 168.2746 25.1132 168.2806 25.1582 131.3066 25.1582 131.3066 19.0132"></polygon>
                <path d="M111.708,48.3225 L111.708,48.2965 L111.708,48.3225 Z"  fill="#1D2326"></path>
                <polygon  fill="#1D2326" points="185.977 65.053 205.352 65.053 205.352 2.377 185.977 2.377"></polygon>
                <polygon id="Fill-5" fill="#1D2326" points="290.88 65.053 310.255 65.053 310.255 2.377 290.88 2.377"></polygon>
                <polygon id="Fill-6" fill="#1D2326" points="0 76.7238 0 77.4808 4.999 77.4808 4.999 90.9418 5.874 90.9418 5.874 77.4808 10.892 77.4808 10.892 76.7238"></polygon>
                <g id="Group-70" transform="translate(0.000000, 0.421000)">
                    <path d="M12.4853,76.3025 L12.4853,82.4755 L12.5253,82.4755 C12.6573,82.0905 12.8463,81.7485 13.0923,81.4505 C13.3383,81.1515 13.6233,80.8965 13.9493,80.6845 C14.2743,80.4715 14.6293,80.3115 15.0143,80.2055 C15.3993,80.0995 15.7913,80.0465 16.1893,80.0465 C16.7863,80.0465 17.2943,80.1195 17.7123,80.2655 C18.1313,80.4115 18.4723,80.6045 18.7383,80.8425 C19.0033,81.0815 19.2123,81.3505 19.3653,81.6495 C19.5183,81.9485 19.6273,82.2505 19.6943,82.5555 C19.7603,82.8615 19.8003,83.1565 19.8133,83.4415 C19.8263,83.7275 19.8333,83.9765 19.8333,84.1885 L19.8333,90.5205 L19.0763,90.5205 L19.0763,84.0485 C19.0763,83.7975 19.0563,83.4775 19.0163,83.0935 C18.9773,82.7085 18.8613,82.3405 18.6683,81.9885 C18.4753,81.6365 18.1833,81.3335 17.7923,81.0815 C17.4003,80.8305 16.8593,80.7035 16.1693,80.7035 C15.5853,80.7035 15.0673,80.8095 14.6163,81.0225 C14.1643,81.2345 13.7803,81.5295 13.4613,81.9085 C13.1423,82.2865 12.9003,82.7385 12.7343,83.2625 C12.5683,83.7865 12.4853,84.3615 12.4853,84.9845 L12.4853,90.5205 L11.7293,90.5205 L11.7293,76.3025 L12.4853,76.3025 L12.4853,76.3025 Z" id="Fill-7" fill="#1D2326"></path>
                    <path d="M29.4711,84.8456 C29.4441,84.2886 29.3511,83.7606 29.1921,83.2626 C29.0321,82.7646 28.7951,82.3266 28.4831,81.9486 C28.1701,81.5696 27.7911,81.2676 27.3451,81.0426 C26.8981,80.8166 26.3891,80.7036 25.8181,80.7036 C25.2051,80.7036 24.6661,80.8196 24.2001,81.0526 C23.7341,81.2846 23.3411,81.5896 23.0221,81.9676 C22.7021,82.3456 22.4561,82.7886 22.2831,83.2916 C22.1111,83.7976 22.0041,84.3146 21.9641,84.8456 L29.4711,84.8456 Z M21.9441,85.5036 L21.9441,85.6216 C21.9441,86.2196 22.0231,86.7906 22.1841,87.3346 C22.3431,87.8786 22.5791,88.3576 22.8921,88.7686 C23.2051,89.1806 23.5981,89.5046 24.0701,89.7446 C24.5421,89.9836 25.0921,90.1026 25.7181,90.1026 C26.7421,90.1026 27.5541,89.8336 28.1541,89.2966 C28.7531,88.7586 29.1651,88.0116 29.3921,87.0556 L30.1481,87.0556 C29.9231,88.2516 29.4341,89.1666 28.6841,89.8036 C27.9341,90.4406 26.9421,90.7596 25.7071,90.7596 C24.9511,90.7596 24.2901,90.6236 23.7261,90.3516 C23.1621,90.0796 22.6911,89.7076 22.3121,89.2356 C21.9341,88.7656 21.6521,88.2086 21.4661,87.5636 C21.2801,86.9196 21.1871,86.2266 21.1871,85.4826 C21.1871,84.7656 21.2831,84.0786 21.4761,83.4216 C21.6681,82.7646 21.9571,82.1876 22.3421,81.6896 C22.7271,81.1916 23.2081,80.7936 23.7861,80.4946 C24.3631,80.1966 25.0441,80.0466 25.8271,80.0466 C26.5441,80.0466 27.1771,80.1796 27.7291,80.4446 C28.2801,80.7106 28.7411,81.0716 29.1131,81.5296 C29.4841,81.9886 29.7661,82.5196 29.9591,83.1236 C30.1511,83.7276 30.2481,84.3746 30.2481,85.0646 C30.2481,85.1306 30.2441,85.2066 30.2381,85.2936 C30.2311,85.3806 30.2281,85.4496 30.2281,85.5036 L21.9441,85.5036 Z" id="Fill-9" fill="#1D2326"></path>
                    <path d="M38.5519,76.3025 L38.5519,84.8265 C38.5519,85.1045 38.5649,85.4305 38.5909,85.8015 C38.6179,86.1735 38.6839,86.5555 38.7909,86.9465 C38.8969,87.3385 39.0459,87.7235 39.2389,88.1015 C39.4309,88.4805 39.6929,88.8185 40.0249,89.1175 C40.3569,89.4155 40.7649,89.6545 41.2499,89.8345 C41.7339,90.0135 42.3219,90.1025 43.0129,90.1025 C43.8889,90.1025 44.6219,89.9805 45.2129,89.7345 C45.8029,89.4895 46.2809,89.1365 46.6459,88.6785 C47.0109,88.2205 47.2739,87.6665 47.4329,87.0155 C47.5919,86.3665 47.6719,85.6355 47.6719,84.8265 L47.6719,76.3025 L48.5479,76.3025 L48.5479,84.8265 C48.5479,85.6755 48.4589,86.4655 48.2799,87.1955 C48.0999,87.9255 47.7979,88.5625 47.3729,89.1075 C46.9479,89.6515 46.3809,90.0795 45.6709,90.3915 C44.9599,90.7025 44.0739,90.8595 43.0129,90.8595 C42.1759,90.8595 41.4589,90.7525 40.8619,90.5405 C40.2649,90.3285 39.7699,90.0535 39.3779,89.7145 C38.9859,89.3765 38.6779,88.9875 38.4519,88.5495 C38.2259,88.1105 38.0539,87.6705 37.9339,87.2255 C37.8149,86.7805 37.7419,86.3485 37.7149,85.9305 C37.6889,85.5125 37.6759,85.1445 37.6759,84.8265 L37.6759,76.3025 L38.5519,76.3025 Z" id="Fill-11" fill="#1D2326"></path>
                    <path d="M50.5195,80.2857 L51.2755,80.2857 L51.2755,82.4757 L51.3155,82.4757 C51.4485,82.0907 51.6375,81.7487 51.8835,81.4507 C52.1285,81.1517 52.4145,80.8967 52.7395,80.6837 C53.0645,80.4717 53.4195,80.3117 53.8045,80.2057 C54.1905,80.0997 54.5815,80.0457 54.9805,80.0457 C55.5775,80.0457 56.0855,80.1187 56.5035,80.2657 C56.9215,80.4117 57.2625,80.6047 57.5285,80.8427 C57.7945,81.0817 58.0035,81.3507 58.1565,81.6497 C58.3085,81.9487 58.4185,82.2507 58.4845,82.5557 C58.5505,82.8617 58.5905,83.1567 58.6045,83.4417 C58.6165,83.7277 58.6235,83.9767 58.6235,84.1877 L58.6235,90.5207 L57.8675,90.5207 L57.8675,84.0487 C57.8675,83.7977 57.8475,83.4777 57.8075,83.0927 C57.7675,82.7087 57.6515,82.3397 57.4595,81.9887 C57.2665,81.6367 56.9745,81.3337 56.5825,81.0817 C56.1915,80.8307 55.6505,80.7037 54.9605,80.7037 C54.3755,80.7037 53.8575,80.8097 53.4065,81.0217 C52.9555,81.2347 52.5705,81.5297 52.2515,81.9087 C51.9325,82.2867 51.6905,82.7387 51.5245,83.2627 C51.3585,83.7867 51.2755,84.3617 51.2755,84.9847 L51.2755,90.5207 L50.5195,90.5207 L50.5195,80.2857 Z" id="Fill-13" fill="#1D2326"></path>
                    <mask id="mask-2" fill="white">
                        <use xlink:href="#path-1"></use>
                    </mask>
                    <g id="Clip-16"></g>
                    <path d="M60.635,90.521 L61.392,90.521 L61.392,80.286 L60.635,80.286 L60.635,90.521 Z M60.635,78.354 L61.392,78.354 L61.392,76.303 L60.635,76.303 L60.635,78.354 Z" id="Fill-15" fill="#1D2326" mask="url(#mask-2)"></path>
                    <path d="M67.5652,80.9423 L65.3352,80.9423 L65.3352,88.0913 C65.3352,88.5033 65.3812,88.8283 65.4742,89.0673 C65.5672,89.3063 65.7092,89.4893 65.9022,89.6153 C66.0952,89.7413 66.3272,89.8173 66.5992,89.8443 C66.8712,89.8703 67.1872,89.8773 67.5452,89.8633 L67.5452,90.5213 C67.1602,90.5473 66.7852,90.5443 66.4202,90.5113 C66.0552,90.4783 65.7332,90.3783 65.4542,90.2123 C65.1752,90.0463 64.9532,89.7973 64.7872,89.4663 C64.6212,89.1333 64.5512,88.6763 64.5782,88.0913 L64.5782,80.9423 L62.6862,80.9423 L62.6862,80.2853 L64.5782,80.2853 L64.5782,77.0993 L65.3352,77.0993 L65.3352,80.2853 L67.5652,80.2853 L67.5652,80.9423 Z" id="Fill-17" fill="#1D2326" mask="url(#mask-2)"></path>
                    <path d="M76.3664,84.8456 C76.3394,84.2886 76.2464,83.7606 76.0874,83.2626 C75.9274,82.7646 75.6904,82.3266 75.3784,81.9486 C75.0654,81.5696 74.6864,81.2676 74.2404,81.0426 C73.7934,80.8166 73.2844,80.7036 72.7134,80.7036 C72.1004,80.7036 71.5614,80.8196 71.0954,81.0526 C70.6294,81.2846 70.2364,81.5896 69.9174,81.9676 C69.5974,82.3456 69.3514,82.7886 69.1784,83.2916 C69.0064,83.7976 68.8994,84.3146 68.8594,84.8456 L76.3664,84.8456 Z M68.8394,85.5036 L68.8394,85.6216 C68.8394,86.2196 68.9184,86.7906 69.0794,87.3346 C69.2384,87.8786 69.4744,88.3576 69.7874,88.7686 C70.1004,89.1806 70.4934,89.5046 70.9654,89.7446 C71.4374,89.9836 71.9874,90.1026 72.6134,90.1026 C73.6374,90.1026 74.4494,89.8336 75.0484,89.2966 C75.6484,88.7586 76.0604,88.0116 76.2874,87.0556 L77.0434,87.0556 C76.8184,88.2516 76.3294,89.1666 75.5794,89.8036 C74.8294,90.4406 73.8374,90.7596 72.6024,90.7596 C71.8464,90.7596 71.1854,90.6236 70.6214,90.3516 C70.0574,90.0796 69.5864,89.7076 69.2074,89.2356 C68.8294,88.7656 68.5474,88.2086 68.3614,87.5636 C68.1754,86.9196 68.0824,86.2266 68.0824,85.4826 C68.0824,84.7656 68.1784,84.0786 68.3714,83.4216 C68.5634,82.7646 68.8524,82.1876 69.2374,81.6896 C69.6224,81.1916 70.1034,80.7936 70.6814,80.4946 C71.2584,80.1966 71.9394,80.0466 72.7224,80.0466 C73.4394,80.0466 74.0724,80.1796 74.6244,80.4446 C75.1754,80.7106 75.6364,81.0716 76.0084,81.5296 C76.3794,81.9886 76.6614,82.5196 76.8544,83.1236 C77.0464,83.7276 77.1434,84.3746 77.1434,85.0646 C77.1434,85.1306 77.1394,85.2066 77.1334,85.2936 C77.1264,85.3806 77.1234,85.4496 77.1234,85.5036 L68.8394,85.5036 Z" id="Fill-18" fill="#1D2326" mask="url(#mask-2)"></path>
                    <path d="M82.9977,90.1029 C83.6477,90.1029 84.2087,89.9709 84.6797,89.7049 C85.1517,89.4389 85.5427,89.0869 85.8557,88.6489 C86.1667,88.2109 86.3997,87.7099 86.5527,87.1459 C86.7047,86.5819 86.7807,86.0079 86.7807,85.4229 C86.7807,84.8259 86.7047,84.2459 86.5527,83.6809 C86.3997,83.1169 86.1707,82.6119 85.8647,82.1669 C85.5597,81.7229 85.1647,81.3679 84.6797,81.1019 C84.1957,80.8359 83.6277,80.7039 82.9777,80.7039 C82.3007,80.7039 81.7227,80.8329 81.2457,81.0919 C80.7677,81.3509 80.3717,81.6989 80.0607,82.1379 C79.7487,82.5759 79.5227,83.0809 79.3837,83.6499 C79.2437,84.2219 79.1747,84.8129 79.1747,85.4229 C79.1747,86.0199 79.2507,86.6009 79.4027,87.1649 C79.5557,87.7299 79.7877,88.2309 80.0997,88.6689 C80.4117,89.1069 80.8067,89.4549 81.2847,89.7139 C81.7627,89.9729 82.3337,90.1029 82.9977,90.1029 L82.9977,90.1029 Z M86.8007,88.3299 L86.7617,88.3299 C86.3357,89.1409 85.8047,89.7469 85.1677,90.1529 C84.5307,90.5569 83.7537,90.7599 82.8387,90.7599 C82.0687,90.7599 81.4047,90.6129 80.8467,90.3219 C80.2887,90.0299 79.8317,89.6379 79.4727,89.1459 C79.1147,88.6549 78.8487,88.0889 78.6767,87.4449 C78.5037,86.8009 78.4177,86.1269 78.4177,85.4229 C78.4177,84.6659 78.5107,83.9589 78.6967,83.3029 C78.8817,82.6449 79.1637,82.0779 79.5427,81.5999 C79.9207,81.1219 80.3957,80.7439 80.9667,80.4649 C81.5367,80.1849 82.2077,80.0459 82.9777,80.0459 C83.3887,80.0459 83.7937,80.1039 84.1927,80.2159 C84.5907,80.3289 84.9587,80.4909 85.2977,80.7039 C85.6357,80.9159 85.9317,81.1819 86.1837,81.5009 C86.4357,81.8189 86.6287,82.1779 86.7617,82.5759 L86.8007,82.5759 L86.8007,76.3029 L87.5577,76.3029 L87.5577,90.5209 L86.8007,90.5209 L86.8007,88.3299 Z" id="Fill-19" fill="#1D2326" mask="url(#mask-2)"></path>
                    <path d="M104.9218,80.3646 C104.8948,79.7546 104.7658,79.2236 104.5338,78.7716 C104.3008,78.3206 103.9858,77.9426 103.5878,77.6366 C103.1898,77.3326 102.7148,77.1026 102.1638,76.9506 C101.6128,76.7976 101.0118,76.7216 100.3618,76.7216 C99.9638,76.7216 99.5358,76.7676 99.0768,76.8606 C98.6188,76.9536 98.1938,77.1156 97.8028,77.3476 C97.4108,77.5806 97.0888,77.8926 96.8368,78.2836 C96.5848,78.6756 96.4588,79.1636 96.4588,79.7476 C96.4588,80.3186 96.5978,80.7836 96.8768,81.1416 C97.1558,81.5006 97.5208,81.7886 97.9718,82.0076 C98.4228,82.2276 98.9408,82.4036 99.5248,82.5356 C100.1088,82.6686 100.6998,82.7936 101.2978,82.9136 C101.9078,83.0336 102.5018,83.1756 103.0798,83.3426 C103.6578,83.5076 104.1748,83.7336 104.6328,84.0196 C105.0908,84.3046 105.4598,84.6756 105.7378,85.1336 C106.0168,85.5926 106.1568,86.1666 106.1568,86.8576 C106.1568,87.6006 105.9968,88.2236 105.6778,88.7286 C105.3598,89.2326 104.9588,89.6446 104.4738,89.9636 C103.9888,90.2826 103.4518,90.5106 102.8608,90.6506 C102.2698,90.7896 101.7028,90.8596 101.1578,90.8596 C100.3218,90.8596 99.5388,90.7706 98.8078,90.5906 C98.0778,90.4116 97.4408,90.1196 96.8968,89.7146 C96.3528,89.3096 95.9238,88.7886 95.6118,88.1506 C95.3008,87.5136 95.1508,86.7376 95.1638,85.8216 L96.0398,85.8216 C96.0008,86.6046 96.1128,87.2656 96.3788,87.8026 C96.6438,88.3406 97.0128,88.7816 97.4848,89.1266 C97.9558,89.4726 98.5098,89.7206 99.1468,89.8736 C99.7838,90.0256 100.4548,90.1026 101.1578,90.1026 C101.5828,90.1026 102.0378,90.0496 102.5218,89.9436 C103.0068,89.8366 103.4518,89.6576 103.8568,89.4056 C104.2618,89.1546 104.5998,88.8216 104.8718,88.4096 C105.1438,87.9986 105.2798,87.4806 105.2798,86.8576 C105.2798,86.2586 105.1408,85.7716 104.8618,85.3926 C104.5828,85.0146 104.2148,84.7096 103.7568,84.4776 C103.2988,84.2456 102.7808,84.0596 102.2038,83.9196 C101.6258,83.7796 101.0318,83.6506 100.4218,83.5316 C99.8238,83.4116 99.2328,83.2726 98.6488,83.1126 C98.0648,82.9536 97.5468,82.7386 97.0958,82.4656 C96.6438,82.1936 96.2798,81.8426 96.0008,81.4106 C95.7218,80.9796 95.5828,80.4246 95.5828,79.7476 C95.5828,79.0706 95.7248,78.4906 96.0108,78.0056 C96.2958,77.5216 96.6678,77.1296 97.1258,76.8306 C97.5838,76.5316 98.0978,76.3126 98.6688,76.1726 C99.2398,76.0336 99.8038,75.9646 100.3618,75.9646 C101.1048,75.9646 101.7978,76.0476 102.4428,76.2126 C103.0858,76.3796 103.6508,76.6386 104.1348,76.9906 C104.6198,77.3416 105.0078,77.7956 105.2998,78.3536 C105.5918,78.9116 105.7578,79.5826 105.7978,80.3646 L104.9218,80.3646 Z" id="Fill-20" fill="#1D2326" mask="url(#mask-2)"></path>
                    <path d="M111.4139,80.9423 L109.1839,80.9423 L109.1839,88.0913 C109.1839,88.5033 109.2299,88.8283 109.3229,89.0673 C109.4159,89.3063 109.5579,89.4893 109.7509,89.6153 C109.9439,89.7413 110.1759,89.8173 110.4479,89.8443 C110.7199,89.8703 111.0359,89.8773 111.3939,89.8633 L111.3939,90.5213 C111.0089,90.5473 110.6339,90.5443 110.2689,90.5113 C109.9039,90.4783 109.5819,90.3783 109.3029,90.2123 C109.0239,90.0463 108.8019,89.7973 108.6359,89.4663 C108.4699,89.1333 108.3999,88.6763 108.4269,88.0913 L108.4269,80.9423 L106.5349,80.9423 L106.5349,80.2853 L108.4269,80.2853 L108.4269,77.0993 L109.1839,77.0993 L109.1839,80.2853 L111.4139,80.2853 L111.4139,80.9423 Z" id="Fill-21" fill="#1D2326" mask="url(#mask-2)"></path>
                    <path d="M119.5975,84.7063 C119.4115,84.9323 119.1295,85.0843 118.7515,85.1643 C118.3735,85.2443 117.9515,85.3033 117.4865,85.3433 L116.2125,85.4633 C115.8405,85.5033 115.4685,85.5593 115.0975,85.6313 C114.7255,85.7043 114.3905,85.8283 114.0915,86.0013 C113.7925,86.1733 113.5505,86.4093 113.3645,86.7073 C113.1785,87.0063 113.0855,87.3953 113.0855,87.8723 C113.0855,88.6293 113.3255,89.1903 113.8025,89.5553 C114.2805,89.9203 114.9375,90.1033 115.7745,90.1033 C116.6375,90.1033 117.3205,89.9473 117.8255,89.6343 C118.3295,89.3223 118.7145,88.9643 118.9805,88.5593 C119.2455,88.1543 119.4145,87.7633 119.4875,87.3843 C119.5605,87.0063 119.5975,86.7513 119.5975,86.6173 L119.5975,84.7063 Z M119.5975,88.4893 L119.5575,88.4893 C119.4385,88.7953 119.2655,89.0843 119.0395,89.3553 C118.8145,89.6283 118.5385,89.8703 118.2135,90.0823 C117.8875,90.2953 117.5195,90.4613 117.1085,90.5803 C116.6965,90.7003 116.2455,90.7593 115.7545,90.7593 C114.6655,90.7593 113.8225,90.5233 113.2255,90.0533 C112.6285,89.5813 112.3295,88.8553 112.3295,87.8723 C112.3295,87.2753 112.4485,86.7873 112.6875,86.4093 C112.9265,86.0303 113.2285,85.7323 113.5935,85.5133 C113.9585,85.2933 114.3635,85.1383 114.8085,85.0443 C115.2525,84.9513 115.6815,84.8853 116.0925,84.8453 L117.2675,84.7463 C117.8115,84.7063 118.2405,84.6433 118.5525,84.5573 C118.8635,84.4703 119.0995,84.3503 119.2585,84.1983 C119.4185,84.0463 119.5185,83.8503 119.5575,83.6113 C119.5975,83.3713 119.6175,83.0733 119.6175,82.7153 C119.6175,82.4353 119.5645,82.1773 119.4585,81.9383 C119.3515,81.6993 119.1855,81.4873 118.9605,81.3003 C118.7345,81.1153 118.4425,80.9693 118.0845,80.8633 C117.7255,80.7573 117.2875,80.7033 116.7705,80.7033 C115.8535,80.7033 115.1135,80.9293 114.5495,81.3803 C113.9855,81.8313 113.6765,82.5153 113.6235,83.4323 L112.8665,83.4323 C112.9195,82.3033 113.2815,81.4573 113.9515,80.8923 C114.6225,80.3283 115.5745,80.0463 116.8095,80.0463 C118.0445,80.0463 118.9435,80.2883 119.5075,80.7733 C120.0715,81.2583 120.3545,81.8923 120.3545,82.6753 L120.3545,88.6293 C120.3545,88.7753 120.3575,88.9213 120.3645,89.0673 C120.3705,89.2133 120.3935,89.3463 120.4335,89.4663 C120.4735,89.5843 120.5395,89.6813 120.6325,89.7543 C120.7255,89.8273 120.8585,89.8633 121.0315,89.8633 C121.1635,89.8633 121.3495,89.8443 121.5895,89.8043 L121.5895,90.4413 C121.3895,90.4943 121.1835,90.5213 120.9715,90.5213 C120.6665,90.5213 120.4245,90.4813 120.2445,90.4013 C120.0655,90.3223 119.9295,90.2163 119.8365,90.0823 C119.7435,89.9503 119.6805,89.7943 119.6475,89.6153 C119.6145,89.4353 119.5975,89.2403 119.5975,89.0273 L119.5975,88.4893 Z" id="Fill-22" fill="#1D2326" mask="url(#mask-2)"></path>
                    <path d="M126.1295,80.9423 L123.8995,80.9423 L123.8995,88.0913 C123.8995,88.5033 123.9455,88.8283 124.0385,89.0673 C124.1315,89.3063 124.2735,89.4893 124.4665,89.6153 C124.6595,89.7413 124.8915,89.8173 125.1635,89.8443 C125.4355,89.8703 125.7515,89.8773 126.1095,89.8633 L126.1095,90.5213 C125.7245,90.5473 125.3495,90.5443 124.9845,90.5113 C124.6195,90.4783 124.2975,90.3783 124.0185,90.2123 C123.7395,90.0463 123.5175,89.7973 123.3515,89.4663 C123.1855,89.1333 123.1155,88.6763 123.1425,88.0913 L123.1425,80.9423 L121.2505,80.9423 L121.2505,80.2853 L123.1425,80.2853 L123.1425,77.0993 L123.8995,77.0993 L123.8995,80.2853 L126.1295,80.2853 L126.1295,80.9423 Z" id="Fill-23" fill="#1D2326" mask="url(#mask-2)"></path>
                    <path d="M134.9302,84.8456 C134.9032,84.2886 134.8102,83.7606 134.6512,83.2626 C134.4912,82.7646 134.2542,82.3266 133.9422,81.9486 C133.6292,81.5696 133.2502,81.2676 132.8042,81.0426 C132.3572,80.8166 131.8482,80.7036 131.2772,80.7036 C130.6642,80.7036 130.1252,80.8196 129.6592,81.0526 C129.1932,81.2846 128.8002,81.5896 128.4812,81.9676 C128.1612,82.3456 127.9152,82.7886 127.7422,83.2916 C127.5702,83.7976 127.4632,84.3146 127.4232,84.8456 L134.9302,84.8456 Z M127.4032,85.5036 L127.4032,85.6216 C127.4032,86.2196 127.4822,86.7906 127.6432,87.3346 C127.8022,87.8786 128.0382,88.3576 128.3512,88.7686 C128.6642,89.1806 129.0572,89.5046 129.5292,89.7446 C130.0012,89.9836 130.5512,90.1026 131.1772,90.1026 C132.2012,90.1026 133.0132,89.8336 133.6132,89.2966 C134.2122,88.7586 134.6242,88.0116 134.8512,87.0556 L135.6072,87.0556 C135.3822,88.2516 134.8932,89.1666 134.1432,89.8036 C133.3932,90.4406 132.4012,90.7596 131.1662,90.7596 C130.4102,90.7596 129.7492,90.6236 129.1852,90.3516 C128.6212,90.0796 128.1502,89.7076 127.7712,89.2356 C127.3932,88.7656 127.1112,88.2086 126.9252,87.5636 C126.7392,86.9196 126.6462,86.2266 126.6462,85.4826 C126.6462,84.7656 126.7422,84.0786 126.9352,83.4216 C127.1272,82.7646 127.4162,82.1876 127.8012,81.6896 C128.1862,81.1916 128.6672,80.7936 129.2452,80.4946 C129.8222,80.1966 130.5032,80.0466 131.2862,80.0466 C132.0032,80.0466 132.6362,80.1796 133.1882,80.4446 C133.7392,80.7106 134.2002,81.0716 134.5722,81.5296 C134.9432,81.9886 135.2252,82.5196 135.4182,83.1236 C135.6102,83.7276 135.7072,84.3746 135.7072,85.0646 C135.7072,85.1306 135.7032,85.2066 135.6972,85.2936 C135.6902,85.3806 135.6872,85.4496 135.6872,85.5036 L127.4032,85.5036 Z" id="Fill-24" fill="#1D2326" mask="url(#mask-2)"></path>
                    <path d="M137.4195,87.1153 C137.4465,87.5933 137.5525,88.0153 137.7385,88.3793 C137.9245,88.7453 138.1665,89.0563 138.4655,89.3163 C138.7635,89.5753 139.1125,89.7703 139.5105,89.9033 C139.9085,90.0363 140.3395,90.1033 140.8055,90.1033 C141.1365,90.1033 141.4915,90.0723 141.8705,90.0133 C142.2485,89.9533 142.6005,89.8443 142.9255,89.6843 C143.2515,89.5253 143.5195,89.3033 143.7325,89.0173 C143.9445,88.7323 144.0505,88.3703 144.0505,87.9323 C144.0505,87.3613 143.8775,86.9303 143.5335,86.6383 C143.1875,86.3453 142.7525,86.1193 142.2285,85.9613 C141.7045,85.8013 141.1405,85.6713 140.5365,85.5723 C139.9315,85.4733 139.3675,85.3243 138.8435,85.1243 C138.3195,84.9253 137.8845,84.6433 137.5395,84.2773 C137.1935,83.9133 137.0215,83.3783 137.0215,82.6753 C137.0215,82.1703 137.1345,81.7493 137.3605,81.4113 C137.5855,81.0723 137.8745,80.8033 138.2265,80.6043 C138.5775,80.4043 138.9725,80.2623 139.4115,80.1753 C139.8485,80.0903 140.2875,80.0463 140.7255,80.0463 C141.2565,80.0463 141.7535,80.1063 142.2185,80.2253 C142.6835,80.3453 143.0845,80.5383 143.4235,80.8033 C143.7625,81.0693 144.0275,81.4073 144.2195,81.8193 C144.4125,82.2303 144.5085,82.7283 144.5085,83.3123 L143.7525,83.3123 C143.7525,82.8473 143.6755,82.4493 143.5235,82.1173 C143.3705,81.7863 143.1585,81.5173 142.8855,81.3103 C142.6135,81.1053 142.2915,80.9533 141.9195,80.8523 C141.5485,80.7533 141.1495,80.7033 140.7255,80.7033 C140.3795,80.7033 140.0315,80.7363 139.6795,80.8033 C139.3275,80.8703 139.0125,80.9823 138.7345,81.1423 C138.4545,81.3003 138.2265,81.5073 138.0465,81.7583 C137.8675,82.0113 137.7775,82.3163 137.7775,82.6753 C137.7775,83.0863 137.8775,83.4183 138.0775,83.6713 C138.2755,83.9233 138.5375,84.1253 138.8635,84.2773 C139.1885,84.4303 139.5535,84.5533 139.9585,84.6473 C140.3635,84.7393 140.7715,84.8333 141.1835,84.9253 C141.6875,85.0183 142.1625,85.1283 142.6075,85.2533 C143.0515,85.3803 143.4365,85.5533 143.7625,85.7723 C144.0875,85.9903 144.3425,86.2723 144.5285,86.6173 C144.7145,86.9633 144.8075,87.4013 144.8075,87.9323 C144.8075,88.4893 144.6815,88.9473 144.4295,89.3063 C144.1765,89.6643 143.8585,89.9533 143.4735,90.1723 C143.0875,90.3913 142.6595,90.5443 142.1885,90.6303 C141.7175,90.7163 141.2565,90.7593 140.8055,90.7593 C140.2205,90.7593 139.6795,90.6833 139.1825,90.5303 C138.6845,90.3783 138.2495,90.1463 137.8775,89.8343 C137.5055,89.5223 137.2135,89.1403 137.0015,88.6883 C136.7895,88.2373 136.6765,87.7133 136.6635,87.1153 L137.4195,87.1153 Z" id="Fill-25" fill="#1D2326" mask="url(#mask-2)"></path>
                    <polygon id="Fill-26" fill="#1D2326" mask="url(#mask-2)" points="152.7128 76.3025 162.2708 76.3025 162.2708 77.0595 153.5888 77.0595 153.5888 82.7555 161.7528 82.7555 161.7528 83.5115 153.5888 83.5115 153.5888 89.7635 162.3708 89.7635 162.3708 90.5205 152.7128 90.5205"></polygon>
                    <polygon id="Fill-27" fill="#1D2326" mask="url(#mask-2)" points="166.9101 85.1447 163.1671 80.2857 164.2221 80.2857 167.4281 84.5667 170.6551 80.2857 171.6301 80.2857 167.9261 85.1447 171.9691 90.5207 170.9331 90.5207 167.4281 85.7217 163.8441 90.5207 162.8881 90.5207"></polygon>
                    <path d="M176.7274,80.9423 L174.4974,80.9423 L174.4974,88.0913 C174.4974,88.5033 174.5434,88.8283 174.6374,89.0673 C174.7294,89.3063 174.8724,89.4893 175.0644,89.6153 C175.2574,89.7413 175.4894,89.8173 175.7624,89.8443 C176.0334,89.8703 176.3494,89.8773 176.7084,89.8633 L176.7084,90.5213 C176.3224,90.5473 175.9484,90.5443 175.5824,90.5113 C175.2174,90.4783 174.8964,90.3783 174.6164,90.2123 C174.3374,90.0463 174.1154,89.7973 173.9504,89.4663 C173.7834,89.1333 173.7144,88.6763 173.7404,88.0913 L173.7404,80.9423 L171.8494,80.9423 L171.8494,80.2853 L173.7404,80.2853 L173.7404,77.0993 L174.4974,77.0993 L174.4974,80.2853 L176.7274,80.2853 L176.7274,80.9423 Z" id="Fill-28" fill="#1D2326" mask="url(#mask-2)"></path>
                    <path d="M178.8782,82.5554 L178.9372,82.5554 C179.0302,82.2244 179.1992,81.9114 179.4452,81.6194 C179.6902,81.3284 179.9892,81.0754 180.3412,80.8634 C180.6932,80.6514 181.0842,80.4884 181.5162,80.3754 C181.9472,80.2624 182.3962,80.2124 182.8602,80.2254 L182.8602,80.9824 C182.4622,80.9294 182.0072,80.9694 181.4962,81.1024 C180.9852,81.2344 180.4972,81.5264 180.0322,81.9774 C179.8462,82.1774 179.6842,82.3694 179.5442,82.5554 C179.4052,82.7414 179.2892,82.9474 179.1972,83.1734 C179.1032,83.3994 179.0302,83.6504 178.9772,83.9294 C178.9242,84.2084 178.8912,84.5404 178.8782,84.9254 L178.8782,90.5204 L178.1212,90.5204 L178.1212,80.2854 L178.8782,80.2854 L178.8782,82.5554 Z" id="Fill-29" fill="#1D2326" mask="url(#mask-2)"></path>
                    <path d="M189.652,84.7063 C189.466,84.9323 189.183,85.0843 188.805,85.1643 C188.427,85.2443 188.006,85.3033 187.541,85.3433 L186.266,85.4633 C185.895,85.5033 185.523,85.5593 185.152,85.6313 C184.779,85.7043 184.444,85.8283 184.145,86.0013 C183.847,86.1733 183.605,86.4093 183.419,86.7073 C183.233,87.0063 183.14,87.3953 183.14,87.8723 C183.14,88.6293 183.379,89.1903 183.857,89.5553 C184.334,89.9203 184.992,90.1033 185.829,90.1033 C186.691,90.1033 187.374,89.9473 187.879,89.6343 C188.384,89.3223 188.768,88.9643 189.034,88.5593 C189.299,88.1543 189.469,87.7633 189.542,87.3843 C189.615,87.0063 189.652,86.7513 189.652,86.6173 L189.652,84.7063 Z M189.652,88.4893 L189.612,88.4893 C189.492,88.7953 189.32,89.0843 189.094,89.3553 C188.868,89.6283 188.593,89.8703 188.268,90.0823 C187.942,90.2953 187.574,90.4613 187.162,90.5803 C186.751,90.7003 186.299,90.7593 185.808,90.7593 C184.72,90.7593 183.876,90.5233 183.279,90.0533 C182.682,89.5813 182.383,88.8553 182.383,87.8723 C182.383,87.2753 182.503,86.7873 182.742,86.4093 C182.98,86.0303 183.282,85.7323 183.647,85.5133 C184.013,85.2933 184.417,85.1383 184.862,85.0443 C185.307,84.9513 185.735,84.8853 186.147,84.8453 L187.322,84.7463 C187.865,84.7063 188.294,84.6433 188.606,84.5573 C188.918,84.4703 189.154,84.3503 189.313,84.1983 C189.473,84.0463 189.572,83.8503 189.612,83.6113 C189.652,83.3713 189.671,83.0733 189.671,82.7153 C189.671,82.4353 189.618,82.1773 189.512,81.9383 C189.406,81.6993 189.24,81.4873 189.014,81.3003 C188.789,81.1153 188.497,80.9693 188.138,80.8633 C187.78,80.7573 187.341,80.7033 186.824,80.7033 C185.907,80.7033 185.168,80.9293 184.603,81.3803 C184.039,81.8313 183.73,82.5153 183.678,83.4323 L182.921,83.4323 C182.973,82.3033 183.336,81.4573 184.006,80.8923 C184.676,80.3283 185.629,80.0463 186.864,80.0463 C188.098,80.0463 188.997,80.2883 189.562,80.7733 C190.126,81.2583 190.408,81.8923 190.408,82.6753 L190.408,88.6293 C190.408,88.7753 190.412,88.9213 190.419,89.0673 C190.424,89.2133 190.448,89.3463 190.488,89.4663 C190.528,89.5843 190.594,89.6813 190.687,89.7543 C190.78,89.8273 190.913,89.8633 191.085,89.8633 C191.217,89.8633 191.403,89.8443 191.643,89.8043 L191.643,90.4413 C191.443,90.4943 191.238,90.5213 191.026,90.5213 C190.72,90.5213 190.478,90.4813 190.299,90.4013 C190.12,90.3223 189.983,90.2163 189.891,90.0823 C189.797,89.9503 189.735,89.7943 189.702,89.6153 C189.668,89.4353 189.652,89.2403 189.652,89.0273 L189.652,88.4893 Z" id="Fill-30" fill="#1D2326" mask="url(#mask-2)"></path>
                    <path d="M200.5242,83.4516 C200.4842,83.0006 200.3682,82.6026 200.1752,82.2566 C199.9822,81.9116 199.7342,81.6256 199.4292,81.3996 C199.1232,81.1746 198.7682,81.0026 198.3632,80.8826 C197.9582,80.7626 197.5242,80.7036 197.0592,80.7036 C196.4222,80.7036 195.8572,80.8336 195.3662,81.0926 C194.8752,81.3506 194.4632,81.6966 194.1322,82.1276 C193.8002,82.5596 193.5472,83.0506 193.3752,83.6006 C193.2022,84.1516 193.1162,84.7196 193.1162,85.3036 C193.1162,85.9936 193.1962,86.6316 193.3552,87.2156 C193.5142,87.7996 193.7602,88.3076 194.0922,88.7386 C194.4242,89.1696 194.8352,89.5046 195.3262,89.7446 C195.8182,89.9826 196.3952,90.1026 197.0592,90.1026 C197.5372,90.1026 197.9782,90.0226 198.3832,89.8636 C198.7882,89.7046 199.1472,89.4856 199.4582,89.2066 C199.7702,88.9286 200.0262,88.5926 200.2252,88.2006 C200.4252,87.8096 200.5572,87.3816 200.6232,86.9166 L201.3802,86.9166 C201.3002,87.5276 201.1352,88.0716 200.8822,88.5496 C200.6302,89.0276 200.3122,89.4286 199.9272,89.7546 C199.5412,90.0796 199.1032,90.3286 198.6122,90.5016 C198.1212,90.6736 197.6042,90.7596 197.0592,90.7596 C196.2222,90.7596 195.5092,90.6106 194.9182,90.3116 C194.3282,90.0136 193.8432,89.6116 193.4652,89.1076 C193.0872,88.6026 192.8082,88.0226 192.6292,87.3646 C192.4492,86.7076 192.3602,86.0206 192.3602,85.3036 C192.3602,84.5866 192.4622,83.9096 192.6682,83.2726 C192.8742,82.6356 193.1762,82.0776 193.5752,81.5996 C193.9722,81.1216 194.4632,80.7436 195.0472,80.4646 C195.6322,80.1856 196.3022,80.0456 197.0592,80.0456 C197.6162,80.0456 198.1372,80.1166 198.6232,80.2556 C199.1072,80.3946 199.5382,80.6046 199.9162,80.8826 C200.2952,81.1616 200.6042,81.5166 200.8432,81.9486 C201.0812,82.3796 201.2272,82.8806 201.2812,83.4516 L200.5242,83.4516 Z" id="Fill-31" fill="#1D2326" mask="url(#mask-2)"></path>
                    <path d="M206.517,80.9423 L204.287,80.9423 L204.287,88.0913 C204.287,88.5033 204.333,88.8283 204.427,89.0673 C204.519,89.3063 204.662,89.4893 204.854,89.6153 C205.047,89.7413 205.279,89.8173 205.552,89.8443 C205.823,89.8703 206.139,89.8773 206.498,89.8633 L206.498,90.5213 C206.112,90.5473 205.738,90.5443 205.372,90.5113 C205.007,90.4783 204.686,90.3783 204.406,90.2123 C204.127,90.0463 203.905,89.7973 203.74,89.4663 C203.573,89.1333 203.504,88.6763 203.53,88.0913 L203.53,80.9423 L201.639,80.9423 L201.639,80.2853 L203.53,80.2853 L203.53,77.0993 L204.287,77.0993 L204.287,80.2853 L206.517,80.2853 L206.517,80.9423 Z" id="Fill-32" fill="#1D2326" mask="url(#mask-2)"></path>
                    <path d="M208.09,90.521 L208.847,90.521 L208.847,80.286 L208.09,80.286 L208.09,90.521 Z M208.09,78.354 L208.847,78.354 L208.847,76.303 L208.09,76.303 L208.09,78.354 Z" id="Fill-33" fill="#1D2326" mask="url(#mask-2)"></path>
                    <polygon id="Fill-34" fill="#1D2326" mask="url(#mask-2)" points="214.761 90.5208 213.826 90.5208 209.703 80.2858 210.58 80.2858 214.284 89.6448 214.324 89.6448 217.789 80.2858 218.624 80.2858"></polygon>
                    <path d="M227.107,84.8456 C227.081,84.2886 226.987,83.7606 226.827,83.2626 C226.668,82.7646 226.432,82.3266 226.119,81.9486 C225.806,81.5696 225.427,81.2676 224.98,81.0426 C224.534,80.8166 224.026,80.7036 223.453,80.7036 C222.841,80.7036 222.302,80.8196 221.836,81.0526 C221.37,81.2846 220.977,81.5896 220.658,81.9676 C220.339,82.3456 220.092,82.7886 219.919,83.2916 C219.747,83.7976 219.639,84.3146 219.599,84.8456 L227.107,84.8456 Z M219.58,85.5036 L219.58,85.6216 C219.58,86.2196 219.66,86.7906 219.82,87.3346 C219.979,87.8786 220.215,88.3576 220.529,88.7686 C220.841,89.1806 221.234,89.5046 221.706,89.7446 C222.179,89.9836 222.727,90.1026 223.354,90.1026 C224.378,90.1026 225.191,89.8336 225.789,89.2966 C226.388,88.7586 226.801,88.0116 227.027,87.0556 L227.784,87.0556 C227.558,88.2516 227.07,89.1666 226.321,89.8036 C225.571,90.4406 224.578,90.7596 223.344,90.7596 C222.587,90.7596 221.927,90.6236 221.363,90.3516 C220.798,90.0796 220.327,89.7076 219.948,89.2356 C219.57,88.7656 219.288,88.2086 219.102,87.5636 C218.916,86.9196 218.823,86.2266 218.823,85.4826 C218.823,84.7656 218.919,84.0786 219.112,83.4216 C219.304,82.7646 219.593,82.1876 219.978,81.6896 C220.363,81.1916 220.844,80.7936 221.422,80.4946 C222,80.1966 222.68,80.0466 223.463,80.0466 C224.18,80.0466 224.814,80.1796 225.364,80.4446 C225.916,80.7106 226.376,81.0716 226.749,81.5296 C227.121,81.9886 227.402,82.5196 227.595,83.1236 C227.787,83.7276 227.883,84.3746 227.883,85.0646 C227.883,85.1306 227.88,85.2066 227.874,85.2936 C227.867,85.3806 227.864,85.4496 227.864,85.5036 L219.58,85.5036 Z" id="Fill-35" fill="#1D2326" mask="url(#mask-2)"></path>
                    <polygon id="Fill-36" fill="#1D2326" mask="url(#mask-2)" points="235.311 90.521 236.187 90.521 236.187 76.303 235.311 76.303"></polygon>
                    <path d="M238.1595,80.2857 L238.9165,80.2857 L238.9165,82.4757 L238.9555,82.4757 C239.0885,82.0907 239.2775,81.7487 239.5235,81.4507 C239.7685,81.1517 240.0545,80.8967 240.3795,80.6837 C240.7045,80.4717 241.0595,80.3117 241.4455,80.2057 C241.8295,80.0997 242.2215,80.0457 242.6195,80.0457 C243.2175,80.0457 243.7245,80.1187 244.1435,80.2657 C244.5615,80.4117 244.9035,80.6047 245.1685,80.8427 C245.4345,81.0817 245.6435,81.3507 245.7955,81.6497 C245.9485,81.9487 246.0575,82.2507 246.1245,82.5557 C246.1915,82.8617 246.2315,83.1567 246.2435,83.4417 C246.2575,83.7277 246.2645,83.9767 246.2645,84.1877 L246.2645,90.5207 L245.5075,90.5207 L245.5075,84.0487 C245.5075,83.7977 245.4865,83.4777 245.4475,83.0927 C245.4075,82.7087 245.2915,82.3397 245.0995,81.9887 C244.9065,81.6367 244.6145,81.3337 244.2225,81.0817 C243.8305,80.8307 243.2905,80.7037 242.5995,80.7037 C242.0165,80.7037 241.4975,80.8097 241.0465,81.0217 C240.5945,81.2347 240.2105,81.5297 239.8915,81.9087 C239.5725,82.2867 239.3305,82.7387 239.1645,83.2627 C238.9995,83.7867 238.9165,84.3617 238.9165,84.9847 L238.9165,90.5207 L238.1595,90.5207 L238.1595,80.2857 Z" id="Fill-37" fill="#1D2326" mask="url(#mask-2)"></path>
                    <path d="M252.5959,90.1029 C253.2459,90.1029 253.8069,89.9709 254.2779,89.7049 C254.7499,89.4389 255.1409,89.0869 255.4529,88.6489 C255.7649,88.2109 255.9979,87.7099 256.1509,87.1459 C256.3029,86.5819 256.3799,86.0079 256.3799,85.4229 C256.3799,84.8259 256.3029,84.2459 256.1509,83.6809 C255.9979,83.1169 255.7689,82.6119 255.4639,82.1669 C255.1579,81.7229 254.7629,81.3679 254.2779,81.1019 C253.7939,80.8359 253.2259,80.7039 252.5759,80.7039 C251.8989,80.7039 251.3219,80.8329 250.8439,81.0919 C250.3649,81.3509 249.9709,81.6989 249.6589,82.1379 C249.3459,82.5759 249.1209,83.0809 248.9819,83.6499 C248.8429,84.2219 248.7729,84.8129 248.7729,85.4229 C248.7729,86.0199 248.8489,86.6009 249.0009,87.1649 C249.1539,87.7299 249.3859,88.2309 249.6989,88.6689 C250.0109,89.1069 250.4049,89.4549 250.8829,89.7139 C251.3609,89.9729 251.9319,90.1029 252.5959,90.1029 L252.5959,90.1029 Z M256.3989,88.3299 L256.3589,88.3299 C255.9339,89.1409 255.4029,89.7469 254.7659,90.1529 C254.1289,90.5569 253.3529,90.7599 252.4359,90.7599 C251.6669,90.7599 251.0019,90.6129 250.4449,90.3219 C249.8879,90.0299 249.4299,89.6379 249.0719,89.1459 C248.7129,88.6549 248.4469,88.0889 248.2749,87.4449 C248.1019,86.8009 248.0159,86.1269 248.0159,85.4229 C248.0159,84.6659 248.1079,83.9589 248.2939,83.3029 C248.4799,82.6449 248.7629,82.0779 249.1409,81.5999 C249.5199,81.1219 249.9939,80.7439 250.5649,80.4649 C251.1359,80.1849 251.8059,80.0459 252.5759,80.0459 C252.9879,80.0459 253.3929,80.1039 253.7899,80.2159 C254.1889,80.3289 254.5569,80.4909 254.8959,80.7039 C255.2339,80.9159 255.5299,81.1819 255.7819,81.5009 C256.0339,81.8189 256.2269,82.1779 256.3589,82.5759 L256.3989,82.5759 L256.3989,76.3029 L257.1559,76.3029 L257.1559,90.5209 L256.3989,90.5209 L256.3989,88.3299 Z" id="Fill-38" fill="#1D2326" mask="url(#mask-2)"></path>
                    <path d="M267.2721,90.5208 L266.5151,90.5208 L266.5151,88.3298 L266.4751,88.3298 C266.3431,88.7158 266.1531,89.0568 265.9071,89.3558 C265.6621,89.6548 265.3761,89.9098 265.0511,90.1228 C264.7261,90.3348 264.3711,90.4948 263.9861,90.6008 C263.6011,90.7068 263.2101,90.7598 262.8111,90.7598 C262.2131,90.7598 261.7061,90.6868 261.2881,90.5398 C260.8701,90.3948 260.5281,90.2018 260.2621,89.9638 C259.9961,89.7238 259.7881,89.4548 259.6351,89.1568 C259.4821,88.8578 259.3731,88.5558 259.3071,88.2508 C259.2401,87.9448 259.2001,87.6498 259.1871,87.3648 C259.1731,87.0788 259.1671,86.8298 259.1671,86.6178 L259.1671,80.2858 L259.9241,80.2858 L259.9241,86.7568 C259.9241,87.0228 259.9441,87.3438 259.9841,87.7228 C260.0241,88.1008 260.1391,88.4668 260.3321,88.8178 C260.5241,89.1698 260.8131,89.4728 261.1981,89.7238 C261.5831,89.9758 262.1281,90.1028 262.8311,90.1028 C263.4021,90.1028 263.9161,89.9968 264.3741,89.7848 C264.8331,89.5718 265.2201,89.2758 265.5391,88.8978 C265.8581,88.5198 266.1001,88.0678 266.2661,87.5438 C266.4321,87.0198 266.5151,86.4448 266.5151,85.8218 L266.5151,80.2858 L267.2721,80.2858 L267.2721,90.5208 Z" id="Fill-39" fill="#1D2326" mask="url(#mask-2)"></path>
                    <path d="M269.4629,87.1153 C269.4889,87.5933 269.5949,88.0153 269.7819,88.3793 C269.9669,88.7453 270.2089,89.0563 270.5079,89.3163 C270.8069,89.5753 271.1549,89.7703 271.5529,89.9033 C271.9519,90.0363 272.3829,90.1033 272.8479,90.1033 C273.1789,90.1033 273.5349,90.0723 273.9139,90.0133 C274.2919,89.9533 274.6429,89.8443 274.9689,89.6843 C275.2939,89.5253 275.5629,89.3033 275.7749,89.0173 C275.9879,88.7323 276.0939,88.3703 276.0939,87.9323 C276.0939,87.3613 275.9209,86.9303 275.5759,86.6383 C275.2309,86.3453 274.7959,86.1193 274.2719,85.9613 C273.7469,85.8013 273.1829,85.6713 272.5789,85.5723 C271.9749,85.4733 271.4109,85.3243 270.8859,85.1243 C270.3619,84.9253 269.9279,84.6433 269.5819,84.2773 C269.2369,83.9133 269.0649,83.3783 269.0649,82.6753 C269.0649,82.1703 269.1779,81.7493 269.4029,81.4113 C269.6289,81.0723 269.9169,80.8033 270.2699,80.6043 C270.6209,80.4043 271.0159,80.2623 271.4539,80.1753 C271.8919,80.0903 272.3299,80.0463 272.7679,80.0463 C273.2989,80.0463 273.7969,80.1063 274.2619,80.2253 C274.7259,80.3453 275.1279,80.5383 275.4669,80.8033 C275.8059,81.0693 276.0699,81.4073 276.2629,81.8193 C276.4549,82.2303 276.5519,82.7283 276.5519,83.3123 L275.7949,83.3123 C275.7949,82.8473 275.7189,82.4493 275.5659,82.1173 C275.4129,81.7863 275.2009,81.5173 274.9289,81.3103 C274.6569,81.1053 274.3349,80.9533 273.9629,80.8523 C273.5909,80.7533 273.1929,80.7033 272.7679,80.7033 C272.4229,80.7033 272.0749,80.7363 271.7229,80.8033 C271.3709,80.8703 271.0559,80.9823 270.7769,81.1423 C270.4979,81.3003 270.2699,81.5073 270.0899,81.7583 C269.9109,82.0113 269.8209,82.3163 269.8209,82.6753 C269.8209,83.0863 269.9209,83.4183 270.1199,83.6713 C270.3189,83.9233 270.5809,84.1253 270.9069,84.2773 C271.2319,84.4303 271.5959,84.5533 272.0019,84.6473 C272.4069,84.7393 272.8149,84.8333 273.2259,84.9253 C273.7309,85.0183 274.2049,85.1283 274.6499,85.2533 C275.0939,85.3803 275.4789,85.5533 275.8059,85.7723 C276.1299,85.9903 276.3859,86.2723 276.5719,86.6173 C276.7569,86.9633 276.8509,87.4013 276.8509,87.9323 C276.8509,88.4893 276.7239,88.9473 276.4719,89.3063 C276.2199,89.6643 275.9009,89.9533 275.5159,90.1723 C275.1309,90.3913 274.7029,90.5443 274.2319,90.6303 C273.7609,90.7163 273.2989,90.7593 272.8479,90.7593 C272.2639,90.7593 271.7229,90.6833 271.2249,90.5303 C270.7269,90.3783 270.2919,90.1463 269.9209,89.8343 C269.5489,89.5223 269.2559,89.1403 269.0439,88.6883 C268.8319,88.2373 268.7189,87.7133 268.7059,87.1153 L269.4629,87.1153 Z" id="Fill-40" fill="#1D2326" mask="url(#mask-2)"></path>
                    <path d="M282.445,80.9423 L280.215,80.9423 L280.215,88.0913 C280.215,88.5033 280.261,88.8283 280.355,89.0673 C280.447,89.3063 280.59,89.4893 280.782,89.6153 C280.975,89.7413 281.207,89.8173 281.48,89.8443 C281.751,89.8703 282.067,89.8773 282.425,89.8633 L282.425,90.5213 C282.04,90.5473 281.666,90.5443 281.3,90.5113 C280.935,90.4783 280.614,90.3783 280.334,90.2123 C280.055,90.0463 279.833,89.7973 279.668,89.4663 C279.501,89.1333 279.432,88.6763 279.458,88.0913 L279.458,80.9423 L277.567,80.9423 L277.567,80.2853 L279.458,80.2853 L279.458,77.0993 L280.215,77.0993 L280.215,80.2853 L282.445,80.2853 L282.445,80.9423 Z" id="Fill-41" fill="#1D2326" mask="url(#mask-2)"></path>
                    <path d="M284.5959,82.5554 L284.6549,82.5554 C284.7479,82.2244 284.9169,81.9114 285.1629,81.6194 C285.4079,81.3284 285.7069,81.0754 286.0589,80.8634 C286.4109,80.6514 286.8019,80.4884 287.2339,80.3754 C287.6649,80.2624 288.1139,80.2124 288.5779,80.2254 L288.5779,80.9824 C288.1799,80.9294 287.7249,80.9694 287.2139,81.1024 C286.7029,81.2344 286.2149,81.5264 285.7499,81.9774 C285.5639,82.1774 285.4019,82.3694 285.2619,82.5554 C285.1229,82.7414 285.0069,82.9474 284.9149,83.1734 C284.8209,83.3994 284.7479,83.6504 284.6949,83.9294 C284.6419,84.2084 284.6089,84.5404 284.5959,84.9254 L284.5959,90.5204 L283.8389,90.5204 L283.8389,80.2854 L284.5959,80.2854 L284.5959,82.5554 Z" id="Fill-42" fill="#1D2326" mask="url(#mask-2)"></path>
                    <path d="M289.953,90.521 L290.71,90.521 L290.71,80.286 L289.953,80.286 L289.953,90.521 Z M289.953,78.354 L290.71,78.354 L290.71,76.303 L289.953,76.303 L289.953,78.354 Z" id="Fill-43" fill="#1D2326" mask="url(#mask-2)"></path>
                    <path d="M300.1283,84.8456 C300.1023,84.2886 300.0083,83.7606 299.8483,83.2626 C299.6893,82.7646 299.4533,82.3266 299.1403,81.9486 C298.8273,81.5696 298.4483,81.2676 298.0013,81.0426 C297.5553,80.8166 297.0473,80.7036 296.4743,80.7036 C295.8623,80.7036 295.3233,80.8196 294.8573,81.0526 C294.3913,81.2846 293.9983,81.5896 293.6793,81.9676 C293.3603,82.3456 293.1133,82.7886 292.9403,83.2916 C292.7683,83.7976 292.6603,84.3146 292.6203,84.8456 L300.1283,84.8456 Z M292.6013,85.5036 L292.6013,85.6216 C292.6013,86.2196 292.6813,86.7906 292.8413,87.3346 C293.0003,87.8786 293.2363,88.3576 293.5503,88.7686 C293.8623,89.1806 294.2553,89.5046 294.7273,89.7446 C295.2003,89.9836 295.7483,90.1026 296.3753,90.1026 C297.3993,90.1026 298.2123,89.8336 298.8103,89.2966 C299.4093,88.7586 299.8223,88.0116 300.0483,87.0556 L300.8053,87.0556 C300.5793,88.2516 300.0913,89.1666 299.3423,89.8036 C298.5923,90.4406 297.5993,90.7596 296.3653,90.7596 C295.6083,90.7596 294.9483,90.6236 294.3843,90.3516 C293.8193,90.0796 293.3483,89.7076 292.9693,89.2356 C292.5913,88.7656 292.3093,88.2086 292.1233,87.5636 C291.9373,86.9196 291.8443,86.2266 291.8443,85.4826 C291.8443,84.7656 291.9403,84.0786 292.1333,83.4216 C292.3253,82.7646 292.6143,82.1876 292.9993,81.6896 C293.3843,81.1916 293.8653,80.7936 294.4433,80.4946 C295.0213,80.1966 295.7013,80.0466 296.4843,80.0466 C297.2013,80.0466 297.8353,80.1796 298.3853,80.4446 C298.9373,80.7106 299.3973,81.0716 299.7703,81.5296 C300.1423,81.9886 300.4233,82.5196 300.6163,83.1236 C300.8083,83.7276 300.9043,84.3746 300.9043,85.0646 C300.9043,85.1306 300.9013,85.2066 300.8953,85.2936 C300.8883,85.3806 300.8853,85.4496 300.8853,85.5036 L292.6013,85.5036 Z" id="Fill-44" fill="#1D2326" mask="url(#mask-2)"></path>
                    <path d="M303.0156,87.1153 C303.0416,87.5933 303.1476,88.0153 303.3346,88.3793 C303.5196,88.7453 303.7616,89.0563 304.0606,89.3163 C304.3596,89.5753 304.7076,89.7703 305.1056,89.9033 C305.5046,90.0363 305.9356,90.1033 306.4006,90.1033 C306.7316,90.1033 307.0876,90.0723 307.4666,90.0133 C307.8446,89.9533 308.1956,89.8443 308.5216,89.6843 C308.8466,89.5253 309.1156,89.3033 309.3276,89.0173 C309.5406,88.7323 309.6466,88.3703 309.6466,87.9323 C309.6466,87.3613 309.4736,86.9303 309.1286,86.6383 C308.7836,86.3453 308.3486,86.1193 307.8246,85.9613 C307.2996,85.8013 306.7356,85.6713 306.1316,85.5723 C305.5276,85.4733 304.9636,85.3243 304.4386,85.1243 C303.9146,84.9253 303.4806,84.6433 303.1346,84.2773 C302.7896,83.9133 302.6176,83.3783 302.6176,82.6753 C302.6176,82.1703 302.7306,81.7493 302.9556,81.4113 C303.1816,81.0723 303.4696,80.8033 303.8226,80.6043 C304.1736,80.4043 304.5686,80.2623 305.0066,80.1753 C305.4446,80.0903 305.8826,80.0463 306.3206,80.0463 C306.8516,80.0463 307.3496,80.1063 307.8146,80.2253 C308.2786,80.3453 308.6806,80.5383 309.0196,80.8033 C309.3576,81.0693 309.6226,81.4073 309.8156,81.8193 C310.0076,82.2303 310.1046,82.7283 310.1046,83.3123 L309.3476,83.3123 C309.3476,82.8473 309.2716,82.4493 309.1186,82.1173 C308.9656,81.7863 308.7536,81.5173 308.4816,81.3103 C308.2096,81.1053 307.8876,80.9533 307.5156,80.8523 C307.1436,80.7533 306.7456,80.7033 306.3206,80.7033 C305.9756,80.7033 305.6276,80.7363 305.2756,80.8033 C304.9236,80.8703 304.6086,80.9823 304.3296,81.1423 C304.0506,81.3003 303.8226,81.5073 303.6426,81.7583 C303.4636,82.0113 303.3736,82.3163 303.3736,82.6753 C303.3736,83.0863 303.4736,83.4183 303.6726,83.6713 C303.8716,83.9233 304.1336,84.1253 304.4596,84.2773 C304.7846,84.4303 305.1486,84.5533 305.5546,84.6473 C305.9596,84.7393 306.3676,84.8333 306.7786,84.9253 C307.2836,85.0183 307.7576,85.1283 308.2026,85.2533 C308.6466,85.3803 309.0316,85.5533 309.3576,85.7723 C309.6826,85.9903 309.9386,86.2723 310.1246,86.6173 C310.3096,86.9633 310.4036,87.4013 310.4036,87.9323 C310.4036,88.4893 310.2766,88.9473 310.0246,89.3063 C309.7726,89.6643 309.4536,89.9533 309.0686,90.1723 C308.6836,90.3913 308.2556,90.5443 307.7846,90.6303 C307.3136,90.7163 306.8516,90.7593 306.4006,90.7593 C305.8166,90.7593 305.2756,90.6833 304.7776,90.5303 C304.2796,90.3783 303.8446,90.1463 303.4736,89.8343 C303.1016,89.5223 302.8086,89.1403 302.5966,88.6883 C302.3846,88.2373 302.2716,87.7133 302.2586,87.1153 L303.0156,87.1153 Z" id="Fill-45" fill="#1D2326" mask="url(#mask-2)"></path>
                    <polygon id="Fill-46" fill="#1D2326" mask="url(#mask-2)" points="0 98.8749 0 98.1179 10.892 98.1179 10.892 98.8749 5.874 98.8749 5.874 112.3359 4.998 112.3359 4.998 98.8749"></polygon>
                    <path d="M10.5736,104.3709 L10.6336,104.3709 C10.7256,104.0399 10.8956,103.7269 11.1406,103.4349 C11.3866,103.1439 11.6856,102.8909 12.0376,102.6789 C12.3886,102.4669 12.7806,102.3039 13.2116,102.1909 C13.6436,102.0779 14.0916,102.0279 14.5566,102.0409 L14.5566,102.7979 C14.1576,102.7449 13.7026,102.7849 13.1916,102.9179 C12.6816,103.0499 12.1926,103.3419 11.7286,103.7929 C11.5426,103.9929 11.3806,104.1849 11.2406,104.3709 C11.1016,104.5569 10.9856,104.7629 10.8926,104.9889 C10.7996,105.2149 10.7256,105.4659 10.6736,105.7449 C10.6196,106.0239 10.5866,106.3559 10.5736,106.7409 L10.5736,112.3359 L9.8176,112.3359 L9.8176,102.1009 L10.5736,102.1009 L10.5736,104.3709 Z" id="Fill-47" fill="#1D2326" mask="url(#mask-2)"></path>
                    <path d="M21.7449,106.5218 C21.5589,106.7478 21.2769,106.8998 20.8989,106.9798 C20.5209,107.0598 20.0989,107.1188 19.6339,107.1588 L18.3599,107.2788 C17.9879,107.3188 17.6159,107.3748 17.2449,107.4468 C16.8729,107.5198 16.5379,107.6438 16.2389,107.8168 C15.9399,107.9888 15.6979,108.2248 15.5119,108.5228 C15.3259,108.8218 15.2329,109.2108 15.2329,109.6878 C15.2329,110.4448 15.4729,111.0058 15.9499,111.3708 C16.4279,111.7358 17.0849,111.9188 17.9219,111.9188 C18.7849,111.9188 19.4679,111.7628 19.9729,111.4498 C20.4769,111.1378 20.8619,110.7798 21.1279,110.3748 C21.3929,109.9698 21.5619,109.5788 21.6349,109.1998 C21.7079,108.8218 21.7449,108.5668 21.7449,108.4328 L21.7449,106.5218 Z M21.7449,110.3048 L21.7049,110.3048 C21.5859,110.6108 21.4129,110.8998 21.1869,111.1708 C20.9619,111.4438 20.6859,111.6858 20.3609,111.8978 C20.0349,112.1108 19.6669,112.2768 19.2559,112.3958 C18.8439,112.5158 18.3929,112.5748 17.9019,112.5748 C16.8129,112.5748 15.9699,112.3388 15.3729,111.8688 C14.7759,111.3968 14.4769,110.6708 14.4769,109.6878 C14.4769,109.0908 14.5959,108.6028 14.8349,108.2248 C15.0739,107.8458 15.3759,107.5478 15.7409,107.3288 C16.1059,107.1088 16.5109,106.9538 16.9559,106.8598 C17.3999,106.7668 17.8289,106.7008 18.2399,106.6608 L19.4149,106.5618 C19.9589,106.5218 20.3879,106.4588 20.6999,106.3728 C21.0109,106.2858 21.2469,106.1658 21.4059,106.0138 C21.5659,105.8618 21.6659,105.6658 21.7049,105.4268 C21.7449,105.1868 21.7649,104.8888 21.7649,104.5308 C21.7649,104.2508 21.7119,103.9928 21.6059,103.7538 C21.4989,103.5148 21.3329,103.3028 21.1079,103.1158 C20.8819,102.9308 20.5899,102.7848 20.2319,102.6788 C19.8729,102.5728 19.4349,102.5188 18.9179,102.5188 C18.0009,102.5188 17.2609,102.7448 16.6969,103.1958 C16.1329,103.6468 15.8239,104.3308 15.7709,105.2478 L15.0139,105.2478 C15.0669,104.1188 15.4289,103.2728 16.0989,102.7078 C16.7699,102.1438 17.7219,101.8618 18.9569,101.8618 C20.1919,101.8618 21.0909,102.1038 21.6549,102.5888 C22.2189,103.0738 22.5019,103.7078 22.5019,104.4908 L22.5019,110.4448 C22.5019,110.5908 22.5049,110.7368 22.5119,110.8828 C22.5179,111.0288 22.5409,111.1618 22.5809,111.2818 C22.6209,111.3998 22.6869,111.4968 22.7799,111.5698 C22.8729,111.6428 23.0059,111.6788 23.1789,111.6788 C23.3109,111.6788 23.4969,111.6598 23.7369,111.6198 L23.7369,112.2568 C23.5369,112.3098 23.3309,112.3368 23.1189,112.3368 C22.8139,112.3368 22.5719,112.2968 22.3919,112.2168 C22.2129,112.1378 22.0769,112.0318 21.9839,111.8978 C21.8909,111.7658 21.8279,111.6098 21.7949,111.4308 C21.7619,111.2508 21.7449,111.0558 21.7449,110.8428 L21.7449,110.3048 Z" id="Fill-48" fill="#1D2326" mask="url(#mask-2)"></path>
                    <path d="M24.9117,102.1012 L25.6677,102.1012 L25.6677,104.2912 L25.7077,104.2912 C25.8407,103.9062 26.0297,103.5642 26.2757,103.2662 C26.5207,102.9672 26.8067,102.7122 27.1317,102.4992 C27.4567,102.2872 27.8117,102.1272 28.1967,102.0212 C28.5817,101.9152 28.9737,101.8612 29.3727,101.8612 C29.9697,101.8612 30.4777,101.9342 30.8957,102.0812 C31.3137,102.2272 31.6547,102.4202 31.9207,102.6582 C32.1867,102.8972 32.3957,103.1662 32.5487,103.4652 C32.7007,103.7642 32.8107,104.0662 32.8767,104.3712 C32.9427,104.6772 32.9827,104.9722 32.9967,105.2572 C33.0087,105.5432 33.0157,105.7922 33.0157,106.0032 L33.0157,112.3362 L32.2597,112.3362 L32.2597,105.8642 C32.2597,105.6132 32.2397,105.2932 32.1997,104.9082 C32.1597,104.5242 32.0437,104.1552 31.8517,103.8042 C31.6587,103.4522 31.3667,103.1492 30.9747,102.8972 C30.5837,102.6462 30.0427,102.5192 29.3527,102.5192 C28.7677,102.5192 28.2497,102.6252 27.7987,102.8372 C27.3477,103.0502 26.9627,103.3452 26.6437,103.7242 C26.3247,104.1022 26.0827,104.5542 25.9167,105.0782 C25.7507,105.6022 25.6677,106.1772 25.6677,106.8002 L25.6677,112.3362 L24.9117,112.3362 L24.9117,102.1012 Z" id="Fill-49" fill="#1D2326" mask="url(#mask-2)"></path>
                    <path d="M35.2063,108.9308 C35.2333,109.4088 35.3393,109.8308 35.5253,110.1948 C35.7113,110.5608 35.9533,110.8718 36.2523,111.1318 C36.5503,111.3908 36.8993,111.5858 37.2973,111.7188 C37.6953,111.8518 38.1263,111.9188 38.5923,111.9188 C38.9233,111.9188 39.2783,111.8878 39.6573,111.8288 C40.0353,111.7688 40.3873,111.6598 40.7123,111.4998 C41.0383,111.3408 41.3063,111.1188 41.5193,110.8328 C41.7313,110.5478 41.8373,110.1858 41.8373,109.7478 C41.8373,109.1768 41.6643,108.7458 41.3203,108.4538 C40.9743,108.1608 40.5393,107.9348 40.0153,107.7768 C39.4913,107.6168 38.9273,107.4868 38.3233,107.3878 C37.7183,107.2888 37.1543,107.1398 36.6303,106.9398 C36.1063,106.7408 35.6713,106.4588 35.3263,106.0928 C34.9803,105.7288 34.8083,105.1938 34.8083,104.4908 C34.8083,103.9858 34.9213,103.5648 35.1473,103.2268 C35.3723,102.8878 35.6613,102.6188 36.0133,102.4198 C36.3643,102.2198 36.7593,102.0778 37.1983,101.9908 C37.6353,101.9058 38.0743,101.8618 38.5123,101.8618 C39.0433,101.8618 39.5403,101.9218 40.0053,102.0408 C40.4703,102.1608 40.8713,102.3538 41.2103,102.6188 C41.5493,102.8848 41.8143,103.2228 42.0063,103.6348 C42.1993,104.0458 42.2953,104.5438 42.2953,105.1278 L41.5393,105.1278 C41.5393,104.6628 41.4623,104.2648 41.3103,103.9328 C41.1573,103.6018 40.9453,103.3328 40.6723,103.1258 C40.4003,102.9208 40.0783,102.7688 39.7063,102.6678 C39.3353,102.5688 38.9363,102.5188 38.5123,102.5188 C38.1663,102.5188 37.8183,102.5518 37.4663,102.6188 C37.1143,102.6858 36.7993,102.7978 36.5213,102.9578 C36.2413,103.1158 36.0133,103.3228 35.8333,103.5738 C35.6543,103.8268 35.5643,104.1318 35.5643,104.4908 C35.5643,104.9018 35.6643,105.2338 35.8643,105.4858 C36.0623,105.7388 36.3243,105.9408 36.6503,106.0928 C36.9753,106.2458 37.3403,106.3688 37.7453,106.4628 C38.1503,106.5548 38.5583,106.6488 38.9703,106.7408 C39.4743,106.8338 39.9493,106.9438 40.3943,107.0688 C40.8383,107.1958 41.2233,107.3688 41.5493,107.5878 C41.8743,107.8058 42.1293,108.0878 42.3153,108.4328 C42.5013,108.7788 42.5943,109.2168 42.5943,109.7478 C42.5943,110.3048 42.4683,110.7628 42.2163,111.1218 C41.9633,111.4798 41.6453,111.7688 41.2603,111.9878 C40.8743,112.2068 40.4463,112.3598 39.9753,112.4458 C39.5043,112.5318 39.0433,112.5748 38.5923,112.5748 C38.0073,112.5748 37.4663,112.4988 36.9693,112.3458 C36.4713,112.1938 36.0363,111.9618 35.6643,111.6498 C35.2923,111.3378 35.0003,110.9558 34.7883,110.5038 C34.5763,110.0528 34.4633,109.5288 34.4503,108.9308 L35.2063,108.9308 Z" id="Fill-50" fill="#1D2326" mask="url(#mask-2)"></path>
                    <path d="M48.7174,111.9184 C49.3824,111.9184 49.9584,111.7914 50.4444,111.5394 C50.9294,111.2884 51.3294,110.9494 51.6424,110.5244 C51.9544,110.0994 52.1874,109.6044 52.3414,109.0404 C52.4944,108.4764 52.5704,107.8754 52.5704,107.2384 C52.5704,106.6544 52.4974,106.0804 52.3504,105.5164 C52.2044,104.9514 51.9784,104.4474 51.6724,104.0024 C51.3654,103.5574 50.9704,103.2004 50.4844,102.9274 C49.9974,102.6554 49.4094,102.5194 48.7174,102.5194 C48.0384,102.5194 47.4594,102.6514 46.9804,102.9174 C46.5014,103.1834 46.1114,103.5354 45.8124,103.9724 C45.5124,104.4104 45.2964,104.9124 45.1634,105.4764 C45.0294,106.0404 44.9634,106.6284 44.9634,107.2384 C44.9634,107.8494 45.0234,108.4364 45.1434,109.0014 C45.2634,109.5654 45.4654,110.0624 45.7524,110.4944 C46.0384,110.9254 46.4244,111.2704 46.9104,111.5294 C47.3964,111.7884 47.9984,111.9184 48.7174,111.9184 L48.7174,111.9184 Z M44.9434,104.4504 L45.0034,104.4504 C45.0834,104.1984 45.2164,103.9194 45.4024,103.6144 C45.5874,103.3094 45.8334,103.0264 46.1384,102.7684 C46.4434,102.5094 46.8124,102.2934 47.2434,102.1204 C47.6754,101.9484 48.1694,101.8614 48.7274,101.8614 C49.5104,101.8614 50.1904,102.0084 50.7684,102.3004 C51.3464,102.5924 51.8234,102.9834 52.2024,103.4744 C52.5804,103.9664 52.8624,104.5374 53.0484,105.1874 C53.2344,105.8384 53.3274,106.5214 53.3274,107.2384 C53.3274,108.0224 53.2344,108.7384 53.0474,109.3894 C52.8614,110.0394 52.5784,110.6004 52.1994,111.0714 C51.8204,111.5434 51.3404,111.9114 50.7624,112.1764 C50.1834,112.4424 49.5014,112.5754 48.7164,112.5754 C47.8644,112.5754 47.1054,112.3894 46.4404,112.0174 C45.7754,111.6464 45.2904,111.0414 44.9834,110.2054 L44.9444,110.2054 L44.9434,116.0004 L44.2064,116.0004 L44.2064,102.1014 L44.9434,102.1014 L44.9434,104.4504 Z" id="Fill-51" fill="#1D2326" mask="url(#mask-2)"></path>
                    <path d="M61.8899,106.5218 C61.7039,106.7478 61.4219,106.8998 61.0439,106.9798 C60.6659,107.0598 60.2439,107.1188 59.7789,107.1588 L58.5049,107.2788 C58.1329,107.3188 57.7609,107.3748 57.3899,107.4468 C57.0179,107.5198 56.6829,107.6438 56.3839,107.8168 C56.0849,107.9888 55.8429,108.2248 55.6569,108.5228 C55.4709,108.8218 55.3779,109.2108 55.3779,109.6878 C55.3779,110.4448 55.6179,111.0058 56.0949,111.3708 C56.5729,111.7358 57.2299,111.9188 58.0669,111.9188 C58.9299,111.9188 59.6129,111.7628 60.1179,111.4498 C60.6219,111.1378 61.0069,110.7798 61.2729,110.3748 C61.5379,109.9698 61.7069,109.5788 61.7799,109.1998 C61.8529,108.8218 61.8899,108.5668 61.8899,108.4328 L61.8899,106.5218 Z M61.8899,110.3048 L61.8499,110.3048 C61.7309,110.6108 61.5579,110.8998 61.3319,111.1708 C61.1069,111.4438 60.8309,111.6858 60.5059,111.8978 C60.1799,112.1108 59.8119,112.2768 59.4009,112.3958 C58.9889,112.5158 58.5379,112.5748 58.0469,112.5748 C56.9579,112.5748 56.1149,112.3388 55.5179,111.8688 C54.9209,111.3968 54.6219,110.6708 54.6219,109.6878 C54.6219,109.0908 54.7409,108.6028 54.9799,108.2248 C55.2189,107.8458 55.5209,107.5478 55.8859,107.3288 C56.2509,107.1088 56.6559,106.9538 57.1009,106.8598 C57.5449,106.7668 57.9739,106.7008 58.3849,106.6608 L59.5599,106.5618 C60.1039,106.5218 60.5329,106.4588 60.8449,106.3728 C61.1559,106.2858 61.3919,106.1658 61.5509,106.0138 C61.7109,105.8618 61.8109,105.6658 61.8499,105.4268 C61.8899,105.1868 61.9099,104.8888 61.9099,104.5308 C61.9099,104.2508 61.8569,103.9928 61.7509,103.7538 C61.6439,103.5148 61.4779,103.3028 61.2529,103.1158 C61.0269,102.9308 60.7349,102.7848 60.3769,102.6788 C60.0179,102.5728 59.5799,102.5188 59.0629,102.5188 C58.1459,102.5188 57.4059,102.7448 56.8419,103.1958 C56.2779,103.6468 55.9689,104.3308 55.9159,105.2478 L55.1589,105.2478 C55.2119,104.1188 55.5739,103.2728 56.2439,102.7078 C56.9149,102.1438 57.8669,101.8618 59.1019,101.8618 C60.3369,101.8618 61.2359,102.1038 61.7999,102.5888 C62.3639,103.0738 62.6469,103.7078 62.6469,104.4908 L62.6469,110.4448 C62.6469,110.5908 62.6499,110.7368 62.6569,110.8828 C62.6629,111.0288 62.6859,111.1618 62.7259,111.2818 C62.7659,111.3998 62.8319,111.4968 62.9249,111.5698 C63.0179,111.6428 63.1509,111.6788 63.3239,111.6788 C63.4559,111.6788 63.6419,111.6598 63.8819,111.6198 L63.8819,112.2568 C63.6819,112.3098 63.4759,112.3368 63.2639,112.3368 C62.9589,112.3368 62.7169,112.2968 62.5369,112.2168 C62.3579,112.1378 62.2219,112.0318 62.1289,111.8978 C62.0359,111.7658 61.9729,111.6098 61.9399,111.4308 C61.9069,111.2508 61.8899,111.0558 61.8899,110.8428 L61.8899,110.3048 Z" id="Fill-52" fill="#1D2326" mask="url(#mask-2)"></path>
                    <path d="M65.8127,104.3709 L65.8727,104.3709 C65.9647,104.0399 66.1347,103.7269 66.3797,103.4349 C66.6257,103.1439 66.9247,102.8909 67.2767,102.6789 C67.6277,102.4669 68.0197,102.3039 68.4507,102.1909 C68.8827,102.0779 69.3307,102.0279 69.7957,102.0409 L69.7957,102.7979 C69.3967,102.7449 68.9417,102.7849 68.4307,102.9179 C67.9207,103.0499 67.4317,103.3419 66.9677,103.7929 C66.7817,103.9929 66.6197,104.1849 66.4797,104.3709 C66.3407,104.5569 66.2247,104.7629 66.1317,104.9889 C66.0387,105.2149 65.9647,105.4659 65.9127,105.7449 C65.8587,106.0239 65.8257,106.3559 65.8127,106.7409 L65.8127,112.3359 L65.0567,112.3359 L65.0567,102.1009 L65.8127,102.1009 L65.8127,104.3709 Z" id="Fill-53" fill="#1D2326" mask="url(#mask-2)"></path>
                    <path d="M78.1593,106.6611 C78.1323,106.1041 78.0393,105.5761 77.8803,105.0781 C77.7203,104.5801 77.4833,104.1421 77.1713,103.7641 C76.8583,103.3851 76.4793,103.0831 76.0333,102.8581 C75.5863,102.6321 75.0773,102.5191 74.5063,102.5191 C73.8933,102.5191 73.3543,102.6351 72.8883,102.8681 C72.4223,103.1001 72.0293,103.4051 71.7103,103.7831 C71.3903,104.1611 71.1443,104.6041 70.9713,105.1071 C70.7993,105.6131 70.6923,106.1301 70.6523,106.6611 L78.1593,106.6611 Z M70.6323,107.3191 L70.6323,107.4371 C70.6323,108.0351 70.7113,108.6061 70.8723,109.1501 C71.0313,109.6941 71.2673,110.1731 71.5803,110.5841 C71.8933,110.9961 72.2863,111.3201 72.7583,111.5601 C73.2303,111.7991 73.7803,111.9181 74.4063,111.9181 C75.4303,111.9181 76.2423,111.6491 76.8413,111.1121 C77.4413,110.5741 77.8533,109.8271 78.0803,108.8711 L78.8363,108.8711 C78.6113,110.0671 78.1223,110.9821 77.3723,111.6191 C76.6223,112.2561 75.6303,112.5751 74.3953,112.5751 C73.6393,112.5751 72.9783,112.4391 72.4143,112.1671 C71.8503,111.8951 71.3793,111.5231 71.0003,111.0511 C70.6223,110.5811 70.3403,110.0241 70.1543,109.3791 C69.9683,108.7351 69.8753,108.0421 69.8753,107.2981 C69.8753,106.5811 69.9713,105.8941 70.1643,105.2371 C70.3563,104.5801 70.6453,104.0031 71.0303,103.5051 C71.4153,103.0071 71.8963,102.6091 72.4743,102.3101 C73.0513,102.0121 73.7323,101.8611 74.5153,101.8611 C75.2323,101.8611 75.8653,101.9951 76.4173,102.2601 C76.9683,102.5261 77.4293,102.8871 77.8013,103.3451 C78.1723,103.8041 78.4543,104.3351 78.6473,104.9391 C78.8393,105.5431 78.9363,106.1901 78.9363,106.8801 C78.9363,106.9461 78.9323,107.0221 78.9263,107.1091 C78.9193,107.1961 78.9163,107.2651 78.9163,107.3191 L70.6323,107.3191 Z" id="Fill-54" fill="#1D2326" mask="url(#mask-2)"></path>
                    <path d="M80.6881,102.1012 L81.4441,102.1012 L81.4441,104.2912 L81.4841,104.2912 C81.6171,103.9062 81.8061,103.5642 82.0521,103.2662 C82.2971,102.9672 82.5831,102.7122 82.9081,102.4992 C83.2331,102.2872 83.5881,102.1272 83.9731,102.0212 C84.3581,101.9152 84.7501,101.8612 85.1491,101.8612 C85.7461,101.8612 86.2541,101.9342 86.6721,102.0812 C87.0901,102.2272 87.4311,102.4202 87.6971,102.6582 C87.9631,102.8972 88.1721,103.1662 88.3251,103.4652 C88.4771,103.7642 88.5871,104.0662 88.6531,104.3712 C88.7191,104.6772 88.7591,104.9722 88.7731,105.2572 C88.7851,105.5432 88.7921,105.7922 88.7921,106.0032 L88.7921,112.3362 L88.0361,112.3362 L88.0361,105.8642 C88.0361,105.6132 88.0161,105.2932 87.9761,104.9082 C87.9361,104.5242 87.8201,104.1552 87.6281,103.8042 C87.4351,103.4522 87.1431,103.1492 86.7511,102.8972 C86.3601,102.6462 85.8191,102.5192 85.1291,102.5192 C84.5441,102.5192 84.0261,102.6252 83.5751,102.8372 C83.1241,103.0502 82.7391,103.3452 82.4201,103.7242 C82.1011,104.1022 81.8591,104.5542 81.6931,105.0782 C81.5271,105.6022 81.4441,106.1772 81.4441,106.8002 L81.4441,112.3362 L80.6881,112.3362 L80.6881,102.1012 Z" id="Fill-55" fill="#1D2326" mask="url(#mask-2)"></path>
                    <path d="M98.3314,105.2671 C98.2914,104.8161 98.1754,104.4181 97.9824,104.0721 C97.7904,103.7271 97.5414,103.4411 97.2364,103.2161 C96.9304,102.9901 96.5754,102.8181 96.1704,102.6981 C95.7654,102.5781 95.3314,102.5191 94.8664,102.5191 C94.2294,102.5191 93.6644,102.6491 93.1744,102.9081 C92.6824,103.1661 92.2704,103.5121 91.9394,103.9431 C91.6074,104.3751 91.3544,104.8661 91.1824,105.4161 C91.0094,105.9671 90.9234,106.5351 90.9234,107.1191 C90.9234,107.8091 91.0034,108.4471 91.1624,109.0311 C91.3214,109.6151 91.5674,110.1231 91.8994,110.5541 C92.2314,110.9851 92.6424,111.3201 93.1344,111.5601 C93.6254,111.7991 94.2024,111.9181 94.8664,111.9181 C95.3444,111.9181 95.7854,111.8381 96.1904,111.6791 C96.5954,111.5201 96.9544,111.3011 97.2654,111.0221 C97.5784,110.7441 97.8334,110.4081 98.0324,110.0161 C98.2314,109.6251 98.3644,109.1971 98.4304,108.7321 L99.1874,108.7321 C99.1074,109.3431 98.9414,109.8871 98.6894,110.3651 C98.4374,110.8431 98.1184,111.2441 97.7334,111.5701 C97.3484,111.8951 96.9104,112.1441 96.4194,112.3171 C95.9284,112.4891 95.4104,112.5751 94.8664,112.5751 C94.0304,112.5751 93.3164,112.4261 92.7254,112.1271 C92.1354,111.8291 91.6504,111.4271 91.2724,110.9231 C90.8934,110.4181 90.6144,109.8381 90.4354,109.1801 C90.2564,108.5231 90.1664,107.8361 90.1664,107.1191 C90.1664,106.4021 90.2694,105.7251 90.4754,105.0881 C90.6814,104.4511 90.9834,103.8931 91.3814,103.4151 C91.7804,102.9371 92.2704,102.5591 92.8554,102.2801 C93.4394,102.0011 94.1094,101.8611 94.8664,101.8611 C95.4244,101.8611 95.9444,101.9321 96.4294,102.0711 C96.9144,102.2101 97.3454,102.4201 97.7244,102.6981 C98.1024,102.9771 98.4104,103.3321 98.6504,103.7641 C98.8894,104.1951 99.0344,104.6961 99.0874,105.2671 L98.3314,105.2671 Z" id="Fill-56" fill="#1D2326" mask="url(#mask-2)"></path>
                    <path d="M99.7254,102.1012 L100.6214,102.1012 L104.4244,111.4402 L107.9294,102.1012 L108.7854,102.1012 L104.4054,113.4312 C104.1924,113.9362 103.9964,114.3702 103.8174,114.7352 C103.6384,115.1012 103.4354,115.3702 103.2094,115.5422 C102.9444,115.7542 102.6294,115.8842 102.2644,115.9312 C101.8984,115.9762 101.4184,116.0002 100.8204,116.0002 L100.8204,115.3432 C101.3644,115.3432 101.7894,115.2992 102.0954,115.2142 C102.4004,115.1272 102.6854,114.9522 102.9514,114.6862 C103.0974,114.5402 103.2494,114.2712 103.4094,113.8792 C103.5684,113.4882 103.7674,112.9542 104.0064,112.2772 L99.7254,102.1012 Z" id="Fill-57" fill="#1D2326" mask="url(#mask-2)"></path>
                    <polygon id="Fill-58" fill="#1D2326" mask="url(#mask-2)" points="115.476 112.336 116.352 112.336 116.352 98.118 115.476 98.118"></polygon>
                    <path d="M118.3238,102.1012 L119.0798,102.1012 L119.0798,104.2912 L119.1198,104.2912 C119.2528,103.9062 119.4418,103.5642 119.6878,103.2662 C119.9328,102.9672 120.2188,102.7122 120.5438,102.4992 C120.8688,102.2872 121.2238,102.1272 121.6088,102.0212 C121.9948,101.9152 122.3858,101.8612 122.7848,101.8612 C123.3818,101.8612 123.8898,101.9342 124.3078,102.0812 C124.7258,102.2272 125.0668,102.4202 125.3328,102.6582 C125.5988,102.8972 125.8078,103.1662 125.9608,103.4652 C126.1128,103.7642 126.2228,104.0662 126.2888,104.3712 C126.3548,104.6772 126.3948,104.9722 126.4088,105.2572 C126.4208,105.5432 126.4278,105.7922 126.4278,106.0032 L126.4278,112.3362 L125.6718,112.3362 L125.6718,105.8642 C125.6718,105.6132 125.6518,105.2932 125.6118,104.9082 C125.5718,104.5242 125.4558,104.1552 125.2638,103.8042 C125.0708,103.4522 124.7788,103.1492 124.3868,102.8972 C123.9958,102.6462 123.4548,102.5192 122.7648,102.5192 C122.1798,102.5192 121.6618,102.6252 121.2108,102.8372 C120.7598,103.0502 120.3748,103.3452 120.0558,103.7242 C119.7368,104.1022 119.4948,104.5542 119.3288,105.0782 C119.1628,105.6022 119.0798,106.1772 119.0798,106.8002 L119.0798,112.3362 L118.3238,112.3362 L118.3238,102.1012 Z" id="Fill-59" fill="#1D2326" mask="url(#mask-2)"></path>
                    <path d="M128.439,112.336 L129.196,112.336 L129.196,102.101 L128.439,102.101 L128.439,112.336 Z M128.439,100.169 L129.196,100.169 L129.196,98.118 L128.439,98.118 L128.439,100.169 Z" id="Fill-60" fill="#1D2326" mask="url(#mask-2)"></path>
                    <path d="M135.3695,102.7578 L133.1395,102.7578 L133.1395,109.9068 C133.1395,110.3188 133.1855,110.6438 133.2785,110.8828 C133.3715,111.1218 133.5135,111.3048 133.7065,111.4308 C133.8995,111.5568 134.1315,111.6328 134.4035,111.6598 C134.6755,111.6858 134.9915,111.6928 135.3495,111.6788 L135.3495,112.3368 C134.9645,112.3628 134.5895,112.3598 134.2245,112.3268 C133.8595,112.2938 133.5375,112.1938 133.2585,112.0278 C132.9795,111.8618 132.7575,111.6128 132.5915,111.2818 C132.4255,110.9488 132.3555,110.4918 132.3825,109.9068 L132.3825,102.7578 L130.4905,102.7578 L130.4905,102.1008 L132.3825,102.1008 L132.3825,98.9148 L133.1395,98.9148 L133.1395,102.1008 L135.3695,102.1008 L135.3695,102.7578 Z" id="Fill-61" fill="#1D2326" mask="url(#mask-2)"></path>
                    <path d="M136.942,112.336 L137.699,112.336 L137.699,102.101 L136.942,102.101 L136.942,112.336 Z M136.942,100.169 L137.699,100.169 L137.699,98.118 L136.942,98.118 L136.942,100.169 Z" id="Fill-62" fill="#1D2326" mask="url(#mask-2)"></path>
                    <path d="M146.5003,106.5218 C146.3143,106.7478 146.0323,106.8998 145.6543,106.9798 C145.2763,107.0598 144.8543,107.1188 144.3893,107.1588 L143.1153,107.2788 C142.7433,107.3188 142.3713,107.3748 142.0003,107.4468 C141.6283,107.5198 141.2933,107.6438 140.9943,107.8168 C140.6953,107.9888 140.4533,108.2248 140.2673,108.5228 C140.0813,108.8218 139.9883,109.2108 139.9883,109.6878 C139.9883,110.4448 140.2283,111.0058 140.7053,111.3708 C141.1833,111.7358 141.8403,111.9188 142.6773,111.9188 C143.5403,111.9188 144.2233,111.7628 144.7283,111.4498 C145.2323,111.1378 145.6173,110.7798 145.8833,110.3748 C146.1483,109.9698 146.3173,109.5788 146.3903,109.1998 C146.4633,108.8218 146.5003,108.5668 146.5003,108.4328 L146.5003,106.5218 Z M146.5003,110.3048 L146.4603,110.3048 C146.3413,110.6108 146.1683,110.8998 145.9423,111.1708 C145.7173,111.4438 145.4413,111.6858 145.1163,111.8978 C144.7903,112.1108 144.4223,112.2768 144.0113,112.3958 C143.5993,112.5158 143.1483,112.5748 142.6573,112.5748 C141.5683,112.5748 140.7253,112.3388 140.1283,111.8688 C139.5313,111.3968 139.2323,110.6708 139.2323,109.6878 C139.2323,109.0908 139.3513,108.6028 139.5903,108.2248 C139.8293,107.8458 140.1313,107.5478 140.4963,107.3288 C140.8613,107.1088 141.2663,106.9538 141.7113,106.8598 C142.1553,106.7668 142.5843,106.7008 142.9953,106.6608 L144.1703,106.5618 C144.7143,106.5218 145.1433,106.4588 145.4553,106.3728 C145.7663,106.2858 146.0023,106.1658 146.1613,106.0138 C146.3213,105.8618 146.4213,105.6658 146.4603,105.4268 C146.5003,105.1868 146.5203,104.8888 146.5203,104.5308 C146.5203,104.2508 146.4673,103.9928 146.3613,103.7538 C146.2543,103.5148 146.0883,103.3028 145.8633,103.1158 C145.6373,102.9308 145.3453,102.7848 144.9873,102.6788 C144.6283,102.5728 144.1903,102.5188 143.6733,102.5188 C142.7563,102.5188 142.0163,102.7448 141.4523,103.1958 C140.8883,103.6468 140.5793,104.3308 140.5263,105.2478 L139.7693,105.2478 C139.8223,104.1188 140.1843,103.2728 140.8543,102.7078 C141.5253,102.1438 142.4773,101.8618 143.7123,101.8618 C144.9473,101.8618 145.8463,102.1038 146.4103,102.5888 C146.9743,103.0738 147.2573,103.7078 147.2573,104.4908 L147.2573,110.4448 C147.2573,110.5908 147.2603,110.7368 147.2673,110.8828 C147.2733,111.0288 147.2963,111.1618 147.3363,111.2818 C147.3763,111.3998 147.4423,111.4968 147.5353,111.5698 C147.6283,111.6428 147.7613,111.6788 147.9343,111.6788 C148.0663,111.6788 148.2523,111.6598 148.4923,111.6198 L148.4923,112.2568 C148.2923,112.3098 148.0863,112.3368 147.8743,112.3368 C147.5693,112.3368 147.3273,112.2968 147.1473,112.2168 C146.9683,112.1378 146.8323,112.0318 146.7393,111.8978 C146.6463,111.7658 146.5833,111.6098 146.5503,111.4308 C146.5173,111.2508 146.5003,111.0558 146.5003,110.8428 L146.5003,110.3048 Z" id="Fill-63" fill="#1D2326" mask="url(#mask-2)"></path>
                    <path d="M153.0323,102.7578 L150.8023,102.7578 L150.8023,109.9068 C150.8023,110.3188 150.8483,110.6438 150.9413,110.8828 C151.0343,111.1218 151.1763,111.3048 151.3693,111.4308 C151.5623,111.5568 151.7943,111.6328 152.0663,111.6598 C152.3383,111.6858 152.6543,111.6928 153.0123,111.6788 L153.0123,112.3368 C152.6273,112.3628 152.2523,112.3598 151.8873,112.3268 C151.5223,112.2938 151.2003,112.1938 150.9213,112.0278 C150.6423,111.8618 150.4203,111.6128 150.2543,111.2818 C150.0883,110.9488 150.0183,110.4918 150.0453,109.9068 L150.0453,102.7578 L148.1533,102.7578 L148.1533,102.1008 L150.0453,102.1008 L150.0453,98.9148 L150.8023,98.9148 L150.8023,102.1008 L153.0323,102.1008 L153.0323,102.7578 Z" id="Fill-64" fill="#1D2326" mask="url(#mask-2)"></path>
                    <path d="M154.605,112.336 L155.362,112.336 L155.362,102.101 L154.605,102.101 L154.605,112.336 Z M154.605,100.169 L155.362,100.169 L155.362,98.118 L154.605,98.118 L154.605,100.169 Z" id="Fill-65" fill="#1D2326" mask="url(#mask-2)"></path>
                    <polygon id="Fill-66" fill="#1D2326" mask="url(#mask-2)" points="161.6742 112.3363 160.7382 112.3363 156.6162 102.1013 157.4922 102.1013 161.1962 111.4603 161.2362 111.4603 164.7012 102.1013 165.5372 102.1013"></polygon>
                    <path d="M174.0193,106.6611 C173.9943,106.1041 173.9003,105.5761 173.7403,105.0781 C173.5813,104.5801 173.3453,104.1421 173.0313,103.7641 C172.7183,103.3851 172.3403,103.0831 171.8933,102.8581 C171.4473,102.6321 170.9393,102.5191 170.3663,102.5191 C169.7543,102.5191 169.2153,102.6351 168.7493,102.8681 C168.2833,103.1001 167.8903,103.4051 167.5703,103.7831 C167.2513,104.1611 167.0053,104.6041 166.8323,105.1071 C166.6593,105.6131 166.5523,106.1301 166.5123,106.6611 L174.0193,106.6611 Z M166.4933,107.3191 L166.4933,107.4371 C166.4933,108.0351 166.5723,108.6061 166.7333,109.1501 C166.8923,109.6941 167.1283,110.1731 167.4423,110.5841 C167.7533,110.9961 168.1473,111.3201 168.6183,111.5601 C169.0923,111.7991 169.6393,111.9181 170.2673,111.9181 C171.2913,111.9181 172.1043,111.6491 172.7023,111.1121 C173.3003,110.5741 173.7133,109.8271 173.9393,108.8711 L174.6973,108.8711 C174.4713,110.0671 173.9823,110.9821 173.2343,111.6191 C172.4843,112.2561 171.4903,112.5751 170.2573,112.5751 C169.4993,112.5751 168.8393,112.4391 168.2763,112.1671 C167.7113,111.8951 167.2393,111.5231 166.8613,111.0511 C166.4823,110.5811 166.2003,110.0241 166.0153,109.3791 C165.8293,108.7351 165.7363,108.0421 165.7363,107.2981 C165.7363,106.5811 165.8323,105.8941 166.0243,105.2371 C166.2173,104.5801 166.5063,104.0031 166.8903,103.5051 C167.2763,103.0071 167.7573,102.6091 168.3343,102.3101 C168.9133,102.0121 169.5933,101.8611 170.3763,101.8611 C171.0933,101.8611 171.7263,101.9951 172.2773,102.2601 C172.8293,102.5261 173.2883,102.8871 173.6613,103.3451 C174.0333,103.8041 174.3153,104.3351 174.5083,104.9391 C174.6993,105.5431 174.7963,106.1901 174.7963,106.8801 C174.7963,106.9461 174.7923,107.0221 174.7873,107.1091 C174.7793,107.1961 174.7773,107.2651 174.7773,107.3191 L166.4933,107.3191 Z" id="Fill-67" fill="#1D2326" mask="url(#mask-2)"></path>
                    <path d="M3.8782,2.0604 L3.8782,39.3554 C3.8782,40.5744 3.9352,41.9994 4.0522,43.6244 C4.1682,45.2514 4.4582,46.9224 4.9232,48.6354 C5.3882,50.3494 6.0412,52.0334 6.8842,53.6884 C7.7252,55.3444 8.8732,56.8264 10.3262,58.1324 C11.7772,59.4404 13.5642,60.4854 15.6852,61.2694 C17.8052,62.0544 20.3752,62.4464 23.3972,62.4464 C27.2302,62.4464 30.4392,61.9094 33.0252,60.8344 C35.6092,59.7594 37.7002,58.2204 39.2992,56.2154 C40.8962,54.2124 42.0442,51.7864 42.7412,48.9404 C43.4382,46.0944 43.7862,42.8994 43.7862,39.3554 L43.7862,2.0604 L47.6202,2.0604 L47.6202,39.3554 C47.6202,43.0724 47.2282,46.5304 46.4442,49.7244 C45.6602,52.9194 44.3382,55.7084 42.4792,58.0894 C40.6202,60.4724 38.1362,62.3454 35.0292,63.7104 C31.9212,65.0744 28.0432,65.7574 23.3972,65.7574 C19.7372,65.7574 16.6002,65.2924 13.9852,64.3634 C11.3712,63.4344 9.2072,62.2284 7.4942,60.7464 C5.7802,59.2654 4.4292,57.5664 3.4422,55.6494 C2.4532,53.7324 1.7002,51.8024 1.1772,49.8554 C0.6542,47.9094 0.3342,46.0204 0.2182,44.1904 C0.1012,42.3614 0.0442,40.7494 0.0442,39.3554 L0.0442,2.0604 L3.8782,2.0604 Z" id="Fill-68" fill="#1378A6" mask="url(#mask-2)"></path>
                    <path d="M97.4626,19.8362 C97.3456,17.1652 96.7786,14.8412 95.7636,12.8652 C94.7466,10.8912 93.3666,9.2352 91.6246,7.8992 C89.8816,6.5632 87.8046,5.5612 85.3946,4.8922 C82.9826,4.2252 80.3536,3.8902 77.5086,3.8902 C75.7656,3.8902 73.8916,4.0942 71.8876,4.5002 C69.8836,4.9072 68.0236,5.6192 66.3116,6.6352 C64.5966,7.6522 63.1876,9.0172 62.0846,10.7302 C60.9816,12.4442 60.4296,14.5792 60.4296,17.1352 C60.4296,19.6332 61.0396,21.6662 62.2596,23.2342 C63.4796,24.8032 65.0766,26.0662 67.0516,27.0252 C69.0266,27.9832 71.2916,28.7542 73.8486,29.3342 C76.4036,29.9152 78.9896,30.4672 81.6036,30.9892 C84.2746,31.5122 86.8756,32.1372 89.4026,32.8632 C91.9296,33.5912 94.1956,34.5772 96.1996,35.8262 C98.2036,37.0762 99.8156,38.7012 101.0356,40.7052 C102.2556,42.7102 102.8656,45.2232 102.8656,48.2422 C102.8656,51.4972 102.1676,54.2272 100.7736,56.4332 C99.3796,58.6422 97.6216,60.4412 95.5026,61.8362 C93.3806,63.2302 91.0276,64.2322 88.4436,64.8422 C85.8586,65.4522 83.3746,65.7572 80.9936,65.7572 C77.3336,65.7572 73.9056,65.3652 70.7116,64.5812 C67.5166,63.7972 64.7276,62.5192 62.3466,60.7472 C59.9636,58.9752 58.0906,56.6952 56.7266,53.9072 C55.3606,51.1182 54.7066,47.7202 54.7656,43.7122 L58.5996,43.7122 C58.4256,47.1402 58.9186,50.0292 60.0806,52.3822 C61.2426,54.7342 62.8546,56.6662 64.9176,58.1762 C66.9786,59.6882 69.4046,60.7762 72.1926,61.4442 C74.9816,62.1132 77.9136,62.4462 80.9936,62.4462 C82.8516,62.4462 84.8416,62.2152 86.9626,61.7492 C89.0826,61.2852 91.0276,60.5002 92.8006,59.3972 C94.5716,58.2932 96.0536,56.8412 97.2446,55.0402 C98.4346,53.2392 99.0306,50.9742 99.0306,48.2422 C99.0306,45.6282 98.4216,43.4942 97.2016,41.8382 C95.9806,40.1832 94.3696,38.8462 92.3656,37.8292 C90.3606,36.8142 88.0956,35.9992 85.5686,35.3902 C83.0416,34.7802 80.4416,34.2142 77.7696,33.6912 C75.1556,33.1682 72.5706,32.5582 70.0146,31.8612 C67.4576,31.1642 65.1926,30.2212 63.2176,29.0292 C61.2426,27.8392 59.6456,26.2992 58.4256,24.4112 C57.2056,22.5232 56.5956,20.0982 56.5956,17.1352 C56.5956,14.1722 57.2186,11.6312 58.4696,9.5102 C59.7176,7.3912 61.3446,5.6772 63.3486,4.3692 C65.3526,3.0622 67.6036,2.1042 70.1016,1.4942 C72.5986,0.8842 75.0686,0.5792 77.5086,0.5792 C80.7606,0.5792 83.7956,0.9422 86.6146,1.6682 C89.4306,2.3952 91.8996,3.5282 94.0206,5.0662 C96.1406,6.6062 97.8396,8.5952 99.1186,11.0352 C100.3956,13.4752 101.1226,16.4092 101.2966,19.8362 L97.4626,19.8362 Z" id="Fill-69" fill="#1378A6" mask="url(#mask-2)"></path>
                </g>
            </g>
        </g>
    </g>
</svg>