<?xml version="1.0" encoding="utf-8"?>
<!-- Generator: Adobe Illustrator 19.1.0, SVG Export Plug-In . SVG Version: 6.00 Build 0)  -->
<svg version="1.1" id="Layer_1" xmlns="http://www.w3.org/2000/svg" xmlns:xlink="http://www.w3.org/1999/xlink" x="0px" y="0px"
	 viewBox="-143 92.6 311.3 117.4" enable-background="new -143 92.6 311.3 117.4" xml:space="preserve">
<path fill="#1A7BAC" d="M65.1,111.7h29l1.1,0v46h19.4v-45.9h16l0,0h5.7l9.5-16.6L74.6,95L65.1,111.7z"/>
<g>
	<polygon fill="#231F20" points="30.6,111.7 40.2,95 -31,95 -31,96.5 -31,142.4 -31,142.3 -31,157.6 25,157.6 25,157.6 30.6,157.6 
		40.2,141 -11.5,141 -11.5,135 -11.5,134.9 27.4,134.9 36.4,117.8 25.6,117.8 25.6,117.8 -11.4,117.8 -11.4,111.7 	"/>
	<polygon fill="#231F20" points="-31,141 -31,141 -31,141 	"/>
</g>
<rect x="43.3" y="95" fill="#231F20" width="19.4" height="62.7"/>
<rect x="148.2" y="95" fill="#231F20" width="19.4" height="62.7"/>
<g>
	<path fill="#231F20" d="M-142.7,170.1v-0.8h10.9v0.8h-5v13.5h-0.9v-13.5H-142.7z"/>
	<path fill="#231F20" d="M-130.2,169.4v6.2h0c0.1-0.4,0.3-0.7,0.6-1c0.2-0.3,0.5-0.6,0.9-0.8c0.3-0.2,0.7-0.4,1.1-0.5
		c0.4-0.1,0.8-0.2,1.2-0.2c0.6,0,1.1,0.1,1.5,0.2c0.4,0.1,0.8,0.3,1,0.6c0.3,0.2,0.5,0.5,0.6,0.8c0.2,0.3,0.3,0.6,0.3,0.9
		c0.1,0.3,0.1,0.6,0.1,0.9c0,0.3,0,0.5,0,0.7v6.3h-0.8v-6.5c0-0.3,0-0.6-0.1-1s-0.2-0.8-0.3-1.1c-0.2-0.4-0.5-0.7-0.9-0.9
		c-0.4-0.3-0.9-0.4-1.6-0.4c-0.6,0-1.1,0.1-1.6,0.3c-0.5,0.2-0.8,0.5-1.2,0.9c-0.3,0.4-0.6,0.8-0.7,1.4c-0.2,0.5-0.2,1.1-0.2,1.7
		v5.5h-0.8v-14.2H-130.2z"/>
	<path fill="#231F20" d="M-120.8,178.6v0.1c0,0.6,0.1,1.2,0.2,1.7c0.2,0.5,0.4,1,0.7,1.4c0.3,0.4,0.7,0.7,1.2,1
		c0.5,0.2,1,0.4,1.6,0.4c1,0,1.8-0.3,2.4-0.8c0.6-0.5,1-1.3,1.2-2.2h0.8c-0.2,1.2-0.7,2.1-1.5,2.7c-0.8,0.6-1.7,1-3,1
		c-0.8,0-1.4-0.1-2-0.4c-0.6-0.3-1-0.6-1.4-1.1c-0.4-0.5-0.7-1-0.8-1.7c-0.2-0.6-0.3-1.3-0.3-2.1c0-0.7,0.1-1.4,0.3-2.1
		c0.2-0.7,0.5-1.2,0.9-1.7c0.4-0.5,0.9-0.9,1.4-1.2c0.6-0.3,1.3-0.4,2-0.4c0.7,0,1.4,0.1,1.9,0.4c0.6,0.3,1,0.6,1.4,1.1
		c0.4,0.5,0.7,1,0.8,1.6c0.2,0.6,0.3,1.3,0.3,1.9c0,0.1,0,0.1,0,0.2s0,0.2,0,0.2H-120.8z M-113.2,177.9c0-0.6-0.1-1.1-0.3-1.6
		c-0.2-0.5-0.4-0.9-0.7-1.3c-0.3-0.4-0.7-0.7-1.1-0.9c-0.4-0.2-1-0.3-1.5-0.3c-0.6,0-1.2,0.1-1.6,0.3c-0.5,0.2-0.9,0.5-1.2,0.9
		s-0.6,0.8-0.7,1.3c-0.2,0.5-0.3,1-0.3,1.6H-113.2z"/>
	<path fill="#231F20" d="M-104.2,169.4v8.5c0,0.3,0,0.6,0,1c0,0.4,0.1,0.8,0.2,1.1c0.1,0.4,0.3,0.8,0.4,1.2c0.2,0.4,0.5,0.7,0.8,1
		c0.3,0.3,0.7,0.5,1.2,0.7c0.5,0.2,1.1,0.3,1.8,0.3c0.9,0,1.6-0.1,2.2-0.4s1.1-0.6,1.4-1.1c0.4-0.5,0.6-1,0.8-1.7
		c0.2-0.6,0.2-1.4,0.2-2.2v-8.5h0.9v8.5c0,0.8-0.1,1.6-0.3,2.4c-0.2,0.7-0.5,1.4-0.9,1.9c-0.4,0.5-1,1-1.7,1.3
		c-0.7,0.3-1.6,0.5-2.7,0.5c-0.8,0-1.6-0.1-2.2-0.3c-0.6-0.2-1.1-0.5-1.5-0.8c-0.4-0.3-0.7-0.7-0.9-1.2c-0.2-0.4-0.4-0.9-0.5-1.3
		c-0.1-0.4-0.2-0.9-0.2-1.3c0-0.4,0-0.8,0-1.1v-8.5H-104.2z"/>
	<path fill="#231F20" d="M-92.2,173.4h0.8v2.2h0c0.1-0.4,0.3-0.7,0.6-1c0.2-0.3,0.5-0.6,0.9-0.8c0.3-0.2,0.7-0.4,1.1-0.5
		c0.4-0.1,0.8-0.2,1.2-0.2c0.6,0,1.1,0.1,1.5,0.2c0.4,0.1,0.8,0.3,1,0.6c0.3,0.2,0.5,0.5,0.6,0.8c0.2,0.3,0.3,0.6,0.3,0.9
		c0.1,0.3,0.1,0.6,0.1,0.9c0,0.3,0,0.5,0,0.7v6.3h-0.8v-6.5c0-0.3,0-0.6-0.1-1s-0.2-0.8-0.3-1.1c-0.2-0.4-0.5-0.7-0.9-0.9
		c-0.4-0.3-0.9-0.4-1.6-0.4c-0.6,0-1.1,0.1-1.6,0.3c-0.5,0.2-0.8,0.5-1.2,0.9c-0.3,0.4-0.6,0.8-0.7,1.4c-0.2,0.5-0.2,1.1-0.2,1.7
		v5.5h-0.8V173.4z"/>
	<path fill="#231F20" d="M-82.1,171.4v-2.1h0.8v2.1H-82.1z M-82.1,183.6v-10.2h0.8v10.2H-82.1z"/>
	<path fill="#231F20" d="M-75.1,174h-2.2v7.1c0,0.4,0,0.7,0.1,1c0.1,0.2,0.2,0.4,0.4,0.5c0.2,0.1,0.4,0.2,0.7,0.2c0.3,0,0.6,0,0.9,0
		v0.7c-0.4,0-0.8,0-1.1,0c-0.4,0-0.7-0.1-1-0.3c-0.3-0.2-0.5-0.4-0.7-0.7c-0.2-0.3-0.2-0.8-0.2-1.4V174H-80v-0.7h1.9v-3.2h0.8v3.2
		h2.2V174z"/>
	<path fill="#231F20" d="M-73.9,178.6v0.1c0,0.6,0.1,1.2,0.2,1.7c0.2,0.5,0.4,1,0.7,1.4c0.3,0.4,0.7,0.7,1.2,1
		c0.5,0.2,1,0.4,1.6,0.4c1,0,1.8-0.3,2.4-0.8c0.6-0.5,1-1.3,1.2-2.2h0.8c-0.2,1.2-0.7,2.1-1.5,2.7c-0.8,0.6-1.7,1-3,1
		c-0.8,0-1.4-0.1-2-0.4c-0.6-0.3-1-0.6-1.4-1.1c-0.4-0.5-0.7-1-0.8-1.7c-0.2-0.6-0.3-1.3-0.3-2.1c0-0.7,0.1-1.4,0.3-2.1
		c0.2-0.7,0.5-1.2,0.9-1.7c0.4-0.5,0.9-0.9,1.4-1.2c0.6-0.3,1.3-0.4,2-0.4c0.7,0,1.4,0.1,1.9,0.4c0.6,0.3,1,0.6,1.4,1.1
		c0.4,0.5,0.7,1,0.8,1.6c0.2,0.6,0.3,1.3,0.3,1.9c0,0.1,0,0.1,0,0.2c0,0.1,0,0.2,0,0.2H-73.9z M-66.3,177.9c0-0.6-0.1-1.1-0.3-1.6
		c-0.2-0.5-0.4-0.9-0.7-1.3c-0.3-0.4-0.7-0.7-1.1-0.9c-0.4-0.2-1-0.3-1.5-0.3c-0.6,0-1.2,0.1-1.6,0.3c-0.5,0.2-0.9,0.5-1.2,0.9
		s-0.6,0.8-0.7,1.3c-0.2,0.5-0.3,1-0.3,1.6H-66.3z"/>
	<path fill="#231F20" d="M-55.9,181.4L-55.9,181.4c-0.5,0.8-1,1.4-1.6,1.8c-0.6,0.4-1.4,0.6-2.3,0.6c-0.8,0-1.4-0.1-2-0.4
		c-0.6-0.3-1-0.7-1.4-1.2c-0.4-0.5-0.6-1.1-0.8-1.7c-0.2-0.6-0.3-1.3-0.3-2c0-0.8,0.1-1.5,0.3-2.1c0.2-0.7,0.5-1.2,0.8-1.7
		c0.4-0.5,0.9-0.9,1.4-1.1c0.6-0.3,1.2-0.4,2-0.4c0.4,0,0.8,0.1,1.2,0.2c0.4,0.1,0.8,0.3,1.1,0.5s0.6,0.5,0.9,0.8
		c0.3,0.3,0.4,0.7,0.6,1.1h0v-6.3h0.8v14.2h-0.8V181.4z M-59.7,183.2c0.7,0,1.2-0.1,1.7-0.4c0.5-0.3,0.9-0.6,1.2-1.1
		c0.3-0.4,0.5-0.9,0.7-1.5c0.2-0.6,0.2-1.1,0.2-1.7c0-0.6-0.1-1.2-0.2-1.7c-0.2-0.6-0.4-1.1-0.7-1.5c-0.3-0.4-0.7-0.8-1.2-1.1
		c-0.5-0.3-1.1-0.4-1.7-0.4c-0.7,0-1.3,0.1-1.7,0.4c-0.5,0.3-0.9,0.6-1.2,1s-0.5,0.9-0.7,1.5c-0.1,0.6-0.2,1.2-0.2,1.8
		c0,0.6,0.1,1.2,0.2,1.7c0.2,0.6,0.4,1.1,0.7,1.5c0.3,0.4,0.7,0.8,1.2,1C-60.9,183.1-60.4,183.2-59.7,183.2z"/>
	<path fill="#231F20" d="M-37.8,173.4c0-0.6-0.2-1.1-0.4-1.6c-0.2-0.5-0.5-0.8-0.9-1.1c-0.4-0.3-0.9-0.5-1.4-0.7
		c-0.6-0.2-1.2-0.2-1.8-0.2c-0.4,0-0.8,0-1.3,0.1c-0.5,0.1-0.9,0.3-1.3,0.5c-0.4,0.2-0.7,0.5-1,0.9c-0.3,0.4-0.4,0.9-0.4,1.5
		c0,0.6,0.1,1,0.4,1.4c0.3,0.4,0.6,0.6,1.1,0.9c0.5,0.2,1,0.4,1.6,0.5c0.6,0.1,1.2,0.3,1.8,0.4c0.6,0.1,1.2,0.3,1.8,0.4
		c0.6,0.2,1.1,0.4,1.6,0.7c0.5,0.3,0.8,0.7,1.1,1.1c0.3,0.5,0.4,1,0.4,1.7c0,0.7-0.2,1.4-0.5,1.9c-0.3,0.5-0.7,0.9-1.2,1.2
		c-0.5,0.3-1,0.5-1.6,0.7s-1.2,0.2-1.7,0.2c-0.8,0-1.6-0.1-2.4-0.3c-0.7-0.2-1.4-0.5-1.9-0.9c-0.5-0.4-1-0.9-1.3-1.6
		c-0.3-0.6-0.5-1.4-0.4-2.3h0.9c0,0.8,0.1,1.4,0.3,2c0.3,0.5,0.6,1,1.1,1.3c0.5,0.3,1,0.6,1.7,0.7c0.6,0.2,1.3,0.2,2,0.2
		c0.4,0,0.9-0.1,1.4-0.2c0.5-0.1,0.9-0.3,1.3-0.5c0.4-0.3,0.7-0.6,1-1c0.3-0.4,0.4-0.9,0.4-1.6c0-0.6-0.1-1.1-0.4-1.5
		c-0.3-0.4-0.6-0.7-1.1-0.9c-0.5-0.2-1-0.4-1.6-0.6c-0.6-0.1-1.2-0.3-1.8-0.4c-0.6-0.1-1.2-0.3-1.8-0.4c-0.6-0.2-1.1-0.4-1.6-0.6
		c-0.5-0.3-0.8-0.6-1.1-1.1c-0.3-0.4-0.4-1-0.4-1.7s0.1-1.3,0.4-1.7c0.3-0.5,0.7-0.9,1.1-1.2c0.5-0.3,1-0.5,1.5-0.7s1.1-0.2,1.7-0.2
		c0.7,0,1.4,0.1,2.1,0.2c0.6,0.2,1.2,0.4,1.7,0.8c0.5,0.4,0.9,0.8,1.2,1.4c0.3,0.6,0.5,1.2,0.5,2H-37.8z"/>
	<path fill="#231F20" d="M-31.3,174h-2.2v7.1c0,0.4,0,0.7,0.1,1c0.1,0.2,0.2,0.4,0.4,0.5c0.2,0.1,0.4,0.2,0.7,0.2c0.3,0,0.6,0,0.9,0
		v0.7c-0.4,0-0.8,0-1.1,0c-0.4,0-0.7-0.1-1-0.3c-0.3-0.2-0.5-0.4-0.7-0.7c-0.2-0.3-0.2-0.8-0.2-1.4V174h-1.9v-0.7h1.9v-3.2h0.8v3.2
		h2.2V174z"/>
	<path fill="#231F20" d="M-23.1,181.6L-23.1,181.6c-0.2,0.3-0.3,0.6-0.6,0.9c-0.2,0.3-0.5,0.5-0.8,0.7c-0.3,0.2-0.7,0.4-1.1,0.5
		c-0.4,0.1-0.9,0.2-1.4,0.2c-1.1,0-1.9-0.2-2.5-0.7c-0.6-0.5-0.9-1.2-0.9-2.2c0-0.6,0.1-1.1,0.4-1.5c0.2-0.4,0.5-0.7,0.9-0.9
		c0.4-0.2,0.8-0.4,1.2-0.5c0.4-0.1,0.9-0.2,1.3-0.2l1.2-0.1c0.5,0,1-0.1,1.3-0.2c0.3-0.1,0.5-0.2,0.7-0.4c0.2-0.2,0.3-0.3,0.3-0.6
		c0-0.2,0.1-0.5,0.1-0.9c0-0.3-0.1-0.5-0.2-0.8c-0.1-0.2-0.3-0.5-0.5-0.6c-0.2-0.2-0.5-0.3-0.9-0.4c-0.4-0.1-0.8-0.2-1.3-0.2
		c-0.9,0-1.7,0.2-2.2,0.7c-0.6,0.5-0.9,1.1-0.9,2.1h-0.8c0.1-1.1,0.4-2,1.1-2.5c0.7-0.6,1.6-0.8,2.9-0.8s2.1,0.2,2.7,0.7
		c0.6,0.5,0.8,1.1,0.8,1.9v6c0,0.1,0,0.3,0,0.4s0,0.3,0.1,0.4c0,0.1,0.1,0.2,0.2,0.3c0.1,0.1,0.2,0.1,0.4,0.1c0.1,0,0.3,0,0.6-0.1
		v0.6c-0.2,0.1-0.4,0.1-0.6,0.1c-0.3,0-0.5,0-0.7-0.1c-0.2-0.1-0.3-0.2-0.4-0.3c-0.1-0.1-0.2-0.3-0.2-0.5c0-0.2,0-0.4,0-0.6V181.6z
		 M-23.1,177.8c-0.2,0.2-0.5,0.4-0.8,0.5c-0.4,0.1-0.8,0.1-1.3,0.2l-1.3,0.1c-0.4,0-0.7,0.1-1.1,0.2c-0.4,0.1-0.7,0.2-1,0.4
		c-0.3,0.2-0.5,0.4-0.7,0.7c-0.2,0.3-0.3,0.7-0.3,1.2c0,0.8,0.2,1.3,0.7,1.7c0.5,0.4,1.1,0.5,2,0.5c0.9,0,1.5-0.2,2.1-0.5
		c0.5-0.3,0.9-0.7,1.2-1.1c0.3-0.4,0.4-0.8,0.5-1.2c0.1-0.4,0.1-0.6,0.1-0.8V177.8z"/>
	<path fill="#231F20" d="M-16.6,174h-2.2v7.1c0,0.4,0,0.7,0.1,1c0.1,0.2,0.2,0.4,0.4,0.5c0.2,0.1,0.4,0.2,0.7,0.2c0.3,0,0.6,0,0.9,0
		v0.7c-0.4,0-0.8,0-1.1,0c-0.4,0-0.7-0.1-1-0.3c-0.3-0.2-0.5-0.4-0.7-0.7c-0.2-0.3-0.2-0.8-0.2-1.4V174h-1.9v-0.7h1.9v-3.2h0.8v3.2
		h2.2V174z"/>
	<path fill="#231F20" d="M-15.3,178.6v0.1c0,0.6,0.1,1.2,0.2,1.7c0.2,0.5,0.4,1,0.7,1.4c0.3,0.4,0.7,0.7,1.2,1
		c0.5,0.2,1,0.4,1.6,0.4c1,0,1.8-0.3,2.4-0.8s1-1.3,1.2-2.2h0.8c-0.2,1.2-0.7,2.1-1.5,2.7c-0.8,0.6-1.7,1-3,1c-0.8,0-1.4-0.1-2-0.4
		c-0.6-0.3-1-0.6-1.4-1.1c-0.4-0.5-0.7-1-0.8-1.7c-0.2-0.6-0.3-1.3-0.3-2.1c0-0.7,0.1-1.4,0.3-2.1c0.2-0.7,0.5-1.2,0.9-1.7
		c0.4-0.5,0.9-0.9,1.4-1.2c0.6-0.3,1.3-0.4,2-0.4c0.7,0,1.4,0.1,1.9,0.4c0.6,0.3,1,0.6,1.4,1.1c0.4,0.5,0.7,1,0.8,1.6
		c0.2,0.6,0.3,1.3,0.3,1.9c0,0.1,0,0.1,0,0.2s0,0.2,0,0.2H-15.3z M-7.8,177.9c0-0.6-0.1-1.1-0.3-1.6c-0.2-0.5-0.4-0.9-0.7-1.3
		c-0.3-0.4-0.7-0.7-1.1-0.9c-0.4-0.2-1-0.3-1.5-0.3c-0.6,0-1.2,0.1-1.6,0.3c-0.5,0.2-0.9,0.5-1.2,0.9s-0.6,0.8-0.7,1.3
		c-0.2,0.5-0.3,1-0.3,1.6H-7.8z"/>
	<path fill="#231F20" d="M-5.3,180.2c0,0.5,0.1,0.9,0.3,1.3c0.2,0.4,0.4,0.7,0.7,0.9c0.3,0.3,0.6,0.5,1,0.6c0.4,0.1,0.8,0.2,1.3,0.2
		c0.3,0,0.7,0,1.1-0.1c0.4-0.1,0.7-0.2,1.1-0.3c0.3-0.2,0.6-0.4,0.8-0.7c0.2-0.3,0.3-0.6,0.3-1.1c0-0.6-0.2-1-0.5-1.3
		c-0.3-0.3-0.8-0.5-1.3-0.7c-0.5-0.2-1.1-0.3-1.7-0.4c-0.6-0.1-1.2-0.2-1.7-0.4c-0.5-0.2-1-0.5-1.3-0.8c-0.3-0.4-0.5-0.9-0.5-1.6
		c0-0.5,0.1-0.9,0.3-1.3c0.2-0.3,0.5-0.6,0.9-0.8c0.4-0.2,0.7-0.3,1.2-0.4c0.4-0.1,0.9-0.1,1.3-0.1c0.5,0,1,0.1,1.5,0.2
		c0.5,0.1,0.9,0.3,1.2,0.6c0.3,0.3,0.6,0.6,0.8,1c0.2,0.4,0.3,0.9,0.3,1.5H1c0-0.5-0.1-0.9-0.2-1.2c-0.2-0.3-0.4-0.6-0.6-0.8
		c-0.3-0.2-0.6-0.4-1-0.5c-0.4-0.1-0.8-0.1-1.2-0.1c-0.3,0-0.7,0-1,0.1c-0.4,0.1-0.7,0.2-0.9,0.3c-0.3,0.2-0.5,0.4-0.7,0.6
		c-0.2,0.3-0.3,0.6-0.3,0.9c0,0.4,0.1,0.7,0.3,1c0.2,0.3,0.5,0.5,0.8,0.6c0.3,0.2,0.7,0.3,1.1,0.4c0.4,0.1,0.8,0.2,1.2,0.3
		c0.5,0.1,1,0.2,1.4,0.3c0.4,0.1,0.8,0.3,1.2,0.5c0.3,0.2,0.6,0.5,0.8,0.8c0.2,0.3,0.3,0.8,0.3,1.3c0,0.6-0.1,1-0.4,1.4
		c-0.3,0.4-0.6,0.6-1,0.9s-0.8,0.4-1.3,0.5c-0.5,0.1-0.9,0.1-1.4,0.1c-0.6,0-1.1-0.1-1.6-0.2c-0.5-0.2-0.9-0.4-1.3-0.7
		c-0.4-0.3-0.7-0.7-0.9-1.1c-0.2-0.5-0.3-1-0.3-1.6H-5.3z"/>
	<path fill="#231F20" d="M10,169.4h9.6v0.8h-8.7v5.7H19v0.8h-8.2v6.3h8.8v0.8H10V169.4z"/>
	<path fill="#231F20" d="M24.2,178.2l-3.7-4.9h1.1l3.2,4.3l3.2-4.3h1l-3.7,4.9l4,5.4h-1l-3.5-4.8l-3.6,4.8h-1L24.2,178.2z"/>
	<path fill="#231F20" d="M34,174h-2.2v7.1c0,0.4,0,0.7,0.1,1c0.1,0.2,0.2,0.4,0.4,0.5c0.2,0.1,0.4,0.2,0.7,0.2c0.3,0,0.6,0,0.9,0
		v0.7c-0.4,0-0.8,0-1.1,0c-0.4,0-0.7-0.1-1-0.3c-0.3-0.2-0.5-0.4-0.7-0.7c-0.2-0.3-0.2-0.8-0.2-1.4V174h-1.9v-0.7H31v-3.2h0.8v3.2
		H34V174z"/>
	<path fill="#231F20" d="M36.2,175.6L36.2,175.6c0.2-0.3,0.3-0.6,0.6-0.9c0.2-0.3,0.5-0.5,0.9-0.8s0.7-0.4,1.2-0.5
		c0.4-0.1,0.9-0.2,1.3-0.2v0.8c-0.4-0.1-0.9,0-1.4,0.1c-0.5,0.1-1,0.4-1.5,0.9c-0.2,0.2-0.3,0.4-0.5,0.6c-0.1,0.2-0.3,0.4-0.3,0.6
		c-0.1,0.2-0.2,0.5-0.2,0.8c-0.1,0.3-0.1,0.6-0.1,1v5.6h-0.8v-10.2h0.8V175.6z"/>
	<path fill="#231F20" d="M46.9,181.6L46.9,181.6c-0.2,0.3-0.3,0.6-0.6,0.9c-0.2,0.3-0.5,0.5-0.8,0.7c-0.3,0.2-0.7,0.4-1.1,0.5
		c-0.4,0.1-0.9,0.2-1.4,0.2c-1.1,0-1.9-0.2-2.5-0.7c-0.6-0.5-0.9-1.2-0.9-2.2c0-0.6,0.1-1.1,0.4-1.5c0.2-0.4,0.5-0.7,0.9-0.9
		c0.4-0.2,0.8-0.4,1.2-0.5c0.4-0.1,0.9-0.2,1.3-0.2l1.2-0.1c0.5,0,1-0.1,1.3-0.2c0.3-0.1,0.5-0.2,0.7-0.4c0.2-0.2,0.3-0.3,0.3-0.6
		c0-0.2,0.1-0.5,0.1-0.9c0-0.3-0.1-0.5-0.2-0.8c-0.1-0.2-0.3-0.5-0.5-0.6c-0.2-0.2-0.5-0.3-0.9-0.4c-0.4-0.1-0.8-0.2-1.3-0.2
		c-0.9,0-1.7,0.2-2.2,0.7c-0.6,0.5-0.9,1.1-0.9,2.1h-0.8c0.1-1.1,0.4-2,1.1-2.5c0.7-0.6,1.6-0.8,2.9-0.8c1.2,0,2.1,0.2,2.7,0.7
		c0.6,0.5,0.8,1.1,0.8,1.9v6c0,0.1,0,0.3,0,0.4c0,0.1,0,0.3,0.1,0.4c0,0.1,0.1,0.2,0.2,0.3c0.1,0.1,0.2,0.1,0.4,0.1
		c0.1,0,0.3,0,0.6-0.1v0.6c-0.2,0.1-0.4,0.1-0.6,0.1c-0.3,0-0.5,0-0.7-0.1c-0.2-0.1-0.3-0.2-0.4-0.3c-0.1-0.1-0.2-0.3-0.2-0.5
		c0-0.2,0-0.4,0-0.6V181.6z M46.9,177.8c-0.2,0.2-0.5,0.4-0.8,0.5c-0.4,0.1-0.8,0.1-1.3,0.2l-1.3,0.1c-0.4,0-0.7,0.1-1.1,0.2
		c-0.4,0.1-0.7,0.2-1,0.4c-0.3,0.2-0.5,0.4-0.7,0.7c-0.2,0.3-0.3,0.7-0.3,1.2c0,0.8,0.2,1.3,0.7,1.7c0.5,0.4,1.1,0.5,2,0.5
		c0.9,0,1.5-0.2,2.1-0.5c0.5-0.3,0.9-0.7,1.2-1.1c0.3-0.4,0.4-0.8,0.5-1.2c0.1-0.4,0.1-0.6,0.1-0.8V177.8z"/>
	<path fill="#231F20" d="M57.8,176.5c0-0.5-0.2-0.8-0.3-1.2c-0.2-0.3-0.4-0.6-0.7-0.9c-0.3-0.2-0.7-0.4-1.1-0.5
		c-0.4-0.1-0.8-0.2-1.3-0.2c-0.6,0-1.2,0.1-1.7,0.4c-0.5,0.3-0.9,0.6-1.2,1c-0.3,0.4-0.6,0.9-0.8,1.5c-0.2,0.6-0.3,1.1-0.3,1.7
		c0,0.7,0.1,1.3,0.2,1.9c0.2,0.6,0.4,1.1,0.7,1.5c0.3,0.4,0.7,0.8,1.2,1c0.5,0.2,1.1,0.4,1.7,0.4c0.5,0,0.9-0.1,1.3-0.2
		c0.4-0.2,0.8-0.4,1.1-0.7c0.3-0.3,0.6-0.6,0.8-1c0.2-0.4,0.3-0.8,0.4-1.3h0.8c-0.1,0.6-0.2,1.2-0.5,1.6c-0.3,0.5-0.6,0.9-1,1.2
		c-0.4,0.3-0.8,0.6-1.3,0.7c-0.5,0.2-1,0.3-1.6,0.3c-0.8,0-1.5-0.1-2.1-0.4c-0.6-0.3-1.1-0.7-1.5-1.2c-0.4-0.5-0.7-1.1-0.8-1.7
		c-0.2-0.7-0.3-1.3-0.3-2.1c0-0.7,0.1-1.4,0.3-2c0.2-0.6,0.5-1.2,0.9-1.7c0.4-0.5,0.9-0.9,1.5-1.1c0.6-0.3,1.3-0.4,2-0.4
		c0.6,0,1.1,0.1,1.6,0.2c0.5,0.1,0.9,0.3,1.3,0.6c0.4,0.3,0.7,0.6,0.9,1.1c0.2,0.4,0.4,0.9,0.4,1.5H57.8z"/>
	<path fill="#231F20" d="M63.8,174h-2.2v7.1c0,0.4,0,0.7,0.1,1c0.1,0.2,0.2,0.4,0.4,0.5c0.2,0.1,0.4,0.2,0.7,0.2c0.3,0,0.6,0,0.9,0
		v0.7c-0.4,0-0.8,0-1.1,0c-0.4,0-0.7-0.1-1-0.3c-0.3-0.2-0.5-0.4-0.7-0.7c-0.2-0.3-0.2-0.8-0.2-1.4V174h-1.9v-0.7h1.9v-3.2h0.8v3.2
		h2.2V174z"/>
	<path fill="#231F20" d="M65.4,171.4v-2.1h0.8v2.1H65.4z M65.4,183.6v-10.2h0.8v10.2H65.4z"/>
	<path fill="#231F20" d="M72.1,183.6h-0.9L67,173.4h0.9l3.7,9.4h0l3.5-9.4h0.8L72.1,183.6z"/>
	<path fill="#231F20" d="M76.9,178.6v0.1c0,0.6,0.1,1.2,0.2,1.7c0.2,0.5,0.4,1,0.7,1.4c0.3,0.4,0.7,0.7,1.2,1c0.5,0.2,1,0.4,1.6,0.4
		c1,0,1.8-0.3,2.4-0.8c0.6-0.5,1-1.3,1.2-2.2h0.8c-0.2,1.2-0.7,2.1-1.5,2.7c-0.8,0.6-1.7,1-3,1c-0.8,0-1.4-0.1-2-0.4
		c-0.6-0.3-1-0.6-1.4-1.1c-0.4-0.5-0.7-1-0.8-1.7c-0.2-0.6-0.3-1.3-0.3-2.1c0-0.7,0.1-1.4,0.3-2.1c0.2-0.7,0.5-1.2,0.9-1.7
		c0.4-0.5,0.9-0.9,1.4-1.2c0.6-0.3,1.3-0.4,2-0.4c0.7,0,1.4,0.1,1.9,0.4c0.6,0.3,1,0.6,1.4,1.1c0.4,0.5,0.7,1,0.8,1.6
		c0.2,0.6,0.3,1.3,0.3,1.9c0,0.1,0,0.1,0,0.2c0,0.1,0,0.2,0,0.2H76.9z M84.4,177.9c0-0.6-0.1-1.1-0.3-1.6c-0.2-0.5-0.4-0.9-0.7-1.3
		c-0.3-0.4-0.7-0.7-1.1-0.9c-0.4-0.2-1-0.3-1.5-0.3c-0.6,0-1.2,0.1-1.6,0.3c-0.5,0.2-0.9,0.5-1.2,0.9c-0.3,0.4-0.6,0.8-0.7,1.3
		c-0.2,0.5-0.3,1-0.3,1.6H84.4z"/>
	<path fill="#231F20" d="M92.6,169.4h0.9v14.2h-0.9V169.4z"/>
	<path fill="#231F20" d="M95.5,173.4h0.8v2.2h0c0.1-0.4,0.3-0.7,0.6-1c0.2-0.3,0.5-0.6,0.9-0.8c0.3-0.2,0.7-0.4,1.1-0.5
		c0.4-0.1,0.8-0.2,1.2-0.2c0.6,0,1.1,0.1,1.5,0.2c0.4,0.1,0.8,0.3,1,0.6c0.3,0.2,0.5,0.5,0.6,0.8c0.2,0.3,0.3,0.6,0.3,0.9
		c0.1,0.3,0.1,0.6,0.1,0.9c0,0.3,0,0.5,0,0.7v6.3h-0.8v-6.5c0-0.3,0-0.6-0.1-1c0-0.4-0.2-0.8-0.3-1.1c-0.2-0.4-0.5-0.7-0.9-0.9
		c-0.4-0.3-0.9-0.4-1.6-0.4c-0.6,0-1.1,0.1-1.6,0.3c-0.5,0.2-0.8,0.5-1.2,0.9c-0.3,0.4-0.6,0.8-0.7,1.4c-0.2,0.5-0.2,1.1-0.2,1.7
		v5.5h-0.8V173.4z"/>
	<path fill="#231F20" d="M113.7,181.4L113.7,181.4c-0.5,0.8-1,1.4-1.6,1.8c-0.6,0.4-1.4,0.6-2.3,0.6c-0.8,0-1.4-0.1-2-0.4
		c-0.6-0.3-1-0.7-1.4-1.2c-0.4-0.5-0.6-1.1-0.8-1.7c-0.2-0.6-0.3-1.3-0.3-2c0-0.8,0.1-1.5,0.3-2.1c0.2-0.7,0.5-1.2,0.8-1.7
		c0.4-0.5,0.9-0.9,1.4-1.1c0.6-0.3,1.2-0.4,2-0.4c0.4,0,0.8,0.1,1.2,0.2c0.4,0.1,0.8,0.3,1.1,0.5c0.3,0.2,0.6,0.5,0.9,0.8
		c0.3,0.3,0.4,0.7,0.6,1.1h0v-6.3h0.8v14.2h-0.8V181.4z M109.9,183.2c0.6,0,1.2-0.1,1.7-0.4c0.5-0.3,0.9-0.6,1.2-1.1
		c0.3-0.4,0.5-0.9,0.7-1.5c0.2-0.6,0.2-1.1,0.2-1.7c0-0.6-0.1-1.2-0.2-1.7c-0.2-0.6-0.4-1.1-0.7-1.5c-0.3-0.4-0.7-0.8-1.2-1.1
		c-0.5-0.3-1.1-0.4-1.7-0.4c-0.7,0-1.3,0.1-1.7,0.4c-0.5,0.3-0.9,0.6-1.2,1c-0.3,0.4-0.5,0.9-0.7,1.5c-0.1,0.6-0.2,1.2-0.2,1.8
		c0,0.6,0.1,1.2,0.2,1.7c0.2,0.6,0.4,1.1,0.7,1.5c0.3,0.4,0.7,0.8,1.2,1C108.7,183.1,109.2,183.2,109.9,183.2z"/>
	<path fill="#231F20" d="M124.6,183.6h-0.8v-2.2h0c-0.1,0.4-0.3,0.7-0.6,1c-0.2,0.3-0.5,0.6-0.9,0.8c-0.3,0.2-0.7,0.4-1.1,0.5
		c-0.4,0.1-0.8,0.2-1.2,0.2c-0.6,0-1.1-0.1-1.5-0.2c-0.4-0.1-0.8-0.3-1-0.6c-0.3-0.2-0.5-0.5-0.6-0.8c-0.2-0.3-0.3-0.6-0.3-0.9
		c-0.1-0.3-0.1-0.6-0.1-0.9c0-0.3,0-0.5,0-0.7v-6.3h0.8v6.5c0,0.3,0,0.6,0.1,1c0,0.4,0.2,0.7,0.3,1.1c0.2,0.4,0.5,0.7,0.9,0.9
		c0.4,0.3,0.9,0.4,1.6,0.4c0.6,0,1.1-0.1,1.5-0.3c0.5-0.2,0.8-0.5,1.2-0.9c0.3-0.4,0.6-0.8,0.7-1.4c0.2-0.5,0.2-1.1,0.2-1.7v-5.5
		h0.8V183.6z"/>
	<path fill="#231F20" d="M126.8,180.2c0,0.5,0.1,0.9,0.3,1.3c0.2,0.4,0.4,0.7,0.7,0.9c0.3,0.3,0.6,0.5,1,0.6
		c0.4,0.1,0.8,0.2,1.3,0.2c0.3,0,0.7,0,1.1-0.1c0.4-0.1,0.7-0.2,1.1-0.3c0.3-0.2,0.6-0.4,0.8-0.7s0.3-0.6,0.3-1.1
		c0-0.6-0.2-1-0.5-1.3c-0.3-0.3-0.8-0.5-1.3-0.7c-0.5-0.2-1.1-0.3-1.7-0.4s-1.2-0.2-1.7-0.4c-0.5-0.2-1-0.5-1.3-0.8
		c-0.3-0.4-0.5-0.9-0.5-1.6c0-0.5,0.1-0.9,0.3-1.3c0.2-0.3,0.5-0.6,0.9-0.8c0.4-0.2,0.7-0.3,1.2-0.4c0.4-0.1,0.9-0.1,1.3-0.1
		c0.5,0,1,0.1,1.5,0.2c0.5,0.1,0.9,0.3,1.2,0.6c0.3,0.3,0.6,0.6,0.8,1c0.2,0.4,0.3,0.9,0.3,1.5h-0.8c0-0.5-0.1-0.9-0.2-1.2
		c-0.2-0.3-0.4-0.6-0.6-0.8c-0.3-0.2-0.6-0.4-1-0.5c-0.4-0.1-0.8-0.1-1.2-0.1c-0.3,0-0.7,0-1,0.1c-0.4,0.1-0.7,0.2-0.9,0.3
		c-0.3,0.2-0.5,0.4-0.7,0.6c-0.2,0.3-0.3,0.6-0.3,0.9c0,0.4,0.1,0.7,0.3,1c0.2,0.3,0.5,0.5,0.8,0.6c0.3,0.2,0.7,0.3,1.1,0.4
		c0.4,0.1,0.8,0.2,1.2,0.3c0.5,0.1,1,0.2,1.4,0.3c0.4,0.1,0.8,0.3,1.2,0.5c0.3,0.2,0.6,0.5,0.8,0.8c0.2,0.3,0.3,0.8,0.3,1.3
		c0,0.6-0.1,1-0.4,1.4c-0.3,0.4-0.6,0.6-1,0.9s-0.8,0.4-1.3,0.5c-0.5,0.1-0.9,0.1-1.4,0.1c-0.6,0-1.1-0.1-1.6-0.2
		c-0.5-0.2-0.9-0.4-1.3-0.7c-0.4-0.3-0.7-0.7-0.9-1.1c-0.2-0.5-0.3-1-0.3-1.6H126.8z"/>
	<path fill="#231F20" d="M139.7,174h-2.2v7.1c0,0.4,0,0.7,0.1,1c0.1,0.2,0.2,0.4,0.4,0.5c0.2,0.1,0.4,0.2,0.7,0.2c0.3,0,0.6,0,0.9,0
		v0.7c-0.4,0-0.8,0-1.1,0c-0.4,0-0.7-0.1-1-0.3c-0.3-0.2-0.5-0.4-0.7-0.7c-0.2-0.3-0.2-0.8-0.2-1.4V174h-1.9v-0.7h1.9v-3.2h0.8v3.2
		h2.2V174z"/>
	<path fill="#231F20" d="M141.9,175.6L141.9,175.6c0.2-0.3,0.3-0.6,0.6-0.9c0.2-0.3,0.5-0.5,0.9-0.8s0.7-0.4,1.2-0.5
		c0.4-0.1,0.9-0.2,1.3-0.2v0.8c-0.4-0.1-0.9,0-1.4,0.1c-0.5,0.1-1,0.4-1.5,0.9c-0.2,0.2-0.3,0.4-0.5,0.6c-0.1,0.2-0.3,0.4-0.3,0.6
		c-0.1,0.2-0.2,0.5-0.2,0.8c-0.1,0.3-0.1,0.6-0.1,1v5.6h-0.8v-10.2h0.8V175.6z"/>
	<path fill="#231F20" d="M147.2,171.4v-2.1h0.8v2.1H147.2z M147.2,183.6v-10.2h0.8v10.2H147.2z"/>
	<path fill="#231F20" d="M149.9,178.6v0.1c0,0.6,0.1,1.2,0.2,1.7c0.2,0.5,0.4,1,0.7,1.4c0.3,0.4,0.7,0.7,1.2,1
		c0.5,0.2,1,0.4,1.6,0.4c1,0,1.8-0.3,2.4-0.8c0.6-0.5,1-1.3,1.2-2.2h0.8c-0.2,1.2-0.7,2.1-1.5,2.7c-0.8,0.6-1.7,1-3,1
		c-0.8,0-1.4-0.1-2-0.4c-0.6-0.3-1-0.6-1.4-1.1c-0.4-0.5-0.7-1-0.8-1.7c-0.2-0.6-0.3-1.3-0.3-2.1c0-0.7,0.1-1.4,0.3-2.1
		c0.2-0.7,0.5-1.2,0.9-1.7c0.4-0.5,0.9-0.9,1.4-1.2c0.6-0.3,1.3-0.4,2-0.4c0.7,0,1.4,0.1,1.9,0.4c0.6,0.3,1,0.6,1.4,1.1
		c0.4,0.5,0.7,1,0.8,1.6c0.2,0.6,0.3,1.3,0.3,1.9c0,0.1,0,0.1,0,0.2s0,0.2,0,0.2H149.9z M157.4,177.9c0-0.6-0.1-1.1-0.3-1.6
		c-0.2-0.5-0.4-0.9-0.7-1.3c-0.3-0.4-0.7-0.7-1.1-0.9c-0.4-0.2-1-0.3-1.5-0.3c-0.6,0-1.2,0.1-1.6,0.3c-0.5,0.2-0.9,0.5-1.2,0.9
		c-0.3,0.4-0.6,0.8-0.7,1.3c-0.2,0.5-0.3,1-0.3,1.6H157.4z"/>
	<path fill="#231F20" d="M160.3,180.2c0,0.5,0.1,0.9,0.3,1.3c0.2,0.4,0.4,0.7,0.7,0.9c0.3,0.3,0.6,0.5,1,0.6
		c0.4,0.1,0.8,0.2,1.3,0.2c0.3,0,0.7,0,1.1-0.1c0.4-0.1,0.7-0.2,1.1-0.3c0.3-0.2,0.6-0.4,0.8-0.7s0.3-0.6,0.3-1.1
		c0-0.6-0.2-1-0.5-1.3c-0.3-0.3-0.8-0.5-1.3-0.7c-0.5-0.2-1.1-0.3-1.7-0.4s-1.2-0.2-1.7-0.4c-0.5-0.2-1-0.5-1.3-0.8
		c-0.3-0.4-0.5-0.9-0.5-1.6c0-0.5,0.1-0.9,0.3-1.3c0.2-0.3,0.5-0.6,0.9-0.8c0.4-0.2,0.7-0.3,1.2-0.4c0.4-0.1,0.9-0.1,1.3-0.1
		c0.5,0,1,0.1,1.5,0.2c0.5,0.1,0.9,0.3,1.2,0.6c0.3,0.3,0.6,0.6,0.8,1c0.2,0.4,0.3,0.9,0.3,1.5h-0.8c0-0.5-0.1-0.9-0.2-1.2
		c-0.2-0.3-0.4-0.6-0.6-0.8c-0.3-0.2-0.6-0.4-1-0.5c-0.4-0.1-0.8-0.1-1.2-0.1c-0.3,0-0.7,0-1,0.1c-0.4,0.1-0.7,0.2-0.9,0.3
		c-0.3,0.2-0.5,0.4-0.7,0.6c-0.2,0.3-0.3,0.6-0.3,0.9c0,0.4,0.1,0.7,0.3,1c0.2,0.3,0.5,0.5,0.8,0.6c0.3,0.2,0.7,0.3,1.1,0.4
		c0.4,0.1,0.8,0.2,1.2,0.3c0.5,0.1,1,0.2,1.4,0.3c0.4,0.1,0.8,0.3,1.2,0.5c0.3,0.2,0.6,0.5,0.8,0.8c0.2,0.3,0.3,0.8,0.3,1.3
		c0,0.6-0.1,1-0.4,1.4c-0.3,0.4-0.6,0.6-1,0.9c-0.4,0.2-0.8,0.4-1.3,0.5c-0.5,0.1-0.9,0.1-1.4,0.1c-0.6,0-1.1-0.1-1.6-0.2
		c-0.5-0.2-0.9-0.4-1.3-0.7c-0.4-0.3-0.7-0.7-0.9-1.1c-0.2-0.5-0.3-1-0.3-1.6H160.3z"/>
	<path fill="#231F20" d="M-142.7,192v-0.8h10.9v0.8h-5v13.5h-0.9V192H-142.7z"/>
	<path fill="#231F20" d="M-132.1,197.4L-132.1,197.4c0.2-0.3,0.3-0.6,0.6-0.9c0.2-0.3,0.5-0.5,0.9-0.8c0.4-0.2,0.7-0.4,1.2-0.5
		c0.4-0.1,0.9-0.2,1.3-0.2v0.8c-0.4-0.1-0.9,0-1.4,0.1c-0.5,0.1-1,0.4-1.5,0.9c-0.2,0.2-0.3,0.4-0.5,0.6c-0.1,0.2-0.3,0.4-0.3,0.6
		c-0.1,0.2-0.2,0.5-0.2,0.8c-0.1,0.3-0.1,0.6-0.1,1v5.6h-0.8v-10.2h0.8V197.4z"/>
	<path fill="#231F20" d="M-121,203.4L-121,203.4c-0.2,0.3-0.3,0.6-0.6,0.9c-0.2,0.3-0.5,0.5-0.8,0.7c-0.3,0.2-0.7,0.4-1.1,0.5
		c-0.4,0.1-0.9,0.2-1.4,0.2c-1.1,0-1.9-0.2-2.5-0.7c-0.6-0.5-0.9-1.2-0.9-2.2c0-0.6,0.1-1.1,0.4-1.5c0.2-0.4,0.5-0.7,0.9-0.9
		c0.4-0.2,0.8-0.4,1.2-0.5c0.4-0.1,0.9-0.2,1.3-0.2l1.2-0.1c0.5,0,1-0.1,1.3-0.2c0.3-0.1,0.5-0.2,0.7-0.4c0.2-0.2,0.3-0.3,0.3-0.6
		c0-0.2,0.1-0.5,0.1-0.9c0-0.3-0.1-0.5-0.2-0.8c-0.1-0.2-0.3-0.5-0.5-0.6c-0.2-0.2-0.5-0.3-0.9-0.4c-0.4-0.1-0.8-0.2-1.3-0.2
		c-0.9,0-1.7,0.2-2.2,0.7c-0.6,0.5-0.9,1.1-0.9,2.1h-0.8c0.1-1.1,0.4-2,1.1-2.5c0.7-0.6,1.6-0.8,2.9-0.8s2.1,0.2,2.7,0.7
		c0.6,0.5,0.8,1.1,0.8,1.9v6c0,0.1,0,0.3,0,0.4s0,0.3,0.1,0.4c0,0.1,0.1,0.2,0.2,0.3c0.1,0.1,0.2,0.1,0.4,0.1c0.1,0,0.3,0,0.6-0.1
		v0.6c-0.2,0.1-0.4,0.1-0.6,0.1c-0.3,0-0.5,0-0.7-0.1c-0.2-0.1-0.3-0.2-0.4-0.3c-0.1-0.1-0.2-0.3-0.2-0.5c0-0.2,0-0.4,0-0.6V203.4z
		 M-121,199.6c-0.2,0.2-0.5,0.4-0.8,0.5c-0.4,0.1-0.8,0.1-1.3,0.2l-1.3,0.1c-0.4,0-0.7,0.1-1.1,0.2c-0.4,0.1-0.7,0.2-1,0.4
		c-0.3,0.2-0.5,0.4-0.7,0.7c-0.2,0.3-0.3,0.7-0.3,1.2c0,0.8,0.2,1.3,0.7,1.7s1.1,0.5,2,0.5c0.9,0,1.5-0.2,2.1-0.5
		c0.5-0.3,0.9-0.7,1.2-1.1c0.3-0.4,0.4-0.8,0.5-1.2c0.1-0.4,0.1-0.6,0.1-0.8V199.6z"/>
	<path fill="#231F20" d="M-117.8,195.2h0.8v2.2h0c0.1-0.4,0.3-0.7,0.6-1c0.2-0.3,0.5-0.6,0.9-0.8c0.3-0.2,0.7-0.4,1.1-0.5
		c0.4-0.1,0.8-0.2,1.2-0.2c0.6,0,1.1,0.1,1.5,0.2c0.4,0.1,0.8,0.3,1,0.6c0.3,0.2,0.5,0.5,0.6,0.8c0.2,0.3,0.3,0.6,0.3,0.9
		c0.1,0.3,0.1,0.6,0.1,0.9c0,0.3,0,0.5,0,0.7v6.3h-0.8v-6.5c0-0.3,0-0.6-0.1-1s-0.2-0.8-0.3-1.1c-0.2-0.4-0.5-0.7-0.9-0.9
		c-0.4-0.3-0.9-0.4-1.6-0.4c-0.6,0-1.1,0.1-1.6,0.3c-0.5,0.2-0.8,0.5-1.2,0.9c-0.3,0.4-0.6,0.8-0.7,1.4c-0.2,0.5-0.2,1.1-0.2,1.7
		v5.5h-0.8V195.2z"/>
	<path fill="#231F20" d="M-107.5,202c0,0.5,0.1,0.9,0.3,1.3c0.2,0.4,0.4,0.7,0.7,0.9c0.3,0.3,0.6,0.5,1,0.6c0.4,0.1,0.8,0.2,1.3,0.2
		c0.3,0,0.7,0,1.1-0.1c0.4-0.1,0.7-0.2,1.1-0.3c0.3-0.2,0.6-0.4,0.8-0.7c0.2-0.3,0.3-0.6,0.3-1.1c0-0.6-0.2-1-0.5-1.3
		c-0.3-0.3-0.8-0.5-1.3-0.7c-0.5-0.2-1.1-0.3-1.7-0.4c-0.6-0.1-1.2-0.2-1.7-0.4c-0.5-0.2-1-0.5-1.3-0.8c-0.3-0.4-0.5-0.9-0.5-1.6
		c0-0.5,0.1-0.9,0.3-1.3c0.2-0.3,0.5-0.6,0.9-0.8c0.4-0.2,0.7-0.3,1.2-0.4c0.4-0.1,0.9-0.1,1.3-0.1c0.5,0,1,0.1,1.5,0.2
		c0.5,0.1,0.9,0.3,1.2,0.6c0.3,0.3,0.6,0.6,0.8,1c0.2,0.4,0.3,0.9,0.3,1.5h-0.8c0-0.5-0.1-0.9-0.2-1.2c-0.2-0.3-0.4-0.6-0.6-0.8
		c-0.3-0.2-0.6-0.4-1-0.5c-0.4-0.1-0.8-0.1-1.2-0.1c-0.3,0-0.7,0-1,0.1c-0.4,0.1-0.7,0.2-0.9,0.3c-0.3,0.2-0.5,0.4-0.7,0.6
		c-0.2,0.3-0.3,0.6-0.3,0.9c0,0.4,0.1,0.7,0.3,1c0.2,0.3,0.5,0.5,0.8,0.6c0.3,0.2,0.7,0.3,1.1,0.4c0.4,0.1,0.8,0.2,1.2,0.3
		c0.5,0.1,1,0.2,1.4,0.3c0.4,0.1,0.8,0.3,1.2,0.5c0.3,0.2,0.6,0.5,0.8,0.8c0.2,0.3,0.3,0.8,0.3,1.3c0,0.6-0.1,1-0.4,1.4
		c-0.3,0.4-0.6,0.6-1,0.9c-0.4,0.2-0.8,0.4-1.3,0.5c-0.5,0.1-0.9,0.1-1.4,0.1c-0.6,0-1.1-0.1-1.6-0.2c-0.5-0.2-0.9-0.4-1.3-0.7
		c-0.4-0.3-0.7-0.7-0.9-1.1c-0.2-0.5-0.3-1-0.3-1.6H-107.5z"/>
	<path fill="#231F20" d="M-97.8,197.5L-97.8,197.5c0.1-0.3,0.3-0.5,0.5-0.8c0.2-0.3,0.4-0.6,0.7-0.8c0.3-0.3,0.7-0.5,1.1-0.6
		c0.4-0.2,0.9-0.3,1.5-0.3c0.8,0,1.5,0.1,2,0.4c0.6,0.3,1.1,0.7,1.4,1.2c0.4,0.5,0.7,1.1,0.8,1.7c0.2,0.7,0.3,1.3,0.3,2.1
		c0,0.8-0.1,1.5-0.3,2.2c-0.2,0.6-0.5,1.2-0.8,1.7c-0.4,0.5-0.9,0.8-1.4,1.1c-0.6,0.3-1.3,0.4-2,0.4c-0.9,0-1.6-0.2-2.3-0.6
		c-0.7-0.4-1.2-1-1.5-1.8h0l0,5.8h-0.7v-13.9h0.7V197.5z M-94,205c0.7,0,1.2-0.1,1.7-0.4c0.5-0.3,0.9-0.6,1.2-1
		c0.3-0.4,0.5-0.9,0.7-1.5c0.2-0.6,0.2-1.2,0.2-1.8c0-0.6-0.1-1.2-0.2-1.7c-0.1-0.6-0.4-1.1-0.7-1.5c-0.3-0.4-0.7-0.8-1.2-1.1
		c-0.5-0.3-1.1-0.4-1.8-0.4c-0.7,0-1.3,0.1-1.7,0.4c-0.5,0.3-0.9,0.6-1.2,1.1c-0.3,0.4-0.5,0.9-0.6,1.5c-0.1,0.6-0.2,1.2-0.2,1.8
		c0,0.6,0.1,1.2,0.2,1.8c0.1,0.6,0.3,1.1,0.6,1.5s0.7,0.8,1.2,1C-95.3,204.9-94.7,205-94,205z"/>
	<path fill="#231F20" d="M-80.8,203.4L-80.8,203.4c-0.2,0.3-0.3,0.6-0.6,0.9c-0.2,0.3-0.5,0.5-0.8,0.7c-0.3,0.2-0.7,0.4-1.1,0.5
		c-0.4,0.1-0.9,0.2-1.4,0.2c-1.1,0-1.9-0.2-2.5-0.7c-0.6-0.5-0.9-1.2-0.9-2.2c0-0.6,0.1-1.1,0.4-1.5c0.2-0.4,0.5-0.7,0.9-0.9
		c0.4-0.2,0.8-0.4,1.2-0.5c0.4-0.1,0.9-0.2,1.3-0.2l1.2-0.1c0.5,0,1-0.1,1.3-0.2c0.3-0.1,0.5-0.2,0.7-0.4c0.2-0.2,0.3-0.3,0.3-0.6
		c0-0.2,0.1-0.5,0.1-0.9c0-0.3-0.1-0.5-0.2-0.8c-0.1-0.2-0.3-0.5-0.5-0.6c-0.2-0.2-0.5-0.3-0.9-0.4c-0.4-0.1-0.8-0.2-1.3-0.2
		c-0.9,0-1.7,0.2-2.2,0.7c-0.6,0.5-0.9,1.1-0.9,2.1h-0.8c0.1-1.1,0.4-2,1.1-2.5c0.7-0.6,1.6-0.8,2.9-0.8s2.1,0.2,2.7,0.7
		c0.6,0.5,0.8,1.1,0.8,1.9v6c0,0.1,0,0.3,0,0.4s0,0.3,0.1,0.4c0,0.1,0.1,0.2,0.2,0.3c0.1,0.1,0.2,0.1,0.4,0.1c0.1,0,0.3,0,0.6-0.1
		v0.6c-0.2,0.1-0.4,0.1-0.6,0.1c-0.3,0-0.5,0-0.7-0.1c-0.2-0.1-0.3-0.2-0.4-0.3c-0.1-0.1-0.2-0.3-0.2-0.5c0-0.2,0-0.4,0-0.6V203.4z
		 M-80.8,199.6c-0.2,0.2-0.5,0.4-0.8,0.5c-0.4,0.1-0.8,0.1-1.3,0.2l-1.3,0.1c-0.4,0-0.7,0.1-1.1,0.2c-0.4,0.1-0.7,0.2-1,0.4
		c-0.3,0.2-0.5,0.4-0.7,0.7c-0.2,0.3-0.3,0.7-0.3,1.2c0,0.8,0.2,1.3,0.7,1.7s1.1,0.5,2,0.5c0.9,0,1.5-0.2,2.1-0.5
		c0.5-0.3,0.9-0.7,1.2-1.1c0.3-0.4,0.4-0.8,0.5-1.2c0.1-0.4,0.1-0.6,0.1-0.8V199.6z"/>
	<path fill="#231F20" d="M-76.9,197.4L-76.9,197.4c0.2-0.3,0.3-0.6,0.6-0.9c0.2-0.3,0.5-0.5,0.9-0.8c0.4-0.2,0.7-0.4,1.2-0.5
		c0.4-0.1,0.9-0.2,1.3-0.2v0.8c-0.4-0.1-0.9,0-1.4,0.1c-0.5,0.1-1,0.4-1.5,0.9c-0.2,0.2-0.3,0.4-0.5,0.6c-0.1,0.2-0.3,0.4-0.3,0.6
		c-0.1,0.2-0.2,0.5-0.2,0.8c-0.1,0.3-0.1,0.6-0.1,1v5.6h-0.8v-10.2h0.8V197.4z"/>
	<path fill="#231F20" d="M-72.1,200.4v0.1c0,0.6,0.1,1.2,0.2,1.7c0.2,0.5,0.4,1,0.7,1.4c0.3,0.4,0.7,0.7,1.2,1
		c0.5,0.2,1,0.4,1.6,0.4c1,0,1.8-0.3,2.4-0.8c0.6-0.5,1-1.3,1.2-2.2h0.8c-0.2,1.2-0.7,2.1-1.5,2.7c-0.8,0.6-1.7,1-3,1
		c-0.8,0-1.4-0.1-2-0.4c-0.6-0.3-1-0.6-1.4-1.1c-0.4-0.5-0.7-1-0.8-1.7c-0.2-0.6-0.3-1.3-0.3-2.1c0-0.7,0.1-1.4,0.3-2.1
		c0.2-0.7,0.5-1.2,0.9-1.7c0.4-0.5,0.9-0.9,1.4-1.2c0.6-0.3,1.3-0.4,2-0.4c0.7,0,1.4,0.1,1.9,0.4c0.6,0.3,1,0.6,1.4,1.1
		c0.4,0.5,0.7,1,0.8,1.6c0.2,0.6,0.3,1.3,0.3,1.9c0,0.1,0,0.1,0,0.2c0,0.1,0,0.2,0,0.2H-72.1z M-64.5,199.7c0-0.6-0.1-1.1-0.3-1.6
		c-0.2-0.5-0.4-0.9-0.7-1.3c-0.3-0.4-0.7-0.7-1.1-0.9c-0.4-0.2-1-0.3-1.5-0.3c-0.6,0-1.2,0.1-1.6,0.3c-0.5,0.2-0.9,0.5-1.2,0.9
		c-0.3,0.4-0.6,0.8-0.7,1.3c-0.2,0.5-0.3,1-0.3,1.6H-64.5z"/>
	<path fill="#231F20" d="M-62,195.2h0.8v2.2h0c0.1-0.4,0.3-0.7,0.6-1c0.2-0.3,0.5-0.6,0.9-0.8c0.3-0.2,0.7-0.4,1.1-0.5
		c0.4-0.1,0.8-0.2,1.2-0.2c0.6,0,1.1,0.1,1.5,0.2c0.4,0.1,0.8,0.3,1,0.6c0.3,0.2,0.5,0.5,0.6,0.8c0.2,0.3,0.3,0.6,0.3,0.9
		c0.1,0.3,0.1,0.6,0.1,0.9c0,0.3,0,0.5,0,0.7v6.3h-0.8v-6.5c0-0.3,0-0.6-0.1-1c0-0.4-0.2-0.8-0.3-1.1c-0.2-0.4-0.5-0.7-0.9-0.9
		c-0.4-0.3-0.9-0.4-1.6-0.4c-0.6,0-1.1,0.1-1.6,0.3c-0.5,0.2-0.8,0.5-1.2,0.9c-0.3,0.4-0.6,0.8-0.7,1.4s-0.2,1.1-0.2,1.7v5.5H-62
		V195.2z"/>
	<path fill="#231F20" d="M-44.4,198.3c0-0.5-0.2-0.8-0.3-1.2c-0.2-0.3-0.4-0.6-0.7-0.9c-0.3-0.2-0.7-0.4-1.1-0.5
		c-0.4-0.1-0.8-0.2-1.3-0.2c-0.6,0-1.2,0.1-1.7,0.4c-0.5,0.3-0.9,0.6-1.2,1c-0.3,0.4-0.6,0.9-0.8,1.5c-0.2,0.6-0.3,1.1-0.3,1.7
		c0,0.7,0.1,1.3,0.2,1.9c0.2,0.6,0.4,1.1,0.7,1.5c0.3,0.4,0.7,0.8,1.2,1c0.5,0.2,1.1,0.4,1.7,0.4c0.5,0,0.9-0.1,1.3-0.2
		c0.4-0.2,0.8-0.4,1.1-0.7c0.3-0.3,0.6-0.6,0.8-1c0.2-0.4,0.3-0.8,0.4-1.3h0.8c-0.1,0.6-0.2,1.2-0.5,1.6c-0.3,0.5-0.6,0.9-1,1.2
		c-0.4,0.3-0.8,0.6-1.3,0.7c-0.5,0.2-1,0.3-1.6,0.3c-0.8,0-1.6-0.1-2.1-0.4c-0.6-0.3-1.1-0.7-1.5-1.2c-0.4-0.5-0.7-1.1-0.8-1.7
		s-0.3-1.3-0.3-2.1s0.1-1.4,0.3-2c0.2-0.6,0.5-1.2,0.9-1.7c0.4-0.5,0.9-0.9,1.5-1.1c0.6-0.3,1.3-0.4,2-0.4c0.6,0,1.1,0.1,1.6,0.2
		c0.5,0.1,0.9,0.3,1.3,0.6c0.4,0.3,0.7,0.6,0.9,1.1c0.2,0.4,0.4,0.9,0.4,1.5H-44.4z"/>
	<path fill="#231F20" d="M-43,195.2h0.9l3.8,9.3l3.5-9.3h0.9l-4.4,11.3c-0.2,0.5-0.4,0.9-0.6,1.3c-0.2,0.4-0.4,0.6-0.6,0.8
		c-0.3,0.2-0.6,0.3-0.9,0.4c-0.4,0-0.8,0.1-1.4,0.1v-0.7c0.5,0,1,0,1.3-0.1c0.3-0.1,0.6-0.3,0.9-0.5c0.1-0.1,0.3-0.4,0.5-0.8
		c0.2-0.4,0.4-0.9,0.6-1.6L-43,195.2z"/>
	<path fill="#231F20" d="M-27.2,191.2h0.9v14.2h-0.9V191.2z"/>
	<path fill="#231F20" d="M-24.4,195.2h0.8v2.2h0c0.1-0.4,0.3-0.7,0.6-1c0.2-0.3,0.5-0.6,0.9-0.8s0.7-0.4,1.1-0.5
		c0.4-0.1,0.8-0.2,1.2-0.2c0.6,0,1.1,0.1,1.5,0.2c0.4,0.1,0.8,0.3,1,0.6c0.3,0.2,0.5,0.5,0.6,0.8c0.2,0.3,0.3,0.6,0.3,0.9
		c0.1,0.3,0.1,0.6,0.1,0.9c0,0.3,0,0.5,0,0.7v6.3H-17v-6.5c0-0.3,0-0.6-0.1-1c0-0.4-0.2-0.8-0.3-1.1c-0.2-0.4-0.5-0.7-0.9-0.9
		c-0.4-0.3-0.9-0.4-1.6-0.4c-0.6,0-1.1,0.1-1.6,0.3c-0.5,0.2-0.8,0.5-1.2,0.9c-0.3,0.4-0.6,0.8-0.7,1.4s-0.2,1.1-0.2,1.7v5.5h-0.8
		V195.2z"/>
	<path fill="#231F20" d="M-14.3,193.2v-2.1h0.8v2.1H-14.3z M-14.3,205.4v-10.2h0.8v10.2H-14.3z"/>
	<path fill="#231F20" d="M-7.3,195.8h-2.2v7.1c0,0.4,0,0.7,0.1,1c0.1,0.2,0.2,0.4,0.4,0.5c0.2,0.1,0.4,0.2,0.7,0.2
		c0.3,0,0.6,0,0.9,0v0.7c-0.4,0-0.8,0-1.1,0c-0.4,0-0.7-0.1-1-0.3c-0.3-0.2-0.5-0.4-0.7-0.7c-0.2-0.3-0.2-0.8-0.2-1.4v-7.1h-1.9
		v-0.7h1.9V192h0.8v3.2h2.2V195.8z"/>
	<path fill="#231F20" d="M-5.8,193.2v-2.1H-5v2.1H-5.8z M-5.8,205.4v-10.2H-5v10.2H-5.8z"/>
	<path fill="#231F20" d="M3.8,203.4L3.8,203.4c-0.2,0.3-0.3,0.6-0.6,0.9c-0.2,0.3-0.5,0.5-0.8,0.7c-0.3,0.2-0.7,0.4-1.1,0.5
		c-0.4,0.1-0.9,0.2-1.4,0.2c-1.1,0-1.9-0.2-2.5-0.7c-0.6-0.5-0.9-1.2-0.9-2.2c0-0.6,0.1-1.1,0.4-1.5c0.2-0.4,0.5-0.7,0.9-0.9
		s0.8-0.4,1.2-0.5c0.4-0.1,0.9-0.2,1.3-0.2l1.2-0.1c0.5,0,1-0.1,1.3-0.2c0.3-0.1,0.5-0.2,0.7-0.4c0.2-0.2,0.3-0.3,0.3-0.6
		c0-0.2,0.1-0.5,0.1-0.9c0-0.3-0.1-0.5-0.2-0.8c-0.1-0.2-0.3-0.5-0.5-0.6c-0.2-0.2-0.5-0.3-0.9-0.4c-0.4-0.1-0.8-0.2-1.3-0.2
		c-0.9,0-1.7,0.2-2.2,0.7c-0.6,0.5-0.9,1.1-0.9,2.1h-0.8c0.1-1.1,0.4-2,1.1-2.5c0.7-0.6,1.6-0.8,2.9-0.8s2.1,0.2,2.7,0.7
		c0.6,0.5,0.8,1.1,0.8,1.9v6c0,0.1,0,0.3,0,0.4s0,0.3,0.1,0.4c0,0.1,0.1,0.2,0.2,0.3c0.1,0.1,0.2,0.1,0.4,0.1c0.1,0,0.3,0,0.6-0.1
		v0.6c-0.2,0.1-0.4,0.1-0.6,0.1c-0.3,0-0.5,0-0.7-0.1c-0.2-0.1-0.3-0.2-0.4-0.3c-0.1-0.1-0.2-0.3-0.2-0.5c0-0.2,0-0.4,0-0.6V203.4z
		 M3.8,199.6c-0.2,0.2-0.5,0.4-0.8,0.5c-0.4,0.1-0.8,0.1-1.3,0.2l-1.3,0.1c-0.4,0-0.7,0.1-1.1,0.2c-0.4,0.1-0.7,0.2-1,0.4
		c-0.3,0.2-0.5,0.4-0.7,0.7c-0.2,0.3-0.3,0.7-0.3,1.2c0,0.8,0.2,1.3,0.7,1.7s1.1,0.5,2,0.5c0.9,0,1.5-0.2,2.1-0.5
		c0.5-0.3,0.9-0.7,1.2-1.1c0.3-0.4,0.4-0.8,0.5-1.2c0.1-0.4,0.1-0.6,0.1-0.8V199.6z"/>
	<path fill="#231F20" d="M10.3,195.8H8.1v7.1c0,0.4,0,0.7,0.1,1c0.1,0.2,0.2,0.4,0.4,0.5c0.2,0.1,0.4,0.2,0.7,0.2c0.3,0,0.6,0,0.9,0
		v0.7c-0.4,0-0.8,0-1.1,0c-0.4,0-0.7-0.1-1-0.3c-0.3-0.2-0.5-0.4-0.7-0.7c-0.2-0.3-0.2-0.8-0.2-1.4v-7.1H5.4v-0.7h1.9V192h0.8v3.2
		h2.2V195.8z"/>
	<path fill="#231F20" d="M11.9,193.2v-2.1h0.8v2.1H11.9z M11.9,205.4v-10.2h0.8v10.2H11.9z"/>
	<path fill="#231F20" d="M19,205.4H18l-4.1-10.2h0.9l3.7,9.4h0l3.5-9.4h0.8L19,205.4z"/>
	<path fill="#231F20" d="M23.8,200.4v0.1c0,0.6,0.1,1.2,0.2,1.7c0.2,0.5,0.4,1,0.7,1.4c0.3,0.4,0.7,0.7,1.2,1c0.5,0.2,1,0.4,1.6,0.4
		c1,0,1.8-0.3,2.4-0.8c0.6-0.5,1-1.3,1.2-2.2H32c-0.2,1.2-0.7,2.1-1.5,2.7c-0.8,0.6-1.7,1-3,1c-0.8,0-1.4-0.1-2-0.4
		c-0.6-0.3-1-0.6-1.4-1.1c-0.4-0.5-0.7-1-0.8-1.7c-0.2-0.6-0.3-1.3-0.3-2.1c0-0.7,0.1-1.4,0.3-2.1c0.2-0.7,0.5-1.2,0.9-1.7
		c0.4-0.5,0.9-0.9,1.4-1.2c0.6-0.3,1.3-0.4,2-0.4c0.7,0,1.4,0.1,1.9,0.4c0.6,0.3,1,0.6,1.4,1.1c0.4,0.5,0.7,1,0.8,1.6
		c0.2,0.6,0.3,1.3,0.3,1.9c0,0.1,0,0.1,0,0.2c0,0.1,0,0.2,0,0.2H23.8z M31.3,199.7c0-0.6-0.1-1.1-0.3-1.6c-0.2-0.5-0.4-0.9-0.7-1.3
		c-0.3-0.4-0.7-0.7-1.1-0.9c-0.4-0.2-1-0.3-1.5-0.3c-0.6,0-1.2,0.1-1.6,0.3c-0.5,0.2-0.9,0.5-1.2,0.9c-0.3,0.4-0.6,0.8-0.7,1.3
		c-0.2,0.5-0.3,1-0.3,1.6H31.3z"/>
</g>
<g>
	<path fill="#1A7BAC" d="M-138.8,95.1v37.3c0,1.2,0.1,2.6,0.2,4.3c0.1,1.6,0.4,3.3,0.9,5c0.5,1.7,1.1,3.4,2,5.1
		c0.8,1.7,2,3.1,3.4,4.4c1.5,1.3,3.2,2.4,5.4,3.1c2.1,0.8,4.7,1.2,7.7,1.2c3.8,0,7-0.5,9.6-1.6c2.6-1.1,4.7-2.6,6.3-4.6
		c1.6-2,2.7-4.4,3.4-7.3c0.7-2.8,1-6,1-9.6V95.1h3.8v37.3c0,3.7-0.4,7.2-1.2,10.4c-0.8,3.2-2.1,6-4,8.4c-1.9,2.4-4.3,4.3-7.5,5.6
		c-3.1,1.4-7,2-11.6,2c-3.7,0-6.8-0.5-9.4-1.4c-2.6-0.9-4.8-2.1-6.5-3.6c-1.7-1.5-3.1-3.2-4.1-5.1c-1-1.9-1.7-3.8-2.3-5.8
		c-0.5-1.9-0.8-3.8-1-5.7c-0.1-1.8-0.2-3.4-0.2-4.8V95.1H-138.8z"/>
	<path fill="#1A7BAC" d="M-45.2,112.9c-0.1-2.7-0.7-5-1.7-7c-1-2-2.4-3.6-4.1-5c-1.7-1.3-3.8-2.3-6.2-3c-2.4-0.7-5-1-7.9-1
		c-1.7,0-3.6,0.2-5.6,0.6c-2,0.4-3.9,1.1-5.6,2.1c-1.7,1-3.1,2.4-4.2,4.1c-1.1,1.7-1.7,3.8-1.7,6.4c0,2.5,0.6,4.5,1.8,6.1
		c1.2,1.6,2.8,2.8,4.8,3.8c2,1,4.2,1.7,6.8,2.3c2.6,0.6,5.1,1.1,7.8,1.7c2.7,0.5,5.3,1.1,7.8,1.9c2.5,0.7,4.8,1.7,6.8,3
		c2,1.3,3.6,2.9,4.8,4.9c1.2,2,1.8,4.5,1.8,7.5c0,3.3-0.7,6-2.1,8.2c-1.4,2.2-3.2,4-5.3,5.4c-2.1,1.4-4.5,2.4-7.1,3
		c-2.6,0.6-5.1,0.9-7.5,0.9c-3.7,0-7.1-0.4-10.3-1.2c-3.2-0.8-6-2.1-8.4-3.8c-2.4-1.8-4.3-4.1-5.6-6.8c-1.4-2.8-2-6.2-2-10.2h3.8
		c-0.2,3.4,0.3,6.3,1.5,8.7c1.2,2.4,2.8,4.3,4.8,5.8c2.1,1.5,4.5,2.6,7.3,3.3c2.8,0.7,5.7,1,8.8,1c1.9,0,3.8-0.2,6-0.7
		c2.1-0.5,4.1-1.2,5.8-2.4c1.8-1.1,3.3-2.6,4.4-4.4c1.2-1.8,1.8-4.1,1.8-6.8c0-2.6-0.6-4.7-1.8-6.4c-1.2-1.7-2.8-3-4.8-4
		c-2-1-4.3-1.8-6.8-2.4c-2.5-0.6-5.1-1.2-7.8-1.7c-2.6-0.5-5.2-1.1-7.8-1.8c-2.6-0.7-4.8-1.6-6.8-2.8c-2-1.2-3.6-2.7-4.8-4.6
		c-1.2-1.9-1.8-4.3-1.8-7.3c0-3,0.6-5.5,1.9-7.6c1.2-2.1,2.9-3.8,4.9-5.1c2-1.3,4.3-2.3,6.8-2.9c2.5-0.6,5-0.9,7.4-0.9
		c3.3,0,6.3,0.4,9.1,1.1c2.8,0.7,5.3,1.9,7.4,3.4c2.1,1.5,3.8,3.5,5.1,6c1.3,2.4,2,5.4,2.2,8.8H-45.2z"/>
</g>
</svg>
