<?xml version="1.0" encoding="utf-8"?>
<!-- Generator: Adobe Illustrator 19.1.0, SVG Export Plug-In . SVG Version: 6.00 Build 0)  -->
<svg version="1.1" id="Layer_1" xmlns="http://www.w3.org/2000/svg" xmlns:xlink="http://www.w3.org/1999/xlink" x="0px" y="0px"
	 viewBox="0 0 311.3 117.4" enable-background="new 0 0 311.3 117.4" xml:space="preserve">
<path fill="#FFFFFF" d="M207.9,18.8h29l1.1,0v46h19.4V18.8h16l0,0h5.7l9.5-16.6l-71.2-0.1L207.9,18.8z"/>
<g>
	<polygon fill="#FFFFFF" points="173.5,18.7 183,2.1 111.8,2.1 111.8,3.6 111.8,49.5 111.8,49.4 111.8,64.7 167.8,64.7 167.8,64.7 
		173.5,64.7 183,48 131.3,48 131.3,42 131.4,42 170.2,42 179.2,24.8 168.4,24.8 168.4,24.9 131.4,24.9 131.4,18.7 	"/>
	<polygon fill="#FFFFFF" points="111.8,48 111.8,48 111.8,48 	"/>
</g>
<rect x="186.1" y="2.1" fill="#FFFFFF" width="19.4" height="62.7"/>
<rect x="291" y="2.1" fill="#FFFFFF" width="19.4" height="62.7"/>
<g>
	<path fill="#FFFFFF" d="M0.1,77.2v-0.8H11v0.8H6v13.5H5.1V77.2H0.1z"/>
	<path fill="#FFFFFF" d="M12.6,76.4v6.2h0c0.1-0.4,0.3-0.7,0.6-1c0.2-0.3,0.5-0.6,0.9-0.8c0.3-0.2,0.7-0.4,1.1-0.5
		c0.4-0.1,0.8-0.2,1.2-0.2c0.6,0,1.1,0.1,1.5,0.2c0.4,0.1,0.8,0.3,1,0.6c0.3,0.2,0.5,0.5,0.6,0.8c0.2,0.3,0.3,0.6,0.3,0.9
		c0.1,0.3,0.1,0.6,0.1,0.9c0,0.3,0,0.5,0,0.7v6.3h-0.8v-6.5c0-0.3,0-0.6-0.1-1c0-0.4-0.2-0.8-0.3-1.1c-0.2-0.4-0.5-0.7-0.9-0.9
		c-0.4-0.3-0.9-0.4-1.6-0.4c-0.6,0-1.1,0.1-1.6,0.3c-0.5,0.2-0.8,0.5-1.2,0.9c-0.3,0.4-0.6,0.8-0.7,1.4s-0.2,1.1-0.2,1.7v5.5h-0.8
		V76.4H12.6z"/>
	<path fill="#FFFFFF" d="M22.1,85.6v0.1c0,0.6,0.1,1.2,0.2,1.7c0.2,0.5,0.4,1,0.7,1.4c0.3,0.4,0.7,0.7,1.2,1c0.5,0.2,1,0.4,1.6,0.4
		c1,0,1.8-0.3,2.4-0.8c0.6-0.5,1-1.3,1.2-2.2h0.8c-0.2,1.2-0.7,2.1-1.5,2.7c-0.8,0.6-1.7,1-3,1c-0.8,0-1.4-0.1-2-0.4
		c-0.6-0.3-1-0.6-1.4-1.1c-0.4-0.5-0.7-1-0.8-1.7c-0.2-0.6-0.3-1.3-0.3-2.1c0-0.7,0.1-1.4,0.3-2.1c0.2-0.7,0.5-1.2,0.9-1.7
		c0.4-0.5,0.9-0.9,1.4-1.2c0.6-0.3,1.3-0.4,2-0.4c0.7,0,1.4,0.1,1.9,0.4c0.6,0.3,1,0.6,1.4,1.1c0.4,0.5,0.7,1,0.8,1.6
		c0.2,0.6,0.3,1.3,0.3,1.9c0,0.1,0,0.1,0,0.2c0,0.1,0,0.2,0,0.2H22.1z M29.6,85c0-0.6-0.1-1.1-0.3-1.6c-0.2-0.5-0.4-0.9-0.7-1.3
		c-0.3-0.4-0.7-0.7-1.1-0.9c-0.4-0.2-1-0.3-1.5-0.3c-0.6,0-1.2,0.1-1.6,0.3c-0.5,0.2-0.9,0.5-1.2,0.9c-0.3,0.4-0.6,0.8-0.7,1.3
		c-0.2,0.5-0.3,1-0.3,1.6H29.6z"/>
	<path fill="#FFFFFF" d="M38.7,76.4V85c0,0.3,0,0.6,0,1c0,0.4,0.1,0.8,0.2,1.1c0.1,0.4,0.3,0.8,0.4,1.2c0.2,0.4,0.5,0.7,0.8,1
		c0.3,0.3,0.7,0.5,1.2,0.7c0.5,0.2,1.1,0.3,1.8,0.3c0.9,0,1.6-0.1,2.2-0.4c0.6-0.2,1.1-0.6,1.4-1.1c0.4-0.5,0.6-1,0.8-1.7
		c0.2-0.6,0.2-1.4,0.2-2.2v-8.5h0.9V85c0,0.8-0.1,1.6-0.3,2.4c-0.2,0.7-0.5,1.4-0.9,1.9s-1,1-1.7,1.3c-0.7,0.3-1.6,0.5-2.7,0.5
		c-0.8,0-1.6-0.1-2.2-0.3c-0.6-0.2-1.1-0.5-1.5-0.8c-0.4-0.3-0.7-0.7-0.9-1.2c-0.2-0.4-0.4-0.9-0.5-1.3c-0.1-0.4-0.2-0.9-0.2-1.3
		c0-0.4,0-0.8,0-1.1v-8.5H38.7z"/>
	<path fill="#FFFFFF" d="M50.6,80.4h0.8v2.2h0c0.1-0.4,0.3-0.7,0.6-1c0.2-0.3,0.5-0.6,0.9-0.8c0.3-0.2,0.7-0.4,1.1-0.5
		c0.4-0.1,0.8-0.2,1.2-0.2c0.6,0,1.1,0.1,1.5,0.2c0.4,0.1,0.8,0.3,1,0.6c0.3,0.2,0.5,0.5,0.6,0.8c0.2,0.3,0.3,0.6,0.3,0.9
		c0.1,0.3,0.1,0.6,0.1,0.9c0,0.3,0,0.5,0,0.7v6.3H58v-6.5c0-0.3,0-0.6-0.1-1s-0.2-0.8-0.3-1.1c-0.2-0.4-0.5-0.7-0.9-0.9
		c-0.4-0.3-0.9-0.4-1.6-0.4c-0.6,0-1.1,0.1-1.6,0.3c-0.5,0.2-0.8,0.5-1.2,0.9c-0.3,0.4-0.6,0.8-0.7,1.4s-0.2,1.1-0.2,1.7v5.5h-0.8
		V80.4z"/>
	<path fill="#FFFFFF" d="M60.8,78.5v-2.1h0.8v2.1H60.8z M60.8,90.7V80.4h0.8v10.2H60.8z"/>
	<path fill="#FFFFFF" d="M67.7,81.1h-2.2v7.1c0,0.4,0,0.7,0.1,1c0.1,0.2,0.2,0.4,0.4,0.5c0.2,0.1,0.4,0.2,0.7,0.2c0.3,0,0.6,0,0.9,0
		v0.7c-0.4,0-0.8,0-1.1,0c-0.4,0-0.7-0.1-1-0.3c-0.3-0.2-0.5-0.4-0.7-0.7c-0.2-0.3-0.2-0.8-0.2-1.4v-7.1h-1.9v-0.7h1.9v-3.2h0.8v3.2
		h2.2V81.1z"/>
	<path fill="#FFFFFF" d="M69,85.6v0.1c0,0.6,0.1,1.2,0.2,1.7c0.2,0.5,0.4,1,0.7,1.4c0.3,0.4,0.7,0.7,1.2,1c0.5,0.2,1,0.4,1.6,0.4
		c1,0,1.8-0.3,2.4-0.8c0.6-0.5,1-1.3,1.2-2.2h0.8c-0.2,1.2-0.7,2.1-1.5,2.7c-0.8,0.6-1.7,1-3,1c-0.8,0-1.4-0.1-2-0.4
		c-0.6-0.3-1-0.6-1.4-1.1c-0.4-0.5-0.7-1-0.8-1.7c-0.2-0.6-0.3-1.3-0.3-2.1c0-0.7,0.1-1.4,0.3-2.1c0.2-0.7,0.5-1.2,0.9-1.7
		c0.4-0.5,0.9-0.9,1.4-1.2c0.6-0.3,1.3-0.4,2-0.4c0.7,0,1.4,0.1,1.9,0.4c0.6,0.3,1,0.6,1.4,1.1c0.4,0.5,0.7,1,0.8,1.6
		c0.2,0.6,0.3,1.3,0.3,1.9c0,0.1,0,0.1,0,0.2c0,0.1,0,0.2,0,0.2H69z M76.5,85c0-0.6-0.1-1.1-0.3-1.6c-0.2-0.5-0.4-0.9-0.7-1.3
		c-0.3-0.4-0.7-0.7-1.1-0.9c-0.4-0.2-1-0.3-1.5-0.3c-0.6,0-1.2,0.1-1.6,0.3c-0.5,0.2-0.9,0.5-1.2,0.9c-0.3,0.4-0.6,0.8-0.7,1.3
		c-0.2,0.5-0.3,1-0.3,1.6H76.5z"/>
	<path fill="#FFFFFF" d="M86.9,88.5L86.9,88.5c-0.5,0.8-1,1.4-1.6,1.8c-0.6,0.4-1.4,0.6-2.3,0.6c-0.8,0-1.4-0.1-2-0.4
		c-0.6-0.3-1-0.7-1.4-1.2c-0.4-0.5-0.6-1.1-0.8-1.7c-0.2-0.6-0.3-1.3-0.3-2c0-0.8,0.1-1.5,0.3-2.1c0.2-0.7,0.5-1.2,0.8-1.7
		s0.9-0.9,1.4-1.1c0.6-0.3,1.2-0.4,2-0.4c0.4,0,0.8,0.1,1.2,0.2c0.4,0.1,0.8,0.3,1.1,0.5c0.3,0.2,0.6,0.5,0.9,0.8s0.4,0.7,0.6,1.1h0
		v-6.3h0.8v14.2h-0.8V88.5z M83.1,90.2c0.7,0,1.2-0.1,1.7-0.4c0.5-0.3,0.9-0.6,1.2-1.1c0.3-0.4,0.5-0.9,0.7-1.5
		c0.2-0.6,0.2-1.1,0.2-1.7c0-0.6-0.1-1.2-0.2-1.7c-0.2-0.6-0.4-1.1-0.7-1.5c-0.3-0.4-0.7-0.8-1.2-1.1c-0.5-0.3-1.1-0.4-1.7-0.4
		c-0.7,0-1.3,0.1-1.7,0.4c-0.5,0.3-0.9,0.6-1.2,1c-0.3,0.4-0.5,0.9-0.7,1.5c-0.1,0.6-0.2,1.2-0.2,1.8c0,0.6,0.1,1.2,0.2,1.7
		c0.2,0.6,0.4,1.1,0.7,1.5c0.3,0.4,0.7,0.8,1.2,1C81.9,90.1,82.5,90.2,83.1,90.2z"/>
	<path fill="#FFFFFF" d="M105,80.5c0-0.6-0.2-1.1-0.4-1.6c-0.2-0.5-0.5-0.8-0.9-1.1c-0.4-0.3-0.9-0.5-1.4-0.7
		c-0.6-0.2-1.2-0.2-1.8-0.2c-0.4,0-0.8,0-1.3,0.1c-0.5,0.1-0.9,0.3-1.3,0.5c-0.4,0.2-0.7,0.5-1,0.9c-0.3,0.4-0.4,0.9-0.4,1.5
		c0,0.6,0.1,1,0.4,1.4c0.3,0.4,0.6,0.6,1.1,0.9c0.5,0.2,1,0.4,1.6,0.5c0.6,0.1,1.2,0.3,1.8,0.4c0.6,0.1,1.2,0.3,1.8,0.4
		c0.6,0.2,1.1,0.4,1.6,0.7c0.5,0.3,0.8,0.7,1.1,1.1c0.3,0.5,0.4,1,0.4,1.7c0,0.7-0.2,1.4-0.5,1.9c-0.3,0.5-0.7,0.9-1.2,1.2
		s-1,0.5-1.6,0.7c-0.6,0.1-1.2,0.2-1.7,0.2c-0.8,0-1.6-0.1-2.4-0.3c-0.7-0.2-1.4-0.5-1.9-0.9c-0.5-0.4-1-0.9-1.3-1.6
		c-0.3-0.6-0.5-1.4-0.4-2.3h0.9c0,0.8,0.1,1.4,0.3,2c0.3,0.5,0.6,1,1.1,1.3c0.5,0.3,1,0.6,1.7,0.7c0.6,0.2,1.3,0.2,2,0.2
		c0.4,0,0.9-0.1,1.4-0.2s0.9-0.3,1.3-0.5c0.4-0.3,0.7-0.6,1-1c0.3-0.4,0.4-0.9,0.4-1.6c0-0.6-0.1-1.1-0.4-1.5
		c-0.3-0.4-0.6-0.7-1.1-0.9s-1-0.4-1.6-0.6c-0.6-0.1-1.2-0.3-1.8-0.4c-0.6-0.1-1.2-0.3-1.8-0.4c-0.6-0.2-1.1-0.4-1.6-0.6
		c-0.5-0.3-0.8-0.6-1.1-1.1c-0.3-0.4-0.4-1-0.4-1.7s0.1-1.3,0.4-1.7c0.3-0.5,0.7-0.9,1.1-1.2c0.5-0.3,1-0.5,1.5-0.7
		c0.6-0.1,1.1-0.2,1.7-0.2c0.7,0,1.4,0.1,2.1,0.2c0.6,0.2,1.2,0.4,1.7,0.8c0.5,0.4,0.9,0.8,1.2,1.4c0.3,0.6,0.5,1.2,0.5,2H105z"/>
	<path fill="#FFFFFF" d="M111.5,81.1h-2.2v7.1c0,0.4,0,0.7,0.1,1c0.1,0.2,0.2,0.4,0.4,0.5c0.2,0.1,0.4,0.2,0.7,0.2
		c0.3,0,0.6,0,0.9,0v0.7c-0.4,0-0.8,0-1.1,0c-0.4,0-0.7-0.1-1-0.3c-0.3-0.2-0.5-0.4-0.7-0.7c-0.2-0.3-0.2-0.8-0.2-1.4v-7.1h-1.9
		v-0.7h1.9v-3.2h0.8v3.2h2.2V81.1z"/>
	<path fill="#FFFFFF" d="M119.7,88.6L119.7,88.6c-0.2,0.3-0.3,0.6-0.6,0.9c-0.2,0.3-0.5,0.5-0.8,0.7c-0.3,0.2-0.7,0.4-1.1,0.5
		c-0.4,0.1-0.9,0.2-1.4,0.2c-1.1,0-1.9-0.2-2.5-0.7c-0.6-0.5-0.9-1.2-0.9-2.2c0-0.6,0.1-1.1,0.4-1.5c0.2-0.4,0.5-0.7,0.9-0.9
		s0.8-0.4,1.2-0.5c0.4-0.1,0.9-0.2,1.3-0.2l1.2-0.1c0.5,0,1-0.1,1.3-0.2c0.3-0.1,0.5-0.2,0.7-0.4c0.2-0.2,0.3-0.3,0.3-0.6
		c0-0.2,0.1-0.5,0.1-0.9c0-0.3-0.1-0.5-0.2-0.8c-0.1-0.2-0.3-0.5-0.5-0.6c-0.2-0.2-0.5-0.3-0.9-0.4c-0.4-0.1-0.8-0.2-1.3-0.2
		c-0.9,0-1.7,0.2-2.2,0.7c-0.6,0.5-0.9,1.1-0.9,2.1H113c0.1-1.1,0.4-2,1.1-2.5c0.7-0.6,1.6-0.8,2.9-0.8c1.2,0,2.1,0.2,2.7,0.7
		c0.6,0.5,0.8,1.1,0.8,1.9v6c0,0.1,0,0.3,0,0.4s0,0.3,0.1,0.4c0,0.1,0.1,0.2,0.2,0.3c0.1,0.1,0.2,0.1,0.4,0.1c0.1,0,0.3,0,0.6-0.1
		v0.6c-0.2,0.1-0.4,0.1-0.6,0.1c-0.3,0-0.5,0-0.7-0.1c-0.2-0.1-0.3-0.2-0.4-0.3c-0.1-0.1-0.2-0.3-0.2-0.5c0-0.2,0-0.4,0-0.6V88.6z
		 M119.7,84.8c-0.2,0.2-0.5,0.4-0.8,0.5c-0.4,0.1-0.8,0.1-1.3,0.2l-1.3,0.1c-0.4,0-0.7,0.1-1.1,0.2c-0.4,0.1-0.7,0.2-1,0.4
		c-0.3,0.2-0.5,0.4-0.7,0.7c-0.2,0.3-0.3,0.7-0.3,1.2c0,0.8,0.2,1.3,0.7,1.7c0.5,0.4,1.1,0.5,2,0.5c0.9,0,1.5-0.2,2.1-0.5
		c0.5-0.3,0.9-0.7,1.2-1.1c0.3-0.4,0.4-0.8,0.5-1.2c0.1-0.4,0.1-0.6,0.1-0.8V84.8z"/>
	<path fill="#FFFFFF" d="M126.3,81.1H124v7.1c0,0.4,0,0.7,0.1,1c0.1,0.2,0.2,0.4,0.4,0.5c0.2,0.1,0.4,0.2,0.7,0.2c0.3,0,0.6,0,0.9,0
		v0.7c-0.4,0-0.8,0-1.1,0c-0.4,0-0.7-0.1-1-0.3c-0.3-0.2-0.5-0.4-0.7-0.7c-0.2-0.3-0.2-0.8-0.2-1.4v-7.1h-1.9v-0.7h1.9v-3.2h0.8v3.2
		h2.2V81.1z"/>
	<path fill="#FFFFFF" d="M127.5,85.6v0.1c0,0.6,0.1,1.2,0.2,1.7c0.2,0.5,0.4,1,0.7,1.4c0.3,0.4,0.7,0.7,1.2,1c0.5,0.2,1,0.4,1.6,0.4
		c1,0,1.8-0.3,2.4-0.8c0.6-0.5,1-1.3,1.2-2.2h0.8c-0.2,1.2-0.7,2.1-1.5,2.7c-0.8,0.6-1.7,1-3,1c-0.8,0-1.4-0.1-2-0.4
		c-0.6-0.3-1-0.6-1.4-1.1c-0.4-0.5-0.7-1-0.8-1.7c-0.2-0.6-0.3-1.3-0.3-2.1c0-0.7,0.1-1.4,0.3-2.1c0.2-0.7,0.5-1.2,0.9-1.7
		c0.4-0.5,0.9-0.9,1.4-1.2c0.6-0.3,1.3-0.4,2-0.4c0.7,0,1.4,0.1,1.9,0.4c0.6,0.3,1,0.6,1.4,1.1c0.4,0.5,0.7,1,0.8,1.6
		c0.2,0.6,0.3,1.3,0.3,1.9c0,0.1,0,0.1,0,0.2c0,0.1,0,0.2,0,0.2H127.5z M135.1,85c0-0.6-0.1-1.1-0.3-1.6c-0.2-0.5-0.4-0.9-0.7-1.3
		c-0.3-0.4-0.7-0.7-1.1-0.9c-0.4-0.2-1-0.3-1.5-0.3c-0.6,0-1.2,0.1-1.6,0.3c-0.5,0.2-0.9,0.5-1.2,0.9c-0.3,0.4-0.6,0.8-0.7,1.3
		c-0.2,0.5-0.3,1-0.3,1.6H135.1z"/>
	<path fill="#FFFFFF" d="M137.5,87.3c0,0.5,0.1,0.9,0.3,1.3c0.2,0.4,0.4,0.7,0.7,0.9s0.6,0.5,1,0.6c0.4,0.1,0.8,0.2,1.3,0.2
		c0.3,0,0.7,0,1.1-0.1c0.4-0.1,0.7-0.2,1.1-0.3c0.3-0.2,0.6-0.4,0.8-0.7c0.2-0.3,0.3-0.6,0.3-1.1c0-0.6-0.2-1-0.5-1.3
		c-0.3-0.3-0.8-0.5-1.3-0.7c-0.5-0.2-1.1-0.3-1.7-0.4c-0.6-0.1-1.2-0.2-1.7-0.4c-0.5-0.2-1-0.5-1.3-0.8c-0.3-0.4-0.5-0.9-0.5-1.6
		c0-0.5,0.1-0.9,0.3-1.3c0.2-0.3,0.5-0.6,0.9-0.8c0.4-0.2,0.7-0.3,1.2-0.4c0.4-0.1,0.9-0.1,1.3-0.1c0.5,0,1,0.1,1.5,0.2
		c0.5,0.1,0.9,0.3,1.2,0.6c0.3,0.3,0.6,0.6,0.8,1c0.2,0.4,0.3,0.9,0.3,1.5h-0.8c0-0.5-0.1-0.9-0.2-1.2c-0.2-0.3-0.4-0.6-0.6-0.8
		c-0.3-0.2-0.6-0.4-1-0.5c-0.4-0.1-0.8-0.1-1.2-0.1c-0.3,0-0.7,0-1,0.1c-0.4,0.1-0.7,0.2-0.9,0.3c-0.3,0.2-0.5,0.4-0.7,0.6
		c-0.2,0.3-0.3,0.6-0.3,0.9c0,0.4,0.1,0.7,0.3,1c0.2,0.3,0.5,0.5,0.8,0.6c0.3,0.2,0.7,0.3,1.1,0.4c0.4,0.1,0.8,0.2,1.2,0.3
		c0.5,0.1,1,0.2,1.4,0.3c0.4,0.1,0.8,0.3,1.2,0.5c0.3,0.2,0.6,0.5,0.8,0.8c0.2,0.3,0.3,0.8,0.3,1.3c0,0.6-0.1,1-0.4,1.4
		c-0.3,0.4-0.6,0.6-1,0.9c-0.4,0.2-0.8,0.4-1.3,0.5c-0.5,0.1-0.9,0.1-1.4,0.1c-0.6,0-1.1-0.1-1.6-0.2c-0.5-0.2-0.9-0.4-1.3-0.7
		c-0.4-0.3-0.7-0.7-0.9-1.1c-0.2-0.5-0.3-1-0.3-1.6H137.5z"/>
	<path fill="#FFFFFF" d="M152.8,76.4h9.6v0.8h-8.7v5.7h8.2v0.8h-8.2v6.3h8.8v0.8h-9.7V76.4z"/>
	<path fill="#FFFFFF" d="M167,85.3l-3.7-4.9h1.1l3.2,4.3l3.2-4.3h1l-3.7,4.9l4,5.4h-1l-3.5-4.8l-3.6,4.8h-1L167,85.3z"/>
	<path fill="#FFFFFF" d="M176.9,81.1h-2.2v7.1c0,0.4,0,0.7,0.1,1c0.1,0.2,0.2,0.4,0.4,0.5c0.2,0.1,0.4,0.2,0.7,0.2
		c0.3,0,0.6,0,0.9,0v0.7c-0.4,0-0.8,0-1.1,0c-0.4,0-0.7-0.1-1-0.3c-0.3-0.2-0.5-0.4-0.7-0.7c-0.2-0.3-0.2-0.8-0.2-1.4v-7.1H172v-0.7
		h1.9v-3.2h0.8v3.2h2.2V81.1z"/>
	<path fill="#FFFFFF" d="M179,82.7L179,82.7c0.2-0.3,0.3-0.6,0.6-0.9c0.2-0.3,0.5-0.5,0.9-0.8c0.4-0.2,0.7-0.4,1.2-0.5
		s0.9-0.2,1.3-0.2v0.8c-0.4-0.1-0.9,0-1.4,0.1c-0.5,0.1-1,0.4-1.5,0.9c-0.2,0.2-0.3,0.4-0.5,0.6s-0.3,0.4-0.3,0.6
		c-0.1,0.2-0.2,0.5-0.2,0.8c-0.1,0.3-0.1,0.6-0.1,1v5.6h-0.8V80.4h0.8V82.7z"/>
	<path fill="#FFFFFF" d="M189.8,88.6L189.8,88.6c-0.2,0.3-0.3,0.6-0.6,0.9c-0.2,0.3-0.5,0.5-0.8,0.7c-0.3,0.2-0.7,0.4-1.1,0.5
		c-0.4,0.1-0.9,0.2-1.4,0.2c-1.1,0-1.9-0.2-2.5-0.7c-0.6-0.5-0.9-1.2-0.9-2.2c0-0.6,0.1-1.1,0.4-1.5c0.2-0.4,0.5-0.7,0.9-0.9
		s0.8-0.4,1.2-0.5c0.4-0.1,0.9-0.2,1.3-0.2l1.2-0.1c0.5,0,1-0.1,1.3-0.2c0.3-0.1,0.5-0.2,0.7-0.4c0.2-0.2,0.3-0.3,0.3-0.6
		c0-0.2,0.1-0.5,0.1-0.9c0-0.3-0.1-0.5-0.2-0.8c-0.1-0.2-0.3-0.5-0.5-0.6c-0.2-0.2-0.5-0.3-0.9-0.4s-0.8-0.2-1.3-0.2
		c-0.9,0-1.7,0.2-2.2,0.7c-0.6,0.5-0.9,1.1-0.9,2.1H183c0.1-1.1,0.4-2,1.1-2.5c0.7-0.6,1.6-0.8,2.9-0.8c1.2,0,2.1,0.2,2.7,0.7
		c0.6,0.5,0.8,1.1,0.8,1.9v6c0,0.1,0,0.3,0,0.4c0,0.1,0,0.3,0.1,0.4c0,0.1,0.1,0.2,0.2,0.3c0.1,0.1,0.2,0.1,0.4,0.1
		c0.1,0,0.3,0,0.6-0.1v0.6c-0.2,0.1-0.4,0.1-0.6,0.1c-0.3,0-0.5,0-0.7-0.1c-0.2-0.1-0.3-0.2-0.4-0.3c-0.1-0.1-0.2-0.3-0.2-0.5
		c0-0.2,0-0.4,0-0.6V88.6z M189.8,84.8c-0.2,0.2-0.5,0.4-0.8,0.5c-0.4,0.1-0.8,0.1-1.3,0.2l-1.3,0.1c-0.4,0-0.7,0.1-1.1,0.2
		c-0.4,0.1-0.7,0.2-1,0.4c-0.3,0.2-0.5,0.4-0.7,0.7c-0.2,0.3-0.3,0.7-0.3,1.2c0,0.8,0.2,1.3,0.7,1.7c0.5,0.4,1.1,0.5,2,0.5
		c0.9,0,1.5-0.2,2.1-0.5c0.5-0.3,0.9-0.7,1.2-1.1c0.3-0.4,0.4-0.8,0.5-1.2c0.1-0.4,0.1-0.6,0.1-0.8V84.8z"/>
	<path fill="#FFFFFF" d="M200.6,83.6c0-0.5-0.2-0.8-0.3-1.2c-0.2-0.3-0.4-0.6-0.7-0.9c-0.3-0.2-0.7-0.4-1.1-0.5
		c-0.4-0.1-0.8-0.2-1.3-0.2c-0.6,0-1.2,0.1-1.7,0.4c-0.5,0.3-0.9,0.6-1.2,1c-0.3,0.4-0.6,0.9-0.8,1.5c-0.2,0.6-0.3,1.1-0.3,1.7
		c0,0.7,0.1,1.3,0.2,1.9c0.2,0.6,0.4,1.1,0.7,1.5c0.3,0.4,0.7,0.8,1.2,1c0.5,0.2,1.1,0.4,1.7,0.4c0.5,0,0.9-0.1,1.3-0.2
		c0.4-0.2,0.8-0.4,1.1-0.7c0.3-0.3,0.6-0.6,0.8-1c0.2-0.4,0.3-0.8,0.4-1.3h0.8c-0.1,0.6-0.2,1.2-0.5,1.6c-0.3,0.5-0.6,0.9-1,1.2
		c-0.4,0.3-0.8,0.6-1.3,0.7c-0.5,0.2-1,0.3-1.6,0.3c-0.8,0-1.5-0.1-2.1-0.4c-0.6-0.3-1.1-0.7-1.5-1.2c-0.4-0.5-0.7-1.1-0.8-1.7
		s-0.3-1.3-0.3-2.1c0-0.7,0.1-1.4,0.3-2c0.2-0.6,0.5-1.2,0.9-1.7c0.4-0.5,0.9-0.9,1.5-1.1c0.6-0.3,1.3-0.4,2-0.4
		c0.6,0,1.1,0.1,1.6,0.2c0.5,0.1,0.9,0.3,1.3,0.6c0.4,0.3,0.7,0.6,0.9,1.1s0.4,0.9,0.4,1.5H200.6z"/>
	<path fill="#FFFFFF" d="M206.6,81.1h-2.2v7.1c0,0.4,0,0.7,0.1,1c0.1,0.2,0.2,0.4,0.4,0.5c0.2,0.1,0.4,0.2,0.7,0.2
		c0.3,0,0.6,0,0.9,0v0.7c-0.4,0-0.8,0-1.1,0c-0.4,0-0.7-0.1-1-0.3c-0.3-0.2-0.5-0.4-0.7-0.7c-0.2-0.3-0.2-0.8-0.2-1.4v-7.1h-1.9
		v-0.7h1.9v-3.2h0.8v3.2h2.2V81.1z"/>
	<path fill="#FFFFFF" d="M208.2,78.5v-2.1h0.8v2.1H208.2z M208.2,90.7V80.4h0.8v10.2H208.2z"/>
	<path fill="#FFFFFF" d="M214.9,90.7H214l-4.1-10.2h0.9l3.7,9.4h0l3.5-9.4h0.8L214.9,90.7z"/>
	<path fill="#FFFFFF" d="M219.7,85.6v0.1c0,0.6,0.1,1.2,0.2,1.7c0.2,0.5,0.4,1,0.7,1.4c0.3,0.4,0.7,0.7,1.2,1c0.5,0.2,1,0.4,1.6,0.4
		c1,0,1.8-0.3,2.4-0.8c0.6-0.5,1-1.3,1.2-2.2h0.8c-0.2,1.2-0.7,2.1-1.5,2.7c-0.8,0.6-1.7,1-3,1c-0.8,0-1.4-0.1-2-0.4
		c-0.6-0.3-1-0.6-1.4-1.1c-0.4-0.5-0.7-1-0.8-1.7c-0.2-0.6-0.3-1.3-0.3-2.1c0-0.7,0.1-1.4,0.3-2.1c0.2-0.7,0.5-1.2,0.9-1.7
		c0.4-0.5,0.9-0.9,1.4-1.2c0.6-0.3,1.3-0.4,2-0.4c0.7,0,1.4,0.1,1.9,0.4c0.6,0.3,1,0.6,1.4,1.1c0.4,0.5,0.7,1,0.8,1.6
		c0.2,0.6,0.3,1.3,0.3,1.9c0,0.1,0,0.1,0,0.2c0,0.1,0,0.2,0,0.2H219.7z M227.2,85c0-0.6-0.1-1.1-0.3-1.6c-0.2-0.5-0.4-0.9-0.7-1.3
		c-0.3-0.4-0.7-0.7-1.1-0.9c-0.4-0.2-1-0.3-1.5-0.3c-0.6,0-1.2,0.1-1.6,0.3c-0.5,0.2-0.9,0.5-1.2,0.9c-0.3,0.4-0.6,0.8-0.7,1.3
		c-0.2,0.5-0.3,1-0.3,1.6H227.2z"/>
	<path fill="#FFFFFF" d="M235.4,76.4h0.9v14.2h-0.9V76.4z"/>
	<path fill="#FFFFFF" d="M238.3,80.4h0.8v2.2h0c0.1-0.4,0.3-0.7,0.6-1c0.2-0.3,0.5-0.6,0.9-0.8c0.3-0.2,0.7-0.4,1.1-0.5
		c0.4-0.1,0.8-0.2,1.2-0.2c0.6,0,1.1,0.1,1.5,0.2c0.4,0.1,0.8,0.3,1,0.6c0.3,0.2,0.5,0.5,0.6,0.8c0.2,0.3,0.3,0.6,0.3,0.9
		c0.1,0.3,0.1,0.6,0.1,0.9c0,0.3,0,0.5,0,0.7v6.3h-0.8v-6.5c0-0.3,0-0.6-0.1-1c0-0.4-0.2-0.8-0.3-1.1c-0.2-0.4-0.5-0.7-0.9-0.9
		c-0.4-0.3-0.9-0.4-1.6-0.4c-0.6,0-1.1,0.1-1.6,0.3c-0.5,0.2-0.8,0.5-1.2,0.9c-0.3,0.4-0.6,0.8-0.7,1.4c-0.2,0.5-0.2,1.1-0.2,1.7
		v5.5h-0.8V80.4z"/>
	<path fill="#FFFFFF" d="M256.5,88.5L256.5,88.5c-0.5,0.8-1,1.4-1.6,1.8c-0.6,0.4-1.4,0.6-2.3,0.6c-0.8,0-1.4-0.1-2-0.4
		c-0.6-0.3-1-0.7-1.4-1.2c-0.4-0.5-0.6-1.1-0.8-1.7c-0.2-0.6-0.3-1.3-0.3-2c0-0.8,0.1-1.5,0.3-2.1c0.2-0.7,0.5-1.2,0.8-1.7
		c0.4-0.5,0.9-0.9,1.4-1.1c0.6-0.3,1.2-0.4,2-0.4c0.4,0,0.8,0.1,1.2,0.2c0.4,0.1,0.8,0.3,1.1,0.5c0.3,0.2,0.6,0.5,0.9,0.8
		c0.3,0.3,0.4,0.7,0.6,1.1h0v-6.3h0.8v14.2h-0.8V88.5z M252.7,90.2c0.6,0,1.2-0.1,1.7-0.4c0.5-0.3,0.9-0.6,1.2-1.1
		c0.3-0.4,0.5-0.9,0.7-1.5c0.2-0.6,0.2-1.1,0.2-1.7c0-0.6-0.1-1.2-0.2-1.7c-0.2-0.6-0.4-1.1-0.7-1.5c-0.3-0.4-0.7-0.8-1.2-1.1
		c-0.5-0.3-1.1-0.4-1.7-0.4c-0.7,0-1.3,0.1-1.7,0.4c-0.5,0.3-0.9,0.6-1.2,1c-0.3,0.4-0.5,0.9-0.7,1.5c-0.1,0.6-0.2,1.2-0.2,1.8
		c0,0.6,0.1,1.2,0.2,1.7c0.2,0.6,0.4,1.1,0.7,1.5c0.3,0.4,0.7,0.8,1.2,1C251.5,90.1,252.1,90.2,252.7,90.2z"/>
	<path fill="#FFFFFF" d="M267.4,90.7h-0.8v-2.2h0c-0.1,0.4-0.3,0.7-0.6,1c-0.2,0.3-0.5,0.6-0.9,0.8s-0.7,0.4-1.1,0.5
		c-0.4,0.1-0.8,0.2-1.2,0.2c-0.6,0-1.1-0.1-1.5-0.2c-0.4-0.1-0.8-0.3-1-0.6c-0.3-0.2-0.5-0.5-0.6-0.8c-0.2-0.3-0.3-0.6-0.3-0.9
		c-0.1-0.3-0.1-0.6-0.1-0.9s0-0.5,0-0.7v-6.3h0.8v6.5c0,0.3,0,0.6,0.1,1c0,0.4,0.2,0.7,0.3,1.1c0.2,0.4,0.5,0.7,0.9,0.9
		c0.4,0.3,0.9,0.4,1.6,0.4c0.6,0,1.1-0.1,1.5-0.3c0.5-0.2,0.8-0.5,1.2-0.9s0.6-0.8,0.7-1.4c0.2-0.5,0.2-1.1,0.2-1.7v-5.5h0.8V90.7z"
		/>
	<path fill="#FFFFFF" d="M269.6,87.3c0,0.5,0.1,0.9,0.3,1.3c0.2,0.4,0.4,0.7,0.7,0.9c0.3,0.3,0.6,0.5,1,0.6c0.4,0.1,0.8,0.2,1.3,0.2
		c0.3,0,0.7,0,1.1-0.1c0.4-0.1,0.7-0.2,1.1-0.3c0.3-0.2,0.6-0.4,0.8-0.7c0.2-0.3,0.3-0.6,0.3-1.1c0-0.6-0.2-1-0.5-1.3
		c-0.3-0.3-0.8-0.5-1.3-0.7c-0.5-0.2-1.1-0.3-1.7-0.4c-0.6-0.1-1.2-0.2-1.7-0.4c-0.5-0.2-1-0.5-1.3-0.8c-0.3-0.4-0.5-0.9-0.5-1.6
		c0-0.5,0.1-0.9,0.3-1.3c0.2-0.3,0.5-0.6,0.9-0.8c0.4-0.2,0.7-0.3,1.2-0.4c0.4-0.1,0.9-0.1,1.3-0.1c0.5,0,1,0.1,1.5,0.2
		c0.5,0.1,0.9,0.3,1.2,0.6c0.3,0.3,0.6,0.6,0.8,1c0.2,0.4,0.3,0.9,0.3,1.5h-0.8c0-0.5-0.1-0.9-0.2-1.2c-0.2-0.3-0.4-0.6-0.6-0.8
		c-0.3-0.2-0.6-0.4-1-0.5c-0.4-0.1-0.8-0.1-1.2-0.1c-0.3,0-0.7,0-1,0.1c-0.4,0.1-0.7,0.2-0.9,0.3c-0.3,0.2-0.5,0.4-0.7,0.6
		c-0.2,0.3-0.3,0.6-0.3,0.9c0,0.4,0.1,0.7,0.3,1c0.2,0.3,0.5,0.5,0.8,0.6c0.3,0.2,0.7,0.3,1.1,0.4c0.4,0.1,0.8,0.2,1.2,0.3
		c0.5,0.1,1,0.2,1.4,0.3c0.4,0.1,0.8,0.3,1.2,0.5c0.3,0.2,0.6,0.5,0.8,0.8c0.2,0.3,0.3,0.8,0.3,1.3c0,0.6-0.1,1-0.4,1.4
		s-0.6,0.6-1,0.9c-0.4,0.2-0.8,0.4-1.3,0.5c-0.5,0.1-0.9,0.1-1.4,0.1c-0.6,0-1.1-0.1-1.6-0.2c-0.5-0.2-0.9-0.4-1.3-0.7
		c-0.4-0.3-0.7-0.7-0.9-1.1c-0.2-0.5-0.3-1-0.3-1.6H269.6z"/>
	<path fill="#FFFFFF" d="M282.6,81.1h-2.2v7.1c0,0.4,0,0.7,0.1,1c0.1,0.2,0.2,0.4,0.4,0.5c0.2,0.1,0.4,0.2,0.7,0.2
		c0.3,0,0.6,0,0.9,0v0.7c-0.4,0-0.8,0-1.1,0s-0.7-0.1-1-0.3c-0.3-0.2-0.5-0.4-0.7-0.7c-0.2-0.3-0.2-0.8-0.2-1.4v-7.1h-1.9v-0.7h1.9
		v-3.2h0.8v3.2h2.2V81.1z"/>
	<path fill="#FFFFFF" d="M284.7,82.7L284.7,82.7c0.2-0.3,0.3-0.6,0.6-0.9c0.2-0.3,0.5-0.5,0.9-0.8s0.7-0.4,1.2-0.5
		c0.4-0.1,0.9-0.2,1.3-0.2v0.8c-0.4-0.1-0.9,0-1.4,0.1c-0.5,0.1-1,0.4-1.5,0.9c-0.2,0.2-0.3,0.4-0.5,0.6c-0.1,0.2-0.3,0.4-0.3,0.6
		c-0.1,0.2-0.2,0.5-0.2,0.8c-0.1,0.3-0.1,0.6-0.1,1v5.6H284V80.4h0.8V82.7z"/>
	<path fill="#FFFFFF" d="M290.1,78.5v-2.1h0.8v2.1H290.1z M290.1,90.7V80.4h0.8v10.2H290.1z"/>
	<path fill="#FFFFFF" d="M292.7,85.6v0.1c0,0.6,0.1,1.2,0.2,1.7c0.2,0.5,0.4,1,0.7,1.4c0.3,0.4,0.7,0.7,1.2,1c0.5,0.2,1,0.4,1.6,0.4
		c1,0,1.8-0.3,2.4-0.8c0.6-0.5,1-1.3,1.2-2.2h0.8c-0.2,1.2-0.7,2.1-1.5,2.7c-0.8,0.6-1.7,1-3,1c-0.8,0-1.4-0.1-2-0.4
		c-0.6-0.3-1-0.6-1.4-1.1c-0.4-0.5-0.7-1-0.8-1.7c-0.2-0.6-0.3-1.3-0.3-2.1c0-0.7,0.1-1.4,0.3-2.1c0.2-0.7,0.5-1.2,0.9-1.7
		c0.4-0.5,0.9-0.9,1.4-1.2c0.6-0.3,1.3-0.4,2-0.4c0.7,0,1.4,0.1,1.9,0.4c0.6,0.3,1,0.6,1.4,1.1c0.4,0.5,0.7,1,0.8,1.6
		c0.2,0.6,0.3,1.3,0.3,1.9c0,0.1,0,0.1,0,0.2c0,0.1,0,0.2,0,0.2H292.7z M300.3,85c0-0.6-0.1-1.1-0.3-1.6c-0.2-0.5-0.4-0.9-0.7-1.3
		c-0.3-0.4-0.7-0.7-1.1-0.9c-0.4-0.2-1-0.3-1.5-0.3c-0.6,0-1.2,0.1-1.6,0.3c-0.5,0.2-0.9,0.5-1.2,0.9c-0.3,0.4-0.6,0.8-0.7,1.3
		c-0.2,0.5-0.3,1-0.3,1.6H300.3z"/>
	<path fill="#FFFFFF" d="M303.1,87.3c0,0.5,0.1,0.9,0.3,1.3c0.2,0.4,0.4,0.7,0.7,0.9c0.3,0.3,0.6,0.5,1,0.6c0.4,0.1,0.8,0.2,1.3,0.2
		c0.3,0,0.7,0,1.1-0.1c0.4-0.1,0.7-0.2,1.1-0.3c0.3-0.2,0.6-0.4,0.8-0.7c0.2-0.3,0.3-0.6,0.3-1.1c0-0.6-0.2-1-0.5-1.3
		c-0.3-0.3-0.8-0.5-1.3-0.7c-0.5-0.2-1.1-0.3-1.7-0.4c-0.6-0.1-1.2-0.2-1.7-0.4c-0.5-0.2-1-0.5-1.3-0.8c-0.3-0.4-0.5-0.9-0.5-1.6
		c0-0.5,0.1-0.9,0.3-1.3c0.2-0.3,0.5-0.6,0.9-0.8c0.4-0.2,0.7-0.3,1.2-0.4c0.4-0.1,0.9-0.1,1.3-0.1c0.5,0,1,0.1,1.5,0.2
		c0.5,0.1,0.9,0.3,1.2,0.6c0.3,0.3,0.6,0.6,0.8,1c0.2,0.4,0.3,0.9,0.3,1.5h-0.8c0-0.5-0.1-0.9-0.2-1.2c-0.2-0.3-0.4-0.6-0.6-0.8
		c-0.3-0.2-0.6-0.4-1-0.5c-0.4-0.1-0.8-0.1-1.2-0.1c-0.3,0-0.7,0-1,0.1c-0.4,0.1-0.7,0.2-0.9,0.3c-0.3,0.2-0.5,0.4-0.7,0.6
		c-0.2,0.3-0.3,0.6-0.3,0.9c0,0.4,0.1,0.7,0.3,1c0.2,0.3,0.5,0.5,0.8,0.6c0.3,0.2,0.7,0.3,1.1,0.4c0.4,0.1,0.8,0.2,1.2,0.3
		c0.5,0.1,1,0.2,1.4,0.3c0.4,0.1,0.8,0.3,1.2,0.5c0.3,0.2,0.6,0.5,0.8,0.8c0.2,0.3,0.3,0.8,0.3,1.3c0,0.6-0.1,1-0.4,1.4
		c-0.3,0.4-0.6,0.6-1,0.9s-0.8,0.4-1.3,0.5c-0.5,0.1-0.9,0.1-1.4,0.1c-0.6,0-1.1-0.1-1.6-0.2c-0.5-0.2-0.9-0.4-1.3-0.7
		c-0.4-0.3-0.7-0.7-0.9-1.1c-0.2-0.5-0.3-1-0.3-1.6H303.1z"/>
	<path fill="#FFFFFF" d="M0.1,99v-0.8H11V99H6v13.5H5.1V99H0.1z"/>
	<path fill="#FFFFFF" d="M10.7,104.5L10.7,104.5c0.2-0.3,0.3-0.6,0.6-0.9c0.2-0.3,0.5-0.5,0.9-0.8c0.4-0.2,0.7-0.4,1.2-0.5
		c0.4-0.1,0.9-0.2,1.3-0.2v0.8c-0.4-0.1-0.9,0-1.4,0.1c-0.5,0.1-1,0.4-1.5,0.9c-0.2,0.2-0.3,0.4-0.5,0.6c-0.1,0.2-0.3,0.4-0.3,0.6
		c-0.1,0.2-0.2,0.5-0.2,0.8c-0.1,0.3-0.1,0.6-0.1,1v5.6H9.9v-10.2h0.8V104.5z"/>
	<path fill="#FFFFFF" d="M21.9,110.4L21.9,110.4c-0.2,0.3-0.3,0.6-0.6,0.9c-0.2,0.3-0.5,0.5-0.8,0.7c-0.3,0.2-0.7,0.4-1.1,0.5
		c-0.4,0.1-0.9,0.2-1.4,0.2c-1.1,0-1.9-0.2-2.5-0.7c-0.6-0.5-0.9-1.2-0.9-2.2c0-0.6,0.1-1.1,0.4-1.5c0.2-0.4,0.5-0.7,0.9-0.9
		c0.4-0.2,0.8-0.4,1.2-0.5c0.4-0.1,0.9-0.2,1.3-0.2l1.2-0.1c0.5,0,1-0.1,1.3-0.2c0.3-0.1,0.5-0.2,0.7-0.4c0.2-0.2,0.3-0.3,0.3-0.6
		c0-0.2,0.1-0.5,0.1-0.9c0-0.3-0.1-0.5-0.2-0.8c-0.1-0.2-0.3-0.5-0.5-0.6c-0.2-0.2-0.5-0.3-0.9-0.4c-0.4-0.1-0.8-0.2-1.3-0.2
		c-0.9,0-1.7,0.2-2.2,0.7c-0.6,0.5-0.9,1.1-0.9,2.1h-0.8c0.1-1.1,0.4-2,1.1-2.5c0.7-0.6,1.6-0.8,2.9-0.8c1.2,0,2.1,0.2,2.7,0.7
		c0.6,0.5,0.8,1.1,0.8,1.9v6c0,0.1,0,0.3,0,0.4c0,0.1,0,0.3,0.1,0.4c0,0.1,0.1,0.2,0.2,0.3c0.1,0.1,0.2,0.1,0.4,0.1
		c0.1,0,0.3,0,0.6-0.1v0.6c-0.2,0.1-0.4,0.1-0.6,0.1c-0.3,0-0.5,0-0.7-0.1c-0.2-0.1-0.3-0.2-0.4-0.3c-0.1-0.1-0.2-0.3-0.2-0.5
		c0-0.2,0-0.4,0-0.6V110.4z M21.9,106.7c-0.2,0.2-0.5,0.4-0.8,0.5c-0.4,0.1-0.8,0.1-1.3,0.2l-1.3,0.1c-0.4,0-0.7,0.1-1.1,0.2
		c-0.4,0.1-0.7,0.2-1,0.4c-0.3,0.2-0.5,0.4-0.7,0.7c-0.2,0.3-0.3,0.7-0.3,1.2c0,0.8,0.2,1.3,0.7,1.7c0.5,0.4,1.1,0.5,2,0.5
		c0.9,0,1.5-0.2,2.1-0.5c0.5-0.3,0.9-0.7,1.2-1.1c0.3-0.4,0.4-0.8,0.5-1.2c0.1-0.4,0.1-0.6,0.1-0.8V106.7z"/>
	<path fill="#FFFFFF" d="M25,102.2h0.8v2.2h0c0.1-0.4,0.3-0.7,0.6-1c0.2-0.3,0.5-0.6,0.9-0.8c0.3-0.2,0.7-0.4,1.1-0.5
		c0.4-0.1,0.8-0.2,1.2-0.2c0.6,0,1.1,0.1,1.5,0.2c0.4,0.1,0.8,0.3,1,0.6c0.3,0.2,0.5,0.5,0.6,0.8c0.2,0.3,0.3,0.6,0.3,0.9
		c0.1,0.3,0.1,0.6,0.1,0.9c0,0.3,0,0.5,0,0.7v6.3h-0.8V106c0-0.3,0-0.6-0.1-1c0-0.4-0.2-0.8-0.3-1.1c-0.2-0.4-0.5-0.7-0.9-0.9
		c-0.4-0.3-0.9-0.4-1.6-0.4c-0.6,0-1.1,0.1-1.6,0.3c-0.5,0.2-0.8,0.5-1.2,0.9c-0.3,0.4-0.6,0.8-0.7,1.4s-0.2,1.1-0.2,1.7v5.5H25
		V102.2z"/>
	<path fill="#FFFFFF" d="M35.3,109.1c0,0.5,0.1,0.9,0.3,1.3c0.2,0.4,0.4,0.7,0.7,0.9s0.6,0.5,1,0.6c0.4,0.1,0.8,0.2,1.3,0.2
		c0.3,0,0.7,0,1.1-0.1c0.4-0.1,0.7-0.2,1.1-0.3c0.3-0.2,0.6-0.4,0.8-0.7c0.2-0.3,0.3-0.6,0.3-1.1c0-0.6-0.2-1-0.5-1.3
		c-0.3-0.3-0.8-0.5-1.3-0.7c-0.5-0.2-1.1-0.3-1.7-0.4c-0.6-0.1-1.2-0.2-1.7-0.4c-0.5-0.2-1-0.5-1.3-0.8c-0.3-0.4-0.5-0.9-0.5-1.6
		c0-0.5,0.1-0.9,0.3-1.3c0.2-0.3,0.5-0.6,0.9-0.8c0.4-0.2,0.7-0.3,1.2-0.4c0.4-0.1,0.9-0.1,1.3-0.1c0.5,0,1,0.1,1.5,0.2
		c0.5,0.1,0.9,0.3,1.2,0.6c0.3,0.3,0.6,0.6,0.8,1c0.2,0.4,0.3,0.9,0.3,1.5h-0.8c0-0.5-0.1-0.9-0.2-1.2c-0.2-0.3-0.4-0.6-0.6-0.8
		c-0.3-0.2-0.6-0.4-1-0.5c-0.4-0.1-0.8-0.1-1.2-0.1c-0.3,0-0.7,0-1,0.1c-0.4,0.1-0.7,0.2-0.9,0.3c-0.3,0.2-0.5,0.4-0.7,0.6
		c-0.2,0.3-0.3,0.6-0.3,0.9c0,0.4,0.1,0.7,0.3,1c0.2,0.3,0.5,0.5,0.8,0.6c0.3,0.2,0.7,0.3,1.1,0.4c0.4,0.1,0.8,0.2,1.2,0.3
		c0.5,0.1,1,0.2,1.4,0.3c0.4,0.1,0.8,0.3,1.2,0.5c0.3,0.2,0.6,0.5,0.8,0.8c0.2,0.3,0.3,0.8,0.3,1.3c0,0.6-0.1,1-0.4,1.4
		c-0.3,0.4-0.6,0.6-1,0.9s-0.8,0.4-1.3,0.5c-0.5,0.1-0.9,0.1-1.4,0.1c-0.6,0-1.1-0.1-1.6-0.2c-0.5-0.2-0.9-0.4-1.3-0.7
		c-0.4-0.3-0.7-0.7-0.9-1.1c-0.2-0.5-0.3-1-0.3-1.6H35.3z"/>
	<path fill="#FFFFFF" d="M45.1,104.6L45.1,104.6c0.1-0.3,0.3-0.5,0.5-0.8c0.2-0.3,0.4-0.6,0.7-0.8c0.3-0.3,0.7-0.5,1.1-0.6
		c0.4-0.2,0.9-0.3,1.5-0.3c0.8,0,1.5,0.1,2,0.4c0.6,0.3,1.1,0.7,1.4,1.2c0.4,0.5,0.7,1.1,0.8,1.7c0.2,0.7,0.3,1.3,0.3,2.1
		c0,0.8-0.1,1.5-0.3,2.2c-0.2,0.6-0.5,1.2-0.8,1.7c-0.4,0.5-0.9,0.8-1.4,1.1c-0.6,0.3-1.3,0.4-2,0.4c-0.9,0-1.6-0.2-2.3-0.6
		c-0.7-0.4-1.2-1-1.5-1.8h0l0,5.8h-0.7v-13.9h0.7V104.6z M48.8,112.1c0.7,0,1.2-0.1,1.7-0.4c0.5-0.3,0.9-0.6,1.2-1
		c0.3-0.4,0.5-0.9,0.7-1.5c0.2-0.6,0.2-1.2,0.2-1.8c0-0.6-0.1-1.2-0.2-1.7c-0.1-0.6-0.4-1.1-0.7-1.5s-0.7-0.8-1.2-1.1
		c-0.5-0.3-1.1-0.4-1.8-0.4c-0.7,0-1.3,0.1-1.7,0.4c-0.5,0.3-0.9,0.6-1.2,1.1c-0.3,0.4-0.5,0.9-0.6,1.5c-0.1,0.6-0.2,1.2-0.2,1.8
		c0,0.6,0.1,1.2,0.2,1.8c0.1,0.6,0.3,1.1,0.6,1.5s0.7,0.8,1.2,1C47.5,111.9,48.1,112.1,48.8,112.1z"/>
	<path fill="#FFFFFF" d="M62,110.4L62,110.4c-0.2,0.3-0.3,0.6-0.6,0.9c-0.2,0.3-0.5,0.5-0.8,0.7c-0.3,0.2-0.7,0.4-1.1,0.5
		c-0.4,0.1-0.9,0.2-1.4,0.2c-1.1,0-1.9-0.2-2.5-0.7c-0.6-0.5-0.9-1.2-0.9-2.2c0-0.6,0.1-1.1,0.4-1.5c0.2-0.4,0.5-0.7,0.9-0.9
		s0.8-0.4,1.2-0.5c0.4-0.1,0.9-0.2,1.3-0.2l1.2-0.1c0.5,0,1-0.1,1.3-0.2c0.3-0.1,0.5-0.2,0.7-0.4c0.2-0.2,0.3-0.3,0.3-0.6
		c0-0.2,0.1-0.5,0.1-0.9c0-0.3-0.1-0.5-0.2-0.8c-0.1-0.2-0.3-0.5-0.5-0.6c-0.2-0.2-0.5-0.3-0.9-0.4c-0.4-0.1-0.8-0.2-1.3-0.2
		c-0.9,0-1.7,0.2-2.2,0.7c-0.6,0.5-0.9,1.1-0.9,2.1h-0.8c0.1-1.1,0.4-2,1.1-2.5c0.7-0.6,1.6-0.8,2.9-0.8s2.1,0.2,2.7,0.7
		c0.6,0.5,0.8,1.1,0.8,1.9v6c0,0.1,0,0.3,0,0.4c0,0.1,0,0.3,0.1,0.4c0,0.1,0.1,0.2,0.2,0.3c0.1,0.1,0.2,0.1,0.4,0.1
		c0.1,0,0.3,0,0.6-0.1v0.6c-0.2,0.1-0.4,0.1-0.6,0.1c-0.3,0-0.5,0-0.7-0.1c-0.2-0.1-0.3-0.2-0.4-0.3c-0.1-0.1-0.2-0.3-0.2-0.5
		s0-0.4,0-0.6V110.4z M62,106.7c-0.2,0.2-0.5,0.4-0.8,0.5c-0.4,0.1-0.8,0.1-1.3,0.2l-1.3,0.1c-0.4,0-0.7,0.1-1.1,0.2
		c-0.4,0.1-0.7,0.2-1,0.4c-0.3,0.2-0.5,0.4-0.7,0.7c-0.2,0.3-0.3,0.7-0.3,1.2c0,0.8,0.2,1.3,0.7,1.7c0.5,0.4,1.1,0.5,2,0.5
		c0.9,0,1.5-0.2,2.1-0.5c0.5-0.3,0.9-0.7,1.2-1.1c0.3-0.4,0.4-0.8,0.5-1.2c0.1-0.4,0.1-0.6,0.1-0.8V106.7z"/>
	<path fill="#FFFFFF" d="M65.9,104.5L65.9,104.5c0.2-0.3,0.3-0.6,0.6-0.9c0.2-0.3,0.5-0.5,0.9-0.8c0.4-0.2,0.7-0.4,1.2-0.5
		c0.4-0.1,0.9-0.2,1.3-0.2v0.8c-0.4-0.1-0.9,0-1.4,0.1c-0.5,0.1-1,0.4-1.5,0.9c-0.2,0.2-0.3,0.4-0.5,0.6c-0.1,0.2-0.3,0.4-0.3,0.6
		c-0.1,0.2-0.2,0.5-0.2,0.8c-0.1,0.3-0.1,0.6-0.1,1v5.6h-0.8v-10.2h0.8V104.5z"/>
	<path fill="#FFFFFF" d="M70.8,107.5v0.1c0,0.6,0.1,1.2,0.2,1.7c0.2,0.5,0.4,1,0.7,1.4c0.3,0.4,0.7,0.7,1.2,1c0.5,0.2,1,0.4,1.6,0.4
		c1,0,1.8-0.3,2.4-0.8c0.6-0.5,1-1.3,1.2-2.2H79c-0.2,1.2-0.7,2.1-1.5,2.7c-0.8,0.6-1.7,1-3,1c-0.8,0-1.4-0.1-2-0.4
		c-0.6-0.3-1-0.6-1.4-1.1c-0.4-0.5-0.7-1-0.8-1.7c-0.2-0.6-0.3-1.3-0.3-2.1c0-0.7,0.1-1.4,0.3-2.1c0.2-0.7,0.5-1.2,0.9-1.7
		c0.4-0.5,0.9-0.9,1.4-1.2c0.6-0.3,1.3-0.4,2-0.4c0.7,0,1.4,0.1,1.9,0.4c0.6,0.3,1,0.6,1.4,1.1c0.4,0.5,0.7,1,0.8,1.6
		c0.2,0.6,0.3,1.3,0.3,1.9c0,0.1,0,0.1,0,0.2c0,0.1,0,0.2,0,0.2H70.8z M78.3,106.8c0-0.6-0.1-1.1-0.3-1.6c-0.2-0.5-0.4-0.9-0.7-1.3
		c-0.3-0.4-0.7-0.7-1.1-0.9c-0.4-0.2-1-0.3-1.5-0.3c-0.6,0-1.2,0.1-1.6,0.3c-0.5,0.2-0.9,0.5-1.2,0.9s-0.6,0.8-0.7,1.3
		c-0.2,0.5-0.3,1-0.3,1.6H78.3z"/>
	<path fill="#FFFFFF" d="M80.8,102.2h0.8v2.2h0c0.1-0.4,0.3-0.7,0.6-1c0.2-0.3,0.5-0.6,0.9-0.8c0.3-0.2,0.7-0.4,1.1-0.5
		c0.4-0.1,0.8-0.2,1.2-0.2c0.6,0,1.1,0.1,1.5,0.2c0.4,0.1,0.8,0.3,1,0.6c0.3,0.2,0.5,0.5,0.6,0.8c0.2,0.3,0.3,0.6,0.3,0.9
		c0.1,0.3,0.1,0.6,0.1,0.9c0,0.3,0,0.5,0,0.7v6.3h-0.8V106c0-0.3,0-0.6-0.1-1c0-0.4-0.2-0.8-0.3-1.1c-0.2-0.4-0.5-0.7-0.9-0.9
		c-0.4-0.3-0.9-0.4-1.6-0.4c-0.6,0-1.1,0.1-1.6,0.3c-0.5,0.2-0.8,0.5-1.2,0.9c-0.3,0.4-0.6,0.8-0.7,1.4c-0.2,0.5-0.2,1.1-0.2,1.7
		v5.5h-0.8V102.2z"/>
	<path fill="#FFFFFF" d="M98.5,105.4c0-0.5-0.2-0.8-0.3-1.2c-0.2-0.3-0.4-0.6-0.7-0.9c-0.3-0.2-0.7-0.4-1.1-0.5
		c-0.4-0.1-0.8-0.2-1.3-0.2c-0.6,0-1.2,0.1-1.7,0.4c-0.5,0.3-0.9,0.6-1.2,1c-0.3,0.4-0.6,0.9-0.8,1.5c-0.2,0.6-0.3,1.1-0.3,1.7
		c0,0.7,0.1,1.3,0.2,1.9c0.2,0.6,0.4,1.1,0.7,1.5c0.3,0.4,0.7,0.8,1.2,1c0.5,0.2,1.1,0.4,1.7,0.4c0.5,0,0.9-0.1,1.3-0.2
		c0.4-0.2,0.8-0.4,1.1-0.7c0.3-0.3,0.6-0.6,0.8-1c0.2-0.4,0.3-0.8,0.4-1.3h0.8c-0.1,0.6-0.2,1.2-0.5,1.6c-0.3,0.5-0.6,0.9-1,1.2
		c-0.4,0.3-0.8,0.6-1.3,0.7c-0.5,0.2-1,0.3-1.6,0.3c-0.8,0-1.6-0.1-2.1-0.4c-0.6-0.3-1.1-0.7-1.5-1.2c-0.4-0.5-0.7-1.1-0.8-1.7
		c-0.2-0.7-0.3-1.3-0.3-2.1s0.1-1.4,0.3-2c0.2-0.6,0.5-1.2,0.9-1.7s0.9-0.9,1.5-1.1c0.6-0.3,1.3-0.4,2-0.4c0.6,0,1.1,0.1,1.6,0.2
		s0.9,0.3,1.3,0.6s0.7,0.6,0.9,1.1c0.2,0.4,0.4,0.9,0.4,1.5H98.5z"/>
	<path fill="#FFFFFF" d="M99.9,102.2h0.9l3.8,9.3l3.5-9.3h0.9l-4.4,11.3c-0.2,0.5-0.4,0.9-0.6,1.3s-0.4,0.6-0.6,0.8
		c-0.3,0.2-0.6,0.3-0.9,0.4c-0.4,0-0.8,0.1-1.4,0.1v-0.7c0.5,0,1,0,1.3-0.1c0.3-0.1,0.6-0.3,0.9-0.5c0.1-0.1,0.3-0.4,0.5-0.8
		c0.2-0.4,0.4-0.9,0.6-1.6L99.9,102.2z"/>
	<path fill="#FFFFFF" d="M115.6,98.3h0.9v14.2h-0.9V98.3z"/>
	<path fill="#FFFFFF" d="M118.4,102.2h0.8v2.2h0c0.1-0.4,0.3-0.7,0.6-1c0.2-0.3,0.5-0.6,0.9-0.8c0.3-0.2,0.7-0.4,1.1-0.5
		c0.4-0.1,0.8-0.2,1.2-0.2c0.6,0,1.1,0.1,1.5,0.2c0.4,0.1,0.8,0.3,1,0.6c0.3,0.2,0.5,0.5,0.6,0.8c0.2,0.3,0.3,0.6,0.3,0.9
		c0.1,0.3,0.1,0.6,0.1,0.9c0,0.3,0,0.5,0,0.7v6.3h-0.8V106c0-0.3,0-0.6-0.1-1c0-0.4-0.2-0.8-0.3-1.1c-0.2-0.4-0.5-0.7-0.9-0.9
		c-0.4-0.3-0.9-0.4-1.6-0.4c-0.6,0-1.1,0.1-1.6,0.3c-0.5,0.2-0.8,0.5-1.2,0.9c-0.3,0.4-0.6,0.8-0.7,1.4c-0.2,0.5-0.2,1.1-0.2,1.7
		v5.5h-0.8V102.2z"/>
	<path fill="#FFFFFF" d="M128.6,100.3v-2.1h0.8v2.1H128.6z M128.6,112.5v-10.2h0.8v10.2H128.6z"/>
	<path fill="#FFFFFF" d="M135.5,102.9h-2.2v7.1c0,0.4,0,0.7,0.1,1c0.1,0.2,0.2,0.4,0.4,0.5c0.2,0.1,0.4,0.2,0.7,0.2
		c0.3,0,0.6,0,0.9,0v0.7c-0.4,0-0.8,0-1.1,0c-0.4,0-0.7-0.1-1-0.3c-0.3-0.2-0.5-0.4-0.7-0.7c-0.2-0.3-0.2-0.8-0.2-1.4v-7.1h-1.9
		v-0.7h1.9v-3.2h0.8v3.2h2.2V102.9z"/>
	<path fill="#FFFFFF" d="M137.1,100.3v-2.1h0.8v2.1H137.1z M137.1,112.5v-10.2h0.8v10.2H137.1z"/>
	<path fill="#FFFFFF" d="M146.6,110.4L146.6,110.4c-0.2,0.3-0.3,0.6-0.6,0.9c-0.2,0.3-0.5,0.5-0.8,0.7c-0.3,0.2-0.7,0.4-1.1,0.5
		c-0.4,0.1-0.9,0.2-1.4,0.2c-1.1,0-1.9-0.2-2.5-0.7c-0.6-0.5-0.9-1.2-0.9-2.2c0-0.6,0.1-1.1,0.4-1.5c0.2-0.4,0.5-0.7,0.9-0.9
		s0.8-0.4,1.2-0.5c0.4-0.1,0.9-0.2,1.3-0.2l1.2-0.1c0.5,0,1-0.1,1.3-0.2c0.3-0.1,0.5-0.2,0.7-0.4c0.2-0.2,0.3-0.3,0.3-0.6
		c0-0.2,0.1-0.5,0.1-0.9c0-0.3-0.1-0.5-0.2-0.8c-0.1-0.2-0.3-0.5-0.5-0.6c-0.2-0.2-0.5-0.3-0.9-0.4c-0.4-0.1-0.8-0.2-1.3-0.2
		c-0.9,0-1.7,0.2-2.2,0.7c-0.6,0.5-0.9,1.1-0.9,2.1h-0.8c0.1-1.1,0.4-2,1.1-2.5c0.7-0.6,1.6-0.8,2.9-0.8s2.1,0.2,2.7,0.7
		c0.6,0.5,0.8,1.1,0.8,1.9v6c0,0.1,0,0.3,0,0.4c0,0.1,0,0.3,0.1,0.4c0,0.1,0.1,0.2,0.2,0.3c0.1,0.1,0.2,0.1,0.4,0.1
		c0.1,0,0.3,0,0.6-0.1v0.6c-0.2,0.1-0.4,0.1-0.6,0.1c-0.3,0-0.5,0-0.7-0.1c-0.2-0.1-0.3-0.2-0.4-0.3c-0.1-0.1-0.2-0.3-0.2-0.5
		c0-0.2,0-0.4,0-0.6V110.4z M146.6,106.7c-0.2,0.2-0.5,0.4-0.8,0.5c-0.4,0.1-0.8,0.1-1.3,0.2l-1.3,0.1c-0.4,0-0.7,0.1-1.1,0.2
		c-0.4,0.1-0.7,0.2-1,0.4c-0.3,0.2-0.5,0.4-0.7,0.7c-0.2,0.3-0.3,0.7-0.3,1.2c0,0.8,0.2,1.3,0.7,1.7c0.5,0.4,1.1,0.5,2,0.5
		c0.9,0,1.5-0.2,2.1-0.5c0.5-0.3,0.9-0.7,1.2-1.1c0.3-0.4,0.4-0.8,0.5-1.2c0.1-0.4,0.1-0.6,0.1-0.8V106.7z"/>
	<path fill="#FFFFFF" d="M153.2,102.9h-2.2v7.1c0,0.4,0,0.7,0.1,1c0.1,0.2,0.2,0.4,0.4,0.5c0.2,0.1,0.4,0.2,0.7,0.2
		c0.3,0,0.6,0,0.9,0v0.7c-0.4,0-0.8,0-1.1,0c-0.4,0-0.7-0.1-1-0.3c-0.3-0.2-0.5-0.4-0.7-0.7c-0.2-0.3-0.2-0.8-0.2-1.4v-7.1h-1.9
		v-0.7h1.9v-3.2h0.8v3.2h2.2V102.9z"/>
	<path fill="#FFFFFF" d="M154.7,100.3v-2.1h0.8v2.1H154.7z M154.7,112.5v-10.2h0.8v10.2H154.7z"/>
	<path fill="#FFFFFF" d="M161.8,112.5h-0.9l-4.1-10.2h0.9l3.7,9.4h0l3.5-9.4h0.8L161.8,112.5z"/>
	<path fill="#FFFFFF" d="M166.6,107.5v0.1c0,0.6,0.1,1.2,0.2,1.7c0.2,0.5,0.4,1,0.7,1.4c0.3,0.4,0.7,0.7,1.2,1
		c0.5,0.2,1,0.4,1.6,0.4c1,0,1.8-0.3,2.4-0.8c0.6-0.5,1-1.3,1.2-2.2h0.8c-0.2,1.2-0.7,2.1-1.5,2.7c-0.8,0.6-1.7,1-3,1
		c-0.8,0-1.4-0.1-2-0.4c-0.6-0.3-1-0.6-1.4-1.1c-0.4-0.5-0.7-1-0.8-1.7c-0.2-0.6-0.3-1.3-0.3-2.1c0-0.7,0.1-1.4,0.3-2.1
		c0.2-0.7,0.5-1.2,0.9-1.7c0.4-0.5,0.9-0.9,1.4-1.2c0.6-0.3,1.3-0.4,2-0.4c0.7,0,1.4,0.1,1.9,0.4c0.6,0.3,1,0.6,1.4,1.1
		c0.4,0.5,0.7,1,0.8,1.6c0.2,0.6,0.3,1.3,0.3,1.9c0,0.1,0,0.1,0,0.2c0,0.1,0,0.2,0,0.2H166.6z M174.1,106.8c0-0.6-0.1-1.1-0.3-1.6
		c-0.2-0.5-0.4-0.9-0.7-1.3c-0.3-0.4-0.7-0.7-1.1-0.9c-0.4-0.2-1-0.3-1.5-0.3c-0.6,0-1.2,0.1-1.6,0.3c-0.5,0.2-0.9,0.5-1.2,0.9
		c-0.3,0.4-0.6,0.8-0.7,1.3c-0.2,0.5-0.3,1-0.3,1.6H174.1z"/>
</g>
<g>
	<path fill="#FFFFFF" d="M4,2.2v37.3c0,1.2,0.1,2.6,0.2,4.3c0.1,1.6,0.4,3.3,0.9,5c0.5,1.7,1.1,3.4,2,5.1c0.8,1.7,2,3.1,3.4,4.4
		c1.5,1.3,3.2,2.4,5.4,3.1c2.1,0.8,4.7,1.2,7.7,1.2c3.8,0,7-0.5,9.6-1.6c2.6-1.1,4.7-2.6,6.3-4.6c1.6-2,2.7-4.4,3.4-7.3
		c0.7-2.8,1-6,1-9.6V2.2h3.8v37.3c0,3.7-0.4,7.2-1.2,10.4c-0.8,3.2-2.1,6-4,8.4c-1.9,2.4-4.3,4.3-7.5,5.6c-3.1,1.4-7,2-11.6,2
		c-3.7,0-6.8-0.5-9.4-1.4s-4.8-2.1-6.5-3.6c-1.7-1.5-3.1-3.2-4.1-5.1c-1-1.9-1.7-3.8-2.3-5.8c-0.5-1.9-0.8-3.8-1-5.7
		c-0.1-1.8-0.2-3.4-0.2-4.8V2.2H4z"/>
	<path fill="#FFFFFF" d="M97.6,20c-0.1-2.7-0.7-5-1.7-7c-1-2-2.4-3.6-4.1-5c-1.7-1.3-3.8-2.3-6.2-3c-2.4-0.7-5-1-7.9-1
		C75.9,4,74,4.2,72,4.6c-2,0.4-3.9,1.1-5.6,2.1c-1.7,1-3.1,2.4-4.2,4.1c-1.1,1.7-1.7,3.8-1.7,6.4c0,2.5,0.6,4.5,1.8,6.1
		c1.2,1.6,2.8,2.8,4.8,3.8c2,1,4.2,1.7,6.8,2.3c2.6,0.6,5.1,1.1,7.8,1.7c2.7,0.5,5.3,1.1,7.8,1.9c2.5,0.7,4.8,1.7,6.8,3
		c2,1.3,3.6,2.9,4.8,4.9s1.8,4.5,1.8,7.5c0,3.3-0.7,6-2.1,8.2c-1.4,2.2-3.2,4-5.3,5.4c-2.1,1.4-4.5,2.4-7.1,3
		c-2.6,0.6-5.1,0.9-7.5,0.9c-3.7,0-7.1-0.4-10.3-1.2c-3.2-0.8-6-2.1-8.4-3.8c-2.4-1.8-4.3-4.1-5.6-6.8c-1.4-2.8-2-6.2-2-10.2h3.8
		c-0.2,3.4,0.3,6.3,1.5,8.7c1.2,2.4,2.8,4.3,4.8,5.8c2.1,1.5,4.5,2.6,7.3,3.3c2.8,0.7,5.7,1,8.8,1c1.9,0,3.8-0.2,6-0.7
		c2.1-0.5,4.1-1.2,5.8-2.4c1.8-1.1,3.3-2.6,4.4-4.4c1.2-1.8,1.8-4.1,1.8-6.8c0-2.6-0.6-4.7-1.8-6.4c-1.2-1.7-2.8-3-4.8-4
		c-2-1-4.3-1.8-6.8-2.4c-2.5-0.6-5.1-1.2-7.8-1.7c-2.6-0.5-5.2-1.1-7.8-1.8c-2.6-0.7-4.8-1.6-6.8-2.8c-2-1.2-3.6-2.7-4.8-4.6
		c-1.2-1.9-1.8-4.3-1.8-7.3c0-3,0.6-5.5,1.9-7.6c1.2-2.1,2.9-3.8,4.9-5.1c2-1.3,4.3-2.3,6.8-2.9c2.5-0.6,5-0.9,7.4-0.9
		c3.3,0,6.3,0.4,9.1,1.1c2.8,0.7,5.3,1.9,7.4,3.4c2.1,1.5,3.8,3.5,5.1,6c1.3,2.4,2,5.4,2.2,8.8H97.6z"/>
</g>
</svg>
