<?xml version="1.0" encoding="utf-8"?>
<!-- Generator: Adobe Illustrator 19.1.0, SVG Export Plug-In . SVG Version: 6.00 Build 0)  -->
<svg version="1.1" id="Layer_1" xmlns="http://www.w3.org/2000/svg" xmlns:xlink="http://www.w3.org/1999/xlink" x="0px" y="0px"
	 viewBox="0 0 271.4 241.2" style="enable-background:new 0 0 271.4 241.2;" xml:space="preserve">
<style type="text/css">
	.st0{fill:#323232;}
	.st1{font-family:'Lato-Light';}
	.st2{font-size:14px;}
	.st3{fill:#6C9050;}
	.st4{fill:#90AB7B;}
	.st5{fill:#91AC7C;}
	.st6{fill:#7B9B61;}
	.st7{fill:none;stroke:#CCCCCC;stroke-width:2.5;stroke-linecap:round;stroke-linejoin:round;stroke-miterlimit:10;}
	.st8{fill:#B5C7A7;}
	.st9{font-family:'Lato-Bold';}
	.st10{font-size:18.501px;}
</style>
<g>
	<text transform="matrix(1 0 0 1 189.6182 202.9428)" class="st0 st1 st2">Governments</text>
	<g>
		<path class="st3" d="M203.6,146.9l24.1-15.3c1.4-0.9,3.2-0.9,4.6,0l24.1,15.3c1.5,0.9,0.8,3.2-0.9,3.2h-51
			C202.8,150.1,202.2,147.8,203.6,146.9z M233.7,142.1c0-2-1.6-3.6-3.6-3.6s-3.6,1.6-3.6,3.6s1.6,3.6,3.6,3.6S233.7,144,233.7,142.1
			z"/>
		<path class="st4" d="M210.1,173.5h-3.4c-0.5,0-0.9-0.4-0.9-0.9v-17.9c0-0.5,0.4-0.9,0.9-0.9h3.4c0.5,0,0.9,0.4,0.9,0.9v17.9
			C211,173.1,210.6,173.5,210.1,173.5z"/>
		<path class="st4" d="M220.9,173.5h-3.4c-0.5,0-0.9-0.4-0.9-0.9v-17.9c0-0.5,0.4-0.9,0.9-0.9h3.4c0.5,0,0.9,0.4,0.9,0.9v17.9
			C221.8,173.1,221.4,173.5,220.9,173.5z"/>
		<path class="st4" d="M231.8,173.5h-3.4c-0.5,0-0.9-0.4-0.9-0.9v-17.9c0-0.5,0.4-0.9,0.9-0.9h3.4c0.5,0,0.9,0.4,0.9,0.9v17.9
			C232.6,173.1,232.3,173.5,231.8,173.5z"/>
		<path class="st4" d="M242.6,173.5h-3.4c-0.5,0-0.9-0.4-0.9-0.9v-17.9c0-0.5,0.4-0.9,0.9-0.9h3.4c0.5,0,0.9,0.4,0.9,0.9v17.9
			C243.5,173.1,243.1,173.5,242.6,173.5z"/>
		<path class="st4" d="M253.5,173.5H250c-0.5,0-0.9-0.4-0.9-0.9v-17.9c0-0.5,0.4-0.9,0.9-0.9h3.4c0.5,0,0.9,0.4,0.9,0.9v17.9
			C254.3,173.1,253.9,173.5,253.5,173.5z"/>
		<path class="st3" d="M257.3,177.8L257.3,177.8c0,0.7-0.5,1.2-1.2,1.2H204c-0.7,0-1.2-0.5-1.2-1.2v0c0-0.7,0.5-1.2,1.2-1.2h52.1
			C256.8,176.6,257.3,177.2,257.3,177.8z"/>
		<path class="st3" d="M261.1,182.6v0.4c0,1-0.8,1.8-1.8,1.8h-58.6c-1,0-1.8-0.8-1.8-1.8v-0.4c0-1,0.8-1.8,1.8-1.8h58.6
			C260.3,180.8,261.1,181.6,261.1,182.6z"/>
	</g>
</g>
<g>
	<text transform="matrix(1 0 0 1 -0.3098 202.9428)" class="st0 st1 st2">Companies</text>
	<g>
		<path class="st3" d="M37,158.7h-9.7c-0.5,0-0.9-0.4-0.9-0.9v-4.4c0-0.4,0.2-0.7,0.5-0.8l8.8-3.4c0.6-0.2,1.2,0.2,1.2,0.8V158.7z"
			/>
		<path class="st3" d="M46.8,158.7h-9.7c-0.5,0-0.8-0.4-0.8-0.8v-4.4c0-0.3,0.2-0.6,0.5-0.8l8.9-3.4c0.5-0.2,1.1,0.2,1.1,0.8V158.7z
			"/>
		<path class="st3" d="M55.8,158.7H47c-0.5,0-0.9-0.4-0.9-0.9v-4.4c0-0.4,0.2-0.7,0.5-0.8l8.8-3.4c0.6-0.2,1.2,0.2,1.2,0.8v7.8
			C56.7,158.3,56.3,158.7,55.8,158.7z"/>
		<path class="st3" d="M9.9,172.8H4.4L5,146.1c0-0.3,0.3-0.6,0.7-0.6h3c0.4,0,0.7,0.3,0.7,0.6L9.9,172.8z"/>
		<path class="st3" d="M17.3,172.8h-5.6l0.7-26.7c0-0.3,0.3-0.6,0.7-0.6h3c0.4,0,0.7,0.3,0.7,0.6L17.3,172.8z"/>
		<path class="st5" d="M60.1,160.6H20.7c-0.5,0-1,0.4-1,1v10.2c0,0.5,0.4,1,1,1h39.4c0.5,0,1-0.4,1-1v-10.2
			C61.1,161.1,60.7,160.6,60.1,160.6z M28.5,168.7h-3.9v-3.9h3.9V168.7z M35.5,168.7h-3.9v-3.9h3.9V168.7z M42.4,168.7h-3.9v-3.9
			h3.9V168.7z M49.3,168.7h-3.9v-3.9h3.9V168.7z M56.2,168.7h-3.9v-3.9h3.9V168.7z"/>
		<path class="st6" d="M62.5,184.8H4c-0.5,0-0.8-0.4-0.8-0.8v-8.3c0-0.5,0.4-0.8,0.8-0.8h58.6c0.5,0,0.8,0.4,0.8,0.8v8.3
			C63.3,184.4,63,184.8,62.5,184.8z"/>
	</g>
</g>
<path class="st7" d="M92.2,32.3c-38.5,16.3-65.6,54.3-66,98.7"/>
<path class="st7" d="M242,123.3c-3.2-41-29.4-75.7-65.6-91"/>
<path class="st7" d="M61.9,212.2c19.2,17.3,44.5,27.8,72.3,27.8c25.5,0,48.9-8.8,67.4-23.6"/>
<g>
	<text transform="matrix(1 0 0 1 97.3951 57.8411)" class="st0 st1 st2">Civil Society</text>
	<circle class="st3" cx="117.8" cy="6.1" r="6.1"/>
	<path class="st3" d="M123.8,38h-12.1V21.6c0-3.3,2.7-6.1,6.1-6.1h0c3.3,0,6.1,2.7,6.1,6.1V38z"/>
	<circle class="st5" cx="134.3" cy="6.1" r="6.1"/>
	<path class="st5" d="M140.3,38h-12.1V21.6c0-3.3,2.7-6.1,6.1-6.1l0,0c3.3,0,6.1,2.7,6.1,6.1V38z"/>
</g>
<circle class="st8" cx="150.8" cy="6.1" r="6.1"/>
<path class="st8" d="M156.8,38h-12.1V21.6c0-3.3,2.7-6.1,6.1-6.1h0c3.3,0,6.1,2.7,6.1,6.1V38z"/>
<text transform="matrix(1 0 0 1 108.6064 115.3642)"><tspan x="0" y="0" class="st3 st9 st10">Multi- </tspan><tspan x="-23.9" y="19.8" class="st3 st9 st10">Stakeholder </tspan><tspan x="-0.3" y="39.6" class="st3 st9 st10">Group</tspan></text>
</svg>
