<?xml version="1.0" encoding="utf-8"?>
<!-- Generator: Adobe Illustrator 19.0.0, SVG Export Plug-In . SVG Version: 6.00 Build 0)  -->
<svg version="1.1" id="Layer_1_copy" xmlns="http://www.w3.org/2000/svg" xmlns:xlink="http://www.w3.org/1999/xlink" x="0px"
	 y="0px" viewBox="0 0 1280 1482.1" enable-background="new 0 0 1280 1482.1" xml:space="preserve">
<polygon id="XMLID_37_" fill="#534136" points="0.1,367.6 0,142.6 1279.9,142.6 1280,414.6 "/>
<polygon id="XMLID_16_" fill="#6E4D36" points="1279.9,338.1 1279.9,1482.1 0,1482.1 0,348.1 "/>
<path id="XMLID_2_" fill="#564025" d="M1279.9,924.6v557.5H0V749c0,0,333,117.5,669,146C915,915.9,1279.9,924.6,1279.9,924.6z"/>
<path id="XMLID_3_" fill="#372F22" d="M1279.9,1269v213.1H0V1349c303.5,7,302.5,20.6,640.1,10C895,1351,1279.9,1269,1279.9,1269z"/>
<rect id="XMLID_120_" y="142.6" fill="#2D8535" width="1280" height="6"/>
<path id="XMLID_30_" fill="#897769" d="M1279.9,346.6c-48.6,8.7-179.3,13.5-255.8,19.5c-75.1,5.9-195.9,60.2-346.5,61.5
	C519.7,429,0,432.1,0,432.1V175.6c0,0,739.1,121.5,857.6,127.5c68.7,3.5,210.5-22.9,283.5-8c73.5,15,138.8,19.5,138.8,19.5V346.6z"
	/>
<polygon id="XMLID_108_" fill="none" stroke="#D54740" stroke-width="4" stroke-linejoin="round" stroke-miterlimit="10" points="
	279.3,118.9 192.3,118.9 192.3,97.3 258.7,97.3 269,98.7 282.7,107.7 "/>
<path id="XMLID_121_" fill="#FFFFFF" stroke="#D54740" stroke-width="4" stroke-linejoin="round" stroke-miterlimit="10" d="
	M293,102.3V122h-12.7c0-10.7-10-19.7-22.1-19.7V87.6h17.1v9.1L293,102.3z"/>
<polygon id="XMLID_117_" fill="#FFFFFF" stroke="#D54740" stroke-width="4" stroke-linejoin="round" stroke-miterlimit="10" points="
	167,96 242,110.3 254.2,80.3 282,80.3 282,73.9 187,73.9 "/>
<circle id="XMLID_109_" fill="#FFFFFF" cx="257.7" cy="125.3" r="8.7"/>
<circle id="XMLID_105_" fill="#FFFFFF" cx="212" cy="125.3" r="8.7"/>
<path id="XMLID_107_" fill="#D54740" stroke="#D54740" stroke-width="4" stroke-miterlimit="10" d="M273,125.3
	c0,8.5-6.9,15.3-15.3,15.3c-8.5,0-15.3-6.9-15.3-15.3s6.9-15.3,15.3-15.3C266.1,110,273,116.9,273,125.3z M257.7,116.6
	c-4.8,0-8.7,3.9-8.7,8.7s3.9,8.7,8.7,8.7c4.8,0,8.7-3.9,8.7-8.7S262.5,116.6,257.7,116.6z"/>
<path id="XMLID_106_" fill="#D54740" stroke="#D54740" stroke-width="4" stroke-miterlimit="10" d="M227.3,125.3
	c0,8.5-6.9,15.3-15.3,15.3s-15.3-6.9-15.3-15.3S203.5,110,212,110S227.3,116.9,227.3,125.3z M212,116.6c-4.8,0-8.7,3.9-8.7,8.7
	s3.9,8.7,8.7,8.7c4.8,0,8.7-3.9,8.7-8.7S216.8,116.6,212,116.6z"/>
<g id="XMLID_229_">
	<g id="XMLID_162_">
		<g id="XMLID_195_">
			
				<polyline id="XMLID_14_" fill="none" stroke="#FFFFFF" stroke-width="9.9339" stroke-linecap="round" stroke-linejoin="round" stroke-miterlimit="10" points="
				359.7,368.3 293.4,321.8 293.4,359 			"/>
			
				<polyline id="XMLID_13_" fill="none" stroke="#897769" stroke-width="3.7252" stroke-linecap="round" stroke-linejoin="round" stroke-miterlimit="10" points="
				359.7,368.3 293.4,321.8 293.4,359 			"/>
		</g>
		<g id="XMLID_165_">
			<path id="XMLID_184_" fill="#FFFFFF" stroke="#FFFFFF" stroke-width="3.7252" stroke-miterlimit="10" d="M341.7,409
				c-5.4,0-9.8,4.4-9.8,9.8s4.4,9.8,9.8,9.8h25.8c5.4,0,9.8-4.4,9.8-9.8s-4.4-9.8-9.8-9.8h-24.5H341.7z"/>
			<path id="XMLID_174_" fill="#897769" d="M345.7,424.5c-3.1,0-5.5-2.5-5.5-5.5c0-3.1,2.5-5.5,5.5-5.5c3.1,0,5.5,2.5,5.5,5.5
				S348.8,424.5,345.7,424.5z"/>
			<path id="XMLID_172_" fill="#897769" d="M364,424.5c-3.1,0-5.5-2.5-5.5-5.5c0-3.1,2.5-5.5,5.5-5.5c3.1,0,5.5,2.5,5.5,5.5
				C369.7,422,367.2,424.5,364,424.5z"/>
			<path id="XMLID_170_" fill="#FFFFFF" stroke="#FFFFFF" stroke-width="3.7252" stroke-miterlimit="10" d="M407.5,409
				c-5.4,0-9.8,4.4-9.8,9.8s4.4,9.8,9.8,9.8h25.8c5.4,0,9.8-4.4,9.8-9.8s-4.4-9.8-9.8-9.8h-24.5H407.5z"/>
			<path id="XMLID_168_" fill="#897769" d="M411.5,424.5c-3.1,0-5.5-2.5-5.5-5.5c0-3.1,2.5-5.5,5.5-5.5c3.1,0,5.5,2.5,5.5,5.5
				S414.6,424.5,411.5,424.5z"/>
			<path id="XMLID_166_" fill="#897769" d="M429.8,424.5c-3.1,0-5.5-2.5-5.5-5.5c0-3.1,2.5-5.5,5.5-5.5c3.1,0,5.5,2.5,5.5,5.5
				C435.5,422,433,424.5,429.8,424.5z"/>
		</g>
		<circle id="XMLID_163_" fill="#FFFFFF" cx="293.1" cy="323.1" r="8.3"/>
	</g>
	<path id="XMLID_197_" fill="#FFFFFF" stroke="#FFFFFF" stroke-width="3.7252" stroke-miterlimit="10" d="M353.8,369.6
		c0-3.9,3.2-7,7-7h0c3.9,0,7.1,3.2,7.1,7.1v10.6c0,3.9-3.2,7.1-7.1,7.1h0c-3.9,0-7-3.2-7-7V369.6z"/>
	<path id="XMLID_199_" fill="#897769" stroke="#FFFFFF" stroke-width="3.7252" stroke-miterlimit="10" d="M349.5,407.4
		c-4,0-7.4-3.4-7.4-7.4v-15.8c0-4.2,3.4-7.6,7.6-7.6h76.7c4.2,0,7.6,3.4,7.6,7.6V400c0,4-3.4,7.4-7.4,7.4H349.5z"/>
	
		<line id="XMLID_128_" fill="none" stroke="#FFFFFF" stroke-width="21.1095" stroke-linejoin="round" stroke-miterlimit="10" x1="293.4" y1="359" x2="293.4" y2="389.5"/>
	
		<line id="XMLID_126_" fill="none" stroke="#FFFFFF" stroke-width="6.2087" stroke-linecap="round" stroke-linejoin="round" stroke-miterlimit="10" x1="293.4" y1="389.5" x2="293.4" y2="405.7"/>
	<path id="XMLID_134_" fill="#FFFFFF" d="M253.4,426c1.6-1,2.6-3.6,4-3.3c1.4,0.3,2.5,2.4,3,3.6c0.5,1.2,1.7,2.6,0.1,3.4
		s-3.2,0.8-5.4,0.8C252.9,430.4,252.1,426.9,253.4,426z"/>
	<path id="XMLID_132_" fill="#FFFFFF" d="M277.7,428.3c-0.1-1.9-1.9-4-0.9-5.1s3.3-1,4.6-0.9c1.3,0.2,3.1-0.2,3,1.6s-0.8,3.2-2,5.1
		C281.3,430.9,277.8,429.8,277.7,428.3z"/>
	<path id="XMLID_4_" fill="#FFFFFF" d="M310.2,421.8c0.2,2.6,2.5,5.6,1.2,7.1s-4.6,1.4-6.4,1.1c-1.8-0.2-4.3,0.3-4.1-2.3
		c0.2-2.5,1.2-4.4,2.8-7C305.3,418.1,310.1,419.7,310.2,421.8z"/>
	<path id="XMLID_200_" fill="#FFFFFF" d="M263.3,428.2c-0.7-3.3-0.6-8.7,2.8-9.2s5.8,2.4,7.9,2.4s3.4,7.8,0.5,7.9
		C271.6,429.4,263.7,430.3,263.3,428.2z"/>
	<path id="XMLID_198_" fill="#FFFFFF" d="M315.7,430.4c-2.1-1.5-5.1-4.4-4.3-5.8s3.2-0.7,3.9-1.4c0.6-0.7,5.5,3,4.6,4
		C319,428.2,317.1,431.3,315.7,430.4z"/>
</g>
<path id="XMLID_228_" fill="#D54740" d="M191.3,68.7c2.1-1.4,3.5-4.8,5.4-4.4c1.9,0.4,3.4,3.2,4,4.9c0.7,1.6,2.3,3.5,0.1,4.5
	c-2.2,1.1-4.3,1.1-7.3,1S189.6,69.9,191.3,68.7z"/>
<path id="XMLID_208_" fill="#D54740" d="M218.4,66.1c3.1-1.1,6-2.1,7,0c0.9,1.8,0.6,4.6,0.1,6.3c-0.5,1.7-0.1,2.5-2.5,1.9
	c-2.4-0.6-4.3-0.1-6.6-2.1C214.2,70.3,216.4,66.8,218.4,66.1z"/>
<path id="XMLID_207_" fill="#D54740" d="M237.6,63c0.2,3.5,3.4,7.6,1.6,9.6c-1.8,2.1-6.2,1.8-8.7,1.5c-2.5-0.3-5.8,0.4-5.5-3.1
	c0.3-3.4,1.6-5.9,3.8-9.5C231,58,237.4,60.1,237.6,63z"/>
<path id="XMLID_206_" fill="#D54740" d="M199.2,69.6c0.1-4.5,2-11.6,6.5-11.2s6.9,5,9.7,5.6c2.7,0.6,2.1,11.3-1.7,10.5
	C209.8,73.6,199.2,72.5,199.2,69.6z"/>
<path id="XMLID_115_" fill="#D54740" d="M241.3,73.7c-4.9-1.3-5.2-5.2-4.1-7.1c1.1-1.9,4-1.5,5.2-1.9c1.7-0.6,7.4,2.5,8.4,4.7
	C253.6,75.2,244.8,74.6,241.3,73.7z"/>
<g id="XMLID_235_">
	<polygon id="XMLID_101_" fill="none" stroke="#FFFFFF" stroke-width="4" stroke-linejoin="round" stroke-miterlimit="10" points="
		443.4,819.4 609,846.4 615.7,805.4 489.4,784.8 469.3,784.2 440.5,797.1 	"/>
	<path id="XMLID_100_" fill="#6E4D36" stroke="#FFFFFF" stroke-width="4" stroke-linejoin="round" stroke-miterlimit="10" d="
		M422.5,783.7l-6.1,37.4l24.1,3.9c3.3-20.3,25.1-34.3,48.2-30.6l4.6-28.1l-32.6-5.3l-2.8,17.4L422.5,783.7z"/>
	
		<polygon id="XMLID_99_" fill="#6E4D36" stroke="#FFFFFF" stroke-width="4" stroke-linejoin="round" stroke-miterlimit="10" points="
		664.3,810.7 517.1,814.8 503.2,753.8 450.2,745.2 452.2,732.9 633.1,762.4 	"/>
	<circle id="XMLID_98_" fill="#6E4D36" cx="482.6" cy="838.5" r="16.8"/>
	<circle id="XMLID_97_" fill="#6E4D36" cx="569.6" cy="852.6" r="16.8"/>
	<path id="XMLID_94_" fill="#FFFFFF" stroke="#FFFFFF" stroke-width="4" stroke-miterlimit="10" d="M487.4,809.3
		c16.1,2.6,27.1,17.8,24.4,33.9c-2.6,16.1-17.8,27.1-33.9,24.4c-16.1-2.6-27.1-17.8-24.4-33.9C456,817.6,471.2,806.7,487.4,809.3z
		 M466,835.8c-1.5,9.2,4.7,17.8,13.9,19.3c9.2,1.5,17.8-4.7,19.3-13.9s-4.7-17.8-13.9-19.3S467.5,826.6,466,835.8z"/>
	<path id="XMLID_91_" fill="#FFFFFF" stroke="#FFFFFF" stroke-width="4" stroke-miterlimit="10" d="M574.3,823.4
		c16.1,2.6,27.1,17.8,24.4,33.9c-2.6,16.1-17.8,27.1-33.9,24.4c-16.1-2.6-27.1-17.8-24.4-33.9S558.2,820.8,574.3,823.4z M553,849.9
		c-1.5,9.2,4.7,17.8,13.9,19.3s17.8-4.7,19.3-13.9s-4.7-17.8-13.9-19.3C563.1,834.5,554.4,840.7,553,849.9z"/>
	<path id="XMLID_68_" fill="#FFFFFF" d="M626.5,751.2c-3.6-3.3-5.2-10.3-9-10.1c-3.8,0.2-7.4,5.1-9.2,8c-1.8,2.9-5.5,5.9-1.6,8.6
		c3.9,2.7,7.8,3.5,13.5,4.2S629.4,753.9,626.5,751.2z"/>
	<path id="XMLID_66_" fill="#FFFFFF" d="M575.7,737.9c-5.6-3-10.8-5.8-13.3-2.3c-2.3,3.1-2.6,8.6-2.2,12s-0.6,4.8,4.2,4.5
		c4.7-0.3,8.2,1.1,13.2-1.9S579.3,739.8,575.7,737.9z"/>
	<path id="XMLID_64_" fill="#FFFFFF" d="M540.2,726c-1.5,6.6-8.8,13.4-6,17.9c2.8,4.5,11.3,5.4,16,5.5c4.8,0.1,11,2.5,11.5-4.1
		c0.5-6.6-1.2-11.8-4.3-19.2C554.3,718.6,541.4,720.5,540.2,726z"/>
	<path id="XMLID_17_" fill="#FFFFFF" d="M611.2,750.5c1.2-8.6-0.2-22.7-8.8-23.3c-8.7-0.6-14.7,7.3-20.1,7.6s-7.5,20.9,0,20.5
		S610.4,755.9,611.2,750.5z"/>
	<path id="XMLID_15_" fill="#FFFFFF" d="M529.7,745.2c9.7-1,11.5-8.3,10-12.2c-1.4-3.9-7.1-4.1-9.3-5.3c-3.1-1.7-14.9,2.5-17.4,6.3
		C506,744.4,522.8,745.9,529.7,745.2z"/>
</g>
<g id="XMLID_234_">
	<defs>
		<rect id="XMLID_102_" x="0" y="824.5" width="578.3" height="651"/>
	</defs>
	<clipPath id="XMLID_5_">
		<use xlink:href="#XMLID_102_"  overflow="visible"/>
	</clipPath>
	<g id="XMLID_20_" clip-path="url(#XMLID_5_)">
		<g id="XMLID_43_">
			
				<polyline id="XMLID_33_" fill="none" stroke="#FFFFFF" stroke-width="34.9108" stroke-linecap="round" stroke-linejoin="round" stroke-miterlimit="10" points="
				135.2,1239.4 272.3,1054.8 339.3,1223 			"/>
			
				<polyline id="XMLID_19_" fill="none" stroke="#564026" stroke-width="20" stroke-linecap="round" stroke-linejoin="round" stroke-miterlimit="10" points="
				135.2,1239.4 272.3,1054.8 339.3,1223 			"/>
		</g>
		<g id="XMLID_24_">
			<path id="XMLID_41_" fill="#564026" stroke="#FFFFFF" stroke-width="8" stroke-miterlimit="10" d="M-69.9,1272.3v-120
				c0-14.8,11.8-26.6,26.6-26.6h127c13.6,0,26.6,10.6,30.1,23.6l30.7,121.1c1.8,7.1,0.6,14.2-3.5,19.5c-4.1,5.3-11.2,8.3-18.3,8.3
				H-43.9C-58.1,1298.3-69.9,1286.4-69.9,1272.3z"/>
			<path id="XMLID_39_" fill="#FFFFFF" stroke="#FFFFFF" stroke-width="13.0915" stroke-miterlimit="10" d="M149.3,1308.6H-41.6
				c-18.9,0-34.3,15.4-34.3,34.3c0,18.9,15.4,34.3,34.3,34.3h195.2c18.9,0,34.3-15.4,34.3-34.3c0-18.9-15.4-34.3-34.3-34.3H149.3z"
				/>
			<path id="XMLID_35_" fill="none" stroke="#FFFFFF" stroke-width="13.0915" stroke-linejoin="round" stroke-miterlimit="10" d="
				M90.2,1228.5L90.2,1228.5L76,1172.4c-0.6-2.4-3.5-4.7-5.9-4.7H32.3c-1.8,0-3,1.2-3,3v55c0,1.8,1.2,3,3,3H90.2
				C89.6,1228.5,90.2,1228.5,90.2,1228.5L90.2,1228.5z"/>
			<path id="XMLID_32_" fill="#564026" d="M120.1,1343.4c0-10.6,8.5-19.4,19.4-19.4c10.6,0,19.4,8.5,19.4,19.4
				c0,10.6-8.5,19.4-19.4,19.4C128.5,1362.9,120.1,1354,120.1,1343.4z"/>
			<path id="XMLID_29_" fill="#564026" d="M64.3,1343.4c0-10.6,8.5-19.4,19.4-19.4c10.6,0,19.4,8.5,19.4,19.4
				c0,10.6-8.5,19.4-19.4,19.4S63.9,1354,64.3,1343.4z"/>
			<path id="XMLID_27_" fill="#564026" d="M8.1,1343.4c0-10.6,8.9-19.4,19.4-19.4s19.4,8.5,19.4,19.4c0,10.6-8.5,19.4-19.4,19.4
				C17,1362.9,8.1,1354,8.1,1343.4z"/>
			<path id="XMLID_25_" fill="#564026" d="M-48.1,1343.4c0-10.6,8.5-19.4,19.4-19.4c10.6,0,19.4,8.5,19.4,19.4
				c0,10.6-8.5,19.4-19.4,19.4C-39.2,1362.9-48.1,1354-48.1,1343.4z"/>
		</g>
		<circle id="XMLID_23_" fill="#FFFFFF" cx="273.5" cy="1060.2" r="32.7"/>
		<path id="XMLID_21_" fill="#FFFFFF" d="M432.4,1234.5c16.8,30.2,10.5,68.4-15,91.2c-9.7,8.7-21.7,14.7-34.4,17.4
			c-3.4,0.7-7.1-0.8-9-3.8c-1.9-3-2.1-6.8,0.1-9.6c15-21.4,13.2-50.7-4.1-70.1c-8.7-9.7-20.9-16.2-34.6-18.2c-3.3-0.2-6.6-2-9-4.7
			c-3.5-4-4.5-9.5-3-14.8c1-2.5,2.3-4.5,4.1-6.1c2.2-2,5.2-3.1,8.6-3.7c0.4-0.4,1.3-0.3,2.1-0.3l0.8,0l74.7,10.8
			c2.9,0.6,11.6,2.3,16.3,7.6C431.7,1232,432.4,1233.7,432.4,1234.5z"/>
	</g>
	<path id="XMLID_233_" clip-path="url(#XMLID_5_)" fill="#FFFFFF" d="M219,1363.5c7.2-4.7,12-16.5,18.6-15.1
		c6.6,1.4,11.5,11,13.8,16.6c2.3,5.6,7.9,11.9,0.3,15.5c-7.6,3.6-14.6,3.9-24.8,3.5S213,1367.5,219,1363.5z"/>
	<path id="XMLID_232_" clip-path="url(#XMLID_5_)" fill="#FFFFFF" d="M252.5,1434.3c-14.4-1.4-27.5-2.8-27.9-12.6
		c-0.4-8.6,1.7-14.9,6.9-20.7s17-14.7,25.5-8c8.5,6.7,9.1,8.7,14.5,20.6C276.9,1425.5,261.6,1435.2,252.5,1434.3z"/>
	<path id="XMLID_133_" clip-path="url(#XMLID_5_)" fill="#FFFFFF" d="M367.3,1386.8c0.7,8.9,11.5,19.2,5.3,24.4
		c-6.2,5.2-21,4.7-29.3,3.8c-8.3-0.9-19.7,0.9-18.8-7.8c0.9-8.7,5.4-15,12.9-24C344.9,1374.2,366.7,1379.4,367.3,1386.8z"/>
	<path id="XMLID_131_" clip-path="url(#XMLID_5_)" fill="#FFFFFF" d="M266.8,1388.3c-3.6-19.3-1.7-51.3,17.8-53.5
		c19.6-2.2,34,15.1,46.2,15.3s18.9,46.6,1.8,46.4C315.5,1396.3,269,1400.5,266.8,1388.3z"/>
	<path id="XMLID_125_" clip-path="url(#XMLID_5_)" fill="#FFFFFF" d="M429.8,1427.9c-14.8-4-15.6-15.7-12.4-21.3
		c3.2-5.6,12-4.5,15.7-5.9c5.2-1.9,22.3,7.6,25.3,14.2C466.6,1432.6,440.4,1430.7,429.8,1427.9z"/>
</g>
</svg>
