<?xml version="1.0" encoding="utf-8"?>
<!-- Generator: Adobe Illustrator 19.0.0, SVG Export Plug-In . SVG Version: 6.00 Build 0)  -->
<svg version="1.1" id="Layer_3" xmlns="http://www.w3.org/2000/svg" xmlns:xlink="http://www.w3.org/1999/xlink" x="0px" y="0px"
	 viewBox="0 0 1280 1432" enable-background="new 0 0 1280 1432" xml:space="preserve">
<path id="XMLID_76_" fill="#E1F3FD" d="M544.8,802.6c-1.1-4.5-20-11.7-26-7.3c-3-3.5-12.2-0.7-12.7,2.3c-10-1-13.7,2.9-17.1,3.4
	c-2.8,0.4-4.5,0.8-4.2,1.6C485.6,805.2,545.8,807.1,544.8,802.6z"/>
<path id="XMLID_73_" fill="#9ABFA5" d="M0,1086.1v130.2h1280v-164.7c-123,11-322.2,27.3-399.9,37.5
	C389.6,1153.6,110.6,1081.6,0,1086.1z"/>
<g id="XMLID_66_">
	<path id="XMLID_72_" fill="#CDECFC" d="M385.4,1132.5c0.1-17.6,1-44.6,1.4-53.2h1.4c0.4,8.6,1.2,36.1,1.4,53.7"/>
	<path id="XMLID_71_" fill="#CDECFC" d="M379.5,1080.9c1.1-0.3,8.1-1,8.2-0.8c0.2,0.6-4.3,1.9-9.8,3.6c-5.5,1.7-10.1,2.8-10.2,2.5
		C367.5,1085.5,377.7,1081.5,379.5,1080.9z"/>
	<circle id="XMLID_70_" fill="#CDECFC" cx="387.3" cy="1080.3" r="1.6"/>
	<path id="XMLID_69_" fill="#CDECFC" d="M391.7,1086.8c-0.8-0.8-4.9-6.6-4.7-6.7c0.4-0.5,3.8,2.8,8,6.7c4.2,4,7.5,7.3,7.2,7.6
		C401.8,1094.8,393.2,1088.1,391.7,1086.8z"/>
	<path id="XMLID_68_" fill="#CDECFC" d="M390.7,1073.3c-0.3,1.1-3.2,7.5-3.4,7.5c-0.6-0.1,0.5-4.7,1.8-10.3c1.3-5.6,2.6-10.1,3-10
		C392.7,1060.5,391.2,1071.4,390.7,1073.3z"/>
</g>
<g id="XMLID_60_">
	<path id="XMLID_65_" fill="#CDECFC" d="M179.3,1120.2c0.2-26.1,1.4-66.1,2-79h2.2c0.6,12.8,1.8,53.5,2,79.6"/>
	<path id="XMLID_64_" fill="#CDECFC" d="M170.5,1043.7c1.6-0.5,12.1-1.4,12.2-1.1c0.3,0.9-6.4,2.8-14.6,5.3
		c-8.2,2.5-15,4.1-15.1,3.6C152.7,1050.6,167.7,1044.5,170.5,1043.7z"/>
	<circle id="XMLID_63_" fill="#CDECFC" cx="182.1" cy="1042.8" r="2.4"/>
	<path id="XMLID_62_" fill="#CDECFC" d="M188.6,1052.4c-1.2-1.1-7.3-9.7-7-10c0.7-0.7,5.6,4.1,11.9,10c6.2,5.9,11.1,10.9,10.7,11.3
		C203.5,1064.4,190.7,1054.4,188.6,1052.4z"/>
	<path id="XMLID_61_" fill="#CDECFC" d="M187.1,1032.4c-0.4,1.6-4.8,11.2-5.1,11.1c-0.9-0.2,0.8-7,2.7-15.3s3.9-15,4.4-14.9
		C190,1013.5,187.8,1029.6,187.1,1032.4z"/>
</g>
<g id="XMLID_54_">
	<path id="XMLID_59_" fill="#CDECFC" d="M104.8,1115.2c0.2-26.1,1.4-66.1,2-79h2.2c0.6,12.8,1.8,53.5,2,79.6"/>
	<path id="XMLID_58_" fill="#CDECFC" d="M100.6,1047c0.7-1.5,6.9-10,7.3-9.8c0.9,0.4-2.2,6.7-5.8,14.4c-3.6,7.8-6.9,13.9-7.3,13.7
		C93.9,1064.9,99.4,1049.7,100.6,1047z"/>
	<circle id="XMLID_57_" fill="#CDECFC" cx="107.6" cy="1037.8" r="2.4"/>
	<path id="XMLID_56_" fill="#CDECFC" d="M119.1,1039.3c-1.6,0.1-12.1-1-12.1-1.4c-0.1-0.9,6.8-1.5,15.4-2.2s15.5-1,15.5-0.5
		C138,1036.2,122,1039.1,119.1,1039.3z"/>
	<path id="XMLID_55_" fill="#CDECFC" d="M103.2,1027.2c0.9,1.3,5.2,11,4.9,11.2c-0.8,0.5-4.7-5.2-9.6-12.2c-4.9-7-8.6-12.9-8.2-13.2
		C91,1012.4,101.5,1024.8,103.2,1027.2z"/>
</g>
<g id="XMLID_48_">
	<path id="XMLID_53_" fill="#CDECFC" d="M263.4,1117.6c0.2-22.4,1.2-56.8,1.7-67.8h1.8c0.5,11,1.6,45.9,1.7,68.4"/>
	<path id="XMLID_52_" fill="#CDECFC" d="M259.7,1059c0.6-1.3,6-8.6,6.2-8.4c0.7,0.3-1.8,5.7-5,12.4c-3.1,6.7-5.9,11.9-6.3,11.8
		C254,1074.4,258.7,1061.3,259.7,1059z"/>
	<circle id="XMLID_51_" fill="#CDECFC" cx="265.8" cy="1051.1" r="2.1"/>
	<path id="XMLID_50_" fill="#CDECFC" d="M275.6,1052.4c-1.4,0.1-10.4-0.9-10.4-1.2c-0.1-0.8,5.9-1.3,13.2-1.9s13.3-0.9,13.3-0.4
		C291.8,1049.7,278.1,1052.2,275.6,1052.4z"/>
	<path id="XMLID_49_" fill="#CDECFC" d="M262,1041.9c0.8,1.2,4.4,9.4,4.2,9.6c-0.7,0.5-4-4.5-8.3-10.5c-4.2-6-7.4-11.1-7-11.3
		C251.5,1029.3,260.5,1039.9,262,1041.9z"/>
</g>
<g id="XMLID_42_">
	<path id="XMLID_47_" fill="#CDECFC" d="M340.1,1117.7c0.1-16.7,0.9-42.2,1.3-50.4h1.4c0.4,8.2,1.2,34.2,1.3,50.8"/>
	<path id="XMLID_46_" fill="#CDECFC" d="M337.4,1074.2c0.4-0.9,4.4-6.4,4.6-6.3c0.6,0.3-1.4,4.2-3.7,9.2c-2.3,5-4.4,8.9-4.7,8.7
		C333.2,1085.6,336.7,1075.9,337.4,1074.2z"/>
	<circle id="XMLID_45_" fill="#CDECFC" cx="341.9" cy="1068.3" r="1.6"/>
	<path id="XMLID_44_" fill="#CDECFC" d="M349.3,1069.3c-1,0.1-7.7-0.7-7.7-0.9c-0.1-0.6,4.4-0.9,9.8-1.4c5.4-0.5,9.9-0.6,9.9-0.3
		C361.3,1067.3,351.1,1069.1,349.3,1069.3z"/>
	<path id="XMLID_43_" fill="#CDECFC" d="M339.1,1061.5c0.6,0.9,3.3,7,3.1,7.1c-0.5,0.3-3-3.3-6.1-7.8s-5.5-8.2-5.2-8.4
		C331.3,1052.1,338,1060,339.1,1061.5z"/>
</g>
<path id="XMLID_39_" fill="#7FAE8D" d="M0,1150.6v65.7h1280v-164.7c-123,11-335.4-8.8-413.4-1.5S262.1,1161.1,0,1150.6z"/>
<path id="XMLID_38_" fill="#EDF8FE" d="M421.5,1234.1c0.6-84.7,4.7-253.2,6.5-294.7h7c1.9,41.5,5.9,212.2,6.5,296.9"/>
<path id="XMLID_37_" fill="#EDF8FE" d="M448.4,908.7c-1.4,5.1-16.7,35.6-17.7,35.4c-3-0.8,3.2-22.4,10.4-49.2
	c7.2-26.8,14.2-48.2,15.8-47.8C459.8,847.9,450.8,899.6,448.4,908.7z"/>
<circle id="XMLID_36_" fill="#EDF8FE" cx="431" cy="942" r="7.9"/>
<path id="XMLID_35_" fill="#EDF8FE" d="M393.6,943.5c5.1-1.4,39.2-3.4,39.5-2.3c0.8,3-21,8.5-47.9,15.6
	c-26.8,7.1-48.9,11.8-49.3,10.2C335.1,964.1,384.4,946,393.6,943.5z"/>
<path id="XMLID_34_" fill="#EDF8FE" d="M451.1,973.6c-3.8-3.8-22.5-32.3-21.8-33c2.2-2.2,17.8,14,37.4,33.6
	c19.6,19.7,34.7,36.4,33.5,37.6C498.1,1014,457.8,980.3,451.1,973.6z"/>
<path id="XMLID_33_" fill="#DAF0FC" d="M140.8,1205c0.4-51.4,2.8-153.6,4-178.8h4.2c1.1,25.2,3.6,128.8,4,180.1"/>
<path id="XMLID_32_" fill="#DAF0FC" d="M133,1047.7c1.3-3,13.2-19.9,13.8-19.7c1.7,0.7-3.9,13.2-10.6,28.6
	c-6.7,15.4-12.8,27.7-13.7,27.3C120.7,1083.2,130.7,1053,133,1047.7z"/>
<circle id="XMLID_31_" fill="#DAF0FC" cx="146.3" cy="1029.3" r="4.8"/>
<path id="XMLID_30_" fill="#DAF0FC" d="M169,1031.7c-3.2,0.4-23.8-1.4-23.9-2.1c-0.2-1.9,13.4-3.2,30.1-5.1s30.4-2.8,30.5-1.8
	C205.8,1024.5,174.7,1031,169,1031.7z"/>
<path id="XMLID_29_" fill="#DAF0FC" d="M137.1,1008.5c1.9,2.6,10.7,21.4,10.1,21.7c-1.5,1.1-9.5-10-19.5-23.5
	c-10-13.5-17.6-24.9-16.8-25.5C112.5,980.1,133.7,1003.9,137.1,1008.5z"/>
<path id="XMLID_28_" fill="#E9F6FD" d="M275.5,1224.5c0.5-68.9,3.8-205.9,5.3-239.7h5.7c1.5,33.8,4.8,172.7,5.3,241.5"/>
<path id="XMLID_27_" fill="#E9F6FD" d="M255.2,974.9c4.3,0.8,30,11.2,29.8,12.1c-0.5,2.5-18.4-1.1-40.6-5.2s-40-8.4-39.8-9.7
	C205.1,969.6,247.6,973.5,255.2,974.9z"/>
<circle id="XMLID_26_" fill="#E9F6FD" cx="283.3" cy="986.9" r="6.4"/>
<path id="XMLID_25_" fill="#E9F6FD" d="M287,1017.1c-1.4-4.1-5.3-31.6-4.5-31.9c2.4-0.8,8.2,16.5,15.8,37.8
	c7.5,21.3,12.8,38.9,11.5,39.3C307.4,1063.2,289.6,1024.4,287,1017.1z"/>
<path id="XMLID_24_" fill="#E9F6FD" d="M307.6,968.5c-2.8,3.3-24.7,20.4-25.4,19.8c-1.9-1.6,10.2-15.4,24.8-32.5
	c14.7-17.2,27.3-30.5,28.3-29.6C337.3,927.8,312.6,962.7,307.6,968.5z"/>
<g id="XMLID_18_">
	<path id="XMLID_23_" fill="#D5EFFC" d="M58.4,1191.2c0.3-42.2,2.3-126.1,3.2-146.8h3.5c0.9,20.7,2.9,105.7,3.2,147.9"/>
	<path id="XMLID_22_" fill="#D5EFFC" d="M44.3,1048.4c2.5-0.8,19.5-2.3,19.6-1.8c0.4,1.5-10.3,4.6-23.6,8.5
		c-13.2,4-24.1,6.7-24.4,5.9C15.6,1059.5,39.8,1049.7,44.3,1048.4z"/>
	<circle id="XMLID_21_" fill="#D5EFFC" cx="63" cy="1047" r="3.9"/>
	<path id="XMLID_20_" fill="#D5EFFC" d="M73.5,1062.4c-1.9-1.8-11.7-15.7-11.4-16.1c1.1-1.1,9.1,6.7,19.2,16.2s17.8,17.6,17.3,18.2
		C97.5,1081.7,76.9,1065.6,73.5,1062.4z"/>
	<path id="XMLID_19_" fill="#D5EFFC" d="M71.1,1030.2c-0.6,2.6-7.7,18-8.3,17.9c-1.5-0.4,1.2-11.2,4.4-24.7
		c3.2-13.5,6.3-24.2,7.1-24C75.8,999.7,72.2,1025.6,71.1,1030.2z"/>
</g>
<g id="XMLID_13_">
	<path id="XMLID_17_" fill="#E1F3FD" d="M1237.8,727.1c14.2-1.9,34.6-5.2,42.2-7.2v-17c-18.3,6.6-34.1,12.4-44.4,17
		c-0.6-0.8-1.2-1.6-2-2.2c-3.9-3.2-9.2-3.6-13.3-1.3c-9.7-12.7-24.8-31.1-28.9-34.5c-11-9.2-76.2-54.4-79.2-50.8
		c-1.6,1.9,23.4,25,55.5,52c19.3,16.1,36.2,30.6,47.4,38.8c-2.2,4.8-1,10.6,3.2,14.1c0.5,0.4,0.9,0.7,1.4,1
		c-6.1,14.8-14.5,37.1-15.4,42.2c-2.5,14.1-9,93.2-4.4,94c2.4,0.4,10-32.8,17.2-74.1c2.1-11.9,4.1-23.1,5.8-33.1
		c-2.3,72.2-5.2,198-7,302.1h27.6c-2-122.4-5.8-274.2-8-334.3C1237,731.8,1237.8,729.4,1237.8,727.1z"/>
</g>
<path id="XMLID_8_" fill="#579469" d="M0,1119.5v312.8h1280v-400.8c-123,18-373,82-451,94S295,1185.5,0,1119.5z"/>
<path id="XMLID_7_" fill="#FFFFFF" d="M322.2,513.4c-14,3.8-106.6,9.7-107.3,6.8c-2.2-8.1,57.1-23.3,129.9-43
	c72.9-19.7,132.7-32.7,133.9-28.4C480.9,457,347.1,506.7,322.2,513.4z"/>
<circle id="XMLID_6_" fill="#FFFFFF" cx="220.3" cy="518.1" r="21.4"/>
<path id="XMLID_5_" fill="#FFFFFF" d="M165.3,432.3c10.3,10.2,61.7,87.5,59.6,89.5c-5.9,5.9-48.7-37.8-102.2-91
	s-94.7-98.6-91.5-101.7C37.1,323.1,147,414.1,165.3,432.3z"/>
<path id="XMLID_4_" fill="#FFFFFF" d="M173.5,608.7c3.7-14,44.9-97.1,47.7-96.4c8.1,2.2-8.4,61.1-27.7,134s-38,131.3-42.3,130.1
	C143.1,774.3,166.9,633.6,173.5,608.7z"/>
<path id="XMLID_3_" fill="#FFFFFF" d="M194.3,1312.6c1.7-230.3,12.6-688.4,17.7-801.4H231c5.1,113,16,575.1,17.7,805.4L194.3,1312.6
	z"/>
<path id="XMLID_2_" fill="#FFFFFF" d="M339.4,610.5c4.4-18.7,83-48.7,108.1-30.3c12.4-14.6,50.6-3,52.7,9.5
	c41.4-4.3,56.9,12.1,71.1,14.1c11.6,1.7,18.7,3.3,17.6,6.6C585.5,621,335,629.2,339.4,610.5z"/>
<path id="XMLID_1_" fill="#E9F6FD" d="M145.7,845.2c-1.3-4.9-16.3-13.2-23.8-8.3c-4.3-2.8-21.8-2.3-28.5,1.7
	c-12.3-1.1-15.2,3.2-19.5,3.8c-3.4,0.4-2.9,2-2.5,2.9C72.5,847.9,147.1,850.1,145.7,845.2z"/>
<rect id="XMLID_11_" x="0" y="-0.1" fill="none" width="20" height="41.5"/>
<rect id="XMLID_14_" x="1260" y="-0.1" fill="none" width="20" height="41.5"/>
</svg>
